# Blender 5.1.1
# www.blender.org
mtllib battery_dark.mtl
o battery_dark
v -0.089017 0.020404 -0.038609
v -0.089268 0.028457 -0.031596
v -0.089035 0.032916 -0.029103
v -0.089095 0.032408 0.014885
v -0.089026 -0.033515 -0.026839
v -0.097956 0.033220 -0.022670
v -0.095859 0.033519 -0.022541
v -0.089233 0.033344 -0.017814
v -0.087311 0.037673 -0.008884
v -0.089174 0.033736 -0.009767
v -0.087295 0.037641 -0.019013
v -0.091278 0.035885 -0.009540
v -0.091941 0.033520 -0.018919
v -0.095369 -0.035488 -0.021736
v -0.097409 -0.035040 -0.018141
v -0.098814 -0.035976 -0.016671
v -0.099852 -0.039536 -0.016305
v -0.100129 -0.034461 -0.016271
v -0.100324 -0.033648 -0.016420
v -0.098678 -0.033369 -0.018266
v -0.096819 -0.036014 -0.021814
v -0.096376 -0.034922 -0.021670
v -0.096797 -0.033552 -0.022073
v -0.092319 -0.034846 -0.022552
v -0.089239 -0.033460 -0.022610
v -0.093962 -0.035247 -0.020999
v -0.090194 -0.035436 -0.021105
v -0.096087 -0.035396 -0.020530
v -0.089232 -0.033436 -0.008213
v -0.087309 -0.037672 -0.018316
v -0.089237 -0.033446 -0.017678
v -0.087058 -0.037439 -0.007981
v -0.091297 -0.035895 -0.008199
v -0.092773 -0.035385 -0.008258
v -0.092518 -0.034652 -0.008244
v -0.092089 -0.033576 -0.008269
v -0.092088 -0.033576 -0.017770
v -0.092435 -0.034492 -0.017757
v -0.093000 -0.034999 -0.017684
v -0.091278 -0.035885 -0.017660
v -0.095047 0.033520 -0.026802
v -0.102415 0.034465 -0.016001
v -0.100189 0.033700 -0.016228
v -0.100211 0.034483 -0.015680
v -0.100176 0.034473 -0.011521
v -0.100105 0.034465 -0.010916
v -0.102097 0.034465 -0.006297
v -0.098310 0.034465 -0.006036
v -0.101723 0.034763 -0.000847
v -0.102616 0.034400 -0.020197
v -0.098423 0.033673 -0.021146
v -0.098454 0.033808 -0.020422
v -0.100899 0.034465 -0.020873
v -0.102008 0.034465 -0.019298
v -0.098836 0.035952 -0.016671
v -0.096826 0.035990 -0.021838
v -0.097408 0.035036 -0.018141
v -0.100176 0.033744 -0.010925
v -0.102615 0.034739 -0.011200
v -0.098234 0.034522 -0.023178
v -0.101980 0.030483 -0.023002
v -0.098824 0.032154 -0.028844
v -0.097999 0.032620 -0.025764
v -0.101960 -0.034451 -0.000525
v -0.101424 -0.034721 -0.001468
v -0.100625 -0.034793 -0.002635
v -0.097193 -0.034909 -0.002779
v -0.100206 -0.034484 -0.015675
v -0.102406 -0.034466 -0.016000
v -0.100175 -0.034471 -0.011516
v -0.100106 -0.034465 -0.010918
v -0.100175 -0.033744 -0.010926
v -0.098394 -0.034457 -0.006620
v -0.098357 -0.034464 -0.006054
v -0.102096 -0.034465 -0.006297
v -0.102594 -0.034713 -0.011203
v -0.102206 -0.034475 -0.020690
v -0.095500 -0.034483 -0.025431
v -0.098551 -0.033767 -0.020440
v -0.102212 -0.033471 -0.018168
v -0.101101 -0.033534 -0.020610
v -0.095032 -0.034571 -0.027138
v -0.095089 0.034525 -0.025353
v -0.095214 0.033555 -0.027561
v -0.095089 0.033522 -0.028817
v -0.104053 -0.025974 -0.023385
v -0.097869 -0.032716 -0.026512
v -0.099647 0.015000 -0.020932
v -0.098840 -0.000580 -0.012701
v -0.099880 -0.016788 0.001088
v -0.099744 -0.009785 -0.005823
v -0.099577 -0.000565 -0.010767
v -0.099745 -0.000566 0.001084
v -0.099748 0.017136 0.001089
v -0.099748 -0.000892 -0.005815
v -0.100463 -0.009636 0.001039
v -0.102812 -0.009994 -0.000423
v -0.103538 -0.010006 -0.004358
v -0.101693 -0.021095 -0.000519
v -0.099529 -0.028753 0.003664
v -0.093559 0.028892 0.014817
v -0.089243 0.011657 -0.036859
v -0.090266 0.011702 -0.036853
v -0.103092 0.010016 -0.035358
v -0.102067 0.019573 -0.035367
v -0.101967 0.018968 -0.035400
v -0.090256 0.011655 -0.037411
v -0.089245 0.011675 -0.037398
v -0.103169 0.009879 -0.003932
v -0.100846 0.031037 -0.000622
v -0.102605 0.029416 -0.014793
v -0.102288 0.028720 -0.010600
v -0.102308 -0.000519 -0.012339
v -0.103185 0.006353 -0.012147
v -0.103313 -0.000248 -0.009558
v -0.103874 0.006284 -0.006979
v -0.101786 0.032415 -0.015187
v -0.101840 0.032526 -0.011899
v -0.102132 0.032625 -0.010600
v -0.097793 0.032694 -0.023329
v -0.098942 0.032222 -0.022677
v -0.097717 0.028563 -0.024317
v -0.097738 0.030901 -0.026758
v -0.104471 0.022753 -0.026911
v -0.105390 0.017529 -0.027668
v -0.105006 0.018459 -0.022426
v -0.100531 0.013956 -0.020748
v -0.100531 -0.000544 -0.020748
v -0.104584 0.018293 -0.020678
v -0.104019 0.020031 -0.015293
v -0.104187 0.014020 -0.017076
v -0.102041 0.028521 -0.022703
v -0.098050 0.027143 -0.025485
v -0.097688 0.026771 -0.027399
v -0.097642 0.029335 -0.028874
v -0.102800 0.031655 -0.026569
v -0.102797 0.028222 -0.024100
v -0.102800 0.025890 -0.028048
v -0.102800 0.029635 -0.029512
v -0.104300 0.025436 -0.025431
v -0.104300 0.028380 -0.030201
v -0.104300 0.032201 -0.025217
v -0.104210 -0.000970 -0.006758
v -0.103633 -0.000960 -0.012199
v -0.099911 -0.000895 -0.014851
v -0.103545 -0.009542 -0.006786
v -0.103871 -0.006268 -0.007087
v -0.103196 -0.006364 -0.009601
v -0.103467 -0.006329 -0.012216
v -0.100421 0.017145 0.010644
v -0.102791 0.010188 0.001141
v -0.094253 0.028920 0.012201
v -0.094532 0.028799 0.013325
v -0.093658 0.026827 0.008463
v -0.093688 0.030257 0.007115
v -0.094050 0.030520 0.010656
v -0.094050 0.026884 0.010321
v -0.098801 0.030000 0.011736
v -0.098800 0.026878 0.006881
v -0.098800 0.030564 0.006780
v -0.098806 0.025775 0.010137
v -0.100300 0.031117 0.006941
v -0.100300 0.026688 0.006448
v -0.100294 0.025977 0.011299
v -0.100300 0.031375 0.011455
v -0.095301 0.028410 0.015342
v -0.097771 0.026376 0.011814
v -0.102999 0.009839 -0.000356
v -0.092264 0.031936 -0.028713
v -0.091970 0.032379 0.013297
v -0.091761 -0.022655 -0.031070
v -0.092224 -0.019352 -0.037767
v -0.091948 -0.021619 -0.036100
v -0.091968 0.019827 -0.038192
v -0.091756 0.021773 -0.031956
v -0.091972 0.029684 -0.030950
v -0.089586 -0.033304 0.010431
v -0.089300 -0.032848 -0.026800
v -0.089111 -0.022821 -0.031018
v -0.089025 -0.022250 -0.036407
v -0.089069 -0.020380 -0.038491
v -0.089300 0.023000 -0.031198
v -0.102881 0.009751 -0.035333
v -0.105464 0.017598 -0.028385
v -0.105610 0.013298 -0.027643
v -0.105768 0.010048 -0.027677
v -0.105928 0.010049 -0.029305
v -0.104447 0.010045 -0.023142
v -0.105652 0.012639 -0.027368
v -0.105649 0.012553 -0.027623
v -0.105657 0.012548 -0.027355
v -0.092412 -0.031088 -0.022136
v -0.103025 -0.018034 -0.006192
v -0.103857 -0.010011 -0.008030
v -0.103686 -0.013842 -0.008068
v -0.103979 -0.024921 -0.027187
v -0.102282 -0.026300 -0.029241
v -0.102244 -0.025122 -0.027134
v -0.102078 -0.028707 -0.022178
v -0.092811 -0.032351 -0.022823
v -0.098255 -0.032683 -0.023295
v -0.097713 -0.028602 -0.024321
v -0.097735 -0.030590 -0.026000
v -0.097736 -0.030179 -0.028632
v -0.098050 -0.026889 -0.028101
v -0.102800 -0.030984 -0.028947
v -0.102800 -0.026468 -0.028503
v -0.102797 -0.026756 -0.024416
v -0.102800 -0.030819 -0.025150
v -0.104300 -0.031275 -0.024493
v -0.104300 -0.024985 -0.026052
v -0.104300 -0.030602 -0.029786
v -0.104975 -0.029318 -0.022974
v -0.100137 -0.031787 -0.024030
v -0.102791 0.006642 0.001144
v -0.101369 0.006381 0.010506
v -0.102466 0.006336 0.004532
v -0.096663 -0.028541 0.003767
v -0.101296 -0.023915 0.001118
v -0.093536 -0.030377 0.009188
v -0.093948 -0.027064 0.009305
v -0.094050 -0.029732 0.007812
v -0.094050 -0.027801 0.007789
v -0.094050 -0.030245 0.010822
v -0.098799 -0.031224 0.010219
v -0.098800 -0.030916 0.007192
v -0.098800 -0.026092 0.007513
v -0.100300 -0.028456 0.005575
v -0.100300 -0.032017 0.009300
v -0.098797 -0.027265 0.011725
v -0.100303 -0.028971 0.012663
v -0.100302 -0.025612 0.009846
v -0.096646 -0.028998 0.003763
v -0.103834 -0.006297 -0.005745
v -0.103790 -0.006399 -0.004819
v -0.103378 -0.009521 -0.005430
v -0.102966 -0.006368 -0.000026
v -0.102909 -0.006378 -0.000427
v -0.104611 -0.001084 -0.005576
v -0.103215 -0.000953 -0.000394
v -0.099448 -0.000564 -0.014849
v -0.099927 -0.000567 -0.020769
v -0.098138 -0.034736 0.002602
v -0.098040 -0.037150 0.000844
v -0.100249 -0.037148 -0.000004
v -0.097875 -0.037156 -0.001446
v -0.099155 -0.035261 0.000986
v -0.099554 -0.034935 -0.000241
v -0.098155 -0.031700 -0.000221
v -0.098682 -0.031700 -0.000923
v -0.099521 -0.031700 -0.000415
v -0.099129 -0.034921 -0.000962
v -0.098141 -0.034944 -0.000467
v -0.101588 0.034693 -0.001105
v -0.100626 0.034746 -0.002604
v -0.097625 0.037155 -0.000889
v -0.099403 0.037153 0.001093
v -0.100027 0.037151 -0.000907
v -0.099098 0.035141 0.000860
v -0.098850 0.031700 -0.000240
v -0.097434 0.035221 -0.000212
v -0.099634 0.035262 -0.001057
v -0.098571 0.033713 -0.006699
v -0.096588 0.035109 -0.021913
v -0.095513 0.035602 -0.021821
v -0.094053 0.035434 -0.021318
v -0.095810 0.035512 -0.020740
v -0.089594 -0.037592 -0.008464
v -0.091788 0.033678 -0.009396
v -0.092370 0.034667 -0.009497
v -0.092594 0.034872 -0.009403
v -0.089659 0.037758 -0.018750
v -0.092322 0.034456 -0.018912
v -0.091288 0.035889 -0.018994
v -0.092865 0.035335 -0.018921
v -0.092684 -0.037365 -0.003574
v -0.092106 -0.039526 -0.023280
v -0.093126 -0.038093 -0.020759
v -0.090694 -0.038734 -0.003235
v -0.092211 -0.039871 -0.003230
v -0.095012 -0.038804 -0.003417
v -0.093854 -0.036050 -0.003579
v -0.091735 -0.037384 -0.023451
v -0.091292 -0.037908 -0.020762
v -0.094442 -0.040391 -0.023601
v -0.090246 -0.036261 -0.022845
v -0.093461 -0.037485 -0.024003
v -0.081534 -0.042613 -0.021625
v -0.089371 -0.039429 -0.023023
v -0.081511 -0.042945 -0.004420
v -0.087249 -0.040568 -0.004125
v -0.090774 -0.035537 -0.004003
v -0.075436 -0.038951 -0.018224
v -0.074898 -0.041660 -0.019033
v -0.076811 -0.043176 -0.021488
v -0.076343 -0.042445 -0.020683
v -0.074139 -0.038050 -0.017680
v -0.073178 -0.043273 -0.005099
v -0.071851 -0.041282 -0.007433
v -0.073189 -0.045042 -0.006178
v -0.074442 -0.044377 -0.018506
v -0.076024 -0.042841 -0.004585
v -0.097285 -0.046262 -0.003758
v -0.085911 0.044383 -0.012964
v -0.086117 0.041441 -0.012855
v -0.075634 0.042287 -0.013088
v -0.075625 0.044065 -0.013062
v -0.086249 0.041846 -0.004284
v -0.081883 0.042506 -0.005709
v -0.082455 0.042422 -0.006825
v -0.082246 0.044060 -0.005665
v -0.082117 0.043944 -0.006819
v -0.093332 0.038847 -0.003535
v -0.092106 0.039526 -0.023280
v -0.093247 0.038450 -0.020752
v -0.091477 0.037243 -0.003246
v -0.093854 0.036050 -0.003579
v -0.091735 0.037384 -0.023451
v -0.093461 0.037486 -0.024003
v -0.091929 0.037507 -0.020769
v -0.091610 0.039313 -0.020737
v -0.091119 0.035487 -0.022877
v -0.092980 0.041303 -0.023506
v -0.089695 0.039219 -0.023094
v -0.081520 0.042496 -0.013426
v -0.074692 0.042581 -0.019808
v -0.074604 0.038150 -0.018408
v -0.075446 0.038953 -0.005412
v -0.074614 0.038206 -0.004895
v -0.072027 0.043190 -0.006425
v -0.075544 0.042245 -0.004991
v -0.076126 0.042806 -0.005076
v -0.097285 0.046262 -0.003758
v -0.095012 0.038804 -0.003417
v -0.091423 0.039603 -0.003253
v -0.089626 0.037045 -0.003750
v -0.074442 0.044377 -0.018506
v -0.073171 0.045038 -0.006174
v -0.075103 0.042924 -0.004452
v -0.072173 0.039985 -0.006821
v -0.084118 0.042805 -0.003888
v -0.095832 0.046839 -0.006189
v -0.092504 0.046263 -0.006293
v -0.094461 0.046774 -0.007119
v -0.097961 0.040993 -0.024592
v -0.097778 0.040828 -0.003876
v -0.097797 0.034694 0.002550
v -0.100807 0.034733 -0.006824
v -0.100724 0.034731 -0.010191
v -0.097974 0.037147 0.000737
v -0.099845 0.037171 -0.000077
v -0.101471 0.038828 -0.000764
v -0.098690 0.038188 0.001476
v -0.098083 0.038202 -0.001769
v -0.097079 0.038243 -0.000447
v -0.098380 0.039082 0.002653
v -0.098677 0.040204 -0.002822
v -0.101140 0.039668 0.001280
v -0.096045 0.039612 0.000300
v -0.095844 0.038140 -0.000932
v -0.093970 0.036794 0.000823
v -0.096853 0.034501 0.003186
v -0.094955 0.032149 0.000308
v -0.097112 0.035081 -0.003674
v -0.097142 0.034906 -0.024780
v -0.100356 0.035013 -0.004869
v -0.097274 0.034701 -0.002265
v -0.095314 0.034498 0.000063
v -0.095835 0.034593 -0.000206
v -0.097335 0.034562 0.002563
v -0.098929 0.037151 -0.001470
v -0.100927 0.034904 -0.006211
v -0.098337 0.034804 -0.023747
v -0.098515 0.040518 -0.025004
v -0.099055 0.040470 -0.023173
v -0.100829 0.034932 -0.009953
v -0.103811 0.034598 -0.010053
v -0.102715 0.034913 -0.009786
v -0.100684 -0.041260 -0.020571
v -0.099446 -0.041203 -0.019322
v -0.100206 -0.041367 -0.018249
v -0.101717 -0.041399 -0.019197
v -0.097962 -0.040994 -0.024593
v -0.097410 -0.040612 -0.003673
v -0.096626 -0.040386 -0.001859
v -0.097038 -0.035077 -0.003687
v -0.101274 -0.039659 0.001112
v -0.099140 -0.039376 0.002630
v -0.096614 -0.039640 0.001244
v -0.095512 -0.037855 -0.000296
v -0.093970 -0.036794 0.000823
v -0.096024 -0.034743 -0.000991
v -0.099093 -0.038108 0.001469
v -0.097342 -0.038206 -0.001302
v -0.101533 -0.038545 -0.001100
v -0.099030 -0.037169 -0.001329
v -0.097717 -0.037152 0.000047
v -0.099726 -0.037147 0.000737
v -0.099566 -0.034603 -0.029314
v -0.097535 -0.034810 -0.024653
v -0.098356 -0.034874 -0.023707
v -0.099927 -0.040243 -0.028479
v -0.098668 -0.040327 -0.023561
v -0.097834 -0.035109 -0.026325
v -0.098943 -0.040999 -0.029907
v -0.097093 -0.035107 -0.024684
v -0.094948 -0.032147 0.000302
v -0.094897 -0.034496 0.000120
v -0.095728 -0.032633 0.003119
v -0.096695 -0.032133 0.003062
v -0.095994 -0.036962 0.003757
v -0.096853 -0.034501 0.003186
v -0.097340 -0.034564 0.002562
v -0.095435 -0.034533 -0.000128
v -0.105647 0.012590 -0.027625
v -0.105655 0.012582 -0.027357
vn 0.8954 0.2212 -0.3865
vn 0.8886 0.1754 -0.4238
vn 0.8971 0.3491 -0.2708
vn 0.8972 0.4276 -0.1107
vn 0.7752 0.6246 0.0944
vn 0.8723 0.4229 -0.2455
vn 0.3850 -0.2671 0.8834
vn 0.5418 -0.1861 0.8197
vn 0.4582 -0.2313 0.8582
vn 0.5201 0.4044 0.7523
vn 0.0204 -0.1053 0.9942
vn 0.2358 -0.1773 0.9555
vn 0.1630 -0.0515 0.9853
vn 0.3286 0.5732 0.7506
vn 0.3264 0.6172 0.7159
vn 0.3293 0.5526 0.7657
vn 0.9304 0.3131 -0.1904
vn 0.7359 0.6187 0.2752
vn 0.9478 0.2392 0.2107
vn 0.9198 0.3199 0.2271
vn 0.3373 -0.2887 0.8960
vn 0.0781 0.0730 0.9943
vn 0.0075 0.0965 0.9953
vn 0.0388 0.1288 0.9909
vn -0.5345 0.6569 -0.5318
vn -0.6507 0.5822 -0.4874
vn -0.5384 0.6547 -0.5305
vn -0.3933 0.7232 -0.5677
vn -0.9889 -0.0937 0.1151
vn 0.0522 0.6506 -0.7576
vn -0.0936 0.0165 0.9955
vn -0.0959 0.0168 0.9953
vn 0.1950 -0.0199 0.9806
vn 0.3410 0.9371 -0.0747
vn 0.2516 0.9655 -0.0671
vn -0.0625 0.9973 -0.0378
vn -0.2214 0.2621 -0.9393
vn -0.2300 0.0892 -0.9691
vn -0.1468 0.2144 -0.9656
vn 0.3956 0.9178 -0.0331
vn -0.0769 0.9968 -0.0196
vn -0.0500 0.9983 -0.0299
vn 0.2841 0.9446 -0.1646
vn 0.1976 -0.0202 0.9801
vn 0.0353 -0.0000 0.9994
vn 0.0416 0.0003 0.9991
vn 0.1615 0.0358 0.9862
vn 0.3956 -0.0441 -0.9174
vn 0.3855 -0.0376 -0.9220
vn 0.3719 -0.0290 -0.9278
vn 0.0833 -0.9965 0.0088
vn 0.1291 -0.9910 0.0350
vn 0.1068 -0.9940 0.0223
vn 0.4201 0.9068 -0.0341
vn -0.1907 0.0618 0.9797
vn -0.2086 0.2311 0.9503
vn -0.1230 0.1824 0.9755
vn -0.1385 -0.9898 -0.0331
vn 0.8586 -0.4443 0.2557
vn 0.7433 -0.6074 0.2804
vn 0.7192 -0.6343 0.2837
vn -0.5021 -0.4948 -0.7093
vn -0.5344 -0.8261 -0.1788
vn -0.5403 -0.8253 -0.1645
vn -0.5533 -0.8225 -0.1315
vn -0.5608 -0.8204 -0.1115
vn -0.0055 -0.0584 0.9983
vn -0.0599 -0.2645 0.9625
vn 0.0362 0.1004 0.9943
vn 0.4558 0.6382 -0.6205
vn 0.4874 0.7469 -0.4522
vn 0.4438 0.6533 -0.6133
vn 0.5781 0.0196 -0.8157
vn 0.6535 -0.0246 -0.7566
vn 0.5965 -0.0050 -0.8026
vn 0.0042 -0.0621 -0.9981
vn -0.0548 0.0398 -0.9977
vn -0.0393 0.0090 -0.9992
vn 0.6310 -0.4295 0.6460
vn 0.9652 -0.2605 0.0247
vn 0.9045 -0.3878 0.1774
vn 0.9830 -0.1836 -0.0012
vn -0.9884 0.0958 0.1180
vn 0.9143 -0.3999 0.0647
vn -0.0802 -0.1819 0.9800
vn -0.0085 -0.0904 0.9959
vn 0.0268 -0.9996 -0.0108
vn 0.2790 -0.9603 0.0072
vn 0.0163 -0.9998 -0.0115
vn -0.0028 -0.9993 -0.0385
vn 0.0914 -0.9957 0.0160
vn 0.0831 -0.9958 0.0395
vn 0.0742 -0.9972 0.0053
vn 0.1136 0.5719 -0.8124
vn 0.0292 -0.2846 0.9582
vn 0.0721 -0.1060 0.9917
vn -0.0617 -0.0042 0.9981
vn -0.7642 -0.0429 0.6436
vn 0.4376 -0.8992 -0.0066
vn 0.5794 -0.8127 0.0613
vn 0.5043 -0.8633 0.0227
vn -0.3996 -0.3841 -0.8324
vn 0.2397 -0.0057 -0.9708
vn 0.1503 -0.0283 -0.9882
vn 0.1918 0.0116 -0.9814
vn -0.5496 0.8351 0.0209
vn 0.9852 -0.0788 -0.1523
vn 0.9974 -0.0492 0.0532
vn 0.9993 -0.0321 0.0198
vn 0.0828 -0.9902 -0.1127
vn 0.0225 -0.9990 -0.0390
vn 0.0063 -0.9998 -0.0191
vn 0.9626 0.0825 0.2579
vn 0.9381 0.1106 0.3283
vn 0.9813 0.0536 0.1851
vn 0.3840 0.0716 -0.9206
vn -0.5421 0.1082 -0.8333
vn -0.6419 -0.1451 -0.7529
vn -0.6186 -0.0076 -0.7857
vn -0.3348 0.9375 0.0954
vn -0.3514 0.9299 0.1086
vn -0.2309 0.9627 0.1410
vn 0.1683 0.6239 0.7631
vn 0.5020 -0.8302 0.2425
vn 0.5346 -0.8098 0.2418
vn 0.4778 -0.8443 0.2427
vn -0.3019 -0.0101 -0.9533
vn -0.6040 -0.2747 -0.7481
vn -0.4297 -0.1370 -0.8925
vn -0.8107 0.4451 -0.3803
vn 0.8786 -0.4723 -0.0710
vn 0.9420 0.1953 -0.2730
vn 0.9438 0.2161 -0.2502
vn 0.9421 0.1960 -0.2722
vn -0.6930 -0.2873 -0.6612
vn -0.6562 -0.3498 -0.6686
vn 0.3079 -0.1824 -0.9338
vn 0.2638 -0.1282 -0.9560
vn 0.9769 -0.2081 0.0490
vn 0.1362 0.0592 0.9889
vn 0.1071 0.0842 0.9907
vn 0.0634 -0.7614 0.6451
vn 0.0619 -0.7513 0.6571
vn 0.0641 -0.7660 0.6397
vn -0.0000 -1.0000 -0.0000
vn 0.5735 -0.8017 -0.1684
vn 0.4870 0.0039 -0.8734
vn 0.6671 -0.0873 -0.7398
vn 0.5806 -0.1121 -0.8064
vn 0.2633 -0.7849 0.5609
vn 0.1639 -0.7959 0.5828
vn 0.0878 -0.8214 0.5636
vn -0.7537 0.5661 -0.3339
vn -0.0778 0.4983 0.8635
vn -0.3470 0.3686 0.8624
vn -0.1199 0.4420 0.8890
vn -0.1125 -0.8081 0.5782
vn -0.1193 -0.8006 0.5871
vn 0.0189 -0.7220 -0.6916
vn -0.0661 -0.6371 -0.7679
vn -0.0406 -0.6641 -0.7466
vn -0.0699 0.8463 -0.5280
vn 0.0188 0.8190 -0.5735
vn -0.0757 0.6441 -0.7612
vn -0.3469 0.2117 0.9137
vn -0.2013 0.1277 0.9712
vn -0.2419 0.1049 0.9646
vn -0.6865 -0.4250 -0.5901
vn 0.2050 0.0738 -0.9760
vn 0.2440 0.0422 -0.9689
vn 0.2602 0.0016 -0.9656
vn 0.1433 0.0030 0.9897
vn 0.2263 0.0091 0.9740
vn 0.2212 0.0087 0.9752
vn -0.0017 0.8995 -0.4368
vn 0.1342 0.1778 0.9749
vn 0.2859 -0.6641 -0.6909
vn 0.4348 0.1666 -0.8850
vn 0.3102 0.0637 -0.9485
vn 0.2338 0.0032 -0.9723
vn 0.1902 -0.1526 -0.9698
vn 0.2068 -0.2022 -0.9573
vn 0.1197 -0.0056 -0.9928
vn 0.8164 0.0250 -0.5769
vn 0.9603 -0.0095 -0.2788
vn 0.8986 0.0015 -0.4388
vn -0.1766 0.9815 0.0736
vn 0.0464 0.9785 0.2011
vn -0.2235 0.9717 -0.0767
vn -0.1584 0.9353 0.3164
vn -0.1971 0.2320 0.9525
vn -0.2170 0.0902 0.9720
vn -0.2724 0.3498 0.8964
vn -0.0295 -0.0353 0.9989
vn -0.0643 -0.9956 0.0675
vn 0.4243 -0.8724 0.2425
vn -0.5633 0.2930 -0.7726
vn -0.3072 0.3371 -0.8899
vn 0.2092 0.0285 -0.9775
vn -0.5027 -0.0845 0.8603
vn -0.2934 -0.1067 0.9500
vn -0.1801 -0.0961 0.9789
vn -0.1942 -0.0088 0.9809
vn 0.5113 -0.7152 0.4765
vn 0.1738 0.3135 -0.9336
vn -0.0819 0.9593 0.2704
vn -0.5069 0.8576 0.0873
vn 0.0986 -0.9860 0.1341
vn 0.1129 0.9792 0.1687
vn 0.1742 0.9756 0.1336
vn 0.0575 0.9782 0.1994
vn 0.0720 -0.9968 0.0349
vn 0.0400 -0.9991 0.0144
vn 0.0591 -0.9979 0.0267
vn 0.7388 -0.6611 -0.1306
vn -0.3817 -0.1612 0.9101
vn -0.0468 -0.0556 0.9974
vn 0.0182 -0.1670 0.9858
vn -0.0578 -0.0146 0.9982
vn 0.1394 0.0027 0.9902
vn 0.5077 -0.0122 -0.8615
vn -0.3840 -0.9222 0.0454
vn 0.1070 0.0059 0.9942
vn -0.1401 -0.0926 0.9858
vn 0.2610 0.0686 0.9629
vn 0.0554 -0.9984 -0.0071
vn 0.0467 0.1817 0.9822
vn 0.2881 0.1300 -0.9487
vn 0.1747 0.0202 -0.9844
vn 0.2540 0.0784 -0.9640
vn -0.0495 0.1236 0.9911
vn 0.9944 0.0034 -0.1054
vn 0.9445 0.3181 -0.0822
vn 0.9719 -0.0793 -0.2217
vn 0.9839 -0.0298 -0.1762
vn 0.9940 -0.0492 -0.0974
vn 0.6372 0.0243 -0.7703
vn -0.0350 0.1778 -0.9835
vn -0.2322 0.2449 -0.9413
vn -0.4365 0.1603 -0.8853
vn 0.0903 -0.0337 0.9953
vn 0.2723 -0.0263 -0.9619
vn 0.5574 -0.6930 0.4573
vn 0.5300 -0.6665 0.5244
vn 0.6072 -0.7377 0.2950
vn 0.1150 0.8661 -0.4864
vn -0.0353 -0.1627 0.9860
vn -0.0616 -0.1329 0.9892
vn -0.4349 -0.9003 0.0166
vn -0.6102 -0.7901 -0.0587
vn -0.3403 -0.9388 0.0537
vn 0.9970 0.0769 -0.0078
vn 0.9937 0.1025 0.0458
vn 0.9859 0.1302 0.1047
vn -0.1210 0.9898 0.0756
vn 0.0225 0.9976 0.0652
vn -0.2020 0.9785 -0.0424
vn -0.4163 -0.4094 0.8119
vn -0.3111 -0.8757 -0.3693
vn -0.1880 -0.9599 -0.2077
vn -0.2210 -0.9425 -0.2508
vn -0.1554 0.6384 -0.7539
vn -0.0628 0.4727 -0.8790
vn -0.1644 0.9746 0.1523
vn 0.6117 -0.1903 -0.7679
vn -0.9935 -0.0882 -0.0714
vn 0.2386 0.0532 0.9696
vn 0.9885 0.1483 -0.0309
vn 0.9647 0.1152 -0.2369
vn 0.9586 0.1857 -0.2160
vn 0.7075 0.0702 -0.7032
vn 0.9937 -0.1015 -0.0485
vn -0.1164 -0.5801 -0.8062
vn -0.1080 -0.0258 0.9938
vn -0.0816 -0.0662 0.9945
vn -0.0945 -0.0465 0.9944
vn -0.2190 0.9619 0.1640
vn 0.0195 0.7409 -0.6714
vn -0.7017 0.2537 -0.6657
vn 0.2433 -0.6233 -0.7432
vn 0.9252 0.3793 0.0118
vn -0.6649 -0.7421 -0.0846
vn -0.0935 -0.9591 -0.2671
vn -0.2913 -0.9216 -0.2565
vn -0.2896 -0.9221 -0.2566
vn 0.4622 -0.5980 0.6548
vn 0.9686 0.0868 -0.2328
vn 0.5972 0.5486 0.5851
vn 0.0909 -0.9947 0.0471
vn 0.0315 0.0496 0.9983
vn 0.0452 -0.0152 0.9989
vn 0.0430 -0.0047 0.9991
vn 0.2914 -0.9566 0.0081
vn 0.0658 -0.1103 0.9917
vn 0.9698 0.0457 -0.2394
vn -0.7178 -0.3798 -0.5835
vn 0.3452 0.2714 -0.8984
vn 0.5163 0.1059 0.8498
vn -0.0004 -1.0000 0.0043
vn -0.0435 -0.9956 0.0835
vn -0.0239 -0.9986 0.0476
vn 0.0349 0.0318 0.9989
vn 0.0978 -0.2123 0.9723
vn 0.9942 0.0312 -0.1025
vn 0.4870 0.0159 -0.8733
vn 0.5238 0.0367 -0.8510
vn 0.3536 -0.0551 -0.9338
vn 0.4032 0.6615 0.6324
vn 0.9396 0.1763 -0.2933
vn -0.7117 -0.2938 -0.6382
vn -0.0074 -0.0803 0.9967
vn 0.0601 0.2801 -0.9581
vn 0.0121 0.3250 -0.9456
vn 0.0408 0.2983 -0.9536
vn 0.3644 -0.0242 -0.9309
vn 0.0173 0.1449 0.9893
vn -0.9697 0.0799 0.2307
vn -0.9750 0.0615 0.2133
vn -0.9700 0.0791 0.2300
vn 0.5809 -0.8120 0.0569
vn 0.1616 -0.6225 0.7658
vn -0.0387 -0.1014 -0.9941
vn 0.2384 -0.9664 -0.0956
vn -0.6750 -0.0712 -0.7344
vn -0.5356 0.2218 -0.8148
vn -0.3275 -0.8409 0.4309
vn 0.0225 -0.9883 0.1511
vn -0.1751 0.9845 0.0053
vn 0.0874 0.2539 -0.9633
vn -0.2956 0.3478 0.8898
vn 0.2412 -0.0651 -0.9683
vn 0.2892 -0.1899 -0.9383
vn 0.2624 -0.0031 0.9650
vn 0.8791 0.1157 -0.4623
vn 0.8674 0.1290 -0.4806
vn 0.8949 0.0965 -0.4357
vn 0.1135 -0.9726 -0.2027
vn 0.1059 -0.9745 -0.1979
vn 0.0980 -0.9763 -0.1928
vn 0.1244 -0.9698 -0.2096
vn -0.9638 0.1826 0.1945
vn 0.0456 0.0194 -0.9988
vn 0.0416 0.0051 -0.9991
vn 0.0268 -0.0141 -0.9995
vn 0.9746 -0.0175 -0.2232
vn 0.7853 0.0116 -0.6190
vn 0.9162 -0.2128 0.3395
vn 0.7051 0.6519 0.2789
vn -0.5864 -0.7805 -0.2170
vn 0.0333 -0.0260 -0.9991
vn -0.0821 -0.9942 -0.0700
vn 0.5501 0.7106 0.4386
vn 0.0778 0.9915 0.1042
vn 0.2399 0.9606 0.1404
vn 0.0617 -0.7500 0.6586
vn 0.9940 -0.1007 0.0425
vn 0.9983 0.0411 0.0424
vn 0.9950 -0.0899 0.0426
vn 0.0353 0.0106 -0.9993
vn -0.7401 -0.6709 -0.0468
vn 0.1730 0.9668 0.1879
vn 0.0857 0.3607 -0.9288
vn 0.0631 0.4248 -0.9031
vn 0.0481 0.4654 -0.8838
vn 0.3589 -0.7407 0.5679
vn -0.0717 0.1180 -0.9904
vn 0.0453 0.3552 -0.9337
vn 0.9972 0.0609 0.0424
vn -0.2885 -0.8079 -0.5139
vn 0.8864 -0.3920 0.2463
vn 0.0595 -0.9977 -0.0320
vn 0.5079 -0.7877 -0.3486
vn 0.4433 -0.8528 -0.2761
vn 0.5190 -0.7147 -0.4689
vn -0.3530 0.1346 0.9259
vn -0.9637 0.0984 0.2483
vn 0.9304 -0.3522 0.1018
vn -0.9545 -0.0921 -0.2838
vn 0.0732 -0.5055 0.8597
vn 0.9679 -0.2155 0.1294
vn 0.6355 -0.7710 -0.0413
vn 0.7145 -0.6992 0.0249
vn 0.4612 -0.8722 -0.1630
vn 0.8074 -0.5779 0.1184
vn -0.2330 -0.1289 0.9639
vn 0.4295 0.8785 -0.2093
vn 0.2581 0.9575 -0.1287
vn 0.5580 0.7848 -0.2695
vn 0.0719 0.9966 -0.0408
vn -0.9959 0.0214 0.0876
vn -0.9985 -0.0389 0.0392
vn -0.9842 -0.1656 -0.0636
vn -0.9649 0.1672 0.2025
vn 0.1167 0.0285 0.9928
vn -0.1063 0.9938 -0.0333
vn -0.6154 -0.1347 0.7766
vn -0.6087 -0.1365 0.7815
vn -0.6719 -0.1188 0.7311
vn -0.0156 0.1334 0.9909
vn -0.1444 0.0114 0.9894
vn 0.0748 -0.5199 0.8509
vn -0.1395 0.9668 -0.2142
vn 0.1043 0.7056 -0.7009
vn 0.0848 0.0926 -0.9921
vn 0.1602 0.3073 -0.9380
vn -0.0511 0.9981 -0.0345
vn 0.5157 0.2061 0.8316
vn 0.9834 0.0152 -0.1810
vn 0.9503 0.2637 -0.1657
vn 0.9812 -0.0273 -0.1910
vn 0.9881 -0.0281 -0.1511
vn 0.9791 -0.0197 -0.2022
vn 0.6678 -0.1212 0.7344
vn 0.0299 -0.0320 -0.9990
vn 0.0911 -0.1051 -0.9903
vn 0.0589 0.1873 0.9805
vn 0.5581 -0.6734 -0.4848
vn 0.5193 -0.5875 -0.6206
vn 0.0287 0.0627 0.9976
vn 0.6181 0.7749 0.1320
vn 0.3266 -0.0688 -0.9427
vn 0.9926 0.1007 -0.0672
vn -0.1323 0.0118 0.9911
vn -0.2973 -0.9331 0.2025
vn -0.5909 0.2937 0.7514
vn 0.1795 0.9759 0.1242
vn 0.0200 -0.9992 -0.0333
vn 0.5554 0.4433 -0.7036
vn 0.5751 0.6167 -0.5375
vn 0.2995 0.6806 -0.6686
vn -0.7638 -0.0696 -0.6417
vn 0.2207 0.9695 0.1063
vn -0.5695 0.6952 -0.4386
vn -0.5708 0.6811 -0.4586
vn -0.5678 0.7095 -0.4174
vn -0.5660 0.7213 -0.3993
vn -0.7542 0.1532 0.6385
vn -0.7593 0.1799 0.6254
vn -0.7474 0.1220 0.6531
vn -0.7713 0.2673 0.5777
vn 0.3299 0.5142 0.7917
vn 0.8375 0.5341 -0.1150
vn 0.7016 -0.1412 -0.6985
vn 0.8113 -0.1153 -0.5731
vn 0.9337 0.3400 -0.1120
vn 0.8660 0.0832 -0.4931
vn 0.6494 0.0640 0.7578
vn 0.9230 -0.3848 0.0024
vn -0.2756 -0.9539 0.1191
vn -0.6229 0.7109 0.3265
vn -0.5939 0.7319 0.3340
vn -0.4989 0.7908 0.3547
vn -0.6982 0.6484 0.3034
vn 0.7408 -0.4561 0.4932
vn 0.0812 -0.9947 -0.0625
vn 0.0868 -0.9942 -0.0637
vn 0.0568 -0.9967 -0.0576
vn 0.0010 -0.9999 -0.0123
vn 0.2549 0.9520 0.1697
vn 0.9084 0.0787 -0.4105
vn 0.0898 0.3484 -0.9330
vn 0.0406 0.0919 0.9949
vn 0.0540 -0.0733 0.9958
vn 0.0595 -0.1458 0.9875
vn 0.8952 0.1965 -0.4000
vn 0.9514 -0.0512 -0.3037
vn 0.9841 -0.0784 -0.1593
vn 0.9881 -0.0488 -0.1456
vn 0.5099 0.7067 0.4905
vn 0.1164 -0.9908 -0.0696
vn 0.9906 0.0328 0.1324
vn 0.6011 -0.0763 0.7955
vn 0.9120 -0.1712 -0.3727
vn 0.9002 -0.1006 -0.4237
vn 0.8962 -0.0830 -0.4359
vn 0.8906 -0.0610 -0.4507
vn 0.7036 0.0214 -0.7103
vn 0.8362 0.0150 -0.5482
vn 0.8311 0.0124 -0.5560
vn -0.5013 -0.7472 -0.4363
vn -0.4828 -0.7051 -0.5194
vn -0.5209 -0.7988 -0.3008
vn -0.4319 -0.6002 -0.6732
vn 0.0653 -0.2271 0.9717
vn 0.7195 0.6533 0.2354
vn -0.4705 -0.7538 0.4587
vn -0.7795 0.3698 -0.5057
vn -0.2388 -0.6830 -0.6903
vn -0.9403 -0.3300 0.0830
vn -0.6968 -0.1112 0.7086
vn 0.8627 0.2143 -0.4581
vn -0.1210 0.0940 -0.9882
vn 0.2964 0.1184 -0.9477
vn 0.9850 -0.1671 -0.0424
vn 0.9958 -0.0398 -0.0819
vn -0.0052 0.2335 0.9723
vn -0.0510 0.9981 -0.0341
vn 0.0311 -0.9974 -0.0648
vn 0.8498 0.5249 0.0476
vn -0.2069 0.9764 0.0622
vn 0.0212 -0.0320 -0.9993
s 1
usemtl dark
f 360//1 346//2 359//3
f 238//4 237//5 96//6
f 122//7 120//8 121//9
f 6//10 83//10 60//10
f 12//11 271//12 270//13
f 352//14 351//15 354//16
f 41//17 84//17 83//17
f 57//18 264//19 56//20
f 121//9 132//21 122//7
f 282//22 281//23 276//24
f 63//25 61//26 60//27
f 63//25 60//27 83//28
f 70//29 71//29 72//29
f 48//30 263//30 47//30
f 104//31 183//32 106//33
f 49//34 254//35 47//36
f 158//37 156//38 157//39
f 42//40 54//41 50//42
f 52//43 51//43 53//43
f 105//44 104//31 106//33
f 128//45 242//46 127//47
f 240//48 93//49 237//50
f 91//51 96//52 97//53
f 50//42 59//54 42//40
f 273//55 8//56 274//57
f 75//58 66//58 65//58
f 21//59 15//60 16//61
f 214//62 78//62 77//62
f 214//63 87//64 78//65
f 87//64 82//66 78//65
f 333//67 308//68 341//69
f 353//70 358//71 356//72
f 391//73 414//74 408//75
f 38//76 31//77 40//78
f 211//79 212//79 207//79
f 117//80 118//81 111//82
f 58//83 46//83 45//83
f 150//84 151//84 94//84
f 9//85 12//11 10//86
f 170//87 3//88 4//89
f 69//90 18//90 68//90
f 144//91 89//92 92//93
f 43//94 42//94 44//94
f 313//95 334//96 317//97
f 228//98 226//98 227//98
f 166//99 167//100 153//101
f 221//102 224//102 230//102
f 323//103 324//104 314//105
f 63//106 83//106 62//106
f 189//107 415//108 185//109
f 158//110 160//111 156//112
f 115//113 113//114 114//115
f 319//116 323//103 314//105
f 259//117 257//118 261//119
f 226//120 225//121 222//122
f 59//123 58//123 45//123
f 411//124 388//125 390//126
f 17//127 18//128 16//129
f 56//130 6//130 51//130
f 245//131 252//131 247//131
f 270//13 10//86 12//11
f 259//132 262//133 258//134
f 18//128 19//135 20//136
f 324//104 322//137 318//138
f 119//139 111//82 118//81
f 88//140 129//141 127//47
f 377//142 376//143 378//144
f 250//145 249//145 251//145
f 145//146 241//146 89//146
f 368//147 369//148 361//149
f 142//150 139//151 136//152
f 140//153 137//153 138//153
f 135//154 139//155 134//156
f 123//157 139//151 135//158
f 122//159 137//160 123//161
f 133//162 137//163 122//164
f 261//165 256//166 262//167
f 142//168 136//168 137//168
f 143//169 95//170 147//171
f 174//172 172//173 181//174
f 138//175 137//163 133//162
f 269//176 10//86 270//13
f 27//177 24//177 25//177
f 26//178 14//179 23//180
f 285//181 287//182 277//183
f 294//184 297//185 301//186
f 154//187 161//188 157//189
f 154//187 159//190 161//188
f 155//191 159//192 154//193
f 155//191 160//194 159//192
f 156//112 160//111 155//195
f 391//196 411//124 390//126
f 164//197 158//37 161//198
f 165//199 158//199 164//199
f 212//200 206//201 207//202
f 163//203 159//192 160//194
f 232//204 228//204 227//204
f 293//205 297//205 294//205
f 163//206 161//188 159//190
f 157//39 161//198 158//37
f 229//207 225//121 226//120
f 26//208 28//208 14//208
f 179//209 173//210 171//211
f 240//212 239//213 95//214
f 217//215 215//215 216//215
f 273//55 13//216 8//56
f 307//217 325//218 306//219
f 174//172 181//174 1//220
f 361//149 363//221 368//147
f 76//222 65//222 64//222
f 176//223 182//224 2//225
f 98//226 91//51 97//53
f 292//227 282//22 276//24
f 286//228 289//229 283//230
f 8//56 11//231 274//57
f 131//232 129//232 130//232
f 59//233 49//233 47//233
f 184//234 186//235 187//236
f 140//237 142//237 137//237
f 208//238 209//239 210//240
f 307//217 304//241 325//218
f 95//170 91//242 147//171
f 77//243 81//244 80//245
f 196//246 198//246 197//246
f 206//201 204//247 205//248
f 20//136 16//129 18//128
f 289//229 285//181 277//183
f 160//249 165//250 162//251
f 148//252 144//253 143//254
f 203//255 206//256 209//257
f 252//258 246//258 253//258
f 202//259 208//260 205//261
f 203//262 209//239 202//263
f 204//264 206//256 203//255
f 208//265 210//265 211//265
f 244//266 253//266 246//266
f 214//267 86//267 213//267
f 234//268 239//269 235//270
f 408//75 407//271 391//73
f 168//272 109//272 110//272
f 137//160 136//273 123//161
f 223//274 227//275 226//276
f 225//121 224//277 222//122
f 231//278 225//278 229//278
f 231//279 230//279 225//279
f 232//280 230//280 231//280
f 177//281 5//281 178//281
f 160//249 158//282 165//250
f 221//283 230//284 227//285
f 81//244 77//243 78//286
f 235//270 239//269 240//287
f 129//288 131//288 127//288
f 95//214 93//289 240//212
f 290//290 291//291 303//292
f 170//87 169//293 3//88
f 162//294 163//203 160//194
f 194//295 193//295 195//295
f 244//296 247//296 253//296
f 247//297 244//297 245//297
f 252//298 245//298 246//298
f 102//299 103//300 107//301
f 274//57 275//302 273//55
f 11//231 272//303 274//57
f 148//252 149//304 144//253
f 97//305 96//306 90//307
f 226//308 228//308 229//308
f 259//132 258//134 257//309
f 261//119 257//118 256//310
f 262//167 256//166 258//311
f 265//312 7//313 6//314
f 93//49 96//315 237//50
f 409//316 410//316 411//316
f 403//317 401//318 399//319
f 167//100 152//320 153//101
f 72//321 76//321 70//321
f 40//78 39//322 38//76
f 101//323 166//99 153//101
f 23//324 21//324 79//324
f 185//109 186//235 184//234
f 259//117 261//119 260//325
f 223//326 221//326 227//326
f 339//327 341//327 332//327
f 209//257 206//256 210//328
f 6//314 56//329 265//312
f 139//155 138//330 134//156
f 91//242 146//331 147//171
f 322//137 319//332 318//138
f 186//235 185//109 415//108
f 335//333 316//333 336//333
f 405//334 399//335 404//336
f 287//337 284//338 278//339
f 283//340 284//338 287//337
f 277//341 284//341 283//341
f 33//342 34//343 35//344
f 301//186 297//185 299//345
f 294//184 301//186 295//346
f 209//239 208//238 202//263
f 300//347 299//347 298//347
f 57//18 56//20 55//348
f 227//285 230//284 232//349
f 37//350 31//77 38//76
f 207//351 205//261 208//260
f 141//352 140//352 138//352
f 266//353 265//353 267//353
f 161//188 163//206 164//354
f 377//142 349//355 376//143
f 80//356 69//357 77//358
f 218//359 233//359 100//359
f 211//360 207//360 208//360
f 344//361 342//361 343//361
f 201//362 192//363 200//364
f 142//150 141//365 139//151
f 23//366 25//366 24//366
f 225//367 230//367 224//367
f 76//368 77//358 69//357
f 24//369 26//369 23//369
f 21//59 22//370 15//60
f 143//371 144//91 92//93
f 395//372 396//373 393//374
f 261//165 262//167 260//375
f 207//202 206//201 205//248
f 403//317 399//319 402//376
f 85//377 83//377 84//377
f 375//378 374//378 373//378
f 242//46 88//140 127//47
f 334//96 313//95 335//379
f 311//380 310//380 312//380
f 315//381 314//382 321//383
f 315//381 319//384 314//382
f 176//223 175//385 182//224
f 320//386 319//387 315//388
f 320//386 318//389 319//387
f 320//390 314//391 318//392
f 321//393 314//391 320//390
f 324//104 318//138 314//105
f 304//241 305//394 325//218
f 254//35 255//395 47//36
f 328//396 329//397 339//398
f 281//23 280//399 276//24
f 313//95 317//97 316//400
f 298//401 302//401 300//401
f 138//175 133//162 134//402
f 288//403 296//403 295//403
f 32//404 268//405 33//342
f 53//406 50//42 54//41
f 338//407 339//407 330//407
f 337//408 330//409 327//410
f 327//410 326//411 337//408
f 327//410 330//409 340//412
f 340//413 330//413 329//413
f 32//404 33//342 29//414
f 21//415 23//180 14//179
f 333//67 341//69 339//416
f 387//417 393//374 388//418
f 290//290 303//292 302//419
f 222//420 224//420 220//420
f 219//421 97//305 90//307
f 97//422 219//422 99//422
f 222//423 223//274 226//276
f 240//287 238//4 235//270
f 35//344 29//414 33//342
f 348//424 366//424 372//424
f 141//425 138//330 139//155
f 206//256 212//426 210//328
f 102//299 107//301 108//427
f 353//70 351//428 352//429
f 289//229 277//183 283//230
f 353//70 350//430 351//428
f 350//431 353//431 355//431
f 179//209 180//432 173//210
f 359//433 355//434 353//435
f 359//433 353//435 356//436
f 354//437 359//438 357//439
f 354//437 355//440 359//438
f 357//441 352//14 354//16
f 358//71 353//70 352//429
f 338//442 330//409 337//408
f 361//149 369//148 360//443
f 360//443 369//148 367//444
f 75//445 65//445 76//445
f 346//2 360//1 364//446
f 345//447 373//447 365//447
f 364//448 360//448 367//448
f 347//449 370//449 362//449
f 354//450 350//451 355//452
f 354//450 371//453 350//451
f 371//454 354//454 351//454
f 379//455 381//456 382//457
f 73//458 74//458 75//458
f 248//459 247//459 252//459
f 405//334 404//336 406//460
f 199//461 192//363 201//362
f 396//462 395//463 394//464
f 96//6 236//465 235//270
f 235//270 238//4 96//6
f 188//466 416//467 189//107
f 191//468 188//466 186//235
f 186//235 415//108 189//107
f 401//469 406//469 400//469
f 379//455 380//470 381//456
f 114//115 116//471 115//113
f 383//472 406//472 401//472
f 385//473 384//474 390//475
f 384//474 386//476 390//475
f 390//477 67//478 392//479
f 389//480 393//481 394//482
f 388//483 393//481 389//480
f 385//484 394//464 395//463
f 387//417 395//372 393//374
f 396//485 398//485 393//485
f 394//486 397//486 396//486
f 397//487 394//487 393//487
f 393//488 398//488 397//488
f 389//489 394//489 385//489
f 184//234 188//466 189//107
f 339//398 331//490 328//396
f 311//491 309//491 310//491
f 30//492 40//78 31//77
f 287//493 286//228 283//230
f 136//152 139//151 123//157
f 124//494 126//494 125//494
f 112//495 111//82 119//139
f 279//496 292//227 276//24
f 189//107 191//468 186//235
f 60//497 50//42 53//406
f 189//107 185//109 184//234
f 92//93 95//498 143//371
f 386//499 67//499 390//499
f 390//477 392//479 414//74
f 391//73 390//477 414//74
f 243//500 412//500 413//500
f 36//501 29//414 35//344
f 189//107 416//467 191//468
f 188//466 191//468 416//467
l 415 190
