# Blender 5.1.1
# www.blender.org
mtllib blade_cw_mark.mtl
o blade_cw_mark
v 0.031800 -0.012731 0.004706
v 0.033200 -0.012731 0.004706
v 0.030478 -0.010797 0.004002
v 0.031878 -0.010797 0.004002
v 0.029420 -0.009133 0.003346
v 0.030820 -0.009133 0.003346
v 0.028626 -0.007702 0.002729
v 0.030026 -0.007702 0.002729
v 0.028098 -0.006467 0.002140
v 0.029498 -0.006467 0.002140
v 0.027833 -0.005394 0.001563
v 0.029233 -0.005394 0.001563
v 0.027833 -0.004450 0.000984
v 0.029233 -0.004450 0.000984
v 0.028098 -0.003603 0.000383
v 0.029498 -0.003603 0.000383
v 0.028626 -0.002822 -0.000259
v 0.030026 -0.002822 -0.000259
v 0.029420 -0.002077 -0.000964
v 0.030820 -0.002077 -0.000964
v 0.030478 -0.001338 -0.001757
v 0.031878 -0.001338 -0.001757
v 0.031800 -0.000577 -0.002660
v 0.033200 -0.000577 -0.002660
v 0.034800 -0.001073 -0.002977
v 0.036200 -0.001073 -0.002977
v 0.033478 -0.001945 -0.001987
v 0.034878 -0.001945 -0.001987
v 0.032420 -0.002797 -0.001111
v 0.033820 -0.002797 -0.001111
v 0.031626 -0.003657 -0.000324
v 0.033026 -0.003657 -0.000324
v 0.031098 -0.004554 0.000397
v 0.032498 -0.004554 0.000397
v 0.030833 -0.005518 0.001073
v 0.032233 -0.005518 0.001073
v 0.030833 -0.006581 0.001725
v 0.032233 -0.006581 0.001725
v 0.031098 -0.007775 0.002371
v 0.032498 -0.007775 0.002371
v 0.031626 -0.009132 0.003027
v 0.033026 -0.009132 0.003027
v 0.032420 -0.010688 0.003708
v 0.033820 -0.010688 0.003708
v 0.033478 -0.012479 0.004423
v 0.034878 -0.012479 0.004423
v 0.034800 -0.014542 0.005183
v 0.036200 -0.014542 0.005183
vn -0.0000 0.3240 0.9460
vn -0.0000 0.3500 0.9367
vn -0.0000 0.3588 0.9334
vn -0.0000 0.3769 0.9263
vn -0.0000 0.3861 0.9224
vn -0.0000 0.4089 0.9126
vn -0.0000 0.4182 0.9084
vn -0.0000 0.4483 0.8939
vn -0.0000 0.4562 0.8899
vn -0.0000 0.4967 0.8679
vn -0.0000 0.5001 0.8659
vn -0.0000 0.5487 0.8360
vn -0.0000 0.5532 0.8331
vn -0.0000 0.6001 0.7999
vn -0.0000 0.6133 0.7898
vn -0.0000 0.6516 0.7586
vn -0.0000 0.6706 0.7418
vn -0.0000 0.6993 0.7149
vn -0.0000 0.7193 0.6947
vn -0.0000 0.7395 0.6732
vn -0.0000 0.7568 0.6536
vn -0.0000 0.7650 0.6440
vn -0.0000 0.5380 -0.8429
vn -0.0000 0.5380 -0.8430
vn -0.0000 -0.7504 -0.6610
vn -0.0000 -0.7417 -0.6708
vn -0.0000 -0.7257 -0.6880
vn -0.0000 -0.7047 -0.7095
vn -0.0000 -0.6872 -0.7265
vn -0.0000 -0.6586 -0.7525
vn -0.0000 -0.6426 -0.7662
vn -0.0000 -0.6057 -0.7957
vn -0.0000 -0.5948 -0.8039
vn -0.0000 -0.5505 -0.8349
vn -0.0000 -0.5468 -0.8372
vn -0.0000 -0.5011 -0.8654
vn -0.0000 -0.4982 -0.8671
vn -0.0000 -0.4592 -0.8883
vn -0.0000 -0.4523 -0.8918
vn -0.0000 -0.4223 -0.9064
vn -0.0000 -0.4138 -0.9104
vn -0.0000 -0.3905 -0.9206
vn -0.0000 -0.3817 -0.9243
vn -0.0000 -0.3627 -0.9319
vn -0.0000 -0.3541 -0.9352
vn -0.0000 -0.3454 -0.9385
vn -0.0000 0.2547 0.9670
vn -0.0000 0.2793 0.9602
s 1
usemtl mark
f 1//1 4//2 3//3
f 3//3 6//4 5//5
f 5//5 8//6 7//7
f 7//7 10//8 9//9
f 9//9 12//10 11//11
f 12//10 13//12 11//11
f 14//13 15//14 13//12
f 16//15 17//16 15//14
f 18//17 19//18 17//16
f 20//19 21//20 19//18
f 22//21 23//22 21//20
f 24//23 25//24 23//23
f 25//25 28//26 27//27
f 27//27 30//28 29//29
f 29//29 32//30 31//31
f 31//31 34//32 33//33
f 33//33 36//34 35//35
f 36//34 37//36 35//35
f 38//37 39//38 37//36
f 40//39 41//40 39//38
f 42//41 43//42 41//40
f 44//43 45//44 43//42
f 46//45 47//46 45//44
f 47//47 2//48 1//1
f 1//1 2//48 4//2
f 3//3 4//2 6//4
f 5//5 6//4 8//6
f 7//7 8//6 10//8
f 9//9 10//8 12//10
f 12//10 14//13 13//12
f 14//13 16//15 15//14
f 16//15 18//17 17//16
f 18//17 20//19 19//18
f 20//19 22//21 21//20
f 22//21 24//22 23//22
f 24//23 26//24 25//24
f 25//25 26//25 28//26
f 27//27 28//26 30//28
f 29//29 30//28 32//30
f 31//31 32//30 34//32
f 33//33 34//32 36//34
f 36//34 38//37 37//36
f 38//37 40//39 39//38
f 40//39 42//41 41//40
f 42//41 44//43 43//42
f 44//43 46//45 45//44
f 46//45 48//46 47//46
f 47//47 48//47 2//48
