# Blender 5.1.1
# www.blender.org
mtllib blade_ccw_eyelet.mtl
o blade_ccw_eyelet
v 0.017000 0.000000 -0.002800
v 0.016706 0.001854 -0.002800
v 0.015854 0.003527 -0.002800
v 0.014527 0.004854 -0.002800
v 0.012854 0.005706 -0.002800
v 0.011000 0.006000 -0.002800
v 0.009146 0.005706 -0.002800
v 0.007473 0.004854 -0.002800
v 0.006146 0.003527 -0.002800
v 0.005294 0.001854 -0.002800
v 0.005000 0.000000 -0.002800
v 0.005294 -0.001854 -0.002800
v 0.006146 -0.003527 -0.002800
v 0.007473 -0.004854 -0.002800
v 0.009146 -0.005706 -0.002800
v 0.011000 -0.006000 -0.002800
v 0.012854 -0.005706 -0.002800
v 0.014527 -0.004854 -0.002800
v 0.015854 -0.003527 -0.002800
v 0.016706 -0.001854 -0.002800
v 0.017000 0.000000 0.002400
v 0.016706 0.001854 0.002400
v 0.015854 0.003527 0.002400
v 0.014527 0.004854 0.002400
v 0.012854 0.005706 0.002400
v 0.011000 0.006000 0.002400
v 0.009146 0.005706 0.002400
v 0.007473 0.004854 0.002400
v 0.006146 0.003527 0.002400
v 0.005294 0.001854 0.002400
v 0.005000 0.000000 0.002400
v 0.005294 -0.001854 0.002400
v 0.006146 -0.003527 0.002400
v 0.007473 -0.004854 0.002400
v 0.009146 -0.005706 0.002400
v 0.011000 -0.006000 0.002400
v 0.012854 -0.005706 0.002400
v 0.014527 -0.004854 0.002400
v 0.015854 -0.003527 0.002400
v 0.016706 -0.001854 0.002400
v 0.015500 0.000000 0.002800
v 0.015280 0.001391 0.002800
v 0.014641 0.002645 0.002800
v 0.013645 0.003641 0.002800
v 0.012391 0.004280 0.002800
v 0.011000 0.004500 0.002800
v 0.009609 0.004280 0.002800
v 0.008355 0.003641 0.002800
v 0.007359 0.002645 0.002800
v 0.006720 0.001391 0.002800
v 0.006500 0.000000 0.002800
v 0.006720 -0.001391 0.002800
v 0.007359 -0.002645 0.002800
v 0.008355 -0.003641 0.002800
v 0.009609 -0.004280 0.002800
v 0.011000 -0.004500 0.002800
v 0.012391 -0.004280 0.002800
v 0.013645 -0.003641 0.002800
v 0.014641 -0.002645 0.002800
v 0.015280 -0.001391 0.002800
v 0.014200 0.000000 0.003300
v 0.014043 0.000989 0.003300
v 0.013589 0.001881 0.003300
v 0.012881 0.002589 0.003300
v 0.011989 0.003043 0.003300
v 0.011000 0.003200 0.003300
v 0.010011 0.003043 0.003300
v 0.009119 0.002589 0.003300
v 0.008411 0.001881 0.003300
v 0.007957 0.000989 0.003300
v 0.007800 0.000000 0.003300
v 0.007957 -0.000989 0.003300
v 0.008411 -0.001881 0.003300
v 0.009119 -0.002589 0.003300
v 0.010011 -0.003043 0.003300
v 0.011000 -0.003200 0.003300
v 0.011989 -0.003043 0.003300
v 0.012881 -0.002589 0.003300
v 0.013589 -0.001881 0.003300
v 0.014043 -0.000989 0.003300
v 0.011000 -0.000000 -0.002800
v 0.011000 0.000000 0.003300
vn 0.9511 0.3090 -0.0000
vn 1.0000 -0.0000 -0.0000
vn 0.8090 0.5878 -0.0000
vn 0.5878 0.8090 -0.0000
vn 0.3090 0.9511 -0.0000
vn -0.0000 1.0000 -0.0000
vn -0.3090 0.9511 -0.0000
vn -0.5878 0.8090 -0.0000
vn -0.8090 0.5878 -0.0000
vn -0.9511 0.3090 -0.0000
vn -1.0000 -0.0000 -0.0000
vn -0.9511 -0.3090 -0.0000
vn -0.8090 -0.5878 -0.0000
vn -0.5878 -0.8090 -0.0000
vn -0.3090 -0.9511 -0.0000
vn -0.0000 -1.0000 -0.0000
vn 0.3090 -0.9511 -0.0000
vn 0.5878 -0.8090 -0.0000
vn 0.8090 -0.5878 -0.0000
vn 0.9511 -0.3090 -0.0000
vn 0.2451 0.0796 0.9662
vn 0.3039 -0.0000 0.9527
vn 0.2577 -0.0000 0.9662
vn 0.2085 0.1514 0.9662
vn 0.2891 0.0939 0.9527
vn 0.1515 0.2085 0.9662
vn 0.2459 0.1786 0.9527
vn 0.0796 0.2451 0.9662
vn 0.1786 0.2459 0.9527
vn -0.0000 0.2577 0.9662
vn 0.0939 0.2891 0.9527
vn -0.0939 0.2891 0.9527
vn -0.0000 0.3039 0.9527
vn -0.0796 0.2451 0.9662
vn -0.1786 0.2459 0.9527
vn -0.1515 0.2085 0.9662
vn -0.2459 0.1786 0.9527
vn -0.2085 0.1514 0.9662
vn -0.2891 0.0939 0.9527
vn -0.2577 -0.0000 0.9662
vn -0.2451 0.0796 0.9662
vn -0.2451 -0.0796 0.9662
vn -0.3039 -0.0000 0.9527
vn -0.2085 -0.1514 0.9662
vn -0.2891 -0.0939 0.9527
vn -0.1515 -0.2085 0.9662
vn -0.2459 -0.1786 0.9527
vn -0.0796 -0.2451 0.9662
vn -0.1786 -0.2459 0.9527
vn -0.0000 -0.2577 0.9662
vn -0.0939 -0.2891 0.9527
vn 0.0939 -0.2891 0.9527
vn -0.0000 -0.3039 0.9527
vn 0.1514 -0.2085 0.9662
vn 0.0796 -0.2451 0.9662
vn 0.2085 -0.1515 0.9662
vn 0.1786 -0.2459 0.9527
vn 0.2891 -0.0939 0.9527
vn 0.2459 -0.1786 0.9527
vn 0.2451 -0.0796 0.9662
vn 0.2001 -0.0000 0.9798
vn 0.1903 0.0618 0.9798
vn 0.1176 0.1619 0.9798
vn 0.1619 0.1176 0.9798
vn 0.0618 0.1903 0.9798
vn -0.0618 0.1903 0.9798
vn -0.0000 0.2001 0.9798
vn -0.1176 0.1619 0.9798
vn -0.1619 0.1176 0.9798
vn -0.1903 0.0618 0.9798
vn -0.2001 -0.0000 0.9798
vn -0.1903 -0.0618 0.9798
vn -0.1176 -0.1619 0.9798
vn -0.1619 -0.1176 0.9798
vn -0.0618 -0.1903 0.9798
vn 0.0618 -0.1903 0.9798
vn -0.0000 -0.2001 0.9798
vn 0.1176 -0.1619 0.9798
vn 0.1619 -0.1176 0.9798
vn 0.1903 -0.0618 0.9798
vn -0.0000 -0.0000 -1.0000
vn -0.0000 -0.0000 1.0000
s 1
usemtl eyelet
f 2//1 21//2 1//2
f 3//3 22//1 2//1
f 4//4 23//3 3//3
f 5//5 24//4 4//4
f 6//6 25//5 5//5
f 7//7 26//6 6//6
f 8//8 27//7 7//7
f 9//9 28//8 8//8
f 10//10 29//9 9//9
f 11//11 30//10 10//10
f 12//12 31//11 11//11
f 13//13 32//12 12//12
f 14//14 33//13 13//13
f 15//15 34//14 14//14
f 16//16 35//15 15//15
f 17//17 36//16 16//16
f 18//18 37//17 17//17
f 19//19 38//18 18//18
f 20//20 39//19 19//19
f 1//2 40//20 20//20
f 22//21 41//22 21//23
f 23//24 42//25 22//21
f 24//26 43//27 23//24
f 25//28 44//29 24//26
f 26//30 45//31 25//28
f 26//30 47//32 46//33
f 27//34 48//35 47//32
f 28//36 49//37 48//35
f 29//38 50//39 49//37
f 31//40 50//39 30//41
f 32//42 51//43 31//40
f 33//44 52//45 32//42
f 34//46 53//47 33//44
f 35//48 54//49 34//46
f 36//50 55//51 35//48
f 36//50 57//52 56//53
f 38//54 57//52 37//55
f 39//56 58//57 38//54
f 39//56 60//58 59//59
f 40//60 41//22 60//58
f 42//25 61//61 41//22
f 43//27 62//62 42//25
f 43//27 64//63 63//64
f 45//31 64//63 44//29
f 46//33 65//65 45//31
f 46//33 67//66 66//67
f 48//35 67//66 47//32
f 49//37 68//68 48//35
f 50//39 69//69 49//37
f 51//43 70//70 50//39
f 52//45 71//71 51//43
f 53//47 72//72 52//45
f 53//47 74//73 73//74
f 54//49 75//75 74//73
f 56//53 75//75 55//51
f 56//53 77//76 76//77
f 57//52 78//78 77//76
f 59//59 78//78 58//57
f 60//58 79//79 59//59
f 41//22 80//80 60//58
f 2//81 1//81 81//81
f 3//81 2//81 81//81
f 4//81 3//81 81//81
f 5//81 4//81 81//81
f 6//81 5//81 81//81
f 7//81 6//81 81//81
f 8//81 7//81 81//81
f 9//81 8//81 81//81
f 10//81 9//81 81//81
f 11//81 10//81 81//81
f 12//81 11//81 81//81
f 13//81 12//81 81//81
f 14//81 13//81 81//81
f 15//81 14//81 81//81
f 16//81 15//81 81//81
f 17//81 16//81 81//81
f 18//81 17//81 81//81
f 19//81 18//81 81//81
f 20//81 19//81 81//81
f 1//81 20//81 81//81
f 61//61 62//62 82//82
f 62//62 63//64 82//82
f 63//64 64//63 82//82
f 64//63 65//65 82//82
f 65//65 66//67 82//82
f 66//67 67//66 82//82
f 67//66 68//68 82//82
f 68//68 69//69 82//82
f 69//69 70//70 82//82
f 70//70 71//71 82//82
f 71//71 72//72 82//82
f 72//72 73//74 82//82
f 73//74 74//73 82//82
f 74//73 75//75 82//82
f 75//75 76//77 82//82
f 76//77 77//76 82//82
f 77//76 78//78 82//82
f 78//78 79//79 82//82
f 79//79 80//80 82//82
f 80//80 61//61 82//82
f 2//1 22//1 21//2
f 3//3 23//3 22//1
f 4//4 24//4 23//3
f 5//5 25//5 24//4
f 6//6 26//6 25//5
f 7//7 27//7 26//6
f 8//8 28//8 27//7
f 9//9 29//9 28//8
f 10//10 30//10 29//9
f 11//11 31//11 30//10
f 12//12 32//12 31//11
f 13//13 33//13 32//12
f 14//14 34//14 33//13
f 15//15 35//15 34//14
f 16//16 36//16 35//15
f 17//17 37//17 36//16
f 18//18 38//18 37//17
f 19//19 39//19 38//18
f 20//20 40//20 39//19
f 1//2 21//2 40//20
f 22//21 42//25 41//22
f 23//24 43//27 42//25
f 24//26 44//29 43//27
f 25//28 45//31 44//29
f 26//30 46//33 45//31
f 26//30 27//34 47//32
f 27//34 28//36 48//35
f 28//36 29//38 49//37
f 29//38 30//41 50//39
f 31//40 51//43 50//39
f 32//42 52//45 51//43
f 33//44 53//47 52//45
f 34//46 54//49 53//47
f 35//48 55//51 54//49
f 36//50 56//53 55//51
f 36//50 37//55 57//52
f 38//54 58//57 57//52
f 39//56 59//59 58//57
f 39//56 40//60 60//58
f 40//60 21//23 41//22
f 42//25 62//62 61//61
f 43//27 63//64 62//62
f 43//27 44//29 64//63
f 45//31 65//65 64//63
f 46//33 66//67 65//65
f 46//33 47//32 67//66
f 48//35 68//68 67//66
f 49//37 69//69 68//68
f 50//39 70//70 69//69
f 51//43 71//71 70//70
f 52//45 72//72 71//71
f 53//47 73//74 72//72
f 53//47 54//49 74//73
f 54//49 55//51 75//75
f 56//53 76//77 75//75
f 56//53 57//52 77//76
f 57//52 58//57 78//78
f 59//59 79//79 78//78
f 60//58 80//80 79//79
f 41//22 61//61 80//80
