# Blender 5.1.1
# www.blender.org
mtllib blade_cw_eyelet.mtl
o blade_cw_eyelet
v 0.017000 0.000000 -0.002800
v 0.016706 -0.001854 -0.002800
v 0.015854 -0.003527 -0.002800
v 0.014527 -0.004854 -0.002800
v 0.012854 -0.005706 -0.002800
v 0.011000 -0.006000 -0.002800
v 0.009146 -0.005706 -0.002800
v 0.007473 -0.004854 -0.002800
v 0.006146 -0.003527 -0.002800
v 0.005294 -0.001854 -0.002800
v 0.005000 -0.000000 -0.002800
v 0.005294 0.001854 -0.002800
v 0.006146 0.003527 -0.002800
v 0.007473 0.004854 -0.002800
v 0.009146 0.005706 -0.002800
v 0.011000 0.006000 -0.002800
v 0.012854 0.005706 -0.002800
v 0.014527 0.004854 -0.002800
v 0.015854 0.003527 -0.002800
v 0.016706 0.001854 -0.002800
v 0.017000 0.000000 0.002400
v 0.016706 -0.001854 0.002400
v 0.015854 -0.003527 0.002400
v 0.014527 -0.004854 0.002400
v 0.012854 -0.005706 0.002400
v 0.011000 -0.006000 0.002400
v 0.009146 -0.005706 0.002400
v 0.007473 -0.004854 0.002400
v 0.006146 -0.003527 0.002400
v 0.005294 -0.001854 0.002400
v 0.005000 -0.000000 0.002400
v 0.005294 0.001854 0.002400
v 0.006146 0.003527 0.002400
v 0.007473 0.004854 0.002400
v 0.009146 0.005706 0.002400
v 0.011000 0.006000 0.002400
v 0.012854 0.005706 0.002400
v 0.014527 0.004854 0.002400
v 0.015854 0.003527 0.002400
v 0.016706 0.001854 0.002400
v 0.015500 0.000000 0.002800
v 0.015280 -0.001391 0.002800
v 0.014641 -0.002645 0.002800
v 0.013645 -0.003641 0.002800
v 0.012391 -0.004280 0.002800
v 0.011000 -0.004500 0.002800
v 0.009609 -0.004280 0.002800
v 0.008355 -0.003641 0.002800
v 0.007359 -0.002645 0.002800
v 0.006720 -0.001391 0.002800
v 0.006500 -0.000000 0.002800
v 0.006720 0.001391 0.002800
v 0.007359 0.002645 0.002800
v 0.008355 0.003641 0.002800
v 0.009609 0.004280 0.002800
v 0.011000 0.004500 0.002800
v 0.012391 0.004280 0.002800
v 0.013645 0.003641 0.002800
v 0.014641 0.002645 0.002800
v 0.015280 0.001391 0.002800
v 0.014200 0.000000 0.003300
v 0.014043 -0.000989 0.003300
v 0.013589 -0.001881 0.003300
v 0.012881 -0.002589 0.003300
v 0.011989 -0.003043 0.003300
v 0.011000 -0.003200 0.003300
v 0.010011 -0.003043 0.003300
v 0.009119 -0.002589 0.003300
v 0.008411 -0.001881 0.003300
v 0.007957 -0.000989 0.003300
v 0.007800 -0.000000 0.003300
v 0.007957 0.000989 0.003300
v 0.008411 0.001881 0.003300
v 0.009119 0.002589 0.003300
v 0.010011 0.003043 0.003300
v 0.011000 0.003200 0.003300
v 0.011989 0.003043 0.003300
v 0.012881 0.002589 0.003300
v 0.013589 0.001881 0.003300
v 0.014043 0.000989 0.003300
v 0.011000 0.000000 -0.002800
v 0.011000 -0.000000 0.003300
vn 1.0000 -0.0000 -0.0000
vn 0.9511 -0.3090 -0.0000
vn 0.8090 -0.5878 -0.0000
vn 0.5878 -0.8090 -0.0000
vn 0.3090 -0.9511 -0.0000
vn -0.0000 -1.0000 -0.0000
vn -0.3090 -0.9511 -0.0000
vn -0.5878 -0.8090 -0.0000
vn -0.8090 -0.5878 -0.0000
vn -0.9511 -0.3090 -0.0000
vn -1.0000 -0.0000 -0.0000
vn -0.9511 0.3090 -0.0000
vn -0.8090 0.5878 -0.0000
vn -0.5878 0.8090 -0.0000
vn -0.3090 0.9511 -0.0000
vn -0.0000 1.0000 -0.0000
vn 0.3090 0.9511 -0.0000
vn 0.5878 0.8090 -0.0000
vn 0.8090 0.5878 -0.0000
vn 0.9511 0.3090 -0.0000
vn 0.3039 -0.0000 0.9527
vn 0.2451 -0.0796 0.9662
vn 0.2577 -0.0000 0.9662
vn 0.2891 -0.0939 0.9527
vn 0.2085 -0.1514 0.9662
vn 0.2459 -0.1786 0.9527
vn 0.1515 -0.2085 0.9662
vn 0.1786 -0.2459 0.9527
vn 0.0796 -0.2451 0.9662
vn 0.0939 -0.2891 0.9527
vn -0.0000 -0.2577 0.9662
vn -0.0939 -0.2891 0.9527
vn -0.0796 -0.2451 0.9662
vn -0.1786 -0.2459 0.9527
vn -0.1515 -0.2085 0.9662
vn -0.2459 -0.1786 0.9527
vn -0.2085 -0.1515 0.9662
vn -0.2451 -0.0796 0.9662
vn -0.3039 -0.0000 0.9527
vn -0.2577 -0.0000 0.9662
vn -0.2451 0.0796 0.9662
vn -0.2891 0.0939 0.9527
vn -0.2085 0.1514 0.9662
vn -0.2459 0.1786 0.9527
vn -0.1515 0.2085 0.9662
vn -0.1786 0.2459 0.9527
vn -0.0796 0.2451 0.9662
vn -0.0939 0.2891 0.9527
vn -0.0000 0.2577 0.9662
vn -0.0000 0.3039 0.9527
vn 0.0796 0.2451 0.9662
vn 0.0939 0.2891 0.9527
vn 0.1514 0.2085 0.9662
vn 0.1786 0.2459 0.9527
vn 0.2085 0.1515 0.9662
vn 0.2891 0.0939 0.9527
vn 0.2451 0.0796 0.9662
vn 0.2001 -0.0000 0.9798
vn 0.1903 -0.0618 0.9798
vn 0.1176 -0.1619 0.9798
vn 0.0618 -0.1903 0.9798
vn -0.0000 -0.3039 0.9527
vn -0.0618 -0.1903 0.9798
vn -0.1176 -0.1619 0.9798
vn -0.1619 -0.1176 0.9798
vn -0.2891 -0.0939 0.9527
vn -0.1903 -0.0618 0.9798
vn -0.1903 0.0618 0.9798
vn -0.1176 0.1619 0.9798
vn -0.0618 0.1903 0.9798
vn 0.0618 0.1903 0.9798
vn 0.1176 0.1619 0.9798
vn 0.2459 0.1786 0.9527
vn 0.1903 0.0618 0.9798
vn -0.0000 -0.0000 -1.0000
vn -0.0000 -0.0000 1.0000
vn 0.1619 -0.1176 0.9798
vn -0.0000 -0.2001 0.9798
vn -0.2001 -0.0000 0.9798
vn -0.1619 0.1176 0.9798
vn -0.0000 0.2001 0.9798
vn 0.1619 0.1176 0.9798
s 1
usemtl eyelet
f 21//1 2//2 1//1
f 22//2 3//3 2//2
f 23//3 4//4 3//3
f 24//4 5//5 4//4
f 25//5 6//6 5//5
f 26//6 7//7 6//6
f 27//7 8//8 7//7
f 28//8 9//9 8//8
f 29//9 10//10 9//9
f 30//10 11//11 10//10
f 31//11 12//12 11//11
f 32//12 13//13 12//12
f 33//13 14//14 13//13
f 34//14 15//15 14//14
f 35//15 16//16 15//15
f 36//16 17//17 16//16
f 37//17 18//18 17//17
f 38//18 19//19 18//18
f 39//19 20//20 19//19
f 40//20 1//1 20//20
f 41//21 22//22 21//23
f 42//24 23//25 22//22
f 43//26 24//27 23//25
f 44//28 25//29 24//27
f 45//30 26//31 25//29
f 26//31 47//32 27//33
f 27//33 48//34 28//35
f 28//35 49//36 29//37
f 49//36 30//38 29//37
f 30//38 51//39 31//40
f 51//39 32//41 31//40
f 52//42 33//43 32//41
f 53//44 34//45 33//43
f 54//46 35//47 34//45
f 55//48 36//49 35//47
f 56//50 37//51 36//49
f 57//52 38//53 37//51
f 58//54 39//55 38//53
f 39//55 60//56 40//57
f 40//57 41//21 21//23
f 61//58 42//24 41//21
f 62//59 43//26 42//24
f 43//26 64//60 44//28
f 64//60 45//30 44//28
f 65//61 46//62 45//30
f 46//62 67//63 47//32
f 67//63 48//34 47//32
f 68//64 49//36 48//34
f 69//65 50//66 49//36
f 70//67 51//39 50//66
f 51//39 72//68 52//42
f 72//68 53//44 52//42
f 53//44 74//69 54//46
f 54//46 75//70 55//48
f 75//70 56//50 55//48
f 56//50 77//71 57//52
f 57//52 78//72 58//54
f 78//72 59//73 58//54
f 59//73 80//74 60//56
f 80//74 41//21 60//56
f 2//75 81//75 1//75
f 3//75 81//75 2//75
f 4//75 81//75 3//75
f 5//75 81//75 4//75
f 6//75 81//75 5//75
f 7//75 81//75 6//75
f 8//75 81//75 7//75
f 9//75 81//75 8//75
f 10//75 81//75 9//75
f 11//75 81//75 10//75
f 12//75 81//75 11//75
f 13//75 81//75 12//75
f 14//75 81//75 13//75
f 15//75 81//75 14//75
f 16//75 81//75 15//75
f 17//75 81//75 16//75
f 18//75 81//75 17//75
f 19//75 81//75 18//75
f 20//75 81//75 19//75
f 1//75 81//75 20//75
f 61//58 82//76 62//59
f 62//59 82//76 63//77
f 63//77 82//76 64//60
f 64//60 82//76 65//61
f 65//61 82//76 66//78
f 66//78 82//76 67//63
f 67//63 82//76 68//64
f 68//64 82//76 69//65
f 69//65 82//76 70//67
f 70//67 82//76 71//79
f 71//79 82//76 72//68
f 72//68 82//76 73//80
f 73//80 82//76 74//69
f 74//69 82//76 75//70
f 75//70 82//76 76//81
f 76//81 82//76 77//71
f 77//71 82//76 78//72
f 78//72 82//76 79//82
f 79//82 82//76 80//74
f 80//74 82//76 61//58
f 21//1 22//2 2//2
f 22//2 23//3 3//3
f 23//3 24//4 4//4
f 24//4 25//5 5//5
f 25//5 26//6 6//6
f 26//6 27//7 7//7
f 27//7 28//8 8//8
f 28//8 29//9 9//9
f 29//9 30//10 10//10
f 30//10 31//11 11//11
f 31//11 32//12 12//12
f 32//12 33//13 13//13
f 33//13 34//14 14//14
f 34//14 35//15 15//15
f 35//15 36//16 16//16
f 36//16 37//17 17//17
f 37//17 38//18 18//18
f 38//18 39//19 19//19
f 39//19 40//20 20//20
f 40//20 21//1 1//1
f 41//21 42//24 22//22
f 42//24 43//26 23//25
f 43//26 44//28 24//27
f 44//28 45//30 25//29
f 45//30 46//62 26//31
f 26//31 46//62 47//32
f 27//33 47//32 48//34
f 28//35 48//34 49//36
f 49//36 50//66 30//38
f 30//38 50//66 51//39
f 51//39 52//42 32//41
f 52//42 53//44 33//43
f 53//44 54//46 34//45
f 54//46 55//48 35//47
f 55//48 56//50 36//49
f 56//50 57//52 37//51
f 57//52 58//54 38//53
f 58//54 59//73 39//55
f 39//55 59//73 60//56
f 40//57 60//56 41//21
f 61//58 62//59 42//24
f 62//59 63//77 43//26
f 43//26 63//77 64//60
f 64//60 65//61 45//30
f 65//61 66//78 46//62
f 46//62 66//78 67//63
f 67//63 68//64 48//34
f 68//64 69//65 49//36
f 69//65 70//67 50//66
f 70//67 71//79 51//39
f 51//39 71//79 72//68
f 72//68 73//80 53//44
f 53//44 73//80 74//69
f 54//46 74//69 75//70
f 75//70 76//81 56//50
f 56//50 76//81 77//71
f 57//52 77//71 78//72
f 78//72 79//82 59//73
f 59//73 79//82 80//74
f 80//74 61//58 41//21
