# Blender 5.1.1
# www.blender.org
mtllib blade_cw_blade.mtl
o blade_cw_blade
v 0.011000 -0.005330 0.002500
v 0.011000 -0.004982 0.002499
v 0.011000 -0.004125 0.002249
v 0.011000 -0.002883 0.001738
v 0.011000 -0.001430 0.000991
v 0.011000 0.000049 0.000081
v 0.011000 0.001384 -0.000870
v 0.011000 0.002435 -0.001711
v 0.011000 0.003102 -0.002292
v 0.011000 0.003330 -0.002500
v 0.011000 0.003083 -0.002325
v 0.011000 0.002365 -0.001833
v 0.011000 0.001246 -0.001110
v 0.011000 -0.001686 0.000549
v 0.011000 -0.004344 0.001868
v 0.011000 -0.005109 0.002280
v 0.018800 -0.004724 0.002337
v 0.018800 -0.004400 0.002335
v 0.018800 -0.003599 0.002098
v 0.018800 -0.002438 0.001621
v 0.018800 -0.001080 0.000922
v 0.018800 0.000304 0.000072
v 0.018800 0.001553 -0.000816
v 0.018800 0.002536 -0.001601
v 0.018800 0.003160 -0.002144
v 0.018800 0.003374 -0.002337
v 0.018800 0.003143 -0.002174
v 0.018800 0.002472 -0.001712
v 0.018800 0.001426 -0.001036
v 0.018800 0.000115 -0.000256
v 0.018800 -0.001313 0.000518
v 0.018800 -0.002680 0.001203
v 0.018800 -0.003800 0.001750
v 0.018800 -0.004515 0.002134
v 0.026600 -0.012309 0.004370
v 0.026600 -0.011706 0.004360
v 0.026600 -0.010210 0.003916
v 0.026600 -0.008042 0.003021
v 0.026600 -0.005502 0.001715
v 0.026600 -0.002914 0.000128
v 0.026600 -0.000577 -0.001530
v 0.026600 0.001261 -0.002996
v 0.026600 0.002429 -0.004008
v 0.026600 0.002829 -0.004370
v 0.026600 0.002398 -0.004063
v 0.026600 0.001144 -0.003199
v 0.026600 -0.000809 -0.001931
v 0.026600 -0.003259 -0.000471
v 0.026600 -0.005929 0.000977
v 0.026600 -0.008483 0.002257
v 0.026600 -0.010577 0.003280
v 0.026600 -0.011917 0.003994
v 0.034400 -0.018131 0.005930
v 0.034400 -0.017316 0.005911
v 0.034400 -0.015289 0.005303
v 0.034400 -0.012348 0.004087
v 0.034400 -0.008901 0.002316
v 0.034400 -0.005387 0.000164
v 0.034400 -0.002215 -0.002083
v 0.034400 0.000282 -0.004069
v 0.034400 0.001868 -0.005440
v 0.034400 0.002411 -0.005930
v 0.034400 0.001826 -0.005513
v 0.034400 0.000126 -0.004338
v 0.034400 -0.002522 -0.002615
v 0.034400 -0.005845 -0.000629
v 0.034400 -0.009466 0.001337
v 0.034400 -0.012932 0.003075
v 0.034400 -0.015775 0.004461
v 0.034400 -0.017596 0.005426
v 0.042200 -0.021185 0.006748
v 0.042200 -0.020261 0.006720
v 0.042200 -0.017957 0.006024
v 0.042200 -0.014611 0.004637
v 0.042200 -0.010689 0.002622
v 0.042200 -0.006689 0.000175
v 0.042200 -0.003077 -0.002378
v 0.042200 -0.000233 -0.004634
v 0.042200 0.001574 -0.006191
v 0.042200 0.002192 -0.006748
v 0.042200 0.001527 -0.006273
v 0.042200 -0.000406 -0.004933
v 0.042200 -0.003418 -0.002968
v 0.042200 -0.007197 -0.000705
v 0.042200 -0.011316 0.001535
v 0.042200 -0.015260 0.003513
v 0.042200 -0.018497 0.005088
v 0.042200 -0.020572 0.006181
v 0.050000 -0.023849 0.006780
v 0.050000 -0.022844 0.006788
v 0.050000 -0.020296 0.006138
v 0.050000 -0.016575 0.004790
v 0.050000 -0.012191 0.002788
v 0.050000 -0.007700 0.000321
v 0.050000 -0.003626 -0.002281
v 0.050000 -0.000407 -0.004597
v 0.050000 0.001646 -0.006204
v 0.050000 0.002349 -0.006780
v 0.050000 0.001600 -0.006293
v 0.050000 -0.000576 -0.004924
v 0.050000 -0.003961 -0.002927
v 0.050000 -0.008198 -0.000642
v 0.050000 -0.012806 0.001599
v 0.050000 -0.017211 0.003561
v 0.050000 -0.020825 0.005115
v 0.050000 -0.023148 0.006199
v 0.060000 -0.024534 0.005891
v 0.060000 -0.023527 0.005961
v 0.060000 -0.020921 0.005481
v 0.060000 -0.017083 0.004385
v 0.060000 -0.012531 0.002683
v 0.060000 -0.007837 0.000523
v 0.060000 -0.003552 -0.001800
v 0.060000 -0.000146 -0.003896
v 0.060000 0.002034 -0.005363
v 0.060000 0.002784 -0.005891
v 0.060000 0.001996 -0.005453
v 0.060000 -0.000288 -0.004226
v 0.060000 -0.003833 -0.002452
v 0.060000 -0.008256 -0.000449
v 0.060000 -0.013048 0.001483
v 0.060000 -0.017618 0.003145
v 0.060000 -0.021366 0.004448
v 0.060000 -0.023783 0.005367
v 0.069409 -0.025041 0.005238
v 0.069409 -0.024034 0.005349
v 0.069409 -0.021389 0.004991
v 0.069409 -0.017472 0.004080
v 0.069409 -0.012803 0.002597
v 0.069409 -0.007966 0.000665
v 0.069409 -0.003533 -0.001451
v 0.069409 0.000003 -0.003384
v 0.069409 0.002274 -0.004746
v 0.069409 0.003055 -0.005238
v 0.069409 0.002241 -0.004835
v 0.069409 -0.000119 -0.003712
v 0.069409 -0.003775 -0.002100
v 0.069409 -0.008327 -0.000304
v 0.069409 -0.013249 0.001402
v 0.069409 -0.017933 0.002844
v 0.069409 -0.021773 0.003962
v 0.069409 -0.024255 0.004757
v 0.078818 -0.024220 0.004514
v 0.078818 -0.023256 0.004651
v 0.078818 -0.020694 0.004400
v 0.078818 -0.016882 0.003667
v 0.078818 -0.012322 0.002417
v 0.078818 -0.007583 0.000741
v 0.078818 -0.003225 -0.001125
v 0.078818 0.000262 -0.002848
v 0.078818 0.002505 -0.004071
v 0.078818 0.003278 -0.004514
v 0.078818 0.002477 -0.004156
v 0.078818 0.000159 -0.003159
v 0.078818 -0.003427 -0.001740
v 0.078818 -0.007884 -0.000176
v 0.078818 -0.012694 0.001284
v 0.078818 -0.017267 0.002497
v 0.078818 -0.021014 0.003425
v 0.078818 -0.023440 0.004090
v 0.088227 -0.023251 0.003914
v 0.088227 -0.022332 0.004066
v 0.088227 -0.019865 0.003896
v 0.088227 -0.016183 0.003307
v 0.088227 -0.011764 0.002246
v 0.088227 -0.007159 0.000786
v 0.088227 -0.002915 -0.000868
v 0.088227 0.000488 -0.002411
v 0.088227 0.002681 -0.003513
v 0.088227 0.003438 -0.003914
v 0.088227 0.002658 -0.003593
v 0.088227 0.000402 -0.002703
v 0.088227 -0.003084 -0.001445
v 0.088227 -0.007412 -0.000075
v 0.088227 -0.012076 0.001184
v 0.088227 -0.016505 0.002209
v 0.088227 -0.020133 0.002982
v 0.088227 -0.022486 0.003540
v 0.097636 -0.022031 0.003391
v 0.097636 -0.021163 0.003550
v 0.097636 -0.018813 0.003444
v 0.097636 -0.015295 0.002971
v 0.097636 -0.011065 0.002073
v 0.097636 -0.006646 0.000802
v 0.097636 -0.002565 -0.000661
v 0.097636 0.000713 -0.002040
v 0.097636 0.002828 -0.003030
v 0.097636 0.003558 -0.003391
v 0.097636 0.002809 -0.003104
v 0.097636 0.000641 -0.002310
v 0.097636 -0.002706 -0.001195
v 0.097636 -0.006857 0.000006
v 0.097636 -0.011325 0.001090
v 0.097636 -0.015565 0.001955
v 0.097636 -0.019038 0.002598
v 0.097636 -0.021292 0.003063
v 0.107045 -0.020247 0.002889
v 0.107045 -0.019446 0.003046
v 0.107045 -0.017263 0.002989
v 0.107045 -0.013987 0.002619
v 0.107045 -0.010040 0.001872
v 0.107045 -0.005909 0.000784
v 0.107045 -0.002088 -0.000487
v 0.107045 0.000985 -0.001696
v 0.107045 0.002970 -0.002570
v 0.107045 0.003656 -0.002889
v 0.107045 0.002954 -0.002636
v 0.107045 0.000926 -0.001940
v 0.107045 -0.002205 -0.000968
v 0.107045 -0.006083 0.000067
v 0.107045 -0.010254 0.000986
v 0.107045 -0.014208 0.001704
v 0.107045 -0.017447 0.002227
v 0.107045 -0.019552 0.002607
v 0.116455 -0.018439 0.002463
v 0.116455 -0.017704 0.002614
v 0.116455 -0.015688 0.002594
v 0.116455 -0.012658 0.002305
v 0.116455 -0.009000 0.001683
v 0.116455 -0.005168 0.000753
v 0.116455 -0.001617 -0.000352
v 0.116455 0.001242 -0.001412
v 0.116455 0.003091 -0.002181
v 0.116455 0.003730 -0.002463
v 0.116455 0.003078 -0.002240
v 0.116455 0.001194 -0.001629
v 0.116455 -0.001712 -0.000781
v 0.116455 -0.005310 0.000112
v 0.116455 -0.009176 0.000892
v 0.116455 -0.012840 0.001488
v 0.116455 -0.015840 0.001913
v 0.116455 -0.017791 0.002222
v 0.125864 -0.016324 0.002068
v 0.125864 -0.015663 0.002208
v 0.125864 -0.013842 0.002213
v 0.125864 -0.011098 0.001994
v 0.125864 -0.007782 0.001484
v 0.125864 -0.004303 0.000701
v 0.125864 -0.001076 -0.000243
v 0.125864 0.001525 -0.001157
v 0.125864 0.003208 -0.001823
v 0.125864 0.003790 -0.002068
v 0.125864 0.003197 -0.001875
v 0.125864 0.001486 -0.001346
v 0.125864 -0.001153 -0.000618
v 0.125864 -0.004418 0.000142
v 0.125864 -0.007924 0.000794
v 0.125864 -0.011245 0.001281
v 0.125864 -0.013964 0.001620
v 0.125864 -0.015733 0.001866
v 0.135273 -0.014020 0.001708
v 0.135273 -0.013438 0.001834
v 0.135273 -0.011826 0.001857
v 0.135273 -0.009395 0.001694
v 0.135273 -0.006453 0.001283
v 0.135273 -0.003362 0.000634
v 0.135273 -0.000493 -0.000159
v 0.135273 0.001821 -0.000933
v 0.135273 0.003320 -0.001500
v 0.135273 0.003838 -0.001708
v 0.135273 0.003311 -0.001544
v 0.135273 0.001790 -0.001094
v 0.135273 -0.000554 -0.000478
v 0.135273 -0.003453 0.000158
v 0.135273 -0.006565 0.000695
v 0.135273 -0.009511 0.001086
v 0.135273 -0.011923 0.001351
v 0.135273 -0.013493 0.001543
v 0.144682 -0.010932 0.001325
v 0.144682 -0.010452 0.001430
v 0.144682 -0.009119 0.001461
v 0.144682 -0.007105 0.001348
v 0.144682 -0.004666 0.001039
v 0.144682 -0.002102 0.000534
v 0.144682 0.000281 -0.000091
v 0.144682 0.002205 -0.000706
v 0.144682 0.003451 -0.001158
v 0.144682 0.003882 -0.001325
v 0.144682 0.003445 -0.001193
v 0.144682 0.002182 -0.000834
v 0.144682 0.000236 -0.000345
v 0.144682 -0.002169 0.000155
v 0.144682 -0.004750 0.000571
v 0.144682 -0.007192 0.000865
v 0.144682 -0.009191 0.001059
v 0.144682 -0.010493 0.001199
v 0.154091 -0.006619 0.000886
v 0.154091 -0.006275 0.000987
v 0.154091 -0.005326 0.001036
v 0.154091 -0.003893 0.000979
v 0.154091 -0.002158 0.000775
v 0.154091 -0.000333 0.000427
v 0.154091 0.001362 -0.000011
v 0.154091 0.002732 -0.000446
v 0.154091 0.003619 -0.000767
v 0.154091 0.003926 -0.000886
v 0.154091 0.003614 -0.000799
v 0.154091 0.002712 -0.000563
v 0.154091 0.001324 -0.000242
v 0.154091 -0.000391 0.000083
v 0.154091 -0.002229 0.000350
v 0.154091 -0.003967 0.000539
v 0.154091 -0.005387 0.000670
v 0.154091 -0.006311 0.000776
v 0.163500 0.001217 0.000219
v 0.163500 0.001319 0.000324
v 0.163500 0.001577 0.000397
v 0.163500 0.001957 0.000412
v 0.163500 0.002411 0.000358
v 0.163500 0.002884 0.000242
v 0.163500 0.003323 0.000089
v 0.163500 0.003676 -0.000063
v 0.163500 0.003904 -0.000177
v 0.163500 0.003983 -0.000219
v 0.163500 0.003899 -0.000205
v 0.163500 0.003657 -0.000180
v 0.163500 0.003286 -0.000142
v 0.163500 0.002830 -0.000103
v 0.163500 0.002343 -0.000068
v 0.163500 0.001887 -0.000028
v 0.163500 0.001519 0.000030
v 0.163500 0.001286 0.000113
v 0.011000 -0.000900 0.000173
v 0.163500 0.002609 0.000055
v 0.011000 -0.000156 -0.000275
v 0.011000 -0.003148 0.001280
vn -0.1353 0.0090 0.9908
vn 0.0106 0.1360 0.9907
vn 0.0207 0.0020 0.9998
vn -0.0217 0.1842 0.9827
vn -0.0041 0.3286 0.9444
vn 0.0391 0.3441 0.9381
vn -0.0101 0.4177 0.9085
vn 0.0693 0.4265 0.9018
vn -0.0143 0.4901 0.8716
vn 0.0891 0.4943 0.8647
vn -0.0170 0.5518 0.8338
vn 0.1011 0.5520 0.8277
vn -0.0185 0.6025 0.7979
vn 0.1070 0.5997 0.7930
vn -0.0191 0.6408 0.7675
vn 0.1084 0.6600 0.7434
vn 0.1087 0.6364 0.7637
vn 0.1122 0.6681 0.7356
vn -0.0192 0.6650 0.7466
vn -0.1169 -0.5743 -0.8103
vn 0.0203 -0.5712 -0.8205
vn 0.0202 -0.5770 -0.8165
vn -0.1135 -0.5686 -0.8147
vn 0.0205 -0.5540 -0.8323
vn -0.1116 -0.5251 -0.8437
vn -0.1133 -0.5516 -0.8264
vn -0.1074 -0.4930 -0.8634
vn 0.0203 -0.5270 -0.8496
vn -0.1008 -0.4621 -0.8811
vn 0.0195 -0.4929 -0.8699
vn -0.0947 -0.4427 -0.8917
vn 0.0185 -0.4605 -0.8875
vn -0.0963 -0.4499 -0.8879
vn 0.0176 -0.4438 -0.8959
vn -0.1365 -0.5570 -0.8192
vn 0.0185 -0.4584 -0.8886
vn -0.2453 -0.6771 -0.6938
vn 0.0306 -0.6007 -0.7989
vn -0.1097 0.1474 0.9830
vn -0.1984 0.0160 0.9800
vn 0.0524 0.3311 0.9421
vn 0.1198 0.4151 0.9019
vn 0.1644 0.4826 0.8603
vn 0.1920 0.5402 0.8193
vn 0.2054 0.5881 0.7822
vn 0.2092 0.6251 0.7520
vn 0.2083 0.6486 0.7321
vn -0.2181 -0.5598 -0.7994
vn -0.2164 -0.5657 -0.7957
vn -0.2180 -0.5426 -0.8112
vn -0.2144 -0.5159 -0.8294
vn -0.2050 -0.4836 -0.8509
vn -0.1910 -0.4536 -0.8705
vn -0.1805 -0.4360 -0.8816
vn -0.1916 -0.4467 -0.8739
vn -0.3088 -0.5581 -0.7702
vn -0.0765 0.1459 0.9863
vn -0.1221 0.0234 0.9922
vn 0.0345 0.3310 0.9430
vn 0.0798 0.4159 0.9059
vn 0.1101 0.4852 0.8675
vn 0.1289 0.5448 0.8286
vn 0.1380 0.5942 0.7924
vn 0.1404 0.6320 0.7621
vn 0.1396 0.6557 0.7420
vn 0.2056 0.6570 0.7253
vn -0.1461 -0.5685 -0.8096
vn -0.1443 -0.5745 -0.8057
vn -0.1458 -0.5510 -0.8217
vn -0.1431 -0.5235 -0.8399
vn -0.1363 -0.4899 -0.8611
vn -0.1264 -0.4584 -0.8797
vn -0.1191 -0.4397 -0.8902
vn -0.1270 -0.4507 -0.8836
vn -0.2124 -0.5752 -0.7899
vn -0.3746 -0.6416 -0.6693
vn -0.0047 0.1568 0.9876
vn -0.0352 0.0291 0.9990
vn 0.0506 0.3316 0.9421
vn 0.0658 0.4147 0.9076
vn 0.0703 0.4841 0.8722
vn 0.0673 0.5448 0.8358
vn 0.0597 0.5957 0.8010
vn 0.0509 0.6348 0.7710
vn 0.0460 0.6606 0.7494
vn 0.1370 0.6640 0.7351
vn -0.0491 -0.5751 -0.8166
vn -0.0479 -0.5797 -0.8134
vn -0.0531 -0.5553 -0.8299
vn -0.0612 -0.5261 -0.8482
vn -0.0698 -0.4908 -0.8685
vn -0.0778 -0.4576 -0.8858
vn -0.0868 -0.4373 -0.8951
vn -0.1027 -0.4467 -0.8888
vn -0.1611 -0.5705 -0.8053
vn -0.2422 -0.6651 -0.7064
vn 0.0538 0.1075 0.9927
vn 0.0438 -0.0102 0.9990
vn 0.0746 0.2877 0.9548
vn 0.0650 0.3734 0.9254
vn 0.0447 0.4454 0.8942
vn 0.0188 0.5084 0.8609
vn -0.0080 0.5606 0.8280
vn -0.0310 0.6003 0.7992
vn -0.0470 0.6259 0.7785
vn 0.0444 0.6674 0.7434
vn 0.0472 -0.5397 -0.8406
vn 0.0528 -0.5441 -0.8374
vn 0.0319 -0.5204 -0.8533
vn 0.0096 -0.4908 -0.8712
vn -0.0175 -0.4546 -0.8905
vn -0.0460 -0.4198 -0.9064
vn -0.0733 -0.3979 -0.9145
vn -0.0993 -0.4061 -0.9084
vn -0.1382 -0.5363 -0.8327
vn -0.2043 -0.6635 -0.7197
vn 0.0755 0.0547 0.9956
vn 0.0719 -0.0703 0.9949
vn 0.0698 0.2270 0.9714
vn 0.0498 0.3125 0.9486
vn 0.0225 0.3851 0.9226
vn -0.0079 0.4488 0.8936
vn -0.0371 0.5018 0.8642
vn -0.0611 0.5420 0.8382
vn -0.0768 0.5672 0.8200
vn -0.0822 0.5758 0.8135
vn 0.0836 -0.4860 -0.8699
vn 0.0785 -0.4799 -0.8738
vn 0.0635 -0.4613 -0.8850
vn 0.0402 -0.4315 -0.9012
vn 0.0116 -0.3946 -0.9188
vn -0.0190 -0.3588 -0.9332
vn -0.0479 -0.3351 -0.9410
vn -0.0719 -0.3406 -0.9374
vn -0.0901 -0.4647 -0.8809
vn -0.1529 -0.6285 -0.7627
vn 0.0713 0.0070 0.9974
vn 0.0743 -0.1099 0.9912
vn 0.0596 0.1790 0.9820
vn 0.0414 0.2641 0.9636
vn 0.0181 0.3370 0.9413
vn -0.0072 0.4015 0.9158
vn -0.0314 0.4556 0.8896
vn -0.0540 0.4954 0.8670
vn -0.0693 0.5238 0.8490
vn -0.0733 0.5327 0.8431
vn 0.0748 -0.4431 -0.8934
vn 0.0710 -0.4366 -0.8969
vn 0.0566 -0.4151 -0.9080
vn 0.0352 -0.3858 -0.9219
vn 0.0120 -0.3479 -0.9375
vn -0.0126 -0.3113 -0.9502
vn -0.0353 -0.2872 -0.9572
vn -0.0522 -0.2929 -0.9547
vn -0.0561 -0.4201 -0.9057
vn -0.0966 -0.5686 -0.8169
vn 0.0813 -0.1391 0.9869
vn 0.0683 -0.0208 0.9975
vn 0.0443 0.1443 0.9885
vn 0.0231 0.2278 0.9734
vn 0.0002 0.2999 0.9540
vn -0.0224 0.3641 0.9311
vn -0.0423 0.4184 0.9073
vn -0.0659 0.4882 0.8703
vn -0.0569 0.4572 0.8875
vn -0.0691 0.4973 0.8648
vn 0.0706 -0.4087 -0.9099
vn 0.0660 -0.4009 -0.9137
vn 0.0458 -0.3495 -0.9358
vn 0.0577 -0.3792 -0.9235
vn 0.0274 -0.3113 -0.9499
vn 0.0069 -0.2742 -0.9616
vn -0.0126 -0.2494 -0.9683
vn -0.0269 -0.2536 -0.9669
vn -0.0230 -0.3749 -0.9268
vn -0.0144 -0.4792 -0.8776
vn 0.0765 -0.1619 0.9838
vn 0.0624 -0.0474 0.9969
vn 0.0379 0.1141 0.9927
vn 0.0187 0.1966 0.9803
vn -0.0011 0.2686 0.9633
vn -0.0202 0.3332 0.9427
vn -0.0366 0.3880 0.9209
vn -0.0556 0.4588 0.8868
vn -0.0485 0.4282 0.9024
vn -0.0581 0.4681 0.8817
vn 0.0594 -0.3810 -0.9227
vn 0.0511 -0.3526 -0.9344
vn 0.0576 -0.3721 -0.9264
vn 0.0399 -0.3206 -0.9464
vn 0.0251 -0.2815 -0.9592
vn 0.0083 -0.2436 -0.9698
vn -0.0076 -0.2178 -0.9760
vn -0.0187 -0.2205 -0.9752
vn -0.0113 -0.3389 -0.9408
vn -0.0010 -0.4409 -0.8975
vn 0.0807 -0.1788 0.9806
vn 0.0637 -0.0688 0.9956
vn 0.0348 0.0893 0.9954
vn 0.0154 0.1707 0.9852
vn -0.0035 0.2425 0.9702
vn -0.0207 0.3072 0.9514
vn -0.0350 0.3626 0.9313
vn -0.0495 0.4331 0.9000
vn -0.0437 0.4044 0.9135
vn -0.0527 0.4433 0.8948
vn 0.0539 -0.3582 -0.9321
vn 0.0473 -0.3295 -0.9430
vn 0.0524 -0.3496 -0.9354
vn 0.0382 -0.2969 -0.9542
vn 0.0258 -0.2570 -0.9661
vn 0.0113 -0.2182 -0.9758
vn -0.0024 -0.1915 -0.9815
vn -0.0110 -0.1930 -0.9811
vn 0.0022 -0.3083 -0.9513
vn 0.0155 -0.4070 -0.9133
vn 0.0845 -0.1913 0.9779
vn 0.0638 -0.0828 0.9945
vn 0.0326 0.0698 0.9970
vn 0.0132 0.1499 0.9886
vn -0.0046 0.2210 0.9753
vn -0.0203 0.2856 0.9581
vn -0.0328 0.3410 0.9395
vn -0.0415 0.3841 0.9223
vn -0.0476 0.4221 0.9053
vn -0.0462 0.4111 0.9104
vn 0.0486 -0.3392 -0.9394
vn 0.0434 -0.3103 -0.9497
vn 0.0475 -0.3308 -0.9425
vn 0.0359 -0.2772 -0.9601
vn 0.0253 -0.2368 -0.9712
vn 0.0127 -0.1974 -0.9802
vn 0.0007 -0.1696 -0.9855
vn -0.0063 -0.1693 -0.9855
vn 0.0099 -0.2788 -0.9603
vn 0.0272 -0.3765 -0.9260
vn 0.0838 -0.2004 0.9761
vn 0.0630 -0.0963 0.9934
vn 0.0309 0.0527 0.9981
vn 0.0122 0.1315 0.9912
vn -0.0045 0.2022 0.9793
vn -0.0188 0.2667 0.9636
vn -0.0298 0.3224 0.9462
vn -0.0371 0.3657 0.9300
vn -0.0420 0.4038 0.9139
vn -0.0410 0.3930 0.9186
vn 0.0429 -0.3233 -0.9453
vn 0.0388 -0.2941 -0.9550
vn 0.0421 -0.3151 -0.9481
vn 0.0326 -0.2605 -0.9649
vn 0.0236 -0.2195 -0.9753
vn 0.0125 -0.1794 -0.9837
vn 0.0020 -0.1508 -0.9886
vn -0.0037 -0.1491 -0.9888
vn 0.0145 -0.2550 -0.9668
vn 0.0321 -0.3487 -0.9367
vn 0.0873 -0.2067 0.9745
vn 0.0646 -0.1057 0.9923
vn 0.0306 0.0387 0.9988
vn 0.0116 0.1162 0.9932
vn -0.0048 0.1862 0.9825
vn -0.0183 0.2505 0.9679
vn -0.0282 0.3061 0.9516
vn -0.0346 0.3496 0.9363
vn -0.0386 0.3877 0.9210
vn -0.0377 0.3771 0.9254
vn 0.0394 -0.3098 -0.9500
vn 0.0361 -0.2804 -0.9592
vn 0.0387 -0.3017 -0.9526
vn 0.0309 -0.2464 -0.9687
vn 0.0229 -0.2049 -0.9785
vn 0.0128 -0.1642 -0.9863
vn 0.0031 -0.1346 -0.9909
vn -0.0018 -0.1313 -0.9913
vn 0.0186 -0.2323 -0.9725
vn 0.0383 -0.3231 -0.9456
vn 0.0969 -0.2107 0.9727
vn 0.0729 -0.1149 0.9907
vn 0.0331 0.0260 0.9991
vn 0.0121 0.1023 0.9947
vn -0.0054 0.1718 0.9851
vn -0.0192 0.2360 0.9716
vn -0.0289 0.2917 0.9561
vn -0.0347 0.3353 0.9415
vn -0.0379 0.3734 0.9269
vn -0.0373 0.3630 0.9310
vn 0.0387 -0.2983 -0.9537
vn 0.0361 -0.2686 -0.9626
vn 0.0382 -0.2903 -0.9562
vn 0.0315 -0.2342 -0.9717
vn 0.0239 -0.1922 -0.9811
vn 0.0139 -0.1508 -0.9885
vn 0.0043 -0.1204 -0.9927
vn 0.0002 -0.1159 -0.9933
vn 0.0259 -0.2135 -0.9766
vn 0.0470 -0.2993 -0.9530
vn 0.1219 -0.2125 0.9695
vn 0.0926 -0.1218 0.9882
vn 0.0390 0.0151 0.9991
vn 0.0116 0.0902 0.9959
vn -0.0100 0.1593 0.9872
vn -0.0258 0.2234 0.9744
vn -0.0356 0.2792 0.9596
vn -0.0405 0.3228 0.9456
vn -0.0420 0.3605 0.9318
vn -0.0420 0.3506 0.9356
vn 0.0429 -0.2883 -0.9566
vn 0.0396 -0.2581 -0.9653
vn 0.0422 -0.2801 -0.9590
vn 0.0343 -0.2234 -0.9741
vn 0.0255 -0.1810 -0.9832
vn 0.0141 -0.1392 -0.9902
vn 0.0035 -0.1081 -0.9941
vn 0.0007 -0.1023 -0.9947
vn 0.0374 -0.1960 -0.9799
vn 0.0640 -0.2768 -0.9588
vn 0.2072 -0.2752 0.9388
vn 0.1726 -0.1730 0.9697
vn 0.0656 -0.0095 0.9978
vn 0.0154 0.0753 0.9970
vn -0.0202 0.1500 0.9885
vn -0.0432 0.2179 0.9750
vn -0.0549 0.2761 0.9596
vn -0.0585 0.3214 0.9451
vn -0.0565 0.3599 0.9313
vn -0.0577 0.3505 0.9348
vn 0.0569 -0.2675 -0.9619
vn 0.0518 -0.2384 -0.9698
vn 0.0559 -0.2596 -0.9641
vn 0.0432 -0.2048 -0.9778
vn 0.0297 -0.1642 -0.9860
vn 0.0138 -0.1255 -0.9920
vn 0.0023 -0.0999 -0.9950
vn 0.0083 -0.1046 -0.9945
vn 0.0987 -0.2323 -0.9676
vn 0.1369 -0.3300 -0.9340
vn 0.5299 -0.6045 0.5948
vn 0.2514 -0.2560 0.9334
vn 0.1379 -0.1080 0.9845
vn 0.0187 0.0669 0.9976
vn -0.0442 0.1932 0.9802
vn -0.0714 0.2881 0.9549
vn -0.0774 0.3614 0.9292
vn -0.0731 0.4177 0.9056
vn -0.0694 0.4673 0.8814
vn -0.0694 0.4568 0.8868
vn 0.0683 -0.1319 -0.9889
vn 0.0707 -0.1580 -0.9849
vn 0.0586 -0.1074 -0.9925
vn 0.0413 -0.1009 -0.9940
vn 0.0201 -0.0858 -0.9961
vn 0.0038 -0.0818 -0.9966
vn 0.0111 -0.1102 -0.9939
vn 0.0793 -0.2073 -0.9751
vn 0.1751 -0.3244 -0.9296
vn 0.5381 -0.7066 -0.4596
vn -1.0000 -0.0000 -0.0000
vn 1.0000 -0.0000 -0.0000
vn 1.0000 0.0001 0.0001
vn 1.0000 0.0002 0.0001
vn -1.0000 0.0001 0.0002
vn -1.0000 0.0001 0.0001
vn 1.0000 -0.0000 0.0001
vn 1.0000 0.0001 -0.0000
vn 1.0000 -0.0002 -0.0001
vn 1.0000 -0.0000 -0.0001
vn -0.0192 0.6732 0.7392
vn 0.0400 -0.7041 -0.7089
vn -0.0527 0.6326 0.7727
vn -0.0547 -0.5209 -0.8519
vn 0.5319 -0.6075 0.5899
vn 0.2068 -0.3267 -0.9222
s 1
usemtl blade
f 17//1 2//2 1//3
f 18//4 3//5 2//2
f 19//6 4//7 3//5
f 20//8 5//9 4//7
f 21//10 6//11 5//9
f 22//12 7//13 6//11
f 23//14 8//15 7//13
f 25//16 8//15 24//17
f 26//18 9//19 25//16
f 26//20 11//21 10//22
f 27//23 12//24 11//21
f 29//25 12//24 28//26
f 30//27 13//28 29//25
f 31//29 325//30 30//27
f 32//31 14//32 31//29
f 33//33 326//34 32//31
f 34//35 15//36 33//33
f 17//37 16//38 34//35
f 36//39 17//1 35//40
f 37//41 18//4 36//39
f 38//42 19//6 37//41
f 39//43 20//8 38//42
f 40//44 21//10 39//43
f 41//45 22//12 40//44
f 42//46 23//14 41//45
f 42//46 25//16 24//17
f 43//47 26//18 25//16
f 45//48 26//20 44//49
f 46//50 27//23 45//48
f 46//50 29//25 28//26
f 47//51 30//27 29//25
f 48//52 31//29 30//27
f 49//53 32//31 31//29
f 50//54 33//33 32//31
f 51//55 34//35 33//33
f 52//56 17//37 34//35
f 54//57 35//40 53//58
f 55//59 36//39 54//57
f 56//60 37//41 55//59
f 57//61 38//42 56//60
f 58//62 39//43 57//61
f 59//63 40//44 58//62
f 60//64 41//45 59//63
f 60//64 43//47 42//46
f 61//65 44//66 43//47
f 63//67 44//49 62//68
f 64//69 45//48 63//67
f 64//69 47//51 46//50
f 65//70 48//52 47//51
f 66//71 49//53 48//52
f 67//72 50//54 49//53
f 68//73 51//55 50//54
f 69//74 52//56 51//55
f 70//75 35//76 52//56
f 72//77 53//58 71//78
f 73//79 54//57 72//77
f 74//80 55//59 73//79
f 75//81 56//60 74//80
f 76//82 57//61 75//81
f 77//83 58//62 76//82
f 78//84 59//63 77//83
f 78//84 61//65 60//64
f 79//85 62//86 61//65
f 81//87 62//68 80//88
f 82//89 63//67 81//87
f 82//89 65//70 64//69
f 83//90 66//71 65//70
f 84//91 67//72 66//71
f 85//92 68//73 67//72
f 86//93 69//74 68//73
f 87//94 70//75 69//74
f 88//95 53//96 70//75
f 90//97 71//78 89//98
f 91//99 72//77 90//97
f 92//100 73//79 91//99
f 93//101 74//80 92//100
f 94//102 75//81 93//101
f 95//103 76//82 94//102
f 96//104 77//83 95//103
f 97//105 78//84 96//104
f 97//105 80//106 79//85
f 99//107 80//88 98//108
f 99//107 82//89 81//87
f 100//109 83//90 82//89
f 101//110 84//91 83//90
f 102//111 85//92 84//91
f 103//112 86//93 85//92
f 104//113 87//94 86//93
f 105//114 88//95 87//94
f 106//115 71//116 88//95
f 108//117 89//98 107//118
f 109//119 90//97 108//117
f 110//120 91//99 109//119
f 111//121 92//100 110//120
f 112//122 93//101 111//121
f 113//123 94//102 112//122
f 114//124 95//103 113//123
f 115//125 96//104 114//124
f 116//126 97//105 115//125
f 116//127 99//107 98//108
f 117//128 100//109 99//107
f 118//129 101//110 100//109
f 119//130 102//111 101//110
f 120//131 103//112 102//111
f 121//132 104//113 103//112
f 122//133 105//114 104//113
f 123//134 106//115 105//114
f 124//135 89//136 106//115
f 126//137 107//118 125//138
f 127//139 108//117 126//137
f 128//140 109//119 127//139
f 129//141 110//120 128//140
f 130//142 111//121 129//141
f 131//143 112//122 130//142
f 132//144 113//123 131//143
f 133//145 114//124 132//144
f 134//146 115//125 133//145
f 134//147 117//128 116//127
f 135//148 118//129 117//128
f 136//149 119//130 118//129
f 137//150 120//131 119//130
f 138//151 121//132 120//131
f 139//152 122//133 121//132
f 140//153 123//134 122//133
f 141//154 124//135 123//134
f 142//155 107//156 124//135
f 143//157 126//137 125//138
f 144//158 127//139 126//137
f 145//159 128//140 127//139
f 146//160 129//141 128//140
f 147//161 130//142 129//141
f 148//162 131//143 130//142
f 149//163 132//144 131//143
f 151//164 132//144 150//165
f 152//166 133//145 151//164
f 152//167 135//148 134//147
f 153//168 136//149 135//148
f 155//169 136//149 154//170
f 156//171 137//150 155//169
f 157//172 138//151 156//171
f 158//173 139//152 157//172
f 159//174 140//153 158//173
f 160//175 141//154 159//174
f 143//176 142//155 160//175
f 161//177 144//158 143//157
f 162//178 145//159 144//158
f 163//179 146//160 145//159
f 164//180 147//161 146//160
f 165//181 148//162 147//161
f 166//182 149//163 148//162
f 167//183 150//165 149//163
f 169//184 150//165 168//185
f 170//186 151//164 169//184
f 170//187 153//168 152//167
f 172//188 153//168 171//189
f 173//190 154//170 172//188
f 174//191 155//169 173//190
f 175//192 156//171 174//191
f 176//193 157//172 175//192
f 177//194 158//173 176//193
f 178//195 159//174 177//194
f 161//196 160//175 178//195
f 179//197 162//178 161//177
f 180//198 163//179 162//178
f 181//199 164//180 163//179
f 182//200 165//181 164//180
f 183//201 166//182 165//181
f 184//202 167//183 166//182
f 185//203 168//185 167//183
f 187//204 168//185 186//205
f 188//206 169//184 187//204
f 188//207 171//189 170//187
f 190//208 171//189 189//209
f 191//210 172//188 190//208
f 192//211 173//190 191//210
f 193//212 174//191 192//211
f 194//213 175//192 193//212
f 195//214 176//193 194//213
f 196//215 177//194 195//214
f 179//216 178//195 196//215
f 197//217 180//198 179//197
f 198//218 181//199 180//198
f 199//219 182//200 181//199
f 200//220 183//201 182//200
f 201//221 184//202 183//201
f 202//222 185//203 184//202
f 203//223 186//205 185//203
f 204//224 187//204 186//205
f 206//225 187//204 205//226
f 206//227 189//209 188//207
f 208//228 189//209 207//229
f 209//230 190//208 208//228
f 210//231 191//210 209//230
f 211//232 192//211 210//231
f 212//233 193//212 211//232
f 213//234 194//213 212//233
f 214//235 195//214 213//234
f 197//236 196//215 214//235
f 215//237 198//218 197//217
f 216//238 199//219 198//218
f 217//239 200//220 199//219
f 218//240 201//221 200//220
f 219//241 202//222 201//221
f 220//242 203//223 202//222
f 221//243 204//224 203//223
f 222//244 205//226 204//224
f 224//245 205//226 223//246
f 224//247 207//229 206//227
f 226//248 207//229 225//249
f 227//250 208//228 226//248
f 228//251 209//230 227//250
f 229//252 210//231 228//251
f 230//253 211//232 229//252
f 231//254 212//233 230//253
f 232//255 213//234 231//254
f 215//256 214//235 232//255
f 233//257 216//238 215//237
f 234//258 217//239 216//238
f 235//259 218//240 217//239
f 236//260 219//241 218//240
f 237//261 220//242 219//241
f 238//262 221//243 220//242
f 239//263 222//244 221//243
f 240//264 223//246 222//244
f 242//265 223//246 241//266
f 242//267 225//249 224//247
f 244//268 225//249 243//269
f 245//270 226//248 244//268
f 246//271 227//250 245//270
f 247//272 228//251 246//271
f 248//273 229//252 247//272
f 249//274 230//253 248//273
f 250//275 231//254 249//274
f 233//276 232//255 250//275
f 251//277 234//258 233//257
f 252//278 235//259 234//258
f 253//279 236//260 235//259
f 254//280 237//261 236//260
f 255//281 238//262 237//261
f 256//282 239//263 238//262
f 257//283 240//264 239//263
f 258//284 241//266 240//264
f 260//285 241//266 259//286
f 260//287 243//269 242//267
f 262//288 243//269 261//289
f 263//290 244//268 262//288
f 264//291 245//270 263//290
f 265//292 246//271 264//291
f 266//293 247//272 265//292
f 267//294 248//273 266//293
f 268//295 249//274 267//294
f 251//296 250//275 268//295
f 269//297 252//278 251//277
f 270//298 253//279 252//278
f 271//299 254//280 253//279
f 272//300 255//281 254//280
f 273//301 256//282 255//281
f 274//302 257//283 256//282
f 275//303 258//284 257//283
f 276//304 259//286 258//284
f 278//305 259//286 277//306
f 278//307 261//289 260//287
f 280//308 261//289 279//309
f 281//310 262//288 280//308
f 282//311 263//290 281//310
f 283//312 264//291 282//311
f 284//313 265//292 283//312
f 285//314 266//293 284//313
f 286//315 267//294 285//314
f 269//316 268//295 286//315
f 287//317 270//298 269//297
f 288//318 271//299 270//298
f 289//319 272//300 271//299
f 290//320 273//301 272//300
f 291//321 274//302 273//301
f 292//322 275//303 274//302
f 293//323 276//304 275//303
f 294//324 277//306 276//304
f 296//325 277//306 295//326
f 296//327 279//309 278//307
f 298//328 279//309 297//329
f 299//330 280//308 298//328
f 300//331 281//310 299//330
f 301//332 282//311 300//331
f 302//333 283//312 301//332
f 303//334 284//313 302//333
f 304//335 285//314 303//334
f 287//336 286//315 304//335
f 305//337 288//318 287//317
f 306//338 289//319 288//318
f 307//339 290//320 289//319
f 308//340 291//321 290//320
f 309//341 292//322 291//321
f 310//342 293//323 292//322
f 311//343 294//324 293//323
f 312//344 295//326 294//324
f 314//345 295//326 313//346
f 315//347 296//327 314//348
f 316//349 297//329 315//347
f 317//350 298//328 316//349
f 318//351 299//330 317//350
f 319//352 300//331 318//351
f 320//353 301//332 319//352
f 321//354 302//333 320//353
f 322//355 303//334 321//354
f 305//356 304//356 322//356
f 1//357 2//357 323//357
f 2//357 3//357 323//357
f 3//357 4//357 323//357
f 4//357 5//357 323//357
f 5//357 6//357 323//357
f 6//357 7//357 323//357
f 7//357 8//357 323//357
f 8//357 9//357 323//357
f 9//357 10//357 323//357
f 10//358 11//358 323//359
f 11//358 12//358 323//359
f 12//358 325//360 323//359
f 22//12 23//14 7//13
f 325//357 14//361 323//357
f 14//361 326//362 323//357
f 21//10 22//12 6//11
f 16//357 326//362 15//357
f 16//357 1//357 323//357
f 306//358 305//358 324//358
f 307//358 306//358 324//358
f 308//358 307//358 324//358
f 309//363 308//358 324//358
f 310//363 309//363 324//358
f 311//358 310//363 324//358
f 312//358 311//358 324//358
f 313//364 312//358 324//358
f 313//364 315//364 314//358
f 20//8 21//10 5//9
f 316//365 315//364 324//358
f 317//366 316//365 324//358
f 318//366 317//366 324//358
f 319//366 318//366 324//358
f 320//366 319//366 324//358
f 321//358 320//366 324//358
f 322//358 321//358 324//358
f 305//358 322//358 324//358
f 19//6 20//8 4//7
f 18//4 19//6 3//5
f 17//1 18//4 2//2
f 23//14 24//17 8//15
f 25//16 9//19 8//15
f 26//18 10//367 9//19
f 26//20 27//23 11//21
f 27//23 28//26 12//24
f 29//25 13//28 12//24
f 30//27 325//30 13//28
f 31//29 14//32 325//30
f 32//31 326//34 14//32
f 33//33 15//36 326//34
f 34//35 16//38 15//36
f 17//37 1//368 16//38
f 36//39 18//4 17//1
f 37//41 19//6 18//4
f 38//42 20//8 19//6
f 39//43 21//10 20//8
f 40//44 22//12 21//10
f 41//45 23//14 22//12
f 42//46 24//17 23//14
f 42//46 43//47 25//16
f 43//47 44//66 26//18
f 45//48 27//23 26//20
f 46//50 28//26 27//23
f 46//50 47//51 29//25
f 47//51 48//52 30//27
f 48//52 49//53 31//29
f 49//53 50//54 32//31
f 50//54 51//55 33//33
f 51//55 52//56 34//35
f 52//56 35//76 17//37
f 54//57 36//39 35//40
f 55//59 37//41 36//39
f 56//60 38//42 37//41
f 57//61 39//43 38//42
f 58//62 40//44 39//43
f 59//63 41//45 40//44
f 60//64 42//46 41//45
f 60//64 61//65 43//47
f 61//65 62//86 44//66
f 63//67 45//48 44//49
f 64//69 46//50 45//48
f 64//69 65//70 47//51
f 65//70 66//71 48//52
f 66//71 67//72 49//53
f 67//72 68//73 50//54
f 68//73 69//74 51//55
f 69//74 70//75 52//56
f 70//75 53//96 35//76
f 72//77 54//57 53//58
f 73//79 55//59 54//57
f 74//80 56//60 55//59
f 75//81 57//61 56//60
f 76//82 58//62 57//61
f 77//83 59//63 58//62
f 78//84 60//64 59//63
f 78//84 79//85 61//65
f 79//85 80//106 62//86
f 81//87 63//67 62//68
f 82//89 64//69 63//67
f 82//89 83//90 65//70
f 83//90 84//91 66//71
f 84//91 85//92 67//72
f 85//92 86//93 68//73
f 86//93 87//94 69//74
f 87//94 88//95 70//75
f 88//95 71//116 53//96
f 90//97 72//77 71//78
f 91//99 73//79 72//77
f 92//100 74//80 73//79
f 93//101 75//81 74//80
f 94//102 76//82 75//81
f 95//103 77//83 76//82
f 96//104 78//84 77//83
f 97//105 79//85 78//84
f 97//105 98//369 80//106
f 99//107 81//87 80//88
f 99//107 100//109 82//89
f 100//109 101//110 83//90
f 101//110 102//111 84//91
f 102//111 103//112 85//92
f 103//112 104//113 86//93
f 104//113 105//114 87//94
f 105//114 106//115 88//95
f 106//115 89//136 71//116
f 108//117 90//97 89//98
f 109//119 91//99 90//97
f 110//120 92//100 91//99
f 111//121 93//101 92//100
f 112//122 94//102 93//101
f 113//123 95//103 94//102
f 114//124 96//104 95//103
f 115//125 97//105 96//104
f 116//126 98//369 97//105
f 116//127 117//128 99//107
f 117//128 118//129 100//109
f 118//129 119//130 101//110
f 119//130 120//131 102//111
f 120//131 121//132 103//112
f 121//132 122//133 104//113
f 122//133 123//134 105//114
f 123//134 124//135 106//115
f 124//135 107//156 89//136
f 126//137 108//117 107//118
f 127//139 109//119 108//117
f 128//140 110//120 109//119
f 129//141 111//121 110//120
f 130//142 112//122 111//121
f 131//143 113//123 112//122
f 132//144 114//124 113//123
f 133//145 115//125 114//124
f 134//146 116//126 115//125
f 134//147 135//148 117//128
f 135//148 136//149 118//129
f 136//149 137//150 119//130
f 137//150 138//151 120//131
f 138//151 139//152 121//132
f 139//152 140//153 122//133
f 140//153 141//154 123//134
f 141//154 142//155 124//135
f 142//155 125//370 107//156
f 143//157 144//158 126//137
f 144//158 145//159 127//139
f 145//159 146//160 128//140
f 146//160 147//161 129//141
f 147//161 148//162 130//142
f 148//162 149//163 131//143
f 149//163 150//165 132//144
f 151//164 133//145 132//144
f 152//166 134//146 133//145
f 152//167 153//168 135//148
f 153//168 154//170 136//149
f 155//169 137//150 136//149
f 156//171 138//151 137//150
f 157//172 139//152 138//151
f 158//173 140//153 139//152
f 159//174 141//154 140//153
f 160//175 142//155 141//154
f 143//176 125//370 142//155
f 161//177 162//178 144//158
f 162//178 163//179 145//159
f 163//179 164//180 146//160
f 164//180 165//181 147//161
f 165//181 166//182 148//162
f 166//182 167//183 149//163
f 167//183 168//185 150//165
f 169//184 151//164 150//165
f 170//186 152//166 151//164
f 170//187 171//189 153//168
f 172//188 154//170 153//168
f 173//190 155//169 154//170
f 174//191 156//171 155//169
f 175//192 157//172 156//171
f 176//193 158//173 157//172
f 177//194 159//174 158//173
f 178//195 160//175 159//174
f 161//196 143//176 160//175
f 179//197 180//198 162//178
f 180//198 181//199 163//179
f 181//199 182//200 164//180
f 182//200 183//201 165//181
f 183//201 184//202 166//182
f 184//202 185//203 167//183
f 185//203 186//205 168//185
f 187//204 169//184 168//185
f 188//206 170//186 169//184
f 188//207 189//209 171//189
f 190//208 172//188 171//189
f 191//210 173//190 172//188
f 192//211 174//191 173//190
f 193//212 175//192 174//191
f 194//213 176//193 175//192
f 195//214 177//194 176//193
f 196//215 178//195 177//194
f 179//216 161//196 178//195
f 197//217 198//218 180//198
f 198//218 199//219 181//199
f 199//219 200//220 182//200
f 200//220 201//221 183//201
f 201//221 202//222 184//202
f 202//222 203//223 185//203
f 203//223 204//224 186//205
f 204//224 205//226 187//204
f 206//225 188//206 187//204
f 206//227 207//229 189//209
f 208//228 190//208 189//209
f 209//230 191//210 190//208
f 210//231 192//211 191//210
f 211//232 193//212 192//211
f 212//233 194//213 193//212
f 213//234 195//214 194//213
f 214//235 196//215 195//214
f 197//236 179//216 196//215
f 215//237 216//238 198//218
f 216//238 217//239 199//219
f 217//239 218//240 200//220
f 218//240 219//241 201//221
f 219//241 220//242 202//222
f 220//242 221//243 203//223
f 221//243 222//244 204//224
f 222//244 223//246 205//226
f 224//245 206//225 205//226
f 224//247 225//249 207//229
f 226//248 208//228 207//229
f 227//250 209//230 208//228
f 228//251 210//231 209//230
f 229//252 211//232 210//231
f 230//253 212//233 211//232
f 231//254 213//234 212//233
f 232//255 214//235 213//234
f 215//256 197//236 214//235
f 233//257 234//258 216//238
f 234//258 235//259 217//239
f 235//259 236//260 218//240
f 236//260 237//261 219//241
f 237//261 238//262 220//242
f 238//262 239//263 221//243
f 239//263 240//264 222//244
f 240//264 241//266 223//246
f 242//265 224//245 223//246
f 242//267 243//269 225//249
f 244//268 226//248 225//249
f 245//270 227//250 226//248
f 246//271 228//251 227//250
f 247//272 229//252 228//251
f 248//273 230//253 229//252
f 249//274 231//254 230//253
f 250//275 232//255 231//254
f 233//276 215//256 232//255
f 251//277 252//278 234//258
f 252//278 253//279 235//259
f 253//279 254//280 236//260
f 254//280 255//281 237//261
f 255//281 256//282 238//262
f 256//282 257//283 239//263
f 257//283 258//284 240//264
f 258//284 259//286 241//266
f 260//285 242//265 241//266
f 260//287 261//289 243//269
f 262//288 244//268 243//269
f 263//290 245//270 244//268
f 264//291 246//271 245//270
f 265//292 247//272 246//271
f 266//293 248//273 247//272
f 267//294 249//274 248//273
f 268//295 250//275 249//274
f 251//296 233//276 250//275
f 269//297 270//298 252//278
f 270//298 271//299 253//279
f 271//299 272//300 254//280
f 272//300 273//301 255//281
f 273//301 274//302 256//282
f 274//302 275//303 257//283
f 275//303 276//304 258//284
f 276//304 277//306 259//286
f 278//305 260//285 259//286
f 278//307 279//309 261//289
f 280//308 262//288 261//289
f 281//310 263//290 262//288
f 282//311 264//291 263//290
f 283//312 265//292 264//291
f 284//313 266//293 265//292
f 285//314 267//294 266//293
f 286//315 268//295 267//294
f 269//316 251//296 268//295
f 287//317 288//318 270//298
f 288//318 289//319 271//299
f 289//319 290//320 272//300
f 290//320 291//321 273//301
f 291//321 292//322 274//302
f 292//322 293//323 275//303
f 293//323 294//324 276//304
f 294//324 295//326 277//306
f 296//325 278//305 277//306
f 296//327 297//329 279//309
f 298//328 280//308 279//309
f 299//330 281//310 280//308
f 300//331 282//311 281//310
f 301//332 283//312 282//311
f 302//333 284//313 283//312
f 303//334 285//314 284//313
f 304//335 286//315 285//314
f 287//336 269//316 286//315
f 305//337 306//371 288//318
f 306//338 307//339 289//319
f 307//339 308//340 290//320
f 308//340 309//341 291//321
f 309//341 310//342 292//322
f 310//342 311//343 293//323
f 311//343 312//344 294//324
f 312//344 313//346 295//326
f 314//345 296//325 295//326
f 315//347 297//329 296//327
f 316//349 298//328 297//329
f 317//350 299//330 298//328
f 318//351 300//331 299//330
f 319//352 301//332 300//331
f 320//353 302//333 301//332
f 321//354 303//334 302//333
f 322//355 304//335 303//334
f 305//372 287//336 304//335
f 12//358 13//358 325//360
f 16//357 323//357 326//362
f 313//364 324//358 315//364
