# Blender 5.1.1
# www.blender.org
mtllib body_glass.mtl
o body_glass
v 0.140256 -0.031406 0.028128
v 0.140451 -0.032779 0.027965
v 0.140883 -0.034056 0.027602
v 0.141529 -0.035168 0.027060
v 0.142353 -0.036057 0.026369
v 0.143312 -0.036674 0.025564
v 0.144355 -0.036986 0.024689
v 0.140321 -0.029996 0.028082
v 0.145363 -0.025014 0.023843
v 0.144370 -0.025011 0.024676
v 0.143400 -0.025286 0.025490
v 0.142497 -0.025826 0.026248
v 0.141704 -0.026606 0.026913
v 0.141057 -0.027589 0.027456
v 0.140586 -0.028730 0.027852
v 0.149462 -0.030594 0.020404
v 0.149267 -0.029221 0.020567
v 0.148835 -0.027944 0.020930
v 0.148189 -0.026832 0.021472
v 0.147364 -0.025943 0.022164
v 0.146406 -0.025326 0.022968
v 0.149418 -0.032053 0.019846
v 0.145104 -0.024618 0.023466
v 0.146215 -0.024951 0.022534
v 0.147237 -0.025609 0.021676
v 0.148116 -0.026556 0.020938
v 0.148805 -0.027743 0.020361
v 0.149265 -0.029104 0.019974
v 0.149473 -0.030567 0.019800
v 0.142849 -0.037016 0.025358
v 0.141797 -0.036307 0.026240
v 0.140907 -0.035290 0.026988
v 0.140228 -0.034024 0.027558
v 0.139800 -0.032584 0.027917
v 0.139648 -0.031052 0.028044
v 0.139781 -0.029517 0.027932
v 0.140191 -0.028067 0.027588
v 0.140854 -0.026788 0.027032
v 0.141732 -0.025752 0.026295
v 0.142775 -0.025021 0.025420
v 0.143921 -0.024635 0.024459
v 0.144017 -0.037380 0.024378
v 0.149131 -0.033389 0.020087
v 0.148632 -0.034614 0.020506
v 0.147942 -0.035669 0.021085
v 0.147095 -0.036507 0.021795
v 0.146130 -0.037087 0.022605
v 0.145091 -0.037384 0.023477
v 0.149405 -0.032003 0.020459
v 0.145347 -0.036989 0.023856
v 0.146318 -0.036713 0.023042
v 0.147221 -0.036174 0.022284
v 0.148014 -0.035394 0.021619
v 0.148661 -0.034411 0.021076
v 0.149132 -0.033270 0.020680
v 0.148862 -0.031820 0.021366
v 0.148903 -0.030616 0.021332
v 0.148721 -0.029435 0.021484
v 0.148329 -0.028344 0.021813
v 0.147748 -0.027408 0.022301
v 0.147012 -0.026680 0.022919
v 0.146164 -0.026204 0.023630
v 0.145253 -0.026006 0.024394
v 0.144333 -0.026099 0.025166
v 0.143456 -0.026476 0.025902
v 0.142674 -0.027116 0.026558
v 0.142032 -0.027982 0.027097
v 0.141568 -0.029024 0.027487
v 0.141308 -0.030180 0.027705
v 0.140656 -0.028598 0.027812
v 0.141217 -0.027354 0.027341
v 0.141990 -0.026321 0.026692
v 0.142930 -0.025559 0.025904
v 0.143982 -0.025112 0.025021
v 0.145085 -0.025006 0.024095
v 0.146175 -0.025247 0.023180
v 0.147190 -0.025821 0.022329
v 0.148071 -0.026695 0.021590
v 0.148766 -0.027818 0.021007
v 0.149235 -0.029126 0.020613
v 0.149452 -0.030542 0.020431
v 0.149081 -0.033402 0.020742
v 0.148519 -0.034646 0.021214
v 0.147746 -0.035679 0.021862
v 0.146807 -0.036441 0.022651
v 0.145755 -0.036888 0.023533
v 0.144652 -0.036994 0.024459
v 0.143561 -0.036753 0.025374
v 0.142546 -0.036179 0.026226
v 0.141666 -0.035305 0.026964
v 0.140971 -0.034182 0.027548
v 0.140501 -0.032874 0.027941
v 0.140285 -0.031458 0.028123
v 0.141267 -0.031384 0.027739
v 0.141448 -0.032566 0.027587
v 0.141841 -0.033656 0.027257
v 0.142422 -0.034592 0.026770
v 0.143158 -0.035320 0.026152
v 0.144006 -0.035796 0.025440
v 0.144917 -0.035994 0.024676
v 0.145837 -0.035901 0.023904
v 0.146714 -0.035524 0.023169
v 0.147496 -0.034884 0.022512
v 0.148137 -0.034018 0.021974
v 0.148602 -0.032976 0.021584
v 0.138868 -0.028884 0.026759
v 0.140250 -0.026162 0.025590
v 0.142815 -0.024490 0.023437
v 0.140758 -0.036366 0.025175
v 0.138718 -0.032936 0.026867
v 0.142924 -0.037204 0.025225
v 0.139476 -0.030712 0.028114
v 0.140586 -0.034943 0.027187
v 0.141492 -0.025690 0.026426
v 0.148356 -0.033178 0.018799
v 0.146871 -0.035942 0.020033
v 0.143834 -0.037640 0.022581
v 0.146078 -0.025241 0.020707
v 0.148456 -0.029003 0.018695
v 0.144638 -0.024532 0.023785
v 0.145864 -0.037236 0.022757
v 0.147927 -0.035719 0.021026
v 0.149203 -0.033159 0.019954
v 0.149457 -0.030209 0.019742
v 0.148605 -0.027304 0.020457
v 0.146862 -0.025278 0.021920
v 0.146109 -0.031000 0.025756
v 0.144263 -0.032555 0.026873
v 0.142262 -0.034384 0.026817
v 0.142963 -0.035155 0.026229
v 0.143785 -0.035683 0.025539
v 0.144680 -0.035940 0.024788
v 0.145596 -0.035909 0.024019
v 0.146480 -0.035594 0.023278
v 0.147281 -0.035011 0.022606
v 0.147951 -0.034195 0.022044
v 0.148452 -0.033193 0.021623
v 0.148755 -0.032064 0.021369
v 0.148842 -0.030873 0.021296
v 0.148709 -0.029690 0.021408
v 0.148362 -0.028583 0.021699
v 0.147822 -0.027616 0.022151
v 0.147530 -0.029445 0.024133
v 0.147030 -0.033248 0.024478
v 0.147121 -0.026845 0.022740
v 0.146299 -0.026317 0.023430
v 0.145404 -0.026060 0.024181
v 0.144488 -0.026091 0.024950
v 0.143604 -0.026406 0.025691
v 0.142804 -0.026989 0.026363
v 0.142133 -0.027805 0.026925
v 0.141632 -0.028807 0.027346
v 0.141329 -0.029936 0.027600
v 0.141242 -0.031127 0.027673
v 0.141375 -0.032310 0.027561
v 0.141722 -0.033418 0.027270
v 0.144690 -0.028753 0.026442
v 0.148862 0.030180 0.021366
v 0.148903 0.031384 0.021332
v 0.148721 0.032565 0.021484
v 0.148329 0.033656 0.021813
v 0.147748 0.034592 0.022301
v 0.147012 0.035320 0.022919
v 0.146164 0.035796 0.023630
v 0.145253 0.035994 0.024394
v 0.144333 0.035901 0.025166
v 0.143456 0.035524 0.025902
v 0.142674 0.034883 0.026558
v 0.142032 0.034017 0.027097
v 0.141568 0.032976 0.027487
v 0.141308 0.031820 0.027705
v 0.149395 0.029993 0.020449
v 0.140321 0.032003 0.028077
v 0.140656 0.033402 0.027812
v 0.141217 0.034646 0.027341
v 0.141990 0.035679 0.026692
v 0.142930 0.036441 0.025904
v 0.143982 0.036888 0.025021
v 0.145085 0.036994 0.024095
v 0.146175 0.036753 0.023180
v 0.147190 0.036179 0.022329
v 0.148071 0.035305 0.021590
v 0.148766 0.034182 0.021007
v 0.149235 0.032874 0.020613
v 0.149452 0.031458 0.020431
v 0.149081 0.028598 0.020742
v 0.148519 0.027354 0.021214
v 0.147746 0.026321 0.021862
v 0.146807 0.025559 0.022651
v 0.145755 0.025112 0.023533
v 0.144652 0.025006 0.024459
v 0.143561 0.025247 0.025374
v 0.142546 0.025821 0.026226
v 0.141666 0.026695 0.026964
v 0.140971 0.027818 0.027548
v 0.140501 0.029126 0.027941
v 0.140285 0.030542 0.028123
v 0.141267 0.030616 0.027739
v 0.141448 0.029434 0.027587
v 0.141841 0.028344 0.027257
v 0.142422 0.027408 0.026770
v 0.143158 0.026680 0.026152
v 0.144006 0.026204 0.025440
v 0.144917 0.026006 0.024676
v 0.145837 0.026099 0.023904
v 0.146714 0.026476 0.023169
v 0.147496 0.027116 0.022512
v 0.148137 0.027982 0.021974
v 0.148602 0.029024 0.021584
v 0.138869 0.033119 0.026758
v 0.140671 0.036372 0.025236
v 0.143432 0.037517 0.022919
v 0.140767 0.025626 0.025168
v 0.138717 0.029068 0.026868
v 0.143008 0.024883 0.025256
v 0.139642 0.032060 0.027987
v 0.141492 0.036310 0.026426
v 0.148354 0.028814 0.018801
v 0.146873 0.026059 0.020032
v 0.143834 0.024359 0.022581
v 0.146071 0.036764 0.020713
v 0.148458 0.032991 0.018694
v 0.145092 0.037432 0.023413
v 0.147919 0.026265 0.021056
v 0.139804 0.029395 0.027911
v 0.145356 0.036986 0.023834
v 0.144370 0.036989 0.024676
v 0.143400 0.036713 0.025490
v 0.142497 0.036174 0.026248
v 0.141704 0.035394 0.026913
v 0.141057 0.034411 0.027456
v 0.140586 0.033270 0.027852
v 0.149418 0.029947 0.019846
v 0.145104 0.037382 0.023466
v 0.139781 0.032483 0.027932
v 0.140191 0.033932 0.027588
v 0.140854 0.035212 0.027032
v 0.141732 0.036247 0.026295
v 0.142775 0.036979 0.025420
v 0.143921 0.037365 0.024459
v 0.144014 0.024620 0.024381
v 0.149474 0.031412 0.019799
v 0.149265 0.032881 0.019971
v 0.148806 0.034245 0.020356
v 0.148118 0.035434 0.020933
v 0.147239 0.036383 0.021669
v 0.146214 0.037042 0.022528
v 0.144347 0.025014 0.024680
v 0.145333 0.025011 0.023838
v 0.146347 0.025134 0.023133
v 0.147206 0.025826 0.022267
v 0.147999 0.026606 0.021601
v 0.148646 0.027589 0.021058
v 0.149312 0.028771 0.020648
v 0.139648 0.030921 0.028044
v 0.140235 0.027961 0.027549
v 0.140915 0.026700 0.026978
v 0.141803 0.025691 0.026230
v 0.146109 0.031000 0.025756
v 0.144263 0.029445 0.026873
v 0.142262 0.027616 0.026817
v 0.142963 0.026845 0.026229
v 0.143785 0.026317 0.025539
v 0.144680 0.026060 0.024788
v 0.145596 0.026091 0.024019
v 0.146480 0.026406 0.023278
v 0.147281 0.026989 0.022606
v 0.147951 0.027805 0.022044
v 0.148452 0.028807 0.021623
v 0.148755 0.029936 0.021369
v 0.148842 0.031127 0.021296
v 0.148709 0.032310 0.021408
v 0.148362 0.033418 0.021699
v 0.147822 0.034384 0.022151
v 0.147530 0.032555 0.024133
v 0.147030 0.028752 0.024478
v 0.147121 0.035155 0.022740
v 0.146299 0.035683 0.023430
v 0.145404 0.035940 0.024181
v 0.144488 0.035909 0.024950
v 0.143604 0.035594 0.025691
v 0.142804 0.035011 0.026363
v 0.142133 0.034195 0.026925
v 0.141632 0.033193 0.027346
v 0.141329 0.032064 0.027600
v 0.141242 0.030873 0.027673
v 0.141375 0.029690 0.027561
v 0.141722 0.028583 0.027270
v 0.144690 0.033247 0.026442
v -0.087603 0.027616 -0.054717
v -0.087071 0.028583 -0.055178
v -0.086725 0.029690 -0.055469
v -0.086591 0.030873 -0.055581
v -0.086678 0.032064 -0.055508
v -0.086981 0.033193 -0.055254
v -0.087482 0.034195 -0.054833
v -0.088153 0.035011 -0.054271
v -0.088953 0.035594 -0.053599
v -0.089837 0.035909 -0.052858
v -0.090753 0.035940 -0.052089
v -0.091648 0.035683 -0.051338
v -0.092470 0.035155 -0.050648
v -0.093164 0.034384 -0.050051
v -0.091450 0.031000 -0.053655
v -0.092847 0.032595 -0.052049
v -0.090037 0.033250 -0.054350
v -0.084202 0.033110 -0.054650
v -0.085584 0.035838 -0.053480
v -0.088149 0.037510 -0.051327
v -0.084049 0.029079 -0.054761
v -0.086102 0.025625 -0.053057
v -0.088824 0.024780 -0.052644
v -0.086826 0.036309 -0.054317
v -0.093690 0.028821 -0.046691
v -0.092207 0.026060 -0.047922
v -0.089167 0.024358 -0.050472
v -0.093793 0.032984 -0.046583
v -0.091409 0.036760 -0.048600
v -0.090522 0.037347 -0.051216
v -0.084982 0.030921 -0.055935
v -0.085139 0.029395 -0.055801
v -0.085569 0.027961 -0.055439
v -0.086249 0.026700 -0.054868
v -0.087138 0.025691 -0.054121
v -0.088639 0.025326 -0.053445
v -0.089681 0.025014 -0.052571
v -0.085652 0.032003 -0.055970
v -0.090690 0.036986 -0.051724
v -0.089704 0.036989 -0.052566
v -0.088734 0.036713 -0.053381
v -0.087831 0.036174 -0.054138
v -0.087038 0.035394 -0.054804
v -0.086391 0.034411 -0.055347
v -0.085920 0.033270 -0.055742
v -0.094808 0.031412 -0.047689
v -0.094600 0.032881 -0.047862
v -0.094140 0.034245 -0.048247
v -0.093452 0.035434 -0.048823
v -0.092573 0.036383 -0.049560
v -0.091732 0.036674 -0.050850
v -0.094752 0.029947 -0.047736
v -0.091549 0.037049 -0.050424
v -0.088183 0.024984 -0.053249
v -0.085115 0.032483 -0.055823
v -0.085525 0.033932 -0.055479
v -0.086188 0.035212 -0.054922
v -0.087067 0.036247 -0.054185
v -0.088109 0.036979 -0.053311
v -0.089255 0.037365 -0.052349
v -0.089348 0.024620 -0.052265
v -0.085990 0.033402 -0.055702
v -0.086551 0.034646 -0.055231
v -0.087324 0.035679 -0.054582
v -0.088264 0.036441 -0.053794
v -0.089316 0.036888 -0.052912
v -0.090419 0.036994 -0.051986
v -0.091509 0.036753 -0.051071
v -0.092524 0.036179 -0.050219
v -0.093405 0.035305 -0.049480
v -0.094100 0.034182 -0.048897
v -0.094569 0.032874 -0.048503
v -0.094786 0.031458 -0.048322
v -0.086634 0.031820 -0.055586
v -0.094189 0.030180 -0.049247
v -0.094237 0.031384 -0.049222
v -0.094055 0.032565 -0.049374
v -0.093663 0.033656 -0.049704
v -0.093082 0.034592 -0.050191
v -0.092346 0.035320 -0.050809
v -0.091498 0.035796 -0.051520
v -0.090587 0.035994 -0.052285
v -0.089667 0.035901 -0.053057
v -0.088790 0.035524 -0.053792
v -0.088008 0.034883 -0.054449
v -0.087366 0.034017 -0.054987
v -0.086902 0.032976 -0.055377
v -0.094727 0.029997 -0.048334
v -0.090667 0.025011 -0.051729
v -0.091637 0.025286 -0.050914
v -0.092540 0.025826 -0.050157
v -0.093333 0.026606 -0.049491
v -0.093980 0.027589 -0.048948
v -0.094644 0.028764 -0.048540
v -0.084976 0.032060 -0.055878
v -0.093253 0.026265 -0.048947
v -0.090916 0.024626 -0.050905
v -0.090438 0.037380 -0.051332
v -0.094400 0.028598 -0.048615
v -0.093838 0.027354 -0.049086
v -0.093065 0.026321 -0.049735
v -0.092126 0.025559 -0.050523
v -0.091074 0.025112 -0.051406
v -0.089971 0.025006 -0.052331
v -0.088880 0.025247 -0.053247
v -0.087865 0.025821 -0.054098
v -0.086985 0.026695 -0.054837
v -0.086290 0.027818 -0.055420
v -0.085820 0.029126 -0.055814
v -0.085604 0.030542 -0.055996
v -0.086586 0.030616 -0.055611
v -0.086768 0.029435 -0.055459
v -0.087160 0.028344 -0.055130
v -0.087741 0.027408 -0.054642
v -0.088477 0.026680 -0.054024
v -0.089325 0.026204 -0.053313
v -0.090236 0.026006 -0.052549
v -0.091156 0.026099 -0.051777
v -0.092033 0.026476 -0.051041
v -0.092815 0.027116 -0.050385
v -0.093457 0.027982 -0.049846
v -0.093921 0.029024 -0.049456
v -0.089586 0.029484 -0.054794
v -0.088297 0.026845 -0.054119
v -0.089119 0.026317 -0.053429
v -0.090014 0.026060 -0.052678
v -0.090931 0.026091 -0.051910
v -0.091815 0.026406 -0.051168
v -0.092615 0.026989 -0.050496
v -0.093285 0.027805 -0.049934
v -0.093786 0.028807 -0.049513
v -0.094089 0.029936 -0.049259
v -0.094177 0.031127 -0.049186
v -0.094043 0.032310 -0.049298
v -0.093696 0.033418 -0.049589
v -0.092364 0.028755 -0.052370
v -0.094196 -0.031820 -0.049256
v -0.094237 -0.030616 -0.049222
v -0.094055 -0.029435 -0.049374
v -0.093663 -0.028344 -0.049704
v -0.093082 -0.027408 -0.050191
v -0.092346 -0.026680 -0.050809
v -0.091498 -0.026204 -0.051520
v -0.090587 -0.026006 -0.052285
v -0.089667 -0.026099 -0.053057
v -0.088790 -0.026476 -0.053792
v -0.088008 -0.027116 -0.054449
v -0.087366 -0.027982 -0.054987
v -0.086902 -0.029024 -0.055377
v -0.086642 -0.030180 -0.055595
v -0.085990 -0.028598 -0.055702
v -0.086551 -0.027354 -0.055231
v -0.087324 -0.026321 -0.054582
v -0.088264 -0.025559 -0.053794
v -0.089316 -0.025112 -0.052912
v -0.090419 -0.025006 -0.051986
v -0.091509 -0.025247 -0.051071
v -0.092524 -0.025821 -0.050219
v -0.093405 -0.026695 -0.049480
v -0.094100 -0.027818 -0.048897
v -0.094569 -0.029126 -0.048503
v -0.094786 -0.030542 -0.048322
v -0.094415 -0.033402 -0.048633
v -0.093853 -0.034646 -0.049104
v -0.093080 -0.035679 -0.049753
v -0.092141 -0.036441 -0.050541
v -0.091089 -0.036888 -0.051424
v -0.089986 -0.036994 -0.052349
v -0.088895 -0.036753 -0.053264
v -0.087880 -0.036179 -0.054116
v -0.087000 -0.035305 -0.054855
v -0.086305 -0.034182 -0.055438
v -0.085835 -0.032874 -0.055832
v -0.085619 -0.031458 -0.056013
v -0.094732 -0.032005 -0.048343
v -0.086601 -0.031384 -0.055629
v -0.086783 -0.032566 -0.055477
v -0.087175 -0.033656 -0.055147
v -0.087756 -0.034592 -0.054660
v -0.088492 -0.035320 -0.054042
v -0.089340 -0.035796 -0.053331
v -0.090251 -0.035994 -0.052567
v -0.091171 -0.035901 -0.051794
v -0.092048 -0.035524 -0.051059
v -0.092830 -0.034884 -0.050403
v -0.093472 -0.034018 -0.049864
v -0.093936 -0.032976 -0.049474
v -0.084202 -0.028890 -0.054650
v -0.085584 -0.026162 -0.053480
v -0.088149 -0.024490 -0.051327
v -0.084049 -0.032921 -0.054761
v -0.086102 -0.036375 -0.053057
v -0.088824 -0.037220 -0.052644
v -0.086826 -0.025691 -0.054317
v -0.093690 -0.033179 -0.046691
v -0.092207 -0.035940 -0.047922
v -0.089167 -0.037642 -0.050472
v -0.093793 -0.029016 -0.046583
v -0.091409 -0.025240 -0.048600
v -0.090522 -0.024653 -0.051216
v -0.084982 -0.031079 -0.055935
v -0.085139 -0.032605 -0.055801
v -0.085569 -0.034039 -0.055439
v -0.086249 -0.035300 -0.054868
v -0.087138 -0.036309 -0.054121
v -0.088639 -0.036674 -0.053445
v -0.089681 -0.036986 -0.052571
v -0.085653 -0.029997 -0.055971
v -0.089173 -0.025108 -0.052993
v -0.087831 -0.025826 -0.054138
v -0.087038 -0.026606 -0.054804
v -0.086391 -0.027589 -0.055347
v -0.085920 -0.028730 -0.055742
v -0.094789 -0.030594 -0.048285
v -0.094600 -0.029119 -0.047862
v -0.094140 -0.027755 -0.048247
v -0.093452 -0.026566 -0.048823
v -0.092573 -0.025617 -0.049560
v -0.091732 -0.025326 -0.050850
v -0.094752 -0.032053 -0.047736
v -0.091549 -0.024951 -0.050424
v -0.094807 -0.030567 -0.047690
v -0.088183 -0.037016 -0.053249
v -0.085115 -0.029517 -0.055823
v -0.085525 -0.028067 -0.055479
v -0.086188 -0.026788 -0.054922
v -0.087067 -0.025752 -0.054185
v -0.088109 -0.025021 -0.053311
v -0.089255 -0.024635 -0.052349
v -0.089348 -0.037380 -0.052265
v -0.090690 -0.025014 -0.051724
v -0.094729 -0.031992 -0.048320
v -0.090667 -0.036989 -0.051729
v -0.091637 -0.036713 -0.050914
v -0.092540 -0.036174 -0.050157
v -0.093491 -0.035473 -0.049509
v -0.093980 -0.034411 -0.048948
v -0.094451 -0.033270 -0.048553
v -0.084976 -0.029940 -0.055878
v -0.094750 -0.032483 -0.047696
v -0.090916 -0.037374 -0.050905
v -0.090438 -0.024620 -0.051332
v -0.090308 -0.031541 -0.054586
v -0.090050 -0.033191 -0.054342
v -0.087596 -0.034384 -0.054708
v -0.088297 -0.035155 -0.054119
v -0.089119 -0.035683 -0.053429
v -0.090014 -0.035940 -0.052678
v -0.090931 -0.035909 -0.051910
v -0.091815 -0.035594 -0.051168
v -0.092615 -0.035011 -0.050496
v -0.093285 -0.034195 -0.049934
v -0.093786 -0.033193 -0.049513
v -0.094089 -0.032064 -0.049259
v -0.094177 -0.030873 -0.049186
v -0.094043 -0.029690 -0.049298
v -0.093696 -0.028583 -0.049589
v -0.093156 -0.027616 -0.050042
v -0.092701 -0.029182 -0.052113
v -0.092830 -0.032681 -0.051977
v -0.092455 -0.026845 -0.050630
v -0.091633 -0.026317 -0.051320
v -0.090738 -0.026060 -0.052071
v -0.089822 -0.026091 -0.052840
v -0.088938 -0.026406 -0.053581
v -0.088138 -0.026989 -0.054253
v -0.087467 -0.027805 -0.054816
v -0.086966 -0.028807 -0.055236
v -0.086663 -0.029936 -0.055490
v -0.086576 -0.031127 -0.055563
v -0.086710 -0.032310 -0.055451
v -0.087056 -0.033418 -0.055160
v -0.090024 -0.028753 -0.054332
v -0.052513 -0.045624 -0.046898
v -0.052688 -0.045588 -0.045737
v -0.053157 -0.045549 -0.044660
v -0.053890 -0.045510 -0.043743
v -0.054834 -0.045473 -0.043046
v -0.055928 -0.045440 -0.042617
v -0.057095 -0.045414 -0.042486
v -0.058256 -0.045397 -0.042661
v -0.059333 -0.045390 -0.043131
v -0.060251 -0.045392 -0.043864
v -0.060949 -0.045405 -0.044809
v -0.061378 -0.045427 -0.045902
v -0.061510 -0.045457 -0.047069
v -0.061335 -0.045492 -0.048230
v -0.060865 -0.045531 -0.049306
v -0.060133 -0.045570 -0.050224
v -0.059188 -0.045607 -0.050921
v -0.058095 -0.045640 -0.051350
v -0.056928 -0.045666 -0.051481
v -0.055767 -0.045683 -0.051305
v -0.054690 -0.045691 -0.050835
v -0.053772 -0.045688 -0.050103
v -0.053074 -0.045675 -0.049158
v -0.052645 -0.045653 -0.048065
v -0.052524 -0.046223 -0.046881
v -0.052699 -0.046188 -0.045720
v -0.053169 -0.046149 -0.044644
v -0.053901 -0.046110 -0.043726
v -0.054846 -0.046073 -0.043029
v -0.055939 -0.046040 -0.042600
v -0.057106 -0.046014 -0.042469
v -0.058268 -0.045997 -0.042645
v -0.059344 -0.045989 -0.043115
v -0.060263 -0.045992 -0.043847
v -0.060960 -0.046005 -0.044792
v -0.061390 -0.046027 -0.045886
v -0.061521 -0.046056 -0.047053
v -0.061346 -0.046092 -0.048214
v -0.060877 -0.046130 -0.049290
v -0.060145 -0.046170 -0.050208
v -0.059200 -0.046207 -0.050905
v -0.058107 -0.046240 -0.051333
v -0.056939 -0.046265 -0.051464
v -0.055778 -0.046283 -0.051289
v -0.054701 -0.046290 -0.050819
v -0.053783 -0.046288 -0.050086
v -0.053085 -0.046275 -0.049141
v -0.052656 -0.046253 -0.048048
v -0.057011 -0.045540 -0.046983
v -0.057023 -0.046140 -0.046967
v 0.036500 -0.045850 -0.046985
v 0.036347 -0.045820 -0.045821
v 0.035897 -0.045792 -0.044736
v 0.035182 -0.045769 -0.043804
v 0.034250 -0.045750 -0.043089
v 0.033165 -0.045739 -0.042639
v 0.032000 -0.045735 -0.042486
v 0.030836 -0.045739 -0.042639
v 0.029750 -0.045751 -0.043089
v 0.028818 -0.045769 -0.043803
v 0.028103 -0.045793 -0.044735
v 0.027653 -0.045821 -0.045820
v 0.027500 -0.045851 -0.046984
v 0.027653 -0.045881 -0.048148
v 0.028103 -0.045909 -0.049233
v 0.028818 -0.045932 -0.050165
v 0.029750 -0.045951 -0.050880
v 0.030835 -0.045962 -0.051330
v 0.032000 -0.045966 -0.051483
v 0.033164 -0.045962 -0.051330
v 0.034250 -0.045950 -0.050881
v 0.035182 -0.045932 -0.050166
v 0.035897 -0.045908 -0.049234
v 0.036347 -0.045880 -0.048149
v 0.036500 -0.046450 -0.046970
v 0.036347 -0.046420 -0.045805
v 0.035897 -0.046392 -0.044720
v 0.035182 -0.046368 -0.043789
v 0.034250 -0.046350 -0.043074
v 0.033165 -0.046339 -0.042624
v 0.032001 -0.046335 -0.042471
v 0.030836 -0.046339 -0.042624
v 0.029750 -0.046351 -0.043073
v 0.028818 -0.046369 -0.043788
v 0.028103 -0.046393 -0.044720
v 0.027654 -0.046421 -0.045804
v 0.027500 -0.046451 -0.046969
v 0.027653 -0.046481 -0.048133
v 0.028103 -0.046508 -0.049218
v 0.028818 -0.046532 -0.050150
v 0.029750 -0.046551 -0.050865
v 0.030835 -0.046562 -0.051314
v 0.032000 -0.046566 -0.051468
v 0.033164 -0.046562 -0.051315
v 0.034250 -0.046550 -0.050865
v 0.035182 -0.046532 -0.050150
v 0.035897 -0.046508 -0.049219
v 0.036347 -0.046480 -0.048134
v 0.032000 -0.045851 -0.046985
v 0.032000 -0.046450 -0.046969
v -0.052514 0.045623 -0.046889
v -0.052644 0.045655 -0.048056
v -0.053072 0.045678 -0.049150
v -0.053768 0.045691 -0.050096
v -0.054685 0.045693 -0.050830
v -0.055760 0.045685 -0.051302
v -0.056922 0.045666 -0.051479
v -0.058089 0.045638 -0.051351
v -0.059183 0.045603 -0.050924
v -0.060129 0.045562 -0.050229
v -0.060862 0.045520 -0.049312
v -0.061334 0.045479 -0.048237
v -0.061511 0.045441 -0.047076
v -0.061381 0.045410 -0.045909
v -0.060953 0.045386 -0.044815
v -0.060257 0.045373 -0.043869
v -0.059340 0.045371 -0.043135
v -0.058265 0.045379 -0.042663
v -0.057103 0.045398 -0.042485
v -0.055936 0.045426 -0.042614
v -0.054842 0.045462 -0.043041
v -0.053896 0.045502 -0.043736
v -0.053162 0.045544 -0.044653
v -0.052691 0.045585 -0.045728
v -0.052527 0.046223 -0.046871
v -0.052657 0.046254 -0.048038
v -0.053084 0.046277 -0.049132
v -0.053780 0.046291 -0.050079
v -0.054697 0.046293 -0.050813
v -0.055773 0.046284 -0.051284
v -0.056934 0.046266 -0.051462
v -0.058101 0.046237 -0.051333
v -0.059195 0.046202 -0.050906
v -0.060141 0.046162 -0.050211
v -0.060875 0.046120 -0.049294
v -0.061346 0.046078 -0.048219
v -0.061523 0.046041 -0.047058
v -0.061393 0.046009 -0.045891
v -0.060966 0.045986 -0.044797
v -0.060270 0.045973 -0.043851
v -0.059353 0.045970 -0.043117
v -0.058277 0.045979 -0.042645
v -0.057116 0.045998 -0.042468
v -0.055949 0.046026 -0.042597
v -0.054855 0.046061 -0.043023
v -0.053909 0.046101 -0.043719
v -0.053175 0.046144 -0.044635
v -0.052704 0.046185 -0.045710
v -0.057012 0.045532 -0.046982
v -0.057025 0.046132 -0.046965
v 0.036501 0.045847 -0.046989
v 0.036346 0.045878 -0.048153
v 0.035896 0.045906 -0.049237
v 0.035180 0.045931 -0.050168
v 0.034247 0.045951 -0.050882
v 0.033161 0.045964 -0.051331
v 0.031996 0.045969 -0.051483
v 0.030832 0.045966 -0.051328
v 0.029747 0.045955 -0.050878
v 0.028816 0.045937 -0.050162
v 0.028101 0.045914 -0.049230
v 0.027653 0.045886 -0.048144
v 0.027501 0.045855 -0.046980
v 0.027655 0.045825 -0.045816
v 0.028106 0.045796 -0.044731
v 0.028822 0.045771 -0.043800
v 0.029754 0.045751 -0.043086
v 0.030840 0.045738 -0.042638
v 0.032005 0.045733 -0.042486
v 0.033169 0.045736 -0.042640
v 0.034254 0.045747 -0.043091
v 0.035185 0.045765 -0.043806
v 0.035900 0.045789 -0.044739
v 0.036348 0.045817 -0.045824
v 0.036501 0.046447 -0.046973
v 0.036347 0.046477 -0.048137
v 0.035896 0.046506 -0.049221
v 0.035180 0.046531 -0.050152
v 0.034248 0.046551 -0.050866
v 0.033162 0.046564 -0.051315
v 0.031997 0.046569 -0.051467
v 0.030832 0.046566 -0.051313
v 0.029748 0.046555 -0.050862
v 0.028816 0.046537 -0.050146
v 0.028102 0.046513 -0.049214
v 0.027653 0.046485 -0.048129
v 0.027501 0.046455 -0.046964
v 0.027656 0.046424 -0.045800
v 0.028106 0.046395 -0.044716
v 0.028822 0.046370 -0.043785
v 0.029755 0.046351 -0.043071
v 0.030840 0.046338 -0.042622
v 0.032005 0.046333 -0.042470
v 0.033170 0.046336 -0.042624
v 0.034255 0.046347 -0.043075
v 0.035186 0.046365 -0.043791
v 0.035900 0.046388 -0.044723
v 0.036349 0.046416 -0.045808
v 0.032001 0.045851 -0.046984
v 0.032001 0.046451 -0.046969
vn 0.1150 -0.6362 0.7629
vn 0.2177 -0.7073 0.6725
vn 0.2342 -0.7116 0.6624
vn 0.0924 -0.6224 0.7772
vn 0.0111 -0.5279 0.8492
vn -0.0126 -0.5011 0.8653
vn -0.0717 -0.3912 0.9175
vn -0.0915 -0.3506 0.9321
vn -0.1288 -0.2329 0.9639
vn -0.1403 -0.1801 0.9736
vn -0.1563 -0.0600 0.9859
vn -0.1543 0.0016 0.9880
vn -0.1499 0.1145 0.9820
vn -0.1397 0.1773 0.9742
vn -0.1253 0.2794 0.9520
vn -0.0935 0.3472 0.9331
vn -0.0673 0.4309 0.8999
vn -0.0162 0.4952 0.8686
vn 0.0185 0.5596 0.8286
vn 0.0847 0.6163 0.7830
vn 0.1254 0.6581 0.7425
vn 0.2055 0.7038 0.6800
vn 0.2450 0.7219 0.6472
vn 0.3419 0.7508 0.5652
vn 0.3682 0.7513 0.5477
vn 0.4860 0.7503 0.4482
vn 0.4885 0.7482 0.4490
vn 0.9741 0.2224 0.0416
vn 0.9985 0.0503 0.0219
vn 0.9985 0.0508 0.0211
vn -0.7816 0.2035 -0.5897
vn -0.7598 0.4035 -0.5098
vn -0.6796 0.4198 -0.6016
vn 0.8163 0.1690 0.5523
vn 0.8411 0.0998 0.5316
vn 0.8412 0.0995 0.5314
vn -0.5397 -0.3057 -0.7844
vn -0.5407 -0.3055 -0.7838
vn -0.4866 -0.2753 -0.8291
vn 0.9898 -0.1376 0.0375
vn 0.9981 -0.0509 0.0338
vn 0.9987 -0.0384 0.0342
vn 0.6063 -0.7142 0.3496
vn 0.7196 -0.6461 0.2544
vn 0.7177 -0.6472 0.2571
vn 0.9200 0.3821 0.0869
vn 0.8018 0.1775 0.5707
vn 0.7573 0.3969 0.5186
vn 0.6798 0.4049 0.6115
vn -0.3647 -0.0231 -0.9309
vn -0.3646 0.0540 -0.9296
vn -0.3642 0.0548 -0.9297
vn 0.7122 -0.2892 0.6397
vn 0.7132 -0.2880 0.6391
vn 0.6574 -0.3121 0.6859
vn -0.4216 -0.8122 0.4032
vn -0.2689 -0.9465 0.1783
vn -0.6119 -0.6089 0.5048
vn -0.6562 -0.3130 -0.6866
vn -0.6573 -0.3122 -0.6859
vn -0.5987 -0.3181 -0.7351
vn 0.9987 0.0382 0.0349
vn -0.7291 -0.5550 0.4004
vn -0.9232 -0.2124 0.3204
vn -0.6466 -0.7005 0.3020
vn -0.4991 -0.7705 0.3966
vn -0.7164 -0.6816 0.1491
vn -0.4126 -0.9028 -0.1209
vn -0.1266 0.0488 0.9908
vn -0.7327 0.2752 -0.6225
vn -0.7320 0.2753 -0.6232
vn -0.7790 0.2290 -0.5838
vn -0.4151 0.1940 -0.8888
vn -0.4557 0.2472 -0.8551
vn -0.4563 0.2488 -0.8543
vn -0.5858 -0.7465 0.3156
vn -0.4173 -0.9012 -0.1171
vn -0.5977 -0.3185 -0.7358
vn -0.5055 0.2880 -0.8133
vn 0.6563 -0.3129 0.6866
vn 0.2210 -0.1133 0.9687
vn 0.2277 -0.2367 0.9445
vn 0.4227 -0.1775 0.8887
vn 0.3841 0.1250 0.9148
vn 0.4149 0.1920 0.8894
vn 0.4151 0.1940 0.8888
vn -0.4022 -0.1689 -0.8998
vn -0.4026 -0.1693 -0.8996
vn -0.3775 -0.0998 -0.9206
vn 0.4557 0.2472 0.8551
vn 0.4563 0.2488 0.8543
vn -0.5063 0.2893 -0.8124
vn -0.5613 0.3122 -0.7665
vn -0.5622 0.3130 -0.7655
vn 0.7362 0.6323 0.2411
vn 0.8393 0.5213 0.1545
vn -0.0549 -0.9981 -0.0265
vn 0.0204 -0.9195 -0.3926
vn -0.5976 -0.3186 -0.7358
vn 0.4693 -0.7475 0.4702
vn 0.3022 -0.7339 0.6083
vn 0.4156 -0.7071 0.5722
vn 0.5976 -0.3185 0.7358
vn 0.5407 -0.3055 0.7838
vn 0.5397 -0.3057 0.7844
vn 0.4768 -0.7558 0.4487
vn 0.3706 -0.7531 0.5436
vn 0.3443 -0.7519 0.5622
vn -0.6788 0.3057 -0.6677
vn 0.3773 -0.0995 0.9207
vn 0.3775 -0.0998 0.9206
vn 0.3659 -0.0245 0.9303
vn 0.4858 -0.2751 0.8296
vn 0.4397 -0.2290 0.8685
vn 0.4390 -0.2287 0.8689
vn 0.4025 -0.1693 0.8996
vn 0.4021 -0.1690 0.8999
vn 0.5063 0.2893 0.8124
vn 0.5055 0.2880 0.8133
vn 0.5613 0.3122 0.7665
vn 0.5987 -0.3181 0.7351
vn -0.8163 0.1690 -0.5523
vn -0.8411 0.0998 -0.5316
vn -0.8412 0.0995 -0.5315
vn -0.2582 -0.1157 -0.9591
vn -0.2726 -0.2066 -0.9397
vn -0.4746 -0.2983 -0.8281
vn 0.3846 0.1264 0.9144
vn -0.3662 -0.0289 -0.9301
vn -0.3662 -0.0290 -0.9301
vn -0.3700 0.0423 -0.9281
vn 0.9590 -0.2782 0.0540
vn 0.9919 -0.1231 0.0310
vn 0.9573 -0.2835 0.0565
vn 0.7621 -0.2488 0.5977
vn 0.3624 0.0556 0.9304
vn 0.3628 0.0549 0.9302
vn 0.3831 0.1243 0.9153
vn -0.7122 -0.2893 -0.6396
vn -0.6574 -0.3122 -0.6859
vn -0.6563 -0.3130 -0.6866
vn -0.3844 0.1258 -0.9145
vn -0.3837 0.1247 -0.9150
vn -0.4149 0.1920 -0.8894
vn -0.6199 0.3181 -0.7173
vn -0.6208 0.3186 -0.7163
vn 0.4842 -0.7491 0.4521
vn 0.3583 -0.7482 0.5583
vn 0.3547 -0.7492 0.5593
vn -0.7621 -0.2489 -0.5977
vn -0.7630 -0.2472 -0.5973
vn -0.7132 -0.2880 -0.6390
vn 0.4866 -0.2752 0.8291
vn -0.4858 -0.2751 -0.8296
vn -0.4397 -0.2290 -0.8685
vn -0.4390 -0.2287 -0.8689
vn -0.4230 -0.1767 -0.8887
vn -0.3814 -0.3994 -0.8337
vn -0.4841 -0.4054 -0.7755
vn 0.8527 0.0245 0.5219
vn 0.8546 0.0211 0.5189
vn -0.8531 -0.0643 -0.5178
vn -0.8532 -0.0645 -0.5176
vn -0.8343 -0.1277 -0.5363
vn 0.8532 0.0234 0.5210
vn 0.8515 -0.0534 0.5216
vn 0.8517 -0.0543 0.5213
vn 0.0932 -0.9947 0.0439
vn -0.2205 -0.1138 -0.9687
vn -0.2304 -0.2404 -0.9429
vn -0.5401 -0.3833 0.7492
vn -0.4693 -0.3047 0.8288
vn -0.8872 0.0452 0.4591
vn -0.4611 0.4578 0.7601
vn -0.4344 0.4387 0.7867
vn -0.4538 0.8000 0.3925
vn -0.5614 0.7030 0.4366
vn -0.0739 0.9816 0.1759
vn 0.0533 0.9982 -0.0264
vn 0.3853 0.8700 -0.3077
vn 0.4002 0.8867 -0.2316
vn 0.5636 0.6019 -0.5658
vn 0.7598 0.3130 -0.5698
vn 0.7787 0.0658 -0.6239
vn 0.7433 -0.3299 -0.5820
vn 0.7613 -0.3383 -0.5531
vn 0.8191 -0.5476 0.1707
vn 0.8978 -0.4274 0.1063
vn 0.8169 -0.5500 0.1740
vn 0.3650 -0.0234 0.9307
vn 0.3659 0.0533 0.9291
vn 0.3655 0.0543 0.9292
vn 0.4982 -0.7863 -0.3653
vn 0.7057 -0.6929 -0.1478
vn 0.3435 -0.9364 -0.0720
vn 0.8561 -0.0578 0.5136
vn 0.4247 -0.8308 -0.3598
vn 0.3119 -0.8559 -0.4126
vn 0.6199 -0.6436 -0.4488
vn -0.4022 -0.1690 -0.8998
vn -0.3773 -0.0995 -0.9207
vn 0.7794 0.2286 0.5833
vn 0.7789 0.2289 0.5838
vn 0.8160 0.1693 0.5527
vn 0.2849 -0.3393 0.8965
vn 0.3792 -0.3970 0.8359
vn 0.8906 0.2367 0.3883
vn 0.8334 0.3393 0.4363
vn 0.4842 -0.4049 0.7756
vn 0.5509 -0.4086 0.7277
vn 0.7470 -0.2576 0.6129
vn 0.6155 -0.4438 0.6513
vn 0.6428 -0.0000 0.7660
vn 0.6978 -0.4491 0.5580
vn 0.7824 -0.3977 0.4793
vn 0.8484 -0.2987 0.4371
vn 0.8818 -0.1802 0.4358
vn 0.8908 -0.0838 0.4466
vn 0.9071 -0.0025 0.4209
vn 0.9156 0.1132 0.3859
vn -0.4959 -0.0417 -0.8674
vn 0.6210 0.4086 0.6689
vn 0.4738 0.2576 0.8421
vn 0.5346 0.4437 0.7193
vn 0.4284 0.4490 0.7841
vn 0.3361 0.3977 0.8537
vn 0.2831 0.2987 0.9114
vn 0.2760 0.1802 0.9441
vn 0.2851 0.0839 0.9548
vn 0.2570 0.0026 0.9664
vn 0.1663 -0.9816 0.0936
vn -0.8347 -0.1233 -0.5367
vn -0.8357 -0.1236 -0.5351
vn -0.8038 -0.1920 -0.5630
vn 0.7327 0.2751 0.6225
vn 0.7320 0.2753 0.6232
vn 0.8032 -0.1940 0.5632
vn 0.7630 -0.2472 0.5973
vn -0.0721 -0.8163 -0.5731
vn -0.5407 -0.3056 -0.7838
vn -0.8529 0.0199 -0.5217
vn -0.7794 0.2287 -0.5832
vn 0.8564 -0.0581 0.5130
vn 0.5622 0.3130 0.7655
vn 0.6199 0.3181 0.7173
vn 0.3642 -0.0227 0.9311
vn 0.8351 -0.1222 0.5363
vn 0.8363 -0.1231 0.5343
vn 0.8038 -0.1920 0.5630
vn 0.3842 0.1250 0.9147
vn -0.8032 -0.1940 -0.5632
vn 0.6208 0.3186 0.7163
vn 0.6199 0.3181 0.7172
vn 0.6780 0.3056 0.6685
vn -0.8033 -0.1940 -0.5632
vn 0.7961 -0.3301 -0.5073
vn 0.8450 -0.3570 -0.3982
vn 0.6788 0.3057 0.6677
vn -0.4397 -0.2289 -0.8685
vn -0.4391 -0.2286 -0.8689
vn 0.6050 -0.7145 0.3515
vn -0.8160 0.1693 -0.5526
vn -0.3690 0.0444 -0.9284
vn -0.3850 0.1221 -0.9148
vn -0.3842 0.1252 -0.9147
vn -0.6780 0.3056 -0.6685
vn -0.4523 -0.8186 0.3540
vn -0.1972 -0.9626 0.1860
vn -0.3780 -0.8254 0.4193
vn -0.7047 -0.2973 0.6442
vn -0.6190 -0.6440 0.4495
vn -0.6357 -0.5215 0.5691
vn -0.6353 -0.2348 0.7357
vn -0.7768 -0.0097 0.6297
vn -0.7494 0.1800 0.6372
vn -0.6371 0.3760 0.6728
vn -0.6228 0.5679 0.5382
vn -0.6523 0.5862 0.4804
vn -0.0146 0.9905 0.1364
vn -0.1802 0.9565 0.2294
vn 0.0801 0.9962 -0.0348
vn -0.2240 0.9530 0.2040
vn 0.3909 0.8645 -0.3159
vn 0.2750 0.9469 -0.1667
vn 0.4960 0.8226 -0.2780
vn 0.5048 0.6594 -0.5571
vn 0.7421 0.3080 -0.5954
vn 0.6248 0.5549 -0.5493
vn 0.8203 0.2885 -0.4939
vn 0.7991 -0.0246 -0.6006
vn 0.5576 -0.7183 -0.4160
vn 0.4947 -0.7686 -0.4056
vn 0.3119 -0.8559 -0.4125
vn -0.8017 0.1783 -0.5705
vn -0.7599 0.3945 -0.5166
vn -0.6800 0.4047 -0.6115
vn -0.7621 -0.2488 -0.5977
vn -0.3279 0.7324 -0.5966
vn 0.1351 -0.1745 -0.9753
vn 0.1505 -0.1260 -0.9806
vn 0.1857 -0.0859 -0.9789
vn 0.1245 -0.2786 -0.9523
vn 0.0935 -0.3472 -0.9331
vn 0.0673 -0.4309 -0.8999
vn 0.0162 -0.4952 -0.8686
vn -0.0185 -0.5596 -0.8286
vn -0.0847 -0.6163 -0.7830
vn -0.1254 -0.6581 -0.7425
vn -0.2055 -0.7038 -0.6800
vn -0.2450 -0.7219 -0.6472
vn -0.3418 -0.7508 -0.5652
vn -0.3695 -0.7502 -0.5483
vn -0.4942 -0.7426 -0.4521
vn -0.4895 -0.7404 -0.4606
vn -0.8526 0.0245 -0.5219
vn -0.8542 0.0218 -0.5195
vn -0.7121 -0.2893 -0.6396
vn -0.7132 -0.2881 -0.6391
vn 0.6163 0.7096 0.3417
vn -0.8551 -0.0570 -0.5153
vn 0.9964 -0.0741 -0.0406
vn 0.8751 -0.4809 0.0537
vn 0.8236 -0.5273 0.2087
vn 0.7311 -0.6542 0.1936
vn 0.4836 -0.7489 0.4530
vn -0.8384 0.3331 -0.4314
vn -0.2907 -0.3454 -0.8923
vn 0.8337 -0.1263 0.5376
vn -0.6210 0.4086 -0.6689
vn -0.8540 0.0178 -0.5200
vn -0.4867 -0.2753 -0.8291
vn -0.4747 0.2571 -0.8418
vn -0.5346 0.4437 -0.7193
vn -0.6461 -0.0036 -0.7632
vn -0.4283 0.4492 -0.7841
vn -0.3360 0.3978 -0.8537
vn -0.2830 0.2988 -0.9114
vn -0.2760 0.1801 -0.9441
vn -0.2844 0.0845 -0.9550
vn -0.2554 0.0024 -0.9668
vn 0.7049 -0.2960 -0.6446
vn 0.6369 -0.5219 -0.5675
vn 0.6346 -0.2353 -0.7361
vn 0.7752 -0.0097 -0.6316
vn 0.7487 0.1810 -0.6377
vn 0.6303 0.3708 -0.6820
vn 0.4409 0.8071 -0.3927
vn 0.5616 0.7027 -0.4368
vn 0.0128 0.9298 -0.3677
vn -0.0815 0.9119 -0.4023
vn -0.3879 0.8773 0.2826
vn -0.0580 0.9781 0.1997
vn -0.3444 0.9387 0.0131
vn -0.4820 0.8515 0.2066
vn -0.5048 0.6590 0.5576
vn -0.7422 0.3072 0.5956
vn -0.6235 0.5550 0.5507
vn -0.8200 0.2889 0.4941
vn -0.7997 -0.0245 0.5999
vn -0.7964 -0.3294 0.5072
vn -0.8445 -0.3582 0.3980
vn 0.9923 -0.1200 0.0296
vn 0.1322 0.0488 -0.9900
vn 0.8342 -0.1249 0.5372
vn 0.9001 -0.4235 0.1026
vn -0.2977 -0.7298 -0.6154
vn -0.3725 -0.7471 -0.5505
vn -0.3647 -0.7437 -0.5603
vn 0.2254 0.6937 0.6841
vn 0.2373 0.7022 0.6713
vn 0.2877 0.7359 0.6130
vn 0.1726 0.6536 0.7369
vn -0.1377 -0.1760 0.9747
vn -0.1543 -0.1271 0.9798
vn -0.1903 -0.0863 0.9779
vn -0.1249 -0.2790 0.9521
vn -0.0935 -0.3473 0.9331
vn -0.0672 -0.4308 0.8999
vn -0.0162 -0.4952 0.8686
vn 0.0185 -0.5596 0.8286
vn 0.0847 -0.6163 0.7830
vn 0.1254 -0.6581 0.7424
vn 0.2054 -0.7039 0.6800
vn 0.2449 -0.7220 0.6471
vn 0.4681 -0.7558 0.4580
vn 0.5487 -0.7396 0.3898
vn 0.4863 -0.7529 0.4434
vn 0.6188 -0.7022 0.3522
vn 0.6194 -0.7019 0.3516
vn 0.5496 -0.7299 0.4063
vn -0.3659 -0.0245 -0.9303
vn 0.2417 -0.9493 -0.2011
vn 0.5674 0.7178 0.4036
vn -0.5591 -0.7270 -0.3986
vn -0.8333 -0.1273 -0.5379
vn 0.1304 0.0489 -0.9903
vn -0.9154 0.1127 -0.3864
vn -0.8925 0.2330 -0.3861
vn -0.9985 0.0370 -0.0407
vn -0.5110 0.8503 -0.1263
vn -0.5137 0.8458 -0.1437
vn -0.9969 -0.0721 0.0317
vn -0.8750 -0.4808 -0.0561
vn -0.8236 -0.5274 -0.2087
vn -0.6454 -0.7545 -0.1191
vn -0.6375 -0.7005 -0.3207
vn -0.4689 -0.7356 -0.4889
vn -0.1791 -0.7932 -0.5821
vn 0.9986 0.0388 0.0366
vn -0.8548 -0.0566 -0.5158
vn -0.5509 -0.4087 -0.7276
vn -0.7475 -0.2582 -0.6120
vn -0.6155 -0.4437 -0.6514
vn -0.6978 -0.4489 -0.5581
vn -0.7824 -0.3976 -0.4794
vn -0.8483 -0.2987 -0.4372
vn -0.8818 -0.1802 -0.4357
vn -0.8905 -0.0832 -0.4473
vn -0.9064 -0.0028 -0.4224
vn -0.3547 -0.4117 -0.8394
vn -0.4517 -0.4505 -0.7700
vn 0.6831 -0.6683 0.2946
vn 0.1903 -0.9555 0.2253
vn 0.7752 -0.0097 -0.6317
vn 0.7487 0.1810 -0.6378
vn -0.3444 0.9387 0.0130
vn -0.7603 0.2913 0.5805
vn -0.8490 0.2154 0.4825
vn -0.6996 -0.0357 0.7136
vn 0.2876 0.7359 0.6130
vn -0.1389 -0.1765 0.9744
vn -0.1560 -0.1276 0.9795
vn -0.1922 -0.0864 0.9775
vn -0.1251 -0.2792 0.9520
vn 0.1372 -0.6550 0.7430
vn 0.2365 -0.6768 0.6972
vn 0.9983 0.0370 0.0456
vn -0.9050 0.1043 -0.4125
vn -0.8869 0.2256 -0.4032
vn -0.5110 0.8502 -0.1265
vn -0.9775 0.0445 0.2061
vn -0.9993 0.0358 -0.0066
vn -0.9983 -0.0289 -0.0502
vn -0.9347 -0.3554 0.0002
vn -0.7649 -0.5369 0.3560
vn -0.6032 -0.7970 -0.0306
vn -0.1790 -0.7932 -0.5821
vn -0.3109 -0.7542 -0.5784
vn -0.2911 -0.3224 -0.9007
vn -0.8350 0.3347 -0.4367
vn -0.5562 -0.4355 -0.7078
vn -0.6325 -0.4061 -0.6596
vn -0.7956 -0.1899 -0.5753
vn -0.6955 -0.4070 -0.5921
vn -0.7743 -0.3888 -0.4992
vn -0.8476 -0.3183 -0.4245
vn -0.8969 -0.2068 -0.3910
vn -0.9113 -0.0837 -0.4031
vn -0.9048 0.0125 -0.4257
vn -0.6154 0.4175 -0.6686
vn -0.4761 0.2686 -0.8374
vn -0.5345 0.4437 -0.7193
vn -0.4284 0.4491 -0.7841
vn -0.3362 0.3977 -0.8537
vn -0.2831 0.2987 -0.9114
vn -0.2760 0.1802 -0.9441
vn -0.2718 0.0912 -0.9580
vn -0.2526 -0.0071 -0.9676
vn 0.9996 -0.0185 0.0191
vn 0.9608 -0.0107 0.2771
vn 0.8565 -0.0021 0.5162
vn 0.6937 0.0067 0.7202
vn 0.6938 0.0067 0.7202
vn 0.4838 0.0149 0.8751
vn 0.2408 0.0222 0.9703
vn -0.0185 0.0279 0.9994
vn -0.2766 0.0318 0.9604
vn -0.5159 0.0335 0.8560
vn -0.7200 0.0329 0.6932
vn -0.8750 0.0300 0.4832
vn -0.9704 0.0251 0.2403
vn -0.9996 0.0185 -0.0191
vn -0.9608 0.0107 -0.2771
vn -0.8565 0.0021 -0.5162
vn -0.6937 -0.0066 -0.7202
vn -0.6938 -0.0067 -0.7202
vn -0.4838 -0.0149 -0.8751
vn -0.2408 -0.0222 -0.9703
vn 0.0185 -0.0279 -0.9994
vn 0.2766 -0.0318 -0.9605
vn 0.5159 -0.0335 -0.8560
vn 0.7200 -0.0329 -0.6932
vn 0.8750 -0.0300 -0.4832
vn 0.9704 -0.0251 -0.2403
vn 0.0191 0.9994 -0.0276
vn -0.0191 -0.9994 0.0276
vn 1.0000 0.0001 -0.0001
vn 0.9659 0.0067 0.2586
vn 0.8661 0.0129 0.4998
vn 0.7072 0.0182 0.7068
vn 0.5001 0.0223 0.8657
vn 0.2589 0.0248 0.9656
vn 0.0001 0.0257 0.9997
vn -0.2587 0.0248 0.9656
vn -0.4999 0.0222 0.8658
vn -0.7070 0.0181 0.7069
vn -0.8660 0.0128 0.4999
vn -0.9659 0.0066 0.2588
vn -1.0000 -0.0001 0.0001
vn -0.9659 -0.0067 -0.2586
vn -0.8661 -0.0129 -0.4998
vn -0.7072 -0.0182 -0.7068
vn -0.5001 -0.0223 -0.8657
vn -0.2589 -0.0248 -0.9656
vn -0.0001 -0.0257 -0.9997
vn 0.2587 -0.0248 -0.9656
vn 0.4999 -0.0222 -0.8658
vn 0.7070 -0.0181 -0.7069
vn 0.8660 -0.0128 -0.4999
vn 0.9659 -0.0066 -0.2588
vn -0.0001 0.9997 -0.0257
vn 0.0001 -0.9997 0.0257
vn 0.9996 0.0202 0.0208
vn 0.9707 0.0272 -0.2385
vn 0.8758 0.0324 -0.4817
vn 0.7211 0.0353 -0.6919
vn 0.5173 0.0359 -0.8551
vn 0.2782 0.0340 -0.9599
vn 0.0202 0.0297 -0.9994
vn -0.2392 0.0235 -0.9707
vn -0.4823 0.0156 -0.8759
vn -0.6925 0.0067 -0.7214
vn -0.8556 -0.0026 -0.5177
vn -0.9603 -0.0118 -0.2788
vn -0.9996 -0.0202 -0.0208
vn -0.9708 -0.0272 0.2385
vn -0.8758 -0.0324 0.4817
vn -0.7211 -0.0353 0.6919
vn -0.5173 -0.0359 0.8551
vn -0.2782 -0.0340 0.9599
vn -0.0202 -0.0297 0.9994
vn 0.2392 -0.0235 0.9707
vn 0.4823 -0.0157 0.8759
vn 0.6925 -0.0067 0.7214
vn 0.8556 0.0026 0.5177
vn 0.9603 0.0118 0.2788
vn 0.0208 -0.9994 -0.0293
vn -0.0208 0.9994 0.0293
vn 0.9657 0.0059 -0.2596
vn 1.0000 -0.0009 -0.0009
vn 0.8656 0.0123 -0.5007
vn 0.7065 0.0179 -0.7075
vn 0.8656 0.0123 -0.5006
vn 0.4992 0.0222 -0.8662
vn 0.2579 0.0251 -0.9658
vn -0.0009 0.0262 -0.9997
vn -0.2597 0.0255 -0.9653
vn -0.5008 0.0231 -0.8653
vn -0.7078 0.0192 -0.7062
vn -0.8665 0.0139 -0.4990
vn -0.9662 0.0077 -0.2578
vn -1.0000 0.0009 0.0009
vn -0.9657 -0.0059 0.2596
vn -0.8656 -0.0123 0.5006
vn -0.7065 -0.0179 0.7075
vn -0.4992 -0.0222 0.8662
vn -0.2579 -0.0251 0.9658
vn 0.0009 -0.0262 0.9997
vn 0.2597 -0.0255 0.9653
vn 0.5008 -0.0231 0.8653
vn 0.7078 -0.0192 0.7062
vn 0.8665 -0.0139 0.4990
vn 0.9662 -0.0077 0.2578
vn -0.0009 -0.9997 -0.0262
vn 0.0009 0.9997 0.0262
s 1
usemtl glass
f 5//1 30//2 6//3
f 31//4 30//2 5//1
f 4//5 31//4 5//1
f 32//6 31//4 4//5
f 3//7 32//6 4//5
f 33//8 32//6 3//7
f 2//9 33//8 3//7
f 34//10 33//8 2//9
f 1//11 34//10 2//9
f 35//12 34//10 1//11
f 8//13 35//12 1//11
f 36//14 35//12 8//13
f 15//15 36//14 8//13
f 37//16 36//14 15//15
f 14//17 37//16 15//15
f 38//18 37//16 14//17
f 13//19 38//18 14//17
f 39//20 38//18 13//19
f 39//20 13//19 12//21
f 40//22 12//21 11//23
f 40//22 39//20 12//21
f 41//24 11//23 10//25
f 41//24 40//22 11//23
f 23//26 10//25 9//27
f 23//26 41//24 10//25
f 28//28 16//29 29//30
f 548//31 550//32 551//33
f 79//34 58//35 80//36
f 394//37 405//38 404//39
f 504//40 511//41 503//42
f 47//43 46//44 52//45
f 28//28 18//46 17//28
f 143//47 145//48 146//49
f 463//50 439//51 497//52
f 189//53 206//54 205//55
f 109//56 111//57 113//58
f 456//59 472//60 471//61
f 503//42 511//41 509//62
f 484//63 529//64 525//65
f 315//66 385//67 386//68
f 216//69 255//69 173//69
f 358//70 369//71 368//72
f 441//73 436//74 442//75
f 485//76 525//65 530//77
f 393//78 405//38 394//37
f 442//75 436//74 435//79
f 189//53 205//55 190//80
f 287//81 288//82 260//83
f 174//84 169//85 175//86
f 461//87 467//88 466//89
f 175//86 168//90 176//91
f 354//92 372//93 355//94
f 25//95 20//95 19//96
f 443//92 434//93 444//94
f 486//97 530//77 482//98
f 456//59 471//61 457//99
f 531//100 498//101 518//102
f 191//103 203//104 192//105
f 387//106 329//107 349//108
f 357//109 369//71 358//70
f 92//110 95//111 94//112
f 89//113 97//114 90//115
f 90//115 96//116 91//117
f 73//118 65//119 64//120
f 87//103 100//121 99//104
f 449//122 428//123 450//124
f 484//63 525//65 485//76
f 560//125 561//126 533//127
f 71//86 66//90 72//91
f 70//128 67//85 71//86
f 399//129 400//130 363//131
f 43//132 49//133 55//134
f 188//135 206//54 189//53
f 173//136 171//137 170//138
f 391//139 407//140 392//141
f 440//142 438//143 437//144
f 355//94 371//145 356//146
f 85//53 102//54 101//55
f 48//147 7//148 42//149
f 390//150 409//151 408//152
f 192//105 202//153 193//113
f 447//70 431//71 430//72
f 395//154 403//155 396//156
f 412//157 413//158 414//159
f 194//115 200//116 195//117
f 176//91 168//90 167//119
f 184//36 159//160 185//161
f 352//73 375//144 374//74
f 377//162 364//163 411//164
f 81//165 56//166 49//167
f 109//56 117//168 111//57
f 292//169 291//170 412//157
f 174//84 170//138 169//85
f 110//171 109//56 113//58
f 110//171 113//58 112//172
f 106//173 110//173 112//173
f 106//174 112//175 114//176
f 107//177 106//174 114//176
f 108//178 107//177 114//176
f 108//178 114//176 120//179
f 118//180 120//179 126//181
f 118//180 108//178 120//179
f 118//180 126//181 125//182
f 119//183 118//180 125//182
f 119//183 125//182 124//184
f 115//185 124//184 123//186
f 115//185 119//183 124//184
f 45//187 54//188 53//189
f 71//86 67//85 66//90
f 46//44 53//189 52//45
f 93//190 69//191 8//192
f 219//193 224//194 250//195
f 315//66 386//68 316//97
f 185//161 159//160 158//196
f 481//197 494//198 493//199
f 397//200 401//89 398//201
f 182//202 162//203 161//204
f 128//83 129//205 130//206
f 143//47 141//207 142//208
f 128//83 131//209 132//210
f 192//105 203//104 202//153
f 144//211 132//210 133//212
f 144//211 127//213 128//83
f 144//211 128//83 132//210
f 144//211 133//212 134//214
f 144//211 134//214 135//215
f 144//211 135//215 136//216
f 144//211 136//216 137//217
f 144//211 137//217 138//218
f 143//47 138//218 139//219
f 143//47 127//213 144//211
f 143//47 144//211 138//218
f 143//47 139//219 140//220
f 395//154 404//39 403//155
f 143//47 142//208 145//48
f 560//125 533//127 532//221
f 128//83 156//82 129//205
f 143//47 146//49 147//222
f 157//223 147//222 148//224
f 157//223 127//213 143//47
f 157//223 143//47 147//222
f 157//223 148//224 149//225
f 157//223 149//225 150//226
f 157//223 150//226 151//227
f 157//223 151//227 152//228
f 157//223 152//228 153//229
f 128//83 153//229 154//230
f 128//83 157//223 153//229
f 128//83 127//213 157//223
f 128//83 154//230 155//81
f 391//139 408//152 407//140
f 219//193 250//195 220//231
f 452//232 476//233 475//234
f 393//78 406//61 405//38
f 77//235 61//236 60//203
f 187//237 207//238 188//135
f 494//198 482//98 495//239
f 84//135 102//54 85//53
f 72//91 65//119 73//118
f 457//99 470//240 458//37
f 361//124 366//123 365//241
f 358//70 368//72 359//242
f 91//117 96//116 95//111
f 193//113 201//114 194//115
f 396//156 402//88 397//200
f 181//235 163//236 162//203
f 185//161 158//196 172//243
f 74//244 64//120 63//245
f 196//110 198//112 197//246
f 186//247 209//248 208//249
f 8//192 69//191 68//250
f 209//248 172//243 158//196
f 186//247 172//243 209//248
f 452//232 475//234 453//251
f 179//252 165//253 164//254
f 389//255 409//151 390//150
f 453//251 475//234 474//151
f 353//75 373//79 354//92
f 197//246 198//112 171//137
f 177//118 166//120 178//244
f 497//52 439//51 438//143
f 178//244 165//253 179//252
f 218//256 254//257 224//194
f 179//252 164//254 180//258
f 26//96 19//96 18//46
f 446//109 431//71 447//70
f 459//154 468//259 460//260
f 77//235 60//203 78//202
f 48//147 47//43 51//261
f 461//87 466//89 462//201
f 359//242 368//72 367//262
f 399//129 363//131 327//263
f 327//263 376//264 351//265
f 357//109 370//266 369//71
f 213//267 215//268 258//269
f 213//267 220//231 215//268
f 175//86 169//85 168//90
f 214//270 257//271 256//272
f 214//270 213//267 257//271
f 214//270 256//272 225//273
f 214//270 225//273 255//274
f 214//270 255//274 216//275
f 210//276 214//270 216//275
f 210//276 216//275 217//277
f 211//278 210//276 217//277
f 212//279 217//280 223//281
f 212//279 211//282 217//280
f 221//283 223//281 247//284
f 221//283 212//279 223//281
f 221//283 247//284 246//285
f 221//283 246//285 245//286
f 222//287 245//286 244//288
f 222//287 221//283 245//286
f 222//287 244//288 243//289
f 222//287 243//289 242//290
f 218//256 242//290 254//257
f 218//256 222//287 242//290
f 70//128 68//250 67//85
f 115//185 122//291 116//292
f 397//200 402//88 401//89
f 72//91 66//90 65//119
f 485//76 530//77 486//97
f 324//293 312//98 325//239
f 305//294 302//295 301//296
f 453//251 474//151 454//297
f 215//298 248//298 241//298
f 235//299 173//300 255//301
f 232//302 173//300 235//299
f 236//303 232//302 235//299
f 231//304 232//302 236//303
f 237//305 231//304 236//303
f 230//306 231//304 237//305
f 238//307 230//306 237//305
f 238//307 229//308 230//306
f 239//309 228//310 229//308
f 239//309 229//308 238//307
f 240//311 227//312 228//310
f 240//311 228//310 239//309
f 234//313 226//314 227//312
f 234//313 227//312 240//311
f 213//267 258//269 257//271
f 450//124 427//315 451//316
f 455//317 473//318 472//60
f 23//26 21//319 24//319
f 272//220 273//207 275//47
f 464//320 476//233 452//232
f 42//149 6//3 30//2
f 254//257 242//290 172//321
f 224//194 254//257 253//322
f 252//323 224//194 253//322
f 224//194 252//323 251//324
f 250//195 224//194 251//324
f 197//246 171//137 173//136
f 89//113 98//153 97//114
f 173//136 170//138 174//84
f 389//255 410//234 409//151
f 183//34 160//35 184//36
f 444//94 434//93 433//145
f 25//95 19//96 26//96
f 220//231 250//195 215//268
f 497//52 438//143 440//142
f 457//99 471//61 470//240
f 260//83 261//205 262//206
f 275//47 273//207 274//208
f 260//83 263//209 264//210
f 48//147 50//325 7//148
f 276//211 264//210 265//212
f 276//211 259//213 260//83
f 276//211 260//83 264//210
f 276//211 265//212 266//214
f 276//211 266//214 267//215
f 276//211 267//215 268//216
f 276//211 268//216 269//217
f 276//211 269//217 270//218
f 275//47 270//218 271//219
f 275//47 259//213 276//211
f 275//47 276//211 270//218
f 275//47 271//219 272//220
f 194//115 201//114 200//116
f 275//47 274//208 277//48
f 260//83 288//82 261//205
f 275//47 278//49 279//222
f 93//190 94//112 69//191
f 289//223 279//222 280//224
f 289//223 259//213 275//47
f 289//223 275//47 279//222
f 289//223 280//224 281//225
f 289//223 281//225 282//226
f 289//223 282//226 283//227
f 289//223 283//227 284//228
f 289//223 284//228 285//229
f 260//83 285//229 286//230
f 260//83 289//223 285//229
f 260//83 259//213 289//223
f 260//83 286//230 287//81
f 355//94 372//93 371//145
f 440//142 437//144 441//73
f 305//294 303//326 302//295
f 412//157 291//170 290//327
f 82//328 104//249 83//237
f 305//294 301//296 300//329
f 362//330 364//163 377//162
f 459//154 469//331 468//259
f 306//332 300//329 299//333
f 306//332 304//334 305//294
f 306//332 305//294 300//329
f 306//332 298//335 297//336
f 306//332 299//333 298//335
f 306//332 297//336 296//337
f 306//332 295//338 294//339
f 306//332 296//337 295//338
f 412//157 294//339 293//340
f 412//157 304//334 306//332
f 412//157 306//332 294//339
f 412//157 293//340 292//169
f 327//263 363//131 376//264
f 311//197 312//98 324//293
f 311//197 316//97 312//98
f 443//92 435//79 434//93
f 310//341 323//199 322//342
f 310//341 311//197 323//199
f 310//341 322//342 321//343
f 310//341 321//343 320//344
f 310//341 320//344 384//345
f 307//346 310//341 384//345
f 307//346 384//345 313//347
f 308//348 307//346 313//347
f 309//349 308//348 313//347
f 309//349 313//347 319//350
f 318//351 309//352 319//353
f 318//351 319//353 339//354
f 318//351 339//354 338//355
f 317//356 338//355 337//357
f 317//356 318//351 338//355
f 317//356 337//357 336//358
f 317//356 336//358 335//359
f 314//360 335//359 383//361
f 314//360 317//356 335//359
f 43//132 22//362 49//133
f 218//256 224//194 219//193
f 260//83 262//206 263//209
f 187//237 208//249 207//238
f 528//363 490//363 497//363
f 396//156 403//155 402//88
f 85//53 101//55 86//80
f 82//328 105//364 104//249
f 45//187 44//365 54//188
f 325//366 350//367 326//368
f 343//369 325//370 350//371
f 324//372 325//370 343//369
f 344//373 327//374 320//375
f 334//376 327//374 344//373
f 345//377 334//376 344//373
f 333//378 334//376 345//377
f 346//379 333//378 345//377
f 332//380 333//378 346//379
f 347//381 332//380 346//379
f 347//381 331//382 332//380
f 348//383 330//384 331//382
f 348//383 331//382 347//381
f 349//108 329//107 330//384
f 349//108 330//384 348//383
f 531//100 520//385 498//101
f 79//34 59//204 58//35
f 340//386 328//387 387//106
f 342//388 340//389 387//390
f 180//258 164//254 163//236
f 462//201 465//391 463//50
f 117//168 121//392 111//57
f 80//36 57//160 81//165
f 223//393 226//393 247//393
f 361//124 365//241 362//330
f 49//167 56//166 105//364
f 26//96 18//46 27//46
f 234//313 247//394 226//314
f 387//106 328//387 329//107
f 44//365 55//134 54//188
f 191//103 204//121 203//104
f 388//395 410//234 389//255
f 177//118 167//119 166//120
f 83//237 103//238 84//135
f 115//185 123//186 122//291
f 442//75 435//79 443//92
f 42//149 7//148 6//3
f 390//150 408//152 391//139
f 392//141 406//61 393//78
f 384//396 320//396 327//396
f 388//395 411//164 410//234
f 447//70 430//72 448//242
f 25//95 24//319 21//319
f 76//258 61//236 77//235
f 195//117 199//111 196//110
f 423//397 424//398 305//294
f 25//95 21//319 20//95
f 78//202 60//203 59//204
f 92//110 94//112 93//190
f 351//265 376//264 375//144
f 233//399 172//399 242//399
f 441//73 437//144 436//74
f 319//353 387//400 340//401
f 339//354 319//353 340//401
f 383//361 335//359 377//402
f 385//67 383//361 382//403
f 381//404 385//67 382//403
f 385//67 381//404 380//405
f 386//68 380//405 379//406
f 386//68 385//67 380//405
f 386//68 379//406 378//407
f 350//367 378//407 326//368
f 350//367 386//68 378//407
f 312//98 350//408 325//239
f 91//117 95//111 92//110
f 454//297 474//151 473//318
f 314//360 383//361 385//67
f 316//97 386//68 312//98
f 86//80 101//55 100//121
f 75//252 62//254 76//258
f 44//365 43//132 55//134
f 503//42 509//62 464//409
f 353//75 374//74 373//79
f 48//147 51//261 50//325
f 176//91 167//119 177//118
f 183//34 161//204 160//35
f 73//118 64//120 74//244
f 155//81 156//82 128//83
f 190//80 204//121 191//103
f 356//146 370//266 357//109
f 83//237 104//249 103//238
f 88//105 98//153 89//113
f 76//258 62//254 61//236
f 181//235 162//203 182//202
f 75//252 63//245 62//254
f 460//260 467//88 461//87
f 88//105 99//104 98//153
f 182//202 161//204 183//34
f 460//260 468//259 467//88
f 458//37 470//240 469//331
f 359//242 367//262 360//122
f 451//316 427//315 426//410
f 412//157 290//327 413//158
f 451//316 426//410 464//320
f 305//294 424//398 303//326
f 412//157 414//159 415//411
f 311//197 324//293 323//199
f 425//412 415//411 416//413
f 425//412 304//334 412//157
f 425//412 412//157 415//411
f 425//412 416//413 417//414
f 425//412 417//414 418//415
f 425//412 418//415 419//416
f 425//412 419//416 420//417
f 425//412 420//417 421//418
f 305//294 421//418 422//419
f 305//294 304//334 425//412
f 305//294 425//412 421//418
f 305//294 422//419 423//397
f 463//50 465//391 439//51
f 186//247 208//249 187//237
f 446//109 432//266 431//71
f 352//73 374//74 353//75
f 454//297 473//318 455//317
f 464//320 426//410 476//233
f 8//192 68//250 70//128
f 140//220 141//207 143//47
f 74//244 63//245 75//252
f 444//94 433//145 445//146
f 462//201 466//89 465//391
f 87//103 99//104 88//105
f 392//141 407//140 406//61
f 394//37 404//39 395//154
f 195//117 200//116 199//111
f 78//202 59//204 79//34
f 190//80 205//55 204//121
f 360//122 366//123 361//124
f 360//122 367//262 366//123
f 28//28 27//46 18//46
f 377//162 411//164 388//395
f 275//47 277//48 278//49
f 351//265 375//144 352//73
f 178//244 166//120 165//253
f 49//167 105//364 82//328
f 450//124 428//123 427//315
f 23//26 9//27 21//319
f 362//330 365//241 364//163
f 86//80 100//121 87//103
f 533//127 535//420 536//421
f 445//146 432//266 446//109
f 80//36 58//35 57//160
f 180//258 163//236 181//235
f 458//37 469//331 459//154
f 448//242 429//262 449//122
f 356//146 371//145 370//266
f 339//422 340//389 342//388
f 398//201 400//130 399//129
f 448//242 430//72 429//262
f 215//423 249//423 248//423
f 90//115 97//114 96//116
f 481//197 482//98 494//198
f 481//197 486//97 482//98
f 354//92 373//79 372//93
f 480//341 493//199 492//342
f 480//341 481//197 493//199
f 480//341 492//342 491//343
f 480//341 491//343 490//424
f 480//341 490//424 528//425
f 477//346 480//341 528//425
f 477//346 528//425 483//347
f 478//348 477//346 483//347
f 479//349 478//348 483//347
f 479//349 483//347 489//350
f 488//351 479//352 489//426
f 488//351 489//426 507//354
f 488//351 507//354 506//355
f 487//427 506//355 505//357
f 487//427 488//351 506//355
f 487//427 505//357 504//428
f 487//427 504//428 529//64
f 484//429 487//427 529//64
f 188//135 207//238 206//54
f 314//360 385//67 315//66
f 128//83 130//206 131//209
f 84//135 103//238 102//54
f 116//292 121//392 117//168
f 196//110 199//111 198//112
f 455//317 472//60 456//59
f 46//44 45//187 53//189
f 495//366 519//367 496//368
f 512//369 495//370 519//430
f 494//372 495//370 512//369
f 513//431 497//432 490//433
f 502//434 497//432 513//431
f 514//377 502//434 513//431
f 501//378 502//434 514//377
f 515//379 501//378 514//377
f 500//380 501//378 515//379
f 516//381 500//380 515//379
f 516//381 499//435 500//380
f 517//436 498//101 499//435
f 517//436 499//435 516//381
f 518//102 498//101 517//436
f 335//437 341//437 377//437
f 28//28 17//28 16//29
f 508//386 520//385 531//100
f 510//388 508//389 531//390
f 398//201 401//89 400//130
f 507//422 508//389 510//388
f 545//438 546//439 548//31
f 16//29 49//133 22//362
f 449//122 429//262 428//123
f 16//29 22//362 29//30
f 489//426 531//440 508//401
f 507//354 489//426 508//401
f 529//64 504//428 503//441
f 521//442 529//64 503//441
f 529//64 521//442 464//443
f 527//444 529//64 464//443
f 526//445 529//64 527//444
f 525//65 529//64 526//445
f 530//77 524//446 523//406
f 530//77 525//65 524//446
f 530//77 523//406 522//407
f 519//367 522//407 496//368
f 519//367 530//77 522//407
f 482//98 519//447 495//239
f 215//448 250//448 249//448
f 116//292 122//291 121//392
f 445//146 433//145 432//266
f 47//43 52//45 51//261
f 193//113 202//153 201//114
f 533//127 534//449 535//420
f 548//31 546//439 547//450
f 533//127 536//421 537//451
f 533//127 537//451 538//452
f 549//453 538//452 539//454
f 549//453 539//454 540//455
f 549//453 533//127 538//452
f 549//453 532//221 533//127
f 549//453 540//455 541//456
f 549//453 541//456 542//457
f 549//453 542//457 543//458
f 549//453 543//458 544//459
f 548//31 544//459 545//438
f 548//31 549//453 544//459
f 548//31 532//221 549//453
f 548//31 547//450 550//32
f 533//127 561//126 534//449
f 548//31 551//33 552//460
f 184//36 160//35 159//160
f 562//461 552//460 553//462
f 562//461 532//221 548//31
f 562//461 548//31 552//460
f 562//461 553//462 554//463
f 562//461 554//463 555//464
f 562//461 555//464 556//465
f 562//461 556//465 557//466
f 562//461 557//466 558//467
f 532//221 558//467 559//468
f 532//221 562//461 558//467
f 532//221 559//468 560//125
f 81//165 57//160 56//166
f 563//469 588//470 587//469
f 565//471 588//470 564//470
f 565//471 590//472 589//471
f 566//473 591//474 590//472
f 567//474 592//475 591//474
f 569//476 592//475 568//475
f 570//477 593//476 569//476
f 570//477 595//478 594//477
f 572//479 595//478 571//478
f 572//479 597//480 596//479
f 573//480 598//481 597//480
f 575//482 598//481 574//481
f 575//482 600//483 599//482
f 577//484 600//483 576//483
f 577//484 602//485 601//484
f 578//486 603//487 602//485
f 580//488 603//487 579//487
f 580//488 605//489 604//488
f 581//489 606//490 605//489
f 582//490 607//491 606//490
f 583//491 608//492 607//491
f 584//492 609//493 608//492
f 586//494 609//493 585//493
f 586//494 587//469 610//494
f 564//495 563//495 611//495
f 565//495 564//495 611//495
f 566//495 565//495 611//495
f 567//495 566//495 611//495
f 568//495 567//495 611//495
f 569//495 568//495 611//495
f 570//495 569//495 611//495
f 571//495 570//495 611//495
f 572//495 571//495 611//495
f 573//495 572//495 611//495
f 574//495 573//495 611//495
f 575//495 574//495 611//495
f 576//495 575//495 611//495
f 577//495 576//495 611//495
f 578//495 577//495 611//495
f 579//495 578//495 611//495
f 580//495 579//495 611//495
f 581//495 580//495 611//495
f 582//495 581//495 611//495
f 583//495 582//495 611//495
f 584//495 583//495 611//495
f 585//495 584//495 611//495
f 586//495 585//495 611//495
f 563//495 586//495 611//495
f 587//496 588//496 612//496
f 588//496 589//496 612//496
f 589//496 590//496 612//496
f 590//496 591//496 612//496
f 591//496 592//496 612//496
f 592//496 593//496 612//496
f 593//496 594//496 612//496
f 594//496 595//496 612//496
f 595//496 596//496 612//496
f 596//496 597//496 612//496
f 597//496 598//496 612//496
f 598//496 599//496 612//496
f 599//496 600//496 612//496
f 600//496 601//496 612//496
f 601//496 602//496 612//496
f 602//496 603//496 612//496
f 603//496 604//496 612//496
f 604//496 605//496 612//496
f 605//496 606//496 612//496
f 606//496 607//496 612//496
f 607//496 608//496 612//496
f 608//496 609//496 612//496
f 609//496 610//496 612//496
f 610//496 587//496 612//496
f 613//497 638//498 637//497
f 614//498 639//499 638//498
f 615//499 640//500 639//499
f 616//500 641//501 640//500
f 617//501 642//502 641//501
f 619//503 642//502 618//502
f 619//503 644//504 643//503
f 621//505 644//504 620//504
f 621//505 646//506 645//505
f 623//507 646//506 622//506
f 624//508 647//507 623//507
f 624//508 649//509 648//508
f 625//509 650//510 649//509
f 627//511 650//510 626//510
f 628//512 651//511 627//511
f 628//512 653//513 652//512
f 629//513 654//514 653//513
f 630//514 655//515 654//514
f 632//516 655//515 631//515
f 633//517 656//516 632//516
f 633//517 658//518 657//517
f 635//519 658//518 634//518
f 636//520 659//519 635//519
f 636//520 637//497 660//520
f 614//521 613//521 661//521
f 615//521 614//521 661//521
f 616//521 615//521 661//521
f 617//521 616//521 661//521
f 618//521 617//521 661//521
f 619//521 618//521 661//521
f 620//521 619//521 661//521
f 621//521 620//521 661//521
f 622//521 621//521 661//521
f 623//521 622//521 661//521
f 624//521 623//521 661//521
f 625//521 624//521 661//521
f 626//521 625//521 661//521
f 627//521 626//521 661//521
f 628//521 627//521 661//521
f 629//521 628//521 661//521
f 630//521 629//521 661//521
f 631//521 630//521 661//521
f 632//521 631//521 661//521
f 633//521 632//521 661//521
f 634//521 633//521 661//521
f 635//521 634//521 661//521
f 636//521 635//521 661//521
f 613//521 636//521 661//521
f 637//522 638//522 662//522
f 638//522 639//522 662//522
f 639//522 640//522 662//522
f 640//522 641//522 662//522
f 641//522 642//522 662//522
f 642//522 643//522 662//522
f 643//522 644//522 662//522
f 644//522 645//522 662//522
f 645//522 646//522 662//522
f 646//522 647//522 662//522
f 647//522 648//522 662//522
f 648//522 649//522 662//522
f 649//522 650//522 662//522
f 650//522 651//522 662//522
f 651//522 652//522 662//522
f 652//522 653//522 662//522
f 653//522 654//522 662//522
f 654//522 655//522 662//522
f 655//522 656//522 662//522
f 656//522 657//522 662//522
f 657//522 658//522 662//522
f 658//522 659//522 662//522
f 659//522 660//522 662//522
f 660//522 637//522 662//522
f 663//523 688//524 687//523
f 665//525 688//524 664//524
f 666//526 689//525 665//525
f 666//526 691//527 690//526
f 668//528 691//527 667//527
f 669//529 692//528 668//528
f 669//529 694//530 693//529
f 671//531 694//530 670//530
f 671//531 696//532 695//531
f 673//533 696//532 672//532
f 674//534 697//533 673//533
f 674//534 699//535 698//534
f 676//536 699//535 675//535
f 676//536 701//537 700//536
f 677//537 702//538 701//537
f 679//539 702//538 678//538
f 679//539 704//540 703//539
f 680//540 705//541 704//540
f 682//542 705//541 681//541
f 683//543 706//542 682//542
f 684//544 707//543 683//543
f 684//544 709//545 708//544
f 686//546 709//545 685//545
f 663//523 710//546 686//546
f 664//547 663//547 711//547
f 665//547 664//547 711//547
f 666//547 665//547 711//547
f 667//547 666//547 711//547
f 668//547 667//547 711//547
f 669//547 668//547 711//547
f 670//547 669//547 711//547
f 671//547 670//547 711//547
f 672//547 671//547 711//547
f 673//547 672//547 711//547
f 674//547 673//547 711//547
f 675//547 674//547 711//547
f 676//547 675//547 711//547
f 677//547 676//547 711//547
f 678//547 677//547 711//547
f 679//547 678//547 711//547
f 680//547 679//547 711//547
f 681//547 680//547 711//547
f 682//547 681//547 711//547
f 683//547 682//547 711//547
f 684//547 683//547 711//547
f 685//547 684//547 711//547
f 686//547 685//547 711//547
f 663//547 686//547 711//547
f 687//548 688//548 712//548
f 688//548 689//548 712//548
f 689//548 690//548 712//548
f 690//548 691//548 712//548
f 691//548 692//548 712//548
f 692//548 693//548 712//548
f 693//548 694//548 712//548
f 694//548 695//548 712//548
f 695//548 696//548 712//548
f 696//548 697//548 712//548
f 697//548 698//548 712//548
f 698//548 699//548 712//548
f 699//548 700//548 712//548
f 700//548 701//548 712//548
f 701//548 702//548 712//548
f 702//548 703//548 712//548
f 703//548 704//548 712//548
f 704//548 705//548 712//548
f 705//548 706//548 712//548
f 706//548 707//548 712//548
f 707//548 708//548 712//548
f 708//548 709//548 712//548
f 709//548 710//548 712//548
f 710//548 687//548 712//548
f 714//549 737//550 713//550
f 715//551 738//549 714//549
f 716//552 739//553 715//551
f 717//554 740//552 716//552
f 718//555 741//554 717//554
f 718//555 743//556 742//555
f 719//556 744//557 743//556
f 721//558 744//557 720//557
f 721//558 746//559 745//558
f 722//559 747//560 746//559
f 723//560 748//561 747//560
f 725//562 748//561 724//561
f 725//562 750//563 749//562
f 726//563 751//564 750//563
f 727//564 752//565 751//564
f 729//566 752//565 728//565
f 730//567 753//566 729//566
f 731//568 754//567 730//567
f 731//568 756//569 755//568
f 732//569 757//570 756//569
f 734//571 757//570 733//570
f 735//572 758//571 734//571
f 736//573 759//572 735//572
f 713//550 760//573 736//573
f 714//574 713//574 761//574
f 715//574 714//574 761//574
f 716//574 715//574 761//574
f 717//574 716//574 761//574
f 718//574 717//574 761//574
f 719//574 718//574 761//574
f 720//574 719//574 761//574
f 721//574 720//574 761//574
f 722//574 721//574 761//574
f 723//574 722//574 761//574
f 724//574 723//574 761//574
f 725//574 724//574 761//574
f 726//574 725//574 761//574
f 727//574 726//574 761//574
f 728//574 727//574 761//574
f 729//574 728//574 761//574
f 730//574 729//574 761//574
f 731//574 730//574 761//574
f 732//574 731//574 761//574
f 733//574 732//574 761//574
f 734//574 733//574 761//574
f 735//574 734//574 761//574
f 736//574 735//574 761//574
f 713//574 736//574 761//574
f 737//575 738//575 762//575
f 738//575 739//575 762//575
f 739//575 740//575 762//575
f 740//575 741//575 762//575
f 741//575 742//575 762//575
f 742//575 743//575 762//575
f 743//575 744//575 762//575
f 744//575 745//575 762//575
f 745//575 746//575 762//575
f 746//575 747//575 762//575
f 747//575 748//575 762//575
f 748//575 749//575 762//575
f 749//575 750//575 762//575
f 750//575 751//575 762//575
f 751//575 752//575 762//575
f 752//575 753//575 762//575
f 753//575 754//575 762//575
f 754//575 755//575 762//575
f 755//575 756//575 762//575
f 756//575 757//575 762//575
f 757//575 758//575 762//575
f 758//575 759//575 762//575
f 759//575 760//575 762//575
f 760//575 737//575 762//575
f 563//469 564//470 588//470
f 565//471 589//471 588//470
f 565//471 566//473 590//472
f 566//473 567//474 591//474
f 567//474 568//475 592//475
f 569//476 593//476 592//475
f 570//477 594//477 593//476
f 570//477 571//478 595//478
f 572//479 596//479 595//478
f 572//479 573//480 597//480
f 573//480 574//481 598//481
f 575//482 599//482 598//481
f 575//482 576//483 600//483
f 577//484 601//484 600//483
f 577//484 578//486 602//485
f 578//486 579//487 603//487
f 580//488 604//488 603//487
f 580//488 581//489 605//489
f 581//489 582//490 606//490
f 582//490 583//491 607//491
f 583//491 584//492 608//492
f 584//492 585//493 609//493
f 586//494 610//494 609//493
f 586//494 563//469 587//469
f 613//497 614//498 638//498
f 614//498 615//499 639//499
f 615//499 616//500 640//500
f 616//500 617//501 641//501
f 617//501 618//502 642//502
f 619//503 643//503 642//502
f 619//503 620//504 644//504
f 621//505 645//505 644//504
f 621//505 622//506 646//506
f 623//507 647//507 646//506
f 624//508 648//508 647//507
f 624//508 625//509 649//509
f 625//509 626//510 650//510
f 627//511 651//511 650//510
f 628//512 652//512 651//511
f 628//512 629//513 653//513
f 629//513 630//514 654//514
f 630//514 631//515 655//515
f 632//516 656//516 655//515
f 633//517 657//517 656//516
f 633//517 634//518 658//518
f 635//519 659//519 658//518
f 636//520 660//520 659//519
f 636//520 613//497 637//497
f 663//523 664//524 688//524
f 665//525 689//525 688//524
f 666//526 690//526 689//525
f 666//526 667//527 691//527
f 668//528 692//528 691//527
f 669//529 693//529 692//528
f 669//529 670//530 694//530
f 671//531 695//531 694//530
f 671//531 672//532 696//532
f 673//533 697//533 696//532
f 674//534 698//534 697//533
f 674//534 675//535 699//535
f 676//536 700//536 699//535
f 676//536 677//537 701//537
f 677//537 678//538 702//538
f 679//539 703//539 702//538
f 679//539 680//540 704//540
f 680//540 681//541 705//541
f 682//542 706//542 705//541
f 683//543 707//543 706//542
f 684//544 708//544 707//543
f 684//544 685//545 709//545
f 686//546 710//546 709//545
f 663//523 687//523 710//546
f 714//549 738//549 737//550
f 715//551 739//553 738//549
f 716//552 740//552 739//553
f 717//554 741//554 740//552
f 718//555 742//555 741//554
f 718//555 719//556 743//556
f 719//556 720//557 744//557
f 721//558 745//558 744//557
f 721//558 722//559 746//559
f 722//559 723//560 747//560
f 723//560 724//561 748//561
f 725//562 749//562 748//561
f 725//562 726//563 750//563
f 726//563 727//564 751//564
f 727//564 728//565 752//565
f 729//566 753//566 752//565
f 730//567 754//567 753//566
f 731//568 755//568 754//567
f 731//568 732//569 756//569
f 732//569 733//570 757//570
f 734//571 758//571 757//570
f 735//572 759//572 758//571
f 736//573 760//573 759//572
f 713//550 737//550 760//573
