# Blender 5.1.1
# www.blender.org
mtllib body_rubber.mtl
o body_rubber
v 0.050766 0.033745 -0.076518
v 0.065316 0.033890 -0.078318
v 0.050352 0.034547 -0.076900
v 0.066773 0.033866 -0.078363
v 0.068821 0.033777 -0.077450
v 0.065119 0.034582 -0.078667
v 0.066756 0.034751 -0.078748
v 0.068670 0.034817 -0.078113
v 0.070081 0.035029 -0.077182
v 0.065206 -0.033890 -0.078306
v 0.065115 -0.034584 -0.078668
v 0.050679 -0.034535 -0.076937
v 0.050044 -0.033763 -0.076439
v 0.066337 -0.041910 -0.078307
v 0.065302 -0.041774 -0.078462
v 0.067239 -0.041005 -0.078681
v 0.068573 -0.041260 -0.078132
v 0.069981 -0.040571 -0.077265
v 0.065716 -0.041366 -0.078740
v 0.069965 -0.041470 -0.077019
v 0.068840 -0.033802 -0.077480
v 0.068655 -0.034831 -0.078122
v 0.066743 -0.034467 -0.078721
v 0.051596 -0.041617 -0.077005
v 0.070074 -0.034982 -0.077188
v 0.067317 -0.036946 -0.078631
v 0.070022 0.040629 -0.077226
v 0.067332 0.037873 -0.078603
v 0.065751 0.041220 -0.078760
v 0.068532 0.041398 -0.078107
v 0.067118 0.041366 -0.078629
v 0.065397 0.041655 -0.078570
v 0.051668 0.041610 -0.077021
vn 0.2492 -0.0018 -0.9685
vn 0.4321 0.1130 -0.8947
vn 0.4921 -0.0522 -0.8690
vn -0.0119 -0.1945 -0.9808
vn -0.0762 0.2302 -0.9702
vn 0.5139 -0.0668 -0.8553
vn 0.2386 -0.2250 -0.9447
vn -0.0976 -0.4915 -0.8654
vn -0.1217 -0.0157 -0.9924
vn -0.1030 0.4778 -0.8724
vn -0.0853 0.4689 -0.8791
vn -0.0717 -0.2351 -0.9693
vn 0.1288 -0.1779 -0.9756
vn 0.1657 -0.4166 -0.8939
vn 0.2605 -0.0010 -0.9655
vn -0.0065 0.1906 -0.9816
vn -0.1167 -0.2225 -0.9679
vn -0.1222 0.0116 -0.9924
vn -0.1134 0.2984 -0.9477
vn -0.0699 0.3510 -0.9338
vn 0.4770 -0.0268 -0.8785
vn 0.4999 0.0515 -0.8645
vn -0.1037 -0.4707 -0.8762
vn 0.4232 -0.1373 -0.8956
vn 0.3422 -0.4694 -0.8140
vn 0.1202 0.1122 -0.9864
vn 0.1734 -0.5189 -0.8371
vn 0.5880 -0.2234 -0.7774
vn 0.4492 0.1826 -0.8746
vn 0.2241 -0.5546 -0.8014
vn -0.0647 -0.4646 -0.8832
vn 0.3440 0.4515 -0.8233
vn 0.2083 0.0446 -0.9770
vn 0.4284 -0.0188 -0.9034
s 1
usemtl rubber
f 26//1 22//2 25//3
f 26//1 19//4 11//5
f 18//6 16//7 26//1
f 15//8 24//9 19//4
f 11//5 13//10 10//11
f 6//12 7//13 4//14
f 26//1 16//7 19//4
f 28//15 6//12 29//16
f 6//12 3//17 29//16
f 33//18 29//16 3//17
f 12//19 11//5 19//4
f 33//18 32//20 29//16
f 25//3 18//6 26//1
f 27//21 9//22 28//15
f 19//4 24//9 12//19
f 6//12 1//23 3//17
f 8//24 4//14 7//13
f 8//24 5//25 4//14
f 11//5 12//19 13//10
f 11//5 10//11 23//26
f 19//4 16//7 14//27
f 20//28 17//29 18//6
f 17//30 14//27 16//7
f 28//15 9//22 8//24
f 6//12 4//14 2//31
f 22//2 23//26 21//32
f 16//7 18//6 17//29
f 26//1 11//5 23//26
f 23//26 22//2 26//1
f 28//15 8//24 7//13
f 28//15 7//13 6//12
f 28//15 29//16 31//33
f 28//15 30//34 27//21
f 31//33 30//34 28//15
f 29//16 32//20 31//33
f 2//31 1//23 6//12
