# Blender 5.1.1
# www.blender.org
mtllib body_dark.mtl
o body_dark
v -0.094242 -0.034588 -0.025229
v -0.091344 -0.037706 -0.024938
v -0.092764 -0.036405 -0.025091
v -0.092702 -0.036333 -0.029818
v -0.094276 -0.034452 -0.028241
v -0.095227 -0.034457 -0.028369
v -0.091186 -0.037714 -0.029318
v -0.090682 -0.038165 -0.025922
v -0.091262 0.037637 -0.028969
v -0.090783 0.038122 -0.024885
v -0.094218 0.034545 -0.027477
v -0.094207 0.034565 -0.025215
v -0.092452 0.036750 -0.025045
v -0.095219 0.034495 -0.028015
v -0.094691 0.033944 -0.029871
v -0.093020 0.036067 -0.030942
v -0.095870 0.033495 -0.030700
v -0.097150 0.031667 -0.032502
v -0.095282 0.033041 -0.031244
v -0.096635 0.031137 -0.032782
v -0.057994 -0.024320 -0.058917
v -0.058043 -0.023720 -0.058823
v -0.057987 -0.018780 -0.058842
v -0.057955 -0.018180 -0.058852
v -0.085208 -0.002335 -0.052101
v -0.085125 0.002933 -0.052168
v -0.085180 0.007640 -0.052137
v -0.085001 0.008221 -0.052352
v -0.085069 0.012900 -0.052275
v -0.085076 -0.002940 -0.052230
v -0.085074 -0.007620 -0.052244
v -0.085076 -0.008218 -0.052231
v -0.081787 -0.018888 -0.054140
v -0.060063 -0.024331 -0.058327
v -0.077103 -0.024325 -0.055713
v -0.076443 -0.024325 -0.057310
v -0.058603 -0.024324 -0.059933
v -0.058597 -0.023716 -0.059919
v -0.076442 -0.023713 -0.057308
v -0.077089 -0.023721 -0.055716
v -0.081043 -0.018781 -0.056034
v -0.071944 -0.018772 -0.058212
v -0.058583 -0.018783 -0.059928
v -0.075190 -0.018780 -0.056087
v -0.085038 -0.013500 -0.052327
v -0.080463 -0.013500 -0.054626
v -0.070134 -0.013500 -0.056843
v -0.057986 -0.013501 -0.058814
v -0.081806 -0.018180 -0.054159
v -0.075618 -0.018179 -0.055945
v -0.058628 -0.018178 -0.059929
v -0.081021 -0.018186 -0.056055
v -0.074973 -0.018182 -0.057615
v -0.084085 -0.013503 -0.054671
v -0.079119 -0.013485 -0.056575
v -0.069357 -0.013479 -0.058518
v -0.058573 -0.013502 -0.059898
v -0.060192 -0.012900 -0.058294
v -0.078064 -0.012901 -0.055341
v -0.084903 -0.012900 -0.052465
v -0.057980 -0.012900 -0.058913
v -0.058623 -0.012898 -0.059917
v -0.074868 -0.012905 -0.057552
v -0.081767 -0.012936 -0.055771
v -0.084091 -0.012899 -0.054673
v -0.079185 -0.008220 -0.054973
v -0.067087 -0.008220 -0.057298
v -0.067086 -0.007620 -0.057295
v -0.081399 -0.007620 -0.054226
v -0.075226 -0.007620 -0.055845
v -0.082751 -0.002942 -0.053565
v -0.078854 -0.002940 -0.054975
v -0.071068 -0.002940 -0.056618
v -0.071067 -0.002340 -0.056617
v -0.081363 -0.002338 -0.054206
v -0.078204 0.002338 -0.055157
v -0.060234 0.012900 -0.058284
v -0.081406 0.012901 -0.054335
v -0.070032 0.012900 -0.056855
v -0.078881 0.008220 -0.055059
v -0.067087 0.008220 -0.057298
v -0.067086 0.007620 -0.057295
v -0.081398 0.007620 -0.054227
v -0.075231 0.007620 -0.055843
v -0.082750 0.002942 -0.053565
v -0.078854 0.002940 -0.054975
v -0.071068 0.002940 -0.056618
v -0.071067 0.002340 -0.056617
v -0.084912 0.002342 -0.052368
v -0.057990 0.024317 -0.058891
v -0.057975 0.023720 -0.058864
v -0.057989 0.018781 -0.058797
v -0.057985 0.013501 -0.058817
v -0.057980 0.012900 -0.058913
v -0.085020 0.013499 -0.052347
v -0.084088 0.012897 -0.054662
v -0.058640 0.012897 -0.059930
v -0.076969 0.012899 -0.057157
v -0.084131 0.008223 -0.054580
v -0.078176 0.008217 -0.056834
v -0.067874 0.008220 -0.058626
v -0.067833 0.007618 -0.058651
v -0.084121 0.007618 -0.054610
v -0.081394 0.007660 -0.055851
v -0.076414 0.007624 -0.057144
v -0.084120 0.002942 -0.054583
v -0.079131 0.002900 -0.056488
v -0.071822 0.002944 -0.057947
v -0.071818 0.002336 -0.057933
v -0.081256 0.002394 -0.055871
v -0.084154 0.002337 -0.054545
v -0.071793 -0.002336 -0.057923
v -0.084154 -0.002336 -0.054545
v -0.081288 -0.002394 -0.055840
v -0.084120 -0.002942 -0.054583
v -0.071861 -0.002944 -0.057961
v -0.067860 -0.007619 -0.058621
v -0.081472 -0.007659 -0.055821
v -0.076281 -0.007623 -0.057172
v -0.084109 -0.007618 -0.054612
v -0.084141 -0.008223 -0.054579
v -0.077767 -0.008217 -0.056942
v -0.067818 -0.008221 -0.058629
v -0.078838 -0.002904 -0.056559
v -0.058619 0.013505 -0.059939
v -0.084110 0.013502 -0.054646
v -0.068140 0.013475 -0.058704
v -0.076887 0.013478 -0.057114
v -0.081949 0.013451 -0.055723
v -0.078105 0.013500 -0.055330
v -0.060635 0.024337 -0.058232
v -0.081799 0.018815 -0.054169
v -0.081807 0.018179 -0.054162
v -0.075772 0.018179 -0.055909
v -0.076942 0.018779 -0.055679
v -0.069833 0.023719 -0.057009
v -0.077136 0.023719 -0.055672
v -0.077097 0.024324 -0.055728
v -0.076443 0.024325 -0.057310
v -0.058608 0.024323 -0.059945
v -0.058660 0.023718 -0.059934
v -0.076441 0.023713 -0.057309
v -0.081043 0.018781 -0.056034
v -0.071951 0.018773 -0.058211
v -0.058604 0.018782 -0.059939
v -0.057966 0.018180 -0.058849
v -0.058655 0.018179 -0.059928
v -0.081021 0.018186 -0.056055
v -0.074973 0.018182 -0.057615
v 0.022271 -0.023920 -0.064825
v 0.024084 -0.025276 -0.064887
v 0.024114 0.025284 -0.064882
v 0.022130 0.023341 -0.064821
v 0.022916 0.024587 -0.064837
v 0.022050 0.020962 -0.064732
v -0.099667 0.027277 -0.035301
v -0.098681 0.029362 -0.033936
v -0.100217 0.025401 -0.036534
v -0.099226 0.025247 -0.036651
v -0.098840 0.027052 -0.035448
v -0.098403 0.028151 -0.034740
v 0.044675 0.025357 -0.065502
v 0.023731 0.025185 -0.064529
v 0.022134 0.023452 -0.064472
v 0.062975 0.020963 -0.064625
v 0.062977 -0.020963 -0.064625
v 0.022550 0.015038 -0.064486
v 0.022095 0.014843 -0.064470
v 0.022217 0.015038 -0.064474
v 0.022371 0.015019 -0.064479
v 0.022452 0.015028 -0.064482
v 0.022106 -0.014853 -0.064470
v 0.022550 -0.015038 -0.064486
v 0.022371 -0.015019 -0.064479
v 0.022217 -0.015038 -0.064474
v 0.022050 -0.020962 -0.064644
v 0.023741 -0.025189 -0.064526
v 0.022134 -0.023452 -0.064472
v 0.046737 -0.025313 -0.065111
v 0.060954 -0.025275 -0.065205
v 0.044685 -0.025358 -0.065502
v -0.093970 -0.024028 -0.051575
v -0.093878 -0.035298 -0.047054
v -0.094276 -0.034445 -0.046733
v -0.094896 -0.031165 -0.046180
v -0.093362 -0.036535 -0.048059
v -0.093515 -0.035992 -0.047455
v -0.093447 -0.036842 -0.048628
v -0.094283 -0.037734 -0.051280
v -0.093393 -0.038525 -0.052943
v -0.092258 -0.038802 -0.053869
v -0.089078 -0.037972 -0.056571
v -0.090395 -0.038633 -0.055412
v -0.087313 -0.037013 -0.056603
v -0.086546 -0.036823 -0.055869
v -0.084208 -0.035122 -0.055187
v -0.084859 -0.036019 -0.054929
v -0.085940 -0.036679 -0.055315
v -0.083870 -0.027603 -0.055462
v -0.083531 -0.033312 -0.055747
v -0.083254 -0.031267 -0.055962
v -0.083425 -0.029240 -0.055827
v -0.084256 -0.026788 -0.055128
v -0.084604 -0.026191 -0.054878
v -0.085105 -0.025655 -0.054749
v -0.085671 -0.025286 -0.054849
v -0.086341 -0.025025 -0.055195
v -0.087450 -0.024784 -0.056229
v -0.089307 -0.023889 -0.056376
v -0.088099 -0.024505 -0.056576
v -0.092001 -0.023182 -0.054089
v -0.093633 -0.023568 -0.052702
v -0.090736 -0.023282 -0.055151
v -0.093224 -0.024782 -0.049074
v -0.093103 -0.025147 -0.048261
v -0.094513 -0.028184 -0.046514
v -0.094838 -0.029856 -0.046239
v -0.094761 -0.032743 -0.046299
v -0.093427 -0.025929 -0.047463
v -0.089217 -0.023476 -0.049954
v -0.089247 -0.038518 -0.049929
v -0.094339 -0.031000 -0.045656
v -0.094033 -0.033555 -0.045913
v -0.092736 -0.036247 -0.047002
v -0.091397 -0.037550 -0.048150
v -0.091326 -0.024405 -0.048206
v -0.092731 -0.025737 -0.047010
v -0.094048 -0.028523 -0.045901
v -0.082827 -0.030169 -0.055316
v -0.084033 -0.026279 -0.054308
v -0.086493 -0.023948 -0.052238
v -0.086365 -0.037924 -0.052353
v -0.084423 -0.036222 -0.053977
v -0.083143 -0.033544 -0.055051
v 0.061076 -0.025245 -0.064831
v 0.062924 -0.023270 -0.064946
v 0.062849 -0.023739 -0.064587
v 0.062232 -0.024472 -0.065016
v 0.047261 0.025314 -0.065118
v 0.062965 0.022914 -0.064590
v 0.062414 0.024340 -0.064650
v 0.060890 0.025276 -0.064840
v 0.062293 0.024414 -0.065008
v 0.062932 0.023209 -0.064943
v 0.060961 0.025273 -0.065206
v 0.022452 -0.015028 -0.064482
v -0.093389 0.036779 -0.048482
v -0.093718 0.035594 -0.047200
v -0.093434 0.036197 -0.047638
v -0.094335 0.034309 -0.046671
v -0.094277 0.037723 -0.051261
v -0.093797 0.038354 -0.052589
v -0.094191 0.038020 -0.051940
v -0.089066 0.037971 -0.056583
v -0.092440 0.038779 -0.053702
v -0.090396 0.038633 -0.055411
v -0.087005 0.036928 -0.056363
v -0.088062 0.037364 -0.056871
v -0.084244 0.035180 -0.055163
v -0.085983 0.036698 -0.055339
v -0.084685 0.035832 -0.054964
v -0.085311 0.036363 -0.055035
v -0.084584 0.026213 -0.054880
v -0.083783 0.027832 -0.055523
v -0.083354 0.029573 -0.055880
v -0.083289 0.032085 -0.055914
v -0.083723 0.033974 -0.055570
v -0.086300 0.025033 -0.055163
v -0.085136 0.025629 -0.054749
v -0.087718 0.024704 -0.056412
v -0.089448 0.023800 -0.056263
v -0.088608 0.024271 -0.056601
v -0.093642 0.023573 -0.052691
v -0.090850 0.023252 -0.055053
v -0.092078 0.023181 -0.054030
v -0.093949 0.024068 -0.051433
v -0.089284 0.038518 -0.049898
v -0.094873 0.031913 -0.046207
v -0.094859 0.029971 -0.046215
v -0.093091 0.025091 -0.048380
v -0.088588 0.023493 -0.050481
v -0.091443 0.037517 -0.048098
v -0.092949 0.035952 -0.046826
v -0.094208 0.032802 -0.045765
v -0.094208 0.029135 -0.045766
v -0.092903 0.025979 -0.046864
v -0.090784 0.023977 -0.048644
v -0.092651 0.024124 -0.050173
v -0.093981 0.026888 -0.046976
v -0.094572 0.028396 -0.046474
v -0.093306 0.025727 -0.047602
v -0.093215 0.024791 -0.049041
v -0.086382 0.023996 -0.052332
v -0.084775 0.025380 -0.053682
v -0.083855 0.026735 -0.054453
v -0.082951 0.029268 -0.055212
v -0.082969 0.032802 -0.055196
v -0.084185 0.035886 -0.054178
v -0.086286 0.037879 -0.052420
v 0.076572 0.020560 0.001033
v 0.074407 0.020709 0.000488
v 0.074422 0.020751 -0.003865
v 0.067833 -0.009682 -0.033747
v 0.067843 -0.009577 -0.030281
v 0.067068 -0.012358 -0.034250
v 0.072854 -0.009011 -0.033817
v 0.072872 -0.008830 -0.027092
v 0.072874 0.008869 -0.027076
v 0.072730 -0.014885 -0.034916
v 0.067069 0.012357 -0.034255
v 0.067844 0.009572 -0.030278
v 0.072852 0.009019 -0.033818
v 0.067837 0.009670 -0.033737
v 0.072573 0.014551 -0.034785
v 0.091520 0.007604 0.007073
v 0.092076 0.010272 0.007156
v 0.094085 0.008172 0.007811
v 0.094851 0.009000 0.008060
v 0.094085 0.009828 0.007811
v 0.093383 0.008146 0.009212
v 0.093383 0.009854 0.009212
v 0.094375 0.009000 0.009532
v 0.092064 0.007702 0.005589
v 0.094085 -0.009828 0.007811
v 0.094851 -0.009000 0.008060
v 0.094085 -0.008172 0.007811
v 0.093099 -0.009000 0.007491
v 0.093383 -0.009854 0.009212
v 0.094375 -0.009000 0.009532
v 0.092619 -0.009000 0.008962
v 0.093383 -0.008146 0.009212
v 0.113053 0.011461 0.014284
v 0.112062 0.011599 0.016552
v 0.112269 0.011787 0.016739
v 0.112257 -0.011824 0.016744
v 0.113052 -0.011461 0.014284
v 0.113128 -0.014655 0.014463
v 0.112118 -0.011574 0.016572
v 0.125577 0.031802 -0.043878
v 0.125496 0.032800 -0.043640
v 0.129549 0.032800 -0.045153
v 0.134707 0.032800 -0.044175
v 0.138987 0.032800 -0.040725
v 0.141105 0.032800 -0.035651
v 0.140547 0.032800 -0.030181
v 0.136518 0.032800 -0.024734
v 0.129803 0.032800 -0.022842
v 0.125500 0.032800 -0.024389
v 0.125554 0.031800 -0.024139
v 0.130951 0.031800 -0.045349
v 0.138599 0.031800 -0.041425
v 0.141167 0.031800 -0.035155
v 0.140365 0.031800 -0.029716
v 0.135916 0.031800 -0.024342
v 0.129304 0.031800 -0.022864
v 0.086013 0.002277 -0.045989
v 0.086026 -0.002331 -0.045982
v 0.084647 0.002063 -0.046134
v 0.085979 0.002303 -0.046980
v 0.085970 -0.002299 -0.046963
v 0.085983 0.000026 -0.047280
v 0.084646 0.002232 -0.046924
v 0.084646 -0.002205 -0.046954
v 0.098195 0.007440 0.005780
v 0.097166 0.007990 0.005447
v 0.097301 -0.007944 0.005491
v 0.098195 -0.007441 0.005780
v 0.097256 -0.007613 0.007053
v 0.096590 0.007949 0.006837
v 0.097479 0.007348 0.007125
v 0.104604 -0.010522 0.008086
v 0.103679 -0.010506 0.007823
v 0.104067 -0.009798 0.007949
v 0.109312 -0.003549 0.004884
v 0.110133 -0.003315 0.004829
v 0.104478 -0.003942 0.003272
v 0.114114 0.007356 0.011237
v 0.114005 0.008633 0.011005
v 0.114799 0.007832 0.011435
v -0.050208 -0.045366 -0.046862
v -0.050472 -0.045313 -0.045108
v -0.051182 -0.045254 -0.043481
v -0.052288 -0.045195 -0.042094
v -0.053716 -0.045139 -0.041041
v -0.055368 -0.045089 -0.040394
v -0.057132 -0.045050 -0.040196
v -0.058887 -0.045024 -0.040461
v -0.060514 -0.045013 -0.041171
v -0.061901 -0.045017 -0.042278
v -0.062956 -0.045036 -0.043706
v -0.063604 -0.045069 -0.045358
v -0.063803 -0.045114 -0.047121
v -0.063539 -0.045168 -0.048876
v -0.062830 -0.045226 -0.050502
v -0.061723 -0.045285 -0.051889
v -0.060295 -0.045342 -0.052942
v -0.058643 -0.045391 -0.053590
v -0.056880 -0.045430 -0.053788
v -0.055125 -0.045456 -0.053523
v -0.053498 -0.045468 -0.052813
v -0.052110 -0.045464 -0.051706
v -0.051056 -0.045444 -0.050278
v -0.050407 -0.045411 -0.048626
v -0.050220 -0.045966 -0.046846
v -0.050484 -0.045913 -0.045091
v -0.051193 -0.045854 -0.043465
v -0.052300 -0.045795 -0.042078
v -0.053728 -0.045738 -0.041025
v -0.055380 -0.045689 -0.040377
v -0.057143 -0.045650 -0.040179
v -0.058898 -0.045624 -0.040444
v -0.060525 -0.045612 -0.041154
v -0.061913 -0.045616 -0.042261
v -0.062967 -0.045636 -0.043689
v -0.063616 -0.045669 -0.045341
v -0.063815 -0.045714 -0.047105
v -0.063551 -0.045767 -0.048859
v -0.062841 -0.045826 -0.050485
v -0.061735 -0.045885 -0.051872
v -0.060307 -0.045941 -0.052926
v -0.058655 -0.045991 -0.053573
v -0.056891 -0.046030 -0.053771
v -0.055136 -0.046056 -0.053506
v -0.053509 -0.046067 -0.052796
v -0.052121 -0.046063 -0.051689
v -0.051067 -0.046044 -0.050261
v -0.050419 -0.046011 -0.048609
v -0.057006 -0.045240 -0.046992
v -0.057017 -0.045840 -0.046975
v 0.038800 -0.045550 -0.046993
v 0.038568 -0.045505 -0.045234
v 0.037889 -0.045463 -0.043594
v 0.036809 -0.045427 -0.042186
v 0.035401 -0.045399 -0.041106
v 0.033761 -0.045382 -0.040426
v 0.032001 -0.045376 -0.040195
v 0.030241 -0.045382 -0.040426
v 0.028601 -0.045400 -0.041105
v 0.027192 -0.045428 -0.042185
v 0.026111 -0.045464 -0.043593
v 0.025432 -0.045506 -0.045232
v 0.025200 -0.045551 -0.046992
v 0.025432 -0.045596 -0.048751
v 0.026111 -0.045638 -0.050391
v 0.027191 -0.045674 -0.051799
v 0.028599 -0.045702 -0.052879
v 0.030239 -0.045719 -0.053558
v 0.031999 -0.045725 -0.053790
v 0.033759 -0.045719 -0.053559
v 0.035399 -0.045701 -0.052880
v 0.036808 -0.045674 -0.051799
v 0.037889 -0.045637 -0.050392
v 0.038568 -0.045595 -0.048752
v 0.038800 -0.046150 -0.046978
v 0.038569 -0.046105 -0.045218
v 0.037889 -0.046063 -0.043579
v 0.036809 -0.046027 -0.042171
v 0.035401 -0.045999 -0.041090
v 0.033761 -0.045982 -0.040411
v 0.032001 -0.045976 -0.040179
v 0.030241 -0.045982 -0.040411
v 0.028601 -0.046000 -0.041090
v 0.027192 -0.046027 -0.042170
v 0.026111 -0.046064 -0.043577
v 0.025432 -0.046106 -0.045217
v 0.025200 -0.046151 -0.046976
v 0.025432 -0.046196 -0.048736
v 0.026111 -0.046238 -0.050375
v 0.027191 -0.046274 -0.051783
v 0.028600 -0.046302 -0.052864
v 0.030240 -0.046319 -0.053543
v 0.031999 -0.046325 -0.053775
v 0.033759 -0.046319 -0.053543
v 0.035400 -0.046301 -0.052864
v 0.036808 -0.046273 -0.051784
v 0.037889 -0.046237 -0.050376
v 0.038568 -0.046195 -0.048737
v 0.032000 -0.045551 -0.046992
v 0.032000 -0.046150 -0.046977
v -0.050209 0.045370 -0.046850
v -0.050405 0.045417 -0.048613
v -0.051051 0.045452 -0.050266
v -0.052103 0.045472 -0.051696
v -0.053489 0.045476 -0.052806
v -0.055114 0.045463 -0.053519
v -0.056869 0.045434 -0.053787
v -0.058633 0.045392 -0.053592
v -0.060286 0.045339 -0.052947
v -0.061715 0.045278 -0.051896
v -0.062824 0.045214 -0.050512
v -0.063536 0.045152 -0.048887
v -0.063803 0.045095 -0.047133
v -0.063607 0.045047 -0.045369
v -0.062961 0.045012 -0.043716
v -0.061910 0.044992 -0.042286
v -0.060524 0.044988 -0.041177
v -0.058898 0.045001 -0.040464
v -0.057144 0.045030 -0.040196
v -0.055380 0.045072 -0.040391
v -0.053727 0.045126 -0.041035
v -0.052297 0.045186 -0.042086
v -0.051188 0.045250 -0.043471
v -0.050476 0.045313 -0.045096
v -0.050222 0.045969 -0.046832
v -0.050418 0.046017 -0.048596
v -0.051064 0.046052 -0.050249
v -0.052115 0.046072 -0.051679
v -0.053501 0.046076 -0.052788
v -0.055127 0.046063 -0.053501
v -0.056881 0.046034 -0.053769
v -0.058645 0.045992 -0.053574
v -0.060298 0.045938 -0.052930
v -0.061728 0.045878 -0.051879
v -0.062837 0.045814 -0.050494
v -0.063549 0.045751 -0.048869
v -0.063816 0.045694 -0.047115
v -0.063620 0.045647 -0.045351
v -0.062974 0.045612 -0.043698
v -0.061922 0.045592 -0.042268
v -0.060536 0.045588 -0.041159
v -0.058911 0.045601 -0.040446
v -0.057156 0.045630 -0.040178
v -0.055392 0.045672 -0.040373
v -0.053739 0.045725 -0.041018
v -0.052310 0.045786 -0.042068
v -0.051201 0.045850 -0.043453
v -0.050489 0.045912 -0.045078
v -0.057006 0.045232 -0.046991
v -0.057019 0.045832 -0.046974
v 0.038800 0.045545 -0.046999
v 0.038567 0.045591 -0.048758
v 0.037886 0.045635 -0.050397
v 0.036804 0.045673 -0.051803
v 0.035395 0.045702 -0.052882
v 0.033754 0.045722 -0.053560
v 0.031994 0.045729 -0.053790
v 0.030234 0.045725 -0.053557
v 0.028595 0.045708 -0.052876
v 0.027188 0.045681 -0.051794
v 0.026108 0.045646 -0.050385
v 0.025430 0.045603 -0.048745
v 0.025200 0.045557 -0.046986
v 0.025434 0.045511 -0.045227
v 0.026114 0.045468 -0.043588
v 0.027196 0.045430 -0.042181
v 0.028606 0.045400 -0.041102
v 0.030246 0.045381 -0.040424
v 0.032007 0.045373 -0.040194
v 0.033766 0.045378 -0.040428
v 0.035406 0.045394 -0.041108
v 0.036813 0.045421 -0.042190
v 0.037892 0.045457 -0.043599
v 0.038570 0.045499 -0.045239
v 0.038801 0.046145 -0.046983
v 0.038568 0.046191 -0.048742
v 0.037887 0.046235 -0.050381
v 0.036805 0.046272 -0.051788
v 0.035395 0.046302 -0.052867
v 0.033755 0.046321 -0.053544
v 0.031995 0.046329 -0.053774
v 0.030235 0.046325 -0.053541
v 0.028595 0.046308 -0.052860
v 0.027188 0.046281 -0.051779
v 0.026109 0.046245 -0.050370
v 0.025431 0.046203 -0.048730
v 0.025201 0.046157 -0.046970
v 0.025434 0.046111 -0.045211
v 0.026115 0.046067 -0.043572
v 0.027197 0.046029 -0.042165
v 0.028606 0.046000 -0.041086
v 0.030247 0.045981 -0.040409
v 0.032007 0.045973 -0.040179
v 0.033767 0.045977 -0.040412
v 0.035406 0.045994 -0.041093
v 0.036814 0.046021 -0.042174
v 0.037893 0.046056 -0.043583
v 0.038571 0.046099 -0.045223
v 0.032000 0.045551 -0.046992
v 0.032001 0.046151 -0.046976
vn -0.0088 0.9998 -0.0192
vn -0.0026 1.0000 0.0022
vn -0.0027 0.9999 -0.0149
vn -0.0064 -0.7469 0.6649
vn 0.0843 -0.9218 0.3785
vn 0.0081 -0.8215 0.5701
vn 0.7858 -0.6185 0.0001
vn 0.7402 -0.6723 0.0080
vn 0.7824 -0.6227 -0.0011
vn 0.0008 -1.0000 0.0025
vn -0.0095 -0.9996 -0.0254
vn -0.0006 -1.0000 -0.0006
vn -0.0001 -0.9936 -0.1129
vn -0.2886 -0.9564 -0.0442
vn -0.0033 -0.9958 -0.0912
vn -0.0013 1.0000 -0.0038
vn -0.0069 0.9999 -0.0127
vn -0.0002 1.0000 0.0010
vn 0.1495 0.0469 -0.9877
vn -0.4365 -0.8659 0.2444
vn -0.4511 -0.8466 0.2824
vn -0.3433 -0.9169 0.2033
vn 0.0008 -1.0000 0.0020
vn -0.0001 -1.0000 -0.0014
vn 0.0004 -1.0000 -0.0008
vn -0.0335 0.0014 -0.9994
vn -0.0335 0.0007 -0.9994
vn -0.0006 -1.0000 -0.0078
vn -0.0024 -0.9999 -0.0129
vn 0.0006 -1.0000 -0.0060
vn -0.0018 -1.0000 0.0023
vn -0.0019 -1.0000 0.0005
vn 0.7242 0.6893 0.0199
vn 0.6485 0.7609 0.0205
vn 0.7173 0.6965 0.0211
vn 0.0011 -1.0000 0.0023
vn 0.0013 -1.0000 0.0021
vn 0.0013 -1.0000 0.0022
vn -0.3712 0.9000 0.2286
vn -0.3413 0.9258 0.1627
vn -0.4612 0.8409 0.2831
vn -0.0019 -1.0000 -0.0042
vn 0.0001 -1.0000 0.0011
vn -0.0008 -1.0000 -0.0019
vn 0.0010 -1.0000 0.0005
vn -0.0006 1.0000 -0.0037
vn 0.0017 0.9999 -0.0151
vn 0.0006 1.0000 -0.0037
vn -0.0006 1.0000 -0.0017
vn -0.0016 1.0000 -0.0038
vn -0.0026 0.9998 -0.0180
vn 0.0044 -0.5473 0.8370
vn 0.0010 -0.5506 0.8348
vn 0.0010 -0.5511 0.8344
vn -0.0002 -1.0000 0.0007
vn -0.0007 -1.0000 0.0086
vn 0.0004 -1.0000 0.0007
vn -0.0027 -0.9999 -0.0167
vn -0.0008 0.9721 -0.2347
vn -0.0008 0.9718 -0.2357
vn -0.0031 0.9950 -0.1000
vn 0.0004 1.0000 0.0017
vn 0.0002 1.0000 0.0015
vn -0.7874 -0.6095 0.0920
vn -0.6870 -0.7217 0.0845
vn -0.9511 -0.2904 -0.1056
vn -0.0005 1.0000 0.0013
vn -0.0005 1.0000 0.0007
vn -0.0010 -1.0000 -0.0025
vn -0.0012 -1.0000 -0.0039
vn -0.0012 -1.0000 -0.0037
vn -0.3544 0.9351 -0.0065
vn -0.2136 0.9769 -0.0083
vn 0.0008 -1.0000 0.0044
vn 0.0004 -1.0000 0.0020
vn 0.0008 -1.0000 0.0037
vn -0.0069 -0.9997 -0.0248
vn -0.0042 0.9999 -0.0154
vn -0.8022 0.4387 0.4050
vn -0.0002 -1.0000 0.0010
vn 0.0012 1.0000 -0.0053
vn 0.0004 1.0000 0.0009
vn -0.0006 1.0000 0.0008
vn -0.0051 0.9998 -0.0216
vn -0.0013 1.0000 -0.0016
vn -0.4383 -0.8931 0.1015
vn -0.0041 0.9999 -0.0141
vn 0.0060 1.0000 -0.0052
vn -0.0812 -0.5599 0.8246
vn -0.0767 -0.5322 0.8431
vn 0.0050 1.0000 -0.0015
vn 0.0001 1.0000 0.0004
vn -0.0000 1.0000 -0.0004
vn -0.0005 -1.0000 0.0007
vn -0.0003 -1.0000 -0.0025
vn 0.0001 -1.0000 -0.0000
vn 0.0234 -0.5494 0.8352
vn 0.0002 0.9932 -0.1166
vn -0.0015 -0.9625 -0.2712
vn -0.0012 1.0000 -0.0034
vn -0.0012 1.0000 -0.0035
vn -0.0010 1.0000 -0.0023
vn -0.0335 -0.0005 -0.9994
vn -0.0335 -0.0012 -0.9994
vn -0.0335 -0.0004 -0.9994
vn -0.0107 0.9989 0.0450
vn -0.0015 -1.0000 -0.0061
vn 0.0003 -1.0000 0.0019
vn -0.0001 -1.0000 -0.0084
vn -0.0064 -0.9987 -0.0509
vn -0.0000 1.0000 -0.0002
vn -0.0003 1.0000 -0.0018
vn 0.0002 1.0000 -0.0013
vn -0.0028 -0.9999 -0.0139
vn 0.0196 0.9998 0.0078
vn 0.0005 -1.0000 0.0024
vn -0.0003 -1.0000 -0.0056
vn -0.0006 1.0000 -0.0001
vn -0.0065 0.9997 -0.0252
vn 0.0015 1.0000 -0.0080
vn 0.0005 1.0000 -0.0003
vn -0.0025 0.9996 -0.0267
vn 0.5896 0.8074 0.0198
vn 0.6603 0.7506 0.0225
vn 0.7749 0.6318 0.0197
vn 0.7748 0.6318 0.0197
vn -0.0069 0.9994 -0.0345
vn -0.0003 1.0000 -0.0004
vn -0.0043 -0.9998 -0.0196
vn -0.0006 -1.0000 -0.0003
vn -0.0000 -1.0000 -0.0002
vn 0.0032 -1.0000 -0.0009
vn -0.0001 -1.0000 -0.0005
vn 0.0002 -1.0000 0.0010
vn 0.0001 -1.0000 0.0015
vn -0.0003 -0.9984 -0.0566
vn -0.0003 -0.9987 -0.0511
vn -0.4736 0.8333 0.2853
vn 0.2376 0.9412 -0.2400
vn 0.3416 0.8559 -0.3884
vn 0.3471 0.8060 -0.4795
vn 0.0010 1.0000 0.0055
vn 0.0005 1.0000 0.0035
vn -0.0063 0.9997 -0.0244
vn 0.0008 -1.0000 0.0045
vn -0.0016 -0.9622 -0.2725
vn 0.0001 -1.0000 0.0004
vn 0.0001 -1.0000 0.0003
vn 0.0055 -1.0000 0.0010
vn 0.0001 -1.0000 -0.0038
vn 0.0008 -1.0000 0.0024
vn -0.0000 1.0000 -0.0000
vn -0.4324 0.8680 0.2442
vn -0.4532 0.8850 0.1064
vn -0.3382 0.9208 0.1944
vn -0.6527 -0.6635 0.3656
vn -0.5304 -0.8113 0.2459
vn -0.6337 -0.6315 0.4468
vn 0.0004 -1.0000 0.0019
vn -0.0067 -0.9997 -0.0230
vn 0.0095 -0.5523 0.8336
vn 0.7037 -0.7105 0.0109
vn 0.7796 -0.6262 0.0017
vn 0.0019 0.9998 -0.0174
vn 0.6466 -0.7625 0.0237
vn 0.6340 -0.7732 0.0175
vn 0.1339 -0.9389 0.3172
vn -0.0007 1.0000 -0.0022
vn 0.0010 1.0000 0.0056
vn -0.4871 0.8200 0.3004
vn -0.4788 -0.8296 0.2874
vn -0.4988 -0.8212 0.2772
vn -0.3576 -0.9196 0.1626
vn 0.0130 -0.5518 0.8339
vn 0.0003 1.0000 0.0013
vn 0.0004 -1.0000 0.0023
vn -0.0008 1.0000 -0.0087
vn 0.0010 -1.0000 0.0020
vn 0.0003 1.0000 0.0014
vn 0.0007 1.0000 0.0013
vn 0.0007 1.0000 0.0009
vn 0.0006 1.0000 0.0028
vn 0.0009 1.0000 0.0028
vn -0.0000 1.0000 0.0002
vn -0.0007 -1.0000 -0.0023
vn -0.0054 0.9998 -0.0187
vn 0.0305 0.9994 0.0135
vn 0.0083 0.9999 -0.0067
vn 0.4881 -0.8201 0.2988
vn 0.9399 -0.3288 0.0916
vn 0.9666 -0.2479 0.0657
vn 0.8364 -0.5256 0.1552
vn 0.6257 -0.5934 -0.5063
vn 0.9994 -0.0337 -0.0025
vn -0.4534 -0.8465 0.2789
vn -0.0335 -0.0013 -0.9994
vn 0.6938 0.0066 0.7202
vn 0.4838 0.0149 0.8751
vn 0.6123 0.5830 -0.5340
vn 0.5666 0.7409 0.3607
vn 0.9526 0.0530 0.2997
vn 0.3888 0.8161 -0.4275
vn 0.4654 0.6976 -0.5448
vn 0.2980 0.8900 -0.3452
vn 0.4720 0.7391 -0.4805
vn 0.5293 0.6536 -0.5410
vn 0.4838 0.5344 -0.6931
vn 0.6447 0.3481 -0.6806
vn 0.5618 0.4727 -0.6790
vn 0.6341 0.1956 -0.7481
vn 0.6554 0.0018 -0.7552
vn 0.6788 0.0365 -0.7334
vn 0.6297 -0.1485 -0.7625
vn 0.6249 -0.3366 -0.7044
vn 0.5983 -0.4231 -0.6804
vn 0.4825 -0.6790 -0.5532
vn 0.5415 -0.6173 -0.5707
vn 0.3835 -0.8004 -0.4606
vn 0.2775 -0.8994 -0.3378
vn 0.3460 -0.8558 -0.3846
vn 0.2884 0.9028 -0.3191
vn 0.1221 0.9614 -0.2466
vn 0.0090 0.9934 -0.1140
vn 0.0401 0.9918 -0.1211
vn 0.1123 -0.9650 -0.2372
vn 0.0058 -0.9943 -0.1069
vn 0.2658 -0.9126 -0.3106
vn 0.0564 -0.9913 -0.1192
vn -0.1770 -0.9820 0.0661
vn -0.3350 -0.9295 0.1541
vn -0.5201 -0.8154 0.2543
vn -0.6635 -0.6293 0.4046
vn -0.5668 -0.7745 0.2811
vn -0.5967 -0.6276 0.5001
vn -0.6587 -0.5457 0.5180
vn -0.8679 -0.3764 0.3241
vn -0.8217 -0.1109 0.5590
vn -0.8364 -0.2785 0.4720
vn -0.9051 0.1102 0.4108
vn -0.8162 0.2527 0.5196
vn -0.7953 0.3270 0.5105
vn -0.7637 0.5245 0.3764
vn -0.6084 0.7112 0.3522
vn -0.6179 0.6620 0.4243
vn -0.2060 0.9750 0.0833
vn 0.0006 -1.0000 0.0025
vn -0.0022 1.0000 0.0031
vn -0.0025 1.0000 0.0049
vn 0.4810 0.6638 -0.5728
vn 0.0078 1.0000 0.0015
vn -0.4579 0.8366 0.3006
vn 0.0002 -1.0000 0.0014
vn -0.5545 0.7358 -0.3887
vn -0.5479 0.7151 -0.4341
vn -0.9943 -0.1068 0.0038
vn -0.2484 -0.9677 -0.0428
vn -0.9961 -0.0067 0.0877
vn -0.9877 0.0433 -0.1503
vn 0.8565 -0.0021 0.5162
vn 0.6937 0.0067 0.7202
vn -0.0335 0.0015 -0.9994
vn 0.4856 0.7113 -0.5081
vn 0.4953 0.4910 -0.7167
vn 0.6506 0.2432 -0.7195
vn 0.5800 0.3971 -0.7113
vn 0.6201 0.0625 -0.7820
vn 0.6129 -0.0643 -0.7876
vn 0.6833 -0.2486 -0.6865
vn 0.5012 -0.4322 -0.7497
vn 0.4873 -0.6564 -0.5759
vn 0.5583 -0.5732 -0.5998
vn 0.4802 -0.7183 -0.5035
vn 0.3978 -0.8013 -0.4468
vn 0.3071 -0.8807 -0.3607
vn 0.2401 0.9291 -0.2812
vn 0.2654 0.9117 -0.3135
vn 0.0961 0.9639 -0.2485
vn 0.0162 0.9920 -0.1256
vn -0.0215 0.9978 -0.0624
vn 0.1652 -0.9504 -0.2636
vn 0.0370 -0.9914 -0.1254
vn 0.2807 -0.9052 -0.3193
vn 0.3343 -0.8725 -0.3563
vn 0.0368 -0.9915 -0.1248
vn -0.2015 -0.9762 0.0798
vn -0.7597 -0.5059 0.4086
vn -0.8236 -0.4171 0.3844
vn -0.8200 -0.2441 0.5177
vn -0.8739 -0.0748 0.4804
vn -0.8194 0.2179 0.5302
vn -0.8202 0.1343 0.5560
vn -0.8032 0.4175 0.4248
vn -0.7095 0.5532 0.4365
vn -0.6653 0.6317 0.3979
vn -0.5515 0.7654 0.3316
vn -0.5733 0.7333 0.3655
vn -0.3328 0.9252 0.1822
vn -0.1632 0.9849 0.0580
vn -0.3694 -0.9012 0.2268
vn 0.1268 0.9916 0.0244
vn 0.1249 0.9919 0.0217
vn 0.1265 0.9917 0.0240
vn -0.2718 0.1433 -0.9516
vn -0.3218 -0.1613 -0.9330
vn -0.2584 0.2040 -0.9443
vn 0.1291 0.9912 0.0277
vn 0.1697 0.4128 -0.8949
vn -0.1751 0.0039 -0.9845
vn -0.0946 -0.0886 -0.9916
vn -0.1175 0.0887 -0.9891
vn 0.2632 0.7606 -0.5934
vn 0.2671 0.7616 -0.5904
vn 0.2661 0.7614 -0.5912
vn 0.6008 0.2886 -0.7455
vn -0.0711 -0.9971 -0.0283
vn -0.6202 0.7426 -0.2527
vn -0.6823 0.6971 -0.2203
vn -0.6355 0.7322 -0.2451
vn -0.5750 0.7709 -0.2740
vn -0.6355 -0.7322 -0.2451
vn -0.6823 -0.6971 -0.2203
vn -0.6202 -0.7426 -0.2527
vn -0.5750 -0.7709 -0.2740
vn 0.6344 -0.7290 0.2572
vn 0.6150 -0.7420 0.2669
vn 0.5573 -0.7767 0.2936
vn 0.6924 -0.6852 0.2260
vn 0.6344 0.7290 0.2572
vn 0.5573 0.7767 0.2936
vn 0.6150 0.7420 0.2669
vn 0.6924 0.6852 0.2260
vn -0.5030 0.8212 -0.2697
vn -0.7156 -0.6196 -0.3226
vn -0.9491 -0.0401 -0.3124
vn 0.2626 0.1849 0.9470
vn 0.2651 0.2091 0.9413
vn 0.2211 -0.1029 0.9698
vn 0.9975 0.0117 -0.0692
vn 0.9761 -0.0428 -0.2132
vn 0.9500 -0.0117 0.3120
vn -0.2738 -0.0213 0.9615
vn 0.8932 0.0271 0.4488
vn 0.9237 -0.2026 0.3252
vn 0.4481 0.8597 0.2453
vn 0.3855 0.8835 0.2660
vn 0.4294 0.8673 0.2517
vn 0.7595 -0.1849 0.6236
vn 0.7532 -0.2091 0.6236
vn 0.9191 -0.0957 -0.3823
vn -0.3179 0.2030 0.9261
vn -0.3323 0.1548 0.9304
vn -0.3347 0.1465 0.9309
vn 0.2163 -0.1294 0.9677
vn -0.1260 0.9826 0.1366
vn -0.1724 0.9634 0.2054
vn -0.0951 0.9913 0.0911
vn -0.0525 0.9982 0.0286
vn -0.3605 0.1373 0.9226
vn 0.3792 -0.5567 -0.7391
vn -0.0489 0.1305 -0.9902
vn 0.2713 0.7626 -0.5872
vn -0.3343 -0.2937 -0.8955
vn 0.0332 0.1858 0.9820
vn 0.0305 0.1812 0.9830
vn 0.0258 0.1734 0.9845
vn 0.4313 -0.8800 0.1990
vn 0.1314 -0.9909 0.0276
vn 0.1316 -0.9909 0.0278
vn 0.1327 -0.9907 0.0295
vn 0.0664 0.9977 0.0097
vn -0.3144 0.2143 0.9248
vn 0.4931 0.8393 0.2291
vn 0.1306 -0.9911 0.0264
vn 0.9192 -0.0885 -0.3837
vn -0.0166 -0.1351 -0.9907
vn 0.0420 0.2006 0.9788
vn -0.2183 0.8696 0.4428
vn 0.9608 -0.0107 0.2771
vn 0.9996 -0.0185 0.0191
vn 0.2408 0.0222 0.9703
vn -0.0185 0.0279 0.9994
vn -0.2766 0.0318 0.9604
vn -0.5159 0.0335 0.8560
vn -0.2766 0.0318 0.9605
vn -0.7200 0.0329 0.6932
vn -0.8750 0.0300 0.4832
vn -0.7200 0.0328 0.6932
vn -0.9704 0.0251 0.2403
vn -0.9996 0.0185 -0.0191
vn -0.9608 0.0107 -0.2771
vn -0.8565 0.0021 -0.5162
vn -0.6937 -0.0066 -0.7202
vn -0.6938 -0.0067 -0.7202
vn -0.4838 -0.0149 -0.8751
vn -0.2408 -0.0222 -0.9703
vn 0.0185 -0.0279 -0.9994
vn 0.2766 -0.0318 -0.9604
vn 0.2766 -0.0318 -0.9605
vn 0.5159 -0.0335 -0.8560
vn 0.7200 -0.0329 -0.6932
vn 0.8750 -0.0300 -0.4832
vn 0.9704 -0.0251 -0.2403
vn 0.0191 0.9994 -0.0276
vn -0.0191 -0.9994 0.0276
vn 1.0000 0.0001 -0.0001
vn 0.9659 0.0067 0.2586
vn 0.9660 0.0067 0.2586
vn 0.8661 0.0129 0.4998
vn 0.7072 0.0182 0.7068
vn 0.5001 0.0223 0.8657
vn 0.2589 0.0248 0.9656
vn 0.0001 0.0257 0.9997
vn -0.2587 0.0248 0.9656
vn -0.4999 0.0222 0.8658
vn -0.7070 0.0181 0.7069
vn -0.8660 0.0128 0.4999
vn -0.9659 0.0066 0.2588
vn -1.0000 -0.0001 0.0001
vn -0.9659 -0.0067 -0.2586
vn -0.8661 -0.0129 -0.4998
vn -0.7072 -0.0182 -0.7068
vn -0.5001 -0.0223 -0.8657
vn -0.2589 -0.0248 -0.9656
vn -0.0001 -0.0257 -0.9997
vn 0.2587 -0.0248 -0.9656
vn 0.4999 -0.0222 -0.8658
vn 0.7070 -0.0181 -0.7069
vn 0.8660 -0.0128 -0.4999
vn 0.9659 -0.0066 -0.2588
vn -0.0001 0.9997 -0.0257
vn 0.0001 -0.9997 0.0257
vn 0.9996 0.0202 0.0208
vn 0.9707 0.0272 -0.2386
vn 0.9707 0.0272 -0.2385
vn 0.8758 0.0324 -0.4817
vn 0.7211 0.0353 -0.6919
vn 0.5173 0.0359 -0.8551
vn 0.2782 0.0340 -0.9599
vn 0.0202 0.0297 -0.9994
vn -0.2392 0.0235 -0.9707
vn -0.4823 0.0157 -0.8759
vn -0.6925 0.0067 -0.7214
vn -0.8556 -0.0026 -0.5177
vn -0.9603 -0.0118 -0.2788
vn -0.9996 -0.0202 -0.0208
vn -0.9707 -0.0272 0.2385
vn -0.8758 -0.0324 0.4817
vn -0.7211 -0.0353 0.6919
vn -0.5173 -0.0359 0.8551
vn -0.2782 -0.0340 0.9599
vn -0.0202 -0.0297 0.9994
vn 0.2392 -0.0235 0.9707
vn 0.4823 -0.0156 0.8759
vn 0.6925 -0.0067 0.7214
vn 0.8556 0.0026 0.5177
vn 0.9603 0.0118 0.2788
vn 0.0208 -0.9994 -0.0293
vn -0.0208 0.9994 0.0293
vn 0.9657 0.0059 -0.2596
vn 1.0000 -0.0009 -0.0009
vn 0.8656 0.0123 -0.5007
vn 0.8656 0.0123 -0.5006
vn 0.7065 0.0179 -0.7075
vn 0.4992 0.0222 -0.8662
vn 0.2579 0.0251 -0.9658
vn -0.0009 0.0262 -0.9997
vn -0.2597 0.0255 -0.9653
vn -0.5008 0.0231 -0.8653
vn -0.7078 0.0192 -0.7062
vn -0.8665 0.0139 -0.4990
vn -0.9662 0.0077 -0.2578
vn -1.0000 0.0009 0.0009
vn -0.9657 -0.0059 0.2596
vn -0.8656 -0.0123 0.5006
vn -0.7065 -0.0179 0.7075
vn -0.4992 -0.0222 0.8662
vn -0.2579 -0.0251 0.9658
vn 0.0009 -0.0262 0.9997
vn 0.2597 -0.0255 0.9654
vn 0.5008 -0.0231 0.8653
vn 0.7078 -0.0192 0.7062
vn 0.8665 -0.0139 0.4990
vn 0.9662 -0.0077 0.2578
vn -0.0009 -0.9997 -0.0262
vn 0.0009 0.9997 0.0262
s 1
usemtl dark
f 130//1 93//2 127//3
f 19//4 15//5 17//6
f 15//7 16//8 11//9
f 88//10 76//11 109//12
f 162//13 245//14 239//15
f 63//16 59//17 58//18
f 1//19 2//19 3//19
f 208//20 207//21 209//22
f 121//23 122//24 66//25
f 174//26 175//27 172//27
f 55//28 56//29 46//30
f 56//29 57//31 48//32
f 3//33 2//34 4//35
f 78//36 29//37 96//38
f 192//39 232//40 194//41
f 105//42 102//43 84//44
f 54//45 55//28 46//30
f 144//46 143//47 135//48
f 70//49 119//50 69//51
f 157//52 156//53 160//54
f 66//25 122//24 67//55
f 27//56 103//57 83//58
f 151//59 177//60 179//61
f 61//62 62//63 58//18
f 241//64 243//65 244//66
f 145//67 144//46 92//68
f 134//69 133//70 148//71
f 179//61 235//72 180//73
f 142//74 141//75 136//76
f 104//77 105//42 83//58
f 127//3 128//78 130//1
f 236//79 238//79 237//79
f 122//24 123//80 67//55
f 120//81 31//82 69//51
f 85//83 86//84 106//85
f 210//86 208//20 209//22
f 135//48 92//68 144//46
f 59//17 64//87 60//88
f 18//89 157//52 20//90
f 140//91 139//92 138//93
f 30//94 115//95 71//96
f 160//54 161//97 157//52
f 179//61 180//73 181//98
f 152//99 162//13 239//15
f 52//100 49//101 50//102
f 169//103 170//104 168//105
f 161//97 20//90 157//52
f 5//106 6//106 1//106
f 42//107 43//108 44//109
f 110//110 109//12 76//11
f 101//111 100//112 80//113
f 48//32 47//114 56//29
f 63//16 64//87 59//17
f 64//87 65//115 60//88
f 181//98 151//59 179//61
f 76//11 89//116 111//117
f 108//118 107//119 86//84
f 107//119 106//85 86//84
f 113//120 25//121 75//122
f 2//34 8//123 7//124
f 2//34 7//124 4//35
f 5//125 1//126 3//33
f 114//127 113//120 75//122
f 112//128 114//127 75//122
f 73//116 72//129 116//130
f 36//131 37//132 35//133
f 98//134 97//116 79//135
f 44//109 33//136 41//137
f 195//138 194//41 232//40
f 287//139 292//140 280//141
f 40//142 22//143 38//143
f 119//50 118//144 69//51
f 118//144 120//81 69//51
f 136//76 137//145 142//74
f 163//146 152//99 239//15
f 146//147 134//69 147//148
f 37//132 21//149 34//150
f 121//23 66//25 32//151
f 80//113 81//152 101//111
f 270//153 272//154 271//155
f 111//117 110//110 76//11
f 298//156 262//157 261//158
f 91//159 136//76 141//75
f 115//95 124//160 72//129
f 159//161 160//54 156//53
f 13//162 12//163 11//9
f 62//63 63//16 58//18
f 143//47 132//164 135//48
f 9//165 10//166 13//162
f 9//165 13//162 16//8
f 14//167 17//6 15//5
f 19//4 17//6 18//89
f 53//168 52//100 50//102
f 38//143 39//169 40//142
f 232//40 198//170 195//138
f 257//171 260//172 299//173
f 158//174 159//161 156//53
f 83//58 105//42 84//44
f 51//175 53//168 50//102
f 44//109 43//108 23//176
f 56//29 47//114 46//30
f 79//135 97//116 77//176
f 138//93 131//177 140//91
f 54//45 46//30 45//178
f 50//102 24//179 51//175
f 28//180 80//113 99//181
f 72//129 71//96 115//95
f 86//84 87//182 108//118
f 75//122 74//183 112//128
f 70//49 68//92 117//184
f 149//185 147//148 134//69
f 34//150 35//133 37//132
f 129//186 126//187 95//188
f 128//78 129//186 130//1
f 117//184 119//50 70//49
f 3//33 4//35 5//125
f 124//160 116//130 72//129
f 163//189 154//189 152//189
f 164//190 153//191 154//192
f 164//193 154//193 163//193
f 164//190 155//194 153//191
f 258//195 257//171 299//173
f 171//196 170//104 169//103
f 383//197 384//198 408//198
f 98//134 79//135 78//36
f 177//199 150//199 178//199
f 177//200 151//200 150//200
f 176//201 178//201 150//201
f 188//202 224//203 225//204
f 188//202 186//205 224//203
f 187//206 224//203 186//205
f 183//207 224//203 187//206
f 223//208 224//203 183//207
f 184//209 223//208 183//207
f 218//210 223//208 184//209
f 222//211 223//208 218//210
f 185//212 222//211 218//210
f 217//213 222//211 185//212
f 217//213 228//214 222//211
f 216//215 228//214 217//213
f 227//216 228//214 216//215
f 219//217 227//216 216//215
f 215//218 227//216 219//217
f 226//219 227//216 215//218
f 214//220 226//219 215//218
f 225//204 189//221 188//202
f 225//204 190//222 189//221
f 225//204 191//223 190//222
f 225//204 221//224 191//223
f 226//219 212//225 211//226
f 226//219 182//227 212//225
f 226//219 214//220 182//227
f 226//219 211//226 220//228
f 213//229 220//228 211//226
f 213//229 231//230 220//228
f 206//231 230//232 231//230
f 205//233 230//232 206//231
f 207//21 206//231 231//230
f 204//234 230//232 205//233
f 203//235 230//232 204//234
f 199//236 230//232 203//235
f 229//237 230//232 199//236
f 202//238 229//237 199//236
f 201//239 229//237 202//238
f 200//240 229//237 201//239
f 200//240 234//241 229//237
f 196//242 234//241 200//240
f 233//243 234//241 196//242
f 197//244 233//243 196//242
f 198//170 233//243 197//244
f 232//40 233//243 198//170
f 193//245 221//224 232//40
f 191//223 221//224 193//245
f 209//22 231//230 213//229
f 209//22 207//21 231//230
f 232//40 192//39 193//245
f 97//116 94//246 77//176
f 106//85 26//247 85//83
f 96//38 98//134 78//36
f 125//248 127//3 93//2
f 280//141 286//249 287//139
f 131//177 90//250 140//91
f 271//155 268//251 270//153
f 82//252 84//44 102//43
f 103//57 104//77 83//58
f 100//112 99//181 80//113
f 41//137 42//107 44//109
f 235//72 238//253 180//73
f 237//254 238//253 235//72
f 130//1 129//186 95//188
f 241//64 244//66 240//255
f 241//64 245//14 243//65
f 242//256 245//14 241//64
f 245//14 242//256 239//15
f 244//66 165//257 240//255
f 166//258 236//258 237//258
f 16//8 13//162 11//9
f 382//259 383//197 407//260
f 246//261 175//27 174//26
f 18//89 20//90 19//4
f 148//71 149//185 134//69
f 291//262 286//249 280//141
f 289//263 286//249 291//262
f 285//264 286//249 289//263
f 290//265 285//264 289//263
f 279//266 285//264 290//265
f 278//267 285//264 279//266
f 284//268 285//264 278//267
f 250//269 284//268 278//267
f 283//270 284//268 250//269
f 248//271 283//270 250//269
f 249//272 283//270 248//271
f 247//273 283//270 249//272
f 282//274 283//270 247//273
f 288//275 276//276 292//140
f 288//275 273//277 276//276
f 288//275 275//278 273//277
f 288//275 281//279 275//278
f 288//275 287//139 281//279
f 288//275 292//140 287//139
f 282//274 252//280 255//281
f 282//274 253//282 252//280
f 282//274 251//283 253//282
f 282//274 247//273 251//283
f 282//274 255//281 277//284
f 256//285 299//173 277//284
f 256//285 277//284 255//281
f 260//172 298//156 299//173
f 260//172 262//157 298//156
f 259//286 298//156 261//158
f 267//287 297//288 298//156
f 267//287 298//156 259//286
f 266//289 297//288 267//287
f 296//290 297//288 266//289
f 265//291 296//290 266//289
f 264//292 296//290 265//291
f 295//293 296//290 264//292
f 263//294 295//293 264//292
f 294//295 295//293 263//294
f 269//296 294//295 263//294
f 268//251 294//295 269//296
f 293//297 294//295 268//251
f 274//298 281//279 293//297
f 275//278 281//279 274//298
f 299//173 254//299 258//195
f 299//173 256//285 254//299
f 271//155 293//297 268//251
f 271//155 274//298 293//297
f 311//300 308//301 312//302
f 340//303 350//304 339//305
f 311//300 312//302 313//306
f 350//307 341//307 342//307
f 361//308 363//309 362//310
f 307//311 309//312 304//313
f 351//314 342//314 343//314
f 363//315 360//315 357//315
f 329//316 325//317 324//318
f 324//318 328//319 329//316
f 326//320 325//321 329//322
f 326//320 329//322 331//323
f 331//324 327//325 326//326
f 330//327 327//325 331//324
f 328//328 324//329 327//330
f 328//328 327//330 330//331
f 322//316 318//317 317//318
f 317//318 320//319 322//316
f 319//320 318//321 322//322
f 319//320 322//322 321//323
f 332//332 333//332 334//332
f 338//333 336//333 335//333
f 336//334 337//334 335//334
f 354//335 346//336 347//337
f 352//338 344//339 345//340
f 371//341 373//341 372//341
f 352//338 345//340 353//342
f 316//343 315//343 323//343
f 370//344 364//345 365//346
f 353//342 346//347 354//348
f 351//349 344//339 352//338
f 348//350 355//351 347//352
f 354//335 347//337 355//353
f 362//354 358//355 356//356
f 362//354 356//356 359//357
f 379//358 378//358 377//358
f 350//359 342//359 351//359
f 361//308 362//310 359//360
f 304//313 309//312 305//361
f 340//303 341//362 350//304
f 310//363 312//364 314//365
f 368//366 366//366 367//366
f 306//367 304//368 303//369
f 301//370 300//370 302//370
f 348//350 349//371 355//351
f 370//344 365//346 369//372
f 306//367 307//373 304//368
f 351//349 343//374 344//339
f 353//342 345//340 346//347
f 363//309 361//308 360//375
f 310//363 313//376 312//364
f 374//377 375//377 376//377
f 381//378 404//379 380//379
f 382//259 405//378 381//378
f 382//259 407//260 406//259
f 383//197 408//198 407//260
f 384//198 409//380 408//198
f 386//381 409//380 385//380
f 387//382 410//381 386//381
f 388//383 411//384 387//382
f 389//385 412//383 388//383
f 390//386 413//387 389//385
f 390//386 415//388 414//386
f 391//388 416//389 415//388
f 393//390 416//389 392//389
f 393//390 418//391 417//390
f 394//391 419//392 418//391
f 395//393 420//394 419//392
f 397//395 420//394 396//394
f 398//396 421//395 397//395
f 398//396 423//397 422//396
f 399//398 424//399 423//397
f 400//399 425//400 424//399
f 401//400 426//401 425//400
f 402//401 427//402 426//401
f 403//402 404//379 427//402
f 381//403 380//403 428//403
f 382//403 381//403 428//403
f 383//403 382//403 428//403
f 384//403 383//403 428//403
f 385//403 384//403 428//403
f 386//403 385//403 428//403
f 387//403 386//403 428//403
f 388//403 387//403 428//403
f 389//403 388//403 428//403
f 390//403 389//403 428//403
f 391//403 390//403 428//403
f 392//403 391//403 428//403
f 393//403 392//403 428//403
f 394//403 393//403 428//403
f 395//403 394//403 428//403
f 396//403 395//403 428//403
f 397//403 396//403 428//403
f 398//403 397//403 428//403
f 399//403 398//403 428//403
f 400//403 399//403 428//403
f 401//403 400//403 428//403
f 402//403 401//403 428//403
f 403//403 402//403 428//403
f 380//403 403//403 428//403
f 404//404 405//404 429//404
f 405//404 406//404 429//404
f 406//404 407//404 429//404
f 407//404 408//404 429//404
f 408//404 409//404 429//404
f 409//404 410//404 429//404
f 410//404 411//404 429//404
f 411//404 412//404 429//404
f 412//404 413//404 429//404
f 413//404 414//404 429//404
f 414//404 415//404 429//404
f 415//404 416//404 429//404
f 416//404 417//404 429//404
f 417//404 418//404 429//404
f 418//404 419//404 429//404
f 419//404 420//404 429//404
f 420//404 421//404 429//404
f 421//404 422//404 429//404
f 422//404 423//404 429//404
f 423//404 424//404 429//404
f 424//404 425//404 429//404
f 425//404 426//404 429//404
f 426//404 427//404 429//404
f 427//404 404//404 429//404
f 430//405 455//406 454//405
f 431//407 456//408 455//406
f 432//408 457//409 456//408
f 433//409 458//410 457//409
f 434//410 459//411 458//410
f 435//411 460//412 459//411
f 437//413 460//412 436//412
f 438//414 461//413 437//413
f 438//414 463//415 462//414
f 440//416 463//415 439//415
f 440//416 465//417 464//416
f 441//417 466//418 465//417
f 443//419 466//418 442//418
f 443//419 468//420 467//419
f 444//420 469//421 468//420
f 445//421 470//422 469//421
f 446//422 471//423 470//422
f 448//424 471//423 447//423
f 448//424 473//425 472//424
f 450//426 473//425 449//425
f 451//427 474//426 450//426
f 451//427 476//428 475//427
f 452//428 477//429 476//428
f 430//405 477//429 453//429
f 431//430 430//430 478//430
f 432//430 431//430 478//430
f 433//430 432//430 478//430
f 434//430 433//430 478//430
f 435//430 434//430 478//430
f 436//430 435//430 478//430
f 437//430 436//430 478//430
f 438//430 437//430 478//430
f 439//430 438//430 478//430
f 440//430 439//430 478//430
f 441//430 440//430 478//430
f 442//430 441//430 478//430
f 443//430 442//430 478//430
f 444//430 443//430 478//430
f 445//430 444//430 478//430
f 446//430 445//430 478//430
f 447//430 446//430 478//430
f 448//430 447//430 478//430
f 449//430 448//430 478//430
f 450//430 449//430 478//430
f 451//430 450//430 478//430
f 452//430 451//430 478//430
f 453//430 452//430 478//430
f 430//430 453//430 478//430
f 454//431 455//431 479//431
f 455//431 456//431 479//431
f 456//431 457//431 479//431
f 457//431 458//431 479//431
f 458//431 459//431 479//431
f 459//431 460//431 479//431
f 460//431 461//431 479//431
f 461//431 462//431 479//431
f 462//431 463//431 479//431
f 463//431 464//431 479//431
f 464//431 465//431 479//431
f 465//431 466//431 479//431
f 466//431 467//431 479//431
f 467//431 468//431 479//431
f 468//431 469//431 479//431
f 469//431 470//431 479//431
f 470//431 471//431 479//431
f 471//431 472//431 479//431
f 472//431 473//431 479//431
f 473//431 474//431 479//431
f 474//431 475//431 479//431
f 475//431 476//431 479//431
f 476//431 477//431 479//431
f 477//431 454//431 479//431
f 480//432 505//433 504//432
f 481//434 506//435 505//433
f 483//436 506//435 482//435
f 483//436 508//437 507//436
f 484//437 509//438 508//437
f 486//439 509//438 485//438
f 487//440 510//439 486//439
f 488//441 511//440 487//440
f 489//442 512//441 488//441
f 490//443 513//442 489//442
f 491//444 514//443 490//443
f 491//444 516//445 515//444
f 492//445 517//446 516//445
f 494//447 517//446 493//446
f 494//447 519//448 518//447
f 496//449 519//448 495//448
f 496//449 521//450 520//449
f 498//451 521//450 497//450
f 499//452 522//451 498//451
f 499//452 524//453 523//452
f 501//454 524//453 500//453
f 501//454 526//455 525//454
f 503//456 526//455 502//455
f 480//432 527//456 503//456
f 481//457 480//457 528//457
f 482//457 481//457 528//457
f 483//457 482//457 528//457
f 484//457 483//457 528//457
f 485//457 484//457 528//457
f 486//457 485//457 528//457
f 487//457 486//457 528//457
f 488//457 487//457 528//457
f 489//457 488//457 528//457
f 490//457 489//457 528//457
f 491//457 490//457 528//457
f 492//457 491//457 528//457
f 493//457 492//457 528//457
f 494//457 493//457 528//457
f 495//457 494//457 528//457
f 496//457 495//457 528//457
f 497//457 496//457 528//457
f 498//457 497//457 528//457
f 499//457 498//457 528//457
f 500//457 499//457 528//457
f 501//457 500//457 528//457
f 502//457 501//457 528//457
f 503//457 502//457 528//457
f 480//457 503//457 528//457
f 504//458 505//458 529//458
f 505//458 506//458 529//458
f 506//458 507//458 529//458
f 507//458 508//458 529//458
f 508//458 509//458 529//458
f 509//458 510//458 529//458
f 510//458 511//458 529//458
f 511//458 512//458 529//458
f 512//458 513//458 529//458
f 513//458 514//458 529//458
f 514//458 515//458 529//458
f 515//458 516//458 529//458
f 516//458 517//458 529//458
f 517//458 518//458 529//458
f 518//458 519//458 529//458
f 519//458 520//458 529//458
f 520//458 521//458 529//458
f 521//458 522//458 529//458
f 522//458 523//458 529//458
f 523//458 524//458 529//458
f 524//458 525//458 529//458
f 525//458 526//458 529//458
f 526//458 527//458 529//458
f 527//458 504//458 529//458
f 531//459 554//460 530//460
f 531//459 556//461 555//459
f 532//462 557//463 556//461
f 534//464 557//463 533//463
f 535//465 558//464 534//464
f 535//465 560//466 559//465
f 537//467 560//466 536//466
f 537//467 562//468 561//467
f 538//468 563//469 562//468
f 540//470 563//469 539//469
f 541//471 564//470 540//470
f 542//472 565//471 541//471
f 542//472 567//473 566//472
f 543//473 568//474 567//473
f 545//475 568//474 544//474
f 546//476 569//475 545//475
f 547//477 570//476 546//476
f 548//478 571//477 547//477
f 548//478 573//479 572//478
f 550//480 573//479 549//479
f 551//481 574//480 550//480
f 552//482 575//481 551//481
f 553//483 576//482 552//482
f 530//460 577//483 553//483
f 531//484 530//484 578//484
f 532//484 531//484 578//484
f 533//484 532//484 578//484
f 534//484 533//484 578//484
f 535//484 534//484 578//484
f 536//484 535//484 578//484
f 537//484 536//484 578//484
f 538//484 537//484 578//484
f 539//484 538//484 578//484
f 540//484 539//484 578//484
f 541//484 540//484 578//484
f 542//484 541//484 578//484
f 543//484 542//484 578//484
f 544//484 543//484 578//484
f 545//484 544//484 578//484
f 546//484 545//484 578//484
f 547//484 546//484 578//484
f 548//484 547//484 578//484
f 549//484 548//484 578//484
f 550//484 549//484 578//484
f 551//484 550//484 578//484
f 552//484 551//484 578//484
f 553//484 552//484 578//484
f 530//484 553//484 578//484
f 554//485 555//485 579//485
f 555//485 556//485 579//485
f 556//485 557//485 579//485
f 557//485 558//485 579//485
f 558//485 559//485 579//485
f 559//485 560//485 579//485
f 560//485 561//485 579//485
f 561//485 562//485 579//485
f 562//485 563//485 579//485
f 563//485 564//485 579//485
f 564//485 565//485 579//485
f 565//485 566//485 579//485
f 566//485 567//485 579//485
f 567//485 568//485 579//485
f 568//485 569//485 579//485
f 569//485 570//485 579//485
f 570//485 571//485 579//485
f 571//485 572//485 579//485
f 572//485 573//485 579//485
f 573//485 574//485 579//485
f 574//485 575//485 579//485
f 575//485 576//485 579//485
f 576//485 577//485 579//485
f 577//485 554//485 579//485
f 382//259 406//259 405//378
f 381//378 405//378 404//379
f 384//198 385//380 409//380
f 386//381 410//381 409//380
f 387//382 411//384 410//381
f 388//383 412//383 411//384
f 389//385 413//387 412//383
f 390//386 414//386 413//387
f 390//386 391//388 415//388
f 391//388 392//389 416//389
f 393//390 417//390 416//389
f 393//390 394//391 418//391
f 394//391 395//393 419//392
f 395//393 396//394 420//394
f 397//395 421//395 420//394
f 398//396 422//396 421//395
f 398//396 399//398 423//397
f 399//398 400//399 424//399
f 400//399 401//400 425//400
f 401//400 402//401 426//401
f 402//401 403//402 427//402
f 403//402 380//379 404//379
f 430//405 431//407 455//406
f 431//407 432//408 456//408
f 432//408 433//409 457//409
f 433//409 434//410 458//410
f 434//410 435//411 459//411
f 435//411 436//412 460//412
f 437//413 461//413 460//412
f 438//414 462//414 461//413
f 438//414 439//415 463//415
f 440//416 464//416 463//415
f 440//416 441//417 465//417
f 441//417 442//418 466//418
f 443//419 467//419 466//418
f 443//419 444//420 468//420
f 444//420 445//421 469//421
f 445//421 446//422 470//422
f 446//422 447//423 471//423
f 448//424 472//424 471//423
f 448//424 449//425 473//425
f 450//426 474//426 473//425
f 451//427 475//427 474//426
f 451//427 452//428 476//428
f 452//428 453//429 477//429
f 430//405 454//405 477//429
f 480//432 481//434 505//433
f 481//434 482//435 506//435
f 483//436 507//436 506//435
f 483//436 484//437 508//437
f 484//437 485//438 509//438
f 486//439 510//439 509//438
f 487//440 511//440 510//439
f 488//441 512//441 511//440
f 489//442 513//442 512//441
f 490//443 514//443 513//442
f 491//444 515//444 514//443
f 491//444 492//445 516//445
f 492//445 493//446 517//446
f 494//447 518//447 517//446
f 494//447 495//448 519//448
f 496//449 520//449 519//448
f 496//449 497//450 521//450
f 498//451 522//451 521//450
f 499//452 523//452 522//451
f 499//452 500//453 524//453
f 501//454 525//454 524//453
f 501//454 502//455 526//455
f 503//456 527//456 526//455
f 480//432 504//432 527//456
f 531//459 555//459 554//460
f 531//459 532//462 556//461
f 532//462 533//463 557//463
f 534//464 558//464 557//463
f 535//465 559//465 558//464
f 535//465 536//466 560//466
f 537//467 561//467 560//466
f 537//467 538//468 562//468
f 538//468 539//469 563//469
f 540//470 564//470 563//469
f 541//471 565//471 564//470
f 542//472 566//472 565//471
f 542//472 543//473 567//473
f 543//473 544//474 568//474
f 545//475 569//475 568//474
f 546//476 570//476 569//475
f 547//477 571//477 570//476
f 548//478 572//478 571//477
f 548//478 549//479 573//479
f 550//480 574//480 573//479
f 551//481 575//481 574//480
f 552//482 576//482 575//481
f 553//483 577//483 576//482
f 530//460 554//460 577//483
l 167 171
l 173 246
