# Blender 5.1.1
# www.blender.org
mtllib head_germanium.mtl
o head_germanium
v 0.022880 -0.004800 0.017800
v 0.022880 -0.005073 0.019871
v 0.022880 -0.005872 0.021800
v 0.022880 -0.007143 0.023457
v 0.022880 -0.008800 0.024728
v 0.022880 -0.010729 0.025527
v 0.022880 -0.012800 0.025800
v 0.022880 -0.014871 0.025527
v 0.022880 -0.016800 0.024728
v 0.022880 -0.018457 0.023457
v 0.022880 -0.019728 0.021800
v 0.022880 -0.020527 0.019871
v 0.022880 -0.020800 0.017800
v 0.022880 -0.020527 0.015729
v 0.022880 -0.019728 0.013800
v 0.022880 -0.018457 0.012143
v 0.022880 -0.016800 0.010872
v 0.022880 -0.014871 0.010073
v 0.022880 -0.012800 0.009800
v 0.022880 -0.010729 0.010073
v 0.022880 -0.008800 0.010872
v 0.022880 -0.007143 0.012143
v 0.022880 -0.005872 0.013800
v 0.022880 -0.005073 0.015729
v 0.021380 -0.004800 0.017800
v 0.021380 -0.005073 0.019871
v 0.021380 -0.005872 0.021800
v 0.021380 -0.007143 0.023457
v 0.021380 -0.008800 0.024728
v 0.021380 -0.010729 0.025527
v 0.021380 -0.012800 0.025800
v 0.021380 -0.014871 0.025527
v 0.021380 -0.016800 0.024728
v 0.021380 -0.018457 0.023457
v 0.021380 -0.019728 0.021800
v 0.021380 -0.020527 0.019871
v 0.021380 -0.020800 0.017800
v 0.021380 -0.020527 0.015729
v 0.021380 -0.019728 0.013800
v 0.021380 -0.018457 0.012143
v 0.021380 -0.016800 0.010872
v 0.021380 -0.014871 0.010073
v 0.021380 -0.012800 0.009800
v 0.021380 -0.010729 0.010073
v 0.021380 -0.008800 0.010872
v 0.021380 -0.007143 0.012143
v 0.021380 -0.005872 0.013800
v 0.021380 -0.005073 0.015729
vn 1.0000 -0.0000 -0.0000
vn -1.0000 -0.0000 -0.0000
vn -0.0000 0.9659 0.2588
vn -0.0000 1.0000 -0.0000
vn -0.0000 0.8660 0.5000
vn -0.0000 0.7071 0.7071
vn -0.0000 0.5000 0.8660
vn -0.0000 0.2588 0.9659
vn -0.0000 -0.0000 1.0000
vn -0.0000 -0.2588 0.9659
vn -0.0000 -0.5000 0.8660
vn -0.0000 -0.7071 0.7071
vn -0.0000 -0.8660 0.5000
vn -0.0000 -0.9659 0.2588
vn -0.0000 -1.0000 -0.0000
vn -0.0000 -0.9659 -0.2588
vn -0.0000 -0.8660 -0.5000
vn -0.0000 -0.7071 -0.7071
vn -0.0000 -0.5000 -0.8660
vn -0.0000 -0.2588 -0.9659
vn -0.0000 -0.0000 -1.0000
vn -0.0000 0.2588 -0.9659
vn -0.0000 0.5000 -0.8660
vn -0.0000 0.7071 -0.7071
vn -0.0000 0.8660 -0.5000
vn -0.0000 0.9659 -0.2588
s 1
usemtl germanium
f 2//1 3//1 14//1
f 47//2 46//2 35//2
f 26//3 1//4 25//4
f 27//5 2//3 26//3
f 28//6 3//5 27//5
f 29//7 4//6 28//6
f 30//8 5//7 29//7
f 31//9 6//8 30//8
f 32//10 7//9 31//9
f 33//11 8//10 32//10
f 34//12 9//11 33//11
f 35//13 10//12 34//12
f 36//14 11//13 35//13
f 37//15 12//14 36//14
f 38//16 13//15 37//15
f 39//17 14//16 38//16
f 40//18 15//17 39//17
f 41//19 16//18 40//18
f 42//20 17//19 41//19
f 43//21 18//20 42//20
f 44//22 19//21 43//21
f 45//23 20//22 44//22
f 46//24 21//23 45//23
f 47//25 22//24 46//24
f 48//26 23//25 47//25
f 25//4 24//26 48//26
f 24//1 1//1 2//1
f 3//1 4//1 5//1
f 23//1 24//1 2//1
f 3//1 5//1 6//1
f 22//1 23//1 2//1
f 3//1 6//1 7//1
f 21//1 22//1 2//1
f 3//1 7//1 8//1
f 20//1 21//1 2//1
f 3//1 8//1 9//1
f 19//1 20//1 2//1
f 3//1 9//1 10//1
f 18//1 19//1 2//1
f 3//1 10//1 11//1
f 17//1 18//1 2//1
f 3//1 11//1 12//1
f 16//1 17//1 2//1
f 3//1 12//1 13//1
f 15//1 16//1 2//1
f 3//1 13//1 14//1
f 14//1 15//1 2//1
f 25//2 48//2 47//2
f 46//2 45//2 44//2
f 26//2 25//2 47//2
f 46//2 44//2 43//2
f 27//2 26//2 47//2
f 46//2 43//2 42//2
f 28//2 27//2 47//2
f 46//2 42//2 41//2
f 29//2 28//2 47//2
f 46//2 41//2 40//2
f 30//2 29//2 47//2
f 46//2 40//2 39//2
f 31//2 30//2 47//2
f 46//2 39//2 38//2
f 32//2 31//2 47//2
f 46//2 38//2 37//2
f 33//2 32//2 47//2
f 46//2 37//2 36//2
f 34//2 33//2 47//2
f 46//2 36//2 35//2
f 35//2 34//2 47//2
f 26//3 2//3 1//4
f 27//5 3//5 2//3
f 28//6 4//6 3//5
f 29//7 5//7 4//6
f 30//8 6//8 5//7
f 31//9 7//9 6//8
f 32//10 8//10 7//9
f 33//11 9//11 8//10
f 34//12 10//12 9//11
f 35//13 11//13 10//12
f 36//14 12//14 11//13
f 37//15 13//15 12//14
f 38//16 14//16 13//15
f 39//17 15//17 14//16
f 40//18 16//18 15//17
f 41//19 17//19 16//18
f 42//20 18//20 17//19
f 43//21 19//21 18//20
f 44//22 20//22 19//21
f 45//23 21//23 20//22
f 46//24 22//24 21//23
f 47//25 23//25 22//24
f 48//26 24//26 23//25
f 25//4 1//4 24//26
