# Blender 5.1.1
# www.blender.org
mtllib head_coated.mtl
o head_coated
v 0.017700 0.022600 0.015800
v 0.017700 0.022397 0.020277
v 0.017700 0.021781 0.022023
v 0.017700 0.020723 0.023200
v 0.017700 0.019144 0.023989
v 0.017700 0.016803 0.024449
v 0.017700 0.010800 0.024600
v 0.017700 0.004797 0.024449
v 0.017700 0.002456 0.023989
v 0.017700 0.000877 0.023200
v 0.017700 -0.000181 0.022023
v 0.017700 -0.000797 0.020277
v 0.017700 -0.001000 0.015800
v 0.017700 -0.000797 0.011323
v 0.017700 -0.000181 0.009577
v 0.017700 0.000877 0.008400
v 0.017700 0.002456 0.007611
v 0.017700 0.004797 0.007151
v 0.017700 0.010800 0.007000
v 0.017700 0.016803 0.007151
v 0.017700 0.019144 0.007611
v 0.017700 0.020723 0.008400
v 0.017700 0.021781 0.009577
v 0.017700 0.022397 0.011323
v 0.016200 0.022600 0.015800
v 0.016200 0.022397 0.020277
v 0.016200 0.021781 0.022023
v 0.016200 0.020723 0.023200
v 0.016200 0.019144 0.023989
v 0.016200 0.016803 0.024449
v 0.016200 0.010800 0.024600
v 0.016200 0.004797 0.024449
v 0.016200 0.002456 0.023989
v 0.016200 0.000877 0.023200
v 0.016200 -0.000181 0.022023
v 0.016200 -0.000797 0.020277
v 0.016200 -0.001000 0.015800
v 0.016200 -0.000797 0.011323
v 0.016200 -0.000181 0.009577
v 0.016200 0.000877 0.008400
v 0.016200 0.002456 0.007611
v 0.016200 0.004797 0.007151
v 0.016200 0.010800 0.007000
v 0.016200 0.016803 0.007151
v 0.016200 0.019144 0.007611
v 0.016200 0.020723 0.008400
v 0.016200 0.021781 0.009577
v 0.016200 0.022397 0.011323
v 0.023100 0.005100 -0.004100
v 0.023100 0.004885 0.002056
v 0.023100 0.004233 0.004456
v 0.023100 0.003111 0.006075
v 0.023100 0.001439 0.007160
v 0.023100 -0.001041 0.007792
v 0.023100 -0.007400 0.008000
v 0.023100 -0.013759 0.007792
v 0.023100 -0.016239 0.007160
v 0.023100 -0.017911 0.006075
v 0.023100 -0.019033 0.004456
v 0.023100 -0.019685 0.002056
v 0.023100 -0.019900 -0.004100
v 0.023100 -0.019685 -0.010256
v 0.023100 -0.019033 -0.012656
v 0.023100 -0.017911 -0.014275
v 0.023100 -0.016239 -0.015360
v 0.023100 -0.013759 -0.015992
v 0.023100 -0.007400 -0.016200
v 0.023100 -0.001041 -0.015992
v 0.023100 0.001439 -0.015360
v 0.023100 0.003111 -0.014275
v 0.023100 0.004233 -0.012656
v 0.023100 0.004885 -0.010256
v 0.021600 0.005100 -0.004100
v 0.021600 0.004885 0.002056
v 0.021600 0.004233 0.004456
v 0.021600 0.003111 0.006075
v 0.021600 0.001439 0.007160
v 0.021600 -0.001041 0.007792
v 0.021600 -0.007400 0.008000
v 0.021600 -0.013759 0.007792
v 0.021600 -0.016239 0.007160
v 0.021600 -0.017911 0.006075
v 0.021600 -0.019033 0.004456
v 0.021600 -0.019685 0.002056
v 0.021600 -0.019900 -0.004100
v 0.021600 -0.019685 -0.010256
v 0.021600 -0.019033 -0.012656
v 0.021600 -0.017911 -0.014275
v 0.021600 -0.016239 -0.015360
v 0.021600 -0.013759 -0.015992
v 0.021600 -0.007400 -0.016200
v 0.021600 -0.001041 -0.015992
v 0.021600 0.001439 -0.015360
v 0.021600 0.003111 -0.014275
v 0.021600 0.004233 -0.012656
v 0.021600 0.004885 -0.010256
vn 1.0000 -0.0000 -0.0000
vn -1.0000 -0.0000 -0.0000
vn -0.0000 0.9816 0.1911
vn -0.0000 1.0000 -0.0000
vn -0.0000 0.8599 0.5105
vn -0.0000 0.6061 0.7954
vn -0.0000 0.3229 0.9464
vn -0.0000 0.6060 0.7954
vn -0.0000 0.1093 0.9940
vn -0.0000 -0.0000 1.0000
vn -0.0000 -0.1093 0.9940
vn -0.0000 -0.3229 0.9464
vn -0.0000 -0.6060 0.7954
vn -0.0000 -0.8599 0.5105
vn -0.0000 -0.6061 0.7954
vn -0.0000 -0.9816 0.1911
vn -0.0000 -1.0000 -0.0000
vn -0.0000 -0.9816 -0.1911
vn -0.0000 -0.8599 -0.5105
vn -0.0000 -0.6061 -0.7954
vn -0.0000 -0.3229 -0.9464
vn -0.0000 -0.6060 -0.7954
vn -0.0000 -0.1093 -0.9940
vn -0.0000 -0.0000 -1.0000
vn -0.0000 0.1093 -0.9940
vn -0.0000 0.3229 -0.9464
vn -0.0000 0.6060 -0.7954
vn -0.0000 0.8599 -0.5105
vn -0.0000 0.6061 -0.7954
vn -0.0000 0.9816 -0.1911
vn -0.0000 0.9887 0.1496
vn -0.0000 0.9066 0.4220
vn -0.0000 0.6964 0.7177
vn -0.0000 0.4010 0.9161
vn -0.0000 0.1406 0.9901
vn -0.0000 -0.1406 0.9901
vn -0.0000 -0.4010 0.9161
vn -0.0000 -0.6964 0.7177
vn -0.0000 -0.9066 0.4220
vn -0.0000 -0.9887 0.1496
vn -0.0000 -0.9887 -0.1496
vn -0.0000 -0.9066 -0.4220
vn -0.0000 -0.6964 -0.7177
vn -0.0000 -0.4010 -0.9161
vn -0.0000 -0.1406 -0.9901
vn -0.0000 0.1406 -0.9901
vn -0.0000 0.4010 -0.9161
vn -0.0000 0.6964 -0.7177
vn -0.0000 0.9066 -0.4220
vn -0.0000 0.9887 -0.1496
s 1
usemtl coated
f 2//1 3//1 14//1
f 47//2 46//2 35//2
f 26//3 1//4 25//4
f 27//5 2//3 26//3
f 28//6 3//5 27//5
f 29//7 4//8 28//6
f 30//9 5//7 29//7
f 31//10 6//9 30//9
f 32//11 7//10 31//10
f 33//12 8//11 32//11
f 34//13 9//12 33//12
f 35//14 10//15 34//13
f 36//16 11//14 35//14
f 37//17 12//16 36//16
f 38//18 13//17 37//17
f 39//19 14//18 38//18
f 40//20 15//19 39//19
f 41//21 16//22 40//20
f 42//23 17//21 41//21
f 43//24 18//23 42//23
f 44//25 19//24 43//24
f 45//26 20//25 44//25
f 46//27 21//26 45//26
f 47//28 22//29 46//27
f 48//30 23//28 47//28
f 25//4 24//30 48//30
f 24//1 1//1 2//1
f 3//1 4//1 5//1
f 23//1 24//1 2//1
f 3//1 5//1 6//1
f 22//1 23//1 2//1
f 3//1 6//1 7//1
f 21//1 22//1 2//1
f 3//1 7//1 8//1
f 20//1 21//1 2//1
f 3//1 8//1 9//1
f 19//1 20//1 2//1
f 3//1 9//1 10//1
f 18//1 19//1 2//1
f 3//1 10//1 11//1
f 17//1 18//1 2//1
f 3//1 11//1 12//1
f 16//1 17//1 2//1
f 3//1 12//1 13//1
f 15//1 16//1 2//1
f 3//1 13//1 14//1
f 14//1 15//1 2//1
f 25//2 48//2 47//2
f 46//2 45//2 44//2
f 26//2 25//2 47//2
f 46//2 44//2 43//2
f 27//2 26//2 47//2
f 46//2 43//2 42//2
f 28//2 27//2 47//2
f 46//2 42//2 41//2
f 29//2 28//2 47//2
f 46//2 41//2 40//2
f 30//2 29//2 47//2
f 46//2 40//2 39//2
f 31//2 30//2 47//2
f 46//2 39//2 38//2
f 32//2 31//2 47//2
f 46//2 38//2 37//2
f 33//2 32//2 47//2
f 46//2 37//2 36//2
f 34//2 33//2 47//2
f 46//2 36//2 35//2
f 35//2 34//2 47//2
f 26//3 2//3 1//4
f 27//5 3//5 2//3
f 28//6 4//8 3//5
f 29//7 5//7 4//8
f 30//9 6//9 5//7
f 31//10 7//10 6//9
f 32//11 8//11 7//10
f 33//12 9//12 8//11
f 34//13 10//15 9//12
f 35//14 11//14 10//15
f 36//16 12//16 11//14
f 37//17 13//17 12//16
f 38//18 14//18 13//17
f 39//19 15//19 14//18
f 40//20 16//22 15//19
f 41//21 17//21 16//22
f 42//23 18//23 17//21
f 43//24 19//24 18//23
f 44//25 20//25 19//24
f 45//26 21//26 20//25
f 46//27 22//29 21//26
f 47//28 23//28 22//29
f 48//30 24//30 23//28
f 25//4 1//4 24//30
f 50//1 51//1 62//1
f 95//2 94//2 83//2
f 74//31 49//4 73//4
f 75//32 50//31 74//31
f 76//33 51//32 75//32
f 77//34 52//33 76//33
f 78//35 53//34 77//34
f 79//10 54//35 78//35
f 80//36 55//10 79//10
f 81//37 56//36 80//36
f 82//38 57//37 81//37
f 83//39 58//38 82//38
f 84//40 59//39 83//39
f 85//17 60//40 84//40
f 86//41 61//17 85//17
f 87//42 62//41 86//41
f 88//43 63//42 87//42
f 89//44 64//43 88//43
f 90//45 65//44 89//44
f 91//24 66//45 90//45
f 92//46 67//24 91//24
f 93//47 68//46 92//46
f 94//48 69//47 93//47
f 95//49 70//48 94//48
f 96//50 71//49 95//49
f 73//4 72//50 96//50
f 72//1 49//1 50//1
f 51//1 52//1 53//1
f 71//1 72//1 50//1
f 51//1 53//1 54//1
f 70//1 71//1 50//1
f 51//1 54//1 55//1
f 69//1 70//1 50//1
f 51//1 55//1 56//1
f 68//1 69//1 50//1
f 51//1 56//1 57//1
f 67//1 68//1 50//1
f 51//1 57//1 58//1
f 66//1 67//1 50//1
f 51//1 58//1 59//1
f 65//1 66//1 50//1
f 51//1 59//1 60//1
f 64//1 65//1 50//1
f 51//1 60//1 61//1
f 63//1 64//1 50//1
f 51//1 61//1 62//1
f 62//1 63//1 50//1
f 73//2 96//2 95//2
f 94//2 93//2 92//2
f 74//2 73//2 95//2
f 94//2 92//2 91//2
f 75//2 74//2 95//2
f 94//2 91//2 90//2
f 76//2 75//2 95//2
f 94//2 90//2 89//2
f 77//2 76//2 95//2
f 94//2 89//2 88//2
f 78//2 77//2 95//2
f 94//2 88//2 87//2
f 79//2 78//2 95//2
f 94//2 87//2 86//2
f 80//2 79//2 95//2
f 94//2 86//2 85//2
f 81//2 80//2 95//2
f 94//2 85//2 84//2
f 82//2 81//2 95//2
f 94//2 84//2 83//2
f 83//2 82//2 95//2
f 74//31 50//31 49//4
f 75//32 51//32 50//31
f 76//33 52//33 51//32
f 77//34 53//34 52//33
f 78//35 54//35 53//34
f 79//10 55//10 54//35
f 80//36 56//36 55//10
f 81//37 57//37 56//36
f 82//38 58//38 57//37
f 83//39 59//39 58//38
f 84//40 60//40 59//39
f 85//17 61//17 60//40
f 86//41 62//41 61//17
f 87//42 63//42 62//41
f 88//43 64//43 63//42
f 89//44 65//44 64//43
f 90//45 66//45 65//44
f 91//24 67//24 66//45
f 92//46 68//46 67//24
f 93//47 69//47 68//46
f 94//48 70//48 69//47
f 95//49 71//49 70//48
f 96//50 72//50 71//49
f 73//4 49//4 72//50
