# Blender 5.1.1
# www.blender.org
mtllib head_glass.mtl
o head_glass
v 0.017597 -0.013312 0.008175
v 0.017549 -0.013277 0.008044
v 0.017608 -0.013617 0.007954
v 0.017678 -0.013725 0.008039
v 0.017601 -0.013516 0.008095
v 0.023504 -0.016481 -0.011156
v 0.023861 -0.017700 -0.011819
v 0.023506 -0.016362 -0.011700
v 0.023506 -0.016152 -0.012137
v 0.023506 -0.015846 -0.012524
v 0.023506 -0.015642 -0.012705
v 0.023506 -0.015419 -0.012859
v 0.023924 -0.015905 -0.013842
v 0.023902 -0.016475 -0.013573
v 0.023884 -0.016967 -0.013186
v 0.023828 -0.019020 -0.009923
v 0.023864 -0.017929 -0.009809
v 0.023809 -0.018518 -0.014774
v 0.023979 -0.014472 -0.014774
v 0.023979 -0.014585 -0.013980
v 0.023957 -0.015110 -0.013976
v 0.023940 -0.015533 -0.013934
v 0.023870 -0.017350 -0.012707
v 0.023864 -0.017565 -0.012279
v 0.023906 -0.019022 0.003598
v 0.023943 -0.018364 0.004575
v 0.023966 -0.017924 0.004912
v 0.023984 -0.017552 0.005100
v 0.024009 -0.017045 0.005262
v 0.024063 -0.015926 0.005546
v 0.024064 -0.016055 0.006328
v 0.023864 -0.020457 0.005194
v 0.023849 -0.020155 0.001114
v 0.023842 -0.019770 -0.002761
v 0.023510 -0.016775 0.002606
v 0.023508 -0.017160 0.002265
v 0.023510 -0.017456 0.001841
v 0.023510 -0.017645 0.001358
v 0.023510 -0.017711 0.000966
v 0.023509 -0.017705 0.000573
v 0.023504 -0.016634 -0.009674
v 0.023882 -0.018900 -0.000506
v 0.023891 -0.019176 0.003038
v 0.023921 -0.018725 0.004156
v 0.024008 -0.017065 0.005256
v 0.024628 -0.004262 0.008567
v 0.023511 -0.003613 0.006158
v 0.023510 -0.016069 0.002931
v 0.023510 -0.016402 0.002816
v 0.023510 -0.016593 0.002720
v 0.023814 -0.016872 0.004310
v 0.024023 -0.010899 0.005958
v 0.023776 -0.010735 0.005174
v 0.023981 -0.005046 0.006921
v 0.023511 -0.002350 0.006440
v 0.023511 -0.002783 0.006373
v 0.024647 -0.003831 0.008680
v 0.024692 -0.002936 0.008880
v 0.024717 -0.002386 0.008883
v 0.024742 -0.001792 0.008742
v 0.024765 -0.001241 0.008454
v 0.024781 -0.000781 0.008047
v 0.024791 -0.000472 0.007600
v 0.024795 -0.000237 0.007001
v 0.024794 0.000811 0.002394
v 0.024793 0.003649 -0.009983
v 0.024790 0.003920 -0.011492
v 0.024781 0.003850 -0.012062
v 0.024770 0.003687 -0.012524
v 0.024751 0.003366 -0.013036
v 0.024730 0.002967 -0.013431
v 0.024707 0.002498 -0.013725
v 0.024691 0.002150 -0.013860
v 0.024676 0.001792 -0.013938
v 0.024163 -0.010262 -0.013971
v 0.024678 0.002034 -0.014774
v 0.024816 0.005291 -0.014741
v 0.024820 -0.000304 0.009647
v 0.024816 -0.000558 0.010342
v 0.024646 -0.003893 0.008664
v 0.024646 -0.004059 0.009435
v 0.024465 -0.004253 0.010110
v 0.023910 -0.016211 0.007011
v 0.024259 -0.000934 0.012398
v 0.024240 -0.002001 0.012149
v 0.024369 -0.002087 0.011576
v 0.024822 0.000030 0.008982
v 0.024821 0.000425 0.008484
v 0.024821 0.000869 0.008118
v 0.024821 0.001373 0.007863
v 0.024821 0.001916 0.007719
v 0.024821 0.002616 0.007647
v 0.024821 0.005959 0.007628
v 0.024821 0.013748 0.007629
v 0.024821 0.011187 0.006742
v 0.024820 0.007018 0.003313
v 0.024820 0.005652 0.000964
v 0.024819 0.004875 -0.001641
v 0.024818 0.004732 -0.004355
v 0.024818 0.005230 -0.007027
v 0.023131 -0.020060 -0.012107
v 0.023462 -0.019775 -0.013534
v 0.023446 -0.021139 -0.014533
v 0.019861 -0.015906 0.026393
v 0.019841 -0.014718 0.026724
v 0.019856 -0.013497 0.026899
v 0.019896 -0.012265 0.026963
v 0.021105 -0.021671 0.018947
v 0.020707 -0.021218 0.021048
v 0.020398 -0.020366 0.022794
v 0.020170 -0.019273 0.024171
v 0.019995 -0.017935 0.025319
v 0.019913 -0.016957 0.025923
v 0.022057 -0.021513 0.014178
v 0.022090 -0.020519 0.014281
v 0.021834 -0.020634 0.015531
v 0.021223 -0.020700 0.018564
v 0.020849 -0.020346 0.020478
v 0.020574 -0.019699 0.021959
v 0.020337 -0.018723 0.023298
v 0.020150 -0.017444 0.024447
v 0.020034 -0.015988 0.025288
v 0.019996 -0.014784 0.025708
v 0.020008 -0.013547 0.025915
v 0.021124 -0.003541 0.023761
v 0.020212 -0.006112 0.026760
v 0.020075 -0.008245 0.026939
v 0.019975 -0.010390 0.026973
v 0.020314 -0.007019 0.025895
v 0.020386 -0.006219 0.025784
v 0.021163 -0.004490 0.023458
v 0.023875 -0.002213 0.013531
v 0.024109 -0.002026 0.012668
v 0.018315 0.002428 0.024204
v 0.018315 0.002844 0.024421
v 0.018315 0.003299 0.024535
v 0.018855 0.002054 0.025480
v 0.018315 0.004098 0.024573
v 0.018315 0.013926 0.024573
v 0.018575 0.008128 0.025143
v 0.024857 0.013836 0.007227
v 0.024921 0.016148 0.007440
v 0.025208 0.021981 0.006966
v 0.025024 0.023308 0.007128
v 0.025236 0.023669 0.006605
v 0.024866 0.005164 -0.003831
v 0.024869 0.005527 -0.000768
v 0.024987 0.005467 -0.001851
v 0.024987 0.005380 -0.004475
v 0.024982 0.005565 -0.005772
v 0.024868 0.005769 -0.007123
v 0.024869 0.005252 -0.002214
v 0.014044 0.021980 -0.021849
v 0.014044 0.021919 -0.022673
v 0.014044 0.021735 -0.023485
v 0.014044 0.021435 -0.024255
v 0.014043 0.021198 -0.024697
v 0.014043 0.020712 -0.025390
v 0.014043 0.020126 -0.026002
v 0.014043 0.019101 -0.026731
v 0.014043 0.017938 -0.027213
v 0.014043 0.016882 -0.027408
v 0.014043 0.015810 -0.027397
v 0.014043 0.014742 -0.027176
v 0.014043 0.013736 -0.026752
v 0.014043 0.012833 -0.026140
v 0.014043 0.012242 -0.025570
v 0.014043 0.011917 -0.025171
v 0.014043 0.011630 -0.024745
v 0.014044 0.011214 -0.023908
v 0.014044 0.010943 -0.023012
v 0.014044 0.010825 -0.022085
v 0.014044 0.010820 -0.021849
v 0.014044 0.010969 -0.020569
v 0.014045 0.011407 -0.019358
v 0.014045 0.012112 -0.018278
v 0.014045 0.013045 -0.017390
v 0.014045 0.014158 -0.016739
v 0.014045 0.015390 -0.016361
v 0.014045 0.016675 -0.016276
v 0.014045 0.017947 -0.016487
v 0.014045 0.019135 -0.016985
v 0.014045 0.020178 -0.017742
v 0.014045 0.021020 -0.018719
v 0.014045 0.021598 -0.019820
v 0.014044 0.021918 -0.021020
v 0.014044 0.011820 -0.021849
v 0.014044 0.011953 -0.022945
v 0.014044 0.012345 -0.023977
v 0.014043 0.012972 -0.024886
v 0.014043 0.013798 -0.025618
v 0.014043 0.014776 -0.026131
v 0.014043 0.015848 -0.026395
v 0.014043 0.016952 -0.026395
v 0.014043 0.018024 -0.026131
v 0.014043 0.019002 -0.025618
v 0.014043 0.019828 -0.024886
v 0.014044 0.020455 -0.023977
v 0.014044 0.020847 -0.022945
v 0.014044 0.020980 -0.021849
v 0.014044 0.020847 -0.020753
v 0.014045 0.020455 -0.019720
v 0.014045 0.019828 -0.018812
v 0.014045 0.019002 -0.018079
v 0.014045 0.018024 -0.017566
v 0.014045 0.016952 -0.017302
v 0.014045 0.015848 -0.017302
v 0.014045 0.014776 -0.017566
v 0.014045 0.013798 -0.018079
v 0.014045 0.012972 -0.018812
v 0.014045 0.012345 -0.019720
v 0.014044 0.011953 -0.020753
v 0.016665 0.015595 -0.027975
v 0.016337 0.015678 -0.029226
v 0.016392 0.017641 -0.029025
v 0.016660 0.020294 -0.028008
v 0.017083 0.020582 -0.026404
v 0.016857 0.019395 -0.027255
v 0.016711 0.018042 -0.027804
v 0.016656 0.016819 -0.028013
v 0.018851 0.000672 0.024565
v 0.019053 0.000112 0.023796
v 0.019446 -0.000853 0.024717
v 0.018315 0.001759 0.023429
v 0.018315 0.001966 0.023768
v 0.018315 0.002204 0.024026
v 0.018863 0.001230 0.025223
v 0.018870 0.000606 0.024477
v 0.018726 0.000824 0.023117
v 0.018311 0.016601 0.024575
v 0.018317 0.017111 0.024514
v 0.018315 0.017560 0.024355
v 0.018315 0.017911 0.024144
v 0.018315 0.018222 0.023865
v 0.018808 0.017983 0.026243
v 0.018876 0.019835 0.025759
v 0.018497 0.018024 0.025034
v 0.018314 0.018335 0.023733
v 0.018314 0.020075 0.021238
v 0.019875 0.023062 0.022304
v 0.018950 0.020165 0.025487
v 0.018567 0.019189 0.024134
v 0.018653 0.019949 0.023138
v 0.018992 0.020751 0.023631
v 0.019175 0.021626 0.022228
v 0.024820 0.024472 0.007628
v 0.024821 0.020610 0.007629
v 0.019231 0.022808 0.024225
v 0.018945 0.020149 0.025503
v 0.024580 0.022833 0.008352
v 0.024685 0.022422 0.008039
v 0.024759 0.021923 0.007816
v 0.024805 0.021325 0.007678
v 0.028080 0.024474 0.002250
v 0.028080 0.023020 0.003970
v 0.028081 0.021215 0.005319
v 0.028081 0.019154 0.006227
v 0.028081 0.016941 0.006648
v 0.028081 0.014693 0.006561
v 0.028081 0.010761 0.005057
v 0.028080 0.009121 0.003717
v 0.028080 0.007803 0.002060
v 0.028079 0.006864 0.000162
v 0.028079 0.006349 -0.001892
v 0.028078 0.006279 -0.004003
v 0.028078 0.006653 -0.006068
v 0.028077 0.007454 -0.008010
v 0.028077 0.008642 -0.009740
v 0.028076 0.011964 -0.012273
v 0.028076 0.013991 -0.012971
v 0.028076 0.016236 -0.013220
v 0.028076 0.018479 -0.012955
v 0.028076 0.020605 -0.012191
v 0.028077 0.022150 -0.011244
v 0.028079 0.025417 0.000469
v 0.028078 0.026067 -0.004536
v 0.028079 0.026069 -0.002025
v 0.028077 0.024469 -0.008801
v 0.028078 0.025220 -0.007467
v 0.028078 0.025148 -0.003272
v 0.028078 0.024880 -0.005448
v 0.028078 0.024082 -0.007510
v 0.028077 0.022803 -0.009313
v 0.028077 0.021120 -0.010747
v 0.028077 0.019138 -0.011725
v 0.028076 0.016976 -0.012187
v 0.028077 0.014767 -0.012105
v 0.028077 0.012646 -0.011484
v 0.028077 0.010741 -0.010362
v 0.028077 0.009170 -0.008807
v 0.028078 0.008028 -0.006914
v 0.028078 0.007449 -0.005130
v 0.028079 0.007254 -0.003272
v 0.028079 0.024887 -0.001126
v 0.028080 0.024120 0.000895
v 0.028080 0.022889 0.002673
v 0.028080 0.021269 0.004103
v 0.028081 0.019352 0.005104
v 0.028081 0.017252 0.005615
v 0.028081 0.015090 0.005608
v 0.028081 0.012993 0.005082
v 0.028080 0.011084 0.004069
v 0.028080 0.009473 0.002627
v 0.028080 0.008255 0.000841
v 0.028079 0.007508 -0.001155
v 0.026959 0.010050 -0.003272
v 0.026958 0.022350 -0.003272
v 0.026959 0.010229 -0.001800
v 0.026959 0.010754 -0.000414
v 0.026959 0.011597 0.000807
v 0.026960 0.012706 0.001790
v 0.026960 0.014019 0.002479
v 0.026960 0.015459 0.002834
v 0.026960 0.016941 0.002834
v 0.026959 0.018381 0.002479
v 0.026959 0.019694 0.001790
v 0.026959 0.020804 0.000807
v 0.026959 0.021646 -0.000414
v 0.026959 0.022172 -0.001800
v 0.026958 0.022172 -0.004744
v 0.026957 0.021646 -0.006130
v 0.026957 0.020804 -0.007350
v 0.026957 0.019694 -0.008333
v 0.026957 0.018381 -0.009022
v 0.026957 0.016941 -0.009377
v 0.026957 0.015459 -0.009377
v 0.026957 0.014019 -0.009022
v 0.026957 0.012706 -0.008333
v 0.026958 0.011597 -0.007350
v 0.026958 0.010754 -0.006130
v 0.026958 0.010229 -0.004744
v 0.020438 -0.005904 0.025693
v 0.020489 -0.005639 0.025582
v 0.019583 -0.007417 0.023396
v 0.019586 -0.008593 0.024343
v 0.019871 -0.007301 0.024423
v 0.020002 -0.008968 0.025544
v 0.019778 -0.009697 0.025277
v 0.023856 -0.017386 0.006709
v 0.023823 -0.017892 0.006623
v 0.023779 -0.018327 0.006636
v 0.023716 -0.018757 0.006751
v 0.023638 -0.019150 0.006959
v 0.023554 -0.019467 0.007236
v 0.023468 -0.019697 0.007565
v 0.023375 -0.019851 0.007972
v 0.023198 -0.019972 0.008829
v 0.019582 -0.006449 0.022233
v 0.019586 -0.005953 0.021386
v 0.019847 -0.005613 0.021881
v 0.024158 -0.010222 -0.014774
v 0.023506 -0.015244 -0.012954
v 0.023506 -0.015062 -0.013032
v 0.017612 0.022621 0.012779
v 0.017613 0.022622 0.017550
v 0.017611 0.019120 0.009280
v 0.017611 0.019899 0.009367
v 0.017612 0.020638 0.009626
v 0.017612 0.021302 0.010043
v 0.017612 0.021856 0.010597
v 0.017612 0.022274 0.011260
v 0.017612 0.022533 0.012000
v 0.017611 0.005691 0.009283
v 0.017612 0.001598 0.012544
v 0.017612 0.001909 0.011657
v 0.017612 0.002410 0.010862
v 0.017612 0.003074 0.010198
v 0.017612 0.003870 0.009698
v 0.017611 0.004757 0.009388
v 0.017614 -0.000527 0.021808
v 0.017615 0.002593 0.025724
v 0.017615 0.001880 0.025643
v 0.017615 0.000597 0.025025
v 0.017615 0.000090 0.024518
v 0.017615 -0.000292 0.023910
v 0.017615 -0.000528 0.023233
v 0.017614 -0.000608 0.022521
v 0.017615 0.016235 0.025720
v 0.017615 0.019379 0.024193
v 0.017615 0.018744 0.024835
v 0.017615 0.017982 0.025318
v 0.017614 0.022028 0.020037
v 0.017614 0.021237 0.021479
v 0.017615 0.020352 0.022867
v 0.017614 0.022555 0.018407
v 0.017614 0.022355 0.019243
v 0.026258 0.007900 -0.003270
v 0.026258 0.008141 -0.005256
v 0.026258 0.008850 -0.007127
v 0.026257 0.009986 -0.008774
v 0.026257 0.011483 -0.010101
v 0.026257 0.013255 -0.011032
v 0.026257 0.015198 -0.011511
v 0.026257 0.017199 -0.011511
v 0.026257 0.019142 -0.011033
v 0.026257 0.020913 -0.010103
v 0.026257 0.022411 -0.008777
v 0.026258 0.023548 -0.007130
v 0.026258 0.024258 -0.005260
v 0.026258 0.024500 -0.003273
v 0.026259 0.024259 -0.001287
v 0.026259 0.023550 0.000584
v 0.026260 0.022414 0.002231
v 0.026260 0.020916 0.003558
v 0.026260 0.019145 0.004488
v 0.026260 0.017202 0.004968
v 0.026260 0.015201 0.004968
v 0.026260 0.013259 0.004490
v 0.026260 0.011487 0.003560
v 0.026260 0.009989 0.002234
v 0.026259 0.008852 0.000587
v 0.026259 0.008142 -0.001283
v 0.022810 -0.000087 0.004735
v 0.022811 -0.000254 0.005208
v 0.022811 -0.000524 0.005631
v 0.022811 -0.000882 0.005981
v 0.022811 -0.001311 0.006242
v 0.022811 -0.001787 0.006398
v 0.022811 -0.002287 0.006443
v 0.022811 -0.002783 0.006373
v 0.022807 0.003403 -0.010482
v 0.022806 0.001259 -0.013174
v 0.022806 0.001748 -0.013118
v 0.022806 0.002213 -0.012956
v 0.022806 0.002631 -0.012693
v 0.022806 0.002979 -0.012344
v 0.022806 0.003241 -0.011927
v 0.022807 0.003404 -0.011461
v 0.022807 0.003458 -0.010972
v 0.022806 -0.014285 -0.013174
v 0.022807 -0.016473 -0.011203
v 0.022807 -0.016353 -0.011725
v 0.022806 -0.016109 -0.012203
v 0.022806 -0.015758 -0.012608
v 0.022806 -0.015318 -0.012916
v 0.022806 -0.014817 -0.013108
v 0.022809 -0.017705 0.000573
v 0.022810 -0.016069 0.002931
v 0.022810 -0.016553 0.002742
v 0.022810 -0.016980 0.002445
v 0.022810 -0.017324 0.002056
v 0.022810 -0.017568 0.001596
v 0.022810 -0.017698 0.001093
v 0.012944 0.010670 -0.021848
v 0.012944 0.010836 -0.023220
v 0.012943 0.011326 -0.024511
v 0.012943 0.012111 -0.025648
v 0.012943 0.013145 -0.026564
v 0.012943 0.014368 -0.027206
v 0.012943 0.015709 -0.027537
v 0.012943 0.017091 -0.027537
v 0.012943 0.018432 -0.027206
v 0.012943 0.019655 -0.026564
v 0.012943 0.020689 -0.025648
v 0.012943 0.021474 -0.024511
v 0.012944 0.021963 -0.023220
v 0.012944 0.022130 -0.021848
v 0.012945 0.021963 -0.020477
v 0.012945 0.021474 -0.019186
v 0.012945 0.020689 -0.018049
v 0.012945 0.019655 -0.017133
v 0.012945 0.018432 -0.016491
v 0.012946 0.017091 -0.016160
v 0.012946 0.015709 -0.016160
v 0.012945 0.014368 -0.016491
v 0.012945 0.013145 -0.017133
v 0.012945 0.012111 -0.018049
v 0.012945 0.011326 -0.019186
v 0.012945 0.010836 -0.020477
v 0.016935 -0.006700 0.017931
v 0.016935 -0.006877 0.016471
v 0.016935 -0.008234 0.013886
v 0.016934 -0.010637 0.012227
v 0.016934 -0.013535 0.011875
v 0.016934 -0.016265 0.012910
v 0.016935 -0.018201 0.015096
v 0.018158 -0.009288 0.017930
v 0.018617 -0.011018 0.017930
v 0.018545 -0.015017 0.017930
v 0.017897 -0.016979 0.017930
v 0.018549 -0.010910 0.016938
v 0.017896 -0.009100 0.015988
v 0.017896 -0.010426 0.014491
v 0.018548 -0.011588 0.016174
v 0.018548 -0.012543 0.015812
v 0.017896 -0.012296 0.013782
v 0.018548 -0.013557 0.015935
v 0.017896 -0.014282 0.014023
v 0.017896 -0.015928 0.015159
v 0.018548 -0.014397 0.016515
v 0.017897 -0.016857 0.016930
v 0.018721 -0.011959 0.017303
v 0.018726 -0.013703 0.017422
v 0.018751 -0.012688 0.017228
v 0.018772 -0.012800 0.017930
v 0.018587 -0.010761 0.017930
v 0.016936 -0.018723 0.019390
v 0.016936 -0.017366 0.021976
v 0.016937 -0.014963 0.023634
v 0.016937 -0.012065 0.023986
v 0.016937 -0.009335 0.022951
v 0.016936 -0.007399 0.020765
v 0.018549 -0.014934 0.017930
v 0.017897 -0.016500 0.019872
v 0.018549 -0.014690 0.018922
v 0.017898 -0.015174 0.021370
v 0.018549 -0.014012 0.019687
v 0.018549 -0.013057 0.020049
v 0.017898 -0.013304 0.022079
v 0.017898 -0.011318 0.021838
v 0.018549 -0.012043 0.019926
v 0.018549 -0.011203 0.019345
v 0.017898 -0.009672 0.020702
v 0.017897 -0.008742 0.018930
v 0.018722 -0.013660 0.018528
v 0.018725 -0.011928 0.018492
v 0.018751 -0.012912 0.018632
v 0.017496 -0.006300 0.017930
v 0.017497 -0.006500 0.019532
v 0.017497 -0.007089 0.021035
v 0.017497 -0.008030 0.022346
v 0.017498 -0.009265 0.023385
v 0.017498 -0.010719 0.024088
v 0.017498 -0.012300 0.024411
v 0.017495 -0.012300 0.011450
v 0.017495 -0.010719 0.011773
v 0.017495 -0.009265 0.012475
v 0.017495 -0.008030 0.013515
v 0.017496 -0.007089 0.014826
v 0.017496 -0.006500 0.016329
v 0.017495 -0.012300 0.010748
v 0.017495 -0.012800 0.010728
v 0.017495 -0.013300 0.010748
v 0.017495 -0.013300 0.011450
v 0.017496 -0.019300 0.017930
v 0.017496 -0.019100 0.016329
v 0.017496 -0.018511 0.014826
v 0.017495 -0.017570 0.013515
v 0.017495 -0.016335 0.012475
v 0.017495 -0.014881 0.011773
v 0.017498 -0.013300 0.024411
v 0.017498 -0.014881 0.024088
v 0.017498 -0.016335 0.023385
v 0.017497 -0.017570 0.022346
v 0.017497 -0.018511 0.021035
v 0.017497 -0.019100 0.019532
v 0.017498 -0.013300 0.025113
v 0.017498 -0.012800 0.025132
v 0.017498 -0.012300 0.025113
v 0.017496 -0.006500 0.017930
v 0.017496 -0.006683 0.016423
v 0.017496 -0.007222 0.015003
v 0.017495 -0.008084 0.013753
v 0.017495 -0.009221 0.012746
v 0.017495 -0.010566 0.012040
v 0.017495 -0.012041 0.011676
v 0.017495 -0.013559 0.011676
v 0.017495 -0.015034 0.012040
v 0.017495 -0.016379 0.012746
v 0.017495 -0.017516 0.013753
v 0.017496 -0.018378 0.015003
v 0.017496 -0.018917 0.016423
v 0.017496 -0.019100 0.017930
v 0.017497 -0.018917 0.019438
v 0.017497 -0.018378 0.020858
v 0.017497 -0.017516 0.022108
v 0.017498 -0.016379 0.023115
v 0.017498 -0.015034 0.023821
v 0.017498 -0.013559 0.024185
v 0.017498 -0.012041 0.024185
v 0.017498 -0.010566 0.023821
v 0.017498 -0.009221 0.023115
v 0.017497 -0.008084 0.022108
v 0.017497 -0.007222 0.020858
v 0.017497 -0.006683 0.019438
v 0.017998 -0.012300 0.024612
v 0.017998 -0.012300 0.024411
v 0.017997 -0.006100 0.017930
v 0.017997 -0.006307 0.019584
v 0.017997 -0.006916 0.021135
v 0.017998 -0.007889 0.022488
v 0.017998 -0.009165 0.023559
v 0.017998 -0.010667 0.024282
v 0.017995 -0.012300 0.011249
v 0.017995 -0.010667 0.011579
v 0.017995 -0.009165 0.012302
v 0.017995 -0.007889 0.013373
v 0.017996 -0.006916 0.014726
v 0.017996 -0.006307 0.016277
v 0.017995 -0.012300 0.011450
v 0.017997 -0.006300 0.017930
v 0.017996 -0.006500 0.016329
v 0.017996 -0.007089 0.014826
v 0.017995 -0.008030 0.013514
v 0.017995 -0.009265 0.012475
v 0.017995 -0.010719 0.011773
v 0.017998 -0.010719 0.024088
v 0.017998 -0.009265 0.023385
v 0.017998 -0.008030 0.022346
v 0.017997 -0.007089 0.021035
v 0.017997 -0.006500 0.019532
v 0.018498 -0.012300 0.024712
v 0.018498 -0.012300 0.025013
v 0.018498 -0.010693 0.024710
v 0.018498 -0.009198 0.024049
v 0.018498 -0.007893 0.023062
v 0.018497 -0.006850 0.021804
v 0.018497 -0.006121 0.020340
v 0.018497 -0.005747 0.018748
v 0.018496 -0.005747 0.017113
v 0.018496 -0.006121 0.015521
v 0.018496 -0.006850 0.014057
v 0.018495 -0.007893 0.012798
v 0.018495 -0.009198 0.011812
v 0.018495 -0.010693 0.011150
v 0.018495 -0.012300 0.010848
v 0.018495 -0.012300 0.011149
v 0.018495 -0.010641 0.011482
v 0.018495 -0.009115 0.012215
v 0.018495 -0.007818 0.013302
v 0.018496 -0.006829 0.014676
v 0.018496 -0.006211 0.016251
v 0.018496 -0.006000 0.017930
v 0.018497 -0.006211 0.019609
v 0.018497 -0.006829 0.021185
v 0.018498 -0.007818 0.022558
v 0.018498 -0.009115 0.023645
v 0.018498 -0.010641 0.024378
v 0.017998 -0.013300 0.024612
v 0.017998 -0.013300 0.024411
v 0.017997 -0.019300 0.017930
v 0.017997 -0.019100 0.019532
v 0.017997 -0.018511 0.021035
v 0.017998 -0.017570 0.022346
v 0.017998 -0.016335 0.023385
v 0.017998 -0.014881 0.024088
v 0.017995 -0.013300 0.011450
v 0.017995 -0.014881 0.011773
v 0.017995 -0.016335 0.012475
v 0.017995 -0.017570 0.013514
v 0.017996 -0.018511 0.014826
v 0.017996 -0.019100 0.016329
v 0.017995 -0.013300 0.011249
v 0.017997 -0.019500 0.017930
v 0.017996 -0.019293 0.016277
v 0.017996 -0.018684 0.014726
v 0.017995 -0.017711 0.013373
v 0.017995 -0.016435 0.012302
v 0.017995 -0.014933 0.011579
v 0.017998 -0.014933 0.024282
v 0.017998 -0.016435 0.023559
v 0.017998 -0.017711 0.022488
v 0.017997 -0.018684 0.021135
v 0.017997 -0.019293 0.019584
v 0.018498 -0.013300 0.025013
v 0.018498 -0.013300 0.024712
v 0.018498 -0.014959 0.024378
v 0.018498 -0.016485 0.023645
v 0.018498 -0.017782 0.022558
v 0.018497 -0.018771 0.021185
v 0.018497 -0.019389 0.019609
v 0.018496 -0.019600 0.017930
v 0.018496 -0.019389 0.016251
v 0.018496 -0.018771 0.014676
v 0.018495 -0.017782 0.013302
v 0.018495 -0.016485 0.012215
v 0.018495 -0.014959 0.011482
v 0.018495 -0.013300 0.011149
v 0.018495 -0.013300 0.010848
v 0.018495 -0.014907 0.011150
v 0.018495 -0.016402 0.011812
v 0.018495 -0.017706 0.012798
v 0.018496 -0.018750 0.014057
v 0.018496 -0.019479 0.015521
v 0.018496 -0.019853 0.017113
v 0.018497 -0.019853 0.018748
v 0.018497 -0.019479 0.020340
v 0.018497 -0.018750 0.021804
v 0.018498 -0.017706 0.023062
v 0.018498 -0.016402 0.024049
v 0.018498 -0.014907 0.024710
v 0.013000 0.021400 -0.021800
v 0.013000 0.021230 -0.020506
v 0.013000 0.020730 -0.019300
v 0.013000 0.019936 -0.018264
v 0.013000 0.018900 -0.017470
v 0.013000 0.017694 -0.016970
v 0.013000 0.016400 -0.016800
v 0.013000 0.015106 -0.016970
v 0.013000 0.013900 -0.017470
v 0.013000 0.012864 -0.018264
v 0.013000 0.012070 -0.019300
v 0.013000 0.011570 -0.020506
v 0.013000 0.011400 -0.021800
v 0.013000 0.011570 -0.023094
v 0.013000 0.012070 -0.024300
v 0.013000 0.012864 -0.025336
v 0.013000 0.013900 -0.026130
v 0.013000 0.015106 -0.026630
v 0.013000 0.016400 -0.026800
v 0.013000 0.017694 -0.026630
v 0.013000 0.018900 -0.026130
v 0.013000 0.019936 -0.025336
v 0.013000 0.020730 -0.024300
v 0.013000 0.021230 -0.023094
v 0.011500 0.021400 -0.021800
v 0.011500 0.021230 -0.020506
v 0.011500 0.020730 -0.019300
v 0.011500 0.019936 -0.018264
v 0.011500 0.018900 -0.017470
v 0.011500 0.017694 -0.016970
v 0.011500 0.016400 -0.016800
v 0.011500 0.015106 -0.016970
v 0.011500 0.013900 -0.017470
v 0.011500 0.012864 -0.018264
v 0.011500 0.012070 -0.019300
v 0.011500 0.011570 -0.020506
v 0.011500 0.011400 -0.021800
v 0.011500 0.011570 -0.023094
v 0.011500 0.012070 -0.024300
v 0.011500 0.012864 -0.025336
v 0.011500 0.013900 -0.026130
v 0.011500 0.015106 -0.026630
v 0.011500 0.016400 -0.026800
v 0.011500 0.017694 -0.026630
v 0.011500 0.018900 -0.026130
v 0.011500 0.019936 -0.025336
v 0.011500 0.020730 -0.024300
v 0.011500 0.021230 -0.023094
v 0.028185 0.024700 -0.003300
v 0.028185 0.024410 -0.001100
v 0.028185 0.023561 0.000950
v 0.028185 0.022210 0.002710
v 0.028185 0.020450 0.004061
v 0.028185 0.018400 0.004910
v 0.028185 0.016200 0.005200
v 0.028185 0.014000 0.004910
v 0.028185 0.011950 0.004061
v 0.028185 0.010190 0.002710
v 0.028185 0.008839 0.000950
v 0.028185 0.007990 -0.001100
v 0.028185 0.007700 -0.003300
v 0.028185 0.007990 -0.005500
v 0.028185 0.008839 -0.007550
v 0.028185 0.010190 -0.009310
v 0.028185 0.011950 -0.010661
v 0.028185 0.014000 -0.011510
v 0.028185 0.016200 -0.011800
v 0.028185 0.018400 -0.011510
v 0.028185 0.020450 -0.010661
v 0.028185 0.022210 -0.009310
v 0.028185 0.023561 -0.007550
v 0.028185 0.024410 -0.005500
v 0.026685 0.024700 -0.003300
v 0.026685 0.024410 -0.001100
v 0.026685 0.023561 0.000950
v 0.026685 0.022210 0.002710
v 0.026685 0.020450 0.004061
v 0.026685 0.018400 0.004910
v 0.026685 0.016200 0.005200
v 0.026685 0.014000 0.004910
v 0.026685 0.011950 0.004061
v 0.026685 0.010190 0.002710
v 0.026685 0.008839 0.000950
v 0.026685 0.007990 -0.001100
v 0.026685 0.007700 -0.003300
v 0.026685 0.007990 -0.005500
v 0.026685 0.008839 -0.007550
v 0.026685 0.010190 -0.009310
v 0.026685 0.011950 -0.010661
v 0.026685 0.014000 -0.011510
v 0.026685 0.016200 -0.011800
v 0.026685 0.018400 -0.011510
v 0.026685 0.020450 -0.010661
v 0.026685 0.022210 -0.009310
v 0.026685 0.023561 -0.007550
v 0.026685 0.024410 -0.005500
vn 0.9591 0.2296 -0.1653
vn 0.9570 0.1581 -0.2432
vn 0.9412 0.1409 -0.3071
vn 0.9238 0.3307 -0.1929
vn 0.8907 0.3885 -0.2360
vn 0.9433 0.1921 0.2708
vn 0.9863 0.0258 0.1628
vn 0.9338 0.1878 0.3045
vn 0.9913 0.0503 0.1218
vn 0.9544 0.2078 0.2143
vn 0.9943 0.0767 0.0742
vn 0.9991 -0.0422 -0.0061
vn 0.9644 0.2222 0.1437
vn 0.9948 0.0914 0.0451
vn 0.9642 0.2618 0.0423
vn 0.9946 0.1009 0.0238
vn 0.9655 0.2463 0.0843
vn 0.9992 -0.0405 -0.0062
vn 0.9930 0.1172 0.0111
vn 0.9994 -0.0331 -0.0057
vn 0.9991 -0.0421 -0.0062
vn 0.9903 -0.0278 0.1359
vn 0.9809 -0.0018 0.1946
vn 0.9991 -0.0421 -0.0064
vn 0.9995 -0.0325 -0.0051
vn 0.9994 -0.0330 -0.0053
vn 0.9925 0.1218 0.0102
vn 0.9955 -0.0606 0.0729
vn 0.9977 0.0603 -0.0321
vn 0.9996 -0.0188 -0.0204
vn 0.9977 0.0318 -0.0603
vn 0.9970 0.0140 -0.0758
vn 0.9964 0.0035 -0.0851
vn 0.9955 -0.0075 -0.0948
vn 0.9929 -0.0718 0.0950
vn 0.9989 -0.0461 -0.0084
vn 0.9989 -0.0462 -0.0082
vn 0.9636 0.2660 0.0272
vn 0.9612 0.2750 0.0193
vn 0.9699 0.2433 -0.0062
vn 0.9799 0.1946 -0.0450
vn 0.9839 0.1598 -0.0798
vn 0.9852 0.1270 -0.1154
vn 0.9836 0.1051 -0.1465
vn 0.9810 0.0319 -0.1916
vn 0.9792 0.0188 -0.2021
vn 0.9823 0.0891 -0.1647
vn 0.9815 0.0752 -0.1762
vn 0.9798 0.0480 -0.1942
vn 0.9538 0.0422 -0.2974
vn 0.9545 0.0628 -0.2915
vn 0.9149 0.0700 -0.3975
vn 0.9135 0.0933 -0.3960
vn 0.9154 0.0816 -0.3943
vn 0.9083 0.0631 -0.4136
vn 0.9083 0.0818 -0.4103
vn 0.9059 0.0616 -0.4190
vn 0.9036 0.0502 -0.4254
vn 0.9989 -0.0456 -0.0105
vn 0.9989 -0.0457 -0.0104
vn 0.9990 -0.0430 -0.0099
vn 0.9989 -0.0455 -0.0106
vn 0.9989 -0.0453 -0.0106
vn 0.9989 -0.0458 -0.0106
vn 0.9991 -0.0424 -0.0098
vn 0.9991 -0.0423 -0.0098
vn 0.9991 -0.0424 -0.0099
vn 0.9993 -0.0366 -0.0085
vn 0.9990 -0.0428 -0.0100
vn 0.9990 -0.0426 -0.0099
vn 0.9990 -0.0425 -0.0099
vn 0.9989 -0.0459 -0.0097
vn 0.9910 -0.0756 0.1102
vn 0.9678 -0.1043 0.2292
vn 0.9753 -0.0972 0.1984
vn 0.9672 -0.0784 0.2414
vn 0.9696 -0.0717 0.2339
vn 0.9677 -0.0785 0.2397
vn 0.9656 -0.0833 0.2462
vn 1.0000 -0.0000 -0.0002
vn 1.0000 -0.0016 0.0043
vn 0.9969 -0.0283 0.0732
vn 1.0000 -0.0077 0.0021
vn 1.0000 -0.0001 -0.0003
vn 1.0000 0.0001 -0.0002
vn 0.9949 -0.1000 0.0135
vn 1.0000 -0.0002 -0.0003
vn 1.0000 0.0005 -0.0001
vn 0.9946 -0.1029 0.0095
vn 1.0000 -0.0087 -0.0022
vn 0.9976 -0.0592 -0.0354
vn 0.9784 -0.0836 0.1891
vn 0.9801 -0.1040 0.1688
vn 0.9750 -0.0576 0.2146
vn 0.9810 -0.1220 0.1509
vn 0.9873 -0.0376 0.1543
vn 0.9879 -0.0270 0.1529
vn 0.9870 -0.0383 0.1561
vn 0.9867 -0.0419 0.1570
vn 0.9796 -0.0503 0.1943
vn 0.9796 -0.0522 0.1943
vn 0.9795 -0.0527 0.1945
vn 0.9798 -0.0431 0.1952
vn 0.9797 -0.0409 0.1960
vn 0.9804 -0.0319 0.1943
vn 0.9800 -0.0314 0.1968
vn 0.9816 -0.0252 0.1894
vn 0.9824 -0.0222 0.1857
vn 0.9839 -0.0179 0.1776
vn 0.9843 -0.0192 0.1753
vn 0.9857 -0.0166 0.1679
vn 0.9858 -0.0132 0.1674
vn 0.9867 -0.0185 0.1613
vn 0.9872 -0.0206 0.1581
vn 0.9877 -0.0300 0.1536
vn 0.9874 -0.0248 0.1565
vn 0.9678 -0.0733 0.2408
vn 0.9662 -0.0436 0.2542
vn 0.9657 -0.0665 0.2511
vn 0.9657 -0.0674 0.2509
vn 0.9662 -0.0420 0.2544
vn 0.9960 -0.0833 -0.0311
vn 0.9857 -0.1453 -0.0851
vn 0.9832 -0.0554 0.1740
vn 0.9838 -0.0443 0.1740
vn 0.9849 -0.0451 0.1671
vn 0.9206 0.1417 -0.3639
vn 0.9239 0.1767 -0.3394
vn 0.9194 0.1317 -0.3707
vn 0.9143 0.0984 -0.3929
vn 0.9096 -0.0000 -0.4154
vn 0.9961 -0.0351 0.0814
vn 0.9961 -0.0321 0.0821
vn 0.9053 0.0745 0.4182
vn 0.9879 -0.1514 0.0345
vn 0.9878 -0.1466 0.0529
vn 0.9613 -0.2754 -0.0051
vn 0.9683 -0.2495 0.0106
vn 0.9659 -0.2527 -0.0568
vn 0.9889 -0.1094 -0.1002
vn 0.9823 -0.1838 -0.0357
vn 1.0000 -0.0001 -0.0002
vn 1.0000 -0.0000 -0.0003
vn 1.0000 -0.0000 -0.0001
vn 0.9671 -0.0015 -0.2545
vn 0.9675 -0.0009 -0.2528
vn 0.9673 -0.0001 -0.2536
vn 0.9320 0.3620 -0.0182
vn 0.9339 0.3350 -0.1250
vn 0.9322 0.3424 -0.1178
vn 0.9384 0.2731 -0.2117
vn 0.9140 0.4044 -0.0326
vn 0.9201 0.3900 -0.0356
vn 0.9403 0.2357 -0.2455
vn 0.9424 0.2085 -0.2615
vn 0.9405 0.2602 -0.2185
vn 0.9580 0.0018 -0.2869
vn 0.9753 -0.1238 -0.1828
vn 0.9744 -0.0707 -0.2134
vn 0.9755 -0.0893 -0.2010
vn 0.9730 -0.1431 -0.1813
vn 0.9734 -0.1456 -0.1766
vn 0.9754 -0.1341 -0.1750
vn 0.9700 -0.1840 -0.1592
vn 0.9392 -0.3068 -0.1541
vn 0.9577 -0.2522 -0.1386
vn 0.9207 -0.3426 -0.1871
vn 0.9593 -0.2650 -0.0973
vn 0.9297 -0.3537 -0.1025
vn 0.9063 -0.4085 -0.1081
vn 0.9425 -0.3244 -0.0807
vn 0.9168 -0.3684 -0.1538
vn 0.9446 0.0538 0.3237
vn 0.9491 0.0006 0.3149
vn 0.9487 0.0008 0.3162
vn 0.9491 0.0005 0.3148
vn 0.9498 0.0003 0.3129
vn 0.9507 0.0002 0.3100
vn 0.9508 0.0002 0.3098
vn 0.9739 0.1297 -0.1862
vn 0.9722 0.1760 -0.1545
vn 0.9711 0.2116 -0.1099
vn 0.9586 0.1020 -0.2658
vn 0.9710 0.2323 -0.0567
vn 0.9737 0.0283 -0.2261
vn 0.9713 0.2377 -0.0019
vn 0.9726 -0.0273 -0.2309
vn 0.9710 0.2342 0.0491
vn 0.9717 -0.0832 -0.2212
vn 0.9710 0.2176 0.0985
vn 0.9709 -0.1355 -0.1973
vn 0.9731 0.1813 0.1424
vn 0.9704 -0.1804 -0.1605
vn 0.9585 0.1741 0.2258
vn 0.9717 -0.2090 -0.1102
vn 0.9736 0.0908 0.2093
vn 0.9681 -0.2431 -0.0602
vn 0.9713 0.0382 0.2349
vn 0.9685 -0.2491 -0.0001
vn 0.9705 -0.0209 0.2404
vn 0.9658 -0.2517 0.0629
vn 0.9700 -0.0798 0.2294
vn 0.9752 -0.1950 0.1046
vn 0.9736 -0.1256 0.1906
vn 0.9634 -0.1980 0.1808
vn 0.9283 -0.3609 -0.0891
vn 0.9283 -0.3718 -0.0002
vn 0.9283 -0.3291 -0.1729
vn 0.9284 -0.2782 -0.2466
vn 0.9284 -0.2111 -0.3059
vn 0.9284 -0.1318 -0.3475
vn 0.9284 -0.0448 -0.3690
vn 0.9284 0.0448 -0.3689
vn 0.9284 0.1317 -0.3475
vn 0.9284 0.2110 -0.3059
vn 0.9284 0.2780 -0.2465
vn 0.9284 0.3288 -0.1728
vn 0.9284 0.3607 -0.0890
vn 0.9288 0.3705 -0.0013
vn 0.9296 0.3581 0.0874
vn 0.9296 0.3262 0.1714
vn 0.9296 0.2758 0.2446
vn 0.9295 0.2093 0.3037
vn 0.9294 0.1305 0.3452
vn 0.9293 0.0441 0.3666
vn 0.9292 -0.0450 0.3668
vn 0.9291 -0.1316 0.3456
vn 0.9289 -0.2108 0.3044
vn 0.9288 -0.2778 0.2454
vn 0.9286 -0.3288 0.1719
vn 0.9284 -0.3608 0.0884
vn 0.9516 -0.2354 -0.1977
vn 0.9519 -0.2139 -0.2194
vn 0.9391 -0.2905 -0.1834
vn 0.9509 -0.1584 -0.2658
vn 0.9423 -0.2758 -0.1896
vn 0.9239 -0.1770 -0.3391
vn 0.9291 -0.1441 -0.3407
vn 0.9192 -0.1482 -0.3648
vn 0.9757 -0.0961 0.1968
vn 0.9767 -0.0926 0.1938
vn 0.9768 -0.0923 0.1934
vn 0.9771 -0.0912 0.1925
vn 0.9773 -0.0900 0.1918
vn 0.9776 -0.0883 0.1912
vn 0.9780 -0.0848 0.1905
vn 0.9796 -0.0526 0.1938
vn 0.9781 -0.0841 0.1904
vn 0.9755 -0.0952 0.1981
vn 0.8803 -0.4480 -0.1558
vn 0.9118 -0.3748 -0.1680
vn 0.9991 -0.0425 -0.0081
vn 0.9181 0.1242 0.3764
vn 0.9269 0.1520 0.3430
vn 1.0000 -0.0007 0.0001
vn 1.0000 -0.0001 -0.0000
vn 1.0000 -0.0002 -0.0001
vn 1.0000 -0.0006 -0.0001
vn 1.0000 0.0001 -0.0000
vn 1.0000 -0.0007 -0.0006
vn 1.0000 0.0001 -0.0003
vn 1.0000 -0.0002 -0.0002
vn 1.0000 -0.0002 -0.0004
vn 1.0000 0.0001 -0.0009
vn 1.0000 -0.0002 0.0002
vn 1.0000 0.0002 -0.0001
vn 1.0000 0.0001 -0.0001
vn 1.0000 -0.0000 -0.0006
vn 1.0000 -0.0000 -0.0000
vn 1.0000 0.0002 -0.0004
vn 1.0000 -0.0005 0.0007
vn 1.0000 0.0002 -0.0003
vn 1.0000 0.0003 -0.0003
vn 1.0000 0.0004 0.0001
vn 1.0000 -0.0001 -0.0001
vn 0.9709 0.2110 -0.1134
vn 0.9408 0.3388 -0.0071
vn 0.9821 0.1860 -0.0299
vn 0.9322 0.3231 -0.1632
vn 0.9128 0.4055 -0.0494
vn 0.9074 0.4174 -0.0484
vn 0.9344 0.2023 -0.2932
vn 0.9711 0.1338 -0.1978
vn 0.9047 0.3188 -0.2826
vn 0.9719 0.0282 -0.2336
vn 0.9344 0.0429 -0.3537
vn 0.9719 -0.0826 -0.2205
vn 0.9047 0.1510 -0.3984
vn 0.9344 -0.1263 -0.3331
vn 0.9047 -0.0513 -0.4230
vn 0.9354 -0.2659 -0.2331
vn 0.9047 -0.2419 -0.3507
vn 0.9698 -0.1883 -0.1547
vn 0.9693 -0.2342 -0.0755
vn 0.9417 -0.3122 -0.1252
vn 0.9489 -0.3133 -0.0383
vn 0.9047 -0.3771 -0.1981
vn 0.9948 0.0861 -0.0538
vn 1.0000 -0.0003 0.0033
vn 0.9953 -0.0937 -0.0252
vn 0.9963 0.0076 -0.0852
vn 0.9345 -0.3153 0.1653
vn 0.9309 -0.3547 0.0872
vn 0.9714 -0.2331 0.0443
vn 0.9048 -0.4135 0.1017
vn 0.9704 -0.2143 0.1112
vn 0.9345 -0.2023 0.2928
vn 0.9712 -0.1337 0.1972
vn 0.9720 -0.0282 0.2332
vn 0.9049 -0.3188 0.2822
vn 0.9345 -0.0429 0.3533
vn 0.9049 -0.1510 0.3980
vn 0.9345 0.1263 0.3327
vn 0.9719 0.0826 0.2206
vn 0.9705 0.1839 0.1562
vn 0.9049 0.0513 0.4226
vn 0.9345 0.2665 0.2359
vn 0.9049 0.2419 0.3503
vn 0.9306 0.3524 0.0993
vn 0.9048 0.3771 0.1977
vn 0.9735 0.2162 0.0751
vn 0.9950 -0.0927 0.0369
vn 1.0000 -0.0029 -0.0052
vn 0.9953 0.0866 0.0429
vn 0.9964 -0.0084 0.0848
vn 1.0000 0.0001 -0.0004
vn 1.0000 -0.0001 0.0001
vn 1.0000 0.0001 0.0001
vn 1.0000 -0.0004 -0.0003
vn 1.0000 -0.0004 -0.0004
vn 1.0000 -0.0001 -0.0004
vn 1.0000 -0.0000 -0.0005
vn 1.0000 -0.0000 -0.0004
vn 1.0000 0.0004 -0.0003
vn 1.0000 0.0004 -0.0004
vn 1.0000 0.0003 -0.0004
vn 1.0000 0.0001 -0.0005
vn 1.0000 -0.0001 -0.0005
vn 1.0000 -0.0003 -0.0004
vn -1.0000 -0.0000 -0.0000
vn -0.0000 0.9659 0.2588
vn -0.0000 1.0000 -0.0000
vn -0.0000 0.8660 0.5000
vn -0.0000 0.7071 0.7071
vn -0.0000 0.5000 0.8660
vn -0.0000 0.2588 0.9659
vn -0.0000 -0.0000 1.0000
vn -0.0000 -0.2588 0.9659
vn -0.0000 -0.5000 0.8660
vn -0.0000 -0.7071 0.7071
vn -0.0000 -0.8660 0.5000
vn -0.0000 -0.9659 0.2588
vn -0.0000 -1.0000 -0.0000
vn -0.0000 -0.9659 -0.2588
vn -0.0000 -0.8660 -0.5000
vn -0.0000 -0.7071 -0.7071
vn -0.0000 -0.5000 -0.8660
vn -0.0000 -0.2588 -0.9659
vn -0.0000 -0.0000 -1.0000
vn -0.0000 0.2588 -0.9659
vn -0.0000 0.5000 -0.8660
vn -0.0000 0.7071 -0.7071
vn -0.0000 0.8660 -0.5000
vn -0.0000 0.9659 -0.2588
s 1
usemtl glass
f 5//1 2//2 1//3
f 5//1 3//4 2//2
f 5//1 4//5 3//4
f 11//6 13//7 12//8
f 11//6 14//9 13//7
f 10//10 14//9 11//6
f 23//11 15//12 14//9
f 23//11 14//9 10//10
f 9//13 23//11 10//10
f 24//14 6//15 7//16
f 24//14 8//17 6//15
f 24//14 23//11 9//13
f 24//14 9//13 8//17
f 13//7 14//9 18//18
f 7//16 17//19 16//20
f 7//16 16//20 18//18
f 18//18 23//11 24//14
f 18//18 24//14 7//16
f 18//18 14//9 15//12
f 18//18 15//12 23//11
f 19//21 21//22 22//23
f 19//21 22//23 13//7
f 19//21 13//7 18//18
f 19//21 20//24 21//22
f 33//25 34//26 42//27
f 32//28 43//29 25//30
f 44//31 32//28 25//30
f 26//32 32//28 44//31
f 27//33 32//28 26//32
f 28//34 32//28 27//33
f 31//35 28//34 29//36
f 31//35 29//36 30//37
f 31//35 32//28 28//34
f 16//20 17//19 42//27
f 16//20 42//27 34//26
f 33//25 42//27 43//29
f 33//25 43//29 32//28
f 41//38 42//27 17//19
f 42//27 41//38 40//39
f 40//39 43//29 42//27
f 43//29 40//39 39//40
f 43//29 38//41 37//42
f 43//29 39//40 38//41
f 44//31 25//30 43//29
f 36//43 26//32 44//31
f 36//43 27//33 26//32
f 44//31 37//42 36//43
f 44//31 43//29 37//42
f 36//43 35//44 27//33
f 7//16 41//38 17//19
f 41//38 7//16 6//15
f 28//34 27//33 35//44
f 51//45 45//46 28//34
f 50//47 28//34 35//44
f 51//45 50//47 49//48
f 51//45 28//34 50//47
f 51//45 49//48 48//49
f 52//50 45//46 51//45
f 53//51 51//45 48//49
f 53//51 52//50 51//45
f 52//50 46//52 45//46
f 53//51 48//49 47//53
f 54//54 46//52 52//50
f 54//54 53//51 47//53
f 54//54 52//50 53//51
f 54//54 47//53 46//52
f 57//55 46//52 47//53
f 57//55 47//53 56//56
f 57//55 56//56 55//57
f 58//58 57//55 55//57
f 79//59 59//60 60//60
f 78//61 60//60 61//59
f 78//61 79//59 60//60
f 62//62 78//61 61//59
f 63//63 78//61 62//62
f 64//64 78//61 63//63
f 76//65 72//65 73//66
f 76//65 73//66 74//65
f 76//65 74//65 75//67
f 77//68 66//69 67//70
f 77//68 67//70 68//71
f 77//68 68//71 69//71
f 77//68 69//71 70//65
f 77//68 70//65 71//65
f 77//68 71//65 72//65
f 77//68 72//65 76//65
f 77//68 78//61 66//69
f 66//69 78//61 65//59
f 65//59 78//61 64//64
f 31//35 80//72 81//73
f 30//37 80//72 31//35
f 81//73 82//74 83//75
f 81//73 83//75 31//35
f 84//76 85//77 86//78
f 79//79 84//76 86//78
f 93//80 95//81 94//82
f 96//80 93//80 92//80
f 97//83 91//84 90//85
f 97//83 92//80 91//84
f 97//83 96//80 92//80
f 98//86 89//87 88//88
f 98//86 90//85 89//87
f 98//86 97//83 90//85
f 99//89 98//86 88//88
f 77//68 87//90 78//61
f 77//68 88//88 87//90
f 77//68 100//91 88//88
f 100//91 99//89 88//88
f 102//92 18//93 101//94
f 103//95 18//93 102//92
f 106//96 123//97 124//98
f 107//99 106//96 124//98
f 116//100 114//101 115//102
f 108//103 114//101 116//100
f 108//103 116//100 117//104
f 109//105 117//104 118//106
f 109//105 108//103 117//104
f 119//107 109//105 118//106
f 110//108 109//105 119//107
f 120//109 111//110 110//108
f 120//109 110//108 119//107
f 112//111 120//109 121//112
f 112//111 111//110 120//109
f 113//113 112//111 121//112
f 122//114 113//113 121//112
f 122//114 105//115 104//116
f 122//114 104//116 113//113
f 123//97 105//115 122//114
f 123//97 106//96 105//115
f 133//117 85//77 84//76
f 125//118 132//119 84//120
f 131//121 132//119 125//118
f 129//122 130//123 126//124
f 127//125 129//122 126//124
f 128//126 129//122 127//125
f 124//98 128//126 107//99
f 124//98 129//122 128//126
f 137//127 134//128 135//129
f 137//127 135//129 136//130
f 140//131 138//131 139//131
f 142//132 94//82 141//133
f 144//134 143//134 145//134
f 95//81 141//133 94//82
f 146//135 98//86 99//89
f 147//136 97//83 98//86
f 148//137 147//136 98//86
f 149//138 146//135 99//89
f 150//139 99//89 100//91
f 150//139 149//138 99//89
f 150//139 100//91 151//140
f 152//141 98//86 146//135
f 152//141 148//137 98//86
f 197//80 158//80 157//80
f 197//80 159//80 158//80
f 196//80 160//80 159//80
f 196//80 159//80 197//80
f 198//80 156//142 155//80
f 198//80 157//80 156//142
f 198//80 197//80 157//80
f 195//80 161//80 160//80
f 195//80 160//80 196//80
f 199//80 155//80 154//80
f 199//80 198//80 155//80
f 194//143 162//143 161//80
f 194//143 161//80 195//80
f 200//80 154//80 153//80
f 200//80 153//80 186//143
f 200//80 199//80 154//80
f 193//80 163//80 162//143
f 193//80 162//143 194//143
f 164//80 163//80 193//80
f 201//80 200//80 186//143
f 185//80 201//80 186//143
f 192//80 164//80 193//80
f 165//80 164//80 192//80
f 202//143 201//80 185//80
f 184//143 202//143 185//80
f 191//143 165//80 192//80
f 166//143 165//80 191//143
f 203//80 202//143 184//143
f 183//80 203//80 184//143
f 190//80 166//143 191//143
f 167//85 166//143 190//80
f 168//85 167//85 190//80
f 204//80 203//80 183//80
f 189//85 168//85 190//80
f 189//85 169//85 168//85
f 182//143 204//80 183//80
f 205//143 204//80 182//143
f 170//85 169//85 189//85
f 188//80 170//85 189//85
f 181//143 205//143 182//143
f 206//80 205//143 181//143
f 171//80 170//85 188//80
f 180//80 206//80 181//143
f 180//80 207//80 206//80
f 172//144 171//80 188//80
f 172//144 188//80 187//80
f 173//144 172//144 187//80
f 179//80 208//80 207//80
f 179//80 207//80 180//80
f 174//80 173//144 187//80
f 174//80 187//80 212//80
f 178//80 209//80 208//80
f 178//80 208//80 179//80
f 175//80 212//80 211//80
f 175//80 174//80 212//80
f 177//80 210//80 209//80
f 177//80 209//80 178//80
f 176//143 211//80 210//80
f 176//143 210//80 177//80
f 176//143 175//80 211//80
f 216//145 217//145 218//145
f 215//146 219//146 220//146
f 214//147 220//147 213//147
f 221//148 223//148 222//148
f 228//149 224//150 225//151
f 228//149 229//152 224//150
f 228//149 222//153 229//152
f 226//154 134//155 227//156
f 226//154 227//156 228//149
f 226//154 228//149 225//151
f 235//157 139//157 230//157
f 237//158 231//159 232//160
f 237//158 232//160 233//161
f 237//158 233//161 234//162
f 236//163 237//158 234//162
f 238//164 241//164 234//164
f 243//165 238//166 239//167
f 243//165 242//168 238//166
f 244//169 240//170 241//171
f 244//169 241//171 242//168
f 244//169 242//168 243//165
f 245//172 243//165 239//167
f 245//172 244//169 243//165
f 240//173 248//173 249//173
f 246//174 250//175 251//176
f 246//174 251//176 252//177
f 246//174 252//177 253//178
f 247//179 246//174 253//178
f 302//180 261//80 303//181
f 304//182 303//181 262//80
f 301//183 260//143 302//180
f 305//184 304//182 263//80
f 300//185 259//80 301//183
f 293//186 305//184 264//80
f 299//187 258//80 300//185
f 292//188 293//186 265//80
f 298//189 257//80 299//187
f 291//190 292//188 266//80
f 297//191 256//80 298//189
f 290//192 291//190 267//143
f 296//193 255//80 297//191
f 289//194 290//192 268//80
f 295//195 254//80 296//193
f 269//143 288//196 289//194
f 294//197 275//143 295//195
f 270//80 287//198 288//196
f 280//199 277//84 294//197
f 271//80 286//200 287//198
f 276//80 280//199 281//201
f 272//80 285//202 286//200
f 279//80 281//201 282//203
f 273//143 284//204 285//202
f 278//142 282//203 283//205
f 274//80 283//205 284//204
f 280//199 319//206 307//207
f 294//197 318//208 319//206
f 294//197 319//206 280//199
f 295//195 317//209 318//208
f 295//195 318//208 294//197
f 296//193 316//210 317//209
f 296//193 317//209 295//195
f 297//191 315//211 316//210
f 297//191 316//210 296//193
f 298//189 314//212 315//211
f 298//189 315//211 297//191
f 299//187 313//213 314//212
f 299//187 314//212 298//189
f 300//185 312//214 313//213
f 300//185 313//213 299//187
f 301//183 311//215 312//214
f 301//183 312//214 300//185
f 302//180 310//216 311//215
f 302//180 311//215 301//183
f 303//181 309//217 310//216
f 303//181 310//216 302//180
f 304//182 308//218 309//217
f 304//182 309//217 303//181
f 305//184 306//219 308//218
f 305//184 308//218 304//182
f 293//186 306//219 305//184
f 292//188 331//220 306//219
f 292//188 306//219 293//186
f 291//190 330//221 331//220
f 291//190 331//220 292//188
f 290//192 329//222 330//221
f 290//192 330//221 291//190
f 289//194 328//223 329//222
f 289//194 329//222 290//192
f 288//196 327//224 328//223
f 288//196 328//223 289//194
f 287//198 326//225 327//224
f 287//198 327//224 288//196
f 286//200 325//226 326//225
f 286//200 326//225 287//198
f 285//202 324//227 325//226
f 285//202 325//226 286//200
f 284//204 323//228 324//227
f 284//204 324//227 285//202
f 283//205 322//229 323//228
f 283//205 323//228 284//204
f 282//203 321//230 322//229
f 282//203 322//229 283//205
f 281//201 320//231 321//230
f 281//201 321//230 282//203
f 280//199 307//207 320//231
f 280//199 320//231 281//201
f 332//232 334//233 348//234
f 336//235 334//233 332//232
f 332//232 348//234 333//236
f 336//235 130//123 129//122
f 336//235 332//232 130//123
f 336//235 335//237 334//233
f 337//238 335//237 336//235
f 337//238 336//235 129//122
f 338//239 335//237 337//238
f 339//240 31//35 83//75
f 32//28 341//241 342//242
f 32//28 342//242 343//243
f 344//244 32//28 343//243
f 345//245 32//28 344//244
f 346//246 32//28 345//245
f 114//101 347//247 115//102
f 347//248 32//28 346//246
f 340//249 32//28 31//35
f 340//249 31//35 339//240
f 340//249 341//241 32//28
f 350//250 333//236 349//251
f 349//251 333//236 348//234
f 20//252 351//252 75//252
f 353//253 22//23 21//22
f 352//254 13//7 22//23
f 352//254 22//23 353//253
f 12//8 13//7 352//254
f 381//144 379//144 380//144
f 378//80 383//80 384//84
f 378//80 384//84 379//80
f 355//80 382//84 383//80
f 355//80 385//142 386//85
f 355//80 386//85 382//84
f 360//142 361//255 362//80
f 358//256 359//144 360//142
f 357//80 362//80 354//80
f 357//80 360//142 362//80
f 357//80 358//256 360//142
f 356//80 354//80 355//80
f 356//80 383//80 378//80
f 356//80 355//80 383//80
f 356//80 357//80 354//80
f 377//143 373//80 374//257
f 377//143 374//257 375//85
f 377//143 375//85 376//258
f 370//80 371//80 372//143
f 370//80 372//143 373//80
f 370//80 373//80 377//143
f 363//80 356//80 378//80
f 364//80 378//80 371//80
f 364//80 363//80 378//80
f 364//80 371//80 370//80
f 367//143 368//259 369//143
f 367//143 369//143 363//80
f 367//143 363//80 364//80
f 366//85 367//143 364//80
f 366//85 364//80 365//260
f 398//80 396//80 397//261
f 395//80 396//80 398//80
f 401//80 398//80 399//85
f 401//80 399//85 400//262
f 391//80 392//80 393//80
f 391//80 393//80 394//80
f 403//80 394//80 395//80
f 403//80 401//80 402//263
f 403//80 395//80 398//80
f 403//80 398//80 401//80
f 406//80 404//143 405//80
f 387//85 388//87 389//80
f 412//80 389//80 390//80
f 412//80 390//80 391//80
f 412//80 391//80 394//80
f 412//80 387//85 389//80
f 408//80 403//80 404//143
f 408//80 406//80 407//80
f 408//80 394//80 403//80
f 408//80 404//143 406//80
f 408//80 412//80 394//80
f 410//143 408//80 409//80
f 410//143 411//261 412//80
f 410//143 412//80 408//80
f 422//143 423//264 424//265
f 422//143 424//265 425//80
f 422//143 425//80 426//143
f 422//143 426//143 427//80
f 422//143 427//80 428//80
f 429//261 422//143 428//80
f 421//143 422//143 429//261
f 430//80 422//143 421//143
f 433//85 434//85 435//266
f 433//85 435//266 436//143
f 432//85 436//143 430//80
f 432//85 433//85 436//143
f 413//80 430//80 421//143
f 431//80 432//85 430//80
f 415//267 413//80 414//80
f 416//263 413//80 415//267
f 417//80 413//80 416//263
f 420//80 417//80 418//268
f 420//80 418//268 419//269
f 420//80 413//80 417//80
f 437//80 431//80 430//80
f 438//80 443//80 437//80
f 438//80 430//80 413//80
f 438//80 413//80 420//80
f 438//80 437//80 430//80
f 442//270 443//80 438//80
f 441//80 442//270 438//80
f 440//80 438//80 439//271
f 440//80 441//80 438//80
f 456//143 452//80 453//143
f 456//143 453//143 454//257
f 456//143 454//257 455//272
f 458//80 451//80 452//80
f 458//80 456//143 457//273
f 458//80 452//80 456//143
f 448//80 449//267 450//80
f 448//80 450//80 451//80
f 461//85 458//80 459//142
f 461//85 459//142 460//267
f 446//80 447//274 448//80
f 462//80 451//80 458//80
f 462//80 458//80 461//85
f 444//87 445//85 446//80
f 469//80 446//80 448//80
f 469//80 444//87 446//80
f 465//80 462//80 463//143
f 465//80 463//143 464//143
f 465//80 448//80 451//80
f 465//80 451//80 462//80
f 468//85 469//80 448//80
f 467//80 465//80 466//275
f 467//80 448//80 465//80
f 467//80 468//85 448//80
f 481//276 477//277 478//278
f 482//279 471//280 470//281
f 482//279 470//281 477//277
f 482//279 477//277 481//276
f 483//282 481//276 484//283
f 483//282 472//284 482//279
f 483//282 484//283 485//285
f 483//282 482//279 481//276
f 486//286 483//282 485//285
f 486//286 485//285 487//287
f 486//286 473//288 483//282
f 488//289 486//286 487//287
f 488//289 474//290 486//286
f 489//291 475//292 488//289
f 489//291 488//289 487//287
f 489//291 487//287 490//293
f 489//291 490//293 479//294
f 491//295 479//294 480//296
f 491//295 476//297 489//291
f 491//295 489//291 479//294
f 492//298 478//278 495//299
f 492//298 481//276 478//278
f 492//298 484//283 481//276
f 493//300 490//293 487//287
f 493//300 495//299 479//294
f 493//300 479//294 490//293
f 494//301 485//285 484//283
f 494//301 484//283 492//298
f 494//301 495//299 493//300
f 494//301 492//298 495//299
f 494//301 487//287 485//285
f 494//301 493//300 487//287
f 504//302 480//303 503//304
f 504//302 497//305 480//303
f 504//302 503//304 505//306
f 506//307 505//306 507//308
f 506//307 507//308 508//309
f 506//307 504//302 505//306
f 506//307 498//310 504//302
f 509//311 499//312 506//307
f 509//311 506//307 508//309
f 510//313 511//314 512//315
f 510//313 508//309 511//314
f 510//313 509//311 508//309
f 510//313 500//316 509//311
f 513//317 501//318 510//313
f 513//317 510//313 512//315
f 514//319 477//277 470//281
f 514//319 502//320 513//317
f 514//319 496//321 477//277
f 514//319 512//315 496//321
f 514//319 513//317 512//315
f 515//322 503//304 495//323
f 515//322 505//306 503//304
f 515//322 507//308 505//306
f 516//324 512//315 511//314
f 516//324 496//321 512//315
f 516//324 495//323 496//321
f 517//325 508//309 507//308
f 517//325 507//308 515//322
f 517//325 495//323 516//324
f 517//325 515//322 495//323
f 517//325 511//314 508//309
f 517//325 516//324 511//314
f 529//257 553//257 528//257
f 554//326 527//326 528//257
f 554//326 528//257 553//257
f 552//257 553//257 529//257
f 555//256 526//327 527//326
f 555//256 527//326 554//326
f 530//142 552//257 529//257
f 551//142 552//257 530//142
f 556//327 526//327 555//256
f 525//144 532//143 531//143
f 518//80 551//142 530//142
f 550//80 551//142 518//80
f 534//144 533//143 532//143
f 534//144 532//143 525//144
f 534//144 525//144 556//327
f 557//328 534//144 556//327
f 575//329 550//80 518//80
f 575//329 518//80 519//330
f 558//259 540//328 557//328
f 574//267 575//329 519//330
f 520//266 574//267 519//330
f 539//331 540//328 558//259
f 559//331 539//331 558//259
f 573//266 574//267 520//266
f 521//266 573//266 520//266
f 538//266 539//331 559//331
f 560//266 538//266 559//331
f 572//143 573//266 521//266
f 522//143 572//143 521//266
f 537//266 538//266 560//266
f 561//266 537//266 560//266
f 571//259 572//143 522//143
f 523//269 571//259 522//143
f 536//85 537//266 561//266
f 536//85 561//266 562//85
f 570//332 571//259 523//269
f 535//80 536//85 562//85
f 535//80 562//85 563//80
f 569//332 570//332 524//333
f 569//332 524//333 541//333
f 548//143 524//333 549//143
f 548//143 541//333 524//333
f 564//334 535//80 563//80
f 547//143 541//333 548//143
f 546//335 535//80 564//334
f 542//269 568//256 569//332
f 565//275 546//335 564//334
f 545//257 546//335 565//275
f 566//257 545//257 565//275
f 543//143 567//143 568//256
f 543//143 568//256 542//269
f 544//257 545//257 566//257
f 544//257 566//257 567//143
f 544//257 567//143 543//143
f 524//333 570//332 523//269
f 526//327 556//327 525//144
f 534//144 557//328 540//328
f 542//269 569//332 541//333
f 588//336 594//270 587//270
f 595//275 586//275 587//270
f 595//275 587//270 594//270
f 593//336 594//270 588//336
f 596//337 585//337 586//275
f 596//337 586//275 595//275
f 589//80 593//336 588//336
f 592//142 593//336 589//80
f 590//332 584//332 585//337
f 590//332 585//337 596//337
f 578//80 592//142 589//80
f 591//80 592//142 578//80
f 601//85 578//80 579//85
f 601//85 591//80 578//80
f 600//85 579//85 580//85
f 600//85 601//85 579//85
f 599//263 600//85 580//85
f 581//263 599//263 580//85
f 598//267 599//263 581//263
f 582//267 598//267 581//263
f 597//331 598//267 582//267
f 583//331 597//331 582//267
f 577//269 597//331 583//331
f 576//269 577//269 583//331
f 604//143 603//269 602//269
f 628//143 604//143 602//269
f 605//143 604//143 628//143
f 627//143 605//143 628//143
f 606//80 605//143 627//143
f 626//80 606//80 627//143
f 607//84 606//80 626//80
f 625//87 607//84 626//80
f 608//84 607//84 625//87
f 624//143 608//84 625//87
f 609//80 608//84 624//143
f 623//80 609//80 624//143
f 610//80 609//80 623//80
f 622//143 610//80 623//80
f 615//143 617//143 616//143
f 615//143 618//143 617//143
f 611//143 610//80 622//143
f 621//142 611//143 622//143
f 614//143 619//143 618//143
f 614//143 618//143 615//143
f 612//275 621//142 620//80
f 612//275 611//143 621//142
f 613//80 620//80 619//143
f 613//80 612//275 620//80
f 613//80 619//143 614//143
f 649//338 643//332 637//332
f 638//338 649//338 637//332
f 648//267 649//338 638//338
f 639//267 648//267 638//338
f 647//263 648//267 639//267
f 640//263 647//263 639//267
f 646//339 640//263 641//339
f 646//339 647//263 640//263
f 645//80 641//339 642//85
f 645//80 646//339 641//339
f 644//80 642//85 631//80
f 644//80 645//80 642//85
f 632//142 644//80 631//80
f 654//142 644//80 632//142
f 650//326 630//269 629//269
f 650//326 636//326 630//269
f 633//142 654//142 632//142
f 653//142 654//142 633//142
f 634//270 653//142 633//142
f 651//275 635//275 636//326
f 651//275 636//326 650//326
f 652//270 634//270 635//275
f 652//270 653//142 634//270
f 652//270 635//275 651//275
f 659//80 679//80 678//261
f 658//143 680//143 679//80
f 658//143 679//80 659//80
f 660//272 659//80 678//261
f 677//261 660//272 678//261
f 657//143 681//143 680//143
f 657//143 680//143 658//143
f 661//143 660//272 677//261
f 676//80 661//143 677//261
f 656//269 655//269 681//143
f 656//269 681//143 657//143
f 662//80 661//143 676//80
f 675//80 662//80 676//80
f 663//143 662//80 675//80
f 674//143 663//143 675//80
f 664//85 663//143 674//143
f 673//267 664//85 674//143
f 665//80 664//85 673//267
f 672//80 665//80 673//267
f 666//143 665//80 672//80
f 671//143 666//143 672//80
f 667//143 666//143 671//143
f 670//143 667//143 671//143
f 668//143 667//143 670//143
f 669//143 668//143 670//143
f 683//269 684//269 695//269
f 728//340 727//340 716//340
f 707//341 682//342 706//342
f 708//343 683//341 707//341
f 709//344 684//343 708//343
f 710//345 685//344 709//344
f 711//346 686//345 710//345
f 712//347 687//346 711//346
f 713//348 688//347 712//347
f 714//349 689//348 713//348
f 715//350 690//349 714//349
f 716//351 691//350 715//350
f 717//352 692//351 716//351
f 718//353 693//352 717//352
f 719//354 694//353 718//353
f 720//355 695//354 719//354
f 721//356 696//355 720//355
f 722//357 697//356 721//356
f 723//358 698//357 722//357
f 724//359 699//358 723//358
f 725//360 700//359 724//359
f 726//361 701//360 725//360
f 727//362 702//361 726//361
f 728//363 703//362 727//362
f 729//364 704//363 728//363
f 706//342 705//364 729//364
f 705//269 682//269 683//269
f 684//269 685//269 686//269
f 704//269 705//269 683//269
f 684//269 686//269 687//269
f 703//269 704//269 683//269
f 684//269 687//269 688//269
f 702//269 703//269 683//269
f 684//269 688//269 689//269
f 701//269 702//269 683//269
f 684//269 689//269 690//269
f 700//269 701//269 683//269
f 684//269 690//269 691//269
f 699//269 700//269 683//269
f 684//269 691//269 692//269
f 698//269 699//269 683//269
f 684//269 692//269 693//269
f 697//269 698//269 683//269
f 684//269 693//269 694//269
f 696//269 697//269 683//269
f 684//269 694//269 695//269
f 695//269 696//269 683//269
f 706//340 729//340 728//340
f 727//340 726//340 725//340
f 707//340 706//340 728//340
f 727//340 725//340 724//340
f 708//340 707//340 728//340
f 727//340 724//340 723//340
f 709//340 708//340 728//340
f 727//340 723//340 722//340
f 710//340 709//340 728//340
f 727//340 722//340 721//340
f 711//340 710//340 728//340
f 727//340 721//340 720//340
f 712//340 711//340 728//340
f 727//340 720//340 719//340
f 713//340 712//340 728//340
f 727//340 719//340 718//340
f 714//340 713//340 728//340
f 727//340 718//340 717//340
f 715//340 714//340 728//340
f 727//340 717//340 716//340
f 716//340 715//340 728//340
f 707//341 683//341 682//342
f 708//343 684//343 683//341
f 709//344 685//344 684//343
f 710//345 686//345 685//344
f 711//346 687//346 686//345
f 712//347 688//347 687//346
f 713//348 689//348 688//347
f 714//349 690//349 689//348
f 715//350 691//350 690//349
f 716//351 692//351 691//350
f 717//352 693//352 692//351
f 718//353 694//353 693//352
f 719//354 695//354 694//353
f 720//355 696//355 695//354
f 721//356 697//356 696//355
f 722//357 698//357 697//356
f 723//358 699//358 698//357
f 724//359 700//359 699//358
f 725//360 701//360 700//359
f 726//361 702//361 701//360
f 727//362 703//362 702//361
f 728//363 704//363 703//362
f 729//364 705//364 704//363
f 706//342 682//342 705//364
f 731//269 732//269 743//269
f 776//340 775//340 764//340
f 755//341 730//342 754//342
f 756//343 731//341 755//341
f 757//344 732//343 756//343
f 758//345 733//344 757//344
f 759//346 734//345 758//345
f 760//347 735//346 759//346
f 761//348 736//347 760//347
f 762//349 737//348 761//348
f 763//350 738//349 762//349
f 764//351 739//350 763//350
f 765//352 740//351 764//351
f 766//353 741//352 765//352
f 767//354 742//353 766//353
f 768//355 743//354 767//354
f 769//356 744//355 768//355
f 770//357 745//356 769//356
f 771//358 746//357 770//357
f 772//359 747//358 771//358
f 773//360 748//359 772//359
f 774//361 749//360 773//360
f 775//362 750//361 774//361
f 776//363 751//362 775//362
f 777//364 752//363 776//363
f 754//342 753//364 777//364
f 753//269 730//269 731//269
f 732//269 733//269 734//269
f 752//269 753//269 731//269
f 732//269 734//269 735//269
f 751//269 752//269 731//269
f 732//269 735//269 736//269
f 750//269 751//269 731//269
f 732//269 736//269 737//269
f 749//269 750//269 731//269
f 732//269 737//269 738//269
f 748//269 749//269 731//269
f 732//269 738//269 739//269
f 747//269 748//269 731//269
f 732//269 739//269 740//269
f 746//269 747//269 731//269
f 732//269 740//269 741//269
f 745//269 746//269 731//269
f 732//269 741//269 742//269
f 744//269 745//269 731//269
f 732//269 742//269 743//269
f 743//269 744//269 731//269
f 754//340 777//340 776//340
f 775//340 774//340 773//340
f 755//340 754//340 776//340
f 775//340 773//340 772//340
f 756//340 755//340 776//340
f 775//340 772//340 771//340
f 757//340 756//340 776//340
f 775//340 771//340 770//340
f 758//340 757//340 776//340
f 775//340 770//340 769//340
f 759//340 758//340 776//340
f 775//340 769//340 768//340
f 760//340 759//340 776//340
f 775//340 768//340 767//340
f 761//340 760//340 776//340
f 775//340 767//340 766//340
f 762//340 761//340 776//340
f 775//340 766//340 765//340
f 763//340 762//340 776//340
f 775//340 765//340 764//340
f 764//340 763//340 776//340
f 755//341 731//341 730//342
f 756//343 732//343 731//341
f 757//344 733//344 732//343
f 758//345 734//345 733//344
f 759//346 735//346 734//345
f 760//347 736//347 735//346
f 761//348 737//348 736//347
f 762//349 738//349 737//348
f 763//350 739//350 738//349
f 764//351 740//351 739//350
f 765//352 741//352 740//351
f 766//353 742//353 741//352
f 767//354 743//354 742//353
f 768//355 744//355 743//354
f 769//356 745//356 744//355
f 770//357 746//357 745//356
f 771//358 747//358 746//357
f 772//359 748//359 747//358
f 773//360 749//360 748//359
f 774//361 750//361 749//360
f 775//362 751//362 750//361
f 776//363 752//363 751//362
f 777//364 753//364 752//363
f 754//342 730//342 753//364
