# Blender 5.1.1
# www.blender.org
mtllib head_laser.mtl
o head_laser
v 0.024163 -0.010262 -0.013971
v 0.024158 -0.010222 -0.014774
v 0.024678 0.002034 -0.014774
v 0.016560 -0.017431 -0.028614
v 0.017202 -0.009905 -0.027513
v 0.016905 -0.017399 -0.027513
v 0.016881 -0.009877 -0.028613
v 0.017665 0.002034 -0.027513
v 0.016439 0.005437 -0.028938
v 0.016344 0.005502 -0.029166
v 0.016347 0.005735 -0.029164
v 0.018568 0.005841 -0.024530
v 0.019287 0.006942 -0.021998
v 0.019293 0.005841 -0.022002
v 0.016800 0.001623 -0.026008
v 0.018065 0.005275 -0.026382
v 0.017843 0.004303 -0.027116
v 0.017762 0.003569 -0.027357
v 0.017704 0.002866 -0.027474
v 0.018414 0.005801 -0.025109
v 0.018275 0.005685 -0.025613
v 0.017284 0.002460 -0.024482
v 0.017188 0.002460 -0.025014
v 0.017107 0.002429 -0.025341
v 0.017026 0.002351 -0.025575
v 0.016957 0.002245 -0.025736
v 0.016901 0.002122 -0.025846
v 0.016858 0.001990 -0.025920
v 0.016824 0.001832 -0.025973
v 0.017187 0.002780 -0.025737
v 0.017085 0.002461 -0.026219
v 0.016883 -0.018310 -0.027478
v 0.016912 -0.018788 -0.027368
v 0.016801 -0.019219 -0.025970
v 0.016853 -0.019514 -0.025875
v 0.016920 -0.019823 -0.025693
v 0.016843 -0.018799 -0.026626
v 0.015704 -0.022192 -0.021920
v 0.015703 -0.020323 -0.025170
v 0.015739 -0.020874 -0.024361
v 0.016679 -0.019795 -0.028085
v 0.016925 -0.020645 -0.027416
v 0.017320 -0.021589 -0.026398
v 0.018092 -0.023033 -0.024437
v 0.016569 -0.019104 -0.028416
v 0.016534 -0.018350 -0.028578
v 0.016989 -0.019236 -0.027155
v 0.017233 -0.020008 -0.026520
v 0.017677 -0.020959 -0.025419
v 0.018991 -0.023022 -0.022303
v 0.019287 -0.023301 -0.021664
v 0.019334 -0.024466 -0.021546
v 0.018665 -0.023877 -0.023032
v 0.019012 -0.024250 -0.022235
v 0.017883 0.002460 -0.021448
v 0.018260 0.004125 -0.022885
v 0.016794 0.000833 -0.026014
v 0.017640 0.001394 -0.027513
v 0.017219 -0.009464 -0.027513
v 0.016775 -0.018335 -0.026017
v 0.016992 -0.012710 -0.027014
v 0.016954 -0.007987 -0.026514
v 0.017106 0.000184 -0.026588
v 0.017248 -0.003008 -0.027014
v 0.017626 0.005161 -0.028036
v 0.017722 0.005659 -0.027709
v 0.017824 0.006071 -0.027341
v 0.017932 0.006394 -0.026947
v 0.017953 0.004872 -0.026775
v 0.017851 0.004311 -0.027109
v 0.017370 0.002034 -0.028613
v 0.017401 0.002804 -0.028613
v 0.017455 0.003711 -0.028535
v 0.017529 0.004479 -0.028341
v 0.018080 0.006697 -0.026394
v 0.018160 0.005504 -0.026036
v 0.023979 -0.014585 -0.013980
v 0.023979 -0.014473 -0.014774
v 0.015705 0.002460 -0.017969
v 0.015705 0.002429 -0.017691
v 0.015705 0.002343 -0.017457
v 0.015705 0.002225 -0.017283
v 0.015705 0.002086 -0.017152
v 0.015705 0.001912 -0.017046
v 0.015705 0.001699 -0.016967
v 0.015705 0.001494 -0.016928
v 0.015705 0.001263 -0.016914
v 0.015703 0.002460 -0.025014
v 0.015703 0.001460 -0.026014
v 0.015703 0.001772 -0.025987
v 0.015703 0.002003 -0.025914
v 0.015703 0.002150 -0.025824
v 0.015703 0.002257 -0.025721
v 0.015703 0.002342 -0.025593
v 0.015703 0.002405 -0.025437
v 0.015703 0.002446 -0.025239
v 0.015703 -0.018835 -0.026010
v 0.015704 -0.022425 -0.020775
v 0.015704 -0.022379 -0.021360
v 0.015703 -0.020212 -0.025308
v 0.015703 -0.019829 -0.025689
v 0.015703 -0.019540 -0.025869
v 0.015703 -0.019227 -0.025968
v 0.015705 -0.022380 -0.018003
v 0.015705 -0.020997 -0.016914
v 0.015705 -0.021410 -0.016951
v 0.015705 -0.021747 -0.017056
v 0.015705 -0.021982 -0.017198
v 0.015705 -0.022142 -0.017356
v 0.015705 -0.022263 -0.017546
v 0.015705 -0.022340 -0.017756
vn 0.9991 -0.0423 -0.0081
vn 0.9991 -0.0423 -0.0079
vn 0.9539 -0.0395 -0.2974
vn 0.9594 -0.0386 -0.2795
vn 0.9928 -0.0320 -0.1154
vn 0.9589 -0.0388 -0.2810
vn 0.9655 -0.0360 -0.2580
vn 0.9220 -0.0090 -0.3871
vn 0.9285 -0.2978 -0.2219
vn 0.9613 0.0061 -0.2756
vn 0.9071 -0.1999 0.3704
vn 0.9673 -0.0206 -0.2527
vn 0.9364 -0.2648 0.2305
vn 0.9770 -0.0441 -0.2086
vn 0.9952 -0.0980 -0.0084
vn 0.9221 -0.3386 -0.1876
vn 0.9639 0.0101 -0.2661
vn 0.9192 -0.3522 -0.1764
vn 0.9123 -0.3737 -0.1677
vn 0.8938 -0.4093 -0.1835
vn 0.9105 -0.3911 -0.1344
vn 0.9186 -0.3943 -0.0253
vn 0.9225 -0.3663 0.1214
vn 0.9266 -0.3119 0.2103
vn 0.9251 -0.2864 0.2494
vn 0.9321 -0.3579 -0.0562
vn 0.9365 -0.3004 0.1810
vn 0.9920 -0.0038 -0.1261
vn 0.9911 0.0567 -0.1202
vn 0.9679 0.1789 0.1768
vn 0.9492 0.2681 0.1647
vn 0.9397 0.2999 0.1647
vn 0.9929 0.0783 0.0898
vn 1.0000 0.0038 0.0019
vn 0.9026 0.3732 0.2144
vn 0.9475 0.0105 -0.3196
vn 0.9418 0.0216 -0.3355
vn 0.9359 0.0225 -0.3515
vn 0.9290 0.0107 -0.3699
vn 0.9516 -0.0090 -0.3072
vn 0.9534 -0.0290 -0.3004
vn 0.9847 0.1119 -0.1336
vn 0.9390 0.0226 -0.3432
vn 0.9328 0.0174 -0.3600
vn 0.9136 -0.0093 -0.4064
vn 0.9057 -0.0069 -0.4238
vn 0.9050 -0.0058 -0.4254
vn 0.9185 -0.0076 -0.3955
vn 0.9093 -0.0063 -0.4162
vn 0.9142 -0.3626 -0.1807
vn 0.9153 -0.3562 -0.1881
vn 0.9471 -0.0010 0.3208
vn 0.9136 -0.0354 0.4050
vn 0.9576 -0.0246 0.2872
vn 0.9964 0.0100 0.0844
vn 0.9837 -0.0242 0.1780
vn 0.9523 -0.0133 0.3050
vn 0.9141 -0.0133 0.4052
vn 0.9154 -0.0245 0.4018
vn 0.9670 -0.0213 -0.2539
vn 0.9670 -0.0180 -0.2542
vn 0.9688 -0.0211 -0.2469
vn 0.9671 -0.0139 -0.2541
vn 0.9802 -0.1617 -0.1139
vn 0.9663 -0.0249 -0.2562
vn 0.9649 -0.0379 -0.2598
vn 0.9657 -0.0361 -0.2570
vn 0.9660 -0.0323 -0.2565
vn 0.9663 -0.0265 -0.2559
vn 0.9663 -0.0122 -0.2572
vn 0.9683 -0.1743 -0.1789
vn 0.9991 -0.0421 -0.0062
vn 1.0000 -0.0000 -0.0002
vn 1.0000 -0.0002 -0.0003
vn 1.0000 0.0006 0.0002
vn 1.0000 -0.0016 -0.0016
vn 1.0000 -0.0001 -0.0002
vn 1.0000 0.0004 0.0001
vn 1.0000 0.0001 -0.0002
vn 1.0000 -0.0000 -0.0003
vn 1.0000 -0.0004 0.0002
vn 1.0000 -0.0000 -0.0000
vn 1.0000 0.0008 -0.0009
vn 1.0000 -0.0003 -0.0000
vn 1.0000 0.0001 -0.0004
vn 1.0000 0.0006 -0.0004
vn 1.0000 0.0022 -0.0002
vn 1.0000 0.0001 -0.0001
vn 1.0000 0.0007 0.0011
vn 1.0000 -0.0000 -0.0004
vn 1.0000 -0.0002 -0.0000
vn 1.0000 0.0001 -0.0003
vn 1.0000 0.0002 -0.0003
vn 1.0000 0.0014 -0.0015
vn 1.0000 -0.0006 0.0002
vn 1.0000 0.0003 -0.0004
s 1
usemtl laser
f 3//1 1//1 2//2
f 7//6 5//4 6//5
f 4//3 7//6 6//5
f 71//66 5//4 7//6
f 8//7 5//4 71//66
f 10//8 11//8 9//8
f 13//10 14//10 12//9
f 76//71 21//17 20//16
f 20//16 12//9 22//18
f 69//64 16//12 76//71
f 30//26 20//16 22//18
f 30//26 76//71 20//16
f 30//26 22//18 23//19
f 31//27 69//64 76//71
f 31//27 76//71 30//26
f 30//26 23//19 24//20
f 19//15 18//14 17//13
f 31//27 17//13 69//64
f 30//26 25//21 26//22
f 15//11 17//13 31//27
f 15//11 19//15 17//13
f 31//27 27//23 28//24
f 31//27 28//24 29//25
f 31//27 30//26 26//22
f 37//33 60//55 34//30
f 37//33 34//30 35//31
f 35//31 47//42 33//29
f 35//31 36//32 47//42
f 37//33 32//28 60//55
f 37//33 33//29 32//28
f 37//33 35//31 33//29
f 40//35 39//35 38//34
f 51//46 52//47 54//49
f 50//45 51//46 54//49
f 53//48 50//45 54//49
f 53//48 49//44 50//45
f 49//44 44//39 43//38
f 49//44 53//48 44//39
f 43//38 48//43 49//44
f 48//43 43//38 42//37
f 47//42 42//37 41//36
f 47//42 48//43 42//37
f 41//36 33//29 47//42
f 45//40 33//29 41//36
f 45//40 32//28 33//29
f 46//41 4//3 6//5
f 46//41 6//5 32//28
f 46//41 32//28 45//40
f 56//51 55//50 22//18
f 56//51 22//18 12//9
f 60//55 32//28 6//5
f 61//56 6//5 59//54
f 61//56 60//55 6//5
f 62//57 57//52 60//55
f 62//57 60//55 61//56
f 62//57 61//56 59//54
f 64//59 59//54 58//53
f 64//59 62//57 59//54
f 64//59 63//58 62//57
f 8//7 71//66 72//67
f 19//15 8//7 72//67
f 70//65 74//69 65//60
f 18//14 72//67 73//68
f 18//14 73//68 74//69
f 18//14 19//15 72//67
f 18//14 74//69 70//65
f 66//61 67//62 68//63
f 66//61 68//63 16//12
f 66//61 16//12 69//64
f 66//61 69//64 70//65
f 66//61 70//65 65//60
f 76//71 16//12 68//63
f 75//70 21//17 76//71
f 77//72 78//72 2//2
f 110//95 108//93 109//94
f 111//96 107//92 108//93
f 111//96 108//93 110//95
f 104//73 106//91 107//92
f 104//73 107//92 111//96
f 105//73 106//91 104//73
f 98//86 105//73 104//73
f 38//34 98//86 99//87
f 38//34 105//73 98//86
f 103//90 101//88 102//89
f 97//73 100//88 101//88
f 97//73 101//88 103//90
f 97//73 38//34 100//88
f 97//73 105//73 38//34
f 87//80 105//73 97//73
f 81//75 82//76 83//74
f 80//74 83//74 84//77
f 80//74 84//77 85//78
f 80//74 81//75 83//74
f 79//73 85//78 86//79
f 79//73 86//79 87//80
f 79//73 80//74 85//78
f 88//80 79//73 87//80
f 89//80 87//80 97//73
f 89//80 88//80 87//80
f 96//85 88//80 89//80
f 90//77 96//85 89//80
f 95//84 96//85 90//77
f 91//81 95//84 90//77
f 94//83 95//84 91//81
f 92//82 94//83 91//81
f 93//82 94//83 92//82
