mtllib bird_rectrix_00.mtl
usemtl bird_rectrix_00
# Blender 5.1.1
# www.blender.org
o PIECE_BIRD_RECTRIX_RIG_00
v 0.000001 0.000014 -0.000235
v 0.003807 -0.017010 -0.001303
v -0.019752 -0.017887 -0.000940
v -0.013676 -0.009649 -0.001347
v 0.003156 -0.025393 -0.000951
v -0.021129 -0.048667 -0.000773
v -0.000827 -0.039131 -0.000993
v -0.003928 -0.051957 -0.001559
v -0.036471 -0.047618 -0.001723
v -0.030272 -0.035968 -0.001416
v -0.009138 -0.066347 -0.002002
v -0.050452 -0.080839 -0.003060
v -0.039321 -0.054284 -0.002025
v -0.012137 -0.075584 -0.002332
v -0.043137 -0.061599 -0.002335
v -0.044847 -0.107640 -0.003778
v -0.017655 -0.086916 -0.002960
v -0.019707 -0.093916 -0.003345
v -0.023713 -0.100100 -0.003767
v -0.054536 -0.089386 -0.003884
v -0.027878 -0.110633 -0.004507
v -0.033394 -0.119782 -0.005248
v -0.060903 -0.108126 -0.005241
v -0.062281 -0.115177 -0.005786
v -0.042528 -0.137064 -0.006800
v -0.067130 -0.160553 -0.008923
v -0.066778 -0.129994 -0.007029
v -0.053076 -0.151306 -0.008183
v -0.069444 -0.144220 -0.008180
v -0.057652 -0.156634 -0.008900
v -0.070029 -0.151459 -0.008900
v 0.000001 0.000003 -0.000126
v 0.000321 -0.000136 0.000360
v -0.000263 0.000107 0.000546
v -0.031935 -0.075910 -0.001192
v -0.026350 -0.063067 -0.001063
v -0.026277 -0.063321 -0.000577
v -0.060339 -0.144519 -0.006214
v -0.060459 -0.144476 -0.006120
v -0.060320 -0.144513 -0.006379
vn 0.0021 0.0181 0.9998
vn -0.0166 -0.0225 0.9996
vn 0.0285 -0.0279 0.9992
vn -0.0581 0.0218 0.9981
vn 0.1103 -0.0704 0.9914
vn 0.0723 -0.0590 0.9956
vn -0.0630 -0.0053 0.9980
vn -0.0546 -0.0351 0.9979
vn 0.0157 -0.0542 0.9984
vn -0.5804 0.2126 0.7860
vn -0.0299 -0.0671 0.9973
vn 0.0185 -0.0636 0.9978
vn 0.0179 -0.0643 0.9978
vn 0.0302 -0.0862 0.9958
vn 0.0274 -0.0873 0.9958
vn -0.0976 -0.0460 0.9942
vn 0.0230 -0.0987 0.9948
vn 0.0134 -0.1018 0.9947
vn -0.0875 -0.0599 0.9944
vn -0.0443 -0.0986 0.9941
vn 0.0273 -0.1209 0.9923
vn 0.0805 -0.2005 0.9764
vn -0.0968 0.0574 -0.9936
vn 0.4234 -0.1606 -0.8916
vn -0.5469 0.1661 0.8206
vn 0.8700 -0.3690 0.3269
vn -0.6896 0.2797 0.6680
vn 0.5101 -0.2239 0.8305
vn 0.7934 -0.3612 0.4900
vn -0.6173 0.2010 0.7606
vn 0.3016 -0.0530 -0.9520
vn -0.2302 0.2166 0.9487
vn 0.3282 0.0141 0.9445
vn 0.0801 -0.0182 0.9966
vn 0.0013 -0.0270 0.9996
vn -0.0327 -0.0252 0.9991
vn -0.0890 -0.0523 0.9947
vn -0.0899 -0.0570 0.9943
vn -0.1166 -0.0616 0.9913
vn -0.2354 -0.0773 0.9688
vt 0.100041 0.000331
vt 0.098216 0.316039
vt 0.019843 0.209536
vt 0.165549 0.138231
vt 0.008251 0.284658
vt 0.004048 0.372323
vt 0.189933 0.332399
vt 0.191178 0.539585
vt 0.000674 0.427898
vt 0.190580 0.374002
vt 0.095888 0.659675
vt 0.004571 0.500143
vt 0.000227 0.541819
vt 0.008029 0.583422
vt 0.008226 0.648456
vt 0.194169 0.593643
vt 0.016519 0.709223
vt 0.028180 0.821027
vt 0.171263 0.836375
vt 0.106863 0.999586
vt 0.053373 0.919375
vt 0.065124 0.958331
vt 0.205800 0.000324
vt 0.201323 0.175294
vt 0.196161 0.462298
vt 0.208267 0.000254
vt 0.213404 0.284133
vt 0.224677 0.000236
vt 0.223933 0.466869
vt 0.223258 0.000253
vt 0.221670 0.393326
vt 0.220214 0.731932
vt 0.219461 0.742371
vt 0.215970 0.584755
vt 0.212711 0.735614
vt 0.207329 0.899344
vt 0.226087 0.599225
vt 0.226098 0.899327
vt 0.225087 0.399451
vt 0.217880 0.899226
vt 0.217450 0.899220
vt 0.151476 0.081479
vt 0.042975 0.082501
vt 0.028447 0.128296
vt 0.182214 0.257098
vt 0.194461 0.421156
vt 0.187937 0.707226
vt 0.179652 0.747730
vt 0.154197 0.917674
vt 0.142072 0.957807
vt 0.199597 0.121408
vt 0.214547 0.245215
vt 0.225074 0.364129
vt 0.214929 0.549020
s 1
f 1/1/1 6/2/2 7/3/3
f 3/4/4 6/2/2 1/1/1
f 8/5/5 7/3/3 11/6/6
f 9/7/7 12/8/8 6/2/2
f 7/3/3 6/2/2 14/9/9
f 13/10/10 12/8/8 9/7/7
f 12/8/8 16/11/11 6/2/2
f 17/12/12 16/11/11 18/13/13
f 16/11/11 19/14/14 18/13/13
f 19/14/14 16/11/11 21/15/15
f 12/8/8 20/16/16 16/11/11
f 16/11/11 22/17/17 21/15/15
f 16/11/11 25/18/18 22/17/17
f 16/11/11 27/19/19 26/20/20
f 28/21/21 26/20/20 30/22/22
f 32/23/23 36/24/24 35/25/25
f 33/26/26 36/27/24 32/23/23
f 34/28/27 37/29/28 33/30/26
f 36/31/24 38/32/29 35/33/25
f 37/34/28 39/35/30 38/36/29
f 35/37/25 39/38/30 37/39/28
f 35/33/25 40/40/31 39/41/30
f 1/1/1 4/42/32 3/4/4
f 2/43/33 1/1/1 5/44/34
f 5/44/34 1/1/1 7/3/3
f 3/4/4 9/7/7 6/2/2
f 3/4/4 10/45/35 9/7/7
f 11/6/6 7/3/3 14/9/9
f 13/10/10 15/46/36 12/8/8
f 14/9/9 6/2/2 16/11/11
f 17/12/12 14/9/9 16/11/11
f 16/11/11 20/16/16 23/47/37
f 16/11/11 23/47/37 24/48/38
f 16/11/11 26/20/20 25/18/18
f 16/11/11 24/48/38 27/19/19
f 26/20/20 28/21/21 25/18/18
f 26/20/20 27/19/19 29/49/39
f 29/49/39 31/50/40 26/20/20
f 34/51/27 32/23/23 35/25/25
f 33/26/26 37/52/28 36/27/24
f 37/29/28 34/28/27 35/53/25
f 36/54/24 37/34/28 38/36/29
f 35/33/25 38/32/29 40/40/31
