mtllib bird_rectrix_06.mtl
usemtl bird_rectrix_06
# Blender 5.1.1
# www.blender.org
o PIECE_BIRD_RECTRIX_RIG_06
v 0.000002 0.000013 -0.000203
v 0.010630 -0.015065 -0.001307
v -0.008597 -0.015553 -0.001400
v 0.013217 -0.023318 -0.000922
v -0.011801 -0.036031 -0.001259
v 0.016439 -0.038956 -0.001215
v -0.011986 -0.047633 -0.001230
v 0.016841 -0.046581 -0.001220
v 0.018348 -0.054367 -0.001575
v -0.012501 -0.056322 -0.001605
v 0.018940 -0.066577 -0.001923
v 0.006079 -0.076826 -0.001332
v -0.012047 -0.086925 -0.002379
v -0.012754 -0.074609 -0.002139
v 0.020955 -0.077857 -0.002300
v 0.020487 -0.085735 -0.002612
v 0.021580 -0.093557 -0.002960
v -0.008941 -0.133839 -0.004693
v -0.011984 -0.100720 -0.003235
v 0.021209 -0.101431 -0.003345
v 0.021512 -0.111625 -0.003915
v -0.010619 -0.125475 -0.004617
v 0.020486 -0.125082 -0.004496
v 0.020692 -0.139200 -0.005693
v -0.007913 -0.147065 -0.006214
v 0.017638 -0.164144 -0.007609
v -0.005479 -0.157406 -0.006935
v 0.006788 -0.188441 -0.008970
v -0.002923 -0.169909 -0.007852
v 0.013498 -0.180320 -0.008900
v 0.000076 -0.180804 -0.008900
v -0.000324 -0.000017 0.000766
v -0.000101 -0.000005 0.000329
v 0.000283 0.000008 0.000546
v 0.003018 -0.077466 -0.000874
v 0.004199 -0.118635 -0.003014
v 0.003564 -0.102251 -0.001903
v 0.006188 -0.169586 -0.006217
v 0.006068 -0.169600 -0.006077
v 0.006107 -0.169573 -0.006437
vn -0.0084 0.0107 0.9999
vn 0.0631 0.0045 0.9980
vn 0.2899 0.1350 0.9475
vn 0.0375 -0.0147 0.9992
vn 0.1171 0.0055 0.9931
vn 0.0123 -0.0347 0.9993
vn -0.1073 0.0060 0.9942
vn -0.0342 -0.0173 0.9993
vn 0.0741 -0.0297 0.9968
vn 0.0652 -0.0242 0.9976
vn -0.2332 -0.0280 0.9720
vn -0.0392 -0.0437 0.9983
vn 0.0626 -0.0335 0.9975
vn 0.0653 -0.0376 0.9972
vn 0.0532 -0.0478 0.9974
vn -0.0147 -0.0705 0.9974
vn 0.0452 -0.0538 0.9975
vn 0.0576 -0.0485 0.9972
vn -0.1217 -0.0620 0.9906
vn -0.2852 -0.0661 0.9562
vn 0.0218 -0.0658 0.9976
vn 0.0664 -0.0854 0.9941
vn 0.0579 -0.0835 0.9948
vn 0.0036 -0.0958 0.9954
vn -0.1176 -0.1101 0.9869
vn 0.1230 -0.1102 0.9863
vn 0.9955 0.0325 0.0889
vn 0.5278 -0.0051 0.8494
vn -0.2870 0.0099 -0.9579
vn -0.7449 -0.0350 0.6663
vn -0.8713 -0.0033 -0.4907
vn -0.3188 -0.0730 0.9450
vn -0.3926 -0.0685 0.9171
vn 0.9835 0.0270 0.1790
vn -0.2066 0.0389 0.9777
vn -0.1339 -0.0270 0.9906
vn -0.2744 -0.1309 0.9527
vn -0.0479 -0.0851 0.9952
vn -0.1413 -0.1332 0.9810
vn -0.1213 0.0560 -0.9910
vt 0.101061 0.000313
vt 0.034133 0.125461
vt 0.047091 0.081736
vt 0.018602 0.249180
vt 0.019192 0.208766
vt 0.068506 0.401599
vt 0.167501 0.189483
vt 0.171308 0.250573
vt 0.011708 0.290692
vt 0.009525 0.355357
vt 0.175608 0.296610
vt 0.177154 0.458637
vt 0.001275 0.415441
vt 0.004879 0.457104
vt 0.000218 0.498702
vt 0.167027 0.708394
vt 0.003309 0.540379
vt 0.003739 0.594417
vt 0.178663 0.531850
vt 0.174817 0.663242
vt 0.010686 0.665548
vt 0.031673 0.872405
vt 0.012053 0.740555
vt 0.092143 0.999645
vt 0.152621 0.833405
vt 0.055465 0.957740
vt 0.195058 0.121314
vt 0.199243 0.396517
vt 0.189995 0.000292
vt 0.208033 0.000238
vt 0.206358 0.364359
vt 0.206721 0.000226
vt 0.186756 0.000239
vt 0.182976 0.630613
vt 0.180349 0.583502
vt 0.188771 0.899431
vt 0.195639 0.735885
vt 0.190431 0.899437
vt 0.148466 0.081642
vt 0.178712 0.393406
vt 0.163130 0.778102
vt 0.139354 0.899473
vt 0.126576 0.958373
vt 0.189062 0.000294
vt 0.202710 0.397473
vt 0.204942 0.417520
vt 0.202574 0.630537
vt 0.206310 0.538586
vt 0.202585 0.732013
vt 0.205443 0.599366
vt 0.206232 0.899445
vt 0.189420 0.899413
vt 0.200159 0.899341
s 1
f 1/1/1 4/2/2 2/3/3
f 4/2/2 8/4/4 6/5/5
f 1/1/1 12/6/6 8/4/4
f 5/7/7 7/8/8 1/1/1
f 9/9/9 12/6/6 11/10/10
f 10/11/11 13/12/12 7/8/8
f 11/10/10 12/6/6 15/13/13
f 12/6/6 16/14/14 15/13/13
f 16/14/14 12/6/6 17/15/15
f 13/12/12 18/16/16 12/6/6
f 12/6/6 20/17/17 17/15/15
f 12/6/6 21/18/18 20/17/17
f 13/12/12 19/19/19 22/20/20
f 18/16/16 23/21/21 12/6/6
f 13/12/12 22/20/20 18/16/16
f 23/21/21 26/22/22 24/23/23
f 18/16/16 28/24/24 23/21/21
f 18/16/16 27/25/25 28/24/24
f 28/24/24 30/26/26 26/22/22
f 34/27/27 35/28/28 33/29/29
f 32/30/30 35/31/28 34/32/27
f 32/33/30 36/34/31 37/35/32
f 36/34/31 39/36/33 37/35/32
f 35/28/28 39/37/33 38/38/34
f 3/39/35 5/7/7 1/1/1
f 4/2/2 1/1/1 8/4/4
f 1/1/1 7/8/8 12/6/6
f 9/9/9 8/4/4 12/6/6
f 7/8/8 13/12/12 12/6/6
f 10/11/11 14/40/36 13/12/12
f 12/6/6 23/21/21 21/18/18
f 18/16/16 25/41/37 27/25/25
f 23/21/21 28/24/24 26/22/22
f 28/24/24 27/25/25 29/42/38
f 29/42/38 31/43/39 28/24/24
f 32/33/30 33/44/29 36/34/31
f 33/45/29 35/46/28 36/47/31
f 35/31/28 32/30/30 37/48/32
f 36/47/31 35/46/28 38/49/34
f 35/50/28 37/48/32 39/51/33
f 36/34/31 40/52/40 39/36/33
f 36/47/31 38/49/34 40/53/40
