mtllib bird_rectrix_03.mtl
usemtl bird_rectrix_03
# Blender 5.1.1
# www.blender.org
o PIECE_BIRD_RECTRIX_RIG_03
v -0.000002 0.000013 -0.000199
v 0.007634 -0.016621 -0.001287
v -0.014964 -0.020652 -0.000918
v -0.011547 -0.012875 -0.001398
v 0.008317 -0.026267 -0.001018
v -0.019021 -0.093808 -0.002065
v -0.017009 -0.027930 -0.000875
v 0.007763 -0.040547 -0.001212
v -0.020021 -0.035050 -0.001244
v -0.025825 -0.055652 -0.001719
v 0.005765 -0.057617 -0.001453
v 0.003163 -0.080176 -0.002328
v -0.029255 -0.075624 -0.002451
v 0.000479 -0.092951 -0.002960
v -0.031273 -0.087173 -0.002960
v -0.000374 -0.101391 -0.003405
v -0.033351 -0.094536 -0.003310
v -0.033903 -0.102172 -0.003767
v -0.004274 -0.115302 -0.004225
v -0.014810 -0.151842 -0.006624
v -0.035487 -0.109622 -0.004225
v -0.005258 -0.122862 -0.004717
v -0.010818 -0.141420 -0.006010
v -0.035666 -0.117329 -0.004717
v -0.037061 -0.125249 -0.005162
v -0.038866 -0.146988 -0.006922
v -0.018595 -0.163429 -0.007893
v -0.032723 -0.179791 -0.008993
v -0.038276 -0.155547 -0.007607
v -0.038406 -0.163487 -0.008167
v -0.024016 -0.173619 -0.008900
v -0.037590 -0.171149 -0.008900
v -0.000344 0.000063 0.000229
v 0.000223 -0.000041 0.000253
v -0.000224 0.000038 0.000599
v -0.015478 -0.085086 -0.000966
v -0.016227 -0.088015 -0.001619
v -0.020565 -0.113085 -0.003027
v -0.029536 -0.161792 -0.006173
v -0.029364 -0.161821 -0.006217
v -0.029440 -0.161790 -0.006437
vn 0.2334 0.0436 0.9714
vn -0.0049 0.0120 0.9999
vn 0.0640 -0.0108 0.9979
vn 0.0131 -0.0243 0.9996
vn 0.0363 -0.0180 0.9992
vn -0.0204 -0.0480 0.9986
vn -0.1088 0.0442 0.9931
vn -0.0255 -0.0121 0.9996
vn -0.0488 -0.0169 0.9987
vn 0.0410 -0.0475 0.9980
vn 0.0483 -0.0586 0.9971
vn 0.0452 -0.0650 0.9969
vn -0.0869 -0.0263 0.9959
vn -0.0844 -0.0407 0.9956
vn 0.0343 -0.0746 0.9966
vn -0.0882 -0.0455 0.9951
vn 0.0407 -0.0751 0.9963
vn -0.0271 -0.0614 0.9977
vn 0.0053 -0.0828 0.9965
vn -0.0209 -0.0988 0.9949
vn -0.0514 -0.0695 0.9963
vn 0.0791 -0.1347 0.9877
vn 0.0937 -0.1471 0.9847
vn -0.2943 0.0348 0.9551
vn 0.1419 -0.0586 0.9881
vn 0.9423 -0.1599 -0.2942
vn -0.7864 0.1542 -0.5981
vn 0.8557 -0.1233 -0.5026
vn -0.9848 0.1714 0.0281
vn -0.7309 0.0887 0.6767
vn 0.8641 -0.1887 0.4665
vn -0.3148 0.1956 0.9288
vn -0.1996 0.0337 0.9793
vn -0.0808 -0.0243 0.9964
vn -0.0750 -0.0579 0.9955
vn -0.0995 -0.0417 0.9942
vn -0.0063 -0.0802 0.9968
vn -0.3826 -0.0591 0.9220
vn -0.0829 -0.0784 0.9935
vn -0.1816 -0.1128 0.9769
vn 0.0061 0.0686 -0.9976
vt 0.032193 0.083353
vt 0.087866 0.000322
vt 0.020235 0.134659
vt 0.006202 0.306147
vt 0.010258 0.212040
vt 0.108313 0.519142
vt 0.150491 0.124784
vt 0.154526 0.165911
vt 0.176679 0.323296
vt 0.000439 0.429851
vt 0.002983 0.501148
vt 0.000611 0.547428
vt 0.179286 0.498104
vt 0.183954 0.539681
vt 0.008831 0.626047
vt 0.180191 0.581413
vt 0.021606 0.772867
vt 0.007446 0.667756
vt 0.034175 0.832756
vt 0.105139 0.999639
vt 0.177341 0.708906
vt 0.044716 0.898497
vt 0.063701 0.958767
vt 0.211978 0.000228
vt 0.212606 0.477162
vt 0.210628 0.000242
vt 0.192110 0.000251
vt 0.185534 0.323314
vt 0.187531 0.166484
vt 0.210063 0.374928
vt 0.208746 0.630008
vt 0.208535 0.494084
vt 0.213333 0.899520
vt 0.212712 0.899522
vt 0.138435 0.080213
vt 0.164774 0.207004
vt 0.178594 0.433993
vt 0.182138 0.623055
vt 0.176285 0.664841
vt 0.166875 0.827929
vt 0.156561 0.873716
vt 0.149869 0.916552
vt 0.139069 0.957466
vt 0.186589 0.483833
vt 0.195653 0.000280
vt 0.195653 0.000279
vt 0.203839 0.458996
vt 0.203384 0.549121
vt 0.188611 0.659324
vt 0.194198 0.899503
vt 0.195893 0.899507
vt 0.213297 0.547851
vt 0.194866 0.899482
vt 0.208425 0.732115
vt 0.205920 0.899405
s 1
f 2/1/1 1/2/2 5/3/3
f 1/2/2 11/4/4 8/5/5
f 1/2/2 6/6/6 11/4/4
f 3/7/7 7/8/8 1/2/2
f 10/9/9 6/6/6 7/8/8
f 11/4/4 6/6/6 12/10/10
f 14/11/11 6/6/6 16/12/12
f 15/13/13 17/14/14 6/6/6
f 6/6/6 19/15/15 16/12/12
f 18/16/16 6/6/6 17/14/14
f 19/15/15 23/17/17 22/18/18
f 20/19/19 23/17/17 6/6/6
f 6/6/6 28/20/20 20/19/19
f 6/6/6 25/21/21 28/20/20
f 27/22/22 28/20/20 31/23/23
f 35/24/24 36/25/25 34/26/26
f 33/27/27 36/28/25 35/29/24
f 34/30/26 38/31/28 37/32/29
f 39/33/30 40/34/31 36/25/25
f 1/2/2 4/35/32 3/7/7
f 5/3/3 1/2/2 8/5/5
f 1/2/2 7/8/8 6/6/6
f 9/36/33 10/9/9 7/8/8
f 6/6/6 10/9/9 13/37/34
f 6/6/6 13/37/34 15/13/13
f 14/11/11 12/10/10 6/6/6
f 18/16/16 21/38/35 6/6/6
f 19/15/15 6/6/6 23/17/17
f 6/6/6 21/38/35 24/39/36
f 6/6/6 24/39/36 25/21/21
f 20/19/19 28/20/20 27/22/22
f 25/21/21 26/40/37 29/41/38
f 28/20/20 25/21/21 30/42/39
f 25/21/21 29/41/38 30/42/39
f 30/42/39 32/43/40 28/20/20
f 36/28/25 33/27/27 37/44/29
f 33/27/27 34/45/26 37/44/29
f 34/46/26 36/47/25 38/48/28
f 37/44/29 38/49/28 39/50/30
f 38/48/28 36/47/25 40/51/31
f 37/52/29 39/33/30 36/25/25
f 38/49/28 41/53/41 39/50/30
f 38/31/28 40/54/31 41/55/41
