mtllib bird_rectrix_02.mtl
usemtl bird_rectrix_02
# Blender 5.1.1
# www.blender.org
o PIECE_BIRD_RECTRIX_RIG_02
v 0.000002 0.000013 -0.000179
v 0.003409 -0.008614 -0.000834
v -0.006660 -0.006022 -0.000834
v 0.005996 -0.017017 -0.000915
v -0.012523 -0.012249 -0.000915
v 0.006101 -0.028391 -0.000947
v -0.016414 -0.019242 -0.000996
v -0.031345 -0.061360 -0.001536
v -0.024667 -0.040152 -0.001342
v 0.002607 -0.053920 -0.001390
v -0.029414 -0.053923 -0.001738
v 0.001782 -0.062353 -0.001784
v -0.000350 -0.069561 -0.001843
v -0.001414 -0.077004 -0.002300
v -0.034878 -0.071033 -0.002407
v -0.005189 -0.088569 -0.002856
v -0.025678 -0.114959 -0.003699
v -0.007034 -0.099655 -0.003403
v -0.040015 -0.093475 -0.003300
v -0.013746 -0.118777 -0.004615
v -0.042905 -0.106333 -0.004299
v -0.016237 -0.127345 -0.005241
v -0.046792 -0.125482 -0.005682
v -0.022032 -0.141089 -0.006346
v -0.047128 -0.134857 -0.006219
v -0.024681 -0.148381 -0.006982
v -0.031481 -0.160976 -0.008065
v -0.048920 -0.142958 -0.007105
v -0.044841 -0.174156 -0.009001
v -0.049397 -0.164776 -0.008762
v -0.036029 -0.168670 -0.008900
v 0.000001 0.000004 -0.000126
v 0.000300 -0.000081 0.000597
v -0.000275 0.000068 0.000546
v -0.017777 -0.068095 -0.000859
v -0.021100 -0.082361 -0.000943
v -0.027844 -0.108793 -0.002909
v -0.040446 -0.156713 -0.006173
v -0.040358 -0.156724 -0.006322
v -0.040278 -0.156750 -0.006253
vn 0.0027 0.0139 0.9999
vn 0.0335 -0.0190 0.9993
vn 0.2495 0.0285 0.9679
vn 0.0230 -0.0026 0.9997
vn -0.0278 -0.0256 0.9993
vn 0.0082 -0.0261 0.9996
vn -0.0597 0.0085 0.9982
vn -0.0706 0.0129 0.9974
vn 0.0122 -0.0390 0.9992
vn -0.5422 0.1632 0.8242
vn 0.0395 -0.0622 0.9973
vn 0.0725 -0.0714 0.9948
vn -0.0045 -0.0693 0.9976
vn 0.0325 -0.0589 0.9977
vn 0.0496 -0.0838 0.9952
vn 0.0406 -0.0929 0.9948
vn -0.0499 -0.0470 0.9977
vn -0.0975 -0.0533 0.9938
vn -0.0607 -0.0699 0.9957
vn 0.0294 -0.0967 0.9949
vn 0.0222 -0.0971 0.9950
vn -0.1063 -0.0762 0.9914
vn -0.0184 -0.0953 0.9953
vn -0.1648 -0.0711 0.9838
vn 0.0312 -0.1028 0.9942
vn 0.0873 -0.1583 0.9835
vn -0.8293 0.2038 0.5204
vn 0.1326 -0.0942 0.9867
vn 0.7808 -0.2181 0.5855
vn 0.9644 -0.2562 0.0655
vn -0.1535 0.1041 -0.9826
vn -0.9431 0.2436 0.2263
vn -0.7277 0.1291 0.6736
vn 0.9573 -0.2581 0.1304
vn -0.4599 0.4228 0.7809
vn -0.1102 0.0530 0.9925
vn 0.1903 -0.0644 0.9796
vn -0.3454 0.0418 0.9375
vn -0.2451 -0.0203 0.9693
vn 0.0004 0.0102 -0.9999
vt 0.096351 0.000325
vt 0.025992 0.145076
vt 0.066383 0.042197
vt 0.041129 0.083939
vt 0.181489 0.373572
vt 0.010116 0.287197
vt 0.158652 0.126094
vt 0.175090 0.249742
vt 0.004619 0.375338
vt 0.182590 0.330254
vt 0.004060 0.484391
vt 0.000224 0.416947
vt 0.078151 0.641208
vt 0.000532 0.546611
vt 0.010128 0.658871
vt 0.012266 0.708454
vt 0.185231 0.557091
vt 0.178535 0.739584
vt 0.168396 0.790752
vt 0.024924 0.790482
vt 0.029425 0.833429
vt 0.139431 0.954996
vt 0.103291 0.999633
vt 0.166780 0.836825
vt 0.049279 0.910400
vt 0.063228 0.958336
vt 0.217652 0.000234
vt 0.217291 0.472292
vt 0.216280 0.000244
vt 0.209416 0.394977
vt 0.208085 0.631962
vt 0.201759 0.000239
vt 0.191626 0.549075
vt 0.199546 0.899350
vt 0.190154 0.390871
vt 0.198868 0.899375
vt 0.190188 0.599358
vt 0.200592 0.899376
vt 0.200138 0.899357
vt 0.217134 0.899393
vt 0.216504 0.899392
vt 0.124098 0.041796
vt 0.147280 0.083201
vt 0.002747 0.333704
vt 0.187739 0.429888
vt 0.184368 0.631062
vt 0.193363 0.121178
vt 0.199361 0.000314
vt 0.211389 0.000232
vt 0.213873 0.171221
vt 0.212501 0.165666
vt 0.218140 0.408180
vt 0.213524 0.490021
vt 0.215874 0.400999
vt 0.215587 0.499327
vt 0.206054 0.735803
s 1
f 1/1/1 6/2/2 2/3/3
f 2/3/3 6/2/2 4/4/4
f 1/1/1 8/5/5 10/6/6
f 7/7/7 9/8/8 1/1/1
f 9/8/8 8/5/5 1/1/1
f 10/6/6 8/5/5 13/9/9
f 11/10/10 8/5/5 9/8/8
f 13/9/9 16/11/11 14/12/12
f 13/9/9 8/5/5 17/13/13
f 16/11/11 17/13/13 18/14/14
f 17/13/13 20/15/15 18/14/14
f 17/13/13 22/16/16 20/15/15
f 19/17/17 23/18/18 25/19/19
f 17/13/13 24/20/20 22/16/16
f 17/13/13 26/21/21 24/20/20
f 25/19/19 30/22/22 29/23/23
f 25/19/19 28/24/24 30/22/22
f 27/25/25 29/23/23 31/26/26
f 34/27/27 36/28/28 33/29/29
f 36/30/28 37/31/30 33/32/29
f 37/33/30 39/34/31 35/35/32
f 35/35/32 38/36/33 36/37/28
f 37/31/30 40/38/34 39/39/31
f 38/40/33 40/41/34 36/28/28
f 3/42/35 5/43/36 1/1/1
f 5/43/36 7/7/7 1/1/1
f 6/2/2 1/1/1 10/6/6
f 12/44/37 10/6/6 13/9/9
f 8/5/5 15/45/38 19/17/17
f 16/11/11 13/9/9 17/13/13
f 17/13/13 8/5/5 19/17/17
f 19/17/17 21/46/39 23/18/18
f 17/13/13 19/17/17 25/19/19
f 17/13/13 27/25/25 26/21/21
f 17/13/13 29/23/23 27/25/25
f 17/13/13 25/19/19 29/23/23
f 34/47/27 32/48/40 35/35/32
f 32/49/40 33/50/29 35/51/32
f 36/28/28 34/27/27 35/52/32
f 35/53/32 33/54/29 37/55/30
f 35/35/32 39/34/31 38/36/33
f 37/31/30 36/56/28 40/38/34
