mtllib bird_rectrix_05.mtl
usemtl bird_rectrix_05
# Blender 5.1.1
# www.blender.org
o PIECE_BIRD_RECTRIX_RIG_05
v -0.000058 0.000019 -0.000275
v 0.009949 -0.015875 -0.001069
v -0.012541 -0.025539 -0.000946
v -0.009993 -0.015362 -0.000915
v 0.012221 -0.033170 -0.001122
v -0.001108 -0.076147 -0.001232
v -0.016092 -0.054413 -0.001329
v 0.014688 -0.060660 -0.001585
v -0.017626 -0.062254 -0.001784
v 0.014124 -0.074593 -0.002038
v -0.017792 -0.070110 -0.002025
v -0.019323 -0.085178 -0.002597
v 0.014639 -0.100469 -0.003240
v -0.019119 -0.117182 -0.004105
v -0.018500 -0.095004 -0.003042
v 0.012944 -0.110521 -0.003702
v -0.019534 -0.109353 -0.003767
v 0.012472 -0.118366 -0.004225
v -0.006994 -0.142121 -0.005030
v 0.011406 -0.126176 -0.004524
v -0.019288 -0.125084 -0.004717
v 0.010274 -0.140277 -0.005650
v -0.018305 -0.132980 -0.005241
v -0.018741 -0.140826 -0.005796
v -0.006792 -0.188442 -0.008923
v -0.016732 -0.156600 -0.006907
v -0.018149 -0.148708 -0.006377
v 0.005388 -0.165183 -0.007584
v 0.000880 -0.180733 -0.008785
v -0.015185 -0.171830 -0.008134
v -0.012709 -0.180349 -0.008900
v 0.000000 0.000003 -0.000127
v 0.000164 -0.000008 0.000402
v 0.000201 -0.000012 0.000811
v -0.003643 -0.095546 -0.001347
v -0.004199 -0.118639 -0.003014
v -0.003994 -0.114261 -0.002462
v -0.006188 -0.169586 -0.006217
v -0.006107 -0.169573 -0.006437
v -0.006010 -0.169586 -0.006300
vn 0.0694 -0.0042 0.9976
vn 0.0402 -0.0182 0.9990
vn -0.3140 -0.0442 0.9484
vn -0.0397 -0.0068 0.9992
vn -0.0363 -0.0188 0.9992
vn 0.0074 -0.0060 1.0000
vn -0.0025 -0.0372 0.9993
vn 0.0568 -0.0396 0.9976
vn 0.0472 -0.0518 0.9975
vn 0.1696 -0.0517 0.9842
vn -0.0446 -0.0557 0.9975
vn 0.0431 -0.0560 0.9975
vn -0.0150 -0.0753 0.9970
vn 0.0347 -0.0653 0.9973
vn 0.3482 -0.0832 0.9337
vn -0.0792 -0.0754 0.9940
vn -0.0116 -0.0958 0.9953
vn -0.0731 -0.0794 0.9942
vn -0.0693 -0.0832 0.9941
vn 0.0625 -0.0899 0.9940
vn 0.0441 -0.0833 0.9955
vn -0.2560 0.0221 -0.9664
vn 0.9802 -0.0342 -0.1948
vn -0.3949 -0.0119 0.9186
vn 0.4051 0.0441 -0.9132
vn 0.1453 0.0035 0.9894
vn 0.6021 -0.0787 0.7945
vn -0.6760 -0.0254 0.7365
vn -0.1332 0.0770 -0.9881
vn 0.9656 -0.0574 0.2536
vn -0.0971 0.0213 0.9950
vn -0.1548 -0.0270 0.9876
vn -0.6780 0.0409 0.7339
vn 0.0205 -0.0433 0.9989
vn -0.0592 -0.0461 0.9972
vn -0.0777 -0.0732 0.9943
vn -0.0728 -0.0721 0.9947
vn 0.0835 -0.1008 0.9914
vn -0.0886 -0.0919 0.9918
vn -0.1923 -0.1431 0.9709
vt 0.028780 0.083870
vt 0.002419 0.320790
vt 0.016351 0.175342
vt 0.147409 0.136128
vt 0.164054 0.289183
vt 0.082494 0.000876
vt 0.084179 0.419601
vt 0.003466 0.394644
vt 0.000805 0.531733
vt 0.176091 0.504578
vt 0.177393 0.622251
vt 0.008106 0.585153
vt 0.109659 0.753750
vt 0.015399 0.668304
vt 0.010172 0.626802
vt 0.178012 0.664183
vt 0.108395 0.999624
vt 0.170713 0.789511
vt 0.162673 0.831418
vt 0.045229 0.875677
vt 0.020898 0.743186
vt 0.190574 0.000301
vt 0.186440 0.175375
vt 0.182135 0.497456
vt 0.205464 0.293380
vt 0.204942 0.549398
vt 0.204122 0.499538
vt 0.206311 0.399610
vt 0.208399 0.364466
vt 0.207745 0.639239
vt 0.208057 0.000250
vt 0.184546 0.630815
vt 0.190101 0.899696
vt 0.190800 0.899674
vt 0.197432 0.659831
vt 0.191763 0.899697
vt 0.209237 0.899712
vt 0.208636 0.899711
vt 0.134778 0.082259
vt 0.172624 0.330975
vt 0.173071 0.372601
vt 0.179943 0.452572
vt 0.180164 0.580739
vt 0.172382 0.706034
vt 0.174270 0.747699
vt 0.068645 0.958320
vt 0.153200 0.911982
vt 0.140210 0.957223
vt 0.184849 0.121353
vt 0.205921 0.547820
vt 0.199418 0.604856
vt 0.209081 0.736072
s 1
f 2/1/1 8/2/2 5/3/3
f 3/4/4 7/5/5 1/6/6
f 8/2/2 6/7/7 10/8/8
f 10/8/8 6/7/7 13/9/9
f 7/5/5 15/10/10 14/11/11
f 6/7/7 16/12/12 13/9/9
f 6/7/7 14/11/11 19/13/13
f 16/12/12 20/14/14 18/15/15
f 14/11/11 21/16/16 19/13/13
f 19/13/13 25/17/17 20/14/14
f 19/13/13 27/18/18 26/19/19
f 25/17/17 28/20/20 22/21/21
f 19/13/13 26/19/19 25/17/17
f 32/22/22 33/23/23 35/24/24
f 33/25/23 36/26/25 35/27/24
f 34/28/26 36/26/25 33/25/23
f 35/29/24 37/30/27 34/31/26
f 36/32/25 38/33/28 35/24/24
f 36/32/25 39/34/29 38/33/28
f 36/35/25 40/36/30 39/34/29
f 37/30/27 38/37/28 40/38/30
f 1/6/6 4/39/31 3/4/4
f 2/1/1 1/6/6 8/2/2
f 8/2/2 1/6/6 6/7/7
f 1/6/6 7/5/5 6/7/7
f 9/40/32 11/41/33 7/5/5
f 11/41/33 12/42/34 7/5/5
f 7/5/5 14/11/11 6/7/7
f 7/5/5 12/42/34 15/10/10
f 15/10/10 17/43/35 14/11/11
f 6/7/7 20/14/14 16/12/12
f 6/7/7 19/13/13 20/14/14
f 19/13/13 21/16/16 23/44/36
f 19/13/13 23/44/36 24/45/37
f 20/14/14 25/17/17 22/21/21
f 19/13/13 24/45/37 27/18/18
f 25/17/17 29/46/38 28/20/20
f 25/17/17 26/19/19 30/47/39
f 30/47/39 31/48/40 25/17/17
f 34/49/26 32/22/22 35/24/24
f 34/28/26 37/50/27 36/26/25
f 36/35/25 37/51/27 40/36/30
f 37/30/27 35/52/24 38/37/28
