mtllib bird_rectrix_08.mtl
usemtl bird_rectrix_08
# Blender 5.1.1
# www.blender.org
o PIECE_BIRD_RECTRIX_RIG_08
v -0.000005 0.000011 -0.000212
v 0.006807 -0.006500 -0.000834
v -0.006188 -0.015995 -0.001322
v 0.012590 -0.013186 -0.000915
v 0.016891 -0.023272 -0.000939
v -0.006103 -0.040036 -0.001205
v 0.021645 -0.034755 -0.001244
v 0.012544 -0.065423 -0.000929
v 0.026007 -0.049440 -0.001574
v -0.004965 -0.047335 -0.001396
v -0.004390 -0.061544 -0.001789
v 0.029473 -0.063930 -0.001986
v -0.002144 -0.071041 -0.002064
v 0.030748 -0.071791 -0.002300
v 0.032654 -0.079183 -0.002612
v 0.002229 -0.097078 -0.003011
v -0.000681 -0.085249 -0.002612
v 0.033383 -0.087658 -0.003000
v 0.036421 -0.101719 -0.003718
v 0.003828 -0.107550 -0.003755
v 0.038059 -0.113633 -0.004423
v 0.025582 -0.135867 -0.005049
v 0.009794 -0.129765 -0.005034
v 0.007130 -0.122521 -0.004717
v 0.011310 -0.137345 -0.005822
v 0.040266 -0.147108 -0.006943
v 0.039411 -0.161734 -0.008044
v 0.032712 -0.179794 -0.008967
v 0.021385 -0.166569 -0.008285
v 0.038616 -0.170962 -0.008900
v 0.025002 -0.173440 -0.008900
v -0.000253 -0.000044 -0.000007
v 0.000344 0.000063 0.000229
v 0.000224 0.000038 0.000599
v 0.016086 -0.089400 -0.001272
v 0.014234 -0.077508 -0.000764
v 0.014992 -0.082449 -0.001557
v 0.029364 -0.161821 -0.006217
v 0.029536 -0.161792 -0.006173
v 0.029440 -0.161790 -0.006437
vn -0.0020 0.0114 0.9999
vn 0.0439 -0.0002 0.9990
vn 0.1857 0.1056 0.9769
vn 0.0223 0.0072 0.9997
vn -0.1870 0.0041 0.9824
vn -0.0517 -0.0203 0.9985
vn 0.0033 -0.0315 0.9995
vn 0.0524 -0.0053 0.9986
vn 0.0576 -0.0082 0.9983
vn 0.0642 -0.0218 0.9977
vn 0.0659 -0.0264 0.9975
vn 0.0581 -0.0371 0.9976
vn 0.0577 -0.0389 0.9976
vn -0.0342 -0.0755 0.9966
vn 0.0196 -0.0764 0.9969
vn 0.0500 -0.0567 0.9971
vn 0.0419 -0.0499 0.9979
vn -0.0180 -0.0612 0.9980
vn -0.1313 -0.0915 0.9871
vn 0.0767 -0.0788 0.9939
vn -0.0955 -0.1213 0.9880
vn 0.0152 -0.0991 0.9950
vn 0.1439 -0.1037 0.9841
vn -0.7952 -0.1373 -0.5906
vn -0.5080 -0.1480 0.8486
vn 0.4405 0.0611 0.8957
vn 0.8906 0.1664 -0.4232
vn 0.0130 0.0462 -0.9988
vn -0.8624 -0.1888 0.4697
vn 0.7316 0.0851 0.6764
vn -0.0128 0.0649 -0.9978
vn -0.0624 -0.0347 0.9974
vn -0.0586 -0.0350 0.9977
vn -0.0602 -0.0440 0.9972
vn -0.0568 -0.0468 0.9973
vn -0.0992 -0.0856 0.9914
vn -0.0003 -0.0751 0.9972
vn -0.0671 -0.1087 0.9918
vn -0.1129 -0.1474 0.9826
vn 0.1759 0.0143 0.9843
vt 0.089726 0.000296
vt 0.024128 0.143116
vt 0.060276 0.042548
vt 0.036513 0.084576
vt 0.139232 0.079821
vt 0.166016 0.208073
vt 0.097264 0.369900
vt 0.011266 0.209817
vt 0.003738 0.293179
vt 0.000354 0.374512
vt 0.002453 0.418059
vt 0.000220 0.459742
vt 0.005082 0.505971
vt 0.177216 0.706428
vt 0.099850 0.749054
vt 0.008543 0.650345
vt 0.004385 0.584646
vt 0.182977 0.522983
vt 0.183702 0.664639
vt 0.053446 0.909833
vt 0.177426 0.748754
vt 0.108536 0.999601
vt 0.067375 0.958822
vt 0.194867 0.000280
vt 0.188015 0.512029
vt 0.187247 0.276293
vt 0.210350 0.177640
vt 0.210710 0.458433
vt 0.208972 0.165675
vt 0.205008 0.441772
vt 0.204599 0.361694
vt 0.198400 0.000251
vt 0.188133 0.549141
vt 0.195551 0.899530
vt 0.213252 0.599412
vt 0.214176 0.620253
vt 0.213935 0.899546
vt 0.191735 0.742472
vt 0.196272 0.899506
vt 0.197245 0.899530
vt 0.167361 0.248485
vt 0.178923 0.325308
vt 0.178267 0.378496
vt 0.185310 0.456265
vt 0.185267 0.580738
vt 0.032993 0.832436
vt 0.155228 0.916627
vt 0.142968 0.957402
vt 0.207612 0.000231
vt 0.203381 0.166485
vt 0.213338 0.000228
vt 0.214693 0.000239
vt 0.213011 0.315387
vt 0.214556 0.899547
s 1
f 1/1/1 5/2/2 2/3/3
f 2/3/3 5/2/2 4/4/4
f 3/5/5 6/6/6 1/1/1
f 6/6/6 8/7/7 1/1/1
f 5/2/2 8/7/7 7/8/8
f 7/8/8 8/7/7 9/9/9
f 9/9/9 8/7/7 12/10/10
f 8/7/7 14/11/11 12/10/10
f 14/11/11 8/7/7 15/12/12
f 8/7/7 18/13/13 15/12/12
f 8/7/7 23/14/14 22/15/15
f 22/15/15 21/16/16 19/17/17
f 16/18/18 24/19/19 23/14/14
f 22/15/15 27/20/20 21/16/16
f 23/14/14 25/21/21 28/22/22
f 27/20/20 28/22/22 30/23/23
f 32/24/24 35/25/25 36/26/26
f 33/27/27 37/28/28 35/29/25
f 36/30/26 37/31/28 33/32/27
f 37/33/28 38/34/29 35/25/25
f 36/35/26 35/36/25 39/37/30
f 36/38/26 40/39/31 38/34/29
f 36/30/26 39/40/30 40/39/31
f 5/2/2 1/1/1 8/7/7
f 6/6/6 10/41/32 8/7/7
f 10/41/32 11/42/33 8/7/7
f 8/7/7 11/42/33 13/43/34
f 13/43/34 17/44/35 8/7/7
f 8/7/7 17/44/35 16/18/18
f 18/13/13 8/7/7 19/17/17
f 8/7/7 22/15/15 19/17/17
f 8/7/7 16/18/18 23/14/14
f 16/18/18 20/45/36 24/19/19
f 21/16/16 27/20/20 26/46/37
f 22/15/15 28/22/22 27/20/20
f 22/15/15 23/14/14 28/22/22
f 28/22/22 25/21/21 29/47/38
f 28/22/22 29/47/38 31/48/39
f 32/49/24 33/27/27 35/29/25
f 33/32/27 34/50/40 36/30/26
f 34/51/40 32/52/24 36/53/26
f 37/33/28 36/38/26 38/34/29
f 39/37/30 35/36/25 38/54/29
