mtllib bird_rectrix_07.mtl
usemtl bird_rectrix_07
# Blender 5.1.1
# www.blender.org
o PIECE_BIRD_RECTRIX_RIG_07
v -0.000007 0.000012 -0.000179
v 0.011642 -0.013645 -0.001438
v -0.008287 -0.026733 -0.000942
v -0.007133 -0.015606 -0.001447
v 0.016819 -0.027389 -0.000977
v -0.008322 -0.047663 -0.000908
v -0.009225 -0.039901 -0.001244
v 0.023226 -0.058586 -0.001519
v -0.008991 -0.055436 -0.001575
v -0.007916 -0.067576 -0.001900
v 0.025787 -0.071670 -0.002187
v 0.026585 -0.086909 -0.002829
v 0.012230 -0.115011 -0.003219
v -0.005390 -0.093380 -0.002944
v 0.028790 -0.098021 -0.003345
v -0.004965 -0.101681 -0.003345
v 0.028264 -0.106123 -0.003778
v -0.003078 -0.109256 -0.003767
v -0.002704 -0.116996 -0.004225
v 0.029913 -0.121240 -0.004717
v -0.000887 -0.124579 -0.004717
v 0.029361 -0.134130 -0.005604
v 0.000230 -0.133762 -0.005372
v 0.007668 -0.162489 -0.007449
v 0.029916 -0.144580 -0.006377
v 0.020006 -0.184578 -0.008850
v 0.005155 -0.154783 -0.007016
v 0.029041 -0.152455 -0.006982
v 0.028705 -0.165702 -0.007985
v 0.009562 -0.170183 -0.008180
v 0.026502 -0.176071 -0.008900
v 0.012914 -0.177544 -0.008900
v -0.000181 -0.000021 0.000368
v 0.000000 0.000003 -0.000126
v 0.000282 0.000028 0.000547
v 0.006635 -0.063277 -0.000407
v 0.010470 -0.095148 -0.001440
v 0.012669 -0.115367 -0.002920
v 0.017909 -0.166117 -0.006237
v 0.018109 -0.166086 -0.006374
v 0.017970 -0.166111 -0.006234
vn -0.0047 0.0174 0.9998
vn 0.0438 -0.0022 0.9990
vn 0.2530 0.1274 0.9590
vn -0.1194 0.0069 0.9928
vn -0.0233 -0.0239 0.9994
vn 0.0164 -0.0277 0.9995
vn 0.0505 -0.0395 0.9979
vn 0.0614 -0.0389 0.9974
vn -0.0588 -0.0502 0.9970
vn 0.0026 -0.0619 0.9981
vn 0.0510 -0.0422 0.9978
vn 0.0662 -0.0566 0.9962
vn 0.0615 -0.0649 0.9960
vn 0.0598 -0.0706 0.9957
vn -0.0508 -0.0831 0.9952
vn -0.0488 -0.0886 0.9949
vn 0.0566 -0.0746 0.9956
vn 0.0088 -0.1015 0.9948
vn 0.1056 -0.0873 0.9906
vn 0.0757 -0.0806 0.9939
vn 0.1671 -0.1218 0.9784
vn 0.7143 0.0728 0.6961
vn 0.2380 -0.0286 0.9709
vn -0.0259 0.0109 -0.9996
vn -0.5059 -0.0763 0.8592
vn -0.9045 -0.1035 0.4136
vn 0.9792 0.1130 -0.1685
vn -0.9552 -0.1186 0.2710
vn 0.3593 -0.0251 0.9329
vn 0.7625 0.1260 -0.6346
vn -0.3366 0.0774 0.9384
vn -0.3328 0.0021 0.9430
vn -0.3199 -0.0536 0.9459
vn -0.0402 -0.0455 0.9982
vn -0.0501 -0.0552 0.9972
vn -0.0612 -0.0678 0.9958
vn -0.0578 -0.0700 0.9959
vn -0.0568 -0.0780 0.9953
vn -0.2308 -0.1295 0.9643
vn -0.1056 -0.1226 0.9868
vn -0.1835 -0.1782 0.9667
vt 0.107620 0.000256
vt 0.031781 0.155148
vt 0.052227 0.079351
vt 0.165163 0.139456
vt 0.174589 0.251425
vt 0.012981 0.323987
vt 0.005776 0.478675
vt 0.004691 0.396656
vt 0.182252 0.358548
vt 0.094706 0.614451
vt 0.000220 0.539349
vt 0.006712 0.582560
vt 0.005312 0.664479
vt 0.013878 0.733470
vt 0.169813 0.717421
vt 0.143996 0.875248
vt 0.016465 0.789796
vt 0.088656 0.999596
vt 0.024921 0.831672
vt 0.034223 0.902393
vt 0.049826 0.957314
vt 0.199274 0.121443
vt 0.203581 0.434329
vt 0.193367 0.000305
vt 0.211681 0.343748
vt 0.211555 0.518555
vt 0.211110 0.000229
vt 0.206674 0.294609
vt 0.207056 0.707211
vt 0.207117 0.499443
vt 0.208673 0.341411
vt 0.185872 0.549231
vt 0.193245 0.899531
vt 0.184960 0.334106
vt 0.184479 0.599489
vt 0.212255 0.899562
vt 0.211698 0.899561
vt 0.212422 0.742825
vt 0.152876 0.080803
vt 0.176099 0.209650
vt 0.182263 0.292978
vt 0.180750 0.498076
vt 0.182800 0.542814
vt 0.176315 0.584360
vt 0.178009 0.626070
vt 0.171905 0.667641
vt 0.154528 0.832800
vt 0.137636 0.917471
vt 0.123322 0.958708
vt 0.205037 0.000228
vt 0.212443 0.000239
vt 0.206207 0.742509
vt 0.204519 0.899449
vt 0.201750 0.636515
vt 0.199861 0.735875
vt 0.194361 0.899539
s 1
f 1/1/1 5/2/2 2/3/3
f 3/4/4 6/5/5 1/1/1
f 1/1/1 6/5/5 8/6/6
f 8/6/6 12/7/7 11/8/8
f 10/9/9 13/10/10 6/5/5
f 12/7/7 13/10/10 15/11/11
f 13/10/10 17/12/12 15/11/11
f 13/10/10 20/13/13 17/12/12
f 13/10/10 22/14/14 20/13/13
f 13/10/10 23/15/15 24/16/16
f 13/10/10 25/17/17 22/14/14
f 13/10/10 24/16/16 26/18/18
f 26/18/18 28/19/19 25/17/17
f 26/18/18 29/20/20 28/19/19
f 29/20/20 26/18/18 31/21/21
f 35/22/22 37/23/23 34/24/24
f 36/25/25 37/26/23 35/27/22
f 33/28/26 38/29/27 36/30/25
f 37/31/23 38/29/27 33/28/26
f 38/32/27 39/33/28 36/34/25
f 36/34/25 39/33/28 37/35/23
f 37/26/23 41/36/29 40/37/30
f 39/38/28 41/36/29 37/26/23
f 1/1/1 4/39/31 3/4/4
f 5/2/2 1/1/1 8/6/6
f 3/4/4 7/40/32 6/5/5
f 9/41/33 10/9/9 6/5/5
f 10/9/9 14/42/34 13/10/10
f 8/6/6 6/5/5 13/10/10
f 12/7/7 8/6/6 13/10/10
f 14/42/34 16/43/35 13/10/10
f 13/10/10 16/43/35 18/44/36
f 18/44/36 19/45/37 13/10/10
f 13/10/10 19/45/37 21/46/38
f 13/10/10 21/46/38 23/15/15
f 13/10/10 26/18/18 25/17/17
f 24/16/16 23/15/15 27/47/39
f 26/18/18 24/16/16 30/48/40
f 30/48/40 32/49/41 26/18/18
f 34/50/24 37/31/23 33/28/26
f 35/27/22 33/51/26 36/25/25
f 39/52/28 38/29/27 40/53/30
f 38/54/27 37/55/23 40/56/30
