mtllib terrain_mid_01_05.mtl
usemtl terrain_mid_01_05
# Blender 5.1.1
# www.blender.org
o terrain_mid_01_05
v -160.000000 -160.000000 11.630209
v -140.000000 -160.000000 18.733559
v -120.000000 -160.000000 25.091875
v -100.000000 -160.000000 30.348166
v -80.000000 -160.000000 34.175076
v -60.000000 -160.000000 36.770664
v -40.000000 -160.000000 37.821354
v -20.000000 -160.000000 37.460377
v 0.000000 -160.000000 35.886166
v 20.000000 -160.000000 33.532158
v 40.000000 -160.000000 30.226444
v 60.000000 -160.000000 26.420902
v 80.000000 -160.000000 22.258820
v 100.000000 -160.000000 17.839762
v 120.000000 -160.000000 12.800310
v 140.000000 -160.000000 6.916284
v 160.000000 -160.000000 0.313728
v -160.000000 -140.000000 13.488285
v -140.000000 -140.000000 20.294905
v -120.000000 -140.000000 26.104038
v -100.000000 -140.000000 30.698141
v -80.000000 -140.000000 33.851948
v -60.000000 -140.000000 36.090733
v -40.000000 -140.000000 37.476017
v -20.000000 -140.000000 37.960922
v 0.000000 -140.000000 37.406258
v 20.000000 -140.000000 35.827141
v 40.000000 -140.000000 33.122787
v 60.000000 -140.000000 29.424307
v 80.000000 -140.000000 25.120260
v 100.000000 -140.000000 20.381416
v 120.000000 -140.000000 14.970968
v 140.000000 -140.000000 8.669455
v 160.000000 -140.000000 1.719462
v -160.000000 -120.000000 13.071937
v -140.000000 -120.000000 19.276114
v -120.000000 -120.000000 24.364912
v -100.000000 -120.000000 28.100796
v -80.000000 -120.000000 30.766733
v -60.000000 -120.000000 32.971821
v -40.000000 -120.000000 34.796623
v -20.000000 -120.000000 36.149567
v 0.000000 -120.000000 36.344326
v 20.000000 -120.000000 35.337109
v 40.000000 -120.000000 33.097832
v 60.000000 -120.000000 29.437754
v 80.000000 -120.000000 24.606886
v 100.000000 -120.000000 19.349955
v 120.000000 -120.000000 13.889218
v 140.000000 -120.000000 8.120470
v 160.000000 -120.000000 1.577121
v -160.000000 -100.000000 10.476207
v -140.000000 -100.000000 16.070900
v -120.000000 -100.000000 20.431162
v -100.000000 -100.000000 23.625397
v -80.000000 -100.000000 26.512428
v -60.000000 -100.000000 29.083656
v -40.000000 -100.000000 31.312540
v -20.000000 -100.000000 33.202015
v 0.000000 -100.000000 34.076855
v 20.000000 -100.000000 33.657516
v 40.000000 -100.000000 31.904581
v 60.000000 -100.000000 28.341291
v 80.000000 -100.000000 22.945038
v 100.000000 -100.000000 17.128836
v 120.000000 -100.000000 11.692282
v 140.000000 -100.000000 6.492466
v 160.000000 -100.000000 0.597643
v -160.000000 -80.000000 6.028921
v -140.000000 -80.000000 11.219954
v -120.000000 -80.000000 15.048723
v -100.000000 -80.000000 18.108595
v -80.000000 -80.000000 21.555359
v -60.000000 -80.000000 24.725948
v -40.000000 -80.000000 27.389078
v -20.000000 -80.000000 29.692173
v 0.000000 -80.000000 31.055677
v 20.000000 -80.000000 31.251703
v 40.000000 -80.000000 30.013681
v 60.000000 -80.000000 26.704647
v 80.000000 -80.000000 21.274160
v 100.000000 -80.000000 15.297217
v 120.000000 -80.000000 9.915205
v 140.000000 -80.000000 5.023712
v 160.000000 -80.000000 -0.203274
v -160.000000 -60.000000 -0.428901
v -140.000000 -60.000000 4.410909
v -120.000000 -60.000000 8.204356
v -100.000000 -60.000000 11.897010
v -80.000000 -60.000000 16.057394
v -60.000000 -60.000000 19.799570
v -40.000000 -60.000000 23.183289
v -20.000000 -60.000000 25.726145
v 0.000000 -60.000000 27.284035
v 20.000000 -60.000000 28.149012
v 40.000000 -60.000000 27.368830
v 60.000000 -60.000000 24.749390
v 80.000000 -60.000000 20.233521
v 100.000000 -60.000000 14.951101
v 120.000000 -60.000000 9.657593
v 140.000000 -60.000000 4.620317
v 160.000000 -60.000000 -0.177232
v -160.000000 -40.000000 -7.976322
v -140.000000 -40.000000 -3.345696
v -120.000000 -40.000000 0.689931
v -100.000000 -40.000000 5.231432
v -80.000000 -40.000000 10.124448
v -60.000000 -40.000000 14.470751
v -40.000000 -40.000000 18.146502
v -20.000000 -40.000000 20.903694
v 0.000000 -40.000000 22.789799
v 20.000000 -40.000000 24.324846
v 40.000000 -40.000000 24.178288
v 60.000000 -40.000000 22.535038
v 80.000000 -40.000000 18.873543
v 100.000000 -40.000000 14.542905
v 120.000000 -40.000000 9.987128
v 140.000000 -40.000000 5.559940
v 160.000000 -40.000000 1.187327
v -160.000000 -20.000000 -16.028904
v -140.000000 -20.000000 -11.601447
v -120.000000 -20.000000 -6.985002
v -100.000000 -20.000000 -1.578135
v -80.000000 -20.000000 3.902117
v -60.000000 -20.000000 8.627293
v -40.000000 -20.000000 12.320316
v -20.000000 -20.000000 15.176250
v 0.000000 -20.000000 17.432421
v 20.000000 -20.000000 19.481018
v 40.000000 -20.000000 20.150391
v 60.000000 -20.000000 19.445383
v 80.000000 -20.000000 16.912436
v 100.000000 -20.000000 13.669037
v 120.000000 -20.000000 10.439871
v 140.000000 -20.000000 6.881707
v 160.000000 -20.000000 2.919315
v -160.000000 0.000000 -24.125296
v -140.000000 0.000000 -19.960978
v -120.000000 0.000000 -14.293169
v -100.000000 0.000000 -8.063700
v -80.000000 0.000000 -2.665368
v -60.000000 0.000000 1.897136
v -40.000000 0.000000 5.318132
v -20.000000 0.000000 7.988970
v 0.000000 0.000000 10.371593
v 20.000000 0.000000 12.740173
v 40.000000 0.000000 14.346259
v 60.000000 0.000000 14.677714
v 80.000000 0.000000 13.682889
v 100.000000 0.000000 12.225593
v 120.000000 0.000000 10.377825
v 140.000000 0.000000 7.800246
v 160.000000 0.000000 4.288039
v -160.000000 20.000000 -29.026371
v -140.000000 20.000000 -26.764378
v -120.000000 20.000000 -21.212700
v -100.000000 20.000000 -15.170465
v -80.000000 20.000000 -10.273312
v -60.000000 20.000000 -6.319438
v -40.000000 20.000000 -3.291629
v -20.000000 20.000000 -0.676273
v 0.000000 20.000000 1.812002
v 20.000000 20.000000 4.520250
v 40.000000 20.000000 6.803148
v 60.000000 20.000000 8.112790
v 80.000000 20.000000 8.866564
v 100.000000 20.000000 9.473890
v 120.000000 20.000000 9.197767
v 140.000000 20.000000 7.778178
v 160.000000 20.000000 4.771691
v -160.000000 40.000000 -29.802025
v -140.000000 40.000000 -31.066484
v -120.000000 40.000000 -27.456408
v -100.000000 40.000000 -22.688032
v -80.000000 40.000000 -18.740818
v -60.000000 40.000000 -15.805636
v -40.000000 40.000000 -13.086537
v -20.000000 40.000000 -10.426761
v 0.000000 40.000000 -7.682566
v 20.000000 40.000000 -4.759891
v 40.000000 40.000000 -1.926652
v 60.000000 40.000000 0.306363
v 80.000000 40.000000 2.770633
v 100.000000 40.000000 5.396915
v 120.000000 40.000000 6.801965
v 140.000000 40.000000 6.677511
v 160.000000 40.000000 4.416847
v -160.000000 60.000000 -26.348175
v -140.000000 60.000000 -30.638281
v -120.000000 60.000000 -31.666721
v -100.000000 60.000000 -29.791700
v -80.000000 60.000000 -27.666796
v -60.000000 60.000000 -25.876688
v -40.000000 60.000000 -23.701683
v -20.000000 60.000000 -20.941410
v 0.000000 60.000000 -17.812696
v 20.000000 60.000000 -14.728915
v 40.000000 60.000000 -11.744089
v 60.000000 60.000000 -8.963046
v 80.000000 60.000000 -5.212368
v 100.000000 60.000000 -0.841251
v 120.000000 60.000000 2.498542
v 140.000000 60.000000 3.586857
v 160.000000 60.000000 2.428901
v -160.000000 80.000000 -20.205606
v -140.000000 80.000000 -26.790306
v -120.000000 80.000000 -30.943857
v -100.000000 80.000000 -32.580906
v -80.000000 80.000000 -33.041870
v -60.000000 80.000000 -33.388298
v -40.000000 80.000000 -32.845226
v -20.000000 80.000000 -31.195547
v 0.000000 80.000000 -28.386326
v 20.000000 80.000000 -25.331535
v 40.000000 80.000000 -22.065857
v 60.000000 80.000000 -18.591383
v 80.000000 80.000000 -13.663550
v 100.000000 80.000000 -8.061005
v 120.000000 80.000000 -3.809167
v 140.000000 80.000000 -1.972269
v 160.000000 80.000000 -2.748989
v -160.000000 100.000000 -12.627645
v -140.000000 100.000000 -19.526323
v -120.000000 100.000000 -25.340878
v -100.000000 100.000000 -29.769627
v -80.000000 100.000000 -32.984062
v -60.000000 100.000000 -36.005791
v -40.000000 100.000000 -38.230839
v -20.000000 100.000000 -38.752975
v 0.000000 100.000000 -37.659615
v 20.000000 100.000000 -35.362171
v 40.000000 100.000000 -32.175762
v 60.000000 100.000000 -28.149733
v 80.000000 100.000000 -22.524101
v 100.000000 100.000000 -16.227779
v 120.000000 100.000000 -11.533861
v 140.000000 100.000000 -9.580756
v 160.000000 100.000000 -10.486531
v -160.000000 120.000000 -4.653093
v -140.000000 120.000000 -11.127180
v -120.000000 120.000000 -17.095190
v -100.000000 120.000000 -22.137695
v -80.000000 120.000000 -26.231333
v -60.000000 120.000000 -30.448174
v -40.000000 120.000000 -34.783119
v -20.000000 120.000000 -38.308891
v 0.000000 120.000000 -41.120792
v 20.000000 120.000000 -42.158463
v 40.000000 120.000000 -40.621029
v 60.000000 120.000000 -37.193718
v 80.000000 120.000000 -31.558424
v 100.000000 120.000000 -25.287878
v 120.000000 120.000000 -20.982147
v 140.000000 120.000000 -19.641127
v 160.000000 120.000000 -21.038492
v -160.000000 140.000000 3.515886
v -140.000000 140.000000 -2.250746
v -120.000000 140.000000 -7.722880
v -100.000000 140.000000 -12.373925
v -80.000000 140.000000 -16.583431
v -60.000000 140.000000 -21.293463
v -40.000000 140.000000 -26.750816
v -20.000000 140.000000 -32.641979
v 0.000000 140.000000 -38.178894
v 20.000000 140.000000 -42.925385
v 40.000000 140.000000 -44.622417
v 60.000000 140.000000 -44.199657
v 80.000000 140.000000 -40.292492
v 100.000000 140.000000 -35.493286
v 120.000000 140.000000 -32.034679
v 140.000000 140.000000 -31.206377
v 160.000000 140.000000 -32.764923
v -160.000000 160.000000 11.888750
v -140.000000 160.000000 6.763828
v -120.000000 160.000000 1.938595
v -100.000000 160.000000 -2.114559
v -80.000000 160.000000 -6.391923
v -60.000000 160.000000 -11.385424
v -40.000000 160.000000 -17.276381
v -20.000000 160.000000 -23.810621
v 0.000000 160.000000 -30.938150
v 20.000000 160.000000 -38.280792
v 40.000000 160.000000 -44.599251
v 60.000000 160.000000 -48.053192
v 80.000000 160.000000 -48.005253
v 100.000000 160.000000 -45.734261
v 120.000000 160.000000 -43.815987
v 140.000000 160.000000 -43.694103
v 160.000000 160.000000 -45.259922
vn -0.3385 -0.0947 0.9362
vn -0.3176 -0.0929 0.9437
vn -0.3007 -0.0130 0.9536
vn -0.3291 -0.0340 0.9437
vn -0.2780 -0.0765 0.9575
vn -0.2517 0.0176 0.9677
vn -0.2211 -0.0517 0.9739
vn -0.1899 0.0551 0.9803
vn -0.1585 -0.0255 0.9870
vn -0.1331 0.0841 0.9875
vn -0.0908 -0.0161 0.9957
vn -0.0898 0.0942 0.9915
vn -0.0172 -0.0361 0.9992
vn -0.0466 0.0753 0.9961
vn 0.0482 -0.0793 0.9957
vn 0.0017 0.0327 0.9995
vn 0.0969 -0.1280 0.9870
vn 0.0533 -0.0114 0.9985
vn 0.1381 -0.1697 0.9758
vn 0.1064 -0.0448 0.9933
vn 0.1716 -0.1981 0.9650
vn 0.1577 -0.0707 0.9850
vn 0.1912 -0.2044 0.9600
vn 0.1957 -0.0737 0.9779
vn 0.2054 -0.2037 0.9573
vn 0.2201 -0.0572 0.9738
vn 0.2258 -0.1937 0.9547
vn 0.2458 -0.0366 0.9686
vn 0.2597 -0.1684 0.9509
vn 0.2809 -0.0261 0.9594
vn 0.2953 -0.1332 0.9461
vn 0.3143 -0.0286 0.9489
vn 0.3219 -0.1035 0.9411
vn 0.3391 -0.0297 0.9403
vn -0.2703 0.1011 0.9575
vn -0.3078 0.0714 0.9488
vn -0.2134 0.1371 0.9673
vn -0.1557 0.1720 0.9727
vn -0.1189 0.1792 0.9766
vn -0.0988 0.1717 0.9802
vn -0.0783 0.1518 0.9853
vn -0.0384 0.1180 0.9923
vn 0.0203 0.0829 0.9963
vn 0.0808 0.0541 0.9953
vn 0.1459 0.0301 0.9888
vn 0.2076 0.0265 0.9779
vn 0.2442 0.0527 0.9683
vn 0.2580 0.0783 0.9630
vn 0.2694 0.0787 0.9598
vn 0.2938 0.0519 0.9545
vn 0.3265 0.0265 0.9448
vn -0.2370 0.1917 0.9524
vn -0.2838 0.1663 0.9444
vn -0.1809 0.2231 0.9579
vn -0.1459 0.2398 0.9598
vn -0.1318 0.2225 0.9660
vn -0.1167 0.2006 0.9727
vn -0.1008 0.1811 0.9783
vn -0.0677 0.1592 0.9849
vn -0.0112 0.1311 0.9913
vn 0.0539 0.1014 0.9934
vn 0.1313 0.0762 0.9884
vn 0.2180 0.0664 0.9737
vn 0.2690 0.0800 0.9598
vn 0.2695 0.0971 0.9581
vn 0.2558 0.0955 0.9620
vn 0.2666 0.0744 0.9609
vn 0.2935 0.0425 0.9550
vn -0.2116 0.2735 0.9383
vn -0.2628 0.2538 0.9309
vn -0.1625 0.2884 0.9436
vn -0.1542 0.2780 0.9481
vn -0.1580 0.2499 0.9553
vn -0.1406 0.2239 0.9644
vn -0.1208 0.1977 0.9728
vn -0.0897 0.1830 0.9790
vn -0.0384 0.1673 0.9852
vn 0.0258 0.1364 0.9903
vn 0.1122 0.1119 0.9874
vn 0.2126 0.0874 0.9732
vn 0.2737 0.0651 0.9596
vn 0.2728 0.0523 0.9607
vn 0.2485 0.0493 0.9674
vn 0.2450 0.0453 0.9685
vn 0.2549 0.0188 0.9668
vn -0.1987 0.3353 0.9209
vn -0.2455 0.3203 0.9149
vn -0.1735 0.3327 0.9269
vn -0.1838 0.3012 0.9357
vn -0.1866 0.2700 0.9446
vn -0.1700 0.2447 0.9546
vn -0.1429 0.2228 0.9643
vn -0.0996 0.2135 0.9718
vn -0.0592 0.2020 0.9776
vn -0.0022 0.1706 0.9853
vn 0.0838 0.1438 0.9861
vn 0.1747 0.1021 0.9793
vn 0.2373 0.0580 0.9697
vn 0.2555 0.0182 0.9666
vn 0.2500 -0.0018 0.9682
vn 0.2387 -0.0130 0.9710
vn 0.2190 -0.0339 0.9751
vn -0.1972 0.3643 0.9102
vn -0.2312 0.3535 0.9064
vn -0.1966 0.3481 0.9166
vn -0.2181 0.3115 0.9249
vn -0.2158 0.2839 0.9343
vn -0.1897 0.2641 0.9457
vn -0.1534 0.2590 0.9536
vn -0.1115 0.2534 0.9609
vn -0.0828 0.2383 0.9677
vn -0.0340 0.2115 0.9768
vn 0.0440 0.1774 0.9832
vn 0.1303 0.1303 0.9829
vn 0.1953 0.0812 0.9774
vn 0.2168 0.0313 0.9757
vn 0.2190 -0.0191 0.9755
vn 0.2146 -0.0551 0.9752
vn 0.1972 -0.0757 0.9774
vn -0.2044 0.3755 0.9040
vn -0.2044 0.3665 0.9077
vn -0.2285 0.3415 0.9117
vn -0.2501 0.3054 0.9188
vn -0.2361 0.2960 0.9256
vn -0.1968 0.2940 0.9353
vn -0.1540 0.3018 0.9409
vn -0.1207 0.3050 0.9447
vn -0.1022 0.2949 0.9500
vn -0.0651 0.2776 0.9585
vn 0.0009 0.2387 0.9711
vn 0.0792 0.1921 0.9782
vn 0.1418 0.1274 0.9817
vn 0.1595 0.0571 0.9856
vn 0.1673 -0.0096 0.9859
vn 0.1845 -0.0550 0.9813
vn 0.1871 -0.0759 0.9794
vn -0.2240 0.3455 0.9113
vn -0.1487 0.3056 0.9405
vn -0.2698 0.3227 0.9072
vn -0.2654 0.3102 0.9129
vn -0.2285 0.3252 0.9176
vn -0.1838 0.3441 0.9208
vn -0.1405 0.3600 0.9223
vn -0.1167 0.3659 0.9233
vn -0.1100 0.3616 0.9258
vn -0.0927 0.3488 0.9326
vn -0.0459 0.3162 0.9476
vn 0.0160 0.2726 0.9620
vn 0.0600 0.1968 0.9786
vn 0.0819 0.1040 0.9912
vn 0.1099 0.0309 0.9935
vn 0.1505 -0.0221 0.9884
vn 0.1795 -0.0455 0.9827
vn -0.1850 0.2629 0.9469
vn -0.0290 0.1405 0.9897
vn -0.2655 0.3014 0.9158
vn -0.2487 0.3326 0.9097
vn -0.2011 0.3653 0.9089
vn -0.1576 0.3996 0.9030
vn -0.1271 0.4146 0.9011
vn -0.1152 0.4154 0.9023
vn -0.1177 0.4085 0.9052
vn -0.1136 0.3982 0.9102
vn -0.0829 0.3755 0.9231
vn -0.0485 0.3377 0.9400
vn -0.0328 0.2630 0.9642
vn -0.0081 0.1683 0.9857
vn 0.0422 0.0889 0.9951
vn 0.1099 0.0279 0.9935
vn 0.1541 -0.0032 0.9881
vn -0.0583 0.0962 0.9937
vn 0.1523 -0.0660 0.9861
vn -0.1986 0.2478 0.9482
vn -0.2005 0.3363 0.9202
vn -0.1558 0.3939 0.9058
vn -0.1260 0.4357 0.8912
vn -0.1189 0.4513 0.8844
vn -0.1197 0.4487 0.8857
vn -0.1261 0.4370 0.8906
vn -0.1286 0.4300 0.8936
vn -0.1142 0.4180 0.9013
vn -0.1074 0.3903 0.9144
vn -0.1192 0.3294 0.9366
vn -0.0972 0.2485 0.9637
vn -0.0315 0.1651 0.9858
vn 0.0592 0.1040 0.9928
vn 0.1186 0.0580 0.9912
vn 0.1311 -0.1054 0.9858
vn 0.2596 -0.2253 0.9391
vn -0.0211 0.0868 0.9960
vn -0.0966 0.2390 0.9662
vn -0.0918 0.3352 0.9377
vn -0.0903 0.4008 0.9117
vn -0.1099 0.4402 0.8911
vn -0.1296 0.4569 0.8800
vn -0.1366 0.4554 0.8797
vn -0.1338 0.4532 0.8813
vn -0.1277 0.4460 0.8859
vn -0.1461 0.4226 0.8945
vn -0.1844 0.3738 0.9090
vn -0.1797 0.3137 0.9324
vn -0.1064 0.2549 0.9611
vn 0.0017 0.2114 0.9774
vn 0.0685 0.1759 0.9820
vn 0.2504 -0.2591 0.9328
vn 0.3135 -0.3081 0.8982
vn 0.1415 -0.1546 0.9778
vn 0.0524 -0.0005 0.9986
vn 0.0200 0.1317 0.9911
vn -0.0048 0.2455 0.9694
vn -0.0514 0.3410 0.9387
vn -0.1013 0.4047 0.9088
vn -0.1302 0.4407 0.8882
vn -0.1388 0.4542 0.8800
vn -0.1484 0.4498 0.8807
vn -0.1861 0.4249 0.8859
vn -0.2348 0.3861 0.8921
vn -0.2241 0.3499 0.9096
vn -0.1422 0.3277 0.9340
vn -0.0251 0.3126 0.9495
vn 0.0576 0.3068 0.9500
vn 0.2837 -0.3497 0.8929
vn 0.3107 -0.3444 0.8859
vn 0.2352 -0.3180 0.9185
vn 0.1818 -0.2484 0.9514
vn 0.1519 -0.1659 0.9744
vn 0.1297 -0.0727 0.9889
vn 0.0684 0.0483 0.9965
vn -0.0141 0.1751 0.9845
vn -0.0805 0.3024 0.9498
vn -0.1254 0.3847 0.9145
vn -0.1614 0.4153 0.8953
vn -0.2137 0.4120 0.8858
vn -0.2625 0.3940 0.8808
vn -0.2447 0.3835 0.8905
vn -0.1509 0.3900 0.9084
vn -0.0239 0.4040 0.9145
vn 0.0654 0.4149 0.9075
vn 0.2742 -0.3816 0.8827
vn 0.2889 -0.3583 0.8878
vn 0.2442 -0.3909 0.8874
vn 0.2050 -0.3903 0.8976
vn 0.1888 -0.3725 0.9086
vn 0.1967 -0.3384 0.9202
vn 0.1856 -0.2711 0.9445
vn 0.1548 -0.1492 0.9766
vn 0.0957 0.0129 0.9953
vn -0.0123 0.1858 0.9825
vn -0.1177 0.2951 0.9482
vn -0.2058 0.3644 0.9082
vn -0.2625 0.3917 0.8818
vn -0.2317 0.4221 0.8764
vn -0.1246 0.4525 0.8830
vn 0.0012 0.4756 0.8797
vn 0.0798 0.4850 0.8708
vn 0.2486 -0.3954 0.8842
vn 0.2565 -0.3694 0.8932
vn 0.2227 -0.4189 0.8803
vn 0.1943 -0.4391 0.8772
vn 0.1959 -0.4357 0.8785
vn 0.2236 -0.4193 0.8799
vn 0.2515 -0.3881 0.8866
vn 0.2594 -0.3291 0.9080
vn 0.2417 -0.2394 0.9404
vn 0.1583 -0.0953 0.9828
vn 0.0317 0.0989 0.9946
vn -0.1039 0.2606 0.9598
vn -0.1974 0.3728 0.9067
vn -0.1808 0.4479 0.8756
vn -0.0927 0.4936 0.8647
vn 0.0156 0.5153 0.8569
vn 0.0862 0.5160 0.8522
vn 0.2207 -0.4052 0.8872
vn 0.2241 -0.3797 0.8975
vn 0.1960 -0.4264 0.8830
vn 0.1824 -0.4468 0.8758
vn 0.2026 -0.4411 0.8743
vn 0.2378 -0.4237 0.8740
vn 0.2720 -0.3990 0.8757
vn 0.3003 -0.3700 0.8792
vn 0.3221 -0.3215 0.8904
vn 0.3134 -0.2438 0.9178
vn 0.2365 -0.0836 0.9680
vn 0.0844 0.0964 0.9918
vn -0.0555 0.2859 0.9566
vn -0.0944 0.4225 0.9015
vn -0.0442 0.4971 0.8665
vn 0.0306 0.5293 0.8479
vn 0.0888 0.5354 0.8399
vt 0.015625 0.015625
vt 0.076172 0.015625
vt 0.076172 0.076172
vt 0.015625 0.076172
vt 0.136719 0.015625
vt 0.136719 0.076172
vt 0.197266 0.015625
vt 0.197266 0.076172
vt 0.257812 0.015625
vt 0.257812 0.076172
vt 0.318359 0.015625
vt 0.318359 0.076172
vt 0.378906 0.015625
vt 0.378906 0.076172
vt 0.439453 0.015625
vt 0.439453 0.076172
vt 0.500000 0.015625
vt 0.500000 0.076172
vt 0.560547 0.015625
vt 0.560547 0.076172
vt 0.621094 0.015625
vt 0.621094 0.076172
vt 0.681641 0.015625
vt 0.681641 0.076172
vt 0.742188 0.015625
vt 0.742188 0.076172
vt 0.802734 0.015625
vt 0.802734 0.076172
vt 0.863281 0.015625
vt 0.863281 0.076172
vt 0.923828 0.015625
vt 0.923828 0.076172
vt 0.984375 0.015625
vt 0.984375 0.076172
vt 0.076172 0.136719
vt 0.015625 0.136719
vt 0.136719 0.136719
vt 0.197266 0.136719
vt 0.257812 0.136719
vt 0.318359 0.136719
vt 0.378906 0.136719
vt 0.439453 0.136719
vt 0.500000 0.136719
vt 0.560547 0.136719
vt 0.621094 0.136719
vt 0.681641 0.136719
vt 0.742188 0.136719
vt 0.802734 0.136719
vt 0.863281 0.136719
vt 0.923828 0.136719
vt 0.984375 0.136719
vt 0.076172 0.197266
vt 0.015625 0.197266
vt 0.136719 0.197266
vt 0.197266 0.197266
vt 0.257812 0.197266
vt 0.318359 0.197266
vt 0.378906 0.197266
vt 0.439453 0.197266
vt 0.500000 0.197266
vt 0.560547 0.197266
vt 0.621094 0.197266
vt 0.681641 0.197266
vt 0.742188 0.197266
vt 0.802734 0.197266
vt 0.863281 0.197266
vt 0.923828 0.197266
vt 0.984375 0.197266
vt 0.076172 0.257812
vt 0.015625 0.257812
vt 0.136719 0.257812
vt 0.197266 0.257812
vt 0.257812 0.257812
vt 0.318359 0.257812
vt 0.378906 0.257812
vt 0.439453 0.257812
vt 0.500000 0.257812
vt 0.560547 0.257812
vt 0.621094 0.257812
vt 0.681641 0.257812
vt 0.742188 0.257812
vt 0.802734 0.257812
vt 0.863281 0.257812
vt 0.923828 0.257812
vt 0.984375 0.257812
vt 0.076172 0.318359
vt 0.015625 0.318359
vt 0.136719 0.318359
vt 0.197266 0.318359
vt 0.257812 0.318359
vt 0.318359 0.318359
vt 0.378906 0.318359
vt 0.439453 0.318359
vt 0.500000 0.318359
vt 0.560547 0.318359
vt 0.621094 0.318359
vt 0.681641 0.318359
vt 0.742188 0.318359
vt 0.802734 0.318359
vt 0.863281 0.318359
vt 0.923828 0.318359
vt 0.984375 0.318359
vt 0.076172 0.378906
vt 0.015625 0.378906
vt 0.136719 0.378906
vt 0.197266 0.378906
vt 0.257812 0.378906
vt 0.318359 0.378906
vt 0.378906 0.378906
vt 0.439453 0.378906
vt 0.500000 0.378906
vt 0.560547 0.378906
vt 0.621094 0.378906
vt 0.681641 0.378906
vt 0.742188 0.378906
vt 0.802734 0.378906
vt 0.863281 0.378906
vt 0.923828 0.378906
vt 0.984375 0.378906
vt 0.076172 0.439453
vt 0.015625 0.439453
vt 0.136719 0.439453
vt 0.197266 0.439453
vt 0.257812 0.439453
vt 0.318359 0.439453
vt 0.378906 0.439453
vt 0.439453 0.439453
vt 0.500000 0.439453
vt 0.560547 0.439453
vt 0.621094 0.439453
vt 0.681641 0.439453
vt 0.742188 0.439453
vt 0.802734 0.439453
vt 0.863281 0.439453
vt 0.923828 0.439453
vt 0.984375 0.439453
vt 0.076172 0.500000
vt 0.015625 0.500000
vt 0.136719 0.500000
vt 0.197266 0.500000
vt 0.257812 0.500000
vt 0.318359 0.500000
vt 0.378906 0.500000
vt 0.439453 0.500000
vt 0.500000 0.500000
vt 0.560547 0.500000
vt 0.621094 0.500000
vt 0.681641 0.500000
vt 0.742188 0.500000
vt 0.802734 0.500000
vt 0.863281 0.500000
vt 0.923828 0.500000
vt 0.984375 0.500000
vt 0.076172 0.560547
vt 0.015625 0.560547
vt 0.136719 0.560547
vt 0.197266 0.560547
vt 0.257812 0.560547
vt 0.318359 0.560547
vt 0.378906 0.560547
vt 0.439453 0.560547
vt 0.500000 0.560547
vt 0.560547 0.560547
vt 0.621094 0.560547
vt 0.681641 0.560547
vt 0.742188 0.560547
vt 0.802734 0.560547
vt 0.863281 0.560547
vt 0.923828 0.560547
vt 0.984375 0.560547
vt 0.076172 0.621094
vt 0.015625 0.621094
vt 0.136719 0.621094
vt 0.197266 0.621094
vt 0.257812 0.621094
vt 0.318359 0.621094
vt 0.378906 0.621094
vt 0.439453 0.621094
vt 0.500000 0.621094
vt 0.560547 0.621094
vt 0.621094 0.621094
vt 0.681641 0.621094
vt 0.742188 0.621094
vt 0.802734 0.621094
vt 0.863281 0.621094
vt 0.923828 0.621094
vt 0.984375 0.621094
vt 0.076172 0.681641
vt 0.015625 0.681641
vt 0.136719 0.681641
vt 0.197266 0.681641
vt 0.257812 0.681641
vt 0.318359 0.681641
vt 0.378906 0.681641
vt 0.439453 0.681641
vt 0.500000 0.681641
vt 0.560547 0.681641
vt 0.621094 0.681641
vt 0.681641 0.681641
vt 0.742188 0.681641
vt 0.802734 0.681641
vt 0.863281 0.681641
vt 0.923828 0.681641
vt 0.984375 0.681641
vt 0.076172 0.742188
vt 0.015625 0.742188
vt 0.136719 0.742188
vt 0.197266 0.742188
vt 0.257812 0.742188
vt 0.318359 0.742188
vt 0.378906 0.742188
vt 0.439453 0.742188
vt 0.500000 0.742188
vt 0.560547 0.742188
vt 0.621094 0.742188
vt 0.681641 0.742188
vt 0.742188 0.742188
vt 0.802734 0.742188
vt 0.863281 0.742188
vt 0.923828 0.742188
vt 0.984375 0.742188
vt 0.076172 0.802734
vt 0.015625 0.802734
vt 0.136719 0.802734
vt 0.197266 0.802734
vt 0.257812 0.802734
vt 0.318359 0.802734
vt 0.378906 0.802734
vt 0.439453 0.802734
vt 0.500000 0.802734
vt 0.560547 0.802734
vt 0.621094 0.802734
vt 0.681641 0.802734
vt 0.742188 0.802734
vt 0.802734 0.802734
vt 0.863281 0.802734
vt 0.923828 0.802734
vt 0.984375 0.802734
vt 0.076172 0.863281
vt 0.015625 0.863281
vt 0.136719 0.863281
vt 0.197266 0.863281
vt 0.257812 0.863281
vt 0.318359 0.863281
vt 0.378906 0.863281
vt 0.439453 0.863281
vt 0.500000 0.863281
vt 0.560547 0.863281
vt 0.621094 0.863281
vt 0.681641 0.863281
vt 0.742188 0.863281
vt 0.802734 0.863281
vt 0.863281 0.863281
vt 0.923828 0.863281
vt 0.984375 0.863281
vt 0.076172 0.923828
vt 0.015625 0.923828
vt 0.136719 0.923828
vt 0.197266 0.923828
vt 0.257812 0.923828
vt 0.318359 0.923828
vt 0.378906 0.923828
vt 0.439453 0.923828
vt 0.500000 0.923828
vt 0.560547 0.923828
vt 0.621094 0.923828
vt 0.681641 0.923828
vt 0.742188 0.923828
vt 0.802734 0.923828
vt 0.863281 0.923828
vt 0.923828 0.923828
vt 0.984375 0.923828
vt 0.076172 0.984375
vt 0.015625 0.984375
vt 0.136719 0.984375
vt 0.197266 0.984375
vt 0.257812 0.984375
vt 0.318359 0.984375
vt 0.378906 0.984375
vt 0.439453 0.984375
vt 0.500000 0.984375
vt 0.560547 0.984375
vt 0.621094 0.984375
vt 0.681641 0.984375
vt 0.742188 0.984375
vt 0.802734 0.984375
vt 0.863281 0.984375
vt 0.923828 0.984375
vt 0.984375 0.984375
s 1
f 1/1/1 2/2/2 19/3/3
f 1/1/1 19/3/3 18/4/4
f 2/2/2 3/5/5 20/6/6
f 2/2/2 20/6/6 19/3/3
f 3/5/5 4/7/7 21/8/8
f 3/5/5 21/8/8 20/6/6
f 4/7/7 5/9/9 22/10/10
f 4/7/7 22/10/10 21/8/8
f 5/9/9 6/11/11 23/12/12
f 5/9/9 23/12/12 22/10/10
f 6/11/11 7/13/13 24/14/14
f 6/11/11 24/14/14 23/12/12
f 7/13/13 8/15/15 25/16/16
f 7/13/13 25/16/16 24/14/14
f 8/15/15 9/17/17 26/18/18
f 8/15/15 26/18/18 25/16/16
f 9/17/17 10/19/19 27/20/20
f 9/17/17 27/20/20 26/18/18
f 10/19/19 11/21/21 28/22/22
f 10/19/19 28/22/22 27/20/20
f 11/21/21 12/23/23 29/24/24
f 11/21/21 29/24/24 28/22/22
f 12/23/23 13/25/25 30/26/26
f 12/23/23 30/26/26 29/24/24
f 13/25/25 14/27/27 31/28/28
f 13/25/25 31/28/28 30/26/26
f 14/27/27 15/29/29 32/30/30
f 14/27/27 32/30/30 31/28/28
f 15/29/29 16/31/31 33/32/32
f 15/29/29 33/32/32 32/30/30
f 16/31/31 17/33/33 34/34/34
f 16/31/31 34/34/34 33/32/32
f 18/4/4 19/3/3 36/35/35
f 18/4/4 36/35/35 35/36/36
f 19/3/3 20/6/6 37/37/37
f 19/3/3 37/37/37 36/35/35
f 20/6/6 21/8/8 38/38/38
f 20/6/6 38/38/38 37/37/37
f 21/8/8 22/10/10 39/39/39
f 21/8/8 39/39/39 38/38/38
f 22/10/10 23/12/12 40/40/40
f 22/10/10 40/40/40 39/39/39
f 23/12/12 24/14/14 41/41/41
f 23/12/12 41/41/41 40/40/40
f 24/14/14 25/16/16 42/42/42
f 24/14/14 42/42/42 41/41/41
f 25/16/16 26/18/18 43/43/43
f 25/16/16 43/43/43 42/42/42
f 26/18/18 27/20/20 44/44/44
f 26/18/18 44/44/44 43/43/43
f 27/20/20 28/22/22 45/45/45
f 27/20/20 45/45/45 44/44/44
f 28/22/22 29/24/24 46/46/46
f 28/22/22 46/46/46 45/45/45
f 29/24/24 30/26/26 47/47/47
f 29/24/24 47/47/47 46/46/46
f 30/26/26 31/28/28 48/48/48
f 30/26/26 48/48/48 47/47/47
f 31/28/28 32/30/30 49/49/49
f 31/28/28 49/49/49 48/48/48
f 32/30/30 33/32/32 50/50/50
f 32/30/30 50/50/50 49/49/49
f 33/32/32 34/34/34 51/51/51
f 33/32/32 51/51/51 50/50/50
f 35/36/36 36/35/35 53/52/52
f 35/36/36 53/52/52 52/53/53
f 36/35/35 37/37/37 54/54/54
f 36/35/35 54/54/54 53/52/52
f 37/37/37 38/38/38 55/55/55
f 37/37/37 55/55/55 54/54/54
f 38/38/38 39/39/39 56/56/56
f 38/38/38 56/56/56 55/55/55
f 39/39/39 40/40/40 57/57/57
f 39/39/39 57/57/57 56/56/56
f 40/40/40 41/41/41 58/58/58
f 40/40/40 58/58/58 57/57/57
f 41/41/41 42/42/42 59/59/59
f 41/41/41 59/59/59 58/58/58
f 42/42/42 43/43/43 60/60/60
f 42/42/42 60/60/60 59/59/59
f 43/43/43 44/44/44 61/61/61
f 43/43/43 61/61/61 60/60/60
f 44/44/44 45/45/45 62/62/62
f 44/44/44 62/62/62 61/61/61
f 45/45/45 46/46/46 63/63/63
f 45/45/45 63/63/63 62/62/62
f 46/46/46 47/47/47 64/64/64
f 46/46/46 64/64/64 63/63/63
f 47/47/47 48/48/48 65/65/65
f 47/47/47 65/65/65 64/64/64
f 48/48/48 49/49/49 66/66/66
f 48/48/48 66/66/66 65/65/65
f 49/49/49 50/50/50 67/67/67
f 49/49/49 67/67/67 66/66/66
f 50/50/50 51/51/51 68/68/68
f 50/50/50 68/68/68 67/67/67
f 52/53/53 53/52/52 70/69/69
f 52/53/53 70/69/69 69/70/70
f 53/52/52 54/54/54 71/71/71
f 53/52/52 71/71/71 70/69/69
f 54/54/54 55/55/55 72/72/72
f 54/54/54 72/72/72 71/71/71
f 55/55/55 56/56/56 73/73/73
f 55/55/55 73/73/73 72/72/72
f 56/56/56 57/57/57 74/74/74
f 56/56/56 74/74/74 73/73/73
f 57/57/57 58/58/58 75/75/75
f 57/57/57 75/75/75 74/74/74
f 58/58/58 59/59/59 76/76/76
f 58/58/58 76/76/76 75/75/75
f 59/59/59 60/60/60 77/77/77
f 59/59/59 77/77/77 76/76/76
f 60/60/60 61/61/61 78/78/78
f 60/60/60 78/78/78 77/77/77
f 61/61/61 62/62/62 79/79/79
f 61/61/61 79/79/79 78/78/78
f 62/62/62 63/63/63 80/80/80
f 62/62/62 80/80/80 79/79/79
f 63/63/63 64/64/64 81/81/81
f 63/63/63 81/81/81 80/80/80
f 64/64/64 65/65/65 82/82/82
f 64/64/64 82/82/82 81/81/81
f 65/65/65 66/66/66 83/83/83
f 65/65/65 83/83/83 82/82/82
f 66/66/66 67/67/67 84/84/84
f 66/66/66 84/84/84 83/83/83
f 67/67/67 68/68/68 85/85/85
f 67/67/67 85/85/85 84/84/84
f 69/70/70 70/69/69 87/86/86
f 69/70/70 87/86/86 86/87/87
f 70/69/69 71/71/71 88/88/88
f 70/69/69 88/88/88 87/86/86
f 71/71/71 72/72/72 89/89/89
f 71/71/71 89/89/89 88/88/88
f 72/72/72 73/73/73 90/90/90
f 72/72/72 90/90/90 89/89/89
f 73/73/73 74/74/74 91/91/91
f 73/73/73 91/91/91 90/90/90
f 74/74/74 75/75/75 92/92/92
f 74/74/74 92/92/92 91/91/91
f 75/75/75 76/76/76 93/93/93
f 75/75/75 93/93/93 92/92/92
f 76/76/76 77/77/77 94/94/94
f 76/76/76 94/94/94 93/93/93
f 77/77/77 78/78/78 95/95/95
f 77/77/77 95/95/95 94/94/94
f 78/78/78 79/79/79 96/96/96
f 78/78/78 96/96/96 95/95/95
f 79/79/79 80/80/80 97/97/97
f 79/79/79 97/97/97 96/96/96
f 80/80/80 81/81/81 98/98/98
f 80/80/80 98/98/98 97/97/97
f 81/81/81 82/82/82 99/99/99
f 81/81/81 99/99/99 98/98/98
f 82/82/82 83/83/83 100/100/100
f 82/82/82 100/100/100 99/99/99
f 83/83/83 84/84/84 101/101/101
f 83/83/83 101/101/101 100/100/100
f 84/84/84 85/85/85 102/102/102
f 84/84/84 102/102/102 101/101/101
f 86/87/87 87/86/86 104/103/103
f 86/87/87 104/103/103 103/104/104
f 87/86/86 88/88/88 105/105/105
f 87/86/86 105/105/105 104/103/103
f 88/88/88 89/89/89 106/106/106
f 88/88/88 106/106/106 105/105/105
f 89/89/89 90/90/90 107/107/107
f 89/89/89 107/107/107 106/106/106
f 90/90/90 91/91/91 108/108/108
f 90/90/90 108/108/108 107/107/107
f 91/91/91 92/92/92 109/109/109
f 91/91/91 109/109/109 108/108/108
f 92/92/92 93/93/93 110/110/110
f 92/92/92 110/110/110 109/109/109
f 93/93/93 94/94/94 111/111/111
f 93/93/93 111/111/111 110/110/110
f 94/94/94 95/95/95 112/112/112
f 94/94/94 112/112/112 111/111/111
f 95/95/95 96/96/96 113/113/113
f 95/95/95 113/113/113 112/112/112
f 96/96/96 97/97/97 114/114/114
f 96/96/96 114/114/114 113/113/113
f 97/97/97 98/98/98 115/115/115
f 97/97/97 115/115/115 114/114/114
f 98/98/98 99/99/99 116/116/116
f 98/98/98 116/116/116 115/115/115
f 99/99/99 100/100/100 117/117/117
f 99/99/99 117/117/117 116/116/116
f 100/100/100 101/101/101 118/118/118
f 100/100/100 118/118/118 117/117/117
f 101/101/101 102/102/102 119/119/119
f 101/101/101 119/119/119 118/118/118
f 103/104/104 104/103/103 121/120/120
f 103/104/104 121/120/120 120/121/121
f 104/103/103 105/105/105 122/122/122
f 104/103/103 122/122/122 121/120/120
f 105/105/105 106/106/106 123/123/123
f 105/105/105 123/123/123 122/122/122
f 106/106/106 107/107/107 124/124/124
f 106/106/106 124/124/124 123/123/123
f 107/107/107 108/108/108 125/125/125
f 107/107/107 125/125/125 124/124/124
f 108/108/108 109/109/109 126/126/126
f 108/108/108 126/126/126 125/125/125
f 109/109/109 110/110/110 127/127/127
f 109/109/109 127/127/127 126/126/126
f 110/110/110 111/111/111 128/128/128
f 110/110/110 128/128/128 127/127/127
f 111/111/111 112/112/112 129/129/129
f 111/111/111 129/129/129 128/128/128
f 112/112/112 113/113/113 130/130/130
f 112/112/112 130/130/130 129/129/129
f 113/113/113 114/114/114 131/131/131
f 113/113/113 131/131/131 130/130/130
f 114/114/114 115/115/115 132/132/132
f 114/114/114 132/132/132 131/131/131
f 115/115/115 116/116/116 133/133/133
f 115/115/115 133/133/133 132/132/132
f 116/116/116 117/117/117 134/134/134
f 116/116/116 134/134/134 133/133/133
f 117/117/117 118/118/118 135/135/135
f 117/117/117 135/135/135 134/134/134
f 118/118/118 119/119/119 136/136/136
f 118/118/118 136/136/136 135/135/135
f 120/121/121 121/120/120 138/137/137
f 120/121/121 138/137/137 137/138/138
f 121/120/120 122/122/122 139/139/139
f 121/120/120 139/139/139 138/137/137
f 122/122/122 123/123/123 140/140/140
f 122/122/122 140/140/140 139/139/139
f 123/123/123 124/124/124 141/141/141
f 123/123/123 141/141/141 140/140/140
f 124/124/124 125/125/125 142/142/142
f 124/124/124 142/142/142 141/141/141
f 125/125/125 126/126/126 143/143/143
f 125/125/125 143/143/143 142/142/142
f 126/126/126 127/127/127 144/144/144
f 126/126/126 144/144/144 143/143/143
f 127/127/127 128/128/128 145/145/145
f 127/127/127 145/145/145 144/144/144
f 128/128/128 129/129/129 146/146/146
f 128/128/128 146/146/146 145/145/145
f 129/129/129 130/130/130 147/147/147
f 129/129/129 147/147/147 146/146/146
f 130/130/130 131/131/131 148/148/148
f 130/130/130 148/148/148 147/147/147
f 131/131/131 132/132/132 149/149/149
f 131/131/131 149/149/149 148/148/148
f 132/132/132 133/133/133 150/150/150
f 132/132/132 150/150/150 149/149/149
f 133/133/133 134/134/134 151/151/151
f 133/133/133 151/151/151 150/150/150
f 134/134/134 135/135/135 152/152/152
f 134/134/134 152/152/152 151/151/151
f 135/135/135 136/136/136 153/153/153
f 135/135/135 153/153/153 152/152/152
f 137/138/138 138/137/137 155/154/154
f 137/138/138 155/154/154 154/155/155
f 138/137/137 139/139/139 156/156/156
f 138/137/137 156/156/156 155/154/154
f 139/139/139 140/140/140 157/157/157
f 139/139/139 157/157/157 156/156/156
f 140/140/140 141/141/141 158/158/158
f 140/140/140 158/158/158 157/157/157
f 141/141/141 142/142/142 159/159/159
f 141/141/141 159/159/159 158/158/158
f 142/142/142 143/143/143 160/160/160
f 142/142/142 160/160/160 159/159/159
f 143/143/143 144/144/144 161/161/161
f 143/143/143 161/161/161 160/160/160
f 144/144/144 145/145/145 162/162/162
f 144/144/144 162/162/162 161/161/161
f 145/145/145 146/146/146 163/163/163
f 145/145/145 163/163/163 162/162/162
f 146/146/146 147/147/147 164/164/164
f 146/146/146 164/164/164 163/163/163
f 147/147/147 148/148/148 165/165/165
f 147/147/147 165/165/165 164/164/164
f 148/148/148 149/149/149 166/166/166
f 148/148/148 166/166/166 165/165/165
f 149/149/149 150/150/150 167/167/167
f 149/149/149 167/167/167 166/166/166
f 150/150/150 151/151/151 168/168/168
f 150/150/150 168/168/168 167/167/167
f 151/151/151 152/152/152 169/169/169
f 151/151/151 169/169/169 168/168/168
f 152/152/152 153/153/153 170/170/170
f 152/152/152 170/170/170 169/169/169
f 154/155/155 155/154/154 172/171/171
f 154/155/155 172/171/171 171/172/172
f 155/154/154 156/156/156 173/173/173
f 155/154/154 173/173/173 172/171/171
f 156/156/156 157/157/157 174/174/174
f 156/156/156 174/174/174 173/173/173
f 157/157/157 158/158/158 175/175/175
f 157/157/157 175/175/175 174/174/174
f 158/158/158 159/159/159 176/176/176
f 158/158/158 176/176/176 175/175/175
f 159/159/159 160/160/160 177/177/177
f 159/159/159 177/177/177 176/176/176
f 160/160/160 161/161/161 178/178/178
f 160/160/160 178/178/178 177/177/177
f 161/161/161 162/162/162 179/179/179
f 161/161/161 179/179/179 178/178/178
f 162/162/162 163/163/163 180/180/180
f 162/162/162 180/180/180 179/179/179
f 163/163/163 164/164/164 181/181/181
f 163/163/163 181/181/181 180/180/180
f 164/164/164 165/165/165 182/182/182
f 164/164/164 182/182/182 181/181/181
f 165/165/165 166/166/166 183/183/183
f 165/165/165 183/183/183 182/182/182
f 166/166/166 167/167/167 184/184/184
f 166/166/166 184/184/184 183/183/183
f 167/167/167 168/168/168 185/185/185
f 167/167/167 185/185/185 184/184/184
f 168/168/168 169/169/169 186/186/186
f 168/168/168 186/186/186 185/185/185
f 169/169/169 170/170/170 187/187/187
f 169/169/169 187/187/187 186/186/186
f 171/172/172 172/171/171 189/188/188
f 171/172/172 189/188/188 188/189/189
f 172/171/171 173/173/173 190/190/190
f 172/171/171 190/190/190 189/188/188
f 173/173/173 174/174/174 191/191/191
f 173/173/173 191/191/191 190/190/190
f 174/174/174 175/175/175 192/192/192
f 174/174/174 192/192/192 191/191/191
f 175/175/175 176/176/176 193/193/193
f 175/175/175 193/193/193 192/192/192
f 176/176/176 177/177/177 194/194/194
f 176/176/176 194/194/194 193/193/193
f 177/177/177 178/178/178 195/195/195
f 177/177/177 195/195/195 194/194/194
f 178/178/178 179/179/179 196/196/196
f 178/178/178 196/196/196 195/195/195
f 179/179/179 180/180/180 197/197/197
f 179/179/179 197/197/197 196/196/196
f 180/180/180 181/181/181 198/198/198
f 180/180/180 198/198/198 197/197/197
f 181/181/181 182/182/182 199/199/199
f 181/181/181 199/199/199 198/198/198
f 182/182/182 183/183/183 200/200/200
f 182/182/182 200/200/200 199/199/199
f 183/183/183 184/184/184 201/201/201
f 183/183/183 201/201/201 200/200/200
f 184/184/184 185/185/185 202/202/202
f 184/184/184 202/202/202 201/201/201
f 185/185/185 186/186/186 203/203/203
f 185/185/185 203/203/203 202/202/202
f 186/186/186 187/187/187 204/204/204
f 186/186/186 204/204/204 203/203/203
f 188/189/189 189/188/188 206/205/205
f 188/189/189 206/205/205 205/206/206
f 189/188/188 190/190/190 207/207/207
f 189/188/188 207/207/207 206/205/205
f 190/190/190 191/191/191 208/208/208
f 190/190/190 208/208/208 207/207/207
f 191/191/191 192/192/192 209/209/209
f 191/191/191 209/209/209 208/208/208
f 192/192/192 193/193/193 210/210/210
f 192/192/192 210/210/210 209/209/209
f 193/193/193 194/194/194 211/211/211
f 193/193/193 211/211/211 210/210/210
f 194/194/194 195/195/195 212/212/212
f 194/194/194 212/212/212 211/211/211
f 195/195/195 196/196/196 213/213/213
f 195/195/195 213/213/213 212/212/212
f 196/196/196 197/197/197 214/214/214
f 196/196/196 214/214/214 213/213/213
f 197/197/197 198/198/198 215/215/215
f 197/197/197 215/215/215 214/214/214
f 198/198/198 199/199/199 216/216/216
f 198/198/198 216/216/216 215/215/215
f 199/199/199 200/200/200 217/217/217
f 199/199/199 217/217/217 216/216/216
f 200/200/200 201/201/201 218/218/218
f 200/200/200 218/218/218 217/217/217
f 201/201/201 202/202/202 219/219/219
f 201/201/201 219/219/219 218/218/218
f 202/202/202 203/203/203 220/220/220
f 202/202/202 220/220/220 219/219/219
f 203/203/203 204/204/204 221/221/221
f 203/203/203 221/221/221 220/220/220
f 205/206/206 206/205/205 223/222/222
f 205/206/206 223/222/222 222/223/223
f 206/205/205 207/207/207 224/224/224
f 206/205/205 224/224/224 223/222/222
f 207/207/207 208/208/208 225/225/225
f 207/207/207 225/225/225 224/224/224
f 208/208/208 209/209/209 226/226/226
f 208/208/208 226/226/226 225/225/225
f 209/209/209 210/210/210 227/227/227
f 209/209/209 227/227/227 226/226/226
f 210/210/210 211/211/211 228/228/228
f 210/210/210 228/228/228 227/227/227
f 211/211/211 212/212/212 229/229/229
f 211/211/211 229/229/229 228/228/228
f 212/212/212 213/213/213 230/230/230
f 212/212/212 230/230/230 229/229/229
f 213/213/213 214/214/214 231/231/231
f 213/213/213 231/231/231 230/230/230
f 214/214/214 215/215/215 232/232/232
f 214/214/214 232/232/232 231/231/231
f 215/215/215 216/216/216 233/233/233
f 215/215/215 233/233/233 232/232/232
f 216/216/216 217/217/217 234/234/234
f 216/216/216 234/234/234 233/233/233
f 217/217/217 218/218/218 235/235/235
f 217/217/217 235/235/235 234/234/234
f 218/218/218 219/219/219 236/236/236
f 218/218/218 236/236/236 235/235/235
f 219/219/219 220/220/220 237/237/237
f 219/219/219 237/237/237 236/236/236
f 220/220/220 221/221/221 238/238/238
f 220/220/220 238/238/238 237/237/237
f 222/223/223 223/222/222 240/239/239
f 222/223/223 240/239/239 239/240/240
f 223/222/222 224/224/224 241/241/241
f 223/222/222 241/241/241 240/239/239
f 224/224/224 225/225/225 242/242/242
f 224/224/224 242/242/242 241/241/241
f 225/225/225 226/226/226 243/243/243
f 225/225/225 243/243/243 242/242/242
f 226/226/226 227/227/227 244/244/244
f 226/226/226 244/244/244 243/243/243
f 227/227/227 228/228/228 245/245/245
f 227/227/227 245/245/245 244/244/244
f 228/228/228 229/229/229 246/246/246
f 228/228/228 246/246/246 245/245/245
f 229/229/229 230/230/230 247/247/247
f 229/229/229 247/247/247 246/246/246
f 230/230/230 231/231/231 248/248/248
f 230/230/230 248/248/248 247/247/247
f 231/231/231 232/232/232 249/249/249
f 231/231/231 249/249/249 248/248/248
f 232/232/232 233/233/233 250/250/250
f 232/232/232 250/250/250 249/249/249
f 233/233/233 234/234/234 251/251/251
f 233/233/233 251/251/251 250/250/250
f 234/234/234 235/235/235 252/252/252
f 234/234/234 252/252/252 251/251/251
f 235/235/235 236/236/236 253/253/253
f 235/235/235 253/253/253 252/252/252
f 236/236/236 237/237/237 254/254/254
f 236/236/236 254/254/254 253/253/253
f 237/237/237 238/238/238 255/255/255
f 237/237/237 255/255/255 254/254/254
f 239/240/240 240/239/239 257/256/256
f 239/240/240 257/256/256 256/257/257
f 240/239/239 241/241/241 258/258/258
f 240/239/239 258/258/258 257/256/256
f 241/241/241 242/242/242 259/259/259
f 241/241/241 259/259/259 258/258/258
f 242/242/242 243/243/243 260/260/260
f 242/242/242 260/260/260 259/259/259
f 243/243/243 244/244/244 261/261/261
f 243/243/243 261/261/261 260/260/260
f 244/244/244 245/245/245 262/262/262
f 244/244/244 262/262/262 261/261/261
f 245/245/245 246/246/246 263/263/263
f 245/245/245 263/263/263 262/262/262
f 246/246/246 247/247/247 264/264/264
f 246/246/246 264/264/264 263/263/263
f 247/247/247 248/248/248 265/265/265
f 247/247/247 265/265/265 264/264/264
f 248/248/248 249/249/249 266/266/266
f 248/248/248 266/266/266 265/265/265
f 249/249/249 250/250/250 267/267/267
f 249/249/249 267/267/267 266/266/266
f 250/250/250 251/251/251 268/268/268
f 250/250/250 268/268/268 267/267/267
f 251/251/251 252/252/252 269/269/269
f 251/251/251 269/269/269 268/268/268
f 252/252/252 253/253/253 270/270/270
f 252/252/252 270/270/270 269/269/269
f 253/253/253 254/254/254 271/271/271
f 253/253/253 271/271/271 270/270/270
f 254/254/254 255/255/255 272/272/272
f 254/254/254 272/272/272 271/271/271
f 256/257/257 257/256/256 274/273/273
f 256/257/257 274/273/273 273/274/274
f 257/256/256 258/258/258 275/275/275
f 257/256/256 275/275/275 274/273/273
f 258/258/258 259/259/259 276/276/276
f 258/258/258 276/276/276 275/275/275
f 259/259/259 260/260/260 277/277/277
f 259/259/259 277/277/277 276/276/276
f 260/260/260 261/261/261 278/278/278
f 260/260/260 278/278/278 277/277/277
f 261/261/261 262/262/262 279/279/279
f 261/261/261 279/279/279 278/278/278
f 262/262/262 263/263/263 280/280/280
f 262/262/262 280/280/280 279/279/279
f 263/263/263 264/264/264 281/281/281
f 263/263/263 281/281/281 280/280/280
f 264/264/264 265/265/265 282/282/282
f 264/264/264 282/282/282 281/281/281
f 265/265/265 266/266/266 283/283/283
f 265/265/265 283/283/283 282/282/282
f 266/266/266 267/267/267 284/284/284
f 266/266/266 284/284/284 283/283/283
f 267/267/267 268/268/268 285/285/285
f 267/267/267 285/285/285 284/284/284
f 268/268/268 269/269/269 286/286/286
f 268/268/268 286/286/286 285/285/285
f 269/269/269 270/270/270 287/287/287
f 269/269/269 287/287/287 286/286/286
f 270/270/270 271/271/271 288/288/288
f 270/270/270 288/288/288 287/287/287
f 271/271/271 272/272/272 289/289/289
f 271/271/271 289/289/289 288/288/288
