mtllib terrain_far_00_00.mtl
usemtl terrain_far_00_00
# Blender 5.1.1
# www.blender.org
o terrain_far_00_00
v -320.000000 -320.000000 -46.882015
v -280.000000 -320.000000 -54.356529
v -240.000000 -320.000000 -57.497864
v -200.000000 -320.000000 -45.629429
v -160.000000 -320.000000 -34.383961
v -120.000000 -320.000000 -28.421530
v -80.000000 -320.000000 -26.045391
v -40.000000 -320.000000 -29.436634
v 0.000000 -320.000000 -38.896030
v 40.000000 -320.000000 -41.907898
v 80.000000 -320.000000 -45.315159
v 120.000000 -320.000000 -44.965401
v 160.000000 -320.000000 -53.272739
v 200.000000 -320.000000 -59.546535
v 240.000000 -320.000000 -48.291710
v 280.000000 -320.000000 -37.648689
v 320.000000 -320.000000 -30.183615
v -320.000000 -280.000000 -40.712318
v -280.000000 -280.000000 -46.451172
v -240.000000 -280.000000 -52.640064
v -200.000000 -280.000000 -43.101620
v -160.000000 -280.000000 -29.818455
v -120.000000 -280.000000 -22.268543
v -80.000000 -280.000000 -19.246597
v -40.000000 -280.000000 -22.619997
v 0.000000 -280.000000 -31.482512
v 40.000000 -280.000000 -32.898067
v 80.000000 -280.000000 -36.953831
v 120.000000 -280.000000 -38.925613
v 160.000000 -280.000000 -48.032528
v 200.000000 -280.000000 -56.367123
v 240.000000 -280.000000 -46.022659
v 280.000000 -280.000000 -32.367153
v 320.000000 -280.000000 -23.411337
v -320.000000 -240.000000 -32.149429
v -280.000000 -240.000000 -37.255894
v -240.000000 -240.000000 -46.140186
v -200.000000 -240.000000 -38.697598
v -160.000000 -240.000000 -24.946474
v -120.000000 -240.000000 -17.972210
v -80.000000 -240.000000 -15.039491
v -40.000000 -240.000000 -17.911121
v 0.000000 -240.000000 -22.411140
v 40.000000 -240.000000 -21.973125
v 80.000000 -240.000000 -28.173836
v 120.000000 -240.000000 -36.880310
v 160.000000 -240.000000 -49.703323
v 200.000000 -240.000000 -55.739136
v 240.000000 -240.000000 -44.655350
v 280.000000 -240.000000 -29.257114
v 320.000000 -240.000000 -18.611479
v -320.000000 -200.000000 -22.053158
v -280.000000 -200.000000 -30.735271
v -240.000000 -200.000000 -40.843636
v -200.000000 -200.000000 -33.397678
v -160.000000 -200.000000 -19.493891
v -120.000000 -200.000000 -12.379172
v -80.000000 -200.000000 -11.036216
v -40.000000 -200.000000 -12.842802
v 0.000000 -200.000000 -14.693232
v 40.000000 -200.000000 -15.481311
v 80.000000 -200.000000 -23.968277
v 120.000000 -200.000000 -37.013729
v 160.000000 -200.000000 -47.452747
v 200.000000 -200.000000 -52.114651
v 240.000000 -200.000000 -44.200619
v 280.000000 -200.000000 -28.921293
v 320.000000 -200.000000 -15.841907
v -320.000000 -160.000000 -11.617561
v -280.000000 -160.000000 -24.430496
v -240.000000 -160.000000 -34.748272
v -200.000000 -160.000000 -24.900236
v -160.000000 -160.000000 -11.571344
v -120.000000 -160.000000 -4.907160
v -80.000000 -160.000000 -5.395848
v -40.000000 -160.000000 -7.467083
v 0.000000 -160.000000 -8.830032
v 40.000000 -160.000000 -12.036901
v 80.000000 -160.000000 -18.604317
v 120.000000 -160.000000 -27.910931
v 160.000000 -160.000000 -38.818348
v 200.000000 -160.000000 -48.381348
v 240.000000 -160.000000 -47.761021
v 280.000000 -160.000000 -35.073936
v 320.000000 -160.000000 -19.831707
v -320.000000 -120.000000 -2.274823
v -280.000000 -120.000000 -17.362429
v -240.000000 -120.000000 -27.867208
v -200.000000 -120.000000 -17.044205
v -160.000000 -120.000000 -5.549379
v -120.000000 -120.000000 0.857231
v -80.000000 -120.000000 0.581806
v -40.000000 -120.000000 -2.307490
v 0.000000 -120.000000 -4.625130
v 40.000000 -120.000000 -9.538481
v 80.000000 -120.000000 -15.476788
v 120.000000 -120.000000 -24.783924
v 160.000000 -120.000000 -36.220169
v 200.000000 -120.000000 -44.905994
v 240.000000 -120.000000 -47.065960
v 280.000000 -120.000000 -37.025112
v 320.000000 -120.000000 -21.494148
v -320.000000 -80.000000 2.815696
v -280.000000 -80.000000 -11.318415
v -240.000000 -80.000000 -20.149448
v -200.000000 -80.000000 -12.121556
v -160.000000 -80.000000 -1.786114
v -120.000000 -80.000000 6.879950
v -80.000000 -80.000000 8.247238
v -40.000000 -80.000000 4.623093
v 0.000000 -80.000000 0.668286
v 40.000000 -80.000000 -6.530512
v 80.000000 -80.000000 -16.043655
v 120.000000 -80.000000 -24.869387
v 160.000000 -80.000000 -29.796755
v 200.000000 -80.000000 -38.515682
v 240.000000 -80.000000 -43.729553
v 280.000000 -80.000000 -33.974339
v 320.000000 -80.000000 -13.973105
v -320.000000 -40.000000 7.402919
v -280.000000 -40.000000 -6.861892
v -240.000000 -40.000000 -11.397333
v -200.000000 -40.000000 -2.399334
v -160.000000 -40.000000 5.872686
v -120.000000 -40.000000 13.650471
v -80.000000 -40.000000 15.532083
v -40.000000 -40.000000 11.326387
v 0.000000 -40.000000 5.441819
v 40.000000 -40.000000 -3.612645
v 80.000000 -40.000000 -9.496949
v 120.000000 -40.000000 -14.867419
v 160.000000 -40.000000 -24.967232
v 200.000000 -40.000000 -36.793079
v 240.000000 -40.000000 -39.542416
v 280.000000 -40.000000 -25.727669
v 320.000000 -40.000000 -3.374228
v -320.000000 0.000000 11.181053
v -280.000000 0.000000 -2.980762
v -240.000000 0.000000 -3.646689
v -200.000000 0.000000 7.324652
v -160.000000 0.000000 15.256326
v -120.000000 0.000000 19.787773
v -80.000000 0.000000 20.149820
v -40.000000 0.000000 14.782585
v 0.000000 0.000000 7.578544
v 40.000000 0.000000 2.058260
v 80.000000 0.000000 -2.820253
v 120.000000 0.000000 -14.622553
v 160.000000 0.000000 -27.747051
v 200.000000 0.000000 -37.823292
v 240.000000 0.000000 -32.949520
v 280.000000 0.000000 -14.260852
v 320.000000 0.000000 7.245502
v -320.000000 40.000000 10.755855
v -280.000000 40.000000 3.077317
v -240.000000 40.000000 8.832207
v -200.000000 40.000000 16.020153
v -160.000000 40.000000 23.047050
v -120.000000 40.000000 25.682941
v -80.000000 40.000000 25.045382
v -40.000000 40.000000 20.624043
v 0.000000 40.000000 15.645534
v 40.000000 40.000000 8.966599
v 80.000000 40.000000 -3.855009
v 120.000000 40.000000 -19.515524
v 160.000000 40.000000 -30.951946
v 200.000000 40.000000 -36.133728
v 240.000000 40.000000 -25.271553
v 280.000000 40.000000 -4.232193
v 320.000000 40.000000 15.737473
v -320.000000 80.000000 20.220915
v -280.000000 80.000000 15.951374
v -240.000000 80.000000 23.521090
v -200.000000 80.000000 30.383511
v -160.000000 80.000000 34.423588
v -120.000000 80.000000 33.192810
v -80.000000 80.000000 30.906553
v -40.000000 80.000000 26.694090
v 0.000000 80.000000 20.989386
v 40.000000 80.000000 10.098909
v 80.000000 80.000000 -5.935433
v 120.000000 80.000000 -20.567377
v 160.000000 80.000000 -31.318123
v 200.000000 80.000000 -33.023914
v 240.000000 80.000000 -20.602690
v 280.000000 80.000000 -0.321711
v 320.000000 80.000000 21.907421
v -320.000000 120.000000 36.060444
v -280.000000 120.000000 30.418468
v -240.000000 120.000000 36.010056
v -200.000000 120.000000 45.613503
v -160.000000 120.000000 48.584831
v -120.000000 120.000000 42.790649
v -80.000000 120.000000 36.000210
v -40.000000 120.000000 30.963032
v 0.000000 120.000000 23.231913
v 40.000000 120.000000 8.879542
v 80.000000 120.000000 -6.067174
v 120.000000 120.000000 -20.483461
v 160.000000 120.000000 -29.782112
v 200.000000 120.000000 -29.250387
v 240.000000 120.000000 -19.197966
v 280.000000 120.000000 -0.938159
v 320.000000 120.000000 22.365519
v -320.000000 160.000000 48.574856
v -280.000000 160.000000 43.702202
v -240.000000 160.000000 47.070698
v -200.000000 160.000000 57.462124
v -160.000000 160.000000 59.166237
v -120.000000 160.000000 50.428165
v -80.000000 160.000000 40.015392
v -40.000000 160.000000 33.438305
v 0.000000 160.000000 23.692184
v 40.000000 160.000000 11.565239
v 80.000000 160.000000 0.092209
v 120.000000 160.000000 -16.329884
v 160.000000 160.000000 -25.944771
v 200.000000 160.000000 -23.120504
v 240.000000 160.000000 -15.034852
v 280.000000 160.000000 -2.142037
v 320.000000 160.000000 16.396843
v -320.000000 200.000000 61.066696
v -280.000000 200.000000 55.278969
v -240.000000 200.000000 57.079563
v -200.000000 200.000000 66.875977
v -160.000000 200.000000 65.110207
v -120.000000 200.000000 53.795509
v -80.000000 200.000000 42.628681
v -40.000000 200.000000 35.390549
v 0.000000 200.000000 26.932798
v 40.000000 200.000000 23.745747
v 80.000000 200.000000 14.973950
v 120.000000 200.000000 -7.397293
v 160.000000 200.000000 -21.080866
v 200.000000 200.000000 -16.234552
v 240.000000 200.000000 -4.660720
v 280.000000 200.000000 8.691934
v 320.000000 200.000000 20.724222
v -320.000000 240.000000 73.518379
v -280.000000 240.000000 64.898888
v -240.000000 240.000000 63.934425
v -200.000000 240.000000 71.649498
v -160.000000 240.000000 67.846230
v -120.000000 240.000000 55.290607
v -80.000000 240.000000 46.767727
v -40.000000 240.000000 41.482666
v 0.000000 240.000000 35.611401
v 40.000000 240.000000 34.501537
v 80.000000 240.000000 24.042629
v 120.000000 240.000000 -2.769254
v 160.000000 240.000000 -17.695150
v 200.000000 240.000000 -11.497193
v 240.000000 240.000000 2.584126
v 280.000000 240.000000 21.896090
v 320.000000 240.000000 36.517307
v -320.000000 280.000000 83.235382
v -280.000000 280.000000 74.890160
v -240.000000 280.000000 71.318344
v -200.000000 280.000000 72.807907
v -160.000000 280.000000 68.111900
v -120.000000 280.000000 59.797424
v -80.000000 280.000000 55.516479
v -40.000000 280.000000 50.227146
v 0.000000 280.000000 43.237175
v 40.000000 280.000000 38.038078
v 80.000000 280.000000 25.505960
v 120.000000 280.000000 -2.203567
v 160.000000 280.000000 -12.409446
v 200.000000 280.000000 -3.495220
v 240.000000 280.000000 10.277641
v 280.000000 280.000000 28.561094
v 320.000000 280.000000 46.857548
v -320.000000 320.000000 92.897827
v -280.000000 320.000000 85.459389
v -240.000000 320.000000 78.624771
v -200.000000 320.000000 74.014595
v -160.000000 320.000000 69.274170
v -120.000000 320.000000 65.163811
v -80.000000 320.000000 61.773396
v -40.000000 320.000000 55.480408
v 0.000000 320.000000 46.782681
v 40.000000 320.000000 37.935863
v 80.000000 320.000000 24.570698
v 120.000000 320.000000 3.222831
v 160.000000 320.000000 -6.641901
v 200.000000 320.000000 5.033093
v 240.000000 320.000000 20.792906
v 280.000000 320.000000 37.081055
v 320.000000 320.000000 53.783634
vn 0.1458 -0.1236 0.9816
vn 0.1304 -0.1345 0.9823
vn 0.1422 -0.2069 0.9680
vn 0.1011 -0.1787 0.9787
vn -0.1081 -0.0755 0.9913
vn -0.0414 -0.1404 0.9892
vn -0.2763 -0.0971 0.9562
vn -0.2734 -0.0831 0.9583
vn -0.2078 -0.1522 0.9663
vn -0.2504 -0.1134 0.9615
vn -0.1020 -0.1798 0.9784
vn -0.1299 -0.1284 0.9832
vn 0.0124 -0.2012 0.9795
vn 0.0044 -0.1361 0.9907
vn 0.1555 -0.1981 0.9678
vn 0.1497 -0.1410 0.9786
vn 0.1519 -0.1648 0.9746
vn 0.1248 -0.2003 0.9718
vn 0.0785 -0.1922 0.9782
vn 0.0663 -0.2413 0.9682
vn 0.0376 -0.1801 0.9829
vn 0.0736 -0.2091 0.9751
vn 0.0973 -0.1817 0.9785
vn 0.1365 -0.0996 0.9856
vn 0.1779 -0.1274 0.9758
vn 0.2128 -0.0436 0.9761
vn -0.0621 -0.0489 0.9969
vn -0.0251 -0.0475 0.9986
vn -0.2632 -0.0789 0.9615
vn -0.2871 -0.0435 0.9569
vn -0.2187 -0.1355 0.9663
vn -0.2706 -0.1004 0.9574
vn -0.1327 -0.1856 0.9736
vn -0.1820 -0.1408 0.9732
vn 0.1676 -0.1900 0.9674
vn 0.0682 -0.2285 0.9711
vn 0.0178 -0.1459 0.9891
vn -0.2544 -0.1165 0.9601
vn -0.2489 -0.1240 0.9606
vn -0.1220 -0.1218 0.9850
vn -0.0008 -0.1021 0.9948
vn 0.0911 -0.1208 0.9885
vn 0.0495 -0.2050 0.9775
vn 0.0702 -0.2122 0.9747
vn 0.1808 -0.1575 0.9708
vn 0.2598 -0.0231 0.9654
vn 0.2294 -0.0071 0.9733
vn -0.0629 -0.0530 0.9966
vn -0.3142 -0.0216 0.9491
vn -0.3093 -0.0409 0.9501
vn -0.2381 -0.0915 0.9669
vn 0.2258 -0.1542 0.9619
vn 0.1221 -0.2482 0.9610
vn 0.0329 -0.1409 0.9895
vn -0.2543 -0.1644 0.9530
vn -0.2508 -0.1596 0.9548
vn -0.1038 -0.1603 0.9816
vn 0.0057 -0.1197 0.9928
vn 0.0453 -0.1293 0.9906
vn 0.0325 -0.1673 0.9854
vn 0.1143 -0.1224 0.9859
vn 0.2582 -0.1147 0.9593
vn 0.2801 -0.1070 0.9540
vn 0.1838 -0.1325 0.9740
vn -0.0402 -0.0917 0.9950
vn -0.2782 0.0373 0.9598
vn -0.3333 0.0684 0.9403
vn -0.2892 0.0146 0.9572
vn 0.2743 -0.1586 0.9485
vn 0.1857 -0.2391 0.9531
vn 0.0058 -0.1601 0.9871
vn -0.2731 -0.1927 0.9425
vn -0.2390 -0.1668 0.9566
vn -0.0759 -0.1628 0.9837
vn 0.0316 -0.1437 0.9891
vn 0.0425 -0.1304 0.9905
vn 0.0566 -0.1246 0.9906
vn 0.1210 -0.0735 0.9899
vn 0.1936 -0.1036 0.9756
vn 0.2423 -0.1466 0.9591
vn 0.2456 -0.1348 0.9599
vn 0.1107 -0.0892 0.9898
vn -0.1640 0.0353 0.9858
vn -0.3281 0.0952 0.9398
vn -0.3333 0.0664 0.9405
vn 0.3041 -0.1541 0.9401
vn 0.2311 -0.1748 0.9571
vn -0.0039 -0.1795 0.9837
vn -0.2656 -0.1521 0.9520
vn -0.2168 -0.1185 0.9690
vn -0.0756 -0.1454 0.9865
vn 0.0390 -0.1680 0.9850
vn 0.0642 -0.1491 0.9867
vn 0.0894 -0.1174 0.9890
vn 0.1341 -0.0681 0.9886
vn 0.1871 -0.0314 0.9818
vn 0.2508 -0.0368 0.9673
vn 0.2424 -0.1087 0.9641
vn 0.1334 -0.1213 0.9836
vn -0.0979 -0.0501 0.9939
vn -0.3044 -0.0131 0.9524
vn -0.3408 -0.0687 0.9376
vn 0.2758 -0.1251 0.9531
vn 0.2418 -0.1110 0.9640
vn 0.0099 -0.2016 0.9794
vn -0.2202 -0.1756 0.9595
vn -0.2290 -0.1376 0.9637
vn -0.1229 -0.1567 0.9800
vn 0.0277 -0.1836 0.9826
vn 0.0930 -0.1673 0.9815
vn 0.1370 -0.1237 0.9828
vn 0.2039 -0.0723 0.9763
vn 0.2229 -0.0727 0.9721
vn 0.1682 -0.1213 0.9783
vn 0.1666 -0.1373 0.9764
vn 0.1707 -0.0994 0.9803
vn -0.0564 -0.0935 0.9940
vn -0.3456 -0.1312 0.9292
vn -0.4150 -0.2010 0.8874
vn 0.2255 -0.1010 0.9690
vn 0.2762 -0.1040 0.9555
vn -0.0545 -0.2017 0.9779
vn -0.2053 -0.2311 0.9510
vn -0.1925 -0.2044 0.9598
vn -0.1183 -0.1581 0.9803
vn 0.0287 -0.1471 0.9887
vn 0.1242 -0.1250 0.9844
vn 0.1829 -0.0846 0.9795
vn 0.1825 -0.1050 0.9776
vn 0.1373 -0.1613 0.9773
vn 0.1884 -0.1248 0.9741
vn 0.2642 -0.0247 0.9641
vn 0.1792 -0.0085 0.9838
vn -0.1358 -0.1323 0.9819
vn -0.4019 -0.2191 0.8891
vn -0.4439 -0.2297 0.8661
vn 0.1871 -0.1211 0.9748
vn 0.3089 -0.0390 0.9503
vn -0.1237 -0.2435 0.9620
vn -0.2244 -0.2187 0.9496
vn -0.1506 -0.2075 0.9666
vn -0.0604 -0.1485 0.9871
vn 0.0620 -0.1179 0.9911
vn 0.1542 -0.1141 0.9814
vn 0.1558 -0.1250 0.9798
vn 0.1270 -0.1537 0.9799
vn 0.2036 -0.0689 0.9766
vn 0.2970 0.0554 0.9533
vn 0.2778 0.0717 0.9580
vn 0.0649 -0.0082 0.9979
vn -0.2785 -0.1687 0.9455
vn -0.4366 -0.2334 0.8688
vn -0.4292 -0.2099 0.8785
vn 0.0203 -0.2302 0.9729
vn 0.2498 -0.0949 0.9636
vn -0.1515 -0.3178 0.9360
vn -0.1683 -0.2730 0.9472
vn -0.1167 -0.2314 0.9658
vn -0.0246 -0.1652 0.9859
vn 0.0626 -0.1330 0.9891
vn 0.1154 -0.1463 0.9825
vn 0.1422 -0.1636 0.9762
vn 0.2357 -0.0972 0.9670
vn 0.3352 0.0367 0.9414
vn 0.3200 0.0702 0.9448
vn 0.2032 0.0437 0.9782
vn -0.0707 -0.0597 0.9957
vn -0.3667 -0.1419 0.9195
vn -0.4507 -0.1530 0.8795
vn -0.4160 -0.1639 0.8945
vn -0.0465 -0.3231 0.9452
vn 0.1347 -0.3052 0.9427
vn -0.1684 -0.3171 0.9333
vn -0.1268 -0.3441 0.9303
vn -0.0334 -0.3039 0.9521
vn 0.0430 -0.2089 0.9770
vn 0.0802 -0.1353 0.9876
vn 0.1220 -0.1272 0.9843
vn 0.2023 -0.0924 0.9750
vn 0.3190 0.0010 0.9478
vn 0.3578 0.0258 0.9334
vn 0.3024 0.0115 0.9531
vn 0.1538 -0.0145 0.9880
vn -0.1323 -0.0850 0.9876
vn -0.3774 -0.0701 0.9234
vn -0.4689 -0.0363 0.8825
vn -0.4437 -0.0740 0.8931
vn 0.0046 -0.3277 0.9448
vn 0.0923 -0.3402 0.9358
vn -0.1793 -0.2778 0.9438
vn -0.1473 -0.3171 0.9369
vn 0.0337 -0.2953 0.9548
vn 0.1520 -0.2082 0.9662
vn 0.1453 -0.1119 0.9830
vn 0.1571 -0.0829 0.9841
vn 0.2659 -0.0326 0.9634
vn 0.3439 -0.0172 0.9389
vn 0.3437 -0.0705 0.9364
vn 0.2838 -0.0507 0.9575
vn 0.1087 -0.0666 0.9918
vn -0.1302 -0.1218 0.9840
vn -0.3329 -0.0655 0.9407
vn -0.4609 0.0202 0.8872
vn -0.4665 0.0608 0.8824
vn 0.0191 -0.2967 0.9548
vn 0.0794 -0.2929 0.9528
vn -0.1641 -0.2512 0.9539
vn -0.1446 -0.2542 0.9563
vn 0.0858 -0.2016 0.9757
vn 0.2307 -0.1326 0.9639
vn 0.2071 -0.0808 0.9750
vn 0.1996 -0.0541 0.9784
vn 0.2635 -0.0446 0.9636
vn 0.2784 -0.1754 0.9443
vn 0.3196 -0.2410 0.9164
vn 0.3058 -0.1537 0.9396
vn 0.0841 -0.1077 0.9906
vn -0.1334 -0.1592 0.9782
vn -0.2498 -0.1731 0.9527
vn -0.3634 -0.1113 0.9250
vn -0.4264 0.0185 0.9043
vn 0.0472 -0.2558 0.9656
vn 0.1088 -0.2970 0.9487
vn -0.1404 -0.2042 0.9688
vn -0.0984 -0.1738 0.9799
vn 0.1604 -0.1065 0.9813
vn 0.2701 -0.0584 0.9611
vn 0.2234 -0.0820 0.9713
vn 0.1916 -0.0982 0.9766
vn 0.1425 -0.1459 0.9790
vn 0.1422 -0.2728 0.9515
vn 0.3494 -0.2687 0.8976
vn 0.4061 -0.1527 0.9010
vn 0.1092 -0.1020 0.9888
vn -0.1990 -0.1409 0.9698
vn -0.2911 -0.2058 0.9343
vn -0.2908 -0.2753 0.9163
vn -0.2950 -0.2331 0.9266
vn 0.1179 -0.2364 0.9645
vn 0.1578 -0.2654 0.9511
vn -0.0828 -0.1746 0.9811
vn -0.0487 -0.0738 0.9961
vn 0.2002 -0.0368 0.9791
vn 0.2541 -0.0724 0.9645
vn 0.1680 -0.1568 0.9732
vn 0.1357 -0.1805 0.9742
vn 0.0849 -0.1987 0.9764
vn 0.1409 -0.1741 0.9746
vn 0.4193 -0.1185 0.9001
vn 0.4618 -0.0575 0.8851
vn 0.1078 -0.1071 0.9884
vn -0.2428 -0.1525 0.9580
vn -0.3796 -0.1698 0.9094
vn -0.3807 -0.2229 0.8975
vn -0.3014 -0.2961 0.9064
vn 0.1438 -0.2463 0.9585
vn 0.1636 -0.2299 0.9594
vn 0.0256 -0.1805 0.9832
vn 0.0400 -0.0295 0.9988
vn 0.1605 -0.0176 0.9869
vn 0.1544 -0.1210 0.9806
vn 0.1166 -0.1829 0.9762
vn 0.1495 -0.1704 0.9740
vn 0.1493 -0.1368 0.9793
vn 0.2162 -0.0419 0.9755
vn 0.4493 -0.0059 0.8933
vn 0.4273 -0.0675 0.9016
vn 0.0160 -0.1368 0.9905
vn -0.2676 -0.1950 0.9436
vn -0.3639 -0.2067 0.9082
vn -0.4098 -0.1701 0.8962
vn -0.3863 -0.1946 0.9016
vn 0.1722 -0.1937 0.9658
vn 0.1723 -0.2067 0.9631
vn 0.1404 -0.1309 0.9814
vn 0.1160 -0.0337 0.9927
vn 0.1099 -0.0358 0.9933
vn 0.0929 -0.1010 0.9905
vn 0.1191 -0.1313 0.9842
vn 0.1833 -0.0982 0.9781
vn 0.2142 -0.0178 0.9766
vn 0.2671 0.0544 0.9621
vn 0.3979 0.0251 0.9171
vn 0.3612 -0.1121 0.9257
vn -0.0224 -0.1226 0.9922
vn -0.3201 -0.1629 0.9333
vn -0.3644 -0.1997 0.9096
vn -0.3759 -0.1669 0.9115
vn -0.3837 -0.1213 0.9154
vt 0.015625 0.015625
vt 0.076172 0.015625
vt 0.076172 0.076172
vt 0.015625 0.076172
vt 0.136719 0.015625
vt 0.136719 0.076172
vt 0.197266 0.015625
vt 0.197266 0.076172
vt 0.257812 0.015625
vt 0.257812 0.076172
vt 0.318359 0.015625
vt 0.318359 0.076172
vt 0.378906 0.015625
vt 0.378906 0.076172
vt 0.439453 0.015625
vt 0.439453 0.076172
vt 0.500000 0.015625
vt 0.500000 0.076172
vt 0.560547 0.015625
vt 0.560547 0.076172
vt 0.621094 0.015625
vt 0.621094 0.076172
vt 0.681641 0.015625
vt 0.681641 0.076172
vt 0.742188 0.015625
vt 0.742188 0.076172
vt 0.802734 0.015625
vt 0.802734 0.076172
vt 0.863281 0.015625
vt 0.863281 0.076172
vt 0.923828 0.015625
vt 0.923828 0.076172
vt 0.984375 0.015625
vt 0.984375 0.076172
vt 0.076172 0.136719
vt 0.015625 0.136719
vt 0.136719 0.136719
vt 0.197266 0.136719
vt 0.257812 0.136719
vt 0.318359 0.136719
vt 0.378906 0.136719
vt 0.439453 0.136719
vt 0.500000 0.136719
vt 0.560547 0.136719
vt 0.621094 0.136719
vt 0.681641 0.136719
vt 0.742188 0.136719
vt 0.802734 0.136719
vt 0.863281 0.136719
vt 0.923828 0.136719
vt 0.984375 0.136719
vt 0.076172 0.197266
vt 0.015625 0.197266
vt 0.136719 0.197266
vt 0.197266 0.197266
vt 0.257812 0.197266
vt 0.318359 0.197266
vt 0.378906 0.197266
vt 0.439453 0.197266
vt 0.500000 0.197266
vt 0.560547 0.197266
vt 0.621094 0.197266
vt 0.681641 0.197266
vt 0.742188 0.197266
vt 0.802734 0.197266
vt 0.863281 0.197266
vt 0.923828 0.197266
vt 0.984375 0.197266
vt 0.076172 0.257812
vt 0.015625 0.257812
vt 0.136719 0.257812
vt 0.197266 0.257812
vt 0.257812 0.257812
vt 0.318359 0.257812
vt 0.378906 0.257812
vt 0.439453 0.257812
vt 0.500000 0.257812
vt 0.560547 0.257812
vt 0.621094 0.257812
vt 0.681641 0.257812
vt 0.742188 0.257812
vt 0.802734 0.257812
vt 0.863281 0.257812
vt 0.923828 0.257812
vt 0.984375 0.257812
vt 0.076172 0.318359
vt 0.015625 0.318359
vt 0.136719 0.318359
vt 0.197266 0.318359
vt 0.257812 0.318359
vt 0.318359 0.318359
vt 0.378906 0.318359
vt 0.439453 0.318359
vt 0.500000 0.318359
vt 0.560547 0.318359
vt 0.621094 0.318359
vt 0.681641 0.318359
vt 0.742188 0.318359
vt 0.802734 0.318359
vt 0.863281 0.318359
vt 0.923828 0.318359
vt 0.984375 0.318359
vt 0.076172 0.378906
vt 0.015625 0.378906
vt 0.136719 0.378906
vt 0.197266 0.378906
vt 0.257812 0.378906
vt 0.318359 0.378906
vt 0.378906 0.378906
vt 0.439453 0.378906
vt 0.500000 0.378906
vt 0.560547 0.378906
vt 0.621094 0.378906
vt 0.681641 0.378906
vt 0.742188 0.378906
vt 0.802734 0.378906
vt 0.863281 0.378906
vt 0.923828 0.378906
vt 0.984375 0.378906
vt 0.076172 0.439453
vt 0.015625 0.439453
vt 0.136719 0.439453
vt 0.197266 0.439453
vt 0.257812 0.439453
vt 0.318359 0.439453
vt 0.378906 0.439453
vt 0.439453 0.439453
vt 0.500000 0.439453
vt 0.560547 0.439453
vt 0.621094 0.439453
vt 0.681641 0.439453
vt 0.742188 0.439453
vt 0.802734 0.439453
vt 0.863281 0.439453
vt 0.923828 0.439453
vt 0.984375 0.439453
vt 0.076172 0.500000
vt 0.015625 0.500000
vt 0.136719 0.500000
vt 0.197266 0.500000
vt 0.257812 0.500000
vt 0.318359 0.500000
vt 0.378906 0.500000
vt 0.439453 0.500000
vt 0.500000 0.500000
vt 0.560547 0.500000
vt 0.621094 0.500000
vt 0.681641 0.500000
vt 0.742188 0.500000
vt 0.802734 0.500000
vt 0.863281 0.500000
vt 0.923828 0.500000
vt 0.984375 0.500000
vt 0.076172 0.560547
vt 0.015625 0.560547
vt 0.136719 0.560547
vt 0.197266 0.560547
vt 0.257812 0.560547
vt 0.318359 0.560547
vt 0.378906 0.560547
vt 0.439453 0.560547
vt 0.500000 0.560547
vt 0.560547 0.560547
vt 0.621094 0.560547
vt 0.681641 0.560547
vt 0.742188 0.560547
vt 0.802734 0.560547
vt 0.863281 0.560547
vt 0.923828 0.560547
vt 0.984375 0.560547
vt 0.076172 0.621094
vt 0.015625 0.621094
vt 0.136719 0.621094
vt 0.197266 0.621094
vt 0.257812 0.621094
vt 0.318359 0.621094
vt 0.378906 0.621094
vt 0.439453 0.621094
vt 0.500000 0.621094
vt 0.560547 0.621094
vt 0.621094 0.621094
vt 0.681641 0.621094
vt 0.742188 0.621094
vt 0.802734 0.621094
vt 0.863281 0.621094
vt 0.923828 0.621094
vt 0.984375 0.621094
vt 0.076172 0.681641
vt 0.015625 0.681641
vt 0.136719 0.681641
vt 0.197266 0.681641
vt 0.257812 0.681641
vt 0.318359 0.681641
vt 0.378906 0.681641
vt 0.439453 0.681641
vt 0.500000 0.681641
vt 0.560547 0.681641
vt 0.621094 0.681641
vt 0.681641 0.681641
vt 0.742188 0.681641
vt 0.802734 0.681641
vt 0.863281 0.681641
vt 0.923828 0.681641
vt 0.984375 0.681641
vt 0.076172 0.742188
vt 0.015625 0.742188
vt 0.136719 0.742188
vt 0.197266 0.742188
vt 0.257812 0.742188
vt 0.318359 0.742188
vt 0.378906 0.742188
vt 0.439453 0.742188
vt 0.500000 0.742188
vt 0.560547 0.742188
vt 0.621094 0.742188
vt 0.681641 0.742188
vt 0.742188 0.742188
vt 0.802734 0.742188
vt 0.863281 0.742188
vt 0.923828 0.742188
vt 0.984375 0.742188
vt 0.076172 0.802734
vt 0.015625 0.802734
vt 0.136719 0.802734
vt 0.197266 0.802734
vt 0.257812 0.802734
vt 0.318359 0.802734
vt 0.378906 0.802734
vt 0.439453 0.802734
vt 0.500000 0.802734
vt 0.560547 0.802734
vt 0.621094 0.802734
vt 0.681641 0.802734
vt 0.742188 0.802734
vt 0.802734 0.802734
vt 0.863281 0.802734
vt 0.923828 0.802734
vt 0.984375 0.802734
vt 0.076172 0.863281
vt 0.015625 0.863281
vt 0.136719 0.863281
vt 0.197266 0.863281
vt 0.257812 0.863281
vt 0.318359 0.863281
vt 0.378906 0.863281
vt 0.439453 0.863281
vt 0.500000 0.863281
vt 0.560547 0.863281
vt 0.621094 0.863281
vt 0.681641 0.863281
vt 0.742188 0.863281
vt 0.802734 0.863281
vt 0.863281 0.863281
vt 0.923828 0.863281
vt 0.984375 0.863281
vt 0.076172 0.923828
vt 0.015625 0.923828
vt 0.136719 0.923828
vt 0.197266 0.923828
vt 0.257812 0.923828
vt 0.318359 0.923828
vt 0.378906 0.923828
vt 0.439453 0.923828
vt 0.500000 0.923828
vt 0.560547 0.923828
vt 0.621094 0.923828
vt 0.681641 0.923828
vt 0.742188 0.923828
vt 0.802734 0.923828
vt 0.863281 0.923828
vt 0.923828 0.923828
vt 0.984375 0.923828
vt 0.076172 0.984375
vt 0.015625 0.984375
vt 0.136719 0.984375
vt 0.197266 0.984375
vt 0.257812 0.984375
vt 0.318359 0.984375
vt 0.378906 0.984375
vt 0.439453 0.984375
vt 0.500000 0.984375
vt 0.560547 0.984375
vt 0.621094 0.984375
vt 0.681641 0.984375
vt 0.742188 0.984375
vt 0.802734 0.984375
vt 0.863281 0.984375
vt 0.923828 0.984375
vt 0.984375 0.984375
s 1
f 1/1/1 2/2/2 19/3/3
f 1/1/1 19/3/3 18/4/4
f 2/2/2 3/5/5 20/6/6
f 2/2/2 20/6/6 19/3/3
f 3/5/5 4/7/7 21/8/8
f 3/5/5 21/8/8 20/6/6
f 4/7/7 5/9/9 22/10/10
f 4/7/7 22/10/10 21/8/8
f 5/9/9 6/11/11 23/12/12
f 5/9/9 23/12/12 22/10/10
f 6/11/11 7/13/13 24/14/14
f 6/11/11 24/14/14 23/12/12
f 7/13/13 8/15/15 25/16/16
f 7/13/13 25/16/16 24/14/14
f 8/15/15 9/17/17 26/18/18
f 8/15/15 26/18/18 25/16/16
f 9/17/17 10/19/19 27/20/20
f 9/17/17 27/20/20 26/18/18
f 10/19/19 11/21/21 28/22/22
f 10/19/19 28/22/22 27/20/20
f 11/21/21 12/23/23 29/24/24
f 11/21/21 29/24/24 28/22/22
f 12/23/23 13/25/25 30/26/26
f 12/23/23 30/26/26 29/24/24
f 13/25/25 14/27/27 31/28/28
f 13/25/25 31/28/28 30/26/26
f 14/27/27 15/29/29 32/30/30
f 14/27/27 32/30/30 31/28/28
f 15/29/29 16/31/31 33/32/32
f 15/29/29 33/32/32 32/30/30
f 16/31/31 17/33/33 34/34/34
f 16/31/31 34/34/34 33/32/32
f 18/4/4 19/3/3 36/35/35
f 18/4/4 36/35/35 35/36/36
f 19/3/3 20/6/6 37/37/37
f 19/3/3 37/37/37 36/35/35
f 20/6/6 21/8/8 38/38/38
f 20/6/6 38/38/38 37/37/37
f 21/8/8 22/10/10 39/39/39
f 21/8/8 39/39/39 38/38/38
f 22/10/10 23/12/12 40/40/40
f 22/10/10 40/40/40 39/39/39
f 23/12/12 24/14/14 41/41/41
f 23/12/12 41/41/41 40/40/40
f 24/14/14 25/16/16 42/42/42
f 24/14/14 42/42/42 41/41/41
f 25/16/16 26/18/18 43/43/43
f 25/16/16 43/43/43 42/42/42
f 26/18/18 27/20/20 44/44/44
f 26/18/18 44/44/44 43/43/43
f 27/20/20 28/22/22 45/45/45
f 27/20/20 45/45/45 44/44/44
f 28/22/22 29/24/24 46/46/46
f 28/22/22 46/46/46 45/45/45
f 29/24/24 30/26/26 47/47/47
f 29/24/24 47/47/47 46/46/46
f 30/26/26 31/28/28 48/48/48
f 30/26/26 48/48/48 47/47/47
f 31/28/28 32/30/30 49/49/49
f 31/28/28 49/49/49 48/48/48
f 32/30/30 33/32/32 50/50/50
f 32/30/30 50/50/50 49/49/49
f 33/32/32 34/34/34 51/51/51
f 33/32/32 51/51/51 50/50/50
f 35/36/36 36/35/35 53/52/52
f 35/36/36 53/52/52 52/53/53
f 36/35/35 37/37/37 54/54/54
f 36/35/35 54/54/54 53/52/52
f 37/37/37 38/38/38 55/55/55
f 37/37/37 55/55/55 54/54/54
f 38/38/38 39/39/39 56/56/56
f 38/38/38 56/56/56 55/55/55
f 39/39/39 40/40/40 57/57/57
f 39/39/39 57/57/57 56/56/56
f 40/40/40 41/41/41 58/58/58
f 40/40/40 58/58/58 57/57/57
f 41/41/41 42/42/42 59/59/59
f 41/41/41 59/59/59 58/58/58
f 42/42/42 43/43/43 60/60/60
f 42/42/42 60/60/60 59/59/59
f 43/43/43 44/44/44 61/61/61
f 43/43/43 61/61/61 60/60/60
f 44/44/44 45/45/45 62/62/62
f 44/44/44 62/62/62 61/61/61
f 45/45/45 46/46/46 63/63/63
f 45/45/45 63/63/63 62/62/62
f 46/46/46 47/47/47 64/64/64
f 46/46/46 64/64/64 63/63/63
f 47/47/47 48/48/48 65/65/65
f 47/47/47 65/65/65 64/64/64
f 48/48/48 49/49/49 66/66/66
f 48/48/48 66/66/66 65/65/65
f 49/49/49 50/50/50 67/67/67
f 49/49/49 67/67/67 66/66/66
f 50/50/50 51/51/51 68/68/68
f 50/50/50 68/68/68 67/67/67
f 52/53/53 53/52/52 70/69/69
f 52/53/53 70/69/69 69/70/70
f 53/52/52 54/54/54 71/71/71
f 53/52/52 71/71/71 70/69/69
f 54/54/54 55/55/55 72/72/72
f 54/54/54 72/72/72 71/71/71
f 55/55/55 56/56/56 73/73/73
f 55/55/55 73/73/73 72/72/72
f 56/56/56 57/57/57 74/74/74
f 56/56/56 74/74/74 73/73/73
f 57/57/57 58/58/58 75/75/75
f 57/57/57 75/75/75 74/74/74
f 58/58/58 59/59/59 76/76/76
f 58/58/58 76/76/76 75/75/75
f 59/59/59 60/60/60 77/77/77
f 59/59/59 77/77/77 76/76/76
f 60/60/60 61/61/61 78/78/78
f 60/60/60 78/78/78 77/77/77
f 61/61/61 62/62/62 79/79/79
f 61/61/61 79/79/79 78/78/78
f 62/62/62 63/63/63 80/80/80
f 62/62/62 80/80/80 79/79/79
f 63/63/63 64/64/64 81/81/81
f 63/63/63 81/81/81 80/80/80
f 64/64/64 65/65/65 82/82/82
f 64/64/64 82/82/82 81/81/81
f 65/65/65 66/66/66 83/83/83
f 65/65/65 83/83/83 82/82/82
f 66/66/66 67/67/67 84/84/84
f 66/66/66 84/84/84 83/83/83
f 67/67/67 68/68/68 85/85/85
f 67/67/67 85/85/85 84/84/84
f 69/70/70 70/69/69 87/86/86
f 69/70/70 87/86/86 86/87/87
f 70/69/69 71/71/71 88/88/88
f 70/69/69 88/88/88 87/86/86
f 71/71/71 72/72/72 89/89/89
f 71/71/71 89/89/89 88/88/88
f 72/72/72 73/73/73 90/90/90
f 72/72/72 90/90/90 89/89/89
f 73/73/73 74/74/74 91/91/91
f 73/73/73 91/91/91 90/90/90
f 74/74/74 75/75/75 92/92/92
f 74/74/74 92/92/92 91/91/91
f 75/75/75 76/76/76 93/93/93
f 75/75/75 93/93/93 92/92/92
f 76/76/76 77/77/77 94/94/94
f 76/76/76 94/94/94 93/93/93
f 77/77/77 78/78/78 95/95/95
f 77/77/77 95/95/95 94/94/94
f 78/78/78 79/79/79 96/96/96
f 78/78/78 96/96/96 95/95/95
f 79/79/79 80/80/80 97/97/97
f 79/79/79 97/97/97 96/96/96
f 80/80/80 81/81/81 98/98/98
f 80/80/80 98/98/98 97/97/97
f 81/81/81 82/82/82 99/99/99
f 81/81/81 99/99/99 98/98/98
f 82/82/82 83/83/83 100/100/100
f 82/82/82 100/100/100 99/99/99
f 83/83/83 84/84/84 101/101/101
f 83/83/83 101/101/101 100/100/100
f 84/84/84 85/85/85 102/102/102
f 84/84/84 102/102/102 101/101/101
f 86/87/87 87/86/86 104/103/103
f 86/87/87 104/103/103 103/104/104
f 87/86/86 88/88/88 105/105/105
f 87/86/86 105/105/105 104/103/103
f 88/88/88 89/89/89 106/106/106
f 88/88/88 106/106/106 105/105/105
f 89/89/89 90/90/90 107/107/107
f 89/89/89 107/107/107 106/106/106
f 90/90/90 91/91/91 108/108/108
f 90/90/90 108/108/108 107/107/107
f 91/91/91 92/92/92 109/109/109
f 91/91/91 109/109/109 108/108/108
f 92/92/92 93/93/93 110/110/110
f 92/92/92 110/110/110 109/109/109
f 93/93/93 94/94/94 111/111/111
f 93/93/93 111/111/111 110/110/110
f 94/94/94 95/95/95 112/112/112
f 94/94/94 112/112/112 111/111/111
f 95/95/95 96/96/96 113/113/113
f 95/95/95 113/113/113 112/112/112
f 96/96/96 97/97/97 114/114/114
f 96/96/96 114/114/114 113/113/113
f 97/97/97 98/98/98 115/115/115
f 97/97/97 115/115/115 114/114/114
f 98/98/98 99/99/99 116/116/116
f 98/98/98 116/116/116 115/115/115
f 99/99/99 100/100/100 117/117/117
f 99/99/99 117/117/117 116/116/116
f 100/100/100 101/101/101 118/118/118
f 100/100/100 118/118/118 117/117/117
f 101/101/101 102/102/102 119/119/119
f 101/101/101 119/119/119 118/118/118
f 103/104/104 104/103/103 121/120/120
f 103/104/104 121/120/120 120/121/121
f 104/103/103 105/105/105 122/122/122
f 104/103/103 122/122/122 121/120/120
f 105/105/105 106/106/106 123/123/123
f 105/105/105 123/123/123 122/122/122
f 106/106/106 107/107/107 124/124/124
f 106/106/106 124/124/124 123/123/123
f 107/107/107 108/108/108 125/125/125
f 107/107/107 125/125/125 124/124/124
f 108/108/108 109/109/109 126/126/126
f 108/108/108 126/126/126 125/125/125
f 109/109/109 110/110/110 127/127/127
f 109/109/109 127/127/127 126/126/126
f 110/110/110 111/111/111 128/128/128
f 110/110/110 128/128/128 127/127/127
f 111/111/111 112/112/112 129/129/129
f 111/111/111 129/129/129 128/128/128
f 112/112/112 113/113/113 130/130/130
f 112/112/112 130/130/130 129/129/129
f 113/113/113 114/114/114 131/131/131
f 113/113/113 131/131/131 130/130/130
f 114/114/114 115/115/115 132/132/132
f 114/114/114 132/132/132 131/131/131
f 115/115/115 116/116/116 133/133/133
f 115/115/115 133/133/133 132/132/132
f 116/116/116 117/117/117 134/134/134
f 116/116/116 134/134/134 133/133/133
f 117/117/117 118/118/118 135/135/135
f 117/117/117 135/135/135 134/134/134
f 118/118/118 119/119/119 136/136/136
f 118/118/118 136/136/136 135/135/135
f 120/121/121 121/120/120 138/137/137
f 120/121/121 138/137/137 137/138/138
f 121/120/120 122/122/122 139/139/139
f 121/120/120 139/139/139 138/137/137
f 122/122/122 123/123/123 140/140/140
f 122/122/122 140/140/140 139/139/139
f 123/123/123 124/124/124 141/141/141
f 123/123/123 141/141/141 140/140/140
f 124/124/124 125/125/125 142/142/142
f 124/124/124 142/142/142 141/141/141
f 125/125/125 126/126/126 143/143/143
f 125/125/125 143/143/143 142/142/142
f 126/126/126 127/127/127 144/144/144
f 126/126/126 144/144/144 143/143/143
f 127/127/127 128/128/128 145/145/145
f 127/127/127 145/145/145 144/144/144
f 128/128/128 129/129/129 146/146/146
f 128/128/128 146/146/146 145/145/145
f 129/129/129 130/130/130 147/147/147
f 129/129/129 147/147/147 146/146/146
f 130/130/130 131/131/131 148/148/148
f 130/130/130 148/148/148 147/147/147
f 131/131/131 132/132/132 149/149/149
f 131/131/131 149/149/149 148/148/148
f 132/132/132 133/133/133 150/150/150
f 132/132/132 150/150/150 149/149/149
f 133/133/133 134/134/134 151/151/151
f 133/133/133 151/151/151 150/150/150
f 134/134/134 135/135/135 152/152/152
f 134/134/134 152/152/152 151/151/151
f 135/135/135 136/136/136 153/153/153
f 135/135/135 153/153/153 152/152/152
f 137/138/138 138/137/137 155/154/154
f 137/138/138 155/154/154 154/155/155
f 138/137/137 139/139/139 156/156/156
f 138/137/137 156/156/156 155/154/154
f 139/139/139 140/140/140 157/157/157
f 139/139/139 157/157/157 156/156/156
f 140/140/140 141/141/141 158/158/158
f 140/140/140 158/158/158 157/157/157
f 141/141/141 142/142/142 159/159/159
f 141/141/141 159/159/159 158/158/158
f 142/142/142 143/143/143 160/160/160
f 142/142/142 160/160/160 159/159/159
f 143/143/143 144/144/144 161/161/161
f 143/143/143 161/161/161 160/160/160
f 144/144/144 145/145/145 162/162/162
f 144/144/144 162/162/162 161/161/161
f 145/145/145 146/146/146 163/163/163
f 145/145/145 163/163/163 162/162/162
f 146/146/146 147/147/147 164/164/164
f 146/146/146 164/164/164 163/163/163
f 147/147/147 148/148/148 165/165/165
f 147/147/147 165/165/165 164/164/164
f 148/148/148 149/149/149 166/166/166
f 148/148/148 166/166/166 165/165/165
f 149/149/149 150/150/150 167/167/167
f 149/149/149 167/167/167 166/166/166
f 150/150/150 151/151/151 168/168/168
f 150/150/150 168/168/168 167/167/167
f 151/151/151 152/152/152 169/169/169
f 151/151/151 169/169/169 168/168/168
f 152/152/152 153/153/153 170/170/170
f 152/152/152 170/170/170 169/169/169
f 154/155/155 155/154/154 172/171/171
f 154/155/155 172/171/171 171/172/172
f 155/154/154 156/156/156 173/173/173
f 155/154/154 173/173/173 172/171/171
f 156/156/156 157/157/157 174/174/174
f 156/156/156 174/174/174 173/173/173
f 157/157/157 158/158/158 175/175/175
f 157/157/157 175/175/175 174/174/174
f 158/158/158 159/159/159 176/176/176
f 158/158/158 176/176/176 175/175/175
f 159/159/159 160/160/160 177/177/177
f 159/159/159 177/177/177 176/176/176
f 160/160/160 161/161/161 178/178/178
f 160/160/160 178/178/178 177/177/177
f 161/161/161 162/162/162 179/179/179
f 161/161/161 179/179/179 178/178/178
f 162/162/162 163/163/163 180/180/180
f 162/162/162 180/180/180 179/179/179
f 163/163/163 164/164/164 181/181/181
f 163/163/163 181/181/181 180/180/180
f 164/164/164 165/165/165 182/182/182
f 164/164/164 182/182/182 181/181/181
f 165/165/165 166/166/166 183/183/183
f 165/165/165 183/183/183 182/182/182
f 166/166/166 167/167/167 184/184/184
f 166/166/166 184/184/184 183/183/183
f 167/167/167 168/168/168 185/185/185
f 167/167/167 185/185/185 184/184/184
f 168/168/168 169/169/169 186/186/186
f 168/168/168 186/186/186 185/185/185
f 169/169/169 170/170/170 187/187/187
f 169/169/169 187/187/187 186/186/186
f 171/172/172 172/171/171 189/188/188
f 171/172/172 189/188/188 188/189/189
f 172/171/171 173/173/173 190/190/190
f 172/171/171 190/190/190 189/188/188
f 173/173/173 174/174/174 191/191/191
f 173/173/173 191/191/191 190/190/190
f 174/174/174 175/175/175 192/192/192
f 174/174/174 192/192/192 191/191/191
f 175/175/175 176/176/176 193/193/193
f 175/175/175 193/193/193 192/192/192
f 176/176/176 177/177/177 194/194/194
f 176/176/176 194/194/194 193/193/193
f 177/177/177 178/178/178 195/195/195
f 177/177/177 195/195/195 194/194/194
f 178/178/178 179/179/179 196/196/196
f 178/178/178 196/196/196 195/195/195
f 179/179/179 180/180/180 197/197/197
f 179/179/179 197/197/197 196/196/196
f 180/180/180 181/181/181 198/198/198
f 180/180/180 198/198/198 197/197/197
f 181/181/181 182/182/182 199/199/199
f 181/181/181 199/199/199 198/198/198
f 182/182/182 183/183/183 200/200/200
f 182/182/182 200/200/200 199/199/199
f 183/183/183 184/184/184 201/201/201
f 183/183/183 201/201/201 200/200/200
f 184/184/184 185/185/185 202/202/202
f 184/184/184 202/202/202 201/201/201
f 185/185/185 186/186/186 203/203/203
f 185/185/185 203/203/203 202/202/202
f 186/186/186 187/187/187 204/204/204
f 186/186/186 204/204/204 203/203/203
f 188/189/189 189/188/188 206/205/205
f 188/189/189 206/205/205 205/206/206
f 189/188/188 190/190/190 207/207/207
f 189/188/188 207/207/207 206/205/205
f 190/190/190 191/191/191 208/208/208
f 190/190/190 208/208/208 207/207/207
f 191/191/191 192/192/192 209/209/209
f 191/191/191 209/209/209 208/208/208
f 192/192/192 193/193/193 210/210/210
f 192/192/192 210/210/210 209/209/209
f 193/193/193 194/194/194 211/211/211
f 193/193/193 211/211/211 210/210/210
f 194/194/194 195/195/195 212/212/212
f 194/194/194 212/212/212 211/211/211
f 195/195/195 196/196/196 213/213/213
f 195/195/195 213/213/213 212/212/212
f 196/196/196 197/197/197 214/214/214
f 196/196/196 214/214/214 213/213/213
f 197/197/197 198/198/198 215/215/215
f 197/197/197 215/215/215 214/214/214
f 198/198/198 199/199/199 216/216/216
f 198/198/198 216/216/216 215/215/215
f 199/199/199 200/200/200 217/217/217
f 199/199/199 217/217/217 216/216/216
f 200/200/200 201/201/201 218/218/218
f 200/200/200 218/218/218 217/217/217
f 201/201/201 202/202/202 219/219/219
f 201/201/201 219/219/219 218/218/218
f 202/202/202 203/203/203 220/220/220
f 202/202/202 220/220/220 219/219/219
f 203/203/203 204/204/204 221/221/221
f 203/203/203 221/221/221 220/220/220
f 205/206/206 206/205/205 223/222/222
f 205/206/206 223/222/222 222/223/223
f 206/205/205 207/207/207 224/224/224
f 206/205/205 224/224/224 223/222/222
f 207/207/207 208/208/208 225/225/225
f 207/207/207 225/225/225 224/224/224
f 208/208/208 209/209/209 226/226/226
f 208/208/208 226/226/226 225/225/225
f 209/209/209 210/210/210 227/227/227
f 209/209/209 227/227/227 226/226/226
f 210/210/210 211/211/211 228/228/228
f 210/210/210 228/228/228 227/227/227
f 211/211/211 212/212/212 229/229/229
f 211/211/211 229/229/229 228/228/228
f 212/212/212 213/213/213 230/230/230
f 212/212/212 230/230/230 229/229/229
f 213/213/213 214/214/214 231/231/231
f 213/213/213 231/231/231 230/230/230
f 214/214/214 215/215/215 232/232/232
f 214/214/214 232/232/232 231/231/231
f 215/215/215 216/216/216 233/233/233
f 215/215/215 233/233/233 232/232/232
f 216/216/216 217/217/217 234/234/234
f 216/216/216 234/234/234 233/233/233
f 217/217/217 218/218/218 235/235/235
f 217/217/217 235/235/235 234/234/234
f 218/218/218 219/219/219 236/236/236
f 218/218/218 236/236/236 235/235/235
f 219/219/219 220/220/220 237/237/237
f 219/219/219 237/237/237 236/236/236
f 220/220/220 221/221/221 238/238/238
f 220/220/220 238/238/238 237/237/237
f 222/223/223 223/222/222 240/239/239
f 222/223/223 240/239/239 239/240/240
f 223/222/222 224/224/224 241/241/241
f 223/222/222 241/241/241 240/239/239
f 224/224/224 225/225/225 242/242/242
f 224/224/224 242/242/242 241/241/241
f 225/225/225 226/226/226 243/243/243
f 225/225/225 243/243/243 242/242/242
f 226/226/226 227/227/227 244/244/244
f 226/226/226 244/244/244 243/243/243
f 227/227/227 228/228/228 245/245/245
f 227/227/227 245/245/245 244/244/244
f 228/228/228 229/229/229 246/246/246
f 228/228/228 246/246/246 245/245/245
f 229/229/229 230/230/230 247/247/247
f 229/229/229 247/247/247 246/246/246
f 230/230/230 231/231/231 248/248/248
f 230/230/230 248/248/248 247/247/247
f 231/231/231 232/232/232 249/249/249
f 231/231/231 249/249/249 248/248/248
f 232/232/232 233/233/233 250/250/250
f 232/232/232 250/250/250 249/249/249
f 233/233/233 234/234/234 251/251/251
f 233/233/233 251/251/251 250/250/250
f 234/234/234 235/235/235 252/252/252
f 234/234/234 252/252/252 251/251/251
f 235/235/235 236/236/236 253/253/253
f 235/235/235 253/253/253 252/252/252
f 236/236/236 237/237/237 254/254/254
f 236/236/236 254/254/254 253/253/253
f 237/237/237 238/238/238 255/255/255
f 237/237/237 255/255/255 254/254/254
f 239/240/240 240/239/239 257/256/256
f 239/240/240 257/256/256 256/257/257
f 240/239/239 241/241/241 258/258/258
f 240/239/239 258/258/258 257/256/256
f 241/241/241 242/242/242 259/259/259
f 241/241/241 259/259/259 258/258/258
f 242/242/242 243/243/243 260/260/260
f 242/242/242 260/260/260 259/259/259
f 243/243/243 244/244/244 261/261/261
f 243/243/243 261/261/261 260/260/260
f 244/244/244 245/245/245 262/262/262
f 244/244/244 262/262/262 261/261/261
f 245/245/245 246/246/246 263/263/263
f 245/245/245 263/263/263 262/262/262
f 246/246/246 247/247/247 264/264/264
f 246/246/246 264/264/264 263/263/263
f 247/247/247 248/248/248 265/265/265
f 247/247/247 265/265/265 264/264/264
f 248/248/248 249/249/249 266/266/266
f 248/248/248 266/266/266 265/265/265
f 249/249/249 250/250/250 267/267/267
f 249/249/249 267/267/267 266/266/266
f 250/250/250 251/251/251 268/268/268
f 250/250/250 268/268/268 267/267/267
f 251/251/251 252/252/252 269/269/269
f 251/251/251 269/269/269 268/268/268
f 252/252/252 253/253/253 270/270/270
f 252/252/252 270/270/270 269/269/269
f 253/253/253 254/254/254 271/271/271
f 253/253/253 271/271/271 270/270/270
f 254/254/254 255/255/255 272/272/272
f 254/254/254 272/272/272 271/271/271
f 256/257/257 257/256/256 274/273/273
f 256/257/257 274/273/273 273/274/274
f 257/256/256 258/258/258 275/275/275
f 257/256/256 275/275/275 274/273/273
f 258/258/258 259/259/259 276/276/276
f 258/258/258 276/276/276 275/275/275
f 259/259/259 260/260/260 277/277/277
f 259/259/259 277/277/277 276/276/276
f 260/260/260 261/261/261 278/278/278
f 260/260/260 278/278/278 277/277/277
f 261/261/261 262/262/262 279/279/279
f 261/261/261 279/279/279 278/278/278
f 262/262/262 263/263/263 280/280/280
f 262/262/262 280/280/280 279/279/279
f 263/263/263 264/264/264 281/281/281
f 263/263/263 281/281/281 280/280/280
f 264/264/264 265/265/265 282/282/282
f 264/264/264 282/282/282 281/281/281
f 265/265/265 266/266/266 283/283/283
f 265/265/265 283/283/283 282/282/282
f 266/266/266 267/267/267 284/284/284
f 266/266/266 284/284/284 283/283/283
f 267/267/267 268/268/268 285/285/285
f 267/267/267 285/285/285 284/284/284
f 268/268/268 269/269/269 286/286/286
f 268/268/268 286/286/286 285/285/285
f 269/269/269 270/270/270 287/287/287
f 269/269/269 287/287/287 286/286/286
f 270/270/270 271/271/271 288/288/288
f 270/270/270 288/288/288 287/287/287
f 271/271/271 272/272/272 289/289/289
f 271/271/271 289/289/289 288/288/288
