mtllib terrain_mid_00_05.mtl
usemtl terrain_mid_00_05
# Blender 5.1.1
# www.blender.org
o terrain_mid_00_05
v -160.000000 -160.000000 -4.625978
v -140.000000 -160.000000 -2.952091
v -120.000000 -160.000000 -0.249325
v -100.000000 -160.000000 2.397105
v -80.000000 -160.000000 3.434852
v -60.000000 -160.000000 1.900723
v -40.000000 -160.000000 -2.072364
v -20.000000 -160.000000 -7.079139
v 0.000000 -160.000000 -11.416286
v 20.000000 -160.000000 -14.316566
v 40.000000 -160.000000 -15.275726
v 60.000000 -160.000000 -13.922374
v 80.000000 -160.000000 -10.130140
v 100.000000 -160.000000 -4.621022
v 120.000000 -160.000000 1.747874
v 140.000000 -160.000000 8.881500
v 160.000000 -160.000000 16.241999
v -160.000000 -140.000000 -6.588577
v -140.000000 -140.000000 -8.831438
v -120.000000 -140.000000 -7.216319
v -100.000000 -140.000000 -4.186459
v -80.000000 -140.000000 -2.127421
v -60.000000 -140.000000 -2.779609
v -40.000000 -140.000000 -6.082658
v -20.000000 -140.000000 -10.352559
v 0.000000 -140.000000 -14.637454
v 20.000000 -140.000000 -17.859324
v 40.000000 -140.000000 -18.103441
v 60.000000 -140.000000 -15.212073
v 80.000000 -140.000000 -9.854983
v 100.000000 -140.000000 -3.321448
v 120.000000 -140.000000 3.680969
v 140.000000 -140.000000 10.956303
v 160.000000 -140.000000 18.100075
v -160.000000 -120.000000 -7.647050
v -140.000000 -120.000000 -10.625759
v -120.000000 -120.000000 -11.263123
v -100.000000 -120.000000 -9.708147
v -80.000000 -120.000000 -7.757901
v -60.000000 -120.000000 -8.107493
v -40.000000 -120.000000 -10.720082
v -20.000000 -120.000000 -14.051913
v 0.000000 -120.000000 -16.968924
v 20.000000 -120.000000 -19.898617
v 40.000000 -120.000000 -19.829504
v 60.000000 -120.000000 -16.549635
v 80.000000 -120.000000 -10.781948
v 100.000000 -120.000000 -3.879320
v 120.000000 -120.000000 3.477709
v 140.000000 -120.000000 10.910655
v 160.000000 -120.000000 17.683725
v -160.000000 -100.000000 -6.366797
v -140.000000 -100.000000 -9.775580
v -120.000000 -100.000000 -12.510101
v -100.000000 -100.000000 -13.409169
v -80.000000 -100.000000 -13.070132
v -60.000000 -100.000000 -13.591136
v -40.000000 -100.000000 -15.699649
v -20.000000 -100.000000 -17.950504
v 0.000000 -100.000000 -19.692034
v 20.000000 -100.000000 -21.807787
v 40.000000 -100.000000 -21.329386
v 60.000000 -100.000000 -18.268206
v 80.000000 -100.000000 -12.843092
v 100.000000 -100.000000 -6.110467
v 120.000000 -100.000000 1.340892
v 140.000000 -100.000000 8.661689
v 160.000000 -100.000000 15.087996
v -160.000000 -80.000000 -4.306970
v -140.000000 -80.000000 -8.068207
v -120.000000 -80.000000 -12.063792
v -100.000000 -80.000000 -15.182024
v -80.000000 -80.000000 -16.621016
v -60.000000 -80.000000 -17.704809
v -40.000000 -80.000000 -19.214155
v -20.000000 -80.000000 -20.809959
v 0.000000 -80.000000 -21.834141
v 20.000000 -80.000000 -23.075209
v 40.000000 -80.000000 -22.621511
v 60.000000 -80.000000 -20.333733
v 80.000000 -80.000000 -15.754703
v 100.000000 -80.000000 -9.627078
v 120.000000 -80.000000 -2.405979
v 140.000000 -80.000000 4.538459
v 160.000000 -80.000000 10.640710
v -160.000000 -60.000000 -3.301810
v -140.000000 -60.000000 -7.668745
v -120.000000 -60.000000 -11.123742
v -100.000000 -60.000000 -13.990603
v -80.000000 -60.000000 -15.400733
v -60.000000 -60.000000 -16.163841
v -40.000000 -60.000000 -17.031664
v -20.000000 -60.000000 -18.466051
v 0.000000 -60.000000 -20.037964
v 20.000000 -60.000000 -21.854454
v 40.000000 -60.000000 -22.977104
v 60.000000 -60.000000 -22.401634
v 80.000000 -60.000000 -19.382254
v 100.000000 -60.000000 -14.201985
v 120.000000 -60.000000 -8.095720
v 140.000000 -60.000000 -1.709907
v 160.000000 -60.000000 4.182889
v -160.000000 -40.000000 -2.648206
v -140.000000 -40.000000 -7.647257
v -120.000000 -40.000000 -10.139720
v -100.000000 -40.000000 -11.857683
v -80.000000 -40.000000 -12.792256
v -60.000000 -40.000000 -13.059095
v -40.000000 -40.000000 -13.488620
v -20.000000 -40.000000 -14.477892
v 0.000000 -40.000000 -15.835042
v 20.000000 -40.000000 -17.794607
v 40.000000 -40.000000 -20.286411
v 60.000000 -40.000000 -21.958683
v 80.000000 -40.000000 -21.555176
v 100.000000 -40.000000 -18.982880
v 120.000000 -40.000000 -14.526211
v 140.000000 -40.000000 -8.935723
v 160.000000 -40.000000 -3.364532
v -160.000000 -20.000000 -0.610881
v -140.000000 -20.000000 -6.739448
v -120.000000 -20.000000 -9.005981
v -100.000000 -20.000000 -10.520460
v -80.000000 -20.000000 -10.987281
v -60.000000 -20.000000 -10.840976
v -40.000000 -20.000000 -10.583082
v -20.000000 -20.000000 -10.566718
v 0.000000 -20.000000 -10.606276
v 20.000000 -20.000000 -11.764049
v 40.000000 -20.000000 -14.730242
v 60.000000 -20.000000 -18.336988
v 80.000000 -20.000000 -21.257647
v 100.000000 -20.000000 -22.254862
v 120.000000 -20.000000 -20.056400
v 140.000000 -20.000000 -15.997952
v 160.000000 -20.000000 -11.417114
v -160.000000 0.000000 1.887684
v -140.000000 0.000000 -4.542477
v -120.000000 0.000000 -7.957699
v -100.000000 0.000000 -9.792646
v -80.000000 0.000000 -9.697872
v -60.000000 0.000000 -8.562038
v -40.000000 0.000000 -6.913923
v -20.000000 0.000000 -5.702518
v 0.000000 0.000000 -5.099647
v 20.000000 0.000000 -5.932729
v 40.000000 0.000000 -8.742733
v 60.000000 0.000000 -12.573588
v 80.000000 0.000000 -16.781731
v 100.000000 0.000000 -20.343130
v 120.000000 0.000000 -21.829596
v 140.000000 0.000000 -21.672909
v 160.000000 0.000000 -19.513506
v -160.000000 20.000000 4.622748
v -140.000000 20.000000 -1.954512
v -120.000000 20.000000 -6.733771
v -100.000000 20.000000 -8.679799
v -80.000000 20.000000 -7.218434
v -60.000000 20.000000 -4.115560
v -40.000000 20.000000 -1.202233
v -20.000000 20.000000 0.876648
v 0.000000 20.000000 1.237033
v 20.000000 20.000000 0.247779
v 40.000000 20.000000 -2.299778
v 60.000000 20.000000 -5.925001
v 80.000000 20.000000 -10.543240
v 100.000000 20.000000 -15.560082
v 120.000000 20.000000 -19.760088
v 140.000000 20.000000 -23.325388
v 160.000000 20.000000 -24.414581
v -160.000000 40.000000 7.436646
v -140.000000 40.000000 0.150584
v -120.000000 40.000000 -5.193576
v -100.000000 40.000000 -6.044006
v -80.000000 40.000000 -1.970717
v -60.000000 40.000000 3.403771
v -40.000000 40.000000 7.165351
v -20.000000 40.000000 8.946856
v 0.000000 40.000000 8.533406
v 20.000000 40.000000 7.228709
v 40.000000 40.000000 4.714345
v 60.000000 40.000000 1.009756
v 80.000000 40.000000 -3.799591
v 100.000000 40.000000 -8.925235
v 120.000000 40.000000 -14.307190
v 140.000000 40.000000 -20.277174
v 160.000000 40.000000 -25.190237
v -160.000000 60.000000 7.236362
v -140.000000 60.000000 0.652242
v -120.000000 60.000000 -3.589901
v -100.000000 60.000000 -2.501997
v -80.000000 60.000000 3.334849
v -60.000000 60.000000 9.710721
v -40.000000 60.000000 14.153287
v -20.000000 60.000000 16.452236
v 0.000000 60.000000 16.037615
v 20.000000 60.000000 14.625546
v 40.000000 60.000000 11.690867
v 60.000000 60.000000 7.670508
v 80.000000 60.000000 3.087297
v 100.000000 60.000000 -1.734507
v 120.000000 60.000000 -7.779480
v 140.000000 60.000000 -14.966949
v 160.000000 60.000000 -21.736385
v -160.000000 80.000000 6.031352
v -140.000000 80.000000 0.064558
v -120.000000 80.000000 -1.628526
v -100.000000 80.000000 1.784387
v -80.000000 80.000000 8.278028
v -60.000000 80.000000 14.900190
v -40.000000 80.000000 20.099478
v -20.000000 80.000000 23.298456
v 0.000000 80.000000 23.561008
v 20.000000 80.000000 22.243599
v 40.000000 80.000000 18.830471
v 60.000000 80.000000 14.489783
v 80.000000 80.000000 10.161374
v 100.000000 80.000000 5.706370
v 120.000000 80.000000 -0.803473
v 140.000000 80.000000 -8.219516
v 160.000000 80.000000 -15.593818
v -160.000000 100.000000 4.234339
v -140.000000 100.000000 -0.595550
v -120.000000 100.000000 0.763438
v -100.000000 100.000000 5.980072
v -80.000000 100.000000 13.089074
v -60.000000 100.000000 20.021448
v -40.000000 100.000000 25.710087
v -20.000000 100.000000 29.742653
v 0.000000 100.000000 30.863430
v 20.000000 100.000000 29.919922
v 40.000000 100.000000 26.343706
v 60.000000 100.000000 21.859232
v 80.000000 100.000000 17.580706
v 100.000000 100.000000 13.054644
v 120.000000 100.000000 6.304345
v 140.000000 100.000000 -0.884847
v 160.000000 100.000000 -8.015856
v -160.000000 120.000000 2.239991
v -140.000000 120.000000 0.073863
v -120.000000 120.000000 3.775120
v -100.000000 120.000000 10.165202
v -80.000000 120.000000 17.616001
v -60.000000 120.000000 24.815622
v -40.000000 120.000000 30.934347
v -20.000000 120.000000 35.551617
v 0.000000 120.000000 37.458656
v 20.000000 120.000000 37.115555
v 40.000000 120.000000 33.965569
v 60.000000 120.000000 29.519600
v 80.000000 120.000000 24.859949
v 100.000000 120.000000 19.897095
v 120.000000 120.000000 13.143463
v 140.000000 120.000000 6.498613
v 160.000000 120.000000 -0.041304
v -160.000000 140.000000 4.313136
v -140.000000 140.000000 2.925466
v -120.000000 140.000000 7.313938
v -100.000000 140.000000 14.157264
v -80.000000 140.000000 21.823486
v -60.000000 140.000000 29.217031
v -40.000000 140.000000 35.672256
v -20.000000 140.000000 40.714039
v 0.000000 140.000000 43.354515
v 20.000000 140.000000 43.701382
v 40.000000 140.000000 41.215092
v 60.000000 140.000000 36.963051
v 80.000000 140.000000 31.811470
v 100.000000 140.000000 26.320808
v 120.000000 140.000000 19.891636
v 140.000000 140.000000 13.849945
v 160.000000 140.000000 8.127675
v -160.000000 160.000000 7.742111
v -140.000000 160.000000 8.754767
v -120.000000 160.000000 11.914327
v -100.000000 160.000000 17.799879
v -80.000000 160.000000 25.486780
v -60.000000 160.000000 33.039646
v -40.000000 160.000000 39.652950
v -20.000000 160.000000 45.204304
v 0.000000 160.000000 48.405769
v 20.000000 160.000000 49.483212
v 40.000000 160.000000 47.635990
v 60.000000 160.000000 43.741135
v 80.000000 160.000000 38.372200
v 100.000000 160.000000 32.609131
v 120.000000 160.000000 26.673231
v 140.000000 160.000000 21.363581
v 160.000000 160.000000 16.500540
vn -0.0604 0.2031 0.9773
vn -0.1148 0.2955 0.9484
vn -0.0353 0.1883 0.9815
vn 0.0647 0.0845 0.9943
vn -0.1252 0.3281 0.9363
vn -0.1112 0.2638 0.9581
vn -0.0873 0.3078 0.9474
vn -0.1209 0.2875 0.9501
vn 0.0120 0.2598 0.9656
vn -0.0338 0.2693 0.9625
vn 0.1332 0.2149 0.9675
vn 0.0955 0.2416 0.9657
vn 0.2154 0.1826 0.9593
vn 0.1820 0.2078 0.9611
vn 0.2245 0.1606 0.9611
vn 0.2062 0.1680 0.9640
vn 0.1754 0.1727 0.9692
vn 0.1827 0.1351 0.9738
vn 0.0942 0.1951 0.9763
vn 0.0855 0.1377 0.9868
vn -0.0097 0.1601 0.9871
vn -0.0656 0.1129 0.9914
vn -0.1272 0.0780 0.9888
vn -0.2015 0.0642 0.9774
vn -0.2265 -0.0024 0.9740
vn -0.2849 0.0156 0.9584
vn -0.2843 -0.0494 0.9575
vn -0.3205 -0.0175 0.9471
vn -0.3189 -0.0765 0.9447
vn -0.3359 -0.0407 0.9410
vn -0.3392 -0.0920 0.9362
vn -0.3387 -0.0477 0.9397
vn -0.3385 -0.0947 0.9362
vn -0.3291 -0.0340 0.9437
vn 0.0691 0.0235 0.9973
vn 0.1293 -0.0553 0.9901
vn -0.0228 0.1311 0.9911
vn -0.0851 0.2239 0.9709
vn -0.0385 0.2637 0.9638
vn 0.0712 0.2602 0.9629
vn 0.1430 0.2314 0.9623
vn 0.1517 0.1845 0.9711
vn 0.1435 0.1241 0.9818
vn 0.0709 0.0979 0.9927
vn -0.0831 0.0801 0.9933
vn -0.2200 0.0743 0.9727
vn -0.3012 0.0710 0.9509
vn -0.3350 0.0656 0.9399
vn -0.3463 0.0548 0.9365
vn -0.3342 0.0540 0.9410
vn -0.3078 0.0714 0.9488
vn 0.1502 -0.0631 0.9866
vn 0.1625 -0.1152 0.9800
vn 0.0905 0.0200 0.9957
vn 0.0139 0.1356 0.9907
vn 0.0044 0.2163 0.9763
vn 0.0638 0.2328 0.9704
vn 0.1060 0.2066 0.9727
vn 0.0979 0.1658 0.9813
vn 0.0953 0.1202 0.9882
vn 0.0407 0.0792 0.9960
vn -0.0879 0.0694 0.9937
vn -0.2066 0.0922 0.9741
vn -0.2888 0.1181 0.9501
vn -0.3312 0.1342 0.9340
vn -0.3431 0.1367 0.9293
vn -0.3214 0.1490 0.9352
vn -0.2838 0.1663 0.9444
vn 0.2023 -0.0515 0.9780
vn 0.1918 -0.0800 0.9782
vn 0.1750 -0.0341 0.9840
vn 0.1132 0.0144 0.9935
vn 0.0628 0.0580 0.9963
vn 0.0645 0.0640 0.9959
vn 0.0774 0.0332 0.9964
vn 0.0654 0.0128 0.9978
vn 0.0566 0.0086 0.9984
vn 0.0196 0.0012 0.9998
vn -0.0683 0.0411 0.9968
vn -0.1683 0.1013 0.9805
vn -0.2555 0.1559 0.9542
vn -0.3109 0.1885 0.9316
vn -0.3259 0.2171 0.9202
vn -0.3011 0.2393 0.9231
vn -0.2628 0.2538 0.9309
vn 0.1954 -0.0103 0.9807
vn 0.2209 -0.0216 0.9751
vn 0.1559 -0.0475 0.9866
vn 0.1060 -0.0824 0.9910
vn 0.0540 -0.0952 0.9940
vn 0.0404 -0.1154 0.9925
vn 0.0569 -0.1414 0.9883
vn 0.0737 -0.1560 0.9850
vn 0.0835 -0.1478 0.9855
vn 0.0727 -0.1305 0.9888
vn 0.0137 -0.0583 0.9982
vn -0.0894 0.0404 0.9952
vn -0.1988 0.1406 0.9699
vn -0.2649 0.2197 0.9389
vn -0.2864 0.2778 0.9170
vn -0.2793 0.3065 0.9100
vn -0.2455 0.3204 0.9149
vn 0.1779 -0.0229 0.9838
vn 0.2423 -0.0395 0.9694
vn 0.1045 -0.0525 0.9931
vn 0.0659 -0.0862 0.9941
vn 0.0299 -0.1096 0.9935
vn 0.0172 -0.1319 0.9911
vn 0.0350 -0.1591 0.9866
vn 0.0574 -0.1934 0.9794
vn 0.0804 -0.2287 0.9702
vn 0.1073 -0.2432 0.9640
vn 0.1014 -0.2009 0.9744
vn 0.0315 -0.1010 0.9944
vn -0.0741 0.0467 0.9962
vn -0.1698 0.1945 0.9661
vn -0.2339 0.2786 0.9315
vn -0.2541 0.3253 0.9108
vn -0.2312 0.3535 0.9064
vn 0.1833 -0.0761 0.9801
vn 0.2590 -0.1090 0.9597
vn 0.0940 -0.0542 0.9941
vn 0.0494 -0.0515 0.9975
vn 0.0080 -0.0771 0.9970
vn -0.0100 -0.1117 0.9937
vn -0.0068 -0.1622 0.9867
vn 0.0006 -0.2143 0.9768
vn 0.0289 -0.2591 0.9654
vn 0.0984 -0.2829 0.9541
vn 0.1559 -0.2739 0.9490
vn 0.1569 -0.2256 0.9615
vn 0.0968 -0.1180 0.9883
vn -0.0300 0.0340 0.9990
vn -0.1521 0.1775 0.9723
vn -0.2015 0.2972 0.9333
vn -0.2044 0.3665 0.9077
vn 0.2317 -0.1155 0.9659
vn 0.2867 -0.1632 0.9440
vn 0.1299 -0.0562 0.9899
vn 0.0434 -0.0459 0.9980
vn -0.0306 -0.0938 0.9951
vn -0.0685 -0.1654 0.9838
vn -0.0694 -0.2278 0.9712
vn -0.0436 -0.2748 0.9605
vn 0.0056 -0.2840 0.9588
vn 0.0871 -0.2862 0.9542
vn 0.1566 -0.2931 0.9432
vn 0.1885 -0.2910 0.9380
vn 0.1844 -0.2543 0.9494
vn 0.1235 -0.1638 0.9787
vn 0.0334 -0.0070 0.9994
vn -0.0569 0.1799 0.9820
vn -0.1487 0.3056 0.9405
vn 0.2883 -0.1116 0.9510
vn 0.3291 -0.1530 0.9318
vn 0.1654 -0.0680 0.9839
vn 0.0120 -0.0933 0.9956
vn -0.1113 -0.1885 0.9757
vn -0.1426 -0.2837 0.9483
vn -0.1169 -0.3297 0.9368
vn -0.0572 -0.3433 0.9375
vn 0.0149 -0.3225 0.9464
vn 0.0837 -0.3115 0.9466
vn 0.1447 -0.3155 0.9378
vn 0.1915 -0.3156 0.9294
vn 0.2233 -0.3009 0.9271
vn 0.2163 -0.2680 0.9388
vn 0.1874 -0.1816 0.9654
vn 0.1155 -0.0346 0.9927
vn -0.0290 0.1404 0.9897
vn 0.3171 -0.0617 0.9464
vn 0.3645 -0.0720 0.9284
vn 0.1526 -0.0774 0.9853
vn -0.0794 -0.1522 0.9852
vn -0.2226 -0.2487 0.9426
vn -0.2110 -0.3193 0.9239
vn -0.1283 -0.3554 0.9259
vn -0.0319 -0.3627 0.9314
vn 0.0402 -0.3467 0.9371
vn 0.0895 -0.3369 0.9373
vn 0.1452 -0.3267 0.9339
vn 0.1975 -0.3155 0.9281
vn 0.2289 -0.3140 0.9214
vn 0.2410 -0.3170 0.9173
vn 0.2625 -0.2766 0.9244
vn 0.2573 -0.1977 0.9459
vn 0.1523 -0.0661 0.9861
vn 0.2893 0.0021 0.9573
vn 0.3656 0.0374 0.9300
vn 0.0783 -0.0885 0.9930
vn -0.1675 -0.1894 0.9675
vn -0.2836 -0.2380 0.9289
vn -0.2515 -0.2673 0.9302
vn -0.1583 -0.3038 0.9395
vn -0.0443 -0.3374 0.9403
vn 0.0425 -0.3516 0.9352
vn 0.1013 -0.3496 0.9314
vn 0.1618 -0.3284 0.9306
vn 0.1997 -0.3129 0.9285
vn 0.2167 -0.3217 0.9217
vn 0.2472 -0.3329 0.9100
vn 0.2991 -0.3052 0.9041
vn 0.3168 -0.2738 0.9081
vn 0.2596 -0.2253 0.9391
vn 0.2014 0.0305 0.9790
vn 0.3238 0.1197 0.9385
vn -0.0427 -0.1081 0.9932
vn -0.2354 -0.2016 0.9508
vn -0.3036 -0.2257 0.9257
vn -0.2752 -0.2400 0.9309
vn -0.1977 -0.2722 0.9417
vn -0.0819 -0.3143 0.9458
vn 0.0248 -0.3474 0.9374
vn 0.1098 -0.3549 0.9284
vn 0.1791 -0.3384 0.9238
vn 0.2001 -0.3276 0.9234
vn 0.2022 -0.3336 0.9208
vn 0.2490 -0.3359 0.9084
vn 0.3120 -0.3155 0.8962
vn 0.3293 -0.3136 0.8906
vn 0.3135 -0.3081 0.8982
vn 0.0656 -0.0002 0.9978
vn 0.2376 0.1204 0.9639
vn -0.1608 -0.1321 0.9781
vn -0.2887 -0.1963 0.9371
vn -0.3234 -0.2151 0.9215
vn -0.2929 -0.2301 0.9280
vn -0.2284 -0.2545 0.9397
vn -0.1221 -0.2906 0.9490
vn -0.0042 -0.3282 0.9446
vn 0.1054 -0.3465 0.9321
vn 0.1852 -0.3478 0.9191
vn 0.2010 -0.3445 0.9170
vn 0.2024 -0.3378 0.9192
vn 0.2567 -0.3232 0.9109
vn 0.3126 -0.3128 0.8969
vn 0.3185 -0.3274 0.8896
vn 0.3107 -0.3445 0.8859
vn -0.0541 -0.0876 0.9947
vn 0.1237 0.0331 0.9918
vn -0.2416 -0.1568 0.9576
vn -0.3210 -0.1897 0.9279
vn -0.3369 -0.2009 0.9199
vn -0.3087 -0.2132 0.9270
vn -0.2522 -0.2339 0.9390
vn -0.1554 -0.2613 0.9527
vn -0.0373 -0.2979 0.9539
vn 0.0823 -0.3246 0.9423
vn 0.1753 -0.3430 0.9228
vn 0.2083 -0.3455 0.9150
vn 0.2211 -0.3269 0.9188
vn 0.2679 -0.3033 0.9145
vn 0.3023 -0.3066 0.9026
vn 0.2954 -0.3303 0.8965
vn 0.2889 -0.3583 0.8878
vn -0.1274 -0.2104 0.9693
vn -0.0145 -0.1265 0.9919
vn -0.2653 -0.1923 0.9448
vn -0.3356 -0.1766 0.9253
vn -0.3463 -0.1808 0.9205
vn -0.3208 -0.1905 0.9278
vn -0.2704 -0.2051 0.9406
vn -0.1835 -0.2306 0.9556
vn -0.0718 -0.2632 0.9621
vn 0.0510 -0.2949 0.9542
vn 0.1574 -0.3193 0.9345
vn 0.2163 -0.3270 0.9199
vn 0.2444 -0.3103 0.9187
vn 0.2732 -0.2914 0.9168
vn 0.2832 -0.3073 0.9085
vn 0.2658 -0.3358 0.9037
vn 0.2566 -0.3694 0.8932
vn -0.1233 -0.2981 0.9465
vn -0.0709 -0.2751 0.9588
vn -0.2145 -0.2328 0.9486
vn -0.3162 -0.1775 0.9319
vn -0.3508 -0.1699 0.9209
vn -0.3286 -0.1764 0.9279
vn -0.2859 -0.1858 0.9401
vn -0.2090 -0.2088 0.9554
vn -0.1033 -0.2378 0.9658
vn 0.0186 -0.2696 0.9628
vn 0.1357 -0.2961 0.9455
vn 0.2146 -0.3090 0.9265
vn 0.2559 -0.2984 0.9195
vn 0.2688 -0.2886 0.9189
vn 0.2572 -0.3114 0.9148
vn 0.2311 -0.3482 0.9085
vn 0.2241 -0.3797 0.8975
vt 0.015625 0.015625
vt 0.076172 0.015625
vt 0.076172 0.076172
vt 0.015625 0.076172
vt 0.136719 0.015625
vt 0.136719 0.076172
vt 0.197266 0.015625
vt 0.197266 0.076172
vt 0.257812 0.015625
vt 0.257812 0.076172
vt 0.318359 0.015625
vt 0.318359 0.076172
vt 0.378906 0.015625
vt 0.378906 0.076172
vt 0.439453 0.015625
vt 0.439453 0.076172
vt 0.500000 0.015625
vt 0.500000 0.076172
vt 0.560547 0.015625
vt 0.560547 0.076172
vt 0.621094 0.015625
vt 0.621094 0.076172
vt 0.681641 0.015625
vt 0.681641 0.076172
vt 0.742188 0.015625
vt 0.742188 0.076172
vt 0.802734 0.015625
vt 0.802734 0.076172
vt 0.863281 0.015625
vt 0.863281 0.076172
vt 0.923828 0.015625
vt 0.923828 0.076172
vt 0.984375 0.015625
vt 0.984375 0.076172
vt 0.076172 0.136719
vt 0.015625 0.136719
vt 0.136719 0.136719
vt 0.197266 0.136719
vt 0.257812 0.136719
vt 0.318359 0.136719
vt 0.378906 0.136719
vt 0.439453 0.136719
vt 0.500000 0.136719
vt 0.560547 0.136719
vt 0.621094 0.136719
vt 0.681641 0.136719
vt 0.742188 0.136719
vt 0.802734 0.136719
vt 0.863281 0.136719
vt 0.923828 0.136719
vt 0.984375 0.136719
vt 0.076172 0.197266
vt 0.015625 0.197266
vt 0.136719 0.197266
vt 0.197266 0.197266
vt 0.257812 0.197266
vt 0.318359 0.197266
vt 0.378906 0.197266
vt 0.439453 0.197266
vt 0.500000 0.197266
vt 0.560547 0.197266
vt 0.621094 0.197266
vt 0.681641 0.197266
vt 0.742188 0.197266
vt 0.802734 0.197266
vt 0.863281 0.197266
vt 0.923828 0.197266
vt 0.984375 0.197266
vt 0.076172 0.257812
vt 0.015625 0.257812
vt 0.136719 0.257812
vt 0.197266 0.257812
vt 0.257812 0.257812
vt 0.318359 0.257812
vt 0.378906 0.257812
vt 0.439453 0.257812
vt 0.500000 0.257812
vt 0.560547 0.257812
vt 0.621094 0.257812
vt 0.681641 0.257812
vt 0.742188 0.257812
vt 0.802734 0.257812
vt 0.863281 0.257812
vt 0.923828 0.257812
vt 0.984375 0.257812
vt 0.076172 0.318359
vt 0.015625 0.318359
vt 0.136719 0.318359
vt 0.197266 0.318359
vt 0.257812 0.318359
vt 0.318359 0.318359
vt 0.378906 0.318359
vt 0.439453 0.318359
vt 0.500000 0.318359
vt 0.560547 0.318359
vt 0.621094 0.318359
vt 0.681641 0.318359
vt 0.742188 0.318359
vt 0.802734 0.318359
vt 0.863281 0.318359
vt 0.923828 0.318359
vt 0.984375 0.318359
vt 0.076172 0.378906
vt 0.015625 0.378906
vt 0.136719 0.378906
vt 0.197266 0.378906
vt 0.257812 0.378906
vt 0.318359 0.378906
vt 0.378906 0.378906
vt 0.439453 0.378906
vt 0.500000 0.378906
vt 0.560547 0.378906
vt 0.621094 0.378906
vt 0.681641 0.378906
vt 0.742188 0.378906
vt 0.802734 0.378906
vt 0.863281 0.378906
vt 0.923828 0.378906
vt 0.984375 0.378906
vt 0.076172 0.439453
vt 0.015625 0.439453
vt 0.136719 0.439453
vt 0.197266 0.439453
vt 0.257812 0.439453
vt 0.318359 0.439453
vt 0.378906 0.439453
vt 0.439453 0.439453
vt 0.500000 0.439453
vt 0.560547 0.439453
vt 0.621094 0.439453
vt 0.681641 0.439453
vt 0.742188 0.439453
vt 0.802734 0.439453
vt 0.863281 0.439453
vt 0.923828 0.439453
vt 0.984375 0.439453
vt 0.076172 0.500000
vt 0.015625 0.500000
vt 0.136719 0.500000
vt 0.197266 0.500000
vt 0.257812 0.500000
vt 0.318359 0.500000
vt 0.378906 0.500000
vt 0.439453 0.500000
vt 0.500000 0.500000
vt 0.560547 0.500000
vt 0.621094 0.500000
vt 0.681641 0.500000
vt 0.742188 0.500000
vt 0.802734 0.500000
vt 0.863281 0.500000
vt 0.923828 0.500000
vt 0.984375 0.500000
vt 0.076172 0.560547
vt 0.015625 0.560547
vt 0.136719 0.560547
vt 0.197266 0.560547
vt 0.257812 0.560547
vt 0.318359 0.560547
vt 0.378906 0.560547
vt 0.439453 0.560547
vt 0.500000 0.560547
vt 0.560547 0.560547
vt 0.621094 0.560547
vt 0.681641 0.560547
vt 0.742188 0.560547
vt 0.802734 0.560547
vt 0.863281 0.560547
vt 0.923828 0.560547
vt 0.984375 0.560547
vt 0.076172 0.621094
vt 0.015625 0.621094
vt 0.136719 0.621094
vt 0.197266 0.621094
vt 0.257812 0.621094
vt 0.318359 0.621094
vt 0.378906 0.621094
vt 0.439453 0.621094
vt 0.500000 0.621094
vt 0.560547 0.621094
vt 0.621094 0.621094
vt 0.681641 0.621094
vt 0.742188 0.621094
vt 0.802734 0.621094
vt 0.863281 0.621094
vt 0.923828 0.621094
vt 0.984375 0.621094
vt 0.076172 0.681641
vt 0.015625 0.681641
vt 0.136719 0.681641
vt 0.197266 0.681641
vt 0.257812 0.681641
vt 0.318359 0.681641
vt 0.378906 0.681641
vt 0.439453 0.681641
vt 0.500000 0.681641
vt 0.560547 0.681641
vt 0.621094 0.681641
vt 0.681641 0.681641
vt 0.742188 0.681641
vt 0.802734 0.681641
vt 0.863281 0.681641
vt 0.923828 0.681641
vt 0.984375 0.681641
vt 0.076172 0.742188
vt 0.015625 0.742188
vt 0.136719 0.742188
vt 0.197266 0.742188
vt 0.257812 0.742188
vt 0.318359 0.742188
vt 0.378906 0.742188
vt 0.439453 0.742188
vt 0.500000 0.742188
vt 0.560547 0.742188
vt 0.621094 0.742188
vt 0.681641 0.742188
vt 0.742188 0.742188
vt 0.802734 0.742188
vt 0.863281 0.742188
vt 0.923828 0.742188
vt 0.984375 0.742188
vt 0.076172 0.802734
vt 0.015625 0.802734
vt 0.136719 0.802734
vt 0.197266 0.802734
vt 0.257812 0.802734
vt 0.318359 0.802734
vt 0.378906 0.802734
vt 0.439453 0.802734
vt 0.500000 0.802734
vt 0.560547 0.802734
vt 0.621094 0.802734
vt 0.681641 0.802734
vt 0.742188 0.802734
vt 0.802734 0.802734
vt 0.863281 0.802734
vt 0.923828 0.802734
vt 0.984375 0.802734
vt 0.076172 0.863281
vt 0.015625 0.863281
vt 0.136719 0.863281
vt 0.197266 0.863281
vt 0.257812 0.863281
vt 0.318359 0.863281
vt 0.378906 0.863281
vt 0.439453 0.863281
vt 0.500000 0.863281
vt 0.560547 0.863281
vt 0.621094 0.863281
vt 0.681641 0.863281
vt 0.742188 0.863281
vt 0.802734 0.863281
vt 0.863281 0.863281
vt 0.923828 0.863281
vt 0.984375 0.863281
vt 0.076172 0.923828
vt 0.015625 0.923828
vt 0.136719 0.923828
vt 0.197266 0.923828
vt 0.257812 0.923828
vt 0.318359 0.923828
vt 0.378906 0.923828
vt 0.439453 0.923828
vt 0.500000 0.923828
vt 0.560547 0.923828
vt 0.621094 0.923828
vt 0.681641 0.923828
vt 0.742188 0.923828
vt 0.802734 0.923828
vt 0.863281 0.923828
vt 0.923828 0.923828
vt 0.984375 0.923828
vt 0.076172 0.984375
vt 0.015625 0.984375
vt 0.136719 0.984375
vt 0.197266 0.984375
vt 0.257812 0.984375
vt 0.318359 0.984375
vt 0.378906 0.984375
vt 0.439453 0.984375
vt 0.500000 0.984375
vt 0.560547 0.984375
vt 0.621094 0.984375
vt 0.681641 0.984375
vt 0.742188 0.984375
vt 0.802734 0.984375
vt 0.863281 0.984375
vt 0.923828 0.984375
vt 0.984375 0.984375
s 1
f 1/1/1 2/2/2 19/3/3
f 1/1/1 19/3/3 18/4/4
f 2/2/2 3/5/5 20/6/6
f 2/2/2 20/6/6 19/3/3
f 3/5/5 4/7/7 21/8/8
f 3/5/5 21/8/8 20/6/6
f 4/7/7 5/9/9 22/10/10
f 4/7/7 22/10/10 21/8/8
f 5/9/9 6/11/11 23/12/12
f 5/9/9 23/12/12 22/10/10
f 6/11/11 7/13/13 24/14/14
f 6/11/11 24/14/14 23/12/12
f 7/13/13 8/15/15 25/16/16
f 7/13/13 25/16/16 24/14/14
f 8/15/15 9/17/17 26/18/18
f 8/15/15 26/18/18 25/16/16
f 9/17/17 10/19/19 27/20/20
f 9/17/17 27/20/20 26/18/18
f 10/19/19 11/21/21 28/22/22
f 10/19/19 28/22/22 27/20/20
f 11/21/21 12/23/23 29/24/24
f 11/21/21 29/24/24 28/22/22
f 12/23/23 13/25/25 30/26/26
f 12/23/23 30/26/26 29/24/24
f 13/25/25 14/27/27 31/28/28
f 13/25/25 31/28/28 30/26/26
f 14/27/27 15/29/29 32/30/30
f 14/27/27 32/30/30 31/28/28
f 15/29/29 16/31/31 33/32/32
f 15/29/29 33/32/32 32/30/30
f 16/31/31 17/33/33 34/34/34
f 16/31/31 34/34/34 33/32/32
f 18/4/4 19/3/3 36/35/35
f 18/4/4 36/35/35 35/36/36
f 19/3/3 20/6/6 37/37/37
f 19/3/3 37/37/37 36/35/35
f 20/6/6 21/8/8 38/38/38
f 20/6/6 38/38/38 37/37/37
f 21/8/8 22/10/10 39/39/39
f 21/8/8 39/39/39 38/38/38
f 22/10/10 23/12/12 40/40/40
f 22/10/10 40/40/40 39/39/39
f 23/12/12 24/14/14 41/41/41
f 23/12/12 41/41/41 40/40/40
f 24/14/14 25/16/16 42/42/42
f 24/14/14 42/42/42 41/41/41
f 25/16/16 26/18/18 43/43/43
f 25/16/16 43/43/43 42/42/42
f 26/18/18 27/20/20 44/44/44
f 26/18/18 44/44/44 43/43/43
f 27/20/20 28/22/22 45/45/45
f 27/20/20 45/45/45 44/44/44
f 28/22/22 29/24/24 46/46/46
f 28/22/22 46/46/46 45/45/45
f 29/24/24 30/26/26 47/47/47
f 29/24/24 47/47/47 46/46/46
f 30/26/26 31/28/28 48/48/48
f 30/26/26 48/48/48 47/47/47
f 31/28/28 32/30/30 49/49/49
f 31/28/28 49/49/49 48/48/48
f 32/30/30 33/32/32 50/50/50
f 32/30/30 50/50/50 49/49/49
f 33/32/32 34/34/34 51/51/51
f 33/32/32 51/51/51 50/50/50
f 35/36/36 36/35/35 53/52/52
f 35/36/36 53/52/52 52/53/53
f 36/35/35 37/37/37 54/54/54
f 36/35/35 54/54/54 53/52/52
f 37/37/37 38/38/38 55/55/55
f 37/37/37 55/55/55 54/54/54
f 38/38/38 39/39/39 56/56/56
f 38/38/38 56/56/56 55/55/55
f 39/39/39 40/40/40 57/57/57
f 39/39/39 57/57/57 56/56/56
f 40/40/40 41/41/41 58/58/58
f 40/40/40 58/58/58 57/57/57
f 41/41/41 42/42/42 59/59/59
f 41/41/41 59/59/59 58/58/58
f 42/42/42 43/43/43 60/60/60
f 42/42/42 60/60/60 59/59/59
f 43/43/43 44/44/44 61/61/61
f 43/43/43 61/61/61 60/60/60
f 44/44/44 45/45/45 62/62/62
f 44/44/44 62/62/62 61/61/61
f 45/45/45 46/46/46 63/63/63
f 45/45/45 63/63/63 62/62/62
f 46/46/46 47/47/47 64/64/64
f 46/46/46 64/64/64 63/63/63
f 47/47/47 48/48/48 65/65/65
f 47/47/47 65/65/65 64/64/64
f 48/48/48 49/49/49 66/66/66
f 48/48/48 66/66/66 65/65/65
f 49/49/49 50/50/50 67/67/67
f 49/49/49 67/67/67 66/66/66
f 50/50/50 51/51/51 68/68/68
f 50/50/50 68/68/68 67/67/67
f 52/53/53 53/52/52 70/69/69
f 52/53/53 70/69/69 69/70/70
f 53/52/52 54/54/54 71/71/71
f 53/52/52 71/71/71 70/69/69
f 54/54/54 55/55/55 72/72/72
f 54/54/54 72/72/72 71/71/71
f 55/55/55 56/56/56 73/73/73
f 55/55/55 73/73/73 72/72/72
f 56/56/56 57/57/57 74/74/74
f 56/56/56 74/74/74 73/73/73
f 57/57/57 58/58/58 75/75/75
f 57/57/57 75/75/75 74/74/74
f 58/58/58 59/59/59 76/76/76
f 58/58/58 76/76/76 75/75/75
f 59/59/59 60/60/60 77/77/77
f 59/59/59 77/77/77 76/76/76
f 60/60/60 61/61/61 78/78/78
f 60/60/60 78/78/78 77/77/77
f 61/61/61 62/62/62 79/79/79
f 61/61/61 79/79/79 78/78/78
f 62/62/62 63/63/63 80/80/80
f 62/62/62 80/80/80 79/79/79
f 63/63/63 64/64/64 81/81/81
f 63/63/63 81/81/81 80/80/80
f 64/64/64 65/65/65 82/82/82
f 64/64/64 82/82/82 81/81/81
f 65/65/65 66/66/66 83/83/83
f 65/65/65 83/83/83 82/82/82
f 66/66/66 67/67/67 84/84/84
f 66/66/66 84/84/84 83/83/83
f 67/67/67 68/68/68 85/85/85
f 67/67/67 85/85/85 84/84/84
f 69/70/70 70/69/69 87/86/86
f 69/70/70 87/86/86 86/87/87
f 70/69/69 71/71/71 88/88/88
f 70/69/69 88/88/88 87/86/86
f 71/71/71 72/72/72 89/89/89
f 71/71/71 89/89/89 88/88/88
f 72/72/72 73/73/73 90/90/90
f 72/72/72 90/90/90 89/89/89
f 73/73/73 74/74/74 91/91/91
f 73/73/73 91/91/91 90/90/90
f 74/74/74 75/75/75 92/92/92
f 74/74/74 92/92/92 91/91/91
f 75/75/75 76/76/76 93/93/93
f 75/75/75 93/93/93 92/92/92
f 76/76/76 77/77/77 94/94/94
f 76/76/76 94/94/94 93/93/93
f 77/77/77 78/78/78 95/95/95
f 77/77/77 95/95/95 94/94/94
f 78/78/78 79/79/79 96/96/96
f 78/78/78 96/96/96 95/95/95
f 79/79/79 80/80/80 97/97/97
f 79/79/79 97/97/97 96/96/96
f 80/80/80 81/81/81 98/98/98
f 80/80/80 98/98/98 97/97/97
f 81/81/81 82/82/82 99/99/99
f 81/81/81 99/99/99 98/98/98
f 82/82/82 83/83/83 100/100/100
f 82/82/82 100/100/100 99/99/99
f 83/83/83 84/84/84 101/101/101
f 83/83/83 101/101/101 100/100/100
f 84/84/84 85/85/85 102/102/102
f 84/84/84 102/102/102 101/101/101
f 86/87/87 87/86/86 104/103/103
f 86/87/87 104/103/103 103/104/104
f 87/86/86 88/88/88 105/105/105
f 87/86/86 105/105/105 104/103/103
f 88/88/88 89/89/89 106/106/106
f 88/88/88 106/106/106 105/105/105
f 89/89/89 90/90/90 107/107/107
f 89/89/89 107/107/107 106/106/106
f 90/90/90 91/91/91 108/108/108
f 90/90/90 108/108/108 107/107/107
f 91/91/91 92/92/92 109/109/109
f 91/91/91 109/109/109 108/108/108
f 92/92/92 93/93/93 110/110/110
f 92/92/92 110/110/110 109/109/109
f 93/93/93 94/94/94 111/111/111
f 93/93/93 111/111/111 110/110/110
f 94/94/94 95/95/95 112/112/112
f 94/94/94 112/112/112 111/111/111
f 95/95/95 96/96/96 113/113/113
f 95/95/95 113/113/113 112/112/112
f 96/96/96 97/97/97 114/114/114
f 96/96/96 114/114/114 113/113/113
f 97/97/97 98/98/98 115/115/115
f 97/97/97 115/115/115 114/114/114
f 98/98/98 99/99/99 116/116/116
f 98/98/98 116/116/116 115/115/115
f 99/99/99 100/100/100 117/117/117
f 99/99/99 117/117/117 116/116/116
f 100/100/100 101/101/101 118/118/118
f 100/100/100 118/118/118 117/117/117
f 101/101/101 102/102/102 119/119/119
f 101/101/101 119/119/119 118/118/118
f 103/104/104 104/103/103 121/120/120
f 103/104/104 121/120/120 120/121/121
f 104/103/103 105/105/105 122/122/122
f 104/103/103 122/122/122 121/120/120
f 105/105/105 106/106/106 123/123/123
f 105/105/105 123/123/123 122/122/122
f 106/106/106 107/107/107 124/124/124
f 106/106/106 124/124/124 123/123/123
f 107/107/107 108/108/108 125/125/125
f 107/107/107 125/125/125 124/124/124
f 108/108/108 109/109/109 126/126/126
f 108/108/108 126/126/126 125/125/125
f 109/109/109 110/110/110 127/127/127
f 109/109/109 127/127/127 126/126/126
f 110/110/110 111/111/111 128/128/128
f 110/110/110 128/128/128 127/127/127
f 111/111/111 112/112/112 129/129/129
f 111/111/111 129/129/129 128/128/128
f 112/112/112 113/113/113 130/130/130
f 112/112/112 130/130/130 129/129/129
f 113/113/113 114/114/114 131/131/131
f 113/113/113 131/131/131 130/130/130
f 114/114/114 115/115/115 132/132/132
f 114/114/114 132/132/132 131/131/131
f 115/115/115 116/116/116 133/133/133
f 115/115/115 133/133/133 132/132/132
f 116/116/116 117/117/117 134/134/134
f 116/116/116 134/134/134 133/133/133
f 117/117/117 118/118/118 135/135/135
f 117/117/117 135/135/135 134/134/134
f 118/118/118 119/119/119 136/136/136
f 118/118/118 136/136/136 135/135/135
f 120/121/121 121/120/120 138/137/137
f 120/121/121 138/137/137 137/138/138
f 121/120/120 122/122/122 139/139/139
f 121/120/120 139/139/139 138/137/137
f 122/122/122 123/123/123 140/140/140
f 122/122/122 140/140/140 139/139/139
f 123/123/123 124/124/124 141/141/141
f 123/123/123 141/141/141 140/140/140
f 124/124/124 125/125/125 142/142/142
f 124/124/124 142/142/142 141/141/141
f 125/125/125 126/126/126 143/143/143
f 125/125/125 143/143/143 142/142/142
f 126/126/126 127/127/127 144/144/144
f 126/126/126 144/144/144 143/143/143
f 127/127/127 128/128/128 145/145/145
f 127/127/127 145/145/145 144/144/144
f 128/128/128 129/129/129 146/146/146
f 128/128/128 146/146/146 145/145/145
f 129/129/129 130/130/130 147/147/147
f 129/129/129 147/147/147 146/146/146
f 130/130/130 131/131/131 148/148/148
f 130/130/130 148/148/148 147/147/147
f 131/131/131 132/132/132 149/149/149
f 131/131/131 149/149/149 148/148/148
f 132/132/132 133/133/133 150/150/150
f 132/132/132 150/150/150 149/149/149
f 133/133/133 134/134/134 151/151/151
f 133/133/133 151/151/151 150/150/150
f 134/134/134 135/135/135 152/152/152
f 134/134/134 152/152/152 151/151/151
f 135/135/135 136/136/136 153/153/153
f 135/135/135 153/153/153 152/152/152
f 137/138/138 138/137/137 155/154/154
f 137/138/138 155/154/154 154/155/155
f 138/137/137 139/139/139 156/156/156
f 138/137/137 156/156/156 155/154/154
f 139/139/139 140/140/140 157/157/157
f 139/139/139 157/157/157 156/156/156
f 140/140/140 141/141/141 158/158/158
f 140/140/140 158/158/158 157/157/157
f 141/141/141 142/142/142 159/159/159
f 141/141/141 159/159/159 158/158/158
f 142/142/142 143/143/143 160/160/160
f 142/142/142 160/160/160 159/159/159
f 143/143/143 144/144/144 161/161/161
f 143/143/143 161/161/161 160/160/160
f 144/144/144 145/145/145 162/162/162
f 144/144/144 162/162/162 161/161/161
f 145/145/145 146/146/146 163/163/163
f 145/145/145 163/163/163 162/162/162
f 146/146/146 147/147/147 164/164/164
f 146/146/146 164/164/164 163/163/163
f 147/147/147 148/148/148 165/165/165
f 147/147/147 165/165/165 164/164/164
f 148/148/148 149/149/149 166/166/166
f 148/148/148 166/166/166 165/165/165
f 149/149/149 150/150/150 167/167/167
f 149/149/149 167/167/167 166/166/166
f 150/150/150 151/151/151 168/168/168
f 150/150/150 168/168/168 167/167/167
f 151/151/151 152/152/152 169/169/169
f 151/151/151 169/169/169 168/168/168
f 152/152/152 153/153/153 170/170/170
f 152/152/152 170/170/170 169/169/169
f 154/155/155 155/154/154 172/171/171
f 154/155/155 172/171/171 171/172/172
f 155/154/154 156/156/156 173/173/173
f 155/154/154 173/173/173 172/171/171
f 156/156/156 157/157/157 174/174/174
f 156/156/156 174/174/174 173/173/173
f 157/157/157 158/158/158 175/175/175
f 157/157/157 175/175/175 174/174/174
f 158/158/158 159/159/159 176/176/176
f 158/158/158 176/176/176 175/175/175
f 159/159/159 160/160/160 177/177/177
f 159/159/159 177/177/177 176/176/176
f 160/160/160 161/161/161 178/178/178
f 160/160/160 178/178/178 177/177/177
f 161/161/161 162/162/162 179/179/179
f 161/161/161 179/179/179 178/178/178
f 162/162/162 163/163/163 180/180/180
f 162/162/162 180/180/180 179/179/179
f 163/163/163 164/164/164 181/181/181
f 163/163/163 181/181/181 180/180/180
f 164/164/164 165/165/165 182/182/182
f 164/164/164 182/182/182 181/181/181
f 165/165/165 166/166/166 183/183/183
f 165/165/165 183/183/183 182/182/182
f 166/166/166 167/167/167 184/184/184
f 166/166/166 184/184/184 183/183/183
f 167/167/167 168/168/168 185/185/185
f 167/167/167 185/185/185 184/184/184
f 168/168/168 169/169/169 186/186/186
f 168/168/168 186/186/186 185/185/185
f 169/169/169 170/170/170 187/187/187
f 169/169/169 187/187/187 186/186/186
f 171/172/172 172/171/171 189/188/188
f 171/172/172 189/188/188 188/189/189
f 172/171/171 173/173/173 190/190/190
f 172/171/171 190/190/190 189/188/188
f 173/173/173 174/174/174 191/191/191
f 173/173/173 191/191/191 190/190/190
f 174/174/174 175/175/175 192/192/192
f 174/174/174 192/192/192 191/191/191
f 175/175/175 176/176/176 193/193/193
f 175/175/175 193/193/193 192/192/192
f 176/176/176 177/177/177 194/194/194
f 176/176/176 194/194/194 193/193/193
f 177/177/177 178/178/178 195/195/195
f 177/177/177 195/195/195 194/194/194
f 178/178/178 179/179/179 196/196/196
f 178/178/178 196/196/196 195/195/195
f 179/179/179 180/180/180 197/197/197
f 179/179/179 197/197/197 196/196/196
f 180/180/180 181/181/181 198/198/198
f 180/180/180 198/198/198 197/197/197
f 181/181/181 182/182/182 199/199/199
f 181/181/181 199/199/199 198/198/198
f 182/182/182 183/183/183 200/200/200
f 182/182/182 200/200/200 199/199/199
f 183/183/183 184/184/184 201/201/201
f 183/183/183 201/201/201 200/200/200
f 184/184/184 185/185/185 202/202/202
f 184/184/184 202/202/202 201/201/201
f 185/185/185 186/186/186 203/203/203
f 185/185/185 203/203/203 202/202/202
f 186/186/186 187/187/187 204/204/204
f 186/186/186 204/204/204 203/203/203
f 188/189/189 189/188/188 206/205/205
f 188/189/189 206/205/205 205/206/206
f 189/188/188 190/190/190 207/207/207
f 189/188/188 207/207/207 206/205/205
f 190/190/190 191/191/191 208/208/208
f 190/190/190 208/208/208 207/207/207
f 191/191/191 192/192/192 209/209/209
f 191/191/191 209/209/209 208/208/208
f 192/192/192 193/193/193 210/210/210
f 192/192/192 210/210/210 209/209/209
f 193/193/193 194/194/194 211/211/211
f 193/193/193 211/211/211 210/210/210
f 194/194/194 195/195/195 212/212/212
f 194/194/194 212/212/212 211/211/211
f 195/195/195 196/196/196 213/213/213
f 195/195/195 213/213/213 212/212/212
f 196/196/196 197/197/197 214/214/214
f 196/196/196 214/214/214 213/213/213
f 197/197/197 198/198/198 215/215/215
f 197/197/197 215/215/215 214/214/214
f 198/198/198 199/199/199 216/216/216
f 198/198/198 216/216/216 215/215/215
f 199/199/199 200/200/200 217/217/217
f 199/199/199 217/217/217 216/216/216
f 200/200/200 201/201/201 218/218/218
f 200/200/200 218/218/218 217/217/217
f 201/201/201 202/202/202 219/219/219
f 201/201/201 219/219/219 218/218/218
f 202/202/202 203/203/203 220/220/220
f 202/202/202 220/220/220 219/219/219
f 203/203/203 204/204/204 221/221/221
f 203/203/203 221/221/221 220/220/220
f 205/206/206 206/205/205 223/222/222
f 205/206/206 223/222/222 222/223/223
f 206/205/205 207/207/207 224/224/224
f 206/205/205 224/224/224 223/222/222
f 207/207/207 208/208/208 225/225/225
f 207/207/207 225/225/225 224/224/224
f 208/208/208 209/209/209 226/226/226
f 208/208/208 226/226/226 225/225/225
f 209/209/209 210/210/210 227/227/227
f 209/209/209 227/227/227 226/226/226
f 210/210/210 211/211/211 228/228/228
f 210/210/210 228/228/228 227/227/227
f 211/211/211 212/212/212 229/229/229
f 211/211/211 229/229/229 228/228/228
f 212/212/212 213/213/213 230/230/230
f 212/212/212 230/230/230 229/229/229
f 213/213/213 214/214/214 231/231/231
f 213/213/213 231/231/231 230/230/230
f 214/214/214 215/215/215 232/232/232
f 214/214/214 232/232/232 231/231/231
f 215/215/215 216/216/216 233/233/233
f 215/215/215 233/233/233 232/232/232
f 216/216/216 217/217/217 234/234/234
f 216/216/216 234/234/234 233/233/233
f 217/217/217 218/218/218 235/235/235
f 217/217/217 235/235/235 234/234/234
f 218/218/218 219/219/219 236/236/236
f 218/218/218 236/236/236 235/235/235
f 219/219/219 220/220/220 237/237/237
f 219/219/219 237/237/237 236/236/236
f 220/220/220 221/221/221 238/238/238
f 220/220/220 238/238/238 237/237/237
f 222/223/223 223/222/222 240/239/239
f 222/223/223 240/239/239 239/240/240
f 223/222/222 224/224/224 241/241/241
f 223/222/222 241/241/241 240/239/239
f 224/224/224 225/225/225 242/242/242
f 224/224/224 242/242/242 241/241/241
f 225/225/225 226/226/226 243/243/243
f 225/225/225 243/243/243 242/242/242
f 226/226/226 227/227/227 244/244/244
f 226/226/226 244/244/244 243/243/243
f 227/227/227 228/228/228 245/245/245
f 227/227/227 245/245/245 244/244/244
f 228/228/228 229/229/229 246/246/246
f 228/228/228 246/246/246 245/245/245
f 229/229/229 230/230/230 247/247/247
f 229/229/229 247/247/247 246/246/246
f 230/230/230 231/231/231 248/248/248
f 230/230/230 248/248/248 247/247/247
f 231/231/231 232/232/232 249/249/249
f 231/231/231 249/249/249 248/248/248
f 232/232/232 233/233/233 250/250/250
f 232/232/232 250/250/250 249/249/249
f 233/233/233 234/234/234 251/251/251
f 233/233/233 251/251/251 250/250/250
f 234/234/234 235/235/235 252/252/252
f 234/234/234 252/252/252 251/251/251
f 235/235/235 236/236/236 253/253/253
f 235/235/235 253/253/253 252/252/252
f 236/236/236 237/237/237 254/254/254
f 236/236/236 254/254/254 253/253/253
f 237/237/237 238/238/238 255/255/255
f 237/237/237 255/255/255 254/254/254
f 239/240/240 240/239/239 257/256/256
f 239/240/240 257/256/256 256/257/257
f 240/239/239 241/241/241 258/258/258
f 240/239/239 258/258/258 257/256/256
f 241/241/241 242/242/242 259/259/259
f 241/241/241 259/259/259 258/258/258
f 242/242/242 243/243/243 260/260/260
f 242/242/242 260/260/260 259/259/259
f 243/243/243 244/244/244 261/261/261
f 243/243/243 261/261/261 260/260/260
f 244/244/244 245/245/245 262/262/262
f 244/244/244 262/262/262 261/261/261
f 245/245/245 246/246/246 263/263/263
f 245/245/245 263/263/263 262/262/262
f 246/246/246 247/247/247 264/264/264
f 246/246/246 264/264/264 263/263/263
f 247/247/247 248/248/248 265/265/265
f 247/247/247 265/265/265 264/264/264
f 248/248/248 249/249/249 266/266/266
f 248/248/248 266/266/266 265/265/265
f 249/249/249 250/250/250 267/267/267
f 249/249/249 267/267/267 266/266/266
f 250/250/250 251/251/251 268/268/268
f 250/250/250 268/268/268 267/267/267
f 251/251/251 252/252/252 269/269/269
f 251/251/251 269/269/269 268/268/268
f 252/252/252 253/253/253 270/270/270
f 252/252/252 270/270/270 269/269/269
f 253/253/253 254/254/254 271/271/271
f 253/253/253 271/271/271 270/270/270
f 254/254/254 255/255/255 272/272/272
f 254/254/254 272/272/272 271/271/271
f 256/257/257 257/256/256 274/273/273
f 256/257/257 274/273/273 273/274/274
f 257/256/256 258/258/258 275/275/275
f 257/256/256 275/275/275 274/273/273
f 258/258/258 259/259/259 276/276/276
f 258/258/258 276/276/276 275/275/275
f 259/259/259 260/260/260 277/277/277
f 259/259/259 277/277/277 276/276/276
f 260/260/260 261/261/261 278/278/278
f 260/260/260 278/278/278 277/277/277
f 261/261/261 262/262/262 279/279/279
f 261/261/261 279/279/279 278/278/278
f 262/262/262 263/263/263 280/280/280
f 262/262/262 280/280/280 279/279/279
f 263/263/263 264/264/264 281/281/281
f 263/263/263 281/281/281 280/280/280
f 264/264/264 265/265/265 282/282/282
f 264/264/264 282/282/282 281/281/281
f 265/265/265 266/266/266 283/283/283
f 265/265/265 283/283/283 282/282/282
f 266/266/266 267/267/267 284/284/284
f 266/266/266 284/284/284 283/283/283
f 267/267/267 268/268/268 285/285/285
f 267/267/267 285/285/285 284/284/284
f 268/268/268 269/269/269 286/286/286
f 268/268/268 286/286/286 285/285/285
f 269/269/269 270/270/270 287/287/287
f 269/269/269 287/287/287 286/286/286
f 270/270/270 271/271/271 288/288/288
f 270/270/270 288/288/288 287/287/287
f 271/271/271 272/272/272 289/289/289
f 271/271/271 289/289/289 288/288/288
