mtllib terrain_mid_04_03.mtl
usemtl terrain_mid_04_03
# Blender 5.1.1
# www.blender.org
o terrain_mid_04_03
v -48.000000 -48.000000 -5.216560
v -24.000000 -48.000000 -9.519905
v 0.000000 -48.000000 -12.445686
v 24.000000 -48.000000 -13.831245
v 48.000000 -48.000000 -15.912788
v -48.000000 -24.000000 0.222344
v -24.000000 -24.000000 -5.363044
v 0.000000 -24.000000 -7.308845
v 24.000000 -24.000000 -7.803474
v 48.000000 -24.000000 -9.964302
v -48.000000 0.000000 6.039788
v -24.000000 0.000000 -0.289314
v 0.000000 0.000000 -1.468513
v 24.000000 0.000000 -1.637336
v 48.000000 0.000000 -3.915169
v -48.000000 24.000000 12.307487
v -24.000000 24.000000 5.963433
v 0.000000 24.000000 4.669793
v 24.000000 24.000000 4.216729
v 48.000000 24.000000 1.810356
v -48.000000 48.000000 19.274956
v -24.000000 48.000000 13.839897
v 0.000000 48.000000 10.869621
v 24.000000 48.000000 9.219963
v 48.000000 48.000000 6.241814
vn 0.1957 -0.2119 0.9575
vn 0.1470 -0.1589 0.9763
vn 0.1523 -0.1867 0.9706
vn 0.2403 -0.2216 0.9451
vn 0.0879 -0.1863 0.9786
vn 0.0495 -0.2227 0.9736
vn 0.0701 -0.2305 0.9705
vn 0.0536 -0.2459 0.9678
vn 0.1034 -0.2343 0.9666
vn 0.0987 -0.2413 0.9654
vn 0.1505 -0.2271 0.9622
vn 0.2741 -0.2348 0.9326
vn 0.0273 -0.2420 0.9699
vn 0.0494 -0.2426 0.9689
vn 0.1080 -0.2368 0.9655
vn 0.1509 -0.2791 0.9483
vn 0.2789 -0.2553 0.9258
vn 0.0353 -0.2488 0.9679
vn 0.0580 -0.2202 0.9737
vn 0.1353 -0.2051 0.9693
vn 0.1645 -0.3013 0.9392
vn 0.2230 -0.2740 0.9355
vn 0.0930 -0.2414 0.9660
vn 0.0943 -0.1842 0.9784
vn 0.1690 -0.1623 0.9722
vt 0.031250 0.031250
vt 0.265625 0.031250
vt 0.265625 0.265625
vt 0.031250 0.265625
vt 0.500000 0.031250
vt 0.500000 0.265625
vt 0.734375 0.031250
vt 0.734375 0.265625
vt 0.968750 0.031250
vt 0.968750 0.265625
vt 0.265625 0.500000
vt 0.031250 0.500000
vt 0.500000 0.500000
vt 0.734375 0.500000
vt 0.968750 0.500000
vt 0.265625 0.734375
vt 0.031250 0.734375
vt 0.500000 0.734375
vt 0.734375 0.734375
vt 0.968750 0.734375
vt 0.265625 0.968750
vt 0.031250 0.968750
vt 0.500000 0.968750
vt 0.734375 0.968750
vt 0.968750 0.968750
s 1
f 1/1/1 2/2/2 7/3/3
f 1/1/1 7/3/3 6/4/4
f 2/2/2 3/5/5 8/6/6
f 2/2/2 8/6/6 7/3/3
f 3/5/5 4/7/7 9/8/8
f 3/5/5 9/8/8 8/6/6
f 4/7/7 5/9/9 10/10/10
f 4/7/7 10/10/10 9/8/8
f 6/4/4 7/3/3 12/11/11
f 6/4/4 12/11/11 11/12/12
f 7/3/3 8/6/6 13/13/13
f 7/3/3 13/13/13 12/11/11
f 8/6/6 9/8/8 14/14/14
f 8/6/6 14/14/14 13/13/13
f 9/8/8 10/10/10 15/15/15
f 9/8/8 15/15/15 14/14/14
f 11/12/12 12/11/11 17/16/16
f 11/12/12 17/16/16 16/17/17
f 12/11/11 13/13/13 18/18/18
f 12/11/11 18/18/18 17/16/16
f 13/13/13 14/14/14 19/19/19
f 13/13/13 19/19/19 18/18/18
f 14/14/14 15/15/15 20/20/20
f 14/14/14 20/20/20 19/19/19
f 16/17/17 17/16/16 22/21/21
f 16/17/17 22/21/21 21/22/22
f 17/16/16 18/18/18 23/23/23
f 17/16/16 23/23/23 22/21/21
f 18/18/18 19/19/19 24/24/24
f 18/18/18 24/24/24 23/23/23
f 19/19/19 20/20/20 25/25/25
f 19/19/19 25/25/25 24/24/24
