mtllib terrain_mid_07_01.mtl
usemtl terrain_mid_07_01
# Blender 5.1.1
# www.blender.org
o terrain_mid_07_01
v -160.000000 -160.000000 41.176105
v -140.000000 -160.000000 39.376240
v -120.000000 -160.000000 37.797611
v -100.000000 -160.000000 36.548698
v -80.000000 -160.000000 36.650429
v -60.000000 -160.000000 36.716198
v -40.000000 -160.000000 35.292439
v -20.000000 -160.000000 32.213505
v 0.000000 -160.000000 28.090744
v 20.000000 -160.000000 23.154871
v 40.000000 -160.000000 18.233465
v 60.000000 -160.000000 14.076272
v 80.000000 -160.000000 10.525525
v 100.000000 -160.000000 7.234604
v 120.000000 -160.000000 4.036070
v 140.000000 -160.000000 0.057378
v 160.000000 -160.000000 -4.884051
v -160.000000 -140.000000 36.756775
v -140.000000 -140.000000 34.445072
v -120.000000 -140.000000 32.068718
v -100.000000 -140.000000 30.851080
v -80.000000 -140.000000 31.667229
v -60.000000 -140.000000 32.529900
v -40.000000 -140.000000 31.510653
v -20.000000 -140.000000 28.730339
v 0.000000 -140.000000 24.767475
v 20.000000 -140.000000 20.053282
v 40.000000 -140.000000 15.519544
v 60.000000 -140.000000 11.451313
v 80.000000 -140.000000 7.933633
v 100.000000 -140.000000 4.994716
v 120.000000 -140.000000 2.791048
v 140.000000 -140.000000 0.359272
v 160.000000 -140.000000 -4.374953
v -160.000000 -120.000000 32.442699
v -140.000000 -120.000000 29.747015
v -120.000000 -120.000000 26.620569
v -100.000000 -120.000000 24.907673
v -80.000000 -120.000000 25.947142
v -60.000000 -120.000000 27.150450
v -40.000000 -120.000000 26.550522
v -20.000000 -120.000000 24.126091
v 0.000000 -120.000000 20.200506
v 20.000000 -120.000000 15.463635
v 40.000000 -120.000000 11.330884
v 60.000000 -120.000000 7.659456
v 80.000000 -120.000000 4.394706
v 100.000000 -120.000000 2.016505
v 120.000000 -120.000000 0.397927
v 140.000000 -120.000000 -1.084162
v 160.000000 -120.000000 -4.062443
v -160.000000 -100.000000 27.905333
v -140.000000 -100.000000 24.713072
v -120.000000 -100.000000 21.317415
v -100.000000 -100.000000 19.119696
v -80.000000 -100.000000 19.873270
v -60.000000 -100.000000 21.163179
v -40.000000 -100.000000 20.900158
v -20.000000 -100.000000 18.803507
v 0.000000 -100.000000 14.937858
v 20.000000 -100.000000 10.154166
v 40.000000 -100.000000 6.307514
v 60.000000 -100.000000 2.890563
v 80.000000 -100.000000 -0.127816
v 100.000000 -100.000000 -1.984939
v 120.000000 -100.000000 -2.863276
v 140.000000 -100.000000 -3.998123
v 160.000000 -100.000000 -6.200710
v -160.000000 -80.000000 22.670639
v -140.000000 -80.000000 18.479254
v -120.000000 -80.000000 15.448763
v -100.000000 -80.000000 13.458949
v -80.000000 -80.000000 14.053872
v -60.000000 -80.000000 15.335468
v -40.000000 -80.000000 15.226866
v -20.000000 -80.000000 13.273090
v 0.000000 -80.000000 9.684393
v 20.000000 -80.000000 5.116216
v 40.000000 -80.000000 1.147446
v 60.000000 -80.000000 -2.509184
v 80.000000 -80.000000 -5.541838
v 100.000000 -80.000000 -6.931174
v 120.000000 -80.000000 -7.259971
v 140.000000 -80.000000 -8.219796
v 160.000000 -80.000000 -9.155904
v -160.000000 -60.000000 17.388596
v -140.000000 -60.000000 12.096231
v -120.000000 -60.000000 9.093518
v -100.000000 -60.000000 7.732231
v -80.000000 -60.000000 8.637897
v -60.000000 -60.000000 10.005356
v -40.000000 -60.000000 9.928221
v -20.000000 -60.000000 7.994872
v 0.000000 -60.000000 4.534924
v 20.000000 -60.000000 0.145642
v 40.000000 -60.000000 -4.070293
v 60.000000 -60.000000 -7.809639
v 80.000000 -60.000000 -10.665637
v 100.000000 -60.000000 -12.151694
v 120.000000 -60.000000 -13.087519
v 140.000000 -60.000000 -14.602757
v 160.000000 -60.000000 -15.007548
v -160.000000 -40.000000 12.068229
v -140.000000 -40.000000 5.967148
v -120.000000 -40.000000 2.289868
v -100.000000 -40.000000 1.867267
v -80.000000 -40.000000 3.656174
v -60.000000 -40.000000 5.157164
v -40.000000 -40.000000 5.001266
v -20.000000 -40.000000 3.040017
v 0.000000 -40.000000 -0.683921
v 20.000000 -40.000000 -5.380718
v 40.000000 -40.000000 -9.996177
v 60.000000 -40.000000 -13.576200
v 80.000000 -40.000000 -15.785463
v 100.000000 -40.000000 -17.603510
v 120.000000 -40.000000 -19.773270
v 140.000000 -40.000000 -21.800667
v 160.000000 -40.000000 -21.824677
v -160.000000 -20.000000 4.441988
v -140.000000 -20.000000 -0.971125
v -120.000000 -20.000000 -4.261992
v -100.000000 -20.000000 -3.676318
v -80.000000 -20.000000 -1.348302
v -60.000000 -20.000000 0.157666
v -40.000000 -20.000000 0.038932
v -20.000000 -20.000000 -1.906774
v 0.000000 -20.000000 -6.372065
v 20.000000 -20.000000 -12.011578
v 40.000000 -20.000000 -17.191971
v 60.000000 -20.000000 -20.253691
v 80.000000 -20.000000 -21.421551
v 100.000000 -20.000000 -22.896688
v 120.000000 -20.000000 -25.912024
v 140.000000 -20.000000 -28.138313
v 160.000000 -20.000000 -25.176725
v -160.000000 0.000000 -3.649110
v -140.000000 0.000000 -7.765152
v -120.000000 0.000000 -10.240141
v -100.000000 0.000000 -9.111431
v -80.000000 0.000000 -7.173952
v -60.000000 0.000000 -6.194181
v -40.000000 0.000000 -6.527094
v -20.000000 0.000000 -8.026999
v 0.000000 0.000000 -11.473770
v 20.000000 0.000000 -17.024273
v 40.000000 0.000000 -21.774931
v 60.000000 0.000000 -23.975580
v 80.000000 0.000000 -24.729263
v 100.000000 0.000000 -26.200766
v 120.000000 0.000000 -28.330954
v 140.000000 0.000000 -29.309137
v 160.000000 0.000000 -27.373747
v -160.000000 20.000000 -10.473166
v -140.000000 20.000000 -12.938682
v -120.000000 20.000000 -14.510507
v -100.000000 20.000000 -13.738771
v -80.000000 20.000000 -12.937230
v -60.000000 20.000000 -13.174013
v -40.000000 20.000000 -13.682001
v -20.000000 20.000000 -14.373950
v 0.000000 20.000000 -15.482525
v 20.000000 20.000000 -19.355091
v 40.000000 20.000000 -22.475737
v 60.000000 20.000000 -23.228537
v 80.000000 20.000000 -23.856548
v 100.000000 20.000000 -25.263552
v 120.000000 20.000000 -25.827557
v 140.000000 20.000000 -24.878881
v 160.000000 20.000000 -23.012890
v -160.000000 40.000000 -10.856942
v -140.000000 40.000000 -12.049637
v -120.000000 40.000000 -13.503765
v -100.000000 40.000000 -14.007102
v -80.000000 40.000000 -14.233874
v -60.000000 40.000000 -14.510961
v -40.000000 40.000000 -15.152148
v -20.000000 40.000000 -16.222589
v 0.000000 40.000000 -17.370642
v 20.000000 40.000000 -19.403973
v 40.000000 40.000000 -19.703114
v 60.000000 40.000000 -18.264791
v 80.000000 40.000000 -17.335226
v 100.000000 40.000000 -17.963659
v 120.000000 40.000000 -17.524618
v 140.000000 40.000000 -16.430714
v 160.000000 40.000000 -16.466072
v -160.000000 60.000000 -7.675539
v -140.000000 60.000000 -7.961793
v -120.000000 60.000000 -9.314726
v -100.000000 60.000000 -10.980639
v -80.000000 60.000000 -11.732919
v -60.000000 60.000000 -11.821996
v -40.000000 60.000000 -12.357647
v -20.000000 60.000000 -13.706789
v 0.000000 60.000000 -15.234811
v 20.000000 60.000000 -16.182205
v 40.000000 60.000000 -14.877470
v 60.000000 60.000000 -12.336535
v 80.000000 60.000000 -10.678000
v 100.000000 60.000000 -10.642023
v 120.000000 60.000000 -9.858095
v 140.000000 60.000000 -9.070999
v 160.000000 60.000000 -11.530974
v -160.000000 80.000000 -1.929709
v -140.000000 80.000000 -1.600391
v -120.000000 80.000000 -2.652874
v -100.000000 80.000000 -4.506878
v -80.000000 80.000000 -5.635880
v -60.000000 80.000000 -5.890111
v -40.000000 80.000000 -6.189183
v -20.000000 80.000000 -7.339310
v 0.000000 80.000000 -9.005888
v 20.000000 80.000000 -9.959447
v 40.000000 80.000000 -9.039349
v 60.000000 80.000000 -7.057836
v 80.000000 80.000000 -5.833545
v 100.000000 80.000000 -5.553184
v 120.000000 80.000000 -4.777020
v 140.000000 80.000000 -4.483231
v 160.000000 80.000000 -7.133117
v -160.000000 100.000000 2.733736
v -140.000000 100.000000 2.772928
v -120.000000 100.000000 1.643818
v -100.000000 100.000000 -0.627728
v -80.000000 100.000000 -2.298321
v -60.000000 100.000000 -2.809545
v -40.000000 100.000000 -3.151925
v -20.000000 100.000000 -4.390593
v 0.000000 100.000000 -5.694283
v 20.000000 100.000000 -6.031116
v 40.000000 100.000000 -4.986669
v 60.000000 100.000000 -3.268217
v 80.000000 100.000000 -2.242928
v 100.000000 100.000000 -1.932164
v 120.000000 100.000000 -1.523737
v 140.000000 100.000000 -2.211258
v 160.000000 100.000000 -6.340028
v -160.000000 120.000000 6.805737
v -140.000000 120.000000 6.230318
v -120.000000 120.000000 4.906621
v -100.000000 120.000000 2.387904
v -80.000000 120.000000 0.364568
v -60.000000 120.000000 -0.533625
v -40.000000 120.000000 -1.210946
v -20.000000 120.000000 -2.653627
v 0.000000 120.000000 -3.468812
v 20.000000 120.000000 -3.085105
v 40.000000 120.000000 -1.738201
v 60.000000 120.000000 -0.083016
v 80.000000 120.000000 1.042452
v 100.000000 120.000000 1.357190
v 120.000000 120.000000 1.045795
v 140.000000 120.000000 -1.364625
v 160.000000 120.000000 -6.748530
v -160.000000 140.000000 10.461635
v -140.000000 140.000000 9.407747
v -120.000000 140.000000 7.982922
v -100.000000 140.000000 5.733031
v -80.000000 140.000000 3.859170
v -60.000000 140.000000 2.448356
v -40.000000 140.000000 0.830680
v -20.000000 140.000000 -0.744658
v 0.000000 140.000000 -1.138958
v 20.000000 140.000000 -0.091025
v 40.000000 140.000000 1.384201
v 60.000000 140.000000 2.935030
v 80.000000 140.000000 4.292811
v 100.000000 140.000000 4.442070
v 120.000000 140.000000 2.906913
v 140.000000 140.000000 -1.462838
v 160.000000 140.000000 -7.546975
v -160.000000 160.000000 13.346753
v -140.000000 160.000000 12.109157
v -120.000000 160.000000 10.767997
v -100.000000 160.000000 8.976133
v -80.000000 160.000000 7.361293
v -60.000000 160.000000 5.614724
v -40.000000 160.000000 3.614290
v -20.000000 160.000000 3.016092
v 0.000000 160.000000 3.158398
v 20.000000 160.000000 4.182548
v 40.000000 160.000000 5.236008
v 60.000000 160.000000 6.206664
v 80.000000 160.000000 7.104870
v 100.000000 160.000000 6.444328
v 120.000000 160.000000 3.334987
v 140.000000 160.000000 -2.187691
v 160.000000 160.000000 -8.475401
vn 0.1054 0.2282 0.9679
vn 0.0815 0.2490 0.9651
vn 0.1132 0.2325 0.9660
vn 0.1282 0.2115 0.9689
vn 0.0679 0.2671 0.9613
vn 0.0862 0.2681 0.9595
vn 0.0277 0.2538 0.9669
vn 0.0096 0.2794 0.9601
vn -0.0041 0.2130 0.9770
vn -0.0405 0.2583 0.9652
vn 0.0334 0.1749 0.9840
vn 0.0038 0.2326 0.9726
vn 0.1105 0.1533 0.9820
vn 0.0926 0.2126 0.9727
vn 0.1753 0.1455 0.9737
vn 0.1631 0.1955 0.9670
vn 0.2185 0.1457 0.9649
vn 0.2082 0.1893 0.9596
vn 0.2366 0.1472 0.9604
vn 0.2214 0.1841 0.9577
vn 0.2193 0.1367 0.9660
vn 0.2073 0.1662 0.9641
vn 0.1876 0.1300 0.9736
vn 0.1840 0.1557 0.9705
vn 0.1673 0.1222 0.9783
vn 0.1576 0.1496 0.9761
vn 0.1594 0.0971 0.9824
vn 0.1265 0.1283 0.9836
vn 0.1764 0.0442 0.9833
vn 0.1149 0.0902 0.9893
vn 0.2213 -0.0253 0.9749
vn 0.1462 0.0282 0.9889
vn 0.2561 -0.0883 0.9626
vn 0.2170 -0.0428 0.9752
vn 0.1400 0.2340 0.9621
vn 0.1454 0.2138 0.9660
vn 0.1160 0.2578 0.9592
vn 0.0161 0.2814 0.9595
vn -0.0537 0.2824 0.9578
vn -0.0144 0.2732 0.9618
vn 0.0730 0.2558 0.9640
vn 0.1523 0.2381 0.9592
vn 0.2058 0.2335 0.9503
vn 0.2104 0.2348 0.9490
vn 0.1868 0.2205 0.9573
vn 0.1672 0.2063 0.9641
vn 0.1370 0.1957 0.9711
vn 0.0979 0.1710 0.9804
vn 0.0766 0.1396 0.9872
vn 0.0912 0.1078 0.9900
vn 0.1592 0.0454 0.9862
vn 0.1565 0.2678 0.9507
vn 0.1675 0.2340 0.9577
vn 0.1334 0.2666 0.9545
vn 0.0347 0.2750 0.9608
vn -0.0489 0.2847 0.9574
vn -0.0246 0.2832 0.9588
vn 0.0566 0.2719 0.9607
vn 0.1425 0.2595 0.9552
vn 0.2047 0.2489 0.9466
vn 0.2046 0.2453 0.9476
vn 0.1733 0.2430 0.9544
vn 0.1541 0.2435 0.9576
vn 0.1174 0.2394 0.9638
vn 0.0664 0.2176 0.9738
vn 0.0494 0.1878 0.9810
vn 0.0517 0.1754 0.9831
vn 0.0887 0.1232 0.9884
vn 0.1697 0.2964 0.9399
vn 0.2081 0.2487 0.9460
vn 0.1192 0.2902 0.9495
vn 0.0335 0.2736 0.9613
vn -0.0452 0.2701 0.9618
vn -0.0284 0.2684 0.9629
vn 0.0497 0.2643 0.9632
vn 0.1327 0.2584 0.9569
vn 0.1937 0.2470 0.9495
vn 0.2027 0.2377 0.9499
vn 0.1812 0.2468 0.9520
vn 0.1595 0.2551 0.9537
vn 0.1063 0.2534 0.9615
vn 0.0417 0.2461 0.9684
vn 0.0312 0.2475 0.9684
vn 0.0244 0.2562 0.9663
vn 0.0144 0.2259 0.9740
vn 0.1941 0.2928 0.9362
vn 0.2426 0.2486 0.9377
vn 0.1031 0.3108 0.9449
vn 0.0109 0.2783 0.9604
vn -0.0549 0.2512 0.9664
vn -0.0312 0.2465 0.9686
vn 0.0489 0.2478 0.9676
vn 0.1295 0.2458 0.9606
vn 0.1866 0.2465 0.9510
vn 0.2038 0.2485 0.9469
vn 0.1881 0.2636 0.9461
vn 0.1569 0.2633 0.9519
vn 0.1046 0.2468 0.9634
vn 0.0585 0.2573 0.9646
vn 0.0583 0.2980 0.9528
vn 0.0273 0.3214 0.9466
vn -0.0117 0.3169 0.9484
vn 0.2263 0.3025 0.9259
vn 0.2416 0.2988 0.9232
vn 0.0968 0.3152 0.9441
vn -0.0328 0.2741 0.9611
vn -0.0795 0.2415 0.9671
vn -0.0326 0.2389 0.9705
vn 0.0512 0.2396 0.9695
vn 0.1367 0.2380 0.9616
vn 0.1990 0.2578 0.9455
vn 0.2175 0.2839 0.9339
vn 0.1911 0.3059 0.9327
vn 0.1369 0.2943 0.9459
vn 0.0968 0.2585 0.9612
vn 0.0958 0.2582 0.9613
vn 0.0994 0.3038 0.9475
vn 0.0441 0.3202 0.9463
vn -0.0009 0.3364 0.9417
vn 0.2016 0.3180 0.9264
vn 0.2036 0.3580 0.9112
vn 0.0644 0.2983 0.9523
vn -0.0701 0.2640 0.9620
vn -0.0921 0.2603 0.9611
vn -0.0333 0.2729 0.9615
vn 0.0495 0.2766 0.9597
vn 0.1527 0.2635 0.9525
vn 0.2370 0.2530 0.9380
vn 0.2514 0.2705 0.9293
vn 0.1939 0.2771 0.9411
vn 0.1018 0.2503 0.9628
vn 0.0644 0.2178 0.9739
vn 0.1091 0.2089 0.9718
vn 0.1271 0.2075 0.9699
vn 0.0643 0.1841 0.9808
vn 0.0335 0.1868 0.9818
vn 0.1559 0.2831 0.9463
vn 0.1554 0.3451 0.9256
vn 0.0326 0.2481 0.9682
vn -0.0741 0.2433 0.9671
vn -0.0699 0.2776 0.9581
vn -0.0154 0.3161 0.9486
vn 0.0433 0.3241 0.9450
vn 0.1172 0.2955 0.9481
vn 0.2142 0.2169 0.9524
vn 0.2455 0.1750 0.9535
vn 0.1698 0.1291 0.9770
vn 0.0735 0.0740 0.9945
vn 0.0555 0.0607 0.9966
vn 0.0895 0.0588 0.9942
vn 0.0775 -0.0021 0.9970
vn 0.0228 -0.0812 0.9964
vn 0.0197 -0.1052 0.9943
vn 0.0999 0.1060 0.9893
vn 0.1046 0.1764 0.9788
vn 0.0199 0.0813 0.9965
vn -0.0390 0.1214 0.9918
vn -0.0139 0.1738 0.9847
vn 0.0182 0.2035 0.9789
vn 0.0293 0.2107 0.9771
vn 0.0441 0.2005 0.9787
vn 0.1223 0.1447 0.9819
vn 0.1719 0.0585 0.9834
vn 0.0962 -0.0515 0.9940
vn 0.0341 -0.1412 0.9894
vn 0.0500 -0.1815 0.9821
vn 0.0482 -0.2015 0.9783
vn -0.0093 -0.2608 0.9653
vn -0.0363 -0.3063 0.9513
vn -0.0023 -0.3096 0.9509
vn 0.0655 -0.1232 0.9902
vn 0.0549 -0.0697 0.9961
vn 0.0485 -0.1286 0.9905
vn 0.0182 -0.0688 0.9975
vn 0.0126 -0.0301 0.9995
vn 0.0228 -0.0339 0.9992
vn 0.0427 -0.0331 0.9985
vn 0.0554 -0.0164 0.9983
vn 0.0793 -0.0062 0.9968
vn 0.0580 -0.0789 0.9952
vn -0.0280 -0.1865 0.9820
vn -0.0571 -0.2623 0.9633
vn -0.0071 -0.3129 0.9497
vn 0.0044 -0.3433 0.9392
vn -0.0356 -0.3705 0.9281
vn -0.0302 -0.3673 0.9296
vn 0.0244 -0.3469 0.9376
vn 0.0396 -0.2525 0.9668
vn 0.0152 -0.2178 0.9759
vn 0.0726 -0.2611 0.9626
vn 0.0587 -0.2307 0.9713
vn 0.0205 -0.2101 0.9775
vn 0.0153 -0.2107 0.9774
vn 0.0459 -0.2184 0.9748
vn 0.0700 -0.2162 0.9738
vn 0.0605 -0.2043 0.9770
vn -0.0087 -0.2298 0.9732
vn -0.0925 -0.2565 0.9621
vn -0.1005 -0.2685 0.9580
vn -0.0407 -0.2761 0.9603
vn -0.0196 -0.2962 0.9549
vn -0.0374 -0.3034 0.9521
vn -0.0086 -0.2862 0.9581
vn 0.0732 -0.2516 0.9650
vn 0.0174 -0.2592 0.9657
vn -0.0058 -0.2518 0.9678
vn 0.0699 -0.2636 0.9621
vn 0.0720 -0.2499 0.9656
vn 0.0335 -0.2294 0.9728
vn 0.0135 -0.2198 0.9755
vn 0.0353 -0.2241 0.9739
vn 0.0683 -0.2262 0.9717
vn 0.0636 -0.2315 0.9707
vn 0.0008 -0.2460 0.9693
vn -0.0703 -0.2395 0.9684
vn -0.0780 -0.2204 0.9723
vn -0.0368 -0.2062 0.9778
vn -0.0258 -0.2127 0.9768
vn -0.0262 -0.2039 0.9786
vn 0.0250 -0.1690 0.9853
vn 0.1402 -0.1075 0.9843
vn 0.0266 -0.1921 0.9810
vn 0.0059 -0.2133 0.9770
vn 0.0833 -0.1850 0.9792
vn 0.0967 -0.1690 0.9809
vn 0.0538 -0.1482 0.9875
vn 0.0212 -0.1327 0.9909
vn 0.0392 -0.1234 0.9916
vn 0.0630 -0.1161 0.9912
vn 0.0406 -0.1370 0.9897
vn -0.0174 -0.1693 0.9854
vn -0.0677 -0.1791 0.9815
vn -0.0674 -0.1714 0.9829
vn -0.0329 -0.1694 0.9850
vn -0.0177 -0.1702 0.9853
vn 0.0070 -0.1441 0.9895
vn 0.0895 -0.0774 0.9930
vn 0.2189 0.0090 0.9757
vn 0.0468 -0.1635 0.9854
vn 0.0303 -0.1896 0.9814
vn 0.0944 -0.1558 0.9833
vn 0.1114 -0.1561 0.9814
vn 0.0721 -0.1517 0.9858
vn 0.0390 -0.1302 0.9907
vn 0.0527 -0.0989 0.9937
vn 0.0561 -0.0906 0.9943
vn 0.0107 -0.1131 0.9935
vn -0.0427 -0.1468 0.9882
vn -0.0739 -0.1568 0.9849
vn -0.0686 -0.1529 0.9859
vn -0.0355 -0.1611 0.9863
vn -0.0000 -0.1574 0.9875
vn 0.0675 -0.1099 0.9917
vn 0.1773 -0.0184 0.9840
vn 0.2849 0.0645 0.9564
vn 0.0612 -0.1451 0.9875
vn 0.0533 -0.1611 0.9855
vn 0.0905 -0.1444 0.9854
vn 0.1013 -0.1616 0.9816
vn 0.0806 -0.1717 0.9818
vn 0.0746 -0.1515 0.9856
vn 0.0790 -0.1194 0.9897
vn 0.0487 -0.1402 0.9889
vn -0.0161 -0.1634 0.9864
vn -0.0620 -0.1783 0.9820
vn -0.0743 -0.1713 0.9824
vn -0.0716 -0.1549 0.9853
vn -0.0372 -0.1498 0.9880
vn 0.0344 -0.1261 0.9914
vn 0.1458 -0.0565 0.9877
vn 0.2592 0.0199 0.9656
vn 0.3234 0.0600 0.9443
vn 0.0638 -0.1278 0.9897
vn 0.0647 -0.1326 0.9891
vn 0.0774 -0.1331 0.9881
vn 0.0839 -0.1545 0.9844
vn 0.0826 -0.1655 0.9827
vn 0.0922 -0.1549 0.9836
vn 0.0641 -0.1505 0.9865
vn 0.0112 -0.2034 0.9790
vn -0.0284 -0.2290 0.9730
vn -0.0506 -0.2209 0.9740
vn -0.0496 -0.1978 0.9790
vn -0.0460 -0.1674 0.9848
vn -0.0059 -0.1392 0.9902
vn 0.0934 -0.0967 0.9909
vn 0.2108 -0.0367 0.9768
vn 0.2882 0.0044 0.9576
vn 0.3220 0.0152 0.9466
vt 0.015625 0.015625
vt 0.076172 0.015625
vt 0.076172 0.076172
vt 0.015625 0.076172
vt 0.136719 0.015625
vt 0.136719 0.076172
vt 0.197266 0.015625
vt 0.197266 0.076172
vt 0.257812 0.015625
vt 0.257812 0.076172
vt 0.318359 0.015625
vt 0.318359 0.076172
vt 0.378906 0.015625
vt 0.378906 0.076172
vt 0.439453 0.015625
vt 0.439453 0.076172
vt 0.500000 0.015625
vt 0.500000 0.076172
vt 0.560547 0.015625
vt 0.560547 0.076172
vt 0.621094 0.015625
vt 0.621094 0.076172
vt 0.681641 0.015625
vt 0.681641 0.076172
vt 0.742188 0.015625
vt 0.742188 0.076172
vt 0.802734 0.015625
vt 0.802734 0.076172
vt 0.863281 0.015625
vt 0.863281 0.076172
vt 0.923828 0.015625
vt 0.923828 0.076172
vt 0.984375 0.015625
vt 0.984375 0.076172
vt 0.076172 0.136719
vt 0.015625 0.136719
vt 0.136719 0.136719
vt 0.197266 0.136719
vt 0.257812 0.136719
vt 0.318359 0.136719
vt 0.378906 0.136719
vt 0.439453 0.136719
vt 0.500000 0.136719
vt 0.560547 0.136719
vt 0.621094 0.136719
vt 0.681641 0.136719
vt 0.742188 0.136719
vt 0.802734 0.136719
vt 0.863281 0.136719
vt 0.923828 0.136719
vt 0.984375 0.136719
vt 0.076172 0.197266
vt 0.015625 0.197266
vt 0.136719 0.197266
vt 0.197266 0.197266
vt 0.257812 0.197266
vt 0.318359 0.197266
vt 0.378906 0.197266
vt 0.439453 0.197266
vt 0.500000 0.197266
vt 0.560547 0.197266
vt 0.621094 0.197266
vt 0.681641 0.197266
vt 0.742188 0.197266
vt 0.802734 0.197266
vt 0.863281 0.197266
vt 0.923828 0.197266
vt 0.984375 0.197266
vt 0.076172 0.257812
vt 0.015625 0.257812
vt 0.136719 0.257812
vt 0.197266 0.257812
vt 0.257812 0.257812
vt 0.318359 0.257812
vt 0.378906 0.257812
vt 0.439453 0.257812
vt 0.500000 0.257812
vt 0.560547 0.257812
vt 0.621094 0.257812
vt 0.681641 0.257812
vt 0.742188 0.257812
vt 0.802734 0.257812
vt 0.863281 0.257812
vt 0.923828 0.257812
vt 0.984375 0.257812
vt 0.076172 0.318359
vt 0.015625 0.318359
vt 0.136719 0.318359
vt 0.197266 0.318359
vt 0.257812 0.318359
vt 0.318359 0.318359
vt 0.378906 0.318359
vt 0.439453 0.318359
vt 0.500000 0.318359
vt 0.560547 0.318359
vt 0.621094 0.318359
vt 0.681641 0.318359
vt 0.742188 0.318359
vt 0.802734 0.318359
vt 0.863281 0.318359
vt 0.923828 0.318359
vt 0.984375 0.318359
vt 0.076172 0.378906
vt 0.015625 0.378906
vt 0.136719 0.378906
vt 0.197266 0.378906
vt 0.257812 0.378906
vt 0.318359 0.378906
vt 0.378906 0.378906
vt 0.439453 0.378906
vt 0.500000 0.378906
vt 0.560547 0.378906
vt 0.621094 0.378906
vt 0.681641 0.378906
vt 0.742188 0.378906
vt 0.802734 0.378906
vt 0.863281 0.378906
vt 0.923828 0.378906
vt 0.984375 0.378906
vt 0.076172 0.439453
vt 0.015625 0.439453
vt 0.136719 0.439453
vt 0.197266 0.439453
vt 0.257812 0.439453
vt 0.318359 0.439453
vt 0.378906 0.439453
vt 0.439453 0.439453
vt 0.500000 0.439453
vt 0.560547 0.439453
vt 0.621094 0.439453
vt 0.681641 0.439453
vt 0.742188 0.439453
vt 0.802734 0.439453
vt 0.863281 0.439453
vt 0.923828 0.439453
vt 0.984375 0.439453
vt 0.076172 0.500000
vt 0.015625 0.500000
vt 0.136719 0.500000
vt 0.197266 0.500000
vt 0.257812 0.500000
vt 0.318359 0.500000
vt 0.378906 0.500000
vt 0.439453 0.500000
vt 0.500000 0.500000
vt 0.560547 0.500000
vt 0.621094 0.500000
vt 0.681641 0.500000
vt 0.742188 0.500000
vt 0.802734 0.500000
vt 0.863281 0.500000
vt 0.923828 0.500000
vt 0.984375 0.500000
vt 0.076172 0.560547
vt 0.015625 0.560547
vt 0.136719 0.560547
vt 0.197266 0.560547
vt 0.257812 0.560547
vt 0.318359 0.560547
vt 0.378906 0.560547
vt 0.439453 0.560547
vt 0.500000 0.560547
vt 0.560547 0.560547
vt 0.621094 0.560547
vt 0.681641 0.560547
vt 0.742188 0.560547
vt 0.802734 0.560547
vt 0.863281 0.560547
vt 0.923828 0.560547
vt 0.984375 0.560547
vt 0.076172 0.621094
vt 0.015625 0.621094
vt 0.136719 0.621094
vt 0.197266 0.621094
vt 0.257812 0.621094
vt 0.318359 0.621094
vt 0.378906 0.621094
vt 0.439453 0.621094
vt 0.500000 0.621094
vt 0.560547 0.621094
vt 0.621094 0.621094
vt 0.681641 0.621094
vt 0.742188 0.621094
vt 0.802734 0.621094
vt 0.863281 0.621094
vt 0.923828 0.621094
vt 0.984375 0.621094
vt 0.076172 0.681641
vt 0.015625 0.681641
vt 0.136719 0.681641
vt 0.197266 0.681641
vt 0.257812 0.681641
vt 0.318359 0.681641
vt 0.378906 0.681641
vt 0.439453 0.681641
vt 0.500000 0.681641
vt 0.560547 0.681641
vt 0.621094 0.681641
vt 0.681641 0.681641
vt 0.742188 0.681641
vt 0.802734 0.681641
vt 0.863281 0.681641
vt 0.923828 0.681641
vt 0.984375 0.681641
vt 0.076172 0.742188
vt 0.015625 0.742188
vt 0.136719 0.742188
vt 0.197266 0.742188
vt 0.257812 0.742188
vt 0.318359 0.742188
vt 0.378906 0.742188
vt 0.439453 0.742188
vt 0.500000 0.742188
vt 0.560547 0.742188
vt 0.621094 0.742188
vt 0.681641 0.742188
vt 0.742188 0.742188
vt 0.802734 0.742188
vt 0.863281 0.742188
vt 0.923828 0.742188
vt 0.984375 0.742188
vt 0.076172 0.802734
vt 0.015625 0.802734
vt 0.136719 0.802734
vt 0.197266 0.802734
vt 0.257812 0.802734
vt 0.318359 0.802734
vt 0.378906 0.802734
vt 0.439453 0.802734
vt 0.500000 0.802734
vt 0.560547 0.802734
vt 0.621094 0.802734
vt 0.681641 0.802734
vt 0.742188 0.802734
vt 0.802734 0.802734
vt 0.863281 0.802734
vt 0.923828 0.802734
vt 0.984375 0.802734
vt 0.076172 0.863281
vt 0.015625 0.863281
vt 0.136719 0.863281
vt 0.197266 0.863281
vt 0.257812 0.863281
vt 0.318359 0.863281
vt 0.378906 0.863281
vt 0.439453 0.863281
vt 0.500000 0.863281
vt 0.560547 0.863281
vt 0.621094 0.863281
vt 0.681641 0.863281
vt 0.742188 0.863281
vt 0.802734 0.863281
vt 0.863281 0.863281
vt 0.923828 0.863281
vt 0.984375 0.863281
vt 0.076172 0.923828
vt 0.015625 0.923828
vt 0.136719 0.923828
vt 0.197266 0.923828
vt 0.257812 0.923828
vt 0.318359 0.923828
vt 0.378906 0.923828
vt 0.439453 0.923828
vt 0.500000 0.923828
vt 0.560547 0.923828
vt 0.621094 0.923828
vt 0.681641 0.923828
vt 0.742188 0.923828
vt 0.802734 0.923828
vt 0.863281 0.923828
vt 0.923828 0.923828
vt 0.984375 0.923828
vt 0.076172 0.984375
vt 0.015625 0.984375
vt 0.136719 0.984375
vt 0.197266 0.984375
vt 0.257812 0.984375
vt 0.318359 0.984375
vt 0.378906 0.984375
vt 0.439453 0.984375
vt 0.500000 0.984375
vt 0.560547 0.984375
vt 0.621094 0.984375
vt 0.681641 0.984375
vt 0.742188 0.984375
vt 0.802734 0.984375
vt 0.863281 0.984375
vt 0.923828 0.984375
vt 0.984375 0.984375
s 1
f 1/1/1 2/2/2 19/3/3
f 1/1/1 19/3/3 18/4/4
f 2/2/2 3/5/5 20/6/6
f 2/2/2 20/6/6 19/3/3
f 3/5/5 4/7/7 21/8/8
f 3/5/5 21/8/8 20/6/6
f 4/7/7 5/9/9 22/10/10
f 4/7/7 22/10/10 21/8/8
f 5/9/9 6/11/11 23/12/12
f 5/9/9 23/12/12 22/10/10
f 6/11/11 7/13/13 24/14/14
f 6/11/11 24/14/14 23/12/12
f 7/13/13 8/15/15 25/16/16
f 7/13/13 25/16/16 24/14/14
f 8/15/15 9/17/17 26/18/18
f 8/15/15 26/18/18 25/16/16
f 9/17/17 10/19/19 27/20/20
f 9/17/17 27/20/20 26/18/18
f 10/19/19 11/21/21 28/22/22
f 10/19/19 28/22/22 27/20/20
f 11/21/21 12/23/23 29/24/24
f 11/21/21 29/24/24 28/22/22
f 12/23/23 13/25/25 30/26/26
f 12/23/23 30/26/26 29/24/24
f 13/25/25 14/27/27 31/28/28
f 13/25/25 31/28/28 30/26/26
f 14/27/27 15/29/29 32/30/30
f 14/27/27 32/30/30 31/28/28
f 15/29/29 16/31/31 33/32/32
f 15/29/29 33/32/32 32/30/30
f 16/31/31 17/33/33 34/34/34
f 16/31/31 34/34/34 33/32/32
f 18/4/4 19/3/3 36/35/35
f 18/4/4 36/35/35 35/36/36
f 19/3/3 20/6/6 37/37/37
f 19/3/3 37/37/37 36/35/35
f 20/6/6 21/8/8 38/38/38
f 20/6/6 38/38/38 37/37/37
f 21/8/8 22/10/10 39/39/39
f 21/8/8 39/39/39 38/38/38
f 22/10/10 23/12/12 40/40/40
f 22/10/10 40/40/40 39/39/39
f 23/12/12 24/14/14 41/41/41
f 23/12/12 41/41/41 40/40/40
f 24/14/14 25/16/16 42/42/42
f 24/14/14 42/42/42 41/41/41
f 25/16/16 26/18/18 43/43/43
f 25/16/16 43/43/43 42/42/42
f 26/18/18 27/20/20 44/44/44
f 26/18/18 44/44/44 43/43/43
f 27/20/20 28/22/22 45/45/45
f 27/20/20 45/45/45 44/44/44
f 28/22/22 29/24/24 46/46/46
f 28/22/22 46/46/46 45/45/45
f 29/24/24 30/26/26 47/47/47
f 29/24/24 47/47/47 46/46/46
f 30/26/26 31/28/28 48/48/48
f 30/26/26 48/48/48 47/47/47
f 31/28/28 32/30/30 49/49/49
f 31/28/28 49/49/49 48/48/48
f 32/30/30 33/32/32 50/50/50
f 32/30/30 50/50/50 49/49/49
f 33/32/32 34/34/34 51/51/51
f 33/32/32 51/51/51 50/50/50
f 35/36/36 36/35/35 53/52/52
f 35/36/36 53/52/52 52/53/53
f 36/35/35 37/37/37 54/54/54
f 36/35/35 54/54/54 53/52/52
f 37/37/37 38/38/38 55/55/55
f 37/37/37 55/55/55 54/54/54
f 38/38/38 39/39/39 56/56/56
f 38/38/38 56/56/56 55/55/55
f 39/39/39 40/40/40 57/57/57
f 39/39/39 57/57/57 56/56/56
f 40/40/40 41/41/41 58/58/58
f 40/40/40 58/58/58 57/57/57
f 41/41/41 42/42/42 59/59/59
f 41/41/41 59/59/59 58/58/58
f 42/42/42 43/43/43 60/60/60
f 42/42/42 60/60/60 59/59/59
f 43/43/43 44/44/44 61/61/61
f 43/43/43 61/61/61 60/60/60
f 44/44/44 45/45/45 62/62/62
f 44/44/44 62/62/62 61/61/61
f 45/45/45 46/46/46 63/63/63
f 45/45/45 63/63/63 62/62/62
f 46/46/46 47/47/47 64/64/64
f 46/46/46 64/64/64 63/63/63
f 47/47/47 48/48/48 65/65/65
f 47/47/47 65/65/65 64/64/64
f 48/48/48 49/49/49 66/66/66
f 48/48/48 66/66/66 65/65/65
f 49/49/49 50/50/50 67/67/67
f 49/49/49 67/67/67 66/66/66
f 50/50/50 51/51/51 68/68/68
f 50/50/50 68/68/68 67/67/67
f 52/53/53 53/52/52 70/69/69
f 52/53/53 70/69/69 69/70/70
f 53/52/52 54/54/54 71/71/71
f 53/52/52 71/71/71 70/69/69
f 54/54/54 55/55/55 72/72/72
f 54/54/54 72/72/72 71/71/71
f 55/55/55 56/56/56 73/73/73
f 55/55/55 73/73/73 72/72/72
f 56/56/56 57/57/57 74/74/74
f 56/56/56 74/74/74 73/73/73
f 57/57/57 58/58/58 75/75/75
f 57/57/57 75/75/75 74/74/74
f 58/58/58 59/59/59 76/76/76
f 58/58/58 76/76/76 75/75/75
f 59/59/59 60/60/60 77/77/77
f 59/59/59 77/77/77 76/76/76
f 60/60/60 61/61/61 78/78/78
f 60/60/60 78/78/78 77/77/77
f 61/61/61 62/62/62 79/79/79
f 61/61/61 79/79/79 78/78/78
f 62/62/62 63/63/63 80/80/80
f 62/62/62 80/80/80 79/79/79
f 63/63/63 64/64/64 81/81/81
f 63/63/63 81/81/81 80/80/80
f 64/64/64 65/65/65 82/82/82
f 64/64/64 82/82/82 81/81/81
f 65/65/65 66/66/66 83/83/83
f 65/65/65 83/83/83 82/82/82
f 66/66/66 67/67/67 84/84/84
f 66/66/66 84/84/84 83/83/83
f 67/67/67 68/68/68 85/85/85
f 67/67/67 85/85/85 84/84/84
f 69/70/70 70/69/69 87/86/86
f 69/70/70 87/86/86 86/87/87
f 70/69/69 71/71/71 88/88/88
f 70/69/69 88/88/88 87/86/86
f 71/71/71 72/72/72 89/89/89
f 71/71/71 89/89/89 88/88/88
f 72/72/72 73/73/73 90/90/90
f 72/72/72 90/90/90 89/89/89
f 73/73/73 74/74/74 91/91/91
f 73/73/73 91/91/91 90/90/90
f 74/74/74 75/75/75 92/92/92
f 74/74/74 92/92/92 91/91/91
f 75/75/75 76/76/76 93/93/93
f 75/75/75 93/93/93 92/92/92
f 76/76/76 77/77/77 94/94/94
f 76/76/76 94/94/94 93/93/93
f 77/77/77 78/78/78 95/95/95
f 77/77/77 95/95/95 94/94/94
f 78/78/78 79/79/79 96/96/96
f 78/78/78 96/96/96 95/95/95
f 79/79/79 80/80/80 97/97/97
f 79/79/79 97/97/97 96/96/96
f 80/80/80 81/81/81 98/98/98
f 80/80/80 98/98/98 97/97/97
f 81/81/81 82/82/82 99/99/99
f 81/81/81 99/99/99 98/98/98
f 82/82/82 83/83/83 100/100/100
f 82/82/82 100/100/100 99/99/99
f 83/83/83 84/84/84 101/101/101
f 83/83/83 101/101/101 100/100/100
f 84/84/84 85/85/85 102/102/102
f 84/84/84 102/102/102 101/101/101
f 86/87/87 87/86/86 104/103/103
f 86/87/87 104/103/103 103/104/104
f 87/86/86 88/88/88 105/105/105
f 87/86/86 105/105/105 104/103/103
f 88/88/88 89/89/89 106/106/106
f 88/88/88 106/106/106 105/105/105
f 89/89/89 90/90/90 107/107/107
f 89/89/89 107/107/107 106/106/106
f 90/90/90 91/91/91 108/108/108
f 90/90/90 108/108/108 107/107/107
f 91/91/91 92/92/92 109/109/109
f 91/91/91 109/109/109 108/108/108
f 92/92/92 93/93/93 110/110/110
f 92/92/92 110/110/110 109/109/109
f 93/93/93 94/94/94 111/111/111
f 93/93/93 111/111/111 110/110/110
f 94/94/94 95/95/95 112/112/112
f 94/94/94 112/112/112 111/111/111
f 95/95/95 96/96/96 113/113/113
f 95/95/95 113/113/113 112/112/112
f 96/96/96 97/97/97 114/114/114
f 96/96/96 114/114/114 113/113/113
f 97/97/97 98/98/98 115/115/115
f 97/97/97 115/115/115 114/114/114
f 98/98/98 99/99/99 116/116/116
f 98/98/98 116/116/116 115/115/115
f 99/99/99 100/100/100 117/117/117
f 99/99/99 117/117/117 116/116/116
f 100/100/100 101/101/101 118/118/118
f 100/100/100 118/118/118 117/117/117
f 101/101/101 102/102/102 119/119/119
f 101/101/101 119/119/119 118/118/118
f 103/104/104 104/103/103 121/120/120
f 103/104/104 121/120/120 120/121/121
f 104/103/103 105/105/105 122/122/122
f 104/103/103 122/122/122 121/120/120
f 105/105/105 106/106/106 123/123/123
f 105/105/105 123/123/123 122/122/122
f 106/106/106 107/107/107 124/124/124
f 106/106/106 124/124/124 123/123/123
f 107/107/107 108/108/108 125/125/125
f 107/107/107 125/125/125 124/124/124
f 108/108/108 109/109/109 126/126/126
f 108/108/108 126/126/126 125/125/125
f 109/109/109 110/110/110 127/127/127
f 109/109/109 127/127/127 126/126/126
f 110/110/110 111/111/111 128/128/128
f 110/110/110 128/128/128 127/127/127
f 111/111/111 112/112/112 129/129/129
f 111/111/111 129/129/129 128/128/128
f 112/112/112 113/113/113 130/130/130
f 112/112/112 130/130/130 129/129/129
f 113/113/113 114/114/114 131/131/131
f 113/113/113 131/131/131 130/130/130
f 114/114/114 115/115/115 132/132/132
f 114/114/114 132/132/132 131/131/131
f 115/115/115 116/116/116 133/133/133
f 115/115/115 133/133/133 132/132/132
f 116/116/116 117/117/117 134/134/134
f 116/116/116 134/134/134 133/133/133
f 117/117/117 118/118/118 135/135/135
f 117/117/117 135/135/135 134/134/134
f 118/118/118 119/119/119 136/136/136
f 118/118/118 136/136/136 135/135/135
f 120/121/121 121/120/120 138/137/137
f 120/121/121 138/137/137 137/138/138
f 121/120/120 122/122/122 139/139/139
f 121/120/120 139/139/139 138/137/137
f 122/122/122 123/123/123 140/140/140
f 122/122/122 140/140/140 139/139/139
f 123/123/123 124/124/124 141/141/141
f 123/123/123 141/141/141 140/140/140
f 124/124/124 125/125/125 142/142/142
f 124/124/124 142/142/142 141/141/141
f 125/125/125 126/126/126 143/143/143
f 125/125/125 143/143/143 142/142/142
f 126/126/126 127/127/127 144/144/144
f 126/126/126 144/144/144 143/143/143
f 127/127/127 128/128/128 145/145/145
f 127/127/127 145/145/145 144/144/144
f 128/128/128 129/129/129 146/146/146
f 128/128/128 146/146/146 145/145/145
f 129/129/129 130/130/130 147/147/147
f 129/129/129 147/147/147 146/146/146
f 130/130/130 131/131/131 148/148/148
f 130/130/130 148/148/148 147/147/147
f 131/131/131 132/132/132 149/149/149
f 131/131/131 149/149/149 148/148/148
f 132/132/132 133/133/133 150/150/150
f 132/132/132 150/150/150 149/149/149
f 133/133/133 134/134/134 151/151/151
f 133/133/133 151/151/151 150/150/150
f 134/134/134 135/135/135 152/152/152
f 134/134/134 152/152/152 151/151/151
f 135/135/135 136/136/136 153/153/153
f 135/135/135 153/153/153 152/152/152
f 137/138/138 138/137/137 155/154/154
f 137/138/138 155/154/154 154/155/155
f 138/137/137 139/139/139 156/156/156
f 138/137/137 156/156/156 155/154/154
f 139/139/139 140/140/140 157/157/157
f 139/139/139 157/157/157 156/156/156
f 140/140/140 141/141/141 158/158/158
f 140/140/140 158/158/158 157/157/157
f 141/141/141 142/142/142 159/159/159
f 141/141/141 159/159/159 158/158/158
f 142/142/142 143/143/143 160/160/160
f 142/142/142 160/160/160 159/159/159
f 143/143/143 144/144/144 161/161/161
f 143/143/143 161/161/161 160/160/160
f 144/144/144 145/145/145 162/162/162
f 144/144/144 162/162/162 161/161/161
f 145/145/145 146/146/146 163/163/163
f 145/145/145 163/163/163 162/162/162
f 146/146/146 147/147/147 164/164/164
f 146/146/146 164/164/164 163/163/163
f 147/147/147 148/148/148 165/165/165
f 147/147/147 165/165/165 164/164/164
f 148/148/148 149/149/149 166/166/166
f 148/148/148 166/166/166 165/165/165
f 149/149/149 150/150/150 167/167/167
f 149/149/149 167/167/167 166/166/166
f 150/150/150 151/151/151 168/168/168
f 150/150/150 168/168/168 167/167/167
f 151/151/151 152/152/152 169/169/169
f 151/151/151 169/169/169 168/168/168
f 152/152/152 153/153/153 170/170/170
f 152/152/152 170/170/170 169/169/169
f 154/155/155 155/154/154 172/171/171
f 154/155/155 172/171/171 171/172/172
f 155/154/154 156/156/156 173/173/173
f 155/154/154 173/173/173 172/171/171
f 156/156/156 157/157/157 174/174/174
f 156/156/156 174/174/174 173/173/173
f 157/157/157 158/158/158 175/175/175
f 157/157/157 175/175/175 174/174/174
f 158/158/158 159/159/159 176/176/176
f 158/158/158 176/176/176 175/175/175
f 159/159/159 160/160/160 177/177/177
f 159/159/159 177/177/177 176/176/176
f 160/160/160 161/161/161 178/178/178
f 160/160/160 178/178/178 177/177/177
f 161/161/161 162/162/162 179/179/179
f 161/161/161 179/179/179 178/178/178
f 162/162/162 163/163/163 180/180/180
f 162/162/162 180/180/180 179/179/179
f 163/163/163 164/164/164 181/181/181
f 163/163/163 181/181/181 180/180/180
f 164/164/164 165/165/165 182/182/182
f 164/164/164 182/182/182 181/181/181
f 165/165/165 166/166/166 183/183/183
f 165/165/165 183/183/183 182/182/182
f 166/166/166 167/167/167 184/184/184
f 166/166/166 184/184/184 183/183/183
f 167/167/167 168/168/168 185/185/185
f 167/167/167 185/185/185 184/184/184
f 168/168/168 169/169/169 186/186/186
f 168/168/168 186/186/186 185/185/185
f 169/169/169 170/170/170 187/187/187
f 169/169/169 187/187/187 186/186/186
f 171/172/172 172/171/171 189/188/188
f 171/172/172 189/188/188 188/189/189
f 172/171/171 173/173/173 190/190/190
f 172/171/171 190/190/190 189/188/188
f 173/173/173 174/174/174 191/191/191
f 173/173/173 191/191/191 190/190/190
f 174/174/174 175/175/175 192/192/192
f 174/174/174 192/192/192 191/191/191
f 175/175/175 176/176/176 193/193/193
f 175/175/175 193/193/193 192/192/192
f 176/176/176 177/177/177 194/194/194
f 176/176/176 194/194/194 193/193/193
f 177/177/177 178/178/178 195/195/195
f 177/177/177 195/195/195 194/194/194
f 178/178/178 179/179/179 196/196/196
f 178/178/178 196/196/196 195/195/195
f 179/179/179 180/180/180 197/197/197
f 179/179/179 197/197/197 196/196/196
f 180/180/180 181/181/181 198/198/198
f 180/180/180 198/198/198 197/197/197
f 181/181/181 182/182/182 199/199/199
f 181/181/181 199/199/199 198/198/198
f 182/182/182 183/183/183 200/200/200
f 182/182/182 200/200/200 199/199/199
f 183/183/183 184/184/184 201/201/201
f 183/183/183 201/201/201 200/200/200
f 184/184/184 185/185/185 202/202/202
f 184/184/184 202/202/202 201/201/201
f 185/185/185 186/186/186 203/203/203
f 185/185/185 203/203/203 202/202/202
f 186/186/186 187/187/187 204/204/204
f 186/186/186 204/204/204 203/203/203
f 188/189/189 189/188/188 206/205/205
f 188/189/189 206/205/205 205/206/206
f 189/188/188 190/190/190 207/207/207
f 189/188/188 207/207/207 206/205/205
f 190/190/190 191/191/191 208/208/208
f 190/190/190 208/208/208 207/207/207
f 191/191/191 192/192/192 209/209/209
f 191/191/191 209/209/209 208/208/208
f 192/192/192 193/193/193 210/210/210
f 192/192/192 210/210/210 209/209/209
f 193/193/193 194/194/194 211/211/211
f 193/193/193 211/211/211 210/210/210
f 194/194/194 195/195/195 212/212/212
f 194/194/194 212/212/212 211/211/211
f 195/195/195 196/196/196 213/213/213
f 195/195/195 213/213/213 212/212/212
f 196/196/196 197/197/197 214/214/214
f 196/196/196 214/214/214 213/213/213
f 197/197/197 198/198/198 215/215/215
f 197/197/197 215/215/215 214/214/214
f 198/198/198 199/199/199 216/216/216
f 198/198/198 216/216/216 215/215/215
f 199/199/199 200/200/200 217/217/217
f 199/199/199 217/217/217 216/216/216
f 200/200/200 201/201/201 218/218/218
f 200/200/200 218/218/218 217/217/217
f 201/201/201 202/202/202 219/219/219
f 201/201/201 219/219/219 218/218/218
f 202/202/202 203/203/203 220/220/220
f 202/202/202 220/220/220 219/219/219
f 203/203/203 204/204/204 221/221/221
f 203/203/203 221/221/221 220/220/220
f 205/206/206 206/205/205 223/222/222
f 205/206/206 223/222/222 222/223/223
f 206/205/205 207/207/207 224/224/224
f 206/205/205 224/224/224 223/222/222
f 207/207/207 208/208/208 225/225/225
f 207/207/207 225/225/225 224/224/224
f 208/208/208 209/209/209 226/226/226
f 208/208/208 226/226/226 225/225/225
f 209/209/209 210/210/210 227/227/227
f 209/209/209 227/227/227 226/226/226
f 210/210/210 211/211/211 228/228/228
f 210/210/210 228/228/228 227/227/227
f 211/211/211 212/212/212 229/229/229
f 211/211/211 229/229/229 228/228/228
f 212/212/212 213/213/213 230/230/230
f 212/212/212 230/230/230 229/229/229
f 213/213/213 214/214/214 231/231/231
f 213/213/213 231/231/231 230/230/230
f 214/214/214 215/215/215 232/232/232
f 214/214/214 232/232/232 231/231/231
f 215/215/215 216/216/216 233/233/233
f 215/215/215 233/233/233 232/232/232
f 216/216/216 217/217/217 234/234/234
f 216/216/216 234/234/234 233/233/233
f 217/217/217 218/218/218 235/235/235
f 217/217/217 235/235/235 234/234/234
f 218/218/218 219/219/219 236/236/236
f 218/218/218 236/236/236 235/235/235
f 219/219/219 220/220/220 237/237/237
f 219/219/219 237/237/237 236/236/236
f 220/220/220 221/221/221 238/238/238
f 220/220/220 238/238/238 237/237/237
f 222/223/223 223/222/222 240/239/239
f 222/223/223 240/239/239 239/240/240
f 223/222/222 224/224/224 241/241/241
f 223/222/222 241/241/241 240/239/239
f 224/224/224 225/225/225 242/242/242
f 224/224/224 242/242/242 241/241/241
f 225/225/225 226/226/226 243/243/243
f 225/225/225 243/243/243 242/242/242
f 226/226/226 227/227/227 244/244/244
f 226/226/226 244/244/244 243/243/243
f 227/227/227 228/228/228 245/245/245
f 227/227/227 245/245/245 244/244/244
f 228/228/228 229/229/229 246/246/246
f 228/228/228 246/246/246 245/245/245
f 229/229/229 230/230/230 247/247/247
f 229/229/229 247/247/247 246/246/246
f 230/230/230 231/231/231 248/248/248
f 230/230/230 248/248/248 247/247/247
f 231/231/231 232/232/232 249/249/249
f 231/231/231 249/249/249 248/248/248
f 232/232/232 233/233/233 250/250/250
f 232/232/232 250/250/250 249/249/249
f 233/233/233 234/234/234 251/251/251
f 233/233/233 251/251/251 250/250/250
f 234/234/234 235/235/235 252/252/252
f 234/234/234 252/252/252 251/251/251
f 235/235/235 236/236/236 253/253/253
f 235/235/235 253/253/253 252/252/252
f 236/236/236 237/237/237 254/254/254
f 236/236/236 254/254/254 253/253/253
f 237/237/237 238/238/238 255/255/255
f 237/237/237 255/255/255 254/254/254
f 239/240/240 240/239/239 257/256/256
f 239/240/240 257/256/256 256/257/257
f 240/239/239 241/241/241 258/258/258
f 240/239/239 258/258/258 257/256/256
f 241/241/241 242/242/242 259/259/259
f 241/241/241 259/259/259 258/258/258
f 242/242/242 243/243/243 260/260/260
f 242/242/242 260/260/260 259/259/259
f 243/243/243 244/244/244 261/261/261
f 243/243/243 261/261/261 260/260/260
f 244/244/244 245/245/245 262/262/262
f 244/244/244 262/262/262 261/261/261
f 245/245/245 246/246/246 263/263/263
f 245/245/245 263/263/263 262/262/262
f 246/246/246 247/247/247 264/264/264
f 246/246/246 264/264/264 263/263/263
f 247/247/247 248/248/248 265/265/265
f 247/247/247 265/265/265 264/264/264
f 248/248/248 249/249/249 266/266/266
f 248/248/248 266/266/266 265/265/265
f 249/249/249 250/250/250 267/267/267
f 249/249/249 267/267/267 266/266/266
f 250/250/250 251/251/251 268/268/268
f 250/250/250 268/268/268 267/267/267
f 251/251/251 252/252/252 269/269/269
f 251/251/251 269/269/269 268/268/268
f 252/252/252 253/253/253 270/270/270
f 252/252/252 270/270/270 269/269/269
f 253/253/253 254/254/254 271/271/271
f 253/253/253 271/271/271 270/270/270
f 254/254/254 255/255/255 272/272/272
f 254/254/254 272/272/272 271/271/271
f 256/257/257 257/256/256 274/273/273
f 256/257/257 274/273/273 273/274/274
f 257/256/256 258/258/258 275/275/275
f 257/256/256 275/275/275 274/273/273
f 258/258/258 259/259/259 276/276/276
f 258/258/258 276/276/276 275/275/275
f 259/259/259 260/260/260 277/277/277
f 259/259/259 277/277/277 276/276/276
f 260/260/260 261/261/261 278/278/278
f 260/260/260 278/278/278 277/277/277
f 261/261/261 262/262/262 279/279/279
f 261/261/261 279/279/279 278/278/278
f 262/262/262 263/263/263 280/280/280
f 262/262/262 280/280/280 279/279/279
f 263/263/263 264/264/264 281/281/281
f 263/263/263 281/281/281 280/280/280
f 264/264/264 265/265/265 282/282/282
f 264/264/264 282/282/282 281/281/281
f 265/265/265 266/266/266 283/283/283
f 265/265/265 283/283/283 282/282/282
f 266/266/266 267/267/267 284/284/284
f 266/266/266 284/284/284 283/283/283
f 267/267/267 268/268/268 285/285/285
f 267/267/267 285/285/285 284/284/284
f 268/268/268 269/269/269 286/286/286
f 268/268/268 286/286/286 285/285/285
f 269/269/269 270/270/270 287/287/287
f 269/269/269 287/287/287 286/286/286
f 270/270/270 271/271/271 288/288/288
f 270/270/270 288/288/288 287/287/287
f 271/271/271 272/272/272 289/289/289
f 271/271/271 289/289/289 288/288/288
