mtllib terrain_mid_02_05.mtl
usemtl terrain_mid_02_05
# Blender 5.1.1
# www.blender.org
o terrain_mid_02_05
v -160.000000 -160.000000 18.815355
v -140.000000 -160.000000 11.737492
v -120.000000 -160.000000 4.499021
v -100.000000 -160.000000 -2.395267
v -80.000000 -160.000000 -8.438754
v -60.000000 -160.000000 -12.746860
v -40.000000 -160.000000 -14.657633
v -20.000000 -160.000000 -14.097463
v 0.000000 -160.000000 -12.078993
v 20.000000 -160.000000 -10.270626
v 40.000000 -160.000000 -9.069336
v 60.000000 -160.000000 -7.832655
v 80.000000 -160.000000 -5.993340
v 100.000000 -160.000000 -3.724962
v 120.000000 -160.000000 -1.910936
v 140.000000 -160.000000 -0.062150
v 160.000000 -160.000000 3.123566
v -160.000000 -140.000000 20.221090
v -140.000000 -140.000000 12.745348
v -120.000000 -140.000000 5.486573
v -100.000000 -140.000000 -1.005065
v -80.000000 -140.000000 -5.533535
v -60.000000 -140.000000 -8.008378
v -40.000000 -140.000000 -8.158447
v -20.000000 -140.000000 -7.133748
v 0.000000 -140.000000 -5.143412
v 20.000000 -140.000000 -3.286590
v 40.000000 -140.000000 -2.026384
v 60.000000 -140.000000 -0.991173
v 80.000000 -140.000000 0.443217
v 100.000000 -140.000000 2.616679
v 120.000000 -140.000000 4.803114
v 140.000000 -140.000000 6.455668
v 160.000000 -140.000000 8.204492
v -160.000000 -120.000000 20.078749
v -140.000000 -120.000000 12.800331
v -120.000000 -120.000000 6.058557
v -100.000000 -120.000000 0.988421
v -80.000000 -120.000000 -1.394134
v -60.000000 -120.000000 -1.726148
v -40.000000 -120.000000 -1.268290
v -20.000000 -120.000000 -0.372955
v 0.000000 -120.000000 1.475403
v 20.000000 -120.000000 3.442634
v 40.000000 -120.000000 4.916698
v 60.000000 -120.000000 5.973403
v 80.000000 -120.000000 6.814915
v 100.000000 -120.000000 8.582781
v 120.000000 -120.000000 10.942227
v 140.000000 -120.000000 12.569008
v 160.000000 -120.000000 13.309781
v -160.000000 -100.000000 19.099270
v -140.000000 -100.000000 12.699728
v -120.000000 -100.000000 7.383708
v -100.000000 -100.000000 4.317600
v -80.000000 -100.000000 3.871640
v -60.000000 -100.000000 4.538602
v -40.000000 -100.000000 5.033302
v -20.000000 -100.000000 5.760248
v 0.000000 -100.000000 7.394501
v 20.000000 -100.000000 9.390232
v 40.000000 -100.000000 11.221551
v 60.000000 -100.000000 12.520132
v 80.000000 -100.000000 13.182658
v 100.000000 -100.000000 14.322616
v 120.000000 -100.000000 16.253527
v 140.000000 -100.000000 17.659105
v 160.000000 -100.000000 17.630327
v -160.000000 -80.000000 18.298353
v -140.000000 -80.000000 12.980330
v -120.000000 -80.000000 9.496904
v -100.000000 -80.000000 8.213745
v -80.000000 -80.000000 8.865103
v -60.000000 -80.000000 9.661015
v -40.000000 -80.000000 10.034312
v -20.000000 -80.000000 10.703709
v 0.000000 -80.000000 12.252249
v 20.000000 -80.000000 14.273506
v 40.000000 -80.000000 16.270576
v 60.000000 -80.000000 17.817099
v 80.000000 -80.000000 18.645485
v 100.000000 -80.000000 19.354336
v 120.000000 -80.000000 20.534008
v 140.000000 -80.000000 21.236349
v 160.000000 -80.000000 20.651960
v -160.000000 -60.000000 18.324396
v -140.000000 -60.000000 14.139903
v -120.000000 -60.000000 12.229577
v -100.000000 -60.000000 11.871386
v -80.000000 -60.000000 12.359138
v -60.000000 -60.000000 12.796824
v -40.000000 -60.000000 13.111600
v -20.000000 -60.000000 13.949358
v 0.000000 -60.000000 15.656705
v 20.000000 -60.000000 17.793213
v 40.000000 -60.000000 19.879578
v 60.000000 -60.000000 21.634882
v 80.000000 -60.000000 22.723475
v 100.000000 -60.000000 23.210775
v 120.000000 -60.000000 23.555132
v 140.000000 -60.000000 23.448683
v 160.000000 -60.000000 22.415863
v -160.000000 -40.000000 19.688955
v -140.000000 -40.000000 15.991282
v -120.000000 -40.000000 14.103930
v -100.000000 -40.000000 13.273862
v -80.000000 -40.000000 13.123851
v -60.000000 -40.000000 13.237451
v -40.000000 -40.000000 13.616286
v -20.000000 -40.000000 14.908817
v 0.000000 -40.000000 17.121376
v 20.000000 -40.000000 19.609005
v 40.000000 -40.000000 21.972111
v 60.000000 -40.000000 23.915819
v 80.000000 -40.000000 24.865896
v 100.000000 -40.000000 25.135876
v 120.000000 -40.000000 24.853132
v 140.000000 -40.000000 24.158125
v 160.000000 -40.000000 23.132141
v -160.000000 -20.000000 21.420942
v -140.000000 -20.000000 17.742046
v -120.000000 -20.000000 15.272957
v -100.000000 -20.000000 13.568787
v -80.000000 -20.000000 12.418495
v -60.000000 -20.000000 11.944933
v -40.000000 -20.000000 12.400181
v -20.000000 -20.000000 14.213616
v 0.000000 -20.000000 16.985718
v 20.000000 -20.000000 19.930593
v 40.000000 -20.000000 22.480433
v 60.000000 -20.000000 24.324305
v 80.000000 -20.000000 24.849932
v 100.000000 -20.000000 24.772943
v 120.000000 -20.000000 24.242384
v 140.000000 -20.000000 23.478024
v 160.000000 -20.000000 22.704681
v -160.000000 0.000000 22.789667
v -140.000000 0.000000 18.996546
v -120.000000 0.000000 15.736546
v -100.000000 0.000000 13.160069
v -80.000000 0.000000 10.994026
v -60.000000 0.000000 9.438419
v -40.000000 0.000000 9.722473
v -20.000000 0.000000 11.816888
v 0.000000 0.000000 15.107382
v 20.000000 0.000000 18.371555
v 40.000000 0.000000 20.788601
v 60.000000 0.000000 22.218395
v 80.000000 0.000000 22.220612
v 100.000000 0.000000 21.789362
v 120.000000 0.000000 21.323925
v 140.000000 0.000000 20.914124
v 160.000000 0.000000 20.616999
v -160.000000 20.000000 23.273319
v -140.000000 20.000000 20.042524
v -120.000000 20.000000 17.072531
v -100.000000 20.000000 14.193658
v -80.000000 20.000000 10.941898
v -60.000000 20.000000 7.488960
v -40.000000 20.000000 6.560500
v -20.000000 20.000000 8.098166
v 0.000000 20.000000 11.024455
v 20.000000 20.000000 13.918831
v 40.000000 20.000000 15.850488
v 60.000000 20.000000 16.634661
v 80.000000 20.000000 16.264147
v 100.000000 20.000000 15.884719
v 120.000000 20.000000 15.580200
v 140.000000 20.000000 15.448619
v 160.000000 20.000000 15.642944
v -160.000000 40.000000 22.918474
v -140.000000 40.000000 20.393057
v -120.000000 40.000000 17.981642
v -100.000000 40.000000 14.875787
v -80.000000 40.000000 10.446818
v -60.000000 40.000000 5.380239
v -40.000000 40.000000 2.625794
v -20.000000 40.000000 2.954116
v 0.000000 40.000000 5.164476
v 20.000000 40.000000 7.431414
v 40.000000 40.000000 8.817783
v 60.000000 40.000000 8.998590
v 80.000000 40.000000 8.469432
v 100.000000 40.000000 8.181343
v 120.000000 40.000000 8.023252
v 140.000000 40.000000 8.046153
v 160.000000 40.000000 8.540253
v -160.000000 60.000000 20.930529
v -140.000000 60.000000 19.300226
v -120.000000 60.000000 16.832523
v -100.000000 60.000000 13.207279
v -80.000000 60.000000 7.839400
v -60.000000 60.000000 1.933587
v -40.000000 60.000000 -2.448069
v -20.000000 60.000000 -3.817393
v 0.000000 60.000000 -2.710812
v 20.000000 60.000000 -1.063954
v 40.000000 60.000000 -0.184953
v 60.000000 60.000000 -0.279347
v 80.000000 60.000000 -0.697340
v 100.000000 60.000000 -0.991309
v 120.000000 60.000000 -1.041765
v 140.000000 60.000000 -0.870130
v 160.000000 60.000000 -0.331610
v -160.000000 80.000000 15.752639
v -140.000000 80.000000 14.104370
v -120.000000 80.000000 11.349471
v -100.000000 80.000000 7.327030
v -80.000000 80.000000 1.729109
v -60.000000 80.000000 -4.374660
v -40.000000 80.000000 -9.684821
v -20.000000 80.000000 -12.515329
v 0.000000 80.000000 -12.310475
v 20.000000 80.000000 -11.124061
v 40.000000 80.000000 -10.589454
v 60.000000 80.000000 -10.698829
v 80.000000 80.000000 -11.045593
v 100.000000 80.000000 -11.351868
v 120.000000 80.000000 -11.237294
v 140.000000 80.000000 -10.741817
v 160.000000 80.000000 -10.069101
v -160.000000 100.000000 8.015097
v -140.000000 100.000000 6.038809
v -120.000000 100.000000 2.983467
v -100.000000 100.000000 -1.241617
v -80.000000 100.000000 -6.759067
v -60.000000 100.000000 -12.565989
v -40.000000 100.000000 -18.417948
v -20.000000 100.000000 -22.411400
v 0.000000 100.000000 -22.993195
v 20.000000 100.000000 -22.025013
v 40.000000 100.000000 -21.605997
v 60.000000 100.000000 -21.686747
v 80.000000 100.000000 -22.167578
v 100.000000 100.000000 -22.438175
v 120.000000 100.000000 -22.010822
v 140.000000 100.000000 -21.183542
v 160.000000 100.000000 -20.259853
v -160.000000 120.000000 -2.536865
v -140.000000 120.000000 -4.806596
v -120.000000 120.000000 -8.169060
v -100.000000 120.000000 -12.546932
v -80.000000 120.000000 -17.608116
v -60.000000 120.000000 -22.859341
v -40.000000 120.000000 -28.775627
v -20.000000 120.000000 -33.600941
v 0.000000 120.000000 -34.853172
v 20.000000 120.000000 -33.699520
v 40.000000 120.000000 -32.870968
v 60.000000 120.000000 -33.101063
v 80.000000 120.000000 -33.951996
v 100.000000 120.000000 -33.975304
v 120.000000 120.000000 -33.167015
v 140.000000 120.000000 -32.052322
v 160.000000 120.000000 -30.864506
v -160.000000 140.000000 -14.263295
v -140.000000 140.000000 -16.750807
v -120.000000 140.000000 -20.201168
v -100.000000 140.000000 -24.305613
v -80.000000 140.000000 -28.897343
v -60.000000 140.000000 -33.709190
v -40.000000 140.000000 -39.622684
v -20.000000 140.000000 -45.139297
v 0.000000 140.000000 -47.405163
v 20.000000 140.000000 -46.968765
v 40.000000 140.000000 -45.979530
v 60.000000 140.000000 -45.534378
v 80.000000 140.000000 -45.635311
v 100.000000 140.000000 -45.319637
v 120.000000 140.000000 -44.332115
v 140.000000 140.000000 -43.113155
v 160.000000 140.000000 -42.081776
v -160.000000 160.000000 -26.758293
v -140.000000 160.000000 -29.422277
v -120.000000 160.000000 -32.808414
v -100.000000 160.000000 -36.409901
v -80.000000 160.000000 -40.402992
v -60.000000 160.000000 -44.796947
v -40.000000 160.000000 -50.506805
v -20.000000 160.000000 -56.169167
v 0.000000 160.000000 -59.531647
v 20.000000 160.000000 -60.532223
v 40.000000 160.000000 -59.864132
v 60.000000 160.000000 -58.707054
v 80.000000 160.000000 -57.572769
v 100.000000 160.000000 -56.706497
v 120.000000 160.000000 -55.568287
v 140.000000 160.000000 -54.307178
v 160.000000 160.000000 -53.712730
vn 0.3219 -0.1034 0.9411
vn 0.3360 -0.0778 0.9387
vn 0.3456 -0.0249 0.9381
vn 0.3391 -0.0297 0.9403
vn 0.3323 -0.0688 0.9406
vn 0.3249 -0.0368 0.9450
vn 0.3069 -0.0754 0.9488
vn 0.2647 -0.0813 0.9609
vn 0.2488 -0.1181 0.9613
vn 0.1699 -0.1709 0.9705
vn 0.1506 -0.1960 0.9690
vn 0.0632 -0.2651 0.9622
vn 0.0323 -0.2858 0.9578
vn -0.0206 -0.3174 0.9481
vn -0.0609 -0.3226 0.9446
vn -0.0711 -0.3237 0.9435
vn -0.0900 -0.3254 0.9413
vn -0.0908 -0.3197 0.9432
vn -0.0709 -0.3261 0.9427
vn -0.0735 -0.3234 0.9434
vn -0.0575 -0.3262 0.9435
vn -0.0541 -0.3296 0.9426
vn -0.0727 -0.3174 0.9455
vn -0.0582 -0.3257 0.9437
vn -0.0972 -0.3074 0.9466
vn -0.0856 -0.3038 0.9489
vn -0.0965 -0.3102 0.9458
vn -0.1036 -0.2925 0.9506
vn -0.0863 -0.3217 0.9429
vn -0.0910 -0.3047 0.9481
vn -0.1192 -0.2986 0.9469
vn -0.0808 -0.3001 0.9505
vn -0.1867 -0.2310 0.9549
vn -0.1139 -0.2452 0.9628
vn 0.3308 0.0011 0.9437
vn 0.3265 0.0265 0.9448
vn 0.2829 -0.0454 0.9581
vn 0.1816 -0.1297 0.9748
vn 0.0659 -0.2284 0.9713
vn -0.0029 -0.2994 0.9541
vn -0.0320 -0.3131 0.9492
vn -0.0651 -0.3061 0.9498
vn -0.0907 -0.2979 0.9503
vn -0.0818 -0.3012 0.9501
vn -0.0601 -0.3139 0.9475
vn -0.0449 -0.3197 0.9465
vn -0.0619 -0.3027 0.9511
vn -0.0984 -0.2794 0.9551
vn -0.0954 -0.2739 0.9570
vn -0.0569 -0.2693 0.9614
vn -0.0433 -0.2291 0.9724
vn 0.2811 -0.0043 0.9597
vn 0.2935 0.0425 0.9550
vn 0.2044 -0.0838 0.9753
vn 0.0861 -0.1771 0.9804
vn -0.0053 -0.2485 0.9686
vn -0.0280 -0.2737 0.9614
vn -0.0293 -0.2717 0.9619
vn -0.0570 -0.2666 0.9621
vn -0.0873 -0.2592 0.9619
vn -0.0920 -0.2603 0.9611
vn -0.0749 -0.2721 0.9593
vn -0.0469 -0.2836 0.9578
vn -0.0432 -0.2833 0.9581
vn -0.0739 -0.2593 0.9630
vn -0.0808 -0.2324 0.9693
vn -0.0336 -0.2117 0.9768
vn 0.0090 -0.1805 0.9835
vn 0.2147 -0.0352 0.9760
vn 0.2549 0.0187 0.9668
vn 0.1175 -0.1194 0.9859
vn 0.0155 -0.1855 0.9825
vn -0.0354 -0.2074 0.9776
vn -0.0286 -0.2021 0.9789
vn -0.0256 -0.1979 0.9799
vn -0.0543 -0.2003 0.9782
vn -0.0872 -0.2016 0.9756
vn -0.0982 -0.2048 0.9739
vn -0.0860 -0.2108 0.9737
vn -0.0579 -0.2216 0.9734
vn -0.0373 -0.2318 0.9720
vn -0.0461 -0.2167 0.9752
vn -0.0462 -0.1793 0.9827
vn -0.0029 -0.1432 0.9897
vn 0.0421 -0.1187 0.9920
vn 0.1502 -0.0742 0.9859
vn 0.2190 -0.0339 0.9751
vn 0.0562 -0.1142 0.9919
vn -0.0033 -0.1254 0.9921
vn -0.0230 -0.1058 0.9941
vn -0.0188 -0.0891 0.9958
vn -0.0287 -0.0892 0.9956
vn -0.0631 -0.1043 0.9925
vn -0.0951 -0.1204 0.9882
vn -0.1041 -0.1315 0.9858
vn -0.0948 -0.1406 0.9855
vn -0.0701 -0.1504 0.9861
vn -0.0389 -0.1535 0.9874
vn -0.0205 -0.1430 0.9895
vn -0.0059 -0.1073 0.9942
vn 0.0284 -0.0728 0.9969
vn 0.0596 -0.0618 0.9963
vn 0.1378 -0.0888 0.9865
vn 0.1972 -0.0757 0.9774
vn 0.0676 -0.0757 0.9948
vn 0.0245 -0.0424 0.9988
vn 0.0006 -0.0018 1.0000
vn -0.0123 0.0213 0.9997
vn -0.0417 0.0178 0.9990
vn -0.0873 -0.0066 0.9962
vn -0.1166 -0.0329 0.9926
vn -0.1202 -0.0529 0.9913
vn -0.1068 -0.0645 0.9922
vn -0.0720 -0.0669 0.9952
vn -0.0304 -0.0530 0.9981
vn 0.0003 -0.0390 0.9992
vn 0.0244 -0.0172 0.9996
vn 0.0430 -0.0007 0.9991
vn 0.0558 -0.0072 0.9984
vn 0.1514 -0.0740 0.9857
vn 0.1871 -0.0759 0.9794
vn 0.1037 -0.0405 0.9938
vn 0.0712 0.0029 0.9975
vn 0.0405 0.0531 0.9978
vn 0.0004 0.0945 0.9955
vn -0.0563 0.0968 0.9937
vn -0.1135 0.0765 0.9906
vn -0.1413 0.0498 0.9887
vn -0.1360 0.0306 0.9902
vn -0.1091 0.0294 0.9936
vn -0.0591 0.0423 0.9974
vn -0.0113 0.0659 0.9978
vn 0.0151 0.0833 0.9964
vn 0.0322 0.0878 0.9956
vn 0.0383 0.0808 0.9960
vn 0.0387 0.0627 0.9973
vn 0.1734 -0.0566 0.9832
vn 0.1795 -0.0455 0.9827
vn 0.1442 -0.0445 0.9885
vn 0.1177 -0.0155 0.9929
vn 0.0926 0.0367 0.9950
vn 0.0316 0.1107 0.9934
vn -0.0587 0.1442 0.9878
vn -0.1319 0.1498 0.9799
vn -0.1600 0.1455 0.9763
vn -0.1391 0.1472 0.9793
vn -0.0945 0.1628 0.9821
vn -0.0351 0.1886 0.9814
vn 0.0105 0.2099 0.9777
vn 0.0219 0.2169 0.9760
vn 0.0214 0.2116 0.9771
vn 0.0173 0.1967 0.9803
vn 0.0146 0.1738 0.9847
vn 0.1531 -0.0345 0.9876
vn 0.1541 -0.0032 0.9881
vn 0.1445 -0.0554 0.9880
vn 0.1514 -0.0423 0.9876
vn 0.1653 0.0135 0.9861
vn 0.1083 0.1003 0.9891
vn -0.0149 0.1747 0.9845
vn -0.1083 0.2151 0.9706
vn -0.1398 0.2389 0.9609
vn -0.1155 0.2621 0.9581
vn -0.0647 0.2859 0.9561
vn -0.0099 0.3137 0.9495
vn 0.0177 0.3251 0.9455
vn 0.0162 0.3220 0.9466
vn 0.0104 0.3151 0.9490
vn -0.0015 0.3061 0.9520
vn -0.0112 0.2890 0.9573
vn 0.1225 0.0184 0.9923
vn 0.1186 0.0581 0.9912
vn 0.1366 0.0060 0.9906
vn 0.1851 0.0242 0.9824
vn 0.2303 0.0752 0.9702
vn 0.1899 0.1350 0.9725
vn 0.0591 0.2193 0.9739
vn -0.0608 0.2849 0.9566
vn -0.1053 0.3229 0.9406
vn -0.0852 0.3495 0.9331
vn -0.0364 0.3718 0.9276
vn 0.0080 0.3894 0.9210
vn 0.0188 0.3903 0.9205
vn 0.0102 0.3883 0.9215
vn 0.0031 0.3834 0.9236
vn -0.0120 0.3777 0.9258
vn -0.0254 0.3708 0.9284
vn 0.1007 0.1545 0.9828
vn 0.0685 0.1759 0.9820
vn 0.1486 0.1617 0.9756
vn 0.2157 0.1811 0.9595
vn 0.2655 0.2053 0.9420
vn 0.2424 0.2299 0.9425
vn 0.1361 0.2914 0.9469
vn 0.0061 0.3607 0.9327
vn -0.0630 0.3995 0.9146
vn -0.0572 0.4201 0.9057
vn -0.0176 0.4364 0.8996
vn 0.0115 0.4418 0.8971
vn 0.0160 0.4384 0.8986
vn 0.0077 0.4388 0.8986
vn -0.0027 0.4338 0.9010
vn -0.0160 0.4250 0.9050
vn -0.0293 0.4216 0.9063
vn 0.1039 0.3130 0.9441
vn 0.0576 0.3068 0.9500
vn 0.1581 0.3231 0.9331
vn 0.2206 0.3313 0.9174
vn 0.2650 0.3306 0.9058
vn 0.2591 0.3291 0.9081
vn 0.1857 0.3644 0.9125
vn 0.0594 0.4208 0.9052
vn -0.0310 0.4520 0.8915
vn -0.0381 0.4638 0.8851
vn -0.0094 0.4721 0.8815
vn 0.0101 0.4719 0.8816
vn 0.0146 0.4730 0.8810
vn 0.0042 0.4725 0.8813
vn -0.0136 0.4642 0.8856
vn -0.0260 0.4527 0.8913
vn -0.0322 0.4457 0.8946
vn 0.1130 0.4247 0.8983
vn 0.0654 0.4149 0.9075
vn 0.1614 0.4327 0.8870
vn 0.2131 0.4347 0.8750
vn 0.2470 0.4217 0.8724
vn 0.2558 0.4055 0.8776
vn 0.2169 0.4205 0.8810
vn 0.1006 0.4639 0.8801
vn -0.0084 0.4909 0.8712
vn -0.0302 0.4913 0.8705
vn -0.0072 0.4867 0.8735
vn 0.0122 0.4886 0.8724
vn 0.0163 0.4969 0.8677
vn -0.0034 0.4923 0.8704
vn -0.0274 0.4807 0.8765
vn -0.0385 0.4699 0.8819
vn -0.0383 0.4609 0.8866
vn 0.1214 0.4913 0.8625
vn 0.0798 0.4850 0.8708
vn 0.1651 0.4946 0.8533
vn 0.2003 0.4894 0.8487
vn 0.2201 0.4724 0.8534
vn 0.2396 0.4537 0.8583
vn 0.2309 0.4557 0.8596
vn 0.1310 0.4898 0.8619
vn 0.0022 0.5210 0.8536
vn -0.0420 0.5286 0.8478
vn -0.0128 0.5202 0.8539
vn 0.0232 0.5119 0.8587
vn 0.0188 0.5059 0.8624
vn -0.0172 0.4963 0.8680
vn -0.0419 0.4869 0.8725
vn -0.0504 0.4801 0.8757
vn -0.0457 0.4784 0.8769
vn 0.1254 0.5199 0.8450
vn 0.0862 0.5160 0.8522
vn 0.1588 0.5178 0.8406
vn 0.1835 0.5036 0.8442
vn 0.2003 0.4853 0.8511
vn 0.2289 0.4681 0.8535
vn 0.2435 0.4630 0.8522
vn 0.1671 0.4845 0.8587
vn 0.0389 0.5247 0.8504
vn -0.0296 0.5569 0.8301
vn -0.0297 0.5591 0.8286
vn -0.0072 0.5391 0.8422
vn -0.0046 0.5085 0.8610
vn -0.0283 0.4939 0.8691
vn -0.0481 0.4880 0.8715
vn -0.0491 0.4856 0.8728
vn -0.0381 0.4956 0.8677
vn 0.1259 0.5399 0.8323
vn 0.0888 0.5354 0.8399
vn 0.1453 0.5355 0.8319
vn 0.1596 0.5172 0.8408
vn 0.1786 0.4928 0.8516
vn 0.2155 0.4749 0.8533
vn 0.2434 0.4560 0.8560
vn 0.1964 0.4512 0.8705
vn 0.0949 0.4837 0.8701
vn 0.0070 0.5372 0.8434
vn -0.0374 0.5710 0.8201
vn -0.0474 0.5602 0.8270
vn -0.0425 0.5253 0.8498
vn -0.0433 0.5024 0.8635
vn -0.0521 0.4931 0.8684
vn -0.0404 0.4913 0.8701
vn -0.0179 0.5100 0.8600
vt 0.015625 0.015625
vt 0.076172 0.015625
vt 0.076172 0.076172
vt 0.015625 0.076172
vt 0.136719 0.015625
vt 0.136719 0.076172
vt 0.197266 0.015625
vt 0.197266 0.076172
vt 0.257812 0.015625
vt 0.257812 0.076172
vt 0.318359 0.015625
vt 0.318359 0.076172
vt 0.378906 0.015625
vt 0.378906 0.076172
vt 0.439453 0.015625
vt 0.439453 0.076172
vt 0.500000 0.015625
vt 0.500000 0.076172
vt 0.560547 0.015625
vt 0.560547 0.076172
vt 0.621094 0.015625
vt 0.621094 0.076172
vt 0.681641 0.015625
vt 0.681641 0.076172
vt 0.742188 0.015625
vt 0.742188 0.076172
vt 0.802734 0.015625
vt 0.802734 0.076172
vt 0.863281 0.015625
vt 0.863281 0.076172
vt 0.923828 0.015625
vt 0.923828 0.076172
vt 0.984375 0.015625
vt 0.984375 0.076172
vt 0.076172 0.136719
vt 0.015625 0.136719
vt 0.136719 0.136719
vt 0.197266 0.136719
vt 0.257812 0.136719
vt 0.318359 0.136719
vt 0.378906 0.136719
vt 0.439453 0.136719
vt 0.500000 0.136719
vt 0.560547 0.136719
vt 0.621094 0.136719
vt 0.681641 0.136719
vt 0.742188 0.136719
vt 0.802734 0.136719
vt 0.863281 0.136719
vt 0.923828 0.136719
vt 0.984375 0.136719
vt 0.076172 0.197266
vt 0.015625 0.197266
vt 0.136719 0.197266
vt 0.197266 0.197266
vt 0.257812 0.197266
vt 0.318359 0.197266
vt 0.378906 0.197266
vt 0.439453 0.197266
vt 0.500000 0.197266
vt 0.560547 0.197266
vt 0.621094 0.197266
vt 0.681641 0.197266
vt 0.742188 0.197266
vt 0.802734 0.197266
vt 0.863281 0.197266
vt 0.923828 0.197266
vt 0.984375 0.197266
vt 0.076172 0.257812
vt 0.015625 0.257812
vt 0.136719 0.257812
vt 0.197266 0.257812
vt 0.257812 0.257812
vt 0.318359 0.257812
vt 0.378906 0.257812
vt 0.439453 0.257812
vt 0.500000 0.257812
vt 0.560547 0.257812
vt 0.621094 0.257812
vt 0.681641 0.257812
vt 0.742188 0.257812
vt 0.802734 0.257812
vt 0.863281 0.257812
vt 0.923828 0.257812
vt 0.984375 0.257812
vt 0.076172 0.318359
vt 0.015625 0.318359
vt 0.136719 0.318359
vt 0.197266 0.318359
vt 0.257812 0.318359
vt 0.318359 0.318359
vt 0.378906 0.318359
vt 0.439453 0.318359
vt 0.500000 0.318359
vt 0.560547 0.318359
vt 0.621094 0.318359
vt 0.681641 0.318359
vt 0.742188 0.318359
vt 0.802734 0.318359
vt 0.863281 0.318359
vt 0.923828 0.318359
vt 0.984375 0.318359
vt 0.076172 0.378906
vt 0.015625 0.378906
vt 0.136719 0.378906
vt 0.197266 0.378906
vt 0.257812 0.378906
vt 0.318359 0.378906
vt 0.378906 0.378906
vt 0.439453 0.378906
vt 0.500000 0.378906
vt 0.560547 0.378906
vt 0.621094 0.378906
vt 0.681641 0.378906
vt 0.742188 0.378906
vt 0.802734 0.378906
vt 0.863281 0.378906
vt 0.923828 0.378906
vt 0.984375 0.378906
vt 0.076172 0.439453
vt 0.015625 0.439453
vt 0.136719 0.439453
vt 0.197266 0.439453
vt 0.257812 0.439453
vt 0.318359 0.439453
vt 0.378906 0.439453
vt 0.439453 0.439453
vt 0.500000 0.439453
vt 0.560547 0.439453
vt 0.621094 0.439453
vt 0.681641 0.439453
vt 0.742188 0.439453
vt 0.802734 0.439453
vt 0.863281 0.439453
vt 0.923828 0.439453
vt 0.984375 0.439453
vt 0.076172 0.500000
vt 0.015625 0.500000
vt 0.136719 0.500000
vt 0.197266 0.500000
vt 0.257812 0.500000
vt 0.318359 0.500000
vt 0.378906 0.500000
vt 0.439453 0.500000
vt 0.500000 0.500000
vt 0.560547 0.500000
vt 0.621094 0.500000
vt 0.681641 0.500000
vt 0.742188 0.500000
vt 0.802734 0.500000
vt 0.863281 0.500000
vt 0.923828 0.500000
vt 0.984375 0.500000
vt 0.076172 0.560547
vt 0.015625 0.560547
vt 0.136719 0.560547
vt 0.197266 0.560547
vt 0.257812 0.560547
vt 0.318359 0.560547
vt 0.378906 0.560547
vt 0.439453 0.560547
vt 0.500000 0.560547
vt 0.560547 0.560547
vt 0.621094 0.560547
vt 0.681641 0.560547
vt 0.742188 0.560547
vt 0.802734 0.560547
vt 0.863281 0.560547
vt 0.923828 0.560547
vt 0.984375 0.560547
vt 0.076172 0.621094
vt 0.015625 0.621094
vt 0.136719 0.621094
vt 0.197266 0.621094
vt 0.257812 0.621094
vt 0.318359 0.621094
vt 0.378906 0.621094
vt 0.439453 0.621094
vt 0.500000 0.621094
vt 0.560547 0.621094
vt 0.621094 0.621094
vt 0.681641 0.621094
vt 0.742188 0.621094
vt 0.802734 0.621094
vt 0.863281 0.621094
vt 0.923828 0.621094
vt 0.984375 0.621094
vt 0.076172 0.681641
vt 0.015625 0.681641
vt 0.136719 0.681641
vt 0.197266 0.681641
vt 0.257812 0.681641
vt 0.318359 0.681641
vt 0.378906 0.681641
vt 0.439453 0.681641
vt 0.500000 0.681641
vt 0.560547 0.681641
vt 0.621094 0.681641
vt 0.681641 0.681641
vt 0.742188 0.681641
vt 0.802734 0.681641
vt 0.863281 0.681641
vt 0.923828 0.681641
vt 0.984375 0.681641
vt 0.076172 0.742188
vt 0.015625 0.742188
vt 0.136719 0.742188
vt 0.197266 0.742188
vt 0.257812 0.742188
vt 0.318359 0.742188
vt 0.378906 0.742188
vt 0.439453 0.742188
vt 0.500000 0.742188
vt 0.560547 0.742188
vt 0.621094 0.742188
vt 0.681641 0.742188
vt 0.742188 0.742188
vt 0.802734 0.742188
vt 0.863281 0.742188
vt 0.923828 0.742188
vt 0.984375 0.742188
vt 0.076172 0.802734
vt 0.015625 0.802734
vt 0.136719 0.802734
vt 0.197266 0.802734
vt 0.257812 0.802734
vt 0.318359 0.802734
vt 0.378906 0.802734
vt 0.439453 0.802734
vt 0.500000 0.802734
vt 0.560547 0.802734
vt 0.621094 0.802734
vt 0.681641 0.802734
vt 0.742188 0.802734
vt 0.802734 0.802734
vt 0.863281 0.802734
vt 0.923828 0.802734
vt 0.984375 0.802734
vt 0.076172 0.863281
vt 0.015625 0.863281
vt 0.136719 0.863281
vt 0.197266 0.863281
vt 0.257812 0.863281
vt 0.318359 0.863281
vt 0.378906 0.863281
vt 0.439453 0.863281
vt 0.500000 0.863281
vt 0.560547 0.863281
vt 0.621094 0.863281
vt 0.681641 0.863281
vt 0.742188 0.863281
vt 0.802734 0.863281
vt 0.863281 0.863281
vt 0.923828 0.863281
vt 0.984375 0.863281
vt 0.076172 0.923828
vt 0.015625 0.923828
vt 0.136719 0.923828
vt 0.197266 0.923828
vt 0.257812 0.923828
vt 0.318359 0.923828
vt 0.378906 0.923828
vt 0.439453 0.923828
vt 0.500000 0.923828
vt 0.560547 0.923828
vt 0.621094 0.923828
vt 0.681641 0.923828
vt 0.742188 0.923828
vt 0.802734 0.923828
vt 0.863281 0.923828
vt 0.923828 0.923828
vt 0.984375 0.923828
vt 0.076172 0.984375
vt 0.015625 0.984375
vt 0.136719 0.984375
vt 0.197266 0.984375
vt 0.257812 0.984375
vt 0.318359 0.984375
vt 0.378906 0.984375
vt 0.439453 0.984375
vt 0.500000 0.984375
vt 0.560547 0.984375
vt 0.621094 0.984375
vt 0.681641 0.984375
vt 0.742188 0.984375
vt 0.802734 0.984375
vt 0.863281 0.984375
vt 0.923828 0.984375
vt 0.984375 0.984375
s 1
f 1/1/1 2/2/2 19/3/3
f 1/1/1 19/3/3 18/4/4
f 2/2/2 3/5/5 20/6/6
f 2/2/2 20/6/6 19/3/3
f 3/5/5 4/7/7 21/8/8
f 3/5/5 21/8/8 20/6/6
f 4/7/7 5/9/9 22/10/10
f 4/7/7 22/10/10 21/8/8
f 5/9/9 6/11/11 23/12/12
f 5/9/9 23/12/12 22/10/10
f 6/11/11 7/13/13 24/14/14
f 6/11/11 24/14/14 23/12/12
f 7/13/13 8/15/15 25/16/16
f 7/13/13 25/16/16 24/14/14
f 8/15/15 9/17/17 26/18/18
f 8/15/15 26/18/18 25/16/16
f 9/17/17 10/19/19 27/20/20
f 9/17/17 27/20/20 26/18/18
f 10/19/19 11/21/21 28/22/22
f 10/19/19 28/22/22 27/20/20
f 11/21/21 12/23/23 29/24/24
f 11/21/21 29/24/24 28/22/22
f 12/23/23 13/25/25 30/26/26
f 12/23/23 30/26/26 29/24/24
f 13/25/25 14/27/27 31/28/28
f 13/25/25 31/28/28 30/26/26
f 14/27/27 15/29/29 32/30/30
f 14/27/27 32/30/30 31/28/28
f 15/29/29 16/31/31 33/32/32
f 15/29/29 33/32/32 32/30/30
f 16/31/31 17/33/33 34/34/34
f 16/31/31 34/34/34 33/32/32
f 18/4/4 19/3/3 36/35/35
f 18/4/4 36/35/35 35/36/36
f 19/3/3 20/6/6 37/37/37
f 19/3/3 37/37/37 36/35/35
f 20/6/6 21/8/8 38/38/38
f 20/6/6 38/38/38 37/37/37
f 21/8/8 22/10/10 39/39/39
f 21/8/8 39/39/39 38/38/38
f 22/10/10 23/12/12 40/40/40
f 22/10/10 40/40/40 39/39/39
f 23/12/12 24/14/14 41/41/41
f 23/12/12 41/41/41 40/40/40
f 24/14/14 25/16/16 42/42/42
f 24/14/14 42/42/42 41/41/41
f 25/16/16 26/18/18 43/43/43
f 25/16/16 43/43/43 42/42/42
f 26/18/18 27/20/20 44/44/44
f 26/18/18 44/44/44 43/43/43
f 27/20/20 28/22/22 45/45/45
f 27/20/20 45/45/45 44/44/44
f 28/22/22 29/24/24 46/46/46
f 28/22/22 46/46/46 45/45/45
f 29/24/24 30/26/26 47/47/47
f 29/24/24 47/47/47 46/46/46
f 30/26/26 31/28/28 48/48/48
f 30/26/26 48/48/48 47/47/47
f 31/28/28 32/30/30 49/49/49
f 31/28/28 49/49/49 48/48/48
f 32/30/30 33/32/32 50/50/50
f 32/30/30 50/50/50 49/49/49
f 33/32/32 34/34/34 51/51/51
f 33/32/32 51/51/51 50/50/50
f 35/36/36 36/35/35 53/52/52
f 35/36/36 53/52/52 52/53/53
f 36/35/35 37/37/37 54/54/54
f 36/35/35 54/54/54 53/52/52
f 37/37/37 38/38/38 55/55/55
f 37/37/37 55/55/55 54/54/54
f 38/38/38 39/39/39 56/56/56
f 38/38/38 56/56/56 55/55/55
f 39/39/39 40/40/40 57/57/57
f 39/39/39 57/57/57 56/56/56
f 40/40/40 41/41/41 58/58/58
f 40/40/40 58/58/58 57/57/57
f 41/41/41 42/42/42 59/59/59
f 41/41/41 59/59/59 58/58/58
f 42/42/42 43/43/43 60/60/60
f 42/42/42 60/60/60 59/59/59
f 43/43/43 44/44/44 61/61/61
f 43/43/43 61/61/61 60/60/60
f 44/44/44 45/45/45 62/62/62
f 44/44/44 62/62/62 61/61/61
f 45/45/45 46/46/46 63/63/63
f 45/45/45 63/63/63 62/62/62
f 46/46/46 47/47/47 64/64/64
f 46/46/46 64/64/64 63/63/63
f 47/47/47 48/48/48 65/65/65
f 47/47/47 65/65/65 64/64/64
f 48/48/48 49/49/49 66/66/66
f 48/48/48 66/66/66 65/65/65
f 49/49/49 50/50/50 67/67/67
f 49/49/49 67/67/67 66/66/66
f 50/50/50 51/51/51 68/68/68
f 50/50/50 68/68/68 67/67/67
f 52/53/53 53/52/52 70/69/69
f 52/53/53 70/69/69 69/70/70
f 53/52/52 54/54/54 71/71/71
f 53/52/52 71/71/71 70/69/69
f 54/54/54 55/55/55 72/72/72
f 54/54/54 72/72/72 71/71/71
f 55/55/55 56/56/56 73/73/73
f 55/55/55 73/73/73 72/72/72
f 56/56/56 57/57/57 74/74/74
f 56/56/56 74/74/74 73/73/73
f 57/57/57 58/58/58 75/75/75
f 57/57/57 75/75/75 74/74/74
f 58/58/58 59/59/59 76/76/76
f 58/58/58 76/76/76 75/75/75
f 59/59/59 60/60/60 77/77/77
f 59/59/59 77/77/77 76/76/76
f 60/60/60 61/61/61 78/78/78
f 60/60/60 78/78/78 77/77/77
f 61/61/61 62/62/62 79/79/79
f 61/61/61 79/79/79 78/78/78
f 62/62/62 63/63/63 80/80/80
f 62/62/62 80/80/80 79/79/79
f 63/63/63 64/64/64 81/81/81
f 63/63/63 81/81/81 80/80/80
f 64/64/64 65/65/65 82/82/82
f 64/64/64 82/82/82 81/81/81
f 65/65/65 66/66/66 83/83/83
f 65/65/65 83/83/83 82/82/82
f 66/66/66 67/67/67 84/84/84
f 66/66/66 84/84/84 83/83/83
f 67/67/67 68/68/68 85/85/85
f 67/67/67 85/85/85 84/84/84
f 69/70/70 70/69/69 87/86/86
f 69/70/70 87/86/86 86/87/87
f 70/69/69 71/71/71 88/88/88
f 70/69/69 88/88/88 87/86/86
f 71/71/71 72/72/72 89/89/89
f 71/71/71 89/89/89 88/88/88
f 72/72/72 73/73/73 90/90/90
f 72/72/72 90/90/90 89/89/89
f 73/73/73 74/74/74 91/91/91
f 73/73/73 91/91/91 90/90/90
f 74/74/74 75/75/75 92/92/92
f 74/74/74 92/92/92 91/91/91
f 75/75/75 76/76/76 93/93/93
f 75/75/75 93/93/93 92/92/92
f 76/76/76 77/77/77 94/94/94
f 76/76/76 94/94/94 93/93/93
f 77/77/77 78/78/78 95/95/95
f 77/77/77 95/95/95 94/94/94
f 78/78/78 79/79/79 96/96/96
f 78/78/78 96/96/96 95/95/95
f 79/79/79 80/80/80 97/97/97
f 79/79/79 97/97/97 96/96/96
f 80/80/80 81/81/81 98/98/98
f 80/80/80 98/98/98 97/97/97
f 81/81/81 82/82/82 99/99/99
f 81/81/81 99/99/99 98/98/98
f 82/82/82 83/83/83 100/100/100
f 82/82/82 100/100/100 99/99/99
f 83/83/83 84/84/84 101/101/101
f 83/83/83 101/101/101 100/100/100
f 84/84/84 85/85/85 102/102/102
f 84/84/84 102/102/102 101/101/101
f 86/87/87 87/86/86 104/103/103
f 86/87/87 104/103/103 103/104/104
f 87/86/86 88/88/88 105/105/105
f 87/86/86 105/105/105 104/103/103
f 88/88/88 89/89/89 106/106/106
f 88/88/88 106/106/106 105/105/105
f 89/89/89 90/90/90 107/107/107
f 89/89/89 107/107/107 106/106/106
f 90/90/90 91/91/91 108/108/108
f 90/90/90 108/108/108 107/107/107
f 91/91/91 92/92/92 109/109/109
f 91/91/91 109/109/109 108/108/108
f 92/92/92 93/93/93 110/110/110
f 92/92/92 110/110/110 109/109/109
f 93/93/93 94/94/94 111/111/111
f 93/93/93 111/111/111 110/110/110
f 94/94/94 95/95/95 112/112/112
f 94/94/94 112/112/112 111/111/111
f 95/95/95 96/96/96 113/113/113
f 95/95/95 113/113/113 112/112/112
f 96/96/96 97/97/97 114/114/114
f 96/96/96 114/114/114 113/113/113
f 97/97/97 98/98/98 115/115/115
f 97/97/97 115/115/115 114/114/114
f 98/98/98 99/99/99 116/116/116
f 98/98/98 116/116/116 115/115/115
f 99/99/99 100/100/100 117/117/117
f 99/99/99 117/117/117 116/116/116
f 100/100/100 101/101/101 118/118/118
f 100/100/100 118/118/118 117/117/117
f 101/101/101 102/102/102 119/119/119
f 101/101/101 119/119/119 118/118/118
f 103/104/104 104/103/103 121/120/120
f 103/104/104 121/120/120 120/121/121
f 104/103/103 105/105/105 122/122/122
f 104/103/103 122/122/122 121/120/120
f 105/105/105 106/106/106 123/123/123
f 105/105/105 123/123/123 122/122/122
f 106/106/106 107/107/107 124/124/124
f 106/106/106 124/124/124 123/123/123
f 107/107/107 108/108/108 125/125/125
f 107/107/107 125/125/125 124/124/124
f 108/108/108 109/109/109 126/126/126
f 108/108/108 126/126/126 125/125/125
f 109/109/109 110/110/110 127/127/127
f 109/109/109 127/127/127 126/126/126
f 110/110/110 111/111/111 128/128/128
f 110/110/110 128/128/128 127/127/127
f 111/111/111 112/112/112 129/129/129
f 111/111/111 129/129/129 128/128/128
f 112/112/112 113/113/113 130/130/130
f 112/112/112 130/130/130 129/129/129
f 113/113/113 114/114/114 131/131/131
f 113/113/113 131/131/131 130/130/130
f 114/114/114 115/115/115 132/132/132
f 114/114/114 132/132/132 131/131/131
f 115/115/115 116/116/116 133/133/133
f 115/115/115 133/133/133 132/132/132
f 116/116/116 117/117/117 134/134/134
f 116/116/116 134/134/134 133/133/133
f 117/117/117 118/118/118 135/135/135
f 117/117/117 135/135/135 134/134/134
f 118/118/118 119/119/119 136/136/136
f 118/118/118 136/136/136 135/135/135
f 120/121/121 121/120/120 138/137/137
f 120/121/121 138/137/137 137/138/138
f 121/120/120 122/122/122 139/139/139
f 121/120/120 139/139/139 138/137/137
f 122/122/122 123/123/123 140/140/140
f 122/122/122 140/140/140 139/139/139
f 123/123/123 124/124/124 141/141/141
f 123/123/123 141/141/141 140/140/140
f 124/124/124 125/125/125 142/142/142
f 124/124/124 142/142/142 141/141/141
f 125/125/125 126/126/126 143/143/143
f 125/125/125 143/143/143 142/142/142
f 126/126/126 127/127/127 144/144/144
f 126/126/126 144/144/144 143/143/143
f 127/127/127 128/128/128 145/145/145
f 127/127/127 145/145/145 144/144/144
f 128/128/128 129/129/129 146/146/146
f 128/128/128 146/146/146 145/145/145
f 129/129/129 130/130/130 147/147/147
f 129/129/129 147/147/147 146/146/146
f 130/130/130 131/131/131 148/148/148
f 130/130/130 148/148/148 147/147/147
f 131/131/131 132/132/132 149/149/149
f 131/131/131 149/149/149 148/148/148
f 132/132/132 133/133/133 150/150/150
f 132/132/132 150/150/150 149/149/149
f 133/133/133 134/134/134 151/151/151
f 133/133/133 151/151/151 150/150/150
f 134/134/134 135/135/135 152/152/152
f 134/134/134 152/152/152 151/151/151
f 135/135/135 136/136/136 153/153/153
f 135/135/135 153/153/153 152/152/152
f 137/138/138 138/137/137 155/154/154
f 137/138/138 155/154/154 154/155/155
f 138/137/137 139/139/139 156/156/156
f 138/137/137 156/156/156 155/154/154
f 139/139/139 140/140/140 157/157/157
f 139/139/139 157/157/157 156/156/156
f 140/140/140 141/141/141 158/158/158
f 140/140/140 158/158/158 157/157/157
f 141/141/141 142/142/142 159/159/159
f 141/141/141 159/159/159 158/158/158
f 142/142/142 143/143/143 160/160/160
f 142/142/142 160/160/160 159/159/159
f 143/143/143 144/144/144 161/161/161
f 143/143/143 161/161/161 160/160/160
f 144/144/144 145/145/145 162/162/162
f 144/144/144 162/162/162 161/161/161
f 145/145/145 146/146/146 163/163/163
f 145/145/145 163/163/163 162/162/162
f 146/146/146 147/147/147 164/164/164
f 146/146/146 164/164/164 163/163/163
f 147/147/147 148/148/148 165/165/165
f 147/147/147 165/165/165 164/164/164
f 148/148/148 149/149/149 166/166/166
f 148/148/148 166/166/166 165/165/165
f 149/149/149 150/150/150 167/167/167
f 149/149/149 167/167/167 166/166/166
f 150/150/150 151/151/151 168/168/168
f 150/150/150 168/168/168 167/167/167
f 151/151/151 152/152/152 169/169/169
f 151/151/151 169/169/169 168/168/168
f 152/152/152 153/153/153 170/170/170
f 152/152/152 170/170/170 169/169/169
f 154/155/155 155/154/154 172/171/171
f 154/155/155 172/171/171 171/172/172
f 155/154/154 156/156/156 173/173/173
f 155/154/154 173/173/173 172/171/171
f 156/156/156 157/157/157 174/174/174
f 156/156/156 174/174/174 173/173/173
f 157/157/157 158/158/158 175/175/175
f 157/157/157 175/175/175 174/174/174
f 158/158/158 159/159/159 176/176/176
f 158/158/158 176/176/176 175/175/175
f 159/159/159 160/160/160 177/177/177
f 159/159/159 177/177/177 176/176/176
f 160/160/160 161/161/161 178/178/178
f 160/160/160 178/178/178 177/177/177
f 161/161/161 162/162/162 179/179/179
f 161/161/161 179/179/179 178/178/178
f 162/162/162 163/163/163 180/180/180
f 162/162/162 180/180/180 179/179/179
f 163/163/163 164/164/164 181/181/181
f 163/163/163 181/181/181 180/180/180
f 164/164/164 165/165/165 182/182/182
f 164/164/164 182/182/182 181/181/181
f 165/165/165 166/166/166 183/183/183
f 165/165/165 183/183/183 182/182/182
f 166/166/166 167/167/167 184/184/184
f 166/166/166 184/184/184 183/183/183
f 167/167/167 168/168/168 185/185/185
f 167/167/167 185/185/185 184/184/184
f 168/168/168 169/169/169 186/186/186
f 168/168/168 186/186/186 185/185/185
f 169/169/169 170/170/170 187/187/187
f 169/169/169 187/187/187 186/186/186
f 171/172/172 172/171/171 189/188/188
f 171/172/172 189/188/188 188/189/189
f 172/171/171 173/173/173 190/190/190
f 172/171/171 190/190/190 189/188/188
f 173/173/173 174/174/174 191/191/191
f 173/173/173 191/191/191 190/190/190
f 174/174/174 175/175/175 192/192/192
f 174/174/174 192/192/192 191/191/191
f 175/175/175 176/176/176 193/193/193
f 175/175/175 193/193/193 192/192/192
f 176/176/176 177/177/177 194/194/194
f 176/176/176 194/194/194 193/193/193
f 177/177/177 178/178/178 195/195/195
f 177/177/177 195/195/195 194/194/194
f 178/178/178 179/179/179 196/196/196
f 178/178/178 196/196/196 195/195/195
f 179/179/179 180/180/180 197/197/197
f 179/179/179 197/197/197 196/196/196
f 180/180/180 181/181/181 198/198/198
f 180/180/180 198/198/198 197/197/197
f 181/181/181 182/182/182 199/199/199
f 181/181/181 199/199/199 198/198/198
f 182/182/182 183/183/183 200/200/200
f 182/182/182 200/200/200 199/199/199
f 183/183/183 184/184/184 201/201/201
f 183/183/183 201/201/201 200/200/200
f 184/184/184 185/185/185 202/202/202
f 184/184/184 202/202/202 201/201/201
f 185/185/185 186/186/186 203/203/203
f 185/185/185 203/203/203 202/202/202
f 186/186/186 187/187/187 204/204/204
f 186/186/186 204/204/204 203/203/203
f 188/189/189 189/188/188 206/205/205
f 188/189/189 206/205/205 205/206/206
f 189/188/188 190/190/190 207/207/207
f 189/188/188 207/207/207 206/205/205
f 190/190/190 191/191/191 208/208/208
f 190/190/190 208/208/208 207/207/207
f 191/191/191 192/192/192 209/209/209
f 191/191/191 209/209/209 208/208/208
f 192/192/192 193/193/193 210/210/210
f 192/192/192 210/210/210 209/209/209
f 193/193/193 194/194/194 211/211/211
f 193/193/193 211/211/211 210/210/210
f 194/194/194 195/195/195 212/212/212
f 194/194/194 212/212/212 211/211/211
f 195/195/195 196/196/196 213/213/213
f 195/195/195 213/213/213 212/212/212
f 196/196/196 197/197/197 214/214/214
f 196/196/196 214/214/214 213/213/213
f 197/197/197 198/198/198 215/215/215
f 197/197/197 215/215/215 214/214/214
f 198/198/198 199/199/199 216/216/216
f 198/198/198 216/216/216 215/215/215
f 199/199/199 200/200/200 217/217/217
f 199/199/199 217/217/217 216/216/216
f 200/200/200 201/201/201 218/218/218
f 200/200/200 218/218/218 217/217/217
f 201/201/201 202/202/202 219/219/219
f 201/201/201 219/219/219 218/218/218
f 202/202/202 203/203/203 220/220/220
f 202/202/202 220/220/220 219/219/219
f 203/203/203 204/204/204 221/221/221
f 203/203/203 221/221/221 220/220/220
f 205/206/206 206/205/205 223/222/222
f 205/206/206 223/222/222 222/223/223
f 206/205/205 207/207/207 224/224/224
f 206/205/205 224/224/224 223/222/222
f 207/207/207 208/208/208 225/225/225
f 207/207/207 225/225/225 224/224/224
f 208/208/208 209/209/209 226/226/226
f 208/208/208 226/226/226 225/225/225
f 209/209/209 210/210/210 227/227/227
f 209/209/209 227/227/227 226/226/226
f 210/210/210 211/211/211 228/228/228
f 210/210/210 228/228/228 227/227/227
f 211/211/211 212/212/212 229/229/229
f 211/211/211 229/229/229 228/228/228
f 212/212/212 213/213/213 230/230/230
f 212/212/212 230/230/230 229/229/229
f 213/213/213 214/214/214 231/231/231
f 213/213/213 231/231/231 230/230/230
f 214/214/214 215/215/215 232/232/232
f 214/214/214 232/232/232 231/231/231
f 215/215/215 216/216/216 233/233/233
f 215/215/215 233/233/233 232/232/232
f 216/216/216 217/217/217 234/234/234
f 216/216/216 234/234/234 233/233/233
f 217/217/217 218/218/218 235/235/235
f 217/217/217 235/235/235 234/234/234
f 218/218/218 219/219/219 236/236/236
f 218/218/218 236/236/236 235/235/235
f 219/219/219 220/220/220 237/237/237
f 219/219/219 237/237/237 236/236/236
f 220/220/220 221/221/221 238/238/238
f 220/220/220 238/238/238 237/237/237
f 222/223/223 223/222/222 240/239/239
f 222/223/223 240/239/239 239/240/240
f 223/222/222 224/224/224 241/241/241
f 223/222/222 241/241/241 240/239/239
f 224/224/224 225/225/225 242/242/242
f 224/224/224 242/242/242 241/241/241
f 225/225/225 226/226/226 243/243/243
f 225/225/225 243/243/243 242/242/242
f 226/226/226 227/227/227 244/244/244
f 226/226/226 244/244/244 243/243/243
f 227/227/227 228/228/228 245/245/245
f 227/227/227 245/245/245 244/244/244
f 228/228/228 229/229/229 246/246/246
f 228/228/228 246/246/246 245/245/245
f 229/229/229 230/230/230 247/247/247
f 229/229/229 247/247/247 246/246/246
f 230/230/230 231/231/231 248/248/248
f 230/230/230 248/248/248 247/247/247
f 231/231/231 232/232/232 249/249/249
f 231/231/231 249/249/249 248/248/248
f 232/232/232 233/233/233 250/250/250
f 232/232/232 250/250/250 249/249/249
f 233/233/233 234/234/234 251/251/251
f 233/233/233 251/251/251 250/250/250
f 234/234/234 235/235/235 252/252/252
f 234/234/234 252/252/252 251/251/251
f 235/235/235 236/236/236 253/253/253
f 235/235/235 253/253/253 252/252/252
f 236/236/236 237/237/237 254/254/254
f 236/236/236 254/254/254 253/253/253
f 237/237/237 238/238/238 255/255/255
f 237/237/237 255/255/255 254/254/254
f 239/240/240 240/239/239 257/256/256
f 239/240/240 257/256/256 256/257/257
f 240/239/239 241/241/241 258/258/258
f 240/239/239 258/258/258 257/256/256
f 241/241/241 242/242/242 259/259/259
f 241/241/241 259/259/259 258/258/258
f 242/242/242 243/243/243 260/260/260
f 242/242/242 260/260/260 259/259/259
f 243/243/243 244/244/244 261/261/261
f 243/243/243 261/261/261 260/260/260
f 244/244/244 245/245/245 262/262/262
f 244/244/244 262/262/262 261/261/261
f 245/245/245 246/246/246 263/263/263
f 245/245/245 263/263/263 262/262/262
f 246/246/246 247/247/247 264/264/264
f 246/246/246 264/264/264 263/263/263
f 247/247/247 248/248/248 265/265/265
f 247/247/247 265/265/265 264/264/264
f 248/248/248 249/249/249 266/266/266
f 248/248/248 266/266/266 265/265/265
f 249/249/249 250/250/250 267/267/267
f 249/249/249 267/267/267 266/266/266
f 250/250/250 251/251/251 268/268/268
f 250/250/250 268/268/268 267/267/267
f 251/251/251 252/252/252 269/269/269
f 251/251/251 269/269/269 268/268/268
f 252/252/252 253/253/253 270/270/270
f 252/252/252 270/270/270 269/269/269
f 253/253/253 254/254/254 271/271/271
f 253/253/253 271/271/271 270/270/270
f 254/254/254 255/255/255 272/272/272
f 254/254/254 272/272/272 271/271/271
f 256/257/257 257/256/256 274/273/273
f 256/257/257 274/273/273 273/274/274
f 257/256/256 258/258/258 275/275/275
f 257/256/256 275/275/275 274/273/273
f 258/258/258 259/259/259 276/276/276
f 258/258/258 276/276/276 275/275/275
f 259/259/259 260/260/260 277/277/277
f 259/259/259 277/277/277 276/276/276
f 260/260/260 261/261/261 278/278/278
f 260/260/260 278/278/278 277/277/277
f 261/261/261 262/262/262 279/279/279
f 261/261/261 279/279/279 278/278/278
f 262/262/262 263/263/263 280/280/280
f 262/262/262 280/280/280 279/279/279
f 263/263/263 264/264/264 281/281/281
f 263/263/263 281/281/281 280/280/280
f 264/264/264 265/265/265 282/282/282
f 264/264/264 282/282/282 281/281/281
f 265/265/265 266/266/266 283/283/283
f 265/265/265 283/283/283 282/282/282
f 266/266/266 267/267/267 284/284/284
f 266/266/266 284/284/284 283/283/283
f 267/267/267 268/268/268 285/285/285
f 267/267/267 285/285/285 284/284/284
f 268/268/268 269/269/269 286/286/286
f 268/268/268 286/286/286 285/285/285
f 269/269/269 270/270/270 287/287/287
f 269/269/269 287/287/287 286/286/286
f 270/270/270 271/271/271 288/288/288
f 270/270/270 288/288/288 287/287/287
f 271/271/271 272/272/272 289/289/289
f 271/271/271 289/289/289 288/288/288
