mtllib terrain_far_02_05.mtl
usemtl terrain_far_02_05
# Blender 5.1.1
# www.blender.org
o terrain_far_02_05
v -320.000000 -320.000000 52.999165
v -280.000000 -320.000000 54.559460
v -240.000000 -320.000000 52.362694
v -200.000000 -320.000000 49.126450
v -160.000000 -320.000000 48.188026
v -120.000000 -320.000000 46.196774
v -80.000000 -320.000000 41.339840
v -40.000000 -320.000000 33.353504
v 0.000000 -320.000000 26.184805
v 40.000000 -320.000000 20.714996
v 80.000000 -320.000000 12.941831
v 120.000000 -320.000000 0.928098
v 160.000000 -320.000000 -10.489871
v 200.000000 -320.000000 -18.376753
v 240.000000 -320.000000 -25.339012
v 280.000000 -320.000000 -32.245438
v 320.000000 -320.000000 -37.946693
v -320.000000 -280.000000 48.059044
v -280.000000 -280.000000 44.516502
v -240.000000 -280.000000 42.412594
v -200.000000 -280.000000 35.485043
v -160.000000 -280.000000 31.088783
v -120.000000 -280.000000 28.179413
v -80.000000 -280.000000 23.421051
v -40.000000 -280.000000 15.573944
v 0.000000 -280.000000 11.264666
v 40.000000 -280.000000 8.603851
v 80.000000 -280.000000 4.461721
v 120.000000 -280.000000 -4.260406
v 160.000000 -280.000000 -13.071590
v 200.000000 -280.000000 -20.016685
v 240.000000 -280.000000 -26.792267
v 280.000000 -280.000000 -34.509720
v 320.000000 -280.000000 -44.437847
v -320.000000 -240.000000 49.910892
v -280.000000 -240.000000 37.502602
v -240.000000 -240.000000 30.228411
v -200.000000 -240.000000 20.468822
v -160.000000 -240.000000 13.434601
v -120.000000 -240.000000 9.744511
v -80.000000 -240.000000 5.407373
v -40.000000 -240.000000 -1.513268
v 0.000000 -240.000000 -5.421749
v 40.000000 -240.000000 -6.735300
v 80.000000 -240.000000 -9.425174
v 120.000000 -240.000000 -15.123932
v 160.000000 -240.000000 -20.776005
v 200.000000 -240.000000 -24.911108
v 240.000000 -240.000000 -29.942780
v 280.000000 -240.000000 -37.897694
v 320.000000 -240.000000 -45.986065
v -320.000000 -200.000000 49.541645
v -280.000000 -200.000000 38.249683
v -240.000000 -200.000000 28.285919
v -200.000000 -200.000000 17.788504
v -160.000000 -200.000000 9.427813
v -120.000000 -200.000000 2.587861
v -80.000000 -200.000000 -3.600026
v -40.000000 -200.000000 -9.034108
v 0.000000 -200.000000 -14.806718
v 40.000000 -200.000000 -21.561140
v 80.000000 -200.000000 -26.803150
v 120.000000 -200.000000 -30.295277
v 160.000000 -200.000000 -33.421917
v 200.000000 -200.000000 -35.567719
v 240.000000 -200.000000 -39.726532
v 280.000000 -200.000000 -48.415089
v 320.000000 -200.000000 -55.397533
v -320.000000 -160.000000 47.069435
v -280.000000 -160.000000 36.940231
v -240.000000 -160.000000 29.020992
v -200.000000 -160.000000 22.740788
v -160.000000 -160.000000 18.964983
v -120.000000 -160.000000 10.321266
v -80.000000 -160.000000 -1.023359
v -40.000000 -160.000000 -8.482072
v 0.000000 -160.000000 -14.210893
v 40.000000 -160.000000 -22.825510
v 80.000000 -160.000000 -31.625546
v 120.000000 -160.000000 -39.146263
v 160.000000 -160.000000 -45.440746
v 200.000000 -160.000000 -51.302929
v 240.000000 -160.000000 -57.522511
v 280.000000 -160.000000 -67.576477
v 320.000000 -160.000000 -76.212219
v -320.000000 -120.000000 48.866615
v -280.000000 -120.000000 39.423779
v -240.000000 -120.000000 30.750391
v -200.000000 -120.000000 24.263044
v -160.000000 -120.000000 18.978872
v -120.000000 -120.000000 12.449792
v -80.000000 -120.000000 3.773896
v -40.000000 -120.000000 -5.688032
v 0.000000 -120.000000 -11.131425
v 40.000000 -120.000000 -15.833804
v 80.000000 -120.000000 -23.998619
v 120.000000 -120.000000 -36.564003
v 160.000000 -120.000000 -46.838970
v 200.000000 -120.000000 -55.245975
v 240.000000 -120.000000 -66.454559
v 280.000000 -120.000000 -74.910431
v 320.000000 -120.000000 -73.760834
v -320.000000 -80.000000 41.512562
v -280.000000 -80.000000 35.538044
v -240.000000 -80.000000 30.650639
v -200.000000 -80.000000 22.458866
v -160.000000 -80.000000 14.338295
v -120.000000 -80.000000 8.682146
v -80.000000 -80.000000 3.636743
v -40.000000 -80.000000 -3.153825
v 0.000000 -80.000000 -7.506079
v 40.000000 -80.000000 -9.658382
v 80.000000 -80.000000 -18.610117
v 120.000000 -80.000000 -36.337208
v 160.000000 -80.000000 -45.956078
v 200.000000 -80.000000 -51.149437
v 240.000000 -80.000000 -65.029755
v 280.000000 -80.000000 -66.675781
v 320.000000 -80.000000 -56.006168
v -320.000000 -40.000000 33.190025
v -280.000000 -40.000000 25.192373
v -240.000000 -40.000000 20.049578
v -200.000000 -40.000000 13.871457
v -160.000000 -40.000000 6.571639
v -120.000000 -40.000000 2.223148
v -80.000000 -40.000000 -1.295901
v -40.000000 -40.000000 -5.897037
v 0.000000 -40.000000 -8.017893
v 40.000000 -40.000000 -8.904999
v 80.000000 -40.000000 -20.023651
v 120.000000 -40.000000 -38.039837
v 160.000000 -40.000000 -47.761913
v 200.000000 -40.000000 -51.320263
v 240.000000 -40.000000 -62.722332
v 280.000000 -40.000000 -55.614349
v 320.000000 -40.000000 -41.896500
v -320.000000 0.000000 40.688221
v -280.000000 0.000000 33.757164
v -240.000000 0.000000 21.169071
v -200.000000 0.000000 13.363895
v -160.000000 0.000000 10.486284
v -120.000000 0.000000 10.991561
v -80.000000 0.000000 9.153460
v -40.000000 0.000000 1.190739
v 0.000000 0.000000 -10.497650
v 40.000000 0.000000 -16.492083
v 80.000000 0.000000 -20.727779
v 120.000000 0.000000 -35.861961
v 160.000000 0.000000 -49.259048
v 200.000000 0.000000 -54.212067
v 240.000000 0.000000 -62.056011
v 280.000000 0.000000 -52.492775
v 320.000000 0.000000 -35.991409
v -320.000000 40.000000 57.171478
v -280.000000 40.000000 52.749176
v -240.000000 40.000000 40.820728
v -200.000000 40.000000 30.325361
v -160.000000 40.000000 23.160295
v -120.000000 40.000000 18.862640
v -80.000000 40.000000 15.531410
v -40.000000 40.000000 7.762842
v 0.000000 40.000000 -7.870073
v 40.000000 40.000000 -27.968027
v 80.000000 40.000000 -29.140247
v 120.000000 40.000000 -35.622330
v 160.000000 40.000000 -49.138832
v 200.000000 40.000000 -53.798595
v 240.000000 40.000000 -52.655373
v 280.000000 40.000000 -43.138817
v 320.000000 40.000000 -28.538448
v -320.000000 80.000000 76.803032
v -280.000000 80.000000 65.100891
v -240.000000 80.000000 52.612572
v -200.000000 80.000000 40.442429
v -160.000000 80.000000 28.968319
v -120.000000 80.000000 19.162418
v -80.000000 80.000000 10.810564
v -40.000000 80.000000 1.522919
v 0.000000 80.000000 -13.521053
v 40.000000 80.000000 -32.303646
v 80.000000 80.000000 -40.971386
v 120.000000 80.000000 -45.136883
v 160.000000 80.000000 -49.437061
v 200.000000 80.000000 -43.652409
v 240.000000 80.000000 -32.939590
v 280.000000 80.000000 -26.833546
v 320.000000 80.000000 -24.336353
v -320.000000 120.000000 90.929688
v -280.000000 120.000000 77.053490
v -240.000000 120.000000 62.597141
v -200.000000 120.000000 47.028587
v -160.000000 120.000000 33.067711
v -120.000000 120.000000 21.421045
v -80.000000 120.000000 10.794899
v -40.000000 120.000000 0.432011
v 0.000000 120.000000 -9.980933
v 40.000000 120.000000 -20.652536
v 80.000000 120.000000 -31.843407
v 120.000000 120.000000 -40.779583
v 160.000000 120.000000 -45.491680
v 200.000000 120.000000 -31.649858
v 240.000000 120.000000 -15.907609
v 280.000000 120.000000 -17.628061
v 320.000000 120.000000 -33.997250
v -320.000000 160.000000 99.367210
v -280.000000 160.000000 85.642593
v -240.000000 160.000000 70.327263
v -200.000000 160.000000 52.969032
v -160.000000 160.000000 39.038090
v -120.000000 160.000000 28.485430
v -80.000000 160.000000 18.855778
v -40.000000 160.000000 11.845985
v 0.000000 160.000000 3.996247
v 40.000000 160.000000 -6.839094
v 80.000000 160.000000 -19.903934
v 120.000000 160.000000 -34.552505
v 160.000000 160.000000 -39.809750
v 200.000000 160.000000 -21.558521
v 240.000000 160.000000 -9.880849
v 280.000000 160.000000 -21.596594
v 320.000000 160.000000 -44.363216
v -320.000000 200.000000 99.977173
v -280.000000 200.000000 86.504677
v -240.000000 200.000000 72.820969
v -200.000000 200.000000 59.407368
v -160.000000 200.000000 47.854267
v -120.000000 200.000000 37.852524
v -80.000000 200.000000 29.223663
v -40.000000 200.000000 18.917952
v 0.000000 200.000000 5.789792
v 40.000000 200.000000 -8.474388
v 80.000000 200.000000 -23.255463
v 120.000000 200.000000 -35.321842
v 160.000000 200.000000 -31.237335
v 200.000000 200.000000 -12.873708
v 240.000000 200.000000 -15.116458
v 280.000000 200.000000 -33.538982
v 320.000000 200.000000 -54.987869
v -320.000000 240.000000 97.611694
v -280.000000 240.000000 84.191612
v -240.000000 240.000000 71.880814
v -200.000000 240.000000 62.074322
v -160.000000 240.000000 52.232601
v -120.000000 240.000000 43.878281
v -80.000000 240.000000 34.213192
v -40.000000 240.000000 19.276209
v 0.000000 240.000000 1.764361
v 40.000000 240.000000 -15.843116
v 80.000000 240.000000 -30.929758
v 120.000000 240.000000 -30.268559
v 160.000000 240.000000 -16.816517
v 200.000000 240.000000 -10.142818
v 240.000000 240.000000 -28.027727
v 280.000000 240.000000 -49.090275
v 320.000000 240.000000 -60.994225
v -320.000000 280.000000 90.452576
v -280.000000 280.000000 77.654549
v -240.000000 280.000000 64.513496
v -200.000000 280.000000 55.653587
v -160.000000 280.000000 44.585175
v -120.000000 280.000000 35.772831
v -80.000000 280.000000 25.553810
v -40.000000 280.000000 10.665192
v 0.000000 280.000000 -7.072160
v 40.000000 280.000000 -24.012012
v 80.000000 280.000000 -29.001143
v 120.000000 280.000000 -15.647823
v 160.000000 280.000000 -5.347673
v 200.000000 280.000000 -15.137345
v 240.000000 280.000000 -40.767406
v 280.000000 280.000000 -58.336037
v 320.000000 280.000000 -53.877186
v -320.000000 320.000000 75.077118
v -280.000000 320.000000 61.170383
v -240.000000 320.000000 49.031246
v -200.000000 320.000000 39.731983
v -160.000000 320.000000 28.168285
v -120.000000 320.000000 17.353832
v -80.000000 320.000000 8.220354
v -40.000000 320.000000 -4.062801
v 0.000000 320.000000 -18.582983
v 40.000000 320.000000 -26.859703
v 80.000000 320.000000 -18.472754
v 120.000000 320.000000 -5.788835
v 160.000000 320.000000 -5.893652
v 200.000000 320.000000 -26.368134
v 240.000000 320.000000 -49.645679
v 280.000000 320.000000 -53.854305
v 320.000000 320.000000 -43.659298
vn 0.0482 0.1522 0.9872
vn 0.0078 0.2170 0.9761
vn 0.0691 0.2080 0.9757
vn 0.1693 0.0380 0.9848
vn 0.0661 0.2188 0.9735
vn 0.1081 0.2651 0.9581
vn 0.0502 0.2695 0.9617
vn 0.1321 0.3343 0.9332
vn 0.0348 0.3128 0.9492
vn 0.0835 0.3971 0.9140
vn 0.0809 0.3163 0.9452
vn 0.0869 0.4130 0.9066
vn 0.1510 0.3041 0.9406
vn 0.1423 0.4056 0.9029
vn 0.1766 0.3159 0.9322
vn 0.1379 0.3956 0.9080
vn 0.1493 0.2900 0.9453
vn 0.0808 0.3662 0.9270
vn 0.1576 0.2611 0.9524
vn 0.0802 0.3235 0.9428
vn 0.2355 0.1941 0.9523
vn 0.1530 0.2661 0.9517
vn 0.2789 0.1252 0.9521
vn 0.2102 0.1923 0.9586
vn 0.2339 0.0778 0.9692
vn 0.1917 0.1251 0.9734
vn 0.1822 0.0576 0.9816
vn 0.1685 0.0802 0.9824
vn 0.1705 0.0648 0.9832
vn 0.1780 0.0565 0.9824
vn 0.1552 0.0803 0.9846
vn 0.2149 0.0688 0.9742
vn 0.1310 0.1445 0.9808
vn 0.2085 0.0978 0.9731
vn 0.2382 0.0758 0.9682
vn 0.2396 -0.0180 0.9707
vn 0.2052 0.1702 0.9638
vn 0.2008 0.2116 0.9565
vn 0.1283 0.2592 0.9573
vn 0.0952 0.3033 0.9481
vn 0.1322 0.3172 0.9391
vn 0.1283 0.2916 0.9479
vn 0.0620 0.3093 0.9490
vn 0.0468 0.3524 0.9347
vn 0.0972 0.3622 0.9270
vn 0.1337 0.3067 0.9424
vn 0.1177 0.2448 0.9624
vn 0.1118 0.1896 0.9755
vn 0.1582 0.1576 0.9747
vn 0.1938 0.1680 0.9665
vn 0.1987 0.1330 0.9710
vn 0.2568 0.0068 0.9664
vn 0.2105 0.0347 0.9770
vn 0.2478 0.0146 0.9687
vn 0.2294 -0.0276 0.9730
vn 0.1862 -0.0678 0.9802
vn 0.1607 -0.0071 0.9870
vn 0.1433 0.0793 0.9865
vn 0.1382 0.0860 0.9867
vn 0.1538 0.1080 0.9822
vn 0.1454 0.1951 0.9699
vn 0.1047 0.2659 0.9583
vn 0.0790 0.2867 0.9548
vn 0.0629 0.2940 0.9537
vn 0.0746 0.3124 0.9470
vn 0.1501 0.3222 0.9347
vn 0.1807 0.3421 0.9221
vn 0.1577 0.3490 0.9237
vn 0.2201 -0.0143 0.9754
vn 0.2189 0.0082 0.9757
vn 0.1747 -0.0303 0.9842
vn 0.1241 -0.0798 0.9891
vn 0.1523 -0.1172 0.9814
vn 0.2407 -0.1188 0.9633
vn 0.2279 -0.0894 0.9696
vn 0.1625 -0.0412 0.9858
vn 0.1763 -0.0452 0.9833
vn 0.2122 -0.0698 0.9747
vn 0.1998 -0.0343 0.9792
vn 0.1697 0.0768 0.9825
vn 0.1482 0.1636 0.9753
vn 0.1451 0.2363 0.9608
vn 0.1894 0.3112 0.9313
vn 0.2165 0.3069 0.9268
vn 0.1620 0.2208 0.9618
vn 0.2208 0.0171 0.9752
vn 0.2074 0.0678 0.9759
vn 0.1861 -0.0200 0.9823
vn 0.1456 0.0035 0.9893
vn 0.1458 0.0571 0.9877
vn 0.1867 0.0201 0.9822
vn 0.2208 -0.0568 0.9737
vn 0.1828 -0.0653 0.9810
vn 0.1254 -0.0829 0.9886
vn 0.1567 -0.1604 0.9745
vn 0.2476 -0.1554 0.9563
vn 0.2744 -0.0337 0.9610
vn 0.2274 0.0063 0.9738
vn 0.2382 -0.0019 0.9712
vn 0.2377 0.0908 0.9671
vn 0.0909 -0.0112 0.9958
vn -0.0075 -0.2449 0.9695
vn 0.1325 0.1736 0.9759
vn 0.1739 0.1894 0.9664
vn 0.1600 0.1309 0.9784
vn 0.1982 0.1262 0.9720
vn 0.1678 0.1511 0.9742
vn 0.1315 0.1257 0.9833
vn 0.1461 0.0626 0.9873
vn 0.1380 0.0026 0.9904
vn 0.0810 -0.0387 0.9960
vn 0.1370 -0.0855 0.9869
vn 0.3160 -0.0471 0.9476
vn 0.3234 0.0174 0.9461
vn 0.1820 0.0113 0.9832
vn 0.2317 -0.0476 0.9716
vn 0.1903 -0.0458 0.9807
vn -0.1090 -0.2331 0.9663
vn -0.1469 -0.3660 0.9189
vn 0.1620 0.0220 0.9865
vn 0.1629 0.0102 0.9866
vn 0.1392 0.1165 0.9834
vn 0.1651 0.1114 0.9800
vn 0.1439 0.0476 0.9884
vn 0.0978 -0.0287 0.9948
vn 0.1008 -0.0684 0.9926
vn 0.0836 -0.0540 0.9950
vn 0.0376 0.0373 0.9986
vn 0.1479 0.0842 0.9854
vn 0.3421 0.0249 0.9393
vn 0.3276 -0.0056 0.9448
vn 0.1636 0.0407 0.9857
vn 0.1837 0.0376 0.9823
vn 0.0535 -0.0371 0.9979
vn -0.2481 -0.1693 0.9538
vn -0.2197 -0.2368 0.9464
vn 0.2248 -0.3173 0.9213
vn 0.1227 -0.2850 0.9506
vn 0.2395 -0.2440 0.9397
vn 0.1297 -0.1998 0.9712
vn 0.0290 -0.2029 0.9788
vn 0.0163 -0.2036 0.9789
vn 0.1190 -0.2044 0.9716
vn 0.2354 -0.1636 0.9580
vn 0.2158 -0.0018 0.9764
vn 0.1234 0.2300 0.9653
vn 0.2339 0.1101 0.9660
vn 0.3358 -0.0285 0.9415
vn 0.2235 0.0168 0.9745
vn 0.1579 0.0306 0.9870
vn -0.0213 -0.1248 0.9920
vn -0.3064 -0.1467 0.9405
vn -0.3148 -0.1563 0.9362
vn 0.1870 -0.3583 0.9147
vn 0.0956 -0.4096 0.9073
vn 0.2524 -0.3540 0.9006
vn 0.2047 -0.3138 0.9272
vn 0.1382 -0.2229 0.9650
vn 0.0945 -0.1011 0.9904
vn 0.1374 -0.0205 0.9903
vn 0.2808 -0.0040 0.9598
vn 0.4076 0.0345 0.9125
vn 0.2524 0.1876 0.9493
vn 0.0924 0.2443 0.9653
vn 0.2410 0.1118 0.9641
vn 0.2215 0.0022 0.9751
vn 0.0435 -0.1308 0.9905
vn -0.1242 -0.3394 0.9324
vn -0.2763 -0.2932 0.9153
vn -0.2581 -0.1393 0.9560
vn 0.2779 -0.2792 0.9191
vn 0.2406 -0.3773 0.8943
vn 0.2852 -0.2519 0.9248
vn 0.2780 -0.1963 0.9403
vn 0.2553 -0.1188 0.9595
vn 0.2212 -0.0312 0.9747
vn 0.2150 0.0577 0.9749
vn 0.2899 0.0873 0.9531
vn 0.3893 0.0243 0.9208
vn 0.3234 -0.0861 0.9423
vn 0.1583 0.0333 0.9868
vn 0.1050 0.0640 0.9924
vn -0.0185 -0.0455 0.9988
vn -0.1949 -0.2617 0.9453
vn -0.1876 -0.4100 0.8926
vn -0.1019 -0.3022 0.9478
vn 0.0673 0.0679 0.9954
vn 0.3245 -0.2353 0.9162
vn 0.2848 -0.2602 0.9226
vn 0.3440 -0.2030 0.9167
vn 0.3426 -0.1454 0.9282
vn 0.3027 -0.1190 0.9456
vn 0.2665 -0.1116 0.9573
vn 0.2526 -0.0968 0.9627
vn 0.2494 -0.1239 0.9604
vn 0.2493 -0.2071 0.9460
vn 0.2520 -0.2935 0.9221
vn 0.2364 -0.2474 0.9396
vn 0.1667 -0.1293 0.9775
vn -0.1126 -0.1187 0.9865
vn -0.3358 -0.2507 0.9080
vn -0.1661 -0.2731 0.9475
vn 0.2201 -0.0637 0.9734
vn 0.3665 0.2259 0.9026
vn 0.3391 -0.1104 0.9342
vn 0.2841 -0.1077 0.9527
vn 0.3755 -0.1175 0.9194
vn 0.3605 -0.1426 0.9218
vn 0.2882 -0.1741 0.9416
vn 0.2400 -0.1952 0.9510
vn 0.1987 -0.2200 0.9551
vn 0.1780 -0.2214 0.9588
vn 0.2234 -0.1885 0.9563
vn 0.2833 -0.1443 0.9481
vn 0.3256 -0.1009 0.9401
vn 0.2409 -0.0661 0.9683
vn -0.1579 -0.1732 0.9721
vn -0.3421 -0.2148 0.9148
vn 0.0005 -0.0099 1.0000
vn 0.3894 0.1797 0.9034
vn 0.4537 0.2262 0.8620
vn 0.3214 0.0172 0.9468
vn 0.2801 0.0211 0.9597
vn 0.3208 -0.0184 0.9470
vn 0.2962 -0.1080 0.9490
vn 0.2569 -0.1572 0.9535
vn 0.2229 -0.1842 0.9573
vn 0.2262 -0.1835 0.9566
vn 0.2800 -0.0887 0.9559
vn 0.3238 0.0264 0.9457
vn 0.3394 0.1052 0.9348
vn 0.3155 0.1295 0.9401
vn 0.0991 -0.0532 0.9937
vn -0.2604 -0.2667 0.9279
vn -0.1956 -0.1385 0.9708
vn 0.2443 0.2145 0.9457
vn 0.4263 0.2940 0.8555
vn 0.3584 0.1900 0.9140
vn 0.3045 0.1048 0.9467
vn 0.2693 0.1139 0.9563
vn 0.2652 0.0996 0.9590
vn 0.2384 0.0454 0.9701
vn 0.2216 0.0398 0.9743
vn 0.2197 0.0253 0.9752
vn 0.2937 0.0438 0.9549
vn 0.3742 0.0952 0.9225
vn 0.3977 0.1456 0.9059
vn 0.3723 0.1769 0.9111
vn 0.1770 0.0705 0.9817
vn -0.1693 -0.2349 0.9572
vn -0.2317 -0.3004 0.9252
vn 0.1387 0.0280 0.9899
vn 0.4206 0.2770 0.8639
vn 0.3662 0.2755 0.8888
vn 0.0593 -0.0138 0.9981
vn 0.2975 0.2640 0.9175
vn 0.2674 0.2613 0.9275
vn 0.2556 0.2655 0.9296
vn 0.2333 0.2616 0.9366
vn 0.2315 0.2802 0.9316
vn 0.2202 0.3070 0.9259
vn 0.2860 0.2961 0.9113
vn 0.3645 0.2608 0.8939
vn 0.3873 0.2273 0.8935
vn 0.2620 0.1316 0.9560
vn -0.1027 -0.1530 0.9829
vn -0.2723 -0.2813 0.9202
vn -0.0063 -0.1353 0.9908
vn 0.3981 0.1823 0.8991
vn 0.4622 0.2313 0.8561
vn 0.1614 0.0587 0.9851
vn -0.2358 -0.2058 0.9498
vn 0.2863 0.3803 0.8794
vn 0.3287 0.3338 0.8835
vn 0.2402 0.3724 0.8964
vn 0.2324 0.3899 0.8911
vn 0.2487 0.3846 0.8890
vn 0.2214 0.4035 0.8878
vn 0.2384 0.3872 0.8906
vn 0.3028 0.3020 0.9039
vn 0.2704 0.1638 0.9487
vn -0.0014 -0.0760 0.9971
vn -0.2485 -0.2188 0.9436
vn -0.1544 -0.1110 0.9818
vn 0.2466 0.1413 0.9588
vn 0.4675 0.2248 0.8549
vn 0.3226 0.1188 0.9390
vn -0.0736 -0.1655 0.9835
vn -0.3043 -0.2293 0.9246
vt 0.015625 0.015625
vt 0.076172 0.015625
vt 0.076172 0.076172
vt 0.015625 0.076172
vt 0.136719 0.015625
vt 0.136719 0.076172
vt 0.197266 0.015625
vt 0.197266 0.076172
vt 0.257812 0.015625
vt 0.257812 0.076172
vt 0.318359 0.015625
vt 0.318359 0.076172
vt 0.378906 0.015625
vt 0.378906 0.076172
vt 0.439453 0.015625
vt 0.439453 0.076172
vt 0.500000 0.015625
vt 0.500000 0.076172
vt 0.560547 0.015625
vt 0.560547 0.076172
vt 0.621094 0.015625
vt 0.621094 0.076172
vt 0.681641 0.015625
vt 0.681641 0.076172
vt 0.742188 0.015625
vt 0.742188 0.076172
vt 0.802734 0.015625
vt 0.802734 0.076172
vt 0.863281 0.015625
vt 0.863281 0.076172
vt 0.923828 0.015625
vt 0.923828 0.076172
vt 0.984375 0.015625
vt 0.984375 0.076172
vt 0.076172 0.136719
vt 0.015625 0.136719
vt 0.136719 0.136719
vt 0.197266 0.136719
vt 0.257812 0.136719
vt 0.318359 0.136719
vt 0.378906 0.136719
vt 0.439453 0.136719
vt 0.500000 0.136719
vt 0.560547 0.136719
vt 0.621094 0.136719
vt 0.681641 0.136719
vt 0.742188 0.136719
vt 0.802734 0.136719
vt 0.863281 0.136719
vt 0.923828 0.136719
vt 0.984375 0.136719
vt 0.076172 0.197266
vt 0.015625 0.197266
vt 0.136719 0.197266
vt 0.197266 0.197266
vt 0.257812 0.197266
vt 0.318359 0.197266
vt 0.378906 0.197266
vt 0.439453 0.197266
vt 0.500000 0.197266
vt 0.560547 0.197266
vt 0.621094 0.197266
vt 0.681641 0.197266
vt 0.742188 0.197266
vt 0.802734 0.197266
vt 0.863281 0.197266
vt 0.923828 0.197266
vt 0.984375 0.197266
vt 0.076172 0.257812
vt 0.015625 0.257812
vt 0.136719 0.257812
vt 0.197266 0.257812
vt 0.257812 0.257812
vt 0.318359 0.257812
vt 0.378906 0.257812
vt 0.439453 0.257812
vt 0.500000 0.257812
vt 0.560547 0.257812
vt 0.621094 0.257812
vt 0.681641 0.257812
vt 0.742188 0.257812
vt 0.802734 0.257812
vt 0.863281 0.257812
vt 0.923828 0.257812
vt 0.984375 0.257812
vt 0.076172 0.318359
vt 0.015625 0.318359
vt 0.136719 0.318359
vt 0.197266 0.318359
vt 0.257812 0.318359
vt 0.318359 0.318359
vt 0.378906 0.318359
vt 0.439453 0.318359
vt 0.500000 0.318359
vt 0.560547 0.318359
vt 0.621094 0.318359
vt 0.681641 0.318359
vt 0.742188 0.318359
vt 0.802734 0.318359
vt 0.863281 0.318359
vt 0.923828 0.318359
vt 0.984375 0.318359
vt 0.076172 0.378906
vt 0.015625 0.378906
vt 0.136719 0.378906
vt 0.197266 0.378906
vt 0.257812 0.378906
vt 0.318359 0.378906
vt 0.378906 0.378906
vt 0.439453 0.378906
vt 0.500000 0.378906
vt 0.560547 0.378906
vt 0.621094 0.378906
vt 0.681641 0.378906
vt 0.742188 0.378906
vt 0.802734 0.378906
vt 0.863281 0.378906
vt 0.923828 0.378906
vt 0.984375 0.378906
vt 0.076172 0.439453
vt 0.015625 0.439453
vt 0.136719 0.439453
vt 0.197266 0.439453
vt 0.257812 0.439453
vt 0.318359 0.439453
vt 0.378906 0.439453
vt 0.439453 0.439453
vt 0.500000 0.439453
vt 0.560547 0.439453
vt 0.621094 0.439453
vt 0.681641 0.439453
vt 0.742188 0.439453
vt 0.802734 0.439453
vt 0.863281 0.439453
vt 0.923828 0.439453
vt 0.984375 0.439453
vt 0.076172 0.500000
vt 0.015625 0.500000
vt 0.136719 0.500000
vt 0.197266 0.500000
vt 0.257812 0.500000
vt 0.318359 0.500000
vt 0.378906 0.500000
vt 0.439453 0.500000
vt 0.500000 0.500000
vt 0.560547 0.500000
vt 0.621094 0.500000
vt 0.681641 0.500000
vt 0.742188 0.500000
vt 0.802734 0.500000
vt 0.863281 0.500000
vt 0.923828 0.500000
vt 0.984375 0.500000
vt 0.076172 0.560547
vt 0.015625 0.560547
vt 0.136719 0.560547
vt 0.197266 0.560547
vt 0.257812 0.560547
vt 0.318359 0.560547
vt 0.378906 0.560547
vt 0.439453 0.560547
vt 0.500000 0.560547
vt 0.560547 0.560547
vt 0.621094 0.560547
vt 0.681641 0.560547
vt 0.742188 0.560547
vt 0.802734 0.560547
vt 0.863281 0.560547
vt 0.923828 0.560547
vt 0.984375 0.560547
vt 0.076172 0.621094
vt 0.015625 0.621094
vt 0.136719 0.621094
vt 0.197266 0.621094
vt 0.257812 0.621094
vt 0.318359 0.621094
vt 0.378906 0.621094
vt 0.439453 0.621094
vt 0.500000 0.621094
vt 0.560547 0.621094
vt 0.621094 0.621094
vt 0.681641 0.621094
vt 0.742188 0.621094
vt 0.802734 0.621094
vt 0.863281 0.621094
vt 0.923828 0.621094
vt 0.984375 0.621094
vt 0.076172 0.681641
vt 0.015625 0.681641
vt 0.136719 0.681641
vt 0.197266 0.681641
vt 0.257812 0.681641
vt 0.318359 0.681641
vt 0.378906 0.681641
vt 0.439453 0.681641
vt 0.500000 0.681641
vt 0.560547 0.681641
vt 0.621094 0.681641
vt 0.681641 0.681641
vt 0.742188 0.681641
vt 0.802734 0.681641
vt 0.863281 0.681641
vt 0.923828 0.681641
vt 0.984375 0.681641
vt 0.076172 0.742188
vt 0.015625 0.742188
vt 0.136719 0.742188
vt 0.197266 0.742188
vt 0.257812 0.742188
vt 0.318359 0.742188
vt 0.378906 0.742188
vt 0.439453 0.742188
vt 0.500000 0.742188
vt 0.560547 0.742188
vt 0.621094 0.742188
vt 0.681641 0.742188
vt 0.742188 0.742188
vt 0.802734 0.742188
vt 0.863281 0.742188
vt 0.923828 0.742188
vt 0.984375 0.742188
vt 0.076172 0.802734
vt 0.015625 0.802734
vt 0.136719 0.802734
vt 0.197266 0.802734
vt 0.257812 0.802734
vt 0.318359 0.802734
vt 0.378906 0.802734
vt 0.439453 0.802734
vt 0.500000 0.802734
vt 0.560547 0.802734
vt 0.621094 0.802734
vt 0.681641 0.802734
vt 0.742188 0.802734
vt 0.802734 0.802734
vt 0.863281 0.802734
vt 0.923828 0.802734
vt 0.984375 0.802734
vt 0.076172 0.863281
vt 0.015625 0.863281
vt 0.136719 0.863281
vt 0.197266 0.863281
vt 0.257812 0.863281
vt 0.318359 0.863281
vt 0.378906 0.863281
vt 0.439453 0.863281
vt 0.500000 0.863281
vt 0.560547 0.863281
vt 0.621094 0.863281
vt 0.681641 0.863281
vt 0.742188 0.863281
vt 0.802734 0.863281
vt 0.863281 0.863281
vt 0.923828 0.863281
vt 0.984375 0.863281
vt 0.076172 0.923828
vt 0.015625 0.923828
vt 0.136719 0.923828
vt 0.197266 0.923828
vt 0.257812 0.923828
vt 0.318359 0.923828
vt 0.378906 0.923828
vt 0.439453 0.923828
vt 0.500000 0.923828
vt 0.560547 0.923828
vt 0.621094 0.923828
vt 0.681641 0.923828
vt 0.742188 0.923828
vt 0.802734 0.923828
vt 0.863281 0.923828
vt 0.923828 0.923828
vt 0.984375 0.923828
vt 0.076172 0.984375
vt 0.015625 0.984375
vt 0.136719 0.984375
vt 0.197266 0.984375
vt 0.257812 0.984375
vt 0.318359 0.984375
vt 0.378906 0.984375
vt 0.439453 0.984375
vt 0.500000 0.984375
vt 0.560547 0.984375
vt 0.621094 0.984375
vt 0.681641 0.984375
vt 0.742188 0.984375
vt 0.802734 0.984375
vt 0.863281 0.984375
vt 0.923828 0.984375
vt 0.984375 0.984375
s 1
f 1/1/1 2/2/2 19/3/3
f 1/1/1 19/3/3 18/4/4
f 2/2/2 3/5/5 20/6/6
f 2/2/2 20/6/6 19/3/3
f 3/5/5 4/7/7 21/8/8
f 3/5/5 21/8/8 20/6/6
f 4/7/7 5/9/9 22/10/10
f 4/7/7 22/10/10 21/8/8
f 5/9/9 6/11/11 23/12/12
f 5/9/9 23/12/12 22/10/10
f 6/11/11 7/13/13 24/14/14
f 6/11/11 24/14/14 23/12/12
f 7/13/13 8/15/15 25/16/16
f 7/13/13 25/16/16 24/14/14
f 8/15/15 9/17/17 26/18/18
f 8/15/15 26/18/18 25/16/16
f 9/17/17 10/19/19 27/20/20
f 9/17/17 27/20/20 26/18/18
f 10/19/19 11/21/21 28/22/22
f 10/19/19 28/22/22 27/20/20
f 11/21/21 12/23/23 29/24/24
f 11/21/21 29/24/24 28/22/22
f 12/23/23 13/25/25 30/26/26
f 12/23/23 30/26/26 29/24/24
f 13/25/25 14/27/27 31/28/28
f 13/25/25 31/28/28 30/26/26
f 14/27/27 15/29/29 32/30/30
f 14/27/27 32/30/30 31/28/28
f 15/29/29 16/31/31 33/32/32
f 15/29/29 33/32/32 32/30/30
f 16/31/31 17/33/33 34/34/34
f 16/31/31 34/34/34 33/32/32
f 18/4/4 19/3/3 36/35/35
f 18/4/4 36/35/35 35/36/36
f 19/3/3 20/6/6 37/37/37
f 19/3/3 37/37/37 36/35/35
f 20/6/6 21/8/8 38/38/38
f 20/6/6 38/38/38 37/37/37
f 21/8/8 22/10/10 39/39/39
f 21/8/8 39/39/39 38/38/38
f 22/10/10 23/12/12 40/40/40
f 22/10/10 40/40/40 39/39/39
f 23/12/12 24/14/14 41/41/41
f 23/12/12 41/41/41 40/40/40
f 24/14/14 25/16/16 42/42/42
f 24/14/14 42/42/42 41/41/41
f 25/16/16 26/18/18 43/43/43
f 25/16/16 43/43/43 42/42/42
f 26/18/18 27/20/20 44/44/44
f 26/18/18 44/44/44 43/43/43
f 27/20/20 28/22/22 45/45/45
f 27/20/20 45/45/45 44/44/44
f 28/22/22 29/24/24 46/46/46
f 28/22/22 46/46/46 45/45/45
f 29/24/24 30/26/26 47/47/47
f 29/24/24 47/47/47 46/46/46
f 30/26/26 31/28/28 48/48/48
f 30/26/26 48/48/48 47/47/47
f 31/28/28 32/30/30 49/49/49
f 31/28/28 49/49/49 48/48/48
f 32/30/30 33/32/32 50/50/50
f 32/30/30 50/50/50 49/49/49
f 33/32/32 34/34/34 51/51/51
f 33/32/32 51/51/51 50/50/50
f 35/36/36 36/35/35 53/52/52
f 35/36/36 53/52/52 52/53/53
f 36/35/35 37/37/37 54/54/54
f 36/35/35 54/54/54 53/52/52
f 37/37/37 38/38/38 55/55/55
f 37/37/37 55/55/55 54/54/54
f 38/38/38 39/39/39 56/56/56
f 38/38/38 56/56/56 55/55/55
f 39/39/39 40/40/40 57/57/57
f 39/39/39 57/57/57 56/56/56
f 40/40/40 41/41/41 58/58/58
f 40/40/40 58/58/58 57/57/57
f 41/41/41 42/42/42 59/59/59
f 41/41/41 59/59/59 58/58/58
f 42/42/42 43/43/43 60/60/60
f 42/42/42 60/60/60 59/59/59
f 43/43/43 44/44/44 61/61/61
f 43/43/43 61/61/61 60/60/60
f 44/44/44 45/45/45 62/62/62
f 44/44/44 62/62/62 61/61/61
f 45/45/45 46/46/46 63/63/63
f 45/45/45 63/63/63 62/62/62
f 46/46/46 47/47/47 64/64/64
f 46/46/46 64/64/64 63/63/63
f 47/47/47 48/48/48 65/65/65
f 47/47/47 65/65/65 64/64/64
f 48/48/48 49/49/49 66/66/66
f 48/48/48 66/66/66 65/65/65
f 49/49/49 50/50/50 67/67/67
f 49/49/49 67/67/67 66/66/66
f 50/50/50 51/51/51 68/68/68
f 50/50/50 68/68/68 67/67/67
f 52/53/53 53/52/52 70/69/69
f 52/53/53 70/69/69 69/70/70
f 53/52/52 54/54/54 71/71/71
f 53/52/52 71/71/71 70/69/69
f 54/54/54 55/55/55 72/72/72
f 54/54/54 72/72/72 71/71/71
f 55/55/55 56/56/56 73/73/73
f 55/55/55 73/73/73 72/72/72
f 56/56/56 57/57/57 74/74/74
f 56/56/56 74/74/74 73/73/73
f 57/57/57 58/58/58 75/75/75
f 57/57/57 75/75/75 74/74/74
f 58/58/58 59/59/59 76/76/76
f 58/58/58 76/76/76 75/75/75
f 59/59/59 60/60/60 77/77/77
f 59/59/59 77/77/77 76/76/76
f 60/60/60 61/61/61 78/78/78
f 60/60/60 78/78/78 77/77/77
f 61/61/61 62/62/62 79/79/79
f 61/61/61 79/79/79 78/78/78
f 62/62/62 63/63/63 80/80/80
f 62/62/62 80/80/80 79/79/79
f 63/63/63 64/64/64 81/81/81
f 63/63/63 81/81/81 80/80/80
f 64/64/64 65/65/65 82/82/82
f 64/64/64 82/82/82 81/81/81
f 65/65/65 66/66/66 83/83/83
f 65/65/65 83/83/83 82/82/82
f 66/66/66 67/67/67 84/84/84
f 66/66/66 84/84/84 83/83/83
f 67/67/67 68/68/68 85/85/85
f 67/67/67 85/85/85 84/84/84
f 69/70/70 70/69/69 87/86/86
f 69/70/70 87/86/86 86/87/87
f 70/69/69 71/71/71 88/88/88
f 70/69/69 88/88/88 87/86/86
f 71/71/71 72/72/72 89/89/89
f 71/71/71 89/89/89 88/88/88
f 72/72/72 73/73/73 90/90/90
f 72/72/72 90/90/90 89/89/89
f 73/73/73 74/74/74 91/91/91
f 73/73/73 91/91/91 90/90/90
f 74/74/74 75/75/75 92/92/92
f 74/74/74 92/92/92 91/91/91
f 75/75/75 76/76/76 93/93/93
f 75/75/75 93/93/93 92/92/92
f 76/76/76 77/77/77 94/94/94
f 76/76/76 94/94/94 93/93/93
f 77/77/77 78/78/78 95/95/95
f 77/77/77 95/95/95 94/94/94
f 78/78/78 79/79/79 96/96/96
f 78/78/78 96/96/96 95/95/95
f 79/79/79 80/80/80 97/97/97
f 79/79/79 97/97/97 96/96/96
f 80/80/80 81/81/81 98/98/98
f 80/80/80 98/98/98 97/97/97
f 81/81/81 82/82/82 99/99/99
f 81/81/81 99/99/99 98/98/98
f 82/82/82 83/83/83 100/100/100
f 82/82/82 100/100/100 99/99/99
f 83/83/83 84/84/84 101/101/101
f 83/83/83 101/101/101 100/100/100
f 84/84/84 85/85/85 102/102/102
f 84/84/84 102/102/102 101/101/101
f 86/87/87 87/86/86 104/103/103
f 86/87/87 104/103/103 103/104/104
f 87/86/86 88/88/88 105/105/105
f 87/86/86 105/105/105 104/103/103
f 88/88/88 89/89/89 106/106/106
f 88/88/88 106/106/106 105/105/105
f 89/89/89 90/90/90 107/107/107
f 89/89/89 107/107/107 106/106/106
f 90/90/90 91/91/91 108/108/108
f 90/90/90 108/108/108 107/107/107
f 91/91/91 92/92/92 109/109/109
f 91/91/91 109/109/109 108/108/108
f 92/92/92 93/93/93 110/110/110
f 92/92/92 110/110/110 109/109/109
f 93/93/93 94/94/94 111/111/111
f 93/93/93 111/111/111 110/110/110
f 94/94/94 95/95/95 112/112/112
f 94/94/94 112/112/112 111/111/111
f 95/95/95 96/96/96 113/113/113
f 95/95/95 113/113/113 112/112/112
f 96/96/96 97/97/97 114/114/114
f 96/96/96 114/114/114 113/113/113
f 97/97/97 98/98/98 115/115/115
f 97/97/97 115/115/115 114/114/114
f 98/98/98 99/99/99 116/116/116
f 98/98/98 116/116/116 115/115/115
f 99/99/99 100/100/100 117/117/117
f 99/99/99 117/117/117 116/116/116
f 100/100/100 101/101/101 118/118/118
f 100/100/100 118/118/118 117/117/117
f 101/101/101 102/102/102 119/119/119
f 101/101/101 119/119/119 118/118/118
f 103/104/104 104/103/103 121/120/120
f 103/104/104 121/120/120 120/121/121
f 104/103/103 105/105/105 122/122/122
f 104/103/103 122/122/122 121/120/120
f 105/105/105 106/106/106 123/123/123
f 105/105/105 123/123/123 122/122/122
f 106/106/106 107/107/107 124/124/124
f 106/106/106 124/124/124 123/123/123
f 107/107/107 108/108/108 125/125/125
f 107/107/107 125/125/125 124/124/124
f 108/108/108 109/109/109 126/126/126
f 108/108/108 126/126/126 125/125/125
f 109/109/109 110/110/110 127/127/127
f 109/109/109 127/127/127 126/126/126
f 110/110/110 111/111/111 128/128/128
f 110/110/110 128/128/128 127/127/127
f 111/111/111 112/112/112 129/129/129
f 111/111/111 129/129/129 128/128/128
f 112/112/112 113/113/113 130/130/130
f 112/112/112 130/130/130 129/129/129
f 113/113/113 114/114/114 131/131/131
f 113/113/113 131/131/131 130/130/130
f 114/114/114 115/115/115 132/132/132
f 114/114/114 132/132/132 131/131/131
f 115/115/115 116/116/116 133/133/133
f 115/115/115 133/133/133 132/132/132
f 116/116/116 117/117/117 134/134/134
f 116/116/116 134/134/134 133/133/133
f 117/117/117 118/118/118 135/135/135
f 117/117/117 135/135/135 134/134/134
f 118/118/118 119/119/119 136/136/136
f 118/118/118 136/136/136 135/135/135
f 120/121/121 121/120/120 138/137/137
f 120/121/121 138/137/137 137/138/138
f 121/120/120 122/122/122 139/139/139
f 121/120/120 139/139/139 138/137/137
f 122/122/122 123/123/123 140/140/140
f 122/122/122 140/140/140 139/139/139
f 123/123/123 124/124/124 141/141/141
f 123/123/123 141/141/141 140/140/140
f 124/124/124 125/125/125 142/142/142
f 124/124/124 142/142/142 141/141/141
f 125/125/125 126/126/126 143/143/143
f 125/125/125 143/143/143 142/142/142
f 126/126/126 127/127/127 144/144/144
f 126/126/126 144/144/144 143/143/143
f 127/127/127 128/128/128 145/145/145
f 127/127/127 145/145/145 144/144/144
f 128/128/128 129/129/129 146/146/146
f 128/128/128 146/146/146 145/145/145
f 129/129/129 130/130/130 147/147/147
f 129/129/129 147/147/147 146/146/146
f 130/130/130 131/131/131 148/148/148
f 130/130/130 148/148/148 147/147/147
f 131/131/131 132/132/132 149/149/149
f 131/131/131 149/149/149 148/148/148
f 132/132/132 133/133/133 150/150/150
f 132/132/132 150/150/150 149/149/149
f 133/133/133 134/134/134 151/151/151
f 133/133/133 151/151/151 150/150/150
f 134/134/134 135/135/135 152/152/152
f 134/134/134 152/152/152 151/151/151
f 135/135/135 136/136/136 153/153/153
f 135/135/135 153/153/153 152/152/152
f 137/138/138 138/137/137 155/154/154
f 137/138/138 155/154/154 154/155/155
f 138/137/137 139/139/139 156/156/156
f 138/137/137 156/156/156 155/154/154
f 139/139/139 140/140/140 157/157/157
f 139/139/139 157/157/157 156/156/156
f 140/140/140 141/141/141 158/158/158
f 140/140/140 158/158/158 157/157/157
f 141/141/141 142/142/142 159/159/159
f 141/141/141 159/159/159 158/158/158
f 142/142/142 143/143/143 160/160/160
f 142/142/142 160/160/160 159/159/159
f 143/143/143 144/144/144 161/161/161
f 143/143/143 161/161/161 160/160/160
f 144/144/144 145/145/145 162/162/162
f 144/144/144 162/162/162 161/161/161
f 145/145/145 146/146/146 163/163/163
f 145/145/145 163/163/163 162/162/162
f 146/146/146 147/147/147 164/164/164
f 146/146/146 164/164/164 163/163/163
f 147/147/147 148/148/148 165/165/165
f 147/147/147 165/165/165 164/164/164
f 148/148/148 149/149/149 166/166/166
f 148/148/148 166/166/166 165/165/165
f 149/149/149 150/150/150 167/167/167
f 149/149/149 167/167/167 166/166/166
f 150/150/150 151/151/151 168/168/168
f 150/150/150 168/168/168 167/167/167
f 151/151/151 152/152/152 169/169/169
f 151/151/151 169/169/169 168/168/168
f 152/152/152 153/153/153 170/170/170
f 152/152/152 170/170/170 169/169/169
f 154/155/155 155/154/154 172/171/171
f 154/155/155 172/171/171 171/172/172
f 155/154/154 156/156/156 173/173/173
f 155/154/154 173/173/173 172/171/171
f 156/156/156 157/157/157 174/174/174
f 156/156/156 174/174/174 173/173/173
f 157/157/157 158/158/158 175/175/175
f 157/157/157 175/175/175 174/174/174
f 158/158/158 159/159/159 176/176/176
f 158/158/158 176/176/176 175/175/175
f 159/159/159 160/160/160 177/177/177
f 159/159/159 177/177/177 176/176/176
f 160/160/160 161/161/161 178/178/178
f 160/160/160 178/178/178 177/177/177
f 161/161/161 162/162/162 179/179/179
f 161/161/161 179/179/179 178/178/178
f 162/162/162 163/163/163 180/180/180
f 162/162/162 180/180/180 179/179/179
f 163/163/163 164/164/164 181/181/181
f 163/163/163 181/181/181 180/180/180
f 164/164/164 165/165/165 182/182/182
f 164/164/164 182/182/182 181/181/181
f 165/165/165 166/166/166 183/183/183
f 165/165/165 183/183/183 182/182/182
f 166/166/166 167/167/167 184/184/184
f 166/166/166 184/184/184 183/183/183
f 167/167/167 168/168/168 185/185/185
f 167/167/167 185/185/185 184/184/184
f 168/168/168 169/169/169 186/186/186
f 168/168/168 186/186/186 185/185/185
f 169/169/169 170/170/170 187/187/187
f 169/169/169 187/187/187 186/186/186
f 171/172/172 172/171/171 189/188/188
f 171/172/172 189/188/188 188/189/189
f 172/171/171 173/173/173 190/190/190
f 172/171/171 190/190/190 189/188/188
f 173/173/173 174/174/174 191/191/191
f 173/173/173 191/191/191 190/190/190
f 174/174/174 175/175/175 192/192/192
f 174/174/174 192/192/192 191/191/191
f 175/175/175 176/176/176 193/193/193
f 175/175/175 193/193/193 192/192/192
f 176/176/176 177/177/177 194/194/194
f 176/176/176 194/194/194 193/193/193
f 177/177/177 178/178/178 195/195/195
f 177/177/177 195/195/195 194/194/194
f 178/178/178 179/179/179 196/196/196
f 178/178/178 196/196/196 195/195/195
f 179/179/179 180/180/180 197/197/197
f 179/179/179 197/197/197 196/196/196
f 180/180/180 181/181/181 198/198/198
f 180/180/180 198/198/198 197/197/197
f 181/181/181 182/182/182 199/199/199
f 181/181/181 199/199/199 198/198/198
f 182/182/182 183/183/183 200/200/200
f 182/182/182 200/200/200 199/199/199
f 183/183/183 184/184/184 201/201/201
f 183/183/183 201/201/201 200/200/200
f 184/184/184 185/185/185 202/202/202
f 184/184/184 202/202/202 201/201/201
f 185/185/185 186/186/186 203/203/203
f 185/185/185 203/203/203 202/202/202
f 186/186/186 187/187/187 204/204/204
f 186/186/186 204/204/204 203/203/203
f 188/189/189 189/188/188 206/205/205
f 188/189/189 206/205/205 205/206/206
f 189/188/188 190/190/190 207/207/207
f 189/188/188 207/207/207 206/205/205
f 190/190/190 191/191/191 208/208/208
f 190/190/190 208/208/208 207/207/207
f 191/191/191 192/192/192 209/209/209
f 191/191/191 209/209/209 208/208/208
f 192/192/192 193/193/193 210/210/210
f 192/192/192 210/210/210 209/209/209
f 193/193/193 194/194/194 211/211/211
f 193/193/193 211/211/211 210/210/210
f 194/194/194 195/195/195 212/212/212
f 194/194/194 212/212/212 211/211/211
f 195/195/195 196/196/196 213/213/213
f 195/195/195 213/213/213 212/212/212
f 196/196/196 197/197/197 214/214/214
f 196/196/196 214/214/214 213/213/213
f 197/197/197 198/198/198 215/215/215
f 197/197/197 215/215/215 214/214/214
f 198/198/198 199/199/199 216/216/216
f 198/198/198 216/216/216 215/215/215
f 199/199/199 200/200/200 217/217/217
f 199/199/199 217/217/217 216/216/216
f 200/200/200 201/201/201 218/218/218
f 200/200/200 218/218/218 217/217/217
f 201/201/201 202/202/202 219/219/219
f 201/201/201 219/219/219 218/218/218
f 202/202/202 203/203/203 220/220/220
f 202/202/202 220/220/220 219/219/219
f 203/203/203 204/204/204 221/221/221
f 203/203/203 221/221/221 220/220/220
f 205/206/206 206/205/205 223/222/222
f 205/206/206 223/222/222 222/223/223
f 206/205/205 207/207/207 224/224/224
f 206/205/205 224/224/224 223/222/222
f 207/207/207 208/208/208 225/225/225
f 207/207/207 225/225/225 224/224/224
f 208/208/208 209/209/209 226/226/226
f 208/208/208 226/226/226 225/225/225
f 209/209/209 210/210/210 227/227/227
f 209/209/209 227/227/227 226/226/226
f 210/210/210 211/211/211 228/228/228
f 210/210/210 228/228/228 227/227/227
f 211/211/211 212/212/212 229/229/229
f 211/211/211 229/229/229 228/228/228
f 212/212/212 213/213/213 230/230/230
f 212/212/212 230/230/230 229/229/229
f 213/213/213 214/214/214 231/231/231
f 213/213/213 231/231/231 230/230/230
f 214/214/214 215/215/215 232/232/232
f 214/214/214 232/232/232 231/231/231
f 215/215/215 216/216/216 233/233/233
f 215/215/215 233/233/233 232/232/232
f 216/216/216 217/217/217 234/234/234
f 216/216/216 234/234/234 233/233/233
f 217/217/217 218/218/218 235/235/235
f 217/217/217 235/235/235 234/234/234
f 218/218/218 219/219/219 236/236/236
f 218/218/218 236/236/236 235/235/235
f 219/219/219 220/220/220 237/237/237
f 219/219/219 237/237/237 236/236/236
f 220/220/220 221/221/221 238/238/238
f 220/220/220 238/238/238 237/237/237
f 222/223/223 223/222/222 240/239/239
f 222/223/223 240/239/239 239/240/240
f 223/222/222 224/224/224 241/241/241
f 223/222/222 241/241/241 240/239/239
f 224/224/224 225/225/225 242/242/242
f 224/224/224 242/242/242 241/241/241
f 225/225/225 226/226/226 243/243/243
f 225/225/225 243/243/243 242/242/242
f 226/226/226 227/227/227 244/244/244
f 226/226/226 244/244/244 243/243/243
f 227/227/227 228/228/228 245/245/245
f 227/227/227 245/245/245 244/244/244
f 228/228/228 229/229/229 246/246/246
f 228/228/228 246/246/246 245/245/245
f 229/229/229 230/230/230 247/247/247
f 229/229/229 247/247/247 246/246/246
f 230/230/230 231/231/231 248/248/248
f 230/230/230 248/248/248 247/247/247
f 231/231/231 232/232/232 249/249/249
f 231/231/231 249/249/249 248/248/248
f 232/232/232 233/233/233 250/250/250
f 232/232/232 250/250/250 249/249/249
f 233/233/233 234/234/234 251/251/251
f 233/233/233 251/251/251 250/250/250
f 234/234/234 235/235/235 252/252/252
f 234/234/234 252/252/252 251/251/251
f 235/235/235 236/236/236 253/253/253
f 235/235/235 253/253/253 252/252/252
f 236/236/236 237/237/237 254/254/254
f 236/236/236 254/254/254 253/253/253
f 237/237/237 238/238/238 255/255/255
f 237/237/237 255/255/255 254/254/254
f 239/240/240 240/239/239 257/256/256
f 239/240/240 257/256/256 256/257/257
f 240/239/239 241/241/241 258/258/258
f 240/239/239 258/258/258 257/256/256
f 241/241/241 242/242/242 259/259/259
f 241/241/241 259/259/259 258/258/258
f 242/242/242 243/243/243 260/260/260
f 242/242/242 260/260/260 259/259/259
f 243/243/243 244/244/244 261/261/261
f 243/243/243 261/261/261 260/260/260
f 244/244/244 245/245/245 262/262/262
f 244/244/244 262/262/262 261/261/261
f 245/245/245 246/246/246 263/263/263
f 245/245/245 263/263/263 262/262/262
f 246/246/246 247/247/247 264/264/264
f 246/246/246 264/264/264 263/263/263
f 247/247/247 248/248/248 265/265/265
f 247/247/247 265/265/265 264/264/264
f 248/248/248 249/249/249 266/266/266
f 248/248/248 266/266/266 265/265/265
f 249/249/249 250/250/250 267/267/267
f 249/249/249 267/267/267 266/266/266
f 250/250/250 251/251/251 268/268/268
f 250/250/250 268/268/268 267/267/267
f 251/251/251 252/252/252 269/269/269
f 251/251/251 269/269/269 268/268/268
f 252/252/252 253/253/253 270/270/270
f 252/252/252 270/270/270 269/269/269
f 253/253/253 254/254/254 271/271/271
f 253/253/253 271/271/271 270/270/270
f 254/254/254 255/255/255 272/272/272
f 254/254/254 272/272/272 271/271/271
f 256/257/257 257/256/256 274/273/273
f 256/257/257 274/273/273 273/274/274
f 257/256/256 258/258/258 275/275/275
f 257/256/256 275/275/275 274/273/273
f 258/258/258 259/259/259 276/276/276
f 258/258/258 276/276/276 275/275/275
f 259/259/259 260/260/260 277/277/277
f 259/259/259 277/277/277 276/276/276
f 260/260/260 261/261/261 278/278/278
f 260/260/260 278/278/278 277/277/277
f 261/261/261 262/262/262 279/279/279
f 261/261/261 279/279/279 278/278/278
f 262/262/262 263/263/263 280/280/280
f 262/262/262 280/280/280 279/279/279
f 263/263/263 264/264/264 281/281/281
f 263/263/263 281/281/281 280/280/280
f 264/264/264 265/265/265 282/282/282
f 264/264/264 282/282/282 281/281/281
f 265/265/265 266/266/266 283/283/283
f 265/265/265 283/283/283 282/282/282
f 266/266/266 267/267/267 284/284/284
f 266/266/266 284/284/284 283/283/283
f 267/267/267 268/268/268 285/285/285
f 267/267/267 285/285/285 284/284/284
f 268/268/268 269/269/269 286/286/286
f 268/268/268 286/286/286 285/285/285
f 269/269/269 270/270/270 287/287/287
f 269/269/269 287/287/287 286/286/286
f 270/270/270 271/271/271 288/288/288
f 270/270/270 288/288/288 287/287/287
f 271/271/271 272/272/272 289/289/289
f 271/271/271 289/289/289 288/288/288
