mtllib terrain_mid_04_01.mtl
usemtl terrain_mid_04_01
# Blender 5.1.1
# www.blender.org
o terrain_mid_04_01
v -160.000000 -160.000000 -2.633270
v -140.000000 -160.000000 -0.798376
v -120.000000 -160.000000 0.150042
v -100.000000 -160.000000 0.168014
v -80.000000 -160.000000 -0.531714
v -60.000000 -160.000000 -1.886464
v -40.000000 -160.000000 -4.852813
v -20.000000 -160.000000 -8.536956
v 0.000000 -160.000000 -11.894269
v 20.000000 -160.000000 -15.184918
v 40.000000 -160.000000 -18.608774
v 60.000000 -160.000000 -21.673267
v 80.000000 -160.000000 -25.274742
v 100.000000 -160.000000 -29.036509
v 120.000000 -160.000000 -32.177742
v 140.000000 -160.000000 -34.697201
v 160.000000 -160.000000 -36.074505
v -160.000000 -140.000000 2.900625
v -140.000000 -140.000000 5.868989
v -120.000000 -140.000000 7.059805
v -100.000000 -140.000000 6.961165
v -80.000000 -140.000000 6.164962
v -60.000000 -140.000000 4.365354
v -40.000000 -140.000000 1.120006
v -20.000000 -140.000000 -2.813852
v 0.000000 -140.000000 -6.652373
v 20.000000 -140.000000 -10.567670
v 40.000000 -140.000000 -13.749447
v 60.000000 -140.000000 -16.300804
v 80.000000 -140.000000 -19.428036
v 100.000000 -140.000000 -23.157669
v 120.000000 -140.000000 -26.662342
v 140.000000 -140.000000 -29.552994
v 160.000000 -140.000000 -30.999176
v -160.000000 -120.000000 8.217561
v -140.000000 -120.000000 11.928600
v -120.000000 -120.000000 14.120243
v -100.000000 -120.000000 14.480934
v -80.000000 -120.000000 13.030942
v -60.000000 -120.000000 10.230053
v -40.000000 -120.000000 6.393796
v -20.000000 -120.000000 2.159387
v 0.000000 -120.000000 -2.204518
v 20.000000 -120.000000 -6.221241
v 40.000000 -120.000000 -9.056629
v 60.000000 -120.000000 -11.585858
v 80.000000 -120.000000 -14.337147
v 100.000000 -120.000000 -17.524925
v 120.000000 -120.000000 -21.071095
v 140.000000 -120.000000 -24.225819
v 160.000000 -120.000000 -25.982222
v -160.000000 -100.000000 12.920177
v -140.000000 -100.000000 16.727428
v -120.000000 -100.000000 19.176748
v -100.000000 -100.000000 19.701298
v -80.000000 -100.000000 17.826298
v -60.000000 -100.000000 14.572541
v -40.000000 -100.000000 10.456893
v -20.000000 -100.000000 6.027185
v 0.000000 -100.000000 1.746627
v 20.000000 -100.000000 -1.925241
v 40.000000 -100.000000 -4.891062
v 60.000000 -100.000000 -7.709116
v 80.000000 -100.000000 -10.685753
v 100.000000 -100.000000 -13.905255
v 120.000000 -100.000000 -17.176605
v 140.000000 -100.000000 -20.378576
v 160.000000 -100.000000 -22.784616
v -160.000000 -80.000000 17.187037
v -140.000000 -80.000000 20.825552
v -120.000000 -80.000000 22.724504
v -100.000000 -80.000000 22.665945
v -80.000000 -80.000000 20.365740
v -60.000000 -80.000000 16.985186
v -40.000000 -80.000000 12.817604
v -20.000000 -80.000000 8.367171
v 0.000000 -80.000000 4.310850
v 20.000000 -80.000000 0.795631
v 40.000000 -80.000000 -2.635711
v 60.000000 -80.000000 -5.854630
v 80.000000 -80.000000 -9.063473
v 100.000000 -80.000000 -12.390736
v 120.000000 -80.000000 -15.541459
v 140.000000 -80.000000 -18.671911
v 160.000000 -80.000000 -21.416553
v -160.000000 -60.000000 21.319536
v -140.000000 -60.000000 24.931143
v -120.000000 -60.000000 25.527252
v -100.000000 -60.000000 23.844290
v -80.000000 -60.000000 20.610064
v -60.000000 -60.000000 16.946985
v -40.000000 -60.000000 12.932852
v -20.000000 -60.000000 8.775700
v 0.000000 -60.000000 4.897920
v 20.000000 -60.000000 1.108850
v 40.000000 -60.000000 -2.857980
v 60.000000 -60.000000 -6.262434
v 80.000000 -60.000000 -9.302445
v 100.000000 -60.000000 -12.446048
v 120.000000 -60.000000 -15.566470
v 140.000000 -60.000000 -18.371204
v 160.000000 -60.000000 -21.134720
v -160.000000 -40.000000 23.985315
v -140.000000 -40.000000 26.965723
v -120.000000 -40.000000 26.841293
v -100.000000 -40.000000 24.090919
v -80.000000 -40.000000 20.180532
v -60.000000 -40.000000 16.094555
v -40.000000 -40.000000 11.945181
v -20.000000 -40.000000 7.986441
v 0.000000 -40.000000 4.398794
v 20.000000 -40.000000 0.615320
v 40.000000 -40.000000 -3.343054
v 60.000000 -40.000000 -6.580949
v 80.000000 -40.000000 -9.180225
v 100.000000 -40.000000 -11.931256
v 120.000000 -40.000000 -14.693369
v 140.000000 -40.000000 -17.035458
v 160.000000 -40.000000 -19.654747
v -160.000000 -20.000000 25.530333
v -140.000000 -20.000000 27.331446
v -120.000000 -20.000000 26.634499
v -100.000000 -20.000000 23.555485
v -80.000000 -20.000000 19.348658
v -60.000000 -20.000000 14.936514
v -40.000000 -20.000000 10.683998
v -20.000000 -20.000000 6.855873
v 0.000000 -20.000000 3.511737
v 20.000000 -20.000000 0.037480
v 40.000000 -20.000000 -3.451452
v 60.000000 -20.000000 -6.223242
v 80.000000 -20.000000 -8.856915
v 100.000000 -20.000000 -12.221947
v 120.000000 -20.000000 -15.396765
v 140.000000 -20.000000 -17.773834
v 160.000000 -20.000000 -20.172638
v -160.000000 0.000000 26.814423
v -140.000000 0.000000 26.907516
v -120.000000 0.000000 25.141937
v -100.000000 0.000000 21.973305
v -80.000000 0.000000 18.025646
v -60.000000 0.000000 13.915084
v -40.000000 0.000000 9.850326
v -20.000000 0.000000 5.989052
v 0.000000 0.000000 2.495481
v 20.000000 0.000000 -0.554141
v 40.000000 0.000000 -3.334828
v 60.000000 0.000000 -5.806284
v 80.000000 0.000000 -9.342498
v 100.000000 0.000000 -14.494143
v 120.000000 0.000000 -19.117340
v 140.000000 0.000000 -22.191368
v 160.000000 0.000000 -24.246321
v -160.000000 20.000000 27.674925
v -140.000000 20.000000 25.937851
v -120.000000 20.000000 23.273117
v -100.000000 20.000000 20.085155
v -80.000000 20.000000 16.363367
v -60.000000 20.000000 12.217343
v -40.000000 20.000000 7.456147
v -20.000000 20.000000 2.474871
v 0.000000 20.000000 -1.357018
v 20.000000 20.000000 -4.408586
v 40.000000 20.000000 -7.612477
v 60.000000 20.000000 -10.546932
v 80.000000 20.000000 -13.606556
v 100.000000 20.000000 -17.969526
v 120.000000 20.000000 -22.974375
v 140.000000 20.000000 -26.439306
v 160.000000 20.000000 -28.513227
v -160.000000 40.000000 27.659197
v -140.000000 40.000000 24.308746
v -120.000000 40.000000 20.977211
v -100.000000 40.000000 17.717119
v -80.000000 40.000000 14.106965
v -60.000000 40.000000 9.496112
v -40.000000 40.000000 3.430885
v -20.000000 40.000000 -2.861181
v 0.000000 40.000000 -6.913665
v 20.000000 40.000000 -9.764027
v 40.000000 40.000000 -13.274633
v 60.000000 40.000000 -16.273874
v 80.000000 40.000000 -18.560339
v 100.000000 40.000000 -21.364363
v 120.000000 40.000000 -25.702057
v 140.000000 40.000000 -28.595062
v 160.000000 40.000000 -30.285566
v -160.000000 60.000000 25.411930
v -140.000000 60.000000 21.001129
v -120.000000 60.000000 17.265690
v -100.000000 60.000000 13.757735
v -80.000000 60.000000 10.060612
v -60.000000 60.000000 5.102462
v -40.000000 60.000000 -1.229447
v -20.000000 60.000000 -7.448903
v 0.000000 60.000000 -11.185177
v 20.000000 60.000000 -12.669232
v 40.000000 60.000000 -13.638119
v 60.000000 60.000000 -15.800756
v 80.000000 60.000000 -18.933413
v 100.000000 60.000000 -22.350527
v 120.000000 60.000000 -25.736940
v 140.000000 60.000000 -27.121727
v 160.000000 60.000000 -27.461266
v -160.000000 80.000000 22.888880
v -140.000000 80.000000 18.006046
v -120.000000 80.000000 13.590628
v -100.000000 80.000000 9.503049
v -80.000000 80.000000 5.046309
v -60.000000 80.000000 0.038870
v -40.000000 80.000000 -4.496361
v -20.000000 80.000000 -8.048505
v 0.000000 80.000000 -9.120954
v 20.000000 80.000000 -8.828012
v 40.000000 80.000000 -8.324045
v 60.000000 80.000000 -9.674909
v 80.000000 80.000000 -13.007442
v 100.000000 80.000000 -16.975874
v 120.000000 80.000000 -20.081240
v 140.000000 80.000000 -21.536896
v 160.000000 80.000000 -22.120514
v -160.000000 100.000000 20.376495
v -140.000000 100.000000 15.491812
v -120.000000 100.000000 10.349783
v -100.000000 100.000000 5.407658
v -80.000000 100.000000 0.046866
v -60.000000 100.000000 -4.492671
v -40.000000 100.000000 -5.445003
v -20.000000 100.000000 -3.981672
v 0.000000 100.000000 -1.728932
v 20.000000 100.000000 0.157522
v 40.000000 100.000000 0.652416
v 60.000000 100.000000 -0.599130
v 80.000000 100.000000 -3.852630
v 100.000000 100.000000 -8.094824
v 120.000000 100.000000 -11.674699
v 140.000000 100.000000 -14.416459
v 160.000000 100.000000 -16.583838
v -160.000000 120.000000 17.981728
v -140.000000 120.000000 13.593768
v -120.000000 120.000000 8.433246
v -100.000000 120.000000 3.169987
v -80.000000 120.000000 -1.013695
v -60.000000 120.000000 -1.259965
v -40.000000 120.000000 1.721399
v -20.000000 120.000000 5.468462
v 0.000000 120.000000 7.764971
v 20.000000 120.000000 8.272709
v 40.000000 120.000000 7.496091
v 60.000000 120.000000 5.584898
v 80.000000 120.000000 2.313291
v 100.000000 120.000000 -1.979223
v 120.000000 120.000000 -6.297210
v 140.000000 120.000000 -10.330548
v 160.000000 120.000000 -13.758954
v -160.000000 140.000000 16.244736
v -140.000000 140.000000 12.529647
v -120.000000 140.000000 8.015602
v -100.000000 140.000000 3.392467
v -80.000000 140.000000 1.267413
v -60.000000 140.000000 3.931163
v -40.000000 140.000000 9.631183
v -20.000000 140.000000 13.759424
v 0.000000 140.000000 15.319551
v 20.000000 140.000000 14.928498
v 40.000000 140.000000 13.230886
v 60.000000 140.000000 10.428851
v 80.000000 140.000000 6.521685
v 100.000000 140.000000 1.903501
v 120.000000 140.000000 -3.187516
v 140.000000 140.000000 -8.382489
v 160.000000 140.000000 -12.988182
v -160.000000 160.000000 15.445107
v -140.000000 160.000000 12.335176
v -120.000000 160.000000 9.198972
v -100.000000 160.000000 6.298269
v -80.000000 160.000000 6.349302
v -60.000000 160.000000 10.607718
v -40.000000 160.000000 16.429216
v -20.000000 160.000000 19.820072
v 0.000000 160.000000 20.731998
v 20.000000 160.000000 19.952112
v 40.000000 160.000000 17.856632
v 60.000000 160.000000 14.250927
v 80.000000 160.000000 9.443615
v 100.000000 160.000000 4.209429
v 120.000000 160.000000 -1.650115
v 140.000000 160.000000 -7.732987
v 160.000000 160.000000 -13.433074
vn -0.0816 -0.2374 0.9680
vn -0.0663 -0.2942 0.9534
vn -0.0986 -0.3017 0.9483
vn -0.1533 -0.2587 0.9537
vn -0.0230 -0.3040 0.9524
vn -0.0258 -0.3296 0.9438
vn 0.0163 -0.2977 0.9545
vn 0.0211 -0.3368 0.9413
vn 0.0489 -0.3023 0.9520
vn 0.0613 -0.3205 0.9453
vn 0.1027 -0.2923 0.9508
vn 0.1199 -0.2878 0.9502
vn 0.1574 -0.2803 0.9469
vn 0.1704 -0.2665 0.9487
vn 0.1669 -0.2714 0.9479
vn 0.1845 -0.2539 0.9495
vn 0.1586 -0.2543 0.9540
vn 0.1851 -0.2314 0.9551
vn 0.1613 -0.2238 0.9612
vn 0.1706 -0.2155 0.9615
vn 0.1559 -0.2286 0.9610
vn 0.1381 -0.2300 0.9633
vn 0.1589 -0.2566 0.9534
vn 0.1364 -0.2422 0.9606
vn 0.1745 -0.2662 0.9480
vn 0.1630 -0.2603 0.9517
vn 0.1644 -0.2568 0.9524
vn 0.1714 -0.2723 0.9468
vn 0.1361 -0.2374 0.9618
vn 0.1521 -0.2646 0.9523
vn 0.0946 -0.2181 0.9713
vn 0.1042 -0.2520 0.9621
vn 0.0646 -0.2204 0.9733
vn 0.0690 -0.2442 0.9673
vn -0.1410 -0.2594 0.9554
vn -0.1880 -0.2387 0.9527
vn -0.0610 -0.2894 0.9553
vn 0.0260 -0.3034 0.9525
vn 0.1015 -0.2784 0.9551
vn 0.1587 -0.2441 0.9567
vn 0.1928 -0.2230 0.9556
vn 0.2054 -0.2112 0.9556
vn 0.2009 -0.2013 0.9587
vn 0.1652 -0.2081 0.9641
vn 0.1299 -0.2144 0.9681
vn 0.1280 -0.2082 0.9697
vn 0.1436 -0.2113 0.9668
vn 0.1619 -0.2224 0.9614
vn 0.1610 -0.2274 0.9604
vn 0.1188 -0.2220 0.9678
vn 0.0890 -0.2004 0.9757
vn -0.1509 -0.2146 0.9650
vn -0.1944 -0.2146 0.9571
vn -0.0725 -0.2097 0.9751
vn 0.0331 -0.2003 0.9792
vn 0.1251 -0.1790 0.9759
vn 0.1788 -0.1638 0.9702
vn 0.2064 -0.1552 0.9661
vn 0.2104 -0.1499 0.9661
vn 0.1924 -0.1579 0.9685
vn 0.1612 -0.1705 0.9721
vn 0.1413 -0.1569 0.9774
vn 0.1416 -0.1404 0.9799
vn 0.1517 -0.1292 0.9799
vn 0.1589 -0.1257 0.9793
vn 0.1583 -0.1352 0.9781
vn 0.1376 -0.1362 0.9811
vn 0.1218 -0.1126 0.9861
vn -0.1344 -0.1991 0.9707
vn -0.1915 -0.2017 0.9606
vn -0.0454 -0.1566 0.9866
vn 0.0586 -0.1028 0.9930
vn 0.1402 -0.0688 0.9877
vn 0.1851 -0.0583 0.9810
vn 0.2102 -0.0604 0.9758
vn 0.2075 -0.0671 0.9759
vn 0.1854 -0.0772 0.9796
vn 0.1706 -0.0745 0.9825
vn 0.1638 -0.0501 0.9852
vn 0.1586 -0.0357 0.9867
vn 0.1612 -0.0341 0.9863
vn 0.1597 -0.0361 0.9865
vn 0.1550 -0.0397 0.9871
vn 0.1452 -0.0495 0.9882
vn 0.1386 -0.0408 0.9895
vn -0.1033 -0.1510 0.9831
vn -0.1961 -0.1643 0.9667
vn 0.0270 -0.1024 0.9944
vn 0.1219 -0.0353 0.9919
vn 0.1699 0.0045 0.9854
vn 0.1884 0.0219 0.9818
vn 0.1998 0.0211 0.9796
vn 0.1970 0.0094 0.9804
vn 0.1883 -0.0021 0.9821
vn 0.1903 0.0044 0.9817
vn 0.1812 0.0174 0.9833
vn 0.1590 0.0179 0.9871
vn 0.1527 0.0029 0.9883
vn 0.1547 -0.0114 0.9879
vn 0.1465 -0.0210 0.9890
vn 0.1378 -0.0405 0.9896
vn 0.1380 -0.0436 0.9895
vn -0.0711 -0.0597 0.9957
vn -0.1628 -0.1033 0.9812
vn 0.0717 -0.0276 0.9970
vn 0.1643 0.0071 0.9864
vn 0.1959 0.0309 0.9801
vn 0.2014 0.0491 0.9783
vn 0.1984 0.0550 0.9786
vn 0.1849 0.0468 0.9816
vn 0.1810 0.0340 0.9829
vn 0.1899 0.0263 0.9814
vn 0.1770 0.0146 0.9841
vn 0.1444 -0.0010 0.9895
vn 0.1325 -0.0110 0.9911
vn 0.1365 -0.0055 0.9906
vn 0.1266 -0.0042 0.9920
vn 0.1232 -0.0147 0.9923
vn 0.1403 -0.0238 0.9898
vn -0.0276 0.0014 0.9996
vn -0.0983 -0.0702 0.9927
vn 0.0939 0.0422 0.9947
vn 0.1789 0.0520 0.9825
vn 0.2104 0.0526 0.9762
vn 0.2114 0.0532 0.9760
vn 0.1977 0.0512 0.9789
vn 0.1763 0.0491 0.9831
vn 0.1678 0.0468 0.9847
vn 0.1715 0.0288 0.9848
vn 0.1547 -0.0002 0.9880
vn 0.1339 -0.0191 0.9908
vn 0.1483 0.0040 0.9889
vn 0.1610 0.0631 0.9849
vn 0.1367 0.1089 0.9846
vn 0.1176 0.1269 0.9849
vn 0.1321 0.1130 0.9848
vn 0.0418 0.0348 0.9985
vn -0.0076 -0.0535 0.9985
vn 0.1220 0.0831 0.9890
vn 0.1745 0.0851 0.9810
vn 0.1970 0.0730 0.9777
vn 0.1998 0.0665 0.9776
vn 0.1938 0.0788 0.9779
vn 0.1798 0.1071 0.9779
vn 0.1603 0.1193 0.9798
vn 0.1434 0.1094 0.9836
vn 0.1295 0.1026 0.9863
vn 0.1477 0.1063 0.9833
vn 0.2108 0.1152 0.9707
vn 0.2351 0.1382 0.9621
vn 0.1858 0.1829 0.9654
vn 0.1243 0.2101 0.9697
vn 0.1023 0.2031 0.9738
vn 0.1092 0.0644 0.9919
vn 0.0803 -0.0210 0.9965
vn 0.1440 0.1025 0.9843
vn 0.1691 0.1041 0.9801
vn 0.1921 0.0957 0.9767
vn 0.2161 0.1072 0.9705
vn 0.2338 0.1541 0.9600
vn 0.2103 0.2112 0.9545
vn 0.1652 0.2258 0.9601
vn 0.1507 0.2218 0.9634
vn 0.1473 0.2385 0.9599
vn 0.1435 0.2505 0.9574
vn 0.1779 0.2210 0.9589
vn 0.2250 0.1651 0.9603
vn 0.2045 0.1590 0.9659
vn 0.1355 0.1566 0.9783
vn 0.0987 0.1486 0.9840
vn 0.1636 0.1208 0.9791
vn 0.1663 0.0557 0.9845
vn 0.1608 0.1466 0.9760
vn 0.1672 0.1542 0.9738
vn 0.1989 0.1525 0.9681
vn 0.2542 0.1694 0.9522
vn 0.2890 0.2031 0.9355
vn 0.2435 0.2336 0.9414
vn 0.1653 0.2353 0.9578
vn 0.1539 0.1998 0.9677
vn 0.1589 0.1471 0.9763
vn 0.1299 0.1291 0.9831
vn 0.1252 0.1310 0.9835
vn 0.1748 0.1072 0.9788
vn 0.1775 0.0678 0.9818
vn 0.1138 0.0170 0.9934
vn 0.0756 -0.0262 0.9968
vn 0.1972 0.1526 0.9684
vn 0.2192 0.1155 0.9688
vn 0.1754 0.1788 0.9681
vn 0.1738 0.1981 0.9647
vn 0.2064 0.2161 0.9543
vn 0.2649 0.2219 0.9384
vn 0.2942 0.1858 0.9375
vn 0.2396 0.1249 0.9628
vn 0.1292 0.0546 0.9901
vn 0.0612 -0.0234 0.9979
vn 0.0775 -0.1224 0.9894
vn 0.1295 -0.1614 0.9784
vn 0.1600 -0.1357 0.9777
vn 0.1667 -0.1075 0.9801
vn 0.1173 -0.1382 0.9834
vn 0.0424 -0.1736 0.9839
vn 0.0079 -0.2000 0.9798
vn 0.2244 0.1330 0.9654
vn 0.2415 0.1212 0.9628
vn 0.2051 0.1668 0.9644
vn 0.2047 0.2000 0.9582
vn 0.2237 0.2367 0.9455
vn 0.2260 0.2272 0.9473
vn 0.1971 0.1028 0.9750
vn 0.1144 -0.0858 0.9897
vn 0.0190 -0.2300 0.9730
vn -0.0190 -0.3053 0.9521
vn 0.0200 -0.3363 0.9415
vn 0.1088 -0.3531 0.9292
vn 0.1684 -0.3477 0.9224
vn 0.1643 -0.3311 0.9292
vn 0.1070 -0.3297 0.9380
vn 0.0485 -0.3024 0.9520
vn 0.0230 -0.2623 0.9647
vn 0.2419 0.1065 0.9645
vn 0.2364 0.1183 0.9644
vn 0.2426 0.1241 0.9622
vn 0.2465 0.1515 0.9572
vn 0.2377 0.1455 0.9604
vn 0.1359 0.0321 0.9902
vn -0.0126 -0.1536 0.9881
vn -0.0877 -0.3189 0.9437
vn -0.0952 -0.3869 0.9172
vn -0.0547 -0.3925 0.9181
vn 0.0176 -0.3677 0.9298
vn 0.1047 -0.3545 0.9292
vn 0.1724 -0.3523 0.9199
vn 0.1801 -0.3453 0.9210
vn 0.1478 -0.3222 0.9351
vn 0.1174 -0.2678 0.9563
vn 0.0940 -0.2037 0.9745
vn 0.2315 0.0717 0.9702
vn 0.2121 0.1004 0.9721
vn 0.2518 0.0564 0.9661
vn 0.2296 0.0490 0.9721
vn 0.1100 -0.0303 0.9935
vn -0.0667 -0.2056 0.9763
vn -0.1554 -0.3484 0.9244
vn -0.1366 -0.4018 0.9055
vn -0.0643 -0.3913 0.9180
vn 0.0063 -0.3464 0.9381
vn 0.0640 -0.2994 0.9520
vn 0.1238 -0.2634 0.9567
vn 0.1801 -0.2469 0.9522
vn 0.2044 -0.2374 0.9497
vn 0.2001 -0.2034 0.9584
vn 0.1814 -0.1467 0.9724
vn 0.1602 -0.0884 0.9831
vn 0.2014 0.0308 0.9790
vn 0.1859 0.0622 0.9806
vn 0.2226 -0.0187 0.9747
vn 0.1658 -0.0769 0.9831
vn -0.0132 -0.1810 0.9834
vn -0.1965 -0.2789 0.9400
vn -0.2246 -0.3364 0.9145
vn -0.1327 -0.3347 0.9329
vn -0.0278 -0.3083 0.9509
vn 0.0500 -0.2800 0.9587
vn 0.1082 -0.2493 0.9624
vn 0.1618 -0.2087 0.9645
vn 0.2052 -0.1717 0.9635
vn 0.2333 -0.1487 0.9610
vn 0.2476 -0.1117 0.9624
vn 0.2375 -0.0629 0.9693
vn 0.2191 -0.0080 0.9757
vn 0.1543 -0.0116 0.9880
vn 0.1641 0.0132 0.9864
vn 0.1489 -0.0650 0.9867
vn 0.0701 -0.1655 0.9837
vn -0.1033 -0.2646 0.9588
vn -0.2332 -0.2986 0.9254
vn -0.2157 -0.2766 0.9365
vn -0.1037 -0.2450 0.9640
vn -0.0032 -0.2283 0.9736
vn 0.0700 -0.2189 0.9732
vn 0.1381 -0.2042 0.9691
vn 0.2028 -0.1721 0.9640
vn 0.2413 -0.1346 0.9611
vn 0.2657 -0.1071 0.9581
vn 0.2852 -0.0762 0.9554
vn 0.2823 -0.0443 0.9583
vn 0.2591 -0.0121 0.9658
vt 0.015625 0.015625
vt 0.076172 0.015625
vt 0.076172 0.076172
vt 0.015625 0.076172
vt 0.136719 0.015625
vt 0.136719 0.076172
vt 0.197266 0.015625
vt 0.197266 0.076172
vt 0.257812 0.015625
vt 0.257812 0.076172
vt 0.318359 0.015625
vt 0.318359 0.076172
vt 0.378906 0.015625
vt 0.378906 0.076172
vt 0.439453 0.015625
vt 0.439453 0.076172
vt 0.500000 0.015625
vt 0.500000 0.076172
vt 0.560547 0.015625
vt 0.560547 0.076172
vt 0.621094 0.015625
vt 0.621094 0.076172
vt 0.681641 0.015625
vt 0.681641 0.076172
vt 0.742188 0.015625
vt 0.742188 0.076172
vt 0.802734 0.015625
vt 0.802734 0.076172
vt 0.863281 0.015625
vt 0.863281 0.076172
vt 0.923828 0.015625
vt 0.923828 0.076172
vt 0.984375 0.015625
vt 0.984375 0.076172
vt 0.076172 0.136719
vt 0.015625 0.136719
vt 0.136719 0.136719
vt 0.197266 0.136719
vt 0.257812 0.136719
vt 0.318359 0.136719
vt 0.378906 0.136719
vt 0.439453 0.136719
vt 0.500000 0.136719
vt 0.560547 0.136719
vt 0.621094 0.136719
vt 0.681641 0.136719
vt 0.742188 0.136719
vt 0.802734 0.136719
vt 0.863281 0.136719
vt 0.923828 0.136719
vt 0.984375 0.136719
vt 0.076172 0.197266
vt 0.015625 0.197266
vt 0.136719 0.197266
vt 0.197266 0.197266
vt 0.257812 0.197266
vt 0.318359 0.197266
vt 0.378906 0.197266
vt 0.439453 0.197266
vt 0.500000 0.197266
vt 0.560547 0.197266
vt 0.621094 0.197266
vt 0.681641 0.197266
vt 0.742188 0.197266
vt 0.802734 0.197266
vt 0.863281 0.197266
vt 0.923828 0.197266
vt 0.984375 0.197266
vt 0.076172 0.257812
vt 0.015625 0.257812
vt 0.136719 0.257812
vt 0.197266 0.257812
vt 0.257812 0.257812
vt 0.318359 0.257812
vt 0.378906 0.257812
vt 0.439453 0.257812
vt 0.500000 0.257812
vt 0.560547 0.257812
vt 0.621094 0.257812
vt 0.681641 0.257812
vt 0.742188 0.257812
vt 0.802734 0.257812
vt 0.863281 0.257812
vt 0.923828 0.257812
vt 0.984375 0.257812
vt 0.076172 0.318359
vt 0.015625 0.318359
vt 0.136719 0.318359
vt 0.197266 0.318359
vt 0.257812 0.318359
vt 0.318359 0.318359
vt 0.378906 0.318359
vt 0.439453 0.318359
vt 0.500000 0.318359
vt 0.560547 0.318359
vt 0.621094 0.318359
vt 0.681641 0.318359
vt 0.742188 0.318359
vt 0.802734 0.318359
vt 0.863281 0.318359
vt 0.923828 0.318359
vt 0.984375 0.318359
vt 0.076172 0.378906
vt 0.015625 0.378906
vt 0.136719 0.378906
vt 0.197266 0.378906
vt 0.257812 0.378906
vt 0.318359 0.378906
vt 0.378906 0.378906
vt 0.439453 0.378906
vt 0.500000 0.378906
vt 0.560547 0.378906
vt 0.621094 0.378906
vt 0.681641 0.378906
vt 0.742188 0.378906
vt 0.802734 0.378906
vt 0.863281 0.378906
vt 0.923828 0.378906
vt 0.984375 0.378906
vt 0.076172 0.439453
vt 0.015625 0.439453
vt 0.136719 0.439453
vt 0.197266 0.439453
vt 0.257812 0.439453
vt 0.318359 0.439453
vt 0.378906 0.439453
vt 0.439453 0.439453
vt 0.500000 0.439453
vt 0.560547 0.439453
vt 0.621094 0.439453
vt 0.681641 0.439453
vt 0.742188 0.439453
vt 0.802734 0.439453
vt 0.863281 0.439453
vt 0.923828 0.439453
vt 0.984375 0.439453
vt 0.076172 0.500000
vt 0.015625 0.500000
vt 0.136719 0.500000
vt 0.197266 0.500000
vt 0.257812 0.500000
vt 0.318359 0.500000
vt 0.378906 0.500000
vt 0.439453 0.500000
vt 0.500000 0.500000
vt 0.560547 0.500000
vt 0.621094 0.500000
vt 0.681641 0.500000
vt 0.742188 0.500000
vt 0.802734 0.500000
vt 0.863281 0.500000
vt 0.923828 0.500000
vt 0.984375 0.500000
vt 0.076172 0.560547
vt 0.015625 0.560547
vt 0.136719 0.560547
vt 0.197266 0.560547
vt 0.257812 0.560547
vt 0.318359 0.560547
vt 0.378906 0.560547
vt 0.439453 0.560547
vt 0.500000 0.560547
vt 0.560547 0.560547
vt 0.621094 0.560547
vt 0.681641 0.560547
vt 0.742188 0.560547
vt 0.802734 0.560547
vt 0.863281 0.560547
vt 0.923828 0.560547
vt 0.984375 0.560547
vt 0.076172 0.621094
vt 0.015625 0.621094
vt 0.136719 0.621094
vt 0.197266 0.621094
vt 0.257812 0.621094
vt 0.318359 0.621094
vt 0.378906 0.621094
vt 0.439453 0.621094
vt 0.500000 0.621094
vt 0.560547 0.621094
vt 0.621094 0.621094
vt 0.681641 0.621094
vt 0.742188 0.621094
vt 0.802734 0.621094
vt 0.863281 0.621094
vt 0.923828 0.621094
vt 0.984375 0.621094
vt 0.076172 0.681641
vt 0.015625 0.681641
vt 0.136719 0.681641
vt 0.197266 0.681641
vt 0.257812 0.681641
vt 0.318359 0.681641
vt 0.378906 0.681641
vt 0.439453 0.681641
vt 0.500000 0.681641
vt 0.560547 0.681641
vt 0.621094 0.681641
vt 0.681641 0.681641
vt 0.742188 0.681641
vt 0.802734 0.681641
vt 0.863281 0.681641
vt 0.923828 0.681641
vt 0.984375 0.681641
vt 0.076172 0.742188
vt 0.015625 0.742188
vt 0.136719 0.742188
vt 0.197266 0.742188
vt 0.257812 0.742188
vt 0.318359 0.742188
vt 0.378906 0.742188
vt 0.439453 0.742188
vt 0.500000 0.742188
vt 0.560547 0.742188
vt 0.621094 0.742188
vt 0.681641 0.742188
vt 0.742188 0.742188
vt 0.802734 0.742188
vt 0.863281 0.742188
vt 0.923828 0.742188
vt 0.984375 0.742188
vt 0.076172 0.802734
vt 0.015625 0.802734
vt 0.136719 0.802734
vt 0.197266 0.802734
vt 0.257812 0.802734
vt 0.318359 0.802734
vt 0.378906 0.802734
vt 0.439453 0.802734
vt 0.500000 0.802734
vt 0.560547 0.802734
vt 0.621094 0.802734
vt 0.681641 0.802734
vt 0.742188 0.802734
vt 0.802734 0.802734
vt 0.863281 0.802734
vt 0.923828 0.802734
vt 0.984375 0.802734
vt 0.076172 0.863281
vt 0.015625 0.863281
vt 0.136719 0.863281
vt 0.197266 0.863281
vt 0.257812 0.863281
vt 0.318359 0.863281
vt 0.378906 0.863281
vt 0.439453 0.863281
vt 0.500000 0.863281
vt 0.560547 0.863281
vt 0.621094 0.863281
vt 0.681641 0.863281
vt 0.742188 0.863281
vt 0.802734 0.863281
vt 0.863281 0.863281
vt 0.923828 0.863281
vt 0.984375 0.863281
vt 0.076172 0.923828
vt 0.015625 0.923828
vt 0.136719 0.923828
vt 0.197266 0.923828
vt 0.257812 0.923828
vt 0.318359 0.923828
vt 0.378906 0.923828
vt 0.439453 0.923828
vt 0.500000 0.923828
vt 0.560547 0.923828
vt 0.621094 0.923828
vt 0.681641 0.923828
vt 0.742188 0.923828
vt 0.802734 0.923828
vt 0.863281 0.923828
vt 0.923828 0.923828
vt 0.984375 0.923828
vt 0.076172 0.984375
vt 0.015625 0.984375
vt 0.136719 0.984375
vt 0.197266 0.984375
vt 0.257812 0.984375
vt 0.318359 0.984375
vt 0.378906 0.984375
vt 0.439453 0.984375
vt 0.500000 0.984375
vt 0.560547 0.984375
vt 0.621094 0.984375
vt 0.681641 0.984375
vt 0.742188 0.984375
vt 0.802734 0.984375
vt 0.863281 0.984375
vt 0.923828 0.984375
vt 0.984375 0.984375
s 1
f 1/1/1 2/2/2 19/3/3
f 1/1/1 19/3/3 18/4/4
f 2/2/2 3/5/5 20/6/6
f 2/2/2 20/6/6 19/3/3
f 3/5/5 4/7/7 21/8/8
f 3/5/5 21/8/8 20/6/6
f 4/7/7 5/9/9 22/10/10
f 4/7/7 22/10/10 21/8/8
f 5/9/9 6/11/11 23/12/12
f 5/9/9 23/12/12 22/10/10
f 6/11/11 7/13/13 24/14/14
f 6/11/11 24/14/14 23/12/12
f 7/13/13 8/15/15 25/16/16
f 7/13/13 25/16/16 24/14/14
f 8/15/15 9/17/17 26/18/18
f 8/15/15 26/18/18 25/16/16
f 9/17/17 10/19/19 27/20/20
f 9/17/17 27/20/20 26/18/18
f 10/19/19 11/21/21 28/22/22
f 10/19/19 28/22/22 27/20/20
f 11/21/21 12/23/23 29/24/24
f 11/21/21 29/24/24 28/22/22
f 12/23/23 13/25/25 30/26/26
f 12/23/23 30/26/26 29/24/24
f 13/25/25 14/27/27 31/28/28
f 13/25/25 31/28/28 30/26/26
f 14/27/27 15/29/29 32/30/30
f 14/27/27 32/30/30 31/28/28
f 15/29/29 16/31/31 33/32/32
f 15/29/29 33/32/32 32/30/30
f 16/31/31 17/33/33 34/34/34
f 16/31/31 34/34/34 33/32/32
f 18/4/4 19/3/3 36/35/35
f 18/4/4 36/35/35 35/36/36
f 19/3/3 20/6/6 37/37/37
f 19/3/3 37/37/37 36/35/35
f 20/6/6 21/8/8 38/38/38
f 20/6/6 38/38/38 37/37/37
f 21/8/8 22/10/10 39/39/39
f 21/8/8 39/39/39 38/38/38
f 22/10/10 23/12/12 40/40/40
f 22/10/10 40/40/40 39/39/39
f 23/12/12 24/14/14 41/41/41
f 23/12/12 41/41/41 40/40/40
f 24/14/14 25/16/16 42/42/42
f 24/14/14 42/42/42 41/41/41
f 25/16/16 26/18/18 43/43/43
f 25/16/16 43/43/43 42/42/42
f 26/18/18 27/20/20 44/44/44
f 26/18/18 44/44/44 43/43/43
f 27/20/20 28/22/22 45/45/45
f 27/20/20 45/45/45 44/44/44
f 28/22/22 29/24/24 46/46/46
f 28/22/22 46/46/46 45/45/45
f 29/24/24 30/26/26 47/47/47
f 29/24/24 47/47/47 46/46/46
f 30/26/26 31/28/28 48/48/48
f 30/26/26 48/48/48 47/47/47
f 31/28/28 32/30/30 49/49/49
f 31/28/28 49/49/49 48/48/48
f 32/30/30 33/32/32 50/50/50
f 32/30/30 50/50/50 49/49/49
f 33/32/32 34/34/34 51/51/51
f 33/32/32 51/51/51 50/50/50
f 35/36/36 36/35/35 53/52/52
f 35/36/36 53/52/52 52/53/53
f 36/35/35 37/37/37 54/54/54
f 36/35/35 54/54/54 53/52/52
f 37/37/37 38/38/38 55/55/55
f 37/37/37 55/55/55 54/54/54
f 38/38/38 39/39/39 56/56/56
f 38/38/38 56/56/56 55/55/55
f 39/39/39 40/40/40 57/57/57
f 39/39/39 57/57/57 56/56/56
f 40/40/40 41/41/41 58/58/58
f 40/40/40 58/58/58 57/57/57
f 41/41/41 42/42/42 59/59/59
f 41/41/41 59/59/59 58/58/58
f 42/42/42 43/43/43 60/60/60
f 42/42/42 60/60/60 59/59/59
f 43/43/43 44/44/44 61/61/61
f 43/43/43 61/61/61 60/60/60
f 44/44/44 45/45/45 62/62/62
f 44/44/44 62/62/62 61/61/61
f 45/45/45 46/46/46 63/63/63
f 45/45/45 63/63/63 62/62/62
f 46/46/46 47/47/47 64/64/64
f 46/46/46 64/64/64 63/63/63
f 47/47/47 48/48/48 65/65/65
f 47/47/47 65/65/65 64/64/64
f 48/48/48 49/49/49 66/66/66
f 48/48/48 66/66/66 65/65/65
f 49/49/49 50/50/50 67/67/67
f 49/49/49 67/67/67 66/66/66
f 50/50/50 51/51/51 68/68/68
f 50/50/50 68/68/68 67/67/67
f 52/53/53 53/52/52 70/69/69
f 52/53/53 70/69/69 69/70/70
f 53/52/52 54/54/54 71/71/71
f 53/52/52 71/71/71 70/69/69
f 54/54/54 55/55/55 72/72/72
f 54/54/54 72/72/72 71/71/71
f 55/55/55 56/56/56 73/73/73
f 55/55/55 73/73/73 72/72/72
f 56/56/56 57/57/57 74/74/74
f 56/56/56 74/74/74 73/73/73
f 57/57/57 58/58/58 75/75/75
f 57/57/57 75/75/75 74/74/74
f 58/58/58 59/59/59 76/76/76
f 58/58/58 76/76/76 75/75/75
f 59/59/59 60/60/60 77/77/77
f 59/59/59 77/77/77 76/76/76
f 60/60/60 61/61/61 78/78/78
f 60/60/60 78/78/78 77/77/77
f 61/61/61 62/62/62 79/79/79
f 61/61/61 79/79/79 78/78/78
f 62/62/62 63/63/63 80/80/80
f 62/62/62 80/80/80 79/79/79
f 63/63/63 64/64/64 81/81/81
f 63/63/63 81/81/81 80/80/80
f 64/64/64 65/65/65 82/82/82
f 64/64/64 82/82/82 81/81/81
f 65/65/65 66/66/66 83/83/83
f 65/65/65 83/83/83 82/82/82
f 66/66/66 67/67/67 84/84/84
f 66/66/66 84/84/84 83/83/83
f 67/67/67 68/68/68 85/85/85
f 67/67/67 85/85/85 84/84/84
f 69/70/70 70/69/69 87/86/86
f 69/70/70 87/86/86 86/87/87
f 70/69/69 71/71/71 88/88/88
f 70/69/69 88/88/88 87/86/86
f 71/71/71 72/72/72 89/89/89
f 71/71/71 89/89/89 88/88/88
f 72/72/72 73/73/73 90/90/90
f 72/72/72 90/90/90 89/89/89
f 73/73/73 74/74/74 91/91/91
f 73/73/73 91/91/91 90/90/90
f 74/74/74 75/75/75 92/92/92
f 74/74/74 92/92/92 91/91/91
f 75/75/75 76/76/76 93/93/93
f 75/75/75 93/93/93 92/92/92
f 76/76/76 77/77/77 94/94/94
f 76/76/76 94/94/94 93/93/93
f 77/77/77 78/78/78 95/95/95
f 77/77/77 95/95/95 94/94/94
f 78/78/78 79/79/79 96/96/96
f 78/78/78 96/96/96 95/95/95
f 79/79/79 80/80/80 97/97/97
f 79/79/79 97/97/97 96/96/96
f 80/80/80 81/81/81 98/98/98
f 80/80/80 98/98/98 97/97/97
f 81/81/81 82/82/82 99/99/99
f 81/81/81 99/99/99 98/98/98
f 82/82/82 83/83/83 100/100/100
f 82/82/82 100/100/100 99/99/99
f 83/83/83 84/84/84 101/101/101
f 83/83/83 101/101/101 100/100/100
f 84/84/84 85/85/85 102/102/102
f 84/84/84 102/102/102 101/101/101
f 86/87/87 87/86/86 104/103/103
f 86/87/87 104/103/103 103/104/104
f 87/86/86 88/88/88 105/105/105
f 87/86/86 105/105/105 104/103/103
f 88/88/88 89/89/89 106/106/106
f 88/88/88 106/106/106 105/105/105
f 89/89/89 90/90/90 107/107/107
f 89/89/89 107/107/107 106/106/106
f 90/90/90 91/91/91 108/108/108
f 90/90/90 108/108/108 107/107/107
f 91/91/91 92/92/92 109/109/109
f 91/91/91 109/109/109 108/108/108
f 92/92/92 93/93/93 110/110/110
f 92/92/92 110/110/110 109/109/109
f 93/93/93 94/94/94 111/111/111
f 93/93/93 111/111/111 110/110/110
f 94/94/94 95/95/95 112/112/112
f 94/94/94 112/112/112 111/111/111
f 95/95/95 96/96/96 113/113/113
f 95/95/95 113/113/113 112/112/112
f 96/96/96 97/97/97 114/114/114
f 96/96/96 114/114/114 113/113/113
f 97/97/97 98/98/98 115/115/115
f 97/97/97 115/115/115 114/114/114
f 98/98/98 99/99/99 116/116/116
f 98/98/98 116/116/116 115/115/115
f 99/99/99 100/100/100 117/117/117
f 99/99/99 117/117/117 116/116/116
f 100/100/100 101/101/101 118/118/118
f 100/100/100 118/118/118 117/117/117
f 101/101/101 102/102/102 119/119/119
f 101/101/101 119/119/119 118/118/118
f 103/104/104 104/103/103 121/120/120
f 103/104/104 121/120/120 120/121/121
f 104/103/103 105/105/105 122/122/122
f 104/103/103 122/122/122 121/120/120
f 105/105/105 106/106/106 123/123/123
f 105/105/105 123/123/123 122/122/122
f 106/106/106 107/107/107 124/124/124
f 106/106/106 124/124/124 123/123/123
f 107/107/107 108/108/108 125/125/125
f 107/107/107 125/125/125 124/124/124
f 108/108/108 109/109/109 126/126/126
f 108/108/108 126/126/126 125/125/125
f 109/109/109 110/110/110 127/127/127
f 109/109/109 127/127/127 126/126/126
f 110/110/110 111/111/111 128/128/128
f 110/110/110 128/128/128 127/127/127
f 111/111/111 112/112/112 129/129/129
f 111/111/111 129/129/129 128/128/128
f 112/112/112 113/113/113 130/130/130
f 112/112/112 130/130/130 129/129/129
f 113/113/113 114/114/114 131/131/131
f 113/113/113 131/131/131 130/130/130
f 114/114/114 115/115/115 132/132/132
f 114/114/114 132/132/132 131/131/131
f 115/115/115 116/116/116 133/133/133
f 115/115/115 133/133/133 132/132/132
f 116/116/116 117/117/117 134/134/134
f 116/116/116 134/134/134 133/133/133
f 117/117/117 118/118/118 135/135/135
f 117/117/117 135/135/135 134/134/134
f 118/118/118 119/119/119 136/136/136
f 118/118/118 136/136/136 135/135/135
f 120/121/121 121/120/120 138/137/137
f 120/121/121 138/137/137 137/138/138
f 121/120/120 122/122/122 139/139/139
f 121/120/120 139/139/139 138/137/137
f 122/122/122 123/123/123 140/140/140
f 122/122/122 140/140/140 139/139/139
f 123/123/123 124/124/124 141/141/141
f 123/123/123 141/141/141 140/140/140
f 124/124/124 125/125/125 142/142/142
f 124/124/124 142/142/142 141/141/141
f 125/125/125 126/126/126 143/143/143
f 125/125/125 143/143/143 142/142/142
f 126/126/126 127/127/127 144/144/144
f 126/126/126 144/144/144 143/143/143
f 127/127/127 128/128/128 145/145/145
f 127/127/127 145/145/145 144/144/144
f 128/128/128 129/129/129 146/146/146
f 128/128/128 146/146/146 145/145/145
f 129/129/129 130/130/130 147/147/147
f 129/129/129 147/147/147 146/146/146
f 130/130/130 131/131/131 148/148/148
f 130/130/130 148/148/148 147/147/147
f 131/131/131 132/132/132 149/149/149
f 131/131/131 149/149/149 148/148/148
f 132/132/132 133/133/133 150/150/150
f 132/132/132 150/150/150 149/149/149
f 133/133/133 134/134/134 151/151/151
f 133/133/133 151/151/151 150/150/150
f 134/134/134 135/135/135 152/152/152
f 134/134/134 152/152/152 151/151/151
f 135/135/135 136/136/136 153/153/153
f 135/135/135 153/153/153 152/152/152
f 137/138/138 138/137/137 155/154/154
f 137/138/138 155/154/154 154/155/155
f 138/137/137 139/139/139 156/156/156
f 138/137/137 156/156/156 155/154/154
f 139/139/139 140/140/140 157/157/157
f 139/139/139 157/157/157 156/156/156
f 140/140/140 141/141/141 158/158/158
f 140/140/140 158/158/158 157/157/157
f 141/141/141 142/142/142 159/159/159
f 141/141/141 159/159/159 158/158/158
f 142/142/142 143/143/143 160/160/160
f 142/142/142 160/160/160 159/159/159
f 143/143/143 144/144/144 161/161/161
f 143/143/143 161/161/161 160/160/160
f 144/144/144 145/145/145 162/162/162
f 144/144/144 162/162/162 161/161/161
f 145/145/145 146/146/146 163/163/163
f 145/145/145 163/163/163 162/162/162
f 146/146/146 147/147/147 164/164/164
f 146/146/146 164/164/164 163/163/163
f 147/147/147 148/148/148 165/165/165
f 147/147/147 165/165/165 164/164/164
f 148/148/148 149/149/149 166/166/166
f 148/148/148 166/166/166 165/165/165
f 149/149/149 150/150/150 167/167/167
f 149/149/149 167/167/167 166/166/166
f 150/150/150 151/151/151 168/168/168
f 150/150/150 168/168/168 167/167/167
f 151/151/151 152/152/152 169/169/169
f 151/151/151 169/169/169 168/168/168
f 152/152/152 153/153/153 170/170/170
f 152/152/152 170/170/170 169/169/169
f 154/155/155 155/154/154 172/171/171
f 154/155/155 172/171/171 171/172/172
f 155/154/154 156/156/156 173/173/173
f 155/154/154 173/173/173 172/171/171
f 156/156/156 157/157/157 174/174/174
f 156/156/156 174/174/174 173/173/173
f 157/157/157 158/158/158 175/175/175
f 157/157/157 175/175/175 174/174/174
f 158/158/158 159/159/159 176/176/176
f 158/158/158 176/176/176 175/175/175
f 159/159/159 160/160/160 177/177/177
f 159/159/159 177/177/177 176/176/176
f 160/160/160 161/161/161 178/178/178
f 160/160/160 178/178/178 177/177/177
f 161/161/161 162/162/162 179/179/179
f 161/161/161 179/179/179 178/178/178
f 162/162/162 163/163/163 180/180/180
f 162/162/162 180/180/180 179/179/179
f 163/163/163 164/164/164 181/181/181
f 163/163/163 181/181/181 180/180/180
f 164/164/164 165/165/165 182/182/182
f 164/164/164 182/182/182 181/181/181
f 165/165/165 166/166/166 183/183/183
f 165/165/165 183/183/183 182/182/182
f 166/166/166 167/167/167 184/184/184
f 166/166/166 184/184/184 183/183/183
f 167/167/167 168/168/168 185/185/185
f 167/167/167 185/185/185 184/184/184
f 168/168/168 169/169/169 186/186/186
f 168/168/168 186/186/186 185/185/185
f 169/169/169 170/170/170 187/187/187
f 169/169/169 187/187/187 186/186/186
f 171/172/172 172/171/171 189/188/188
f 171/172/172 189/188/188 188/189/189
f 172/171/171 173/173/173 190/190/190
f 172/171/171 190/190/190 189/188/188
f 173/173/173 174/174/174 191/191/191
f 173/173/173 191/191/191 190/190/190
f 174/174/174 175/175/175 192/192/192
f 174/174/174 192/192/192 191/191/191
f 175/175/175 176/176/176 193/193/193
f 175/175/175 193/193/193 192/192/192
f 176/176/176 177/177/177 194/194/194
f 176/176/176 194/194/194 193/193/193
f 177/177/177 178/178/178 195/195/195
f 177/177/177 195/195/195 194/194/194
f 178/178/178 179/179/179 196/196/196
f 178/178/178 196/196/196 195/195/195
f 179/179/179 180/180/180 197/197/197
f 179/179/179 197/197/197 196/196/196
f 180/180/180 181/181/181 198/198/198
f 180/180/180 198/198/198 197/197/197
f 181/181/181 182/182/182 199/199/199
f 181/181/181 199/199/199 198/198/198
f 182/182/182 183/183/183 200/200/200
f 182/182/182 200/200/200 199/199/199
f 183/183/183 184/184/184 201/201/201
f 183/183/183 201/201/201 200/200/200
f 184/184/184 185/185/185 202/202/202
f 184/184/184 202/202/202 201/201/201
f 185/185/185 186/186/186 203/203/203
f 185/185/185 203/203/203 202/202/202
f 186/186/186 187/187/187 204/204/204
f 186/186/186 204/204/204 203/203/203
f 188/189/189 189/188/188 206/205/205
f 188/189/189 206/205/205 205/206/206
f 189/188/188 190/190/190 207/207/207
f 189/188/188 207/207/207 206/205/205
f 190/190/190 191/191/191 208/208/208
f 190/190/190 208/208/208 207/207/207
f 191/191/191 192/192/192 209/209/209
f 191/191/191 209/209/209 208/208/208
f 192/192/192 193/193/193 210/210/210
f 192/192/192 210/210/210 209/209/209
f 193/193/193 194/194/194 211/211/211
f 193/193/193 211/211/211 210/210/210
f 194/194/194 195/195/195 212/212/212
f 194/194/194 212/212/212 211/211/211
f 195/195/195 196/196/196 213/213/213
f 195/195/195 213/213/213 212/212/212
f 196/196/196 197/197/197 214/214/214
f 196/196/196 214/214/214 213/213/213
f 197/197/197 198/198/198 215/215/215
f 197/197/197 215/215/215 214/214/214
f 198/198/198 199/199/199 216/216/216
f 198/198/198 216/216/216 215/215/215
f 199/199/199 200/200/200 217/217/217
f 199/199/199 217/217/217 216/216/216
f 200/200/200 201/201/201 218/218/218
f 200/200/200 218/218/218 217/217/217
f 201/201/201 202/202/202 219/219/219
f 201/201/201 219/219/219 218/218/218
f 202/202/202 203/203/203 220/220/220
f 202/202/202 220/220/220 219/219/219
f 203/203/203 204/204/204 221/221/221
f 203/203/203 221/221/221 220/220/220
f 205/206/206 206/205/205 223/222/222
f 205/206/206 223/222/222 222/223/223
f 206/205/205 207/207/207 224/224/224
f 206/205/205 224/224/224 223/222/222
f 207/207/207 208/208/208 225/225/225
f 207/207/207 225/225/225 224/224/224
f 208/208/208 209/209/209 226/226/226
f 208/208/208 226/226/226 225/225/225
f 209/209/209 210/210/210 227/227/227
f 209/209/209 227/227/227 226/226/226
f 210/210/210 211/211/211 228/228/228
f 210/210/210 228/228/228 227/227/227
f 211/211/211 212/212/212 229/229/229
f 211/211/211 229/229/229 228/228/228
f 212/212/212 213/213/213 230/230/230
f 212/212/212 230/230/230 229/229/229
f 213/213/213 214/214/214 231/231/231
f 213/213/213 231/231/231 230/230/230
f 214/214/214 215/215/215 232/232/232
f 214/214/214 232/232/232 231/231/231
f 215/215/215 216/216/216 233/233/233
f 215/215/215 233/233/233 232/232/232
f 216/216/216 217/217/217 234/234/234
f 216/216/216 234/234/234 233/233/233
f 217/217/217 218/218/218 235/235/235
f 217/217/217 235/235/235 234/234/234
f 218/218/218 219/219/219 236/236/236
f 218/218/218 236/236/236 235/235/235
f 219/219/219 220/220/220 237/237/237
f 219/219/219 237/237/237 236/236/236
f 220/220/220 221/221/221 238/238/238
f 220/220/220 238/238/238 237/237/237
f 222/223/223 223/222/222 240/239/239
f 222/223/223 240/239/239 239/240/240
f 223/222/222 224/224/224 241/241/241
f 223/222/222 241/241/241 240/239/239
f 224/224/224 225/225/225 242/242/242
f 224/224/224 242/242/242 241/241/241
f 225/225/225 226/226/226 243/243/243
f 225/225/225 243/243/243 242/242/242
f 226/226/226 227/227/227 244/244/244
f 226/226/226 244/244/244 243/243/243
f 227/227/227 228/228/228 245/245/245
f 227/227/227 245/245/245 244/244/244
f 228/228/228 229/229/229 246/246/246
f 228/228/228 246/246/246 245/245/245
f 229/229/229 230/230/230 247/247/247
f 229/229/229 247/247/247 246/246/246
f 230/230/230 231/231/231 248/248/248
f 230/230/230 248/248/248 247/247/247
f 231/231/231 232/232/232 249/249/249
f 231/231/231 249/249/249 248/248/248
f 232/232/232 233/233/233 250/250/250
f 232/232/232 250/250/250 249/249/249
f 233/233/233 234/234/234 251/251/251
f 233/233/233 251/251/251 250/250/250
f 234/234/234 235/235/235 252/252/252
f 234/234/234 252/252/252 251/251/251
f 235/235/235 236/236/236 253/253/253
f 235/235/235 253/253/253 252/252/252
f 236/236/236 237/237/237 254/254/254
f 236/236/236 254/254/254 253/253/253
f 237/237/237 238/238/238 255/255/255
f 237/237/237 255/255/255 254/254/254
f 239/240/240 240/239/239 257/256/256
f 239/240/240 257/256/256 256/257/257
f 240/239/239 241/241/241 258/258/258
f 240/239/239 258/258/258 257/256/256
f 241/241/241 242/242/242 259/259/259
f 241/241/241 259/259/259 258/258/258
f 242/242/242 243/243/243 260/260/260
f 242/242/242 260/260/260 259/259/259
f 243/243/243 244/244/244 261/261/261
f 243/243/243 261/261/261 260/260/260
f 244/244/244 245/245/245 262/262/262
f 244/244/244 262/262/262 261/261/261
f 245/245/245 246/246/246 263/263/263
f 245/245/245 263/263/263 262/262/262
f 246/246/246 247/247/247 264/264/264
f 246/246/246 264/264/264 263/263/263
f 247/247/247 248/248/248 265/265/265
f 247/247/247 265/265/265 264/264/264
f 248/248/248 249/249/249 266/266/266
f 248/248/248 266/266/266 265/265/265
f 249/249/249 250/250/250 267/267/267
f 249/249/249 267/267/267 266/266/266
f 250/250/250 251/251/251 268/268/268
f 250/250/250 268/268/268 267/267/267
f 251/251/251 252/252/252 269/269/269
f 251/251/251 269/269/269 268/268/268
f 252/252/252 253/253/253 270/270/270
f 252/252/252 270/270/270 269/269/269
f 253/253/253 254/254/254 271/271/271
f 253/253/253 271/271/271 270/270/270
f 254/254/254 255/255/255 272/272/272
f 254/254/254 272/272/272 271/271/271
f 256/257/257 257/256/256 274/273/273
f 256/257/257 274/273/273 273/274/274
f 257/256/256 258/258/258 275/275/275
f 257/256/256 275/275/275 274/273/273
f 258/258/258 259/259/259 276/276/276
f 258/258/258 276/276/276 275/275/275
f 259/259/259 260/260/260 277/277/277
f 259/259/259 277/277/277 276/276/276
f 260/260/260 261/261/261 278/278/278
f 260/260/260 278/278/278 277/277/277
f 261/261/261 262/262/262 279/279/279
f 261/261/261 279/279/279 278/278/278
f 262/262/262 263/263/263 280/280/280
f 262/262/262 280/280/280 279/279/279
f 263/263/263 264/264/264 281/281/281
f 263/263/263 281/281/281 280/280/280
f 264/264/264 265/265/265 282/282/282
f 264/264/264 282/282/282 281/281/281
f 265/265/265 266/266/266 283/283/283
f 265/265/265 283/283/283 282/282/282
f 266/266/266 267/267/267 284/284/284
f 266/266/266 284/284/284 283/283/283
f 267/267/267 268/268/268 285/285/285
f 267/267/267 285/285/285 284/284/284
f 268/268/268 269/269/269 286/286/286
f 268/268/268 286/286/286 285/285/285
f 269/269/269 270/270/270 287/287/287
f 269/269/269 287/287/287 286/286/286
f 270/270/270 271/271/271 288/288/288
f 270/270/270 288/288/288 287/287/287
f 271/271/271 272/272/272 289/289/289
f 271/271/271 289/289/289 288/288/288
