mtllib terrain_mid_03_05.mtl
usemtl terrain_mid_03_05
# Blender 5.1.1
# www.blender.org
o terrain_mid_03_05
v -160.000000 -160.000000 32.267368
v -140.000000 -160.000000 36.903648
v -120.000000 -160.000000 41.620621
v -100.000000 -160.000000 45.559826
v -80.000000 -160.000000 47.419685
v -60.000000 -160.000000 46.019020
v -40.000000 -160.000000 40.822586
v -20.000000 -160.000000 33.763187
v 0.000000 -160.000000 25.386255
v 20.000000 -160.000000 16.780224
v 40.000000 -160.000000 8.413792
v 60.000000 -160.000000 0.662049
v 80.000000 -160.000000 -6.054687
v 100.000000 -160.000000 -11.690557
v 120.000000 -160.000000 -15.958678
v 140.000000 -160.000000 -19.239088
v 160.000000 -160.000000 -21.144253
v -160.000000 -140.000000 37.348293
v -140.000000 -140.000000 40.332294
v -120.000000 -140.000000 43.952858
v -100.000000 -140.000000 46.959774
v -80.000000 -140.000000 47.132057
v -60.000000 -140.000000 44.215981
v -40.000000 -140.000000 37.960369
v -20.000000 -140.000000 30.204336
v 0.000000 -140.000000 21.421129
v 20.000000 -140.000000 12.660608
v 40.000000 -140.000000 4.272977
v 60.000000 -140.000000 -3.534030
v 80.000000 -140.000000 -10.134934
v 100.000000 -140.000000 -15.350301
v 120.000000 -140.000000 -18.978956
v 140.000000 -140.000000 -21.664394
v 160.000000 -140.000000 -23.191975
v -160.000000 -120.000000 42.453583
v -140.000000 -120.000000 43.495506
v -120.000000 -120.000000 45.742573
v -100.000000 -120.000000 47.002640
v -80.000000 -120.000000 45.719196
v -60.000000 -120.000000 41.429951
v -40.000000 -120.000000 34.452770
v -20.000000 -120.000000 26.320927
v 0.000000 -120.000000 17.448454
v 20.000000 -120.000000 8.813813
v 40.000000 -120.000000 0.556011
v 60.000000 -120.000000 -7.073493
v 80.000000 -120.000000 -13.244174
v 100.000000 -120.000000 -17.932909
v 120.000000 -120.000000 -20.962069
v 140.000000 -120.000000 -23.056246
v 160.000000 -120.000000 -24.268499
v -160.000000 -100.000000 46.774128
v -140.000000 -100.000000 46.438099
v -120.000000 -100.000000 46.755993
v -100.000000 -100.000000 46.231712
v -80.000000 -100.000000 43.292419
v -60.000000 -100.000000 38.057339
v -40.000000 -100.000000 30.549267
v -20.000000 -100.000000 22.192778
v 0.000000 -100.000000 13.600261
v 20.000000 -100.000000 5.307872
v 40.000000 -100.000000 -2.689351
v 60.000000 -100.000000 -9.965196
v 80.000000 -100.000000 -15.540730
v 100.000000 -100.000000 -19.550903
v 120.000000 -100.000000 -22.019361
v 140.000000 -100.000000 -23.785353
v 160.000000 -100.000000 -24.668571
v -160.000000 -80.000000 49.795765
v -140.000000 -80.000000 48.680695
v -120.000000 -80.000000 47.516743
v -100.000000 -80.000000 45.326893
v -80.000000 -80.000000 40.836056
v -60.000000 -80.000000 34.592617
v -40.000000 -80.000000 26.683235
v -20.000000 -80.000000 18.216028
v 0.000000 -80.000000 10.054322
v 20.000000 -80.000000 2.215960
v 40.000000 -80.000000 -5.411343
v 60.000000 -80.000000 -12.232442
v 80.000000 -80.000000 -17.317158
v 100.000000 -80.000000 -20.966192
v 120.000000 -80.000000 -22.951599
v 140.000000 -80.000000 -24.308294
v 160.000000 -80.000000 -25.101685
v -160.000000 -60.000000 51.559666
v -140.000000 -60.000000 50.197712
v -120.000000 -60.000000 48.192623
v -100.000000 -60.000000 44.433567
v -80.000000 -60.000000 38.732441
v -60.000000 -60.000000 31.638849
v -40.000000 -60.000000 23.454161
v -20.000000 -60.000000 14.989181
v 0.000000 -60.000000 7.149493
v 20.000000 -60.000000 -0.472100
v 40.000000 -60.000000 -7.861131
v 60.000000 -60.000000 -14.338812
v 80.000000 -60.000000 -18.961750
v 100.000000 -60.000000 -22.370821
v 120.000000 -60.000000 -24.163898
v 140.000000 -60.000000 -25.303467
v 160.000000 -60.000000 -26.054308
v -160.000000 -40.000000 52.275944
v -140.000000 -40.000000 51.066010
v -120.000000 -40.000000 48.542622
v -100.000000 -40.000000 44.120209
v -80.000000 -40.000000 37.487991
v -60.000000 -40.000000 29.690577
v -40.000000 -40.000000 21.304167
v -20.000000 -40.000000 12.969782
v 0.000000 -40.000000 5.076233
v 20.000000 -40.000000 -2.757446
v 40.000000 -40.000000 -10.126165
v 60.000000 -40.000000 -16.349798
v 80.000000 -40.000000 -20.744343
v 100.000000 -40.000000 -24.003206
v 120.000000 -40.000000 -25.824638
v 140.000000 -40.000000 -27.017305
v 160.000000 -40.000000 -27.802320
v -160.000000 -20.000000 51.848484
v -140.000000 -20.000000 51.070648
v -120.000000 -20.000000 48.544411
v -100.000000 -20.000000 43.803200
v -80.000000 -20.000000 36.736877
v -60.000000 -20.000000 28.603619
v -40.000000 -20.000000 20.059652
v -20.000000 -20.000000 11.495891
v 0.000000 -20.000000 3.326084
v 20.000000 -20.000000 -4.754123
v 40.000000 -20.000000 -12.151136
v 60.000000 -20.000000 -18.399340
v 80.000000 -20.000000 -23.029812
v 100.000000 -20.000000 -26.550014
v 120.000000 -20.000000 -28.410746
v 140.000000 -20.000000 -29.801018
v 160.000000 -20.000000 -30.850830
v -160.000000 0.000000 49.760799
v -140.000000 0.000000 49.466331
v -120.000000 0.000000 47.369312
v -100.000000 0.000000 42.789883
v -80.000000 0.000000 35.731915
v -60.000000 0.000000 27.597868
v -40.000000 0.000000 18.924603
v -20.000000 0.000000 10.058852
v 0.000000 0.000000 1.530891
v 20.000000 0.000000 -6.716885
v 40.000000 0.000000 -14.166605
v 60.000000 0.000000 -20.502224
v 80.000000 0.000000 -25.377909
v 100.000000 0.000000 -29.321552
v 120.000000 0.000000 -31.422029
v 140.000000 0.000000 -33.057854
v 160.000000 0.000000 -34.332607
v -160.000000 20.000000 44.786747
v -140.000000 20.000000 45.061726
v -120.000000 20.000000 43.721088
v -100.000000 20.000000 39.983765
v -80.000000 20.000000 33.526878
v -60.000000 20.000000 25.763788
v -40.000000 20.000000 17.080151
v -20.000000 20.000000 8.089228
v 0.000000 20.000000 -0.655395
v 20.000000 20.000000 -8.958916
v 40.000000 20.000000 -16.392076
v 60.000000 20.000000 -22.676920
v 80.000000 20.000000 -27.569477
v 100.000000 20.000000 -31.894136
v 120.000000 20.000000 -34.510620
v 140.000000 20.000000 -36.439316
v 160.000000 20.000000 -37.873039
v -160.000000 40.000000 37.684055
v -140.000000 40.000000 38.283283
v -120.000000 40.000000 37.724060
v -100.000000 40.000000 34.979282
v -80.000000 40.000000 29.680201
v -60.000000 40.000000 22.584440
v -40.000000 40.000000 14.149489
v -20.000000 40.000000 5.204692
v 0.000000 40.000000 -3.706658
v 20.000000 40.000000 -11.973076
v 40.000000 40.000000 -19.104925
v 60.000000 40.000000 -25.100910
v 80.000000 40.000000 -29.908230
v 100.000000 40.000000 -34.279106
v 120.000000 40.000000 -37.306587
v 140.000000 40.000000 -39.550884
v 160.000000 40.000000 -41.291023
v -160.000000 60.000000 28.812193
v -140.000000 60.000000 29.567255
v -120.000000 60.000000 29.701319
v -100.000000 60.000000 28.017181
v -80.000000 60.000000 23.962942
v -60.000000 60.000000 18.119183
v -40.000000 60.000000 10.331974
v -20.000000 60.000000 1.612946
v 0.000000 60.000000 -7.257575
v 20.000000 60.000000 -15.375718
v 40.000000 60.000000 -22.088825
v 60.000000 60.000000 -27.615776
v 80.000000 60.000000 -32.164928
v 100.000000 60.000000 -36.274921
v 120.000000 60.000000 -39.409451
v 140.000000 60.000000 -42.031975
v 160.000000 60.000000 -44.137863
v -160.000000 80.000000 19.074701
v -140.000000 80.000000 19.839886
v -120.000000 80.000000 20.275154
v -100.000000 80.000000 19.613380
v -80.000000 80.000000 17.049347
v -60.000000 80.000000 12.601132
v -40.000000 80.000000 5.830421
v -20.000000 80.000000 -2.281683
v 0.000000 80.000000 -10.650030
v 20.000000 80.000000 -18.423096
v 40.000000 80.000000 -24.806002
v 60.000000 80.000000 -29.926357
v 80.000000 80.000000 -34.049633
v 100.000000 80.000000 -37.663155
v 120.000000 80.000000 -40.561653
v 140.000000 80.000000 -43.367966
v 160.000000 80.000000 -45.921700
v -160.000000 100.000000 8.883949
v -140.000000 100.000000 9.687212
v -120.000000 100.000000 10.241388
v -100.000000 100.000000 10.133586
v -80.000000 100.000000 8.887899
v -60.000000 100.000000 6.124563
v -40.000000 100.000000 0.724678
v -20.000000 100.000000 -6.402079
v 0.000000 100.000000 -14.068521
v 20.000000 100.000000 -21.300922
v 40.000000 100.000000 -27.215319
v 60.000000 100.000000 -31.780748
v 80.000000 100.000000 -35.435104
v 100.000000 100.000000 -38.478394
v 120.000000 100.000000 -40.892490
v 140.000000 100.000000 -43.278576
v 160.000000 100.000000 -45.809887
v -160.000000 120.000000 -1.720703
v -140.000000 120.000000 -0.823513
v -120.000000 120.000000 -0.376864
v -100.000000 120.000000 -0.206644
v -80.000000 120.000000 -0.549309
v -60.000000 120.000000 -1.908928
v -40.000000 120.000000 -5.470295
v -20.000000 120.000000 -10.945461
v 0.000000 120.000000 -17.697489
v 20.000000 120.000000 -24.110901
v 40.000000 120.000000 -29.393555
v 60.000000 120.000000 -33.366257
v 80.000000 120.000000 -36.353466
v 100.000000 120.000000 -38.639050
v 120.000000 120.000000 -40.431789
v 140.000000 120.000000 -42.297077
v 160.000000 120.000000 -44.685844
v -160.000000 140.000000 -12.937974
v -140.000000 140.000000 -12.211662
v -120.000000 140.000000 -12.062323
v -100.000000 140.000000 -12.021355
v -80.000000 140.000000 -11.896111
v -60.000000 140.000000 -12.056105
v -40.000000 140.000000 -13.490980
v -20.000000 140.000000 -16.792385
v 0.000000 140.000000 -21.580254
v 20.000000 140.000000 -27.020405
v 40.000000 140.000000 -31.620096
v 60.000000 140.000000 -34.887802
v 80.000000 140.000000 -36.870396
v 100.000000 140.000000 -38.162949
v 120.000000 140.000000 -39.218044
v 140.000000 140.000000 -41.005085
v 160.000000 140.000000 -43.716816
v -160.000000 160.000000 -24.568928
v -140.000000 160.000000 -24.331896
v -120.000000 160.000000 -24.670891
v -100.000000 160.000000 -24.885525
v -80.000000 160.000000 -24.449490
v -60.000000 160.000000 -23.597378
v -40.000000 160.000000 -23.095682
v -20.000000 160.000000 -24.355169
v 0.000000 160.000000 -26.802313
v 20.000000 160.000000 -30.712416
v 40.000000 160.000000 -34.192699
v 60.000000 160.000000 -36.404644
v 80.000000 160.000000 -37.403217
v 100.000000 160.000000 -37.626560
v 120.000000 160.000000 -38.494682
v 140.000000 160.000000 -40.671055
v 160.000000 160.000000 -43.992561
vn -0.1867 -0.2309 0.9549
vn -0.2242 -0.1735 0.9590
vn -0.1608 -0.1605 0.9739
vn -0.1139 -0.2451 0.9628
vn -0.2095 -0.1376 0.9681
vn -0.1626 -0.1011 0.9815
vn -0.1427 -0.1059 0.9841
vn -0.0792 -0.0359 0.9962
vn -0.0115 -0.0360 0.9993
vn 0.0684 0.0424 0.9968
vn 0.1625 0.0492 0.9855
vn 0.2221 0.1111 0.9687
vn 0.2911 0.1116 0.9502
vn 0.3269 0.1486 0.9333
vn 0.3560 0.1498 0.9224
vn 0.3766 0.1694 0.9108
vn 0.3850 0.1726 0.9067
vn 0.3952 0.1788 0.9010
vn 0.3836 0.1881 0.9041
vn 0.3875 0.1800 0.9041
vn 0.3662 0.2004 0.9087
vn 0.3692 0.1791 0.9119
vn 0.3320 0.2174 0.9179
vn 0.3334 0.1790 0.9256
vn 0.2874 0.2264 0.9307
vn 0.2792 0.1699 0.9451
vn 0.2345 0.2197 0.9470
vn 0.2134 0.1506 0.9653
vn 0.1817 0.1984 0.9631
vn 0.1547 0.1226 0.9803
vn 0.1265 0.1785 0.9758
vn 0.1043 0.0945 0.9900
vn 0.0673 0.1617 0.9845
vn 0.0571 0.0777 0.9953
vn -0.0810 -0.1504 0.9853
vn -0.0433 -0.2291 0.9724
vn -0.0871 -0.0696 0.9938
vn 0.0006 0.0182 0.9998
vn 0.1373 0.0946 0.9860
vn 0.2682 0.1466 0.9521
vn 0.3482 0.1708 0.9217
vn 0.3847 0.1813 0.9050
vn 0.3947 0.1763 0.9018
vn 0.3836 0.1669 0.9083
vn 0.3644 0.1597 0.9174
vn 0.3224 0.1503 0.9346
vn 0.2598 0.1293 0.9570
vn 0.1884 0.1025 0.9767
vn 0.1267 0.0752 0.9891
vn 0.0823 0.0528 0.9952
vn 0.0462 0.0368 0.9983
vn 0.0005 -0.1285 0.9917
vn 0.0090 -0.1805 0.9835
vn 0.0052 -0.0443 0.9990
vn 0.0862 0.0417 0.9954
vn 0.1988 0.1188 0.9728
vn 0.2996 0.1608 0.9404
vn 0.3628 0.1777 0.9148
vn 0.3835 0.1834 0.9051
vn 0.3833 0.1679 0.9082
vn 0.3726 0.1508 0.9156
vn 0.3532 0.1380 0.9253
vn 0.3036 0.1219 0.9450
vn 0.2319 0.0985 0.9677
vn 0.1595 0.0747 0.9844
vn 0.1051 0.0493 0.9932
vn 0.0661 0.0313 0.9973
vn 0.0344 0.0208 0.9992
vn 0.0566 -0.0934 0.9940
vn 0.0422 -0.1187 0.9920
vn 0.0834 -0.0359 0.9959
vn 0.1646 0.0443 0.9854
vn 0.2576 0.1094 0.9600
vn 0.3298 0.1496 0.9321
vn 0.3739 0.1620 0.9132
vn 0.3787 0.1640 0.9109
vn 0.3673 0.1481 0.9182
vn 0.3575 0.1337 0.9243
vn 0.3372 0.1208 0.9337
vn 0.2837 0.1042 0.9532
vn 0.2126 0.0833 0.9736
vn 0.1392 0.0697 0.9878
vn 0.0832 0.0534 0.9951
vn 0.0537 0.0379 0.9978
vn 0.0303 0.0346 0.9989
vn 0.0837 -0.0593 0.9947
vn 0.0597 -0.0618 0.9963
vn 0.1426 -0.0254 0.9895
vn 0.2301 0.0294 0.9727
vn 0.3037 0.0795 0.9495
vn 0.3545 0.1137 0.9281
vn 0.3813 0.1232 0.9162
vn 0.3748 0.1207 0.9192
vn 0.3581 0.1153 0.9265
vn 0.3490 0.1157 0.9299
vn 0.3253 0.1106 0.9391
vn 0.2661 0.0987 0.9589
vn 0.1962 0.0838 0.9770
vn 0.1286 0.0751 0.9888
vn 0.0730 0.0715 0.9948
vn 0.0471 0.0675 0.9966
vn 0.0258 0.0673 0.9974
vn 0.0929 -0.0217 0.9954
vn 0.0558 -0.0072 0.9984
vn 0.1710 -0.0087 0.9852
vn 0.2663 0.0152 0.9638
vn 0.3389 0.0468 0.9396
vn 0.3741 0.0702 0.9247
vn 0.3846 0.0782 0.9197
vn 0.3747 0.0807 0.9236
vn 0.3645 0.0886 0.9270
vn 0.3535 0.0996 0.9301
vn 0.3201 0.1013 0.9420
vn 0.2553 0.0976 0.9619
vn 0.1870 0.0994 0.9773
vn 0.1253 0.1031 0.9867
vn 0.0747 0.1053 0.9916
vn 0.0491 0.1116 0.9925
vn 0.0231 0.1190 0.9926
vn 0.0821 0.0398 0.9958
vn 0.0387 0.0627 0.9973
vn 0.1787 0.0288 0.9835
vn 0.2830 0.0319 0.9586
vn 0.3549 0.0410 0.9340
vn 0.3843 0.0482 0.9219
vn 0.3928 0.0548 0.9180
vn 0.3851 0.0671 0.9204
vn 0.3751 0.0819 0.9233
vn 0.3593 0.0919 0.9287
vn 0.3215 0.0955 0.9421
vn 0.2612 0.0997 0.9601
vn 0.1984 0.1128 0.9736
vn 0.1319 0.1306 0.9826
vn 0.0802 0.1381 0.9872
vn 0.0601 0.1490 0.9870
vn 0.0283 0.1611 0.9865
vn 0.0590 0.1483 0.9872
vn 0.0146 0.1738 0.9847
vn 0.1635 0.1181 0.9795
vn 0.2782 0.0913 0.9562
vn 0.3541 0.0748 0.9322
vn 0.3865 0.0653 0.9200
vn 0.4006 0.0680 0.9137
vn 0.3975 0.0778 0.9143
vn 0.3851 0.0914 0.9183
vn 0.3635 0.0973 0.9265
vn 0.3241 0.0996 0.9408
vn 0.2685 0.1025 0.9578
vn 0.2140 0.1101 0.9706
vn 0.1482 0.1310 0.9802
vn 0.0923 0.1504 0.9843
vn 0.0716 0.1633 0.9840
vn 0.0358 0.1728 0.9843
vn 0.0256 0.2691 0.9628
vn -0.0112 0.2890 0.9573
vn 0.1225 0.2326 0.9648
vn 0.2426 0.1859 0.9521
vn 0.3316 0.1411 0.9328
vn 0.3777 0.1151 0.9187
vn 0.4017 0.1084 0.9093
vn 0.4028 0.1102 0.9086
vn 0.3892 0.1195 0.9134
vn 0.3634 0.1214 0.9237
vn 0.3222 0.1160 0.9395
vn 0.2675 0.1100 0.9573
vn 0.2231 0.1096 0.9686
vn 0.1697 0.1214 0.9780
vn 0.1117 0.1446 0.9832
vn 0.0828 0.1598 0.9837
vn 0.0481 0.1712 0.9841
vn -0.0010 0.3612 0.9325
vn -0.0254 0.3708 0.9284
vn 0.0777 0.3298 0.9409
vn 0.1891 0.2814 0.9408
vn 0.2885 0.2226 0.9312
vn 0.3562 0.1755 0.9178
vn 0.3939 0.1530 0.9063
vn 0.4033 0.1462 0.9033
vn 0.3901 0.1499 0.9085
vn 0.3553 0.1480 0.9230
vn 0.3090 0.1341 0.9416
vn 0.2588 0.1185 0.9586
vn 0.2222 0.1112 0.9686
vn 0.1808 0.1071 0.9777
vn 0.1295 0.1203 0.9843
vn 0.0985 0.1381 0.9855
vn 0.0669 0.1544 0.9857
vn -0.0202 0.4186 0.9080
vn -0.0293 0.4216 0.9063
vn 0.0355 0.3996 0.9160
vn 0.1327 0.3554 0.9252
vn 0.2296 0.2930 0.9281
vn 0.3139 0.2299 0.9212
vn 0.3747 0.1890 0.9077
vn 0.3967 0.1688 0.9023
vn 0.3860 0.1577 0.9089
vn 0.3437 0.1495 0.9271
vn 0.2897 0.1350 0.9476
vn 0.2426 0.1163 0.9631
vn 0.2105 0.1007 0.9724
vn 0.1776 0.0830 0.9806
vn 0.1420 0.0803 0.9866
vn 0.1168 0.0943 0.9887
vn 0.0879 0.1145 0.9895
vn -0.0269 0.4449 0.8952
vn -0.0322 0.4457 0.8946
vn 0.0050 0.4374 0.8992
vn 0.0734 0.4070 0.9105
vn 0.1619 0.3480 0.9234
vn 0.2593 0.2777 0.9250
vn 0.3402 0.2194 0.9144
vn 0.3745 0.1821 0.9092
vn 0.3697 0.1560 0.9160
vn 0.3303 0.1382 0.9337
vn 0.2743 0.1222 0.9539
vn 0.2239 0.1009 0.9694
vn 0.1893 0.0800 0.9787
vn 0.1604 0.0543 0.9856
vn 0.1411 0.0367 0.9893
vn 0.1328 0.0309 0.9907
vn 0.1160 0.0415 0.9924
vn -0.0301 0.4588 0.8880
vn -0.0382 0.4609 0.8866
vn -0.0099 0.4587 0.8885
vn 0.0303 0.4438 0.8956
vn 0.0913 0.4007 0.9116
vn 0.1884 0.3349 0.9232
vn 0.2885 0.2603 0.9214
vn 0.3400 0.1992 0.9191
vn 0.3444 0.1629 0.9246
vn 0.3094 0.1339 0.9415
vn 0.2519 0.1103 0.9615
vn 0.2005 0.0838 0.9761
vn 0.1649 0.0567 0.9847
vn 0.1351 0.0241 0.9905
vn 0.1191 -0.0032 0.9929
vn 0.1220 -0.0265 0.9922
vn 0.1243 -0.0306 0.9918
vn -0.0294 0.4801 0.8767
vn -0.0457 0.4784 0.8769
vn -0.0134 0.4868 0.8734
vn 0.0038 0.4845 0.8748
vn 0.0377 0.4607 0.8867
vn 0.1113 0.4112 0.9047
vn 0.2082 0.3275 0.9216
vn 0.2837 0.2411 0.9281
vn 0.3077 0.1755 0.9352
vn 0.2780 0.1360 0.9509
vn 0.2242 0.1067 0.9687
vn 0.1709 0.0763 0.9823
vn 0.1306 0.0355 0.9908
vn 0.1015 -0.0078 0.9948
vn 0.0910 -0.0416 0.9950
vn 0.1056 -0.0564 0.9928
vn 0.1268 -0.0518 0.9906
vn -0.0189 0.5066 0.8620
vn -0.0381 0.4956 0.8677
vn -0.0041 0.5191 0.8547
vn -0.0035 0.5251 0.8511
vn 0.0007 0.5129 0.8585
vn 0.0350 0.4763 0.8786
vn 0.1077 0.4009 0.9098
vn 0.1883 0.3122 0.9312
vn 0.2419 0.2154 0.9461
vn 0.2404 0.1581 0.9577
vn 0.1917 0.1169 0.9745
vn 0.1298 0.0751 0.9887
vn 0.0814 0.0260 0.9963
vn 0.0586 -0.0252 0.9980
vn 0.0708 -0.0482 0.9963
vn 0.1116 -0.0403 0.9929
vn 0.1416 -0.0171 0.9898
vn 0.0021 0.5345 0.8452
vn -0.0179 0.5100 0.8600
vn 0.0116 0.5481 0.8363
vn -0.0046 0.5530 0.8331
vn -0.0270 0.5438 0.8388
vn -0.0290 0.5166 0.8558
vn 0.0168 0.4632 0.8861
vn 0.0850 0.3880 0.9177
vn 0.1501 0.2924 0.9444
vn 0.1778 0.2065 0.9622
vn 0.1395 0.1432 0.9798
vn 0.0797 0.0866 0.9930
vn 0.0305 0.0305 0.9991
vn 0.0273 -0.0106 0.9996
vn 0.0759 -0.0084 0.9971
vn 0.1361 0.0221 0.9904
vn 0.1625 0.0499 0.9854
vt 0.015625 0.015625
vt 0.076172 0.015625
vt 0.076172 0.076172
vt 0.015625 0.076172
vt 0.136719 0.015625
vt 0.136719 0.076172
vt 0.197266 0.015625
vt 0.197266 0.076172
vt 0.257812 0.015625
vt 0.257812 0.076172
vt 0.318359 0.015625
vt 0.318359 0.076172
vt 0.378906 0.015625
vt 0.378906 0.076172
vt 0.439453 0.015625
vt 0.439453 0.076172
vt 0.500000 0.015625
vt 0.500000 0.076172
vt 0.560547 0.015625
vt 0.560547 0.076172
vt 0.621094 0.015625
vt 0.621094 0.076172
vt 0.681641 0.015625
vt 0.681641 0.076172
vt 0.742188 0.015625
vt 0.742188 0.076172
vt 0.802734 0.015625
vt 0.802734 0.076172
vt 0.863281 0.015625
vt 0.863281 0.076172
vt 0.923828 0.015625
vt 0.923828 0.076172
vt 0.984375 0.015625
vt 0.984375 0.076172
vt 0.076172 0.136719
vt 0.015625 0.136719
vt 0.136719 0.136719
vt 0.197266 0.136719
vt 0.257812 0.136719
vt 0.318359 0.136719
vt 0.378906 0.136719
vt 0.439453 0.136719
vt 0.500000 0.136719
vt 0.560547 0.136719
vt 0.621094 0.136719
vt 0.681641 0.136719
vt 0.742188 0.136719
vt 0.802734 0.136719
vt 0.863281 0.136719
vt 0.923828 0.136719
vt 0.984375 0.136719
vt 0.076172 0.197266
vt 0.015625 0.197266
vt 0.136719 0.197266
vt 0.197266 0.197266
vt 0.257812 0.197266
vt 0.318359 0.197266
vt 0.378906 0.197266
vt 0.439453 0.197266
vt 0.500000 0.197266
vt 0.560547 0.197266
vt 0.621094 0.197266
vt 0.681641 0.197266
vt 0.742188 0.197266
vt 0.802734 0.197266
vt 0.863281 0.197266
vt 0.923828 0.197266
vt 0.984375 0.197266
vt 0.076172 0.257812
vt 0.015625 0.257812
vt 0.136719 0.257812
vt 0.197266 0.257812
vt 0.257812 0.257812
vt 0.318359 0.257812
vt 0.378906 0.257812
vt 0.439453 0.257812
vt 0.500000 0.257812
vt 0.560547 0.257812
vt 0.621094 0.257812
vt 0.681641 0.257812
vt 0.742188 0.257812
vt 0.802734 0.257812
vt 0.863281 0.257812
vt 0.923828 0.257812
vt 0.984375 0.257812
vt 0.076172 0.318359
vt 0.015625 0.318359
vt 0.136719 0.318359
vt 0.197266 0.318359
vt 0.257812 0.318359
vt 0.318359 0.318359
vt 0.378906 0.318359
vt 0.439453 0.318359
vt 0.500000 0.318359
vt 0.560547 0.318359
vt 0.621094 0.318359
vt 0.681641 0.318359
vt 0.742188 0.318359
vt 0.802734 0.318359
vt 0.863281 0.318359
vt 0.923828 0.318359
vt 0.984375 0.318359
vt 0.076172 0.378906
vt 0.015625 0.378906
vt 0.136719 0.378906
vt 0.197266 0.378906
vt 0.257812 0.378906
vt 0.318359 0.378906
vt 0.378906 0.378906
vt 0.439453 0.378906
vt 0.500000 0.378906
vt 0.560547 0.378906
vt 0.621094 0.378906
vt 0.681641 0.378906
vt 0.742188 0.378906
vt 0.802734 0.378906
vt 0.863281 0.378906
vt 0.923828 0.378906
vt 0.984375 0.378906
vt 0.076172 0.439453
vt 0.015625 0.439453
vt 0.136719 0.439453
vt 0.197266 0.439453
vt 0.257812 0.439453
vt 0.318359 0.439453
vt 0.378906 0.439453
vt 0.439453 0.439453
vt 0.500000 0.439453
vt 0.560547 0.439453
vt 0.621094 0.439453
vt 0.681641 0.439453
vt 0.742188 0.439453
vt 0.802734 0.439453
vt 0.863281 0.439453
vt 0.923828 0.439453
vt 0.984375 0.439453
vt 0.076172 0.500000
vt 0.015625 0.500000
vt 0.136719 0.500000
vt 0.197266 0.500000
vt 0.257812 0.500000
vt 0.318359 0.500000
vt 0.378906 0.500000
vt 0.439453 0.500000
vt 0.500000 0.500000
vt 0.560547 0.500000
vt 0.621094 0.500000
vt 0.681641 0.500000
vt 0.742188 0.500000
vt 0.802734 0.500000
vt 0.863281 0.500000
vt 0.923828 0.500000
vt 0.984375 0.500000
vt 0.076172 0.560547
vt 0.015625 0.560547
vt 0.136719 0.560547
vt 0.197266 0.560547
vt 0.257812 0.560547
vt 0.318359 0.560547
vt 0.378906 0.560547
vt 0.439453 0.560547
vt 0.500000 0.560547
vt 0.560547 0.560547
vt 0.621094 0.560547
vt 0.681641 0.560547
vt 0.742188 0.560547
vt 0.802734 0.560547
vt 0.863281 0.560547
vt 0.923828 0.560547
vt 0.984375 0.560547
vt 0.076172 0.621094
vt 0.015625 0.621094
vt 0.136719 0.621094
vt 0.197266 0.621094
vt 0.257812 0.621094
vt 0.318359 0.621094
vt 0.378906 0.621094
vt 0.439453 0.621094
vt 0.500000 0.621094
vt 0.560547 0.621094
vt 0.621094 0.621094
vt 0.681641 0.621094
vt 0.742188 0.621094
vt 0.802734 0.621094
vt 0.863281 0.621094
vt 0.923828 0.621094
vt 0.984375 0.621094
vt 0.076172 0.681641
vt 0.015625 0.681641
vt 0.136719 0.681641
vt 0.197266 0.681641
vt 0.257812 0.681641
vt 0.318359 0.681641
vt 0.378906 0.681641
vt 0.439453 0.681641
vt 0.500000 0.681641
vt 0.560547 0.681641
vt 0.621094 0.681641
vt 0.681641 0.681641
vt 0.742188 0.681641
vt 0.802734 0.681641
vt 0.863281 0.681641
vt 0.923828 0.681641
vt 0.984375 0.681641
vt 0.076172 0.742188
vt 0.015625 0.742188
vt 0.136719 0.742188
vt 0.197266 0.742188
vt 0.257812 0.742188
vt 0.318359 0.742188
vt 0.378906 0.742188
vt 0.439453 0.742188
vt 0.500000 0.742188
vt 0.560547 0.742188
vt 0.621094 0.742188
vt 0.681641 0.742188
vt 0.742188 0.742188
vt 0.802734 0.742188
vt 0.863281 0.742188
vt 0.923828 0.742188
vt 0.984375 0.742188
vt 0.076172 0.802734
vt 0.015625 0.802734
vt 0.136719 0.802734
vt 0.197266 0.802734
vt 0.257812 0.802734
vt 0.318359 0.802734
vt 0.378906 0.802734
vt 0.439453 0.802734
vt 0.500000 0.802734
vt 0.560547 0.802734
vt 0.621094 0.802734
vt 0.681641 0.802734
vt 0.742188 0.802734
vt 0.802734 0.802734
vt 0.863281 0.802734
vt 0.923828 0.802734
vt 0.984375 0.802734
vt 0.076172 0.863281
vt 0.015625 0.863281
vt 0.136719 0.863281
vt 0.197266 0.863281
vt 0.257812 0.863281
vt 0.318359 0.863281
vt 0.378906 0.863281
vt 0.439453 0.863281
vt 0.500000 0.863281
vt 0.560547 0.863281
vt 0.621094 0.863281
vt 0.681641 0.863281
vt 0.742188 0.863281
vt 0.802734 0.863281
vt 0.863281 0.863281
vt 0.923828 0.863281
vt 0.984375 0.863281
vt 0.076172 0.923828
vt 0.015625 0.923828
vt 0.136719 0.923828
vt 0.197266 0.923828
vt 0.257812 0.923828
vt 0.318359 0.923828
vt 0.378906 0.923828
vt 0.439453 0.923828
vt 0.500000 0.923828
vt 0.560547 0.923828
vt 0.621094 0.923828
vt 0.681641 0.923828
vt 0.742188 0.923828
vt 0.802734 0.923828
vt 0.863281 0.923828
vt 0.923828 0.923828
vt 0.984375 0.923828
vt 0.076172 0.984375
vt 0.015625 0.984375
vt 0.136719 0.984375
vt 0.197266 0.984375
vt 0.257812 0.984375
vt 0.318359 0.984375
vt 0.378906 0.984375
vt 0.439453 0.984375
vt 0.500000 0.984375
vt 0.560547 0.984375
vt 0.621094 0.984375
vt 0.681641 0.984375
vt 0.742188 0.984375
vt 0.802734 0.984375
vt 0.863281 0.984375
vt 0.923828 0.984375
vt 0.984375 0.984375
s 1
f 1/1/1 2/2/2 19/3/3
f 1/1/1 19/3/3 18/4/4
f 2/2/2 3/5/5 20/6/6
f 2/2/2 20/6/6 19/3/3
f 3/5/5 4/7/7 21/8/8
f 3/5/5 21/8/8 20/6/6
f 4/7/7 5/9/9 22/10/10
f 4/7/7 22/10/10 21/8/8
f 5/9/9 6/11/11 23/12/12
f 5/9/9 23/12/12 22/10/10
f 6/11/11 7/13/13 24/14/14
f 6/11/11 24/14/14 23/12/12
f 7/13/13 8/15/15 25/16/16
f 7/13/13 25/16/16 24/14/14
f 8/15/15 9/17/17 26/18/18
f 8/15/15 26/18/18 25/16/16
f 9/17/17 10/19/19 27/20/20
f 9/17/17 27/20/20 26/18/18
f 10/19/19 11/21/21 28/22/22
f 10/19/19 28/22/22 27/20/20
f 11/21/21 12/23/23 29/24/24
f 11/21/21 29/24/24 28/22/22
f 12/23/23 13/25/25 30/26/26
f 12/23/23 30/26/26 29/24/24
f 13/25/25 14/27/27 31/28/28
f 13/25/25 31/28/28 30/26/26
f 14/27/27 15/29/29 32/30/30
f 14/27/27 32/30/30 31/28/28
f 15/29/29 16/31/31 33/32/32
f 15/29/29 33/32/32 32/30/30
f 16/31/31 17/33/33 34/34/34
f 16/31/31 34/34/34 33/32/32
f 18/4/4 19/3/3 36/35/35
f 18/4/4 36/35/35 35/36/36
f 19/3/3 20/6/6 37/37/37
f 19/3/3 37/37/37 36/35/35
f 20/6/6 21/8/8 38/38/38
f 20/6/6 38/38/38 37/37/37
f 21/8/8 22/10/10 39/39/39
f 21/8/8 39/39/39 38/38/38
f 22/10/10 23/12/12 40/40/40
f 22/10/10 40/40/40 39/39/39
f 23/12/12 24/14/14 41/41/41
f 23/12/12 41/41/41 40/40/40
f 24/14/14 25/16/16 42/42/42
f 24/14/14 42/42/42 41/41/41
f 25/16/16 26/18/18 43/43/43
f 25/16/16 43/43/43 42/42/42
f 26/18/18 27/20/20 44/44/44
f 26/18/18 44/44/44 43/43/43
f 27/20/20 28/22/22 45/45/45
f 27/20/20 45/45/45 44/44/44
f 28/22/22 29/24/24 46/46/46
f 28/22/22 46/46/46 45/45/45
f 29/24/24 30/26/26 47/47/47
f 29/24/24 47/47/47 46/46/46
f 30/26/26 31/28/28 48/48/48
f 30/26/26 48/48/48 47/47/47
f 31/28/28 32/30/30 49/49/49
f 31/28/28 49/49/49 48/48/48
f 32/30/30 33/32/32 50/50/50
f 32/30/30 50/50/50 49/49/49
f 33/32/32 34/34/34 51/51/51
f 33/32/32 51/51/51 50/50/50
f 35/36/36 36/35/35 53/52/52
f 35/36/36 53/52/52 52/53/53
f 36/35/35 37/37/37 54/54/54
f 36/35/35 54/54/54 53/52/52
f 37/37/37 38/38/38 55/55/55
f 37/37/37 55/55/55 54/54/54
f 38/38/38 39/39/39 56/56/56
f 38/38/38 56/56/56 55/55/55
f 39/39/39 40/40/40 57/57/57
f 39/39/39 57/57/57 56/56/56
f 40/40/40 41/41/41 58/58/58
f 40/40/40 58/58/58 57/57/57
f 41/41/41 42/42/42 59/59/59
f 41/41/41 59/59/59 58/58/58
f 42/42/42 43/43/43 60/60/60
f 42/42/42 60/60/60 59/59/59
f 43/43/43 44/44/44 61/61/61
f 43/43/43 61/61/61 60/60/60
f 44/44/44 45/45/45 62/62/62
f 44/44/44 62/62/62 61/61/61
f 45/45/45 46/46/46 63/63/63
f 45/45/45 63/63/63 62/62/62
f 46/46/46 47/47/47 64/64/64
f 46/46/46 64/64/64 63/63/63
f 47/47/47 48/48/48 65/65/65
f 47/47/47 65/65/65 64/64/64
f 48/48/48 49/49/49 66/66/66
f 48/48/48 66/66/66 65/65/65
f 49/49/49 50/50/50 67/67/67
f 49/49/49 67/67/67 66/66/66
f 50/50/50 51/51/51 68/68/68
f 50/50/50 68/68/68 67/67/67
f 52/53/53 53/52/52 70/69/69
f 52/53/53 70/69/69 69/70/70
f 53/52/52 54/54/54 71/71/71
f 53/52/52 71/71/71 70/69/69
f 54/54/54 55/55/55 72/72/72
f 54/54/54 72/72/72 71/71/71
f 55/55/55 56/56/56 73/73/73
f 55/55/55 73/73/73 72/72/72
f 56/56/56 57/57/57 74/74/74
f 56/56/56 74/74/74 73/73/73
f 57/57/57 58/58/58 75/75/75
f 57/57/57 75/75/75 74/74/74
f 58/58/58 59/59/59 76/76/76
f 58/58/58 76/76/76 75/75/75
f 59/59/59 60/60/60 77/77/77
f 59/59/59 77/77/77 76/76/76
f 60/60/60 61/61/61 78/78/78
f 60/60/60 78/78/78 77/77/77
f 61/61/61 62/62/62 79/79/79
f 61/61/61 79/79/79 78/78/78
f 62/62/62 63/63/63 80/80/80
f 62/62/62 80/80/80 79/79/79
f 63/63/63 64/64/64 81/81/81
f 63/63/63 81/81/81 80/80/80
f 64/64/64 65/65/65 82/82/82
f 64/64/64 82/82/82 81/81/81
f 65/65/65 66/66/66 83/83/83
f 65/65/65 83/83/83 82/82/82
f 66/66/66 67/67/67 84/84/84
f 66/66/66 84/84/84 83/83/83
f 67/67/67 68/68/68 85/85/85
f 67/67/67 85/85/85 84/84/84
f 69/70/70 70/69/69 87/86/86
f 69/70/70 87/86/86 86/87/87
f 70/69/69 71/71/71 88/88/88
f 70/69/69 88/88/88 87/86/86
f 71/71/71 72/72/72 89/89/89
f 71/71/71 89/89/89 88/88/88
f 72/72/72 73/73/73 90/90/90
f 72/72/72 90/90/90 89/89/89
f 73/73/73 74/74/74 91/91/91
f 73/73/73 91/91/91 90/90/90
f 74/74/74 75/75/75 92/92/92
f 74/74/74 92/92/92 91/91/91
f 75/75/75 76/76/76 93/93/93
f 75/75/75 93/93/93 92/92/92
f 76/76/76 77/77/77 94/94/94
f 76/76/76 94/94/94 93/93/93
f 77/77/77 78/78/78 95/95/95
f 77/77/77 95/95/95 94/94/94
f 78/78/78 79/79/79 96/96/96
f 78/78/78 96/96/96 95/95/95
f 79/79/79 80/80/80 97/97/97
f 79/79/79 97/97/97 96/96/96
f 80/80/80 81/81/81 98/98/98
f 80/80/80 98/98/98 97/97/97
f 81/81/81 82/82/82 99/99/99
f 81/81/81 99/99/99 98/98/98
f 82/82/82 83/83/83 100/100/100
f 82/82/82 100/100/100 99/99/99
f 83/83/83 84/84/84 101/101/101
f 83/83/83 101/101/101 100/100/100
f 84/84/84 85/85/85 102/102/102
f 84/84/84 102/102/102 101/101/101
f 86/87/87 87/86/86 104/103/103
f 86/87/87 104/103/103 103/104/104
f 87/86/86 88/88/88 105/105/105
f 87/86/86 105/105/105 104/103/103
f 88/88/88 89/89/89 106/106/106
f 88/88/88 106/106/106 105/105/105
f 89/89/89 90/90/90 107/107/107
f 89/89/89 107/107/107 106/106/106
f 90/90/90 91/91/91 108/108/108
f 90/90/90 108/108/108 107/107/107
f 91/91/91 92/92/92 109/109/109
f 91/91/91 109/109/109 108/108/108
f 92/92/92 93/93/93 110/110/110
f 92/92/92 110/110/110 109/109/109
f 93/93/93 94/94/94 111/111/111
f 93/93/93 111/111/111 110/110/110
f 94/94/94 95/95/95 112/112/112
f 94/94/94 112/112/112 111/111/111
f 95/95/95 96/96/96 113/113/113
f 95/95/95 113/113/113 112/112/112
f 96/96/96 97/97/97 114/114/114
f 96/96/96 114/114/114 113/113/113
f 97/97/97 98/98/98 115/115/115
f 97/97/97 115/115/115 114/114/114
f 98/98/98 99/99/99 116/116/116
f 98/98/98 116/116/116 115/115/115
f 99/99/99 100/100/100 117/117/117
f 99/99/99 117/117/117 116/116/116
f 100/100/100 101/101/101 118/118/118
f 100/100/100 118/118/118 117/117/117
f 101/101/101 102/102/102 119/119/119
f 101/101/101 119/119/119 118/118/118
f 103/104/104 104/103/103 121/120/120
f 103/104/104 121/120/120 120/121/121
f 104/103/103 105/105/105 122/122/122
f 104/103/103 122/122/122 121/120/120
f 105/105/105 106/106/106 123/123/123
f 105/105/105 123/123/123 122/122/122
f 106/106/106 107/107/107 124/124/124
f 106/106/106 124/124/124 123/123/123
f 107/107/107 108/108/108 125/125/125
f 107/107/107 125/125/125 124/124/124
f 108/108/108 109/109/109 126/126/126
f 108/108/108 126/126/126 125/125/125
f 109/109/109 110/110/110 127/127/127
f 109/109/109 127/127/127 126/126/126
f 110/110/110 111/111/111 128/128/128
f 110/110/110 128/128/128 127/127/127
f 111/111/111 112/112/112 129/129/129
f 111/111/111 129/129/129 128/128/128
f 112/112/112 113/113/113 130/130/130
f 112/112/112 130/130/130 129/129/129
f 113/113/113 114/114/114 131/131/131
f 113/113/113 131/131/131 130/130/130
f 114/114/114 115/115/115 132/132/132
f 114/114/114 132/132/132 131/131/131
f 115/115/115 116/116/116 133/133/133
f 115/115/115 133/133/133 132/132/132
f 116/116/116 117/117/117 134/134/134
f 116/116/116 134/134/134 133/133/133
f 117/117/117 118/118/118 135/135/135
f 117/117/117 135/135/135 134/134/134
f 118/118/118 119/119/119 136/136/136
f 118/118/118 136/136/136 135/135/135
f 120/121/121 121/120/120 138/137/137
f 120/121/121 138/137/137 137/138/138
f 121/120/120 122/122/122 139/139/139
f 121/120/120 139/139/139 138/137/137
f 122/122/122 123/123/123 140/140/140
f 122/122/122 140/140/140 139/139/139
f 123/123/123 124/124/124 141/141/141
f 123/123/123 141/141/141 140/140/140
f 124/124/124 125/125/125 142/142/142
f 124/124/124 142/142/142 141/141/141
f 125/125/125 126/126/126 143/143/143
f 125/125/125 143/143/143 142/142/142
f 126/126/126 127/127/127 144/144/144
f 126/126/126 144/144/144 143/143/143
f 127/127/127 128/128/128 145/145/145
f 127/127/127 145/145/145 144/144/144
f 128/128/128 129/129/129 146/146/146
f 128/128/128 146/146/146 145/145/145
f 129/129/129 130/130/130 147/147/147
f 129/129/129 147/147/147 146/146/146
f 130/130/130 131/131/131 148/148/148
f 130/130/130 148/148/148 147/147/147
f 131/131/131 132/132/132 149/149/149
f 131/131/131 149/149/149 148/148/148
f 132/132/132 133/133/133 150/150/150
f 132/132/132 150/150/150 149/149/149
f 133/133/133 134/134/134 151/151/151
f 133/133/133 151/151/151 150/150/150
f 134/134/134 135/135/135 152/152/152
f 134/134/134 152/152/152 151/151/151
f 135/135/135 136/136/136 153/153/153
f 135/135/135 153/153/153 152/152/152
f 137/138/138 138/137/137 155/154/154
f 137/138/138 155/154/154 154/155/155
f 138/137/137 139/139/139 156/156/156
f 138/137/137 156/156/156 155/154/154
f 139/139/139 140/140/140 157/157/157
f 139/139/139 157/157/157 156/156/156
f 140/140/140 141/141/141 158/158/158
f 140/140/140 158/158/158 157/157/157
f 141/141/141 142/142/142 159/159/159
f 141/141/141 159/159/159 158/158/158
f 142/142/142 143/143/143 160/160/160
f 142/142/142 160/160/160 159/159/159
f 143/143/143 144/144/144 161/161/161
f 143/143/143 161/161/161 160/160/160
f 144/144/144 145/145/145 162/162/162
f 144/144/144 162/162/162 161/161/161
f 145/145/145 146/146/146 163/163/163
f 145/145/145 163/163/163 162/162/162
f 146/146/146 147/147/147 164/164/164
f 146/146/146 164/164/164 163/163/163
f 147/147/147 148/148/148 165/165/165
f 147/147/147 165/165/165 164/164/164
f 148/148/148 149/149/149 166/166/166
f 148/148/148 166/166/166 165/165/165
f 149/149/149 150/150/150 167/167/167
f 149/149/149 167/167/167 166/166/166
f 150/150/150 151/151/151 168/168/168
f 150/150/150 168/168/168 167/167/167
f 151/151/151 152/152/152 169/169/169
f 151/151/151 169/169/169 168/168/168
f 152/152/152 153/153/153 170/170/170
f 152/152/152 170/170/170 169/169/169
f 154/155/155 155/154/154 172/171/171
f 154/155/155 172/171/171 171/172/172
f 155/154/154 156/156/156 173/173/173
f 155/154/154 173/173/173 172/171/171
f 156/156/156 157/157/157 174/174/174
f 156/156/156 174/174/174 173/173/173
f 157/157/157 158/158/158 175/175/175
f 157/157/157 175/175/175 174/174/174
f 158/158/158 159/159/159 176/176/176
f 158/158/158 176/176/176 175/175/175
f 159/159/159 160/160/160 177/177/177
f 159/159/159 177/177/177 176/176/176
f 160/160/160 161/161/161 178/178/178
f 160/160/160 178/178/178 177/177/177
f 161/161/161 162/162/162 179/179/179
f 161/161/161 179/179/179 178/178/178
f 162/162/162 163/163/163 180/180/180
f 162/162/162 180/180/180 179/179/179
f 163/163/163 164/164/164 181/181/181
f 163/163/163 181/181/181 180/180/180
f 164/164/164 165/165/165 182/182/182
f 164/164/164 182/182/182 181/181/181
f 165/165/165 166/166/166 183/183/183
f 165/165/165 183/183/183 182/182/182
f 166/166/166 167/167/167 184/184/184
f 166/166/166 184/184/184 183/183/183
f 167/167/167 168/168/168 185/185/185
f 167/167/167 185/185/185 184/184/184
f 168/168/168 169/169/169 186/186/186
f 168/168/168 186/186/186 185/185/185
f 169/169/169 170/170/170 187/187/187
f 169/169/169 187/187/187 186/186/186
f 171/172/172 172/171/171 189/188/188
f 171/172/172 189/188/188 188/189/189
f 172/171/171 173/173/173 190/190/190
f 172/171/171 190/190/190 189/188/188
f 173/173/173 174/174/174 191/191/191
f 173/173/173 191/191/191 190/190/190
f 174/174/174 175/175/175 192/192/192
f 174/174/174 192/192/192 191/191/191
f 175/175/175 176/176/176 193/193/193
f 175/175/175 193/193/193 192/192/192
f 176/176/176 177/177/177 194/194/194
f 176/176/176 194/194/194 193/193/193
f 177/177/177 178/178/178 195/195/195
f 177/177/177 195/195/195 194/194/194
f 178/178/178 179/179/179 196/196/196
f 178/178/178 196/196/196 195/195/195
f 179/179/179 180/180/180 197/197/197
f 179/179/179 197/197/197 196/196/196
f 180/180/180 181/181/181 198/198/198
f 180/180/180 198/198/198 197/197/197
f 181/181/181 182/182/182 199/199/199
f 181/181/181 199/199/199 198/198/198
f 182/182/182 183/183/183 200/200/200
f 182/182/182 200/200/200 199/199/199
f 183/183/183 184/184/184 201/201/201
f 183/183/183 201/201/201 200/200/200
f 184/184/184 185/185/185 202/202/202
f 184/184/184 202/202/202 201/201/201
f 185/185/185 186/186/186 203/203/203
f 185/185/185 203/203/203 202/202/202
f 186/186/186 187/187/187 204/204/204
f 186/186/186 204/204/204 203/203/203
f 188/189/189 189/188/188 206/205/205
f 188/189/189 206/205/205 205/206/206
f 189/188/188 190/190/190 207/207/207
f 189/188/188 207/207/207 206/205/205
f 190/190/190 191/191/191 208/208/208
f 190/190/190 208/208/208 207/207/207
f 191/191/191 192/192/192 209/209/209
f 191/191/191 209/209/209 208/208/208
f 192/192/192 193/193/193 210/210/210
f 192/192/192 210/210/210 209/209/209
f 193/193/193 194/194/194 211/211/211
f 193/193/193 211/211/211 210/210/210
f 194/194/194 195/195/195 212/212/212
f 194/194/194 212/212/212 211/211/211
f 195/195/195 196/196/196 213/213/213
f 195/195/195 213/213/213 212/212/212
f 196/196/196 197/197/197 214/214/214
f 196/196/196 214/214/214 213/213/213
f 197/197/197 198/198/198 215/215/215
f 197/197/197 215/215/215 214/214/214
f 198/198/198 199/199/199 216/216/216
f 198/198/198 216/216/216 215/215/215
f 199/199/199 200/200/200 217/217/217
f 199/199/199 217/217/217 216/216/216
f 200/200/200 201/201/201 218/218/218
f 200/200/200 218/218/218 217/217/217
f 201/201/201 202/202/202 219/219/219
f 201/201/201 219/219/219 218/218/218
f 202/202/202 203/203/203 220/220/220
f 202/202/202 220/220/220 219/219/219
f 203/203/203 204/204/204 221/221/221
f 203/203/203 221/221/221 220/220/220
f 205/206/206 206/205/205 223/222/222
f 205/206/206 223/222/222 222/223/223
f 206/205/205 207/207/207 224/224/224
f 206/205/205 224/224/224 223/222/222
f 207/207/207 208/208/208 225/225/225
f 207/207/207 225/225/225 224/224/224
f 208/208/208 209/209/209 226/226/226
f 208/208/208 226/226/226 225/225/225
f 209/209/209 210/210/210 227/227/227
f 209/209/209 227/227/227 226/226/226
f 210/210/210 211/211/211 228/228/228
f 210/210/210 228/228/228 227/227/227
f 211/211/211 212/212/212 229/229/229
f 211/211/211 229/229/229 228/228/228
f 212/212/212 213/213/213 230/230/230
f 212/212/212 230/230/230 229/229/229
f 213/213/213 214/214/214 231/231/231
f 213/213/213 231/231/231 230/230/230
f 214/214/214 215/215/215 232/232/232
f 214/214/214 232/232/232 231/231/231
f 215/215/215 216/216/216 233/233/233
f 215/215/215 233/233/233 232/232/232
f 216/216/216 217/217/217 234/234/234
f 216/216/216 234/234/234 233/233/233
f 217/217/217 218/218/218 235/235/235
f 217/217/217 235/235/235 234/234/234
f 218/218/218 219/219/219 236/236/236
f 218/218/218 236/236/236 235/235/235
f 219/219/219 220/220/220 237/237/237
f 219/219/219 237/237/237 236/236/236
f 220/220/220 221/221/221 238/238/238
f 220/220/220 238/238/238 237/237/237
f 222/223/223 223/222/222 240/239/239
f 222/223/223 240/239/239 239/240/240
f 223/222/222 224/224/224 241/241/241
f 223/222/222 241/241/241 240/239/239
f 224/224/224 225/225/225 242/242/242
f 224/224/224 242/242/242 241/241/241
f 225/225/225 226/226/226 243/243/243
f 225/225/225 243/243/243 242/242/242
f 226/226/226 227/227/227 244/244/244
f 226/226/226 244/244/244 243/243/243
f 227/227/227 228/228/228 245/245/245
f 227/227/227 245/245/245 244/244/244
f 228/228/228 229/229/229 246/246/246
f 228/228/228 246/246/246 245/245/245
f 229/229/229 230/230/230 247/247/247
f 229/229/229 247/247/247 246/246/246
f 230/230/230 231/231/231 248/248/248
f 230/230/230 248/248/248 247/247/247
f 231/231/231 232/232/232 249/249/249
f 231/231/231 249/249/249 248/248/248
f 232/232/232 233/233/233 250/250/250
f 232/232/232 250/250/250 249/249/249
f 233/233/233 234/234/234 251/251/251
f 233/233/233 251/251/251 250/250/250
f 234/234/234 235/235/235 252/252/252
f 234/234/234 252/252/252 251/251/251
f 235/235/235 236/236/236 253/253/253
f 235/235/235 253/253/253 252/252/252
f 236/236/236 237/237/237 254/254/254
f 236/236/236 254/254/254 253/253/253
f 237/237/237 238/238/238 255/255/255
f 237/237/237 255/255/255 254/254/254
f 239/240/240 240/239/239 257/256/256
f 239/240/240 257/256/256 256/257/257
f 240/239/239 241/241/241 258/258/258
f 240/239/239 258/258/258 257/256/256
f 241/241/241 242/242/242 259/259/259
f 241/241/241 259/259/259 258/258/258
f 242/242/242 243/243/243 260/260/260
f 242/242/242 260/260/260 259/259/259
f 243/243/243 244/244/244 261/261/261
f 243/243/243 261/261/261 260/260/260
f 244/244/244 245/245/245 262/262/262
f 244/244/244 262/262/262 261/261/261
f 245/245/245 246/246/246 263/263/263
f 245/245/245 263/263/263 262/262/262
f 246/246/246 247/247/247 264/264/264
f 246/246/246 264/264/264 263/263/263
f 247/247/247 248/248/248 265/265/265
f 247/247/247 265/265/265 264/264/264
f 248/248/248 249/249/249 266/266/266
f 248/248/248 266/266/266 265/265/265
f 249/249/249 250/250/250 267/267/267
f 249/249/249 267/267/267 266/266/266
f 250/250/250 251/251/251 268/268/268
f 250/250/250 268/268/268 267/267/267
f 251/251/251 252/252/252 269/269/269
f 251/251/251 269/269/269 268/268/268
f 252/252/252 253/253/253 270/270/270
f 252/252/252 270/270/270 269/269/269
f 253/253/253 254/254/254 271/271/271
f 253/253/253 271/271/271 270/270/270
f 254/254/254 255/255/255 272/272/272
f 254/254/254 272/272/272 271/271/271
f 256/257/257 257/256/256 274/273/273
f 256/257/257 274/273/273 273/274/274
f 257/256/256 258/258/258 275/275/275
f 257/256/256 275/275/275 274/273/273
f 258/258/258 259/259/259 276/276/276
f 258/258/258 276/276/276 275/275/275
f 259/259/259 260/260/260 277/277/277
f 259/259/259 277/277/277 276/276/276
f 260/260/260 261/261/261 278/278/278
f 260/260/260 278/278/278 277/277/277
f 261/261/261 262/262/262 279/279/279
f 261/261/261 279/279/279 278/278/278
f 262/262/262 263/263/263 280/280/280
f 262/262/262 280/280/280 279/279/279
f 263/263/263 264/264/264 281/281/281
f 263/263/263 281/281/281 280/280/280
f 264/264/264 265/265/265 282/282/282
f 264/264/264 282/282/282 281/281/281
f 265/265/265 266/266/266 283/283/283
f 265/265/265 283/283/283 282/282/282
f 266/266/266 267/267/267 284/284/284
f 266/266/266 284/284/284 283/283/283
f 267/267/267 268/268/268 285/285/285
f 267/267/267 285/285/285 284/284/284
f 268/268/268 269/269/269 286/286/286
f 268/268/268 286/286/286 285/285/285
f 269/269/269 270/270/270 287/287/287
f 269/269/269 287/287/287 286/286/286
f 270/270/270 271/271/271 288/288/288
f 270/270/270 288/288/288 287/287/287
f 271/271/271 272/272/272 289/289/289
f 271/271/271 289/289/289 288/288/288
