mtllib terrain_mid_05_02.mtl
usemtl terrain_mid_05_02
# Blender 5.1.1
# www.blender.org
o terrain_mid_05_02
v -160.000000 -160.000000 -25.767815
v -140.000000 -160.000000 -30.799810
v -120.000000 -160.000000 -34.175327
v -100.000000 -160.000000 -34.194164
v -80.000000 -160.000000 -29.645243
v -60.000000 -160.000000 -23.163681
v -40.000000 -160.000000 -17.506571
v -20.000000 -160.000000 -15.243386
v 0.000000 -160.000000 -16.601608
v 20.000000 -160.000000 -19.809006
v 40.000000 -160.000000 -22.811930
v 60.000000 -160.000000 -24.800150
v 80.000000 -160.000000 -26.080938
v 100.000000 -160.000000 -27.356865
v 120.000000 -160.000000 -29.384798
v 140.000000 -160.000000 -32.455910
v 160.000000 -160.000000 -36.405312
v -160.000000 -140.000000 -24.823389
v -140.000000 -140.000000 -29.220905
v -120.000000 -140.000000 -30.789413
v -100.000000 -140.000000 -27.991488
v -80.000000 -140.000000 -23.241514
v -60.000000 -140.000000 -18.282450
v -40.000000 -140.000000 -14.597350
v -20.000000 -140.000000 -13.381339
v 0.000000 -140.000000 -14.503051
v 20.000000 -140.000000 -17.052265
v 40.000000 -140.000000 -19.398823
v 60.000000 -140.000000 -21.401983
v 80.000000 -140.000000 -23.335033
v 100.000000 -140.000000 -25.543909
v 120.000000 -140.000000 -28.527790
v 140.000000 -140.000000 -31.976595
v 160.000000 -140.000000 -36.089333
v -160.000000 -120.000000 -23.136852
v -140.000000 -120.000000 -27.039759
v -120.000000 -120.000000 -27.363733
v -100.000000 -120.000000 -22.655516
v -80.000000 -120.000000 -17.426249
v -60.000000 -120.000000 -13.685091
v -40.000000 -120.000000 -11.617939
v -20.000000 -120.000000 -11.349357
v 0.000000 -120.000000 -12.636385
v 20.000000 -120.000000 -14.801696
v 40.000000 -120.000000 -16.943588
v 60.000000 -120.000000 -19.336899
v 80.000000 -120.000000 -22.029547
v 100.000000 -120.000000 -25.163187
v 120.000000 -120.000000 -28.797796
v 140.000000 -120.000000 -32.678127
v 160.000000 -120.000000 -36.985901
v -160.000000 -100.000000 -20.908873
v -140.000000 -100.000000 -24.623194
v -120.000000 -100.000000 -24.424532
v -100.000000 -100.000000 -18.559481
v -80.000000 -100.000000 -12.555411
v -60.000000 -100.000000 -9.317544
v -40.000000 -100.000000 -8.297585
v -20.000000 -100.000000 -9.051391
v 0.000000 -100.000000 -10.732271
v 20.000000 -100.000000 -12.853589
v 40.000000 -100.000000 -15.191703
v 60.000000 -100.000000 -18.175346
v 80.000000 -100.000000 -21.537481
v 100.000000 -100.000000 -25.293951
v 120.000000 -100.000000 -29.417181
v 140.000000 -100.000000 -33.558838
v 160.000000 -100.000000 -38.138603
v -160.000000 -80.000000 -18.513102
v -140.000000 -80.000000 -22.416292
v -120.000000 -80.000000 -21.953075
v -100.000000 -80.000000 -15.164725
v -80.000000 -80.000000 -8.784639
v -60.000000 -80.000000 -5.498005
v -40.000000 -80.000000 -4.765529
v -20.000000 -80.000000 -6.093138
v 0.000000 -80.000000 -8.284870
v 20.000000 -80.000000 -10.691133
v 40.000000 -80.000000 -13.469440
v 60.000000 -80.000000 -16.995380
v 80.000000 -80.000000 -20.777668
v 100.000000 -80.000000 -24.847771
v 120.000000 -80.000000 -29.186380
v 140.000000 -80.000000 -33.377792
v 160.000000 -80.000000 -38.204433
v -160.000000 -60.000000 -16.098001
v -140.000000 -60.000000 -20.297226
v -120.000000 -60.000000 -19.296961
v -100.000000 -60.000000 -11.997334
v -80.000000 -60.000000 -5.482739
v -60.000000 -60.000000 -2.110649
v -40.000000 -60.000000 -1.211804
v -20.000000 -60.000000 -2.460889
v 0.000000 -60.000000 -4.861659
v 20.000000 -60.000000 -7.435342
v 40.000000 -60.000000 -10.169907
v 60.000000 -60.000000 -13.625839
v 80.000000 -60.000000 -17.392767
v 100.000000 -60.000000 -21.514288
v 120.000000 -60.000000 -25.874165
v 140.000000 -60.000000 -29.996004
v 160.000000 -60.000000 -34.882229
v -160.000000 -40.000000 -13.616860
v -140.000000 -40.000000 -18.221556
v -120.000000 -40.000000 -16.499279
v -100.000000 -40.000000 -9.073913
v -80.000000 -40.000000 -2.590873
v -60.000000 -40.000000 0.874676
v -40.000000 -40.000000 2.323372
v -20.000000 -40.000000 1.636130
v 0.000000 -40.000000 -0.618705
v 20.000000 -40.000000 -3.169995
v 40.000000 -40.000000 -5.550977
v 60.000000 -40.000000 -8.541835
v 80.000000 -40.000000 -12.089652
v 100.000000 -40.000000 -16.166258
v 120.000000 -40.000000 -20.564249
v 140.000000 -40.000000 -24.722654
v 160.000000 -40.000000 -29.741636
v -160.000000 -20.000000 -11.889681
v -140.000000 -20.000000 -16.520439
v -120.000000 -20.000000 -14.371750
v -100.000000 -20.000000 -6.770771
v -80.000000 -20.000000 -0.289400
v -60.000000 -20.000000 3.481372
v -40.000000 -20.000000 5.512290
v -20.000000 -20.000000 5.513328
v 0.000000 -20.000000 4.023147
v 20.000000 -20.000000 1.910266
v 40.000000 -20.000000 -0.230345
v 60.000000 -20.000000 -2.988965
v 80.000000 -20.000000 -6.404994
v 100.000000 -20.000000 -10.502508
v 120.000000 -20.000000 -14.992457
v 140.000000 -20.000000 -19.506096
v 160.000000 -20.000000 -24.797857
v -160.000000 0.000000 -10.125778
v -140.000000 0.000000 -14.461493
v -120.000000 0.000000 -12.024372
v -100.000000 0.000000 -4.370448
v -80.000000 0.000000 2.206531
v -60.000000 0.000000 6.438797
v -40.000000 0.000000 9.094504
v -20.000000 0.000000 9.881627
v 0.000000 0.000000 9.134808
v 20.000000 0.000000 7.556276
v 40.000000 0.000000 5.709576
v 60.000000 0.000000 3.056371
v 80.000000 0.000000 -0.437132
v 100.000000 0.000000 -4.798284
v 120.000000 0.000000 -9.476880
v 140.000000 0.000000 -14.388813
v 160.000000 0.000000 -20.062723
v -160.000000 20.000000 -8.212611
v -140.000000 20.000000 -11.831359
v -120.000000 20.000000 -9.133272
v -100.000000 20.000000 -1.629291
v -80.000000 20.000000 5.101130
v -60.000000 20.000000 9.821202
v -40.000000 20.000000 13.062576
v -20.000000 20.000000 14.502714
v 0.000000 20.000000 14.531346
v 20.000000 20.000000 13.581056
v 40.000000 20.000000 12.074525
v 60.000000 20.000000 9.399510
v 80.000000 20.000000 5.578459
v 100.000000 20.000000 0.868538
v 120.000000 20.000000 -4.093728
v 140.000000 20.000000 -9.312600
v 160.000000 20.000000 -15.179971
v -160.000000 40.000000 -6.076937
v -140.000000 40.000000 -8.913810
v -120.000000 40.000000 -5.267170
v -100.000000 40.000000 2.017661
v -80.000000 40.000000 8.487123
v -60.000000 40.000000 13.288535
v -40.000000 40.000000 16.725683
v -20.000000 40.000000 18.618681
v 0.000000 40.000000 19.493612
v 20.000000 40.000000 19.365616
v 40.000000 40.000000 18.205921
v 60.000000 40.000000 15.291024
v 80.000000 40.000000 11.133940
v 100.000000 40.000000 6.227649
v 120.000000 40.000000 1.130718
v 140.000000 40.000000 -4.092420
v 160.000000 40.000000 -9.597329
v -160.000000 60.000000 -4.658453
v -140.000000 60.000000 -5.823098
v -120.000000 60.000000 -1.274284
v -100.000000 60.000000 5.873733
v -80.000000 60.000000 12.080628
v -60.000000 60.000000 16.776831
v -40.000000 60.000000 20.275459
v -20.000000 60.000000 22.506063
v 0.000000 60.000000 23.998028
v 20.000000 60.000000 24.447865
v 40.000000 60.000000 23.678713
v 60.000000 60.000000 20.753473
v 80.000000 60.000000 16.472767
v 100.000000 60.000000 11.507109
v 120.000000 60.000000 6.438322
v 140.000000 60.000000 1.453025
v 160.000000 60.000000 -3.227077
v -160.000000 80.000000 -3.732427
v -140.000000 80.000000 -2.879807
v -120.000000 80.000000 2.668391
v -100.000000 80.000000 9.743450
v -80.000000 80.000000 15.723092
v -60.000000 80.000000 20.268881
v -40.000000 80.000000 23.726740
v -20.000000 80.000000 26.118933
v 0.000000 80.000000 28.002104
v 20.000000 80.000000 28.855368
v 40.000000 80.000000 28.410713
v 60.000000 80.000000 25.725967
v 80.000000 80.000000 21.574512
v 100.000000 80.000000 16.678679
v 120.000000 80.000000 11.781488
v 140.000000 80.000000 7.276219
v 160.000000 80.000000 3.360278
v -160.000000 100.000000 -1.889396
v -140.000000 100.000000 1.079469
v -120.000000 100.000000 7.319466
v -100.000000 100.000000 14.015233
v -80.000000 100.000000 19.530634
v -60.000000 100.000000 23.744942
v -40.000000 100.000000 27.063892
v -20.000000 100.000000 29.627388
v 0.000000 100.000000 31.760153
v 20.000000 100.000000 32.695583
v 40.000000 100.000000 32.383072
v 60.000000 100.000000 29.889303
v 80.000000 100.000000 25.973804
v 100.000000 100.000000 21.418974
v 120.000000 100.000000 16.864334
v 140.000000 100.000000 12.662857
v 160.000000 100.000000 9.178672
v -160.000000 120.000000 0.629667
v -140.000000 120.000000 5.529020
v -120.000000 120.000000 11.940567
v -100.000000 120.000000 18.087112
v -80.000000 120.000000 23.313757
v -60.000000 120.000000 27.343277
v -40.000000 120.000000 30.653423
v -20.000000 120.000000 33.429836
v 0.000000 120.000000 35.785793
v 20.000000 120.000000 36.904060
v 40.000000 120.000000 36.803596
v 60.000000 120.000000 34.609173
v 80.000000 120.000000 30.977018
v 100.000000 120.000000 26.681412
v 120.000000 120.000000 22.350126
v 140.000000 120.000000 18.144722
v 160.000000 120.000000 14.828568
v -160.000000 140.000000 3.474251
v -140.000000 140.000000 9.640403
v -120.000000 140.000000 15.925627
v -100.000000 140.000000 21.613806
v -80.000000 140.000000 26.908484
v -60.000000 140.000000 31.141678
v -40.000000 140.000000 34.615040
v -20.000000 140.000000 37.672752
v 0.000000 140.000000 40.210384
v 20.000000 140.000000 41.734375
v 40.000000 140.000000 41.965759
v 60.000000 140.000000 40.196629
v 80.000000 140.000000 36.911282
v 100.000000 140.000000 32.707474
v 120.000000 140.000000 28.348831
v 140.000000 140.000000 23.881397
v 160.000000 140.000000 20.486296
v -160.000000 160.000000 5.948800
v -140.000000 160.000000 12.790610
v -120.000000 160.000000 19.292292
v -100.000000 160.000000 24.953045
v -80.000000 160.000000 30.409941
v -60.000000 160.000000 35.062664
v -40.000000 160.000000 38.987171
v -20.000000 160.000000 42.272896
v 0.000000 160.000000 45.101841
v 20.000000 160.000000 46.957962
v 40.000000 160.000000 47.665108
v 60.000000 160.000000 46.376072
v 80.000000 160.000000 43.555386
v 100.000000 160.000000 39.455860
v 120.000000 160.000000 34.799480
v 140.000000 160.000000 30.110590
v 160.000000 160.000000 26.349367
vn 0.2591 -0.0121 0.9658
vn 0.2057 -0.0118 0.9785
vn 0.1469 -0.0926 0.9848
vn 0.2501 -0.0635 0.9661
vn 0.0843 -0.0723 0.9938
vn -0.0302 -0.1678 0.9854
vn -0.1104 -0.1929 0.9750
vn -0.1784 -0.2727 0.9454
vn -0.2570 -0.2562 0.9318
vn -0.2261 -0.2846 0.9316
vn -0.2834 -0.2184 0.9338
vn -0.2057 -0.2256 0.9522
vn -0.1922 -0.1429 0.9709
vn -0.1204 -0.1446 0.9821
vn -0.0225 -0.0940 0.9953
vn -0.0024 -0.0969 0.9953
vn 0.1129 -0.0912 0.9894
vn 0.0909 -0.0982 0.9910
vn 0.1524 -0.1172 0.9814
vn 0.1205 -0.1233 0.9850
vn 0.1223 -0.1567 0.9800
vn 0.1069 -0.1443 0.9837
vn 0.0801 -0.1827 0.9799
vn 0.0970 -0.1347 0.9861
vn 0.0628 -0.1713 0.9832
vn 0.1025 -0.1002 0.9897
vn 0.0816 -0.1270 0.9885
vn 0.1285 -0.0543 0.9902
vn 0.1261 -0.0778 0.9890
vn 0.1588 -0.0145 0.9872
vn 0.1727 -0.0483 0.9838
vn 0.1857 0.0055 0.9826
vn 0.2131 -0.0311 0.9765
vn 0.2190 0.0142 0.9756
vn 0.1043 -0.1136 0.9880
vn 0.2377 -0.0946 0.9667
vn -0.1076 -0.1562 0.9818
vn -0.2351 -0.2230 0.9460
vn -0.2117 -0.2522 0.9442
vn -0.1404 -0.2168 0.9661
vn -0.0576 -0.1553 0.9862
vn 0.0253 -0.1076 0.9939
vn 0.0855 -0.0936 0.9919
vn 0.1065 -0.1038 0.9889
vn 0.1120 -0.1039 0.9883
vn 0.1257 -0.0797 0.9889
vn 0.1440 -0.0444 0.9886
vn 0.1668 -0.0062 0.9860
vn 0.1846 0.0218 0.9826
vn 0.2004 0.0387 0.9790
vn 0.2248 0.0499 0.9731
vn 0.0870 -0.1144 0.9896
vn 0.2297 -0.1118 0.9668
vn -0.1485 -0.1326 0.9800
vn -0.2800 -0.1767 0.9436
vn -0.2203 -0.2060 0.9534
vn -0.1037 -0.1995 0.9744
vn -0.0066 -0.1689 0.9856
vn 0.0602 -0.1301 0.9897
vn 0.0939 -0.1078 0.9897
vn 0.1102 -0.1016 0.9887
vn 0.1314 -0.0858 0.9876
vn 0.1564 -0.0577 0.9860
vn 0.1751 -0.0308 0.9841
vn 0.1933 -0.0077 0.9811
vn 0.2024 0.0095 0.9793
vn 0.2129 0.0170 0.9769
vn 0.2274 0.0297 0.9733
vn 0.0852 -0.1072 0.9906
vn 0.2333 -0.1161 0.9654
vn -0.1769 -0.1252 0.9762
vn -0.3090 -0.1539 0.9385
vn -0.2315 -0.1694 0.9580
vn -0.0984 -0.1763 0.9794
vn 0.0146 -0.1744 0.9846
vn 0.0865 -0.1620 0.9830
vn 0.1130 -0.1443 0.9831
vn 0.1274 -0.1331 0.9829
vn 0.1545 -0.1231 0.9803
vn 0.1786 -0.1112 0.9776
vn 0.1916 -0.1012 0.9762
vn 0.2048 -0.0921 0.9745
vn 0.2078 -0.0863 0.9744
vn 0.2191 -0.0865 0.9719
vn 0.2238 -0.0791 0.9714
vn 0.0793 -0.1040 0.9914
vn 0.2514 -0.1176 0.9607
vn -0.2014 -0.1323 0.9705
vn -0.3231 -0.1425 0.9356
vn -0.2373 -0.1486 0.9600
vn -0.1049 -0.1565 0.9821
vn 0.0086 -0.1745 0.9846
vn 0.0891 -0.1891 0.9779
vn 0.1212 -0.1869 0.9749
vn 0.1293 -0.1832 0.9745
vn 0.1501 -0.1920 0.9699
vn 0.1740 -0.2036 0.9635
vn 0.1893 -0.2085 0.9595
vn 0.2029 -0.2073 0.9570
vn 0.2030 -0.2063 0.9572
vn 0.2150 -0.2065 0.9545
vn 0.2263 -0.2016 0.9530
vn 0.0715 -0.0938 0.9930
vn 0.2802 -0.1004 0.9547
vn -0.2213 -0.1192 0.9679
vn -0.3260 -0.1225 0.9374
vn -0.2395 -0.1250 0.9628
vn -0.1208 -0.1374 0.9831
vn -0.0188 -0.1658 0.9860
vn 0.0719 -0.1950 0.9782
vn 0.1165 -0.2154 0.9696
vn 0.1192 -0.2259 0.9668
vn 0.1293 -0.2391 0.9624
vn 0.1561 -0.2538 0.9546
vn 0.1808 -0.2604 0.9484
vn 0.2002 -0.2600 0.9446
vn 0.2022 -0.2571 0.9450
vn 0.2167 -0.2476 0.9443
vn 0.2393 -0.2374 0.9415
vn 0.0617 -0.0934 0.9937
vn 0.2925 -0.0832 0.9526
vn -0.2354 -0.1081 0.9659
vn -0.3301 -0.1103 0.9375
vn -0.2466 -0.1154 0.9622
vn -0.1422 -0.1364 0.9804
vn -0.0500 -0.1667 0.9847
vn 0.0363 -0.2019 0.9787
vn 0.0872 -0.2360 0.9678
vn 0.1021 -0.2577 0.9608
vn 0.1171 -0.2691 0.9560
vn 0.1467 -0.2754 0.9501
vn 0.1775 -0.2753 0.9448
vn 0.2023 -0.2677 0.9420
vn 0.2120 -0.2610 0.9418
vn 0.2310 -0.2432 0.9421
vn 0.2533 -0.2275 0.9402
vn 0.0472 -0.1163 0.9921
vn 0.2848 -0.0878 0.9546
vn -0.2426 -0.1260 0.9619
vn -0.3328 -0.1202 0.9353
vn -0.2587 -0.1291 0.9573
vn -0.1676 -0.1543 0.9737
vn -0.0844 -0.1851 0.9791
vn -0.0010 -0.2192 0.9757
vn 0.0562 -0.2536 0.9657
vn 0.0819 -0.2791 0.9567
vn 0.1069 -0.2923 0.9503
vn 0.1453 -0.2927 0.9451
vn 0.1849 -0.2820 0.9414
vn 0.2125 -0.2671 0.9399
vn 0.2254 -0.2561 0.9400
vn 0.2484 -0.2392 0.9387
vn 0.2608 -0.2257 0.9386
vn 0.0228 -0.1373 0.9903
vn 0.2559 -0.0974 0.9618
vn -0.2439 -0.1615 0.9563
vn -0.3315 -0.1487 0.9317
vn -0.2722 -0.1493 0.9506
vn -0.1925 -0.1656 0.9672
vn -0.1142 -0.1862 0.9759
vn -0.0359 -0.2133 0.9763
vn 0.0222 -0.2507 0.9678
vn 0.0588 -0.2826 0.9574
vn 0.0993 -0.2967 0.9498
vn 0.1535 -0.2890 0.9449
vn 0.2008 -0.2722 0.9411
vn 0.2270 -0.2588 0.9389
vn 0.2389 -0.2489 0.9386
vn 0.2592 -0.2408 0.9353
vn 0.2567 -0.2446 0.9350
vn -0.0197 -0.1489 0.9887
vn 0.2195 -0.0864 0.9718
vn -0.2590 -0.1862 0.9478
vn -0.3198 -0.1744 0.9313
vn -0.2675 -0.1656 0.9492
vn -0.1989 -0.1679 0.9655
vn -0.1301 -0.1760 0.9758
vn -0.0677 -0.1957 0.9783
vn -0.0182 -0.2303 0.9730
vn 0.0311 -0.2620 0.9646
vn 0.0974 -0.2773 0.9558
vn 0.1677 -0.2692 0.9484
vn 0.2136 -0.2567 0.9426
vn 0.2349 -0.2499 0.9394
vn 0.2421 -0.2471 0.9383
vn 0.2507 -0.2516 0.9348
vn 0.2326 -0.2785 0.9319
vn -0.0834 -0.1486 0.9854
vn 0.1540 -0.0578 0.9864
vn -0.2757 -0.1871 0.9429
vn -0.3115 -0.1802 0.9330
vn -0.2591 -0.1721 0.9504
vn -0.1980 -0.1689 0.9655
vn -0.1397 -0.1708 0.9753
vn -0.0912 -0.1836 0.9788
vn -0.0474 -0.2078 0.9770
vn 0.0078 -0.2308 0.9730
vn 0.0891 -0.2462 0.9651
vn 0.1717 -0.2487 0.9532
vn 0.2182 -0.2465 0.9443
vn 0.2358 -0.2457 0.9402
vn 0.2360 -0.2501 0.9390
vn 0.2264 -0.2663 0.9369
vn 0.1944 -0.3023 0.9332
vn -0.1558 -0.1680 0.9734
vn 0.0511 -0.0690 0.9963
vn -0.2948 -0.2007 0.9342
vn -0.3046 -0.1899 0.9334
vn -0.2504 -0.1773 0.9518
vn -0.1933 -0.1684 0.9666
vn -0.1427 -0.1656 0.9758
vn -0.1048 -0.1744 0.9791
vn -0.0670 -0.1901 0.9795
vn -0.0100 -0.2019 0.9793
vn 0.0762 -0.2120 0.9743
vn 0.1641 -0.2194 0.9617
vn 0.2149 -0.2257 0.9502
vn 0.2312 -0.2340 0.9443
vn 0.2218 -0.2460 0.9436
vn 0.1986 -0.2645 0.9437
vn 0.1549 -0.2927 0.9436
vn -0.2198 -0.2007 0.9547
vn -0.0423 -0.1083 0.9932
vn -0.3005 -0.2154 0.9291
vn -0.2864 -0.1957 0.9379
vn -0.2325 -0.1814 0.9555
vn -0.1824 -0.1713 0.9682
vn -0.1434 -0.1689 0.9752
vn -0.1150 -0.1789 0.9771
vn -0.0747 -0.1901 0.9789
vn -0.0152 -0.1972 0.9802
vn 0.0684 -0.2049 0.9764
vn 0.1545 -0.2142 0.9645
vn 0.2017 -0.2242 0.9534
vn 0.2158 -0.2368 0.9473
vn 0.2070 -0.2499 0.9459
vn 0.1823 -0.2578 0.9488
vn 0.1327 -0.2732 0.9528
vn -0.2664 -0.2019 0.9425
vn -0.1266 -0.1318 0.9832
vn -0.2934 -0.2010 0.9346
vn -0.2690 -0.1797 0.9462
vn -0.2219 -0.1769 0.9589
vn -0.1776 -0.1789 0.9677
vn -0.1479 -0.1835 0.9718
vn -0.1246 -0.1955 0.9728
vn -0.0847 -0.2059 0.9749
vn -0.0248 -0.2203 0.9751
vn 0.0557 -0.2326 0.9710
vn 0.1393 -0.2474 0.9589
vn 0.1878 -0.2590 0.9474
vn 0.2033 -0.2659 0.9423
vn 0.2009 -0.2703 0.9416
vn 0.1782 -0.2657 0.9474
vn 0.1221 -0.2700 0.9551
vn -0.2929 -0.1707 0.9408
vn -0.1990 -0.1292 0.9715
vn -0.2825 -0.1735 0.9434
vn -0.2612 -0.1633 0.9514
vn -0.2284 -0.1701 0.9586
vn -0.1859 -0.1862 0.9648
vn -0.1578 -0.2014 0.9667
vn -0.1354 -0.2139 0.9674
vn -0.0985 -0.2258 0.9692
vn -0.0426 -0.2436 0.9689
vn 0.0371 -0.2619 0.9644
vn 0.1202 -0.2802 0.9524
vn 0.1758 -0.2953 0.9391
vn 0.1998 -0.2981 0.9334
vn 0.2062 -0.2908 0.9343
vn 0.1851 -0.2815 0.9415
vn 0.1236 -0.2746 0.9536
vn -0.3137 -0.1302 0.9405
vn -0.2476 -0.1068 0.9630
vn -0.2877 -0.1491 0.9461
vn -0.2645 -0.1568 0.9516
vn -0.2415 -0.1683 0.9557
vn -0.2058 -0.1902 0.9599
vn -0.1734 -0.2116 0.9618
vn -0.1472 -0.2252 0.9631
vn -0.1129 -0.2400 0.9642
vn -0.0618 -0.2577 0.9642
vn 0.0140 -0.2789 0.9602
vn 0.0976 -0.2982 0.9495
vn 0.1619 -0.3136 0.9357
vn 0.2029 -0.3149 0.9272
vn 0.2169 -0.3012 0.9285
vn 0.1977 -0.2910 0.9361
vn 0.1430 -0.2748 0.9508
vt 0.015625 0.015625
vt 0.076172 0.015625
vt 0.076172 0.076172
vt 0.015625 0.076172
vt 0.136719 0.015625
vt 0.136719 0.076172
vt 0.197266 0.015625
vt 0.197266 0.076172
vt 0.257812 0.015625
vt 0.257812 0.076172
vt 0.318359 0.015625
vt 0.318359 0.076172
vt 0.378906 0.015625
vt 0.378906 0.076172
vt 0.439453 0.015625
vt 0.439453 0.076172
vt 0.500000 0.015625
vt 0.500000 0.076172
vt 0.560547 0.015625
vt 0.560547 0.076172
vt 0.621094 0.015625
vt 0.621094 0.076172
vt 0.681641 0.015625
vt 0.681641 0.076172
vt 0.742188 0.015625
vt 0.742188 0.076172
vt 0.802734 0.015625
vt 0.802734 0.076172
vt 0.863281 0.015625
vt 0.863281 0.076172
vt 0.923828 0.015625
vt 0.923828 0.076172
vt 0.984375 0.015625
vt 0.984375 0.076172
vt 0.076172 0.136719
vt 0.015625 0.136719
vt 0.136719 0.136719
vt 0.197266 0.136719
vt 0.257812 0.136719
vt 0.318359 0.136719
vt 0.378906 0.136719
vt 0.439453 0.136719
vt 0.500000 0.136719
vt 0.560547 0.136719
vt 0.621094 0.136719
vt 0.681641 0.136719
vt 0.742188 0.136719
vt 0.802734 0.136719
vt 0.863281 0.136719
vt 0.923828 0.136719
vt 0.984375 0.136719
vt 0.076172 0.197266
vt 0.015625 0.197266
vt 0.136719 0.197266
vt 0.197266 0.197266
vt 0.257812 0.197266
vt 0.318359 0.197266
vt 0.378906 0.197266
vt 0.439453 0.197266
vt 0.500000 0.197266
vt 0.560547 0.197266
vt 0.621094 0.197266
vt 0.681641 0.197266
vt 0.742188 0.197266
vt 0.802734 0.197266
vt 0.863281 0.197266
vt 0.923828 0.197266
vt 0.984375 0.197266
vt 0.076172 0.257812
vt 0.015625 0.257812
vt 0.136719 0.257812
vt 0.197266 0.257812
vt 0.257812 0.257812
vt 0.318359 0.257812
vt 0.378906 0.257812
vt 0.439453 0.257812
vt 0.500000 0.257812
vt 0.560547 0.257812
vt 0.621094 0.257812
vt 0.681641 0.257812
vt 0.742188 0.257812
vt 0.802734 0.257812
vt 0.863281 0.257812
vt 0.923828 0.257812
vt 0.984375 0.257812
vt 0.076172 0.318359
vt 0.015625 0.318359
vt 0.136719 0.318359
vt 0.197266 0.318359
vt 0.257812 0.318359
vt 0.318359 0.318359
vt 0.378906 0.318359
vt 0.439453 0.318359
vt 0.500000 0.318359
vt 0.560547 0.318359
vt 0.621094 0.318359
vt 0.681641 0.318359
vt 0.742188 0.318359
vt 0.802734 0.318359
vt 0.863281 0.318359
vt 0.923828 0.318359
vt 0.984375 0.318359
vt 0.076172 0.378906
vt 0.015625 0.378906
vt 0.136719 0.378906
vt 0.197266 0.378906
vt 0.257812 0.378906
vt 0.318359 0.378906
vt 0.378906 0.378906
vt 0.439453 0.378906
vt 0.500000 0.378906
vt 0.560547 0.378906
vt 0.621094 0.378906
vt 0.681641 0.378906
vt 0.742188 0.378906
vt 0.802734 0.378906
vt 0.863281 0.378906
vt 0.923828 0.378906
vt 0.984375 0.378906
vt 0.076172 0.439453
vt 0.015625 0.439453
vt 0.136719 0.439453
vt 0.197266 0.439453
vt 0.257812 0.439453
vt 0.318359 0.439453
vt 0.378906 0.439453
vt 0.439453 0.439453
vt 0.500000 0.439453
vt 0.560547 0.439453
vt 0.621094 0.439453
vt 0.681641 0.439453
vt 0.742188 0.439453
vt 0.802734 0.439453
vt 0.863281 0.439453
vt 0.923828 0.439453
vt 0.984375 0.439453
vt 0.076172 0.500000
vt 0.015625 0.500000
vt 0.136719 0.500000
vt 0.197266 0.500000
vt 0.257812 0.500000
vt 0.318359 0.500000
vt 0.378906 0.500000
vt 0.439453 0.500000
vt 0.500000 0.500000
vt 0.560547 0.500000
vt 0.621094 0.500000
vt 0.681641 0.500000
vt 0.742188 0.500000
vt 0.802734 0.500000
vt 0.863281 0.500000
vt 0.923828 0.500000
vt 0.984375 0.500000
vt 0.076172 0.560547
vt 0.015625 0.560547
vt 0.136719 0.560547
vt 0.197266 0.560547
vt 0.257812 0.560547
vt 0.318359 0.560547
vt 0.378906 0.560547
vt 0.439453 0.560547
vt 0.500000 0.560547
vt 0.560547 0.560547
vt 0.621094 0.560547
vt 0.681641 0.560547
vt 0.742188 0.560547
vt 0.802734 0.560547
vt 0.863281 0.560547
vt 0.923828 0.560547
vt 0.984375 0.560547
vt 0.076172 0.621094
vt 0.015625 0.621094
vt 0.136719 0.621094
vt 0.197266 0.621094
vt 0.257812 0.621094
vt 0.318359 0.621094
vt 0.378906 0.621094
vt 0.439453 0.621094
vt 0.500000 0.621094
vt 0.560547 0.621094
vt 0.621094 0.621094
vt 0.681641 0.621094
vt 0.742188 0.621094
vt 0.802734 0.621094
vt 0.863281 0.621094
vt 0.923828 0.621094
vt 0.984375 0.621094
vt 0.076172 0.681641
vt 0.015625 0.681641
vt 0.136719 0.681641
vt 0.197266 0.681641
vt 0.257812 0.681641
vt 0.318359 0.681641
vt 0.378906 0.681641
vt 0.439453 0.681641
vt 0.500000 0.681641
vt 0.560547 0.681641
vt 0.621094 0.681641
vt 0.681641 0.681641
vt 0.742188 0.681641
vt 0.802734 0.681641
vt 0.863281 0.681641
vt 0.923828 0.681641
vt 0.984375 0.681641
vt 0.076172 0.742188
vt 0.015625 0.742188
vt 0.136719 0.742188
vt 0.197266 0.742188
vt 0.257812 0.742188
vt 0.318359 0.742188
vt 0.378906 0.742188
vt 0.439453 0.742188
vt 0.500000 0.742188
vt 0.560547 0.742188
vt 0.621094 0.742188
vt 0.681641 0.742188
vt 0.742188 0.742188
vt 0.802734 0.742188
vt 0.863281 0.742188
vt 0.923828 0.742188
vt 0.984375 0.742188
vt 0.076172 0.802734
vt 0.015625 0.802734
vt 0.136719 0.802734
vt 0.197266 0.802734
vt 0.257812 0.802734
vt 0.318359 0.802734
vt 0.378906 0.802734
vt 0.439453 0.802734
vt 0.500000 0.802734
vt 0.560547 0.802734
vt 0.621094 0.802734
vt 0.681641 0.802734
vt 0.742188 0.802734
vt 0.802734 0.802734
vt 0.863281 0.802734
vt 0.923828 0.802734
vt 0.984375 0.802734
vt 0.076172 0.863281
vt 0.015625 0.863281
vt 0.136719 0.863281
vt 0.197266 0.863281
vt 0.257812 0.863281
vt 0.318359 0.863281
vt 0.378906 0.863281
vt 0.439453 0.863281
vt 0.500000 0.863281
vt 0.560547 0.863281
vt 0.621094 0.863281
vt 0.681641 0.863281
vt 0.742188 0.863281
vt 0.802734 0.863281
vt 0.863281 0.863281
vt 0.923828 0.863281
vt 0.984375 0.863281
vt 0.076172 0.923828
vt 0.015625 0.923828
vt 0.136719 0.923828
vt 0.197266 0.923828
vt 0.257812 0.923828
vt 0.318359 0.923828
vt 0.378906 0.923828
vt 0.439453 0.923828
vt 0.500000 0.923828
vt 0.560547 0.923828
vt 0.621094 0.923828
vt 0.681641 0.923828
vt 0.742188 0.923828
vt 0.802734 0.923828
vt 0.863281 0.923828
vt 0.923828 0.923828
vt 0.984375 0.923828
vt 0.076172 0.984375
vt 0.015625 0.984375
vt 0.136719 0.984375
vt 0.197266 0.984375
vt 0.257812 0.984375
vt 0.318359 0.984375
vt 0.378906 0.984375
vt 0.439453 0.984375
vt 0.500000 0.984375
vt 0.560547 0.984375
vt 0.621094 0.984375
vt 0.681641 0.984375
vt 0.742188 0.984375
vt 0.802734 0.984375
vt 0.863281 0.984375
vt 0.923828 0.984375
vt 0.984375 0.984375
s 1
f 1/1/1 2/2/2 19/3/3
f 1/1/1 19/3/3 18/4/4
f 2/2/2 3/5/5 20/6/6
f 2/2/2 20/6/6 19/3/3
f 3/5/5 4/7/7 21/8/8
f 3/5/5 21/8/8 20/6/6
f 4/7/7 5/9/9 22/10/10
f 4/7/7 22/10/10 21/8/8
f 5/9/9 6/11/11 23/12/12
f 5/9/9 23/12/12 22/10/10
f 6/11/11 7/13/13 24/14/14
f 6/11/11 24/14/14 23/12/12
f 7/13/13 8/15/15 25/16/16
f 7/13/13 25/16/16 24/14/14
f 8/15/15 9/17/17 26/18/18
f 8/15/15 26/18/18 25/16/16
f 9/17/17 10/19/19 27/20/20
f 9/17/17 27/20/20 26/18/18
f 10/19/19 11/21/21 28/22/22
f 10/19/19 28/22/22 27/20/20
f 11/21/21 12/23/23 29/24/24
f 11/21/21 29/24/24 28/22/22
f 12/23/23 13/25/25 30/26/26
f 12/23/23 30/26/26 29/24/24
f 13/25/25 14/27/27 31/28/28
f 13/25/25 31/28/28 30/26/26
f 14/27/27 15/29/29 32/30/30
f 14/27/27 32/30/30 31/28/28
f 15/29/29 16/31/31 33/32/32
f 15/29/29 33/32/32 32/30/30
f 16/31/31 17/33/33 34/34/34
f 16/31/31 34/34/34 33/32/32
f 18/4/4 19/3/3 36/35/35
f 18/4/4 36/35/35 35/36/36
f 19/3/3 20/6/6 37/37/37
f 19/3/3 37/37/37 36/35/35
f 20/6/6 21/8/8 38/38/38
f 20/6/6 38/38/38 37/37/37
f 21/8/8 22/10/10 39/39/39
f 21/8/8 39/39/39 38/38/38
f 22/10/10 23/12/12 40/40/40
f 22/10/10 40/40/40 39/39/39
f 23/12/12 24/14/14 41/41/41
f 23/12/12 41/41/41 40/40/40
f 24/14/14 25/16/16 42/42/42
f 24/14/14 42/42/42 41/41/41
f 25/16/16 26/18/18 43/43/43
f 25/16/16 43/43/43 42/42/42
f 26/18/18 27/20/20 44/44/44
f 26/18/18 44/44/44 43/43/43
f 27/20/20 28/22/22 45/45/45
f 27/20/20 45/45/45 44/44/44
f 28/22/22 29/24/24 46/46/46
f 28/22/22 46/46/46 45/45/45
f 29/24/24 30/26/26 47/47/47
f 29/24/24 47/47/47 46/46/46
f 30/26/26 31/28/28 48/48/48
f 30/26/26 48/48/48 47/47/47
f 31/28/28 32/30/30 49/49/49
f 31/28/28 49/49/49 48/48/48
f 32/30/30 33/32/32 50/50/50
f 32/30/30 50/50/50 49/49/49
f 33/32/32 34/34/34 51/51/51
f 33/32/32 51/51/51 50/50/50
f 35/36/36 36/35/35 53/52/52
f 35/36/36 53/52/52 52/53/53
f 36/35/35 37/37/37 54/54/54
f 36/35/35 54/54/54 53/52/52
f 37/37/37 38/38/38 55/55/55
f 37/37/37 55/55/55 54/54/54
f 38/38/38 39/39/39 56/56/56
f 38/38/38 56/56/56 55/55/55
f 39/39/39 40/40/40 57/57/57
f 39/39/39 57/57/57 56/56/56
f 40/40/40 41/41/41 58/58/58
f 40/40/40 58/58/58 57/57/57
f 41/41/41 42/42/42 59/59/59
f 41/41/41 59/59/59 58/58/58
f 42/42/42 43/43/43 60/60/60
f 42/42/42 60/60/60 59/59/59
f 43/43/43 44/44/44 61/61/61
f 43/43/43 61/61/61 60/60/60
f 44/44/44 45/45/45 62/62/62
f 44/44/44 62/62/62 61/61/61
f 45/45/45 46/46/46 63/63/63
f 45/45/45 63/63/63 62/62/62
f 46/46/46 47/47/47 64/64/64
f 46/46/46 64/64/64 63/63/63
f 47/47/47 48/48/48 65/65/65
f 47/47/47 65/65/65 64/64/64
f 48/48/48 49/49/49 66/66/66
f 48/48/48 66/66/66 65/65/65
f 49/49/49 50/50/50 67/67/67
f 49/49/49 67/67/67 66/66/66
f 50/50/50 51/51/51 68/68/68
f 50/50/50 68/68/68 67/67/67
f 52/53/53 53/52/52 70/69/69
f 52/53/53 70/69/69 69/70/70
f 53/52/52 54/54/54 71/71/71
f 53/52/52 71/71/71 70/69/69
f 54/54/54 55/55/55 72/72/72
f 54/54/54 72/72/72 71/71/71
f 55/55/55 56/56/56 73/73/73
f 55/55/55 73/73/73 72/72/72
f 56/56/56 57/57/57 74/74/74
f 56/56/56 74/74/74 73/73/73
f 57/57/57 58/58/58 75/75/75
f 57/57/57 75/75/75 74/74/74
f 58/58/58 59/59/59 76/76/76
f 58/58/58 76/76/76 75/75/75
f 59/59/59 60/60/60 77/77/77
f 59/59/59 77/77/77 76/76/76
f 60/60/60 61/61/61 78/78/78
f 60/60/60 78/78/78 77/77/77
f 61/61/61 62/62/62 79/79/79
f 61/61/61 79/79/79 78/78/78
f 62/62/62 63/63/63 80/80/80
f 62/62/62 80/80/80 79/79/79
f 63/63/63 64/64/64 81/81/81
f 63/63/63 81/81/81 80/80/80
f 64/64/64 65/65/65 82/82/82
f 64/64/64 82/82/82 81/81/81
f 65/65/65 66/66/66 83/83/83
f 65/65/65 83/83/83 82/82/82
f 66/66/66 67/67/67 84/84/84
f 66/66/66 84/84/84 83/83/83
f 67/67/67 68/68/68 85/85/85
f 67/67/67 85/85/85 84/84/84
f 69/70/70 70/69/69 87/86/86
f 69/70/70 87/86/86 86/87/87
f 70/69/69 71/71/71 88/88/88
f 70/69/69 88/88/88 87/86/86
f 71/71/71 72/72/72 89/89/89
f 71/71/71 89/89/89 88/88/88
f 72/72/72 73/73/73 90/90/90
f 72/72/72 90/90/90 89/89/89
f 73/73/73 74/74/74 91/91/91
f 73/73/73 91/91/91 90/90/90
f 74/74/74 75/75/75 92/92/92
f 74/74/74 92/92/92 91/91/91
f 75/75/75 76/76/76 93/93/93
f 75/75/75 93/93/93 92/92/92
f 76/76/76 77/77/77 94/94/94
f 76/76/76 94/94/94 93/93/93
f 77/77/77 78/78/78 95/95/95
f 77/77/77 95/95/95 94/94/94
f 78/78/78 79/79/79 96/96/96
f 78/78/78 96/96/96 95/95/95
f 79/79/79 80/80/80 97/97/97
f 79/79/79 97/97/97 96/96/96
f 80/80/80 81/81/81 98/98/98
f 80/80/80 98/98/98 97/97/97
f 81/81/81 82/82/82 99/99/99
f 81/81/81 99/99/99 98/98/98
f 82/82/82 83/83/83 100/100/100
f 82/82/82 100/100/100 99/99/99
f 83/83/83 84/84/84 101/101/101
f 83/83/83 101/101/101 100/100/100
f 84/84/84 85/85/85 102/102/102
f 84/84/84 102/102/102 101/101/101
f 86/87/87 87/86/86 104/103/103
f 86/87/87 104/103/103 103/104/104
f 87/86/86 88/88/88 105/105/105
f 87/86/86 105/105/105 104/103/103
f 88/88/88 89/89/89 106/106/106
f 88/88/88 106/106/106 105/105/105
f 89/89/89 90/90/90 107/107/107
f 89/89/89 107/107/107 106/106/106
f 90/90/90 91/91/91 108/108/108
f 90/90/90 108/108/108 107/107/107
f 91/91/91 92/92/92 109/109/109
f 91/91/91 109/109/109 108/108/108
f 92/92/92 93/93/93 110/110/110
f 92/92/92 110/110/110 109/109/109
f 93/93/93 94/94/94 111/111/111
f 93/93/93 111/111/111 110/110/110
f 94/94/94 95/95/95 112/112/112
f 94/94/94 112/112/112 111/111/111
f 95/95/95 96/96/96 113/113/113
f 95/95/95 113/113/113 112/112/112
f 96/96/96 97/97/97 114/114/114
f 96/96/96 114/114/114 113/113/113
f 97/97/97 98/98/98 115/115/115
f 97/97/97 115/115/115 114/114/114
f 98/98/98 99/99/99 116/116/116
f 98/98/98 116/116/116 115/115/115
f 99/99/99 100/100/100 117/117/117
f 99/99/99 117/117/117 116/116/116
f 100/100/100 101/101/101 118/118/118
f 100/100/100 118/118/118 117/117/117
f 101/101/101 102/102/102 119/119/119
f 101/101/101 119/119/119 118/118/118
f 103/104/104 104/103/103 121/120/120
f 103/104/104 121/120/120 120/121/121
f 104/103/103 105/105/105 122/122/122
f 104/103/103 122/122/122 121/120/120
f 105/105/105 106/106/106 123/123/123
f 105/105/105 123/123/123 122/122/122
f 106/106/106 107/107/107 124/124/124
f 106/106/106 124/124/124 123/123/123
f 107/107/107 108/108/108 125/125/125
f 107/107/107 125/125/125 124/124/124
f 108/108/108 109/109/109 126/126/126
f 108/108/108 126/126/126 125/125/125
f 109/109/109 110/110/110 127/127/127
f 109/109/109 127/127/127 126/126/126
f 110/110/110 111/111/111 128/128/128
f 110/110/110 128/128/128 127/127/127
f 111/111/111 112/112/112 129/129/129
f 111/111/111 129/129/129 128/128/128
f 112/112/112 113/113/113 130/130/130
f 112/112/112 130/130/130 129/129/129
f 113/113/113 114/114/114 131/131/131
f 113/113/113 131/131/131 130/130/130
f 114/114/114 115/115/115 132/132/132
f 114/114/114 132/132/132 131/131/131
f 115/115/115 116/116/116 133/133/133
f 115/115/115 133/133/133 132/132/132
f 116/116/116 117/117/117 134/134/134
f 116/116/116 134/134/134 133/133/133
f 117/117/117 118/118/118 135/135/135
f 117/117/117 135/135/135 134/134/134
f 118/118/118 119/119/119 136/136/136
f 118/118/118 136/136/136 135/135/135
f 120/121/121 121/120/120 138/137/137
f 120/121/121 138/137/137 137/138/138
f 121/120/120 122/122/122 139/139/139
f 121/120/120 139/139/139 138/137/137
f 122/122/122 123/123/123 140/140/140
f 122/122/122 140/140/140 139/139/139
f 123/123/123 124/124/124 141/141/141
f 123/123/123 141/141/141 140/140/140
f 124/124/124 125/125/125 142/142/142
f 124/124/124 142/142/142 141/141/141
f 125/125/125 126/126/126 143/143/143
f 125/125/125 143/143/143 142/142/142
f 126/126/126 127/127/127 144/144/144
f 126/126/126 144/144/144 143/143/143
f 127/127/127 128/128/128 145/145/145
f 127/127/127 145/145/145 144/144/144
f 128/128/128 129/129/129 146/146/146
f 128/128/128 146/146/146 145/145/145
f 129/129/129 130/130/130 147/147/147
f 129/129/129 147/147/147 146/146/146
f 130/130/130 131/131/131 148/148/148
f 130/130/130 148/148/148 147/147/147
f 131/131/131 132/132/132 149/149/149
f 131/131/131 149/149/149 148/148/148
f 132/132/132 133/133/133 150/150/150
f 132/132/132 150/150/150 149/149/149
f 133/133/133 134/134/134 151/151/151
f 133/133/133 151/151/151 150/150/150
f 134/134/134 135/135/135 152/152/152
f 134/134/134 152/152/152 151/151/151
f 135/135/135 136/136/136 153/153/153
f 135/135/135 153/153/153 152/152/152
f 137/138/138 138/137/137 155/154/154
f 137/138/138 155/154/154 154/155/155
f 138/137/137 139/139/139 156/156/156
f 138/137/137 156/156/156 155/154/154
f 139/139/139 140/140/140 157/157/157
f 139/139/139 157/157/157 156/156/156
f 140/140/140 141/141/141 158/158/158
f 140/140/140 158/158/158 157/157/157
f 141/141/141 142/142/142 159/159/159
f 141/141/141 159/159/159 158/158/158
f 142/142/142 143/143/143 160/160/160
f 142/142/142 160/160/160 159/159/159
f 143/143/143 144/144/144 161/161/161
f 143/143/143 161/161/161 160/160/160
f 144/144/144 145/145/145 162/162/162
f 144/144/144 162/162/162 161/161/161
f 145/145/145 146/146/146 163/163/163
f 145/145/145 163/163/163 162/162/162
f 146/146/146 147/147/147 164/164/164
f 146/146/146 164/164/164 163/163/163
f 147/147/147 148/148/148 165/165/165
f 147/147/147 165/165/165 164/164/164
f 148/148/148 149/149/149 166/166/166
f 148/148/148 166/166/166 165/165/165
f 149/149/149 150/150/150 167/167/167
f 149/149/149 167/167/167 166/166/166
f 150/150/150 151/151/151 168/168/168
f 150/150/150 168/168/168 167/167/167
f 151/151/151 152/152/152 169/169/169
f 151/151/151 169/169/169 168/168/168
f 152/152/152 153/153/153 170/170/170
f 152/152/152 170/170/170 169/169/169
f 154/155/155 155/154/154 172/171/171
f 154/155/155 172/171/171 171/172/172
f 155/154/154 156/156/156 173/173/173
f 155/154/154 173/173/173 172/171/171
f 156/156/156 157/157/157 174/174/174
f 156/156/156 174/174/174 173/173/173
f 157/157/157 158/158/158 175/175/175
f 157/157/157 175/175/175 174/174/174
f 158/158/158 159/159/159 176/176/176
f 158/158/158 176/176/176 175/175/175
f 159/159/159 160/160/160 177/177/177
f 159/159/159 177/177/177 176/176/176
f 160/160/160 161/161/161 178/178/178
f 160/160/160 178/178/178 177/177/177
f 161/161/161 162/162/162 179/179/179
f 161/161/161 179/179/179 178/178/178
f 162/162/162 163/163/163 180/180/180
f 162/162/162 180/180/180 179/179/179
f 163/163/163 164/164/164 181/181/181
f 163/163/163 181/181/181 180/180/180
f 164/164/164 165/165/165 182/182/182
f 164/164/164 182/182/182 181/181/181
f 165/165/165 166/166/166 183/183/183
f 165/165/165 183/183/183 182/182/182
f 166/166/166 167/167/167 184/184/184
f 166/166/166 184/184/184 183/183/183
f 167/167/167 168/168/168 185/185/185
f 167/167/167 185/185/185 184/184/184
f 168/168/168 169/169/169 186/186/186
f 168/168/168 186/186/186 185/185/185
f 169/169/169 170/170/170 187/187/187
f 169/169/169 187/187/187 186/186/186
f 171/172/172 172/171/171 189/188/188
f 171/172/172 189/188/188 188/189/189
f 172/171/171 173/173/173 190/190/190
f 172/171/171 190/190/190 189/188/188
f 173/173/173 174/174/174 191/191/191
f 173/173/173 191/191/191 190/190/190
f 174/174/174 175/175/175 192/192/192
f 174/174/174 192/192/192 191/191/191
f 175/175/175 176/176/176 193/193/193
f 175/175/175 193/193/193 192/192/192
f 176/176/176 177/177/177 194/194/194
f 176/176/176 194/194/194 193/193/193
f 177/177/177 178/178/178 195/195/195
f 177/177/177 195/195/195 194/194/194
f 178/178/178 179/179/179 196/196/196
f 178/178/178 196/196/196 195/195/195
f 179/179/179 180/180/180 197/197/197
f 179/179/179 197/197/197 196/196/196
f 180/180/180 181/181/181 198/198/198
f 180/180/180 198/198/198 197/197/197
f 181/181/181 182/182/182 199/199/199
f 181/181/181 199/199/199 198/198/198
f 182/182/182 183/183/183 200/200/200
f 182/182/182 200/200/200 199/199/199
f 183/183/183 184/184/184 201/201/201
f 183/183/183 201/201/201 200/200/200
f 184/184/184 185/185/185 202/202/202
f 184/184/184 202/202/202 201/201/201
f 185/185/185 186/186/186 203/203/203
f 185/185/185 203/203/203 202/202/202
f 186/186/186 187/187/187 204/204/204
f 186/186/186 204/204/204 203/203/203
f 188/189/189 189/188/188 206/205/205
f 188/189/189 206/205/205 205/206/206
f 189/188/188 190/190/190 207/207/207
f 189/188/188 207/207/207 206/205/205
f 190/190/190 191/191/191 208/208/208
f 190/190/190 208/208/208 207/207/207
f 191/191/191 192/192/192 209/209/209
f 191/191/191 209/209/209 208/208/208
f 192/192/192 193/193/193 210/210/210
f 192/192/192 210/210/210 209/209/209
f 193/193/193 194/194/194 211/211/211
f 193/193/193 211/211/211 210/210/210
f 194/194/194 195/195/195 212/212/212
f 194/194/194 212/212/212 211/211/211
f 195/195/195 196/196/196 213/213/213
f 195/195/195 213/213/213 212/212/212
f 196/196/196 197/197/197 214/214/214
f 196/196/196 214/214/214 213/213/213
f 197/197/197 198/198/198 215/215/215
f 197/197/197 215/215/215 214/214/214
f 198/198/198 199/199/199 216/216/216
f 198/198/198 216/216/216 215/215/215
f 199/199/199 200/200/200 217/217/217
f 199/199/199 217/217/217 216/216/216
f 200/200/200 201/201/201 218/218/218
f 200/200/200 218/218/218 217/217/217
f 201/201/201 202/202/202 219/219/219
f 201/201/201 219/219/219 218/218/218
f 202/202/202 203/203/203 220/220/220
f 202/202/202 220/220/220 219/219/219
f 203/203/203 204/204/204 221/221/221
f 203/203/203 221/221/221 220/220/220
f 205/206/206 206/205/205 223/222/222
f 205/206/206 223/222/222 222/223/223
f 206/205/205 207/207/207 224/224/224
f 206/205/205 224/224/224 223/222/222
f 207/207/207 208/208/208 225/225/225
f 207/207/207 225/225/225 224/224/224
f 208/208/208 209/209/209 226/226/226
f 208/208/208 226/226/226 225/225/225
f 209/209/209 210/210/210 227/227/227
f 209/209/209 227/227/227 226/226/226
f 210/210/210 211/211/211 228/228/228
f 210/210/210 228/228/228 227/227/227
f 211/211/211 212/212/212 229/229/229
f 211/211/211 229/229/229 228/228/228
f 212/212/212 213/213/213 230/230/230
f 212/212/212 230/230/230 229/229/229
f 213/213/213 214/214/214 231/231/231
f 213/213/213 231/231/231 230/230/230
f 214/214/214 215/215/215 232/232/232
f 214/214/214 232/232/232 231/231/231
f 215/215/215 216/216/216 233/233/233
f 215/215/215 233/233/233 232/232/232
f 216/216/216 217/217/217 234/234/234
f 216/216/216 234/234/234 233/233/233
f 217/217/217 218/218/218 235/235/235
f 217/217/217 235/235/235 234/234/234
f 218/218/218 219/219/219 236/236/236
f 218/218/218 236/236/236 235/235/235
f 219/219/219 220/220/220 237/237/237
f 219/219/219 237/237/237 236/236/236
f 220/220/220 221/221/221 238/238/238
f 220/220/220 238/238/238 237/237/237
f 222/223/223 223/222/222 240/239/239
f 222/223/223 240/239/239 239/240/240
f 223/222/222 224/224/224 241/241/241
f 223/222/222 241/241/241 240/239/239
f 224/224/224 225/225/225 242/242/242
f 224/224/224 242/242/242 241/241/241
f 225/225/225 226/226/226 243/243/243
f 225/225/225 243/243/243 242/242/242
f 226/226/226 227/227/227 244/244/244
f 226/226/226 244/244/244 243/243/243
f 227/227/227 228/228/228 245/245/245
f 227/227/227 245/245/245 244/244/244
f 228/228/228 229/229/229 246/246/246
f 228/228/228 246/246/246 245/245/245
f 229/229/229 230/230/230 247/247/247
f 229/229/229 247/247/247 246/246/246
f 230/230/230 231/231/231 248/248/248
f 230/230/230 248/248/248 247/247/247
f 231/231/231 232/232/232 249/249/249
f 231/231/231 249/249/249 248/248/248
f 232/232/232 233/233/233 250/250/250
f 232/232/232 250/250/250 249/249/249
f 233/233/233 234/234/234 251/251/251
f 233/233/233 251/251/251 250/250/250
f 234/234/234 235/235/235 252/252/252
f 234/234/234 252/252/252 251/251/251
f 235/235/235 236/236/236 253/253/253
f 235/235/235 253/253/253 252/252/252
f 236/236/236 237/237/237 254/254/254
f 236/236/236 254/254/254 253/253/253
f 237/237/237 238/238/238 255/255/255
f 237/237/237 255/255/255 254/254/254
f 239/240/240 240/239/239 257/256/256
f 239/240/240 257/256/256 256/257/257
f 240/239/239 241/241/241 258/258/258
f 240/239/239 258/258/258 257/256/256
f 241/241/241 242/242/242 259/259/259
f 241/241/241 259/259/259 258/258/258
f 242/242/242 243/243/243 260/260/260
f 242/242/242 260/260/260 259/259/259
f 243/243/243 244/244/244 261/261/261
f 243/243/243 261/261/261 260/260/260
f 244/244/244 245/245/245 262/262/262
f 244/244/244 262/262/262 261/261/261
f 245/245/245 246/246/246 263/263/263
f 245/245/245 263/263/263 262/262/262
f 246/246/246 247/247/247 264/264/264
f 246/246/246 264/264/264 263/263/263
f 247/247/247 248/248/248 265/265/265
f 247/247/247 265/265/265 264/264/264
f 248/248/248 249/249/249 266/266/266
f 248/248/248 266/266/266 265/265/265
f 249/249/249 250/250/250 267/267/267
f 249/249/249 267/267/267 266/266/266
f 250/250/250 251/251/251 268/268/268
f 250/250/250 268/268/268 267/267/267
f 251/251/251 252/252/252 269/269/269
f 251/251/251 269/269/269 268/268/268
f 252/252/252 253/253/253 270/270/270
f 252/252/252 270/270/270 269/269/269
f 253/253/253 254/254/254 271/271/271
f 253/253/253 271/271/271 270/270/270
f 254/254/254 255/255/255 272/272/272
f 254/254/254 272/272/272 271/271/271
f 256/257/257 257/256/256 274/273/273
f 256/257/257 274/273/273 273/274/274
f 257/256/256 258/258/258 275/275/275
f 257/256/256 275/275/275 274/273/273
f 258/258/258 259/259/259 276/276/276
f 258/258/258 276/276/276 275/275/275
f 259/259/259 260/260/260 277/277/277
f 259/259/259 277/277/277 276/276/276
f 260/260/260 261/261/261 278/278/278
f 260/260/260 278/278/278 277/277/277
f 261/261/261 262/262/262 279/279/279
f 261/261/261 279/279/279 278/278/278
f 262/262/262 263/263/263 280/280/280
f 262/262/262 280/280/280 279/279/279
f 263/263/263 264/264/264 281/281/281
f 263/263/263 281/281/281 280/280/280
f 264/264/264 265/265/265 282/282/282
f 264/264/264 282/282/282 281/281/281
f 265/265/265 266/266/266 283/283/283
f 265/265/265 283/283/283 282/282/282
f 266/266/266 267/267/267 284/284/284
f 266/266/266 284/284/284 283/283/283
f 267/267/267 268/268/268 285/285/285
f 267/267/267 285/285/285 284/284/284
f 268/268/268 269/269/269 286/286/286
f 268/268/268 286/286/286 285/285/285
f 269/269/269 270/270/270 287/287/287
f 269/269/269 287/287/287 286/286/286
f 270/270/270 271/271/271 288/288/288
f 270/270/270 288/288/288 287/287/287
f 271/271/271 272/272/272 289/289/289
f 271/271/271 289/289/289 288/288/288
