mtllib terrain_far_04_02.mtl
usemtl terrain_far_04_02
# Blender 5.1.1
# www.blender.org
o terrain_far_04_02
v -144.000000 -144.000000 -51.353710
v -72.000000 -144.000000 -31.395214
v 0.000000 -144.000000 -11.068982
v 72.000000 -144.000000 0.869739
v 144.000000 -144.000000 -4.156507
v -144.000000 -72.000000 -42.715771
v -72.000000 -72.000000 -23.677197
v 0.000000 -72.000000 3.231250
v 72.000000 -72.000000 19.265369
v 144.000000 -72.000000 17.293873
v -144.000000 0.000000 -22.131908
v -72.000000 0.000000 -13.099561
v 0.000000 0.000000 12.191760
v 72.000000 0.000000 32.455677
v 144.000000 0.000000 33.446461
v -144.000000 72.000000 -18.918774
v -72.000000 72.000000 -10.235486
v 0.000000 72.000000 10.862292
v 72.000000 72.000000 33.595692
v 144.000000 72.000000 42.549427
v -144.000000 144.000000 -18.549389
v -72.000000 144.000000 -23.487438
v 0.000000 144.000000 -4.151929
v 72.000000 144.000000 22.253773
v 144.000000 144.000000 46.926563
vn 0.0032 -0.0747 0.9972
vn -0.2671 -0.1308 0.9547
vn -0.3018 -0.1202 0.9458
vn -0.0878 -0.1981 0.9762
vn -0.2145 -0.1943 0.9572
vn -0.2824 -0.1530 0.9470
vn -0.0464 -0.2526 0.9665
vn -0.0950 -0.2133 0.9724
vn 0.1472 -0.2961 0.9437
vn 0.1676 -0.2491 0.9539
vn -0.2309 -0.0904 0.9688
vn -0.1064 -0.1621 0.9810
vn -0.3012 -0.0505 0.9522
vn -0.1453 -0.0980 0.9845
vn 0.2252 -0.1683 0.9597
vn -0.2020 0.0705 0.9768
vn -0.0312 -0.0248 0.9992
vn -0.2895 0.1079 0.9511
vn -0.2144 0.0690 0.9743
vn 0.2081 -0.0912 0.9738
vn -0.0987 0.1305 0.9865
vn 0.1439 -0.0760 0.9867
vn -0.2945 0.2316 0.9272
vn -0.3291 0.1761 0.9277
vn 0.0358 0.0348 0.9988
vt 0.031250 0.031250
vt 0.265625 0.031250
vt 0.265625 0.265625
vt 0.031250 0.265625
vt 0.500000 0.031250
vt 0.500000 0.265625
vt 0.734375 0.031250
vt 0.734375 0.265625
vt 0.968750 0.031250
vt 0.968750 0.265625
vt 0.265625 0.500000
vt 0.031250 0.500000
vt 0.500000 0.500000
vt 0.734375 0.500000
vt 0.968750 0.500000
vt 0.265625 0.734375
vt 0.031250 0.734375
vt 0.500000 0.734375
vt 0.734375 0.734375
vt 0.968750 0.734375
vt 0.265625 0.968750
vt 0.031250 0.968750
vt 0.500000 0.968750
vt 0.734375 0.968750
vt 0.968750 0.968750
s 1
f 1/1/1 2/2/2 7/3/3
f 1/1/1 7/3/3 6/4/4
f 2/2/2 3/5/5 8/6/6
f 2/2/2 8/6/6 7/3/3
f 3/5/5 4/7/7 9/8/8
f 3/5/5 9/8/8 8/6/6
f 4/7/7 5/9/9 10/10/10
f 4/7/7 10/10/10 9/8/8
f 6/4/4 7/3/3 12/11/11
f 6/4/4 12/11/11 11/12/12
f 7/3/3 8/6/6 13/13/13
f 7/3/3 13/13/13 12/11/11
f 8/6/6 9/8/8 14/14/14
f 8/6/6 14/14/14 13/13/13
f 9/8/8 10/10/10 15/15/15
f 9/8/8 15/15/15 14/14/14
f 11/12/12 12/11/11 17/16/16
f 11/12/12 17/16/16 16/17/17
f 12/11/11 13/13/13 18/18/18
f 12/11/11 18/18/18 17/16/16
f 13/13/13 14/14/14 19/19/19
f 13/13/13 19/19/19 18/18/18
f 14/14/14 15/15/15 20/20/20
f 14/14/14 20/20/20 19/19/19
f 16/17/17 17/16/16 22/21/21
f 16/17/17 22/21/21 21/22/22
f 17/16/16 18/18/18 23/23/23
f 17/16/16 23/23/23 22/21/21
f 18/18/18 19/19/19 24/24/24
f 18/18/18 24/24/24 23/23/23
f 19/19/19 20/20/20 25/25/25
f 19/19/19 25/25/25 24/24/24
