mtllib terrain_mid_07_04.mtl
usemtl terrain_mid_07_04
# Blender 5.1.1
# www.blender.org
o terrain_mid_07_04
v -160.000000 -160.000000 63.949558
v -140.000000 -160.000000 51.551445
v -120.000000 -160.000000 40.240166
v -100.000000 -160.000000 31.021545
v -80.000000 -160.000000 23.519993
v -60.000000 -160.000000 14.820862
v -40.000000 -160.000000 3.484639
v -20.000000 -160.000000 -11.518657
v 0.000000 -160.000000 -27.023098
v 20.000000 -160.000000 -38.922165
v 40.000000 -160.000000 -46.448627
v 60.000000 -160.000000 -49.496147
v 80.000000 -160.000000 -50.072422
v 100.000000 -160.000000 -49.638298
v 120.000000 -160.000000 -48.527973
v 140.000000 -160.000000 -45.649483
v 160.000000 -160.000000 -38.016602
v -160.000000 -140.000000 68.923286
v -140.000000 -140.000000 57.573929
v -120.000000 -140.000000 46.446472
v -100.000000 -140.000000 36.248318
v -80.000000 -140.000000 27.039598
v -60.000000 -140.000000 17.464111
v -40.000000 -140.000000 5.873257
v -20.000000 -140.000000 -8.353841
v 0.000000 -140.000000 -24.015070
v 20.000000 -140.000000 -37.421169
v 40.000000 -140.000000 -44.630474
v 60.000000 -140.000000 -45.768600
v 80.000000 -140.000000 -43.677727
v 100.000000 -140.000000 -41.840706
v 120.000000 -140.000000 -40.702900
v 140.000000 -140.000000 -38.366760
v 160.000000 -140.000000 -32.218712
v -160.000000 -120.000000 71.528641
v -140.000000 -120.000000 61.745056
v -120.000000 -120.000000 51.168648
v -100.000000 -120.000000 40.379803
v -80.000000 -120.000000 29.234144
v -60.000000 -120.000000 18.122084
v -40.000000 -120.000000 6.048889
v -20.000000 -120.000000 -7.908108
v 0.000000 -120.000000 -22.810080
v 20.000000 -120.000000 -35.532654
v 40.000000 -120.000000 -42.511257
v 60.000000 -120.000000 -42.091797
v 80.000000 -120.000000 -37.457596
v 100.000000 -120.000000 -33.329121
v 120.000000 -120.000000 -32.043335
v 140.000000 -120.000000 -31.501764
v 160.000000 -120.000000 -26.801767
v -160.000000 -100.000000 72.756630
v -140.000000 -100.000000 64.292084
v -120.000000 -100.000000 54.844589
v -100.000000 -100.000000 43.978577
v -80.000000 -100.000000 31.620016
v -60.000000 -100.000000 19.027031
v -40.000000 -100.000000 5.603773
v -20.000000 -100.000000 -8.820896
v 0.000000 -100.000000 -23.157810
v 20.000000 -100.000000 -35.269306
v 40.000000 -100.000000 -41.986771
v 60.000000 -100.000000 -40.707169
v 80.000000 -100.000000 -33.983414
v 100.000000 -100.000000 -27.622646
v 120.000000 -100.000000 -25.231581
v 140.000000 -100.000000 -25.129856
v 160.000000 -100.000000 -22.090111
v -160.000000 -80.000000 72.883560
v -140.000000 -80.000000 65.788445
v -120.000000 -80.000000 57.487835
v -100.000000 -80.000000 47.450298
v -80.000000 -80.000000 34.749641
v -60.000000 -80.000000 20.983473
v -40.000000 -80.000000 5.573337
v -20.000000 -80.000000 -10.187901
v 0.000000 -80.000000 -24.513937
v 20.000000 -80.000000 -36.587261
v 40.000000 -80.000000 -43.207363
v 60.000000 -80.000000 -41.683620
v 80.000000 -80.000000 -33.582905
v 100.000000 -80.000000 -25.256098
v 120.000000 -80.000000 -20.526686
v 140.000000 -80.000000 -18.958530
v 160.000000 -80.000000 -17.613552
v -160.000000 -60.000000 71.831474
v -140.000000 -60.000000 65.648529
v -120.000000 -60.000000 58.437180
v -100.000000 -60.000000 49.438450
v -80.000000 -60.000000 37.270828
v -60.000000 -60.000000 23.216274
v -40.000000 -60.000000 6.843099
v -20.000000 -60.000000 -9.263801
v 0.000000 -60.000000 -22.686762
v 20.000000 -60.000000 -33.812119
v 40.000000 -60.000000 -41.390091
v 60.000000 -60.000000 -41.206924
v 80.000000 -60.000000 -32.674397
v 100.000000 -60.000000 -22.557577
v 120.000000 -60.000000 -15.960375
v 140.000000 -60.000000 -13.115370
v 160.000000 -60.000000 -12.837987
v -160.000000 -40.000000 69.370407
v -140.000000 -40.000000 63.740826
v -120.000000 -40.000000 57.040874
v -100.000000 -40.000000 48.668308
v -80.000000 -40.000000 36.927383
v -60.000000 -40.000000 22.877394
v -40.000000 -40.000000 6.655056
v -20.000000 -40.000000 -8.349718
v 0.000000 -40.000000 -20.242702
v 20.000000 -40.000000 -30.194431
v 40.000000 -40.000000 -39.056755
v 60.000000 -40.000000 -40.476120
v 80.000000 -40.000000 -31.608629
v 100.000000 -40.000000 -19.266243
v 120.000000 -40.000000 -10.621976
v 140.000000 -40.000000 -7.415765
v 160.000000 -40.000000 -7.962752
v -160.000000 -20.000000 65.052063
v -140.000000 -20.000000 59.528938
v -120.000000 -20.000000 52.899502
v -100.000000 -20.000000 44.181534
v -80.000000 -20.000000 31.600864
v -60.000000 -20.000000 17.488234
v -40.000000 -20.000000 2.629374
v -20.000000 -20.000000 -9.977139
v 0.000000 -20.000000 -19.268473
v 20.000000 -20.000000 -28.450928
v 40.000000 -20.000000 -37.706463
v 60.000000 -20.000000 -40.313816
v 80.000000 -20.000000 -30.446066
v 100.000000 -20.000000 -15.418322
v 120.000000 -20.000000 -4.565627
v 140.000000 -20.000000 -1.909281
v 160.000000 -20.000000 -2.562545
v -160.000000 0.000000 58.792156
v -140.000000 0.000000 52.977192
v -120.000000 0.000000 45.668003
v -100.000000 0.000000 36.170113
v -80.000000 0.000000 23.114237
v -60.000000 0.000000 9.222107
v -40.000000 0.000000 -4.214003
v -20.000000 0.000000 -15.269742
v 0.000000 0.000000 -23.644125
v 20.000000 0.000000 -31.571032
v 40.000000 0.000000 -37.033585
v 60.000000 0.000000 -37.475689
v 80.000000 0.000000 -27.090969
v 100.000000 0.000000 -11.757012
v 120.000000 0.000000 0.081482
v 140.000000 0.000000 4.061869
v 160.000000 0.000000 3.012654
v -160.000000 20.000000 50.052715
v -140.000000 20.000000 42.908604
v -120.000000 20.000000 34.662090
v -100.000000 20.000000 24.541204
v -80.000000 20.000000 12.247829
v -60.000000 20.000000 -0.416741
v -40.000000 20.000000 -12.185852
v -20.000000 20.000000 -22.327387
v 0.000000 20.000000 -29.840427
v 20.000000 20.000000 -35.045818
v 40.000000 20.000000 -35.214859
v 60.000000 20.000000 -30.782383
v 80.000000 20.000000 -20.644606
v 100.000000 20.000000 -7.100959
v 120.000000 20.000000 4.880276
v 140.000000 20.000000 10.615899
v 160.000000 20.000000 10.575256
v -160.000000 40.000000 37.739861
v -140.000000 40.000000 27.580173
v -120.000000 40.000000 18.515265
v -100.000000 40.000000 9.338427
v -80.000000 40.000000 -0.240587
v -60.000000 40.000000 -10.148295
v -40.000000 40.000000 -20.254652
v -20.000000 40.000000 -29.340549
v 0.000000 40.000000 -33.456448
v 20.000000 40.000000 -33.303116
v 40.000000 40.000000 -28.098213
v 60.000000 40.000000 -20.548611
v 80.000000 40.000000 -10.925083
v 100.000000 40.000000 -0.221334
v 120.000000 40.000000 10.433492
v 140.000000 40.000000 17.903713
v 160.000000 40.000000 18.800327
v -160.000000 60.000000 23.205004
v -140.000000 60.000000 9.262166
v -120.000000 60.000000 -1.101746
v -100.000000 60.000000 -8.727227
v -80.000000 60.000000 -14.222364
v -60.000000 60.000000 -19.192492
v -40.000000 60.000000 -26.461840
v -20.000000 60.000000 -32.712734
v 0.000000 60.000000 -32.356087
v 20.000000 60.000000 -26.755480
v 40.000000 60.000000 -18.608704
v 60.000000 60.000000 -9.575487
v 80.000000 60.000000 -0.754503
v 100.000000 60.000000 8.081896
v 120.000000 60.000000 17.089817
v 140.000000 60.000000 24.625956
v 160.000000 60.000000 26.367380
v -160.000000 80.000000 7.042847
v -140.000000 80.000000 -9.067736
v -120.000000 80.000000 -20.011374
v -100.000000 80.000000 -25.391710
v -80.000000 80.000000 -26.150595
v -60.000000 80.000000 -27.285448
v -40.000000 80.000000 -30.549072
v -20.000000 80.000000 -32.487713
v 0.000000 80.000000 -26.921671
v 20.000000 80.000000 -17.938463
v 40.000000 80.000000 -8.198805
v 60.000000 80.000000 1.015198
v 80.000000 80.000000 9.281087
v 100.000000 80.000000 16.974358
v 120.000000 80.000000 24.204834
v 140.000000 80.000000 30.612148
v 160.000000 80.000000 33.715096
v -160.000000 100.000000 -7.651950
v -140.000000 100.000000 -21.930677
v -120.000000 100.000000 -28.502375
v -100.000000 100.000000 -31.323412
v -80.000000 100.000000 -31.623806
v -60.000000 100.000000 -31.835382
v -40.000000 100.000000 -32.531380
v -20.000000 100.000000 -30.021540
v 0.000000 100.000000 -20.974745
v 20.000000 100.000000 -9.794373
v 40.000000 100.000000 1.726366
v 60.000000 100.000000 11.032457
v 80.000000 100.000000 18.386950
v 100.000000 100.000000 25.036154
v 120.000000 100.000000 30.923685
v 140.000000 100.000000 36.216595
v 160.000000 100.000000 39.576763
v -160.000000 120.000000 -17.726847
v -140.000000 120.000000 -28.506775
v -120.000000 120.000000 -30.490051
v -100.000000 120.000000 -30.279812
v -80.000000 120.000000 -30.313158
v -60.000000 120.000000 -30.184591
v -40.000000 120.000000 -28.578505
v -20.000000 120.000000 -23.234945
v 0.000000 120.000000 -12.138604
v 20.000000 120.000000 0.099297
v 40.000000 120.000000 11.646267
v 60.000000 120.000000 20.055155
v 80.000000 120.000000 26.510748
v 100.000000 120.000000 32.178005
v 120.000000 120.000000 36.725082
v 140.000000 120.000000 40.905518
v 160.000000 120.000000 44.943089
v -160.000000 140.000000 -21.093493
v -140.000000 140.000000 -28.835871
v -120.000000 140.000000 -27.111118
v -100.000000 140.000000 -24.373318
v -80.000000 140.000000 -22.898010
v -60.000000 140.000000 -21.395473
v -40.000000 140.000000 -18.083212
v -20.000000 140.000000 -11.526103
v 0.000000 140.000000 -0.614414
v 20.000000 140.000000 11.358500
v 40.000000 140.000000 21.084473
v 60.000000 140.000000 28.072571
v 80.000000 140.000000 33.765083
v 100.000000 140.000000 38.772610
v 120.000000 140.000000 42.082710
v 140.000000 140.000000 45.396763
v 160.000000 140.000000 50.333416
v -160.000000 160.000000 -21.061367
v -140.000000 160.000000 -27.157240
v -120.000000 160.000000 -23.211277
v -100.000000 160.000000 -17.758999
v -80.000000 160.000000 -13.396214
v -60.000000 160.000000 -9.450812
v -40.000000 160.000000 -4.398499
v -20.000000 160.000000 2.462579
v 0.000000 160.000000 11.371514
v 20.000000 160.000000 20.728394
v 40.000000 160.000000 28.353325
v 60.000000 160.000000 34.842720
v 80.000000 160.000000 40.534248
v 100.000000 160.000000 44.967754
v 120.000000 160.000000 47.636154
v 140.000000 160.000000 50.765415
v 160.000000 160.000000 55.731743
vn 0.4878 -0.2601 0.8333
vn 0.4910 -0.2697 0.8284
vn 0.4782 -0.2169 0.8510
vn 0.4570 -0.1656 0.8739
vn 0.4399 -0.2685 0.8570
vn 0.4573 -0.2344 0.8578
vn 0.3749 -0.2352 0.8968
vn 0.4272 -0.2060 0.8804
vn 0.3693 -0.1791 0.9119
vn 0.4215 -0.1283 0.8977
vn 0.4427 -0.1508 0.8839
vn 0.4665 -0.0728 0.8815
vn 0.5449 -0.1352 0.8275
vn 0.5415 -0.0538 0.8390
vn 0.6019 -0.1217 0.7892
vn 0.5969 -0.0720 0.7991
vn 0.5632 -0.0845 0.8220
vn 0.5857 -0.0849 0.8060
vn 0.4368 -0.0163 0.8994
vn 0.4568 -0.0751 0.8864
vn 0.2553 -0.0422 0.9659
vn 0.2033 -0.0959 0.9744
vn 0.0895 -0.1294 0.9875
vn -0.0234 -0.1820 0.9830
vn 0.0035 -0.2310 0.9729
vn -0.0932 -0.2995 0.9495
vn -0.0369 -0.2896 0.9564
vn -0.0687 -0.3767 0.9238
vn -0.0946 -0.3021 0.9486
vn -0.0800 -0.3799 0.9216
vn -0.2349 -0.3035 0.9234
vn -0.2176 -0.3255 0.9202
vn -0.3666 -0.3177 0.8744
vn -0.3523 -0.2545 0.9006
vn 0.4486 -0.1480 0.8814
vn 0.4087 -0.0871 0.9085
vn 0.4632 -0.1821 0.8673
vn 0.4741 -0.1671 0.8645
vn 0.4838 -0.0996 0.8695
vn 0.5012 -0.0338 0.8647
vn 0.5453 0.0056 0.8382
vn 0.5851 0.0095 0.8109
vn 0.5682 -0.0175 0.8227
vn 0.4413 -0.0482 0.8960
vn 0.1615 -0.0651 0.9847
vn -0.1244 -0.1246 0.9844
vn -0.2082 -0.2304 0.9506
vn -0.1265 -0.3322 0.9347
vn -0.0426 -0.3604 0.9318
vn -0.1177 -0.3120 0.9428
vn -0.2979 -0.1982 0.9338
vn 0.4070 -0.0918 0.9088
vn 0.3591 -0.0316 0.9328
vn 0.4484 -0.1394 0.8829
vn 0.4964 -0.1510 0.8549
vn 0.5257 -0.1161 0.8427
vn 0.5443 -0.0598 0.8368
vn 0.5714 0.0098 0.8206
vn 0.5831 0.0462 0.8111
vn 0.5512 0.0355 0.8336
vn 0.4258 0.0239 0.9045
vn 0.1347 0.0172 0.9907
vn -0.1962 -0.0100 0.9805
vn -0.3094 -0.0915 0.9465
vn -0.2096 -0.1936 0.9584
vn -0.0598 -0.2762 0.9592
vn -0.0591 -0.2987 0.9525
vn -0.2075 -0.2115 0.9551
vn 0.3590 -0.0316 0.9328
vn 0.3112 0.0220 0.9501
vn 0.4154 -0.0813 0.9060
vn 0.4907 -0.1178 0.8633
vn 0.5480 -0.1170 0.8283
vn 0.5872 -0.0843 0.8051
vn 0.6145 -0.0244 0.7885
vn 0.6011 0.0088 0.7991
vn 0.5508 -0.0098 0.8346
vn 0.4232 -0.0330 0.9055
vn 0.1264 -0.0148 0.9919
vn -0.2339 0.0121 0.9722
vn -0.3797 -0.0303 0.9246
vn -0.3081 -0.1195 0.9438
vn -0.1516 -0.2232 0.9629
vn -0.0559 -0.2872 0.9562
vn -0.1010 -0.2379 0.9660
vn 0.3172 0.0485 0.9471
vn 0.2761 0.0841 0.9574
vn 0.3756 0.0104 0.9267
vn 0.4675 -0.0269 0.8836
vn 0.5477 -0.0455 0.8354
vn 0.6050 -0.0377 0.7954
vn 0.6302 -0.0210 0.7761
vn 0.5935 -0.0369 0.8040
vn 0.5209 -0.0906 0.8488
vn 0.4192 -0.1433 0.8965
vn 0.1808 -0.1015 0.9783
vn -0.2128 -0.0295 0.9767
vn -0.4221 -0.0447 0.9054
vn -0.3819 -0.1369 0.9140
vn -0.2233 -0.2343 0.9462
vn -0.0733 -0.2765 0.9582
vn -0.0541 -0.2486 0.9671
vn 0.2915 0.1446 0.9456
vn 0.2532 0.1617 0.9538
vn 0.3497 0.1285 0.9280
vn 0.4462 0.1166 0.8873
vn 0.5381 0.1184 0.8345
vn 0.5996 0.1134 0.7922
vn 0.6132 0.0827 0.7856
vn 0.5579 0.0148 0.8298
vn 0.4780 -0.0748 0.8752
vn 0.4225 -0.1204 0.8983
vn 0.2480 -0.0888 0.9647
vn -0.1830 -0.0220 0.9829
vn -0.4679 -0.0492 0.8824
vn -0.4589 -0.1561 0.8747
vn -0.2740 -0.2635 0.9249
vn -0.0652 -0.2692 0.9609
vn -0.0003 -0.2264 0.9740
vn 0.2815 0.2493 0.9266
vn 0.2476 0.2477 0.9367
vn 0.3463 0.2566 0.9024
vn 0.4531 0.2659 0.8509
vn 0.5335 0.2761 0.7995
vn 0.5654 0.2665 0.7806
vn 0.5523 0.2185 0.8045
vn 0.4748 0.1500 0.8672
vn 0.4180 0.0770 0.9052
vn 0.4184 0.0312 0.9077
vn 0.2840 -0.0484 0.9576
vn -0.1781 -0.0736 0.9813
vn -0.5260 -0.0955 0.8451
vn -0.5366 -0.1557 0.8294
vn -0.3102 -0.2457 0.9184
vn -0.0231 -0.2757 0.9610
vn 0.0689 -0.2529 0.9650
vn 0.2899 0.3672 0.8838
vn 0.2534 0.3397 0.9058
vn 0.3571 0.3875 0.8499
vn 0.4516 0.3933 0.8009
vn 0.5185 0.3724 0.7697
vn 0.5292 0.3467 0.7745
vn 0.4979 0.3012 0.8132
vn 0.4210 0.2676 0.8667
vn 0.3666 0.2377 0.8995
vn 0.3136 0.1545 0.9369
vn 0.1457 -0.0615 0.9874
vn -0.2350 -0.2253 0.9455
vn -0.5297 -0.2019 0.8238
vn -0.5538 -0.1695 0.8152
vn -0.3592 -0.2145 0.9083
vn -0.0595 -0.2983 0.9526
vn 0.0931 -0.3256 0.9409
vn 0.3089 0.5098 0.8029
vn 0.2858 0.4463 0.8480
vn 0.3551 0.5250 0.7735
vn 0.4219 0.5050 0.7530
vn 0.4743 0.4439 0.7602
vn 0.4817 0.3819 0.7887
vn 0.4532 0.3319 0.8273
vn 0.3844 0.3063 0.8709
vn 0.2951 0.2276 0.9280
vn 0.1330 0.0429 0.9902
vn -0.1034 -0.2168 0.9707
vn -0.3180 -0.3695 0.8731
vn -0.4812 -0.3285 0.8128
vn -0.5227 -0.2363 0.8191
vn -0.3941 -0.2303 0.8898
vn -0.1256 -0.3244 0.9375
vn 0.0718 -0.3830 0.9210
vn 0.3452 0.6041 0.7182
vn 0.3731 0.5171 0.7703
vn 0.3219 0.6311 0.7058
vn 0.3391 0.6015 0.7233
vn 0.3764 0.5113 0.7726
vn 0.4125 0.3870 0.8246
vn 0.4118 0.3063 0.8583
vn 0.3043 0.2394 0.9220
vn 0.0984 0.0625 0.9932
vn -0.1300 -0.2012 0.9709
vn -0.2826 -0.3677 0.8860
vn -0.3547 -0.4380 0.8261
vn -0.4141 -0.4053 0.8150
vn -0.4467 -0.3175 0.8365
vn -0.3976 -0.2679 0.8776
vn -0.2028 -0.3237 0.9242
vn 0.0168 -0.3922 0.9197
vn 0.4089 0.6165 0.6729
vn 0.4640 0.5393 0.7028
vn 0.3081 0.6600 0.6852
vn 0.2404 0.6364 0.7329
vn 0.2145 0.5310 0.8198
vn 0.2708 0.3791 0.8848
vn 0.3111 0.2369 0.9204
vn 0.1453 0.0776 0.9863
vn -0.1454 -0.1595 0.9764
vn -0.3054 -0.3415 0.8889
vn -0.3589 -0.4158 0.8357
vn -0.3656 -0.4417 0.8193
vn -0.3665 -0.4194 0.8305
vn -0.3791 -0.3654 0.8502
vn -0.3642 -0.3032 0.8806
vn -0.2363 -0.2942 0.9261
vn -0.0410 -0.3554 0.9338
vn 0.4706 0.5426 0.6958
vn 0.5349 0.5160 0.6690
vn 0.3191 0.5356 0.7819
vn 0.1325 0.4875 0.8630
vn 0.0434 0.3985 0.9161
vn 0.1043 0.2997 0.9483
vn 0.1275 0.1488 0.9806
vn -0.0901 -0.0669 0.9937
vn -0.3302 -0.2583 0.9079
vn -0.3957 -0.3586 0.8455
vn -0.3891 -0.4175 0.8212
vn -0.3621 -0.4269 0.8286
vn -0.3387 -0.4061 0.8487
vn -0.3249 -0.3691 0.8707
vn -0.3067 -0.3111 0.8995
vn -0.2385 -0.2703 0.9328
vn -0.0991 -0.3104 0.9454
vn 0.4245 0.3958 0.8144
vn 0.5570 0.4372 0.7061
vn 0.2215 0.2471 0.9433
vn 0.0772 0.1209 0.9897
vn 0.0127 0.1035 0.9945
vn 0.0226 0.0723 0.9971
vn -0.0452 -0.0491 0.9978
vn -0.2709 -0.2169 0.9378
vn -0.4286 -0.3132 0.8475
vn -0.4595 -0.3651 0.8097
vn -0.4227 -0.4028 0.8119
vn -0.3520 -0.4023 0.8452
vn -0.3061 -0.3766 0.8743
vn -0.2812 -0.3409 0.8971
vn -0.2578 -0.2887 0.9221
vn -0.2242 -0.2429 0.9438
vn -0.1369 -0.2585 0.9562
vn 0.2999 0.1623 0.9401
vn 0.5410 0.2679 0.7972
vn 0.0442 -0.0347 0.9984
vn -0.0044 -0.1712 0.9852
vn -0.0023 -0.2131 0.9770
vn -0.0419 -0.2523 0.9667
vn -0.1613 -0.3353 0.9282
vn -0.3495 -0.3932 0.8504
vn -0.4613 -0.4025 0.7907
vn -0.4653 -0.4138 0.7825
vn -0.4096 -0.3974 0.8211
vn -0.3235 -0.3709 0.8705
vn -0.2722 -0.3453 0.8981
vn -0.2347 -0.3157 0.9194
vn -0.2057 -0.2630 0.9426
vn -0.2033 -0.2190 0.9543
vn -0.1856 -0.2266 0.9561
vn 0.1487 -0.0333 0.9883
vn 0.4680 0.0734 0.8806
vn -0.1090 -0.1781 0.9780
vn -0.1000 -0.2972 0.9496
vn -0.0684 -0.3886 0.9189
vn -0.1063 -0.4576 0.8828
vn -0.2066 -0.5061 0.8373
vn -0.3449 -0.5073 0.7897
vn -0.4423 -0.4545 0.7732
vn -0.4343 -0.4129 0.8006
vn -0.3598 -0.3596 0.8610
vn -0.2850 -0.3324 0.8991
vn -0.2448 -0.3209 0.9149
vn -0.1943 -0.2988 0.9343
vn -0.1578 -0.2599 0.9527
vn -0.1866 -0.2351 0.9539
vn -0.2180 -0.2409 0.9458
vn 0.0535 -0.0823 0.9952
vn 0.4210 -0.0339 0.9064
vn -0.2263 -0.1452 0.9632
vn -0.2295 -0.2695 0.9353
vn -0.1867 -0.3971 0.8986
vn -0.1921 -0.4837 0.8539
vn -0.2440 -0.5191 0.8192
vn -0.3163 -0.5061 0.8024
vn -0.3740 -0.4350 0.8191
vn -0.3656 -0.3530 0.8612
vn -0.3172 -0.3019 0.8990
vn -0.2783 -0.2953 0.9140
vn -0.2339 -0.3023 0.9241
vn -0.1670 -0.2950 0.9408
vn -0.1376 -0.2816 0.9496
vn -0.1839 -0.2765 0.9433
vn -0.2276 -0.2770 0.9335
vt 0.015625 0.015625
vt 0.076172 0.015625
vt 0.076172 0.076172
vt 0.015625 0.076172
vt 0.136719 0.015625
vt 0.136719 0.076172
vt 0.197266 0.015625
vt 0.197266 0.076172
vt 0.257812 0.015625
vt 0.257812 0.076172
vt 0.318359 0.015625
vt 0.318359 0.076172
vt 0.378906 0.015625
vt 0.378906 0.076172
vt 0.439453 0.015625
vt 0.439453 0.076172
vt 0.500000 0.015625
vt 0.500000 0.076172
vt 0.560547 0.015625
vt 0.560547 0.076172
vt 0.621094 0.015625
vt 0.621094 0.076172
vt 0.681641 0.015625
vt 0.681641 0.076172
vt 0.742188 0.015625
vt 0.742188 0.076172
vt 0.802734 0.015625
vt 0.802734 0.076172
vt 0.863281 0.015625
vt 0.863281 0.076172
vt 0.923828 0.015625
vt 0.923828 0.076172
vt 0.984375 0.015625
vt 0.984375 0.076172
vt 0.076172 0.136719
vt 0.015625 0.136719
vt 0.136719 0.136719
vt 0.197266 0.136719
vt 0.257812 0.136719
vt 0.318359 0.136719
vt 0.378906 0.136719
vt 0.439453 0.136719
vt 0.500000 0.136719
vt 0.560547 0.136719
vt 0.621094 0.136719
vt 0.681641 0.136719
vt 0.742188 0.136719
vt 0.802734 0.136719
vt 0.863281 0.136719
vt 0.923828 0.136719
vt 0.984375 0.136719
vt 0.076172 0.197266
vt 0.015625 0.197266
vt 0.136719 0.197266
vt 0.197266 0.197266
vt 0.257812 0.197266
vt 0.318359 0.197266
vt 0.378906 0.197266
vt 0.439453 0.197266
vt 0.500000 0.197266
vt 0.560547 0.197266
vt 0.621094 0.197266
vt 0.681641 0.197266
vt 0.742188 0.197266
vt 0.802734 0.197266
vt 0.863281 0.197266
vt 0.923828 0.197266
vt 0.984375 0.197266
vt 0.076172 0.257812
vt 0.015625 0.257812
vt 0.136719 0.257812
vt 0.197266 0.257812
vt 0.257812 0.257812
vt 0.318359 0.257812
vt 0.378906 0.257812
vt 0.439453 0.257812
vt 0.500000 0.257812
vt 0.560547 0.257812
vt 0.621094 0.257812
vt 0.681641 0.257812
vt 0.742188 0.257812
vt 0.802734 0.257812
vt 0.863281 0.257812
vt 0.923828 0.257812
vt 0.984375 0.257812
vt 0.076172 0.318359
vt 0.015625 0.318359
vt 0.136719 0.318359
vt 0.197266 0.318359
vt 0.257812 0.318359
vt 0.318359 0.318359
vt 0.378906 0.318359
vt 0.439453 0.318359
vt 0.500000 0.318359
vt 0.560547 0.318359
vt 0.621094 0.318359
vt 0.681641 0.318359
vt 0.742188 0.318359
vt 0.802734 0.318359
vt 0.863281 0.318359
vt 0.923828 0.318359
vt 0.984375 0.318359
vt 0.076172 0.378906
vt 0.015625 0.378906
vt 0.136719 0.378906
vt 0.197266 0.378906
vt 0.257812 0.378906
vt 0.318359 0.378906
vt 0.378906 0.378906
vt 0.439453 0.378906
vt 0.500000 0.378906
vt 0.560547 0.378906
vt 0.621094 0.378906
vt 0.681641 0.378906
vt 0.742188 0.378906
vt 0.802734 0.378906
vt 0.863281 0.378906
vt 0.923828 0.378906
vt 0.984375 0.378906
vt 0.076172 0.439453
vt 0.015625 0.439453
vt 0.136719 0.439453
vt 0.197266 0.439453
vt 0.257812 0.439453
vt 0.318359 0.439453
vt 0.378906 0.439453
vt 0.439453 0.439453
vt 0.500000 0.439453
vt 0.560547 0.439453
vt 0.621094 0.439453
vt 0.681641 0.439453
vt 0.742188 0.439453
vt 0.802734 0.439453
vt 0.863281 0.439453
vt 0.923828 0.439453
vt 0.984375 0.439453
vt 0.076172 0.500000
vt 0.015625 0.500000
vt 0.136719 0.500000
vt 0.197266 0.500000
vt 0.257812 0.500000
vt 0.318359 0.500000
vt 0.378906 0.500000
vt 0.439453 0.500000
vt 0.500000 0.500000
vt 0.560547 0.500000
vt 0.621094 0.500000
vt 0.681641 0.500000
vt 0.742188 0.500000
vt 0.802734 0.500000
vt 0.863281 0.500000
vt 0.923828 0.500000
vt 0.984375 0.500000
vt 0.076172 0.560547
vt 0.015625 0.560547
vt 0.136719 0.560547
vt 0.197266 0.560547
vt 0.257812 0.560547
vt 0.318359 0.560547
vt 0.378906 0.560547
vt 0.439453 0.560547
vt 0.500000 0.560547
vt 0.560547 0.560547
vt 0.621094 0.560547
vt 0.681641 0.560547
vt 0.742188 0.560547
vt 0.802734 0.560547
vt 0.863281 0.560547
vt 0.923828 0.560547
vt 0.984375 0.560547
vt 0.076172 0.621094
vt 0.015625 0.621094
vt 0.136719 0.621094
vt 0.197266 0.621094
vt 0.257812 0.621094
vt 0.318359 0.621094
vt 0.378906 0.621094
vt 0.439453 0.621094
vt 0.500000 0.621094
vt 0.560547 0.621094
vt 0.621094 0.621094
vt 0.681641 0.621094
vt 0.742188 0.621094
vt 0.802734 0.621094
vt 0.863281 0.621094
vt 0.923828 0.621094
vt 0.984375 0.621094
vt 0.076172 0.681641
vt 0.015625 0.681641
vt 0.136719 0.681641
vt 0.197266 0.681641
vt 0.257812 0.681641
vt 0.318359 0.681641
vt 0.378906 0.681641
vt 0.439453 0.681641
vt 0.500000 0.681641
vt 0.560547 0.681641
vt 0.621094 0.681641
vt 0.681641 0.681641
vt 0.742188 0.681641
vt 0.802734 0.681641
vt 0.863281 0.681641
vt 0.923828 0.681641
vt 0.984375 0.681641
vt 0.076172 0.742188
vt 0.015625 0.742188
vt 0.136719 0.742188
vt 0.197266 0.742188
vt 0.257812 0.742188
vt 0.318359 0.742188
vt 0.378906 0.742188
vt 0.439453 0.742188
vt 0.500000 0.742188
vt 0.560547 0.742188
vt 0.621094 0.742188
vt 0.681641 0.742188
vt 0.742188 0.742188
vt 0.802734 0.742188
vt 0.863281 0.742188
vt 0.923828 0.742188
vt 0.984375 0.742188
vt 0.076172 0.802734
vt 0.015625 0.802734
vt 0.136719 0.802734
vt 0.197266 0.802734
vt 0.257812 0.802734
vt 0.318359 0.802734
vt 0.378906 0.802734
vt 0.439453 0.802734
vt 0.500000 0.802734
vt 0.560547 0.802734
vt 0.621094 0.802734
vt 0.681641 0.802734
vt 0.742188 0.802734
vt 0.802734 0.802734
vt 0.863281 0.802734
vt 0.923828 0.802734
vt 0.984375 0.802734
vt 0.076172 0.863281
vt 0.015625 0.863281
vt 0.136719 0.863281
vt 0.197266 0.863281
vt 0.257812 0.863281
vt 0.318359 0.863281
vt 0.378906 0.863281
vt 0.439453 0.863281
vt 0.500000 0.863281
vt 0.560547 0.863281
vt 0.621094 0.863281
vt 0.681641 0.863281
vt 0.742188 0.863281
vt 0.802734 0.863281
vt 0.863281 0.863281
vt 0.923828 0.863281
vt 0.984375 0.863281
vt 0.076172 0.923828
vt 0.015625 0.923828
vt 0.136719 0.923828
vt 0.197266 0.923828
vt 0.257812 0.923828
vt 0.318359 0.923828
vt 0.378906 0.923828
vt 0.439453 0.923828
vt 0.500000 0.923828
vt 0.560547 0.923828
vt 0.621094 0.923828
vt 0.681641 0.923828
vt 0.742188 0.923828
vt 0.802734 0.923828
vt 0.863281 0.923828
vt 0.923828 0.923828
vt 0.984375 0.923828
vt 0.076172 0.984375
vt 0.015625 0.984375
vt 0.136719 0.984375
vt 0.197266 0.984375
vt 0.257812 0.984375
vt 0.318359 0.984375
vt 0.378906 0.984375
vt 0.439453 0.984375
vt 0.500000 0.984375
vt 0.560547 0.984375
vt 0.621094 0.984375
vt 0.681641 0.984375
vt 0.742188 0.984375
vt 0.802734 0.984375
vt 0.863281 0.984375
vt 0.923828 0.984375
vt 0.984375 0.984375
s 1
f 1/1/1 2/2/2 19/3/3
f 1/1/1 19/3/3 18/4/4
f 2/2/2 3/5/5 20/6/6
f 2/2/2 20/6/6 19/3/3
f 3/5/5 4/7/7 21/8/8
f 3/5/5 21/8/8 20/6/6
f 4/7/7 5/9/9 22/10/10
f 4/7/7 22/10/10 21/8/8
f 5/9/9 6/11/11 23/12/12
f 5/9/9 23/12/12 22/10/10
f 6/11/11 7/13/13 24/14/14
f 6/11/11 24/14/14 23/12/12
f 7/13/13 8/15/15 25/16/16
f 7/13/13 25/16/16 24/14/14
f 8/15/15 9/17/17 26/18/18
f 8/15/15 26/18/18 25/16/16
f 9/17/17 10/19/19 27/20/20
f 9/17/17 27/20/20 26/18/18
f 10/19/19 11/21/21 28/22/22
f 10/19/19 28/22/22 27/20/20
f 11/21/21 12/23/23 29/24/24
f 11/21/21 29/24/24 28/22/22
f 12/23/23 13/25/25 30/26/26
f 12/23/23 30/26/26 29/24/24
f 13/25/25 14/27/27 31/28/28
f 13/25/25 31/28/28 30/26/26
f 14/27/27 15/29/29 32/30/30
f 14/27/27 32/30/30 31/28/28
f 15/29/29 16/31/31 33/32/32
f 15/29/29 33/32/32 32/30/30
f 16/31/31 17/33/33 34/34/34
f 16/31/31 34/34/34 33/32/32
f 18/4/4 19/3/3 36/35/35
f 18/4/4 36/35/35 35/36/36
f 19/3/3 20/6/6 37/37/37
f 19/3/3 37/37/37 36/35/35
f 20/6/6 21/8/8 38/38/38
f 20/6/6 38/38/38 37/37/37
f 21/8/8 22/10/10 39/39/39
f 21/8/8 39/39/39 38/38/38
f 22/10/10 23/12/12 40/40/40
f 22/10/10 40/40/40 39/39/39
f 23/12/12 24/14/14 41/41/41
f 23/12/12 41/41/41 40/40/40
f 24/14/14 25/16/16 42/42/42
f 24/14/14 42/42/42 41/41/41
f 25/16/16 26/18/18 43/43/43
f 25/16/16 43/43/43 42/42/42
f 26/18/18 27/20/20 44/44/44
f 26/18/18 44/44/44 43/43/43
f 27/20/20 28/22/22 45/45/45
f 27/20/20 45/45/45 44/44/44
f 28/22/22 29/24/24 46/46/46
f 28/22/22 46/46/46 45/45/45
f 29/24/24 30/26/26 47/47/47
f 29/24/24 47/47/47 46/46/46
f 30/26/26 31/28/28 48/48/48
f 30/26/26 48/48/48 47/47/47
f 31/28/28 32/30/30 49/49/49
f 31/28/28 49/49/49 48/48/48
f 32/30/30 33/32/32 50/50/50
f 32/30/30 50/50/50 49/49/49
f 33/32/32 34/34/34 51/51/51
f 33/32/32 51/51/51 50/50/50
f 35/36/36 36/35/35 53/52/52
f 35/36/36 53/52/52 52/53/53
f 36/35/35 37/37/37 54/54/54
f 36/35/35 54/54/54 53/52/52
f 37/37/37 38/38/38 55/55/55
f 37/37/37 55/55/55 54/54/54
f 38/38/38 39/39/39 56/56/56
f 38/38/38 56/56/56 55/55/55
f 39/39/39 40/40/40 57/57/57
f 39/39/39 57/57/57 56/56/56
f 40/40/40 41/41/41 58/58/58
f 40/40/40 58/58/58 57/57/57
f 41/41/41 42/42/42 59/59/59
f 41/41/41 59/59/59 58/58/58
f 42/42/42 43/43/43 60/60/60
f 42/42/42 60/60/60 59/59/59
f 43/43/43 44/44/44 61/61/61
f 43/43/43 61/61/61 60/60/60
f 44/44/44 45/45/45 62/62/62
f 44/44/44 62/62/62 61/61/61
f 45/45/45 46/46/46 63/63/63
f 45/45/45 63/63/63 62/62/62
f 46/46/46 47/47/47 64/64/64
f 46/46/46 64/64/64 63/63/63
f 47/47/47 48/48/48 65/65/65
f 47/47/47 65/65/65 64/64/64
f 48/48/48 49/49/49 66/66/66
f 48/48/48 66/66/66 65/65/65
f 49/49/49 50/50/50 67/67/67
f 49/49/49 67/67/67 66/66/66
f 50/50/50 51/51/51 68/68/68
f 50/50/50 68/68/68 67/67/67
f 52/53/53 53/52/52 70/69/69
f 52/53/53 70/69/69 69/70/70
f 53/52/52 54/54/54 71/71/71
f 53/52/52 71/71/71 70/69/69
f 54/54/54 55/55/55 72/72/72
f 54/54/54 72/72/72 71/71/71
f 55/55/55 56/56/56 73/73/73
f 55/55/55 73/73/73 72/72/72
f 56/56/56 57/57/57 74/74/74
f 56/56/56 74/74/74 73/73/73
f 57/57/57 58/58/58 75/75/75
f 57/57/57 75/75/75 74/74/74
f 58/58/58 59/59/59 76/76/76
f 58/58/58 76/76/76 75/75/75
f 59/59/59 60/60/60 77/77/77
f 59/59/59 77/77/77 76/76/76
f 60/60/60 61/61/61 78/78/78
f 60/60/60 78/78/78 77/77/77
f 61/61/61 62/62/62 79/79/79
f 61/61/61 79/79/79 78/78/78
f 62/62/62 63/63/63 80/80/80
f 62/62/62 80/80/80 79/79/79
f 63/63/63 64/64/64 81/81/81
f 63/63/63 81/81/81 80/80/80
f 64/64/64 65/65/65 82/82/82
f 64/64/64 82/82/82 81/81/81
f 65/65/65 66/66/66 83/83/83
f 65/65/65 83/83/83 82/82/82
f 66/66/66 67/67/67 84/84/84
f 66/66/66 84/84/84 83/83/83
f 67/67/67 68/68/68 85/85/85
f 67/67/67 85/85/85 84/84/84
f 69/70/70 70/69/69 87/86/86
f 69/70/70 87/86/86 86/87/87
f 70/69/69 71/71/71 88/88/88
f 70/69/69 88/88/88 87/86/86
f 71/71/71 72/72/72 89/89/89
f 71/71/71 89/89/89 88/88/88
f 72/72/72 73/73/73 90/90/90
f 72/72/72 90/90/90 89/89/89
f 73/73/73 74/74/74 91/91/91
f 73/73/73 91/91/91 90/90/90
f 74/74/74 75/75/75 92/92/92
f 74/74/74 92/92/92 91/91/91
f 75/75/75 76/76/76 93/93/93
f 75/75/75 93/93/93 92/92/92
f 76/76/76 77/77/77 94/94/94
f 76/76/76 94/94/94 93/93/93
f 77/77/77 78/78/78 95/95/95
f 77/77/77 95/95/95 94/94/94
f 78/78/78 79/79/79 96/96/96
f 78/78/78 96/96/96 95/95/95
f 79/79/79 80/80/80 97/97/97
f 79/79/79 97/97/97 96/96/96
f 80/80/80 81/81/81 98/98/98
f 80/80/80 98/98/98 97/97/97
f 81/81/81 82/82/82 99/99/99
f 81/81/81 99/99/99 98/98/98
f 82/82/82 83/83/83 100/100/100
f 82/82/82 100/100/100 99/99/99
f 83/83/83 84/84/84 101/101/101
f 83/83/83 101/101/101 100/100/100
f 84/84/84 85/85/85 102/102/102
f 84/84/84 102/102/102 101/101/101
f 86/87/87 87/86/86 104/103/103
f 86/87/87 104/103/103 103/104/104
f 87/86/86 88/88/88 105/105/105
f 87/86/86 105/105/105 104/103/103
f 88/88/88 89/89/89 106/106/106
f 88/88/88 106/106/106 105/105/105
f 89/89/89 90/90/90 107/107/107
f 89/89/89 107/107/107 106/106/106
f 90/90/90 91/91/91 108/108/108
f 90/90/90 108/108/108 107/107/107
f 91/91/91 92/92/92 109/109/109
f 91/91/91 109/109/109 108/108/108
f 92/92/92 93/93/93 110/110/110
f 92/92/92 110/110/110 109/109/109
f 93/93/93 94/94/94 111/111/111
f 93/93/93 111/111/111 110/110/110
f 94/94/94 95/95/95 112/112/112
f 94/94/94 112/112/112 111/111/111
f 95/95/95 96/96/96 113/113/113
f 95/95/95 113/113/113 112/112/112
f 96/96/96 97/97/97 114/114/114
f 96/96/96 114/114/114 113/113/113
f 97/97/97 98/98/98 115/115/115
f 97/97/97 115/115/115 114/114/114
f 98/98/98 99/99/99 116/116/116
f 98/98/98 116/116/116 115/115/115
f 99/99/99 100/100/100 117/117/117
f 99/99/99 117/117/117 116/116/116
f 100/100/100 101/101/101 118/118/118
f 100/100/100 118/118/118 117/117/117
f 101/101/101 102/102/102 119/119/119
f 101/101/101 119/119/119 118/118/118
f 103/104/104 104/103/103 121/120/120
f 103/104/104 121/120/120 120/121/121
f 104/103/103 105/105/105 122/122/122
f 104/103/103 122/122/122 121/120/120
f 105/105/105 106/106/106 123/123/123
f 105/105/105 123/123/123 122/122/122
f 106/106/106 107/107/107 124/124/124
f 106/106/106 124/124/124 123/123/123
f 107/107/107 108/108/108 125/125/125
f 107/107/107 125/125/125 124/124/124
f 108/108/108 109/109/109 126/126/126
f 108/108/108 126/126/126 125/125/125
f 109/109/109 110/110/110 127/127/127
f 109/109/109 127/127/127 126/126/126
f 110/110/110 111/111/111 128/128/128
f 110/110/110 128/128/128 127/127/127
f 111/111/111 112/112/112 129/129/129
f 111/111/111 129/129/129 128/128/128
f 112/112/112 113/113/113 130/130/130
f 112/112/112 130/130/130 129/129/129
f 113/113/113 114/114/114 131/131/131
f 113/113/113 131/131/131 130/130/130
f 114/114/114 115/115/115 132/132/132
f 114/114/114 132/132/132 131/131/131
f 115/115/115 116/116/116 133/133/133
f 115/115/115 133/133/133 132/132/132
f 116/116/116 117/117/117 134/134/134
f 116/116/116 134/134/134 133/133/133
f 117/117/117 118/118/118 135/135/135
f 117/117/117 135/135/135 134/134/134
f 118/118/118 119/119/119 136/136/136
f 118/118/118 136/136/136 135/135/135
f 120/121/121 121/120/120 138/137/137
f 120/121/121 138/137/137 137/138/138
f 121/120/120 122/122/122 139/139/139
f 121/120/120 139/139/139 138/137/137
f 122/122/122 123/123/123 140/140/140
f 122/122/122 140/140/140 139/139/139
f 123/123/123 124/124/124 141/141/141
f 123/123/123 141/141/141 140/140/140
f 124/124/124 125/125/125 142/142/142
f 124/124/124 142/142/142 141/141/141
f 125/125/125 126/126/126 143/143/143
f 125/125/125 143/143/143 142/142/142
f 126/126/126 127/127/127 144/144/144
f 126/126/126 144/144/144 143/143/143
f 127/127/127 128/128/128 145/145/145
f 127/127/127 145/145/145 144/144/144
f 128/128/128 129/129/129 146/146/146
f 128/128/128 146/146/146 145/145/145
f 129/129/129 130/130/130 147/147/147
f 129/129/129 147/147/147 146/146/146
f 130/130/130 131/131/131 148/148/148
f 130/130/130 148/148/148 147/147/147
f 131/131/131 132/132/132 149/149/149
f 131/131/131 149/149/149 148/148/148
f 132/132/132 133/133/133 150/150/150
f 132/132/132 150/150/150 149/149/149
f 133/133/133 134/134/134 151/151/151
f 133/133/133 151/151/151 150/150/150
f 134/134/134 135/135/135 152/152/152
f 134/134/134 152/152/152 151/151/151
f 135/135/135 136/136/136 153/153/153
f 135/135/135 153/153/153 152/152/152
f 137/138/138 138/137/137 155/154/154
f 137/138/138 155/154/154 154/155/155
f 138/137/137 139/139/139 156/156/156
f 138/137/137 156/156/156 155/154/154
f 139/139/139 140/140/140 157/157/157
f 139/139/139 157/157/157 156/156/156
f 140/140/140 141/141/141 158/158/158
f 140/140/140 158/158/158 157/157/157
f 141/141/141 142/142/142 159/159/159
f 141/141/141 159/159/159 158/158/158
f 142/142/142 143/143/143 160/160/160
f 142/142/142 160/160/160 159/159/159
f 143/143/143 144/144/144 161/161/161
f 143/143/143 161/161/161 160/160/160
f 144/144/144 145/145/145 162/162/162
f 144/144/144 162/162/162 161/161/161
f 145/145/145 146/146/146 163/163/163
f 145/145/145 163/163/163 162/162/162
f 146/146/146 147/147/147 164/164/164
f 146/146/146 164/164/164 163/163/163
f 147/147/147 148/148/148 165/165/165
f 147/147/147 165/165/165 164/164/164
f 148/148/148 149/149/149 166/166/166
f 148/148/148 166/166/166 165/165/165
f 149/149/149 150/150/150 167/167/167
f 149/149/149 167/167/167 166/166/166
f 150/150/150 151/151/151 168/168/168
f 150/150/150 168/168/168 167/167/167
f 151/151/151 152/152/152 169/169/169
f 151/151/151 169/169/169 168/168/168
f 152/152/152 153/153/153 170/170/170
f 152/152/152 170/170/170 169/169/169
f 154/155/155 155/154/154 172/171/171
f 154/155/155 172/171/171 171/172/172
f 155/154/154 156/156/156 173/173/173
f 155/154/154 173/173/173 172/171/171
f 156/156/156 157/157/157 174/174/174
f 156/156/156 174/174/174 173/173/173
f 157/157/157 158/158/158 175/175/175
f 157/157/157 175/175/175 174/174/174
f 158/158/158 159/159/159 176/176/176
f 158/158/158 176/176/176 175/175/175
f 159/159/159 160/160/160 177/177/177
f 159/159/159 177/177/177 176/176/176
f 160/160/160 161/161/161 178/178/178
f 160/160/160 178/178/178 177/177/177
f 161/161/161 162/162/162 179/179/179
f 161/161/161 179/179/179 178/178/178
f 162/162/162 163/163/163 180/180/180
f 162/162/162 180/180/180 179/179/179
f 163/163/163 164/164/164 181/181/181
f 163/163/163 181/181/181 180/180/180
f 164/164/164 165/165/165 182/182/182
f 164/164/164 182/182/182 181/181/181
f 165/165/165 166/166/166 183/183/183
f 165/165/165 183/183/183 182/182/182
f 166/166/166 167/167/167 184/184/184
f 166/166/166 184/184/184 183/183/183
f 167/167/167 168/168/168 185/185/185
f 167/167/167 185/185/185 184/184/184
f 168/168/168 169/169/169 186/186/186
f 168/168/168 186/186/186 185/185/185
f 169/169/169 170/170/170 187/187/187
f 169/169/169 187/187/187 186/186/186
f 171/172/172 172/171/171 189/188/188
f 171/172/172 189/188/188 188/189/189
f 172/171/171 173/173/173 190/190/190
f 172/171/171 190/190/190 189/188/188
f 173/173/173 174/174/174 191/191/191
f 173/173/173 191/191/191 190/190/190
f 174/174/174 175/175/175 192/192/192
f 174/174/174 192/192/192 191/191/191
f 175/175/175 176/176/176 193/193/193
f 175/175/175 193/193/193 192/192/192
f 176/176/176 177/177/177 194/194/194
f 176/176/176 194/194/194 193/193/193
f 177/177/177 178/178/178 195/195/195
f 177/177/177 195/195/195 194/194/194
f 178/178/178 179/179/179 196/196/196
f 178/178/178 196/196/196 195/195/195
f 179/179/179 180/180/180 197/197/197
f 179/179/179 197/197/197 196/196/196
f 180/180/180 181/181/181 198/198/198
f 180/180/180 198/198/198 197/197/197
f 181/181/181 182/182/182 199/199/199
f 181/181/181 199/199/199 198/198/198
f 182/182/182 183/183/183 200/200/200
f 182/182/182 200/200/200 199/199/199
f 183/183/183 184/184/184 201/201/201
f 183/183/183 201/201/201 200/200/200
f 184/184/184 185/185/185 202/202/202
f 184/184/184 202/202/202 201/201/201
f 185/185/185 186/186/186 203/203/203
f 185/185/185 203/203/203 202/202/202
f 186/186/186 187/187/187 204/204/204
f 186/186/186 204/204/204 203/203/203
f 188/189/189 189/188/188 206/205/205
f 188/189/189 206/205/205 205/206/206
f 189/188/188 190/190/190 207/207/207
f 189/188/188 207/207/207 206/205/205
f 190/190/190 191/191/191 208/208/208
f 190/190/190 208/208/208 207/207/207
f 191/191/191 192/192/192 209/209/209
f 191/191/191 209/209/209 208/208/208
f 192/192/192 193/193/193 210/210/210
f 192/192/192 210/210/210 209/209/209
f 193/193/193 194/194/194 211/211/211
f 193/193/193 211/211/211 210/210/210
f 194/194/194 195/195/195 212/212/212
f 194/194/194 212/212/212 211/211/211
f 195/195/195 196/196/196 213/213/213
f 195/195/195 213/213/213 212/212/212
f 196/196/196 197/197/197 214/214/214
f 196/196/196 214/214/214 213/213/213
f 197/197/197 198/198/198 215/215/215
f 197/197/197 215/215/215 214/214/214
f 198/198/198 199/199/199 216/216/216
f 198/198/198 216/216/216 215/215/215
f 199/199/199 200/200/200 217/217/217
f 199/199/199 217/217/217 216/216/216
f 200/200/200 201/201/201 218/218/218
f 200/200/200 218/218/218 217/217/217
f 201/201/201 202/202/202 219/219/219
f 201/201/201 219/219/219 218/218/218
f 202/202/202 203/203/203 220/220/220
f 202/202/202 220/220/220 219/219/219
f 203/203/203 204/204/204 221/221/221
f 203/203/203 221/221/221 220/220/220
f 205/206/206 206/205/205 223/222/222
f 205/206/206 223/222/222 222/223/223
f 206/205/205 207/207/207 224/224/224
f 206/205/205 224/224/224 223/222/222
f 207/207/207 208/208/208 225/225/225
f 207/207/207 225/225/225 224/224/224
f 208/208/208 209/209/209 226/226/226
f 208/208/208 226/226/226 225/225/225
f 209/209/209 210/210/210 227/227/227
f 209/209/209 227/227/227 226/226/226
f 210/210/210 211/211/211 228/228/228
f 210/210/210 228/228/228 227/227/227
f 211/211/211 212/212/212 229/229/229
f 211/211/211 229/229/229 228/228/228
f 212/212/212 213/213/213 230/230/230
f 212/212/212 230/230/230 229/229/229
f 213/213/213 214/214/214 231/231/231
f 213/213/213 231/231/231 230/230/230
f 214/214/214 215/215/215 232/232/232
f 214/214/214 232/232/232 231/231/231
f 215/215/215 216/216/216 233/233/233
f 215/215/215 233/233/233 232/232/232
f 216/216/216 217/217/217 234/234/234
f 216/216/216 234/234/234 233/233/233
f 217/217/217 218/218/218 235/235/235
f 217/217/217 235/235/235 234/234/234
f 218/218/218 219/219/219 236/236/236
f 218/218/218 236/236/236 235/235/235
f 219/219/219 220/220/220 237/237/237
f 219/219/219 237/237/237 236/236/236
f 220/220/220 221/221/221 238/238/238
f 220/220/220 238/238/238 237/237/237
f 222/223/223 223/222/222 240/239/239
f 222/223/223 240/239/239 239/240/240
f 223/222/222 224/224/224 241/241/241
f 223/222/222 241/241/241 240/239/239
f 224/224/224 225/225/225 242/242/242
f 224/224/224 242/242/242 241/241/241
f 225/225/225 226/226/226 243/243/243
f 225/225/225 243/243/243 242/242/242
f 226/226/226 227/227/227 244/244/244
f 226/226/226 244/244/244 243/243/243
f 227/227/227 228/228/228 245/245/245
f 227/227/227 245/245/245 244/244/244
f 228/228/228 229/229/229 246/246/246
f 228/228/228 246/246/246 245/245/245
f 229/229/229 230/230/230 247/247/247
f 229/229/229 247/247/247 246/246/246
f 230/230/230 231/231/231 248/248/248
f 230/230/230 248/248/248 247/247/247
f 231/231/231 232/232/232 249/249/249
f 231/231/231 249/249/249 248/248/248
f 232/232/232 233/233/233 250/250/250
f 232/232/232 250/250/250 249/249/249
f 233/233/233 234/234/234 251/251/251
f 233/233/233 251/251/251 250/250/250
f 234/234/234 235/235/235 252/252/252
f 234/234/234 252/252/252 251/251/251
f 235/235/235 236/236/236 253/253/253
f 235/235/235 253/253/253 252/252/252
f 236/236/236 237/237/237 254/254/254
f 236/236/236 254/254/254 253/253/253
f 237/237/237 238/238/238 255/255/255
f 237/237/237 255/255/255 254/254/254
f 239/240/240 240/239/239 257/256/256
f 239/240/240 257/256/256 256/257/257
f 240/239/239 241/241/241 258/258/258
f 240/239/239 258/258/258 257/256/256
f 241/241/241 242/242/242 259/259/259
f 241/241/241 259/259/259 258/258/258
f 242/242/242 243/243/243 260/260/260
f 242/242/242 260/260/260 259/259/259
f 243/243/243 244/244/244 261/261/261
f 243/243/243 261/261/261 260/260/260
f 244/244/244 245/245/245 262/262/262
f 244/244/244 262/262/262 261/261/261
f 245/245/245 246/246/246 263/263/263
f 245/245/245 263/263/263 262/262/262
f 246/246/246 247/247/247 264/264/264
f 246/246/246 264/264/264 263/263/263
f 247/247/247 248/248/248 265/265/265
f 247/247/247 265/265/265 264/264/264
f 248/248/248 249/249/249 266/266/266
f 248/248/248 266/266/266 265/265/265
f 249/249/249 250/250/250 267/267/267
f 249/249/249 267/267/267 266/266/266
f 250/250/250 251/251/251 268/268/268
f 250/250/250 268/268/268 267/267/267
f 251/251/251 252/252/252 269/269/269
f 251/251/251 269/269/269 268/268/268
f 252/252/252 253/253/253 270/270/270
f 252/252/252 270/270/270 269/269/269
f 253/253/253 254/254/254 271/271/271
f 253/253/253 271/271/271 270/270/270
f 254/254/254 255/255/255 272/272/272
f 254/254/254 272/272/272 271/271/271
f 256/257/257 257/256/256 274/273/273
f 256/257/257 274/273/273 273/274/274
f 257/256/256 258/258/258 275/275/275
f 257/256/256 275/275/275 274/273/273
f 258/258/258 259/259/259 276/276/276
f 258/258/258 276/276/276 275/275/275
f 259/259/259 260/260/260 277/277/277
f 259/259/259 277/277/277 276/276/276
f 260/260/260 261/261/261 278/278/278
f 260/260/260 278/278/278 277/277/277
f 261/261/261 262/262/262 279/279/279
f 261/261/261 279/279/279 278/278/278
f 262/262/262 263/263/263 280/280/280
f 262/262/262 280/280/280 279/279/279
f 263/263/263 264/264/264 281/281/281
f 263/263/263 281/281/281 280/280/280
f 264/264/264 265/265/265 282/282/282
f 264/264/264 282/282/282 281/281/281
f 265/265/265 266/266/266 283/283/283
f 265/265/265 283/283/283 282/282/282
f 266/266/266 267/267/267 284/284/284
f 266/266/266 284/284/284 283/283/283
f 267/267/267 268/268/268 285/285/285
f 267/267/267 285/285/285 284/284/284
f 268/268/268 269/269/269 286/286/286
f 268/268/268 286/286/286 285/285/285
f 269/269/269 270/270/270 287/287/287
f 269/269/269 287/287/287 286/286/286
f 270/270/270 271/271/271 288/288/288
f 270/270/270 288/288/288 287/287/287
f 271/271/271 272/272/272 289/289/289
f 271/271/271 289/289/289 288/288/288
