mtllib terrain_mid_03_07.mtl
usemtl terrain_mid_03_07
# Blender 5.1.1
# www.blender.org
o terrain_mid_03_07
v -160.000000 -160.000000 38.052528
v -140.000000 -160.000000 33.197182
v -120.000000 -160.000000 28.774986
v -100.000000 -160.000000 24.616085
v -80.000000 -160.000000 20.625992
v -60.000000 -160.000000 16.557648
v -40.000000 -160.000000 11.632164
v -20.000000 -160.000000 6.145490
v 0.000000 -160.000000 0.658945
v 20.000000 -160.000000 -4.899737
v 40.000000 -160.000000 -10.427386
v 60.000000 -160.000000 -15.634336
v 80.000000 -160.000000 -20.805023
v 100.000000 -160.000000 -24.866852
v 120.000000 -160.000000 -28.192413
v 140.000000 -160.000000 -31.895437
v 160.000000 -160.000000 -36.636154
v -160.000000 -140.000000 37.650021
v -140.000000 -140.000000 33.150902
v -120.000000 -140.000000 28.479462
v -100.000000 -140.000000 23.920975
v -80.000000 -140.000000 19.638355
v -60.000000 -140.000000 15.715837
v -40.000000 -140.000000 11.255095
v -20.000000 -140.000000 6.377166
v 0.000000 -140.000000 1.038543
v 20.000000 -140.000000 -4.571931
v 40.000000 -140.000000 -9.793142
v 60.000000 -140.000000 -14.360315
v 80.000000 -140.000000 -18.678823
v 100.000000 -140.000000 -22.641693
v 120.000000 -140.000000 -26.616838
v 140.000000 -140.000000 -30.931923
v 160.000000 -140.000000 -35.686363
v -160.000000 -120.000000 33.671551
v -140.000000 -120.000000 29.655378
v -120.000000 -120.000000 24.734072
v -100.000000 -120.000000 19.910158
v -80.000000 -120.000000 16.051062
v -60.000000 -120.000000 12.818145
v -40.000000 -120.000000 9.153553
v -20.000000 -120.000000 4.927174
v 0.000000 -120.000000 -0.144542
v 20.000000 -120.000000 -5.555065
v 40.000000 -120.000000 -10.400239
v 60.000000 -120.000000 -14.333955
v 80.000000 -120.000000 -18.021055
v 100.000000 -120.000000 -22.378429
v 120.000000 -120.000000 -27.154654
v 140.000000 -120.000000 -31.881468
v 160.000000 -120.000000 -36.291405
v -160.000000 -100.000000 27.005659
v -140.000000 -100.000000 23.301985
v -120.000000 -100.000000 19.014448
v -100.000000 -100.000000 14.713978
v -80.000000 -100.000000 11.209245
v -60.000000 -100.000000 8.592735
v -40.000000 -100.000000 5.677723
v -20.000000 -100.000000 1.640282
v 0.000000 -100.000000 -2.970680
v 20.000000 -100.000000 -7.816173
v 40.000000 -100.000000 -12.428939
v 60.000000 -100.000000 -16.837372
v 80.000000 -100.000000 -21.108002
v 100.000000 -100.000000 -25.476831
v 120.000000 -100.000000 -29.779186
v 140.000000 -100.000000 -33.739174
v 160.000000 -100.000000 -37.256115
v -160.000000 -80.000000 20.940479
v -140.000000 -80.000000 16.812361
v -120.000000 -80.000000 12.778459
v -100.000000 -80.000000 8.650204
v -80.000000 -80.000000 5.229773
v -60.000000 -80.000000 3.053998
v -40.000000 -80.000000 0.740929
v -20.000000 -80.000000 -2.935029
v 0.000000 -80.000000 -7.171221
v 20.000000 -80.000000 -11.342358
v 40.000000 -80.000000 -15.521564
v 60.000000 -80.000000 -19.856688
v 80.000000 -80.000000 -23.712868
v 100.000000 -80.000000 -27.117199
v 120.000000 -80.000000 -30.486942
v 140.000000 -80.000000 -33.633991
v 160.000000 -80.000000 -36.383469
v -160.000000 -60.000000 18.056921
v -140.000000 -60.000000 12.887210
v -120.000000 -60.000000 7.705400
v -100.000000 -60.000000 3.000077
v -80.000000 -60.000000 -0.723820
v -60.000000 -60.000000 -2.829262
v -40.000000 -60.000000 -4.682127
v -20.000000 -60.000000 -7.762313
v 0.000000 -60.000000 -11.501917
v 20.000000 -60.000000 -14.934554
v 40.000000 -60.000000 -18.164379
v 60.000000 -60.000000 -21.317007
v 80.000000 -60.000000 -23.644224
v 100.000000 -60.000000 -26.006643
v 120.000000 -60.000000 -28.809996
v 140.000000 -60.000000 -31.642399
v 160.000000 -60.000000 -34.151581
v -160.000000 -40.000000 18.842146
v -140.000000 -40.000000 13.292625
v -120.000000 -40.000000 7.535335
v -100.000000 -40.000000 2.280744
v -80.000000 -40.000000 -1.575851
v -60.000000 -40.000000 -4.230602
v -40.000000 -40.000000 -7.031315
v -20.000000 -40.000000 -10.013466
v 0.000000 -40.000000 -12.828211
v 20.000000 -40.000000 -14.958256
v 40.000000 -40.000000 -16.410648
v 60.000000 -40.000000 -17.613306
v 80.000000 -40.000000 -18.934771
v 100.000000 -40.000000 -21.594439
v 120.000000 -40.000000 -25.364134
v 140.000000 -40.000000 -29.250580
v 160.000000 -40.000000 -32.045746
v -160.000000 -20.000000 21.283064
v -140.000000 -20.000000 15.724591
v -120.000000 -20.000000 10.286034
v -100.000000 -20.000000 5.446638
v -80.000000 -20.000000 1.840185
v -60.000000 -20.000000 -1.543563
v -40.000000 -20.000000 -5.392494
v -20.000000 -20.000000 -8.388385
v 0.000000 -20.000000 -10.481538
v 20.000000 -20.000000 -11.840058
v 40.000000 -20.000000 -12.383943
v 60.000000 -20.000000 -12.699162
v 80.000000 -20.000000 -13.810877
v 100.000000 -20.000000 -17.397289
v 120.000000 -20.000000 -22.685307
v 140.000000 -20.000000 -27.688772
v 160.000000 -20.000000 -30.978790
v -160.000000 0.000000 22.792063
v -140.000000 0.000000 17.612450
v -120.000000 0.000000 13.640180
v -100.000000 0.000000 11.007232
v -80.000000 0.000000 8.158077
v -60.000000 0.000000 4.437923
v -40.000000 0.000000 0.392506
v -20.000000 0.000000 -2.697751
v 0.000000 0.000000 -5.002656
v 20.000000 0.000000 -6.696585
v 40.000000 0.000000 -7.755796
v 60.000000 0.000000 -8.491589
v 80.000000 0.000000 -10.212983
v 100.000000 0.000000 -14.813962
v 120.000000 0.000000 -21.301748
v 140.000000 0.000000 -27.236759
v 160.000000 0.000000 -30.805296
v -160.000000 20.000000 25.127573
v -140.000000 20.000000 21.305660
v -120.000000 20.000000 18.791323
v -100.000000 20.000000 16.734594
v -80.000000 20.000000 13.834299
v -60.000000 20.000000 9.839548
v -40.000000 20.000000 5.718712
v -20.000000 20.000000 2.448970
v 0.000000 20.000000 -0.056231
v 20.000000 20.000000 -1.978255
v 40.000000 20.000000 -3.437504
v 60.000000 20.000000 -4.949908
v 80.000000 20.000000 -7.497454
v 100.000000 20.000000 -13.367246
v 120.000000 20.000000 -20.966299
v 140.000000 20.000000 -27.082367
v 160.000000 20.000000 -30.421188
v -160.000000 40.000000 28.937475
v -140.000000 40.000000 26.751474
v -120.000000 40.000000 25.091047
v -100.000000 40.000000 22.540279
v -80.000000 40.000000 18.830902
v -60.000000 40.000000 14.548186
v -40.000000 40.000000 10.321007
v -20.000000 40.000000 6.765187
v 0.000000 40.000000 3.888200
v 20.000000 40.000000 1.643177
v 40.000000 40.000000 -0.496369
v 60.000000 40.000000 -2.772825
v 80.000000 40.000000 -6.242246
v 100.000000 40.000000 -12.916183
v 120.000000 40.000000 -20.867239
v 140.000000 40.000000 -26.547014
v 160.000000 40.000000 -29.509153
v -160.000000 60.000000 35.406082
v -140.000000 60.000000 33.552593
v -120.000000 60.000000 31.557396
v -100.000000 60.000000 28.216780
v -80.000000 60.000000 23.633419
v -60.000000 60.000000 18.876467
v -40.000000 60.000000 14.277570
v -20.000000 60.000000 10.103952
v 0.000000 60.000000 6.595841
v 20.000000 60.000000 3.377193
v 40.000000 60.000000 0.237775
v 60.000000 60.000000 -2.764124
v 80.000000 60.000000 -6.708250
v 100.000000 60.000000 -13.191383
v 120.000000 60.000000 -20.342453
v 140.000000 60.000000 -25.265472
v 160.000000 60.000000 -27.802197
v -160.000000 80.000000 41.413868
v -140.000000 80.000000 39.718502
v -120.000000 80.000000 37.455513
v -100.000000 80.000000 33.417950
v -80.000000 80.000000 27.852602
v -60.000000 80.000000 22.110645
v -40.000000 80.000000 16.318748
v -20.000000 80.000000 11.238589
v 0.000000 80.000000 6.689354
v 20.000000 80.000000 2.705549
v 40.000000 80.000000 -1.240388
v 60.000000 80.000000 -4.312843
v 80.000000 80.000000 -7.799517
v 100.000000 80.000000 -12.901941
v 120.000000 80.000000 -18.593252
v 140.000000 80.000000 -22.874510
v 160.000000 80.000000 -24.998756
v -160.000000 100.000000 45.870975
v -140.000000 100.000000 43.981434
v -120.000000 100.000000 41.654903
v -100.000000 100.000000 37.173565
v -80.000000 100.000000 30.828047
v -60.000000 100.000000 23.733191
v -40.000000 100.000000 16.787214
v -20.000000 100.000000 10.365460
v 0.000000 100.000000 4.908972
v 20.000000 100.000000 0.395490
v 40.000000 100.000000 -3.835067
v 60.000000 100.000000 -6.747800
v 80.000000 100.000000 -9.636635
v 100.000000 100.000000 -13.243446
v 120.000000 100.000000 -17.456114
v 140.000000 100.000000 -21.151846
v 160.000000 100.000000 -22.989161
v -160.000000 120.000000 45.212399
v -140.000000 120.000000 42.685406
v -120.000000 120.000000 40.229923
v -100.000000 120.000000 36.454117
v -80.000000 120.000000 30.398712
v -60.000000 120.000000 23.108116
v -40.000000 120.000000 15.592321
v -20.000000 120.000000 8.460330
v 0.000000 120.000000 2.324031
v 20.000000 120.000000 -2.191621
v 40.000000 120.000000 -6.224275
v 60.000000 120.000000 -9.447453
v 80.000000 120.000000 -12.257525
v 100.000000 120.000000 -15.329892
v 120.000000 120.000000 -18.622536
v 140.000000 120.000000 -21.484514
v 160.000000 120.000000 -23.291895
v -160.000000 140.000000 41.533760
v -140.000000 140.000000 38.619484
v -120.000000 140.000000 35.972469
v -100.000000 140.000000 32.673038
v -80.000000 140.000000 27.259109
v -60.000000 140.000000 20.392628
v -40.000000 140.000000 13.206749
v -20.000000 140.000000 6.251311
v 0.000000 140.000000 0.144357
v 20.000000 140.000000 -4.200939
v 40.000000 140.000000 -8.013059
v 60.000000 140.000000 -11.300880
v 80.000000 140.000000 -14.574759
v 100.000000 140.000000 -17.826569
v 120.000000 140.000000 -20.957205
v 140.000000 140.000000 -23.473862
v 160.000000 140.000000 -25.469683
v -160.000000 160.000000 35.456608
v -140.000000 160.000000 32.721703
v -120.000000 160.000000 29.986799
v -100.000000 160.000000 26.100216
v -80.000000 160.000000 22.213633
v -60.000000 160.000000 16.206766
v -40.000000 160.000000 10.199900
v -20.000000 160.000000 4.490915
v 0.000000 160.000000 -1.218069
v 20.000000 160.000000 -5.161510
v 40.000000 160.000000 -9.104951
v 60.000000 160.000000 -12.586081
v 80.000000 160.000000 -16.067211
v 100.000000 160.000000 -19.520424
v 120.000000 160.000000 -22.973637
v 140.000000 160.000000 -25.824265
v 160.000000 160.000000 -28.674891
vn 0.2485 -0.0374 0.9679
vn 0.2255 -0.0601 0.9724
vn 0.2227 0.0860 0.9711
vn 0.2155 0.1063 0.9707
vn 0.2094 -0.0616 0.9759
vn 0.2238 0.0979 0.9697
vn 0.1994 -0.0509 0.9786
vn 0.2144 0.1141 0.9700
vn 0.1974 -0.0313 0.9798
vn 0.1997 0.1113 0.9735
vn 0.2193 -0.0229 0.9754
vn 0.2043 0.0911 0.9747
vn 0.2518 -0.0301 0.9673
vn 0.2269 0.0602 0.9721
vn 0.2642 -0.0521 0.9631
vn 0.2474 0.0295 0.9685
vn 0.2657 -0.0583 0.9623
vn 0.2641 0.0195 0.9643
vn 0.2667 -0.0568 0.9621
vn 0.2614 0.0158 0.9651
vn 0.2585 -0.0708 0.9634
vn 0.2377 -0.0007 0.9713
vn 0.2501 -0.0912 0.9639
vn 0.2168 -0.0316 0.9757
vn 0.2232 -0.1224 0.9671
vn 0.2022 -0.0679 0.9770
vn 0.1796 -0.1490 0.9724
vn 0.1943 -0.0609 0.9791
vn 0.1713 -0.1446 0.9746
vn 0.2029 -0.0254 0.9789
vn 0.2051 -0.1189 0.9715
vn 0.2211 -0.0004 0.9752
vn 0.2535 -0.1128 0.9607
vn 0.2419 -0.0084 0.9703
vn 0.2120 0.2336 0.9489
vn 0.1744 0.2532 0.9516
vn 0.2307 0.2240 0.9469
vn 0.2069 0.2194 0.9534
vn 0.1709 0.2031 0.9641
vn 0.1674 0.1729 0.9706
vn 0.1918 0.1355 0.9720
vn 0.2249 0.1146 0.9676
vn 0.2523 0.0965 0.9628
vn 0.2474 0.0781 0.9658
vn 0.2139 0.0643 0.9747
vn 0.1868 0.0607 0.9805
vn 0.1968 0.0594 0.9786
vn 0.2221 0.0689 0.9726
vn 0.2305 0.0767 0.9701
vn 0.2222 0.0683 0.9726
vn 0.2119 0.0383 0.9765
vn 0.1869 0.3004 0.9353
vn 0.1867 0.2980 0.9361
vn 0.2015 0.2805 0.9385
vn 0.1847 0.2663 0.9460
vn 0.1461 0.2583 0.9550
vn 0.1333 0.2350 0.9628
vn 0.1677 0.2029 0.9647
vn 0.2075 0.1887 0.9599
vn 0.2267 0.1685 0.9593
vn 0.2279 0.1395 0.9636
vn 0.2183 0.1239 0.9680
vn 0.2101 0.1337 0.9685
vn 0.2091 0.1378 0.9681
vn 0.2104 0.1150 0.9708
vn 0.2016 0.0813 0.9761
vn 0.1836 0.0431 0.9821
vn 0.1675 0.0023 0.9859
vn 0.1938 0.2472 0.9494
vn 0.2247 0.2127 0.9509
vn 0.1927 0.2670 0.9442
vn 0.1783 0.2766 0.9443
vn 0.1328 0.2834 0.9498
vn 0.1072 0.2729 0.9561
vn 0.1434 0.2482 0.9580
vn 0.1891 0.2247 0.9559
vn 0.2013 0.2043 0.9580
vn 0.2013 0.1716 0.9644
vn 0.2062 0.1389 0.9686
vn 0.1994 0.1090 0.9738
vn 0.1783 0.0623 0.9820
vn 0.1670 0.0131 0.9859
vn 0.1607 -0.0239 0.9867
vn 0.1457 -0.0518 0.9880
vn 0.1304 -0.0767 0.9885
vn 0.2496 0.0849 0.9646
vn 0.2480 0.0508 0.9674
vn 0.2380 0.1262 0.9630
vn 0.2037 0.1540 0.9668
vn 0.1422 0.1660 0.9758
vn 0.0969 0.1783 0.9792
vn 0.1202 0.1894 0.9745
vn 0.1656 0.1718 0.9711
vn 0.1748 0.1379 0.9749
vn 0.1636 0.0888 0.9825
vn 0.1575 0.0219 0.9873
vn 0.1355 -0.0554 0.9892
vn 0.1156 -0.1178 0.9863
vn 0.1269 -0.1357 0.9826
vn 0.1384 -0.1258 0.9824
vn 0.1316 -0.1079 0.9854
vn 0.1158 -0.1071 0.9875
vn 0.2713 -0.0681 0.9601
vn 0.2572 -0.0777 0.9632
vn 0.2649 -0.0621 0.9623
vn 0.2217 -0.0595 0.9733
vn 0.1603 -0.0632 0.9850
vn 0.1351 -0.0318 0.9903
vn 0.1430 0.0176 0.9896
vn 0.1434 0.0155 0.9895
vn 0.1226 -0.0254 0.9921
vn 0.0889 -0.0768 0.9931
vn 0.0656 -0.1427 0.9876
vn 0.0615 -0.2101 0.9757
vn 0.0963 -0.2376 0.9666
vn 0.1553 -0.2079 0.9657
vn 0.1859 -0.1487 0.9712
vn 0.1640 -0.0970 0.9817
vn 0.1192 -0.0785 0.9898
vn 0.2637 -0.1036 0.9590
vn 0.2640 -0.0948 0.9599
vn 0.2462 -0.1462 0.9581
vn 0.2020 -0.2088 0.9569
vn 0.1674 -0.2331 0.9579
vn 0.1740 -0.2086 0.9624
vn 0.1659 -0.1800 0.9696
vn 0.1242 -0.1785 0.9761
vn 0.0844 -0.1913 0.9779
vn 0.0465 -0.2021 0.9783
vn 0.0210 -0.2114 0.9772
vn 0.0348 -0.2222 0.9744
vn 0.1140 -0.2116 0.9707
vn 0.2137 -0.1633 0.9632
vn 0.2480 -0.0979 0.9638
vn 0.2028 -0.0493 0.9780
vn 0.1267 -0.0308 0.9915
vn 0.2210 -0.1348 0.9659
vn 0.2625 -0.0923 0.9605
vn 0.1595 -0.2053 0.9656
vn 0.1307 -0.2692 0.9542
vn 0.1554 -0.2837 0.9462
vn 0.1836 -0.2690 0.9455
vn 0.1692 -0.2639 0.9496
vn 0.1291 -0.2593 0.9571
vn 0.0962 -0.2512 0.9632
vn 0.0667 -0.2389 0.9688
vn 0.0438 -0.2180 0.9750
vn 0.0602 -0.1899 0.9800
vn 0.1542 -0.1541 0.9759
vn 0.2656 -0.0964 0.9593
vn 0.2963 -0.0410 0.9542
vn 0.2311 -0.0148 0.9728
vn 0.1257 -0.0138 0.9920
vn 0.1526 -0.2201 0.9635
vn 0.2173 -0.1482 0.9648
vn 0.1092 -0.2736 0.9556
vn 0.1183 -0.2752 0.9541
vn 0.1643 -0.2543 0.9531
vn 0.1929 -0.2405 0.9513
vn 0.1765 -0.2371 0.9553
vn 0.1392 -0.2279 0.9637
vn 0.1075 -0.2156 0.9705
vn 0.0825 -0.2034 0.9756
vn 0.0729 -0.1781 0.9813
vn 0.1000 -0.1408 0.9850
vn 0.2050 -0.0967 0.9740
vn 0.3188 -0.0449 0.9468
vn 0.3243 -0.0103 0.9459
vn 0.2300 -0.0168 0.9730
vn 0.1124 -0.0322 0.9931
vn 0.0916 -0.2915 0.9522
vn 0.1462 -0.2462 0.9581
vn 0.0999 -0.3026 0.9479
vn 0.1488 -0.2728 0.9505
vn 0.1905 -0.2336 0.9535
vn 0.2032 -0.2158 0.9551
vn 0.1869 -0.2055 0.9606
vn 0.1560 -0.1857 0.9702
vn 0.1253 -0.1627 0.9787
vn 0.1080 -0.1319 0.9854
vn 0.1092 -0.0910 0.9898
vn 0.1420 -0.0540 0.9884
vn 0.2458 -0.0191 0.9691
vn 0.3434 -0.0041 0.9392
vn 0.3225 -0.0148 0.9464
vn 0.2110 -0.0444 0.9765
vn 0.0942 -0.0650 0.9934
vn 0.0912 -0.3071 0.9473
vn 0.1035 -0.2962 0.9495
vn 0.1264 -0.2929 0.9477
vn 0.1877 -0.2578 0.9478
vn 0.2222 -0.2145 0.9511
vn 0.2240 -0.1811 0.9576
vn 0.2119 -0.1449 0.9665
vn 0.1875 -0.1091 0.9762
vn 0.1654 -0.0689 0.9838
vn 0.1569 -0.0262 0.9873
vn 0.1517 0.0184 0.9883
vn 0.1710 0.0379 0.9846
vn 0.2521 0.0377 0.9670
vn 0.3226 -0.0003 0.9465
vn 0.2885 -0.0543 0.9559
vn 0.1826 -0.0899 0.9791
vn 0.0738 -0.1117 0.9910
vn 0.0953 -0.2511 0.9633
vn 0.0904 -0.2521 0.9635
vn 0.1510 -0.2419 0.9585
vn 0.2281 -0.2127 0.9501
vn 0.2680 -0.1706 0.9482
vn 0.2752 -0.1159 0.9544
vn 0.2618 -0.0605 0.9632
vn 0.2341 -0.0062 0.9722
vn 0.2085 0.0412 0.9772
vn 0.1939 0.0729 0.9783
vn 0.1719 0.0998 0.9800
vn 0.1611 0.0978 0.9821
vn 0.2094 0.0714 0.9752
vn 0.2605 0.0012 0.9655
vn 0.2413 -0.0699 0.9679
vn 0.1573 -0.1010 0.9824
vn 0.0506 -0.1193 0.9916
vn 0.1046 -0.0736 0.9918
vn 0.1123 -0.0939 0.9892
vn 0.1674 -0.0682 0.9835
vn 0.2606 -0.0731 0.9627
vn 0.3179 -0.0602 0.9462
vn 0.3311 -0.0235 0.9433
vn 0.3169 0.0172 0.9483
vn 0.2840 0.0664 0.9565
vn 0.2405 0.1053 0.9649
vn 0.2121 0.1188 0.9700
vn 0.1745 0.1219 0.9771
vn 0.1425 0.1261 0.9817
vn 0.1597 0.1097 0.9811
vn 0.1915 0.0595 0.9797
vn 0.1939 0.0007 0.9810
vn 0.1370 -0.0344 0.9900
vn 0.0443 -0.0426 0.9981
vn 0.1225 0.1319 0.9837
vn 0.1440 0.1067 0.9838
vn 0.1524 0.1390 0.9785
vn 0.2372 0.1086 0.9654
vn 0.3154 0.0843 0.9452
vn 0.3461 0.0781 0.9350
vn 0.3427 0.0838 0.9357
vn 0.3134 0.0972 0.9446
vn 0.2556 0.1143 0.9600
vn 0.2076 0.1116 0.9718
vn 0.1776 0.1023 0.9788
vn 0.1483 0.1119 0.9826
vn 0.1445 0.1213 0.9820
vn 0.1562 0.1124 0.9813
vn 0.1515 0.0862 0.9847
vn 0.1158 0.0576 0.9916
vn 0.0635 0.0618 0.9961
vn 0.1337 0.2404 0.9614
vn 0.1559 0.2343 0.9596
vn 0.1426 0.2458 0.9588
vn 0.2072 0.2290 0.9511
vn 0.2880 0.1917 0.9382
vn 0.3272 0.1598 0.9314
vn 0.3306 0.1273 0.9352
vn 0.3087 0.1047 0.9454
vn 0.2517 0.0922 0.9634
vn 0.1991 0.0829 0.9765
vn 0.1743 0.0732 0.9820
vn 0.1614 0.0745 0.9841
vn 0.1603 0.0961 0.9824
vn 0.1566 0.1127 0.9812
vn 0.1389 0.1117 0.9840
vn 0.1114 0.1148 0.9871
vn 0.0837 0.1348 0.9873
vn 0.1299 0.2854 0.9496
vn 0.1438 0.2978 0.9438
vn 0.1394 0.2752 0.9512
vn 0.1839 0.2561 0.9490
vn 0.2496 0.2173 0.9437
vn 0.2845 0.1761 0.9424
vn 0.2893 0.1352 0.9476
vn 0.2783 0.0971 0.9556
vn 0.2333 0.0689 0.9700
vn 0.1889 0.0559 0.9804
vn 0.1695 0.0469 0.9844
vn 0.1713 0.0494 0.9840
vn 0.1828 0.0596 0.9813
vn 0.1718 0.0670 0.9829
vn 0.1530 0.0764 0.9853
vn 0.1375 0.1156 0.9837
vn 0.1143 0.1636 0.9799
vt 0.015625 0.015625
vt 0.076172 0.015625
vt 0.076172 0.076172
vt 0.015625 0.076172
vt 0.136719 0.015625
vt 0.136719 0.076172
vt 0.197266 0.015625
vt 0.197266 0.076172
vt 0.257812 0.015625
vt 0.257812 0.076172
vt 0.318359 0.015625
vt 0.318359 0.076172
vt 0.378906 0.015625
vt 0.378906 0.076172
vt 0.439453 0.015625
vt 0.439453 0.076172
vt 0.500000 0.015625
vt 0.500000 0.076172
vt 0.560547 0.015625
vt 0.560547 0.076172
vt 0.621094 0.015625
vt 0.621094 0.076172
vt 0.681641 0.015625
vt 0.681641 0.076172
vt 0.742188 0.015625
vt 0.742188 0.076172
vt 0.802734 0.015625
vt 0.802734 0.076172
vt 0.863281 0.015625
vt 0.863281 0.076172
vt 0.923828 0.015625
vt 0.923828 0.076172
vt 0.984375 0.015625
vt 0.984375 0.076172
vt 0.076172 0.136719
vt 0.015625 0.136719
vt 0.136719 0.136719
vt 0.197266 0.136719
vt 0.257812 0.136719
vt 0.318359 0.136719
vt 0.378906 0.136719
vt 0.439453 0.136719
vt 0.500000 0.136719
vt 0.560547 0.136719
vt 0.621094 0.136719
vt 0.681641 0.136719
vt 0.742188 0.136719
vt 0.802734 0.136719
vt 0.863281 0.136719
vt 0.923828 0.136719
vt 0.984375 0.136719
vt 0.076172 0.197266
vt 0.015625 0.197266
vt 0.136719 0.197266
vt 0.197266 0.197266
vt 0.257812 0.197266
vt 0.318359 0.197266
vt 0.378906 0.197266
vt 0.439453 0.197266
vt 0.500000 0.197266
vt 0.560547 0.197266
vt 0.621094 0.197266
vt 0.681641 0.197266
vt 0.742188 0.197266
vt 0.802734 0.197266
vt 0.863281 0.197266
vt 0.923828 0.197266
vt 0.984375 0.197266
vt 0.076172 0.257812
vt 0.015625 0.257812
vt 0.136719 0.257812
vt 0.197266 0.257812
vt 0.257812 0.257812
vt 0.318359 0.257812
vt 0.378906 0.257812
vt 0.439453 0.257812
vt 0.500000 0.257812
vt 0.560547 0.257812
vt 0.621094 0.257812
vt 0.681641 0.257812
vt 0.742188 0.257812
vt 0.802734 0.257812
vt 0.863281 0.257812
vt 0.923828 0.257812
vt 0.984375 0.257812
vt 0.076172 0.318359
vt 0.015625 0.318359
vt 0.136719 0.318359
vt 0.197266 0.318359
vt 0.257812 0.318359
vt 0.318359 0.318359
vt 0.378906 0.318359
vt 0.439453 0.318359
vt 0.500000 0.318359
vt 0.560547 0.318359
vt 0.621094 0.318359
vt 0.681641 0.318359
vt 0.742188 0.318359
vt 0.802734 0.318359
vt 0.863281 0.318359
vt 0.923828 0.318359
vt 0.984375 0.318359
vt 0.076172 0.378906
vt 0.015625 0.378906
vt 0.136719 0.378906
vt 0.197266 0.378906
vt 0.257812 0.378906
vt 0.318359 0.378906
vt 0.378906 0.378906
vt 0.439453 0.378906
vt 0.500000 0.378906
vt 0.560547 0.378906
vt 0.621094 0.378906
vt 0.681641 0.378906
vt 0.742188 0.378906
vt 0.802734 0.378906
vt 0.863281 0.378906
vt 0.923828 0.378906
vt 0.984375 0.378906
vt 0.076172 0.439453
vt 0.015625 0.439453
vt 0.136719 0.439453
vt 0.197266 0.439453
vt 0.257812 0.439453
vt 0.318359 0.439453
vt 0.378906 0.439453
vt 0.439453 0.439453
vt 0.500000 0.439453
vt 0.560547 0.439453
vt 0.621094 0.439453
vt 0.681641 0.439453
vt 0.742188 0.439453
vt 0.802734 0.439453
vt 0.863281 0.439453
vt 0.923828 0.439453
vt 0.984375 0.439453
vt 0.076172 0.500000
vt 0.015625 0.500000
vt 0.136719 0.500000
vt 0.197266 0.500000
vt 0.257812 0.500000
vt 0.318359 0.500000
vt 0.378906 0.500000
vt 0.439453 0.500000
vt 0.500000 0.500000
vt 0.560547 0.500000
vt 0.621094 0.500000
vt 0.681641 0.500000
vt 0.742188 0.500000
vt 0.802734 0.500000
vt 0.863281 0.500000
vt 0.923828 0.500000
vt 0.984375 0.500000
vt 0.076172 0.560547
vt 0.015625 0.560547
vt 0.136719 0.560547
vt 0.197266 0.560547
vt 0.257812 0.560547
vt 0.318359 0.560547
vt 0.378906 0.560547
vt 0.439453 0.560547
vt 0.500000 0.560547
vt 0.560547 0.560547
vt 0.621094 0.560547
vt 0.681641 0.560547
vt 0.742188 0.560547
vt 0.802734 0.560547
vt 0.863281 0.560547
vt 0.923828 0.560547
vt 0.984375 0.560547
vt 0.076172 0.621094
vt 0.015625 0.621094
vt 0.136719 0.621094
vt 0.197266 0.621094
vt 0.257812 0.621094
vt 0.318359 0.621094
vt 0.378906 0.621094
vt 0.439453 0.621094
vt 0.500000 0.621094
vt 0.560547 0.621094
vt 0.621094 0.621094
vt 0.681641 0.621094
vt 0.742188 0.621094
vt 0.802734 0.621094
vt 0.863281 0.621094
vt 0.923828 0.621094
vt 0.984375 0.621094
vt 0.076172 0.681641
vt 0.015625 0.681641
vt 0.136719 0.681641
vt 0.197266 0.681641
vt 0.257812 0.681641
vt 0.318359 0.681641
vt 0.378906 0.681641
vt 0.439453 0.681641
vt 0.500000 0.681641
vt 0.560547 0.681641
vt 0.621094 0.681641
vt 0.681641 0.681641
vt 0.742188 0.681641
vt 0.802734 0.681641
vt 0.863281 0.681641
vt 0.923828 0.681641
vt 0.984375 0.681641
vt 0.076172 0.742188
vt 0.015625 0.742188
vt 0.136719 0.742188
vt 0.197266 0.742188
vt 0.257812 0.742188
vt 0.318359 0.742188
vt 0.378906 0.742188
vt 0.439453 0.742188
vt 0.500000 0.742188
vt 0.560547 0.742188
vt 0.621094 0.742188
vt 0.681641 0.742188
vt 0.742188 0.742188
vt 0.802734 0.742188
vt 0.863281 0.742188
vt 0.923828 0.742188
vt 0.984375 0.742188
vt 0.076172 0.802734
vt 0.015625 0.802734
vt 0.136719 0.802734
vt 0.197266 0.802734
vt 0.257812 0.802734
vt 0.318359 0.802734
vt 0.378906 0.802734
vt 0.439453 0.802734
vt 0.500000 0.802734
vt 0.560547 0.802734
vt 0.621094 0.802734
vt 0.681641 0.802734
vt 0.742188 0.802734
vt 0.802734 0.802734
vt 0.863281 0.802734
vt 0.923828 0.802734
vt 0.984375 0.802734
vt 0.076172 0.863281
vt 0.015625 0.863281
vt 0.136719 0.863281
vt 0.197266 0.863281
vt 0.257812 0.863281
vt 0.318359 0.863281
vt 0.378906 0.863281
vt 0.439453 0.863281
vt 0.500000 0.863281
vt 0.560547 0.863281
vt 0.621094 0.863281
vt 0.681641 0.863281
vt 0.742188 0.863281
vt 0.802734 0.863281
vt 0.863281 0.863281
vt 0.923828 0.863281
vt 0.984375 0.863281
vt 0.076172 0.923828
vt 0.015625 0.923828
vt 0.136719 0.923828
vt 0.197266 0.923828
vt 0.257812 0.923828
vt 0.318359 0.923828
vt 0.378906 0.923828
vt 0.439453 0.923828
vt 0.500000 0.923828
vt 0.560547 0.923828
vt 0.621094 0.923828
vt 0.681641 0.923828
vt 0.742188 0.923828
vt 0.802734 0.923828
vt 0.863281 0.923828
vt 0.923828 0.923828
vt 0.984375 0.923828
vt 0.076172 0.984375
vt 0.015625 0.984375
vt 0.136719 0.984375
vt 0.197266 0.984375
vt 0.257812 0.984375
vt 0.318359 0.984375
vt 0.378906 0.984375
vt 0.439453 0.984375
vt 0.500000 0.984375
vt 0.560547 0.984375
vt 0.621094 0.984375
vt 0.681641 0.984375
vt 0.742188 0.984375
vt 0.802734 0.984375
vt 0.863281 0.984375
vt 0.923828 0.984375
vt 0.984375 0.984375
s 1
f 1/1/1 2/2/2 19/3/3
f 1/1/1 19/3/3 18/4/4
f 2/2/2 3/5/5 20/6/6
f 2/2/2 20/6/6 19/3/3
f 3/5/5 4/7/7 21/8/8
f 3/5/5 21/8/8 20/6/6
f 4/7/7 5/9/9 22/10/10
f 4/7/7 22/10/10 21/8/8
f 5/9/9 6/11/11 23/12/12
f 5/9/9 23/12/12 22/10/10
f 6/11/11 7/13/13 24/14/14
f 6/11/11 24/14/14 23/12/12
f 7/13/13 8/15/15 25/16/16
f 7/13/13 25/16/16 24/14/14
f 8/15/15 9/17/17 26/18/18
f 8/15/15 26/18/18 25/16/16
f 9/17/17 10/19/19 27/20/20
f 9/17/17 27/20/20 26/18/18
f 10/19/19 11/21/21 28/22/22
f 10/19/19 28/22/22 27/20/20
f 11/21/21 12/23/23 29/24/24
f 11/21/21 29/24/24 28/22/22
f 12/23/23 13/25/25 30/26/26
f 12/23/23 30/26/26 29/24/24
f 13/25/25 14/27/27 31/28/28
f 13/25/25 31/28/28 30/26/26
f 14/27/27 15/29/29 32/30/30
f 14/27/27 32/30/30 31/28/28
f 15/29/29 16/31/31 33/32/32
f 15/29/29 33/32/32 32/30/30
f 16/31/31 17/33/33 34/34/34
f 16/31/31 34/34/34 33/32/32
f 18/4/4 19/3/3 36/35/35
f 18/4/4 36/35/35 35/36/36
f 19/3/3 20/6/6 37/37/37
f 19/3/3 37/37/37 36/35/35
f 20/6/6 21/8/8 38/38/38
f 20/6/6 38/38/38 37/37/37
f 21/8/8 22/10/10 39/39/39
f 21/8/8 39/39/39 38/38/38
f 22/10/10 23/12/12 40/40/40
f 22/10/10 40/40/40 39/39/39
f 23/12/12 24/14/14 41/41/41
f 23/12/12 41/41/41 40/40/40
f 24/14/14 25/16/16 42/42/42
f 24/14/14 42/42/42 41/41/41
f 25/16/16 26/18/18 43/43/43
f 25/16/16 43/43/43 42/42/42
f 26/18/18 27/20/20 44/44/44
f 26/18/18 44/44/44 43/43/43
f 27/20/20 28/22/22 45/45/45
f 27/20/20 45/45/45 44/44/44
f 28/22/22 29/24/24 46/46/46
f 28/22/22 46/46/46 45/45/45
f 29/24/24 30/26/26 47/47/47
f 29/24/24 47/47/47 46/46/46
f 30/26/26 31/28/28 48/48/48
f 30/26/26 48/48/48 47/47/47
f 31/28/28 32/30/30 49/49/49
f 31/28/28 49/49/49 48/48/48
f 32/30/30 33/32/32 50/50/50
f 32/30/30 50/50/50 49/49/49
f 33/32/32 34/34/34 51/51/51
f 33/32/32 51/51/51 50/50/50
f 35/36/36 36/35/35 53/52/52
f 35/36/36 53/52/52 52/53/53
f 36/35/35 37/37/37 54/54/54
f 36/35/35 54/54/54 53/52/52
f 37/37/37 38/38/38 55/55/55
f 37/37/37 55/55/55 54/54/54
f 38/38/38 39/39/39 56/56/56
f 38/38/38 56/56/56 55/55/55
f 39/39/39 40/40/40 57/57/57
f 39/39/39 57/57/57 56/56/56
f 40/40/40 41/41/41 58/58/58
f 40/40/40 58/58/58 57/57/57
f 41/41/41 42/42/42 59/59/59
f 41/41/41 59/59/59 58/58/58
f 42/42/42 43/43/43 60/60/60
f 42/42/42 60/60/60 59/59/59
f 43/43/43 44/44/44 61/61/61
f 43/43/43 61/61/61 60/60/60
f 44/44/44 45/45/45 62/62/62
f 44/44/44 62/62/62 61/61/61
f 45/45/45 46/46/46 63/63/63
f 45/45/45 63/63/63 62/62/62
f 46/46/46 47/47/47 64/64/64
f 46/46/46 64/64/64 63/63/63
f 47/47/47 48/48/48 65/65/65
f 47/47/47 65/65/65 64/64/64
f 48/48/48 49/49/49 66/66/66
f 48/48/48 66/66/66 65/65/65
f 49/49/49 50/50/50 67/67/67
f 49/49/49 67/67/67 66/66/66
f 50/50/50 51/51/51 68/68/68
f 50/50/50 68/68/68 67/67/67
f 52/53/53 53/52/52 70/69/69
f 52/53/53 70/69/69 69/70/70
f 53/52/52 54/54/54 71/71/71
f 53/52/52 71/71/71 70/69/69
f 54/54/54 55/55/55 72/72/72
f 54/54/54 72/72/72 71/71/71
f 55/55/55 56/56/56 73/73/73
f 55/55/55 73/73/73 72/72/72
f 56/56/56 57/57/57 74/74/74
f 56/56/56 74/74/74 73/73/73
f 57/57/57 58/58/58 75/75/75
f 57/57/57 75/75/75 74/74/74
f 58/58/58 59/59/59 76/76/76
f 58/58/58 76/76/76 75/75/75
f 59/59/59 60/60/60 77/77/77
f 59/59/59 77/77/77 76/76/76
f 60/60/60 61/61/61 78/78/78
f 60/60/60 78/78/78 77/77/77
f 61/61/61 62/62/62 79/79/79
f 61/61/61 79/79/79 78/78/78
f 62/62/62 63/63/63 80/80/80
f 62/62/62 80/80/80 79/79/79
f 63/63/63 64/64/64 81/81/81
f 63/63/63 81/81/81 80/80/80
f 64/64/64 65/65/65 82/82/82
f 64/64/64 82/82/82 81/81/81
f 65/65/65 66/66/66 83/83/83
f 65/65/65 83/83/83 82/82/82
f 66/66/66 67/67/67 84/84/84
f 66/66/66 84/84/84 83/83/83
f 67/67/67 68/68/68 85/85/85
f 67/67/67 85/85/85 84/84/84
f 69/70/70 70/69/69 87/86/86
f 69/70/70 87/86/86 86/87/87
f 70/69/69 71/71/71 88/88/88
f 70/69/69 88/88/88 87/86/86
f 71/71/71 72/72/72 89/89/89
f 71/71/71 89/89/89 88/88/88
f 72/72/72 73/73/73 90/90/90
f 72/72/72 90/90/90 89/89/89
f 73/73/73 74/74/74 91/91/91
f 73/73/73 91/91/91 90/90/90
f 74/74/74 75/75/75 92/92/92
f 74/74/74 92/92/92 91/91/91
f 75/75/75 76/76/76 93/93/93
f 75/75/75 93/93/93 92/92/92
f 76/76/76 77/77/77 94/94/94
f 76/76/76 94/94/94 93/93/93
f 77/77/77 78/78/78 95/95/95
f 77/77/77 95/95/95 94/94/94
f 78/78/78 79/79/79 96/96/96
f 78/78/78 96/96/96 95/95/95
f 79/79/79 80/80/80 97/97/97
f 79/79/79 97/97/97 96/96/96
f 80/80/80 81/81/81 98/98/98
f 80/80/80 98/98/98 97/97/97
f 81/81/81 82/82/82 99/99/99
f 81/81/81 99/99/99 98/98/98
f 82/82/82 83/83/83 100/100/100
f 82/82/82 100/100/100 99/99/99
f 83/83/83 84/84/84 101/101/101
f 83/83/83 101/101/101 100/100/100
f 84/84/84 85/85/85 102/102/102
f 84/84/84 102/102/102 101/101/101
f 86/87/87 87/86/86 104/103/103
f 86/87/87 104/103/103 103/104/104
f 87/86/86 88/88/88 105/105/105
f 87/86/86 105/105/105 104/103/103
f 88/88/88 89/89/89 106/106/106
f 88/88/88 106/106/106 105/105/105
f 89/89/89 90/90/90 107/107/107
f 89/89/89 107/107/107 106/106/106
f 90/90/90 91/91/91 108/108/108
f 90/90/90 108/108/108 107/107/107
f 91/91/91 92/92/92 109/109/109
f 91/91/91 109/109/109 108/108/108
f 92/92/92 93/93/93 110/110/110
f 92/92/92 110/110/110 109/109/109
f 93/93/93 94/94/94 111/111/111
f 93/93/93 111/111/111 110/110/110
f 94/94/94 95/95/95 112/112/112
f 94/94/94 112/112/112 111/111/111
f 95/95/95 96/96/96 113/113/113
f 95/95/95 113/113/113 112/112/112
f 96/96/96 97/97/97 114/114/114
f 96/96/96 114/114/114 113/113/113
f 97/97/97 98/98/98 115/115/115
f 97/97/97 115/115/115 114/114/114
f 98/98/98 99/99/99 116/116/116
f 98/98/98 116/116/116 115/115/115
f 99/99/99 100/100/100 117/117/117
f 99/99/99 117/117/117 116/116/116
f 100/100/100 101/101/101 118/118/118
f 100/100/100 118/118/118 117/117/117
f 101/101/101 102/102/102 119/119/119
f 101/101/101 119/119/119 118/118/118
f 103/104/104 104/103/103 121/120/120
f 103/104/104 121/120/120 120/121/121
f 104/103/103 105/105/105 122/122/122
f 104/103/103 122/122/122 121/120/120
f 105/105/105 106/106/106 123/123/123
f 105/105/105 123/123/123 122/122/122
f 106/106/106 107/107/107 124/124/124
f 106/106/106 124/124/124 123/123/123
f 107/107/107 108/108/108 125/125/125
f 107/107/107 125/125/125 124/124/124
f 108/108/108 109/109/109 126/126/126
f 108/108/108 126/126/126 125/125/125
f 109/109/109 110/110/110 127/127/127
f 109/109/109 127/127/127 126/126/126
f 110/110/110 111/111/111 128/128/128
f 110/110/110 128/128/128 127/127/127
f 111/111/111 112/112/112 129/129/129
f 111/111/111 129/129/129 128/128/128
f 112/112/112 113/113/113 130/130/130
f 112/112/112 130/130/130 129/129/129
f 113/113/113 114/114/114 131/131/131
f 113/113/113 131/131/131 130/130/130
f 114/114/114 115/115/115 132/132/132
f 114/114/114 132/132/132 131/131/131
f 115/115/115 116/116/116 133/133/133
f 115/115/115 133/133/133 132/132/132
f 116/116/116 117/117/117 134/134/134
f 116/116/116 134/134/134 133/133/133
f 117/117/117 118/118/118 135/135/135
f 117/117/117 135/135/135 134/134/134
f 118/118/118 119/119/119 136/136/136
f 118/118/118 136/136/136 135/135/135
f 120/121/121 121/120/120 138/137/137
f 120/121/121 138/137/137 137/138/138
f 121/120/120 122/122/122 139/139/139
f 121/120/120 139/139/139 138/137/137
f 122/122/122 123/123/123 140/140/140
f 122/122/122 140/140/140 139/139/139
f 123/123/123 124/124/124 141/141/141
f 123/123/123 141/141/141 140/140/140
f 124/124/124 125/125/125 142/142/142
f 124/124/124 142/142/142 141/141/141
f 125/125/125 126/126/126 143/143/143
f 125/125/125 143/143/143 142/142/142
f 126/126/126 127/127/127 144/144/144
f 126/126/126 144/144/144 143/143/143
f 127/127/127 128/128/128 145/145/145
f 127/127/127 145/145/145 144/144/144
f 128/128/128 129/129/129 146/146/146
f 128/128/128 146/146/146 145/145/145
f 129/129/129 130/130/130 147/147/147
f 129/129/129 147/147/147 146/146/146
f 130/130/130 131/131/131 148/148/148
f 130/130/130 148/148/148 147/147/147
f 131/131/131 132/132/132 149/149/149
f 131/131/131 149/149/149 148/148/148
f 132/132/132 133/133/133 150/150/150
f 132/132/132 150/150/150 149/149/149
f 133/133/133 134/134/134 151/151/151
f 133/133/133 151/151/151 150/150/150
f 134/134/134 135/135/135 152/152/152
f 134/134/134 152/152/152 151/151/151
f 135/135/135 136/136/136 153/153/153
f 135/135/135 153/153/153 152/152/152
f 137/138/138 138/137/137 155/154/154
f 137/138/138 155/154/154 154/155/155
f 138/137/137 139/139/139 156/156/156
f 138/137/137 156/156/156 155/154/154
f 139/139/139 140/140/140 157/157/157
f 139/139/139 157/157/157 156/156/156
f 140/140/140 141/141/141 158/158/158
f 140/140/140 158/158/158 157/157/157
f 141/141/141 142/142/142 159/159/159
f 141/141/141 159/159/159 158/158/158
f 142/142/142 143/143/143 160/160/160
f 142/142/142 160/160/160 159/159/159
f 143/143/143 144/144/144 161/161/161
f 143/143/143 161/161/161 160/160/160
f 144/144/144 145/145/145 162/162/162
f 144/144/144 162/162/162 161/161/161
f 145/145/145 146/146/146 163/163/163
f 145/145/145 163/163/163 162/162/162
f 146/146/146 147/147/147 164/164/164
f 146/146/146 164/164/164 163/163/163
f 147/147/147 148/148/148 165/165/165
f 147/147/147 165/165/165 164/164/164
f 148/148/148 149/149/149 166/166/166
f 148/148/148 166/166/166 165/165/165
f 149/149/149 150/150/150 167/167/167
f 149/149/149 167/167/167 166/166/166
f 150/150/150 151/151/151 168/168/168
f 150/150/150 168/168/168 167/167/167
f 151/151/151 152/152/152 169/169/169
f 151/151/151 169/169/169 168/168/168
f 152/152/152 153/153/153 170/170/170
f 152/152/152 170/170/170 169/169/169
f 154/155/155 155/154/154 172/171/171
f 154/155/155 172/171/171 171/172/172
f 155/154/154 156/156/156 173/173/173
f 155/154/154 173/173/173 172/171/171
f 156/156/156 157/157/157 174/174/174
f 156/156/156 174/174/174 173/173/173
f 157/157/157 158/158/158 175/175/175
f 157/157/157 175/175/175 174/174/174
f 158/158/158 159/159/159 176/176/176
f 158/158/158 176/176/176 175/175/175
f 159/159/159 160/160/160 177/177/177
f 159/159/159 177/177/177 176/176/176
f 160/160/160 161/161/161 178/178/178
f 160/160/160 178/178/178 177/177/177
f 161/161/161 162/162/162 179/179/179
f 161/161/161 179/179/179 178/178/178
f 162/162/162 163/163/163 180/180/180
f 162/162/162 180/180/180 179/179/179
f 163/163/163 164/164/164 181/181/181
f 163/163/163 181/181/181 180/180/180
f 164/164/164 165/165/165 182/182/182
f 164/164/164 182/182/182 181/181/181
f 165/165/165 166/166/166 183/183/183
f 165/165/165 183/183/183 182/182/182
f 166/166/166 167/167/167 184/184/184
f 166/166/166 184/184/184 183/183/183
f 167/167/167 168/168/168 185/185/185
f 167/167/167 185/185/185 184/184/184
f 168/168/168 169/169/169 186/186/186
f 168/168/168 186/186/186 185/185/185
f 169/169/169 170/170/170 187/187/187
f 169/169/169 187/187/187 186/186/186
f 171/172/172 172/171/171 189/188/188
f 171/172/172 189/188/188 188/189/189
f 172/171/171 173/173/173 190/190/190
f 172/171/171 190/190/190 189/188/188
f 173/173/173 174/174/174 191/191/191
f 173/173/173 191/191/191 190/190/190
f 174/174/174 175/175/175 192/192/192
f 174/174/174 192/192/192 191/191/191
f 175/175/175 176/176/176 193/193/193
f 175/175/175 193/193/193 192/192/192
f 176/176/176 177/177/177 194/194/194
f 176/176/176 194/194/194 193/193/193
f 177/177/177 178/178/178 195/195/195
f 177/177/177 195/195/195 194/194/194
f 178/178/178 179/179/179 196/196/196
f 178/178/178 196/196/196 195/195/195
f 179/179/179 180/180/180 197/197/197
f 179/179/179 197/197/197 196/196/196
f 180/180/180 181/181/181 198/198/198
f 180/180/180 198/198/198 197/197/197
f 181/181/181 182/182/182 199/199/199
f 181/181/181 199/199/199 198/198/198
f 182/182/182 183/183/183 200/200/200
f 182/182/182 200/200/200 199/199/199
f 183/183/183 184/184/184 201/201/201
f 183/183/183 201/201/201 200/200/200
f 184/184/184 185/185/185 202/202/202
f 184/184/184 202/202/202 201/201/201
f 185/185/185 186/186/186 203/203/203
f 185/185/185 203/203/203 202/202/202
f 186/186/186 187/187/187 204/204/204
f 186/186/186 204/204/204 203/203/203
f 188/189/189 189/188/188 206/205/205
f 188/189/189 206/205/205 205/206/206
f 189/188/188 190/190/190 207/207/207
f 189/188/188 207/207/207 206/205/205
f 190/190/190 191/191/191 208/208/208
f 190/190/190 208/208/208 207/207/207
f 191/191/191 192/192/192 209/209/209
f 191/191/191 209/209/209 208/208/208
f 192/192/192 193/193/193 210/210/210
f 192/192/192 210/210/210 209/209/209
f 193/193/193 194/194/194 211/211/211
f 193/193/193 211/211/211 210/210/210
f 194/194/194 195/195/195 212/212/212
f 194/194/194 212/212/212 211/211/211
f 195/195/195 196/196/196 213/213/213
f 195/195/195 213/213/213 212/212/212
f 196/196/196 197/197/197 214/214/214
f 196/196/196 214/214/214 213/213/213
f 197/197/197 198/198/198 215/215/215
f 197/197/197 215/215/215 214/214/214
f 198/198/198 199/199/199 216/216/216
f 198/198/198 216/216/216 215/215/215
f 199/199/199 200/200/200 217/217/217
f 199/199/199 217/217/217 216/216/216
f 200/200/200 201/201/201 218/218/218
f 200/200/200 218/218/218 217/217/217
f 201/201/201 202/202/202 219/219/219
f 201/201/201 219/219/219 218/218/218
f 202/202/202 203/203/203 220/220/220
f 202/202/202 220/220/220 219/219/219
f 203/203/203 204/204/204 221/221/221
f 203/203/203 221/221/221 220/220/220
f 205/206/206 206/205/205 223/222/222
f 205/206/206 223/222/222 222/223/223
f 206/205/205 207/207/207 224/224/224
f 206/205/205 224/224/224 223/222/222
f 207/207/207 208/208/208 225/225/225
f 207/207/207 225/225/225 224/224/224
f 208/208/208 209/209/209 226/226/226
f 208/208/208 226/226/226 225/225/225
f 209/209/209 210/210/210 227/227/227
f 209/209/209 227/227/227 226/226/226
f 210/210/210 211/211/211 228/228/228
f 210/210/210 228/228/228 227/227/227
f 211/211/211 212/212/212 229/229/229
f 211/211/211 229/229/229 228/228/228
f 212/212/212 213/213/213 230/230/230
f 212/212/212 230/230/230 229/229/229
f 213/213/213 214/214/214 231/231/231
f 213/213/213 231/231/231 230/230/230
f 214/214/214 215/215/215 232/232/232
f 214/214/214 232/232/232 231/231/231
f 215/215/215 216/216/216 233/233/233
f 215/215/215 233/233/233 232/232/232
f 216/216/216 217/217/217 234/234/234
f 216/216/216 234/234/234 233/233/233
f 217/217/217 218/218/218 235/235/235
f 217/217/217 235/235/235 234/234/234
f 218/218/218 219/219/219 236/236/236
f 218/218/218 236/236/236 235/235/235
f 219/219/219 220/220/220 237/237/237
f 219/219/219 237/237/237 236/236/236
f 220/220/220 221/221/221 238/238/238
f 220/220/220 238/238/238 237/237/237
f 222/223/223 223/222/222 240/239/239
f 222/223/223 240/239/239 239/240/240
f 223/222/222 224/224/224 241/241/241
f 223/222/222 241/241/241 240/239/239
f 224/224/224 225/225/225 242/242/242
f 224/224/224 242/242/242 241/241/241
f 225/225/225 226/226/226 243/243/243
f 225/225/225 243/243/243 242/242/242
f 226/226/226 227/227/227 244/244/244
f 226/226/226 244/244/244 243/243/243
f 227/227/227 228/228/228 245/245/245
f 227/227/227 245/245/245 244/244/244
f 228/228/228 229/229/229 246/246/246
f 228/228/228 246/246/246 245/245/245
f 229/229/229 230/230/230 247/247/247
f 229/229/229 247/247/247 246/246/246
f 230/230/230 231/231/231 248/248/248
f 230/230/230 248/248/248 247/247/247
f 231/231/231 232/232/232 249/249/249
f 231/231/231 249/249/249 248/248/248
f 232/232/232 233/233/233 250/250/250
f 232/232/232 250/250/250 249/249/249
f 233/233/233 234/234/234 251/251/251
f 233/233/233 251/251/251 250/250/250
f 234/234/234 235/235/235 252/252/252
f 234/234/234 252/252/252 251/251/251
f 235/235/235 236/236/236 253/253/253
f 235/235/235 253/253/253 252/252/252
f 236/236/236 237/237/237 254/254/254
f 236/236/236 254/254/254 253/253/253
f 237/237/237 238/238/238 255/255/255
f 237/237/237 255/255/255 254/254/254
f 239/240/240 240/239/239 257/256/256
f 239/240/240 257/256/256 256/257/257
f 240/239/239 241/241/241 258/258/258
f 240/239/239 258/258/258 257/256/256
f 241/241/241 242/242/242 259/259/259
f 241/241/241 259/259/259 258/258/258
f 242/242/242 243/243/243 260/260/260
f 242/242/242 260/260/260 259/259/259
f 243/243/243 244/244/244 261/261/261
f 243/243/243 261/261/261 260/260/260
f 244/244/244 245/245/245 262/262/262
f 244/244/244 262/262/262 261/261/261
f 245/245/245 246/246/246 263/263/263
f 245/245/245 263/263/263 262/262/262
f 246/246/246 247/247/247 264/264/264
f 246/246/246 264/264/264 263/263/263
f 247/247/247 248/248/248 265/265/265
f 247/247/247 265/265/265 264/264/264
f 248/248/248 249/249/249 266/266/266
f 248/248/248 266/266/266 265/265/265
f 249/249/249 250/250/250 267/267/267
f 249/249/249 267/267/267 266/266/266
f 250/250/250 251/251/251 268/268/268
f 250/250/250 268/268/268 267/267/267
f 251/251/251 252/252/252 269/269/269
f 251/251/251 269/269/269 268/268/268
f 252/252/252 253/253/253 270/270/270
f 252/252/252 270/270/270 269/269/269
f 253/253/253 254/254/254 271/271/271
f 253/253/253 271/271/271 270/270/270
f 254/254/254 255/255/255 272/272/272
f 254/254/254 272/272/272 271/271/271
f 256/257/257 257/256/256 274/273/273
f 256/257/257 274/273/273 273/274/274
f 257/256/256 258/258/258 275/275/275
f 257/256/256 275/275/275 274/273/273
f 258/258/258 259/259/259 276/276/276
f 258/258/258 276/276/276 275/275/275
f 259/259/259 260/260/260 277/277/277
f 259/259/259 277/277/277 276/276/276
f 260/260/260 261/261/261 278/278/278
f 260/260/260 278/278/278 277/277/277
f 261/261/261 262/262/262 279/279/279
f 261/261/261 279/279/279 278/278/278
f 262/262/262 263/263/263 280/280/280
f 262/262/262 280/280/280 279/279/279
f 263/263/263 264/264/264 281/281/281
f 263/263/263 281/281/281 280/280/280
f 264/264/264 265/265/265 282/282/282
f 264/264/264 282/282/282 281/281/281
f 265/265/265 266/266/266 283/283/283
f 265/265/265 283/283/283 282/282/282
f 266/266/266 267/267/267 284/284/284
f 266/266/266 284/284/284 283/283/283
f 267/267/267 268/268/268 285/285/285
f 267/267/267 285/285/285 284/284/284
f 268/268/268 269/269/269 286/286/286
f 268/268/268 286/286/286 285/285/285
f 269/269/269 270/270/270 287/287/287
f 269/269/269 287/287/287 286/286/286
f 270/270/270 271/271/271 288/288/288
f 270/270/270 288/288/288 287/287/287
f 271/271/271 272/272/272 289/289/289
f 271/271/271 289/289/289 288/288/288
