mtllib terrain_far_05_03.mtl
usemtl terrain_far_05_03
# Blender 5.1.1
# www.blender.org
o terrain_far_05_03
v -320.000000 -320.000000 -124.886002
v -280.000000 -320.000000 -106.773842
v -240.000000 -320.000000 -100.411942
v -200.000000 -320.000000 -103.310806
v -160.000000 -320.000000 -101.298058
v -120.000000 -320.000000 -95.441742
v -80.000000 -320.000000 -94.441422
v -40.000000 -320.000000 -108.635147
v 0.000000 -320.000000 -123.076157
v 40.000000 -320.000000 -119.696632
v 80.000000 -320.000000 -95.954956
v 120.000000 -320.000000 -83.899055
v 160.000000 -320.000000 -95.670265
v 200.000000 -320.000000 -102.700119
v 240.000000 -320.000000 -99.856918
v 280.000000 -320.000000 -92.838745
v 320.000000 -320.000000 -77.730286
v -320.000000 -280.000000 -113.317734
v -280.000000 -280.000000 -98.064133
v -240.000000 -280.000000 -93.345177
v -200.000000 -280.000000 -94.426003
v -160.000000 -280.000000 -92.945854
v -120.000000 -280.000000 -85.274437
v -80.000000 -280.000000 -78.868469
v -40.000000 -280.000000 -84.713768
v 0.000000 -280.000000 -98.953789
v 40.000000 -280.000000 -111.896706
v 80.000000 -280.000000 -108.627670
v 120.000000 -280.000000 -102.912827
v 160.000000 -280.000000 -103.929672
v 200.000000 -280.000000 -88.605896
v 240.000000 -280.000000 -72.462685
v 280.000000 -280.000000 -62.020741
v 320.000000 -280.000000 -48.961109
v -320.000000 -240.000000 -104.523148
v -280.000000 -240.000000 -95.576462
v -240.000000 -240.000000 -88.052635
v -200.000000 -240.000000 -84.477348
v -160.000000 -240.000000 -82.564735
v -120.000000 -240.000000 -75.647919
v -80.000000 -240.000000 -65.506752
v -40.000000 -240.000000 -63.917774
v 0.000000 -240.000000 -73.801247
v 40.000000 -240.000000 -91.868591
v 80.000000 -240.000000 -106.567139
v 120.000000 -240.000000 -115.342407
v 160.000000 -240.000000 -107.173294
v 200.000000 -240.000000 -82.634750
v 240.000000 -240.000000 -57.353580
v 280.000000 -240.000000 -42.107098
v 320.000000 -240.000000 -36.992439
v -320.000000 -200.000000 -94.582481
v -280.000000 -200.000000 -91.351212
v -240.000000 -200.000000 -84.395821
v -200.000000 -200.000000 -76.103844
v -160.000000 -200.000000 -70.060760
v -120.000000 -200.000000 -65.990906
v -80.000000 -200.000000 -55.610157
v -40.000000 -200.000000 -47.048084
v 0.000000 -200.000000 -51.523346
v 40.000000 -200.000000 -65.858871
v 80.000000 -200.000000 -83.279259
v 120.000000 -200.000000 -98.873131
v 160.000000 -200.000000 -96.086098
v 200.000000 -200.000000 -86.420990
v 240.000000 -200.000000 -76.721695
v 280.000000 -200.000000 -64.568901
v 320.000000 -200.000000 -57.895058
v -320.000000 -160.000000 -84.140129
v -280.000000 -160.000000 -86.784187
v -240.000000 -160.000000 -82.508652
v -200.000000 -160.000000 -73.000847
v -160.000000 -160.000000 -61.415936
v -120.000000 -160.000000 -55.215897
v -80.000000 -160.000000 -47.779278
v -40.000000 -160.000000 -36.815147
v 0.000000 -160.000000 -33.847420
v 40.000000 -160.000000 -42.888958
v 80.000000 -160.000000 -59.348579
v 120.000000 -160.000000 -69.103897
v 160.000000 -160.000000 -66.658455
v 200.000000 -160.000000 -65.226334
v 240.000000 -160.000000 -70.919952
v 280.000000 -160.000000 -68.462708
v 320.000000 -160.000000 -61.059483
v -320.000000 -120.000000 -68.029274
v -280.000000 -120.000000 -73.176529
v -240.000000 -120.000000 -76.428741
v -200.000000 -120.000000 -69.636444
v -160.000000 -120.000000 -54.924549
v -120.000000 -120.000000 -45.424873
v -80.000000 -120.000000 -38.706715
v -40.000000 -120.000000 -30.261436
v 0.000000 -120.000000 -22.591167
v 40.000000 -120.000000 -24.548565
v 80.000000 -120.000000 -33.303596
v 120.000000 -120.000000 -37.265781
v 160.000000 -120.000000 -32.245472
v 200.000000 -120.000000 -29.106752
v 240.000000 -120.000000 -32.859852
v 280.000000 -120.000000 -35.026802
v 320.000000 -120.000000 -33.891479
v -320.000000 -80.000000 -52.914215
v -280.000000 -80.000000 -55.594059
v -240.000000 -80.000000 -63.174007
v -200.000000 -80.000000 -64.020172
v -160.000000 -80.000000 -50.577793
v -120.000000 -80.000000 -38.343887
v -80.000000 -80.000000 -30.581728
v -40.000000 -80.000000 -22.275244
v 0.000000 -80.000000 -11.977426
v 40.000000 -80.000000 -6.716060
v 80.000000 -80.000000 -7.490684
v 120.000000 -80.000000 -8.252844
v 160.000000 -80.000000 -2.780574
v 200.000000 -80.000000 3.453374
v 240.000000 -80.000000 7.371336
v 280.000000 -80.000000 7.118230
v 320.000000 -80.000000 -2.634629
v -320.000000 -40.000000 -41.669117
v -280.000000 -40.000000 -37.498707
v -240.000000 -40.000000 -42.123707
v -200.000000 -40.000000 -49.740887
v -160.000000 -40.000000 -44.551582
v -120.000000 -40.000000 -31.379803
v -80.000000 -40.000000 -21.631907
v -40.000000 -40.000000 -11.960316
v 0.000000 -40.000000 -0.331036
v 40.000000 -40.000000 10.532401
v 80.000000 -40.000000 17.304482
v 120.000000 -40.000000 20.499449
v 160.000000 -40.000000 25.473366
v 200.000000 -40.000000 34.148205
v 240.000000 -40.000000 42.446224
v 280.000000 -40.000000 38.848507
v 320.000000 -40.000000 16.357063
v -320.000000 0.000000 -31.237116
v -280.000000 0.000000 -21.866375
v -240.000000 0.000000 -21.026268
v -200.000000 0.000000 -28.366112
v -160.000000 0.000000 -32.817886
v -120.000000 0.000000 -24.222733
v -80.000000 0.000000 -12.118756
v -40.000000 0.000000 -0.909514
v 0.000000 0.000000 10.645120
v 40.000000 0.000000 24.117849
v 80.000000 0.000000 36.811832
v 120.000000 0.000000 45.736324
v 160.000000 0.000000 53.204403
v 200.000000 0.000000 61.901791
v 240.000000 0.000000 69.366020
v 280.000000 0.000000 56.953671
v 320.000000 0.000000 24.926123
v -320.000000 40.000000 -17.892681
v -280.000000 40.000000 -6.801041
v -240.000000 40.000000 -2.716195
v -200.000000 40.000000 -8.138471
v -160.000000 40.000000 -15.247425
v -120.000000 40.000000 -15.603592
v -80.000000 40.000000 -3.840124
v -40.000000 40.000000 10.594786
v 0.000000 40.000000 22.324081
v 40.000000 40.000000 35.750881
v 80.000000 40.000000 50.165459
v 120.000000 40.000000 62.856571
v 160.000000 40.000000 74.487991
v 200.000000 40.000000 85.158867
v 240.000000 40.000000 90.286407
v 280.000000 40.000000 73.275124
v 320.000000 40.000000 35.838154
v -320.000000 80.000000 -5.455304
v -280.000000 80.000000 8.254691
v -240.000000 80.000000 14.172015
v -200.000000 80.000000 8.225876
v -160.000000 80.000000 0.552190
v -120.000000 80.000000 -5.158714
v -80.000000 80.000000 1.020960
v -40.000000 80.000000 15.709477
v 0.000000 80.000000 30.926687
v 40.000000 80.000000 45.276150
v 80.000000 80.000000 59.034908
v 120.000000 80.000000 72.313675
v 160.000000 80.000000 85.408119
v 200.000000 80.000000 97.234764
v 240.000000 80.000000 102.306786
v 280.000000 80.000000 86.678459
v 320.000000 80.000000 56.211739
v -320.000000 120.000000 0.899005
v -280.000000 120.000000 17.135897
v -240.000000 120.000000 24.395437
v -200.000000 120.000000 18.175562
v -160.000000 120.000000 11.061799
v -120.000000 120.000000 4.272072
v -80.000000 120.000000 5.633306
v -40.000000 120.000000 16.056496
v 0.000000 120.000000 32.863747
v 40.000000 120.000000 49.600868
v 80.000000 120.000000 64.326347
v 120.000000 120.000000 78.081703
v 160.000000 120.000000 91.590225
v 200.000000 120.000000 103.353714
v 240.000000 120.000000 109.942284
v 280.000000 120.000000 99.144714
v 320.000000 120.000000 72.486137
v -320.000000 160.000000 7.638853
v -280.000000 160.000000 23.524487
v -240.000000 160.000000 31.795408
v -200.000000 160.000000 27.834850
v -160.000000 160.000000 22.435898
v -120.000000 160.000000 15.861320
v -80.000000 160.000000 12.983512
v -40.000000 160.000000 17.736197
v 0.000000 160.000000 33.125412
v 40.000000 160.000000 51.517902
v 80.000000 160.000000 67.610550
v 120.000000 160.000000 82.269714
v 160.000000 160.000000 96.291565
v 200.000000 160.000000 108.568794
v 240.000000 160.000000 115.763145
v 280.000000 160.000000 106.390549
v 320.000000 160.000000 87.445297
v -320.000000 200.000000 16.858423
v -280.000000 200.000000 30.837976
v -240.000000 200.000000 41.391823
v -200.000000 200.000000 42.144176
v -160.000000 200.000000 37.297695
v -120.000000 200.000000 30.838215
v -80.000000 200.000000 25.219175
v -40.000000 200.000000 22.829466
v 0.000000 200.000000 34.666264
v 40.000000 200.000000 53.298771
v 80.000000 200.000000 70.536629
v 120.000000 200.000000 86.244873
v 160.000000 200.000000 101.053223
v 200.000000 200.000000 114.462173
v 240.000000 200.000000 123.577988
v 280.000000 200.000000 120.657227
v 320.000000 200.000000 113.584114
v -320.000000 240.000000 21.577309
v -280.000000 240.000000 36.012539
v -240.000000 240.000000 51.298004
v -200.000000 240.000000 58.359203
v -160.000000 240.000000 54.716423
v -120.000000 240.000000 47.536396
v -80.000000 240.000000 39.896034
v -40.000000 240.000000 31.369268
v 0.000000 240.000000 37.785080
v 40.000000 240.000000 54.302414
v 80.000000 240.000000 72.480545
v 120.000000 240.000000 90.536163
v 160.000000 240.000000 106.373016
v 200.000000 240.000000 121.121651
v 240.000000 240.000000 133.978561
v 280.000000 240.000000 141.580505
v 320.000000 240.000000 144.150146
v -320.000000 280.000000 17.466293
v -280.000000 280.000000 34.755398
v -240.000000 280.000000 52.249359
v -200.000000 280.000000 64.807571
v -160.000000 280.000000 66.664558
v -120.000000 280.000000 61.400219
v -80.000000 280.000000 54.177956
v -40.000000 280.000000 43.054226
v 0.000000 280.000000 44.407131
v 40.000000 280.000000 59.506943
v 80.000000 280.000000 76.278099
v 120.000000 280.000000 95.175438
v 160.000000 280.000000 112.102005
v 200.000000 280.000000 128.355026
v 240.000000 280.000000 143.045364
v 280.000000 280.000000 157.059372
v 320.000000 280.000000 166.404694
v -320.000000 320.000000 10.327546
v -280.000000 320.000000 26.654730
v -240.000000 320.000000 44.078449
v -200.000000 320.000000 58.470512
v -160.000000 320.000000 64.981911
v -120.000000 320.000000 65.216400
v -80.000000 320.000000 62.808720
v -40.000000 320.000000 53.840816
v 0.000000 320.000000 52.490116
v 40.000000 320.000000 64.775101
v 80.000000 320.000000 82.528709
v 120.000000 320.000000 100.613937
v 160.000000 320.000000 117.677383
v 200.000000 320.000000 134.997513
v 240.000000 320.000000 151.053238
v 280.000000 320.000000 166.441269
v 320.000000 320.000000 179.138458
vn -0.3171 -0.2840 0.9049
vn -0.2828 -0.2561 0.9244
vn -0.2400 -0.1346 0.9614
vn -0.2478 -0.2390 0.9389
vn -0.0423 -0.2056 0.9777
vn -0.0449 -0.1525 0.9873
vn 0.0108 -0.2195 0.9755
vn -0.0049 -0.2291 0.9734
vn -0.0960 -0.1947 0.9762
vn -0.1107 -0.2266 0.9677
vn -0.0829 -0.2403 0.9672
vn -0.1684 -0.2368 0.9569
vn 0.1516 -0.3626 0.9195
vn -0.0066 -0.3401 0.9404
vn 0.3013 -0.4479 0.8418
vn 0.2141 -0.4766 0.8527
vn 0.1313 -0.2860 0.9492
vn 0.2779 -0.5038 0.8179
vn -0.3187 0.1195 0.9403
vn 0.1135 -0.3264 0.9384
vn -0.3817 0.3557 0.8531
vn -0.1106 0.1307 0.9852
vn -0.0032 0.4452 0.8954
vn -0.0546 0.3652 0.9293
vn 0.2198 0.2770 0.9354
vn -0.1743 0.1401 0.9747
vn 0.0518 -0.1323 0.9899
vn -0.3564 -0.2273 0.9062
vn -0.1179 -0.2670 0.9565
vn -0.2816 -0.4502 0.8474
vn -0.2392 -0.3362 0.9109
vn -0.2416 -0.5197 0.8195
vn -0.2720 -0.4833 0.8321
vn -0.2681 -0.4725 0.8396
vn -0.2010 -0.0819 0.9762
vn -0.1457 -0.2256 0.9633
vn -0.1366 -0.1101 0.9845
vn -0.0667 -0.2227 0.9726
vn -0.1055 -0.2735 0.9561
vn -0.2030 -0.2295 0.9519
vn -0.1394 -0.2765 0.9509
vn 0.0934 -0.4241 0.9008
vn 0.2878 -0.4884 0.8238
vn 0.3345 -0.4700 0.8168
vn 0.2694 -0.2909 0.9181
vn 0.0076 -0.0504 0.9987
vn -0.3769 -0.0904 0.9219
vn -0.5284 -0.0231 0.8486
vn -0.4514 0.0474 0.8911
vn -0.2821 0.0305 0.9589
vn -0.2423 0.1059 0.9644
vn -0.1256 -0.1084 0.9861
vn -0.0795 -0.2461 0.9660
vn -0.1868 -0.0679 0.9800
vn -0.1747 -0.1398 0.9747
vn -0.1213 -0.2537 0.9596
vn -0.1723 -0.2438 0.9544
vn -0.2253 -0.2108 0.9512
vn -0.0483 -0.3205 0.9460
vn 0.2058 -0.4372 0.8755
vn 0.3207 -0.4946 0.8078
vn 0.3349 -0.4790 0.8115
vn 0.1373 -0.4957 0.8576
vn -0.1375 -0.4475 0.8836
vn -0.2302 -0.2069 0.9509
vn -0.2600 0.1614 0.9520
vn -0.2206 0.3052 0.9264
vn -0.2913 0.3320 0.8972
vn -0.0199 -0.2215 0.9750
vn -0.0100 -0.3150 0.9490
vn -0.1687 -0.0977 0.9808
vn -0.2542 -0.0779 0.9640
vn -0.2134 -0.1816 0.9599
vn -0.1628 -0.2457 0.9556
vn -0.2196 -0.2017 0.9545
vn -0.1680 -0.2024 0.9648
vn 0.0712 -0.3392 0.9380
vn 0.2725 -0.4414 0.8549
vn 0.2678 -0.5105 0.8171
vn 0.0722 -0.6085 0.7902
vn -0.0379 -0.6233 0.7811
vn 0.0432 -0.5819 0.8121
vn 0.0355 -0.4804 0.8763
vn -0.0876 -0.3451 0.9345
vn -0.2431 -0.2716 0.9312
vn 0.0974 -0.3615 0.9273
vn -0.0397 -0.3633 0.9308
vn -0.0430 -0.2347 0.9711
vn -0.2581 -0.1078 0.9601
vn -0.2872 -0.1286 0.9492
vn -0.1946 -0.2024 0.9598
vn -0.1822 -0.2067 0.9613
vn -0.1944 -0.1754 0.9651
vn -0.0687 -0.2631 0.9623
vn 0.1211 -0.4090 0.9045
vn 0.1322 -0.5392 0.8318
vn -0.0105 -0.6054 0.7959
vn -0.0795 -0.6220 0.7790
vn 0.0058 -0.6514 0.7587
vn 0.0529 -0.6984 0.7137
vn 0.0135 -0.6867 0.7268
vn 0.0121 -0.6078 0.7940
vn 0.1163 -0.4046 0.9071
vn -0.0846 -0.3118 0.9464
vn 0.0963 -0.3923 0.9148
vn -0.1511 -0.2385 0.9593
vn -0.3033 -0.1225 0.9450
vn -0.2390 -0.1679 0.9564
vn -0.1928 -0.2048 0.9596
vn -0.2211 -0.2175 0.9507
vn -0.1842 -0.2635 0.9469
vn -0.0513 -0.4011 0.9146
vn 0.0162 -0.5345 0.8450
vn -0.0477 -0.5847 0.8098
vn -0.1178 -0.5810 0.8053
vn -0.0991 -0.6172 0.7806
vn -0.0333 -0.6850 0.7277
vn 0.0875 -0.6758 0.7319
vn 0.2640 -0.5225 0.8107
vn 0.0053 -0.3884 0.9215
vn -0.1507 -0.2585 0.9542
vn 0.1342 -0.4619 0.8767
vn 0.0277 -0.4069 0.9130
vn -0.2186 -0.2115 0.9526
vn -0.2715 -0.1673 0.9478
vn -0.2302 -0.2188 0.9482
vn -0.2491 -0.2499 0.9357
vn -0.2612 -0.2627 0.9289
vn -0.2015 -0.3523 0.9139
vn -0.1083 -0.4816 0.8697
vn -0.0843 -0.5574 0.8259
vn -0.1384 -0.5678 0.8114
vn -0.1688 -0.5814 0.7959
vn -0.0464 -0.6119 0.7896
vn 0.2586 -0.5107 0.8199
vn 0.4937 -0.2783 0.8239
vn -0.1183 -0.3557 0.9271
vn -0.2015 -0.2791 0.9389
vn 0.0727 -0.4407 0.8947
vn 0.1297 -0.4575 0.8797
vn -0.0486 -0.3435 0.9379
vn -0.2461 -0.1875 0.9509
vn -0.2736 -0.2088 0.9389
vn -0.2641 -0.2617 0.9283
vn -0.2881 -0.2610 0.9213
vn -0.2978 -0.2870 0.9105
vn -0.2425 -0.3686 0.8974
vn -0.1782 -0.4604 0.8696
vn -0.1698 -0.5148 0.8403
vn -0.1679 -0.5300 0.8312
vn 0.0530 -0.5125 0.8570
vn 0.4553 -0.3519 0.8178
vn 0.5944 -0.1794 0.7839
vn -0.1748 -0.3470 0.9214
vn -0.2287 -0.2986 0.9266
vn 0.0152 -0.4026 0.9152
vn 0.1410 -0.4118 0.9003
vn 0.0857 -0.3835 0.9196
vn -0.1374 -0.2296 0.9635
vn -0.3075 -0.1543 0.9390
vn -0.3050 -0.1937 0.9324
vn -0.2915 -0.2350 0.9272
vn -0.3189 -0.2423 0.9163
vn -0.3103 -0.2544 0.9159
vn -0.2772 -0.3029 0.9118
vn -0.2504 -0.3615 0.8981
vn -0.1778 -0.3976 0.9002
vn 0.1361 -0.3772 0.9161
vn 0.5401 -0.2931 0.7889
vn 0.6021 -0.2908 0.7436
vn -0.2288 -0.2790 0.9326
vn -0.3139 -0.2171 0.9243
vn 0.0003 -0.3210 0.9471
vn 0.1596 -0.3085 0.9377
vn 0.1570 -0.3085 0.9382
vn -0.0057 -0.2411 0.9705
vn -0.2508 -0.1139 0.9613
vn -0.3494 -0.0638 0.9348
vn -0.3440 -0.1226 0.9309
vn -0.3273 -0.1609 0.9311
vn -0.3158 -0.1654 0.9343
vn -0.3081 -0.1779 0.9346
vn -0.2914 -0.2000 0.9355
vn -0.2017 -0.2172 0.9551
vn 0.1271 -0.2367 0.9632
vn 0.4815 -0.2697 0.8339
vn 0.5619 -0.3509 0.7491
vn -0.2772 -0.1801 0.9438
vn -0.3673 -0.1502 0.9179
vn -0.0127 -0.2151 0.9765
vn 0.1598 -0.2350 0.9588
vn 0.1653 -0.2602 0.9513
vn 0.0655 -0.2536 0.9651
vn -0.1441 -0.1463 0.9787
vn -0.3221 -0.0240 0.9464
vn -0.3867 -0.0255 0.9218
vn -0.3650 -0.0724 0.9282
vn -0.3335 -0.1003 0.9374
vn -0.3205 -0.1171 0.9400
vn -0.2988 -0.1289 0.9456
vn -0.2215 -0.1369 0.9655
vn 0.0518 -0.1656 0.9848
vn 0.4091 -0.2183 0.8860
vn 0.5297 -0.3044 0.7917
vn -0.2853 -0.1618 0.9447
vn -0.3594 -0.1826 0.9151
vn -0.0526 -0.2075 0.9768
vn 0.1114 -0.2852 0.9520
vn 0.1408 -0.3085 0.9407
vn 0.1114 -0.3132 0.9431
vn -0.0227 -0.2377 0.9711
vn -0.2433 -0.0818 0.9665
vn -0.3889 -0.0208 0.9210
vn -0.3955 -0.0424 0.9175
vn -0.3578 -0.0722 0.9310
vn -0.3356 -0.0953 0.9372
vn -0.3103 -0.1117 0.9440
vn -0.2344 -0.1337 0.9629
vn 0.0268 -0.1680 0.9854
vn 0.3293 -0.2452 0.9118
vn 0.3379 -0.4219 0.8413
vn -0.2900 -0.1476 0.9456
vn -0.3411 -0.1614 0.9261
vn -0.1360 -0.2347 0.9625
vn 0.0478 -0.3561 0.9332
vn 0.1300 -0.3710 0.9195
vn 0.1390 -0.3646 0.9207
vn 0.0945 -0.3174 0.9436
vn -0.1156 -0.1669 0.9792
vn -0.3554 -0.0544 0.9331
vn -0.4089 -0.0317 0.9120
vn -0.3802 -0.0562 0.9232
vn -0.3547 -0.0960 0.9300
vn -0.3303 -0.1181 0.9364
vn -0.2680 -0.1493 0.9518
vn -0.0753 -0.2214 0.9723
vn 0.1189 -0.3998 0.9089
vn 0.0923 -0.5828 0.8074
vn -0.3479 -0.0459 0.9364
vn -0.3570 -0.0071 0.9341
vn -0.2668 -0.1297 0.9550
vn -0.0411 -0.2723 0.9613
vn 0.1260 -0.3419 0.9313
vn 0.1705 -0.3517 0.9205
vn 0.1867 -0.3344 0.9238
vn 0.0256 -0.2450 0.9692
vn -0.2737 -0.1163 0.9548
vn -0.3969 -0.0710 0.9151
vn -0.4117 -0.0652 0.9090
vn -0.3880 -0.1022 0.9160
vn -0.3542 -0.1279 0.9264
vn -0.3219 -0.1620 0.9328
vn -0.2412 -0.2295 0.9430
vn -0.1203 -0.4112 0.9036
vn -0.0522 -0.5578 0.8284
vn -0.3965 0.1066 0.9118
vn -0.3912 0.1282 0.9114
vn -0.3504 0.0842 0.9328
vn -0.1773 -0.0014 0.9842
vn 0.0422 -0.1271 0.9910
vn 0.1507 -0.2133 0.9653
vn 0.2153 -0.2689 0.9388
vn 0.1168 -0.2686 0.9561
vn -0.1983 -0.1772 0.9640
vn -0.3674 -0.1207 0.9222
vn -0.4046 -0.1140 0.9074
vn -0.4060 -0.1142 0.9067
vn -0.3798 -0.1294 0.9160
vn -0.3560 -0.1596 0.9208
vn -0.3311 -0.1969 0.9228
vn -0.2747 -0.2853 0.9182
vn -0.1208 -0.3951 0.9106
vn -0.3788 0.2246 0.8978
vn -0.3679 0.1906 0.9101
vn -0.3587 0.2409 0.9018
vn -0.2474 0.2056 0.9468
vn -0.0834 0.1213 0.9891
vn 0.0271 0.0260 0.9993
vn 0.1403 -0.0832 0.9866
vn 0.1253 -0.1995 0.9718
vn -0.1328 -0.1979 0.9712
vn -0.3490 -0.1200 0.9294
vn -0.4063 -0.1114 0.9069
vn -0.4002 -0.1018 0.9108
vn -0.3923 -0.1139 0.9128
vn -0.3817 -0.1317 0.9149
vn -0.3612 -0.1580 0.9190
vn -0.3274 -0.1873 0.9261
vn -0.1865 -0.2554 0.9487
vt 0.015625 0.015625
vt 0.076172 0.015625
vt 0.076172 0.076172
vt 0.015625 0.076172
vt 0.136719 0.015625
vt 0.136719 0.076172
vt 0.197266 0.015625
vt 0.197266 0.076172
vt 0.257812 0.015625
vt 0.257812 0.076172
vt 0.318359 0.015625
vt 0.318359 0.076172
vt 0.378906 0.015625
vt 0.378906 0.076172
vt 0.439453 0.015625
vt 0.439453 0.076172
vt 0.500000 0.015625
vt 0.500000 0.076172
vt 0.560547 0.015625
vt 0.560547 0.076172
vt 0.621094 0.015625
vt 0.621094 0.076172
vt 0.681641 0.015625
vt 0.681641 0.076172
vt 0.742188 0.015625
vt 0.742188 0.076172
vt 0.802734 0.015625
vt 0.802734 0.076172
vt 0.863281 0.015625
vt 0.863281 0.076172
vt 0.923828 0.015625
vt 0.923828 0.076172
vt 0.984375 0.015625
vt 0.984375 0.076172
vt 0.076172 0.136719
vt 0.015625 0.136719
vt 0.136719 0.136719
vt 0.197266 0.136719
vt 0.257812 0.136719
vt 0.318359 0.136719
vt 0.378906 0.136719
vt 0.439453 0.136719
vt 0.500000 0.136719
vt 0.560547 0.136719
vt 0.621094 0.136719
vt 0.681641 0.136719
vt 0.742188 0.136719
vt 0.802734 0.136719
vt 0.863281 0.136719
vt 0.923828 0.136719
vt 0.984375 0.136719
vt 0.076172 0.197266
vt 0.015625 0.197266
vt 0.136719 0.197266
vt 0.197266 0.197266
vt 0.257812 0.197266
vt 0.318359 0.197266
vt 0.378906 0.197266
vt 0.439453 0.197266
vt 0.500000 0.197266
vt 0.560547 0.197266
vt 0.621094 0.197266
vt 0.681641 0.197266
vt 0.742188 0.197266
vt 0.802734 0.197266
vt 0.863281 0.197266
vt 0.923828 0.197266
vt 0.984375 0.197266
vt 0.076172 0.257812
vt 0.015625 0.257812
vt 0.136719 0.257812
vt 0.197266 0.257812
vt 0.257812 0.257812
vt 0.318359 0.257812
vt 0.378906 0.257812
vt 0.439453 0.257812
vt 0.500000 0.257812
vt 0.560547 0.257812
vt 0.621094 0.257812
vt 0.681641 0.257812
vt 0.742188 0.257812
vt 0.802734 0.257812
vt 0.863281 0.257812
vt 0.923828 0.257812
vt 0.984375 0.257812
vt 0.076172 0.318359
vt 0.015625 0.318359
vt 0.136719 0.318359
vt 0.197266 0.318359
vt 0.257812 0.318359
vt 0.318359 0.318359
vt 0.378906 0.318359
vt 0.439453 0.318359
vt 0.500000 0.318359
vt 0.560547 0.318359
vt 0.621094 0.318359
vt 0.681641 0.318359
vt 0.742188 0.318359
vt 0.802734 0.318359
vt 0.863281 0.318359
vt 0.923828 0.318359
vt 0.984375 0.318359
vt 0.076172 0.378906
vt 0.015625 0.378906
vt 0.136719 0.378906
vt 0.197266 0.378906
vt 0.257812 0.378906
vt 0.318359 0.378906
vt 0.378906 0.378906
vt 0.439453 0.378906
vt 0.500000 0.378906
vt 0.560547 0.378906
vt 0.621094 0.378906
vt 0.681641 0.378906
vt 0.742188 0.378906
vt 0.802734 0.378906
vt 0.863281 0.378906
vt 0.923828 0.378906
vt 0.984375 0.378906
vt 0.076172 0.439453
vt 0.015625 0.439453
vt 0.136719 0.439453
vt 0.197266 0.439453
vt 0.257812 0.439453
vt 0.318359 0.439453
vt 0.378906 0.439453
vt 0.439453 0.439453
vt 0.500000 0.439453
vt 0.560547 0.439453
vt 0.621094 0.439453
vt 0.681641 0.439453
vt 0.742188 0.439453
vt 0.802734 0.439453
vt 0.863281 0.439453
vt 0.923828 0.439453
vt 0.984375 0.439453
vt 0.076172 0.500000
vt 0.015625 0.500000
vt 0.136719 0.500000
vt 0.197266 0.500000
vt 0.257812 0.500000
vt 0.318359 0.500000
vt 0.378906 0.500000
vt 0.439453 0.500000
vt 0.500000 0.500000
vt 0.560547 0.500000
vt 0.621094 0.500000
vt 0.681641 0.500000
vt 0.742188 0.500000
vt 0.802734 0.500000
vt 0.863281 0.500000
vt 0.923828 0.500000
vt 0.984375 0.500000
vt 0.076172 0.560547
vt 0.015625 0.560547
vt 0.136719 0.560547
vt 0.197266 0.560547
vt 0.257812 0.560547
vt 0.318359 0.560547
vt 0.378906 0.560547
vt 0.439453 0.560547
vt 0.500000 0.560547
vt 0.560547 0.560547
vt 0.621094 0.560547
vt 0.681641 0.560547
vt 0.742188 0.560547
vt 0.802734 0.560547
vt 0.863281 0.560547
vt 0.923828 0.560547
vt 0.984375 0.560547
vt 0.076172 0.621094
vt 0.015625 0.621094
vt 0.136719 0.621094
vt 0.197266 0.621094
vt 0.257812 0.621094
vt 0.318359 0.621094
vt 0.378906 0.621094
vt 0.439453 0.621094
vt 0.500000 0.621094
vt 0.560547 0.621094
vt 0.621094 0.621094
vt 0.681641 0.621094
vt 0.742188 0.621094
vt 0.802734 0.621094
vt 0.863281 0.621094
vt 0.923828 0.621094
vt 0.984375 0.621094
vt 0.076172 0.681641
vt 0.015625 0.681641
vt 0.136719 0.681641
vt 0.197266 0.681641
vt 0.257812 0.681641
vt 0.318359 0.681641
vt 0.378906 0.681641
vt 0.439453 0.681641
vt 0.500000 0.681641
vt 0.560547 0.681641
vt 0.621094 0.681641
vt 0.681641 0.681641
vt 0.742188 0.681641
vt 0.802734 0.681641
vt 0.863281 0.681641
vt 0.923828 0.681641
vt 0.984375 0.681641
vt 0.076172 0.742188
vt 0.015625 0.742188
vt 0.136719 0.742188
vt 0.197266 0.742188
vt 0.257812 0.742188
vt 0.318359 0.742188
vt 0.378906 0.742188
vt 0.439453 0.742188
vt 0.500000 0.742188
vt 0.560547 0.742188
vt 0.621094 0.742188
vt 0.681641 0.742188
vt 0.742188 0.742188
vt 0.802734 0.742188
vt 0.863281 0.742188
vt 0.923828 0.742188
vt 0.984375 0.742188
vt 0.076172 0.802734
vt 0.015625 0.802734
vt 0.136719 0.802734
vt 0.197266 0.802734
vt 0.257812 0.802734
vt 0.318359 0.802734
vt 0.378906 0.802734
vt 0.439453 0.802734
vt 0.500000 0.802734
vt 0.560547 0.802734
vt 0.621094 0.802734
vt 0.681641 0.802734
vt 0.742188 0.802734
vt 0.802734 0.802734
vt 0.863281 0.802734
vt 0.923828 0.802734
vt 0.984375 0.802734
vt 0.076172 0.863281
vt 0.015625 0.863281
vt 0.136719 0.863281
vt 0.197266 0.863281
vt 0.257812 0.863281
vt 0.318359 0.863281
vt 0.378906 0.863281
vt 0.439453 0.863281
vt 0.500000 0.863281
vt 0.560547 0.863281
vt 0.621094 0.863281
vt 0.681641 0.863281
vt 0.742188 0.863281
vt 0.802734 0.863281
vt 0.863281 0.863281
vt 0.923828 0.863281
vt 0.984375 0.863281
vt 0.076172 0.923828
vt 0.015625 0.923828
vt 0.136719 0.923828
vt 0.197266 0.923828
vt 0.257812 0.923828
vt 0.318359 0.923828
vt 0.378906 0.923828
vt 0.439453 0.923828
vt 0.500000 0.923828
vt 0.560547 0.923828
vt 0.621094 0.923828
vt 0.681641 0.923828
vt 0.742188 0.923828
vt 0.802734 0.923828
vt 0.863281 0.923828
vt 0.923828 0.923828
vt 0.984375 0.923828
vt 0.076172 0.984375
vt 0.015625 0.984375
vt 0.136719 0.984375
vt 0.197266 0.984375
vt 0.257812 0.984375
vt 0.318359 0.984375
vt 0.378906 0.984375
vt 0.439453 0.984375
vt 0.500000 0.984375
vt 0.560547 0.984375
vt 0.621094 0.984375
vt 0.681641 0.984375
vt 0.742188 0.984375
vt 0.802734 0.984375
vt 0.863281 0.984375
vt 0.923828 0.984375
vt 0.984375 0.984375
s 1
f 1/1/1 2/2/2 19/3/3
f 1/1/1 19/3/3 18/4/4
f 2/2/2 3/5/5 20/6/6
f 2/2/2 20/6/6 19/3/3
f 3/5/5 4/7/7 21/8/8
f 3/5/5 21/8/8 20/6/6
f 4/7/7 5/9/9 22/10/10
f 4/7/7 22/10/10 21/8/8
f 5/9/9 6/11/11 23/12/12
f 5/9/9 23/12/12 22/10/10
f 6/11/11 7/13/13 24/14/14
f 6/11/11 24/14/14 23/12/12
f 7/13/13 8/15/15 25/16/16
f 7/13/13 25/16/16 24/14/14
f 8/15/15 9/17/17 26/18/18
f 8/15/15 26/18/18 25/16/16
f 9/17/17 10/19/19 27/20/20
f 9/17/17 27/20/20 26/18/18
f 10/19/19 11/21/21 28/22/22
f 10/19/19 28/22/22 27/20/20
f 11/21/21 12/23/23 29/24/24
f 11/21/21 29/24/24 28/22/22
f 12/23/23 13/25/25 30/26/26
f 12/23/23 30/26/26 29/24/24
f 13/25/25 14/27/27 31/28/28
f 13/25/25 31/28/28 30/26/26
f 14/27/27 15/29/29 32/30/30
f 14/27/27 32/30/30 31/28/28
f 15/29/29 16/31/31 33/32/32
f 15/29/29 33/32/32 32/30/30
f 16/31/31 17/33/33 34/34/34
f 16/31/31 34/34/34 33/32/32
f 18/4/4 19/3/3 36/35/35
f 18/4/4 36/35/35 35/36/36
f 19/3/3 20/6/6 37/37/37
f 19/3/3 37/37/37 36/35/35
f 20/6/6 21/8/8 38/38/38
f 20/6/6 38/38/38 37/37/37
f 21/8/8 22/10/10 39/39/39
f 21/8/8 39/39/39 38/38/38
f 22/10/10 23/12/12 40/40/40
f 22/10/10 40/40/40 39/39/39
f 23/12/12 24/14/14 41/41/41
f 23/12/12 41/41/41 40/40/40
f 24/14/14 25/16/16 42/42/42
f 24/14/14 42/42/42 41/41/41
f 25/16/16 26/18/18 43/43/43
f 25/16/16 43/43/43 42/42/42
f 26/18/18 27/20/20 44/44/44
f 26/18/18 44/44/44 43/43/43
f 27/20/20 28/22/22 45/45/45
f 27/20/20 45/45/45 44/44/44
f 28/22/22 29/24/24 46/46/46
f 28/22/22 46/46/46 45/45/45
f 29/24/24 30/26/26 47/47/47
f 29/24/24 47/47/47 46/46/46
f 30/26/26 31/28/28 48/48/48
f 30/26/26 48/48/48 47/47/47
f 31/28/28 32/30/30 49/49/49
f 31/28/28 49/49/49 48/48/48
f 32/30/30 33/32/32 50/50/50
f 32/30/30 50/50/50 49/49/49
f 33/32/32 34/34/34 51/51/51
f 33/32/32 51/51/51 50/50/50
f 35/36/36 36/35/35 53/52/52
f 35/36/36 53/52/52 52/53/53
f 36/35/35 37/37/37 54/54/54
f 36/35/35 54/54/54 53/52/52
f 37/37/37 38/38/38 55/55/55
f 37/37/37 55/55/55 54/54/54
f 38/38/38 39/39/39 56/56/56
f 38/38/38 56/56/56 55/55/55
f 39/39/39 40/40/40 57/57/57
f 39/39/39 57/57/57 56/56/56
f 40/40/40 41/41/41 58/58/58
f 40/40/40 58/58/58 57/57/57
f 41/41/41 42/42/42 59/59/59
f 41/41/41 59/59/59 58/58/58
f 42/42/42 43/43/43 60/60/60
f 42/42/42 60/60/60 59/59/59
f 43/43/43 44/44/44 61/61/61
f 43/43/43 61/61/61 60/60/60
f 44/44/44 45/45/45 62/62/62
f 44/44/44 62/62/62 61/61/61
f 45/45/45 46/46/46 63/63/63
f 45/45/45 63/63/63 62/62/62
f 46/46/46 47/47/47 64/64/64
f 46/46/46 64/64/64 63/63/63
f 47/47/47 48/48/48 65/65/65
f 47/47/47 65/65/65 64/64/64
f 48/48/48 49/49/49 66/66/66
f 48/48/48 66/66/66 65/65/65
f 49/49/49 50/50/50 67/67/67
f 49/49/49 67/67/67 66/66/66
f 50/50/50 51/51/51 68/68/68
f 50/50/50 68/68/68 67/67/67
f 52/53/53 53/52/52 70/69/69
f 52/53/53 70/69/69 69/70/70
f 53/52/52 54/54/54 71/71/71
f 53/52/52 71/71/71 70/69/69
f 54/54/54 55/55/55 72/72/72
f 54/54/54 72/72/72 71/71/71
f 55/55/55 56/56/56 73/73/73
f 55/55/55 73/73/73 72/72/72
f 56/56/56 57/57/57 74/74/74
f 56/56/56 74/74/74 73/73/73
f 57/57/57 58/58/58 75/75/75
f 57/57/57 75/75/75 74/74/74
f 58/58/58 59/59/59 76/76/76
f 58/58/58 76/76/76 75/75/75
f 59/59/59 60/60/60 77/77/77
f 59/59/59 77/77/77 76/76/76
f 60/60/60 61/61/61 78/78/78
f 60/60/60 78/78/78 77/77/77
f 61/61/61 62/62/62 79/79/79
f 61/61/61 79/79/79 78/78/78
f 62/62/62 63/63/63 80/80/80
f 62/62/62 80/80/80 79/79/79
f 63/63/63 64/64/64 81/81/81
f 63/63/63 81/81/81 80/80/80
f 64/64/64 65/65/65 82/82/82
f 64/64/64 82/82/82 81/81/81
f 65/65/65 66/66/66 83/83/83
f 65/65/65 83/83/83 82/82/82
f 66/66/66 67/67/67 84/84/84
f 66/66/66 84/84/84 83/83/83
f 67/67/67 68/68/68 85/85/85
f 67/67/67 85/85/85 84/84/84
f 69/70/70 70/69/69 87/86/86
f 69/70/70 87/86/86 86/87/87
f 70/69/69 71/71/71 88/88/88
f 70/69/69 88/88/88 87/86/86
f 71/71/71 72/72/72 89/89/89
f 71/71/71 89/89/89 88/88/88
f 72/72/72 73/73/73 90/90/90
f 72/72/72 90/90/90 89/89/89
f 73/73/73 74/74/74 91/91/91
f 73/73/73 91/91/91 90/90/90
f 74/74/74 75/75/75 92/92/92
f 74/74/74 92/92/92 91/91/91
f 75/75/75 76/76/76 93/93/93
f 75/75/75 93/93/93 92/92/92
f 76/76/76 77/77/77 94/94/94
f 76/76/76 94/94/94 93/93/93
f 77/77/77 78/78/78 95/95/95
f 77/77/77 95/95/95 94/94/94
f 78/78/78 79/79/79 96/96/96
f 78/78/78 96/96/96 95/95/95
f 79/79/79 80/80/80 97/97/97
f 79/79/79 97/97/97 96/96/96
f 80/80/80 81/81/81 98/98/98
f 80/80/80 98/98/98 97/97/97
f 81/81/81 82/82/82 99/99/99
f 81/81/81 99/99/99 98/98/98
f 82/82/82 83/83/83 100/100/100
f 82/82/82 100/100/100 99/99/99
f 83/83/83 84/84/84 101/101/101
f 83/83/83 101/101/101 100/100/100
f 84/84/84 85/85/85 102/102/102
f 84/84/84 102/102/102 101/101/101
f 86/87/87 87/86/86 104/103/103
f 86/87/87 104/103/103 103/104/104
f 87/86/86 88/88/88 105/105/105
f 87/86/86 105/105/105 104/103/103
f 88/88/88 89/89/89 106/106/106
f 88/88/88 106/106/106 105/105/105
f 89/89/89 90/90/90 107/107/107
f 89/89/89 107/107/107 106/106/106
f 90/90/90 91/91/91 108/108/108
f 90/90/90 108/108/108 107/107/107
f 91/91/91 92/92/92 109/109/109
f 91/91/91 109/109/109 108/108/108
f 92/92/92 93/93/93 110/110/110
f 92/92/92 110/110/110 109/109/109
f 93/93/93 94/94/94 111/111/111
f 93/93/93 111/111/111 110/110/110
f 94/94/94 95/95/95 112/112/112
f 94/94/94 112/112/112 111/111/111
f 95/95/95 96/96/96 113/113/113
f 95/95/95 113/113/113 112/112/112
f 96/96/96 97/97/97 114/114/114
f 96/96/96 114/114/114 113/113/113
f 97/97/97 98/98/98 115/115/115
f 97/97/97 115/115/115 114/114/114
f 98/98/98 99/99/99 116/116/116
f 98/98/98 116/116/116 115/115/115
f 99/99/99 100/100/100 117/117/117
f 99/99/99 117/117/117 116/116/116
f 100/100/100 101/101/101 118/118/118
f 100/100/100 118/118/118 117/117/117
f 101/101/101 102/102/102 119/119/119
f 101/101/101 119/119/119 118/118/118
f 103/104/104 104/103/103 121/120/120
f 103/104/104 121/120/120 120/121/121
f 104/103/103 105/105/105 122/122/122
f 104/103/103 122/122/122 121/120/120
f 105/105/105 106/106/106 123/123/123
f 105/105/105 123/123/123 122/122/122
f 106/106/106 107/107/107 124/124/124
f 106/106/106 124/124/124 123/123/123
f 107/107/107 108/108/108 125/125/125
f 107/107/107 125/125/125 124/124/124
f 108/108/108 109/109/109 126/126/126
f 108/108/108 126/126/126 125/125/125
f 109/109/109 110/110/110 127/127/127
f 109/109/109 127/127/127 126/126/126
f 110/110/110 111/111/111 128/128/128
f 110/110/110 128/128/128 127/127/127
f 111/111/111 112/112/112 129/129/129
f 111/111/111 129/129/129 128/128/128
f 112/112/112 113/113/113 130/130/130
f 112/112/112 130/130/130 129/129/129
f 113/113/113 114/114/114 131/131/131
f 113/113/113 131/131/131 130/130/130
f 114/114/114 115/115/115 132/132/132
f 114/114/114 132/132/132 131/131/131
f 115/115/115 116/116/116 133/133/133
f 115/115/115 133/133/133 132/132/132
f 116/116/116 117/117/117 134/134/134
f 116/116/116 134/134/134 133/133/133
f 117/117/117 118/118/118 135/135/135
f 117/117/117 135/135/135 134/134/134
f 118/118/118 119/119/119 136/136/136
f 118/118/118 136/136/136 135/135/135
f 120/121/121 121/120/120 138/137/137
f 120/121/121 138/137/137 137/138/138
f 121/120/120 122/122/122 139/139/139
f 121/120/120 139/139/139 138/137/137
f 122/122/122 123/123/123 140/140/140
f 122/122/122 140/140/140 139/139/139
f 123/123/123 124/124/124 141/141/141
f 123/123/123 141/141/141 140/140/140
f 124/124/124 125/125/125 142/142/142
f 124/124/124 142/142/142 141/141/141
f 125/125/125 126/126/126 143/143/143
f 125/125/125 143/143/143 142/142/142
f 126/126/126 127/127/127 144/144/144
f 126/126/126 144/144/144 143/143/143
f 127/127/127 128/128/128 145/145/145
f 127/127/127 145/145/145 144/144/144
f 128/128/128 129/129/129 146/146/146
f 128/128/128 146/146/146 145/145/145
f 129/129/129 130/130/130 147/147/147
f 129/129/129 147/147/147 146/146/146
f 130/130/130 131/131/131 148/148/148
f 130/130/130 148/148/148 147/147/147
f 131/131/131 132/132/132 149/149/149
f 131/131/131 149/149/149 148/148/148
f 132/132/132 133/133/133 150/150/150
f 132/132/132 150/150/150 149/149/149
f 133/133/133 134/134/134 151/151/151
f 133/133/133 151/151/151 150/150/150
f 134/134/134 135/135/135 152/152/152
f 134/134/134 152/152/152 151/151/151
f 135/135/135 136/136/136 153/153/153
f 135/135/135 153/153/153 152/152/152
f 137/138/138 138/137/137 155/154/154
f 137/138/138 155/154/154 154/155/155
f 138/137/137 139/139/139 156/156/156
f 138/137/137 156/156/156 155/154/154
f 139/139/139 140/140/140 157/157/157
f 139/139/139 157/157/157 156/156/156
f 140/140/140 141/141/141 158/158/158
f 140/140/140 158/158/158 157/157/157
f 141/141/141 142/142/142 159/159/159
f 141/141/141 159/159/159 158/158/158
f 142/142/142 143/143/143 160/160/160
f 142/142/142 160/160/160 159/159/159
f 143/143/143 144/144/144 161/161/161
f 143/143/143 161/161/161 160/160/160
f 144/144/144 145/145/145 162/162/162
f 144/144/144 162/162/162 161/161/161
f 145/145/145 146/146/146 163/163/163
f 145/145/145 163/163/163 162/162/162
f 146/146/146 147/147/147 164/164/164
f 146/146/146 164/164/164 163/163/163
f 147/147/147 148/148/148 165/165/165
f 147/147/147 165/165/165 164/164/164
f 148/148/148 149/149/149 166/166/166
f 148/148/148 166/166/166 165/165/165
f 149/149/149 150/150/150 167/167/167
f 149/149/149 167/167/167 166/166/166
f 150/150/150 151/151/151 168/168/168
f 150/150/150 168/168/168 167/167/167
f 151/151/151 152/152/152 169/169/169
f 151/151/151 169/169/169 168/168/168
f 152/152/152 153/153/153 170/170/170
f 152/152/152 170/170/170 169/169/169
f 154/155/155 155/154/154 172/171/171
f 154/155/155 172/171/171 171/172/172
f 155/154/154 156/156/156 173/173/173
f 155/154/154 173/173/173 172/171/171
f 156/156/156 157/157/157 174/174/174
f 156/156/156 174/174/174 173/173/173
f 157/157/157 158/158/158 175/175/175
f 157/157/157 175/175/175 174/174/174
f 158/158/158 159/159/159 176/176/176
f 158/158/158 176/176/176 175/175/175
f 159/159/159 160/160/160 177/177/177
f 159/159/159 177/177/177 176/176/176
f 160/160/160 161/161/161 178/178/178
f 160/160/160 178/178/178 177/177/177
f 161/161/161 162/162/162 179/179/179
f 161/161/161 179/179/179 178/178/178
f 162/162/162 163/163/163 180/180/180
f 162/162/162 180/180/180 179/179/179
f 163/163/163 164/164/164 181/181/181
f 163/163/163 181/181/181 180/180/180
f 164/164/164 165/165/165 182/182/182
f 164/164/164 182/182/182 181/181/181
f 165/165/165 166/166/166 183/183/183
f 165/165/165 183/183/183 182/182/182
f 166/166/166 167/167/167 184/184/184
f 166/166/166 184/184/184 183/183/183
f 167/167/167 168/168/168 185/185/185
f 167/167/167 185/185/185 184/184/184
f 168/168/168 169/169/169 186/186/186
f 168/168/168 186/186/186 185/185/185
f 169/169/169 170/170/170 187/187/187
f 169/169/169 187/187/187 186/186/186
f 171/172/172 172/171/171 189/188/188
f 171/172/172 189/188/188 188/189/189
f 172/171/171 173/173/173 190/190/190
f 172/171/171 190/190/190 189/188/188
f 173/173/173 174/174/174 191/191/191
f 173/173/173 191/191/191 190/190/190
f 174/174/174 175/175/175 192/192/192
f 174/174/174 192/192/192 191/191/191
f 175/175/175 176/176/176 193/193/193
f 175/175/175 193/193/193 192/192/192
f 176/176/176 177/177/177 194/194/194
f 176/176/176 194/194/194 193/193/193
f 177/177/177 178/178/178 195/195/195
f 177/177/177 195/195/195 194/194/194
f 178/178/178 179/179/179 196/196/196
f 178/178/178 196/196/196 195/195/195
f 179/179/179 180/180/180 197/197/197
f 179/179/179 197/197/197 196/196/196
f 180/180/180 181/181/181 198/198/198
f 180/180/180 198/198/198 197/197/197
f 181/181/181 182/182/182 199/199/199
f 181/181/181 199/199/199 198/198/198
f 182/182/182 183/183/183 200/200/200
f 182/182/182 200/200/200 199/199/199
f 183/183/183 184/184/184 201/201/201
f 183/183/183 201/201/201 200/200/200
f 184/184/184 185/185/185 202/202/202
f 184/184/184 202/202/202 201/201/201
f 185/185/185 186/186/186 203/203/203
f 185/185/185 203/203/203 202/202/202
f 186/186/186 187/187/187 204/204/204
f 186/186/186 204/204/204 203/203/203
f 188/189/189 189/188/188 206/205/205
f 188/189/189 206/205/205 205/206/206
f 189/188/188 190/190/190 207/207/207
f 189/188/188 207/207/207 206/205/205
f 190/190/190 191/191/191 208/208/208
f 190/190/190 208/208/208 207/207/207
f 191/191/191 192/192/192 209/209/209
f 191/191/191 209/209/209 208/208/208
f 192/192/192 193/193/193 210/210/210
f 192/192/192 210/210/210 209/209/209
f 193/193/193 194/194/194 211/211/211
f 193/193/193 211/211/211 210/210/210
f 194/194/194 195/195/195 212/212/212
f 194/194/194 212/212/212 211/211/211
f 195/195/195 196/196/196 213/213/213
f 195/195/195 213/213/213 212/212/212
f 196/196/196 197/197/197 214/214/214
f 196/196/196 214/214/214 213/213/213
f 197/197/197 198/198/198 215/215/215
f 197/197/197 215/215/215 214/214/214
f 198/198/198 199/199/199 216/216/216
f 198/198/198 216/216/216 215/215/215
f 199/199/199 200/200/200 217/217/217
f 199/199/199 217/217/217 216/216/216
f 200/200/200 201/201/201 218/218/218
f 200/200/200 218/218/218 217/217/217
f 201/201/201 202/202/202 219/219/219
f 201/201/201 219/219/219 218/218/218
f 202/202/202 203/203/203 220/220/220
f 202/202/202 220/220/220 219/219/219
f 203/203/203 204/204/204 221/221/221
f 203/203/203 221/221/221 220/220/220
f 205/206/206 206/205/205 223/222/222
f 205/206/206 223/222/222 222/223/223
f 206/205/205 207/207/207 224/224/224
f 206/205/205 224/224/224 223/222/222
f 207/207/207 208/208/208 225/225/225
f 207/207/207 225/225/225 224/224/224
f 208/208/208 209/209/209 226/226/226
f 208/208/208 226/226/226 225/225/225
f 209/209/209 210/210/210 227/227/227
f 209/209/209 227/227/227 226/226/226
f 210/210/210 211/211/211 228/228/228
f 210/210/210 228/228/228 227/227/227
f 211/211/211 212/212/212 229/229/229
f 211/211/211 229/229/229 228/228/228
f 212/212/212 213/213/213 230/230/230
f 212/212/212 230/230/230 229/229/229
f 213/213/213 214/214/214 231/231/231
f 213/213/213 231/231/231 230/230/230
f 214/214/214 215/215/215 232/232/232
f 214/214/214 232/232/232 231/231/231
f 215/215/215 216/216/216 233/233/233
f 215/215/215 233/233/233 232/232/232
f 216/216/216 217/217/217 234/234/234
f 216/216/216 234/234/234 233/233/233
f 217/217/217 218/218/218 235/235/235
f 217/217/217 235/235/235 234/234/234
f 218/218/218 219/219/219 236/236/236
f 218/218/218 236/236/236 235/235/235
f 219/219/219 220/220/220 237/237/237
f 219/219/219 237/237/237 236/236/236
f 220/220/220 221/221/221 238/238/238
f 220/220/220 238/238/238 237/237/237
f 222/223/223 223/222/222 240/239/239
f 222/223/223 240/239/239 239/240/240
f 223/222/222 224/224/224 241/241/241
f 223/222/222 241/241/241 240/239/239
f 224/224/224 225/225/225 242/242/242
f 224/224/224 242/242/242 241/241/241
f 225/225/225 226/226/226 243/243/243
f 225/225/225 243/243/243 242/242/242
f 226/226/226 227/227/227 244/244/244
f 226/226/226 244/244/244 243/243/243
f 227/227/227 228/228/228 245/245/245
f 227/227/227 245/245/245 244/244/244
f 228/228/228 229/229/229 246/246/246
f 228/228/228 246/246/246 245/245/245
f 229/229/229 230/230/230 247/247/247
f 229/229/229 247/247/247 246/246/246
f 230/230/230 231/231/231 248/248/248
f 230/230/230 248/248/248 247/247/247
f 231/231/231 232/232/232 249/249/249
f 231/231/231 249/249/249 248/248/248
f 232/232/232 233/233/233 250/250/250
f 232/232/232 250/250/250 249/249/249
f 233/233/233 234/234/234 251/251/251
f 233/233/233 251/251/251 250/250/250
f 234/234/234 235/235/235 252/252/252
f 234/234/234 252/252/252 251/251/251
f 235/235/235 236/236/236 253/253/253
f 235/235/235 253/253/253 252/252/252
f 236/236/236 237/237/237 254/254/254
f 236/236/236 254/254/254 253/253/253
f 237/237/237 238/238/238 255/255/255
f 237/237/237 255/255/255 254/254/254
f 239/240/240 240/239/239 257/256/256
f 239/240/240 257/256/256 256/257/257
f 240/239/239 241/241/241 258/258/258
f 240/239/239 258/258/258 257/256/256
f 241/241/241 242/242/242 259/259/259
f 241/241/241 259/259/259 258/258/258
f 242/242/242 243/243/243 260/260/260
f 242/242/242 260/260/260 259/259/259
f 243/243/243 244/244/244 261/261/261
f 243/243/243 261/261/261 260/260/260
f 244/244/244 245/245/245 262/262/262
f 244/244/244 262/262/262 261/261/261
f 245/245/245 246/246/246 263/263/263
f 245/245/245 263/263/263 262/262/262
f 246/246/246 247/247/247 264/264/264
f 246/246/246 264/264/264 263/263/263
f 247/247/247 248/248/248 265/265/265
f 247/247/247 265/265/265 264/264/264
f 248/248/248 249/249/249 266/266/266
f 248/248/248 266/266/266 265/265/265
f 249/249/249 250/250/250 267/267/267
f 249/249/249 267/267/267 266/266/266
f 250/250/250 251/251/251 268/268/268
f 250/250/250 268/268/268 267/267/267
f 251/251/251 252/252/252 269/269/269
f 251/251/251 269/269/269 268/268/268
f 252/252/252 253/253/253 270/270/270
f 252/252/252 270/270/270 269/269/269
f 253/253/253 254/254/254 271/271/271
f 253/253/253 271/271/271 270/270/270
f 254/254/254 255/255/255 272/272/272
f 254/254/254 272/272/272 271/271/271
f 256/257/257 257/256/256 274/273/273
f 256/257/257 274/273/273 273/274/274
f 257/256/256 258/258/258 275/275/275
f 257/256/256 275/275/275 274/273/273
f 258/258/258 259/259/259 276/276/276
f 258/258/258 276/276/276 275/275/275
f 259/259/259 260/260/260 277/277/277
f 259/259/259 277/277/277 276/276/276
f 260/260/260 261/261/261 278/278/278
f 260/260/260 278/278/278 277/277/277
f 261/261/261 262/262/262 279/279/279
f 261/261/261 279/279/279 278/278/278
f 262/262/262 263/263/263 280/280/280
f 262/262/262 280/280/280 279/279/279
f 263/263/263 264/264/264 281/281/281
f 263/263/263 281/281/281 280/280/280
f 264/264/264 265/265/265 282/282/282
f 264/264/264 282/282/282 281/281/281
f 265/265/265 266/266/266 283/283/283
f 265/265/265 283/283/283 282/282/282
f 266/266/266 267/267/267 284/284/284
f 266/266/266 284/284/284 283/283/283
f 267/267/267 268/268/268 285/285/285
f 267/267/267 285/285/285 284/284/284
f 268/268/268 269/269/269 286/286/286
f 268/268/268 286/286/286 285/285/285
f 269/269/269 270/270/270 287/287/287
f 269/269/269 287/287/287 286/286/286
f 270/270/270 271/271/271 288/288/288
f 270/270/270 288/288/288 287/287/287
f 271/271/271 272/272/272 289/289/289
f 271/271/271 289/289/289 288/288/288
