mtllib terrain_mid_01_07.mtl
usemtl terrain_mid_01_07
# Blender 5.1.1
# www.blender.org
o terrain_mid_01_07
v -160.000000 -160.000000 38.950214
v -140.000000 -160.000000 36.285759
v -120.000000 -160.000000 35.173195
v -100.000000 -160.000000 36.167442
v -80.000000 -160.000000 37.798820
v -60.000000 -160.000000 38.892914
v -40.000000 -160.000000 39.223888
v -20.000000 -160.000000 38.895836
v 0.000000 -160.000000 37.672684
v 20.000000 -160.000000 35.443695
v 40.000000 -160.000000 31.623777
v 60.000000 -160.000000 25.994654
v 80.000000 -160.000000 19.492649
v 100.000000 -160.000000 12.823755
v 120.000000 -160.000000 6.152013
v 140.000000 -160.000000 1.153586
v 160.000000 -160.000000 -2.743481
v -160.000000 -140.000000 34.606766
v -140.000000 -140.000000 31.387978
v -120.000000 -140.000000 29.724947
v -100.000000 -140.000000 30.793085
v -80.000000 -140.000000 32.783318
v -60.000000 -140.000000 34.230190
v -40.000000 -140.000000 34.800152
v -20.000000 -140.000000 34.581078
v 0.000000 -140.000000 33.360397
v 20.000000 -140.000000 31.274082
v 40.000000 -140.000000 27.922646
v 60.000000 -140.000000 22.833630
v 80.000000 -140.000000 16.420736
v 100.000000 -140.000000 9.424579
v 120.000000 -140.000000 2.134964
v 140.000000 -140.000000 -4.546300
v 160.000000 -140.000000 -9.767960
v -160.000000 -120.000000 30.400105
v -140.000000 -120.000000 26.507793
v -120.000000 -120.000000 24.012545
v -100.000000 -120.000000 24.660704
v -80.000000 -120.000000 26.970371
v -60.000000 -120.000000 29.130426
v -40.000000 -120.000000 30.158577
v -20.000000 -120.000000 30.076427
v 0.000000 -120.000000 29.024473
v 20.000000 -120.000000 27.255583
v 40.000000 -120.000000 24.461054
v 60.000000 -120.000000 20.119640
v 80.000000 -120.000000 14.479087
v 100.000000 -120.000000 7.776257
v 120.000000 -120.000000 -0.114372
v 140.000000 -120.000000 -8.051699
v 160.000000 -120.000000 -15.385622
v -160.000000 -100.000000 25.999210
v -140.000000 -100.000000 21.859203
v -120.000000 -100.000000 18.455509
v -100.000000 -100.000000 18.595461
v -80.000000 -100.000000 21.024910
v -60.000000 -100.000000 23.796432
v -40.000000 -100.000000 25.603052
v -20.000000 -100.000000 25.766745
v 0.000000 -100.000000 24.705265
v 20.000000 -100.000000 22.989567
v 40.000000 -100.000000 20.593216
v 60.000000 -100.000000 16.997963
v 80.000000 -100.000000 12.106056
v 100.000000 -100.000000 5.897293
v 120.000000 -100.000000 -2.114548
v 140.000000 -100.000000 -10.868685
v 160.000000 -100.000000 -19.277603
v -160.000000 -80.000000 21.337082
v -140.000000 -80.000000 17.240612
v -120.000000 -80.000000 13.529448
v -100.000000 -80.000000 12.980613
v -80.000000 -80.000000 15.101225
v -60.000000 -80.000000 18.395115
v -40.000000 -80.000000 21.045631
v -20.000000 -80.000000 21.651844
v 0.000000 -80.000000 20.393257
v 20.000000 -80.000000 18.350285
v 40.000000 -80.000000 16.042746
v 60.000000 -80.000000 13.028166
v 80.000000 -80.000000 8.949657
v 100.000000 -80.000000 3.318469
v 120.000000 -80.000000 -4.322587
v 140.000000 -80.000000 -13.063994
v 160.000000 -80.000000 -21.821331
v -160.000000 -60.000000 17.001663
v -140.000000 -60.000000 12.401619
v -120.000000 -60.000000 8.647293
v -100.000000 -60.000000 7.712370
v -80.000000 -60.000000 9.476822
v -60.000000 -60.000000 12.886893
v -40.000000 -60.000000 15.860095
v -20.000000 -60.000000 16.829784
v 0.000000 -60.000000 15.794770
v 20.000000 -60.000000 13.479015
v 40.000000 -60.000000 10.991843
v 60.000000 -60.000000 8.248933
v 80.000000 -60.000000 4.681337
v 100.000000 -60.000000 -0.393794
v 120.000000 -60.000000 -7.336638
v 140.000000 -60.000000 -15.420602
v 160.000000 -60.000000 -23.421375
v -160.000000 -40.000000 13.174131
v -140.000000 -40.000000 8.130607
v -120.000000 -40.000000 4.304560
v -100.000000 -40.000000 2.914820
v -80.000000 -40.000000 4.111418
v -60.000000 -40.000000 6.961461
v -40.000000 -40.000000 9.481568
v -20.000000 -40.000000 10.426820
v 0.000000 -40.000000 10.007194
v 20.000000 -40.000000 7.936430
v 40.000000 -40.000000 5.441238
v 60.000000 -40.000000 2.872404
v 80.000000 -40.000000 -0.118685
v 100.000000 -40.000000 -4.680927
v 120.000000 -40.000000 -10.458203
v 140.000000 -40.000000 -17.571348
v 160.000000 -40.000000 -24.659391
v -160.000000 -20.000000 10.483207
v -140.000000 -20.000000 5.544215
v -120.000000 -20.000000 1.361804
v -100.000000 -20.000000 -0.779560
v -80.000000 -20.000000 -0.908860
v -60.000000 -20.000000 0.587580
v -40.000000 -20.000000 1.730036
v -20.000000 -20.000000 2.011988
v 0.000000 -20.000000 2.320710
v 20.000000 -20.000000 1.297165
v 40.000000 -20.000000 -0.762362
v 60.000000 -20.000000 -3.018638
v 80.000000 -20.000000 -5.360906
v 100.000000 -20.000000 -9.208797
v 120.000000 -20.000000 -13.922847
v 140.000000 -20.000000 -19.705389
v 160.000000 -20.000000 -25.841833
v -160.000000 0.000000 12.001330
v -140.000000 0.000000 7.287548
v -120.000000 0.000000 2.726360
v -100.000000 0.000000 -0.718776
v -80.000000 0.000000 -3.002528
v -60.000000 0.000000 -4.788098
v -40.000000 0.000000 -6.209302
v -20.000000 0.000000 -7.475920
v 0.000000 0.000000 -7.353094
v 20.000000 0.000000 -7.343596
v 40.000000 0.000000 -8.242248
v 60.000000 0.000000 -9.740341
v 80.000000 0.000000 -11.235808
v 100.000000 0.000000 -14.082922
v 120.000000 0.000000 -18.103745
v 140.000000 0.000000 -23.190205
v 160.000000 0.000000 -28.111614
v -160.000000 20.000000 16.677061
v -140.000000 20.000000 11.924358
v -120.000000 20.000000 7.148602
v -100.000000 20.000000 2.690221
v -80.000000 20.000000 -1.705992
v -60.000000 20.000000 -6.178038
v -40.000000 20.000000 -10.344787
v -20.000000 20.000000 -13.754335
v 0.000000 20.000000 -15.507201
v 20.000000 20.000000 -16.266617
v 40.000000 20.000000 -16.893444
v 60.000000 20.000000 -17.448288
v 80.000000 20.000000 -17.736509
v 100.000000 20.000000 -19.571756
v 120.000000 20.000000 -22.930391
v 140.000000 20.000000 -27.375925
v 160.000000 20.000000 -31.415203
v -160.000000 40.000000 22.008204
v -140.000000 40.000000 17.074879
v -120.000000 40.000000 12.558283
v -100.000000 40.000000 8.470165
v -80.000000 40.000000 3.979097
v -60.000000 40.000000 -1.423810
v -40.000000 40.000000 -7.332413
v -20.000000 40.000000 -13.590185
v 0.000000 40.000000 -19.504200
v 20.000000 40.000000 -23.355297
v 40.000000 40.000000 -25.624002
v 60.000000 40.000000 -25.777294
v 80.000000 40.000000 -24.999401
v 100.000000 40.000000 -25.819599
v 120.000000 40.000000 -28.525583
v 140.000000 40.000000 -32.382122
v 160.000000 40.000000 -35.564774
v -160.000000 60.000000 26.853666
v -140.000000 60.000000 22.053858
v -120.000000 60.000000 17.953964
v -100.000000 60.000000 14.251490
v -80.000000 60.000000 10.109197
v -60.000000 60.000000 4.652132
v -40.000000 60.000000 -1.882957
v -20.000000 60.000000 -9.352955
v 0.000000 60.000000 -16.777725
v 20.000000 60.000000 -23.340420
v 40.000000 60.000000 -28.782803
v 60.000000 60.000000 -32.153046
v 80.000000 60.000000 -32.893681
v 100.000000 60.000000 -33.149788
v 120.000000 60.000000 -35.196983
v 140.000000 60.000000 -38.620197
v 160.000000 60.000000 -41.265240
v -160.000000 80.000000 30.965832
v -140.000000 80.000000 26.530581
v -120.000000 80.000000 22.611279
v -100.000000 80.000000 19.020781
v -80.000000 80.000000 15.120627
v -60.000000 80.000000 10.105894
v -40.000000 80.000000 3.711590
v -20.000000 80.000000 -3.731925
v 0.000000 80.000000 -11.419880
v 20.000000 80.000000 -19.760269
v 40.000000 80.000000 -28.142666
v 60.000000 80.000000 -35.101685
v 80.000000 80.000000 -39.230923
v 100.000000 80.000000 -40.421360
v 120.000000 80.000000 -42.335098
v 140.000000 80.000000 -45.182899
v 160.000000 80.000000 -47.310013
v -160.000000 100.000000 34.777405
v -140.000000 100.000000 30.053949
v -120.000000 100.000000 25.779949
v -100.000000 100.000000 21.869976
v -80.000000 100.000000 17.999275
v -60.000000 100.000000 13.460823
v -40.000000 100.000000 7.673989
v -20.000000 100.000000 0.361621
v 0.000000 100.000000 -7.517492
v 20.000000 100.000000 -16.138454
v 40.000000 100.000000 -25.546261
v 60.000000 100.000000 -34.896935
v 80.000000 100.000000 -42.386845
v 100.000000 100.000000 -46.496712
v 120.000000 100.000000 -49.296143
v 140.000000 100.000000 -51.604115
v 160.000000 100.000000 -52.860847
v -160.000000 120.000000 37.480377
v -140.000000 120.000000 32.212791
v -120.000000 120.000000 27.006485
v -100.000000 120.000000 22.373499
v -80.000000 120.000000 18.095026
v -60.000000 120.000000 13.716917
v -40.000000 120.000000 8.434592
v -20.000000 120.000000 1.540017
v 0.000000 120.000000 -6.314262
v 20.000000 120.000000 -15.193311
v 40.000000 120.000000 -24.945324
v 60.000000 120.000000 -35.136265
v 80.000000 120.000000 -44.311211
v 100.000000 120.000000 -50.349983
v 120.000000 120.000000 -54.951290
v 140.000000 120.000000 -57.118580
v 160.000000 120.000000 -57.382706
v -160.000000 140.000000 38.620052
v -140.000000 140.000000 32.859962
v -120.000000 140.000000 26.723940
v -100.000000 140.000000 21.001419
v -80.000000 140.000000 16.052650
v -60.000000 140.000000 11.357884
v -40.000000 140.000000 6.306069
v -20.000000 140.000000 0.152359
v 0.000000 140.000000 -7.452249
v 20.000000 140.000000 -16.507809
v 40.000000 140.000000 -26.349791
v 60.000000 140.000000 -36.304291
v 80.000000 140.000000 -45.338352
v 100.000000 140.000000 -52.289158
v 120.000000 140.000000 -58.353294
v 140.000000 140.000000 -61.286686
v 160.000000 140.000000 -61.227425
v -160.000000 160.000000 38.608341
v -140.000000 160.000000 32.527462
v -120.000000 160.000000 26.446579
v -100.000000 160.000000 20.235834
v -80.000000 160.000000 14.025090
v -60.000000 160.000000 8.581620
v -40.000000 160.000000 3.138151
v -20.000000 160.000000 -3.552459
v 0.000000 160.000000 -10.243068
v 20.000000 160.000000 -19.365749
v 40.000000 160.000000 -28.488430
v 60.000000 160.000000 -37.075428
v 80.000000 160.000000 -45.662426
v 100.000000 160.000000 -52.342274
v 120.000000 160.000000 -59.022125
v 140.000000 160.000000 -61.757183
v 160.000000 160.000000 -64.492241
vn 0.1601 0.2047 0.9656
vn 0.0917 0.2225 0.9706
vn 0.1177 0.2358 0.9646
vn 0.1730 0.2059 0.9632
vn 0.0029 0.2333 0.9724
vn 0.0142 0.2687 0.9631
vn -0.0640 0.2166 0.9742
vn -0.0733 0.2757 0.9584
vn -0.0667 0.1927 0.9790
vn -0.0827 0.2604 0.9620
vn -0.0350 0.1806 0.9829
vn -0.0490 0.2367 0.9703
vn -0.0001 0.1787 0.9839
vn -0.0083 0.2213 0.9752
vn 0.0381 0.1827 0.9824
vn 0.0351 0.2152 0.9759
vn 0.0844 0.1903 0.9781
vn 0.0805 0.2106 0.9742
vn 0.1468 0.1908 0.9706
vn 0.1320 0.1988 0.9711
vn 0.2262 0.1770 0.9579
vn 0.2033 0.1725 0.9638
vn 0.2861 0.1671 0.9435
vn 0.2736 0.1398 0.9516
vn 0.3081 0.1710 0.9358
vn 0.3156 0.1179 0.9416
vn 0.3106 0.1909 0.9312
vn 0.3340 0.1180 0.9351
vn 0.2730 0.2234 0.9357
vn 0.3262 0.1464 0.9339
vn 0.2081 0.2853 0.9356
vn 0.2785 0.2154 0.9360
vn 0.1571 0.3356 0.9288
vn 0.2096 0.2947 0.9323
vn 0.1535 0.2290 0.9612
vn 0.1880 0.2066 0.9602
vn 0.0444 0.2709 0.9616
vn -0.0706 0.2909 0.9541
vn -0.1066 0.2804 0.9539
vn -0.0770 0.2515 0.9648
vn -0.0230 0.2241 0.9743
vn 0.0277 0.2151 0.9762
vn 0.0688 0.2110 0.9751
vn 0.1108 0.2013 0.9732
vn 0.1728 0.1775 0.9688
vn 0.2399 0.1401 0.9606
vn 0.2933 0.1025 0.9505
vn 0.3416 0.0826 0.9362
vn 0.3661 0.0983 0.9254
vn 0.3528 0.1460 0.9242
vn 0.2919 0.2212 0.9305
vn 0.1810 0.2223 0.9580
vn 0.1970 0.2166 0.9562
vn 0.0786 0.2527 0.9643
vn -0.0616 0.2798 0.9581
vn -0.1237 0.2823 0.9513
vn -0.1099 0.2576 0.9600
vn -0.0479 0.2219 0.9739
vn 0.0220 0.2060 0.9783
vn 0.0677 0.2105 0.9753
vn 0.0996 0.2160 0.9713
vn 0.1450 0.2038 0.9682
vn 0.2044 0.1708 0.9639
vn 0.2651 0.1321 0.9551
vn 0.3332 0.1046 0.9370
vn 0.3846 0.0965 0.9180
vn 0.3917 0.1144 0.9129
vn 0.3487 0.1489 0.9254
vn 0.1866 0.2261 0.9561
vn 0.2064 0.2147 0.9546
vn 0.1029 0.2370 0.9661
vn -0.0379 0.2623 0.9642
vn -0.1290 0.2750 0.9527
vn -0.1419 0.2604 0.9550
vn -0.0788 0.2359 0.9686
vn 0.0159 0.2180 0.9758
vn 0.0803 0.2168 0.9729
vn 0.1052 0.2300 0.9675
vn 0.1283 0.2315 0.9643
vn 0.1708 0.2107 0.9625
vn 0.2322 0.1775 0.9563
vn 0.3114 0.1476 0.9388
vn 0.3763 0.1199 0.9187
vn 0.3986 0.1037 0.9112
vn 0.3764 0.0955 0.9215
vn 0.1995 0.2176 0.9554
vn 0.2435 0.1939 0.9503
vn 0.1135 0.2233 0.9681
vn -0.0200 0.2440 0.9696
vn -0.1237 0.2629 0.9568
vn -0.1516 0.2716 0.9504
vn -0.0943 0.2765 0.9564
vn 0.0016 0.2702 0.9628
vn 0.0808 0.2505 0.9647
vn 0.1154 0.2503 0.9613
vn 0.1254 0.2542 0.9590
vn 0.1512 0.2433 0.9581
vn 0.2060 0.2164 0.9543
vn 0.2826 0.1881 0.9406
vn 0.3481 0.1421 0.9266
vn 0.3711 0.1040 0.9228
vn 0.3512 0.0663 0.9340
vn 0.2134 0.1650 0.9629
vn 0.2738 0.1547 0.9493
vn 0.1273 0.1777 0.9758
vn 0.0047 0.2076 0.9782
vn -0.0974 0.2501 0.9633
vn -0.1273 0.2915 0.9481
vn -0.0813 0.3320 0.9398
vn -0.0123 0.3473 0.9377
vn 0.0589 0.3187 0.9460
vn 0.1085 0.2895 0.9510
vn 0.1205 0.2798 0.9525
vn 0.1326 0.2687 0.9540
vn 0.1801 0.2395 0.9541
vn 0.2447 0.2086 0.9469
vn 0.3031 0.1548 0.9403
vn 0.3329 0.1004 0.9376
vn 0.3144 0.0573 0.9476
vn 0.2223 0.0205 0.9748
vn 0.2614 0.0283 0.9648
vn 0.1560 0.0389 0.9870
vn 0.0564 0.0903 0.9943
vn -0.0336 0.1750 0.9840
vn -0.0632 0.2813 0.9575
vn -0.0330 0.3651 0.9304
vn -0.0135 0.4085 0.9127
vn 0.0164 0.3981 0.9172
vn 0.0718 0.3559 0.9318
vn 0.1015 0.3220 0.9413
vn 0.1090 0.2989 0.9480
vn 0.1475 0.2648 0.9529
vn 0.2038 0.2238 0.9531
vn 0.2496 0.1818 0.9511
vn 0.2830 0.1334 0.9498
vn 0.2713 0.0828 0.9589
vn 0.2232 -0.1535 0.9626
vn 0.2400 -0.1486 0.9593
vn 0.1943 -0.1404 0.9708
vn 0.1412 -0.0856 0.9863
vn 0.1012 0.0198 0.9947
vn 0.0788 0.1662 0.9829
vn 0.0642 0.2884 0.9554
vn 0.0266 0.3666 0.9300
vn -0.0030 0.4071 0.9134
vn 0.0204 0.4020 0.9154
vn 0.0555 0.3734 0.9260
vn 0.0702 0.3385 0.9383
vn 0.1032 0.2940 0.9502
vn 0.1640 0.2474 0.9549
vn 0.2169 0.2145 0.9523
vn 0.2386 0.1829 0.9537
vn 0.2155 0.1348 0.9672
vn 0.2254 -0.2316 0.9463
vn 0.2344 -0.2359 0.9431
vn 0.2187 -0.2329 0.9476
vn 0.2109 -0.2189 0.9527
vn 0.2134 -0.1680 0.9624
vn 0.2104 -0.0819 0.9742
vn 0.1860 0.0276 0.9822
vn 0.1266 0.1499 0.9806
vn 0.0600 0.2901 0.9551
vn 0.0321 0.3714 0.9279
vn 0.0270 0.3983 0.9169
vn 0.0196 0.3721 0.9280
vn 0.0502 0.3250 0.9444
vn 0.1237 0.2794 0.9522
vn 0.1859 0.2481 0.9507
vn 0.2024 0.2193 0.9544
vn 0.1637 0.1807 0.9698
vn 0.2233 -0.2393 0.9449
vn 0.2421 -0.2392 0.9403
vn 0.2033 -0.2553 0.9452
vn 0.2019 -0.2718 0.9409
vn 0.2308 -0.2757 0.9331
vn 0.2633 -0.2522 0.9312
vn 0.2852 -0.1984 0.9377
vn 0.2895 -0.1047 0.9514
vn 0.2370 0.0308 0.9710
vn 0.1490 0.1722 0.9737
vn 0.0579 0.2844 0.9569
vn -0.0146 0.3450 0.9385
vn 0.0010 0.3543 0.9351
vn 0.0832 0.3204 0.9436
vn 0.1550 0.2897 0.9445
vn 0.1673 0.2670 0.9491
vn 0.1231 0.2373 0.9636
vn 0.2113 -0.2251 0.9511
vn 0.2443 -0.2119 0.9463
vn 0.1859 -0.2395 0.9529
vn 0.1863 -0.2506 0.9500
vn 0.2252 -0.2614 0.9386
vn 0.2768 -0.2662 0.9233
vn 0.3198 -0.2522 0.9133
vn 0.3400 -0.2250 0.9131
vn 0.3242 -0.1874 0.9272
vn 0.2864 -0.0857 0.9543
vn 0.2148 0.0614 0.9747
vn 0.0996 0.2259 0.9690
vn 0.0235 0.3351 0.9419
vn 0.0540 0.3424 0.9380
vn 0.1282 0.3237 0.9374
vn 0.1431 0.3017 0.9426
vn 0.0872 0.2807 0.9558
vn 0.2006 -0.1921 0.9607
vn 0.2399 -0.1886 0.9523
vn 0.1812 -0.1888 0.9651
vn 0.1809 -0.1840 0.9661
vn 0.2135 -0.1891 0.9585
vn 0.2683 -0.2072 0.9408
vn 0.3187 -0.2198 0.9220
vn 0.3450 -0.2215 0.9121
vn 0.3636 -0.2098 0.9076
vn 0.3805 -0.1639 0.9101
vn 0.3571 -0.0753 0.9310
vn 0.2665 0.0660 0.9616
vn 0.1283 0.2290 0.9649
vn 0.0734 0.3156 0.9460
vn 0.1115 0.3303 0.9372
vn 0.1175 0.3066 0.9446
vn 0.0535 0.2780 0.9591
vn 0.2174 -0.1373 0.9664
vn 0.2517 -0.1556 0.9552
vn 0.1993 -0.1070 0.9741
vn 0.1903 -0.0820 0.9783
vn 0.2052 -0.0726 0.9760
vn 0.2490 -0.0871 0.9646
vn 0.3093 -0.1115 0.9444
vn 0.3524 -0.1221 0.9278
vn 0.3787 -0.1171 0.9181
vn 0.4087 -0.1033 0.9068
vn 0.4235 -0.0722 0.9030
vn 0.3880 0.0008 0.9217
vn 0.2764 0.1211 0.9534
vn 0.1653 0.2376 0.9572
vn 0.1209 0.2986 0.9467
vn 0.0851 0.2849 0.9548
vn 0.0144 0.2442 0.9696
vn 0.2527 -0.0677 0.9652
vn 0.2677 -0.0921 0.9591
vn 0.2388 -0.0229 0.9708
vn 0.2173 0.0211 0.9759
vn 0.2113 0.0476 0.9763
vn 0.2344 0.0510 0.9708
vn 0.2910 0.0327 0.9562
vn 0.3460 0.0050 0.9382
vn 0.3859 -0.0015 0.9225
vn 0.4222 0.0083 0.9065
vn 0.4461 0.0180 0.8948
vn 0.4355 0.0316 0.8996
vn 0.3546 0.0688 0.9325
vn 0.2545 0.1386 0.9571
vn 0.1628 0.2179 0.9623
vn 0.0590 0.2349 0.9702
vn -0.0236 0.2047 0.9785
vn 0.2850 -0.0140 0.9584
vn 0.2785 -0.0274 0.9600
vn 0.2842 0.0133 0.9587
vn 0.2573 0.0569 0.9646
vn 0.2332 0.1009 0.9672
vn 0.2348 0.1286 0.9635
vn 0.2677 0.1250 0.9554
vn 0.3237 0.0976 0.9411
vn 0.3831 0.0844 0.9198
vn 0.4257 0.0828 0.9011
vn 0.4422 0.0775 0.8936
vn 0.4281 0.0586 0.9018
vn 0.3709 0.0322 0.9281
vn 0.3089 0.0563 0.9494
vn 0.2182 0.1090 0.9698
vn 0.0707 0.1644 0.9839
vn -0.0380 0.1837 0.9823
vn 0.2910 0.0095 0.9567
vn 0.2793 0.0131 0.9601
vn 0.3043 0.0136 0.9525
vn 0.2987 0.0420 0.9534
vn 0.2782 0.0905 0.9563
vn 0.2565 0.1349 0.9571
vn 0.2618 0.1528 0.9530
vn 0.3097 0.1471 0.9394
vn 0.3728 0.1407 0.9172
vn 0.4148 0.1322 0.9003
vn 0.4238 0.1146 0.8985
vn 0.3955 0.0778 0.9152
vn 0.3507 0.0289 0.9360
vn 0.3250 0.0170 0.9456
vn 0.2669 0.0249 0.9634
vn 0.1337 0.0878 0.9871
vn -0.0085 0.1773 0.9841
vt 0.015625 0.015625
vt 0.076172 0.015625
vt 0.076172 0.076172
vt 0.015625 0.076172
vt 0.136719 0.015625
vt 0.136719 0.076172
vt 0.197266 0.015625
vt 0.197266 0.076172
vt 0.257812 0.015625
vt 0.257812 0.076172
vt 0.318359 0.015625
vt 0.318359 0.076172
vt 0.378906 0.015625
vt 0.378906 0.076172
vt 0.439453 0.015625
vt 0.439453 0.076172
vt 0.500000 0.015625
vt 0.500000 0.076172
vt 0.560547 0.015625
vt 0.560547 0.076172
vt 0.621094 0.015625
vt 0.621094 0.076172
vt 0.681641 0.015625
vt 0.681641 0.076172
vt 0.742188 0.015625
vt 0.742188 0.076172
vt 0.802734 0.015625
vt 0.802734 0.076172
vt 0.863281 0.015625
vt 0.863281 0.076172
vt 0.923828 0.015625
vt 0.923828 0.076172
vt 0.984375 0.015625
vt 0.984375 0.076172
vt 0.076172 0.136719
vt 0.015625 0.136719
vt 0.136719 0.136719
vt 0.197266 0.136719
vt 0.257812 0.136719
vt 0.318359 0.136719
vt 0.378906 0.136719
vt 0.439453 0.136719
vt 0.500000 0.136719
vt 0.560547 0.136719
vt 0.621094 0.136719
vt 0.681641 0.136719
vt 0.742188 0.136719
vt 0.802734 0.136719
vt 0.863281 0.136719
vt 0.923828 0.136719
vt 0.984375 0.136719
vt 0.076172 0.197266
vt 0.015625 0.197266
vt 0.136719 0.197266
vt 0.197266 0.197266
vt 0.257812 0.197266
vt 0.318359 0.197266
vt 0.378906 0.197266
vt 0.439453 0.197266
vt 0.500000 0.197266
vt 0.560547 0.197266
vt 0.621094 0.197266
vt 0.681641 0.197266
vt 0.742188 0.197266
vt 0.802734 0.197266
vt 0.863281 0.197266
vt 0.923828 0.197266
vt 0.984375 0.197266
vt 0.076172 0.257812
vt 0.015625 0.257812
vt 0.136719 0.257812
vt 0.197266 0.257812
vt 0.257812 0.257812
vt 0.318359 0.257812
vt 0.378906 0.257812
vt 0.439453 0.257812
vt 0.500000 0.257812
vt 0.560547 0.257812
vt 0.621094 0.257812
vt 0.681641 0.257812
vt 0.742188 0.257812
vt 0.802734 0.257812
vt 0.863281 0.257812
vt 0.923828 0.257812
vt 0.984375 0.257812
vt 0.076172 0.318359
vt 0.015625 0.318359
vt 0.136719 0.318359
vt 0.197266 0.318359
vt 0.257812 0.318359
vt 0.318359 0.318359
vt 0.378906 0.318359
vt 0.439453 0.318359
vt 0.500000 0.318359
vt 0.560547 0.318359
vt 0.621094 0.318359
vt 0.681641 0.318359
vt 0.742188 0.318359
vt 0.802734 0.318359
vt 0.863281 0.318359
vt 0.923828 0.318359
vt 0.984375 0.318359
vt 0.076172 0.378906
vt 0.015625 0.378906
vt 0.136719 0.378906
vt 0.197266 0.378906
vt 0.257812 0.378906
vt 0.318359 0.378906
vt 0.378906 0.378906
vt 0.439453 0.378906
vt 0.500000 0.378906
vt 0.560547 0.378906
vt 0.621094 0.378906
vt 0.681641 0.378906
vt 0.742188 0.378906
vt 0.802734 0.378906
vt 0.863281 0.378906
vt 0.923828 0.378906
vt 0.984375 0.378906
vt 0.076172 0.439453
vt 0.015625 0.439453
vt 0.136719 0.439453
vt 0.197266 0.439453
vt 0.257812 0.439453
vt 0.318359 0.439453
vt 0.378906 0.439453
vt 0.439453 0.439453
vt 0.500000 0.439453
vt 0.560547 0.439453
vt 0.621094 0.439453
vt 0.681641 0.439453
vt 0.742188 0.439453
vt 0.802734 0.439453
vt 0.863281 0.439453
vt 0.923828 0.439453
vt 0.984375 0.439453
vt 0.076172 0.500000
vt 0.015625 0.500000
vt 0.136719 0.500000
vt 0.197266 0.500000
vt 0.257812 0.500000
vt 0.318359 0.500000
vt 0.378906 0.500000
vt 0.439453 0.500000
vt 0.500000 0.500000
vt 0.560547 0.500000
vt 0.621094 0.500000
vt 0.681641 0.500000
vt 0.742188 0.500000
vt 0.802734 0.500000
vt 0.863281 0.500000
vt 0.923828 0.500000
vt 0.984375 0.500000
vt 0.076172 0.560547
vt 0.015625 0.560547
vt 0.136719 0.560547
vt 0.197266 0.560547
vt 0.257812 0.560547
vt 0.318359 0.560547
vt 0.378906 0.560547
vt 0.439453 0.560547
vt 0.500000 0.560547
vt 0.560547 0.560547
vt 0.621094 0.560547
vt 0.681641 0.560547
vt 0.742188 0.560547
vt 0.802734 0.560547
vt 0.863281 0.560547
vt 0.923828 0.560547
vt 0.984375 0.560547
vt 0.076172 0.621094
vt 0.015625 0.621094
vt 0.136719 0.621094
vt 0.197266 0.621094
vt 0.257812 0.621094
vt 0.318359 0.621094
vt 0.378906 0.621094
vt 0.439453 0.621094
vt 0.500000 0.621094
vt 0.560547 0.621094
vt 0.621094 0.621094
vt 0.681641 0.621094
vt 0.742188 0.621094
vt 0.802734 0.621094
vt 0.863281 0.621094
vt 0.923828 0.621094
vt 0.984375 0.621094
vt 0.076172 0.681641
vt 0.015625 0.681641
vt 0.136719 0.681641
vt 0.197266 0.681641
vt 0.257812 0.681641
vt 0.318359 0.681641
vt 0.378906 0.681641
vt 0.439453 0.681641
vt 0.500000 0.681641
vt 0.560547 0.681641
vt 0.621094 0.681641
vt 0.681641 0.681641
vt 0.742188 0.681641
vt 0.802734 0.681641
vt 0.863281 0.681641
vt 0.923828 0.681641
vt 0.984375 0.681641
vt 0.076172 0.742188
vt 0.015625 0.742188
vt 0.136719 0.742188
vt 0.197266 0.742188
vt 0.257812 0.742188
vt 0.318359 0.742188
vt 0.378906 0.742188
vt 0.439453 0.742188
vt 0.500000 0.742188
vt 0.560547 0.742188
vt 0.621094 0.742188
vt 0.681641 0.742188
vt 0.742188 0.742188
vt 0.802734 0.742188
vt 0.863281 0.742188
vt 0.923828 0.742188
vt 0.984375 0.742188
vt 0.076172 0.802734
vt 0.015625 0.802734
vt 0.136719 0.802734
vt 0.197266 0.802734
vt 0.257812 0.802734
vt 0.318359 0.802734
vt 0.378906 0.802734
vt 0.439453 0.802734
vt 0.500000 0.802734
vt 0.560547 0.802734
vt 0.621094 0.802734
vt 0.681641 0.802734
vt 0.742188 0.802734
vt 0.802734 0.802734
vt 0.863281 0.802734
vt 0.923828 0.802734
vt 0.984375 0.802734
vt 0.076172 0.863281
vt 0.015625 0.863281
vt 0.136719 0.863281
vt 0.197266 0.863281
vt 0.257812 0.863281
vt 0.318359 0.863281
vt 0.378906 0.863281
vt 0.439453 0.863281
vt 0.500000 0.863281
vt 0.560547 0.863281
vt 0.621094 0.863281
vt 0.681641 0.863281
vt 0.742188 0.863281
vt 0.802734 0.863281
vt 0.863281 0.863281
vt 0.923828 0.863281
vt 0.984375 0.863281
vt 0.076172 0.923828
vt 0.015625 0.923828
vt 0.136719 0.923828
vt 0.197266 0.923828
vt 0.257812 0.923828
vt 0.318359 0.923828
vt 0.378906 0.923828
vt 0.439453 0.923828
vt 0.500000 0.923828
vt 0.560547 0.923828
vt 0.621094 0.923828
vt 0.681641 0.923828
vt 0.742188 0.923828
vt 0.802734 0.923828
vt 0.863281 0.923828
vt 0.923828 0.923828
vt 0.984375 0.923828
vt 0.076172 0.984375
vt 0.015625 0.984375
vt 0.136719 0.984375
vt 0.197266 0.984375
vt 0.257812 0.984375
vt 0.318359 0.984375
vt 0.378906 0.984375
vt 0.439453 0.984375
vt 0.500000 0.984375
vt 0.560547 0.984375
vt 0.621094 0.984375
vt 0.681641 0.984375
vt 0.742188 0.984375
vt 0.802734 0.984375
vt 0.863281 0.984375
vt 0.923828 0.984375
vt 0.984375 0.984375
s 1
f 1/1/1 2/2/2 19/3/3
f 1/1/1 19/3/3 18/4/4
f 2/2/2 3/5/5 20/6/6
f 2/2/2 20/6/6 19/3/3
f 3/5/5 4/7/7 21/8/8
f 3/5/5 21/8/8 20/6/6
f 4/7/7 5/9/9 22/10/10
f 4/7/7 22/10/10 21/8/8
f 5/9/9 6/11/11 23/12/12
f 5/9/9 23/12/12 22/10/10
f 6/11/11 7/13/13 24/14/14
f 6/11/11 24/14/14 23/12/12
f 7/13/13 8/15/15 25/16/16
f 7/13/13 25/16/16 24/14/14
f 8/15/15 9/17/17 26/18/18
f 8/15/15 26/18/18 25/16/16
f 9/17/17 10/19/19 27/20/20
f 9/17/17 27/20/20 26/18/18
f 10/19/19 11/21/21 28/22/22
f 10/19/19 28/22/22 27/20/20
f 11/21/21 12/23/23 29/24/24
f 11/21/21 29/24/24 28/22/22
f 12/23/23 13/25/25 30/26/26
f 12/23/23 30/26/26 29/24/24
f 13/25/25 14/27/27 31/28/28
f 13/25/25 31/28/28 30/26/26
f 14/27/27 15/29/29 32/30/30
f 14/27/27 32/30/30 31/28/28
f 15/29/29 16/31/31 33/32/32
f 15/29/29 33/32/32 32/30/30
f 16/31/31 17/33/33 34/34/34
f 16/31/31 34/34/34 33/32/32
f 18/4/4 19/3/3 36/35/35
f 18/4/4 36/35/35 35/36/36
f 19/3/3 20/6/6 37/37/37
f 19/3/3 37/37/37 36/35/35
f 20/6/6 21/8/8 38/38/38
f 20/6/6 38/38/38 37/37/37
f 21/8/8 22/10/10 39/39/39
f 21/8/8 39/39/39 38/38/38
f 22/10/10 23/12/12 40/40/40
f 22/10/10 40/40/40 39/39/39
f 23/12/12 24/14/14 41/41/41
f 23/12/12 41/41/41 40/40/40
f 24/14/14 25/16/16 42/42/42
f 24/14/14 42/42/42 41/41/41
f 25/16/16 26/18/18 43/43/43
f 25/16/16 43/43/43 42/42/42
f 26/18/18 27/20/20 44/44/44
f 26/18/18 44/44/44 43/43/43
f 27/20/20 28/22/22 45/45/45
f 27/20/20 45/45/45 44/44/44
f 28/22/22 29/24/24 46/46/46
f 28/22/22 46/46/46 45/45/45
f 29/24/24 30/26/26 47/47/47
f 29/24/24 47/47/47 46/46/46
f 30/26/26 31/28/28 48/48/48
f 30/26/26 48/48/48 47/47/47
f 31/28/28 32/30/30 49/49/49
f 31/28/28 49/49/49 48/48/48
f 32/30/30 33/32/32 50/50/50
f 32/30/30 50/50/50 49/49/49
f 33/32/32 34/34/34 51/51/51
f 33/32/32 51/51/51 50/50/50
f 35/36/36 36/35/35 53/52/52
f 35/36/36 53/52/52 52/53/53
f 36/35/35 37/37/37 54/54/54
f 36/35/35 54/54/54 53/52/52
f 37/37/37 38/38/38 55/55/55
f 37/37/37 55/55/55 54/54/54
f 38/38/38 39/39/39 56/56/56
f 38/38/38 56/56/56 55/55/55
f 39/39/39 40/40/40 57/57/57
f 39/39/39 57/57/57 56/56/56
f 40/40/40 41/41/41 58/58/58
f 40/40/40 58/58/58 57/57/57
f 41/41/41 42/42/42 59/59/59
f 41/41/41 59/59/59 58/58/58
f 42/42/42 43/43/43 60/60/60
f 42/42/42 60/60/60 59/59/59
f 43/43/43 44/44/44 61/61/61
f 43/43/43 61/61/61 60/60/60
f 44/44/44 45/45/45 62/62/62
f 44/44/44 62/62/62 61/61/61
f 45/45/45 46/46/46 63/63/63
f 45/45/45 63/63/63 62/62/62
f 46/46/46 47/47/47 64/64/64
f 46/46/46 64/64/64 63/63/63
f 47/47/47 48/48/48 65/65/65
f 47/47/47 65/65/65 64/64/64
f 48/48/48 49/49/49 66/66/66
f 48/48/48 66/66/66 65/65/65
f 49/49/49 50/50/50 67/67/67
f 49/49/49 67/67/67 66/66/66
f 50/50/50 51/51/51 68/68/68
f 50/50/50 68/68/68 67/67/67
f 52/53/53 53/52/52 70/69/69
f 52/53/53 70/69/69 69/70/70
f 53/52/52 54/54/54 71/71/71
f 53/52/52 71/71/71 70/69/69
f 54/54/54 55/55/55 72/72/72
f 54/54/54 72/72/72 71/71/71
f 55/55/55 56/56/56 73/73/73
f 55/55/55 73/73/73 72/72/72
f 56/56/56 57/57/57 74/74/74
f 56/56/56 74/74/74 73/73/73
f 57/57/57 58/58/58 75/75/75
f 57/57/57 75/75/75 74/74/74
f 58/58/58 59/59/59 76/76/76
f 58/58/58 76/76/76 75/75/75
f 59/59/59 60/60/60 77/77/77
f 59/59/59 77/77/77 76/76/76
f 60/60/60 61/61/61 78/78/78
f 60/60/60 78/78/78 77/77/77
f 61/61/61 62/62/62 79/79/79
f 61/61/61 79/79/79 78/78/78
f 62/62/62 63/63/63 80/80/80
f 62/62/62 80/80/80 79/79/79
f 63/63/63 64/64/64 81/81/81
f 63/63/63 81/81/81 80/80/80
f 64/64/64 65/65/65 82/82/82
f 64/64/64 82/82/82 81/81/81
f 65/65/65 66/66/66 83/83/83
f 65/65/65 83/83/83 82/82/82
f 66/66/66 67/67/67 84/84/84
f 66/66/66 84/84/84 83/83/83
f 67/67/67 68/68/68 85/85/85
f 67/67/67 85/85/85 84/84/84
f 69/70/70 70/69/69 87/86/86
f 69/70/70 87/86/86 86/87/87
f 70/69/69 71/71/71 88/88/88
f 70/69/69 88/88/88 87/86/86
f 71/71/71 72/72/72 89/89/89
f 71/71/71 89/89/89 88/88/88
f 72/72/72 73/73/73 90/90/90
f 72/72/72 90/90/90 89/89/89
f 73/73/73 74/74/74 91/91/91
f 73/73/73 91/91/91 90/90/90
f 74/74/74 75/75/75 92/92/92
f 74/74/74 92/92/92 91/91/91
f 75/75/75 76/76/76 93/93/93
f 75/75/75 93/93/93 92/92/92
f 76/76/76 77/77/77 94/94/94
f 76/76/76 94/94/94 93/93/93
f 77/77/77 78/78/78 95/95/95
f 77/77/77 95/95/95 94/94/94
f 78/78/78 79/79/79 96/96/96
f 78/78/78 96/96/96 95/95/95
f 79/79/79 80/80/80 97/97/97
f 79/79/79 97/97/97 96/96/96
f 80/80/80 81/81/81 98/98/98
f 80/80/80 98/98/98 97/97/97
f 81/81/81 82/82/82 99/99/99
f 81/81/81 99/99/99 98/98/98
f 82/82/82 83/83/83 100/100/100
f 82/82/82 100/100/100 99/99/99
f 83/83/83 84/84/84 101/101/101
f 83/83/83 101/101/101 100/100/100
f 84/84/84 85/85/85 102/102/102
f 84/84/84 102/102/102 101/101/101
f 86/87/87 87/86/86 104/103/103
f 86/87/87 104/103/103 103/104/104
f 87/86/86 88/88/88 105/105/105
f 87/86/86 105/105/105 104/103/103
f 88/88/88 89/89/89 106/106/106
f 88/88/88 106/106/106 105/105/105
f 89/89/89 90/90/90 107/107/107
f 89/89/89 107/107/107 106/106/106
f 90/90/90 91/91/91 108/108/108
f 90/90/90 108/108/108 107/107/107
f 91/91/91 92/92/92 109/109/109
f 91/91/91 109/109/109 108/108/108
f 92/92/92 93/93/93 110/110/110
f 92/92/92 110/110/110 109/109/109
f 93/93/93 94/94/94 111/111/111
f 93/93/93 111/111/111 110/110/110
f 94/94/94 95/95/95 112/112/112
f 94/94/94 112/112/112 111/111/111
f 95/95/95 96/96/96 113/113/113
f 95/95/95 113/113/113 112/112/112
f 96/96/96 97/97/97 114/114/114
f 96/96/96 114/114/114 113/113/113
f 97/97/97 98/98/98 115/115/115
f 97/97/97 115/115/115 114/114/114
f 98/98/98 99/99/99 116/116/116
f 98/98/98 116/116/116 115/115/115
f 99/99/99 100/100/100 117/117/117
f 99/99/99 117/117/117 116/116/116
f 100/100/100 101/101/101 118/118/118
f 100/100/100 118/118/118 117/117/117
f 101/101/101 102/102/102 119/119/119
f 101/101/101 119/119/119 118/118/118
f 103/104/104 104/103/103 121/120/120
f 103/104/104 121/120/120 120/121/121
f 104/103/103 105/105/105 122/122/122
f 104/103/103 122/122/122 121/120/120
f 105/105/105 106/106/106 123/123/123
f 105/105/105 123/123/123 122/122/122
f 106/106/106 107/107/107 124/124/124
f 106/106/106 124/124/124 123/123/123
f 107/107/107 108/108/108 125/125/125
f 107/107/107 125/125/125 124/124/124
f 108/108/108 109/109/109 126/126/126
f 108/108/108 126/126/126 125/125/125
f 109/109/109 110/110/110 127/127/127
f 109/109/109 127/127/127 126/126/126
f 110/110/110 111/111/111 128/128/128
f 110/110/110 128/128/128 127/127/127
f 111/111/111 112/112/112 129/129/129
f 111/111/111 129/129/129 128/128/128
f 112/112/112 113/113/113 130/130/130
f 112/112/112 130/130/130 129/129/129
f 113/113/113 114/114/114 131/131/131
f 113/113/113 131/131/131 130/130/130
f 114/114/114 115/115/115 132/132/132
f 114/114/114 132/132/132 131/131/131
f 115/115/115 116/116/116 133/133/133
f 115/115/115 133/133/133 132/132/132
f 116/116/116 117/117/117 134/134/134
f 116/116/116 134/134/134 133/133/133
f 117/117/117 118/118/118 135/135/135
f 117/117/117 135/135/135 134/134/134
f 118/118/118 119/119/119 136/136/136
f 118/118/118 136/136/136 135/135/135
f 120/121/121 121/120/120 138/137/137
f 120/121/121 138/137/137 137/138/138
f 121/120/120 122/122/122 139/139/139
f 121/120/120 139/139/139 138/137/137
f 122/122/122 123/123/123 140/140/140
f 122/122/122 140/140/140 139/139/139
f 123/123/123 124/124/124 141/141/141
f 123/123/123 141/141/141 140/140/140
f 124/124/124 125/125/125 142/142/142
f 124/124/124 142/142/142 141/141/141
f 125/125/125 126/126/126 143/143/143
f 125/125/125 143/143/143 142/142/142
f 126/126/126 127/127/127 144/144/144
f 126/126/126 144/144/144 143/143/143
f 127/127/127 128/128/128 145/145/145
f 127/127/127 145/145/145 144/144/144
f 128/128/128 129/129/129 146/146/146
f 128/128/128 146/146/146 145/145/145
f 129/129/129 130/130/130 147/147/147
f 129/129/129 147/147/147 146/146/146
f 130/130/130 131/131/131 148/148/148
f 130/130/130 148/148/148 147/147/147
f 131/131/131 132/132/132 149/149/149
f 131/131/131 149/149/149 148/148/148
f 132/132/132 133/133/133 150/150/150
f 132/132/132 150/150/150 149/149/149
f 133/133/133 134/134/134 151/151/151
f 133/133/133 151/151/151 150/150/150
f 134/134/134 135/135/135 152/152/152
f 134/134/134 152/152/152 151/151/151
f 135/135/135 136/136/136 153/153/153
f 135/135/135 153/153/153 152/152/152
f 137/138/138 138/137/137 155/154/154
f 137/138/138 155/154/154 154/155/155
f 138/137/137 139/139/139 156/156/156
f 138/137/137 156/156/156 155/154/154
f 139/139/139 140/140/140 157/157/157
f 139/139/139 157/157/157 156/156/156
f 140/140/140 141/141/141 158/158/158
f 140/140/140 158/158/158 157/157/157
f 141/141/141 142/142/142 159/159/159
f 141/141/141 159/159/159 158/158/158
f 142/142/142 143/143/143 160/160/160
f 142/142/142 160/160/160 159/159/159
f 143/143/143 144/144/144 161/161/161
f 143/143/143 161/161/161 160/160/160
f 144/144/144 145/145/145 162/162/162
f 144/144/144 162/162/162 161/161/161
f 145/145/145 146/146/146 163/163/163
f 145/145/145 163/163/163 162/162/162
f 146/146/146 147/147/147 164/164/164
f 146/146/146 164/164/164 163/163/163
f 147/147/147 148/148/148 165/165/165
f 147/147/147 165/165/165 164/164/164
f 148/148/148 149/149/149 166/166/166
f 148/148/148 166/166/166 165/165/165
f 149/149/149 150/150/150 167/167/167
f 149/149/149 167/167/167 166/166/166
f 150/150/150 151/151/151 168/168/168
f 150/150/150 168/168/168 167/167/167
f 151/151/151 152/152/152 169/169/169
f 151/151/151 169/169/169 168/168/168
f 152/152/152 153/153/153 170/170/170
f 152/152/152 170/170/170 169/169/169
f 154/155/155 155/154/154 172/171/171
f 154/155/155 172/171/171 171/172/172
f 155/154/154 156/156/156 173/173/173
f 155/154/154 173/173/173 172/171/171
f 156/156/156 157/157/157 174/174/174
f 156/156/156 174/174/174 173/173/173
f 157/157/157 158/158/158 175/175/175
f 157/157/157 175/175/175 174/174/174
f 158/158/158 159/159/159 176/176/176
f 158/158/158 176/176/176 175/175/175
f 159/159/159 160/160/160 177/177/177
f 159/159/159 177/177/177 176/176/176
f 160/160/160 161/161/161 178/178/178
f 160/160/160 178/178/178 177/177/177
f 161/161/161 162/162/162 179/179/179
f 161/161/161 179/179/179 178/178/178
f 162/162/162 163/163/163 180/180/180
f 162/162/162 180/180/180 179/179/179
f 163/163/163 164/164/164 181/181/181
f 163/163/163 181/181/181 180/180/180
f 164/164/164 165/165/165 182/182/182
f 164/164/164 182/182/182 181/181/181
f 165/165/165 166/166/166 183/183/183
f 165/165/165 183/183/183 182/182/182
f 166/166/166 167/167/167 184/184/184
f 166/166/166 184/184/184 183/183/183
f 167/167/167 168/168/168 185/185/185
f 167/167/167 185/185/185 184/184/184
f 168/168/168 169/169/169 186/186/186
f 168/168/168 186/186/186 185/185/185
f 169/169/169 170/170/170 187/187/187
f 169/169/169 187/187/187 186/186/186
f 171/172/172 172/171/171 189/188/188
f 171/172/172 189/188/188 188/189/189
f 172/171/171 173/173/173 190/190/190
f 172/171/171 190/190/190 189/188/188
f 173/173/173 174/174/174 191/191/191
f 173/173/173 191/191/191 190/190/190
f 174/174/174 175/175/175 192/192/192
f 174/174/174 192/192/192 191/191/191
f 175/175/175 176/176/176 193/193/193
f 175/175/175 193/193/193 192/192/192
f 176/176/176 177/177/177 194/194/194
f 176/176/176 194/194/194 193/193/193
f 177/177/177 178/178/178 195/195/195
f 177/177/177 195/195/195 194/194/194
f 178/178/178 179/179/179 196/196/196
f 178/178/178 196/196/196 195/195/195
f 179/179/179 180/180/180 197/197/197
f 179/179/179 197/197/197 196/196/196
f 180/180/180 181/181/181 198/198/198
f 180/180/180 198/198/198 197/197/197
f 181/181/181 182/182/182 199/199/199
f 181/181/181 199/199/199 198/198/198
f 182/182/182 183/183/183 200/200/200
f 182/182/182 200/200/200 199/199/199
f 183/183/183 184/184/184 201/201/201
f 183/183/183 201/201/201 200/200/200
f 184/184/184 185/185/185 202/202/202
f 184/184/184 202/202/202 201/201/201
f 185/185/185 186/186/186 203/203/203
f 185/185/185 203/203/203 202/202/202
f 186/186/186 187/187/187 204/204/204
f 186/186/186 204/204/204 203/203/203
f 188/189/189 189/188/188 206/205/205
f 188/189/189 206/205/205 205/206/206
f 189/188/188 190/190/190 207/207/207
f 189/188/188 207/207/207 206/205/205
f 190/190/190 191/191/191 208/208/208
f 190/190/190 208/208/208 207/207/207
f 191/191/191 192/192/192 209/209/209
f 191/191/191 209/209/209 208/208/208
f 192/192/192 193/193/193 210/210/210
f 192/192/192 210/210/210 209/209/209
f 193/193/193 194/194/194 211/211/211
f 193/193/193 211/211/211 210/210/210
f 194/194/194 195/195/195 212/212/212
f 194/194/194 212/212/212 211/211/211
f 195/195/195 196/196/196 213/213/213
f 195/195/195 213/213/213 212/212/212
f 196/196/196 197/197/197 214/214/214
f 196/196/196 214/214/214 213/213/213
f 197/197/197 198/198/198 215/215/215
f 197/197/197 215/215/215 214/214/214
f 198/198/198 199/199/199 216/216/216
f 198/198/198 216/216/216 215/215/215
f 199/199/199 200/200/200 217/217/217
f 199/199/199 217/217/217 216/216/216
f 200/200/200 201/201/201 218/218/218
f 200/200/200 218/218/218 217/217/217
f 201/201/201 202/202/202 219/219/219
f 201/201/201 219/219/219 218/218/218
f 202/202/202 203/203/203 220/220/220
f 202/202/202 220/220/220 219/219/219
f 203/203/203 204/204/204 221/221/221
f 203/203/203 221/221/221 220/220/220
f 205/206/206 206/205/205 223/222/222
f 205/206/206 223/222/222 222/223/223
f 206/205/205 207/207/207 224/224/224
f 206/205/205 224/224/224 223/222/222
f 207/207/207 208/208/208 225/225/225
f 207/207/207 225/225/225 224/224/224
f 208/208/208 209/209/209 226/226/226
f 208/208/208 226/226/226 225/225/225
f 209/209/209 210/210/210 227/227/227
f 209/209/209 227/227/227 226/226/226
f 210/210/210 211/211/211 228/228/228
f 210/210/210 228/228/228 227/227/227
f 211/211/211 212/212/212 229/229/229
f 211/211/211 229/229/229 228/228/228
f 212/212/212 213/213/213 230/230/230
f 212/212/212 230/230/230 229/229/229
f 213/213/213 214/214/214 231/231/231
f 213/213/213 231/231/231 230/230/230
f 214/214/214 215/215/215 232/232/232
f 214/214/214 232/232/232 231/231/231
f 215/215/215 216/216/216 233/233/233
f 215/215/215 233/233/233 232/232/232
f 216/216/216 217/217/217 234/234/234
f 216/216/216 234/234/234 233/233/233
f 217/217/217 218/218/218 235/235/235
f 217/217/217 235/235/235 234/234/234
f 218/218/218 219/219/219 236/236/236
f 218/218/218 236/236/236 235/235/235
f 219/219/219 220/220/220 237/237/237
f 219/219/219 237/237/237 236/236/236
f 220/220/220 221/221/221 238/238/238
f 220/220/220 238/238/238 237/237/237
f 222/223/223 223/222/222 240/239/239
f 222/223/223 240/239/239 239/240/240
f 223/222/222 224/224/224 241/241/241
f 223/222/222 241/241/241 240/239/239
f 224/224/224 225/225/225 242/242/242
f 224/224/224 242/242/242 241/241/241
f 225/225/225 226/226/226 243/243/243
f 225/225/225 243/243/243 242/242/242
f 226/226/226 227/227/227 244/244/244
f 226/226/226 244/244/244 243/243/243
f 227/227/227 228/228/228 245/245/245
f 227/227/227 245/245/245 244/244/244
f 228/228/228 229/229/229 246/246/246
f 228/228/228 246/246/246 245/245/245
f 229/229/229 230/230/230 247/247/247
f 229/229/229 247/247/247 246/246/246
f 230/230/230 231/231/231 248/248/248
f 230/230/230 248/248/248 247/247/247
f 231/231/231 232/232/232 249/249/249
f 231/231/231 249/249/249 248/248/248
f 232/232/232 233/233/233 250/250/250
f 232/232/232 250/250/250 249/249/249
f 233/233/233 234/234/234 251/251/251
f 233/233/233 251/251/251 250/250/250
f 234/234/234 235/235/235 252/252/252
f 234/234/234 252/252/252 251/251/251
f 235/235/235 236/236/236 253/253/253
f 235/235/235 253/253/253 252/252/252
f 236/236/236 237/237/237 254/254/254
f 236/236/236 254/254/254 253/253/253
f 237/237/237 238/238/238 255/255/255
f 237/237/237 255/255/255 254/254/254
f 239/240/240 240/239/239 257/256/256
f 239/240/240 257/256/256 256/257/257
f 240/239/239 241/241/241 258/258/258
f 240/239/239 258/258/258 257/256/256
f 241/241/241 242/242/242 259/259/259
f 241/241/241 259/259/259 258/258/258
f 242/242/242 243/243/243 260/260/260
f 242/242/242 260/260/260 259/259/259
f 243/243/243 244/244/244 261/261/261
f 243/243/243 261/261/261 260/260/260
f 244/244/244 245/245/245 262/262/262
f 244/244/244 262/262/262 261/261/261
f 245/245/245 246/246/246 263/263/263
f 245/245/245 263/263/263 262/262/262
f 246/246/246 247/247/247 264/264/264
f 246/246/246 264/264/264 263/263/263
f 247/247/247 248/248/248 265/265/265
f 247/247/247 265/265/265 264/264/264
f 248/248/248 249/249/249 266/266/266
f 248/248/248 266/266/266 265/265/265
f 249/249/249 250/250/250 267/267/267
f 249/249/249 267/267/267 266/266/266
f 250/250/250 251/251/251 268/268/268
f 250/250/250 268/268/268 267/267/267
f 251/251/251 252/252/252 269/269/269
f 251/251/251 269/269/269 268/268/268
f 252/252/252 253/253/253 270/270/270
f 252/252/252 270/270/270 269/269/269
f 253/253/253 254/254/254 271/271/271
f 253/253/253 271/271/271 270/270/270
f 254/254/254 255/255/255 272/272/272
f 254/254/254 272/272/272 271/271/271
f 256/257/257 257/256/256 274/273/273
f 256/257/257 274/273/273 273/274/274
f 257/256/256 258/258/258 275/275/275
f 257/256/256 275/275/275 274/273/273
f 258/258/258 259/259/259 276/276/276
f 258/258/258 276/276/276 275/275/275
f 259/259/259 260/260/260 277/277/277
f 259/259/259 277/277/277 276/276/276
f 260/260/260 261/261/261 278/278/278
f 260/260/260 278/278/278 277/277/277
f 261/261/261 262/262/262 279/279/279
f 261/261/261 279/279/279 278/278/278
f 262/262/262 263/263/263 280/280/280
f 262/262/262 280/280/280 279/279/279
f 263/263/263 264/264/264 281/281/281
f 263/263/263 281/281/281 280/280/280
f 264/264/264 265/265/265 282/282/282
f 264/264/264 282/282/282 281/281/281
f 265/265/265 266/266/266 283/283/283
f 265/265/265 283/283/283 282/282/282
f 266/266/266 267/267/267 284/284/284
f 266/266/266 284/284/284 283/283/283
f 267/267/267 268/268/268 285/285/285
f 267/267/267 285/285/285 284/284/284
f 268/268/268 269/269/269 286/286/286
f 268/268/268 286/286/286 285/285/285
f 269/269/269 270/270/270 287/287/287
f 269/269/269 287/287/287 286/286/286
f 270/270/270 271/271/271 288/288/288
f 270/270/270 288/288/288 287/287/287
f 271/271/271 272/272/272 289/289/289
f 271/271/271 289/289/289 288/288/288
