mtllib terrain_mid_00_03.mtl
usemtl terrain_mid_00_03
# Blender 5.1.1
# www.blender.org
o terrain_mid_00_03
v -160.000000 -160.000000 -73.864990
v -140.000000 -160.000000 -75.522255
v -120.000000 -160.000000 -73.226601
v -100.000000 -160.000000 -67.248451
v -80.000000 -160.000000 -59.822598
v -60.000000 -160.000000 -52.436340
v -40.000000 -160.000000 -45.534264
v -20.000000 -160.000000 -39.966347
v 0.000000 -160.000000 -35.208740
v 20.000000 -160.000000 -31.598833
v 40.000000 -160.000000 -29.185619
v 60.000000 -160.000000 -27.544067
v 80.000000 -160.000000 -25.495613
v 100.000000 -160.000000 -23.086182
v 120.000000 -160.000000 -20.470606
v 140.000000 -160.000000 -17.949959
v 160.000000 -160.000000 -15.563783
v -160.000000 -140.000000 -68.232620
v -140.000000 -140.000000 -70.805618
v -120.000000 -140.000000 -68.273476
v -100.000000 -140.000000 -61.886650
v -80.000000 -140.000000 -54.310478
v -60.000000 -140.000000 -46.700073
v -40.000000 -140.000000 -39.621185
v -20.000000 -140.000000 -33.524590
v 0.000000 -140.000000 -28.048330
v 20.000000 -140.000000 -23.905172
v 40.000000 -140.000000 -21.364014
v 60.000000 -140.000000 -19.762938
v 80.000000 -140.000000 -17.978519
v 100.000000 -140.000000 -15.783590
v 120.000000 -140.000000 -13.460135
v 140.000000 -140.000000 -11.172619
v 160.000000 -140.000000 -9.003873
v -160.000000 -120.000000 -62.725719
v -140.000000 -120.000000 -65.699989
v -120.000000 -120.000000 -63.303726
v -100.000000 -120.000000 -56.926659
v -80.000000 -120.000000 -49.568993
v -60.000000 -120.000000 -41.974434
v -40.000000 -120.000000 -34.658829
v -20.000000 -120.000000 -27.808123
v 0.000000 -120.000000 -21.580967
v 20.000000 -120.000000 -16.954798
v 40.000000 -120.000000 -14.020858
v 60.000000 -120.000000 -12.116947
v 80.000000 -120.000000 -10.448701
v 100.000000 -120.000000 -8.400069
v 120.000000 -120.000000 -6.281912
v 140.000000 -120.000000 -4.219239
v 160.000000 -120.000000 -2.186084
v -160.000000 -100.000000 -57.973221
v -140.000000 -100.000000 -60.840199
v -120.000000 -100.000000 -58.555454
v -100.000000 -100.000000 -52.256920
v -80.000000 -100.000000 -44.916286
v -60.000000 -100.000000 -37.349529
v -40.000000 -100.000000 -30.031937
v -20.000000 -100.000000 -22.699192
v 0.000000 -100.000000 -15.858938
v 20.000000 -100.000000 -10.574765
v 40.000000 -100.000000 -7.090506
v 60.000000 -100.000000 -4.660344
v 80.000000 -100.000000 -2.857267
v 100.000000 -100.000000 -0.861295
v 120.000000 -100.000000 1.110381
v 140.000000 -100.000000 3.009612
v 160.000000 -100.000000 4.868984
v -160.000000 -80.000000 -53.472191
v -140.000000 -80.000000 -56.208687
v -120.000000 -80.000000 -53.938347
v -100.000000 -80.000000 -47.693840
v -80.000000 -80.000000 -40.332844
v -60.000000 -80.000000 -32.883141
v -40.000000 -80.000000 -25.654932
v -20.000000 -80.000000 -18.041519
v 0.000000 -80.000000 -10.696995
v 20.000000 -80.000000 -4.788355
v 40.000000 -80.000000 -0.496471
v 60.000000 -80.000000 2.472377
v 80.000000 -80.000000 4.627651
v 100.000000 -80.000000 6.553225
v 120.000000 -80.000000 8.372612
v 140.000000 -80.000000 10.101287
v 160.000000 -80.000000 11.752647
v -160.000000 -60.000000 -49.231133
v -140.000000 -60.000000 -51.726841
v -120.000000 -60.000000 -49.397171
v -100.000000 -60.000000 -43.229458
v -80.000000 -60.000000 -35.867088
v -60.000000 -60.000000 -28.686022
v -40.000000 -60.000000 -21.440277
v -20.000000 -60.000000 -13.638202
v 0.000000 -60.000000 -5.976305
v 20.000000 -60.000000 0.533436
v 40.000000 -60.000000 5.678174
v 60.000000 -60.000000 9.336100
v 80.000000 -60.000000 11.896226
v 100.000000 -60.000000 13.820889
v 120.000000 -60.000000 15.511633
v 140.000000 -60.000000 17.046755
v 160.000000 -60.000000 18.405579
v -160.000000 -40.000000 -45.076733
v -140.000000 -40.000000 -47.548538
v -120.000000 -40.000000 -45.411915
v -100.000000 -40.000000 -39.326382
v -80.000000 -40.000000 -32.005074
v -60.000000 -40.000000 -24.765961
v -40.000000 -40.000000 -17.098356
v -20.000000 -40.000000 -8.934582
v 0.000000 -40.000000 -1.141324
v 20.000000 -40.000000 5.716375
v 40.000000 -40.000000 11.601612
v 60.000000 -40.000000 15.912824
v 80.000000 -40.000000 19.045914
v 100.000000 -40.000000 21.302597
v 120.000000 -40.000000 22.984955
v 140.000000 -40.000000 24.253071
v 160.000000 -40.000000 25.162308
v -160.000000 -20.000000 -40.202091
v -140.000000 -20.000000 -43.381836
v -120.000000 -20.000000 -41.526741
v -100.000000 -20.000000 -35.449875
v -80.000000 -20.000000 -28.218613
v -60.000000 -20.000000 -20.945190
v -40.000000 -20.000000 -12.806330
v -20.000000 -20.000000 -4.395390
v 0.000000 -20.000000 3.482828
v 20.000000 -20.000000 10.623880
v 40.000000 -20.000000 17.091854
v 60.000000 -20.000000 22.178101
v 80.000000 -20.000000 25.883415
v 100.000000 -20.000000 28.459831
v 120.000000 -20.000000 30.178730
v 140.000000 -20.000000 31.028309
v 160.000000 -20.000000 31.223730
v -160.000000 0.000000 -35.087368
v -140.000000 0.000000 -38.712959
v -120.000000 0.000000 -37.124218
v -100.000000 0.000000 -30.997143
v -80.000000 0.000000 -23.874123
v -60.000000 0.000000 -16.895529
v -40.000000 0.000000 -8.774601
v -20.000000 0.000000 -0.305173
v 0.000000 0.000000 7.718047
v 20.000000 0.000000 15.162784
v 40.000000 0.000000 22.220472
v 60.000000 0.000000 27.888245
v 80.000000 0.000000 32.230843
v 100.000000 0.000000 35.006386
v 120.000000 0.000000 36.676689
v 140.000000 0.000000 37.037651
v 160.000000 0.000000 36.222271
v -160.000000 20.000000 -29.203186
v -140.000000 20.000000 -33.521770
v -120.000000 20.000000 -32.212547
v -100.000000 20.000000 -25.981310
v -80.000000 20.000000 -18.929016
v -60.000000 20.000000 -12.134278
v -40.000000 20.000000 -4.193655
v -20.000000 20.000000 4.223459
v 0.000000 20.000000 12.322055
v 20.000000 20.000000 19.794189
v 40.000000 20.000000 26.723194
v 60.000000 20.000000 32.684143
v 80.000000 20.000000 37.542992
v 100.000000 20.000000 40.478981
v 120.000000 20.000000 41.753944
v 140.000000 20.000000 41.174026
v 160.000000 20.000000 39.348122
v -160.000000 40.000000 -23.062519
v -140.000000 40.000000 -27.782669
v -120.000000 40.000000 -26.876635
v -100.000000 40.000000 -20.595673
v -80.000000 40.000000 -13.603076
v -60.000000 40.000000 -6.764683
v -40.000000 40.000000 0.948160
v -20.000000 40.000000 9.136413
v 0.000000 40.000000 17.032768
v 20.000000 40.000000 24.266144
v 40.000000 40.000000 30.841721
v 60.000000 40.000000 36.728138
v 80.000000 40.000000 41.680340
v 100.000000 40.000000 44.344662
v 120.000000 40.000000 44.994850
v 140.000000 40.000000 43.716366
v 160.000000 40.000000 41.132000
v -160.000000 60.000000 -16.846996
v -140.000000 60.000000 -21.576141
v -120.000000 60.000000 -21.248352
v -100.000000 60.000000 -15.148968
v -80.000000 60.000000 -8.290389
v -60.000000 60.000000 -1.066973
v -40.000000 60.000000 6.552550
v -20.000000 60.000000 14.172101
v 0.000000 60.000000 21.527393
v 20.000000 60.000000 28.261005
v 40.000000 60.000000 34.571018
v 60.000000 60.000000 40.138798
v 80.000000 60.000000 44.258896
v 100.000000 60.000000 46.162186
v 120.000000 60.000000 46.202305
v 140.000000 60.000000 44.597679
v 160.000000 60.000000 42.038979
v -160.000000 80.000000 -10.606523
v -140.000000 80.000000 -15.725027
v -120.000000 80.000000 -15.988995
v -100.000000 80.000000 -10.270858
v -80.000000 80.000000 -3.407136
v -60.000000 80.000000 4.189100
v -40.000000 80.000000 11.776709
v -20.000000 80.000000 19.165920
v 0.000000 80.000000 26.150078
v 20.000000 80.000000 32.422962
v 40.000000 80.000000 38.153286
v 60.000000 80.000000 42.429226
v 80.000000 80.000000 45.272381
v 100.000000 80.000000 46.070168
v 120.000000 80.000000 45.911949
v 140.000000 80.000000 45.033607
v 160.000000 80.000000 43.844799
v -160.000000 100.000000 -5.250734
v -140.000000 100.000000 -10.342127
v -120.000000 100.000000 -10.984742
v -100.000000 100.000000 -5.666559
v -80.000000 100.000000 1.333207
v -60.000000 100.000000 9.104831
v -40.000000 100.000000 16.655863
v -20.000000 100.000000 23.958754
v 0.000000 100.000000 30.757111
v 20.000000 100.000000 36.436653
v 40.000000 100.000000 41.038795
v 60.000000 100.000000 43.773026
v 80.000000 100.000000 44.859035
v 100.000000 100.000000 44.804756
v 120.000000 100.000000 44.714241
v 140.000000 100.000000 44.975418
v 160.000000 100.000000 45.334160
v -160.000000 120.000000 -0.189839
v -140.000000 120.000000 -4.731043
v -120.000000 120.000000 -5.099641
v -100.000000 120.000000 -0.082154
v -80.000000 120.000000 6.793853
v -60.000000 120.000000 14.232227
v -40.000000 120.000000 21.534565
v -20.000000 120.000000 28.563385
v 0.000000 120.000000 34.897312
v 20.000000 120.000000 39.575466
v 40.000000 120.000000 42.618195
v 60.000000 120.000000 43.690510
v 80.000000 120.000000 43.352211
v 100.000000 120.000000 42.720802
v 120.000000 120.000000 42.692581
v 140.000000 120.000000 43.665554
v 160.000000 120.000000 45.157673
v -160.000000 140.000000 4.842247
v -140.000000 140.000000 1.196030
v -120.000000 140.000000 1.398118
v -100.000000 140.000000 5.855431
v -80.000000 140.000000 12.341338
v -60.000000 140.000000 19.355301
v -40.000000 140.000000 26.356337
v -20.000000 140.000000 32.904491
v 0.000000 140.000000 38.387127
v 20.000000 140.000000 41.729256
v 40.000000 140.000000 43.098919
v 60.000000 140.000000 42.618416
v 80.000000 140.000000 41.257587
v 100.000000 140.000000 39.992523
v 120.000000 140.000000 39.907143
v 140.000000 140.000000 41.437267
v 160.000000 140.000000 43.917629
v -160.000000 160.000000 9.864730
v -140.000000 160.000000 7.948567
v -120.000000 160.000000 8.723771
v -100.000000 160.000000 11.985754
v -80.000000 160.000000 17.772003
v -60.000000 160.000000 24.434706
v -40.000000 160.000000 30.989695
v -20.000000 160.000000 36.750038
v 0.000000 160.000000 41.088726
v 20.000000 160.000000 42.725399
v 40.000000 160.000000 42.674622
v 60.000000 160.000000 40.949219
v 80.000000 160.000000 38.578594
v 100.000000 160.000000 36.828136
v 120.000000 160.000000 36.586163
v 140.000000 160.000000 38.780521
v 160.000000 160.000000 42.074055
vn 0.1266 -0.2582 0.9578
vn -0.0171 -0.2412 0.9703
vn -0.0101 -0.2385 0.9711
vn 0.1573 -0.2615 0.9523
vn -0.1966 -0.2414 0.9503
vn -0.2115 -0.2353 0.9486
vn -0.3074 -0.2530 0.9173
vn -0.3202 -0.2367 0.9173
vn -0.3348 -0.2653 0.9042
vn -0.3451 -0.2330 0.9092
vn -0.3224 -0.2853 0.9026
vn -0.3348 -0.2384 0.9116
vn -0.2841 -0.2977 0.9114
vn -0.3029 -0.2500 0.9196
vn -0.2369 -0.3188 0.9177
vn -0.2668 -0.2803 0.9221
vn -0.1919 -0.3492 0.9172
vn -0.2219 -0.3144 0.9230
vn -0.1383 -0.3706 0.9184
vn -0.1550 -0.3396 0.9277
vn -0.0936 -0.3730 0.9231
vn -0.0964 -0.3529 0.9307
vn -0.0855 -0.3645 0.9273
vn -0.0786 -0.3586 0.9302
vn -0.1037 -0.3521 0.9302
vn -0.0927 -0.3505 0.9320
vn -0.1172 -0.3395 0.9333
vn -0.1055 -0.3428 0.9335
vn -0.1204 -0.3260 0.9377
vn -0.1080 -0.3324 0.9369
vn -0.1156 -0.3146 0.9421
vn -0.1048 -0.3229 0.9406
vn -0.1128 -0.3048 0.9457
vn -0.1005 -0.3156 0.9436
vn 0.0086 -0.2417 0.9703
vn 0.1973 -0.2523 0.9473
vn -0.2084 -0.2309 0.9504
vn -0.3165 -0.2220 0.9222
vn -0.3420 -0.2149 0.9148
vn -0.3413 -0.2140 0.9153
vn -0.3256 -0.2204 0.9195
vn -0.3009 -0.2491 0.9205
vn -0.2511 -0.2820 0.9260
vn -0.1765 -0.3113 0.9338
vn -0.1132 -0.3340 0.9358
vn -0.0832 -0.3519 0.9323
vn -0.0866 -0.3523 0.9319
vn -0.0971 -0.3479 0.9325
vn -0.0976 -0.3405 0.9352
vn -0.0961 -0.3327 0.9381
vn -0.0864 -0.3265 0.9413
vn 0.0127 -0.2308 0.9729
vn 0.2109 -0.2191 0.9526
vn -0.2045 -0.2231 0.9531
vn -0.3154 -0.2136 0.9246
vn -0.3412 -0.2113 0.9159
vn -0.3411 -0.2084 0.9166
vn -0.3365 -0.2068 0.9187
vn -0.3256 -0.2244 0.9185
vn -0.2805 -0.2521 0.9261
vn -0.2053 -0.2848 0.9363
vn -0.1387 -0.3172 0.9382
vn -0.0989 -0.3410 0.9348
vn -0.0885 -0.3513 0.9321
vn -0.0922 -0.3484 0.9328
vn -0.0904 -0.3425 0.9352
vn -0.0882 -0.3358 0.9378
vn -0.0763 -0.3281 0.9416
vn 0.0046 -0.2221 0.9750
vn 0.1973 -0.1953 0.9607
vn -0.2032 -0.2185 0.9544
vn -0.3150 -0.2092 0.9257
vn -0.3397 -0.2075 0.9173
vn -0.3376 -0.1993 0.9200
vn -0.3410 -0.1974 0.9191
vn -0.3428 -0.2077 0.9162
vn -0.3062 -0.2283 0.9242
vn -0.2386 -0.2599 0.9357
vn -0.1703 -0.2996 0.9387
vn -0.1200 -0.3278 0.9371
vn -0.0953 -0.3445 0.9339
vn -0.0876 -0.3433 0.9351
vn -0.0829 -0.3373 0.9377
vn -0.0795 -0.3301 0.9406
vn -0.0628 -0.3199 0.9454
vn -0.0124 -0.2116 0.9773
vn 0.1658 -0.1953 0.9666
vn -0.2034 -0.2041 0.9576
vn -0.3143 -0.1946 0.9292
vn -0.3354 -0.1920 0.9223
vn -0.3333 -0.1875 0.9240
vn -0.3452 -0.1963 0.9178
vn -0.3525 -0.2074 0.9125
vn -0.3258 -0.2199 0.9195
vn -0.2712 -0.2445 0.9310
vn -0.2061 -0.2832 0.9366
vn -0.1458 -0.3151 0.9378
vn -0.1048 -0.3372 0.9356
vn -0.0845 -0.3447 0.9349
vn -0.0755 -0.3422 0.9366
vn -0.0681 -0.3328 0.9405
vn -0.0454 -0.3175 0.9472
vn -0.0062 -0.2042 0.9789
vn 0.1640 -0.2165 0.9624
vn -0.1977 -0.1892 0.9618
vn -0.3123 -0.1813 0.9325
vn -0.3367 -0.1769 0.9248
vn -0.3436 -0.1784 0.9220
vn -0.3608 -0.1967 0.9117
vn -0.3623 -0.2098 0.9082
vn -0.3358 -0.2168 0.9167
vn -0.2952 -0.2337 0.9264
vn -0.2381 -0.2668 0.9339
vn -0.1745 -0.3010 0.9375
vn -0.1261 -0.3274 0.9364
vn -0.0920 -0.3422 0.9351
vn -0.0691 -0.3434 0.9366
vn -0.0513 -0.3295 0.9428
vn -0.0094 -0.3052 0.9523
vn 0.0151 -0.2157 0.9763
vn 0.1873 -0.2379 0.9531
vn -0.1906 -0.1992 0.9612
vn -0.3097 -0.1939 0.9309
vn -0.3348 -0.1877 0.9234
vn -0.3535 -0.1805 0.9179
vn -0.3754 -0.1888 0.9074
vn -0.3699 -0.1959 0.9082
vn -0.3442 -0.2030 0.9167
vn -0.3143 -0.2182 0.9239
vn -0.2690 -0.2471 0.9309
vn -0.2060 -0.2806 0.9375
vn -0.1475 -0.3096 0.9394
vn -0.1010 -0.3224 0.9412
vn -0.0606 -0.3233 0.9444
vn -0.0248 -0.3043 0.9522
vn 0.0352 -0.2663 0.9632
vn 0.0350 -0.2392 0.9703
vn 0.2111 -0.2601 0.9422
vn -0.1846 -0.2229 0.9572
vn -0.3068 -0.2192 0.9262
vn -0.3244 -0.2136 0.9215
vn -0.3459 -0.2018 0.9163
vn -0.3756 -0.1949 0.9061
vn -0.3739 -0.1954 0.9066
vn -0.3532 -0.2019 0.9135
vn -0.3332 -0.2107 0.9190
vn -0.2955 -0.2236 0.9288
vn -0.2352 -0.2468 0.9401
vn -0.1684 -0.2759 0.9463
vn -0.1059 -0.2861 0.9523
vn -0.0488 -0.2776 0.9595
vn 0.0110 -0.2458 0.9692
vn 0.0865 -0.1983 0.9763
vn 0.0565 -0.2632 0.9631
vn 0.2315 -0.2824 0.9309
vn -0.1796 -0.2442 0.9529
vn -0.3059 -0.2395 0.9214
vn -0.3180 -0.2359 0.9183
vn -0.3362 -0.2311 0.9130
vn -0.3690 -0.2193 0.9032
vn -0.3729 -0.2132 0.9031
vn -0.3544 -0.2120 0.9107
vn -0.3312 -0.2094 0.9200
vn -0.3005 -0.2012 0.9323
vn -0.2554 -0.2087 0.9440
vn -0.1863 -0.2259 0.9562
vn -0.1020 -0.2262 0.9687
vn -0.0170 -0.2036 0.9789
vn 0.0593 -0.1644 0.9846
vn 0.1312 -0.1208 0.9840
vn 0.0795 -0.2852 0.9552
vn 0.2463 -0.3016 0.9211
vn -0.1708 -0.2605 0.9503
vn -0.3051 -0.2490 0.9192
vn -0.3170 -0.2438 0.9166
vn -0.3308 -0.2516 0.9095
vn -0.3584 -0.2422 0.9016
vn -0.3635 -0.2248 0.9040
vn -0.3458 -0.2104 0.9144
vn -0.3197 -0.1960 0.9270
vn -0.2924 -0.1842 0.9384
vn -0.2574 -0.1770 0.9500
vn -0.1846 -0.1627 0.9693
vn -0.0818 -0.1402 0.9867
vn 0.0156 -0.1105 0.9937
vn 0.0958 -0.0849 0.9918
vn 0.1500 -0.0664 0.9865
vn 0.1066 -0.2869 0.9520
vn 0.2583 -0.2988 0.9187
vn -0.1532 -0.2596 0.9535
vn -0.2993 -0.2385 0.9239
vn -0.3228 -0.2337 0.9171
vn -0.3370 -0.2486 0.9081
vn -0.3451 -0.2452 0.9060
vn -0.3413 -0.2286 0.9117
vn -0.3249 -0.2103 0.9221
vn -0.3043 -0.1903 0.9334
vn -0.2804 -0.1726 0.9442
vn -0.2331 -0.1373 0.9627
vn -0.1483 -0.0884 0.9850
vn -0.0485 -0.0430 0.9979
vn 0.0391 -0.0229 0.9990
vn 0.1035 -0.0327 0.9941
vn 0.1243 -0.0671 0.9900
vn 0.1301 -0.2681 0.9546
vn 0.2682 -0.2686 0.9252
vn -0.1310 -0.2464 0.9603
vn -0.2927 -0.2206 0.9304
vn -0.3316 -0.2207 0.9173
vn -0.3453 -0.2313 0.9096
vn -0.3412 -0.2301 0.9114
vn -0.3297 -0.2246 0.9170
vn -0.3073 -0.2139 0.9273
vn -0.2821 -0.1921 0.9400
vn -0.2397 -0.1550 0.9584
vn -0.1745 -0.0891 0.9806
vn -0.0906 -0.0149 0.9958
vn -0.0160 0.0339 0.9993
vn 0.0259 0.0372 0.9990
vn 0.0516 -0.0094 0.9986
vn 0.0495 -0.0820 0.9954
vn 0.1391 -0.2625 0.9549
vn 0.2690 -0.2380 0.9333
vn -0.1120 -0.2610 0.9588
vn -0.2860 -0.2366 0.9286
vn -0.3369 -0.2327 0.9123
vn -0.3483 -0.2282 0.9092
vn -0.3394 -0.2229 0.9139
vn -0.3246 -0.2163 0.9208
vn -0.2914 -0.2044 0.9345
vn -0.2453 -0.1706 0.9543
vn -0.1793 -0.1091 0.9777
vn -0.0952 -0.0317 0.9950
vn -0.0258 0.0479 0.9985
vn 0.0036 0.0834 0.9965
vn -0.0043 0.0802 0.9968
vn -0.0154 0.0342 0.9993
vn -0.0266 -0.0328 0.9991
vn 0.1137 -0.2754 0.9546
vn 0.2464 -0.2240 0.9429
vn -0.1103 -0.2939 0.9494
vn -0.2747 -0.2661 0.9240
vn -0.3261 -0.2508 0.9114
vn -0.3363 -0.2339 0.9122
vn -0.3288 -0.2225 0.9178
vn -0.3100 -0.2075 0.9278
vn -0.2610 -0.1809 0.9482
vn -0.1879 -0.1288 0.9737
vn -0.1022 -0.0512 0.9934
vn -0.0183 0.0289 0.9994
vn 0.0241 0.0897 0.9957
vn 0.0164 0.1194 0.9927
vn -0.0234 0.1193 0.9926
vn -0.0613 0.0879 0.9942
vn -0.0847 0.0353 0.9958
vn 0.0701 -0.3014 0.9509
vn 0.2004 -0.2283 0.9527
vn -0.1094 -0.3247 0.9395
vn -0.2533 -0.2794 0.9262
vn -0.3096 -0.2519 0.9169
vn -0.3214 -0.2339 0.9176
vn -0.3131 -0.2185 0.9243
vn -0.2826 -0.1924 0.9398
vn -0.2130 -0.1494 0.9656
vn -0.1166 -0.0779 0.9901
vn -0.0222 -0.0014 0.9998
vn 0.0459 0.0683 0.9966
vn 0.0650 0.1182 0.9909
vn 0.0334 0.1457 0.9888
vn -0.0357 0.1508 0.9879
vn -0.0991 0.1206 0.9877
vn -0.1335 0.0762 0.9881
vn 0.0123 -0.3517 0.9360
vn 0.1177 -0.2708 0.9554
vn -0.0934 -0.3661 0.9259
vn -0.2095 -0.3134 0.9262
vn -0.2869 -0.2603 0.9219
vn -0.3053 -0.2305 0.9239
vn -0.2881 -0.2038 0.9357
vn -0.2413 -0.1682 0.9558
vn -0.1468 -0.1122 0.9828
vn -0.0396 -0.0356 0.9986
vn 0.0443 0.0367 0.9983
vn 0.1014 0.0960 0.9902
vn 0.1015 0.1381 0.9852
vn 0.0491 0.1613 0.9857
vn -0.0481 0.1654 0.9851
vn -0.1347 0.1311 0.9822
vn -0.1781 0.0878 0.9801
vt 0.015625 0.015625
vt 0.076172 0.015625
vt 0.076172 0.076172
vt 0.015625 0.076172
vt 0.136719 0.015625
vt 0.136719 0.076172
vt 0.197266 0.015625
vt 0.197266 0.076172
vt 0.257812 0.015625
vt 0.257812 0.076172
vt 0.318359 0.015625
vt 0.318359 0.076172
vt 0.378906 0.015625
vt 0.378906 0.076172
vt 0.439453 0.015625
vt 0.439453 0.076172
vt 0.500000 0.015625
vt 0.500000 0.076172
vt 0.560547 0.015625
vt 0.560547 0.076172
vt 0.621094 0.015625
vt 0.621094 0.076172
vt 0.681641 0.015625
vt 0.681641 0.076172
vt 0.742188 0.015625
vt 0.742188 0.076172
vt 0.802734 0.015625
vt 0.802734 0.076172
vt 0.863281 0.015625
vt 0.863281 0.076172
vt 0.923828 0.015625
vt 0.923828 0.076172
vt 0.984375 0.015625
vt 0.984375 0.076172
vt 0.076172 0.136719
vt 0.015625 0.136719
vt 0.136719 0.136719
vt 0.197266 0.136719
vt 0.257812 0.136719
vt 0.318359 0.136719
vt 0.378906 0.136719
vt 0.439453 0.136719
vt 0.500000 0.136719
vt 0.560547 0.136719
vt 0.621094 0.136719
vt 0.681641 0.136719
vt 0.742188 0.136719
vt 0.802734 0.136719
vt 0.863281 0.136719
vt 0.923828 0.136719
vt 0.984375 0.136719
vt 0.076172 0.197266
vt 0.015625 0.197266
vt 0.136719 0.197266
vt 0.197266 0.197266
vt 0.257812 0.197266
vt 0.318359 0.197266
vt 0.378906 0.197266
vt 0.439453 0.197266
vt 0.500000 0.197266
vt 0.560547 0.197266
vt 0.621094 0.197266
vt 0.681641 0.197266
vt 0.742188 0.197266
vt 0.802734 0.197266
vt 0.863281 0.197266
vt 0.923828 0.197266
vt 0.984375 0.197266
vt 0.076172 0.257812
vt 0.015625 0.257812
vt 0.136719 0.257812
vt 0.197266 0.257812
vt 0.257812 0.257812
vt 0.318359 0.257812
vt 0.378906 0.257812
vt 0.439453 0.257812
vt 0.500000 0.257812
vt 0.560547 0.257812
vt 0.621094 0.257812
vt 0.681641 0.257812
vt 0.742188 0.257812
vt 0.802734 0.257812
vt 0.863281 0.257812
vt 0.923828 0.257812
vt 0.984375 0.257812
vt 0.076172 0.318359
vt 0.015625 0.318359
vt 0.136719 0.318359
vt 0.197266 0.318359
vt 0.257812 0.318359
vt 0.318359 0.318359
vt 0.378906 0.318359
vt 0.439453 0.318359
vt 0.500000 0.318359
vt 0.560547 0.318359
vt 0.621094 0.318359
vt 0.681641 0.318359
vt 0.742188 0.318359
vt 0.802734 0.318359
vt 0.863281 0.318359
vt 0.923828 0.318359
vt 0.984375 0.318359
vt 0.076172 0.378906
vt 0.015625 0.378906
vt 0.136719 0.378906
vt 0.197266 0.378906
vt 0.257812 0.378906
vt 0.318359 0.378906
vt 0.378906 0.378906
vt 0.439453 0.378906
vt 0.500000 0.378906
vt 0.560547 0.378906
vt 0.621094 0.378906
vt 0.681641 0.378906
vt 0.742188 0.378906
vt 0.802734 0.378906
vt 0.863281 0.378906
vt 0.923828 0.378906
vt 0.984375 0.378906
vt 0.076172 0.439453
vt 0.015625 0.439453
vt 0.136719 0.439453
vt 0.197266 0.439453
vt 0.257812 0.439453
vt 0.318359 0.439453
vt 0.378906 0.439453
vt 0.439453 0.439453
vt 0.500000 0.439453
vt 0.560547 0.439453
vt 0.621094 0.439453
vt 0.681641 0.439453
vt 0.742188 0.439453
vt 0.802734 0.439453
vt 0.863281 0.439453
vt 0.923828 0.439453
vt 0.984375 0.439453
vt 0.076172 0.500000
vt 0.015625 0.500000
vt 0.136719 0.500000
vt 0.197266 0.500000
vt 0.257812 0.500000
vt 0.318359 0.500000
vt 0.378906 0.500000
vt 0.439453 0.500000
vt 0.500000 0.500000
vt 0.560547 0.500000
vt 0.621094 0.500000
vt 0.681641 0.500000
vt 0.742188 0.500000
vt 0.802734 0.500000
vt 0.863281 0.500000
vt 0.923828 0.500000
vt 0.984375 0.500000
vt 0.076172 0.560547
vt 0.015625 0.560547
vt 0.136719 0.560547
vt 0.197266 0.560547
vt 0.257812 0.560547
vt 0.318359 0.560547
vt 0.378906 0.560547
vt 0.439453 0.560547
vt 0.500000 0.560547
vt 0.560547 0.560547
vt 0.621094 0.560547
vt 0.681641 0.560547
vt 0.742188 0.560547
vt 0.802734 0.560547
vt 0.863281 0.560547
vt 0.923828 0.560547
vt 0.984375 0.560547
vt 0.076172 0.621094
vt 0.015625 0.621094
vt 0.136719 0.621094
vt 0.197266 0.621094
vt 0.257812 0.621094
vt 0.318359 0.621094
vt 0.378906 0.621094
vt 0.439453 0.621094
vt 0.500000 0.621094
vt 0.560547 0.621094
vt 0.621094 0.621094
vt 0.681641 0.621094
vt 0.742188 0.621094
vt 0.802734 0.621094
vt 0.863281 0.621094
vt 0.923828 0.621094
vt 0.984375 0.621094
vt 0.076172 0.681641
vt 0.015625 0.681641
vt 0.136719 0.681641
vt 0.197266 0.681641
vt 0.257812 0.681641
vt 0.318359 0.681641
vt 0.378906 0.681641
vt 0.439453 0.681641
vt 0.500000 0.681641
vt 0.560547 0.681641
vt 0.621094 0.681641
vt 0.681641 0.681641
vt 0.742188 0.681641
vt 0.802734 0.681641
vt 0.863281 0.681641
vt 0.923828 0.681641
vt 0.984375 0.681641
vt 0.076172 0.742188
vt 0.015625 0.742188
vt 0.136719 0.742188
vt 0.197266 0.742188
vt 0.257812 0.742188
vt 0.318359 0.742188
vt 0.378906 0.742188
vt 0.439453 0.742188
vt 0.500000 0.742188
vt 0.560547 0.742188
vt 0.621094 0.742188
vt 0.681641 0.742188
vt 0.742188 0.742188
vt 0.802734 0.742188
vt 0.863281 0.742188
vt 0.923828 0.742188
vt 0.984375 0.742188
vt 0.076172 0.802734
vt 0.015625 0.802734
vt 0.136719 0.802734
vt 0.197266 0.802734
vt 0.257812 0.802734
vt 0.318359 0.802734
vt 0.378906 0.802734
vt 0.439453 0.802734
vt 0.500000 0.802734
vt 0.560547 0.802734
vt 0.621094 0.802734
vt 0.681641 0.802734
vt 0.742188 0.802734
vt 0.802734 0.802734
vt 0.863281 0.802734
vt 0.923828 0.802734
vt 0.984375 0.802734
vt 0.076172 0.863281
vt 0.015625 0.863281
vt 0.136719 0.863281
vt 0.197266 0.863281
vt 0.257812 0.863281
vt 0.318359 0.863281
vt 0.378906 0.863281
vt 0.439453 0.863281
vt 0.500000 0.863281
vt 0.560547 0.863281
vt 0.621094 0.863281
vt 0.681641 0.863281
vt 0.742188 0.863281
vt 0.802734 0.863281
vt 0.863281 0.863281
vt 0.923828 0.863281
vt 0.984375 0.863281
vt 0.076172 0.923828
vt 0.015625 0.923828
vt 0.136719 0.923828
vt 0.197266 0.923828
vt 0.257812 0.923828
vt 0.318359 0.923828
vt 0.378906 0.923828
vt 0.439453 0.923828
vt 0.500000 0.923828
vt 0.560547 0.923828
vt 0.621094 0.923828
vt 0.681641 0.923828
vt 0.742188 0.923828
vt 0.802734 0.923828
vt 0.863281 0.923828
vt 0.923828 0.923828
vt 0.984375 0.923828
vt 0.076172 0.984375
vt 0.015625 0.984375
vt 0.136719 0.984375
vt 0.197266 0.984375
vt 0.257812 0.984375
vt 0.318359 0.984375
vt 0.378906 0.984375
vt 0.439453 0.984375
vt 0.500000 0.984375
vt 0.560547 0.984375
vt 0.621094 0.984375
vt 0.681641 0.984375
vt 0.742188 0.984375
vt 0.802734 0.984375
vt 0.863281 0.984375
vt 0.923828 0.984375
vt 0.984375 0.984375
s 1
f 1/1/1 2/2/2 19/3/3
f 1/1/1 19/3/3 18/4/4
f 2/2/2 3/5/5 20/6/6
f 2/2/2 20/6/6 19/3/3
f 3/5/5 4/7/7 21/8/8
f 3/5/5 21/8/8 20/6/6
f 4/7/7 5/9/9 22/10/10
f 4/7/7 22/10/10 21/8/8
f 5/9/9 6/11/11 23/12/12
f 5/9/9 23/12/12 22/10/10
f 6/11/11 7/13/13 24/14/14
f 6/11/11 24/14/14 23/12/12
f 7/13/13 8/15/15 25/16/16
f 7/13/13 25/16/16 24/14/14
f 8/15/15 9/17/17 26/18/18
f 8/15/15 26/18/18 25/16/16
f 9/17/17 10/19/19 27/20/20
f 9/17/17 27/20/20 26/18/18
f 10/19/19 11/21/21 28/22/22
f 10/19/19 28/22/22 27/20/20
f 11/21/21 12/23/23 29/24/24
f 11/21/21 29/24/24 28/22/22
f 12/23/23 13/25/25 30/26/26
f 12/23/23 30/26/26 29/24/24
f 13/25/25 14/27/27 31/28/28
f 13/25/25 31/28/28 30/26/26
f 14/27/27 15/29/29 32/30/30
f 14/27/27 32/30/30 31/28/28
f 15/29/29 16/31/31 33/32/32
f 15/29/29 33/32/32 32/30/30
f 16/31/31 17/33/33 34/34/34
f 16/31/31 34/34/34 33/32/32
f 18/4/4 19/3/3 36/35/35
f 18/4/4 36/35/35 35/36/36
f 19/3/3 20/6/6 37/37/37
f 19/3/3 37/37/37 36/35/35
f 20/6/6 21/8/8 38/38/38
f 20/6/6 38/38/38 37/37/37
f 21/8/8 22/10/10 39/39/39
f 21/8/8 39/39/39 38/38/38
f 22/10/10 23/12/12 40/40/40
f 22/10/10 40/40/40 39/39/39
f 23/12/12 24/14/14 41/41/41
f 23/12/12 41/41/41 40/40/40
f 24/14/14 25/16/16 42/42/42
f 24/14/14 42/42/42 41/41/41
f 25/16/16 26/18/18 43/43/43
f 25/16/16 43/43/43 42/42/42
f 26/18/18 27/20/20 44/44/44
f 26/18/18 44/44/44 43/43/43
f 27/20/20 28/22/22 45/45/45
f 27/20/20 45/45/45 44/44/44
f 28/22/22 29/24/24 46/46/46
f 28/22/22 46/46/46 45/45/45
f 29/24/24 30/26/26 47/47/47
f 29/24/24 47/47/47 46/46/46
f 30/26/26 31/28/28 48/48/48
f 30/26/26 48/48/48 47/47/47
f 31/28/28 32/30/30 49/49/49
f 31/28/28 49/49/49 48/48/48
f 32/30/30 33/32/32 50/50/50
f 32/30/30 50/50/50 49/49/49
f 33/32/32 34/34/34 51/51/51
f 33/32/32 51/51/51 50/50/50
f 35/36/36 36/35/35 53/52/52
f 35/36/36 53/52/52 52/53/53
f 36/35/35 37/37/37 54/54/54
f 36/35/35 54/54/54 53/52/52
f 37/37/37 38/38/38 55/55/55
f 37/37/37 55/55/55 54/54/54
f 38/38/38 39/39/39 56/56/56
f 38/38/38 56/56/56 55/55/55
f 39/39/39 40/40/40 57/57/57
f 39/39/39 57/57/57 56/56/56
f 40/40/40 41/41/41 58/58/58
f 40/40/40 58/58/58 57/57/57
f 41/41/41 42/42/42 59/59/59
f 41/41/41 59/59/59 58/58/58
f 42/42/42 43/43/43 60/60/60
f 42/42/42 60/60/60 59/59/59
f 43/43/43 44/44/44 61/61/61
f 43/43/43 61/61/61 60/60/60
f 44/44/44 45/45/45 62/62/62
f 44/44/44 62/62/62 61/61/61
f 45/45/45 46/46/46 63/63/63
f 45/45/45 63/63/63 62/62/62
f 46/46/46 47/47/47 64/64/64
f 46/46/46 64/64/64 63/63/63
f 47/47/47 48/48/48 65/65/65
f 47/47/47 65/65/65 64/64/64
f 48/48/48 49/49/49 66/66/66
f 48/48/48 66/66/66 65/65/65
f 49/49/49 50/50/50 67/67/67
f 49/49/49 67/67/67 66/66/66
f 50/50/50 51/51/51 68/68/68
f 50/50/50 68/68/68 67/67/67
f 52/53/53 53/52/52 70/69/69
f 52/53/53 70/69/69 69/70/70
f 53/52/52 54/54/54 71/71/71
f 53/52/52 71/71/71 70/69/69
f 54/54/54 55/55/55 72/72/72
f 54/54/54 72/72/72 71/71/71
f 55/55/55 56/56/56 73/73/73
f 55/55/55 73/73/73 72/72/72
f 56/56/56 57/57/57 74/74/74
f 56/56/56 74/74/74 73/73/73
f 57/57/57 58/58/58 75/75/75
f 57/57/57 75/75/75 74/74/74
f 58/58/58 59/59/59 76/76/76
f 58/58/58 76/76/76 75/75/75
f 59/59/59 60/60/60 77/77/77
f 59/59/59 77/77/77 76/76/76
f 60/60/60 61/61/61 78/78/78
f 60/60/60 78/78/78 77/77/77
f 61/61/61 62/62/62 79/79/79
f 61/61/61 79/79/79 78/78/78
f 62/62/62 63/63/63 80/80/80
f 62/62/62 80/80/80 79/79/79
f 63/63/63 64/64/64 81/81/81
f 63/63/63 81/81/81 80/80/80
f 64/64/64 65/65/65 82/82/82
f 64/64/64 82/82/82 81/81/81
f 65/65/65 66/66/66 83/83/83
f 65/65/65 83/83/83 82/82/82
f 66/66/66 67/67/67 84/84/84
f 66/66/66 84/84/84 83/83/83
f 67/67/67 68/68/68 85/85/85
f 67/67/67 85/85/85 84/84/84
f 69/70/70 70/69/69 87/86/86
f 69/70/70 87/86/86 86/87/87
f 70/69/69 71/71/71 88/88/88
f 70/69/69 88/88/88 87/86/86
f 71/71/71 72/72/72 89/89/89
f 71/71/71 89/89/89 88/88/88
f 72/72/72 73/73/73 90/90/90
f 72/72/72 90/90/90 89/89/89
f 73/73/73 74/74/74 91/91/91
f 73/73/73 91/91/91 90/90/90
f 74/74/74 75/75/75 92/92/92
f 74/74/74 92/92/92 91/91/91
f 75/75/75 76/76/76 93/93/93
f 75/75/75 93/93/93 92/92/92
f 76/76/76 77/77/77 94/94/94
f 76/76/76 94/94/94 93/93/93
f 77/77/77 78/78/78 95/95/95
f 77/77/77 95/95/95 94/94/94
f 78/78/78 79/79/79 96/96/96
f 78/78/78 96/96/96 95/95/95
f 79/79/79 80/80/80 97/97/97
f 79/79/79 97/97/97 96/96/96
f 80/80/80 81/81/81 98/98/98
f 80/80/80 98/98/98 97/97/97
f 81/81/81 82/82/82 99/99/99
f 81/81/81 99/99/99 98/98/98
f 82/82/82 83/83/83 100/100/100
f 82/82/82 100/100/100 99/99/99
f 83/83/83 84/84/84 101/101/101
f 83/83/83 101/101/101 100/100/100
f 84/84/84 85/85/85 102/102/102
f 84/84/84 102/102/102 101/101/101
f 86/87/87 87/86/86 104/103/103
f 86/87/87 104/103/103 103/104/104
f 87/86/86 88/88/88 105/105/105
f 87/86/86 105/105/105 104/103/103
f 88/88/88 89/89/89 106/106/106
f 88/88/88 106/106/106 105/105/105
f 89/89/89 90/90/90 107/107/107
f 89/89/89 107/107/107 106/106/106
f 90/90/90 91/91/91 108/108/108
f 90/90/90 108/108/108 107/107/107
f 91/91/91 92/92/92 109/109/109
f 91/91/91 109/109/109 108/108/108
f 92/92/92 93/93/93 110/110/110
f 92/92/92 110/110/110 109/109/109
f 93/93/93 94/94/94 111/111/111
f 93/93/93 111/111/111 110/110/110
f 94/94/94 95/95/95 112/112/112
f 94/94/94 112/112/112 111/111/111
f 95/95/95 96/96/96 113/113/113
f 95/95/95 113/113/113 112/112/112
f 96/96/96 97/97/97 114/114/114
f 96/96/96 114/114/114 113/113/113
f 97/97/97 98/98/98 115/115/115
f 97/97/97 115/115/115 114/114/114
f 98/98/98 99/99/99 116/116/116
f 98/98/98 116/116/116 115/115/115
f 99/99/99 100/100/100 117/117/117
f 99/99/99 117/117/117 116/116/116
f 100/100/100 101/101/101 118/118/118
f 100/100/100 118/118/118 117/117/117
f 101/101/101 102/102/102 119/119/119
f 101/101/101 119/119/119 118/118/118
f 103/104/104 104/103/103 121/120/120
f 103/104/104 121/120/120 120/121/121
f 104/103/103 105/105/105 122/122/122
f 104/103/103 122/122/122 121/120/120
f 105/105/105 106/106/106 123/123/123
f 105/105/105 123/123/123 122/122/122
f 106/106/106 107/107/107 124/124/124
f 106/106/106 124/124/124 123/123/123
f 107/107/107 108/108/108 125/125/125
f 107/107/107 125/125/125 124/124/124
f 108/108/108 109/109/109 126/126/126
f 108/108/108 126/126/126 125/125/125
f 109/109/109 110/110/110 127/127/127
f 109/109/109 127/127/127 126/126/126
f 110/110/110 111/111/111 128/128/128
f 110/110/110 128/128/128 127/127/127
f 111/111/111 112/112/112 129/129/129
f 111/111/111 129/129/129 128/128/128
f 112/112/112 113/113/113 130/130/130
f 112/112/112 130/130/130 129/129/129
f 113/113/113 114/114/114 131/131/131
f 113/113/113 131/131/131 130/130/130
f 114/114/114 115/115/115 132/132/132
f 114/114/114 132/132/132 131/131/131
f 115/115/115 116/116/116 133/133/133
f 115/115/115 133/133/133 132/132/132
f 116/116/116 117/117/117 134/134/134
f 116/116/116 134/134/134 133/133/133
f 117/117/117 118/118/118 135/135/135
f 117/117/117 135/135/135 134/134/134
f 118/118/118 119/119/119 136/136/136
f 118/118/118 136/136/136 135/135/135
f 120/121/121 121/120/120 138/137/137
f 120/121/121 138/137/137 137/138/138
f 121/120/120 122/122/122 139/139/139
f 121/120/120 139/139/139 138/137/137
f 122/122/122 123/123/123 140/140/140
f 122/122/122 140/140/140 139/139/139
f 123/123/123 124/124/124 141/141/141
f 123/123/123 141/141/141 140/140/140
f 124/124/124 125/125/125 142/142/142
f 124/124/124 142/142/142 141/141/141
f 125/125/125 126/126/126 143/143/143
f 125/125/125 143/143/143 142/142/142
f 126/126/126 127/127/127 144/144/144
f 126/126/126 144/144/144 143/143/143
f 127/127/127 128/128/128 145/145/145
f 127/127/127 145/145/145 144/144/144
f 128/128/128 129/129/129 146/146/146
f 128/128/128 146/146/146 145/145/145
f 129/129/129 130/130/130 147/147/147
f 129/129/129 147/147/147 146/146/146
f 130/130/130 131/131/131 148/148/148
f 130/130/130 148/148/148 147/147/147
f 131/131/131 132/132/132 149/149/149
f 131/131/131 149/149/149 148/148/148
f 132/132/132 133/133/133 150/150/150
f 132/132/132 150/150/150 149/149/149
f 133/133/133 134/134/134 151/151/151
f 133/133/133 151/151/151 150/150/150
f 134/134/134 135/135/135 152/152/152
f 134/134/134 152/152/152 151/151/151
f 135/135/135 136/136/136 153/153/153
f 135/135/135 153/153/153 152/152/152
f 137/138/138 138/137/137 155/154/154
f 137/138/138 155/154/154 154/155/155
f 138/137/137 139/139/139 156/156/156
f 138/137/137 156/156/156 155/154/154
f 139/139/139 140/140/140 157/157/157
f 139/139/139 157/157/157 156/156/156
f 140/140/140 141/141/141 158/158/158
f 140/140/140 158/158/158 157/157/157
f 141/141/141 142/142/142 159/159/159
f 141/141/141 159/159/159 158/158/158
f 142/142/142 143/143/143 160/160/160
f 142/142/142 160/160/160 159/159/159
f 143/143/143 144/144/144 161/161/161
f 143/143/143 161/161/161 160/160/160
f 144/144/144 145/145/145 162/162/162
f 144/144/144 162/162/162 161/161/161
f 145/145/145 146/146/146 163/163/163
f 145/145/145 163/163/163 162/162/162
f 146/146/146 147/147/147 164/164/164
f 146/146/146 164/164/164 163/163/163
f 147/147/147 148/148/148 165/165/165
f 147/147/147 165/165/165 164/164/164
f 148/148/148 149/149/149 166/166/166
f 148/148/148 166/166/166 165/165/165
f 149/149/149 150/150/150 167/167/167
f 149/149/149 167/167/167 166/166/166
f 150/150/150 151/151/151 168/168/168
f 150/150/150 168/168/168 167/167/167
f 151/151/151 152/152/152 169/169/169
f 151/151/151 169/169/169 168/168/168
f 152/152/152 153/153/153 170/170/170
f 152/152/152 170/170/170 169/169/169
f 154/155/155 155/154/154 172/171/171
f 154/155/155 172/171/171 171/172/172
f 155/154/154 156/156/156 173/173/173
f 155/154/154 173/173/173 172/171/171
f 156/156/156 157/157/157 174/174/174
f 156/156/156 174/174/174 173/173/173
f 157/157/157 158/158/158 175/175/175
f 157/157/157 175/175/175 174/174/174
f 158/158/158 159/159/159 176/176/176
f 158/158/158 176/176/176 175/175/175
f 159/159/159 160/160/160 177/177/177
f 159/159/159 177/177/177 176/176/176
f 160/160/160 161/161/161 178/178/178
f 160/160/160 178/178/178 177/177/177
f 161/161/161 162/162/162 179/179/179
f 161/161/161 179/179/179 178/178/178
f 162/162/162 163/163/163 180/180/180
f 162/162/162 180/180/180 179/179/179
f 163/163/163 164/164/164 181/181/181
f 163/163/163 181/181/181 180/180/180
f 164/164/164 165/165/165 182/182/182
f 164/164/164 182/182/182 181/181/181
f 165/165/165 166/166/166 183/183/183
f 165/165/165 183/183/183 182/182/182
f 166/166/166 167/167/167 184/184/184
f 166/166/166 184/184/184 183/183/183
f 167/167/167 168/168/168 185/185/185
f 167/167/167 185/185/185 184/184/184
f 168/168/168 169/169/169 186/186/186
f 168/168/168 186/186/186 185/185/185
f 169/169/169 170/170/170 187/187/187
f 169/169/169 187/187/187 186/186/186
f 171/172/172 172/171/171 189/188/188
f 171/172/172 189/188/188 188/189/189
f 172/171/171 173/173/173 190/190/190
f 172/171/171 190/190/190 189/188/188
f 173/173/173 174/174/174 191/191/191
f 173/173/173 191/191/191 190/190/190
f 174/174/174 175/175/175 192/192/192
f 174/174/174 192/192/192 191/191/191
f 175/175/175 176/176/176 193/193/193
f 175/175/175 193/193/193 192/192/192
f 176/176/176 177/177/177 194/194/194
f 176/176/176 194/194/194 193/193/193
f 177/177/177 178/178/178 195/195/195
f 177/177/177 195/195/195 194/194/194
f 178/178/178 179/179/179 196/196/196
f 178/178/178 196/196/196 195/195/195
f 179/179/179 180/180/180 197/197/197
f 179/179/179 197/197/197 196/196/196
f 180/180/180 181/181/181 198/198/198
f 180/180/180 198/198/198 197/197/197
f 181/181/181 182/182/182 199/199/199
f 181/181/181 199/199/199 198/198/198
f 182/182/182 183/183/183 200/200/200
f 182/182/182 200/200/200 199/199/199
f 183/183/183 184/184/184 201/201/201
f 183/183/183 201/201/201 200/200/200
f 184/184/184 185/185/185 202/202/202
f 184/184/184 202/202/202 201/201/201
f 185/185/185 186/186/186 203/203/203
f 185/185/185 203/203/203 202/202/202
f 186/186/186 187/187/187 204/204/204
f 186/186/186 204/204/204 203/203/203
f 188/189/189 189/188/188 206/205/205
f 188/189/189 206/205/205 205/206/206
f 189/188/188 190/190/190 207/207/207
f 189/188/188 207/207/207 206/205/205
f 190/190/190 191/191/191 208/208/208
f 190/190/190 208/208/208 207/207/207
f 191/191/191 192/192/192 209/209/209
f 191/191/191 209/209/209 208/208/208
f 192/192/192 193/193/193 210/210/210
f 192/192/192 210/210/210 209/209/209
f 193/193/193 194/194/194 211/211/211
f 193/193/193 211/211/211 210/210/210
f 194/194/194 195/195/195 212/212/212
f 194/194/194 212/212/212 211/211/211
f 195/195/195 196/196/196 213/213/213
f 195/195/195 213/213/213 212/212/212
f 196/196/196 197/197/197 214/214/214
f 196/196/196 214/214/214 213/213/213
f 197/197/197 198/198/198 215/215/215
f 197/197/197 215/215/215 214/214/214
f 198/198/198 199/199/199 216/216/216
f 198/198/198 216/216/216 215/215/215
f 199/199/199 200/200/200 217/217/217
f 199/199/199 217/217/217 216/216/216
f 200/200/200 201/201/201 218/218/218
f 200/200/200 218/218/218 217/217/217
f 201/201/201 202/202/202 219/219/219
f 201/201/201 219/219/219 218/218/218
f 202/202/202 203/203/203 220/220/220
f 202/202/202 220/220/220 219/219/219
f 203/203/203 204/204/204 221/221/221
f 203/203/203 221/221/221 220/220/220
f 205/206/206 206/205/205 223/222/222
f 205/206/206 223/222/222 222/223/223
f 206/205/205 207/207/207 224/224/224
f 206/205/205 224/224/224 223/222/222
f 207/207/207 208/208/208 225/225/225
f 207/207/207 225/225/225 224/224/224
f 208/208/208 209/209/209 226/226/226
f 208/208/208 226/226/226 225/225/225
f 209/209/209 210/210/210 227/227/227
f 209/209/209 227/227/227 226/226/226
f 210/210/210 211/211/211 228/228/228
f 210/210/210 228/228/228 227/227/227
f 211/211/211 212/212/212 229/229/229
f 211/211/211 229/229/229 228/228/228
f 212/212/212 213/213/213 230/230/230
f 212/212/212 230/230/230 229/229/229
f 213/213/213 214/214/214 231/231/231
f 213/213/213 231/231/231 230/230/230
f 214/214/214 215/215/215 232/232/232
f 214/214/214 232/232/232 231/231/231
f 215/215/215 216/216/216 233/233/233
f 215/215/215 233/233/233 232/232/232
f 216/216/216 217/217/217 234/234/234
f 216/216/216 234/234/234 233/233/233
f 217/217/217 218/218/218 235/235/235
f 217/217/217 235/235/235 234/234/234
f 218/218/218 219/219/219 236/236/236
f 218/218/218 236/236/236 235/235/235
f 219/219/219 220/220/220 237/237/237
f 219/219/219 237/237/237 236/236/236
f 220/220/220 221/221/221 238/238/238
f 220/220/220 238/238/238 237/237/237
f 222/223/223 223/222/222 240/239/239
f 222/223/223 240/239/239 239/240/240
f 223/222/222 224/224/224 241/241/241
f 223/222/222 241/241/241 240/239/239
f 224/224/224 225/225/225 242/242/242
f 224/224/224 242/242/242 241/241/241
f 225/225/225 226/226/226 243/243/243
f 225/225/225 243/243/243 242/242/242
f 226/226/226 227/227/227 244/244/244
f 226/226/226 244/244/244 243/243/243
f 227/227/227 228/228/228 245/245/245
f 227/227/227 245/245/245 244/244/244
f 228/228/228 229/229/229 246/246/246
f 228/228/228 246/246/246 245/245/245
f 229/229/229 230/230/230 247/247/247
f 229/229/229 247/247/247 246/246/246
f 230/230/230 231/231/231 248/248/248
f 230/230/230 248/248/248 247/247/247
f 231/231/231 232/232/232 249/249/249
f 231/231/231 249/249/249 248/248/248
f 232/232/232 233/233/233 250/250/250
f 232/232/232 250/250/250 249/249/249
f 233/233/233 234/234/234 251/251/251
f 233/233/233 251/251/251 250/250/250
f 234/234/234 235/235/235 252/252/252
f 234/234/234 252/252/252 251/251/251
f 235/235/235 236/236/236 253/253/253
f 235/235/235 253/253/253 252/252/252
f 236/236/236 237/237/237 254/254/254
f 236/236/236 254/254/254 253/253/253
f 237/237/237 238/238/238 255/255/255
f 237/237/237 255/255/255 254/254/254
f 239/240/240 240/239/239 257/256/256
f 239/240/240 257/256/256 256/257/257
f 240/239/239 241/241/241 258/258/258
f 240/239/239 258/258/258 257/256/256
f 241/241/241 242/242/242 259/259/259
f 241/241/241 259/259/259 258/258/258
f 242/242/242 243/243/243 260/260/260
f 242/242/242 260/260/260 259/259/259
f 243/243/243 244/244/244 261/261/261
f 243/243/243 261/261/261 260/260/260
f 244/244/244 245/245/245 262/262/262
f 244/244/244 262/262/262 261/261/261
f 245/245/245 246/246/246 263/263/263
f 245/245/245 263/263/263 262/262/262
f 246/246/246 247/247/247 264/264/264
f 246/246/246 264/264/264 263/263/263
f 247/247/247 248/248/248 265/265/265
f 247/247/247 265/265/265 264/264/264
f 248/248/248 249/249/249 266/266/266
f 248/248/248 266/266/266 265/265/265
f 249/249/249 250/250/250 267/267/267
f 249/249/249 267/267/267 266/266/266
f 250/250/250 251/251/251 268/268/268
f 250/250/250 268/268/268 267/267/267
f 251/251/251 252/252/252 269/269/269
f 251/251/251 269/269/269 268/268/268
f 252/252/252 253/253/253 270/270/270
f 252/252/252 270/270/270 269/269/269
f 253/253/253 254/254/254 271/271/271
f 253/253/253 271/271/271 270/270/270
f 254/254/254 255/255/255 272/272/272
f 254/254/254 272/272/272 271/271/271
f 256/257/257 257/256/256 274/273/273
f 256/257/257 274/273/273 273/274/274
f 257/256/256 258/258/258 275/275/275
f 257/256/256 275/275/275 274/273/273
f 258/258/258 259/259/259 276/276/276
f 258/258/258 276/276/276 275/275/275
f 259/259/259 260/260/260 277/277/277
f 259/259/259 277/277/277 276/276/276
f 260/260/260 261/261/261 278/278/278
f 260/260/260 278/278/278 277/277/277
f 261/261/261 262/262/262 279/279/279
f 261/261/261 279/279/279 278/278/278
f 262/262/262 263/263/263 280/280/280
f 262/262/262 280/280/280 279/279/279
f 263/263/263 264/264/264 281/281/281
f 263/263/263 281/281/281 280/280/280
f 264/264/264 265/265/265 282/282/282
f 264/264/264 282/282/282 281/281/281
f 265/265/265 266/266/266 283/283/283
f 265/265/265 283/283/283 282/282/282
f 266/266/266 267/267/267 284/284/284
f 266/266/266 284/284/284 283/283/283
f 267/267/267 268/268/268 285/285/285
f 267/267/267 285/285/285 284/284/284
f 268/268/268 269/269/269 286/286/286
f 268/268/268 286/286/286 285/285/285
f 269/269/269 270/270/270 287/287/287
f 269/269/269 287/287/287 286/286/286
f 270/270/270 271/271/271 288/288/288
f 270/270/270 288/288/288 287/287/287
f 271/271/271 272/272/272 289/289/289
f 271/271/271 289/289/289 288/288/288
