mtllib terrain_mid_01_03.mtl
usemtl terrain_mid_01_03
# Blender 5.1.1
# www.blender.org
o terrain_mid_01_03
v -160.000000 -160.000000 -24.011702
v -140.000000 -160.000000 -21.625088
v -120.000000 -160.000000 -19.763115
v -100.000000 -160.000000 -19.144489
v -80.000000 -160.000000 -20.161932
v -60.000000 -160.000000 -22.921854
v -40.000000 -160.000000 -27.021093
v -20.000000 -160.000000 -31.976040
v 0.000000 -160.000000 -37.338234
v 20.000000 -160.000000 -43.558071
v 40.000000 -160.000000 -50.103836
v 60.000000 -160.000000 -56.413048
v 80.000000 -160.000000 -61.767662
v 100.000000 -160.000000 -64.868195
v 120.000000 -160.000000 -66.680115
v 140.000000 -160.000000 -67.744621
v 160.000000 -160.000000 -68.504761
v -160.000000 -140.000000 -17.451792
v -140.000000 -140.000000 -15.358676
v -120.000000 -140.000000 -13.758917
v -100.000000 -140.000000 -13.542067
v -80.000000 -140.000000 -15.076181
v -60.000000 -140.000000 -18.838799
v -40.000000 -140.000000 -23.855583
v -20.000000 -140.000000 -29.727692
v 0.000000 -140.000000 -36.003952
v 20.000000 -140.000000 -43.126354
v 40.000000 -140.000000 -49.907684
v 60.000000 -140.000000 -55.173931
v 80.000000 -140.000000 -58.402447
v 100.000000 -140.000000 -59.566811
v 120.000000 -140.000000 -59.858501
v 140.000000 -140.000000 -59.992496
v 160.000000 -140.000000 -60.092899
v -160.000000 -120.000000 -10.634002
v -140.000000 -120.000000 -8.997802
v -120.000000 -120.000000 -7.760667
v -100.000000 -120.000000 -8.058128
v -80.000000 -120.000000 -10.414763
v -60.000000 -120.000000 -15.011403
v -40.000000 -120.000000 -21.047770
v -20.000000 -120.000000 -27.703386
v 0.000000 -120.000000 -34.875420
v 20.000000 -120.000000 -42.355995
v 40.000000 -120.000000 -48.568558
v 60.000000 -120.000000 -51.635326
v 80.000000 -120.000000 -52.713482
v 100.000000 -120.000000 -52.613670
v 120.000000 -120.000000 -52.371319
v 140.000000 -120.000000 -52.087563
v 160.000000 -120.000000 -51.955032
v -160.000000 -100.000000 -3.578935
v -140.000000 -100.000000 -2.196112
v -120.000000 -100.000000 -1.562520
v -100.000000 -100.000000 -2.715599
v -80.000000 -100.000000 -6.056640
v -60.000000 -100.000000 -11.698686
v -40.000000 -100.000000 -18.510883
v -20.000000 -100.000000 -25.728888
v 0.000000 -100.000000 -33.399399
v 20.000000 -100.000000 -40.336590
v 40.000000 -100.000000 -44.491959
v 60.000000 -100.000000 -45.520741
v 80.000000 -100.000000 -45.456402
v 100.000000 -100.000000 -45.172619
v 120.000000 -100.000000 -44.774426
v 140.000000 -100.000000 -44.327171
v 160.000000 -100.000000 -44.027691
v -160.000000 -80.000000 3.304729
v -140.000000 -80.000000 4.310958
v -120.000000 -80.000000 4.249963
v -100.000000 -80.000000 2.034699
v -80.000000 -80.000000 -2.224639
v -60.000000 -80.000000 -8.564321
v -40.000000 -80.000000 -15.897802
v -20.000000 -80.000000 -23.406525
v 0.000000 -80.000000 -30.966946
v 20.000000 -80.000000 -36.278957
v 40.000000 -80.000000 -38.488392
v 60.000000 -80.000000 -38.215942
v 80.000000 -80.000000 -37.628757
v 100.000000 -80.000000 -37.225060
v 120.000000 -80.000000 -36.805119
v 140.000000 -80.000000 -36.338669
v 160.000000 -80.000000 -36.046753
v -160.000000 -60.000000 9.957659
v -140.000000 -60.000000 10.516426
v -120.000000 -60.000000 9.495378
v -100.000000 -60.000000 6.144050
v -80.000000 -60.000000 1.019762
v -60.000000 -60.000000 -5.666500
v -40.000000 -60.000000 -13.111521
v -20.000000 -60.000000 -20.541979
v 0.000000 -60.000000 -27.150728
v 20.000000 -60.000000 -30.458954
v 40.000000 -60.000000 -31.057325
v 60.000000 -60.000000 -30.302862
v 80.000000 -60.000000 -29.676912
v 100.000000 -60.000000 -29.131737
v 120.000000 -60.000000 -28.694712
v 140.000000 -60.000000 -28.323479
v 160.000000 -60.000000 -28.237154
v -160.000000 -40.000000 16.714390
v -140.000000 -40.000000 16.199415
v -120.000000 -40.000000 13.927725
v -100.000000 -40.000000 9.622895
v -80.000000 -40.000000 3.823212
v -60.000000 -40.000000 -3.220672
v -40.000000 -40.000000 -10.490346
v -20.000000 -40.000000 -16.769747
v 0.000000 -40.000000 -21.578470
v 20.000000 -40.000000 -23.315832
v 40.000000 -40.000000 -23.339617
v 60.000000 -40.000000 -22.590839
v 80.000000 -40.000000 -22.022066
v 100.000000 -40.000000 -21.408400
v 120.000000 -40.000000 -20.899878
v 140.000000 -40.000000 -20.626190
v 160.000000 -40.000000 -20.951456
v -160.000000 -20.000000 22.775812
v -140.000000 -20.000000 21.117212
v -120.000000 -20.000000 17.757711
v -100.000000 -20.000000 12.583690
v -80.000000 -20.000000 6.322598
v -60.000000 -20.000000 -0.513593
v -40.000000 -20.000000 -6.987765
v -20.000000 -20.000000 -11.912550
v 0.000000 -20.000000 -14.877091
v 20.000000 -20.000000 -15.867048
v 40.000000 -20.000000 -15.619024
v 60.000000 -20.000000 -14.850626
v 80.000000 -20.000000 -14.249247
v 100.000000 -20.000000 -13.654056
v 120.000000 -20.000000 -13.274162
v 140.000000 -20.000000 -13.437588
v 160.000000 -20.000000 -14.372104
v -160.000000 0.000000 27.774353
v -140.000000 0.000000 25.043665
v -120.000000 0.000000 20.837929
v -100.000000 0.000000 15.081218
v -80.000000 0.000000 8.738679
v -60.000000 0.000000 2.803128
v -40.000000 0.000000 -2.409118
v -20.000000 0.000000 -5.710415
v 0.000000 0.000000 -7.643954
v 20.000000 0.000000 -8.204989
v 40.000000 0.000000 -7.794633
v 60.000000 0.000000 -6.939331
v 80.000000 0.000000 -6.253689
v 100.000000 0.000000 -5.856458
v 120.000000 0.000000 -5.811438
v 140.000000 0.000000 -6.665211
v 160.000000 0.000000 -8.495275
v -160.000000 20.000000 30.900202
v -140.000000 20.000000 27.390852
v -120.000000 20.000000 22.881792
v -100.000000 20.000000 17.759411
v -80.000000 20.000000 12.724393
v -60.000000 20.000000 7.905444
v -40.000000 20.000000 3.516036
v -20.000000 20.000000 1.086450
v 0.000000 20.000000 -0.133439
v 20.000000 20.000000 -0.033335
v 40.000000 20.000000 0.659862
v 60.000000 20.000000 1.520549
v 80.000000 20.000000 2.104594
v 100.000000 20.000000 1.923266
v 120.000000 20.000000 1.326549
v 140.000000 20.000000 -0.364532
v 160.000000 20.000000 -3.056172
v -160.000000 40.000000 32.684082
v -140.000000 40.000000 29.184797
v -120.000000 40.000000 25.253839
v -100.000000 40.000000 21.352154
v -80.000000 40.000000 17.432360
v -60.000000 40.000000 13.619443
v -40.000000 40.000000 9.993026
v -20.000000 40.000000 8.188053
v 0.000000 40.000000 7.686334
v 20.000000 40.000000 8.110868
v 40.000000 40.000000 8.934748
v 60.000000 40.000000 9.678698
v 80.000000 40.000000 9.795885
v 100.000000 40.000000 8.965957
v 120.000000 40.000000 7.408872
v 140.000000 40.000000 4.835745
v 160.000000 40.000000 1.175900
v -160.000000 60.000000 33.591061
v -140.000000 60.000000 31.126707
v -120.000000 60.000000 28.607944
v -100.000000 60.000000 26.061819
v -80.000000 60.000000 23.078390
v -60.000000 60.000000 19.741438
v -40.000000 60.000000 16.854321
v -20.000000 60.000000 15.805658
v 0.000000 60.000000 15.700271
v 20.000000 60.000000 16.111828
v 40.000000 60.000000 16.820831
v 60.000000 60.000000 17.243345
v 80.000000 60.000000 16.656645
v 100.000000 60.000000 14.841018
v 120.000000 60.000000 12.397733
v 140.000000 60.000000 8.784547
v 160.000000 60.000000 4.296326
v -160.000000 80.000000 35.396881
v -140.000000 80.000000 34.595448
v -120.000000 80.000000 33.678898
v -100.000000 80.000000 32.074390
v -80.000000 80.000000 29.810284
v -60.000000 80.000000 27.180119
v -40.000000 80.000000 25.003828
v -20.000000 80.000000 24.260357
v 0.000000 80.000000 24.034288
v 20.000000 80.000000 23.917915
v 40.000000 80.000000 23.653118
v 60.000000 80.000000 23.085857
v 80.000000 80.000000 21.439850
v 100.000000 80.000000 18.631626
v 120.000000 80.000000 15.232188
v 140.000000 80.000000 10.863302
v 160.000000 80.000000 5.811901
v -160.000000 100.000000 36.886242
v -140.000000 100.000000 37.593674
v -120.000000 100.000000 37.999550
v -100.000000 100.000000 37.502895
v -80.000000 100.000000 36.210850
v -60.000000 100.000000 34.397533
v -40.000000 100.000000 32.792500
v -20.000000 100.000000 32.021000
v 0.000000 100.000000 31.354626
v 20.000000 100.000000 30.406258
v 40.000000 100.000000 29.170088
v 60.000000 100.000000 27.161045
v 80.000000 100.000000 24.527800
v 100.000000 100.000000 20.825165
v 120.000000 100.000000 16.522917
v 140.000000 100.000000 11.626527
v 160.000000 100.000000 6.262699
v -160.000000 120.000000 36.709755
v -140.000000 120.000000 38.620380
v -120.000000 120.000000 40.322609
v -100.000000 120.000000 41.223133
v -80.000000 120.000000 41.263535
v -60.000000 120.000000 40.447830
v -40.000000 120.000000 39.332321
v -20.000000 120.000000 38.206844
v 0.000000 120.000000 36.841660
v 20.000000 120.000000 35.073498
v 40.000000 120.000000 32.781040
v 60.000000 120.000000 29.598118
v 80.000000 120.000000 25.757118
v 100.000000 120.000000 21.316282
v 120.000000 120.000000 16.414772
v 140.000000 120.000000 11.215994
v 160.000000 120.000000 5.682265
v -160.000000 140.000000 35.469711
v -140.000000 140.000000 38.394642
v -120.000000 140.000000 41.283802
v -100.000000 140.000000 43.298595
v -80.000000 140.000000 44.183949
v -60.000000 140.000000 43.856251
v -40.000000 140.000000 42.869793
v -20.000000 140.000000 41.556980
v 0.000000 140.000000 39.712605
v 20.000000 140.000000 37.151733
v 40.000000 140.000000 33.939846
v 60.000000 140.000000 29.923222
v 80.000000 140.000000 25.301386
v 100.000000 140.000000 20.214821
v 120.000000 140.000000 15.049782
v 140.000000 140.000000 9.688999
v 160.000000 140.000000 4.084114
v -160.000000 160.000000 33.626137
v -140.000000 160.000000 37.603001
v -120.000000 160.000000 41.455830
v -100.000000 160.000000 44.142841
v -80.000000 160.000000 45.458282
v -60.000000 160.000000 45.330200
v -40.000000 160.000000 44.339989
v -20.000000 160.000000 42.756672
v 0.000000 160.000000 40.532703
v 20.000000 160.000000 37.394405
v 40.000000 160.000000 33.588272
v 60.000000 160.000000 28.991180
v 80.000000 160.000000 23.880705
v 100.000000 160.000000 18.221172
v 120.000000 160.000000 12.805190
v 140.000000 160.000000 7.516846
v 160.000000 160.000000 2.100586
vn -0.1128 -0.3048 0.9457
vn -0.1008 -0.2968 0.9496
vn -0.0876 -0.2998 0.9500
vn -0.1005 -0.3156 0.9436
vn -0.0593 -0.2876 0.9559
vn -0.0434 -0.2871 0.9569
vn 0.0096 -0.2737 0.9618
vn 0.0317 -0.2669 0.9632
vn 0.0910 -0.2512 0.9636
vn 0.1276 -0.2348 0.9636
vn 0.1652 -0.2101 0.9636
vn 0.2104 -0.1897 0.9590
vn 0.2178 -0.1639 0.9621
vn 0.2600 -0.1426 0.9550
vn 0.2479 -0.1209 0.9612
vn 0.2889 -0.1019 0.9519
vn 0.2774 -0.0733 0.9580
vn 0.3171 -0.0583 0.9466
vn 0.3039 -0.0250 0.9524
vn 0.3282 -0.0284 0.9442
vn 0.3060 0.0006 0.9520
vn 0.2882 -0.0367 0.9569
vn 0.2799 -0.0206 0.9598
vn 0.2063 -0.1160 0.9716
vn 0.2059 -0.0932 0.9741
vn 0.1065 -0.2195 0.9698
vn 0.1198 -0.1856 0.9753
vn 0.0348 -0.2927 0.9556
vn 0.0689 -0.2794 0.9577
vn 0.0101 -0.3368 0.9415
vn 0.0427 -0.3474 0.9367
vn 0.0055 -0.3645 0.9312
vn 0.0219 -0.3852 0.9226
vn 0.0038 -0.3823 0.9240
vn -0.0681 -0.3118 0.9477
vn -0.0863 -0.3264 0.9413
vn -0.0225 -0.2916 0.9563
vn 0.0639 -0.2607 0.9633
vn 0.1673 -0.2168 0.9618
vn 0.2532 -0.1700 0.9524
vn 0.3000 -0.1264 0.9455
vn 0.3252 -0.0941 0.9409
vn 0.3433 -0.0610 0.9372
vn 0.3232 -0.0658 0.9440
vn 0.2240 -0.1308 0.9658
vn 0.1002 -0.2334 0.9672
vn 0.0233 -0.3078 0.9512
vn -0.0080 -0.3386 0.9409
vn -0.0123 -0.3528 0.9356
vn -0.0096 -0.3646 0.9311
vn -0.0028 -0.3727 0.9280
vn -0.0478 -0.3153 0.9478
vn -0.0763 -0.3281 0.9416
vn 0.0124 -0.2876 0.9577
vn 0.1084 -0.2430 0.9640
vn 0.2149 -0.1959 0.9568
vn 0.2938 -0.1521 0.9437
vn 0.3286 -0.1206 0.9367
vn 0.3471 -0.1002 0.9325
vn 0.3416 -0.0914 0.9354
vn 0.2644 -0.1449 0.9535
vn 0.1247 -0.2425 0.9621
vn 0.0227 -0.3179 0.9479
vn -0.0081 -0.3529 0.9356
vn -0.0159 -0.3590 0.9332
vn -0.0197 -0.3626 0.9318
vn -0.0174 -0.3663 0.9303
vn -0.0065 -0.3695 0.9292
vn -0.0225 -0.3028 0.9528
vn -0.0628 -0.3199 0.9454
vn 0.0548 -0.2661 0.9624
vn 0.1561 -0.2136 0.9644
vn 0.2525 -0.1686 0.9528
vn 0.3202 -0.1413 0.9368
vn 0.3451 -0.1256 0.9301
vn 0.3500 -0.1205 0.9290
vn 0.3030 -0.1471 0.9416
vn 0.1796 -0.2358 0.9551
vn 0.0459 -0.3180 0.9470
vn -0.0200 -0.3556 0.9344
vn -0.0230 -0.3669 0.9300
vn -0.0189 -0.3720 0.9280
vn -0.0205 -0.3729 0.9277
vn -0.0176 -0.3714 0.9283
vn -0.0003 -0.3672 0.9301
vn 0.0111 -0.2849 0.9585
vn -0.0454 -0.3175 0.9472
vn 0.1055 -0.2336 0.9666
vn 0.2038 -0.1825 0.9619
vn 0.2802 -0.1435 0.9491
vn 0.3305 -0.1250 0.9355
vn 0.3458 -0.1257 0.9299
vn 0.3272 -0.1547 0.9322
vn 0.2346 -0.2221 0.9464
vn 0.0925 -0.3070 0.9472
vn -0.0035 -0.3543 0.9351
vn -0.0321 -0.3637 0.9310
vn -0.0274 -0.3635 0.9312
vn -0.0228 -0.3676 0.9297
vn -0.0187 -0.3694 0.9291
vn -0.0106 -0.3656 0.9307
vn 0.0146 -0.3530 0.9355
vn 0.0675 -0.2552 0.9645
vn -0.0094 -0.3051 0.9523
vn 0.1589 -0.1997 0.9669
vn 0.2420 -0.1542 0.9579
vn 0.3033 -0.1252 0.9446
vn 0.3345 -0.1204 0.9347
vn 0.3175 -0.1435 0.9373
vn 0.2615 -0.2036 0.9435
vn 0.1546 -0.2898 0.9445
vn 0.0414 -0.3425 0.9386
vn -0.0169 -0.3600 0.9328
vn -0.0309 -0.3604 0.9323
vn -0.0275 -0.3597 0.9327
vn -0.0262 -0.3608 0.9323
vn -0.0182 -0.3596 0.9329
vn 0.0012 -0.3488 0.9372
vn 0.0406 -0.3272 0.9441
vn 0.1215 -0.2143 0.9692
vn 0.0353 -0.2663 0.9632
vn 0.2057 -0.1666 0.9643
vn 0.2725 -0.1301 0.9533
vn 0.3091 -0.1160 0.9439
vn 0.3126 -0.1415 0.9393
vn 0.2690 -0.1907 0.9441
vn 0.1867 -0.2618 0.9469
vn 0.0928 -0.3274 0.9403
vn 0.0173 -0.3533 0.9353
vn -0.0237 -0.3621 0.9318
vn -0.0319 -0.3642 0.9308
vn -0.0278 -0.3666 0.9300
vn -0.0227 -0.3623 0.9318
vn -0.0050 -0.3529 0.9356
vn 0.0259 -0.3294 0.9438
vn 0.0779 -0.2964 0.9519
vn 0.1689 -0.1527 0.9737
vn 0.0866 -0.1983 0.9763
vn 0.2398 -0.1234 0.9629
vn 0.2873 -0.1229 0.9499
vn 0.2900 -0.1513 0.9450
vn 0.2632 -0.1986 0.9441
vn 0.2016 -0.2488 0.9473
vn 0.1234 -0.3066 0.9438
vn 0.0584 -0.3453 0.9367
vn 0.0036 -0.3680 0.9298
vn -0.0292 -0.3767 0.9259
vn -0.0356 -0.3785 0.9249
vn -0.0250 -0.3783 0.9253
vn -0.0103 -0.3628 0.9318
vn 0.0190 -0.3428 0.9392
vn 0.0636 -0.3101 0.9486
vn 0.1187 -0.2703 0.9554
vn 0.1955 -0.1010 0.9755
vn 0.1313 -0.1208 0.9840
vn 0.2328 -0.1067 0.9667
vn 0.2433 -0.1502 0.9582
vn 0.2340 -0.2065 0.9500
vn 0.2169 -0.2548 0.9423
vn 0.1607 -0.2923 0.9427
vn 0.0859 -0.3269 0.9411
vn 0.0262 -0.3578 0.9334
vn -0.0183 -0.3776 0.9258
vn -0.0358 -0.3856 0.9220
vn -0.0333 -0.3834 0.9230
vn -0.0093 -0.3724 0.9280
vn 0.0182 -0.3474 0.9375
vn 0.0542 -0.3134 0.9481
vn 0.1047 -0.2748 0.9558
vn 0.1624 -0.2319 0.9591
vn 0.1818 -0.0915 0.9791
vn 0.1500 -0.0664 0.9865
vn 0.1903 -0.1391 0.9718
vn 0.1880 -0.1996 0.9617
vn 0.1839 -0.2463 0.9516
vn 0.1756 -0.2793 0.9440
vn 0.1278 -0.3136 0.9409
vn 0.0541 -0.3448 0.9371
vn 0.0018 -0.3681 0.9298
vn -0.0289 -0.3741 0.9269
vn -0.0363 -0.3743 0.9266
vn -0.0200 -0.3657 0.9305
vn 0.0167 -0.3418 0.9396
vn 0.0567 -0.3068 0.9501
vn 0.0990 -0.2654 0.9590
vn 0.1499 -0.2205 0.9638
vn 0.2073 -0.1769 0.9622
vn 0.1225 -0.1331 0.9835
vn 0.1243 -0.0671 0.9900
vn 0.1230 -0.2045 0.9711
vn 0.1324 -0.2566 0.9574
vn 0.1492 -0.2923 0.9446
vn 0.1458 -0.3177 0.9369
vn 0.0917 -0.3499 0.9323
vn 0.0267 -0.3727 0.9276
vn -0.0071 -0.3783 0.9257
vn -0.0261 -0.3674 0.9297
vn -0.0265 -0.3453 0.9381
vn 0.0039 -0.3178 0.9482
vn 0.0576 -0.2790 0.9586
vn 0.1030 -0.2330 0.9670
vn 0.1470 -0.1899 0.9708
vn 0.1964 -0.1461 0.9696
vn 0.2444 -0.1116 0.9632
vn 0.0424 -0.1594 0.9863
vn 0.0495 -0.0820 0.9954
vn 0.0612 -0.2282 0.9717
vn 0.0926 -0.2738 0.9573
vn 0.1154 -0.3099 0.9437
vn 0.1121 -0.3419 0.9330
vn 0.0677 -0.3693 0.9268
vn 0.0225 -0.3756 0.9265
vn 0.0080 -0.3645 0.9312
vn 0.0089 -0.3365 0.9417
vn 0.0199 -0.2949 0.9553
vn 0.0536 -0.2403 0.9692
vn 0.1086 -0.1919 0.9754
vn 0.1515 -0.1464 0.9776
vn 0.1897 -0.1007 0.9767
vn 0.2287 -0.0690 0.9711
vn 0.2653 -0.0473 0.9630
vn -0.0276 -0.1000 0.9946
vn -0.0266 -0.0328 0.9991
vn 0.0021 -0.1639 0.9865
vn 0.0434 -0.2228 0.9739
vn 0.0741 -0.2744 0.9588
vn 0.0809 -0.3138 0.9461
vn 0.0559 -0.3367 0.9399
vn 0.0339 -0.3290 0.9437
vn 0.0384 -0.3047 0.9517
vn 0.0526 -0.2682 0.9619
vn 0.0788 -0.2218 0.9719
vn 0.1138 -0.1597 0.9806
vn 0.1556 -0.1060 0.9821
vn 0.1958 -0.0657 0.9784
vn 0.2240 -0.0288 0.9742
vn 0.2484 -0.0086 0.9686
vn 0.2771 0.0031 0.9608
vn -0.0898 -0.0199 0.9958
vn -0.0847 0.0353 0.9958
vn -0.0647 -0.0817 0.9946
vn -0.0233 -0.1434 0.9894
vn 0.0190 -0.1954 0.9805
vn 0.0470 -0.2298 0.9721
vn 0.0542 -0.2439 0.9683
vn 0.0605 -0.2314 0.9710
vn 0.0765 -0.2038 0.9760
vn 0.0996 -0.1655 0.9812
vn 0.1347 -0.1173 0.9839
vn 0.1725 -0.0679 0.9827
vn 0.2027 -0.0190 0.9791
vn 0.2274 0.0149 0.9737
vn 0.2447 0.0357 0.9690
vn 0.2588 0.0467 0.9648
vn 0.2809 0.0522 0.9583
vn -0.1438 0.0251 0.9893
vn -0.1335 0.0762 0.9881
vn -0.1216 -0.0282 0.9922
vn -0.0721 -0.0726 0.9948
vn -0.0138 -0.1043 0.9945
vn 0.0326 -0.1211 0.9921
vn 0.0569 -0.1240 0.9906
vn 0.0782 -0.1126 0.9906
vn 0.1090 -0.0914 0.9898
vn 0.1426 -0.0573 0.9881
vn 0.1778 -0.0199 0.9839
vn 0.2111 0.0148 0.9774
vn 0.2356 0.0455 0.9708
vn 0.2476 0.0747 0.9660
vn 0.2535 0.0869 0.9634
vn 0.2633 0.0888 0.9606
vn 0.2733 0.0858 0.9581
vn -0.1919 0.0481 0.9802
vn -0.1781 0.0878 0.9801
vn -0.1613 0.0112 0.9868
vn -0.0996 -0.0169 0.9949
vn -0.0297 -0.0324 0.9990
vn 0.0279 -0.0366 0.9989
vn 0.0642 -0.0329 0.9974
vn 0.0947 -0.0144 0.9954
vn 0.1329 0.0063 0.9911
vn 0.1710 0.0272 0.9849
vn 0.2054 0.0482 0.9775
vn 0.2353 0.0673 0.9696
vn 0.2590 0.0857 0.9621
vn 0.2652 0.1118 0.9577
vn 0.2565 0.1235 0.9586
vn 0.2568 0.1166 0.9594
vn 0.2617 0.1035 0.9596
vt 0.015625 0.015625
vt 0.076172 0.015625
vt 0.076172 0.076172
vt 0.015625 0.076172
vt 0.136719 0.015625
vt 0.136719 0.076172
vt 0.197266 0.015625
vt 0.197266 0.076172
vt 0.257812 0.015625
vt 0.257812 0.076172
vt 0.318359 0.015625
vt 0.318359 0.076172
vt 0.378906 0.015625
vt 0.378906 0.076172
vt 0.439453 0.015625
vt 0.439453 0.076172
vt 0.500000 0.015625
vt 0.500000 0.076172
vt 0.560547 0.015625
vt 0.560547 0.076172
vt 0.621094 0.015625
vt 0.621094 0.076172
vt 0.681641 0.015625
vt 0.681641 0.076172
vt 0.742188 0.015625
vt 0.742188 0.076172
vt 0.802734 0.015625
vt 0.802734 0.076172
vt 0.863281 0.015625
vt 0.863281 0.076172
vt 0.923828 0.015625
vt 0.923828 0.076172
vt 0.984375 0.015625
vt 0.984375 0.076172
vt 0.076172 0.136719
vt 0.015625 0.136719
vt 0.136719 0.136719
vt 0.197266 0.136719
vt 0.257812 0.136719
vt 0.318359 0.136719
vt 0.378906 0.136719
vt 0.439453 0.136719
vt 0.500000 0.136719
vt 0.560547 0.136719
vt 0.621094 0.136719
vt 0.681641 0.136719
vt 0.742188 0.136719
vt 0.802734 0.136719
vt 0.863281 0.136719
vt 0.923828 0.136719
vt 0.984375 0.136719
vt 0.076172 0.197266
vt 0.015625 0.197266
vt 0.136719 0.197266
vt 0.197266 0.197266
vt 0.257812 0.197266
vt 0.318359 0.197266
vt 0.378906 0.197266
vt 0.439453 0.197266
vt 0.500000 0.197266
vt 0.560547 0.197266
vt 0.621094 0.197266
vt 0.681641 0.197266
vt 0.742188 0.197266
vt 0.802734 0.197266
vt 0.863281 0.197266
vt 0.923828 0.197266
vt 0.984375 0.197266
vt 0.076172 0.257812
vt 0.015625 0.257812
vt 0.136719 0.257812
vt 0.197266 0.257812
vt 0.257812 0.257812
vt 0.318359 0.257812
vt 0.378906 0.257812
vt 0.439453 0.257812
vt 0.500000 0.257812
vt 0.560547 0.257812
vt 0.621094 0.257812
vt 0.681641 0.257812
vt 0.742188 0.257812
vt 0.802734 0.257812
vt 0.863281 0.257812
vt 0.923828 0.257812
vt 0.984375 0.257812
vt 0.076172 0.318359
vt 0.015625 0.318359
vt 0.136719 0.318359
vt 0.197266 0.318359
vt 0.257812 0.318359
vt 0.318359 0.318359
vt 0.378906 0.318359
vt 0.439453 0.318359
vt 0.500000 0.318359
vt 0.560547 0.318359
vt 0.621094 0.318359
vt 0.681641 0.318359
vt 0.742188 0.318359
vt 0.802734 0.318359
vt 0.863281 0.318359
vt 0.923828 0.318359
vt 0.984375 0.318359
vt 0.076172 0.378906
vt 0.015625 0.378906
vt 0.136719 0.378906
vt 0.197266 0.378906
vt 0.257812 0.378906
vt 0.318359 0.378906
vt 0.378906 0.378906
vt 0.439453 0.378906
vt 0.500000 0.378906
vt 0.560547 0.378906
vt 0.621094 0.378906
vt 0.681641 0.378906
vt 0.742188 0.378906
vt 0.802734 0.378906
vt 0.863281 0.378906
vt 0.923828 0.378906
vt 0.984375 0.378906
vt 0.076172 0.439453
vt 0.015625 0.439453
vt 0.136719 0.439453
vt 0.197266 0.439453
vt 0.257812 0.439453
vt 0.318359 0.439453
vt 0.378906 0.439453
vt 0.439453 0.439453
vt 0.500000 0.439453
vt 0.560547 0.439453
vt 0.621094 0.439453
vt 0.681641 0.439453
vt 0.742188 0.439453
vt 0.802734 0.439453
vt 0.863281 0.439453
vt 0.923828 0.439453
vt 0.984375 0.439453
vt 0.076172 0.500000
vt 0.015625 0.500000
vt 0.136719 0.500000
vt 0.197266 0.500000
vt 0.257812 0.500000
vt 0.318359 0.500000
vt 0.378906 0.500000
vt 0.439453 0.500000
vt 0.500000 0.500000
vt 0.560547 0.500000
vt 0.621094 0.500000
vt 0.681641 0.500000
vt 0.742188 0.500000
vt 0.802734 0.500000
vt 0.863281 0.500000
vt 0.923828 0.500000
vt 0.984375 0.500000
vt 0.076172 0.560547
vt 0.015625 0.560547
vt 0.136719 0.560547
vt 0.197266 0.560547
vt 0.257812 0.560547
vt 0.318359 0.560547
vt 0.378906 0.560547
vt 0.439453 0.560547
vt 0.500000 0.560547
vt 0.560547 0.560547
vt 0.621094 0.560547
vt 0.681641 0.560547
vt 0.742188 0.560547
vt 0.802734 0.560547
vt 0.863281 0.560547
vt 0.923828 0.560547
vt 0.984375 0.560547
vt 0.076172 0.621094
vt 0.015625 0.621094
vt 0.136719 0.621094
vt 0.197266 0.621094
vt 0.257812 0.621094
vt 0.318359 0.621094
vt 0.378906 0.621094
vt 0.439453 0.621094
vt 0.500000 0.621094
vt 0.560547 0.621094
vt 0.621094 0.621094
vt 0.681641 0.621094
vt 0.742188 0.621094
vt 0.802734 0.621094
vt 0.863281 0.621094
vt 0.923828 0.621094
vt 0.984375 0.621094
vt 0.076172 0.681641
vt 0.015625 0.681641
vt 0.136719 0.681641
vt 0.197266 0.681641
vt 0.257812 0.681641
vt 0.318359 0.681641
vt 0.378906 0.681641
vt 0.439453 0.681641
vt 0.500000 0.681641
vt 0.560547 0.681641
vt 0.621094 0.681641
vt 0.681641 0.681641
vt 0.742188 0.681641
vt 0.802734 0.681641
vt 0.863281 0.681641
vt 0.923828 0.681641
vt 0.984375 0.681641
vt 0.076172 0.742188
vt 0.015625 0.742188
vt 0.136719 0.742188
vt 0.197266 0.742188
vt 0.257812 0.742188
vt 0.318359 0.742188
vt 0.378906 0.742188
vt 0.439453 0.742188
vt 0.500000 0.742188
vt 0.560547 0.742188
vt 0.621094 0.742188
vt 0.681641 0.742188
vt 0.742188 0.742188
vt 0.802734 0.742188
vt 0.863281 0.742188
vt 0.923828 0.742188
vt 0.984375 0.742188
vt 0.076172 0.802734
vt 0.015625 0.802734
vt 0.136719 0.802734
vt 0.197266 0.802734
vt 0.257812 0.802734
vt 0.318359 0.802734
vt 0.378906 0.802734
vt 0.439453 0.802734
vt 0.500000 0.802734
vt 0.560547 0.802734
vt 0.621094 0.802734
vt 0.681641 0.802734
vt 0.742188 0.802734
vt 0.802734 0.802734
vt 0.863281 0.802734
vt 0.923828 0.802734
vt 0.984375 0.802734
vt 0.076172 0.863281
vt 0.015625 0.863281
vt 0.136719 0.863281
vt 0.197266 0.863281
vt 0.257812 0.863281
vt 0.318359 0.863281
vt 0.378906 0.863281
vt 0.439453 0.863281
vt 0.500000 0.863281
vt 0.560547 0.863281
vt 0.621094 0.863281
vt 0.681641 0.863281
vt 0.742188 0.863281
vt 0.802734 0.863281
vt 0.863281 0.863281
vt 0.923828 0.863281
vt 0.984375 0.863281
vt 0.076172 0.923828
vt 0.015625 0.923828
vt 0.136719 0.923828
vt 0.197266 0.923828
vt 0.257812 0.923828
vt 0.318359 0.923828
vt 0.378906 0.923828
vt 0.439453 0.923828
vt 0.500000 0.923828
vt 0.560547 0.923828
vt 0.621094 0.923828
vt 0.681641 0.923828
vt 0.742188 0.923828
vt 0.802734 0.923828
vt 0.863281 0.923828
vt 0.923828 0.923828
vt 0.984375 0.923828
vt 0.076172 0.984375
vt 0.015625 0.984375
vt 0.136719 0.984375
vt 0.197266 0.984375
vt 0.257812 0.984375
vt 0.318359 0.984375
vt 0.378906 0.984375
vt 0.439453 0.984375
vt 0.500000 0.984375
vt 0.560547 0.984375
vt 0.621094 0.984375
vt 0.681641 0.984375
vt 0.742188 0.984375
vt 0.802734 0.984375
vt 0.863281 0.984375
vt 0.923828 0.984375
vt 0.984375 0.984375
s 1
f 1/1/1 2/2/2 19/3/3
f 1/1/1 19/3/3 18/4/4
f 2/2/2 3/5/5 20/6/6
f 2/2/2 20/6/6 19/3/3
f 3/5/5 4/7/7 21/8/8
f 3/5/5 21/8/8 20/6/6
f 4/7/7 5/9/9 22/10/10
f 4/7/7 22/10/10 21/8/8
f 5/9/9 6/11/11 23/12/12
f 5/9/9 23/12/12 22/10/10
f 6/11/11 7/13/13 24/14/14
f 6/11/11 24/14/14 23/12/12
f 7/13/13 8/15/15 25/16/16
f 7/13/13 25/16/16 24/14/14
f 8/15/15 9/17/17 26/18/18
f 8/15/15 26/18/18 25/16/16
f 9/17/17 10/19/19 27/20/20
f 9/17/17 27/20/20 26/18/18
f 10/19/19 11/21/21 28/22/22
f 10/19/19 28/22/22 27/20/20
f 11/21/21 12/23/23 29/24/24
f 11/21/21 29/24/24 28/22/22
f 12/23/23 13/25/25 30/26/26
f 12/23/23 30/26/26 29/24/24
f 13/25/25 14/27/27 31/28/28
f 13/25/25 31/28/28 30/26/26
f 14/27/27 15/29/29 32/30/30
f 14/27/27 32/30/30 31/28/28
f 15/29/29 16/31/31 33/32/32
f 15/29/29 33/32/32 32/30/30
f 16/31/31 17/33/33 34/34/34
f 16/31/31 34/34/34 33/32/32
f 18/4/4 19/3/3 36/35/35
f 18/4/4 36/35/35 35/36/36
f 19/3/3 20/6/6 37/37/37
f 19/3/3 37/37/37 36/35/35
f 20/6/6 21/8/8 38/38/38
f 20/6/6 38/38/38 37/37/37
f 21/8/8 22/10/10 39/39/39
f 21/8/8 39/39/39 38/38/38
f 22/10/10 23/12/12 40/40/40
f 22/10/10 40/40/40 39/39/39
f 23/12/12 24/14/14 41/41/41
f 23/12/12 41/41/41 40/40/40
f 24/14/14 25/16/16 42/42/42
f 24/14/14 42/42/42 41/41/41
f 25/16/16 26/18/18 43/43/43
f 25/16/16 43/43/43 42/42/42
f 26/18/18 27/20/20 44/44/44
f 26/18/18 44/44/44 43/43/43
f 27/20/20 28/22/22 45/45/45
f 27/20/20 45/45/45 44/44/44
f 28/22/22 29/24/24 46/46/46
f 28/22/22 46/46/46 45/45/45
f 29/24/24 30/26/26 47/47/47
f 29/24/24 47/47/47 46/46/46
f 30/26/26 31/28/28 48/48/48
f 30/26/26 48/48/48 47/47/47
f 31/28/28 32/30/30 49/49/49
f 31/28/28 49/49/49 48/48/48
f 32/30/30 33/32/32 50/50/50
f 32/30/30 50/50/50 49/49/49
f 33/32/32 34/34/34 51/51/51
f 33/32/32 51/51/51 50/50/50
f 35/36/36 36/35/35 53/52/52
f 35/36/36 53/52/52 52/53/53
f 36/35/35 37/37/37 54/54/54
f 36/35/35 54/54/54 53/52/52
f 37/37/37 38/38/38 55/55/55
f 37/37/37 55/55/55 54/54/54
f 38/38/38 39/39/39 56/56/56
f 38/38/38 56/56/56 55/55/55
f 39/39/39 40/40/40 57/57/57
f 39/39/39 57/57/57 56/56/56
f 40/40/40 41/41/41 58/58/58
f 40/40/40 58/58/58 57/57/57
f 41/41/41 42/42/42 59/59/59
f 41/41/41 59/59/59 58/58/58
f 42/42/42 43/43/43 60/60/60
f 42/42/42 60/60/60 59/59/59
f 43/43/43 44/44/44 61/61/61
f 43/43/43 61/61/61 60/60/60
f 44/44/44 45/45/45 62/62/62
f 44/44/44 62/62/62 61/61/61
f 45/45/45 46/46/46 63/63/63
f 45/45/45 63/63/63 62/62/62
f 46/46/46 47/47/47 64/64/64
f 46/46/46 64/64/64 63/63/63
f 47/47/47 48/48/48 65/65/65
f 47/47/47 65/65/65 64/64/64
f 48/48/48 49/49/49 66/66/66
f 48/48/48 66/66/66 65/65/65
f 49/49/49 50/50/50 67/67/67
f 49/49/49 67/67/67 66/66/66
f 50/50/50 51/51/51 68/68/68
f 50/50/50 68/68/68 67/67/67
f 52/53/53 53/52/52 70/69/69
f 52/53/53 70/69/69 69/70/70
f 53/52/52 54/54/54 71/71/71
f 53/52/52 71/71/71 70/69/69
f 54/54/54 55/55/55 72/72/72
f 54/54/54 72/72/72 71/71/71
f 55/55/55 56/56/56 73/73/73
f 55/55/55 73/73/73 72/72/72
f 56/56/56 57/57/57 74/74/74
f 56/56/56 74/74/74 73/73/73
f 57/57/57 58/58/58 75/75/75
f 57/57/57 75/75/75 74/74/74
f 58/58/58 59/59/59 76/76/76
f 58/58/58 76/76/76 75/75/75
f 59/59/59 60/60/60 77/77/77
f 59/59/59 77/77/77 76/76/76
f 60/60/60 61/61/61 78/78/78
f 60/60/60 78/78/78 77/77/77
f 61/61/61 62/62/62 79/79/79
f 61/61/61 79/79/79 78/78/78
f 62/62/62 63/63/63 80/80/80
f 62/62/62 80/80/80 79/79/79
f 63/63/63 64/64/64 81/81/81
f 63/63/63 81/81/81 80/80/80
f 64/64/64 65/65/65 82/82/82
f 64/64/64 82/82/82 81/81/81
f 65/65/65 66/66/66 83/83/83
f 65/65/65 83/83/83 82/82/82
f 66/66/66 67/67/67 84/84/84
f 66/66/66 84/84/84 83/83/83
f 67/67/67 68/68/68 85/85/85
f 67/67/67 85/85/85 84/84/84
f 69/70/70 70/69/69 87/86/86
f 69/70/70 87/86/86 86/87/87
f 70/69/69 71/71/71 88/88/88
f 70/69/69 88/88/88 87/86/86
f 71/71/71 72/72/72 89/89/89
f 71/71/71 89/89/89 88/88/88
f 72/72/72 73/73/73 90/90/90
f 72/72/72 90/90/90 89/89/89
f 73/73/73 74/74/74 91/91/91
f 73/73/73 91/91/91 90/90/90
f 74/74/74 75/75/75 92/92/92
f 74/74/74 92/92/92 91/91/91
f 75/75/75 76/76/76 93/93/93
f 75/75/75 93/93/93 92/92/92
f 76/76/76 77/77/77 94/94/94
f 76/76/76 94/94/94 93/93/93
f 77/77/77 78/78/78 95/95/95
f 77/77/77 95/95/95 94/94/94
f 78/78/78 79/79/79 96/96/96
f 78/78/78 96/96/96 95/95/95
f 79/79/79 80/80/80 97/97/97
f 79/79/79 97/97/97 96/96/96
f 80/80/80 81/81/81 98/98/98
f 80/80/80 98/98/98 97/97/97
f 81/81/81 82/82/82 99/99/99
f 81/81/81 99/99/99 98/98/98
f 82/82/82 83/83/83 100/100/100
f 82/82/82 100/100/100 99/99/99
f 83/83/83 84/84/84 101/101/101
f 83/83/83 101/101/101 100/100/100
f 84/84/84 85/85/85 102/102/102
f 84/84/84 102/102/102 101/101/101
f 86/87/87 87/86/86 104/103/103
f 86/87/87 104/103/103 103/104/104
f 87/86/86 88/88/88 105/105/105
f 87/86/86 105/105/105 104/103/103
f 88/88/88 89/89/89 106/106/106
f 88/88/88 106/106/106 105/105/105
f 89/89/89 90/90/90 107/107/107
f 89/89/89 107/107/107 106/106/106
f 90/90/90 91/91/91 108/108/108
f 90/90/90 108/108/108 107/107/107
f 91/91/91 92/92/92 109/109/109
f 91/91/91 109/109/109 108/108/108
f 92/92/92 93/93/93 110/110/110
f 92/92/92 110/110/110 109/109/109
f 93/93/93 94/94/94 111/111/111
f 93/93/93 111/111/111 110/110/110
f 94/94/94 95/95/95 112/112/112
f 94/94/94 112/112/112 111/111/111
f 95/95/95 96/96/96 113/113/113
f 95/95/95 113/113/113 112/112/112
f 96/96/96 97/97/97 114/114/114
f 96/96/96 114/114/114 113/113/113
f 97/97/97 98/98/98 115/115/115
f 97/97/97 115/115/115 114/114/114
f 98/98/98 99/99/99 116/116/116
f 98/98/98 116/116/116 115/115/115
f 99/99/99 100/100/100 117/117/117
f 99/99/99 117/117/117 116/116/116
f 100/100/100 101/101/101 118/118/118
f 100/100/100 118/118/118 117/117/117
f 101/101/101 102/102/102 119/119/119
f 101/101/101 119/119/119 118/118/118
f 103/104/104 104/103/103 121/120/120
f 103/104/104 121/120/120 120/121/121
f 104/103/103 105/105/105 122/122/122
f 104/103/103 122/122/122 121/120/120
f 105/105/105 106/106/106 123/123/123
f 105/105/105 123/123/123 122/122/122
f 106/106/106 107/107/107 124/124/124
f 106/106/106 124/124/124 123/123/123
f 107/107/107 108/108/108 125/125/125
f 107/107/107 125/125/125 124/124/124
f 108/108/108 109/109/109 126/126/126
f 108/108/108 126/126/126 125/125/125
f 109/109/109 110/110/110 127/127/127
f 109/109/109 127/127/127 126/126/126
f 110/110/110 111/111/111 128/128/128
f 110/110/110 128/128/128 127/127/127
f 111/111/111 112/112/112 129/129/129
f 111/111/111 129/129/129 128/128/128
f 112/112/112 113/113/113 130/130/130
f 112/112/112 130/130/130 129/129/129
f 113/113/113 114/114/114 131/131/131
f 113/113/113 131/131/131 130/130/130
f 114/114/114 115/115/115 132/132/132
f 114/114/114 132/132/132 131/131/131
f 115/115/115 116/116/116 133/133/133
f 115/115/115 133/133/133 132/132/132
f 116/116/116 117/117/117 134/134/134
f 116/116/116 134/134/134 133/133/133
f 117/117/117 118/118/118 135/135/135
f 117/117/117 135/135/135 134/134/134
f 118/118/118 119/119/119 136/136/136
f 118/118/118 136/136/136 135/135/135
f 120/121/121 121/120/120 138/137/137
f 120/121/121 138/137/137 137/138/138
f 121/120/120 122/122/122 139/139/139
f 121/120/120 139/139/139 138/137/137
f 122/122/122 123/123/123 140/140/140
f 122/122/122 140/140/140 139/139/139
f 123/123/123 124/124/124 141/141/141
f 123/123/123 141/141/141 140/140/140
f 124/124/124 125/125/125 142/142/142
f 124/124/124 142/142/142 141/141/141
f 125/125/125 126/126/126 143/143/143
f 125/125/125 143/143/143 142/142/142
f 126/126/126 127/127/127 144/144/144
f 126/126/126 144/144/144 143/143/143
f 127/127/127 128/128/128 145/145/145
f 127/127/127 145/145/145 144/144/144
f 128/128/128 129/129/129 146/146/146
f 128/128/128 146/146/146 145/145/145
f 129/129/129 130/130/130 147/147/147
f 129/129/129 147/147/147 146/146/146
f 130/130/130 131/131/131 148/148/148
f 130/130/130 148/148/148 147/147/147
f 131/131/131 132/132/132 149/149/149
f 131/131/131 149/149/149 148/148/148
f 132/132/132 133/133/133 150/150/150
f 132/132/132 150/150/150 149/149/149
f 133/133/133 134/134/134 151/151/151
f 133/133/133 151/151/151 150/150/150
f 134/134/134 135/135/135 152/152/152
f 134/134/134 152/152/152 151/151/151
f 135/135/135 136/136/136 153/153/153
f 135/135/135 153/153/153 152/152/152
f 137/138/138 138/137/137 155/154/154
f 137/138/138 155/154/154 154/155/155
f 138/137/137 139/139/139 156/156/156
f 138/137/137 156/156/156 155/154/154
f 139/139/139 140/140/140 157/157/157
f 139/139/139 157/157/157 156/156/156
f 140/140/140 141/141/141 158/158/158
f 140/140/140 158/158/158 157/157/157
f 141/141/141 142/142/142 159/159/159
f 141/141/141 159/159/159 158/158/158
f 142/142/142 143/143/143 160/160/160
f 142/142/142 160/160/160 159/159/159
f 143/143/143 144/144/144 161/161/161
f 143/143/143 161/161/161 160/160/160
f 144/144/144 145/145/145 162/162/162
f 144/144/144 162/162/162 161/161/161
f 145/145/145 146/146/146 163/163/163
f 145/145/145 163/163/163 162/162/162
f 146/146/146 147/147/147 164/164/164
f 146/146/146 164/164/164 163/163/163
f 147/147/147 148/148/148 165/165/165
f 147/147/147 165/165/165 164/164/164
f 148/148/148 149/149/149 166/166/166
f 148/148/148 166/166/166 165/165/165
f 149/149/149 150/150/150 167/167/167
f 149/149/149 167/167/167 166/166/166
f 150/150/150 151/151/151 168/168/168
f 150/150/150 168/168/168 167/167/167
f 151/151/151 152/152/152 169/169/169
f 151/151/151 169/169/169 168/168/168
f 152/152/152 153/153/153 170/170/170
f 152/152/152 170/170/170 169/169/169
f 154/155/155 155/154/154 172/171/171
f 154/155/155 172/171/171 171/172/172
f 155/154/154 156/156/156 173/173/173
f 155/154/154 173/173/173 172/171/171
f 156/156/156 157/157/157 174/174/174
f 156/156/156 174/174/174 173/173/173
f 157/157/157 158/158/158 175/175/175
f 157/157/157 175/175/175 174/174/174
f 158/158/158 159/159/159 176/176/176
f 158/158/158 176/176/176 175/175/175
f 159/159/159 160/160/160 177/177/177
f 159/159/159 177/177/177 176/176/176
f 160/160/160 161/161/161 178/178/178
f 160/160/160 178/178/178 177/177/177
f 161/161/161 162/162/162 179/179/179
f 161/161/161 179/179/179 178/178/178
f 162/162/162 163/163/163 180/180/180
f 162/162/162 180/180/180 179/179/179
f 163/163/163 164/164/164 181/181/181
f 163/163/163 181/181/181 180/180/180
f 164/164/164 165/165/165 182/182/182
f 164/164/164 182/182/182 181/181/181
f 165/165/165 166/166/166 183/183/183
f 165/165/165 183/183/183 182/182/182
f 166/166/166 167/167/167 184/184/184
f 166/166/166 184/184/184 183/183/183
f 167/167/167 168/168/168 185/185/185
f 167/167/167 185/185/185 184/184/184
f 168/168/168 169/169/169 186/186/186
f 168/168/168 186/186/186 185/185/185
f 169/169/169 170/170/170 187/187/187
f 169/169/169 187/187/187 186/186/186
f 171/172/172 172/171/171 189/188/188
f 171/172/172 189/188/188 188/189/189
f 172/171/171 173/173/173 190/190/190
f 172/171/171 190/190/190 189/188/188
f 173/173/173 174/174/174 191/191/191
f 173/173/173 191/191/191 190/190/190
f 174/174/174 175/175/175 192/192/192
f 174/174/174 192/192/192 191/191/191
f 175/175/175 176/176/176 193/193/193
f 175/175/175 193/193/193 192/192/192
f 176/176/176 177/177/177 194/194/194
f 176/176/176 194/194/194 193/193/193
f 177/177/177 178/178/178 195/195/195
f 177/177/177 195/195/195 194/194/194
f 178/178/178 179/179/179 196/196/196
f 178/178/178 196/196/196 195/195/195
f 179/179/179 180/180/180 197/197/197
f 179/179/179 197/197/197 196/196/196
f 180/180/180 181/181/181 198/198/198
f 180/180/180 198/198/198 197/197/197
f 181/181/181 182/182/182 199/199/199
f 181/181/181 199/199/199 198/198/198
f 182/182/182 183/183/183 200/200/200
f 182/182/182 200/200/200 199/199/199
f 183/183/183 184/184/184 201/201/201
f 183/183/183 201/201/201 200/200/200
f 184/184/184 185/185/185 202/202/202
f 184/184/184 202/202/202 201/201/201
f 185/185/185 186/186/186 203/203/203
f 185/185/185 203/203/203 202/202/202
f 186/186/186 187/187/187 204/204/204
f 186/186/186 204/204/204 203/203/203
f 188/189/189 189/188/188 206/205/205
f 188/189/189 206/205/205 205/206/206
f 189/188/188 190/190/190 207/207/207
f 189/188/188 207/207/207 206/205/205
f 190/190/190 191/191/191 208/208/208
f 190/190/190 208/208/208 207/207/207
f 191/191/191 192/192/192 209/209/209
f 191/191/191 209/209/209 208/208/208
f 192/192/192 193/193/193 210/210/210
f 192/192/192 210/210/210 209/209/209
f 193/193/193 194/194/194 211/211/211
f 193/193/193 211/211/211 210/210/210
f 194/194/194 195/195/195 212/212/212
f 194/194/194 212/212/212 211/211/211
f 195/195/195 196/196/196 213/213/213
f 195/195/195 213/213/213 212/212/212
f 196/196/196 197/197/197 214/214/214
f 196/196/196 214/214/214 213/213/213
f 197/197/197 198/198/198 215/215/215
f 197/197/197 215/215/215 214/214/214
f 198/198/198 199/199/199 216/216/216
f 198/198/198 216/216/216 215/215/215
f 199/199/199 200/200/200 217/217/217
f 199/199/199 217/217/217 216/216/216
f 200/200/200 201/201/201 218/218/218
f 200/200/200 218/218/218 217/217/217
f 201/201/201 202/202/202 219/219/219
f 201/201/201 219/219/219 218/218/218
f 202/202/202 203/203/203 220/220/220
f 202/202/202 220/220/220 219/219/219
f 203/203/203 204/204/204 221/221/221
f 203/203/203 221/221/221 220/220/220
f 205/206/206 206/205/205 223/222/222
f 205/206/206 223/222/222 222/223/223
f 206/205/205 207/207/207 224/224/224
f 206/205/205 224/224/224 223/222/222
f 207/207/207 208/208/208 225/225/225
f 207/207/207 225/225/225 224/224/224
f 208/208/208 209/209/209 226/226/226
f 208/208/208 226/226/226 225/225/225
f 209/209/209 210/210/210 227/227/227
f 209/209/209 227/227/227 226/226/226
f 210/210/210 211/211/211 228/228/228
f 210/210/210 228/228/228 227/227/227
f 211/211/211 212/212/212 229/229/229
f 211/211/211 229/229/229 228/228/228
f 212/212/212 213/213/213 230/230/230
f 212/212/212 230/230/230 229/229/229
f 213/213/213 214/214/214 231/231/231
f 213/213/213 231/231/231 230/230/230
f 214/214/214 215/215/215 232/232/232
f 214/214/214 232/232/232 231/231/231
f 215/215/215 216/216/216 233/233/233
f 215/215/215 233/233/233 232/232/232
f 216/216/216 217/217/217 234/234/234
f 216/216/216 234/234/234 233/233/233
f 217/217/217 218/218/218 235/235/235
f 217/217/217 235/235/235 234/234/234
f 218/218/218 219/219/219 236/236/236
f 218/218/218 236/236/236 235/235/235
f 219/219/219 220/220/220 237/237/237
f 219/219/219 237/237/237 236/236/236
f 220/220/220 221/221/221 238/238/238
f 220/220/220 238/238/238 237/237/237
f 222/223/223 223/222/222 240/239/239
f 222/223/223 240/239/239 239/240/240
f 223/222/222 224/224/224 241/241/241
f 223/222/222 241/241/241 240/239/239
f 224/224/224 225/225/225 242/242/242
f 224/224/224 242/242/242 241/241/241
f 225/225/225 226/226/226 243/243/243
f 225/225/225 243/243/243 242/242/242
f 226/226/226 227/227/227 244/244/244
f 226/226/226 244/244/244 243/243/243
f 227/227/227 228/228/228 245/245/245
f 227/227/227 245/245/245 244/244/244
f 228/228/228 229/229/229 246/246/246
f 228/228/228 246/246/246 245/245/245
f 229/229/229 230/230/230 247/247/247
f 229/229/229 247/247/247 246/246/246
f 230/230/230 231/231/231 248/248/248
f 230/230/230 248/248/248 247/247/247
f 231/231/231 232/232/232 249/249/249
f 231/231/231 249/249/249 248/248/248
f 232/232/232 233/233/233 250/250/250
f 232/232/232 250/250/250 249/249/249
f 233/233/233 234/234/234 251/251/251
f 233/233/233 251/251/251 250/250/250
f 234/234/234 235/235/235 252/252/252
f 234/234/234 252/252/252 251/251/251
f 235/235/235 236/236/236 253/253/253
f 235/235/235 253/253/253 252/252/252
f 236/236/236 237/237/237 254/254/254
f 236/236/236 254/254/254 253/253/253
f 237/237/237 238/238/238 255/255/255
f 237/237/237 255/255/255 254/254/254
f 239/240/240 240/239/239 257/256/256
f 239/240/240 257/256/256 256/257/257
f 240/239/239 241/241/241 258/258/258
f 240/239/239 258/258/258 257/256/256
f 241/241/241 242/242/242 259/259/259
f 241/241/241 259/259/259 258/258/258
f 242/242/242 243/243/243 260/260/260
f 242/242/242 260/260/260 259/259/259
f 243/243/243 244/244/244 261/261/261
f 243/243/243 261/261/261 260/260/260
f 244/244/244 245/245/245 262/262/262
f 244/244/244 262/262/262 261/261/261
f 245/245/245 246/246/246 263/263/263
f 245/245/245 263/263/263 262/262/262
f 246/246/246 247/247/247 264/264/264
f 246/246/246 264/264/264 263/263/263
f 247/247/247 248/248/248 265/265/265
f 247/247/247 265/265/265 264/264/264
f 248/248/248 249/249/249 266/266/266
f 248/248/248 266/266/266 265/265/265
f 249/249/249 250/250/250 267/267/267
f 249/249/249 267/267/267 266/266/266
f 250/250/250 251/251/251 268/268/268
f 250/250/250 268/268/268 267/267/267
f 251/251/251 252/252/252 269/269/269
f 251/251/251 269/269/269 268/268/268
f 252/252/252 253/253/253 270/270/270
f 252/252/252 270/270/270 269/269/269
f 253/253/253 254/254/254 271/271/271
f 253/253/253 271/271/271 270/270/270
f 254/254/254 255/255/255 272/272/272
f 254/254/254 272/272/272 271/271/271
f 256/257/257 257/256/256 274/273/273
f 256/257/257 274/273/273 273/274/274
f 257/256/256 258/258/258 275/275/275
f 257/256/256 275/275/275 274/273/273
f 258/258/258 259/259/259 276/276/276
f 258/258/258 276/276/276 275/275/275
f 259/259/259 260/260/260 277/277/277
f 259/259/259 277/277/277 276/276/276
f 260/260/260 261/261/261 278/278/278
f 260/260/260 278/278/278 277/277/277
f 261/261/261 262/262/262 279/279/279
f 261/261/261 279/279/279 278/278/278
f 262/262/262 263/263/263 280/280/280
f 262/262/262 280/280/280 279/279/279
f 263/263/263 264/264/264 281/281/281
f 263/263/263 281/281/281 280/280/280
f 264/264/264 265/265/265 282/282/282
f 264/264/264 282/282/282 281/281/281
f 265/265/265 266/266/266 283/283/283
f 265/265/265 283/283/283 282/282/282
f 266/266/266 267/267/267 284/284/284
f 266/266/266 284/284/284 283/283/283
f 267/267/267 268/268/268 285/285/285
f 267/267/267 285/285/285 284/284/284
f 268/268/268 269/269/269 286/286/286
f 268/268/268 286/286/286 285/285/285
f 269/269/269 270/270/270 287/287/287
f 269/269/269 287/287/287 286/286/286
f 270/270/270 271/271/271 288/288/288
f 270/270/270 288/288/288 287/287/287
f 271/271/271 272/272/272 289/289/289
f 271/271/271 289/289/289 288/288/288
