mtllib terrain_mid_07_07.mtl
usemtl terrain_mid_07_07
# Blender 5.1.1
# www.blender.org
o terrain_mid_07_07
v -160.000000 -160.000000 -18.576750
v -140.000000 -160.000000 -17.932016
v -120.000000 -160.000000 -18.913841
v -100.000000 -160.000000 -20.697886
v -80.000000 -160.000000 -23.658903
v -60.000000 -160.000000 -27.975615
v -40.000000 -160.000000 -31.504391
v -20.000000 -160.000000 -35.872528
v 0.000000 -160.000000 -40.503311
v 20.000000 -160.000000 -44.362125
v 40.000000 -160.000000 -48.170322
v 60.000000 -160.000000 -52.200218
v 80.000000 -160.000000 -53.125401
v 100.000000 -160.000000 -48.589329
v 120.000000 -160.000000 -41.995708
v 140.000000 -160.000000 -34.384151
v 160.000000 -160.000000 -27.735598
v -160.000000 -140.000000 -12.977447
v -140.000000 -140.000000 -11.201995
v -120.000000 -140.000000 -11.470474
v -100.000000 -140.000000 -13.436810
v -80.000000 -140.000000 -16.439041
v -60.000000 -140.000000 -20.058325
v -40.000000 -140.000000 -22.818762
v -20.000000 -140.000000 -27.216711
v 0.000000 -140.000000 -32.389435
v 20.000000 -140.000000 -37.200935
v 40.000000 -140.000000 -42.252411
v 60.000000 -140.000000 -47.958492
v 80.000000 -140.000000 -51.819839
v 100.000000 -140.000000 -49.950768
v 120.000000 -140.000000 -45.031429
v 140.000000 -140.000000 -38.218330
v 160.000000 -140.000000 -32.971745
v -160.000000 -120.000000 -4.576045
v -140.000000 -120.000000 -3.084481
v -120.000000 -120.000000 -3.935732
v -100.000000 -120.000000 -6.705290
v -80.000000 -120.000000 -9.687489
v -60.000000 -120.000000 -11.844111
v -40.000000 -120.000000 -14.885018
v -20.000000 -120.000000 -20.105688
v 0.000000 -120.000000 -25.748795
v 20.000000 -120.000000 -30.929180
v 40.000000 -120.000000 -36.195084
v 60.000000 -120.000000 -41.901127
v 80.000000 -120.000000 -46.658409
v 100.000000 -120.000000 -48.410320
v 120.000000 -120.000000 -47.855686
v 140.000000 -120.000000 -43.765110
v 160.000000 -120.000000 -38.362400
v -160.000000 -100.000000 4.320202
v -140.000000 -100.000000 5.500825
v -120.000000 -100.000000 3.903861
v -100.000000 -100.000000 0.240422
v -80.000000 -100.000000 -3.146853
v -60.000000 -100.000000 -5.378474
v -40.000000 -100.000000 -9.537037
v -20.000000 -100.000000 -15.876128
v 0.000000 -100.000000 -22.134287
v 20.000000 -100.000000 -27.031225
v 40.000000 -100.000000 -31.196482
v 60.000000 -100.000000 -35.670784
v 80.000000 -100.000000 -40.578636
v 100.000000 -100.000000 -44.562164
v 120.000000 -100.000000 -46.980022
v 140.000000 -100.000000 -46.535259
v 160.000000 -100.000000 -41.610313
v -160.000000 -80.000000 12.849878
v -140.000000 -80.000000 14.151291
v -120.000000 -80.000000 11.917132
v -100.000000 -80.000000 7.345993
v -80.000000 -80.000000 3.045876
v -60.000000 -80.000000 -0.880068
v -40.000000 -80.000000 -6.627884
v -20.000000 -80.000000 -13.970156
v 0.000000 -80.000000 -20.813723
v 20.000000 -80.000000 -24.755407
v 40.000000 -80.000000 -26.858868
v 60.000000 -80.000000 -29.810040
v 80.000000 -80.000000 -34.560501
v 100.000000 -80.000000 -39.065575
v 120.000000 -80.000000 -43.191414
v 140.000000 -80.000000 -46.089073
v 160.000000 -80.000000 -44.143978
v -160.000000 -60.000000 19.426138
v -140.000000 -60.000000 20.865700
v -120.000000 -60.000000 18.512388
v -100.000000 -60.000000 13.519244
v -80.000000 -60.000000 8.101357
v -60.000000 -60.000000 1.842690
v -40.000000 -60.000000 -5.287620
v -20.000000 -60.000000 -11.993804
v 0.000000 -60.000000 -16.620377
v 20.000000 -60.000000 -19.235733
v 40.000000 -60.000000 -21.691347
v 60.000000 -60.000000 -26.008512
v 80.000000 -60.000000 -29.702503
v 100.000000 -60.000000 -33.146770
v 120.000000 -60.000000 -37.646183
v 140.000000 -60.000000 -43.294956
v 160.000000 -60.000000 -44.636749
v -160.000000 -40.000000 24.126917
v -140.000000 -40.000000 26.063190
v -120.000000 -40.000000 23.937891
v -100.000000 -40.000000 18.373072
v -80.000000 -40.000000 11.621410
v -60.000000 -40.000000 4.527498
v -40.000000 -40.000000 -2.017045
v -20.000000 -40.000000 -7.456755
v 0.000000 -40.000000 -10.894798
v 20.000000 -40.000000 -13.393279
v 40.000000 -40.000000 -17.231949
v 60.000000 -40.000000 -22.266460
v 80.000000 -40.000000 -24.759428
v 100.000000 -40.000000 -27.962683
v 120.000000 -40.000000 -33.731373
v 140.000000 -40.000000 -41.178802
v 160.000000 -40.000000 -44.449226
v -160.000000 -20.000000 27.128477
v -140.000000 -20.000000 29.920706
v -120.000000 -20.000000 28.198240
v -100.000000 -20.000000 21.866596
v -80.000000 -20.000000 14.069266
v -60.000000 -20.000000 7.655970
v -40.000000 -20.000000 3.309209
v -20.000000 -20.000000 -0.356298
v 0.000000 -20.000000 -3.876141
v 20.000000 -20.000000 -8.206383
v 40.000000 -20.000000 -13.619454
v 60.000000 -20.000000 -18.128685
v 80.000000 -20.000000 -19.750315
v 100.000000 -20.000000 -23.637114
v 120.000000 -20.000000 -31.100948
v 140.000000 -20.000000 -40.050762
v 160.000000 -20.000000 -43.478325
v -160.000000 0.000000 29.763216
v -140.000000 0.000000 32.810307
v -120.000000 0.000000 31.440632
v -100.000000 0.000000 25.713308
v -80.000000 0.000000 18.825363
v -60.000000 0.000000 13.323979
v -40.000000 0.000000 9.498906
v -20.000000 0.000000 5.468884
v 0.000000 0.000000 0.354646
v 20.000000 0.000000 -5.207257
v 40.000000 0.000000 -10.221797
v 60.000000 0.000000 -13.164071
v 80.000000 0.000000 -15.893578
v 100.000000 0.000000 -21.521297
v 120.000000 0.000000 -29.475683
v 140.000000 0.000000 -37.983868
v 160.000000 0.000000 -42.246296
v -160.000000 20.000000 32.814579
v -140.000000 20.000000 35.788300
v -120.000000 20.000000 34.883514
v -100.000000 20.000000 30.463221
v -80.000000 20.000000 25.049044
v -60.000000 20.000000 19.818893
v -40.000000 20.000000 14.983837
v -20.000000 20.000000 9.509594
v 0.000000 20.000000 3.553451
v 20.000000 20.000000 -1.759415
v 40.000000 20.000000 -5.490399
v 60.000000 20.000000 -8.569013
v 80.000000 20.000000 -13.060183
v 100.000000 20.000000 -19.543955
v 120.000000 20.000000 -26.660015
v 140.000000 20.000000 -34.203499
v 160.000000 20.000000 -38.781879
v -160.000000 40.000000 36.608330
v -140.000000 40.000000 39.375385
v -120.000000 40.000000 39.267155
v -100.000000 40.000000 36.423237
v -80.000000 40.000000 32.109188
v -60.000000 40.000000 26.341389
v -40.000000 40.000000 19.424606
v -20.000000 40.000000 12.185144
v 0.000000 40.000000 6.406085
v 20.000000 40.000000 3.133624
v 40.000000 40.000000 0.516898
v 60.000000 40.000000 -4.437150
v 80.000000 40.000000 -10.946746
v 100.000000 40.000000 -17.328690
v 120.000000 40.000000 -22.800119
v 140.000000 40.000000 -28.777197
v 160.000000 40.000000 -34.573330
v -160.000000 60.000000 39.866631
v -140.000000 60.000000 43.192776
v -120.000000 60.000000 44.011635
v -100.000000 60.000000 42.204803
v -80.000000 60.000000 38.008617
v -60.000000 60.000000 31.452030
v -40.000000 60.000000 23.467758
v -20.000000 60.000000 16.499401
v 0.000000 60.000000 11.689465
v 20.000000 60.000000 8.178268
v 40.000000 60.000000 4.209559
v 60.000000 60.000000 -1.923077
v 80.000000 60.000000 -8.555801
v 100.000000 60.000000 -13.549183
v 120.000000 60.000000 -18.071196
v 140.000000 60.000000 -23.534290
v 160.000000 60.000000 -29.198456
v -160.000000 80.000000 42.755287
v -140.000000 80.000000 46.870998
v -120.000000 80.000000 48.630295
v -100.000000 80.000000 47.371681
v -80.000000 80.000000 42.931400
v -60.000000 80.000000 35.975735
v -40.000000 80.000000 28.254026
v -20.000000 80.000000 21.938631
v 0.000000 80.000000 16.914997
v 20.000000 80.000000 12.188970
v 40.000000 80.000000 6.512056
v 60.000000 80.000000 0.203367
v 80.000000 80.000000 -5.459760
v 100.000000 80.000000 -9.164010
v 120.000000 80.000000 -13.107247
v 140.000000 80.000000 -18.356129
v 160.000000 80.000000 -23.434805
v -160.000000 100.000000 45.684807
v -140.000000 100.000000 50.518234
v -120.000000 100.000000 52.761501
v -100.000000 100.000000 51.621899
v -80.000000 100.000000 46.999115
v -60.000000 100.000000 40.647404
v -40.000000 100.000000 34.400234
v -20.000000 100.000000 27.855236
v 0.000000 100.000000 21.134960
v 20.000000 100.000000 14.517616
v 40.000000 100.000000 8.059290
v 60.000000 100.000000 2.637653
v 80.000000 100.000000 -1.213327
v 100.000000 100.000000 -4.075571
v 120.000000 100.000000 -8.069610
v 140.000000 100.000000 -13.084719
v 160.000000 100.000000 -17.161209
v -160.000000 120.000000 47.402218
v -140.000000 120.000000 53.108486
v -120.000000 120.000000 56.043983
v -100.000000 120.000000 55.303493
v -80.000000 120.000000 51.372372
v -60.000000 120.000000 45.866177
v -40.000000 120.000000 40.066250
v -20.000000 120.000000 33.550541
v 0.000000 120.000000 26.353012
v 20.000000 120.000000 18.948641
v 40.000000 120.000000 12.478425
v 60.000000 120.000000 7.743223
v 80.000000 120.000000 4.225950
v 100.000000 120.000000 0.821233
v 120.000000 120.000000 -2.780052
v 140.000000 120.000000 -6.626325
v 160.000000 120.000000 -10.717633
v -160.000000 140.000000 48.674042
v -140.000000 140.000000 55.011593
v -120.000000 140.000000 58.651955
v -100.000000 140.000000 58.769623
v -80.000000 140.000000 56.170307
v -60.000000 140.000000 51.308807
v -40.000000 140.000000 45.335991
v -20.000000 140.000000 38.850163
v 0.000000 140.000000 31.941221
v 20.000000 140.000000 25.162954
v 40.000000 140.000000 19.005945
v 60.000000 140.000000 14.306360
v 80.000000 140.000000 10.014694
v 100.000000 140.000000 6.196524
v 120.000000 140.000000 3.531051
v 140.000000 140.000000 0.808280
v 160.000000 140.000000 -3.907398
v -160.000000 160.000000 51.469196
v -140.000000 160.000000 55.971119
v -120.000000 160.000000 60.473042
v -100.000000 160.000000 60.450710
v -80.000000 160.000000 60.428375
v -60.000000 160.000000 55.322094
v -40.000000 160.000000 50.215813
v -20.000000 160.000000 43.883915
v 0.000000 160.000000 37.552021
v 20.000000 160.000000 32.201557
v 40.000000 160.000000 26.851093
v 60.000000 160.000000 21.445860
v 80.000000 160.000000 16.040627
v 100.000000 160.000000 13.562721
v 120.000000 160.000000 11.084816
v 140.000000 160.000000 7.066970
v 160.000000 160.000000 3.305452
vn -0.1102 -0.2726 0.9558
vn 0.0080 -0.3091 0.9510
vn -0.0353 -0.3478 0.9369
vn -0.1320 -0.3275 0.9356
vn 0.0651 -0.3314 0.9413
vn 0.0522 -0.3502 0.9352
vn 0.1112 -0.3288 0.9378
vn 0.1164 -0.3280 0.9375
vn 0.1694 -0.3232 0.9310
vn 0.1544 -0.3258 0.9327
vn 0.1805 -0.3465 0.9205
vn 0.1463 -0.3700 0.9174
vn 0.1784 -0.3895 0.9036
vn 0.1631 -0.3786 0.9111
vn 0.2016 -0.3958 0.8959
vn 0.2173 -0.3579 0.9081
vn 0.1925 -0.3750 0.9068
vn 0.2280 -0.3370 0.9135
vn 0.1779 -0.3268 0.9282
vn 0.2276 -0.3100 0.9231
vn 0.1854 -0.2649 0.9463
vn 0.2495 -0.2777 0.9277
vn 0.1213 -0.1639 0.9790
vn 0.2257 -0.2429 0.9434
vn -0.0899 -0.0014 0.9960
vn 0.0491 -0.1594 0.9860
vn -0.2667 0.1018 0.9584
vn -0.1673 -0.0044 0.9859
vn -0.3306 0.1551 0.9309
vn -0.2787 0.1392 0.9502
vn -0.3403 0.1752 0.9238
vn -0.2996 0.2178 0.9289
vn -0.2611 0.2126 0.9416
vn -0.2142 0.2676 0.9394
vn -0.0148 -0.3853 0.9227
vn -0.1020 -0.3948 0.9131
vn 0.0842 -0.3575 0.9301
vn 0.1348 -0.3206 0.9376
vn 0.1211 -0.3129 0.9420
vn 0.1210 -0.3419 0.9319
vn 0.1924 -0.3092 0.9313
vn 0.2528 -0.2639 0.9308
vn 0.2535 -0.2402 0.9370
vn 0.2454 -0.2389 0.9395
vn 0.2556 -0.2576 0.9318
vn 0.2426 -0.2849 0.9274
vn 0.1548 -0.2673 0.9511
vn 0.0296 -0.1335 0.9906
vn -0.1152 0.0483 0.9922
vn -0.2197 0.1986 0.9551
vn -0.2258 0.2623 0.9382
vn 0.0096 -0.3957 0.9183
vn -0.0837 -0.3980 0.9136
vn 0.1214 -0.3657 0.9228
vn 0.1642 -0.3268 0.9307
vn 0.1327 -0.3007 0.9444
vn 0.1523 -0.2613 0.9532
vn 0.2489 -0.1958 0.9485
vn 0.2972 -0.1448 0.9438
vn 0.2667 -0.1180 0.9565
vn 0.2185 -0.1488 0.9644
vn 0.2058 -0.2224 0.9530
vn 0.2190 -0.2823 0.9340
vn 0.2081 -0.2832 0.9362
vn 0.1540 -0.2248 0.9622
vn 0.0489 -0.1157 0.9921
vn -0.0913 0.0578 0.9941
vn -0.2227 0.1767 0.9587
vn 0.0218 -0.3584 0.9333
vn -0.0951 -0.3517 0.9313
vn 0.1578 -0.3388 0.9275
vn 0.2060 -0.3083 0.9287
vn 0.1942 -0.2656 0.9443
vn 0.2315 -0.1729 0.9574
vn 0.3094 -0.1005 0.9456
vn 0.3329 -0.0911 0.9386
vn 0.2581 -0.1319 0.9571
vn 0.1467 -0.1892 0.9709
vn 0.1219 -0.2293 0.9657
vn 0.1840 -0.2308 0.9555
vn 0.2179 -0.2561 0.9418
vn 0.2031 -0.2687 0.9416
vn 0.1686 -0.2240 0.9599
vn 0.0705 -0.0805 0.9943
vn -0.1713 0.0646 0.9831
vn 0.0217 -0.2853 0.9582
vn -0.1244 -0.2692 0.9550
vn 0.1732 -0.2834 0.9432
vn 0.2434 -0.2578 0.9350
vn 0.2745 -0.2016 0.9402
vn 0.3148 -0.1272 0.9406
vn 0.3250 -0.1083 0.9395
vn 0.2693 -0.1548 0.9505
vn 0.1731 -0.2371 0.9560
vn 0.1210 -0.2712 0.9549
vn 0.1624 -0.2309 0.9593
vn 0.1931 -0.1818 0.9642
vn 0.1708 -0.2345 0.9570
vn 0.1879 -0.2627 0.9464
vn 0.2397 -0.2234 0.9448
vn 0.2014 -0.1193 0.9722
vn -0.0637 -0.0076 0.9979
vn 0.0046 -0.2207 0.9753
vn -0.1601 -0.1866 0.9693
vn 0.1837 -0.2313 0.9554
vn 0.2886 -0.1956 0.9373
vn 0.3239 -0.1396 0.9357
vn 0.3197 -0.1363 0.9377
vn 0.2811 -0.2017 0.9383
vn 0.2084 -0.2732 0.9391
vn 0.1400 -0.3006 0.9434
vn 0.1511 -0.2629 0.9529
vn 0.2125 -0.1933 0.9579
vn 0.1816 -0.1901 0.9648
vn 0.1369 -0.2392 0.9613
vn 0.2132 -0.2260 0.9505
vn 0.3100 -0.1535 0.9383
vn 0.2863 -0.0775 0.9550
vn 0.0138 -0.0134 0.9998
vn -0.0264 -0.1663 0.9857
vn -0.1956 -0.1368 0.9711
vn 0.1941 -0.1808 0.9642
vn 0.3282 -0.1705 0.9291
vn 0.3301 -0.1673 0.9290
vn 0.2541 -0.2077 0.9446
vn 0.1890 -0.2717 0.9436
vn 0.1685 -0.3031 0.9380
vn 0.1856 -0.2660 0.9459
vn 0.2321 -0.1950 0.9529
vn 0.2374 -0.1677 0.9568
vn 0.1478 -0.2194 0.9644
vn 0.1331 -0.2143 0.9676
vn 0.2698 -0.1531 0.9507
vn 0.3778 -0.0979 0.9207
vn 0.3356 -0.0750 0.9390
vn 0.0562 -0.0483 0.9973
vn -0.0415 -0.1450 0.9886
vn -0.2003 -0.1379 0.9700
vn 0.1724 -0.1624 0.9716
vn 0.2946 -0.2008 0.9343
vn 0.2862 -0.2536 0.9240
vn 0.2177 -0.2839 0.9338
vn 0.1854 -0.2754 0.9433
vn 0.2167 -0.2338 0.9478
vn 0.2538 -0.1766 0.9510
vn 0.2526 -0.1540 0.9552
vn 0.1913 -0.1955 0.9619
vn 0.1366 -0.2302 0.9635
vn 0.2018 -0.1616 0.9660
vn 0.3200 -0.0965 0.9425
vn 0.3786 -0.1021 0.9199
vn 0.3337 -0.1364 0.9328
vn 0.1140 -0.1235 0.9858
vn -0.0510 -0.1617 0.9855
vn -0.1943 -0.1655 0.9669
vn 0.1295 -0.1904 0.9731
vn 0.2311 -0.2516 0.9398
vn 0.2449 -0.3056 0.9201
vn 0.2328 -0.3010 0.9248
vn 0.2427 -0.2336 0.9416
vn 0.2712 -0.1594 0.9492
vn 0.2683 -0.1441 0.9525
vn 0.2161 -0.1993 0.9558
vn 0.1623 -0.2558 0.9530
vn 0.1819 -0.2097 0.9607
vn 0.2627 -0.1184 0.9576
vn 0.3203 -0.0987 0.9421
vn 0.3399 -0.1548 0.9276
vn 0.3172 -0.2127 0.9242
vn 0.1872 -0.2029 0.9612
vn -0.0652 -0.1816 0.9812
vn -0.1951 -0.1703 0.9659
vn 0.0717 -0.2219 0.9724
vn 0.1692 -0.2776 0.9457
vn 0.2332 -0.2997 0.9251
vn 0.2913 -0.2671 0.9186
vn 0.3271 -0.1961 0.9244
vn 0.3053 -0.1639 0.9380
vn 0.2165 -0.1946 0.9567
vn 0.1412 -0.2384 0.9608
vn 0.1809 -0.2318 0.9558
vn 0.2721 -0.1577 0.9493
vn 0.3050 -0.1066 0.9464
vn 0.2812 -0.1422 0.9490
vn 0.2695 -0.2021 0.9415
vn 0.2900 -0.2467 0.9247
vn 0.2481 -0.2524 0.9353
vn -0.1013 -0.1832 0.9778
vn -0.2181 -0.1482 0.9646
vn 0.0241 -0.2278 0.9734
vn 0.1433 -0.2613 0.9546
vn 0.2512 -0.2528 0.9344
vn 0.3332 -0.2208 0.9166
vn 0.3429 -0.2025 0.9173
vn 0.2750 -0.2278 0.9341
vn 0.1973 -0.2491 0.9482
vn 0.1795 -0.2173 0.9594
vn 0.2423 -0.1438 0.9595
vn 0.3022 -0.1099 0.9469
vn 0.2767 -0.1306 0.9520
vn 0.2270 -0.1948 0.9542
vn 0.2358 -0.2289 0.9445
vn 0.2685 -0.2429 0.9322
vn 0.2419 -0.2728 0.9312
vn -0.1430 -0.1783 0.9735
vn -0.2466 -0.1395 0.9590
vn -0.0122 -0.2136 0.9768
vn 0.1374 -0.2270 0.9642
vn 0.2678 -0.2113 0.9400
vn 0.3367 -0.2110 0.9177
vn 0.3206 -0.2497 0.9137
vn 0.2631 -0.2635 0.9281
vn 0.2309 -0.2237 0.9469
vn 0.2488 -0.1516 0.9566
vn 0.2858 -0.0918 0.9539
vn 0.2850 -0.1086 0.9523
vn 0.2245 -0.1759 0.9585
vn 0.1828 -0.2265 0.9567
vn 0.2176 -0.2368 0.9469
vn 0.2465 -0.2450 0.9377
vn 0.2215 -0.2829 0.9332
vn -0.1723 -0.1518 0.9733
vn -0.2749 -0.1110 0.9550
vn -0.0271 -0.1822 0.9829
vn 0.1399 -0.1926 0.9713
vn 0.2592 -0.1994 0.9450
vn 0.2924 -0.2295 0.9283
vn 0.2932 -0.2707 0.9169
vn 0.3035 -0.2657 0.9151
vn 0.3087 -0.2184 0.9257
vn 0.3068 -0.1586 0.9385
vn 0.2818 -0.1415 0.9490
vn 0.2221 -0.1806 0.9581
vn 0.1610 -0.2323 0.9592
vn 0.1641 -0.2389 0.9571
vn 0.2131 -0.2442 0.9460
vn 0.2199 -0.2745 0.9361
vn 0.1976 -0.3001 0.9332
vn -0.2099 -0.1092 0.9716
vn -0.2900 -0.0713 0.9544
vn -0.0543 -0.1455 0.9879
vn 0.1142 -0.1747 0.9780
vn 0.2241 -0.2178 0.9499
vn 0.2634 -0.2484 0.9322
vn 0.2847 -0.2528 0.9247
vn 0.3138 -0.2517 0.9155
vn 0.3324 -0.2460 0.9105
vn 0.3178 -0.2439 0.9163
vn 0.2608 -0.2548 0.9311
vn 0.1943 -0.2747 0.9417
vn 0.1644 -0.2666 0.9497
vn 0.1673 -0.2452 0.9549
vn 0.1760 -0.2742 0.9454
vn 0.1852 -0.3224 0.9283
vn 0.2065 -0.3167 0.9258
vn -0.2411 -0.0858 0.9667
vn -0.2843 -0.0933 0.9542
vn -0.0929 -0.1162 0.9889
vn 0.0610 -0.1741 0.9828
vn 0.1785 -0.2297 0.9568
vn 0.2532 -0.2489 0.9348
vn 0.2886 -0.2415 0.9265
vn 0.3090 -0.2310 0.9226
vn 0.3134 -0.2511 0.9158
vn 0.2931 -0.3034 0.9067
vn 0.2472 -0.3306 0.9108
vn 0.2085 -0.3102 0.9275
vn 0.1912 -0.2716 0.9432
vn 0.1535 -0.2826 0.9469
vn 0.1261 -0.3279 0.9363
vn 0.1682 -0.3537 0.9201
vn 0.2439 -0.3217 0.9149
vn -0.2280 -0.1107 0.9673
vn -0.2207 -0.1749 0.9595
vn -0.1410 -0.1075 0.9842
vn -0.0058 -0.1639 0.9865
vn 0.1422 -0.2049 0.9684
vn 0.2485 -0.1978 0.9482
vn 0.3025 -0.1880 0.9344
vn 0.3062 -0.2052 0.9296
vn 0.2606 -0.2649 0.9284
vn 0.2356 -0.3330 0.9130
vn 0.2530 -0.3495 0.9021
vn 0.2575 -0.3095 0.9154
vn 0.1961 -0.2841 0.9385
vn 0.1063 -0.3200 0.9415
vn 0.0932 -0.3565 0.9296
vn 0.1822 -0.3471 0.9200
vn 0.2890 -0.3145 0.9042
vt 0.015625 0.015625
vt 0.076172 0.015625
vt 0.076172 0.076172
vt 0.015625 0.076172
vt 0.136719 0.015625
vt 0.136719 0.076172
vt 0.197266 0.015625
vt 0.197266 0.076172
vt 0.257812 0.015625
vt 0.257812 0.076172
vt 0.318359 0.015625
vt 0.318359 0.076172
vt 0.378906 0.015625
vt 0.378906 0.076172
vt 0.439453 0.015625
vt 0.439453 0.076172
vt 0.500000 0.015625
vt 0.500000 0.076172
vt 0.560547 0.015625
vt 0.560547 0.076172
vt 0.621094 0.015625
vt 0.621094 0.076172
vt 0.681641 0.015625
vt 0.681641 0.076172
vt 0.742188 0.015625
vt 0.742188 0.076172
vt 0.802734 0.015625
vt 0.802734 0.076172
vt 0.863281 0.015625
vt 0.863281 0.076172
vt 0.923828 0.015625
vt 0.923828 0.076172
vt 0.984375 0.015625
vt 0.984375 0.076172
vt 0.076172 0.136719
vt 0.015625 0.136719
vt 0.136719 0.136719
vt 0.197266 0.136719
vt 0.257812 0.136719
vt 0.318359 0.136719
vt 0.378906 0.136719
vt 0.439453 0.136719
vt 0.500000 0.136719
vt 0.560547 0.136719
vt 0.621094 0.136719
vt 0.681641 0.136719
vt 0.742188 0.136719
vt 0.802734 0.136719
vt 0.863281 0.136719
vt 0.923828 0.136719
vt 0.984375 0.136719
vt 0.076172 0.197266
vt 0.015625 0.197266
vt 0.136719 0.197266
vt 0.197266 0.197266
vt 0.257812 0.197266
vt 0.318359 0.197266
vt 0.378906 0.197266
vt 0.439453 0.197266
vt 0.500000 0.197266
vt 0.560547 0.197266
vt 0.621094 0.197266
vt 0.681641 0.197266
vt 0.742188 0.197266
vt 0.802734 0.197266
vt 0.863281 0.197266
vt 0.923828 0.197266
vt 0.984375 0.197266
vt 0.076172 0.257812
vt 0.015625 0.257812
vt 0.136719 0.257812
vt 0.197266 0.257812
vt 0.257812 0.257812
vt 0.318359 0.257812
vt 0.378906 0.257812
vt 0.439453 0.257812
vt 0.500000 0.257812
vt 0.560547 0.257812
vt 0.621094 0.257812
vt 0.681641 0.257812
vt 0.742188 0.257812
vt 0.802734 0.257812
vt 0.863281 0.257812
vt 0.923828 0.257812
vt 0.984375 0.257812
vt 0.076172 0.318359
vt 0.015625 0.318359
vt 0.136719 0.318359
vt 0.197266 0.318359
vt 0.257812 0.318359
vt 0.318359 0.318359
vt 0.378906 0.318359
vt 0.439453 0.318359
vt 0.500000 0.318359
vt 0.560547 0.318359
vt 0.621094 0.318359
vt 0.681641 0.318359
vt 0.742188 0.318359
vt 0.802734 0.318359
vt 0.863281 0.318359
vt 0.923828 0.318359
vt 0.984375 0.318359
vt 0.076172 0.378906
vt 0.015625 0.378906
vt 0.136719 0.378906
vt 0.197266 0.378906
vt 0.257812 0.378906
vt 0.318359 0.378906
vt 0.378906 0.378906
vt 0.439453 0.378906
vt 0.500000 0.378906
vt 0.560547 0.378906
vt 0.621094 0.378906
vt 0.681641 0.378906
vt 0.742188 0.378906
vt 0.802734 0.378906
vt 0.863281 0.378906
vt 0.923828 0.378906
vt 0.984375 0.378906
vt 0.076172 0.439453
vt 0.015625 0.439453
vt 0.136719 0.439453
vt 0.197266 0.439453
vt 0.257812 0.439453
vt 0.318359 0.439453
vt 0.378906 0.439453
vt 0.439453 0.439453
vt 0.500000 0.439453
vt 0.560547 0.439453
vt 0.621094 0.439453
vt 0.681641 0.439453
vt 0.742188 0.439453
vt 0.802734 0.439453
vt 0.863281 0.439453
vt 0.923828 0.439453
vt 0.984375 0.439453
vt 0.076172 0.500000
vt 0.015625 0.500000
vt 0.136719 0.500000
vt 0.197266 0.500000
vt 0.257812 0.500000
vt 0.318359 0.500000
vt 0.378906 0.500000
vt 0.439453 0.500000
vt 0.500000 0.500000
vt 0.560547 0.500000
vt 0.621094 0.500000
vt 0.681641 0.500000
vt 0.742188 0.500000
vt 0.802734 0.500000
vt 0.863281 0.500000
vt 0.923828 0.500000
vt 0.984375 0.500000
vt 0.076172 0.560547
vt 0.015625 0.560547
vt 0.136719 0.560547
vt 0.197266 0.560547
vt 0.257812 0.560547
vt 0.318359 0.560547
vt 0.378906 0.560547
vt 0.439453 0.560547
vt 0.500000 0.560547
vt 0.560547 0.560547
vt 0.621094 0.560547
vt 0.681641 0.560547
vt 0.742188 0.560547
vt 0.802734 0.560547
vt 0.863281 0.560547
vt 0.923828 0.560547
vt 0.984375 0.560547
vt 0.076172 0.621094
vt 0.015625 0.621094
vt 0.136719 0.621094
vt 0.197266 0.621094
vt 0.257812 0.621094
vt 0.318359 0.621094
vt 0.378906 0.621094
vt 0.439453 0.621094
vt 0.500000 0.621094
vt 0.560547 0.621094
vt 0.621094 0.621094
vt 0.681641 0.621094
vt 0.742188 0.621094
vt 0.802734 0.621094
vt 0.863281 0.621094
vt 0.923828 0.621094
vt 0.984375 0.621094
vt 0.076172 0.681641
vt 0.015625 0.681641
vt 0.136719 0.681641
vt 0.197266 0.681641
vt 0.257812 0.681641
vt 0.318359 0.681641
vt 0.378906 0.681641
vt 0.439453 0.681641
vt 0.500000 0.681641
vt 0.560547 0.681641
vt 0.621094 0.681641
vt 0.681641 0.681641
vt 0.742188 0.681641
vt 0.802734 0.681641
vt 0.863281 0.681641
vt 0.923828 0.681641
vt 0.984375 0.681641
vt 0.076172 0.742188
vt 0.015625 0.742188
vt 0.136719 0.742188
vt 0.197266 0.742188
vt 0.257812 0.742188
vt 0.318359 0.742188
vt 0.378906 0.742188
vt 0.439453 0.742188
vt 0.500000 0.742188
vt 0.560547 0.742188
vt 0.621094 0.742188
vt 0.681641 0.742188
vt 0.742188 0.742188
vt 0.802734 0.742188
vt 0.863281 0.742188
vt 0.923828 0.742188
vt 0.984375 0.742188
vt 0.076172 0.802734
vt 0.015625 0.802734
vt 0.136719 0.802734
vt 0.197266 0.802734
vt 0.257812 0.802734
vt 0.318359 0.802734
vt 0.378906 0.802734
vt 0.439453 0.802734
vt 0.500000 0.802734
vt 0.560547 0.802734
vt 0.621094 0.802734
vt 0.681641 0.802734
vt 0.742188 0.802734
vt 0.802734 0.802734
vt 0.863281 0.802734
vt 0.923828 0.802734
vt 0.984375 0.802734
vt 0.076172 0.863281
vt 0.015625 0.863281
vt 0.136719 0.863281
vt 0.197266 0.863281
vt 0.257812 0.863281
vt 0.318359 0.863281
vt 0.378906 0.863281
vt 0.439453 0.863281
vt 0.500000 0.863281
vt 0.560547 0.863281
vt 0.621094 0.863281
vt 0.681641 0.863281
vt 0.742188 0.863281
vt 0.802734 0.863281
vt 0.863281 0.863281
vt 0.923828 0.863281
vt 0.984375 0.863281
vt 0.076172 0.923828
vt 0.015625 0.923828
vt 0.136719 0.923828
vt 0.197266 0.923828
vt 0.257812 0.923828
vt 0.318359 0.923828
vt 0.378906 0.923828
vt 0.439453 0.923828
vt 0.500000 0.923828
vt 0.560547 0.923828
vt 0.621094 0.923828
vt 0.681641 0.923828
vt 0.742188 0.923828
vt 0.802734 0.923828
vt 0.863281 0.923828
vt 0.923828 0.923828
vt 0.984375 0.923828
vt 0.076172 0.984375
vt 0.015625 0.984375
vt 0.136719 0.984375
vt 0.197266 0.984375
vt 0.257812 0.984375
vt 0.318359 0.984375
vt 0.378906 0.984375
vt 0.439453 0.984375
vt 0.500000 0.984375
vt 0.560547 0.984375
vt 0.621094 0.984375
vt 0.681641 0.984375
vt 0.742188 0.984375
vt 0.802734 0.984375
vt 0.863281 0.984375
vt 0.923828 0.984375
vt 0.984375 0.984375
s 1
f 1/1/1 2/2/2 19/3/3
f 1/1/1 19/3/3 18/4/4
f 2/2/2 3/5/5 20/6/6
f 2/2/2 20/6/6 19/3/3
f 3/5/5 4/7/7 21/8/8
f 3/5/5 21/8/8 20/6/6
f 4/7/7 5/9/9 22/10/10
f 4/7/7 22/10/10 21/8/8
f 5/9/9 6/11/11 23/12/12
f 5/9/9 23/12/12 22/10/10
f 6/11/11 7/13/13 24/14/14
f 6/11/11 24/14/14 23/12/12
f 7/13/13 8/15/15 25/16/16
f 7/13/13 25/16/16 24/14/14
f 8/15/15 9/17/17 26/18/18
f 8/15/15 26/18/18 25/16/16
f 9/17/17 10/19/19 27/20/20
f 9/17/17 27/20/20 26/18/18
f 10/19/19 11/21/21 28/22/22
f 10/19/19 28/22/22 27/20/20
f 11/21/21 12/23/23 29/24/24
f 11/21/21 29/24/24 28/22/22
f 12/23/23 13/25/25 30/26/26
f 12/23/23 30/26/26 29/24/24
f 13/25/25 14/27/27 31/28/28
f 13/25/25 31/28/28 30/26/26
f 14/27/27 15/29/29 32/30/30
f 14/27/27 32/30/30 31/28/28
f 15/29/29 16/31/31 33/32/32
f 15/29/29 33/32/32 32/30/30
f 16/31/31 17/33/33 34/34/34
f 16/31/31 34/34/34 33/32/32
f 18/4/4 19/3/3 36/35/35
f 18/4/4 36/35/35 35/36/36
f 19/3/3 20/6/6 37/37/37
f 19/3/3 37/37/37 36/35/35
f 20/6/6 21/8/8 38/38/38
f 20/6/6 38/38/38 37/37/37
f 21/8/8 22/10/10 39/39/39
f 21/8/8 39/39/39 38/38/38
f 22/10/10 23/12/12 40/40/40
f 22/10/10 40/40/40 39/39/39
f 23/12/12 24/14/14 41/41/41
f 23/12/12 41/41/41 40/40/40
f 24/14/14 25/16/16 42/42/42
f 24/14/14 42/42/42 41/41/41
f 25/16/16 26/18/18 43/43/43
f 25/16/16 43/43/43 42/42/42
f 26/18/18 27/20/20 44/44/44
f 26/18/18 44/44/44 43/43/43
f 27/20/20 28/22/22 45/45/45
f 27/20/20 45/45/45 44/44/44
f 28/22/22 29/24/24 46/46/46
f 28/22/22 46/46/46 45/45/45
f 29/24/24 30/26/26 47/47/47
f 29/24/24 47/47/47 46/46/46
f 30/26/26 31/28/28 48/48/48
f 30/26/26 48/48/48 47/47/47
f 31/28/28 32/30/30 49/49/49
f 31/28/28 49/49/49 48/48/48
f 32/30/30 33/32/32 50/50/50
f 32/30/30 50/50/50 49/49/49
f 33/32/32 34/34/34 51/51/51
f 33/32/32 51/51/51 50/50/50
f 35/36/36 36/35/35 53/52/52
f 35/36/36 53/52/52 52/53/53
f 36/35/35 37/37/37 54/54/54
f 36/35/35 54/54/54 53/52/52
f 37/37/37 38/38/38 55/55/55
f 37/37/37 55/55/55 54/54/54
f 38/38/38 39/39/39 56/56/56
f 38/38/38 56/56/56 55/55/55
f 39/39/39 40/40/40 57/57/57
f 39/39/39 57/57/57 56/56/56
f 40/40/40 41/41/41 58/58/58
f 40/40/40 58/58/58 57/57/57
f 41/41/41 42/42/42 59/59/59
f 41/41/41 59/59/59 58/58/58
f 42/42/42 43/43/43 60/60/60
f 42/42/42 60/60/60 59/59/59
f 43/43/43 44/44/44 61/61/61
f 43/43/43 61/61/61 60/60/60
f 44/44/44 45/45/45 62/62/62
f 44/44/44 62/62/62 61/61/61
f 45/45/45 46/46/46 63/63/63
f 45/45/45 63/63/63 62/62/62
f 46/46/46 47/47/47 64/64/64
f 46/46/46 64/64/64 63/63/63
f 47/47/47 48/48/48 65/65/65
f 47/47/47 65/65/65 64/64/64
f 48/48/48 49/49/49 66/66/66
f 48/48/48 66/66/66 65/65/65
f 49/49/49 50/50/50 67/67/67
f 49/49/49 67/67/67 66/66/66
f 50/50/50 51/51/51 68/68/68
f 50/50/50 68/68/68 67/67/67
f 52/53/53 53/52/52 70/69/69
f 52/53/53 70/69/69 69/70/70
f 53/52/52 54/54/54 71/71/71
f 53/52/52 71/71/71 70/69/69
f 54/54/54 55/55/55 72/72/72
f 54/54/54 72/72/72 71/71/71
f 55/55/55 56/56/56 73/73/73
f 55/55/55 73/73/73 72/72/72
f 56/56/56 57/57/57 74/74/74
f 56/56/56 74/74/74 73/73/73
f 57/57/57 58/58/58 75/75/75
f 57/57/57 75/75/75 74/74/74
f 58/58/58 59/59/59 76/76/76
f 58/58/58 76/76/76 75/75/75
f 59/59/59 60/60/60 77/77/77
f 59/59/59 77/77/77 76/76/76
f 60/60/60 61/61/61 78/78/78
f 60/60/60 78/78/78 77/77/77
f 61/61/61 62/62/62 79/79/79
f 61/61/61 79/79/79 78/78/78
f 62/62/62 63/63/63 80/80/80
f 62/62/62 80/80/80 79/79/79
f 63/63/63 64/64/64 81/81/81
f 63/63/63 81/81/81 80/80/80
f 64/64/64 65/65/65 82/82/82
f 64/64/64 82/82/82 81/81/81
f 65/65/65 66/66/66 83/83/83
f 65/65/65 83/83/83 82/82/82
f 66/66/66 67/67/67 84/84/84
f 66/66/66 84/84/84 83/83/83
f 67/67/67 68/68/68 85/85/85
f 67/67/67 85/85/85 84/84/84
f 69/70/70 70/69/69 87/86/86
f 69/70/70 87/86/86 86/87/87
f 70/69/69 71/71/71 88/88/88
f 70/69/69 88/88/88 87/86/86
f 71/71/71 72/72/72 89/89/89
f 71/71/71 89/89/89 88/88/88
f 72/72/72 73/73/73 90/90/90
f 72/72/72 90/90/90 89/89/89
f 73/73/73 74/74/74 91/91/91
f 73/73/73 91/91/91 90/90/90
f 74/74/74 75/75/75 92/92/92
f 74/74/74 92/92/92 91/91/91
f 75/75/75 76/76/76 93/93/93
f 75/75/75 93/93/93 92/92/92
f 76/76/76 77/77/77 94/94/94
f 76/76/76 94/94/94 93/93/93
f 77/77/77 78/78/78 95/95/95
f 77/77/77 95/95/95 94/94/94
f 78/78/78 79/79/79 96/96/96
f 78/78/78 96/96/96 95/95/95
f 79/79/79 80/80/80 97/97/97
f 79/79/79 97/97/97 96/96/96
f 80/80/80 81/81/81 98/98/98
f 80/80/80 98/98/98 97/97/97
f 81/81/81 82/82/82 99/99/99
f 81/81/81 99/99/99 98/98/98
f 82/82/82 83/83/83 100/100/100
f 82/82/82 100/100/100 99/99/99
f 83/83/83 84/84/84 101/101/101
f 83/83/83 101/101/101 100/100/100
f 84/84/84 85/85/85 102/102/102
f 84/84/84 102/102/102 101/101/101
f 86/87/87 87/86/86 104/103/103
f 86/87/87 104/103/103 103/104/104
f 87/86/86 88/88/88 105/105/105
f 87/86/86 105/105/105 104/103/103
f 88/88/88 89/89/89 106/106/106
f 88/88/88 106/106/106 105/105/105
f 89/89/89 90/90/90 107/107/107
f 89/89/89 107/107/107 106/106/106
f 90/90/90 91/91/91 108/108/108
f 90/90/90 108/108/108 107/107/107
f 91/91/91 92/92/92 109/109/109
f 91/91/91 109/109/109 108/108/108
f 92/92/92 93/93/93 110/110/110
f 92/92/92 110/110/110 109/109/109
f 93/93/93 94/94/94 111/111/111
f 93/93/93 111/111/111 110/110/110
f 94/94/94 95/95/95 112/112/112
f 94/94/94 112/112/112 111/111/111
f 95/95/95 96/96/96 113/113/113
f 95/95/95 113/113/113 112/112/112
f 96/96/96 97/97/97 114/114/114
f 96/96/96 114/114/114 113/113/113
f 97/97/97 98/98/98 115/115/115
f 97/97/97 115/115/115 114/114/114
f 98/98/98 99/99/99 116/116/116
f 98/98/98 116/116/116 115/115/115
f 99/99/99 100/100/100 117/117/117
f 99/99/99 117/117/117 116/116/116
f 100/100/100 101/101/101 118/118/118
f 100/100/100 118/118/118 117/117/117
f 101/101/101 102/102/102 119/119/119
f 101/101/101 119/119/119 118/118/118
f 103/104/104 104/103/103 121/120/120
f 103/104/104 121/120/120 120/121/121
f 104/103/103 105/105/105 122/122/122
f 104/103/103 122/122/122 121/120/120
f 105/105/105 106/106/106 123/123/123
f 105/105/105 123/123/123 122/122/122
f 106/106/106 107/107/107 124/124/124
f 106/106/106 124/124/124 123/123/123
f 107/107/107 108/108/108 125/125/125
f 107/107/107 125/125/125 124/124/124
f 108/108/108 109/109/109 126/126/126
f 108/108/108 126/126/126 125/125/125
f 109/109/109 110/110/110 127/127/127
f 109/109/109 127/127/127 126/126/126
f 110/110/110 111/111/111 128/128/128
f 110/110/110 128/128/128 127/127/127
f 111/111/111 112/112/112 129/129/129
f 111/111/111 129/129/129 128/128/128
f 112/112/112 113/113/113 130/130/130
f 112/112/112 130/130/130 129/129/129
f 113/113/113 114/114/114 131/131/131
f 113/113/113 131/131/131 130/130/130
f 114/114/114 115/115/115 132/132/132
f 114/114/114 132/132/132 131/131/131
f 115/115/115 116/116/116 133/133/133
f 115/115/115 133/133/133 132/132/132
f 116/116/116 117/117/117 134/134/134
f 116/116/116 134/134/134 133/133/133
f 117/117/117 118/118/118 135/135/135
f 117/117/117 135/135/135 134/134/134
f 118/118/118 119/119/119 136/136/136
f 118/118/118 136/136/136 135/135/135
f 120/121/121 121/120/120 138/137/137
f 120/121/121 138/137/137 137/138/138
f 121/120/120 122/122/122 139/139/139
f 121/120/120 139/139/139 138/137/137
f 122/122/122 123/123/123 140/140/140
f 122/122/122 140/140/140 139/139/139
f 123/123/123 124/124/124 141/141/141
f 123/123/123 141/141/141 140/140/140
f 124/124/124 125/125/125 142/142/142
f 124/124/124 142/142/142 141/141/141
f 125/125/125 126/126/126 143/143/143
f 125/125/125 143/143/143 142/142/142
f 126/126/126 127/127/127 144/144/144
f 126/126/126 144/144/144 143/143/143
f 127/127/127 128/128/128 145/145/145
f 127/127/127 145/145/145 144/144/144
f 128/128/128 129/129/129 146/146/146
f 128/128/128 146/146/146 145/145/145
f 129/129/129 130/130/130 147/147/147
f 129/129/129 147/147/147 146/146/146
f 130/130/130 131/131/131 148/148/148
f 130/130/130 148/148/148 147/147/147
f 131/131/131 132/132/132 149/149/149
f 131/131/131 149/149/149 148/148/148
f 132/132/132 133/133/133 150/150/150
f 132/132/132 150/150/150 149/149/149
f 133/133/133 134/134/134 151/151/151
f 133/133/133 151/151/151 150/150/150
f 134/134/134 135/135/135 152/152/152
f 134/134/134 152/152/152 151/151/151
f 135/135/135 136/136/136 153/153/153
f 135/135/135 153/153/153 152/152/152
f 137/138/138 138/137/137 155/154/154
f 137/138/138 155/154/154 154/155/155
f 138/137/137 139/139/139 156/156/156
f 138/137/137 156/156/156 155/154/154
f 139/139/139 140/140/140 157/157/157
f 139/139/139 157/157/157 156/156/156
f 140/140/140 141/141/141 158/158/158
f 140/140/140 158/158/158 157/157/157
f 141/141/141 142/142/142 159/159/159
f 141/141/141 159/159/159 158/158/158
f 142/142/142 143/143/143 160/160/160
f 142/142/142 160/160/160 159/159/159
f 143/143/143 144/144/144 161/161/161
f 143/143/143 161/161/161 160/160/160
f 144/144/144 145/145/145 162/162/162
f 144/144/144 162/162/162 161/161/161
f 145/145/145 146/146/146 163/163/163
f 145/145/145 163/163/163 162/162/162
f 146/146/146 147/147/147 164/164/164
f 146/146/146 164/164/164 163/163/163
f 147/147/147 148/148/148 165/165/165
f 147/147/147 165/165/165 164/164/164
f 148/148/148 149/149/149 166/166/166
f 148/148/148 166/166/166 165/165/165
f 149/149/149 150/150/150 167/167/167
f 149/149/149 167/167/167 166/166/166
f 150/150/150 151/151/151 168/168/168
f 150/150/150 168/168/168 167/167/167
f 151/151/151 152/152/152 169/169/169
f 151/151/151 169/169/169 168/168/168
f 152/152/152 153/153/153 170/170/170
f 152/152/152 170/170/170 169/169/169
f 154/155/155 155/154/154 172/171/171
f 154/155/155 172/171/171 171/172/172
f 155/154/154 156/156/156 173/173/173
f 155/154/154 173/173/173 172/171/171
f 156/156/156 157/157/157 174/174/174
f 156/156/156 174/174/174 173/173/173
f 157/157/157 158/158/158 175/175/175
f 157/157/157 175/175/175 174/174/174
f 158/158/158 159/159/159 176/176/176
f 158/158/158 176/176/176 175/175/175
f 159/159/159 160/160/160 177/177/177
f 159/159/159 177/177/177 176/176/176
f 160/160/160 161/161/161 178/178/178
f 160/160/160 178/178/178 177/177/177
f 161/161/161 162/162/162 179/179/179
f 161/161/161 179/179/179 178/178/178
f 162/162/162 163/163/163 180/180/180
f 162/162/162 180/180/180 179/179/179
f 163/163/163 164/164/164 181/181/181
f 163/163/163 181/181/181 180/180/180
f 164/164/164 165/165/165 182/182/182
f 164/164/164 182/182/182 181/181/181
f 165/165/165 166/166/166 183/183/183
f 165/165/165 183/183/183 182/182/182
f 166/166/166 167/167/167 184/184/184
f 166/166/166 184/184/184 183/183/183
f 167/167/167 168/168/168 185/185/185
f 167/167/167 185/185/185 184/184/184
f 168/168/168 169/169/169 186/186/186
f 168/168/168 186/186/186 185/185/185
f 169/169/169 170/170/170 187/187/187
f 169/169/169 187/187/187 186/186/186
f 171/172/172 172/171/171 189/188/188
f 171/172/172 189/188/188 188/189/189
f 172/171/171 173/173/173 190/190/190
f 172/171/171 190/190/190 189/188/188
f 173/173/173 174/174/174 191/191/191
f 173/173/173 191/191/191 190/190/190
f 174/174/174 175/175/175 192/192/192
f 174/174/174 192/192/192 191/191/191
f 175/175/175 176/176/176 193/193/193
f 175/175/175 193/193/193 192/192/192
f 176/176/176 177/177/177 194/194/194
f 176/176/176 194/194/194 193/193/193
f 177/177/177 178/178/178 195/195/195
f 177/177/177 195/195/195 194/194/194
f 178/178/178 179/179/179 196/196/196
f 178/178/178 196/196/196 195/195/195
f 179/179/179 180/180/180 197/197/197
f 179/179/179 197/197/197 196/196/196
f 180/180/180 181/181/181 198/198/198
f 180/180/180 198/198/198 197/197/197
f 181/181/181 182/182/182 199/199/199
f 181/181/181 199/199/199 198/198/198
f 182/182/182 183/183/183 200/200/200
f 182/182/182 200/200/200 199/199/199
f 183/183/183 184/184/184 201/201/201
f 183/183/183 201/201/201 200/200/200
f 184/184/184 185/185/185 202/202/202
f 184/184/184 202/202/202 201/201/201
f 185/185/185 186/186/186 203/203/203
f 185/185/185 203/203/203 202/202/202
f 186/186/186 187/187/187 204/204/204
f 186/186/186 204/204/204 203/203/203
f 188/189/189 189/188/188 206/205/205
f 188/189/189 206/205/205 205/206/206
f 189/188/188 190/190/190 207/207/207
f 189/188/188 207/207/207 206/205/205
f 190/190/190 191/191/191 208/208/208
f 190/190/190 208/208/208 207/207/207
f 191/191/191 192/192/192 209/209/209
f 191/191/191 209/209/209 208/208/208
f 192/192/192 193/193/193 210/210/210
f 192/192/192 210/210/210 209/209/209
f 193/193/193 194/194/194 211/211/211
f 193/193/193 211/211/211 210/210/210
f 194/194/194 195/195/195 212/212/212
f 194/194/194 212/212/212 211/211/211
f 195/195/195 196/196/196 213/213/213
f 195/195/195 213/213/213 212/212/212
f 196/196/196 197/197/197 214/214/214
f 196/196/196 214/214/214 213/213/213
f 197/197/197 198/198/198 215/215/215
f 197/197/197 215/215/215 214/214/214
f 198/198/198 199/199/199 216/216/216
f 198/198/198 216/216/216 215/215/215
f 199/199/199 200/200/200 217/217/217
f 199/199/199 217/217/217 216/216/216
f 200/200/200 201/201/201 218/218/218
f 200/200/200 218/218/218 217/217/217
f 201/201/201 202/202/202 219/219/219
f 201/201/201 219/219/219 218/218/218
f 202/202/202 203/203/203 220/220/220
f 202/202/202 220/220/220 219/219/219
f 203/203/203 204/204/204 221/221/221
f 203/203/203 221/221/221 220/220/220
f 205/206/206 206/205/205 223/222/222
f 205/206/206 223/222/222 222/223/223
f 206/205/205 207/207/207 224/224/224
f 206/205/205 224/224/224 223/222/222
f 207/207/207 208/208/208 225/225/225
f 207/207/207 225/225/225 224/224/224
f 208/208/208 209/209/209 226/226/226
f 208/208/208 226/226/226 225/225/225
f 209/209/209 210/210/210 227/227/227
f 209/209/209 227/227/227 226/226/226
f 210/210/210 211/211/211 228/228/228
f 210/210/210 228/228/228 227/227/227
f 211/211/211 212/212/212 229/229/229
f 211/211/211 229/229/229 228/228/228
f 212/212/212 213/213/213 230/230/230
f 212/212/212 230/230/230 229/229/229
f 213/213/213 214/214/214 231/231/231
f 213/213/213 231/231/231 230/230/230
f 214/214/214 215/215/215 232/232/232
f 214/214/214 232/232/232 231/231/231
f 215/215/215 216/216/216 233/233/233
f 215/215/215 233/233/233 232/232/232
f 216/216/216 217/217/217 234/234/234
f 216/216/216 234/234/234 233/233/233
f 217/217/217 218/218/218 235/235/235
f 217/217/217 235/235/235 234/234/234
f 218/218/218 219/219/219 236/236/236
f 218/218/218 236/236/236 235/235/235
f 219/219/219 220/220/220 237/237/237
f 219/219/219 237/237/237 236/236/236
f 220/220/220 221/221/221 238/238/238
f 220/220/220 238/238/238 237/237/237
f 222/223/223 223/222/222 240/239/239
f 222/223/223 240/239/239 239/240/240
f 223/222/222 224/224/224 241/241/241
f 223/222/222 241/241/241 240/239/239
f 224/224/224 225/225/225 242/242/242
f 224/224/224 242/242/242 241/241/241
f 225/225/225 226/226/226 243/243/243
f 225/225/225 243/243/243 242/242/242
f 226/226/226 227/227/227 244/244/244
f 226/226/226 244/244/244 243/243/243
f 227/227/227 228/228/228 245/245/245
f 227/227/227 245/245/245 244/244/244
f 228/228/228 229/229/229 246/246/246
f 228/228/228 246/246/246 245/245/245
f 229/229/229 230/230/230 247/247/247
f 229/229/229 247/247/247 246/246/246
f 230/230/230 231/231/231 248/248/248
f 230/230/230 248/248/248 247/247/247
f 231/231/231 232/232/232 249/249/249
f 231/231/231 249/249/249 248/248/248
f 232/232/232 233/233/233 250/250/250
f 232/232/232 250/250/250 249/249/249
f 233/233/233 234/234/234 251/251/251
f 233/233/233 251/251/251 250/250/250
f 234/234/234 235/235/235 252/252/252
f 234/234/234 252/252/252 251/251/251
f 235/235/235 236/236/236 253/253/253
f 235/235/235 253/253/253 252/252/252
f 236/236/236 237/237/237 254/254/254
f 236/236/236 254/254/254 253/253/253
f 237/237/237 238/238/238 255/255/255
f 237/237/237 255/255/255 254/254/254
f 239/240/240 240/239/239 257/256/256
f 239/240/240 257/256/256 256/257/257
f 240/239/239 241/241/241 258/258/258
f 240/239/239 258/258/258 257/256/256
f 241/241/241 242/242/242 259/259/259
f 241/241/241 259/259/259 258/258/258
f 242/242/242 243/243/243 260/260/260
f 242/242/242 260/260/260 259/259/259
f 243/243/243 244/244/244 261/261/261
f 243/243/243 261/261/261 260/260/260
f 244/244/244 245/245/245 262/262/262
f 244/244/244 262/262/262 261/261/261
f 245/245/245 246/246/246 263/263/263
f 245/245/245 263/263/263 262/262/262
f 246/246/246 247/247/247 264/264/264
f 246/246/246 264/264/264 263/263/263
f 247/247/247 248/248/248 265/265/265
f 247/247/247 265/265/265 264/264/264
f 248/248/248 249/249/249 266/266/266
f 248/248/248 266/266/266 265/265/265
f 249/249/249 250/250/250 267/267/267
f 249/249/249 267/267/267 266/266/266
f 250/250/250 251/251/251 268/268/268
f 250/250/250 268/268/268 267/267/267
f 251/251/251 252/252/252 269/269/269
f 251/251/251 269/269/269 268/268/268
f 252/252/252 253/253/253 270/270/270
f 252/252/252 270/270/270 269/269/269
f 253/253/253 254/254/254 271/271/271
f 253/253/253 271/271/271 270/270/270
f 254/254/254 255/255/255 272/272/272
f 254/254/254 272/272/272 271/271/271
f 256/257/257 257/256/256 274/273/273
f 256/257/257 274/273/273 273/274/274
f 257/256/256 258/258/258 275/275/275
f 257/256/256 275/275/275 274/273/273
f 258/258/258 259/259/259 276/276/276
f 258/258/258 276/276/276 275/275/275
f 259/259/259 260/260/260 277/277/277
f 259/259/259 277/277/277 276/276/276
f 260/260/260 261/261/261 278/278/278
f 260/260/260 278/278/278 277/277/277
f 261/261/261 262/262/262 279/279/279
f 261/261/261 279/279/279 278/278/278
f 262/262/262 263/263/263 280/280/280
f 262/262/262 280/280/280 279/279/279
f 263/263/263 264/264/264 281/281/281
f 263/263/263 281/281/281 280/280/280
f 264/264/264 265/265/265 282/282/282
f 264/264/264 282/282/282 281/281/281
f 265/265/265 266/266/266 283/283/283
f 265/265/265 283/283/283 282/282/282
f 266/266/266 267/267/267 284/284/284
f 266/266/266 284/284/284 283/283/283
f 267/267/267 268/268/268 285/285/285
f 267/267/267 285/285/285 284/284/284
f 268/268/268 269/269/269 286/286/286
f 268/268/268 286/286/286 285/285/285
f 269/269/269 270/270/270 287/287/287
f 269/269/269 287/287/287 286/286/286
f 270/270/270 271/271/271 288/288/288
f 270/270/270 288/288/288 287/287/287
f 271/271/271 272/272/272 289/289/289
f 271/271/271 289/289/289 288/288/288
