mtllib terrain_mid_06_02.mtl
usemtl terrain_mid_06_02
# Blender 5.1.1
# www.blender.org
o terrain_mid_06_02
v -160.000000 -160.000000 -1.004265
v -140.000000 -160.000000 -5.784315
v -120.000000 -160.000000 -10.802253
v -100.000000 -160.000000 -15.808173
v -80.000000 -160.000000 -20.605944
v -60.000000 -160.000000 -24.763712
v -40.000000 -160.000000 -28.870449
v -20.000000 -160.000000 -32.078362
v 0.000000 -160.000000 -34.453274
v 20.000000 -160.000000 -36.142132
v 40.000000 -160.000000 -37.624798
v 60.000000 -160.000000 -39.508240
v 80.000000 -160.000000 -41.590725
v 100.000000 -160.000000 -43.568447
v 120.000000 -160.000000 -45.312786
v 140.000000 -160.000000 -46.835522
v 160.000000 -160.000000 -48.213421
v -160.000000 -140.000000 -0.688286
v -140.000000 -140.000000 -5.556762
v -120.000000 -140.000000 -10.631320
v -100.000000 -140.000000 -15.618265
v -80.000000 -140.000000 -20.302849
v -60.000000 -140.000000 -24.371006
v -40.000000 -140.000000 -28.022697
v -20.000000 -140.000000 -30.407463
v 0.000000 -140.000000 -31.768276
v 20.000000 -140.000000 -32.974644
v 40.000000 -140.000000 -34.636337
v 60.000000 -140.000000 -36.832199
v 80.000000 -140.000000 -39.042080
v 100.000000 -140.000000 -41.133259
v 120.000000 -140.000000 -42.826584
v 140.000000 -140.000000 -44.265388
v 160.000000 -140.000000 -45.737072
v -160.000000 -120.000000 -1.584852
v -140.000000 -120.000000 -6.519226
v -120.000000 -120.000000 -11.588243
v -100.000000 -120.000000 -16.459595
v -80.000000 -120.000000 -20.806145
v -60.000000 -120.000000 -23.750963
v -40.000000 -120.000000 -26.016397
v -20.000000 -120.000000 -27.438286
v 0.000000 -120.000000 -28.649374
v 20.000000 -120.000000 -30.140463
v 40.000000 -120.000000 -31.997274
v 60.000000 -120.000000 -34.249519
v 80.000000 -120.000000 -36.391247
v 100.000000 -120.000000 -38.480869
v 120.000000 -120.000000 -40.296482
v 140.000000 -120.000000 -41.808865
v 160.000000 -120.000000 -43.274727
v -160.000000 -100.000000 -2.737555
v -140.000000 -100.000000 -7.504503
v -120.000000 -100.000000 -12.143019
v -100.000000 -100.000000 -16.546576
v -80.000000 -100.000000 -20.077637
v -60.000000 -100.000000 -21.651516
v -40.000000 -100.000000 -22.511297
v -20.000000 -100.000000 -23.673252
v 0.000000 -100.000000 -25.247795
v 20.000000 -100.000000 -27.154942
v 40.000000 -100.000000 -29.293802
v 60.000000 -100.000000 -31.659363
v 80.000000 -100.000000 -33.878113
v 100.000000 -100.000000 -35.871994
v 120.000000 -100.000000 -37.617355
v 140.000000 -100.000000 -39.150803
v 160.000000 -100.000000 -40.593132
v -160.000000 -80.000000 -2.803385
v -140.000000 -80.000000 -7.192640
v -120.000000 -80.000000 -11.091105
v -100.000000 -80.000000 -14.456923
v -80.000000 -80.000000 -16.907206
v -60.000000 -80.000000 -17.328674
v -40.000000 -80.000000 -17.886400
v -20.000000 -80.000000 -19.384426
v 0.000000 -80.000000 -21.416952
v 20.000000 -80.000000 -23.727831
v 40.000000 -80.000000 -26.149542
v 60.000000 -80.000000 -28.777296
v 80.000000 -80.000000 -31.272345
v 100.000000 -80.000000 -33.214348
v 120.000000 -80.000000 -34.833447
v 140.000000 -80.000000 -36.314960
v 160.000000 -80.000000 -37.759094
v -160.000000 -60.000000 0.518819
v -140.000000 -60.000000 -4.090610
v -120.000000 -60.000000 -7.956746
v -100.000000 -60.000000 -10.618103
v -80.000000 -60.000000 -11.873528
v -60.000000 -60.000000 -11.798475
v -40.000000 -60.000000 -12.590942
v -20.000000 -60.000000 -14.370157
v 0.000000 -60.000000 -16.746426
v 20.000000 -60.000000 -19.328897
v 40.000000 -60.000000 -21.924526
v 60.000000 -60.000000 -24.963379
v 80.000000 -60.000000 -27.720709
v 100.000000 -60.000000 -30.041740
v 120.000000 -60.000000 -31.922918
v 140.000000 -60.000000 -33.376324
v 160.000000 -60.000000 -34.868450
v -160.000000 -40.000000 5.659410
v -140.000000 -40.000000 0.512641
v -120.000000 -40.000000 -3.638495
v -100.000000 -40.000000 -5.567600
v -80.000000 -40.000000 -5.835198
v -60.000000 -40.000000 -5.851372
v -40.000000 -40.000000 -6.939975
v -20.000000 -40.000000 -8.864814
v 0.000000 -40.000000 -11.304694
v 20.000000 -40.000000 -14.114611
v 40.000000 -40.000000 -16.994574
v 60.000000 -40.000000 -20.500698
v 80.000000 -40.000000 -23.577732
v 100.000000 -40.000000 -26.282070
v 120.000000 -40.000000 -28.583279
v 140.000000 -40.000000 -30.299730
v 160.000000 -40.000000 -31.988111
v -160.000000 -20.000000 10.603190
v -140.000000 -20.000000 5.117500
v -120.000000 -20.000000 1.085104
v -100.000000 -20.000000 -0.165446
v -80.000000 -20.000000 0.396220
v -60.000000 -20.000000 0.135458
v -40.000000 -20.000000 -1.098368
v -20.000000 -20.000000 -2.925747
v 0.000000 -20.000000 -5.244005
v 20.000000 -20.000000 -8.242364
v 40.000000 -20.000000 -11.676188
v 60.000000 -20.000000 -15.671915
v 80.000000 -20.000000 -19.072720
v 100.000000 -20.000000 -22.004910
v 120.000000 -20.000000 -24.685228
v 140.000000 -20.000000 -26.948757
v 160.000000 -20.000000 -29.012878
v -160.000000 0.000000 15.338325
v -140.000000 0.000000 9.897515
v -120.000000 0.000000 6.180176
v -100.000000 0.000000 5.601936
v -80.000000 0.000000 6.717495
v -60.000000 0.000000 6.533373
v -40.000000 0.000000 5.373684
v -20.000000 0.000000 3.640279
v 0.000000 0.000000 1.307584
v 20.000000 0.000000 -2.040520
v 40.000000 0.000000 -5.953776
v 60.000000 0.000000 -10.415710
v 80.000000 0.000000 -14.324083
v 100.000000 0.000000 -17.636684
v 120.000000 0.000000 -20.554361
v 140.000000 0.000000 -23.170389
v 160.000000 0.000000 -25.654385
v -160.000000 20.000000 20.221077
v -140.000000 20.000000 15.108365
v -120.000000 20.000000 12.010648
v -100.000000 20.000000 11.942051
v -80.000000 20.000000 13.395834
v -60.000000 20.000000 13.535604
v -40.000000 20.000000 12.671319
v -20.000000 20.000000 10.987827
v 0.000000 20.000000 8.427355
v 20.000000 20.000000 4.587633
v 40.000000 20.000000 0.111803
v 60.000000 20.000000 -4.816555
v 80.000000 20.000000 -9.357042
v 100.000000 20.000000 -13.102695
v 120.000000 20.000000 -16.388006
v 140.000000 20.000000 -19.354113
v 160.000000 20.000000 -22.157036
v -160.000000 40.000000 25.803719
v -140.000000 40.000000 21.324375
v -120.000000 40.000000 19.007257
v -100.000000 40.000000 19.448996
v -80.000000 40.000000 20.894993
v -60.000000 40.000000 21.518826
v -40.000000 40.000000 21.052952
v -20.000000 40.000000 19.302416
v 0.000000 40.000000 16.342394
v 20.000000 40.000000 11.801405
v 40.000000 40.000000 6.457452
v 60.000000 40.000000 0.931960
v 80.000000 40.000000 -4.097120
v 100.000000 40.000000 -8.431417
v 120.000000 40.000000 -12.316786
v 140.000000 40.000000 -15.639893
v 160.000000 40.000000 -18.586826
v -160.000000 60.000000 32.173969
v -140.000000 60.000000 28.521824
v -120.000000 60.000000 26.915779
v -100.000000 60.000000 27.667419
v -80.000000 60.000000 29.040018
v -60.000000 60.000000 29.947496
v -40.000000 60.000000 29.980442
v -20.000000 60.000000 28.233297
v 0.000000 60.000000 24.810221
v 20.000000 60.000000 19.367785
v 40.000000 60.000000 12.911119
v 60.000000 60.000000 6.615275
v 80.000000 60.000000 0.984151
v 100.000000 60.000000 -3.963948
v 120.000000 60.000000 -8.394300
v 140.000000 60.000000 -11.951144
v 160.000000 60.000000 -14.957140
v -160.000000 80.000000 38.761326
v -140.000000 80.000000 36.112930
v -120.000000 80.000000 35.147697
v -100.000000 80.000000 35.934437
v -80.000000 80.000000 37.181377
v -60.000000 80.000000 38.244644
v -40.000000 80.000000 38.529804
v -20.000000 80.000000 36.867786
v 0.000000 80.000000 32.957039
v 20.000000 80.000000 26.564236
v 40.000000 80.000000 19.138916
v 60.000000 80.000000 11.991550
v 80.000000 80.000000 5.854174
v 100.000000 80.000000 0.349060
v 120.000000 80.000000 -4.591844
v 140.000000 80.000000 -8.358568
v 160.000000 80.000000 -11.471340
v -160.000000 100.000000 44.579720
v -140.000000 100.000000 42.494419
v -120.000000 100.000000 41.863636
v -100.000000 100.000000 42.687412
v -80.000000 100.000000 43.979145
v -60.000000 100.000000 45.058643
v -40.000000 100.000000 45.347309
v -20.000000 100.000000 43.637444
v 0.000000 100.000000 39.560989
v 20.000000 100.000000 32.651272
v 40.000000 100.000000 24.565870
v 60.000000 100.000000 16.906067
v 80.000000 100.000000 10.192749
v 100.000000 100.000000 4.321432
v 120.000000 100.000000 -0.877394
v 140.000000 100.000000 -5.101637
v 160.000000 100.000000 -8.421332
v -160.000000 120.000000 50.229614
v -140.000000 120.000000 48.433025
v -120.000000 120.000000 47.886185
v -100.000000 120.000000 48.586285
v -80.000000 120.000000 49.849873
v -60.000000 120.000000 50.764229
v -40.000000 120.000000 50.697834
v -20.000000 120.000000 48.397907
v 0.000000 120.000000 43.721443
v 20.000000 120.000000 36.519279
v 40.000000 120.000000 28.184793
v 60.000000 120.000000 20.336758
v 80.000000 120.000000 13.416715
v 100.000000 120.000000 7.371853
v 120.000000 120.000000 1.923808
v 140.000000 120.000000 -2.616380
v 160.000000 120.000000 -6.337348
v -160.000000 140.000000 55.887344
v -140.000000 140.000000 54.096512
v -120.000000 140.000000 53.439590
v -100.000000 140.000000 53.843880
v -80.000000 140.000000 54.880398
v -60.000000 140.000000 55.456501
v -40.000000 140.000000 54.588978
v -20.000000 140.000000 51.263908
v 0.000000 140.000000 45.741810
v 20.000000 140.000000 38.299725
v 40.000000 140.000000 29.979452
v 60.000000 140.000000 22.153517
v 80.000000 140.000000 15.226495
v 100.000000 140.000000 9.102736
v 120.000000 140.000000 3.498237
v 140.000000 140.000000 -1.294637
v 160.000000 140.000000 -5.610833
v -160.000000 160.000000 61.750416
v -140.000000 160.000000 59.494087
v -120.000000 160.000000 58.487713
v -100.000000 160.000000 58.590733
v -80.000000 160.000000 59.029800
v -60.000000 160.000000 58.824333
v -40.000000 160.000000 56.939045
v -20.000000 160.000000 52.518398
v 0.000000 160.000000 46.130615
v 20.000000 160.000000 38.206150
v 40.000000 160.000000 29.859653
v 60.000000 160.000000 21.974081
v 80.000000 160.000000 14.935608
v 100.000000 160.000000 8.862712
v 120.000000 160.000000 3.335165
v 140.000000 160.000000 -1.841769
v 160.000000 160.000000 -6.738545
vn 0.2131 -0.0311 0.9765
vn 0.2379 -0.0156 0.9712
vn 0.2410 0.0177 0.9704
vn 0.2191 0.0142 0.9756
vn 0.2431 -0.0044 0.9700
vn 0.2439 0.0191 0.9696
vn 0.2380 -0.0017 0.9713
vn 0.2350 0.0158 0.9719
vn 0.2185 -0.0071 0.9758
vn 0.2137 0.0049 0.9769
vn 0.2023 -0.0131 0.9792
vn 0.1894 -0.0248 0.9816
vn 0.1798 -0.0270 0.9833
vn 0.1488 -0.0704 0.9864
vn 0.1380 -0.0585 0.9887
vn 0.0926 -0.1147 0.9891
vn 0.1005 -0.1049 0.9894
vn 0.0634 -0.1433 0.9877
vn 0.0783 -0.1396 0.9871
vn 0.0707 -0.1480 0.9865
vn 0.0830 -0.1474 0.9856
vn 0.0950 -0.1387 0.9858
vn 0.0977 -0.1406 0.9852
vn 0.1086 -0.1296 0.9856
vn 0.1000 -0.1377 0.9854
vn 0.1060 -0.1282 0.9861
vn 0.0918 -0.1352 0.9866
vn 0.0935 -0.1256 0.9877
vn 0.0806 -0.1391 0.9870
vn 0.0775 -0.1240 0.9892
vn 0.0716 -0.1413 0.9874
vn 0.0720 -0.1244 0.9896
vn 0.0647 -0.1326 0.9891
vn 0.0674 -0.1223 0.9902
vn 0.2423 0.0472 0.9690
vn 0.2249 0.0499 0.9731
vn 0.2410 0.0366 0.9698
vn 0.2245 0.0226 0.9742
vn 0.1793 -0.0055 0.9838
vn 0.1289 -0.0672 0.9894
vn 0.0910 -0.1359 0.9865
vn 0.0647 -0.1656 0.9841
vn 0.0665 -0.1605 0.9848
vn 0.0825 -0.1435 0.9862
vn 0.1013 -0.1317 0.9861
vn 0.1084 -0.1274 0.9859
vn 0.1044 -0.1273 0.9864
vn 0.0963 -0.1299 0.9868
vn 0.0821 -0.1289 0.9883
vn 0.0737 -0.1265 0.9892
vn 0.0666 -0.1273 0.9896
vn 0.2289 0.0164 0.9733
vn 0.2274 0.0297 0.9733
vn 0.2205 -0.0121 0.9753
vn 0.1943 -0.0491 0.9797
vn 0.1261 -0.0962 0.9873
vn 0.0600 -0.1582 0.9856
vn 0.0494 -0.1989 0.9788
vn 0.0669 -0.1969 0.9781
vn 0.0856 -0.1770 0.9805
vn 0.0993 -0.1576 0.9825
vn 0.1106 -0.1439 0.9834
vn 0.1128 -0.1347 0.9844
vn 0.1038 -0.1264 0.9865
vn 0.0921 -0.1302 0.9872
vn 0.0811 -0.1348 0.9876
vn 0.0734 -0.1358 0.9880
vn 0.0666 -0.1363 0.9884
vn 0.2022 -0.0833 0.9758
vn 0.2238 -0.0791 0.9714
vn 0.1777 -0.1025 0.9787
vn 0.1424 -0.1451 0.9791
vn 0.0702 -0.2004 0.9772
vn 0.0237 -0.2390 0.9707
vn 0.0499 -0.2404 0.9694
vn 0.0857 -0.2256 0.9704
vn 0.1056 -0.2068 0.9727
vn 0.1153 -0.1907 0.9748
vn 0.1233 -0.1797 0.9760
vn 0.1253 -0.1637 0.9785
vn 0.1090 -0.1512 0.9825
vn 0.0878 -0.1436 0.9857
vn 0.0766 -0.1405 0.9871
vn 0.0723 -0.1424 0.9872
vn 0.0697 -0.1413 0.9875
vn 0.2037 -0.1851 0.9614
vn 0.2262 -0.2016 0.9530
vn 0.1584 -0.1808 0.9707
vn 0.0952 -0.2159 0.9718
vn 0.0284 -0.2667 0.9634
vn 0.0173 -0.2758 0.9611
vn 0.0620 -0.2634 0.9627
vn 0.0999 -0.2531 0.9623
vn 0.1193 -0.2434 0.9626
vn 0.1249 -0.2317 0.9647
vn 0.1360 -0.2210 0.9657
vn 0.1404 -0.2007 0.9695
vn 0.1237 -0.1874 0.9745
vn 0.1032 -0.1696 0.9801
vn 0.0821 -0.1538 0.9847
vn 0.0726 -0.1483 0.9863
vn 0.0798 -0.1423 0.9866
vn 0.2209 -0.2188 0.9504
vn 0.2393 -0.2373 0.9415
vn 0.1467 -0.2181 0.9648
vn 0.0530 -0.2525 0.9661
vn 0.0069 -0.2933 0.9560
vn 0.0268 -0.2855 0.9580
vn 0.0722 -0.2754 0.9586
vn 0.1043 -0.2736 0.9562
vn 0.1251 -0.2742 0.9535
vn 0.1358 -0.2646 0.9547
vn 0.1529 -0.2452 0.9573
vn 0.1582 -0.2235 0.9618
vn 0.1399 -0.2093 0.9678
vn 0.1217 -0.1955 0.9731
vn 0.0983 -0.1772 0.9792
vn 0.0838 -0.1580 0.9839
vn 0.0925 -0.1442 0.9852
vn 0.2257 -0.2226 0.9484
vn 0.2534 -0.2275 0.9402
vn 0.1272 -0.2365 0.9633
vn 0.0166 -0.2689 0.9630
vn -0.0071 -0.2995 0.9541
vn 0.0357 -0.2956 0.9546
vn 0.0729 -0.2935 0.9532
vn 0.0985 -0.2969 0.9498
vn 0.1258 -0.2983 0.9461
vn 0.1522 -0.2856 0.9462
vn 0.1762 -0.2620 0.9489
vn 0.1765 -0.2405 0.9545
vn 0.1528 -0.2224 0.9629
vn 0.1359 -0.2092 0.9684
vn 0.1201 -0.1955 0.9733
vn 0.1059 -0.1745 0.9789
vn 0.1068 -0.1555 0.9820
vn 0.2168 -0.2366 0.9471
vn 0.2608 -0.2257 0.9386
vn 0.1030 -0.2621 0.9595
vn -0.0128 -0.2896 0.9570
vn -0.0221 -0.3090 0.9508
vn 0.0318 -0.3175 0.9477
vn 0.0684 -0.3245 0.9434
vn 0.0956 -0.3270 0.9402
vn 0.1332 -0.3205 0.9378
vn 0.1704 -0.3009 0.9383
vn 0.1968 -0.2772 0.9404
vn 0.1980 -0.2567 0.9460
vn 0.1728 -0.2325 0.9571
vn 0.1502 -0.2148 0.9650
vn 0.1343 -0.2012 0.9703
vn 0.1241 -0.1853 0.9748
vn 0.1172 -0.1678 0.9788
vn 0.1936 -0.2695 0.9433
vn 0.2567 -0.2446 0.9350
vn 0.0752 -0.3044 0.9496
vn -0.0327 -0.3270 0.9445
vn -0.0376 -0.3339 0.9419
vn 0.0169 -0.3508 0.9363
vn 0.0592 -0.3643 0.9294
vn 0.0984 -0.3628 0.9266
vn 0.1481 -0.3480 0.9257
vn 0.1928 -0.3209 0.9273
vn 0.2193 -0.2890 0.9319
vn 0.2222 -0.2660 0.9380
vn 0.1968 -0.2428 0.9499
vn 0.1689 -0.2210 0.9605
vn 0.1512 -0.1994 0.9682
vn 0.1403 -0.1832 0.9730
vn 0.1253 -0.1726 0.9770
vn 0.1590 -0.3139 0.9360
vn 0.2326 -0.2785 0.9319
vn 0.0439 -0.3488 0.9362
vn -0.0439 -0.3655 0.9298
vn -0.0481 -0.3638 0.9302
vn -0.0038 -0.3797 0.9251
vn 0.0508 -0.3966 0.9166
vn 0.1075 -0.3936 0.9130
vn 0.1710 -0.3734 0.9118
vn 0.2258 -0.3376 0.9138
vn 0.2505 -0.2951 0.9220
vn 0.2459 -0.2663 0.9320
vn 0.2210 -0.2441 0.9442
vn 0.1962 -0.2187 0.9559
vn 0.1740 -0.1930 0.9656
vn 0.1523 -0.1799 0.9718
vn 0.1318 -0.1756 0.9756
vn 0.1224 -0.3442 0.9309
vn 0.1944 -0.3023 0.9332
vn 0.0198 -0.3741 0.9272
vn -0.0490 -0.3806 0.9235
vn -0.0528 -0.3766 0.9249
vn -0.0215 -0.3855 0.9224
vn 0.0392 -0.4001 0.9156
vn 0.1176 -0.3993 0.9093
vn 0.2005 -0.3758 0.9048
vn 0.2688 -0.3335 0.9036
vn 0.2907 -0.2892 0.9121
vn 0.2762 -0.2561 0.9263
vn 0.2483 -0.2341 0.9400
vn 0.2232 -0.2090 0.9521
vn 0.1924 -0.1861 0.9635
vn 0.1593 -0.1768 0.9713
vn 0.1354 -0.1735 0.9755
vn 0.0850 -0.3286 0.9406
vn 0.1549 -0.2927 0.9436
vn 0.0042 -0.3501 0.9367
vn -0.0476 -0.3509 0.9352
vn -0.0542 -0.3494 0.9354
vn -0.0315 -0.3532 0.9350
vn 0.0321 -0.3584 0.9330
vn 0.1289 -0.3564 0.9254
vn 0.2349 -0.3363 0.9120
vn 0.3115 -0.2995 0.9018
vn 0.3301 -0.2641 0.9062
vn 0.3062 -0.2372 0.9219
vn 0.2729 -0.2158 0.9375
vn 0.2477 -0.1965 0.9487
vn 0.2093 -0.1805 0.9610
vn 0.1671 -0.1664 0.9718
vn 0.1384 -0.1597 0.9774
vn 0.0648 -0.2938 0.9537
vn 0.1327 -0.2732 0.9528
vn -0.0046 -0.3034 0.9528
vn -0.0503 -0.3011 0.9523
vn -0.0564 -0.3014 0.9518
vn -0.0326 -0.2985 0.9538
vn 0.0340 -0.2909 0.9562
vn 0.1377 -0.2743 0.9517
vn 0.2563 -0.2511 0.9334
vn 0.3419 -0.2270 0.9119
vn 0.3584 -0.2059 0.9106
vn 0.3318 -0.1927 0.9235
vn 0.2953 -0.1775 0.9388
vn 0.2629 -0.1669 0.9503
vn 0.2266 -0.1565 0.9613
vn 0.1836 -0.1396 0.9730
vn 0.1428 -0.1260 0.9817
vn 0.0562 -0.2781 0.9589
vn 0.1221 -0.2700 0.9551
vn -0.0037 -0.2780 0.9606
vn -0.0472 -0.2683 0.9622
vn -0.0525 -0.2626 0.9635
vn -0.0205 -0.2515 0.9676
vn 0.0576 -0.2247 0.9727
vn 0.1689 -0.1846 0.9682
vn 0.2816 -0.1465 0.9483
vn 0.3589 -0.1305 0.9242
vn 0.3721 -0.1245 0.9198
vn 0.3437 -0.1222 0.9311
vn 0.3061 -0.1189 0.9445
vn 0.2743 -0.1142 0.9549
vn 0.2409 -0.1055 0.9648
vn 0.2014 -0.0928 0.9751
vn 0.1597 -0.0692 0.9847
vn 0.0589 -0.2661 0.9622
vn 0.1236 -0.2746 0.9536
vn 0.0062 -0.2562 0.9666
vn -0.0349 -0.2425 0.9695
vn -0.0393 -0.2235 0.9739
vn 0.0071 -0.1974 0.9803
vn 0.1030 -0.1534 0.9828
vn 0.2149 -0.1001 0.9715
vn 0.3078 -0.0572 0.9497
vn 0.3663 -0.0392 0.9297
vn 0.3740 -0.0388 0.9266
vn 0.3459 -0.0383 0.9375
vn 0.3097 -0.0363 0.9501
vn 0.2811 -0.0358 0.9590
vn 0.2515 -0.0341 0.9673
vn 0.2220 -0.0189 0.9749
vn 0.1899 0.0098 0.9818
vn 0.0786 -0.2533 0.9642
vn 0.1430 -0.2748 0.9508
vn 0.0220 -0.2326 0.9723
vn -0.0132 -0.2140 0.9767
vn -0.0057 -0.1845 0.9828
vn 0.0517 -0.1422 0.9885
vn 0.1551 -0.0907 0.9837
vn 0.2607 -0.0385 0.9647
vn 0.3369 -0.0015 0.9415
vn 0.3767 0.0202 0.9261
vn 0.3759 0.0254 0.9263
vn 0.3494 0.0344 0.9364
vn 0.3112 0.0430 0.9494
vn 0.2782 0.0455 0.9594
vn 0.2582 0.0466 0.9650
vn 0.2438 0.0581 0.9681
vn 0.2232 0.0793 0.9715
vt 0.015625 0.015625
vt 0.076172 0.015625
vt 0.076172 0.076172
vt 0.015625 0.076172
vt 0.136719 0.015625
vt 0.136719 0.076172
vt 0.197266 0.015625
vt 0.197266 0.076172
vt 0.257812 0.015625
vt 0.257812 0.076172
vt 0.318359 0.015625
vt 0.318359 0.076172
vt 0.378906 0.015625
vt 0.378906 0.076172
vt 0.439453 0.015625
vt 0.439453 0.076172
vt 0.500000 0.015625
vt 0.500000 0.076172
vt 0.560547 0.015625
vt 0.560547 0.076172
vt 0.621094 0.015625
vt 0.621094 0.076172
vt 0.681641 0.015625
vt 0.681641 0.076172
vt 0.742188 0.015625
vt 0.742188 0.076172
vt 0.802734 0.015625
vt 0.802734 0.076172
vt 0.863281 0.015625
vt 0.863281 0.076172
vt 0.923828 0.015625
vt 0.923828 0.076172
vt 0.984375 0.015625
vt 0.984375 0.076172
vt 0.076172 0.136719
vt 0.015625 0.136719
vt 0.136719 0.136719
vt 0.197266 0.136719
vt 0.257812 0.136719
vt 0.318359 0.136719
vt 0.378906 0.136719
vt 0.439453 0.136719
vt 0.500000 0.136719
vt 0.560547 0.136719
vt 0.621094 0.136719
vt 0.681641 0.136719
vt 0.742188 0.136719
vt 0.802734 0.136719
vt 0.863281 0.136719
vt 0.923828 0.136719
vt 0.984375 0.136719
vt 0.076172 0.197266
vt 0.015625 0.197266
vt 0.136719 0.197266
vt 0.197266 0.197266
vt 0.257812 0.197266
vt 0.318359 0.197266
vt 0.378906 0.197266
vt 0.439453 0.197266
vt 0.500000 0.197266
vt 0.560547 0.197266
vt 0.621094 0.197266
vt 0.681641 0.197266
vt 0.742188 0.197266
vt 0.802734 0.197266
vt 0.863281 0.197266
vt 0.923828 0.197266
vt 0.984375 0.197266
vt 0.076172 0.257812
vt 0.015625 0.257812
vt 0.136719 0.257812
vt 0.197266 0.257812
vt 0.257812 0.257812
vt 0.318359 0.257812
vt 0.378906 0.257812
vt 0.439453 0.257812
vt 0.500000 0.257812
vt 0.560547 0.257812
vt 0.621094 0.257812
vt 0.681641 0.257812
vt 0.742188 0.257812
vt 0.802734 0.257812
vt 0.863281 0.257812
vt 0.923828 0.257812
vt 0.984375 0.257812
vt 0.076172 0.318359
vt 0.015625 0.318359
vt 0.136719 0.318359
vt 0.197266 0.318359
vt 0.257812 0.318359
vt 0.318359 0.318359
vt 0.378906 0.318359
vt 0.439453 0.318359
vt 0.500000 0.318359
vt 0.560547 0.318359
vt 0.621094 0.318359
vt 0.681641 0.318359
vt 0.742188 0.318359
vt 0.802734 0.318359
vt 0.863281 0.318359
vt 0.923828 0.318359
vt 0.984375 0.318359
vt 0.076172 0.378906
vt 0.015625 0.378906
vt 0.136719 0.378906
vt 0.197266 0.378906
vt 0.257812 0.378906
vt 0.318359 0.378906
vt 0.378906 0.378906
vt 0.439453 0.378906
vt 0.500000 0.378906
vt 0.560547 0.378906
vt 0.621094 0.378906
vt 0.681641 0.378906
vt 0.742188 0.378906
vt 0.802734 0.378906
vt 0.863281 0.378906
vt 0.923828 0.378906
vt 0.984375 0.378906
vt 0.076172 0.439453
vt 0.015625 0.439453
vt 0.136719 0.439453
vt 0.197266 0.439453
vt 0.257812 0.439453
vt 0.318359 0.439453
vt 0.378906 0.439453
vt 0.439453 0.439453
vt 0.500000 0.439453
vt 0.560547 0.439453
vt 0.621094 0.439453
vt 0.681641 0.439453
vt 0.742188 0.439453
vt 0.802734 0.439453
vt 0.863281 0.439453
vt 0.923828 0.439453
vt 0.984375 0.439453
vt 0.076172 0.500000
vt 0.015625 0.500000
vt 0.136719 0.500000
vt 0.197266 0.500000
vt 0.257812 0.500000
vt 0.318359 0.500000
vt 0.378906 0.500000
vt 0.439453 0.500000
vt 0.500000 0.500000
vt 0.560547 0.500000
vt 0.621094 0.500000
vt 0.681641 0.500000
vt 0.742188 0.500000
vt 0.802734 0.500000
vt 0.863281 0.500000
vt 0.923828 0.500000
vt 0.984375 0.500000
vt 0.076172 0.560547
vt 0.015625 0.560547
vt 0.136719 0.560547
vt 0.197266 0.560547
vt 0.257812 0.560547
vt 0.318359 0.560547
vt 0.378906 0.560547
vt 0.439453 0.560547
vt 0.500000 0.560547
vt 0.560547 0.560547
vt 0.621094 0.560547
vt 0.681641 0.560547
vt 0.742188 0.560547
vt 0.802734 0.560547
vt 0.863281 0.560547
vt 0.923828 0.560547
vt 0.984375 0.560547
vt 0.076172 0.621094
vt 0.015625 0.621094
vt 0.136719 0.621094
vt 0.197266 0.621094
vt 0.257812 0.621094
vt 0.318359 0.621094
vt 0.378906 0.621094
vt 0.439453 0.621094
vt 0.500000 0.621094
vt 0.560547 0.621094
vt 0.621094 0.621094
vt 0.681641 0.621094
vt 0.742188 0.621094
vt 0.802734 0.621094
vt 0.863281 0.621094
vt 0.923828 0.621094
vt 0.984375 0.621094
vt 0.076172 0.681641
vt 0.015625 0.681641
vt 0.136719 0.681641
vt 0.197266 0.681641
vt 0.257812 0.681641
vt 0.318359 0.681641
vt 0.378906 0.681641
vt 0.439453 0.681641
vt 0.500000 0.681641
vt 0.560547 0.681641
vt 0.621094 0.681641
vt 0.681641 0.681641
vt 0.742188 0.681641
vt 0.802734 0.681641
vt 0.863281 0.681641
vt 0.923828 0.681641
vt 0.984375 0.681641
vt 0.076172 0.742188
vt 0.015625 0.742188
vt 0.136719 0.742188
vt 0.197266 0.742188
vt 0.257812 0.742188
vt 0.318359 0.742188
vt 0.378906 0.742188
vt 0.439453 0.742188
vt 0.500000 0.742188
vt 0.560547 0.742188
vt 0.621094 0.742188
vt 0.681641 0.742188
vt 0.742188 0.742188
vt 0.802734 0.742188
vt 0.863281 0.742188
vt 0.923828 0.742188
vt 0.984375 0.742188
vt 0.076172 0.802734
vt 0.015625 0.802734
vt 0.136719 0.802734
vt 0.197266 0.802734
vt 0.257812 0.802734
vt 0.318359 0.802734
vt 0.378906 0.802734
vt 0.439453 0.802734
vt 0.500000 0.802734
vt 0.560547 0.802734
vt 0.621094 0.802734
vt 0.681641 0.802734
vt 0.742188 0.802734
vt 0.802734 0.802734
vt 0.863281 0.802734
vt 0.923828 0.802734
vt 0.984375 0.802734
vt 0.076172 0.863281
vt 0.015625 0.863281
vt 0.136719 0.863281
vt 0.197266 0.863281
vt 0.257812 0.863281
vt 0.318359 0.863281
vt 0.378906 0.863281
vt 0.439453 0.863281
vt 0.500000 0.863281
vt 0.560547 0.863281
vt 0.621094 0.863281
vt 0.681641 0.863281
vt 0.742188 0.863281
vt 0.802734 0.863281
vt 0.863281 0.863281
vt 0.923828 0.863281
vt 0.984375 0.863281
vt 0.076172 0.923828
vt 0.015625 0.923828
vt 0.136719 0.923828
vt 0.197266 0.923828
vt 0.257812 0.923828
vt 0.318359 0.923828
vt 0.378906 0.923828
vt 0.439453 0.923828
vt 0.500000 0.923828
vt 0.560547 0.923828
vt 0.621094 0.923828
vt 0.681641 0.923828
vt 0.742188 0.923828
vt 0.802734 0.923828
vt 0.863281 0.923828
vt 0.923828 0.923828
vt 0.984375 0.923828
vt 0.076172 0.984375
vt 0.015625 0.984375
vt 0.136719 0.984375
vt 0.197266 0.984375
vt 0.257812 0.984375
vt 0.318359 0.984375
vt 0.378906 0.984375
vt 0.439453 0.984375
vt 0.500000 0.984375
vt 0.560547 0.984375
vt 0.621094 0.984375
vt 0.681641 0.984375
vt 0.742188 0.984375
vt 0.802734 0.984375
vt 0.863281 0.984375
vt 0.923828 0.984375
vt 0.984375 0.984375
s 1
f 1/1/1 2/2/2 19/3/3
f 1/1/1 19/3/3 18/4/4
f 2/2/2 3/5/5 20/6/6
f 2/2/2 20/6/6 19/3/3
f 3/5/5 4/7/7 21/8/8
f 3/5/5 21/8/8 20/6/6
f 4/7/7 5/9/9 22/10/10
f 4/7/7 22/10/10 21/8/8
f 5/9/9 6/11/11 23/12/12
f 5/9/9 23/12/12 22/10/10
f 6/11/11 7/13/13 24/14/14
f 6/11/11 24/14/14 23/12/12
f 7/13/13 8/15/15 25/16/16
f 7/13/13 25/16/16 24/14/14
f 8/15/15 9/17/17 26/18/18
f 8/15/15 26/18/18 25/16/16
f 9/17/17 10/19/19 27/20/20
f 9/17/17 27/20/20 26/18/18
f 10/19/19 11/21/21 28/22/22
f 10/19/19 28/22/22 27/20/20
f 11/21/21 12/23/23 29/24/24
f 11/21/21 29/24/24 28/22/22
f 12/23/23 13/25/25 30/26/26
f 12/23/23 30/26/26 29/24/24
f 13/25/25 14/27/27 31/28/28
f 13/25/25 31/28/28 30/26/26
f 14/27/27 15/29/29 32/30/30
f 14/27/27 32/30/30 31/28/28
f 15/29/29 16/31/31 33/32/32
f 15/29/29 33/32/32 32/30/30
f 16/31/31 17/33/33 34/34/34
f 16/31/31 34/34/34 33/32/32
f 18/4/4 19/3/3 36/35/35
f 18/4/4 36/35/35 35/36/36
f 19/3/3 20/6/6 37/37/37
f 19/3/3 37/37/37 36/35/35
f 20/6/6 21/8/8 38/38/38
f 20/6/6 38/38/38 37/37/37
f 21/8/8 22/10/10 39/39/39
f 21/8/8 39/39/39 38/38/38
f 22/10/10 23/12/12 40/40/40
f 22/10/10 40/40/40 39/39/39
f 23/12/12 24/14/14 41/41/41
f 23/12/12 41/41/41 40/40/40
f 24/14/14 25/16/16 42/42/42
f 24/14/14 42/42/42 41/41/41
f 25/16/16 26/18/18 43/43/43
f 25/16/16 43/43/43 42/42/42
f 26/18/18 27/20/20 44/44/44
f 26/18/18 44/44/44 43/43/43
f 27/20/20 28/22/22 45/45/45
f 27/20/20 45/45/45 44/44/44
f 28/22/22 29/24/24 46/46/46
f 28/22/22 46/46/46 45/45/45
f 29/24/24 30/26/26 47/47/47
f 29/24/24 47/47/47 46/46/46
f 30/26/26 31/28/28 48/48/48
f 30/26/26 48/48/48 47/47/47
f 31/28/28 32/30/30 49/49/49
f 31/28/28 49/49/49 48/48/48
f 32/30/30 33/32/32 50/50/50
f 32/30/30 50/50/50 49/49/49
f 33/32/32 34/34/34 51/51/51
f 33/32/32 51/51/51 50/50/50
f 35/36/36 36/35/35 53/52/52
f 35/36/36 53/52/52 52/53/53
f 36/35/35 37/37/37 54/54/54
f 36/35/35 54/54/54 53/52/52
f 37/37/37 38/38/38 55/55/55
f 37/37/37 55/55/55 54/54/54
f 38/38/38 39/39/39 56/56/56
f 38/38/38 56/56/56 55/55/55
f 39/39/39 40/40/40 57/57/57
f 39/39/39 57/57/57 56/56/56
f 40/40/40 41/41/41 58/58/58
f 40/40/40 58/58/58 57/57/57
f 41/41/41 42/42/42 59/59/59
f 41/41/41 59/59/59 58/58/58
f 42/42/42 43/43/43 60/60/60
f 42/42/42 60/60/60 59/59/59
f 43/43/43 44/44/44 61/61/61
f 43/43/43 61/61/61 60/60/60
f 44/44/44 45/45/45 62/62/62
f 44/44/44 62/62/62 61/61/61
f 45/45/45 46/46/46 63/63/63
f 45/45/45 63/63/63 62/62/62
f 46/46/46 47/47/47 64/64/64
f 46/46/46 64/64/64 63/63/63
f 47/47/47 48/48/48 65/65/65
f 47/47/47 65/65/65 64/64/64
f 48/48/48 49/49/49 66/66/66
f 48/48/48 66/66/66 65/65/65
f 49/49/49 50/50/50 67/67/67
f 49/49/49 67/67/67 66/66/66
f 50/50/50 51/51/51 68/68/68
f 50/50/50 68/68/68 67/67/67
f 52/53/53 53/52/52 70/69/69
f 52/53/53 70/69/69 69/70/70
f 53/52/52 54/54/54 71/71/71
f 53/52/52 71/71/71 70/69/69
f 54/54/54 55/55/55 72/72/72
f 54/54/54 72/72/72 71/71/71
f 55/55/55 56/56/56 73/73/73
f 55/55/55 73/73/73 72/72/72
f 56/56/56 57/57/57 74/74/74
f 56/56/56 74/74/74 73/73/73
f 57/57/57 58/58/58 75/75/75
f 57/57/57 75/75/75 74/74/74
f 58/58/58 59/59/59 76/76/76
f 58/58/58 76/76/76 75/75/75
f 59/59/59 60/60/60 77/77/77
f 59/59/59 77/77/77 76/76/76
f 60/60/60 61/61/61 78/78/78
f 60/60/60 78/78/78 77/77/77
f 61/61/61 62/62/62 79/79/79
f 61/61/61 79/79/79 78/78/78
f 62/62/62 63/63/63 80/80/80
f 62/62/62 80/80/80 79/79/79
f 63/63/63 64/64/64 81/81/81
f 63/63/63 81/81/81 80/80/80
f 64/64/64 65/65/65 82/82/82
f 64/64/64 82/82/82 81/81/81
f 65/65/65 66/66/66 83/83/83
f 65/65/65 83/83/83 82/82/82
f 66/66/66 67/67/67 84/84/84
f 66/66/66 84/84/84 83/83/83
f 67/67/67 68/68/68 85/85/85
f 67/67/67 85/85/85 84/84/84
f 69/70/70 70/69/69 87/86/86
f 69/70/70 87/86/86 86/87/87
f 70/69/69 71/71/71 88/88/88
f 70/69/69 88/88/88 87/86/86
f 71/71/71 72/72/72 89/89/89
f 71/71/71 89/89/89 88/88/88
f 72/72/72 73/73/73 90/90/90
f 72/72/72 90/90/90 89/89/89
f 73/73/73 74/74/74 91/91/91
f 73/73/73 91/91/91 90/90/90
f 74/74/74 75/75/75 92/92/92
f 74/74/74 92/92/92 91/91/91
f 75/75/75 76/76/76 93/93/93
f 75/75/75 93/93/93 92/92/92
f 76/76/76 77/77/77 94/94/94
f 76/76/76 94/94/94 93/93/93
f 77/77/77 78/78/78 95/95/95
f 77/77/77 95/95/95 94/94/94
f 78/78/78 79/79/79 96/96/96
f 78/78/78 96/96/96 95/95/95
f 79/79/79 80/80/80 97/97/97
f 79/79/79 97/97/97 96/96/96
f 80/80/80 81/81/81 98/98/98
f 80/80/80 98/98/98 97/97/97
f 81/81/81 82/82/82 99/99/99
f 81/81/81 99/99/99 98/98/98
f 82/82/82 83/83/83 100/100/100
f 82/82/82 100/100/100 99/99/99
f 83/83/83 84/84/84 101/101/101
f 83/83/83 101/101/101 100/100/100
f 84/84/84 85/85/85 102/102/102
f 84/84/84 102/102/102 101/101/101
f 86/87/87 87/86/86 104/103/103
f 86/87/87 104/103/103 103/104/104
f 87/86/86 88/88/88 105/105/105
f 87/86/86 105/105/105 104/103/103
f 88/88/88 89/89/89 106/106/106
f 88/88/88 106/106/106 105/105/105
f 89/89/89 90/90/90 107/107/107
f 89/89/89 107/107/107 106/106/106
f 90/90/90 91/91/91 108/108/108
f 90/90/90 108/108/108 107/107/107
f 91/91/91 92/92/92 109/109/109
f 91/91/91 109/109/109 108/108/108
f 92/92/92 93/93/93 110/110/110
f 92/92/92 110/110/110 109/109/109
f 93/93/93 94/94/94 111/111/111
f 93/93/93 111/111/111 110/110/110
f 94/94/94 95/95/95 112/112/112
f 94/94/94 112/112/112 111/111/111
f 95/95/95 96/96/96 113/113/113
f 95/95/95 113/113/113 112/112/112
f 96/96/96 97/97/97 114/114/114
f 96/96/96 114/114/114 113/113/113
f 97/97/97 98/98/98 115/115/115
f 97/97/97 115/115/115 114/114/114
f 98/98/98 99/99/99 116/116/116
f 98/98/98 116/116/116 115/115/115
f 99/99/99 100/100/100 117/117/117
f 99/99/99 117/117/117 116/116/116
f 100/100/100 101/101/101 118/118/118
f 100/100/100 118/118/118 117/117/117
f 101/101/101 102/102/102 119/119/119
f 101/101/101 119/119/119 118/118/118
f 103/104/104 104/103/103 121/120/120
f 103/104/104 121/120/120 120/121/121
f 104/103/103 105/105/105 122/122/122
f 104/103/103 122/122/122 121/120/120
f 105/105/105 106/106/106 123/123/123
f 105/105/105 123/123/123 122/122/122
f 106/106/106 107/107/107 124/124/124
f 106/106/106 124/124/124 123/123/123
f 107/107/107 108/108/108 125/125/125
f 107/107/107 125/125/125 124/124/124
f 108/108/108 109/109/109 126/126/126
f 108/108/108 126/126/126 125/125/125
f 109/109/109 110/110/110 127/127/127
f 109/109/109 127/127/127 126/126/126
f 110/110/110 111/111/111 128/128/128
f 110/110/110 128/128/128 127/127/127
f 111/111/111 112/112/112 129/129/129
f 111/111/111 129/129/129 128/128/128
f 112/112/112 113/113/113 130/130/130
f 112/112/112 130/130/130 129/129/129
f 113/113/113 114/114/114 131/131/131
f 113/113/113 131/131/131 130/130/130
f 114/114/114 115/115/115 132/132/132
f 114/114/114 132/132/132 131/131/131
f 115/115/115 116/116/116 133/133/133
f 115/115/115 133/133/133 132/132/132
f 116/116/116 117/117/117 134/134/134
f 116/116/116 134/134/134 133/133/133
f 117/117/117 118/118/118 135/135/135
f 117/117/117 135/135/135 134/134/134
f 118/118/118 119/119/119 136/136/136
f 118/118/118 136/136/136 135/135/135
f 120/121/121 121/120/120 138/137/137
f 120/121/121 138/137/137 137/138/138
f 121/120/120 122/122/122 139/139/139
f 121/120/120 139/139/139 138/137/137
f 122/122/122 123/123/123 140/140/140
f 122/122/122 140/140/140 139/139/139
f 123/123/123 124/124/124 141/141/141
f 123/123/123 141/141/141 140/140/140
f 124/124/124 125/125/125 142/142/142
f 124/124/124 142/142/142 141/141/141
f 125/125/125 126/126/126 143/143/143
f 125/125/125 143/143/143 142/142/142
f 126/126/126 127/127/127 144/144/144
f 126/126/126 144/144/144 143/143/143
f 127/127/127 128/128/128 145/145/145
f 127/127/127 145/145/145 144/144/144
f 128/128/128 129/129/129 146/146/146
f 128/128/128 146/146/146 145/145/145
f 129/129/129 130/130/130 147/147/147
f 129/129/129 147/147/147 146/146/146
f 130/130/130 131/131/131 148/148/148
f 130/130/130 148/148/148 147/147/147
f 131/131/131 132/132/132 149/149/149
f 131/131/131 149/149/149 148/148/148
f 132/132/132 133/133/133 150/150/150
f 132/132/132 150/150/150 149/149/149
f 133/133/133 134/134/134 151/151/151
f 133/133/133 151/151/151 150/150/150
f 134/134/134 135/135/135 152/152/152
f 134/134/134 152/152/152 151/151/151
f 135/135/135 136/136/136 153/153/153
f 135/135/135 153/153/153 152/152/152
f 137/138/138 138/137/137 155/154/154
f 137/138/138 155/154/154 154/155/155
f 138/137/137 139/139/139 156/156/156
f 138/137/137 156/156/156 155/154/154
f 139/139/139 140/140/140 157/157/157
f 139/139/139 157/157/157 156/156/156
f 140/140/140 141/141/141 158/158/158
f 140/140/140 158/158/158 157/157/157
f 141/141/141 142/142/142 159/159/159
f 141/141/141 159/159/159 158/158/158
f 142/142/142 143/143/143 160/160/160
f 142/142/142 160/160/160 159/159/159
f 143/143/143 144/144/144 161/161/161
f 143/143/143 161/161/161 160/160/160
f 144/144/144 145/145/145 162/162/162
f 144/144/144 162/162/162 161/161/161
f 145/145/145 146/146/146 163/163/163
f 145/145/145 163/163/163 162/162/162
f 146/146/146 147/147/147 164/164/164
f 146/146/146 164/164/164 163/163/163
f 147/147/147 148/148/148 165/165/165
f 147/147/147 165/165/165 164/164/164
f 148/148/148 149/149/149 166/166/166
f 148/148/148 166/166/166 165/165/165
f 149/149/149 150/150/150 167/167/167
f 149/149/149 167/167/167 166/166/166
f 150/150/150 151/151/151 168/168/168
f 150/150/150 168/168/168 167/167/167
f 151/151/151 152/152/152 169/169/169
f 151/151/151 169/169/169 168/168/168
f 152/152/152 153/153/153 170/170/170
f 152/152/152 170/170/170 169/169/169
f 154/155/155 155/154/154 172/171/171
f 154/155/155 172/171/171 171/172/172
f 155/154/154 156/156/156 173/173/173
f 155/154/154 173/173/173 172/171/171
f 156/156/156 157/157/157 174/174/174
f 156/156/156 174/174/174 173/173/173
f 157/157/157 158/158/158 175/175/175
f 157/157/157 175/175/175 174/174/174
f 158/158/158 159/159/159 176/176/176
f 158/158/158 176/176/176 175/175/175
f 159/159/159 160/160/160 177/177/177
f 159/159/159 177/177/177 176/176/176
f 160/160/160 161/161/161 178/178/178
f 160/160/160 178/178/178 177/177/177
f 161/161/161 162/162/162 179/179/179
f 161/161/161 179/179/179 178/178/178
f 162/162/162 163/163/163 180/180/180
f 162/162/162 180/180/180 179/179/179
f 163/163/163 164/164/164 181/181/181
f 163/163/163 181/181/181 180/180/180
f 164/164/164 165/165/165 182/182/182
f 164/164/164 182/182/182 181/181/181
f 165/165/165 166/166/166 183/183/183
f 165/165/165 183/183/183 182/182/182
f 166/166/166 167/167/167 184/184/184
f 166/166/166 184/184/184 183/183/183
f 167/167/167 168/168/168 185/185/185
f 167/167/167 185/185/185 184/184/184
f 168/168/168 169/169/169 186/186/186
f 168/168/168 186/186/186 185/185/185
f 169/169/169 170/170/170 187/187/187
f 169/169/169 187/187/187 186/186/186
f 171/172/172 172/171/171 189/188/188
f 171/172/172 189/188/188 188/189/189
f 172/171/171 173/173/173 190/190/190
f 172/171/171 190/190/190 189/188/188
f 173/173/173 174/174/174 191/191/191
f 173/173/173 191/191/191 190/190/190
f 174/174/174 175/175/175 192/192/192
f 174/174/174 192/192/192 191/191/191
f 175/175/175 176/176/176 193/193/193
f 175/175/175 193/193/193 192/192/192
f 176/176/176 177/177/177 194/194/194
f 176/176/176 194/194/194 193/193/193
f 177/177/177 178/178/178 195/195/195
f 177/177/177 195/195/195 194/194/194
f 178/178/178 179/179/179 196/196/196
f 178/178/178 196/196/196 195/195/195
f 179/179/179 180/180/180 197/197/197
f 179/179/179 197/197/197 196/196/196
f 180/180/180 181/181/181 198/198/198
f 180/180/180 198/198/198 197/197/197
f 181/181/181 182/182/182 199/199/199
f 181/181/181 199/199/199 198/198/198
f 182/182/182 183/183/183 200/200/200
f 182/182/182 200/200/200 199/199/199
f 183/183/183 184/184/184 201/201/201
f 183/183/183 201/201/201 200/200/200
f 184/184/184 185/185/185 202/202/202
f 184/184/184 202/202/202 201/201/201
f 185/185/185 186/186/186 203/203/203
f 185/185/185 203/203/203 202/202/202
f 186/186/186 187/187/187 204/204/204
f 186/186/186 204/204/204 203/203/203
f 188/189/189 189/188/188 206/205/205
f 188/189/189 206/205/205 205/206/206
f 189/188/188 190/190/190 207/207/207
f 189/188/188 207/207/207 206/205/205
f 190/190/190 191/191/191 208/208/208
f 190/190/190 208/208/208 207/207/207
f 191/191/191 192/192/192 209/209/209
f 191/191/191 209/209/209 208/208/208
f 192/192/192 193/193/193 210/210/210
f 192/192/192 210/210/210 209/209/209
f 193/193/193 194/194/194 211/211/211
f 193/193/193 211/211/211 210/210/210
f 194/194/194 195/195/195 212/212/212
f 194/194/194 212/212/212 211/211/211
f 195/195/195 196/196/196 213/213/213
f 195/195/195 213/213/213 212/212/212
f 196/196/196 197/197/197 214/214/214
f 196/196/196 214/214/214 213/213/213
f 197/197/197 198/198/198 215/215/215
f 197/197/197 215/215/215 214/214/214
f 198/198/198 199/199/199 216/216/216
f 198/198/198 216/216/216 215/215/215
f 199/199/199 200/200/200 217/217/217
f 199/199/199 217/217/217 216/216/216
f 200/200/200 201/201/201 218/218/218
f 200/200/200 218/218/218 217/217/217
f 201/201/201 202/202/202 219/219/219
f 201/201/201 219/219/219 218/218/218
f 202/202/202 203/203/203 220/220/220
f 202/202/202 220/220/220 219/219/219
f 203/203/203 204/204/204 221/221/221
f 203/203/203 221/221/221 220/220/220
f 205/206/206 206/205/205 223/222/222
f 205/206/206 223/222/222 222/223/223
f 206/205/205 207/207/207 224/224/224
f 206/205/205 224/224/224 223/222/222
f 207/207/207 208/208/208 225/225/225
f 207/207/207 225/225/225 224/224/224
f 208/208/208 209/209/209 226/226/226
f 208/208/208 226/226/226 225/225/225
f 209/209/209 210/210/210 227/227/227
f 209/209/209 227/227/227 226/226/226
f 210/210/210 211/211/211 228/228/228
f 210/210/210 228/228/228 227/227/227
f 211/211/211 212/212/212 229/229/229
f 211/211/211 229/229/229 228/228/228
f 212/212/212 213/213/213 230/230/230
f 212/212/212 230/230/230 229/229/229
f 213/213/213 214/214/214 231/231/231
f 213/213/213 231/231/231 230/230/230
f 214/214/214 215/215/215 232/232/232
f 214/214/214 232/232/232 231/231/231
f 215/215/215 216/216/216 233/233/233
f 215/215/215 233/233/233 232/232/232
f 216/216/216 217/217/217 234/234/234
f 216/216/216 234/234/234 233/233/233
f 217/217/217 218/218/218 235/235/235
f 217/217/217 235/235/235 234/234/234
f 218/218/218 219/219/219 236/236/236
f 218/218/218 236/236/236 235/235/235
f 219/219/219 220/220/220 237/237/237
f 219/219/219 237/237/237 236/236/236
f 220/220/220 221/221/221 238/238/238
f 220/220/220 238/238/238 237/237/237
f 222/223/223 223/222/222 240/239/239
f 222/223/223 240/239/239 239/240/240
f 223/222/222 224/224/224 241/241/241
f 223/222/222 241/241/241 240/239/239
f 224/224/224 225/225/225 242/242/242
f 224/224/224 242/242/242 241/241/241
f 225/225/225 226/226/226 243/243/243
f 225/225/225 243/243/243 242/242/242
f 226/226/226 227/227/227 244/244/244
f 226/226/226 244/244/244 243/243/243
f 227/227/227 228/228/228 245/245/245
f 227/227/227 245/245/245 244/244/244
f 228/228/228 229/229/229 246/246/246
f 228/228/228 246/246/246 245/245/245
f 229/229/229 230/230/230 247/247/247
f 229/229/229 247/247/247 246/246/246
f 230/230/230 231/231/231 248/248/248
f 230/230/230 248/248/248 247/247/247
f 231/231/231 232/232/232 249/249/249
f 231/231/231 249/249/249 248/248/248
f 232/232/232 233/233/233 250/250/250
f 232/232/232 250/250/250 249/249/249
f 233/233/233 234/234/234 251/251/251
f 233/233/233 251/251/251 250/250/250
f 234/234/234 235/235/235 252/252/252
f 234/234/234 252/252/252 251/251/251
f 235/235/235 236/236/236 253/253/253
f 235/235/235 253/253/253 252/252/252
f 236/236/236 237/237/237 254/254/254
f 236/236/236 254/254/254 253/253/253
f 237/237/237 238/238/238 255/255/255
f 237/237/237 255/255/255 254/254/254
f 239/240/240 240/239/239 257/256/256
f 239/240/240 257/256/256 256/257/257
f 240/239/239 241/241/241 258/258/258
f 240/239/239 258/258/258 257/256/256
f 241/241/241 242/242/242 259/259/259
f 241/241/241 259/259/259 258/258/258
f 242/242/242 243/243/243 260/260/260
f 242/242/242 260/260/260 259/259/259
f 243/243/243 244/244/244 261/261/261
f 243/243/243 261/261/261 260/260/260
f 244/244/244 245/245/245 262/262/262
f 244/244/244 262/262/262 261/261/261
f 245/245/245 246/246/246 263/263/263
f 245/245/245 263/263/263 262/262/262
f 246/246/246 247/247/247 264/264/264
f 246/246/246 264/264/264 263/263/263
f 247/247/247 248/248/248 265/265/265
f 247/247/247 265/265/265 264/264/264
f 248/248/248 249/249/249 266/266/266
f 248/248/248 266/266/266 265/265/265
f 249/249/249 250/250/250 267/267/267
f 249/249/249 267/267/267 266/266/266
f 250/250/250 251/251/251 268/268/268
f 250/250/250 268/268/268 267/267/267
f 251/251/251 252/252/252 269/269/269
f 251/251/251 269/269/269 268/268/268
f 252/252/252 253/253/253 270/270/270
f 252/252/252 270/270/270 269/269/269
f 253/253/253 254/254/254 271/271/271
f 253/253/253 271/271/271 270/270/270
f 254/254/254 255/255/255 272/272/272
f 254/254/254 272/272/272 271/271/271
f 256/257/257 257/256/256 274/273/273
f 256/257/257 274/273/273 273/274/274
f 257/256/256 258/258/258 275/275/275
f 257/256/256 275/275/275 274/273/273
f 258/258/258 259/259/259 276/276/276
f 258/258/258 276/276/276 275/275/275
f 259/259/259 260/260/260 277/277/277
f 259/259/259 277/277/277 276/276/276
f 260/260/260 261/261/261 278/278/278
f 260/260/260 278/278/278 277/277/277
f 261/261/261 262/262/262 279/279/279
f 261/261/261 279/279/279 278/278/278
f 262/262/262 263/263/263 280/280/280
f 262/262/262 280/280/280 279/279/279
f 263/263/263 264/264/264 281/281/281
f 263/263/263 281/281/281 280/280/280
f 264/264/264 265/265/265 282/282/282
f 264/264/264 282/282/282 281/281/281
f 265/265/265 266/266/266 283/283/283
f 265/265/265 283/283/283 282/282/282
f 266/266/266 267/267/267 284/284/284
f 266/266/266 284/284/284 283/283/283
f 267/267/267 268/268/268 285/285/285
f 267/267/267 285/285/285 284/284/284
f 268/268/268 269/269/269 286/286/286
f 268/268/268 286/286/286 285/285/285
f 269/269/269 270/270/270 287/287/287
f 269/269/269 287/287/287 286/286/286
f 270/270/270 271/271/271 288/288/288
f 270/270/270 288/288/288 287/287/287
f 271/271/271 272/272/272 289/289/289
f 271/271/271 289/289/289 288/288/288
