mtllib terrain_mid_01_06.mtl
usemtl terrain_mid_01_06
# Blender 5.1.1
# www.blender.org
o terrain_mid_01_06
v -160.000000 -160.000000 -6.023195
v -140.000000 -160.000000 -11.148117
v -120.000000 -160.000000 -15.973350
v -100.000000 -160.000000 -20.026505
v -80.000000 -160.000000 -24.303867
v -60.000000 -160.000000 -29.297367
v -40.000000 -160.000000 -35.188324
v -20.000000 -160.000000 -41.722565
v 0.000000 -160.000000 -48.850094
v 20.000000 -160.000000 -56.192738
v 40.000000 -160.000000 -62.511196
v 60.000000 -160.000000 -65.965134
v 80.000000 -160.000000 -65.917198
v 100.000000 -160.000000 -63.646206
v 120.000000 -160.000000 -61.727932
v 140.000000 -160.000000 -61.606045
v 160.000000 -160.000000 -63.171867
v -160.000000 -140.000000 2.527858
v -140.000000 -140.000000 -1.895394
v -120.000000 -140.000000 -6.319670
v -100.000000 -140.000000 -9.880786
v -80.000000 -140.000000 -14.314549
v -60.000000 -140.000000 -19.813780
v -40.000000 -140.000000 -26.436735
v -20.000000 -140.000000 -33.720726
v 0.000000 -140.000000 -41.646313
v 20.000000 -140.000000 -50.212139
v 40.000000 -140.000000 -59.081844
v 60.000000 -140.000000 -65.999069
v 80.000000 -140.000000 -70.159836
v 100.000000 -140.000000 -72.150520
v 120.000000 -140.000000 -72.894455
v 140.000000 -140.000000 -74.087425
v 160.000000 -140.000000 -76.174217
v -160.000000 -120.000000 10.783859
v -140.000000 -120.000000 6.863840
v -120.000000 -120.000000 2.767495
v -100.000000 -120.000000 -0.626470
v -80.000000 -120.000000 -5.360427
v -60.000000 -120.000000 -11.539362
v -40.000000 -120.000000 -18.888083
v -20.000000 -120.000000 -26.820185
v 0.000000 -120.000000 -35.242363
v 20.000000 -120.000000 -44.481918
v 40.000000 -120.000000 -54.479092
v 60.000000 -120.000000 -62.881748
v 80.000000 -120.000000 -68.320961
v 100.000000 -120.000000 -72.357994
v 120.000000 -120.000000 -76.090149
v 140.000000 -120.000000 -79.911522
v 160.000000 -120.000000 -83.513527
v -160.000000 -100.000000 17.916027
v -140.000000 -100.000000 14.279181
v -120.000000 -100.000000 10.614613
v -100.000000 -100.000000 6.994889
v -80.000000 -100.000000 1.642831
v -60.000000 -100.000000 -5.018169
v -40.000000 -100.000000 -12.824196
v -20.000000 -100.000000 -21.108631
v 0.000000 -100.000000 -29.870420
v 20.000000 -100.000000 -39.609333
v 40.000000 -100.000000 -49.466919
v 60.000000 -100.000000 -56.797108
v 80.000000 -100.000000 -60.809608
v 100.000000 -100.000000 -64.689995
v 120.000000 -100.000000 -70.785980
v 140.000000 -100.000000 -77.403358
v 160.000000 -100.000000 -82.856369
v -160.000000 -80.000000 25.250866
v -140.000000 -80.000000 21.272121
v -120.000000 -80.000000 17.108824
v -100.000000 -80.000000 12.540065
v -80.000000 -80.000000 6.404638
v -60.000000 -80.000000 -0.579205
v -40.000000 -80.000000 -8.250360
v -20.000000 -80.000000 -16.569326
v 0.000000 -80.000000 -25.627104
v 20.000000 -80.000000 -35.023357
v 40.000000 -80.000000 -43.041050
v 60.000000 -80.000000 -47.599747
v 80.000000 -80.000000 -50.384422
v 100.000000 -80.000000 -53.872776
v 120.000000 -80.000000 -59.881954
v 140.000000 -80.000000 -66.326065
v 160.000000 -80.000000 -71.706924
v -160.000000 -60.000000 32.557884
v -140.000000 -60.000000 27.824492
v -120.000000 -60.000000 22.684017
v -100.000000 -60.000000 16.684420
v -80.000000 -60.000000 9.778468
v -60.000000 -60.000000 2.626348
v -40.000000 -60.000000 -4.949712
v -20.000000 -60.000000 -13.141993
v 0.000000 -60.000000 -21.528257
v 20.000000 -60.000000 -29.075264
v 40.000000 -60.000000 -34.158169
v 60.000000 -60.000000 -36.834423
v 80.000000 -60.000000 -38.994900
v 100.000000 -60.000000 -42.470634
v 120.000000 -60.000000 -47.711876
v 140.000000 -60.000000 -53.297771
v 160.000000 -60.000000 -57.939182
v -160.000000 -40.000000 39.131283
v -140.000000 -40.000000 33.717258
v -120.000000 -40.000000 27.116665
v -100.000000 -40.000000 20.025829
v -80.000000 -40.000000 12.776939
v -60.000000 -40.000000 5.401352
v -40.000000 -40.000000 -2.529112
v -20.000000 -40.000000 -10.487024
v 0.000000 -40.000000 -16.260305
v 20.000000 -40.000000 -20.282856
v 40.000000 -40.000000 -22.975319
v 60.000000 -40.000000 -24.901793
v 80.000000 -40.000000 -27.501638
v 100.000000 -40.000000 -31.423008
v 120.000000 -40.000000 -36.316978
v 140.000000 -40.000000 -41.183140
v 160.000000 -40.000000 -44.945686
v -160.000000 -20.000000 43.903355
v -140.000000 -20.000000 37.711452
v -120.000000 -20.000000 30.284189
v -100.000000 -20.000000 22.624828
v -80.000000 -20.000000 15.355739
v -60.000000 -20.000000 8.035189
v -40.000000 -20.000000 0.807907
v -20.000000 -20.000000 -5.394980
v 0.000000 -20.000000 -8.508512
v 20.000000 -20.000000 -10.285378
v 40.000000 -20.000000 -11.388565
v 60.000000 -20.000000 -12.901131
v 80.000000 -20.000000 -15.767189
v 100.000000 -20.000000 -19.997787
v 120.000000 -20.000000 -24.840370
v 140.000000 -20.000000 -29.318750
v 160.000000 -20.000000 -32.581841
v -160.000000 0.000000 46.789875
v -140.000000 0.000000 39.932961
v -120.000000 0.000000 32.240753
v -100.000000 0.000000 24.685125
v -80.000000 0.000000 17.673716
v -60.000000 0.000000 10.920734
v -40.000000 0.000000 5.314723
v -20.000000 0.000000 2.064520
v 0.000000 0.000000 0.932423
v 20.000000 0.000000 0.316591
v 40.000000 0.000000 -0.022527
v 60.000000 0.000000 -1.313939
v 80.000000 0.000000 -4.285680
v 100.000000 0.000000 -8.566224
v 120.000000 0.000000 -13.257170
v 140.000000 0.000000 -17.434050
v 160.000000 0.000000 -20.509237
v -160.000000 20.000000 47.688618
v -140.000000 20.000000 40.703289
v -120.000000 20.000000 33.391075
v -100.000000 20.000000 26.428478
v -80.000000 20.000000 20.167034
v -60.000000 20.000000 15.104650
v -40.000000 20.000000 11.982332
v -20.000000 20.000000 11.080582
v 0.000000 20.000000 10.861717
v 20.000000 20.000000 10.542839
v 40.000000 20.000000 10.447169
v 60.000000 20.000000 9.320569
v 80.000000 20.000000 6.415543
v 100.000000 20.000000 2.383245
v 120.000000 20.000000 -1.807490
v 140.000000 20.000000 -5.609912
v 160.000000 20.000000 -8.651111
v -160.000000 40.000000 47.618137
v -140.000000 40.000000 41.098972
v -120.000000 40.000000 34.502151
v -100.000000 40.000000 28.322796
v -80.000000 40.000000 23.159996
v -60.000000 40.000000 19.727646
v -40.000000 40.000000 18.669693
v -20.000000 40.000000 19.378979
v 0.000000 40.000000 19.979198
v 20.000000 40.000000 20.108841
v 40.000000 40.000000 20.028801
v 60.000000 40.000000 18.943426
v 80.000000 40.000000 16.304930
v 100.000000 40.000000 12.624029
v 120.000000 40.000000 8.759544
v 140.000000 40.000000 5.270456
v 160.000000 40.000000 2.414048
v -160.000000 60.000000 46.783794
v -140.000000 60.000000 41.158752
v -120.000000 60.000000 35.537189
v -100.000000 60.000000 30.355745
v -80.000000 60.000000 26.608953
v -60.000000 60.000000 24.741165
v -40.000000 60.000000 24.826292
v -20.000000 60.000000 26.231426
v 0.000000 60.000000 27.746727
v 20.000000 60.000000 28.250242
v 40.000000 60.000000 27.959848
v 60.000000 60.000000 26.648497
v 80.000000 60.000000 24.041256
v 100.000000 60.000000 20.529142
v 120.000000 60.000000 16.694508
v 140.000000 60.000000 13.309674
v 160.000000 60.000000 10.563696
v -160.000000 80.000000 45.207462
v -140.000000 80.000000 40.711517
v -120.000000 80.000000 36.181072
v -100.000000 80.000000 32.451527
v -80.000000 80.000000 29.995323
v -60.000000 80.000000 29.082138
v -40.000000 80.000000 29.667456
v -20.000000 80.000000 31.067961
v 0.000000 80.000000 32.732388
v 20.000000 80.000000 33.186485
v 40.000000 80.000000 32.413700
v 60.000000 80.000000 30.295704
v 80.000000 80.000000 27.127726
v 100.000000 80.000000 23.388145
v 120.000000 80.000000 19.317694
v 140.000000 80.000000 15.924911
v 160.000000 80.000000 13.106539
v -160.000000 100.000000 42.651081
v -140.000000 100.000000 39.169571
v -120.000000 100.000000 35.949463
v -100.000000 100.000000 33.591843
v -80.000000 100.000000 32.335968
v -60.000000 100.000000 32.406086
v -40.000000 100.000000 33.232162
v -20.000000 100.000000 34.222412
v 0.000000 100.000000 35.366417
v 20.000000 100.000000 35.011261
v 40.000000 100.000000 33.151825
v 60.000000 100.000000 29.952921
v 80.000000 100.000000 25.727745
v 100.000000 100.000000 21.202913
v 120.000000 100.000000 16.728142
v 140.000000 100.000000 13.200581
v 160.000000 100.000000 10.310756
v -160.000000 120.000000 39.137356
v -140.000000 120.000000 36.287060
v -120.000000 120.000000 34.418926
v -100.000000 120.000000 33.610832
v -80.000000 120.000000 33.563675
v -60.000000 120.000000 34.311375
v -40.000000 120.000000 35.294937
v -20.000000 120.000000 35.727009
v 0.000000 120.000000 35.677994
v 20.000000 120.000000 34.199192
v 40.000000 120.000000 31.139725
v 60.000000 120.000000 26.491282
v 80.000000 120.000000 21.123537
v 100.000000 120.000000 15.672921
v 120.000000 120.000000 10.635012
v 140.000000 120.000000 6.966897
v 160.000000 120.000000 4.072759
v -160.000000 140.000000 35.274570
v -140.000000 140.000000 32.745312
v -120.000000 140.000000 31.512205
v -100.000000 140.000000 31.874344
v -80.000000 140.000000 32.844212
v -60.000000 140.000000 33.769779
v -40.000000 140.000000 34.256798
v -20.000000 140.000000 34.207764
v 0.000000 140.000000 33.333069
v 20.000000 140.000000 31.327072
v 40.000000 140.000000 27.505417
v 60.000000 140.000000 22.107662
v 80.000000 140.000000 15.923050
v 100.000000 140.000000 9.813262
v 120.000000 140.000000 3.874833
v 140.000000 140.000000 -0.155648
v 160.000000 140.000000 -3.125808
v -160.000000 160.000000 31.140549
v -140.000000 160.000000 28.476093
v -120.000000 160.000000 27.363531
v -100.000000 160.000000 28.357777
v -80.000000 160.000000 29.989155
v -60.000000 160.000000 31.083250
v -40.000000 160.000000 31.414225
v -20.000000 160.000000 31.086170
v 0.000000 160.000000 29.863018
v 20.000000 160.000000 27.634031
v 40.000000 160.000000 23.814114
v 60.000000 160.000000 18.184990
v 80.000000 160.000000 11.682985
v 100.000000 160.000000 5.014091
v 120.000000 160.000000 -1.657652
v 140.000000 160.000000 -6.656078
v 160.000000 160.000000 -10.553146
vn 0.2241 -0.3797 0.8975
vn 0.2207 -0.4052 0.8872
vn 0.1978 -0.4025 0.8938
vn 0.1934 -0.3800 0.9045
vn 0.1960 -0.4264 0.8830
vn 0.1779 -0.4175 0.8911
vn 0.1824 -0.4468 0.8758
vn 0.1770 -0.4295 0.8855
vn 0.2026 -0.4411 0.8743
vn 0.2190 -0.4176 0.8819
vn 0.2378 -0.4237 0.8740
vn 0.2670 -0.3910 0.8808
vn 0.2720 -0.3990 0.8757
vn 0.3063 -0.3593 0.8815
vn 0.3003 -0.3700 0.8792
vn 0.3356 -0.3289 0.8827
vn 0.3221 -0.3215 0.8904
vn 0.3635 -0.3001 0.8819
vn 0.3134 -0.2438 0.9178
vn 0.3859 -0.2593 0.8854
vn 0.2365 -0.0836 0.9680
vn 0.3609 -0.1836 0.9144
vn 0.0845 0.0964 0.9918
vn 0.2662 -0.0741 0.9611
vn -0.0555 0.2859 0.9566
vn 0.1517 0.0593 0.9866
vn -0.0944 0.4224 0.9015
vn 0.0666 0.2123 0.9749
vn -0.0442 0.4971 0.8665
vn 0.0455 0.3376 0.9402
vn 0.0306 0.5293 0.8479
vn 0.0744 0.4150 0.9068
vn 0.0888 0.5354 0.8399
vn 0.1113 0.4505 0.8858
vn 0.1827 -0.3685 0.9115
vn 0.1718 -0.3537 0.9194
vn 0.1699 -0.3842 0.9075
vn 0.1840 -0.3821 0.9056
vn 0.2456 -0.3592 0.9004
vn 0.3023 -0.3307 0.8940
vn 0.3401 -0.3030 0.8903
vn 0.3633 -0.2802 0.8886
vn 0.3899 -0.2600 0.8834
vn 0.4215 -0.2324 0.8765
vn 0.4083 -0.2134 0.8876
vn 0.3196 -0.2124 0.9234
vn 0.2248 -0.2218 0.9488
vn 0.1875 -0.1801 0.9656
vn 0.1853 -0.0517 0.9813
vn 0.1819 0.0812 0.9800
vn 0.1775 0.1621 0.9707
vn 0.1693 -0.3340 0.9273
vn 0.1755 -0.3348 0.9258
vn 0.1690 -0.3327 0.9278
vn 0.2084 -0.3058 0.9290
vn 0.2769 -0.2711 0.9219
vn 0.3294 -0.2495 0.9106
vn 0.3623 -0.2395 0.9007
vn 0.3815 -0.2295 0.8954
vn 0.4101 -0.2132 0.8868
vn 0.4303 -0.2077 0.8784
vn 0.3818 -0.2541 0.8886
vn 0.2560 -0.3450 0.9030
vn 0.1772 -0.4027 0.8980
vn 0.2208 -0.4091 0.8854
vn 0.2825 -0.3603 0.8890
vn 0.2747 -0.3092 0.9104
vn 0.2390 -0.2749 0.9313
vn 0.1893 -0.3149 0.9300
vn 0.1924 -0.3373 0.9215
vn 0.2046 -0.2827 0.9371
vn 0.2516 -0.2279 0.9406
vn 0.3060 -0.1898 0.9329
vn 0.3386 -0.1767 0.9242
vn 0.3652 -0.1799 0.9134
vn 0.3920 -0.1797 0.9023
vn 0.4116 -0.1861 0.8922
vn 0.3880 -0.2347 0.8913
vn 0.2817 -0.3429 0.8961
vn 0.1621 -0.4406 0.8829
vn 0.1364 -0.4743 0.8697
vn 0.2032 -0.4755 0.8559
vn 0.2603 -0.4825 0.8363
vn 0.2454 -0.5004 0.8303
vn 0.2050 -0.5175 0.8308
vn 0.2294 -0.2891 0.9294
vn 0.2192 -0.3199 0.9218
vn 0.2608 -0.2343 0.9365
vn 0.3023 -0.1754 0.9369
vn 0.3279 -0.1486 0.9330
vn 0.3422 -0.1389 0.9293
vn 0.3636 -0.1319 0.9222
vn 0.3792 -0.1391 0.9148
vn 0.3616 -0.2126 0.9078
vn 0.2841 -0.3315 0.8997
vn 0.1708 -0.4418 0.8807
vn 0.1047 -0.4909 0.8649
vn 0.1214 -0.4929 0.8616
vn 0.1867 -0.4808 0.8567
vn 0.2273 -0.4940 0.8392
vn 0.2115 -0.5202 0.8274
vn 0.1734 -0.5476 0.8186
vn 0.2799 -0.2303 0.9320
vn 0.2415 -0.2648 0.9336
vn 0.3187 -0.1769 0.9312
vn 0.3342 -0.1385 0.9323
vn 0.3405 -0.1299 0.9312
vn 0.3546 -0.1253 0.9266
vn 0.3659 -0.1326 0.9212
vn 0.3193 -0.1802 0.9303
vn 0.2268 -0.3014 0.9261
vn 0.1501 -0.4203 0.8949
vn 0.0999 -0.4922 0.8647
vn 0.0966 -0.5110 0.8541
vn 0.1396 -0.4973 0.8563
vn 0.1887 -0.4810 0.8562
vn 0.2070 -0.4858 0.8492
vn 0.1819 -0.5056 0.8434
vn 0.1476 -0.5296 0.8353
vn 0.3189 -0.1455 0.9366
vn 0.2708 -0.1810 0.9455
vn 0.3504 -0.1190 0.9290
vn 0.3476 -0.1085 0.9314
vn 0.3404 -0.1143 0.9333
vn 0.3390 -0.1286 0.9320
vn 0.3129 -0.1828 0.9320
vn 0.2169 -0.2923 0.9314
vn 0.1116 -0.3924 0.9130
vn 0.0639 -0.4569 0.8872
vn 0.0566 -0.4969 0.8660
vn 0.0939 -0.5057 0.8576
vn 0.1516 -0.4962 0.8549
vn 0.1932 -0.4868 0.8519
vn 0.1979 -0.4896 0.8492
vn 0.1642 -0.5036 0.8482
vn 0.1285 -0.5170 0.8463
vn 0.3410 -0.0701 0.9375
vn 0.3011 -0.0898 0.9493
vn 0.3553 -0.0724 0.9320
vn 0.3408 -0.0890 0.9359
vn 0.3233 -0.1130 0.9395
vn 0.2911 -0.1665 0.9421
vn 0.2085 -0.2632 0.9419
vn 0.1008 -0.3789 0.9199
vn 0.0393 -0.4355 0.8993
vn 0.0212 -0.4617 0.8868
vn 0.0358 -0.4788 0.8772
vn 0.0927 -0.4836 0.8704
vn 0.1566 -0.4790 0.8637
vn 0.1921 -0.4792 0.8564
vn 0.1887 -0.4900 0.8510
vn 0.1541 -0.5038 0.8500
vn 0.1195 -0.5097 0.8520
vn 0.3364 -0.0275 0.9413
vn 0.3119 -0.0197 0.9499
vn 0.3356 -0.0532 0.9405
vn 0.3127 -0.0860 0.9459
vn 0.2701 -0.1308 0.9539
vn 0.1959 -0.2109 0.9577
vn 0.0950 -0.3152 0.9442
vn 0.0257 -0.3971 0.9174
vn 0.0122 -0.4299 0.9028
vn 0.0093 -0.4434 0.8963
vn 0.0274 -0.4479 0.8937
vn 0.0896 -0.4500 0.8885
vn 0.1523 -0.4524 0.8787
vn 0.1787 -0.4606 0.8694
vn 0.1725 -0.4750 0.8629
vn 0.1472 -0.4883 0.8602
vn 0.1216 -0.4935 0.8612
vn 0.3116 -0.0108 0.9502
vn 0.2999 0.0216 0.9537
vn 0.3038 -0.0511 0.9514
vn 0.2716 -0.0940 0.9578
vn 0.2075 -0.1555 0.9658
vn 0.1085 -0.2328 0.9664
vn 0.0083 -0.3057 0.9521
vn -0.0306 -0.3541 0.9347
vn -0.0168 -0.3888 0.9212
vn -0.0011 -0.4048 0.9144
vn 0.0267 -0.4009 0.9157
vn 0.0851 -0.3960 0.9143
vn 0.1431 -0.3991 0.9057
vn 0.1693 -0.4072 0.8975
vn 0.1646 -0.4140 0.8953
vn 0.1420 -0.4232 0.8948
vn 0.1282 -0.4294 0.8940
vn 0.2706 0.0092 0.9627
vn 0.2680 0.0580 0.9617
vn 0.2605 -0.0405 0.9646
vn 0.2167 -0.1002 0.9711
vn 0.1370 -0.1669 0.9764
vn 0.0434 -0.2275 0.9728
vn -0.0358 -0.2650 0.9636
vn -0.0699 -0.2798 0.9575
vn -0.0480 -0.3034 0.9516
vn -0.0051 -0.3108 0.9505
vn 0.0382 -0.2955 0.9546
vn 0.0938 -0.2718 0.9578
vn 0.1461 -0.2584 0.9549
vn 0.1746 -0.2559 0.9508
vn 0.1719 -0.2514 0.9525
vn 0.1465 -0.2546 0.9559
vn 0.1417 -0.2556 0.9563
vn 0.2198 0.0484 0.9743
vn 0.2221 0.1002 0.9699
vn 0.2022 -0.0101 0.9793
vn 0.1524 -0.0797 0.9851
vn 0.0831 -0.1412 0.9865
vn 0.0081 -0.1882 0.9821
vn -0.0486 -0.2054 0.9775
vn -0.0749 -0.1953 0.9779
vn -0.0519 -0.1869 0.9810
vn 0.0079 -0.1666 0.9860
vn 0.0715 -0.1284 0.9891
vn 0.1306 -0.0816 0.9881
vn 0.1701 -0.0415 0.9846
vn 0.1916 -0.0165 0.9813
vn 0.1834 -0.0009 0.9830
vn 0.1535 0.0028 0.9881
vn 0.1516 0.0062 0.9884
vn 0.1642 0.1084 0.9804
vn 0.1860 0.1474 0.9714
vn 0.1379 0.0435 0.9895
vn 0.0899 -0.0288 0.9955
vn 0.0295 -0.0888 0.9956
vn -0.0223 -0.1296 0.9913
vn -0.0450 -0.1391 0.9893
vn -0.0529 -0.1155 0.9919
vn -0.0197 -0.0734 0.9971
vn 0.0552 -0.0253 0.9982
vn 0.1254 0.0316 0.9916
vn 0.1817 0.0931 0.9789
vn 0.2114 0.1450 0.9666
vn 0.2157 0.1849 0.9588
vn 0.1919 0.2082 0.9591
vn 0.1547 0.2159 0.9641
vn 0.1469 0.2179 0.9649
vn 0.1156 0.1575 0.9807
vn 0.1673 0.1788 0.9696
vn 0.0664 0.1101 0.9917
vn 0.0214 0.0429 0.9989
vn -0.0175 -0.0127 0.9998
vn -0.0433 -0.0340 0.9985
vn -0.0353 -0.0256 0.9990
vn -0.0096 0.0004 1.0000
vn 0.0381 0.0507 0.9980
vn 0.1123 0.0912 0.9895
vn 0.1874 0.1373 0.9726
vn 0.2386 0.1869 0.9530
vn 0.2541 0.2302 0.9394
vn 0.2443 0.2653 0.9327
vn 0.2029 0.2995 0.9323
vn 0.1538 0.3130 0.9372
vn 0.1345 0.3155 0.9393
vn 0.0920 0.1909 0.9773
vn 0.1579 0.1936 0.9683
vn 0.0214 0.1737 0.9846
vn -0.0330 0.1302 0.9909
vn -0.0471 0.0889 0.9949
vn -0.0351 0.0804 0.9961
vn -0.0109 0.0965 0.9953
vn 0.0229 0.1152 0.9931
vn 0.0711 0.1435 0.9871
vn 0.1423 0.1603 0.9768
vn 0.2211 0.1757 0.9593
vn 0.2727 0.1956 0.9420
vn 0.2865 0.2200 0.9325
vn 0.2799 0.2475 0.9276
vn 0.2319 0.2860 0.9297
vn 0.1635 0.3181 0.9339
vn 0.1302 0.3405 0.9312
vn 0.0916 0.2224 0.9706
vn 0.1601 0.2047 0.9656
vn 0.0029 0.2333 0.9724
vn -0.0639 0.2165 0.9742
vn -0.0667 0.1926 0.9790
vn -0.0350 0.1806 0.9829
vn -0.0001 0.1787 0.9839
vn 0.0381 0.1826 0.9824
vn 0.0844 0.1903 0.9781
vn 0.1468 0.1908 0.9706
vn 0.2265 0.1769 0.9578
vn 0.2861 0.1671 0.9435
vn 0.3081 0.1711 0.9358
vn 0.3106 0.1908 0.9312
vn 0.2730 0.2234 0.9357
vn 0.2080 0.2854 0.9356
vn 0.1571 0.3356 0.9288
vt 0.015625 0.015625
vt 0.076172 0.015625
vt 0.076172 0.076172
vt 0.015625 0.076172
vt 0.136719 0.015625
vt 0.136719 0.076172
vt 0.197266 0.015625
vt 0.197266 0.076172
vt 0.257812 0.015625
vt 0.257812 0.076172
vt 0.318359 0.015625
vt 0.318359 0.076172
vt 0.378906 0.015625
vt 0.378906 0.076172
vt 0.439453 0.015625
vt 0.439453 0.076172
vt 0.500000 0.015625
vt 0.500000 0.076172
vt 0.560547 0.015625
vt 0.560547 0.076172
vt 0.621094 0.015625
vt 0.621094 0.076172
vt 0.681641 0.015625
vt 0.681641 0.076172
vt 0.742188 0.015625
vt 0.742188 0.076172
vt 0.802734 0.015625
vt 0.802734 0.076172
vt 0.863281 0.015625
vt 0.863281 0.076172
vt 0.923828 0.015625
vt 0.923828 0.076172
vt 0.984375 0.015625
vt 0.984375 0.076172
vt 0.076172 0.136719
vt 0.015625 0.136719
vt 0.136719 0.136719
vt 0.197266 0.136719
vt 0.257812 0.136719
vt 0.318359 0.136719
vt 0.378906 0.136719
vt 0.439453 0.136719
vt 0.500000 0.136719
vt 0.560547 0.136719
vt 0.621094 0.136719
vt 0.681641 0.136719
vt 0.742188 0.136719
vt 0.802734 0.136719
vt 0.863281 0.136719
vt 0.923828 0.136719
vt 0.984375 0.136719
vt 0.076172 0.197266
vt 0.015625 0.197266
vt 0.136719 0.197266
vt 0.197266 0.197266
vt 0.257812 0.197266
vt 0.318359 0.197266
vt 0.378906 0.197266
vt 0.439453 0.197266
vt 0.500000 0.197266
vt 0.560547 0.197266
vt 0.621094 0.197266
vt 0.681641 0.197266
vt 0.742188 0.197266
vt 0.802734 0.197266
vt 0.863281 0.197266
vt 0.923828 0.197266
vt 0.984375 0.197266
vt 0.076172 0.257812
vt 0.015625 0.257812
vt 0.136719 0.257812
vt 0.197266 0.257812
vt 0.257812 0.257812
vt 0.318359 0.257812
vt 0.378906 0.257812
vt 0.439453 0.257812
vt 0.500000 0.257812
vt 0.560547 0.257812
vt 0.621094 0.257812
vt 0.681641 0.257812
vt 0.742188 0.257812
vt 0.802734 0.257812
vt 0.863281 0.257812
vt 0.923828 0.257812
vt 0.984375 0.257812
vt 0.076172 0.318359
vt 0.015625 0.318359
vt 0.136719 0.318359
vt 0.197266 0.318359
vt 0.257812 0.318359
vt 0.318359 0.318359
vt 0.378906 0.318359
vt 0.439453 0.318359
vt 0.500000 0.318359
vt 0.560547 0.318359
vt 0.621094 0.318359
vt 0.681641 0.318359
vt 0.742188 0.318359
vt 0.802734 0.318359
vt 0.863281 0.318359
vt 0.923828 0.318359
vt 0.984375 0.318359
vt 0.076172 0.378906
vt 0.015625 0.378906
vt 0.136719 0.378906
vt 0.197266 0.378906
vt 0.257812 0.378906
vt 0.318359 0.378906
vt 0.378906 0.378906
vt 0.439453 0.378906
vt 0.500000 0.378906
vt 0.560547 0.378906
vt 0.621094 0.378906
vt 0.681641 0.378906
vt 0.742188 0.378906
vt 0.802734 0.378906
vt 0.863281 0.378906
vt 0.923828 0.378906
vt 0.984375 0.378906
vt 0.076172 0.439453
vt 0.015625 0.439453
vt 0.136719 0.439453
vt 0.197266 0.439453
vt 0.257812 0.439453
vt 0.318359 0.439453
vt 0.378906 0.439453
vt 0.439453 0.439453
vt 0.500000 0.439453
vt 0.560547 0.439453
vt 0.621094 0.439453
vt 0.681641 0.439453
vt 0.742188 0.439453
vt 0.802734 0.439453
vt 0.863281 0.439453
vt 0.923828 0.439453
vt 0.984375 0.439453
vt 0.076172 0.500000
vt 0.015625 0.500000
vt 0.136719 0.500000
vt 0.197266 0.500000
vt 0.257812 0.500000
vt 0.318359 0.500000
vt 0.378906 0.500000
vt 0.439453 0.500000
vt 0.500000 0.500000
vt 0.560547 0.500000
vt 0.621094 0.500000
vt 0.681641 0.500000
vt 0.742188 0.500000
vt 0.802734 0.500000
vt 0.863281 0.500000
vt 0.923828 0.500000
vt 0.984375 0.500000
vt 0.076172 0.560547
vt 0.015625 0.560547
vt 0.136719 0.560547
vt 0.197266 0.560547
vt 0.257812 0.560547
vt 0.318359 0.560547
vt 0.378906 0.560547
vt 0.439453 0.560547
vt 0.500000 0.560547
vt 0.560547 0.560547
vt 0.621094 0.560547
vt 0.681641 0.560547
vt 0.742188 0.560547
vt 0.802734 0.560547
vt 0.863281 0.560547
vt 0.923828 0.560547
vt 0.984375 0.560547
vt 0.076172 0.621094
vt 0.015625 0.621094
vt 0.136719 0.621094
vt 0.197266 0.621094
vt 0.257812 0.621094
vt 0.318359 0.621094
vt 0.378906 0.621094
vt 0.439453 0.621094
vt 0.500000 0.621094
vt 0.560547 0.621094
vt 0.621094 0.621094
vt 0.681641 0.621094
vt 0.742188 0.621094
vt 0.802734 0.621094
vt 0.863281 0.621094
vt 0.923828 0.621094
vt 0.984375 0.621094
vt 0.076172 0.681641
vt 0.015625 0.681641
vt 0.136719 0.681641
vt 0.197266 0.681641
vt 0.257812 0.681641
vt 0.318359 0.681641
vt 0.378906 0.681641
vt 0.439453 0.681641
vt 0.500000 0.681641
vt 0.560547 0.681641
vt 0.621094 0.681641
vt 0.681641 0.681641
vt 0.742188 0.681641
vt 0.802734 0.681641
vt 0.863281 0.681641
vt 0.923828 0.681641
vt 0.984375 0.681641
vt 0.076172 0.742188
vt 0.015625 0.742188
vt 0.136719 0.742188
vt 0.197266 0.742188
vt 0.257812 0.742188
vt 0.318359 0.742188
vt 0.378906 0.742188
vt 0.439453 0.742188
vt 0.500000 0.742188
vt 0.560547 0.742188
vt 0.621094 0.742188
vt 0.681641 0.742188
vt 0.742188 0.742188
vt 0.802734 0.742188
vt 0.863281 0.742188
vt 0.923828 0.742188
vt 0.984375 0.742188
vt 0.076172 0.802734
vt 0.015625 0.802734
vt 0.136719 0.802734
vt 0.197266 0.802734
vt 0.257812 0.802734
vt 0.318359 0.802734
vt 0.378906 0.802734
vt 0.439453 0.802734
vt 0.500000 0.802734
vt 0.560547 0.802734
vt 0.621094 0.802734
vt 0.681641 0.802734
vt 0.742188 0.802734
vt 0.802734 0.802734
vt 0.863281 0.802734
vt 0.923828 0.802734
vt 0.984375 0.802734
vt 0.076172 0.863281
vt 0.015625 0.863281
vt 0.136719 0.863281
vt 0.197266 0.863281
vt 0.257812 0.863281
vt 0.318359 0.863281
vt 0.378906 0.863281
vt 0.439453 0.863281
vt 0.500000 0.863281
vt 0.560547 0.863281
vt 0.621094 0.863281
vt 0.681641 0.863281
vt 0.742188 0.863281
vt 0.802734 0.863281
vt 0.863281 0.863281
vt 0.923828 0.863281
vt 0.984375 0.863281
vt 0.076172 0.923828
vt 0.015625 0.923828
vt 0.136719 0.923828
vt 0.197266 0.923828
vt 0.257812 0.923828
vt 0.318359 0.923828
vt 0.378906 0.923828
vt 0.439453 0.923828
vt 0.500000 0.923828
vt 0.560547 0.923828
vt 0.621094 0.923828
vt 0.681641 0.923828
vt 0.742188 0.923828
vt 0.802734 0.923828
vt 0.863281 0.923828
vt 0.923828 0.923828
vt 0.984375 0.923828
vt 0.076172 0.984375
vt 0.015625 0.984375
vt 0.136719 0.984375
vt 0.197266 0.984375
vt 0.257812 0.984375
vt 0.318359 0.984375
vt 0.378906 0.984375
vt 0.439453 0.984375
vt 0.500000 0.984375
vt 0.560547 0.984375
vt 0.621094 0.984375
vt 0.681641 0.984375
vt 0.742188 0.984375
vt 0.802734 0.984375
vt 0.863281 0.984375
vt 0.923828 0.984375
vt 0.984375 0.984375
s 1
f 1/1/1 2/2/2 19/3/3
f 1/1/1 19/3/3 18/4/4
f 2/2/2 3/5/5 20/6/6
f 2/2/2 20/6/6 19/3/3
f 3/5/5 4/7/7 21/8/8
f 3/5/5 21/8/8 20/6/6
f 4/7/7 5/9/9 22/10/10
f 4/7/7 22/10/10 21/8/8
f 5/9/9 6/11/11 23/12/12
f 5/9/9 23/12/12 22/10/10
f 6/11/11 7/13/13 24/14/14
f 6/11/11 24/14/14 23/12/12
f 7/13/13 8/15/15 25/16/16
f 7/13/13 25/16/16 24/14/14
f 8/15/15 9/17/17 26/18/18
f 8/15/15 26/18/18 25/16/16
f 9/17/17 10/19/19 27/20/20
f 9/17/17 27/20/20 26/18/18
f 10/19/19 11/21/21 28/22/22
f 10/19/19 28/22/22 27/20/20
f 11/21/21 12/23/23 29/24/24
f 11/21/21 29/24/24 28/22/22
f 12/23/23 13/25/25 30/26/26
f 12/23/23 30/26/26 29/24/24
f 13/25/25 14/27/27 31/28/28
f 13/25/25 31/28/28 30/26/26
f 14/27/27 15/29/29 32/30/30
f 14/27/27 32/30/30 31/28/28
f 15/29/29 16/31/31 33/32/32
f 15/29/29 33/32/32 32/30/30
f 16/31/31 17/33/33 34/34/34
f 16/31/31 34/34/34 33/32/32
f 18/4/4 19/3/3 36/35/35
f 18/4/4 36/35/35 35/36/36
f 19/3/3 20/6/6 37/37/37
f 19/3/3 37/37/37 36/35/35
f 20/6/6 21/8/8 38/38/38
f 20/6/6 38/38/38 37/37/37
f 21/8/8 22/10/10 39/39/39
f 21/8/8 39/39/39 38/38/38
f 22/10/10 23/12/12 40/40/40
f 22/10/10 40/40/40 39/39/39
f 23/12/12 24/14/14 41/41/41
f 23/12/12 41/41/41 40/40/40
f 24/14/14 25/16/16 42/42/42
f 24/14/14 42/42/42 41/41/41
f 25/16/16 26/18/18 43/43/43
f 25/16/16 43/43/43 42/42/42
f 26/18/18 27/20/20 44/44/44
f 26/18/18 44/44/44 43/43/43
f 27/20/20 28/22/22 45/45/45
f 27/20/20 45/45/45 44/44/44
f 28/22/22 29/24/24 46/46/46
f 28/22/22 46/46/46 45/45/45
f 29/24/24 30/26/26 47/47/47
f 29/24/24 47/47/47 46/46/46
f 30/26/26 31/28/28 48/48/48
f 30/26/26 48/48/48 47/47/47
f 31/28/28 32/30/30 49/49/49
f 31/28/28 49/49/49 48/48/48
f 32/30/30 33/32/32 50/50/50
f 32/30/30 50/50/50 49/49/49
f 33/32/32 34/34/34 51/51/51
f 33/32/32 51/51/51 50/50/50
f 35/36/36 36/35/35 53/52/52
f 35/36/36 53/52/52 52/53/53
f 36/35/35 37/37/37 54/54/54
f 36/35/35 54/54/54 53/52/52
f 37/37/37 38/38/38 55/55/55
f 37/37/37 55/55/55 54/54/54
f 38/38/38 39/39/39 56/56/56
f 38/38/38 56/56/56 55/55/55
f 39/39/39 40/40/40 57/57/57
f 39/39/39 57/57/57 56/56/56
f 40/40/40 41/41/41 58/58/58
f 40/40/40 58/58/58 57/57/57
f 41/41/41 42/42/42 59/59/59
f 41/41/41 59/59/59 58/58/58
f 42/42/42 43/43/43 60/60/60
f 42/42/42 60/60/60 59/59/59
f 43/43/43 44/44/44 61/61/61
f 43/43/43 61/61/61 60/60/60
f 44/44/44 45/45/45 62/62/62
f 44/44/44 62/62/62 61/61/61
f 45/45/45 46/46/46 63/63/63
f 45/45/45 63/63/63 62/62/62
f 46/46/46 47/47/47 64/64/64
f 46/46/46 64/64/64 63/63/63
f 47/47/47 48/48/48 65/65/65
f 47/47/47 65/65/65 64/64/64
f 48/48/48 49/49/49 66/66/66
f 48/48/48 66/66/66 65/65/65
f 49/49/49 50/50/50 67/67/67
f 49/49/49 67/67/67 66/66/66
f 50/50/50 51/51/51 68/68/68
f 50/50/50 68/68/68 67/67/67
f 52/53/53 53/52/52 70/69/69
f 52/53/53 70/69/69 69/70/70
f 53/52/52 54/54/54 71/71/71
f 53/52/52 71/71/71 70/69/69
f 54/54/54 55/55/55 72/72/72
f 54/54/54 72/72/72 71/71/71
f 55/55/55 56/56/56 73/73/73
f 55/55/55 73/73/73 72/72/72
f 56/56/56 57/57/57 74/74/74
f 56/56/56 74/74/74 73/73/73
f 57/57/57 58/58/58 75/75/75
f 57/57/57 75/75/75 74/74/74
f 58/58/58 59/59/59 76/76/76
f 58/58/58 76/76/76 75/75/75
f 59/59/59 60/60/60 77/77/77
f 59/59/59 77/77/77 76/76/76
f 60/60/60 61/61/61 78/78/78
f 60/60/60 78/78/78 77/77/77
f 61/61/61 62/62/62 79/79/79
f 61/61/61 79/79/79 78/78/78
f 62/62/62 63/63/63 80/80/80
f 62/62/62 80/80/80 79/79/79
f 63/63/63 64/64/64 81/81/81
f 63/63/63 81/81/81 80/80/80
f 64/64/64 65/65/65 82/82/82
f 64/64/64 82/82/82 81/81/81
f 65/65/65 66/66/66 83/83/83
f 65/65/65 83/83/83 82/82/82
f 66/66/66 67/67/67 84/84/84
f 66/66/66 84/84/84 83/83/83
f 67/67/67 68/68/68 85/85/85
f 67/67/67 85/85/85 84/84/84
f 69/70/70 70/69/69 87/86/86
f 69/70/70 87/86/86 86/87/87
f 70/69/69 71/71/71 88/88/88
f 70/69/69 88/88/88 87/86/86
f 71/71/71 72/72/72 89/89/89
f 71/71/71 89/89/89 88/88/88
f 72/72/72 73/73/73 90/90/90
f 72/72/72 90/90/90 89/89/89
f 73/73/73 74/74/74 91/91/91
f 73/73/73 91/91/91 90/90/90
f 74/74/74 75/75/75 92/92/92
f 74/74/74 92/92/92 91/91/91
f 75/75/75 76/76/76 93/93/93
f 75/75/75 93/93/93 92/92/92
f 76/76/76 77/77/77 94/94/94
f 76/76/76 94/94/94 93/93/93
f 77/77/77 78/78/78 95/95/95
f 77/77/77 95/95/95 94/94/94
f 78/78/78 79/79/79 96/96/96
f 78/78/78 96/96/96 95/95/95
f 79/79/79 80/80/80 97/97/97
f 79/79/79 97/97/97 96/96/96
f 80/80/80 81/81/81 98/98/98
f 80/80/80 98/98/98 97/97/97
f 81/81/81 82/82/82 99/99/99
f 81/81/81 99/99/99 98/98/98
f 82/82/82 83/83/83 100/100/100
f 82/82/82 100/100/100 99/99/99
f 83/83/83 84/84/84 101/101/101
f 83/83/83 101/101/101 100/100/100
f 84/84/84 85/85/85 102/102/102
f 84/84/84 102/102/102 101/101/101
f 86/87/87 87/86/86 104/103/103
f 86/87/87 104/103/103 103/104/104
f 87/86/86 88/88/88 105/105/105
f 87/86/86 105/105/105 104/103/103
f 88/88/88 89/89/89 106/106/106
f 88/88/88 106/106/106 105/105/105
f 89/89/89 90/90/90 107/107/107
f 89/89/89 107/107/107 106/106/106
f 90/90/90 91/91/91 108/108/108
f 90/90/90 108/108/108 107/107/107
f 91/91/91 92/92/92 109/109/109
f 91/91/91 109/109/109 108/108/108
f 92/92/92 93/93/93 110/110/110
f 92/92/92 110/110/110 109/109/109
f 93/93/93 94/94/94 111/111/111
f 93/93/93 111/111/111 110/110/110
f 94/94/94 95/95/95 112/112/112
f 94/94/94 112/112/112 111/111/111
f 95/95/95 96/96/96 113/113/113
f 95/95/95 113/113/113 112/112/112
f 96/96/96 97/97/97 114/114/114
f 96/96/96 114/114/114 113/113/113
f 97/97/97 98/98/98 115/115/115
f 97/97/97 115/115/115 114/114/114
f 98/98/98 99/99/99 116/116/116
f 98/98/98 116/116/116 115/115/115
f 99/99/99 100/100/100 117/117/117
f 99/99/99 117/117/117 116/116/116
f 100/100/100 101/101/101 118/118/118
f 100/100/100 118/118/118 117/117/117
f 101/101/101 102/102/102 119/119/119
f 101/101/101 119/119/119 118/118/118
f 103/104/104 104/103/103 121/120/120
f 103/104/104 121/120/120 120/121/121
f 104/103/103 105/105/105 122/122/122
f 104/103/103 122/122/122 121/120/120
f 105/105/105 106/106/106 123/123/123
f 105/105/105 123/123/123 122/122/122
f 106/106/106 107/107/107 124/124/124
f 106/106/106 124/124/124 123/123/123
f 107/107/107 108/108/108 125/125/125
f 107/107/107 125/125/125 124/124/124
f 108/108/108 109/109/109 126/126/126
f 108/108/108 126/126/126 125/125/125
f 109/109/109 110/110/110 127/127/127
f 109/109/109 127/127/127 126/126/126
f 110/110/110 111/111/111 128/128/128
f 110/110/110 128/128/128 127/127/127
f 111/111/111 112/112/112 129/129/129
f 111/111/111 129/129/129 128/128/128
f 112/112/112 113/113/113 130/130/130
f 112/112/112 130/130/130 129/129/129
f 113/113/113 114/114/114 131/131/131
f 113/113/113 131/131/131 130/130/130
f 114/114/114 115/115/115 132/132/132
f 114/114/114 132/132/132 131/131/131
f 115/115/115 116/116/116 133/133/133
f 115/115/115 133/133/133 132/132/132
f 116/116/116 117/117/117 134/134/134
f 116/116/116 134/134/134 133/133/133
f 117/117/117 118/118/118 135/135/135
f 117/117/117 135/135/135 134/134/134
f 118/118/118 119/119/119 136/136/136
f 118/118/118 136/136/136 135/135/135
f 120/121/121 121/120/120 138/137/137
f 120/121/121 138/137/137 137/138/138
f 121/120/120 122/122/122 139/139/139
f 121/120/120 139/139/139 138/137/137
f 122/122/122 123/123/123 140/140/140
f 122/122/122 140/140/140 139/139/139
f 123/123/123 124/124/124 141/141/141
f 123/123/123 141/141/141 140/140/140
f 124/124/124 125/125/125 142/142/142
f 124/124/124 142/142/142 141/141/141
f 125/125/125 126/126/126 143/143/143
f 125/125/125 143/143/143 142/142/142
f 126/126/126 127/127/127 144/144/144
f 126/126/126 144/144/144 143/143/143
f 127/127/127 128/128/128 145/145/145
f 127/127/127 145/145/145 144/144/144
f 128/128/128 129/129/129 146/146/146
f 128/128/128 146/146/146 145/145/145
f 129/129/129 130/130/130 147/147/147
f 129/129/129 147/147/147 146/146/146
f 130/130/130 131/131/131 148/148/148
f 130/130/130 148/148/148 147/147/147
f 131/131/131 132/132/132 149/149/149
f 131/131/131 149/149/149 148/148/148
f 132/132/132 133/133/133 150/150/150
f 132/132/132 150/150/150 149/149/149
f 133/133/133 134/134/134 151/151/151
f 133/133/133 151/151/151 150/150/150
f 134/134/134 135/135/135 152/152/152
f 134/134/134 152/152/152 151/151/151
f 135/135/135 136/136/136 153/153/153
f 135/135/135 153/153/153 152/152/152
f 137/138/138 138/137/137 155/154/154
f 137/138/138 155/154/154 154/155/155
f 138/137/137 139/139/139 156/156/156
f 138/137/137 156/156/156 155/154/154
f 139/139/139 140/140/140 157/157/157
f 139/139/139 157/157/157 156/156/156
f 140/140/140 141/141/141 158/158/158
f 140/140/140 158/158/158 157/157/157
f 141/141/141 142/142/142 159/159/159
f 141/141/141 159/159/159 158/158/158
f 142/142/142 143/143/143 160/160/160
f 142/142/142 160/160/160 159/159/159
f 143/143/143 144/144/144 161/161/161
f 143/143/143 161/161/161 160/160/160
f 144/144/144 145/145/145 162/162/162
f 144/144/144 162/162/162 161/161/161
f 145/145/145 146/146/146 163/163/163
f 145/145/145 163/163/163 162/162/162
f 146/146/146 147/147/147 164/164/164
f 146/146/146 164/164/164 163/163/163
f 147/147/147 148/148/148 165/165/165
f 147/147/147 165/165/165 164/164/164
f 148/148/148 149/149/149 166/166/166
f 148/148/148 166/166/166 165/165/165
f 149/149/149 150/150/150 167/167/167
f 149/149/149 167/167/167 166/166/166
f 150/150/150 151/151/151 168/168/168
f 150/150/150 168/168/168 167/167/167
f 151/151/151 152/152/152 169/169/169
f 151/151/151 169/169/169 168/168/168
f 152/152/152 153/153/153 170/170/170
f 152/152/152 170/170/170 169/169/169
f 154/155/155 155/154/154 172/171/171
f 154/155/155 172/171/171 171/172/172
f 155/154/154 156/156/156 173/173/173
f 155/154/154 173/173/173 172/171/171
f 156/156/156 157/157/157 174/174/174
f 156/156/156 174/174/174 173/173/173
f 157/157/157 158/158/158 175/175/175
f 157/157/157 175/175/175 174/174/174
f 158/158/158 159/159/159 176/176/176
f 158/158/158 176/176/176 175/175/175
f 159/159/159 160/160/160 177/177/177
f 159/159/159 177/177/177 176/176/176
f 160/160/160 161/161/161 178/178/178
f 160/160/160 178/178/178 177/177/177
f 161/161/161 162/162/162 179/179/179
f 161/161/161 179/179/179 178/178/178
f 162/162/162 163/163/163 180/180/180
f 162/162/162 180/180/180 179/179/179
f 163/163/163 164/164/164 181/181/181
f 163/163/163 181/181/181 180/180/180
f 164/164/164 165/165/165 182/182/182
f 164/164/164 182/182/182 181/181/181
f 165/165/165 166/166/166 183/183/183
f 165/165/165 183/183/183 182/182/182
f 166/166/166 167/167/167 184/184/184
f 166/166/166 184/184/184 183/183/183
f 167/167/167 168/168/168 185/185/185
f 167/167/167 185/185/185 184/184/184
f 168/168/168 169/169/169 186/186/186
f 168/168/168 186/186/186 185/185/185
f 169/169/169 170/170/170 187/187/187
f 169/169/169 187/187/187 186/186/186
f 171/172/172 172/171/171 189/188/188
f 171/172/172 189/188/188 188/189/189
f 172/171/171 173/173/173 190/190/190
f 172/171/171 190/190/190 189/188/188
f 173/173/173 174/174/174 191/191/191
f 173/173/173 191/191/191 190/190/190
f 174/174/174 175/175/175 192/192/192
f 174/174/174 192/192/192 191/191/191
f 175/175/175 176/176/176 193/193/193
f 175/175/175 193/193/193 192/192/192
f 176/176/176 177/177/177 194/194/194
f 176/176/176 194/194/194 193/193/193
f 177/177/177 178/178/178 195/195/195
f 177/177/177 195/195/195 194/194/194
f 178/178/178 179/179/179 196/196/196
f 178/178/178 196/196/196 195/195/195
f 179/179/179 180/180/180 197/197/197
f 179/179/179 197/197/197 196/196/196
f 180/180/180 181/181/181 198/198/198
f 180/180/180 198/198/198 197/197/197
f 181/181/181 182/182/182 199/199/199
f 181/181/181 199/199/199 198/198/198
f 182/182/182 183/183/183 200/200/200
f 182/182/182 200/200/200 199/199/199
f 183/183/183 184/184/184 201/201/201
f 183/183/183 201/201/201 200/200/200
f 184/184/184 185/185/185 202/202/202
f 184/184/184 202/202/202 201/201/201
f 185/185/185 186/186/186 203/203/203
f 185/185/185 203/203/203 202/202/202
f 186/186/186 187/187/187 204/204/204
f 186/186/186 204/204/204 203/203/203
f 188/189/189 189/188/188 206/205/205
f 188/189/189 206/205/205 205/206/206
f 189/188/188 190/190/190 207/207/207
f 189/188/188 207/207/207 206/205/205
f 190/190/190 191/191/191 208/208/208
f 190/190/190 208/208/208 207/207/207
f 191/191/191 192/192/192 209/209/209
f 191/191/191 209/209/209 208/208/208
f 192/192/192 193/193/193 210/210/210
f 192/192/192 210/210/210 209/209/209
f 193/193/193 194/194/194 211/211/211
f 193/193/193 211/211/211 210/210/210
f 194/194/194 195/195/195 212/212/212
f 194/194/194 212/212/212 211/211/211
f 195/195/195 196/196/196 213/213/213
f 195/195/195 213/213/213 212/212/212
f 196/196/196 197/197/197 214/214/214
f 196/196/196 214/214/214 213/213/213
f 197/197/197 198/198/198 215/215/215
f 197/197/197 215/215/215 214/214/214
f 198/198/198 199/199/199 216/216/216
f 198/198/198 216/216/216 215/215/215
f 199/199/199 200/200/200 217/217/217
f 199/199/199 217/217/217 216/216/216
f 200/200/200 201/201/201 218/218/218
f 200/200/200 218/218/218 217/217/217
f 201/201/201 202/202/202 219/219/219
f 201/201/201 219/219/219 218/218/218
f 202/202/202 203/203/203 220/220/220
f 202/202/202 220/220/220 219/219/219
f 203/203/203 204/204/204 221/221/221
f 203/203/203 221/221/221 220/220/220
f 205/206/206 206/205/205 223/222/222
f 205/206/206 223/222/222 222/223/223
f 206/205/205 207/207/207 224/224/224
f 206/205/205 224/224/224 223/222/222
f 207/207/207 208/208/208 225/225/225
f 207/207/207 225/225/225 224/224/224
f 208/208/208 209/209/209 226/226/226
f 208/208/208 226/226/226 225/225/225
f 209/209/209 210/210/210 227/227/227
f 209/209/209 227/227/227 226/226/226
f 210/210/210 211/211/211 228/228/228
f 210/210/210 228/228/228 227/227/227
f 211/211/211 212/212/212 229/229/229
f 211/211/211 229/229/229 228/228/228
f 212/212/212 213/213/213 230/230/230
f 212/212/212 230/230/230 229/229/229
f 213/213/213 214/214/214 231/231/231
f 213/213/213 231/231/231 230/230/230
f 214/214/214 215/215/215 232/232/232
f 214/214/214 232/232/232 231/231/231
f 215/215/215 216/216/216 233/233/233
f 215/215/215 233/233/233 232/232/232
f 216/216/216 217/217/217 234/234/234
f 216/216/216 234/234/234 233/233/233
f 217/217/217 218/218/218 235/235/235
f 217/217/217 235/235/235 234/234/234
f 218/218/218 219/219/219 236/236/236
f 218/218/218 236/236/236 235/235/235
f 219/219/219 220/220/220 237/237/237
f 219/219/219 237/237/237 236/236/236
f 220/220/220 221/221/221 238/238/238
f 220/220/220 238/238/238 237/237/237
f 222/223/223 223/222/222 240/239/239
f 222/223/223 240/239/239 239/240/240
f 223/222/222 224/224/224 241/241/241
f 223/222/222 241/241/241 240/239/239
f 224/224/224 225/225/225 242/242/242
f 224/224/224 242/242/242 241/241/241
f 225/225/225 226/226/226 243/243/243
f 225/225/225 243/243/243 242/242/242
f 226/226/226 227/227/227 244/244/244
f 226/226/226 244/244/244 243/243/243
f 227/227/227 228/228/228 245/245/245
f 227/227/227 245/245/245 244/244/244
f 228/228/228 229/229/229 246/246/246
f 228/228/228 246/246/246 245/245/245
f 229/229/229 230/230/230 247/247/247
f 229/229/229 247/247/247 246/246/246
f 230/230/230 231/231/231 248/248/248
f 230/230/230 248/248/248 247/247/247
f 231/231/231 232/232/232 249/249/249
f 231/231/231 249/249/249 248/248/248
f 232/232/232 233/233/233 250/250/250
f 232/232/232 250/250/250 249/249/249
f 233/233/233 234/234/234 251/251/251
f 233/233/233 251/251/251 250/250/250
f 234/234/234 235/235/235 252/252/252
f 234/234/234 252/252/252 251/251/251
f 235/235/235 236/236/236 253/253/253
f 235/235/235 253/253/253 252/252/252
f 236/236/236 237/237/237 254/254/254
f 236/236/236 254/254/254 253/253/253
f 237/237/237 238/238/238 255/255/255
f 237/237/237 255/255/255 254/254/254
f 239/240/240 240/239/239 257/256/256
f 239/240/240 257/256/256 256/257/257
f 240/239/239 241/241/241 258/258/258
f 240/239/239 258/258/258 257/256/256
f 241/241/241 242/242/242 259/259/259
f 241/241/241 259/259/259 258/258/258
f 242/242/242 243/243/243 260/260/260
f 242/242/242 260/260/260 259/259/259
f 243/243/243 244/244/244 261/261/261
f 243/243/243 261/261/261 260/260/260
f 244/244/244 245/245/245 262/262/262
f 244/244/244 262/262/262 261/261/261
f 245/245/245 246/246/246 263/263/263
f 245/245/245 263/263/263 262/262/262
f 246/246/246 247/247/247 264/264/264
f 246/246/246 264/264/264 263/263/263
f 247/247/247 248/248/248 265/265/265
f 247/247/247 265/265/265 264/264/264
f 248/248/248 249/249/249 266/266/266
f 248/248/248 266/266/266 265/265/265
f 249/249/249 250/250/250 267/267/267
f 249/249/249 267/267/267 266/266/266
f 250/250/250 251/251/251 268/268/268
f 250/250/250 268/268/268 267/267/267
f 251/251/251 252/252/252 269/269/269
f 251/251/251 269/269/269 268/268/268
f 252/252/252 253/253/253 270/270/270
f 252/252/252 270/270/270 269/269/269
f 253/253/253 254/254/254 271/271/271
f 253/253/253 271/271/271 270/270/270
f 254/254/254 255/255/255 272/272/272
f 254/254/254 272/272/272 271/271/271
f 256/257/257 257/256/256 274/273/273
f 256/257/257 274/273/273 273/274/274
f 257/256/256 258/258/258 275/275/275
f 257/256/256 275/275/275 274/273/273
f 258/258/258 259/259/259 276/276/276
f 258/258/258 276/276/276 275/275/275
f 259/259/259 260/260/260 277/277/277
f 259/259/259 277/277/277 276/276/276
f 260/260/260 261/261/261 278/278/278
f 260/260/260 278/278/278 277/277/277
f 261/261/261 262/262/262 279/279/279
f 261/261/261 279/279/279 278/278/278
f 262/262/262 263/263/263 280/280/280
f 262/262/262 280/280/280 279/279/279
f 263/263/263 264/264/264 281/281/281
f 263/263/263 281/281/281 280/280/280
f 264/264/264 265/265/265 282/282/282
f 264/264/264 282/282/282 281/281/281
f 265/265/265 266/266/266 283/283/283
f 265/265/265 283/283/283 282/282/282
f 266/266/266 267/267/267 284/284/284
f 266/266/266 284/284/284 283/283/283
f 267/267/267 268/268/268 285/285/285
f 267/267/267 285/285/285 284/284/284
f 268/268/268 269/269/269 286/286/286
f 268/268/268 286/286/286 285/285/285
f 269/269/269 270/270/270 287/287/287
f 269/269/269 287/287/287 286/286/286
f 270/270/270 271/271/271 288/288/288
f 270/270/270 288/288/288 287/287/287
f 271/271/271 272/272/272 289/289/289
f 271/271/271 289/289/289 288/288/288
