mtllib terrain_mid_00_01.mtl
usemtl terrain_mid_00_01
# Blender 5.1.1
# www.blender.org
o terrain_mid_00_01
v -160.000000 -160.000000 -46.301254
v -140.000000 -160.000000 -45.291649
v -120.000000 -160.000000 -42.947460
v -100.000000 -160.000000 -39.148190
v -80.000000 -160.000000 -33.790024
v -60.000000 -160.000000 -27.173933
v -40.000000 -160.000000 -19.946211
v -20.000000 -160.000000 -13.130964
v 0.000000 -160.000000 -7.236745
v 20.000000 -160.000000 -1.569740
v 40.000000 -160.000000 3.814429
v 60.000000 -160.000000 7.769067
v 80.000000 -160.000000 9.671478
v 100.000000 -160.000000 10.393497
v 120.000000 -160.000000 10.644887
v 140.000000 -160.000000 11.500560
v 160.000000 -160.000000 13.181556
v -160.000000 -140.000000 -48.773438
v -140.000000 -140.000000 -46.432690
v -120.000000 -140.000000 -43.247684
v -100.000000 -140.000000 -39.412819
v -80.000000 -140.000000 -34.696564
v -60.000000 -140.000000 -28.854774
v -40.000000 -140.000000 -21.952667
v -20.000000 -140.000000 -14.984717
v 0.000000 -140.000000 -8.911841
v 20.000000 -140.000000 -3.835582
v 40.000000 -140.000000 0.131656
v 60.000000 -140.000000 3.118961
v 80.000000 -140.000000 4.913815
v 100.000000 -140.000000 6.177473
v 120.000000 -140.000000 7.450049
v 140.000000 -140.000000 8.925716
v 160.000000 -140.000000 10.913699
v -160.000000 -120.000000 -52.198349
v -140.000000 -120.000000 -49.098866
v -120.000000 -120.000000 -45.064529
v -100.000000 -120.000000 -40.882397
v -80.000000 -120.000000 -36.422768
v -60.000000 -120.000000 -31.003679
v -40.000000 -120.000000 -24.157494
v -20.000000 -120.000000 -16.876047
v 0.000000 -120.000000 -10.696984
v 20.000000 -120.000000 -6.414805
v 40.000000 -120.000000 -3.950877
v 60.000000 -120.000000 -1.832882
v 80.000000 -120.000000 0.250498
v 100.000000 -120.000000 2.372033
v 120.000000 -120.000000 4.589847
v 140.000000 -120.000000 6.193424
v 160.000000 -120.000000 8.098453
v -160.000000 -100.000000 -54.508804
v -140.000000 -100.000000 -52.397938
v -120.000000 -100.000000 -48.424198
v -100.000000 -100.000000 -44.320797
v -80.000000 -100.000000 -39.504826
v -60.000000 -100.000000 -33.220150
v -40.000000 -100.000000 -25.281084
v -20.000000 -100.000000 -17.630545
v 0.000000 -100.000000 -12.231184
v 20.000000 -100.000000 -10.102970
v 40.000000 -100.000000 -8.474559
v 60.000000 -100.000000 -6.350223
v 80.000000 -100.000000 -3.430186
v 100.000000 -100.000000 -0.174361
v 120.000000 -100.000000 2.749691
v 140.000000 -100.000000 3.680912
v 160.000000 -100.000000 5.376237
v -160.000000 -80.000000 -56.447777
v -140.000000 -80.000000 -54.256065
v -120.000000 -80.000000 -50.201805
v -100.000000 -80.000000 -45.585690
v -80.000000 -80.000000 -40.926563
v -60.000000 -80.000000 -35.223610
v -40.000000 -80.000000 -28.324236
v -20.000000 -80.000000 -21.642853
v 0.000000 -80.000000 -16.565874
v 20.000000 -80.000000 -13.545013
v 40.000000 -80.000000 -10.449487
v 60.000000 -80.000000 -6.916324
v 80.000000 -80.000000 -3.219343
v 100.000000 -80.000000 0.519413
v 120.000000 -80.000000 3.425120
v 140.000000 -80.000000 4.997813
v 160.000000 -80.000000 6.958520
v -160.000000 -60.000000 -53.566467
v -140.000000 -60.000000 -54.052292
v -120.000000 -60.000000 -50.122231
v -100.000000 -60.000000 -45.031708
v -80.000000 -60.000000 -40.434338
v -60.000000 -60.000000 -35.679447
v -40.000000 -60.000000 -30.265682
v -20.000000 -60.000000 -24.891319
v 0.000000 -60.000000 -19.649296
v 20.000000 -60.000000 -14.560903
v 40.000000 -60.000000 -9.404694
v 60.000000 -60.000000 -4.497969
v 80.000000 -60.000000 -0.451162
v 100.000000 -60.000000 3.058726
v 120.000000 -60.000000 5.780080
v 140.000000 -60.000000 8.143206
v 160.000000 -60.000000 10.416759
v -160.000000 -40.000000 -49.078400
v -140.000000 -40.000000 -49.888233
v -120.000000 -40.000000 -47.511341
v -100.000000 -40.000000 -42.648758
v -80.000000 -40.000000 -37.112839
v -60.000000 -40.000000 -31.965973
v -40.000000 -40.000000 -26.991812
v -20.000000 -40.000000 -21.928349
v 0.000000 -40.000000 -15.969798
v 20.000000 -40.000000 -9.637190
v 40.000000 -40.000000 -3.599905
v 60.000000 -40.000000 1.537140
v 80.000000 -40.000000 5.029551
v 100.000000 -40.000000 7.356198
v 120.000000 -40.000000 9.798011
v 140.000000 -40.000000 12.362247
v 160.000000 -40.000000 14.483130
v -160.000000 -20.000000 -41.182941
v -140.000000 -20.000000 -41.733673
v -120.000000 -20.000000 -41.058243
v -100.000000 -20.000000 -38.564163
v -80.000000 -20.000000 -34.064804
v -60.000000 -20.000000 -28.602718
v -40.000000 -20.000000 -22.845469
v -20.000000 -20.000000 -17.127634
v 0.000000 -20.000000 -10.892548
v 20.000000 -20.000000 -4.310421
v 40.000000 -20.000000 2.165171
v 60.000000 -20.000000 7.483286
v 80.000000 -20.000000 10.495934
v 100.000000 -20.000000 12.069197
v 120.000000 -20.000000 13.839434
v 140.000000 -20.000000 16.105059
v 160.000000 -20.000000 18.372379
v -160.000000 0.000000 -32.151684
v -140.000000 0.000000 -31.359718
v -120.000000 0.000000 -31.943851
v -100.000000 0.000000 -33.186291
v -80.000000 0.000000 -31.126047
v -60.000000 0.000000 -25.731476
v -40.000000 0.000000 -18.545109
v -20.000000 0.000000 -11.659360
v 0.000000 0.000000 -5.200687
v 20.000000 0.000000 1.196530
v 40.000000 0.000000 7.707475
v 60.000000 0.000000 13.090511
v 80.000000 0.000000 15.926232
v 100.000000 0.000000 17.236305
v 120.000000 0.000000 18.317087
v 140.000000 0.000000 20.168617
v 160.000000 0.000000 22.573570
v -160.000000 20.000000 -23.226677
v -140.000000 20.000000 -22.368690
v -120.000000 20.000000 -23.665850
v -100.000000 20.000000 -26.541311
v -80.000000 20.000000 -26.974937
v -60.000000 20.000000 -22.831425
v -40.000000 20.000000 -14.455048
v -20.000000 20.000000 -6.124786
v 0.000000 20.000000 0.837290
v 20.000000 20.000000 7.150489
v 40.000000 20.000000 13.179317
v 60.000000 20.000000 18.244280
v 80.000000 20.000000 21.220665
v 100.000000 20.000000 22.893328
v 120.000000 20.000000 23.937408
v 140.000000 20.000000 25.559303
v 160.000000 20.000000 27.820967
v -160.000000 40.000000 -14.337087
v -140.000000 40.000000 -13.774770
v -120.000000 40.000000 -15.637570
v -100.000000 40.000000 -19.217934
v -80.000000 40.000000 -22.126719
v -60.000000 40.000000 -20.529001
v -40.000000 40.000000 -12.354346
v -20.000000 40.000000 -2.549869
v 0.000000 40.000000 5.888933
v 20.000000 40.000000 12.890161
v 40.000000 40.000000 18.830191
v 60.000000 40.000000 23.624250
v 80.000000 40.000000 26.585920
v 100.000000 40.000000 28.467886
v 120.000000 40.000000 29.678856
v 140.000000 40.000000 31.408417
v 160.000000 40.000000 33.537918
v -160.000000 60.000000 -4.567249
v -140.000000 60.000000 -4.976702
v -120.000000 60.000000 -7.636926
v -100.000000 60.000000 -11.739824
v -80.000000 60.000000 -16.842812
v -60.000000 60.000000 -18.540958
v -40.000000 60.000000 -11.743690
v -20.000000 60.000000 -1.029551
v 0.000000 60.000000 9.304446
v 20.000000 60.000000 17.614376
v 40.000000 60.000000 24.146793
v 60.000000 60.000000 28.992781
v 80.000000 60.000000 32.065556
v 100.000000 60.000000 34.084129
v 120.000000 60.000000 35.608246
v 140.000000 60.000000 37.520092
v 160.000000 60.000000 39.507973
v -160.000000 80.000000 5.496004
v -140.000000 80.000000 4.286611
v -120.000000 80.000000 0.378062
v -100.000000 80.000000 -4.748301
v -80.000000 80.000000 -11.690820
v -60.000000 80.000000 -15.753652
v -40.000000 80.000000 -11.412316
v -20.000000 80.000000 -1.261912
v 0.000000 80.000000 9.764123
v 20.000000 80.000000 19.863800
v 40.000000 80.000000 27.716637
v 60.000000 80.000000 33.756935
v 80.000000 80.000000 37.447983
v 100.000000 80.000000 39.947670
v 120.000000 80.000000 41.925560
v 140.000000 80.000000 43.884621
v 160.000000 80.000000 45.665783
v -160.000000 100.000000 16.067423
v -140.000000 100.000000 13.996944
v -120.000000 100.000000 8.942691
v -100.000000 100.000000 2.716312
v -80.000000 100.000000 -5.563073
v -60.000000 100.000000 -12.068668
v -40.000000 100.000000 -10.141490
v -20.000000 100.000000 -1.280623
v 0.000000 100.000000 9.965864
v 20.000000 100.000000 20.779118
v 40.000000 100.000000 29.938791
v 60.000000 100.000000 37.062454
v 80.000000 100.000000 42.028927
v 100.000000 100.000000 45.506493
v 120.000000 100.000000 48.191978
v 140.000000 100.000000 50.378284
v 160.000000 100.000000 52.203182
v -160.000000 120.000000 26.808229
v -140.000000 120.000000 24.015072
v -120.000000 120.000000 17.951595
v -100.000000 120.000000 10.729488
v -80.000000 120.000000 1.458811
v -60.000000 120.000000 -7.151425
v -40.000000 120.000000 -7.992659
v -20.000000 120.000000 -0.634973
v 0.000000 120.000000 10.333865
v 20.000000 120.000000 21.234480
v 40.000000 120.000000 30.940025
v 60.000000 120.000000 39.301464
v 80.000000 120.000000 45.624237
v 100.000000 120.000000 50.685638
v 120.000000 120.000000 54.234615
v 140.000000 120.000000 56.939022
v 160.000000 120.000000 58.950619
v -160.000000 140.000000 35.753838
v -140.000000 140.000000 32.965172
v -120.000000 140.000000 26.479332
v -100.000000 140.000000 18.531233
v -80.000000 140.000000 8.389387
v -60.000000 140.000000 -1.689938
v -40.000000 140.000000 -5.719947
v -20.000000 140.000000 -0.116167
v 0.000000 140.000000 10.310333
v 20.000000 140.000000 21.111210
v 40.000000 140.000000 31.396690
v 60.000000 140.000000 40.799515
v 80.000000 140.000000 48.771866
v 100.000000 140.000000 55.335220
v 120.000000 140.000000 60.174965
v 140.000000 140.000000 63.517216
v 160.000000 140.000000 65.628700
v -160.000000 160.000000 44.101048
v -140.000000 160.000000 40.538280
v -120.000000 160.000000 33.670162
v -100.000000 160.000000 25.025137
v -80.000000 160.000000 14.166738
v -60.000000 160.000000 3.161591
v -40.000000 160.000000 -2.161808
v -20.000000 160.000000 2.025441
v 0.000000 160.000000 11.574304
v 20.000000 160.000000 22.002390
v 40.000000 160.000000 32.609119
v 60.000000 160.000000 42.934193
v 80.000000 160.000000 52.251408
v 100.000000 160.000000 60.332741
v 120.000000 160.000000 65.715027
v 140.000000 160.000000 68.941032
v 160.000000 160.000000 70.540222
vn 0.0249 0.0505 0.9984
vn -0.0697 -0.0076 0.9975
vn -0.1228 0.0940 0.9880
vn -0.0633 0.1608 0.9850
vn -0.1517 -0.0310 0.9879
vn -0.1726 0.0521 0.9836
vn -0.2231 -0.0141 0.9747
vn -0.2089 0.0424 0.9770
vn -0.2867 0.0237 0.9577
vn -0.2547 0.0635 0.9649
vn -0.3266 0.0526 0.9437
vn -0.3023 0.0908 0.9489
vn -0.3307 0.0590 0.9419
vn -0.3260 0.0990 0.9402
vn -0.3023 0.0566 0.9515
vn -0.3086 0.0887 0.9470
vn -0.2770 0.0695 0.9584
vn -0.2676 0.0831 0.9599
vn -0.2646 0.1113 0.9579
vn -0.2190 0.1173 0.9686
vn -0.2245 0.1581 0.9616
vn -0.1683 0.1878 0.9677
vn -0.1422 0.1930 0.9708
vn -0.1155 0.2319 0.9659
vn -0.0640 0.2081 0.9760
vn -0.0742 0.2286 0.9707
vn -0.0239 0.1954 0.9804
vn -0.0621 0.1962 0.9786
vn -0.0273 0.1567 0.9873
vn -0.0677 0.1493 0.9865
vn -0.0628 0.1222 0.9905
vn -0.0855 0.1310 0.9877
vn -0.0962 0.0991 0.9904
vn -0.1034 0.1254 0.9867
vn -0.1754 0.1452 0.9737
vn -0.1418 0.1847 0.9725
vn -0.1995 0.1257 0.9718
vn -0.2097 0.1188 0.9705
vn -0.2382 0.1159 0.9643
vn -0.2916 0.1038 0.9509
vn -0.3320 0.0782 0.9400
vn -0.3184 0.0626 0.9459
vn -0.2523 0.0801 0.9643
vn -0.1642 0.1527 0.9745
vn -0.1113 0.2090 0.9716
vn -0.1017 0.2292 0.9681
vn -0.1024 0.2031 0.9738
vn -0.1065 0.1560 0.9820
vn -0.0944 0.1161 0.9887
vn -0.0866 0.1295 0.9878
vn -0.1021 0.1364 0.9854
vn -0.1802 0.1258 0.9755
vn -0.1657 0.1260 0.9781
vn -0.1964 0.1249 0.9725
vn -0.2162 0.1140 0.9697
vn -0.2658 0.1079 0.9580
vn -0.3334 0.0989 0.9376
vn -0.3614 0.0966 0.9274
vn -0.3082 0.1126 0.9446
vn -0.1831 0.1427 0.9727
vn -0.0921 0.1747 0.9803
vn -0.0922 0.1597 0.9829
vn -0.1242 0.1251 0.9843
vn -0.1520 0.0854 0.9847
vn -0.1525 0.0457 0.9872
vn -0.0959 0.0289 0.9950
vn -0.0655 0.0298 0.9974
vn -0.1019 0.0283 0.9944
vn -0.1775 0.0407 0.9833
vn -0.1304 0.0077 0.9914
vn -0.2116 0.0415 0.9765
vn -0.2258 0.0173 0.9740
vn -0.2507 0.0225 0.9678
vn -0.3000 0.0586 0.9522
vn -0.3193 0.1172 0.9404
vn -0.2779 0.1716 0.9452
vn -0.1952 0.1788 0.9643
vn -0.1503 0.1095 0.9826
vn -0.1634 0.0230 0.9863
vn -0.1777 -0.0455 0.9830
vn -0.1823 -0.0730 0.9805
vn -0.1633 -0.0795 0.9834
vn -0.1109 -0.0751 0.9910
vn -0.0875 -0.1105 0.9900
vn -0.1074 -0.1243 0.9864
vn -0.1475 -0.1074 0.9832
vn -0.0530 -0.1755 0.9831
vn -0.2195 -0.0654 0.9734
vn -0.2348 -0.0712 0.9694
vn -0.2267 -0.0924 0.9696
vn -0.2456 -0.0787 0.9662
vn -0.2603 -0.0321 0.9650
vn -0.2565 0.0069 0.9665
vn -0.2500 -0.0144 0.9681
vn -0.2470 -0.0942 0.9644
vn -0.2407 -0.1638 0.9567
vn -0.2139 -0.2020 0.9557
vn -0.1819 -0.1986 0.9630
vn -0.1518 -0.1666 0.9743
vn -0.1246 -0.1561 0.9799
vn -0.1133 -0.1798 0.9771
vn -0.1072 -0.1838 0.9771
vn -0.0661 -0.2937 0.9536
vn 0.0165 -0.3399 0.9403
vn -0.1738 -0.2176 0.9604
vn -0.2486 -0.1546 0.9562
vn -0.2550 -0.1520 0.9549
vn -0.2418 -0.1690 0.9555
vn -0.2395 -0.1771 0.9546
vn -0.2611 -0.1839 0.9476
vn -0.2875 -0.2048 0.9356
vn -0.2870 -0.2378 0.9279
vn -0.2591 -0.2684 0.9278
vn -0.2024 -0.2810 0.9381
vn -0.1389 -0.2614 0.9552
vn -0.1156 -0.2183 0.9690
vn -0.1219 -0.1962 0.9730
vn -0.1138 -0.1936 0.9745
vn -0.0937 -0.1942 0.9765
vn -0.0137 -0.4203 0.9073
vn 0.0153 -0.4137 0.9103
vn -0.0736 -0.3617 0.9294
vn -0.1678 -0.2270 0.9593
vn -0.2392 -0.1437 0.9603
vn -0.2671 -0.1484 0.9522
vn -0.2702 -0.1989 0.9420
vn -0.2780 -0.2388 0.9304
vn -0.2956 -0.2483 0.9225
vn -0.3005 -0.2493 0.9206
vn -0.2730 -0.2617 0.9257
vn -0.1962 -0.2721 0.9421
vn -0.1100 -0.2613 0.9590
vn -0.0813 -0.2393 0.9675
vn -0.0982 -0.2073 0.9733
vn -0.1106 -0.1904 0.9755
vn -0.1017 -0.1972 0.9751
vn -0.0036 -0.4357 0.9001
vn -0.0315 -0.4168 0.9085
vn 0.0418 -0.3984 0.9163
vn -0.0196 -0.2878 0.9575
vn -0.1805 -0.1717 0.9685
vn -0.2972 -0.1363 0.9450
vn -0.3255 -0.1940 0.9254
vn -0.3062 -0.2525 0.9179
vn -0.2947 -0.2689 0.9170
vn -0.2963 -0.2630 0.9182
vn -0.2756 -0.2552 0.9268
vn -0.1943 -0.2552 0.9472
vn -0.0996 -0.2577 0.9611
vn -0.0576 -0.2608 0.9637
vn -0.0709 -0.2442 0.9671
vn -0.1030 -0.2288 0.9680
vn -0.1111 -0.2284 0.9672
vn 0.0081 -0.4024 0.9154
vn -0.0419 -0.4026 0.9144
vn 0.0962 -0.3757 0.9217
vn 0.0779 -0.3287 0.9412
vn -0.0901 -0.2186 0.9716
vn -0.2964 -0.1232 0.9471
vn -0.3816 -0.1414 0.9135
vn -0.3493 -0.2080 0.9137
vn -0.3047 -0.2545 0.9178
vn -0.2839 -0.2690 0.9203
vn -0.2582 -0.2589 0.9308
vn -0.1908 -0.2500 0.9493
vn -0.1116 -0.2559 0.9602
vn -0.0652 -0.2697 0.9607
vn -0.0639 -0.2726 0.9600
vn -0.0932 -0.2694 0.9585
vn -0.1047 -0.2629 0.9591
vn 0.0262 -0.3986 0.9167
vn -0.0340 -0.4136 0.9098
vn 0.1254 -0.3690 0.9209
vn 0.1504 -0.3431 0.9272
vn 0.0318 -0.2454 0.9689
vn -0.2360 -0.1036 0.9662
vn -0.4092 -0.0617 0.9104
vn -0.4122 -0.1151 0.9038
vn -0.3533 -0.1938 0.9152
vn -0.2986 -0.2414 0.9233
vn -0.2506 -0.2560 0.9336
vn -0.1841 -0.2551 0.9492
vn -0.1161 -0.2599 0.9586
vn -0.0742 -0.2686 0.9604
vn -0.0704 -0.2795 0.9576
vn -0.0920 -0.2853 0.9540
vn -0.0946 -0.2792 0.9556
vn 0.0571 -0.4109 0.9099
vn -0.0142 -0.4433 0.8963
vn 0.1551 -0.3672 0.9171
vn 0.2115 -0.3325 0.9191
vn 0.1623 -0.2490 0.9548
vn -0.1256 -0.1176 0.9851
vn -0.4009 -0.0216 0.9158
vn -0.4654 -0.0284 0.8846
vn -0.4207 -0.0875 0.9030
vn -0.3430 -0.1615 0.9254
vn -0.2676 -0.2090 0.9406
vn -0.1885 -0.2411 0.9520
vn -0.1219 -0.2601 0.9578
vn -0.0848 -0.2749 0.9577
vn -0.0819 -0.2918 0.9530
vn -0.0927 -0.2965 0.9505
vn -0.0840 -0.2891 0.9536
vn 0.1103 -0.4259 0.8980
vn 0.0283 -0.4740 0.8801
vn 0.2042 -0.3749 0.9043
vn 0.2730 -0.3270 0.9047
vn 0.2560 -0.2624 0.9304
vn -0.0069 -0.1597 0.9871
vn -0.3404 -0.0377 0.9395
vn -0.4679 0.0055 0.8838
vn -0.4669 -0.0148 0.8842
vn -0.4084 -0.0720 0.9100
vn -0.3251 -0.1355 0.9359
vn -0.2320 -0.1924 0.9535
vn -0.1486 -0.2391 0.9596
vn -0.1070 -0.2730 0.9560
vn -0.0934 -0.2988 0.9497
vn -0.0886 -0.3048 0.9483
vn -0.0741 -0.3017 0.9505
vn 0.1652 -0.4363 0.8845
vn 0.0737 -0.4826 0.8727
vn 0.2500 -0.3895 0.8865
vn 0.3204 -0.3418 0.8835
vn 0.3313 -0.2947 0.8963
vn 0.1112 -0.2089 0.9716
vn -0.2595 -0.0823 0.9622
vn -0.4491 -0.0140 0.8934
vn -0.4829 -0.0125 0.8756
vn -0.4465 -0.0306 0.8943
vn -0.3760 -0.0744 0.9236
vn -0.2869 -0.1316 0.9489
vn -0.2025 -0.1961 0.9594
vn -0.1471 -0.2564 0.9553
vn -0.1156 -0.2921 0.9494
vn -0.0949 -0.3089 0.9464
vn -0.0756 -0.3143 0.9463
vn 0.2090 -0.4190 0.8836
vn 0.1079 -0.4532 0.8848
vn 0.2910 -0.3842 0.8762
vn 0.3579 -0.3434 0.8683
vn 0.3889 -0.3034 0.8699
vn 0.2230 -0.2448 0.9436
vn -0.1598 -0.1085 0.9812
vn -0.4164 -0.0265 0.9088
vn -0.4797 -0.0076 0.8774
vn -0.4580 -0.0074 0.8889
vn -0.4114 -0.0332 0.9108
vn -0.3433 -0.0874 0.9351
vn -0.2702 -0.1600 0.9494
vn -0.2046 -0.2336 0.9506
vn -0.1481 -0.2838 0.9474
vn -0.1113 -0.3101 0.9442
vn -0.0815 -0.3171 0.9449
vn 0.2342 -0.3712 0.8986
vn 0.1268 -0.3971 0.9090
vn 0.3184 -0.3467 0.8823
vn 0.3918 -0.3096 0.8664
vn 0.4342 -0.2727 0.8586
vn 0.3232 -0.2363 0.9164
vn -0.0389 -0.1441 0.9888
vn -0.3713 -0.0616 0.9265
vn -0.4686 -0.0274 0.8830
vn -0.4663 -0.0170 0.8845
vn -0.4413 -0.0374 0.8966
vn -0.3970 -0.0830 0.9140
vn -0.3375 -0.1539 0.9287
vn -0.2671 -0.2259 0.9368
vn -0.1929 -0.2707 0.9431
vn -0.1295 -0.2850 0.9498
vn -0.0776 -0.2775 0.9576
vn 0.2572 -0.3043 0.9172
vn 0.1465 -0.3365 0.9302
vn 0.3479 -0.2730 0.8969
vn 0.4264 -0.2314 0.8745
vn 0.4697 -0.2024 0.8593
vn 0.3702 -0.2013 0.9069
vn 0.0278 -0.1965 0.9801
vn -0.3210 -0.1531 0.9346
vn -0.4444 -0.1027 0.8899
vn -0.4641 -0.0771 0.8824
vn -0.4620 -0.0834 0.8829
vn -0.4375 -0.1213 0.8910
vn -0.3923 -0.1805 0.9020
vn -0.3099 -0.2376 0.9206
vn -0.2036 -0.2521 0.9460
vn -0.1163 -0.2403 0.9637
vn -0.0544 -0.2173 0.9746
vt 0.015625 0.015625
vt 0.076172 0.015625
vt 0.076172 0.076172
vt 0.015625 0.076172
vt 0.136719 0.015625
vt 0.136719 0.076172
vt 0.197266 0.015625
vt 0.197266 0.076172
vt 0.257812 0.015625
vt 0.257812 0.076172
vt 0.318359 0.015625
vt 0.318359 0.076172
vt 0.378906 0.015625
vt 0.378906 0.076172
vt 0.439453 0.015625
vt 0.439453 0.076172
vt 0.500000 0.015625
vt 0.500000 0.076172
vt 0.560547 0.015625
vt 0.560547 0.076172
vt 0.621094 0.015625
vt 0.621094 0.076172
vt 0.681641 0.015625
vt 0.681641 0.076172
vt 0.742188 0.015625
vt 0.742188 0.076172
vt 0.802734 0.015625
vt 0.802734 0.076172
vt 0.863281 0.015625
vt 0.863281 0.076172
vt 0.923828 0.015625
vt 0.923828 0.076172
vt 0.984375 0.015625
vt 0.984375 0.076172
vt 0.076172 0.136719
vt 0.015625 0.136719
vt 0.136719 0.136719
vt 0.197266 0.136719
vt 0.257812 0.136719
vt 0.318359 0.136719
vt 0.378906 0.136719
vt 0.439453 0.136719
vt 0.500000 0.136719
vt 0.560547 0.136719
vt 0.621094 0.136719
vt 0.681641 0.136719
vt 0.742188 0.136719
vt 0.802734 0.136719
vt 0.863281 0.136719
vt 0.923828 0.136719
vt 0.984375 0.136719
vt 0.076172 0.197266
vt 0.015625 0.197266
vt 0.136719 0.197266
vt 0.197266 0.197266
vt 0.257812 0.197266
vt 0.318359 0.197266
vt 0.378906 0.197266
vt 0.439453 0.197266
vt 0.500000 0.197266
vt 0.560547 0.197266
vt 0.621094 0.197266
vt 0.681641 0.197266
vt 0.742188 0.197266
vt 0.802734 0.197266
vt 0.863281 0.197266
vt 0.923828 0.197266
vt 0.984375 0.197266
vt 0.076172 0.257812
vt 0.015625 0.257812
vt 0.136719 0.257812
vt 0.197266 0.257812
vt 0.257812 0.257812
vt 0.318359 0.257812
vt 0.378906 0.257812
vt 0.439453 0.257812
vt 0.500000 0.257812
vt 0.560547 0.257812
vt 0.621094 0.257812
vt 0.681641 0.257812
vt 0.742188 0.257812
vt 0.802734 0.257812
vt 0.863281 0.257812
vt 0.923828 0.257812
vt 0.984375 0.257812
vt 0.076172 0.318359
vt 0.015625 0.318359
vt 0.136719 0.318359
vt 0.197266 0.318359
vt 0.257812 0.318359
vt 0.318359 0.318359
vt 0.378906 0.318359
vt 0.439453 0.318359
vt 0.500000 0.318359
vt 0.560547 0.318359
vt 0.621094 0.318359
vt 0.681641 0.318359
vt 0.742188 0.318359
vt 0.802734 0.318359
vt 0.863281 0.318359
vt 0.923828 0.318359
vt 0.984375 0.318359
vt 0.076172 0.378906
vt 0.015625 0.378906
vt 0.136719 0.378906
vt 0.197266 0.378906
vt 0.257812 0.378906
vt 0.318359 0.378906
vt 0.378906 0.378906
vt 0.439453 0.378906
vt 0.500000 0.378906
vt 0.560547 0.378906
vt 0.621094 0.378906
vt 0.681641 0.378906
vt 0.742188 0.378906
vt 0.802734 0.378906
vt 0.863281 0.378906
vt 0.923828 0.378906
vt 0.984375 0.378906
vt 0.076172 0.439453
vt 0.015625 0.439453
vt 0.136719 0.439453
vt 0.197266 0.439453
vt 0.257812 0.439453
vt 0.318359 0.439453
vt 0.378906 0.439453
vt 0.439453 0.439453
vt 0.500000 0.439453
vt 0.560547 0.439453
vt 0.621094 0.439453
vt 0.681641 0.439453
vt 0.742188 0.439453
vt 0.802734 0.439453
vt 0.863281 0.439453
vt 0.923828 0.439453
vt 0.984375 0.439453
vt 0.076172 0.500000
vt 0.015625 0.500000
vt 0.136719 0.500000
vt 0.197266 0.500000
vt 0.257812 0.500000
vt 0.318359 0.500000
vt 0.378906 0.500000
vt 0.439453 0.500000
vt 0.500000 0.500000
vt 0.560547 0.500000
vt 0.621094 0.500000
vt 0.681641 0.500000
vt 0.742188 0.500000
vt 0.802734 0.500000
vt 0.863281 0.500000
vt 0.923828 0.500000
vt 0.984375 0.500000
vt 0.076172 0.560547
vt 0.015625 0.560547
vt 0.136719 0.560547
vt 0.197266 0.560547
vt 0.257812 0.560547
vt 0.318359 0.560547
vt 0.378906 0.560547
vt 0.439453 0.560547
vt 0.500000 0.560547
vt 0.560547 0.560547
vt 0.621094 0.560547
vt 0.681641 0.560547
vt 0.742188 0.560547
vt 0.802734 0.560547
vt 0.863281 0.560547
vt 0.923828 0.560547
vt 0.984375 0.560547
vt 0.076172 0.621094
vt 0.015625 0.621094
vt 0.136719 0.621094
vt 0.197266 0.621094
vt 0.257812 0.621094
vt 0.318359 0.621094
vt 0.378906 0.621094
vt 0.439453 0.621094
vt 0.500000 0.621094
vt 0.560547 0.621094
vt 0.621094 0.621094
vt 0.681641 0.621094
vt 0.742188 0.621094
vt 0.802734 0.621094
vt 0.863281 0.621094
vt 0.923828 0.621094
vt 0.984375 0.621094
vt 0.076172 0.681641
vt 0.015625 0.681641
vt 0.136719 0.681641
vt 0.197266 0.681641
vt 0.257812 0.681641
vt 0.318359 0.681641
vt 0.378906 0.681641
vt 0.439453 0.681641
vt 0.500000 0.681641
vt 0.560547 0.681641
vt 0.621094 0.681641
vt 0.681641 0.681641
vt 0.742188 0.681641
vt 0.802734 0.681641
vt 0.863281 0.681641
vt 0.923828 0.681641
vt 0.984375 0.681641
vt 0.076172 0.742188
vt 0.015625 0.742188
vt 0.136719 0.742188
vt 0.197266 0.742188
vt 0.257812 0.742188
vt 0.318359 0.742188
vt 0.378906 0.742188
vt 0.439453 0.742188
vt 0.500000 0.742188
vt 0.560547 0.742188
vt 0.621094 0.742188
vt 0.681641 0.742188
vt 0.742188 0.742188
vt 0.802734 0.742188
vt 0.863281 0.742188
vt 0.923828 0.742188
vt 0.984375 0.742188
vt 0.076172 0.802734
vt 0.015625 0.802734
vt 0.136719 0.802734
vt 0.197266 0.802734
vt 0.257812 0.802734
vt 0.318359 0.802734
vt 0.378906 0.802734
vt 0.439453 0.802734
vt 0.500000 0.802734
vt 0.560547 0.802734
vt 0.621094 0.802734
vt 0.681641 0.802734
vt 0.742188 0.802734
vt 0.802734 0.802734
vt 0.863281 0.802734
vt 0.923828 0.802734
vt 0.984375 0.802734
vt 0.076172 0.863281
vt 0.015625 0.863281
vt 0.136719 0.863281
vt 0.197266 0.863281
vt 0.257812 0.863281
vt 0.318359 0.863281
vt 0.378906 0.863281
vt 0.439453 0.863281
vt 0.500000 0.863281
vt 0.560547 0.863281
vt 0.621094 0.863281
vt 0.681641 0.863281
vt 0.742188 0.863281
vt 0.802734 0.863281
vt 0.863281 0.863281
vt 0.923828 0.863281
vt 0.984375 0.863281
vt 0.076172 0.923828
vt 0.015625 0.923828
vt 0.136719 0.923828
vt 0.197266 0.923828
vt 0.257812 0.923828
vt 0.318359 0.923828
vt 0.378906 0.923828
vt 0.439453 0.923828
vt 0.500000 0.923828
vt 0.560547 0.923828
vt 0.621094 0.923828
vt 0.681641 0.923828
vt 0.742188 0.923828
vt 0.802734 0.923828
vt 0.863281 0.923828
vt 0.923828 0.923828
vt 0.984375 0.923828
vt 0.076172 0.984375
vt 0.015625 0.984375
vt 0.136719 0.984375
vt 0.197266 0.984375
vt 0.257812 0.984375
vt 0.318359 0.984375
vt 0.378906 0.984375
vt 0.439453 0.984375
vt 0.500000 0.984375
vt 0.560547 0.984375
vt 0.621094 0.984375
vt 0.681641 0.984375
vt 0.742188 0.984375
vt 0.802734 0.984375
vt 0.863281 0.984375
vt 0.923828 0.984375
vt 0.984375 0.984375
s 1
f 1/1/1 2/2/2 19/3/3
f 1/1/1 19/3/3 18/4/4
f 2/2/2 3/5/5 20/6/6
f 2/2/2 20/6/6 19/3/3
f 3/5/5 4/7/7 21/8/8
f 3/5/5 21/8/8 20/6/6
f 4/7/7 5/9/9 22/10/10
f 4/7/7 22/10/10 21/8/8
f 5/9/9 6/11/11 23/12/12
f 5/9/9 23/12/12 22/10/10
f 6/11/11 7/13/13 24/14/14
f 6/11/11 24/14/14 23/12/12
f 7/13/13 8/15/15 25/16/16
f 7/13/13 25/16/16 24/14/14
f 8/15/15 9/17/17 26/18/18
f 8/15/15 26/18/18 25/16/16
f 9/17/17 10/19/19 27/20/20
f 9/17/17 27/20/20 26/18/18
f 10/19/19 11/21/21 28/22/22
f 10/19/19 28/22/22 27/20/20
f 11/21/21 12/23/23 29/24/24
f 11/21/21 29/24/24 28/22/22
f 12/23/23 13/25/25 30/26/26
f 12/23/23 30/26/26 29/24/24
f 13/25/25 14/27/27 31/28/28
f 13/25/25 31/28/28 30/26/26
f 14/27/27 15/29/29 32/30/30
f 14/27/27 32/30/30 31/28/28
f 15/29/29 16/31/31 33/32/32
f 15/29/29 33/32/32 32/30/30
f 16/31/31 17/33/33 34/34/34
f 16/31/31 34/34/34 33/32/32
f 18/4/4 19/3/3 36/35/35
f 18/4/4 36/35/35 35/36/36
f 19/3/3 20/6/6 37/37/37
f 19/3/3 37/37/37 36/35/35
f 20/6/6 21/8/8 38/38/38
f 20/6/6 38/38/38 37/37/37
f 21/8/8 22/10/10 39/39/39
f 21/8/8 39/39/39 38/38/38
f 22/10/10 23/12/12 40/40/40
f 22/10/10 40/40/40 39/39/39
f 23/12/12 24/14/14 41/41/41
f 23/12/12 41/41/41 40/40/40
f 24/14/14 25/16/16 42/42/42
f 24/14/14 42/42/42 41/41/41
f 25/16/16 26/18/18 43/43/43
f 25/16/16 43/43/43 42/42/42
f 26/18/18 27/20/20 44/44/44
f 26/18/18 44/44/44 43/43/43
f 27/20/20 28/22/22 45/45/45
f 27/20/20 45/45/45 44/44/44
f 28/22/22 29/24/24 46/46/46
f 28/22/22 46/46/46 45/45/45
f 29/24/24 30/26/26 47/47/47
f 29/24/24 47/47/47 46/46/46
f 30/26/26 31/28/28 48/48/48
f 30/26/26 48/48/48 47/47/47
f 31/28/28 32/30/30 49/49/49
f 31/28/28 49/49/49 48/48/48
f 32/30/30 33/32/32 50/50/50
f 32/30/30 50/50/50 49/49/49
f 33/32/32 34/34/34 51/51/51
f 33/32/32 51/51/51 50/50/50
f 35/36/36 36/35/35 53/52/52
f 35/36/36 53/52/52 52/53/53
f 36/35/35 37/37/37 54/54/54
f 36/35/35 54/54/54 53/52/52
f 37/37/37 38/38/38 55/55/55
f 37/37/37 55/55/55 54/54/54
f 38/38/38 39/39/39 56/56/56
f 38/38/38 56/56/56 55/55/55
f 39/39/39 40/40/40 57/57/57
f 39/39/39 57/57/57 56/56/56
f 40/40/40 41/41/41 58/58/58
f 40/40/40 58/58/58 57/57/57
f 41/41/41 42/42/42 59/59/59
f 41/41/41 59/59/59 58/58/58
f 42/42/42 43/43/43 60/60/60
f 42/42/42 60/60/60 59/59/59
f 43/43/43 44/44/44 61/61/61
f 43/43/43 61/61/61 60/60/60
f 44/44/44 45/45/45 62/62/62
f 44/44/44 62/62/62 61/61/61
f 45/45/45 46/46/46 63/63/63
f 45/45/45 63/63/63 62/62/62
f 46/46/46 47/47/47 64/64/64
f 46/46/46 64/64/64 63/63/63
f 47/47/47 48/48/48 65/65/65
f 47/47/47 65/65/65 64/64/64
f 48/48/48 49/49/49 66/66/66
f 48/48/48 66/66/66 65/65/65
f 49/49/49 50/50/50 67/67/67
f 49/49/49 67/67/67 66/66/66
f 50/50/50 51/51/51 68/68/68
f 50/50/50 68/68/68 67/67/67
f 52/53/53 53/52/52 70/69/69
f 52/53/53 70/69/69 69/70/70
f 53/52/52 54/54/54 71/71/71
f 53/52/52 71/71/71 70/69/69
f 54/54/54 55/55/55 72/72/72
f 54/54/54 72/72/72 71/71/71
f 55/55/55 56/56/56 73/73/73
f 55/55/55 73/73/73 72/72/72
f 56/56/56 57/57/57 74/74/74
f 56/56/56 74/74/74 73/73/73
f 57/57/57 58/58/58 75/75/75
f 57/57/57 75/75/75 74/74/74
f 58/58/58 59/59/59 76/76/76
f 58/58/58 76/76/76 75/75/75
f 59/59/59 60/60/60 77/77/77
f 59/59/59 77/77/77 76/76/76
f 60/60/60 61/61/61 78/78/78
f 60/60/60 78/78/78 77/77/77
f 61/61/61 62/62/62 79/79/79
f 61/61/61 79/79/79 78/78/78
f 62/62/62 63/63/63 80/80/80
f 62/62/62 80/80/80 79/79/79
f 63/63/63 64/64/64 81/81/81
f 63/63/63 81/81/81 80/80/80
f 64/64/64 65/65/65 82/82/82
f 64/64/64 82/82/82 81/81/81
f 65/65/65 66/66/66 83/83/83
f 65/65/65 83/83/83 82/82/82
f 66/66/66 67/67/67 84/84/84
f 66/66/66 84/84/84 83/83/83
f 67/67/67 68/68/68 85/85/85
f 67/67/67 85/85/85 84/84/84
f 69/70/70 70/69/69 87/86/86
f 69/70/70 87/86/86 86/87/87
f 70/69/69 71/71/71 88/88/88
f 70/69/69 88/88/88 87/86/86
f 71/71/71 72/72/72 89/89/89
f 71/71/71 89/89/89 88/88/88
f 72/72/72 73/73/73 90/90/90
f 72/72/72 90/90/90 89/89/89
f 73/73/73 74/74/74 91/91/91
f 73/73/73 91/91/91 90/90/90
f 74/74/74 75/75/75 92/92/92
f 74/74/74 92/92/92 91/91/91
f 75/75/75 76/76/76 93/93/93
f 75/75/75 93/93/93 92/92/92
f 76/76/76 77/77/77 94/94/94
f 76/76/76 94/94/94 93/93/93
f 77/77/77 78/78/78 95/95/95
f 77/77/77 95/95/95 94/94/94
f 78/78/78 79/79/79 96/96/96
f 78/78/78 96/96/96 95/95/95
f 79/79/79 80/80/80 97/97/97
f 79/79/79 97/97/97 96/96/96
f 80/80/80 81/81/81 98/98/98
f 80/80/80 98/98/98 97/97/97
f 81/81/81 82/82/82 99/99/99
f 81/81/81 99/99/99 98/98/98
f 82/82/82 83/83/83 100/100/100
f 82/82/82 100/100/100 99/99/99
f 83/83/83 84/84/84 101/101/101
f 83/83/83 101/101/101 100/100/100
f 84/84/84 85/85/85 102/102/102
f 84/84/84 102/102/102 101/101/101
f 86/87/87 87/86/86 104/103/103
f 86/87/87 104/103/103 103/104/104
f 87/86/86 88/88/88 105/105/105
f 87/86/86 105/105/105 104/103/103
f 88/88/88 89/89/89 106/106/106
f 88/88/88 106/106/106 105/105/105
f 89/89/89 90/90/90 107/107/107
f 89/89/89 107/107/107 106/106/106
f 90/90/90 91/91/91 108/108/108
f 90/90/90 108/108/108 107/107/107
f 91/91/91 92/92/92 109/109/109
f 91/91/91 109/109/109 108/108/108
f 92/92/92 93/93/93 110/110/110
f 92/92/92 110/110/110 109/109/109
f 93/93/93 94/94/94 111/111/111
f 93/93/93 111/111/111 110/110/110
f 94/94/94 95/95/95 112/112/112
f 94/94/94 112/112/112 111/111/111
f 95/95/95 96/96/96 113/113/113
f 95/95/95 113/113/113 112/112/112
f 96/96/96 97/97/97 114/114/114
f 96/96/96 114/114/114 113/113/113
f 97/97/97 98/98/98 115/115/115
f 97/97/97 115/115/115 114/114/114
f 98/98/98 99/99/99 116/116/116
f 98/98/98 116/116/116 115/115/115
f 99/99/99 100/100/100 117/117/117
f 99/99/99 117/117/117 116/116/116
f 100/100/100 101/101/101 118/118/118
f 100/100/100 118/118/118 117/117/117
f 101/101/101 102/102/102 119/119/119
f 101/101/101 119/119/119 118/118/118
f 103/104/104 104/103/103 121/120/120
f 103/104/104 121/120/120 120/121/121
f 104/103/103 105/105/105 122/122/122
f 104/103/103 122/122/122 121/120/120
f 105/105/105 106/106/106 123/123/123
f 105/105/105 123/123/123 122/122/122
f 106/106/106 107/107/107 124/124/124
f 106/106/106 124/124/124 123/123/123
f 107/107/107 108/108/108 125/125/125
f 107/107/107 125/125/125 124/124/124
f 108/108/108 109/109/109 126/126/126
f 108/108/108 126/126/126 125/125/125
f 109/109/109 110/110/110 127/127/127
f 109/109/109 127/127/127 126/126/126
f 110/110/110 111/111/111 128/128/128
f 110/110/110 128/128/128 127/127/127
f 111/111/111 112/112/112 129/129/129
f 111/111/111 129/129/129 128/128/128
f 112/112/112 113/113/113 130/130/130
f 112/112/112 130/130/130 129/129/129
f 113/113/113 114/114/114 131/131/131
f 113/113/113 131/131/131 130/130/130
f 114/114/114 115/115/115 132/132/132
f 114/114/114 132/132/132 131/131/131
f 115/115/115 116/116/116 133/133/133
f 115/115/115 133/133/133 132/132/132
f 116/116/116 117/117/117 134/134/134
f 116/116/116 134/134/134 133/133/133
f 117/117/117 118/118/118 135/135/135
f 117/117/117 135/135/135 134/134/134
f 118/118/118 119/119/119 136/136/136
f 118/118/118 136/136/136 135/135/135
f 120/121/121 121/120/120 138/137/137
f 120/121/121 138/137/137 137/138/138
f 121/120/120 122/122/122 139/139/139
f 121/120/120 139/139/139 138/137/137
f 122/122/122 123/123/123 140/140/140
f 122/122/122 140/140/140 139/139/139
f 123/123/123 124/124/124 141/141/141
f 123/123/123 141/141/141 140/140/140
f 124/124/124 125/125/125 142/142/142
f 124/124/124 142/142/142 141/141/141
f 125/125/125 126/126/126 143/143/143
f 125/125/125 143/143/143 142/142/142
f 126/126/126 127/127/127 144/144/144
f 126/126/126 144/144/144 143/143/143
f 127/127/127 128/128/128 145/145/145
f 127/127/127 145/145/145 144/144/144
f 128/128/128 129/129/129 146/146/146
f 128/128/128 146/146/146 145/145/145
f 129/129/129 130/130/130 147/147/147
f 129/129/129 147/147/147 146/146/146
f 130/130/130 131/131/131 148/148/148
f 130/130/130 148/148/148 147/147/147
f 131/131/131 132/132/132 149/149/149
f 131/131/131 149/149/149 148/148/148
f 132/132/132 133/133/133 150/150/150
f 132/132/132 150/150/150 149/149/149
f 133/133/133 134/134/134 151/151/151
f 133/133/133 151/151/151 150/150/150
f 134/134/134 135/135/135 152/152/152
f 134/134/134 152/152/152 151/151/151
f 135/135/135 136/136/136 153/153/153
f 135/135/135 153/153/153 152/152/152
f 137/138/138 138/137/137 155/154/154
f 137/138/138 155/154/154 154/155/155
f 138/137/137 139/139/139 156/156/156
f 138/137/137 156/156/156 155/154/154
f 139/139/139 140/140/140 157/157/157
f 139/139/139 157/157/157 156/156/156
f 140/140/140 141/141/141 158/158/158
f 140/140/140 158/158/158 157/157/157
f 141/141/141 142/142/142 159/159/159
f 141/141/141 159/159/159 158/158/158
f 142/142/142 143/143/143 160/160/160
f 142/142/142 160/160/160 159/159/159
f 143/143/143 144/144/144 161/161/161
f 143/143/143 161/161/161 160/160/160
f 144/144/144 145/145/145 162/162/162
f 144/144/144 162/162/162 161/161/161
f 145/145/145 146/146/146 163/163/163
f 145/145/145 163/163/163 162/162/162
f 146/146/146 147/147/147 164/164/164
f 146/146/146 164/164/164 163/163/163
f 147/147/147 148/148/148 165/165/165
f 147/147/147 165/165/165 164/164/164
f 148/148/148 149/149/149 166/166/166
f 148/148/148 166/166/166 165/165/165
f 149/149/149 150/150/150 167/167/167
f 149/149/149 167/167/167 166/166/166
f 150/150/150 151/151/151 168/168/168
f 150/150/150 168/168/168 167/167/167
f 151/151/151 152/152/152 169/169/169
f 151/151/151 169/169/169 168/168/168
f 152/152/152 153/153/153 170/170/170
f 152/152/152 170/170/170 169/169/169
f 154/155/155 155/154/154 172/171/171
f 154/155/155 172/171/171 171/172/172
f 155/154/154 156/156/156 173/173/173
f 155/154/154 173/173/173 172/171/171
f 156/156/156 157/157/157 174/174/174
f 156/156/156 174/174/174 173/173/173
f 157/157/157 158/158/158 175/175/175
f 157/157/157 175/175/175 174/174/174
f 158/158/158 159/159/159 176/176/176
f 158/158/158 176/176/176 175/175/175
f 159/159/159 160/160/160 177/177/177
f 159/159/159 177/177/177 176/176/176
f 160/160/160 161/161/161 178/178/178
f 160/160/160 178/178/178 177/177/177
f 161/161/161 162/162/162 179/179/179
f 161/161/161 179/179/179 178/178/178
f 162/162/162 163/163/163 180/180/180
f 162/162/162 180/180/180 179/179/179
f 163/163/163 164/164/164 181/181/181
f 163/163/163 181/181/181 180/180/180
f 164/164/164 165/165/165 182/182/182
f 164/164/164 182/182/182 181/181/181
f 165/165/165 166/166/166 183/183/183
f 165/165/165 183/183/183 182/182/182
f 166/166/166 167/167/167 184/184/184
f 166/166/166 184/184/184 183/183/183
f 167/167/167 168/168/168 185/185/185
f 167/167/167 185/185/185 184/184/184
f 168/168/168 169/169/169 186/186/186
f 168/168/168 186/186/186 185/185/185
f 169/169/169 170/170/170 187/187/187
f 169/169/169 187/187/187 186/186/186
f 171/172/172 172/171/171 189/188/188
f 171/172/172 189/188/188 188/189/189
f 172/171/171 173/173/173 190/190/190
f 172/171/171 190/190/190 189/188/188
f 173/173/173 174/174/174 191/191/191
f 173/173/173 191/191/191 190/190/190
f 174/174/174 175/175/175 192/192/192
f 174/174/174 192/192/192 191/191/191
f 175/175/175 176/176/176 193/193/193
f 175/175/175 193/193/193 192/192/192
f 176/176/176 177/177/177 194/194/194
f 176/176/176 194/194/194 193/193/193
f 177/177/177 178/178/178 195/195/195
f 177/177/177 195/195/195 194/194/194
f 178/178/178 179/179/179 196/196/196
f 178/178/178 196/196/196 195/195/195
f 179/179/179 180/180/180 197/197/197
f 179/179/179 197/197/197 196/196/196
f 180/180/180 181/181/181 198/198/198
f 180/180/180 198/198/198 197/197/197
f 181/181/181 182/182/182 199/199/199
f 181/181/181 199/199/199 198/198/198
f 182/182/182 183/183/183 200/200/200
f 182/182/182 200/200/200 199/199/199
f 183/183/183 184/184/184 201/201/201
f 183/183/183 201/201/201 200/200/200
f 184/184/184 185/185/185 202/202/202
f 184/184/184 202/202/202 201/201/201
f 185/185/185 186/186/186 203/203/203
f 185/185/185 203/203/203 202/202/202
f 186/186/186 187/187/187 204/204/204
f 186/186/186 204/204/204 203/203/203
f 188/189/189 189/188/188 206/205/205
f 188/189/189 206/205/205 205/206/206
f 189/188/188 190/190/190 207/207/207
f 189/188/188 207/207/207 206/205/205
f 190/190/190 191/191/191 208/208/208
f 190/190/190 208/208/208 207/207/207
f 191/191/191 192/192/192 209/209/209
f 191/191/191 209/209/209 208/208/208
f 192/192/192 193/193/193 210/210/210
f 192/192/192 210/210/210 209/209/209
f 193/193/193 194/194/194 211/211/211
f 193/193/193 211/211/211 210/210/210
f 194/194/194 195/195/195 212/212/212
f 194/194/194 212/212/212 211/211/211
f 195/195/195 196/196/196 213/213/213
f 195/195/195 213/213/213 212/212/212
f 196/196/196 197/197/197 214/214/214
f 196/196/196 214/214/214 213/213/213
f 197/197/197 198/198/198 215/215/215
f 197/197/197 215/215/215 214/214/214
f 198/198/198 199/199/199 216/216/216
f 198/198/198 216/216/216 215/215/215
f 199/199/199 200/200/200 217/217/217
f 199/199/199 217/217/217 216/216/216
f 200/200/200 201/201/201 218/218/218
f 200/200/200 218/218/218 217/217/217
f 201/201/201 202/202/202 219/219/219
f 201/201/201 219/219/219 218/218/218
f 202/202/202 203/203/203 220/220/220
f 202/202/202 220/220/220 219/219/219
f 203/203/203 204/204/204 221/221/221
f 203/203/203 221/221/221 220/220/220
f 205/206/206 206/205/205 223/222/222
f 205/206/206 223/222/222 222/223/223
f 206/205/205 207/207/207 224/224/224
f 206/205/205 224/224/224 223/222/222
f 207/207/207 208/208/208 225/225/225
f 207/207/207 225/225/225 224/224/224
f 208/208/208 209/209/209 226/226/226
f 208/208/208 226/226/226 225/225/225
f 209/209/209 210/210/210 227/227/227
f 209/209/209 227/227/227 226/226/226
f 210/210/210 211/211/211 228/228/228
f 210/210/210 228/228/228 227/227/227
f 211/211/211 212/212/212 229/229/229
f 211/211/211 229/229/229 228/228/228
f 212/212/212 213/213/213 230/230/230
f 212/212/212 230/230/230 229/229/229
f 213/213/213 214/214/214 231/231/231
f 213/213/213 231/231/231 230/230/230
f 214/214/214 215/215/215 232/232/232
f 214/214/214 232/232/232 231/231/231
f 215/215/215 216/216/216 233/233/233
f 215/215/215 233/233/233 232/232/232
f 216/216/216 217/217/217 234/234/234
f 216/216/216 234/234/234 233/233/233
f 217/217/217 218/218/218 235/235/235
f 217/217/217 235/235/235 234/234/234
f 218/218/218 219/219/219 236/236/236
f 218/218/218 236/236/236 235/235/235
f 219/219/219 220/220/220 237/237/237
f 219/219/219 237/237/237 236/236/236
f 220/220/220 221/221/221 238/238/238
f 220/220/220 238/238/238 237/237/237
f 222/223/223 223/222/222 240/239/239
f 222/223/223 240/239/239 239/240/240
f 223/222/222 224/224/224 241/241/241
f 223/222/222 241/241/241 240/239/239
f 224/224/224 225/225/225 242/242/242
f 224/224/224 242/242/242 241/241/241
f 225/225/225 226/226/226 243/243/243
f 225/225/225 243/243/243 242/242/242
f 226/226/226 227/227/227 244/244/244
f 226/226/226 244/244/244 243/243/243
f 227/227/227 228/228/228 245/245/245
f 227/227/227 245/245/245 244/244/244
f 228/228/228 229/229/229 246/246/246
f 228/228/228 246/246/246 245/245/245
f 229/229/229 230/230/230 247/247/247
f 229/229/229 247/247/247 246/246/246
f 230/230/230 231/231/231 248/248/248
f 230/230/230 248/248/248 247/247/247
f 231/231/231 232/232/232 249/249/249
f 231/231/231 249/249/249 248/248/248
f 232/232/232 233/233/233 250/250/250
f 232/232/232 250/250/250 249/249/249
f 233/233/233 234/234/234 251/251/251
f 233/233/233 251/251/251 250/250/250
f 234/234/234 235/235/235 252/252/252
f 234/234/234 252/252/252 251/251/251
f 235/235/235 236/236/236 253/253/253
f 235/235/235 253/253/253 252/252/252
f 236/236/236 237/237/237 254/254/254
f 236/236/236 254/254/254 253/253/253
f 237/237/237 238/238/238 255/255/255
f 237/237/237 255/255/255 254/254/254
f 239/240/240 240/239/239 257/256/256
f 239/240/240 257/256/256 256/257/257
f 240/239/239 241/241/241 258/258/258
f 240/239/239 258/258/258 257/256/256
f 241/241/241 242/242/242 259/259/259
f 241/241/241 259/259/259 258/258/258
f 242/242/242 243/243/243 260/260/260
f 242/242/242 260/260/260 259/259/259
f 243/243/243 244/244/244 261/261/261
f 243/243/243 261/261/261 260/260/260
f 244/244/244 245/245/245 262/262/262
f 244/244/244 262/262/262 261/261/261
f 245/245/245 246/246/246 263/263/263
f 245/245/245 263/263/263 262/262/262
f 246/246/246 247/247/247 264/264/264
f 246/246/246 264/264/264 263/263/263
f 247/247/247 248/248/248 265/265/265
f 247/247/247 265/265/265 264/264/264
f 248/248/248 249/249/249 266/266/266
f 248/248/248 266/266/266 265/265/265
f 249/249/249 250/250/250 267/267/267
f 249/249/249 267/267/267 266/266/266
f 250/250/250 251/251/251 268/268/268
f 250/250/250 268/268/268 267/267/267
f 251/251/251 252/252/252 269/269/269
f 251/251/251 269/269/269 268/268/268
f 252/252/252 253/253/253 270/270/270
f 252/252/252 270/270/270 269/269/269
f 253/253/253 254/254/254 271/271/271
f 253/253/253 271/271/271 270/270/270
f 254/254/254 255/255/255 272/272/272
f 254/254/254 272/272/272 271/271/271
f 256/257/257 257/256/256 274/273/273
f 256/257/257 274/273/273 273/274/274
f 257/256/256 258/258/258 275/275/275
f 257/256/256 275/275/275 274/273/273
f 258/258/258 259/259/259 276/276/276
f 258/258/258 276/276/276 275/275/275
f 259/259/259 260/260/260 277/277/277
f 259/259/259 277/277/277 276/276/276
f 260/260/260 261/261/261 278/278/278
f 260/260/260 278/278/278 277/277/277
f 261/261/261 262/262/262 279/279/279
f 261/261/261 279/279/279 278/278/278
f 262/262/262 263/263/263 280/280/280
f 262/262/262 280/280/280 279/279/279
f 263/263/263 264/264/264 281/281/281
f 263/263/263 281/281/281 280/280/280
f 264/264/264 265/265/265 282/282/282
f 264/264/264 282/282/282 281/281/281
f 265/265/265 266/266/266 283/283/283
f 265/265/265 283/283/283 282/282/282
f 266/266/266 267/267/267 284/284/284
f 266/266/266 284/284/284 283/283/283
f 267/267/267 268/268/268 285/285/285
f 267/267/267 285/285/285 284/284/284
f 268/268/268 269/269/269 286/286/286
f 268/268/268 286/286/286 285/285/285
f 269/269/269 270/270/270 287/287/287
f 269/269/269 287/287/287 286/286/286
f 270/270/270 271/271/271 288/288/288
f 270/270/270 288/288/288 287/287/287
f 271/271/271 272/272/272 289/289/289
f 271/271/271 289/289/289 288/288/288
