mtllib terrain_mid_06_05.mtl
usemtl terrain_mid_06_05
# Blender 5.1.1
# www.blender.org
o terrain_mid_06_05
v -160.000000 -160.000000 54.936028
v -140.000000 -160.000000 57.745625
v -120.000000 -160.000000 58.428200
v -100.000000 -160.000000 57.049248
v -80.000000 -160.000000 53.669262
v -60.000000 -160.000000 49.156742
v -40.000000 -160.000000 43.821995
v -20.000000 -160.000000 38.484638
v 0.000000 -160.000000 33.243076
v 20.000000 -160.000000 27.509180
v 40.000000 -160.000000 20.882458
v 60.000000 -160.000000 13.769814
v 80.000000 -160.000000 6.316093
v 100.000000 -160.000000 -1.852222
v 120.000000 -160.000000 -12.290508
v 140.000000 -160.000000 -25.301535
v 160.000000 -160.000000 -37.786976
v -160.000000 -140.000000 45.097614
v -140.000000 -140.000000 47.732780
v -120.000000 -140.000000 47.996464
v -100.000000 -140.000000 46.445610
v -80.000000 -140.000000 43.197075
v -60.000000 -140.000000 38.952160
v -40.000000 -140.000000 34.065910
v -20.000000 -140.000000 29.271538
v 0.000000 -140.000000 25.293713
v 20.000000 -140.000000 21.291218
v 40.000000 -140.000000 16.206324
v 60.000000 -140.000000 10.339185
v 80.000000 -140.000000 3.312878
v 100.000000 -140.000000 -3.835139
v 120.000000 -140.000000 -12.754918
v 140.000000 -140.000000 -24.497866
v 160.000000 -140.000000 -36.322701
v -160.000000 -120.000000 33.374294
v -140.000000 -120.000000 36.017700
v -120.000000 -120.000000 36.040825
v -100.000000 -120.000000 34.127392
v -80.000000 -120.000000 30.442707
v -60.000000 -120.000000 26.027369
v -40.000000 -120.000000 21.663261
v -20.000000 -120.000000 18.005444
v 0.000000 -120.000000 15.484557
v 20.000000 -120.000000 13.484923
v 40.000000 -120.000000 11.140807
v 60.000000 -120.000000 7.363619
v 80.000000 -120.000000 1.726392
v 100.000000 -120.000000 -4.714506
v 120.000000 -120.000000 -12.969605
v 140.000000 -120.000000 -23.727167
v 160.000000 -120.000000 -34.721645
v -160.000000 -100.000000 22.417717
v -140.000000 -100.000000 23.433064
v -120.000000 -100.000000 22.555147
v -100.000000 -100.000000 20.407808
v -80.000000 -100.000000 16.975924
v -60.000000 -100.000000 13.011887
v -40.000000 -100.000000 9.531459
v -20.000000 -100.000000 6.694599
v 0.000000 -100.000000 5.042140
v 20.000000 -100.000000 4.257472
v 40.000000 -100.000000 4.085631
v 60.000000 -100.000000 3.038776
v 80.000000 -100.000000 -0.568151
v 100.000000 -100.000000 -5.737096
v 120.000000 -100.000000 -13.249968
v 140.000000 -100.000000 -22.999310
v 160.000000 -100.000000 -33.230232
v -160.000000 -80.000000 14.109427
v -140.000000 -80.000000 11.961594
v -120.000000 -80.000000 10.024657
v -100.000000 -80.000000 7.627277
v -80.000000 -80.000000 4.747740
v -60.000000 -80.000000 1.702208
v -40.000000 -80.000000 -1.035856
v -20.000000 -80.000000 -3.392430
v 0.000000 -80.000000 -5.018224
v 20.000000 -80.000000 -5.407730
v 40.000000 -80.000000 -3.989042
v 60.000000 -80.000000 -2.416437
v 80.000000 -80.000000 -3.953526
v 100.000000 -80.000000 -7.801841
v 120.000000 -80.000000 -14.819751
v 140.000000 -80.000000 -23.858387
v 160.000000 -80.000000 -32.903023
v -160.000000 -60.000000 10.917188
v -140.000000 -60.000000 7.091992
v -120.000000 -60.000000 3.837184
v -100.000000 -60.000000 0.746255
v -80.000000 -60.000000 -2.061864
v -60.000000 -60.000000 -4.764507
v -40.000000 -60.000000 -7.654393
v -20.000000 -60.000000 -10.497038
v 0.000000 -60.000000 -12.720691
v 20.000000 -60.000000 -13.719186
v 40.000000 -60.000000 -12.308175
v 60.000000 -60.000000 -9.633227
v 80.000000 -60.000000 -9.386028
v 100.000000 -60.000000 -12.381573
v 120.000000 -60.000000 -19.613026
v 140.000000 -60.000000 -28.690207
v 160.000000 -60.000000 -35.305538
v -160.000000 -40.000000 10.837530
v -140.000000 -40.000000 6.790865
v -120.000000 -40.000000 3.327249
v -100.000000 -40.000000 0.008354
v -80.000000 -40.000000 -3.135994
v -60.000000 -40.000000 -6.149504
v -40.000000 -40.000000 -9.344097
v -20.000000 -40.000000 -12.561369
v 0.000000 -40.000000 -14.987903
v 20.000000 -40.000000 -17.016163
v 40.000000 -40.000000 -17.502260
v 60.000000 -40.000000 -16.717449
v 80.000000 -40.000000 -16.180014
v 100.000000 -40.000000 -19.391211
v 120.000000 -40.000000 -26.180252
v 140.000000 -40.000000 -32.357872
v 160.000000 -40.000000 -33.975052
v -160.000000 -20.000000 12.480983
v -140.000000 -20.000000 9.155720
v -120.000000 -20.000000 6.345315
v -100.000000 -20.000000 3.208291
v -80.000000 -20.000000 -0.480450
v -60.000000 -20.000000 -4.318429
v -40.000000 -20.000000 -7.703866
v -20.000000 -20.000000 -11.015362
v 0.000000 -20.000000 -13.387216
v 20.000000 -20.000000 -16.447639
v 40.000000 -20.000000 -20.238703
v 60.000000 -20.000000 -22.785944
v 80.000000 -20.000000 -23.721281
v 100.000000 -20.000000 -27.124777
v 120.000000 -20.000000 -31.462343
v 140.000000 -20.000000 -33.246502
v 160.000000 -20.000000 -29.483711
v -160.000000 0.000000 15.034293
v -140.000000 0.000000 12.343471
v -120.000000 0.000000 9.377291
v -100.000000 0.000000 5.673149
v -80.000000 0.000000 1.283636
v -60.000000 0.000000 -2.860699
v -40.000000 0.000000 -5.895170
v -20.000000 0.000000 -8.511279
v 0.000000 0.000000 -10.907716
v 20.000000 0.000000 -14.904509
v 40.000000 0.000000 -21.250727
v 60.000000 0.000000 -27.377029
v 80.000000 0.000000 -30.860312
v 100.000000 0.000000 -32.831238
v 120.000000 0.000000 -32.014683
v 140.000000 0.000000 -27.261421
v 160.000000 0.000000 -21.045635
v -160.000000 20.000000 18.248270
v -140.000000 20.000000 15.493983
v -120.000000 20.000000 12.001403
v -100.000000 20.000000 7.767678
v -80.000000 20.000000 3.176465
v -60.000000 20.000000 -0.828805
v -40.000000 20.000000 -3.536528
v -20.000000 20.000000 -6.314746
v 0.000000 20.000000 -9.655553
v 20.000000 20.000000 -14.898446
v 40.000000 20.000000 -22.332230
v 60.000000 20.000000 -29.899870
v 80.000000 20.000000 -33.660667
v 100.000000 20.000000 -32.670837
v 120.000000 20.000000 -27.555632
v 140.000000 20.000000 -20.541248
v 160.000000 20.000000 -13.508811
v -160.000000 40.000000 21.912704
v -140.000000 40.000000 18.605875
v -120.000000 40.000000 14.592996
v -100.000000 40.000000 10.309616
v -80.000000 40.000000 6.019591
v -60.000000 40.000000 2.371784
v -40.000000 40.000000 -0.677431
v -20.000000 40.000000 -4.573698
v 0.000000 40.000000 -9.669109
v 20.000000 40.000000 -16.025623
v 40.000000 40.000000 -23.554750
v 60.000000 40.000000 -30.259563
v 80.000000 40.000000 -32.832073
v 100.000000 40.000000 -29.328161
v 120.000000 40.000000 -22.007875
v 140.000000 40.000000 -14.486947
v 160.000000 40.000000 -7.796144
v -160.000000 60.000000 25.926193
v -140.000000 60.000000 22.578043
v -120.000000 60.000000 18.565653
v -100.000000 60.000000 14.377216
v -80.000000 60.000000 10.248812
v -60.000000 60.000000 6.312037
v -40.000000 60.000000 2.176906
v -20.000000 60.000000 -3.232966
v 0.000000 60.000000 -9.381370
v 20.000000 60.000000 -16.344625
v 40.000000 60.000000 -23.245037
v 60.000000 60.000000 -28.680645
v 80.000000 60.000000 -31.171694
v 100.000000 60.000000 -28.337561
v 120.000000 60.000000 -20.316536
v 140.000000 60.000000 -11.932788
v 160.000000 60.000000 -5.446128
v -160.000000 80.000000 30.546724
v -140.000000 80.000000 27.446390
v -120.000000 80.000000 23.593355
v -100.000000 80.000000 19.325859
v -80.000000 80.000000 14.730881
v -60.000000 80.000000 9.908724
v -40.000000 80.000000 4.453001
v -20.000000 80.000000 -1.497763
v 0.000000 80.000000 -8.032120
v 20.000000 80.000000 -15.021214
v 40.000000 80.000000 -21.415421
v 60.000000 80.000000 -26.338020
v 80.000000 80.000000 -29.915583
v 100.000000 80.000000 -28.946114
v 120.000000 80.000000 -21.604046
v 140.000000 80.000000 -12.763321
v 160.000000 80.000000 -5.199024
v -160.000000 100.000000 35.950661
v -140.000000 100.000000 32.959145
v -120.000000 100.000000 29.150105
v -100.000000 100.000000 24.438055
v -80.000000 100.000000 18.581034
v -60.000000 100.000000 12.259852
v -40.000000 100.000000 6.306822
v -20.000000 100.000000 0.878606
v 0.000000 100.000000 -5.459237
v 20.000000 100.000000 -12.311687
v 40.000000 100.000000 -18.462025
v 60.000000 100.000000 -23.800098
v 80.000000 100.000000 -29.174677
v 100.000000 100.000000 -29.923883
v 120.000000 100.000000 -24.739828
v 140.000000 100.000000 -15.902894
v 160.000000 100.000000 -6.556927
v -160.000000 120.000000 41.133720
v -140.000000 120.000000 38.024094
v -120.000000 120.000000 34.087048
v -100.000000 120.000000 28.571863
v -80.000000 120.000000 21.605541
v -60.000000 120.000000 14.265115
v -40.000000 120.000000 8.264593
v -20.000000 120.000000 3.296596
v 0.000000 120.000000 -3.024449
v 20.000000 120.000000 -9.871997
v 40.000000 120.000000 -15.941299
v 60.000000 120.000000 -21.964249
v 80.000000 120.000000 -28.215124
v 100.000000 120.000000 -30.099279
v 120.000000 120.000000 -26.735210
v 140.000000 120.000000 -18.899334
v 160.000000 120.000000 -8.972421
v -160.000000 140.000000 45.147461
v -140.000000 140.000000 41.592655
v -120.000000 140.000000 37.349236
v -100.000000 140.000000 31.446423
v -80.000000 140.000000 23.955633
v -60.000000 140.000000 16.451061
v -40.000000 140.000000 10.701239
v -20.000000 140.000000 5.830205
v 0.000000 140.000000 -0.564475
v 20.000000 140.000000 -7.252043
v 40.000000 140.000000 -13.050925
v 60.000000 140.000000 -19.106657
v 80.000000 140.000000 -25.768074
v 100.000000 140.000000 -29.137955
v 120.000000 140.000000 -27.830175
v 140.000000 140.000000 -21.610388
v 160.000000 140.000000 -12.266108
v -160.000000 160.000000 46.226017
v -140.000000 160.000000 42.073349
v -120.000000 160.000000 37.511024
v -100.000000 160.000000 32.083622
v -80.000000 160.000000 25.618860
v -60.000000 160.000000 19.060770
v -40.000000 160.000000 13.588961
v -20.000000 160.000000 8.452819
v 0.000000 160.000000 2.107570
v 20.000000 160.000000 -4.212478
v 40.000000 160.000000 -9.254525
v 60.000000 160.000000 -14.518230
v 80.000000 160.000000 -21.286366
v 100.000000 160.000000 -26.903315
v 120.000000 160.000000 -28.186682
v 140.000000 160.000000 -24.045216
v 160.000000 160.000000 -15.845352
vn -0.1462 0.4187 0.8963
vn -0.0785 0.4308 0.8990
vn -0.0636 0.4764 0.8769
vn -0.1364 0.4701 0.8720
vn 0.0156 0.4454 0.8952
vn 0.0281 0.4882 0.8723
vn 0.1057 0.4458 0.8889
vn 0.1037 0.4945 0.8630
vn 0.1745 0.4326 0.8845
vn 0.1600 0.4957 0.8536
vn 0.2175 0.4153 0.8833
vn 0.1939 0.4911 0.8492
vn 0.2367 0.3960 0.8872
vn 0.2071 0.4741 0.8558
vn 0.2367 0.3779 0.8951
vn 0.1916 0.4473 0.8737
vn 0.2494 0.3344 0.9088
vn 0.1794 0.3992 0.8992
vn 0.2837 0.2762 0.9183
vn 0.2096 0.3235 0.9227
vn 0.3166 0.2235 0.9218
vn 0.2571 0.2286 0.9390
vn 0.3362 0.1861 0.9232
vn 0.3032 0.1506 0.9409
vn 0.3585 0.1703 0.9179
vn 0.3320 0.1075 0.9371
vn 0.4183 0.1286 0.8992
vn 0.3720 0.0663 0.9259
vn 0.5048 0.0602 0.8611
vn 0.4589 0.0151 0.8884
vn 0.5375 0.0041 0.8433
vn 0.5074 -0.0339 0.8611
vn 0.4211 -0.0339 0.9064
vn 0.4048 -0.0699 0.9117
vn -0.0569 0.5184 0.8533
vn -0.1232 0.4895 0.8633
vn 0.0398 0.5362 0.8431
vn 0.1165 0.5418 0.8324
vn 0.1670 0.5405 0.8246
vn 0.1811 0.5351 0.8251
vn 0.1685 0.5154 0.8402
vn 0.1333 0.4872 0.8631
vn 0.1003 0.4494 0.8877
vn 0.0994 0.3899 0.9155
vn 0.1450 0.2869 0.9469
vn 0.2258 0.1754 0.9583
vn 0.2878 0.0925 0.9532
vn 0.3444 0.0446 0.9378
vn 0.4292 0.0112 0.9031
vn 0.4775 -0.0328 0.8780
vn 0.4071 -0.0704 0.9107
vn -0.0029 0.5154 0.8570
vn -0.0338 0.4337 0.9004
vn 0.0633 0.5441 0.8366
vn 0.1155 0.5486 0.8281
vn 0.1537 0.5340 0.8314
vn 0.1571 0.5132 0.8438
vn 0.1362 0.4890 0.8616
vn 0.0985 0.4694 0.8775
vn 0.0542 0.4555 0.8886
vn 0.0216 0.4270 0.9040
vn 0.0285 0.3536 0.9349
vn 0.1123 0.2360 0.9652
vn 0.2123 0.1374 0.9675
vn 0.3014 0.0734 0.9507
vn 0.3959 0.0424 0.9173
vn 0.4468 0.0029 0.8946
vn 0.3914 -0.0418 0.9193
vn 0.0941 0.3765 0.9216
vn 0.1331 0.2739 0.9525
vn 0.0977 0.4218 0.9014
vn 0.1176 0.4381 0.8912
vn 0.1326 0.4259 0.8950
vn 0.1310 0.4026 0.9059
vn 0.1163 0.3921 0.9126
vn 0.0911 0.3932 0.9149
vn 0.0460 0.4054 0.9130
vn -0.0234 0.4098 0.9119
vn -0.0690 0.3783 0.9231
vn -0.0008 0.3020 0.9533
vn 0.1304 0.2135 0.9682
vn 0.2588 0.1583 0.9529
vn 0.3686 0.1461 0.9181
vn 0.4085 0.1285 0.9037
vn 0.3343 0.0488 0.9412
vn 0.1729 0.1262 0.9768
vn 0.2038 0.0798 0.9758
vn 0.1546 0.1631 0.9744
vn 0.1434 0.1852 0.9722
vn 0.1340 0.1916 0.9723
vn 0.1359 0.1908 0.9722
vn 0.1390 0.2014 0.9696
vn 0.1225 0.2218 0.9674
vn 0.0779 0.2411 0.9674
vn -0.0099 0.2787 0.9603
vn -0.0963 0.3186 0.9430
vn -0.0686 0.3359 0.9394
vn 0.0656 0.2917 0.9543
vn 0.2385 0.2703 0.9328
vn 0.3651 0.2543 0.8955
vn 0.3583 0.1940 0.9132
vn 0.1846 0.0263 0.9825
vn 0.1843 -0.0506 0.9816
vn 0.2068 -0.0382 0.9776
vn 0.1669 -0.0617 0.9840
vn 0.1592 -0.0606 0.9854
vn 0.1521 -0.0390 0.9876
vn 0.1533 -0.0111 0.9881
vn 0.1582 0.0012 0.9874
vn 0.1397 0.0128 0.9901
vn 0.1106 0.0166 0.9937
vn 0.0626 0.0679 0.9957
vn -0.0073 0.1945 0.9809
vn -0.0314 0.3122 0.9495
vn 0.0628 0.3367 0.9395
vn 0.2284 0.3367 0.9135
vn 0.2968 0.2712 0.9156
vn 0.1901 0.1111 0.9755
vn -0.0455 -0.1439 0.9886
vn 0.1502 -0.1359 0.9793
vn 0.1799 -0.1026 0.9783
vn 0.1454 -0.1479 0.9782
vn 0.1666 -0.1382 0.9763
vn 0.1838 -0.1080 0.9770
vn 0.1771 -0.0807 0.9809
vn 0.1645 -0.0848 0.9827
vn 0.1400 -0.0997 0.9851
vn 0.1339 -0.1005 0.9859
vn 0.1686 -0.0520 0.9843
vn 0.1559 0.0922 0.9835
vn 0.0838 0.2566 0.9629
vn 0.1013 0.3428 0.9339
vn 0.1804 0.3133 0.9324
vn 0.1497 0.1427 0.9784
vn -0.0490 -0.1262 0.9908
vn -0.2325 -0.2991 0.9254
vn 0.1383 -0.1550 0.9782
vn 0.1443 -0.1412 0.9794
vn 0.1629 -0.1381 0.9769
vn 0.1971 -0.1111 0.9741
vn 0.2078 -0.0891 0.9741
vn 0.1760 -0.0856 0.9807
vn 0.1391 -0.1026 0.9850
vn 0.1235 -0.1158 0.9856
vn 0.1572 -0.0917 0.9833
vn 0.2500 -0.0373 0.9675
vn 0.2973 0.0499 0.9535
vn 0.2302 0.1704 0.9581
vn 0.1312 0.2391 0.9621
vn 0.0286 0.1373 0.9901
vn -0.1372 -0.0963 0.9858
vn -0.2527 -0.2930 0.9221
vn -0.2832 -0.3557 0.8907
vn 0.1525 -0.1528 0.9764
vn 0.1214 -0.1682 0.9782
vn 0.1881 -0.1270 0.9739
vn 0.2141 -0.1125 0.9703
vn 0.2087 -0.1150 0.9712
vn 0.1641 -0.1280 0.9781
vn 0.1347 -0.1281 0.9826
vn 0.1506 -0.0969 0.9838
vn 0.2097 -0.0302 0.9773
vn 0.3020 0.0267 0.9529
vn 0.3507 0.0539 0.9350
vn 0.2718 0.0692 0.9599
vn 0.0690 0.0491 0.9964
vn -0.1503 -0.0863 0.9849
vn -0.2820 -0.2331 0.9307
vn -0.3173 -0.2884 0.9034
vn -0.3006 -0.2999 0.9054
vn 0.1773 -0.1716 0.9691
vn 0.1161 -0.1872 0.9754
vn 0.2005 -0.1587 0.9668
vn 0.2069 -0.1595 0.9653
vn 0.1918 -0.1709 0.9664
vn 0.1626 -0.1734 0.9713
vn 0.1695 -0.1394 0.9756
vn 0.2187 -0.0749 0.9729
vn 0.2752 -0.0066 0.9614
vn 0.3277 0.0341 0.9441
vn 0.3352 0.0215 0.9419
vn 0.2258 -0.0297 0.9737
vn -0.0231 -0.0622 0.9978
vn -0.2598 -0.1040 0.9601
vn -0.3429 -0.1673 0.9243
vn -0.3281 -0.1987 0.9235
vn -0.2973 -0.1887 0.9360
vn 0.1768 -0.2124 0.9610
vn 0.1161 -0.2096 0.9709
vn 0.1962 -0.2152 0.9567
vn 0.1988 -0.2155 0.9561
vn 0.1933 -0.2088 0.9587
vn 0.1946 -0.1817 0.9639
vn 0.2303 -0.1238 0.9652
vn 0.2768 -0.0737 0.9581
vn 0.3113 -0.0389 0.9495
vn 0.3274 -0.0237 0.9446
vn 0.2943 -0.0510 0.9543
vn 0.1935 -0.0957 0.9764
vn -0.0086 -0.0727 0.9973
vn -0.2619 -0.0092 0.9651
vn -0.3794 -0.0093 0.9252
vn -0.3482 -0.0403 0.9366
vn -0.2992 -0.0618 0.9522
vn 0.1660 -0.2476 0.9545
vn 0.1170 -0.2414 0.9633
vn 0.1926 -0.2510 0.9486
vn 0.2101 -0.2385 0.9481
vn 0.2247 -0.1988 0.9539
vn 0.2463 -0.1426 0.9587
vn 0.2729 -0.0988 0.9570
vn 0.2965 -0.0977 0.9500
vn 0.3189 -0.0925 0.9433
vn 0.3158 -0.0952 0.9440
vn 0.2704 -0.1143 0.9559
vn 0.2064 -0.1185 0.9713
vn 0.0650 -0.0497 0.9966
vn -0.2033 0.0388 0.9783
vn -0.3731 0.1020 0.9222
vn -0.3779 0.0914 0.9213
vn -0.3390 0.0261 0.9404
vn 0.1622 -0.2523 0.9540
vn 0.1238 -0.2539 0.9593
vn 0.2018 -0.2485 0.9474
vn 0.2493 -0.2181 0.9435
vn 0.2874 -0.1623 0.9440
vn 0.2918 -0.1036 0.9509
vn 0.2725 -0.0913 0.9578
vn 0.2804 -0.1142 0.9531
vn 0.3110 -0.1180 0.9430
vn 0.3071 -0.1212 0.9439
vn 0.2737 -0.1304 0.9529
vn 0.2572 -0.1051 0.9606
vn 0.1512 -0.0420 0.9876
vn -0.1101 0.0286 0.9935
vn -0.3284 0.1202 0.9369
vn -0.4098 0.1383 0.9016
vn -0.3990 0.0861 0.9129
vn 0.1697 -0.2079 0.9633
vn 0.1349 -0.2220 0.9657
vn 0.2255 -0.1957 0.9544
vn 0.2938 -0.1650 0.9415
vn 0.3341 -0.1255 0.9341
vn 0.3148 -0.0989 0.9440
vn 0.2629 -0.1054 0.9590
vn 0.2697 -0.1183 0.9556
vn 0.3106 -0.1155 0.9435
vn 0.3051 -0.1195 0.9448
vn 0.2872 -0.1282 0.9493
vn 0.2915 -0.1115 0.9501
vn 0.1986 -0.0831 0.9765
vn -0.0369 -0.0196 0.9991
vn -0.2689 0.0742 0.9603
vn -0.4025 0.1293 0.9063
vn -0.4234 0.1280 0.8969
vn 0.1903 -0.0989 0.9767
vn 0.1552 -0.1248 0.9800
vn 0.2451 -0.0827 0.9660
vn 0.3164 -0.0830 0.9450
vn 0.3495 -0.0935 0.9323
vn 0.3125 -0.1131 0.9432
vn 0.2545 -0.1276 0.9586
vn 0.2690 -0.1228 0.9553
vn 0.3086 -0.1211 0.9435
vn 0.2953 -0.1339 0.9460
vn 0.2806 -0.1583 0.9467
vn 0.2984 -0.1746 0.9383
vn 0.2399 -0.1657 0.9566
vn 0.0513 -0.0795 0.9955
vn -0.1848 0.0356 0.9821
vn -0.3600 0.1191 0.9253
vn -0.4189 0.1538 0.8949
vn 0.2128 0.0203 0.9769
vn 0.1861 -0.0151 0.9824
vn 0.2421 0.0430 0.9693
vn 0.2849 0.0232 0.9583
vn 0.3094 -0.0306 0.9504
vn 0.2870 -0.0856 0.9541
vn 0.2549 -0.1056 0.9612
vn 0.2745 -0.1014 0.9562
vn 0.2999 -0.1137 0.9472
vn 0.2704 -0.1442 0.9519
vn 0.2452 -0.1851 0.9516
vn 0.2811 -0.2180 0.9346
vn 0.2893 -0.2079 0.9344
vn 0.1686 -0.1268 0.9775
vn -0.0713 -0.0140 0.9974
vn -0.2938 0.0829 0.9523
vn -0.3978 0.1345 0.9076
vt 0.015625 0.015625
vt 0.076172 0.015625
vt 0.076172 0.076172
vt 0.015625 0.076172
vt 0.136719 0.015625
vt 0.136719 0.076172
vt 0.197266 0.015625
vt 0.197266 0.076172
vt 0.257812 0.015625
vt 0.257812 0.076172
vt 0.318359 0.015625
vt 0.318359 0.076172
vt 0.378906 0.015625
vt 0.378906 0.076172
vt 0.439453 0.015625
vt 0.439453 0.076172
vt 0.500000 0.015625
vt 0.500000 0.076172
vt 0.560547 0.015625
vt 0.560547 0.076172
vt 0.621094 0.015625
vt 0.621094 0.076172
vt 0.681641 0.015625
vt 0.681641 0.076172
vt 0.742188 0.015625
vt 0.742188 0.076172
vt 0.802734 0.015625
vt 0.802734 0.076172
vt 0.863281 0.015625
vt 0.863281 0.076172
vt 0.923828 0.015625
vt 0.923828 0.076172
vt 0.984375 0.015625
vt 0.984375 0.076172
vt 0.076172 0.136719
vt 0.015625 0.136719
vt 0.136719 0.136719
vt 0.197266 0.136719
vt 0.257812 0.136719
vt 0.318359 0.136719
vt 0.378906 0.136719
vt 0.439453 0.136719
vt 0.500000 0.136719
vt 0.560547 0.136719
vt 0.621094 0.136719
vt 0.681641 0.136719
vt 0.742188 0.136719
vt 0.802734 0.136719
vt 0.863281 0.136719
vt 0.923828 0.136719
vt 0.984375 0.136719
vt 0.076172 0.197266
vt 0.015625 0.197266
vt 0.136719 0.197266
vt 0.197266 0.197266
vt 0.257812 0.197266
vt 0.318359 0.197266
vt 0.378906 0.197266
vt 0.439453 0.197266
vt 0.500000 0.197266
vt 0.560547 0.197266
vt 0.621094 0.197266
vt 0.681641 0.197266
vt 0.742188 0.197266
vt 0.802734 0.197266
vt 0.863281 0.197266
vt 0.923828 0.197266
vt 0.984375 0.197266
vt 0.076172 0.257812
vt 0.015625 0.257812
vt 0.136719 0.257812
vt 0.197266 0.257812
vt 0.257812 0.257812
vt 0.318359 0.257812
vt 0.378906 0.257812
vt 0.439453 0.257812
vt 0.500000 0.257812
vt 0.560547 0.257812
vt 0.621094 0.257812
vt 0.681641 0.257812
vt 0.742188 0.257812
vt 0.802734 0.257812
vt 0.863281 0.257812
vt 0.923828 0.257812
vt 0.984375 0.257812
vt 0.076172 0.318359
vt 0.015625 0.318359
vt 0.136719 0.318359
vt 0.197266 0.318359
vt 0.257812 0.318359
vt 0.318359 0.318359
vt 0.378906 0.318359
vt 0.439453 0.318359
vt 0.500000 0.318359
vt 0.560547 0.318359
vt 0.621094 0.318359
vt 0.681641 0.318359
vt 0.742188 0.318359
vt 0.802734 0.318359
vt 0.863281 0.318359
vt 0.923828 0.318359
vt 0.984375 0.318359
vt 0.076172 0.378906
vt 0.015625 0.378906
vt 0.136719 0.378906
vt 0.197266 0.378906
vt 0.257812 0.378906
vt 0.318359 0.378906
vt 0.378906 0.378906
vt 0.439453 0.378906
vt 0.500000 0.378906
vt 0.560547 0.378906
vt 0.621094 0.378906
vt 0.681641 0.378906
vt 0.742188 0.378906
vt 0.802734 0.378906
vt 0.863281 0.378906
vt 0.923828 0.378906
vt 0.984375 0.378906
vt 0.076172 0.439453
vt 0.015625 0.439453
vt 0.136719 0.439453
vt 0.197266 0.439453
vt 0.257812 0.439453
vt 0.318359 0.439453
vt 0.378906 0.439453
vt 0.439453 0.439453
vt 0.500000 0.439453
vt 0.560547 0.439453
vt 0.621094 0.439453
vt 0.681641 0.439453
vt 0.742188 0.439453
vt 0.802734 0.439453
vt 0.863281 0.439453
vt 0.923828 0.439453
vt 0.984375 0.439453
vt 0.076172 0.500000
vt 0.015625 0.500000
vt 0.136719 0.500000
vt 0.197266 0.500000
vt 0.257812 0.500000
vt 0.318359 0.500000
vt 0.378906 0.500000
vt 0.439453 0.500000
vt 0.500000 0.500000
vt 0.560547 0.500000
vt 0.621094 0.500000
vt 0.681641 0.500000
vt 0.742188 0.500000
vt 0.802734 0.500000
vt 0.863281 0.500000
vt 0.923828 0.500000
vt 0.984375 0.500000
vt 0.076172 0.560547
vt 0.015625 0.560547
vt 0.136719 0.560547
vt 0.197266 0.560547
vt 0.257812 0.560547
vt 0.318359 0.560547
vt 0.378906 0.560547
vt 0.439453 0.560547
vt 0.500000 0.560547
vt 0.560547 0.560547
vt 0.621094 0.560547
vt 0.681641 0.560547
vt 0.742188 0.560547
vt 0.802734 0.560547
vt 0.863281 0.560547
vt 0.923828 0.560547
vt 0.984375 0.560547
vt 0.076172 0.621094
vt 0.015625 0.621094
vt 0.136719 0.621094
vt 0.197266 0.621094
vt 0.257812 0.621094
vt 0.318359 0.621094
vt 0.378906 0.621094
vt 0.439453 0.621094
vt 0.500000 0.621094
vt 0.560547 0.621094
vt 0.621094 0.621094
vt 0.681641 0.621094
vt 0.742188 0.621094
vt 0.802734 0.621094
vt 0.863281 0.621094
vt 0.923828 0.621094
vt 0.984375 0.621094
vt 0.076172 0.681641
vt 0.015625 0.681641
vt 0.136719 0.681641
vt 0.197266 0.681641
vt 0.257812 0.681641
vt 0.318359 0.681641
vt 0.378906 0.681641
vt 0.439453 0.681641
vt 0.500000 0.681641
vt 0.560547 0.681641
vt 0.621094 0.681641
vt 0.681641 0.681641
vt 0.742188 0.681641
vt 0.802734 0.681641
vt 0.863281 0.681641
vt 0.923828 0.681641
vt 0.984375 0.681641
vt 0.076172 0.742188
vt 0.015625 0.742188
vt 0.136719 0.742188
vt 0.197266 0.742188
vt 0.257812 0.742188
vt 0.318359 0.742188
vt 0.378906 0.742188
vt 0.439453 0.742188
vt 0.500000 0.742188
vt 0.560547 0.742188
vt 0.621094 0.742188
vt 0.681641 0.742188
vt 0.742188 0.742188
vt 0.802734 0.742188
vt 0.863281 0.742188
vt 0.923828 0.742188
vt 0.984375 0.742188
vt 0.076172 0.802734
vt 0.015625 0.802734
vt 0.136719 0.802734
vt 0.197266 0.802734
vt 0.257812 0.802734
vt 0.318359 0.802734
vt 0.378906 0.802734
vt 0.439453 0.802734
vt 0.500000 0.802734
vt 0.560547 0.802734
vt 0.621094 0.802734
vt 0.681641 0.802734
vt 0.742188 0.802734
vt 0.802734 0.802734
vt 0.863281 0.802734
vt 0.923828 0.802734
vt 0.984375 0.802734
vt 0.076172 0.863281
vt 0.015625 0.863281
vt 0.136719 0.863281
vt 0.197266 0.863281
vt 0.257812 0.863281
vt 0.318359 0.863281
vt 0.378906 0.863281
vt 0.439453 0.863281
vt 0.500000 0.863281
vt 0.560547 0.863281
vt 0.621094 0.863281
vt 0.681641 0.863281
vt 0.742188 0.863281
vt 0.802734 0.863281
vt 0.863281 0.863281
vt 0.923828 0.863281
vt 0.984375 0.863281
vt 0.076172 0.923828
vt 0.015625 0.923828
vt 0.136719 0.923828
vt 0.197266 0.923828
vt 0.257812 0.923828
vt 0.318359 0.923828
vt 0.378906 0.923828
vt 0.439453 0.923828
vt 0.500000 0.923828
vt 0.560547 0.923828
vt 0.621094 0.923828
vt 0.681641 0.923828
vt 0.742188 0.923828
vt 0.802734 0.923828
vt 0.863281 0.923828
vt 0.923828 0.923828
vt 0.984375 0.923828
vt 0.076172 0.984375
vt 0.015625 0.984375
vt 0.136719 0.984375
vt 0.197266 0.984375
vt 0.257812 0.984375
vt 0.318359 0.984375
vt 0.378906 0.984375
vt 0.439453 0.984375
vt 0.500000 0.984375
vt 0.560547 0.984375
vt 0.621094 0.984375
vt 0.681641 0.984375
vt 0.742188 0.984375
vt 0.802734 0.984375
vt 0.863281 0.984375
vt 0.923828 0.984375
vt 0.984375 0.984375
s 1
f 1/1/1 2/2/2 19/3/3
f 1/1/1 19/3/3 18/4/4
f 2/2/2 3/5/5 20/6/6
f 2/2/2 20/6/6 19/3/3
f 3/5/5 4/7/7 21/8/8
f 3/5/5 21/8/8 20/6/6
f 4/7/7 5/9/9 22/10/10
f 4/7/7 22/10/10 21/8/8
f 5/9/9 6/11/11 23/12/12
f 5/9/9 23/12/12 22/10/10
f 6/11/11 7/13/13 24/14/14
f 6/11/11 24/14/14 23/12/12
f 7/13/13 8/15/15 25/16/16
f 7/13/13 25/16/16 24/14/14
f 8/15/15 9/17/17 26/18/18
f 8/15/15 26/18/18 25/16/16
f 9/17/17 10/19/19 27/20/20
f 9/17/17 27/20/20 26/18/18
f 10/19/19 11/21/21 28/22/22
f 10/19/19 28/22/22 27/20/20
f 11/21/21 12/23/23 29/24/24
f 11/21/21 29/24/24 28/22/22
f 12/23/23 13/25/25 30/26/26
f 12/23/23 30/26/26 29/24/24
f 13/25/25 14/27/27 31/28/28
f 13/25/25 31/28/28 30/26/26
f 14/27/27 15/29/29 32/30/30
f 14/27/27 32/30/30 31/28/28
f 15/29/29 16/31/31 33/32/32
f 15/29/29 33/32/32 32/30/30
f 16/31/31 17/33/33 34/34/34
f 16/31/31 34/34/34 33/32/32
f 18/4/4 19/3/3 36/35/35
f 18/4/4 36/35/35 35/36/36
f 19/3/3 20/6/6 37/37/37
f 19/3/3 37/37/37 36/35/35
f 20/6/6 21/8/8 38/38/38
f 20/6/6 38/38/38 37/37/37
f 21/8/8 22/10/10 39/39/39
f 21/8/8 39/39/39 38/38/38
f 22/10/10 23/12/12 40/40/40
f 22/10/10 40/40/40 39/39/39
f 23/12/12 24/14/14 41/41/41
f 23/12/12 41/41/41 40/40/40
f 24/14/14 25/16/16 42/42/42
f 24/14/14 42/42/42 41/41/41
f 25/16/16 26/18/18 43/43/43
f 25/16/16 43/43/43 42/42/42
f 26/18/18 27/20/20 44/44/44
f 26/18/18 44/44/44 43/43/43
f 27/20/20 28/22/22 45/45/45
f 27/20/20 45/45/45 44/44/44
f 28/22/22 29/24/24 46/46/46
f 28/22/22 46/46/46 45/45/45
f 29/24/24 30/26/26 47/47/47
f 29/24/24 47/47/47 46/46/46
f 30/26/26 31/28/28 48/48/48
f 30/26/26 48/48/48 47/47/47
f 31/28/28 32/30/30 49/49/49
f 31/28/28 49/49/49 48/48/48
f 32/30/30 33/32/32 50/50/50
f 32/30/30 50/50/50 49/49/49
f 33/32/32 34/34/34 51/51/51
f 33/32/32 51/51/51 50/50/50
f 35/36/36 36/35/35 53/52/52
f 35/36/36 53/52/52 52/53/53
f 36/35/35 37/37/37 54/54/54
f 36/35/35 54/54/54 53/52/52
f 37/37/37 38/38/38 55/55/55
f 37/37/37 55/55/55 54/54/54
f 38/38/38 39/39/39 56/56/56
f 38/38/38 56/56/56 55/55/55
f 39/39/39 40/40/40 57/57/57
f 39/39/39 57/57/57 56/56/56
f 40/40/40 41/41/41 58/58/58
f 40/40/40 58/58/58 57/57/57
f 41/41/41 42/42/42 59/59/59
f 41/41/41 59/59/59 58/58/58
f 42/42/42 43/43/43 60/60/60
f 42/42/42 60/60/60 59/59/59
f 43/43/43 44/44/44 61/61/61
f 43/43/43 61/61/61 60/60/60
f 44/44/44 45/45/45 62/62/62
f 44/44/44 62/62/62 61/61/61
f 45/45/45 46/46/46 63/63/63
f 45/45/45 63/63/63 62/62/62
f 46/46/46 47/47/47 64/64/64
f 46/46/46 64/64/64 63/63/63
f 47/47/47 48/48/48 65/65/65
f 47/47/47 65/65/65 64/64/64
f 48/48/48 49/49/49 66/66/66
f 48/48/48 66/66/66 65/65/65
f 49/49/49 50/50/50 67/67/67
f 49/49/49 67/67/67 66/66/66
f 50/50/50 51/51/51 68/68/68
f 50/50/50 68/68/68 67/67/67
f 52/53/53 53/52/52 70/69/69
f 52/53/53 70/69/69 69/70/70
f 53/52/52 54/54/54 71/71/71
f 53/52/52 71/71/71 70/69/69
f 54/54/54 55/55/55 72/72/72
f 54/54/54 72/72/72 71/71/71
f 55/55/55 56/56/56 73/73/73
f 55/55/55 73/73/73 72/72/72
f 56/56/56 57/57/57 74/74/74
f 56/56/56 74/74/74 73/73/73
f 57/57/57 58/58/58 75/75/75
f 57/57/57 75/75/75 74/74/74
f 58/58/58 59/59/59 76/76/76
f 58/58/58 76/76/76 75/75/75
f 59/59/59 60/60/60 77/77/77
f 59/59/59 77/77/77 76/76/76
f 60/60/60 61/61/61 78/78/78
f 60/60/60 78/78/78 77/77/77
f 61/61/61 62/62/62 79/79/79
f 61/61/61 79/79/79 78/78/78
f 62/62/62 63/63/63 80/80/80
f 62/62/62 80/80/80 79/79/79
f 63/63/63 64/64/64 81/81/81
f 63/63/63 81/81/81 80/80/80
f 64/64/64 65/65/65 82/82/82
f 64/64/64 82/82/82 81/81/81
f 65/65/65 66/66/66 83/83/83
f 65/65/65 83/83/83 82/82/82
f 66/66/66 67/67/67 84/84/84
f 66/66/66 84/84/84 83/83/83
f 67/67/67 68/68/68 85/85/85
f 67/67/67 85/85/85 84/84/84
f 69/70/70 70/69/69 87/86/86
f 69/70/70 87/86/86 86/87/87
f 70/69/69 71/71/71 88/88/88
f 70/69/69 88/88/88 87/86/86
f 71/71/71 72/72/72 89/89/89
f 71/71/71 89/89/89 88/88/88
f 72/72/72 73/73/73 90/90/90
f 72/72/72 90/90/90 89/89/89
f 73/73/73 74/74/74 91/91/91
f 73/73/73 91/91/91 90/90/90
f 74/74/74 75/75/75 92/92/92
f 74/74/74 92/92/92 91/91/91
f 75/75/75 76/76/76 93/93/93
f 75/75/75 93/93/93 92/92/92
f 76/76/76 77/77/77 94/94/94
f 76/76/76 94/94/94 93/93/93
f 77/77/77 78/78/78 95/95/95
f 77/77/77 95/95/95 94/94/94
f 78/78/78 79/79/79 96/96/96
f 78/78/78 96/96/96 95/95/95
f 79/79/79 80/80/80 97/97/97
f 79/79/79 97/97/97 96/96/96
f 80/80/80 81/81/81 98/98/98
f 80/80/80 98/98/98 97/97/97
f 81/81/81 82/82/82 99/99/99
f 81/81/81 99/99/99 98/98/98
f 82/82/82 83/83/83 100/100/100
f 82/82/82 100/100/100 99/99/99
f 83/83/83 84/84/84 101/101/101
f 83/83/83 101/101/101 100/100/100
f 84/84/84 85/85/85 102/102/102
f 84/84/84 102/102/102 101/101/101
f 86/87/87 87/86/86 104/103/103
f 86/87/87 104/103/103 103/104/104
f 87/86/86 88/88/88 105/105/105
f 87/86/86 105/105/105 104/103/103
f 88/88/88 89/89/89 106/106/106
f 88/88/88 106/106/106 105/105/105
f 89/89/89 90/90/90 107/107/107
f 89/89/89 107/107/107 106/106/106
f 90/90/90 91/91/91 108/108/108
f 90/90/90 108/108/108 107/107/107
f 91/91/91 92/92/92 109/109/109
f 91/91/91 109/109/109 108/108/108
f 92/92/92 93/93/93 110/110/110
f 92/92/92 110/110/110 109/109/109
f 93/93/93 94/94/94 111/111/111
f 93/93/93 111/111/111 110/110/110
f 94/94/94 95/95/95 112/112/112
f 94/94/94 112/112/112 111/111/111
f 95/95/95 96/96/96 113/113/113
f 95/95/95 113/113/113 112/112/112
f 96/96/96 97/97/97 114/114/114
f 96/96/96 114/114/114 113/113/113
f 97/97/97 98/98/98 115/115/115
f 97/97/97 115/115/115 114/114/114
f 98/98/98 99/99/99 116/116/116
f 98/98/98 116/116/116 115/115/115
f 99/99/99 100/100/100 117/117/117
f 99/99/99 117/117/117 116/116/116
f 100/100/100 101/101/101 118/118/118
f 100/100/100 118/118/118 117/117/117
f 101/101/101 102/102/102 119/119/119
f 101/101/101 119/119/119 118/118/118
f 103/104/104 104/103/103 121/120/120
f 103/104/104 121/120/120 120/121/121
f 104/103/103 105/105/105 122/122/122
f 104/103/103 122/122/122 121/120/120
f 105/105/105 106/106/106 123/123/123
f 105/105/105 123/123/123 122/122/122
f 106/106/106 107/107/107 124/124/124
f 106/106/106 124/124/124 123/123/123
f 107/107/107 108/108/108 125/125/125
f 107/107/107 125/125/125 124/124/124
f 108/108/108 109/109/109 126/126/126
f 108/108/108 126/126/126 125/125/125
f 109/109/109 110/110/110 127/127/127
f 109/109/109 127/127/127 126/126/126
f 110/110/110 111/111/111 128/128/128
f 110/110/110 128/128/128 127/127/127
f 111/111/111 112/112/112 129/129/129
f 111/111/111 129/129/129 128/128/128
f 112/112/112 113/113/113 130/130/130
f 112/112/112 130/130/130 129/129/129
f 113/113/113 114/114/114 131/131/131
f 113/113/113 131/131/131 130/130/130
f 114/114/114 115/115/115 132/132/132
f 114/114/114 132/132/132 131/131/131
f 115/115/115 116/116/116 133/133/133
f 115/115/115 133/133/133 132/132/132
f 116/116/116 117/117/117 134/134/134
f 116/116/116 134/134/134 133/133/133
f 117/117/117 118/118/118 135/135/135
f 117/117/117 135/135/135 134/134/134
f 118/118/118 119/119/119 136/136/136
f 118/118/118 136/136/136 135/135/135
f 120/121/121 121/120/120 138/137/137
f 120/121/121 138/137/137 137/138/138
f 121/120/120 122/122/122 139/139/139
f 121/120/120 139/139/139 138/137/137
f 122/122/122 123/123/123 140/140/140
f 122/122/122 140/140/140 139/139/139
f 123/123/123 124/124/124 141/141/141
f 123/123/123 141/141/141 140/140/140
f 124/124/124 125/125/125 142/142/142
f 124/124/124 142/142/142 141/141/141
f 125/125/125 126/126/126 143/143/143
f 125/125/125 143/143/143 142/142/142
f 126/126/126 127/127/127 144/144/144
f 126/126/126 144/144/144 143/143/143
f 127/127/127 128/128/128 145/145/145
f 127/127/127 145/145/145 144/144/144
f 128/128/128 129/129/129 146/146/146
f 128/128/128 146/146/146 145/145/145
f 129/129/129 130/130/130 147/147/147
f 129/129/129 147/147/147 146/146/146
f 130/130/130 131/131/131 148/148/148
f 130/130/130 148/148/148 147/147/147
f 131/131/131 132/132/132 149/149/149
f 131/131/131 149/149/149 148/148/148
f 132/132/132 133/133/133 150/150/150
f 132/132/132 150/150/150 149/149/149
f 133/133/133 134/134/134 151/151/151
f 133/133/133 151/151/151 150/150/150
f 134/134/134 135/135/135 152/152/152
f 134/134/134 152/152/152 151/151/151
f 135/135/135 136/136/136 153/153/153
f 135/135/135 153/153/153 152/152/152
f 137/138/138 138/137/137 155/154/154
f 137/138/138 155/154/154 154/155/155
f 138/137/137 139/139/139 156/156/156
f 138/137/137 156/156/156 155/154/154
f 139/139/139 140/140/140 157/157/157
f 139/139/139 157/157/157 156/156/156
f 140/140/140 141/141/141 158/158/158
f 140/140/140 158/158/158 157/157/157
f 141/141/141 142/142/142 159/159/159
f 141/141/141 159/159/159 158/158/158
f 142/142/142 143/143/143 160/160/160
f 142/142/142 160/160/160 159/159/159
f 143/143/143 144/144/144 161/161/161
f 143/143/143 161/161/161 160/160/160
f 144/144/144 145/145/145 162/162/162
f 144/144/144 162/162/162 161/161/161
f 145/145/145 146/146/146 163/163/163
f 145/145/145 163/163/163 162/162/162
f 146/146/146 147/147/147 164/164/164
f 146/146/146 164/164/164 163/163/163
f 147/147/147 148/148/148 165/165/165
f 147/147/147 165/165/165 164/164/164
f 148/148/148 149/149/149 166/166/166
f 148/148/148 166/166/166 165/165/165
f 149/149/149 150/150/150 167/167/167
f 149/149/149 167/167/167 166/166/166
f 150/150/150 151/151/151 168/168/168
f 150/150/150 168/168/168 167/167/167
f 151/151/151 152/152/152 169/169/169
f 151/151/151 169/169/169 168/168/168
f 152/152/152 153/153/153 170/170/170
f 152/152/152 170/170/170 169/169/169
f 154/155/155 155/154/154 172/171/171
f 154/155/155 172/171/171 171/172/172
f 155/154/154 156/156/156 173/173/173
f 155/154/154 173/173/173 172/171/171
f 156/156/156 157/157/157 174/174/174
f 156/156/156 174/174/174 173/173/173
f 157/157/157 158/158/158 175/175/175
f 157/157/157 175/175/175 174/174/174
f 158/158/158 159/159/159 176/176/176
f 158/158/158 176/176/176 175/175/175
f 159/159/159 160/160/160 177/177/177
f 159/159/159 177/177/177 176/176/176
f 160/160/160 161/161/161 178/178/178
f 160/160/160 178/178/178 177/177/177
f 161/161/161 162/162/162 179/179/179
f 161/161/161 179/179/179 178/178/178
f 162/162/162 163/163/163 180/180/180
f 162/162/162 180/180/180 179/179/179
f 163/163/163 164/164/164 181/181/181
f 163/163/163 181/181/181 180/180/180
f 164/164/164 165/165/165 182/182/182
f 164/164/164 182/182/182 181/181/181
f 165/165/165 166/166/166 183/183/183
f 165/165/165 183/183/183 182/182/182
f 166/166/166 167/167/167 184/184/184
f 166/166/166 184/184/184 183/183/183
f 167/167/167 168/168/168 185/185/185
f 167/167/167 185/185/185 184/184/184
f 168/168/168 169/169/169 186/186/186
f 168/168/168 186/186/186 185/185/185
f 169/169/169 170/170/170 187/187/187
f 169/169/169 187/187/187 186/186/186
f 171/172/172 172/171/171 189/188/188
f 171/172/172 189/188/188 188/189/189
f 172/171/171 173/173/173 190/190/190
f 172/171/171 190/190/190 189/188/188
f 173/173/173 174/174/174 191/191/191
f 173/173/173 191/191/191 190/190/190
f 174/174/174 175/175/175 192/192/192
f 174/174/174 192/192/192 191/191/191
f 175/175/175 176/176/176 193/193/193
f 175/175/175 193/193/193 192/192/192
f 176/176/176 177/177/177 194/194/194
f 176/176/176 194/194/194 193/193/193
f 177/177/177 178/178/178 195/195/195
f 177/177/177 195/195/195 194/194/194
f 178/178/178 179/179/179 196/196/196
f 178/178/178 196/196/196 195/195/195
f 179/179/179 180/180/180 197/197/197
f 179/179/179 197/197/197 196/196/196
f 180/180/180 181/181/181 198/198/198
f 180/180/180 198/198/198 197/197/197
f 181/181/181 182/182/182 199/199/199
f 181/181/181 199/199/199 198/198/198
f 182/182/182 183/183/183 200/200/200
f 182/182/182 200/200/200 199/199/199
f 183/183/183 184/184/184 201/201/201
f 183/183/183 201/201/201 200/200/200
f 184/184/184 185/185/185 202/202/202
f 184/184/184 202/202/202 201/201/201
f 185/185/185 186/186/186 203/203/203
f 185/185/185 203/203/203 202/202/202
f 186/186/186 187/187/187 204/204/204
f 186/186/186 204/204/204 203/203/203
f 188/189/189 189/188/188 206/205/205
f 188/189/189 206/205/205 205/206/206
f 189/188/188 190/190/190 207/207/207
f 189/188/188 207/207/207 206/205/205
f 190/190/190 191/191/191 208/208/208
f 190/190/190 208/208/208 207/207/207
f 191/191/191 192/192/192 209/209/209
f 191/191/191 209/209/209 208/208/208
f 192/192/192 193/193/193 210/210/210
f 192/192/192 210/210/210 209/209/209
f 193/193/193 194/194/194 211/211/211
f 193/193/193 211/211/211 210/210/210
f 194/194/194 195/195/195 212/212/212
f 194/194/194 212/212/212 211/211/211
f 195/195/195 196/196/196 213/213/213
f 195/195/195 213/213/213 212/212/212
f 196/196/196 197/197/197 214/214/214
f 196/196/196 214/214/214 213/213/213
f 197/197/197 198/198/198 215/215/215
f 197/197/197 215/215/215 214/214/214
f 198/198/198 199/199/199 216/216/216
f 198/198/198 216/216/216 215/215/215
f 199/199/199 200/200/200 217/217/217
f 199/199/199 217/217/217 216/216/216
f 200/200/200 201/201/201 218/218/218
f 200/200/200 218/218/218 217/217/217
f 201/201/201 202/202/202 219/219/219
f 201/201/201 219/219/219 218/218/218
f 202/202/202 203/203/203 220/220/220
f 202/202/202 220/220/220 219/219/219
f 203/203/203 204/204/204 221/221/221
f 203/203/203 221/221/221 220/220/220
f 205/206/206 206/205/205 223/222/222
f 205/206/206 223/222/222 222/223/223
f 206/205/205 207/207/207 224/224/224
f 206/205/205 224/224/224 223/222/222
f 207/207/207 208/208/208 225/225/225
f 207/207/207 225/225/225 224/224/224
f 208/208/208 209/209/209 226/226/226
f 208/208/208 226/226/226 225/225/225
f 209/209/209 210/210/210 227/227/227
f 209/209/209 227/227/227 226/226/226
f 210/210/210 211/211/211 228/228/228
f 210/210/210 228/228/228 227/227/227
f 211/211/211 212/212/212 229/229/229
f 211/211/211 229/229/229 228/228/228
f 212/212/212 213/213/213 230/230/230
f 212/212/212 230/230/230 229/229/229
f 213/213/213 214/214/214 231/231/231
f 213/213/213 231/231/231 230/230/230
f 214/214/214 215/215/215 232/232/232
f 214/214/214 232/232/232 231/231/231
f 215/215/215 216/216/216 233/233/233
f 215/215/215 233/233/233 232/232/232
f 216/216/216 217/217/217 234/234/234
f 216/216/216 234/234/234 233/233/233
f 217/217/217 218/218/218 235/235/235
f 217/217/217 235/235/235 234/234/234
f 218/218/218 219/219/219 236/236/236
f 218/218/218 236/236/236 235/235/235
f 219/219/219 220/220/220 237/237/237
f 219/219/219 237/237/237 236/236/236
f 220/220/220 221/221/221 238/238/238
f 220/220/220 238/238/238 237/237/237
f 222/223/223 223/222/222 240/239/239
f 222/223/223 240/239/239 239/240/240
f 223/222/222 224/224/224 241/241/241
f 223/222/222 241/241/241 240/239/239
f 224/224/224 225/225/225 242/242/242
f 224/224/224 242/242/242 241/241/241
f 225/225/225 226/226/226 243/243/243
f 225/225/225 243/243/243 242/242/242
f 226/226/226 227/227/227 244/244/244
f 226/226/226 244/244/244 243/243/243
f 227/227/227 228/228/228 245/245/245
f 227/227/227 245/245/245 244/244/244
f 228/228/228 229/229/229 246/246/246
f 228/228/228 246/246/246 245/245/245
f 229/229/229 230/230/230 247/247/247
f 229/229/229 247/247/247 246/246/246
f 230/230/230 231/231/231 248/248/248
f 230/230/230 248/248/248 247/247/247
f 231/231/231 232/232/232 249/249/249
f 231/231/231 249/249/249 248/248/248
f 232/232/232 233/233/233 250/250/250
f 232/232/232 250/250/250 249/249/249
f 233/233/233 234/234/234 251/251/251
f 233/233/233 251/251/251 250/250/250
f 234/234/234 235/235/235 252/252/252
f 234/234/234 252/252/252 251/251/251
f 235/235/235 236/236/236 253/253/253
f 235/235/235 253/253/253 252/252/252
f 236/236/236 237/237/237 254/254/254
f 236/236/236 254/254/254 253/253/253
f 237/237/237 238/238/238 255/255/255
f 237/237/237 255/255/255 254/254/254
f 239/240/240 240/239/239 257/256/256
f 239/240/240 257/256/256 256/257/257
f 240/239/239 241/241/241 258/258/258
f 240/239/239 258/258/258 257/256/256
f 241/241/241 242/242/242 259/259/259
f 241/241/241 259/259/259 258/258/258
f 242/242/242 243/243/243 260/260/260
f 242/242/242 260/260/260 259/259/259
f 243/243/243 244/244/244 261/261/261
f 243/243/243 261/261/261 260/260/260
f 244/244/244 245/245/245 262/262/262
f 244/244/244 262/262/262 261/261/261
f 245/245/245 246/246/246 263/263/263
f 245/245/245 263/263/263 262/262/262
f 246/246/246 247/247/247 264/264/264
f 246/246/246 264/264/264 263/263/263
f 247/247/247 248/248/248 265/265/265
f 247/247/247 265/265/265 264/264/264
f 248/248/248 249/249/249 266/266/266
f 248/248/248 266/266/266 265/265/265
f 249/249/249 250/250/250 267/267/267
f 249/249/249 267/267/267 266/266/266
f 250/250/250 251/251/251 268/268/268
f 250/250/250 268/268/268 267/267/267
f 251/251/251 252/252/252 269/269/269
f 251/251/251 269/269/269 268/268/268
f 252/252/252 253/253/253 270/270/270
f 252/252/252 270/270/270 269/269/269
f 253/253/253 254/254/254 271/271/271
f 253/253/253 271/271/271 270/270/270
f 254/254/254 255/255/255 272/272/272
f 254/254/254 272/272/272 271/271/271
f 256/257/257 257/256/256 274/273/273
f 256/257/257 274/273/273 273/274/274
f 257/256/256 258/258/258 275/275/275
f 257/256/256 275/275/275 274/273/273
f 258/258/258 259/259/259 276/276/276
f 258/258/258 276/276/276 275/275/275
f 259/259/259 260/260/260 277/277/277
f 259/259/259 277/277/277 276/276/276
f 260/260/260 261/261/261 278/278/278
f 260/260/260 278/278/278 277/277/277
f 261/261/261 262/262/262 279/279/279
f 261/261/261 279/279/279 278/278/278
f 262/262/262 263/263/263 280/280/280
f 262/262/262 280/280/280 279/279/279
f 263/263/263 264/264/264 281/281/281
f 263/263/263 281/281/281 280/280/280
f 264/264/264 265/265/265 282/282/282
f 264/264/264 282/282/282 281/281/281
f 265/265/265 266/266/266 283/283/283
f 265/265/265 283/283/283 282/282/282
f 266/266/266 267/267/267 284/284/284
f 266/266/266 284/284/284 283/283/283
f 267/267/267 268/268/268 285/285/285
f 267/267/267 285/285/285 284/284/284
f 268/268/268 269/269/269 286/286/286
f 268/268/268 286/286/286 285/285/285
f 269/269/269 270/270/270 287/287/287
f 269/269/269 287/287/287 286/286/286
f 270/270/270 271/271/271 288/288/288
f 270/270/270 288/288/288 287/287/287
f 271/271/271 272/272/272 289/289/289
f 271/271/271 289/289/289 288/288/288
