mtllib terrain_mid_06_01.mtl
usemtl terrain_mid_06_01
# Blender 5.1.1
# www.blender.org
o terrain_mid_06_01
v -160.000000 -160.000000 21.913910
v -140.000000 -160.000000 27.522207
v -120.000000 -160.000000 31.424055
v -100.000000 -160.000000 33.489201
v -80.000000 -160.000000 34.109669
v -60.000000 -160.000000 33.945282
v -40.000000 -160.000000 33.229053
v -20.000000 -160.000000 32.776657
v 0.000000 -160.000000 32.979584
v 20.000000 -160.000000 32.534882
v 40.000000 -160.000000 30.727217
v 60.000000 -160.000000 28.027761
v 80.000000 -160.000000 24.785194
v 100.000000 -160.000000 21.792673
v 120.000000 -160.000000 19.003469
v 140.000000 -160.000000 16.153316
v 160.000000 -160.000000 13.597754
v -160.000000 -140.000000 15.956676
v -140.000000 -140.000000 21.425446
v -120.000000 -140.000000 24.842669
v -100.000000 -140.000000 26.758305
v -80.000000 -140.000000 27.720442
v -60.000000 -140.000000 28.450937
v -40.000000 -140.000000 28.903833
v -20.000000 -140.000000 29.584131
v 0.000000 -140.000000 30.330427
v 20.000000 -140.000000 29.997786
v 40.000000 -140.000000 28.180721
v 60.000000 -140.000000 25.419552
v 80.000000 -140.000000 22.084503
v 100.000000 -140.000000 18.915789
v 120.000000 -140.000000 15.670936
v 140.000000 -140.000000 12.157522
v 160.000000 -140.000000 9.178423
v -160.000000 -120.000000 8.827993
v -140.000000 -120.000000 14.445147
v -120.000000 -120.000000 17.718937
v -100.000000 -120.000000 19.602503
v -80.000000 -120.000000 20.990482
v -60.000000 -120.000000 22.515860
v -40.000000 -120.000000 24.092323
v -20.000000 -120.000000 25.928389
v 0.000000 -120.000000 27.123064
v 20.000000 -120.000000 26.903120
v 40.000000 -120.000000 25.135921
v 60.000000 -120.000000 22.460379
v 80.000000 -120.000000 19.065718
v 100.000000 -120.000000 15.767927
v 120.000000 -120.000000 12.127363
v 140.000000 -120.000000 8.190603
v 160.000000 -120.000000 4.864349
v -160.000000 -100.000000 -0.199893
v -140.000000 -100.000000 6.149614
v -120.000000 -100.000000 9.935015
v -100.000000 -100.000000 12.052379
v -80.000000 -100.000000 14.014299
v -60.000000 -100.000000 16.292946
v -40.000000 -100.000000 18.630266
v -20.000000 -100.000000 21.469303
v 0.000000 -100.000000 23.178423
v 20.000000 -100.000000 23.038042
v 40.000000 -100.000000 21.378679
v 60.000000 -100.000000 18.933964
v 80.000000 -100.000000 15.557981
v 100.000000 -100.000000 12.169580
v 120.000000 -100.000000 8.348508
v 140.000000 -100.000000 4.128978
v 160.000000 -100.000000 0.326982
v -160.000000 -80.000000 -7.361263
v -140.000000 -80.000000 -2.789703
v -120.000000 -80.000000 0.463010
v -100.000000 -80.000000 2.279463
v -80.000000 -80.000000 4.353011
v -60.000000 -80.000000 7.702661
v -40.000000 -80.000000 11.694916
v -20.000000 -80.000000 15.807058
v 0.000000 -80.000000 18.078516
v 20.000000 -80.000000 18.156166
v 40.000000 -80.000000 16.742502
v 60.000000 -80.000000 14.576033
v 80.000000 -80.000000 11.225786
v 100.000000 -80.000000 7.796485
v 120.000000 -80.000000 4.062436
v 140.000000 -80.000000 -0.298560
v 160.000000 -80.000000 -4.907711
v -160.000000 -60.000000 -10.884511
v -140.000000 -60.000000 -9.859426
v -120.000000 -60.000000 -8.368581
v -100.000000 -60.000000 -7.909237
v -80.000000 -60.000000 -6.336632
v -60.000000 -60.000000 -2.648549
v -40.000000 -60.000000 2.591943
v -20.000000 -60.000000 7.604692
v 0.000000 -60.000000 10.673174
v 20.000000 -60.000000 11.597911
v 40.000000 -60.000000 10.899004
v 60.000000 -60.000000 8.904883
v 80.000000 -60.000000 5.436995
v 100.000000 -60.000000 1.853282
v 120.000000 -60.000000 -1.369225
v 140.000000 -60.000000 -5.134654
v 160.000000 -60.000000 -10.189754
v -160.000000 -40.000000 -7.112932
v -140.000000 -40.000000 -11.081573
v -120.000000 -40.000000 -14.335073
v -100.000000 -40.000000 -16.402109
v -80.000000 -40.000000 -16.727482
v -60.000000 -40.000000 -14.502492
v -40.000000 -40.000000 -9.768741
v -20.000000 -40.000000 -4.868412
v 0.000000 -40.000000 -0.439144
v 20.000000 -40.000000 2.581092
v 40.000000 -40.000000 2.987627
v 60.000000 -40.000000 1.272526
v 80.000000 -40.000000 -2.546295
v 100.000000 -40.000000 -6.292552
v 120.000000 -40.000000 -8.787811
v 140.000000 -40.000000 -11.144629
v 160.000000 -40.000000 -15.510121
v -160.000000 -20.000000 -1.393863
v -140.000000 -20.000000 -6.934621
v -120.000000 -20.000000 -11.406124
v -100.000000 -20.000000 -14.394189
v -80.000000 -20.000000 -16.211287
v -60.000000 -20.000000 -17.157339
v -40.000000 -20.000000 -17.089548
v -20.000000 -20.000000 -16.873680
v 0.000000 -20.000000 -13.586795
v 20.000000 -20.000000 -9.860361
v 40.000000 -20.000000 -7.822418
v 60.000000 -20.000000 -8.590701
v 80.000000 -20.000000 -12.227129
v 100.000000 -20.000000 -15.697309
v 120.000000 -20.000000 -17.873409
v 140.000000 -20.000000 -19.611547
v 160.000000 -20.000000 -23.136362
v -160.000000 0.000000 4.126231
v -140.000000 0.000000 -0.981286
v -120.000000 0.000000 -4.602251
v -100.000000 0.000000 -7.187829
v -80.000000 0.000000 -9.579593
v -60.000000 0.000000 -13.485151
v -40.000000 0.000000 -18.804113
v -20.000000 0.000000 -23.549978
v 0.000000 0.000000 -24.437273
v 20.000000 0.000000 -21.490454
v 40.000000 0.000000 -19.024553
v 60.000000 0.000000 -19.112118
v 80.000000 0.000000 -21.661861
v 100.000000 0.000000 -24.550663
v 120.000000 0.000000 -26.910723
v 140.000000 0.000000 -28.627615
v 160.000000 0.000000 -31.227461
v -160.000000 20.000000 6.415483
v -140.000000 20.000000 2.544179
v -120.000000 20.000000 1.216183
v -100.000000 20.000000 0.968414
v -80.000000 20.000000 -0.536272
v -60.000000 20.000000 -4.054047
v -40.000000 20.000000 -11.071333
v -20.000000 20.000000 -19.956146
v 0.000000 20.000000 -26.431021
v 20.000000 20.000000 -28.449467
v 40.000000 20.000000 -28.462608
v 60.000000 20.000000 -28.629560
v 80.000000 20.000000 -29.445587
v 100.000000 20.000000 -31.151621
v 120.000000 20.000000 -33.954689
v 140.000000 20.000000 -36.242855
v 160.000000 20.000000 -38.051517
v -160.000000 40.000000 8.992578
v -140.000000 40.000000 6.733748
v -120.000000 40.000000 6.892019
v -100.000000 40.000000 7.094778
v -80.000000 40.000000 5.590621
v -60.000000 40.000000 2.038198
v -40.000000 40.000000 -4.408640
v -20.000000 40.000000 -13.885324
v 0.000000 40.000000 -22.861271
v 20.000000 40.000000 -28.020559
v 40.000000 40.000000 -29.909170
v 60.000000 40.000000 -31.519657
v 80.000000 40.000000 -32.811493
v 100.000000 40.000000 -34.134972
v 120.000000 40.000000 -36.004261
v 140.000000 40.000000 -37.424938
v 160.000000 40.000000 -38.435291
v -160.000000 60.000000 12.949622
v -140.000000 60.000000 12.171350
v -120.000000 60.000000 12.297564
v -100.000000 60.000000 11.730581
v -80.000000 60.000000 9.393925
v -60.000000 60.000000 5.282264
v -40.000000 60.000000 -0.237349
v -20.000000 60.000000 -8.590213
v 0.000000 60.000000 -17.163191
v 20.000000 60.000000 -23.140438
v 40.000000 60.000000 -26.429955
v 60.000000 60.000000 -29.741995
v 80.000000 60.000000 -32.397106
v 100.000000 60.000000 -33.672256
v 120.000000 60.000000 -34.368404
v 140.000000 60.000000 -34.915558
v 160.000000 60.000000 -35.253891
v -160.000000 80.000000 19.627546
v -140.000000 80.000000 18.813955
v -120.000000 80.000000 17.898157
v -100.000000 80.000000 15.695689
v -80.000000 80.000000 11.617381
v -60.000000 80.000000 6.517033
v -40.000000 80.000000 0.503042
v -20.000000 80.000000 -5.866506
v 0.000000 80.000000 -11.581349
v 20.000000 80.000000 -15.835534
v 40.000000 80.000000 -19.329594
v 60.000000 80.000000 -23.379187
v 80.000000 80.000000 -26.359100
v 100.000000 80.000000 -27.760839
v 120.000000 80.000000 -28.686445
v 140.000000 80.000000 -29.418615
v 160.000000 80.000000 -29.508060
v -160.000000 100.000000 25.770010
v -140.000000 100.000000 23.938284
v -120.000000 100.000000 21.602657
v -100.000000 100.000000 17.891029
v -80.000000 100.000000 13.002655
v -60.000000 100.000000 7.740577
v -40.000000 100.000000 2.139110
v -20.000000 100.000000 -2.680810
v 0.000000 100.000000 -6.662804
v 20.000000 100.000000 -10.242868
v 40.000000 100.000000 -13.800357
v 60.000000 100.000000 -17.374027
v 80.000000 100.000000 -20.266367
v 100.000000 100.000000 -22.122908
v 120.000000 100.000000 -23.564083
v 140.000000 100.000000 -24.561920
v 160.000000 100.000000 -24.844614
v -160.000000 120.000000 29.902937
v -140.000000 120.000000 26.739052
v -120.000000 120.000000 23.134661
v -100.000000 120.000000 18.633135
v -80.000000 120.000000 13.623729
v -60.000000 120.000000 8.888221
v -40.000000 120.000000 4.399526
v -20.000000 120.000000 0.637624
v 0.000000 120.000000 -2.861901
v 20.000000 120.000000 -6.391198
v 40.000000 120.000000 -9.743526
v 60.000000 120.000000 -12.226769
v 80.000000 120.000000 -14.799849
v 100.000000 120.000000 -16.966434
v 120.000000 120.000000 -18.839134
v 140.000000 120.000000 -20.112688
v 160.000000 120.000000 -20.772614
v -160.000000 140.000000 32.018768
v -140.000000 140.000000 27.783621
v -120.000000 140.000000 23.171900
v -100.000000 140.000000 18.291704
v -80.000000 140.000000 13.387523
v -60.000000 140.000000 9.073896
v -40.000000 140.000000 4.862980
v -20.000000 140.000000 1.206085
v 0.000000 140.000000 -2.029476
v 20.000000 140.000000 -4.649248
v 40.000000 140.000000 -6.638560
v 60.000000 140.000000 -8.559444
v 80.000000 140.000000 -10.651289
v 100.000000 140.000000 -12.636254
v 120.000000 140.000000 -14.480927
v 140.000000 140.000000 -16.009226
v 160.000000 140.000000 -17.116716
v -160.000000 160.000000 32.977554
v -140.000000 160.000000 28.197506
v -120.000000 160.000000 23.179569
v -100.000000 160.000000 18.173649
v -80.000000 160.000000 13.375878
v -60.000000 160.000000 9.218109
v -40.000000 160.000000 5.111372
v -20.000000 160.000000 1.903460
v 0.000000 160.000000 -0.471452
v 20.000000 160.000000 -2.160309
v 40.000000 160.000000 -3.642975
v 60.000000 160.000000 -5.526418
v 80.000000 160.000000 -7.608903
v 100.000000 160.000000 -9.586626
v 120.000000 160.000000 -11.330963
v 140.000000 160.000000 -12.853702
v 160.000000 160.000000 -14.231598
vn -0.2962 0.2496 0.9220
vn -0.2231 0.2637 0.9384
vn -0.2066 0.3040 0.9300
vn -0.2892 0.2976 0.9098
vn -0.1412 0.2899 0.9466
vn -0.1251 0.3216 0.9386
vn -0.0640 0.2975 0.9526
vn -0.0678 0.3272 0.9425
vn -0.0109 0.2780 0.9605
vn -0.0402 0.3114 0.9494
vn 0.0214 0.2370 0.9713
vn -0.0285 0.2746 0.9611
vn 0.0287 0.1900 0.9814
vn -0.0276 0.2226 0.9745
vn 0.0062 0.1495 0.9887
vn -0.0351 0.1686 0.9851
vn 0.0060 0.1210 0.9926
vn -0.0102 0.1449 0.9894
vn 0.0558 0.1146 0.9918
vn 0.0532 0.1393 0.9888
vn 0.1112 0.1203 0.9865
vn 0.1127 0.1376 0.9841
vn 0.1458 0.1245 0.9815
vn 0.1492 0.1363 0.9794
vn 0.1528 0.1273 0.9800
vn 0.1589 0.1397 0.9774
vn 0.1418 0.1323 0.9810
vn 0.1566 0.1471 0.9766
vn 0.1378 0.1579 0.9778
vn 0.1643 0.1671 0.9722
vn 0.1313 0.1975 0.9715
vn 0.1572 0.1928 0.9686
vn 0.1054 0.2282 0.9679
vn 0.1282 0.2115 0.9689
vn -0.2033 0.3493 0.9147
vn -0.2771 0.3599 0.8909
vn -0.1199 0.3467 0.9303
vn -0.0765 0.3441 0.9358
vn -0.0688 0.3234 0.9438
vn -0.0738 0.2902 0.9541
vn -0.0824 0.2479 0.9653
vn -0.0740 0.1983 0.9773
vn -0.0240 0.1760 0.9841
vn 0.0488 0.1711 0.9840
vn 0.1088 0.1666 0.9800
vn 0.1481 0.1583 0.9762
vn 0.1628 0.1588 0.9738
vn 0.1688 0.1642 0.9719
vn 0.1831 0.1770 0.9670
vn 0.1755 0.1940 0.9652
vn 0.1454 0.2138 0.9660
vn -0.2267 0.3854 0.8945
vn -0.2698 0.3613 0.8926
vn -0.1343 0.3925 0.9099
vn -0.0931 0.3957 0.9137
vn -0.0974 0.3822 0.9189
vn -0.1076 0.3453 0.9323
vn -0.1227 0.2938 0.9480
vn -0.1095 0.2439 0.9636
vn -0.0382 0.2204 0.9747
vn 0.0439 0.2134 0.9760
vn 0.0998 0.2043 0.9738
vn 0.1413 0.1914 0.9713
vn 0.1640 0.1900 0.9680
vn 0.1740 0.1924 0.9658
vn 0.1931 0.1936 0.9619
vn 0.1925 0.2037 0.9599
vn 0.1675 0.2340 0.9577
vn -0.1786 0.3656 0.9135
vn -0.1497 0.2552 0.9552
vn -0.1144 0.4134 0.9033
vn -0.0866 0.4449 0.8914
vn -0.1200 0.4502 0.8848
vn -0.1637 0.4222 0.8916
vn -0.1848 0.3657 0.9122
vn -0.1491 0.3239 0.9343
vn -0.0560 0.2979 0.9529
vn 0.0321 0.2748 0.9610
vn 0.0864 0.2525 0.9637
vn 0.1326 0.2410 0.9614
vn 0.1622 0.2421 0.9566
vn 0.1708 0.2460 0.9541
vn 0.1930 0.2316 0.9535
vn 0.2134 0.2204 0.9518
vn 0.2081 0.2487 0.9460
vn -0.0614 0.2026 0.9773
vn 0.0356 -0.0062 0.9993
vn -0.0457 0.3466 0.9369
vn -0.0460 0.4227 0.9051
vn -0.1155 0.4631 0.8787
vn -0.1915 0.4764 0.8581
vn -0.2203 0.4612 0.8595
vn -0.1766 0.4520 0.8744
vn -0.0902 0.4184 0.9038
vn -0.0053 0.3628 0.9318
vn 0.0636 0.3246 0.9437
vn 0.1285 0.3130 0.9410
vn 0.1644 0.3211 0.9327
vn 0.1585 0.3280 0.9313
vn 0.1641 0.3017 0.9392
vn 0.2081 0.2559 0.9440
vn 0.2426 0.2486 0.9377
vn 0.1772 -0.0718 0.9816
vn 0.1750 -0.2273 0.9580
vn 0.1315 0.0751 0.9885
vn 0.0589 0.1597 0.9854
vn -0.0460 0.2394 0.9698
vn -0.1614 0.3365 0.9277
vn -0.2112 0.4315 0.8770
vn -0.1951 0.5119 0.8366
vn -0.1573 0.5121 0.8444
vn -0.0753 0.4714 0.8787
vn 0.0297 0.4237 0.9053
vn 0.1258 0.3975 0.9090
vn 0.1705 0.3981 0.9014
vn 0.1415 0.3978 0.9065
vn 0.1115 0.3790 0.9186
vn 0.1561 0.3361 0.9288
vn 0.2415 0.2988 0.9232
vn 0.2359 -0.2379 0.9422
vn 0.2235 -0.2637 0.9384
vn 0.1783 -0.2326 0.9561
vn 0.1163 -0.2230 0.9679
vn 0.0678 -0.1755 0.9821
vn 0.0220 -0.0254 0.9994
vn -0.0069 0.2203 0.9754
vn -0.0791 0.4218 0.9032
vn -0.1487 0.5087 0.8480
vn -0.1225 0.5117 0.8504
vn -0.0278 0.4820 0.8758
vn 0.0976 0.4518 0.8867
vn 0.1583 0.4257 0.8909
vn 0.1274 0.4119 0.9023
vn 0.0888 0.4111 0.9073
vn 0.1197 0.3976 0.9097
vn 0.2036 0.3581 0.9112
vn 0.2077 -0.2255 0.9518
vn 0.2298 -0.1865 0.9552
vn 0.1464 -0.2977 0.9434
vn 0.1154 -0.3561 0.9273
vn 0.1450 -0.3610 0.9212
vn 0.2140 -0.3041 0.9283
vn 0.2415 -0.1444 0.9596
vn 0.1391 0.0761 0.9874
vn -0.0489 0.3054 0.9510
vn -0.1218 0.4183 0.9001
vn -0.0528 0.4579 0.8874
vn 0.0588 0.4471 0.8925
vn 0.1239 0.3923 0.9114
vn 0.1215 0.3577 0.9259
vn 0.0942 0.3714 0.9237
vn 0.0991 0.3820 0.9188
vn 0.1554 0.3451 0.9256
vn 0.1266 -0.1879 0.9740
vn 0.2235 -0.1177 0.9676
vn 0.0379 -0.2760 0.9604
vn 0.0412 -0.3360 0.9410
vn 0.1166 -0.3522 0.9286
vn 0.2384 -0.3514 0.9054
vn 0.3503 -0.3172 0.8813
vn 0.3497 -0.2200 0.9107
vn 0.2076 -0.0385 0.9775
vn 0.0501 0.1609 0.9857
vn 0.0043 0.2626 0.9649
vn 0.0235 0.2962 0.9549
vn 0.0606 0.2680 0.9615
vn 0.1089 0.2317 0.9667
vn 0.1232 0.2200 0.9677
vn 0.0995 0.2137 0.9718
vn 0.1046 0.1764 0.9788
vn 0.0510 -0.2337 0.9710
vn 0.1603 -0.1591 0.9742
vn -0.0086 -0.2670 0.9636
vn 0.0314 -0.2597 0.9652
vn 0.1218 -0.2391 0.9633
vn 0.2365 -0.2209 0.9462
vn 0.3587 -0.2440 0.9010
vn 0.4056 -0.2498 0.8792
vn 0.3255 -0.2134 0.9211
vn 0.1721 -0.1296 0.9765
vn 0.0870 -0.0506 0.9949
vn 0.0723 0.0277 0.9970
vn 0.0651 0.0734 0.9952
vn 0.0794 0.0627 0.9949
vn 0.0822 0.0104 0.9966
vn 0.0606 -0.0331 0.9976
vn 0.0549 -0.0697 0.9961
vn 0.0154 -0.2889 0.9572
vn 0.0742 -0.2562 0.9638
vn 0.0106 -0.2653 0.9641
vn 0.0708 -0.2097 0.9752
vn 0.1574 -0.1471 0.9765
vn 0.2327 -0.1082 0.9665
vn 0.3255 -0.1152 0.9385
vn 0.3832 -0.1816 0.9056
vn 0.3304 -0.2562 0.9084
vn 0.2164 -0.2845 0.9339
vn 0.1575 -0.2525 0.9547
vn 0.1446 -0.1973 0.9696
vn 0.0965 -0.1585 0.9826
vn 0.0486 -0.1572 0.9864
vn 0.0306 -0.1799 0.9832
vn 0.0217 -0.1962 0.9803
vn 0.0152 -0.2178 0.9759
vn 0.0415 -0.2820 0.9585
vn 0.0509 -0.3048 0.9511
vn 0.0757 -0.2259 0.9712
vn 0.1533 -0.1504 0.9767
vn 0.2228 -0.0876 0.9709
vn 0.2672 -0.0591 0.9618
vn 0.2953 -0.0567 0.9537
vn 0.2863 -0.1401 0.9478
vn 0.2343 -0.2468 0.9403
vn 0.1812 -0.3017 0.9360
vn 0.1770 -0.2963 0.9385
vn 0.1656 -0.2913 0.9422
vn 0.1042 -0.2886 0.9517
vn 0.0558 -0.2770 0.9592
vn 0.0399 -0.2606 0.9646
vn 0.0199 -0.2505 0.9679
vn -0.0058 -0.2518 0.9678
vn 0.1017 -0.1933 0.9759
vn 0.0784 -0.2480 0.9656
vn 0.1482 -0.1284 0.9806
vn 0.2096 -0.0716 0.9752
vn 0.2457 -0.0486 0.9681
vn 0.2617 -0.0571 0.9635
vn 0.2510 -0.0939 0.9634
vn 0.2123 -0.1568 0.9645
vn 0.1815 -0.2093 0.9609
vn 0.1711 -0.2264 0.9589
vn 0.1708 -0.2296 0.9582
vn 0.1539 -0.2654 0.9518
vn 0.1133 -0.2758 0.9545
vn 0.0792 -0.2598 0.9624
vn 0.0591 -0.2386 0.9693
vn 0.0312 -0.2264 0.9735
vn 0.0060 -0.2134 0.9770
vn 0.1661 -0.0944 0.9816
vn 0.1396 -0.1528 0.9783
vn 0.1985 -0.0384 0.9794
vn 0.2313 -0.0097 0.9728
vn 0.2367 -0.0093 0.9715
vn 0.2246 -0.0325 0.9739
vn 0.2016 -0.0665 0.9772
vn 0.1778 -0.0952 0.9795
vn 0.1719 -0.1134 0.9786
vn 0.1680 -0.1365 0.9763
vn 0.1421 -0.1745 0.9744
vn 0.1225 -0.2136 0.9692
vn 0.1145 -0.2322 0.9659
vn 0.0977 -0.2297 0.9683
vn 0.0765 -0.2208 0.9723
vn 0.0472 -0.2089 0.9768
vn 0.0303 -0.1896 0.9814
vn 0.2158 -0.0356 0.9758
vn 0.1875 -0.0753 0.9794
vn 0.2309 -0.0011 0.9730
vn 0.2376 0.0111 0.9713
vn 0.2245 0.0060 0.9744
vn 0.2084 -0.0081 0.9780
vn 0.1930 -0.0175 0.9810
vn 0.1697 -0.0312 0.9850
vn 0.1446 -0.0590 0.9877
vn 0.1138 -0.1045 0.9880
vn 0.0962 -0.1500 0.9840
vn 0.0984 -0.1644 0.9815
vn 0.0998 -0.1760 0.9793
vn 0.0938 -0.1805 0.9791
vn 0.0827 -0.1836 0.9795
vn 0.0646 -0.1783 0.9819
vn 0.0532 -0.1612 0.9855
vn 0.2379 -0.0156 0.9712
vn 0.2131 -0.0311 0.9765
vn 0.2431 -0.0043 0.9700
vn 0.2380 -0.0017 0.9713
vn 0.2185 -0.0071 0.9758
vn 0.2023 -0.0131 0.9792
vn 0.1798 -0.0270 0.9833
vn 0.1380 -0.0585 0.9887
vn 0.1005 -0.1049 0.9894
vn 0.0783 -0.1396 0.9871
vn 0.0829 -0.1474 0.9856
vn 0.0977 -0.1406 0.9852
vn 0.1000 -0.1378 0.9854
vn 0.0918 -0.1353 0.9865
vn 0.0806 -0.1391 0.9870
vn 0.0716 -0.1413 0.9874
vn 0.0647 -0.1326 0.9891
vt 0.015625 0.015625
vt 0.076172 0.015625
vt 0.076172 0.076172
vt 0.015625 0.076172
vt 0.136719 0.015625
vt 0.136719 0.076172
vt 0.197266 0.015625
vt 0.197266 0.076172
vt 0.257812 0.015625
vt 0.257812 0.076172
vt 0.318359 0.015625
vt 0.318359 0.076172
vt 0.378906 0.015625
vt 0.378906 0.076172
vt 0.439453 0.015625
vt 0.439453 0.076172
vt 0.500000 0.015625
vt 0.500000 0.076172
vt 0.560547 0.015625
vt 0.560547 0.076172
vt 0.621094 0.015625
vt 0.621094 0.076172
vt 0.681641 0.015625
vt 0.681641 0.076172
vt 0.742188 0.015625
vt 0.742188 0.076172
vt 0.802734 0.015625
vt 0.802734 0.076172
vt 0.863281 0.015625
vt 0.863281 0.076172
vt 0.923828 0.015625
vt 0.923828 0.076172
vt 0.984375 0.015625
vt 0.984375 0.076172
vt 0.076172 0.136719
vt 0.015625 0.136719
vt 0.136719 0.136719
vt 0.197266 0.136719
vt 0.257812 0.136719
vt 0.318359 0.136719
vt 0.378906 0.136719
vt 0.439453 0.136719
vt 0.500000 0.136719
vt 0.560547 0.136719
vt 0.621094 0.136719
vt 0.681641 0.136719
vt 0.742188 0.136719
vt 0.802734 0.136719
vt 0.863281 0.136719
vt 0.923828 0.136719
vt 0.984375 0.136719
vt 0.076172 0.197266
vt 0.015625 0.197266
vt 0.136719 0.197266
vt 0.197266 0.197266
vt 0.257812 0.197266
vt 0.318359 0.197266
vt 0.378906 0.197266
vt 0.439453 0.197266
vt 0.500000 0.197266
vt 0.560547 0.197266
vt 0.621094 0.197266
vt 0.681641 0.197266
vt 0.742188 0.197266
vt 0.802734 0.197266
vt 0.863281 0.197266
vt 0.923828 0.197266
vt 0.984375 0.197266
vt 0.076172 0.257812
vt 0.015625 0.257812
vt 0.136719 0.257812
vt 0.197266 0.257812
vt 0.257812 0.257812
vt 0.318359 0.257812
vt 0.378906 0.257812
vt 0.439453 0.257812
vt 0.500000 0.257812
vt 0.560547 0.257812
vt 0.621094 0.257812
vt 0.681641 0.257812
vt 0.742188 0.257812
vt 0.802734 0.257812
vt 0.863281 0.257812
vt 0.923828 0.257812
vt 0.984375 0.257812
vt 0.076172 0.318359
vt 0.015625 0.318359
vt 0.136719 0.318359
vt 0.197266 0.318359
vt 0.257812 0.318359
vt 0.318359 0.318359
vt 0.378906 0.318359
vt 0.439453 0.318359
vt 0.500000 0.318359
vt 0.560547 0.318359
vt 0.621094 0.318359
vt 0.681641 0.318359
vt 0.742188 0.318359
vt 0.802734 0.318359
vt 0.863281 0.318359
vt 0.923828 0.318359
vt 0.984375 0.318359
vt 0.076172 0.378906
vt 0.015625 0.378906
vt 0.136719 0.378906
vt 0.197266 0.378906
vt 0.257812 0.378906
vt 0.318359 0.378906
vt 0.378906 0.378906
vt 0.439453 0.378906
vt 0.500000 0.378906
vt 0.560547 0.378906
vt 0.621094 0.378906
vt 0.681641 0.378906
vt 0.742188 0.378906
vt 0.802734 0.378906
vt 0.863281 0.378906
vt 0.923828 0.378906
vt 0.984375 0.378906
vt 0.076172 0.439453
vt 0.015625 0.439453
vt 0.136719 0.439453
vt 0.197266 0.439453
vt 0.257812 0.439453
vt 0.318359 0.439453
vt 0.378906 0.439453
vt 0.439453 0.439453
vt 0.500000 0.439453
vt 0.560547 0.439453
vt 0.621094 0.439453
vt 0.681641 0.439453
vt 0.742188 0.439453
vt 0.802734 0.439453
vt 0.863281 0.439453
vt 0.923828 0.439453
vt 0.984375 0.439453
vt 0.076172 0.500000
vt 0.015625 0.500000
vt 0.136719 0.500000
vt 0.197266 0.500000
vt 0.257812 0.500000
vt 0.318359 0.500000
vt 0.378906 0.500000
vt 0.439453 0.500000
vt 0.500000 0.500000
vt 0.560547 0.500000
vt 0.621094 0.500000
vt 0.681641 0.500000
vt 0.742188 0.500000
vt 0.802734 0.500000
vt 0.863281 0.500000
vt 0.923828 0.500000
vt 0.984375 0.500000
vt 0.076172 0.560547
vt 0.015625 0.560547
vt 0.136719 0.560547
vt 0.197266 0.560547
vt 0.257812 0.560547
vt 0.318359 0.560547
vt 0.378906 0.560547
vt 0.439453 0.560547
vt 0.500000 0.560547
vt 0.560547 0.560547
vt 0.621094 0.560547
vt 0.681641 0.560547
vt 0.742188 0.560547
vt 0.802734 0.560547
vt 0.863281 0.560547
vt 0.923828 0.560547
vt 0.984375 0.560547
vt 0.076172 0.621094
vt 0.015625 0.621094
vt 0.136719 0.621094
vt 0.197266 0.621094
vt 0.257812 0.621094
vt 0.318359 0.621094
vt 0.378906 0.621094
vt 0.439453 0.621094
vt 0.500000 0.621094
vt 0.560547 0.621094
vt 0.621094 0.621094
vt 0.681641 0.621094
vt 0.742188 0.621094
vt 0.802734 0.621094
vt 0.863281 0.621094
vt 0.923828 0.621094
vt 0.984375 0.621094
vt 0.076172 0.681641
vt 0.015625 0.681641
vt 0.136719 0.681641
vt 0.197266 0.681641
vt 0.257812 0.681641
vt 0.318359 0.681641
vt 0.378906 0.681641
vt 0.439453 0.681641
vt 0.500000 0.681641
vt 0.560547 0.681641
vt 0.621094 0.681641
vt 0.681641 0.681641
vt 0.742188 0.681641
vt 0.802734 0.681641
vt 0.863281 0.681641
vt 0.923828 0.681641
vt 0.984375 0.681641
vt 0.076172 0.742188
vt 0.015625 0.742188
vt 0.136719 0.742188
vt 0.197266 0.742188
vt 0.257812 0.742188
vt 0.318359 0.742188
vt 0.378906 0.742188
vt 0.439453 0.742188
vt 0.500000 0.742188
vt 0.560547 0.742188
vt 0.621094 0.742188
vt 0.681641 0.742188
vt 0.742188 0.742188
vt 0.802734 0.742188
vt 0.863281 0.742188
vt 0.923828 0.742188
vt 0.984375 0.742188
vt 0.076172 0.802734
vt 0.015625 0.802734
vt 0.136719 0.802734
vt 0.197266 0.802734
vt 0.257812 0.802734
vt 0.318359 0.802734
vt 0.378906 0.802734
vt 0.439453 0.802734
vt 0.500000 0.802734
vt 0.560547 0.802734
vt 0.621094 0.802734
vt 0.681641 0.802734
vt 0.742188 0.802734
vt 0.802734 0.802734
vt 0.863281 0.802734
vt 0.923828 0.802734
vt 0.984375 0.802734
vt 0.076172 0.863281
vt 0.015625 0.863281
vt 0.136719 0.863281
vt 0.197266 0.863281
vt 0.257812 0.863281
vt 0.318359 0.863281
vt 0.378906 0.863281
vt 0.439453 0.863281
vt 0.500000 0.863281
vt 0.560547 0.863281
vt 0.621094 0.863281
vt 0.681641 0.863281
vt 0.742188 0.863281
vt 0.802734 0.863281
vt 0.863281 0.863281
vt 0.923828 0.863281
vt 0.984375 0.863281
vt 0.076172 0.923828
vt 0.015625 0.923828
vt 0.136719 0.923828
vt 0.197266 0.923828
vt 0.257812 0.923828
vt 0.318359 0.923828
vt 0.378906 0.923828
vt 0.439453 0.923828
vt 0.500000 0.923828
vt 0.560547 0.923828
vt 0.621094 0.923828
vt 0.681641 0.923828
vt 0.742188 0.923828
vt 0.802734 0.923828
vt 0.863281 0.923828
vt 0.923828 0.923828
vt 0.984375 0.923828
vt 0.076172 0.984375
vt 0.015625 0.984375
vt 0.136719 0.984375
vt 0.197266 0.984375
vt 0.257812 0.984375
vt 0.318359 0.984375
vt 0.378906 0.984375
vt 0.439453 0.984375
vt 0.500000 0.984375
vt 0.560547 0.984375
vt 0.621094 0.984375
vt 0.681641 0.984375
vt 0.742188 0.984375
vt 0.802734 0.984375
vt 0.863281 0.984375
vt 0.923828 0.984375
vt 0.984375 0.984375
s 1
f 1/1/1 2/2/2 19/3/3
f 1/1/1 19/3/3 18/4/4
f 2/2/2 3/5/5 20/6/6
f 2/2/2 20/6/6 19/3/3
f 3/5/5 4/7/7 21/8/8
f 3/5/5 21/8/8 20/6/6
f 4/7/7 5/9/9 22/10/10
f 4/7/7 22/10/10 21/8/8
f 5/9/9 6/11/11 23/12/12
f 5/9/9 23/12/12 22/10/10
f 6/11/11 7/13/13 24/14/14
f 6/11/11 24/14/14 23/12/12
f 7/13/13 8/15/15 25/16/16
f 7/13/13 25/16/16 24/14/14
f 8/15/15 9/17/17 26/18/18
f 8/15/15 26/18/18 25/16/16
f 9/17/17 10/19/19 27/20/20
f 9/17/17 27/20/20 26/18/18
f 10/19/19 11/21/21 28/22/22
f 10/19/19 28/22/22 27/20/20
f 11/21/21 12/23/23 29/24/24
f 11/21/21 29/24/24 28/22/22
f 12/23/23 13/25/25 30/26/26
f 12/23/23 30/26/26 29/24/24
f 13/25/25 14/27/27 31/28/28
f 13/25/25 31/28/28 30/26/26
f 14/27/27 15/29/29 32/30/30
f 14/27/27 32/30/30 31/28/28
f 15/29/29 16/31/31 33/32/32
f 15/29/29 33/32/32 32/30/30
f 16/31/31 17/33/33 34/34/34
f 16/31/31 34/34/34 33/32/32
f 18/4/4 19/3/3 36/35/35
f 18/4/4 36/35/35 35/36/36
f 19/3/3 20/6/6 37/37/37
f 19/3/3 37/37/37 36/35/35
f 20/6/6 21/8/8 38/38/38
f 20/6/6 38/38/38 37/37/37
f 21/8/8 22/10/10 39/39/39
f 21/8/8 39/39/39 38/38/38
f 22/10/10 23/12/12 40/40/40
f 22/10/10 40/40/40 39/39/39
f 23/12/12 24/14/14 41/41/41
f 23/12/12 41/41/41 40/40/40
f 24/14/14 25/16/16 42/42/42
f 24/14/14 42/42/42 41/41/41
f 25/16/16 26/18/18 43/43/43
f 25/16/16 43/43/43 42/42/42
f 26/18/18 27/20/20 44/44/44
f 26/18/18 44/44/44 43/43/43
f 27/20/20 28/22/22 45/45/45
f 27/20/20 45/45/45 44/44/44
f 28/22/22 29/24/24 46/46/46
f 28/22/22 46/46/46 45/45/45
f 29/24/24 30/26/26 47/47/47
f 29/24/24 47/47/47 46/46/46
f 30/26/26 31/28/28 48/48/48
f 30/26/26 48/48/48 47/47/47
f 31/28/28 32/30/30 49/49/49
f 31/28/28 49/49/49 48/48/48
f 32/30/30 33/32/32 50/50/50
f 32/30/30 50/50/50 49/49/49
f 33/32/32 34/34/34 51/51/51
f 33/32/32 51/51/51 50/50/50
f 35/36/36 36/35/35 53/52/52
f 35/36/36 53/52/52 52/53/53
f 36/35/35 37/37/37 54/54/54
f 36/35/35 54/54/54 53/52/52
f 37/37/37 38/38/38 55/55/55
f 37/37/37 55/55/55 54/54/54
f 38/38/38 39/39/39 56/56/56
f 38/38/38 56/56/56 55/55/55
f 39/39/39 40/40/40 57/57/57
f 39/39/39 57/57/57 56/56/56
f 40/40/40 41/41/41 58/58/58
f 40/40/40 58/58/58 57/57/57
f 41/41/41 42/42/42 59/59/59
f 41/41/41 59/59/59 58/58/58
f 42/42/42 43/43/43 60/60/60
f 42/42/42 60/60/60 59/59/59
f 43/43/43 44/44/44 61/61/61
f 43/43/43 61/61/61 60/60/60
f 44/44/44 45/45/45 62/62/62
f 44/44/44 62/62/62 61/61/61
f 45/45/45 46/46/46 63/63/63
f 45/45/45 63/63/63 62/62/62
f 46/46/46 47/47/47 64/64/64
f 46/46/46 64/64/64 63/63/63
f 47/47/47 48/48/48 65/65/65
f 47/47/47 65/65/65 64/64/64
f 48/48/48 49/49/49 66/66/66
f 48/48/48 66/66/66 65/65/65
f 49/49/49 50/50/50 67/67/67
f 49/49/49 67/67/67 66/66/66
f 50/50/50 51/51/51 68/68/68
f 50/50/50 68/68/68 67/67/67
f 52/53/53 53/52/52 70/69/69
f 52/53/53 70/69/69 69/70/70
f 53/52/52 54/54/54 71/71/71
f 53/52/52 71/71/71 70/69/69
f 54/54/54 55/55/55 72/72/72
f 54/54/54 72/72/72 71/71/71
f 55/55/55 56/56/56 73/73/73
f 55/55/55 73/73/73 72/72/72
f 56/56/56 57/57/57 74/74/74
f 56/56/56 74/74/74 73/73/73
f 57/57/57 58/58/58 75/75/75
f 57/57/57 75/75/75 74/74/74
f 58/58/58 59/59/59 76/76/76
f 58/58/58 76/76/76 75/75/75
f 59/59/59 60/60/60 77/77/77
f 59/59/59 77/77/77 76/76/76
f 60/60/60 61/61/61 78/78/78
f 60/60/60 78/78/78 77/77/77
f 61/61/61 62/62/62 79/79/79
f 61/61/61 79/79/79 78/78/78
f 62/62/62 63/63/63 80/80/80
f 62/62/62 80/80/80 79/79/79
f 63/63/63 64/64/64 81/81/81
f 63/63/63 81/81/81 80/80/80
f 64/64/64 65/65/65 82/82/82
f 64/64/64 82/82/82 81/81/81
f 65/65/65 66/66/66 83/83/83
f 65/65/65 83/83/83 82/82/82
f 66/66/66 67/67/67 84/84/84
f 66/66/66 84/84/84 83/83/83
f 67/67/67 68/68/68 85/85/85
f 67/67/67 85/85/85 84/84/84
f 69/70/70 70/69/69 87/86/86
f 69/70/70 87/86/86 86/87/87
f 70/69/69 71/71/71 88/88/88
f 70/69/69 88/88/88 87/86/86
f 71/71/71 72/72/72 89/89/89
f 71/71/71 89/89/89 88/88/88
f 72/72/72 73/73/73 90/90/90
f 72/72/72 90/90/90 89/89/89
f 73/73/73 74/74/74 91/91/91
f 73/73/73 91/91/91 90/90/90
f 74/74/74 75/75/75 92/92/92
f 74/74/74 92/92/92 91/91/91
f 75/75/75 76/76/76 93/93/93
f 75/75/75 93/93/93 92/92/92
f 76/76/76 77/77/77 94/94/94
f 76/76/76 94/94/94 93/93/93
f 77/77/77 78/78/78 95/95/95
f 77/77/77 95/95/95 94/94/94
f 78/78/78 79/79/79 96/96/96
f 78/78/78 96/96/96 95/95/95
f 79/79/79 80/80/80 97/97/97
f 79/79/79 97/97/97 96/96/96
f 80/80/80 81/81/81 98/98/98
f 80/80/80 98/98/98 97/97/97
f 81/81/81 82/82/82 99/99/99
f 81/81/81 99/99/99 98/98/98
f 82/82/82 83/83/83 100/100/100
f 82/82/82 100/100/100 99/99/99
f 83/83/83 84/84/84 101/101/101
f 83/83/83 101/101/101 100/100/100
f 84/84/84 85/85/85 102/102/102
f 84/84/84 102/102/102 101/101/101
f 86/87/87 87/86/86 104/103/103
f 86/87/87 104/103/103 103/104/104
f 87/86/86 88/88/88 105/105/105
f 87/86/86 105/105/105 104/103/103
f 88/88/88 89/89/89 106/106/106
f 88/88/88 106/106/106 105/105/105
f 89/89/89 90/90/90 107/107/107
f 89/89/89 107/107/107 106/106/106
f 90/90/90 91/91/91 108/108/108
f 90/90/90 108/108/108 107/107/107
f 91/91/91 92/92/92 109/109/109
f 91/91/91 109/109/109 108/108/108
f 92/92/92 93/93/93 110/110/110
f 92/92/92 110/110/110 109/109/109
f 93/93/93 94/94/94 111/111/111
f 93/93/93 111/111/111 110/110/110
f 94/94/94 95/95/95 112/112/112
f 94/94/94 112/112/112 111/111/111
f 95/95/95 96/96/96 113/113/113
f 95/95/95 113/113/113 112/112/112
f 96/96/96 97/97/97 114/114/114
f 96/96/96 114/114/114 113/113/113
f 97/97/97 98/98/98 115/115/115
f 97/97/97 115/115/115 114/114/114
f 98/98/98 99/99/99 116/116/116
f 98/98/98 116/116/116 115/115/115
f 99/99/99 100/100/100 117/117/117
f 99/99/99 117/117/117 116/116/116
f 100/100/100 101/101/101 118/118/118
f 100/100/100 118/118/118 117/117/117
f 101/101/101 102/102/102 119/119/119
f 101/101/101 119/119/119 118/118/118
f 103/104/104 104/103/103 121/120/120
f 103/104/104 121/120/120 120/121/121
f 104/103/103 105/105/105 122/122/122
f 104/103/103 122/122/122 121/120/120
f 105/105/105 106/106/106 123/123/123
f 105/105/105 123/123/123 122/122/122
f 106/106/106 107/107/107 124/124/124
f 106/106/106 124/124/124 123/123/123
f 107/107/107 108/108/108 125/125/125
f 107/107/107 125/125/125 124/124/124
f 108/108/108 109/109/109 126/126/126
f 108/108/108 126/126/126 125/125/125
f 109/109/109 110/110/110 127/127/127
f 109/109/109 127/127/127 126/126/126
f 110/110/110 111/111/111 128/128/128
f 110/110/110 128/128/128 127/127/127
f 111/111/111 112/112/112 129/129/129
f 111/111/111 129/129/129 128/128/128
f 112/112/112 113/113/113 130/130/130
f 112/112/112 130/130/130 129/129/129
f 113/113/113 114/114/114 131/131/131
f 113/113/113 131/131/131 130/130/130
f 114/114/114 115/115/115 132/132/132
f 114/114/114 132/132/132 131/131/131
f 115/115/115 116/116/116 133/133/133
f 115/115/115 133/133/133 132/132/132
f 116/116/116 117/117/117 134/134/134
f 116/116/116 134/134/134 133/133/133
f 117/117/117 118/118/118 135/135/135
f 117/117/117 135/135/135 134/134/134
f 118/118/118 119/119/119 136/136/136
f 118/118/118 136/136/136 135/135/135
f 120/121/121 121/120/120 138/137/137
f 120/121/121 138/137/137 137/138/138
f 121/120/120 122/122/122 139/139/139
f 121/120/120 139/139/139 138/137/137
f 122/122/122 123/123/123 140/140/140
f 122/122/122 140/140/140 139/139/139
f 123/123/123 124/124/124 141/141/141
f 123/123/123 141/141/141 140/140/140
f 124/124/124 125/125/125 142/142/142
f 124/124/124 142/142/142 141/141/141
f 125/125/125 126/126/126 143/143/143
f 125/125/125 143/143/143 142/142/142
f 126/126/126 127/127/127 144/144/144
f 126/126/126 144/144/144 143/143/143
f 127/127/127 128/128/128 145/145/145
f 127/127/127 145/145/145 144/144/144
f 128/128/128 129/129/129 146/146/146
f 128/128/128 146/146/146 145/145/145
f 129/129/129 130/130/130 147/147/147
f 129/129/129 147/147/147 146/146/146
f 130/130/130 131/131/131 148/148/148
f 130/130/130 148/148/148 147/147/147
f 131/131/131 132/132/132 149/149/149
f 131/131/131 149/149/149 148/148/148
f 132/132/132 133/133/133 150/150/150
f 132/132/132 150/150/150 149/149/149
f 133/133/133 134/134/134 151/151/151
f 133/133/133 151/151/151 150/150/150
f 134/134/134 135/135/135 152/152/152
f 134/134/134 152/152/152 151/151/151
f 135/135/135 136/136/136 153/153/153
f 135/135/135 153/153/153 152/152/152
f 137/138/138 138/137/137 155/154/154
f 137/138/138 155/154/154 154/155/155
f 138/137/137 139/139/139 156/156/156
f 138/137/137 156/156/156 155/154/154
f 139/139/139 140/140/140 157/157/157
f 139/139/139 157/157/157 156/156/156
f 140/140/140 141/141/141 158/158/158
f 140/140/140 158/158/158 157/157/157
f 141/141/141 142/142/142 159/159/159
f 141/141/141 159/159/159 158/158/158
f 142/142/142 143/143/143 160/160/160
f 142/142/142 160/160/160 159/159/159
f 143/143/143 144/144/144 161/161/161
f 143/143/143 161/161/161 160/160/160
f 144/144/144 145/145/145 162/162/162
f 144/144/144 162/162/162 161/161/161
f 145/145/145 146/146/146 163/163/163
f 145/145/145 163/163/163 162/162/162
f 146/146/146 147/147/147 164/164/164
f 146/146/146 164/164/164 163/163/163
f 147/147/147 148/148/148 165/165/165
f 147/147/147 165/165/165 164/164/164
f 148/148/148 149/149/149 166/166/166
f 148/148/148 166/166/166 165/165/165
f 149/149/149 150/150/150 167/167/167
f 149/149/149 167/167/167 166/166/166
f 150/150/150 151/151/151 168/168/168
f 150/150/150 168/168/168 167/167/167
f 151/151/151 152/152/152 169/169/169
f 151/151/151 169/169/169 168/168/168
f 152/152/152 153/153/153 170/170/170
f 152/152/152 170/170/170 169/169/169
f 154/155/155 155/154/154 172/171/171
f 154/155/155 172/171/171 171/172/172
f 155/154/154 156/156/156 173/173/173
f 155/154/154 173/173/173 172/171/171
f 156/156/156 157/157/157 174/174/174
f 156/156/156 174/174/174 173/173/173
f 157/157/157 158/158/158 175/175/175
f 157/157/157 175/175/175 174/174/174
f 158/158/158 159/159/159 176/176/176
f 158/158/158 176/176/176 175/175/175
f 159/159/159 160/160/160 177/177/177
f 159/159/159 177/177/177 176/176/176
f 160/160/160 161/161/161 178/178/178
f 160/160/160 178/178/178 177/177/177
f 161/161/161 162/162/162 179/179/179
f 161/161/161 179/179/179 178/178/178
f 162/162/162 163/163/163 180/180/180
f 162/162/162 180/180/180 179/179/179
f 163/163/163 164/164/164 181/181/181
f 163/163/163 181/181/181 180/180/180
f 164/164/164 165/165/165 182/182/182
f 164/164/164 182/182/182 181/181/181
f 165/165/165 166/166/166 183/183/183
f 165/165/165 183/183/183 182/182/182
f 166/166/166 167/167/167 184/184/184
f 166/166/166 184/184/184 183/183/183
f 167/167/167 168/168/168 185/185/185
f 167/167/167 185/185/185 184/184/184
f 168/168/168 169/169/169 186/186/186
f 168/168/168 186/186/186 185/185/185
f 169/169/169 170/170/170 187/187/187
f 169/169/169 187/187/187 186/186/186
f 171/172/172 172/171/171 189/188/188
f 171/172/172 189/188/188 188/189/189
f 172/171/171 173/173/173 190/190/190
f 172/171/171 190/190/190 189/188/188
f 173/173/173 174/174/174 191/191/191
f 173/173/173 191/191/191 190/190/190
f 174/174/174 175/175/175 192/192/192
f 174/174/174 192/192/192 191/191/191
f 175/175/175 176/176/176 193/193/193
f 175/175/175 193/193/193 192/192/192
f 176/176/176 177/177/177 194/194/194
f 176/176/176 194/194/194 193/193/193
f 177/177/177 178/178/178 195/195/195
f 177/177/177 195/195/195 194/194/194
f 178/178/178 179/179/179 196/196/196
f 178/178/178 196/196/196 195/195/195
f 179/179/179 180/180/180 197/197/197
f 179/179/179 197/197/197 196/196/196
f 180/180/180 181/181/181 198/198/198
f 180/180/180 198/198/198 197/197/197
f 181/181/181 182/182/182 199/199/199
f 181/181/181 199/199/199 198/198/198
f 182/182/182 183/183/183 200/200/200
f 182/182/182 200/200/200 199/199/199
f 183/183/183 184/184/184 201/201/201
f 183/183/183 201/201/201 200/200/200
f 184/184/184 185/185/185 202/202/202
f 184/184/184 202/202/202 201/201/201
f 185/185/185 186/186/186 203/203/203
f 185/185/185 203/203/203 202/202/202
f 186/186/186 187/187/187 204/204/204
f 186/186/186 204/204/204 203/203/203
f 188/189/189 189/188/188 206/205/205
f 188/189/189 206/205/205 205/206/206
f 189/188/188 190/190/190 207/207/207
f 189/188/188 207/207/207 206/205/205
f 190/190/190 191/191/191 208/208/208
f 190/190/190 208/208/208 207/207/207
f 191/191/191 192/192/192 209/209/209
f 191/191/191 209/209/209 208/208/208
f 192/192/192 193/193/193 210/210/210
f 192/192/192 210/210/210 209/209/209
f 193/193/193 194/194/194 211/211/211
f 193/193/193 211/211/211 210/210/210
f 194/194/194 195/195/195 212/212/212
f 194/194/194 212/212/212 211/211/211
f 195/195/195 196/196/196 213/213/213
f 195/195/195 213/213/213 212/212/212
f 196/196/196 197/197/197 214/214/214
f 196/196/196 214/214/214 213/213/213
f 197/197/197 198/198/198 215/215/215
f 197/197/197 215/215/215 214/214/214
f 198/198/198 199/199/199 216/216/216
f 198/198/198 216/216/216 215/215/215
f 199/199/199 200/200/200 217/217/217
f 199/199/199 217/217/217 216/216/216
f 200/200/200 201/201/201 218/218/218
f 200/200/200 218/218/218 217/217/217
f 201/201/201 202/202/202 219/219/219
f 201/201/201 219/219/219 218/218/218
f 202/202/202 203/203/203 220/220/220
f 202/202/202 220/220/220 219/219/219
f 203/203/203 204/204/204 221/221/221
f 203/203/203 221/221/221 220/220/220
f 205/206/206 206/205/205 223/222/222
f 205/206/206 223/222/222 222/223/223
f 206/205/205 207/207/207 224/224/224
f 206/205/205 224/224/224 223/222/222
f 207/207/207 208/208/208 225/225/225
f 207/207/207 225/225/225 224/224/224
f 208/208/208 209/209/209 226/226/226
f 208/208/208 226/226/226 225/225/225
f 209/209/209 210/210/210 227/227/227
f 209/209/209 227/227/227 226/226/226
f 210/210/210 211/211/211 228/228/228
f 210/210/210 228/228/228 227/227/227
f 211/211/211 212/212/212 229/229/229
f 211/211/211 229/229/229 228/228/228
f 212/212/212 213/213/213 230/230/230
f 212/212/212 230/230/230 229/229/229
f 213/213/213 214/214/214 231/231/231
f 213/213/213 231/231/231 230/230/230
f 214/214/214 215/215/215 232/232/232
f 214/214/214 232/232/232 231/231/231
f 215/215/215 216/216/216 233/233/233
f 215/215/215 233/233/233 232/232/232
f 216/216/216 217/217/217 234/234/234
f 216/216/216 234/234/234 233/233/233
f 217/217/217 218/218/218 235/235/235
f 217/217/217 235/235/235 234/234/234
f 218/218/218 219/219/219 236/236/236
f 218/218/218 236/236/236 235/235/235
f 219/219/219 220/220/220 237/237/237
f 219/219/219 237/237/237 236/236/236
f 220/220/220 221/221/221 238/238/238
f 220/220/220 238/238/238 237/237/237
f 222/223/223 223/222/222 240/239/239
f 222/223/223 240/239/239 239/240/240
f 223/222/222 224/224/224 241/241/241
f 223/222/222 241/241/241 240/239/239
f 224/224/224 225/225/225 242/242/242
f 224/224/224 242/242/242 241/241/241
f 225/225/225 226/226/226 243/243/243
f 225/225/225 243/243/243 242/242/242
f 226/226/226 227/227/227 244/244/244
f 226/226/226 244/244/244 243/243/243
f 227/227/227 228/228/228 245/245/245
f 227/227/227 245/245/245 244/244/244
f 228/228/228 229/229/229 246/246/246
f 228/228/228 246/246/246 245/245/245
f 229/229/229 230/230/230 247/247/247
f 229/229/229 247/247/247 246/246/246
f 230/230/230 231/231/231 248/248/248
f 230/230/230 248/248/248 247/247/247
f 231/231/231 232/232/232 249/249/249
f 231/231/231 249/249/249 248/248/248
f 232/232/232 233/233/233 250/250/250
f 232/232/232 250/250/250 249/249/249
f 233/233/233 234/234/234 251/251/251
f 233/233/233 251/251/251 250/250/250
f 234/234/234 235/235/235 252/252/252
f 234/234/234 252/252/252 251/251/251
f 235/235/235 236/236/236 253/253/253
f 235/235/235 253/253/253 252/252/252
f 236/236/236 237/237/237 254/254/254
f 236/236/236 254/254/254 253/253/253
f 237/237/237 238/238/238 255/255/255
f 237/237/237 255/255/255 254/254/254
f 239/240/240 240/239/239 257/256/256
f 239/240/240 257/256/256 256/257/257
f 240/239/239 241/241/241 258/258/258
f 240/239/239 258/258/258 257/256/256
f 241/241/241 242/242/242 259/259/259
f 241/241/241 259/259/259 258/258/258
f 242/242/242 243/243/243 260/260/260
f 242/242/242 260/260/260 259/259/259
f 243/243/243 244/244/244 261/261/261
f 243/243/243 261/261/261 260/260/260
f 244/244/244 245/245/245 262/262/262
f 244/244/244 262/262/262 261/261/261
f 245/245/245 246/246/246 263/263/263
f 245/245/245 263/263/263 262/262/262
f 246/246/246 247/247/247 264/264/264
f 246/246/246 264/264/264 263/263/263
f 247/247/247 248/248/248 265/265/265
f 247/247/247 265/265/265 264/264/264
f 248/248/248 249/249/249 266/266/266
f 248/248/248 266/266/266 265/265/265
f 249/249/249 250/250/250 267/267/267
f 249/249/249 267/267/267 266/266/266
f 250/250/250 251/251/251 268/268/268
f 250/250/250 268/268/268 267/267/267
f 251/251/251 252/252/252 269/269/269
f 251/251/251 269/269/269 268/268/268
f 252/252/252 253/253/253 270/270/270
f 252/252/252 270/270/270 269/269/269
f 253/253/253 254/254/254 271/271/271
f 253/253/253 271/271/271 270/270/270
f 254/254/254 255/255/255 272/272/272
f 254/254/254 272/272/272 271/271/271
f 256/257/257 257/256/256 274/273/273
f 256/257/257 274/273/273 273/274/274
f 257/256/256 258/258/258 275/275/275
f 257/256/256 275/275/275 274/273/273
f 258/258/258 259/259/259 276/276/276
f 258/258/258 276/276/276 275/275/275
f 259/259/259 260/260/260 277/277/277
f 259/259/259 277/277/277 276/276/276
f 260/260/260 261/261/261 278/278/278
f 260/260/260 278/278/278 277/277/277
f 261/261/261 262/262/262 279/279/279
f 261/261/261 279/279/279 278/278/278
f 262/262/262 263/263/263 280/280/280
f 262/262/262 280/280/280 279/279/279
f 263/263/263 264/264/264 281/281/281
f 263/263/263 281/281/281 280/280/280
f 264/264/264 265/265/265 282/282/282
f 264/264/264 282/282/282 281/281/281
f 265/265/265 266/266/266 283/283/283
f 265/265/265 283/283/283 282/282/282
f 266/266/266 267/267/267 284/284/284
f 266/266/266 284/284/284 283/283/283
f 267/267/267 268/268/268 285/285/285
f 267/267/267 285/285/285 284/284/284
f 268/268/268 269/269/269 286/286/286
f 268/268/268 286/286/286 285/285/285
f 269/269/269 270/270/270 287/287/287
f 269/269/269 287/287/287 286/286/286
f 270/270/270 271/271/271 288/288/288
f 270/270/270 288/288/288 287/287/287
f 271/271/271 272/272/272 289/289/289
f 271/271/271 289/289/289 288/288/288
