mtllib terrain_far_05_00.mtl
usemtl terrain_far_05_00
# Blender 5.1.1
# www.blender.org
o terrain_far_05_00
v -320.000000 -320.000000 -0.599201
v -280.000000 -320.000000 -7.634601
v -240.000000 -320.000000 -6.264789
v -200.000000 -320.000000 -0.654044
v -160.000000 -320.000000 7.494569
v -120.000000 -320.000000 15.648317
v -80.000000 -320.000000 17.744102
v -40.000000 -320.000000 12.742434
v 0.000000 -320.000000 6.307707
v 40.000000 -320.000000 -1.930161
v 80.000000 -320.000000 -15.834023
v 120.000000 -320.000000 -36.697235
v 160.000000 -320.000000 -58.179409
v 200.000000 -320.000000 -69.940933
v 240.000000 -320.000000 -69.792496
v 280.000000 -320.000000 -59.672462
v 320.000000 -320.000000 -44.646477
v -320.000000 -280.000000 -0.828985
v -280.000000 -280.000000 1.595874
v -240.000000 -280.000000 6.345040
v -200.000000 -280.000000 12.435575
v -160.000000 -280.000000 20.663643
v -120.000000 -280.000000 25.908489
v -80.000000 -280.000000 23.280098
v -40.000000 -280.000000 16.380421
v 0.000000 -280.000000 9.854135
v 40.000000 -280.000000 0.644173
v 80.000000 -280.000000 -15.116704
v 120.000000 -280.000000 -36.447937
v 160.000000 -280.000000 -56.855141
v 200.000000 -280.000000 -68.076981
v 240.000000 -280.000000 -68.217484
v 280.000000 -280.000000 -54.124844
v 320.000000 -280.000000 -34.696041
v -320.000000 -240.000000 7.349245
v -280.000000 -240.000000 15.307015
v -240.000000 -240.000000 20.622099
v -200.000000 -240.000000 26.690851
v -160.000000 -240.000000 32.261944
v -120.000000 -240.000000 31.727236
v -80.000000 -240.000000 25.171381
v -40.000000 -240.000000 17.497168
v 0.000000 -240.000000 10.209447
v 40.000000 -240.000000 -0.825126
v 80.000000 -240.000000 -19.226011
v 120.000000 -240.000000 -40.301846
v 160.000000 -240.000000 -57.405273
v 200.000000 -240.000000 -67.427788
v 240.000000 -240.000000 -66.738998
v 280.000000 -240.000000 -49.336586
v 320.000000 -240.000000 -28.133293
v -320.000000 -200.000000 17.692263
v -280.000000 -200.000000 26.428564
v -240.000000 -200.000000 34.896194
v -200.000000 -200.000000 40.264324
v -160.000000 -200.000000 39.426781
v -120.000000 -200.000000 33.102600
v -80.000000 -200.000000 24.579674
v -40.000000 -200.000000 15.776280
v 0.000000 -200.000000 7.513646
v 40.000000 -200.000000 -5.169059
v 80.000000 -200.000000 -25.042194
v 120.000000 -200.000000 -46.576420
v 160.000000 -200.000000 -61.212177
v 200.000000 -200.000000 -66.482178
v 240.000000 -200.000000 -59.038811
v 280.000000 -200.000000 -40.858330
v 320.000000 -200.000000 -24.363012
v -320.000000 -160.000000 28.296944
v -280.000000 -160.000000 35.490547
v -240.000000 -160.000000 44.415550
v -200.000000 -160.000000 48.377594
v -160.000000 -160.000000 42.264767
v -120.000000 -160.000000 32.893726
v -80.000000 -160.000000 23.217110
v -40.000000 -160.000000 13.498713
v 0.000000 -160.000000 4.945477
v 40.000000 -160.000000 -7.452289
v 80.000000 -160.000000 -29.384100
v 120.000000 -160.000000 -53.497047
v 160.000000 -160.000000 -63.452473
v 200.000000 -160.000000 -62.709015
v 240.000000 -160.000000 -50.288567
v 280.000000 -160.000000 -33.571465
v 320.000000 -160.000000 -18.831514
v -320.000000 -120.000000 37.629673
v -280.000000 -120.000000 43.000069
v -240.000000 -120.000000 49.403473
v -200.000000 -120.000000 51.041443
v -160.000000 -120.000000 44.299957
v -120.000000 -120.000000 33.591278
v -80.000000 -120.000000 22.837011
v -40.000000 -120.000000 13.932408
v 0.000000 -120.000000 4.272354
v 40.000000 -120.000000 -9.397574
v 80.000000 -120.000000 -32.594486
v 120.000000 -120.000000 -53.992859
v 160.000000 -120.000000 -60.097778
v 200.000000 -120.000000 -58.628700
v 240.000000 -120.000000 -44.864983
v 280.000000 -120.000000 -27.575960
v 320.000000 -120.000000 -12.690953
v -320.000000 -80.000000 45.492012
v -280.000000 -80.000000 49.044964
v -240.000000 -80.000000 52.824669
v -200.000000 -80.000000 51.655220
v -160.000000 -80.000000 45.049053
v -120.000000 -80.000000 34.283619
v -80.000000 -80.000000 23.006599
v -40.000000 -80.000000 14.109722
v 0.000000 -80.000000 2.362008
v 40.000000 -80.000000 -14.484279
v 80.000000 -80.000000 -32.837143
v 120.000000 -80.000000 -48.598312
v 160.000000 -80.000000 -56.814423
v 200.000000 -80.000000 -56.935246
v 240.000000 -80.000000 -46.397217
v 280.000000 -80.000000 -26.677876
v 320.000000 -80.000000 -8.972795
v -320.000000 -40.000000 53.397633
v -280.000000 -40.000000 55.279503
v -240.000000 -40.000000 55.619171
v -200.000000 -40.000000 51.544613
v -160.000000 -40.000000 43.124039
v -120.000000 -40.000000 31.955378
v -80.000000 -40.000000 21.639351
v -40.000000 -40.000000 11.824437
v 0.000000 -40.000000 -0.774426
v 40.000000 -40.000000 -15.665811
v 80.000000 -40.000000 -28.910860
v 120.000000 -40.000000 -41.500515
v 160.000000 -40.000000 -51.981682
v 200.000000 -40.000000 -57.050446
v 240.000000 -40.000000 -52.215786
v 280.000000 -40.000000 -31.371445
v 320.000000 -40.000000 -8.729939
v -320.000000 0.000000 61.556026
v -280.000000 0.000000 60.598022
v -240.000000 0.000000 56.365093
v -200.000000 0.000000 48.982925
v -160.000000 0.000000 38.698822
v -120.000000 0.000000 27.058744
v -80.000000 0.000000 17.714954
v -40.000000 0.000000 8.895103
v 0.000000 0.000000 -3.424850
v 40.000000 0.000000 -14.723082
v 80.000000 0.000000 -24.581921
v 120.000000 0.000000 -37.476337
v 160.000000 0.000000 -49.966694
v 200.000000 0.000000 -58.039726
v 240.000000 0.000000 -52.638737
v 280.000000 0.000000 -31.919588
v 320.000000 0.000000 -10.491084
v -320.000000 40.000000 63.653111
v -280.000000 40.000000 59.691685
v -240.000000 40.000000 52.401627
v -200.000000 40.000000 43.339668
v -160.000000 40.000000 33.701229
v -120.000000 40.000000 21.888783
v -80.000000 40.000000 11.127145
v -40.000000 40.000000 3.334420
v 0.000000 40.000000 -6.324203
v 40.000000 40.000000 -15.895024
v 80.000000 40.000000 -25.974281
v 120.000000 40.000000 -39.520370
v 160.000000 40.000000 -51.830559
v 200.000000 40.000000 -55.815041
v 240.000000 40.000000 -44.425442
v 280.000000 40.000000 -25.786884
v 320.000000 40.000000 -6.128948
v -320.000000 80.000000 58.739658
v -280.000000 80.000000 55.451668
v -240.000000 80.000000 49.374363
v -200.000000 80.000000 40.590477
v -160.000000 80.000000 30.366484
v -120.000000 80.000000 19.390388
v -80.000000 80.000000 7.321345
v -40.000000 80.000000 -2.263691
v 0.000000 80.000000 -10.124788
v 40.000000 80.000000 -19.523016
v 80.000000 80.000000 -30.852673
v 120.000000 80.000000 -44.183178
v 160.000000 80.000000 -53.812363
v 200.000000 80.000000 -48.712467
v 240.000000 80.000000 -32.522671
v 280.000000 80.000000 -13.921690
v 320.000000 80.000000 5.215964
v -320.000000 120.000000 53.007660
v -280.000000 120.000000 52.274429
v -240.000000 120.000000 50.683472
v -200.000000 120.000000 43.829247
v -160.000000 120.000000 34.244934
v -120.000000 120.000000 24.219891
v -80.000000 120.000000 11.341208
v -40.000000 120.000000 -1.881943
v 0.000000 120.000000 -13.165248
v 40.000000 120.000000 -23.985296
v 80.000000 120.000000 -36.339104
v 120.000000 120.000000 -48.240707
v 160.000000 120.000000 -51.340481
v 200.000000 120.000000 -36.209972
v 240.000000 120.000000 -19.234169
v 280.000000 120.000000 -1.139030
v 320.000000 120.000000 20.562902
v -320.000000 160.000000 48.509380
v -280.000000 160.000000 49.973316
v -240.000000 160.000000 53.693542
v -200.000000 160.000000 49.177620
v -160.000000 160.000000 38.573380
v -120.000000 160.000000 26.341412
v -80.000000 160.000000 12.417102
v -40.000000 160.000000 -1.797945
v 0.000000 160.000000 -14.914197
v 40.000000 160.000000 -27.479469
v 80.000000 160.000000 -42.063210
v 120.000000 160.000000 -49.898693
v 160.000000 160.000000 -43.171997
v 200.000000 160.000000 -23.863781
v 240.000000 160.000000 -8.418326
v 280.000000 160.000000 10.252605
v 320.000000 160.000000 35.950619
v -320.000000 200.000000 44.822788
v -280.000000 200.000000 46.741150
v -240.000000 200.000000 53.427410
v -200.000000 200.000000 50.135155
v -160.000000 200.000000 37.879898
v -120.000000 200.000000 22.707752
v -80.000000 200.000000 6.522632
v -40.000000 200.000000 -5.806015
v 0.000000 200.000000 -15.348692
v 40.000000 200.000000 -28.459810
v 80.000000 200.000000 -44.609924
v 120.000000 200.000000 -48.901093
v 160.000000 200.000000 -35.785717
v 200.000000 200.000000 -14.580612
v 240.000000 200.000000 2.123666
v 280.000000 200.000000 20.526192
v 320.000000 200.000000 43.571342
v -320.000000 240.000000 41.107613
v -280.000000 240.000000 40.693436
v -240.000000 240.000000 47.611206
v -200.000000 240.000000 46.087677
v -160.000000 240.000000 35.055637
v -120.000000 240.000000 17.587296
v -80.000000 240.000000 -1.903298
v -40.000000 240.000000 -9.397758
v 0.000000 240.000000 -15.665010
v 40.000000 240.000000 -30.273178
v 80.000000 240.000000 -46.626225
v 120.000000 240.000000 -47.538872
v 160.000000 240.000000 -29.477131
v 200.000000 240.000000 -5.930025
v 240.000000 240.000000 14.493633
v 280.000000 240.000000 35.124107
v 320.000000 240.000000 52.240627
v -320.000000 280.000000 39.155708
v -280.000000 280.000000 32.816406
v -240.000000 280.000000 36.312195
v -200.000000 280.000000 36.696175
v -160.000000 280.000000 29.845984
v -120.000000 280.000000 13.861058
v -80.000000 280.000000 -4.553384
v -40.000000 280.000000 -10.427442
v 0.000000 280.000000 -21.740381
v 40.000000 280.000000 -38.456169
v 80.000000 280.000000 -50.114357
v 120.000000 280.000000 -45.175888
v 160.000000 280.000000 -25.923914
v 200.000000 280.000000 -1.705592
v 240.000000 280.000000 24.355721
v 280.000000 280.000000 50.919342
v 320.000000 280.000000 63.691456
v -320.000000 320.000000 38.745987
v -280.000000 320.000000 27.576561
v -240.000000 320.000000 23.914240
v -200.000000 320.000000 24.183617
v -160.000000 320.000000 21.437332
v -120.000000 320.000000 11.321915
v -80.000000 320.000000 -2.289719
v -40.000000 320.000000 -10.261799
v 0.000000 320.000000 -27.680182
v 40.000000 320.000000 -46.171108
v 80.000000 320.000000 -51.067333
v 120.000000 320.000000 -40.503540
v 160.000000 320.000000 -21.220186
v 200.000000 320.000000 2.443137
v 240.000000 320.000000 27.892681
v 280.000000 320.000000 52.953751
v 320.000000 320.000000 68.637962
vn 0.1838 0.0305 0.9825
vn 0.0702 -0.1123 0.9912
vn -0.0859 -0.2746 0.9577
vn 0.0134 -0.0989 0.9950
vn -0.0847 -0.2256 0.9705
vn -0.1274 -0.3160 0.9402
vn -0.1637 -0.2604 0.9515
vn -0.1669 -0.3190 0.9330
vn -0.1915 -0.2840 0.9395
vn -0.1588 -0.2920 0.9431
vn -0.1223 -0.2719 0.9545
vn -0.0321 -0.1969 0.9799
vn 0.0356 -0.2015 0.9788
vn 0.1178 -0.0918 0.9888
vn 0.1401 -0.1434 0.9797
vn 0.1652 -0.0585 0.9845
vn 0.1793 -0.1099 0.9776
vn 0.1928 -0.0478 0.9801
vn 0.2655 -0.0984 0.9591
vn 0.2979 -0.0132 0.9545
vn 0.3979 -0.0565 0.9157
vn 0.4203 0.0384 0.9066
vn 0.4676 -0.0280 0.8835
vn 0.4622 0.0399 0.8859
vn 0.3836 -0.0217 0.9232
vn 0.3677 -0.0090 0.9299
vn 0.1436 -0.0230 0.9894
vn 0.1406 -0.0311 0.9896
vn -0.1272 -0.0479 0.9907
vn -0.1717 -0.0376 0.9844
vn -0.2974 -0.1288 0.9460
vn -0.3853 -0.1182 0.9152
vn -0.3801 -0.1831 0.9066
vn -0.3898 -0.1893 0.9012
vn -0.1566 -0.2927 0.9433
vn -0.1570 -0.2228 0.9621
vn -0.1328 -0.3331 0.9335
vn -0.1361 -0.3255 0.9357
vn -0.0612 -0.2279 0.9718
vn 0.0879 -0.0892 0.9921
vn 0.1751 -0.0160 0.9844
vn 0.1838 0.0074 0.9829
vn 0.2232 0.0286 0.9744
vn 0.3445 0.0680 0.9363
vn 0.4398 0.1106 0.8913
vn 0.4279 0.1135 0.8967
vn 0.3207 0.0515 0.9458
vn 0.1158 -0.0198 0.9931
vn -0.2192 -0.1112 0.9693
vn -0.4325 -0.1475 0.8895
vn -0.4017 -0.1151 0.9085
vn -0.2041 -0.2395 0.9492
vn -0.1966 -0.2484 0.9485
vn -0.1635 -0.2812 0.9456
vn -0.0546 -0.2612 0.9637
vn 0.0885 -0.1236 0.9884
vn 0.1824 -0.0144 0.9831
vn 0.2116 0.0239 0.9771
vn 0.2084 0.0488 0.9768
vn 0.2528 0.0635 0.9654
vn 0.3758 0.0765 0.9235
vn 0.4568 0.1121 0.8825
vn 0.4074 0.1486 0.9011
vn 0.2408 0.0732 0.9678
vn -0.0272 -0.0589 0.9979
vn -0.2994 -0.1922 0.9346
vn -0.3910 -0.1779 0.9030
vn -0.3589 -0.1030 0.9277
vn -0.1936 -0.1990 0.9607
vn -0.1813 -0.2378 0.9542
vn -0.1565 -0.1763 0.9718
vn 0.0266 -0.1335 0.9907
vn 0.1897 -0.0597 0.9800
vn 0.2316 -0.0060 0.9728
vn 0.2355 0.0211 0.9716
vn 0.2227 0.0225 0.9746
vn 0.2532 0.0392 0.9666
vn 0.3939 0.0485 0.9179
vn 0.4972 0.0815 0.8638
vn 0.3904 0.0850 0.9167
vn 0.1144 -0.0138 0.9933
vn -0.1616 -0.0964 0.9821
vn -0.3374 -0.1644 0.9269
vn -0.3605 -0.1528 0.9202
vn -0.3357 -0.1379 0.9318
vn -0.1436 -0.1653 0.9757
vn -0.1291 -0.2084 0.9695
vn -0.0994 -0.1040 0.9896
vn 0.0636 -0.0409 0.9971
vn 0.2130 -0.0340 0.9765
vn 0.2591 -0.0168 0.9657
vn 0.2386 0.0025 0.9711
vn 0.2260 -0.0074 0.9741
vn 0.2798 0.0310 0.9595
vn 0.4172 0.0796 0.9053
vn 0.4865 0.0377 0.8728
vn 0.3246 -0.0578 0.9441
vn 0.0577 -0.0825 0.9949
vn -0.1866 -0.0707 0.9799
vn -0.3615 -0.0453 0.9313
vn -0.3732 -0.0797 0.9243
vn -0.3375 -0.1187 0.9338
vn -0.0902 -0.1511 0.9844
vn -0.0579 -0.1931 0.9795
vn -0.0325 -0.0774 0.9965
vn 0.0967 -0.0063 0.9953
vn 0.2122 0.0144 0.9771
vn 0.2656 0.0197 0.9639
vn 0.2445 0.0146 0.9695
vn 0.2498 0.0255 0.9680
vn 0.3360 0.0593 0.9400
vn 0.4017 0.0715 0.9130
vn 0.3919 -0.0423 0.9190
vn 0.2839 -0.1479 0.9474
vn 0.1031 -0.1004 0.9896
vn -0.1291 -0.0196 0.9914
vn -0.3525 0.0856 0.9319
vn -0.4251 0.0429 0.9041
vn -0.3668 -0.0464 0.9291
vn -0.0274 -0.1430 0.9893
vn -0.0186 -0.1968 0.9803
vn 0.0465 -0.0442 0.9979
vn 0.1542 0.0330 0.9875
vn 0.2371 0.0768 0.9684
vn 0.2584 0.0869 0.9621
vn 0.2435 0.0639 0.9678
vn 0.2692 0.0626 0.9610
vn 0.3242 0.0683 0.9435
vn 0.3318 0.0028 0.9434
vn 0.3058 -0.0977 0.9471
vn 0.2747 -0.1324 0.9524
vn 0.1902 -0.0837 0.9782
vn 0.0029 0.0138 0.9999
vn -0.3048 0.0741 0.9495
vn -0.4782 0.0574 0.8764
vn -0.4196 0.0228 0.9074
vn 0.0646 -0.0550 0.9964
vn 0.0178 -0.1271 0.9917
vn 0.1435 0.0397 0.9888
vn 0.2146 0.0996 0.9716
vn 0.2626 0.1129 0.9583
vn 0.2519 0.1208 0.9602
vn 0.2195 0.1269 0.9673
vn 0.2541 0.1021 0.9618
vn 0.2825 0.0664 0.9570
vn 0.2557 0.0028 0.9668
vn 0.2734 -0.0353 0.9613
vn 0.3023 -0.0236 0.9529
vn 0.2490 -0.0018 0.9685
vn 0.0334 -0.0155 0.9993
vn -0.3091 -0.0922 0.9466
vn -0.4626 -0.0617 0.8844
vn -0.4040 -0.0227 0.9145
vn 0.1390 0.0636 0.9883
vn 0.0782 0.0351 0.9963
vn 0.1995 0.0853 0.9762
vn 0.2264 0.1016 0.9687
vn 0.2576 0.1000 0.9611
vn 0.2705 0.0919 0.9583
vn 0.2242 0.1256 0.9664
vn 0.2112 0.1350 0.9681
vn 0.2329 0.0813 0.9691
vn 0.2381 0.0583 0.9695
vn 0.2824 0.0749 0.9564
vn 0.3066 0.0795 0.9485
vn 0.1994 0.0470 0.9788
vn -0.0915 -0.1153 0.9891
vn -0.3421 -0.2292 0.9113
vn -0.4190 -0.1993 0.8858
vn -0.4105 -0.1771 0.8945
vn 0.1158 0.0917 0.9890
vn 0.0824 0.1315 0.9879
vn 0.1826 0.0211 0.9830
vn 0.2311 -0.0060 0.9729
vn 0.2561 -0.0066 0.9666
vn 0.2767 -0.0280 0.9605
vn 0.2613 -0.0026 0.9653
vn 0.2126 0.0636 0.9751
vn 0.2101 0.0834 0.9741
vn 0.2496 0.0975 0.9634
vn 0.2923 0.1229 0.9484
vn 0.2743 0.1042 0.9560
vn 0.0565 -0.0061 0.9984
vn -0.2502 -0.2304 0.9404
vn -0.3831 -0.2775 0.8810
vn -0.4095 -0.2686 0.8719
vn -0.4118 -0.2908 0.8637
vn 0.0290 0.0683 0.9972
vn 0.0536 0.1267 0.9905
vn 0.1048 -0.0536 0.9930
vn 0.2002 -0.1046 0.9742
vn 0.2368 -0.0990 0.9665
vn 0.2743 -0.0832 0.9580
vn 0.3097 -0.0604 0.9489
vn 0.2929 -0.0056 0.9561
vn 0.2659 0.0576 0.9623
vn 0.2770 0.0951 0.9562
vn 0.2876 0.1329 0.9485
vn 0.1838 0.0700 0.9805
vn -0.1474 -0.1304 0.9804
vn -0.3578 -0.2770 0.8917
vn -0.3870 -0.2660 0.8829
vn -0.4281 -0.2614 0.8651
vn -0.4432 -0.3263 0.8349
vn -0.0645 0.0689 0.9955
vn 0.0441 0.1017 0.9938
vn 0.0099 -0.0343 0.9994
vn 0.1851 -0.0772 0.9797
vn 0.2742 -0.0436 0.9607
vn 0.3106 0.0179 0.9504
vn 0.3313 0.0567 0.9418
vn 0.3229 0.0463 0.9453
vn 0.3055 0.0260 0.9518
vn 0.3209 0.0529 0.9456
vn 0.2685 0.0991 0.9582
vn 0.0138 0.0082 0.9999
vn -0.3043 -0.1818 0.9351
vn -0.3867 -0.2407 0.8902
vn -0.3810 -0.2385 0.8933
vn -0.4750 -0.2300 0.8494
vn -0.4675 -0.2483 0.8484
vn -0.1063 0.1145 0.9877
vn 0.0744 0.0919 0.9930
vn -0.0422 0.0758 0.9962
vn 0.1907 0.0379 0.9809
vn 0.3241 0.0416 0.9451
vn 0.3630 0.1013 0.9262
vn 0.3310 0.1663 0.9289
vn 0.2626 0.0913 0.9606
vn 0.2724 0.0090 0.9621
vn 0.3433 0.0327 0.9387
vn 0.2472 0.0552 0.9674
vn -0.1096 -0.0293 0.9935
vn -0.3895 -0.1554 0.9078
vn -0.4197 -0.1986 0.8857
vn -0.3887 -0.2537 0.8857
vn -0.4451 -0.2659 0.8551
vn -0.4405 -0.1697 0.8815
vn -0.0798 0.1709 0.9820
vn 0.1411 0.0700 0.9875
vn -0.0658 0.2087 0.9758
vn 0.1529 0.1637 0.9746
vn 0.3341 0.0942 0.9378
vn 0.4173 0.0999 0.9033
vn 0.3169 0.1301 0.9395
vn 0.1689 0.0572 0.9840
vn 0.2518 0.0771 0.9647
vn 0.3585 0.1157 0.9263
vn 0.2105 0.0671 0.9753
vn -0.2094 -0.0455 0.9768
vn -0.4587 -0.1087 0.8819
vn -0.4770 -0.1397 0.8678
vn -0.4432 -0.2400 0.8637
vn -0.3989 -0.3257 0.8572
vn -0.3401 -0.2308 0.9116
vn 0.0350 0.1617 0.9862
vn 0.2396 0.0287 0.9704
vn -0.0465 0.2837 0.9578
vn 0.0777 0.2633 0.9616
vn 0.2709 0.1615 0.9490
vn 0.3940 0.0717 0.9163
vn 0.2905 0.0046 0.9569
vn 0.2100 0.0106 0.9776
vn 0.3274 0.1403 0.9344
vn 0.3286 0.1841 0.9264
vn 0.0836 0.0552 0.9950
vn -0.2884 -0.0839 0.9538
vn -0.4755 -0.0903 0.8751
vn -0.5300 -0.0882 0.8434
vn -0.5443 -0.1386 0.8274
vn -0.4356 -0.1958 0.8786
vn -0.2559 -0.2009 0.9456
vn 0.1819 0.0645 0.9812
vn 0.2872 0.0159 0.9577
vn 0.0413 0.2197 0.9747
vn 0.0297 0.2792 0.9598
vn 0.1543 0.2352 0.9596
vn 0.2828 0.1044 0.9535
vn 0.2604 -0.0216 0.9653
vn 0.3025 -0.0170 0.9530
vn 0.4087 0.0637 0.9105
vn 0.2788 0.1126 0.9537
vn -0.0706 -0.0226 0.9972
vn -0.3476 -0.1058 0.9317
vn -0.4704 -0.1052 0.8762
vn -0.5212 -0.0865 0.8490
vn -0.5328 -0.0642 0.8438
vn -0.4542 -0.0344 0.8902
vn -0.3111 -0.0987 0.9452
vt 0.015625 0.015625
vt 0.076172 0.015625
vt 0.076172 0.076172
vt 0.015625 0.076172
vt 0.136719 0.015625
vt 0.136719 0.076172
vt 0.197266 0.015625
vt 0.197266 0.076172
vt 0.257812 0.015625
vt 0.257812 0.076172
vt 0.318359 0.015625
vt 0.318359 0.076172
vt 0.378906 0.015625
vt 0.378906 0.076172
vt 0.439453 0.015625
vt 0.439453 0.076172
vt 0.500000 0.015625
vt 0.500000 0.076172
vt 0.560547 0.015625
vt 0.560547 0.076172
vt 0.621094 0.015625
vt 0.621094 0.076172
vt 0.681641 0.015625
vt 0.681641 0.076172
vt 0.742188 0.015625
vt 0.742188 0.076172
vt 0.802734 0.015625
vt 0.802734 0.076172
vt 0.863281 0.015625
vt 0.863281 0.076172
vt 0.923828 0.015625
vt 0.923828 0.076172
vt 0.984375 0.015625
vt 0.984375 0.076172
vt 0.076172 0.136719
vt 0.015625 0.136719
vt 0.136719 0.136719
vt 0.197266 0.136719
vt 0.257812 0.136719
vt 0.318359 0.136719
vt 0.378906 0.136719
vt 0.439453 0.136719
vt 0.500000 0.136719
vt 0.560547 0.136719
vt 0.621094 0.136719
vt 0.681641 0.136719
vt 0.742188 0.136719
vt 0.802734 0.136719
vt 0.863281 0.136719
vt 0.923828 0.136719
vt 0.984375 0.136719
vt 0.076172 0.197266
vt 0.015625 0.197266
vt 0.136719 0.197266
vt 0.197266 0.197266
vt 0.257812 0.197266
vt 0.318359 0.197266
vt 0.378906 0.197266
vt 0.439453 0.197266
vt 0.500000 0.197266
vt 0.560547 0.197266
vt 0.621094 0.197266
vt 0.681641 0.197266
vt 0.742188 0.197266
vt 0.802734 0.197266
vt 0.863281 0.197266
vt 0.923828 0.197266
vt 0.984375 0.197266
vt 0.076172 0.257812
vt 0.015625 0.257812
vt 0.136719 0.257812
vt 0.197266 0.257812
vt 0.257812 0.257812
vt 0.318359 0.257812
vt 0.378906 0.257812
vt 0.439453 0.257812
vt 0.500000 0.257812
vt 0.560547 0.257812
vt 0.621094 0.257812
vt 0.681641 0.257812
vt 0.742188 0.257812
vt 0.802734 0.257812
vt 0.863281 0.257812
vt 0.923828 0.257812
vt 0.984375 0.257812
vt 0.076172 0.318359
vt 0.015625 0.318359
vt 0.136719 0.318359
vt 0.197266 0.318359
vt 0.257812 0.318359
vt 0.318359 0.318359
vt 0.378906 0.318359
vt 0.439453 0.318359
vt 0.500000 0.318359
vt 0.560547 0.318359
vt 0.621094 0.318359
vt 0.681641 0.318359
vt 0.742188 0.318359
vt 0.802734 0.318359
vt 0.863281 0.318359
vt 0.923828 0.318359
vt 0.984375 0.318359
vt 0.076172 0.378906
vt 0.015625 0.378906
vt 0.136719 0.378906
vt 0.197266 0.378906
vt 0.257812 0.378906
vt 0.318359 0.378906
vt 0.378906 0.378906
vt 0.439453 0.378906
vt 0.500000 0.378906
vt 0.560547 0.378906
vt 0.621094 0.378906
vt 0.681641 0.378906
vt 0.742188 0.378906
vt 0.802734 0.378906
vt 0.863281 0.378906
vt 0.923828 0.378906
vt 0.984375 0.378906
vt 0.076172 0.439453
vt 0.015625 0.439453
vt 0.136719 0.439453
vt 0.197266 0.439453
vt 0.257812 0.439453
vt 0.318359 0.439453
vt 0.378906 0.439453
vt 0.439453 0.439453
vt 0.500000 0.439453
vt 0.560547 0.439453
vt 0.621094 0.439453
vt 0.681641 0.439453
vt 0.742188 0.439453
vt 0.802734 0.439453
vt 0.863281 0.439453
vt 0.923828 0.439453
vt 0.984375 0.439453
vt 0.076172 0.500000
vt 0.015625 0.500000
vt 0.136719 0.500000
vt 0.197266 0.500000
vt 0.257812 0.500000
vt 0.318359 0.500000
vt 0.378906 0.500000
vt 0.439453 0.500000
vt 0.500000 0.500000
vt 0.560547 0.500000
vt 0.621094 0.500000
vt 0.681641 0.500000
vt 0.742188 0.500000
vt 0.802734 0.500000
vt 0.863281 0.500000
vt 0.923828 0.500000
vt 0.984375 0.500000
vt 0.076172 0.560547
vt 0.015625 0.560547
vt 0.136719 0.560547
vt 0.197266 0.560547
vt 0.257812 0.560547
vt 0.318359 0.560547
vt 0.378906 0.560547
vt 0.439453 0.560547
vt 0.500000 0.560547
vt 0.560547 0.560547
vt 0.621094 0.560547
vt 0.681641 0.560547
vt 0.742188 0.560547
vt 0.802734 0.560547
vt 0.863281 0.560547
vt 0.923828 0.560547
vt 0.984375 0.560547
vt 0.076172 0.621094
vt 0.015625 0.621094
vt 0.136719 0.621094
vt 0.197266 0.621094
vt 0.257812 0.621094
vt 0.318359 0.621094
vt 0.378906 0.621094
vt 0.439453 0.621094
vt 0.500000 0.621094
vt 0.560547 0.621094
vt 0.621094 0.621094
vt 0.681641 0.621094
vt 0.742188 0.621094
vt 0.802734 0.621094
vt 0.863281 0.621094
vt 0.923828 0.621094
vt 0.984375 0.621094
vt 0.076172 0.681641
vt 0.015625 0.681641
vt 0.136719 0.681641
vt 0.197266 0.681641
vt 0.257812 0.681641
vt 0.318359 0.681641
vt 0.378906 0.681641
vt 0.439453 0.681641
vt 0.500000 0.681641
vt 0.560547 0.681641
vt 0.621094 0.681641
vt 0.681641 0.681641
vt 0.742188 0.681641
vt 0.802734 0.681641
vt 0.863281 0.681641
vt 0.923828 0.681641
vt 0.984375 0.681641
vt 0.076172 0.742188
vt 0.015625 0.742188
vt 0.136719 0.742188
vt 0.197266 0.742188
vt 0.257812 0.742188
vt 0.318359 0.742188
vt 0.378906 0.742188
vt 0.439453 0.742188
vt 0.500000 0.742188
vt 0.560547 0.742188
vt 0.621094 0.742188
vt 0.681641 0.742188
vt 0.742188 0.742188
vt 0.802734 0.742188
vt 0.863281 0.742188
vt 0.923828 0.742188
vt 0.984375 0.742188
vt 0.076172 0.802734
vt 0.015625 0.802734
vt 0.136719 0.802734
vt 0.197266 0.802734
vt 0.257812 0.802734
vt 0.318359 0.802734
vt 0.378906 0.802734
vt 0.439453 0.802734
vt 0.500000 0.802734
vt 0.560547 0.802734
vt 0.621094 0.802734
vt 0.681641 0.802734
vt 0.742188 0.802734
vt 0.802734 0.802734
vt 0.863281 0.802734
vt 0.923828 0.802734
vt 0.984375 0.802734
vt 0.076172 0.863281
vt 0.015625 0.863281
vt 0.136719 0.863281
vt 0.197266 0.863281
vt 0.257812 0.863281
vt 0.318359 0.863281
vt 0.378906 0.863281
vt 0.439453 0.863281
vt 0.500000 0.863281
vt 0.560547 0.863281
vt 0.621094 0.863281
vt 0.681641 0.863281
vt 0.742188 0.863281
vt 0.802734 0.863281
vt 0.863281 0.863281
vt 0.923828 0.863281
vt 0.984375 0.863281
vt 0.076172 0.923828
vt 0.015625 0.923828
vt 0.136719 0.923828
vt 0.197266 0.923828
vt 0.257812 0.923828
vt 0.318359 0.923828
vt 0.378906 0.923828
vt 0.439453 0.923828
vt 0.500000 0.923828
vt 0.560547 0.923828
vt 0.621094 0.923828
vt 0.681641 0.923828
vt 0.742188 0.923828
vt 0.802734 0.923828
vt 0.863281 0.923828
vt 0.923828 0.923828
vt 0.984375 0.923828
vt 0.076172 0.984375
vt 0.015625 0.984375
vt 0.136719 0.984375
vt 0.197266 0.984375
vt 0.257812 0.984375
vt 0.318359 0.984375
vt 0.378906 0.984375
vt 0.439453 0.984375
vt 0.500000 0.984375
vt 0.560547 0.984375
vt 0.621094 0.984375
vt 0.681641 0.984375
vt 0.742188 0.984375
vt 0.802734 0.984375
vt 0.863281 0.984375
vt 0.923828 0.984375
vt 0.984375 0.984375
s 1
f 1/1/1 2/2/2 19/3/3
f 1/1/1 19/3/3 18/4/4
f 2/2/2 3/5/5 20/6/6
f 2/2/2 20/6/6 19/3/3
f 3/5/5 4/7/7 21/8/8
f 3/5/5 21/8/8 20/6/6
f 4/7/7 5/9/9 22/10/10
f 4/7/7 22/10/10 21/8/8
f 5/9/9 6/11/11 23/12/12
f 5/9/9 23/12/12 22/10/10
f 6/11/11 7/13/13 24/14/14
f 6/11/11 24/14/14 23/12/12
f 7/13/13 8/15/15 25/16/16
f 7/13/13 25/16/16 24/14/14
f 8/15/15 9/17/17 26/18/18
f 8/15/15 26/18/18 25/16/16
f 9/17/17 10/19/19 27/20/20
f 9/17/17 27/20/20 26/18/18
f 10/19/19 11/21/21 28/22/22
f 10/19/19 28/22/22 27/20/20
f 11/21/21 12/23/23 29/24/24
f 11/21/21 29/24/24 28/22/22
f 12/23/23 13/25/25 30/26/26
f 12/23/23 30/26/26 29/24/24
f 13/25/25 14/27/27 31/28/28
f 13/25/25 31/28/28 30/26/26
f 14/27/27 15/29/29 32/30/30
f 14/27/27 32/30/30 31/28/28
f 15/29/29 16/31/31 33/32/32
f 15/29/29 33/32/32 32/30/30
f 16/31/31 17/33/33 34/34/34
f 16/31/31 34/34/34 33/32/32
f 18/4/4 19/3/3 36/35/35
f 18/4/4 36/35/35 35/36/36
f 19/3/3 20/6/6 37/37/37
f 19/3/3 37/37/37 36/35/35
f 20/6/6 21/8/8 38/38/38
f 20/6/6 38/38/38 37/37/37
f 21/8/8 22/10/10 39/39/39
f 21/8/8 39/39/39 38/38/38
f 22/10/10 23/12/12 40/40/40
f 22/10/10 40/40/40 39/39/39
f 23/12/12 24/14/14 41/41/41
f 23/12/12 41/41/41 40/40/40
f 24/14/14 25/16/16 42/42/42
f 24/14/14 42/42/42 41/41/41
f 25/16/16 26/18/18 43/43/43
f 25/16/16 43/43/43 42/42/42
f 26/18/18 27/20/20 44/44/44
f 26/18/18 44/44/44 43/43/43
f 27/20/20 28/22/22 45/45/45
f 27/20/20 45/45/45 44/44/44
f 28/22/22 29/24/24 46/46/46
f 28/22/22 46/46/46 45/45/45
f 29/24/24 30/26/26 47/47/47
f 29/24/24 47/47/47 46/46/46
f 30/26/26 31/28/28 48/48/48
f 30/26/26 48/48/48 47/47/47
f 31/28/28 32/30/30 49/49/49
f 31/28/28 49/49/49 48/48/48
f 32/30/30 33/32/32 50/50/50
f 32/30/30 50/50/50 49/49/49
f 33/32/32 34/34/34 51/51/51
f 33/32/32 51/51/51 50/50/50
f 35/36/36 36/35/35 53/52/52
f 35/36/36 53/52/52 52/53/53
f 36/35/35 37/37/37 54/54/54
f 36/35/35 54/54/54 53/52/52
f 37/37/37 38/38/38 55/55/55
f 37/37/37 55/55/55 54/54/54
f 38/38/38 39/39/39 56/56/56
f 38/38/38 56/56/56 55/55/55
f 39/39/39 40/40/40 57/57/57
f 39/39/39 57/57/57 56/56/56
f 40/40/40 41/41/41 58/58/58
f 40/40/40 58/58/58 57/57/57
f 41/41/41 42/42/42 59/59/59
f 41/41/41 59/59/59 58/58/58
f 42/42/42 43/43/43 60/60/60
f 42/42/42 60/60/60 59/59/59
f 43/43/43 44/44/44 61/61/61
f 43/43/43 61/61/61 60/60/60
f 44/44/44 45/45/45 62/62/62
f 44/44/44 62/62/62 61/61/61
f 45/45/45 46/46/46 63/63/63
f 45/45/45 63/63/63 62/62/62
f 46/46/46 47/47/47 64/64/64
f 46/46/46 64/64/64 63/63/63
f 47/47/47 48/48/48 65/65/65
f 47/47/47 65/65/65 64/64/64
f 48/48/48 49/49/49 66/66/66
f 48/48/48 66/66/66 65/65/65
f 49/49/49 50/50/50 67/67/67
f 49/49/49 67/67/67 66/66/66
f 50/50/50 51/51/51 68/68/68
f 50/50/50 68/68/68 67/67/67
f 52/53/53 53/52/52 70/69/69
f 52/53/53 70/69/69 69/70/70
f 53/52/52 54/54/54 71/71/71
f 53/52/52 71/71/71 70/69/69
f 54/54/54 55/55/55 72/72/72
f 54/54/54 72/72/72 71/71/71
f 55/55/55 56/56/56 73/73/73
f 55/55/55 73/73/73 72/72/72
f 56/56/56 57/57/57 74/74/74
f 56/56/56 74/74/74 73/73/73
f 57/57/57 58/58/58 75/75/75
f 57/57/57 75/75/75 74/74/74
f 58/58/58 59/59/59 76/76/76
f 58/58/58 76/76/76 75/75/75
f 59/59/59 60/60/60 77/77/77
f 59/59/59 77/77/77 76/76/76
f 60/60/60 61/61/61 78/78/78
f 60/60/60 78/78/78 77/77/77
f 61/61/61 62/62/62 79/79/79
f 61/61/61 79/79/79 78/78/78
f 62/62/62 63/63/63 80/80/80
f 62/62/62 80/80/80 79/79/79
f 63/63/63 64/64/64 81/81/81
f 63/63/63 81/81/81 80/80/80
f 64/64/64 65/65/65 82/82/82
f 64/64/64 82/82/82 81/81/81
f 65/65/65 66/66/66 83/83/83
f 65/65/65 83/83/83 82/82/82
f 66/66/66 67/67/67 84/84/84
f 66/66/66 84/84/84 83/83/83
f 67/67/67 68/68/68 85/85/85
f 67/67/67 85/85/85 84/84/84
f 69/70/70 70/69/69 87/86/86
f 69/70/70 87/86/86 86/87/87
f 70/69/69 71/71/71 88/88/88
f 70/69/69 88/88/88 87/86/86
f 71/71/71 72/72/72 89/89/89
f 71/71/71 89/89/89 88/88/88
f 72/72/72 73/73/73 90/90/90
f 72/72/72 90/90/90 89/89/89
f 73/73/73 74/74/74 91/91/91
f 73/73/73 91/91/91 90/90/90
f 74/74/74 75/75/75 92/92/92
f 74/74/74 92/92/92 91/91/91
f 75/75/75 76/76/76 93/93/93
f 75/75/75 93/93/93 92/92/92
f 76/76/76 77/77/77 94/94/94
f 76/76/76 94/94/94 93/93/93
f 77/77/77 78/78/78 95/95/95
f 77/77/77 95/95/95 94/94/94
f 78/78/78 79/79/79 96/96/96
f 78/78/78 96/96/96 95/95/95
f 79/79/79 80/80/80 97/97/97
f 79/79/79 97/97/97 96/96/96
f 80/80/80 81/81/81 98/98/98
f 80/80/80 98/98/98 97/97/97
f 81/81/81 82/82/82 99/99/99
f 81/81/81 99/99/99 98/98/98
f 82/82/82 83/83/83 100/100/100
f 82/82/82 100/100/100 99/99/99
f 83/83/83 84/84/84 101/101/101
f 83/83/83 101/101/101 100/100/100
f 84/84/84 85/85/85 102/102/102
f 84/84/84 102/102/102 101/101/101
f 86/87/87 87/86/86 104/103/103
f 86/87/87 104/103/103 103/104/104
f 87/86/86 88/88/88 105/105/105
f 87/86/86 105/105/105 104/103/103
f 88/88/88 89/89/89 106/106/106
f 88/88/88 106/106/106 105/105/105
f 89/89/89 90/90/90 107/107/107
f 89/89/89 107/107/107 106/106/106
f 90/90/90 91/91/91 108/108/108
f 90/90/90 108/108/108 107/107/107
f 91/91/91 92/92/92 109/109/109
f 91/91/91 109/109/109 108/108/108
f 92/92/92 93/93/93 110/110/110
f 92/92/92 110/110/110 109/109/109
f 93/93/93 94/94/94 111/111/111
f 93/93/93 111/111/111 110/110/110
f 94/94/94 95/95/95 112/112/112
f 94/94/94 112/112/112 111/111/111
f 95/95/95 96/96/96 113/113/113
f 95/95/95 113/113/113 112/112/112
f 96/96/96 97/97/97 114/114/114
f 96/96/96 114/114/114 113/113/113
f 97/97/97 98/98/98 115/115/115
f 97/97/97 115/115/115 114/114/114
f 98/98/98 99/99/99 116/116/116
f 98/98/98 116/116/116 115/115/115
f 99/99/99 100/100/100 117/117/117
f 99/99/99 117/117/117 116/116/116
f 100/100/100 101/101/101 118/118/118
f 100/100/100 118/118/118 117/117/117
f 101/101/101 102/102/102 119/119/119
f 101/101/101 119/119/119 118/118/118
f 103/104/104 104/103/103 121/120/120
f 103/104/104 121/120/120 120/121/121
f 104/103/103 105/105/105 122/122/122
f 104/103/103 122/122/122 121/120/120
f 105/105/105 106/106/106 123/123/123
f 105/105/105 123/123/123 122/122/122
f 106/106/106 107/107/107 124/124/124
f 106/106/106 124/124/124 123/123/123
f 107/107/107 108/108/108 125/125/125
f 107/107/107 125/125/125 124/124/124
f 108/108/108 109/109/109 126/126/126
f 108/108/108 126/126/126 125/125/125
f 109/109/109 110/110/110 127/127/127
f 109/109/109 127/127/127 126/126/126
f 110/110/110 111/111/111 128/128/128
f 110/110/110 128/128/128 127/127/127
f 111/111/111 112/112/112 129/129/129
f 111/111/111 129/129/129 128/128/128
f 112/112/112 113/113/113 130/130/130
f 112/112/112 130/130/130 129/129/129
f 113/113/113 114/114/114 131/131/131
f 113/113/113 131/131/131 130/130/130
f 114/114/114 115/115/115 132/132/132
f 114/114/114 132/132/132 131/131/131
f 115/115/115 116/116/116 133/133/133
f 115/115/115 133/133/133 132/132/132
f 116/116/116 117/117/117 134/134/134
f 116/116/116 134/134/134 133/133/133
f 117/117/117 118/118/118 135/135/135
f 117/117/117 135/135/135 134/134/134
f 118/118/118 119/119/119 136/136/136
f 118/118/118 136/136/136 135/135/135
f 120/121/121 121/120/120 138/137/137
f 120/121/121 138/137/137 137/138/138
f 121/120/120 122/122/122 139/139/139
f 121/120/120 139/139/139 138/137/137
f 122/122/122 123/123/123 140/140/140
f 122/122/122 140/140/140 139/139/139
f 123/123/123 124/124/124 141/141/141
f 123/123/123 141/141/141 140/140/140
f 124/124/124 125/125/125 142/142/142
f 124/124/124 142/142/142 141/141/141
f 125/125/125 126/126/126 143/143/143
f 125/125/125 143/143/143 142/142/142
f 126/126/126 127/127/127 144/144/144
f 126/126/126 144/144/144 143/143/143
f 127/127/127 128/128/128 145/145/145
f 127/127/127 145/145/145 144/144/144
f 128/128/128 129/129/129 146/146/146
f 128/128/128 146/146/146 145/145/145
f 129/129/129 130/130/130 147/147/147
f 129/129/129 147/147/147 146/146/146
f 130/130/130 131/131/131 148/148/148
f 130/130/130 148/148/148 147/147/147
f 131/131/131 132/132/132 149/149/149
f 131/131/131 149/149/149 148/148/148
f 132/132/132 133/133/133 150/150/150
f 132/132/132 150/150/150 149/149/149
f 133/133/133 134/134/134 151/151/151
f 133/133/133 151/151/151 150/150/150
f 134/134/134 135/135/135 152/152/152
f 134/134/134 152/152/152 151/151/151
f 135/135/135 136/136/136 153/153/153
f 135/135/135 153/153/153 152/152/152
f 137/138/138 138/137/137 155/154/154
f 137/138/138 155/154/154 154/155/155
f 138/137/137 139/139/139 156/156/156
f 138/137/137 156/156/156 155/154/154
f 139/139/139 140/140/140 157/157/157
f 139/139/139 157/157/157 156/156/156
f 140/140/140 141/141/141 158/158/158
f 140/140/140 158/158/158 157/157/157
f 141/141/141 142/142/142 159/159/159
f 141/141/141 159/159/159 158/158/158
f 142/142/142 143/143/143 160/160/160
f 142/142/142 160/160/160 159/159/159
f 143/143/143 144/144/144 161/161/161
f 143/143/143 161/161/161 160/160/160
f 144/144/144 145/145/145 162/162/162
f 144/144/144 162/162/162 161/161/161
f 145/145/145 146/146/146 163/163/163
f 145/145/145 163/163/163 162/162/162
f 146/146/146 147/147/147 164/164/164
f 146/146/146 164/164/164 163/163/163
f 147/147/147 148/148/148 165/165/165
f 147/147/147 165/165/165 164/164/164
f 148/148/148 149/149/149 166/166/166
f 148/148/148 166/166/166 165/165/165
f 149/149/149 150/150/150 167/167/167
f 149/149/149 167/167/167 166/166/166
f 150/150/150 151/151/151 168/168/168
f 150/150/150 168/168/168 167/167/167
f 151/151/151 152/152/152 169/169/169
f 151/151/151 169/169/169 168/168/168
f 152/152/152 153/153/153 170/170/170
f 152/152/152 170/170/170 169/169/169
f 154/155/155 155/154/154 172/171/171
f 154/155/155 172/171/171 171/172/172
f 155/154/154 156/156/156 173/173/173
f 155/154/154 173/173/173 172/171/171
f 156/156/156 157/157/157 174/174/174
f 156/156/156 174/174/174 173/173/173
f 157/157/157 158/158/158 175/175/175
f 157/157/157 175/175/175 174/174/174
f 158/158/158 159/159/159 176/176/176
f 158/158/158 176/176/176 175/175/175
f 159/159/159 160/160/160 177/177/177
f 159/159/159 177/177/177 176/176/176
f 160/160/160 161/161/161 178/178/178
f 160/160/160 178/178/178 177/177/177
f 161/161/161 162/162/162 179/179/179
f 161/161/161 179/179/179 178/178/178
f 162/162/162 163/163/163 180/180/180
f 162/162/162 180/180/180 179/179/179
f 163/163/163 164/164/164 181/181/181
f 163/163/163 181/181/181 180/180/180
f 164/164/164 165/165/165 182/182/182
f 164/164/164 182/182/182 181/181/181
f 165/165/165 166/166/166 183/183/183
f 165/165/165 183/183/183 182/182/182
f 166/166/166 167/167/167 184/184/184
f 166/166/166 184/184/184 183/183/183
f 167/167/167 168/168/168 185/185/185
f 167/167/167 185/185/185 184/184/184
f 168/168/168 169/169/169 186/186/186
f 168/168/168 186/186/186 185/185/185
f 169/169/169 170/170/170 187/187/187
f 169/169/169 187/187/187 186/186/186
f 171/172/172 172/171/171 189/188/188
f 171/172/172 189/188/188 188/189/189
f 172/171/171 173/173/173 190/190/190
f 172/171/171 190/190/190 189/188/188
f 173/173/173 174/174/174 191/191/191
f 173/173/173 191/191/191 190/190/190
f 174/174/174 175/175/175 192/192/192
f 174/174/174 192/192/192 191/191/191
f 175/175/175 176/176/176 193/193/193
f 175/175/175 193/193/193 192/192/192
f 176/176/176 177/177/177 194/194/194
f 176/176/176 194/194/194 193/193/193
f 177/177/177 178/178/178 195/195/195
f 177/177/177 195/195/195 194/194/194
f 178/178/178 179/179/179 196/196/196
f 178/178/178 196/196/196 195/195/195
f 179/179/179 180/180/180 197/197/197
f 179/179/179 197/197/197 196/196/196
f 180/180/180 181/181/181 198/198/198
f 180/180/180 198/198/198 197/197/197
f 181/181/181 182/182/182 199/199/199
f 181/181/181 199/199/199 198/198/198
f 182/182/182 183/183/183 200/200/200
f 182/182/182 200/200/200 199/199/199
f 183/183/183 184/184/184 201/201/201
f 183/183/183 201/201/201 200/200/200
f 184/184/184 185/185/185 202/202/202
f 184/184/184 202/202/202 201/201/201
f 185/185/185 186/186/186 203/203/203
f 185/185/185 203/203/203 202/202/202
f 186/186/186 187/187/187 204/204/204
f 186/186/186 204/204/204 203/203/203
f 188/189/189 189/188/188 206/205/205
f 188/189/189 206/205/205 205/206/206
f 189/188/188 190/190/190 207/207/207
f 189/188/188 207/207/207 206/205/205
f 190/190/190 191/191/191 208/208/208
f 190/190/190 208/208/208 207/207/207
f 191/191/191 192/192/192 209/209/209
f 191/191/191 209/209/209 208/208/208
f 192/192/192 193/193/193 210/210/210
f 192/192/192 210/210/210 209/209/209
f 193/193/193 194/194/194 211/211/211
f 193/193/193 211/211/211 210/210/210
f 194/194/194 195/195/195 212/212/212
f 194/194/194 212/212/212 211/211/211
f 195/195/195 196/196/196 213/213/213
f 195/195/195 213/213/213 212/212/212
f 196/196/196 197/197/197 214/214/214
f 196/196/196 214/214/214 213/213/213
f 197/197/197 198/198/198 215/215/215
f 197/197/197 215/215/215 214/214/214
f 198/198/198 199/199/199 216/216/216
f 198/198/198 216/216/216 215/215/215
f 199/199/199 200/200/200 217/217/217
f 199/199/199 217/217/217 216/216/216
f 200/200/200 201/201/201 218/218/218
f 200/200/200 218/218/218 217/217/217
f 201/201/201 202/202/202 219/219/219
f 201/201/201 219/219/219 218/218/218
f 202/202/202 203/203/203 220/220/220
f 202/202/202 220/220/220 219/219/219
f 203/203/203 204/204/204 221/221/221
f 203/203/203 221/221/221 220/220/220
f 205/206/206 206/205/205 223/222/222
f 205/206/206 223/222/222 222/223/223
f 206/205/205 207/207/207 224/224/224
f 206/205/205 224/224/224 223/222/222
f 207/207/207 208/208/208 225/225/225
f 207/207/207 225/225/225 224/224/224
f 208/208/208 209/209/209 226/226/226
f 208/208/208 226/226/226 225/225/225
f 209/209/209 210/210/210 227/227/227
f 209/209/209 227/227/227 226/226/226
f 210/210/210 211/211/211 228/228/228
f 210/210/210 228/228/228 227/227/227
f 211/211/211 212/212/212 229/229/229
f 211/211/211 229/229/229 228/228/228
f 212/212/212 213/213/213 230/230/230
f 212/212/212 230/230/230 229/229/229
f 213/213/213 214/214/214 231/231/231
f 213/213/213 231/231/231 230/230/230
f 214/214/214 215/215/215 232/232/232
f 214/214/214 232/232/232 231/231/231
f 215/215/215 216/216/216 233/233/233
f 215/215/215 233/233/233 232/232/232
f 216/216/216 217/217/217 234/234/234
f 216/216/216 234/234/234 233/233/233
f 217/217/217 218/218/218 235/235/235
f 217/217/217 235/235/235 234/234/234
f 218/218/218 219/219/219 236/236/236
f 218/218/218 236/236/236 235/235/235
f 219/219/219 220/220/220 237/237/237
f 219/219/219 237/237/237 236/236/236
f 220/220/220 221/221/221 238/238/238
f 220/220/220 238/238/238 237/237/237
f 222/223/223 223/222/222 240/239/239
f 222/223/223 240/239/239 239/240/240
f 223/222/222 224/224/224 241/241/241
f 223/222/222 241/241/241 240/239/239
f 224/224/224 225/225/225 242/242/242
f 224/224/224 242/242/242 241/241/241
f 225/225/225 226/226/226 243/243/243
f 225/225/225 243/243/243 242/242/242
f 226/226/226 227/227/227 244/244/244
f 226/226/226 244/244/244 243/243/243
f 227/227/227 228/228/228 245/245/245
f 227/227/227 245/245/245 244/244/244
f 228/228/228 229/229/229 246/246/246
f 228/228/228 246/246/246 245/245/245
f 229/229/229 230/230/230 247/247/247
f 229/229/229 247/247/247 246/246/246
f 230/230/230 231/231/231 248/248/248
f 230/230/230 248/248/248 247/247/247
f 231/231/231 232/232/232 249/249/249
f 231/231/231 249/249/249 248/248/248
f 232/232/232 233/233/233 250/250/250
f 232/232/232 250/250/250 249/249/249
f 233/233/233 234/234/234 251/251/251
f 233/233/233 251/251/251 250/250/250
f 234/234/234 235/235/235 252/252/252
f 234/234/234 252/252/252 251/251/251
f 235/235/235 236/236/236 253/253/253
f 235/235/235 253/253/253 252/252/252
f 236/236/236 237/237/237 254/254/254
f 236/236/236 254/254/254 253/253/253
f 237/237/237 238/238/238 255/255/255
f 237/237/237 255/255/255 254/254/254
f 239/240/240 240/239/239 257/256/256
f 239/240/240 257/256/256 256/257/257
f 240/239/239 241/241/241 258/258/258
f 240/239/239 258/258/258 257/256/256
f 241/241/241 242/242/242 259/259/259
f 241/241/241 259/259/259 258/258/258
f 242/242/242 243/243/243 260/260/260
f 242/242/242 260/260/260 259/259/259
f 243/243/243 244/244/244 261/261/261
f 243/243/243 261/261/261 260/260/260
f 244/244/244 245/245/245 262/262/262
f 244/244/244 262/262/262 261/261/261
f 245/245/245 246/246/246 263/263/263
f 245/245/245 263/263/263 262/262/262
f 246/246/246 247/247/247 264/264/264
f 246/246/246 264/264/264 263/263/263
f 247/247/247 248/248/248 265/265/265
f 247/247/247 265/265/265 264/264/264
f 248/248/248 249/249/249 266/266/266
f 248/248/248 266/266/266 265/265/265
f 249/249/249 250/250/250 267/267/267
f 249/249/249 267/267/267 266/266/266
f 250/250/250 251/251/251 268/268/268
f 250/250/250 268/268/268 267/267/267
f 251/251/251 252/252/252 269/269/269
f 251/251/251 269/269/269 268/268/268
f 252/252/252 253/253/253 270/270/270
f 252/252/252 270/270/270 269/269/269
f 253/253/253 254/254/254 271/271/271
f 253/253/253 271/271/271 270/270/270
f 254/254/254 255/255/255 272/272/272
f 254/254/254 272/272/272 271/271/271
f 256/257/257 257/256/256 274/273/273
f 256/257/257 274/273/273 273/274/274
f 257/256/256 258/258/258 275/275/275
f 257/256/256 275/275/275 274/273/273
f 258/258/258 259/259/259 276/276/276
f 258/258/258 276/276/276 275/275/275
f 259/259/259 260/260/260 277/277/277
f 259/259/259 277/277/277 276/276/276
f 260/260/260 261/261/261 278/278/278
f 260/260/260 278/278/278 277/277/277
f 261/261/261 262/262/262 279/279/279
f 261/261/261 279/279/279 278/278/278
f 262/262/262 263/263/263 280/280/280
f 262/262/262 280/280/280 279/279/279
f 263/263/263 264/264/264 281/281/281
f 263/263/263 281/281/281 280/280/280
f 264/264/264 265/265/265 282/282/282
f 264/264/264 282/282/282 281/281/281
f 265/265/265 266/266/266 283/283/283
f 265/265/265 283/283/283 282/282/282
f 266/266/266 267/267/267 284/284/284
f 266/266/266 284/284/284 283/283/283
f 267/267/267 268/268/268 285/285/285
f 267/267/267 285/285/285 284/284/284
f 268/268/268 269/269/269 286/286/286
f 268/268/268 286/286/286 285/285/285
f 269/269/269 270/270/270 287/287/287
f 269/269/269 287/287/287 286/286/286
f 270/270/270 271/271/271 288/288/288
f 270/270/270 288/288/288 287/287/287
f 271/271/271 272/272/272 289/289/289
f 271/271/271 289/289/289 288/288/288
