mtllib terrain_far_01_05.mtl
usemtl terrain_far_01_05
# Blender 5.1.1
# www.blender.org
o terrain_far_01_05
v -320.000000 -320.000000 102.194038
v -280.000000 -320.000000 93.168350
v -240.000000 -320.000000 86.686646
v -200.000000 -320.000000 82.172958
v -160.000000 -320.000000 76.299454
v -120.000000 -320.000000 66.981659
v -80.000000 -320.000000 54.899139
v -40.000000 -320.000000 41.377945
v 0.000000 -320.000000 29.190226
v 40.000000 -320.000000 17.028463
v 80.000000 -320.000000 4.606975
v 120.000000 -320.000000 -6.279964
v 160.000000 -320.000000 -19.661184
v 200.000000 -320.000000 -37.906544
v 240.000000 -320.000000 -55.080544
v 280.000000 -320.000000 -68.440239
v 320.000000 -320.000000 -73.910362
v -320.000000 -280.000000 96.165344
v -280.000000 -280.000000 86.017685
v -240.000000 -280.000000 77.237160
v -200.000000 -280.000000 73.088043
v -160.000000 -280.000000 69.516747
v -120.000000 -280.000000 60.755276
v -80.000000 -280.000000 49.626686
v -40.000000 -280.000000 37.946522
v 0.000000 -280.000000 27.630049
v 40.000000 -280.000000 15.831811
v 80.000000 -280.000000 1.572683
v 120.000000 -280.000000 -12.507483
v 160.000000 -280.000000 -27.392477
v 200.000000 -280.000000 -44.563824
v 240.000000 -280.000000 -57.926102
v 280.000000 -280.000000 -68.636864
v 320.000000 -280.000000 -78.850479
v -320.000000 -240.000000 94.102188
v -280.000000 -240.000000 84.581238
v -240.000000 -240.000000 72.791260
v -200.000000 -240.000000 63.616093
v -160.000000 -240.000000 60.422565
v -120.000000 -240.000000 54.851955
v -80.000000 -240.000000 44.537136
v -40.000000 -240.000000 33.691929
v 0.000000 -240.000000 24.309109
v 40.000000 -240.000000 11.748637
v 80.000000 -240.000000 -2.502743
v 120.000000 -240.000000 -17.981956
v 160.000000 -240.000000 -34.653191
v 200.000000 -240.000000 -51.677647
v 240.000000 -240.000000 -63.187843
v 280.000000 -240.000000 -69.660751
v 320.000000 -240.000000 -76.998627
v -320.000000 -200.000000 89.813484
v -280.000000 -200.000000 80.514732
v -240.000000 -200.000000 68.541008
v -200.000000 -200.000000 54.738239
v -160.000000 -200.000000 49.037941
v -120.000000 -200.000000 50.913979
v -80.000000 -200.000000 44.598324
v -40.000000 -200.000000 33.846947
v 0.000000 -200.000000 20.946615
v 40.000000 -200.000000 6.470412
v 80.000000 -200.000000 -8.978956
v 120.000000 -200.000000 -24.739414
v 160.000000 -200.000000 -40.638695
v 200.000000 -200.000000 -55.941132
v 240.000000 -200.000000 -65.930984
v 280.000000 -200.000000 -71.422066
v 320.000000 -200.000000 -77.367882
v -320.000000 -160.000000 77.656799
v -280.000000 -160.000000 66.921837
v -240.000000 -160.000000 54.676846
v -200.000000 -160.000000 39.407410
v -160.000000 -160.000000 34.668137
v -120.000000 -160.000000 43.151615
v -80.000000 -160.000000 41.964130
v -40.000000 -160.000000 32.938145
v 0.000000 -160.000000 19.239664
v 40.000000 -160.000000 3.677714
v 80.000000 -160.000000 -14.201704
v 120.000000 -160.000000 -31.159525
v 160.000000 -160.000000 -45.851723
v 200.000000 -160.000000 -58.252785
v 240.000000 -160.000000 -66.222977
v 280.000000 -160.000000 -72.024902
v 320.000000 -160.000000 -79.840088
v -320.000000 -120.000000 63.326130
v -280.000000 -120.000000 52.441322
v -240.000000 -120.000000 40.832603
v -200.000000 -120.000000 26.020901
v -160.000000 -120.000000 19.808817
v -120.000000 -120.000000 27.633345
v -80.000000 -120.000000 27.015316
v -40.000000 -120.000000 21.103319
v 0.000000 -120.000000 10.120101
v 40.000000 -120.000000 -2.682556
v 80.000000 -120.000000 -20.520748
v 120.000000 -120.000000 -38.270493
v 160.000000 -120.000000 -49.598644
v 200.000000 -120.000000 -57.065060
v 240.000000 -120.000000 -63.953091
v 280.000000 -120.000000 -70.488220
v 320.000000 -120.000000 -78.042908
v -320.000000 -80.000000 48.151962
v -280.000000 -80.000000 38.394627
v -240.000000 -80.000000 28.250963
v -200.000000 -80.000000 15.784689
v -160.000000 -80.000000 6.914151
v -120.000000 -80.000000 8.233812
v -80.000000 -80.000000 4.841597
v -40.000000 -80.000000 -1.853882
v 0.000000 -80.000000 -11.356248
v 40.000000 -80.000000 -19.940622
v 80.000000 -80.000000 -32.004295
v 120.000000 -80.000000 -49.786057
v 160.000000 -80.000000 -61.666668
v 200.000000 -80.000000 -63.880253
v 240.000000 -80.000000 -69.559746
v 280.000000 -80.000000 -76.977226
v 320.000000 -80.000000 -85.396957
v -320.000000 -40.000000 34.325352
v -280.000000 -40.000000 23.539341
v -240.000000 -40.000000 14.249679
v -200.000000 -40.000000 4.559435
v -160.000000 -40.000000 -3.176537
v -120.000000 -40.000000 -7.667321
v -80.000000 -40.000000 -15.963796
v -40.000000 -40.000000 -22.442745
v 0.000000 -40.000000 -28.286007
v 40.000000 -40.000000 -39.323212
v 80.000000 -40.000000 -51.993835
v 120.000000 -40.000000 -64.160286
v 160.000000 -40.000000 -74.444397
v 200.000000 -40.000000 -80.880867
v 240.000000 -40.000000 -85.569061
v 280.000000 -40.000000 -88.505730
v 320.000000 -40.000000 -93.719498
v -320.000000 0.000000 21.347578
v -280.000000 0.000000 9.944061
v -240.000000 0.000000 1.800005
v -200.000000 0.000000 -4.683021
v -160.000000 0.000000 -9.538743
v -120.000000 0.000000 -14.549340
v -80.000000 0.000000 -20.188272
v -40.000000 0.000000 -22.805809
v 0.000000 0.000000 -25.977034
v 40.000000 0.000000 -38.566616
v 80.000000 0.000000 -52.657452
v 120.000000 0.000000 -61.779247
v 160.000000 0.000000 -65.324875
v 200.000000 0.000000 -70.525917
v 240.000000 0.000000 -76.082924
v 280.000000 0.000000 -82.825073
v 320.000000 0.000000 -86.221298
v -320.000000 40.000000 8.582849
v -280.000000 40.000000 1.706699
v -240.000000 40.000000 -2.924459
v -200.000000 40.000000 -6.389740
v -160.000000 40.000000 -7.863274
v -120.000000 40.000000 -7.537519
v -80.000000 40.000000 -8.434736
v -40.000000 40.000000 -12.788692
v 0.000000 40.000000 -15.982486
v 40.000000 40.000000 -22.357950
v 80.000000 40.000000 -34.471859
v 120.000000 40.000000 -42.263680
v 160.000000 40.000000 -44.215221
v 200.000000 40.000000 -47.262970
v 240.000000 40.000000 -52.539597
v 280.000000 40.000000 -65.728462
v 320.000000 40.000000 -69.738045
v -320.000000 80.000000 2.768440
v -280.000000 80.000000 3.522983
v -240.000000 80.000000 3.677931
v -200.000000 80.000000 3.709392
v -160.000000 80.000000 4.382172
v -120.000000 80.000000 6.987166
v -80.000000 80.000000 7.049598
v -40.000000 80.000000 2.270274
v 0.000000 80.000000 -0.610758
v 40.000000 80.000000 -4.391130
v 80.000000 80.000000 -11.322977
v 120.000000 80.000000 -17.813229
v 160.000000 80.000000 -23.494368
v 200.000000 80.000000 -27.736212
v 240.000000 80.000000 -31.837486
v 280.000000 80.000000 -40.285992
v 320.000000 80.000000 -50.106487
v -320.000000 120.000000 9.988658
v -280.000000 120.000000 16.038599
v -240.000000 120.000000 19.951403
v -200.000000 120.000000 20.868303
v -160.000000 120.000000 19.339813
v -120.000000 120.000000 18.213373
v -80.000000 120.000000 16.646738
v -40.000000 120.000000 14.462097
v 0.000000 120.000000 12.428467
v 40.000000 120.000000 9.522844
v 80.000000 120.000000 4.511458
v 120.000000 120.000000 -1.727240
v 160.000000 120.000000 -8.169189
v 200.000000 120.000000 -12.765652
v 240.000000 120.000000 -17.893442
v 280.000000 120.000000 -25.157766
v 320.000000 120.000000 -35.979836
v -320.000000 160.000000 21.877052
v -280.000000 160.000000 30.132090
v -240.000000 160.000000 33.437656
v -200.000000 160.000000 31.385145
v -160.000000 160.000000 27.386234
v -120.000000 160.000000 23.539698
v -80.000000 160.000000 20.922411
v -40.000000 160.000000 18.590956
v 0.000000 160.000000 16.264963
v 40.000000 160.000000 14.157932
v 80.000000 160.000000 10.884658
v 120.000000 160.000000 5.609559
v 160.000000 160.000000 -0.876098
v 200.000000 160.000000 -5.721337
v 240.000000 160.000000 -10.984676
v 280.000000 160.000000 -17.408739
v 320.000000 160.000000 -27.542315
v -320.000000 200.000000 33.485123
v -280.000000 200.000000 42.203739
v -240.000000 200.000000 41.957111
v -200.000000 200.000000 36.711342
v -160.000000 200.000000 31.535414
v -120.000000 200.000000 27.339993
v -80.000000 200.000000 23.800344
v -40.000000 200.000000 19.458809
v 0.000000 200.000000 15.201756
v 40.000000 200.000000 12.958635
v 80.000000 200.000000 11.412096
v 120.000000 200.000000 6.532091
v 160.000000 200.000000 0.302267
v 200.000000 200.000000 -4.591278
v 240.000000 200.000000 -10.039737
v 280.000000 200.000000 -17.057953
v 320.000000 200.000000 -26.932352
v -320.000000 240.000000 42.909966
v -280.000000 240.000000 49.162430
v -240.000000 240.000000 46.030945
v -200.000000 240.000000 39.674240
v -160.000000 240.000000 33.711384
v -120.000000 240.000000 28.802711
v -80.000000 240.000000 22.829428
v -40.000000 240.000000 16.138605
v 0.000000 240.000000 10.663903
v 40.000000 240.000000 7.677253
v 80.000000 240.000000 6.051616
v 120.000000 240.000000 2.803942
v 160.000000 240.000000 -0.956366
v 200.000000 240.000000 -5.729133
v 240.000000 240.000000 -12.222602
v 280.000000 240.000000 -20.189322
v 320.000000 240.000000 -29.297827
v -320.000000 280.000000 54.185558
v -280.000000 280.000000 55.062733
v -240.000000 280.000000 49.354843
v -200.000000 280.000000 43.390095
v -160.000000 280.000000 36.487240
v -120.000000 280.000000 28.441938
v -80.000000 280.000000 19.422346
v -40.000000 280.000000 10.250431
v 0.000000 280.000000 3.080679
v 40.000000 280.000000 -0.407243
v 80.000000 280.000000 -2.065223
v 120.000000 280.000000 -2.565667
v 160.000000 280.000000 -3.246480
v 200.000000 280.000000 -7.929514
v 240.000000 280.000000 -16.232401
v 280.000000 280.000000 -26.196167
v 320.000000 280.000000 -36.456947
v -320.000000 320.000000 64.871292
v -280.000000 320.000000 59.978760
v -240.000000 320.000000 53.216511
v -200.000000 320.000000 46.790119
v -160.000000 320.000000 37.732124
v -120.000000 320.000000 26.970285
v -80.000000 320.000000 16.538095
v -40.000000 320.000000 5.058163
v 0.000000 320.000000 -6.435611
v 40.000000 320.000000 -13.307149
v 80.000000 320.000000 -14.409583
v 120.000000 320.000000 -11.255066
v 160.000000 320.000000 -10.640937
v 200.000000 320.000000 -14.920437
v 240.000000 320.000000 -23.505598
v 280.000000 320.000000 -35.972176
v 320.000000 320.000000 -51.832409
vn 0.1985 0.1527 0.9681
vn 0.1878 0.1607 0.9690
vn 0.2290 0.1038 0.9679
vn 0.1993 0.0986 0.9750
vn 0.1341 0.1719 0.9759
vn 0.1573 0.1689 0.9730
vn 0.1276 0.1343 0.9827
vn 0.0935 0.2249 0.9699
vn 0.1860 0.0747 0.9797
vn 0.1495 0.1925 0.9698
vn 0.2581 0.0491 0.9649
vn 0.2387 0.1456 0.9601
vn 0.3047 0.0323 0.9519
vn 0.2722 0.1237 0.9543
vn 0.3059 0.0233 0.9518
vn 0.2640 0.0922 0.9601
vn 0.2912 0.0034 0.9567
vn 0.2660 0.0587 0.9622
vn 0.2937 0.0197 0.9557
vn 0.3092 0.0627 0.9489
vn 0.2788 0.0812 0.9569
vn 0.3327 0.0835 0.9393
vn 0.2878 0.1297 0.9489
vn 0.3372 0.1362 0.9315
vn 0.3646 0.1292 0.9222
vn 0.3664 0.1714 0.9145
vn 0.4023 0.1122 0.9086
vn 0.3520 0.1588 0.9224
vn 0.3560 0.0545 0.9329
vn 0.2868 0.0966 0.9531
vn 0.2287 0.0595 0.9717
vn 0.2530 0.0147 0.9674
vn 0.0483 0.1522 0.9872
vn 0.1694 0.0380 0.9848
vn 0.2568 0.0663 0.9642
vn 0.1700 0.0780 0.9824
vn 0.2521 0.1046 0.9620
vn 0.1490 0.2211 0.9638
vn 0.1055 0.2466 0.9634
vn 0.1933 0.1198 0.9738
vn 0.2552 0.0606 0.9650
vn 0.2448 0.0496 0.9683
vn 0.2637 0.0803 0.9613
vn 0.3158 0.1103 0.9424
vn 0.3458 0.1228 0.9302
vn 0.3692 0.1404 0.9187
vn 0.3837 0.1508 0.9110
vn 0.3330 0.1328 0.9335
vn 0.2183 0.0972 0.9710
vn 0.1699 0.0344 0.9849
vn 0.2396 -0.0180 0.9707
vn 0.2513 0.2086 0.9452
vn 0.1762 0.1982 0.9642
vn 0.2998 0.2107 0.9304
vn 0.2272 0.2821 0.9321
vn 0.0455 0.3061 0.9509
vn 0.0548 0.1445 0.9880
vn 0.2085 0.0314 0.9775
vn 0.2835 0.0090 0.9589
vn 0.3232 0.0598 0.9444
vn 0.3488 0.0941 0.9324
vn 0.3601 0.1350 0.9231
vn 0.3637 0.1514 0.9191
vn 0.3603 0.1293 0.9238
vn 0.3005 0.0781 0.9506
vn 0.1898 0.0372 0.9811
vn 0.1414 0.0293 0.9895
vn 0.2105 0.0347 0.9770
vn 0.2616 0.3196 0.9107
vn 0.2224 0.3064 0.9256
vn 0.3090 0.3112 0.8987
vn 0.2292 0.3289 0.9162
vn -0.0439 0.3429 0.9384
vn -0.0872 0.2783 0.9565
vn 0.1238 0.2130 0.9692
vn 0.2701 0.1515 0.9508
vn 0.3408 0.1261 0.9317
vn 0.3835 0.1050 0.9175
vn 0.3958 0.1311 0.9089
vn 0.3634 0.1554 0.9186
vn 0.3190 0.1055 0.9419
vn 0.2468 0.0136 0.9690
vn 0.1696 -0.0244 0.9852
vn 0.1678 -0.0115 0.9858
vn 0.2189 0.0082 0.9757
vn 0.2560 0.3247 0.9105
vn 0.2355 0.3363 0.9118
vn 0.2992 0.2993 0.9060
vn 0.2444 0.2746 0.9300
vn -0.0190 0.3277 0.9446
vn -0.0823 0.3987 0.9134
vn 0.0739 0.4198 0.9046
vn 0.1902 0.3915 0.9003
vn 0.2676 0.3442 0.9000
vn 0.3448 0.2658 0.9003
vn 0.3983 0.1992 0.8954
vn 0.3336 0.2137 0.9182
vn 0.2246 0.1890 0.9560
vn 0.1762 0.0691 0.9819
vn 0.1653 0.0411 0.9854
vn 0.1732 0.0604 0.9830
vn 0.2074 0.0678 0.9759
vn 0.2279 0.3309 0.9157
vn 0.2310 0.3316 0.9147
vn 0.2591 0.3046 0.9166
vn 0.2495 0.2509 0.9353
vn 0.0904 0.2750 0.9572
vn 0.0237 0.4036 0.9146
vn 0.1104 0.4704 0.8755
vn 0.1751 0.4707 0.8648
vn 0.1997 0.4241 0.8833
vn 0.2285 0.4054 0.8851
vn 0.3280 0.3458 0.8791
vn 0.3327 0.2904 0.8972
vn 0.1659 0.2925 0.9418
vn 0.0942 0.2841 0.9542
vn 0.1561 0.2577 0.9535
vn 0.1896 0.2157 0.9579
vn 0.1739 0.1894 0.9664
vn 0.2301 0.3261 0.9169
vn 0.2502 0.3076 0.9180
vn 0.2198 0.3063 0.9262
vn 0.2065 0.2425 0.9479
vn 0.1481 0.1992 0.9687
vn 0.1519 0.2707 0.9506
vn 0.1736 0.2941 0.9399
vn 0.1474 0.2506 0.9568
vn 0.2032 0.1760 0.9632
vn 0.2773 0.2179 0.9358
vn 0.2879 0.2394 0.9273
vn 0.2674 0.1428 0.9529
vn 0.2044 0.0447 0.9779
vn 0.1373 0.0820 0.9871
vn 0.0946 0.0809 0.9922
vn 0.1011 0.0725 0.9922
vn 0.1629 0.0102 0.9866
vn 0.2294 0.2562 0.9390
vn 0.2501 0.2966 0.9217
vn 0.1760 0.2066 0.9625
vn 0.1391 0.1343 0.9811
vn 0.1222 0.0580 0.9908
vn 0.1319 -0.0016 0.9913
vn 0.1022 -0.0932 0.9904
vn 0.0717 -0.1195 0.9902
vn 0.1911 -0.1492 0.9702
vn 0.3101 -0.1972 0.9300
vn 0.2727 -0.2058 0.9398
vn 0.1510 -0.2609 0.9535
vn 0.1017 -0.3516 0.9306
vn 0.1230 -0.3845 0.9149
vn 0.1407 -0.3778 0.9151
vn 0.1210 -0.2718 0.9547
vn 0.1227 -0.2850 0.9507
vn 0.1419 0.0792 0.9867
vn 0.1641 0.2231 0.9609
vn 0.1004 -0.0234 0.9947
vn 0.0613 -0.1042 0.9927
vn 0.0141 -0.1714 0.9851
vn 0.0069 -0.2599 0.9656
vn 0.0619 -0.3215 0.9449
vn 0.0897 -0.2979 0.9504
vn 0.1133 -0.3003 0.9471
vn 0.2079 -0.3842 0.8995
vn 0.2159 -0.4482 0.8675
vn 0.1061 -0.4789 0.8714
vn 0.0553 -0.4627 0.8848
vn 0.0914 -0.4697 0.8781
vn 0.1980 -0.4744 0.8578
vn 0.1865 -0.4613 0.8675
vn 0.0956 -0.4096 0.9073
vn -0.0112 -0.1763 0.9843
vn 0.0177 -0.0176 0.9997
vn -0.0022 -0.2749 0.9615
vn -0.0083 -0.3225 0.9465
vn -0.0389 -0.3216 0.9461
vn -0.0318 -0.3062 0.9514
vn 0.0562 -0.2987 0.9527
vn 0.0903 -0.3211 0.9427
vn 0.0782 -0.3336 0.9394
vn 0.1235 -0.3673 0.9219
vn 0.1491 -0.4331 0.8889
vn 0.1345 -0.4479 0.8839
vn 0.1124 -0.4082 0.9060
vn 0.0953 -0.3940 0.9142
vn 0.1425 -0.3934 0.9083
vn 0.1996 -0.4432 0.8739
vn 0.2406 -0.3774 0.8943
vn -0.1173 -0.3135 0.9423
vn -0.0396 -0.2322 0.9719
vn -0.0563 -0.3482 0.9357
vn 0.0072 -0.3269 0.9450
vn 0.0319 -0.2762 0.9606
vn 0.0329 -0.2025 0.9787
vn 0.0461 -0.1707 0.9842
vn 0.0516 -0.1996 0.9785
vn 0.0603 -0.2060 0.9767
vn 0.0959 -0.2248 0.9697
vn 0.1343 -0.2651 0.9548
vn 0.1504 -0.2778 0.9488
vn 0.1316 -0.2697 0.9539
vn 0.1164 -0.2635 0.9576
vn 0.1482 -0.2494 0.9570
vn 0.2124 -0.2686 0.9395
vn 0.2848 -0.2602 0.9226
vn -0.1361 -0.3080 0.9416
vn -0.0747 -0.2810 0.9568
vn -0.0151 -0.2652 0.9641
vn 0.0740 -0.1937 0.9783
vn 0.0965 -0.1500 0.9840
vn 0.0800 -0.1130 0.9904
vn 0.0615 -0.0889 0.9941
vn 0.0580 -0.0622 0.9964
vn 0.0554 -0.0345 0.9979
vn 0.0670 -0.0428 0.9968
vn 0.1059 -0.0855 0.9907
vn 0.1447 -0.1016 0.9842
vn 0.1395 -0.1043 0.9847
vn 0.1245 -0.1005 0.9871
vn 0.1439 -0.0967 0.9849
vn 0.2017 -0.0986 0.9745
vn 0.2841 -0.1077 0.9527
vn -0.1025 -0.2302 0.9677
vn -0.1076 -0.2528 0.9615
vn 0.0677 -0.1552 0.9856
vn 0.1285 -0.1022 0.9864
vn 0.1160 -0.0783 0.9902
vn 0.0960 -0.0654 0.9932
vn 0.0980 -0.0237 0.9949
vn 0.1068 0.0305 0.9938
vn 0.0808 0.0696 0.9943
vn 0.0472 0.0807 0.9956
vn 0.0801 0.0602 0.9950
vn 0.1375 0.0347 0.9899
vn 0.1377 0.0010 0.9905
vn 0.1282 0.0001 0.9917
vn 0.1540 0.0153 0.9880
vn 0.2065 0.0340 0.9779
vn 0.2801 0.0211 0.9597
vn -0.0385 -0.1586 0.9866
vn -0.0850 -0.2496 0.9646
vn 0.1173 -0.0915 0.9889
vn 0.1515 -0.0824 0.9850
vn 0.1344 -0.0612 0.9890
vn 0.1348 -0.0137 0.9908
vn 0.1560 0.0538 0.9863
vn 0.1494 0.1131 0.9823
vn 0.1040 0.1490 0.9834
vn 0.0568 0.1645 0.9847
vn 0.0599 0.1658 0.9843
vn 0.0867 0.1126 0.9899
vn 0.1060 0.0441 0.9934
vn 0.1393 0.0413 0.9894
vn 0.1774 0.0760 0.9812
vn 0.2074 0.1110 0.9719
vn 0.2693 0.1139 0.9563
vn 0.0597 -0.1337 0.9892
vn -0.0078 -0.2647 0.9643
vn 0.1438 -0.0885 0.9856
vn 0.1582 -0.0874 0.9835
vn 0.1835 -0.0494 0.9818
vn 0.2086 0.0224 0.9777
vn 0.2211 0.0765 0.9723
vn 0.1983 0.1345 0.9709
vn 0.1292 0.2073 0.9697
vn 0.0621 0.2532 0.9654
vn 0.0261 0.2477 0.9685
vn 0.0146 0.1731 0.9848
vn 0.0664 0.1199 0.9906
vn 0.1593 0.1128 0.9808
vn 0.2206 0.1362 0.9658
vn 0.2407 0.1879 0.9522
vn 0.2673 0.2613 0.9275
vn 0.1429 -0.1312 0.9810
vn 0.1084 -0.2244 0.9685
vn 0.1617 -0.1081 0.9809
vn 0.1893 -0.0860 0.9782
vn 0.2402 -0.0483 0.9695
vn 0.2561 -0.0156 0.9665
vn 0.2642 -0.0003 0.9645
vn 0.2759 0.0253 0.9608
vn 0.2226 0.0989 0.9699
vn 0.0969 0.2129 0.9723
vn -0.0248 0.2543 0.9668
vn -0.0454 0.2623 0.9639
vn 0.0440 0.2768 0.9599
vn 0.1532 0.2617 0.9529
vn 0.2462 0.2531 0.9356
vn 0.3229 0.2527 0.9121
vn 0.3287 0.3337 0.8835
vt 0.015625 0.015625
vt 0.076172 0.015625
vt 0.076172 0.076172
vt 0.015625 0.076172
vt 0.136719 0.015625
vt 0.136719 0.076172
vt 0.197266 0.015625
vt 0.197266 0.076172
vt 0.257812 0.015625
vt 0.257812 0.076172
vt 0.318359 0.015625
vt 0.318359 0.076172
vt 0.378906 0.015625
vt 0.378906 0.076172
vt 0.439453 0.015625
vt 0.439453 0.076172
vt 0.500000 0.015625
vt 0.500000 0.076172
vt 0.560547 0.015625
vt 0.560547 0.076172
vt 0.621094 0.015625
vt 0.621094 0.076172
vt 0.681641 0.015625
vt 0.681641 0.076172
vt 0.742188 0.015625
vt 0.742188 0.076172
vt 0.802734 0.015625
vt 0.802734 0.076172
vt 0.863281 0.015625
vt 0.863281 0.076172
vt 0.923828 0.015625
vt 0.923828 0.076172
vt 0.984375 0.015625
vt 0.984375 0.076172
vt 0.076172 0.136719
vt 0.015625 0.136719
vt 0.136719 0.136719
vt 0.197266 0.136719
vt 0.257812 0.136719
vt 0.318359 0.136719
vt 0.378906 0.136719
vt 0.439453 0.136719
vt 0.500000 0.136719
vt 0.560547 0.136719
vt 0.621094 0.136719
vt 0.681641 0.136719
vt 0.742188 0.136719
vt 0.802734 0.136719
vt 0.863281 0.136719
vt 0.923828 0.136719
vt 0.984375 0.136719
vt 0.076172 0.197266
vt 0.015625 0.197266
vt 0.136719 0.197266
vt 0.197266 0.197266
vt 0.257812 0.197266
vt 0.318359 0.197266
vt 0.378906 0.197266
vt 0.439453 0.197266
vt 0.500000 0.197266
vt 0.560547 0.197266
vt 0.621094 0.197266
vt 0.681641 0.197266
vt 0.742188 0.197266
vt 0.802734 0.197266
vt 0.863281 0.197266
vt 0.923828 0.197266
vt 0.984375 0.197266
vt 0.076172 0.257812
vt 0.015625 0.257812
vt 0.136719 0.257812
vt 0.197266 0.257812
vt 0.257812 0.257812
vt 0.318359 0.257812
vt 0.378906 0.257812
vt 0.439453 0.257812
vt 0.500000 0.257812
vt 0.560547 0.257812
vt 0.621094 0.257812
vt 0.681641 0.257812
vt 0.742188 0.257812
vt 0.802734 0.257812
vt 0.863281 0.257812
vt 0.923828 0.257812
vt 0.984375 0.257812
vt 0.076172 0.318359
vt 0.015625 0.318359
vt 0.136719 0.318359
vt 0.197266 0.318359
vt 0.257812 0.318359
vt 0.318359 0.318359
vt 0.378906 0.318359
vt 0.439453 0.318359
vt 0.500000 0.318359
vt 0.560547 0.318359
vt 0.621094 0.318359
vt 0.681641 0.318359
vt 0.742188 0.318359
vt 0.802734 0.318359
vt 0.863281 0.318359
vt 0.923828 0.318359
vt 0.984375 0.318359
vt 0.076172 0.378906
vt 0.015625 0.378906
vt 0.136719 0.378906
vt 0.197266 0.378906
vt 0.257812 0.378906
vt 0.318359 0.378906
vt 0.378906 0.378906
vt 0.439453 0.378906
vt 0.500000 0.378906
vt 0.560547 0.378906
vt 0.621094 0.378906
vt 0.681641 0.378906
vt 0.742188 0.378906
vt 0.802734 0.378906
vt 0.863281 0.378906
vt 0.923828 0.378906
vt 0.984375 0.378906
vt 0.076172 0.439453
vt 0.015625 0.439453
vt 0.136719 0.439453
vt 0.197266 0.439453
vt 0.257812 0.439453
vt 0.318359 0.439453
vt 0.378906 0.439453
vt 0.439453 0.439453
vt 0.500000 0.439453
vt 0.560547 0.439453
vt 0.621094 0.439453
vt 0.681641 0.439453
vt 0.742188 0.439453
vt 0.802734 0.439453
vt 0.863281 0.439453
vt 0.923828 0.439453
vt 0.984375 0.439453
vt 0.076172 0.500000
vt 0.015625 0.500000
vt 0.136719 0.500000
vt 0.197266 0.500000
vt 0.257812 0.500000
vt 0.318359 0.500000
vt 0.378906 0.500000
vt 0.439453 0.500000
vt 0.500000 0.500000
vt 0.560547 0.500000
vt 0.621094 0.500000
vt 0.681641 0.500000
vt 0.742188 0.500000
vt 0.802734 0.500000
vt 0.863281 0.500000
vt 0.923828 0.500000
vt 0.984375 0.500000
vt 0.076172 0.560547
vt 0.015625 0.560547
vt 0.136719 0.560547
vt 0.197266 0.560547
vt 0.257812 0.560547
vt 0.318359 0.560547
vt 0.378906 0.560547
vt 0.439453 0.560547
vt 0.500000 0.560547
vt 0.560547 0.560547
vt 0.621094 0.560547
vt 0.681641 0.560547
vt 0.742188 0.560547
vt 0.802734 0.560547
vt 0.863281 0.560547
vt 0.923828 0.560547
vt 0.984375 0.560547
vt 0.076172 0.621094
vt 0.015625 0.621094
vt 0.136719 0.621094
vt 0.197266 0.621094
vt 0.257812 0.621094
vt 0.318359 0.621094
vt 0.378906 0.621094
vt 0.439453 0.621094
vt 0.500000 0.621094
vt 0.560547 0.621094
vt 0.621094 0.621094
vt 0.681641 0.621094
vt 0.742188 0.621094
vt 0.802734 0.621094
vt 0.863281 0.621094
vt 0.923828 0.621094
vt 0.984375 0.621094
vt 0.076172 0.681641
vt 0.015625 0.681641
vt 0.136719 0.681641
vt 0.197266 0.681641
vt 0.257812 0.681641
vt 0.318359 0.681641
vt 0.378906 0.681641
vt 0.439453 0.681641
vt 0.500000 0.681641
vt 0.560547 0.681641
vt 0.621094 0.681641
vt 0.681641 0.681641
vt 0.742188 0.681641
vt 0.802734 0.681641
vt 0.863281 0.681641
vt 0.923828 0.681641
vt 0.984375 0.681641
vt 0.076172 0.742188
vt 0.015625 0.742188
vt 0.136719 0.742188
vt 0.197266 0.742188
vt 0.257812 0.742188
vt 0.318359 0.742188
vt 0.378906 0.742188
vt 0.439453 0.742188
vt 0.500000 0.742188
vt 0.560547 0.742188
vt 0.621094 0.742188
vt 0.681641 0.742188
vt 0.742188 0.742188
vt 0.802734 0.742188
vt 0.863281 0.742188
vt 0.923828 0.742188
vt 0.984375 0.742188
vt 0.076172 0.802734
vt 0.015625 0.802734
vt 0.136719 0.802734
vt 0.197266 0.802734
vt 0.257812 0.802734
vt 0.318359 0.802734
vt 0.378906 0.802734
vt 0.439453 0.802734
vt 0.500000 0.802734
vt 0.560547 0.802734
vt 0.621094 0.802734
vt 0.681641 0.802734
vt 0.742188 0.802734
vt 0.802734 0.802734
vt 0.863281 0.802734
vt 0.923828 0.802734
vt 0.984375 0.802734
vt 0.076172 0.863281
vt 0.015625 0.863281
vt 0.136719 0.863281
vt 0.197266 0.863281
vt 0.257812 0.863281
vt 0.318359 0.863281
vt 0.378906 0.863281
vt 0.439453 0.863281
vt 0.500000 0.863281
vt 0.560547 0.863281
vt 0.621094 0.863281
vt 0.681641 0.863281
vt 0.742188 0.863281
vt 0.802734 0.863281
vt 0.863281 0.863281
vt 0.923828 0.863281
vt 0.984375 0.863281
vt 0.076172 0.923828
vt 0.015625 0.923828
vt 0.136719 0.923828
vt 0.197266 0.923828
vt 0.257812 0.923828
vt 0.318359 0.923828
vt 0.378906 0.923828
vt 0.439453 0.923828
vt 0.500000 0.923828
vt 0.560547 0.923828
vt 0.621094 0.923828
vt 0.681641 0.923828
vt 0.742188 0.923828
vt 0.802734 0.923828
vt 0.863281 0.923828
vt 0.923828 0.923828
vt 0.984375 0.923828
vt 0.076172 0.984375
vt 0.015625 0.984375
vt 0.136719 0.984375
vt 0.197266 0.984375
vt 0.257812 0.984375
vt 0.318359 0.984375
vt 0.378906 0.984375
vt 0.439453 0.984375
vt 0.500000 0.984375
vt 0.560547 0.984375
vt 0.621094 0.984375
vt 0.681641 0.984375
vt 0.742188 0.984375
vt 0.802734 0.984375
vt 0.863281 0.984375
vt 0.923828 0.984375
vt 0.984375 0.984375
s 1
f 1/1/1 2/2/2 19/3/3
f 1/1/1 19/3/3 18/4/4
f 2/2/2 3/5/5 20/6/6
f 2/2/2 20/6/6 19/3/3
f 3/5/5 4/7/7 21/8/8
f 3/5/5 21/8/8 20/6/6
f 4/7/7 5/9/9 22/10/10
f 4/7/7 22/10/10 21/8/8
f 5/9/9 6/11/11 23/12/12
f 5/9/9 23/12/12 22/10/10
f 6/11/11 7/13/13 24/14/14
f 6/11/11 24/14/14 23/12/12
f 7/13/13 8/15/15 25/16/16
f 7/13/13 25/16/16 24/14/14
f 8/15/15 9/17/17 26/18/18
f 8/15/15 26/18/18 25/16/16
f 9/17/17 10/19/19 27/20/20
f 9/17/17 27/20/20 26/18/18
f 10/19/19 11/21/21 28/22/22
f 10/19/19 28/22/22 27/20/20
f 11/21/21 12/23/23 29/24/24
f 11/21/21 29/24/24 28/22/22
f 12/23/23 13/25/25 30/26/26
f 12/23/23 30/26/26 29/24/24
f 13/25/25 14/27/27 31/28/28
f 13/25/25 31/28/28 30/26/26
f 14/27/27 15/29/29 32/30/30
f 14/27/27 32/30/30 31/28/28
f 15/29/29 16/31/31 33/32/32
f 15/29/29 33/32/32 32/30/30
f 16/31/31 17/33/33 34/34/34
f 16/31/31 34/34/34 33/32/32
f 18/4/4 19/3/3 36/35/35
f 18/4/4 36/35/35 35/36/36
f 19/3/3 20/6/6 37/37/37
f 19/3/3 37/37/37 36/35/35
f 20/6/6 21/8/8 38/38/38
f 20/6/6 38/38/38 37/37/37
f 21/8/8 22/10/10 39/39/39
f 21/8/8 39/39/39 38/38/38
f 22/10/10 23/12/12 40/40/40
f 22/10/10 40/40/40 39/39/39
f 23/12/12 24/14/14 41/41/41
f 23/12/12 41/41/41 40/40/40
f 24/14/14 25/16/16 42/42/42
f 24/14/14 42/42/42 41/41/41
f 25/16/16 26/18/18 43/43/43
f 25/16/16 43/43/43 42/42/42
f 26/18/18 27/20/20 44/44/44
f 26/18/18 44/44/44 43/43/43
f 27/20/20 28/22/22 45/45/45
f 27/20/20 45/45/45 44/44/44
f 28/22/22 29/24/24 46/46/46
f 28/22/22 46/46/46 45/45/45
f 29/24/24 30/26/26 47/47/47
f 29/24/24 47/47/47 46/46/46
f 30/26/26 31/28/28 48/48/48
f 30/26/26 48/48/48 47/47/47
f 31/28/28 32/30/30 49/49/49
f 31/28/28 49/49/49 48/48/48
f 32/30/30 33/32/32 50/50/50
f 32/30/30 50/50/50 49/49/49
f 33/32/32 34/34/34 51/51/51
f 33/32/32 51/51/51 50/50/50
f 35/36/36 36/35/35 53/52/52
f 35/36/36 53/52/52 52/53/53
f 36/35/35 37/37/37 54/54/54
f 36/35/35 54/54/54 53/52/52
f 37/37/37 38/38/38 55/55/55
f 37/37/37 55/55/55 54/54/54
f 38/38/38 39/39/39 56/56/56
f 38/38/38 56/56/56 55/55/55
f 39/39/39 40/40/40 57/57/57
f 39/39/39 57/57/57 56/56/56
f 40/40/40 41/41/41 58/58/58
f 40/40/40 58/58/58 57/57/57
f 41/41/41 42/42/42 59/59/59
f 41/41/41 59/59/59 58/58/58
f 42/42/42 43/43/43 60/60/60
f 42/42/42 60/60/60 59/59/59
f 43/43/43 44/44/44 61/61/61
f 43/43/43 61/61/61 60/60/60
f 44/44/44 45/45/45 62/62/62
f 44/44/44 62/62/62 61/61/61
f 45/45/45 46/46/46 63/63/63
f 45/45/45 63/63/63 62/62/62
f 46/46/46 47/47/47 64/64/64
f 46/46/46 64/64/64 63/63/63
f 47/47/47 48/48/48 65/65/65
f 47/47/47 65/65/65 64/64/64
f 48/48/48 49/49/49 66/66/66
f 48/48/48 66/66/66 65/65/65
f 49/49/49 50/50/50 67/67/67
f 49/49/49 67/67/67 66/66/66
f 50/50/50 51/51/51 68/68/68
f 50/50/50 68/68/68 67/67/67
f 52/53/53 53/52/52 70/69/69
f 52/53/53 70/69/69 69/70/70
f 53/52/52 54/54/54 71/71/71
f 53/52/52 71/71/71 70/69/69
f 54/54/54 55/55/55 72/72/72
f 54/54/54 72/72/72 71/71/71
f 55/55/55 56/56/56 73/73/73
f 55/55/55 73/73/73 72/72/72
f 56/56/56 57/57/57 74/74/74
f 56/56/56 74/74/74 73/73/73
f 57/57/57 58/58/58 75/75/75
f 57/57/57 75/75/75 74/74/74
f 58/58/58 59/59/59 76/76/76
f 58/58/58 76/76/76 75/75/75
f 59/59/59 60/60/60 77/77/77
f 59/59/59 77/77/77 76/76/76
f 60/60/60 61/61/61 78/78/78
f 60/60/60 78/78/78 77/77/77
f 61/61/61 62/62/62 79/79/79
f 61/61/61 79/79/79 78/78/78
f 62/62/62 63/63/63 80/80/80
f 62/62/62 80/80/80 79/79/79
f 63/63/63 64/64/64 81/81/81
f 63/63/63 81/81/81 80/80/80
f 64/64/64 65/65/65 82/82/82
f 64/64/64 82/82/82 81/81/81
f 65/65/65 66/66/66 83/83/83
f 65/65/65 83/83/83 82/82/82
f 66/66/66 67/67/67 84/84/84
f 66/66/66 84/84/84 83/83/83
f 67/67/67 68/68/68 85/85/85
f 67/67/67 85/85/85 84/84/84
f 69/70/70 70/69/69 87/86/86
f 69/70/70 87/86/86 86/87/87
f 70/69/69 71/71/71 88/88/88
f 70/69/69 88/88/88 87/86/86
f 71/71/71 72/72/72 89/89/89
f 71/71/71 89/89/89 88/88/88
f 72/72/72 73/73/73 90/90/90
f 72/72/72 90/90/90 89/89/89
f 73/73/73 74/74/74 91/91/91
f 73/73/73 91/91/91 90/90/90
f 74/74/74 75/75/75 92/92/92
f 74/74/74 92/92/92 91/91/91
f 75/75/75 76/76/76 93/93/93
f 75/75/75 93/93/93 92/92/92
f 76/76/76 77/77/77 94/94/94
f 76/76/76 94/94/94 93/93/93
f 77/77/77 78/78/78 95/95/95
f 77/77/77 95/95/95 94/94/94
f 78/78/78 79/79/79 96/96/96
f 78/78/78 96/96/96 95/95/95
f 79/79/79 80/80/80 97/97/97
f 79/79/79 97/97/97 96/96/96
f 80/80/80 81/81/81 98/98/98
f 80/80/80 98/98/98 97/97/97
f 81/81/81 82/82/82 99/99/99
f 81/81/81 99/99/99 98/98/98
f 82/82/82 83/83/83 100/100/100
f 82/82/82 100/100/100 99/99/99
f 83/83/83 84/84/84 101/101/101
f 83/83/83 101/101/101 100/100/100
f 84/84/84 85/85/85 102/102/102
f 84/84/84 102/102/102 101/101/101
f 86/87/87 87/86/86 104/103/103
f 86/87/87 104/103/103 103/104/104
f 87/86/86 88/88/88 105/105/105
f 87/86/86 105/105/105 104/103/103
f 88/88/88 89/89/89 106/106/106
f 88/88/88 106/106/106 105/105/105
f 89/89/89 90/90/90 107/107/107
f 89/89/89 107/107/107 106/106/106
f 90/90/90 91/91/91 108/108/108
f 90/90/90 108/108/108 107/107/107
f 91/91/91 92/92/92 109/109/109
f 91/91/91 109/109/109 108/108/108
f 92/92/92 93/93/93 110/110/110
f 92/92/92 110/110/110 109/109/109
f 93/93/93 94/94/94 111/111/111
f 93/93/93 111/111/111 110/110/110
f 94/94/94 95/95/95 112/112/112
f 94/94/94 112/112/112 111/111/111
f 95/95/95 96/96/96 113/113/113
f 95/95/95 113/113/113 112/112/112
f 96/96/96 97/97/97 114/114/114
f 96/96/96 114/114/114 113/113/113
f 97/97/97 98/98/98 115/115/115
f 97/97/97 115/115/115 114/114/114
f 98/98/98 99/99/99 116/116/116
f 98/98/98 116/116/116 115/115/115
f 99/99/99 100/100/100 117/117/117
f 99/99/99 117/117/117 116/116/116
f 100/100/100 101/101/101 118/118/118
f 100/100/100 118/118/118 117/117/117
f 101/101/101 102/102/102 119/119/119
f 101/101/101 119/119/119 118/118/118
f 103/104/104 104/103/103 121/120/120
f 103/104/104 121/120/120 120/121/121
f 104/103/103 105/105/105 122/122/122
f 104/103/103 122/122/122 121/120/120
f 105/105/105 106/106/106 123/123/123
f 105/105/105 123/123/123 122/122/122
f 106/106/106 107/107/107 124/124/124
f 106/106/106 124/124/124 123/123/123
f 107/107/107 108/108/108 125/125/125
f 107/107/107 125/125/125 124/124/124
f 108/108/108 109/109/109 126/126/126
f 108/108/108 126/126/126 125/125/125
f 109/109/109 110/110/110 127/127/127
f 109/109/109 127/127/127 126/126/126
f 110/110/110 111/111/111 128/128/128
f 110/110/110 128/128/128 127/127/127
f 111/111/111 112/112/112 129/129/129
f 111/111/111 129/129/129 128/128/128
f 112/112/112 113/113/113 130/130/130
f 112/112/112 130/130/130 129/129/129
f 113/113/113 114/114/114 131/131/131
f 113/113/113 131/131/131 130/130/130
f 114/114/114 115/115/115 132/132/132
f 114/114/114 132/132/132 131/131/131
f 115/115/115 116/116/116 133/133/133
f 115/115/115 133/133/133 132/132/132
f 116/116/116 117/117/117 134/134/134
f 116/116/116 134/134/134 133/133/133
f 117/117/117 118/118/118 135/135/135
f 117/117/117 135/135/135 134/134/134
f 118/118/118 119/119/119 136/136/136
f 118/118/118 136/136/136 135/135/135
f 120/121/121 121/120/120 138/137/137
f 120/121/121 138/137/137 137/138/138
f 121/120/120 122/122/122 139/139/139
f 121/120/120 139/139/139 138/137/137
f 122/122/122 123/123/123 140/140/140
f 122/122/122 140/140/140 139/139/139
f 123/123/123 124/124/124 141/141/141
f 123/123/123 141/141/141 140/140/140
f 124/124/124 125/125/125 142/142/142
f 124/124/124 142/142/142 141/141/141
f 125/125/125 126/126/126 143/143/143
f 125/125/125 143/143/143 142/142/142
f 126/126/126 127/127/127 144/144/144
f 126/126/126 144/144/144 143/143/143
f 127/127/127 128/128/128 145/145/145
f 127/127/127 145/145/145 144/144/144
f 128/128/128 129/129/129 146/146/146
f 128/128/128 146/146/146 145/145/145
f 129/129/129 130/130/130 147/147/147
f 129/129/129 147/147/147 146/146/146
f 130/130/130 131/131/131 148/148/148
f 130/130/130 148/148/148 147/147/147
f 131/131/131 132/132/132 149/149/149
f 131/131/131 149/149/149 148/148/148
f 132/132/132 133/133/133 150/150/150
f 132/132/132 150/150/150 149/149/149
f 133/133/133 134/134/134 151/151/151
f 133/133/133 151/151/151 150/150/150
f 134/134/134 135/135/135 152/152/152
f 134/134/134 152/152/152 151/151/151
f 135/135/135 136/136/136 153/153/153
f 135/135/135 153/153/153 152/152/152
f 137/138/138 138/137/137 155/154/154
f 137/138/138 155/154/154 154/155/155
f 138/137/137 139/139/139 156/156/156
f 138/137/137 156/156/156 155/154/154
f 139/139/139 140/140/140 157/157/157
f 139/139/139 157/157/157 156/156/156
f 140/140/140 141/141/141 158/158/158
f 140/140/140 158/158/158 157/157/157
f 141/141/141 142/142/142 159/159/159
f 141/141/141 159/159/159 158/158/158
f 142/142/142 143/143/143 160/160/160
f 142/142/142 160/160/160 159/159/159
f 143/143/143 144/144/144 161/161/161
f 143/143/143 161/161/161 160/160/160
f 144/144/144 145/145/145 162/162/162
f 144/144/144 162/162/162 161/161/161
f 145/145/145 146/146/146 163/163/163
f 145/145/145 163/163/163 162/162/162
f 146/146/146 147/147/147 164/164/164
f 146/146/146 164/164/164 163/163/163
f 147/147/147 148/148/148 165/165/165
f 147/147/147 165/165/165 164/164/164
f 148/148/148 149/149/149 166/166/166
f 148/148/148 166/166/166 165/165/165
f 149/149/149 150/150/150 167/167/167
f 149/149/149 167/167/167 166/166/166
f 150/150/150 151/151/151 168/168/168
f 150/150/150 168/168/168 167/167/167
f 151/151/151 152/152/152 169/169/169
f 151/151/151 169/169/169 168/168/168
f 152/152/152 153/153/153 170/170/170
f 152/152/152 170/170/170 169/169/169
f 154/155/155 155/154/154 172/171/171
f 154/155/155 172/171/171 171/172/172
f 155/154/154 156/156/156 173/173/173
f 155/154/154 173/173/173 172/171/171
f 156/156/156 157/157/157 174/174/174
f 156/156/156 174/174/174 173/173/173
f 157/157/157 158/158/158 175/175/175
f 157/157/157 175/175/175 174/174/174
f 158/158/158 159/159/159 176/176/176
f 158/158/158 176/176/176 175/175/175
f 159/159/159 160/160/160 177/177/177
f 159/159/159 177/177/177 176/176/176
f 160/160/160 161/161/161 178/178/178
f 160/160/160 178/178/178 177/177/177
f 161/161/161 162/162/162 179/179/179
f 161/161/161 179/179/179 178/178/178
f 162/162/162 163/163/163 180/180/180
f 162/162/162 180/180/180 179/179/179
f 163/163/163 164/164/164 181/181/181
f 163/163/163 181/181/181 180/180/180
f 164/164/164 165/165/165 182/182/182
f 164/164/164 182/182/182 181/181/181
f 165/165/165 166/166/166 183/183/183
f 165/165/165 183/183/183 182/182/182
f 166/166/166 167/167/167 184/184/184
f 166/166/166 184/184/184 183/183/183
f 167/167/167 168/168/168 185/185/185
f 167/167/167 185/185/185 184/184/184
f 168/168/168 169/169/169 186/186/186
f 168/168/168 186/186/186 185/185/185
f 169/169/169 170/170/170 187/187/187
f 169/169/169 187/187/187 186/186/186
f 171/172/172 172/171/171 189/188/188
f 171/172/172 189/188/188 188/189/189
f 172/171/171 173/173/173 190/190/190
f 172/171/171 190/190/190 189/188/188
f 173/173/173 174/174/174 191/191/191
f 173/173/173 191/191/191 190/190/190
f 174/174/174 175/175/175 192/192/192
f 174/174/174 192/192/192 191/191/191
f 175/175/175 176/176/176 193/193/193
f 175/175/175 193/193/193 192/192/192
f 176/176/176 177/177/177 194/194/194
f 176/176/176 194/194/194 193/193/193
f 177/177/177 178/178/178 195/195/195
f 177/177/177 195/195/195 194/194/194
f 178/178/178 179/179/179 196/196/196
f 178/178/178 196/196/196 195/195/195
f 179/179/179 180/180/180 197/197/197
f 179/179/179 197/197/197 196/196/196
f 180/180/180 181/181/181 198/198/198
f 180/180/180 198/198/198 197/197/197
f 181/181/181 182/182/182 199/199/199
f 181/181/181 199/199/199 198/198/198
f 182/182/182 183/183/183 200/200/200
f 182/182/182 200/200/200 199/199/199
f 183/183/183 184/184/184 201/201/201
f 183/183/183 201/201/201 200/200/200
f 184/184/184 185/185/185 202/202/202
f 184/184/184 202/202/202 201/201/201
f 185/185/185 186/186/186 203/203/203
f 185/185/185 203/203/203 202/202/202
f 186/186/186 187/187/187 204/204/204
f 186/186/186 204/204/204 203/203/203
f 188/189/189 189/188/188 206/205/205
f 188/189/189 206/205/205 205/206/206
f 189/188/188 190/190/190 207/207/207
f 189/188/188 207/207/207 206/205/205
f 190/190/190 191/191/191 208/208/208
f 190/190/190 208/208/208 207/207/207
f 191/191/191 192/192/192 209/209/209
f 191/191/191 209/209/209 208/208/208
f 192/192/192 193/193/193 210/210/210
f 192/192/192 210/210/210 209/209/209
f 193/193/193 194/194/194 211/211/211
f 193/193/193 211/211/211 210/210/210
f 194/194/194 195/195/195 212/212/212
f 194/194/194 212/212/212 211/211/211
f 195/195/195 196/196/196 213/213/213
f 195/195/195 213/213/213 212/212/212
f 196/196/196 197/197/197 214/214/214
f 196/196/196 214/214/214 213/213/213
f 197/197/197 198/198/198 215/215/215
f 197/197/197 215/215/215 214/214/214
f 198/198/198 199/199/199 216/216/216
f 198/198/198 216/216/216 215/215/215
f 199/199/199 200/200/200 217/217/217
f 199/199/199 217/217/217 216/216/216
f 200/200/200 201/201/201 218/218/218
f 200/200/200 218/218/218 217/217/217
f 201/201/201 202/202/202 219/219/219
f 201/201/201 219/219/219 218/218/218
f 202/202/202 203/203/203 220/220/220
f 202/202/202 220/220/220 219/219/219
f 203/203/203 204/204/204 221/221/221
f 203/203/203 221/221/221 220/220/220
f 205/206/206 206/205/205 223/222/222
f 205/206/206 223/222/222 222/223/223
f 206/205/205 207/207/207 224/224/224
f 206/205/205 224/224/224 223/222/222
f 207/207/207 208/208/208 225/225/225
f 207/207/207 225/225/225 224/224/224
f 208/208/208 209/209/209 226/226/226
f 208/208/208 226/226/226 225/225/225
f 209/209/209 210/210/210 227/227/227
f 209/209/209 227/227/227 226/226/226
f 210/210/210 211/211/211 228/228/228
f 210/210/210 228/228/228 227/227/227
f 211/211/211 212/212/212 229/229/229
f 211/211/211 229/229/229 228/228/228
f 212/212/212 213/213/213 230/230/230
f 212/212/212 230/230/230 229/229/229
f 213/213/213 214/214/214 231/231/231
f 213/213/213 231/231/231 230/230/230
f 214/214/214 215/215/215 232/232/232
f 214/214/214 232/232/232 231/231/231
f 215/215/215 216/216/216 233/233/233
f 215/215/215 233/233/233 232/232/232
f 216/216/216 217/217/217 234/234/234
f 216/216/216 234/234/234 233/233/233
f 217/217/217 218/218/218 235/235/235
f 217/217/217 235/235/235 234/234/234
f 218/218/218 219/219/219 236/236/236
f 218/218/218 236/236/236 235/235/235
f 219/219/219 220/220/220 237/237/237
f 219/219/219 237/237/237 236/236/236
f 220/220/220 221/221/221 238/238/238
f 220/220/220 238/238/238 237/237/237
f 222/223/223 223/222/222 240/239/239
f 222/223/223 240/239/239 239/240/240
f 223/222/222 224/224/224 241/241/241
f 223/222/222 241/241/241 240/239/239
f 224/224/224 225/225/225 242/242/242
f 224/224/224 242/242/242 241/241/241
f 225/225/225 226/226/226 243/243/243
f 225/225/225 243/243/243 242/242/242
f 226/226/226 227/227/227 244/244/244
f 226/226/226 244/244/244 243/243/243
f 227/227/227 228/228/228 245/245/245
f 227/227/227 245/245/245 244/244/244
f 228/228/228 229/229/229 246/246/246
f 228/228/228 246/246/246 245/245/245
f 229/229/229 230/230/230 247/247/247
f 229/229/229 247/247/247 246/246/246
f 230/230/230 231/231/231 248/248/248
f 230/230/230 248/248/248 247/247/247
f 231/231/231 232/232/232 249/249/249
f 231/231/231 249/249/249 248/248/248
f 232/232/232 233/233/233 250/250/250
f 232/232/232 250/250/250 249/249/249
f 233/233/233 234/234/234 251/251/251
f 233/233/233 251/251/251 250/250/250
f 234/234/234 235/235/235 252/252/252
f 234/234/234 252/252/252 251/251/251
f 235/235/235 236/236/236 253/253/253
f 235/235/235 253/253/253 252/252/252
f 236/236/236 237/237/237 254/254/254
f 236/236/236 254/254/254 253/253/253
f 237/237/237 238/238/238 255/255/255
f 237/237/237 255/255/255 254/254/254
f 239/240/240 240/239/239 257/256/256
f 239/240/240 257/256/256 256/257/257
f 240/239/239 241/241/241 258/258/258
f 240/239/239 258/258/258 257/256/256
f 241/241/241 242/242/242 259/259/259
f 241/241/241 259/259/259 258/258/258
f 242/242/242 243/243/243 260/260/260
f 242/242/242 260/260/260 259/259/259
f 243/243/243 244/244/244 261/261/261
f 243/243/243 261/261/261 260/260/260
f 244/244/244 245/245/245 262/262/262
f 244/244/244 262/262/262 261/261/261
f 245/245/245 246/246/246 263/263/263
f 245/245/245 263/263/263 262/262/262
f 246/246/246 247/247/247 264/264/264
f 246/246/246 264/264/264 263/263/263
f 247/247/247 248/248/248 265/265/265
f 247/247/247 265/265/265 264/264/264
f 248/248/248 249/249/249 266/266/266
f 248/248/248 266/266/266 265/265/265
f 249/249/249 250/250/250 267/267/267
f 249/249/249 267/267/267 266/266/266
f 250/250/250 251/251/251 268/268/268
f 250/250/250 268/268/268 267/267/267
f 251/251/251 252/252/252 269/269/269
f 251/251/251 269/269/269 268/268/268
f 252/252/252 253/253/253 270/270/270
f 252/252/252 270/270/270 269/269/269
f 253/253/253 254/254/254 271/271/271
f 253/253/253 271/271/271 270/270/270
f 254/254/254 255/255/255 272/272/272
f 254/254/254 272/272/272 271/271/271
f 256/257/257 257/256/256 274/273/273
f 256/257/257 274/273/273 273/274/274
f 257/256/256 258/258/258 275/275/275
f 257/256/256 275/275/275 274/273/273
f 258/258/258 259/259/259 276/276/276
f 258/258/258 276/276/276 275/275/275
f 259/259/259 260/260/260 277/277/277
f 259/259/259 277/277/277 276/276/276
f 260/260/260 261/261/261 278/278/278
f 260/260/260 278/278/278 277/277/277
f 261/261/261 262/262/262 279/279/279
f 261/261/261 279/279/279 278/278/278
f 262/262/262 263/263/263 280/280/280
f 262/262/262 280/280/280 279/279/279
f 263/263/263 264/264/264 281/281/281
f 263/263/263 281/281/281 280/280/280
f 264/264/264 265/265/265 282/282/282
f 264/264/264 282/282/282 281/281/281
f 265/265/265 266/266/266 283/283/283
f 265/265/265 283/283/283 282/282/282
f 266/266/266 267/267/267 284/284/284
f 266/266/266 284/284/284 283/283/283
f 267/267/267 268/268/268 285/285/285
f 267/267/267 285/285/285 284/284/284
f 268/268/268 269/269/269 286/286/286
f 268/268/268 286/286/286 285/285/285
f 269/269/269 270/270/270 287/287/287
f 269/269/269 287/287/287 286/286/286
f 270/270/270 271/271/271 288/288/288
f 270/270/270 288/288/288 287/287/287
f 271/271/271 272/272/272 289/289/289
f 271/271/271 289/289/289 288/288/288
