mtllib terrain_mid_07_05.mtl
usemtl terrain_mid_07_05
# Blender 5.1.1
# www.blender.org
o terrain_mid_07_05
v -160.000000 -160.000000 -59.669651
v -140.000000 -160.000000 -65.765526
v -120.000000 -160.000000 -61.819561
v -100.000000 -160.000000 -56.367283
v -80.000000 -160.000000 -52.004498
v -60.000000 -160.000000 -48.059097
v -40.000000 -160.000000 -43.006783
v -20.000000 -160.000000 -36.145706
v 0.000000 -160.000000 -27.236771
v 20.000000 -160.000000 -17.879890
v 40.000000 -160.000000 -10.254958
v 60.000000 -160.000000 -3.765565
v 80.000000 -160.000000 1.925963
v 100.000000 -160.000000 6.359469
v 120.000000 -160.000000 9.027872
v 140.000000 -160.000000 12.157130
v 160.000000 -160.000000 17.123459
v -160.000000 -140.000000 -58.205376
v -140.000000 -140.000000 -64.137253
v -120.000000 -140.000000 -59.691002
v -100.000000 -140.000000 -51.456413
v -80.000000 -140.000000 -43.809624
v -60.000000 -140.000000 -37.346104
v -40.000000 -140.000000 -31.346558
v -20.000000 -140.000000 -24.902670
v 0.000000 -140.000000 -17.980394
v 20.000000 -140.000000 -10.856080
v 40.000000 -140.000000 -4.090346
v 60.000000 -140.000000 2.388223
v 80.000000 -140.000000 8.243434
v 100.000000 -140.000000 12.708061
v 120.000000 -140.000000 15.334559
v 140.000000 -140.000000 18.512634
v 160.000000 -140.000000 23.581512
v -160.000000 -120.000000 -56.604324
v -140.000000 -120.000000 -63.488392
v -120.000000 -120.000000 -60.418385
v -100.000000 -120.000000 -49.482475
v -80.000000 -120.000000 -38.396912
v -60.000000 -120.000000 -30.144348
v -40.000000 -120.000000 -24.455791
v -20.000000 -120.000000 -19.101183
v 0.000000 -120.000000 -13.407003
v 20.000000 -120.000000 -6.759394
v 40.000000 -120.000000 0.486768
v 60.000000 -120.000000 7.406832
v 80.000000 -120.000000 13.507092
v 100.000000 -120.000000 18.464064
v 120.000000 -120.000000 21.771999
v 140.000000 -120.000000 25.443609
v 160.000000 -120.000000 30.392805
v -160.000000 -100.000000 -55.112907
v -140.000000 -100.000000 -61.911961
v -120.000000 -100.000000 -59.132042
v -100.000000 -100.000000 -47.642967
v -80.000000 -100.000000 -35.343872
v -60.000000 -100.000000 -26.148750
v -40.000000 -100.000000 -20.317404
v -20.000000 -100.000000 -15.956029
v 0.000000 -100.000000 -11.274055
v 20.000000 -100.000000 -5.151477
v 40.000000 -100.000000 2.136385
v 60.000000 -100.000000 9.426682
v 80.000000 -100.000000 16.025322
v 100.000000 -100.000000 21.695841
v 120.000000 -100.000000 26.545057
v 140.000000 -100.000000 31.752808
v 160.000000 -100.000000 36.461143
v -160.000000 -80.000000 -54.785698
v -140.000000 -80.000000 -59.944691
v -120.000000 -80.000000 -56.110874
v -100.000000 -80.000000 -44.927849
v -80.000000 -80.000000 -33.318348
v -60.000000 -80.000000 -23.941380
v -40.000000 -80.000000 -17.964708
v -20.000000 -80.000000 -13.968988
v 0.000000 -80.000000 -10.052382
v 20.000000 -80.000000 -4.502680
v 40.000000 -80.000000 2.304917
v 60.000000 -80.000000 9.570047
v 80.000000 -80.000000 16.623127
v 100.000000 -80.000000 23.062471
v 120.000000 -80.000000 29.517244
v 140.000000 -80.000000 36.132908
v 160.000000 -80.000000 42.281834
v -160.000000 -60.000000 -57.188213
v -140.000000 -60.000000 -58.086529
v -120.000000 -60.000000 -50.939800
v -100.000000 -60.000000 -41.158115
v -80.000000 -60.000000 -31.144608
v -60.000000 -60.000000 -23.069147
v -40.000000 -60.000000 -17.066055
v -20.000000 -60.000000 -12.568069
v 0.000000 -60.000000 -8.837085
v 20.000000 -60.000000 -3.950603
v 40.000000 -60.000000 1.887145
v 60.000000 -60.000000 8.709492
v 80.000000 -60.000000 16.049410
v 100.000000 -60.000000 23.411221
v 120.000000 -60.000000 31.015774
v 140.000000 -60.000000 38.638439
v 160.000000 -60.000000 45.996910
v -160.000000 -40.000000 -55.857727
v -140.000000 -40.000000 -52.395744
v -120.000000 -40.000000 -44.917652
v -100.000000 -40.000000 -36.104542
v -80.000000 -40.000000 -27.174263
v -60.000000 -40.000000 -19.546137
v -40.000000 -40.000000 -13.852601
v -20.000000 -40.000000 -9.606154
v 0.000000 -40.000000 -6.000272
v 20.000000 -40.000000 -1.684727
v 40.000000 -40.000000 3.454867
v 60.000000 -40.000000 9.781168
v 80.000000 -40.000000 17.152729
v 100.000000 -40.000000 25.095289
v 120.000000 -40.000000 33.373817
v 140.000000 -40.000000 41.069553
v 160.000000 -40.000000 49.010117
v -160.000000 -20.000000 -51.366386
v -140.000000 -20.000000 -45.077305
v -120.000000 -20.000000 -38.040272
v -100.000000 -20.000000 -30.300205
v -80.000000 -20.000000 -22.198996
v -60.000000 -20.000000 -15.005908
v -40.000000 -20.000000 -9.742019
v -20.000000 -20.000000 -6.001262
v 0.000000 -20.000000 -2.620132
v 20.000000 -20.000000 1.302130
v 40.000000 -20.000000 6.084519
v 60.000000 -20.000000 12.171433
v 80.000000 -20.000000 19.624727
v 100.000000 -20.000000 27.924593
v 120.000000 -20.000000 36.416637
v 140.000000 -20.000000 43.967419
v 160.000000 -20.000000 52.425846
v -160.000000 0.000000 -42.928310
v -140.000000 0.000000 -36.425388
v -120.000000 0.000000 -30.271532
v -100.000000 0.000000 -23.550571
v -80.000000 0.000000 -16.476557
v -60.000000 0.000000 -10.279080
v -40.000000 0.000000 -5.677478
v -20.000000 0.000000 -2.334039
v 0.000000 0.000000 0.710428
v 20.000000 0.000000 4.450472
v 40.000000 0.000000 9.375690
v 60.000000 0.000000 15.760877
v 80.000000 0.000000 23.553167
v 100.000000 0.000000 32.039185
v 120.000000 0.000000 40.281330
v 140.000000 0.000000 47.737961
v 160.000000 0.000000 55.975750
v -160.000000 20.000000 -35.391487
v -140.000000 20.000000 -29.141264
v -120.000000 20.000000 -23.638279
v -100.000000 20.000000 -17.804905
v -80.000000 20.000000 -11.822762
v -60.000000 20.000000 -6.623909
v -40.000000 20.000000 -2.821622
v -20.000000 20.000000 0.083712
v 0.000000 20.000000 3.072577
v 20.000000 20.000000 7.153252
v 40.000000 20.000000 12.922580
v 60.000000 20.000000 20.107698
v 80.000000 20.000000 28.320602
v 100.000000 20.000000 36.925034
v 120.000000 20.000000 44.999836
v 140.000000 20.000000 52.539768
v 160.000000 20.000000 60.334724
v -160.000000 40.000000 -29.678820
v -140.000000 40.000000 -23.665874
v -120.000000 40.000000 -18.547907
v -100.000000 40.000000 -13.294347
v -80.000000 40.000000 -8.234186
v -60.000000 40.000000 -3.989550
v -40.000000 40.000000 -1.073046
v -20.000000 40.000000 1.498412
v 0.000000 40.000000 4.820379
v 20.000000 40.000000 9.605183
v 40.000000 40.000000 16.280624
v 60.000000 40.000000 24.235270
v 80.000000 40.000000 32.876537
v 100.000000 40.000000 41.586891
v 120.000000 40.000000 49.714863
v 140.000000 40.000000 57.498352
v 160.000000 40.000000 64.963387
v -160.000000 60.000000 -27.328804
v -140.000000 60.000000 -21.245356
v -120.000000 60.000000 -15.789938
v -100.000000 60.000000 -10.737550
v -80.000000 60.000000 -6.340048
v -60.000000 60.000000 -3.171984
v -40.000000 60.000000 -0.875733
v -20.000000 60.000000 1.687031
v 0.000000 60.000000 6.067660
v 20.000000 60.000000 11.821125
v 40.000000 60.000000 18.961100
v 60.000000 60.000000 27.206772
v 80.000000 60.000000 36.097935
v 100.000000 60.000000 45.107544
v 120.000000 60.000000 53.496941
v 140.000000 60.000000 61.693596
v 160.000000 60.000000 67.392807
v -160.000000 80.000000 -27.081699
v -140.000000 80.000000 -20.228807
v -120.000000 80.000000 -14.406482
v -100.000000 80.000000 -9.981446
v -80.000000 80.000000 -6.637195
v -60.000000 80.000000 -3.723464
v -40.000000 80.000000 -1.370796
v -20.000000 80.000000 0.770114
v 0.000000 80.000000 5.153665
v 20.000000 80.000000 12.004930
v 40.000000 80.000000 19.788208
v 60.000000 80.000000 27.876017
v 80.000000 80.000000 36.398754
v 100.000000 80.000000 45.083591
v 120.000000 80.000000 53.603928
v 140.000000 80.000000 62.072823
v 160.000000 80.000000 69.089149
v -160.000000 100.000000 -28.439604
v -140.000000 100.000000 -20.302830
v -120.000000 100.000000 -14.275093
v -100.000000 100.000000 -10.669746
v -80.000000 100.000000 -8.224841
v -60.000000 100.000000 -5.117066
v -40.000000 100.000000 -2.055000
v -20.000000 100.000000 -0.275954
v 0.000000 100.000000 3.513576
v 20.000000 100.000000 11.250908
v 40.000000 100.000000 19.479933
v 60.000000 100.000000 27.178194
v 80.000000 100.000000 34.939674
v 100.000000 100.000000 43.163307
v 120.000000 100.000000 51.719868
v 140.000000 100.000000 60.394619
v 160.000000 100.000000 67.769783
v -160.000000 120.000000 -30.855097
v -140.000000 120.000000 -21.899143
v -120.000000 120.000000 -15.868985
v -100.000000 120.000000 -12.745430
v -80.000000 120.000000 -10.355246
v -60.000000 120.000000 -6.705052
v -40.000000 120.000000 -2.802518
v -20.000000 120.000000 -0.736417
v 0.000000 120.000000 2.612846
v 20.000000 120.000000 10.336615
v 40.000000 120.000000 18.245916
v 60.000000 120.000000 25.078720
v 80.000000 120.000000 32.099709
v 100.000000 120.000000 39.917698
v 120.000000 120.000000 48.527504
v 140.000000 120.000000 57.248379
v 160.000000 120.000000 65.445175
v -160.000000 140.000000 -34.148785
v -140.000000 140.000000 -24.768908
v -120.000000 140.000000 -18.378874
v -100.000000 140.000000 -15.212580
v -80.000000 140.000000 -12.386909
v -60.000000 140.000000 -8.130413
v -40.000000 140.000000 -3.722454
v -20.000000 140.000000 -1.191278
v 0.000000 140.000000 2.085543
v 20.000000 140.000000 9.162122
v 40.000000 140.000000 16.243122
v 60.000000 140.000000 22.368719
v 80.000000 140.000000 28.969753
v 100.000000 140.000000 36.885387
v 120.000000 140.000000 45.595531
v 140.000000 140.000000 54.252563
v 160.000000 140.000000 62.073402
v -160.000000 160.000000 -37.728027
v -140.000000 160.000000 -28.397482
v -120.000000 160.000000 -21.354378
v -100.000000 160.000000 -17.748001
v -80.000000 160.000000 -14.454659
v -60.000000 160.000000 -9.873122
v -40.000000 160.000000 -5.178841
v -20.000000 160.000000 -1.914497
v 0.000000 160.000000 1.537536
v 20.000000 160.000000 7.791503
v 40.000000 160.000000 14.039855
v 60.000000 160.000000 19.765509
v 80.000000 160.000000 26.210794
v 100.000000 160.000000 34.058186
v 120.000000 160.000000 42.626232
v 140.000000 160.000000 50.898865
v 160.000000 160.000000 58.352570
vn 0.4210 -0.0339 0.9064
vn 0.0535 -0.0823 0.9952
vn 0.0371 -0.0568 0.9977
vn 0.4047 -0.0699 0.9118
vn -0.2263 -0.1452 0.9632
vn -0.3020 -0.0334 0.9527
vn -0.2295 -0.2695 0.9353
vn -0.3644 -0.1580 0.9177
vn -0.1866 -0.3975 0.8984
vn -0.3168 -0.3055 0.8980
vn -0.1921 -0.4837 0.8539
vn -0.2735 -0.3932 0.8778
vn -0.2440 -0.5190 0.8192
vn -0.2716 -0.4049 0.8731
vn -0.3163 -0.5061 0.8024
vn -0.2938 -0.3747 0.8794
vn -0.3740 -0.4350 0.8191
vn -0.3150 -0.3101 0.8970
vn -0.3656 -0.3530 0.8612
vn -0.3173 -0.2540 0.9137
vn -0.3172 -0.3019 0.8990
vn -0.3046 -0.2470 0.9199
vn -0.2783 -0.2953 0.9140
vn -0.2847 -0.2579 0.9233
vn -0.2339 -0.3023 0.9241
vn -0.2406 -0.2700 0.9323
vn -0.1670 -0.2950 0.9408
vn -0.1673 -0.2855 0.9437
vn -0.1376 -0.2816 0.9496
vn -0.1370 -0.3007 0.9438
vn -0.1839 -0.2765 0.9433
vn -0.1828 -0.3099 0.9330
vn -0.2276 -0.2771 0.9335
vn -0.2271 -0.3081 0.9238
vn 0.0948 -0.0553 0.9940
vn 0.4070 -0.0704 0.9107
vn -0.3304 -0.0132 0.9437
vn -0.4806 -0.0832 0.8730
vn -0.4276 -0.1872 0.8844
vn -0.3183 -0.2555 0.9129
vn -0.2572 -0.2569 0.9316
vn -0.2603 -0.2105 0.9423
vn -0.2911 -0.1582 0.9435
vn -0.3252 -0.1335 0.9362
vn -0.3303 -0.1452 0.9326
vn -0.3052 -0.1651 0.9379
vn -0.2619 -0.1843 0.9473
vn -0.1976 -0.2149 0.9564
vn -0.1657 -0.2661 0.9496
vn -0.1954 -0.3082 0.9310
vn -0.2329 -0.3265 0.9161
vn 0.0996 -0.0878 0.9911
vn 0.3913 -0.0418 0.9193
vn -0.3342 -0.1009 0.9371
vn -0.5087 -0.0974 0.8554
vn -0.4704 -0.1112 0.8754
vn -0.3480 -0.1437 0.9264
vn -0.2439 -0.1554 0.9573
vn -0.2189 -0.1242 0.9678
vn -0.2599 -0.0807 0.9623
vn -0.3176 -0.0536 0.9467
vn -0.3418 -0.0423 0.9388
vn -0.3276 -0.0510 0.9434
vn -0.2925 -0.0743 0.9534
vn -0.2528 -0.1105 0.9612
vn -0.2396 -0.1845 0.9532
vn -0.2542 -0.2497 0.9344
vn -0.2683 -0.2940 0.9174
vn 0.0330 -0.0951 0.9949
vn 0.3342 0.0488 0.9412
vn -0.3452 -0.1883 0.9195
vn -0.4902 -0.1395 0.8604
vn -0.4626 -0.0925 0.8817
vn -0.3574 -0.0717 0.9312
vn -0.2412 -0.0786 0.9673
vn -0.1934 -0.0828 0.9776
vn -0.2299 -0.0591 0.9714
vn -0.2950 -0.0286 0.9551
vn -0.3321 0.0057 0.9432
vn -0.3370 0.0168 0.9413
vn -0.3196 -0.0006 0.9475
vn -0.3066 -0.0408 0.9510
vn -0.3088 -0.1056 0.9452
vn -0.3149 -0.1610 0.9354
vn -0.3197 -0.2066 0.9247
vn -0.1517 -0.1833 0.9713
vn 0.1845 0.0263 0.9825
vn -0.3774 -0.2495 0.8918
vn -0.4351 -0.1940 0.8792
vn -0.4081 -0.1386 0.9024
vn -0.3302 -0.1031 0.9383
vn -0.2526 -0.0989 0.9625
vn -0.2004 -0.1062 0.9739
vn -0.2096 -0.0985 0.9728
vn -0.2580 -0.0677 0.9638
vn -0.3017 -0.0274 0.9530
vn -0.3338 -0.0050 0.9426
vn -0.3450 -0.0124 0.9385
vn -0.3500 -0.0475 0.9355
vn -0.3543 -0.0897 0.9308
vn -0.3558 -0.1145 0.9275
vn -0.3633 -0.1379 0.9214
vn -0.2517 -0.2993 0.9204
vn -0.0456 -0.1439 0.9885
vn -0.3614 -0.2863 0.8874
vn -0.3936 -0.2409 0.8872
vn -0.3746 -0.2024 0.9048
vn -0.3104 -0.1878 0.9319
vn -0.2374 -0.1749 0.9555
vn -0.1903 -0.1592 0.9687
vn -0.1920 -0.1507 0.9697
vn -0.2282 -0.1268 0.9653
vn -0.2742 -0.1004 0.9564
vn -0.3229 -0.0816 0.9429
vn -0.3563 -0.0832 0.9307
vn -0.3738 -0.1040 0.9217
vn -0.3680 -0.1244 0.9215
vn -0.3606 -0.1232 0.9245
vn -0.3752 -0.1264 0.9183
vn -0.2956 -0.3541 0.8872
vn -0.2326 -0.2991 0.9254
vn -0.3277 -0.3248 0.8872
vn -0.3537 -0.2803 0.8924
vn -0.3464 -0.2423 0.9062
vn -0.2903 -0.2160 0.9323
vn -0.2152 -0.1956 0.9568
vn -0.1726 -0.1762 0.9691
vn -0.1770 -0.1626 0.9707
vn -0.2103 -0.1482 0.9663
vn -0.2596 -0.1414 0.9553
vn -0.3175 -0.1402 0.9378
vn -0.3626 -0.1475 0.9202
vn -0.3822 -0.1581 0.9104
vn -0.3675 -0.1582 0.9164
vn -0.3560 -0.1537 0.9218
vn -0.3745 -0.1516 0.9148
vn -0.2820 -0.3551 0.8913
vn -0.2832 -0.3557 0.8907
vn -0.2897 -0.3239 0.9007
vn -0.3127 -0.2832 0.9066
vn -0.3056 -0.2389 0.9217
vn -0.2555 -0.1983 0.9463
vn -0.1922 -0.1674 0.9670
vn -0.1559 -0.1485 0.9765
vn -0.1656 -0.1390 0.9764
vn -0.2096 -0.1415 0.9675
vn -0.2685 -0.1623 0.9495
vn -0.3284 -0.1842 0.9264
vn -0.3695 -0.1974 0.9080
vn -0.3778 -0.2033 0.9033
vn -0.3583 -0.1959 0.9128
vn -0.3508 -0.1962 0.9157
vn -0.3671 -0.1943 0.9097
vn -0.2696 -0.2927 0.9174
vn -0.3006 -0.2999 0.9054
vn -0.2624 -0.2714 0.9260
vn -0.2751 -0.2387 0.9313
vn -0.2642 -0.1948 0.9446
vn -0.2169 -0.1517 0.9643
vn -0.1643 -0.1128 0.9799
vn -0.1451 -0.0944 0.9849
vn -0.1732 -0.1007 0.9797
vn -0.2373 -0.1242 0.9635
vn -0.3040 -0.1620 0.9388
vn -0.3524 -0.1940 0.9155
vn -0.3789 -0.2100 0.9013
vn -0.3758 -0.2151 0.9014
vn -0.3552 -0.2146 0.9098
vn -0.3505 -0.2220 0.9099
vn -0.3568 -0.2174 0.9085
vn -0.2634 -0.1868 0.9464
vn -0.2973 -0.1887 0.9360
vn -0.2466 -0.1866 0.9510
vn -0.2460 -0.1685 0.9545
vn -0.2246 -0.1323 0.9654
vn -0.1756 -0.0847 0.9808
vn -0.1358 -0.0482 0.9896
vn -0.1457 -0.0396 0.9885
vn -0.1981 -0.0732 0.9774
vn -0.2737 -0.1115 0.9553
vn -0.3401 -0.1403 0.9299
vn -0.3781 -0.1617 0.9115
vn -0.3918 -0.1756 0.9032
vn -0.3812 -0.1852 0.9058
vn -0.3626 -0.1937 0.9116
vn -0.3526 -0.2087 0.9122
vn -0.3436 -0.1998 0.9176
vn -0.2763 -0.0823 0.9576
vn -0.2992 -0.0618 0.9522
vn -0.2528 -0.0996 0.9624
vn -0.2292 -0.0803 0.9701
vn -0.1857 -0.0392 0.9818
vn -0.1353 -0.0066 0.9908
vn -0.1206 0.0074 0.9927
vn -0.1709 0.0179 0.9851
vn -0.2457 -0.0083 0.9693
vn -0.3063 -0.0570 0.9502
vn -0.3578 -0.0815 0.9302
vn -0.3924 -0.0833 0.9160
vn -0.4072 -0.0801 0.9098
vn -0.3976 -0.0799 0.9141
vn -0.3815 -0.0895 0.9200
vn -0.3617 -0.1059 0.9262
vn -0.3265 -0.1097 0.9388
vn -0.3020 -0.0224 0.9530
vn -0.3390 0.0261 0.9404
vn -0.2480 -0.0367 0.9681
vn -0.1906 -0.0016 0.9817
vn -0.1544 0.0465 0.9869
vn -0.1304 0.0481 0.9903
vn -0.1116 0.0293 0.9933
vn -0.1608 0.0484 0.9858
vn -0.2699 0.0613 0.9609
vn -0.3436 0.0134 0.9390
vn -0.3688 -0.0121 0.9294
vn -0.3835 0.0007 0.9235
vn -0.3948 0.0268 0.9184
vn -0.3947 0.0446 0.9177
vn -0.3907 0.0408 0.9196
vn -0.3761 0.0301 0.9261
vn -0.3477 0.0108 0.9375
vn -0.3335 0.0393 0.9419
vn -0.3990 0.0861 0.9129
vn -0.2340 0.0355 0.9716
vn -0.1492 0.0682 0.9865
vn -0.1369 0.0917 0.9863
vn -0.1520 0.0735 0.9856
vn -0.1200 0.0355 0.9921
vn -0.1377 0.0373 0.9898
vn -0.2764 0.0609 0.9591
vn -0.3704 0.0387 0.9281
vn -0.3697 0.0358 0.9285
vn -0.3597 0.0651 0.9308
vn -0.3693 0.0993 0.9240
vn -0.3841 0.1182 0.9157
vn -0.3930 0.1156 0.9122
vn -0.3876 0.1104 0.9152
vn -0.3740 0.0964 0.9224
vn -0.3490 0.1040 0.9314
vn -0.4234 0.1280 0.8969
vn -0.2219 0.0995 0.9700
vn -0.1357 0.1118 0.9844
vn -0.1485 0.1023 0.9836
vn -0.1848 0.0741 0.9800
vn -0.1474 0.0412 0.9882
vn -0.1341 0.0227 0.9907
vn -0.2666 0.0344 0.9632
vn -0.3636 0.0486 0.9303
vn -0.3448 0.0757 0.9356
vn -0.3252 0.1129 0.9389
vn -0.3445 0.1386 0.9285
vn -0.3760 0.1437 0.9154
vn -0.3937 0.1391 0.9087
vn -0.3901 0.1397 0.9101
vn -0.3861 0.1424 0.9114
vn -0.3627 0.1495 0.9198
vn -0.4189 0.1539 0.8949
vn -0.2303 0.1322 0.9641
vn -0.1470 0.1227 0.9815
vn -0.1734 0.1004 0.9797
vn -0.2110 0.0772 0.9744
vn -0.1707 0.0584 0.9836
vn -0.1436 0.0292 0.9892
vn -0.2505 0.0260 0.9678
vn -0.3330 0.0599 0.9410
vn -0.3120 0.0994 0.9449
vn -0.3008 0.1256 0.9454
vn -0.3380 0.1370 0.9311
vn -0.3803 0.1341 0.9151
vn -0.3947 0.1341 0.9090
vn -0.3834 0.1448 0.9122
vn -0.3761 0.1598 0.9127
vn -0.3744 0.1532 0.9145
vn -0.3978 0.1345 0.9076
vn -0.2545 0.1458 0.9560
vn -0.1685 0.1305 0.9770
vn -0.1918 0.1189 0.9742
vn -0.2244 0.1168 0.9675
vn -0.1942 0.0980 0.9761
vn -0.1654 0.0496 0.9850
vn -0.2356 0.0392 0.9711
vn -0.2976 0.0680 0.9523
vn -0.2857 0.0862 0.9544
vn -0.2899 0.0912 0.9527
vn -0.3348 0.1004 0.9369
vn -0.3769 0.1213 0.9183
vn -0.3835 0.1531 0.9108
vn -0.3661 0.1810 0.9128
vn -0.3572 0.1950 0.9134
vt 0.015625 0.015625
vt 0.076172 0.015625
vt 0.076172 0.076172
vt 0.015625 0.076172
vt 0.136719 0.015625
vt 0.136719 0.076172
vt 0.197266 0.015625
vt 0.197266 0.076172
vt 0.257812 0.015625
vt 0.257812 0.076172
vt 0.318359 0.015625
vt 0.318359 0.076172
vt 0.378906 0.015625
vt 0.378906 0.076172
vt 0.439453 0.015625
vt 0.439453 0.076172
vt 0.500000 0.015625
vt 0.500000 0.076172
vt 0.560547 0.015625
vt 0.560547 0.076172
vt 0.621094 0.015625
vt 0.621094 0.076172
vt 0.681641 0.015625
vt 0.681641 0.076172
vt 0.742188 0.015625
vt 0.742188 0.076172
vt 0.802734 0.015625
vt 0.802734 0.076172
vt 0.863281 0.015625
vt 0.863281 0.076172
vt 0.923828 0.015625
vt 0.923828 0.076172
vt 0.984375 0.015625
vt 0.984375 0.076172
vt 0.076172 0.136719
vt 0.015625 0.136719
vt 0.136719 0.136719
vt 0.197266 0.136719
vt 0.257812 0.136719
vt 0.318359 0.136719
vt 0.378906 0.136719
vt 0.439453 0.136719
vt 0.500000 0.136719
vt 0.560547 0.136719
vt 0.621094 0.136719
vt 0.681641 0.136719
vt 0.742188 0.136719
vt 0.802734 0.136719
vt 0.863281 0.136719
vt 0.923828 0.136719
vt 0.984375 0.136719
vt 0.076172 0.197266
vt 0.015625 0.197266
vt 0.136719 0.197266
vt 0.197266 0.197266
vt 0.257812 0.197266
vt 0.318359 0.197266
vt 0.378906 0.197266
vt 0.439453 0.197266
vt 0.500000 0.197266
vt 0.560547 0.197266
vt 0.621094 0.197266
vt 0.681641 0.197266
vt 0.742188 0.197266
vt 0.802734 0.197266
vt 0.863281 0.197266
vt 0.923828 0.197266
vt 0.984375 0.197266
vt 0.076172 0.257812
vt 0.015625 0.257812
vt 0.136719 0.257812
vt 0.197266 0.257812
vt 0.257812 0.257812
vt 0.318359 0.257812
vt 0.378906 0.257812
vt 0.439453 0.257812
vt 0.500000 0.257812
vt 0.560547 0.257812
vt 0.621094 0.257812
vt 0.681641 0.257812
vt 0.742188 0.257812
vt 0.802734 0.257812
vt 0.863281 0.257812
vt 0.923828 0.257812
vt 0.984375 0.257812
vt 0.076172 0.318359
vt 0.015625 0.318359
vt 0.136719 0.318359
vt 0.197266 0.318359
vt 0.257812 0.318359
vt 0.318359 0.318359
vt 0.378906 0.318359
vt 0.439453 0.318359
vt 0.500000 0.318359
vt 0.560547 0.318359
vt 0.621094 0.318359
vt 0.681641 0.318359
vt 0.742188 0.318359
vt 0.802734 0.318359
vt 0.863281 0.318359
vt 0.923828 0.318359
vt 0.984375 0.318359
vt 0.076172 0.378906
vt 0.015625 0.378906
vt 0.136719 0.378906
vt 0.197266 0.378906
vt 0.257812 0.378906
vt 0.318359 0.378906
vt 0.378906 0.378906
vt 0.439453 0.378906
vt 0.500000 0.378906
vt 0.560547 0.378906
vt 0.621094 0.378906
vt 0.681641 0.378906
vt 0.742188 0.378906
vt 0.802734 0.378906
vt 0.863281 0.378906
vt 0.923828 0.378906
vt 0.984375 0.378906
vt 0.076172 0.439453
vt 0.015625 0.439453
vt 0.136719 0.439453
vt 0.197266 0.439453
vt 0.257812 0.439453
vt 0.318359 0.439453
vt 0.378906 0.439453
vt 0.439453 0.439453
vt 0.500000 0.439453
vt 0.560547 0.439453
vt 0.621094 0.439453
vt 0.681641 0.439453
vt 0.742188 0.439453
vt 0.802734 0.439453
vt 0.863281 0.439453
vt 0.923828 0.439453
vt 0.984375 0.439453
vt 0.076172 0.500000
vt 0.015625 0.500000
vt 0.136719 0.500000
vt 0.197266 0.500000
vt 0.257812 0.500000
vt 0.318359 0.500000
vt 0.378906 0.500000
vt 0.439453 0.500000
vt 0.500000 0.500000
vt 0.560547 0.500000
vt 0.621094 0.500000
vt 0.681641 0.500000
vt 0.742188 0.500000
vt 0.802734 0.500000
vt 0.863281 0.500000
vt 0.923828 0.500000
vt 0.984375 0.500000
vt 0.076172 0.560547
vt 0.015625 0.560547
vt 0.136719 0.560547
vt 0.197266 0.560547
vt 0.257812 0.560547
vt 0.318359 0.560547
vt 0.378906 0.560547
vt 0.439453 0.560547
vt 0.500000 0.560547
vt 0.560547 0.560547
vt 0.621094 0.560547
vt 0.681641 0.560547
vt 0.742188 0.560547
vt 0.802734 0.560547
vt 0.863281 0.560547
vt 0.923828 0.560547
vt 0.984375 0.560547
vt 0.076172 0.621094
vt 0.015625 0.621094
vt 0.136719 0.621094
vt 0.197266 0.621094
vt 0.257812 0.621094
vt 0.318359 0.621094
vt 0.378906 0.621094
vt 0.439453 0.621094
vt 0.500000 0.621094
vt 0.560547 0.621094
vt 0.621094 0.621094
vt 0.681641 0.621094
vt 0.742188 0.621094
vt 0.802734 0.621094
vt 0.863281 0.621094
vt 0.923828 0.621094
vt 0.984375 0.621094
vt 0.076172 0.681641
vt 0.015625 0.681641
vt 0.136719 0.681641
vt 0.197266 0.681641
vt 0.257812 0.681641
vt 0.318359 0.681641
vt 0.378906 0.681641
vt 0.439453 0.681641
vt 0.500000 0.681641
vt 0.560547 0.681641
vt 0.621094 0.681641
vt 0.681641 0.681641
vt 0.742188 0.681641
vt 0.802734 0.681641
vt 0.863281 0.681641
vt 0.923828 0.681641
vt 0.984375 0.681641
vt 0.076172 0.742188
vt 0.015625 0.742188
vt 0.136719 0.742188
vt 0.197266 0.742188
vt 0.257812 0.742188
vt 0.318359 0.742188
vt 0.378906 0.742188
vt 0.439453 0.742188
vt 0.500000 0.742188
vt 0.560547 0.742188
vt 0.621094 0.742188
vt 0.681641 0.742188
vt 0.742188 0.742188
vt 0.802734 0.742188
vt 0.863281 0.742188
vt 0.923828 0.742188
vt 0.984375 0.742188
vt 0.076172 0.802734
vt 0.015625 0.802734
vt 0.136719 0.802734
vt 0.197266 0.802734
vt 0.257812 0.802734
vt 0.318359 0.802734
vt 0.378906 0.802734
vt 0.439453 0.802734
vt 0.500000 0.802734
vt 0.560547 0.802734
vt 0.621094 0.802734
vt 0.681641 0.802734
vt 0.742188 0.802734
vt 0.802734 0.802734
vt 0.863281 0.802734
vt 0.923828 0.802734
vt 0.984375 0.802734
vt 0.076172 0.863281
vt 0.015625 0.863281
vt 0.136719 0.863281
vt 0.197266 0.863281
vt 0.257812 0.863281
vt 0.318359 0.863281
vt 0.378906 0.863281
vt 0.439453 0.863281
vt 0.500000 0.863281
vt 0.560547 0.863281
vt 0.621094 0.863281
vt 0.681641 0.863281
vt 0.742188 0.863281
vt 0.802734 0.863281
vt 0.863281 0.863281
vt 0.923828 0.863281
vt 0.984375 0.863281
vt 0.076172 0.923828
vt 0.015625 0.923828
vt 0.136719 0.923828
vt 0.197266 0.923828
vt 0.257812 0.923828
vt 0.318359 0.923828
vt 0.378906 0.923828
vt 0.439453 0.923828
vt 0.500000 0.923828
vt 0.560547 0.923828
vt 0.621094 0.923828
vt 0.681641 0.923828
vt 0.742188 0.923828
vt 0.802734 0.923828
vt 0.863281 0.923828
vt 0.923828 0.923828
vt 0.984375 0.923828
vt 0.076172 0.984375
vt 0.015625 0.984375
vt 0.136719 0.984375
vt 0.197266 0.984375
vt 0.257812 0.984375
vt 0.318359 0.984375
vt 0.378906 0.984375
vt 0.439453 0.984375
vt 0.500000 0.984375
vt 0.560547 0.984375
vt 0.621094 0.984375
vt 0.681641 0.984375
vt 0.742188 0.984375
vt 0.802734 0.984375
vt 0.863281 0.984375
vt 0.923828 0.984375
vt 0.984375 0.984375
s 1
f 1/1/1 2/2/2 19/3/3
f 1/1/1 19/3/3 18/4/4
f 2/2/2 3/5/5 20/6/6
f 2/2/2 20/6/6 19/3/3
f 3/5/5 4/7/7 21/8/8
f 3/5/5 21/8/8 20/6/6
f 4/7/7 5/9/9 22/10/10
f 4/7/7 22/10/10 21/8/8
f 5/9/9 6/11/11 23/12/12
f 5/9/9 23/12/12 22/10/10
f 6/11/11 7/13/13 24/14/14
f 6/11/11 24/14/14 23/12/12
f 7/13/13 8/15/15 25/16/16
f 7/13/13 25/16/16 24/14/14
f 8/15/15 9/17/17 26/18/18
f 8/15/15 26/18/18 25/16/16
f 9/17/17 10/19/19 27/20/20
f 9/17/17 27/20/20 26/18/18
f 10/19/19 11/21/21 28/22/22
f 10/19/19 28/22/22 27/20/20
f 11/21/21 12/23/23 29/24/24
f 11/21/21 29/24/24 28/22/22
f 12/23/23 13/25/25 30/26/26
f 12/23/23 30/26/26 29/24/24
f 13/25/25 14/27/27 31/28/28
f 13/25/25 31/28/28 30/26/26
f 14/27/27 15/29/29 32/30/30
f 14/27/27 32/30/30 31/28/28
f 15/29/29 16/31/31 33/32/32
f 15/29/29 33/32/32 32/30/30
f 16/31/31 17/33/33 34/34/34
f 16/31/31 34/34/34 33/32/32
f 18/4/4 19/3/3 36/35/35
f 18/4/4 36/35/35 35/36/36
f 19/3/3 20/6/6 37/37/37
f 19/3/3 37/37/37 36/35/35
f 20/6/6 21/8/8 38/38/38
f 20/6/6 38/38/38 37/37/37
f 21/8/8 22/10/10 39/39/39
f 21/8/8 39/39/39 38/38/38
f 22/10/10 23/12/12 40/40/40
f 22/10/10 40/40/40 39/39/39
f 23/12/12 24/14/14 41/41/41
f 23/12/12 41/41/41 40/40/40
f 24/14/14 25/16/16 42/42/42
f 24/14/14 42/42/42 41/41/41
f 25/16/16 26/18/18 43/43/43
f 25/16/16 43/43/43 42/42/42
f 26/18/18 27/20/20 44/44/44
f 26/18/18 44/44/44 43/43/43
f 27/20/20 28/22/22 45/45/45
f 27/20/20 45/45/45 44/44/44
f 28/22/22 29/24/24 46/46/46
f 28/22/22 46/46/46 45/45/45
f 29/24/24 30/26/26 47/47/47
f 29/24/24 47/47/47 46/46/46
f 30/26/26 31/28/28 48/48/48
f 30/26/26 48/48/48 47/47/47
f 31/28/28 32/30/30 49/49/49
f 31/28/28 49/49/49 48/48/48
f 32/30/30 33/32/32 50/50/50
f 32/30/30 50/50/50 49/49/49
f 33/32/32 34/34/34 51/51/51
f 33/32/32 51/51/51 50/50/50
f 35/36/36 36/35/35 53/52/52
f 35/36/36 53/52/52 52/53/53
f 36/35/35 37/37/37 54/54/54
f 36/35/35 54/54/54 53/52/52
f 37/37/37 38/38/38 55/55/55
f 37/37/37 55/55/55 54/54/54
f 38/38/38 39/39/39 56/56/56
f 38/38/38 56/56/56 55/55/55
f 39/39/39 40/40/40 57/57/57
f 39/39/39 57/57/57 56/56/56
f 40/40/40 41/41/41 58/58/58
f 40/40/40 58/58/58 57/57/57
f 41/41/41 42/42/42 59/59/59
f 41/41/41 59/59/59 58/58/58
f 42/42/42 43/43/43 60/60/60
f 42/42/42 60/60/60 59/59/59
f 43/43/43 44/44/44 61/61/61
f 43/43/43 61/61/61 60/60/60
f 44/44/44 45/45/45 62/62/62
f 44/44/44 62/62/62 61/61/61
f 45/45/45 46/46/46 63/63/63
f 45/45/45 63/63/63 62/62/62
f 46/46/46 47/47/47 64/64/64
f 46/46/46 64/64/64 63/63/63
f 47/47/47 48/48/48 65/65/65
f 47/47/47 65/65/65 64/64/64
f 48/48/48 49/49/49 66/66/66
f 48/48/48 66/66/66 65/65/65
f 49/49/49 50/50/50 67/67/67
f 49/49/49 67/67/67 66/66/66
f 50/50/50 51/51/51 68/68/68
f 50/50/50 68/68/68 67/67/67
f 52/53/53 53/52/52 70/69/69
f 52/53/53 70/69/69 69/70/70
f 53/52/52 54/54/54 71/71/71
f 53/52/52 71/71/71 70/69/69
f 54/54/54 55/55/55 72/72/72
f 54/54/54 72/72/72 71/71/71
f 55/55/55 56/56/56 73/73/73
f 55/55/55 73/73/73 72/72/72
f 56/56/56 57/57/57 74/74/74
f 56/56/56 74/74/74 73/73/73
f 57/57/57 58/58/58 75/75/75
f 57/57/57 75/75/75 74/74/74
f 58/58/58 59/59/59 76/76/76
f 58/58/58 76/76/76 75/75/75
f 59/59/59 60/60/60 77/77/77
f 59/59/59 77/77/77 76/76/76
f 60/60/60 61/61/61 78/78/78
f 60/60/60 78/78/78 77/77/77
f 61/61/61 62/62/62 79/79/79
f 61/61/61 79/79/79 78/78/78
f 62/62/62 63/63/63 80/80/80
f 62/62/62 80/80/80 79/79/79
f 63/63/63 64/64/64 81/81/81
f 63/63/63 81/81/81 80/80/80
f 64/64/64 65/65/65 82/82/82
f 64/64/64 82/82/82 81/81/81
f 65/65/65 66/66/66 83/83/83
f 65/65/65 83/83/83 82/82/82
f 66/66/66 67/67/67 84/84/84
f 66/66/66 84/84/84 83/83/83
f 67/67/67 68/68/68 85/85/85
f 67/67/67 85/85/85 84/84/84
f 69/70/70 70/69/69 87/86/86
f 69/70/70 87/86/86 86/87/87
f 70/69/69 71/71/71 88/88/88
f 70/69/69 88/88/88 87/86/86
f 71/71/71 72/72/72 89/89/89
f 71/71/71 89/89/89 88/88/88
f 72/72/72 73/73/73 90/90/90
f 72/72/72 90/90/90 89/89/89
f 73/73/73 74/74/74 91/91/91
f 73/73/73 91/91/91 90/90/90
f 74/74/74 75/75/75 92/92/92
f 74/74/74 92/92/92 91/91/91
f 75/75/75 76/76/76 93/93/93
f 75/75/75 93/93/93 92/92/92
f 76/76/76 77/77/77 94/94/94
f 76/76/76 94/94/94 93/93/93
f 77/77/77 78/78/78 95/95/95
f 77/77/77 95/95/95 94/94/94
f 78/78/78 79/79/79 96/96/96
f 78/78/78 96/96/96 95/95/95
f 79/79/79 80/80/80 97/97/97
f 79/79/79 97/97/97 96/96/96
f 80/80/80 81/81/81 98/98/98
f 80/80/80 98/98/98 97/97/97
f 81/81/81 82/82/82 99/99/99
f 81/81/81 99/99/99 98/98/98
f 82/82/82 83/83/83 100/100/100
f 82/82/82 100/100/100 99/99/99
f 83/83/83 84/84/84 101/101/101
f 83/83/83 101/101/101 100/100/100
f 84/84/84 85/85/85 102/102/102
f 84/84/84 102/102/102 101/101/101
f 86/87/87 87/86/86 104/103/103
f 86/87/87 104/103/103 103/104/104
f 87/86/86 88/88/88 105/105/105
f 87/86/86 105/105/105 104/103/103
f 88/88/88 89/89/89 106/106/106
f 88/88/88 106/106/106 105/105/105
f 89/89/89 90/90/90 107/107/107
f 89/89/89 107/107/107 106/106/106
f 90/90/90 91/91/91 108/108/108
f 90/90/90 108/108/108 107/107/107
f 91/91/91 92/92/92 109/109/109
f 91/91/91 109/109/109 108/108/108
f 92/92/92 93/93/93 110/110/110
f 92/92/92 110/110/110 109/109/109
f 93/93/93 94/94/94 111/111/111
f 93/93/93 111/111/111 110/110/110
f 94/94/94 95/95/95 112/112/112
f 94/94/94 112/112/112 111/111/111
f 95/95/95 96/96/96 113/113/113
f 95/95/95 113/113/113 112/112/112
f 96/96/96 97/97/97 114/114/114
f 96/96/96 114/114/114 113/113/113
f 97/97/97 98/98/98 115/115/115
f 97/97/97 115/115/115 114/114/114
f 98/98/98 99/99/99 116/116/116
f 98/98/98 116/116/116 115/115/115
f 99/99/99 100/100/100 117/117/117
f 99/99/99 117/117/117 116/116/116
f 100/100/100 101/101/101 118/118/118
f 100/100/100 118/118/118 117/117/117
f 101/101/101 102/102/102 119/119/119
f 101/101/101 119/119/119 118/118/118
f 103/104/104 104/103/103 121/120/120
f 103/104/104 121/120/120 120/121/121
f 104/103/103 105/105/105 122/122/122
f 104/103/103 122/122/122 121/120/120
f 105/105/105 106/106/106 123/123/123
f 105/105/105 123/123/123 122/122/122
f 106/106/106 107/107/107 124/124/124
f 106/106/106 124/124/124 123/123/123
f 107/107/107 108/108/108 125/125/125
f 107/107/107 125/125/125 124/124/124
f 108/108/108 109/109/109 126/126/126
f 108/108/108 126/126/126 125/125/125
f 109/109/109 110/110/110 127/127/127
f 109/109/109 127/127/127 126/126/126
f 110/110/110 111/111/111 128/128/128
f 110/110/110 128/128/128 127/127/127
f 111/111/111 112/112/112 129/129/129
f 111/111/111 129/129/129 128/128/128
f 112/112/112 113/113/113 130/130/130
f 112/112/112 130/130/130 129/129/129
f 113/113/113 114/114/114 131/131/131
f 113/113/113 131/131/131 130/130/130
f 114/114/114 115/115/115 132/132/132
f 114/114/114 132/132/132 131/131/131
f 115/115/115 116/116/116 133/133/133
f 115/115/115 133/133/133 132/132/132
f 116/116/116 117/117/117 134/134/134
f 116/116/116 134/134/134 133/133/133
f 117/117/117 118/118/118 135/135/135
f 117/117/117 135/135/135 134/134/134
f 118/118/118 119/119/119 136/136/136
f 118/118/118 136/136/136 135/135/135
f 120/121/121 121/120/120 138/137/137
f 120/121/121 138/137/137 137/138/138
f 121/120/120 122/122/122 139/139/139
f 121/120/120 139/139/139 138/137/137
f 122/122/122 123/123/123 140/140/140
f 122/122/122 140/140/140 139/139/139
f 123/123/123 124/124/124 141/141/141
f 123/123/123 141/141/141 140/140/140
f 124/124/124 125/125/125 142/142/142
f 124/124/124 142/142/142 141/141/141
f 125/125/125 126/126/126 143/143/143
f 125/125/125 143/143/143 142/142/142
f 126/126/126 127/127/127 144/144/144
f 126/126/126 144/144/144 143/143/143
f 127/127/127 128/128/128 145/145/145
f 127/127/127 145/145/145 144/144/144
f 128/128/128 129/129/129 146/146/146
f 128/128/128 146/146/146 145/145/145
f 129/129/129 130/130/130 147/147/147
f 129/129/129 147/147/147 146/146/146
f 130/130/130 131/131/131 148/148/148
f 130/130/130 148/148/148 147/147/147
f 131/131/131 132/132/132 149/149/149
f 131/131/131 149/149/149 148/148/148
f 132/132/132 133/133/133 150/150/150
f 132/132/132 150/150/150 149/149/149
f 133/133/133 134/134/134 151/151/151
f 133/133/133 151/151/151 150/150/150
f 134/134/134 135/135/135 152/152/152
f 134/134/134 152/152/152 151/151/151
f 135/135/135 136/136/136 153/153/153
f 135/135/135 153/153/153 152/152/152
f 137/138/138 138/137/137 155/154/154
f 137/138/138 155/154/154 154/155/155
f 138/137/137 139/139/139 156/156/156
f 138/137/137 156/156/156 155/154/154
f 139/139/139 140/140/140 157/157/157
f 139/139/139 157/157/157 156/156/156
f 140/140/140 141/141/141 158/158/158
f 140/140/140 158/158/158 157/157/157
f 141/141/141 142/142/142 159/159/159
f 141/141/141 159/159/159 158/158/158
f 142/142/142 143/143/143 160/160/160
f 142/142/142 160/160/160 159/159/159
f 143/143/143 144/144/144 161/161/161
f 143/143/143 161/161/161 160/160/160
f 144/144/144 145/145/145 162/162/162
f 144/144/144 162/162/162 161/161/161
f 145/145/145 146/146/146 163/163/163
f 145/145/145 163/163/163 162/162/162
f 146/146/146 147/147/147 164/164/164
f 146/146/146 164/164/164 163/163/163
f 147/147/147 148/148/148 165/165/165
f 147/147/147 165/165/165 164/164/164
f 148/148/148 149/149/149 166/166/166
f 148/148/148 166/166/166 165/165/165
f 149/149/149 150/150/150 167/167/167
f 149/149/149 167/167/167 166/166/166
f 150/150/150 151/151/151 168/168/168
f 150/150/150 168/168/168 167/167/167
f 151/151/151 152/152/152 169/169/169
f 151/151/151 169/169/169 168/168/168
f 152/152/152 153/153/153 170/170/170
f 152/152/152 170/170/170 169/169/169
f 154/155/155 155/154/154 172/171/171
f 154/155/155 172/171/171 171/172/172
f 155/154/154 156/156/156 173/173/173
f 155/154/154 173/173/173 172/171/171
f 156/156/156 157/157/157 174/174/174
f 156/156/156 174/174/174 173/173/173
f 157/157/157 158/158/158 175/175/175
f 157/157/157 175/175/175 174/174/174
f 158/158/158 159/159/159 176/176/176
f 158/158/158 176/176/176 175/175/175
f 159/159/159 160/160/160 177/177/177
f 159/159/159 177/177/177 176/176/176
f 160/160/160 161/161/161 178/178/178
f 160/160/160 178/178/178 177/177/177
f 161/161/161 162/162/162 179/179/179
f 161/161/161 179/179/179 178/178/178
f 162/162/162 163/163/163 180/180/180
f 162/162/162 180/180/180 179/179/179
f 163/163/163 164/164/164 181/181/181
f 163/163/163 181/181/181 180/180/180
f 164/164/164 165/165/165 182/182/182
f 164/164/164 182/182/182 181/181/181
f 165/165/165 166/166/166 183/183/183
f 165/165/165 183/183/183 182/182/182
f 166/166/166 167/167/167 184/184/184
f 166/166/166 184/184/184 183/183/183
f 167/167/167 168/168/168 185/185/185
f 167/167/167 185/185/185 184/184/184
f 168/168/168 169/169/169 186/186/186
f 168/168/168 186/186/186 185/185/185
f 169/169/169 170/170/170 187/187/187
f 169/169/169 187/187/187 186/186/186
f 171/172/172 172/171/171 189/188/188
f 171/172/172 189/188/188 188/189/189
f 172/171/171 173/173/173 190/190/190
f 172/171/171 190/190/190 189/188/188
f 173/173/173 174/174/174 191/191/191
f 173/173/173 191/191/191 190/190/190
f 174/174/174 175/175/175 192/192/192
f 174/174/174 192/192/192 191/191/191
f 175/175/175 176/176/176 193/193/193
f 175/175/175 193/193/193 192/192/192
f 176/176/176 177/177/177 194/194/194
f 176/176/176 194/194/194 193/193/193
f 177/177/177 178/178/178 195/195/195
f 177/177/177 195/195/195 194/194/194
f 178/178/178 179/179/179 196/196/196
f 178/178/178 196/196/196 195/195/195
f 179/179/179 180/180/180 197/197/197
f 179/179/179 197/197/197 196/196/196
f 180/180/180 181/181/181 198/198/198
f 180/180/180 198/198/198 197/197/197
f 181/181/181 182/182/182 199/199/199
f 181/181/181 199/199/199 198/198/198
f 182/182/182 183/183/183 200/200/200
f 182/182/182 200/200/200 199/199/199
f 183/183/183 184/184/184 201/201/201
f 183/183/183 201/201/201 200/200/200
f 184/184/184 185/185/185 202/202/202
f 184/184/184 202/202/202 201/201/201
f 185/185/185 186/186/186 203/203/203
f 185/185/185 203/203/203 202/202/202
f 186/186/186 187/187/187 204/204/204
f 186/186/186 204/204/204 203/203/203
f 188/189/189 189/188/188 206/205/205
f 188/189/189 206/205/205 205/206/206
f 189/188/188 190/190/190 207/207/207
f 189/188/188 207/207/207 206/205/205
f 190/190/190 191/191/191 208/208/208
f 190/190/190 208/208/208 207/207/207
f 191/191/191 192/192/192 209/209/209
f 191/191/191 209/209/209 208/208/208
f 192/192/192 193/193/193 210/210/210
f 192/192/192 210/210/210 209/209/209
f 193/193/193 194/194/194 211/211/211
f 193/193/193 211/211/211 210/210/210
f 194/194/194 195/195/195 212/212/212
f 194/194/194 212/212/212 211/211/211
f 195/195/195 196/196/196 213/213/213
f 195/195/195 213/213/213 212/212/212
f 196/196/196 197/197/197 214/214/214
f 196/196/196 214/214/214 213/213/213
f 197/197/197 198/198/198 215/215/215
f 197/197/197 215/215/215 214/214/214
f 198/198/198 199/199/199 216/216/216
f 198/198/198 216/216/216 215/215/215
f 199/199/199 200/200/200 217/217/217
f 199/199/199 217/217/217 216/216/216
f 200/200/200 201/201/201 218/218/218
f 200/200/200 218/218/218 217/217/217
f 201/201/201 202/202/202 219/219/219
f 201/201/201 219/219/219 218/218/218
f 202/202/202 203/203/203 220/220/220
f 202/202/202 220/220/220 219/219/219
f 203/203/203 204/204/204 221/221/221
f 203/203/203 221/221/221 220/220/220
f 205/206/206 206/205/205 223/222/222
f 205/206/206 223/222/222 222/223/223
f 206/205/205 207/207/207 224/224/224
f 206/205/205 224/224/224 223/222/222
f 207/207/207 208/208/208 225/225/225
f 207/207/207 225/225/225 224/224/224
f 208/208/208 209/209/209 226/226/226
f 208/208/208 226/226/226 225/225/225
f 209/209/209 210/210/210 227/227/227
f 209/209/209 227/227/227 226/226/226
f 210/210/210 211/211/211 228/228/228
f 210/210/210 228/228/228 227/227/227
f 211/211/211 212/212/212 229/229/229
f 211/211/211 229/229/229 228/228/228
f 212/212/212 213/213/213 230/230/230
f 212/212/212 230/230/230 229/229/229
f 213/213/213 214/214/214 231/231/231
f 213/213/213 231/231/231 230/230/230
f 214/214/214 215/215/215 232/232/232
f 214/214/214 232/232/232 231/231/231
f 215/215/215 216/216/216 233/233/233
f 215/215/215 233/233/233 232/232/232
f 216/216/216 217/217/217 234/234/234
f 216/216/216 234/234/234 233/233/233
f 217/217/217 218/218/218 235/235/235
f 217/217/217 235/235/235 234/234/234
f 218/218/218 219/219/219 236/236/236
f 218/218/218 236/236/236 235/235/235
f 219/219/219 220/220/220 237/237/237
f 219/219/219 237/237/237 236/236/236
f 220/220/220 221/221/221 238/238/238
f 220/220/220 238/238/238 237/237/237
f 222/223/223 223/222/222 240/239/239
f 222/223/223 240/239/239 239/240/240
f 223/222/222 224/224/224 241/241/241
f 223/222/222 241/241/241 240/239/239
f 224/224/224 225/225/225 242/242/242
f 224/224/224 242/242/242 241/241/241
f 225/225/225 226/226/226 243/243/243
f 225/225/225 243/243/243 242/242/242
f 226/226/226 227/227/227 244/244/244
f 226/226/226 244/244/244 243/243/243
f 227/227/227 228/228/228 245/245/245
f 227/227/227 245/245/245 244/244/244
f 228/228/228 229/229/229 246/246/246
f 228/228/228 246/246/246 245/245/245
f 229/229/229 230/230/230 247/247/247
f 229/229/229 247/247/247 246/246/246
f 230/230/230 231/231/231 248/248/248
f 230/230/230 248/248/248 247/247/247
f 231/231/231 232/232/232 249/249/249
f 231/231/231 249/249/249 248/248/248
f 232/232/232 233/233/233 250/250/250
f 232/232/232 250/250/250 249/249/249
f 233/233/233 234/234/234 251/251/251
f 233/233/233 251/251/251 250/250/250
f 234/234/234 235/235/235 252/252/252
f 234/234/234 252/252/252 251/251/251
f 235/235/235 236/236/236 253/253/253
f 235/235/235 253/253/253 252/252/252
f 236/236/236 237/237/237 254/254/254
f 236/236/236 254/254/254 253/253/253
f 237/237/237 238/238/238 255/255/255
f 237/237/237 255/255/255 254/254/254
f 239/240/240 240/239/239 257/256/256
f 239/240/240 257/256/256 256/257/257
f 240/239/239 241/241/241 258/258/258
f 240/239/239 258/258/258 257/256/256
f 241/241/241 242/242/242 259/259/259
f 241/241/241 259/259/259 258/258/258
f 242/242/242 243/243/243 260/260/260
f 242/242/242 260/260/260 259/259/259
f 243/243/243 244/244/244 261/261/261
f 243/243/243 261/261/261 260/260/260
f 244/244/244 245/245/245 262/262/262
f 244/244/244 262/262/262 261/261/261
f 245/245/245 246/246/246 263/263/263
f 245/245/245 263/263/263 262/262/262
f 246/246/246 247/247/247 264/264/264
f 246/246/246 264/264/264 263/263/263
f 247/247/247 248/248/248 265/265/265
f 247/247/247 265/265/265 264/264/264
f 248/248/248 249/249/249 266/266/266
f 248/248/248 266/266/266 265/265/265
f 249/249/249 250/250/250 267/267/267
f 249/249/249 267/267/267 266/266/266
f 250/250/250 251/251/251 268/268/268
f 250/250/250 268/268/268 267/267/267
f 251/251/251 252/252/252 269/269/269
f 251/251/251 269/269/269 268/268/268
f 252/252/252 253/253/253 270/270/270
f 252/252/252 270/270/270 269/269/269
f 253/253/253 254/254/254 271/271/271
f 253/253/253 271/271/271 270/270/270
f 254/254/254 255/255/255 272/272/272
f 254/254/254 272/272/272 271/271/271
f 256/257/257 257/256/256 274/273/273
f 256/257/257 274/273/273 273/274/274
f 257/256/256 258/258/258 275/275/275
f 257/256/256 275/275/275 274/273/273
f 258/258/258 259/259/259 276/276/276
f 258/258/258 276/276/276 275/275/275
f 259/259/259 260/260/260 277/277/277
f 259/259/259 277/277/277 276/276/276
f 260/260/260 261/261/261 278/278/278
f 260/260/260 278/278/278 277/277/277
f 261/261/261 262/262/262 279/279/279
f 261/261/261 279/279/279 278/278/278
f 262/262/262 263/263/263 280/280/280
f 262/262/262 280/280/280 279/279/279
f 263/263/263 264/264/264 281/281/281
f 263/263/263 281/281/281 280/280/280
f 264/264/264 265/265/265 282/282/282
f 264/264/264 282/282/282 281/281/281
f 265/265/265 266/266/266 283/283/283
f 265/265/265 283/283/283 282/282/282
f 266/266/266 267/267/267 284/284/284
f 266/266/266 284/284/284 283/283/283
f 267/267/267 268/268/268 285/285/285
f 267/267/267 285/285/285 284/284/284
f 268/268/268 269/269/269 286/286/286
f 268/268/268 286/286/286 285/285/285
f 269/269/269 270/270/270 287/287/287
f 269/269/269 287/287/287 286/286/286
f 270/270/270 271/271/271 288/288/288
f 270/270/270 288/288/288 287/287/287
f 271/271/271 272/272/272 289/289/289
f 271/271/271 289/289/289 288/288/288
