mtllib terrain_far_03_04.mtl
usemtl terrain_far_03_04
# Blender 5.1.1
# www.blender.org
o terrain_far_03_04
v -144.000000 -144.000000 36.493465
v -72.000000 -144.000000 33.143246
v 0.000000 -144.000000 20.756891
v 72.000000 -144.000000 11.284114
v 144.000000 -144.000000 -2.527471
v -144.000000 -72.000000 25.790888
v -72.000000 -72.000000 23.385370
v 0.000000 -72.000000 15.670833
v 72.000000 -72.000000 -2.612309
v 144.000000 -72.000000 -12.498052
v -144.000000 0.000000 23.061701
v -72.000000 0.000000 23.899775
v 0.000000 0.000000 10.175288
v 72.000000 0.000000 -20.762945
v 144.000000 0.000000 -38.178043
v -144.000000 72.000000 11.471309
v -72.000000 72.000000 11.555476
v 0.000000 72.000000 -0.145696
v 72.000000 72.000000 -21.309515
v 144.000000 72.000000 -50.452641
v -144.000000 144.000000 3.997798
v -72.000000 144.000000 -2.953252
v 0.000000 144.000000 -10.081365
v 72.000000 144.000000 -33.124882
v 144.000000 144.000000 -56.039982
vn 0.1203 0.1855 0.9753
vn 0.1079 0.1188 0.9870
vn 0.0701 0.0638 0.9955
vn 0.0779 0.0926 0.9927
vn 0.1501 0.0055 0.9887
vn 0.1772 0.0721 0.9815
vn 0.1591 0.0783 0.9841
vn 0.1876 0.2134 0.9588
vn 0.2746 0.0283 0.9611
vn 0.2200 0.2344 0.9469
vn 0.0888 0.0816 0.9927
vn 0.0323 0.0989 0.9946
vn 0.2946 0.1043 0.9499
vn 0.3159 0.1222 0.9409
vn 0.2643 0.2458 0.9326
vn 0.0790 0.1827 0.9800
vn 0.0593 0.1310 0.9896
vn 0.2204 0.1359 0.9659
vn 0.3287 0.0808 0.9410
vn 0.3238 0.1165 0.9389
vn 0.0969 0.0959 0.9907
vn 0.1131 0.0404 0.9928
vn 0.2048 0.0492 0.9776
vn 0.3039 0.0344 0.9521
vn 0.2521 -0.0107 0.9676
vt 0.031250 0.031250
vt 0.265625 0.031250
vt 0.265625 0.265625
vt 0.031250 0.265625
vt 0.500000 0.031250
vt 0.500000 0.265625
vt 0.734375 0.031250
vt 0.734375 0.265625
vt 0.968750 0.031250
vt 0.968750 0.265625
vt 0.265625 0.500000
vt 0.031250 0.500000
vt 0.500000 0.500000
vt 0.734375 0.500000
vt 0.968750 0.500000
vt 0.265625 0.734375
vt 0.031250 0.734375
vt 0.500000 0.734375
vt 0.734375 0.734375
vt 0.968750 0.734375
vt 0.265625 0.968750
vt 0.031250 0.968750
vt 0.500000 0.968750
vt 0.734375 0.968750
vt 0.968750 0.968750
s 1
f 1/1/1 2/2/2 7/3/3
f 1/1/1 7/3/3 6/4/4
f 2/2/2 3/5/5 8/6/6
f 2/2/2 8/6/6 7/3/3
f 3/5/5 4/7/7 9/8/8
f 3/5/5 9/8/8 8/6/6
f 4/7/7 5/9/9 10/10/10
f 4/7/7 10/10/10 9/8/8
f 6/4/4 7/3/3 12/11/11
f 6/4/4 12/11/11 11/12/12
f 7/3/3 8/6/6 13/13/13
f 7/3/3 13/13/13 12/11/11
f 8/6/6 9/8/8 14/14/14
f 8/6/6 14/14/14 13/13/13
f 9/8/8 10/10/10 15/15/15
f 9/8/8 15/15/15 14/14/14
f 11/12/12 12/11/11 17/16/16
f 11/12/12 17/16/16 16/17/17
f 12/11/11 13/13/13 18/18/18
f 12/11/11 18/18/18 17/16/16
f 13/13/13 14/14/14 19/19/19
f 13/13/13 19/19/19 18/18/18
f 14/14/14 15/15/15 20/20/20
f 14/14/14 20/20/20 19/19/19
f 16/17/17 17/16/16 22/21/21
f 16/17/17 22/21/21 21/22/22
f 17/16/16 18/18/18 23/23/23
f 17/16/16 23/23/23 22/21/21
f 18/18/18 19/19/19 24/24/24
f 18/18/18 24/24/24 23/23/23
f 19/19/19 20/20/20 25/25/25
f 19/19/19 25/25/25 24/24/24
