mtllib terrain_far_03_05.mtl
usemtl terrain_far_03_05
# Blender 5.1.1
# www.blender.org
o terrain_far_03_05
v -320.000000 -320.000000 -4.651631
v -280.000000 -320.000000 -9.635863
v -240.000000 -320.000000 -16.221680
v -200.000000 -320.000000 -23.348137
v -160.000000 -320.000000 -32.467739
v -120.000000 -320.000000 -48.112167
v -80.000000 -320.000000 -67.560928
v -40.000000 -320.000000 -79.513931
v 0.000000 -320.000000 -73.062096
v 40.000000 -320.000000 -61.687065
v 80.000000 -320.000000 -48.905788
v 120.000000 -320.000000 -38.312111
v 160.000000 -320.000000 -34.682880
v 200.000000 -320.000000 -37.986904
v 240.000000 -320.000000 -34.951328
v 280.000000 -320.000000 -21.032158
v 320.000000 -320.000000 -20.641010
v -320.000000 -280.000000 -11.142788
v -280.000000 -280.000000 -18.355515
v -240.000000 -280.000000 -24.741957
v -200.000000 -280.000000 -32.776333
v -160.000000 -280.000000 -44.747219
v -120.000000 -280.000000 -61.649956
v -80.000000 -280.000000 -71.791176
v -40.000000 -280.000000 -75.121773
v 0.000000 -280.000000 -62.734657
v 40.000000 -280.000000 -49.137783
v 80.000000 -280.000000 -35.749138
v 120.000000 -280.000000 -23.840263
v 160.000000 -280.000000 -20.270758
v 200.000000 -280.000000 -25.891193
v 240.000000 -280.000000 -27.127996
v 280.000000 -280.000000 -13.391648
v 320.000000 -280.000000 -5.646883
v -320.000000 -240.000000 -12.691006
v -280.000000 -240.000000 -20.974859
v -240.000000 -240.000000 -32.950169
v -200.000000 -240.000000 -42.125488
v -160.000000 -240.000000 -53.513374
v -120.000000 -240.000000 -65.735695
v -80.000000 -240.000000 -67.003906
v -40.000000 -240.000000 -69.568512
v 0.000000 -240.000000 -57.212822
v 40.000000 -240.000000 -41.557384
v 80.000000 -240.000000 -26.816908
v 120.000000 -240.000000 -12.034680
v 160.000000 -240.000000 -4.968254
v 200.000000 -240.000000 -12.216477
v 240.000000 -240.000000 -17.306986
v 280.000000 -240.000000 -5.200628
v 320.000000 -240.000000 7.588549
v -320.000000 -200.000000 -22.102470
v -280.000000 -200.000000 -28.778212
v -240.000000 -200.000000 -44.196053
v -200.000000 -200.000000 -53.977146
v -160.000000 -200.000000 -58.472134
v -120.000000 -200.000000 -56.289387
v -80.000000 -200.000000 -56.001865
v -40.000000 -200.000000 -63.686840
v 0.000000 -200.000000 -51.883957
v 40.000000 -200.000000 -33.008152
v 80.000000 -200.000000 -18.929611
v 120.000000 -200.000000 -4.304137
v 160.000000 -200.000000 7.663908
v 200.000000 -200.000000 3.632142
v 240.000000 -200.000000 -6.545742
v 280.000000 -200.000000 0.012411
v 320.000000 -200.000000 16.562595
v -320.000000 -160.000000 -42.917152
v -280.000000 -160.000000 -47.754971
v -240.000000 -160.000000 -53.430649
v -200.000000 -160.000000 -52.128365
v -160.000000 -160.000000 -47.406914
v -120.000000 -160.000000 -43.016064
v -80.000000 -160.000000 -50.363205
v -40.000000 -160.000000 -60.423317
v 0.000000 -160.000000 -47.391907
v 40.000000 -160.000000 -28.937885
v 80.000000 -160.000000 -11.857848
v 120.000000 -160.000000 2.402894
v 160.000000 -160.000000 13.977865
v 200.000000 -160.000000 15.767043
v 240.000000 -160.000000 6.413867
v 280.000000 -160.000000 6.532906
v 320.000000 -160.000000 21.467672
v -320.000000 -120.000000 -40.465771
v -280.000000 -120.000000 -40.998482
v -240.000000 -120.000000 -38.686619
v -200.000000 -120.000000 -33.079826
v -160.000000 -120.000000 -29.973171
v -120.000000 -120.000000 -34.477444
v -80.000000 -120.000000 -50.362461
v -40.000000 -120.000000 -58.031322
v 0.000000 -120.000000 -43.637226
v 40.000000 -120.000000 -26.814405
v 80.000000 -120.000000 -9.578158
v 120.000000 -120.000000 6.595758
v 160.000000 -120.000000 19.913338
v 200.000000 -120.000000 25.478367
v 240.000000 -120.000000 21.690525
v 280.000000 -120.000000 16.955832
v 320.000000 -120.000000 25.216520
v -320.000000 -80.000000 -22.711105
v -280.000000 -80.000000 -20.588852
v -240.000000 -80.000000 -18.739080
v -200.000000 -80.000000 -15.486259
v -160.000000 -80.000000 -20.357950
v -120.000000 -80.000000 -36.875019
v -80.000000 -80.000000 -54.863708
v -40.000000 -80.000000 -53.713203
v 0.000000 -80.000000 -37.554359
v 40.000000 -80.000000 -20.705078
v 80.000000 -80.000000 -3.707763
v 120.000000 -80.000000 11.801833
v 160.000000 -80.000000 27.270000
v 200.000000 -80.000000 37.154690
v 240.000000 -80.000000 35.927124
v 280.000000 -80.000000 29.650730
v 320.000000 -80.000000 32.082737
v -320.000000 -40.000000 -8.601439
v -280.000000 -40.000000 -3.745815
v -240.000000 -40.000000 -2.031507
v -200.000000 -40.000000 -6.460001
v -160.000000 -40.000000 -22.333054
v -120.000000 -40.000000 -43.755989
v -80.000000 -40.000000 -53.038227
v -40.000000 -40.000000 -41.892429
v 0.000000 -40.000000 -32.062302
v 40.000000 -40.000000 -20.970520
v 80.000000 -40.000000 -4.106913
v 120.000000 -40.000000 15.905430
v 160.000000 -40.000000 36.062412
v 200.000000 -40.000000 50.714573
v 240.000000 -40.000000 50.108738
v 280.000000 -40.000000 43.928738
v 320.000000 -40.000000 45.863132
v -320.000000 0.000000 -2.696349
v -280.000000 0.000000 7.696331
v -240.000000 0.000000 7.709548
v -200.000000 0.000000 -6.061631
v -160.000000 0.000000 -28.088350
v -120.000000 0.000000 -48.010227
v -80.000000 0.000000 -47.376274
v -40.000000 0.000000 -30.166069
v 0.000000 0.000000 -19.972174
v 40.000000 0.000000 -15.517035
v 80.000000 0.000000 -5.693311
v 120.000000 0.000000 14.480328
v 160.000000 0.000000 36.491795
v 200.000000 0.000000 55.865372
v 240.000000 0.000000 63.005779
v 280.000000 0.000000 58.763340
v 320.000000 0.000000 61.378685
v -320.000000 40.000000 4.756613
v -280.000000 40.000000 11.752449
v -240.000000 40.000000 2.391501
v -200.000000 40.000000 -16.010586
v -160.000000 40.000000 -34.490978
v -120.000000 40.000000 -48.474804
v -80.000000 40.000000 -41.544777
v -40.000000 40.000000 -21.483927
v 0.000000 40.000000 -8.199163
v 40.000000 40.000000 -2.716152
v 80.000000 40.000000 -2.193474
v 120.000000 40.000000 11.431662
v 160.000000 40.000000 31.614645
v 200.000000 40.000000 51.193169
v 240.000000 40.000000 64.314217
v 280.000000 40.000000 68.432701
v 320.000000 40.000000 72.093170
v -320.000000 80.000000 8.958707
v -280.000000 80.000000 1.054709
v -240.000000 80.000000 -16.702250
v -200.000000 80.000000 -33.680367
v -160.000000 80.000000 -43.896824
v -120.000000 80.000000 -44.790154
v -80.000000 80.000000 -31.701862
v -40.000000 80.000000 -12.595384
v 0.000000 80.000000 0.038229
v 40.000000 80.000000 7.776103
v 80.000000 80.000000 4.840136
v 120.000000 80.000000 10.989082
v 160.000000 80.000000 25.924812
v 200.000000 80.000000 40.698460
v 240.000000 80.000000 53.000740
v 280.000000 80.000000 63.810112
v 320.000000 80.000000 73.717857
v -320.000000 120.000000 -0.702188
v -280.000000 120.000000 -16.820515
v -240.000000 120.000000 -33.817253
v -200.000000 120.000000 -39.810410
v -160.000000 120.000000 -37.878635
v -120.000000 120.000000 -29.457146
v -80.000000 120.000000 -16.249701
v -40.000000 120.000000 -1.269205
v 0.000000 120.000000 11.353286
v 40.000000 120.000000 16.325081
v 80.000000 120.000000 11.701437
v 120.000000 120.000000 12.884346
v 160.000000 120.000000 21.700678
v 200.000000 120.000000 33.445564
v 240.000000 120.000000 43.721313
v 280.000000 120.000000 55.056248
v 320.000000 120.000000 67.734711
v -320.000000 160.000000 -11.068155
v -280.000000 160.000000 -30.404852
v -240.000000 160.000000 -35.920631
v -200.000000 160.000000 -28.726820
v -160.000000 160.000000 -21.963684
v -120.000000 160.000000 -15.207152
v -80.000000 160.000000 -1.401000
v -40.000000 160.000000 10.903979
v 0.000000 160.000000 23.775311
v 40.000000 160.000000 28.455011
v 80.000000 160.000000 20.982010
v 120.000000 160.000000 21.565323
v 160.000000 160.000000 28.185337
v 200.000000 160.000000 39.032330
v 240.000000 160.000000 47.829006
v 280.000000 160.000000 61.032200
v 320.000000 160.000000 71.040649
v -320.000000 200.000000 -21.692810
v -280.000000 200.000000 -31.605373
v -240.000000 200.000000 -24.193426
v -200.000000 200.000000 -17.702467
v -160.000000 200.000000 -6.417310
v -120.000000 200.000000 0.671950
v -80.000000 200.000000 9.905200
v -40.000000 200.000000 21.987570
v 0.000000 200.000000 33.614239
v 40.000000 200.000000 40.090237
v 80.000000 200.000000 32.211174
v 120.000000 200.000000 32.497486
v 160.000000 200.000000 37.038181
v 200.000000 200.000000 45.611057
v 240.000000 200.000000 58.432632
v 280.000000 200.000000 68.069412
v 320.000000 200.000000 79.825676
v -320.000000 240.000000 -27.699163
v -280.000000 240.000000 -20.548141
v -240.000000 240.000000 -10.054667
v -200.000000 240.000000 -9.220743
v -160.000000 240.000000 4.316441
v -120.000000 240.000000 15.783869
v -80.000000 240.000000 25.460775
v -40.000000 240.000000 33.640285
v 0.000000 240.000000 43.198204
v 40.000000 240.000000 49.394756
v 80.000000 240.000000 44.313980
v 120.000000 240.000000 45.949688
v 160.000000 240.000000 49.384022
v 200.000000 240.000000 52.180393
v 240.000000 240.000000 63.172661
v 280.000000 240.000000 76.453171
v 320.000000 240.000000 85.324249
v -320.000000 280.000000 -20.582125
v -280.000000 280.000000 -5.170538
v -240.000000 280.000000 4.825854
v -200.000000 280.000000 0.677294
v -160.000000 280.000000 7.869155
v -120.000000 280.000000 23.321846
v -80.000000 280.000000 36.874413
v -40.000000 280.000000 48.125992
v 0.000000 280.000000 56.517151
v 40.000000 280.000000 61.237740
v 80.000000 280.000000 57.369129
v 120.000000 280.000000 60.672527
v 160.000000 280.000000 62.756130
v 200.000000 280.000000 61.941151
v 240.000000 280.000000 68.180534
v 280.000000 280.000000 81.544952
v 320.000000 280.000000 93.816559
v -320.000000 320.000000 -10.364237
v -280.000000 320.000000 5.777616
v -240.000000 320.000000 17.840807
v -200.000000 320.000000 17.439840
v -160.000000 320.000000 16.269485
v -120.000000 320.000000 23.894688
v -80.000000 320.000000 40.305603
v -40.000000 320.000000 56.474541
v 0.000000 320.000000 69.779648
v 40.000000 320.000000 75.375648
v 80.000000 320.000000 71.239540
v 120.000000 320.000000 73.819199
v 160.000000 320.000000 75.669907
v 200.000000 320.000000 71.260536
v 240.000000 320.000000 75.736168
v 280.000000 320.000000 84.752975
v 320.000000 320.000000 95.847168
vn 0.1310 0.1445 0.9808
vn 0.1400 0.2079 0.9681
vn 0.1660 0.1384 0.9764
vn 0.2085 0.0978 0.9731
vn 0.1644 0.2305 0.9591
vn 0.1737 0.2016 0.9639
vn 0.1938 0.2266 0.9545
vn 0.2365 0.2220 0.9459
vn 0.2885 0.2187 0.9322
vn 0.3295 0.2402 0.9131
vn 0.3940 0.1943 0.8983
vn 0.3135 0.2043 0.9274
vn 0.3644 0.0724 0.9284
vn 0.1661 -0.0068 0.9861
vn 0.0684 -0.0708 0.9951
vn -0.1116 -0.1226 0.9862
vn -0.2115 -0.2332 0.9492
vn -0.3036 -0.1852 0.9346
vn -0.2769 -0.2871 0.9170
vn -0.3109 -0.2319 0.9217
vn -0.2671 -0.3052 0.9141
vn -0.2916 -0.2546 0.9220
vn -0.1651 -0.3324 0.9286
vn -0.1808 -0.3069 0.9344
vn -0.0038 -0.3380 0.9411
vn 0.0241 -0.3481 0.9372
vn 0.0032 -0.2924 0.9563
vn 0.0813 -0.3056 0.9487
vn -0.2034 -0.1947 0.9595
vn -0.1508 -0.2129 0.9654
vn -0.1717 -0.2219 0.9598
vn -0.2547 -0.1877 0.9486
vn -0.0029 -0.3283 0.9446
vn -0.1031 -0.3310 0.9380
vn 0.2435 0.1253 0.9618
vn 0.1987 0.1330 0.9710
vn 0.2488 0.2289 0.9411
vn 0.2411 0.2486 0.9381
vn 0.2793 0.1624 0.9464
vn 0.1659 -0.0659 0.9839
vn 0.0470 -0.1934 0.9800
vn -0.1203 -0.1405 0.9827
vn -0.3278 -0.1270 0.9362
vn -0.3490 -0.1852 0.9186
vn -0.3397 -0.1935 0.9204
vn -0.2564 -0.2293 0.9390
vn 0.0021 -0.3296 0.9441
vn 0.1432 -0.3426 0.9285
vn -0.0846 -0.2483 0.9650
vn -0.2934 -0.1580 0.9428
vn -0.1832 -0.2630 0.9473
vn 0.2533 0.3071 0.9173
vn 0.1577 0.3490 0.9238
vn 0.2918 0.2372 0.9266
vn 0.1743 0.1221 0.9771
vn 0.0288 -0.0761 0.9967
vn -0.0297 -0.2731 0.9615
vn 0.0902 -0.2028 0.9751
vn -0.0511 -0.1134 0.9922
vn -0.3557 -0.1139 0.9276
vn -0.3769 -0.1443 0.9149
vn -0.3326 -0.1733 0.9270
vn -0.3110 -0.1688 0.9353
vn -0.0961 -0.2294 0.9686
vn 0.1653 -0.3256 0.9309
vn 0.0433 -0.2840 0.9578
vn -0.2748 -0.1395 0.9513
vn -0.2877 -0.1637 0.9436
vn 0.1288 0.1497 0.9803
vn 0.1620 0.2208 0.9618
vn 0.0545 -0.0686 0.9962
vn -0.0727 -0.2521 0.9650
vn -0.1067 -0.3337 0.9366
vn 0.0359 -0.2631 0.9641
vn 0.2121 -0.0687 0.9748
vn -0.0370 -0.0705 0.9968
vn -0.3645 -0.0955 0.9263
vn -0.4049 -0.0706 0.9116
vn -0.3626 -0.1082 0.9256
vn -0.3048 -0.1286 0.9437
vn -0.1629 -0.1493 0.9753
vn 0.0908 -0.2623 0.9607
vn 0.1082 -0.3309 0.9375
vn -0.1811 -0.2038 0.9621
vn -0.3237 -0.1018 0.9407
vn -0.0211 -0.3215 0.9467
vn -0.0075 -0.2449 0.9695
vn -0.0904 -0.3962 0.9137
vn -0.0985 -0.4144 0.9048
vn 0.0166 -0.3202 0.9472
vn 0.2463 -0.0742 0.9664
vn 0.2820 0.0539 0.9579
vn -0.0835 -0.0833 0.9930
vn -0.3611 -0.1138 0.9255
vn -0.3900 -0.0943 0.9160
vn -0.3837 -0.0936 0.9187
vn -0.3438 -0.1096 0.9326
vn -0.2268 -0.1597 0.9608
vn -0.0215 -0.2582 0.9658
vn 0.0995 -0.3444 0.9335
vn -0.0423 -0.2774 0.9598
vn -0.2710 -0.1266 0.9542
vn -0.0450 -0.4216 0.9056
vn -0.1469 -0.3660 0.9189
vn -0.0579 -0.4158 0.9076
vn 0.0192 -0.3157 0.9487
vn 0.2572 -0.0919 0.9620
vn 0.3938 0.1059 0.9131
vn 0.2059 0.0327 0.9780
vn -0.2075 -0.1934 0.9589
vn -0.3781 -0.1326 0.9162
vn -0.3888 -0.0672 0.9189
vn -0.3757 -0.0632 0.9246
vn -0.3590 -0.1079 0.9271
vn -0.2967 -0.1890 0.9361
vn -0.1026 -0.2992 0.9486
vn 0.0880 -0.3334 0.9387
vn 0.0455 -0.3192 0.9466
vn -0.1455 -0.2472 0.9580
vn -0.0772 -0.3323 0.9400
vn -0.2197 -0.2368 0.9464
vn 0.0322 -0.3137 0.9490
vn 0.2444 -0.1134 0.9630
vn 0.4209 0.0872 0.9029
vn 0.3553 0.1289 0.9258
vn -0.0232 -0.0932 0.9954
vn -0.2439 -0.2738 0.9303
vn -0.2475 -0.2079 0.9463
vn -0.3293 -0.0611 0.9423
vn -0.4185 0.0226 0.9079
vn -0.4485 -0.0299 0.8933
vn -0.3968 -0.1051 0.9119
vn -0.1685 -0.2245 0.9598
vn 0.0801 -0.3196 0.9442
vn 0.0498 -0.3416 0.9385
vn -0.0435 -0.3435 0.9381
vn -0.1263 -0.1891 0.9738
vn -0.3147 -0.1563 0.9362
vn 0.1692 -0.0544 0.9841
vn 0.4060 0.1083 0.9074
vn 0.4602 0.1334 0.8777
vn 0.2340 0.0572 0.9706
vn -0.2156 -0.1389 0.9666
vn -0.3150 -0.2346 0.9196
vn -0.1728 -0.2815 0.9439
vn -0.1714 -0.2192 0.9605
vn -0.3510 -0.0224 0.9361
vn -0.4659 0.0494 0.8835
vn -0.4589 0.0493 0.8871
vn -0.3146 -0.0057 0.9492
vn -0.0357 -0.1747 0.9840
vn 0.0194 -0.2928 0.9560
vn -0.0139 -0.3115 0.9501
vn 0.0295 0.0827 0.9961
vn -0.2581 -0.1393 0.9560
vn 0.3150 0.2770 0.9078
vn 0.3995 0.2992 0.8666
vn 0.3699 0.1801 0.9115
vn 0.0877 -0.0401 0.9953
vn -0.3143 -0.1825 0.9316
vn -0.3771 -0.1987 0.9046
vn -0.2219 -0.2366 0.9459
vn -0.0719 -0.2788 0.9576
vn -0.1727 -0.1286 0.9765
vn -0.3890 0.0401 0.9204
vn -0.4420 0.1175 0.8893
vn -0.3727 0.1728 0.9117
vn -0.2091 0.1214 0.9703
vn -0.0966 -0.0626 0.9934
vn -0.0561 -0.1522 0.9868
vn 0.2891 0.3220 0.9015
vn 0.0673 0.0679 0.9954
vn 0.3678 0.3834 0.8472
vn 0.3098 0.2711 0.9113
vn 0.1374 0.0419 0.9896
vn -0.1467 -0.2288 0.9624
vn -0.3579 -0.2818 0.8902
vn -0.3590 -0.2287 0.9049
vn -0.2401 -0.2305 0.9430
vn -0.0583 -0.2311 0.9712
vn -0.0395 -0.1710 0.9845
vn -0.2548 -0.0176 0.9668
vn -0.3458 0.1154 0.9312
vn -0.3137 0.2057 0.9270
vn -0.2694 0.2401 0.9326
vn -0.2475 0.1598 0.9556
vn -0.2168 0.0531 0.9748
vn 0.3595 0.3415 0.8684
vn 0.3665 0.2260 0.9026
vn 0.2691 0.2250 0.9365
vn 0.0506 -0.0617 0.9968
vn -0.1238 -0.2623 0.9570
vn -0.2458 -0.3362 0.9092
vn -0.3129 -0.3365 0.8882
vn -0.3143 -0.2676 0.9108
vn -0.2062 -0.2783 0.9381
vn -0.0041 -0.2502 0.9682
vn 0.0421 -0.1976 0.9794
vn -0.1230 -0.1301 0.9838
vn -0.2488 -0.0274 0.9682
vn -0.2653 0.0201 0.9639
vn -0.2603 0.0623 0.9635
vn -0.2873 0.0332 0.9573
vn -0.3074 0.0318 0.9511
vn 0.2921 0.1738 0.9405
vn 0.4536 0.2262 0.8620
vn -0.0208 -0.1194 0.9926
vn -0.1659 -0.2626 0.9505
vn -0.1552 -0.3617 0.9193
vn -0.2339 -0.3427 0.9099
vn -0.2963 -0.2968 0.9078
vn -0.2893 -0.2672 0.9192
vn -0.2068 -0.2623 0.9426
vn 0.0335 -0.2846 0.9581
vn 0.0831 -0.2475 0.9653
vn -0.0871 -0.2372 0.9675
vn -0.2096 -0.1841 0.9603
vn -0.2359 -0.1461 0.9607
vn -0.2611 -0.1746 0.9494
vn -0.2753 -0.1543 0.9489
vn -0.2370 -0.1452 0.9606
vn 0.0310 -0.1222 0.9920
vn 0.3583 0.1900 0.9141
vn -0.1636 -0.3031 0.9388
vn -0.2110 -0.2316 0.9497
vn -0.2132 -0.3049 0.9282
vn -0.1870 -0.3551 0.9159
vn -0.2449 -0.3086 0.9191
vn -0.2742 -0.2629 0.9251
vn -0.2148 -0.2304 0.9491
vn 0.0170 -0.2532 0.9673
vn 0.0907 -0.2788 0.9560
vn -0.0576 -0.2911 0.9550
vn -0.1566 -0.2529 0.9547
vn -0.2552 -0.1568 0.9541
vn -0.2658 -0.1816 0.9468
vn -0.2540 -0.1831 0.9497
vn -0.2501 -0.1702 0.9531
vn -0.2049 -0.3071 0.9294
vn 0.0593 -0.0139 0.9981
vn -0.1319 -0.3380 0.9319
vn -0.1725 -0.2206 0.9600
vn -0.2941 -0.1680 0.9409
vn -0.2465 -0.2640 0.9325
vn -0.2069 -0.3125 0.9271
vn -0.2062 -0.3039 0.9301
vn -0.1861 -0.2705 0.9446
vn -0.0135 -0.2555 0.9667
vn 0.0410 -0.2997 0.9531
vn -0.0596 -0.3316 0.9415
vn -0.0739 -0.3052 0.9494
vn -0.1665 -0.1972 0.9661
vn -0.2884 -0.1158 0.9505
vn -0.2633 -0.1602 0.9513
vn -0.2399 -0.1672 0.9563
vn -0.2887 -0.2994 0.9094
vn -0.2359 -0.2058 0.9497
vn -0.0689 -0.3285 0.9420
vn -0.0361 -0.3160 0.9481
vn -0.2696 -0.1423 0.9524
vn -0.3393 -0.0949 0.9359
vn -0.2916 -0.1745 0.9405
vn -0.2298 -0.2671 0.9359
vn -0.1537 -0.3116 0.9377
vn -0.0102 -0.3089 0.9510
vn 0.0067 -0.3190 0.9477
vn -0.0634 -0.3283 0.9424
vn -0.0150 -0.3121 0.9499
vn -0.0658 -0.2315 0.9706
vn -0.2353 -0.1507 0.9602
vn -0.3037 -0.0983 0.9477
vn -0.2681 -0.1256 0.9552
vn -0.3256 -0.2029 0.9235
vn -0.3044 -0.2294 0.9245
vn -0.1394 -0.2577 0.9561
vn 0.0183 -0.3671 0.9300
vn -0.0769 -0.2943 0.9526
vn -0.2861 -0.1078 0.9521
vn -0.3754 -0.0969 0.9218
vn -0.3418 -0.1494 0.9278
vn -0.2234 -0.2368 0.9455
vn -0.0174 -0.2974 0.9546
vn 0.0182 -0.3545 0.9349
vn -0.0523 -0.3267 0.9437
vn 0.0305 -0.2947 0.9551
vn -0.0008 -0.2318 0.9728
vn -0.1635 -0.1841 0.9692
vn -0.2417 -0.1312 0.9614
vn -0.2817 -0.0891 0.9554
vt 0.015625 0.015625
vt 0.076172 0.015625
vt 0.076172 0.076172
vt 0.015625 0.076172
vt 0.136719 0.015625
vt 0.136719 0.076172
vt 0.197266 0.015625
vt 0.197266 0.076172
vt 0.257812 0.015625
vt 0.257812 0.076172
vt 0.318359 0.015625
vt 0.318359 0.076172
vt 0.378906 0.015625
vt 0.378906 0.076172
vt 0.439453 0.015625
vt 0.439453 0.076172
vt 0.500000 0.015625
vt 0.500000 0.076172
vt 0.560547 0.015625
vt 0.560547 0.076172
vt 0.621094 0.015625
vt 0.621094 0.076172
vt 0.681641 0.015625
vt 0.681641 0.076172
vt 0.742188 0.015625
vt 0.742188 0.076172
vt 0.802734 0.015625
vt 0.802734 0.076172
vt 0.863281 0.015625
vt 0.863281 0.076172
vt 0.923828 0.015625
vt 0.923828 0.076172
vt 0.984375 0.015625
vt 0.984375 0.076172
vt 0.076172 0.136719
vt 0.015625 0.136719
vt 0.136719 0.136719
vt 0.197266 0.136719
vt 0.257812 0.136719
vt 0.318359 0.136719
vt 0.378906 0.136719
vt 0.439453 0.136719
vt 0.500000 0.136719
vt 0.560547 0.136719
vt 0.621094 0.136719
vt 0.681641 0.136719
vt 0.742188 0.136719
vt 0.802734 0.136719
vt 0.863281 0.136719
vt 0.923828 0.136719
vt 0.984375 0.136719
vt 0.076172 0.197266
vt 0.015625 0.197266
vt 0.136719 0.197266
vt 0.197266 0.197266
vt 0.257812 0.197266
vt 0.318359 0.197266
vt 0.378906 0.197266
vt 0.439453 0.197266
vt 0.500000 0.197266
vt 0.560547 0.197266
vt 0.621094 0.197266
vt 0.681641 0.197266
vt 0.742188 0.197266
vt 0.802734 0.197266
vt 0.863281 0.197266
vt 0.923828 0.197266
vt 0.984375 0.197266
vt 0.076172 0.257812
vt 0.015625 0.257812
vt 0.136719 0.257812
vt 0.197266 0.257812
vt 0.257812 0.257812
vt 0.318359 0.257812
vt 0.378906 0.257812
vt 0.439453 0.257812
vt 0.500000 0.257812
vt 0.560547 0.257812
vt 0.621094 0.257812
vt 0.681641 0.257812
vt 0.742188 0.257812
vt 0.802734 0.257812
vt 0.863281 0.257812
vt 0.923828 0.257812
vt 0.984375 0.257812
vt 0.076172 0.318359
vt 0.015625 0.318359
vt 0.136719 0.318359
vt 0.197266 0.318359
vt 0.257812 0.318359
vt 0.318359 0.318359
vt 0.378906 0.318359
vt 0.439453 0.318359
vt 0.500000 0.318359
vt 0.560547 0.318359
vt 0.621094 0.318359
vt 0.681641 0.318359
vt 0.742188 0.318359
vt 0.802734 0.318359
vt 0.863281 0.318359
vt 0.923828 0.318359
vt 0.984375 0.318359
vt 0.076172 0.378906
vt 0.015625 0.378906
vt 0.136719 0.378906
vt 0.197266 0.378906
vt 0.257812 0.378906
vt 0.318359 0.378906
vt 0.378906 0.378906
vt 0.439453 0.378906
vt 0.500000 0.378906
vt 0.560547 0.378906
vt 0.621094 0.378906
vt 0.681641 0.378906
vt 0.742188 0.378906
vt 0.802734 0.378906
vt 0.863281 0.378906
vt 0.923828 0.378906
vt 0.984375 0.378906
vt 0.076172 0.439453
vt 0.015625 0.439453
vt 0.136719 0.439453
vt 0.197266 0.439453
vt 0.257812 0.439453
vt 0.318359 0.439453
vt 0.378906 0.439453
vt 0.439453 0.439453
vt 0.500000 0.439453
vt 0.560547 0.439453
vt 0.621094 0.439453
vt 0.681641 0.439453
vt 0.742188 0.439453
vt 0.802734 0.439453
vt 0.863281 0.439453
vt 0.923828 0.439453
vt 0.984375 0.439453
vt 0.076172 0.500000
vt 0.015625 0.500000
vt 0.136719 0.500000
vt 0.197266 0.500000
vt 0.257812 0.500000
vt 0.318359 0.500000
vt 0.378906 0.500000
vt 0.439453 0.500000
vt 0.500000 0.500000
vt 0.560547 0.500000
vt 0.621094 0.500000
vt 0.681641 0.500000
vt 0.742188 0.500000
vt 0.802734 0.500000
vt 0.863281 0.500000
vt 0.923828 0.500000
vt 0.984375 0.500000
vt 0.076172 0.560547
vt 0.015625 0.560547
vt 0.136719 0.560547
vt 0.197266 0.560547
vt 0.257812 0.560547
vt 0.318359 0.560547
vt 0.378906 0.560547
vt 0.439453 0.560547
vt 0.500000 0.560547
vt 0.560547 0.560547
vt 0.621094 0.560547
vt 0.681641 0.560547
vt 0.742188 0.560547
vt 0.802734 0.560547
vt 0.863281 0.560547
vt 0.923828 0.560547
vt 0.984375 0.560547
vt 0.076172 0.621094
vt 0.015625 0.621094
vt 0.136719 0.621094
vt 0.197266 0.621094
vt 0.257812 0.621094
vt 0.318359 0.621094
vt 0.378906 0.621094
vt 0.439453 0.621094
vt 0.500000 0.621094
vt 0.560547 0.621094
vt 0.621094 0.621094
vt 0.681641 0.621094
vt 0.742188 0.621094
vt 0.802734 0.621094
vt 0.863281 0.621094
vt 0.923828 0.621094
vt 0.984375 0.621094
vt 0.076172 0.681641
vt 0.015625 0.681641
vt 0.136719 0.681641
vt 0.197266 0.681641
vt 0.257812 0.681641
vt 0.318359 0.681641
vt 0.378906 0.681641
vt 0.439453 0.681641
vt 0.500000 0.681641
vt 0.560547 0.681641
vt 0.621094 0.681641
vt 0.681641 0.681641
vt 0.742188 0.681641
vt 0.802734 0.681641
vt 0.863281 0.681641
vt 0.923828 0.681641
vt 0.984375 0.681641
vt 0.076172 0.742188
vt 0.015625 0.742188
vt 0.136719 0.742188
vt 0.197266 0.742188
vt 0.257812 0.742188
vt 0.318359 0.742188
vt 0.378906 0.742188
vt 0.439453 0.742188
vt 0.500000 0.742188
vt 0.560547 0.742188
vt 0.621094 0.742188
vt 0.681641 0.742188
vt 0.742188 0.742188
vt 0.802734 0.742188
vt 0.863281 0.742188
vt 0.923828 0.742188
vt 0.984375 0.742188
vt 0.076172 0.802734
vt 0.015625 0.802734
vt 0.136719 0.802734
vt 0.197266 0.802734
vt 0.257812 0.802734
vt 0.318359 0.802734
vt 0.378906 0.802734
vt 0.439453 0.802734
vt 0.500000 0.802734
vt 0.560547 0.802734
vt 0.621094 0.802734
vt 0.681641 0.802734
vt 0.742188 0.802734
vt 0.802734 0.802734
vt 0.863281 0.802734
vt 0.923828 0.802734
vt 0.984375 0.802734
vt 0.076172 0.863281
vt 0.015625 0.863281
vt 0.136719 0.863281
vt 0.197266 0.863281
vt 0.257812 0.863281
vt 0.318359 0.863281
vt 0.378906 0.863281
vt 0.439453 0.863281
vt 0.500000 0.863281
vt 0.560547 0.863281
vt 0.621094 0.863281
vt 0.681641 0.863281
vt 0.742188 0.863281
vt 0.802734 0.863281
vt 0.863281 0.863281
vt 0.923828 0.863281
vt 0.984375 0.863281
vt 0.076172 0.923828
vt 0.015625 0.923828
vt 0.136719 0.923828
vt 0.197266 0.923828
vt 0.257812 0.923828
vt 0.318359 0.923828
vt 0.378906 0.923828
vt 0.439453 0.923828
vt 0.500000 0.923828
vt 0.560547 0.923828
vt 0.621094 0.923828
vt 0.681641 0.923828
vt 0.742188 0.923828
vt 0.802734 0.923828
vt 0.863281 0.923828
vt 0.923828 0.923828
vt 0.984375 0.923828
vt 0.076172 0.984375
vt 0.015625 0.984375
vt 0.136719 0.984375
vt 0.197266 0.984375
vt 0.257812 0.984375
vt 0.318359 0.984375
vt 0.378906 0.984375
vt 0.439453 0.984375
vt 0.500000 0.984375
vt 0.560547 0.984375
vt 0.621094 0.984375
vt 0.681641 0.984375
vt 0.742188 0.984375
vt 0.802734 0.984375
vt 0.863281 0.984375
vt 0.923828 0.984375
vt 0.984375 0.984375
s 1
f 1/1/1 2/2/2 19/3/3
f 1/1/1 19/3/3 18/4/4
f 2/2/2 3/5/5 20/6/6
f 2/2/2 20/6/6 19/3/3
f 3/5/5 4/7/7 21/8/8
f 3/5/5 21/8/8 20/6/6
f 4/7/7 5/9/9 22/10/10
f 4/7/7 22/10/10 21/8/8
f 5/9/9 6/11/11 23/12/12
f 5/9/9 23/12/12 22/10/10
f 6/11/11 7/13/13 24/14/14
f 6/11/11 24/14/14 23/12/12
f 7/13/13 8/15/15 25/16/16
f 7/13/13 25/16/16 24/14/14
f 8/15/15 9/17/17 26/18/18
f 8/15/15 26/18/18 25/16/16
f 9/17/17 10/19/19 27/20/20
f 9/17/17 27/20/20 26/18/18
f 10/19/19 11/21/21 28/22/22
f 10/19/19 28/22/22 27/20/20
f 11/21/21 12/23/23 29/24/24
f 11/21/21 29/24/24 28/22/22
f 12/23/23 13/25/25 30/26/26
f 12/23/23 30/26/26 29/24/24
f 13/25/25 14/27/27 31/28/28
f 13/25/25 31/28/28 30/26/26
f 14/27/27 15/29/29 32/30/30
f 14/27/27 32/30/30 31/28/28
f 15/29/29 16/31/31 33/32/32
f 15/29/29 33/32/32 32/30/30
f 16/31/31 17/33/33 34/34/34
f 16/31/31 34/34/34 33/32/32
f 18/4/4 19/3/3 36/35/35
f 18/4/4 36/35/35 35/36/36
f 19/3/3 20/6/6 37/37/37
f 19/3/3 37/37/37 36/35/35
f 20/6/6 21/8/8 38/38/38
f 20/6/6 38/38/38 37/37/37
f 21/8/8 22/10/10 39/39/39
f 21/8/8 39/39/39 38/38/38
f 22/10/10 23/12/12 40/40/40
f 22/10/10 40/40/40 39/39/39
f 23/12/12 24/14/14 41/41/41
f 23/12/12 41/41/41 40/40/40
f 24/14/14 25/16/16 42/42/42
f 24/14/14 42/42/42 41/41/41
f 25/16/16 26/18/18 43/43/43
f 25/16/16 43/43/43 42/42/42
f 26/18/18 27/20/20 44/44/44
f 26/18/18 44/44/44 43/43/43
f 27/20/20 28/22/22 45/45/45
f 27/20/20 45/45/45 44/44/44
f 28/22/22 29/24/24 46/46/46
f 28/22/22 46/46/46 45/45/45
f 29/24/24 30/26/26 47/47/47
f 29/24/24 47/47/47 46/46/46
f 30/26/26 31/28/28 48/48/48
f 30/26/26 48/48/48 47/47/47
f 31/28/28 32/30/30 49/49/49
f 31/28/28 49/49/49 48/48/48
f 32/30/30 33/32/32 50/50/50
f 32/30/30 50/50/50 49/49/49
f 33/32/32 34/34/34 51/51/51
f 33/32/32 51/51/51 50/50/50
f 35/36/36 36/35/35 53/52/52
f 35/36/36 53/52/52 52/53/53
f 36/35/35 37/37/37 54/54/54
f 36/35/35 54/54/54 53/52/52
f 37/37/37 38/38/38 55/55/55
f 37/37/37 55/55/55 54/54/54
f 38/38/38 39/39/39 56/56/56
f 38/38/38 56/56/56 55/55/55
f 39/39/39 40/40/40 57/57/57
f 39/39/39 57/57/57 56/56/56
f 40/40/40 41/41/41 58/58/58
f 40/40/40 58/58/58 57/57/57
f 41/41/41 42/42/42 59/59/59
f 41/41/41 59/59/59 58/58/58
f 42/42/42 43/43/43 60/60/60
f 42/42/42 60/60/60 59/59/59
f 43/43/43 44/44/44 61/61/61
f 43/43/43 61/61/61 60/60/60
f 44/44/44 45/45/45 62/62/62
f 44/44/44 62/62/62 61/61/61
f 45/45/45 46/46/46 63/63/63
f 45/45/45 63/63/63 62/62/62
f 46/46/46 47/47/47 64/64/64
f 46/46/46 64/64/64 63/63/63
f 47/47/47 48/48/48 65/65/65
f 47/47/47 65/65/65 64/64/64
f 48/48/48 49/49/49 66/66/66
f 48/48/48 66/66/66 65/65/65
f 49/49/49 50/50/50 67/67/67
f 49/49/49 67/67/67 66/66/66
f 50/50/50 51/51/51 68/68/68
f 50/50/50 68/68/68 67/67/67
f 52/53/53 53/52/52 70/69/69
f 52/53/53 70/69/69 69/70/70
f 53/52/52 54/54/54 71/71/71
f 53/52/52 71/71/71 70/69/69
f 54/54/54 55/55/55 72/72/72
f 54/54/54 72/72/72 71/71/71
f 55/55/55 56/56/56 73/73/73
f 55/55/55 73/73/73 72/72/72
f 56/56/56 57/57/57 74/74/74
f 56/56/56 74/74/74 73/73/73
f 57/57/57 58/58/58 75/75/75
f 57/57/57 75/75/75 74/74/74
f 58/58/58 59/59/59 76/76/76
f 58/58/58 76/76/76 75/75/75
f 59/59/59 60/60/60 77/77/77
f 59/59/59 77/77/77 76/76/76
f 60/60/60 61/61/61 78/78/78
f 60/60/60 78/78/78 77/77/77
f 61/61/61 62/62/62 79/79/79
f 61/61/61 79/79/79 78/78/78
f 62/62/62 63/63/63 80/80/80
f 62/62/62 80/80/80 79/79/79
f 63/63/63 64/64/64 81/81/81
f 63/63/63 81/81/81 80/80/80
f 64/64/64 65/65/65 82/82/82
f 64/64/64 82/82/82 81/81/81
f 65/65/65 66/66/66 83/83/83
f 65/65/65 83/83/83 82/82/82
f 66/66/66 67/67/67 84/84/84
f 66/66/66 84/84/84 83/83/83
f 67/67/67 68/68/68 85/85/85
f 67/67/67 85/85/85 84/84/84
f 69/70/70 70/69/69 87/86/86
f 69/70/70 87/86/86 86/87/87
f 70/69/69 71/71/71 88/88/88
f 70/69/69 88/88/88 87/86/86
f 71/71/71 72/72/72 89/89/89
f 71/71/71 89/89/89 88/88/88
f 72/72/72 73/73/73 90/90/90
f 72/72/72 90/90/90 89/89/89
f 73/73/73 74/74/74 91/91/91
f 73/73/73 91/91/91 90/90/90
f 74/74/74 75/75/75 92/92/92
f 74/74/74 92/92/92 91/91/91
f 75/75/75 76/76/76 93/93/93
f 75/75/75 93/93/93 92/92/92
f 76/76/76 77/77/77 94/94/94
f 76/76/76 94/94/94 93/93/93
f 77/77/77 78/78/78 95/95/95
f 77/77/77 95/95/95 94/94/94
f 78/78/78 79/79/79 96/96/96
f 78/78/78 96/96/96 95/95/95
f 79/79/79 80/80/80 97/97/97
f 79/79/79 97/97/97 96/96/96
f 80/80/80 81/81/81 98/98/98
f 80/80/80 98/98/98 97/97/97
f 81/81/81 82/82/82 99/99/99
f 81/81/81 99/99/99 98/98/98
f 82/82/82 83/83/83 100/100/100
f 82/82/82 100/100/100 99/99/99
f 83/83/83 84/84/84 101/101/101
f 83/83/83 101/101/101 100/100/100
f 84/84/84 85/85/85 102/102/102
f 84/84/84 102/102/102 101/101/101
f 86/87/87 87/86/86 104/103/103
f 86/87/87 104/103/103 103/104/104
f 87/86/86 88/88/88 105/105/105
f 87/86/86 105/105/105 104/103/103
f 88/88/88 89/89/89 106/106/106
f 88/88/88 106/106/106 105/105/105
f 89/89/89 90/90/90 107/107/107
f 89/89/89 107/107/107 106/106/106
f 90/90/90 91/91/91 108/108/108
f 90/90/90 108/108/108 107/107/107
f 91/91/91 92/92/92 109/109/109
f 91/91/91 109/109/109 108/108/108
f 92/92/92 93/93/93 110/110/110
f 92/92/92 110/110/110 109/109/109
f 93/93/93 94/94/94 111/111/111
f 93/93/93 111/111/111 110/110/110
f 94/94/94 95/95/95 112/112/112
f 94/94/94 112/112/112 111/111/111
f 95/95/95 96/96/96 113/113/113
f 95/95/95 113/113/113 112/112/112
f 96/96/96 97/97/97 114/114/114
f 96/96/96 114/114/114 113/113/113
f 97/97/97 98/98/98 115/115/115
f 97/97/97 115/115/115 114/114/114
f 98/98/98 99/99/99 116/116/116
f 98/98/98 116/116/116 115/115/115
f 99/99/99 100/100/100 117/117/117
f 99/99/99 117/117/117 116/116/116
f 100/100/100 101/101/101 118/118/118
f 100/100/100 118/118/118 117/117/117
f 101/101/101 102/102/102 119/119/119
f 101/101/101 119/119/119 118/118/118
f 103/104/104 104/103/103 121/120/120
f 103/104/104 121/120/120 120/121/121
f 104/103/103 105/105/105 122/122/122
f 104/103/103 122/122/122 121/120/120
f 105/105/105 106/106/106 123/123/123
f 105/105/105 123/123/123 122/122/122
f 106/106/106 107/107/107 124/124/124
f 106/106/106 124/124/124 123/123/123
f 107/107/107 108/108/108 125/125/125
f 107/107/107 125/125/125 124/124/124
f 108/108/108 109/109/109 126/126/126
f 108/108/108 126/126/126 125/125/125
f 109/109/109 110/110/110 127/127/127
f 109/109/109 127/127/127 126/126/126
f 110/110/110 111/111/111 128/128/128
f 110/110/110 128/128/128 127/127/127
f 111/111/111 112/112/112 129/129/129
f 111/111/111 129/129/129 128/128/128
f 112/112/112 113/113/113 130/130/130
f 112/112/112 130/130/130 129/129/129
f 113/113/113 114/114/114 131/131/131
f 113/113/113 131/131/131 130/130/130
f 114/114/114 115/115/115 132/132/132
f 114/114/114 132/132/132 131/131/131
f 115/115/115 116/116/116 133/133/133
f 115/115/115 133/133/133 132/132/132
f 116/116/116 117/117/117 134/134/134
f 116/116/116 134/134/134 133/133/133
f 117/117/117 118/118/118 135/135/135
f 117/117/117 135/135/135 134/134/134
f 118/118/118 119/119/119 136/136/136
f 118/118/118 136/136/136 135/135/135
f 120/121/121 121/120/120 138/137/137
f 120/121/121 138/137/137 137/138/138
f 121/120/120 122/122/122 139/139/139
f 121/120/120 139/139/139 138/137/137
f 122/122/122 123/123/123 140/140/140
f 122/122/122 140/140/140 139/139/139
f 123/123/123 124/124/124 141/141/141
f 123/123/123 141/141/141 140/140/140
f 124/124/124 125/125/125 142/142/142
f 124/124/124 142/142/142 141/141/141
f 125/125/125 126/126/126 143/143/143
f 125/125/125 143/143/143 142/142/142
f 126/126/126 127/127/127 144/144/144
f 126/126/126 144/144/144 143/143/143
f 127/127/127 128/128/128 145/145/145
f 127/127/127 145/145/145 144/144/144
f 128/128/128 129/129/129 146/146/146
f 128/128/128 146/146/146 145/145/145
f 129/129/129 130/130/130 147/147/147
f 129/129/129 147/147/147 146/146/146
f 130/130/130 131/131/131 148/148/148
f 130/130/130 148/148/148 147/147/147
f 131/131/131 132/132/132 149/149/149
f 131/131/131 149/149/149 148/148/148
f 132/132/132 133/133/133 150/150/150
f 132/132/132 150/150/150 149/149/149
f 133/133/133 134/134/134 151/151/151
f 133/133/133 151/151/151 150/150/150
f 134/134/134 135/135/135 152/152/152
f 134/134/134 152/152/152 151/151/151
f 135/135/135 136/136/136 153/153/153
f 135/135/135 153/153/153 152/152/152
f 137/138/138 138/137/137 155/154/154
f 137/138/138 155/154/154 154/155/155
f 138/137/137 139/139/139 156/156/156
f 138/137/137 156/156/156 155/154/154
f 139/139/139 140/140/140 157/157/157
f 139/139/139 157/157/157 156/156/156
f 140/140/140 141/141/141 158/158/158
f 140/140/140 158/158/158 157/157/157
f 141/141/141 142/142/142 159/159/159
f 141/141/141 159/159/159 158/158/158
f 142/142/142 143/143/143 160/160/160
f 142/142/142 160/160/160 159/159/159
f 143/143/143 144/144/144 161/161/161
f 143/143/143 161/161/161 160/160/160
f 144/144/144 145/145/145 162/162/162
f 144/144/144 162/162/162 161/161/161
f 145/145/145 146/146/146 163/163/163
f 145/145/145 163/163/163 162/162/162
f 146/146/146 147/147/147 164/164/164
f 146/146/146 164/164/164 163/163/163
f 147/147/147 148/148/148 165/165/165
f 147/147/147 165/165/165 164/164/164
f 148/148/148 149/149/149 166/166/166
f 148/148/148 166/166/166 165/165/165
f 149/149/149 150/150/150 167/167/167
f 149/149/149 167/167/167 166/166/166
f 150/150/150 151/151/151 168/168/168
f 150/150/150 168/168/168 167/167/167
f 151/151/151 152/152/152 169/169/169
f 151/151/151 169/169/169 168/168/168
f 152/152/152 153/153/153 170/170/170
f 152/152/152 170/170/170 169/169/169
f 154/155/155 155/154/154 172/171/171
f 154/155/155 172/171/171 171/172/172
f 155/154/154 156/156/156 173/173/173
f 155/154/154 173/173/173 172/171/171
f 156/156/156 157/157/157 174/174/174
f 156/156/156 174/174/174 173/173/173
f 157/157/157 158/158/158 175/175/175
f 157/157/157 175/175/175 174/174/174
f 158/158/158 159/159/159 176/176/176
f 158/158/158 176/176/176 175/175/175
f 159/159/159 160/160/160 177/177/177
f 159/159/159 177/177/177 176/176/176
f 160/160/160 161/161/161 178/178/178
f 160/160/160 178/178/178 177/177/177
f 161/161/161 162/162/162 179/179/179
f 161/161/161 179/179/179 178/178/178
f 162/162/162 163/163/163 180/180/180
f 162/162/162 180/180/180 179/179/179
f 163/163/163 164/164/164 181/181/181
f 163/163/163 181/181/181 180/180/180
f 164/164/164 165/165/165 182/182/182
f 164/164/164 182/182/182 181/181/181
f 165/165/165 166/166/166 183/183/183
f 165/165/165 183/183/183 182/182/182
f 166/166/166 167/167/167 184/184/184
f 166/166/166 184/184/184 183/183/183
f 167/167/167 168/168/168 185/185/185
f 167/167/167 185/185/185 184/184/184
f 168/168/168 169/169/169 186/186/186
f 168/168/168 186/186/186 185/185/185
f 169/169/169 170/170/170 187/187/187
f 169/169/169 187/187/187 186/186/186
f 171/172/172 172/171/171 189/188/188
f 171/172/172 189/188/188 188/189/189
f 172/171/171 173/173/173 190/190/190
f 172/171/171 190/190/190 189/188/188
f 173/173/173 174/174/174 191/191/191
f 173/173/173 191/191/191 190/190/190
f 174/174/174 175/175/175 192/192/192
f 174/174/174 192/192/192 191/191/191
f 175/175/175 176/176/176 193/193/193
f 175/175/175 193/193/193 192/192/192
f 176/176/176 177/177/177 194/194/194
f 176/176/176 194/194/194 193/193/193
f 177/177/177 178/178/178 195/195/195
f 177/177/177 195/195/195 194/194/194
f 178/178/178 179/179/179 196/196/196
f 178/178/178 196/196/196 195/195/195
f 179/179/179 180/180/180 197/197/197
f 179/179/179 197/197/197 196/196/196
f 180/180/180 181/181/181 198/198/198
f 180/180/180 198/198/198 197/197/197
f 181/181/181 182/182/182 199/199/199
f 181/181/181 199/199/199 198/198/198
f 182/182/182 183/183/183 200/200/200
f 182/182/182 200/200/200 199/199/199
f 183/183/183 184/184/184 201/201/201
f 183/183/183 201/201/201 200/200/200
f 184/184/184 185/185/185 202/202/202
f 184/184/184 202/202/202 201/201/201
f 185/185/185 186/186/186 203/203/203
f 185/185/185 203/203/203 202/202/202
f 186/186/186 187/187/187 204/204/204
f 186/186/186 204/204/204 203/203/203
f 188/189/189 189/188/188 206/205/205
f 188/189/189 206/205/205 205/206/206
f 189/188/188 190/190/190 207/207/207
f 189/188/188 207/207/207 206/205/205
f 190/190/190 191/191/191 208/208/208
f 190/190/190 208/208/208 207/207/207
f 191/191/191 192/192/192 209/209/209
f 191/191/191 209/209/209 208/208/208
f 192/192/192 193/193/193 210/210/210
f 192/192/192 210/210/210 209/209/209
f 193/193/193 194/194/194 211/211/211
f 193/193/193 211/211/211 210/210/210
f 194/194/194 195/195/195 212/212/212
f 194/194/194 212/212/212 211/211/211
f 195/195/195 196/196/196 213/213/213
f 195/195/195 213/213/213 212/212/212
f 196/196/196 197/197/197 214/214/214
f 196/196/196 214/214/214 213/213/213
f 197/197/197 198/198/198 215/215/215
f 197/197/197 215/215/215 214/214/214
f 198/198/198 199/199/199 216/216/216
f 198/198/198 216/216/216 215/215/215
f 199/199/199 200/200/200 217/217/217
f 199/199/199 217/217/217 216/216/216
f 200/200/200 201/201/201 218/218/218
f 200/200/200 218/218/218 217/217/217
f 201/201/201 202/202/202 219/219/219
f 201/201/201 219/219/219 218/218/218
f 202/202/202 203/203/203 220/220/220
f 202/202/202 220/220/220 219/219/219
f 203/203/203 204/204/204 221/221/221
f 203/203/203 221/221/221 220/220/220
f 205/206/206 206/205/205 223/222/222
f 205/206/206 223/222/222 222/223/223
f 206/205/205 207/207/207 224/224/224
f 206/205/205 224/224/224 223/222/222
f 207/207/207 208/208/208 225/225/225
f 207/207/207 225/225/225 224/224/224
f 208/208/208 209/209/209 226/226/226
f 208/208/208 226/226/226 225/225/225
f 209/209/209 210/210/210 227/227/227
f 209/209/209 227/227/227 226/226/226
f 210/210/210 211/211/211 228/228/228
f 210/210/210 228/228/228 227/227/227
f 211/211/211 212/212/212 229/229/229
f 211/211/211 229/229/229 228/228/228
f 212/212/212 213/213/213 230/230/230
f 212/212/212 230/230/230 229/229/229
f 213/213/213 214/214/214 231/231/231
f 213/213/213 231/231/231 230/230/230
f 214/214/214 215/215/215 232/232/232
f 214/214/214 232/232/232 231/231/231
f 215/215/215 216/216/216 233/233/233
f 215/215/215 233/233/233 232/232/232
f 216/216/216 217/217/217 234/234/234
f 216/216/216 234/234/234 233/233/233
f 217/217/217 218/218/218 235/235/235
f 217/217/217 235/235/235 234/234/234
f 218/218/218 219/219/219 236/236/236
f 218/218/218 236/236/236 235/235/235
f 219/219/219 220/220/220 237/237/237
f 219/219/219 237/237/237 236/236/236
f 220/220/220 221/221/221 238/238/238
f 220/220/220 238/238/238 237/237/237
f 222/223/223 223/222/222 240/239/239
f 222/223/223 240/239/239 239/240/240
f 223/222/222 224/224/224 241/241/241
f 223/222/222 241/241/241 240/239/239
f 224/224/224 225/225/225 242/242/242
f 224/224/224 242/242/242 241/241/241
f 225/225/225 226/226/226 243/243/243
f 225/225/225 243/243/243 242/242/242
f 226/226/226 227/227/227 244/244/244
f 226/226/226 244/244/244 243/243/243
f 227/227/227 228/228/228 245/245/245
f 227/227/227 245/245/245 244/244/244
f 228/228/228 229/229/229 246/246/246
f 228/228/228 246/246/246 245/245/245
f 229/229/229 230/230/230 247/247/247
f 229/229/229 247/247/247 246/246/246
f 230/230/230 231/231/231 248/248/248
f 230/230/230 248/248/248 247/247/247
f 231/231/231 232/232/232 249/249/249
f 231/231/231 249/249/249 248/248/248
f 232/232/232 233/233/233 250/250/250
f 232/232/232 250/250/250 249/249/249
f 233/233/233 234/234/234 251/251/251
f 233/233/233 251/251/251 250/250/250
f 234/234/234 235/235/235 252/252/252
f 234/234/234 252/252/252 251/251/251
f 235/235/235 236/236/236 253/253/253
f 235/235/235 253/253/253 252/252/252
f 236/236/236 237/237/237 254/254/254
f 236/236/236 254/254/254 253/253/253
f 237/237/237 238/238/238 255/255/255
f 237/237/237 255/255/255 254/254/254
f 239/240/240 240/239/239 257/256/256
f 239/240/240 257/256/256 256/257/257
f 240/239/239 241/241/241 258/258/258
f 240/239/239 258/258/258 257/256/256
f 241/241/241 242/242/242 259/259/259
f 241/241/241 259/259/259 258/258/258
f 242/242/242 243/243/243 260/260/260
f 242/242/242 260/260/260 259/259/259
f 243/243/243 244/244/244 261/261/261
f 243/243/243 261/261/261 260/260/260
f 244/244/244 245/245/245 262/262/262
f 244/244/244 262/262/262 261/261/261
f 245/245/245 246/246/246 263/263/263
f 245/245/245 263/263/263 262/262/262
f 246/246/246 247/247/247 264/264/264
f 246/246/246 264/264/264 263/263/263
f 247/247/247 248/248/248 265/265/265
f 247/247/247 265/265/265 264/264/264
f 248/248/248 249/249/249 266/266/266
f 248/248/248 266/266/266 265/265/265
f 249/249/249 250/250/250 267/267/267
f 249/249/249 267/267/267 266/266/266
f 250/250/250 251/251/251 268/268/268
f 250/250/250 268/268/268 267/267/267
f 251/251/251 252/252/252 269/269/269
f 251/251/251 269/269/269 268/268/268
f 252/252/252 253/253/253 270/270/270
f 252/252/252 270/270/270 269/269/269
f 253/253/253 254/254/254 271/271/271
f 253/253/253 271/271/271 270/270/270
f 254/254/254 255/255/255 272/272/272
f 254/254/254 272/272/272 271/271/271
f 256/257/257 257/256/256 274/273/273
f 256/257/257 274/273/273 273/274/274
f 257/256/256 258/258/258 275/275/275
f 257/256/256 275/275/275 274/273/273
f 258/258/258 259/259/259 276/276/276
f 258/258/258 276/276/276 275/275/275
f 259/259/259 260/260/260 277/277/277
f 259/259/259 277/277/277 276/276/276
f 260/260/260 261/261/261 278/278/278
f 260/260/260 278/278/278 277/277/277
f 261/261/261 262/262/262 279/279/279
f 261/261/261 279/279/279 278/278/278
f 262/262/262 263/263/263 280/280/280
f 262/262/262 280/280/280 279/279/279
f 263/263/263 264/264/264 281/281/281
f 263/263/263 281/281/281 280/280/280
f 264/264/264 265/265/265 282/282/282
f 264/264/264 282/282/282 281/281/281
f 265/265/265 266/266/266 283/283/283
f 265/265/265 283/283/283 282/282/282
f 266/266/266 267/267/267 284/284/284
f 266/266/266 284/284/284 283/283/283
f 267/267/267 268/268/268 285/285/285
f 267/267/267 285/285/285 284/284/284
f 268/268/268 269/269/269 286/286/286
f 268/268/268 286/286/286 285/285/285
f 269/269/269 270/270/270 287/287/287
f 269/269/269 287/287/287 286/286/286
f 270/270/270 271/271/271 288/288/288
f 270/270/270 288/288/288 287/287/287
f 271/271/271 272/272/272 289/289/289
f 271/271/271 289/289/289 288/288/288
