mtllib terrain_mid_02_06.mtl
usemtl terrain_mid_02_06
# Blender 5.1.1
# www.blender.org
o terrain_mid_02_06
v -160.000000 -160.000000 5.493414
v -140.000000 -160.000000 2.829429
v -120.000000 -160.000000 -0.556706
v -100.000000 -160.000000 -4.158194
v -80.000000 -160.000000 -8.151283
v -60.000000 -160.000000 -12.545238
v -40.000000 -160.000000 -18.255098
v -20.000000 -160.000000 -23.917458
v 0.000000 -160.000000 -27.279940
v 20.000000 -160.000000 -28.280516
v 40.000000 -160.000000 -27.612425
v 60.000000 -160.000000 -26.455347
v 80.000000 -160.000000 -25.321064
v 100.000000 -160.000000 -24.454792
v 120.000000 -160.000000 -23.316580
v 140.000000 -160.000000 -22.055471
v 160.000000 -160.000000 -21.461023
v -160.000000 -140.000000 -7.508936
v -140.000000 -140.000000 -10.446362
v -120.000000 -140.000000 -13.698742
v -100.000000 -140.000000 -16.659550
v -80.000000 -140.000000 -19.793543
v -60.000000 -140.000000 -23.718538
v -40.000000 -140.000000 -28.677305
v -20.000000 -140.000000 -33.619972
v 0.000000 -140.000000 -37.387360
v 20.000000 -140.000000 -40.195278
v 40.000000 -140.000000 -41.581188
v 60.000000 -140.000000 -40.377377
v 80.000000 -140.000000 -38.108757
v 100.000000 -140.000000 -36.341354
v 120.000000 -140.000000 -34.794472
v 140.000000 -140.000000 -33.449886
v 160.000000 -140.000000 -33.549343
v -160.000000 -120.000000 -14.848244
v -140.000000 -120.000000 -18.559216
v -120.000000 -120.000000 -22.257587
v -100.000000 -120.000000 -25.310890
v -80.000000 -120.000000 -28.043007
v -60.000000 -120.000000 -31.160574
v -40.000000 -120.000000 -34.887089
v -20.000000 -120.000000 -38.660717
v 0.000000 -120.000000 -42.092949
v 20.000000 -120.000000 -45.553417
v 40.000000 -120.000000 -49.318417
v 60.000000 -120.000000 -50.992146
v 80.000000 -120.000000 -50.434906
v 100.000000 -120.000000 -49.273048
v 120.000000 -120.000000 -47.836178
v 140.000000 -120.000000 -46.636654
v 160.000000 -120.000000 -47.254330
v -160.000000 -100.000000 -14.191092
v -140.000000 -100.000000 -19.003172
v -120.000000 -100.000000 -23.416977
v -100.000000 -100.000000 -27.095783
v -80.000000 -100.000000 -30.053810
v -60.000000 -100.000000 -32.677143
v -40.000000 -100.000000 -35.616955
v -20.000000 -100.000000 -38.895290
v 0.000000 -100.000000 -42.050102
v 20.000000 -100.000000 -45.885639
v 40.000000 -100.000000 -51.452831
v 60.000000 -100.000000 -56.642548
v 80.000000 -100.000000 -58.884594
v 100.000000 -100.000000 -59.137192
v 120.000000 -100.000000 -58.619553
v 140.000000 -100.000000 -58.055893
v 160.000000 -100.000000 -59.193249
v -160.000000 -80.000000 -3.041644
v -140.000000 -80.000000 -7.529552
v -120.000000 -80.000000 -11.620386
v -100.000000 -80.000000 -15.839170
v -80.000000 -80.000000 -19.668020
v -60.000000 -80.000000 -23.051851
v -40.000000 -80.000000 -27.106836
v -20.000000 -80.000000 -31.920015
v 0.000000 -80.000000 -36.535141
v 20.000000 -80.000000 -40.660892
v 40.000000 -80.000000 -46.722790
v 60.000000 -80.000000 -53.123714
v 80.000000 -80.000000 -57.271347
v 100.000000 -80.000000 -60.140255
v 120.000000 -80.000000 -61.770378
v 140.000000 -80.000000 -63.095016
v 160.000000 -80.000000 -64.950066
v -160.000000 -60.000000 10.726097
v -140.000000 -60.000000 6.896032
v -120.000000 -60.000000 3.039261
v -100.000000 -60.000000 -1.276521
v -80.000000 -60.000000 -5.654295
v -60.000000 -60.000000 -9.768539
v -40.000000 -60.000000 -15.065923
v -20.000000 -60.000000 -22.259262
v 0.000000 -60.000000 -28.852938
v 20.000000 -60.000000 -33.653896
v 40.000000 -60.000000 -38.689266
v 60.000000 -60.000000 -44.353447
v 80.000000 -60.000000 -49.987316
v 100.000000 -60.000000 -54.899853
v 120.000000 -60.000000 -58.849560
v 140.000000 -60.000000 -61.636364
v 160.000000 -60.000000 -64.260704
v -160.000000 -40.000000 23.719593
v -140.000000 -40.000000 20.416815
v -120.000000 -40.000000 16.829887
v -100.000000 -40.000000 12.736456
v -80.000000 -40.000000 8.639565
v -60.000000 -40.000000 4.128468
v -40.000000 -40.000000 -2.101154
v -20.000000 -40.000000 -10.845165
v 0.000000 -40.000000 -19.600544
v 20.000000 -40.000000 -25.525938
v 40.000000 -40.000000 -29.178120
v 60.000000 -40.000000 -33.651005
v 80.000000 -40.000000 -40.028168
v 100.000000 -40.000000 -46.967087
v 120.000000 -40.000000 -52.640560
v 140.000000 -40.000000 -56.559887
v 160.000000 -40.000000 -60.193913
v -160.000000 -20.000000 36.083439
v -140.000000 -20.000000 33.271027
v -120.000000 -20.000000 29.939672
v -100.000000 -20.000000 25.828300
v -80.000000 -20.000000 21.460905
v -60.000000 -20.000000 16.385252
v -40.000000 -20.000000 10.042160
v -20.000000 -20.000000 1.573780
v 0.000000 -20.000000 -8.200722
v 20.000000 -20.000000 -15.822053
v 40.000000 -20.000000 -19.619667
v 60.000000 -20.000000 -23.777090
v 80.000000 -20.000000 -30.394258
v 100.000000 -20.000000 -38.267216
v 120.000000 -20.000000 -45.115265
v 140.000000 -20.000000 -49.933388
v 160.000000 -20.000000 -54.378925
v -160.000000 0.000000 48.156040
v -140.000000 0.000000 45.621819
v -120.000000 0.000000 42.524612
v -100.000000 0.000000 38.479588
v -80.000000 0.000000 33.911674
v -60.000000 0.000000 27.946072
v -40.000000 0.000000 21.087734
v -20.000000 0.000000 12.981298
v 0.000000 0.000000 4.014725
v 20.000000 0.000000 -3.955998
v 40.000000 0.000000 -9.046446
v 60.000000 0.000000 -14.223319
v 80.000000 0.000000 -21.400822
v 100.000000 0.000000 -29.706602
v 120.000000 0.000000 -37.225372
v 140.000000 0.000000 -43.024471
v 160.000000 0.000000 -48.033981
v -160.000000 20.000000 60.014168
v -140.000000 20.000000 57.407890
v -120.000000 20.000000 54.371532
v -100.000000 20.000000 50.364048
v -80.000000 20.000000 45.695328
v -60.000000 20.000000 38.744209
v -40.000000 20.000000 30.755852
v -20.000000 20.000000 22.796768
v 0.000000 20.000000 15.494414
v 20.000000 20.000000 8.692626
v 40.000000 20.000000 2.033944
v 60.000000 20.000000 -4.993609
v 80.000000 20.000000 -12.976892
v 100.000000 20.000000 -21.449949
v 120.000000 20.000000 -29.476460
v 140.000000 20.000000 -36.226871
v 160.000000 20.000000 -41.783920
v -160.000000 40.000000 71.079330
v -140.000000 40.000000 68.201836
v -120.000000 40.000000 64.582436
v -100.000000 40.000000 59.908257
v -80.000000 40.000000 53.984219
v -60.000000 40.000000 46.434135
v -40.000000 40.000000 38.586124
v -20.000000 40.000000 31.267550
v 0.000000 40.000000 24.813234
v 20.000000 40.000000 18.652903
v 40.000000 40.000000 11.437136
v 60.000000 40.000000 3.591226
v 80.000000 40.000000 -4.951461
v 100.000000 40.000000 -13.940129
v 120.000000 40.000000 -22.525898
v 140.000000 40.000000 -30.050007
v 160.000000 40.000000 -36.532497
v -160.000000 60.000000 79.228973
v -140.000000 60.000000 76.046898
v -120.000000 60.000000 71.676102
v -100.000000 60.000000 66.193977
v -80.000000 60.000000 59.335129
v -60.000000 60.000000 51.951988
v -40.000000 60.000000 44.714546
v -20.000000 60.000000 38.012772
v 0.000000 60.000000 31.957216
v 20.000000 60.000000 26.083481
v 40.000000 60.000000 18.900187
v 60.000000 60.000000 10.629830
v 80.000000 60.000000 1.571854
v 100.000000 60.000000 -7.951319
v 120.000000 60.000000 -17.300264
v 140.000000 60.000000 -25.650898
v 160.000000 60.000000 -33.169777
v -160.000000 80.000000 81.771820
v -140.000000 80.000000 78.454247
v -120.000000 80.000000 74.033440
v -100.000000 80.000000 68.622543
v -80.000000 80.000000 62.023537
v -60.000000 80.000000 55.309925
v -40.000000 80.000000 48.864731
v -20.000000 80.000000 42.605053
v 0.000000 80.000000 36.754265
v 20.000000 80.000000 30.977388
v 40.000000 80.000000 24.100510
v 60.000000 80.000000 15.651478
v 80.000000 80.000000 6.161450
v 100.000000 80.000000 -4.047598
v 120.000000 80.000000 -14.145493
v 140.000000 80.000000 -23.307934
v 160.000000 80.000000 -31.727354
v -160.000000 100.000000 78.976036
v -140.000000 100.000000 75.777451
v -120.000000 100.000000 71.779716
v -100.000000 100.000000 66.761345
v -80.000000 100.000000 60.911858
v -60.000000 100.000000 54.954029
v -40.000000 100.000000 49.151188
v -20.000000 100.000000 43.624763
v 0.000000 100.000000 38.202675
v 20.000000 100.000000 32.629169
v 40.000000 100.000000 26.200907
v 60.000000 100.000000 17.780422
v 80.000000 100.000000 7.921199
v 100.000000 100.000000 -2.871003
v 120.000000 100.000000 -13.814179
v 140.000000 100.000000 -23.520153
v 160.000000 100.000000 -32.234745
v -160.000000 120.000000 72.738037
v -140.000000 120.000000 69.904999
v -120.000000 120.000000 66.552094
v -100.000000 120.000000 62.200417
v -80.000000 120.000000 57.039852
v -60.000000 120.000000 51.881798
v -40.000000 120.000000 46.703926
v -20.000000 120.000000 41.708256
v 0.000000 120.000000 36.782692
v 20.000000 120.000000 31.459749
v 40.000000 120.000000 25.460947
v 60.000000 120.000000 17.126797
v 80.000000 120.000000 7.132252
v 100.000000 120.000000 -3.762341
v 120.000000 120.000000 -14.499774
v 140.000000 120.000000 -23.797606
v 160.000000 120.000000 -31.760374
v -160.000000 140.000000 65.539474
v -140.000000 140.000000 62.917797
v -120.000000 140.000000 60.099373
v -100.000000 140.000000 56.337601
v -80.000000 140.000000 51.658596
v -60.000000 140.000000 46.988850
v -40.000000 140.000000 42.366550
v -20.000000 140.000000 37.688366
v 0.000000 140.000000 32.952999
v 20.000000 140.000000 27.951723
v 40.000000 140.000000 22.049845
v 60.000000 140.000000 13.889030
v 80.000000 140.000000 4.087465
v 100.000000 140.000000 -6.076794
v 120.000000 140.000000 -15.454811
v 140.000000 140.000000 -23.151697
v 160.000000 140.000000 -29.802834
v -160.000000 160.000000 58.112133
v -140.000000 160.000000 55.245842
v -120.000000 160.000000 52.735504
v -100.000000 160.000000 49.546692
v -80.000000 160.000000 45.523800
v -60.000000 160.000000 41.176300
v -40.000000 160.000000 36.736393
v -20.000000 160.000000 32.196598
v 0.000000 160.000000 27.615149
v 20.000000 160.000000 22.910641
v 40.000000 160.000000 17.149345
v 60.000000 160.000000 9.154808
v 80.000000 160.000000 -0.001375
v 100.000000 160.000000 -9.020851
v 120.000000 160.000000 -16.635910
v 140.000000 160.000000 -22.438847
v 160.000000 160.000000 -27.855066
vn 0.0888 0.5354 0.8399
vn 0.1259 0.5399 0.8323
vn 0.1352 0.4672 0.8738
vn 0.1113 0.4505 0.8858
vn 0.1453 0.5355 0.8319
vn 0.1353 0.4725 0.8709
vn 0.1597 0.5173 0.8408
vn 0.1335 0.4633 0.8761
vn 0.1786 0.4928 0.8516
vn 0.1561 0.4398 0.8844
vn 0.2155 0.4749 0.8533
vn 0.1974 0.4136 0.8888
vn 0.2434 0.4560 0.8561
vn 0.2228 0.3743 0.9001
vn 0.1964 0.4512 0.8705
vn 0.2002 0.3388 0.9193
vn 0.0949 0.4836 0.8701
vn 0.1524 0.3432 0.9268
vn 0.0070 0.5372 0.8434
vn 0.0958 0.3946 0.9138
vn -0.0374 0.5711 0.8201
vn 0.0040 0.4769 0.8789
vn -0.0474 0.5602 0.8270
vn -0.0738 0.5215 0.8501
vn -0.0425 0.5253 0.8498
vn -0.0851 0.5298 0.8438
vn -0.0433 0.5024 0.8635
vn -0.0702 0.5259 0.8476
vn -0.0521 0.4931 0.8684
vn -0.0615 0.5216 0.8509
vn -0.0404 0.4913 0.8700
vn -0.0265 0.5234 0.8517
vn -0.0179 0.5100 0.8600
vn 0.0200 0.5418 0.8403
vn 0.1782 0.2058 0.9622
vn 0.1775 0.1622 0.9707
vn 0.1619 0.2330 0.9589
vn 0.1386 0.2500 0.9583
vn 0.1403 0.2460 0.9591
vn 0.1647 0.2156 0.9625
vn 0.1817 0.1681 0.9689
vn 0.1758 0.1287 0.9760
vn 0.1687 0.1141 0.9790
vn 0.1761 0.1386 0.9746
vn 0.1309 0.2375 0.9625
vn 0.0258 0.3766 0.9260
vn -0.0381 0.4606 0.8868
vn -0.0563 0.4943 0.8674
vn -0.0566 0.5109 0.8578
vn -0.0124 0.5239 0.8517
vn 0.0373 0.5393 0.8413
vn 0.2171 -0.2595 0.9410
vn 0.2390 -0.2749 0.9313
vn 0.1919 -0.2522 0.9485
vn 0.1594 -0.2275 0.9607
vn 0.1353 -0.2030 0.9698
vn 0.1351 -0.1968 0.9711
vn 0.1508 -0.1887 0.9704
vn 0.1567 -0.1641 0.9739
vn 0.1706 -0.1356 0.9760
vn 0.2272 -0.1182 0.9666
vn 0.2592 -0.0625 0.9638
vn 0.1824 0.0523 0.9818
vn 0.0614 0.1681 0.9839
vn -0.0064 0.2622 0.9650
vn -0.0255 0.3288 0.9440
vn 0.0133 0.3805 0.9247
vn 0.0572 0.4039 0.9130
vn 0.1772 -0.5349 0.8261
vn 0.2050 -0.5175 0.8308
vn 0.1707 -0.5436 0.8218
vn 0.1667 -0.5348 0.8284
vn 0.1521 -0.5147 0.8438
vn 0.1593 -0.4906 0.8567
vn 0.1935 -0.4483 0.8727
vn 0.2127 -0.3752 0.9022
vn 0.2032 -0.3068 0.9298
vn 0.2366 -0.2841 0.9291
vn 0.2846 -0.2914 0.9133
vn 0.2444 -0.2848 0.9269
vn 0.1688 -0.2140 0.9621
vn 0.1111 -0.1047 0.9883
vn 0.0737 0.0057 0.9973
vn 0.0789 0.0889 0.9929
vn 0.1044 0.1250 0.9867
vn 0.1556 -0.5657 0.8098
vn 0.1734 -0.5476 0.8186
vn 0.1642 -0.5715 0.8040
vn 0.1741 -0.5724 0.8013
vn 0.1706 -0.5693 0.8042
vn 0.1910 -0.5517 0.8119
vn 0.2560 -0.5124 0.8197
vn 0.2916 -0.4459 0.8462
vn 0.2537 -0.3771 0.8907
vn 0.2241 -0.3449 0.9115
vn 0.2379 -0.3901 0.8895
vn 0.2462 -0.4242 0.8715
vn 0.2353 -0.3847 0.8925
vn 0.2059 -0.3061 0.9295
vn 0.1620 -0.2196 0.9620
vn 0.1323 -0.1598 0.9782
vn 0.1453 -0.1168 0.9825
vn 0.1424 -0.5448 0.8264
vn 0.1475 -0.5296 0.8353
vn 0.1573 -0.5511 0.8195
vn 0.1672 -0.5530 0.8162
vn 0.1754 -0.5524 0.8149
vn 0.2193 -0.5339 0.8166
vn 0.3022 -0.5068 0.8074
vn 0.3518 -0.4791 0.8042
vn 0.3100 -0.4362 0.8448
vn 0.2136 -0.3978 0.8923
vn 0.1803 -0.4233 0.8879
vn 0.2344 -0.4446 0.8645
vn 0.2865 -0.4214 0.8604
vn 0.2795 -0.3687 0.8865
vn 0.2212 -0.3167 0.9224
vn 0.1783 -0.2763 0.9444
vn 0.1910 -0.2354 0.9529
vn 0.1289 -0.5287 0.8390
vn 0.1285 -0.5170 0.8463
vn 0.1547 -0.5340 0.8312
vn 0.1755 -0.5328 0.8279
vn 0.1957 -0.5238 0.8291
vn 0.2380 -0.4970 0.8345
vn 0.3051 -0.4776 0.8239
vn 0.3648 -0.4765 0.7999
vn 0.3507 -0.4761 0.8064
vn 0.2437 -0.4603 0.8537
vn 0.1749 -0.4426 0.8795
vn 0.2355 -0.4246 0.8742
vn 0.3120 -0.4011 0.8613
vn 0.3201 -0.3754 0.8698
vn 0.2626 -0.3470 0.9004
vn 0.2143 -0.3131 0.9252
vn 0.2231 -0.2835 0.9326
vn 0.1197 -0.5130 0.8500
vn 0.1195 -0.5097 0.8520
vn 0.1506 -0.5153 0.8437
vn 0.1805 -0.5143 0.8384
vn 0.2197 -0.5055 0.8344
vn 0.2695 -0.4699 0.8406
vn 0.3152 -0.4364 0.8427
vn 0.3528 -0.4386 0.8266
vn 0.3423 -0.4789 0.8084
vn 0.2682 -0.5034 0.8214
vn 0.2202 -0.4644 0.8578
vn 0.2692 -0.4094 0.8717
vn 0.3345 -0.3762 0.8641
vn 0.3427 -0.3640 0.8661
vn 0.2962 -0.3478 0.8896
vn 0.2477 -0.3141 0.9165
vn 0.2337 -0.2920 0.9274
vn 0.1219 -0.4879 0.8643
vn 0.1216 -0.4935 0.8612
vn 0.1524 -0.4772 0.8655
vn 0.1878 -0.4638 0.8658
vn 0.2513 -0.4341 0.8651
vn 0.3211 -0.3973 0.8597
vn 0.3431 -0.3765 0.8606
vn 0.3278 -0.3928 0.8592
vn 0.2986 -0.4403 0.8468
vn 0.2810 -0.4721 0.8356
vn 0.2913 -0.4360 0.8515
vn 0.3243 -0.3848 0.8641
vn 0.3555 -0.3555 0.8644
vn 0.3583 -0.3423 0.8686
vn 0.3276 -0.3259 0.8868
vn 0.2807 -0.2962 0.9129
vn 0.2455 -0.2679 0.9317
vn 0.1457 -0.4179 0.8968
vn 0.1282 -0.4294 0.8940
vn 0.1869 -0.3900 0.9016
vn 0.2392 -0.3573 0.9028
vn 0.3037 -0.3075 0.9018
vn 0.3433 -0.2945 0.8919
vn 0.3370 -0.3102 0.8889
vn 0.3063 -0.3385 0.8897
vn 0.2800 -0.3654 0.8878
vn 0.2932 -0.3812 0.8768
vn 0.3276 -0.3671 0.8706
vn 0.3565 -0.3399 0.8702
vn 0.3807 -0.3159 0.8690
vn 0.3843 -0.2952 0.8747
vn 0.3596 -0.2717 0.8927
vn 0.3207 -0.2421 0.9157
vn 0.2901 -0.2015 0.9355
vn 0.1799 -0.2442 0.9529
vn 0.1417 -0.2556 0.9563
vn 0.2331 -0.2236 0.9464
vn 0.2886 -0.2038 0.9355
vn 0.3296 -0.1860 0.9256
vn 0.3361 -0.2040 0.9195
vn 0.3198 -0.2358 0.9177
vn 0.2934 -0.2607 0.9198
vn 0.2748 -0.2750 0.9213
vn 0.2978 -0.2810 0.9123
vn 0.3456 -0.2832 0.8946
vn 0.3831 -0.2666 0.8844
vn 0.4086 -0.2443 0.8794
vn 0.4164 -0.2183 0.8826
vn 0.3974 -0.1882 0.8981
vn 0.3645 -0.1547 0.9183
vn 0.3395 -0.1122 0.9339
vn 0.1899 0.0066 0.9818
vn 0.1516 0.0062 0.9884
vn 0.2387 -0.0025 0.9711
vn 0.2875 -0.0136 0.9577
vn 0.3156 -0.0374 0.9482
vn 0.3117 -0.0712 0.9475
vn 0.3010 -0.1052 0.9478
vn 0.2872 -0.1331 0.9486
vn 0.2761 -0.1482 0.9496
vn 0.2980 -0.1542 0.9420
vn 0.3527 -0.1680 0.9205
vn 0.4039 -0.1610 0.9005
vn 0.4374 -0.1409 0.8881
vn 0.4499 -0.1124 0.8860
vn 0.4325 -0.0783 0.8982
vn 0.4019 -0.0487 0.9144
vn 0.3742 -0.0217 0.9271
vn 0.1733 0.2058 0.9631
vn 0.1469 0.2179 0.9649
vn 0.2163 0.1795 0.9597
vn 0.2591 0.1531 0.9536
vn 0.2811 0.1185 0.9523
vn 0.2811 0.0819 0.9562
vn 0.2722 0.0519 0.9609
vn 0.2640 0.0217 0.9643
vn 0.2651 -0.0006 0.9642
vn 0.2874 -0.0116 0.9578
vn 0.3478 -0.0319 0.9370
vn 0.4154 -0.0334 0.9090
vn 0.4587 -0.0216 0.8884
vn 0.4774 -0.0063 0.8786
vn 0.4587 0.0079 0.8886
vn 0.4183 0.0111 0.9083
vn 0.3747 0.0008 0.9271
vn 0.1456 0.3028 0.9419
vn 0.1345 0.3155 0.9393
vn 0.1821 0.2757 0.9438
vn 0.2243 0.2458 0.9430
vn 0.2437 0.2186 0.9449
vn 0.2456 0.1893 0.9507
vn 0.2432 0.1622 0.9563
vn 0.2383 0.1426 0.9607
vn 0.2463 0.1262 0.9609
vn 0.2707 0.1118 0.9562
vn 0.3357 0.0973 0.9369
vn 0.4150 0.0881 0.9056
vn 0.4612 0.0846 0.8832
vn 0.4745 0.0703 0.8774
vn 0.4476 0.0367 0.8935
vn 0.3962 -0.0085 0.9181
vn 0.3394 -0.0571 0.9389
vn 0.1266 0.3413 0.9314
vn 0.1302 0.3405 0.9312
vn 0.1536 0.3226 0.9340
vn 0.1971 0.2955 0.9348
vn 0.2191 0.2699 0.9376
vn 0.2189 0.2522 0.9426
vn 0.2201 0.2359 0.9465
vn 0.2232 0.2255 0.9483
vn 0.2308 0.2172 0.9484
vn 0.2577 0.2020 0.9449
vn 0.3255 0.1924 0.9258
vn 0.4030 0.1789 0.8975
vn 0.4410 0.1576 0.8836
vn 0.4359 0.1173 0.8923
vn 0.3921 0.0490 0.9186
vn 0.3375 -0.0319 0.9408
vn 0.2878 -0.0931 0.9532
vn 0.1243 0.3605 0.9244
vn 0.1570 0.3356 0.9288
vn 0.1319 0.3548 0.9256
vn 0.1674 0.3314 0.9285
vn 0.1954 0.2993 0.9339
vn 0.2056 0.2859 0.9359
vn 0.2102 0.2809 0.9364
vn 0.2136 0.2780 0.9365
vn 0.2174 0.2747 0.9366
vn 0.2441 0.2641 0.9331
vn 0.3147 0.2517 0.9152
vn 0.3830 0.2357 0.8932
vn 0.4052 0.2017 0.8917
vn 0.3795 0.1517 0.9127
vn 0.3167 0.0912 0.9441
vn 0.2700 0.0174 0.9627
vn 0.2486 -0.0374 0.9679
vt 0.015625 0.015625
vt 0.076172 0.015625
vt 0.076172 0.076172
vt 0.015625 0.076172
vt 0.136719 0.015625
vt 0.136719 0.076172
vt 0.197266 0.015625
vt 0.197266 0.076172
vt 0.257812 0.015625
vt 0.257812 0.076172
vt 0.318359 0.015625
vt 0.318359 0.076172
vt 0.378906 0.015625
vt 0.378906 0.076172
vt 0.439453 0.015625
vt 0.439453 0.076172
vt 0.500000 0.015625
vt 0.500000 0.076172
vt 0.560547 0.015625
vt 0.560547 0.076172
vt 0.621094 0.015625
vt 0.621094 0.076172
vt 0.681641 0.015625
vt 0.681641 0.076172
vt 0.742188 0.015625
vt 0.742188 0.076172
vt 0.802734 0.015625
vt 0.802734 0.076172
vt 0.863281 0.015625
vt 0.863281 0.076172
vt 0.923828 0.015625
vt 0.923828 0.076172
vt 0.984375 0.015625
vt 0.984375 0.076172
vt 0.076172 0.136719
vt 0.015625 0.136719
vt 0.136719 0.136719
vt 0.197266 0.136719
vt 0.257812 0.136719
vt 0.318359 0.136719
vt 0.378906 0.136719
vt 0.439453 0.136719
vt 0.500000 0.136719
vt 0.560547 0.136719
vt 0.621094 0.136719
vt 0.681641 0.136719
vt 0.742188 0.136719
vt 0.802734 0.136719
vt 0.863281 0.136719
vt 0.923828 0.136719
vt 0.984375 0.136719
vt 0.076172 0.197266
vt 0.015625 0.197266
vt 0.136719 0.197266
vt 0.197266 0.197266
vt 0.257812 0.197266
vt 0.318359 0.197266
vt 0.378906 0.197266
vt 0.439453 0.197266
vt 0.500000 0.197266
vt 0.560547 0.197266
vt 0.621094 0.197266
vt 0.681641 0.197266
vt 0.742188 0.197266
vt 0.802734 0.197266
vt 0.863281 0.197266
vt 0.923828 0.197266
vt 0.984375 0.197266
vt 0.076172 0.257812
vt 0.015625 0.257812
vt 0.136719 0.257812
vt 0.197266 0.257812
vt 0.257812 0.257812
vt 0.318359 0.257812
vt 0.378906 0.257812
vt 0.439453 0.257812
vt 0.500000 0.257812
vt 0.560547 0.257812
vt 0.621094 0.257812
vt 0.681641 0.257812
vt 0.742188 0.257812
vt 0.802734 0.257812
vt 0.863281 0.257812
vt 0.923828 0.257812
vt 0.984375 0.257812
vt 0.076172 0.318359
vt 0.015625 0.318359
vt 0.136719 0.318359
vt 0.197266 0.318359
vt 0.257812 0.318359
vt 0.318359 0.318359
vt 0.378906 0.318359
vt 0.439453 0.318359
vt 0.500000 0.318359
vt 0.560547 0.318359
vt 0.621094 0.318359
vt 0.681641 0.318359
vt 0.742188 0.318359
vt 0.802734 0.318359
vt 0.863281 0.318359
vt 0.923828 0.318359
vt 0.984375 0.318359
vt 0.076172 0.378906
vt 0.015625 0.378906
vt 0.136719 0.378906
vt 0.197266 0.378906
vt 0.257812 0.378906
vt 0.318359 0.378906
vt 0.378906 0.378906
vt 0.439453 0.378906
vt 0.500000 0.378906
vt 0.560547 0.378906
vt 0.621094 0.378906
vt 0.681641 0.378906
vt 0.742188 0.378906
vt 0.802734 0.378906
vt 0.863281 0.378906
vt 0.923828 0.378906
vt 0.984375 0.378906
vt 0.076172 0.439453
vt 0.015625 0.439453
vt 0.136719 0.439453
vt 0.197266 0.439453
vt 0.257812 0.439453
vt 0.318359 0.439453
vt 0.378906 0.439453
vt 0.439453 0.439453
vt 0.500000 0.439453
vt 0.560547 0.439453
vt 0.621094 0.439453
vt 0.681641 0.439453
vt 0.742188 0.439453
vt 0.802734 0.439453
vt 0.863281 0.439453
vt 0.923828 0.439453
vt 0.984375 0.439453
vt 0.076172 0.500000
vt 0.015625 0.500000
vt 0.136719 0.500000
vt 0.197266 0.500000
vt 0.257812 0.500000
vt 0.318359 0.500000
vt 0.378906 0.500000
vt 0.439453 0.500000
vt 0.500000 0.500000
vt 0.560547 0.500000
vt 0.621094 0.500000
vt 0.681641 0.500000
vt 0.742188 0.500000
vt 0.802734 0.500000
vt 0.863281 0.500000
vt 0.923828 0.500000
vt 0.984375 0.500000
vt 0.076172 0.560547
vt 0.015625 0.560547
vt 0.136719 0.560547
vt 0.197266 0.560547
vt 0.257812 0.560547
vt 0.318359 0.560547
vt 0.378906 0.560547
vt 0.439453 0.560547
vt 0.500000 0.560547
vt 0.560547 0.560547
vt 0.621094 0.560547
vt 0.681641 0.560547
vt 0.742188 0.560547
vt 0.802734 0.560547
vt 0.863281 0.560547
vt 0.923828 0.560547
vt 0.984375 0.560547
vt 0.076172 0.621094
vt 0.015625 0.621094
vt 0.136719 0.621094
vt 0.197266 0.621094
vt 0.257812 0.621094
vt 0.318359 0.621094
vt 0.378906 0.621094
vt 0.439453 0.621094
vt 0.500000 0.621094
vt 0.560547 0.621094
vt 0.621094 0.621094
vt 0.681641 0.621094
vt 0.742188 0.621094
vt 0.802734 0.621094
vt 0.863281 0.621094
vt 0.923828 0.621094
vt 0.984375 0.621094
vt 0.076172 0.681641
vt 0.015625 0.681641
vt 0.136719 0.681641
vt 0.197266 0.681641
vt 0.257812 0.681641
vt 0.318359 0.681641
vt 0.378906 0.681641
vt 0.439453 0.681641
vt 0.500000 0.681641
vt 0.560547 0.681641
vt 0.621094 0.681641
vt 0.681641 0.681641
vt 0.742188 0.681641
vt 0.802734 0.681641
vt 0.863281 0.681641
vt 0.923828 0.681641
vt 0.984375 0.681641
vt 0.076172 0.742188
vt 0.015625 0.742188
vt 0.136719 0.742188
vt 0.197266 0.742188
vt 0.257812 0.742188
vt 0.318359 0.742188
vt 0.378906 0.742188
vt 0.439453 0.742188
vt 0.500000 0.742188
vt 0.560547 0.742188
vt 0.621094 0.742188
vt 0.681641 0.742188
vt 0.742188 0.742188
vt 0.802734 0.742188
vt 0.863281 0.742188
vt 0.923828 0.742188
vt 0.984375 0.742188
vt 0.076172 0.802734
vt 0.015625 0.802734
vt 0.136719 0.802734
vt 0.197266 0.802734
vt 0.257812 0.802734
vt 0.318359 0.802734
vt 0.378906 0.802734
vt 0.439453 0.802734
vt 0.500000 0.802734
vt 0.560547 0.802734
vt 0.621094 0.802734
vt 0.681641 0.802734
vt 0.742188 0.802734
vt 0.802734 0.802734
vt 0.863281 0.802734
vt 0.923828 0.802734
vt 0.984375 0.802734
vt 0.076172 0.863281
vt 0.015625 0.863281
vt 0.136719 0.863281
vt 0.197266 0.863281
vt 0.257812 0.863281
vt 0.318359 0.863281
vt 0.378906 0.863281
vt 0.439453 0.863281
vt 0.500000 0.863281
vt 0.560547 0.863281
vt 0.621094 0.863281
vt 0.681641 0.863281
vt 0.742188 0.863281
vt 0.802734 0.863281
vt 0.863281 0.863281
vt 0.923828 0.863281
vt 0.984375 0.863281
vt 0.076172 0.923828
vt 0.015625 0.923828
vt 0.136719 0.923828
vt 0.197266 0.923828
vt 0.257812 0.923828
vt 0.318359 0.923828
vt 0.378906 0.923828
vt 0.439453 0.923828
vt 0.500000 0.923828
vt 0.560547 0.923828
vt 0.621094 0.923828
vt 0.681641 0.923828
vt 0.742188 0.923828
vt 0.802734 0.923828
vt 0.863281 0.923828
vt 0.923828 0.923828
vt 0.984375 0.923828
vt 0.076172 0.984375
vt 0.015625 0.984375
vt 0.136719 0.984375
vt 0.197266 0.984375
vt 0.257812 0.984375
vt 0.318359 0.984375
vt 0.378906 0.984375
vt 0.439453 0.984375
vt 0.500000 0.984375
vt 0.560547 0.984375
vt 0.621094 0.984375
vt 0.681641 0.984375
vt 0.742188 0.984375
vt 0.802734 0.984375
vt 0.863281 0.984375
vt 0.923828 0.984375
vt 0.984375 0.984375
s 1
f 1/1/1 2/2/2 19/3/3
f 1/1/1 19/3/3 18/4/4
f 2/2/2 3/5/5 20/6/6
f 2/2/2 20/6/6 19/3/3
f 3/5/5 4/7/7 21/8/8
f 3/5/5 21/8/8 20/6/6
f 4/7/7 5/9/9 22/10/10
f 4/7/7 22/10/10 21/8/8
f 5/9/9 6/11/11 23/12/12
f 5/9/9 23/12/12 22/10/10
f 6/11/11 7/13/13 24/14/14
f 6/11/11 24/14/14 23/12/12
f 7/13/13 8/15/15 25/16/16
f 7/13/13 25/16/16 24/14/14
f 8/15/15 9/17/17 26/18/18
f 8/15/15 26/18/18 25/16/16
f 9/17/17 10/19/19 27/20/20
f 9/17/17 27/20/20 26/18/18
f 10/19/19 11/21/21 28/22/22
f 10/19/19 28/22/22 27/20/20
f 11/21/21 12/23/23 29/24/24
f 11/21/21 29/24/24 28/22/22
f 12/23/23 13/25/25 30/26/26
f 12/23/23 30/26/26 29/24/24
f 13/25/25 14/27/27 31/28/28
f 13/25/25 31/28/28 30/26/26
f 14/27/27 15/29/29 32/30/30
f 14/27/27 32/30/30 31/28/28
f 15/29/29 16/31/31 33/32/32
f 15/29/29 33/32/32 32/30/30
f 16/31/31 17/33/33 34/34/34
f 16/31/31 34/34/34 33/32/32
f 18/4/4 19/3/3 36/35/35
f 18/4/4 36/35/35 35/36/36
f 19/3/3 20/6/6 37/37/37
f 19/3/3 37/37/37 36/35/35
f 20/6/6 21/8/8 38/38/38
f 20/6/6 38/38/38 37/37/37
f 21/8/8 22/10/10 39/39/39
f 21/8/8 39/39/39 38/38/38
f 22/10/10 23/12/12 40/40/40
f 22/10/10 40/40/40 39/39/39
f 23/12/12 24/14/14 41/41/41
f 23/12/12 41/41/41 40/40/40
f 24/14/14 25/16/16 42/42/42
f 24/14/14 42/42/42 41/41/41
f 25/16/16 26/18/18 43/43/43
f 25/16/16 43/43/43 42/42/42
f 26/18/18 27/20/20 44/44/44
f 26/18/18 44/44/44 43/43/43
f 27/20/20 28/22/22 45/45/45
f 27/20/20 45/45/45 44/44/44
f 28/22/22 29/24/24 46/46/46
f 28/22/22 46/46/46 45/45/45
f 29/24/24 30/26/26 47/47/47
f 29/24/24 47/47/47 46/46/46
f 30/26/26 31/28/28 48/48/48
f 30/26/26 48/48/48 47/47/47
f 31/28/28 32/30/30 49/49/49
f 31/28/28 49/49/49 48/48/48
f 32/30/30 33/32/32 50/50/50
f 32/30/30 50/50/50 49/49/49
f 33/32/32 34/34/34 51/51/51
f 33/32/32 51/51/51 50/50/50
f 35/36/36 36/35/35 53/52/52
f 35/36/36 53/52/52 52/53/53
f 36/35/35 37/37/37 54/54/54
f 36/35/35 54/54/54 53/52/52
f 37/37/37 38/38/38 55/55/55
f 37/37/37 55/55/55 54/54/54
f 38/38/38 39/39/39 56/56/56
f 38/38/38 56/56/56 55/55/55
f 39/39/39 40/40/40 57/57/57
f 39/39/39 57/57/57 56/56/56
f 40/40/40 41/41/41 58/58/58
f 40/40/40 58/58/58 57/57/57
f 41/41/41 42/42/42 59/59/59
f 41/41/41 59/59/59 58/58/58
f 42/42/42 43/43/43 60/60/60
f 42/42/42 60/60/60 59/59/59
f 43/43/43 44/44/44 61/61/61
f 43/43/43 61/61/61 60/60/60
f 44/44/44 45/45/45 62/62/62
f 44/44/44 62/62/62 61/61/61
f 45/45/45 46/46/46 63/63/63
f 45/45/45 63/63/63 62/62/62
f 46/46/46 47/47/47 64/64/64
f 46/46/46 64/64/64 63/63/63
f 47/47/47 48/48/48 65/65/65
f 47/47/47 65/65/65 64/64/64
f 48/48/48 49/49/49 66/66/66
f 48/48/48 66/66/66 65/65/65
f 49/49/49 50/50/50 67/67/67
f 49/49/49 67/67/67 66/66/66
f 50/50/50 51/51/51 68/68/68
f 50/50/50 68/68/68 67/67/67
f 52/53/53 53/52/52 70/69/69
f 52/53/53 70/69/69 69/70/70
f 53/52/52 54/54/54 71/71/71
f 53/52/52 71/71/71 70/69/69
f 54/54/54 55/55/55 72/72/72
f 54/54/54 72/72/72 71/71/71
f 55/55/55 56/56/56 73/73/73
f 55/55/55 73/73/73 72/72/72
f 56/56/56 57/57/57 74/74/74
f 56/56/56 74/74/74 73/73/73
f 57/57/57 58/58/58 75/75/75
f 57/57/57 75/75/75 74/74/74
f 58/58/58 59/59/59 76/76/76
f 58/58/58 76/76/76 75/75/75
f 59/59/59 60/60/60 77/77/77
f 59/59/59 77/77/77 76/76/76
f 60/60/60 61/61/61 78/78/78
f 60/60/60 78/78/78 77/77/77
f 61/61/61 62/62/62 79/79/79
f 61/61/61 79/79/79 78/78/78
f 62/62/62 63/63/63 80/80/80
f 62/62/62 80/80/80 79/79/79
f 63/63/63 64/64/64 81/81/81
f 63/63/63 81/81/81 80/80/80
f 64/64/64 65/65/65 82/82/82
f 64/64/64 82/82/82 81/81/81
f 65/65/65 66/66/66 83/83/83
f 65/65/65 83/83/83 82/82/82
f 66/66/66 67/67/67 84/84/84
f 66/66/66 84/84/84 83/83/83
f 67/67/67 68/68/68 85/85/85
f 67/67/67 85/85/85 84/84/84
f 69/70/70 70/69/69 87/86/86
f 69/70/70 87/86/86 86/87/87
f 70/69/69 71/71/71 88/88/88
f 70/69/69 88/88/88 87/86/86
f 71/71/71 72/72/72 89/89/89
f 71/71/71 89/89/89 88/88/88
f 72/72/72 73/73/73 90/90/90
f 72/72/72 90/90/90 89/89/89
f 73/73/73 74/74/74 91/91/91
f 73/73/73 91/91/91 90/90/90
f 74/74/74 75/75/75 92/92/92
f 74/74/74 92/92/92 91/91/91
f 75/75/75 76/76/76 93/93/93
f 75/75/75 93/93/93 92/92/92
f 76/76/76 77/77/77 94/94/94
f 76/76/76 94/94/94 93/93/93
f 77/77/77 78/78/78 95/95/95
f 77/77/77 95/95/95 94/94/94
f 78/78/78 79/79/79 96/96/96
f 78/78/78 96/96/96 95/95/95
f 79/79/79 80/80/80 97/97/97
f 79/79/79 97/97/97 96/96/96
f 80/80/80 81/81/81 98/98/98
f 80/80/80 98/98/98 97/97/97
f 81/81/81 82/82/82 99/99/99
f 81/81/81 99/99/99 98/98/98
f 82/82/82 83/83/83 100/100/100
f 82/82/82 100/100/100 99/99/99
f 83/83/83 84/84/84 101/101/101
f 83/83/83 101/101/101 100/100/100
f 84/84/84 85/85/85 102/102/102
f 84/84/84 102/102/102 101/101/101
f 86/87/87 87/86/86 104/103/103
f 86/87/87 104/103/103 103/104/104
f 87/86/86 88/88/88 105/105/105
f 87/86/86 105/105/105 104/103/103
f 88/88/88 89/89/89 106/106/106
f 88/88/88 106/106/106 105/105/105
f 89/89/89 90/90/90 107/107/107
f 89/89/89 107/107/107 106/106/106
f 90/90/90 91/91/91 108/108/108
f 90/90/90 108/108/108 107/107/107
f 91/91/91 92/92/92 109/109/109
f 91/91/91 109/109/109 108/108/108
f 92/92/92 93/93/93 110/110/110
f 92/92/92 110/110/110 109/109/109
f 93/93/93 94/94/94 111/111/111
f 93/93/93 111/111/111 110/110/110
f 94/94/94 95/95/95 112/112/112
f 94/94/94 112/112/112 111/111/111
f 95/95/95 96/96/96 113/113/113
f 95/95/95 113/113/113 112/112/112
f 96/96/96 97/97/97 114/114/114
f 96/96/96 114/114/114 113/113/113
f 97/97/97 98/98/98 115/115/115
f 97/97/97 115/115/115 114/114/114
f 98/98/98 99/99/99 116/116/116
f 98/98/98 116/116/116 115/115/115
f 99/99/99 100/100/100 117/117/117
f 99/99/99 117/117/117 116/116/116
f 100/100/100 101/101/101 118/118/118
f 100/100/100 118/118/118 117/117/117
f 101/101/101 102/102/102 119/119/119
f 101/101/101 119/119/119 118/118/118
f 103/104/104 104/103/103 121/120/120
f 103/104/104 121/120/120 120/121/121
f 104/103/103 105/105/105 122/122/122
f 104/103/103 122/122/122 121/120/120
f 105/105/105 106/106/106 123/123/123
f 105/105/105 123/123/123 122/122/122
f 106/106/106 107/107/107 124/124/124
f 106/106/106 124/124/124 123/123/123
f 107/107/107 108/108/108 125/125/125
f 107/107/107 125/125/125 124/124/124
f 108/108/108 109/109/109 126/126/126
f 108/108/108 126/126/126 125/125/125
f 109/109/109 110/110/110 127/127/127
f 109/109/109 127/127/127 126/126/126
f 110/110/110 111/111/111 128/128/128
f 110/110/110 128/128/128 127/127/127
f 111/111/111 112/112/112 129/129/129
f 111/111/111 129/129/129 128/128/128
f 112/112/112 113/113/113 130/130/130
f 112/112/112 130/130/130 129/129/129
f 113/113/113 114/114/114 131/131/131
f 113/113/113 131/131/131 130/130/130
f 114/114/114 115/115/115 132/132/132
f 114/114/114 132/132/132 131/131/131
f 115/115/115 116/116/116 133/133/133
f 115/115/115 133/133/133 132/132/132
f 116/116/116 117/117/117 134/134/134
f 116/116/116 134/134/134 133/133/133
f 117/117/117 118/118/118 135/135/135
f 117/117/117 135/135/135 134/134/134
f 118/118/118 119/119/119 136/136/136
f 118/118/118 136/136/136 135/135/135
f 120/121/121 121/120/120 138/137/137
f 120/121/121 138/137/137 137/138/138
f 121/120/120 122/122/122 139/139/139
f 121/120/120 139/139/139 138/137/137
f 122/122/122 123/123/123 140/140/140
f 122/122/122 140/140/140 139/139/139
f 123/123/123 124/124/124 141/141/141
f 123/123/123 141/141/141 140/140/140
f 124/124/124 125/125/125 142/142/142
f 124/124/124 142/142/142 141/141/141
f 125/125/125 126/126/126 143/143/143
f 125/125/125 143/143/143 142/142/142
f 126/126/126 127/127/127 144/144/144
f 126/126/126 144/144/144 143/143/143
f 127/127/127 128/128/128 145/145/145
f 127/127/127 145/145/145 144/144/144
f 128/128/128 129/129/129 146/146/146
f 128/128/128 146/146/146 145/145/145
f 129/129/129 130/130/130 147/147/147
f 129/129/129 147/147/147 146/146/146
f 130/130/130 131/131/131 148/148/148
f 130/130/130 148/148/148 147/147/147
f 131/131/131 132/132/132 149/149/149
f 131/131/131 149/149/149 148/148/148
f 132/132/132 133/133/133 150/150/150
f 132/132/132 150/150/150 149/149/149
f 133/133/133 134/134/134 151/151/151
f 133/133/133 151/151/151 150/150/150
f 134/134/134 135/135/135 152/152/152
f 134/134/134 152/152/152 151/151/151
f 135/135/135 136/136/136 153/153/153
f 135/135/135 153/153/153 152/152/152
f 137/138/138 138/137/137 155/154/154
f 137/138/138 155/154/154 154/155/155
f 138/137/137 139/139/139 156/156/156
f 138/137/137 156/156/156 155/154/154
f 139/139/139 140/140/140 157/157/157
f 139/139/139 157/157/157 156/156/156
f 140/140/140 141/141/141 158/158/158
f 140/140/140 158/158/158 157/157/157
f 141/141/141 142/142/142 159/159/159
f 141/141/141 159/159/159 158/158/158
f 142/142/142 143/143/143 160/160/160
f 142/142/142 160/160/160 159/159/159
f 143/143/143 144/144/144 161/161/161
f 143/143/143 161/161/161 160/160/160
f 144/144/144 145/145/145 162/162/162
f 144/144/144 162/162/162 161/161/161
f 145/145/145 146/146/146 163/163/163
f 145/145/145 163/163/163 162/162/162
f 146/146/146 147/147/147 164/164/164
f 146/146/146 164/164/164 163/163/163
f 147/147/147 148/148/148 165/165/165
f 147/147/147 165/165/165 164/164/164
f 148/148/148 149/149/149 166/166/166
f 148/148/148 166/166/166 165/165/165
f 149/149/149 150/150/150 167/167/167
f 149/149/149 167/167/167 166/166/166
f 150/150/150 151/151/151 168/168/168
f 150/150/150 168/168/168 167/167/167
f 151/151/151 152/152/152 169/169/169
f 151/151/151 169/169/169 168/168/168
f 152/152/152 153/153/153 170/170/170
f 152/152/152 170/170/170 169/169/169
f 154/155/155 155/154/154 172/171/171
f 154/155/155 172/171/171 171/172/172
f 155/154/154 156/156/156 173/173/173
f 155/154/154 173/173/173 172/171/171
f 156/156/156 157/157/157 174/174/174
f 156/156/156 174/174/174 173/173/173
f 157/157/157 158/158/158 175/175/175
f 157/157/157 175/175/175 174/174/174
f 158/158/158 159/159/159 176/176/176
f 158/158/158 176/176/176 175/175/175
f 159/159/159 160/160/160 177/177/177
f 159/159/159 177/177/177 176/176/176
f 160/160/160 161/161/161 178/178/178
f 160/160/160 178/178/178 177/177/177
f 161/161/161 162/162/162 179/179/179
f 161/161/161 179/179/179 178/178/178
f 162/162/162 163/163/163 180/180/180
f 162/162/162 180/180/180 179/179/179
f 163/163/163 164/164/164 181/181/181
f 163/163/163 181/181/181 180/180/180
f 164/164/164 165/165/165 182/182/182
f 164/164/164 182/182/182 181/181/181
f 165/165/165 166/166/166 183/183/183
f 165/165/165 183/183/183 182/182/182
f 166/166/166 167/167/167 184/184/184
f 166/166/166 184/184/184 183/183/183
f 167/167/167 168/168/168 185/185/185
f 167/167/167 185/185/185 184/184/184
f 168/168/168 169/169/169 186/186/186
f 168/168/168 186/186/186 185/185/185
f 169/169/169 170/170/170 187/187/187
f 169/169/169 187/187/187 186/186/186
f 171/172/172 172/171/171 189/188/188
f 171/172/172 189/188/188 188/189/189
f 172/171/171 173/173/173 190/190/190
f 172/171/171 190/190/190 189/188/188
f 173/173/173 174/174/174 191/191/191
f 173/173/173 191/191/191 190/190/190
f 174/174/174 175/175/175 192/192/192
f 174/174/174 192/192/192 191/191/191
f 175/175/175 176/176/176 193/193/193
f 175/175/175 193/193/193 192/192/192
f 176/176/176 177/177/177 194/194/194
f 176/176/176 194/194/194 193/193/193
f 177/177/177 178/178/178 195/195/195
f 177/177/177 195/195/195 194/194/194
f 178/178/178 179/179/179 196/196/196
f 178/178/178 196/196/196 195/195/195
f 179/179/179 180/180/180 197/197/197
f 179/179/179 197/197/197 196/196/196
f 180/180/180 181/181/181 198/198/198
f 180/180/180 198/198/198 197/197/197
f 181/181/181 182/182/182 199/199/199
f 181/181/181 199/199/199 198/198/198
f 182/182/182 183/183/183 200/200/200
f 182/182/182 200/200/200 199/199/199
f 183/183/183 184/184/184 201/201/201
f 183/183/183 201/201/201 200/200/200
f 184/184/184 185/185/185 202/202/202
f 184/184/184 202/202/202 201/201/201
f 185/185/185 186/186/186 203/203/203
f 185/185/185 203/203/203 202/202/202
f 186/186/186 187/187/187 204/204/204
f 186/186/186 204/204/204 203/203/203
f 188/189/189 189/188/188 206/205/205
f 188/189/189 206/205/205 205/206/206
f 189/188/188 190/190/190 207/207/207
f 189/188/188 207/207/207 206/205/205
f 190/190/190 191/191/191 208/208/208
f 190/190/190 208/208/208 207/207/207
f 191/191/191 192/192/192 209/209/209
f 191/191/191 209/209/209 208/208/208
f 192/192/192 193/193/193 210/210/210
f 192/192/192 210/210/210 209/209/209
f 193/193/193 194/194/194 211/211/211
f 193/193/193 211/211/211 210/210/210
f 194/194/194 195/195/195 212/212/212
f 194/194/194 212/212/212 211/211/211
f 195/195/195 196/196/196 213/213/213
f 195/195/195 213/213/213 212/212/212
f 196/196/196 197/197/197 214/214/214
f 196/196/196 214/214/214 213/213/213
f 197/197/197 198/198/198 215/215/215
f 197/197/197 215/215/215 214/214/214
f 198/198/198 199/199/199 216/216/216
f 198/198/198 216/216/216 215/215/215
f 199/199/199 200/200/200 217/217/217
f 199/199/199 217/217/217 216/216/216
f 200/200/200 201/201/201 218/218/218
f 200/200/200 218/218/218 217/217/217
f 201/201/201 202/202/202 219/219/219
f 201/201/201 219/219/219 218/218/218
f 202/202/202 203/203/203 220/220/220
f 202/202/202 220/220/220 219/219/219
f 203/203/203 204/204/204 221/221/221
f 203/203/203 221/221/221 220/220/220
f 205/206/206 206/205/205 223/222/222
f 205/206/206 223/222/222 222/223/223
f 206/205/205 207/207/207 224/224/224
f 206/205/205 224/224/224 223/222/222
f 207/207/207 208/208/208 225/225/225
f 207/207/207 225/225/225 224/224/224
f 208/208/208 209/209/209 226/226/226
f 208/208/208 226/226/226 225/225/225
f 209/209/209 210/210/210 227/227/227
f 209/209/209 227/227/227 226/226/226
f 210/210/210 211/211/211 228/228/228
f 210/210/210 228/228/228 227/227/227
f 211/211/211 212/212/212 229/229/229
f 211/211/211 229/229/229 228/228/228
f 212/212/212 213/213/213 230/230/230
f 212/212/212 230/230/230 229/229/229
f 213/213/213 214/214/214 231/231/231
f 213/213/213 231/231/231 230/230/230
f 214/214/214 215/215/215 232/232/232
f 214/214/214 232/232/232 231/231/231
f 215/215/215 216/216/216 233/233/233
f 215/215/215 233/233/233 232/232/232
f 216/216/216 217/217/217 234/234/234
f 216/216/216 234/234/234 233/233/233
f 217/217/217 218/218/218 235/235/235
f 217/217/217 235/235/235 234/234/234
f 218/218/218 219/219/219 236/236/236
f 218/218/218 236/236/236 235/235/235
f 219/219/219 220/220/220 237/237/237
f 219/219/219 237/237/237 236/236/236
f 220/220/220 221/221/221 238/238/238
f 220/220/220 238/238/238 237/237/237
f 222/223/223 223/222/222 240/239/239
f 222/223/223 240/239/239 239/240/240
f 223/222/222 224/224/224 241/241/241
f 223/222/222 241/241/241 240/239/239
f 224/224/224 225/225/225 242/242/242
f 224/224/224 242/242/242 241/241/241
f 225/225/225 226/226/226 243/243/243
f 225/225/225 243/243/243 242/242/242
f 226/226/226 227/227/227 244/244/244
f 226/226/226 244/244/244 243/243/243
f 227/227/227 228/228/228 245/245/245
f 227/227/227 245/245/245 244/244/244
f 228/228/228 229/229/229 246/246/246
f 228/228/228 246/246/246 245/245/245
f 229/229/229 230/230/230 247/247/247
f 229/229/229 247/247/247 246/246/246
f 230/230/230 231/231/231 248/248/248
f 230/230/230 248/248/248 247/247/247
f 231/231/231 232/232/232 249/249/249
f 231/231/231 249/249/249 248/248/248
f 232/232/232 233/233/233 250/250/250
f 232/232/232 250/250/250 249/249/249
f 233/233/233 234/234/234 251/251/251
f 233/233/233 251/251/251 250/250/250
f 234/234/234 235/235/235 252/252/252
f 234/234/234 252/252/252 251/251/251
f 235/235/235 236/236/236 253/253/253
f 235/235/235 253/253/253 252/252/252
f 236/236/236 237/237/237 254/254/254
f 236/236/236 254/254/254 253/253/253
f 237/237/237 238/238/238 255/255/255
f 237/237/237 255/255/255 254/254/254
f 239/240/240 240/239/239 257/256/256
f 239/240/240 257/256/256 256/257/257
f 240/239/239 241/241/241 258/258/258
f 240/239/239 258/258/258 257/256/256
f 241/241/241 242/242/242 259/259/259
f 241/241/241 259/259/259 258/258/258
f 242/242/242 243/243/243 260/260/260
f 242/242/242 260/260/260 259/259/259
f 243/243/243 244/244/244 261/261/261
f 243/243/243 261/261/261 260/260/260
f 244/244/244 245/245/245 262/262/262
f 244/244/244 262/262/262 261/261/261
f 245/245/245 246/246/246 263/263/263
f 245/245/245 263/263/263 262/262/262
f 246/246/246 247/247/247 264/264/264
f 246/246/246 264/264/264 263/263/263
f 247/247/247 248/248/248 265/265/265
f 247/247/247 265/265/265 264/264/264
f 248/248/248 249/249/249 266/266/266
f 248/248/248 266/266/266 265/265/265
f 249/249/249 250/250/250 267/267/267
f 249/249/249 267/267/267 266/266/266
f 250/250/250 251/251/251 268/268/268
f 250/250/250 268/268/268 267/267/267
f 251/251/251 252/252/252 269/269/269
f 251/251/251 269/269/269 268/268/268
f 252/252/252 253/253/253 270/270/270
f 252/252/252 270/270/270 269/269/269
f 253/253/253 254/254/254 271/271/271
f 253/253/253 271/271/271 270/270/270
f 254/254/254 255/255/255 272/272/272
f 254/254/254 272/272/272 271/271/271
f 256/257/257 257/256/256 274/273/273
f 256/257/257 274/273/273 273/274/274
f 257/256/256 258/258/258 275/275/275
f 257/256/256 275/275/275 274/273/273
f 258/258/258 259/259/259 276/276/276
f 258/258/258 276/276/276 275/275/275
f 259/259/259 260/260/260 277/277/277
f 259/259/259 277/277/277 276/276/276
f 260/260/260 261/261/261 278/278/278
f 260/260/260 278/278/278 277/277/277
f 261/261/261 262/262/262 279/279/279
f 261/261/261 279/279/279 278/278/278
f 262/262/262 263/263/263 280/280/280
f 262/262/262 280/280/280 279/279/279
f 263/263/263 264/264/264 281/281/281
f 263/263/263 281/281/281 280/280/280
f 264/264/264 265/265/265 282/282/282
f 264/264/264 282/282/282 281/281/281
f 265/265/265 266/266/266 283/283/283
f 265/265/265 283/283/283 282/282/282
f 266/266/266 267/267/267 284/284/284
f 266/266/266 284/284/284 283/283/283
f 267/267/267 268/268/268 285/285/285
f 267/267/267 285/285/285 284/284/284
f 268/268/268 269/269/269 286/286/286
f 268/268/268 286/286/286 285/285/285
f 269/269/269 270/270/270 287/287/287
f 269/269/269 287/287/287 286/286/286
f 270/270/270 271/271/271 288/288/288
f 270/270/270 288/288/288 287/287/287
f 271/271/271 272/272/272 289/289/289
f 271/271/271 289/289/289 288/288/288
