mtllib terrain_mid_00_02.mtl
usemtl terrain_mid_00_02
# Blender 5.1.1
# www.blender.org
o terrain_mid_00_02
v -160.000000 -160.000000 -29.398020
v -140.000000 -160.000000 -32.960789
v -120.000000 -160.000000 -39.828903
v -100.000000 -160.000000 -48.473930
v -80.000000 -160.000000 -59.332329
v -60.000000 -160.000000 -70.337479
v -40.000000 -160.000000 -75.660873
v -20.000000 -160.000000 -71.473625
v 0.000000 -160.000000 -61.924763
v 20.000000 -160.000000 -51.496677
v 40.000000 -160.000000 -40.889946
v 60.000000 -160.000000 -30.564873
v 80.000000 -160.000000 -21.247660
v 100.000000 -160.000000 -13.166327
v 120.000000 -160.000000 -7.784044
v 140.000000 -160.000000 -4.558037
v 160.000000 -160.000000 -2.958842
v -160.000000 -140.000000 -23.314453
v -140.000000 -140.000000 -27.261061
v -120.000000 -140.000000 -34.844875
v -100.000000 -140.000000 -44.385193
v -80.000000 -140.000000 -55.689098
v -60.000000 -140.000000 -66.310844
v -40.000000 -140.000000 -71.197472
v -20.000000 -140.000000 -67.061424
v 0.000000 -140.000000 -58.571934
v 20.000000 -140.000000 -48.891655
v 40.000000 -140.000000 -38.324238
v 60.000000 -140.000000 -27.251728
v 80.000000 -140.000000 -16.722919
v 100.000000 -140.000000 -7.841444
v 120.000000 -140.000000 -2.665161
v 140.000000 -140.000000 -0.010023
v 160.000000 -140.000000 1.048178
v -160.000000 -120.000000 -17.985432
v -140.000000 -120.000000 -23.560282
v -120.000000 -120.000000 -32.109516
v -100.000000 -120.000000 -42.716133
v -80.000000 -120.000000 -54.566879
v -60.000000 -120.000000 -64.422531
v -40.000000 -120.000000 -66.516937
v -20.000000 -120.000000 -61.820042
v 0.000000 -120.000000 -53.874016
v 20.000000 -120.000000 -44.864868
v 40.000000 -120.000000 -34.173576
v 60.000000 -120.000000 -22.069166
v 80.000000 -120.000000 -10.802856
v 100.000000 -120.000000 -2.836724
v 120.000000 -120.000000 1.652182
v 140.000000 -120.000000 4.585219
v 160.000000 -120.000000 6.551955
v -160.000000 -100.000000 -15.296320
v -140.000000 -100.000000 -21.541706
v -120.000000 -100.000000 -31.037767
v -100.000000 -100.000000 -42.513229
v -80.000000 -100.000000 -54.463669
v -60.000000 -100.000000 -62.770046
v -40.000000 -100.000000 -62.314148
v -20.000000 -100.000000 -56.589367
v 0.000000 -100.000000 -48.908211
v 20.000000 -100.000000 -40.202129
v 40.000000 -100.000000 -29.338202
v 60.000000 -100.000000 -16.713718
v 80.000000 -100.000000 -5.320508
v 100.000000 -100.000000 1.418641
v 120.000000 -100.000000 5.614462
v 140.000000 -100.000000 9.325942
v 160.000000 -100.000000 12.232863
v -160.000000 -80.000000 -13.487177
v -140.000000 -80.000000 -21.341919
v -120.000000 -80.000000 -31.503363
v -100.000000 -80.000000 -42.909443
v -80.000000 -80.000000 -53.769604
v -60.000000 -80.000000 -60.267082
v -40.000000 -80.000000 -58.122749
v -20.000000 -80.000000 -51.931797
v 0.000000 -80.000000 -44.191895
v 20.000000 -80.000000 -35.321465
v 40.000000 -80.000000 -24.421482
v 60.000000 -80.000000 -12.187906
v 80.000000 -80.000000 -1.380737
v 100.000000 -80.000000 4.620810
v 120.000000 -80.000000 9.440145
v 140.000000 -80.000000 14.051609
v 160.000000 -80.000000 17.573683
v -160.000000 -60.000000 -13.436111
v -140.000000 -60.000000 -22.268120
v -120.000000 -60.000000 -33.165833
v -100.000000 -60.000000 -44.233566
v -80.000000 -60.000000 -52.755318
v -60.000000 -60.000000 -55.747227
v -40.000000 -60.000000 -52.369106
v -20.000000 -60.000000 -46.595615
v 0.000000 -60.000000 -39.411289
v 20.000000 -60.000000 -30.673706
v 40.000000 -60.000000 -19.699022
v 60.000000 -60.000000 -7.818447
v 80.000000 -60.000000 1.642721
v 100.000000 -60.000000 7.463529
v 120.000000 -60.000000 12.896783
v 140.000000 -60.000000 18.492073
v 160.000000 -60.000000 22.476833
v -160.000000 -40.000000 -13.971070
v -140.000000 -40.000000 -24.042725
v -120.000000 -40.000000 -35.533337
v -100.000000 -40.000000 -45.211033
v -80.000000 -40.000000 -49.841927
v -60.000000 -40.000000 -49.219646
v -40.000000 -40.000000 -44.799335
v -20.000000 -40.000000 -40.142788
v 0.000000 -40.000000 -33.958130
v 20.000000 -40.000000 -25.500603
v 40.000000 -40.000000 -14.694450
v 60.000000 -40.000000 -3.632839
v 80.000000 -40.000000 4.535048
v 100.000000 -40.000000 10.392545
v 120.000000 -40.000000 16.486471
v 140.000000 -40.000000 22.609613
v 160.000000 -40.000000 27.055861
v -160.000000 -20.000000 -15.402647
v -140.000000 -20.000000 -26.283833
v -120.000000 -20.000000 -37.369194
v -100.000000 -20.000000 -43.102978
v -80.000000 -20.000000 -42.897167
v -60.000000 -20.000000 -39.519112
v -40.000000 -20.000000 -35.711540
v -20.000000 -20.000000 -32.084576
v 0.000000 -20.000000 -26.712408
v 20.000000 -20.000000 -18.741718
v 40.000000 -20.000000 -8.752869
v 60.000000 -20.000000 0.764818
v 80.000000 -20.000000 7.583090
v 100.000000 -20.000000 13.661140
v 120.000000 -20.000000 20.290270
v 140.000000 -20.000000 26.746494
v 160.000000 -20.000000 31.393066
v -160.000000 0.000000 -17.133095
v -140.000000 0.000000 -28.362467
v -120.000000 0.000000 -36.300488
v -100.000000 0.000000 -37.767014
v -80.000000 0.000000 -33.215305
v -60.000000 0.000000 -28.387199
v -40.000000 0.000000 -24.892557
v -20.000000 0.000000 -21.900743
v 0.000000 0.000000 -17.524632
v 20.000000 0.000000 -10.451240
v 40.000000 0.000000 -2.026821
v 60.000000 0.000000 5.424798
v 80.000000 0.000000 11.354574
v 100.000000 0.000000 17.802883
v 120.000000 0.000000 24.798409
v 140.000000 0.000000 31.247091
v 160.000000 0.000000 35.887775
v -160.000000 20.000000 -16.794895
v -140.000000 20.000000 -29.129108
v -120.000000 20.000000 -32.353455
v -100.000000 20.000000 -28.785021
v -80.000000 20.000000 -22.049221
v -60.000000 20.000000 -16.425510
v -40.000000 20.000000 -12.810472
v -20.000000 20.000000 -10.198940
v 0.000000 20.000000 -6.862860
v 20.000000 20.000000 -1.509487
v 40.000000 20.000000 4.869907
v 60.000000 20.000000 10.345276
v 80.000000 20.000000 15.926805
v 100.000000 20.000000 22.739048
v 120.000000 20.000000 29.852953
v 140.000000 20.000000 36.021843
v 160.000000 20.000000 40.492012
v -160.000000 40.000000 -15.767143
v -140.000000 40.000000 -24.822075
v -120.000000 40.000000 -23.855652
v -100.000000 40.000000 -17.290363
v -80.000000 40.000000 -10.038560
v -60.000000 40.000000 -4.143792
v -40.000000 40.000000 -0.387803
v -20.000000 40.000000 1.847589
v 0.000000 40.000000 3.891046
v 20.000000 40.000000 6.999234
v 40.000000 40.000000 10.971633
v 60.000000 40.000000 15.866089
v 80.000000 40.000000 21.680794
v 100.000000 40.000000 28.555733
v 120.000000 40.000000 35.356716
v 140.000000 40.000000 41.095005
v 160.000000 40.000000 45.204056
v -160.000000 60.000000 -11.156105
v -140.000000 60.000000 -18.263189
v -120.000000 60.000000 -14.272400
v -100.000000 60.000000 -6.251505
v -80.000000 60.000000 0.915385
v -60.000000 60.000000 5.974637
v -40.000000 60.000000 8.958504
v -20.000000 60.000000 10.995552
v 0.000000 60.000000 12.894064
v 20.000000 60.000000 15.387390
v 40.000000 60.000000 18.783163
v 60.000000 60.000000 23.278591
v 80.000000 60.000000 28.910597
v 100.000000 60.000000 35.309570
v 120.000000 60.000000 41.569893
v 140.000000 60.000000 46.634571
v 160.000000 60.000000 50.400661
v -160.000000 80.000000 -5.350638
v -140.000000 80.000000 -9.853468
v -120.000000 80.000000 -4.773776
v -100.000000 80.000000 3.564637
v -80.000000 80.000000 10.242493
v -60.000000 80.000000 13.747932
v -40.000000 80.000000 15.870552
v -20.000000 80.000000 18.188450
v 0.000000 80.000000 21.043356
v 20.000000 80.000000 24.509007
v 40.000000 80.000000 28.325548
v 60.000000 80.000000 32.349541
v 80.000000 80.000000 37.243095
v 100.000000 80.000000 42.769314
v 120.000000 80.000000 48.142849
v 140.000000 80.000000 52.607979
v 160.000000 80.000000 56.000584
v -160.000000 100.000000 1.910035
v -140.000000 100.000000 -1.050788
v -120.000000 100.000000 3.667718
v -100.000000 100.000000 10.876486
v -80.000000 100.000000 16.609186
v -60.000000 100.000000 20.790222
v -40.000000 100.000000 24.495117
v -20.000000 100.000000 28.237604
v 0.000000 100.000000 32.095921
v 20.000000 100.000000 35.755764
v 40.000000 100.000000 39.160599
v 60.000000 100.000000 42.469646
v 80.000000 100.000000 46.367329
v 100.000000 100.000000 50.584549
v 120.000000 100.000000 54.883789
v 140.000000 100.000000 58.689178
v 160.000000 100.000000 61.868748
v -160.000000 120.000000 9.655776
v -140.000000 120.000000 7.500462
v -120.000000 120.000000 11.277507
v -100.000000 120.000000 17.235027
v -80.000000 120.000000 23.019260
v -60.000000 120.000000 28.474739
v -40.000000 120.000000 33.819458
v -20.000000 120.000000 38.657173
v 0.000000 120.000000 42.888966
v 20.000000 120.000000 46.388271
v 40.000000 120.000000 49.280552
v 60.000000 120.000000 51.850830
v 80.000000 120.000000 54.921989
v 100.000000 120.000000 58.263805
v 120.000000 120.000000 61.700687
v 140.000000 120.000000 64.980965
v 160.000000 120.000000 67.912132
v -160.000000 140.000000 16.098770
v -140.000000 140.000000 15.222623
v -120.000000 140.000000 17.538622
v -100.000000 140.000000 23.051941
v -80.000000 140.000000 29.924343
v -60.000000 140.000000 36.626484
v -40.000000 140.000000 43.286709
v -20.000000 140.000000 48.554005
v 0.000000 140.000000 52.695789
v 20.000000 140.000000 55.925842
v 40.000000 140.000000 58.447334
v 60.000000 140.000000 60.484673
v 80.000000 140.000000 62.852867
v 100.000000 140.000000 65.637451
v 120.000000 140.000000 68.604050
v 140.000000 140.000000 71.441917
v 160.000000 140.000000 74.076889
v -160.000000 160.000000 22.107515
v -140.000000 160.000000 20.450243
v -120.000000 160.000000 22.745897
v -100.000000 160.000000 28.724054
v -80.000000 160.000000 36.149902
v -60.000000 160.000000 43.536160
v -40.000000 160.000000 50.438240
v -20.000000 160.000000 56.006153
v 0.000000 160.000000 60.763760
v 20.000000 160.000000 64.373665
v 40.000000 160.000000 66.786880
v 60.000000 160.000000 68.428436
v 80.000000 160.000000 70.476891
v 100.000000 160.000000 72.886322
v 120.000000 160.000000 75.501900
v 140.000000 160.000000 78.022545
v 160.000000 160.000000 80.408722
vn 0.1465 -0.3365 0.9302
vn 0.2572 -0.3043 0.9172
vn 0.2957 -0.2186 0.9299
vn 0.1900 -0.2686 0.9443
vn 0.3479 -0.2730 0.8969
vn 0.3875 -0.1747 0.9052
vn 0.4264 -0.2314 0.8745
vn 0.4584 -0.1266 0.8797
vn 0.4697 -0.2024 0.8593
vn 0.4780 -0.1039 0.8722
vn 0.3702 -0.2013 0.9069
vn 0.3581 -0.1366 0.9236
vn 0.0278 -0.1965 0.9801
vn 0.0182 -0.2228 0.9747
vn -0.3209 -0.1532 0.9346
vn -0.2933 -0.2243 0.9293
vn -0.4444 -0.1027 0.8899
vn -0.4068 -0.1803 0.8955
vn -0.4640 -0.0772 0.8824
vn -0.4468 -0.1463 0.8826
vn -0.4620 -0.0834 0.8829
vn -0.4707 -0.1461 0.8701
vn -0.4375 -0.1214 0.8910
vn -0.4671 -0.1836 0.8650
vn -0.3923 -0.1805 0.9019
vn -0.4250 -0.2287 0.8758
vn -0.3099 -0.2376 0.9206
vn -0.3221 -0.2367 0.9166
vn -0.2036 -0.2521 0.9460
vn -0.1872 -0.2256 0.9561
vn -0.1163 -0.2403 0.9637
vn -0.0901 -0.2219 0.9709
vn -0.0544 -0.2173 0.9746
vn -0.0341 -0.2312 0.9723
vn 0.3455 -0.1328 0.9290
vn 0.2480 -0.1915 0.9496
vn 0.4303 -0.0855 0.8986
vn 0.4892 -0.0408 0.8712
vn 0.4768 -0.0269 0.8786
vn 0.2852 -0.0845 0.9547
vn -0.0634 -0.2164 0.9743
vn -0.2924 -0.2422 0.9251
vn -0.3810 -0.2172 0.8987
vn -0.4337 -0.1913 0.8805
vn -0.4860 -0.1916 0.8527
vn -0.4919 -0.2218 0.8419
vn -0.4197 -0.2488 0.8729
vn -0.2903 -0.2158 0.9323
vn -0.1788 -0.1994 0.9635
vn -0.1184 -0.2257 0.9670
vn -0.0710 -0.2686 0.9606
vn 0.3902 -0.0510 0.9193
vn 0.3125 -0.1034 0.9443
vn 0.4643 -0.0134 0.8856
vn 0.5054 0.0042 0.8629
vn 0.4517 -0.0178 0.8920
vn 0.1916 -0.1014 0.9762
vn -0.1495 -0.2031 0.9677
vn -0.3094 -0.2282 0.9231
vn -0.3699 -0.2186 0.9030
vn -0.4297 -0.2096 0.8783
vn -0.4955 -0.2057 0.8439
vn -0.5036 -0.2071 0.8387
vn -0.4037 -0.2098 0.8905
vn -0.2596 -0.1770 0.9494
vn -0.1905 -0.1876 0.9636
vn -0.1590 -0.2274 0.9607
vn -0.1046 -0.2642 0.9588
vn 0.4226 0.0165 0.9062
vn 0.3648 -0.0296 0.9306
vn 0.4741 0.0468 0.8792
vn 0.4860 0.0376 0.8731
vn 0.3978 -0.0392 0.9167
vn 0.1066 -0.1719 0.9793
vn -0.1982 -0.2365 0.9512
vn -0.3201 -0.2296 0.9191
vn -0.3746 -0.2142 0.9021
vn -0.4333 -0.2088 0.8767
vn -0.4901 -0.2042 0.8474
vn -0.4901 -0.1892 0.8509
vn -0.3825 -0.1585 0.9103
vn -0.2584 -0.1443 0.9552
vn -0.2260 -0.1745 0.9584
vn -0.1944 -0.2191 0.9561
vn -0.1200 -0.2463 0.9617
vn 0.4532 0.0601 0.8894
vn 0.4097 0.0159 0.9121
vn 0.4795 0.0880 0.8731
vn 0.4392 0.0516 0.8969
vn 0.2754 -0.0939 0.9567
vn -0.0093 -0.2662 0.9639
vn -0.2121 -0.3088 0.9272
vn -0.2967 -0.2700 0.9160
vn -0.3598 -0.2313 0.9039
vn -0.4317 -0.2151 0.8760
vn -0.4854 -0.2065 0.8495
vn -0.4626 -0.1854 0.8670
vn -0.3535 -0.1368 0.9254
vn -0.2683 -0.1376 0.9535
vn -0.2620 -0.1674 0.9505
vn -0.2280 -0.2037 0.9521
vn -0.1355 -0.2285 0.9641
vn 0.4798 0.0876 0.8730
vn 0.4430 0.0513 0.8950
vn 0.4657 0.0925 0.8801
vn 0.3367 -0.0266 0.9412
vn 0.0969 -0.2382 0.9664
vn -0.1160 -0.3734 0.9204
vn -0.2051 -0.3762 0.9036
vn -0.2469 -0.3305 0.9109
vn -0.3294 -0.2857 0.8999
vn -0.4190 -0.2596 0.8701
vn -0.4664 -0.2335 0.8532
vn -0.4254 -0.1899 0.8849
vn -0.3277 -0.1388 0.9345
vn -0.2832 -0.1469 0.9478
vn -0.2876 -0.1740 0.9418
vn -0.2506 -0.1957 0.9481
vn -0.1533 -0.2150 0.9645
vn 0.4846 0.0939 0.8697
vn 0.4689 0.0757 0.8800
vn 0.3875 0.0177 0.9217
vn 0.1346 -0.1813 0.9742
vn -0.0824 -0.3825 0.9203
vn -0.1573 -0.4562 0.8759
vn -0.1641 -0.4396 0.8831
vn -0.2006 -0.4065 0.8914
vn -0.2949 -0.3632 0.8838
vn -0.3874 -0.3246 0.8629
vn -0.4216 -0.2738 0.8645
vn -0.3700 -0.2052 0.9061
vn -0.3029 -0.1602 0.9395
vn -0.2983 -0.1740 0.9385
vn -0.3050 -0.1938 0.9324
vn -0.2619 -0.2037 0.9434
vn -0.1670 -0.2126 0.9628
vn 0.4339 0.0639 0.8987
vn 0.4866 0.0771 0.8702
vn 0.2272 -0.1212 0.9663
vn -0.0724 -0.3361 0.9390
vn -0.2036 -0.4525 0.8682
vn -0.1774 -0.4921 0.8523
vn -0.1391 -0.4916 0.8596
vn -0.1595 -0.4738 0.8661
vn -0.2484 -0.4306 0.8677
vn -0.3352 -0.3728 0.8653
vn -0.3517 -0.3017 0.8862
vn -0.3094 -0.2215 0.9248
vn -0.2899 -0.1954 0.9369
vn -0.3114 -0.2103 0.9267
vn -0.3107 -0.2210 0.9245
vn -0.2608 -0.2181 0.9404
vn -0.1737 -0.2184 0.9603
vn 0.3235 -0.0834 0.9425
vn 0.4853 -0.0005 0.8743
vn -0.0082 -0.2971 0.9548
vn -0.2237 -0.4440 0.8677
vn -0.2583 -0.4843 0.8359
vn -0.1938 -0.5085 0.8390
vn -0.1316 -0.5179 0.8453
vn -0.1268 -0.5064 0.8529
vn -0.1881 -0.4636 0.8659
vn -0.2596 -0.3861 0.8852
vn -0.2713 -0.2975 0.9154
vn -0.2584 -0.2440 0.9347
vn -0.2874 -0.2394 0.9274
vn -0.3187 -0.2460 0.9154
vn -0.3057 -0.2430 0.9206
vn -0.2500 -0.2315 0.9402
vn -0.1745 -0.2234 0.9590
vn 0.1640 -0.2586 0.9520
vn 0.4296 -0.1257 0.8942
vn -0.1691 -0.4060 0.8981
vn -0.2882 -0.4700 0.8343
vn -0.2741 -0.4788 0.8340
vn -0.2060 -0.4781 0.8538
vn -0.1304 -0.4739 0.8709
vn -0.0942 -0.4661 0.8797
vn -0.1147 -0.4399 0.8907
vn -0.1609 -0.3841 0.9092
vn -0.2049 -0.3216 0.9244
vn -0.2469 -0.2981 0.9220
vn -0.2889 -0.2956 0.9106
vn -0.3101 -0.2850 0.9070
vn -0.2881 -0.2692 0.9190
vn -0.2315 -0.2496 0.9403
vn -0.1657 -0.2371 0.9572
vn 0.0298 -0.3503 0.9362
vn 0.3530 -0.2333 0.9061
vn -0.2616 -0.4156 0.8711
vn -0.3191 -0.4382 0.8404
vn -0.2630 -0.4363 0.8605
vn -0.1805 -0.4016 0.8979
vn -0.1155 -0.3740 0.9202
vn -0.0907 -0.3766 0.9219
vn -0.1004 -0.3921 0.9144
vn -0.1337 -0.3974 0.9079
vn -0.1783 -0.3916 0.9027
vn -0.2279 -0.3709 0.9003
vn -0.2699 -0.3491 0.8974
vn -0.2858 -0.3209 0.9030
vn -0.2604 -0.2940 0.9197
vn -0.2075 -0.2706 0.9401
vn -0.1556 -0.2574 0.9537
vn -0.0434 -0.3949 0.9177
vn 0.2723 -0.3200 0.9074
vn -0.2927 -0.3913 0.8725
vn -0.3262 -0.3721 0.8690
vn -0.2306 -0.3554 0.9058
vn -0.1308 -0.3443 0.9297
vn -0.1029 -0.3601 0.9272
vn -0.1180 -0.3931 0.9119
vn -0.1410 -0.4284 0.8925
vn -0.1601 -0.4479 0.8796
vn -0.1721 -0.4471 0.8778
vn -0.1971 -0.4241 0.8839
vn -0.2322 -0.3890 0.8915
vn -0.2467 -0.3457 0.9054
vn -0.2273 -0.3075 0.9240
vn -0.1849 -0.2836 0.9409
vn -0.1448 -0.2727 0.9511
vn -0.0586 -0.3973 0.9158
vn 0.2339 -0.3546 0.9053
vn -0.2667 -0.3589 0.8945
vn -0.2927 -0.3092 0.9048
vn -0.2298 -0.2961 0.9271
vn -0.1819 -0.3397 0.9228
vn -0.1674 -0.4036 0.8995
vn -0.1668 -0.4491 0.8778
vn -0.1628 -0.4729 0.8659
vn -0.1531 -0.4742 0.8670
vn -0.1470 -0.4590 0.8762
vn -0.1599 -0.4326 0.8873
vn -0.1828 -0.3978 0.8991
vn -0.1947 -0.3543 0.9146
vn -0.1885 -0.3153 0.9301
vn -0.1646 -0.2915 0.9423
vn -0.1374 -0.2827 0.9493
vn -0.0527 -0.3763 0.9250
vn 0.1905 -0.3526 0.9162
vn -0.2241 -0.3193 0.9208
vn -0.2704 -0.2804 0.9210
vn -0.2576 -0.3052 0.9168
vn -0.2434 -0.3569 0.9019
vn -0.2245 -0.4143 0.8820
vn -0.1981 -0.4439 0.8739
vn -0.1694 -0.4512 0.8762
vn -0.1412 -0.4457 0.8840
vn -0.1218 -0.4307 0.8943
vn -0.1276 -0.4073 0.9043
vn -0.1466 -0.3769 0.9146
vn -0.1566 -0.3479 0.9244
vn -0.1569 -0.3205 0.9342
vn -0.1463 -0.3005 0.9425
vn -0.1296 -0.2895 0.9484
vn -0.0247 -0.3079 0.9511
vn 0.1259 -0.3075 0.9432
vn -0.1849 -0.2709 0.9447
vn -0.2852 -0.2646 0.9212
vn -0.3069 -0.2968 0.9043
vn -0.2984 -0.3363 0.8932
vn -0.2655 -0.3699 0.8903
vn -0.2111 -0.3889 0.8968
vn -0.1659 -0.4023 0.9003
vn -0.1300 -0.4066 0.9043
vn -0.1036 -0.3984 0.9113
vn -0.1012 -0.3809 0.9191
vn -0.1192 -0.3599 0.9254
vn -0.1338 -0.3402 0.9308
vn -0.1359 -0.3231 0.9365
vn -0.1290 -0.3074 0.9428
vn -0.1212 -0.2960 0.9475
vn -0.0171 -0.2412 0.9703
vn 0.1266 -0.2582 0.9578
vn -0.1966 -0.2414 0.9503
vn -0.3074 -0.2530 0.9173
vn -0.3348 -0.2653 0.9042
vn -0.3224 -0.2853 0.9026
vn -0.2841 -0.2977 0.9114
vn -0.2369 -0.3188 0.9177
vn -0.1919 -0.3492 0.9172
vn -0.1383 -0.3706 0.9184
vn -0.0936 -0.3729 0.9231
vn -0.0855 -0.3645 0.9273
vn -0.1037 -0.3521 0.9302
vn -0.1173 -0.3395 0.9333
vn -0.1204 -0.3260 0.9377
vn -0.1156 -0.3146 0.9422
vn -0.1128 -0.3048 0.9457
vt 0.015625 0.015625
vt 0.076172 0.015625
vt 0.076172 0.076172
vt 0.015625 0.076172
vt 0.136719 0.015625
vt 0.136719 0.076172
vt 0.197266 0.015625
vt 0.197266 0.076172
vt 0.257812 0.015625
vt 0.257812 0.076172
vt 0.318359 0.015625
vt 0.318359 0.076172
vt 0.378906 0.015625
vt 0.378906 0.076172
vt 0.439453 0.015625
vt 0.439453 0.076172
vt 0.500000 0.015625
vt 0.500000 0.076172
vt 0.560547 0.015625
vt 0.560547 0.076172
vt 0.621094 0.015625
vt 0.621094 0.076172
vt 0.681641 0.015625
vt 0.681641 0.076172
vt 0.742188 0.015625
vt 0.742188 0.076172
vt 0.802734 0.015625
vt 0.802734 0.076172
vt 0.863281 0.015625
vt 0.863281 0.076172
vt 0.923828 0.015625
vt 0.923828 0.076172
vt 0.984375 0.015625
vt 0.984375 0.076172
vt 0.076172 0.136719
vt 0.015625 0.136719
vt 0.136719 0.136719
vt 0.197266 0.136719
vt 0.257812 0.136719
vt 0.318359 0.136719
vt 0.378906 0.136719
vt 0.439453 0.136719
vt 0.500000 0.136719
vt 0.560547 0.136719
vt 0.621094 0.136719
vt 0.681641 0.136719
vt 0.742188 0.136719
vt 0.802734 0.136719
vt 0.863281 0.136719
vt 0.923828 0.136719
vt 0.984375 0.136719
vt 0.076172 0.197266
vt 0.015625 0.197266
vt 0.136719 0.197266
vt 0.197266 0.197266
vt 0.257812 0.197266
vt 0.318359 0.197266
vt 0.378906 0.197266
vt 0.439453 0.197266
vt 0.500000 0.197266
vt 0.560547 0.197266
vt 0.621094 0.197266
vt 0.681641 0.197266
vt 0.742188 0.197266
vt 0.802734 0.197266
vt 0.863281 0.197266
vt 0.923828 0.197266
vt 0.984375 0.197266
vt 0.076172 0.257812
vt 0.015625 0.257812
vt 0.136719 0.257812
vt 0.197266 0.257812
vt 0.257812 0.257812
vt 0.318359 0.257812
vt 0.378906 0.257812
vt 0.439453 0.257812
vt 0.500000 0.257812
vt 0.560547 0.257812
vt 0.621094 0.257812
vt 0.681641 0.257812
vt 0.742188 0.257812
vt 0.802734 0.257812
vt 0.863281 0.257812
vt 0.923828 0.257812
vt 0.984375 0.257812
vt 0.076172 0.318359
vt 0.015625 0.318359
vt 0.136719 0.318359
vt 0.197266 0.318359
vt 0.257812 0.318359
vt 0.318359 0.318359
vt 0.378906 0.318359
vt 0.439453 0.318359
vt 0.500000 0.318359
vt 0.560547 0.318359
vt 0.621094 0.318359
vt 0.681641 0.318359
vt 0.742188 0.318359
vt 0.802734 0.318359
vt 0.863281 0.318359
vt 0.923828 0.318359
vt 0.984375 0.318359
vt 0.076172 0.378906
vt 0.015625 0.378906
vt 0.136719 0.378906
vt 0.197266 0.378906
vt 0.257812 0.378906
vt 0.318359 0.378906
vt 0.378906 0.378906
vt 0.439453 0.378906
vt 0.500000 0.378906
vt 0.560547 0.378906
vt 0.621094 0.378906
vt 0.681641 0.378906
vt 0.742188 0.378906
vt 0.802734 0.378906
vt 0.863281 0.378906
vt 0.923828 0.378906
vt 0.984375 0.378906
vt 0.076172 0.439453
vt 0.015625 0.439453
vt 0.136719 0.439453
vt 0.197266 0.439453
vt 0.257812 0.439453
vt 0.318359 0.439453
vt 0.378906 0.439453
vt 0.439453 0.439453
vt 0.500000 0.439453
vt 0.560547 0.439453
vt 0.621094 0.439453
vt 0.681641 0.439453
vt 0.742188 0.439453
vt 0.802734 0.439453
vt 0.863281 0.439453
vt 0.923828 0.439453
vt 0.984375 0.439453
vt 0.076172 0.500000
vt 0.015625 0.500000
vt 0.136719 0.500000
vt 0.197266 0.500000
vt 0.257812 0.500000
vt 0.318359 0.500000
vt 0.378906 0.500000
vt 0.439453 0.500000
vt 0.500000 0.500000
vt 0.560547 0.500000
vt 0.621094 0.500000
vt 0.681641 0.500000
vt 0.742188 0.500000
vt 0.802734 0.500000
vt 0.863281 0.500000
vt 0.923828 0.500000
vt 0.984375 0.500000
vt 0.076172 0.560547
vt 0.015625 0.560547
vt 0.136719 0.560547
vt 0.197266 0.560547
vt 0.257812 0.560547
vt 0.318359 0.560547
vt 0.378906 0.560547
vt 0.439453 0.560547
vt 0.500000 0.560547
vt 0.560547 0.560547
vt 0.621094 0.560547
vt 0.681641 0.560547
vt 0.742188 0.560547
vt 0.802734 0.560547
vt 0.863281 0.560547
vt 0.923828 0.560547
vt 0.984375 0.560547
vt 0.076172 0.621094
vt 0.015625 0.621094
vt 0.136719 0.621094
vt 0.197266 0.621094
vt 0.257812 0.621094
vt 0.318359 0.621094
vt 0.378906 0.621094
vt 0.439453 0.621094
vt 0.500000 0.621094
vt 0.560547 0.621094
vt 0.621094 0.621094
vt 0.681641 0.621094
vt 0.742188 0.621094
vt 0.802734 0.621094
vt 0.863281 0.621094
vt 0.923828 0.621094
vt 0.984375 0.621094
vt 0.076172 0.681641
vt 0.015625 0.681641
vt 0.136719 0.681641
vt 0.197266 0.681641
vt 0.257812 0.681641
vt 0.318359 0.681641
vt 0.378906 0.681641
vt 0.439453 0.681641
vt 0.500000 0.681641
vt 0.560547 0.681641
vt 0.621094 0.681641
vt 0.681641 0.681641
vt 0.742188 0.681641
vt 0.802734 0.681641
vt 0.863281 0.681641
vt 0.923828 0.681641
vt 0.984375 0.681641
vt 0.076172 0.742188
vt 0.015625 0.742188
vt 0.136719 0.742188
vt 0.197266 0.742188
vt 0.257812 0.742188
vt 0.318359 0.742188
vt 0.378906 0.742188
vt 0.439453 0.742188
vt 0.500000 0.742188
vt 0.560547 0.742188
vt 0.621094 0.742188
vt 0.681641 0.742188
vt 0.742188 0.742188
vt 0.802734 0.742188
vt 0.863281 0.742188
vt 0.923828 0.742188
vt 0.984375 0.742188
vt 0.076172 0.802734
vt 0.015625 0.802734
vt 0.136719 0.802734
vt 0.197266 0.802734
vt 0.257812 0.802734
vt 0.318359 0.802734
vt 0.378906 0.802734
vt 0.439453 0.802734
vt 0.500000 0.802734
vt 0.560547 0.802734
vt 0.621094 0.802734
vt 0.681641 0.802734
vt 0.742188 0.802734
vt 0.802734 0.802734
vt 0.863281 0.802734
vt 0.923828 0.802734
vt 0.984375 0.802734
vt 0.076172 0.863281
vt 0.015625 0.863281
vt 0.136719 0.863281
vt 0.197266 0.863281
vt 0.257812 0.863281
vt 0.318359 0.863281
vt 0.378906 0.863281
vt 0.439453 0.863281
vt 0.500000 0.863281
vt 0.560547 0.863281
vt 0.621094 0.863281
vt 0.681641 0.863281
vt 0.742188 0.863281
vt 0.802734 0.863281
vt 0.863281 0.863281
vt 0.923828 0.863281
vt 0.984375 0.863281
vt 0.076172 0.923828
vt 0.015625 0.923828
vt 0.136719 0.923828
vt 0.197266 0.923828
vt 0.257812 0.923828
vt 0.318359 0.923828
vt 0.378906 0.923828
vt 0.439453 0.923828
vt 0.500000 0.923828
vt 0.560547 0.923828
vt 0.621094 0.923828
vt 0.681641 0.923828
vt 0.742188 0.923828
vt 0.802734 0.923828
vt 0.863281 0.923828
vt 0.923828 0.923828
vt 0.984375 0.923828
vt 0.076172 0.984375
vt 0.015625 0.984375
vt 0.136719 0.984375
vt 0.197266 0.984375
vt 0.257812 0.984375
vt 0.318359 0.984375
vt 0.378906 0.984375
vt 0.439453 0.984375
vt 0.500000 0.984375
vt 0.560547 0.984375
vt 0.621094 0.984375
vt 0.681641 0.984375
vt 0.742188 0.984375
vt 0.802734 0.984375
vt 0.863281 0.984375
vt 0.923828 0.984375
vt 0.984375 0.984375
s 1
f 1/1/1 2/2/2 19/3/3
f 1/1/1 19/3/3 18/4/4
f 2/2/2 3/5/5 20/6/6
f 2/2/2 20/6/6 19/3/3
f 3/5/5 4/7/7 21/8/8
f 3/5/5 21/8/8 20/6/6
f 4/7/7 5/9/9 22/10/10
f 4/7/7 22/10/10 21/8/8
f 5/9/9 6/11/11 23/12/12
f 5/9/9 23/12/12 22/10/10
f 6/11/11 7/13/13 24/14/14
f 6/11/11 24/14/14 23/12/12
f 7/13/13 8/15/15 25/16/16
f 7/13/13 25/16/16 24/14/14
f 8/15/15 9/17/17 26/18/18
f 8/15/15 26/18/18 25/16/16
f 9/17/17 10/19/19 27/20/20
f 9/17/17 27/20/20 26/18/18
f 10/19/19 11/21/21 28/22/22
f 10/19/19 28/22/22 27/20/20
f 11/21/21 12/23/23 29/24/24
f 11/21/21 29/24/24 28/22/22
f 12/23/23 13/25/25 30/26/26
f 12/23/23 30/26/26 29/24/24
f 13/25/25 14/27/27 31/28/28
f 13/25/25 31/28/28 30/26/26
f 14/27/27 15/29/29 32/30/30
f 14/27/27 32/30/30 31/28/28
f 15/29/29 16/31/31 33/32/32
f 15/29/29 33/32/32 32/30/30
f 16/31/31 17/33/33 34/34/34
f 16/31/31 34/34/34 33/32/32
f 18/4/4 19/3/3 36/35/35
f 18/4/4 36/35/35 35/36/36
f 19/3/3 20/6/6 37/37/37
f 19/3/3 37/37/37 36/35/35
f 20/6/6 21/8/8 38/38/38
f 20/6/6 38/38/38 37/37/37
f 21/8/8 22/10/10 39/39/39
f 21/8/8 39/39/39 38/38/38
f 22/10/10 23/12/12 40/40/40
f 22/10/10 40/40/40 39/39/39
f 23/12/12 24/14/14 41/41/41
f 23/12/12 41/41/41 40/40/40
f 24/14/14 25/16/16 42/42/42
f 24/14/14 42/42/42 41/41/41
f 25/16/16 26/18/18 43/43/43
f 25/16/16 43/43/43 42/42/42
f 26/18/18 27/20/20 44/44/44
f 26/18/18 44/44/44 43/43/43
f 27/20/20 28/22/22 45/45/45
f 27/20/20 45/45/45 44/44/44
f 28/22/22 29/24/24 46/46/46
f 28/22/22 46/46/46 45/45/45
f 29/24/24 30/26/26 47/47/47
f 29/24/24 47/47/47 46/46/46
f 30/26/26 31/28/28 48/48/48
f 30/26/26 48/48/48 47/47/47
f 31/28/28 32/30/30 49/49/49
f 31/28/28 49/49/49 48/48/48
f 32/30/30 33/32/32 50/50/50
f 32/30/30 50/50/50 49/49/49
f 33/32/32 34/34/34 51/51/51
f 33/32/32 51/51/51 50/50/50
f 35/36/36 36/35/35 53/52/52
f 35/36/36 53/52/52 52/53/53
f 36/35/35 37/37/37 54/54/54
f 36/35/35 54/54/54 53/52/52
f 37/37/37 38/38/38 55/55/55
f 37/37/37 55/55/55 54/54/54
f 38/38/38 39/39/39 56/56/56
f 38/38/38 56/56/56 55/55/55
f 39/39/39 40/40/40 57/57/57
f 39/39/39 57/57/57 56/56/56
f 40/40/40 41/41/41 58/58/58
f 40/40/40 58/58/58 57/57/57
f 41/41/41 42/42/42 59/59/59
f 41/41/41 59/59/59 58/58/58
f 42/42/42 43/43/43 60/60/60
f 42/42/42 60/60/60 59/59/59
f 43/43/43 44/44/44 61/61/61
f 43/43/43 61/61/61 60/60/60
f 44/44/44 45/45/45 62/62/62
f 44/44/44 62/62/62 61/61/61
f 45/45/45 46/46/46 63/63/63
f 45/45/45 63/63/63 62/62/62
f 46/46/46 47/47/47 64/64/64
f 46/46/46 64/64/64 63/63/63
f 47/47/47 48/48/48 65/65/65
f 47/47/47 65/65/65 64/64/64
f 48/48/48 49/49/49 66/66/66
f 48/48/48 66/66/66 65/65/65
f 49/49/49 50/50/50 67/67/67
f 49/49/49 67/67/67 66/66/66
f 50/50/50 51/51/51 68/68/68
f 50/50/50 68/68/68 67/67/67
f 52/53/53 53/52/52 70/69/69
f 52/53/53 70/69/69 69/70/70
f 53/52/52 54/54/54 71/71/71
f 53/52/52 71/71/71 70/69/69
f 54/54/54 55/55/55 72/72/72
f 54/54/54 72/72/72 71/71/71
f 55/55/55 56/56/56 73/73/73
f 55/55/55 73/73/73 72/72/72
f 56/56/56 57/57/57 74/74/74
f 56/56/56 74/74/74 73/73/73
f 57/57/57 58/58/58 75/75/75
f 57/57/57 75/75/75 74/74/74
f 58/58/58 59/59/59 76/76/76
f 58/58/58 76/76/76 75/75/75
f 59/59/59 60/60/60 77/77/77
f 59/59/59 77/77/77 76/76/76
f 60/60/60 61/61/61 78/78/78
f 60/60/60 78/78/78 77/77/77
f 61/61/61 62/62/62 79/79/79
f 61/61/61 79/79/79 78/78/78
f 62/62/62 63/63/63 80/80/80
f 62/62/62 80/80/80 79/79/79
f 63/63/63 64/64/64 81/81/81
f 63/63/63 81/81/81 80/80/80
f 64/64/64 65/65/65 82/82/82
f 64/64/64 82/82/82 81/81/81
f 65/65/65 66/66/66 83/83/83
f 65/65/65 83/83/83 82/82/82
f 66/66/66 67/67/67 84/84/84
f 66/66/66 84/84/84 83/83/83
f 67/67/67 68/68/68 85/85/85
f 67/67/67 85/85/85 84/84/84
f 69/70/70 70/69/69 87/86/86
f 69/70/70 87/86/86 86/87/87
f 70/69/69 71/71/71 88/88/88
f 70/69/69 88/88/88 87/86/86
f 71/71/71 72/72/72 89/89/89
f 71/71/71 89/89/89 88/88/88
f 72/72/72 73/73/73 90/90/90
f 72/72/72 90/90/90 89/89/89
f 73/73/73 74/74/74 91/91/91
f 73/73/73 91/91/91 90/90/90
f 74/74/74 75/75/75 92/92/92
f 74/74/74 92/92/92 91/91/91
f 75/75/75 76/76/76 93/93/93
f 75/75/75 93/93/93 92/92/92
f 76/76/76 77/77/77 94/94/94
f 76/76/76 94/94/94 93/93/93
f 77/77/77 78/78/78 95/95/95
f 77/77/77 95/95/95 94/94/94
f 78/78/78 79/79/79 96/96/96
f 78/78/78 96/96/96 95/95/95
f 79/79/79 80/80/80 97/97/97
f 79/79/79 97/97/97 96/96/96
f 80/80/80 81/81/81 98/98/98
f 80/80/80 98/98/98 97/97/97
f 81/81/81 82/82/82 99/99/99
f 81/81/81 99/99/99 98/98/98
f 82/82/82 83/83/83 100/100/100
f 82/82/82 100/100/100 99/99/99
f 83/83/83 84/84/84 101/101/101
f 83/83/83 101/101/101 100/100/100
f 84/84/84 85/85/85 102/102/102
f 84/84/84 102/102/102 101/101/101
f 86/87/87 87/86/86 104/103/103
f 86/87/87 104/103/103 103/104/104
f 87/86/86 88/88/88 105/105/105
f 87/86/86 105/105/105 104/103/103
f 88/88/88 89/89/89 106/106/106
f 88/88/88 106/106/106 105/105/105
f 89/89/89 90/90/90 107/107/107
f 89/89/89 107/107/107 106/106/106
f 90/90/90 91/91/91 108/108/108
f 90/90/90 108/108/108 107/107/107
f 91/91/91 92/92/92 109/109/109
f 91/91/91 109/109/109 108/108/108
f 92/92/92 93/93/93 110/110/110
f 92/92/92 110/110/110 109/109/109
f 93/93/93 94/94/94 111/111/111
f 93/93/93 111/111/111 110/110/110
f 94/94/94 95/95/95 112/112/112
f 94/94/94 112/112/112 111/111/111
f 95/95/95 96/96/96 113/113/113
f 95/95/95 113/113/113 112/112/112
f 96/96/96 97/97/97 114/114/114
f 96/96/96 114/114/114 113/113/113
f 97/97/97 98/98/98 115/115/115
f 97/97/97 115/115/115 114/114/114
f 98/98/98 99/99/99 116/116/116
f 98/98/98 116/116/116 115/115/115
f 99/99/99 100/100/100 117/117/117
f 99/99/99 117/117/117 116/116/116
f 100/100/100 101/101/101 118/118/118
f 100/100/100 118/118/118 117/117/117
f 101/101/101 102/102/102 119/119/119
f 101/101/101 119/119/119 118/118/118
f 103/104/104 104/103/103 121/120/120
f 103/104/104 121/120/120 120/121/121
f 104/103/103 105/105/105 122/122/122
f 104/103/103 122/122/122 121/120/120
f 105/105/105 106/106/106 123/123/123
f 105/105/105 123/123/123 122/122/122
f 106/106/106 107/107/107 124/124/124
f 106/106/106 124/124/124 123/123/123
f 107/107/107 108/108/108 125/125/125
f 107/107/107 125/125/125 124/124/124
f 108/108/108 109/109/109 126/126/126
f 108/108/108 126/126/126 125/125/125
f 109/109/109 110/110/110 127/127/127
f 109/109/109 127/127/127 126/126/126
f 110/110/110 111/111/111 128/128/128
f 110/110/110 128/128/128 127/127/127
f 111/111/111 112/112/112 129/129/129
f 111/111/111 129/129/129 128/128/128
f 112/112/112 113/113/113 130/130/130
f 112/112/112 130/130/130 129/129/129
f 113/113/113 114/114/114 131/131/131
f 113/113/113 131/131/131 130/130/130
f 114/114/114 115/115/115 132/132/132
f 114/114/114 132/132/132 131/131/131
f 115/115/115 116/116/116 133/133/133
f 115/115/115 133/133/133 132/132/132
f 116/116/116 117/117/117 134/134/134
f 116/116/116 134/134/134 133/133/133
f 117/117/117 118/118/118 135/135/135
f 117/117/117 135/135/135 134/134/134
f 118/118/118 119/119/119 136/136/136
f 118/118/118 136/136/136 135/135/135
f 120/121/121 121/120/120 138/137/137
f 120/121/121 138/137/137 137/138/138
f 121/120/120 122/122/122 139/139/139
f 121/120/120 139/139/139 138/137/137
f 122/122/122 123/123/123 140/140/140
f 122/122/122 140/140/140 139/139/139
f 123/123/123 124/124/124 141/141/141
f 123/123/123 141/141/141 140/140/140
f 124/124/124 125/125/125 142/142/142
f 124/124/124 142/142/142 141/141/141
f 125/125/125 126/126/126 143/143/143
f 125/125/125 143/143/143 142/142/142
f 126/126/126 127/127/127 144/144/144
f 126/126/126 144/144/144 143/143/143
f 127/127/127 128/128/128 145/145/145
f 127/127/127 145/145/145 144/144/144
f 128/128/128 129/129/129 146/146/146
f 128/128/128 146/146/146 145/145/145
f 129/129/129 130/130/130 147/147/147
f 129/129/129 147/147/147 146/146/146
f 130/130/130 131/131/131 148/148/148
f 130/130/130 148/148/148 147/147/147
f 131/131/131 132/132/132 149/149/149
f 131/131/131 149/149/149 148/148/148
f 132/132/132 133/133/133 150/150/150
f 132/132/132 150/150/150 149/149/149
f 133/133/133 134/134/134 151/151/151
f 133/133/133 151/151/151 150/150/150
f 134/134/134 135/135/135 152/152/152
f 134/134/134 152/152/152 151/151/151
f 135/135/135 136/136/136 153/153/153
f 135/135/135 153/153/153 152/152/152
f 137/138/138 138/137/137 155/154/154
f 137/138/138 155/154/154 154/155/155
f 138/137/137 139/139/139 156/156/156
f 138/137/137 156/156/156 155/154/154
f 139/139/139 140/140/140 157/157/157
f 139/139/139 157/157/157 156/156/156
f 140/140/140 141/141/141 158/158/158
f 140/140/140 158/158/158 157/157/157
f 141/141/141 142/142/142 159/159/159
f 141/141/141 159/159/159 158/158/158
f 142/142/142 143/143/143 160/160/160
f 142/142/142 160/160/160 159/159/159
f 143/143/143 144/144/144 161/161/161
f 143/143/143 161/161/161 160/160/160
f 144/144/144 145/145/145 162/162/162
f 144/144/144 162/162/162 161/161/161
f 145/145/145 146/146/146 163/163/163
f 145/145/145 163/163/163 162/162/162
f 146/146/146 147/147/147 164/164/164
f 146/146/146 164/164/164 163/163/163
f 147/147/147 148/148/148 165/165/165
f 147/147/147 165/165/165 164/164/164
f 148/148/148 149/149/149 166/166/166
f 148/148/148 166/166/166 165/165/165
f 149/149/149 150/150/150 167/167/167
f 149/149/149 167/167/167 166/166/166
f 150/150/150 151/151/151 168/168/168
f 150/150/150 168/168/168 167/167/167
f 151/151/151 152/152/152 169/169/169
f 151/151/151 169/169/169 168/168/168
f 152/152/152 153/153/153 170/170/170
f 152/152/152 170/170/170 169/169/169
f 154/155/155 155/154/154 172/171/171
f 154/155/155 172/171/171 171/172/172
f 155/154/154 156/156/156 173/173/173
f 155/154/154 173/173/173 172/171/171
f 156/156/156 157/157/157 174/174/174
f 156/156/156 174/174/174 173/173/173
f 157/157/157 158/158/158 175/175/175
f 157/157/157 175/175/175 174/174/174
f 158/158/158 159/159/159 176/176/176
f 158/158/158 176/176/176 175/175/175
f 159/159/159 160/160/160 177/177/177
f 159/159/159 177/177/177 176/176/176
f 160/160/160 161/161/161 178/178/178
f 160/160/160 178/178/178 177/177/177
f 161/161/161 162/162/162 179/179/179
f 161/161/161 179/179/179 178/178/178
f 162/162/162 163/163/163 180/180/180
f 162/162/162 180/180/180 179/179/179
f 163/163/163 164/164/164 181/181/181
f 163/163/163 181/181/181 180/180/180
f 164/164/164 165/165/165 182/182/182
f 164/164/164 182/182/182 181/181/181
f 165/165/165 166/166/166 183/183/183
f 165/165/165 183/183/183 182/182/182
f 166/166/166 167/167/167 184/184/184
f 166/166/166 184/184/184 183/183/183
f 167/167/167 168/168/168 185/185/185
f 167/167/167 185/185/185 184/184/184
f 168/168/168 169/169/169 186/186/186
f 168/168/168 186/186/186 185/185/185
f 169/169/169 170/170/170 187/187/187
f 169/169/169 187/187/187 186/186/186
f 171/172/172 172/171/171 189/188/188
f 171/172/172 189/188/188 188/189/189
f 172/171/171 173/173/173 190/190/190
f 172/171/171 190/190/190 189/188/188
f 173/173/173 174/174/174 191/191/191
f 173/173/173 191/191/191 190/190/190
f 174/174/174 175/175/175 192/192/192
f 174/174/174 192/192/192 191/191/191
f 175/175/175 176/176/176 193/193/193
f 175/175/175 193/193/193 192/192/192
f 176/176/176 177/177/177 194/194/194
f 176/176/176 194/194/194 193/193/193
f 177/177/177 178/178/178 195/195/195
f 177/177/177 195/195/195 194/194/194
f 178/178/178 179/179/179 196/196/196
f 178/178/178 196/196/196 195/195/195
f 179/179/179 180/180/180 197/197/197
f 179/179/179 197/197/197 196/196/196
f 180/180/180 181/181/181 198/198/198
f 180/180/180 198/198/198 197/197/197
f 181/181/181 182/182/182 199/199/199
f 181/181/181 199/199/199 198/198/198
f 182/182/182 183/183/183 200/200/200
f 182/182/182 200/200/200 199/199/199
f 183/183/183 184/184/184 201/201/201
f 183/183/183 201/201/201 200/200/200
f 184/184/184 185/185/185 202/202/202
f 184/184/184 202/202/202 201/201/201
f 185/185/185 186/186/186 203/203/203
f 185/185/185 203/203/203 202/202/202
f 186/186/186 187/187/187 204/204/204
f 186/186/186 204/204/204 203/203/203
f 188/189/189 189/188/188 206/205/205
f 188/189/189 206/205/205 205/206/206
f 189/188/188 190/190/190 207/207/207
f 189/188/188 207/207/207 206/205/205
f 190/190/190 191/191/191 208/208/208
f 190/190/190 208/208/208 207/207/207
f 191/191/191 192/192/192 209/209/209
f 191/191/191 209/209/209 208/208/208
f 192/192/192 193/193/193 210/210/210
f 192/192/192 210/210/210 209/209/209
f 193/193/193 194/194/194 211/211/211
f 193/193/193 211/211/211 210/210/210
f 194/194/194 195/195/195 212/212/212
f 194/194/194 212/212/212 211/211/211
f 195/195/195 196/196/196 213/213/213
f 195/195/195 213/213/213 212/212/212
f 196/196/196 197/197/197 214/214/214
f 196/196/196 214/214/214 213/213/213
f 197/197/197 198/198/198 215/215/215
f 197/197/197 215/215/215 214/214/214
f 198/198/198 199/199/199 216/216/216
f 198/198/198 216/216/216 215/215/215
f 199/199/199 200/200/200 217/217/217
f 199/199/199 217/217/217 216/216/216
f 200/200/200 201/201/201 218/218/218
f 200/200/200 218/218/218 217/217/217
f 201/201/201 202/202/202 219/219/219
f 201/201/201 219/219/219 218/218/218
f 202/202/202 203/203/203 220/220/220
f 202/202/202 220/220/220 219/219/219
f 203/203/203 204/204/204 221/221/221
f 203/203/203 221/221/221 220/220/220
f 205/206/206 206/205/205 223/222/222
f 205/206/206 223/222/222 222/223/223
f 206/205/205 207/207/207 224/224/224
f 206/205/205 224/224/224 223/222/222
f 207/207/207 208/208/208 225/225/225
f 207/207/207 225/225/225 224/224/224
f 208/208/208 209/209/209 226/226/226
f 208/208/208 226/226/226 225/225/225
f 209/209/209 210/210/210 227/227/227
f 209/209/209 227/227/227 226/226/226
f 210/210/210 211/211/211 228/228/228
f 210/210/210 228/228/228 227/227/227
f 211/211/211 212/212/212 229/229/229
f 211/211/211 229/229/229 228/228/228
f 212/212/212 213/213/213 230/230/230
f 212/212/212 230/230/230 229/229/229
f 213/213/213 214/214/214 231/231/231
f 213/213/213 231/231/231 230/230/230
f 214/214/214 215/215/215 232/232/232
f 214/214/214 232/232/232 231/231/231
f 215/215/215 216/216/216 233/233/233
f 215/215/215 233/233/233 232/232/232
f 216/216/216 217/217/217 234/234/234
f 216/216/216 234/234/234 233/233/233
f 217/217/217 218/218/218 235/235/235
f 217/217/217 235/235/235 234/234/234
f 218/218/218 219/219/219 236/236/236
f 218/218/218 236/236/236 235/235/235
f 219/219/219 220/220/220 237/237/237
f 219/219/219 237/237/237 236/236/236
f 220/220/220 221/221/221 238/238/238
f 220/220/220 238/238/238 237/237/237
f 222/223/223 223/222/222 240/239/239
f 222/223/223 240/239/239 239/240/240
f 223/222/222 224/224/224 241/241/241
f 223/222/222 241/241/241 240/239/239
f 224/224/224 225/225/225 242/242/242
f 224/224/224 242/242/242 241/241/241
f 225/225/225 226/226/226 243/243/243
f 225/225/225 243/243/243 242/242/242
f 226/226/226 227/227/227 244/244/244
f 226/226/226 244/244/244 243/243/243
f 227/227/227 228/228/228 245/245/245
f 227/227/227 245/245/245 244/244/244
f 228/228/228 229/229/229 246/246/246
f 228/228/228 246/246/246 245/245/245
f 229/229/229 230/230/230 247/247/247
f 229/229/229 247/247/247 246/246/246
f 230/230/230 231/231/231 248/248/248
f 230/230/230 248/248/248 247/247/247
f 231/231/231 232/232/232 249/249/249
f 231/231/231 249/249/249 248/248/248
f 232/232/232 233/233/233 250/250/250
f 232/232/232 250/250/250 249/249/249
f 233/233/233 234/234/234 251/251/251
f 233/233/233 251/251/251 250/250/250
f 234/234/234 235/235/235 252/252/252
f 234/234/234 252/252/252 251/251/251
f 235/235/235 236/236/236 253/253/253
f 235/235/235 253/253/253 252/252/252
f 236/236/236 237/237/237 254/254/254
f 236/236/236 254/254/254 253/253/253
f 237/237/237 238/238/238 255/255/255
f 237/237/237 255/255/255 254/254/254
f 239/240/240 240/239/239 257/256/256
f 239/240/240 257/256/256 256/257/257
f 240/239/239 241/241/241 258/258/258
f 240/239/239 258/258/258 257/256/256
f 241/241/241 242/242/242 259/259/259
f 241/241/241 259/259/259 258/258/258
f 242/242/242 243/243/243 260/260/260
f 242/242/242 260/260/260 259/259/259
f 243/243/243 244/244/244 261/261/261
f 243/243/243 261/261/261 260/260/260
f 244/244/244 245/245/245 262/262/262
f 244/244/244 262/262/262 261/261/261
f 245/245/245 246/246/246 263/263/263
f 245/245/245 263/263/263 262/262/262
f 246/246/246 247/247/247 264/264/264
f 246/246/246 264/264/264 263/263/263
f 247/247/247 248/248/248 265/265/265
f 247/247/247 265/265/265 264/264/264
f 248/248/248 249/249/249 266/266/266
f 248/248/248 266/266/266 265/265/265
f 249/249/249 250/250/250 267/267/267
f 249/249/249 267/267/267 266/266/266
f 250/250/250 251/251/251 268/268/268
f 250/250/250 268/268/268 267/267/267
f 251/251/251 252/252/252 269/269/269
f 251/251/251 269/269/269 268/268/268
f 252/252/252 253/253/253 270/270/270
f 252/252/252 270/270/270 269/269/269
f 253/253/253 254/254/254 271/271/271
f 253/253/253 271/271/271 270/270/270
f 254/254/254 255/255/255 272/272/272
f 254/254/254 272/272/272 271/271/271
f 256/257/257 257/256/256 274/273/273
f 256/257/257 274/273/273 273/274/274
f 257/256/256 258/258/258 275/275/275
f 257/256/256 275/275/275 274/273/273
f 258/258/258 259/259/259 276/276/276
f 258/258/258 276/276/276 275/275/275
f 259/259/259 260/260/260 277/277/277
f 259/259/259 277/277/277 276/276/276
f 260/260/260 261/261/261 278/278/278
f 260/260/260 278/278/278 277/277/277
f 261/261/261 262/262/262 279/279/279
f 261/261/261 279/279/279 278/278/278
f 262/262/262 263/263/263 280/280/280
f 262/262/262 280/280/280 279/279/279
f 263/263/263 264/264/264 281/281/281
f 263/263/263 281/281/281 280/280/280
f 264/264/264 265/265/265 282/282/282
f 264/264/264 282/282/282 281/281/281
f 265/265/265 266/266/266 283/283/283
f 265/265/265 283/283/283 282/282/282
f 266/266/266 267/267/267 284/284/284
f 266/266/266 284/284/284 283/283/283
f 267/267/267 268/268/268 285/285/285
f 267/267/267 285/285/285 284/284/284
f 268/268/268 269/269/269 286/286/286
f 268/268/268 286/286/286 285/285/285
f 269/269/269 270/270/270 287/287/287
f 269/269/269 287/287/287 286/286/286
f 270/270/270 271/271/271 288/288/288
f 270/270/270 288/288/288 287/287/287
f 271/271/271 272/272/272 289/289/289
f 271/271/271 289/289/289 288/288/288
