mtllib terrain_mid_05_03.mtl
usemtl terrain_mid_05_03
# Blender 5.1.1
# www.blender.org
o terrain_mid_05_03
v -160.000000 -160.000000 -54.137928
v -140.000000 -160.000000 -47.296116
v -120.000000 -160.000000 -40.794434
v -100.000000 -160.000000 -35.133682
v -80.000000 -160.000000 -29.676786
v -60.000000 -160.000000 -25.024063
v -40.000000 -160.000000 -21.099556
v -20.000000 -160.000000 -17.813829
v 0.000000 -160.000000 -14.984884
v 20.000000 -160.000000 -13.128764
v 40.000000 -160.000000 -12.421618
v 60.000000 -160.000000 -13.710653
v 80.000000 -160.000000 -16.531340
v 100.000000 -160.000000 -20.630867
v 120.000000 -160.000000 -25.287247
v 140.000000 -160.000000 -29.976135
v 160.000000 -160.000000 -33.737358
v -160.000000 -140.000000 -52.174473
v -140.000000 -140.000000 -44.910942
v -120.000000 -140.000000 -37.859287
v -100.000000 -140.000000 -31.882372
v -80.000000 -140.000000 -26.133579
v -60.000000 -140.000000 -21.021343
v -40.000000 -140.000000 -16.670853
v -20.000000 -140.000000 -13.062711
v 0.000000 -140.000000 -9.917542
v 20.000000 -140.000000 -7.661066
v 40.000000 -140.000000 -6.504823
v 60.000000 -140.000000 -7.327278
v 80.000000 -140.000000 -9.769220
v 100.000000 -140.000000 -13.793478
v 120.000000 -140.000000 -18.761801
v 140.000000 -140.000000 -23.772015
v 160.000000 -140.000000 -28.041233
v -160.000000 -120.000000 -50.594864
v -140.000000 -120.000000 -42.934219
v -120.000000 -120.000000 -35.204494
v -100.000000 -120.000000 -28.687778
v -80.000000 -120.000000 -22.524408
v -60.000000 -120.000000 -17.058060
v -40.000000 -120.000000 -12.366999
v -20.000000 -120.000000 -8.391141
v 0.000000 -120.000000 -4.797798
v 20.000000 -120.000000 -2.034981
v 40.000000 -120.000000 -0.509739
v 60.000000 -120.000000 -0.894166
v 80.000000 -120.000000 -3.048361
v 100.000000 -120.000000 -7.136882
v 120.000000 -120.000000 -12.349977
v 140.000000 -120.000000 -17.727913
v 160.000000 -120.000000 -22.503399
v -160.000000 -100.000000 -49.109783
v -140.000000 -100.000000 -41.211414
v -120.000000 -100.000000 -32.991287
v -100.000000 -100.000000 -25.574762
v -80.000000 -100.000000 -18.916355
v -60.000000 -100.000000 -13.114102
v -40.000000 -100.000000 -8.105578
v -20.000000 -100.000000 -3.844707
v 0.000000 -100.000000 0.016825
v 20.000000 -100.000000 3.242621
v 40.000000 -100.000000 5.237996
v 60.000000 -100.000000 5.281202
v 80.000000 -100.000000 3.265468
v 100.000000 -100.000000 -1.025005
v 120.000000 -100.000000 -6.468744
v 140.000000 -100.000000 -12.275846
v 160.000000 -100.000000 -17.563206
v -160.000000 -80.000000 -47.464870
v -140.000000 -80.000000 -39.580200
v -120.000000 -80.000000 -30.941162
v -100.000000 -80.000000 -22.640232
v -80.000000 -80.000000 -15.308635
v -60.000000 -80.000000 -9.245749
v -40.000000 -80.000000 -3.992568
v -20.000000 -80.000000 0.520283
v 0.000000 -80.000000 4.626193
v 20.000000 -80.000000 8.179538
v 40.000000 -80.000000 10.721591
v 60.000000 -80.000000 11.187174
v 80.000000 -80.000000 9.383476
v 100.000000 -80.000000 4.789489
v 120.000000 -80.000000 -0.979913
v 140.000000 -80.000000 -7.276029
v 160.000000 -80.000000 -13.068875
v -160.000000 -60.000000 -45.210930
v -140.000000 -60.000000 -37.774807
v -120.000000 -60.000000 -28.781006
v -100.000000 -60.000000 -19.640152
v -80.000000 -60.000000 -11.808764
v -60.000000 -60.000000 -5.545452
v -40.000000 -60.000000 -0.121746
v -20.000000 -60.000000 4.709872
v 0.000000 -60.000000 9.135843
v 20.000000 -60.000000 12.941168
v 40.000000 -60.000000 15.812058
v 60.000000 -60.000000 16.852301
v 80.000000 -60.000000 15.359137
v 100.000000 -60.000000 10.389939
v 120.000000 -60.000000 4.192769
v 140.000000 -60.000000 -2.708375
v 160.000000 -60.000000 -9.136007
v -160.000000 -40.000000 -41.548977
v -140.000000 -40.000000 -35.128922
v -120.000000 -40.000000 -26.162645
v -100.000000 -40.000000 -16.762716
v -80.000000 -40.000000 -8.668159
v -60.000000 -40.000000 -2.196018
v -40.000000 -40.000000 3.470045
v -20.000000 -40.000000 8.573106
v 0.000000 -40.000000 13.298916
v 20.000000 -40.000000 17.415695
v 40.000000 -40.000000 20.703003
v 60.000000 -40.000000 22.115234
v 80.000000 -40.000000 20.808891
v 100.000000 -40.000000 15.646178
v 120.000000 -40.000000 8.932793
v 140.000000 -40.000000 1.319810
v 160.000000 -40.000000 -5.915677
v -160.000000 -20.000000 -36.658657
v -140.000000 -20.000000 -31.451715
v -120.000000 -20.000000 -23.081707
v -100.000000 -20.000000 -14.010580
v -80.000000 -20.000000 -6.065376
v -60.000000 -20.000000 0.579148
v -40.000000 -20.000000 6.521029
v -20.000000 -20.000000 11.976989
v 0.000000 -20.000000 16.983500
v 20.000000 -20.000000 21.456074
v 40.000000 -20.000000 25.117580
v 60.000000 -20.000000 26.892883
v 80.000000 -20.000000 25.726746
v 100.000000 -20.000000 20.359802
v 120.000000 -20.000000 13.149908
v 140.000000 -20.000000 4.825819
v 160.000000 -20.000000 -3.655810
v -160.000000 0.000000 -31.528952
v -140.000000 0.000000 -27.532404
v -120.000000 0.000000 -20.004992
v -100.000000 0.000000 -11.685683
v -80.000000 0.000000 -4.119256
v -60.000000 0.000000 2.530232
v -40.000000 0.000000 8.726060
v -20.000000 0.000000 14.547105
v 0.000000 0.000000 19.886854
v 20.000000 0.000000 24.751959
v 40.000000 0.000000 28.811691
v 60.000000 0.000000 30.971354
v 80.000000 0.000000 30.022249
v 100.000000 0.000000 24.487528
v 120.000000 0.000000 16.786797
v 140.000000 0.000000 7.485859
v 160.000000 0.000000 -2.217388
v -160.000000 20.000000 -26.708687
v -140.000000 20.000000 -23.710022
v -120.000000 20.000000 -17.323929
v -100.000000 20.000000 -9.852967
v -80.000000 20.000000 -2.699281
v -60.000000 20.000000 3.854641
v -40.000000 20.000000 10.178995
v -20.000000 20.000000 16.244987
v 0.000000 20.000000 21.915527
v 20.000000 20.000000 27.121046
v 40.000000 20.000000 31.528809
v 60.000000 20.000000 34.209396
v 80.000000 20.000000 33.686718
v 100.000000 20.000000 28.085421
v 120.000000 20.000000 19.788275
v 140.000000 20.000000 9.255377
v 160.000000 20.000000 -1.777874
v -160.000000 40.000000 -22.568420
v -140.000000 40.000000 -20.417419
v -120.000000 40.000000 -15.357532
v -100.000000 40.000000 -8.562962
v -80.000000 40.000000 -1.865357
v -60.000000 40.000000 4.529099
v -40.000000 40.000000 10.894083
v -20.000000 40.000000 17.045010
v 0.000000 40.000000 23.006863
v 20.000000 40.000000 28.502163
v 40.000000 40.000000 33.309048
v 60.000000 40.000000 36.544323
v 80.000000 40.000000 36.543659
v 100.000000 40.000000 31.215935
v 120.000000 40.000000 22.573627
v 140.000000 40.000000 11.072570
v 160.000000 40.000000 -1.653104
v -160.000000 60.000000 -20.940668
v -140.000000 60.000000 -18.823473
v -120.000000 60.000000 -14.181370
v -100.000000 60.000000 -8.060134
v -80.000000 60.000000 -1.734973
v -60.000000 60.000000 4.494309
v -40.000000 60.000000 10.778509
v -20.000000 60.000000 16.952690
v 0.000000 60.000000 23.084269
v 20.000000 60.000000 28.904371
v 40.000000 60.000000 34.132210
v 60.000000 60.000000 37.884407
v 80.000000 60.000000 38.499550
v 100.000000 60.000000 33.787903
v 120.000000 60.000000 25.499878
v 140.000000 60.000000 13.437283
v 160.000000 60.000000 -0.413182
v -160.000000 80.000000 -21.175797
v -140.000000 80.000000 -18.666870
v -120.000000 80.000000 -14.239259
v -100.000000 80.000000 -8.684537
v -80.000000 80.000000 -2.777494
v -60.000000 80.000000 3.339219
v -40.000000 80.000000 9.602423
v -20.000000 80.000000 15.823038
v 0.000000 80.000000 22.094955
v 20.000000 80.000000 28.248100
v 40.000000 80.000000 33.975098
v 60.000000 80.000000 38.304333
v 80.000000 80.000000 39.781555
v 100.000000 80.000000 36.065239
v 120.000000 80.000000 28.241495
v 140.000000 80.000000 16.158609
v 160.000000 80.000000 2.223124
v -160.000000 100.000000 -23.154100
v -140.000000 100.000000 -20.294476
v -120.000000 100.000000 -16.040644
v -100.000000 100.000000 -10.998305
v -80.000000 100.000000 -5.403362
v -60.000000 100.000000 0.734666
v -40.000000 100.000000 7.092189
v -20.000000 100.000000 13.502651
v 0.000000 100.000000 19.919678
v 20.000000 100.000000 26.473129
v 40.000000 100.000000 32.723789
v 60.000000 100.000000 37.778706
v 80.000000 100.000000 40.265991
v 100.000000 100.000000 38.348312
v 120.000000 100.000000 31.114609
v 140.000000 100.000000 19.415642
v 160.000000 100.000000 5.682806
v -160.000000 120.000000 -26.075224
v -140.000000 120.000000 -23.665609
v -120.000000 120.000000 -19.573656
v -100.000000 120.000000 -14.680637
v -80.000000 120.000000 -9.172398
v -60.000000 120.000000 -3.063430
v -40.000000 120.000000 3.383049
v -20.000000 120.000000 9.949638
v 0.000000 120.000000 16.611443
v 20.000000 120.000000 23.473557
v 40.000000 120.000000 30.252779
v 60.000000 120.000000 36.331604
v 80.000000 120.000000 40.426235
v 100.000000 120.000000 40.446445
v 120.000000 120.000000 34.762260
v 140.000000 120.000000 23.627054
v 160.000000 120.000000 9.384100
v -160.000000 140.000000 -28.552477
v -140.000000 140.000000 -27.393393
v -120.000000 140.000000 -23.754198
v -100.000000 140.000000 -19.038080
v -80.000000 140.000000 -13.634068
v -60.000000 140.000000 -7.591404
v -40.000000 140.000000 -1.065166
v -20.000000 140.000000 5.698540
v 0.000000 140.000000 12.681585
v 20.000000 140.000000 19.928785
v 40.000000 140.000000 27.187174
v 60.000000 140.000000 34.185486
v 80.000000 140.000000 39.864487
v 100.000000 140.000000 41.907768
v 120.000000 140.000000 38.376213
v 140.000000 140.000000 28.761000
v 160.000000 140.000000 14.122571
v -160.000000 160.000000 -29.534649
v -140.000000 160.000000 -30.205242
v -120.000000 160.000000 -28.005554
v -100.000000 160.000000 -23.876099
v -80.000000 160.000000 -18.704401
v -60.000000 160.000000 -12.749784
v -40.000000 160.000000 -6.118633
v -20.000000 160.000000 0.854030
v 0.000000 160.000000 8.290587
v 20.000000 160.000000 15.999864
v 40.000000 160.000000 23.843323
v 60.000000 160.000000 31.508667
v 80.000000 160.000000 38.205463
v 100.000000 160.000000 42.713032
v 120.000000 160.000000 41.418571
v 140.000000 160.000000 33.784817
v 160.000000 160.000000 19.600443
vn -0.2476 -0.1068 0.9630
vn -0.3138 -0.1301 0.9405
vn -0.3352 -0.1021 0.9366
vn -0.2724 -0.0849 0.9584
vn -0.2877 -0.1491 0.9461
vn -0.3068 -0.1317 0.9426
vn -0.2645 -0.1568 0.9516
vn -0.2781 -0.1529 0.9483
vn -0.2416 -0.1683 0.9557
vn -0.2583 -0.1701 0.9510
vn -0.2058 -0.1902 0.9599
vn -0.2260 -0.1902 0.9554
vn -0.1734 -0.2116 0.9618
vn -0.1907 -0.2093 0.9591
vn -0.1472 -0.2252 0.9631
vn -0.1622 -0.2263 0.9605
vn -0.1129 -0.2401 0.9642
vn -0.1298 -0.2448 0.9609
vn -0.0618 -0.2577 0.9642
vn -0.0817 -0.2662 0.9604
vn 0.0140 -0.2789 0.9602
vn -0.0080 -0.2854 0.9584
vn 0.0975 -0.2982 0.9495
vn 0.0775 -0.3042 0.9494
vn 0.1619 -0.3136 0.9356
vn 0.1514 -0.3157 0.9367
vn 0.2030 -0.3149 0.9272
vn 0.2083 -0.3126 0.9268
vn 0.2169 -0.3012 0.9285
vn 0.2309 -0.2994 0.9258
vn 0.1977 -0.2910 0.9361
vn 0.2166 -0.2858 0.9335
vn 0.1430 -0.2748 0.9508
vn 0.1688 -0.2665 0.9489
vn -0.3578 -0.0861 0.9298
vn -0.2799 -0.0733 0.9572
vn -0.3333 -0.1139 0.9359
vn -0.2986 -0.1484 0.9428
vn -0.2750 -0.1706 0.9462
vn -0.2418 -0.1882 0.9519
vn -0.2072 -0.2048 0.9566
vn -0.1813 -0.2208 0.9583
vn -0.1525 -0.2383 0.9591
vn -0.1027 -0.2614 0.9598
vn -0.0277 -0.2819 0.9590
vn 0.0604 -0.3001 0.9520
vn 0.1468 -0.3064 0.9405
vn 0.2163 -0.2968 0.9301
vn 0.2454 -0.2848 0.9267
vn 0.2371 -0.2682 0.9337
vn 0.1980 -0.2484 0.9482
vn -0.3727 -0.0776 0.9247
vn -0.2862 -0.0747 0.9553
vn -0.3623 -0.0988 0.9268
vn -0.3285 -0.1411 0.9339
vn -0.2931 -0.1697 0.9409
vn -0.2563 -0.1852 0.9487
vn -0.2211 -0.1997 0.9546
vn -0.1942 -0.2131 0.9575
vn -0.1700 -0.2261 0.9592
vn -0.1255 -0.2455 0.9613
vn -0.0487 -0.2697 0.9617
vn 0.0472 -0.2887 0.9563
vn 0.1489 -0.2935 0.9443
vn 0.2271 -0.2783 0.9333
vn 0.2612 -0.2639 0.9285
vn 0.2594 -0.2439 0.9345
vn 0.2198 -0.2240 0.9495
vn -0.3806 -0.0791 0.9214
vn -0.2842 -0.0930 0.9542
vn -0.3882 -0.0965 0.9165
vn -0.3606 -0.1369 0.9226
vn -0.3131 -0.1661 0.9351
vn -0.2678 -0.1791 0.9467
vn -0.2329 -0.1904 0.9537
vn -0.2065 -0.2050 0.9567
vn -0.1835 -0.2185 0.9584
vn -0.1465 -0.2331 0.9614
vn -0.0726 -0.2551 0.9642
vn 0.0323 -0.2775 0.9602
vn 0.1514 -0.2860 0.9462
vn 0.2417 -0.2663 0.9331
vn 0.2798 -0.2472 0.9277
vn 0.2820 -0.2231 0.9331
vn 0.2454 -0.1999 0.9486
vn -0.3780 -0.1024 0.9201
vn -0.2468 -0.1418 0.9586
vn -0.4104 -0.1081 0.9055
vn -0.3871 -0.1340 0.9123
vn -0.3283 -0.1547 0.9318
vn -0.2766 -0.1670 0.9463
vn -0.2443 -0.1778 0.9533
vn -0.2212 -0.1924 0.9561
vn -0.1971 -0.2077 0.9581
vn -0.1606 -0.2221 0.9617
vn -0.0946 -0.2413 0.9658
vn 0.0110 -0.2635 0.9646
vn 0.1535 -0.2713 0.9502
vn 0.2602 -0.2529 0.9319
vn 0.3029 -0.2292 0.9250
vn 0.3098 -0.1998 0.9296
vn 0.2757 -0.1692 0.9462
vn -0.3552 -0.1460 0.9233
vn -0.1883 -0.2053 0.9604
vn -0.4138 -0.1284 0.9013
vn -0.3974 -0.1279 0.9087
vn -0.3390 -0.1337 0.9312
vn -0.2874 -0.1451 0.9468
vn -0.2567 -0.1584 0.9534
vn -0.2350 -0.1738 0.9563
vn -0.2123 -0.1884 0.9589
vn -0.1781 -0.2049 0.9624
vn -0.1136 -0.2251 0.9677
vn -0.0026 -0.2435 0.9699
vn 0.1547 -0.2479 0.9564
vn 0.2769 -0.2324 0.9324
vn 0.3300 -0.2062 0.9212
vn 0.3427 -0.1739 0.9232
vn 0.3148 -0.1288 0.9404
vn -0.3163 -0.1770 0.9320
vn -0.1281 -0.2410 0.9620
vn -0.3958 -0.1398 0.9076
vn -0.3887 -0.1159 0.9141
vn -0.3407 -0.1063 0.9341
vn -0.2983 -0.1121 0.9479
vn -0.2719 -0.1254 0.9541
vn -0.2503 -0.1429 0.9576
vn -0.2277 -0.1583 0.9608
vn -0.1960 -0.1768 0.9645
vn -0.1319 -0.1969 0.9715
vn -0.0148 -0.2161 0.9763
vn 0.1572 -0.2216 0.9624
vn 0.2935 -0.2063 0.9334
vn 0.3561 -0.1800 0.9169
vn 0.3835 -0.1407 0.9127
vn 0.3634 -0.0858 0.9277
vn -0.2722 -0.1828 0.9447
vn -0.0908 -0.2404 0.9664
vn -0.3650 -0.1326 0.9215
vn -0.3674 -0.0961 0.9251
vn -0.3338 -0.0791 0.9393
vn -0.3048 -0.0777 0.9492
vn -0.2865 -0.0872 0.9541
vn -0.2671 -0.1020 0.9582
vn -0.2455 -0.1187 0.9621
vn -0.2156 -0.1369 0.9668
vn -0.1518 -0.1564 0.9760
vn -0.0300 -0.1799 0.9832
vn 0.1570 -0.1928 0.9686
vn 0.3090 -0.1803 0.9338
vn 0.3867 -0.1510 0.9098
vn 0.4270 -0.0995 0.8988
vn 0.4198 -0.0426 0.9066
vn -0.2251 -0.1706 0.9593
vn -0.0678 -0.2181 0.9736
vn -0.3254 -0.1091 0.9393
vn -0.3425 -0.0731 0.9367
vn -0.3238 -0.0533 0.9446
vn -0.3062 -0.0475 0.9508
vn -0.2952 -0.0515 0.9540
vn -0.2813 -0.0601 0.9577
vn -0.2614 -0.0748 0.9623
vn -0.2328 -0.0908 0.9683
vn -0.1734 -0.1100 0.9787
vn -0.0531 -0.1377 0.9890
vn 0.1494 -0.1591 0.9759
vn 0.3242 -0.1569 0.9329
vn 0.4223 -0.1298 0.8971
vn 0.4731 -0.0787 0.8775
vn 0.4655 -0.0125 0.8849
vn -0.1762 -0.1194 0.9771
vn -0.0571 -0.1425 0.9881
vn -0.2833 -0.0751 0.9561
vn -0.3194 -0.0425 0.9467
vn -0.3110 -0.0229 0.9501
vn -0.3039 -0.0153 0.9526
vn -0.2985 -0.0142 0.9543
vn -0.2898 -0.0169 0.9569
vn -0.2754 -0.0283 0.9609
vn -0.2491 -0.0431 0.9675
vn -0.1967 -0.0637 0.9784
vn -0.0803 -0.0912 0.9926
vn 0.1311 -0.1184 0.9843
vn 0.3268 -0.1334 0.9356
vn 0.4461 -0.1265 0.8860
vn 0.5161 -0.0889 0.8519
vn 0.5060 -0.0294 0.8620
vn -0.1664 -0.0431 0.9851
vn -0.0724 -0.0347 0.9968
vn -0.2597 -0.0270 0.9653
vn -0.2972 0.0029 0.9548
vn -0.2994 0.0217 0.9539
vn -0.2984 0.0284 0.9540
vn -0.2973 0.0307 0.9543
vn -0.2939 0.0292 0.9554
vn -0.2862 0.0219 0.9579
vn -0.2663 0.0061 0.9639
vn -0.2190 -0.0162 0.9756
vn -0.1084 -0.0437 0.9931
vn 0.1015 -0.0803 0.9916
vn 0.3070 -0.1145 0.9448
vn 0.4499 -0.1253 0.8843
vn 0.5406 -0.1061 0.8345
vn 0.5365 -0.0814 0.8400
vn -0.1708 0.0362 0.9846
vn -0.0937 0.0550 0.9941
vn -0.2419 0.0451 0.9693
vn -0.2748 0.0704 0.9589
vn -0.2868 0.0875 0.9540
vn -0.2945 0.0894 0.9515
vn -0.2968 0.0876 0.9509
vn -0.2971 0.0821 0.9513
vn -0.2958 0.0753 0.9523
vn -0.2842 0.0582 0.9570
vn -0.2437 0.0341 0.9693
vn -0.1437 0.0026 0.9896
vn 0.0558 -0.0440 0.9975
vn 0.2756 -0.1088 0.9551
vn 0.4421 -0.1247 0.8883
vn 0.5410 -0.1243 0.8318
vn 0.5449 -0.1263 0.8289
vn -0.1738 0.1221 0.9772
vn -0.1053 0.1209 0.9871
vn -0.2247 0.1285 0.9659
vn -0.2543 0.1434 0.9564
vn -0.2782 0.1516 0.9485
vn -0.2949 0.1509 0.9435
vn -0.3009 0.1464 0.9424
vn -0.3026 0.1383 0.9430
vn -0.3059 0.1293 0.9432
vn -0.3029 0.1129 0.9463
vn -0.2709 0.0892 0.9585
vn -0.1851 0.0484 0.9815
vn -0.0142 -0.0161 0.9998
vn 0.2217 -0.1061 0.9693
vn 0.4233 -0.1458 0.8942
vn 0.5300 -0.1557 0.8336
vn 0.5501 -0.1472 0.8220
vn -0.1578 0.1726 0.9723
vn -0.0613 0.1335 0.9892
vn -0.2153 0.1850 0.9589
vn -0.2473 0.1906 0.9500
vn -0.2737 0.1937 0.9421
vn -0.2938 0.1947 0.9358
vn -0.3037 0.1903 0.9335
vn -0.3087 0.1821 0.9335
vn -0.3157 0.1689 0.9337
vn -0.3190 0.1530 0.9353
vn -0.3034 0.1306 0.9439
vn -0.2456 0.0867 0.9655
vn -0.1023 0.0100 0.9947
vn 0.1396 -0.0878 0.9863
vn 0.3823 -0.1650 0.9092
vn 0.5256 -0.1935 0.8284
vn 0.5701 -0.1696 0.8039
vn -0.1176 0.1602 0.9801
vn 0.0132 0.0862 0.9962
vn -0.2002 0.2021 0.9587
vn -0.2395 0.2175 0.9462
vn -0.2683 0.2232 0.9371
vn -0.2921 0.2251 0.9295
vn -0.3075 0.2200 0.9258
vn -0.3178 0.2102 0.9246
vn -0.3289 0.1923 0.9246
vn -0.3358 0.1730 0.9259
vn -0.3320 0.1492 0.9314
vn -0.3001 0.1142 0.9470
vn -0.1893 0.0544 0.9804
vn 0.0371 -0.0566 0.9977
vn 0.3084 -0.1561 0.9384
vn 0.5067 -0.2122 0.8356
vn 0.5928 -0.1993 0.7803
vn -0.0380 0.1086 0.9934
vn 0.1042 0.0057 0.9945
vn -0.1535 0.1906 0.9696
vn -0.2202 0.2337 0.9470
vn -0.2595 0.2496 0.9329
vn -0.2906 0.2503 0.9235
vn -0.3123 0.2435 0.9183
vn -0.3297 0.2313 0.9153
vn -0.3463 0.2092 0.9145
vn -0.3560 0.1861 0.9158
vn -0.3568 0.1608 0.9202
vn -0.3349 0.1335 0.9327
vn -0.2685 0.0928 0.9588
vn -0.0801 0.0016 0.9968
vn 0.2166 -0.1076 0.9703
vn 0.4702 -0.1893 0.8620
vn 0.6029 -0.2118 0.7692
vt 0.015625 0.015625
vt 0.076172 0.015625
vt 0.076172 0.076172
vt 0.015625 0.076172
vt 0.136719 0.015625
vt 0.136719 0.076172
vt 0.197266 0.015625
vt 0.197266 0.076172
vt 0.257812 0.015625
vt 0.257812 0.076172
vt 0.318359 0.015625
vt 0.318359 0.076172
vt 0.378906 0.015625
vt 0.378906 0.076172
vt 0.439453 0.015625
vt 0.439453 0.076172
vt 0.500000 0.015625
vt 0.500000 0.076172
vt 0.560547 0.015625
vt 0.560547 0.076172
vt 0.621094 0.015625
vt 0.621094 0.076172
vt 0.681641 0.015625
vt 0.681641 0.076172
vt 0.742188 0.015625
vt 0.742188 0.076172
vt 0.802734 0.015625
vt 0.802734 0.076172
vt 0.863281 0.015625
vt 0.863281 0.076172
vt 0.923828 0.015625
vt 0.923828 0.076172
vt 0.984375 0.015625
vt 0.984375 0.076172
vt 0.076172 0.136719
vt 0.015625 0.136719
vt 0.136719 0.136719
vt 0.197266 0.136719
vt 0.257812 0.136719
vt 0.318359 0.136719
vt 0.378906 0.136719
vt 0.439453 0.136719
vt 0.500000 0.136719
vt 0.560547 0.136719
vt 0.621094 0.136719
vt 0.681641 0.136719
vt 0.742188 0.136719
vt 0.802734 0.136719
vt 0.863281 0.136719
vt 0.923828 0.136719
vt 0.984375 0.136719
vt 0.076172 0.197266
vt 0.015625 0.197266
vt 0.136719 0.197266
vt 0.197266 0.197266
vt 0.257812 0.197266
vt 0.318359 0.197266
vt 0.378906 0.197266
vt 0.439453 0.197266
vt 0.500000 0.197266
vt 0.560547 0.197266
vt 0.621094 0.197266
vt 0.681641 0.197266
vt 0.742188 0.197266
vt 0.802734 0.197266
vt 0.863281 0.197266
vt 0.923828 0.197266
vt 0.984375 0.197266
vt 0.076172 0.257812
vt 0.015625 0.257812
vt 0.136719 0.257812
vt 0.197266 0.257812
vt 0.257812 0.257812
vt 0.318359 0.257812
vt 0.378906 0.257812
vt 0.439453 0.257812
vt 0.500000 0.257812
vt 0.560547 0.257812
vt 0.621094 0.257812
vt 0.681641 0.257812
vt 0.742188 0.257812
vt 0.802734 0.257812
vt 0.863281 0.257812
vt 0.923828 0.257812
vt 0.984375 0.257812
vt 0.076172 0.318359
vt 0.015625 0.318359
vt 0.136719 0.318359
vt 0.197266 0.318359
vt 0.257812 0.318359
vt 0.318359 0.318359
vt 0.378906 0.318359
vt 0.439453 0.318359
vt 0.500000 0.318359
vt 0.560547 0.318359
vt 0.621094 0.318359
vt 0.681641 0.318359
vt 0.742188 0.318359
vt 0.802734 0.318359
vt 0.863281 0.318359
vt 0.923828 0.318359
vt 0.984375 0.318359
vt 0.076172 0.378906
vt 0.015625 0.378906
vt 0.136719 0.378906
vt 0.197266 0.378906
vt 0.257812 0.378906
vt 0.318359 0.378906
vt 0.378906 0.378906
vt 0.439453 0.378906
vt 0.500000 0.378906
vt 0.560547 0.378906
vt 0.621094 0.378906
vt 0.681641 0.378906
vt 0.742188 0.378906
vt 0.802734 0.378906
vt 0.863281 0.378906
vt 0.923828 0.378906
vt 0.984375 0.378906
vt 0.076172 0.439453
vt 0.015625 0.439453
vt 0.136719 0.439453
vt 0.197266 0.439453
vt 0.257812 0.439453
vt 0.318359 0.439453
vt 0.378906 0.439453
vt 0.439453 0.439453
vt 0.500000 0.439453
vt 0.560547 0.439453
vt 0.621094 0.439453
vt 0.681641 0.439453
vt 0.742188 0.439453
vt 0.802734 0.439453
vt 0.863281 0.439453
vt 0.923828 0.439453
vt 0.984375 0.439453
vt 0.076172 0.500000
vt 0.015625 0.500000
vt 0.136719 0.500000
vt 0.197266 0.500000
vt 0.257812 0.500000
vt 0.318359 0.500000
vt 0.378906 0.500000
vt 0.439453 0.500000
vt 0.500000 0.500000
vt 0.560547 0.500000
vt 0.621094 0.500000
vt 0.681641 0.500000
vt 0.742188 0.500000
vt 0.802734 0.500000
vt 0.863281 0.500000
vt 0.923828 0.500000
vt 0.984375 0.500000
vt 0.076172 0.560547
vt 0.015625 0.560547
vt 0.136719 0.560547
vt 0.197266 0.560547
vt 0.257812 0.560547
vt 0.318359 0.560547
vt 0.378906 0.560547
vt 0.439453 0.560547
vt 0.500000 0.560547
vt 0.560547 0.560547
vt 0.621094 0.560547
vt 0.681641 0.560547
vt 0.742188 0.560547
vt 0.802734 0.560547
vt 0.863281 0.560547
vt 0.923828 0.560547
vt 0.984375 0.560547
vt 0.076172 0.621094
vt 0.015625 0.621094
vt 0.136719 0.621094
vt 0.197266 0.621094
vt 0.257812 0.621094
vt 0.318359 0.621094
vt 0.378906 0.621094
vt 0.439453 0.621094
vt 0.500000 0.621094
vt 0.560547 0.621094
vt 0.621094 0.621094
vt 0.681641 0.621094
vt 0.742188 0.621094
vt 0.802734 0.621094
vt 0.863281 0.621094
vt 0.923828 0.621094
vt 0.984375 0.621094
vt 0.076172 0.681641
vt 0.015625 0.681641
vt 0.136719 0.681641
vt 0.197266 0.681641
vt 0.257812 0.681641
vt 0.318359 0.681641
vt 0.378906 0.681641
vt 0.439453 0.681641
vt 0.500000 0.681641
vt 0.560547 0.681641
vt 0.621094 0.681641
vt 0.681641 0.681641
vt 0.742188 0.681641
vt 0.802734 0.681641
vt 0.863281 0.681641
vt 0.923828 0.681641
vt 0.984375 0.681641
vt 0.076172 0.742188
vt 0.015625 0.742188
vt 0.136719 0.742188
vt 0.197266 0.742188
vt 0.257812 0.742188
vt 0.318359 0.742188
vt 0.378906 0.742188
vt 0.439453 0.742188
vt 0.500000 0.742188
vt 0.560547 0.742188
vt 0.621094 0.742188
vt 0.681641 0.742188
vt 0.742188 0.742188
vt 0.802734 0.742188
vt 0.863281 0.742188
vt 0.923828 0.742188
vt 0.984375 0.742188
vt 0.076172 0.802734
vt 0.015625 0.802734
vt 0.136719 0.802734
vt 0.197266 0.802734
vt 0.257812 0.802734
vt 0.318359 0.802734
vt 0.378906 0.802734
vt 0.439453 0.802734
vt 0.500000 0.802734
vt 0.560547 0.802734
vt 0.621094 0.802734
vt 0.681641 0.802734
vt 0.742188 0.802734
vt 0.802734 0.802734
vt 0.863281 0.802734
vt 0.923828 0.802734
vt 0.984375 0.802734
vt 0.076172 0.863281
vt 0.015625 0.863281
vt 0.136719 0.863281
vt 0.197266 0.863281
vt 0.257812 0.863281
vt 0.318359 0.863281
vt 0.378906 0.863281
vt 0.439453 0.863281
vt 0.500000 0.863281
vt 0.560547 0.863281
vt 0.621094 0.863281
vt 0.681641 0.863281
vt 0.742188 0.863281
vt 0.802734 0.863281
vt 0.863281 0.863281
vt 0.923828 0.863281
vt 0.984375 0.863281
vt 0.076172 0.923828
vt 0.015625 0.923828
vt 0.136719 0.923828
vt 0.197266 0.923828
vt 0.257812 0.923828
vt 0.318359 0.923828
vt 0.378906 0.923828
vt 0.439453 0.923828
vt 0.500000 0.923828
vt 0.560547 0.923828
vt 0.621094 0.923828
vt 0.681641 0.923828
vt 0.742188 0.923828
vt 0.802734 0.923828
vt 0.863281 0.923828
vt 0.923828 0.923828
vt 0.984375 0.923828
vt 0.076172 0.984375
vt 0.015625 0.984375
vt 0.136719 0.984375
vt 0.197266 0.984375
vt 0.257812 0.984375
vt 0.318359 0.984375
vt 0.378906 0.984375
vt 0.439453 0.984375
vt 0.500000 0.984375
vt 0.560547 0.984375
vt 0.621094 0.984375
vt 0.681641 0.984375
vt 0.742188 0.984375
vt 0.802734 0.984375
vt 0.863281 0.984375
vt 0.923828 0.984375
vt 0.984375 0.984375
s 1
f 1/1/1 2/2/2 19/3/3
f 1/1/1 19/3/3 18/4/4
f 2/2/2 3/5/5 20/6/6
f 2/2/2 20/6/6 19/3/3
f 3/5/5 4/7/7 21/8/8
f 3/5/5 21/8/8 20/6/6
f 4/7/7 5/9/9 22/10/10
f 4/7/7 22/10/10 21/8/8
f 5/9/9 6/11/11 23/12/12
f 5/9/9 23/12/12 22/10/10
f 6/11/11 7/13/13 24/14/14
f 6/11/11 24/14/14 23/12/12
f 7/13/13 8/15/15 25/16/16
f 7/13/13 25/16/16 24/14/14
f 8/15/15 9/17/17 26/18/18
f 8/15/15 26/18/18 25/16/16
f 9/17/17 10/19/19 27/20/20
f 9/17/17 27/20/20 26/18/18
f 10/19/19 11/21/21 28/22/22
f 10/19/19 28/22/22 27/20/20
f 11/21/21 12/23/23 29/24/24
f 11/21/21 29/24/24 28/22/22
f 12/23/23 13/25/25 30/26/26
f 12/23/23 30/26/26 29/24/24
f 13/25/25 14/27/27 31/28/28
f 13/25/25 31/28/28 30/26/26
f 14/27/27 15/29/29 32/30/30
f 14/27/27 32/30/30 31/28/28
f 15/29/29 16/31/31 33/32/32
f 15/29/29 33/32/32 32/30/30
f 16/31/31 17/33/33 34/34/34
f 16/31/31 34/34/34 33/32/32
f 18/4/4 19/3/3 36/35/35
f 18/4/4 36/35/35 35/36/36
f 19/3/3 20/6/6 37/37/37
f 19/3/3 37/37/37 36/35/35
f 20/6/6 21/8/8 38/38/38
f 20/6/6 38/38/38 37/37/37
f 21/8/8 22/10/10 39/39/39
f 21/8/8 39/39/39 38/38/38
f 22/10/10 23/12/12 40/40/40
f 22/10/10 40/40/40 39/39/39
f 23/12/12 24/14/14 41/41/41
f 23/12/12 41/41/41 40/40/40
f 24/14/14 25/16/16 42/42/42
f 24/14/14 42/42/42 41/41/41
f 25/16/16 26/18/18 43/43/43
f 25/16/16 43/43/43 42/42/42
f 26/18/18 27/20/20 44/44/44
f 26/18/18 44/44/44 43/43/43
f 27/20/20 28/22/22 45/45/45
f 27/20/20 45/45/45 44/44/44
f 28/22/22 29/24/24 46/46/46
f 28/22/22 46/46/46 45/45/45
f 29/24/24 30/26/26 47/47/47
f 29/24/24 47/47/47 46/46/46
f 30/26/26 31/28/28 48/48/48
f 30/26/26 48/48/48 47/47/47
f 31/28/28 32/30/30 49/49/49
f 31/28/28 49/49/49 48/48/48
f 32/30/30 33/32/32 50/50/50
f 32/30/30 50/50/50 49/49/49
f 33/32/32 34/34/34 51/51/51
f 33/32/32 51/51/51 50/50/50
f 35/36/36 36/35/35 53/52/52
f 35/36/36 53/52/52 52/53/53
f 36/35/35 37/37/37 54/54/54
f 36/35/35 54/54/54 53/52/52
f 37/37/37 38/38/38 55/55/55
f 37/37/37 55/55/55 54/54/54
f 38/38/38 39/39/39 56/56/56
f 38/38/38 56/56/56 55/55/55
f 39/39/39 40/40/40 57/57/57
f 39/39/39 57/57/57 56/56/56
f 40/40/40 41/41/41 58/58/58
f 40/40/40 58/58/58 57/57/57
f 41/41/41 42/42/42 59/59/59
f 41/41/41 59/59/59 58/58/58
f 42/42/42 43/43/43 60/60/60
f 42/42/42 60/60/60 59/59/59
f 43/43/43 44/44/44 61/61/61
f 43/43/43 61/61/61 60/60/60
f 44/44/44 45/45/45 62/62/62
f 44/44/44 62/62/62 61/61/61
f 45/45/45 46/46/46 63/63/63
f 45/45/45 63/63/63 62/62/62
f 46/46/46 47/47/47 64/64/64
f 46/46/46 64/64/64 63/63/63
f 47/47/47 48/48/48 65/65/65
f 47/47/47 65/65/65 64/64/64
f 48/48/48 49/49/49 66/66/66
f 48/48/48 66/66/66 65/65/65
f 49/49/49 50/50/50 67/67/67
f 49/49/49 67/67/67 66/66/66
f 50/50/50 51/51/51 68/68/68
f 50/50/50 68/68/68 67/67/67
f 52/53/53 53/52/52 70/69/69
f 52/53/53 70/69/69 69/70/70
f 53/52/52 54/54/54 71/71/71
f 53/52/52 71/71/71 70/69/69
f 54/54/54 55/55/55 72/72/72
f 54/54/54 72/72/72 71/71/71
f 55/55/55 56/56/56 73/73/73
f 55/55/55 73/73/73 72/72/72
f 56/56/56 57/57/57 74/74/74
f 56/56/56 74/74/74 73/73/73
f 57/57/57 58/58/58 75/75/75
f 57/57/57 75/75/75 74/74/74
f 58/58/58 59/59/59 76/76/76
f 58/58/58 76/76/76 75/75/75
f 59/59/59 60/60/60 77/77/77
f 59/59/59 77/77/77 76/76/76
f 60/60/60 61/61/61 78/78/78
f 60/60/60 78/78/78 77/77/77
f 61/61/61 62/62/62 79/79/79
f 61/61/61 79/79/79 78/78/78
f 62/62/62 63/63/63 80/80/80
f 62/62/62 80/80/80 79/79/79
f 63/63/63 64/64/64 81/81/81
f 63/63/63 81/81/81 80/80/80
f 64/64/64 65/65/65 82/82/82
f 64/64/64 82/82/82 81/81/81
f 65/65/65 66/66/66 83/83/83
f 65/65/65 83/83/83 82/82/82
f 66/66/66 67/67/67 84/84/84
f 66/66/66 84/84/84 83/83/83
f 67/67/67 68/68/68 85/85/85
f 67/67/67 85/85/85 84/84/84
f 69/70/70 70/69/69 87/86/86
f 69/70/70 87/86/86 86/87/87
f 70/69/69 71/71/71 88/88/88
f 70/69/69 88/88/88 87/86/86
f 71/71/71 72/72/72 89/89/89
f 71/71/71 89/89/89 88/88/88
f 72/72/72 73/73/73 90/90/90
f 72/72/72 90/90/90 89/89/89
f 73/73/73 74/74/74 91/91/91
f 73/73/73 91/91/91 90/90/90
f 74/74/74 75/75/75 92/92/92
f 74/74/74 92/92/92 91/91/91
f 75/75/75 76/76/76 93/93/93
f 75/75/75 93/93/93 92/92/92
f 76/76/76 77/77/77 94/94/94
f 76/76/76 94/94/94 93/93/93
f 77/77/77 78/78/78 95/95/95
f 77/77/77 95/95/95 94/94/94
f 78/78/78 79/79/79 96/96/96
f 78/78/78 96/96/96 95/95/95
f 79/79/79 80/80/80 97/97/97
f 79/79/79 97/97/97 96/96/96
f 80/80/80 81/81/81 98/98/98
f 80/80/80 98/98/98 97/97/97
f 81/81/81 82/82/82 99/99/99
f 81/81/81 99/99/99 98/98/98
f 82/82/82 83/83/83 100/100/100
f 82/82/82 100/100/100 99/99/99
f 83/83/83 84/84/84 101/101/101
f 83/83/83 101/101/101 100/100/100
f 84/84/84 85/85/85 102/102/102
f 84/84/84 102/102/102 101/101/101
f 86/87/87 87/86/86 104/103/103
f 86/87/87 104/103/103 103/104/104
f 87/86/86 88/88/88 105/105/105
f 87/86/86 105/105/105 104/103/103
f 88/88/88 89/89/89 106/106/106
f 88/88/88 106/106/106 105/105/105
f 89/89/89 90/90/90 107/107/107
f 89/89/89 107/107/107 106/106/106
f 90/90/90 91/91/91 108/108/108
f 90/90/90 108/108/108 107/107/107
f 91/91/91 92/92/92 109/109/109
f 91/91/91 109/109/109 108/108/108
f 92/92/92 93/93/93 110/110/110
f 92/92/92 110/110/110 109/109/109
f 93/93/93 94/94/94 111/111/111
f 93/93/93 111/111/111 110/110/110
f 94/94/94 95/95/95 112/112/112
f 94/94/94 112/112/112 111/111/111
f 95/95/95 96/96/96 113/113/113
f 95/95/95 113/113/113 112/112/112
f 96/96/96 97/97/97 114/114/114
f 96/96/96 114/114/114 113/113/113
f 97/97/97 98/98/98 115/115/115
f 97/97/97 115/115/115 114/114/114
f 98/98/98 99/99/99 116/116/116
f 98/98/98 116/116/116 115/115/115
f 99/99/99 100/100/100 117/117/117
f 99/99/99 117/117/117 116/116/116
f 100/100/100 101/101/101 118/118/118
f 100/100/100 118/118/118 117/117/117
f 101/101/101 102/102/102 119/119/119
f 101/101/101 119/119/119 118/118/118
f 103/104/104 104/103/103 121/120/120
f 103/104/104 121/120/120 120/121/121
f 104/103/103 105/105/105 122/122/122
f 104/103/103 122/122/122 121/120/120
f 105/105/105 106/106/106 123/123/123
f 105/105/105 123/123/123 122/122/122
f 106/106/106 107/107/107 124/124/124
f 106/106/106 124/124/124 123/123/123
f 107/107/107 108/108/108 125/125/125
f 107/107/107 125/125/125 124/124/124
f 108/108/108 109/109/109 126/126/126
f 108/108/108 126/126/126 125/125/125
f 109/109/109 110/110/110 127/127/127
f 109/109/109 127/127/127 126/126/126
f 110/110/110 111/111/111 128/128/128
f 110/110/110 128/128/128 127/127/127
f 111/111/111 112/112/112 129/129/129
f 111/111/111 129/129/129 128/128/128
f 112/112/112 113/113/113 130/130/130
f 112/112/112 130/130/130 129/129/129
f 113/113/113 114/114/114 131/131/131
f 113/113/113 131/131/131 130/130/130
f 114/114/114 115/115/115 132/132/132
f 114/114/114 132/132/132 131/131/131
f 115/115/115 116/116/116 133/133/133
f 115/115/115 133/133/133 132/132/132
f 116/116/116 117/117/117 134/134/134
f 116/116/116 134/134/134 133/133/133
f 117/117/117 118/118/118 135/135/135
f 117/117/117 135/135/135 134/134/134
f 118/118/118 119/119/119 136/136/136
f 118/118/118 136/136/136 135/135/135
f 120/121/121 121/120/120 138/137/137
f 120/121/121 138/137/137 137/138/138
f 121/120/120 122/122/122 139/139/139
f 121/120/120 139/139/139 138/137/137
f 122/122/122 123/123/123 140/140/140
f 122/122/122 140/140/140 139/139/139
f 123/123/123 124/124/124 141/141/141
f 123/123/123 141/141/141 140/140/140
f 124/124/124 125/125/125 142/142/142
f 124/124/124 142/142/142 141/141/141
f 125/125/125 126/126/126 143/143/143
f 125/125/125 143/143/143 142/142/142
f 126/126/126 127/127/127 144/144/144
f 126/126/126 144/144/144 143/143/143
f 127/127/127 128/128/128 145/145/145
f 127/127/127 145/145/145 144/144/144
f 128/128/128 129/129/129 146/146/146
f 128/128/128 146/146/146 145/145/145
f 129/129/129 130/130/130 147/147/147
f 129/129/129 147/147/147 146/146/146
f 130/130/130 131/131/131 148/148/148
f 130/130/130 148/148/148 147/147/147
f 131/131/131 132/132/132 149/149/149
f 131/131/131 149/149/149 148/148/148
f 132/132/132 133/133/133 150/150/150
f 132/132/132 150/150/150 149/149/149
f 133/133/133 134/134/134 151/151/151
f 133/133/133 151/151/151 150/150/150
f 134/134/134 135/135/135 152/152/152
f 134/134/134 152/152/152 151/151/151
f 135/135/135 136/136/136 153/153/153
f 135/135/135 153/153/153 152/152/152
f 137/138/138 138/137/137 155/154/154
f 137/138/138 155/154/154 154/155/155
f 138/137/137 139/139/139 156/156/156
f 138/137/137 156/156/156 155/154/154
f 139/139/139 140/140/140 157/157/157
f 139/139/139 157/157/157 156/156/156
f 140/140/140 141/141/141 158/158/158
f 140/140/140 158/158/158 157/157/157
f 141/141/141 142/142/142 159/159/159
f 141/141/141 159/159/159 158/158/158
f 142/142/142 143/143/143 160/160/160
f 142/142/142 160/160/160 159/159/159
f 143/143/143 144/144/144 161/161/161
f 143/143/143 161/161/161 160/160/160
f 144/144/144 145/145/145 162/162/162
f 144/144/144 162/162/162 161/161/161
f 145/145/145 146/146/146 163/163/163
f 145/145/145 163/163/163 162/162/162
f 146/146/146 147/147/147 164/164/164
f 146/146/146 164/164/164 163/163/163
f 147/147/147 148/148/148 165/165/165
f 147/147/147 165/165/165 164/164/164
f 148/148/148 149/149/149 166/166/166
f 148/148/148 166/166/166 165/165/165
f 149/149/149 150/150/150 167/167/167
f 149/149/149 167/167/167 166/166/166
f 150/150/150 151/151/151 168/168/168
f 150/150/150 168/168/168 167/167/167
f 151/151/151 152/152/152 169/169/169
f 151/151/151 169/169/169 168/168/168
f 152/152/152 153/153/153 170/170/170
f 152/152/152 170/170/170 169/169/169
f 154/155/155 155/154/154 172/171/171
f 154/155/155 172/171/171 171/172/172
f 155/154/154 156/156/156 173/173/173
f 155/154/154 173/173/173 172/171/171
f 156/156/156 157/157/157 174/174/174
f 156/156/156 174/174/174 173/173/173
f 157/157/157 158/158/158 175/175/175
f 157/157/157 175/175/175 174/174/174
f 158/158/158 159/159/159 176/176/176
f 158/158/158 176/176/176 175/175/175
f 159/159/159 160/160/160 177/177/177
f 159/159/159 177/177/177 176/176/176
f 160/160/160 161/161/161 178/178/178
f 160/160/160 178/178/178 177/177/177
f 161/161/161 162/162/162 179/179/179
f 161/161/161 179/179/179 178/178/178
f 162/162/162 163/163/163 180/180/180
f 162/162/162 180/180/180 179/179/179
f 163/163/163 164/164/164 181/181/181
f 163/163/163 181/181/181 180/180/180
f 164/164/164 165/165/165 182/182/182
f 164/164/164 182/182/182 181/181/181
f 165/165/165 166/166/166 183/183/183
f 165/165/165 183/183/183 182/182/182
f 166/166/166 167/167/167 184/184/184
f 166/166/166 184/184/184 183/183/183
f 167/167/167 168/168/168 185/185/185
f 167/167/167 185/185/185 184/184/184
f 168/168/168 169/169/169 186/186/186
f 168/168/168 186/186/186 185/185/185
f 169/169/169 170/170/170 187/187/187
f 169/169/169 187/187/187 186/186/186
f 171/172/172 172/171/171 189/188/188
f 171/172/172 189/188/188 188/189/189
f 172/171/171 173/173/173 190/190/190
f 172/171/171 190/190/190 189/188/188
f 173/173/173 174/174/174 191/191/191
f 173/173/173 191/191/191 190/190/190
f 174/174/174 175/175/175 192/192/192
f 174/174/174 192/192/192 191/191/191
f 175/175/175 176/176/176 193/193/193
f 175/175/175 193/193/193 192/192/192
f 176/176/176 177/177/177 194/194/194
f 176/176/176 194/194/194 193/193/193
f 177/177/177 178/178/178 195/195/195
f 177/177/177 195/195/195 194/194/194
f 178/178/178 179/179/179 196/196/196
f 178/178/178 196/196/196 195/195/195
f 179/179/179 180/180/180 197/197/197
f 179/179/179 197/197/197 196/196/196
f 180/180/180 181/181/181 198/198/198
f 180/180/180 198/198/198 197/197/197
f 181/181/181 182/182/182 199/199/199
f 181/181/181 199/199/199 198/198/198
f 182/182/182 183/183/183 200/200/200
f 182/182/182 200/200/200 199/199/199
f 183/183/183 184/184/184 201/201/201
f 183/183/183 201/201/201 200/200/200
f 184/184/184 185/185/185 202/202/202
f 184/184/184 202/202/202 201/201/201
f 185/185/185 186/186/186 203/203/203
f 185/185/185 203/203/203 202/202/202
f 186/186/186 187/187/187 204/204/204
f 186/186/186 204/204/204 203/203/203
f 188/189/189 189/188/188 206/205/205
f 188/189/189 206/205/205 205/206/206
f 189/188/188 190/190/190 207/207/207
f 189/188/188 207/207/207 206/205/205
f 190/190/190 191/191/191 208/208/208
f 190/190/190 208/208/208 207/207/207
f 191/191/191 192/192/192 209/209/209
f 191/191/191 209/209/209 208/208/208
f 192/192/192 193/193/193 210/210/210
f 192/192/192 210/210/210 209/209/209
f 193/193/193 194/194/194 211/211/211
f 193/193/193 211/211/211 210/210/210
f 194/194/194 195/195/195 212/212/212
f 194/194/194 212/212/212 211/211/211
f 195/195/195 196/196/196 213/213/213
f 195/195/195 213/213/213 212/212/212
f 196/196/196 197/197/197 214/214/214
f 196/196/196 214/214/214 213/213/213
f 197/197/197 198/198/198 215/215/215
f 197/197/197 215/215/215 214/214/214
f 198/198/198 199/199/199 216/216/216
f 198/198/198 216/216/216 215/215/215
f 199/199/199 200/200/200 217/217/217
f 199/199/199 217/217/217 216/216/216
f 200/200/200 201/201/201 218/218/218
f 200/200/200 218/218/218 217/217/217
f 201/201/201 202/202/202 219/219/219
f 201/201/201 219/219/219 218/218/218
f 202/202/202 203/203/203 220/220/220
f 202/202/202 220/220/220 219/219/219
f 203/203/203 204/204/204 221/221/221
f 203/203/203 221/221/221 220/220/220
f 205/206/206 206/205/205 223/222/222
f 205/206/206 223/222/222 222/223/223
f 206/205/205 207/207/207 224/224/224
f 206/205/205 224/224/224 223/222/222
f 207/207/207 208/208/208 225/225/225
f 207/207/207 225/225/225 224/224/224
f 208/208/208 209/209/209 226/226/226
f 208/208/208 226/226/226 225/225/225
f 209/209/209 210/210/210 227/227/227
f 209/209/209 227/227/227 226/226/226
f 210/210/210 211/211/211 228/228/228
f 210/210/210 228/228/228 227/227/227
f 211/211/211 212/212/212 229/229/229
f 211/211/211 229/229/229 228/228/228
f 212/212/212 213/213/213 230/230/230
f 212/212/212 230/230/230 229/229/229
f 213/213/213 214/214/214 231/231/231
f 213/213/213 231/231/231 230/230/230
f 214/214/214 215/215/215 232/232/232
f 214/214/214 232/232/232 231/231/231
f 215/215/215 216/216/216 233/233/233
f 215/215/215 233/233/233 232/232/232
f 216/216/216 217/217/217 234/234/234
f 216/216/216 234/234/234 233/233/233
f 217/217/217 218/218/218 235/235/235
f 217/217/217 235/235/235 234/234/234
f 218/218/218 219/219/219 236/236/236
f 218/218/218 236/236/236 235/235/235
f 219/219/219 220/220/220 237/237/237
f 219/219/219 237/237/237 236/236/236
f 220/220/220 221/221/221 238/238/238
f 220/220/220 238/238/238 237/237/237
f 222/223/223 223/222/222 240/239/239
f 222/223/223 240/239/239 239/240/240
f 223/222/222 224/224/224 241/241/241
f 223/222/222 241/241/241 240/239/239
f 224/224/224 225/225/225 242/242/242
f 224/224/224 242/242/242 241/241/241
f 225/225/225 226/226/226 243/243/243
f 225/225/225 243/243/243 242/242/242
f 226/226/226 227/227/227 244/244/244
f 226/226/226 244/244/244 243/243/243
f 227/227/227 228/228/228 245/245/245
f 227/227/227 245/245/245 244/244/244
f 228/228/228 229/229/229 246/246/246
f 228/228/228 246/246/246 245/245/245
f 229/229/229 230/230/230 247/247/247
f 229/229/229 247/247/247 246/246/246
f 230/230/230 231/231/231 248/248/248
f 230/230/230 248/248/248 247/247/247
f 231/231/231 232/232/232 249/249/249
f 231/231/231 249/249/249 248/248/248
f 232/232/232 233/233/233 250/250/250
f 232/232/232 250/250/250 249/249/249
f 233/233/233 234/234/234 251/251/251
f 233/233/233 251/251/251 250/250/250
f 234/234/234 235/235/235 252/252/252
f 234/234/234 252/252/252 251/251/251
f 235/235/235 236/236/236 253/253/253
f 235/235/235 253/253/253 252/252/252
f 236/236/236 237/237/237 254/254/254
f 236/236/236 254/254/254 253/253/253
f 237/237/237 238/238/238 255/255/255
f 237/237/237 255/255/255 254/254/254
f 239/240/240 240/239/239 257/256/256
f 239/240/240 257/256/256 256/257/257
f 240/239/239 241/241/241 258/258/258
f 240/239/239 258/258/258 257/256/256
f 241/241/241 242/242/242 259/259/259
f 241/241/241 259/259/259 258/258/258
f 242/242/242 243/243/243 260/260/260
f 242/242/242 260/260/260 259/259/259
f 243/243/243 244/244/244 261/261/261
f 243/243/243 261/261/261 260/260/260
f 244/244/244 245/245/245 262/262/262
f 244/244/244 262/262/262 261/261/261
f 245/245/245 246/246/246 263/263/263
f 245/245/245 263/263/263 262/262/262
f 246/246/246 247/247/247 264/264/264
f 246/246/246 264/264/264 263/263/263
f 247/247/247 248/248/248 265/265/265
f 247/247/247 265/265/265 264/264/264
f 248/248/248 249/249/249 266/266/266
f 248/248/248 266/266/266 265/265/265
f 249/249/249 250/250/250 267/267/267
f 249/249/249 267/267/267 266/266/266
f 250/250/250 251/251/251 268/268/268
f 250/250/250 268/268/268 267/267/267
f 251/251/251 252/252/252 269/269/269
f 251/251/251 269/269/269 268/268/268
f 252/252/252 253/253/253 270/270/270
f 252/252/252 270/270/270 269/269/269
f 253/253/253 254/254/254 271/271/271
f 253/253/253 271/271/271 270/270/270
f 254/254/254 255/255/255 272/272/272
f 254/254/254 272/272/272 271/271/271
f 256/257/257 257/256/256 274/273/273
f 256/257/257 274/273/273 273/274/274
f 257/256/256 258/258/258 275/275/275
f 257/256/256 275/275/275 274/273/273
f 258/258/258 259/259/259 276/276/276
f 258/258/258 276/276/276 275/275/275
f 259/259/259 260/260/260 277/277/277
f 259/259/259 277/277/277 276/276/276
f 260/260/260 261/261/261 278/278/278
f 260/260/260 278/278/278 277/277/277
f 261/261/261 262/262/262 279/279/279
f 261/261/261 279/279/279 278/278/278
f 262/262/262 263/263/263 280/280/280
f 262/262/262 280/280/280 279/279/279
f 263/263/263 264/264/264 281/281/281
f 263/263/263 281/281/281 280/280/280
f 264/264/264 265/265/265 282/282/282
f 264/264/264 282/282/282 281/281/281
f 265/265/265 266/266/266 283/283/283
f 265/265/265 283/283/283 282/282/282
f 266/266/266 267/267/267 284/284/284
f 266/266/266 284/284/284 283/283/283
f 267/267/267 268/268/268 285/285/285
f 267/267/267 285/285/285 284/284/284
f 268/268/268 269/269/269 286/286/286
f 268/268/268 286/286/286 285/285/285
f 269/269/269 270/270/270 287/287/287
f 269/269/269 287/287/287 286/286/286
f 270/270/270 271/271/271 288/288/288
f 270/270/270 288/288/288 287/287/287
f 271/271/271 272/272/272 289/289/289
f 271/271/271 289/289/289 288/288/288
