mtllib terrain_far_04_04.mtl
usemtl terrain_far_04_04
# Blender 5.1.1
# www.blender.org
o terrain_far_04_04
v -144.000000 -144.000000 69.598572
v -72.000000 -144.000000 42.268009
v 0.000000 -144.000000 8.145755
v 72.000000 -144.000000 -22.093626
v 144.000000 -144.000000 -9.523313
v -144.000000 -72.000000 59.627995
v -72.000000 -72.000000 36.046024
v 0.000000 -72.000000 2.899233
v 72.000000 -72.000000 -24.854979
v 144.000000 -72.000000 -33.752132
v -144.000000 0.000000 33.948002
v -72.000000 0.000000 10.553103
v 0.000000 0.000000 -17.525511
v 72.000000 0.000000 -28.298582
v 144.000000 0.000000 -39.080624
v -144.000000 72.000000 21.673403
v -72.000000 72.000000 1.150454
v 0.000000 72.000000 -15.611203
v 72.000000 72.000000 -28.777403
v 144.000000 72.000000 -36.492367
v -144.000000 144.000000 16.086061
v -72.000000 144.000000 1.493350
v 0.000000 144.000000 -8.872861
v 72.000000 144.000000 -14.917539
v 144.000000 144.000000 -23.689817
vn 0.2746 0.0283 0.9611
vn 0.3924 -0.0169 0.9196
vn 0.3591 0.2007 0.9115
vn 0.2201 0.2344 0.9469
vn 0.4079 -0.0267 0.9126
vn 0.3844 0.1620 0.9089
vn 0.1202 0.1604 0.9797
vn 0.2464 0.0417 0.9683
vn -0.1751 0.3790 0.9087
vn 0.0351 0.2009 0.9790
vn 0.3282 0.2225 0.9180
vn 0.2643 0.2458 0.9326
vn 0.2585 0.1232 0.9581
vn 0.1478 0.0272 0.9886
vn 0.1868 0.0187 0.9822
vn 0.2502 0.0608 0.9663
vn 0.3238 0.1165 0.9389
vn 0.2031 -0.0586 0.9774
vn 0.1429 -0.0916 0.9855
vn 0.1226 -0.1055 0.9868
vn 0.1707 -0.0370 0.9846
vn 0.2520 -0.0107 0.9677
vn 0.1127 -0.1008 0.9885
vn 0.1002 -0.2056 0.9735
vn 0.1067 -0.2000 0.9740
vt 0.031250 0.031250
vt 0.265625 0.031250
vt 0.265625 0.265625
vt 0.031250 0.265625
vt 0.500000 0.031250
vt 0.500000 0.265625
vt 0.734375 0.031250
vt 0.734375 0.265625
vt 0.968750 0.031250
vt 0.968750 0.265625
vt 0.265625 0.500000
vt 0.031250 0.500000
vt 0.500000 0.500000
vt 0.734375 0.500000
vt 0.968750 0.500000
vt 0.265625 0.734375
vt 0.031250 0.734375
vt 0.500000 0.734375
vt 0.734375 0.734375
vt 0.968750 0.734375
vt 0.265625 0.968750
vt 0.031250 0.968750
vt 0.500000 0.968750
vt 0.734375 0.968750
vt 0.968750 0.968750
s 1
f 1/1/1 2/2/2 7/3/3
f 1/1/1 7/3/3 6/4/4
f 2/2/2 3/5/5 8/6/6
f 2/2/2 8/6/6 7/3/3
f 3/5/5 4/7/7 9/8/8
f 3/5/5 9/8/8 8/6/6
f 4/7/7 5/9/9 10/10/10
f 4/7/7 10/10/10 9/8/8
f 6/4/4 7/3/3 12/11/11
f 6/4/4 12/11/11 11/12/12
f 7/3/3 8/6/6 13/13/13
f 7/3/3 13/13/13 12/11/11
f 8/6/6 9/8/8 14/14/14
f 8/6/6 14/14/14 13/13/13
f 9/8/8 10/10/10 15/15/15
f 9/8/8 15/15/15 14/14/14
f 11/12/12 12/11/11 17/16/16
f 11/12/12 17/16/16 16/17/17
f 12/11/11 13/13/13 18/18/18
f 12/11/11 18/18/18 17/16/16
f 13/13/13 14/14/14 19/19/19
f 13/13/13 19/19/19 18/18/18
f 14/14/14 15/15/15 20/20/20
f 14/14/14 20/20/20 19/19/19
f 16/17/17 17/16/16 22/21/21
f 16/17/17 22/21/21 21/22/22
f 17/16/16 18/18/18 23/23/23
f 17/16/16 23/23/23 22/21/21
f 18/18/18 19/19/19 24/24/24
f 18/18/18 24/24/24 23/23/23
f 19/19/19 20/20/20 25/25/25
f 19/19/19 25/25/25 24/24/24
