mtllib terrain_mid_00_00.mtl
usemtl terrain_mid_00_00
# Blender 5.1.1
# www.blender.org
o terrain_mid_00_00
v -160.000000 -160.000000 -46.323025
v -140.000000 -160.000000 -37.969433
v -120.000000 -160.000000 -29.553385
v -100.000000 -160.000000 -22.160929
v -80.000000 -160.000000 -14.768473
v -60.000000 -160.000000 -8.321508
v -40.000000 -160.000000 -1.874545
v -20.000000 -160.000000 3.503772
v 0.000000 -160.000000 8.882088
v 20.000000 -160.000000 12.790552
v 40.000000 -160.000000 16.699017
v 60.000000 -160.000000 17.937708
v 80.000000 -160.000000 19.176399
v 100.000000 -160.000000 20.354704
v 120.000000 -160.000000 21.533007
v 140.000000 -160.000000 23.983276
v 160.000000 -160.000000 26.433548
v -160.000000 -140.000000 -44.578968
v -140.000000 -140.000000 -35.422981
v -120.000000 -140.000000 -27.428358
v -100.000000 -140.000000 -20.055792
v -80.000000 -140.000000 -12.953667
v -60.000000 -140.000000 -6.209336
v -40.000000 -140.000000 0.195917
v -20.000000 -140.000000 6.197402
v 0.000000 -140.000000 11.812589
v 20.000000 -140.000000 16.679626
v 40.000000 -140.000000 20.316841
v 60.000000 -140.000000 21.547092
v 80.000000 -140.000000 21.597935
v 100.000000 -140.000000 21.841520
v 120.000000 -140.000000 23.121454
v 140.000000 -140.000000 25.666960
v 160.000000 -140.000000 28.972494
v -160.000000 -120.000000 -43.085762
v -140.000000 -120.000000 -34.816723
v -120.000000 -120.000000 -27.135992
v -100.000000 -120.000000 -19.868103
v -80.000000 -120.000000 -12.950079
v -60.000000 -120.000000 -6.411186
v -40.000000 -120.000000 -0.062784
v -20.000000 -120.000000 5.975478
v 0.000000 -120.000000 11.660273
v 20.000000 -120.000000 16.734444
v 40.000000 -120.000000 20.655315
v 60.000000 -120.000000 22.256308
v 80.000000 -120.000000 22.628582
v 100.000000 -120.000000 23.213028
v 120.000000 -120.000000 24.709717
v 140.000000 -120.000000 27.291946
v 160.000000 -120.000000 30.923700
v -160.000000 -100.000000 -43.768082
v -140.000000 -100.000000 -35.600342
v -120.000000 -100.000000 -28.030062
v -100.000000 -100.000000 -20.685024
v -80.000000 -100.000000 -13.734760
v -60.000000 -100.000000 -7.410250
v -40.000000 -100.000000 -1.299567
v -20.000000 -100.000000 4.492914
v 0.000000 -100.000000 9.912185
v 20.000000 -100.000000 14.700996
v 40.000000 -100.000000 18.826471
v 60.000000 -100.000000 21.397943
v 80.000000 -100.000000 23.077068
v 100.000000 -100.000000 24.344307
v 120.000000 -100.000000 25.957012
v 140.000000 -100.000000 28.374296
v 160.000000 -100.000000 31.821793
v -160.000000 -80.000000 -45.175571
v -140.000000 -80.000000 -37.603779
v -120.000000 -80.000000 -29.981228
v -100.000000 -80.000000 -22.432671
v -80.000000 -80.000000 -15.433477
v -60.000000 -80.000000 -9.312926
v -40.000000 -80.000000 -3.533155
v -20.000000 -80.000000 1.955093
v 0.000000 -80.000000 7.058961
v 20.000000 -80.000000 11.825888
v 40.000000 -80.000000 16.567139
v 60.000000 -80.000000 20.608685
v 80.000000 -80.000000 23.377022
v 100.000000 -80.000000 25.191013
v 120.000000 -80.000000 26.812420
v 140.000000 -80.000000 29.107714
v 160.000000 -80.000000 32.327991
v -160.000000 -60.000000 -48.337265
v -140.000000 -60.000000 -40.614109
v -120.000000 -60.000000 -32.917488
v -100.000000 -60.000000 -25.426628
v -80.000000 -60.000000 -18.630486
v -60.000000 -60.000000 -12.705193
v -40.000000 -60.000000 -7.111531
v -20.000000 -60.000000 -1.698479
v 0.000000 -60.000000 3.645536
v 20.000000 -60.000000 9.236750
v 40.000000 -60.000000 15.228001
v 60.000000 -60.000000 20.652229
v 80.000000 -60.000000 23.990744
v 100.000000 -60.000000 25.603455
v 120.000000 -60.000000 27.147429
v 140.000000 -60.000000 29.551434
v 160.000000 -60.000000 32.640892
v -160.000000 -40.000000 -52.083694
v -140.000000 -40.000000 -45.040356
v -120.000000 -40.000000 -37.586349
v -100.000000 -40.000000 -30.298861
v -80.000000 -40.000000 -23.457735
v -60.000000 -40.000000 -17.231783
v -40.000000 -40.000000 -11.134954
v -20.000000 -40.000000 -4.817111
v 0.000000 -40.000000 1.573012
v 20.000000 -40.000000 8.172092
v 40.000000 -40.000000 14.832344
v 60.000000 -40.000000 20.626486
v 80.000000 -40.000000 24.080608
v 100.000000 -40.000000 25.508783
v 120.000000 -40.000000 26.789532
v 140.000000 -40.000000 28.971640
v 160.000000 -40.000000 31.883383
v -160.000000 -20.000000 -53.888515
v -140.000000 -20.000000 -50.393799
v -120.000000 -20.000000 -43.624756
v -100.000000 -20.000000 -36.615444
v -80.000000 -20.000000 -29.229383
v -60.000000 -20.000000 -21.991529
v -40.000000 -20.000000 -14.818806
v -20.000000 -20.000000 -7.345804
v 0.000000 -20.000000 0.326776
v 20.000000 -20.000000 7.688925
v 40.000000 -20.000000 14.329700
v 60.000000 -20.000000 19.809530
v 80.000000 -20.000000 23.204149
v 100.000000 -20.000000 24.680210
v 120.000000 -20.000000 25.849766
v 140.000000 -20.000000 27.805069
v 160.000000 -20.000000 30.626404
v -160.000000 0.000000 -55.046131
v -140.000000 0.000000 -53.388840
v -120.000000 0.000000 -48.631367
v -100.000000 0.000000 -41.794941
v -80.000000 0.000000 -33.483608
v -60.000000 0.000000 -25.355637
v -40.000000 0.000000 -17.457491
v -20.000000 0.000000 -9.445488
v 0.000000 0.000000 -1.465752
v 20.000000 0.000000 5.940729
v 40.000000 0.000000 12.461826
v 60.000000 0.000000 17.646912
v 80.000000 0.000000 21.067364
v 100.000000 0.000000 22.966722
v 120.000000 0.000000 24.456211
v 140.000000 0.000000 26.567900
v 160.000000 0.000000 29.530342
v -160.000000 20.000000 -51.755730
v -140.000000 20.000000 -53.035629
v -120.000000 20.000000 -50.361973
v -100.000000 20.000000 -44.192749
v -80.000000 20.000000 -35.980198
v -60.000000 20.000000 -27.500807
v -40.000000 20.000000 -19.226189
v -20.000000 20.000000 -11.043911
v 0.000000 20.000000 -3.148905
v 20.000000 20.000000 4.179987
v 40.000000 20.000000 10.664145
v 60.000000 20.000000 15.885540
v 80.000000 20.000000 19.603462
v 100.000000 20.000000 22.014656
v 120.000000 20.000000 23.913778
v 140.000000 20.000000 26.241362
v 160.000000 20.000000 29.327082
v -160.000000 40.000000 -46.982655
v -140.000000 40.000000 -48.611050
v -120.000000 40.000000 -47.308907
v -100.000000 40.000000 -42.805149
v -80.000000 40.000000 -35.627495
v -60.000000 40.000000 -27.531975
v -40.000000 40.000000 -19.177856
v -20.000000 40.000000 -10.928982
v 0.000000 40.000000 -3.122178
v 20.000000 40.000000 4.191834
v 40.000000 40.000000 10.703011
v 60.000000 40.000000 16.030912
v 80.000000 40.000000 19.944317
v 100.000000 40.000000 22.622980
v 120.000000 40.000000 24.587540
v 140.000000 40.000000 26.750422
v 160.000000 40.000000 29.795120
v -160.000000 60.000000 -42.111069
v -140.000000 60.000000 -43.699253
v -120.000000 60.000000 -42.339462
v -100.000000 60.000000 -37.746349
v -80.000000 60.000000 -30.608356
v -60.000000 60.000000 -22.418489
v -40.000000 60.000000 -14.041917
v -20.000000 60.000000 -5.845309
v 0.000000 60.000000 1.920845
v 20.000000 60.000000 9.107776
v 40.000000 60.000000 15.363621
v 60.000000 60.000000 20.144688
v 80.000000 60.000000 23.252327
v 100.000000 60.000000 25.268114
v 120.000000 60.000000 26.455832
v 140.000000 60.000000 27.832989
v 160.000000 60.000000 30.557285
v -160.000000 80.000000 -37.206650
v -140.000000 80.000000 -39.073479
v -120.000000 80.000000 -37.160000
v -100.000000 80.000000 -32.096176
v -80.000000 80.000000 -24.659517
v -60.000000 80.000000 -16.355209
v -40.000000 80.000000 -8.073520
v -20.000000 80.000000 -0.101670
v 0.000000 80.000000 7.537321
v 20.000000 80.000000 14.616253
v 40.000000 80.000000 20.605835
v 60.000000 80.000000 24.801086
v 80.000000 80.000000 27.265245
v 100.000000 80.000000 28.559618
v 120.000000 80.000000 29.014786
v 140.000000 80.000000 29.548260
v 160.000000 80.000000 31.719843
v -160.000000 100.000000 -33.803326
v -140.000000 100.000000 -35.310005
v -120.000000 100.000000 -33.058071
v -100.000000 100.000000 -27.623079
v -80.000000 100.000000 -20.033968
v -60.000000 100.000000 -11.807074
v -40.000000 100.000000 -3.771355
v -20.000000 100.000000 3.883369
v 0.000000 100.000000 11.268379
v 20.000000 100.000000 18.353388
v 40.000000 100.000000 24.178135
v 60.000000 100.000000 28.270712
v 80.000000 100.000000 30.568537
v 100.000000 100.000000 31.472237
v 120.000000 100.000000 31.310575
v 140.000000 100.000000 31.288162
v 160.000000 100.000000 32.858990
v -160.000000 120.000000 -30.900373
v -140.000000 120.000000 -32.308411
v -120.000000 120.000000 -30.029953
v -100.000000 120.000000 -24.927347
v -80.000000 120.000000 -17.823519
v -60.000000 120.000000 -10.111646
v -40.000000 120.000000 -2.600083
v -20.000000 120.000000 4.578648
v 0.000000 120.000000 11.700521
v 20.000000 120.000000 18.818232
v 40.000000 120.000000 24.791809
v 60.000000 120.000000 29.125605
v 80.000000 120.000000 31.555597
v 100.000000 120.000000 32.359837
v 120.000000 120.000000 31.943529
v 140.000000 120.000000 31.659410
v 160.000000 120.000000 32.719063
v -160.000000 140.000000 -29.885139
v -140.000000 140.000000 -29.937283
v -120.000000 140.000000 -27.699842
v -100.000000 140.000000 -23.190748
v -80.000000 140.000000 -16.904451
v -60.000000 140.000000 -9.823791
v -40.000000 140.000000 -2.643717
v -20.000000 140.000000 4.197789
v 0.000000 140.000000 10.792536
v 20.000000 140.000000 17.613920
v 40.000000 140.000000 23.510180
v 60.000000 140.000000 27.872763
v 80.000000 140.000000 30.247152
v 100.000000 140.000000 30.949579
v 120.000000 140.000000 30.602913
v 140.000000 140.000000 30.660421
v 160.000000 140.000000 31.715698
v -160.000000 160.000000 -29.499146
v -140.000000 160.000000 -28.489542
v -120.000000 160.000000 -26.145351
v -100.000000 160.000000 -22.346083
v -80.000000 160.000000 -16.987915
v -60.000000 160.000000 -10.371825
v -40.000000 160.000000 -3.144103
v -20.000000 160.000000 3.671144
v 0.000000 160.000000 9.565363
v 20.000000 160.000000 15.232368
v 40.000000 160.000000 20.616537
v 60.000000 160.000000 24.571175
v 80.000000 160.000000 26.473587
v 100.000000 160.000000 27.195604
v 120.000000 160.000000 27.446995
v 140.000000 160.000000 28.302668
v 160.000000 160.000000 29.983664
vn -0.3921 -0.1310 0.9106
vn -0.3890 -0.1213 0.9132
vn -0.3779 -0.0647 0.9236
vn -0.3807 -0.0844 0.9209
vn -0.3666 -0.1155 0.9232
vn -0.3582 -0.0500 0.9323
vn -0.3449 -0.1154 0.9315
vn -0.3399 -0.0438 0.9394
vn -0.3280 -0.1182 0.9373
vn -0.3269 -0.0359 0.9444
vn -0.3058 -0.1259 0.9437
vn -0.3121 -0.0314 0.9495
vn -0.2820 -0.1400 0.9491
vn -0.2961 -0.0345 0.9545
vn -0.2565 -0.1627 0.9527
vn -0.2786 -0.0438 0.9594
vn -0.2287 -0.1887 0.9550
vn -0.2531 -0.0579 0.9657
vn -0.1901 -0.2063 0.9599
vn -0.2074 -0.0733 0.9755
vn -0.1202 -0.2120 0.9698
vn -0.1204 -0.0859 0.9890
vn -0.0502 -0.1879 0.9809
vn -0.0319 -0.0888 0.9955
vn -0.0319 -0.1455 0.9888
vn -0.0073 -0.0847 0.9964
vn -0.0539 -0.1054 0.9930
vn -0.0380 -0.0805 0.9960
vn -0.0921 -0.0877 0.9919
vn -0.0949 -0.0820 0.9921
vn -0.1248 -0.1014 0.9870
vn -0.1442 -0.0887 0.9856
vn -0.1408 -0.1272 0.9818
vn -0.1612 -0.1094 0.9808
vn -0.3618 0.0041 0.9323
vn -0.3556 -0.0175 0.9345
vn -0.3500 0.0141 0.9366
vn -0.3342 0.0149 0.9424
vn -0.3186 0.0187 0.9477
vn -0.3066 0.0285 0.9514
vn -0.2957 0.0356 0.9546
vn -0.2810 0.0409 0.9588
vn -0.2595 0.0458 0.9647
vn -0.2188 0.0480 0.9746
vn -0.1367 0.0369 0.9899
vn -0.0493 0.0037 0.9988
vn -0.0239 -0.0369 0.9990
vn -0.0518 -0.0623 0.9967
vn -0.1012 -0.0704 0.9924
vn -0.1532 -0.0667 0.9859
vn -0.1887 -0.0698 0.9795
vn -0.3506 0.0651 0.9342
vn -0.3307 0.0520 0.9423
vn -0.3486 0.0665 0.9349
vn -0.3357 0.0604 0.9400
vn -0.3144 0.0589 0.9475
vn -0.2962 0.0691 0.9526
vn -0.2842 0.0829 0.9552
vn -0.2685 0.0964 0.9584
vn -0.2458 0.1108 0.9630
vn -0.2160 0.1189 0.9691
vn -0.1643 0.1003 0.9813
vn -0.1058 0.0407 0.9936
vn -0.0734 -0.0187 0.9971
vn -0.0717 -0.0493 0.9962
vn -0.1001 -0.0522 0.9936
vn -0.1450 -0.0449 0.9884
vn -0.1936 -0.0344 0.9805
vn -0.3464 0.1167 0.9308
vn -0.3195 0.1150 0.9406
vn -0.3523 0.1136 0.9290
vn -0.3397 0.1108 0.9340
vn -0.3095 0.1156 0.9438
vn -0.2828 0.1261 0.9508
vn -0.2685 0.1385 0.9533
vn -0.2532 0.1480 0.9560
vn -0.2369 0.1504 0.9598
vn -0.2293 0.1317 0.9644
vn -0.2136 0.0875 0.9730
vn -0.1678 0.0184 0.9857
vn -0.1138 -0.0227 0.9932
vn -0.0855 -0.0313 0.9958
vn -0.0974 -0.0296 0.9948
vn -0.1364 -0.0291 0.9902
vn -0.1876 -0.0201 0.9820
vn -0.3463 0.1715 0.9223
vn -0.3244 0.1673 0.9310
vn -0.3495 0.1750 0.9205
vn -0.3308 0.1820 0.9260
vn -0.2977 0.1877 0.9360
vn -0.2719 0.1869 0.9440
vn -0.2610 0.1802 0.9484
vn -0.2563 0.1613 0.9530
vn -0.2614 0.1312 0.9563
vn -0.2770 0.0874 0.9569
vn -0.2743 0.0417 0.9608
vn -0.2140 -0.0004 0.9768
vn -0.1228 -0.0175 0.9923
vn -0.0786 -0.0079 0.9969
vn -0.0982 0.0006 0.9952
vn -0.1361 0.0034 0.9907
vn -0.1755 0.0109 0.9844
vn -0.3317 0.2241 0.9164
vn -0.3058 0.1943 0.9321
vn -0.3352 0.2436 0.9101
vn -0.3220 0.2550 0.9117
vn -0.3011 0.2443 0.9218
vn -0.2875 0.2166 0.9330
vn -0.2915 0.1810 0.9393
vn -0.3001 0.1333 0.9445
vn -0.3079 0.0787 0.9482
vn -0.3145 0.0368 0.9486
vn -0.2972 0.0215 0.9546
vn -0.2252 0.0205 0.9741
vn -0.1212 0.0195 0.9924
vn -0.0677 0.0229 0.9974
vn -0.0862 0.0323 0.9958
vn -0.1262 0.0432 0.9911
vn -0.1609 0.0496 0.9857
vn -0.2957 0.1952 0.9351
vn -0.2404 0.1058 0.9649
vn -0.3151 0.2526 0.9148
vn -0.3269 0.2611 0.9083
vn -0.3343 0.2291 0.9142
vn -0.3329 0.1877 0.9241
vn -0.3401 0.1468 0.9289
vn -0.3521 0.1076 0.9297
vn -0.3510 0.0710 0.9337
vn -0.3299 0.0526 0.9425
vn -0.2895 0.0567 0.9555
vn -0.2160 0.0725 0.9737
vn -0.1205 0.0746 0.9899
vn -0.0659 0.0633 0.9958
vn -0.0778 0.0580 0.9953
vn -0.1184 0.0596 0.9912
vn -0.1570 0.0580 0.9859
vn -0.1912 0.0647 0.9794
vn -0.1004 -0.0741 0.9922
vn -0.2748 0.1597 0.9481
vn -0.3487 0.1744 0.9209
vn -0.3756 0.1542 0.9139
vn -0.3689 0.1268 0.9208
vn -0.3677 0.1019 0.9243
vn -0.3699 0.0855 0.9251
vn -0.3579 0.0809 0.9303
vn -0.3276 0.0826 0.9412
vn -0.2798 0.0876 0.9561
vn -0.2094 0.0955 0.9732
vn -0.1313 0.0889 0.9873
vn -0.0842 0.0663 0.9942
vn -0.0894 0.0483 0.9948
vn -0.1254 0.0389 0.9913
vn -0.1720 0.0320 0.9846
vn -0.0724 -0.1183 0.9903
vn 0.0399 -0.2210 0.9744
vn -0.2157 -0.0323 0.9759
vn -0.3382 0.0238 0.9408
vn -0.3846 0.0494 0.9217
vn -0.3858 0.0502 0.9212
vn -0.3802 0.0397 0.9241
vn -0.3727 0.0344 0.9273
vn -0.3554 0.0387 0.9339
vn -0.3262 0.0413 0.9444
vn -0.2807 0.0421 0.9589
vn -0.2179 0.0394 0.9752
vn -0.1512 0.0279 0.9881
vn -0.1071 0.0086 0.9942
vn -0.1051 -0.0033 0.9945
vn -0.1341 -0.0045 0.9910
vn -0.1796 -0.0065 0.9837
vn -0.0014 -0.2273 0.9738
vn 0.1111 -0.2684 0.9569
vn -0.1409 -0.1947 0.9707
vn -0.2770 -0.1529 0.9486
vn -0.3539 -0.1245 0.9270
vn -0.3777 -0.1167 0.9185
vn -0.3806 -0.1188 0.9171
vn -0.3698 -0.1198 0.9214
vn -0.3511 -0.1177 0.9289
vn -0.3245 -0.1156 0.9388
vn -0.2820 -0.1119 0.9529
vn -0.2239 -0.1032 0.9691
vn -0.1619 -0.0896 0.9827
vn -0.1150 -0.0804 0.9901
vn -0.1025 -0.0631 0.9927
vn -0.1290 -0.0394 0.9909
vn -0.1763 -0.0303 0.9839
vn 0.0067 -0.2319 0.9727
vn 0.1467 -0.2409 0.9594
vn -0.1428 -0.2434 0.9594
vn -0.2726 -0.2490 0.9294
vn -0.3467 -0.2481 0.9046
vn -0.3705 -0.2499 0.8946
vn -0.3708 -0.2484 0.8949
vn -0.3594 -0.2438 0.9008
vn -0.3394 -0.2419 0.9090
vn -0.3092 -0.2398 0.9203
vn -0.2587 -0.2321 0.9377
vn -0.1891 -0.2103 0.9592
vn -0.1250 -0.1786 0.9760
vn -0.0788 -0.1462 0.9861
vn -0.0632 -0.1094 0.9920
vn -0.1018 -0.0694 0.9924
vn -0.1652 -0.0474 0.9851
vn -0.0040 -0.2052 0.9787
vn 0.1640 -0.2089 0.9641
vn -0.1676 -0.2229 0.9603
vn -0.2899 -0.2348 0.9278
vn -0.3556 -0.2389 0.9036
vn -0.3720 -0.2380 0.8972
vn -0.3662 -0.2313 0.9013
vn -0.3546 -0.2210 0.9085
vn -0.3373 -0.2142 0.9167
vn -0.3033 -0.2146 0.9284
vn -0.2412 -0.2087 0.9478
vn -0.1610 -0.1965 0.9672
vn -0.0921 -0.1792 0.9795
vn -0.0432 -0.1532 0.9873
vn -0.0246 -0.1205 0.9924
vn -0.0673 -0.0859 0.9940
vn -0.1403 -0.0569 0.9885
vn -0.0083 -0.1668 0.9860
vn 0.1690 -0.1567 0.9731
vn -0.1859 -0.1724 0.9673
vn -0.3052 -0.1680 0.9374
vn -0.3632 -0.1570 0.9184
vn -0.3727 -0.1431 0.9168
vn -0.3622 -0.1264 0.9235
vn -0.3499 -0.1083 0.9305
vn -0.3386 -0.0974 0.9359
vn -0.3058 -0.0996 0.9469
vn -0.2394 -0.1011 0.9656
vn -0.1569 -0.1062 0.9819
vn -0.0792 -0.1064 0.9912
vn -0.0185 -0.0946 0.9953
vn 0.0046 -0.0730 0.9973
vn -0.0386 -0.0527 0.9979
vn -0.1041 -0.0248 0.9943
vn -0.0211 -0.1331 0.9909
vn 0.1406 -0.0985 0.9852
vn -0.1799 -0.1306 0.9750
vn -0.2902 -0.1054 0.9511
vn -0.3464 -0.0731 0.9352
vn -0.3554 -0.0464 0.9336
vn -0.3446 -0.0264 0.9384
vn -0.3365 -0.0072 0.9417
vn -0.3351 0.0115 0.9421
vn -0.3109 0.0176 0.9503
vn -0.2495 0.0162 0.9682
vn -0.1667 0.0098 0.9860
vn -0.0806 0.0080 0.9967
vn -0.0097 0.0131 0.9999
vn 0.0175 0.0177 0.9997
vn -0.0194 0.0157 0.9997
vn -0.0772 0.0285 0.9966
vn -0.0421 -0.0950 0.9946
vn 0.0927 -0.0483 0.9945
vn -0.1655 -0.0953 0.9816
vn -0.2600 -0.0622 0.9636
vn -0.3169 -0.0198 0.9483
vn -0.3358 0.0061 0.9419
vn -0.3308 0.0129 0.9436
vn -0.3183 0.0215 0.9477
vn -0.3176 0.0506 0.9469
vn -0.3019 0.0851 0.9495
vn -0.2472 0.1006 0.9637
vn -0.1650 0.1116 0.9800
vn -0.0761 0.1256 0.9892
vn -0.0088 0.1280 0.9917
vn 0.0072 0.1117 0.9937
vn -0.0277 0.0836 0.9961
vn -0.0742 0.0680 0.9949
vn -0.0696 -0.0077 0.9975
vn 0.0249 0.0504 0.9984
vn -0.1517 -0.0310 0.9879
vn -0.2231 -0.0141 0.9747
vn -0.2867 0.0237 0.9577
vn -0.3266 0.0526 0.9437
vn -0.3307 0.0590 0.9419
vn -0.3023 0.0566 0.9515
vn -0.2770 0.0695 0.9584
vn -0.2647 0.1113 0.9579
vn -0.2245 0.1581 0.9616
vn -0.1422 0.1930 0.9709
vn -0.0640 0.2081 0.9760
vn -0.0239 0.1953 0.9804
vn -0.0273 0.1568 0.9873
vn -0.0628 0.1221 0.9905
vn -0.0961 0.0990 0.9904
vt 0.015625 0.015625
vt 0.076172 0.015625
vt 0.076172 0.076172
vt 0.015625 0.076172
vt 0.136719 0.015625
vt 0.136719 0.076172
vt 0.197266 0.015625
vt 0.197266 0.076172
vt 0.257812 0.015625
vt 0.257812 0.076172
vt 0.318359 0.015625
vt 0.318359 0.076172
vt 0.378906 0.015625
vt 0.378906 0.076172
vt 0.439453 0.015625
vt 0.439453 0.076172
vt 0.500000 0.015625
vt 0.500000 0.076172
vt 0.560547 0.015625
vt 0.560547 0.076172
vt 0.621094 0.015625
vt 0.621094 0.076172
vt 0.681641 0.015625
vt 0.681641 0.076172
vt 0.742188 0.015625
vt 0.742188 0.076172
vt 0.802734 0.015625
vt 0.802734 0.076172
vt 0.863281 0.015625
vt 0.863281 0.076172
vt 0.923828 0.015625
vt 0.923828 0.076172
vt 0.984375 0.015625
vt 0.984375 0.076172
vt 0.076172 0.136719
vt 0.015625 0.136719
vt 0.136719 0.136719
vt 0.197266 0.136719
vt 0.257812 0.136719
vt 0.318359 0.136719
vt 0.378906 0.136719
vt 0.439453 0.136719
vt 0.500000 0.136719
vt 0.560547 0.136719
vt 0.621094 0.136719
vt 0.681641 0.136719
vt 0.742188 0.136719
vt 0.802734 0.136719
vt 0.863281 0.136719
vt 0.923828 0.136719
vt 0.984375 0.136719
vt 0.076172 0.197266
vt 0.015625 0.197266
vt 0.136719 0.197266
vt 0.197266 0.197266
vt 0.257812 0.197266
vt 0.318359 0.197266
vt 0.378906 0.197266
vt 0.439453 0.197266
vt 0.500000 0.197266
vt 0.560547 0.197266
vt 0.621094 0.197266
vt 0.681641 0.197266
vt 0.742188 0.197266
vt 0.802734 0.197266
vt 0.863281 0.197266
vt 0.923828 0.197266
vt 0.984375 0.197266
vt 0.076172 0.257812
vt 0.015625 0.257812
vt 0.136719 0.257812
vt 0.197266 0.257812
vt 0.257812 0.257812
vt 0.318359 0.257812
vt 0.378906 0.257812
vt 0.439453 0.257812
vt 0.500000 0.257812
vt 0.560547 0.257812
vt 0.621094 0.257812
vt 0.681641 0.257812
vt 0.742188 0.257812
vt 0.802734 0.257812
vt 0.863281 0.257812
vt 0.923828 0.257812
vt 0.984375 0.257812
vt 0.076172 0.318359
vt 0.015625 0.318359
vt 0.136719 0.318359
vt 0.197266 0.318359
vt 0.257812 0.318359
vt 0.318359 0.318359
vt 0.378906 0.318359
vt 0.439453 0.318359
vt 0.500000 0.318359
vt 0.560547 0.318359
vt 0.621094 0.318359
vt 0.681641 0.318359
vt 0.742188 0.318359
vt 0.802734 0.318359
vt 0.863281 0.318359
vt 0.923828 0.318359
vt 0.984375 0.318359
vt 0.076172 0.378906
vt 0.015625 0.378906
vt 0.136719 0.378906
vt 0.197266 0.378906
vt 0.257812 0.378906
vt 0.318359 0.378906
vt 0.378906 0.378906
vt 0.439453 0.378906
vt 0.500000 0.378906
vt 0.560547 0.378906
vt 0.621094 0.378906
vt 0.681641 0.378906
vt 0.742188 0.378906
vt 0.802734 0.378906
vt 0.863281 0.378906
vt 0.923828 0.378906
vt 0.984375 0.378906
vt 0.076172 0.439453
vt 0.015625 0.439453
vt 0.136719 0.439453
vt 0.197266 0.439453
vt 0.257812 0.439453
vt 0.318359 0.439453
vt 0.378906 0.439453
vt 0.439453 0.439453
vt 0.500000 0.439453
vt 0.560547 0.439453
vt 0.621094 0.439453
vt 0.681641 0.439453
vt 0.742188 0.439453
vt 0.802734 0.439453
vt 0.863281 0.439453
vt 0.923828 0.439453
vt 0.984375 0.439453
vt 0.076172 0.500000
vt 0.015625 0.500000
vt 0.136719 0.500000
vt 0.197266 0.500000
vt 0.257812 0.500000
vt 0.318359 0.500000
vt 0.378906 0.500000
vt 0.439453 0.500000
vt 0.500000 0.500000
vt 0.560547 0.500000
vt 0.621094 0.500000
vt 0.681641 0.500000
vt 0.742188 0.500000
vt 0.802734 0.500000
vt 0.863281 0.500000
vt 0.923828 0.500000
vt 0.984375 0.500000
vt 0.076172 0.560547
vt 0.015625 0.560547
vt 0.136719 0.560547
vt 0.197266 0.560547
vt 0.257812 0.560547
vt 0.318359 0.560547
vt 0.378906 0.560547
vt 0.439453 0.560547
vt 0.500000 0.560547
vt 0.560547 0.560547
vt 0.621094 0.560547
vt 0.681641 0.560547
vt 0.742188 0.560547
vt 0.802734 0.560547
vt 0.863281 0.560547
vt 0.923828 0.560547
vt 0.984375 0.560547
vt 0.076172 0.621094
vt 0.015625 0.621094
vt 0.136719 0.621094
vt 0.197266 0.621094
vt 0.257812 0.621094
vt 0.318359 0.621094
vt 0.378906 0.621094
vt 0.439453 0.621094
vt 0.500000 0.621094
vt 0.560547 0.621094
vt 0.621094 0.621094
vt 0.681641 0.621094
vt 0.742188 0.621094
vt 0.802734 0.621094
vt 0.863281 0.621094
vt 0.923828 0.621094
vt 0.984375 0.621094
vt 0.076172 0.681641
vt 0.015625 0.681641
vt 0.136719 0.681641
vt 0.197266 0.681641
vt 0.257812 0.681641
vt 0.318359 0.681641
vt 0.378906 0.681641
vt 0.439453 0.681641
vt 0.500000 0.681641
vt 0.560547 0.681641
vt 0.621094 0.681641
vt 0.681641 0.681641
vt 0.742188 0.681641
vt 0.802734 0.681641
vt 0.863281 0.681641
vt 0.923828 0.681641
vt 0.984375 0.681641
vt 0.076172 0.742188
vt 0.015625 0.742188
vt 0.136719 0.742188
vt 0.197266 0.742188
vt 0.257812 0.742188
vt 0.318359 0.742188
vt 0.378906 0.742188
vt 0.439453 0.742188
vt 0.500000 0.742188
vt 0.560547 0.742188
vt 0.621094 0.742188
vt 0.681641 0.742188
vt 0.742188 0.742188
vt 0.802734 0.742188
vt 0.863281 0.742188
vt 0.923828 0.742188
vt 0.984375 0.742188
vt 0.076172 0.802734
vt 0.015625 0.802734
vt 0.136719 0.802734
vt 0.197266 0.802734
vt 0.257812 0.802734
vt 0.318359 0.802734
vt 0.378906 0.802734
vt 0.439453 0.802734
vt 0.500000 0.802734
vt 0.560547 0.802734
vt 0.621094 0.802734
vt 0.681641 0.802734
vt 0.742188 0.802734
vt 0.802734 0.802734
vt 0.863281 0.802734
vt 0.923828 0.802734
vt 0.984375 0.802734
vt 0.076172 0.863281
vt 0.015625 0.863281
vt 0.136719 0.863281
vt 0.197266 0.863281
vt 0.257812 0.863281
vt 0.318359 0.863281
vt 0.378906 0.863281
vt 0.439453 0.863281
vt 0.500000 0.863281
vt 0.560547 0.863281
vt 0.621094 0.863281
vt 0.681641 0.863281
vt 0.742188 0.863281
vt 0.802734 0.863281
vt 0.863281 0.863281
vt 0.923828 0.863281
vt 0.984375 0.863281
vt 0.076172 0.923828
vt 0.015625 0.923828
vt 0.136719 0.923828
vt 0.197266 0.923828
vt 0.257812 0.923828
vt 0.318359 0.923828
vt 0.378906 0.923828
vt 0.439453 0.923828
vt 0.500000 0.923828
vt 0.560547 0.923828
vt 0.621094 0.923828
vt 0.681641 0.923828
vt 0.742188 0.923828
vt 0.802734 0.923828
vt 0.863281 0.923828
vt 0.923828 0.923828
vt 0.984375 0.923828
vt 0.076172 0.984375
vt 0.015625 0.984375
vt 0.136719 0.984375
vt 0.197266 0.984375
vt 0.257812 0.984375
vt 0.318359 0.984375
vt 0.378906 0.984375
vt 0.439453 0.984375
vt 0.500000 0.984375
vt 0.560547 0.984375
vt 0.621094 0.984375
vt 0.681641 0.984375
vt 0.742188 0.984375
vt 0.802734 0.984375
vt 0.863281 0.984375
vt 0.923828 0.984375
vt 0.984375 0.984375
s 1
f 1/1/1 2/2/2 19/3/3
f 1/1/1 19/3/3 18/4/4
f 2/2/2 3/5/5 20/6/6
f 2/2/2 20/6/6 19/3/3
f 3/5/5 4/7/7 21/8/8
f 3/5/5 21/8/8 20/6/6
f 4/7/7 5/9/9 22/10/10
f 4/7/7 22/10/10 21/8/8
f 5/9/9 6/11/11 23/12/12
f 5/9/9 23/12/12 22/10/10
f 6/11/11 7/13/13 24/14/14
f 6/11/11 24/14/14 23/12/12
f 7/13/13 8/15/15 25/16/16
f 7/13/13 25/16/16 24/14/14
f 8/15/15 9/17/17 26/18/18
f 8/15/15 26/18/18 25/16/16
f 9/17/17 10/19/19 27/20/20
f 9/17/17 27/20/20 26/18/18
f 10/19/19 11/21/21 28/22/22
f 10/19/19 28/22/22 27/20/20
f 11/21/21 12/23/23 29/24/24
f 11/21/21 29/24/24 28/22/22
f 12/23/23 13/25/25 30/26/26
f 12/23/23 30/26/26 29/24/24
f 13/25/25 14/27/27 31/28/28
f 13/25/25 31/28/28 30/26/26
f 14/27/27 15/29/29 32/30/30
f 14/27/27 32/30/30 31/28/28
f 15/29/29 16/31/31 33/32/32
f 15/29/29 33/32/32 32/30/30
f 16/31/31 17/33/33 34/34/34
f 16/31/31 34/34/34 33/32/32
f 18/4/4 19/3/3 36/35/35
f 18/4/4 36/35/35 35/36/36
f 19/3/3 20/6/6 37/37/37
f 19/3/3 37/37/37 36/35/35
f 20/6/6 21/8/8 38/38/38
f 20/6/6 38/38/38 37/37/37
f 21/8/8 22/10/10 39/39/39
f 21/8/8 39/39/39 38/38/38
f 22/10/10 23/12/12 40/40/40
f 22/10/10 40/40/40 39/39/39
f 23/12/12 24/14/14 41/41/41
f 23/12/12 41/41/41 40/40/40
f 24/14/14 25/16/16 42/42/42
f 24/14/14 42/42/42 41/41/41
f 25/16/16 26/18/18 43/43/43
f 25/16/16 43/43/43 42/42/42
f 26/18/18 27/20/20 44/44/44
f 26/18/18 44/44/44 43/43/43
f 27/20/20 28/22/22 45/45/45
f 27/20/20 45/45/45 44/44/44
f 28/22/22 29/24/24 46/46/46
f 28/22/22 46/46/46 45/45/45
f 29/24/24 30/26/26 47/47/47
f 29/24/24 47/47/47 46/46/46
f 30/26/26 31/28/28 48/48/48
f 30/26/26 48/48/48 47/47/47
f 31/28/28 32/30/30 49/49/49
f 31/28/28 49/49/49 48/48/48
f 32/30/30 33/32/32 50/50/50
f 32/30/30 50/50/50 49/49/49
f 33/32/32 34/34/34 51/51/51
f 33/32/32 51/51/51 50/50/50
f 35/36/36 36/35/35 53/52/52
f 35/36/36 53/52/52 52/53/53
f 36/35/35 37/37/37 54/54/54
f 36/35/35 54/54/54 53/52/52
f 37/37/37 38/38/38 55/55/55
f 37/37/37 55/55/55 54/54/54
f 38/38/38 39/39/39 56/56/56
f 38/38/38 56/56/56 55/55/55
f 39/39/39 40/40/40 57/57/57
f 39/39/39 57/57/57 56/56/56
f 40/40/40 41/41/41 58/58/58
f 40/40/40 58/58/58 57/57/57
f 41/41/41 42/42/42 59/59/59
f 41/41/41 59/59/59 58/58/58
f 42/42/42 43/43/43 60/60/60
f 42/42/42 60/60/60 59/59/59
f 43/43/43 44/44/44 61/61/61
f 43/43/43 61/61/61 60/60/60
f 44/44/44 45/45/45 62/62/62
f 44/44/44 62/62/62 61/61/61
f 45/45/45 46/46/46 63/63/63
f 45/45/45 63/63/63 62/62/62
f 46/46/46 47/47/47 64/64/64
f 46/46/46 64/64/64 63/63/63
f 47/47/47 48/48/48 65/65/65
f 47/47/47 65/65/65 64/64/64
f 48/48/48 49/49/49 66/66/66
f 48/48/48 66/66/66 65/65/65
f 49/49/49 50/50/50 67/67/67
f 49/49/49 67/67/67 66/66/66
f 50/50/50 51/51/51 68/68/68
f 50/50/50 68/68/68 67/67/67
f 52/53/53 53/52/52 70/69/69
f 52/53/53 70/69/69 69/70/70
f 53/52/52 54/54/54 71/71/71
f 53/52/52 71/71/71 70/69/69
f 54/54/54 55/55/55 72/72/72
f 54/54/54 72/72/72 71/71/71
f 55/55/55 56/56/56 73/73/73
f 55/55/55 73/73/73 72/72/72
f 56/56/56 57/57/57 74/74/74
f 56/56/56 74/74/74 73/73/73
f 57/57/57 58/58/58 75/75/75
f 57/57/57 75/75/75 74/74/74
f 58/58/58 59/59/59 76/76/76
f 58/58/58 76/76/76 75/75/75
f 59/59/59 60/60/60 77/77/77
f 59/59/59 77/77/77 76/76/76
f 60/60/60 61/61/61 78/78/78
f 60/60/60 78/78/78 77/77/77
f 61/61/61 62/62/62 79/79/79
f 61/61/61 79/79/79 78/78/78
f 62/62/62 63/63/63 80/80/80
f 62/62/62 80/80/80 79/79/79
f 63/63/63 64/64/64 81/81/81
f 63/63/63 81/81/81 80/80/80
f 64/64/64 65/65/65 82/82/82
f 64/64/64 82/82/82 81/81/81
f 65/65/65 66/66/66 83/83/83
f 65/65/65 83/83/83 82/82/82
f 66/66/66 67/67/67 84/84/84
f 66/66/66 84/84/84 83/83/83
f 67/67/67 68/68/68 85/85/85
f 67/67/67 85/85/85 84/84/84
f 69/70/70 70/69/69 87/86/86
f 69/70/70 87/86/86 86/87/87
f 70/69/69 71/71/71 88/88/88
f 70/69/69 88/88/88 87/86/86
f 71/71/71 72/72/72 89/89/89
f 71/71/71 89/89/89 88/88/88
f 72/72/72 73/73/73 90/90/90
f 72/72/72 90/90/90 89/89/89
f 73/73/73 74/74/74 91/91/91
f 73/73/73 91/91/91 90/90/90
f 74/74/74 75/75/75 92/92/92
f 74/74/74 92/92/92 91/91/91
f 75/75/75 76/76/76 93/93/93
f 75/75/75 93/93/93 92/92/92
f 76/76/76 77/77/77 94/94/94
f 76/76/76 94/94/94 93/93/93
f 77/77/77 78/78/78 95/95/95
f 77/77/77 95/95/95 94/94/94
f 78/78/78 79/79/79 96/96/96
f 78/78/78 96/96/96 95/95/95
f 79/79/79 80/80/80 97/97/97
f 79/79/79 97/97/97 96/96/96
f 80/80/80 81/81/81 98/98/98
f 80/80/80 98/98/98 97/97/97
f 81/81/81 82/82/82 99/99/99
f 81/81/81 99/99/99 98/98/98
f 82/82/82 83/83/83 100/100/100
f 82/82/82 100/100/100 99/99/99
f 83/83/83 84/84/84 101/101/101
f 83/83/83 101/101/101 100/100/100
f 84/84/84 85/85/85 102/102/102
f 84/84/84 102/102/102 101/101/101
f 86/87/87 87/86/86 104/103/103
f 86/87/87 104/103/103 103/104/104
f 87/86/86 88/88/88 105/105/105
f 87/86/86 105/105/105 104/103/103
f 88/88/88 89/89/89 106/106/106
f 88/88/88 106/106/106 105/105/105
f 89/89/89 90/90/90 107/107/107
f 89/89/89 107/107/107 106/106/106
f 90/90/90 91/91/91 108/108/108
f 90/90/90 108/108/108 107/107/107
f 91/91/91 92/92/92 109/109/109
f 91/91/91 109/109/109 108/108/108
f 92/92/92 93/93/93 110/110/110
f 92/92/92 110/110/110 109/109/109
f 93/93/93 94/94/94 111/111/111
f 93/93/93 111/111/111 110/110/110
f 94/94/94 95/95/95 112/112/112
f 94/94/94 112/112/112 111/111/111
f 95/95/95 96/96/96 113/113/113
f 95/95/95 113/113/113 112/112/112
f 96/96/96 97/97/97 114/114/114
f 96/96/96 114/114/114 113/113/113
f 97/97/97 98/98/98 115/115/115
f 97/97/97 115/115/115 114/114/114
f 98/98/98 99/99/99 116/116/116
f 98/98/98 116/116/116 115/115/115
f 99/99/99 100/100/100 117/117/117
f 99/99/99 117/117/117 116/116/116
f 100/100/100 101/101/101 118/118/118
f 100/100/100 118/118/118 117/117/117
f 101/101/101 102/102/102 119/119/119
f 101/101/101 119/119/119 118/118/118
f 103/104/104 104/103/103 121/120/120
f 103/104/104 121/120/120 120/121/121
f 104/103/103 105/105/105 122/122/122
f 104/103/103 122/122/122 121/120/120
f 105/105/105 106/106/106 123/123/123
f 105/105/105 123/123/123 122/122/122
f 106/106/106 107/107/107 124/124/124
f 106/106/106 124/124/124 123/123/123
f 107/107/107 108/108/108 125/125/125
f 107/107/107 125/125/125 124/124/124
f 108/108/108 109/109/109 126/126/126
f 108/108/108 126/126/126 125/125/125
f 109/109/109 110/110/110 127/127/127
f 109/109/109 127/127/127 126/126/126
f 110/110/110 111/111/111 128/128/128
f 110/110/110 128/128/128 127/127/127
f 111/111/111 112/112/112 129/129/129
f 111/111/111 129/129/129 128/128/128
f 112/112/112 113/113/113 130/130/130
f 112/112/112 130/130/130 129/129/129
f 113/113/113 114/114/114 131/131/131
f 113/113/113 131/131/131 130/130/130
f 114/114/114 115/115/115 132/132/132
f 114/114/114 132/132/132 131/131/131
f 115/115/115 116/116/116 133/133/133
f 115/115/115 133/133/133 132/132/132
f 116/116/116 117/117/117 134/134/134
f 116/116/116 134/134/134 133/133/133
f 117/117/117 118/118/118 135/135/135
f 117/117/117 135/135/135 134/134/134
f 118/118/118 119/119/119 136/136/136
f 118/118/118 136/136/136 135/135/135
f 120/121/121 121/120/120 138/137/137
f 120/121/121 138/137/137 137/138/138
f 121/120/120 122/122/122 139/139/139
f 121/120/120 139/139/139 138/137/137
f 122/122/122 123/123/123 140/140/140
f 122/122/122 140/140/140 139/139/139
f 123/123/123 124/124/124 141/141/141
f 123/123/123 141/141/141 140/140/140
f 124/124/124 125/125/125 142/142/142
f 124/124/124 142/142/142 141/141/141
f 125/125/125 126/126/126 143/143/143
f 125/125/125 143/143/143 142/142/142
f 126/126/126 127/127/127 144/144/144
f 126/126/126 144/144/144 143/143/143
f 127/127/127 128/128/128 145/145/145
f 127/127/127 145/145/145 144/144/144
f 128/128/128 129/129/129 146/146/146
f 128/128/128 146/146/146 145/145/145
f 129/129/129 130/130/130 147/147/147
f 129/129/129 147/147/147 146/146/146
f 130/130/130 131/131/131 148/148/148
f 130/130/130 148/148/148 147/147/147
f 131/131/131 132/132/132 149/149/149
f 131/131/131 149/149/149 148/148/148
f 132/132/132 133/133/133 150/150/150
f 132/132/132 150/150/150 149/149/149
f 133/133/133 134/134/134 151/151/151
f 133/133/133 151/151/151 150/150/150
f 134/134/134 135/135/135 152/152/152
f 134/134/134 152/152/152 151/151/151
f 135/135/135 136/136/136 153/153/153
f 135/135/135 153/153/153 152/152/152
f 137/138/138 138/137/137 155/154/154
f 137/138/138 155/154/154 154/155/155
f 138/137/137 139/139/139 156/156/156
f 138/137/137 156/156/156 155/154/154
f 139/139/139 140/140/140 157/157/157
f 139/139/139 157/157/157 156/156/156
f 140/140/140 141/141/141 158/158/158
f 140/140/140 158/158/158 157/157/157
f 141/141/141 142/142/142 159/159/159
f 141/141/141 159/159/159 158/158/158
f 142/142/142 143/143/143 160/160/160
f 142/142/142 160/160/160 159/159/159
f 143/143/143 144/144/144 161/161/161
f 143/143/143 161/161/161 160/160/160
f 144/144/144 145/145/145 162/162/162
f 144/144/144 162/162/162 161/161/161
f 145/145/145 146/146/146 163/163/163
f 145/145/145 163/163/163 162/162/162
f 146/146/146 147/147/147 164/164/164
f 146/146/146 164/164/164 163/163/163
f 147/147/147 148/148/148 165/165/165
f 147/147/147 165/165/165 164/164/164
f 148/148/148 149/149/149 166/166/166
f 148/148/148 166/166/166 165/165/165
f 149/149/149 150/150/150 167/167/167
f 149/149/149 167/167/167 166/166/166
f 150/150/150 151/151/151 168/168/168
f 150/150/150 168/168/168 167/167/167
f 151/151/151 152/152/152 169/169/169
f 151/151/151 169/169/169 168/168/168
f 152/152/152 153/153/153 170/170/170
f 152/152/152 170/170/170 169/169/169
f 154/155/155 155/154/154 172/171/171
f 154/155/155 172/171/171 171/172/172
f 155/154/154 156/156/156 173/173/173
f 155/154/154 173/173/173 172/171/171
f 156/156/156 157/157/157 174/174/174
f 156/156/156 174/174/174 173/173/173
f 157/157/157 158/158/158 175/175/175
f 157/157/157 175/175/175 174/174/174
f 158/158/158 159/159/159 176/176/176
f 158/158/158 176/176/176 175/175/175
f 159/159/159 160/160/160 177/177/177
f 159/159/159 177/177/177 176/176/176
f 160/160/160 161/161/161 178/178/178
f 160/160/160 178/178/178 177/177/177
f 161/161/161 162/162/162 179/179/179
f 161/161/161 179/179/179 178/178/178
f 162/162/162 163/163/163 180/180/180
f 162/162/162 180/180/180 179/179/179
f 163/163/163 164/164/164 181/181/181
f 163/163/163 181/181/181 180/180/180
f 164/164/164 165/165/165 182/182/182
f 164/164/164 182/182/182 181/181/181
f 165/165/165 166/166/166 183/183/183
f 165/165/165 183/183/183 182/182/182
f 166/166/166 167/167/167 184/184/184
f 166/166/166 184/184/184 183/183/183
f 167/167/167 168/168/168 185/185/185
f 167/167/167 185/185/185 184/184/184
f 168/168/168 169/169/169 186/186/186
f 168/168/168 186/186/186 185/185/185
f 169/169/169 170/170/170 187/187/187
f 169/169/169 187/187/187 186/186/186
f 171/172/172 172/171/171 189/188/188
f 171/172/172 189/188/188 188/189/189
f 172/171/171 173/173/173 190/190/190
f 172/171/171 190/190/190 189/188/188
f 173/173/173 174/174/174 191/191/191
f 173/173/173 191/191/191 190/190/190
f 174/174/174 175/175/175 192/192/192
f 174/174/174 192/192/192 191/191/191
f 175/175/175 176/176/176 193/193/193
f 175/175/175 193/193/193 192/192/192
f 176/176/176 177/177/177 194/194/194
f 176/176/176 194/194/194 193/193/193
f 177/177/177 178/178/178 195/195/195
f 177/177/177 195/195/195 194/194/194
f 178/178/178 179/179/179 196/196/196
f 178/178/178 196/196/196 195/195/195
f 179/179/179 180/180/180 197/197/197
f 179/179/179 197/197/197 196/196/196
f 180/180/180 181/181/181 198/198/198
f 180/180/180 198/198/198 197/197/197
f 181/181/181 182/182/182 199/199/199
f 181/181/181 199/199/199 198/198/198
f 182/182/182 183/183/183 200/200/200
f 182/182/182 200/200/200 199/199/199
f 183/183/183 184/184/184 201/201/201
f 183/183/183 201/201/201 200/200/200
f 184/184/184 185/185/185 202/202/202
f 184/184/184 202/202/202 201/201/201
f 185/185/185 186/186/186 203/203/203
f 185/185/185 203/203/203 202/202/202
f 186/186/186 187/187/187 204/204/204
f 186/186/186 204/204/204 203/203/203
f 188/189/189 189/188/188 206/205/205
f 188/189/189 206/205/205 205/206/206
f 189/188/188 190/190/190 207/207/207
f 189/188/188 207/207/207 206/205/205
f 190/190/190 191/191/191 208/208/208
f 190/190/190 208/208/208 207/207/207
f 191/191/191 192/192/192 209/209/209
f 191/191/191 209/209/209 208/208/208
f 192/192/192 193/193/193 210/210/210
f 192/192/192 210/210/210 209/209/209
f 193/193/193 194/194/194 211/211/211
f 193/193/193 211/211/211 210/210/210
f 194/194/194 195/195/195 212/212/212
f 194/194/194 212/212/212 211/211/211
f 195/195/195 196/196/196 213/213/213
f 195/195/195 213/213/213 212/212/212
f 196/196/196 197/197/197 214/214/214
f 196/196/196 214/214/214 213/213/213
f 197/197/197 198/198/198 215/215/215
f 197/197/197 215/215/215 214/214/214
f 198/198/198 199/199/199 216/216/216
f 198/198/198 216/216/216 215/215/215
f 199/199/199 200/200/200 217/217/217
f 199/199/199 217/217/217 216/216/216
f 200/200/200 201/201/201 218/218/218
f 200/200/200 218/218/218 217/217/217
f 201/201/201 202/202/202 219/219/219
f 201/201/201 219/219/219 218/218/218
f 202/202/202 203/203/203 220/220/220
f 202/202/202 220/220/220 219/219/219
f 203/203/203 204/204/204 221/221/221
f 203/203/203 221/221/221 220/220/220
f 205/206/206 206/205/205 223/222/222
f 205/206/206 223/222/222 222/223/223
f 206/205/205 207/207/207 224/224/224
f 206/205/205 224/224/224 223/222/222
f 207/207/207 208/208/208 225/225/225
f 207/207/207 225/225/225 224/224/224
f 208/208/208 209/209/209 226/226/226
f 208/208/208 226/226/226 225/225/225
f 209/209/209 210/210/210 227/227/227
f 209/209/209 227/227/227 226/226/226
f 210/210/210 211/211/211 228/228/228
f 210/210/210 228/228/228 227/227/227
f 211/211/211 212/212/212 229/229/229
f 211/211/211 229/229/229 228/228/228
f 212/212/212 213/213/213 230/230/230
f 212/212/212 230/230/230 229/229/229
f 213/213/213 214/214/214 231/231/231
f 213/213/213 231/231/231 230/230/230
f 214/214/214 215/215/215 232/232/232
f 214/214/214 232/232/232 231/231/231
f 215/215/215 216/216/216 233/233/233
f 215/215/215 233/233/233 232/232/232
f 216/216/216 217/217/217 234/234/234
f 216/216/216 234/234/234 233/233/233
f 217/217/217 218/218/218 235/235/235
f 217/217/217 235/235/235 234/234/234
f 218/218/218 219/219/219 236/236/236
f 218/218/218 236/236/236 235/235/235
f 219/219/219 220/220/220 237/237/237
f 219/219/219 237/237/237 236/236/236
f 220/220/220 221/221/221 238/238/238
f 220/220/220 238/238/238 237/237/237
f 222/223/223 223/222/222 240/239/239
f 222/223/223 240/239/239 239/240/240
f 223/222/222 224/224/224 241/241/241
f 223/222/222 241/241/241 240/239/239
f 224/224/224 225/225/225 242/242/242
f 224/224/224 242/242/242 241/241/241
f 225/225/225 226/226/226 243/243/243
f 225/225/225 243/243/243 242/242/242
f 226/226/226 227/227/227 244/244/244
f 226/226/226 244/244/244 243/243/243
f 227/227/227 228/228/228 245/245/245
f 227/227/227 245/245/245 244/244/244
f 228/228/228 229/229/229 246/246/246
f 228/228/228 246/246/246 245/245/245
f 229/229/229 230/230/230 247/247/247
f 229/229/229 247/247/247 246/246/246
f 230/230/230 231/231/231 248/248/248
f 230/230/230 248/248/248 247/247/247
f 231/231/231 232/232/232 249/249/249
f 231/231/231 249/249/249 248/248/248
f 232/232/232 233/233/233 250/250/250
f 232/232/232 250/250/250 249/249/249
f 233/233/233 234/234/234 251/251/251
f 233/233/233 251/251/251 250/250/250
f 234/234/234 235/235/235 252/252/252
f 234/234/234 252/252/252 251/251/251
f 235/235/235 236/236/236 253/253/253
f 235/235/235 253/253/253 252/252/252
f 236/236/236 237/237/237 254/254/254
f 236/236/236 254/254/254 253/253/253
f 237/237/237 238/238/238 255/255/255
f 237/237/237 255/255/255 254/254/254
f 239/240/240 240/239/239 257/256/256
f 239/240/240 257/256/256 256/257/257
f 240/239/239 241/241/241 258/258/258
f 240/239/239 258/258/258 257/256/256
f 241/241/241 242/242/242 259/259/259
f 241/241/241 259/259/259 258/258/258
f 242/242/242 243/243/243 260/260/260
f 242/242/242 260/260/260 259/259/259
f 243/243/243 244/244/244 261/261/261
f 243/243/243 261/261/261 260/260/260
f 244/244/244 245/245/245 262/262/262
f 244/244/244 262/262/262 261/261/261
f 245/245/245 246/246/246 263/263/263
f 245/245/245 263/263/263 262/262/262
f 246/246/246 247/247/247 264/264/264
f 246/246/246 264/264/264 263/263/263
f 247/247/247 248/248/248 265/265/265
f 247/247/247 265/265/265 264/264/264
f 248/248/248 249/249/249 266/266/266
f 248/248/248 266/266/266 265/265/265
f 249/249/249 250/250/250 267/267/267
f 249/249/249 267/267/267 266/266/266
f 250/250/250 251/251/251 268/268/268
f 250/250/250 268/268/268 267/267/267
f 251/251/251 252/252/252 269/269/269
f 251/251/251 269/269/269 268/268/268
f 252/252/252 253/253/253 270/270/270
f 252/252/252 270/270/270 269/269/269
f 253/253/253 254/254/254 271/271/271
f 253/253/253 271/271/271 270/270/270
f 254/254/254 255/255/255 272/272/272
f 254/254/254 272/272/272 271/271/271
f 256/257/257 257/256/256 274/273/273
f 256/257/257 274/273/273 273/274/274
f 257/256/256 258/258/258 275/275/275
f 257/256/256 275/275/275 274/273/273
f 258/258/258 259/259/259 276/276/276
f 258/258/258 276/276/276 275/275/275
f 259/259/259 260/260/260 277/277/277
f 259/259/259 277/277/277 276/276/276
f 260/260/260 261/261/261 278/278/278
f 260/260/260 278/278/278 277/277/277
f 261/261/261 262/262/262 279/279/279
f 261/261/261 279/279/279 278/278/278
f 262/262/262 263/263/263 280/280/280
f 262/262/262 280/280/280 279/279/279
f 263/263/263 264/264/264 281/281/281
f 263/263/263 281/281/281 280/280/280
f 264/264/264 265/265/265 282/282/282
f 264/264/264 282/282/282 281/281/281
f 265/265/265 266/266/266 283/283/283
f 265/265/265 283/283/283 282/282/282
f 266/266/266 267/267/267 284/284/284
f 266/266/266 284/284/284 283/283/283
f 267/267/267 268/268/268 285/285/285
f 267/267/267 285/285/285 284/284/284
f 268/268/268 269/269/269 286/286/286
f 268/268/268 286/286/286 285/285/285
f 269/269/269 270/270/270 287/287/287
f 269/269/269 287/287/287 286/286/286
f 270/270/270 271/271/271 288/288/288
f 270/270/270 288/288/288 287/287/287
f 271/271/271 272/272/272 289/289/289
f 271/271/271 289/289/289 288/288/288
