mtllib terrain_mid_01_02.mtl
usemtl terrain_mid_01_02
# Blender 5.1.1
# www.blender.org
o terrain_mid_01_02
v -160.000000 -160.000000 -31.660263
v -140.000000 -160.000000 -31.026257
v -120.000000 -160.000000 -31.496634
v -100.000000 -160.000000 -32.697697
v -80.000000 -160.000000 -34.413578
v -60.000000 -160.000000 -36.225807
v -40.000000 -160.000000 -38.621784
v -20.000000 -160.000000 -41.594547
v 0.000000 -160.000000 -44.110947
v 20.000000 -160.000000 -45.105663
v 40.000000 -160.000000 -45.762882
v 60.000000 -160.000000 -46.728519
v 80.000000 -160.000000 -47.565273
v 100.000000 -160.000000 -47.955746
v 120.000000 -160.000000 -48.295803
v 140.000000 -160.000000 -49.311977
v 160.000000 -160.000000 -50.179592
v -160.000000 -140.000000 -27.653244
v -140.000000 -140.000000 -27.309752
v -120.000000 -140.000000 -27.752113
v -100.000000 -140.000000 -29.129053
v -80.000000 -140.000000 -30.942368
v -60.000000 -140.000000 -32.497955
v -40.000000 -140.000000 -34.283352
v -20.000000 -140.000000 -36.708099
v 0.000000 -140.000000 -39.176289
v 20.000000 -140.000000 -40.184147
v 40.000000 -140.000000 -41.000973
v 60.000000 -140.000000 -42.057674
v 80.000000 -140.000000 -42.914989
v 100.000000 -140.000000 -43.307148
v 120.000000 -140.000000 -43.560238
v 140.000000 -140.000000 -44.140217
v 160.000000 -140.000000 -44.591850
v -160.000000 -120.000000 -22.149466
v -140.000000 -120.000000 -21.159367
v -120.000000 -120.000000 -21.595301
v -100.000000 -120.000000 -23.313894
v -80.000000 -120.000000 -25.633068
v -60.000000 -120.000000 -27.662447
v -40.000000 -120.000000 -29.636377
v -20.000000 -120.000000 -31.825363
v 0.000000 -120.000000 -33.904964
v 20.000000 -120.000000 -35.277138
v 40.000000 -120.000000 -35.974525
v 60.000000 -120.000000 -36.757885
v 80.000000 -120.000000 -37.586899
v 100.000000 -120.000000 -38.015034
v 120.000000 -120.000000 -38.183300
v 140.000000 -120.000000 -38.785595
v 160.000000 -120.000000 -39.387691
v -160.000000 -100.000000 -16.468557
v -140.000000 -100.000000 -15.013995
v -120.000000 -100.000000 -15.579656
v -100.000000 -100.000000 -17.472219
v -80.000000 -100.000000 -19.927279
v -60.000000 -100.000000 -22.276278
v -40.000000 -100.000000 -24.402281
v -20.000000 -100.000000 -26.425426
v 0.000000 -100.000000 -28.192415
v 20.000000 -100.000000 -29.587862
v 40.000000 -100.000000 -30.186182
v 60.000000 -100.000000 -30.830082
v 80.000000 -100.000000 -31.599459
v 100.000000 -100.000000 -32.027618
v 120.000000 -100.000000 -32.278080
v 140.000000 -100.000000 -32.927780
v 160.000000 -100.000000 -33.732815
v -160.000000 -80.000000 -11.127738
v -140.000000 -80.000000 -9.660710
v -120.000000 -80.000000 -10.307832
v -100.000000 -80.000000 -12.074393
v -80.000000 -80.000000 -14.312226
v -60.000000 -80.000000 -16.526602
v -40.000000 -80.000000 -18.650349
v -20.000000 -80.000000 -20.603764
v 0.000000 -80.000000 -22.161104
v 20.000000 -80.000000 -23.428268
v 40.000000 -80.000000 -24.040443
v 60.000000 -80.000000 -24.654287
v 80.000000 -80.000000 -25.341450
v 100.000000 -80.000000 -25.752047
v 120.000000 -80.000000 -26.119017
v 140.000000 -80.000000 -26.818636
v 160.000000 -80.000000 -27.840099
v -160.000000 -60.000000 -6.224587
v -140.000000 -60.000000 -4.586993
v -120.000000 -60.000000 -4.978364
v -100.000000 -60.000000 -6.535724
v -80.000000 -60.000000 -8.516755
v -60.000000 -60.000000 -10.550304
v -40.000000 -60.000000 -12.513053
v -20.000000 -60.000000 -14.358227
v 0.000000 -60.000000 -15.930174
v 20.000000 -60.000000 -17.207069
v 40.000000 -60.000000 -18.021183
v 60.000000 -60.000000 -18.675623
v 80.000000 -60.000000 -19.188692
v 100.000000 -60.000000 -19.562166
v 120.000000 -60.000000 -19.962820
v 140.000000 -60.000000 -20.686569
v 160.000000 -60.000000 -21.861279
v -160.000000 -40.000000 -1.645560
v -140.000000 -40.000000 0.263382
v -120.000000 -40.000000 0.354304
v -100.000000 -40.000000 -0.816119
v -80.000000 -40.000000 -2.554679
v -60.000000 -40.000000 -4.489981
v -40.000000 -40.000000 -6.407428
v -20.000000 -40.000000 -8.108545
v 0.000000 -40.000000 -9.610376
v 20.000000 -40.000000 -10.799579
v 40.000000 -40.000000 -11.716226
v 60.000000 -40.000000 -12.410127
v 80.000000 -40.000000 -13.000683
v 100.000000 -40.000000 -13.614513
v 120.000000 -40.000000 -14.155875
v 140.000000 -40.000000 -14.905400
v 160.000000 -40.000000 -16.206398
v -160.000000 -20.000000 2.691646
v -140.000000 -20.000000 4.981040
v -120.000000 -20.000000 5.672874
v -100.000000 -20.000000 5.031910
v -80.000000 -20.000000 3.619224
v -60.000000 -20.000000 1.662010
v -40.000000 -20.000000 -0.355507
v -20.000000 -20.000000 -1.960644
v 0.000000 -20.000000 -3.313617
v 20.000000 -20.000000 -4.362547
v 40.000000 -20.000000 -5.241453
v 60.000000 -20.000000 -6.033384
v 80.000000 -20.000000 -6.882220
v 100.000000 -20.000000 -7.891376
v 120.000000 -20.000000 -8.647452
v 140.000000 -20.000000 -9.463913
v 160.000000 -20.000000 -10.912101
v -160.000000 0.000000 7.186356
v -140.000000 0.000000 9.783042
v -120.000000 0.000000 10.918629
v -100.000000 0.000000 11.004634
v -80.000000 0.000000 9.985828
v -60.000000 0.000000 8.121028
v -40.000000 0.000000 5.962153
v -20.000000 0.000000 4.185874
v 0.000000 0.000000 2.797508
v 20.000000 0.000000 1.752328
v 40.000000 0.000000 0.918256
v 60.000000 0.000000 -0.036260
v 80.000000 0.000000 -1.239920
v 100.000000 0.000000 -2.485838
v 120.000000 0.000000 -3.381461
v 140.000000 0.000000 -4.467432
v 160.000000 0.000000 -6.194137
v -160.000000 20.000000 11.790590
v -140.000000 20.000000 14.601246
v -120.000000 20.000000 16.065805
v -100.000000 20.000000 16.607153
v -80.000000 20.000000 16.013151
v -60.000000 20.000000 14.336082
v -40.000000 20.000000 12.203493
v -20.000000 20.000000 10.266109
v 0.000000 20.000000 8.784866
v 20.000000 20.000000 7.653316
v 40.000000 20.000000 6.645883
v 60.000000 20.000000 5.435074
v 80.000000 20.000000 3.879302
v 100.000000 20.000000 2.334841
v 120.000000 20.000000 0.994482
v 140.000000 20.000000 -0.614981
v 160.000000 20.000000 -2.921317
v -160.000000 40.000000 16.502634
v -140.000000 40.000000 19.314795
v -120.000000 40.000000 21.168201
v -100.000000 40.000000 21.820349
v -80.000000 40.000000 21.428381
v -60.000000 40.000000 20.102745
v -40.000000 40.000000 18.182213
v -20.000000 40.000000 16.282581
v 0.000000 40.000000 14.709760
v 20.000000 40.000000 13.358163
v 40.000000 40.000000 11.918967
v 60.000000 40.000000 10.265478
v 80.000000 40.000000 8.382788
v 100.000000 40.000000 6.335451
v 120.000000 40.000000 4.384035
v 140.000000 40.000000 1.918724
v 160.000000 40.000000 -1.155570
v -160.000000 60.000000 21.699242
v -140.000000 60.000000 24.460892
v -120.000000 60.000000 26.535410
v -100.000000 60.000000 27.330345
v -80.000000 60.000000 27.144743
v -60.000000 60.000000 26.029957
v -40.000000 60.000000 24.273067
v -20.000000 60.000000 22.378325
v 0.000000 60.000000 20.562204
v 20.000000 60.000000 18.730762
v 40.000000 60.000000 16.765335
v 60.000000 60.000000 14.482417
v 80.000000 60.000000 11.973506
v 100.000000 60.000000 9.187957
v 120.000000 60.000000 6.212682
v 140.000000 60.000000 2.695023
v 160.000000 60.000000 -1.473156
v -160.000000 80.000000 27.299162
v -140.000000 80.000000 29.996805
v -120.000000 80.000000 32.152401
v -100.000000 80.000000 33.078526
v -80.000000 80.000000 33.036980
v -60.000000 80.000000 32.045414
v -40.000000 80.000000 30.267679
v -20.000000 80.000000 28.155981
v 0.000000 80.000000 25.976883
v 20.000000 80.000000 23.433922
v 40.000000 80.000000 20.747656
v 60.000000 80.000000 17.732567
v 80.000000 80.000000 14.215171
v 100.000000 80.000000 10.362775
v 120.000000 80.000000 6.255387
v 140.000000 80.000000 1.476090
v 160.000000 80.000000 -3.647676
v -160.000000 100.000000 33.167328
v -140.000000 100.000000 35.777409
v -120.000000 100.000000 37.898815
v -100.000000 100.000000 38.899288
v -80.000000 100.000000 38.927494
v -60.000000 100.000000 37.906849
v -40.000000 100.000000 35.895329
v -20.000000 100.000000 33.211662
v 0.000000 100.000000 30.565147
v 20.000000 100.000000 27.281157
v 40.000000 100.000000 23.578947
v 60.000000 100.000000 19.557775
v 80.000000 100.000000 14.996699
v 100.000000 100.000000 9.802608
v 120.000000 100.000000 4.743865
v 140.000000 100.000000 -0.768030
v 160.000000 100.000000 -6.323579
v -160.000000 120.000000 39.210712
v -140.000000 120.000000 41.744423
v -120.000000 120.000000 43.849480
v -100.000000 120.000000 44.849827
v -80.000000 120.000000 44.634964
v -60.000000 120.000000 43.226265
v -40.000000 120.000000 40.791401
v -20.000000 120.000000 37.511841
v 0.000000 120.000000 34.008331
v 20.000000 120.000000 29.896873
v 40.000000 120.000000 25.308168
v 60.000000 120.000000 20.054710
v 80.000000 120.000000 14.273772
v 100.000000 120.000000 8.589446
v 120.000000 120.000000 3.113195
v 140.000000 120.000000 -1.847837
v 160.000000 120.000000 -5.680343
v -160.000000 140.000000 45.375469
v -140.000000 140.000000 47.857162
v -120.000000 140.000000 49.922760
v -100.000000 140.000000 50.792645
v -80.000000 140.000000 50.213108
v -60.000000 140.000000 48.158054
v -40.000000 140.000000 45.049820
v -20.000000 140.000000 40.961327
v 0.000000 140.000000 36.653816
v 20.000000 140.000000 31.541306
v 40.000000 140.000000 25.838272
v 60.000000 140.000000 19.688946
v 80.000000 140.000000 13.491348
v 100.000000 140.000000 8.541418
v 120.000000 140.000000 4.192446
v 140.000000 140.000000 0.890763
v 160.000000 140.000000 -1.074969
v -160.000000 160.000000 51.707298
v -140.000000 160.000000 54.093910
v -120.000000 160.000000 55.955883
v -100.000000 160.000000 56.574509
v -80.000000 160.000000 55.557068
v -60.000000 160.000000 52.797146
v -40.000000 160.000000 48.697906
v -20.000000 160.000000 43.742958
v 0.000000 160.000000 38.380768
v 20.000000 160.000000 32.160927
v 40.000000 160.000000 25.615162
v 60.000000 160.000000 19.305950
v 80.000000 160.000000 13.951337
v 100.000000 160.000000 10.850805
v 120.000000 160.000000 9.038881
v 140.000000 160.000000 7.974374
v 160.000000 160.000000 7.214235
vn -0.0544 -0.2173 0.9746
vn -0.0040 -0.1992 0.9799
vn 0.0024 -0.2395 0.9709
vn -0.0341 -0.2312 0.9723
vn 0.0409 -0.1948 0.9800
vn 0.0441 -0.2400 0.9698
vn 0.0715 -0.1855 0.9800
vn 0.0774 -0.2277 0.9706
vn 0.0864 -0.1796 0.9799
vn 0.0820 -0.2137 0.9735
vn 0.1027 -0.1910 0.9762
vn 0.0814 -0.2087 0.9746
vn 0.1299 -0.2142 0.9681
vn 0.1022 -0.2180 0.9706
vn 0.1323 -0.2315 0.9638
vn 0.1180 -0.2356 0.9647
vn 0.0851 -0.2279 0.9699
vn 0.0839 -0.2464 0.9655
vn 0.0402 -0.2266 0.9732
vn 0.0441 -0.2385 0.9701
vn 0.0396 -0.2186 0.9750
vn 0.0454 -0.2375 0.9703
vn 0.0440 -0.2155 0.9755
vn 0.0463 -0.2417 0.9692
vn 0.0299 -0.2202 0.9750
vn 0.0304 -0.2418 0.9699
vn 0.0178 -0.2232 0.9746
vn 0.0155 -0.2413 0.9703
vn 0.0330 -0.2247 0.9739
vn 0.0202 -0.2450 0.9693
vn 0.0456 -0.2417 0.9693
vn 0.0250 -0.2544 0.9668
vn 0.0346 -0.2624 0.9643
vn 0.0224 -0.2604 0.9652
vn -0.0132 -0.2938 0.9558
vn -0.0710 -0.2686 0.9606
vn 0.0515 -0.2907 0.9554
vn 0.0965 -0.2785 0.9556
vn 0.1042 -0.2641 0.9589
vn 0.0965 -0.2465 0.9643
vn 0.1005 -0.2386 0.9659
vn 0.1027 -0.2477 0.9634
vn 0.0829 -0.2639 0.9610
vn 0.0499 -0.2558 0.9654
vn 0.0356 -0.2609 0.9647
vn 0.0388 -0.2700 0.9621
vn 0.0302 -0.2721 0.9618
vn 0.0144 -0.2713 0.9624
vn 0.0186 -0.2714 0.9623
vn 0.0290 -0.2697 0.9625
vn 0.0343 -0.2618 0.9645
vn -0.0214 -0.2762 0.9609
vn -0.1045 -0.2642 0.9588
vn 0.0590 -0.2711 0.9607
vn 0.1041 -0.2690 0.9575
vn 0.1148 -0.2706 0.9558
vn 0.1072 -0.2666 0.9578
vn 0.0995 -0.2636 0.9595
vn 0.0906 -0.2692 0.9588
vn 0.0757 -0.2808 0.9568
vn 0.0477 -0.2837 0.9577
vn 0.0297 -0.2858 0.9578
vn 0.0337 -0.2895 0.9566
vn 0.0289 -0.2923 0.9559
vn 0.0162 -0.2931 0.9560
vn 0.0214 -0.2889 0.9571
vn 0.0349 -0.2864 0.9575
vn 0.0453 -0.2771 0.9598
vn -0.0199 -0.2522 0.9675
vn -0.1199 -0.2463 0.9617
vn 0.0582 -0.2558 0.9650
vn 0.0961 -0.2625 0.9601
vn 0.1067 -0.2725 0.9562
vn 0.1034 -0.2799 0.9544
vn 0.0972 -0.2836 0.9540
vn 0.0839 -0.2876 0.9541
vn 0.0674 -0.2924 0.9539
vn 0.0449 -0.2954 0.9543
vn 0.0295 -0.2907 0.9564
vn 0.0311 -0.2906 0.9563
vn 0.0265 -0.2960 0.9548
vn 0.0189 -0.2972 0.9546
vn 0.0253 -0.2944 0.9554
vn 0.0411 -0.2924 0.9554
vn 0.0558 -0.2841 0.9572
vn -0.0302 -0.2407 0.9701
vn -0.1355 -0.2285 0.9641
vn 0.0470 -0.2573 0.9652
vn 0.0846 -0.2701 0.9591
vn 0.0958 -0.2807 0.9550
vn 0.0953 -0.2868 0.9532
vn 0.0908 -0.2914 0.9523
vn 0.0815 -0.2970 0.9514
vn 0.0678 -0.2987 0.9519
vn 0.0499 -0.3006 0.9524
vn 0.0351 -0.2942 0.9551
vn 0.0279 -0.2926 0.9558
vn 0.0212 -0.2947 0.9553
vn 0.0186 -0.2903 0.9568
vn 0.0269 -0.2864 0.9577
vn 0.0454 -0.2851 0.9574
vn 0.0642 -0.2787 0.9582
vn -0.0486 -0.2324 0.9714
vn -0.1532 -0.2150 0.9645
vn 0.0261 -0.2572 0.9660
vn 0.0697 -0.2771 0.9583
vn 0.0876 -0.2892 0.9533
vn 0.0918 -0.2908 0.9524
vn 0.0863 -0.2897 0.9532
vn 0.0762 -0.2952 0.9524
vn 0.0638 -0.3004 0.9517
vn 0.0500 -0.3054 0.9509
vn 0.0383 -0.3041 0.9519
vn 0.0306 -0.3013 0.9531
vn 0.0288 -0.2939 0.9554
vn 0.0276 -0.2801 0.9596
vn 0.0310 -0.2722 0.9618
vn 0.0495 -0.2696 0.9617
vn 0.0719 -0.2633 0.9620
vn -0.0724 -0.2311 0.9702
vn -0.1669 -0.2126 0.9628
vn -0.0013 -0.2554 0.9668
vn 0.0493 -0.2829 0.9579
vn 0.0801 -0.2982 0.9511
vn 0.0944 -0.2993 0.9495
vn 0.0863 -0.2942 0.9518
vn 0.0705 -0.2931 0.9535
vn 0.0573 -0.2958 0.9535
vn 0.0461 -0.2989 0.9532
vn 0.0398 -0.3009 0.9528
vn 0.0392 -0.2953 0.9546
vn 0.0444 -0.2819 0.9584
vn 0.0425 -0.2678 0.9625
vn 0.0383 -0.2596 0.9650
vn 0.0547 -0.2521 0.9662
vn 0.0813 -0.2420 0.9669
vn -0.0904 -0.2330 0.9683
vn -0.1737 -0.2184 0.9603
vn -0.0296 -0.2514 0.9674
vn 0.0224 -0.2779 0.9603
vn 0.0687 -0.2952 0.9529
vn 0.0956 -0.3005 0.9490
vn 0.0936 -0.2981 0.9499
vn 0.0753 -0.2916 0.9536
vn 0.0581 -0.2891 0.9555
vn 0.0450 -0.2874 0.9568
vn 0.0428 -0.2846 0.9577
vn 0.0518 -0.2752 0.9600
vn 0.0587 -0.2596 0.9639
vn 0.0518 -0.2474 0.9675
vn 0.0481 -0.2340 0.9710
vn 0.0685 -0.2155 0.9741
vn 0.0997 -0.1949 0.9757
vn -0.1034 -0.2306 0.9675
vn -0.1746 -0.2234 0.9590
vn -0.0485 -0.2479 0.9676
vn 0.0013 -0.2610 0.9653
vn 0.0545 -0.2747 0.9600
vn 0.0910 -0.2857 0.9540
vn 0.0968 -0.2909 0.9519
vn 0.0816 -0.2885 0.9540
vn 0.0625 -0.2849 0.9565
vn 0.0513 -0.2783 0.9591
vn 0.0535 -0.2648 0.9628
vn 0.0668 -0.2488 0.9662
vn 0.0752 -0.2332 0.9695
vn 0.0703 -0.2148 0.9741
vn 0.0722 -0.1900 0.9791
vn 0.0963 -0.1569 0.9829
vn 0.1305 -0.1239 0.9837
vn -0.1125 -0.2378 0.9648
vn -0.1656 -0.2371 0.9573
vn -0.0605 -0.2527 0.9656
vn -0.0063 -0.2590 0.9659
vn 0.0413 -0.2679 0.9626
vn 0.0777 -0.2797 0.9569
vn 0.0911 -0.2877 0.9534
vn 0.0828 -0.2888 0.9538
vn 0.0700 -0.2817 0.9569
vn 0.0671 -0.2663 0.9616
vn 0.0748 -0.2446 0.9667
vn 0.0859 -0.2198 0.9718
vn 0.0959 -0.1974 0.9756
vn 0.0981 -0.1681 0.9809
vn 0.1089 -0.1286 0.9857
vn 0.1368 -0.0817 0.9872
vn 0.1705 -0.0356 0.9847
vn -0.1160 -0.2563 0.9596
vn -0.1556 -0.2574 0.9537
vn -0.0688 -0.2640 0.9621
vn -0.0147 -0.2709 0.9625
vn 0.0313 -0.2784 0.9599
vn 0.0687 -0.2854 0.9559
vn 0.0871 -0.2881 0.9536
vn 0.0886 -0.2835 0.9549
vn 0.0874 -0.2701 0.9589
vn 0.0917 -0.2432 0.9656
vn 0.1032 -0.2143 0.9713
vn 0.1170 -0.1822 0.9763
vn 0.1299 -0.1430 0.9812
vn 0.1419 -0.0991 0.9849
vn 0.1600 -0.0461 0.9860
vn 0.1887 0.0108 0.9820
vn 0.2231 0.0606 0.9729
vn -0.1161 -0.2706 0.9557
vn -0.1448 -0.2727 0.9511
vn -0.0738 -0.2725 0.9593
vn -0.0209 -0.2774 0.9605
vn 0.0248 -0.2825 0.9590
vn 0.0663 -0.2840 0.9565
vn 0.0930 -0.2778 0.9561
vn 0.1030 -0.2600 0.9601
vn 0.1138 -0.2410 0.9638
vn 0.1268 -0.2074 0.9700
vn 0.1391 -0.1663 0.9762
vn 0.1599 -0.1242 0.9793
vn 0.1807 -0.0741 0.9807
vn 0.1951 -0.0151 0.9807
vn 0.2167 0.0358 0.9756
vn 0.2395 0.0837 0.9673
vn 0.2568 0.1163 0.9594
vn -0.1128 -0.2800 0.9534
vn -0.1374 -0.2827 0.9493
vn -0.0748 -0.2801 0.9571
vn -0.0246 -0.2822 0.9590
vn 0.0238 -0.2784 0.9602
vn 0.0728 -0.2685 0.9605
vn 0.1128 -0.2528 0.9609
vn 0.1287 -0.2259 0.9656
vn 0.1439 -0.1948 0.9702
vn 0.1699 -0.1572 0.9728
vn 0.1885 -0.1112 0.9758
vn 0.2095 -0.0566 0.9762
vn 0.2369 -0.0014 0.9715
vn 0.2481 0.0429 0.9678
vn 0.2548 0.0757 0.9640
vn 0.2658 0.0798 0.9607
vn 0.2513 0.0491 0.9667
vn -0.1105 -0.2875 0.9514
vn -0.1295 -0.2894 0.9484
vn -0.0740 -0.2870 0.9551
vn -0.0188 -0.2849 0.9584
vn 0.0390 -0.2713 0.9617
vn 0.0927 -0.2472 0.9645
vn 0.1380 -0.2209 0.9655
vn 0.1643 -0.1876 0.9684
vn 0.1850 -0.1479 0.9716
vn 0.2115 -0.1035 0.9719
vn 0.2384 -0.0549 0.9696
vn 0.2659 -0.0032 0.9640
vn 0.2753 0.0361 0.9607
vn 0.2686 0.0304 0.9628
vn 0.2525 0.0133 0.9675
vn 0.2145 -0.0405 0.9759
vn 0.1582 -0.1285 0.9790
vn -0.1080 -0.2933 0.9499
vn -0.1212 -0.2960 0.9475
vn -0.0700 -0.2889 0.9548
vn -0.0070 -0.2813 0.9596
vn 0.0634 -0.2629 0.9627
vn 0.1246 -0.2309 0.9650
vn 0.1738 -0.1909 0.9661
vn 0.2031 -0.1507 0.9675
vn 0.2279 -0.1058 0.9679
vn 0.2607 -0.0545 0.9639
vn 0.2841 -0.0073 0.9588
vn 0.2949 0.0179 0.9554
vn 0.2684 0.0078 0.9633
vn 0.2261 -0.0550 0.9726
vn 0.1859 -0.1440 0.9720
vn 0.1269 -0.2365 0.9633
vn 0.0609 -0.3062 0.9500
vn -0.1009 -0.2968 0.9496
vn -0.1128 -0.3048 0.9457
vn -0.0593 -0.2877 0.9559
vn 0.0096 -0.2737 0.9618
vn 0.0910 -0.2513 0.9636
vn 0.1652 -0.2101 0.9636
vn 0.2178 -0.1639 0.9621
vn 0.2479 -0.1209 0.9612
vn 0.2774 -0.0733 0.9580
vn 0.3039 -0.0250 0.9524
vn 0.3059 0.0006 0.9520
vn 0.2799 -0.0205 0.9598
vn 0.2059 -0.0931 0.9741
vn 0.1198 -0.1855 0.9753
vn 0.0689 -0.2793 0.9577
vn 0.0427 -0.3474 0.9367
vn 0.0219 -0.3852 0.9226
vt 0.015625 0.015625
vt 0.076172 0.015625
vt 0.076172 0.076172
vt 0.015625 0.076172
vt 0.136719 0.015625
vt 0.136719 0.076172
vt 0.197266 0.015625
vt 0.197266 0.076172
vt 0.257812 0.015625
vt 0.257812 0.076172
vt 0.318359 0.015625
vt 0.318359 0.076172
vt 0.378906 0.015625
vt 0.378906 0.076172
vt 0.439453 0.015625
vt 0.439453 0.076172
vt 0.500000 0.015625
vt 0.500000 0.076172
vt 0.560547 0.015625
vt 0.560547 0.076172
vt 0.621094 0.015625
vt 0.621094 0.076172
vt 0.681641 0.015625
vt 0.681641 0.076172
vt 0.742188 0.015625
vt 0.742188 0.076172
vt 0.802734 0.015625
vt 0.802734 0.076172
vt 0.863281 0.015625
vt 0.863281 0.076172
vt 0.923828 0.015625
vt 0.923828 0.076172
vt 0.984375 0.015625
vt 0.984375 0.076172
vt 0.076172 0.136719
vt 0.015625 0.136719
vt 0.136719 0.136719
vt 0.197266 0.136719
vt 0.257812 0.136719
vt 0.318359 0.136719
vt 0.378906 0.136719
vt 0.439453 0.136719
vt 0.500000 0.136719
vt 0.560547 0.136719
vt 0.621094 0.136719
vt 0.681641 0.136719
vt 0.742188 0.136719
vt 0.802734 0.136719
vt 0.863281 0.136719
vt 0.923828 0.136719
vt 0.984375 0.136719
vt 0.076172 0.197266
vt 0.015625 0.197266
vt 0.136719 0.197266
vt 0.197266 0.197266
vt 0.257812 0.197266
vt 0.318359 0.197266
vt 0.378906 0.197266
vt 0.439453 0.197266
vt 0.500000 0.197266
vt 0.560547 0.197266
vt 0.621094 0.197266
vt 0.681641 0.197266
vt 0.742188 0.197266
vt 0.802734 0.197266
vt 0.863281 0.197266
vt 0.923828 0.197266
vt 0.984375 0.197266
vt 0.076172 0.257812
vt 0.015625 0.257812
vt 0.136719 0.257812
vt 0.197266 0.257812
vt 0.257812 0.257812
vt 0.318359 0.257812
vt 0.378906 0.257812
vt 0.439453 0.257812
vt 0.500000 0.257812
vt 0.560547 0.257812
vt 0.621094 0.257812
vt 0.681641 0.257812
vt 0.742188 0.257812
vt 0.802734 0.257812
vt 0.863281 0.257812
vt 0.923828 0.257812
vt 0.984375 0.257812
vt 0.076172 0.318359
vt 0.015625 0.318359
vt 0.136719 0.318359
vt 0.197266 0.318359
vt 0.257812 0.318359
vt 0.318359 0.318359
vt 0.378906 0.318359
vt 0.439453 0.318359
vt 0.500000 0.318359
vt 0.560547 0.318359
vt 0.621094 0.318359
vt 0.681641 0.318359
vt 0.742188 0.318359
vt 0.802734 0.318359
vt 0.863281 0.318359
vt 0.923828 0.318359
vt 0.984375 0.318359
vt 0.076172 0.378906
vt 0.015625 0.378906
vt 0.136719 0.378906
vt 0.197266 0.378906
vt 0.257812 0.378906
vt 0.318359 0.378906
vt 0.378906 0.378906
vt 0.439453 0.378906
vt 0.500000 0.378906
vt 0.560547 0.378906
vt 0.621094 0.378906
vt 0.681641 0.378906
vt 0.742188 0.378906
vt 0.802734 0.378906
vt 0.863281 0.378906
vt 0.923828 0.378906
vt 0.984375 0.378906
vt 0.076172 0.439453
vt 0.015625 0.439453
vt 0.136719 0.439453
vt 0.197266 0.439453
vt 0.257812 0.439453
vt 0.318359 0.439453
vt 0.378906 0.439453
vt 0.439453 0.439453
vt 0.500000 0.439453
vt 0.560547 0.439453
vt 0.621094 0.439453
vt 0.681641 0.439453
vt 0.742188 0.439453
vt 0.802734 0.439453
vt 0.863281 0.439453
vt 0.923828 0.439453
vt 0.984375 0.439453
vt 0.076172 0.500000
vt 0.015625 0.500000
vt 0.136719 0.500000
vt 0.197266 0.500000
vt 0.257812 0.500000
vt 0.318359 0.500000
vt 0.378906 0.500000
vt 0.439453 0.500000
vt 0.500000 0.500000
vt 0.560547 0.500000
vt 0.621094 0.500000
vt 0.681641 0.500000
vt 0.742188 0.500000
vt 0.802734 0.500000
vt 0.863281 0.500000
vt 0.923828 0.500000
vt 0.984375 0.500000
vt 0.076172 0.560547
vt 0.015625 0.560547
vt 0.136719 0.560547
vt 0.197266 0.560547
vt 0.257812 0.560547
vt 0.318359 0.560547
vt 0.378906 0.560547
vt 0.439453 0.560547
vt 0.500000 0.560547
vt 0.560547 0.560547
vt 0.621094 0.560547
vt 0.681641 0.560547
vt 0.742188 0.560547
vt 0.802734 0.560547
vt 0.863281 0.560547
vt 0.923828 0.560547
vt 0.984375 0.560547
vt 0.076172 0.621094
vt 0.015625 0.621094
vt 0.136719 0.621094
vt 0.197266 0.621094
vt 0.257812 0.621094
vt 0.318359 0.621094
vt 0.378906 0.621094
vt 0.439453 0.621094
vt 0.500000 0.621094
vt 0.560547 0.621094
vt 0.621094 0.621094
vt 0.681641 0.621094
vt 0.742188 0.621094
vt 0.802734 0.621094
vt 0.863281 0.621094
vt 0.923828 0.621094
vt 0.984375 0.621094
vt 0.076172 0.681641
vt 0.015625 0.681641
vt 0.136719 0.681641
vt 0.197266 0.681641
vt 0.257812 0.681641
vt 0.318359 0.681641
vt 0.378906 0.681641
vt 0.439453 0.681641
vt 0.500000 0.681641
vt 0.560547 0.681641
vt 0.621094 0.681641
vt 0.681641 0.681641
vt 0.742188 0.681641
vt 0.802734 0.681641
vt 0.863281 0.681641
vt 0.923828 0.681641
vt 0.984375 0.681641
vt 0.076172 0.742188
vt 0.015625 0.742188
vt 0.136719 0.742188
vt 0.197266 0.742188
vt 0.257812 0.742188
vt 0.318359 0.742188
vt 0.378906 0.742188
vt 0.439453 0.742188
vt 0.500000 0.742188
vt 0.560547 0.742188
vt 0.621094 0.742188
vt 0.681641 0.742188
vt 0.742188 0.742188
vt 0.802734 0.742188
vt 0.863281 0.742188
vt 0.923828 0.742188
vt 0.984375 0.742188
vt 0.076172 0.802734
vt 0.015625 0.802734
vt 0.136719 0.802734
vt 0.197266 0.802734
vt 0.257812 0.802734
vt 0.318359 0.802734
vt 0.378906 0.802734
vt 0.439453 0.802734
vt 0.500000 0.802734
vt 0.560547 0.802734
vt 0.621094 0.802734
vt 0.681641 0.802734
vt 0.742188 0.802734
vt 0.802734 0.802734
vt 0.863281 0.802734
vt 0.923828 0.802734
vt 0.984375 0.802734
vt 0.076172 0.863281
vt 0.015625 0.863281
vt 0.136719 0.863281
vt 0.197266 0.863281
vt 0.257812 0.863281
vt 0.318359 0.863281
vt 0.378906 0.863281
vt 0.439453 0.863281
vt 0.500000 0.863281
vt 0.560547 0.863281
vt 0.621094 0.863281
vt 0.681641 0.863281
vt 0.742188 0.863281
vt 0.802734 0.863281
vt 0.863281 0.863281
vt 0.923828 0.863281
vt 0.984375 0.863281
vt 0.076172 0.923828
vt 0.015625 0.923828
vt 0.136719 0.923828
vt 0.197266 0.923828
vt 0.257812 0.923828
vt 0.318359 0.923828
vt 0.378906 0.923828
vt 0.439453 0.923828
vt 0.500000 0.923828
vt 0.560547 0.923828
vt 0.621094 0.923828
vt 0.681641 0.923828
vt 0.742188 0.923828
vt 0.802734 0.923828
vt 0.863281 0.923828
vt 0.923828 0.923828
vt 0.984375 0.923828
vt 0.076172 0.984375
vt 0.015625 0.984375
vt 0.136719 0.984375
vt 0.197266 0.984375
vt 0.257812 0.984375
vt 0.318359 0.984375
vt 0.378906 0.984375
vt 0.439453 0.984375
vt 0.500000 0.984375
vt 0.560547 0.984375
vt 0.621094 0.984375
vt 0.681641 0.984375
vt 0.742188 0.984375
vt 0.802734 0.984375
vt 0.863281 0.984375
vt 0.923828 0.984375
vt 0.984375 0.984375
s 1
f 1/1/1 2/2/2 19/3/3
f 1/1/1 19/3/3 18/4/4
f 2/2/2 3/5/5 20/6/6
f 2/2/2 20/6/6 19/3/3
f 3/5/5 4/7/7 21/8/8
f 3/5/5 21/8/8 20/6/6
f 4/7/7 5/9/9 22/10/10
f 4/7/7 22/10/10 21/8/8
f 5/9/9 6/11/11 23/12/12
f 5/9/9 23/12/12 22/10/10
f 6/11/11 7/13/13 24/14/14
f 6/11/11 24/14/14 23/12/12
f 7/13/13 8/15/15 25/16/16
f 7/13/13 25/16/16 24/14/14
f 8/15/15 9/17/17 26/18/18
f 8/15/15 26/18/18 25/16/16
f 9/17/17 10/19/19 27/20/20
f 9/17/17 27/20/20 26/18/18
f 10/19/19 11/21/21 28/22/22
f 10/19/19 28/22/22 27/20/20
f 11/21/21 12/23/23 29/24/24
f 11/21/21 29/24/24 28/22/22
f 12/23/23 13/25/25 30/26/26
f 12/23/23 30/26/26 29/24/24
f 13/25/25 14/27/27 31/28/28
f 13/25/25 31/28/28 30/26/26
f 14/27/27 15/29/29 32/30/30
f 14/27/27 32/30/30 31/28/28
f 15/29/29 16/31/31 33/32/32
f 15/29/29 33/32/32 32/30/30
f 16/31/31 17/33/33 34/34/34
f 16/31/31 34/34/34 33/32/32
f 18/4/4 19/3/3 36/35/35
f 18/4/4 36/35/35 35/36/36
f 19/3/3 20/6/6 37/37/37
f 19/3/3 37/37/37 36/35/35
f 20/6/6 21/8/8 38/38/38
f 20/6/6 38/38/38 37/37/37
f 21/8/8 22/10/10 39/39/39
f 21/8/8 39/39/39 38/38/38
f 22/10/10 23/12/12 40/40/40
f 22/10/10 40/40/40 39/39/39
f 23/12/12 24/14/14 41/41/41
f 23/12/12 41/41/41 40/40/40
f 24/14/14 25/16/16 42/42/42
f 24/14/14 42/42/42 41/41/41
f 25/16/16 26/18/18 43/43/43
f 25/16/16 43/43/43 42/42/42
f 26/18/18 27/20/20 44/44/44
f 26/18/18 44/44/44 43/43/43
f 27/20/20 28/22/22 45/45/45
f 27/20/20 45/45/45 44/44/44
f 28/22/22 29/24/24 46/46/46
f 28/22/22 46/46/46 45/45/45
f 29/24/24 30/26/26 47/47/47
f 29/24/24 47/47/47 46/46/46
f 30/26/26 31/28/28 48/48/48
f 30/26/26 48/48/48 47/47/47
f 31/28/28 32/30/30 49/49/49
f 31/28/28 49/49/49 48/48/48
f 32/30/30 33/32/32 50/50/50
f 32/30/30 50/50/50 49/49/49
f 33/32/32 34/34/34 51/51/51
f 33/32/32 51/51/51 50/50/50
f 35/36/36 36/35/35 53/52/52
f 35/36/36 53/52/52 52/53/53
f 36/35/35 37/37/37 54/54/54
f 36/35/35 54/54/54 53/52/52
f 37/37/37 38/38/38 55/55/55
f 37/37/37 55/55/55 54/54/54
f 38/38/38 39/39/39 56/56/56
f 38/38/38 56/56/56 55/55/55
f 39/39/39 40/40/40 57/57/57
f 39/39/39 57/57/57 56/56/56
f 40/40/40 41/41/41 58/58/58
f 40/40/40 58/58/58 57/57/57
f 41/41/41 42/42/42 59/59/59
f 41/41/41 59/59/59 58/58/58
f 42/42/42 43/43/43 60/60/60
f 42/42/42 60/60/60 59/59/59
f 43/43/43 44/44/44 61/61/61
f 43/43/43 61/61/61 60/60/60
f 44/44/44 45/45/45 62/62/62
f 44/44/44 62/62/62 61/61/61
f 45/45/45 46/46/46 63/63/63
f 45/45/45 63/63/63 62/62/62
f 46/46/46 47/47/47 64/64/64
f 46/46/46 64/64/64 63/63/63
f 47/47/47 48/48/48 65/65/65
f 47/47/47 65/65/65 64/64/64
f 48/48/48 49/49/49 66/66/66
f 48/48/48 66/66/66 65/65/65
f 49/49/49 50/50/50 67/67/67
f 49/49/49 67/67/67 66/66/66
f 50/50/50 51/51/51 68/68/68
f 50/50/50 68/68/68 67/67/67
f 52/53/53 53/52/52 70/69/69
f 52/53/53 70/69/69 69/70/70
f 53/52/52 54/54/54 71/71/71
f 53/52/52 71/71/71 70/69/69
f 54/54/54 55/55/55 72/72/72
f 54/54/54 72/72/72 71/71/71
f 55/55/55 56/56/56 73/73/73
f 55/55/55 73/73/73 72/72/72
f 56/56/56 57/57/57 74/74/74
f 56/56/56 74/74/74 73/73/73
f 57/57/57 58/58/58 75/75/75
f 57/57/57 75/75/75 74/74/74
f 58/58/58 59/59/59 76/76/76
f 58/58/58 76/76/76 75/75/75
f 59/59/59 60/60/60 77/77/77
f 59/59/59 77/77/77 76/76/76
f 60/60/60 61/61/61 78/78/78
f 60/60/60 78/78/78 77/77/77
f 61/61/61 62/62/62 79/79/79
f 61/61/61 79/79/79 78/78/78
f 62/62/62 63/63/63 80/80/80
f 62/62/62 80/80/80 79/79/79
f 63/63/63 64/64/64 81/81/81
f 63/63/63 81/81/81 80/80/80
f 64/64/64 65/65/65 82/82/82
f 64/64/64 82/82/82 81/81/81
f 65/65/65 66/66/66 83/83/83
f 65/65/65 83/83/83 82/82/82
f 66/66/66 67/67/67 84/84/84
f 66/66/66 84/84/84 83/83/83
f 67/67/67 68/68/68 85/85/85
f 67/67/67 85/85/85 84/84/84
f 69/70/70 70/69/69 87/86/86
f 69/70/70 87/86/86 86/87/87
f 70/69/69 71/71/71 88/88/88
f 70/69/69 88/88/88 87/86/86
f 71/71/71 72/72/72 89/89/89
f 71/71/71 89/89/89 88/88/88
f 72/72/72 73/73/73 90/90/90
f 72/72/72 90/90/90 89/89/89
f 73/73/73 74/74/74 91/91/91
f 73/73/73 91/91/91 90/90/90
f 74/74/74 75/75/75 92/92/92
f 74/74/74 92/92/92 91/91/91
f 75/75/75 76/76/76 93/93/93
f 75/75/75 93/93/93 92/92/92
f 76/76/76 77/77/77 94/94/94
f 76/76/76 94/94/94 93/93/93
f 77/77/77 78/78/78 95/95/95
f 77/77/77 95/95/95 94/94/94
f 78/78/78 79/79/79 96/96/96
f 78/78/78 96/96/96 95/95/95
f 79/79/79 80/80/80 97/97/97
f 79/79/79 97/97/97 96/96/96
f 80/80/80 81/81/81 98/98/98
f 80/80/80 98/98/98 97/97/97
f 81/81/81 82/82/82 99/99/99
f 81/81/81 99/99/99 98/98/98
f 82/82/82 83/83/83 100/100/100
f 82/82/82 100/100/100 99/99/99
f 83/83/83 84/84/84 101/101/101
f 83/83/83 101/101/101 100/100/100
f 84/84/84 85/85/85 102/102/102
f 84/84/84 102/102/102 101/101/101
f 86/87/87 87/86/86 104/103/103
f 86/87/87 104/103/103 103/104/104
f 87/86/86 88/88/88 105/105/105
f 87/86/86 105/105/105 104/103/103
f 88/88/88 89/89/89 106/106/106
f 88/88/88 106/106/106 105/105/105
f 89/89/89 90/90/90 107/107/107
f 89/89/89 107/107/107 106/106/106
f 90/90/90 91/91/91 108/108/108
f 90/90/90 108/108/108 107/107/107
f 91/91/91 92/92/92 109/109/109
f 91/91/91 109/109/109 108/108/108
f 92/92/92 93/93/93 110/110/110
f 92/92/92 110/110/110 109/109/109
f 93/93/93 94/94/94 111/111/111
f 93/93/93 111/111/111 110/110/110
f 94/94/94 95/95/95 112/112/112
f 94/94/94 112/112/112 111/111/111
f 95/95/95 96/96/96 113/113/113
f 95/95/95 113/113/113 112/112/112
f 96/96/96 97/97/97 114/114/114
f 96/96/96 114/114/114 113/113/113
f 97/97/97 98/98/98 115/115/115
f 97/97/97 115/115/115 114/114/114
f 98/98/98 99/99/99 116/116/116
f 98/98/98 116/116/116 115/115/115
f 99/99/99 100/100/100 117/117/117
f 99/99/99 117/117/117 116/116/116
f 100/100/100 101/101/101 118/118/118
f 100/100/100 118/118/118 117/117/117
f 101/101/101 102/102/102 119/119/119
f 101/101/101 119/119/119 118/118/118
f 103/104/104 104/103/103 121/120/120
f 103/104/104 121/120/120 120/121/121
f 104/103/103 105/105/105 122/122/122
f 104/103/103 122/122/122 121/120/120
f 105/105/105 106/106/106 123/123/123
f 105/105/105 123/123/123 122/122/122
f 106/106/106 107/107/107 124/124/124
f 106/106/106 124/124/124 123/123/123
f 107/107/107 108/108/108 125/125/125
f 107/107/107 125/125/125 124/124/124
f 108/108/108 109/109/109 126/126/126
f 108/108/108 126/126/126 125/125/125
f 109/109/109 110/110/110 127/127/127
f 109/109/109 127/127/127 126/126/126
f 110/110/110 111/111/111 128/128/128
f 110/110/110 128/128/128 127/127/127
f 111/111/111 112/112/112 129/129/129
f 111/111/111 129/129/129 128/128/128
f 112/112/112 113/113/113 130/130/130
f 112/112/112 130/130/130 129/129/129
f 113/113/113 114/114/114 131/131/131
f 113/113/113 131/131/131 130/130/130
f 114/114/114 115/115/115 132/132/132
f 114/114/114 132/132/132 131/131/131
f 115/115/115 116/116/116 133/133/133
f 115/115/115 133/133/133 132/132/132
f 116/116/116 117/117/117 134/134/134
f 116/116/116 134/134/134 133/133/133
f 117/117/117 118/118/118 135/135/135
f 117/117/117 135/135/135 134/134/134
f 118/118/118 119/119/119 136/136/136
f 118/118/118 136/136/136 135/135/135
f 120/121/121 121/120/120 138/137/137
f 120/121/121 138/137/137 137/138/138
f 121/120/120 122/122/122 139/139/139
f 121/120/120 139/139/139 138/137/137
f 122/122/122 123/123/123 140/140/140
f 122/122/122 140/140/140 139/139/139
f 123/123/123 124/124/124 141/141/141
f 123/123/123 141/141/141 140/140/140
f 124/124/124 125/125/125 142/142/142
f 124/124/124 142/142/142 141/141/141
f 125/125/125 126/126/126 143/143/143
f 125/125/125 143/143/143 142/142/142
f 126/126/126 127/127/127 144/144/144
f 126/126/126 144/144/144 143/143/143
f 127/127/127 128/128/128 145/145/145
f 127/127/127 145/145/145 144/144/144
f 128/128/128 129/129/129 146/146/146
f 128/128/128 146/146/146 145/145/145
f 129/129/129 130/130/130 147/147/147
f 129/129/129 147/147/147 146/146/146
f 130/130/130 131/131/131 148/148/148
f 130/130/130 148/148/148 147/147/147
f 131/131/131 132/132/132 149/149/149
f 131/131/131 149/149/149 148/148/148
f 132/132/132 133/133/133 150/150/150
f 132/132/132 150/150/150 149/149/149
f 133/133/133 134/134/134 151/151/151
f 133/133/133 151/151/151 150/150/150
f 134/134/134 135/135/135 152/152/152
f 134/134/134 152/152/152 151/151/151
f 135/135/135 136/136/136 153/153/153
f 135/135/135 153/153/153 152/152/152
f 137/138/138 138/137/137 155/154/154
f 137/138/138 155/154/154 154/155/155
f 138/137/137 139/139/139 156/156/156
f 138/137/137 156/156/156 155/154/154
f 139/139/139 140/140/140 157/157/157
f 139/139/139 157/157/157 156/156/156
f 140/140/140 141/141/141 158/158/158
f 140/140/140 158/158/158 157/157/157
f 141/141/141 142/142/142 159/159/159
f 141/141/141 159/159/159 158/158/158
f 142/142/142 143/143/143 160/160/160
f 142/142/142 160/160/160 159/159/159
f 143/143/143 144/144/144 161/161/161
f 143/143/143 161/161/161 160/160/160
f 144/144/144 145/145/145 162/162/162
f 144/144/144 162/162/162 161/161/161
f 145/145/145 146/146/146 163/163/163
f 145/145/145 163/163/163 162/162/162
f 146/146/146 147/147/147 164/164/164
f 146/146/146 164/164/164 163/163/163
f 147/147/147 148/148/148 165/165/165
f 147/147/147 165/165/165 164/164/164
f 148/148/148 149/149/149 166/166/166
f 148/148/148 166/166/166 165/165/165
f 149/149/149 150/150/150 167/167/167
f 149/149/149 167/167/167 166/166/166
f 150/150/150 151/151/151 168/168/168
f 150/150/150 168/168/168 167/167/167
f 151/151/151 152/152/152 169/169/169
f 151/151/151 169/169/169 168/168/168
f 152/152/152 153/153/153 170/170/170
f 152/152/152 170/170/170 169/169/169
f 154/155/155 155/154/154 172/171/171
f 154/155/155 172/171/171 171/172/172
f 155/154/154 156/156/156 173/173/173
f 155/154/154 173/173/173 172/171/171
f 156/156/156 157/157/157 174/174/174
f 156/156/156 174/174/174 173/173/173
f 157/157/157 158/158/158 175/175/175
f 157/157/157 175/175/175 174/174/174
f 158/158/158 159/159/159 176/176/176
f 158/158/158 176/176/176 175/175/175
f 159/159/159 160/160/160 177/177/177
f 159/159/159 177/177/177 176/176/176
f 160/160/160 161/161/161 178/178/178
f 160/160/160 178/178/178 177/177/177
f 161/161/161 162/162/162 179/179/179
f 161/161/161 179/179/179 178/178/178
f 162/162/162 163/163/163 180/180/180
f 162/162/162 180/180/180 179/179/179
f 163/163/163 164/164/164 181/181/181
f 163/163/163 181/181/181 180/180/180
f 164/164/164 165/165/165 182/182/182
f 164/164/164 182/182/182 181/181/181
f 165/165/165 166/166/166 183/183/183
f 165/165/165 183/183/183 182/182/182
f 166/166/166 167/167/167 184/184/184
f 166/166/166 184/184/184 183/183/183
f 167/167/167 168/168/168 185/185/185
f 167/167/167 185/185/185 184/184/184
f 168/168/168 169/169/169 186/186/186
f 168/168/168 186/186/186 185/185/185
f 169/169/169 170/170/170 187/187/187
f 169/169/169 187/187/187 186/186/186
f 171/172/172 172/171/171 189/188/188
f 171/172/172 189/188/188 188/189/189
f 172/171/171 173/173/173 190/190/190
f 172/171/171 190/190/190 189/188/188
f 173/173/173 174/174/174 191/191/191
f 173/173/173 191/191/191 190/190/190
f 174/174/174 175/175/175 192/192/192
f 174/174/174 192/192/192 191/191/191
f 175/175/175 176/176/176 193/193/193
f 175/175/175 193/193/193 192/192/192
f 176/176/176 177/177/177 194/194/194
f 176/176/176 194/194/194 193/193/193
f 177/177/177 178/178/178 195/195/195
f 177/177/177 195/195/195 194/194/194
f 178/178/178 179/179/179 196/196/196
f 178/178/178 196/196/196 195/195/195
f 179/179/179 180/180/180 197/197/197
f 179/179/179 197/197/197 196/196/196
f 180/180/180 181/181/181 198/198/198
f 180/180/180 198/198/198 197/197/197
f 181/181/181 182/182/182 199/199/199
f 181/181/181 199/199/199 198/198/198
f 182/182/182 183/183/183 200/200/200
f 182/182/182 200/200/200 199/199/199
f 183/183/183 184/184/184 201/201/201
f 183/183/183 201/201/201 200/200/200
f 184/184/184 185/185/185 202/202/202
f 184/184/184 202/202/202 201/201/201
f 185/185/185 186/186/186 203/203/203
f 185/185/185 203/203/203 202/202/202
f 186/186/186 187/187/187 204/204/204
f 186/186/186 204/204/204 203/203/203
f 188/189/189 189/188/188 206/205/205
f 188/189/189 206/205/205 205/206/206
f 189/188/188 190/190/190 207/207/207
f 189/188/188 207/207/207 206/205/205
f 190/190/190 191/191/191 208/208/208
f 190/190/190 208/208/208 207/207/207
f 191/191/191 192/192/192 209/209/209
f 191/191/191 209/209/209 208/208/208
f 192/192/192 193/193/193 210/210/210
f 192/192/192 210/210/210 209/209/209
f 193/193/193 194/194/194 211/211/211
f 193/193/193 211/211/211 210/210/210
f 194/194/194 195/195/195 212/212/212
f 194/194/194 212/212/212 211/211/211
f 195/195/195 196/196/196 213/213/213
f 195/195/195 213/213/213 212/212/212
f 196/196/196 197/197/197 214/214/214
f 196/196/196 214/214/214 213/213/213
f 197/197/197 198/198/198 215/215/215
f 197/197/197 215/215/215 214/214/214
f 198/198/198 199/199/199 216/216/216
f 198/198/198 216/216/216 215/215/215
f 199/199/199 200/200/200 217/217/217
f 199/199/199 217/217/217 216/216/216
f 200/200/200 201/201/201 218/218/218
f 200/200/200 218/218/218 217/217/217
f 201/201/201 202/202/202 219/219/219
f 201/201/201 219/219/219 218/218/218
f 202/202/202 203/203/203 220/220/220
f 202/202/202 220/220/220 219/219/219
f 203/203/203 204/204/204 221/221/221
f 203/203/203 221/221/221 220/220/220
f 205/206/206 206/205/205 223/222/222
f 205/206/206 223/222/222 222/223/223
f 206/205/205 207/207/207 224/224/224
f 206/205/205 224/224/224 223/222/222
f 207/207/207 208/208/208 225/225/225
f 207/207/207 225/225/225 224/224/224
f 208/208/208 209/209/209 226/226/226
f 208/208/208 226/226/226 225/225/225
f 209/209/209 210/210/210 227/227/227
f 209/209/209 227/227/227 226/226/226
f 210/210/210 211/211/211 228/228/228
f 210/210/210 228/228/228 227/227/227
f 211/211/211 212/212/212 229/229/229
f 211/211/211 229/229/229 228/228/228
f 212/212/212 213/213/213 230/230/230
f 212/212/212 230/230/230 229/229/229
f 213/213/213 214/214/214 231/231/231
f 213/213/213 231/231/231 230/230/230
f 214/214/214 215/215/215 232/232/232
f 214/214/214 232/232/232 231/231/231
f 215/215/215 216/216/216 233/233/233
f 215/215/215 233/233/233 232/232/232
f 216/216/216 217/217/217 234/234/234
f 216/216/216 234/234/234 233/233/233
f 217/217/217 218/218/218 235/235/235
f 217/217/217 235/235/235 234/234/234
f 218/218/218 219/219/219 236/236/236
f 218/218/218 236/236/236 235/235/235
f 219/219/219 220/220/220 237/237/237
f 219/219/219 237/237/237 236/236/236
f 220/220/220 221/221/221 238/238/238
f 220/220/220 238/238/238 237/237/237
f 222/223/223 223/222/222 240/239/239
f 222/223/223 240/239/239 239/240/240
f 223/222/222 224/224/224 241/241/241
f 223/222/222 241/241/241 240/239/239
f 224/224/224 225/225/225 242/242/242
f 224/224/224 242/242/242 241/241/241
f 225/225/225 226/226/226 243/243/243
f 225/225/225 243/243/243 242/242/242
f 226/226/226 227/227/227 244/244/244
f 226/226/226 244/244/244 243/243/243
f 227/227/227 228/228/228 245/245/245
f 227/227/227 245/245/245 244/244/244
f 228/228/228 229/229/229 246/246/246
f 228/228/228 246/246/246 245/245/245
f 229/229/229 230/230/230 247/247/247
f 229/229/229 247/247/247 246/246/246
f 230/230/230 231/231/231 248/248/248
f 230/230/230 248/248/248 247/247/247
f 231/231/231 232/232/232 249/249/249
f 231/231/231 249/249/249 248/248/248
f 232/232/232 233/233/233 250/250/250
f 232/232/232 250/250/250 249/249/249
f 233/233/233 234/234/234 251/251/251
f 233/233/233 251/251/251 250/250/250
f 234/234/234 235/235/235 252/252/252
f 234/234/234 252/252/252 251/251/251
f 235/235/235 236/236/236 253/253/253
f 235/235/235 253/253/253 252/252/252
f 236/236/236 237/237/237 254/254/254
f 236/236/236 254/254/254 253/253/253
f 237/237/237 238/238/238 255/255/255
f 237/237/237 255/255/255 254/254/254
f 239/240/240 240/239/239 257/256/256
f 239/240/240 257/256/256 256/257/257
f 240/239/239 241/241/241 258/258/258
f 240/239/239 258/258/258 257/256/256
f 241/241/241 242/242/242 259/259/259
f 241/241/241 259/259/259 258/258/258
f 242/242/242 243/243/243 260/260/260
f 242/242/242 260/260/260 259/259/259
f 243/243/243 244/244/244 261/261/261
f 243/243/243 261/261/261 260/260/260
f 244/244/244 245/245/245 262/262/262
f 244/244/244 262/262/262 261/261/261
f 245/245/245 246/246/246 263/263/263
f 245/245/245 263/263/263 262/262/262
f 246/246/246 247/247/247 264/264/264
f 246/246/246 264/264/264 263/263/263
f 247/247/247 248/248/248 265/265/265
f 247/247/247 265/265/265 264/264/264
f 248/248/248 249/249/249 266/266/266
f 248/248/248 266/266/266 265/265/265
f 249/249/249 250/250/250 267/267/267
f 249/249/249 267/267/267 266/266/266
f 250/250/250 251/251/251 268/268/268
f 250/250/250 268/268/268 267/267/267
f 251/251/251 252/252/252 269/269/269
f 251/251/251 269/269/269 268/268/268
f 252/252/252 253/253/253 270/270/270
f 252/252/252 270/270/270 269/269/269
f 253/253/253 254/254/254 271/271/271
f 253/253/253 271/271/271 270/270/270
f 254/254/254 255/255/255 272/272/272
f 254/254/254 272/272/272 271/271/271
f 256/257/257 257/256/256 274/273/273
f 256/257/257 274/273/273 273/274/274
f 257/256/256 258/258/258 275/275/275
f 257/256/256 275/275/275 274/273/273
f 258/258/258 259/259/259 276/276/276
f 258/258/258 276/276/276 275/275/275
f 259/259/259 260/260/260 277/277/277
f 259/259/259 277/277/277 276/276/276
f 260/260/260 261/261/261 278/278/278
f 260/260/260 278/278/278 277/277/277
f 261/261/261 262/262/262 279/279/279
f 261/261/261 279/279/279 278/278/278
f 262/262/262 263/263/263 280/280/280
f 262/262/262 280/280/280 279/279/279
f 263/263/263 264/264/264 281/281/281
f 263/263/263 281/281/281 280/280/280
f 264/264/264 265/265/265 282/282/282
f 264/264/264 282/282/282 281/281/281
f 265/265/265 266/266/266 283/283/283
f 265/265/265 283/283/283 282/282/282
f 266/266/266 267/267/267 284/284/284
f 266/266/266 284/284/284 283/283/283
f 267/267/267 268/268/268 285/285/285
f 267/267/267 285/285/285 284/284/284
f 268/268/268 269/269/269 286/286/286
f 268/268/268 286/286/286 285/285/285
f 269/269/269 270/270/270 287/287/287
f 269/269/269 287/287/287 286/286/286
f 270/270/270 271/271/271 288/288/288
f 270/270/270 288/288/288 287/287/287
f 271/271/271 272/272/272 289/289/289
f 271/271/271 289/289/289 288/288/288
