mtllib terrain_mid_02_04.mtl
usemtl terrain_mid_02_04
# Blender 5.1.1
# www.blender.org
o terrain_mid_02_04
v -160.000000 -160.000000 46.143372
v -140.000000 -160.000000 40.648781
v -120.000000 -160.000000 34.712830
v -100.000000 -160.000000 28.342087
v -80.000000 -160.000000 21.455605
v -60.000000 -160.000000 13.615978
v -40.000000 -160.000000 4.749595
v -20.000000 -160.000000 -5.027407
v 0.000000 -160.000000 -14.364286
v 20.000000 -160.000000 -21.408457
v 40.000000 -160.000000 -23.712980
v 60.000000 -160.000000 -21.041689
v 80.000000 -160.000000 -16.082617
v 100.000000 -160.000000 -11.179709
v 120.000000 -160.000000 -7.866728
v 140.000000 -160.000000 -7.671700
v 160.000000 -160.000000 -10.583668
v -160.000000 -140.000000 43.811508
v -140.000000 -140.000000 38.539150
v -120.000000 -140.000000 33.011017
v -100.000000 -140.000000 27.124214
v -80.000000 -140.000000 20.512300
v -60.000000 -140.000000 12.966934
v -40.000000 -140.000000 4.491992
v -20.000000 -140.000000 -4.875911
v 0.000000 -140.000000 -13.057836
v 20.000000 -140.000000 -18.480083
v 40.000000 -140.000000 -19.637928
v 60.000000 -140.000000 -16.808033
v 80.000000 -140.000000 -12.422697
v 100.000000 -140.000000 -8.378657
v 120.000000 -140.000000 -6.291296
v 140.000000 -140.000000 -7.576350
v 160.000000 -140.000000 -11.913779
v -160.000000 -120.000000 41.006161
v -140.000000 -120.000000 36.137131
v -120.000000 -120.000000 31.211843
v -100.000000 -120.000000 25.684511
v -80.000000 -120.000000 19.381882
v -60.000000 -120.000000 12.023588
v -40.000000 -120.000000 3.823417
v -20.000000 -120.000000 -4.552872
v 0.000000 -120.000000 -11.497913
v 20.000000 -120.000000 -15.795412
v 40.000000 -120.000000 -15.975987
v 60.000000 -120.000000 -13.010053
v 80.000000 -120.000000 -9.631953
v 100.000000 -120.000000 -7.418900
v 120.000000 -120.000000 -7.411114
v 140.000000 -120.000000 -10.469681
v 160.000000 -120.000000 -15.972957
v -160.000000 -100.000000 37.820557
v -140.000000 -100.000000 33.257713
v -120.000000 -100.000000 29.065725
v -100.000000 -100.000000 24.038765
v -80.000000 -100.000000 18.067602
v -60.000000 -100.000000 11.030132
v -40.000000 -100.000000 3.514877
v -20.000000 -100.000000 -3.598255
v 0.000000 -100.000000 -9.335756
v 20.000000 -100.000000 -12.898121
v 40.000000 -100.000000 -13.294944
v 60.000000 -100.000000 -10.930544
v 80.000000 -100.000000 -8.736099
v 100.000000 -100.000000 -8.317771
v 120.000000 -100.000000 -10.385764
v 140.000000 -100.000000 -14.820809
v 160.000000 -100.000000 -21.082996
v -160.000000 -80.000000 34.188980
v -140.000000 -80.000000 29.687288
v -120.000000 -80.000000 26.266211
v -100.000000 -80.000000 22.029108
v -80.000000 -80.000000 16.473875
v -60.000000 -80.000000 9.887752
v -40.000000 -80.000000 3.272873
v -20.000000 -80.000000 -2.279583
v 0.000000 -80.000000 -6.993057
v 20.000000 -80.000000 -10.330174
v 40.000000 -80.000000 -11.544164
v 60.000000 -80.000000 -10.750687
v 80.000000 -80.000000 -9.796124
v 100.000000 -80.000000 -10.932530
v 120.000000 -80.000000 -14.457372
v 140.000000 -80.000000 -19.843460
v 160.000000 -80.000000 -26.035524
v -160.000000 -60.000000 29.898182
v -140.000000 -60.000000 25.230101
v -120.000000 -60.000000 22.073637
v -100.000000 -60.000000 18.781841
v -80.000000 -60.000000 13.860123
v -60.000000 -60.000000 7.740941
v -40.000000 -60.000000 1.783479
v -20.000000 -60.000000 -3.371021
v 0.000000 -60.000000 -7.591134
v 20.000000 -60.000000 -10.761876
v 40.000000 -60.000000 -12.201017
v 60.000000 -60.000000 -12.213313
v 80.000000 -60.000000 -12.301956
v 100.000000 -60.000000 -14.250571
v 120.000000 -60.000000 -18.597698
v 140.000000 -60.000000 -24.172922
v 160.000000 -60.000000 -28.900433
v -160.000000 -40.000000 24.825970
v -140.000000 -40.000000 19.911457
v -120.000000 -40.000000 16.969074
v -100.000000 -40.000000 14.400219
v -80.000000 -40.000000 10.201137
v -60.000000 -40.000000 4.594124
v -40.000000 -40.000000 -0.788013
v -20.000000 -40.000000 -5.455907
v 0.000000 -40.000000 -9.168466
v 20.000000 -40.000000 -12.160110
v 40.000000 -40.000000 -13.924251
v 60.000000 -40.000000 -14.588163
v 80.000000 -40.000000 -15.581436
v 100.000000 -40.000000 -18.005590
v 120.000000 -40.000000 -22.366802
v 140.000000 -40.000000 -26.520401
v 160.000000 -40.000000 -28.097239
v -160.000000 -20.000000 18.835012
v -140.000000 -20.000000 13.794601
v -120.000000 -20.000000 11.091660
v -100.000000 -20.000000 8.985845
v -80.000000 -20.000000 5.393756
v -60.000000 -20.000000 0.408117
v -40.000000 -20.000000 -4.281950
v -20.000000 -20.000000 -8.139928
v 0.000000 -20.000000 -11.289180
v 20.000000 -20.000000 -14.094172
v 40.000000 -20.000000 -16.243845
v 60.000000 -20.000000 -17.713524
v 80.000000 -20.000000 -19.329613
v 100.000000 -20.000000 -21.921728
v 120.000000 -20.000000 -25.359873
v 140.000000 -20.000000 -26.907494
v 160.000000 -20.000000 -24.042591
v -160.000000 0.000000 12.805516
v -140.000000 0.000000 7.779709
v -120.000000 0.000000 4.926190
v -100.000000 0.000000 2.677641
v -80.000000 0.000000 -0.523589
v -60.000000 0.000000 -4.432449
v -40.000000 0.000000 -8.227134
v -20.000000 0.000000 -11.212499
v 0.000000 0.000000 -13.918201
v 20.000000 0.000000 -16.557489
v 40.000000 0.000000 -18.740629
v 60.000000 0.000000 -20.419415
v 80.000000 0.000000 -22.192568
v 100.000000 0.000000 -24.324411
v 120.000000 0.000000 -25.072790
v 140.000000 0.000000 -22.686382
v 160.000000 0.000000 -17.886999
v -160.000000 20.000000 8.103890
v -140.000000 20.000000 3.627863
v -120.000000 20.000000 0.755610
v -100.000000 20.000000 -2.024209
v -80.000000 20.000000 -5.163210
v -60.000000 20.000000 -8.499907
v -40.000000 20.000000 -11.628555
v -20.000000 20.000000 -14.154733
v 0.000000 20.000000 -16.456383
v 20.000000 20.000000 -18.723173
v 40.000000 20.000000 -20.604271
v 60.000000 20.000000 -22.064678
v 80.000000 20.000000 -23.357655
v 100.000000 20.000000 -24.182741
v 120.000000 20.000000 -22.016014
v 140.000000 20.000000 -17.525867
v 160.000000 20.000000 -11.649240
v -160.000000 40.000000 6.408330
v -140.000000 40.000000 3.293638
v -120.000000 40.000000 0.590222
v -100.000000 40.000000 -2.802814
v -80.000000 40.000000 -6.798437
v -60.000000 40.000000 -10.550654
v -40.000000 40.000000 -13.730451
v -20.000000 40.000000 -16.252029
v 0.000000 40.000000 -18.297588
v 20.000000 40.000000 -19.959148
v 40.000000 40.000000 -21.147436
v 60.000000 40.000000 -21.964134
v 80.000000 40.000000 -22.367271
v 100.000000 40.000000 -21.013742
v 120.000000 40.000000 -16.722244
v 140.000000 40.000000 -11.389155
v 160.000000 40.000000 -5.761775
v -160.000000 60.000000 10.712444
v -140.000000 60.000000 8.188437
v -120.000000 60.000000 5.197630
v -100.000000 60.000000 0.714659
v -80.000000 60.000000 -4.253644
v -60.000000 60.000000 -8.752599
v -40.000000 60.000000 -12.531069
v -20.000000 60.000000 -15.490148
v 0.000000 60.000000 -16.875029
v 20.000000 60.000000 -17.493715
v 40.000000 60.000000 -17.802641
v 60.000000 60.000000 -17.876610
v 80.000000 60.000000 -17.479582
v 100.000000 60.000000 -15.682911
v 120.000000 60.000000 -10.789546
v 140.000000 60.000000 -5.127084
v 160.000000 60.000000 0.322223
v -160.000000 80.000000 18.891146
v -140.000000 80.000000 15.948718
v -120.000000 80.000000 11.823054
v -100.000000 80.000000 6.321599
v -80.000000 80.000000 0.406489
v -60.000000 80.000000 -4.759991
v -40.000000 80.000000 -9.345603
v -20.000000 80.000000 -12.726117
v 0.000000 80.000000 -13.332637
v 20.000000 80.000000 -12.930300
v 40.000000 80.000000 -12.389962
v 60.000000 80.000000 -11.827578
v 80.000000 80.000000 -10.931778
v 100.000000 80.000000 -9.266305
v 120.000000 80.000000 -4.876382
v 140.000000 80.000000 0.698027
v 160.000000 80.000000 6.220857
v -160.000000 100.000000 26.985617
v -140.000000 100.000000 22.768896
v -120.000000 100.000000 17.472702
v -100.000000 100.000000 11.198284
v -80.000000 100.000000 5.038722
v -60.000000 100.000000 -0.440916
v -40.000000 100.000000 -5.357254
v -20.000000 100.000000 -8.626325
v 0.000000 100.000000 -8.354725
v 20.000000 100.000000 -6.995994
v 40.000000 100.000000 -5.915977
v 60.000000 100.000000 -4.917293
v 80.000000 100.000000 -3.634964
v 100.000000 100.000000 -2.181809
v 120.000000 100.000000 0.965296
v 140.000000 100.000000 5.970627
v 160.000000 100.000000 11.703777
v -160.000000 120.000000 33.626190
v -140.000000 120.000000 28.234793
v -120.000000 120.000000 21.931599
v -100.000000 120.000000 15.329951
v -80.000000 120.000000 9.057948
v -60.000000 120.000000 3.307093
v -40.000000 120.000000 -1.630915
v -20.000000 120.000000 -3.747696
v 0.000000 120.000000 -2.614521
v 20.000000 120.000000 -0.877952
v 40.000000 120.000000 0.408015
v 60.000000 120.000000 1.730369
v 80.000000 120.000000 3.382862
v 100.000000 120.000000 5.045459
v 120.000000 120.000000 7.218948
v 140.000000 120.000000 11.070796
v 160.000000 120.000000 16.556622
v -160.000000 140.000000 38.478878
v -140.000000 140.000000 32.083878
v -120.000000 140.000000 25.214523
v -100.000000 140.000000 18.470318
v -80.000000 140.000000 12.207657
v -60.000000 140.000000 6.557106
v -40.000000 140.000000 2.562956
v -20.000000 140.000000 1.860367
v 0.000000 140.000000 3.684043
v 20.000000 140.000000 5.530512
v 40.000000 140.000000 6.799427
v 60.000000 140.000000 8.235807
v 80.000000 140.000000 10.105609
v 100.000000 140.000000 12.153013
v 120.000000 140.000000 13.811356
v 140.000000 140.000000 16.497261
v 160.000000 140.000000 21.184622
v -160.000000 160.000000 41.470493
v -140.000000 160.000000 34.392632
v -120.000000 160.000000 27.154160
v -100.000000 160.000000 20.259872
v -80.000000 160.000000 14.216385
v -60.000000 160.000000 9.908279
v -40.000000 160.000000 7.997506
v -20.000000 160.000000 8.557676
v 0.000000 160.000000 10.576146
v 20.000000 160.000000 12.384513
v 40.000000 160.000000 13.585803
v 60.000000 160.000000 14.822484
v 80.000000 160.000000 16.661798
v 100.000000 160.000000 18.930178
v 120.000000 160.000000 20.744204
v 140.000000 160.000000 22.592989
v 160.000000 160.000000 25.778706
vn 0.2618 0.1035 0.9596
vn 0.2736 0.0906 0.9576
vn 0.2591 0.1082 0.9598
vn 0.2482 0.1234 0.9608
vn 0.2933 0.0705 0.9534
vn 0.2733 0.0837 0.9583
vn 0.3142 0.0486 0.9481
vn 0.2976 0.0633 0.9526
vn 0.3453 0.0338 0.9379
vn 0.3333 0.0489 0.9415
vn 0.3853 0.0190 0.9226
vn 0.3715 0.0371 0.9277
vn 0.4224 0.0050 0.9064
vn 0.4073 0.0211 0.9131
vn 0.4311 -0.0065 0.9023
vn 0.4017 -0.0109 0.9157
vn 0.3786 -0.0466 0.9244
vn 0.3212 -0.0677 0.9446
vn 0.2259 -0.1210 0.9666
vn 0.1608 -0.1371 0.9774
vn -0.0090 -0.1948 0.9808
vn -0.0410 -0.1897 0.9810
vn -0.1833 -0.2069 0.9610
vn -0.1741 -0.1938 0.9655
vn -0.2352 -0.1859 0.9540
vn -0.2038 -0.1558 0.9665
vn -0.1986 -0.1605 0.9669
vn -0.1508 -0.0925 0.9842
vn -0.0867 -0.1214 0.9888
vn -0.0200 -0.0114 0.9997
vn 0.0677 -0.0591 0.9960
vn 0.1388 0.0691 0.9879
vn 0.2071 0.0069 0.9783
vn 0.2623 0.1288 0.9563
vn 0.2359 0.1272 0.9634
vn 0.2353 0.1439 0.9612
vn 0.2519 0.0952 0.9631
vn 0.2829 0.0740 0.9563
vn 0.3224 0.0577 0.9448
vn 0.3622 0.0451 0.9310
vn 0.3827 0.0226 0.9236
vn 0.3575 -0.0298 0.9334
vn 0.2695 -0.0892 0.9589
vn 0.1102 -0.1374 0.9844
vn -0.0686 -0.1563 0.9853
vn -0.1550 -0.1436 0.9774
vn -0.1378 -0.0909 0.9863
vn -0.0554 -0.0015 0.9985
vn 0.0757 0.1015 0.9920
vn 0.2061 0.1744 0.9629
vn 0.2943 0.2135 0.9316
vn 0.2112 0.1556 0.9650
vn 0.2314 0.1634 0.9590
vn 0.2226 0.1193 0.9676
vn 0.2641 0.0878 0.9605
vn 0.3085 0.0689 0.9487
vn 0.3414 0.0501 0.9386
vn 0.3434 0.0129 0.9391
vn 0.3054 -0.0540 0.9507
vn 0.2251 -0.1090 0.9682
vn 0.0976 -0.1347 0.9861
vn -0.0487 -0.1101 0.9927
vn -0.1131 -0.0560 0.9920
vn -0.0652 0.0041 0.9979
vn 0.0411 0.0874 0.9953
vn 0.1581 0.1713 0.9725
vn 0.2520 0.2208 0.9422
vn 0.3046 0.2324 0.9237
vn 0.1906 0.1931 0.9625
vn 0.2385 0.1887 0.9526
vn 0.1853 0.1691 0.9680
vn 0.2359 0.1267 0.9635
vn 0.2890 0.1001 0.9521
vn 0.3124 0.0778 0.9468
vn 0.2907 0.0414 0.9559
vn 0.2486 -0.0055 0.9686
vn 0.1971 -0.0427 0.9794
vn 0.1129 -0.0530 0.9922
vn 0.0104 -0.0273 0.9996
vn -0.0436 0.0320 0.9985
vn 0.0045 0.0888 0.9960
vn 0.1145 0.1458 0.9827
vn 0.2132 0.1965 0.9571
vn 0.2713 0.2191 0.9372
vn 0.2794 0.1842 0.9424
vn 0.1867 0.2332 0.9543
vn 0.2449 0.2210 0.9440
vn 0.1551 0.2236 0.9623
vn 0.1978 0.1837 0.9629
vn 0.2631 0.1495 0.9531
vn 0.2866 0.1256 0.9498
vn 0.2664 0.0974 0.9589
vn 0.2275 0.0770 0.9707
vn 0.1815 0.0534 0.9819
vn 0.1144 0.0454 0.9924
vn 0.0362 0.0594 0.9976
vn 0.0027 0.0957 0.9954
vn 0.0503 0.1429 0.9885
vn 0.1532 0.1721 0.9731
vn 0.2364 0.1885 0.9532
vn 0.2462 0.1596 0.9560
vn 0.1546 0.0509 0.9867
vn 0.1856 0.2701 0.9448
vn 0.2495 0.2581 0.9333
vn 0.1317 0.2624 0.9559
vn 0.1621 0.2347 0.9585
vn 0.2333 0.2015 0.9513
vn 0.2609 0.1741 0.9496
vn 0.2411 0.1455 0.9595
vn 0.2037 0.1159 0.9722
vn 0.1646 0.0909 0.9822
vn 0.1176 0.0825 0.9896
vn 0.0603 0.1004 0.9931
vn 0.0410 0.1361 0.9899
vn 0.0838 0.1724 0.9814
vn 0.1643 0.1858 0.9687
vn 0.2054 0.1631 0.9650
vn 0.1415 0.0675 0.9876
vn -0.0183 -0.1205 0.9925
vn 0.1818 0.2855 0.9410
vn 0.2536 0.2784 0.9264
vn 0.1144 0.2864 0.9513
vn 0.1358 0.2789 0.9507
vn 0.2028 0.2536 0.9458
vn 0.2296 0.2142 0.9494
vn 0.2056 0.1789 0.9621
vn 0.1708 0.1403 0.9753
vn 0.1462 0.1166 0.9824
vn 0.1222 0.1085 0.9866
vn 0.0894 0.1190 0.9889
vn 0.0761 0.1438 0.9867
vn 0.1032 0.1622 0.9813
vn 0.1473 0.1543 0.9770
vn 0.1234 0.0670 0.9901
vn -0.0328 -0.0954 0.9949
vn -0.1934 -0.2427 0.9506
vn 0.1875 0.2420 0.9520
vn 0.2540 0.2506 0.9342
vn 0.1226 0.2483 0.9609
vn 0.1302 0.2631 0.9560
vn 0.1694 0.2515 0.9529
vn 0.1848 0.2137 0.9593
vn 0.1644 0.1782 0.9702
vn 0.1393 0.1473 0.9792
vn 0.1314 0.1271 0.9831
vn 0.1188 0.1141 0.9863
vn 0.0955 0.1078 0.9896
vn 0.0855 0.1077 0.9905
vn 0.0967 0.0997 0.9903
vn 0.0717 0.0563 0.9958
vn -0.0408 -0.0832 0.9957
vn -0.1723 -0.2249 0.9590
vn -0.2506 -0.2865 0.9247
vn 0.1796 0.1097 0.9776
vn 0.2346 0.1535 0.9599
vn 0.1391 0.1067 0.9845
vn 0.1450 0.1343 0.9803
vn 0.1579 0.1530 0.9755
vn 0.1578 0.1493 0.9761
vn 0.1387 0.1350 0.9811
vn 0.1189 0.1241 0.9851
vn 0.1127 0.1081 0.9877
vn 0.1028 0.0843 0.9911
vn 0.0831 0.0598 0.9947
vn 0.0686 0.0385 0.9969
vn 0.0529 0.0043 0.9986
vn -0.0334 -0.0824 0.9960
vn -0.1609 -0.2016 0.9662
vn -0.2419 -0.2638 0.9338
vn -0.2758 -0.2788 0.9199
vn 0.1430 -0.1121 0.9833
vn 0.1781 -0.0640 0.9819
vn 0.1498 -0.1091 0.9827
vn 0.1813 -0.0671 0.9811
vn 0.1899 -0.0224 0.9815
vn 0.1708 0.0062 0.9853
vn 0.1410 0.0224 0.9898
vn 0.1134 0.0332 0.9930
vn 0.0923 0.0104 0.9957
vn 0.0710 -0.0307 0.9970
vn 0.0500 -0.0699 0.9963
vn 0.0303 -0.1041 0.9941
vn -0.0235 -0.1453 0.9891
vn -0.1367 -0.2059 0.9690
vn -0.2256 -0.2633 0.9380
vn -0.2532 -0.2864 0.9240
vn -0.2675 -0.2763 0.9231
vn 0.1303 -0.2991 0.9453
vn 0.1319 -0.2953 0.9463
vn 0.1770 -0.2661 0.9475
vn 0.2245 -0.2167 0.9501
vn 0.2268 -0.1727 0.9585
vn 0.2006 -0.1404 0.9696
vn 0.1651 -0.1075 0.9804
vn 0.1075 -0.0873 0.9904
vn 0.0496 -0.1230 0.9912
vn 0.0229 -0.1730 0.9847
vn 0.0094 -0.2139 0.9768
vn -0.0078 -0.2456 0.9693
vn -0.0527 -0.2745 0.9601
vn -0.1584 -0.2782 0.9474
vn -0.2453 -0.2753 0.9295
vn -0.2570 -0.2796 0.9251
vn -0.2524 -0.2777 0.9269
vn 0.1639 -0.3379 0.9268
vn 0.1312 -0.3736 0.9183
vn 0.2242 -0.2859 0.9317
vn 0.2661 -0.2444 0.9324
vn 0.2605 -0.2185 0.9404
vn 0.2322 -0.1979 0.9523
vn 0.1924 -0.1732 0.9659
vn 0.0978 -0.1683 0.9809
vn 0.0050 -0.2083 0.9780
vn -0.0228 -0.2538 0.9670
vn -0.0264 -0.2847 0.9582
vn -0.0346 -0.3080 0.9508
vn -0.0604 -0.3265 0.9433
vn -0.1420 -0.3166 0.9379
vn -0.2325 -0.2743 0.9331
vn -0.2583 -0.2583 0.9309
vn -0.2489 -0.2651 0.9316
vn 0.2217 -0.2863 0.9321
vn 0.1785 -0.3401 0.9233
vn 0.2700 -0.2359 0.9335
vn 0.2902 -0.2103 0.9336
vn 0.2737 -0.2032 0.9401
vn 0.2469 -0.1916 0.9499
vn 0.1970 -0.1857 0.9627
vn 0.0729 -0.2184 0.9731
vn -0.0394 -0.2586 0.9652
vn -0.0582 -0.2880 0.9558
vn -0.0494 -0.3044 0.9513
vn -0.0539 -0.3205 0.9457
vn -0.0642 -0.3362 0.9396
vn -0.1077 -0.3349 0.9361
vn -0.1915 -0.2841 0.9395
vn -0.2515 -0.2430 0.9369
vn -0.2591 -0.2416 0.9351
vn 0.2738 -0.2182 0.9367
vn 0.2343 -0.2685 0.9344
vn 0.3020 -0.1812 0.9360
vn 0.3018 -0.1706 0.9380
vn 0.2837 -0.1692 0.9439
vn 0.2546 -0.1666 0.9526
vn 0.1705 -0.1914 0.9666
vn 0.0238 -0.2535 0.9670
vn -0.0685 -0.2875 0.9553
vn -0.0719 -0.2981 0.9518
vn -0.0619 -0.3022 0.9512
vn -0.0705 -0.3116 0.9476
vn -0.0782 -0.3240 0.9428
vn -0.0899 -0.3360 0.9376
vn -0.1419 -0.3026 0.9425
vn -0.2202 -0.2483 0.9433
vn -0.2600 -0.2227 0.9396
vn 0.3114 -0.1446 0.9392
vn 0.2848 -0.1845 0.9407
vn 0.3197 -0.1227 0.9395
vn 0.3071 -0.1164 0.9445
vn 0.2833 -0.1227 0.9512
vn 0.2314 -0.1584 0.9599
vn 0.1134 -0.2325 0.9660
vn -0.0269 -0.2938 0.9555
vn -0.0868 -0.3120 0.9461
vn -0.0737 -0.3139 0.9466
vn -0.0641 -0.3122 0.9478
vn -0.0783 -0.3101 0.9475
vn -0.0926 -0.3137 0.9450
vn -0.0872 -0.3267 0.9411
vn -0.1023 -0.3186 0.9423
vn -0.1744 -0.2726 0.9462
vn -0.2391 -0.2181 0.9462
vn 0.3359 -0.0779 0.9387
vn 0.3219 -0.1035 0.9411
vn 0.3323 -0.0688 0.9406
vn 0.3069 -0.0754 0.9488
vn 0.2488 -0.1181 0.9613
vn 0.1507 -0.1959 0.9690
vn 0.0323 -0.2857 0.9578
vn -0.0609 -0.3226 0.9446
vn -0.0901 -0.3254 0.9413
vn -0.0709 -0.3261 0.9427
vn -0.0575 -0.3262 0.9435
vn -0.0727 -0.3174 0.9455
vn -0.0972 -0.3075 0.9466
vn -0.0965 -0.3102 0.9458
vn -0.0863 -0.3217 0.9429
vn -0.1192 -0.2986 0.9469
vn -0.1867 -0.2310 0.9549
vt 0.015625 0.015625
vt 0.076172 0.015625
vt 0.076172 0.076172
vt 0.015625 0.076172
vt 0.136719 0.015625
vt 0.136719 0.076172
vt 0.197266 0.015625
vt 0.197266 0.076172
vt 0.257812 0.015625
vt 0.257812 0.076172
vt 0.318359 0.015625
vt 0.318359 0.076172
vt 0.378906 0.015625
vt 0.378906 0.076172
vt 0.439453 0.015625
vt 0.439453 0.076172
vt 0.500000 0.015625
vt 0.500000 0.076172
vt 0.560547 0.015625
vt 0.560547 0.076172
vt 0.621094 0.015625
vt 0.621094 0.076172
vt 0.681641 0.015625
vt 0.681641 0.076172
vt 0.742188 0.015625
vt 0.742188 0.076172
vt 0.802734 0.015625
vt 0.802734 0.076172
vt 0.863281 0.015625
vt 0.863281 0.076172
vt 0.923828 0.015625
vt 0.923828 0.076172
vt 0.984375 0.015625
vt 0.984375 0.076172
vt 0.076172 0.136719
vt 0.015625 0.136719
vt 0.136719 0.136719
vt 0.197266 0.136719
vt 0.257812 0.136719
vt 0.318359 0.136719
vt 0.378906 0.136719
vt 0.439453 0.136719
vt 0.500000 0.136719
vt 0.560547 0.136719
vt 0.621094 0.136719
vt 0.681641 0.136719
vt 0.742188 0.136719
vt 0.802734 0.136719
vt 0.863281 0.136719
vt 0.923828 0.136719
vt 0.984375 0.136719
vt 0.076172 0.197266
vt 0.015625 0.197266
vt 0.136719 0.197266
vt 0.197266 0.197266
vt 0.257812 0.197266
vt 0.318359 0.197266
vt 0.378906 0.197266
vt 0.439453 0.197266
vt 0.500000 0.197266
vt 0.560547 0.197266
vt 0.621094 0.197266
vt 0.681641 0.197266
vt 0.742188 0.197266
vt 0.802734 0.197266
vt 0.863281 0.197266
vt 0.923828 0.197266
vt 0.984375 0.197266
vt 0.076172 0.257812
vt 0.015625 0.257812
vt 0.136719 0.257812
vt 0.197266 0.257812
vt 0.257812 0.257812
vt 0.318359 0.257812
vt 0.378906 0.257812
vt 0.439453 0.257812
vt 0.500000 0.257812
vt 0.560547 0.257812
vt 0.621094 0.257812
vt 0.681641 0.257812
vt 0.742188 0.257812
vt 0.802734 0.257812
vt 0.863281 0.257812
vt 0.923828 0.257812
vt 0.984375 0.257812
vt 0.076172 0.318359
vt 0.015625 0.318359
vt 0.136719 0.318359
vt 0.197266 0.318359
vt 0.257812 0.318359
vt 0.318359 0.318359
vt 0.378906 0.318359
vt 0.439453 0.318359
vt 0.500000 0.318359
vt 0.560547 0.318359
vt 0.621094 0.318359
vt 0.681641 0.318359
vt 0.742188 0.318359
vt 0.802734 0.318359
vt 0.863281 0.318359
vt 0.923828 0.318359
vt 0.984375 0.318359
vt 0.076172 0.378906
vt 0.015625 0.378906
vt 0.136719 0.378906
vt 0.197266 0.378906
vt 0.257812 0.378906
vt 0.318359 0.378906
vt 0.378906 0.378906
vt 0.439453 0.378906
vt 0.500000 0.378906
vt 0.560547 0.378906
vt 0.621094 0.378906
vt 0.681641 0.378906
vt 0.742188 0.378906
vt 0.802734 0.378906
vt 0.863281 0.378906
vt 0.923828 0.378906
vt 0.984375 0.378906
vt 0.076172 0.439453
vt 0.015625 0.439453
vt 0.136719 0.439453
vt 0.197266 0.439453
vt 0.257812 0.439453
vt 0.318359 0.439453
vt 0.378906 0.439453
vt 0.439453 0.439453
vt 0.500000 0.439453
vt 0.560547 0.439453
vt 0.621094 0.439453
vt 0.681641 0.439453
vt 0.742188 0.439453
vt 0.802734 0.439453
vt 0.863281 0.439453
vt 0.923828 0.439453
vt 0.984375 0.439453
vt 0.076172 0.500000
vt 0.015625 0.500000
vt 0.136719 0.500000
vt 0.197266 0.500000
vt 0.257812 0.500000
vt 0.318359 0.500000
vt 0.378906 0.500000
vt 0.439453 0.500000
vt 0.500000 0.500000
vt 0.560547 0.500000
vt 0.621094 0.500000
vt 0.681641 0.500000
vt 0.742188 0.500000
vt 0.802734 0.500000
vt 0.863281 0.500000
vt 0.923828 0.500000
vt 0.984375 0.500000
vt 0.076172 0.560547
vt 0.015625 0.560547
vt 0.136719 0.560547
vt 0.197266 0.560547
vt 0.257812 0.560547
vt 0.318359 0.560547
vt 0.378906 0.560547
vt 0.439453 0.560547
vt 0.500000 0.560547
vt 0.560547 0.560547
vt 0.621094 0.560547
vt 0.681641 0.560547
vt 0.742188 0.560547
vt 0.802734 0.560547
vt 0.863281 0.560547
vt 0.923828 0.560547
vt 0.984375 0.560547
vt 0.076172 0.621094
vt 0.015625 0.621094
vt 0.136719 0.621094
vt 0.197266 0.621094
vt 0.257812 0.621094
vt 0.318359 0.621094
vt 0.378906 0.621094
vt 0.439453 0.621094
vt 0.500000 0.621094
vt 0.560547 0.621094
vt 0.621094 0.621094
vt 0.681641 0.621094
vt 0.742188 0.621094
vt 0.802734 0.621094
vt 0.863281 0.621094
vt 0.923828 0.621094
vt 0.984375 0.621094
vt 0.076172 0.681641
vt 0.015625 0.681641
vt 0.136719 0.681641
vt 0.197266 0.681641
vt 0.257812 0.681641
vt 0.318359 0.681641
vt 0.378906 0.681641
vt 0.439453 0.681641
vt 0.500000 0.681641
vt 0.560547 0.681641
vt 0.621094 0.681641
vt 0.681641 0.681641
vt 0.742188 0.681641
vt 0.802734 0.681641
vt 0.863281 0.681641
vt 0.923828 0.681641
vt 0.984375 0.681641
vt 0.076172 0.742188
vt 0.015625 0.742188
vt 0.136719 0.742188
vt 0.197266 0.742188
vt 0.257812 0.742188
vt 0.318359 0.742188
vt 0.378906 0.742188
vt 0.439453 0.742188
vt 0.500000 0.742188
vt 0.560547 0.742188
vt 0.621094 0.742188
vt 0.681641 0.742188
vt 0.742188 0.742188
vt 0.802734 0.742188
vt 0.863281 0.742188
vt 0.923828 0.742188
vt 0.984375 0.742188
vt 0.076172 0.802734
vt 0.015625 0.802734
vt 0.136719 0.802734
vt 0.197266 0.802734
vt 0.257812 0.802734
vt 0.318359 0.802734
vt 0.378906 0.802734
vt 0.439453 0.802734
vt 0.500000 0.802734
vt 0.560547 0.802734
vt 0.621094 0.802734
vt 0.681641 0.802734
vt 0.742188 0.802734
vt 0.802734 0.802734
vt 0.863281 0.802734
vt 0.923828 0.802734
vt 0.984375 0.802734
vt 0.076172 0.863281
vt 0.015625 0.863281
vt 0.136719 0.863281
vt 0.197266 0.863281
vt 0.257812 0.863281
vt 0.318359 0.863281
vt 0.378906 0.863281
vt 0.439453 0.863281
vt 0.500000 0.863281
vt 0.560547 0.863281
vt 0.621094 0.863281
vt 0.681641 0.863281
vt 0.742188 0.863281
vt 0.802734 0.863281
vt 0.863281 0.863281
vt 0.923828 0.863281
vt 0.984375 0.863281
vt 0.076172 0.923828
vt 0.015625 0.923828
vt 0.136719 0.923828
vt 0.197266 0.923828
vt 0.257812 0.923828
vt 0.318359 0.923828
vt 0.378906 0.923828
vt 0.439453 0.923828
vt 0.500000 0.923828
vt 0.560547 0.923828
vt 0.621094 0.923828
vt 0.681641 0.923828
vt 0.742188 0.923828
vt 0.802734 0.923828
vt 0.863281 0.923828
vt 0.923828 0.923828
vt 0.984375 0.923828
vt 0.076172 0.984375
vt 0.015625 0.984375
vt 0.136719 0.984375
vt 0.197266 0.984375
vt 0.257812 0.984375
vt 0.318359 0.984375
vt 0.378906 0.984375
vt 0.439453 0.984375
vt 0.500000 0.984375
vt 0.560547 0.984375
vt 0.621094 0.984375
vt 0.681641 0.984375
vt 0.742188 0.984375
vt 0.802734 0.984375
vt 0.863281 0.984375
vt 0.923828 0.984375
vt 0.984375 0.984375
s 1
f 1/1/1 2/2/2 19/3/3
f 1/1/1 19/3/3 18/4/4
f 2/2/2 3/5/5 20/6/6
f 2/2/2 20/6/6 19/3/3
f 3/5/5 4/7/7 21/8/8
f 3/5/5 21/8/8 20/6/6
f 4/7/7 5/9/9 22/10/10
f 4/7/7 22/10/10 21/8/8
f 5/9/9 6/11/11 23/12/12
f 5/9/9 23/12/12 22/10/10
f 6/11/11 7/13/13 24/14/14
f 6/11/11 24/14/14 23/12/12
f 7/13/13 8/15/15 25/16/16
f 7/13/13 25/16/16 24/14/14
f 8/15/15 9/17/17 26/18/18
f 8/15/15 26/18/18 25/16/16
f 9/17/17 10/19/19 27/20/20
f 9/17/17 27/20/20 26/18/18
f 10/19/19 11/21/21 28/22/22
f 10/19/19 28/22/22 27/20/20
f 11/21/21 12/23/23 29/24/24
f 11/21/21 29/24/24 28/22/22
f 12/23/23 13/25/25 30/26/26
f 12/23/23 30/26/26 29/24/24
f 13/25/25 14/27/27 31/28/28
f 13/25/25 31/28/28 30/26/26
f 14/27/27 15/29/29 32/30/30
f 14/27/27 32/30/30 31/28/28
f 15/29/29 16/31/31 33/32/32
f 15/29/29 33/32/32 32/30/30
f 16/31/31 17/33/33 34/34/34
f 16/31/31 34/34/34 33/32/32
f 18/4/4 19/3/3 36/35/35
f 18/4/4 36/35/35 35/36/36
f 19/3/3 20/6/6 37/37/37
f 19/3/3 37/37/37 36/35/35
f 20/6/6 21/8/8 38/38/38
f 20/6/6 38/38/38 37/37/37
f 21/8/8 22/10/10 39/39/39
f 21/8/8 39/39/39 38/38/38
f 22/10/10 23/12/12 40/40/40
f 22/10/10 40/40/40 39/39/39
f 23/12/12 24/14/14 41/41/41
f 23/12/12 41/41/41 40/40/40
f 24/14/14 25/16/16 42/42/42
f 24/14/14 42/42/42 41/41/41
f 25/16/16 26/18/18 43/43/43
f 25/16/16 43/43/43 42/42/42
f 26/18/18 27/20/20 44/44/44
f 26/18/18 44/44/44 43/43/43
f 27/20/20 28/22/22 45/45/45
f 27/20/20 45/45/45 44/44/44
f 28/22/22 29/24/24 46/46/46
f 28/22/22 46/46/46 45/45/45
f 29/24/24 30/26/26 47/47/47
f 29/24/24 47/47/47 46/46/46
f 30/26/26 31/28/28 48/48/48
f 30/26/26 48/48/48 47/47/47
f 31/28/28 32/30/30 49/49/49
f 31/28/28 49/49/49 48/48/48
f 32/30/30 33/32/32 50/50/50
f 32/30/30 50/50/50 49/49/49
f 33/32/32 34/34/34 51/51/51
f 33/32/32 51/51/51 50/50/50
f 35/36/36 36/35/35 53/52/52
f 35/36/36 53/52/52 52/53/53
f 36/35/35 37/37/37 54/54/54
f 36/35/35 54/54/54 53/52/52
f 37/37/37 38/38/38 55/55/55
f 37/37/37 55/55/55 54/54/54
f 38/38/38 39/39/39 56/56/56
f 38/38/38 56/56/56 55/55/55
f 39/39/39 40/40/40 57/57/57
f 39/39/39 57/57/57 56/56/56
f 40/40/40 41/41/41 58/58/58
f 40/40/40 58/58/58 57/57/57
f 41/41/41 42/42/42 59/59/59
f 41/41/41 59/59/59 58/58/58
f 42/42/42 43/43/43 60/60/60
f 42/42/42 60/60/60 59/59/59
f 43/43/43 44/44/44 61/61/61
f 43/43/43 61/61/61 60/60/60
f 44/44/44 45/45/45 62/62/62
f 44/44/44 62/62/62 61/61/61
f 45/45/45 46/46/46 63/63/63
f 45/45/45 63/63/63 62/62/62
f 46/46/46 47/47/47 64/64/64
f 46/46/46 64/64/64 63/63/63
f 47/47/47 48/48/48 65/65/65
f 47/47/47 65/65/65 64/64/64
f 48/48/48 49/49/49 66/66/66
f 48/48/48 66/66/66 65/65/65
f 49/49/49 50/50/50 67/67/67
f 49/49/49 67/67/67 66/66/66
f 50/50/50 51/51/51 68/68/68
f 50/50/50 68/68/68 67/67/67
f 52/53/53 53/52/52 70/69/69
f 52/53/53 70/69/69 69/70/70
f 53/52/52 54/54/54 71/71/71
f 53/52/52 71/71/71 70/69/69
f 54/54/54 55/55/55 72/72/72
f 54/54/54 72/72/72 71/71/71
f 55/55/55 56/56/56 73/73/73
f 55/55/55 73/73/73 72/72/72
f 56/56/56 57/57/57 74/74/74
f 56/56/56 74/74/74 73/73/73
f 57/57/57 58/58/58 75/75/75
f 57/57/57 75/75/75 74/74/74
f 58/58/58 59/59/59 76/76/76
f 58/58/58 76/76/76 75/75/75
f 59/59/59 60/60/60 77/77/77
f 59/59/59 77/77/77 76/76/76
f 60/60/60 61/61/61 78/78/78
f 60/60/60 78/78/78 77/77/77
f 61/61/61 62/62/62 79/79/79
f 61/61/61 79/79/79 78/78/78
f 62/62/62 63/63/63 80/80/80
f 62/62/62 80/80/80 79/79/79
f 63/63/63 64/64/64 81/81/81
f 63/63/63 81/81/81 80/80/80
f 64/64/64 65/65/65 82/82/82
f 64/64/64 82/82/82 81/81/81
f 65/65/65 66/66/66 83/83/83
f 65/65/65 83/83/83 82/82/82
f 66/66/66 67/67/67 84/84/84
f 66/66/66 84/84/84 83/83/83
f 67/67/67 68/68/68 85/85/85
f 67/67/67 85/85/85 84/84/84
f 69/70/70 70/69/69 87/86/86
f 69/70/70 87/86/86 86/87/87
f 70/69/69 71/71/71 88/88/88
f 70/69/69 88/88/88 87/86/86
f 71/71/71 72/72/72 89/89/89
f 71/71/71 89/89/89 88/88/88
f 72/72/72 73/73/73 90/90/90
f 72/72/72 90/90/90 89/89/89
f 73/73/73 74/74/74 91/91/91
f 73/73/73 91/91/91 90/90/90
f 74/74/74 75/75/75 92/92/92
f 74/74/74 92/92/92 91/91/91
f 75/75/75 76/76/76 93/93/93
f 75/75/75 93/93/93 92/92/92
f 76/76/76 77/77/77 94/94/94
f 76/76/76 94/94/94 93/93/93
f 77/77/77 78/78/78 95/95/95
f 77/77/77 95/95/95 94/94/94
f 78/78/78 79/79/79 96/96/96
f 78/78/78 96/96/96 95/95/95
f 79/79/79 80/80/80 97/97/97
f 79/79/79 97/97/97 96/96/96
f 80/80/80 81/81/81 98/98/98
f 80/80/80 98/98/98 97/97/97
f 81/81/81 82/82/82 99/99/99
f 81/81/81 99/99/99 98/98/98
f 82/82/82 83/83/83 100/100/100
f 82/82/82 100/100/100 99/99/99
f 83/83/83 84/84/84 101/101/101
f 83/83/83 101/101/101 100/100/100
f 84/84/84 85/85/85 102/102/102
f 84/84/84 102/102/102 101/101/101
f 86/87/87 87/86/86 104/103/103
f 86/87/87 104/103/103 103/104/104
f 87/86/86 88/88/88 105/105/105
f 87/86/86 105/105/105 104/103/103
f 88/88/88 89/89/89 106/106/106
f 88/88/88 106/106/106 105/105/105
f 89/89/89 90/90/90 107/107/107
f 89/89/89 107/107/107 106/106/106
f 90/90/90 91/91/91 108/108/108
f 90/90/90 108/108/108 107/107/107
f 91/91/91 92/92/92 109/109/109
f 91/91/91 109/109/109 108/108/108
f 92/92/92 93/93/93 110/110/110
f 92/92/92 110/110/110 109/109/109
f 93/93/93 94/94/94 111/111/111
f 93/93/93 111/111/111 110/110/110
f 94/94/94 95/95/95 112/112/112
f 94/94/94 112/112/112 111/111/111
f 95/95/95 96/96/96 113/113/113
f 95/95/95 113/113/113 112/112/112
f 96/96/96 97/97/97 114/114/114
f 96/96/96 114/114/114 113/113/113
f 97/97/97 98/98/98 115/115/115
f 97/97/97 115/115/115 114/114/114
f 98/98/98 99/99/99 116/116/116
f 98/98/98 116/116/116 115/115/115
f 99/99/99 100/100/100 117/117/117
f 99/99/99 117/117/117 116/116/116
f 100/100/100 101/101/101 118/118/118
f 100/100/100 118/118/118 117/117/117
f 101/101/101 102/102/102 119/119/119
f 101/101/101 119/119/119 118/118/118
f 103/104/104 104/103/103 121/120/120
f 103/104/104 121/120/120 120/121/121
f 104/103/103 105/105/105 122/122/122
f 104/103/103 122/122/122 121/120/120
f 105/105/105 106/106/106 123/123/123
f 105/105/105 123/123/123 122/122/122
f 106/106/106 107/107/107 124/124/124
f 106/106/106 124/124/124 123/123/123
f 107/107/107 108/108/108 125/125/125
f 107/107/107 125/125/125 124/124/124
f 108/108/108 109/109/109 126/126/126
f 108/108/108 126/126/126 125/125/125
f 109/109/109 110/110/110 127/127/127
f 109/109/109 127/127/127 126/126/126
f 110/110/110 111/111/111 128/128/128
f 110/110/110 128/128/128 127/127/127
f 111/111/111 112/112/112 129/129/129
f 111/111/111 129/129/129 128/128/128
f 112/112/112 113/113/113 130/130/130
f 112/112/112 130/130/130 129/129/129
f 113/113/113 114/114/114 131/131/131
f 113/113/113 131/131/131 130/130/130
f 114/114/114 115/115/115 132/132/132
f 114/114/114 132/132/132 131/131/131
f 115/115/115 116/116/116 133/133/133
f 115/115/115 133/133/133 132/132/132
f 116/116/116 117/117/117 134/134/134
f 116/116/116 134/134/134 133/133/133
f 117/117/117 118/118/118 135/135/135
f 117/117/117 135/135/135 134/134/134
f 118/118/118 119/119/119 136/136/136
f 118/118/118 136/136/136 135/135/135
f 120/121/121 121/120/120 138/137/137
f 120/121/121 138/137/137 137/138/138
f 121/120/120 122/122/122 139/139/139
f 121/120/120 139/139/139 138/137/137
f 122/122/122 123/123/123 140/140/140
f 122/122/122 140/140/140 139/139/139
f 123/123/123 124/124/124 141/141/141
f 123/123/123 141/141/141 140/140/140
f 124/124/124 125/125/125 142/142/142
f 124/124/124 142/142/142 141/141/141
f 125/125/125 126/126/126 143/143/143
f 125/125/125 143/143/143 142/142/142
f 126/126/126 127/127/127 144/144/144
f 126/126/126 144/144/144 143/143/143
f 127/127/127 128/128/128 145/145/145
f 127/127/127 145/145/145 144/144/144
f 128/128/128 129/129/129 146/146/146
f 128/128/128 146/146/146 145/145/145
f 129/129/129 130/130/130 147/147/147
f 129/129/129 147/147/147 146/146/146
f 130/130/130 131/131/131 148/148/148
f 130/130/130 148/148/148 147/147/147
f 131/131/131 132/132/132 149/149/149
f 131/131/131 149/149/149 148/148/148
f 132/132/132 133/133/133 150/150/150
f 132/132/132 150/150/150 149/149/149
f 133/133/133 134/134/134 151/151/151
f 133/133/133 151/151/151 150/150/150
f 134/134/134 135/135/135 152/152/152
f 134/134/134 152/152/152 151/151/151
f 135/135/135 136/136/136 153/153/153
f 135/135/135 153/153/153 152/152/152
f 137/138/138 138/137/137 155/154/154
f 137/138/138 155/154/154 154/155/155
f 138/137/137 139/139/139 156/156/156
f 138/137/137 156/156/156 155/154/154
f 139/139/139 140/140/140 157/157/157
f 139/139/139 157/157/157 156/156/156
f 140/140/140 141/141/141 158/158/158
f 140/140/140 158/158/158 157/157/157
f 141/141/141 142/142/142 159/159/159
f 141/141/141 159/159/159 158/158/158
f 142/142/142 143/143/143 160/160/160
f 142/142/142 160/160/160 159/159/159
f 143/143/143 144/144/144 161/161/161
f 143/143/143 161/161/161 160/160/160
f 144/144/144 145/145/145 162/162/162
f 144/144/144 162/162/162 161/161/161
f 145/145/145 146/146/146 163/163/163
f 145/145/145 163/163/163 162/162/162
f 146/146/146 147/147/147 164/164/164
f 146/146/146 164/164/164 163/163/163
f 147/147/147 148/148/148 165/165/165
f 147/147/147 165/165/165 164/164/164
f 148/148/148 149/149/149 166/166/166
f 148/148/148 166/166/166 165/165/165
f 149/149/149 150/150/150 167/167/167
f 149/149/149 167/167/167 166/166/166
f 150/150/150 151/151/151 168/168/168
f 150/150/150 168/168/168 167/167/167
f 151/151/151 152/152/152 169/169/169
f 151/151/151 169/169/169 168/168/168
f 152/152/152 153/153/153 170/170/170
f 152/152/152 170/170/170 169/169/169
f 154/155/155 155/154/154 172/171/171
f 154/155/155 172/171/171 171/172/172
f 155/154/154 156/156/156 173/173/173
f 155/154/154 173/173/173 172/171/171
f 156/156/156 157/157/157 174/174/174
f 156/156/156 174/174/174 173/173/173
f 157/157/157 158/158/158 175/175/175
f 157/157/157 175/175/175 174/174/174
f 158/158/158 159/159/159 176/176/176
f 158/158/158 176/176/176 175/175/175
f 159/159/159 160/160/160 177/177/177
f 159/159/159 177/177/177 176/176/176
f 160/160/160 161/161/161 178/178/178
f 160/160/160 178/178/178 177/177/177
f 161/161/161 162/162/162 179/179/179
f 161/161/161 179/179/179 178/178/178
f 162/162/162 163/163/163 180/180/180
f 162/162/162 180/180/180 179/179/179
f 163/163/163 164/164/164 181/181/181
f 163/163/163 181/181/181 180/180/180
f 164/164/164 165/165/165 182/182/182
f 164/164/164 182/182/182 181/181/181
f 165/165/165 166/166/166 183/183/183
f 165/165/165 183/183/183 182/182/182
f 166/166/166 167/167/167 184/184/184
f 166/166/166 184/184/184 183/183/183
f 167/167/167 168/168/168 185/185/185
f 167/167/167 185/185/185 184/184/184
f 168/168/168 169/169/169 186/186/186
f 168/168/168 186/186/186 185/185/185
f 169/169/169 170/170/170 187/187/187
f 169/169/169 187/187/187 186/186/186
f 171/172/172 172/171/171 189/188/188
f 171/172/172 189/188/188 188/189/189
f 172/171/171 173/173/173 190/190/190
f 172/171/171 190/190/190 189/188/188
f 173/173/173 174/174/174 191/191/191
f 173/173/173 191/191/191 190/190/190
f 174/174/174 175/175/175 192/192/192
f 174/174/174 192/192/192 191/191/191
f 175/175/175 176/176/176 193/193/193
f 175/175/175 193/193/193 192/192/192
f 176/176/176 177/177/177 194/194/194
f 176/176/176 194/194/194 193/193/193
f 177/177/177 178/178/178 195/195/195
f 177/177/177 195/195/195 194/194/194
f 178/178/178 179/179/179 196/196/196
f 178/178/178 196/196/196 195/195/195
f 179/179/179 180/180/180 197/197/197
f 179/179/179 197/197/197 196/196/196
f 180/180/180 181/181/181 198/198/198
f 180/180/180 198/198/198 197/197/197
f 181/181/181 182/182/182 199/199/199
f 181/181/181 199/199/199 198/198/198
f 182/182/182 183/183/183 200/200/200
f 182/182/182 200/200/200 199/199/199
f 183/183/183 184/184/184 201/201/201
f 183/183/183 201/201/201 200/200/200
f 184/184/184 185/185/185 202/202/202
f 184/184/184 202/202/202 201/201/201
f 185/185/185 186/186/186 203/203/203
f 185/185/185 203/203/203 202/202/202
f 186/186/186 187/187/187 204/204/204
f 186/186/186 204/204/204 203/203/203
f 188/189/189 189/188/188 206/205/205
f 188/189/189 206/205/205 205/206/206
f 189/188/188 190/190/190 207/207/207
f 189/188/188 207/207/207 206/205/205
f 190/190/190 191/191/191 208/208/208
f 190/190/190 208/208/208 207/207/207
f 191/191/191 192/192/192 209/209/209
f 191/191/191 209/209/209 208/208/208
f 192/192/192 193/193/193 210/210/210
f 192/192/192 210/210/210 209/209/209
f 193/193/193 194/194/194 211/211/211
f 193/193/193 211/211/211 210/210/210
f 194/194/194 195/195/195 212/212/212
f 194/194/194 212/212/212 211/211/211
f 195/195/195 196/196/196 213/213/213
f 195/195/195 213/213/213 212/212/212
f 196/196/196 197/197/197 214/214/214
f 196/196/196 214/214/214 213/213/213
f 197/197/197 198/198/198 215/215/215
f 197/197/197 215/215/215 214/214/214
f 198/198/198 199/199/199 216/216/216
f 198/198/198 216/216/216 215/215/215
f 199/199/199 200/200/200 217/217/217
f 199/199/199 217/217/217 216/216/216
f 200/200/200 201/201/201 218/218/218
f 200/200/200 218/218/218 217/217/217
f 201/201/201 202/202/202 219/219/219
f 201/201/201 219/219/219 218/218/218
f 202/202/202 203/203/203 220/220/220
f 202/202/202 220/220/220 219/219/219
f 203/203/203 204/204/204 221/221/221
f 203/203/203 221/221/221 220/220/220
f 205/206/206 206/205/205 223/222/222
f 205/206/206 223/222/222 222/223/223
f 206/205/205 207/207/207 224/224/224
f 206/205/205 224/224/224 223/222/222
f 207/207/207 208/208/208 225/225/225
f 207/207/207 225/225/225 224/224/224
f 208/208/208 209/209/209 226/226/226
f 208/208/208 226/226/226 225/225/225
f 209/209/209 210/210/210 227/227/227
f 209/209/209 227/227/227 226/226/226
f 210/210/210 211/211/211 228/228/228
f 210/210/210 228/228/228 227/227/227
f 211/211/211 212/212/212 229/229/229
f 211/211/211 229/229/229 228/228/228
f 212/212/212 213/213/213 230/230/230
f 212/212/212 230/230/230 229/229/229
f 213/213/213 214/214/214 231/231/231
f 213/213/213 231/231/231 230/230/230
f 214/214/214 215/215/215 232/232/232
f 214/214/214 232/232/232 231/231/231
f 215/215/215 216/216/216 233/233/233
f 215/215/215 233/233/233 232/232/232
f 216/216/216 217/217/217 234/234/234
f 216/216/216 234/234/234 233/233/233
f 217/217/217 218/218/218 235/235/235
f 217/217/217 235/235/235 234/234/234
f 218/218/218 219/219/219 236/236/236
f 218/218/218 236/236/236 235/235/235
f 219/219/219 220/220/220 237/237/237
f 219/219/219 237/237/237 236/236/236
f 220/220/220 221/221/221 238/238/238
f 220/220/220 238/238/238 237/237/237
f 222/223/223 223/222/222 240/239/239
f 222/223/223 240/239/239 239/240/240
f 223/222/222 224/224/224 241/241/241
f 223/222/222 241/241/241 240/239/239
f 224/224/224 225/225/225 242/242/242
f 224/224/224 242/242/242 241/241/241
f 225/225/225 226/226/226 243/243/243
f 225/225/225 243/243/243 242/242/242
f 226/226/226 227/227/227 244/244/244
f 226/226/226 244/244/244 243/243/243
f 227/227/227 228/228/228 245/245/245
f 227/227/227 245/245/245 244/244/244
f 228/228/228 229/229/229 246/246/246
f 228/228/228 246/246/246 245/245/245
f 229/229/229 230/230/230 247/247/247
f 229/229/229 247/247/247 246/246/246
f 230/230/230 231/231/231 248/248/248
f 230/230/230 248/248/248 247/247/247
f 231/231/231 232/232/232 249/249/249
f 231/231/231 249/249/249 248/248/248
f 232/232/232 233/233/233 250/250/250
f 232/232/232 250/250/250 249/249/249
f 233/233/233 234/234/234 251/251/251
f 233/233/233 251/251/251 250/250/250
f 234/234/234 235/235/235 252/252/252
f 234/234/234 252/252/252 251/251/251
f 235/235/235 236/236/236 253/253/253
f 235/235/235 253/253/253 252/252/252
f 236/236/236 237/237/237 254/254/254
f 236/236/236 254/254/254 253/253/253
f 237/237/237 238/238/238 255/255/255
f 237/237/237 255/255/255 254/254/254
f 239/240/240 240/239/239 257/256/256
f 239/240/240 257/256/256 256/257/257
f 240/239/239 241/241/241 258/258/258
f 240/239/239 258/258/258 257/256/256
f 241/241/241 242/242/242 259/259/259
f 241/241/241 259/259/259 258/258/258
f 242/242/242 243/243/243 260/260/260
f 242/242/242 260/260/260 259/259/259
f 243/243/243 244/244/244 261/261/261
f 243/243/243 261/261/261 260/260/260
f 244/244/244 245/245/245 262/262/262
f 244/244/244 262/262/262 261/261/261
f 245/245/245 246/246/246 263/263/263
f 245/245/245 263/263/263 262/262/262
f 246/246/246 247/247/247 264/264/264
f 246/246/246 264/264/264 263/263/263
f 247/247/247 248/248/248 265/265/265
f 247/247/247 265/265/265 264/264/264
f 248/248/248 249/249/249 266/266/266
f 248/248/248 266/266/266 265/265/265
f 249/249/249 250/250/250 267/267/267
f 249/249/249 267/267/267 266/266/266
f 250/250/250 251/251/251 268/268/268
f 250/250/250 268/268/268 267/267/267
f 251/251/251 252/252/252 269/269/269
f 251/251/251 269/269/269 268/268/268
f 252/252/252 253/253/253 270/270/270
f 252/252/252 270/270/270 269/269/269
f 253/253/253 254/254/254 271/271/271
f 253/253/253 271/271/271 270/270/270
f 254/254/254 255/255/255 272/272/272
f 254/254/254 272/272/272 271/271/271
f 256/257/257 257/256/256 274/273/273
f 256/257/257 274/273/273 273/274/274
f 257/256/256 258/258/258 275/275/275
f 257/256/256 275/275/275 274/273/273
f 258/258/258 259/259/259 276/276/276
f 258/258/258 276/276/276 275/275/275
f 259/259/259 260/260/260 277/277/277
f 259/259/259 277/277/277 276/276/276
f 260/260/260 261/261/261 278/278/278
f 260/260/260 278/278/278 277/277/277
f 261/261/261 262/262/262 279/279/279
f 261/261/261 279/279/279 278/278/278
f 262/262/262 263/263/263 280/280/280
f 262/262/262 280/280/280 279/279/279
f 263/263/263 264/264/264 281/281/281
f 263/263/263 281/281/281 280/280/280
f 264/264/264 265/265/265 282/282/282
f 264/264/264 282/282/282 281/281/281
f 265/265/265 266/266/266 283/283/283
f 265/265/265 283/283/283 282/282/282
f 266/266/266 267/267/267 284/284/284
f 266/266/266 284/284/284 283/283/283
f 267/267/267 268/268/268 285/285/285
f 267/267/267 285/285/285 284/284/284
f 268/268/268 269/269/269 286/286/286
f 268/268/268 286/286/286 285/285/285
f 269/269/269 270/270/270 287/287/287
f 269/269/269 287/287/287 286/286/286
f 270/270/270 271/271/271 288/288/288
f 270/270/270 288/288/288 287/287/287
f 271/271/271 272/272/272 289/289/289
f 271/271/271 289/289/289 288/288/288
