mtllib terrain_far_04_05.mtl
usemtl terrain_far_04_05
# Blender 5.1.1
# www.blender.org
o terrain_far_04_05
v -320.000000 -320.000000 -75.559380
v -280.000000 -320.000000 -75.708702
v -240.000000 -320.000000 -78.972359
v -200.000000 -320.000000 -75.606064
v -160.000000 -320.000000 -57.025547
v -120.000000 -320.000000 -46.316639
v -80.000000 -320.000000 -44.855564
v -40.000000 -320.000000 -48.311283
v 0.000000 -320.000000 -45.198124
v 40.000000 -320.000000 -36.194279
v 80.000000 -320.000000 -36.238941
v 120.000000 -320.000000 -46.451508
v 160.000000 -320.000000 -59.115299
v 200.000000 -320.000000 -69.816223
v 240.000000 -320.000000 -80.626694
v 280.000000 -320.000000 -85.582504
v 320.000000 -320.000000 -93.618195
v -320.000000 -280.000000 -60.565254
v -280.000000 -280.000000 -59.514305
v -240.000000 -280.000000 -65.420700
v -200.000000 -280.000000 -65.992989
v -160.000000 -280.000000 -47.421165
v -120.000000 -280.000000 -31.138769
v -80.000000 -280.000000 -29.417278
v -40.000000 -280.000000 -34.908390
v 0.000000 -280.000000 -34.960979
v 40.000000 -280.000000 -30.752865
v 80.000000 -280.000000 -30.379831
v 120.000000 -280.000000 -40.204735
v 160.000000 -280.000000 -46.406509
v 200.000000 -280.000000 -55.523323
v 240.000000 -280.000000 -67.353584
v 280.000000 -280.000000 -71.835228
v 320.000000 -280.000000 -81.840363
v -320.000000 -240.000000 -47.329823
v -280.000000 -240.000000 -44.653080
v -240.000000 -240.000000 -54.275982
v -200.000000 -240.000000 -59.741905
v -160.000000 -240.000000 -44.171314
v -120.000000 -240.000000 -24.362808
v -80.000000 -240.000000 -16.376480
v -40.000000 -240.000000 -20.177452
v 0.000000 -240.000000 -23.310528
v 40.000000 -240.000000 -22.835159
v 80.000000 -240.000000 -25.276926
v 120.000000 -240.000000 -28.275637
v 160.000000 -240.000000 -31.764446
v 200.000000 -240.000000 -43.607944
v 240.000000 -240.000000 -56.423347
v 280.000000 -240.000000 -67.438812
v 320.000000 -240.000000 -80.652702
v -320.000000 -200.000000 -38.355778
v -280.000000 -200.000000 -30.521412
v -240.000000 -200.000000 -39.402630
v -200.000000 -200.000000 -50.715401
v -160.000000 -200.000000 -43.135399
v -120.000000 -200.000000 -22.379824
v -80.000000 -200.000000 -7.030825
v -40.000000 -200.000000 -6.027570
v 0.000000 -200.000000 -10.268272
v 40.000000 -200.000000 -12.832664
v 80.000000 -200.000000 -15.774531
v 120.000000 -200.000000 -15.651634
v 160.000000 -200.000000 -23.775528
v 200.000000 -200.000000 -38.728523
v 240.000000 -200.000000 -54.653019
v 280.000000 -200.000000 -64.655106
v 320.000000 -200.000000 -75.132195
v -320.000000 -160.000000 -33.450699
v -280.000000 -160.000000 -20.855322
v -240.000000 -160.000000 -25.519018
v -200.000000 -160.000000 -37.022213
v -160.000000 -160.000000 -39.306961
v -120.000000 -160.000000 -24.386490
v -80.000000 -160.000000 -3.862368
v -40.000000 -160.000000 5.081643
v 0.000000 -160.000000 3.427197
v 40.000000 -160.000000 -0.943009
v 80.000000 -160.000000 -5.200767
v 120.000000 -160.000000 -12.400698
v 160.000000 -160.000000 -26.881214
v 200.000000 -160.000000 -39.553326
v 240.000000 -160.000000 -45.986012
v 280.000000 -160.000000 -52.758060
v 320.000000 -160.000000 -65.318352
v -320.000000 -120.000000 -29.701853
v -280.000000 -120.000000 -15.240685
v -240.000000 -120.000000 -11.929608
v -200.000000 -120.000000 -19.415373
v -160.000000 -120.000000 -28.225933
v -120.000000 -120.000000 -22.990704
v -80.000000 -120.000000 -1.822261
v -40.000000 -120.000000 12.389192
v 0.000000 -120.000000 14.942658
v 40.000000 -120.000000 9.083819
v 80.000000 -120.000000 -0.987890
v 120.000000 -120.000000 -14.671803
v 160.000000 -120.000000 -24.433664
v 200.000000 -120.000000 -27.298681
v 240.000000 -120.000000 -32.412472
v 280.000000 -120.000000 -45.986420
v 320.000000 -120.000000 -62.733997
v -320.000000 -80.000000 -22.835634
v -280.000000 -80.000000 -13.111907
v -240.000000 -80.000000 -2.088551
v -200.000000 -80.000000 -4.667544
v -160.000000 -80.000000 -10.261559
v -120.000000 -80.000000 -12.399647
v -80.000000 -80.000000 0.759499
v -40.000000 -80.000000 17.462074
v 0.000000 -80.000000 24.076942
v 40.000000 -80.000000 17.397093
v 80.000000 -80.000000 3.688976
v 120.000000 -80.000000 -6.572458
v 160.000000 -80.000000 -9.766061
v 200.000000 -80.000000 -15.792639
v 240.000000 -80.000000 -30.112368
v 280.000000 -80.000000 -47.554752
v 320.000000 -80.000000 -63.303619
v -320.000000 -40.000000 -9.055239
v -280.000000 -40.000000 -7.281225
v -240.000000 -40.000000 3.470274
v -200.000000 -40.000000 8.869226
v -160.000000 -40.000000 8.895737
v -120.000000 -40.000000 3.052074
v -80.000000 -40.000000 7.101364
v -40.000000 -40.000000 24.194992
v 0.000000 -40.000000 33.717670
v 40.000000 -40.000000 26.900484
v 80.000000 -40.000000 17.258503
v 120.000000 -40.000000 10.120231
v 160.000000 -40.000000 2.828496
v 200.000000 -40.000000 -11.751366
v 240.000000 -40.000000 -29.156116
v 280.000000 -40.000000 -43.064529
v 320.000000 -40.000000 -54.683311
v -320.000000 0.000000 6.460311
v -280.000000 0.000000 5.009682
v -240.000000 0.000000 11.106504
v -200.000000 0.000000 20.849390
v -160.000000 0.000000 23.467276
v -120.000000 0.000000 16.697548
v -80.000000 0.000000 18.210033
v -40.000000 0.000000 32.274017
v 0.000000 0.000000 42.375114
v 40.000000 0.000000 39.661983
v 80.000000 0.000000 33.446404
v 120.000000 0.000000 23.502522
v 160.000000 0.000000 12.110980
v 200.000000 0.000000 -3.451676
v 240.000000 0.000000 -20.831064
v 280.000000 0.000000 -35.956734
v 320.000000 0.000000 -49.076694
v -320.000000 40.000000 17.174795
v -280.000000 40.000000 18.064119
v -240.000000 40.000000 22.010530
v -200.000000 40.000000 31.545984
v -160.000000 40.000000 34.814465
v -120.000000 40.000000 28.365171
v -80.000000 40.000000 31.767447
v -40.000000 40.000000 43.183887
v 0.000000 40.000000 52.192631
v 40.000000 40.000000 50.880142
v 80.000000 40.000000 40.415611
v 120.000000 40.000000 26.052738
v 160.000000 40.000000 12.079642
v 200.000000 40.000000 -3.612008
v 240.000000 40.000000 -20.532846
v 280.000000 40.000000 -36.008553
v 320.000000 40.000000 -48.766983
v -320.000000 80.000000 18.799484
v -280.000000 80.000000 26.688374
v -240.000000 80.000000 33.343143
v -200.000000 80.000000 42.746452
v -160.000000 80.000000 45.687046
v -120.000000 80.000000 41.085762
v -80.000000 80.000000 45.682308
v -40.000000 80.000000 54.586666
v 0.000000 80.000000 60.465473
v 40.000000 80.000000 52.090271
v 80.000000 80.000000 35.210297
v 120.000000 80.000000 18.165892
v 160.000000 80.000000 2.349709
v 200.000000 80.000000 -13.069290
v 240.000000 80.000000 -27.477148
v 280.000000 80.000000 -39.099152
v 320.000000 80.000000 -48.755558
v -320.000000 120.000000 12.816337
v -280.000000 120.000000 25.990564
v -240.000000 120.000000 38.635094
v -200.000000 120.000000 51.073364
v -160.000000 120.000000 57.469082
v -120.000000 120.000000 53.531464
v -80.000000 120.000000 57.827988
v -40.000000 120.000000 63.529293
v 0.000000 120.000000 60.407623
v 40.000000 120.000000 45.836262
v 80.000000 120.000000 28.094412
v 120.000000 120.000000 11.521482
v 160.000000 120.000000 -1.635114
v 200.000000 120.000000 -11.958681
v 240.000000 120.000000 -21.610971
v 280.000000 120.000000 -31.611160
v 320.000000 120.000000 -42.075531
v -320.000000 160.000000 16.122278
v -280.000000 160.000000 25.852686
v -240.000000 160.000000 40.967819
v -200.000000 160.000000 54.771191
v -160.000000 160.000000 65.472542
v -120.000000 160.000000 65.754929
v -80.000000 160.000000 68.924690
v -40.000000 160.000000 70.599930
v 0.000000 160.000000 59.307045
v 40.000000 160.000000 42.106533
v 80.000000 160.000000 26.575600
v 120.000000 160.000000 14.408615
v 160.000000 160.000000 4.748452
v 200.000000 160.000000 -3.916587
v 240.000000 160.000000 -14.856054
v 280.000000 160.000000 -27.222515
v 320.000000 160.000000 -38.097034
v -320.000000 200.000000 24.907307
v -280.000000 200.000000 34.144096
v -240.000000 200.000000 46.136955
v -200.000000 200.000000 57.179539
v -160.000000 200.000000 69.883003
v -120.000000 200.000000 77.932732
v -80.000000 200.000000 80.283173
v -40.000000 200.000000 76.715179
v 0.000000 200.000000 63.054867
v 40.000000 200.000000 46.960960
v 80.000000 200.000000 31.837610
v 120.000000 200.000000 16.208256
v 160.000000 200.000000 0.948315
v 200.000000 200.000000 -12.142166
v 240.000000 200.000000 -23.712765
v 280.000000 200.000000 -32.535973
v 320.000000 200.000000 -40.943821
v -320.000000 240.000000 30.405874
v -280.000000 240.000000 41.606453
v -240.000000 240.000000 53.702084
v -200.000000 240.000000 63.235435
v -160.000000 240.000000 75.041351
v -120.000000 240.000000 87.869019
v -80.000000 240.000000 88.777168
v -40.000000 240.000000 77.846748
v 0.000000 240.000000 62.622990
v 40.000000 240.000000 46.476280
v 80.000000 240.000000 28.928526
v 120.000000 240.000000 9.168780
v 160.000000 240.000000 -7.981149
v 200.000000 240.000000 -17.631084
v 240.000000 240.000000 -26.357777
v 280.000000 240.000000 -36.225277
v 320.000000 240.000000 -42.796314
v -320.000000 280.000000 38.898186
v -280.000000 280.000000 49.084011
v -240.000000 280.000000 58.311005
v -200.000000 280.000000 68.606667
v -160.000000 280.000000 81.676819
v -120.000000 280.000000 93.992424
v -80.000000 280.000000 89.204224
v -40.000000 280.000000 72.883415
v 0.000000 280.000000 55.273857
v 40.000000 280.000000 38.763733
v 80.000000 280.000000 22.404003
v 120.000000 280.000000 7.779003
v 160.000000 280.000000 -0.824126
v 200.000000 280.000000 -4.622540
v 240.000000 280.000000 -15.477501
v 280.000000 280.000000 -26.767437
v 320.000000 280.000000 -32.458954
v -320.000000 320.000000 40.928795
v -280.000000 320.000000 53.424915
v -240.000000 320.000000 65.888031
v -200.000000 320.000000 77.140945
v -160.000000 320.000000 88.531700
v -120.000000 320.000000 97.501564
v -80.000000 320.000000 88.791504
v -40.000000 320.000000 70.516953
v 0.000000 320.000000 52.683559
v 40.000000 320.000000 38.564854
v 80.000000 320.000000 24.212156
v 120.000000 320.000000 20.613863
v 160.000000 320.000000 20.495583
v 200.000000 320.000000 12.733681
v 240.000000 320.000000 -1.812468
v 280.000000 320.000000 -12.972353
v 320.000000 320.000000 -20.275724
vn -0.0029 -0.3283 0.9446
vn 0.0393 -0.3848 0.9222
vn 0.0565 -0.3613 0.9307
vn -0.1031 -0.3310 0.9380
vn -0.0012 -0.3420 0.9397
vn 0.0772 -0.2941 0.9527
vn -0.2593 -0.1990 0.9451
vn -0.2155 -0.1899 0.9578
vn -0.3349 -0.2261 0.9147
vn -0.3951 -0.1457 0.9070
vn -0.1399 -0.3674 0.9195
vn -0.2121 -0.2586 0.9424
vn 0.0233 -0.3571 0.9338
vn 0.0443 -0.3350 0.9412
vn 0.0041 -0.2933 0.9560
vn 0.0652 -0.3310 0.9414
vn -0.1474 -0.1769 0.9731
vn -0.0501 -0.2636 0.9633
vn -0.1104 -0.1283 0.9856
vn -0.0564 -0.1645 0.9848
vn 0.1250 -0.1834 0.9751
vn 0.1163 -0.1348 0.9840
vn 0.2696 -0.1947 0.9431
vn 0.1917 -0.2174 0.9571
vn 0.2695 -0.2753 0.9228
vn 0.1783 -0.3183 0.9311
vn 0.2458 -0.3222 0.9142
vn 0.2415 -0.3021 0.9222
vn 0.1848 -0.2939 0.9378
vn 0.1916 -0.2842 0.9394
vn 0.1517 -0.3221 0.9345
vn 0.1739 -0.2178 0.9604
vn 0.2563 -0.2953 0.9204
vn 0.2837 -0.1534 0.9466
vn 0.0814 -0.3396 0.9371
vn -0.1831 -0.2630 0.9473
vn 0.1766 -0.3044 0.9360
vn -0.1231 -0.1862 0.9748
vn -0.4040 -0.0489 0.9135
vn -0.3264 -0.1029 0.9396
vn -0.0503 -0.2691 0.9618
vn 0.0813 -0.3384 0.9375
vn 0.0316 -0.2948 0.9550
vn 0.0240 -0.2185 0.9755
vn 0.0667 -0.1792 0.9815
vn 0.0770 -0.2922 0.9532
vn 0.1814 -0.2677 0.9463
vn 0.2888 -0.1967 0.9370
vn 0.2822 -0.1504 0.9475
vn 0.2888 -0.0856 0.9536
vn 0.3192 -0.0792 0.9444
vn 0.0125 -0.2851 0.9584
vn -0.2876 -0.1637 0.9436
vn 0.2311 -0.3291 0.9156
vn 0.0448 -0.2729 0.9610
vn -0.3333 -0.0572 0.9411
vn -0.4114 0.0002 0.9115
vn -0.1979 -0.1515 0.9684
vn 0.0386 -0.3009 0.9529
vn 0.0804 -0.3160 0.9454
vn 0.0662 -0.2634 0.9624
vn 0.0342 -0.2433 0.9693
vn 0.0976 -0.1937 0.9762
vn 0.2767 -0.0585 0.9592
vn 0.3597 -0.0472 0.9319
vn 0.3060 -0.1232 0.9440
vn 0.2442 -0.1750 0.9538
vn 0.3058 -0.1792 0.9351
vn -0.0969 -0.1867 0.9776
vn -0.3237 -0.1018 0.9407
vn 0.1877 -0.3190 0.9290
vn 0.1585 -0.3597 0.9195
vn -0.1534 -0.1810 0.9714
vn -0.4051 0.0070 0.9143
vn -0.3450 -0.0610 0.9366
vn -0.0885 -0.2234 0.9707
vn 0.0716 -0.2998 0.9513
vn 0.1035 -0.2628 0.9593
vn 0.1395 -0.1799 0.9737
vn 0.2615 -0.0118 0.9651
vn 0.3214 0.0078 0.9469
vn 0.2301 -0.1376 0.9634
vn 0.1571 -0.2645 0.9515
vn 0.2291 -0.2212 0.9479
vn 0.3264 -0.1448 0.9341
vn -0.2159 -0.0941 0.9719
vn -0.2710 -0.1266 0.9542
vn 0.0500 -0.2807 0.9585
vn 0.1856 -0.3684 0.9110
vn 0.0420 -0.3410 0.9391
vn -0.3103 -0.1409 0.9401
vn -0.4039 -0.0528 0.9133
vn -0.2028 -0.1498 0.9677
vn 0.0400 -0.2497 0.9675
vn 0.1905 -0.2193 0.9569
vn 0.2831 -0.1059 0.9532
vn 0.2805 -0.0698 0.9573
vn 0.1525 -0.2068 0.9664
vn 0.0952 -0.2834 0.9543
vn 0.2234 -0.1897 0.9561
vn 0.3538 -0.0607 0.9334
vn 0.3741 -0.0234 0.9271
vn -0.2499 -0.0959 0.9635
vn -0.1456 -0.2472 0.9580
vn -0.1031 -0.1881 0.9767
vn 0.0959 -0.3318 0.9385
vn 0.0873 -0.4192 0.9037
vn -0.1299 -0.3069 0.9428
vn -0.3478 -0.1040 0.9318
vn -0.2771 -0.1403 0.9506
vn 0.0008 -0.2285 0.9735
vn 0.2414 -0.2110 0.9472
vn 0.2804 -0.2135 0.9359
vn 0.1586 -0.2923 0.9431
vn 0.1086 -0.3208 0.9409
vn 0.2422 -0.1851 0.9524
vn 0.3687 -0.0378 0.9288
vn 0.3830 -0.0337 0.9231
vn 0.3242 -0.0947 0.9412
vn -0.1510 -0.2184 0.9641
vn -0.0435 -0.3435 0.9381
vn -0.1953 -0.1596 0.9677
vn -0.0646 -0.3032 0.9507
vn 0.0669 -0.3876 0.9194
vn 0.0211 -0.3417 0.9396
vn -0.2500 -0.2064 0.9460
vn -0.3109 -0.1731 0.9346
vn -0.0330 -0.2229 0.9743
vn 0.1944 -0.2630 0.9450
vn 0.1929 -0.3421 0.9197
vn 0.1667 -0.3471 0.9229
vn 0.2550 -0.2551 0.9327
vn 0.3675 -0.1418 0.9192
vn 0.3624 -0.1074 0.9258
vn 0.3011 -0.1368 0.9437
vn 0.2884 -0.1676 0.9427
vn -0.0553 -0.3016 0.9518
vn -0.0138 -0.3115 0.9501
vn -0.1894 -0.2217 0.9566
vn -0.1470 -0.2698 0.9516
vn 0.0493 -0.3078 0.9502
vn 0.0625 -0.3011 0.9515
vn -0.1829 -0.2897 0.9395
vn -0.2820 -0.2216 0.9335
vn -0.0896 -0.2241 0.9704
vn 0.1064 -0.2855 0.9524
vn 0.1905 -0.2729 0.9430
vn 0.2530 -0.1889 0.9488
vn 0.3174 -0.1089 0.9420
vn 0.3791 -0.0937 0.9206
vn 0.3745 -0.0994 0.9219
vn 0.3318 -0.0829 0.9397
vn 0.3096 -0.0701 0.9483
vn -0.0583 -0.2612 0.9635
vn -0.0561 -0.1522 0.9868
vn -0.1603 -0.2643 0.9510
vn -0.1525 -0.2609 0.9532
vn 0.0383 -0.2674 0.9628
vn 0.0364 -0.2914 0.9559
vn -0.1725 -0.3199 0.9316
vn -0.2388 -0.2609 0.9354
vn -0.0934 -0.2196 0.9711
vn 0.1439 -0.1519 0.9779
vn 0.2963 -0.0211 0.9549
vn 0.3332 0.0628 0.9408
vn 0.3454 0.1136 0.9315
vn 0.3752 0.1107 0.9203
vn 0.3742 0.0768 0.9242
vn 0.3326 0.0370 0.9423
vn 0.2788 -0.0039 0.9603
vn -0.1780 -0.0970 0.9792
vn -0.2168 0.0531 0.9748
vn -0.1929 -0.1997 0.9607
vn -0.1482 -0.2345 0.9607
vn 0.0200 -0.2724 0.9620
vn 0.0001 -0.3001 0.9539
vn -0.1584 -0.3058 0.9388
vn -0.1763 -0.2426 0.9540
vn 0.0310 -0.1021 0.9943
vn 0.3005 0.0600 0.9519
vn 0.3865 0.1404 0.9115
vn 0.3747 0.1657 0.9122
vn 0.3591 0.1577 0.9199
vn 0.3477 0.0973 0.9325
vn 0.3094 0.0128 0.9509
vn 0.2567 -0.0530 0.9650
vn 0.2001 -0.0817 0.9764
vn -0.3072 0.0100 0.9516
vn -0.3073 0.0318 0.9511
vn -0.2980 -0.0905 0.9503
vn -0.2267 -0.1448 0.9631
vn -0.0298 -0.2400 0.9703
vn -0.0043 -0.2947 0.9556
vn -0.1190 -0.2771 0.9534
vn -0.0316 -0.1962 0.9801
vn 0.2159 0.0141 0.9763
vn 0.3720 0.1149 0.9211
vn 0.3923 0.0987 0.9145
vn 0.3480 0.0440 0.9365
vn 0.2815 -0.0287 0.9591
vn 0.2408 -0.1103 0.9643
vn 0.2358 -0.1514 0.9599
vn 0.2453 -0.1423 0.9589
vn 0.2482 -0.1279 0.9602
vn -0.2952 -0.0969 0.9505
vn -0.2370 -0.1452 0.9606
vn -0.3386 -0.0878 0.9368
vn -0.2921 -0.0728 0.9536
vn -0.1345 -0.1520 0.9792
vn -0.0412 -0.2916 0.9557
vn -0.0582 -0.2698 0.9612
vn 0.1178 -0.1615 0.9798
vn 0.3354 -0.0312 0.9416
vn 0.3786 -0.0130 0.9255
vn 0.3269 -0.0442 0.9440
vn 0.2628 -0.0564 0.9632
vn 0.2231 -0.0314 0.9743
vn 0.2380 0.0022 0.9713
vn 0.2796 0.0252 0.9598
vn 0.2789 0.0111 0.9602
vn 0.2673 -0.0136 0.9635
vn -0.2520 -0.1870 0.9495
vn -0.2501 -0.1702 0.9531
vn -0.2735 -0.1512 0.9499
vn -0.2831 -0.1009 0.9538
vn -0.2495 -0.1150 0.9615
vn -0.1242 -0.2645 0.9564
vn 0.0148 -0.2408 0.9705
vn 0.2097 -0.0882 0.9738
vn 0.3483 -0.0388 0.9366
vn 0.3631 -0.0508 0.9304
vn 0.3587 -0.0274 0.9331
vn 0.3595 0.0610 0.9311
vn 0.3303 0.1483 0.9321
vn 0.2907 0.1617 0.9431
vn 0.2446 0.1379 0.9598
vn 0.2093 0.1094 0.9717
vn 0.2211 0.0572 0.9736
vn -0.2753 -0.1764 0.9450
vn -0.2399 -0.1672 0.9563
vn -0.2582 -0.1453 0.9551
vn -0.2553 -0.1367 0.9571
vn -0.2914 -0.1395 0.9464
vn -0.1660 -0.1941 0.9668
vn 0.1236 -0.1100 0.9862
vn 0.3104 0.0455 0.9495
vn 0.3636 0.0902 0.9272
vn 0.3864 0.0940 0.9175
vn 0.4202 0.1062 0.9012
vn 0.4170 0.0952 0.9039
vn 0.3176 0.0210 0.9480
vn 0.2229 -0.0912 0.9706
vn 0.2253 -0.0998 0.9692
vn 0.2008 -0.0704 0.9771
vn 0.1653 -0.1040 0.9807
vn -0.2334 -0.1421 0.9619
vn -0.2681 -0.1256 0.9552
vn -0.2345 -0.1464 0.9610
vn -0.2765 -0.1646 0.9468
vn -0.2987 -0.1586 0.9411
vn -0.0930 -0.1190 0.9885
vn 0.2551 -0.0002 0.9669
vn 0.3891 0.0840 0.9174
vn 0.3898 0.1135 0.9139
vn 0.3785 0.0911 0.9211
vn 0.3606 0.0549 0.9311
vn 0.2762 -0.1361 0.9514
vn 0.1445 -0.3318 0.9322
vn 0.1688 -0.3498 0.9215
vn 0.2558 -0.2836 0.9242
vn 0.1997 -0.2735 0.9409
vn 0.1277 -0.2688 0.9547
vn -0.2968 -0.0821 0.9514
vn -0.2817 -0.0890 0.9554
vn -0.2823 -0.1168 0.9522
vn -0.2694 -0.1469 0.9518
vn -0.2440 -0.1448 0.9589
vn -0.0032 -0.0748 0.9972
vn 0.3193 -0.0434 0.9467
vn 0.4108 -0.0536 0.9102
vn 0.3694 -0.0910 0.9248
vn 0.3326 -0.1259 0.9346
vn 0.2154 -0.1787 0.9600
vn 0.0435 -0.3522 0.9349
vn 0.0885 -0.4298 0.8985
vn 0.2523 -0.3431 0.9048
vn 0.2908 -0.3109 0.9049
vn 0.2117 -0.3371 0.9174
vn 0.1155 -0.3155 0.9419
vt 0.015625 0.015625
vt 0.076172 0.015625
vt 0.076172 0.076172
vt 0.015625 0.076172
vt 0.136719 0.015625
vt 0.136719 0.076172
vt 0.197266 0.015625
vt 0.197266 0.076172
vt 0.257812 0.015625
vt 0.257812 0.076172
vt 0.318359 0.015625
vt 0.318359 0.076172
vt 0.378906 0.015625
vt 0.378906 0.076172
vt 0.439453 0.015625
vt 0.439453 0.076172
vt 0.500000 0.015625
vt 0.500000 0.076172
vt 0.560547 0.015625
vt 0.560547 0.076172
vt 0.621094 0.015625
vt 0.621094 0.076172
vt 0.681641 0.015625
vt 0.681641 0.076172
vt 0.742188 0.015625
vt 0.742188 0.076172
vt 0.802734 0.015625
vt 0.802734 0.076172
vt 0.863281 0.015625
vt 0.863281 0.076172
vt 0.923828 0.015625
vt 0.923828 0.076172
vt 0.984375 0.015625
vt 0.984375 0.076172
vt 0.076172 0.136719
vt 0.015625 0.136719
vt 0.136719 0.136719
vt 0.197266 0.136719
vt 0.257812 0.136719
vt 0.318359 0.136719
vt 0.378906 0.136719
vt 0.439453 0.136719
vt 0.500000 0.136719
vt 0.560547 0.136719
vt 0.621094 0.136719
vt 0.681641 0.136719
vt 0.742188 0.136719
vt 0.802734 0.136719
vt 0.863281 0.136719
vt 0.923828 0.136719
vt 0.984375 0.136719
vt 0.076172 0.197266
vt 0.015625 0.197266
vt 0.136719 0.197266
vt 0.197266 0.197266
vt 0.257812 0.197266
vt 0.318359 0.197266
vt 0.378906 0.197266
vt 0.439453 0.197266
vt 0.500000 0.197266
vt 0.560547 0.197266
vt 0.621094 0.197266
vt 0.681641 0.197266
vt 0.742188 0.197266
vt 0.802734 0.197266
vt 0.863281 0.197266
vt 0.923828 0.197266
vt 0.984375 0.197266
vt 0.076172 0.257812
vt 0.015625 0.257812
vt 0.136719 0.257812
vt 0.197266 0.257812
vt 0.257812 0.257812
vt 0.318359 0.257812
vt 0.378906 0.257812
vt 0.439453 0.257812
vt 0.500000 0.257812
vt 0.560547 0.257812
vt 0.621094 0.257812
vt 0.681641 0.257812
vt 0.742188 0.257812
vt 0.802734 0.257812
vt 0.863281 0.257812
vt 0.923828 0.257812
vt 0.984375 0.257812
vt 0.076172 0.318359
vt 0.015625 0.318359
vt 0.136719 0.318359
vt 0.197266 0.318359
vt 0.257812 0.318359
vt 0.318359 0.318359
vt 0.378906 0.318359
vt 0.439453 0.318359
vt 0.500000 0.318359
vt 0.560547 0.318359
vt 0.621094 0.318359
vt 0.681641 0.318359
vt 0.742188 0.318359
vt 0.802734 0.318359
vt 0.863281 0.318359
vt 0.923828 0.318359
vt 0.984375 0.318359
vt 0.076172 0.378906
vt 0.015625 0.378906
vt 0.136719 0.378906
vt 0.197266 0.378906
vt 0.257812 0.378906
vt 0.318359 0.378906
vt 0.378906 0.378906
vt 0.439453 0.378906
vt 0.500000 0.378906
vt 0.560547 0.378906
vt 0.621094 0.378906
vt 0.681641 0.378906
vt 0.742188 0.378906
vt 0.802734 0.378906
vt 0.863281 0.378906
vt 0.923828 0.378906
vt 0.984375 0.378906
vt 0.076172 0.439453
vt 0.015625 0.439453
vt 0.136719 0.439453
vt 0.197266 0.439453
vt 0.257812 0.439453
vt 0.318359 0.439453
vt 0.378906 0.439453
vt 0.439453 0.439453
vt 0.500000 0.439453
vt 0.560547 0.439453
vt 0.621094 0.439453
vt 0.681641 0.439453
vt 0.742188 0.439453
vt 0.802734 0.439453
vt 0.863281 0.439453
vt 0.923828 0.439453
vt 0.984375 0.439453
vt 0.076172 0.500000
vt 0.015625 0.500000
vt 0.136719 0.500000
vt 0.197266 0.500000
vt 0.257812 0.500000
vt 0.318359 0.500000
vt 0.378906 0.500000
vt 0.439453 0.500000
vt 0.500000 0.500000
vt 0.560547 0.500000
vt 0.621094 0.500000
vt 0.681641 0.500000
vt 0.742188 0.500000
vt 0.802734 0.500000
vt 0.863281 0.500000
vt 0.923828 0.500000
vt 0.984375 0.500000
vt 0.076172 0.560547
vt 0.015625 0.560547
vt 0.136719 0.560547
vt 0.197266 0.560547
vt 0.257812 0.560547
vt 0.318359 0.560547
vt 0.378906 0.560547
vt 0.439453 0.560547
vt 0.500000 0.560547
vt 0.560547 0.560547
vt 0.621094 0.560547
vt 0.681641 0.560547
vt 0.742188 0.560547
vt 0.802734 0.560547
vt 0.863281 0.560547
vt 0.923828 0.560547
vt 0.984375 0.560547
vt 0.076172 0.621094
vt 0.015625 0.621094
vt 0.136719 0.621094
vt 0.197266 0.621094
vt 0.257812 0.621094
vt 0.318359 0.621094
vt 0.378906 0.621094
vt 0.439453 0.621094
vt 0.500000 0.621094
vt 0.560547 0.621094
vt 0.621094 0.621094
vt 0.681641 0.621094
vt 0.742188 0.621094
vt 0.802734 0.621094
vt 0.863281 0.621094
vt 0.923828 0.621094
vt 0.984375 0.621094
vt 0.076172 0.681641
vt 0.015625 0.681641
vt 0.136719 0.681641
vt 0.197266 0.681641
vt 0.257812 0.681641
vt 0.318359 0.681641
vt 0.378906 0.681641
vt 0.439453 0.681641
vt 0.500000 0.681641
vt 0.560547 0.681641
vt 0.621094 0.681641
vt 0.681641 0.681641
vt 0.742188 0.681641
vt 0.802734 0.681641
vt 0.863281 0.681641
vt 0.923828 0.681641
vt 0.984375 0.681641
vt 0.076172 0.742188
vt 0.015625 0.742188
vt 0.136719 0.742188
vt 0.197266 0.742188
vt 0.257812 0.742188
vt 0.318359 0.742188
vt 0.378906 0.742188
vt 0.439453 0.742188
vt 0.500000 0.742188
vt 0.560547 0.742188
vt 0.621094 0.742188
vt 0.681641 0.742188
vt 0.742188 0.742188
vt 0.802734 0.742188
vt 0.863281 0.742188
vt 0.923828 0.742188
vt 0.984375 0.742188
vt 0.076172 0.802734
vt 0.015625 0.802734
vt 0.136719 0.802734
vt 0.197266 0.802734
vt 0.257812 0.802734
vt 0.318359 0.802734
vt 0.378906 0.802734
vt 0.439453 0.802734
vt 0.500000 0.802734
vt 0.560547 0.802734
vt 0.621094 0.802734
vt 0.681641 0.802734
vt 0.742188 0.802734
vt 0.802734 0.802734
vt 0.863281 0.802734
vt 0.923828 0.802734
vt 0.984375 0.802734
vt 0.076172 0.863281
vt 0.015625 0.863281
vt 0.136719 0.863281
vt 0.197266 0.863281
vt 0.257812 0.863281
vt 0.318359 0.863281
vt 0.378906 0.863281
vt 0.439453 0.863281
vt 0.500000 0.863281
vt 0.560547 0.863281
vt 0.621094 0.863281
vt 0.681641 0.863281
vt 0.742188 0.863281
vt 0.802734 0.863281
vt 0.863281 0.863281
vt 0.923828 0.863281
vt 0.984375 0.863281
vt 0.076172 0.923828
vt 0.015625 0.923828
vt 0.136719 0.923828
vt 0.197266 0.923828
vt 0.257812 0.923828
vt 0.318359 0.923828
vt 0.378906 0.923828
vt 0.439453 0.923828
vt 0.500000 0.923828
vt 0.560547 0.923828
vt 0.621094 0.923828
vt 0.681641 0.923828
vt 0.742188 0.923828
vt 0.802734 0.923828
vt 0.863281 0.923828
vt 0.923828 0.923828
vt 0.984375 0.923828
vt 0.076172 0.984375
vt 0.015625 0.984375
vt 0.136719 0.984375
vt 0.197266 0.984375
vt 0.257812 0.984375
vt 0.318359 0.984375
vt 0.378906 0.984375
vt 0.439453 0.984375
vt 0.500000 0.984375
vt 0.560547 0.984375
vt 0.621094 0.984375
vt 0.681641 0.984375
vt 0.742188 0.984375
vt 0.802734 0.984375
vt 0.863281 0.984375
vt 0.923828 0.984375
vt 0.984375 0.984375
s 1
f 1/1/1 2/2/2 19/3/3
f 1/1/1 19/3/3 18/4/4
f 2/2/2 3/5/5 20/6/6
f 2/2/2 20/6/6 19/3/3
f 3/5/5 4/7/7 21/8/8
f 3/5/5 21/8/8 20/6/6
f 4/7/7 5/9/9 22/10/10
f 4/7/7 22/10/10 21/8/8
f 5/9/9 6/11/11 23/12/12
f 5/9/9 23/12/12 22/10/10
f 6/11/11 7/13/13 24/14/14
f 6/11/11 24/14/14 23/12/12
f 7/13/13 8/15/15 25/16/16
f 7/13/13 25/16/16 24/14/14
f 8/15/15 9/17/17 26/18/18
f 8/15/15 26/18/18 25/16/16
f 9/17/17 10/19/19 27/20/20
f 9/17/17 27/20/20 26/18/18
f 10/19/19 11/21/21 28/22/22
f 10/19/19 28/22/22 27/20/20
f 11/21/21 12/23/23 29/24/24
f 11/21/21 29/24/24 28/22/22
f 12/23/23 13/25/25 30/26/26
f 12/23/23 30/26/26 29/24/24
f 13/25/25 14/27/27 31/28/28
f 13/25/25 31/28/28 30/26/26
f 14/27/27 15/29/29 32/30/30
f 14/27/27 32/30/30 31/28/28
f 15/29/29 16/31/31 33/32/32
f 15/29/29 33/32/32 32/30/30
f 16/31/31 17/33/33 34/34/34
f 16/31/31 34/34/34 33/32/32
f 18/4/4 19/3/3 36/35/35
f 18/4/4 36/35/35 35/36/36
f 19/3/3 20/6/6 37/37/37
f 19/3/3 37/37/37 36/35/35
f 20/6/6 21/8/8 38/38/38
f 20/6/6 38/38/38 37/37/37
f 21/8/8 22/10/10 39/39/39
f 21/8/8 39/39/39 38/38/38
f 22/10/10 23/12/12 40/40/40
f 22/10/10 40/40/40 39/39/39
f 23/12/12 24/14/14 41/41/41
f 23/12/12 41/41/41 40/40/40
f 24/14/14 25/16/16 42/42/42
f 24/14/14 42/42/42 41/41/41
f 25/16/16 26/18/18 43/43/43
f 25/16/16 43/43/43 42/42/42
f 26/18/18 27/20/20 44/44/44
f 26/18/18 44/44/44 43/43/43
f 27/20/20 28/22/22 45/45/45
f 27/20/20 45/45/45 44/44/44
f 28/22/22 29/24/24 46/46/46
f 28/22/22 46/46/46 45/45/45
f 29/24/24 30/26/26 47/47/47
f 29/24/24 47/47/47 46/46/46
f 30/26/26 31/28/28 48/48/48
f 30/26/26 48/48/48 47/47/47
f 31/28/28 32/30/30 49/49/49
f 31/28/28 49/49/49 48/48/48
f 32/30/30 33/32/32 50/50/50
f 32/30/30 50/50/50 49/49/49
f 33/32/32 34/34/34 51/51/51
f 33/32/32 51/51/51 50/50/50
f 35/36/36 36/35/35 53/52/52
f 35/36/36 53/52/52 52/53/53
f 36/35/35 37/37/37 54/54/54
f 36/35/35 54/54/54 53/52/52
f 37/37/37 38/38/38 55/55/55
f 37/37/37 55/55/55 54/54/54
f 38/38/38 39/39/39 56/56/56
f 38/38/38 56/56/56 55/55/55
f 39/39/39 40/40/40 57/57/57
f 39/39/39 57/57/57 56/56/56
f 40/40/40 41/41/41 58/58/58
f 40/40/40 58/58/58 57/57/57
f 41/41/41 42/42/42 59/59/59
f 41/41/41 59/59/59 58/58/58
f 42/42/42 43/43/43 60/60/60
f 42/42/42 60/60/60 59/59/59
f 43/43/43 44/44/44 61/61/61
f 43/43/43 61/61/61 60/60/60
f 44/44/44 45/45/45 62/62/62
f 44/44/44 62/62/62 61/61/61
f 45/45/45 46/46/46 63/63/63
f 45/45/45 63/63/63 62/62/62
f 46/46/46 47/47/47 64/64/64
f 46/46/46 64/64/64 63/63/63
f 47/47/47 48/48/48 65/65/65
f 47/47/47 65/65/65 64/64/64
f 48/48/48 49/49/49 66/66/66
f 48/48/48 66/66/66 65/65/65
f 49/49/49 50/50/50 67/67/67
f 49/49/49 67/67/67 66/66/66
f 50/50/50 51/51/51 68/68/68
f 50/50/50 68/68/68 67/67/67
f 52/53/53 53/52/52 70/69/69
f 52/53/53 70/69/69 69/70/70
f 53/52/52 54/54/54 71/71/71
f 53/52/52 71/71/71 70/69/69
f 54/54/54 55/55/55 72/72/72
f 54/54/54 72/72/72 71/71/71
f 55/55/55 56/56/56 73/73/73
f 55/55/55 73/73/73 72/72/72
f 56/56/56 57/57/57 74/74/74
f 56/56/56 74/74/74 73/73/73
f 57/57/57 58/58/58 75/75/75
f 57/57/57 75/75/75 74/74/74
f 58/58/58 59/59/59 76/76/76
f 58/58/58 76/76/76 75/75/75
f 59/59/59 60/60/60 77/77/77
f 59/59/59 77/77/77 76/76/76
f 60/60/60 61/61/61 78/78/78
f 60/60/60 78/78/78 77/77/77
f 61/61/61 62/62/62 79/79/79
f 61/61/61 79/79/79 78/78/78
f 62/62/62 63/63/63 80/80/80
f 62/62/62 80/80/80 79/79/79
f 63/63/63 64/64/64 81/81/81
f 63/63/63 81/81/81 80/80/80
f 64/64/64 65/65/65 82/82/82
f 64/64/64 82/82/82 81/81/81
f 65/65/65 66/66/66 83/83/83
f 65/65/65 83/83/83 82/82/82
f 66/66/66 67/67/67 84/84/84
f 66/66/66 84/84/84 83/83/83
f 67/67/67 68/68/68 85/85/85
f 67/67/67 85/85/85 84/84/84
f 69/70/70 70/69/69 87/86/86
f 69/70/70 87/86/86 86/87/87
f 70/69/69 71/71/71 88/88/88
f 70/69/69 88/88/88 87/86/86
f 71/71/71 72/72/72 89/89/89
f 71/71/71 89/89/89 88/88/88
f 72/72/72 73/73/73 90/90/90
f 72/72/72 90/90/90 89/89/89
f 73/73/73 74/74/74 91/91/91
f 73/73/73 91/91/91 90/90/90
f 74/74/74 75/75/75 92/92/92
f 74/74/74 92/92/92 91/91/91
f 75/75/75 76/76/76 93/93/93
f 75/75/75 93/93/93 92/92/92
f 76/76/76 77/77/77 94/94/94
f 76/76/76 94/94/94 93/93/93
f 77/77/77 78/78/78 95/95/95
f 77/77/77 95/95/95 94/94/94
f 78/78/78 79/79/79 96/96/96
f 78/78/78 96/96/96 95/95/95
f 79/79/79 80/80/80 97/97/97
f 79/79/79 97/97/97 96/96/96
f 80/80/80 81/81/81 98/98/98
f 80/80/80 98/98/98 97/97/97
f 81/81/81 82/82/82 99/99/99
f 81/81/81 99/99/99 98/98/98
f 82/82/82 83/83/83 100/100/100
f 82/82/82 100/100/100 99/99/99
f 83/83/83 84/84/84 101/101/101
f 83/83/83 101/101/101 100/100/100
f 84/84/84 85/85/85 102/102/102
f 84/84/84 102/102/102 101/101/101
f 86/87/87 87/86/86 104/103/103
f 86/87/87 104/103/103 103/104/104
f 87/86/86 88/88/88 105/105/105
f 87/86/86 105/105/105 104/103/103
f 88/88/88 89/89/89 106/106/106
f 88/88/88 106/106/106 105/105/105
f 89/89/89 90/90/90 107/107/107
f 89/89/89 107/107/107 106/106/106
f 90/90/90 91/91/91 108/108/108
f 90/90/90 108/108/108 107/107/107
f 91/91/91 92/92/92 109/109/109
f 91/91/91 109/109/109 108/108/108
f 92/92/92 93/93/93 110/110/110
f 92/92/92 110/110/110 109/109/109
f 93/93/93 94/94/94 111/111/111
f 93/93/93 111/111/111 110/110/110
f 94/94/94 95/95/95 112/112/112
f 94/94/94 112/112/112 111/111/111
f 95/95/95 96/96/96 113/113/113
f 95/95/95 113/113/113 112/112/112
f 96/96/96 97/97/97 114/114/114
f 96/96/96 114/114/114 113/113/113
f 97/97/97 98/98/98 115/115/115
f 97/97/97 115/115/115 114/114/114
f 98/98/98 99/99/99 116/116/116
f 98/98/98 116/116/116 115/115/115
f 99/99/99 100/100/100 117/117/117
f 99/99/99 117/117/117 116/116/116
f 100/100/100 101/101/101 118/118/118
f 100/100/100 118/118/118 117/117/117
f 101/101/101 102/102/102 119/119/119
f 101/101/101 119/119/119 118/118/118
f 103/104/104 104/103/103 121/120/120
f 103/104/104 121/120/120 120/121/121
f 104/103/103 105/105/105 122/122/122
f 104/103/103 122/122/122 121/120/120
f 105/105/105 106/106/106 123/123/123
f 105/105/105 123/123/123 122/122/122
f 106/106/106 107/107/107 124/124/124
f 106/106/106 124/124/124 123/123/123
f 107/107/107 108/108/108 125/125/125
f 107/107/107 125/125/125 124/124/124
f 108/108/108 109/109/109 126/126/126
f 108/108/108 126/126/126 125/125/125
f 109/109/109 110/110/110 127/127/127
f 109/109/109 127/127/127 126/126/126
f 110/110/110 111/111/111 128/128/128
f 110/110/110 128/128/128 127/127/127
f 111/111/111 112/112/112 129/129/129
f 111/111/111 129/129/129 128/128/128
f 112/112/112 113/113/113 130/130/130
f 112/112/112 130/130/130 129/129/129
f 113/113/113 114/114/114 131/131/131
f 113/113/113 131/131/131 130/130/130
f 114/114/114 115/115/115 132/132/132
f 114/114/114 132/132/132 131/131/131
f 115/115/115 116/116/116 133/133/133
f 115/115/115 133/133/133 132/132/132
f 116/116/116 117/117/117 134/134/134
f 116/116/116 134/134/134 133/133/133
f 117/117/117 118/118/118 135/135/135
f 117/117/117 135/135/135 134/134/134
f 118/118/118 119/119/119 136/136/136
f 118/118/118 136/136/136 135/135/135
f 120/121/121 121/120/120 138/137/137
f 120/121/121 138/137/137 137/138/138
f 121/120/120 122/122/122 139/139/139
f 121/120/120 139/139/139 138/137/137
f 122/122/122 123/123/123 140/140/140
f 122/122/122 140/140/140 139/139/139
f 123/123/123 124/124/124 141/141/141
f 123/123/123 141/141/141 140/140/140
f 124/124/124 125/125/125 142/142/142
f 124/124/124 142/142/142 141/141/141
f 125/125/125 126/126/126 143/143/143
f 125/125/125 143/143/143 142/142/142
f 126/126/126 127/127/127 144/144/144
f 126/126/126 144/144/144 143/143/143
f 127/127/127 128/128/128 145/145/145
f 127/127/127 145/145/145 144/144/144
f 128/128/128 129/129/129 146/146/146
f 128/128/128 146/146/146 145/145/145
f 129/129/129 130/130/130 147/147/147
f 129/129/129 147/147/147 146/146/146
f 130/130/130 131/131/131 148/148/148
f 130/130/130 148/148/148 147/147/147
f 131/131/131 132/132/132 149/149/149
f 131/131/131 149/149/149 148/148/148
f 132/132/132 133/133/133 150/150/150
f 132/132/132 150/150/150 149/149/149
f 133/133/133 134/134/134 151/151/151
f 133/133/133 151/151/151 150/150/150
f 134/134/134 135/135/135 152/152/152
f 134/134/134 152/152/152 151/151/151
f 135/135/135 136/136/136 153/153/153
f 135/135/135 153/153/153 152/152/152
f 137/138/138 138/137/137 155/154/154
f 137/138/138 155/154/154 154/155/155
f 138/137/137 139/139/139 156/156/156
f 138/137/137 156/156/156 155/154/154
f 139/139/139 140/140/140 157/157/157
f 139/139/139 157/157/157 156/156/156
f 140/140/140 141/141/141 158/158/158
f 140/140/140 158/158/158 157/157/157
f 141/141/141 142/142/142 159/159/159
f 141/141/141 159/159/159 158/158/158
f 142/142/142 143/143/143 160/160/160
f 142/142/142 160/160/160 159/159/159
f 143/143/143 144/144/144 161/161/161
f 143/143/143 161/161/161 160/160/160
f 144/144/144 145/145/145 162/162/162
f 144/144/144 162/162/162 161/161/161
f 145/145/145 146/146/146 163/163/163
f 145/145/145 163/163/163 162/162/162
f 146/146/146 147/147/147 164/164/164
f 146/146/146 164/164/164 163/163/163
f 147/147/147 148/148/148 165/165/165
f 147/147/147 165/165/165 164/164/164
f 148/148/148 149/149/149 166/166/166
f 148/148/148 166/166/166 165/165/165
f 149/149/149 150/150/150 167/167/167
f 149/149/149 167/167/167 166/166/166
f 150/150/150 151/151/151 168/168/168
f 150/150/150 168/168/168 167/167/167
f 151/151/151 152/152/152 169/169/169
f 151/151/151 169/169/169 168/168/168
f 152/152/152 153/153/153 170/170/170
f 152/152/152 170/170/170 169/169/169
f 154/155/155 155/154/154 172/171/171
f 154/155/155 172/171/171 171/172/172
f 155/154/154 156/156/156 173/173/173
f 155/154/154 173/173/173 172/171/171
f 156/156/156 157/157/157 174/174/174
f 156/156/156 174/174/174 173/173/173
f 157/157/157 158/158/158 175/175/175
f 157/157/157 175/175/175 174/174/174
f 158/158/158 159/159/159 176/176/176
f 158/158/158 176/176/176 175/175/175
f 159/159/159 160/160/160 177/177/177
f 159/159/159 177/177/177 176/176/176
f 160/160/160 161/161/161 178/178/178
f 160/160/160 178/178/178 177/177/177
f 161/161/161 162/162/162 179/179/179
f 161/161/161 179/179/179 178/178/178
f 162/162/162 163/163/163 180/180/180
f 162/162/162 180/180/180 179/179/179
f 163/163/163 164/164/164 181/181/181
f 163/163/163 181/181/181 180/180/180
f 164/164/164 165/165/165 182/182/182
f 164/164/164 182/182/182 181/181/181
f 165/165/165 166/166/166 183/183/183
f 165/165/165 183/183/183 182/182/182
f 166/166/166 167/167/167 184/184/184
f 166/166/166 184/184/184 183/183/183
f 167/167/167 168/168/168 185/185/185
f 167/167/167 185/185/185 184/184/184
f 168/168/168 169/169/169 186/186/186
f 168/168/168 186/186/186 185/185/185
f 169/169/169 170/170/170 187/187/187
f 169/169/169 187/187/187 186/186/186
f 171/172/172 172/171/171 189/188/188
f 171/172/172 189/188/188 188/189/189
f 172/171/171 173/173/173 190/190/190
f 172/171/171 190/190/190 189/188/188
f 173/173/173 174/174/174 191/191/191
f 173/173/173 191/191/191 190/190/190
f 174/174/174 175/175/175 192/192/192
f 174/174/174 192/192/192 191/191/191
f 175/175/175 176/176/176 193/193/193
f 175/175/175 193/193/193 192/192/192
f 176/176/176 177/177/177 194/194/194
f 176/176/176 194/194/194 193/193/193
f 177/177/177 178/178/178 195/195/195
f 177/177/177 195/195/195 194/194/194
f 178/178/178 179/179/179 196/196/196
f 178/178/178 196/196/196 195/195/195
f 179/179/179 180/180/180 197/197/197
f 179/179/179 197/197/197 196/196/196
f 180/180/180 181/181/181 198/198/198
f 180/180/180 198/198/198 197/197/197
f 181/181/181 182/182/182 199/199/199
f 181/181/181 199/199/199 198/198/198
f 182/182/182 183/183/183 200/200/200
f 182/182/182 200/200/200 199/199/199
f 183/183/183 184/184/184 201/201/201
f 183/183/183 201/201/201 200/200/200
f 184/184/184 185/185/185 202/202/202
f 184/184/184 202/202/202 201/201/201
f 185/185/185 186/186/186 203/203/203
f 185/185/185 203/203/203 202/202/202
f 186/186/186 187/187/187 204/204/204
f 186/186/186 204/204/204 203/203/203
f 188/189/189 189/188/188 206/205/205
f 188/189/189 206/205/205 205/206/206
f 189/188/188 190/190/190 207/207/207
f 189/188/188 207/207/207 206/205/205
f 190/190/190 191/191/191 208/208/208
f 190/190/190 208/208/208 207/207/207
f 191/191/191 192/192/192 209/209/209
f 191/191/191 209/209/209 208/208/208
f 192/192/192 193/193/193 210/210/210
f 192/192/192 210/210/210 209/209/209
f 193/193/193 194/194/194 211/211/211
f 193/193/193 211/211/211 210/210/210
f 194/194/194 195/195/195 212/212/212
f 194/194/194 212/212/212 211/211/211
f 195/195/195 196/196/196 213/213/213
f 195/195/195 213/213/213 212/212/212
f 196/196/196 197/197/197 214/214/214
f 196/196/196 214/214/214 213/213/213
f 197/197/197 198/198/198 215/215/215
f 197/197/197 215/215/215 214/214/214
f 198/198/198 199/199/199 216/216/216
f 198/198/198 216/216/216 215/215/215
f 199/199/199 200/200/200 217/217/217
f 199/199/199 217/217/217 216/216/216
f 200/200/200 201/201/201 218/218/218
f 200/200/200 218/218/218 217/217/217
f 201/201/201 202/202/202 219/219/219
f 201/201/201 219/219/219 218/218/218
f 202/202/202 203/203/203 220/220/220
f 202/202/202 220/220/220 219/219/219
f 203/203/203 204/204/204 221/221/221
f 203/203/203 221/221/221 220/220/220
f 205/206/206 206/205/205 223/222/222
f 205/206/206 223/222/222 222/223/223
f 206/205/205 207/207/207 224/224/224
f 206/205/205 224/224/224 223/222/222
f 207/207/207 208/208/208 225/225/225
f 207/207/207 225/225/225 224/224/224
f 208/208/208 209/209/209 226/226/226
f 208/208/208 226/226/226 225/225/225
f 209/209/209 210/210/210 227/227/227
f 209/209/209 227/227/227 226/226/226
f 210/210/210 211/211/211 228/228/228
f 210/210/210 228/228/228 227/227/227
f 211/211/211 212/212/212 229/229/229
f 211/211/211 229/229/229 228/228/228
f 212/212/212 213/213/213 230/230/230
f 212/212/212 230/230/230 229/229/229
f 213/213/213 214/214/214 231/231/231
f 213/213/213 231/231/231 230/230/230
f 214/214/214 215/215/215 232/232/232
f 214/214/214 232/232/232 231/231/231
f 215/215/215 216/216/216 233/233/233
f 215/215/215 233/233/233 232/232/232
f 216/216/216 217/217/217 234/234/234
f 216/216/216 234/234/234 233/233/233
f 217/217/217 218/218/218 235/235/235
f 217/217/217 235/235/235 234/234/234
f 218/218/218 219/219/219 236/236/236
f 218/218/218 236/236/236 235/235/235
f 219/219/219 220/220/220 237/237/237
f 219/219/219 237/237/237 236/236/236
f 220/220/220 221/221/221 238/238/238
f 220/220/220 238/238/238 237/237/237
f 222/223/223 223/222/222 240/239/239
f 222/223/223 240/239/239 239/240/240
f 223/222/222 224/224/224 241/241/241
f 223/222/222 241/241/241 240/239/239
f 224/224/224 225/225/225 242/242/242
f 224/224/224 242/242/242 241/241/241
f 225/225/225 226/226/226 243/243/243
f 225/225/225 243/243/243 242/242/242
f 226/226/226 227/227/227 244/244/244
f 226/226/226 244/244/244 243/243/243
f 227/227/227 228/228/228 245/245/245
f 227/227/227 245/245/245 244/244/244
f 228/228/228 229/229/229 246/246/246
f 228/228/228 246/246/246 245/245/245
f 229/229/229 230/230/230 247/247/247
f 229/229/229 247/247/247 246/246/246
f 230/230/230 231/231/231 248/248/248
f 230/230/230 248/248/248 247/247/247
f 231/231/231 232/232/232 249/249/249
f 231/231/231 249/249/249 248/248/248
f 232/232/232 233/233/233 250/250/250
f 232/232/232 250/250/250 249/249/249
f 233/233/233 234/234/234 251/251/251
f 233/233/233 251/251/251 250/250/250
f 234/234/234 235/235/235 252/252/252
f 234/234/234 252/252/252 251/251/251
f 235/235/235 236/236/236 253/253/253
f 235/235/235 253/253/253 252/252/252
f 236/236/236 237/237/237 254/254/254
f 236/236/236 254/254/254 253/253/253
f 237/237/237 238/238/238 255/255/255
f 237/237/237 255/255/255 254/254/254
f 239/240/240 240/239/239 257/256/256
f 239/240/240 257/256/256 256/257/257
f 240/239/239 241/241/241 258/258/258
f 240/239/239 258/258/258 257/256/256
f 241/241/241 242/242/242 259/259/259
f 241/241/241 259/259/259 258/258/258
f 242/242/242 243/243/243 260/260/260
f 242/242/242 260/260/260 259/259/259
f 243/243/243 244/244/244 261/261/261
f 243/243/243 261/261/261 260/260/260
f 244/244/244 245/245/245 262/262/262
f 244/244/244 262/262/262 261/261/261
f 245/245/245 246/246/246 263/263/263
f 245/245/245 263/263/263 262/262/262
f 246/246/246 247/247/247 264/264/264
f 246/246/246 264/264/264 263/263/263
f 247/247/247 248/248/248 265/265/265
f 247/247/247 265/265/265 264/264/264
f 248/248/248 249/249/249 266/266/266
f 248/248/248 266/266/266 265/265/265
f 249/249/249 250/250/250 267/267/267
f 249/249/249 267/267/267 266/266/266
f 250/250/250 251/251/251 268/268/268
f 250/250/250 268/268/268 267/267/267
f 251/251/251 252/252/252 269/269/269
f 251/251/251 269/269/269 268/268/268
f 252/252/252 253/253/253 270/270/270
f 252/252/252 270/270/270 269/269/269
f 253/253/253 254/254/254 271/271/271
f 253/253/253 271/271/271 270/270/270
f 254/254/254 255/255/255 272/272/272
f 254/254/254 272/272/272 271/271/271
f 256/257/257 257/256/256 274/273/273
f 256/257/257 274/273/273 273/274/274
f 257/256/256 258/258/258 275/275/275
f 257/256/256 275/275/275 274/273/273
f 258/258/258 259/259/259 276/276/276
f 258/258/258 276/276/276 275/275/275
f 259/259/259 260/260/260 277/277/277
f 259/259/259 277/277/277 276/276/276
f 260/260/260 261/261/261 278/278/278
f 260/260/260 278/278/278 277/277/277
f 261/261/261 262/262/262 279/279/279
f 261/261/261 279/279/279 278/278/278
f 262/262/262 263/263/263 280/280/280
f 262/262/262 280/280/280 279/279/279
f 263/263/263 264/264/264 281/281/281
f 263/263/263 281/281/281 280/280/280
f 264/264/264 265/265/265 282/282/282
f 264/264/264 282/282/282 281/281/281
f 265/265/265 266/266/266 283/283/283
f 265/265/265 283/283/283 282/282/282
f 266/266/266 267/267/267 284/284/284
f 266/266/266 284/284/284 283/283/283
f 267/267/267 268/268/268 285/285/285
f 267/267/267 285/285/285 284/284/284
f 268/268/268 269/269/269 286/286/286
f 268/268/268 286/286/286 285/285/285
f 269/269/269 270/270/270 287/287/287
f 269/269/269 287/287/287 286/286/286
f 270/270/270 271/271/271 288/288/288
f 270/270/270 288/288/288 287/287/287
f 271/271/271 272/272/272 289/289/289
f 271/271/271 289/289/289 288/288/288
