mtllib terrain_mid_06_03.mtl
usemtl terrain_mid_06_03
# Blender 5.1.1
# www.blender.org
o terrain_mid_06_03
v -160.000000 -160.000000 16.871408
v -140.000000 -160.000000 14.615082
v -120.000000 -160.000000 13.608707
v -100.000000 -160.000000 13.711728
v -80.000000 -160.000000 14.150794
v -60.000000 -160.000000 13.945330
v -40.000000 -160.000000 12.060041
v -20.000000 -160.000000 7.639394
v 0.000000 -160.000000 1.251611
v 20.000000 -160.000000 -6.672855
v 40.000000 -160.000000 -15.019351
v 60.000000 -160.000000 -22.904924
v 80.000000 -160.000000 -29.943396
v 100.000000 -160.000000 -36.016293
v 120.000000 -160.000000 -41.543839
v 140.000000 -160.000000 -46.720776
v 160.000000 -160.000000 -51.617550
v -160.000000 -140.000000 22.567535
v -140.000000 -140.000000 19.723745
v -120.000000 -140.000000 18.127506
v -100.000000 -140.000000 17.729584
v -80.000000 -140.000000 17.510902
v -60.000000 -140.000000 16.332232
v -40.000000 -140.000000 13.396393
v -20.000000 -140.000000 7.981700
v 0.000000 -140.000000 0.927372
v 20.000000 -140.000000 -7.451399
v 40.000000 -140.000000 -15.998884
v 60.000000 -140.000000 -24.194738
v 80.000000 -140.000000 -31.461945
v 100.000000 -140.000000 -37.673683
v 120.000000 -140.000000 -43.312260
v 140.000000 -140.000000 -48.574398
v 160.000000 -140.000000 -53.757065
v -160.000000 -120.000000 28.105371
v -140.000000 -120.000000 24.527443
v -120.000000 -120.000000 22.207590
v -100.000000 -120.000000 21.046207
v -80.000000 -120.000000 20.173723
v -60.000000 -120.000000 17.891632
v -40.000000 -120.000000 13.790701
v -20.000000 -120.000000 7.636627
v 0.000000 -120.000000 0.040334
v 20.000000 -120.000000 -8.729054
v 40.000000 -120.000000 -17.555952
v 60.000000 -120.000000 -26.106943
v 80.000000 -120.000000 -33.687878
v 100.000000 -120.000000 -40.078236
v 120.000000 -120.000000 -45.783504
v 140.000000 -120.000000 -50.925594
v 160.000000 -120.000000 -56.052696
v -160.000000 -100.000000 33.045563
v -140.000000 -100.000000 29.074392
v -120.000000 -100.000000 26.185944
v -100.000000 -100.000000 24.074520
v -80.000000 -100.000000 22.322493
v -60.000000 -100.000000 19.152536
v -40.000000 -100.000000 13.986766
v -20.000000 -100.000000 7.031674
v 0.000000 -100.000000 -1.253028
v 20.000000 -100.000000 -10.430220
v 40.000000 -100.000000 -19.357574
v 60.000000 -100.000000 -27.906172
v 80.000000 -100.000000 -35.643307
v 100.000000 -100.000000 -41.986374
v 120.000000 -100.000000 -47.311317
v 140.000000 -100.000000 -52.263180
v 160.000000 -100.000000 -57.157345
v -160.000000 -80.000000 37.539894
v -140.000000 -80.000000 32.986038
v -120.000000 -80.000000 29.543800
v -100.000000 -80.000000 26.758366
v -80.000000 -80.000000 24.167933
v -60.000000 -80.000000 20.174604
v -40.000000 -80.000000 14.504893
v -20.000000 -80.000000 7.163713
v 0.000000 -80.000000 -1.335012
v 20.000000 -80.000000 -10.606829
v 40.000000 -80.000000 -19.454031
v 60.000000 -80.000000 -27.984663
v 80.000000 -80.000000 -35.881901
v 100.000000 -80.000000 -42.346188
v 120.000000 -80.000000 -47.586727
v 140.000000 -80.000000 -52.239784
v 160.000000 -80.000000 -56.790024
v -160.000000 -60.000000 41.472763
v -140.000000 -60.000000 36.246429
v -120.000000 -60.000000 32.075424
v -100.000000 -60.000000 28.825417
v -80.000000 -60.000000 25.493805
v -60.000000 -60.000000 20.996790
v -40.000000 -60.000000 15.232656
v -20.000000 -60.000000 8.161673
v 0.000000 -60.000000 -0.060258
v 20.000000 -60.000000 -9.066477
v 40.000000 -60.000000 -17.712133
v 60.000000 -60.000000 -26.280724
v 80.000000 -60.000000 -34.317616
v 100.000000 -60.000000 -41.147125
v 120.000000 -60.000000 -46.654388
v 140.000000 -60.000000 -51.044125
v 160.000000 -60.000000 -55.342411
v -160.000000 -40.000000 44.693092
v -140.000000 -40.000000 38.536957
v -120.000000 -40.000000 33.698349
v -100.000000 -40.000000 29.700497
v -80.000000 -40.000000 25.837887
v -60.000000 -40.000000 21.299795
v -40.000000 -40.000000 15.955699
v -20.000000 -40.000000 9.476322
v 0.000000 -40.000000 1.836653
v 20.000000 -40.000000 -6.485334
v 40.000000 -40.000000 -14.835317
v 60.000000 -40.000000 -23.218924
v 80.000000 -40.000000 -31.300865
v 100.000000 -40.000000 -38.479454
v 120.000000 -40.000000 -44.286179
v 140.000000 -40.000000 -48.979446
v 160.000000 -40.000000 -53.665749
v -160.000000 -20.000000 46.952957
v -140.000000 -20.000000 39.767616
v -120.000000 -20.000000 33.816418
v -100.000000 -20.000000 29.145735
v -80.000000 -20.000000 25.087460
v -60.000000 -20.000000 20.866276
v -40.000000 -20.000000 16.098135
v -20.000000 -20.000000 9.937971
v 0.000000 -20.000000 2.518606
v 20.000000 -20.000000 -5.014360
v 40.000000 -20.000000 -12.607106
v 60.000000 -20.000000 -20.453819
v 80.000000 -20.000000 -28.424007
v 100.000000 -20.000000 -35.750851
v 120.000000 -20.000000 -41.888058
v 140.000000 -20.000000 -47.097836
v 160.000000 -20.000000 -52.237797
v -160.000000 0.000000 48.391380
v -140.000000 0.000000 39.571617
v -120.000000 0.000000 32.328983
v -100.000000 0.000000 27.107229
v -80.000000 0.000000 23.305939
v -60.000000 0.000000 19.802914
v -40.000000 0.000000 15.355377
v -20.000000 0.000000 9.204668
v 0.000000 0.000000 1.812456
v 20.000000 0.000000 -5.271711
v 40.000000 0.000000 -11.446577
v 60.000000 0.000000 -18.299658
v 80.000000 0.000000 -26.007809
v 100.000000 0.000000 -33.479176
v 120.000000 0.000000 -39.965744
v 140.000000 0.000000 -45.773991
v 160.000000 0.000000 -51.329758
v -160.000000 20.000000 48.830894
v -140.000000 20.000000 38.820900
v -120.000000 20.000000 31.247324
v -100.000000 20.000000 26.123823
v -80.000000 20.000000 22.424482
v -60.000000 20.000000 18.961618
v -40.000000 20.000000 14.386518
v -20.000000 20.000000 8.179929
v 0.000000 20.000000 1.210466
v 20.000000 20.000000 -5.388709
v 40.000000 20.000000 -10.713626
v 60.000000 20.000000 -16.593088
v 80.000000 20.000000 -24.192583
v 100.000000 20.000000 -32.915123
v 120.000000 20.000000 -40.885849
v 140.000000 20.000000 -47.087231
v 160.000000 20.000000 -52.041458
v -160.000000 40.000000 48.955666
v -140.000000 40.000000 38.202370
v -120.000000 40.000000 30.845612
v -100.000000 40.000000 26.160242
v -80.000000 40.000000 22.312992
v -60.000000 40.000000 18.373932
v -40.000000 40.000000 13.276160
v -20.000000 40.000000 7.067332
v 0.000000 40.000000 0.625139
v 20.000000 40.000000 -5.530548
v 40.000000 40.000000 -10.605879
v 60.000000 40.000000 -15.887421
v 80.000000 40.000000 -23.188839
v 100.000000 40.000000 -32.308884
v 120.000000 40.000000 -40.868176
v 140.000000 40.000000 -47.455170
v 160.000000 40.000000 -52.258255
v -160.000000 60.000000 50.195587
v -140.000000 60.000000 38.499340
v -120.000000 60.000000 31.348820
v -100.000000 60.000000 26.848711
v -80.000000 60.000000 22.818275
v -60.000000 60.000000 18.014551
v -40.000000 60.000000 12.168196
v -20.000000 60.000000 5.832740
v 0.000000 60.000000 -0.018293
v 20.000000 60.000000 -5.651723
v 40.000000 60.000000 -10.915469
v 60.000000 60.000000 -15.946767
v 80.000000 60.000000 -22.295141
v 100.000000 60.000000 -30.386831
v 120.000000 60.000000 -38.704880
v 140.000000 60.000000 -45.756664
v 160.000000 60.000000 -51.148972
v -160.000000 80.000000 52.831894
v -140.000000 80.000000 40.473446
v -120.000000 80.000000 32.181847
v -100.000000 80.000000 27.358591
v -80.000000 80.000000 23.016436
v -60.000000 80.000000 17.467451
v -40.000000 80.000000 10.947059
v -20.000000 80.000000 4.676483
v 0.000000 80.000000 -0.607052
v 20.000000 80.000000 -5.511410
v 40.000000 80.000000 -9.411611
v 60.000000 80.000000 -12.499047
v 80.000000 80.000000 -16.756765
v 100.000000 80.000000 -23.133772
v 120.000000 80.000000 -31.704397
v 140.000000 80.000000 -39.777252
v 160.000000 80.000000 -46.592236
v -160.000000 100.000000 56.291576
v -140.000000 100.000000 43.256607
v -120.000000 100.000000 33.312305
v -100.000000 100.000000 27.758474
v -80.000000 100.000000 22.951054
v -60.000000 100.000000 16.692047
v -40.000000 100.000000 9.818634
v -20.000000 100.000000 3.941864
v 0.000000 100.000000 -0.621036
v 20.000000 100.000000 -4.046295
v 40.000000 100.000000 -6.217797
v 60.000000 100.000000 -7.210792
v 80.000000 100.000000 -8.740780
v 100.000000 100.000000 -13.330203
v 120.000000 100.000000 -21.321157
v 140.000000 100.000000 -30.321203
v 160.000000 100.000000 -38.653629
v -160.000000 120.000000 59.992870
v -140.000000 120.000000 45.865597
v -120.000000 120.000000 34.875057
v -100.000000 120.000000 28.300276
v -80.000000 120.000000 22.926096
v -60.000000 120.000000 15.898733
v -40.000000 120.000000 8.948381
v -20.000000 120.000000 4.085792
v 0.000000 120.000000 0.786374
v 20.000000 120.000000 -0.753089
v 40.000000 120.000000 -0.934926
v 60.000000 120.000000 -0.330692
v 80.000000 120.000000 -0.371389
v 100.000000 120.000000 -2.742516
v 120.000000 120.000000 -8.758779
v 140.000000 120.000000 -17.688622
v 160.000000 120.000000 -27.659176
v -160.000000 140.000000 64.731339
v -140.000000 140.000000 48.979977
v -120.000000 140.000000 36.957985
v -100.000000 140.000000 28.832083
v -80.000000 140.000000 22.827070
v -60.000000 140.000000 15.722056
v -40.000000 140.000000 9.143456
v -20.000000 140.000000 5.327993
v 0.000000 140.000000 3.883454
v 20.000000 140.000000 4.136946
v 40.000000 140.000000 5.152409
v 60.000000 140.000000 6.474193
v 80.000000 140.000000 6.916481
v 100.000000 140.000000 5.392616
v 120.000000 140.000000 0.729591
v 140.000000 140.000000 -6.990617
v 160.000000 140.000000 -18.079397
v -160.000000 160.000000 70.209213
v -140.000000 160.000000 53.040295
v -120.000000 160.000000 39.278152
v -100.000000 160.000000 29.554270
v -80.000000 160.000000 22.791697
v -60.000000 160.000000 15.947832
v -40.000000 160.000000 10.350366
v -20.000000 160.000000 7.763445
v 0.000000 160.000000 7.877404
v 20.000000 160.000000 9.457883
v 40.000000 160.000000 11.087528
v 60.000000 160.000000 12.299985
v 80.000000 160.000000 12.267894
v 100.000000 160.000000 10.646637
v 120.000000 160.000000 6.804081
v 140.000000 160.000000 0.452966
v 160.000000 160.000000 -10.566769
vn 0.1430 -0.2748 0.9508
vn 0.0787 -0.2532 0.9642
vn 0.1071 -0.2391 0.9651
vn 0.1687 -0.2665 0.9490
vn 0.0220 -0.2326 0.9723
vn 0.0486 -0.2100 0.9765
vn -0.0132 -0.2140 0.9767
vn 0.0152 -0.1803 0.9835
vn -0.0057 -0.1845 0.9828
vn 0.0346 -0.1488 0.9883
vn 0.0517 -0.1422 0.9885
vn 0.1018 -0.0977 0.9900
vn 0.1551 -0.0907 0.9837
vn 0.2041 -0.0423 0.9780
vn 0.2607 -0.0385 0.9647
vn 0.2976 0.0001 0.9547
vn 0.3369 -0.0015 0.9415
vn 0.3598 0.0282 0.9326
vn 0.3767 0.0202 0.9261
vn 0.3893 0.0473 0.9199
vn 0.3759 0.0254 0.9263
vn 0.3855 0.0584 0.9209
vn 0.3494 0.0344 0.9364
vn 0.3595 0.0745 0.9302
vn 0.3112 0.0430 0.9494
vn 0.3177 0.0881 0.9441
vn 0.2782 0.0455 0.9594
vn 0.2826 0.0968 0.9543
vn 0.2582 0.0466 0.9650
vn 0.2616 0.1017 0.9598
vn 0.2438 0.0581 0.9681
vn 0.2513 0.1011 0.9626
vn 0.2232 0.0794 0.9715
vn 0.2382 0.1070 0.9653
vn 0.1422 -0.2253 0.9639
vn 0.1980 -0.2484 0.9482
vn 0.0850 -0.1968 0.9768
vn 0.0501 -0.1565 0.9864
vn 0.0781 -0.1190 0.9898
vn 0.1572 -0.0695 0.9851
vn 0.2483 -0.0143 0.9686
vn 0.3250 0.0224 0.9455
vn 0.3782 0.0504 0.9244
vn 0.4017 0.0680 0.9132
vn 0.3973 0.0768 0.9145
vn 0.3726 0.0857 0.9240
vn 0.3281 0.0982 0.9395
vn 0.2879 0.1026 0.9522
vn 0.2605 0.0961 0.9607
vn 0.2477 0.0890 0.9647
vn 0.2382 0.0823 0.9677
vn 0.1654 -0.2041 0.9649
vn 0.2198 -0.2239 0.9495
vn 0.1220 -0.1790 0.9762
vn 0.0951 -0.1408 0.9855
vn 0.1214 -0.0987 0.9877
vn 0.2037 -0.0558 0.9774
vn 0.2899 -0.0171 0.9569
vn 0.3560 0.0110 0.9344
vn 0.3998 0.0315 0.9160
vn 0.4120 0.0427 0.9102
vn 0.4000 0.0435 0.9155
vn 0.3768 0.0435 0.9253
vn 0.3316 0.0517 0.9420
vn 0.2796 0.0543 0.9586
vn 0.2490 0.0440 0.9675
vn 0.2389 0.0318 0.9705
vn 0.2308 0.0179 0.9728
vn 0.1931 -0.1731 0.9658
vn 0.2454 -0.1998 0.9486
vn 0.1522 -0.1440 0.9778
vn 0.1323 -0.1169 0.9843
vn 0.1619 -0.0780 0.9837
vn 0.2346 -0.0448 0.9711
vn 0.3092 -0.0296 0.9505
vn 0.3680 -0.0263 0.9294
vn 0.4058 -0.0272 0.9135
vn 0.4124 -0.0310 0.9105
vn 0.3981 -0.0378 0.9166
vn 0.3797 -0.0375 0.9244
vn 0.3378 -0.0311 0.9407
vn 0.2808 -0.0201 0.9596
vn 0.2401 -0.0160 0.9706
vn 0.2242 -0.0297 0.9741
vn 0.2168 -0.0442 0.9752
vn 0.2266 -0.1339 0.9647
vn 0.2757 -0.1692 0.9462
vn 0.1816 -0.1015 0.9781
vn 0.1619 -0.0725 0.9841
vn 0.1919 -0.0409 0.9806
vn 0.2484 -0.0273 0.9683
vn 0.3053 -0.0345 0.9516
vn 0.3566 -0.0539 0.9327
vn 0.3945 -0.0727 0.9160
vn 0.4017 -0.0940 0.9109
vn 0.3932 -0.1053 0.9134
vn 0.3810 -0.1092 0.9181
vn 0.3464 -0.1067 0.9320
vn 0.2934 -0.0920 0.9516
vn 0.2394 -0.0794 0.9677
vn 0.2116 -0.0794 0.9741
vn 0.2055 -0.0762 0.9757
vn 0.2641 -0.0845 0.9608
vn 0.3148 -0.1288 0.9404
vn 0.2156 -0.0425 0.9756
vn 0.1928 -0.0078 0.9812
vn 0.2055 0.0099 0.9786
vn 0.2398 0.0031 0.9708
vn 0.2834 -0.0208 0.9588
vn 0.3326 -0.0418 0.9422
vn 0.3699 -0.0598 0.9271
vn 0.3830 -0.0931 0.9190
vn 0.3832 -0.1170 0.9162
vn 0.3773 -0.1334 0.9164
vn 0.3531 -0.1364 0.9256
vn 0.3063 -0.1273 0.9434
vn 0.2522 -0.1145 0.9609
vn 0.2273 -0.0956 0.9691
vn 0.2263 -0.0754 0.9711
vn 0.3119 -0.0246 0.9498
vn 0.3634 -0.0858 0.9277
vn 0.2565 0.0331 0.9660
vn 0.2128 0.0632 0.9751
vn 0.2023 0.0618 0.9774
vn 0.2191 0.0365 0.9750
vn 0.2635 0.0145 0.9645
vn 0.3215 0.0064 0.9469
vn 0.3501 0.0005 0.9367
vn 0.3535 -0.0284 0.9350
vn 0.3589 -0.0788 0.9300
vn 0.3653 -0.1136 0.9239
vn 0.3545 -0.1227 0.9270
vn 0.3168 -0.1176 0.9412
vn 0.2715 -0.1033 0.9569
vn 0.2497 -0.0774 0.9652
vn 0.2470 -0.0565 0.9674
vn 0.3725 0.0219 0.9278
vn 0.4198 -0.0426 0.9066
vn 0.2969 0.0612 0.9529
vn 0.2194 0.0735 0.9729
vn 0.1793 0.0654 0.9816
vn 0.1947 0.0466 0.9797
vn 0.2559 0.0413 0.9658
vn 0.3204 0.0416 0.9464
vn 0.3401 0.0307 0.9399
vn 0.3146 0.0088 0.9492
vn 0.3094 -0.0450 0.9499
vn 0.3407 -0.0903 0.9358
vn 0.3531 -0.0984 0.9304
vn 0.3287 -0.0667 0.9421
vn 0.2938 -0.0239 0.9556
vn 0.2733 -0.0003 0.9619
vn 0.2628 -0.0047 0.9649
vn 0.4022 0.0313 0.9150
vn 0.4656 -0.0125 0.8849
vn 0.3023 0.0353 0.9525
vn 0.2154 0.0231 0.9763
vn 0.1762 0.0245 0.9841
vn 0.1969 0.0350 0.9798
vn 0.2599 0.0501 0.9643
vn 0.3125 0.0507 0.9486
vn 0.3209 0.0279 0.9467
vn 0.2857 0.0062 0.9583
vn 0.2697 -0.0202 0.9627
vn 0.3188 -0.0570 0.9461
vn 0.3770 -0.0651 0.9239
vn 0.3850 -0.0270 0.9225
vn 0.3339 0.0213 0.9424
vn 0.2684 0.0404 0.9625
vn 0.2392 0.0225 0.9707
vn 0.4124 0.0073 0.9110
vn 0.5060 -0.0294 0.8620
vn 0.2883 -0.0024 0.9575
vn 0.2086 -0.0177 0.9778
vn 0.1910 -0.0096 0.9815
vn 0.2203 0.0231 0.9752
vn 0.2716 0.0532 0.9609
vn 0.3011 0.0559 0.9520
vn 0.3003 0.0293 0.9534
vn 0.2703 0.0063 0.9627
vn 0.2506 0.0049 0.9681
vn 0.3000 -0.0154 0.9538
vn 0.3794 -0.0438 0.9242
vn 0.4036 -0.0577 0.9131
vn 0.3536 -0.0509 0.9340
vn 0.2737 -0.0319 0.9613
vn 0.2195 -0.0218 0.9754
vn 0.4257 -0.0513 0.9034
vn 0.5365 -0.0814 0.8400
vn 0.2795 -0.0320 0.9596
vn 0.2084 -0.0292 0.9776
vn 0.2156 -0.0172 0.9763
vn 0.2572 0.0219 0.9661
vn 0.2909 0.0556 0.9551
vn 0.2909 0.0571 0.9550
vn 0.2758 0.0296 0.9608
vn 0.2628 -0.0005 0.9648
vn 0.2492 -0.0289 0.9680
vn 0.2727 -0.0812 0.9587
vn 0.3357 -0.1496 0.9300
vn 0.3713 -0.2076 0.9050
vn 0.3507 -0.2091 0.9128
vn 0.2922 -0.1803 0.9392
vn 0.2223 -0.1367 0.9653
vn 0.4562 -0.1051 0.8837
vn 0.5449 -0.1263 0.8289
vn 0.3112 -0.0466 0.9492
vn 0.2233 -0.0221 0.9745
vn 0.2401 -0.0032 0.9707
vn 0.2887 0.0316 0.9569
vn 0.3041 0.0559 0.9510
vn 0.2772 0.0454 0.9597
vn 0.2468 0.0146 0.9690
vn 0.2148 -0.0392 0.9759
vn 0.1709 -0.1149 0.9786
vn 0.1766 -0.2100 0.9616
vn 0.2442 -0.3112 0.9184
vn 0.3251 -0.3709 0.8699
vn 0.3565 -0.3724 0.8569
vn 0.3280 -0.3401 0.8813
vn 0.2758 -0.2866 0.9175
vn 0.4948 -0.1161 0.8612
vn 0.5501 -0.1472 0.8220
vn 0.3606 -0.0627 0.9306
vn 0.2507 -0.0228 0.9678
vn 0.2667 0.0022 0.9638
vn 0.3117 0.0372 0.9494
vn 0.3034 0.0476 0.9517
vn 0.2525 0.0143 0.9675
vn 0.1957 -0.0341 0.9801
vn 0.1376 -0.1170 0.9836
vn 0.0772 -0.2067 0.9754
vn 0.0602 -0.2905 0.9550
vn 0.1402 -0.3753 0.9162
vn 0.2698 -0.4374 0.8579
vn 0.3457 -0.4669 0.8139
vn 0.3547 -0.4520 0.8185
vn 0.3312 -0.4037 0.8528
vn 0.5279 -0.1203 0.8407
vn 0.5701 -0.1696 0.8039
vn 0.4007 -0.0831 0.9124
vn 0.2861 -0.0257 0.9579
vn 0.2961 0.0029 0.9552
vn 0.3298 0.0229 0.9438
vn 0.2832 0.0162 0.9589
vn 0.1998 -0.0339 0.9792
vn 0.1194 -0.1111 0.9866
vn 0.0421 -0.2003 0.9788
vn -0.0101 -0.2734 0.9619
vn -0.0132 -0.3237 0.9461
vn 0.0561 -0.3639 0.9297
vn 0.1866 -0.4165 0.8898
vn 0.3110 -0.4588 0.8323
vn 0.3779 -0.4665 0.7997
vn 0.4073 -0.4178 0.8122
vn 0.5643 -0.1458 0.8126
vn 0.5928 -0.1993 0.7803
vn 0.4477 -0.0978 0.8888
vn 0.3330 -0.0295 0.9425
vn 0.3115 0.0032 0.9503
vn 0.3237 -0.0012 0.9462
vn 0.2513 -0.0339 0.9673
vn 0.1299 -0.0908 0.9874
vn 0.0293 -0.1744 0.9842
vn -0.0307 -0.2472 0.9685
vn -0.0558 -0.2875 0.9562
vn -0.0420 -0.3008 0.9527
vn 0.0258 -0.3012 0.9532
vn 0.1451 -0.3141 0.9382
vn 0.2772 -0.3484 0.8954
vn 0.3937 -0.3797 0.8372
vn 0.4671 -0.3474 0.8131
vn 0.6004 -0.1916 0.7764
vn 0.6029 -0.2117 0.7692
vn 0.5032 -0.1114 0.8570
vn 0.3808 -0.0355 0.9240
vn 0.3220 0.0004 0.9467
vn 0.2969 -0.0210 0.9547
vn 0.1999 -0.0779 0.9767
vn 0.0611 -0.1406 0.9882
vn -0.0414 -0.2023 0.9785
vn -0.0775 -0.2449 0.9664
vn -0.0685 -0.2558 0.9643
vn -0.0287 -0.2371 0.9711
vn 0.0404 -0.2041 0.9781
vn 0.1330 -0.1832 0.9740
vn 0.2417 -0.2044 0.9486
vn 0.3863 -0.2438 0.8896
vn 0.4878 -0.2601 0.8333
vt 0.015625 0.015625
vt 0.076172 0.015625
vt 0.076172 0.076172
vt 0.015625 0.076172
vt 0.136719 0.015625
vt 0.136719 0.076172
vt 0.197266 0.015625
vt 0.197266 0.076172
vt 0.257812 0.015625
vt 0.257812 0.076172
vt 0.318359 0.015625
vt 0.318359 0.076172
vt 0.378906 0.015625
vt 0.378906 0.076172
vt 0.439453 0.015625
vt 0.439453 0.076172
vt 0.500000 0.015625
vt 0.500000 0.076172
vt 0.560547 0.015625
vt 0.560547 0.076172
vt 0.621094 0.015625
vt 0.621094 0.076172
vt 0.681641 0.015625
vt 0.681641 0.076172
vt 0.742188 0.015625
vt 0.742188 0.076172
vt 0.802734 0.015625
vt 0.802734 0.076172
vt 0.863281 0.015625
vt 0.863281 0.076172
vt 0.923828 0.015625
vt 0.923828 0.076172
vt 0.984375 0.015625
vt 0.984375 0.076172
vt 0.076172 0.136719
vt 0.015625 0.136719
vt 0.136719 0.136719
vt 0.197266 0.136719
vt 0.257812 0.136719
vt 0.318359 0.136719
vt 0.378906 0.136719
vt 0.439453 0.136719
vt 0.500000 0.136719
vt 0.560547 0.136719
vt 0.621094 0.136719
vt 0.681641 0.136719
vt 0.742188 0.136719
vt 0.802734 0.136719
vt 0.863281 0.136719
vt 0.923828 0.136719
vt 0.984375 0.136719
vt 0.076172 0.197266
vt 0.015625 0.197266
vt 0.136719 0.197266
vt 0.197266 0.197266
vt 0.257812 0.197266
vt 0.318359 0.197266
vt 0.378906 0.197266
vt 0.439453 0.197266
vt 0.500000 0.197266
vt 0.560547 0.197266
vt 0.621094 0.197266
vt 0.681641 0.197266
vt 0.742188 0.197266
vt 0.802734 0.197266
vt 0.863281 0.197266
vt 0.923828 0.197266
vt 0.984375 0.197266
vt 0.076172 0.257812
vt 0.015625 0.257812
vt 0.136719 0.257812
vt 0.197266 0.257812
vt 0.257812 0.257812
vt 0.318359 0.257812
vt 0.378906 0.257812
vt 0.439453 0.257812
vt 0.500000 0.257812
vt 0.560547 0.257812
vt 0.621094 0.257812
vt 0.681641 0.257812
vt 0.742188 0.257812
vt 0.802734 0.257812
vt 0.863281 0.257812
vt 0.923828 0.257812
vt 0.984375 0.257812
vt 0.076172 0.318359
vt 0.015625 0.318359
vt 0.136719 0.318359
vt 0.197266 0.318359
vt 0.257812 0.318359
vt 0.318359 0.318359
vt 0.378906 0.318359
vt 0.439453 0.318359
vt 0.500000 0.318359
vt 0.560547 0.318359
vt 0.621094 0.318359
vt 0.681641 0.318359
vt 0.742188 0.318359
vt 0.802734 0.318359
vt 0.863281 0.318359
vt 0.923828 0.318359
vt 0.984375 0.318359
vt 0.076172 0.378906
vt 0.015625 0.378906
vt 0.136719 0.378906
vt 0.197266 0.378906
vt 0.257812 0.378906
vt 0.318359 0.378906
vt 0.378906 0.378906
vt 0.439453 0.378906
vt 0.500000 0.378906
vt 0.560547 0.378906
vt 0.621094 0.378906
vt 0.681641 0.378906
vt 0.742188 0.378906
vt 0.802734 0.378906
vt 0.863281 0.378906
vt 0.923828 0.378906
vt 0.984375 0.378906
vt 0.076172 0.439453
vt 0.015625 0.439453
vt 0.136719 0.439453
vt 0.197266 0.439453
vt 0.257812 0.439453
vt 0.318359 0.439453
vt 0.378906 0.439453
vt 0.439453 0.439453
vt 0.500000 0.439453
vt 0.560547 0.439453
vt 0.621094 0.439453
vt 0.681641 0.439453
vt 0.742188 0.439453
vt 0.802734 0.439453
vt 0.863281 0.439453
vt 0.923828 0.439453
vt 0.984375 0.439453
vt 0.076172 0.500000
vt 0.015625 0.500000
vt 0.136719 0.500000
vt 0.197266 0.500000
vt 0.257812 0.500000
vt 0.318359 0.500000
vt 0.378906 0.500000
vt 0.439453 0.500000
vt 0.500000 0.500000
vt 0.560547 0.500000
vt 0.621094 0.500000
vt 0.681641 0.500000
vt 0.742188 0.500000
vt 0.802734 0.500000
vt 0.863281 0.500000
vt 0.923828 0.500000
vt 0.984375 0.500000
vt 0.076172 0.560547
vt 0.015625 0.560547
vt 0.136719 0.560547
vt 0.197266 0.560547
vt 0.257812 0.560547
vt 0.318359 0.560547
vt 0.378906 0.560547
vt 0.439453 0.560547
vt 0.500000 0.560547
vt 0.560547 0.560547
vt 0.621094 0.560547
vt 0.681641 0.560547
vt 0.742188 0.560547
vt 0.802734 0.560547
vt 0.863281 0.560547
vt 0.923828 0.560547
vt 0.984375 0.560547
vt 0.076172 0.621094
vt 0.015625 0.621094
vt 0.136719 0.621094
vt 0.197266 0.621094
vt 0.257812 0.621094
vt 0.318359 0.621094
vt 0.378906 0.621094
vt 0.439453 0.621094
vt 0.500000 0.621094
vt 0.560547 0.621094
vt 0.621094 0.621094
vt 0.681641 0.621094
vt 0.742188 0.621094
vt 0.802734 0.621094
vt 0.863281 0.621094
vt 0.923828 0.621094
vt 0.984375 0.621094
vt 0.076172 0.681641
vt 0.015625 0.681641
vt 0.136719 0.681641
vt 0.197266 0.681641
vt 0.257812 0.681641
vt 0.318359 0.681641
vt 0.378906 0.681641
vt 0.439453 0.681641
vt 0.500000 0.681641
vt 0.560547 0.681641
vt 0.621094 0.681641
vt 0.681641 0.681641
vt 0.742188 0.681641
vt 0.802734 0.681641
vt 0.863281 0.681641
vt 0.923828 0.681641
vt 0.984375 0.681641
vt 0.076172 0.742188
vt 0.015625 0.742188
vt 0.136719 0.742188
vt 0.197266 0.742188
vt 0.257812 0.742188
vt 0.318359 0.742188
vt 0.378906 0.742188
vt 0.439453 0.742188
vt 0.500000 0.742188
vt 0.560547 0.742188
vt 0.621094 0.742188
vt 0.681641 0.742188
vt 0.742188 0.742188
vt 0.802734 0.742188
vt 0.863281 0.742188
vt 0.923828 0.742188
vt 0.984375 0.742188
vt 0.076172 0.802734
vt 0.015625 0.802734
vt 0.136719 0.802734
vt 0.197266 0.802734
vt 0.257812 0.802734
vt 0.318359 0.802734
vt 0.378906 0.802734
vt 0.439453 0.802734
vt 0.500000 0.802734
vt 0.560547 0.802734
vt 0.621094 0.802734
vt 0.681641 0.802734
vt 0.742188 0.802734
vt 0.802734 0.802734
vt 0.863281 0.802734
vt 0.923828 0.802734
vt 0.984375 0.802734
vt 0.076172 0.863281
vt 0.015625 0.863281
vt 0.136719 0.863281
vt 0.197266 0.863281
vt 0.257812 0.863281
vt 0.318359 0.863281
vt 0.378906 0.863281
vt 0.439453 0.863281
vt 0.500000 0.863281
vt 0.560547 0.863281
vt 0.621094 0.863281
vt 0.681641 0.863281
vt 0.742188 0.863281
vt 0.802734 0.863281
vt 0.863281 0.863281
vt 0.923828 0.863281
vt 0.984375 0.863281
vt 0.076172 0.923828
vt 0.015625 0.923828
vt 0.136719 0.923828
vt 0.197266 0.923828
vt 0.257812 0.923828
vt 0.318359 0.923828
vt 0.378906 0.923828
vt 0.439453 0.923828
vt 0.500000 0.923828
vt 0.560547 0.923828
vt 0.621094 0.923828
vt 0.681641 0.923828
vt 0.742188 0.923828
vt 0.802734 0.923828
vt 0.863281 0.923828
vt 0.923828 0.923828
vt 0.984375 0.923828
vt 0.076172 0.984375
vt 0.015625 0.984375
vt 0.136719 0.984375
vt 0.197266 0.984375
vt 0.257812 0.984375
vt 0.318359 0.984375
vt 0.378906 0.984375
vt 0.439453 0.984375
vt 0.500000 0.984375
vt 0.560547 0.984375
vt 0.621094 0.984375
vt 0.681641 0.984375
vt 0.742188 0.984375
vt 0.802734 0.984375
vt 0.863281 0.984375
vt 0.923828 0.984375
vt 0.984375 0.984375
s 1
f 1/1/1 2/2/2 19/3/3
f 1/1/1 19/3/3 18/4/4
f 2/2/2 3/5/5 20/6/6
f 2/2/2 20/6/6 19/3/3
f 3/5/5 4/7/7 21/8/8
f 3/5/5 21/8/8 20/6/6
f 4/7/7 5/9/9 22/10/10
f 4/7/7 22/10/10 21/8/8
f 5/9/9 6/11/11 23/12/12
f 5/9/9 23/12/12 22/10/10
f 6/11/11 7/13/13 24/14/14
f 6/11/11 24/14/14 23/12/12
f 7/13/13 8/15/15 25/16/16
f 7/13/13 25/16/16 24/14/14
f 8/15/15 9/17/17 26/18/18
f 8/15/15 26/18/18 25/16/16
f 9/17/17 10/19/19 27/20/20
f 9/17/17 27/20/20 26/18/18
f 10/19/19 11/21/21 28/22/22
f 10/19/19 28/22/22 27/20/20
f 11/21/21 12/23/23 29/24/24
f 11/21/21 29/24/24 28/22/22
f 12/23/23 13/25/25 30/26/26
f 12/23/23 30/26/26 29/24/24
f 13/25/25 14/27/27 31/28/28
f 13/25/25 31/28/28 30/26/26
f 14/27/27 15/29/29 32/30/30
f 14/27/27 32/30/30 31/28/28
f 15/29/29 16/31/31 33/32/32
f 15/29/29 33/32/32 32/30/30
f 16/31/31 17/33/33 34/34/34
f 16/31/31 34/34/34 33/32/32
f 18/4/4 19/3/3 36/35/35
f 18/4/4 36/35/35 35/36/36
f 19/3/3 20/6/6 37/37/37
f 19/3/3 37/37/37 36/35/35
f 20/6/6 21/8/8 38/38/38
f 20/6/6 38/38/38 37/37/37
f 21/8/8 22/10/10 39/39/39
f 21/8/8 39/39/39 38/38/38
f 22/10/10 23/12/12 40/40/40
f 22/10/10 40/40/40 39/39/39
f 23/12/12 24/14/14 41/41/41
f 23/12/12 41/41/41 40/40/40
f 24/14/14 25/16/16 42/42/42
f 24/14/14 42/42/42 41/41/41
f 25/16/16 26/18/18 43/43/43
f 25/16/16 43/43/43 42/42/42
f 26/18/18 27/20/20 44/44/44
f 26/18/18 44/44/44 43/43/43
f 27/20/20 28/22/22 45/45/45
f 27/20/20 45/45/45 44/44/44
f 28/22/22 29/24/24 46/46/46
f 28/22/22 46/46/46 45/45/45
f 29/24/24 30/26/26 47/47/47
f 29/24/24 47/47/47 46/46/46
f 30/26/26 31/28/28 48/48/48
f 30/26/26 48/48/48 47/47/47
f 31/28/28 32/30/30 49/49/49
f 31/28/28 49/49/49 48/48/48
f 32/30/30 33/32/32 50/50/50
f 32/30/30 50/50/50 49/49/49
f 33/32/32 34/34/34 51/51/51
f 33/32/32 51/51/51 50/50/50
f 35/36/36 36/35/35 53/52/52
f 35/36/36 53/52/52 52/53/53
f 36/35/35 37/37/37 54/54/54
f 36/35/35 54/54/54 53/52/52
f 37/37/37 38/38/38 55/55/55
f 37/37/37 55/55/55 54/54/54
f 38/38/38 39/39/39 56/56/56
f 38/38/38 56/56/56 55/55/55
f 39/39/39 40/40/40 57/57/57
f 39/39/39 57/57/57 56/56/56
f 40/40/40 41/41/41 58/58/58
f 40/40/40 58/58/58 57/57/57
f 41/41/41 42/42/42 59/59/59
f 41/41/41 59/59/59 58/58/58
f 42/42/42 43/43/43 60/60/60
f 42/42/42 60/60/60 59/59/59
f 43/43/43 44/44/44 61/61/61
f 43/43/43 61/61/61 60/60/60
f 44/44/44 45/45/45 62/62/62
f 44/44/44 62/62/62 61/61/61
f 45/45/45 46/46/46 63/63/63
f 45/45/45 63/63/63 62/62/62
f 46/46/46 47/47/47 64/64/64
f 46/46/46 64/64/64 63/63/63
f 47/47/47 48/48/48 65/65/65
f 47/47/47 65/65/65 64/64/64
f 48/48/48 49/49/49 66/66/66
f 48/48/48 66/66/66 65/65/65
f 49/49/49 50/50/50 67/67/67
f 49/49/49 67/67/67 66/66/66
f 50/50/50 51/51/51 68/68/68
f 50/50/50 68/68/68 67/67/67
f 52/53/53 53/52/52 70/69/69
f 52/53/53 70/69/69 69/70/70
f 53/52/52 54/54/54 71/71/71
f 53/52/52 71/71/71 70/69/69
f 54/54/54 55/55/55 72/72/72
f 54/54/54 72/72/72 71/71/71
f 55/55/55 56/56/56 73/73/73
f 55/55/55 73/73/73 72/72/72
f 56/56/56 57/57/57 74/74/74
f 56/56/56 74/74/74 73/73/73
f 57/57/57 58/58/58 75/75/75
f 57/57/57 75/75/75 74/74/74
f 58/58/58 59/59/59 76/76/76
f 58/58/58 76/76/76 75/75/75
f 59/59/59 60/60/60 77/77/77
f 59/59/59 77/77/77 76/76/76
f 60/60/60 61/61/61 78/78/78
f 60/60/60 78/78/78 77/77/77
f 61/61/61 62/62/62 79/79/79
f 61/61/61 79/79/79 78/78/78
f 62/62/62 63/63/63 80/80/80
f 62/62/62 80/80/80 79/79/79
f 63/63/63 64/64/64 81/81/81
f 63/63/63 81/81/81 80/80/80
f 64/64/64 65/65/65 82/82/82
f 64/64/64 82/82/82 81/81/81
f 65/65/65 66/66/66 83/83/83
f 65/65/65 83/83/83 82/82/82
f 66/66/66 67/67/67 84/84/84
f 66/66/66 84/84/84 83/83/83
f 67/67/67 68/68/68 85/85/85
f 67/67/67 85/85/85 84/84/84
f 69/70/70 70/69/69 87/86/86
f 69/70/70 87/86/86 86/87/87
f 70/69/69 71/71/71 88/88/88
f 70/69/69 88/88/88 87/86/86
f 71/71/71 72/72/72 89/89/89
f 71/71/71 89/89/89 88/88/88
f 72/72/72 73/73/73 90/90/90
f 72/72/72 90/90/90 89/89/89
f 73/73/73 74/74/74 91/91/91
f 73/73/73 91/91/91 90/90/90
f 74/74/74 75/75/75 92/92/92
f 74/74/74 92/92/92 91/91/91
f 75/75/75 76/76/76 93/93/93
f 75/75/75 93/93/93 92/92/92
f 76/76/76 77/77/77 94/94/94
f 76/76/76 94/94/94 93/93/93
f 77/77/77 78/78/78 95/95/95
f 77/77/77 95/95/95 94/94/94
f 78/78/78 79/79/79 96/96/96
f 78/78/78 96/96/96 95/95/95
f 79/79/79 80/80/80 97/97/97
f 79/79/79 97/97/97 96/96/96
f 80/80/80 81/81/81 98/98/98
f 80/80/80 98/98/98 97/97/97
f 81/81/81 82/82/82 99/99/99
f 81/81/81 99/99/99 98/98/98
f 82/82/82 83/83/83 100/100/100
f 82/82/82 100/100/100 99/99/99
f 83/83/83 84/84/84 101/101/101
f 83/83/83 101/101/101 100/100/100
f 84/84/84 85/85/85 102/102/102
f 84/84/84 102/102/102 101/101/101
f 86/87/87 87/86/86 104/103/103
f 86/87/87 104/103/103 103/104/104
f 87/86/86 88/88/88 105/105/105
f 87/86/86 105/105/105 104/103/103
f 88/88/88 89/89/89 106/106/106
f 88/88/88 106/106/106 105/105/105
f 89/89/89 90/90/90 107/107/107
f 89/89/89 107/107/107 106/106/106
f 90/90/90 91/91/91 108/108/108
f 90/90/90 108/108/108 107/107/107
f 91/91/91 92/92/92 109/109/109
f 91/91/91 109/109/109 108/108/108
f 92/92/92 93/93/93 110/110/110
f 92/92/92 110/110/110 109/109/109
f 93/93/93 94/94/94 111/111/111
f 93/93/93 111/111/111 110/110/110
f 94/94/94 95/95/95 112/112/112
f 94/94/94 112/112/112 111/111/111
f 95/95/95 96/96/96 113/113/113
f 95/95/95 113/113/113 112/112/112
f 96/96/96 97/97/97 114/114/114
f 96/96/96 114/114/114 113/113/113
f 97/97/97 98/98/98 115/115/115
f 97/97/97 115/115/115 114/114/114
f 98/98/98 99/99/99 116/116/116
f 98/98/98 116/116/116 115/115/115
f 99/99/99 100/100/100 117/117/117
f 99/99/99 117/117/117 116/116/116
f 100/100/100 101/101/101 118/118/118
f 100/100/100 118/118/118 117/117/117
f 101/101/101 102/102/102 119/119/119
f 101/101/101 119/119/119 118/118/118
f 103/104/104 104/103/103 121/120/120
f 103/104/104 121/120/120 120/121/121
f 104/103/103 105/105/105 122/122/122
f 104/103/103 122/122/122 121/120/120
f 105/105/105 106/106/106 123/123/123
f 105/105/105 123/123/123 122/122/122
f 106/106/106 107/107/107 124/124/124
f 106/106/106 124/124/124 123/123/123
f 107/107/107 108/108/108 125/125/125
f 107/107/107 125/125/125 124/124/124
f 108/108/108 109/109/109 126/126/126
f 108/108/108 126/126/126 125/125/125
f 109/109/109 110/110/110 127/127/127
f 109/109/109 127/127/127 126/126/126
f 110/110/110 111/111/111 128/128/128
f 110/110/110 128/128/128 127/127/127
f 111/111/111 112/112/112 129/129/129
f 111/111/111 129/129/129 128/128/128
f 112/112/112 113/113/113 130/130/130
f 112/112/112 130/130/130 129/129/129
f 113/113/113 114/114/114 131/131/131
f 113/113/113 131/131/131 130/130/130
f 114/114/114 115/115/115 132/132/132
f 114/114/114 132/132/132 131/131/131
f 115/115/115 116/116/116 133/133/133
f 115/115/115 133/133/133 132/132/132
f 116/116/116 117/117/117 134/134/134
f 116/116/116 134/134/134 133/133/133
f 117/117/117 118/118/118 135/135/135
f 117/117/117 135/135/135 134/134/134
f 118/118/118 119/119/119 136/136/136
f 118/118/118 136/136/136 135/135/135
f 120/121/121 121/120/120 138/137/137
f 120/121/121 138/137/137 137/138/138
f 121/120/120 122/122/122 139/139/139
f 121/120/120 139/139/139 138/137/137
f 122/122/122 123/123/123 140/140/140
f 122/122/122 140/140/140 139/139/139
f 123/123/123 124/124/124 141/141/141
f 123/123/123 141/141/141 140/140/140
f 124/124/124 125/125/125 142/142/142
f 124/124/124 142/142/142 141/141/141
f 125/125/125 126/126/126 143/143/143
f 125/125/125 143/143/143 142/142/142
f 126/126/126 127/127/127 144/144/144
f 126/126/126 144/144/144 143/143/143
f 127/127/127 128/128/128 145/145/145
f 127/127/127 145/145/145 144/144/144
f 128/128/128 129/129/129 146/146/146
f 128/128/128 146/146/146 145/145/145
f 129/129/129 130/130/130 147/147/147
f 129/129/129 147/147/147 146/146/146
f 130/130/130 131/131/131 148/148/148
f 130/130/130 148/148/148 147/147/147
f 131/131/131 132/132/132 149/149/149
f 131/131/131 149/149/149 148/148/148
f 132/132/132 133/133/133 150/150/150
f 132/132/132 150/150/150 149/149/149
f 133/133/133 134/134/134 151/151/151
f 133/133/133 151/151/151 150/150/150
f 134/134/134 135/135/135 152/152/152
f 134/134/134 152/152/152 151/151/151
f 135/135/135 136/136/136 153/153/153
f 135/135/135 153/153/153 152/152/152
f 137/138/138 138/137/137 155/154/154
f 137/138/138 155/154/154 154/155/155
f 138/137/137 139/139/139 156/156/156
f 138/137/137 156/156/156 155/154/154
f 139/139/139 140/140/140 157/157/157
f 139/139/139 157/157/157 156/156/156
f 140/140/140 141/141/141 158/158/158
f 140/140/140 158/158/158 157/157/157
f 141/141/141 142/142/142 159/159/159
f 141/141/141 159/159/159 158/158/158
f 142/142/142 143/143/143 160/160/160
f 142/142/142 160/160/160 159/159/159
f 143/143/143 144/144/144 161/161/161
f 143/143/143 161/161/161 160/160/160
f 144/144/144 145/145/145 162/162/162
f 144/144/144 162/162/162 161/161/161
f 145/145/145 146/146/146 163/163/163
f 145/145/145 163/163/163 162/162/162
f 146/146/146 147/147/147 164/164/164
f 146/146/146 164/164/164 163/163/163
f 147/147/147 148/148/148 165/165/165
f 147/147/147 165/165/165 164/164/164
f 148/148/148 149/149/149 166/166/166
f 148/148/148 166/166/166 165/165/165
f 149/149/149 150/150/150 167/167/167
f 149/149/149 167/167/167 166/166/166
f 150/150/150 151/151/151 168/168/168
f 150/150/150 168/168/168 167/167/167
f 151/151/151 152/152/152 169/169/169
f 151/151/151 169/169/169 168/168/168
f 152/152/152 153/153/153 170/170/170
f 152/152/152 170/170/170 169/169/169
f 154/155/155 155/154/154 172/171/171
f 154/155/155 172/171/171 171/172/172
f 155/154/154 156/156/156 173/173/173
f 155/154/154 173/173/173 172/171/171
f 156/156/156 157/157/157 174/174/174
f 156/156/156 174/174/174 173/173/173
f 157/157/157 158/158/158 175/175/175
f 157/157/157 175/175/175 174/174/174
f 158/158/158 159/159/159 176/176/176
f 158/158/158 176/176/176 175/175/175
f 159/159/159 160/160/160 177/177/177
f 159/159/159 177/177/177 176/176/176
f 160/160/160 161/161/161 178/178/178
f 160/160/160 178/178/178 177/177/177
f 161/161/161 162/162/162 179/179/179
f 161/161/161 179/179/179 178/178/178
f 162/162/162 163/163/163 180/180/180
f 162/162/162 180/180/180 179/179/179
f 163/163/163 164/164/164 181/181/181
f 163/163/163 181/181/181 180/180/180
f 164/164/164 165/165/165 182/182/182
f 164/164/164 182/182/182 181/181/181
f 165/165/165 166/166/166 183/183/183
f 165/165/165 183/183/183 182/182/182
f 166/166/166 167/167/167 184/184/184
f 166/166/166 184/184/184 183/183/183
f 167/167/167 168/168/168 185/185/185
f 167/167/167 185/185/185 184/184/184
f 168/168/168 169/169/169 186/186/186
f 168/168/168 186/186/186 185/185/185
f 169/169/169 170/170/170 187/187/187
f 169/169/169 187/187/187 186/186/186
f 171/172/172 172/171/171 189/188/188
f 171/172/172 189/188/188 188/189/189
f 172/171/171 173/173/173 190/190/190
f 172/171/171 190/190/190 189/188/188
f 173/173/173 174/174/174 191/191/191
f 173/173/173 191/191/191 190/190/190
f 174/174/174 175/175/175 192/192/192
f 174/174/174 192/192/192 191/191/191
f 175/175/175 176/176/176 193/193/193
f 175/175/175 193/193/193 192/192/192
f 176/176/176 177/177/177 194/194/194
f 176/176/176 194/194/194 193/193/193
f 177/177/177 178/178/178 195/195/195
f 177/177/177 195/195/195 194/194/194
f 178/178/178 179/179/179 196/196/196
f 178/178/178 196/196/196 195/195/195
f 179/179/179 180/180/180 197/197/197
f 179/179/179 197/197/197 196/196/196
f 180/180/180 181/181/181 198/198/198
f 180/180/180 198/198/198 197/197/197
f 181/181/181 182/182/182 199/199/199
f 181/181/181 199/199/199 198/198/198
f 182/182/182 183/183/183 200/200/200
f 182/182/182 200/200/200 199/199/199
f 183/183/183 184/184/184 201/201/201
f 183/183/183 201/201/201 200/200/200
f 184/184/184 185/185/185 202/202/202
f 184/184/184 202/202/202 201/201/201
f 185/185/185 186/186/186 203/203/203
f 185/185/185 203/203/203 202/202/202
f 186/186/186 187/187/187 204/204/204
f 186/186/186 204/204/204 203/203/203
f 188/189/189 189/188/188 206/205/205
f 188/189/189 206/205/205 205/206/206
f 189/188/188 190/190/190 207/207/207
f 189/188/188 207/207/207 206/205/205
f 190/190/190 191/191/191 208/208/208
f 190/190/190 208/208/208 207/207/207
f 191/191/191 192/192/192 209/209/209
f 191/191/191 209/209/209 208/208/208
f 192/192/192 193/193/193 210/210/210
f 192/192/192 210/210/210 209/209/209
f 193/193/193 194/194/194 211/211/211
f 193/193/193 211/211/211 210/210/210
f 194/194/194 195/195/195 212/212/212
f 194/194/194 212/212/212 211/211/211
f 195/195/195 196/196/196 213/213/213
f 195/195/195 213/213/213 212/212/212
f 196/196/196 197/197/197 214/214/214
f 196/196/196 214/214/214 213/213/213
f 197/197/197 198/198/198 215/215/215
f 197/197/197 215/215/215 214/214/214
f 198/198/198 199/199/199 216/216/216
f 198/198/198 216/216/216 215/215/215
f 199/199/199 200/200/200 217/217/217
f 199/199/199 217/217/217 216/216/216
f 200/200/200 201/201/201 218/218/218
f 200/200/200 218/218/218 217/217/217
f 201/201/201 202/202/202 219/219/219
f 201/201/201 219/219/219 218/218/218
f 202/202/202 203/203/203 220/220/220
f 202/202/202 220/220/220 219/219/219
f 203/203/203 204/204/204 221/221/221
f 203/203/203 221/221/221 220/220/220
f 205/206/206 206/205/205 223/222/222
f 205/206/206 223/222/222 222/223/223
f 206/205/205 207/207/207 224/224/224
f 206/205/205 224/224/224 223/222/222
f 207/207/207 208/208/208 225/225/225
f 207/207/207 225/225/225 224/224/224
f 208/208/208 209/209/209 226/226/226
f 208/208/208 226/226/226 225/225/225
f 209/209/209 210/210/210 227/227/227
f 209/209/209 227/227/227 226/226/226
f 210/210/210 211/211/211 228/228/228
f 210/210/210 228/228/228 227/227/227
f 211/211/211 212/212/212 229/229/229
f 211/211/211 229/229/229 228/228/228
f 212/212/212 213/213/213 230/230/230
f 212/212/212 230/230/230 229/229/229
f 213/213/213 214/214/214 231/231/231
f 213/213/213 231/231/231 230/230/230
f 214/214/214 215/215/215 232/232/232
f 214/214/214 232/232/232 231/231/231
f 215/215/215 216/216/216 233/233/233
f 215/215/215 233/233/233 232/232/232
f 216/216/216 217/217/217 234/234/234
f 216/216/216 234/234/234 233/233/233
f 217/217/217 218/218/218 235/235/235
f 217/217/217 235/235/235 234/234/234
f 218/218/218 219/219/219 236/236/236
f 218/218/218 236/236/236 235/235/235
f 219/219/219 220/220/220 237/237/237
f 219/219/219 237/237/237 236/236/236
f 220/220/220 221/221/221 238/238/238
f 220/220/220 238/238/238 237/237/237
f 222/223/223 223/222/222 240/239/239
f 222/223/223 240/239/239 239/240/240
f 223/222/222 224/224/224 241/241/241
f 223/222/222 241/241/241 240/239/239
f 224/224/224 225/225/225 242/242/242
f 224/224/224 242/242/242 241/241/241
f 225/225/225 226/226/226 243/243/243
f 225/225/225 243/243/243 242/242/242
f 226/226/226 227/227/227 244/244/244
f 226/226/226 244/244/244 243/243/243
f 227/227/227 228/228/228 245/245/245
f 227/227/227 245/245/245 244/244/244
f 228/228/228 229/229/229 246/246/246
f 228/228/228 246/246/246 245/245/245
f 229/229/229 230/230/230 247/247/247
f 229/229/229 247/247/247 246/246/246
f 230/230/230 231/231/231 248/248/248
f 230/230/230 248/248/248 247/247/247
f 231/231/231 232/232/232 249/249/249
f 231/231/231 249/249/249 248/248/248
f 232/232/232 233/233/233 250/250/250
f 232/232/232 250/250/250 249/249/249
f 233/233/233 234/234/234 251/251/251
f 233/233/233 251/251/251 250/250/250
f 234/234/234 235/235/235 252/252/252
f 234/234/234 252/252/252 251/251/251
f 235/235/235 236/236/236 253/253/253
f 235/235/235 253/253/253 252/252/252
f 236/236/236 237/237/237 254/254/254
f 236/236/236 254/254/254 253/253/253
f 237/237/237 238/238/238 255/255/255
f 237/237/237 255/255/255 254/254/254
f 239/240/240 240/239/239 257/256/256
f 239/240/240 257/256/256 256/257/257
f 240/239/239 241/241/241 258/258/258
f 240/239/239 258/258/258 257/256/256
f 241/241/241 242/242/242 259/259/259
f 241/241/241 259/259/259 258/258/258
f 242/242/242 243/243/243 260/260/260
f 242/242/242 260/260/260 259/259/259
f 243/243/243 244/244/244 261/261/261
f 243/243/243 261/261/261 260/260/260
f 244/244/244 245/245/245 262/262/262
f 244/244/244 262/262/262 261/261/261
f 245/245/245 246/246/246 263/263/263
f 245/245/245 263/263/263 262/262/262
f 246/246/246 247/247/247 264/264/264
f 246/246/246 264/264/264 263/263/263
f 247/247/247 248/248/248 265/265/265
f 247/247/247 265/265/265 264/264/264
f 248/248/248 249/249/249 266/266/266
f 248/248/248 266/266/266 265/265/265
f 249/249/249 250/250/250 267/267/267
f 249/249/249 267/267/267 266/266/266
f 250/250/250 251/251/251 268/268/268
f 250/250/250 268/268/268 267/267/267
f 251/251/251 252/252/252 269/269/269
f 251/251/251 269/269/269 268/268/268
f 252/252/252 253/253/253 270/270/270
f 252/252/252 270/270/270 269/269/269
f 253/253/253 254/254/254 271/271/271
f 253/253/253 271/271/271 270/270/270
f 254/254/254 255/255/255 272/272/272
f 254/254/254 272/272/272 271/271/271
f 256/257/257 257/256/256 274/273/273
f 256/257/257 274/273/273 273/274/274
f 257/256/256 258/258/258 275/275/275
f 257/256/256 275/275/275 274/273/273
f 258/258/258 259/259/259 276/276/276
f 258/258/258 276/276/276 275/275/275
f 259/259/259 260/260/260 277/277/277
f 259/259/259 277/277/277 276/276/276
f 260/260/260 261/261/261 278/278/278
f 260/260/260 278/278/278 277/277/277
f 261/261/261 262/262/262 279/279/279
f 261/261/261 279/279/279 278/278/278
f 262/262/262 263/263/263 280/280/280
f 262/262/262 280/280/280 279/279/279
f 263/263/263 264/264/264 281/281/281
f 263/263/263 281/281/281 280/280/280
f 264/264/264 265/265/265 282/282/282
f 264/264/264 282/282/282 281/281/281
f 265/265/265 266/266/266 283/283/283
f 265/265/265 283/283/283 282/282/282
f 266/266/266 267/267/267 284/284/284
f 266/266/266 284/284/284 283/283/283
f 267/267/267 268/268/268 285/285/285
f 267/267/267 285/285/285 284/284/284
f 268/268/268 269/269/269 286/286/286
f 268/268/268 286/286/286 285/285/285
f 269/269/269 270/270/270 287/287/287
f 269/269/269 287/287/287 286/286/286
f 270/270/270 271/271/271 288/288/288
f 270/270/270 288/288/288 287/287/287
f 271/271/271 272/272/272 289/289/289
f 271/271/271 289/289/289 288/288/288
