mtllib terrain_mid_02_07.mtl
usemtl terrain_mid_02_07
# Blender 5.1.1
# www.blender.org
o terrain_mid_02_07
v -160.000000 -160.000000 58.388599
v -140.000000 -160.000000 55.522308
v -120.000000 -160.000000 53.011971
v -100.000000 -160.000000 49.823158
v -80.000000 -160.000000 45.800266
v -60.000000 -160.000000 41.452766
v -40.000000 -160.000000 37.012863
v -20.000000 -160.000000 32.473068
v 0.000000 -160.000000 27.891615
v 20.000000 -160.000000 23.187107
v 40.000000 -160.000000 17.425812
v 60.000000 -160.000000 9.431275
v 80.000000 -160.000000 0.275093
v 100.000000 -160.000000 -8.744384
v 120.000000 -160.000000 -16.359442
v 140.000000 -160.000000 -22.162380
v 160.000000 -160.000000 -27.578600
v -160.000000 -140.000000 51.364124
v -140.000000 -140.000000 47.594032
v -120.000000 -140.000000 45.041634
v -100.000000 -140.000000 42.335918
v -80.000000 -140.000000 39.116310
v -60.000000 -140.000000 35.045948
v -40.000000 -140.000000 30.643311
v -20.000000 -140.000000 26.089888
v 0.000000 -140.000000 21.494162
v 20.000000 -140.000000 16.907658
v 40.000000 -140.000000 11.325925
v 60.000000 -140.000000 3.608026
v 80.000000 -140.000000 -4.683688
v 100.000000 -140.000000 -12.448363
v 120.000000 -140.000000 -19.043327
v 140.000000 -140.000000 -23.600273
v 160.000000 -140.000000 -27.981106
v -160.000000 -120.000000 45.746460
v -140.000000 -120.000000 40.531784
v -120.000000 -120.000000 37.030018
v -100.000000 -120.000000 34.259327
v -80.000000 -120.000000 31.623959
v -60.000000 -120.000000 28.232479
v -40.000000 -120.000000 24.144592
v -20.000000 -120.000000 19.356136
v 0.000000 -120.000000 14.366354
v 20.000000 -120.000000 9.592195
v 40.000000 -120.000000 4.119236
v 60.000000 -120.000000 -2.958496
v 80.000000 -120.000000 -10.244418
v 100.000000 -120.000000 -17.410522
v 120.000000 -120.000000 -24.069336
v 140.000000 -120.000000 -28.646137
v 160.000000 -120.000000 -31.959574
v -160.000000 -100.000000 41.854481
v -140.000000 -100.000000 35.193409
v -120.000000 -100.000000 30.474224
v -100.000000 -100.000000 27.053101
v -80.000000 -100.000000 24.187199
v -60.000000 -100.000000 21.228024
v -40.000000 -100.000000 17.750893
v -20.000000 -100.000000 13.109996
v 0.000000 -100.000000 7.670916
v 20.000000 -100.000000 2.223905
v 40.000000 -100.000000 -3.245056
v 60.000000 -100.000000 -9.760226
v 80.000000 -100.000000 -16.471062
v 100.000000 -100.000000 -22.796955
v 120.000000 -100.000000 -28.918308
v 140.000000 -100.000000 -34.350166
v 160.000000 -100.000000 -38.625469
v -160.000000 -80.000000 39.310749
v -140.000000 -80.000000 31.727535
v -120.000000 -80.000000 25.831978
v -100.000000 -80.000000 21.478909
v -80.000000 -80.000000 17.621891
v -60.000000 -80.000000 14.541447
v -40.000000 -80.000000 11.442536
v -20.000000 -80.000000 7.217791
v 0.000000 -80.000000 1.616659
v 20.000000 -80.000000 -4.505411
v 40.000000 -80.000000 -10.164238
v 60.000000 -80.000000 -16.290798
v 80.000000 -80.000000 -22.705505
v 100.000000 -80.000000 -28.485338
v 120.000000 -80.000000 -33.721592
v 140.000000 -80.000000 -39.365925
v 160.000000 -80.000000 -44.690647
v -160.000000 -60.000000 37.710709
v -140.000000 -60.000000 30.672089
v -120.000000 -60.000000 24.773869
v -100.000000 -60.000000 19.601604
v -80.000000 -60.000000 14.480307
v -60.000000 -60.000000 9.768562
v -40.000000 -60.000000 5.470676
v -20.000000 -60.000000 1.317566
v 0.000000 -60.000000 -3.753038
v 20.000000 -60.000000 -9.839897
v 40.000000 -60.000000 -15.691446
v 60.000000 -60.000000 -21.772284
v 80.000000 -60.000000 -27.941765
v 100.000000 -60.000000 -33.370590
v 120.000000 -60.000000 -37.845444
v 140.000000 -60.000000 -42.490227
v 160.000000 -60.000000 -47.574203
v -160.000000 -40.000000 36.472691
v -140.000000 -40.000000 30.288643
v -120.000000 -40.000000 24.989193
v -100.000000 -40.000000 19.764587
v -80.000000 -40.000000 14.052779
v -60.000000 -40.000000 7.625723
v -40.000000 -40.000000 1.618565
v -20.000000 -40.000000 -4.009107
v 0.000000 -40.000000 -9.340013
v 20.000000 -40.000000 -15.027641
v 40.000000 -40.000000 -20.137560
v 60.000000 -40.000000 -24.757507
v 80.000000 -40.000000 -29.203003
v 100.000000 -40.000000 -33.269348
v 120.000000 -40.000000 -37.038521
v 140.000000 -40.000000 -41.658394
v 160.000000 -40.000000 -46.788982
v -160.000000 -20.000000 35.290249
v -140.000000 -20.000000 30.110966
v -120.000000 -20.000000 25.919659
v -100.000000 -20.000000 21.431984
v -80.000000 -20.000000 15.764421
v -60.000000 -20.000000 8.188853
v -40.000000 -20.000000 0.063179
v -20.000000 -20.000000 -7.275973
v 0.000000 -20.000000 -13.539292
v 20.000000 -20.000000 -18.341619
v 40.000000 -20.000000 -22.222248
v 60.000000 -20.000000 -25.100443
v 80.000000 -20.000000 -27.469238
v 100.000000 -20.000000 -29.933756
v 120.000000 -20.000000 -33.532776
v 140.000000 -20.000000 -38.905483
v 160.000000 -20.000000 -44.348064
v -160.000000 0.000000 33.020466
v -140.000000 0.000000 29.029383
v -120.000000 0.000000 26.074413
v -100.000000 0.000000 22.847359
v -80.000000 0.000000 18.141134
v -60.000000 0.000000 10.959640
v -40.000000 0.000000 3.235820
v -20.000000 0.000000 -3.806471
v 0.000000 0.000000 -9.857272
v 20.000000 0.000000 -14.318393
v 40.000000 0.000000 -17.993597
v 60.000000 0.000000 -20.988457
v 80.000000 0.000000 -23.715494
v 100.000000 0.000000 -26.917528
v 120.000000 0.000000 -31.548916
v 140.000000 0.000000 -37.087708
v 160.000000 0.000000 -42.839062
v -160.000000 20.000000 29.716879
v -140.000000 20.000000 27.003033
v -120.000000 20.000000 24.902508
v -100.000000 20.000000 22.932573
v -80.000000 20.000000 19.287642
v -60.000000 20.000000 13.412324
v -40.000000 20.000000 6.742415
v -20.000000 20.000000 0.758803
v 0.000000 20.000000 -4.567626
v 20.000000 20.000000 -8.881408
v 40.000000 20.000000 -12.776360
v 60.000000 20.000000 -16.472609
v 80.000000 20.000000 -20.117851
v 100.000000 20.000000 -24.408848
v 120.000000 20.000000 -29.755554
v 140.000000 20.000000 -35.313206
v 160.000000 20.000000 -40.503551
v -160.000000 40.000000 25.567308
v -140.000000 40.000000 23.641840
v -120.000000 40.000000 22.183249
v -100.000000 40.000000 21.160763
v -80.000000 40.000000 18.798733
v -60.000000 40.000000 14.502988
v -40.000000 40.000000 9.644718
v -20.000000 40.000000 4.959229
v 0.000000 40.000000 0.629436
v 20.000000 40.000000 -3.574381
v 40.000000 40.000000 -7.946695
v 60.000000 40.000000 -12.406813
v 80.000000 40.000000 -17.114922
v 100.000000 40.000000 -22.231655
v 120.000000 40.000000 -27.763306
v 140.000000 40.000000 -32.774982
v 160.000000 40.000000 -36.693649
v -160.000000 60.000000 19.866842
v -140.000000 60.000000 18.864149
v -120.000000 60.000000 18.308666
v -100.000000 60.000000 17.909925
v -80.000000 60.000000 16.207045
v -60.000000 60.000000 12.871095
v -40.000000 60.000000 9.088766
v -20.000000 60.000000 5.458049
v 0.000000 60.000000 1.606202
v 20.000000 60.000000 -2.123162
v 40.000000 60.000000 -6.029839
v 60.000000 60.000000 -10.678581
v 80.000000 60.000000 -15.691344
v 100.000000 60.000000 -20.408373
v 120.000000 60.000000 -24.580511
v 140.000000 60.000000 -27.718140
v 160.000000 60.000000 -30.225042
v -160.000000 80.000000 13.822069
v -140.000000 80.000000 13.718340
v -120.000000 80.000000 14.282814
v -100.000000 80.000000 14.118409
v -80.000000 80.000000 12.688480
v -60.000000 80.000000 10.033495
v -40.000000 80.000000 7.285899
v -20.000000 80.000000 4.719198
v 0.000000 80.000000 2.018711
v 20.000000 80.000000 -0.810858
v 40.000000 80.000000 -3.883368
v 60.000000 80.000000 -7.975470
v 80.000000 80.000000 -12.466186
v 100.000000 80.000000 -16.439487
v 120.000000 80.000000 -19.532335
v 140.000000 80.000000 -22.158508
v 160.000000 80.000000 -24.217258
v -160.000000 100.000000 8.271234
v -140.000000 100.000000 8.933255
v -120.000000 100.000000 10.231667
v -100.000000 100.000000 10.048649
v -80.000000 100.000000 8.555014
v -60.000000 100.000000 6.425843
v -40.000000 100.000000 4.611322
v -20.000000 100.000000 3.404684
v 0.000000 100.000000 2.227933
v 20.000000 100.000000 0.794977
v 40.000000 100.000000 -1.279357
v 60.000000 100.000000 -4.417209
v 80.000000 100.000000 -7.858113
v 100.000000 100.000000 -10.908623
v 120.000000 100.000000 -13.895270
v 140.000000 100.000000 -17.108568
v 160.000000 100.000000 -19.760151
v -160.000000 120.000000 3.749377
v -140.000000 120.000000 4.978760
v -120.000000 120.000000 6.170343
v -100.000000 120.000000 5.539083
v -80.000000 120.000000 3.980646
v -60.000000 120.000000 2.474400
v -40.000000 120.000000 1.507501
v -20.000000 120.000000 1.330560
v 0.000000 120.000000 1.469157
v 20.000000 120.000000 0.662327
v 40.000000 120.000000 -0.946723
v 60.000000 120.000000 -3.626498
v 80.000000 120.000000 -6.772684
v 100.000000 120.000000 -9.888285
v 120.000000 120.000000 -13.292670
v 140.000000 120.000000 -17.090311
v 160.000000 120.000000 -20.418728
v -160.000000 140.000000 -0.095343
v -140.000000 140.000000 1.392395
v -120.000000 140.000000 2.252950
v -100.000000 140.000000 1.327895
v -80.000000 140.000000 -0.272081
v -60.000000 140.000000 -1.654344
v -40.000000 140.000000 -2.362833
v -20.000000 140.000000 -2.181111
v 0.000000 140.000000 -1.761813
v 20.000000 140.000000 -2.350789
v 40.000000 140.000000 -3.671061
v 60.000000 140.000000 -5.993964
v 80.000000 140.000000 -8.989067
v 100.000000 140.000000 -12.403008
v 120.000000 140.000000 -16.371304
v 140.000000 140.000000 -20.512959
v 160.000000 140.000000 -24.097364
v -160.000000 160.000000 -3.360161
v -140.000000 160.000000 -2.580013
v -120.000000 160.000000 -1.799865
v -100.000000 160.000000 -2.898247
v -80.000000 160.000000 -3.996629
v -60.000000 160.000000 -5.614752
v -40.000000 160.000000 -7.232876
v -20.000000 160.000000 -7.702087
v 0.000000 160.000000 -8.171298
v 20.000000 160.000000 -9.166924
v 40.000000 160.000000 -10.162550
v 60.000000 160.000000 -12.591017
v 80.000000 160.000000 -15.019484
v 100.000000 160.000000 -19.012651
v 120.000000 160.000000 -23.005817
v 140.000000 160.000000 -26.590168
v 160.000000 160.000000 -30.174519
vn 0.1571 0.3356 0.9288
vn 0.1243 0.3605 0.9244
vn 0.1464 0.3472 0.9263
vn 0.2096 0.2947 0.9323
vn 0.1319 0.3548 0.9256
vn 0.1213 0.3684 0.9217
vn 0.1674 0.3314 0.9285
vn 0.1367 0.3592 0.9232
vn 0.1954 0.2993 0.9339
vn 0.1693 0.3292 0.9290
vn 0.2056 0.2859 0.9359
vn 0.1970 0.3075 0.9309
vn 0.2102 0.2809 0.9364
vn 0.2085 0.2995 0.9310
vn 0.2136 0.2780 0.9365
vn 0.2124 0.3045 0.9285
vn 0.2174 0.2748 0.9366
vn 0.2125 0.3130 0.9257
vn 0.2441 0.2641 0.9331
vn 0.2339 0.3127 0.9206
vn 0.3147 0.2517 0.9152
vn 0.3009 0.3010 0.9049
vn 0.3830 0.2358 0.8932
vn 0.3571 0.2763 0.8923
vn 0.4052 0.2017 0.8917
vn 0.3619 0.2371 0.9016
vn 0.3795 0.1517 0.9127
vn 0.3311 0.1998 0.9222
vn 0.3167 0.0912 0.9441
vn 0.2640 0.1826 0.9471
vn 0.2700 0.0175 0.9627
vn 0.2155 0.1563 0.9639
vn 0.2486 -0.0374 0.9679
vn 0.2155 0.1063 0.9707
vn 0.2037 0.2899 0.9351
vn 0.2919 0.2212 0.9305
vn 0.1457 0.3385 0.9296
vn 0.1253 0.3542 0.9267
vn 0.1398 0.3463 0.9277
vn 0.1742 0.3216 0.9307
vn 0.2067 0.3002 0.9312
vn 0.2265 0.3007 0.9264
vn 0.2248 0.3183 0.9210
vn 0.2338 0.3350 0.9127
vn 0.2828 0.3283 0.9013
vn 0.3223 0.3000 0.8978
vn 0.3275 0.2671 0.9063
vn 0.3175 0.2378 0.9180
vn 0.2631 0.2312 0.9366
vn 0.1871 0.2550 0.9487
vn 0.1744 0.2532 0.9516
vn 0.2677 0.2071 0.9410
vn 0.3486 0.1489 0.9254
vn 0.1923 0.2645 0.9450
vn 0.1481 0.3010 0.9421
vn 0.1362 0.3273 0.9351
vn 0.1508 0.3204 0.9352
vn 0.1899 0.2972 0.9357
vn 0.2344 0.2823 0.9302
vn 0.2510 0.2940 0.9223
vn 0.2493 0.3219 0.9134
vn 0.2716 0.3237 0.9064
vn 0.2994 0.3018 0.9052
vn 0.2972 0.2841 0.9116
vn 0.2870 0.2553 0.9233
vn 0.2703 0.2259 0.9359
vn 0.2283 0.2521 0.9404
vn 0.1867 0.2979 0.9361
vn 0.3175 0.1065 0.9423
vn 0.3764 0.0955 0.9215
vn 0.2459 0.1368 0.9596
vn 0.1978 0.1795 0.9637
vn 0.1662 0.2325 0.9583
vn 0.1469 0.2724 0.9509
vn 0.1725 0.2891 0.9416
vn 0.2293 0.2752 0.9336
vn 0.2712 0.2643 0.9255
vn 0.2714 0.2779 0.9215
vn 0.2708 0.2860 0.9192
vn 0.2877 0.2755 0.9172
vn 0.2812 0.2645 0.9225
vn 0.2573 0.2469 0.9343
vn 0.2565 0.2105 0.9433
vn 0.2595 0.1925 0.9464
vn 0.2247 0.2127 0.9509
vn 0.3076 0.0343 0.9509
vn 0.3512 0.0663 0.9340
vn 0.2668 0.0206 0.9635
vn 0.2490 0.0414 0.9676
vn 0.2378 0.0863 0.9675
vn 0.2173 0.1665 0.9618
vn 0.2010 0.2336 0.9513
vn 0.2168 0.2638 0.9399
vn 0.2599 0.2553 0.9313
vn 0.2773 0.2444 0.9292
vn 0.2780 0.2324 0.9320
vn 0.2870 0.1984 0.9372
vn 0.2752 0.1541 0.9490
vn 0.2387 0.1153 0.9642
vn 0.2216 0.0806 0.9718
vn 0.2360 0.0556 0.9702
vn 0.2480 0.0507 0.9674
vn 0.2759 0.0135 0.9611
vn 0.3144 0.0573 0.9476
vn 0.2543 -0.0278 0.9667
vn 0.2634 -0.0442 0.9637
vn 0.2903 -0.0307 0.9565
vn 0.2966 0.0377 0.9542
vn 0.2771 0.1287 0.9522
vn 0.2587 0.2029 0.9444
vn 0.2585 0.2296 0.9383
vn 0.2553 0.2010 0.9457
vn 0.2334 0.1567 0.9597
vn 0.2203 0.0809 0.9721
vn 0.2081 -0.0116 0.9780
vn 0.1915 -0.0840 0.9779
vn 0.2041 -0.1049 0.9733
vn 0.2360 -0.0867 0.9679
vn 0.2572 -0.0777 0.9632
vn 0.2280 0.0306 0.9732
vn 0.2713 0.0828 0.9589
vn 0.2120 -0.0265 0.9769
vn 0.2453 -0.0745 0.9666
vn 0.3128 -0.0966 0.9449
vn 0.3643 -0.0774 0.9281
vn 0.3603 -0.0377 0.9321
vn 0.3220 -0.0048 0.9467
vn 0.2666 0.0124 0.9637
vn 0.2121 -0.0173 0.9771
vn 0.1664 -0.0528 0.9847
vn 0.1295 -0.0930 0.9872
vn 0.1189 -0.1349 0.9837
vn 0.1479 -0.1550 0.9768
vn 0.2169 -0.1327 0.9671
vn 0.2594 -0.1097 0.9595
vn 0.2640 -0.0948 0.9599
vn 0.1706 0.0764 0.9824
vn 0.2155 0.1348 0.9672
vn 0.1526 0.0250 0.9880
vn 0.1944 -0.0367 0.9802
vn 0.2838 -0.0841 0.9552
vn 0.3466 -0.1215 0.9301
vn 0.3421 -0.1548 0.9268
vn 0.3056 -0.1875 0.9335
vn 0.2484 -0.2120 0.9452
vn 0.1942 -0.2258 0.9546
vn 0.1602 -0.2268 0.9607
vn 0.1385 -0.2088 0.9681
vn 0.1443 -0.1789 0.9732
vn 0.1905 -0.1343 0.9725
vn 0.2454 -0.0911 0.9651
vn 0.2706 -0.0861 0.9588
vn 0.2625 -0.0923 0.9605
vn 0.1185 0.1325 0.9841
vn 0.1637 0.1807 0.9698
vn 0.1007 0.0962 0.9903
vn 0.1389 0.0417 0.9894
vn 0.2315 -0.0160 0.9727
vn 0.2982 -0.0842 0.9508
vn 0.2981 -0.1510 0.9425
vn 0.2666 -0.2061 0.9415
vn 0.2270 -0.2470 0.9420
vn 0.1944 -0.2545 0.9473
vn 0.1811 -0.2396 0.9538
vn 0.1767 -0.2064 0.9624
vn 0.1921 -0.1598 0.9683
vn 0.2327 -0.1131 0.9659
vn 0.2619 -0.0910 0.9608
vn 0.2581 -0.1036 0.9606
vn 0.2174 -0.1482 0.9648
vn 0.0826 0.1987 0.9766
vn 0.1230 0.2373 0.9636
vn 0.0612 0.1624 0.9848
vn 0.0837 0.1242 0.9887
vn 0.1637 0.0758 0.9836
vn 0.2231 0.0132 0.9747
vn 0.2317 -0.0569 0.9711
vn 0.2184 -0.1139 0.9692
vn 0.2063 -0.1492 0.9670
vn 0.2067 -0.1630 0.9647
vn 0.2127 -0.1625 0.9635
vn 0.2212 -0.1398 0.9652
vn 0.2372 -0.1069 0.9656
vn 0.2561 -0.0962 0.9619
vn 0.2529 -0.1241 0.9595
vn 0.2143 -0.1822 0.9596
vn 0.1462 -0.2462 0.9581
vn 0.0377 0.2406 0.9699
vn 0.0872 0.2807 0.9558
vn 0.0234 0.1937 0.9808
vn 0.0517 0.1732 0.9835
vn 0.1236 0.1499 0.9809
vn 0.1741 0.1093 0.9786
vn 0.1820 0.0579 0.9816
vn 0.1838 0.0058 0.9829
vn 0.1861 -0.0341 0.9819
vn 0.1871 -0.0677 0.9800
vn 0.2080 -0.0989 0.9731
vn 0.2334 -0.1071 0.9665
vn 0.2349 -0.1122 0.9655
vn 0.2148 -0.1400 0.9666
vn 0.1762 -0.1984 0.9642
vn 0.1351 -0.2541 0.9577
vn 0.1035 -0.2962 0.9495
vn -0.0112 0.2410 0.9705
vn 0.0534 0.2780 0.9591
vn -0.0097 0.1979 0.9802
vn 0.0391 0.1927 0.9805
vn 0.0998 0.1869 0.9773
vn 0.1322 0.1577 0.9786
vn 0.1309 0.1103 0.9852
vn 0.1304 0.0508 0.9902
vn 0.1369 -0.0154 0.9905
vn 0.1455 -0.0721 0.9867
vn 0.1751 -0.1161 0.9777
vn 0.2074 -0.1513 0.9665
vn 0.2033 -0.1882 0.9609
vn 0.1694 -0.2277 0.9589
vn 0.1367 -0.2556 0.9571
vn 0.1125 -0.2548 0.9604
vn 0.0905 -0.2521 0.9635
vn -0.0478 0.2132 0.9758
vn 0.0144 0.2442 0.9696
vn -0.0272 0.1986 0.9797
vn 0.0409 0.2095 0.9770
vn 0.0882 0.2119 0.9733
vn 0.0964 0.1848 0.9780
vn 0.0746 0.1426 0.9870
vn 0.0595 0.0845 0.9946
vn 0.0651 0.0137 0.9978
vn 0.0873 -0.0367 0.9955
vn 0.1289 -0.0726 0.9890
vn 0.1614 -0.1067 0.9811
vn 0.1586 -0.1391 0.9775
vn 0.1473 -0.1599 0.9761
vn 0.1514 -0.1523 0.9767
vn 0.1440 -0.1243 0.9817
vn 0.1123 -0.0939 0.9892
vn -0.0593 0.1849 0.9810
vn -0.0236 0.2047 0.9785
vn -0.0137 0.1956 0.9806
vn 0.0534 0.2127 0.9757
vn 0.0746 0.2149 0.9738
vn 0.0605 0.1977 0.9784
vn 0.0282 0.1717 0.9847
vn 0.0009 0.1383 0.9904
vn 0.0166 0.0992 0.9949
vn 0.0601 0.0782 0.9951
vn 0.1065 0.0594 0.9925
vn 0.1441 0.0390 0.9888
vn 0.1546 0.0279 0.9876
vn 0.1608 0.0369 0.9863
vn 0.1769 0.0608 0.9824
vn 0.1748 0.0835 0.9811
vn 0.1440 0.1067 0.9838
vn -0.0576 0.1794 0.9821
vn -0.0380 0.1837 0.9823
vn 0.0016 0.1884 0.9821
vn 0.0618 0.1914 0.9796
vn 0.0730 0.1929 0.9785
vn 0.0511 0.2022 0.9780
vn 0.0129 0.2140 0.9767
vn -0.0146 0.2193 0.9755
vn 0.0041 0.2289 0.9734
vn 0.0464 0.2275 0.9727
vn 0.0886 0.2157 0.9724
vn 0.1292 0.1957 0.9721
vn 0.1554 0.1873 0.9699
vn 0.1776 0.2056 0.9624
vn 0.1935 0.2268 0.9545
vn 0.1844 0.2330 0.9548
vn 0.1559 0.2343 0.9596
vn -0.0544 0.2123 0.9757
vn -0.0085 0.1773 0.9841
vn -0.0012 0.2047 0.9788
vn 0.0589 0.1845 0.9811
vn 0.0860 0.1871 0.9786
vn 0.0815 0.2216 0.9717
vn 0.0450 0.2630 0.9637
vn 0.0162 0.2966 0.9549
vn 0.0244 0.3277 0.9445
vn 0.0442 0.3398 0.9395
vn 0.0702 0.3363 0.9391
vn 0.1099 0.3242 0.9396
vn 0.1575 0.3244 0.9327
vn 0.1908 0.3424 0.9200
vn 0.1937 0.3396 0.9204
vn 0.1722 0.3183 0.9322
vn 0.1438 0.2978 0.9437
vt 0.015625 0.015625
vt 0.076172 0.015625
vt 0.076172 0.076172
vt 0.015625 0.076172
vt 0.136719 0.015625
vt 0.136719 0.076172
vt 0.197266 0.015625
vt 0.197266 0.076172
vt 0.257812 0.015625
vt 0.257812 0.076172
vt 0.318359 0.015625
vt 0.318359 0.076172
vt 0.378906 0.015625
vt 0.378906 0.076172
vt 0.439453 0.015625
vt 0.439453 0.076172
vt 0.500000 0.015625
vt 0.500000 0.076172
vt 0.560547 0.015625
vt 0.560547 0.076172
vt 0.621094 0.015625
vt 0.621094 0.076172
vt 0.681641 0.015625
vt 0.681641 0.076172
vt 0.742188 0.015625
vt 0.742188 0.076172
vt 0.802734 0.015625
vt 0.802734 0.076172
vt 0.863281 0.015625
vt 0.863281 0.076172
vt 0.923828 0.015625
vt 0.923828 0.076172
vt 0.984375 0.015625
vt 0.984375 0.076172
vt 0.076172 0.136719
vt 0.015625 0.136719
vt 0.136719 0.136719
vt 0.197266 0.136719
vt 0.257812 0.136719
vt 0.318359 0.136719
vt 0.378906 0.136719
vt 0.439453 0.136719
vt 0.500000 0.136719
vt 0.560547 0.136719
vt 0.621094 0.136719
vt 0.681641 0.136719
vt 0.742188 0.136719
vt 0.802734 0.136719
vt 0.863281 0.136719
vt 0.923828 0.136719
vt 0.984375 0.136719
vt 0.076172 0.197266
vt 0.015625 0.197266
vt 0.136719 0.197266
vt 0.197266 0.197266
vt 0.257812 0.197266
vt 0.318359 0.197266
vt 0.378906 0.197266
vt 0.439453 0.197266
vt 0.500000 0.197266
vt 0.560547 0.197266
vt 0.621094 0.197266
vt 0.681641 0.197266
vt 0.742188 0.197266
vt 0.802734 0.197266
vt 0.863281 0.197266
vt 0.923828 0.197266
vt 0.984375 0.197266
vt 0.076172 0.257812
vt 0.015625 0.257812
vt 0.136719 0.257812
vt 0.197266 0.257812
vt 0.257812 0.257812
vt 0.318359 0.257812
vt 0.378906 0.257812
vt 0.439453 0.257812
vt 0.500000 0.257812
vt 0.560547 0.257812
vt 0.621094 0.257812
vt 0.681641 0.257812
vt 0.742188 0.257812
vt 0.802734 0.257812
vt 0.863281 0.257812
vt 0.923828 0.257812
vt 0.984375 0.257812
vt 0.076172 0.318359
vt 0.015625 0.318359
vt 0.136719 0.318359
vt 0.197266 0.318359
vt 0.257812 0.318359
vt 0.318359 0.318359
vt 0.378906 0.318359
vt 0.439453 0.318359
vt 0.500000 0.318359
vt 0.560547 0.318359
vt 0.621094 0.318359
vt 0.681641 0.318359
vt 0.742188 0.318359
vt 0.802734 0.318359
vt 0.863281 0.318359
vt 0.923828 0.318359
vt 0.984375 0.318359
vt 0.076172 0.378906
vt 0.015625 0.378906
vt 0.136719 0.378906
vt 0.197266 0.378906
vt 0.257812 0.378906
vt 0.318359 0.378906
vt 0.378906 0.378906
vt 0.439453 0.378906
vt 0.500000 0.378906
vt 0.560547 0.378906
vt 0.621094 0.378906
vt 0.681641 0.378906
vt 0.742188 0.378906
vt 0.802734 0.378906
vt 0.863281 0.378906
vt 0.923828 0.378906
vt 0.984375 0.378906
vt 0.076172 0.439453
vt 0.015625 0.439453
vt 0.136719 0.439453
vt 0.197266 0.439453
vt 0.257812 0.439453
vt 0.318359 0.439453
vt 0.378906 0.439453
vt 0.439453 0.439453
vt 0.500000 0.439453
vt 0.560547 0.439453
vt 0.621094 0.439453
vt 0.681641 0.439453
vt 0.742188 0.439453
vt 0.802734 0.439453
vt 0.863281 0.439453
vt 0.923828 0.439453
vt 0.984375 0.439453
vt 0.076172 0.500000
vt 0.015625 0.500000
vt 0.136719 0.500000
vt 0.197266 0.500000
vt 0.257812 0.500000
vt 0.318359 0.500000
vt 0.378906 0.500000
vt 0.439453 0.500000
vt 0.500000 0.500000
vt 0.560547 0.500000
vt 0.621094 0.500000
vt 0.681641 0.500000
vt 0.742188 0.500000
vt 0.802734 0.500000
vt 0.863281 0.500000
vt 0.923828 0.500000
vt 0.984375 0.500000
vt 0.076172 0.560547
vt 0.015625 0.560547
vt 0.136719 0.560547
vt 0.197266 0.560547
vt 0.257812 0.560547
vt 0.318359 0.560547
vt 0.378906 0.560547
vt 0.439453 0.560547
vt 0.500000 0.560547
vt 0.560547 0.560547
vt 0.621094 0.560547
vt 0.681641 0.560547
vt 0.742188 0.560547
vt 0.802734 0.560547
vt 0.863281 0.560547
vt 0.923828 0.560547
vt 0.984375 0.560547
vt 0.076172 0.621094
vt 0.015625 0.621094
vt 0.136719 0.621094
vt 0.197266 0.621094
vt 0.257812 0.621094
vt 0.318359 0.621094
vt 0.378906 0.621094
vt 0.439453 0.621094
vt 0.500000 0.621094
vt 0.560547 0.621094
vt 0.621094 0.621094
vt 0.681641 0.621094
vt 0.742188 0.621094
vt 0.802734 0.621094
vt 0.863281 0.621094
vt 0.923828 0.621094
vt 0.984375 0.621094
vt 0.076172 0.681641
vt 0.015625 0.681641
vt 0.136719 0.681641
vt 0.197266 0.681641
vt 0.257812 0.681641
vt 0.318359 0.681641
vt 0.378906 0.681641
vt 0.439453 0.681641
vt 0.500000 0.681641
vt 0.560547 0.681641
vt 0.621094 0.681641
vt 0.681641 0.681641
vt 0.742188 0.681641
vt 0.802734 0.681641
vt 0.863281 0.681641
vt 0.923828 0.681641
vt 0.984375 0.681641
vt 0.076172 0.742188
vt 0.015625 0.742188
vt 0.136719 0.742188
vt 0.197266 0.742188
vt 0.257812 0.742188
vt 0.318359 0.742188
vt 0.378906 0.742188
vt 0.439453 0.742188
vt 0.500000 0.742188
vt 0.560547 0.742188
vt 0.621094 0.742188
vt 0.681641 0.742188
vt 0.742188 0.742188
vt 0.802734 0.742188
vt 0.863281 0.742188
vt 0.923828 0.742188
vt 0.984375 0.742188
vt 0.076172 0.802734
vt 0.015625 0.802734
vt 0.136719 0.802734
vt 0.197266 0.802734
vt 0.257812 0.802734
vt 0.318359 0.802734
vt 0.378906 0.802734
vt 0.439453 0.802734
vt 0.500000 0.802734
vt 0.560547 0.802734
vt 0.621094 0.802734
vt 0.681641 0.802734
vt 0.742188 0.802734
vt 0.802734 0.802734
vt 0.863281 0.802734
vt 0.923828 0.802734
vt 0.984375 0.802734
vt 0.076172 0.863281
vt 0.015625 0.863281
vt 0.136719 0.863281
vt 0.197266 0.863281
vt 0.257812 0.863281
vt 0.318359 0.863281
vt 0.378906 0.863281
vt 0.439453 0.863281
vt 0.500000 0.863281
vt 0.560547 0.863281
vt 0.621094 0.863281
vt 0.681641 0.863281
vt 0.742188 0.863281
vt 0.802734 0.863281
vt 0.863281 0.863281
vt 0.923828 0.863281
vt 0.984375 0.863281
vt 0.076172 0.923828
vt 0.015625 0.923828
vt 0.136719 0.923828
vt 0.197266 0.923828
vt 0.257812 0.923828
vt 0.318359 0.923828
vt 0.378906 0.923828
vt 0.439453 0.923828
vt 0.500000 0.923828
vt 0.560547 0.923828
vt 0.621094 0.923828
vt 0.681641 0.923828
vt 0.742188 0.923828
vt 0.802734 0.923828
vt 0.863281 0.923828
vt 0.923828 0.923828
vt 0.984375 0.923828
vt 0.076172 0.984375
vt 0.015625 0.984375
vt 0.136719 0.984375
vt 0.197266 0.984375
vt 0.257812 0.984375
vt 0.318359 0.984375
vt 0.378906 0.984375
vt 0.439453 0.984375
vt 0.500000 0.984375
vt 0.560547 0.984375
vt 0.621094 0.984375
vt 0.681641 0.984375
vt 0.742188 0.984375
vt 0.802734 0.984375
vt 0.863281 0.984375
vt 0.923828 0.984375
vt 0.984375 0.984375
s 1
f 1/1/1 2/2/2 19/3/3
f 1/1/1 19/3/3 18/4/4
f 2/2/2 3/5/5 20/6/6
f 2/2/2 20/6/6 19/3/3
f 3/5/5 4/7/7 21/8/8
f 3/5/5 21/8/8 20/6/6
f 4/7/7 5/9/9 22/10/10
f 4/7/7 22/10/10 21/8/8
f 5/9/9 6/11/11 23/12/12
f 5/9/9 23/12/12 22/10/10
f 6/11/11 7/13/13 24/14/14
f 6/11/11 24/14/14 23/12/12
f 7/13/13 8/15/15 25/16/16
f 7/13/13 25/16/16 24/14/14
f 8/15/15 9/17/17 26/18/18
f 8/15/15 26/18/18 25/16/16
f 9/17/17 10/19/19 27/20/20
f 9/17/17 27/20/20 26/18/18
f 10/19/19 11/21/21 28/22/22
f 10/19/19 28/22/22 27/20/20
f 11/21/21 12/23/23 29/24/24
f 11/21/21 29/24/24 28/22/22
f 12/23/23 13/25/25 30/26/26
f 12/23/23 30/26/26 29/24/24
f 13/25/25 14/27/27 31/28/28
f 13/25/25 31/28/28 30/26/26
f 14/27/27 15/29/29 32/30/30
f 14/27/27 32/30/30 31/28/28
f 15/29/29 16/31/31 33/32/32
f 15/29/29 33/32/32 32/30/30
f 16/31/31 17/33/33 34/34/34
f 16/31/31 34/34/34 33/32/32
f 18/4/4 19/3/3 36/35/35
f 18/4/4 36/35/35 35/36/36
f 19/3/3 20/6/6 37/37/37
f 19/3/3 37/37/37 36/35/35
f 20/6/6 21/8/8 38/38/38
f 20/6/6 38/38/38 37/37/37
f 21/8/8 22/10/10 39/39/39
f 21/8/8 39/39/39 38/38/38
f 22/10/10 23/12/12 40/40/40
f 22/10/10 40/40/40 39/39/39
f 23/12/12 24/14/14 41/41/41
f 23/12/12 41/41/41 40/40/40
f 24/14/14 25/16/16 42/42/42
f 24/14/14 42/42/42 41/41/41
f 25/16/16 26/18/18 43/43/43
f 25/16/16 43/43/43 42/42/42
f 26/18/18 27/20/20 44/44/44
f 26/18/18 44/44/44 43/43/43
f 27/20/20 28/22/22 45/45/45
f 27/20/20 45/45/45 44/44/44
f 28/22/22 29/24/24 46/46/46
f 28/22/22 46/46/46 45/45/45
f 29/24/24 30/26/26 47/47/47
f 29/24/24 47/47/47 46/46/46
f 30/26/26 31/28/28 48/48/48
f 30/26/26 48/48/48 47/47/47
f 31/28/28 32/30/30 49/49/49
f 31/28/28 49/49/49 48/48/48
f 32/30/30 33/32/32 50/50/50
f 32/30/30 50/50/50 49/49/49
f 33/32/32 34/34/34 51/51/51
f 33/32/32 51/51/51 50/50/50
f 35/36/36 36/35/35 53/52/52
f 35/36/36 53/52/52 52/53/53
f 36/35/35 37/37/37 54/54/54
f 36/35/35 54/54/54 53/52/52
f 37/37/37 38/38/38 55/55/55
f 37/37/37 55/55/55 54/54/54
f 38/38/38 39/39/39 56/56/56
f 38/38/38 56/56/56 55/55/55
f 39/39/39 40/40/40 57/57/57
f 39/39/39 57/57/57 56/56/56
f 40/40/40 41/41/41 58/58/58
f 40/40/40 58/58/58 57/57/57
f 41/41/41 42/42/42 59/59/59
f 41/41/41 59/59/59 58/58/58
f 42/42/42 43/43/43 60/60/60
f 42/42/42 60/60/60 59/59/59
f 43/43/43 44/44/44 61/61/61
f 43/43/43 61/61/61 60/60/60
f 44/44/44 45/45/45 62/62/62
f 44/44/44 62/62/62 61/61/61
f 45/45/45 46/46/46 63/63/63
f 45/45/45 63/63/63 62/62/62
f 46/46/46 47/47/47 64/64/64
f 46/46/46 64/64/64 63/63/63
f 47/47/47 48/48/48 65/65/65
f 47/47/47 65/65/65 64/64/64
f 48/48/48 49/49/49 66/66/66
f 48/48/48 66/66/66 65/65/65
f 49/49/49 50/50/50 67/67/67
f 49/49/49 67/67/67 66/66/66
f 50/50/50 51/51/51 68/68/68
f 50/50/50 68/68/68 67/67/67
f 52/53/53 53/52/52 70/69/69
f 52/53/53 70/69/69 69/70/70
f 53/52/52 54/54/54 71/71/71
f 53/52/52 71/71/71 70/69/69
f 54/54/54 55/55/55 72/72/72
f 54/54/54 72/72/72 71/71/71
f 55/55/55 56/56/56 73/73/73
f 55/55/55 73/73/73 72/72/72
f 56/56/56 57/57/57 74/74/74
f 56/56/56 74/74/74 73/73/73
f 57/57/57 58/58/58 75/75/75
f 57/57/57 75/75/75 74/74/74
f 58/58/58 59/59/59 76/76/76
f 58/58/58 76/76/76 75/75/75
f 59/59/59 60/60/60 77/77/77
f 59/59/59 77/77/77 76/76/76
f 60/60/60 61/61/61 78/78/78
f 60/60/60 78/78/78 77/77/77
f 61/61/61 62/62/62 79/79/79
f 61/61/61 79/79/79 78/78/78
f 62/62/62 63/63/63 80/80/80
f 62/62/62 80/80/80 79/79/79
f 63/63/63 64/64/64 81/81/81
f 63/63/63 81/81/81 80/80/80
f 64/64/64 65/65/65 82/82/82
f 64/64/64 82/82/82 81/81/81
f 65/65/65 66/66/66 83/83/83
f 65/65/65 83/83/83 82/82/82
f 66/66/66 67/67/67 84/84/84
f 66/66/66 84/84/84 83/83/83
f 67/67/67 68/68/68 85/85/85
f 67/67/67 85/85/85 84/84/84
f 69/70/70 70/69/69 87/86/86
f 69/70/70 87/86/86 86/87/87
f 70/69/69 71/71/71 88/88/88
f 70/69/69 88/88/88 87/86/86
f 71/71/71 72/72/72 89/89/89
f 71/71/71 89/89/89 88/88/88
f 72/72/72 73/73/73 90/90/90
f 72/72/72 90/90/90 89/89/89
f 73/73/73 74/74/74 91/91/91
f 73/73/73 91/91/91 90/90/90
f 74/74/74 75/75/75 92/92/92
f 74/74/74 92/92/92 91/91/91
f 75/75/75 76/76/76 93/93/93
f 75/75/75 93/93/93 92/92/92
f 76/76/76 77/77/77 94/94/94
f 76/76/76 94/94/94 93/93/93
f 77/77/77 78/78/78 95/95/95
f 77/77/77 95/95/95 94/94/94
f 78/78/78 79/79/79 96/96/96
f 78/78/78 96/96/96 95/95/95
f 79/79/79 80/80/80 97/97/97
f 79/79/79 97/97/97 96/96/96
f 80/80/80 81/81/81 98/98/98
f 80/80/80 98/98/98 97/97/97
f 81/81/81 82/82/82 99/99/99
f 81/81/81 99/99/99 98/98/98
f 82/82/82 83/83/83 100/100/100
f 82/82/82 100/100/100 99/99/99
f 83/83/83 84/84/84 101/101/101
f 83/83/83 101/101/101 100/100/100
f 84/84/84 85/85/85 102/102/102
f 84/84/84 102/102/102 101/101/101
f 86/87/87 87/86/86 104/103/103
f 86/87/87 104/103/103 103/104/104
f 87/86/86 88/88/88 105/105/105
f 87/86/86 105/105/105 104/103/103
f 88/88/88 89/89/89 106/106/106
f 88/88/88 106/106/106 105/105/105
f 89/89/89 90/90/90 107/107/107
f 89/89/89 107/107/107 106/106/106
f 90/90/90 91/91/91 108/108/108
f 90/90/90 108/108/108 107/107/107
f 91/91/91 92/92/92 109/109/109
f 91/91/91 109/109/109 108/108/108
f 92/92/92 93/93/93 110/110/110
f 92/92/92 110/110/110 109/109/109
f 93/93/93 94/94/94 111/111/111
f 93/93/93 111/111/111 110/110/110
f 94/94/94 95/95/95 112/112/112
f 94/94/94 112/112/112 111/111/111
f 95/95/95 96/96/96 113/113/113
f 95/95/95 113/113/113 112/112/112
f 96/96/96 97/97/97 114/114/114
f 96/96/96 114/114/114 113/113/113
f 97/97/97 98/98/98 115/115/115
f 97/97/97 115/115/115 114/114/114
f 98/98/98 99/99/99 116/116/116
f 98/98/98 116/116/116 115/115/115
f 99/99/99 100/100/100 117/117/117
f 99/99/99 117/117/117 116/116/116
f 100/100/100 101/101/101 118/118/118
f 100/100/100 118/118/118 117/117/117
f 101/101/101 102/102/102 119/119/119
f 101/101/101 119/119/119 118/118/118
f 103/104/104 104/103/103 121/120/120
f 103/104/104 121/120/120 120/121/121
f 104/103/103 105/105/105 122/122/122
f 104/103/103 122/122/122 121/120/120
f 105/105/105 106/106/106 123/123/123
f 105/105/105 123/123/123 122/122/122
f 106/106/106 107/107/107 124/124/124
f 106/106/106 124/124/124 123/123/123
f 107/107/107 108/108/108 125/125/125
f 107/107/107 125/125/125 124/124/124
f 108/108/108 109/109/109 126/126/126
f 108/108/108 126/126/126 125/125/125
f 109/109/109 110/110/110 127/127/127
f 109/109/109 127/127/127 126/126/126
f 110/110/110 111/111/111 128/128/128
f 110/110/110 128/128/128 127/127/127
f 111/111/111 112/112/112 129/129/129
f 111/111/111 129/129/129 128/128/128
f 112/112/112 113/113/113 130/130/130
f 112/112/112 130/130/130 129/129/129
f 113/113/113 114/114/114 131/131/131
f 113/113/113 131/131/131 130/130/130
f 114/114/114 115/115/115 132/132/132
f 114/114/114 132/132/132 131/131/131
f 115/115/115 116/116/116 133/133/133
f 115/115/115 133/133/133 132/132/132
f 116/116/116 117/117/117 134/134/134
f 116/116/116 134/134/134 133/133/133
f 117/117/117 118/118/118 135/135/135
f 117/117/117 135/135/135 134/134/134
f 118/118/118 119/119/119 136/136/136
f 118/118/118 136/136/136 135/135/135
f 120/121/121 121/120/120 138/137/137
f 120/121/121 138/137/137 137/138/138
f 121/120/120 122/122/122 139/139/139
f 121/120/120 139/139/139 138/137/137
f 122/122/122 123/123/123 140/140/140
f 122/122/122 140/140/140 139/139/139
f 123/123/123 124/124/124 141/141/141
f 123/123/123 141/141/141 140/140/140
f 124/124/124 125/125/125 142/142/142
f 124/124/124 142/142/142 141/141/141
f 125/125/125 126/126/126 143/143/143
f 125/125/125 143/143/143 142/142/142
f 126/126/126 127/127/127 144/144/144
f 126/126/126 144/144/144 143/143/143
f 127/127/127 128/128/128 145/145/145
f 127/127/127 145/145/145 144/144/144
f 128/128/128 129/129/129 146/146/146
f 128/128/128 146/146/146 145/145/145
f 129/129/129 130/130/130 147/147/147
f 129/129/129 147/147/147 146/146/146
f 130/130/130 131/131/131 148/148/148
f 130/130/130 148/148/148 147/147/147
f 131/131/131 132/132/132 149/149/149
f 131/131/131 149/149/149 148/148/148
f 132/132/132 133/133/133 150/150/150
f 132/132/132 150/150/150 149/149/149
f 133/133/133 134/134/134 151/151/151
f 133/133/133 151/151/151 150/150/150
f 134/134/134 135/135/135 152/152/152
f 134/134/134 152/152/152 151/151/151
f 135/135/135 136/136/136 153/153/153
f 135/135/135 153/153/153 152/152/152
f 137/138/138 138/137/137 155/154/154
f 137/138/138 155/154/154 154/155/155
f 138/137/137 139/139/139 156/156/156
f 138/137/137 156/156/156 155/154/154
f 139/139/139 140/140/140 157/157/157
f 139/139/139 157/157/157 156/156/156
f 140/140/140 141/141/141 158/158/158
f 140/140/140 158/158/158 157/157/157
f 141/141/141 142/142/142 159/159/159
f 141/141/141 159/159/159 158/158/158
f 142/142/142 143/143/143 160/160/160
f 142/142/142 160/160/160 159/159/159
f 143/143/143 144/144/144 161/161/161
f 143/143/143 161/161/161 160/160/160
f 144/144/144 145/145/145 162/162/162
f 144/144/144 162/162/162 161/161/161
f 145/145/145 146/146/146 163/163/163
f 145/145/145 163/163/163 162/162/162
f 146/146/146 147/147/147 164/164/164
f 146/146/146 164/164/164 163/163/163
f 147/147/147 148/148/148 165/165/165
f 147/147/147 165/165/165 164/164/164
f 148/148/148 149/149/149 166/166/166
f 148/148/148 166/166/166 165/165/165
f 149/149/149 150/150/150 167/167/167
f 149/149/149 167/167/167 166/166/166
f 150/150/150 151/151/151 168/168/168
f 150/150/150 168/168/168 167/167/167
f 151/151/151 152/152/152 169/169/169
f 151/151/151 169/169/169 168/168/168
f 152/152/152 153/153/153 170/170/170
f 152/152/152 170/170/170 169/169/169
f 154/155/155 155/154/154 172/171/171
f 154/155/155 172/171/171 171/172/172
f 155/154/154 156/156/156 173/173/173
f 155/154/154 173/173/173 172/171/171
f 156/156/156 157/157/157 174/174/174
f 156/156/156 174/174/174 173/173/173
f 157/157/157 158/158/158 175/175/175
f 157/157/157 175/175/175 174/174/174
f 158/158/158 159/159/159 176/176/176
f 158/158/158 176/176/176 175/175/175
f 159/159/159 160/160/160 177/177/177
f 159/159/159 177/177/177 176/176/176
f 160/160/160 161/161/161 178/178/178
f 160/160/160 178/178/178 177/177/177
f 161/161/161 162/162/162 179/179/179
f 161/161/161 179/179/179 178/178/178
f 162/162/162 163/163/163 180/180/180
f 162/162/162 180/180/180 179/179/179
f 163/163/163 164/164/164 181/181/181
f 163/163/163 181/181/181 180/180/180
f 164/164/164 165/165/165 182/182/182
f 164/164/164 182/182/182 181/181/181
f 165/165/165 166/166/166 183/183/183
f 165/165/165 183/183/183 182/182/182
f 166/166/166 167/167/167 184/184/184
f 166/166/166 184/184/184 183/183/183
f 167/167/167 168/168/168 185/185/185
f 167/167/167 185/185/185 184/184/184
f 168/168/168 169/169/169 186/186/186
f 168/168/168 186/186/186 185/185/185
f 169/169/169 170/170/170 187/187/187
f 169/169/169 187/187/187 186/186/186
f 171/172/172 172/171/171 189/188/188
f 171/172/172 189/188/188 188/189/189
f 172/171/171 173/173/173 190/190/190
f 172/171/171 190/190/190 189/188/188
f 173/173/173 174/174/174 191/191/191
f 173/173/173 191/191/191 190/190/190
f 174/174/174 175/175/175 192/192/192
f 174/174/174 192/192/192 191/191/191
f 175/175/175 176/176/176 193/193/193
f 175/175/175 193/193/193 192/192/192
f 176/176/176 177/177/177 194/194/194
f 176/176/176 194/194/194 193/193/193
f 177/177/177 178/178/178 195/195/195
f 177/177/177 195/195/195 194/194/194
f 178/178/178 179/179/179 196/196/196
f 178/178/178 196/196/196 195/195/195
f 179/179/179 180/180/180 197/197/197
f 179/179/179 197/197/197 196/196/196
f 180/180/180 181/181/181 198/198/198
f 180/180/180 198/198/198 197/197/197
f 181/181/181 182/182/182 199/199/199
f 181/181/181 199/199/199 198/198/198
f 182/182/182 183/183/183 200/200/200
f 182/182/182 200/200/200 199/199/199
f 183/183/183 184/184/184 201/201/201
f 183/183/183 201/201/201 200/200/200
f 184/184/184 185/185/185 202/202/202
f 184/184/184 202/202/202 201/201/201
f 185/185/185 186/186/186 203/203/203
f 185/185/185 203/203/203 202/202/202
f 186/186/186 187/187/187 204/204/204
f 186/186/186 204/204/204 203/203/203
f 188/189/189 189/188/188 206/205/205
f 188/189/189 206/205/205 205/206/206
f 189/188/188 190/190/190 207/207/207
f 189/188/188 207/207/207 206/205/205
f 190/190/190 191/191/191 208/208/208
f 190/190/190 208/208/208 207/207/207
f 191/191/191 192/192/192 209/209/209
f 191/191/191 209/209/209 208/208/208
f 192/192/192 193/193/193 210/210/210
f 192/192/192 210/210/210 209/209/209
f 193/193/193 194/194/194 211/211/211
f 193/193/193 211/211/211 210/210/210
f 194/194/194 195/195/195 212/212/212
f 194/194/194 212/212/212 211/211/211
f 195/195/195 196/196/196 213/213/213
f 195/195/195 213/213/213 212/212/212
f 196/196/196 197/197/197 214/214/214
f 196/196/196 214/214/214 213/213/213
f 197/197/197 198/198/198 215/215/215
f 197/197/197 215/215/215 214/214/214
f 198/198/198 199/199/199 216/216/216
f 198/198/198 216/216/216 215/215/215
f 199/199/199 200/200/200 217/217/217
f 199/199/199 217/217/217 216/216/216
f 200/200/200 201/201/201 218/218/218
f 200/200/200 218/218/218 217/217/217
f 201/201/201 202/202/202 219/219/219
f 201/201/201 219/219/219 218/218/218
f 202/202/202 203/203/203 220/220/220
f 202/202/202 220/220/220 219/219/219
f 203/203/203 204/204/204 221/221/221
f 203/203/203 221/221/221 220/220/220
f 205/206/206 206/205/205 223/222/222
f 205/206/206 223/222/222 222/223/223
f 206/205/205 207/207/207 224/224/224
f 206/205/205 224/224/224 223/222/222
f 207/207/207 208/208/208 225/225/225
f 207/207/207 225/225/225 224/224/224
f 208/208/208 209/209/209 226/226/226
f 208/208/208 226/226/226 225/225/225
f 209/209/209 210/210/210 227/227/227
f 209/209/209 227/227/227 226/226/226
f 210/210/210 211/211/211 228/228/228
f 210/210/210 228/228/228 227/227/227
f 211/211/211 212/212/212 229/229/229
f 211/211/211 229/229/229 228/228/228
f 212/212/212 213/213/213 230/230/230
f 212/212/212 230/230/230 229/229/229
f 213/213/213 214/214/214 231/231/231
f 213/213/213 231/231/231 230/230/230
f 214/214/214 215/215/215 232/232/232
f 214/214/214 232/232/232 231/231/231
f 215/215/215 216/216/216 233/233/233
f 215/215/215 233/233/233 232/232/232
f 216/216/216 217/217/217 234/234/234
f 216/216/216 234/234/234 233/233/233
f 217/217/217 218/218/218 235/235/235
f 217/217/217 235/235/235 234/234/234
f 218/218/218 219/219/219 236/236/236
f 218/218/218 236/236/236 235/235/235
f 219/219/219 220/220/220 237/237/237
f 219/219/219 237/237/237 236/236/236
f 220/220/220 221/221/221 238/238/238
f 220/220/220 238/238/238 237/237/237
f 222/223/223 223/222/222 240/239/239
f 222/223/223 240/239/239 239/240/240
f 223/222/222 224/224/224 241/241/241
f 223/222/222 241/241/241 240/239/239
f 224/224/224 225/225/225 242/242/242
f 224/224/224 242/242/242 241/241/241
f 225/225/225 226/226/226 243/243/243
f 225/225/225 243/243/243 242/242/242
f 226/226/226 227/227/227 244/244/244
f 226/226/226 244/244/244 243/243/243
f 227/227/227 228/228/228 245/245/245
f 227/227/227 245/245/245 244/244/244
f 228/228/228 229/229/229 246/246/246
f 228/228/228 246/246/246 245/245/245
f 229/229/229 230/230/230 247/247/247
f 229/229/229 247/247/247 246/246/246
f 230/230/230 231/231/231 248/248/248
f 230/230/230 248/248/248 247/247/247
f 231/231/231 232/232/232 249/249/249
f 231/231/231 249/249/249 248/248/248
f 232/232/232 233/233/233 250/250/250
f 232/232/232 250/250/250 249/249/249
f 233/233/233 234/234/234 251/251/251
f 233/233/233 251/251/251 250/250/250
f 234/234/234 235/235/235 252/252/252
f 234/234/234 252/252/252 251/251/251
f 235/235/235 236/236/236 253/253/253
f 235/235/235 253/253/253 252/252/252
f 236/236/236 237/237/237 254/254/254
f 236/236/236 254/254/254 253/253/253
f 237/237/237 238/238/238 255/255/255
f 237/237/237 255/255/255 254/254/254
f 239/240/240 240/239/239 257/256/256
f 239/240/240 257/256/256 256/257/257
f 240/239/239 241/241/241 258/258/258
f 240/239/239 258/258/258 257/256/256
f 241/241/241 242/242/242 259/259/259
f 241/241/241 259/259/259 258/258/258
f 242/242/242 243/243/243 260/260/260
f 242/242/242 260/260/260 259/259/259
f 243/243/243 244/244/244 261/261/261
f 243/243/243 261/261/261 260/260/260
f 244/244/244 245/245/245 262/262/262
f 244/244/244 262/262/262 261/261/261
f 245/245/245 246/246/246 263/263/263
f 245/245/245 263/263/263 262/262/262
f 246/246/246 247/247/247 264/264/264
f 246/246/246 264/264/264 263/263/263
f 247/247/247 248/248/248 265/265/265
f 247/247/247 265/265/265 264/264/264
f 248/248/248 249/249/249 266/266/266
f 248/248/248 266/266/266 265/265/265
f 249/249/249 250/250/250 267/267/267
f 249/249/249 267/267/267 266/266/266
f 250/250/250 251/251/251 268/268/268
f 250/250/250 268/268/268 267/267/267
f 251/251/251 252/252/252 269/269/269
f 251/251/251 269/269/269 268/268/268
f 252/252/252 253/253/253 270/270/270
f 252/252/252 270/270/270 269/269/269
f 253/253/253 254/254/254 271/271/271
f 253/253/253 271/271/271 270/270/270
f 254/254/254 255/255/255 272/272/272
f 254/254/254 272/272/272 271/271/271
f 256/257/257 257/256/256 274/273/273
f 256/257/257 274/273/273 273/274/274
f 257/256/256 258/258/258 275/275/275
f 257/256/256 275/275/275 274/273/273
f 258/258/258 259/259/259 276/276/276
f 258/258/258 276/276/276 275/275/275
f 259/259/259 260/260/260 277/277/277
f 259/259/259 277/277/277 276/276/276
f 260/260/260 261/261/261 278/278/278
f 260/260/260 278/278/278 277/277/277
f 261/261/261 262/262/262 279/279/279
f 261/261/261 279/279/279 278/278/278
f 262/262/262 263/263/263 280/280/280
f 262/262/262 280/280/280 279/279/279
f 263/263/263 264/264/264 281/281/281
f 263/263/263 281/281/281 280/280/280
f 264/264/264 265/265/265 282/282/282
f 264/264/264 282/282/282 281/281/281
f 265/265/265 266/266/266 283/283/283
f 265/265/265 283/283/283 282/282/282
f 266/266/266 267/267/267 284/284/284
f 266/266/266 284/284/284 283/283/283
f 267/267/267 268/268/268 285/285/285
f 267/267/267 285/285/285 284/284/284
f 268/268/268 269/269/269 286/286/286
f 268/268/268 286/286/286 285/285/285
f 269/269/269 270/270/270 287/287/287
f 269/269/269 287/287/287 286/286/286
f 270/270/270 271/271/271 288/288/288
f 270/270/270 288/288/288 287/287/287
f 271/271/271 272/272/272 289/289/289
f 271/271/271 289/289/289 288/288/288
