mtllib terrain_mid_01_01.mtl
usemtl terrain_mid_01_01
# Blender 5.1.1
# www.blender.org
o terrain_mid_01_01
v -160.000000 -160.000000 -25.780552
v -140.000000 -160.000000 -23.577480
v -120.000000 -160.000000 -21.257338
v -100.000000 -160.000000 -19.554863
v -80.000000 -160.000000 -18.650824
v -60.000000 -160.000000 -17.502007
v -40.000000 -160.000000 -15.979180
v -20.000000 -160.000000 -13.898166
v 0.000000 -160.000000 -11.618984
v 20.000000 -160.000000 -9.387329
v 40.000000 -160.000000 -6.391215
v 60.000000 -160.000000 -2.855258
v 80.000000 -160.000000 0.616170
v 100.000000 -160.000000 3.900438
v 120.000000 -160.000000 6.638808
v 140.000000 -160.000000 8.618883
v 160.000000 -160.000000 10.222745
v -160.000000 -140.000000 -28.048407
v -140.000000 -140.000000 -25.843458
v -120.000000 -140.000000 -23.912712
v -100.000000 -140.000000 -22.442701
v -80.000000 -140.000000 -20.877733
v -60.000000 -140.000000 -18.714952
v -40.000000 -140.000000 -16.247259
v -20.000000 -140.000000 -14.027167
v 0.000000 -140.000000 -11.874186
v 20.000000 -140.000000 -9.430399
v 40.000000 -140.000000 -6.007724
v 60.000000 -140.000000 -1.952094
v 80.000000 -140.000000 2.240716
v 100.000000 -140.000000 6.058730
v 120.000000 -140.000000 9.175056
v 140.000000 -140.000000 11.472880
v 160.000000 -140.000000 12.436584
v -160.000000 -120.000000 -30.863653
v -140.000000 -120.000000 -28.624660
v -120.000000 -120.000000 -26.639194
v -100.000000 -120.000000 -24.582296
v -80.000000 -120.000000 -22.157593
v -60.000000 -120.000000 -19.017143
v -40.000000 -120.000000 -16.138556
v -20.000000 -120.000000 -13.773010
v 0.000000 -120.000000 -11.503987
v 20.000000 -120.000000 -8.704793
v 40.000000 -120.000000 -4.953396
v 60.000000 -120.000000 -0.463257
v 80.000000 -120.000000 4.075426
v 100.000000 -120.000000 8.149028
v 120.000000 -120.000000 11.581957
v 140.000000 -120.000000 14.322904
v 160.000000 -120.000000 15.583849
v -160.000000 -100.000000 -33.585869
v -140.000000 -100.000000 -31.182997
v -120.000000 -100.000000 -28.443216
v -100.000000 -100.000000 -25.338676
v -80.000000 -100.000000 -22.213318
v -60.000000 -100.000000 -18.869555
v -40.000000 -100.000000 -16.078146
v -20.000000 -100.000000 -13.617933
v 0.000000 -100.000000 -10.808709
v 20.000000 -100.000000 -7.370592
v 40.000000 -100.000000 -3.302090
v 60.000000 -100.000000 1.357680
v 80.000000 -100.000000 5.932197
v 100.000000 -100.000000 10.009427
v 120.000000 -100.000000 13.561273
v 140.000000 -100.000000 16.725031
v 160.000000 -100.000000 18.649483
v -160.000000 -80.000000 -32.003586
v -140.000000 -80.000000 -29.608269
v -120.000000 -80.000000 -27.112915
v -100.000000 -80.000000 -24.462029
v -80.000000 -80.000000 -21.746826
v -60.000000 -80.000000 -18.840263
v -40.000000 -80.000000 -16.280083
v -20.000000 -80.000000 -13.759216
v 0.000000 -80.000000 -10.413012
v 20.000000 -80.000000 -6.153856
v 40.000000 -80.000000 -1.719801
v 60.000000 -80.000000 3.001567
v 80.000000 -80.000000 7.465414
v 100.000000 -80.000000 11.416789
v 120.000000 -80.000000 14.902792
v 140.000000 -80.000000 18.079617
v 160.000000 -80.000000 20.324518
v -160.000000 -60.000000 -28.545349
v -140.000000 -60.000000 -26.428867
v -120.000000 -60.000000 -24.559292
v -100.000000 -60.000000 -22.786669
v -80.000000 -60.000000 -20.836893
v -60.000000 -60.000000 -18.412985
v -40.000000 -60.000000 -16.107550
v -20.000000 -60.000000 -13.828844
v 0.000000 -60.000000 -10.486511
v 20.000000 -60.000000 -5.904154
v 40.000000 -60.000000 -0.929640
v 60.000000 -60.000000 3.868483
v 80.000000 -60.000000 8.166619
v 100.000000 -60.000000 11.968486
v 120.000000 -60.000000 15.281996
v 140.000000 -60.000000 18.209751
v 160.000000 -60.000000 20.338488
v -160.000000 -40.000000 -24.478977
v -140.000000 -40.000000 -22.762735
v -120.000000 -40.000000 -21.556097
v -100.000000 -40.000000 -20.528618
v -80.000000 -40.000000 -19.092360
v -60.000000 -40.000000 -17.102783
v -40.000000 -40.000000 -15.051636
v -20.000000 -40.000000 -13.201612
v 0.000000 -40.000000 -10.828986
v 20.000000 -40.000000 -6.709106
v 40.000000 -40.000000 -1.191121
v 60.000000 -40.000000 3.803189
v 80.000000 -40.000000 7.923930
v 100.000000 -40.000000 11.552884
v 120.000000 -40.000000 14.625983
v 140.000000 -40.000000 17.173279
v 160.000000 -40.000000 19.027046
v -160.000000 -20.000000 -20.589727
v -140.000000 -20.000000 -18.684923
v -120.000000 -20.000000 -17.520521
v -100.000000 -20.000000 -16.887152
v -80.000000 -20.000000 -15.726291
v -60.000000 -20.000000 -14.047010
v -40.000000 -20.000000 -12.430399
v -20.000000 -20.000000 -11.281046
v 0.000000 -20.000000 -10.021308
v 20.000000 -20.000000 -7.382419
v 40.000000 -20.000000 -2.037279
v 60.000000 -20.000000 3.047316
v 80.000000 -20.000000 7.039598
v 100.000000 -20.000000 10.285583
v 120.000000 -20.000000 13.032423
v 140.000000 -20.000000 15.293247
v 160.000000 -20.000000 16.944479
v -160.000000 0.000000 -16.388536
v -140.000000 0.000000 -14.200154
v -120.000000 0.000000 -12.889893
v -100.000000 0.000000 -12.303406
v -80.000000 0.000000 -11.394205
v -60.000000 0.000000 -9.950453
v -40.000000 0.000000 -8.791836
v -20.000000 0.000000 -8.403815
v 0.000000 0.000000 -8.273946
v 20.000000 0.000000 -7.221815
v 40.000000 0.000000 -3.418748
v 60.000000 0.000000 1.029975
v 80.000000 0.000000 5.023201
v 100.000000 0.000000 8.404087
v 120.000000 0.000000 10.915466
v 140.000000 0.000000 12.828085
v 160.000000 0.000000 14.256986
v -160.000000 20.000000 -11.141140
v -140.000000 20.000000 -9.037699
v -120.000000 20.000000 -7.672838
v -100.000000 20.000000 -6.795607
v -80.000000 20.000000 -6.256782
v -60.000000 20.000000 -5.146396
v -40.000000 20.000000 -4.439758
v -20.000000 20.000000 -4.707038
v 0.000000 20.000000 -5.417786
v 20.000000 20.000000 -5.708964
v 40.000000 20.000000 -4.383511
v 60.000000 20.000000 -1.886725
v 80.000000 20.000000 1.868381
v 100.000000 20.000000 5.652961
v 120.000000 20.000000 8.145908
v 140.000000 20.000000 9.817722
v 160.000000 20.000000 11.183988
v -160.000000 40.000000 -5.424187
v -140.000000 40.000000 -3.592692
v -120.000000 40.000000 -2.437425
v -100.000000 40.000000 -1.555610
v -80.000000 40.000000 -1.103712
v -60.000000 40.000000 -0.502495
v -40.000000 40.000000 -0.606621
v -20.000000 40.000000 -1.362596
v 0.000000 40.000000 -2.241597
v 20.000000 40.000000 -2.728753
v 40.000000 40.000000 -2.883036
v 60.000000 40.000000 -2.669549
v 80.000000 40.000000 -1.223117
v 100.000000 40.000000 1.395433
v 120.000000 40.000000 4.070604
v 140.000000 40.000000 6.322720
v 160.000000 40.000000 8.146376
v -160.000000 60.000000 0.545865
v -140.000000 60.000000 2.079922
v -120.000000 60.000000 2.950582
v -100.000000 60.000000 3.633321
v -80.000000 60.000000 3.926059
v -60.000000 60.000000 3.952929
v -40.000000 60.000000 3.164266
v -20.000000 60.000000 1.918891
v 0.000000 60.000000 1.035645
v 20.000000 60.000000 0.774421
v 40.000000 60.000000 0.172825
v 60.000000 60.000000 -1.518242
v 80.000000 60.000000 -2.392944
v 100.000000 60.000000 -1.369283
v 120.000000 60.000000 0.730842
v 140.000000 60.000000 3.045492
v 160.000000 60.000000 4.920790
v -160.000000 80.000000 6.703674
v -140.000000 80.000000 8.039849
v -120.000000 80.000000 8.726752
v -100.000000 80.000000 8.995409
v -80.000000 80.000000 8.839715
v -60.000000 80.000000 8.373617
v -40.000000 80.000000 7.080329
v -20.000000 80.000000 5.380805
v 0.000000 80.000000 4.270928
v 20.000000 80.000000 4.122464
v 40.000000 80.000000 3.760600
v 60.000000 80.000000 1.995456
v 80.000000 80.000000 -0.053955
v 100.000000 80.000000 -0.807698
v 120.000000 80.000000 -0.115722
v 140.000000 80.000000 0.731086
v 160.000000 80.000000 2.009569
v -160.000000 100.000000 13.241076
v -140.000000 100.000000 14.611369
v -120.000000 100.000000 15.083836
v -100.000000 100.000000 14.816881
v -80.000000 100.000000 14.076071
v -60.000000 100.000000 12.868334
v -40.000000 100.000000 11.019450
v -20.000000 100.000000 8.872227
v 0.000000 100.000000 7.495843
v 20.000000 100.000000 7.323663
v 40.000000 100.000000 6.959609
v 60.000000 100.000000 5.366096
v 80.000000 100.000000 3.261780
v 100.000000 100.000000 2.053155
v 120.000000 100.000000 2.208062
v 140.000000 100.000000 2.130656
v 160.000000 100.000000 1.880460
v -160.000000 120.000000 19.988512
v -140.000000 120.000000 21.425293
v -120.000000 120.000000 21.587763
v -100.000000 120.000000 20.809122
v -80.000000 120.000000 19.489590
v -60.000000 120.000000 17.686340
v -40.000000 120.000000 15.227858
v -20.000000 120.000000 12.595561
v 0.000000 120.000000 10.860406
v 20.000000 120.000000 10.500983
v 40.000000 120.000000 10.041151
v 60.000000 120.000000 8.712816
v 80.000000 120.000000 7.066759
v 100.000000 120.000000 6.076260
v 120.000000 120.000000 6.009447
v 140.000000 120.000000 5.167480
v 160.000000 120.000000 3.814413
v -160.000000 140.000000 26.666592
v -140.000000 140.000000 27.797445
v -120.000000 140.000000 27.533657
v -100.000000 140.000000 26.537210
v -80.000000 140.000000 24.965616
v -60.000000 140.000000 22.912428
v -40.000000 140.000000 20.103922
v -20.000000 140.000000 16.924433
v 0.000000 140.000000 14.661268
v 20.000000 140.000000 13.739672
v 40.000000 140.000000 13.268304
v 60.000000 140.000000 12.345324
v 80.000000 140.000000 11.289808
v 100.000000 140.000000 10.772360
v 120.000000 140.000000 10.447741
v 140.000000 140.000000 9.121861
v 160.000000 140.000000 7.761421
v -160.000000 160.000000 31.578119
v -140.000000 160.000000 32.212124
v -120.000000 160.000000 31.741747
v -100.000000 160.000000 30.540684
v -80.000000 160.000000 28.824802
v -60.000000 160.000000 27.012573
v -40.000000 160.000000 24.616598
v -20.000000 160.000000 21.643833
v 0.000000 160.000000 19.127436
v 20.000000 160.000000 18.132717
v 40.000000 160.000000 17.475498
v 60.000000 160.000000 16.509861
v 80.000000 160.000000 15.673109
v 100.000000 160.000000 15.282634
v 120.000000 160.000000 14.942579
v 140.000000 160.000000 13.926405
v 160.000000 160.000000 13.058790
vn -0.0962 0.0990 0.9904
vn -0.1119 0.0921 0.9894
vn -0.1021 0.1244 0.9870
vn -0.1034 0.1254 0.9867
vn -0.0995 0.1053 0.9895
vn -0.0840 0.1329 0.9876
vn -0.0645 0.1261 0.9899
vn -0.0751 0.1243 0.9894
vn -0.0509 0.1220 0.9912
vn -0.0925 0.0869 0.9919
vn -0.0663 0.0949 0.9933
vn -0.1149 0.0376 0.9927
vn -0.0896 0.0542 0.9945
vn -0.1164 0.0040 0.9932
vn -0.1083 0.0315 0.9936
vn -0.1088 -0.0032 0.9941
vn -0.1120 0.0248 0.9934
vn -0.1142 -0.0029 0.9935
vn -0.1296 0.0116 0.9915
vn -0.1451 -0.0169 0.9893
vn -0.1611 -0.0122 0.9869
vn -0.1836 -0.0353 0.9824
vn -0.1724 -0.0433 0.9841
vn -0.2016 -0.0585 0.9777
vn -0.1661 -0.0759 0.9832
vn -0.1957 -0.0845 0.9770
vn -0.1481 -0.1019 0.9837
vn -0.1698 -0.1040 0.9800
vn -0.1163 -0.1199 0.9860
vn -0.1332 -0.1216 0.9836
vn -0.0885 -0.1260 0.9881
vn -0.0803 -0.1406 0.9868
vn -0.1342 -0.0839 0.9874
vn -0.0853 -0.1324 0.9875
vn -0.1041 0.1316 0.9858
vn -0.1021 0.1364 0.9854
vn -0.0999 0.1120 0.9887
vn -0.1111 0.0717 0.9912
vn -0.1377 0.0331 0.9899
vn -0.1488 0.0039 0.9889
vn -0.1300 -0.0042 0.9915
vn -0.1151 -0.0102 0.9933
vn -0.1257 -0.0264 0.9917
vn -0.1614 -0.0507 0.9856
vn -0.2013 -0.0661 0.9773
vn -0.2195 -0.0804 0.9723
vn -0.2096 -0.0898 0.9736
vn -0.1836 -0.0966 0.9782
vn -0.1517 -0.1078 0.9825
vn -0.0987 -0.1295 0.9866
vn -0.0700 -0.1531 0.9857
vn -0.1275 0.0244 0.9915
vn -0.1019 0.0283 0.9944
vn -0.1446 0.0117 0.9894
vn -0.1539 -0.0030 0.9881
vn -0.1597 -0.0101 0.9871
vn -0.1516 -0.0043 0.9884
vn -0.1302 0.0035 0.9915
vn -0.1306 -0.0004 0.9914
vn -0.1542 -0.0269 0.9877
vn -0.1841 -0.0626 0.9809
vn -0.2125 -0.0787 0.9740
vn -0.2241 -0.0840 0.9709
vn -0.2106 -0.0825 0.9741
vn -0.1868 -0.0800 0.9791
vn -0.1650 -0.0816 0.9829
vn -0.1254 -0.0926 0.9878
vn -0.0798 -0.1173 0.9899
vn -0.1205 -0.1172 0.9858
vn -0.1074 -0.1243 0.9864
vn -0.1270 -0.0958 0.9873
vn -0.1327 -0.0631 0.9892
vn -0.1389 -0.0339 0.9897
vn -0.1354 -0.0113 0.9907
vn -0.1259 0.0008 0.9920
vn -0.1451 0.0052 0.9894
vn -0.1868 -0.0079 0.9824
vn -0.2122 -0.0358 0.9766
vn -0.2227 -0.0577 0.9732
vn -0.2234 -0.0610 0.9728
vn -0.2056 -0.0546 0.9771
vn -0.1822 -0.0478 0.9821
vn -0.1641 -0.0424 0.9855
vn -0.1342 -0.0367 0.9903
vn -0.0946 -0.0420 0.9946
vn -0.0977 -0.1679 0.9810
vn -0.1072 -0.1838 0.9771
vn -0.0898 -0.1370 0.9865
vn -0.0922 -0.0975 0.9910
vn -0.1085 -0.0658 0.9919
vn -0.1173 -0.0431 0.9922
vn -0.1138 -0.0305 0.9930
vn -0.1391 -0.0139 0.9902
vn -0.1943 0.0102 0.9809
vn -0.2324 0.0135 0.9725
vn -0.2373 -0.0128 0.9714
vn -0.2217 -0.0196 0.9749
vn -0.1983 -0.0112 0.9801
vn -0.1751 -0.0033 0.9845
vn -0.1541 0.0068 0.9880
vn -0.1254 0.0225 0.9919
vn -0.0975 0.0323 0.9947
vn -0.0715 -0.1896 0.9793
vn -0.0937 -0.1942 0.9765
vn -0.0549 -0.1731 0.9834
vn -0.0608 -0.1457 0.9875
vn -0.0847 -0.1263 0.9884
vn -0.1000 -0.1078 0.9891
vn -0.0967 -0.0911 0.9911
vn -0.1048 -0.0632 0.9925
vn -0.1602 -0.0115 0.9870
vn -0.2341 0.0359 0.9715
vn -0.2541 0.0268 0.9668
vn -0.2221 0.0200 0.9748
vn -0.1901 0.0276 0.9814
vn -0.1651 0.0415 0.9854
vn -0.1390 0.0556 0.9887
vn -0.1091 0.0723 0.9914
vn -0.0916 0.0842 0.9922
vn -0.0746 -0.2085 0.9752
vn -0.1017 -0.1972 0.9751
vn -0.0439 -0.2115 0.9764
vn -0.0439 -0.2013 0.9786
vn -0.0695 -0.1885 0.9796
vn -0.0808 -0.1754 0.9812
vn -0.0682 -0.1542 0.9857
vn -0.0597 -0.1188 0.9911
vn -0.0968 -0.0634 0.9933
vn -0.1956 0.0126 0.9806
vn -0.2520 0.0538 0.9662
vn -0.2208 0.0675 0.9730
vn -0.1777 0.0711 0.9815
vn -0.1478 0.0776 0.9860
vn -0.1235 0.0918 0.9881
vn -0.0968 0.1074 0.9895
vn -0.0848 0.1179 0.9894
vn -0.0847 -0.2336 0.9686
vn -0.1110 -0.2285 0.9672
vn -0.0460 -0.2388 0.9700
vn -0.0363 -0.2445 0.9690
vn -0.0571 -0.2300 0.9715
vn -0.0633 -0.2167 0.9742
vn -0.0378 -0.1957 0.9799
vn -0.0127 -0.1621 0.9867
vn -0.0293 -0.1142 0.9930
vn -0.1204 -0.0415 0.9919
vn -0.2017 0.0574 0.9778
vn -0.2050 0.1198 0.9714
vn -0.1799 0.1261 0.9756
vn -0.1448 0.1138 0.9829
vn -0.1091 0.1205 0.9867
vn -0.0825 0.1351 0.9874
vn -0.0752 0.1421 0.9870
vn -0.0836 -0.2555 0.9632
vn -0.1047 -0.2629 0.9591
vn -0.0539 -0.2522 0.9662
vn -0.0341 -0.2593 0.9652
vn -0.0399 -0.2490 0.9677
vn -0.0441 -0.2296 0.9723
vn -0.0108 -0.2005 0.9796
vn 0.0241 -0.1733 0.9846
vn 0.0248 -0.1491 0.9885
vn -0.0256 -0.1115 0.9934
vn -0.0951 -0.0134 0.9954
vn -0.1538 0.0910 0.9839
vn -0.1831 0.1517 0.9713
vn -0.1528 0.1705 0.9734
vn -0.1021 0.1678 0.9805
vn -0.0748 0.1600 0.9843
vn -0.0681 0.1507 0.9862
vn -0.0716 -0.2670 0.9610
vn -0.0946 -0.2792 0.9556
vn -0.0492 -0.2564 0.9653
vn -0.0322 -0.2521 0.9672
vn -0.0255 -0.2466 0.9688
vn -0.0121 -0.2218 0.9750
vn 0.0211 -0.1867 0.9822
vn 0.0403 -0.1633 0.9858
vn 0.0337 -0.1592 0.9867
vn 0.0158 -0.1600 0.9870
vn -0.0015 -0.1132 0.9936
vn -0.0415 -0.0092 0.9991
vn -0.1005 0.1054 0.9893
vn -0.1293 0.1715 0.9767
vn -0.1202 0.1810 0.9761
vn -0.0999 0.1661 0.9810
vn -0.0803 0.1542 0.9848
vn -0.0576 -0.2788 0.9586
vn -0.0840 -0.2891 0.9536
vn -0.0373 -0.2686 0.9625
vn -0.0236 -0.2550 0.9667
vn -0.0078 -0.2412 0.9704
vn 0.0186 -0.2166 0.9761
vn 0.0498 -0.1885 0.9808
vn 0.0524 -0.1660 0.9847
vn 0.0282 -0.1607 0.9866
vn 0.0212 -0.1689 0.9854
vn 0.0565 -0.1636 0.9849
vn 0.0636 -0.1156 0.9913
vn -0.0037 -0.0292 0.9996
vn -0.0778 0.0548 0.9955
vn -0.1091 0.1035 0.9886
vn -0.1031 0.1377 0.9851
vn -0.0826 0.1511 0.9851
vn -0.0483 -0.2987 0.9531
vn -0.0741 -0.3017 0.9505
vn -0.0228 -0.2902 0.9567
vn -0.0027 -0.2693 0.9631
vn 0.0151 -0.2459 0.9692
vn 0.0430 -0.2173 0.9752
vn 0.0732 -0.1922 0.9786
vn 0.0690 -0.1709 0.9829
vn 0.0310 -0.1594 0.9867
vn 0.0127 -0.1615 0.9868
vn 0.0525 -0.1669 0.9846
vn 0.0934 -0.1690 0.9812
vn 0.0692 -0.1396 0.9878
vn 0.0015 -0.0852 0.9964
vn -0.0384 -0.0369 0.9986
vn -0.0529 0.0229 0.9983
vn -0.0626 0.0756 0.9952
vn -0.0437 -0.3170 0.9474
vn -0.0756 -0.3143 0.9463
vn -0.0049 -0.3061 0.9520
vn 0.0245 -0.2829 0.9588
vn 0.0471 -0.2569 0.9653
vn 0.0742 -0.2261 0.9713
vn 0.0973 -0.1987 0.9752
vn 0.0863 -0.1769 0.9804
vn 0.0382 -0.1624 0.9860
vn 0.0134 -0.1573 0.9875
vn 0.0483 -0.1549 0.9867
vn 0.0908 -0.1649 0.9821
vn 0.0813 -0.1747 0.9813
vn 0.0260 -0.1695 0.9852
vn -0.0019 -0.1514 0.9885
vn 0.0081 -0.1102 0.9939
vn 0.0036 -0.0451 0.9990
vn -0.0379 -0.3128 0.9491
vn -0.0815 -0.3171 0.9449
vn 0.0147 -0.2972 0.9547
vn 0.0502 -0.2809 0.9584
vn 0.0751 -0.2619 0.9622
vn 0.1028 -0.2423 0.9647
vn 0.1232 -0.2198 0.9677
vn 0.1066 -0.1959 0.9748
vn 0.0515 -0.1760 0.9830
vn 0.0202 -0.1583 0.9872
vn 0.0441 -0.1556 0.9868
vn 0.0731 -0.1714 0.9825
vn 0.0644 -0.1964 0.9784
vn 0.0258 -0.2129 0.9767
vn 0.0223 -0.2017 0.9792
vn 0.0540 -0.1719 0.9836
vn 0.0529 -0.1453 0.9880
vn -0.0209 -0.2603 0.9653
vn -0.0776 -0.2775 0.9576
vn 0.0305 -0.2459 0.9688
vn 0.0622 -0.2359 0.9698
vn 0.0879 -0.2264 0.9701
vn 0.1175 -0.2255 0.9671
vn 0.1442 -0.2261 0.9634
vn 0.1315 -0.2187 0.9669
vn 0.0777 -0.2018 0.9763
vn 0.0342 -0.1873 0.9817
vn 0.0342 -0.1826 0.9826
vn 0.0485 -0.1911 0.9804
vn 0.0384 -0.2102 0.9769
vn 0.0205 -0.2243 0.9743
vn 0.0402 -0.2178 0.9752
vn 0.0654 -0.2135 0.9748
vn 0.0518 -0.2249 0.9730
vn -0.0040 -0.1992 0.9799
vn -0.0544 -0.2173 0.9746
vn 0.0410 -0.1948 0.9800
vn 0.0715 -0.1855 0.9800
vn 0.0864 -0.1796 0.9799
vn 0.1027 -0.1910 0.9762
vn 0.1299 -0.2142 0.9681
vn 0.1323 -0.2314 0.9638
vn 0.0851 -0.2280 0.9699
vn 0.0402 -0.2266 0.9732
vn 0.0396 -0.2186 0.9750
vn 0.0440 -0.2155 0.9755
vn 0.0299 -0.2202 0.9750
vn 0.0178 -0.2232 0.9746
vn 0.0330 -0.2247 0.9739
vn 0.0457 -0.2417 0.9693
vn 0.0346 -0.2624 0.9643
vt 0.015625 0.015625
vt 0.076172 0.015625
vt 0.076172 0.076172
vt 0.015625 0.076172
vt 0.136719 0.015625
vt 0.136719 0.076172
vt 0.197266 0.015625
vt 0.197266 0.076172
vt 0.257812 0.015625
vt 0.257812 0.076172
vt 0.318359 0.015625
vt 0.318359 0.076172
vt 0.378906 0.015625
vt 0.378906 0.076172
vt 0.439453 0.015625
vt 0.439453 0.076172
vt 0.500000 0.015625
vt 0.500000 0.076172
vt 0.560547 0.015625
vt 0.560547 0.076172
vt 0.621094 0.015625
vt 0.621094 0.076172
vt 0.681641 0.015625
vt 0.681641 0.076172
vt 0.742188 0.015625
vt 0.742188 0.076172
vt 0.802734 0.015625
vt 0.802734 0.076172
vt 0.863281 0.015625
vt 0.863281 0.076172
vt 0.923828 0.015625
vt 0.923828 0.076172
vt 0.984375 0.015625
vt 0.984375 0.076172
vt 0.076172 0.136719
vt 0.015625 0.136719
vt 0.136719 0.136719
vt 0.197266 0.136719
vt 0.257812 0.136719
vt 0.318359 0.136719
vt 0.378906 0.136719
vt 0.439453 0.136719
vt 0.500000 0.136719
vt 0.560547 0.136719
vt 0.621094 0.136719
vt 0.681641 0.136719
vt 0.742188 0.136719
vt 0.802734 0.136719
vt 0.863281 0.136719
vt 0.923828 0.136719
vt 0.984375 0.136719
vt 0.076172 0.197266
vt 0.015625 0.197266
vt 0.136719 0.197266
vt 0.197266 0.197266
vt 0.257812 0.197266
vt 0.318359 0.197266
vt 0.378906 0.197266
vt 0.439453 0.197266
vt 0.500000 0.197266
vt 0.560547 0.197266
vt 0.621094 0.197266
vt 0.681641 0.197266
vt 0.742188 0.197266
vt 0.802734 0.197266
vt 0.863281 0.197266
vt 0.923828 0.197266
vt 0.984375 0.197266
vt 0.076172 0.257812
vt 0.015625 0.257812
vt 0.136719 0.257812
vt 0.197266 0.257812
vt 0.257812 0.257812
vt 0.318359 0.257812
vt 0.378906 0.257812
vt 0.439453 0.257812
vt 0.500000 0.257812
vt 0.560547 0.257812
vt 0.621094 0.257812
vt 0.681641 0.257812
vt 0.742188 0.257812
vt 0.802734 0.257812
vt 0.863281 0.257812
vt 0.923828 0.257812
vt 0.984375 0.257812
vt 0.076172 0.318359
vt 0.015625 0.318359
vt 0.136719 0.318359
vt 0.197266 0.318359
vt 0.257812 0.318359
vt 0.318359 0.318359
vt 0.378906 0.318359
vt 0.439453 0.318359
vt 0.500000 0.318359
vt 0.560547 0.318359
vt 0.621094 0.318359
vt 0.681641 0.318359
vt 0.742188 0.318359
vt 0.802734 0.318359
vt 0.863281 0.318359
vt 0.923828 0.318359
vt 0.984375 0.318359
vt 0.076172 0.378906
vt 0.015625 0.378906
vt 0.136719 0.378906
vt 0.197266 0.378906
vt 0.257812 0.378906
vt 0.318359 0.378906
vt 0.378906 0.378906
vt 0.439453 0.378906
vt 0.500000 0.378906
vt 0.560547 0.378906
vt 0.621094 0.378906
vt 0.681641 0.378906
vt 0.742188 0.378906
vt 0.802734 0.378906
vt 0.863281 0.378906
vt 0.923828 0.378906
vt 0.984375 0.378906
vt 0.076172 0.439453
vt 0.015625 0.439453
vt 0.136719 0.439453
vt 0.197266 0.439453
vt 0.257812 0.439453
vt 0.318359 0.439453
vt 0.378906 0.439453
vt 0.439453 0.439453
vt 0.500000 0.439453
vt 0.560547 0.439453
vt 0.621094 0.439453
vt 0.681641 0.439453
vt 0.742188 0.439453
vt 0.802734 0.439453
vt 0.863281 0.439453
vt 0.923828 0.439453
vt 0.984375 0.439453
vt 0.076172 0.500000
vt 0.015625 0.500000
vt 0.136719 0.500000
vt 0.197266 0.500000
vt 0.257812 0.500000
vt 0.318359 0.500000
vt 0.378906 0.500000
vt 0.439453 0.500000
vt 0.500000 0.500000
vt 0.560547 0.500000
vt 0.621094 0.500000
vt 0.681641 0.500000
vt 0.742188 0.500000
vt 0.802734 0.500000
vt 0.863281 0.500000
vt 0.923828 0.500000
vt 0.984375 0.500000
vt 0.076172 0.560547
vt 0.015625 0.560547
vt 0.136719 0.560547
vt 0.197266 0.560547
vt 0.257812 0.560547
vt 0.318359 0.560547
vt 0.378906 0.560547
vt 0.439453 0.560547
vt 0.500000 0.560547
vt 0.560547 0.560547
vt 0.621094 0.560547
vt 0.681641 0.560547
vt 0.742188 0.560547
vt 0.802734 0.560547
vt 0.863281 0.560547
vt 0.923828 0.560547
vt 0.984375 0.560547
vt 0.076172 0.621094
vt 0.015625 0.621094
vt 0.136719 0.621094
vt 0.197266 0.621094
vt 0.257812 0.621094
vt 0.318359 0.621094
vt 0.378906 0.621094
vt 0.439453 0.621094
vt 0.500000 0.621094
vt 0.560547 0.621094
vt 0.621094 0.621094
vt 0.681641 0.621094
vt 0.742188 0.621094
vt 0.802734 0.621094
vt 0.863281 0.621094
vt 0.923828 0.621094
vt 0.984375 0.621094
vt 0.076172 0.681641
vt 0.015625 0.681641
vt 0.136719 0.681641
vt 0.197266 0.681641
vt 0.257812 0.681641
vt 0.318359 0.681641
vt 0.378906 0.681641
vt 0.439453 0.681641
vt 0.500000 0.681641
vt 0.560547 0.681641
vt 0.621094 0.681641
vt 0.681641 0.681641
vt 0.742188 0.681641
vt 0.802734 0.681641
vt 0.863281 0.681641
vt 0.923828 0.681641
vt 0.984375 0.681641
vt 0.076172 0.742188
vt 0.015625 0.742188
vt 0.136719 0.742188
vt 0.197266 0.742188
vt 0.257812 0.742188
vt 0.318359 0.742188
vt 0.378906 0.742188
vt 0.439453 0.742188
vt 0.500000 0.742188
vt 0.560547 0.742188
vt 0.621094 0.742188
vt 0.681641 0.742188
vt 0.742188 0.742188
vt 0.802734 0.742188
vt 0.863281 0.742188
vt 0.923828 0.742188
vt 0.984375 0.742188
vt 0.076172 0.802734
vt 0.015625 0.802734
vt 0.136719 0.802734
vt 0.197266 0.802734
vt 0.257812 0.802734
vt 0.318359 0.802734
vt 0.378906 0.802734
vt 0.439453 0.802734
vt 0.500000 0.802734
vt 0.560547 0.802734
vt 0.621094 0.802734
vt 0.681641 0.802734
vt 0.742188 0.802734
vt 0.802734 0.802734
vt 0.863281 0.802734
vt 0.923828 0.802734
vt 0.984375 0.802734
vt 0.076172 0.863281
vt 0.015625 0.863281
vt 0.136719 0.863281
vt 0.197266 0.863281
vt 0.257812 0.863281
vt 0.318359 0.863281
vt 0.378906 0.863281
vt 0.439453 0.863281
vt 0.500000 0.863281
vt 0.560547 0.863281
vt 0.621094 0.863281
vt 0.681641 0.863281
vt 0.742188 0.863281
vt 0.802734 0.863281
vt 0.863281 0.863281
vt 0.923828 0.863281
vt 0.984375 0.863281
vt 0.076172 0.923828
vt 0.015625 0.923828
vt 0.136719 0.923828
vt 0.197266 0.923828
vt 0.257812 0.923828
vt 0.318359 0.923828
vt 0.378906 0.923828
vt 0.439453 0.923828
vt 0.500000 0.923828
vt 0.560547 0.923828
vt 0.621094 0.923828
vt 0.681641 0.923828
vt 0.742188 0.923828
vt 0.802734 0.923828
vt 0.863281 0.923828
vt 0.923828 0.923828
vt 0.984375 0.923828
vt 0.076172 0.984375
vt 0.015625 0.984375
vt 0.136719 0.984375
vt 0.197266 0.984375
vt 0.257812 0.984375
vt 0.318359 0.984375
vt 0.378906 0.984375
vt 0.439453 0.984375
vt 0.500000 0.984375
vt 0.560547 0.984375
vt 0.621094 0.984375
vt 0.681641 0.984375
vt 0.742188 0.984375
vt 0.802734 0.984375
vt 0.863281 0.984375
vt 0.923828 0.984375
vt 0.984375 0.984375
s 1
f 1/1/1 2/2/2 19/3/3
f 1/1/1 19/3/3 18/4/4
f 2/2/2 3/5/5 20/6/6
f 2/2/2 20/6/6 19/3/3
f 3/5/5 4/7/7 21/8/8
f 3/5/5 21/8/8 20/6/6
f 4/7/7 5/9/9 22/10/10
f 4/7/7 22/10/10 21/8/8
f 5/9/9 6/11/11 23/12/12
f 5/9/9 23/12/12 22/10/10
f 6/11/11 7/13/13 24/14/14
f 6/11/11 24/14/14 23/12/12
f 7/13/13 8/15/15 25/16/16
f 7/13/13 25/16/16 24/14/14
f 8/15/15 9/17/17 26/18/18
f 8/15/15 26/18/18 25/16/16
f 9/17/17 10/19/19 27/20/20
f 9/17/17 27/20/20 26/18/18
f 10/19/19 11/21/21 28/22/22
f 10/19/19 28/22/22 27/20/20
f 11/21/21 12/23/23 29/24/24
f 11/21/21 29/24/24 28/22/22
f 12/23/23 13/25/25 30/26/26
f 12/23/23 30/26/26 29/24/24
f 13/25/25 14/27/27 31/28/28
f 13/25/25 31/28/28 30/26/26
f 14/27/27 15/29/29 32/30/30
f 14/27/27 32/30/30 31/28/28
f 15/29/29 16/31/31 33/32/32
f 15/29/29 33/32/32 32/30/30
f 16/31/31 17/33/33 34/34/34
f 16/31/31 34/34/34 33/32/32
f 18/4/4 19/3/3 36/35/35
f 18/4/4 36/35/35 35/36/36
f 19/3/3 20/6/6 37/37/37
f 19/3/3 37/37/37 36/35/35
f 20/6/6 21/8/8 38/38/38
f 20/6/6 38/38/38 37/37/37
f 21/8/8 22/10/10 39/39/39
f 21/8/8 39/39/39 38/38/38
f 22/10/10 23/12/12 40/40/40
f 22/10/10 40/40/40 39/39/39
f 23/12/12 24/14/14 41/41/41
f 23/12/12 41/41/41 40/40/40
f 24/14/14 25/16/16 42/42/42
f 24/14/14 42/42/42 41/41/41
f 25/16/16 26/18/18 43/43/43
f 25/16/16 43/43/43 42/42/42
f 26/18/18 27/20/20 44/44/44
f 26/18/18 44/44/44 43/43/43
f 27/20/20 28/22/22 45/45/45
f 27/20/20 45/45/45 44/44/44
f 28/22/22 29/24/24 46/46/46
f 28/22/22 46/46/46 45/45/45
f 29/24/24 30/26/26 47/47/47
f 29/24/24 47/47/47 46/46/46
f 30/26/26 31/28/28 48/48/48
f 30/26/26 48/48/48 47/47/47
f 31/28/28 32/30/30 49/49/49
f 31/28/28 49/49/49 48/48/48
f 32/30/30 33/32/32 50/50/50
f 32/30/30 50/50/50 49/49/49
f 33/32/32 34/34/34 51/51/51
f 33/32/32 51/51/51 50/50/50
f 35/36/36 36/35/35 53/52/52
f 35/36/36 53/52/52 52/53/53
f 36/35/35 37/37/37 54/54/54
f 36/35/35 54/54/54 53/52/52
f 37/37/37 38/38/38 55/55/55
f 37/37/37 55/55/55 54/54/54
f 38/38/38 39/39/39 56/56/56
f 38/38/38 56/56/56 55/55/55
f 39/39/39 40/40/40 57/57/57
f 39/39/39 57/57/57 56/56/56
f 40/40/40 41/41/41 58/58/58
f 40/40/40 58/58/58 57/57/57
f 41/41/41 42/42/42 59/59/59
f 41/41/41 59/59/59 58/58/58
f 42/42/42 43/43/43 60/60/60
f 42/42/42 60/60/60 59/59/59
f 43/43/43 44/44/44 61/61/61
f 43/43/43 61/61/61 60/60/60
f 44/44/44 45/45/45 62/62/62
f 44/44/44 62/62/62 61/61/61
f 45/45/45 46/46/46 63/63/63
f 45/45/45 63/63/63 62/62/62
f 46/46/46 47/47/47 64/64/64
f 46/46/46 64/64/64 63/63/63
f 47/47/47 48/48/48 65/65/65
f 47/47/47 65/65/65 64/64/64
f 48/48/48 49/49/49 66/66/66
f 48/48/48 66/66/66 65/65/65
f 49/49/49 50/50/50 67/67/67
f 49/49/49 67/67/67 66/66/66
f 50/50/50 51/51/51 68/68/68
f 50/50/50 68/68/68 67/67/67
f 52/53/53 53/52/52 70/69/69
f 52/53/53 70/69/69 69/70/70
f 53/52/52 54/54/54 71/71/71
f 53/52/52 71/71/71 70/69/69
f 54/54/54 55/55/55 72/72/72
f 54/54/54 72/72/72 71/71/71
f 55/55/55 56/56/56 73/73/73
f 55/55/55 73/73/73 72/72/72
f 56/56/56 57/57/57 74/74/74
f 56/56/56 74/74/74 73/73/73
f 57/57/57 58/58/58 75/75/75
f 57/57/57 75/75/75 74/74/74
f 58/58/58 59/59/59 76/76/76
f 58/58/58 76/76/76 75/75/75
f 59/59/59 60/60/60 77/77/77
f 59/59/59 77/77/77 76/76/76
f 60/60/60 61/61/61 78/78/78
f 60/60/60 78/78/78 77/77/77
f 61/61/61 62/62/62 79/79/79
f 61/61/61 79/79/79 78/78/78
f 62/62/62 63/63/63 80/80/80
f 62/62/62 80/80/80 79/79/79
f 63/63/63 64/64/64 81/81/81
f 63/63/63 81/81/81 80/80/80
f 64/64/64 65/65/65 82/82/82
f 64/64/64 82/82/82 81/81/81
f 65/65/65 66/66/66 83/83/83
f 65/65/65 83/83/83 82/82/82
f 66/66/66 67/67/67 84/84/84
f 66/66/66 84/84/84 83/83/83
f 67/67/67 68/68/68 85/85/85
f 67/67/67 85/85/85 84/84/84
f 69/70/70 70/69/69 87/86/86
f 69/70/70 87/86/86 86/87/87
f 70/69/69 71/71/71 88/88/88
f 70/69/69 88/88/88 87/86/86
f 71/71/71 72/72/72 89/89/89
f 71/71/71 89/89/89 88/88/88
f 72/72/72 73/73/73 90/90/90
f 72/72/72 90/90/90 89/89/89
f 73/73/73 74/74/74 91/91/91
f 73/73/73 91/91/91 90/90/90
f 74/74/74 75/75/75 92/92/92
f 74/74/74 92/92/92 91/91/91
f 75/75/75 76/76/76 93/93/93
f 75/75/75 93/93/93 92/92/92
f 76/76/76 77/77/77 94/94/94
f 76/76/76 94/94/94 93/93/93
f 77/77/77 78/78/78 95/95/95
f 77/77/77 95/95/95 94/94/94
f 78/78/78 79/79/79 96/96/96
f 78/78/78 96/96/96 95/95/95
f 79/79/79 80/80/80 97/97/97
f 79/79/79 97/97/97 96/96/96
f 80/80/80 81/81/81 98/98/98
f 80/80/80 98/98/98 97/97/97
f 81/81/81 82/82/82 99/99/99
f 81/81/81 99/99/99 98/98/98
f 82/82/82 83/83/83 100/100/100
f 82/82/82 100/100/100 99/99/99
f 83/83/83 84/84/84 101/101/101
f 83/83/83 101/101/101 100/100/100
f 84/84/84 85/85/85 102/102/102
f 84/84/84 102/102/102 101/101/101
f 86/87/87 87/86/86 104/103/103
f 86/87/87 104/103/103 103/104/104
f 87/86/86 88/88/88 105/105/105
f 87/86/86 105/105/105 104/103/103
f 88/88/88 89/89/89 106/106/106
f 88/88/88 106/106/106 105/105/105
f 89/89/89 90/90/90 107/107/107
f 89/89/89 107/107/107 106/106/106
f 90/90/90 91/91/91 108/108/108
f 90/90/90 108/108/108 107/107/107
f 91/91/91 92/92/92 109/109/109
f 91/91/91 109/109/109 108/108/108
f 92/92/92 93/93/93 110/110/110
f 92/92/92 110/110/110 109/109/109
f 93/93/93 94/94/94 111/111/111
f 93/93/93 111/111/111 110/110/110
f 94/94/94 95/95/95 112/112/112
f 94/94/94 112/112/112 111/111/111
f 95/95/95 96/96/96 113/113/113
f 95/95/95 113/113/113 112/112/112
f 96/96/96 97/97/97 114/114/114
f 96/96/96 114/114/114 113/113/113
f 97/97/97 98/98/98 115/115/115
f 97/97/97 115/115/115 114/114/114
f 98/98/98 99/99/99 116/116/116
f 98/98/98 116/116/116 115/115/115
f 99/99/99 100/100/100 117/117/117
f 99/99/99 117/117/117 116/116/116
f 100/100/100 101/101/101 118/118/118
f 100/100/100 118/118/118 117/117/117
f 101/101/101 102/102/102 119/119/119
f 101/101/101 119/119/119 118/118/118
f 103/104/104 104/103/103 121/120/120
f 103/104/104 121/120/120 120/121/121
f 104/103/103 105/105/105 122/122/122
f 104/103/103 122/122/122 121/120/120
f 105/105/105 106/106/106 123/123/123
f 105/105/105 123/123/123 122/122/122
f 106/106/106 107/107/107 124/124/124
f 106/106/106 124/124/124 123/123/123
f 107/107/107 108/108/108 125/125/125
f 107/107/107 125/125/125 124/124/124
f 108/108/108 109/109/109 126/126/126
f 108/108/108 126/126/126 125/125/125
f 109/109/109 110/110/110 127/127/127
f 109/109/109 127/127/127 126/126/126
f 110/110/110 111/111/111 128/128/128
f 110/110/110 128/128/128 127/127/127
f 111/111/111 112/112/112 129/129/129
f 111/111/111 129/129/129 128/128/128
f 112/112/112 113/113/113 130/130/130
f 112/112/112 130/130/130 129/129/129
f 113/113/113 114/114/114 131/131/131
f 113/113/113 131/131/131 130/130/130
f 114/114/114 115/115/115 132/132/132
f 114/114/114 132/132/132 131/131/131
f 115/115/115 116/116/116 133/133/133
f 115/115/115 133/133/133 132/132/132
f 116/116/116 117/117/117 134/134/134
f 116/116/116 134/134/134 133/133/133
f 117/117/117 118/118/118 135/135/135
f 117/117/117 135/135/135 134/134/134
f 118/118/118 119/119/119 136/136/136
f 118/118/118 136/136/136 135/135/135
f 120/121/121 121/120/120 138/137/137
f 120/121/121 138/137/137 137/138/138
f 121/120/120 122/122/122 139/139/139
f 121/120/120 139/139/139 138/137/137
f 122/122/122 123/123/123 140/140/140
f 122/122/122 140/140/140 139/139/139
f 123/123/123 124/124/124 141/141/141
f 123/123/123 141/141/141 140/140/140
f 124/124/124 125/125/125 142/142/142
f 124/124/124 142/142/142 141/141/141
f 125/125/125 126/126/126 143/143/143
f 125/125/125 143/143/143 142/142/142
f 126/126/126 127/127/127 144/144/144
f 126/126/126 144/144/144 143/143/143
f 127/127/127 128/128/128 145/145/145
f 127/127/127 145/145/145 144/144/144
f 128/128/128 129/129/129 146/146/146
f 128/128/128 146/146/146 145/145/145
f 129/129/129 130/130/130 147/147/147
f 129/129/129 147/147/147 146/146/146
f 130/130/130 131/131/131 148/148/148
f 130/130/130 148/148/148 147/147/147
f 131/131/131 132/132/132 149/149/149
f 131/131/131 149/149/149 148/148/148
f 132/132/132 133/133/133 150/150/150
f 132/132/132 150/150/150 149/149/149
f 133/133/133 134/134/134 151/151/151
f 133/133/133 151/151/151 150/150/150
f 134/134/134 135/135/135 152/152/152
f 134/134/134 152/152/152 151/151/151
f 135/135/135 136/136/136 153/153/153
f 135/135/135 153/153/153 152/152/152
f 137/138/138 138/137/137 155/154/154
f 137/138/138 155/154/154 154/155/155
f 138/137/137 139/139/139 156/156/156
f 138/137/137 156/156/156 155/154/154
f 139/139/139 140/140/140 157/157/157
f 139/139/139 157/157/157 156/156/156
f 140/140/140 141/141/141 158/158/158
f 140/140/140 158/158/158 157/157/157
f 141/141/141 142/142/142 159/159/159
f 141/141/141 159/159/159 158/158/158
f 142/142/142 143/143/143 160/160/160
f 142/142/142 160/160/160 159/159/159
f 143/143/143 144/144/144 161/161/161
f 143/143/143 161/161/161 160/160/160
f 144/144/144 145/145/145 162/162/162
f 144/144/144 162/162/162 161/161/161
f 145/145/145 146/146/146 163/163/163
f 145/145/145 163/163/163 162/162/162
f 146/146/146 147/147/147 164/164/164
f 146/146/146 164/164/164 163/163/163
f 147/147/147 148/148/148 165/165/165
f 147/147/147 165/165/165 164/164/164
f 148/148/148 149/149/149 166/166/166
f 148/148/148 166/166/166 165/165/165
f 149/149/149 150/150/150 167/167/167
f 149/149/149 167/167/167 166/166/166
f 150/150/150 151/151/151 168/168/168
f 150/150/150 168/168/168 167/167/167
f 151/151/151 152/152/152 169/169/169
f 151/151/151 169/169/169 168/168/168
f 152/152/152 153/153/153 170/170/170
f 152/152/152 170/170/170 169/169/169
f 154/155/155 155/154/154 172/171/171
f 154/155/155 172/171/171 171/172/172
f 155/154/154 156/156/156 173/173/173
f 155/154/154 173/173/173 172/171/171
f 156/156/156 157/157/157 174/174/174
f 156/156/156 174/174/174 173/173/173
f 157/157/157 158/158/158 175/175/175
f 157/157/157 175/175/175 174/174/174
f 158/158/158 159/159/159 176/176/176
f 158/158/158 176/176/176 175/175/175
f 159/159/159 160/160/160 177/177/177
f 159/159/159 177/177/177 176/176/176
f 160/160/160 161/161/161 178/178/178
f 160/160/160 178/178/178 177/177/177
f 161/161/161 162/162/162 179/179/179
f 161/161/161 179/179/179 178/178/178
f 162/162/162 163/163/163 180/180/180
f 162/162/162 180/180/180 179/179/179
f 163/163/163 164/164/164 181/181/181
f 163/163/163 181/181/181 180/180/180
f 164/164/164 165/165/165 182/182/182
f 164/164/164 182/182/182 181/181/181
f 165/165/165 166/166/166 183/183/183
f 165/165/165 183/183/183 182/182/182
f 166/166/166 167/167/167 184/184/184
f 166/166/166 184/184/184 183/183/183
f 167/167/167 168/168/168 185/185/185
f 167/167/167 185/185/185 184/184/184
f 168/168/168 169/169/169 186/186/186
f 168/168/168 186/186/186 185/185/185
f 169/169/169 170/170/170 187/187/187
f 169/169/169 187/187/187 186/186/186
f 171/172/172 172/171/171 189/188/188
f 171/172/172 189/188/188 188/189/189
f 172/171/171 173/173/173 190/190/190
f 172/171/171 190/190/190 189/188/188
f 173/173/173 174/174/174 191/191/191
f 173/173/173 191/191/191 190/190/190
f 174/174/174 175/175/175 192/192/192
f 174/174/174 192/192/192 191/191/191
f 175/175/175 176/176/176 193/193/193
f 175/175/175 193/193/193 192/192/192
f 176/176/176 177/177/177 194/194/194
f 176/176/176 194/194/194 193/193/193
f 177/177/177 178/178/178 195/195/195
f 177/177/177 195/195/195 194/194/194
f 178/178/178 179/179/179 196/196/196
f 178/178/178 196/196/196 195/195/195
f 179/179/179 180/180/180 197/197/197
f 179/179/179 197/197/197 196/196/196
f 180/180/180 181/181/181 198/198/198
f 180/180/180 198/198/198 197/197/197
f 181/181/181 182/182/182 199/199/199
f 181/181/181 199/199/199 198/198/198
f 182/182/182 183/183/183 200/200/200
f 182/182/182 200/200/200 199/199/199
f 183/183/183 184/184/184 201/201/201
f 183/183/183 201/201/201 200/200/200
f 184/184/184 185/185/185 202/202/202
f 184/184/184 202/202/202 201/201/201
f 185/185/185 186/186/186 203/203/203
f 185/185/185 203/203/203 202/202/202
f 186/186/186 187/187/187 204/204/204
f 186/186/186 204/204/204 203/203/203
f 188/189/189 189/188/188 206/205/205
f 188/189/189 206/205/205 205/206/206
f 189/188/188 190/190/190 207/207/207
f 189/188/188 207/207/207 206/205/205
f 190/190/190 191/191/191 208/208/208
f 190/190/190 208/208/208 207/207/207
f 191/191/191 192/192/192 209/209/209
f 191/191/191 209/209/209 208/208/208
f 192/192/192 193/193/193 210/210/210
f 192/192/192 210/210/210 209/209/209
f 193/193/193 194/194/194 211/211/211
f 193/193/193 211/211/211 210/210/210
f 194/194/194 195/195/195 212/212/212
f 194/194/194 212/212/212 211/211/211
f 195/195/195 196/196/196 213/213/213
f 195/195/195 213/213/213 212/212/212
f 196/196/196 197/197/197 214/214/214
f 196/196/196 214/214/214 213/213/213
f 197/197/197 198/198/198 215/215/215
f 197/197/197 215/215/215 214/214/214
f 198/198/198 199/199/199 216/216/216
f 198/198/198 216/216/216 215/215/215
f 199/199/199 200/200/200 217/217/217
f 199/199/199 217/217/217 216/216/216
f 200/200/200 201/201/201 218/218/218
f 200/200/200 218/218/218 217/217/217
f 201/201/201 202/202/202 219/219/219
f 201/201/201 219/219/219 218/218/218
f 202/202/202 203/203/203 220/220/220
f 202/202/202 220/220/220 219/219/219
f 203/203/203 204/204/204 221/221/221
f 203/203/203 221/221/221 220/220/220
f 205/206/206 206/205/205 223/222/222
f 205/206/206 223/222/222 222/223/223
f 206/205/205 207/207/207 224/224/224
f 206/205/205 224/224/224 223/222/222
f 207/207/207 208/208/208 225/225/225
f 207/207/207 225/225/225 224/224/224
f 208/208/208 209/209/209 226/226/226
f 208/208/208 226/226/226 225/225/225
f 209/209/209 210/210/210 227/227/227
f 209/209/209 227/227/227 226/226/226
f 210/210/210 211/211/211 228/228/228
f 210/210/210 228/228/228 227/227/227
f 211/211/211 212/212/212 229/229/229
f 211/211/211 229/229/229 228/228/228
f 212/212/212 213/213/213 230/230/230
f 212/212/212 230/230/230 229/229/229
f 213/213/213 214/214/214 231/231/231
f 213/213/213 231/231/231 230/230/230
f 214/214/214 215/215/215 232/232/232
f 214/214/214 232/232/232 231/231/231
f 215/215/215 216/216/216 233/233/233
f 215/215/215 233/233/233 232/232/232
f 216/216/216 217/217/217 234/234/234
f 216/216/216 234/234/234 233/233/233
f 217/217/217 218/218/218 235/235/235
f 217/217/217 235/235/235 234/234/234
f 218/218/218 219/219/219 236/236/236
f 218/218/218 236/236/236 235/235/235
f 219/219/219 220/220/220 237/237/237
f 219/219/219 237/237/237 236/236/236
f 220/220/220 221/221/221 238/238/238
f 220/220/220 238/238/238 237/237/237
f 222/223/223 223/222/222 240/239/239
f 222/223/223 240/239/239 239/240/240
f 223/222/222 224/224/224 241/241/241
f 223/222/222 241/241/241 240/239/239
f 224/224/224 225/225/225 242/242/242
f 224/224/224 242/242/242 241/241/241
f 225/225/225 226/226/226 243/243/243
f 225/225/225 243/243/243 242/242/242
f 226/226/226 227/227/227 244/244/244
f 226/226/226 244/244/244 243/243/243
f 227/227/227 228/228/228 245/245/245
f 227/227/227 245/245/245 244/244/244
f 228/228/228 229/229/229 246/246/246
f 228/228/228 246/246/246 245/245/245
f 229/229/229 230/230/230 247/247/247
f 229/229/229 247/247/247 246/246/246
f 230/230/230 231/231/231 248/248/248
f 230/230/230 248/248/248 247/247/247
f 231/231/231 232/232/232 249/249/249
f 231/231/231 249/249/249 248/248/248
f 232/232/232 233/233/233 250/250/250
f 232/232/232 250/250/250 249/249/249
f 233/233/233 234/234/234 251/251/251
f 233/233/233 251/251/251 250/250/250
f 234/234/234 235/235/235 252/252/252
f 234/234/234 252/252/252 251/251/251
f 235/235/235 236/236/236 253/253/253
f 235/235/235 253/253/253 252/252/252
f 236/236/236 237/237/237 254/254/254
f 236/236/236 254/254/254 253/253/253
f 237/237/237 238/238/238 255/255/255
f 237/237/237 255/255/255 254/254/254
f 239/240/240 240/239/239 257/256/256
f 239/240/240 257/256/256 256/257/257
f 240/239/239 241/241/241 258/258/258
f 240/239/239 258/258/258 257/256/256
f 241/241/241 242/242/242 259/259/259
f 241/241/241 259/259/259 258/258/258
f 242/242/242 243/243/243 260/260/260
f 242/242/242 260/260/260 259/259/259
f 243/243/243 244/244/244 261/261/261
f 243/243/243 261/261/261 260/260/260
f 244/244/244 245/245/245 262/262/262
f 244/244/244 262/262/262 261/261/261
f 245/245/245 246/246/246 263/263/263
f 245/245/245 263/263/263 262/262/262
f 246/246/246 247/247/247 264/264/264
f 246/246/246 264/264/264 263/263/263
f 247/247/247 248/248/248 265/265/265
f 247/247/247 265/265/265 264/264/264
f 248/248/248 249/249/249 266/266/266
f 248/248/248 266/266/266 265/265/265
f 249/249/249 250/250/250 267/267/267
f 249/249/249 267/267/267 266/266/266
f 250/250/250 251/251/251 268/268/268
f 250/250/250 268/268/268 267/267/267
f 251/251/251 252/252/252 269/269/269
f 251/251/251 269/269/269 268/268/268
f 252/252/252 253/253/253 270/270/270
f 252/252/252 270/270/270 269/269/269
f 253/253/253 254/254/254 271/271/271
f 253/253/253 271/271/271 270/270/270
f 254/254/254 255/255/255 272/272/272
f 254/254/254 272/272/272 271/271/271
f 256/257/257 257/256/256 274/273/273
f 256/257/257 274/273/273 273/274/274
f 257/256/256 258/258/258 275/275/275
f 257/256/256 275/275/275 274/273/273
f 258/258/258 259/259/259 276/276/276
f 258/258/258 276/276/276 275/275/275
f 259/259/259 260/260/260 277/277/277
f 259/259/259 277/277/277 276/276/276
f 260/260/260 261/261/261 278/278/278
f 260/260/260 278/278/278 277/277/277
f 261/261/261 262/262/262 279/279/279
f 261/261/261 279/279/279 278/278/278
f 262/262/262 263/263/263 280/280/280
f 262/262/262 280/280/280 279/279/279
f 263/263/263 264/264/264 281/281/281
f 263/263/263 281/281/281 280/280/280
f 264/264/264 265/265/265 282/282/282
f 264/264/264 282/282/282 281/281/281
f 265/265/265 266/266/266 283/283/283
f 265/265/265 283/283/283 282/282/282
f 266/266/266 267/267/267 284/284/284
f 266/266/266 284/284/284 283/283/283
f 267/267/267 268/268/268 285/285/285
f 267/267/267 285/285/285 284/284/284
f 268/268/268 269/269/269 286/286/286
f 268/268/268 286/286/286 285/285/285
f 269/269/269 270/270/270 287/287/287
f 269/269/269 287/287/287 286/286/286
f 270/270/270 271/271/271 288/288/288
f 270/270/270 288/288/288 287/287/287
f 271/271/271 272/272/272 289/289/289
f 271/271/271 289/289/289 288/288/288
