mtllib terrain_far_00_04.mtl
usemtl terrain_far_00_04
# Blender 5.1.1
# www.blender.org
o terrain_far_00_04
v -320.000000 -320.000000 -67.571686
v -280.000000 -320.000000 -56.804596
v -240.000000 -320.000000 -46.691566
v -200.000000 -320.000000 -40.183384
v -160.000000 -320.000000 -34.125004
v -120.000000 -320.000000 -30.027424
v -80.000000 -320.000000 -28.803974
v -40.000000 -320.000000 -31.218508
v 0.000000 -320.000000 -31.557167
v 40.000000 -320.000000 -34.996532
v 80.000000 -320.000000 -41.655609
v 120.000000 -320.000000 -48.265293
v 160.000000 -320.000000 -54.885883
v 200.000000 -320.000000 -60.225960
v 240.000000 -320.000000 -65.808479
v 280.000000 -320.000000 -69.487915
v 320.000000 -320.000000 -69.031799
v -320.000000 -280.000000 -62.401562
v -280.000000 -280.000000 -53.185852
v -240.000000 -280.000000 -47.348442
v -200.000000 -280.000000 -41.093567
v -160.000000 -280.000000 -33.710964
v -120.000000 -280.000000 -29.221237
v -80.000000 -280.000000 -28.906506
v -40.000000 -280.000000 -31.804811
v 0.000000 -280.000000 -34.393917
v 40.000000 -280.000000 -40.998764
v 80.000000 -280.000000 -48.758152
v 120.000000 -280.000000 -54.477097
v 160.000000 -280.000000 -59.310081
v 200.000000 -280.000000 -60.990173
v 240.000000 -280.000000 -59.705532
v 280.000000 -280.000000 -55.909473
v 320.000000 -280.000000 -53.962212
v -320.000000 -240.000000 -61.842655
v -280.000000 -240.000000 -54.841030
v -240.000000 -240.000000 -47.846233
v -200.000000 -240.000000 -40.147461
v -160.000000 -240.000000 -30.663162
v -120.000000 -240.000000 -26.774836
v -80.000000 -240.000000 -28.055239
v -40.000000 -240.000000 -30.107851
v 0.000000 -240.000000 -34.571098
v 40.000000 -240.000000 -43.964169
v 80.000000 -240.000000 -48.774330
v 120.000000 -240.000000 -50.888233
v 160.000000 -240.000000 -50.825726
v 200.000000 -240.000000 -47.076138
v 240.000000 -240.000000 -42.611439
v 280.000000 -240.000000 -37.464138
v 320.000000 -240.000000 -35.832172
v -320.000000 -200.000000 -60.871361
v -280.000000 -200.000000 -55.385792
v -240.000000 -200.000000 -47.558762
v -200.000000 -200.000000 -38.046566
v -160.000000 -200.000000 -27.339258
v -120.000000 -200.000000 -24.642155
v -80.000000 -200.000000 -26.182436
v -40.000000 -200.000000 -28.768818
v 0.000000 -200.000000 -32.947296
v 40.000000 -200.000000 -39.410366
v 80.000000 -200.000000 -42.301472
v 120.000000 -200.000000 -41.241745
v 160.000000 -200.000000 -36.571484
v 200.000000 -200.000000 -30.475620
v 240.000000 -200.000000 -25.105385
v 280.000000 -200.000000 -20.593494
v 320.000000 -200.000000 -19.007502
v -320.000000 -160.000000 -58.178288
v -280.000000 -160.000000 -54.333916
v -240.000000 -160.000000 -46.879448
v -200.000000 -160.000000 -37.596214
v -160.000000 -160.000000 -26.394608
v -120.000000 -160.000000 -22.828079
v -80.000000 -160.000000 -23.176613
v -40.000000 -160.000000 -23.775589
v 0.000000 -160.000000 -26.946623
v 40.000000 -160.000000 -32.238148
v 80.000000 -160.000000 -32.597008
v 120.000000 -160.000000 -28.349140
v 160.000000 -160.000000 -21.545670
v 200.000000 -160.000000 -14.306334
v 240.000000 -160.000000 -8.564020
v 280.000000 -160.000000 -5.055652
v 320.000000 -160.000000 -3.650466
v -320.000000 -120.000000 -53.208195
v -280.000000 -120.000000 -49.066116
v -240.000000 -120.000000 -43.922951
v -200.000000 -120.000000 -35.212433
v -160.000000 -120.000000 -24.321968
v -120.000000 -120.000000 -20.058445
v -80.000000 -120.000000 -17.640453
v -40.000000 -120.000000 -15.464397
v 0.000000 -120.000000 -19.287287
v 40.000000 -120.000000 -23.977253
v 80.000000 -120.000000 -20.115049
v 120.000000 -120.000000 -13.516868
v 160.000000 -120.000000 -5.970087
v 200.000000 -120.000000 1.668493
v 240.000000 -120.000000 7.358621
v 280.000000 -120.000000 9.413078
v 320.000000 -120.000000 9.233248
v -320.000000 -80.000000 -51.756863
v -280.000000 -80.000000 -45.332653
v -240.000000 -80.000000 -39.741493
v -200.000000 -80.000000 -32.253464
v -160.000000 -80.000000 -22.531475
v -120.000000 -80.000000 -16.815468
v -80.000000 -80.000000 -11.597328
v -40.000000 -80.000000 -6.597624
v 0.000000 -80.000000 -10.948650
v 40.000000 -80.000000 -13.806418
v 80.000000 -80.000000 -7.340021
v 120.000000 -80.000000 0.822739
v 160.000000 -80.000000 8.847078
v 200.000000 -80.000000 17.010769
v 240.000000 -80.000000 23.303604
v 280.000000 -80.000000 25.340897
v 320.000000 -80.000000 22.745663
v -320.000000 -40.000000 -47.395813
v -280.000000 -40.000000 -39.796436
v -240.000000 -40.000000 -32.914467
v -200.000000 -40.000000 -28.452108
v -160.000000 -40.000000 -20.122766
v -120.000000 -40.000000 -11.431618
v -80.000000 -40.000000 -4.930252
v -40.000000 -40.000000 1.258293
v 0.000000 -40.000000 -2.076183
v 40.000000 -40.000000 -4.102164
v 80.000000 -40.000000 3.584129
v 120.000000 -40.000000 13.719817
v 160.000000 -40.000000 22.555447
v 200.000000 -40.000000 31.382025
v 240.000000 -40.000000 39.168072
v 280.000000 -40.000000 42.793915
v 320.000000 -40.000000 38.201523
v -320.000000 0.000000 -39.826035
v -280.000000 0.000000 -31.201536
v -240.000000 0.000000 -23.403641
v -200.000000 0.000000 -17.913996
v -160.000000 0.000000 -13.632726
v -120.000000 0.000000 -5.538454
v -80.000000 0.000000 2.163132
v -40.000000 0.000000 8.001148
v 0.000000 0.000000 7.017472
v 40.000000 0.000000 5.966982
v 80.000000 0.000000 12.332626
v 120.000000 0.000000 22.859730
v 160.000000 0.000000 33.243229
v 200.000000 0.000000 42.806831
v 240.000000 0.000000 50.904106
v 280.000000 0.000000 54.194794
v 320.000000 0.000000 50.151104
v -320.000000 40.000000 -34.277367
v -280.000000 40.000000 -23.570625
v -240.000000 40.000000 -14.218992
v -200.000000 40.000000 -9.657150
v -160.000000 40.000000 -5.121970
v -120.000000 40.000000 0.918242
v -80.000000 40.000000 7.266085
v -40.000000 40.000000 13.232862
v 0.000000 40.000000 14.732332
v 40.000000 40.000000 18.377491
v 80.000000 40.000000 23.814098
v 120.000000 40.000000 31.755199
v 160.000000 40.000000 42.544563
v 200.000000 40.000000 51.667110
v 240.000000 40.000000 58.047153
v 280.000000 40.000000 59.347958
v 320.000000 40.000000 55.255154
v -320.000000 80.000000 -32.021488
v -280.000000 80.000000 -20.117422
v -240.000000 80.000000 -9.359905
v -200.000000 80.000000 -1.674603
v -160.000000 80.000000 5.805171
v -120.000000 80.000000 10.542798
v -80.000000 80.000000 13.123605
v -40.000000 80.000000 16.898640
v 0.000000 80.000000 20.688147
v 40.000000 80.000000 27.965330
v 80.000000 80.000000 36.843204
v 120.000000 80.000000 43.481697
v 160.000000 80.000000 52.204441
v 200.000000 80.000000 59.925919
v 240.000000 80.000000 64.140694
v 280.000000 80.000000 62.926132
v 320.000000 80.000000 56.766434
v -320.000000 120.000000 -29.645168
v -280.000000 120.000000 -18.663101
v -240.000000 120.000000 -6.608698
v -200.000000 120.000000 4.554541
v -160.000000 120.000000 15.271802
v -120.000000 120.000000 19.543934
v -80.000000 120.000000 19.808901
v -40.000000 120.000000 21.635649
v 0.000000 120.000000 25.946875
v 40.000000 120.000000 32.617069
v 80.000000 120.000000 42.805950
v 120.000000 120.000000 50.429974
v 160.000000 120.000000 56.909061
v 200.000000 120.000000 63.810852
v 240.000000 120.000000 68.833130
v 280.000000 120.000000 66.824402
v 320.000000 120.000000 57.531620
v -320.000000 160.000000 -25.510839
v -280.000000 160.000000 -16.140785
v -240.000000 160.000000 -4.572341
v -200.000000 160.000000 6.958878
v -160.000000 160.000000 19.272711
v -120.000000 160.000000 25.628145
v -80.000000 160.000000 26.154507
v -40.000000 160.000000 28.301298
v 0.000000 160.000000 33.082882
v 40.000000 160.000000 37.146782
v 80.000000 160.000000 42.765419
v 120.000000 160.000000 47.479546
v 160.000000 160.000000 53.629036
v 200.000000 160.000000 62.992680
v 240.000000 160.000000 70.810089
v 280.000000 160.000000 70.794579
v 320.000000 160.000000 61.032330
v -320.000000 200.000000 -21.964651
v -280.000000 200.000000 -13.964859
v -240.000000 200.000000 -2.979799
v -200.000000 200.000000 7.925566
v -160.000000 200.000000 18.746164
v -120.000000 200.000000 25.823910
v -80.000000 200.000000 30.221600
v -40.000000 200.000000 34.976418
v 0.000000 200.000000 38.530445
v 40.000000 200.000000 37.550819
v 80.000000 200.000000 37.705662
v 120.000000 200.000000 40.371712
v 160.000000 200.000000 50.474148
v 200.000000 200.000000 62.897610
v 240.000000 200.000000 72.629570
v 280.000000 200.000000 73.516823
v 320.000000 200.000000 63.744495
v -320.000000 240.000000 -21.719315
v -280.000000 240.000000 -14.628036
v -240.000000 240.000000 -3.301074
v -200.000000 240.000000 6.331026
v -160.000000 240.000000 16.582495
v -120.000000 240.000000 25.800678
v -80.000000 240.000000 33.040714
v -40.000000 240.000000 37.434849
v 0.000000 240.000000 35.730022
v 40.000000 240.000000 30.983665
v 80.000000 240.000000 28.945475
v 120.000000 240.000000 32.871536
v 160.000000 240.000000 47.411163
v 200.000000 240.000000 60.489445
v 240.000000 240.000000 70.569908
v 280.000000 240.000000 71.592056
v 320.000000 240.000000 61.931370
v -320.000000 280.000000 -17.620043
v -280.000000 280.000000 -14.292221
v -240.000000 280.000000 -4.238947
v -200.000000 280.000000 6.134476
v -160.000000 280.000000 18.345116
v -120.000000 280.000000 29.300831
v -80.000000 280.000000 36.243332
v -40.000000 280.000000 35.798325
v 0.000000 280.000000 29.095888
v 40.000000 280.000000 23.413305
v 80.000000 280.000000 19.351547
v 120.000000 280.000000 24.886013
v 160.000000 280.000000 40.455742
v 200.000000 280.000000 55.136246
v 240.000000 280.000000 65.225548
v 280.000000 280.000000 65.517441
v 320.000000 280.000000 56.889782
v -320.000000 320.000000 -9.010120
v -280.000000 320.000000 -9.818520
v -240.000000 320.000000 -1.607945
v -200.000000 320.000000 10.136931
v -160.000000 320.000000 24.166845
v -120.000000 320.000000 33.155411
v -80.000000 320.000000 36.343327
v -40.000000 320.000000 33.614445
v 0.000000 320.000000 24.452194
v 40.000000 320.000000 13.992804
v 80.000000 320.000000 9.632995
v 120.000000 320.000000 16.124887
v 160.000000 320.000000 30.970335
v 200.000000 320.000000 45.743561
v 240.000000 320.000000 56.379917
v 280.000000 320.000000 57.672737
v 320.000000 320.000000 50.296516
vn -0.2070 -0.1009 0.9731
vn -0.2570 -0.0761 0.9634
vn -0.1788 -0.0241 0.9836
vn -0.2289 -0.0751 0.9705
vn -0.2034 0.0153 0.9790
vn -0.1494 0.0143 0.9887
vn -0.1551 0.0261 0.9875
vn -0.1681 -0.0005 0.9858
vn -0.1259 -0.0154 0.9919
vn -0.1467 -0.0428 0.9883
vn -0.0663 -0.0413 0.9969
vn -0.0598 -0.0406 0.9974
vn 0.0149 -0.0194 0.9997
vn 0.0323 -0.0094 0.9994
vn 0.0344 0.0472 0.9983
vn 0.0684 -0.0138 0.9976
vn 0.0469 0.1116 0.9926
vn 0.1141 0.0375 0.9928
vn 0.1237 0.1557 0.9800
vn 0.1757 0.1097 0.9783
vn 0.1615 0.1606 0.9737
vn 0.1655 0.0874 0.9823
vn 0.1613 0.1509 0.9753
vn 0.1307 0.0325 0.9909
vn 0.1462 0.1469 0.9783
vn 0.0810 -0.0505 0.9954
vn 0.1344 0.1152 0.9842
vn 0.0049 -0.1622 0.9867
vn 0.1150 0.0201 0.9932
vn -0.0609 -0.2780 0.9587
vn 0.0399 -0.1352 0.9900
vn -0.0665 -0.3708 0.9263
vn -0.0690 -0.2421 0.9678
vn -0.0386 -0.3830 0.9229
vn -0.1723 0.0271 0.9847
vn -0.1729 -0.0144 0.9848
vn -0.1807 0.0026 0.9835
vn -0.2098 -0.0372 0.9770
vn -0.1643 -0.0783 0.9833
vn -0.0326 -0.0572 0.9978
vn 0.0416 -0.0340 0.9986
vn 0.0812 -0.0378 0.9960
vn 0.1706 -0.0178 0.9852
vn 0.1748 -0.0195 0.9844
vn 0.0860 -0.0801 0.9931
vn 0.0253 -0.1632 0.9863
vn -0.0458 -0.2731 0.9609
vn -0.0956 -0.3547 0.9301
vn -0.1096 -0.3946 0.9123
vn -0.0772 -0.4027 0.9121
vn 0.0141 -0.4003 0.9163
vn -0.1623 -0.0063 0.9867
vn -0.1517 -0.0393 0.9876
vn -0.2118 -0.0118 0.9772
vn -0.2449 -0.0309 0.9690
vn -0.1650 -0.0526 0.9849
vn -0.0145 -0.0493 0.9987
vn 0.0514 -0.0608 0.9968
vn 0.0840 -0.0786 0.9934
vn 0.1312 -0.0941 0.9869
vn 0.1149 -0.1441 0.9829
vn 0.0224 -0.1982 0.9799
vn -0.0688 -0.2705 0.9602
vn -0.1252 -0.3411 0.9317
vn -0.1315 -0.3758 0.9173
vn -0.1129 -0.3891 0.9142
vn -0.0705 -0.3746 0.9245
vn 0.0255 -0.3731 0.9274
vn -0.1452 -0.0779 0.9863
vn -0.1484 -0.0951 0.9844
vn -0.2045 -0.0444 0.9779
vn -0.2479 -0.0343 0.9682
vn -0.1814 -0.0371 0.9827
vn -0.0401 -0.0572 0.9976
vn 0.0118 -0.1062 0.9943
vn 0.0464 -0.1638 0.9854
vn 0.1037 -0.1674 0.9804
vn 0.0692 -0.1890 0.9795
vn -0.0468 -0.2669 0.9626
vn -0.1294 -0.3247 0.9369
vn -0.1617 -0.3526 0.9217
vn -0.1489 -0.3687 0.9176
vn -0.1065 -0.3739 0.9213
vn -0.0574 -0.3506 0.9348
vn 0.0251 -0.3328 0.9427
vn -0.1120 -0.1111 0.9875
vn -0.1714 -0.0839 0.9816
vn -0.1700 -0.0876 0.9815
vn -0.2375 -0.0647 0.9692
vn -0.1859 -0.0474 0.9814
vn -0.0830 -0.0747 0.9937
vn -0.0568 -0.1431 0.9881
vn 0.0202 -0.2099 0.9775
vn 0.1038 -0.1951 0.9753
vn 0.0101 -0.2245 0.9744
vn -0.1237 -0.2988 0.9463
vn -0.1639 -0.3379 0.9268
vn -0.1748 -0.3497 0.9204
vn -0.1535 -0.3604 0.9201
vn -0.0895 -0.3687 0.9252
vn -0.0219 -0.3551 0.9346
vn 0.0367 -0.3131 0.9490
vn -0.1484 -0.1138 0.9824
vn -0.1983 -0.0643 0.9780
vn -0.1599 -0.1345 0.9779
vn -0.2096 -0.0823 0.9743
vn -0.1892 -0.0515 0.9806
vn -0.1346 -0.1062 0.9852
vn -0.1251 -0.1557 0.9799
vn -0.0079 -0.2046 0.9788
vn 0.0878 -0.2095 0.9739
vn -0.0437 -0.2409 0.9696
vn -0.1727 -0.2798 0.9444
vn -0.1881 -0.3165 0.9298
vn -0.1873 -0.3300 0.9252
vn -0.1670 -0.3433 0.9242
vn -0.0963 -0.3678 0.9249
vn 0.0064 -0.3851 0.9229
vn 0.0909 -0.3391 0.9364
vn -0.1794 -0.1711 0.9688
vn -0.2155 -0.1451 0.9657
vn -0.1376 -0.1982 0.9705
vn -0.1555 -0.1743 0.9723
vn -0.2069 -0.1082 0.9724
vn -0.1848 -0.1372 0.9732
vn -0.1544 -0.1675 0.9737
vn -0.0351 -0.1794 0.9831
vn 0.0652 -0.2187 0.9736
vn -0.0685 -0.2394 0.9685
vn -0.2114 -0.2334 0.9491
vn -0.2229 -0.2589 0.9398
vn -0.2066 -0.2854 0.9359
vn -0.1939 -0.3010 0.9337
vn -0.1336 -0.3232 0.9369
vn 0.0114 -0.3393 0.9406
vn 0.1583 -0.3200 0.9341
vn -0.1970 -0.1949 0.9608
vn -0.2196 -0.1646 0.9616
vn -0.1596 -0.2246 0.9613
vn -0.1181 -0.2271 0.9667
vn -0.1503 -0.1822 0.9717
vn -0.1915 -0.1497 0.9700
vn -0.1650 -0.1486 0.9750
vn -0.0599 -0.1478 0.9872
vn 0.0249 -0.2056 0.9783
vn -0.0639 -0.2700 0.9608
vn -0.2005 -0.2402 0.9498
vn -0.2471 -0.2131 0.9453
vn -0.2351 -0.2356 0.9430
vn -0.2093 -0.2403 0.9479
vn -0.1374 -0.2274 0.9641
vn 0.0092 -0.2026 0.9792
vn 0.1658 -0.2056 0.9645
vn -0.2384 -0.1333 0.9620
vn -0.2384 -0.0946 0.9665
vn -0.1689 -0.1704 0.9708
vn -0.1108 -0.1977 0.9740
vn -0.1274 -0.2342 0.9638
vn -0.1501 -0.1948 0.9693
vn -0.1508 -0.1342 0.9794
vn -0.0924 -0.1101 0.9896
vn -0.0633 -0.1681 0.9837
vn -0.1088 -0.2636 0.9585
vn -0.1579 -0.2892 0.9441
vn -0.2211 -0.2434 0.9444
vn -0.2353 -0.2242 0.9457
vn -0.1862 -0.2056 0.9608
vn -0.0943 -0.1625 0.9822
vn 0.0347 -0.1085 0.9935
vn 0.1624 -0.0813 0.9834
vn -0.2715 -0.0589 0.9606
vn -0.2482 -0.0518 0.9673
vn -0.2237 -0.0923 0.9703
vn -0.1837 -0.1722 0.9678
vn -0.1463 -0.2444 0.9586
vn -0.0887 -0.2258 0.9701
vn -0.0783 -0.1544 0.9849
vn -0.0936 -0.1040 0.9902
vn -0.1357 -0.1375 0.9812
vn -0.1950 -0.1719 0.9656
vn -0.1854 -0.2270 0.9561
vn -0.1838 -0.2235 0.9572
vn -0.1983 -0.1732 0.9647
vn -0.1459 -0.1485 0.9781
vn -0.0372 -0.1335 0.9903
vn 0.0914 -0.0927 0.9915
vn 0.2017 -0.0279 0.9791
vn -0.2776 -0.0478 0.9595
vn -0.2262 -0.0782 0.9709
vn -0.2783 -0.0574 0.9588
vn -0.2624 -0.1035 0.9594
vn -0.1817 -0.1632 0.9697
vn -0.0556 -0.1850 0.9812
vn -0.0258 -0.1607 0.9867
vn -0.0757 -0.1407 0.9872
vn -0.1344 -0.1517 0.9792
vn -0.2048 -0.1117 0.9724
vn -0.2168 -0.0721 0.9736
vn -0.1734 -0.0491 0.9836
vn -0.1649 -0.0176 0.9861
vn -0.1473 -0.0379 0.9884
vn -0.0375 -0.0830 0.9958
vn 0.1392 -0.0969 0.9855
vn 0.2758 -0.0512 0.9598
vn -0.2530 -0.0567 0.9658
vn -0.1946 -0.0976 0.9760
vn -0.2771 -0.0435 0.9598
vn -0.2854 -0.0404 0.9576
vn -0.2270 -0.0422 0.9730
vn -0.0855 -0.0780 0.9933
vn -0.0331 -0.1290 0.9911
vn -0.0851 -0.1639 0.9828
vn -0.1086 -0.1545 0.9820
vn -0.1199 -0.0611 0.9909
vn -0.1278 0.0631 0.9898
vn -0.1335 0.1236 0.9833
vn -0.1898 0.0787 0.9787
vn -0.2100 0.0111 0.9776
vn -0.0969 -0.0472 0.9942
vn 0.1209 -0.0828 0.9892
vn 0.2977 -0.0739 0.9518
vn -0.2285 -0.0184 0.9734
vn -0.1742 -0.0487 0.9835
vn -0.2639 -0.0154 0.9644
vn -0.2622 0.0075 0.9650
vn -0.2182 0.0328 0.9754
vn -0.1420 -0.0021 0.9899
vn -0.1132 -0.0852 0.9899
vn -0.1028 -0.1127 0.9883
vn -0.0321 -0.0330 0.9989
vn 0.0103 0.0768 0.9970
vn -0.0347 0.1701 0.9848
vn -0.1551 0.1775 0.9718
vn -0.2702 0.0745 0.9599
vn -0.2668 0.0302 0.9633
vn -0.1316 0.0030 0.9913
vn 0.1104 -0.0099 0.9938
vn 0.2877 -0.0108 0.9577
vn -0.2226 0.0042 0.9749
vn -0.1091 -0.0456 0.9930
vn -0.2534 0.0152 0.9672
vn -0.2412 0.0217 0.9702
vn -0.2365 0.0049 0.9716
vn -0.2014 -0.0425 0.9786
vn -0.1435 -0.0743 0.9869
vn -0.0335 -0.0103 0.9994
vn 0.0798 0.1168 0.9899
vn 0.0832 0.1734 0.9813
vn -0.0230 0.2236 0.9744
vn -0.2210 0.1853 0.9575
vn -0.3241 0.1176 0.9387
vn -0.2769 0.0928 0.9564
vn -0.1369 0.0913 0.9864
vn 0.1068 0.0989 0.9893
vn 0.2630 0.0824 0.9613
vn -0.1702 -0.0591 0.9836
vn -0.0204 -0.1540 0.9879
vn -0.2474 -0.0205 0.9687
vn -0.2714 -0.0458 0.9614
vn -0.2770 -0.0907 0.9566
vn -0.2173 -0.0894 0.9720
vn -0.0809 -0.0411 0.9959
vn 0.0889 0.0475 0.9949
vn 0.1515 0.1380 0.9788
vn 0.1183 0.2063 0.9713
vn -0.0179 0.2346 0.9719
vn -0.2500 0.1984 0.9477
vn -0.3473 0.1888 0.9186
vn -0.2913 0.1734 0.9408
vn -0.1267 0.1733 0.9767
vn 0.1021 0.1705 0.9801
vn 0.2188 0.1404 0.9656
vn -0.0924 -0.1204 0.9884
vn 0.0537 -0.2212 0.9737
vn -0.2413 -0.0784 0.9673
vn -0.3053 -0.0947 0.9475
vn -0.2746 -0.1164 0.9545
vn -0.1503 -0.0539 0.9872
vn -0.0057 0.0319 0.9995
vn 0.1467 0.0598 0.9874
vn 0.2373 0.0862 0.9676
vn 0.1788 0.1895 0.9655
vn -0.0259 0.2397 0.9705
vn -0.2506 0.2337 0.9395
vn -0.3381 0.2279 0.9131
vn -0.2953 0.2209 0.9295
vn -0.1440 0.2145 0.9660
vn 0.0745 0.1844 0.9800
vn 0.1985 0.1527 0.9681
vt 0.015625 0.015625
vt 0.076172 0.015625
vt 0.076172 0.076172
vt 0.015625 0.076172
vt 0.136719 0.015625
vt 0.136719 0.076172
vt 0.197266 0.015625
vt 0.197266 0.076172
vt 0.257812 0.015625
vt 0.257812 0.076172
vt 0.318359 0.015625
vt 0.318359 0.076172
vt 0.378906 0.015625
vt 0.378906 0.076172
vt 0.439453 0.015625
vt 0.439453 0.076172
vt 0.500000 0.015625
vt 0.500000 0.076172
vt 0.560547 0.015625
vt 0.560547 0.076172
vt 0.621094 0.015625
vt 0.621094 0.076172
vt 0.681641 0.015625
vt 0.681641 0.076172
vt 0.742188 0.015625
vt 0.742188 0.076172
vt 0.802734 0.015625
vt 0.802734 0.076172
vt 0.863281 0.015625
vt 0.863281 0.076172
vt 0.923828 0.015625
vt 0.923828 0.076172
vt 0.984375 0.015625
vt 0.984375 0.076172
vt 0.076172 0.136719
vt 0.015625 0.136719
vt 0.136719 0.136719
vt 0.197266 0.136719
vt 0.257812 0.136719
vt 0.318359 0.136719
vt 0.378906 0.136719
vt 0.439453 0.136719
vt 0.500000 0.136719
vt 0.560547 0.136719
vt 0.621094 0.136719
vt 0.681641 0.136719
vt 0.742188 0.136719
vt 0.802734 0.136719
vt 0.863281 0.136719
vt 0.923828 0.136719
vt 0.984375 0.136719
vt 0.076172 0.197266
vt 0.015625 0.197266
vt 0.136719 0.197266
vt 0.197266 0.197266
vt 0.257812 0.197266
vt 0.318359 0.197266
vt 0.378906 0.197266
vt 0.439453 0.197266
vt 0.500000 0.197266
vt 0.560547 0.197266
vt 0.621094 0.197266
vt 0.681641 0.197266
vt 0.742188 0.197266
vt 0.802734 0.197266
vt 0.863281 0.197266
vt 0.923828 0.197266
vt 0.984375 0.197266
vt 0.076172 0.257812
vt 0.015625 0.257812
vt 0.136719 0.257812
vt 0.197266 0.257812
vt 0.257812 0.257812
vt 0.318359 0.257812
vt 0.378906 0.257812
vt 0.439453 0.257812
vt 0.500000 0.257812
vt 0.560547 0.257812
vt 0.621094 0.257812
vt 0.681641 0.257812
vt 0.742188 0.257812
vt 0.802734 0.257812
vt 0.863281 0.257812
vt 0.923828 0.257812
vt 0.984375 0.257812
vt 0.076172 0.318359
vt 0.015625 0.318359
vt 0.136719 0.318359
vt 0.197266 0.318359
vt 0.257812 0.318359
vt 0.318359 0.318359
vt 0.378906 0.318359
vt 0.439453 0.318359
vt 0.500000 0.318359
vt 0.560547 0.318359
vt 0.621094 0.318359
vt 0.681641 0.318359
vt 0.742188 0.318359
vt 0.802734 0.318359
vt 0.863281 0.318359
vt 0.923828 0.318359
vt 0.984375 0.318359
vt 0.076172 0.378906
vt 0.015625 0.378906
vt 0.136719 0.378906
vt 0.197266 0.378906
vt 0.257812 0.378906
vt 0.318359 0.378906
vt 0.378906 0.378906
vt 0.439453 0.378906
vt 0.500000 0.378906
vt 0.560547 0.378906
vt 0.621094 0.378906
vt 0.681641 0.378906
vt 0.742188 0.378906
vt 0.802734 0.378906
vt 0.863281 0.378906
vt 0.923828 0.378906
vt 0.984375 0.378906
vt 0.076172 0.439453
vt 0.015625 0.439453
vt 0.136719 0.439453
vt 0.197266 0.439453
vt 0.257812 0.439453
vt 0.318359 0.439453
vt 0.378906 0.439453
vt 0.439453 0.439453
vt 0.500000 0.439453
vt 0.560547 0.439453
vt 0.621094 0.439453
vt 0.681641 0.439453
vt 0.742188 0.439453
vt 0.802734 0.439453
vt 0.863281 0.439453
vt 0.923828 0.439453
vt 0.984375 0.439453
vt 0.076172 0.500000
vt 0.015625 0.500000
vt 0.136719 0.500000
vt 0.197266 0.500000
vt 0.257812 0.500000
vt 0.318359 0.500000
vt 0.378906 0.500000
vt 0.439453 0.500000
vt 0.500000 0.500000
vt 0.560547 0.500000
vt 0.621094 0.500000
vt 0.681641 0.500000
vt 0.742188 0.500000
vt 0.802734 0.500000
vt 0.863281 0.500000
vt 0.923828 0.500000
vt 0.984375 0.500000
vt 0.076172 0.560547
vt 0.015625 0.560547
vt 0.136719 0.560547
vt 0.197266 0.560547
vt 0.257812 0.560547
vt 0.318359 0.560547
vt 0.378906 0.560547
vt 0.439453 0.560547
vt 0.500000 0.560547
vt 0.560547 0.560547
vt 0.621094 0.560547
vt 0.681641 0.560547
vt 0.742188 0.560547
vt 0.802734 0.560547
vt 0.863281 0.560547
vt 0.923828 0.560547
vt 0.984375 0.560547
vt 0.076172 0.621094
vt 0.015625 0.621094
vt 0.136719 0.621094
vt 0.197266 0.621094
vt 0.257812 0.621094
vt 0.318359 0.621094
vt 0.378906 0.621094
vt 0.439453 0.621094
vt 0.500000 0.621094
vt 0.560547 0.621094
vt 0.621094 0.621094
vt 0.681641 0.621094
vt 0.742188 0.621094
vt 0.802734 0.621094
vt 0.863281 0.621094
vt 0.923828 0.621094
vt 0.984375 0.621094
vt 0.076172 0.681641
vt 0.015625 0.681641
vt 0.136719 0.681641
vt 0.197266 0.681641
vt 0.257812 0.681641
vt 0.318359 0.681641
vt 0.378906 0.681641
vt 0.439453 0.681641
vt 0.500000 0.681641
vt 0.560547 0.681641
vt 0.621094 0.681641
vt 0.681641 0.681641
vt 0.742188 0.681641
vt 0.802734 0.681641
vt 0.863281 0.681641
vt 0.923828 0.681641
vt 0.984375 0.681641
vt 0.076172 0.742188
vt 0.015625 0.742188
vt 0.136719 0.742188
vt 0.197266 0.742188
vt 0.257812 0.742188
vt 0.318359 0.742188
vt 0.378906 0.742188
vt 0.439453 0.742188
vt 0.500000 0.742188
vt 0.560547 0.742188
vt 0.621094 0.742188
vt 0.681641 0.742188
vt 0.742188 0.742188
vt 0.802734 0.742188
vt 0.863281 0.742188
vt 0.923828 0.742188
vt 0.984375 0.742188
vt 0.076172 0.802734
vt 0.015625 0.802734
vt 0.136719 0.802734
vt 0.197266 0.802734
vt 0.257812 0.802734
vt 0.318359 0.802734
vt 0.378906 0.802734
vt 0.439453 0.802734
vt 0.500000 0.802734
vt 0.560547 0.802734
vt 0.621094 0.802734
vt 0.681641 0.802734
vt 0.742188 0.802734
vt 0.802734 0.802734
vt 0.863281 0.802734
vt 0.923828 0.802734
vt 0.984375 0.802734
vt 0.076172 0.863281
vt 0.015625 0.863281
vt 0.136719 0.863281
vt 0.197266 0.863281
vt 0.257812 0.863281
vt 0.318359 0.863281
vt 0.378906 0.863281
vt 0.439453 0.863281
vt 0.500000 0.863281
vt 0.560547 0.863281
vt 0.621094 0.863281
vt 0.681641 0.863281
vt 0.742188 0.863281
vt 0.802734 0.863281
vt 0.863281 0.863281
vt 0.923828 0.863281
vt 0.984375 0.863281
vt 0.076172 0.923828
vt 0.015625 0.923828
vt 0.136719 0.923828
vt 0.197266 0.923828
vt 0.257812 0.923828
vt 0.318359 0.923828
vt 0.378906 0.923828
vt 0.439453 0.923828
vt 0.500000 0.923828
vt 0.560547 0.923828
vt 0.621094 0.923828
vt 0.681641 0.923828
vt 0.742188 0.923828
vt 0.802734 0.923828
vt 0.863281 0.923828
vt 0.923828 0.923828
vt 0.984375 0.923828
vt 0.076172 0.984375
vt 0.015625 0.984375
vt 0.136719 0.984375
vt 0.197266 0.984375
vt 0.257812 0.984375
vt 0.318359 0.984375
vt 0.378906 0.984375
vt 0.439453 0.984375
vt 0.500000 0.984375
vt 0.560547 0.984375
vt 0.621094 0.984375
vt 0.681641 0.984375
vt 0.742188 0.984375
vt 0.802734 0.984375
vt 0.863281 0.984375
vt 0.923828 0.984375
vt 0.984375 0.984375
s 1
f 1/1/1 2/2/2 19/3/3
f 1/1/1 19/3/3 18/4/4
f 2/2/2 3/5/5 20/6/6
f 2/2/2 20/6/6 19/3/3
f 3/5/5 4/7/7 21/8/8
f 3/5/5 21/8/8 20/6/6
f 4/7/7 5/9/9 22/10/10
f 4/7/7 22/10/10 21/8/8
f 5/9/9 6/11/11 23/12/12
f 5/9/9 23/12/12 22/10/10
f 6/11/11 7/13/13 24/14/14
f 6/11/11 24/14/14 23/12/12
f 7/13/13 8/15/15 25/16/16
f 7/13/13 25/16/16 24/14/14
f 8/15/15 9/17/17 26/18/18
f 8/15/15 26/18/18 25/16/16
f 9/17/17 10/19/19 27/20/20
f 9/17/17 27/20/20 26/18/18
f 10/19/19 11/21/21 28/22/22
f 10/19/19 28/22/22 27/20/20
f 11/21/21 12/23/23 29/24/24
f 11/21/21 29/24/24 28/22/22
f 12/23/23 13/25/25 30/26/26
f 12/23/23 30/26/26 29/24/24
f 13/25/25 14/27/27 31/28/28
f 13/25/25 31/28/28 30/26/26
f 14/27/27 15/29/29 32/30/30
f 14/27/27 32/30/30 31/28/28
f 15/29/29 16/31/31 33/32/32
f 15/29/29 33/32/32 32/30/30
f 16/31/31 17/33/33 34/34/34
f 16/31/31 34/34/34 33/32/32
f 18/4/4 19/3/3 36/35/35
f 18/4/4 36/35/35 35/36/36
f 19/3/3 20/6/6 37/37/37
f 19/3/3 37/37/37 36/35/35
f 20/6/6 21/8/8 38/38/38
f 20/6/6 38/38/38 37/37/37
f 21/8/8 22/10/10 39/39/39
f 21/8/8 39/39/39 38/38/38
f 22/10/10 23/12/12 40/40/40
f 22/10/10 40/40/40 39/39/39
f 23/12/12 24/14/14 41/41/41
f 23/12/12 41/41/41 40/40/40
f 24/14/14 25/16/16 42/42/42
f 24/14/14 42/42/42 41/41/41
f 25/16/16 26/18/18 43/43/43
f 25/16/16 43/43/43 42/42/42
f 26/18/18 27/20/20 44/44/44
f 26/18/18 44/44/44 43/43/43
f 27/20/20 28/22/22 45/45/45
f 27/20/20 45/45/45 44/44/44
f 28/22/22 29/24/24 46/46/46
f 28/22/22 46/46/46 45/45/45
f 29/24/24 30/26/26 47/47/47
f 29/24/24 47/47/47 46/46/46
f 30/26/26 31/28/28 48/48/48
f 30/26/26 48/48/48 47/47/47
f 31/28/28 32/30/30 49/49/49
f 31/28/28 49/49/49 48/48/48
f 32/30/30 33/32/32 50/50/50
f 32/30/30 50/50/50 49/49/49
f 33/32/32 34/34/34 51/51/51
f 33/32/32 51/51/51 50/50/50
f 35/36/36 36/35/35 53/52/52
f 35/36/36 53/52/52 52/53/53
f 36/35/35 37/37/37 54/54/54
f 36/35/35 54/54/54 53/52/52
f 37/37/37 38/38/38 55/55/55
f 37/37/37 55/55/55 54/54/54
f 38/38/38 39/39/39 56/56/56
f 38/38/38 56/56/56 55/55/55
f 39/39/39 40/40/40 57/57/57
f 39/39/39 57/57/57 56/56/56
f 40/40/40 41/41/41 58/58/58
f 40/40/40 58/58/58 57/57/57
f 41/41/41 42/42/42 59/59/59
f 41/41/41 59/59/59 58/58/58
f 42/42/42 43/43/43 60/60/60
f 42/42/42 60/60/60 59/59/59
f 43/43/43 44/44/44 61/61/61
f 43/43/43 61/61/61 60/60/60
f 44/44/44 45/45/45 62/62/62
f 44/44/44 62/62/62 61/61/61
f 45/45/45 46/46/46 63/63/63
f 45/45/45 63/63/63 62/62/62
f 46/46/46 47/47/47 64/64/64
f 46/46/46 64/64/64 63/63/63
f 47/47/47 48/48/48 65/65/65
f 47/47/47 65/65/65 64/64/64
f 48/48/48 49/49/49 66/66/66
f 48/48/48 66/66/66 65/65/65
f 49/49/49 50/50/50 67/67/67
f 49/49/49 67/67/67 66/66/66
f 50/50/50 51/51/51 68/68/68
f 50/50/50 68/68/68 67/67/67
f 52/53/53 53/52/52 70/69/69
f 52/53/53 70/69/69 69/70/70
f 53/52/52 54/54/54 71/71/71
f 53/52/52 71/71/71 70/69/69
f 54/54/54 55/55/55 72/72/72
f 54/54/54 72/72/72 71/71/71
f 55/55/55 56/56/56 73/73/73
f 55/55/55 73/73/73 72/72/72
f 56/56/56 57/57/57 74/74/74
f 56/56/56 74/74/74 73/73/73
f 57/57/57 58/58/58 75/75/75
f 57/57/57 75/75/75 74/74/74
f 58/58/58 59/59/59 76/76/76
f 58/58/58 76/76/76 75/75/75
f 59/59/59 60/60/60 77/77/77
f 59/59/59 77/77/77 76/76/76
f 60/60/60 61/61/61 78/78/78
f 60/60/60 78/78/78 77/77/77
f 61/61/61 62/62/62 79/79/79
f 61/61/61 79/79/79 78/78/78
f 62/62/62 63/63/63 80/80/80
f 62/62/62 80/80/80 79/79/79
f 63/63/63 64/64/64 81/81/81
f 63/63/63 81/81/81 80/80/80
f 64/64/64 65/65/65 82/82/82
f 64/64/64 82/82/82 81/81/81
f 65/65/65 66/66/66 83/83/83
f 65/65/65 83/83/83 82/82/82
f 66/66/66 67/67/67 84/84/84
f 66/66/66 84/84/84 83/83/83
f 67/67/67 68/68/68 85/85/85
f 67/67/67 85/85/85 84/84/84
f 69/70/70 70/69/69 87/86/86
f 69/70/70 87/86/86 86/87/87
f 70/69/69 71/71/71 88/88/88
f 70/69/69 88/88/88 87/86/86
f 71/71/71 72/72/72 89/89/89
f 71/71/71 89/89/89 88/88/88
f 72/72/72 73/73/73 90/90/90
f 72/72/72 90/90/90 89/89/89
f 73/73/73 74/74/74 91/91/91
f 73/73/73 91/91/91 90/90/90
f 74/74/74 75/75/75 92/92/92
f 74/74/74 92/92/92 91/91/91
f 75/75/75 76/76/76 93/93/93
f 75/75/75 93/93/93 92/92/92
f 76/76/76 77/77/77 94/94/94
f 76/76/76 94/94/94 93/93/93
f 77/77/77 78/78/78 95/95/95
f 77/77/77 95/95/95 94/94/94
f 78/78/78 79/79/79 96/96/96
f 78/78/78 96/96/96 95/95/95
f 79/79/79 80/80/80 97/97/97
f 79/79/79 97/97/97 96/96/96
f 80/80/80 81/81/81 98/98/98
f 80/80/80 98/98/98 97/97/97
f 81/81/81 82/82/82 99/99/99
f 81/81/81 99/99/99 98/98/98
f 82/82/82 83/83/83 100/100/100
f 82/82/82 100/100/100 99/99/99
f 83/83/83 84/84/84 101/101/101
f 83/83/83 101/101/101 100/100/100
f 84/84/84 85/85/85 102/102/102
f 84/84/84 102/102/102 101/101/101
f 86/87/87 87/86/86 104/103/103
f 86/87/87 104/103/103 103/104/104
f 87/86/86 88/88/88 105/105/105
f 87/86/86 105/105/105 104/103/103
f 88/88/88 89/89/89 106/106/106
f 88/88/88 106/106/106 105/105/105
f 89/89/89 90/90/90 107/107/107
f 89/89/89 107/107/107 106/106/106
f 90/90/90 91/91/91 108/108/108
f 90/90/90 108/108/108 107/107/107
f 91/91/91 92/92/92 109/109/109
f 91/91/91 109/109/109 108/108/108
f 92/92/92 93/93/93 110/110/110
f 92/92/92 110/110/110 109/109/109
f 93/93/93 94/94/94 111/111/111
f 93/93/93 111/111/111 110/110/110
f 94/94/94 95/95/95 112/112/112
f 94/94/94 112/112/112 111/111/111
f 95/95/95 96/96/96 113/113/113
f 95/95/95 113/113/113 112/112/112
f 96/96/96 97/97/97 114/114/114
f 96/96/96 114/114/114 113/113/113
f 97/97/97 98/98/98 115/115/115
f 97/97/97 115/115/115 114/114/114
f 98/98/98 99/99/99 116/116/116
f 98/98/98 116/116/116 115/115/115
f 99/99/99 100/100/100 117/117/117
f 99/99/99 117/117/117 116/116/116
f 100/100/100 101/101/101 118/118/118
f 100/100/100 118/118/118 117/117/117
f 101/101/101 102/102/102 119/119/119
f 101/101/101 119/119/119 118/118/118
f 103/104/104 104/103/103 121/120/120
f 103/104/104 121/120/120 120/121/121
f 104/103/103 105/105/105 122/122/122
f 104/103/103 122/122/122 121/120/120
f 105/105/105 106/106/106 123/123/123
f 105/105/105 123/123/123 122/122/122
f 106/106/106 107/107/107 124/124/124
f 106/106/106 124/124/124 123/123/123
f 107/107/107 108/108/108 125/125/125
f 107/107/107 125/125/125 124/124/124
f 108/108/108 109/109/109 126/126/126
f 108/108/108 126/126/126 125/125/125
f 109/109/109 110/110/110 127/127/127
f 109/109/109 127/127/127 126/126/126
f 110/110/110 111/111/111 128/128/128
f 110/110/110 128/128/128 127/127/127
f 111/111/111 112/112/112 129/129/129
f 111/111/111 129/129/129 128/128/128
f 112/112/112 113/113/113 130/130/130
f 112/112/112 130/130/130 129/129/129
f 113/113/113 114/114/114 131/131/131
f 113/113/113 131/131/131 130/130/130
f 114/114/114 115/115/115 132/132/132
f 114/114/114 132/132/132 131/131/131
f 115/115/115 116/116/116 133/133/133
f 115/115/115 133/133/133 132/132/132
f 116/116/116 117/117/117 134/134/134
f 116/116/116 134/134/134 133/133/133
f 117/117/117 118/118/118 135/135/135
f 117/117/117 135/135/135 134/134/134
f 118/118/118 119/119/119 136/136/136
f 118/118/118 136/136/136 135/135/135
f 120/121/121 121/120/120 138/137/137
f 120/121/121 138/137/137 137/138/138
f 121/120/120 122/122/122 139/139/139
f 121/120/120 139/139/139 138/137/137
f 122/122/122 123/123/123 140/140/140
f 122/122/122 140/140/140 139/139/139
f 123/123/123 124/124/124 141/141/141
f 123/123/123 141/141/141 140/140/140
f 124/124/124 125/125/125 142/142/142
f 124/124/124 142/142/142 141/141/141
f 125/125/125 126/126/126 143/143/143
f 125/125/125 143/143/143 142/142/142
f 126/126/126 127/127/127 144/144/144
f 126/126/126 144/144/144 143/143/143
f 127/127/127 128/128/128 145/145/145
f 127/127/127 145/145/145 144/144/144
f 128/128/128 129/129/129 146/146/146
f 128/128/128 146/146/146 145/145/145
f 129/129/129 130/130/130 147/147/147
f 129/129/129 147/147/147 146/146/146
f 130/130/130 131/131/131 148/148/148
f 130/130/130 148/148/148 147/147/147
f 131/131/131 132/132/132 149/149/149
f 131/131/131 149/149/149 148/148/148
f 132/132/132 133/133/133 150/150/150
f 132/132/132 150/150/150 149/149/149
f 133/133/133 134/134/134 151/151/151
f 133/133/133 151/151/151 150/150/150
f 134/134/134 135/135/135 152/152/152
f 134/134/134 152/152/152 151/151/151
f 135/135/135 136/136/136 153/153/153
f 135/135/135 153/153/153 152/152/152
f 137/138/138 138/137/137 155/154/154
f 137/138/138 155/154/154 154/155/155
f 138/137/137 139/139/139 156/156/156
f 138/137/137 156/156/156 155/154/154
f 139/139/139 140/140/140 157/157/157
f 139/139/139 157/157/157 156/156/156
f 140/140/140 141/141/141 158/158/158
f 140/140/140 158/158/158 157/157/157
f 141/141/141 142/142/142 159/159/159
f 141/141/141 159/159/159 158/158/158
f 142/142/142 143/143/143 160/160/160
f 142/142/142 160/160/160 159/159/159
f 143/143/143 144/144/144 161/161/161
f 143/143/143 161/161/161 160/160/160
f 144/144/144 145/145/145 162/162/162
f 144/144/144 162/162/162 161/161/161
f 145/145/145 146/146/146 163/163/163
f 145/145/145 163/163/163 162/162/162
f 146/146/146 147/147/147 164/164/164
f 146/146/146 164/164/164 163/163/163
f 147/147/147 148/148/148 165/165/165
f 147/147/147 165/165/165 164/164/164
f 148/148/148 149/149/149 166/166/166
f 148/148/148 166/166/166 165/165/165
f 149/149/149 150/150/150 167/167/167
f 149/149/149 167/167/167 166/166/166
f 150/150/150 151/151/151 168/168/168
f 150/150/150 168/168/168 167/167/167
f 151/151/151 152/152/152 169/169/169
f 151/151/151 169/169/169 168/168/168
f 152/152/152 153/153/153 170/170/170
f 152/152/152 170/170/170 169/169/169
f 154/155/155 155/154/154 172/171/171
f 154/155/155 172/171/171 171/172/172
f 155/154/154 156/156/156 173/173/173
f 155/154/154 173/173/173 172/171/171
f 156/156/156 157/157/157 174/174/174
f 156/156/156 174/174/174 173/173/173
f 157/157/157 158/158/158 175/175/175
f 157/157/157 175/175/175 174/174/174
f 158/158/158 159/159/159 176/176/176
f 158/158/158 176/176/176 175/175/175
f 159/159/159 160/160/160 177/177/177
f 159/159/159 177/177/177 176/176/176
f 160/160/160 161/161/161 178/178/178
f 160/160/160 178/178/178 177/177/177
f 161/161/161 162/162/162 179/179/179
f 161/161/161 179/179/179 178/178/178
f 162/162/162 163/163/163 180/180/180
f 162/162/162 180/180/180 179/179/179
f 163/163/163 164/164/164 181/181/181
f 163/163/163 181/181/181 180/180/180
f 164/164/164 165/165/165 182/182/182
f 164/164/164 182/182/182 181/181/181
f 165/165/165 166/166/166 183/183/183
f 165/165/165 183/183/183 182/182/182
f 166/166/166 167/167/167 184/184/184
f 166/166/166 184/184/184 183/183/183
f 167/167/167 168/168/168 185/185/185
f 167/167/167 185/185/185 184/184/184
f 168/168/168 169/169/169 186/186/186
f 168/168/168 186/186/186 185/185/185
f 169/169/169 170/170/170 187/187/187
f 169/169/169 187/187/187 186/186/186
f 171/172/172 172/171/171 189/188/188
f 171/172/172 189/188/188 188/189/189
f 172/171/171 173/173/173 190/190/190
f 172/171/171 190/190/190 189/188/188
f 173/173/173 174/174/174 191/191/191
f 173/173/173 191/191/191 190/190/190
f 174/174/174 175/175/175 192/192/192
f 174/174/174 192/192/192 191/191/191
f 175/175/175 176/176/176 193/193/193
f 175/175/175 193/193/193 192/192/192
f 176/176/176 177/177/177 194/194/194
f 176/176/176 194/194/194 193/193/193
f 177/177/177 178/178/178 195/195/195
f 177/177/177 195/195/195 194/194/194
f 178/178/178 179/179/179 196/196/196
f 178/178/178 196/196/196 195/195/195
f 179/179/179 180/180/180 197/197/197
f 179/179/179 197/197/197 196/196/196
f 180/180/180 181/181/181 198/198/198
f 180/180/180 198/198/198 197/197/197
f 181/181/181 182/182/182 199/199/199
f 181/181/181 199/199/199 198/198/198
f 182/182/182 183/183/183 200/200/200
f 182/182/182 200/200/200 199/199/199
f 183/183/183 184/184/184 201/201/201
f 183/183/183 201/201/201 200/200/200
f 184/184/184 185/185/185 202/202/202
f 184/184/184 202/202/202 201/201/201
f 185/185/185 186/186/186 203/203/203
f 185/185/185 203/203/203 202/202/202
f 186/186/186 187/187/187 204/204/204
f 186/186/186 204/204/204 203/203/203
f 188/189/189 189/188/188 206/205/205
f 188/189/189 206/205/205 205/206/206
f 189/188/188 190/190/190 207/207/207
f 189/188/188 207/207/207 206/205/205
f 190/190/190 191/191/191 208/208/208
f 190/190/190 208/208/208 207/207/207
f 191/191/191 192/192/192 209/209/209
f 191/191/191 209/209/209 208/208/208
f 192/192/192 193/193/193 210/210/210
f 192/192/192 210/210/210 209/209/209
f 193/193/193 194/194/194 211/211/211
f 193/193/193 211/211/211 210/210/210
f 194/194/194 195/195/195 212/212/212
f 194/194/194 212/212/212 211/211/211
f 195/195/195 196/196/196 213/213/213
f 195/195/195 213/213/213 212/212/212
f 196/196/196 197/197/197 214/214/214
f 196/196/196 214/214/214 213/213/213
f 197/197/197 198/198/198 215/215/215
f 197/197/197 215/215/215 214/214/214
f 198/198/198 199/199/199 216/216/216
f 198/198/198 216/216/216 215/215/215
f 199/199/199 200/200/200 217/217/217
f 199/199/199 217/217/217 216/216/216
f 200/200/200 201/201/201 218/218/218
f 200/200/200 218/218/218 217/217/217
f 201/201/201 202/202/202 219/219/219
f 201/201/201 219/219/219 218/218/218
f 202/202/202 203/203/203 220/220/220
f 202/202/202 220/220/220 219/219/219
f 203/203/203 204/204/204 221/221/221
f 203/203/203 221/221/221 220/220/220
f 205/206/206 206/205/205 223/222/222
f 205/206/206 223/222/222 222/223/223
f 206/205/205 207/207/207 224/224/224
f 206/205/205 224/224/224 223/222/222
f 207/207/207 208/208/208 225/225/225
f 207/207/207 225/225/225 224/224/224
f 208/208/208 209/209/209 226/226/226
f 208/208/208 226/226/226 225/225/225
f 209/209/209 210/210/210 227/227/227
f 209/209/209 227/227/227 226/226/226
f 210/210/210 211/211/211 228/228/228
f 210/210/210 228/228/228 227/227/227
f 211/211/211 212/212/212 229/229/229
f 211/211/211 229/229/229 228/228/228
f 212/212/212 213/213/213 230/230/230
f 212/212/212 230/230/230 229/229/229
f 213/213/213 214/214/214 231/231/231
f 213/213/213 231/231/231 230/230/230
f 214/214/214 215/215/215 232/232/232
f 214/214/214 232/232/232 231/231/231
f 215/215/215 216/216/216 233/233/233
f 215/215/215 233/233/233 232/232/232
f 216/216/216 217/217/217 234/234/234
f 216/216/216 234/234/234 233/233/233
f 217/217/217 218/218/218 235/235/235
f 217/217/217 235/235/235 234/234/234
f 218/218/218 219/219/219 236/236/236
f 218/218/218 236/236/236 235/235/235
f 219/219/219 220/220/220 237/237/237
f 219/219/219 237/237/237 236/236/236
f 220/220/220 221/221/221 238/238/238
f 220/220/220 238/238/238 237/237/237
f 222/223/223 223/222/222 240/239/239
f 222/223/223 240/239/239 239/240/240
f 223/222/222 224/224/224 241/241/241
f 223/222/222 241/241/241 240/239/239
f 224/224/224 225/225/225 242/242/242
f 224/224/224 242/242/242 241/241/241
f 225/225/225 226/226/226 243/243/243
f 225/225/225 243/243/243 242/242/242
f 226/226/226 227/227/227 244/244/244
f 226/226/226 244/244/244 243/243/243
f 227/227/227 228/228/228 245/245/245
f 227/227/227 245/245/245 244/244/244
f 228/228/228 229/229/229 246/246/246
f 228/228/228 246/246/246 245/245/245
f 229/229/229 230/230/230 247/247/247
f 229/229/229 247/247/247 246/246/246
f 230/230/230 231/231/231 248/248/248
f 230/230/230 248/248/248 247/247/247
f 231/231/231 232/232/232 249/249/249
f 231/231/231 249/249/249 248/248/248
f 232/232/232 233/233/233 250/250/250
f 232/232/232 250/250/250 249/249/249
f 233/233/233 234/234/234 251/251/251
f 233/233/233 251/251/251 250/250/250
f 234/234/234 235/235/235 252/252/252
f 234/234/234 252/252/252 251/251/251
f 235/235/235 236/236/236 253/253/253
f 235/235/235 253/253/253 252/252/252
f 236/236/236 237/237/237 254/254/254
f 236/236/236 254/254/254 253/253/253
f 237/237/237 238/238/238 255/255/255
f 237/237/237 255/255/255 254/254/254
f 239/240/240 240/239/239 257/256/256
f 239/240/240 257/256/256 256/257/257
f 240/239/239 241/241/241 258/258/258
f 240/239/239 258/258/258 257/256/256
f 241/241/241 242/242/242 259/259/259
f 241/241/241 259/259/259 258/258/258
f 242/242/242 243/243/243 260/260/260
f 242/242/242 260/260/260 259/259/259
f 243/243/243 244/244/244 261/261/261
f 243/243/243 261/261/261 260/260/260
f 244/244/244 245/245/245 262/262/262
f 244/244/244 262/262/262 261/261/261
f 245/245/245 246/246/246 263/263/263
f 245/245/245 263/263/263 262/262/262
f 246/246/246 247/247/247 264/264/264
f 246/246/246 264/264/264 263/263/263
f 247/247/247 248/248/248 265/265/265
f 247/247/247 265/265/265 264/264/264
f 248/248/248 249/249/249 266/266/266
f 248/248/248 266/266/266 265/265/265
f 249/249/249 250/250/250 267/267/267
f 249/249/249 267/267/267 266/266/266
f 250/250/250 251/251/251 268/268/268
f 250/250/250 268/268/268 267/267/267
f 251/251/251 252/252/252 269/269/269
f 251/251/251 269/269/269 268/268/268
f 252/252/252 253/253/253 270/270/270
f 252/252/252 270/270/270 269/269/269
f 253/253/253 254/254/254 271/271/271
f 253/253/253 271/271/271 270/270/270
f 254/254/254 255/255/255 272/272/272
f 254/254/254 272/272/272 271/271/271
f 256/257/257 257/256/256 274/273/273
f 256/257/257 274/273/273 273/274/274
f 257/256/256 258/258/258 275/275/275
f 257/256/256 275/275/275 274/273/273
f 258/258/258 259/259/259 276/276/276
f 258/258/258 276/276/276 275/275/275
f 259/259/259 260/260/260 277/277/277
f 259/259/259 277/277/277 276/276/276
f 260/260/260 261/261/261 278/278/278
f 260/260/260 278/278/278 277/277/277
f 261/261/261 262/262/262 279/279/279
f 261/261/261 279/279/279 278/278/278
f 262/262/262 263/263/263 280/280/280
f 262/262/262 280/280/280 279/279/279
f 263/263/263 264/264/264 281/281/281
f 263/263/263 281/281/281 280/280/280
f 264/264/264 265/265/265 282/282/282
f 264/264/264 282/282/282 281/281/281
f 265/265/265 266/266/266 283/283/283
f 265/265/265 283/283/283 282/282/282
f 266/266/266 267/267/267 284/284/284
f 266/266/266 284/284/284 283/283/283
f 267/267/267 268/268/268 285/285/285
f 267/267/267 285/285/285 284/284/284
f 268/268/268 269/269/269 286/286/286
f 268/268/268 286/286/286 285/285/285
f 269/269/269 270/270/270 287/287/287
f 269/269/269 287/287/287 286/286/286
f 270/270/270 271/271/271 288/288/288
f 270/270/270 288/288/288 287/287/287
f 271/271/271 272/272/272 289/289/289
f 271/271/271 289/289/289 288/288/288
