mtllib terrain_mid_02_03.mtl
usemtl terrain_mid_02_03
# Blender 5.1.1
# www.blender.org
o terrain_mid_02_03
v -160.000000 -160.000000 -11.500249
v -140.000000 -160.000000 -11.691282
v -120.000000 -160.000000 -11.528630
v -100.000000 -160.000000 -11.160108
v -80.000000 -160.000000 -10.807907
v -60.000000 -160.000000 -10.728413
v -40.000000 -160.000000 -11.067280
v -20.000000 -160.000000 -12.055154
v 0.000000 -160.000000 -13.733756
v 20.000000 -160.000000 -16.303242
v 40.000000 -160.000000 -19.563997
v 60.000000 -160.000000 -23.563353
v 80.000000 -160.000000 -28.394978
v 100.000000 -160.000000 -34.153412
v 120.000000 -160.000000 -40.340519
v 140.000000 -160.000000 -46.284443
v 160.000000 -160.000000 -51.131165
v -160.000000 -140.000000 -3.088384
v -140.000000 -140.000000 -3.152573
v -120.000000 -140.000000 -3.129244
v -100.000000 -140.000000 -3.078361
v -80.000000 -140.000000 -2.977009
v -60.000000 -140.000000 -3.285616
v -40.000000 -140.000000 -4.184915
v -20.000000 -140.000000 -6.001036
v 0.000000 -140.000000 -8.764348
v 20.000000 -140.000000 -12.109096
v 40.000000 -140.000000 -16.265467
v 60.000000 -140.000000 -21.176289
v 80.000000 -140.000000 -26.798651
v 100.000000 -140.000000 -33.140148
v 120.000000 -140.000000 -39.749271
v 140.000000 -140.000000 -45.829132
v 160.000000 -140.000000 -50.391403
v -160.000000 -120.000000 5.049481
v -140.000000 -120.000000 5.037077
v -120.000000 -120.000000 4.960641
v -100.000000 -120.000000 4.713489
v -80.000000 -120.000000 4.326987
v -60.000000 -120.000000 3.219403
v -40.000000 -120.000000 1.316259
v -20.000000 -120.000000 -1.587238
v 0.000000 -120.000000 -5.356098
v 20.000000 -120.000000 -9.755702
v 40.000000 -120.000000 -14.712712
v 60.000000 -120.000000 -20.332796
v 80.000000 -120.000000 -26.525654
v 100.000000 -120.000000 -33.315308
v 120.000000 -120.000000 -39.960476
v 140.000000 -120.000000 -45.339035
v 160.000000 -120.000000 -48.769619
v -160.000000 -100.000000 12.976822
v -140.000000 -100.000000 12.957149
v -120.000000 -100.000000 12.636361
v -100.000000 -100.000000 11.949546
v -80.000000 -100.000000 10.608566
v -60.000000 -100.000000 8.315892
v -40.000000 -100.000000 5.181337
v -20.000000 -100.000000 1.136551
v 0.000000 -100.000000 -3.430147
v 20.000000 -100.000000 -8.729850
v 40.000000 -100.000000 -14.556782
v 60.000000 -100.000000 -20.519882
v 80.000000 -100.000000 -26.923555
v 100.000000 -100.000000 -33.848663
v 120.000000 -100.000000 -40.210938
v 140.000000 -100.000000 -44.341625
v 160.000000 -100.000000 -46.576015
v -160.000000 -80.000000 20.957762
v -140.000000 -80.000000 20.678831
v -120.000000 -80.000000 19.854176
v -100.000000 -80.000000 18.330421
v -80.000000 -80.000000 15.854019
v -60.000000 -80.000000 12.232196
v -40.000000 -80.000000 7.921117
v -20.000000 -80.000000 2.999364
v 0.000000 -80.000000 -2.580558
v 20.000000 -80.000000 -8.596475
v 40.000000 -80.000000 -14.838520
v 60.000000 -80.000000 -21.066669
v 80.000000 -80.000000 -27.324299
v 100.000000 -80.000000 -33.605122
v 120.000000 -80.000000 -39.275723
v 140.000000 -80.000000 -42.300102
v 160.000000 -80.000000 -44.360390
v -160.000000 -60.000000 28.767359
v -140.000000 -60.000000 28.055563
v -120.000000 -60.000000 26.480932
v -100.000000 -60.000000 23.797842
v -80.000000 -60.000000 20.069592
v -60.000000 -60.000000 15.342486
v -40.000000 -60.000000 10.043102
v -20.000000 -60.000000 4.239958
v 0.000000 -60.000000 -2.091117
v 20.000000 -60.000000 -8.651976
v 40.000000 -60.000000 -15.267447
v 60.000000 -60.000000 -21.771151
v 80.000000 -60.000000 -27.951408
v 100.000000 -60.000000 -33.529533
v 120.000000 -60.000000 -38.253262
v 140.000000 -60.000000 -41.083855
v 160.000000 -60.000000 -43.801601
v -160.000000 -40.000000 36.053059
v -140.000000 -40.000000 34.656952
v -120.000000 -40.000000 32.031403
v -100.000000 -40.000000 28.357203
v -80.000000 -40.000000 23.661402
v -60.000000 -40.000000 17.905838
v -40.000000 -40.000000 11.713496
v -20.000000 -40.000000 5.197464
v 0.000000 -40.000000 -1.561034
v 20.000000 -40.000000 -8.681761
v 40.000000 -40.000000 -15.750229
v 60.000000 -40.000000 -22.618170
v 80.000000 -40.000000 -28.920748
v 100.000000 -40.000000 -33.967556
v 120.000000 -40.000000 -38.006413
v 140.000000 -40.000000 -41.237778
v 160.000000 -40.000000 -44.633911
v -160.000000 -20.000000 42.632412
v -140.000000 -20.000000 40.295586
v -120.000000 -20.000000 36.878288
v -100.000000 -20.000000 32.193291
v -80.000000 -20.000000 26.601826
v -60.000000 -20.000000 20.135090
v -40.000000 -20.000000 13.241287
v -20.000000 -20.000000 6.208525
v 0.000000 -20.000000 -1.073932
v 20.000000 -20.000000 -8.606498
v 40.000000 -20.000000 -16.259039
v 60.000000 -20.000000 -23.916313
v 80.000000 -20.000000 -30.752399
v 100.000000 -20.000000 -35.695889
v 120.000000 -20.000000 -39.524563
v 140.000000 -20.000000 -42.702091
v 160.000000 -20.000000 -45.583168
v -160.000000 0.000000 48.509239
v -140.000000 0.000000 45.369099
v -120.000000 0.000000 41.038048
v -100.000000 0.000000 35.429047
v -80.000000 0.000000 29.088812
v -60.000000 0.000000 21.978731
v -40.000000 0.000000 14.652891
v -20.000000 0.000000 7.139908
v 0.000000 0.000000 -0.619003
v 20.000000 0.000000 -8.663505
v 40.000000 0.000000 -17.162975
v 60.000000 0.000000 -25.558117
v 80.000000 0.000000 -32.639774
v 100.000000 0.000000 -37.003418
v 120.000000 0.000000 -39.865273
v 140.000000 0.000000 -42.059277
v 160.000000 0.000000 -43.722416
v -160.000000 20.000000 53.948341
v -140.000000 20.000000 49.865650
v -120.000000 20.000000 44.533756
v -100.000000 20.000000 37.920650
v -80.000000 20.000000 30.856173
v -60.000000 20.000000 23.438963
v -40.000000 20.000000 15.789614
v -20.000000 20.000000 7.905892
v 0.000000 20.000000 -0.254624
v 20.000000 20.000000 -9.013799
v 40.000000 20.000000 -18.397432
v 60.000000 20.000000 -27.218565
v 80.000000 20.000000 -33.697330
v 100.000000 20.000000 -36.261711
v 120.000000 20.000000 -37.322678
v 140.000000 20.000000 -37.735641
v 160.000000 20.000000 -38.101723
v -160.000000 40.000000 58.180416
v -140.000000 40.000000 53.220963
v -120.000000 40.000000 47.074497
v -100.000000 40.000000 39.689823
v -80.000000 40.000000 32.074238
v -60.000000 40.000000 24.395105
v -40.000000 40.000000 16.586878
v -20.000000 40.000000 8.402087
v 0.000000 40.000000 -0.135347
v 20.000000 40.000000 -9.560715
v 40.000000 40.000000 -19.575586
v 60.000000 40.000000 -27.745264
v 80.000000 40.000000 -32.104248
v 100.000000 40.000000 -31.895954
v 120.000000 40.000000 -31.113016
v 140.000000 40.000000 -30.604132
v 160.000000 40.000000 -30.403177
v -160.000000 60.000000 61.300842
v -140.000000 60.000000 55.638134
v -120.000000 60.000000 48.790527
v -100.000000 60.000000 40.917313
v -80.000000 60.000000 32.881226
v -60.000000 60.000000 24.992208
v -40.000000 60.000000 16.977968
v -20.000000 60.000000 8.488188
v 0.000000 60.000000 -0.430588
v 20.000000 60.000000 -10.330050
v 40.000000 60.000000 -20.324286
v 60.000000 60.000000 -26.645269
v 80.000000 60.000000 -28.133631
v 100.000000 60.000000 -25.598211
v 120.000000 60.000000 -23.264925
v 140.000000 60.000000 -22.335726
v 160.000000 60.000000 -22.194178
v -160.000000 80.000000 62.816414
v -140.000000 80.000000 56.848324
v -120.000000 80.000000 49.941395
v -100.000000 80.000000 41.952801
v -80.000000 80.000000 33.677406
v -60.000000 80.000000 25.389606
v -40.000000 80.000000 16.939756
v -20.000000 80.000000 7.972888
v 0.000000 80.000000 -1.274684
v 20.000000 80.000000 -11.290654
v 40.000000 80.000000 -20.211763
v 60.000000 80.000000 -24.078362
v 80.000000 80.000000 -22.788031
v 100.000000 80.000000 -18.720213
v 120.000000 80.000000 -15.572576
v 140.000000 80.000000 -14.432229
v 160.000000 80.000000 -14.457789
v -160.000000 100.000000 63.267212
v -140.000000 100.000000 57.092186
v -120.000000 100.000000 50.220779
v -100.000000 100.000000 42.507736
v -80.000000 100.000000 34.358795
v -60.000000 100.000000 25.887798
v -40.000000 100.000000 17.036467
v -20.000000 100.000000 7.723722
v 0.000000 100.000000 -1.901020
v 20.000000 100.000000 -11.838798
v 40.000000 100.000000 -19.267035
v 60.000000 100.000000 -20.748682
v 80.000000 100.000000 -17.233017
v 100.000000 100.000000 -12.419649
v 120.000000 100.000000 -8.800413
v 140.000000 100.000000 -7.392244
v 160.000000 100.000000 -7.655963
v -160.000000 120.000000 62.686779
v -140.000000 120.000000 56.497620
v -120.000000 120.000000 49.749332
v -100.000000 120.000000 42.551823
v -80.000000 120.000000 34.889130
v -60.000000 120.000000 26.458158
v -40.000000 120.000000 17.365768
v -20.000000 120.000000 7.721932
v 0.000000 120.000000 -2.197827
v 20.000000 120.000000 -11.786735
v 40.000000 120.000000 -17.646666
v 60.000000 120.000000 -16.716742
v 80.000000 120.000000 -11.935274
v 100.000000 120.000000 -6.755051
v 120.000000 120.000000 -2.957003
v 140.000000 120.000000 -1.443697
v 160.000000 120.000000 -2.145961
v -160.000000 140.000000 61.088627
v -140.000000 140.000000 55.283112
v -120.000000 140.000000 48.929741
v -100.000000 140.000000 42.137947
v -80.000000 140.000000 34.914906
v -60.000000 140.000000 26.750046
v -40.000000 140.000000 17.671974
v -20.000000 140.000000 7.797596
v 0.000000 140.000000 -2.113564
v 20.000000 140.000000 -10.526088
v 40.000000 140.000000 -14.620915
v 60.000000 140.000000 -12.458352
v 80.000000 140.000000 -7.255844
v 100.000000 140.000000 -2.055730
v 120.000000 140.000000 1.757895
v 140.000000 140.000000 3.010588
v 160.000000 140.000000 1.328493
v -160.000000 160.000000 59.105103
v -140.000000 160.000000 53.610508
v -120.000000 160.000000 47.674561
v -100.000000 160.000000 41.303814
v -80.000000 160.000000 34.417332
v -60.000000 160.000000 26.577705
v -40.000000 160.000000 17.711323
v -20.000000 160.000000 7.934321
v 0.000000 160.000000 -1.402559
v 20.000000 160.000000 -8.446729
v 40.000000 160.000000 -10.751253
v 60.000000 160.000000 -8.079961
v 80.000000 160.000000 -3.120889
v 100.000000 160.000000 1.782018
v 120.000000 160.000000 5.094999
v 140.000000 160.000000 5.290027
v 160.000000 160.000000 2.378060
vn 0.0219 -0.3852 0.9226
vn 0.0007 -0.3957 0.9184
vn 0.0010 -0.3858 0.9226
vn 0.0037 -0.3823 0.9240
vn -0.0122 -0.3895 0.9209
vn -0.0017 -0.3811 0.9245
vn -0.0166 -0.3727 0.9278
vn -0.0035 -0.3688 0.9295
vn -0.0100 -0.3622 0.9320
vn 0.0049 -0.3539 0.9353
vn 0.0061 -0.3505 0.9365
vn 0.0286 -0.3292 0.9438
vn 0.0312 -0.3344 0.9419
vn 0.0647 -0.2951 0.9533
vn 0.0632 -0.3092 0.9489
vn 0.1101 -0.2516 0.9616
vn 0.1016 -0.2740 0.9564
vn 0.1478 -0.2026 0.9680
vn 0.1399 -0.2443 0.9596
vn 0.1820 -0.1589 0.9704
vn 0.1748 -0.2047 0.9631
vn 0.2195 -0.1175 0.9685
vn 0.2126 -0.1671 0.9628
vn 0.2538 -0.0779 0.9641
vn 0.2537 -0.1310 0.9584
vn 0.2863 -0.0447 0.9571
vn 0.2847 -0.0997 0.9534
vn 0.3079 -0.0200 0.9512
vn 0.2894 -0.0733 0.9544
vn 0.3024 -0.0090 0.9531
vn 0.2601 -0.0551 0.9640
vn 0.2570 -0.0228 0.9661
vn 0.2021 -0.0477 0.9782
vn 0.1823 -0.0579 0.9815
vn 0.0021 -0.3736 0.9276
vn -0.0028 -0.3727 0.9280
vn 0.0075 -0.3667 0.9303
vn 0.0148 -0.3517 0.9360
vn 0.0354 -0.3214 0.9463
vn 0.0721 -0.2778 0.9579
vn 0.1162 -0.2265 0.9671
vn 0.1620 -0.1734 0.9714
vn 0.1984 -0.1296 0.9715
vn 0.2270 -0.0820 0.9704
vn 0.2554 -0.0413 0.9660
vn 0.2832 -0.0157 0.9589
vn 0.3087 0.0030 0.9511
vn 0.3184 0.0168 0.9478
vn 0.2878 0.0110 0.9576
vn 0.2149 -0.0363 0.9760
vn 0.1384 -0.0940 0.9859
vn 0.0079 -0.3642 0.9313
vn -0.0065 -0.3695 0.9292
vn 0.0236 -0.3488 0.9369
vn 0.0479 -0.3219 0.9456
vn 0.0870 -0.2759 0.9572
vn 0.1313 -0.2177 0.9671
vn 0.1743 -0.1604 0.9715
vn 0.2091 -0.1114 0.9715
vn 0.2388 -0.0673 0.9687
vn 0.2679 -0.0279 0.9630
vn 0.2827 0.0030 0.9592
vn 0.2953 0.0175 0.9552
vn 0.3161 0.0189 0.9485
vn 0.3152 0.0069 0.9490
vn 0.2537 -0.0166 0.9671
vn 0.1567 -0.0748 0.9848
vn 0.1010 -0.1090 0.9889
vn 0.0258 -0.3530 0.9353
vn -0.0003 -0.3672 0.9301
vn 0.0554 -0.3266 0.9435
vn 0.0955 -0.2827 0.9544
vn 0.1466 -0.2277 0.9626
vn 0.1917 -0.1698 0.9667
vn 0.2233 -0.1177 0.9676
vn 0.2532 -0.0748 0.9645
vn 0.2783 -0.0322 0.9600
vn 0.2930 -0.0019 0.9561
vn 0.2975 0.0169 0.9546
vn 0.2978 0.0298 0.9542
vn 0.2990 0.0245 0.9539
vn 0.2863 -0.0077 0.9581
vn 0.2122 -0.0478 0.9761
vn 0.1256 -0.0804 0.9888
vn 0.1203 -0.0687 0.9904
vn 0.0539 -0.3294 0.9427
vn 0.0146 -0.3530 0.9355
vn 0.1013 -0.2897 0.9517
vn 0.1536 -0.2403 0.9585
vn 0.2031 -0.1876 0.9610
vn 0.2409 -0.1363 0.9609
vn 0.2664 -0.0910 0.9596
vn 0.2899 -0.0525 0.9556
vn 0.3067 -0.0243 0.9515
vn 0.3127 0.0019 0.9498
vn 0.3115 0.0216 0.9500
vn 0.3020 0.0369 0.9526
vn 0.2818 0.0383 0.9587
vn 0.2494 0.0088 0.9684
vn 0.1855 -0.0312 0.9822
vn 0.1373 -0.0263 0.9902
vn 0.1598 0.0067 0.9871
vn 0.0957 -0.2912 0.9519
vn 0.0406 -0.3272 0.9441
vn 0.1505 -0.2488 0.9568
vn 0.2006 -0.2013 0.9588
vn 0.2496 -0.1561 0.9557
vn 0.2843 -0.1141 0.9519
vn 0.3019 -0.0760 0.9503
vn 0.3146 -0.0467 0.9481
vn 0.3276 -0.0242 0.9445
vn 0.3342 -0.0012 0.9425
vn 0.3289 0.0234 0.9441
vn 0.3124 0.0509 0.9486
vn 0.2723 0.0672 0.9599
vn 0.2212 0.0527 0.9738
vn 0.1787 0.0313 0.9834
vn 0.1633 0.0399 0.9858
vn 0.1811 0.0438 0.9825
vn 0.1375 -0.2563 0.9568
vn 0.0778 -0.2964 0.9519
vn 0.1939 -0.2155 0.9571
vn 0.2452 -0.1688 0.9547
vn 0.2862 -0.1289 0.9495
vn 0.3153 -0.0962 0.9441
vn 0.3280 -0.0692 0.9421
vn 0.3363 -0.0460 0.9406
vn 0.3471 -0.0222 0.9376
vn 0.3549 -0.0004 0.9349
vn 0.3574 0.0331 0.9334
vn 0.3398 0.0689 0.9380
vn 0.2814 0.0888 0.9555
vn 0.2136 0.0739 0.9741
vn 0.1723 0.0457 0.9840
vn 0.1497 0.0203 0.9885
vn 0.1276 -0.0226 0.9916
vn 0.1787 -0.2290 0.9569
vn 0.1187 -0.2703 0.9554
vn 0.2371 -0.1826 0.9542
vn 0.2836 -0.1359 0.9493
vn 0.3171 -0.1003 0.9431
vn 0.3384 -0.0775 0.9378
vn 0.3472 -0.0596 0.9359
vn 0.3563 -0.0397 0.9335
vn 0.3674 -0.0190 0.9299
vn 0.3822 0.0094 0.9240
vn 0.3886 0.0492 0.9201
vn 0.3598 0.0768 0.9299
vn 0.2744 0.0706 0.9590
vn 0.1777 0.0139 0.9840
vn 0.1252 -0.0545 0.9906
vn 0.0952 -0.1227 0.9879
vn 0.0544 -0.1836 0.9815
vn 0.2250 -0.1877 0.9561
vn 0.1624 -0.2319 0.9591
vn 0.2832 -0.1431 0.9483
vn 0.3219 -0.1003 0.9414
vn 0.3395 -0.0700 0.9380
vn 0.3520 -0.0564 0.9343
vn 0.3617 -0.0450 0.9312
vn 0.3721 -0.0293 0.9277
vn 0.3895 -0.0111 0.9209
vn 0.4129 0.0204 0.9105
vn 0.4136 0.0548 0.9088
vn 0.3568 0.0510 0.9328
vn 0.2205 -0.0131 0.9753
vn 0.0895 -0.1262 0.9880
vn 0.0360 -0.2136 0.9763
vn 0.0187 -0.2753 0.9612
vn 0.0062 -0.3159 0.9488
vn 0.2650 -0.1377 0.9544
vn 0.2073 -0.1769 0.9621
vn 0.3188 -0.1003 0.9425
vn 0.3502 -0.0700 0.9340
vn 0.3567 -0.0472 0.9330
vn 0.3605 -0.0365 0.9320
vn 0.3712 -0.0275 0.9281
vn 0.3858 -0.0133 0.9225
vn 0.4096 0.0040 0.9122
vn 0.4369 0.0296 0.8990
vn 0.4135 0.0438 0.9095
vn 0.2988 -0.0137 0.9542
vn 0.1022 -0.1370 0.9853
vn -0.0239 -0.2575 0.9660
vn -0.0304 -0.3314 0.9430
vn -0.0166 -0.3592 0.9331
vn -0.0033 -0.3695 0.9292
vn 0.2974 -0.0862 0.9509
vn 0.2444 -0.1116 0.9632
vn 0.3446 -0.0671 0.9363
vn 0.3690 -0.0525 0.9279
vn 0.3695 -0.0373 0.9285
vn 0.3693 -0.0231 0.9290
vn 0.3814 -0.0081 0.9244
vn 0.3991 0.0099 0.9169
vn 0.4256 0.0258 0.9046
vn 0.4450 0.0387 0.8947
vn 0.3776 0.0147 0.9258
vn 0.1908 -0.0896 0.9775
vn -0.0255 -0.2267 0.9736
vn -0.1148 -0.3108 0.9435
vn -0.0758 -0.3611 0.9294
vn -0.0248 -0.3747 0.9268
vn 0.0106 -0.3703 0.9289
vn 0.3062 -0.0346 0.9513
vn 0.2653 -0.0473 0.9630
vn 0.3487 -0.0335 0.9366
vn 0.3764 -0.0368 0.9257
vn 0.3824 -0.0341 0.9234
vn 0.3859 -0.0207 0.9223
vn 0.3991 -0.0014 0.9169
vn 0.4142 0.0172 0.9100
vn 0.4336 0.0331 0.9005
vn 0.4277 0.0341 0.9033
vn 0.3044 -0.0252 0.9522
vn 0.0636 -0.1455 0.9873
vn -0.1282 -0.2608 0.9569
vn -0.1688 -0.3085 0.9361
vn -0.1003 -0.3383 0.9357
vn -0.0261 -0.3498 0.9365
vn 0.0327 -0.3414 0.9393
vn 0.3101 0.0083 0.9507
vn 0.2772 0.0031 0.9608
vn 0.3425 0.0045 0.9395
vn 0.3685 -0.0140 0.9295
vn 0.3837 -0.0278 0.9231
vn 0.3973 -0.0244 0.9174
vn 0.4134 -0.0097 0.9105
vn 0.4279 0.0057 0.9038
vn 0.4392 0.0207 0.8981
vn 0.3982 0.0114 0.9172
vn 0.2170 -0.0625 0.9742
vn -0.0499 -0.1808 0.9823
vn -0.1970 -0.2567 0.9462
vn -0.1980 -0.2809 0.9391
vn -0.1190 -0.2986 0.9469
vn -0.0272 -0.3087 0.9508
vn 0.0565 -0.2937 0.9542
vn 0.3075 0.0430 0.9506
vn 0.2808 0.0522 0.9583
vn 0.3290 0.0304 0.9438
vn 0.3483 0.0087 0.9374
vn 0.3732 -0.0129 0.9276
vn 0.4012 -0.0196 0.9158
vn 0.4240 -0.0145 0.9055
vn 0.4393 -0.0017 0.8983
vn 0.4383 0.0048 0.8988
vn 0.3601 -0.0306 0.9324
vn 0.1215 -0.1145 0.9860
vn -0.1385 -0.2010 0.9698
vn -0.2349 -0.2352 0.9431
vn -0.2124 -0.2451 0.9459
vn -0.1273 -0.2531 0.9590
vn -0.0197 -0.2516 0.9676
vn 0.0920 -0.2182 0.9716
vn 0.2899 0.0687 0.9546
vn 0.2733 0.0858 0.9581
vn 0.3120 0.0494 0.9488
vn 0.3306 0.0295 0.9433
vn 0.3591 0.0111 0.9332
vn 0.3959 -0.0027 0.9183
vn 0.4281 -0.0078 0.9037
vn 0.4433 -0.0048 0.8963
vn 0.4164 -0.0181 0.9090
vn 0.2975 -0.0795 0.9514
vn 0.0476 -0.1697 0.9844
vn -0.1771 -0.2077 0.9620
vn -0.2462 -0.2085 0.9465
vn -0.2152 -0.2038 0.9551
vn -0.1232 -0.1958 0.9729
vn 0.0106 -0.1660 0.9861
vn 0.1478 -0.1112 0.9828
vn 0.2736 0.0905 0.9576
vn 0.2617 0.1035 0.9596
vn 0.2933 0.0705 0.9534
vn 0.3142 0.0486 0.9481
vn 0.3453 0.0338 0.9379
vn 0.3853 0.0189 0.9226
vn 0.4224 0.0050 0.9064
vn 0.4312 -0.0065 0.9023
vn 0.3786 -0.0466 0.9244
vn 0.2259 -0.1210 0.9666
vn -0.0090 -0.1948 0.9808
vn -0.1833 -0.2069 0.9610
vn -0.2352 -0.1859 0.9540
vn -0.1986 -0.1605 0.9669
vn -0.0867 -0.1214 0.9888
vn 0.0677 -0.0591 0.9960
vn 0.2070 0.0068 0.9783
vt 0.015625 0.015625
vt 0.076172 0.015625
vt 0.076172 0.076172
vt 0.015625 0.076172
vt 0.136719 0.015625
vt 0.136719 0.076172
vt 0.197266 0.015625
vt 0.197266 0.076172
vt 0.257812 0.015625
vt 0.257812 0.076172
vt 0.318359 0.015625
vt 0.318359 0.076172
vt 0.378906 0.015625
vt 0.378906 0.076172
vt 0.439453 0.015625
vt 0.439453 0.076172
vt 0.500000 0.015625
vt 0.500000 0.076172
vt 0.560547 0.015625
vt 0.560547 0.076172
vt 0.621094 0.015625
vt 0.621094 0.076172
vt 0.681641 0.015625
vt 0.681641 0.076172
vt 0.742188 0.015625
vt 0.742188 0.076172
vt 0.802734 0.015625
vt 0.802734 0.076172
vt 0.863281 0.015625
vt 0.863281 0.076172
vt 0.923828 0.015625
vt 0.923828 0.076172
vt 0.984375 0.015625
vt 0.984375 0.076172
vt 0.076172 0.136719
vt 0.015625 0.136719
vt 0.136719 0.136719
vt 0.197266 0.136719
vt 0.257812 0.136719
vt 0.318359 0.136719
vt 0.378906 0.136719
vt 0.439453 0.136719
vt 0.500000 0.136719
vt 0.560547 0.136719
vt 0.621094 0.136719
vt 0.681641 0.136719
vt 0.742188 0.136719
vt 0.802734 0.136719
vt 0.863281 0.136719
vt 0.923828 0.136719
vt 0.984375 0.136719
vt 0.076172 0.197266
vt 0.015625 0.197266
vt 0.136719 0.197266
vt 0.197266 0.197266
vt 0.257812 0.197266
vt 0.318359 0.197266
vt 0.378906 0.197266
vt 0.439453 0.197266
vt 0.500000 0.197266
vt 0.560547 0.197266
vt 0.621094 0.197266
vt 0.681641 0.197266
vt 0.742188 0.197266
vt 0.802734 0.197266
vt 0.863281 0.197266
vt 0.923828 0.197266
vt 0.984375 0.197266
vt 0.076172 0.257812
vt 0.015625 0.257812
vt 0.136719 0.257812
vt 0.197266 0.257812
vt 0.257812 0.257812
vt 0.318359 0.257812
vt 0.378906 0.257812
vt 0.439453 0.257812
vt 0.500000 0.257812
vt 0.560547 0.257812
vt 0.621094 0.257812
vt 0.681641 0.257812
vt 0.742188 0.257812
vt 0.802734 0.257812
vt 0.863281 0.257812
vt 0.923828 0.257812
vt 0.984375 0.257812
vt 0.076172 0.318359
vt 0.015625 0.318359
vt 0.136719 0.318359
vt 0.197266 0.318359
vt 0.257812 0.318359
vt 0.318359 0.318359
vt 0.378906 0.318359
vt 0.439453 0.318359
vt 0.500000 0.318359
vt 0.560547 0.318359
vt 0.621094 0.318359
vt 0.681641 0.318359
vt 0.742188 0.318359
vt 0.802734 0.318359
vt 0.863281 0.318359
vt 0.923828 0.318359
vt 0.984375 0.318359
vt 0.076172 0.378906
vt 0.015625 0.378906
vt 0.136719 0.378906
vt 0.197266 0.378906
vt 0.257812 0.378906
vt 0.318359 0.378906
vt 0.378906 0.378906
vt 0.439453 0.378906
vt 0.500000 0.378906
vt 0.560547 0.378906
vt 0.621094 0.378906
vt 0.681641 0.378906
vt 0.742188 0.378906
vt 0.802734 0.378906
vt 0.863281 0.378906
vt 0.923828 0.378906
vt 0.984375 0.378906
vt 0.076172 0.439453
vt 0.015625 0.439453
vt 0.136719 0.439453
vt 0.197266 0.439453
vt 0.257812 0.439453
vt 0.318359 0.439453
vt 0.378906 0.439453
vt 0.439453 0.439453
vt 0.500000 0.439453
vt 0.560547 0.439453
vt 0.621094 0.439453
vt 0.681641 0.439453
vt 0.742188 0.439453
vt 0.802734 0.439453
vt 0.863281 0.439453
vt 0.923828 0.439453
vt 0.984375 0.439453
vt 0.076172 0.500000
vt 0.015625 0.500000
vt 0.136719 0.500000
vt 0.197266 0.500000
vt 0.257812 0.500000
vt 0.318359 0.500000
vt 0.378906 0.500000
vt 0.439453 0.500000
vt 0.500000 0.500000
vt 0.560547 0.500000
vt 0.621094 0.500000
vt 0.681641 0.500000
vt 0.742188 0.500000
vt 0.802734 0.500000
vt 0.863281 0.500000
vt 0.923828 0.500000
vt 0.984375 0.500000
vt 0.076172 0.560547
vt 0.015625 0.560547
vt 0.136719 0.560547
vt 0.197266 0.560547
vt 0.257812 0.560547
vt 0.318359 0.560547
vt 0.378906 0.560547
vt 0.439453 0.560547
vt 0.500000 0.560547
vt 0.560547 0.560547
vt 0.621094 0.560547
vt 0.681641 0.560547
vt 0.742188 0.560547
vt 0.802734 0.560547
vt 0.863281 0.560547
vt 0.923828 0.560547
vt 0.984375 0.560547
vt 0.076172 0.621094
vt 0.015625 0.621094
vt 0.136719 0.621094
vt 0.197266 0.621094
vt 0.257812 0.621094
vt 0.318359 0.621094
vt 0.378906 0.621094
vt 0.439453 0.621094
vt 0.500000 0.621094
vt 0.560547 0.621094
vt 0.621094 0.621094
vt 0.681641 0.621094
vt 0.742188 0.621094
vt 0.802734 0.621094
vt 0.863281 0.621094
vt 0.923828 0.621094
vt 0.984375 0.621094
vt 0.076172 0.681641
vt 0.015625 0.681641
vt 0.136719 0.681641
vt 0.197266 0.681641
vt 0.257812 0.681641
vt 0.318359 0.681641
vt 0.378906 0.681641
vt 0.439453 0.681641
vt 0.500000 0.681641
vt 0.560547 0.681641
vt 0.621094 0.681641
vt 0.681641 0.681641
vt 0.742188 0.681641
vt 0.802734 0.681641
vt 0.863281 0.681641
vt 0.923828 0.681641
vt 0.984375 0.681641
vt 0.076172 0.742188
vt 0.015625 0.742188
vt 0.136719 0.742188
vt 0.197266 0.742188
vt 0.257812 0.742188
vt 0.318359 0.742188
vt 0.378906 0.742188
vt 0.439453 0.742188
vt 0.500000 0.742188
vt 0.560547 0.742188
vt 0.621094 0.742188
vt 0.681641 0.742188
vt 0.742188 0.742188
vt 0.802734 0.742188
vt 0.863281 0.742188
vt 0.923828 0.742188
vt 0.984375 0.742188
vt 0.076172 0.802734
vt 0.015625 0.802734
vt 0.136719 0.802734
vt 0.197266 0.802734
vt 0.257812 0.802734
vt 0.318359 0.802734
vt 0.378906 0.802734
vt 0.439453 0.802734
vt 0.500000 0.802734
vt 0.560547 0.802734
vt 0.621094 0.802734
vt 0.681641 0.802734
vt 0.742188 0.802734
vt 0.802734 0.802734
vt 0.863281 0.802734
vt 0.923828 0.802734
vt 0.984375 0.802734
vt 0.076172 0.863281
vt 0.015625 0.863281
vt 0.136719 0.863281
vt 0.197266 0.863281
vt 0.257812 0.863281
vt 0.318359 0.863281
vt 0.378906 0.863281
vt 0.439453 0.863281
vt 0.500000 0.863281
vt 0.560547 0.863281
vt 0.621094 0.863281
vt 0.681641 0.863281
vt 0.742188 0.863281
vt 0.802734 0.863281
vt 0.863281 0.863281
vt 0.923828 0.863281
vt 0.984375 0.863281
vt 0.076172 0.923828
vt 0.015625 0.923828
vt 0.136719 0.923828
vt 0.197266 0.923828
vt 0.257812 0.923828
vt 0.318359 0.923828
vt 0.378906 0.923828
vt 0.439453 0.923828
vt 0.500000 0.923828
vt 0.560547 0.923828
vt 0.621094 0.923828
vt 0.681641 0.923828
vt 0.742188 0.923828
vt 0.802734 0.923828
vt 0.863281 0.923828
vt 0.923828 0.923828
vt 0.984375 0.923828
vt 0.076172 0.984375
vt 0.015625 0.984375
vt 0.136719 0.984375
vt 0.197266 0.984375
vt 0.257812 0.984375
vt 0.318359 0.984375
vt 0.378906 0.984375
vt 0.439453 0.984375
vt 0.500000 0.984375
vt 0.560547 0.984375
vt 0.621094 0.984375
vt 0.681641 0.984375
vt 0.742188 0.984375
vt 0.802734 0.984375
vt 0.863281 0.984375
vt 0.923828 0.984375
vt 0.984375 0.984375
s 1
f 1/1/1 2/2/2 19/3/3
f 1/1/1 19/3/3 18/4/4
f 2/2/2 3/5/5 20/6/6
f 2/2/2 20/6/6 19/3/3
f 3/5/5 4/7/7 21/8/8
f 3/5/5 21/8/8 20/6/6
f 4/7/7 5/9/9 22/10/10
f 4/7/7 22/10/10 21/8/8
f 5/9/9 6/11/11 23/12/12
f 5/9/9 23/12/12 22/10/10
f 6/11/11 7/13/13 24/14/14
f 6/11/11 24/14/14 23/12/12
f 7/13/13 8/15/15 25/16/16
f 7/13/13 25/16/16 24/14/14
f 8/15/15 9/17/17 26/18/18
f 8/15/15 26/18/18 25/16/16
f 9/17/17 10/19/19 27/20/20
f 9/17/17 27/20/20 26/18/18
f 10/19/19 11/21/21 28/22/22
f 10/19/19 28/22/22 27/20/20
f 11/21/21 12/23/23 29/24/24
f 11/21/21 29/24/24 28/22/22
f 12/23/23 13/25/25 30/26/26
f 12/23/23 30/26/26 29/24/24
f 13/25/25 14/27/27 31/28/28
f 13/25/25 31/28/28 30/26/26
f 14/27/27 15/29/29 32/30/30
f 14/27/27 32/30/30 31/28/28
f 15/29/29 16/31/31 33/32/32
f 15/29/29 33/32/32 32/30/30
f 16/31/31 17/33/33 34/34/34
f 16/31/31 34/34/34 33/32/32
f 18/4/4 19/3/3 36/35/35
f 18/4/4 36/35/35 35/36/36
f 19/3/3 20/6/6 37/37/37
f 19/3/3 37/37/37 36/35/35
f 20/6/6 21/8/8 38/38/38
f 20/6/6 38/38/38 37/37/37
f 21/8/8 22/10/10 39/39/39
f 21/8/8 39/39/39 38/38/38
f 22/10/10 23/12/12 40/40/40
f 22/10/10 40/40/40 39/39/39
f 23/12/12 24/14/14 41/41/41
f 23/12/12 41/41/41 40/40/40
f 24/14/14 25/16/16 42/42/42
f 24/14/14 42/42/42 41/41/41
f 25/16/16 26/18/18 43/43/43
f 25/16/16 43/43/43 42/42/42
f 26/18/18 27/20/20 44/44/44
f 26/18/18 44/44/44 43/43/43
f 27/20/20 28/22/22 45/45/45
f 27/20/20 45/45/45 44/44/44
f 28/22/22 29/24/24 46/46/46
f 28/22/22 46/46/46 45/45/45
f 29/24/24 30/26/26 47/47/47
f 29/24/24 47/47/47 46/46/46
f 30/26/26 31/28/28 48/48/48
f 30/26/26 48/48/48 47/47/47
f 31/28/28 32/30/30 49/49/49
f 31/28/28 49/49/49 48/48/48
f 32/30/30 33/32/32 50/50/50
f 32/30/30 50/50/50 49/49/49
f 33/32/32 34/34/34 51/51/51
f 33/32/32 51/51/51 50/50/50
f 35/36/36 36/35/35 53/52/52
f 35/36/36 53/52/52 52/53/53
f 36/35/35 37/37/37 54/54/54
f 36/35/35 54/54/54 53/52/52
f 37/37/37 38/38/38 55/55/55
f 37/37/37 55/55/55 54/54/54
f 38/38/38 39/39/39 56/56/56
f 38/38/38 56/56/56 55/55/55
f 39/39/39 40/40/40 57/57/57
f 39/39/39 57/57/57 56/56/56
f 40/40/40 41/41/41 58/58/58
f 40/40/40 58/58/58 57/57/57
f 41/41/41 42/42/42 59/59/59
f 41/41/41 59/59/59 58/58/58
f 42/42/42 43/43/43 60/60/60
f 42/42/42 60/60/60 59/59/59
f 43/43/43 44/44/44 61/61/61
f 43/43/43 61/61/61 60/60/60
f 44/44/44 45/45/45 62/62/62
f 44/44/44 62/62/62 61/61/61
f 45/45/45 46/46/46 63/63/63
f 45/45/45 63/63/63 62/62/62
f 46/46/46 47/47/47 64/64/64
f 46/46/46 64/64/64 63/63/63
f 47/47/47 48/48/48 65/65/65
f 47/47/47 65/65/65 64/64/64
f 48/48/48 49/49/49 66/66/66
f 48/48/48 66/66/66 65/65/65
f 49/49/49 50/50/50 67/67/67
f 49/49/49 67/67/67 66/66/66
f 50/50/50 51/51/51 68/68/68
f 50/50/50 68/68/68 67/67/67
f 52/53/53 53/52/52 70/69/69
f 52/53/53 70/69/69 69/70/70
f 53/52/52 54/54/54 71/71/71
f 53/52/52 71/71/71 70/69/69
f 54/54/54 55/55/55 72/72/72
f 54/54/54 72/72/72 71/71/71
f 55/55/55 56/56/56 73/73/73
f 55/55/55 73/73/73 72/72/72
f 56/56/56 57/57/57 74/74/74
f 56/56/56 74/74/74 73/73/73
f 57/57/57 58/58/58 75/75/75
f 57/57/57 75/75/75 74/74/74
f 58/58/58 59/59/59 76/76/76
f 58/58/58 76/76/76 75/75/75
f 59/59/59 60/60/60 77/77/77
f 59/59/59 77/77/77 76/76/76
f 60/60/60 61/61/61 78/78/78
f 60/60/60 78/78/78 77/77/77
f 61/61/61 62/62/62 79/79/79
f 61/61/61 79/79/79 78/78/78
f 62/62/62 63/63/63 80/80/80
f 62/62/62 80/80/80 79/79/79
f 63/63/63 64/64/64 81/81/81
f 63/63/63 81/81/81 80/80/80
f 64/64/64 65/65/65 82/82/82
f 64/64/64 82/82/82 81/81/81
f 65/65/65 66/66/66 83/83/83
f 65/65/65 83/83/83 82/82/82
f 66/66/66 67/67/67 84/84/84
f 66/66/66 84/84/84 83/83/83
f 67/67/67 68/68/68 85/85/85
f 67/67/67 85/85/85 84/84/84
f 69/70/70 70/69/69 87/86/86
f 69/70/70 87/86/86 86/87/87
f 70/69/69 71/71/71 88/88/88
f 70/69/69 88/88/88 87/86/86
f 71/71/71 72/72/72 89/89/89
f 71/71/71 89/89/89 88/88/88
f 72/72/72 73/73/73 90/90/90
f 72/72/72 90/90/90 89/89/89
f 73/73/73 74/74/74 91/91/91
f 73/73/73 91/91/91 90/90/90
f 74/74/74 75/75/75 92/92/92
f 74/74/74 92/92/92 91/91/91
f 75/75/75 76/76/76 93/93/93
f 75/75/75 93/93/93 92/92/92
f 76/76/76 77/77/77 94/94/94
f 76/76/76 94/94/94 93/93/93
f 77/77/77 78/78/78 95/95/95
f 77/77/77 95/95/95 94/94/94
f 78/78/78 79/79/79 96/96/96
f 78/78/78 96/96/96 95/95/95
f 79/79/79 80/80/80 97/97/97
f 79/79/79 97/97/97 96/96/96
f 80/80/80 81/81/81 98/98/98
f 80/80/80 98/98/98 97/97/97
f 81/81/81 82/82/82 99/99/99
f 81/81/81 99/99/99 98/98/98
f 82/82/82 83/83/83 100/100/100
f 82/82/82 100/100/100 99/99/99
f 83/83/83 84/84/84 101/101/101
f 83/83/83 101/101/101 100/100/100
f 84/84/84 85/85/85 102/102/102
f 84/84/84 102/102/102 101/101/101
f 86/87/87 87/86/86 104/103/103
f 86/87/87 104/103/103 103/104/104
f 87/86/86 88/88/88 105/105/105
f 87/86/86 105/105/105 104/103/103
f 88/88/88 89/89/89 106/106/106
f 88/88/88 106/106/106 105/105/105
f 89/89/89 90/90/90 107/107/107
f 89/89/89 107/107/107 106/106/106
f 90/90/90 91/91/91 108/108/108
f 90/90/90 108/108/108 107/107/107
f 91/91/91 92/92/92 109/109/109
f 91/91/91 109/109/109 108/108/108
f 92/92/92 93/93/93 110/110/110
f 92/92/92 110/110/110 109/109/109
f 93/93/93 94/94/94 111/111/111
f 93/93/93 111/111/111 110/110/110
f 94/94/94 95/95/95 112/112/112
f 94/94/94 112/112/112 111/111/111
f 95/95/95 96/96/96 113/113/113
f 95/95/95 113/113/113 112/112/112
f 96/96/96 97/97/97 114/114/114
f 96/96/96 114/114/114 113/113/113
f 97/97/97 98/98/98 115/115/115
f 97/97/97 115/115/115 114/114/114
f 98/98/98 99/99/99 116/116/116
f 98/98/98 116/116/116 115/115/115
f 99/99/99 100/100/100 117/117/117
f 99/99/99 117/117/117 116/116/116
f 100/100/100 101/101/101 118/118/118
f 100/100/100 118/118/118 117/117/117
f 101/101/101 102/102/102 119/119/119
f 101/101/101 119/119/119 118/118/118
f 103/104/104 104/103/103 121/120/120
f 103/104/104 121/120/120 120/121/121
f 104/103/103 105/105/105 122/122/122
f 104/103/103 122/122/122 121/120/120
f 105/105/105 106/106/106 123/123/123
f 105/105/105 123/123/123 122/122/122
f 106/106/106 107/107/107 124/124/124
f 106/106/106 124/124/124 123/123/123
f 107/107/107 108/108/108 125/125/125
f 107/107/107 125/125/125 124/124/124
f 108/108/108 109/109/109 126/126/126
f 108/108/108 126/126/126 125/125/125
f 109/109/109 110/110/110 127/127/127
f 109/109/109 127/127/127 126/126/126
f 110/110/110 111/111/111 128/128/128
f 110/110/110 128/128/128 127/127/127
f 111/111/111 112/112/112 129/129/129
f 111/111/111 129/129/129 128/128/128
f 112/112/112 113/113/113 130/130/130
f 112/112/112 130/130/130 129/129/129
f 113/113/113 114/114/114 131/131/131
f 113/113/113 131/131/131 130/130/130
f 114/114/114 115/115/115 132/132/132
f 114/114/114 132/132/132 131/131/131
f 115/115/115 116/116/116 133/133/133
f 115/115/115 133/133/133 132/132/132
f 116/116/116 117/117/117 134/134/134
f 116/116/116 134/134/134 133/133/133
f 117/117/117 118/118/118 135/135/135
f 117/117/117 135/135/135 134/134/134
f 118/118/118 119/119/119 136/136/136
f 118/118/118 136/136/136 135/135/135
f 120/121/121 121/120/120 138/137/137
f 120/121/121 138/137/137 137/138/138
f 121/120/120 122/122/122 139/139/139
f 121/120/120 139/139/139 138/137/137
f 122/122/122 123/123/123 140/140/140
f 122/122/122 140/140/140 139/139/139
f 123/123/123 124/124/124 141/141/141
f 123/123/123 141/141/141 140/140/140
f 124/124/124 125/125/125 142/142/142
f 124/124/124 142/142/142 141/141/141
f 125/125/125 126/126/126 143/143/143
f 125/125/125 143/143/143 142/142/142
f 126/126/126 127/127/127 144/144/144
f 126/126/126 144/144/144 143/143/143
f 127/127/127 128/128/128 145/145/145
f 127/127/127 145/145/145 144/144/144
f 128/128/128 129/129/129 146/146/146
f 128/128/128 146/146/146 145/145/145
f 129/129/129 130/130/130 147/147/147
f 129/129/129 147/147/147 146/146/146
f 130/130/130 131/131/131 148/148/148
f 130/130/130 148/148/148 147/147/147
f 131/131/131 132/132/132 149/149/149
f 131/131/131 149/149/149 148/148/148
f 132/132/132 133/133/133 150/150/150
f 132/132/132 150/150/150 149/149/149
f 133/133/133 134/134/134 151/151/151
f 133/133/133 151/151/151 150/150/150
f 134/134/134 135/135/135 152/152/152
f 134/134/134 152/152/152 151/151/151
f 135/135/135 136/136/136 153/153/153
f 135/135/135 153/153/153 152/152/152
f 137/138/138 138/137/137 155/154/154
f 137/138/138 155/154/154 154/155/155
f 138/137/137 139/139/139 156/156/156
f 138/137/137 156/156/156 155/154/154
f 139/139/139 140/140/140 157/157/157
f 139/139/139 157/157/157 156/156/156
f 140/140/140 141/141/141 158/158/158
f 140/140/140 158/158/158 157/157/157
f 141/141/141 142/142/142 159/159/159
f 141/141/141 159/159/159 158/158/158
f 142/142/142 143/143/143 160/160/160
f 142/142/142 160/160/160 159/159/159
f 143/143/143 144/144/144 161/161/161
f 143/143/143 161/161/161 160/160/160
f 144/144/144 145/145/145 162/162/162
f 144/144/144 162/162/162 161/161/161
f 145/145/145 146/146/146 163/163/163
f 145/145/145 163/163/163 162/162/162
f 146/146/146 147/147/147 164/164/164
f 146/146/146 164/164/164 163/163/163
f 147/147/147 148/148/148 165/165/165
f 147/147/147 165/165/165 164/164/164
f 148/148/148 149/149/149 166/166/166
f 148/148/148 166/166/166 165/165/165
f 149/149/149 150/150/150 167/167/167
f 149/149/149 167/167/167 166/166/166
f 150/150/150 151/151/151 168/168/168
f 150/150/150 168/168/168 167/167/167
f 151/151/151 152/152/152 169/169/169
f 151/151/151 169/169/169 168/168/168
f 152/152/152 153/153/153 170/170/170
f 152/152/152 170/170/170 169/169/169
f 154/155/155 155/154/154 172/171/171
f 154/155/155 172/171/171 171/172/172
f 155/154/154 156/156/156 173/173/173
f 155/154/154 173/173/173 172/171/171
f 156/156/156 157/157/157 174/174/174
f 156/156/156 174/174/174 173/173/173
f 157/157/157 158/158/158 175/175/175
f 157/157/157 175/175/175 174/174/174
f 158/158/158 159/159/159 176/176/176
f 158/158/158 176/176/176 175/175/175
f 159/159/159 160/160/160 177/177/177
f 159/159/159 177/177/177 176/176/176
f 160/160/160 161/161/161 178/178/178
f 160/160/160 178/178/178 177/177/177
f 161/161/161 162/162/162 179/179/179
f 161/161/161 179/179/179 178/178/178
f 162/162/162 163/163/163 180/180/180
f 162/162/162 180/180/180 179/179/179
f 163/163/163 164/164/164 181/181/181
f 163/163/163 181/181/181 180/180/180
f 164/164/164 165/165/165 182/182/182
f 164/164/164 182/182/182 181/181/181
f 165/165/165 166/166/166 183/183/183
f 165/165/165 183/183/183 182/182/182
f 166/166/166 167/167/167 184/184/184
f 166/166/166 184/184/184 183/183/183
f 167/167/167 168/168/168 185/185/185
f 167/167/167 185/185/185 184/184/184
f 168/168/168 169/169/169 186/186/186
f 168/168/168 186/186/186 185/185/185
f 169/169/169 170/170/170 187/187/187
f 169/169/169 187/187/187 186/186/186
f 171/172/172 172/171/171 189/188/188
f 171/172/172 189/188/188 188/189/189
f 172/171/171 173/173/173 190/190/190
f 172/171/171 190/190/190 189/188/188
f 173/173/173 174/174/174 191/191/191
f 173/173/173 191/191/191 190/190/190
f 174/174/174 175/175/175 192/192/192
f 174/174/174 192/192/192 191/191/191
f 175/175/175 176/176/176 193/193/193
f 175/175/175 193/193/193 192/192/192
f 176/176/176 177/177/177 194/194/194
f 176/176/176 194/194/194 193/193/193
f 177/177/177 178/178/178 195/195/195
f 177/177/177 195/195/195 194/194/194
f 178/178/178 179/179/179 196/196/196
f 178/178/178 196/196/196 195/195/195
f 179/179/179 180/180/180 197/197/197
f 179/179/179 197/197/197 196/196/196
f 180/180/180 181/181/181 198/198/198
f 180/180/180 198/198/198 197/197/197
f 181/181/181 182/182/182 199/199/199
f 181/181/181 199/199/199 198/198/198
f 182/182/182 183/183/183 200/200/200
f 182/182/182 200/200/200 199/199/199
f 183/183/183 184/184/184 201/201/201
f 183/183/183 201/201/201 200/200/200
f 184/184/184 185/185/185 202/202/202
f 184/184/184 202/202/202 201/201/201
f 185/185/185 186/186/186 203/203/203
f 185/185/185 203/203/203 202/202/202
f 186/186/186 187/187/187 204/204/204
f 186/186/186 204/204/204 203/203/203
f 188/189/189 189/188/188 206/205/205
f 188/189/189 206/205/205 205/206/206
f 189/188/188 190/190/190 207/207/207
f 189/188/188 207/207/207 206/205/205
f 190/190/190 191/191/191 208/208/208
f 190/190/190 208/208/208 207/207/207
f 191/191/191 192/192/192 209/209/209
f 191/191/191 209/209/209 208/208/208
f 192/192/192 193/193/193 210/210/210
f 192/192/192 210/210/210 209/209/209
f 193/193/193 194/194/194 211/211/211
f 193/193/193 211/211/211 210/210/210
f 194/194/194 195/195/195 212/212/212
f 194/194/194 212/212/212 211/211/211
f 195/195/195 196/196/196 213/213/213
f 195/195/195 213/213/213 212/212/212
f 196/196/196 197/197/197 214/214/214
f 196/196/196 214/214/214 213/213/213
f 197/197/197 198/198/198 215/215/215
f 197/197/197 215/215/215 214/214/214
f 198/198/198 199/199/199 216/216/216
f 198/198/198 216/216/216 215/215/215
f 199/199/199 200/200/200 217/217/217
f 199/199/199 217/217/217 216/216/216
f 200/200/200 201/201/201 218/218/218
f 200/200/200 218/218/218 217/217/217
f 201/201/201 202/202/202 219/219/219
f 201/201/201 219/219/219 218/218/218
f 202/202/202 203/203/203 220/220/220
f 202/202/202 220/220/220 219/219/219
f 203/203/203 204/204/204 221/221/221
f 203/203/203 221/221/221 220/220/220
f 205/206/206 206/205/205 223/222/222
f 205/206/206 223/222/222 222/223/223
f 206/205/205 207/207/207 224/224/224
f 206/205/205 224/224/224 223/222/222
f 207/207/207 208/208/208 225/225/225
f 207/207/207 225/225/225 224/224/224
f 208/208/208 209/209/209 226/226/226
f 208/208/208 226/226/226 225/225/225
f 209/209/209 210/210/210 227/227/227
f 209/209/209 227/227/227 226/226/226
f 210/210/210 211/211/211 228/228/228
f 210/210/210 228/228/228 227/227/227
f 211/211/211 212/212/212 229/229/229
f 211/211/211 229/229/229 228/228/228
f 212/212/212 213/213/213 230/230/230
f 212/212/212 230/230/230 229/229/229
f 213/213/213 214/214/214 231/231/231
f 213/213/213 231/231/231 230/230/230
f 214/214/214 215/215/215 232/232/232
f 214/214/214 232/232/232 231/231/231
f 215/215/215 216/216/216 233/233/233
f 215/215/215 233/233/233 232/232/232
f 216/216/216 217/217/217 234/234/234
f 216/216/216 234/234/234 233/233/233
f 217/217/217 218/218/218 235/235/235
f 217/217/217 235/235/235 234/234/234
f 218/218/218 219/219/219 236/236/236
f 218/218/218 236/236/236 235/235/235
f 219/219/219 220/220/220 237/237/237
f 219/219/219 237/237/237 236/236/236
f 220/220/220 221/221/221 238/238/238
f 220/220/220 238/238/238 237/237/237
f 222/223/223 223/222/222 240/239/239
f 222/223/223 240/239/239 239/240/240
f 223/222/222 224/224/224 241/241/241
f 223/222/222 241/241/241 240/239/239
f 224/224/224 225/225/225 242/242/242
f 224/224/224 242/242/242 241/241/241
f 225/225/225 226/226/226 243/243/243
f 225/225/225 243/243/243 242/242/242
f 226/226/226 227/227/227 244/244/244
f 226/226/226 244/244/244 243/243/243
f 227/227/227 228/228/228 245/245/245
f 227/227/227 245/245/245 244/244/244
f 228/228/228 229/229/229 246/246/246
f 228/228/228 246/246/246 245/245/245
f 229/229/229 230/230/230 247/247/247
f 229/229/229 247/247/247 246/246/246
f 230/230/230 231/231/231 248/248/248
f 230/230/230 248/248/248 247/247/247
f 231/231/231 232/232/232 249/249/249
f 231/231/231 249/249/249 248/248/248
f 232/232/232 233/233/233 250/250/250
f 232/232/232 250/250/250 249/249/249
f 233/233/233 234/234/234 251/251/251
f 233/233/233 251/251/251 250/250/250
f 234/234/234 235/235/235 252/252/252
f 234/234/234 252/252/252 251/251/251
f 235/235/235 236/236/236 253/253/253
f 235/235/235 253/253/253 252/252/252
f 236/236/236 237/237/237 254/254/254
f 236/236/236 254/254/254 253/253/253
f 237/237/237 238/238/238 255/255/255
f 237/237/237 255/255/255 254/254/254
f 239/240/240 240/239/239 257/256/256
f 239/240/240 257/256/256 256/257/257
f 240/239/239 241/241/241 258/258/258
f 240/239/239 258/258/258 257/256/256
f 241/241/241 242/242/242 259/259/259
f 241/241/241 259/259/259 258/258/258
f 242/242/242 243/243/243 260/260/260
f 242/242/242 260/260/260 259/259/259
f 243/243/243 244/244/244 261/261/261
f 243/243/243 261/261/261 260/260/260
f 244/244/244 245/245/245 262/262/262
f 244/244/244 262/262/262 261/261/261
f 245/245/245 246/246/246 263/263/263
f 245/245/245 263/263/263 262/262/262
f 246/246/246 247/247/247 264/264/264
f 246/246/246 264/264/264 263/263/263
f 247/247/247 248/248/248 265/265/265
f 247/247/247 265/265/265 264/264/264
f 248/248/248 249/249/249 266/266/266
f 248/248/248 266/266/266 265/265/265
f 249/249/249 250/250/250 267/267/267
f 249/249/249 267/267/267 266/266/266
f 250/250/250 251/251/251 268/268/268
f 250/250/250 268/268/268 267/267/267
f 251/251/251 252/252/252 269/269/269
f 251/251/251 269/269/269 268/268/268
f 252/252/252 253/253/253 270/270/270
f 252/252/252 270/270/270 269/269/269
f 253/253/253 254/254/254 271/271/271
f 253/253/253 271/271/271 270/270/270
f 254/254/254 255/255/255 272/272/272
f 254/254/254 272/272/272 271/271/271
f 256/257/257 257/256/256 274/273/273
f 256/257/257 274/273/273 273/274/274
f 257/256/256 258/258/258 275/275/275
f 257/256/256 275/275/275 274/273/273
f 258/258/258 259/259/259 276/276/276
f 258/258/258 276/276/276 275/275/275
f 259/259/259 260/260/260 277/277/277
f 259/259/259 277/277/277 276/276/276
f 260/260/260 261/261/261 278/278/278
f 260/260/260 278/278/278 277/277/277
f 261/261/261 262/262/262 279/279/279
f 261/261/261 279/279/279 278/278/278
f 262/262/262 263/263/263 280/280/280
f 262/262/262 280/280/280 279/279/279
f 263/263/263 264/264/264 281/281/281
f 263/263/263 281/281/281 280/280/280
f 264/264/264 265/265/265 282/282/282
f 264/264/264 282/282/282 281/281/281
f 265/265/265 266/266/266 283/283/283
f 265/265/265 283/283/283 282/282/282
f 266/266/266 267/267/267 284/284/284
f 266/266/266 284/284/284 283/283/283
f 267/267/267 268/268/268 285/285/285
f 267/267/267 285/285/285 284/284/284
f 268/268/268 269/269/269 286/286/286
f 268/268/268 286/286/286 285/285/285
f 269/269/269 270/270/270 287/287/287
f 269/269/269 287/287/287 286/286/286
f 270/270/270 271/271/271 288/288/288
f 270/270/270 288/288/288 287/287/287
f 271/271/271 272/272/272 289/289/289
f 271/271/271 289/289/289 288/288/288
