mtllib terrain_mid_03_01.mtl
usemtl terrain_mid_03_01
# Blender 5.1.1
# www.blender.org
o terrain_mid_03_01
v -160.000000 -160.000000 20.230534
v -140.000000 -160.000000 14.528730
v -120.000000 -160.000000 8.361474
v -100.000000 -160.000000 3.894731
v -80.000000 -160.000000 -0.347497
v -60.000000 -160.000000 -4.405236
v -40.000000 -160.000000 -8.097646
v -20.000000 -160.000000 -12.418468
v 0.000000 -160.000000 -17.523598
v 20.000000 -160.000000 -22.319969
v 40.000000 -160.000000 -26.898333
v 60.000000 -160.000000 -31.496294
v 80.000000 -160.000000 -35.790661
v 100.000000 -160.000000 -39.618420
v 120.000000 -160.000000 -42.083527
v 140.000000 -160.000000 -42.937504
v 160.000000 -160.000000 -41.401913
v -160.000000 -140.000000 22.199554
v -140.000000 -140.000000 16.500620
v -120.000000 -140.000000 9.973310
v -100.000000 -140.000000 4.345076
v -80.000000 -140.000000 -1.245338
v -60.000000 -140.000000 -6.873810
v -40.000000 -140.000000 -12.334035
v -20.000000 -140.000000 -17.526730
v 0.000000 -140.000000 -22.866268
v 20.000000 -140.000000 -27.310585
v 40.000000 -140.000000 -31.111019
v 60.000000 -140.000000 -34.351540
v 80.000000 -140.000000 -37.426041
v 100.000000 -140.000000 -40.583420
v 120.000000 -140.000000 -41.410465
v 140.000000 -140.000000 -39.331314
v 160.000000 -140.000000 -35.868019
v -160.000000 -120.000000 22.916752
v -140.000000 -120.000000 16.779348
v -120.000000 -120.000000 10.317176
v -100.000000 -120.000000 4.101539
v -80.000000 -120.000000 -2.373186
v -60.000000 -120.000000 -9.151208
v -40.000000 -120.000000 -15.593713
v -20.000000 -120.000000 -21.335947
v 0.000000 -120.000000 -25.676497
v 20.000000 -120.000000 -28.020456
v 40.000000 -120.000000 -29.904659
v 60.000000 -120.000000 -31.628584
v 80.000000 -120.000000 -33.548172
v 100.000000 -120.000000 -36.539242
v 120.000000 -120.000000 -37.328400
v 140.000000 -120.000000 -34.731625
v 160.000000 -120.000000 -30.551083
v -160.000000 -100.000000 22.738787
v -140.000000 -100.000000 16.205759
v -120.000000 -100.000000 10.158776
v -100.000000 -100.000000 3.903859
v -80.000000 -100.000000 -3.246891
v -60.000000 -100.000000 -10.396467
v -40.000000 -100.000000 -16.208824
v -20.000000 -100.000000 -20.714840
v 0.000000 -100.000000 -23.622515
v 20.000000 -100.000000 -24.895042
v 40.000000 -100.000000 -25.648115
v 60.000000 -100.000000 -26.591671
v 80.000000 -100.000000 -28.538509
v 100.000000 -100.000000 -31.835262
v 120.000000 -100.000000 -32.847103
v 140.000000 -100.000000 -30.167423
v 160.000000 -100.000000 -25.848467
v -160.000000 -80.000000 21.803606
v -140.000000 -80.000000 15.157026
v -120.000000 -80.000000 9.810658
v -100.000000 -80.000000 4.044627
v -80.000000 -80.000000 -3.098833
v -60.000000 -80.000000 -10.001387
v -40.000000 -80.000000 -13.835026
v -20.000000 -80.000000 -16.027536
v 0.000000 -80.000000 -17.600040
v 20.000000 -80.000000 -18.762264
v 40.000000 -80.000000 -19.580915
v 60.000000 -80.000000 -20.745846
v 80.000000 -80.000000 -23.393917
v 100.000000 -80.000000 -27.199900
v 120.000000 -80.000000 -28.424660
v 140.000000 -80.000000 -25.916243
v 160.000000 -80.000000 -21.581608
v -160.000000 -60.000000 21.890242
v -140.000000 -60.000000 14.573192
v -120.000000 -60.000000 10.201501
v -100.000000 -60.000000 6.715173
v -80.000000 -60.000000 1.852169
v -60.000000 -60.000000 -3.497020
v -40.000000 -60.000000 -7.385990
v -20.000000 -60.000000 -9.783383
v 0.000000 -60.000000 -11.250831
v 20.000000 -60.000000 -12.701100
v 40.000000 -60.000000 -14.214549
v 60.000000 -60.000000 -16.343035
v 80.000000 -60.000000 -19.544504
v 100.000000 -60.000000 -22.838627
v 120.000000 -60.000000 -24.216671
v 140.000000 -60.000000 -21.951982
v 160.000000 -60.000000 -17.449106
v -160.000000 -40.000000 22.690447
v -140.000000 -40.000000 14.953461
v -120.000000 -40.000000 11.156660
v -100.000000 -40.000000 9.118303
v -80.000000 -40.000000 6.803979
v -60.000000 -40.000000 3.782603
v -40.000000 -40.000000 0.421336
v -20.000000 -40.000000 -2.478878
v 0.000000 -40.000000 -4.668881
v 20.000000 -40.000000 -6.694713
v 40.000000 -40.000000 -9.164113
v 60.000000 -40.000000 -12.246802
v 80.000000 -40.000000 -15.920712
v 100.000000 -40.000000 -18.667931
v 120.000000 -40.000000 -20.044329
v 140.000000 -40.000000 -18.441193
v 160.000000 -40.000000 -14.783329
v -160.000000 -20.000000 23.946224
v -140.000000 -20.000000 16.395756
v -120.000000 -20.000000 12.696584
v -100.000000 -20.000000 11.165381
v -80.000000 -20.000000 10.823096
v -60.000000 -20.000000 10.244402
v -40.000000 -20.000000 8.459625
v -20.000000 -20.000000 5.465586
v 0.000000 -20.000000 2.255869
v 20.000000 -20.000000 -0.771630
v 40.000000 -20.000000 -4.160926
v 60.000000 -20.000000 -8.175303
v 80.000000 -20.000000 -12.124183
v 100.000000 -20.000000 -14.528656
v 120.000000 -20.000000 -15.779097
v 140.000000 -20.000000 -15.399824
v 160.000000 -20.000000 -13.238312
v -160.000000 0.000000 24.851580
v -140.000000 0.000000 18.701107
v -120.000000 0.000000 16.093163
v -100.000000 0.000000 15.263173
v -80.000000 0.000000 15.375729
v -60.000000 0.000000 15.337060
v -40.000000 0.000000 14.197778
v -20.000000 0.000000 11.932532
v 0.000000 0.000000 9.317169
v 20.000000 0.000000 5.960141
v 40.000000 0.000000 1.869436
v 60.000000 0.000000 -2.436323
v 80.000000 0.000000 -6.447262
v 100.000000 0.000000 -9.368934
v 120.000000 0.000000 -11.472795
v 140.000000 0.000000 -12.165700
v 160.000000 0.000000 -11.954221
v -160.000000 20.000000 25.552935
v -140.000000 20.000000 21.525543
v -120.000000 20.000000 19.808882
v -100.000000 20.000000 19.712175
v -80.000000 20.000000 20.177839
v -60.000000 20.000000 20.247541
v -40.000000 20.000000 19.124826
v -20.000000 20.000000 16.899431
v 0.000000 20.000000 14.681787
v 20.000000 20.000000 11.645586
v 40.000000 20.000000 7.565284
v 60.000000 20.000000 3.307003
v 80.000000 20.000000 -0.720083
v 100.000000 20.000000 -4.254635
v 120.000000 20.000000 -7.290056
v 140.000000 20.000000 -9.606707
v 160.000000 20.000000 -11.093719
v -160.000000 40.000000 26.280710
v -140.000000 40.000000 24.265018
v -120.000000 40.000000 23.125532
v -100.000000 40.000000 23.463144
v -80.000000 40.000000 24.627798
v -60.000000 40.000000 24.930586
v -40.000000 40.000000 23.470747
v -20.000000 40.000000 20.290436
v 0.000000 40.000000 17.913204
v 20.000000 40.000000 15.566701
v 40.000000 40.000000 12.315881
v 60.000000 40.000000 8.322811
v 80.000000 40.000000 4.313188
v 100.000000 40.000000 0.177785
v 120.000000 40.000000 -3.970781
v 140.000000 40.000000 -7.701867
v 160.000000 40.000000 -11.109447
v -160.000000 60.000000 26.741188
v -140.000000 60.000000 25.914059
v -120.000000 60.000000 25.191986
v -100.000000 60.000000 25.605099
v -80.000000 60.000000 26.591684
v -60.000000 60.000000 26.638132
v -40.000000 60.000000 24.858442
v -20.000000 60.000000 21.325043
v 0.000000 60.000000 19.069855
v 20.000000 60.000000 16.885916
v 40.000000 60.000000 13.595699
v 60.000000 60.000000 9.515601
v 80.000000 60.000000 5.264347
v 100.000000 60.000000 0.855160
v 120.000000 60.000000 -3.932370
v 140.000000 60.000000 -8.719493
v 160.000000 60.000000 -13.356713
v -160.000000 80.000000 26.946341
v -140.000000 80.000000 26.528276
v -120.000000 80.000000 26.044424
v -100.000000 80.000000 26.173851
v -80.000000 80.000000 26.578331
v -60.000000 80.000000 26.086931
v -40.000000 80.000000 24.195946
v -20.000000 80.000000 20.984968
v 0.000000 80.000000 18.718672
v 20.000000 80.000000 16.136444
v 40.000000 80.000000 12.536346
v 60.000000 80.000000 8.336022
v 80.000000 80.000000 3.930362
v 100.000000 80.000000 -0.504941
v 120.000000 80.000000 -5.503048
v 140.000000 80.000000 -10.727949
v 160.000000 80.000000 -15.879765
v -160.000000 100.000000 26.877132
v -140.000000 100.000000 26.226267
v -120.000000 100.000000 25.608049
v -100.000000 100.000000 25.268917
v -80.000000 100.000000 24.938467
v -60.000000 100.000000 23.904245
v -40.000000 100.000000 22.009804
v -20.000000 100.000000 19.532907
v 0.000000 100.000000 16.812815
v 20.000000 100.000000 13.510773
v 40.000000 100.000000 9.453746
v 60.000000 100.000000 5.145070
v 80.000000 100.000000 0.806942
v 100.000000 100.000000 -3.452301
v 120.000000 100.000000 -8.371593
v 140.000000 100.000000 -13.473290
v 160.000000 100.000000 -18.392147
v -160.000000 120.000000 25.533438
v -140.000000 120.000000 24.600712
v -120.000000 120.000000 23.931129
v -100.000000 120.000000 23.511356
v -80.000000 120.000000 22.965776
v -60.000000 120.000000 21.799557
v -40.000000 120.000000 19.645063
v -20.000000 120.000000 16.749189
v 0.000000 120.000000 13.365658
v 20.000000 120.000000 9.580726
v 40.000000 120.000000 5.299930
v 60.000000 120.000000 0.813500
v 80.000000 120.000000 -3.319407
v 100.000000 120.000000 -7.375499
v 120.000000 120.000000 -11.812443
v 140.000000 120.000000 -16.448599
v 160.000000 120.000000 -20.786917
v -160.000000 140.000000 23.104258
v -140.000000 140.000000 21.823225
v -120.000000 140.000000 21.142784
v -100.000000 140.000000 21.024044
v -80.000000 140.000000 20.941450
v -60.000000 140.000000 20.010386
v -40.000000 140.000000 17.531776
v -20.000000 140.000000 13.903582
v 0.000000 140.000000 9.744510
v 20.000000 140.000000 5.529456
v 40.000000 140.000000 1.110579
v 60.000000 140.000000 -3.263058
v 80.000000 140.000000 -7.095347
v 100.000000 140.000000 -10.846120
v 120.000000 140.000000 -14.719798
v 140.000000 140.000000 -18.656511
v 160.000000 140.000000 -22.523909
v -160.000000 160.000000 20.468340
v -140.000000 160.000000 18.553192
v -120.000000 160.000000 17.520124
v -100.000000 160.000000 17.943302
v -80.000000 160.000000 18.849131
v -60.000000 160.000000 18.431170
v -40.000000 160.000000 15.686886
v -20.000000 160.000000 11.531091
v 0.000000 160.000000 6.865149
v 20.000000 160.000000 2.032237
v 40.000000 160.000000 -2.486861
v 60.000000 160.000000 -6.259389
v 80.000000 160.000000 -9.672605
v 100.000000 160.000000 -12.993466
v 120.000000 160.000000 -16.259159
v 140.000000 160.000000 -19.777626
v 160.000000 160.000000 -23.323538
vn 0.2675 -0.0988 0.9585
vn 0.2829 -0.1041 0.9535
vn 0.2919 -0.0537 0.9549
vn 0.2695 -0.0645 0.9608
vn 0.2559 -0.0879 0.9627
vn 0.2904 -0.0467 0.9558
vn 0.2125 -0.0495 0.9759
vn 0.2701 -0.0050 0.9628
vn 0.2032 0.0076 0.9791
vn 0.2697 0.0487 0.9617
vn 0.1896 0.0821 0.9784
vn 0.2654 0.1136 0.9574
vn 0.1935 0.1710 0.9661
vn 0.2532 0.1782 0.9509
vn 0.2234 0.2272 0.9479
vn 0.2489 0.2107 0.9453
vn 0.2328 0.2466 0.9407
vn 0.2331 0.1942 0.9529
vn 0.2213 0.2442 0.9441
vn 0.1999 0.1382 0.9700
vn 0.2182 0.2185 0.9511
vn 0.1729 0.0738 0.9822
vn 0.2138 0.1700 0.9620
vn 0.1560 0.0033 0.9877
vn 0.1974 0.1242 0.9724
vn 0.1537 -0.0553 0.9866
vn 0.1547 0.0976 0.9831
vn 0.0988 -0.0764 0.9922
vn 0.0827 0.0156 0.9965
vn -0.0311 -0.1180 0.9925
vn -0.0169 -0.1286 0.9916
vn -0.1345 -0.1992 0.9707
vn -0.0816 -0.2374 0.9680
vn -0.1533 -0.2587 0.9537
vn 0.3004 0.0070 0.9538
vn 0.2909 -0.0129 0.9567
vn 0.3022 -0.0044 0.9532
vn 0.3025 0.0106 0.9531
vn 0.3142 0.0474 0.9482
vn 0.3127 0.0833 0.9462
vn 0.2902 0.0923 0.9525
vn 0.2437 0.0770 0.9668
vn 0.1648 0.0186 0.9862
vn 0.1049 -0.0599 0.9927
vn 0.0890 -0.1348 0.9869
vn 0.0891 -0.1897 0.9778
vn 0.1189 -0.2153 0.9693
vn 0.0920 -0.2127 0.9728
vn -0.0441 -0.2093 0.9769
vn -0.1629 -0.2203 0.9617
vn -0.1880 -0.2386 0.9527
vn 0.2998 0.0387 0.9532
vn 0.3114 0.0265 0.9499
vn 0.2938 0.0120 0.9558
vn 0.3177 0.0013 0.9482
vn 0.3366 0.0171 0.9415
vn 0.3082 0.0202 0.9511
vn 0.2495 -0.0425 0.9674
vn 0.1807 -0.1294 0.9750
vn 0.1019 -0.1969 0.9751
vn 0.0493 -0.2252 0.9731
vn 0.0410 -0.2497 0.9675
vn 0.0696 -0.2619 0.9626
vn 0.1261 -0.2441 0.9615
vn 0.1043 -0.2261 0.9685
vn -0.0407 -0.2171 0.9753
vn -0.1684 -0.2121 0.9626
vn -0.1944 -0.2146 0.9571
vn 0.2870 0.0391 0.9571
vn 0.3275 0.0200 0.9446
vn 0.2677 -0.0010 0.9635
vn 0.3064 -0.0668 0.9495
vn 0.3289 -0.1194 0.9368
vn 0.2557 -0.1643 0.9527
vn 0.1456 -0.2131 0.9661
vn 0.0904 -0.2625 0.9607
vn 0.0652 -0.2949 0.9533
vn 0.0473 -0.2913 0.9555
vn 0.0477 -0.2746 0.9604
vn 0.0919 -0.2472 0.9646
vn 0.1555 -0.2167 0.9638
vn 0.1218 -0.2178 0.9684
vn -0.0313 -0.2108 0.9770
vn -0.1653 -0.1985 0.9661
vn -0.1915 -0.2017 0.9605
vn 0.2805 0.0049 0.9598
vn 0.3562 -0.0207 0.9342
vn 0.1927 -0.0330 0.9807
vn 0.2028 -0.1232 0.9714
vn 0.2405 -0.2334 0.9422
vn 0.2133 -0.3183 0.9237
vn 0.1465 -0.3321 0.9318
vn 0.0911 -0.3195 0.9432
vn 0.0693 -0.3069 0.9492
vn 0.0708 -0.2881 0.9550
vn 0.0878 -0.2510 0.9640
vn 0.1292 -0.2061 0.9700
vn 0.1576 -0.1814 0.9707
vn 0.1135 -0.2072 0.9717
vn -0.0217 -0.2050 0.9785
vn -0.1641 -0.1812 0.9697
vn -0.1961 -0.1643 0.9667
vn 0.2768 -0.0437 0.9599
vn 0.3725 -0.0476 0.9268
vn 0.1441 -0.0612 0.9877
vn 0.1075 -0.1100 0.9881
vn 0.1291 -0.2170 0.9676
vn 0.1492 -0.3212 0.9352
vn 0.1441 -0.3645 0.9200
vn 0.1181 -0.3537 0.9279
vn 0.0994 -0.3183 0.9428
vn 0.1071 -0.2842 0.9528
vn 0.1333 -0.2417 0.9611
vn 0.1633 -0.1974 0.9666
vn 0.1559 -0.1802 0.9712
vn 0.1004 -0.2024 0.9741
vn -0.0056 -0.2063 0.9785
vn -0.1287 -0.1603 0.9786
vn -0.1628 -0.1033 0.9812
vn 0.2696 -0.0898 0.9588
vn 0.3640 -0.0502 0.9300
vn 0.1287 -0.1215 0.9842
vn 0.0463 -0.1516 0.9874
vn 0.0225 -0.2095 0.9776
vn 0.0567 -0.2771 0.9592
vn 0.1122 -0.3236 0.9395
vn 0.1444 -0.3354 0.9309
vn 0.1456 -0.3265 0.9339
vn 0.1512 -0.2982 0.9425
vn 0.1756 -0.2618 0.9490
vn 0.1898 -0.2339 0.9536
vn 0.1528 -0.2277 0.9617
vn 0.0886 -0.2255 0.9702
vn 0.0213 -0.2095 0.9776
vn -0.0626 -0.1547 0.9860
vn -0.0984 -0.0702 0.9927
vn 0.2122 -0.1243 0.9693
vn 0.3186 -0.0380 0.9471
vn 0.0843 -0.1744 0.9811
vn 0.0176 -0.2089 0.9778
vn -0.0018 -0.2277 0.9737
vn 0.0285 -0.2425 0.9697
vn 0.0820 -0.2568 0.9630
vn 0.1165 -0.2730 0.9549
vn 0.1412 -0.2936 0.9454
vn 0.1751 -0.2919 0.9403
vn 0.1975 -0.2758 0.9407
vn 0.1959 -0.2706 0.9425
vn 0.1644 -0.2704 0.9486
vn 0.1208 -0.2469 0.9615
vn 0.0682 -0.2071 0.9759
vn 0.0120 -0.1433 0.9896
vn -0.0076 -0.0535 0.9985
vn 0.1408 -0.1364 0.9806
vn 0.2450 -0.0346 0.9689
vn 0.0446 -0.1730 0.9839
vn -0.0090 -0.2008 0.9796
vn -0.0130 -0.2253 0.9742
vn 0.0256 -0.2331 0.9721
vn 0.0813 -0.2251 0.9709
vn 0.1081 -0.2033 0.9731
vn 0.1274 -0.2084 0.9697
vn 0.1705 -0.2301 0.9581
vn 0.1977 -0.2477 0.9484
vn 0.1961 -0.2547 0.9469
vn 0.1796 -0.2556 0.9500
vn 0.1578 -0.2292 0.9605
vn 0.1304 -0.1828 0.9745
vn 0.0941 -0.1104 0.9894
vn 0.0803 -0.0210 0.9965
vn 0.0781 -0.1087 0.9910
vn 0.1594 -0.0293 0.9868
vn 0.0199 -0.1333 0.9909
vn -0.0371 -0.1456 0.9886
vn -0.0362 -0.1582 0.9867
vn 0.0286 -0.1577 0.9871
vn 0.1141 -0.1410 0.9834
vn 0.1368 -0.1089 0.9846
vn 0.1166 -0.1083 0.9873
vn 0.1374 -0.1287 0.9821
vn 0.1763 -0.1467 0.9733
vn 0.1940 -0.1504 0.9694
vn 0.1975 -0.1450 0.9695
vn 0.2012 -0.1241 0.9716
vn 0.1924 -0.0822 0.9779
vn 0.1756 -0.0219 0.9842
vn 0.1663 0.0557 0.9845
vn 0.0386 -0.0564 0.9977
vn 0.0893 -0.0166 0.9959
vn 0.0077 -0.0728 0.9973
vn -0.0349 -0.0675 0.9971
vn -0.0258 -0.0487 0.9985
vn 0.0432 -0.0289 0.9986
vn 0.1316 -0.0180 0.9911
vn 0.1432 -0.0172 0.9895
vn 0.1103 -0.0200 0.9937
vn 0.1356 -0.0141 0.9907
vn 0.1813 -0.0052 0.9834
vn 0.2040 -0.0002 0.9790
vn 0.2116 0.0093 0.9773
vn 0.2240 0.0166 0.9744
vn 0.2326 0.0372 0.9719
vn 0.2287 0.0734 0.9707
vn 0.2191 0.1155 0.9688
vn 0.0226 -0.0078 0.9997
vn 0.0467 -0.0034 0.9989
vn 0.0088 -0.0104 0.9999
vn -0.0134 0.0084 0.9999
vn 0.0021 0.0412 0.9991
vn 0.0593 0.0681 0.9959
vn 0.1262 0.0705 0.9895
vn 0.1355 0.0444 0.9898
vn 0.1202 0.0559 0.9912
vn 0.1523 0.0831 0.9848
vn 0.1904 0.1010 0.9765
vn 0.2091 0.1062 0.9721
vn 0.2145 0.1081 0.9707
vn 0.2282 0.1042 0.9680
vn 0.2462 0.1069 0.9633
vn 0.2495 0.1143 0.9616
vn 0.2415 0.1212 0.9628
vn 0.0316 0.0481 0.9983
vn 0.0445 0.0353 0.9984
vn 0.0239 0.0528 0.9983
vn 0.0167 0.0664 0.9977
vn 0.0340 0.0899 0.9954
vn 0.0726 0.1063 0.9917
vn 0.1080 0.1124 0.9878
vn 0.1282 0.1044 0.9862
vn 0.1476 0.1310 0.9803
vn 0.1786 0.1591 0.9710
vn 0.2016 0.1744 0.9638
vn 0.2078 0.1808 0.9613
vn 0.2069 0.1745 0.9627
vn 0.2206 0.1651 0.9613
vn 0.2402 0.1512 0.9589
vn 0.2407 0.1374 0.9608
vn 0.2364 0.1183 0.9644
vn 0.0397 0.1093 0.9932
vn 0.0519 0.0938 0.9942
vn 0.0270 0.1109 0.9935
vn 0.0240 0.1055 0.9941
vn 0.0426 0.0994 0.9941
vn 0.0823 0.0965 0.9919
vn 0.1245 0.1104 0.9861
vn 0.1536 0.1377 0.9785
vn 0.1738 0.1714 0.9698
vn 0.1939 0.1919 0.9621
vn 0.2098 0.1997 0.9571
vn 0.2063 0.2013 0.9576
vn 0.1968 0.1899 0.9619
vn 0.2044 0.1779 0.9626
vn 0.2186 0.1529 0.9638
vn 0.2171 0.1253 0.9681
vn 0.2121 0.1004 0.9721
vn 0.0484 0.1493 0.9876
vn 0.0682 0.1253 0.9898
vn 0.0197 0.1582 0.9872
vn 0.0050 0.1379 0.9904
vn 0.0251 0.1023 0.9944
vn 0.0847 0.0836 0.9929
vn 0.1502 0.0973 0.9839
vn 0.1895 0.1270 0.9736
vn 0.2024 0.1571 0.9666
vn 0.2075 0.1814 0.9613
vn 0.2109 0.1868 0.9595
vn 0.1980 0.1707 0.9652
vn 0.1840 0.1542 0.9707
vn 0.1855 0.1367 0.9731
vn 0.1906 0.1085 0.9757
vn 0.1909 0.0814 0.9782
vn 0.1859 0.0622 0.9806
vn 0.0730 0.1110 0.9911
vn 0.1068 0.0818 0.9909
vn 0.0151 0.1354 0.9907
vn -0.0329 0.1317 0.9907
vn -0.0121 0.1028 0.9946
vn 0.0785 0.0884 0.9930
vn 0.1692 0.0960 0.9809
vn 0.2141 0.1099 0.9706
vn 0.2291 0.1285 0.9649
vn 0.2250 0.1520 0.9624
vn 0.2006 0.1529 0.9677
vn 0.1755 0.1196 0.9772
vn 0.1653 0.0907 0.9821
vn 0.1622 0.0604 0.9849
vn 0.1671 0.0376 0.9852
vn 0.1739 0.0259 0.9844
vn 0.1641 0.0132 0.9863
vt 0.015625 0.015625
vt 0.076172 0.015625
vt 0.076172 0.076172
vt 0.015625 0.076172
vt 0.136719 0.015625
vt 0.136719 0.076172
vt 0.197266 0.015625
vt 0.197266 0.076172
vt 0.257812 0.015625
vt 0.257812 0.076172
vt 0.318359 0.015625
vt 0.318359 0.076172
vt 0.378906 0.015625
vt 0.378906 0.076172
vt 0.439453 0.015625
vt 0.439453 0.076172
vt 0.500000 0.015625
vt 0.500000 0.076172
vt 0.560547 0.015625
vt 0.560547 0.076172
vt 0.621094 0.015625
vt 0.621094 0.076172
vt 0.681641 0.015625
vt 0.681641 0.076172
vt 0.742188 0.015625
vt 0.742188 0.076172
vt 0.802734 0.015625
vt 0.802734 0.076172
vt 0.863281 0.015625
vt 0.863281 0.076172
vt 0.923828 0.015625
vt 0.923828 0.076172
vt 0.984375 0.015625
vt 0.984375 0.076172
vt 0.076172 0.136719
vt 0.015625 0.136719
vt 0.136719 0.136719
vt 0.197266 0.136719
vt 0.257812 0.136719
vt 0.318359 0.136719
vt 0.378906 0.136719
vt 0.439453 0.136719
vt 0.500000 0.136719
vt 0.560547 0.136719
vt 0.621094 0.136719
vt 0.681641 0.136719
vt 0.742188 0.136719
vt 0.802734 0.136719
vt 0.863281 0.136719
vt 0.923828 0.136719
vt 0.984375 0.136719
vt 0.076172 0.197266
vt 0.015625 0.197266
vt 0.136719 0.197266
vt 0.197266 0.197266
vt 0.257812 0.197266
vt 0.318359 0.197266
vt 0.378906 0.197266
vt 0.439453 0.197266
vt 0.500000 0.197266
vt 0.560547 0.197266
vt 0.621094 0.197266
vt 0.681641 0.197266
vt 0.742188 0.197266
vt 0.802734 0.197266
vt 0.863281 0.197266
vt 0.923828 0.197266
vt 0.984375 0.197266
vt 0.076172 0.257812
vt 0.015625 0.257812
vt 0.136719 0.257812
vt 0.197266 0.257812
vt 0.257812 0.257812
vt 0.318359 0.257812
vt 0.378906 0.257812
vt 0.439453 0.257812
vt 0.500000 0.257812
vt 0.560547 0.257812
vt 0.621094 0.257812
vt 0.681641 0.257812
vt 0.742188 0.257812
vt 0.802734 0.257812
vt 0.863281 0.257812
vt 0.923828 0.257812
vt 0.984375 0.257812
vt 0.076172 0.318359
vt 0.015625 0.318359
vt 0.136719 0.318359
vt 0.197266 0.318359
vt 0.257812 0.318359
vt 0.318359 0.318359
vt 0.378906 0.318359
vt 0.439453 0.318359
vt 0.500000 0.318359
vt 0.560547 0.318359
vt 0.621094 0.318359
vt 0.681641 0.318359
vt 0.742188 0.318359
vt 0.802734 0.318359
vt 0.863281 0.318359
vt 0.923828 0.318359
vt 0.984375 0.318359
vt 0.076172 0.378906
vt 0.015625 0.378906
vt 0.136719 0.378906
vt 0.197266 0.378906
vt 0.257812 0.378906
vt 0.318359 0.378906
vt 0.378906 0.378906
vt 0.439453 0.378906
vt 0.500000 0.378906
vt 0.560547 0.378906
vt 0.621094 0.378906
vt 0.681641 0.378906
vt 0.742188 0.378906
vt 0.802734 0.378906
vt 0.863281 0.378906
vt 0.923828 0.378906
vt 0.984375 0.378906
vt 0.076172 0.439453
vt 0.015625 0.439453
vt 0.136719 0.439453
vt 0.197266 0.439453
vt 0.257812 0.439453
vt 0.318359 0.439453
vt 0.378906 0.439453
vt 0.439453 0.439453
vt 0.500000 0.439453
vt 0.560547 0.439453
vt 0.621094 0.439453
vt 0.681641 0.439453
vt 0.742188 0.439453
vt 0.802734 0.439453
vt 0.863281 0.439453
vt 0.923828 0.439453
vt 0.984375 0.439453
vt 0.076172 0.500000
vt 0.015625 0.500000
vt 0.136719 0.500000
vt 0.197266 0.500000
vt 0.257812 0.500000
vt 0.318359 0.500000
vt 0.378906 0.500000
vt 0.439453 0.500000
vt 0.500000 0.500000
vt 0.560547 0.500000
vt 0.621094 0.500000
vt 0.681641 0.500000
vt 0.742188 0.500000
vt 0.802734 0.500000
vt 0.863281 0.500000
vt 0.923828 0.500000
vt 0.984375 0.500000
vt 0.076172 0.560547
vt 0.015625 0.560547
vt 0.136719 0.560547
vt 0.197266 0.560547
vt 0.257812 0.560547
vt 0.318359 0.560547
vt 0.378906 0.560547
vt 0.439453 0.560547
vt 0.500000 0.560547
vt 0.560547 0.560547
vt 0.621094 0.560547
vt 0.681641 0.560547
vt 0.742188 0.560547
vt 0.802734 0.560547
vt 0.863281 0.560547
vt 0.923828 0.560547
vt 0.984375 0.560547
vt 0.076172 0.621094
vt 0.015625 0.621094
vt 0.136719 0.621094
vt 0.197266 0.621094
vt 0.257812 0.621094
vt 0.318359 0.621094
vt 0.378906 0.621094
vt 0.439453 0.621094
vt 0.500000 0.621094
vt 0.560547 0.621094
vt 0.621094 0.621094
vt 0.681641 0.621094
vt 0.742188 0.621094
vt 0.802734 0.621094
vt 0.863281 0.621094
vt 0.923828 0.621094
vt 0.984375 0.621094
vt 0.076172 0.681641
vt 0.015625 0.681641
vt 0.136719 0.681641
vt 0.197266 0.681641
vt 0.257812 0.681641
vt 0.318359 0.681641
vt 0.378906 0.681641
vt 0.439453 0.681641
vt 0.500000 0.681641
vt 0.560547 0.681641
vt 0.621094 0.681641
vt 0.681641 0.681641
vt 0.742188 0.681641
vt 0.802734 0.681641
vt 0.863281 0.681641
vt 0.923828 0.681641
vt 0.984375 0.681641
vt 0.076172 0.742188
vt 0.015625 0.742188
vt 0.136719 0.742188
vt 0.197266 0.742188
vt 0.257812 0.742188
vt 0.318359 0.742188
vt 0.378906 0.742188
vt 0.439453 0.742188
vt 0.500000 0.742188
vt 0.560547 0.742188
vt 0.621094 0.742188
vt 0.681641 0.742188
vt 0.742188 0.742188
vt 0.802734 0.742188
vt 0.863281 0.742188
vt 0.923828 0.742188
vt 0.984375 0.742188
vt 0.076172 0.802734
vt 0.015625 0.802734
vt 0.136719 0.802734
vt 0.197266 0.802734
vt 0.257812 0.802734
vt 0.318359 0.802734
vt 0.378906 0.802734
vt 0.439453 0.802734
vt 0.500000 0.802734
vt 0.560547 0.802734
vt 0.621094 0.802734
vt 0.681641 0.802734
vt 0.742188 0.802734
vt 0.802734 0.802734
vt 0.863281 0.802734
vt 0.923828 0.802734
vt 0.984375 0.802734
vt 0.076172 0.863281
vt 0.015625 0.863281
vt 0.136719 0.863281
vt 0.197266 0.863281
vt 0.257812 0.863281
vt 0.318359 0.863281
vt 0.378906 0.863281
vt 0.439453 0.863281
vt 0.500000 0.863281
vt 0.560547 0.863281
vt 0.621094 0.863281
vt 0.681641 0.863281
vt 0.742188 0.863281
vt 0.802734 0.863281
vt 0.863281 0.863281
vt 0.923828 0.863281
vt 0.984375 0.863281
vt 0.076172 0.923828
vt 0.015625 0.923828
vt 0.136719 0.923828
vt 0.197266 0.923828
vt 0.257812 0.923828
vt 0.318359 0.923828
vt 0.378906 0.923828
vt 0.439453 0.923828
vt 0.500000 0.923828
vt 0.560547 0.923828
vt 0.621094 0.923828
vt 0.681641 0.923828
vt 0.742188 0.923828
vt 0.802734 0.923828
vt 0.863281 0.923828
vt 0.923828 0.923828
vt 0.984375 0.923828
vt 0.076172 0.984375
vt 0.015625 0.984375
vt 0.136719 0.984375
vt 0.197266 0.984375
vt 0.257812 0.984375
vt 0.318359 0.984375
vt 0.378906 0.984375
vt 0.439453 0.984375
vt 0.500000 0.984375
vt 0.560547 0.984375
vt 0.621094 0.984375
vt 0.681641 0.984375
vt 0.742188 0.984375
vt 0.802734 0.984375
vt 0.863281 0.984375
vt 0.923828 0.984375
vt 0.984375 0.984375
s 1
f 1/1/1 2/2/2 19/3/3
f 1/1/1 19/3/3 18/4/4
f 2/2/2 3/5/5 20/6/6
f 2/2/2 20/6/6 19/3/3
f 3/5/5 4/7/7 21/8/8
f 3/5/5 21/8/8 20/6/6
f 4/7/7 5/9/9 22/10/10
f 4/7/7 22/10/10 21/8/8
f 5/9/9 6/11/11 23/12/12
f 5/9/9 23/12/12 22/10/10
f 6/11/11 7/13/13 24/14/14
f 6/11/11 24/14/14 23/12/12
f 7/13/13 8/15/15 25/16/16
f 7/13/13 25/16/16 24/14/14
f 8/15/15 9/17/17 26/18/18
f 8/15/15 26/18/18 25/16/16
f 9/17/17 10/19/19 27/20/20
f 9/17/17 27/20/20 26/18/18
f 10/19/19 11/21/21 28/22/22
f 10/19/19 28/22/22 27/20/20
f 11/21/21 12/23/23 29/24/24
f 11/21/21 29/24/24 28/22/22
f 12/23/23 13/25/25 30/26/26
f 12/23/23 30/26/26 29/24/24
f 13/25/25 14/27/27 31/28/28
f 13/25/25 31/28/28 30/26/26
f 14/27/27 15/29/29 32/30/30
f 14/27/27 32/30/30 31/28/28
f 15/29/29 16/31/31 33/32/32
f 15/29/29 33/32/32 32/30/30
f 16/31/31 17/33/33 34/34/34
f 16/31/31 34/34/34 33/32/32
f 18/4/4 19/3/3 36/35/35
f 18/4/4 36/35/35 35/36/36
f 19/3/3 20/6/6 37/37/37
f 19/3/3 37/37/37 36/35/35
f 20/6/6 21/8/8 38/38/38
f 20/6/6 38/38/38 37/37/37
f 21/8/8 22/10/10 39/39/39
f 21/8/8 39/39/39 38/38/38
f 22/10/10 23/12/12 40/40/40
f 22/10/10 40/40/40 39/39/39
f 23/12/12 24/14/14 41/41/41
f 23/12/12 41/41/41 40/40/40
f 24/14/14 25/16/16 42/42/42
f 24/14/14 42/42/42 41/41/41
f 25/16/16 26/18/18 43/43/43
f 25/16/16 43/43/43 42/42/42
f 26/18/18 27/20/20 44/44/44
f 26/18/18 44/44/44 43/43/43
f 27/20/20 28/22/22 45/45/45
f 27/20/20 45/45/45 44/44/44
f 28/22/22 29/24/24 46/46/46
f 28/22/22 46/46/46 45/45/45
f 29/24/24 30/26/26 47/47/47
f 29/24/24 47/47/47 46/46/46
f 30/26/26 31/28/28 48/48/48
f 30/26/26 48/48/48 47/47/47
f 31/28/28 32/30/30 49/49/49
f 31/28/28 49/49/49 48/48/48
f 32/30/30 33/32/32 50/50/50
f 32/30/30 50/50/50 49/49/49
f 33/32/32 34/34/34 51/51/51
f 33/32/32 51/51/51 50/50/50
f 35/36/36 36/35/35 53/52/52
f 35/36/36 53/52/52 52/53/53
f 36/35/35 37/37/37 54/54/54
f 36/35/35 54/54/54 53/52/52
f 37/37/37 38/38/38 55/55/55
f 37/37/37 55/55/55 54/54/54
f 38/38/38 39/39/39 56/56/56
f 38/38/38 56/56/56 55/55/55
f 39/39/39 40/40/40 57/57/57
f 39/39/39 57/57/57 56/56/56
f 40/40/40 41/41/41 58/58/58
f 40/40/40 58/58/58 57/57/57
f 41/41/41 42/42/42 59/59/59
f 41/41/41 59/59/59 58/58/58
f 42/42/42 43/43/43 60/60/60
f 42/42/42 60/60/60 59/59/59
f 43/43/43 44/44/44 61/61/61
f 43/43/43 61/61/61 60/60/60
f 44/44/44 45/45/45 62/62/62
f 44/44/44 62/62/62 61/61/61
f 45/45/45 46/46/46 63/63/63
f 45/45/45 63/63/63 62/62/62
f 46/46/46 47/47/47 64/64/64
f 46/46/46 64/64/64 63/63/63
f 47/47/47 48/48/48 65/65/65
f 47/47/47 65/65/65 64/64/64
f 48/48/48 49/49/49 66/66/66
f 48/48/48 66/66/66 65/65/65
f 49/49/49 50/50/50 67/67/67
f 49/49/49 67/67/67 66/66/66
f 50/50/50 51/51/51 68/68/68
f 50/50/50 68/68/68 67/67/67
f 52/53/53 53/52/52 70/69/69
f 52/53/53 70/69/69 69/70/70
f 53/52/52 54/54/54 71/71/71
f 53/52/52 71/71/71 70/69/69
f 54/54/54 55/55/55 72/72/72
f 54/54/54 72/72/72 71/71/71
f 55/55/55 56/56/56 73/73/73
f 55/55/55 73/73/73 72/72/72
f 56/56/56 57/57/57 74/74/74
f 56/56/56 74/74/74 73/73/73
f 57/57/57 58/58/58 75/75/75
f 57/57/57 75/75/75 74/74/74
f 58/58/58 59/59/59 76/76/76
f 58/58/58 76/76/76 75/75/75
f 59/59/59 60/60/60 77/77/77
f 59/59/59 77/77/77 76/76/76
f 60/60/60 61/61/61 78/78/78
f 60/60/60 78/78/78 77/77/77
f 61/61/61 62/62/62 79/79/79
f 61/61/61 79/79/79 78/78/78
f 62/62/62 63/63/63 80/80/80
f 62/62/62 80/80/80 79/79/79
f 63/63/63 64/64/64 81/81/81
f 63/63/63 81/81/81 80/80/80
f 64/64/64 65/65/65 82/82/82
f 64/64/64 82/82/82 81/81/81
f 65/65/65 66/66/66 83/83/83
f 65/65/65 83/83/83 82/82/82
f 66/66/66 67/67/67 84/84/84
f 66/66/66 84/84/84 83/83/83
f 67/67/67 68/68/68 85/85/85
f 67/67/67 85/85/85 84/84/84
f 69/70/70 70/69/69 87/86/86
f 69/70/70 87/86/86 86/87/87
f 70/69/69 71/71/71 88/88/88
f 70/69/69 88/88/88 87/86/86
f 71/71/71 72/72/72 89/89/89
f 71/71/71 89/89/89 88/88/88
f 72/72/72 73/73/73 90/90/90
f 72/72/72 90/90/90 89/89/89
f 73/73/73 74/74/74 91/91/91
f 73/73/73 91/91/91 90/90/90
f 74/74/74 75/75/75 92/92/92
f 74/74/74 92/92/92 91/91/91
f 75/75/75 76/76/76 93/93/93
f 75/75/75 93/93/93 92/92/92
f 76/76/76 77/77/77 94/94/94
f 76/76/76 94/94/94 93/93/93
f 77/77/77 78/78/78 95/95/95
f 77/77/77 95/95/95 94/94/94
f 78/78/78 79/79/79 96/96/96
f 78/78/78 96/96/96 95/95/95
f 79/79/79 80/80/80 97/97/97
f 79/79/79 97/97/97 96/96/96
f 80/80/80 81/81/81 98/98/98
f 80/80/80 98/98/98 97/97/97
f 81/81/81 82/82/82 99/99/99
f 81/81/81 99/99/99 98/98/98
f 82/82/82 83/83/83 100/100/100
f 82/82/82 100/100/100 99/99/99
f 83/83/83 84/84/84 101/101/101
f 83/83/83 101/101/101 100/100/100
f 84/84/84 85/85/85 102/102/102
f 84/84/84 102/102/102 101/101/101
f 86/87/87 87/86/86 104/103/103
f 86/87/87 104/103/103 103/104/104
f 87/86/86 88/88/88 105/105/105
f 87/86/86 105/105/105 104/103/103
f 88/88/88 89/89/89 106/106/106
f 88/88/88 106/106/106 105/105/105
f 89/89/89 90/90/90 107/107/107
f 89/89/89 107/107/107 106/106/106
f 90/90/90 91/91/91 108/108/108
f 90/90/90 108/108/108 107/107/107
f 91/91/91 92/92/92 109/109/109
f 91/91/91 109/109/109 108/108/108
f 92/92/92 93/93/93 110/110/110
f 92/92/92 110/110/110 109/109/109
f 93/93/93 94/94/94 111/111/111
f 93/93/93 111/111/111 110/110/110
f 94/94/94 95/95/95 112/112/112
f 94/94/94 112/112/112 111/111/111
f 95/95/95 96/96/96 113/113/113
f 95/95/95 113/113/113 112/112/112
f 96/96/96 97/97/97 114/114/114
f 96/96/96 114/114/114 113/113/113
f 97/97/97 98/98/98 115/115/115
f 97/97/97 115/115/115 114/114/114
f 98/98/98 99/99/99 116/116/116
f 98/98/98 116/116/116 115/115/115
f 99/99/99 100/100/100 117/117/117
f 99/99/99 117/117/117 116/116/116
f 100/100/100 101/101/101 118/118/118
f 100/100/100 118/118/118 117/117/117
f 101/101/101 102/102/102 119/119/119
f 101/101/101 119/119/119 118/118/118
f 103/104/104 104/103/103 121/120/120
f 103/104/104 121/120/120 120/121/121
f 104/103/103 105/105/105 122/122/122
f 104/103/103 122/122/122 121/120/120
f 105/105/105 106/106/106 123/123/123
f 105/105/105 123/123/123 122/122/122
f 106/106/106 107/107/107 124/124/124
f 106/106/106 124/124/124 123/123/123
f 107/107/107 108/108/108 125/125/125
f 107/107/107 125/125/125 124/124/124
f 108/108/108 109/109/109 126/126/126
f 108/108/108 126/126/126 125/125/125
f 109/109/109 110/110/110 127/127/127
f 109/109/109 127/127/127 126/126/126
f 110/110/110 111/111/111 128/128/128
f 110/110/110 128/128/128 127/127/127
f 111/111/111 112/112/112 129/129/129
f 111/111/111 129/129/129 128/128/128
f 112/112/112 113/113/113 130/130/130
f 112/112/112 130/130/130 129/129/129
f 113/113/113 114/114/114 131/131/131
f 113/113/113 131/131/131 130/130/130
f 114/114/114 115/115/115 132/132/132
f 114/114/114 132/132/132 131/131/131
f 115/115/115 116/116/116 133/133/133
f 115/115/115 133/133/133 132/132/132
f 116/116/116 117/117/117 134/134/134
f 116/116/116 134/134/134 133/133/133
f 117/117/117 118/118/118 135/135/135
f 117/117/117 135/135/135 134/134/134
f 118/118/118 119/119/119 136/136/136
f 118/118/118 136/136/136 135/135/135
f 120/121/121 121/120/120 138/137/137
f 120/121/121 138/137/137 137/138/138
f 121/120/120 122/122/122 139/139/139
f 121/120/120 139/139/139 138/137/137
f 122/122/122 123/123/123 140/140/140
f 122/122/122 140/140/140 139/139/139
f 123/123/123 124/124/124 141/141/141
f 123/123/123 141/141/141 140/140/140
f 124/124/124 125/125/125 142/142/142
f 124/124/124 142/142/142 141/141/141
f 125/125/125 126/126/126 143/143/143
f 125/125/125 143/143/143 142/142/142
f 126/126/126 127/127/127 144/144/144
f 126/126/126 144/144/144 143/143/143
f 127/127/127 128/128/128 145/145/145
f 127/127/127 145/145/145 144/144/144
f 128/128/128 129/129/129 146/146/146
f 128/128/128 146/146/146 145/145/145
f 129/129/129 130/130/130 147/147/147
f 129/129/129 147/147/147 146/146/146
f 130/130/130 131/131/131 148/148/148
f 130/130/130 148/148/148 147/147/147
f 131/131/131 132/132/132 149/149/149
f 131/131/131 149/149/149 148/148/148
f 132/132/132 133/133/133 150/150/150
f 132/132/132 150/150/150 149/149/149
f 133/133/133 134/134/134 151/151/151
f 133/133/133 151/151/151 150/150/150
f 134/134/134 135/135/135 152/152/152
f 134/134/134 152/152/152 151/151/151
f 135/135/135 136/136/136 153/153/153
f 135/135/135 153/153/153 152/152/152
f 137/138/138 138/137/137 155/154/154
f 137/138/138 155/154/154 154/155/155
f 138/137/137 139/139/139 156/156/156
f 138/137/137 156/156/156 155/154/154
f 139/139/139 140/140/140 157/157/157
f 139/139/139 157/157/157 156/156/156
f 140/140/140 141/141/141 158/158/158
f 140/140/140 158/158/158 157/157/157
f 141/141/141 142/142/142 159/159/159
f 141/141/141 159/159/159 158/158/158
f 142/142/142 143/143/143 160/160/160
f 142/142/142 160/160/160 159/159/159
f 143/143/143 144/144/144 161/161/161
f 143/143/143 161/161/161 160/160/160
f 144/144/144 145/145/145 162/162/162
f 144/144/144 162/162/162 161/161/161
f 145/145/145 146/146/146 163/163/163
f 145/145/145 163/163/163 162/162/162
f 146/146/146 147/147/147 164/164/164
f 146/146/146 164/164/164 163/163/163
f 147/147/147 148/148/148 165/165/165
f 147/147/147 165/165/165 164/164/164
f 148/148/148 149/149/149 166/166/166
f 148/148/148 166/166/166 165/165/165
f 149/149/149 150/150/150 167/167/167
f 149/149/149 167/167/167 166/166/166
f 150/150/150 151/151/151 168/168/168
f 150/150/150 168/168/168 167/167/167
f 151/151/151 152/152/152 169/169/169
f 151/151/151 169/169/169 168/168/168
f 152/152/152 153/153/153 170/170/170
f 152/152/152 170/170/170 169/169/169
f 154/155/155 155/154/154 172/171/171
f 154/155/155 172/171/171 171/172/172
f 155/154/154 156/156/156 173/173/173
f 155/154/154 173/173/173 172/171/171
f 156/156/156 157/157/157 174/174/174
f 156/156/156 174/174/174 173/173/173
f 157/157/157 158/158/158 175/175/175
f 157/157/157 175/175/175 174/174/174
f 158/158/158 159/159/159 176/176/176
f 158/158/158 176/176/176 175/175/175
f 159/159/159 160/160/160 177/177/177
f 159/159/159 177/177/177 176/176/176
f 160/160/160 161/161/161 178/178/178
f 160/160/160 178/178/178 177/177/177
f 161/161/161 162/162/162 179/179/179
f 161/161/161 179/179/179 178/178/178
f 162/162/162 163/163/163 180/180/180
f 162/162/162 180/180/180 179/179/179
f 163/163/163 164/164/164 181/181/181
f 163/163/163 181/181/181 180/180/180
f 164/164/164 165/165/165 182/182/182
f 164/164/164 182/182/182 181/181/181
f 165/165/165 166/166/166 183/183/183
f 165/165/165 183/183/183 182/182/182
f 166/166/166 167/167/167 184/184/184
f 166/166/166 184/184/184 183/183/183
f 167/167/167 168/168/168 185/185/185
f 167/167/167 185/185/185 184/184/184
f 168/168/168 169/169/169 186/186/186
f 168/168/168 186/186/186 185/185/185
f 169/169/169 170/170/170 187/187/187
f 169/169/169 187/187/187 186/186/186
f 171/172/172 172/171/171 189/188/188
f 171/172/172 189/188/188 188/189/189
f 172/171/171 173/173/173 190/190/190
f 172/171/171 190/190/190 189/188/188
f 173/173/173 174/174/174 191/191/191
f 173/173/173 191/191/191 190/190/190
f 174/174/174 175/175/175 192/192/192
f 174/174/174 192/192/192 191/191/191
f 175/175/175 176/176/176 193/193/193
f 175/175/175 193/193/193 192/192/192
f 176/176/176 177/177/177 194/194/194
f 176/176/176 194/194/194 193/193/193
f 177/177/177 178/178/178 195/195/195
f 177/177/177 195/195/195 194/194/194
f 178/178/178 179/179/179 196/196/196
f 178/178/178 196/196/196 195/195/195
f 179/179/179 180/180/180 197/197/197
f 179/179/179 197/197/197 196/196/196
f 180/180/180 181/181/181 198/198/198
f 180/180/180 198/198/198 197/197/197
f 181/181/181 182/182/182 199/199/199
f 181/181/181 199/199/199 198/198/198
f 182/182/182 183/183/183 200/200/200
f 182/182/182 200/200/200 199/199/199
f 183/183/183 184/184/184 201/201/201
f 183/183/183 201/201/201 200/200/200
f 184/184/184 185/185/185 202/202/202
f 184/184/184 202/202/202 201/201/201
f 185/185/185 186/186/186 203/203/203
f 185/185/185 203/203/203 202/202/202
f 186/186/186 187/187/187 204/204/204
f 186/186/186 204/204/204 203/203/203
f 188/189/189 189/188/188 206/205/205
f 188/189/189 206/205/205 205/206/206
f 189/188/188 190/190/190 207/207/207
f 189/188/188 207/207/207 206/205/205
f 190/190/190 191/191/191 208/208/208
f 190/190/190 208/208/208 207/207/207
f 191/191/191 192/192/192 209/209/209
f 191/191/191 209/209/209 208/208/208
f 192/192/192 193/193/193 210/210/210
f 192/192/192 210/210/210 209/209/209
f 193/193/193 194/194/194 211/211/211
f 193/193/193 211/211/211 210/210/210
f 194/194/194 195/195/195 212/212/212
f 194/194/194 212/212/212 211/211/211
f 195/195/195 196/196/196 213/213/213
f 195/195/195 213/213/213 212/212/212
f 196/196/196 197/197/197 214/214/214
f 196/196/196 214/214/214 213/213/213
f 197/197/197 198/198/198 215/215/215
f 197/197/197 215/215/215 214/214/214
f 198/198/198 199/199/199 216/216/216
f 198/198/198 216/216/216 215/215/215
f 199/199/199 200/200/200 217/217/217
f 199/199/199 217/217/217 216/216/216
f 200/200/200 201/201/201 218/218/218
f 200/200/200 218/218/218 217/217/217
f 201/201/201 202/202/202 219/219/219
f 201/201/201 219/219/219 218/218/218
f 202/202/202 203/203/203 220/220/220
f 202/202/202 220/220/220 219/219/219
f 203/203/203 204/204/204 221/221/221
f 203/203/203 221/221/221 220/220/220
f 205/206/206 206/205/205 223/222/222
f 205/206/206 223/222/222 222/223/223
f 206/205/205 207/207/207 224/224/224
f 206/205/205 224/224/224 223/222/222
f 207/207/207 208/208/208 225/225/225
f 207/207/207 225/225/225 224/224/224
f 208/208/208 209/209/209 226/226/226
f 208/208/208 226/226/226 225/225/225
f 209/209/209 210/210/210 227/227/227
f 209/209/209 227/227/227 226/226/226
f 210/210/210 211/211/211 228/228/228
f 210/210/210 228/228/228 227/227/227
f 211/211/211 212/212/212 229/229/229
f 211/211/211 229/229/229 228/228/228
f 212/212/212 213/213/213 230/230/230
f 212/212/212 230/230/230 229/229/229
f 213/213/213 214/214/214 231/231/231
f 213/213/213 231/231/231 230/230/230
f 214/214/214 215/215/215 232/232/232
f 214/214/214 232/232/232 231/231/231
f 215/215/215 216/216/216 233/233/233
f 215/215/215 233/233/233 232/232/232
f 216/216/216 217/217/217 234/234/234
f 216/216/216 234/234/234 233/233/233
f 217/217/217 218/218/218 235/235/235
f 217/217/217 235/235/235 234/234/234
f 218/218/218 219/219/219 236/236/236
f 218/218/218 236/236/236 235/235/235
f 219/219/219 220/220/220 237/237/237
f 219/219/219 237/237/237 236/236/236
f 220/220/220 221/221/221 238/238/238
f 220/220/220 238/238/238 237/237/237
f 222/223/223 223/222/222 240/239/239
f 222/223/223 240/239/239 239/240/240
f 223/222/222 224/224/224 241/241/241
f 223/222/222 241/241/241 240/239/239
f 224/224/224 225/225/225 242/242/242
f 224/224/224 242/242/242 241/241/241
f 225/225/225 226/226/226 243/243/243
f 225/225/225 243/243/243 242/242/242
f 226/226/226 227/227/227 244/244/244
f 226/226/226 244/244/244 243/243/243
f 227/227/227 228/228/228 245/245/245
f 227/227/227 245/245/245 244/244/244
f 228/228/228 229/229/229 246/246/246
f 228/228/228 246/246/246 245/245/245
f 229/229/229 230/230/230 247/247/247
f 229/229/229 247/247/247 246/246/246
f 230/230/230 231/231/231 248/248/248
f 230/230/230 248/248/248 247/247/247
f 231/231/231 232/232/232 249/249/249
f 231/231/231 249/249/249 248/248/248
f 232/232/232 233/233/233 250/250/250
f 232/232/232 250/250/250 249/249/249
f 233/233/233 234/234/234 251/251/251
f 233/233/233 251/251/251 250/250/250
f 234/234/234 235/235/235 252/252/252
f 234/234/234 252/252/252 251/251/251
f 235/235/235 236/236/236 253/253/253
f 235/235/235 253/253/253 252/252/252
f 236/236/236 237/237/237 254/254/254
f 236/236/236 254/254/254 253/253/253
f 237/237/237 238/238/238 255/255/255
f 237/237/237 255/255/255 254/254/254
f 239/240/240 240/239/239 257/256/256
f 239/240/240 257/256/256 256/257/257
f 240/239/239 241/241/241 258/258/258
f 240/239/239 258/258/258 257/256/256
f 241/241/241 242/242/242 259/259/259
f 241/241/241 259/259/259 258/258/258
f 242/242/242 243/243/243 260/260/260
f 242/242/242 260/260/260 259/259/259
f 243/243/243 244/244/244 261/261/261
f 243/243/243 261/261/261 260/260/260
f 244/244/244 245/245/245 262/262/262
f 244/244/244 262/262/262 261/261/261
f 245/245/245 246/246/246 263/263/263
f 245/245/245 263/263/263 262/262/262
f 246/246/246 247/247/247 264/264/264
f 246/246/246 264/264/264 263/263/263
f 247/247/247 248/248/248 265/265/265
f 247/247/247 265/265/265 264/264/264
f 248/248/248 249/249/249 266/266/266
f 248/248/248 266/266/266 265/265/265
f 249/249/249 250/250/250 267/267/267
f 249/249/249 267/267/267 266/266/266
f 250/250/250 251/251/251 268/268/268
f 250/250/250 268/268/268 267/267/267
f 251/251/251 252/252/252 269/269/269
f 251/251/251 269/269/269 268/268/268
f 252/252/252 253/253/253 270/270/270
f 252/252/252 270/270/270 269/269/269
f 253/253/253 254/254/254 271/271/271
f 253/253/253 271/271/271 270/270/270
f 254/254/254 255/255/255 272/272/272
f 254/254/254 272/272/272 271/271/271
f 256/257/257 257/256/256 274/273/273
f 256/257/257 274/273/273 273/274/274
f 257/256/256 258/258/258 275/275/275
f 257/256/256 275/275/275 274/273/273
f 258/258/258 259/259/259 276/276/276
f 258/258/258 276/276/276 275/275/275
f 259/259/259 260/260/260 277/277/277
f 259/259/259 277/277/277 276/276/276
f 260/260/260 261/261/261 278/278/278
f 260/260/260 278/278/278 277/277/277
f 261/261/261 262/262/262 279/279/279
f 261/261/261 279/279/279 278/278/278
f 262/262/262 263/263/263 280/280/280
f 262/262/262 280/280/280 279/279/279
f 263/263/263 264/264/264 281/281/281
f 263/263/263 281/281/281 280/280/280
f 264/264/264 265/265/265 282/282/282
f 264/264/264 282/282/282 281/281/281
f 265/265/265 266/266/266 283/283/283
f 265/265/265 283/283/283 282/282/282
f 266/266/266 267/267/267 284/284/284
f 266/266/266 284/284/284 283/283/283
f 267/267/267 268/268/268 285/285/285
f 267/267/267 285/285/285 284/284/284
f 268/268/268 269/269/269 286/286/286
f 268/268/268 286/286/286 285/285/285
f 269/269/269 270/270/270 287/287/287
f 269/269/269 287/287/287 286/286/286
f 270/270/270 271/271/271 288/288/288
f 270/270/270 288/288/288 287/287/287
f 271/271/271 272/272/272 289/289/289
f 271/271/271 289/289/289 288/288/288
