mtllib terrain_far_04_00.mtl
usemtl terrain_far_04_00
# Blender 5.1.1
# www.blender.org
o terrain_far_04_00
v -320.000000 -320.000000 18.978510
v -280.000000 -320.000000 22.246407
v -240.000000 -320.000000 21.743477
v -200.000000 -320.000000 17.209467
v -160.000000 -320.000000 7.552268
v -120.000000 -320.000000 -5.415241
v -80.000000 -320.000000 -14.180235
v -40.000000 -320.000000 -18.797157
v 0.000000 -320.000000 -18.802502
v 40.000000 -320.000000 -15.985445
v 80.000000 -320.000000 -14.830266
v 120.000000 -320.000000 -17.883726
v 160.000000 -320.000000 -24.848591
v 200.000000 -320.000000 -33.254581
v 240.000000 -320.000000 -40.709686
v 280.000000 -320.000000 -49.034035
v 320.000000 -320.000000 -56.965717
v -320.000000 -280.000000 15.981922
v -280.000000 -280.000000 18.455805
v -240.000000 -280.000000 18.363832
v -200.000000 -280.000000 12.824899
v -160.000000 -280.000000 1.338530
v -120.000000 -280.000000 -10.116067
v -80.000000 -280.000000 -17.317375
v -40.000000 -280.000000 -22.726364
v 0.000000 -280.000000 -26.413031
v 40.000000 -280.000000 -28.171886
v 80.000000 -280.000000 -28.989304
v 120.000000 -280.000000 -30.544411
v 160.000000 -280.000000 -34.050285
v 200.000000 -280.000000 -40.375813
v 240.000000 -280.000000 -46.845863
v 280.000000 -280.000000 -53.691166
v 320.000000 -280.000000 -57.195499
v -320.000000 -240.000000 13.547202
v -280.000000 -240.000000 15.450699
v -240.000000 -240.000000 14.108922
v -200.000000 -240.000000 7.116023
v -160.000000 -240.000000 -3.654146
v -120.000000 -240.000000 -13.126979
v -80.000000 -240.000000 -19.915594
v -40.000000 -240.000000 -25.125616
v 0.000000 -240.000000 -31.133211
v 40.000000 -240.000000 -36.241371
v 80.000000 -240.000000 -40.229389
v 120.000000 -240.000000 -43.554565
v 160.000000 -240.000000 -45.312084
v 200.000000 -240.000000 -48.230068
v 240.000000 -240.000000 -52.844189
v 280.000000 -240.000000 -54.117493
v 320.000000 -240.000000 -49.017273
v -320.000000 -200.000000 10.405234
v -280.000000 -200.000000 11.735231
v -240.000000 -200.000000 10.636497
v -200.000000 -200.000000 3.833620
v -160.000000 -200.000000 -5.708291
v -120.000000 -200.000000 -15.168346
v -80.000000 -200.000000 -22.920679
v -40.000000 -200.000000 -28.528589
v 0.000000 -200.000000 -34.649895
v 40.000000 -200.000000 -38.796364
v 80.000000 -200.000000 -41.965492
v 120.000000 -200.000000 -42.981071
v 160.000000 -200.000000 -43.501530
v 200.000000 -200.000000 -46.188576
v 240.000000 -200.000000 -49.617126
v 280.000000 -200.000000 -46.520229
v 320.000000 -200.000000 -38.674255
v -320.000000 -160.000000 6.162566
v -280.000000 -160.000000 7.276050
v -240.000000 -160.000000 7.212852
v -200.000000 -160.000000 0.824044
v -160.000000 -160.000000 -8.489846
v -120.000000 -160.000000 -18.327168
v -80.000000 -160.000000 -27.646984
v -40.000000 -160.000000 -32.512253
v 0.000000 -160.000000 -32.946117
v 40.000000 -160.000000 -33.926239
v 80.000000 -160.000000 -36.318501
v 120.000000 -160.000000 -34.989750
v 160.000000 -160.000000 -33.376877
v 200.000000 -160.000000 -37.316803
v 240.000000 -160.000000 -40.858112
v 280.000000 -160.000000 -36.071682
v 320.000000 -160.000000 -28.069572
v -320.000000 -120.000000 2.238080
v -280.000000 -120.000000 0.830466
v -240.000000 -120.000000 0.263816
v -200.000000 -120.000000 -5.590798
v -160.000000 -120.000000 -15.795611
v -120.000000 -120.000000 -24.570074
v -80.000000 -120.000000 -27.850014
v -40.000000 -120.000000 -26.287468
v 0.000000 -120.000000 -23.533737
v 40.000000 -120.000000 -24.909430
v 80.000000 -120.000000 -26.832802
v 120.000000 -120.000000 -23.784286
v 160.000000 -120.000000 -22.080727
v 200.000000 -120.000000 -25.790276
v 240.000000 -120.000000 -28.872963
v 280.000000 -120.000000 -24.017115
v 320.000000 -120.000000 -18.736841
v -320.000000 -80.000000 2.430171
v -280.000000 -80.000000 -1.027837
v -240.000000 -80.000000 -5.429380
v -200.000000 -80.000000 -11.103982
v -160.000000 -80.000000 -19.081079
v -120.000000 -80.000000 -21.812532
v -80.000000 -80.000000 -19.924858
v -40.000000 -80.000000 -15.839259
v 0.000000 -80.000000 -13.394054
v 40.000000 -80.000000 -13.709002
v 80.000000 -80.000000 -13.756610
v 120.000000 -80.000000 -10.898483
v 160.000000 -80.000000 -9.346087
v 200.000000 -80.000000 -11.627643
v 240.000000 -80.000000 -14.364927
v 280.000000 -80.000000 -12.049138
v 320.000000 -80.000000 -10.874503
v -320.000000 -40.000000 6.545059
v -280.000000 -40.000000 0.519248
v -240.000000 -40.000000 -5.505613
v -200.000000 -40.000000 -10.423724
v -160.000000 -40.000000 -14.734122
v -120.000000 -40.000000 -12.046025
v -80.000000 -40.000000 -7.430093
v -40.000000 -40.000000 -2.787745
v 0.000000 -40.000000 -0.902186
v 40.000000 -40.000000 -0.456345
v 80.000000 -40.000000 0.328351
v 120.000000 -40.000000 2.739172
v 160.000000 -40.000000 4.266766
v 200.000000 -40.000000 2.527312
v 240.000000 -40.000000 -0.961994
v 280.000000 -40.000000 -2.606857
v 320.000000 -40.000000 -2.968884
v -320.000000 0.000000 9.063688
v -280.000000 0.000000 1.339683
v -240.000000 0.000000 -2.611014
v -200.000000 0.000000 -5.142590
v -160.000000 0.000000 -6.114995
v -120.000000 0.000000 -0.429523
v -80.000000 0.000000 6.071609
v -40.000000 0.000000 9.965619
v 0.000000 0.000000 11.419510
v 40.000000 0.000000 11.957725
v 80.000000 0.000000 12.638972
v 120.000000 0.000000 14.308894
v 160.000000 0.000000 15.924379
v 200.000000 0.000000 14.746713
v 240.000000 0.000000 9.611723
v 280.000000 0.000000 5.670114
v 320.000000 0.000000 5.189509
v -320.000000 40.000000 13.137466
v -280.000000 40.000000 6.266556
v -240.000000 40.000000 2.104426
v -200.000000 40.000000 1.035205
v -160.000000 40.000000 2.848356
v -120.000000 40.000000 9.228470
v -80.000000 40.000000 15.148154
v -40.000000 40.000000 18.092266
v 0.000000 40.000000 19.817995
v 40.000000 40.000000 20.360176
v 80.000000 40.000000 20.033266
v 120.000000 40.000000 20.128494
v 160.000000 40.000000 20.400127
v 200.000000 40.000000 19.373253
v 240.000000 40.000000 14.825482
v 280.000000 40.000000 9.603992
v 320.000000 40.000000 7.286596
v -320.000000 80.000000 17.165747
v -280.000000 80.000000 11.008187
v -240.000000 80.000000 8.919259
v -200.000000 80.000000 9.468399
v -160.000000 80.000000 10.930910
v -120.000000 80.000000 14.712831
v -80.000000 80.000000 18.091019
v -40.000000 80.000000 19.562637
v 0.000000 80.000000 20.461388
v 40.000000 80.000000 20.853456
v 80.000000 80.000000 20.496964
v 120.000000 80.000000 20.362930
v 160.000000 80.000000 19.279366
v 200.000000 80.000000 16.716805
v 240.000000 80.000000 11.639745
v 280.000000 80.000000 5.757265
v 320.000000 80.000000 2.373144
v -320.000000 120.000000 20.881275
v -280.000000 120.000000 17.631018
v -240.000000 120.000000 17.771507
v -200.000000 120.000000 19.498842
v -160.000000 120.000000 19.647240
v -120.000000 120.000000 18.411222
v -80.000000 120.000000 16.798389
v -40.000000 120.000000 15.807111
v 0.000000 120.000000 15.343325
v 40.000000 120.000000 16.071074
v 80.000000 120.000000 17.403160
v 120.000000 120.000000 18.344097
v 160.000000 120.000000 17.138918
v 200.000000 120.000000 13.023175
v 240.000000 120.000000 6.832541
v 280.000000 120.000000 0.236493
v 320.000000 120.000000 -3.358858
v -320.000000 160.000000 28.099468
v -280.000000 160.000000 27.111351
v -240.000000 160.000000 27.705656
v -200.000000 160.000000 28.926489
v -160.000000 160.000000 26.694616
v -120.000000 160.000000 21.759258
v -80.000000 160.000000 16.230049
v -40.000000 160.000000 12.183759
v 0.000000 160.000000 10.861066
v 40.000000 160.000000 12.430592
v 80.000000 160.000000 15.472569
v 120.000000 160.000000 18.106134
v 160.000000 160.000000 17.296850
v 200.000000 160.000000 12.584379
v 240.000000 160.000000 5.055069
v 280.000000 160.000000 -2.841660
v 320.000000 160.000000 -7.857135
v -320.000000 200.000000 37.424812
v -280.000000 200.000000 36.326553
v -240.000000 200.000000 36.864029
v -200.000000 200.000000 36.542931
v -160.000000 200.000000 31.938471
v -120.000000 200.000000 25.458349
v -80.000000 200.000000 18.364647
v -40.000000 200.000000 11.482261
v 0.000000 200.000000 7.260710
v 40.000000 200.000000 8.426285
v 80.000000 200.000000 12.861947
v 120.000000 200.000000 16.922094
v 160.000000 200.000000 17.655865
v 200.000000 200.000000 14.067561
v 240.000000 200.000000 6.283713
v 280.000000 200.000000 -3.628484
v 320.000000 200.000000 -11.543727
v -320.000000 240.000000 44.019623
v -280.000000 240.000000 42.974449
v -240.000000 240.000000 42.887642
v -200.000000 240.000000 41.800694
v -160.000000 240.000000 36.681011
v -120.000000 240.000000 29.625374
v -80.000000 240.000000 21.764446
v -40.000000 240.000000 13.131105
v 0.000000 240.000000 5.384801
v 40.000000 240.000000 4.034629
v 80.000000 240.000000 8.661100
v 120.000000 240.000000 13.340700
v 160.000000 240.000000 15.826194
v 200.000000 240.000000 14.999141
v 240.000000 240.000000 7.678584
v 280.000000 240.000000 -4.243223
v 320.000000 240.000000 -15.258903
v -320.000000 280.000000 45.627533
v -280.000000 280.000000 45.299007
v -240.000000 280.000000 44.424652
v -200.000000 280.000000 42.877430
v -160.000000 280.000000 38.470196
v -120.000000 280.000000 31.725365
v -80.000000 280.000000 24.246571
v -40.000000 280.000000 14.987551
v 0.000000 280.000000 5.512589
v 40.000000 280.000000 0.771941
v 80.000000 280.000000 3.279224
v 120.000000 280.000000 7.885717
v 160.000000 280.000000 12.357003
v 200.000000 280.000000 14.184932
v 240.000000 280.000000 8.246068
v 280.000000 280.000000 -3.792574
v 320.000000 280.000000 -17.210808
v -320.000000 320.000000 44.461040
v -280.000000 320.000000 44.995167
v -240.000000 320.000000 43.176697
v -200.000000 320.000000 40.634949
v -160.000000 320.000000 36.700176
v -120.000000 320.000000 30.392220
v -80.000000 320.000000 23.353247
v -40.000000 320.000000 14.893733
v 0.000000 320.000000 5.165400
v 40.000000 320.000000 -1.556883
v 80.000000 320.000000 -1.486550
v 120.000000 320.000000 1.895245
v 160.000000 320.000000 6.037925
v 200.000000 320.000000 8.926332
v 240.000000 320.000000 5.263186
v 280.000000 320.000000 -4.799342
v 320.000000 320.000000 -17.620529
vn -0.0829 0.0625 0.9946
vn -0.0345 0.0631 0.9974
vn -0.0296 0.0846 0.9960
vn -0.0577 0.0676 0.9960
vn 0.0628 0.0432 0.9971
vn 0.0699 0.0948 0.9930
vn 0.1743 0.0653 0.9825
vn 0.2066 0.1225 0.9707
vn 0.2706 0.1069 0.9567
vn 0.2732 0.1335 0.9527
vn 0.2606 0.1077 0.9594
vn 0.2261 0.0935 0.9696
vn 0.1643 0.0907 0.9822
vn 0.1553 0.0707 0.9853
vn 0.0573 0.1156 0.9916
vn 0.1126 0.0784 0.9905
vn -0.0344 0.1964 0.9799
vn 0.0671 0.1519 0.9861
vn -0.0475 0.2885 0.9563
vn 0.0312 0.2453 0.9689
vn 0.0226 0.3001 0.9537
vn 0.0282 0.3024 0.9527
vn 0.1207 0.2366 0.9641
vn 0.0601 0.3049 0.9505
vn 0.1858 0.1744 0.9670
vn 0.1185 0.2462 0.9620
vn 0.1927 0.1352 0.9719
vn 0.1554 0.1818 0.9710
vn 0.1926 0.0955 0.9766
vn 0.1624 0.1480 0.9756
vn 0.1984 0.0851 0.9764
vn 0.1280 0.0629 0.9898
vn 0.1838 0.0305 0.9825
vn 0.0135 -0.0988 0.9950
vn -0.0070 0.0837 0.9965
vn -0.0451 0.0695 0.9966
vn 0.1031 0.0956 0.9901
vn 0.2155 0.1091 0.9704
vn 0.2444 0.0851 0.9659
vn 0.1988 0.0618 0.9781
vn 0.1479 0.0691 0.9866
vn 0.1385 0.0717 0.9878
vn 0.1369 0.1015 0.9854
vn 0.1120 0.1308 0.9851
vn 0.0899 0.1595 0.9831
vn 0.0627 0.1533 0.9862
vn 0.0580 0.1171 0.9914
vn 0.0935 0.0722 0.9930
vn 0.0734 0.0345 0.9967
vn -0.0476 -0.0892 0.9949
vn -0.1570 -0.2227 0.9621
vn -0.0029 0.1016 0.9948
vn -0.0283 0.0919 0.9954
vn 0.0979 0.0855 0.9915
vn 0.1996 0.0768 0.9769
vn 0.2306 0.0588 0.9713
vn 0.2099 0.0635 0.9757
vn 0.1640 0.0949 0.9819
vn 0.1445 0.0910 0.9853
vn 0.1273 0.0225 0.9916
vn 0.0911 -0.0286 0.9954
vn 0.0522 -0.0488 0.9974
vn 0.0191 -0.1064 0.9941
vn 0.0396 -0.1474 0.9883
vn 0.0755 -0.1348 0.9880
vn 0.0041 -0.1482 0.9890
vn -0.1322 -0.2182 0.9669
vn -0.1966 -0.2484 0.9485
vn -0.0129 0.1351 0.9907
vn 0.0065 0.1016 0.9948
vn 0.0797 0.1282 0.9885
vn 0.1913 0.1148 0.9748
vn 0.2311 0.1217 0.9653
vn 0.2314 0.1136 0.9662
vn 0.1743 0.0606 0.9828
vn 0.0661 -0.0279 0.9974
vn 0.0175 -0.1376 0.9903
vn 0.0415 -0.1709 0.9844
vn 0.0131 -0.1858 0.9825
vn -0.0357 -0.2332 0.9718
vn 0.0281 -0.2586 0.9656
vn 0.0903 -0.2461 0.9650
vn -0.0152 -0.2508 0.9679
vn -0.1520 -0.2677 0.9514
vn -0.1813 -0.2378 0.9542
vn 0.0245 0.1032 0.9944
vn 0.0723 0.0465 0.9963
vn 0.0791 0.1556 0.9846
vn 0.1948 0.1447 0.9701
vn 0.2289 0.1277 0.9650
vn 0.1489 0.0430 0.9879
vn 0.0214 -0.0961 0.9951
vn -0.0527 -0.2037 0.9776
vn -0.0167 -0.2374 0.9713
vn 0.0400 -0.2448 0.9687
vn -0.0135 -0.2714 0.9624
vn -0.0568 -0.2879 0.9560
vn 0.0240 -0.2876 0.9574
vn 0.0806 -0.3047 0.9490
vn -0.0210 -0.3143 0.9491
vn -0.1203 -0.2856 0.9508
vn -0.1291 -0.2084 0.9695
vn 0.0977 0.0038 0.9952
vn 0.1003 -0.0535 0.9935
vn 0.1246 0.0714 0.9896
vn 0.1679 0.0594 0.9840
vn 0.1327 -0.0132 0.9911
vn 0.0104 -0.1547 0.9879
vn -0.0722 -0.2467 0.9664
vn -0.0781 -0.2809 0.9565
vn -0.0256 -0.2722 0.9619
vn 0.0043 -0.2923 0.9563
vn -0.0332 -0.3213 0.9464
vn -0.0524 -0.3144 0.9478
vn 0.0087 -0.3128 0.9498
vn 0.0590 -0.3331 0.9410
vn 0.0051 -0.3295 0.9441
vn -0.0421 -0.2583 0.9651
vn -0.0579 -0.1931 0.9795
vn 0.1489 -0.0293 0.9884
vn 0.1379 -0.0818 0.9871
vn 0.1354 -0.0349 0.9902
vn 0.1143 -0.0738 0.9907
vn 0.0200 -0.1599 0.9869
vn -0.0878 -0.2572 0.9624
vn -0.1093 -0.3073 0.9453
vn -0.0774 -0.3061 0.9489
vn -0.0278 -0.2961 0.9547
vn -0.0146 -0.3055 0.9521
vn -0.0378 -0.3131 0.9490
vn -0.0469 -0.3002 0.9527
vn 0.0025 -0.3012 0.9536
vn 0.0620 -0.3125 0.9479
vn 0.0614 -0.2866 0.9561
vn 0.0245 -0.2162 0.9760
vn -0.0186 -0.1968 0.9803
vn 0.1440 -0.0709 0.9870
vn 0.1936 -0.0806 0.9778
vn 0.0804 -0.0944 0.9923
vn 0.0433 -0.1417 0.9890
vn -0.0574 -0.2143 0.9751
vn -0.1456 -0.2543 0.9561
vn -0.1241 -0.2695 0.9550
vn -0.0646 -0.2520 0.9656
vn -0.0242 -0.2507 0.9678
vn -0.0147 -0.2518 0.9677
vn -0.0285 -0.2391 0.9706
vn -0.0401 -0.2122 0.9764
vn -0.0054 -0.1976 0.9803
vn 0.0770 -0.2054 0.9756
vn 0.1106 -0.1924 0.9751
vn 0.0545 -0.1507 0.9871
vn 0.0178 -0.1271 0.9917
vn 0.1356 -0.1189 0.9836
vn 0.1674 -0.0994 0.9809
vn 0.0646 -0.1424 0.9877
vn -0.0091 -0.1796 0.9837
vn -0.0995 -0.2075 0.9732
vn -0.1494 -0.1839 0.9715
vn -0.1089 -0.1477 0.9830
vn -0.0578 -0.1190 0.9912
vn -0.0282 -0.1123 0.9933
vn -0.0027 -0.1105 0.9939
vn 0.0029 -0.0978 0.9952
vn -0.0047 -0.0755 0.9971
vn 0.0095 -0.0418 0.9991
vn 0.0695 -0.0246 0.9973
vn 0.1212 -0.0252 0.9923
vn 0.0939 -0.0010 0.9956
vn 0.0782 0.0351 0.9963
vn 0.1015 -0.1399 0.9849
vn 0.1473 -0.0953 0.9845
vn 0.0189 -0.1921 0.9812
vn -0.0245 -0.2248 0.9741
vn -0.0639 -0.2051 0.9766
vn -0.0886 -0.1136 0.9896
vn -0.0605 -0.0206 0.9980
vn -0.0297 0.0285 0.9992
vn -0.0161 0.0558 0.9983
vn -0.0004 0.0535 0.9986
vn 0.0061 0.0329 0.9994
vn 0.0152 0.0223 0.9996
vn 0.0455 0.0407 0.9981
vn 0.0948 0.0788 0.9924
vn 0.1351 0.0985 0.9859
vn 0.1143 0.1155 0.9867
vn 0.0824 0.1314 0.9879
vn 0.0381 -0.1972 0.9796
vn 0.0946 -0.1348 0.9863
vn -0.0227 -0.2285 0.9733
vn -0.0227 -0.2364 0.9714
vn 0.0133 -0.1933 0.9810
vn 0.0355 -0.0877 0.9955
vn 0.0325 0.0232 0.9992
vn 0.0181 0.0918 0.9956
vn -0.0033 0.1191 0.9929
vn -0.0256 0.1047 0.9942
vn -0.0284 0.0626 0.9976
vn 0.0033 0.0282 0.9996
vn 0.0664 0.0247 0.9975
vn 0.1275 0.0511 0.9905
vn 0.1574 0.0811 0.9842
vn 0.1257 0.1060 0.9864
vn 0.0536 0.1267 0.9905
vn 0.0048 -0.2276 0.9737
vn 0.0286 -0.2024 0.9789
vn -0.0220 -0.2321 0.9724
vn 0.0124 -0.2084 0.9780
vn 0.0882 -0.1513 0.9845
vn 0.1292 -0.0870 0.9878
vn 0.1188 -0.0194 0.9927
vn 0.0668 0.0538 0.9963
vn -0.0030 0.1005 0.9949
vn -0.0573 0.0950 0.9938
vn -0.0706 0.0566 0.9959
vn -0.0228 0.0178 0.9996
vn 0.0689 -0.0064 0.9976
vn 0.1512 -0.0130 0.9884
vn 0.1893 0.0068 0.9819
vn 0.1592 0.0477 0.9861
vn 0.0441 0.1017 0.9938
vn 0.0069 -0.1945 0.9809
vn -0.0016 -0.1952 0.9808
vn -0.0027 -0.1864 0.9825
vn 0.0607 -0.1586 0.9855
vn 0.1362 -0.1227 0.9831
vn 0.1665 -0.0965 0.9813
vn 0.1717 -0.0680 0.9828
vn 0.1375 -0.0117 0.9904
vn 0.0380 0.0682 0.9969
vn -0.0695 0.1041 0.9921
vn -0.1052 0.0843 0.9909
vn -0.0597 0.0593 0.9964
vn 0.0357 0.0184 0.9992
vn 0.1407 -0.0298 0.9896
vn 0.2159 -0.0320 0.9759
vn 0.2175 0.0171 0.9759
vn 0.0745 0.0919 0.9930
vn 0.0141 -0.1114 0.9937
vn -0.0255 -0.1020 0.9945
vn 0.0146 -0.0941 0.9955
vn 0.0771 -0.0787 0.9939
vn 0.1499 -0.0805 0.9854
vn 0.1827 -0.0768 0.9802
vn 0.2013 -0.0719 0.9769
vn 0.2003 -0.0430 0.9788
vn 0.1130 0.0217 0.9934
vn -0.0408 0.0951 0.9946
vn -0.1147 0.1181 0.9863
vn -0.0887 0.1118 0.9898
vn -0.0207 0.0661 0.9976
vn 0.1013 -0.0015 0.9949
vn 0.2338 -0.0238 0.9720
vn 0.2757 0.0020 0.9613
vn 0.1411 0.0699 0.9875
vn 0.0150 -0.0252 0.9996
vn -0.0370 -0.0055 0.9993
vn 0.0303 -0.0036 0.9995
vn 0.0742 0.0145 0.9971
vn 0.1381 -0.0001 0.9904
vn 0.1750 -0.0095 0.9845
vn 0.2047 -0.0195 0.9786
vn 0.2280 -0.0214 0.9734
vn 0.1750 0.0027 0.9846
vn 0.0278 0.0697 0.9972
vn -0.0879 0.1254 0.9882
vn -0.1116 0.1408 0.9837
vn -0.0779 0.1211 0.9896
vn 0.0512 0.0757 0.9958
vn 0.2191 0.0294 0.9752
vn 0.3032 0.0066 0.9529
vn 0.2397 0.0286 0.9704
vn 0.0161 0.0003 0.9999
vn -0.0439 0.0191 0.9989
vn 0.0544 0.0179 0.9984
vn 0.0806 0.0486 0.9956
vn 0.1269 0.0476 0.9908
vn 0.1644 0.0430 0.9855
vn 0.1900 0.0436 0.9808
vn 0.2216 0.0252 0.9748
vn 0.2014 0.0098 0.9795
vn 0.0828 0.0367 0.9959
vn -0.0429 0.1108 0.9929
vn -0.0922 0.1724 0.9807
vn -0.0860 0.1880 0.9784
vn 0.0095 0.1736 0.9848
vn 0.1678 0.1211 0.9783
vn 0.2745 0.0611 0.9596
vn 0.2872 0.0159 0.9577
vt 0.015625 0.015625
vt 0.076172 0.015625
vt 0.076172 0.076172
vt 0.015625 0.076172
vt 0.136719 0.015625
vt 0.136719 0.076172
vt 0.197266 0.015625
vt 0.197266 0.076172
vt 0.257812 0.015625
vt 0.257812 0.076172
vt 0.318359 0.015625
vt 0.318359 0.076172
vt 0.378906 0.015625
vt 0.378906 0.076172
vt 0.439453 0.015625
vt 0.439453 0.076172
vt 0.500000 0.015625
vt 0.500000 0.076172
vt 0.560547 0.015625
vt 0.560547 0.076172
vt 0.621094 0.015625
vt 0.621094 0.076172
vt 0.681641 0.015625
vt 0.681641 0.076172
vt 0.742188 0.015625
vt 0.742188 0.076172
vt 0.802734 0.015625
vt 0.802734 0.076172
vt 0.863281 0.015625
vt 0.863281 0.076172
vt 0.923828 0.015625
vt 0.923828 0.076172
vt 0.984375 0.015625
vt 0.984375 0.076172
vt 0.076172 0.136719
vt 0.015625 0.136719
vt 0.136719 0.136719
vt 0.197266 0.136719
vt 0.257812 0.136719
vt 0.318359 0.136719
vt 0.378906 0.136719
vt 0.439453 0.136719
vt 0.500000 0.136719
vt 0.560547 0.136719
vt 0.621094 0.136719
vt 0.681641 0.136719
vt 0.742188 0.136719
vt 0.802734 0.136719
vt 0.863281 0.136719
vt 0.923828 0.136719
vt 0.984375 0.136719
vt 0.076172 0.197266
vt 0.015625 0.197266
vt 0.136719 0.197266
vt 0.197266 0.197266
vt 0.257812 0.197266
vt 0.318359 0.197266
vt 0.378906 0.197266
vt 0.439453 0.197266
vt 0.500000 0.197266
vt 0.560547 0.197266
vt 0.621094 0.197266
vt 0.681641 0.197266
vt 0.742188 0.197266
vt 0.802734 0.197266
vt 0.863281 0.197266
vt 0.923828 0.197266
vt 0.984375 0.197266
vt 0.076172 0.257812
vt 0.015625 0.257812
vt 0.136719 0.257812
vt 0.197266 0.257812
vt 0.257812 0.257812
vt 0.318359 0.257812
vt 0.378906 0.257812
vt 0.439453 0.257812
vt 0.500000 0.257812
vt 0.560547 0.257812
vt 0.621094 0.257812
vt 0.681641 0.257812
vt 0.742188 0.257812
vt 0.802734 0.257812
vt 0.863281 0.257812
vt 0.923828 0.257812
vt 0.984375 0.257812
vt 0.076172 0.318359
vt 0.015625 0.318359
vt 0.136719 0.318359
vt 0.197266 0.318359
vt 0.257812 0.318359
vt 0.318359 0.318359
vt 0.378906 0.318359
vt 0.439453 0.318359
vt 0.500000 0.318359
vt 0.560547 0.318359
vt 0.621094 0.318359
vt 0.681641 0.318359
vt 0.742188 0.318359
vt 0.802734 0.318359
vt 0.863281 0.318359
vt 0.923828 0.318359
vt 0.984375 0.318359
vt 0.076172 0.378906
vt 0.015625 0.378906
vt 0.136719 0.378906
vt 0.197266 0.378906
vt 0.257812 0.378906
vt 0.318359 0.378906
vt 0.378906 0.378906
vt 0.439453 0.378906
vt 0.500000 0.378906
vt 0.560547 0.378906
vt 0.621094 0.378906
vt 0.681641 0.378906
vt 0.742188 0.378906
vt 0.802734 0.378906
vt 0.863281 0.378906
vt 0.923828 0.378906
vt 0.984375 0.378906
vt 0.076172 0.439453
vt 0.015625 0.439453
vt 0.136719 0.439453
vt 0.197266 0.439453
vt 0.257812 0.439453
vt 0.318359 0.439453
vt 0.378906 0.439453
vt 0.439453 0.439453
vt 0.500000 0.439453
vt 0.560547 0.439453
vt 0.621094 0.439453
vt 0.681641 0.439453
vt 0.742188 0.439453
vt 0.802734 0.439453
vt 0.863281 0.439453
vt 0.923828 0.439453
vt 0.984375 0.439453
vt 0.076172 0.500000
vt 0.015625 0.500000
vt 0.136719 0.500000
vt 0.197266 0.500000
vt 0.257812 0.500000
vt 0.318359 0.500000
vt 0.378906 0.500000
vt 0.439453 0.500000
vt 0.500000 0.500000
vt 0.560547 0.500000
vt 0.621094 0.500000
vt 0.681641 0.500000
vt 0.742188 0.500000
vt 0.802734 0.500000
vt 0.863281 0.500000
vt 0.923828 0.500000
vt 0.984375 0.500000
vt 0.076172 0.560547
vt 0.015625 0.560547
vt 0.136719 0.560547
vt 0.197266 0.560547
vt 0.257812 0.560547
vt 0.318359 0.560547
vt 0.378906 0.560547
vt 0.439453 0.560547
vt 0.500000 0.560547
vt 0.560547 0.560547
vt 0.621094 0.560547
vt 0.681641 0.560547
vt 0.742188 0.560547
vt 0.802734 0.560547
vt 0.863281 0.560547
vt 0.923828 0.560547
vt 0.984375 0.560547
vt 0.076172 0.621094
vt 0.015625 0.621094
vt 0.136719 0.621094
vt 0.197266 0.621094
vt 0.257812 0.621094
vt 0.318359 0.621094
vt 0.378906 0.621094
vt 0.439453 0.621094
vt 0.500000 0.621094
vt 0.560547 0.621094
vt 0.621094 0.621094
vt 0.681641 0.621094
vt 0.742188 0.621094
vt 0.802734 0.621094
vt 0.863281 0.621094
vt 0.923828 0.621094
vt 0.984375 0.621094
vt 0.076172 0.681641
vt 0.015625 0.681641
vt 0.136719 0.681641
vt 0.197266 0.681641
vt 0.257812 0.681641
vt 0.318359 0.681641
vt 0.378906 0.681641
vt 0.439453 0.681641
vt 0.500000 0.681641
vt 0.560547 0.681641
vt 0.621094 0.681641
vt 0.681641 0.681641
vt 0.742188 0.681641
vt 0.802734 0.681641
vt 0.863281 0.681641
vt 0.923828 0.681641
vt 0.984375 0.681641
vt 0.076172 0.742188
vt 0.015625 0.742188
vt 0.136719 0.742188
vt 0.197266 0.742188
vt 0.257812 0.742188
vt 0.318359 0.742188
vt 0.378906 0.742188
vt 0.439453 0.742188
vt 0.500000 0.742188
vt 0.560547 0.742188
vt 0.621094 0.742188
vt 0.681641 0.742188
vt 0.742188 0.742188
vt 0.802734 0.742188
vt 0.863281 0.742188
vt 0.923828 0.742188
vt 0.984375 0.742188
vt 0.076172 0.802734
vt 0.015625 0.802734
vt 0.136719 0.802734
vt 0.197266 0.802734
vt 0.257812 0.802734
vt 0.318359 0.802734
vt 0.378906 0.802734
vt 0.439453 0.802734
vt 0.500000 0.802734
vt 0.560547 0.802734
vt 0.621094 0.802734
vt 0.681641 0.802734
vt 0.742188 0.802734
vt 0.802734 0.802734
vt 0.863281 0.802734
vt 0.923828 0.802734
vt 0.984375 0.802734
vt 0.076172 0.863281
vt 0.015625 0.863281
vt 0.136719 0.863281
vt 0.197266 0.863281
vt 0.257812 0.863281
vt 0.318359 0.863281
vt 0.378906 0.863281
vt 0.439453 0.863281
vt 0.500000 0.863281
vt 0.560547 0.863281
vt 0.621094 0.863281
vt 0.681641 0.863281
vt 0.742188 0.863281
vt 0.802734 0.863281
vt 0.863281 0.863281
vt 0.923828 0.863281
vt 0.984375 0.863281
vt 0.076172 0.923828
vt 0.015625 0.923828
vt 0.136719 0.923828
vt 0.197266 0.923828
vt 0.257812 0.923828
vt 0.318359 0.923828
vt 0.378906 0.923828
vt 0.439453 0.923828
vt 0.500000 0.923828
vt 0.560547 0.923828
vt 0.621094 0.923828
vt 0.681641 0.923828
vt 0.742188 0.923828
vt 0.802734 0.923828
vt 0.863281 0.923828
vt 0.923828 0.923828
vt 0.984375 0.923828
vt 0.076172 0.984375
vt 0.015625 0.984375
vt 0.136719 0.984375
vt 0.197266 0.984375
vt 0.257812 0.984375
vt 0.318359 0.984375
vt 0.378906 0.984375
vt 0.439453 0.984375
vt 0.500000 0.984375
vt 0.560547 0.984375
vt 0.621094 0.984375
vt 0.681641 0.984375
vt 0.742188 0.984375
vt 0.802734 0.984375
vt 0.863281 0.984375
vt 0.923828 0.984375
vt 0.984375 0.984375
s 1
f 1/1/1 2/2/2 19/3/3
f 1/1/1 19/3/3 18/4/4
f 2/2/2 3/5/5 20/6/6
f 2/2/2 20/6/6 19/3/3
f 3/5/5 4/7/7 21/8/8
f 3/5/5 21/8/8 20/6/6
f 4/7/7 5/9/9 22/10/10
f 4/7/7 22/10/10 21/8/8
f 5/9/9 6/11/11 23/12/12
f 5/9/9 23/12/12 22/10/10
f 6/11/11 7/13/13 24/14/14
f 6/11/11 24/14/14 23/12/12
f 7/13/13 8/15/15 25/16/16
f 7/13/13 25/16/16 24/14/14
f 8/15/15 9/17/17 26/18/18
f 8/15/15 26/18/18 25/16/16
f 9/17/17 10/19/19 27/20/20
f 9/17/17 27/20/20 26/18/18
f 10/19/19 11/21/21 28/22/22
f 10/19/19 28/22/22 27/20/20
f 11/21/21 12/23/23 29/24/24
f 11/21/21 29/24/24 28/22/22
f 12/23/23 13/25/25 30/26/26
f 12/23/23 30/26/26 29/24/24
f 13/25/25 14/27/27 31/28/28
f 13/25/25 31/28/28 30/26/26
f 14/27/27 15/29/29 32/30/30
f 14/27/27 32/30/30 31/28/28
f 15/29/29 16/31/31 33/32/32
f 15/29/29 33/32/32 32/30/30
f 16/31/31 17/33/33 34/34/34
f 16/31/31 34/34/34 33/32/32
f 18/4/4 19/3/3 36/35/35
f 18/4/4 36/35/35 35/36/36
f 19/3/3 20/6/6 37/37/37
f 19/3/3 37/37/37 36/35/35
f 20/6/6 21/8/8 38/38/38
f 20/6/6 38/38/38 37/37/37
f 21/8/8 22/10/10 39/39/39
f 21/8/8 39/39/39 38/38/38
f 22/10/10 23/12/12 40/40/40
f 22/10/10 40/40/40 39/39/39
f 23/12/12 24/14/14 41/41/41
f 23/12/12 41/41/41 40/40/40
f 24/14/14 25/16/16 42/42/42
f 24/14/14 42/42/42 41/41/41
f 25/16/16 26/18/18 43/43/43
f 25/16/16 43/43/43 42/42/42
f 26/18/18 27/20/20 44/44/44
f 26/18/18 44/44/44 43/43/43
f 27/20/20 28/22/22 45/45/45
f 27/20/20 45/45/45 44/44/44
f 28/22/22 29/24/24 46/46/46
f 28/22/22 46/46/46 45/45/45
f 29/24/24 30/26/26 47/47/47
f 29/24/24 47/47/47 46/46/46
f 30/26/26 31/28/28 48/48/48
f 30/26/26 48/48/48 47/47/47
f 31/28/28 32/30/30 49/49/49
f 31/28/28 49/49/49 48/48/48
f 32/30/30 33/32/32 50/50/50
f 32/30/30 50/50/50 49/49/49
f 33/32/32 34/34/34 51/51/51
f 33/32/32 51/51/51 50/50/50
f 35/36/36 36/35/35 53/52/52
f 35/36/36 53/52/52 52/53/53
f 36/35/35 37/37/37 54/54/54
f 36/35/35 54/54/54 53/52/52
f 37/37/37 38/38/38 55/55/55
f 37/37/37 55/55/55 54/54/54
f 38/38/38 39/39/39 56/56/56
f 38/38/38 56/56/56 55/55/55
f 39/39/39 40/40/40 57/57/57
f 39/39/39 57/57/57 56/56/56
f 40/40/40 41/41/41 58/58/58
f 40/40/40 58/58/58 57/57/57
f 41/41/41 42/42/42 59/59/59
f 41/41/41 59/59/59 58/58/58
f 42/42/42 43/43/43 60/60/60
f 42/42/42 60/60/60 59/59/59
f 43/43/43 44/44/44 61/61/61
f 43/43/43 61/61/61 60/60/60
f 44/44/44 45/45/45 62/62/62
f 44/44/44 62/62/62 61/61/61
f 45/45/45 46/46/46 63/63/63
f 45/45/45 63/63/63 62/62/62
f 46/46/46 47/47/47 64/64/64
f 46/46/46 64/64/64 63/63/63
f 47/47/47 48/48/48 65/65/65
f 47/47/47 65/65/65 64/64/64
f 48/48/48 49/49/49 66/66/66
f 48/48/48 66/66/66 65/65/65
f 49/49/49 50/50/50 67/67/67
f 49/49/49 67/67/67 66/66/66
f 50/50/50 51/51/51 68/68/68
f 50/50/50 68/68/68 67/67/67
f 52/53/53 53/52/52 70/69/69
f 52/53/53 70/69/69 69/70/70
f 53/52/52 54/54/54 71/71/71
f 53/52/52 71/71/71 70/69/69
f 54/54/54 55/55/55 72/72/72
f 54/54/54 72/72/72 71/71/71
f 55/55/55 56/56/56 73/73/73
f 55/55/55 73/73/73 72/72/72
f 56/56/56 57/57/57 74/74/74
f 56/56/56 74/74/74 73/73/73
f 57/57/57 58/58/58 75/75/75
f 57/57/57 75/75/75 74/74/74
f 58/58/58 59/59/59 76/76/76
f 58/58/58 76/76/76 75/75/75
f 59/59/59 60/60/60 77/77/77
f 59/59/59 77/77/77 76/76/76
f 60/60/60 61/61/61 78/78/78
f 60/60/60 78/78/78 77/77/77
f 61/61/61 62/62/62 79/79/79
f 61/61/61 79/79/79 78/78/78
f 62/62/62 63/63/63 80/80/80
f 62/62/62 80/80/80 79/79/79
f 63/63/63 64/64/64 81/81/81
f 63/63/63 81/81/81 80/80/80
f 64/64/64 65/65/65 82/82/82
f 64/64/64 82/82/82 81/81/81
f 65/65/65 66/66/66 83/83/83
f 65/65/65 83/83/83 82/82/82
f 66/66/66 67/67/67 84/84/84
f 66/66/66 84/84/84 83/83/83
f 67/67/67 68/68/68 85/85/85
f 67/67/67 85/85/85 84/84/84
f 69/70/70 70/69/69 87/86/86
f 69/70/70 87/86/86 86/87/87
f 70/69/69 71/71/71 88/88/88
f 70/69/69 88/88/88 87/86/86
f 71/71/71 72/72/72 89/89/89
f 71/71/71 89/89/89 88/88/88
f 72/72/72 73/73/73 90/90/90
f 72/72/72 90/90/90 89/89/89
f 73/73/73 74/74/74 91/91/91
f 73/73/73 91/91/91 90/90/90
f 74/74/74 75/75/75 92/92/92
f 74/74/74 92/92/92 91/91/91
f 75/75/75 76/76/76 93/93/93
f 75/75/75 93/93/93 92/92/92
f 76/76/76 77/77/77 94/94/94
f 76/76/76 94/94/94 93/93/93
f 77/77/77 78/78/78 95/95/95
f 77/77/77 95/95/95 94/94/94
f 78/78/78 79/79/79 96/96/96
f 78/78/78 96/96/96 95/95/95
f 79/79/79 80/80/80 97/97/97
f 79/79/79 97/97/97 96/96/96
f 80/80/80 81/81/81 98/98/98
f 80/80/80 98/98/98 97/97/97
f 81/81/81 82/82/82 99/99/99
f 81/81/81 99/99/99 98/98/98
f 82/82/82 83/83/83 100/100/100
f 82/82/82 100/100/100 99/99/99
f 83/83/83 84/84/84 101/101/101
f 83/83/83 101/101/101 100/100/100
f 84/84/84 85/85/85 102/102/102
f 84/84/84 102/102/102 101/101/101
f 86/87/87 87/86/86 104/103/103
f 86/87/87 104/103/103 103/104/104
f 87/86/86 88/88/88 105/105/105
f 87/86/86 105/105/105 104/103/103
f 88/88/88 89/89/89 106/106/106
f 88/88/88 106/106/106 105/105/105
f 89/89/89 90/90/90 107/107/107
f 89/89/89 107/107/107 106/106/106
f 90/90/90 91/91/91 108/108/108
f 90/90/90 108/108/108 107/107/107
f 91/91/91 92/92/92 109/109/109
f 91/91/91 109/109/109 108/108/108
f 92/92/92 93/93/93 110/110/110
f 92/92/92 110/110/110 109/109/109
f 93/93/93 94/94/94 111/111/111
f 93/93/93 111/111/111 110/110/110
f 94/94/94 95/95/95 112/112/112
f 94/94/94 112/112/112 111/111/111
f 95/95/95 96/96/96 113/113/113
f 95/95/95 113/113/113 112/112/112
f 96/96/96 97/97/97 114/114/114
f 96/96/96 114/114/114 113/113/113
f 97/97/97 98/98/98 115/115/115
f 97/97/97 115/115/115 114/114/114
f 98/98/98 99/99/99 116/116/116
f 98/98/98 116/116/116 115/115/115
f 99/99/99 100/100/100 117/117/117
f 99/99/99 117/117/117 116/116/116
f 100/100/100 101/101/101 118/118/118
f 100/100/100 118/118/118 117/117/117
f 101/101/101 102/102/102 119/119/119
f 101/101/101 119/119/119 118/118/118
f 103/104/104 104/103/103 121/120/120
f 103/104/104 121/120/120 120/121/121
f 104/103/103 105/105/105 122/122/122
f 104/103/103 122/122/122 121/120/120
f 105/105/105 106/106/106 123/123/123
f 105/105/105 123/123/123 122/122/122
f 106/106/106 107/107/107 124/124/124
f 106/106/106 124/124/124 123/123/123
f 107/107/107 108/108/108 125/125/125
f 107/107/107 125/125/125 124/124/124
f 108/108/108 109/109/109 126/126/126
f 108/108/108 126/126/126 125/125/125
f 109/109/109 110/110/110 127/127/127
f 109/109/109 127/127/127 126/126/126
f 110/110/110 111/111/111 128/128/128
f 110/110/110 128/128/128 127/127/127
f 111/111/111 112/112/112 129/129/129
f 111/111/111 129/129/129 128/128/128
f 112/112/112 113/113/113 130/130/130
f 112/112/112 130/130/130 129/129/129
f 113/113/113 114/114/114 131/131/131
f 113/113/113 131/131/131 130/130/130
f 114/114/114 115/115/115 132/132/132
f 114/114/114 132/132/132 131/131/131
f 115/115/115 116/116/116 133/133/133
f 115/115/115 133/133/133 132/132/132
f 116/116/116 117/117/117 134/134/134
f 116/116/116 134/134/134 133/133/133
f 117/117/117 118/118/118 135/135/135
f 117/117/117 135/135/135 134/134/134
f 118/118/118 119/119/119 136/136/136
f 118/118/118 136/136/136 135/135/135
f 120/121/121 121/120/120 138/137/137
f 120/121/121 138/137/137 137/138/138
f 121/120/120 122/122/122 139/139/139
f 121/120/120 139/139/139 138/137/137
f 122/122/122 123/123/123 140/140/140
f 122/122/122 140/140/140 139/139/139
f 123/123/123 124/124/124 141/141/141
f 123/123/123 141/141/141 140/140/140
f 124/124/124 125/125/125 142/142/142
f 124/124/124 142/142/142 141/141/141
f 125/125/125 126/126/126 143/143/143
f 125/125/125 143/143/143 142/142/142
f 126/126/126 127/127/127 144/144/144
f 126/126/126 144/144/144 143/143/143
f 127/127/127 128/128/128 145/145/145
f 127/127/127 145/145/145 144/144/144
f 128/128/128 129/129/129 146/146/146
f 128/128/128 146/146/146 145/145/145
f 129/129/129 130/130/130 147/147/147
f 129/129/129 147/147/147 146/146/146
f 130/130/130 131/131/131 148/148/148
f 130/130/130 148/148/148 147/147/147
f 131/131/131 132/132/132 149/149/149
f 131/131/131 149/149/149 148/148/148
f 132/132/132 133/133/133 150/150/150
f 132/132/132 150/150/150 149/149/149
f 133/133/133 134/134/134 151/151/151
f 133/133/133 151/151/151 150/150/150
f 134/134/134 135/135/135 152/152/152
f 134/134/134 152/152/152 151/151/151
f 135/135/135 136/136/136 153/153/153
f 135/135/135 153/153/153 152/152/152
f 137/138/138 138/137/137 155/154/154
f 137/138/138 155/154/154 154/155/155
f 138/137/137 139/139/139 156/156/156
f 138/137/137 156/156/156 155/154/154
f 139/139/139 140/140/140 157/157/157
f 139/139/139 157/157/157 156/156/156
f 140/140/140 141/141/141 158/158/158
f 140/140/140 158/158/158 157/157/157
f 141/141/141 142/142/142 159/159/159
f 141/141/141 159/159/159 158/158/158
f 142/142/142 143/143/143 160/160/160
f 142/142/142 160/160/160 159/159/159
f 143/143/143 144/144/144 161/161/161
f 143/143/143 161/161/161 160/160/160
f 144/144/144 145/145/145 162/162/162
f 144/144/144 162/162/162 161/161/161
f 145/145/145 146/146/146 163/163/163
f 145/145/145 163/163/163 162/162/162
f 146/146/146 147/147/147 164/164/164
f 146/146/146 164/164/164 163/163/163
f 147/147/147 148/148/148 165/165/165
f 147/147/147 165/165/165 164/164/164
f 148/148/148 149/149/149 166/166/166
f 148/148/148 166/166/166 165/165/165
f 149/149/149 150/150/150 167/167/167
f 149/149/149 167/167/167 166/166/166
f 150/150/150 151/151/151 168/168/168
f 150/150/150 168/168/168 167/167/167
f 151/151/151 152/152/152 169/169/169
f 151/151/151 169/169/169 168/168/168
f 152/152/152 153/153/153 170/170/170
f 152/152/152 170/170/170 169/169/169
f 154/155/155 155/154/154 172/171/171
f 154/155/155 172/171/171 171/172/172
f 155/154/154 156/156/156 173/173/173
f 155/154/154 173/173/173 172/171/171
f 156/156/156 157/157/157 174/174/174
f 156/156/156 174/174/174 173/173/173
f 157/157/157 158/158/158 175/175/175
f 157/157/157 175/175/175 174/174/174
f 158/158/158 159/159/159 176/176/176
f 158/158/158 176/176/176 175/175/175
f 159/159/159 160/160/160 177/177/177
f 159/159/159 177/177/177 176/176/176
f 160/160/160 161/161/161 178/178/178
f 160/160/160 178/178/178 177/177/177
f 161/161/161 162/162/162 179/179/179
f 161/161/161 179/179/179 178/178/178
f 162/162/162 163/163/163 180/180/180
f 162/162/162 180/180/180 179/179/179
f 163/163/163 164/164/164 181/181/181
f 163/163/163 181/181/181 180/180/180
f 164/164/164 165/165/165 182/182/182
f 164/164/164 182/182/182 181/181/181
f 165/165/165 166/166/166 183/183/183
f 165/165/165 183/183/183 182/182/182
f 166/166/166 167/167/167 184/184/184
f 166/166/166 184/184/184 183/183/183
f 167/167/167 168/168/168 185/185/185
f 167/167/167 185/185/185 184/184/184
f 168/168/168 169/169/169 186/186/186
f 168/168/168 186/186/186 185/185/185
f 169/169/169 170/170/170 187/187/187
f 169/169/169 187/187/187 186/186/186
f 171/172/172 172/171/171 189/188/188
f 171/172/172 189/188/188 188/189/189
f 172/171/171 173/173/173 190/190/190
f 172/171/171 190/190/190 189/188/188
f 173/173/173 174/174/174 191/191/191
f 173/173/173 191/191/191 190/190/190
f 174/174/174 175/175/175 192/192/192
f 174/174/174 192/192/192 191/191/191
f 175/175/175 176/176/176 193/193/193
f 175/175/175 193/193/193 192/192/192
f 176/176/176 177/177/177 194/194/194
f 176/176/176 194/194/194 193/193/193
f 177/177/177 178/178/178 195/195/195
f 177/177/177 195/195/195 194/194/194
f 178/178/178 179/179/179 196/196/196
f 178/178/178 196/196/196 195/195/195
f 179/179/179 180/180/180 197/197/197
f 179/179/179 197/197/197 196/196/196
f 180/180/180 181/181/181 198/198/198
f 180/180/180 198/198/198 197/197/197
f 181/181/181 182/182/182 199/199/199
f 181/181/181 199/199/199 198/198/198
f 182/182/182 183/183/183 200/200/200
f 182/182/182 200/200/200 199/199/199
f 183/183/183 184/184/184 201/201/201
f 183/183/183 201/201/201 200/200/200
f 184/184/184 185/185/185 202/202/202
f 184/184/184 202/202/202 201/201/201
f 185/185/185 186/186/186 203/203/203
f 185/185/185 203/203/203 202/202/202
f 186/186/186 187/187/187 204/204/204
f 186/186/186 204/204/204 203/203/203
f 188/189/189 189/188/188 206/205/205
f 188/189/189 206/205/205 205/206/206
f 189/188/188 190/190/190 207/207/207
f 189/188/188 207/207/207 206/205/205
f 190/190/190 191/191/191 208/208/208
f 190/190/190 208/208/208 207/207/207
f 191/191/191 192/192/192 209/209/209
f 191/191/191 209/209/209 208/208/208
f 192/192/192 193/193/193 210/210/210
f 192/192/192 210/210/210 209/209/209
f 193/193/193 194/194/194 211/211/211
f 193/193/193 211/211/211 210/210/210
f 194/194/194 195/195/195 212/212/212
f 194/194/194 212/212/212 211/211/211
f 195/195/195 196/196/196 213/213/213
f 195/195/195 213/213/213 212/212/212
f 196/196/196 197/197/197 214/214/214
f 196/196/196 214/214/214 213/213/213
f 197/197/197 198/198/198 215/215/215
f 197/197/197 215/215/215 214/214/214
f 198/198/198 199/199/199 216/216/216
f 198/198/198 216/216/216 215/215/215
f 199/199/199 200/200/200 217/217/217
f 199/199/199 217/217/217 216/216/216
f 200/200/200 201/201/201 218/218/218
f 200/200/200 218/218/218 217/217/217
f 201/201/201 202/202/202 219/219/219
f 201/201/201 219/219/219 218/218/218
f 202/202/202 203/203/203 220/220/220
f 202/202/202 220/220/220 219/219/219
f 203/203/203 204/204/204 221/221/221
f 203/203/203 221/221/221 220/220/220
f 205/206/206 206/205/205 223/222/222
f 205/206/206 223/222/222 222/223/223
f 206/205/205 207/207/207 224/224/224
f 206/205/205 224/224/224 223/222/222
f 207/207/207 208/208/208 225/225/225
f 207/207/207 225/225/225 224/224/224
f 208/208/208 209/209/209 226/226/226
f 208/208/208 226/226/226 225/225/225
f 209/209/209 210/210/210 227/227/227
f 209/209/209 227/227/227 226/226/226
f 210/210/210 211/211/211 228/228/228
f 210/210/210 228/228/228 227/227/227
f 211/211/211 212/212/212 229/229/229
f 211/211/211 229/229/229 228/228/228
f 212/212/212 213/213/213 230/230/230
f 212/212/212 230/230/230 229/229/229
f 213/213/213 214/214/214 231/231/231
f 213/213/213 231/231/231 230/230/230
f 214/214/214 215/215/215 232/232/232
f 214/214/214 232/232/232 231/231/231
f 215/215/215 216/216/216 233/233/233
f 215/215/215 233/233/233 232/232/232
f 216/216/216 217/217/217 234/234/234
f 216/216/216 234/234/234 233/233/233
f 217/217/217 218/218/218 235/235/235
f 217/217/217 235/235/235 234/234/234
f 218/218/218 219/219/219 236/236/236
f 218/218/218 236/236/236 235/235/235
f 219/219/219 220/220/220 237/237/237
f 219/219/219 237/237/237 236/236/236
f 220/220/220 221/221/221 238/238/238
f 220/220/220 238/238/238 237/237/237
f 222/223/223 223/222/222 240/239/239
f 222/223/223 240/239/239 239/240/240
f 223/222/222 224/224/224 241/241/241
f 223/222/222 241/241/241 240/239/239
f 224/224/224 225/225/225 242/242/242
f 224/224/224 242/242/242 241/241/241
f 225/225/225 226/226/226 243/243/243
f 225/225/225 243/243/243 242/242/242
f 226/226/226 227/227/227 244/244/244
f 226/226/226 244/244/244 243/243/243
f 227/227/227 228/228/228 245/245/245
f 227/227/227 245/245/245 244/244/244
f 228/228/228 229/229/229 246/246/246
f 228/228/228 246/246/246 245/245/245
f 229/229/229 230/230/230 247/247/247
f 229/229/229 247/247/247 246/246/246
f 230/230/230 231/231/231 248/248/248
f 230/230/230 248/248/248 247/247/247
f 231/231/231 232/232/232 249/249/249
f 231/231/231 249/249/249 248/248/248
f 232/232/232 233/233/233 250/250/250
f 232/232/232 250/250/250 249/249/249
f 233/233/233 234/234/234 251/251/251
f 233/233/233 251/251/251 250/250/250
f 234/234/234 235/235/235 252/252/252
f 234/234/234 252/252/252 251/251/251
f 235/235/235 236/236/236 253/253/253
f 235/235/235 253/253/253 252/252/252
f 236/236/236 237/237/237 254/254/254
f 236/236/236 254/254/254 253/253/253
f 237/237/237 238/238/238 255/255/255
f 237/237/237 255/255/255 254/254/254
f 239/240/240 240/239/239 257/256/256
f 239/240/240 257/256/256 256/257/257
f 240/239/239 241/241/241 258/258/258
f 240/239/239 258/258/258 257/256/256
f 241/241/241 242/242/242 259/259/259
f 241/241/241 259/259/259 258/258/258
f 242/242/242 243/243/243 260/260/260
f 242/242/242 260/260/260 259/259/259
f 243/243/243 244/244/244 261/261/261
f 243/243/243 261/261/261 260/260/260
f 244/244/244 245/245/245 262/262/262
f 244/244/244 262/262/262 261/261/261
f 245/245/245 246/246/246 263/263/263
f 245/245/245 263/263/263 262/262/262
f 246/246/246 247/247/247 264/264/264
f 246/246/246 264/264/264 263/263/263
f 247/247/247 248/248/248 265/265/265
f 247/247/247 265/265/265 264/264/264
f 248/248/248 249/249/249 266/266/266
f 248/248/248 266/266/266 265/265/265
f 249/249/249 250/250/250 267/267/267
f 249/249/249 267/267/267 266/266/266
f 250/250/250 251/251/251 268/268/268
f 250/250/250 268/268/268 267/267/267
f 251/251/251 252/252/252 269/269/269
f 251/251/251 269/269/269 268/268/268
f 252/252/252 253/253/253 270/270/270
f 252/252/252 270/270/270 269/269/269
f 253/253/253 254/254/254 271/271/271
f 253/253/253 271/271/271 270/270/270
f 254/254/254 255/255/255 272/272/272
f 254/254/254 272/272/272 271/271/271
f 256/257/257 257/256/256 274/273/273
f 256/257/257 274/273/273 273/274/274
f 257/256/256 258/258/258 275/275/275
f 257/256/256 275/275/275 274/273/273
f 258/258/258 259/259/259 276/276/276
f 258/258/258 276/276/276 275/275/275
f 259/259/259 260/260/260 277/277/277
f 259/259/259 277/277/277 276/276/276
f 260/260/260 261/261/261 278/278/278
f 260/260/260 278/278/278 277/277/277
f 261/261/261 262/262/262 279/279/279
f 261/261/261 279/279/279 278/278/278
f 262/262/262 263/263/263 280/280/280
f 262/262/262 280/280/280 279/279/279
f 263/263/263 264/264/264 281/281/281
f 263/263/263 281/281/281 280/280/280
f 264/264/264 265/265/265 282/282/282
f 264/264/264 282/282/282 281/281/281
f 265/265/265 266/266/266 283/283/283
f 265/265/265 283/283/283 282/282/282
f 266/266/266 267/267/267 284/284/284
f 266/266/266 284/284/284 283/283/283
f 267/267/267 268/268/268 285/285/285
f 267/267/267 285/285/285 284/284/284
f 268/268/268 269/269/269 286/286/286
f 268/268/268 286/286/286 285/285/285
f 269/269/269 270/270/270 287/287/287
f 269/269/269 287/287/287 286/286/286
f 270/270/270 271/271/271 288/288/288
f 270/270/270 288/288/288 287/287/287
f 271/271/271 272/272/272 289/289/289
f 271/271/271 289/289/289 288/288/288
