mtllib terrain_mid_00_04.mtl
usemtl terrain_mid_00_04
# Blender 5.1.1
# www.blender.org
o terrain_mid_00_04
v -160.000000 -160.000000 -12.461772
v -140.000000 -160.000000 -14.377934
v -120.000000 -160.000000 -13.602730
v -100.000000 -160.000000 -10.340747
v -80.000000 -160.000000 -4.554499
v -60.000000 -160.000000 2.108204
v -40.000000 -160.000000 8.663194
v -20.000000 -160.000000 14.423539
v 0.000000 -160.000000 18.762226
v 20.000000 -160.000000 20.398897
v 40.000000 -160.000000 20.348120
v 60.000000 -160.000000 18.622717
v 80.000000 -160.000000 16.252094
v 100.000000 -160.000000 14.501637
v 120.000000 -160.000000 14.259663
v 140.000000 -160.000000 16.454020
v 160.000000 -160.000000 19.747555
v -160.000000 -140.000000 -6.120452
v -140.000000 -140.000000 -6.100970
v -120.000000 -140.000000 -5.109203
v -100.000000 -140.000000 -2.935036
v -80.000000 -140.000000 1.307067
v -60.000000 -140.000000 7.006194
v -40.000000 -140.000000 12.744279
v -20.000000 -140.000000 17.618628
v 0.000000 -140.000000 20.627779
v 20.000000 -140.000000 20.829308
v 40.000000 -140.000000 19.302408
v 60.000000 -140.000000 16.412546
v 80.000000 -140.000000 13.324937
v 100.000000 -140.000000 11.120398
v 120.000000 -140.000000 10.861985
v 140.000000 -140.000000 13.772619
v 160.000000 -140.000000 18.007595
v -160.000000 -120.000000 0.660479
v -140.000000 -120.000000 2.326595
v -120.000000 -120.000000 3.428544
v -100.000000 -120.000000 4.856797
v -80.000000 -120.000000 7.606831
v -60.000000 -120.000000 12.138355
v -40.000000 -120.000000 16.766922
v -20.000000 -120.000000 20.381863
v 0.000000 -120.000000 22.140339
v 20.000000 -120.000000 20.606155
v 40.000000 -120.000000 17.796545
v 60.000000 -120.000000 13.819667
v 80.000000 -120.000000 9.937950
v 100.000000 -120.000000 7.442466
v 120.000000 -120.000000 7.374134
v 140.000000 -120.000000 11.058264
v 160.000000 -120.000000 16.065273
v -160.000000 -100.000000 6.556274
v -140.000000 -100.000000 9.860065
v -120.000000 -100.000000 11.066554
v -100.000000 -100.000000 12.273474
v -80.000000 -100.000000 14.357844
v -60.000000 -100.000000 17.333755
v -40.000000 -100.000000 20.632078
v -20.000000 -100.000000 22.816935
v 0.000000 -100.000000 22.831339
v 20.000000 -100.000000 19.954330
v 40.000000 -100.000000 15.787434
v 60.000000 -100.000000 10.760914
v 80.000000 -100.000000 6.189231
v 100.000000 -100.000000 3.533612
v 120.000000 -100.000000 3.869167
v 140.000000 -100.000000 8.370625
v 160.000000 -100.000000 14.105898
v -160.000000 -80.000000 12.157025
v -140.000000 -80.000000 15.405435
v -120.000000 -80.000000 16.942301
v -100.000000 -80.000000 18.245817
v -80.000000 -80.000000 19.626335
v -60.000000 -80.000000 21.375076
v -40.000000 -80.000000 23.061264
v -20.000000 -80.000000 23.675106
v 0.000000 -80.000000 22.418076
v 20.000000 -80.000000 18.463249
v 40.000000 -80.000000 13.385144
v 60.000000 -80.000000 7.540679
v 80.000000 -80.000000 2.191208
v 100.000000 -80.000000 -0.350560
v 120.000000 -80.000000 0.888047
v 140.000000 -80.000000 6.277573
v 160.000000 -80.000000 12.439666
v -160.000000 -60.000000 14.458665
v -140.000000 -60.000000 18.989883
v -120.000000 -60.000000 20.826784
v -100.000000 -60.000000 22.019438
v -80.000000 -60.000000 22.734608
v -60.000000 -60.000000 23.384867
v -40.000000 -60.000000 23.655806
v -20.000000 -60.000000 23.052509
v 0.000000 -60.000000 20.810831
v 20.000000 -60.000000 16.153475
v 40.000000 -60.000000 10.461944
v 60.000000 -60.000000 4.188184
v 80.000000 -60.000000 -1.549362
v 100.000000 -60.000000 -3.932628
v 120.000000 -60.000000 -1.725614
v 140.000000 -60.000000 4.354016
v 160.000000 -60.000000 10.994617
v -160.000000 -40.000000 15.660602
v -140.000000 -40.000000 19.593777
v -120.000000 -40.000000 21.521860
v -100.000000 -40.000000 22.263817
v -80.000000 -40.000000 22.388151
v -60.000000 -40.000000 22.155649
v -40.000000 -40.000000 21.642824
v -20.000000 -40.000000 20.265562
v 0.000000 -40.000000 17.611042
v 20.000000 -40.000000 12.791553
v 40.000000 -40.000000 7.006207
v 60.000000 -40.000000 0.746520
v 80.000000 -40.000000 -5.071389
v 100.000000 -40.000000 -7.153573
v 120.000000 -40.000000 -4.077973
v 140.000000 -40.000000 2.683464
v 160.000000 -40.000000 9.621540
v -160.000000 -20.000000 14.031695
v -140.000000 -20.000000 18.230400
v -120.000000 -20.000000 20.225639
v -100.000000 -20.000000 20.602354
v -80.000000 -20.000000 20.025728
v -60.000000 -20.000000 18.930801
v -40.000000 -20.000000 17.631458
v -20.000000 -20.000000 15.908639
v 0.000000 -20.000000 13.192687
v 20.000000 -20.000000 8.654137
v 40.000000 -20.000000 3.012145
v 60.000000 -20.000000 -3.289830
v 80.000000 -20.000000 -8.896879
v 100.000000 -20.000000 -10.141962
v 120.000000 -20.000000 -5.906414
v 140.000000 -20.000000 1.179558
v 160.000000 -20.000000 8.154533
v -160.000000 0.000000 11.459176
v -140.000000 0.000000 15.594423
v -120.000000 0.000000 17.711618
v -100.000000 0.000000 17.750956
v -80.000000 0.000000 16.558386
v -60.000000 0.000000 14.596557
v -40.000000 0.000000 12.657514
v -20.000000 0.000000 10.790071
v 0.000000 0.000000 8.194952
v 20.000000 0.000000 4.041713
v 40.000000 0.000000 -1.341957
v 60.000000 0.000000 -7.583857
v 80.000000 0.000000 -12.661962
v 100.000000 0.000000 -12.903230
v 120.000000 0.000000 -7.581276
v 140.000000 0.000000 -0.294631
v 160.000000 0.000000 6.695911
v -160.000000 20.000000 7.567012
v -140.000000 20.000000 11.748646
v -120.000000 20.000000 13.972313
v -100.000000 20.000000 13.842507
v -80.000000 20.000000 12.119227
v -60.000000 20.000000 9.306849
v -40.000000 20.000000 6.958078
v -20.000000 20.000000 5.204436
v 0.000000 20.000000 2.877237
v 20.000000 20.000000 -0.990334
v 40.000000 20.000000 -6.058948
v 60.000000 20.000000 -11.900863
v 80.000000 20.000000 -16.236065
v 100.000000 20.000000 -15.334515
v 120.000000 20.000000 -9.212241
v 140.000000 20.000000 -1.867931
v 160.000000 20.000000 5.213242
v -160.000000 40.000000 3.234967
v -140.000000 40.000000 7.699431
v -120.000000 40.000000 10.138122
v -100.000000 40.000000 10.335662
v -80.000000 40.000000 8.306385
v -60.000000 40.000000 4.546718
v -40.000000 40.000000 1.365406
v -20.000000 40.000000 -0.496153
v 0.000000 40.000000 -2.554424
v 20.000000 40.000000 -5.919686
v 40.000000 40.000000 -10.456788
v 60.000000 40.000000 -15.891541
v 80.000000 40.000000 -19.328049
v 100.000000 40.000000 -17.513327
v 120.000000 40.000000 -10.926837
v 140.000000 40.000000 -3.511605
v 160.000000 40.000000 3.340487
v -160.000000 60.000000 -1.499569
v -140.000000 60.000000 3.377980
v -120.000000 60.000000 6.095977
v -100.000000 60.000000 6.758856
v -80.000000 60.000000 4.529041
v -60.000000 60.000000 -0.056642
v -40.000000 60.000000 -3.992738
v -20.000000 60.000000 -6.280027
v 0.000000 60.000000 -8.073491
v 20.000000 60.000000 -10.686484
v 40.000000 60.000000 -14.632807
v 60.000000 60.000000 -19.627995
v 80.000000 60.000000 -22.140602
v 100.000000 60.000000 -19.506966
v 120.000000 60.000000 -12.758696
v 140.000000 60.000000 -5.412087
v 160.000000 60.000000 1.014790
v -160.000000 80.000000 -6.368268
v -140.000000 80.000000 -1.666627
v -120.000000 80.000000 1.425933
v -100.000000 80.000000 2.224835
v -80.000000 80.000000 0.068457
v -60.000000 80.000000 -4.478551
v -40.000000 80.000000 -9.242934
v -20.000000 80.000000 -12.258903
v 0.000000 80.000000 -13.694032
v 20.000000 80.000000 -15.412714
v 40.000000 80.000000 -18.625414
v 60.000000 80.000000 -23.100750
v 80.000000 80.000000 -24.782091
v 100.000000 80.000000 -21.350122
v 120.000000 80.000000 -14.706517
v 140.000000 80.000000 -7.745430
v 160.000000 80.000000 -1.988998
v -160.000000 100.000000 -11.423839
v -140.000000 100.000000 -6.754650
v -120.000000 100.000000 -3.368586
v -100.000000 100.000000 -2.323077
v -80.000000 100.000000 -4.048660
v -60.000000 100.000000 -8.114256
v -40.000000 100.000000 -13.144637
v -20.000000 100.000000 -17.198013
v 0.000000 100.000000 -19.202553
v 20.000000 100.000000 -20.627750
v 40.000000 100.000000 -23.312517
v 60.000000 100.000000 -26.927807
v 80.000000 100.000000 -27.306871
v 100.000000 100.000000 -23.184216
v 120.000000 100.000000 -17.094490
v 140.000000 100.000000 -11.022143
v 160.000000 100.000000 -5.603561
v -160.000000 120.000000 -16.541700
v -140.000000 120.000000 -11.926451
v -120.000000 120.000000 -8.455153
v -100.000000 120.000000 -7.075359
v -80.000000 120.000000 -8.045252
v -60.000000 120.000000 -11.410392
v -40.000000 120.000000 -16.461124
v -20.000000 120.000000 -21.375795
v 0.000000 120.000000 -24.469477
v 20.000000 120.000000 -25.973932
v 40.000000 120.000000 -28.239656
v 60.000000 120.000000 -30.617619
v 80.000000 120.000000 -29.648520
v 100.000000 120.000000 -25.064234
v 120.000000 120.000000 -19.404613
v 140.000000 120.000000 -13.786694
v 160.000000 120.000000 -8.075996
v -160.000000 140.000000 -21.327394
v -140.000000 140.000000 -17.745247
v -120.000000 140.000000 -14.576794
v -100.000000 140.000000 -12.568412
v -80.000000 140.000000 -12.739673
v -60.000000 140.000000 -15.272167
v -40.000000 140.000000 -19.846962
v -20.000000 140.000000 -25.044781
v 0.000000 140.000000 -28.887568
v 20.000000 140.000000 -31.242300
v 40.000000 140.000000 -32.992935
v 60.000000 140.000000 -33.431854
v 80.000000 140.000000 -31.331972
v 100.000000 140.000000 -26.762411
v 120.000000 140.000000 -20.933062
v 140.000000 140.000000 -14.351622
v 160.000000 140.000000 -7.322589
v -160.000000 160.000000 -26.002369
v -140.000000 160.000000 -24.328482
v -120.000000 160.000000 -21.625717
v -100.000000 160.000000 -18.979286
v -80.000000 160.000000 -17.941540
v -60.000000 160.000000 -19.475668
v -40.000000 160.000000 -23.448755
v -20.000000 160.000000 -28.455530
v 0.000000 160.000000 -32.792679
v 20.000000 160.000000 -35.692959
v 40.000000 160.000000 -36.652119
v 60.000000 160.000000 -35.298763
v 80.000000 160.000000 -31.506533
v 100.000000 160.000000 -25.997414
v 120.000000 160.000000 -19.628517
v 140.000000 160.000000 -12.494891
v 160.000000 160.000000 -5.134394
vn 0.1177 -0.2708 0.9554
vn 0.0123 -0.3517 0.9360
vn -0.0354 -0.3851 0.9222
vn 0.0182 -0.3216 0.9467
vn -0.0934 -0.3662 0.9258
vn -0.0726 -0.3907 0.9176
vn -0.2095 -0.3134 0.9262
vn -0.1483 -0.3512 0.9245
vn -0.2869 -0.2603 0.9219
vn -0.2313 -0.2830 0.9308
vn -0.3053 -0.2305 0.9239
vn -0.2672 -0.2343 0.9347
vn -0.2881 -0.2038 0.9357
vn -0.2516 -0.1922 0.9486
vn -0.2413 -0.1682 0.9558
vn -0.1913 -0.1446 0.9708
vn -0.1468 -0.1122 0.9828
vn -0.0797 -0.0839 0.9933
vn -0.0396 -0.0356 0.9986
vn 0.0331 -0.0052 0.9994
vn 0.0443 0.0367 0.9983
vn 0.1095 0.0633 0.9920
vn 0.1014 0.0960 0.9902
vn 0.1468 0.1179 0.9821
vn 0.1015 0.1381 0.9852
vn 0.1296 0.1546 0.9794
vn 0.0491 0.1613 0.9857
vn 0.0605 0.1735 0.9830
vn -0.0481 0.1654 0.9850
vn -0.0652 0.1693 0.9834
vn -0.1347 0.1311 0.9822
vn -0.1745 0.1314 0.9759
vn -0.1781 0.0878 0.9801
vn -0.2135 0.0896 0.9728
vn -0.0676 -0.3698 0.9267
vn -0.0669 -0.3360 0.9395
vn -0.0586 -0.3743 0.9255
vn -0.0972 -0.3537 0.9303
vn -0.1704 -0.3056 0.9368
vn -0.2165 -0.2441 0.9453
vn -0.1982 -0.1896 0.9616
vn -0.1320 -0.1277 0.9830
vn -0.0056 -0.0550 0.9985
vn 0.1079 0.0218 0.9939
vn 0.1666 0.0863 0.9822
vn 0.1909 0.1373 0.9720
vn 0.1551 0.1735 0.9725
vn 0.0628 0.1860 0.9805
vn -0.0887 0.1715 0.9812
vn -0.2103 0.1310 0.9688
vn -0.2446 0.0941 0.9651
vn -0.0807 -0.3098 0.9474
vn -0.1122 -0.2923 0.9497
vn -0.0571 -0.3196 0.9458
vn -0.0778 -0.3164 0.9454
vn -0.1203 -0.2857 0.9507
vn -0.1510 -0.2223 0.9632
vn -0.1342 -0.1540 0.9789
vn -0.0551 -0.0823 0.9951
vn 0.0714 -0.0069 0.9974
vn 0.1732 0.0527 0.9835
vn 0.2227 0.1068 0.9690
vn 0.2306 0.1509 0.9613
vn 0.1747 0.1872 0.9667
vn 0.0568 0.1909 0.9800
vn -0.1185 0.1589 0.9802
vn -0.2463 0.1150 0.9624
vn -0.2746 0.0868 0.9576
vn -0.1000 -0.2214 0.9700
vn -0.1451 -0.2052 0.9679
vn -0.0688 -0.2365 0.9692
vn -0.0651 -0.2362 0.9695
vn -0.0763 -0.2043 0.9759
vn -0.0846 -0.1490 0.9852
vn -0.0573 -0.0753 0.9955
vn 0.0161 -0.0059 0.9999
vn 0.1290 0.0500 0.9904
vn 0.2193 0.0923 0.9713
vn 0.2612 0.1274 0.9568
vn 0.2662 0.1563 0.9512
vn 0.1902 0.1865 0.9639
vn 0.0320 0.1834 0.9825
vn -0.1620 0.1367 0.9773
vn -0.2761 0.0961 0.9563
vn -0.2922 0.0742 0.9535
vn -0.1159 -0.1034 0.9879
vn -0.1702 -0.0921 0.9811
vn -0.0750 -0.1134 0.9907
vn -0.0474 -0.0998 0.9939
vn -0.0340 -0.0688 0.9970
vn -0.0230 -0.0195 0.9995
vn 0.0083 0.0354 0.9993
vn 0.0707 0.0847 0.9939
vn 0.1688 0.1176 0.9786
vn 0.2482 0.1360 0.9591
vn 0.2833 0.1510 0.9471
vn 0.2839 0.1606 0.9453
vn 0.1959 0.1752 0.9649
vn 0.0043 0.1677 0.9858
vn -0.2014 0.1207 0.9721
vn -0.3019 0.0853 0.9495
vn -0.3064 0.0669 0.9495
vn -0.1227 0.0188 0.9923
vn -0.1799 0.0298 0.9832
vn -0.0666 0.0150 0.9977
vn -0.0216 0.0354 0.9991
vn 0.0027 0.0676 0.9977
vn 0.0185 0.1106 0.9937
vn 0.0467 0.1488 0.9878
vn 0.0987 0.1749 0.9796
vn 0.1805 0.1840 0.9662
vn 0.2521 0.1783 0.9511
vn 0.2835 0.1753 0.9428
vn 0.2845 0.1762 0.9423
vn 0.1907 0.1773 0.9655
vn -0.0246 0.1533 0.9879
vn -0.2376 0.1010 0.9661
vn -0.3231 0.0749 0.9434
vn -0.3132 0.0673 0.9473
vn -0.1307 0.0986 0.9865
vn -0.1879 0.1121 0.9758
vn -0.0589 0.0947 0.9938
vn 0.0050 0.1122 0.9937
vn 0.0414 0.1442 0.9887
vn 0.0587 0.1854 0.9809
vn 0.0735 0.2186 0.9730
vn 0.1073 0.2292 0.9675
vn 0.1738 0.2256 0.9586
vn 0.2413 0.2075 0.9480
vn 0.2806 0.1962 0.9396
vn 0.2798 0.1957 0.9399
vn 0.1660 0.1839 0.9688
vn -0.0738 0.1419 0.9871
vn -0.2714 0.0840 0.9588
vn -0.3308 0.0701 0.9411
vn -0.3102 0.0693 0.9481
vn -0.1401 0.1584 0.9774
vn -0.1952 0.1683 0.9662
vn -0.0532 0.1542 0.9866
vn 0.0284 0.1665 0.9856
vn 0.0771 0.1933 0.9781
vn 0.0944 0.2329 0.9679
vn 0.0916 0.2567 0.9621
vn 0.1072 0.2570 0.9604
vn 0.1612 0.2464 0.9557
vn 0.2260 0.2287 0.9469
vn 0.2726 0.2127 0.9383
vn 0.2666 0.2028 0.9422
vn 0.1297 0.1790 0.9753
vn -0.1250 0.1277 0.9839
vn -0.2997 0.0786 0.9508
vn -0.3353 0.0716 0.9394
vn -0.3060 0.0698 0.9495
vn -0.1460 0.1916 0.9706
vn -0.1977 0.2044 0.9587
vn -0.0513 0.1858 0.9812
vn 0.0456 0.1822 0.9822
vn 0.1104 0.2008 0.9734
vn 0.1241 0.2417 0.9624
vn 0.0982 0.2703 0.9577
vn 0.0977 0.2702 0.9578
vn 0.1479 0.2567 0.9551
vn 0.2118 0.2361 0.9483
vn 0.2570 0.2147 0.9423
vn 0.2417 0.1973 0.9501
vn 0.0844 0.1638 0.9829
vn -0.1718 0.1128 0.9786
vn -0.3181 0.0790 0.9448
vn -0.3382 0.0755 0.9380
vn -0.3013 0.0797 0.9502
vn -0.1615 0.2021 0.9660
vn -0.2134 0.2215 0.9515
vn -0.0645 0.1928 0.9791
vn 0.0450 0.1742 0.9837
vn 0.1408 0.1846 0.9727
vn 0.1666 0.2247 0.9601
vn 0.1207 0.2621 0.9575
vn 0.0937 0.2747 0.9570
vn 0.1297 0.2618 0.9564
vn 0.1886 0.2314 0.9544
vn 0.2370 0.2038 0.9499
vn 0.2127 0.1853 0.9594
vn 0.0401 0.1459 0.9885
vn -0.2044 0.1016 0.9736
vn -0.3292 0.0834 0.9406
vn -0.3348 0.0832 0.9386
vn -0.2875 0.1000 0.9525
vn -0.1785 0.2243 0.9580
vn -0.2293 0.2309 0.9456
vn -0.0822 0.2121 0.9738
vn 0.0384 0.1986 0.9793
vn 0.1646 0.1990 0.9661
vn 0.2035 0.2155 0.9551
vn 0.1485 0.2534 0.9559
vn 0.0974 0.2808 0.9548
vn 0.1055 0.2668 0.9580
vn 0.1576 0.2282 0.9608
vn 0.2140 0.1955 0.9571
vn 0.1816 0.1744 0.9678
vn -0.0030 0.1351 0.9908
vn -0.2274 0.0930 0.9694
vn -0.3310 0.0888 0.9394
vn -0.3240 0.0996 0.9408
vn -0.2686 0.1272 0.9548
vn -0.1844 0.2413 0.9528
vn -0.2209 0.2366 0.9462
vn -0.0942 0.2293 0.9688
vn 0.0331 0.2213 0.9746
vn 0.1617 0.2069 0.9649
vn 0.2225 0.1925 0.9557
vn 0.1864 0.2192 0.9577
vn 0.1067 0.2618 0.9592
vn 0.0758 0.2673 0.9606
vn 0.1188 0.2395 0.9636
vn 0.1846 0.2084 0.9605
vn 0.1497 0.1775 0.9727
vn -0.0433 0.1280 0.9908
vn -0.2433 0.0888 0.9659
vn -0.3203 0.1021 0.9418
vn -0.3002 0.1322 0.9447
vn -0.2484 0.1581 0.9557
vn -0.1900 0.2439 0.9510
vn -0.2162 0.2431 0.9456
vn -0.1070 0.2386 0.9652
vn 0.0165 0.2264 0.9739
vn 0.1405 0.1968 0.9703
vn 0.2186 0.1666 0.9615
vn 0.2181 0.1733 0.9604
vn 0.1460 0.2198 0.9646
vn 0.0825 0.2592 0.9623
vn 0.0988 0.2540 0.9621
vn 0.1514 0.2310 0.9611
vn 0.0977 0.1838 0.9781
vn -0.0925 0.1203 0.9884
vn -0.2464 0.0896 0.9650
vn -0.2892 0.1116 0.9507
vn -0.2733 0.1436 0.9512
vn -0.2489 0.1457 0.9575
vn -0.1927 0.2600 0.9462
vn -0.2086 0.2451 0.9468
vn -0.1160 0.2680 0.9564
vn -0.0099 0.2481 0.9687
vn 0.1053 0.2112 0.9718
vn 0.2028 0.1725 0.9639
vn 0.2386 0.1605 0.9577
vn 0.1928 0.1889 0.9629
vn 0.1111 0.2339 0.9659
vn 0.0907 0.2554 0.9626
vn 0.1121 0.2337 0.9658
vn 0.0346 0.1604 0.9864
vn -0.1368 0.0992 0.9856
vn -0.2472 0.0863 0.9651
vn -0.2702 0.0920 0.9584
vn -0.2716 0.0798 0.9591
vn -0.2769 0.0413 0.9600
vn -0.1681 0.2919 0.9416
vn -0.1629 0.2363 0.9579
vn -0.1220 0.3104 0.9427
vn -0.0440 0.2849 0.9575
vn 0.0654 0.2396 0.9687
vn 0.1716 0.1947 0.9657
vn 0.2340 0.1674 0.9577
vn 0.2173 0.1701 0.9612
vn 0.1500 0.2014 0.9680
vn 0.0992 0.2349 0.9669
vn 0.0535 0.2055 0.9772
vn -0.0412 0.1162 0.9924
vn -0.1643 0.0458 0.9854
vn -0.2515 0.0226 0.9676
vn -0.2963 0.0053 0.9551
vn -0.3220 -0.0306 0.9463
vn -0.3284 -0.0693 0.9420
vn -0.1148 0.2955 0.9484
vn -0.0604 0.2031 0.9773
vn -0.1252 0.3281 0.9363
vn -0.0873 0.3078 0.9474
vn 0.0120 0.2598 0.9656
vn 0.1332 0.2149 0.9675
vn 0.2153 0.1826 0.9593
vn 0.2245 0.1606 0.9611
vn 0.1754 0.1727 0.9692
vn 0.0942 0.1951 0.9762
vn -0.0097 0.1601 0.9871
vn -0.1272 0.0780 0.9888
vn -0.2265 -0.0024 0.9740
vn -0.2843 -0.0494 0.9575
vn -0.3189 -0.0765 0.9447
vn -0.3392 -0.0920 0.9362
vn -0.3385 -0.0947 0.9362
vt 0.015625 0.015625
vt 0.076172 0.015625
vt 0.076172 0.076172
vt 0.015625 0.076172
vt 0.136719 0.015625
vt 0.136719 0.076172
vt 0.197266 0.015625
vt 0.197266 0.076172
vt 0.257812 0.015625
vt 0.257812 0.076172
vt 0.318359 0.015625
vt 0.318359 0.076172
vt 0.378906 0.015625
vt 0.378906 0.076172
vt 0.439453 0.015625
vt 0.439453 0.076172
vt 0.500000 0.015625
vt 0.500000 0.076172
vt 0.560547 0.015625
vt 0.560547 0.076172
vt 0.621094 0.015625
vt 0.621094 0.076172
vt 0.681641 0.015625
vt 0.681641 0.076172
vt 0.742188 0.015625
vt 0.742188 0.076172
vt 0.802734 0.015625
vt 0.802734 0.076172
vt 0.863281 0.015625
vt 0.863281 0.076172
vt 0.923828 0.015625
vt 0.923828 0.076172
vt 0.984375 0.015625
vt 0.984375 0.076172
vt 0.076172 0.136719
vt 0.015625 0.136719
vt 0.136719 0.136719
vt 0.197266 0.136719
vt 0.257812 0.136719
vt 0.318359 0.136719
vt 0.378906 0.136719
vt 0.439453 0.136719
vt 0.500000 0.136719
vt 0.560547 0.136719
vt 0.621094 0.136719
vt 0.681641 0.136719
vt 0.742188 0.136719
vt 0.802734 0.136719
vt 0.863281 0.136719
vt 0.923828 0.136719
vt 0.984375 0.136719
vt 0.076172 0.197266
vt 0.015625 0.197266
vt 0.136719 0.197266
vt 0.197266 0.197266
vt 0.257812 0.197266
vt 0.318359 0.197266
vt 0.378906 0.197266
vt 0.439453 0.197266
vt 0.500000 0.197266
vt 0.560547 0.197266
vt 0.621094 0.197266
vt 0.681641 0.197266
vt 0.742188 0.197266
vt 0.802734 0.197266
vt 0.863281 0.197266
vt 0.923828 0.197266
vt 0.984375 0.197266
vt 0.076172 0.257812
vt 0.015625 0.257812
vt 0.136719 0.257812
vt 0.197266 0.257812
vt 0.257812 0.257812
vt 0.318359 0.257812
vt 0.378906 0.257812
vt 0.439453 0.257812
vt 0.500000 0.257812
vt 0.560547 0.257812
vt 0.621094 0.257812
vt 0.681641 0.257812
vt 0.742188 0.257812
vt 0.802734 0.257812
vt 0.863281 0.257812
vt 0.923828 0.257812
vt 0.984375 0.257812
vt 0.076172 0.318359
vt 0.015625 0.318359
vt 0.136719 0.318359
vt 0.197266 0.318359
vt 0.257812 0.318359
vt 0.318359 0.318359
vt 0.378906 0.318359
vt 0.439453 0.318359
vt 0.500000 0.318359
vt 0.560547 0.318359
vt 0.621094 0.318359
vt 0.681641 0.318359
vt 0.742188 0.318359
vt 0.802734 0.318359
vt 0.863281 0.318359
vt 0.923828 0.318359
vt 0.984375 0.318359
vt 0.076172 0.378906
vt 0.015625 0.378906
vt 0.136719 0.378906
vt 0.197266 0.378906
vt 0.257812 0.378906
vt 0.318359 0.378906
vt 0.378906 0.378906
vt 0.439453 0.378906
vt 0.500000 0.378906
vt 0.560547 0.378906
vt 0.621094 0.378906
vt 0.681641 0.378906
vt 0.742188 0.378906
vt 0.802734 0.378906
vt 0.863281 0.378906
vt 0.923828 0.378906
vt 0.984375 0.378906
vt 0.076172 0.439453
vt 0.015625 0.439453
vt 0.136719 0.439453
vt 0.197266 0.439453
vt 0.257812 0.439453
vt 0.318359 0.439453
vt 0.378906 0.439453
vt 0.439453 0.439453
vt 0.500000 0.439453
vt 0.560547 0.439453
vt 0.621094 0.439453
vt 0.681641 0.439453
vt 0.742188 0.439453
vt 0.802734 0.439453
vt 0.863281 0.439453
vt 0.923828 0.439453
vt 0.984375 0.439453
vt 0.076172 0.500000
vt 0.015625 0.500000
vt 0.136719 0.500000
vt 0.197266 0.500000
vt 0.257812 0.500000
vt 0.318359 0.500000
vt 0.378906 0.500000
vt 0.439453 0.500000
vt 0.500000 0.500000
vt 0.560547 0.500000
vt 0.621094 0.500000
vt 0.681641 0.500000
vt 0.742188 0.500000
vt 0.802734 0.500000
vt 0.863281 0.500000
vt 0.923828 0.500000
vt 0.984375 0.500000
vt 0.076172 0.560547
vt 0.015625 0.560547
vt 0.136719 0.560547
vt 0.197266 0.560547
vt 0.257812 0.560547
vt 0.318359 0.560547
vt 0.378906 0.560547
vt 0.439453 0.560547
vt 0.500000 0.560547
vt 0.560547 0.560547
vt 0.621094 0.560547
vt 0.681641 0.560547
vt 0.742188 0.560547
vt 0.802734 0.560547
vt 0.863281 0.560547
vt 0.923828 0.560547
vt 0.984375 0.560547
vt 0.076172 0.621094
vt 0.015625 0.621094
vt 0.136719 0.621094
vt 0.197266 0.621094
vt 0.257812 0.621094
vt 0.318359 0.621094
vt 0.378906 0.621094
vt 0.439453 0.621094
vt 0.500000 0.621094
vt 0.560547 0.621094
vt 0.621094 0.621094
vt 0.681641 0.621094
vt 0.742188 0.621094
vt 0.802734 0.621094
vt 0.863281 0.621094
vt 0.923828 0.621094
vt 0.984375 0.621094
vt 0.076172 0.681641
vt 0.015625 0.681641
vt 0.136719 0.681641
vt 0.197266 0.681641
vt 0.257812 0.681641
vt 0.318359 0.681641
vt 0.378906 0.681641
vt 0.439453 0.681641
vt 0.500000 0.681641
vt 0.560547 0.681641
vt 0.621094 0.681641
vt 0.681641 0.681641
vt 0.742188 0.681641
vt 0.802734 0.681641
vt 0.863281 0.681641
vt 0.923828 0.681641
vt 0.984375 0.681641
vt 0.076172 0.742188
vt 0.015625 0.742188
vt 0.136719 0.742188
vt 0.197266 0.742188
vt 0.257812 0.742188
vt 0.318359 0.742188
vt 0.378906 0.742188
vt 0.439453 0.742188
vt 0.500000 0.742188
vt 0.560547 0.742188
vt 0.621094 0.742188
vt 0.681641 0.742188
vt 0.742188 0.742188
vt 0.802734 0.742188
vt 0.863281 0.742188
vt 0.923828 0.742188
vt 0.984375 0.742188
vt 0.076172 0.802734
vt 0.015625 0.802734
vt 0.136719 0.802734
vt 0.197266 0.802734
vt 0.257812 0.802734
vt 0.318359 0.802734
vt 0.378906 0.802734
vt 0.439453 0.802734
vt 0.500000 0.802734
vt 0.560547 0.802734
vt 0.621094 0.802734
vt 0.681641 0.802734
vt 0.742188 0.802734
vt 0.802734 0.802734
vt 0.863281 0.802734
vt 0.923828 0.802734
vt 0.984375 0.802734
vt 0.076172 0.863281
vt 0.015625 0.863281
vt 0.136719 0.863281
vt 0.197266 0.863281
vt 0.257812 0.863281
vt 0.318359 0.863281
vt 0.378906 0.863281
vt 0.439453 0.863281
vt 0.500000 0.863281
vt 0.560547 0.863281
vt 0.621094 0.863281
vt 0.681641 0.863281
vt 0.742188 0.863281
vt 0.802734 0.863281
vt 0.863281 0.863281
vt 0.923828 0.863281
vt 0.984375 0.863281
vt 0.076172 0.923828
vt 0.015625 0.923828
vt 0.136719 0.923828
vt 0.197266 0.923828
vt 0.257812 0.923828
vt 0.318359 0.923828
vt 0.378906 0.923828
vt 0.439453 0.923828
vt 0.500000 0.923828
vt 0.560547 0.923828
vt 0.621094 0.923828
vt 0.681641 0.923828
vt 0.742188 0.923828
vt 0.802734 0.923828
vt 0.863281 0.923828
vt 0.923828 0.923828
vt 0.984375 0.923828
vt 0.076172 0.984375
vt 0.015625 0.984375
vt 0.136719 0.984375
vt 0.197266 0.984375
vt 0.257812 0.984375
vt 0.318359 0.984375
vt 0.378906 0.984375
vt 0.439453 0.984375
vt 0.500000 0.984375
vt 0.560547 0.984375
vt 0.621094 0.984375
vt 0.681641 0.984375
vt 0.742188 0.984375
vt 0.802734 0.984375
vt 0.863281 0.984375
vt 0.923828 0.984375
vt 0.984375 0.984375
s 1
f 1/1/1 2/2/2 19/3/3
f 1/1/1 19/3/3 18/4/4
f 2/2/2 3/5/5 20/6/6
f 2/2/2 20/6/6 19/3/3
f 3/5/5 4/7/7 21/8/8
f 3/5/5 21/8/8 20/6/6
f 4/7/7 5/9/9 22/10/10
f 4/7/7 22/10/10 21/8/8
f 5/9/9 6/11/11 23/12/12
f 5/9/9 23/12/12 22/10/10
f 6/11/11 7/13/13 24/14/14
f 6/11/11 24/14/14 23/12/12
f 7/13/13 8/15/15 25/16/16
f 7/13/13 25/16/16 24/14/14
f 8/15/15 9/17/17 26/18/18
f 8/15/15 26/18/18 25/16/16
f 9/17/17 10/19/19 27/20/20
f 9/17/17 27/20/20 26/18/18
f 10/19/19 11/21/21 28/22/22
f 10/19/19 28/22/22 27/20/20
f 11/21/21 12/23/23 29/24/24
f 11/21/21 29/24/24 28/22/22
f 12/23/23 13/25/25 30/26/26
f 12/23/23 30/26/26 29/24/24
f 13/25/25 14/27/27 31/28/28
f 13/25/25 31/28/28 30/26/26
f 14/27/27 15/29/29 32/30/30
f 14/27/27 32/30/30 31/28/28
f 15/29/29 16/31/31 33/32/32
f 15/29/29 33/32/32 32/30/30
f 16/31/31 17/33/33 34/34/34
f 16/31/31 34/34/34 33/32/32
f 18/4/4 19/3/3 36/35/35
f 18/4/4 36/35/35 35/36/36
f 19/3/3 20/6/6 37/37/37
f 19/3/3 37/37/37 36/35/35
f 20/6/6 21/8/8 38/38/38
f 20/6/6 38/38/38 37/37/37
f 21/8/8 22/10/10 39/39/39
f 21/8/8 39/39/39 38/38/38
f 22/10/10 23/12/12 40/40/40
f 22/10/10 40/40/40 39/39/39
f 23/12/12 24/14/14 41/41/41
f 23/12/12 41/41/41 40/40/40
f 24/14/14 25/16/16 42/42/42
f 24/14/14 42/42/42 41/41/41
f 25/16/16 26/18/18 43/43/43
f 25/16/16 43/43/43 42/42/42
f 26/18/18 27/20/20 44/44/44
f 26/18/18 44/44/44 43/43/43
f 27/20/20 28/22/22 45/45/45
f 27/20/20 45/45/45 44/44/44
f 28/22/22 29/24/24 46/46/46
f 28/22/22 46/46/46 45/45/45
f 29/24/24 30/26/26 47/47/47
f 29/24/24 47/47/47 46/46/46
f 30/26/26 31/28/28 48/48/48
f 30/26/26 48/48/48 47/47/47
f 31/28/28 32/30/30 49/49/49
f 31/28/28 49/49/49 48/48/48
f 32/30/30 33/32/32 50/50/50
f 32/30/30 50/50/50 49/49/49
f 33/32/32 34/34/34 51/51/51
f 33/32/32 51/51/51 50/50/50
f 35/36/36 36/35/35 53/52/52
f 35/36/36 53/52/52 52/53/53
f 36/35/35 37/37/37 54/54/54
f 36/35/35 54/54/54 53/52/52
f 37/37/37 38/38/38 55/55/55
f 37/37/37 55/55/55 54/54/54
f 38/38/38 39/39/39 56/56/56
f 38/38/38 56/56/56 55/55/55
f 39/39/39 40/40/40 57/57/57
f 39/39/39 57/57/57 56/56/56
f 40/40/40 41/41/41 58/58/58
f 40/40/40 58/58/58 57/57/57
f 41/41/41 42/42/42 59/59/59
f 41/41/41 59/59/59 58/58/58
f 42/42/42 43/43/43 60/60/60
f 42/42/42 60/60/60 59/59/59
f 43/43/43 44/44/44 61/61/61
f 43/43/43 61/61/61 60/60/60
f 44/44/44 45/45/45 62/62/62
f 44/44/44 62/62/62 61/61/61
f 45/45/45 46/46/46 63/63/63
f 45/45/45 63/63/63 62/62/62
f 46/46/46 47/47/47 64/64/64
f 46/46/46 64/64/64 63/63/63
f 47/47/47 48/48/48 65/65/65
f 47/47/47 65/65/65 64/64/64
f 48/48/48 49/49/49 66/66/66
f 48/48/48 66/66/66 65/65/65
f 49/49/49 50/50/50 67/67/67
f 49/49/49 67/67/67 66/66/66
f 50/50/50 51/51/51 68/68/68
f 50/50/50 68/68/68 67/67/67
f 52/53/53 53/52/52 70/69/69
f 52/53/53 70/69/69 69/70/70
f 53/52/52 54/54/54 71/71/71
f 53/52/52 71/71/71 70/69/69
f 54/54/54 55/55/55 72/72/72
f 54/54/54 72/72/72 71/71/71
f 55/55/55 56/56/56 73/73/73
f 55/55/55 73/73/73 72/72/72
f 56/56/56 57/57/57 74/74/74
f 56/56/56 74/74/74 73/73/73
f 57/57/57 58/58/58 75/75/75
f 57/57/57 75/75/75 74/74/74
f 58/58/58 59/59/59 76/76/76
f 58/58/58 76/76/76 75/75/75
f 59/59/59 60/60/60 77/77/77
f 59/59/59 77/77/77 76/76/76
f 60/60/60 61/61/61 78/78/78
f 60/60/60 78/78/78 77/77/77
f 61/61/61 62/62/62 79/79/79
f 61/61/61 79/79/79 78/78/78
f 62/62/62 63/63/63 80/80/80
f 62/62/62 80/80/80 79/79/79
f 63/63/63 64/64/64 81/81/81
f 63/63/63 81/81/81 80/80/80
f 64/64/64 65/65/65 82/82/82
f 64/64/64 82/82/82 81/81/81
f 65/65/65 66/66/66 83/83/83
f 65/65/65 83/83/83 82/82/82
f 66/66/66 67/67/67 84/84/84
f 66/66/66 84/84/84 83/83/83
f 67/67/67 68/68/68 85/85/85
f 67/67/67 85/85/85 84/84/84
f 69/70/70 70/69/69 87/86/86
f 69/70/70 87/86/86 86/87/87
f 70/69/69 71/71/71 88/88/88
f 70/69/69 88/88/88 87/86/86
f 71/71/71 72/72/72 89/89/89
f 71/71/71 89/89/89 88/88/88
f 72/72/72 73/73/73 90/90/90
f 72/72/72 90/90/90 89/89/89
f 73/73/73 74/74/74 91/91/91
f 73/73/73 91/91/91 90/90/90
f 74/74/74 75/75/75 92/92/92
f 74/74/74 92/92/92 91/91/91
f 75/75/75 76/76/76 93/93/93
f 75/75/75 93/93/93 92/92/92
f 76/76/76 77/77/77 94/94/94
f 76/76/76 94/94/94 93/93/93
f 77/77/77 78/78/78 95/95/95
f 77/77/77 95/95/95 94/94/94
f 78/78/78 79/79/79 96/96/96
f 78/78/78 96/96/96 95/95/95
f 79/79/79 80/80/80 97/97/97
f 79/79/79 97/97/97 96/96/96
f 80/80/80 81/81/81 98/98/98
f 80/80/80 98/98/98 97/97/97
f 81/81/81 82/82/82 99/99/99
f 81/81/81 99/99/99 98/98/98
f 82/82/82 83/83/83 100/100/100
f 82/82/82 100/100/100 99/99/99
f 83/83/83 84/84/84 101/101/101
f 83/83/83 101/101/101 100/100/100
f 84/84/84 85/85/85 102/102/102
f 84/84/84 102/102/102 101/101/101
f 86/87/87 87/86/86 104/103/103
f 86/87/87 104/103/103 103/104/104
f 87/86/86 88/88/88 105/105/105
f 87/86/86 105/105/105 104/103/103
f 88/88/88 89/89/89 106/106/106
f 88/88/88 106/106/106 105/105/105
f 89/89/89 90/90/90 107/107/107
f 89/89/89 107/107/107 106/106/106
f 90/90/90 91/91/91 108/108/108
f 90/90/90 108/108/108 107/107/107
f 91/91/91 92/92/92 109/109/109
f 91/91/91 109/109/109 108/108/108
f 92/92/92 93/93/93 110/110/110
f 92/92/92 110/110/110 109/109/109
f 93/93/93 94/94/94 111/111/111
f 93/93/93 111/111/111 110/110/110
f 94/94/94 95/95/95 112/112/112
f 94/94/94 112/112/112 111/111/111
f 95/95/95 96/96/96 113/113/113
f 95/95/95 113/113/113 112/112/112
f 96/96/96 97/97/97 114/114/114
f 96/96/96 114/114/114 113/113/113
f 97/97/97 98/98/98 115/115/115
f 97/97/97 115/115/115 114/114/114
f 98/98/98 99/99/99 116/116/116
f 98/98/98 116/116/116 115/115/115
f 99/99/99 100/100/100 117/117/117
f 99/99/99 117/117/117 116/116/116
f 100/100/100 101/101/101 118/118/118
f 100/100/100 118/118/118 117/117/117
f 101/101/101 102/102/102 119/119/119
f 101/101/101 119/119/119 118/118/118
f 103/104/104 104/103/103 121/120/120
f 103/104/104 121/120/120 120/121/121
f 104/103/103 105/105/105 122/122/122
f 104/103/103 122/122/122 121/120/120
f 105/105/105 106/106/106 123/123/123
f 105/105/105 123/123/123 122/122/122
f 106/106/106 107/107/107 124/124/124
f 106/106/106 124/124/124 123/123/123
f 107/107/107 108/108/108 125/125/125
f 107/107/107 125/125/125 124/124/124
f 108/108/108 109/109/109 126/126/126
f 108/108/108 126/126/126 125/125/125
f 109/109/109 110/110/110 127/127/127
f 109/109/109 127/127/127 126/126/126
f 110/110/110 111/111/111 128/128/128
f 110/110/110 128/128/128 127/127/127
f 111/111/111 112/112/112 129/129/129
f 111/111/111 129/129/129 128/128/128
f 112/112/112 113/113/113 130/130/130
f 112/112/112 130/130/130 129/129/129
f 113/113/113 114/114/114 131/131/131
f 113/113/113 131/131/131 130/130/130
f 114/114/114 115/115/115 132/132/132
f 114/114/114 132/132/132 131/131/131
f 115/115/115 116/116/116 133/133/133
f 115/115/115 133/133/133 132/132/132
f 116/116/116 117/117/117 134/134/134
f 116/116/116 134/134/134 133/133/133
f 117/117/117 118/118/118 135/135/135
f 117/117/117 135/135/135 134/134/134
f 118/118/118 119/119/119 136/136/136
f 118/118/118 136/136/136 135/135/135
f 120/121/121 121/120/120 138/137/137
f 120/121/121 138/137/137 137/138/138
f 121/120/120 122/122/122 139/139/139
f 121/120/120 139/139/139 138/137/137
f 122/122/122 123/123/123 140/140/140
f 122/122/122 140/140/140 139/139/139
f 123/123/123 124/124/124 141/141/141
f 123/123/123 141/141/141 140/140/140
f 124/124/124 125/125/125 142/142/142
f 124/124/124 142/142/142 141/141/141
f 125/125/125 126/126/126 143/143/143
f 125/125/125 143/143/143 142/142/142
f 126/126/126 127/127/127 144/144/144
f 126/126/126 144/144/144 143/143/143
f 127/127/127 128/128/128 145/145/145
f 127/127/127 145/145/145 144/144/144
f 128/128/128 129/129/129 146/146/146
f 128/128/128 146/146/146 145/145/145
f 129/129/129 130/130/130 147/147/147
f 129/129/129 147/147/147 146/146/146
f 130/130/130 131/131/131 148/148/148
f 130/130/130 148/148/148 147/147/147
f 131/131/131 132/132/132 149/149/149
f 131/131/131 149/149/149 148/148/148
f 132/132/132 133/133/133 150/150/150
f 132/132/132 150/150/150 149/149/149
f 133/133/133 134/134/134 151/151/151
f 133/133/133 151/151/151 150/150/150
f 134/134/134 135/135/135 152/152/152
f 134/134/134 152/152/152 151/151/151
f 135/135/135 136/136/136 153/153/153
f 135/135/135 153/153/153 152/152/152
f 137/138/138 138/137/137 155/154/154
f 137/138/138 155/154/154 154/155/155
f 138/137/137 139/139/139 156/156/156
f 138/137/137 156/156/156 155/154/154
f 139/139/139 140/140/140 157/157/157
f 139/139/139 157/157/157 156/156/156
f 140/140/140 141/141/141 158/158/158
f 140/140/140 158/158/158 157/157/157
f 141/141/141 142/142/142 159/159/159
f 141/141/141 159/159/159 158/158/158
f 142/142/142 143/143/143 160/160/160
f 142/142/142 160/160/160 159/159/159
f 143/143/143 144/144/144 161/161/161
f 143/143/143 161/161/161 160/160/160
f 144/144/144 145/145/145 162/162/162
f 144/144/144 162/162/162 161/161/161
f 145/145/145 146/146/146 163/163/163
f 145/145/145 163/163/163 162/162/162
f 146/146/146 147/147/147 164/164/164
f 146/146/146 164/164/164 163/163/163
f 147/147/147 148/148/148 165/165/165
f 147/147/147 165/165/165 164/164/164
f 148/148/148 149/149/149 166/166/166
f 148/148/148 166/166/166 165/165/165
f 149/149/149 150/150/150 167/167/167
f 149/149/149 167/167/167 166/166/166
f 150/150/150 151/151/151 168/168/168
f 150/150/150 168/168/168 167/167/167
f 151/151/151 152/152/152 169/169/169
f 151/151/151 169/169/169 168/168/168
f 152/152/152 153/153/153 170/170/170
f 152/152/152 170/170/170 169/169/169
f 154/155/155 155/154/154 172/171/171
f 154/155/155 172/171/171 171/172/172
f 155/154/154 156/156/156 173/173/173
f 155/154/154 173/173/173 172/171/171
f 156/156/156 157/157/157 174/174/174
f 156/156/156 174/174/174 173/173/173
f 157/157/157 158/158/158 175/175/175
f 157/157/157 175/175/175 174/174/174
f 158/158/158 159/159/159 176/176/176
f 158/158/158 176/176/176 175/175/175
f 159/159/159 160/160/160 177/177/177
f 159/159/159 177/177/177 176/176/176
f 160/160/160 161/161/161 178/178/178
f 160/160/160 178/178/178 177/177/177
f 161/161/161 162/162/162 179/179/179
f 161/161/161 179/179/179 178/178/178
f 162/162/162 163/163/163 180/180/180
f 162/162/162 180/180/180 179/179/179
f 163/163/163 164/164/164 181/181/181
f 163/163/163 181/181/181 180/180/180
f 164/164/164 165/165/165 182/182/182
f 164/164/164 182/182/182 181/181/181
f 165/165/165 166/166/166 183/183/183
f 165/165/165 183/183/183 182/182/182
f 166/166/166 167/167/167 184/184/184
f 166/166/166 184/184/184 183/183/183
f 167/167/167 168/168/168 185/185/185
f 167/167/167 185/185/185 184/184/184
f 168/168/168 169/169/169 186/186/186
f 168/168/168 186/186/186 185/185/185
f 169/169/169 170/170/170 187/187/187
f 169/169/169 187/187/187 186/186/186
f 171/172/172 172/171/171 189/188/188
f 171/172/172 189/188/188 188/189/189
f 172/171/171 173/173/173 190/190/190
f 172/171/171 190/190/190 189/188/188
f 173/173/173 174/174/174 191/191/191
f 173/173/173 191/191/191 190/190/190
f 174/174/174 175/175/175 192/192/192
f 174/174/174 192/192/192 191/191/191
f 175/175/175 176/176/176 193/193/193
f 175/175/175 193/193/193 192/192/192
f 176/176/176 177/177/177 194/194/194
f 176/176/176 194/194/194 193/193/193
f 177/177/177 178/178/178 195/195/195
f 177/177/177 195/195/195 194/194/194
f 178/178/178 179/179/179 196/196/196
f 178/178/178 196/196/196 195/195/195
f 179/179/179 180/180/180 197/197/197
f 179/179/179 197/197/197 196/196/196
f 180/180/180 181/181/181 198/198/198
f 180/180/180 198/198/198 197/197/197
f 181/181/181 182/182/182 199/199/199
f 181/181/181 199/199/199 198/198/198
f 182/182/182 183/183/183 200/200/200
f 182/182/182 200/200/200 199/199/199
f 183/183/183 184/184/184 201/201/201
f 183/183/183 201/201/201 200/200/200
f 184/184/184 185/185/185 202/202/202
f 184/184/184 202/202/202 201/201/201
f 185/185/185 186/186/186 203/203/203
f 185/185/185 203/203/203 202/202/202
f 186/186/186 187/187/187 204/204/204
f 186/186/186 204/204/204 203/203/203
f 188/189/189 189/188/188 206/205/205
f 188/189/189 206/205/205 205/206/206
f 189/188/188 190/190/190 207/207/207
f 189/188/188 207/207/207 206/205/205
f 190/190/190 191/191/191 208/208/208
f 190/190/190 208/208/208 207/207/207
f 191/191/191 192/192/192 209/209/209
f 191/191/191 209/209/209 208/208/208
f 192/192/192 193/193/193 210/210/210
f 192/192/192 210/210/210 209/209/209
f 193/193/193 194/194/194 211/211/211
f 193/193/193 211/211/211 210/210/210
f 194/194/194 195/195/195 212/212/212
f 194/194/194 212/212/212 211/211/211
f 195/195/195 196/196/196 213/213/213
f 195/195/195 213/213/213 212/212/212
f 196/196/196 197/197/197 214/214/214
f 196/196/196 214/214/214 213/213/213
f 197/197/197 198/198/198 215/215/215
f 197/197/197 215/215/215 214/214/214
f 198/198/198 199/199/199 216/216/216
f 198/198/198 216/216/216 215/215/215
f 199/199/199 200/200/200 217/217/217
f 199/199/199 217/217/217 216/216/216
f 200/200/200 201/201/201 218/218/218
f 200/200/200 218/218/218 217/217/217
f 201/201/201 202/202/202 219/219/219
f 201/201/201 219/219/219 218/218/218
f 202/202/202 203/203/203 220/220/220
f 202/202/202 220/220/220 219/219/219
f 203/203/203 204/204/204 221/221/221
f 203/203/203 221/221/221 220/220/220
f 205/206/206 206/205/205 223/222/222
f 205/206/206 223/222/222 222/223/223
f 206/205/205 207/207/207 224/224/224
f 206/205/205 224/224/224 223/222/222
f 207/207/207 208/208/208 225/225/225
f 207/207/207 225/225/225 224/224/224
f 208/208/208 209/209/209 226/226/226
f 208/208/208 226/226/226 225/225/225
f 209/209/209 210/210/210 227/227/227
f 209/209/209 227/227/227 226/226/226
f 210/210/210 211/211/211 228/228/228
f 210/210/210 228/228/228 227/227/227
f 211/211/211 212/212/212 229/229/229
f 211/211/211 229/229/229 228/228/228
f 212/212/212 213/213/213 230/230/230
f 212/212/212 230/230/230 229/229/229
f 213/213/213 214/214/214 231/231/231
f 213/213/213 231/231/231 230/230/230
f 214/214/214 215/215/215 232/232/232
f 214/214/214 232/232/232 231/231/231
f 215/215/215 216/216/216 233/233/233
f 215/215/215 233/233/233 232/232/232
f 216/216/216 217/217/217 234/234/234
f 216/216/216 234/234/234 233/233/233
f 217/217/217 218/218/218 235/235/235
f 217/217/217 235/235/235 234/234/234
f 218/218/218 219/219/219 236/236/236
f 218/218/218 236/236/236 235/235/235
f 219/219/219 220/220/220 237/237/237
f 219/219/219 237/237/237 236/236/236
f 220/220/220 221/221/221 238/238/238
f 220/220/220 238/238/238 237/237/237
f 222/223/223 223/222/222 240/239/239
f 222/223/223 240/239/239 239/240/240
f 223/222/222 224/224/224 241/241/241
f 223/222/222 241/241/241 240/239/239
f 224/224/224 225/225/225 242/242/242
f 224/224/224 242/242/242 241/241/241
f 225/225/225 226/226/226 243/243/243
f 225/225/225 243/243/243 242/242/242
f 226/226/226 227/227/227 244/244/244
f 226/226/226 244/244/244 243/243/243
f 227/227/227 228/228/228 245/245/245
f 227/227/227 245/245/245 244/244/244
f 228/228/228 229/229/229 246/246/246
f 228/228/228 246/246/246 245/245/245
f 229/229/229 230/230/230 247/247/247
f 229/229/229 247/247/247 246/246/246
f 230/230/230 231/231/231 248/248/248
f 230/230/230 248/248/248 247/247/247
f 231/231/231 232/232/232 249/249/249
f 231/231/231 249/249/249 248/248/248
f 232/232/232 233/233/233 250/250/250
f 232/232/232 250/250/250 249/249/249
f 233/233/233 234/234/234 251/251/251
f 233/233/233 251/251/251 250/250/250
f 234/234/234 235/235/235 252/252/252
f 234/234/234 252/252/252 251/251/251
f 235/235/235 236/236/236 253/253/253
f 235/235/235 253/253/253 252/252/252
f 236/236/236 237/237/237 254/254/254
f 236/236/236 254/254/254 253/253/253
f 237/237/237 238/238/238 255/255/255
f 237/237/237 255/255/255 254/254/254
f 239/240/240 240/239/239 257/256/256
f 239/240/240 257/256/256 256/257/257
f 240/239/239 241/241/241 258/258/258
f 240/239/239 258/258/258 257/256/256
f 241/241/241 242/242/242 259/259/259
f 241/241/241 259/259/259 258/258/258
f 242/242/242 243/243/243 260/260/260
f 242/242/242 260/260/260 259/259/259
f 243/243/243 244/244/244 261/261/261
f 243/243/243 261/261/261 260/260/260
f 244/244/244 245/245/245 262/262/262
f 244/244/244 262/262/262 261/261/261
f 245/245/245 246/246/246 263/263/263
f 245/245/245 263/263/263 262/262/262
f 246/246/246 247/247/247 264/264/264
f 246/246/246 264/264/264 263/263/263
f 247/247/247 248/248/248 265/265/265
f 247/247/247 265/265/265 264/264/264
f 248/248/248 249/249/249 266/266/266
f 248/248/248 266/266/266 265/265/265
f 249/249/249 250/250/250 267/267/267
f 249/249/249 267/267/267 266/266/266
f 250/250/250 251/251/251 268/268/268
f 250/250/250 268/268/268 267/267/267
f 251/251/251 252/252/252 269/269/269
f 251/251/251 269/269/269 268/268/268
f 252/252/252 253/253/253 270/270/270
f 252/252/252 270/270/270 269/269/269
f 253/253/253 254/254/254 271/271/271
f 253/253/253 271/271/271 270/270/270
f 254/254/254 255/255/255 272/272/272
f 254/254/254 272/272/272 271/271/271
f 256/257/257 257/256/256 274/273/273
f 256/257/257 274/273/273 273/274/274
f 257/256/256 258/258/258 275/275/275
f 257/256/256 275/275/275 274/273/273
f 258/258/258 259/259/259 276/276/276
f 258/258/258 276/276/276 275/275/275
f 259/259/259 260/260/260 277/277/277
f 259/259/259 277/277/277 276/276/276
f 260/260/260 261/261/261 278/278/278
f 260/260/260 278/278/278 277/277/277
f 261/261/261 262/262/262 279/279/279
f 261/261/261 279/279/279 278/278/278
f 262/262/262 263/263/263 280/280/280
f 262/262/262 280/280/280 279/279/279
f 263/263/263 264/264/264 281/281/281
f 263/263/263 281/281/281 280/280/280
f 264/264/264 265/265/265 282/282/282
f 264/264/264 282/282/282 281/281/281
f 265/265/265 266/266/266 283/283/283
f 265/265/265 283/283/283 282/282/282
f 266/266/266 267/267/267 284/284/284
f 266/266/266 284/284/284 283/283/283
f 267/267/267 268/268/268 285/285/285
f 267/267/267 285/285/285 284/284/284
f 268/268/268 269/269/269 286/286/286
f 268/268/268 286/286/286 285/285/285
f 269/269/269 270/270/270 287/287/287
f 269/269/269 287/287/287 286/286/286
f 270/270/270 271/271/271 288/288/288
f 270/270/270 288/288/288 287/287/287
f 271/271/271 272/272/272 289/289/289
f 271/271/271 289/289/289 288/288/288
