mtllib terrain_mid_04_02.mtl
usemtl terrain_mid_04_02
# Blender 5.1.1
# www.blender.org
o terrain_mid_04_02
v -160.000000 -160.000000 -16.791307
v -140.000000 -160.000000 -19.901239
v -120.000000 -160.000000 -23.037441
v -100.000000 -160.000000 -25.938145
v -80.000000 -160.000000 -25.887112
v -60.000000 -160.000000 -21.628696
v -40.000000 -160.000000 -15.807197
v -20.000000 -160.000000 -12.416342
v 0.000000 -160.000000 -11.504416
v 20.000000 -160.000000 -12.284302
v 40.000000 -160.000000 -14.379782
v 60.000000 -160.000000 -17.985487
v 80.000000 -160.000000 -22.792799
v 100.000000 -160.000000 -28.026985
v 120.000000 -160.000000 -33.886528
v 140.000000 -160.000000 -39.969402
v 160.000000 -160.000000 -45.669487
v -160.000000 -140.000000 -16.526497
v -140.000000 -140.000000 -19.234186
v -120.000000 -140.000000 -21.585152
v -100.000000 -140.000000 -22.113939
v -80.000000 -140.000000 -19.931879
v -60.000000 -140.000000 -15.398533
v -40.000000 -140.000000 -10.788147
v -20.000000 -140.000000 -8.312942
v 0.000000 -140.000000 -7.537415
v 20.000000 -140.000000 -8.309422
v 40.000000 -140.000000 -10.576952
v 60.000000 -140.000000 -14.667419
v 80.000000 -140.000000 -20.114223
v 100.000000 -140.000000 -25.861227
v 120.000000 -140.000000 -32.232857
v 140.000000 -140.000000 -38.769260
v 160.000000 -140.000000 -44.725063
v -160.000000 -120.000000 -15.945693
v -140.000000 -120.000000 -18.140110
v -120.000000 -120.000000 -19.444527
v -100.000000 -120.000000 -17.766331
v -80.000000 -120.000000 -14.164578
v -60.000000 -120.000000 -9.942424
v -40.000000 -120.000000 -6.569553
v -20.000000 -120.000000 -4.633070
v 0.000000 -120.000000 -3.843364
v 20.000000 -120.000000 -4.561483
v 40.000000 -120.000000 -7.027297
v 60.000000 -120.000000 -11.501120
v 80.000000 -120.000000 -17.286282
v 100.000000 -120.000000 -23.496595
v 120.000000 -120.000000 -30.261658
v 140.000000 -120.000000 -37.106094
v 160.000000 -120.000000 -43.038528
v -160.000000 -100.000000 -15.103862
v -140.000000 -100.000000 -16.792610
v -120.000000 -100.000000 -16.328247
v -100.000000 -100.000000 -13.123583
v -80.000000 -100.000000 -9.066644
v -60.000000 -100.000000 -5.532234
v -40.000000 -100.000000 -2.807231
v -20.000000 -100.000000 -0.975817
v 0.000000 -100.000000 -0.132840
v 20.000000 -100.000000 -0.935412
v 40.000000 -100.000000 -3.706279
v 60.000000 -100.000000 -8.448202
v 80.000000 -100.000000 -14.407701
v 100.000000 -100.000000 -20.953037
v 120.000000 -100.000000 -28.091099
v 140.000000 -100.000000 -35.020100
v 160.000000 -100.000000 -40.810547
v -160.000000 -80.000000 -11.509020
v -140.000000 -80.000000 -13.453817
v -120.000000 -80.000000 -12.453234
v -100.000000 -80.000000 -8.823819
v -80.000000 -80.000000 -4.729458
v -60.000000 -80.000000 -1.320292
v -40.000000 -80.000000 1.285563
v -20.000000 -80.000000 3.046542
v 0.000000 -80.000000 3.753330
v 20.000000 -80.000000 2.342522
v 40.000000 -80.000000 -0.975640
v 60.000000 -80.000000 -6.010688
v 80.000000 -80.000000 -12.054214
v 100.000000 -80.000000 -18.818407
v 120.000000 -80.000000 -26.131945
v 140.000000 -80.000000 -32.650539
v 160.000000 -80.000000 -38.414776
v -160.000000 -60.000000 -6.340997
v -140.000000 -60.000000 -8.666335
v -120.000000 -60.000000 -8.035638
v -100.000000 -60.000000 -4.664782
v -80.000000 -60.000000 -0.674805
v -60.000000 -60.000000 2.787374
v -40.000000 -60.000000 5.459846
v -20.000000 -60.000000 7.088955
v 0.000000 -60.000000 7.460442
v 20.000000 -60.000000 5.430080
v 40.000000 -60.000000 1.501573
v 60.000000 -60.000000 -3.843988
v 80.000000 -60.000000 -9.961101
v 100.000000 -60.000000 -16.581028
v 120.000000 -60.000000 -23.495029
v 140.000000 -60.000000 -29.730307
v 160.000000 -60.000000 -35.999676
v -160.000000 -40.000000 -0.668430
v -140.000000 -40.000000 -2.983609
v -120.000000 -40.000000 -3.129442
v -100.000000 -40.000000 -0.385464
v -80.000000 -40.000000 3.357652
v -60.000000 -40.000000 6.818237
v -40.000000 -40.000000 9.526984
v -20.000000 -40.000000 10.924445
v 0.000000 -40.000000 10.679531
v 20.000000 -40.000000 8.140909
v 40.000000 -40.000000 3.861233
v 60.000000 -40.000000 -1.819757
v 80.000000 -40.000000 -7.990235
v 100.000000 -40.000000 -14.067980
v 120.000000 -40.000000 -20.226480
v 140.000000 -40.000000 -26.382120
v 160.000000 -40.000000 -33.518536
v -160.000000 -20.000000 5.349589
v -140.000000 -20.000000 3.053975
v -120.000000 -20.000000 2.228136
v -100.000000 -20.000000 4.331434
v -80.000000 -20.000000 7.553745
v -60.000000 -20.000000 10.547078
v -40.000000 -20.000000 12.869859
v -20.000000 -20.000000 13.816406
v 0.000000 -20.000000 13.206271
v 20.000000 -20.000000 10.472812
v 40.000000 -20.000000 6.153951
v 60.000000 -20.000000 0.658542
v 80.000000 -20.000000 -5.154575
v 100.000000 -20.000000 -11.109931
v 120.000000 -20.000000 -17.411987
v 140.000000 -20.000000 -24.140158
v 160.000000 -20.000000 -31.791355
v -160.000000 0.000000 11.397535
v -140.000000 0.000000 9.272468
v -120.000000 0.000000 7.789164
v -100.000000 0.000000 9.159356
v -80.000000 0.000000 11.581895
v -60.000000 0.000000 13.908020
v -40.000000 0.000000 15.500929
v -20.000000 0.000000 16.025364
v 0.000000 0.000000 15.246426
v 20.000000 0.000000 12.573425
v 40.000000 0.000000 8.456258
v 60.000000 0.000000 3.232564
v 80.000000 0.000000 -2.434076
v 100.000000 0.000000 -8.717611
v 120.000000 0.000000 -15.385173
v 140.000000 0.000000 -22.428522
v 160.000000 0.000000 -30.027452
v -160.000000 20.000000 16.953484
v -140.000000 20.000000 15.258138
v -120.000000 20.000000 13.374722
v -100.000000 20.000000 13.679429
v -80.000000 20.000000 15.235792
v -60.000000 20.000000 16.712606
v -40.000000 20.000000 17.536695
v -20.000000 20.000000 17.680956
v 0.000000 20.000000 16.887791
v 20.000000 20.000000 14.457126
v 40.000000 20.000000 10.609877
v 60.000000 20.000000 5.471191
v 80.000000 20.000000 -0.516222
v 100.000000 20.000000 -7.332188
v 120.000000 20.000000 -14.307211
v 140.000000 20.000000 -21.088745
v 160.000000 20.000000 -28.114285
v -160.000000 40.000000 22.243645
v -140.000000 40.000000 20.708197
v -120.000000 40.000000 18.624573
v -100.000000 40.000000 18.167547
v -80.000000 40.000000 18.916042
v -60.000000 40.000000 19.571472
v -40.000000 40.000000 19.609653
v -20.000000 40.000000 19.051893
v 0.000000 40.000000 17.886522
v 20.000000 40.000000 15.267714
v 40.000000 40.000000 11.275933
v 60.000000 40.000000 5.796543
v 80.000000 40.000000 -0.709202
v 100.000000 40.000000 -7.513028
v 120.000000 40.000000 -13.696825
v 140.000000 40.000000 -19.780769
v 160.000000 40.000000 -25.978611
v -160.000000 60.000000 27.023790
v -140.000000 60.000000 25.468832
v -120.000000 60.000000 23.453932
v -100.000000 60.000000 22.638102
v -80.000000 60.000000 22.631788
v -60.000000 60.000000 22.590887
v -40.000000 60.000000 21.855673
v -20.000000 60.000000 20.374960
v 0.000000 60.000000 18.406460
v 20.000000 60.000000 15.329494
v 40.000000 60.000000 10.906257
v 60.000000 60.000000 4.754801
v 80.000000 60.000000 -2.268792
v 100.000000 60.000000 -8.815586
v 120.000000 60.000000 -14.356120
v 140.000000 60.000000 -19.476711
v 160.000000 60.000000 -24.560127
v -160.000000 80.000000 30.492254
v -140.000000 80.000000 29.434408
v -120.000000 80.000000 27.784647
v -100.000000 80.000000 26.858852
v -80.000000 80.000000 26.390923
v -60.000000 80.000000 25.624098
v -40.000000 80.000000 24.177586
v -20.000000 80.000000 21.776665
v 0.000000 80.000000 18.818548
v 20.000000 80.000000 14.862617
v 40.000000 80.000000 9.802835
v 60.000000 80.000000 3.111938
v 80.000000 80.000000 -4.372871
v 100.000000 80.000000 -10.822876
v 120.000000 80.000000 -16.269409
v 140.000000 80.000000 -20.729567
v 160.000000 80.000000 -23.634102
v -160.000000 100.000000 33.191257
v -140.000000 100.000000 32.621765
v -120.000000 100.000000 31.577637
v -100.000000 100.000000 30.724501
v -80.000000 100.000000 29.817844
v -60.000000 100.000000 28.350653
v -40.000000 100.000000 26.293144
v -20.000000 100.000000 22.772833
v 0.000000 100.000000 18.731146
v 20.000000 100.000000 14.093675
v 40.000000 100.000000 8.573683
v 60.000000 100.000000 1.884962
v 80.000000 100.000000 -5.016846
v 100.000000 100.000000 -11.056173
v 120.000000 100.000000 -16.469788
v 140.000000 100.000000 -20.526070
v 160.000000 100.000000 -21.791071
v -160.000000 120.000000 35.416286
v -140.000000 120.000000 35.220425
v -120.000000 120.000000 34.769634
v -100.000000 120.000000 33.862251
v -80.000000 120.000000 32.482250
v -60.000000 120.000000 30.469299
v -40.000000 120.000000 27.878227
v -20.000000 120.000000 23.739223
v 0.000000 120.000000 18.978048
v 20.000000 120.000000 13.816982
v 40.000000 120.000000 8.028503
v 60.000000 120.000000 1.645250
v 80.000000 120.000000 -4.525513
v 100.000000 120.000000 -10.381450
v 120.000000 120.000000 -15.987583
v 140.000000 120.000000 -19.523743
v 160.000000 120.000000 -19.272007
v -160.000000 140.000000 37.650967
v -140.000000 140.000000 37.333782
v -120.000000 140.000000 36.740669
v -100.000000 140.000000 35.603924
v -80.000000 140.000000 33.816730
v -60.000000 140.000000 31.439642
v -40.000000 140.000000 28.794521
v -20.000000 140.000000 24.903252
v 0.000000 140.000000 20.453382
v 20.000000 140.000000 15.111525
v 40.000000 140.000000 9.041829
v 60.000000 140.000000 2.591132
v 80.000000 140.000000 -3.688660
v 100.000000 140.000000 -9.999356
v 120.000000 140.000000 -15.934428
v 140.000000 140.000000 -18.453823
v 160.000000 140.000000 -16.427423
v -160.000000 160.000000 39.421616
v -140.000000 160.000000 38.754341
v -120.000000 160.000000 37.892803
v -100.000000 160.000000 36.619518
v -80.000000 160.000000 34.860424
v -60.000000 160.000000 32.760571
v -40.000000 160.000000 30.369032
v -20.000000 160.000000 26.870714
v 0.000000 160.000000 22.578125
v 20.000000 160.000000 16.753241
v 40.000000 160.000000 9.927667
v 60.000000 160.000000 2.989000
v 80.000000 160.000000 -3.710490
v 100.000000 160.000000 -10.365811
v 120.000000 160.000000 -16.127699
v 140.000000 160.000000 -17.393785
v 160.000000 160.000000 -13.952874
vn 0.1641 0.0132 0.9864
vn 0.1543 -0.0117 0.9880
vn 0.1253 -0.0437 0.9912
vn 0.1498 -0.0209 0.9885
vn 0.1489 -0.0650 0.9867
vn 0.0715 -0.0892 0.9934
vn 0.0701 -0.1655 0.9837
vn -0.0404 -0.2000 0.9790
vn -0.1033 -0.2646 0.9588
vn -0.1590 -0.2776 0.9474
vn -0.2332 -0.2986 0.9254
vn -0.2143 -0.2739 0.9376
vn -0.2157 -0.2767 0.9365
vn -0.1701 -0.2217 0.9602
vn -0.1037 -0.2449 0.9640
vn -0.0795 -0.1904 0.9785
vn -0.0032 -0.2283 0.9736
vn -0.0001 -0.1881 0.9821
vn 0.0700 -0.2189 0.9732
vn 0.0744 -0.1890 0.9791
vn 0.1381 -0.2042 0.9691
vn 0.1545 -0.1785 0.9717
vn 0.2028 -0.1721 0.9640
vn 0.2290 -0.1558 0.9609
vn 0.2413 -0.1346 0.9611
vn 0.2671 -0.1314 0.9547
vn 0.2657 -0.1071 0.9581
vn 0.2882 -0.1079 0.9515
vn 0.2853 -0.0762 0.9554
vn 0.3059 -0.0860 0.9482
vn 0.2823 -0.0443 0.9583
vn 0.2974 -0.0682 0.9523
vn 0.2591 -0.0121 0.9658
vn 0.2501 -0.0636 0.9661
vn 0.0870 -0.0607 0.9944
vn 0.1320 -0.0352 0.9906
vn -0.0093 -0.1303 0.9914
vn -0.1277 -0.2175 0.9677
vn -0.1854 -0.2576 0.9483
vn -0.1813 -0.2355 0.9548
vn -0.1291 -0.1940 0.9725
vn -0.0669 -0.1800 0.9814
vn -0.0017 -0.1820 0.9833
vn 0.0781 -0.1807 0.9804
vn 0.1685 -0.1669 0.9715
vn 0.2456 -0.1489 0.9578
vn 0.2846 -0.1354 0.9490
vn 0.3064 -0.1160 0.9448
vn 0.3206 -0.0976 0.9422
vn 0.3031 -0.0889 0.9488
vn 0.2377 -0.0946 0.9667
vn 0.0302 -0.1160 0.9928
vn 0.1111 -0.1096 0.9878
vn -0.0900 -0.1715 0.9811
vn -0.1744 -0.2149 0.9609
vn -0.1817 -0.2257 0.9571
vn -0.1512 -0.2083 0.9663
vn -0.1111 -0.1915 0.9752
vn -0.0653 -0.1880 0.9800
vn -0.0010 -0.1866 0.9824
vn 0.0877 -0.1694 0.9816
vn 0.1825 -0.1471 0.9721
vn 0.2561 -0.1315 0.9577
vn 0.2961 -0.1239 0.9471
vn 0.3216 -0.1101 0.9404
vn 0.3302 -0.0969 0.9389
vn 0.3012 -0.1056 0.9477
vn 0.2298 -0.1118 0.9668
vn 0.0231 -0.1990 0.9797
vn 0.1119 -0.2127 0.9707
vn -0.1126 -0.2017 0.9730
vn -0.1856 -0.2033 0.9614
vn -0.1806 -0.2020 0.9626
vn -0.1457 -0.2015 0.9686
vn -0.1062 -0.2012 0.9738
vn -0.0604 -0.1973 0.9785
vn 0.0173 -0.1865 0.9823
vn 0.1158 -0.1561 0.9809
vn 0.2028 -0.1264 0.9710
vn 0.2653 -0.1103 0.9578
vn 0.3032 -0.1053 0.9471
vn 0.3302 -0.1026 0.9383
vn 0.3249 -0.1080 0.9396
vn 0.2913 -0.1254 0.9484
vn 0.2333 -0.1161 0.9654
vn 0.0410 -0.2530 0.9666
vn 0.1181 -0.2597 0.9584
vn -0.0970 -0.2259 0.9693
vn -0.1773 -0.2032 0.9630
vn -0.1797 -0.1950 0.9642
vn -0.1485 -0.1971 0.9691
vn -0.1047 -0.2007 0.9740
vn -0.0490 -0.1930 0.9800
vn 0.0409 -0.1704 0.9845
vn 0.1458 -0.1420 0.9791
vn 0.2243 -0.1170 0.9675
vn 0.2740 -0.1003 0.9565
vn 0.3020 -0.0963 0.9484
vn 0.3185 -0.1118 0.9413
vn 0.3093 -0.1389 0.9408
vn 0.2951 -0.1479 0.9439
vn 0.2514 -0.1176 0.9607
vn 0.0590 -0.2807 0.9580
vn 0.1124 -0.2787 0.9538
vn -0.0628 -0.2481 0.9667
vn -0.1563 -0.2168 0.9636
vn -0.1737 -0.1984 0.9646
vn -0.1497 -0.1883 0.9706
vn -0.1004 -0.1813 0.9783
vn -0.0283 -0.1657 0.9858
vn 0.0687 -0.1419 0.9875
vn 0.1667 -0.1234 0.9783
vn 0.2401 -0.1122 0.9642
vn 0.2824 -0.1073 0.9533
vn 0.2909 -0.1141 0.9499
vn 0.2901 -0.1297 0.9482
vn 0.2912 -0.1438 0.9458
vn 0.3126 -0.1314 0.9407
vn 0.2802 -0.1004 0.9547
vn 0.0744 -0.2921 0.9535
vn 0.1006 -0.2873 0.9525
vn -0.0306 -0.2630 0.9643
vn -0.1284 -0.2302 0.9646
vn -0.1504 -0.1991 0.9684
vn -0.1297 -0.1730 0.9763
vn -0.0805 -0.1472 0.9858
vn -0.0084 -0.1265 0.9919
vn 0.0828 -0.1130 0.9901
vn 0.1726 -0.1085 0.9790
vn 0.2368 -0.1109 0.9652
vn 0.2703 -0.1204 0.9552
vn 0.2798 -0.1321 0.9509
vn 0.2906 -0.1269 0.9484
vn 0.3077 -0.1143 0.9446
vn 0.3368 -0.0926 0.9370
vn 0.2925 -0.0831 0.9526
vn 0.0860 -0.2908 0.9529
vn 0.0828 -0.2777 0.9571
vn 0.0027 -0.2684 0.9633
vn -0.0918 -0.2265 0.9697
vn -0.1158 -0.1873 0.9754
vn -0.0963 -0.1516 0.9837
vn -0.0525 -0.1158 0.9919
vn 0.0064 -0.0961 0.9953
vn 0.0856 -0.0913 0.9921
vn 0.1665 -0.0978 0.9812
vn 0.2261 -0.1078 0.9681
vn 0.2609 -0.1153 0.9584
vn 0.2845 -0.1104 0.9523
vn 0.3066 -0.0896 0.9476
vn 0.3234 -0.0732 0.9434
vn 0.3429 -0.0715 0.9367
vn 0.2848 -0.0878 0.9546
vn 0.0857 -0.2739 0.9579
vn 0.0569 -0.2613 0.9636
vn 0.0381 -0.2612 0.9645
vn -0.0453 -0.2195 0.9746
vn -0.0744 -0.1798 0.9809
vn -0.0571 -0.1403 0.9885
vn -0.0241 -0.1022 0.9945
vn 0.0161 -0.0755 0.9970
vn 0.0802 -0.0656 0.9946
vn 0.1547 -0.0664 0.9857
vn 0.2187 -0.0686 0.9734
vn 0.2675 -0.0616 0.9616
vn 0.3046 -0.0410 0.9516
vn 0.3258 -0.0285 0.9450
vn 0.3250 -0.0399 0.9449
vn 0.3256 -0.0625 0.9434
vn 0.2559 -0.0973 0.9618
vn 0.0874 -0.2463 0.9652
vn 0.0450 -0.2439 0.9688
vn 0.0615 -0.2439 0.9679
vn -0.0072 -0.2186 0.9758
vn -0.0345 -0.1817 0.9827
vn -0.0174 -0.1456 0.9892
vn 0.0129 -0.1074 0.9941
vn 0.0430 -0.0671 0.9968
vn 0.0941 -0.0378 0.9948
vn 0.1630 -0.0215 0.9864
vn 0.2304 -0.0072 0.9731
vn 0.2870 0.0172 0.9578
vn 0.3154 0.0415 0.9480
vn 0.3086 0.0352 0.9505
vn 0.2932 0.0012 0.9561
vn 0.2933 -0.0385 0.9553
vn 0.2195 -0.0863 0.9718
vn 0.0869 -0.2123 0.9733
vn 0.0437 -0.2018 0.9785
vn 0.0688 -0.2227 0.9725
vn 0.0201 -0.2123 0.9770
vn 0.0010 -0.1838 0.9830
vn 0.0191 -0.1497 0.9886
vn 0.0550 -0.1133 0.9920
vn 0.0858 -0.0677 0.9940
vn 0.1254 -0.0227 0.9918
vn 0.1843 0.0100 0.9828
vn 0.2554 0.0360 0.9662
vn 0.3123 0.0637 0.9479
vn 0.3200 0.0864 0.9435
vn 0.2884 0.0789 0.9543
vn 0.2570 0.0619 0.9644
vn 0.2471 0.0230 0.9687
vn 0.1541 -0.0578 0.9864
vn 0.0665 -0.1757 0.9822
vn 0.0313 -0.1523 0.9878
vn 0.0630 -0.1986 0.9780
vn 0.0342 -0.1980 0.9796
vn 0.0305 -0.1767 0.9838
vn 0.0546 -0.1424 0.9883
vn 0.0952 -0.1098 0.9894
vn 0.1326 -0.0593 0.9894
vn 0.1703 -0.0080 0.9854
vn 0.2198 0.0301 0.9751
vn 0.2814 0.0558 0.9580
vn 0.3333 0.0675 0.9404
vn 0.3283 0.0647 0.9424
vn 0.2847 0.0538 0.9571
vn 0.2401 0.0512 0.9694
vn 0.1810 0.0258 0.9831
vn 0.0511 -0.0690 0.9963
vn 0.0399 -0.1430 0.9889
vn 0.0203 -0.1222 0.9923
vn 0.0467 -0.1718 0.9840
vn 0.0433 -0.1723 0.9841
vn 0.0586 -0.1503 0.9869
vn 0.0871 -0.1199 0.9890
vn 0.1374 -0.0912 0.9863
vn 0.1855 -0.0482 0.9815
vn 0.2120 -0.0039 0.9773
vn 0.2460 0.0253 0.9689
vn 0.2917 0.0424 0.9556
vn 0.3215 0.0347 0.9463
vn 0.3078 0.0036 0.9514
vn 0.2753 -0.0106 0.9613
vn 0.2303 -0.0069 0.9731
vn 0.1318 -0.0299 0.9908
vn -0.0423 -0.1083 0.9932
vn 0.0161 -0.1170 0.9930
vn 0.0127 -0.1108 0.9938
vn 0.0336 -0.1279 0.9912
vn 0.0567 -0.1209 0.9910
vn 0.0841 -0.0992 0.9915
vn 0.1140 -0.0765 0.9905
vn 0.1656 -0.0616 0.9843
vn 0.2169 -0.0519 0.9748
vn 0.2405 -0.0418 0.9697
vn 0.2640 -0.0245 0.9642
vn 0.2911 -0.0112 0.9566
vn 0.2994 -0.0169 0.9540
vn 0.2878 -0.0318 0.9572
vn 0.2754 -0.0254 0.9610
vn 0.2228 -0.0130 0.9748
vn 0.0817 -0.0516 0.9953
vn -0.1266 -0.1318 0.9832
vn 0.0227 -0.0879 0.9959
vn 0.0198 -0.0996 0.9948
vn 0.0430 -0.0778 0.9960
vn 0.0727 -0.0686 0.9950
vn 0.1034 -0.0590 0.9929
vn 0.1244 -0.0568 0.9906
vn 0.1609 -0.0614 0.9851
vn 0.2036 -0.0763 0.9761
vn 0.2369 -0.0871 0.9676
vn 0.2737 -0.0704 0.9592
vn 0.2984 -0.0453 0.9534
vn 0.3031 -0.0320 0.9524
vn 0.3002 -0.0194 0.9537
vn 0.2927 -0.0004 0.9562
vn 0.2068 0.0034 0.9784
vn 0.0123 -0.0532 0.9985
vn -0.1989 -0.1292 0.9715
vn 0.0381 -0.0493 0.9981
vn 0.0314 -0.0663 0.9973
vn 0.0533 -0.0394 0.9978
vn 0.0755 -0.0408 0.9963
vn 0.0959 -0.0577 0.9937
vn 0.1112 -0.0831 0.9903
vn 0.1449 -0.0999 0.9844
vn 0.1900 -0.1106 0.9755
vn 0.2438 -0.1073 0.9639
vn 0.3007 -0.0760 0.9507
vn 0.3252 -0.0361 0.9450
vn 0.3227 -0.0086 0.9465
vn 0.3167 0.0111 0.9485
vn 0.2964 0.0151 0.9549
vn 0.1730 -0.0061 0.9849
vn -0.0542 -0.0588 0.9968
vn -0.2475 -0.1068 0.9630
vt 0.015625 0.015625
vt 0.076172 0.015625
vt 0.076172 0.076172
vt 0.015625 0.076172
vt 0.136719 0.015625
vt 0.136719 0.076172
vt 0.197266 0.015625
vt 0.197266 0.076172
vt 0.257812 0.015625
vt 0.257812 0.076172
vt 0.318359 0.015625
vt 0.318359 0.076172
vt 0.378906 0.015625
vt 0.378906 0.076172
vt 0.439453 0.015625
vt 0.439453 0.076172
vt 0.500000 0.015625
vt 0.500000 0.076172
vt 0.560547 0.015625
vt 0.560547 0.076172
vt 0.621094 0.015625
vt 0.621094 0.076172
vt 0.681641 0.015625
vt 0.681641 0.076172
vt 0.742188 0.015625
vt 0.742188 0.076172
vt 0.802734 0.015625
vt 0.802734 0.076172
vt 0.863281 0.015625
vt 0.863281 0.076172
vt 0.923828 0.015625
vt 0.923828 0.076172
vt 0.984375 0.015625
vt 0.984375 0.076172
vt 0.076172 0.136719
vt 0.015625 0.136719
vt 0.136719 0.136719
vt 0.197266 0.136719
vt 0.257812 0.136719
vt 0.318359 0.136719
vt 0.378906 0.136719
vt 0.439453 0.136719
vt 0.500000 0.136719
vt 0.560547 0.136719
vt 0.621094 0.136719
vt 0.681641 0.136719
vt 0.742188 0.136719
vt 0.802734 0.136719
vt 0.863281 0.136719
vt 0.923828 0.136719
vt 0.984375 0.136719
vt 0.076172 0.197266
vt 0.015625 0.197266
vt 0.136719 0.197266
vt 0.197266 0.197266
vt 0.257812 0.197266
vt 0.318359 0.197266
vt 0.378906 0.197266
vt 0.439453 0.197266
vt 0.500000 0.197266
vt 0.560547 0.197266
vt 0.621094 0.197266
vt 0.681641 0.197266
vt 0.742188 0.197266
vt 0.802734 0.197266
vt 0.863281 0.197266
vt 0.923828 0.197266
vt 0.984375 0.197266
vt 0.076172 0.257812
vt 0.015625 0.257812
vt 0.136719 0.257812
vt 0.197266 0.257812
vt 0.257812 0.257812
vt 0.318359 0.257812
vt 0.378906 0.257812
vt 0.439453 0.257812
vt 0.500000 0.257812
vt 0.560547 0.257812
vt 0.621094 0.257812
vt 0.681641 0.257812
vt 0.742188 0.257812
vt 0.802734 0.257812
vt 0.863281 0.257812
vt 0.923828 0.257812
vt 0.984375 0.257812
vt 0.076172 0.318359
vt 0.015625 0.318359
vt 0.136719 0.318359
vt 0.197266 0.318359
vt 0.257812 0.318359
vt 0.318359 0.318359
vt 0.378906 0.318359
vt 0.439453 0.318359
vt 0.500000 0.318359
vt 0.560547 0.318359
vt 0.621094 0.318359
vt 0.681641 0.318359
vt 0.742188 0.318359
vt 0.802734 0.318359
vt 0.863281 0.318359
vt 0.923828 0.318359
vt 0.984375 0.318359
vt 0.076172 0.378906
vt 0.015625 0.378906
vt 0.136719 0.378906
vt 0.197266 0.378906
vt 0.257812 0.378906
vt 0.318359 0.378906
vt 0.378906 0.378906
vt 0.439453 0.378906
vt 0.500000 0.378906
vt 0.560547 0.378906
vt 0.621094 0.378906
vt 0.681641 0.378906
vt 0.742188 0.378906
vt 0.802734 0.378906
vt 0.863281 0.378906
vt 0.923828 0.378906
vt 0.984375 0.378906
vt 0.076172 0.439453
vt 0.015625 0.439453
vt 0.136719 0.439453
vt 0.197266 0.439453
vt 0.257812 0.439453
vt 0.318359 0.439453
vt 0.378906 0.439453
vt 0.439453 0.439453
vt 0.500000 0.439453
vt 0.560547 0.439453
vt 0.621094 0.439453
vt 0.681641 0.439453
vt 0.742188 0.439453
vt 0.802734 0.439453
vt 0.863281 0.439453
vt 0.923828 0.439453
vt 0.984375 0.439453
vt 0.076172 0.500000
vt 0.015625 0.500000
vt 0.136719 0.500000
vt 0.197266 0.500000
vt 0.257812 0.500000
vt 0.318359 0.500000
vt 0.378906 0.500000
vt 0.439453 0.500000
vt 0.500000 0.500000
vt 0.560547 0.500000
vt 0.621094 0.500000
vt 0.681641 0.500000
vt 0.742188 0.500000
vt 0.802734 0.500000
vt 0.863281 0.500000
vt 0.923828 0.500000
vt 0.984375 0.500000
vt 0.076172 0.560547
vt 0.015625 0.560547
vt 0.136719 0.560547
vt 0.197266 0.560547
vt 0.257812 0.560547
vt 0.318359 0.560547
vt 0.378906 0.560547
vt 0.439453 0.560547
vt 0.500000 0.560547
vt 0.560547 0.560547
vt 0.621094 0.560547
vt 0.681641 0.560547
vt 0.742188 0.560547
vt 0.802734 0.560547
vt 0.863281 0.560547
vt 0.923828 0.560547
vt 0.984375 0.560547
vt 0.076172 0.621094
vt 0.015625 0.621094
vt 0.136719 0.621094
vt 0.197266 0.621094
vt 0.257812 0.621094
vt 0.318359 0.621094
vt 0.378906 0.621094
vt 0.439453 0.621094
vt 0.500000 0.621094
vt 0.560547 0.621094
vt 0.621094 0.621094
vt 0.681641 0.621094
vt 0.742188 0.621094
vt 0.802734 0.621094
vt 0.863281 0.621094
vt 0.923828 0.621094
vt 0.984375 0.621094
vt 0.076172 0.681641
vt 0.015625 0.681641
vt 0.136719 0.681641
vt 0.197266 0.681641
vt 0.257812 0.681641
vt 0.318359 0.681641
vt 0.378906 0.681641
vt 0.439453 0.681641
vt 0.500000 0.681641
vt 0.560547 0.681641
vt 0.621094 0.681641
vt 0.681641 0.681641
vt 0.742188 0.681641
vt 0.802734 0.681641
vt 0.863281 0.681641
vt 0.923828 0.681641
vt 0.984375 0.681641
vt 0.076172 0.742188
vt 0.015625 0.742188
vt 0.136719 0.742188
vt 0.197266 0.742188
vt 0.257812 0.742188
vt 0.318359 0.742188
vt 0.378906 0.742188
vt 0.439453 0.742188
vt 0.500000 0.742188
vt 0.560547 0.742188
vt 0.621094 0.742188
vt 0.681641 0.742188
vt 0.742188 0.742188
vt 0.802734 0.742188
vt 0.863281 0.742188
vt 0.923828 0.742188
vt 0.984375 0.742188
vt 0.076172 0.802734
vt 0.015625 0.802734
vt 0.136719 0.802734
vt 0.197266 0.802734
vt 0.257812 0.802734
vt 0.318359 0.802734
vt 0.378906 0.802734
vt 0.439453 0.802734
vt 0.500000 0.802734
vt 0.560547 0.802734
vt 0.621094 0.802734
vt 0.681641 0.802734
vt 0.742188 0.802734
vt 0.802734 0.802734
vt 0.863281 0.802734
vt 0.923828 0.802734
vt 0.984375 0.802734
vt 0.076172 0.863281
vt 0.015625 0.863281
vt 0.136719 0.863281
vt 0.197266 0.863281
vt 0.257812 0.863281
vt 0.318359 0.863281
vt 0.378906 0.863281
vt 0.439453 0.863281
vt 0.500000 0.863281
vt 0.560547 0.863281
vt 0.621094 0.863281
vt 0.681641 0.863281
vt 0.742188 0.863281
vt 0.802734 0.863281
vt 0.863281 0.863281
vt 0.923828 0.863281
vt 0.984375 0.863281
vt 0.076172 0.923828
vt 0.015625 0.923828
vt 0.136719 0.923828
vt 0.197266 0.923828
vt 0.257812 0.923828
vt 0.318359 0.923828
vt 0.378906 0.923828
vt 0.439453 0.923828
vt 0.500000 0.923828
vt 0.560547 0.923828
vt 0.621094 0.923828
vt 0.681641 0.923828
vt 0.742188 0.923828
vt 0.802734 0.923828
vt 0.863281 0.923828
vt 0.923828 0.923828
vt 0.984375 0.923828
vt 0.076172 0.984375
vt 0.015625 0.984375
vt 0.136719 0.984375
vt 0.197266 0.984375
vt 0.257812 0.984375
vt 0.318359 0.984375
vt 0.378906 0.984375
vt 0.439453 0.984375
vt 0.500000 0.984375
vt 0.560547 0.984375
vt 0.621094 0.984375
vt 0.681641 0.984375
vt 0.742188 0.984375
vt 0.802734 0.984375
vt 0.863281 0.984375
vt 0.923828 0.984375
vt 0.984375 0.984375
s 1
f 1/1/1 2/2/2 19/3/3
f 1/1/1 19/3/3 18/4/4
f 2/2/2 3/5/5 20/6/6
f 2/2/2 20/6/6 19/3/3
f 3/5/5 4/7/7 21/8/8
f 3/5/5 21/8/8 20/6/6
f 4/7/7 5/9/9 22/10/10
f 4/7/7 22/10/10 21/8/8
f 5/9/9 6/11/11 23/12/12
f 5/9/9 23/12/12 22/10/10
f 6/11/11 7/13/13 24/14/14
f 6/11/11 24/14/14 23/12/12
f 7/13/13 8/15/15 25/16/16
f 7/13/13 25/16/16 24/14/14
f 8/15/15 9/17/17 26/18/18
f 8/15/15 26/18/18 25/16/16
f 9/17/17 10/19/19 27/20/20
f 9/17/17 27/20/20 26/18/18
f 10/19/19 11/21/21 28/22/22
f 10/19/19 28/22/22 27/20/20
f 11/21/21 12/23/23 29/24/24
f 11/21/21 29/24/24 28/22/22
f 12/23/23 13/25/25 30/26/26
f 12/23/23 30/26/26 29/24/24
f 13/25/25 14/27/27 31/28/28
f 13/25/25 31/28/28 30/26/26
f 14/27/27 15/29/29 32/30/30
f 14/27/27 32/30/30 31/28/28
f 15/29/29 16/31/31 33/32/32
f 15/29/29 33/32/32 32/30/30
f 16/31/31 17/33/33 34/34/34
f 16/31/31 34/34/34 33/32/32
f 18/4/4 19/3/3 36/35/35
f 18/4/4 36/35/35 35/36/36
f 19/3/3 20/6/6 37/37/37
f 19/3/3 37/37/37 36/35/35
f 20/6/6 21/8/8 38/38/38
f 20/6/6 38/38/38 37/37/37
f 21/8/8 22/10/10 39/39/39
f 21/8/8 39/39/39 38/38/38
f 22/10/10 23/12/12 40/40/40
f 22/10/10 40/40/40 39/39/39
f 23/12/12 24/14/14 41/41/41
f 23/12/12 41/41/41 40/40/40
f 24/14/14 25/16/16 42/42/42
f 24/14/14 42/42/42 41/41/41
f 25/16/16 26/18/18 43/43/43
f 25/16/16 43/43/43 42/42/42
f 26/18/18 27/20/20 44/44/44
f 26/18/18 44/44/44 43/43/43
f 27/20/20 28/22/22 45/45/45
f 27/20/20 45/45/45 44/44/44
f 28/22/22 29/24/24 46/46/46
f 28/22/22 46/46/46 45/45/45
f 29/24/24 30/26/26 47/47/47
f 29/24/24 47/47/47 46/46/46
f 30/26/26 31/28/28 48/48/48
f 30/26/26 48/48/48 47/47/47
f 31/28/28 32/30/30 49/49/49
f 31/28/28 49/49/49 48/48/48
f 32/30/30 33/32/32 50/50/50
f 32/30/30 50/50/50 49/49/49
f 33/32/32 34/34/34 51/51/51
f 33/32/32 51/51/51 50/50/50
f 35/36/36 36/35/35 53/52/52
f 35/36/36 53/52/52 52/53/53
f 36/35/35 37/37/37 54/54/54
f 36/35/35 54/54/54 53/52/52
f 37/37/37 38/38/38 55/55/55
f 37/37/37 55/55/55 54/54/54
f 38/38/38 39/39/39 56/56/56
f 38/38/38 56/56/56 55/55/55
f 39/39/39 40/40/40 57/57/57
f 39/39/39 57/57/57 56/56/56
f 40/40/40 41/41/41 58/58/58
f 40/40/40 58/58/58 57/57/57
f 41/41/41 42/42/42 59/59/59
f 41/41/41 59/59/59 58/58/58
f 42/42/42 43/43/43 60/60/60
f 42/42/42 60/60/60 59/59/59
f 43/43/43 44/44/44 61/61/61
f 43/43/43 61/61/61 60/60/60
f 44/44/44 45/45/45 62/62/62
f 44/44/44 62/62/62 61/61/61
f 45/45/45 46/46/46 63/63/63
f 45/45/45 63/63/63 62/62/62
f 46/46/46 47/47/47 64/64/64
f 46/46/46 64/64/64 63/63/63
f 47/47/47 48/48/48 65/65/65
f 47/47/47 65/65/65 64/64/64
f 48/48/48 49/49/49 66/66/66
f 48/48/48 66/66/66 65/65/65
f 49/49/49 50/50/50 67/67/67
f 49/49/49 67/67/67 66/66/66
f 50/50/50 51/51/51 68/68/68
f 50/50/50 68/68/68 67/67/67
f 52/53/53 53/52/52 70/69/69
f 52/53/53 70/69/69 69/70/70
f 53/52/52 54/54/54 71/71/71
f 53/52/52 71/71/71 70/69/69
f 54/54/54 55/55/55 72/72/72
f 54/54/54 72/72/72 71/71/71
f 55/55/55 56/56/56 73/73/73
f 55/55/55 73/73/73 72/72/72
f 56/56/56 57/57/57 74/74/74
f 56/56/56 74/74/74 73/73/73
f 57/57/57 58/58/58 75/75/75
f 57/57/57 75/75/75 74/74/74
f 58/58/58 59/59/59 76/76/76
f 58/58/58 76/76/76 75/75/75
f 59/59/59 60/60/60 77/77/77
f 59/59/59 77/77/77 76/76/76
f 60/60/60 61/61/61 78/78/78
f 60/60/60 78/78/78 77/77/77
f 61/61/61 62/62/62 79/79/79
f 61/61/61 79/79/79 78/78/78
f 62/62/62 63/63/63 80/80/80
f 62/62/62 80/80/80 79/79/79
f 63/63/63 64/64/64 81/81/81
f 63/63/63 81/81/81 80/80/80
f 64/64/64 65/65/65 82/82/82
f 64/64/64 82/82/82 81/81/81
f 65/65/65 66/66/66 83/83/83
f 65/65/65 83/83/83 82/82/82
f 66/66/66 67/67/67 84/84/84
f 66/66/66 84/84/84 83/83/83
f 67/67/67 68/68/68 85/85/85
f 67/67/67 85/85/85 84/84/84
f 69/70/70 70/69/69 87/86/86
f 69/70/70 87/86/86 86/87/87
f 70/69/69 71/71/71 88/88/88
f 70/69/69 88/88/88 87/86/86
f 71/71/71 72/72/72 89/89/89
f 71/71/71 89/89/89 88/88/88
f 72/72/72 73/73/73 90/90/90
f 72/72/72 90/90/90 89/89/89
f 73/73/73 74/74/74 91/91/91
f 73/73/73 91/91/91 90/90/90
f 74/74/74 75/75/75 92/92/92
f 74/74/74 92/92/92 91/91/91
f 75/75/75 76/76/76 93/93/93
f 75/75/75 93/93/93 92/92/92
f 76/76/76 77/77/77 94/94/94
f 76/76/76 94/94/94 93/93/93
f 77/77/77 78/78/78 95/95/95
f 77/77/77 95/95/95 94/94/94
f 78/78/78 79/79/79 96/96/96
f 78/78/78 96/96/96 95/95/95
f 79/79/79 80/80/80 97/97/97
f 79/79/79 97/97/97 96/96/96
f 80/80/80 81/81/81 98/98/98
f 80/80/80 98/98/98 97/97/97
f 81/81/81 82/82/82 99/99/99
f 81/81/81 99/99/99 98/98/98
f 82/82/82 83/83/83 100/100/100
f 82/82/82 100/100/100 99/99/99
f 83/83/83 84/84/84 101/101/101
f 83/83/83 101/101/101 100/100/100
f 84/84/84 85/85/85 102/102/102
f 84/84/84 102/102/102 101/101/101
f 86/87/87 87/86/86 104/103/103
f 86/87/87 104/103/103 103/104/104
f 87/86/86 88/88/88 105/105/105
f 87/86/86 105/105/105 104/103/103
f 88/88/88 89/89/89 106/106/106
f 88/88/88 106/106/106 105/105/105
f 89/89/89 90/90/90 107/107/107
f 89/89/89 107/107/107 106/106/106
f 90/90/90 91/91/91 108/108/108
f 90/90/90 108/108/108 107/107/107
f 91/91/91 92/92/92 109/109/109
f 91/91/91 109/109/109 108/108/108
f 92/92/92 93/93/93 110/110/110
f 92/92/92 110/110/110 109/109/109
f 93/93/93 94/94/94 111/111/111
f 93/93/93 111/111/111 110/110/110
f 94/94/94 95/95/95 112/112/112
f 94/94/94 112/112/112 111/111/111
f 95/95/95 96/96/96 113/113/113
f 95/95/95 113/113/113 112/112/112
f 96/96/96 97/97/97 114/114/114
f 96/96/96 114/114/114 113/113/113
f 97/97/97 98/98/98 115/115/115
f 97/97/97 115/115/115 114/114/114
f 98/98/98 99/99/99 116/116/116
f 98/98/98 116/116/116 115/115/115
f 99/99/99 100/100/100 117/117/117
f 99/99/99 117/117/117 116/116/116
f 100/100/100 101/101/101 118/118/118
f 100/100/100 118/118/118 117/117/117
f 101/101/101 102/102/102 119/119/119
f 101/101/101 119/119/119 118/118/118
f 103/104/104 104/103/103 121/120/120
f 103/104/104 121/120/120 120/121/121
f 104/103/103 105/105/105 122/122/122
f 104/103/103 122/122/122 121/120/120
f 105/105/105 106/106/106 123/123/123
f 105/105/105 123/123/123 122/122/122
f 106/106/106 107/107/107 124/124/124
f 106/106/106 124/124/124 123/123/123
f 107/107/107 108/108/108 125/125/125
f 107/107/107 125/125/125 124/124/124
f 108/108/108 109/109/109 126/126/126
f 108/108/108 126/126/126 125/125/125
f 109/109/109 110/110/110 127/127/127
f 109/109/109 127/127/127 126/126/126
f 110/110/110 111/111/111 128/128/128
f 110/110/110 128/128/128 127/127/127
f 111/111/111 112/112/112 129/129/129
f 111/111/111 129/129/129 128/128/128
f 112/112/112 113/113/113 130/130/130
f 112/112/112 130/130/130 129/129/129
f 113/113/113 114/114/114 131/131/131
f 113/113/113 131/131/131 130/130/130
f 114/114/114 115/115/115 132/132/132
f 114/114/114 132/132/132 131/131/131
f 115/115/115 116/116/116 133/133/133
f 115/115/115 133/133/133 132/132/132
f 116/116/116 117/117/117 134/134/134
f 116/116/116 134/134/134 133/133/133
f 117/117/117 118/118/118 135/135/135
f 117/117/117 135/135/135 134/134/134
f 118/118/118 119/119/119 136/136/136
f 118/118/118 136/136/136 135/135/135
f 120/121/121 121/120/120 138/137/137
f 120/121/121 138/137/137 137/138/138
f 121/120/120 122/122/122 139/139/139
f 121/120/120 139/139/139 138/137/137
f 122/122/122 123/123/123 140/140/140
f 122/122/122 140/140/140 139/139/139
f 123/123/123 124/124/124 141/141/141
f 123/123/123 141/141/141 140/140/140
f 124/124/124 125/125/125 142/142/142
f 124/124/124 142/142/142 141/141/141
f 125/125/125 126/126/126 143/143/143
f 125/125/125 143/143/143 142/142/142
f 126/126/126 127/127/127 144/144/144
f 126/126/126 144/144/144 143/143/143
f 127/127/127 128/128/128 145/145/145
f 127/127/127 145/145/145 144/144/144
f 128/128/128 129/129/129 146/146/146
f 128/128/128 146/146/146 145/145/145
f 129/129/129 130/130/130 147/147/147
f 129/129/129 147/147/147 146/146/146
f 130/130/130 131/131/131 148/148/148
f 130/130/130 148/148/148 147/147/147
f 131/131/131 132/132/132 149/149/149
f 131/131/131 149/149/149 148/148/148
f 132/132/132 133/133/133 150/150/150
f 132/132/132 150/150/150 149/149/149
f 133/133/133 134/134/134 151/151/151
f 133/133/133 151/151/151 150/150/150
f 134/134/134 135/135/135 152/152/152
f 134/134/134 152/152/152 151/151/151
f 135/135/135 136/136/136 153/153/153
f 135/135/135 153/153/153 152/152/152
f 137/138/138 138/137/137 155/154/154
f 137/138/138 155/154/154 154/155/155
f 138/137/137 139/139/139 156/156/156
f 138/137/137 156/156/156 155/154/154
f 139/139/139 140/140/140 157/157/157
f 139/139/139 157/157/157 156/156/156
f 140/140/140 141/141/141 158/158/158
f 140/140/140 158/158/158 157/157/157
f 141/141/141 142/142/142 159/159/159
f 141/141/141 159/159/159 158/158/158
f 142/142/142 143/143/143 160/160/160
f 142/142/142 160/160/160 159/159/159
f 143/143/143 144/144/144 161/161/161
f 143/143/143 161/161/161 160/160/160
f 144/144/144 145/145/145 162/162/162
f 144/144/144 162/162/162 161/161/161
f 145/145/145 146/146/146 163/163/163
f 145/145/145 163/163/163 162/162/162
f 146/146/146 147/147/147 164/164/164
f 146/146/146 164/164/164 163/163/163
f 147/147/147 148/148/148 165/165/165
f 147/147/147 165/165/165 164/164/164
f 148/148/148 149/149/149 166/166/166
f 148/148/148 166/166/166 165/165/165
f 149/149/149 150/150/150 167/167/167
f 149/149/149 167/167/167 166/166/166
f 150/150/150 151/151/151 168/168/168
f 150/150/150 168/168/168 167/167/167
f 151/151/151 152/152/152 169/169/169
f 151/151/151 169/169/169 168/168/168
f 152/152/152 153/153/153 170/170/170
f 152/152/152 170/170/170 169/169/169
f 154/155/155 155/154/154 172/171/171
f 154/155/155 172/171/171 171/172/172
f 155/154/154 156/156/156 173/173/173
f 155/154/154 173/173/173 172/171/171
f 156/156/156 157/157/157 174/174/174
f 156/156/156 174/174/174 173/173/173
f 157/157/157 158/158/158 175/175/175
f 157/157/157 175/175/175 174/174/174
f 158/158/158 159/159/159 176/176/176
f 158/158/158 176/176/176 175/175/175
f 159/159/159 160/160/160 177/177/177
f 159/159/159 177/177/177 176/176/176
f 160/160/160 161/161/161 178/178/178
f 160/160/160 178/178/178 177/177/177
f 161/161/161 162/162/162 179/179/179
f 161/161/161 179/179/179 178/178/178
f 162/162/162 163/163/163 180/180/180
f 162/162/162 180/180/180 179/179/179
f 163/163/163 164/164/164 181/181/181
f 163/163/163 181/181/181 180/180/180
f 164/164/164 165/165/165 182/182/182
f 164/164/164 182/182/182 181/181/181
f 165/165/165 166/166/166 183/183/183
f 165/165/165 183/183/183 182/182/182
f 166/166/166 167/167/167 184/184/184
f 166/166/166 184/184/184 183/183/183
f 167/167/167 168/168/168 185/185/185
f 167/167/167 185/185/185 184/184/184
f 168/168/168 169/169/169 186/186/186
f 168/168/168 186/186/186 185/185/185
f 169/169/169 170/170/170 187/187/187
f 169/169/169 187/187/187 186/186/186
f 171/172/172 172/171/171 189/188/188
f 171/172/172 189/188/188 188/189/189
f 172/171/171 173/173/173 190/190/190
f 172/171/171 190/190/190 189/188/188
f 173/173/173 174/174/174 191/191/191
f 173/173/173 191/191/191 190/190/190
f 174/174/174 175/175/175 192/192/192
f 174/174/174 192/192/192 191/191/191
f 175/175/175 176/176/176 193/193/193
f 175/175/175 193/193/193 192/192/192
f 176/176/176 177/177/177 194/194/194
f 176/176/176 194/194/194 193/193/193
f 177/177/177 178/178/178 195/195/195
f 177/177/177 195/195/195 194/194/194
f 178/178/178 179/179/179 196/196/196
f 178/178/178 196/196/196 195/195/195
f 179/179/179 180/180/180 197/197/197
f 179/179/179 197/197/197 196/196/196
f 180/180/180 181/181/181 198/198/198
f 180/180/180 198/198/198 197/197/197
f 181/181/181 182/182/182 199/199/199
f 181/181/181 199/199/199 198/198/198
f 182/182/182 183/183/183 200/200/200
f 182/182/182 200/200/200 199/199/199
f 183/183/183 184/184/184 201/201/201
f 183/183/183 201/201/201 200/200/200
f 184/184/184 185/185/185 202/202/202
f 184/184/184 202/202/202 201/201/201
f 185/185/185 186/186/186 203/203/203
f 185/185/185 203/203/203 202/202/202
f 186/186/186 187/187/187 204/204/204
f 186/186/186 204/204/204 203/203/203
f 188/189/189 189/188/188 206/205/205
f 188/189/189 206/205/205 205/206/206
f 189/188/188 190/190/190 207/207/207
f 189/188/188 207/207/207 206/205/205
f 190/190/190 191/191/191 208/208/208
f 190/190/190 208/208/208 207/207/207
f 191/191/191 192/192/192 209/209/209
f 191/191/191 209/209/209 208/208/208
f 192/192/192 193/193/193 210/210/210
f 192/192/192 210/210/210 209/209/209
f 193/193/193 194/194/194 211/211/211
f 193/193/193 211/211/211 210/210/210
f 194/194/194 195/195/195 212/212/212
f 194/194/194 212/212/212 211/211/211
f 195/195/195 196/196/196 213/213/213
f 195/195/195 213/213/213 212/212/212
f 196/196/196 197/197/197 214/214/214
f 196/196/196 214/214/214 213/213/213
f 197/197/197 198/198/198 215/215/215
f 197/197/197 215/215/215 214/214/214
f 198/198/198 199/199/199 216/216/216
f 198/198/198 216/216/216 215/215/215
f 199/199/199 200/200/200 217/217/217
f 199/199/199 217/217/217 216/216/216
f 200/200/200 201/201/201 218/218/218
f 200/200/200 218/218/218 217/217/217
f 201/201/201 202/202/202 219/219/219
f 201/201/201 219/219/219 218/218/218
f 202/202/202 203/203/203 220/220/220
f 202/202/202 220/220/220 219/219/219
f 203/203/203 204/204/204 221/221/221
f 203/203/203 221/221/221 220/220/220
f 205/206/206 206/205/205 223/222/222
f 205/206/206 223/222/222 222/223/223
f 206/205/205 207/207/207 224/224/224
f 206/205/205 224/224/224 223/222/222
f 207/207/207 208/208/208 225/225/225
f 207/207/207 225/225/225 224/224/224
f 208/208/208 209/209/209 226/226/226
f 208/208/208 226/226/226 225/225/225
f 209/209/209 210/210/210 227/227/227
f 209/209/209 227/227/227 226/226/226
f 210/210/210 211/211/211 228/228/228
f 210/210/210 228/228/228 227/227/227
f 211/211/211 212/212/212 229/229/229
f 211/211/211 229/229/229 228/228/228
f 212/212/212 213/213/213 230/230/230
f 212/212/212 230/230/230 229/229/229
f 213/213/213 214/214/214 231/231/231
f 213/213/213 231/231/231 230/230/230
f 214/214/214 215/215/215 232/232/232
f 214/214/214 232/232/232 231/231/231
f 215/215/215 216/216/216 233/233/233
f 215/215/215 233/233/233 232/232/232
f 216/216/216 217/217/217 234/234/234
f 216/216/216 234/234/234 233/233/233
f 217/217/217 218/218/218 235/235/235
f 217/217/217 235/235/235 234/234/234
f 218/218/218 219/219/219 236/236/236
f 218/218/218 236/236/236 235/235/235
f 219/219/219 220/220/220 237/237/237
f 219/219/219 237/237/237 236/236/236
f 220/220/220 221/221/221 238/238/238
f 220/220/220 238/238/238 237/237/237
f 222/223/223 223/222/222 240/239/239
f 222/223/223 240/239/239 239/240/240
f 223/222/222 224/224/224 241/241/241
f 223/222/222 241/241/241 240/239/239
f 224/224/224 225/225/225 242/242/242
f 224/224/224 242/242/242 241/241/241
f 225/225/225 226/226/226 243/243/243
f 225/225/225 243/243/243 242/242/242
f 226/226/226 227/227/227 244/244/244
f 226/226/226 244/244/244 243/243/243
f 227/227/227 228/228/228 245/245/245
f 227/227/227 245/245/245 244/244/244
f 228/228/228 229/229/229 246/246/246
f 228/228/228 246/246/246 245/245/245
f 229/229/229 230/230/230 247/247/247
f 229/229/229 247/247/247 246/246/246
f 230/230/230 231/231/231 248/248/248
f 230/230/230 248/248/248 247/247/247
f 231/231/231 232/232/232 249/249/249
f 231/231/231 249/249/249 248/248/248
f 232/232/232 233/233/233 250/250/250
f 232/232/232 250/250/250 249/249/249
f 233/233/233 234/234/234 251/251/251
f 233/233/233 251/251/251 250/250/250
f 234/234/234 235/235/235 252/252/252
f 234/234/234 252/252/252 251/251/251
f 235/235/235 236/236/236 253/253/253
f 235/235/235 253/253/253 252/252/252
f 236/236/236 237/237/237 254/254/254
f 236/236/236 254/254/254 253/253/253
f 237/237/237 238/238/238 255/255/255
f 237/237/237 255/255/255 254/254/254
f 239/240/240 240/239/239 257/256/256
f 239/240/240 257/256/256 256/257/257
f 240/239/239 241/241/241 258/258/258
f 240/239/239 258/258/258 257/256/256
f 241/241/241 242/242/242 259/259/259
f 241/241/241 259/259/259 258/258/258
f 242/242/242 243/243/243 260/260/260
f 242/242/242 260/260/260 259/259/259
f 243/243/243 244/244/244 261/261/261
f 243/243/243 261/261/261 260/260/260
f 244/244/244 245/245/245 262/262/262
f 244/244/244 262/262/262 261/261/261
f 245/245/245 246/246/246 263/263/263
f 245/245/245 263/263/263 262/262/262
f 246/246/246 247/247/247 264/264/264
f 246/246/246 264/264/264 263/263/263
f 247/247/247 248/248/248 265/265/265
f 247/247/247 265/265/265 264/264/264
f 248/248/248 249/249/249 266/266/266
f 248/248/248 266/266/266 265/265/265
f 249/249/249 250/250/250 267/267/267
f 249/249/249 267/267/267 266/266/266
f 250/250/250 251/251/251 268/268/268
f 250/250/250 268/268/268 267/267/267
f 251/251/251 252/252/252 269/269/269
f 251/251/251 269/269/269 268/268/268
f 252/252/252 253/253/253 270/270/270
f 252/252/252 270/270/270 269/269/269
f 253/253/253 254/254/254 271/271/271
f 253/253/253 271/271/271 270/270/270
f 254/254/254 255/255/255 272/272/272
f 254/254/254 272/272/272 271/271/271
f 256/257/257 257/256/256 274/273/273
f 256/257/257 274/273/273 273/274/274
f 257/256/256 258/258/258 275/275/275
f 257/256/256 275/275/275 274/273/273
f 258/258/258 259/259/259 276/276/276
f 258/258/258 276/276/276 275/275/275
f 259/259/259 260/260/260 277/277/277
f 259/259/259 277/277/277 276/276/276
f 260/260/260 261/261/261 278/278/278
f 260/260/260 278/278/278 277/277/277
f 261/261/261 262/262/262 279/279/279
f 261/261/261 279/279/279 278/278/278
f 262/262/262 263/263/263 280/280/280
f 262/262/262 280/280/280 279/279/279
f 263/263/263 264/264/264 281/281/281
f 263/263/263 281/281/281 280/280/280
f 264/264/264 265/265/265 282/282/282
f 264/264/264 282/282/282 281/281/281
f 265/265/265 266/266/266 283/283/283
f 265/265/265 283/283/283 282/282/282
f 266/266/266 267/267/267 284/284/284
f 266/266/266 284/284/284 283/283/283
f 267/267/267 268/268/268 285/285/285
f 267/267/267 285/285/285 284/284/284
f 268/268/268 269/269/269 286/286/286
f 268/268/268 286/286/286 285/285/285
f 269/269/269 270/270/270 287/287/287
f 269/269/269 287/287/287 286/286/286
f 270/270/270 271/271/271 288/288/288
f 270/270/270 288/288/288 287/287/287
f 271/271/271 272/272/272 289/289/289
f 271/271/271 289/289/289 288/288/288
