mtllib terrain_far_00_02.mtl
usemtl terrain_far_00_02
# Blender 5.1.1
# www.blender.org
o terrain_far_00_02
v -320.000000 -320.000000 -81.066071
v -280.000000 -320.000000 -96.044029
v -240.000000 -320.000000 -94.808212
v -200.000000 -320.000000 -87.546028
v -160.000000 -320.000000 -83.266380
v -120.000000 -320.000000 -77.516075
v -80.000000 -320.000000 -68.108078
v -40.000000 -320.000000 -57.024242
v 0.000000 -320.000000 -50.366524
v 40.000000 -320.000000 -53.365154
v 80.000000 -320.000000 -67.088539
v 120.000000 -320.000000 -71.855171
v 160.000000 -320.000000 -62.032085
v 200.000000 -320.000000 -48.304611
v 240.000000 -320.000000 -36.729172
v 280.000000 -320.000000 -31.460917
v 320.000000 -320.000000 -33.197678
v -320.000000 -280.000000 -85.154068
v -280.000000 -280.000000 -88.813171
v -240.000000 -280.000000 -83.990234
v -200.000000 -280.000000 -80.288338
v -160.000000 -280.000000 -77.575340
v -120.000000 -280.000000 -73.121971
v -80.000000 -280.000000 -66.464455
v -40.000000 -280.000000 -54.795395
v 0.000000 -280.000000 -43.383408
v 40.000000 -280.000000 -42.759312
v 80.000000 -280.000000 -53.941006
v 120.000000 -280.000000 -56.326214
v 160.000000 -280.000000 -44.212376
v 200.000000 -280.000000 -31.070665
v 240.000000 -280.000000 -20.770710
v 280.000000 -280.000000 -16.406216
v 320.000000 -280.000000 -21.859470
v -320.000000 -240.000000 -82.102631
v -280.000000 -240.000000 -78.651703
v -240.000000 -240.000000 -74.525383
v -200.000000 -240.000000 -72.793968
v -160.000000 -240.000000 -71.705055
v -120.000000 -240.000000 -66.032845
v -80.000000 -240.000000 -61.715900
v -40.000000 -240.000000 -54.701138
v 0.000000 -240.000000 -40.061394
v 40.000000 -240.000000 -33.520733
v 80.000000 -240.000000 -41.796535
v 120.000000 -240.000000 -42.195435
v 160.000000 -240.000000 -29.245314
v 200.000000 -240.000000 -15.767306
v 240.000000 -240.000000 -6.678927
v 280.000000 -240.000000 -5.903835
v 320.000000 -240.000000 -17.240240
v -320.000000 -200.000000 -75.935760
v -280.000000 -200.000000 -69.048721
v -240.000000 -200.000000 -63.477253
v -200.000000 -200.000000 -60.373081
v -160.000000 -200.000000 -60.243164
v -120.000000 -200.000000 -55.076817
v -80.000000 -200.000000 -50.246433
v -40.000000 -200.000000 -50.862148
v 0.000000 -200.000000 -40.272690
v 40.000000 -200.000000 -27.774088
v 80.000000 -200.000000 -30.742926
v 120.000000 -200.000000 -30.170246
v 160.000000 -200.000000 -18.994663
v 200.000000 -200.000000 -5.448689
v 240.000000 -200.000000 3.347209
v 280.000000 -200.000000 -1.234327
v 320.000000 -200.000000 -17.940220
v -320.000000 -160.000000 -69.609482
v -280.000000 -160.000000 -61.677124
v -240.000000 -160.000000 -53.544201
v -200.000000 -160.000000 -47.013714
v -160.000000 -160.000000 -43.888386
v -120.000000 -160.000000 -40.759731
v -80.000000 -160.000000 -36.779392
v -40.000000 -160.000000 -39.929356
v 0.000000 -160.000000 -37.933010
v 40.000000 -160.000000 -24.319715
v 80.000000 -160.000000 -19.034817
v 120.000000 -160.000000 -16.504198
v 160.000000 -160.000000 -10.532328
v 200.000000 -160.000000 0.124634
v 240.000000 -160.000000 7.936083
v 280.000000 -160.000000 -0.849466
v 320.000000 -160.000000 -21.251295
v -320.000000 -120.000000 -64.005356
v -280.000000 -120.000000 -57.190186
v -240.000000 -120.000000 -47.471115
v -200.000000 -120.000000 -38.934616
v -160.000000 -120.000000 -31.156927
v -120.000000 -120.000000 -26.970032
v -80.000000 -120.000000 -24.243279
v -40.000000 -120.000000 -27.151081
v 0.000000 -120.000000 -29.917406
v 40.000000 -120.000000 -18.234394
v 80.000000 -120.000000 -7.604037
v 120.000000 -120.000000 -2.267435
v 160.000000 -120.000000 1.388401
v 200.000000 -120.000000 6.380860
v 240.000000 -120.000000 10.622898
v 280.000000 -120.000000 0.232802
v 320.000000 -120.000000 -20.571011
v -320.000000 -80.000000 -59.982048
v -280.000000 -80.000000 -53.043091
v -240.000000 -80.000000 -43.220196
v -200.000000 -80.000000 -34.147346
v -160.000000 -80.000000 -24.074646
v -120.000000 -80.000000 -15.667026
v -80.000000 -80.000000 -12.602023
v -40.000000 -80.000000 -14.836812
v 0.000000 -80.000000 -18.346727
v 40.000000 -80.000000 -10.677192
v 80.000000 -80.000000 1.936348
v 120.000000 -80.000000 10.993402
v 160.000000 -80.000000 16.104946
v 200.000000 -80.000000 18.307827
v 240.000000 -80.000000 18.422655
v 280.000000 -80.000000 7.663507
v 320.000000 -80.000000 -9.892829
v -320.000000 -40.000000 -57.370609
v -280.000000 -40.000000 -49.627041
v -240.000000 -40.000000 -39.351974
v -200.000000 -40.000000 -29.900282
v -160.000000 -40.000000 -19.481316
v -120.000000 -40.000000 -8.416483
v -80.000000 -40.000000 -2.074862
v -40.000000 -40.000000 -2.709018
v 0.000000 -40.000000 -5.449666
v 40.000000 -40.000000 -1.863579
v 80.000000 -40.000000 10.077217
v 120.000000 -40.000000 22.093609
v 160.000000 -40.000000 26.379408
v 200.000000 -40.000000 25.943455
v 240.000000 -40.000000 24.058968
v 280.000000 -40.000000 17.887934
v 320.000000 -40.000000 5.579095
v -320.000000 0.000000 -54.082691
v -280.000000 0.000000 -47.150005
v -240.000000 0.000000 -36.499798
v -200.000000 0.000000 -26.003790
v -160.000000 0.000000 -15.592909
v -120.000000 0.000000 -4.393262
v -80.000000 0.000000 5.171604
v -40.000000 0.000000 8.025493
v 0.000000 0.000000 7.864543
v 40.000000 0.000000 9.959535
v 80.000000 0.000000 18.619345
v 120.000000 0.000000 28.512337
v 160.000000 0.000000 35.724625
v 200.000000 0.000000 38.325542
v 240.000000 0.000000 34.004726
v 280.000000 0.000000 25.653185
v 320.000000 0.000000 18.161921
v -320.000000 40.000000 -49.954266
v -280.000000 40.000000 -45.640705
v -240.000000 40.000000 -37.746960
v -200.000000 40.000000 -23.747320
v -160.000000 40.000000 -12.232062
v -120.000000 40.000000 -1.713195
v -80.000000 40.000000 8.798801
v -40.000000 40.000000 16.314175
v 0.000000 40.000000 20.661486
v 40.000000 40.000000 25.033367
v 80.000000 40.000000 28.875862
v 120.000000 40.000000 36.278313
v 160.000000 40.000000 46.982212
v 200.000000 40.000000 50.310932
v 240.000000 40.000000 47.776428
v 280.000000 40.000000 39.344803
v 320.000000 40.000000 29.154860
v -320.000000 80.000000 -44.945099
v -280.000000 80.000000 -39.887905
v -240.000000 80.000000 -36.732563
v -200.000000 80.000000 -24.069464
v -160.000000 80.000000 -9.393371
v -120.000000 80.000000 1.217082
v -80.000000 80.000000 10.686253
v -40.000000 80.000000 21.403790
v 0.000000 80.000000 31.494637
v 40.000000 80.000000 36.401917
v 80.000000 80.000000 41.633980
v 120.000000 80.000000 48.901237
v 160.000000 80.000000 56.088154
v 200.000000 80.000000 60.315975
v 240.000000 80.000000 59.057121
v 280.000000 80.000000 49.552750
v 320.000000 80.000000 38.477566
v -320.000000 120.000000 -38.989056
v -280.000000 120.000000 -33.230408
v -240.000000 120.000000 -31.550821
v -200.000000 120.000000 -23.073154
v -160.000000 120.000000 -8.565551
v -120.000000 120.000000 2.029969
v -80.000000 120.000000 12.029887
v -40.000000 120.000000 24.624336
v 0.000000 120.000000 36.960667
v 40.000000 120.000000 46.879322
v 80.000000 120.000000 58.078148
v 120.000000 120.000000 63.888023
v 160.000000 120.000000 68.635361
v 200.000000 120.000000 70.877304
v 240.000000 120.000000 67.808922
v 280.000000 120.000000 57.139236
v 320.000000 120.000000 46.666279
v -320.000000 160.000000 -32.512699
v -280.000000 160.000000 -26.026794
v -240.000000 160.000000 -24.458122
v -200.000000 160.000000 -22.365051
v -160.000000 160.000000 -13.410170
v -120.000000 160.000000 0.142267
v -80.000000 160.000000 13.241829
v -40.000000 160.000000 27.557217
v 0.000000 160.000000 40.896595
v 40.000000 160.000000 57.858326
v 80.000000 160.000000 70.820824
v 120.000000 160.000000 77.813522
v 160.000000 160.000000 82.068863
v 200.000000 160.000000 82.288994
v 240.000000 160.000000 77.451637
v 280.000000 160.000000 68.063072
v 320.000000 160.000000 56.598541
v -320.000000 200.000000 -26.371265
v -280.000000 200.000000 -19.437702
v -240.000000 200.000000 -16.353800
v -200.000000 200.000000 -15.935783
v -160.000000 200.000000 -13.640462
v -120.000000 200.000000 -0.413560
v -80.000000 200.000000 14.564433
v -40.000000 200.000000 30.416843
v 0.000000 200.000000 44.846966
v 40.000000 200.000000 62.963623
v 80.000000 200.000000 77.276093
v 120.000000 200.000000 87.248695
v 160.000000 200.000000 93.039925
v 200.000000 200.000000 93.762375
v 240.000000 200.000000 88.506874
v 280.000000 200.000000 80.274879
v 320.000000 200.000000 68.653404
v -320.000000 240.000000 -18.939598
v -280.000000 240.000000 -12.628275
v -240.000000 240.000000 -8.739387
v -200.000000 240.000000 -7.166056
v -160.000000 240.000000 -5.944641
v -120.000000 240.000000 0.479323
v -80.000000 240.000000 16.296217
v -40.000000 240.000000 32.998489
v 0.000000 240.000000 46.810535
v 40.000000 240.000000 64.632263
v 80.000000 240.000000 79.830437
v 120.000000 240.000000 92.682945
v 160.000000 240.000000 101.148033
v 200.000000 240.000000 104.196487
v 240.000000 240.000000 100.377510
v 280.000000 240.000000 92.475769
v 320.000000 240.000000 81.358047
v -320.000000 280.000000 -9.843965
v -280.000000 280.000000 -3.927802
v -240.000000 280.000000 -1.327324
v -200.000000 280.000000 0.513245
v -160.000000 280.000000 1.862746
v -120.000000 280.000000 2.950542
v -80.000000 280.000000 16.483717
v -40.000000 280.000000 34.446087
v 0.000000 280.000000 47.188736
v 40.000000 280.000000 64.403282
v 80.000000 280.000000 80.758888
v 120.000000 280.000000 95.303078
v 160.000000 280.000000 106.432884
v 200.000000 280.000000 112.470215
v 240.000000 280.000000 111.042610
v 280.000000 280.000000 102.790154
v 320.000000 280.000000 91.739388
v -320.000000 320.000000 -1.287641
v -280.000000 320.000000 6.035774
v -240.000000 320.000000 8.757047
v -200.000000 320.000000 9.506789
v -160.000000 320.000000 9.308432
v -120.000000 320.000000 7.354798
v -80.000000 320.000000 18.065573
v -40.000000 320.000000 36.573990
v 0.000000 320.000000 48.545979
v 40.000000 320.000000 64.067612
v 80.000000 320.000000 81.431999
v 120.000000 320.000000 97.592651
v 160.000000 320.000000 110.849510
v 200.000000 320.000000 118.786972
v 240.000000 320.000000 118.710968
v 280.000000 320.000000 110.072411
v 320.000000 320.000000 101.622017
vn 0.3261 0.0925 0.9408
vn 0.1725 -0.1086 0.9790
vn -0.0190 -0.2124 0.9770
vn 0.1647 0.0199 0.9861
vn -0.1025 -0.2407 0.9652
vn -0.1027 -0.2445 0.9642
vn -0.1399 -0.2001 0.9697
vn -0.0786 -0.1808 0.9804
vn -0.1228 -0.1623 0.9791
vn -0.0883 -0.1425 0.9859
vn -0.1844 -0.1373 0.9732
vn -0.1362 -0.1407 0.9806
vn -0.2470 -0.0951 0.9643
vn -0.2226 -0.0776 0.9718
vn -0.2142 -0.1450 0.9660
vn -0.2771 -0.0279 0.9604
vn -0.0444 -0.2386 0.9701
vn -0.1476 -0.1263 0.9809
vn 0.1976 -0.2599 0.9452
vn 0.1270 -0.2388 0.9627
vn 0.2153 -0.2927 0.9316
vn 0.1596 -0.2977 0.9412
vn -0.0594 -0.3384 0.9391
vn -0.1133 -0.3454 0.9316
vn -0.2639 -0.3561 0.8964
vn -0.2804 -0.3640 0.8882
vn -0.2806 -0.3661 0.8873
vn -0.2619 -0.3636 0.8940
vn -0.1915 -0.3688 0.9096
vn -0.1691 -0.3466 0.9227
vn -0.0408 -0.3794 0.9243
vn 0.0131 -0.3044 0.9524
vn 0.1504 -0.3348 0.9302
vn 0.2406 -0.1899 0.9519
vn -0.0942 -0.2388 0.9665
vn 0.0015 -0.1191 0.9929
vn -0.0707 -0.2477 0.9662
vn -0.0342 -0.2415 0.9698
vn -0.0823 -0.2110 0.9740
vn -0.1209 -0.2184 0.9683
vn -0.1375 -0.1968 0.9708
vn -0.2610 -0.0474 0.9642
vn -0.2558 -0.0376 0.9660
vn 0.0213 -0.1841 0.9827
vn 0.1036 -0.2770 0.9553
vn -0.1475 -0.3074 0.9401
vn -0.3005 -0.2867 0.9097
vn -0.2594 -0.2946 0.9197
vn -0.1172 -0.2866 0.9508
vn 0.1286 -0.1848 0.9743
vn 0.3507 -0.0458 0.9354
vn -0.1508 -0.2052 0.9670
vn -0.0852 -0.1569 0.9839
vn -0.1043 -0.2523 0.9620
vn -0.0385 -0.3065 0.9511
vn -0.0624 -0.3278 0.9427
vn -0.1183 -0.2991 0.9469
vn -0.0502 -0.2972 0.9535
vn -0.1217 -0.1802 0.9761
vn -0.2772 -0.0255 0.9605
vn -0.1175 -0.1135 0.9866
vn 0.0288 -0.2736 0.9614
vn -0.1385 -0.3028 0.9429
vn -0.2882 -0.2181 0.9324
vn -0.2642 -0.1879 0.9460
vn -0.0518 -0.1795 0.9824
vn 0.2567 -0.0609 0.9646
vn 0.4301 0.0452 0.9016
vn -0.1944 -0.1438 0.9703
vn -0.0852 -0.1473 0.9854
vn -0.1769 -0.1930 0.9651
vn -0.1158 -0.2571 0.9594
vn -0.0733 -0.3408 0.9373
vn -0.0836 -0.3303 0.9402
vn -0.0099 -0.3091 0.9510
vn 0.0138 -0.2841 0.9587
vn -0.1900 -0.1260 0.9737
vn -0.2284 -0.1153 0.9667
vn -0.0934 -0.2766 0.9564
vn -0.0997 -0.3278 0.9395
vn -0.1974 -0.2420 0.9500
vn -0.2226 -0.1426 0.9644
vn 0.0121 -0.0906 0.9958
vn 0.3427 -0.0172 0.9393
vn 0.4346 0.0296 0.9001
vn -0.2011 -0.1051 0.9739
vn -0.0435 -0.1211 0.9917
vn -0.2207 -0.1248 0.9673
vn -0.1974 -0.1557 0.9679
vn -0.1436 -0.2379 0.9606
vn -0.0822 -0.2983 0.9509
vn 0.0022 -0.2893 0.9572
vn 0.0675 -0.2986 0.9520
vn -0.1077 -0.2365 0.9657
vn -0.2651 -0.1621 0.9505
vn -0.1896 -0.2490 0.9498
vn -0.1057 -0.3232 0.9404
vn -0.1020 -0.3143 0.9438
vn -0.1119 -0.2203 0.9690
vn 0.0760 -0.1296 0.9887
vn 0.3615 -0.0987 0.9271
vn 0.3224 -0.1331 0.9372
vn -0.2020 -0.0922 0.9750
vn -0.0252 -0.0822 0.9963
vn -0.2288 -0.0983 0.9685
vn -0.2313 -0.1091 0.9667
vn -0.2229 -0.1408 0.9646
vn -0.1384 -0.2238 0.9648
vn -0.0100 -0.2670 0.9636
vn 0.0684 -0.2916 0.9541
vn -0.0497 -0.2921 0.9551
vn -0.2411 -0.1946 0.9508
vn -0.2557 -0.2087 0.9440
vn -0.1669 -0.2873 0.9432
vn -0.0869 -0.2971 0.9509
vn -0.0282 -0.2375 0.9710
vn 0.1301 -0.1642 0.9778
vn 0.3267 -0.2037 0.9229
vn 0.1903 -0.3050 0.9331
vn -0.2194 -0.0717 0.9730
vn -0.0270 -0.0706 0.9971
vn -0.2386 -0.0813 0.9677
vn -0.2398 -0.0982 0.9658
vn -0.2579 -0.1018 0.9608
vn -0.2107 -0.1365 0.9680
vn -0.0695 -0.2164 0.9738
vn 0.0405 -0.2746 0.9607
vn -0.0100 -0.3113 0.9503
vn -0.1847 -0.2455 0.9516
vn -0.2814 -0.1959 0.9394
vn -0.1952 -0.2098 0.9581
vn -0.0467 -0.2379 0.9702
vn 0.0274 -0.2428 0.9697
vn 0.0984 -0.1902 0.9768
vn 0.2199 -0.2140 0.9518
vn 0.1242 -0.3284 0.9363
vn -0.2150 -0.0486 0.9754
vn -0.0139 -0.0919 0.9957
vn -0.2555 -0.0194 0.9666
vn -0.2523 -0.0744 0.9648
vn -0.2598 -0.0871 0.9617
vn -0.2504 -0.0809 0.9647
vn -0.1520 -0.1331 0.9794
vn -0.0327 -0.2312 0.9723
vn -0.0229 -0.3102 0.9504
vn -0.1265 -0.3160 0.9403
vn -0.2202 -0.2231 0.9496
vn -0.2060 -0.1709 0.9635
vn -0.1180 -0.2477 0.9616
vn 0.0206 -0.2913 0.9564
vn 0.1502 -0.2810 0.9479
vn 0.1879 -0.2544 0.9487
vn 0.0788 -0.2818 0.9562
vn -0.1508 -0.0894 0.9845
vn -0.0009 -0.1135 0.9935
vn -0.2640 0.0028 0.9645
vn -0.3038 -0.0230 0.9525
vn -0.2648 -0.0745 0.9614
vn -0.2537 -0.0676 0.9649
vn -0.2193 -0.0671 0.9733
vn -0.1447 -0.1632 0.9759
vn -0.1039 -0.2818 0.9538
vn -0.0970 -0.3123 0.9450
vn -0.1339 -0.2740 0.9524
vn -0.2142 -0.2412 0.9465
vn -0.1676 -0.2432 0.9554
vn -0.0096 -0.2651 0.9642
vn 0.1297 -0.2963 0.9462
vn 0.2177 -0.2793 0.9352
vn 0.1241 -0.2442 0.9617
vn -0.1015 -0.1525 0.9831
vn -0.0578 -0.1356 0.9891
vn -0.1934 -0.0758 0.9782
vn -0.3233 -0.0079 0.9463
vn -0.3011 -0.0437 0.9526
vn -0.2432 -0.0453 0.9689
vn -0.2445 -0.0391 0.9689
vn -0.2505 -0.1000 0.9629
vn -0.1807 -0.1964 0.9637
vn -0.1214 -0.2615 0.9576
vn -0.1452 -0.3393 0.9294
vn -0.1684 -0.3216 0.9318
vn -0.1365 -0.2588 0.9562
vn -0.0359 -0.2488 0.9679
vn 0.1294 -0.2409 0.9619
vn 0.2436 -0.2106 0.9468
vn 0.1346 -0.2119 0.9680
vn -0.0918 -0.1700 0.9812
vn -0.1224 -0.1534 0.9806
vn -0.1245 -0.1505 0.9807
vn -0.2761 -0.0205 0.9609
vn -0.2990 0.0479 0.9530
vn -0.2493 0.0130 0.9683
vn -0.2717 -0.0307 0.9619
vn -0.2968 -0.0732 0.9521
vn -0.2663 -0.1125 0.9573
vn -0.2470 -0.2511 0.9359
vn -0.1958 -0.3361 0.9212
vn -0.1232 -0.3373 0.9333
vn -0.0828 -0.3078 0.9478
vn 0.0100 -0.2648 0.9642
vn 0.1651 -0.2210 0.9612
vn 0.2488 -0.2185 0.9436
vn 0.1235 -0.2192 0.9678
vn -0.0983 -0.1691 0.9807
vn -0.1502 -0.1545 0.9765
vn -0.0449 -0.1865 0.9814
vn -0.1363 -0.0880 0.9868
vn -0.2703 0.0610 0.9608
vn -0.3159 0.0290 0.9483
vn -0.3241 -0.0299 0.9456
vn -0.3260 -0.0682 0.9429
vn -0.3524 -0.0920 0.9313
vn -0.3443 -0.1851 0.9204
vn -0.2357 -0.2268 0.9450
vn -0.1338 -0.2778 0.9513
vn -0.0534 -0.2914 0.9551
vn 0.0554 -0.2746 0.9600
vn 0.1697 -0.2468 0.9541
vn 0.2429 -0.2694 0.9319
vn 0.1511 -0.2620 0.9532
vn -0.1227 -0.1640 0.9788
vn -0.1466 -0.1629 0.9757
vn -0.0429 -0.1926 0.9803
vn -0.0333 -0.1866 0.9819
vn -0.1897 -0.0912 0.9776
vn -0.3325 -0.0040 0.9431
vn -0.3593 -0.0356 0.9325
vn -0.3534 -0.0634 0.9333
vn -0.3760 -0.0683 0.9241
vn -0.3746 -0.0783 0.9239
vn -0.2888 -0.1072 0.9514
vn -0.1902 -0.1794 0.9652
vn -0.0790 -0.2313 0.9697
vn 0.0546 -0.2637 0.9630
vn 0.1600 -0.2719 0.9489
vn 0.2309 -0.2840 0.9306
vn 0.1704 -0.2913 0.9413
vn -0.1263 -0.1888 0.9739
vn -0.1239 -0.2023 0.9714
vn -0.0669 -0.1842 0.9806
vn -0.0342 -0.2013 0.9789
vn -0.0933 -0.1896 0.9774
vn -0.2676 -0.0405 0.9627
vn -0.3765 -0.0222 0.9261
vn -0.3559 -0.0471 0.9333
vn -0.3672 -0.0273 0.9298
vn -0.3815 -0.0166 0.9242
vn -0.3306 -0.0411 0.9429
vn -0.2562 -0.0968 0.9618
vn -0.1405 -0.1635 0.9765
vn 0.0095 -0.2277 0.9737
vn 0.1397 -0.2685 0.9531
vn 0.2231 -0.2640 0.9384
vn 0.1867 -0.2724 0.9439
vn -0.1016 -0.2260 0.9688
vn -0.1040 -0.2156 0.9709
vn -0.0542 -0.2134 0.9755
vn -0.0390 -0.2039 0.9782
vn -0.0298 -0.1873 0.9819
vn -0.1791 -0.0843 0.9802
vn -0.3663 -0.0206 0.9303
vn -0.3580 -0.0417 0.9328
vn -0.3506 -0.0203 0.9363
vn -0.3869 0.0065 0.9221
vn -0.3603 -0.0187 0.9327
vn -0.3051 -0.0584 0.9505
vn -0.2083 -0.1177 0.9709
vn -0.0565 -0.1792 0.9822
vn 0.1171 -0.2218 0.9680
vn 0.2294 -0.2091 0.9506
vn 0.1818 -0.2415 0.9532
vn -0.1219 -0.2337 0.9646
vn -0.0924 -0.2417 0.9659
vn -0.0417 -0.2698 0.9620
vn -0.0067 -0.2419 0.9703
vn 0.0263 -0.1949 0.9805
vn -0.1080 -0.1212 0.9867
vn -0.3426 -0.0543 0.9379
vn -0.3554 -0.0590 0.9328
vn -0.3244 -0.0628 0.9438
vn -0.3798 -0.0478 0.9238
vn -0.3857 -0.0656 0.9203
vn -0.3437 -0.0892 0.9348
vn -0.2542 -0.1220 0.9594
vn -0.0965 -0.1592 0.9825
vn 0.1066 -0.1753 0.9787
vn 0.2060 -0.1647 0.9646
vn 0.1077 -0.2742 0.9556
vt 0.015625 0.015625
vt 0.076172 0.015625
vt 0.076172 0.076172
vt 0.015625 0.076172
vt 0.136719 0.015625
vt 0.136719 0.076172
vt 0.197266 0.015625
vt 0.197266 0.076172
vt 0.257812 0.015625
vt 0.257812 0.076172
vt 0.318359 0.015625
vt 0.318359 0.076172
vt 0.378906 0.015625
vt 0.378906 0.076172
vt 0.439453 0.015625
vt 0.439453 0.076172
vt 0.500000 0.015625
vt 0.500000 0.076172
vt 0.560547 0.015625
vt 0.560547 0.076172
vt 0.621094 0.015625
vt 0.621094 0.076172
vt 0.681641 0.015625
vt 0.681641 0.076172
vt 0.742188 0.015625
vt 0.742188 0.076172
vt 0.802734 0.015625
vt 0.802734 0.076172
vt 0.863281 0.015625
vt 0.863281 0.076172
vt 0.923828 0.015625
vt 0.923828 0.076172
vt 0.984375 0.015625
vt 0.984375 0.076172
vt 0.076172 0.136719
vt 0.015625 0.136719
vt 0.136719 0.136719
vt 0.197266 0.136719
vt 0.257812 0.136719
vt 0.318359 0.136719
vt 0.378906 0.136719
vt 0.439453 0.136719
vt 0.500000 0.136719
vt 0.560547 0.136719
vt 0.621094 0.136719
vt 0.681641 0.136719
vt 0.742188 0.136719
vt 0.802734 0.136719
vt 0.863281 0.136719
vt 0.923828 0.136719
vt 0.984375 0.136719
vt 0.076172 0.197266
vt 0.015625 0.197266
vt 0.136719 0.197266
vt 0.197266 0.197266
vt 0.257812 0.197266
vt 0.318359 0.197266
vt 0.378906 0.197266
vt 0.439453 0.197266
vt 0.500000 0.197266
vt 0.560547 0.197266
vt 0.621094 0.197266
vt 0.681641 0.197266
vt 0.742188 0.197266
vt 0.802734 0.197266
vt 0.863281 0.197266
vt 0.923828 0.197266
vt 0.984375 0.197266
vt 0.076172 0.257812
vt 0.015625 0.257812
vt 0.136719 0.257812
vt 0.197266 0.257812
vt 0.257812 0.257812
vt 0.318359 0.257812
vt 0.378906 0.257812
vt 0.439453 0.257812
vt 0.500000 0.257812
vt 0.560547 0.257812
vt 0.621094 0.257812
vt 0.681641 0.257812
vt 0.742188 0.257812
vt 0.802734 0.257812
vt 0.863281 0.257812
vt 0.923828 0.257812
vt 0.984375 0.257812
vt 0.076172 0.318359
vt 0.015625 0.318359
vt 0.136719 0.318359
vt 0.197266 0.318359
vt 0.257812 0.318359
vt 0.318359 0.318359
vt 0.378906 0.318359
vt 0.439453 0.318359
vt 0.500000 0.318359
vt 0.560547 0.318359
vt 0.621094 0.318359
vt 0.681641 0.318359
vt 0.742188 0.318359
vt 0.802734 0.318359
vt 0.863281 0.318359
vt 0.923828 0.318359
vt 0.984375 0.318359
vt 0.076172 0.378906
vt 0.015625 0.378906
vt 0.136719 0.378906
vt 0.197266 0.378906
vt 0.257812 0.378906
vt 0.318359 0.378906
vt 0.378906 0.378906
vt 0.439453 0.378906
vt 0.500000 0.378906
vt 0.560547 0.378906
vt 0.621094 0.378906
vt 0.681641 0.378906
vt 0.742188 0.378906
vt 0.802734 0.378906
vt 0.863281 0.378906
vt 0.923828 0.378906
vt 0.984375 0.378906
vt 0.076172 0.439453
vt 0.015625 0.439453
vt 0.136719 0.439453
vt 0.197266 0.439453
vt 0.257812 0.439453
vt 0.318359 0.439453
vt 0.378906 0.439453
vt 0.439453 0.439453
vt 0.500000 0.439453
vt 0.560547 0.439453
vt 0.621094 0.439453
vt 0.681641 0.439453
vt 0.742188 0.439453
vt 0.802734 0.439453
vt 0.863281 0.439453
vt 0.923828 0.439453
vt 0.984375 0.439453
vt 0.076172 0.500000
vt 0.015625 0.500000
vt 0.136719 0.500000
vt 0.197266 0.500000
vt 0.257812 0.500000
vt 0.318359 0.500000
vt 0.378906 0.500000
vt 0.439453 0.500000
vt 0.500000 0.500000
vt 0.560547 0.500000
vt 0.621094 0.500000
vt 0.681641 0.500000
vt 0.742188 0.500000
vt 0.802734 0.500000
vt 0.863281 0.500000
vt 0.923828 0.500000
vt 0.984375 0.500000
vt 0.076172 0.560547
vt 0.015625 0.560547
vt 0.136719 0.560547
vt 0.197266 0.560547
vt 0.257812 0.560547
vt 0.318359 0.560547
vt 0.378906 0.560547
vt 0.439453 0.560547
vt 0.500000 0.560547
vt 0.560547 0.560547
vt 0.621094 0.560547
vt 0.681641 0.560547
vt 0.742188 0.560547
vt 0.802734 0.560547
vt 0.863281 0.560547
vt 0.923828 0.560547
vt 0.984375 0.560547
vt 0.076172 0.621094
vt 0.015625 0.621094
vt 0.136719 0.621094
vt 0.197266 0.621094
vt 0.257812 0.621094
vt 0.318359 0.621094
vt 0.378906 0.621094
vt 0.439453 0.621094
vt 0.500000 0.621094
vt 0.560547 0.621094
vt 0.621094 0.621094
vt 0.681641 0.621094
vt 0.742188 0.621094
vt 0.802734 0.621094
vt 0.863281 0.621094
vt 0.923828 0.621094
vt 0.984375 0.621094
vt 0.076172 0.681641
vt 0.015625 0.681641
vt 0.136719 0.681641
vt 0.197266 0.681641
vt 0.257812 0.681641
vt 0.318359 0.681641
vt 0.378906 0.681641
vt 0.439453 0.681641
vt 0.500000 0.681641
vt 0.560547 0.681641
vt 0.621094 0.681641
vt 0.681641 0.681641
vt 0.742188 0.681641
vt 0.802734 0.681641
vt 0.863281 0.681641
vt 0.923828 0.681641
vt 0.984375 0.681641
vt 0.076172 0.742188
vt 0.015625 0.742188
vt 0.136719 0.742188
vt 0.197266 0.742188
vt 0.257812 0.742188
vt 0.318359 0.742188
vt 0.378906 0.742188
vt 0.439453 0.742188
vt 0.500000 0.742188
vt 0.560547 0.742188
vt 0.621094 0.742188
vt 0.681641 0.742188
vt 0.742188 0.742188
vt 0.802734 0.742188
vt 0.863281 0.742188
vt 0.923828 0.742188
vt 0.984375 0.742188
vt 0.076172 0.802734
vt 0.015625 0.802734
vt 0.136719 0.802734
vt 0.197266 0.802734
vt 0.257812 0.802734
vt 0.318359 0.802734
vt 0.378906 0.802734
vt 0.439453 0.802734
vt 0.500000 0.802734
vt 0.560547 0.802734
vt 0.621094 0.802734
vt 0.681641 0.802734
vt 0.742188 0.802734
vt 0.802734 0.802734
vt 0.863281 0.802734
vt 0.923828 0.802734
vt 0.984375 0.802734
vt 0.076172 0.863281
vt 0.015625 0.863281
vt 0.136719 0.863281
vt 0.197266 0.863281
vt 0.257812 0.863281
vt 0.318359 0.863281
vt 0.378906 0.863281
vt 0.439453 0.863281
vt 0.500000 0.863281
vt 0.560547 0.863281
vt 0.621094 0.863281
vt 0.681641 0.863281
vt 0.742188 0.863281
vt 0.802734 0.863281
vt 0.863281 0.863281
vt 0.923828 0.863281
vt 0.984375 0.863281
vt 0.076172 0.923828
vt 0.015625 0.923828
vt 0.136719 0.923828
vt 0.197266 0.923828
vt 0.257812 0.923828
vt 0.318359 0.923828
vt 0.378906 0.923828
vt 0.439453 0.923828
vt 0.500000 0.923828
vt 0.560547 0.923828
vt 0.621094 0.923828
vt 0.681641 0.923828
vt 0.742188 0.923828
vt 0.802734 0.923828
vt 0.863281 0.923828
vt 0.923828 0.923828
vt 0.984375 0.923828
vt 0.076172 0.984375
vt 0.015625 0.984375
vt 0.136719 0.984375
vt 0.197266 0.984375
vt 0.257812 0.984375
vt 0.318359 0.984375
vt 0.378906 0.984375
vt 0.439453 0.984375
vt 0.500000 0.984375
vt 0.560547 0.984375
vt 0.621094 0.984375
vt 0.681641 0.984375
vt 0.742188 0.984375
vt 0.802734 0.984375
vt 0.863281 0.984375
vt 0.923828 0.984375
vt 0.984375 0.984375
s 1
f 1/1/1 2/2/2 19/3/3
f 1/1/1 19/3/3 18/4/4
f 2/2/2 3/5/5 20/6/6
f 2/2/2 20/6/6 19/3/3
f 3/5/5 4/7/7 21/8/8
f 3/5/5 21/8/8 20/6/6
f 4/7/7 5/9/9 22/10/10
f 4/7/7 22/10/10 21/8/8
f 5/9/9 6/11/11 23/12/12
f 5/9/9 23/12/12 22/10/10
f 6/11/11 7/13/13 24/14/14
f 6/11/11 24/14/14 23/12/12
f 7/13/13 8/15/15 25/16/16
f 7/13/13 25/16/16 24/14/14
f 8/15/15 9/17/17 26/18/18
f 8/15/15 26/18/18 25/16/16
f 9/17/17 10/19/19 27/20/20
f 9/17/17 27/20/20 26/18/18
f 10/19/19 11/21/21 28/22/22
f 10/19/19 28/22/22 27/20/20
f 11/21/21 12/23/23 29/24/24
f 11/21/21 29/24/24 28/22/22
f 12/23/23 13/25/25 30/26/26
f 12/23/23 30/26/26 29/24/24
f 13/25/25 14/27/27 31/28/28
f 13/25/25 31/28/28 30/26/26
f 14/27/27 15/29/29 32/30/30
f 14/27/27 32/30/30 31/28/28
f 15/29/29 16/31/31 33/32/32
f 15/29/29 33/32/32 32/30/30
f 16/31/31 17/33/33 34/34/34
f 16/31/31 34/34/34 33/32/32
f 18/4/4 19/3/3 36/35/35
f 18/4/4 36/35/35 35/36/36
f 19/3/3 20/6/6 37/37/37
f 19/3/3 37/37/37 36/35/35
f 20/6/6 21/8/8 38/38/38
f 20/6/6 38/38/38 37/37/37
f 21/8/8 22/10/10 39/39/39
f 21/8/8 39/39/39 38/38/38
f 22/10/10 23/12/12 40/40/40
f 22/10/10 40/40/40 39/39/39
f 23/12/12 24/14/14 41/41/41
f 23/12/12 41/41/41 40/40/40
f 24/14/14 25/16/16 42/42/42
f 24/14/14 42/42/42 41/41/41
f 25/16/16 26/18/18 43/43/43
f 25/16/16 43/43/43 42/42/42
f 26/18/18 27/20/20 44/44/44
f 26/18/18 44/44/44 43/43/43
f 27/20/20 28/22/22 45/45/45
f 27/20/20 45/45/45 44/44/44
f 28/22/22 29/24/24 46/46/46
f 28/22/22 46/46/46 45/45/45
f 29/24/24 30/26/26 47/47/47
f 29/24/24 47/47/47 46/46/46
f 30/26/26 31/28/28 48/48/48
f 30/26/26 48/48/48 47/47/47
f 31/28/28 32/30/30 49/49/49
f 31/28/28 49/49/49 48/48/48
f 32/30/30 33/32/32 50/50/50
f 32/30/30 50/50/50 49/49/49
f 33/32/32 34/34/34 51/51/51
f 33/32/32 51/51/51 50/50/50
f 35/36/36 36/35/35 53/52/52
f 35/36/36 53/52/52 52/53/53
f 36/35/35 37/37/37 54/54/54
f 36/35/35 54/54/54 53/52/52
f 37/37/37 38/38/38 55/55/55
f 37/37/37 55/55/55 54/54/54
f 38/38/38 39/39/39 56/56/56
f 38/38/38 56/56/56 55/55/55
f 39/39/39 40/40/40 57/57/57
f 39/39/39 57/57/57 56/56/56
f 40/40/40 41/41/41 58/58/58
f 40/40/40 58/58/58 57/57/57
f 41/41/41 42/42/42 59/59/59
f 41/41/41 59/59/59 58/58/58
f 42/42/42 43/43/43 60/60/60
f 42/42/42 60/60/60 59/59/59
f 43/43/43 44/44/44 61/61/61
f 43/43/43 61/61/61 60/60/60
f 44/44/44 45/45/45 62/62/62
f 44/44/44 62/62/62 61/61/61
f 45/45/45 46/46/46 63/63/63
f 45/45/45 63/63/63 62/62/62
f 46/46/46 47/47/47 64/64/64
f 46/46/46 64/64/64 63/63/63
f 47/47/47 48/48/48 65/65/65
f 47/47/47 65/65/65 64/64/64
f 48/48/48 49/49/49 66/66/66
f 48/48/48 66/66/66 65/65/65
f 49/49/49 50/50/50 67/67/67
f 49/49/49 67/67/67 66/66/66
f 50/50/50 51/51/51 68/68/68
f 50/50/50 68/68/68 67/67/67
f 52/53/53 53/52/52 70/69/69
f 52/53/53 70/69/69 69/70/70
f 53/52/52 54/54/54 71/71/71
f 53/52/52 71/71/71 70/69/69
f 54/54/54 55/55/55 72/72/72
f 54/54/54 72/72/72 71/71/71
f 55/55/55 56/56/56 73/73/73
f 55/55/55 73/73/73 72/72/72
f 56/56/56 57/57/57 74/74/74
f 56/56/56 74/74/74 73/73/73
f 57/57/57 58/58/58 75/75/75
f 57/57/57 75/75/75 74/74/74
f 58/58/58 59/59/59 76/76/76
f 58/58/58 76/76/76 75/75/75
f 59/59/59 60/60/60 77/77/77
f 59/59/59 77/77/77 76/76/76
f 60/60/60 61/61/61 78/78/78
f 60/60/60 78/78/78 77/77/77
f 61/61/61 62/62/62 79/79/79
f 61/61/61 79/79/79 78/78/78
f 62/62/62 63/63/63 80/80/80
f 62/62/62 80/80/80 79/79/79
f 63/63/63 64/64/64 81/81/81
f 63/63/63 81/81/81 80/80/80
f 64/64/64 65/65/65 82/82/82
f 64/64/64 82/82/82 81/81/81
f 65/65/65 66/66/66 83/83/83
f 65/65/65 83/83/83 82/82/82
f 66/66/66 67/67/67 84/84/84
f 66/66/66 84/84/84 83/83/83
f 67/67/67 68/68/68 85/85/85
f 67/67/67 85/85/85 84/84/84
f 69/70/70 70/69/69 87/86/86
f 69/70/70 87/86/86 86/87/87
f 70/69/69 71/71/71 88/88/88
f 70/69/69 88/88/88 87/86/86
f 71/71/71 72/72/72 89/89/89
f 71/71/71 89/89/89 88/88/88
f 72/72/72 73/73/73 90/90/90
f 72/72/72 90/90/90 89/89/89
f 73/73/73 74/74/74 91/91/91
f 73/73/73 91/91/91 90/90/90
f 74/74/74 75/75/75 92/92/92
f 74/74/74 92/92/92 91/91/91
f 75/75/75 76/76/76 93/93/93
f 75/75/75 93/93/93 92/92/92
f 76/76/76 77/77/77 94/94/94
f 76/76/76 94/94/94 93/93/93
f 77/77/77 78/78/78 95/95/95
f 77/77/77 95/95/95 94/94/94
f 78/78/78 79/79/79 96/96/96
f 78/78/78 96/96/96 95/95/95
f 79/79/79 80/80/80 97/97/97
f 79/79/79 97/97/97 96/96/96
f 80/80/80 81/81/81 98/98/98
f 80/80/80 98/98/98 97/97/97
f 81/81/81 82/82/82 99/99/99
f 81/81/81 99/99/99 98/98/98
f 82/82/82 83/83/83 100/100/100
f 82/82/82 100/100/100 99/99/99
f 83/83/83 84/84/84 101/101/101
f 83/83/83 101/101/101 100/100/100
f 84/84/84 85/85/85 102/102/102
f 84/84/84 102/102/102 101/101/101
f 86/87/87 87/86/86 104/103/103
f 86/87/87 104/103/103 103/104/104
f 87/86/86 88/88/88 105/105/105
f 87/86/86 105/105/105 104/103/103
f 88/88/88 89/89/89 106/106/106
f 88/88/88 106/106/106 105/105/105
f 89/89/89 90/90/90 107/107/107
f 89/89/89 107/107/107 106/106/106
f 90/90/90 91/91/91 108/108/108
f 90/90/90 108/108/108 107/107/107
f 91/91/91 92/92/92 109/109/109
f 91/91/91 109/109/109 108/108/108
f 92/92/92 93/93/93 110/110/110
f 92/92/92 110/110/110 109/109/109
f 93/93/93 94/94/94 111/111/111
f 93/93/93 111/111/111 110/110/110
f 94/94/94 95/95/95 112/112/112
f 94/94/94 112/112/112 111/111/111
f 95/95/95 96/96/96 113/113/113
f 95/95/95 113/113/113 112/112/112
f 96/96/96 97/97/97 114/114/114
f 96/96/96 114/114/114 113/113/113
f 97/97/97 98/98/98 115/115/115
f 97/97/97 115/115/115 114/114/114
f 98/98/98 99/99/99 116/116/116
f 98/98/98 116/116/116 115/115/115
f 99/99/99 100/100/100 117/117/117
f 99/99/99 117/117/117 116/116/116
f 100/100/100 101/101/101 118/118/118
f 100/100/100 118/118/118 117/117/117
f 101/101/101 102/102/102 119/119/119
f 101/101/101 119/119/119 118/118/118
f 103/104/104 104/103/103 121/120/120
f 103/104/104 121/120/120 120/121/121
f 104/103/103 105/105/105 122/122/122
f 104/103/103 122/122/122 121/120/120
f 105/105/105 106/106/106 123/123/123
f 105/105/105 123/123/123 122/122/122
f 106/106/106 107/107/107 124/124/124
f 106/106/106 124/124/124 123/123/123
f 107/107/107 108/108/108 125/125/125
f 107/107/107 125/125/125 124/124/124
f 108/108/108 109/109/109 126/126/126
f 108/108/108 126/126/126 125/125/125
f 109/109/109 110/110/110 127/127/127
f 109/109/109 127/127/127 126/126/126
f 110/110/110 111/111/111 128/128/128
f 110/110/110 128/128/128 127/127/127
f 111/111/111 112/112/112 129/129/129
f 111/111/111 129/129/129 128/128/128
f 112/112/112 113/113/113 130/130/130
f 112/112/112 130/130/130 129/129/129
f 113/113/113 114/114/114 131/131/131
f 113/113/113 131/131/131 130/130/130
f 114/114/114 115/115/115 132/132/132
f 114/114/114 132/132/132 131/131/131
f 115/115/115 116/116/116 133/133/133
f 115/115/115 133/133/133 132/132/132
f 116/116/116 117/117/117 134/134/134
f 116/116/116 134/134/134 133/133/133
f 117/117/117 118/118/118 135/135/135
f 117/117/117 135/135/135 134/134/134
f 118/118/118 119/119/119 136/136/136
f 118/118/118 136/136/136 135/135/135
f 120/121/121 121/120/120 138/137/137
f 120/121/121 138/137/137 137/138/138
f 121/120/120 122/122/122 139/139/139
f 121/120/120 139/139/139 138/137/137
f 122/122/122 123/123/123 140/140/140
f 122/122/122 140/140/140 139/139/139
f 123/123/123 124/124/124 141/141/141
f 123/123/123 141/141/141 140/140/140
f 124/124/124 125/125/125 142/142/142
f 124/124/124 142/142/142 141/141/141
f 125/125/125 126/126/126 143/143/143
f 125/125/125 143/143/143 142/142/142
f 126/126/126 127/127/127 144/144/144
f 126/126/126 144/144/144 143/143/143
f 127/127/127 128/128/128 145/145/145
f 127/127/127 145/145/145 144/144/144
f 128/128/128 129/129/129 146/146/146
f 128/128/128 146/146/146 145/145/145
f 129/129/129 130/130/130 147/147/147
f 129/129/129 147/147/147 146/146/146
f 130/130/130 131/131/131 148/148/148
f 130/130/130 148/148/148 147/147/147
f 131/131/131 132/132/132 149/149/149
f 131/131/131 149/149/149 148/148/148
f 132/132/132 133/133/133 150/150/150
f 132/132/132 150/150/150 149/149/149
f 133/133/133 134/134/134 151/151/151
f 133/133/133 151/151/151 150/150/150
f 134/134/134 135/135/135 152/152/152
f 134/134/134 152/152/152 151/151/151
f 135/135/135 136/136/136 153/153/153
f 135/135/135 153/153/153 152/152/152
f 137/138/138 138/137/137 155/154/154
f 137/138/138 155/154/154 154/155/155
f 138/137/137 139/139/139 156/156/156
f 138/137/137 156/156/156 155/154/154
f 139/139/139 140/140/140 157/157/157
f 139/139/139 157/157/157 156/156/156
f 140/140/140 141/141/141 158/158/158
f 140/140/140 158/158/158 157/157/157
f 141/141/141 142/142/142 159/159/159
f 141/141/141 159/159/159 158/158/158
f 142/142/142 143/143/143 160/160/160
f 142/142/142 160/160/160 159/159/159
f 143/143/143 144/144/144 161/161/161
f 143/143/143 161/161/161 160/160/160
f 144/144/144 145/145/145 162/162/162
f 144/144/144 162/162/162 161/161/161
f 145/145/145 146/146/146 163/163/163
f 145/145/145 163/163/163 162/162/162
f 146/146/146 147/147/147 164/164/164
f 146/146/146 164/164/164 163/163/163
f 147/147/147 148/148/148 165/165/165
f 147/147/147 165/165/165 164/164/164
f 148/148/148 149/149/149 166/166/166
f 148/148/148 166/166/166 165/165/165
f 149/149/149 150/150/150 167/167/167
f 149/149/149 167/167/167 166/166/166
f 150/150/150 151/151/151 168/168/168
f 150/150/150 168/168/168 167/167/167
f 151/151/151 152/152/152 169/169/169
f 151/151/151 169/169/169 168/168/168
f 152/152/152 153/153/153 170/170/170
f 152/152/152 170/170/170 169/169/169
f 154/155/155 155/154/154 172/171/171
f 154/155/155 172/171/171 171/172/172
f 155/154/154 156/156/156 173/173/173
f 155/154/154 173/173/173 172/171/171
f 156/156/156 157/157/157 174/174/174
f 156/156/156 174/174/174 173/173/173
f 157/157/157 158/158/158 175/175/175
f 157/157/157 175/175/175 174/174/174
f 158/158/158 159/159/159 176/176/176
f 158/158/158 176/176/176 175/175/175
f 159/159/159 160/160/160 177/177/177
f 159/159/159 177/177/177 176/176/176
f 160/160/160 161/161/161 178/178/178
f 160/160/160 178/178/178 177/177/177
f 161/161/161 162/162/162 179/179/179
f 161/161/161 179/179/179 178/178/178
f 162/162/162 163/163/163 180/180/180
f 162/162/162 180/180/180 179/179/179
f 163/163/163 164/164/164 181/181/181
f 163/163/163 181/181/181 180/180/180
f 164/164/164 165/165/165 182/182/182
f 164/164/164 182/182/182 181/181/181
f 165/165/165 166/166/166 183/183/183
f 165/165/165 183/183/183 182/182/182
f 166/166/166 167/167/167 184/184/184
f 166/166/166 184/184/184 183/183/183
f 167/167/167 168/168/168 185/185/185
f 167/167/167 185/185/185 184/184/184
f 168/168/168 169/169/169 186/186/186
f 168/168/168 186/186/186 185/185/185
f 169/169/169 170/170/170 187/187/187
f 169/169/169 187/187/187 186/186/186
f 171/172/172 172/171/171 189/188/188
f 171/172/172 189/188/188 188/189/189
f 172/171/171 173/173/173 190/190/190
f 172/171/171 190/190/190 189/188/188
f 173/173/173 174/174/174 191/191/191
f 173/173/173 191/191/191 190/190/190
f 174/174/174 175/175/175 192/192/192
f 174/174/174 192/192/192 191/191/191
f 175/175/175 176/176/176 193/193/193
f 175/175/175 193/193/193 192/192/192
f 176/176/176 177/177/177 194/194/194
f 176/176/176 194/194/194 193/193/193
f 177/177/177 178/178/178 195/195/195
f 177/177/177 195/195/195 194/194/194
f 178/178/178 179/179/179 196/196/196
f 178/178/178 196/196/196 195/195/195
f 179/179/179 180/180/180 197/197/197
f 179/179/179 197/197/197 196/196/196
f 180/180/180 181/181/181 198/198/198
f 180/180/180 198/198/198 197/197/197
f 181/181/181 182/182/182 199/199/199
f 181/181/181 199/199/199 198/198/198
f 182/182/182 183/183/183 200/200/200
f 182/182/182 200/200/200 199/199/199
f 183/183/183 184/184/184 201/201/201
f 183/183/183 201/201/201 200/200/200
f 184/184/184 185/185/185 202/202/202
f 184/184/184 202/202/202 201/201/201
f 185/185/185 186/186/186 203/203/203
f 185/185/185 203/203/203 202/202/202
f 186/186/186 187/187/187 204/204/204
f 186/186/186 204/204/204 203/203/203
f 188/189/189 189/188/188 206/205/205
f 188/189/189 206/205/205 205/206/206
f 189/188/188 190/190/190 207/207/207
f 189/188/188 207/207/207 206/205/205
f 190/190/190 191/191/191 208/208/208
f 190/190/190 208/208/208 207/207/207
f 191/191/191 192/192/192 209/209/209
f 191/191/191 209/209/209 208/208/208
f 192/192/192 193/193/193 210/210/210
f 192/192/192 210/210/210 209/209/209
f 193/193/193 194/194/194 211/211/211
f 193/193/193 211/211/211 210/210/210
f 194/194/194 195/195/195 212/212/212
f 194/194/194 212/212/212 211/211/211
f 195/195/195 196/196/196 213/213/213
f 195/195/195 213/213/213 212/212/212
f 196/196/196 197/197/197 214/214/214
f 196/196/196 214/214/214 213/213/213
f 197/197/197 198/198/198 215/215/215
f 197/197/197 215/215/215 214/214/214
f 198/198/198 199/199/199 216/216/216
f 198/198/198 216/216/216 215/215/215
f 199/199/199 200/200/200 217/217/217
f 199/199/199 217/217/217 216/216/216
f 200/200/200 201/201/201 218/218/218
f 200/200/200 218/218/218 217/217/217
f 201/201/201 202/202/202 219/219/219
f 201/201/201 219/219/219 218/218/218
f 202/202/202 203/203/203 220/220/220
f 202/202/202 220/220/220 219/219/219
f 203/203/203 204/204/204 221/221/221
f 203/203/203 221/221/221 220/220/220
f 205/206/206 206/205/205 223/222/222
f 205/206/206 223/222/222 222/223/223
f 206/205/205 207/207/207 224/224/224
f 206/205/205 224/224/224 223/222/222
f 207/207/207 208/208/208 225/225/225
f 207/207/207 225/225/225 224/224/224
f 208/208/208 209/209/209 226/226/226
f 208/208/208 226/226/226 225/225/225
f 209/209/209 210/210/210 227/227/227
f 209/209/209 227/227/227 226/226/226
f 210/210/210 211/211/211 228/228/228
f 210/210/210 228/228/228 227/227/227
f 211/211/211 212/212/212 229/229/229
f 211/211/211 229/229/229 228/228/228
f 212/212/212 213/213/213 230/230/230
f 212/212/212 230/230/230 229/229/229
f 213/213/213 214/214/214 231/231/231
f 213/213/213 231/231/231 230/230/230
f 214/214/214 215/215/215 232/232/232
f 214/214/214 232/232/232 231/231/231
f 215/215/215 216/216/216 233/233/233
f 215/215/215 233/233/233 232/232/232
f 216/216/216 217/217/217 234/234/234
f 216/216/216 234/234/234 233/233/233
f 217/217/217 218/218/218 235/235/235
f 217/217/217 235/235/235 234/234/234
f 218/218/218 219/219/219 236/236/236
f 218/218/218 236/236/236 235/235/235
f 219/219/219 220/220/220 237/237/237
f 219/219/219 237/237/237 236/236/236
f 220/220/220 221/221/221 238/238/238
f 220/220/220 238/238/238 237/237/237
f 222/223/223 223/222/222 240/239/239
f 222/223/223 240/239/239 239/240/240
f 223/222/222 224/224/224 241/241/241
f 223/222/222 241/241/241 240/239/239
f 224/224/224 225/225/225 242/242/242
f 224/224/224 242/242/242 241/241/241
f 225/225/225 226/226/226 243/243/243
f 225/225/225 243/243/243 242/242/242
f 226/226/226 227/227/227 244/244/244
f 226/226/226 244/244/244 243/243/243
f 227/227/227 228/228/228 245/245/245
f 227/227/227 245/245/245 244/244/244
f 228/228/228 229/229/229 246/246/246
f 228/228/228 246/246/246 245/245/245
f 229/229/229 230/230/230 247/247/247
f 229/229/229 247/247/247 246/246/246
f 230/230/230 231/231/231 248/248/248
f 230/230/230 248/248/248 247/247/247
f 231/231/231 232/232/232 249/249/249
f 231/231/231 249/249/249 248/248/248
f 232/232/232 233/233/233 250/250/250
f 232/232/232 250/250/250 249/249/249
f 233/233/233 234/234/234 251/251/251
f 233/233/233 251/251/251 250/250/250
f 234/234/234 235/235/235 252/252/252
f 234/234/234 252/252/252 251/251/251
f 235/235/235 236/236/236 253/253/253
f 235/235/235 253/253/253 252/252/252
f 236/236/236 237/237/237 254/254/254
f 236/236/236 254/254/254 253/253/253
f 237/237/237 238/238/238 255/255/255
f 237/237/237 255/255/255 254/254/254
f 239/240/240 240/239/239 257/256/256
f 239/240/240 257/256/256 256/257/257
f 240/239/239 241/241/241 258/258/258
f 240/239/239 258/258/258 257/256/256
f 241/241/241 242/242/242 259/259/259
f 241/241/241 259/259/259 258/258/258
f 242/242/242 243/243/243 260/260/260
f 242/242/242 260/260/260 259/259/259
f 243/243/243 244/244/244 261/261/261
f 243/243/243 261/261/261 260/260/260
f 244/244/244 245/245/245 262/262/262
f 244/244/244 262/262/262 261/261/261
f 245/245/245 246/246/246 263/263/263
f 245/245/245 263/263/263 262/262/262
f 246/246/246 247/247/247 264/264/264
f 246/246/246 264/264/264 263/263/263
f 247/247/247 248/248/248 265/265/265
f 247/247/247 265/265/265 264/264/264
f 248/248/248 249/249/249 266/266/266
f 248/248/248 266/266/266 265/265/265
f 249/249/249 250/250/250 267/267/267
f 249/249/249 267/267/267 266/266/266
f 250/250/250 251/251/251 268/268/268
f 250/250/250 268/268/268 267/267/267
f 251/251/251 252/252/252 269/269/269
f 251/251/251 269/269/269 268/268/268
f 252/252/252 253/253/253 270/270/270
f 252/252/252 270/270/270 269/269/269
f 253/253/253 254/254/254 271/271/271
f 253/253/253 271/271/271 270/270/270
f 254/254/254 255/255/255 272/272/272
f 254/254/254 272/272/272 271/271/271
f 256/257/257 257/256/256 274/273/273
f 256/257/257 274/273/273 273/274/274
f 257/256/256 258/258/258 275/275/275
f 257/256/256 275/275/275 274/273/273
f 258/258/258 259/259/259 276/276/276
f 258/258/258 276/276/276 275/275/275
f 259/259/259 260/260/260 277/277/277
f 259/259/259 277/277/277 276/276/276
f 260/260/260 261/261/261 278/278/278
f 260/260/260 278/278/278 277/277/277
f 261/261/261 262/262/262 279/279/279
f 261/261/261 279/279/279 278/278/278
f 262/262/262 263/263/263 280/280/280
f 262/262/262 280/280/280 279/279/279
f 263/263/263 264/264/264 281/281/281
f 263/263/263 281/281/281 280/280/280
f 264/264/264 265/265/265 282/282/282
f 264/264/264 282/282/282 281/281/281
f 265/265/265 266/266/266 283/283/283
f 265/265/265 283/283/283 282/282/282
f 266/266/266 267/267/267 284/284/284
f 266/266/266 284/284/284 283/283/283
f 267/267/267 268/268/268 285/285/285
f 267/267/267 285/285/285 284/284/284
f 268/268/268 269/269/269 286/286/286
f 268/268/268 286/286/286 285/285/285
f 269/269/269 270/270/270 287/287/287
f 269/269/269 287/287/287 286/286/286
f 270/270/270 271/271/271 288/288/288
f 270/270/270 288/288/288 287/287/287
f 271/271/271 272/272/272 289/289/289
f 271/271/271 289/289/289 288/288/288
