mtllib terrain_mid_00_07.mtl
usemtl terrain_mid_00_07
# Blender 5.1.1
# www.blender.org
o terrain_mid_00_07
v -160.000000 -160.000000 38.756599
v -140.000000 -160.000000 34.858936
v -120.000000 -160.000000 29.513248
v -100.000000 -160.000000 25.095076
v -80.000000 -160.000000 21.985226
v -60.000000 -160.000000 19.126970
v -40.000000 -160.000000 15.651127
v -20.000000 -160.000000 11.419065
v 0.000000 -160.000000 6.024197
v 20.000000 -160.000000 0.279921
v 40.000000 -160.000000 -4.861633
v 60.000000 -160.000000 -9.713870
v 80.000000 -160.000000 -14.575965
v 100.000000 -160.000000 -19.579372
v 120.000000 -160.000000 -24.672390
v 140.000000 -160.000000 -29.453609
v 160.000000 -160.000000 -33.423153
v -160.000000 -140.000000 41.785824
v -140.000000 -140.000000 38.331123
v -120.000000 -140.000000 33.160748
v -100.000000 -140.000000 28.515072
v -80.000000 -140.000000 24.560429
v -60.000000 -140.000000 20.596636
v -40.000000 -140.000000 16.081879
v -20.000000 -140.000000 10.735172
v 0.000000 -140.000000 3.975312
v 20.000000 -140.000000 -3.020599
v 40.000000 -140.000000 -9.257294
v 60.000000 -140.000000 -14.631873
v 80.000000 -140.000000 -19.705553
v 100.000000 -140.000000 -24.714312
v 120.000000 -140.000000 -29.502464
v 140.000000 -140.000000 -33.800110
v 160.000000 -140.000000 -37.766602
v -160.000000 -120.000000 43.952042
v -140.000000 -120.000000 40.257397
v -120.000000 -120.000000 35.239971
v -100.000000 -120.000000 30.441031
v -80.000000 -120.000000 25.933733
v -60.000000 -120.000000 21.208513
v -40.000000 -120.000000 15.953033
v -20.000000 -120.000000 9.851349
v 0.000000 -120.000000 2.513618
v 20.000000 -120.000000 -5.138214
v 40.000000 -120.000000 -12.052874
v 60.000000 -120.000000 -18.263659
v 80.000000 -120.000000 -24.413031
v 100.000000 -120.000000 -29.785654
v 120.000000 -120.000000 -34.225815
v 140.000000 -120.000000 -38.033825
v 160.000000 -120.000000 -41.973263
v -160.000000 -100.000000 44.989258
v -140.000000 -100.000000 40.983868
v -120.000000 -100.000000 35.919998
v -100.000000 -100.000000 30.813080
v -80.000000 -100.000000 25.810738
v -60.000000 -100.000000 20.467861
v -40.000000 -100.000000 14.742558
v -20.000000 -100.000000 8.276744
v 0.000000 -100.000000 1.088104
v 20.000000 -100.000000 -6.393307
v 40.000000 -100.000000 -13.579786
v 60.000000 -100.000000 -20.464697
v 80.000000 -100.000000 -27.548641
v 100.000000 -100.000000 -33.568314
v 120.000000 -100.000000 -38.273083
v 140.000000 -100.000000 -42.274284
v 160.000000 -100.000000 -46.374157
v -160.000000 -80.000000 45.650143
v -140.000000 -80.000000 41.043072
v -120.000000 -80.000000 35.456753
v -100.000000 -80.000000 29.732735
v -80.000000 -80.000000 23.964352
v -60.000000 -80.000000 17.977213
v -40.000000 -80.000000 11.749366
v -20.000000 -80.000000 5.433974
v 0.000000 -80.000000 -0.983073
v 20.000000 -80.000000 -7.593122
v 40.000000 -80.000000 -14.482568
v 60.000000 -80.000000 -21.369207
v 80.000000 -80.000000 -28.709150
v 100.000000 -80.000000 -35.306438
v 120.000000 -80.000000 -41.224312
v 140.000000 -80.000000 -46.484276
v 160.000000 -80.000000 -51.036285
v -160.000000 -60.000000 46.157310
v -140.000000 -60.000000 40.434490
v -120.000000 -60.000000 34.111958
v -100.000000 -60.000000 27.520987
v -80.000000 -60.000000 20.778791
v -60.000000 -60.000000 13.894280
v -40.000000 -60.000000 7.238458
v -20.000000 -60.000000 1.098457
v 0.000000 -60.000000 -4.751560
v 20.000000 -60.000000 -10.790127
v 40.000000 -60.000000 -17.260101
v 60.000000 -60.000000 -23.928623
v 80.000000 -60.000000 -30.950178
v 100.000000 -60.000000 -37.316284
v 120.000000 -60.000000 -43.487797
v 140.000000 -60.000000 -49.720505
v 160.000000 -60.000000 -55.371704
v -160.000000 -40.000000 46.613243
v -140.000000 -40.000000 39.589371
v -120.000000 -40.000000 32.478512
v -100.000000 -40.000000 25.114021
v -80.000000 -40.000000 17.244656
v -60.000000 -40.000000 9.498027
v -40.000000 -40.000000 2.289700
v -20.000000 -40.000000 -3.865990
v 0.000000 -40.000000 -9.691762
v 20.000000 -40.000000 -15.664392
v 40.000000 -40.000000 -21.841604
v 60.000000 -40.000000 -28.206051
v 80.000000 -40.000000 -34.700966
v 100.000000 -40.000000 -40.320534
v 120.000000 -40.000000 -46.135437
v 140.000000 -40.000000 -52.702229
v 160.000000 -40.000000 -59.199234
v -160.000000 -20.000000 48.145412
v -140.000000 -20.000000 40.602287
v -120.000000 -20.000000 32.898060
v -100.000000 -20.000000 24.847595
v -80.000000 -20.000000 16.198870
v -60.000000 -20.000000 7.637648
v -40.000000 -20.000000 -0.271026
v -20.000000 -20.000000 -7.113688
v 0.000000 -20.000000 -13.721554
v 20.000000 -20.000000 -20.316294
v 40.000000 -20.000000 -26.815081
v 60.000000 -20.000000 -33.014709
v 80.000000 -20.000000 -38.992737
v 100.000000 -20.000000 -44.386204
v 120.000000 -20.000000 -49.954895
v 140.000000 -20.000000 -55.992786
v 160.000000 -20.000000 -61.890160
v -160.000000 0.000000 50.036327
v -140.000000 0.000000 42.523399
v -120.000000 0.000000 34.627151
v -100.000000 0.000000 26.332655
v -80.000000 0.000000 17.444193
v -60.000000 0.000000 8.640903
v -40.000000 0.000000 0.362227
v -20.000000 0.000000 -7.098785
v 0.000000 0.000000 -14.337660
v 20.000000 0.000000 -21.295597
v 40.000000 0.000000 -27.796946
v 60.000000 0.000000 -33.781860
v 80.000000 0.000000 -39.567459
v 100.000000 0.000000 -44.661846
v 120.000000 0.000000 -49.699646
v 140.000000 0.000000 -55.079189
v 160.000000 0.000000 -60.372036
v -160.000000 20.000000 51.298748
v -140.000000 20.000000 44.850723
v -120.000000 20.000000 37.100418
v -100.000000 20.000000 29.155491
v -80.000000 20.000000 20.809200
v -60.000000 20.000000 12.239343
v -40.000000 20.000000 3.976668
v -20.000000 20.000000 -3.715681
v 0.000000 20.000000 -11.169684
v 20.000000 20.000000 -18.051321
v 40.000000 20.000000 -24.174696
v 60.000000 20.000000 -30.037529
v 80.000000 20.000000 -35.947910
v 100.000000 20.000000 -40.868477
v 120.000000 20.000000 -45.499191
v 140.000000 20.000000 -50.504761
v 160.000000 20.000000 -55.696304
v -160.000000 40.000000 52.351669
v -140.000000 40.000000 45.731621
v -120.000000 40.000000 38.426926
v -100.000000 40.000000 31.158499
v -80.000000 40.000000 23.611185
v -60.000000 40.000000 15.509033
v -40.000000 40.000000 7.387163
v -20.000000 40.000000 -0.222171
v 0.000000 40.000000 -7.014781
v 20.000000 40.000000 -12.940796
v 40.000000 40.000000 -18.626211
v 60.000000 40.000000 -24.370337
v 80.000000 40.000000 -30.328396
v 100.000000 40.000000 -35.184021
v 120.000000 40.000000 -39.799168
v 140.000000 40.000000 -44.999775
v 160.000000 40.000000 -50.365162
v -160.000000 60.000000 51.789391
v -140.000000 60.000000 45.693981
v -120.000000 60.000000 38.934242
v -100.000000 60.000000 32.423279
v -80.000000 60.000000 25.863132
v -60.000000 60.000000 18.672869
v -40.000000 60.000000 11.167111
v -20.000000 60.000000 4.088033
v 0.000000 60.000000 -1.869256
v 20.000000 60.000000 -7.143955
v 40.000000 60.000000 -12.765323
v 60.000000 60.000000 -18.557987
v 80.000000 60.000000 -24.350704
v 100.000000 60.000000 -29.322584
v 120.000000 60.000000 -34.333744
v 140.000000 60.000000 -39.992935
v 160.000000 60.000000 -45.519699
v -160.000000 80.000000 50.688709
v -140.000000 80.000000 44.796017
v -120.000000 80.000000 38.717979
v -100.000000 80.000000 33.007416
v -80.000000 80.000000 27.393244
v -60.000000 80.000000 21.562069
v -40.000000 80.000000 15.485332
v -20.000000 80.000000 9.609728
v 0.000000 80.000000 4.171153
v 20.000000 80.000000 -1.196241
v 40.000000 80.000000 -7.242215
v 60.000000 80.000000 -13.238532
v 80.000000 80.000000 -18.838705
v 100.000000 80.000000 -24.047216
v 120.000000 80.000000 -29.678524
v 140.000000 80.000000 -35.765694
v 160.000000 80.000000 -41.407536
v -160.000000 100.000000 48.425217
v -140.000000 100.000000 43.097137
v -120.000000 100.000000 37.865486
v -100.000000 100.000000 33.048832
v -80.000000 100.000000 28.354517
v -60.000000 100.000000 23.969452
v -40.000000 100.000000 19.159784
v -20.000000 100.000000 14.270501
v 0.000000 100.000000 9.318516
v 20.000000 100.000000 3.980665
v 40.000000 100.000000 -2.082153
v 60.000000 100.000000 -8.227651
v 80.000000 100.000000 -14.208394
v 100.000000 100.000000 -19.767941
v 120.000000 100.000000 -25.596100
v 140.000000 100.000000 -31.780186
v 160.000000 100.000000 -37.595963
v -160.000000 120.000000 45.774117
v -140.000000 120.000000 40.913040
v -120.000000 120.000000 36.420994
v -100.000000 120.000000 32.339256
v -80.000000 120.000000 28.545532
v -60.000000 120.000000 25.134180
v -40.000000 120.000000 21.522366
v -20.000000 120.000000 17.447809
v 0.000000 120.000000 13.084754
v 20.000000 120.000000 7.939446
v 40.000000 120.000000 2.144715
v 60.000000 120.000000 -4.091699
v 80.000000 120.000000 -10.467326
v 100.000000 120.000000 -16.648041
v 120.000000 120.000000 -22.821533
v 140.000000 120.000000 -28.997063
v 160.000000 120.000000 -34.892990
v -160.000000 140.000000 42.582958
v -140.000000 140.000000 38.140259
v -120.000000 140.000000 33.879749
v -100.000000 140.000000 30.249752
v -80.000000 140.000000 27.160200
v -60.000000 140.000000 24.330410
v -40.000000 140.000000 21.464865
v -20.000000 140.000000 18.245941
v 0.000000 140.000000 14.593678
v 20.000000 140.000000 9.993127
v 40.000000 140.000000 4.694316
v 60.000000 140.000000 -1.504594
v 80.000000 140.000000 -8.092017
v 100.000000 140.000000 -14.930179
v 120.000000 140.000000 -21.654554
v 140.000000 140.000000 -27.908787
v 160.000000 140.000000 -33.753311
v -160.000000 160.000000 39.308128
v -140.000000 160.000000 34.725945
v -120.000000 160.000000 30.213100
v -100.000000 160.000000 26.972248
v -80.000000 160.000000 23.731394
v -60.000000 160.000000 21.474552
v -40.000000 160.000000 19.217709
v -20.000000 160.000000 16.280956
v 0.000000 160.000000 13.344205
v 20.000000 160.000000 8.685307
v 40.000000 160.000000 4.026408
v 60.000000 160.000000 -2.014852
v 80.000000 160.000000 -8.056111
v 100.000000 160.000000 -14.816710
v 120.000000 160.000000 -21.577307
v 140.000000 160.000000 -27.671165
v 160.000000 160.000000 -33.765026
vn 0.1870 -0.2049 0.9607
vn 0.2392 -0.2137 0.9472
vn 0.2326 -0.1301 0.9638
vn 0.1759 -0.1214 0.9769
vn 0.2316 -0.2153 0.9487
vn 0.2361 -0.1377 0.9619
vn 0.1813 -0.1976 0.9634
vn 0.2084 -0.1296 0.9694
vn 0.1459 -0.1489 0.9780
vn 0.1932 -0.0965 0.9764
vn 0.1558 -0.0866 0.9840
vn 0.2071 -0.0509 0.9770
vn 0.1892 -0.0179 0.9818
vn 0.2394 -0.0073 0.9709
vn 0.2338 0.0422 0.9714
vn 0.2895 0.0375 0.9565
vn 0.2666 0.1131 0.9572
vn 0.3241 0.0827 0.9424
vn 0.2587 0.1716 0.9506
vn 0.3115 0.1275 0.9417
vn 0.2370 0.2090 0.9487
vn 0.2747 0.1701 0.9464
vn 0.2298 0.2271 0.9464
vn 0.2475 0.2025 0.9475
vn 0.2329 0.2324 0.9443
vn 0.2378 0.2320 0.9432
vn 0.2382 0.2294 0.9437
vn 0.2309 0.2405 0.9428
vn 0.2339 0.2180 0.9475
vn 0.2157 0.2268 0.9497
vn 0.2093 0.2034 0.9565
vn 0.1980 0.2056 0.9584
vn 0.1602 0.2047 0.9656
vn 0.1730 0.2059 0.9632
vn 0.2270 -0.0644 0.9717
vn 0.1710 -0.0626 0.9833
vn 0.2378 -0.0668 0.9690
vn 0.2263 -0.0558 0.9725
vn 0.2249 -0.0304 0.9739
vn 0.2421 0.0031 0.9702
vn 0.2730 0.0322 0.9615
vn 0.3180 0.0582 0.9463
vn 0.3501 0.0674 0.9343
vn 0.3411 0.0790 0.9367
vn 0.3101 0.1022 0.9452
vn 0.2924 0.1380 0.9463
vn 0.2720 0.1851 0.9443
vn 0.2330 0.2102 0.9495
vn 0.1975 0.2100 0.9576
vn 0.1862 0.2036 0.9612
vn 0.1880 0.2066 0.9602
vn 0.2296 -0.0191 0.9731
vn 0.1768 -0.0328 0.9837
vn 0.2464 -0.0052 0.9692
vn 0.2450 0.0171 0.9694
vn 0.2501 0.0476 0.9671
vn 0.2658 0.0775 0.9609
vn 0.2901 0.1000 0.9518
vn 0.3213 0.1039 0.9413
vn 0.3432 0.0818 0.9357
vn 0.3437 0.0575 0.9373
vn 0.3313 0.0572 0.9418
vn 0.3288 0.0731 0.9416
vn 0.3097 0.1015 0.9454
vn 0.2567 0.1322 0.9574
vn 0.2096 0.1685 0.9632
vn 0.1944 0.2028 0.9597
vn 0.1969 0.2166 0.9562
vn 0.2530 0.0133 0.9674
vn 0.2052 -0.0221 0.9785
vn 0.2719 0.0435 0.9613
vn 0.2753 0.0789 0.9581
vn 0.2801 0.1199 0.9524
vn 0.2885 0.1553 0.9448
vn 0.2945 0.1762 0.9393
vn 0.2990 0.1685 0.9393
vn 0.3067 0.1375 0.9418
vn 0.3181 0.1036 0.9424
vn 0.3249 0.0870 0.9418
vn 0.3340 0.0813 0.9391
vn 0.3280 0.0800 0.9413
vn 0.2974 0.0890 0.9506
vn 0.2671 0.1246 0.9556
vn 0.2344 0.1779 0.9557
vn 0.2064 0.2147 0.9546
vn 0.2905 0.0347 0.9562
vn 0.2474 -0.0136 0.9688
vn 0.3065 0.0707 0.9492
vn 0.3144 0.1089 0.9430
vn 0.3184 0.1570 0.9349
vn 0.3144 0.1969 0.9287
vn 0.2972 0.2197 0.9292
vn 0.2803 0.2174 0.9350
vn 0.2789 0.2043 0.9383
vn 0.2931 0.1891 0.9372
vn 0.3075 0.1722 0.9358
vn 0.3197 0.1596 0.9340
vn 0.3142 0.1406 0.9389
vn 0.2969 0.1187 0.9475
vn 0.2942 0.1165 0.9486
vn 0.2816 0.1473 0.9482
vn 0.2435 0.1939 0.9503
vn 0.3304 -0.0040 0.9438
vn 0.2970 -0.0432 0.9539
vn 0.3401 0.0285 0.9400
vn 0.3554 0.0624 0.9326
vn 0.3616 0.1060 0.9263
vn 0.3465 0.1449 0.9268
vn 0.3120 0.1753 0.9338
vn 0.2815 0.1930 0.9399
vn 0.2766 0.2103 0.9377
vn 0.2834 0.2222 0.9329
vn 0.2917 0.2222 0.9303
vn 0.2991 0.2114 0.9305
vn 0.2847 0.1890 0.9398
vn 0.2710 0.1676 0.9479
vn 0.2922 0.1526 0.9441
vn 0.3071 0.1474 0.9402
vn 0.2739 0.1547 0.9492
vn 0.3539 -0.0684 0.9328
vn 0.3178 -0.0870 0.9442
vn 0.3660 -0.0499 0.9293
vn 0.3851 -0.0281 0.9224
vn 0.3952 -0.0046 0.9186
vn 0.3806 0.0198 0.9245
vn 0.3457 0.0452 0.9373
vn 0.3177 0.0762 0.9451
vn 0.3115 0.1096 0.9439
vn 0.3083 0.1326 0.9420
vn 0.2996 0.1405 0.9437
vn 0.2887 0.1322 0.9483
vn 0.2718 0.1162 0.9553
vn 0.2629 0.1041 0.9592
vn 0.2776 0.0853 0.9569
vn 0.2855 0.0568 0.9567
vn 0.2614 0.0283 0.9648
vn 0.3604 -0.0985 0.9276
vn 0.3236 -0.0988 0.9410
vn 0.3734 -0.0969 0.9226
vn 0.3928 -0.0985 0.9144
vn 0.4023 -0.1048 0.9095
vn 0.3906 -0.1052 0.9145
vn 0.3645 -0.0983 0.9260
vn 0.3439 -0.0795 0.9357
vn 0.3339 -0.0600 0.9407
vn 0.3184 -0.0536 0.9464
vn 0.2974 -0.0629 0.9527
vn 0.2816 -0.0712 0.9569
vn 0.2617 -0.0731 0.9624
vn 0.2447 -0.0849 0.9659
vn 0.2506 -0.1071 0.9621
vn 0.2556 -0.1314 0.9578
vn 0.2400 -0.1485 0.9593
vn 0.3536 -0.0748 0.9324
vn 0.3168 -0.0638 0.9463
vn 0.3639 -0.0881 0.9273
vn 0.3748 -0.1111 0.9204
vn 0.3857 -0.1405 0.9119
vn 0.3833 -0.1561 0.9103
vn 0.3657 -0.1610 0.9167
vn 0.3496 -0.1587 0.9233
vn 0.3325 -0.1698 0.9277
vn 0.3032 -0.1949 0.9328
vn 0.2804 -0.2145 0.9356
vn 0.2755 -0.2201 0.9358
vn 0.2551 -0.2176 0.9421
vn 0.2263 -0.2246 0.9478
vn 0.2277 -0.2339 0.9452
vn 0.2400 -0.2372 0.9414
vn 0.2345 -0.2359 0.9431
vn 0.3395 -0.0198 0.9404
vn 0.3094 -0.0045 0.9509
vn 0.3420 -0.0431 0.9387
vn 0.3463 -0.0764 0.9350
vn 0.3618 -0.1169 0.9249
vn 0.3717 -0.1475 0.9166
vn 0.3609 -0.1650 0.9179
vn 0.3332 -0.1805 0.9254
vn 0.2957 -0.2162 0.9305
vn 0.2697 -0.2533 0.9290
vn 0.2650 -0.2644 0.9273
vn 0.2708 -0.2655 0.9253
vn 0.2513 -0.2695 0.9296
vn 0.2218 -0.2704 0.9368
vn 0.2300 -0.2616 0.9374
vn 0.2473 -0.2464 0.9371
vn 0.2421 -0.2392 0.9403
vn 0.3203 0.0222 0.9471
vn 0.2998 0.0423 0.9531
vn 0.3149 -0.0069 0.9491
vn 0.3103 -0.0439 0.9496
vn 0.3238 -0.0891 0.9419
vn 0.3414 -0.1406 0.9293
vn 0.3365 -0.1868 0.9229
vn 0.3018 -0.2276 0.9258
vn 0.2610 -0.2600 0.9297
vn 0.2528 -0.2726 0.9283
vn 0.2647 -0.2640 0.9275
vn 0.2687 -0.2583 0.9279
vn 0.2504 -0.2672 0.9305
vn 0.2338 -0.2608 0.9367
vn 0.2505 -0.2372 0.9386
vn 0.2629 -0.2170 0.9401
vn 0.2443 -0.2119 0.9463
vn 0.2949 0.0619 0.9535
vn 0.2851 0.0892 0.9543
vn 0.2826 0.0256 0.9589
vn 0.2724 -0.0150 0.9621
vn 0.2746 -0.0598 0.9597
vn 0.2831 -0.1258 0.9508
vn 0.2812 -0.1880 0.9410
vn 0.2644 -0.2379 0.9346
vn 0.2518 -0.2607 0.9320
vn 0.2649 -0.2585 0.9290
vn 0.2793 -0.2478 0.9277
vn 0.2703 -0.2407 0.9322
vn 0.2534 -0.2377 0.9377
vn 0.2546 -0.2248 0.9406
vn 0.2752 -0.2052 0.9393
vn 0.2760 -0.1934 0.9415
vn 0.2399 -0.1886 0.9523
vn 0.2608 0.0933 0.9609
vn 0.2637 0.1244 0.9566
vn 0.2433 0.0556 0.9684
vn 0.2312 0.0162 0.9728
vn 0.2209 -0.0284 0.9749
vn 0.2232 -0.0867 0.9709
vn 0.2332 -0.1451 0.9615
vn 0.2347 -0.1869 0.9539
vn 0.2435 -0.2110 0.9467
vn 0.2677 -0.2145 0.9393
vn 0.2849 -0.2189 0.9332
vn 0.2834 -0.2137 0.9349
vn 0.2718 -0.1971 0.9420
vn 0.2695 -0.1751 0.9469
vn 0.2837 -0.1621 0.9451
vn 0.2836 -0.1600 0.9455
vn 0.2517 -0.1556 0.9552
vn 0.2286 0.1198 0.9661
vn 0.2392 0.1426 0.9604
vn 0.2086 0.0970 0.9732
vn 0.1929 0.0687 0.9788
vn 0.1772 0.0294 0.9837
vn 0.1730 -0.0088 0.9849
vn 0.1884 -0.0564 0.9805
vn 0.2054 -0.0968 0.9739
vn 0.2294 -0.1272 0.9650
vn 0.2611 -0.1435 0.9546
vn 0.2843 -0.1601 0.9453
vn 0.2970 -0.1582 0.9417
vn 0.2964 -0.1443 0.9441
vn 0.2931 -0.1149 0.9492
vn 0.2937 -0.0938 0.9513
vn 0.2875 -0.0924 0.9533
vn 0.2677 -0.0921 0.9591
vn 0.2147 0.1533 0.9646
vn 0.2187 0.1584 0.9629
vn 0.1912 0.1531 0.9695
vn 0.1640 0.1411 0.9763
vn 0.1453 0.1202 0.9821
vn 0.1404 0.0914 0.9859
vn 0.1502 0.0554 0.9871
vn 0.1693 0.0177 0.9854
vn 0.2021 -0.0096 0.9793
vn 0.2401 -0.0309 0.9703
vn 0.2760 -0.0471 0.9600
vn 0.3040 -0.0570 0.9510
vn 0.3176 -0.0598 0.9463
vn 0.3208 -0.0451 0.9461
vn 0.3085 -0.0287 0.9508
vn 0.2894 -0.0253 0.9569
vn 0.2785 -0.0274 0.9600
vn 0.2208 0.1742 0.9596
vn 0.2169 0.1655 0.9621
vn 0.1925 0.1905 0.9626
vn 0.1561 0.1971 0.9679
vn 0.1248 0.1972 0.9724
vn 0.1069 0.1777 0.9782
vn 0.1153 0.1448 0.9827
vn 0.1426 0.1125 0.9834
vn 0.1840 0.0913 0.9787
vn 0.2274 0.0784 0.9706
vn 0.2624 0.0728 0.9622
vn 0.2880 0.0558 0.9560
vn 0.3098 0.0372 0.9501
vn 0.3234 0.0266 0.9459
vn 0.3133 0.0245 0.9493
vn 0.2903 0.0205 0.9567
vn 0.2793 0.0131 0.9601
vt 0.015625 0.015625
vt 0.076172 0.015625
vt 0.076172 0.076172
vt 0.015625 0.076172
vt 0.136719 0.015625
vt 0.136719 0.076172
vt 0.197266 0.015625
vt 0.197266 0.076172
vt 0.257812 0.015625
vt 0.257812 0.076172
vt 0.318359 0.015625
vt 0.318359 0.076172
vt 0.378906 0.015625
vt 0.378906 0.076172
vt 0.439453 0.015625
vt 0.439453 0.076172
vt 0.500000 0.015625
vt 0.500000 0.076172
vt 0.560547 0.015625
vt 0.560547 0.076172
vt 0.621094 0.015625
vt 0.621094 0.076172
vt 0.681641 0.015625
vt 0.681641 0.076172
vt 0.742188 0.015625
vt 0.742188 0.076172
vt 0.802734 0.015625
vt 0.802734 0.076172
vt 0.863281 0.015625
vt 0.863281 0.076172
vt 0.923828 0.015625
vt 0.923828 0.076172
vt 0.984375 0.015625
vt 0.984375 0.076172
vt 0.076172 0.136719
vt 0.015625 0.136719
vt 0.136719 0.136719
vt 0.197266 0.136719
vt 0.257812 0.136719
vt 0.318359 0.136719
vt 0.378906 0.136719
vt 0.439453 0.136719
vt 0.500000 0.136719
vt 0.560547 0.136719
vt 0.621094 0.136719
vt 0.681641 0.136719
vt 0.742188 0.136719
vt 0.802734 0.136719
vt 0.863281 0.136719
vt 0.923828 0.136719
vt 0.984375 0.136719
vt 0.076172 0.197266
vt 0.015625 0.197266
vt 0.136719 0.197266
vt 0.197266 0.197266
vt 0.257812 0.197266
vt 0.318359 0.197266
vt 0.378906 0.197266
vt 0.439453 0.197266
vt 0.500000 0.197266
vt 0.560547 0.197266
vt 0.621094 0.197266
vt 0.681641 0.197266
vt 0.742188 0.197266
vt 0.802734 0.197266
vt 0.863281 0.197266
vt 0.923828 0.197266
vt 0.984375 0.197266
vt 0.076172 0.257812
vt 0.015625 0.257812
vt 0.136719 0.257812
vt 0.197266 0.257812
vt 0.257812 0.257812
vt 0.318359 0.257812
vt 0.378906 0.257812
vt 0.439453 0.257812
vt 0.500000 0.257812
vt 0.560547 0.257812
vt 0.621094 0.257812
vt 0.681641 0.257812
vt 0.742188 0.257812
vt 0.802734 0.257812
vt 0.863281 0.257812
vt 0.923828 0.257812
vt 0.984375 0.257812
vt 0.076172 0.318359
vt 0.015625 0.318359
vt 0.136719 0.318359
vt 0.197266 0.318359
vt 0.257812 0.318359
vt 0.318359 0.318359
vt 0.378906 0.318359
vt 0.439453 0.318359
vt 0.500000 0.318359
vt 0.560547 0.318359
vt 0.621094 0.318359
vt 0.681641 0.318359
vt 0.742188 0.318359
vt 0.802734 0.318359
vt 0.863281 0.318359
vt 0.923828 0.318359
vt 0.984375 0.318359
vt 0.076172 0.378906
vt 0.015625 0.378906
vt 0.136719 0.378906
vt 0.197266 0.378906
vt 0.257812 0.378906
vt 0.318359 0.378906
vt 0.378906 0.378906
vt 0.439453 0.378906
vt 0.500000 0.378906
vt 0.560547 0.378906
vt 0.621094 0.378906
vt 0.681641 0.378906
vt 0.742188 0.378906
vt 0.802734 0.378906
vt 0.863281 0.378906
vt 0.923828 0.378906
vt 0.984375 0.378906
vt 0.076172 0.439453
vt 0.015625 0.439453
vt 0.136719 0.439453
vt 0.197266 0.439453
vt 0.257812 0.439453
vt 0.318359 0.439453
vt 0.378906 0.439453
vt 0.439453 0.439453
vt 0.500000 0.439453
vt 0.560547 0.439453
vt 0.621094 0.439453
vt 0.681641 0.439453
vt 0.742188 0.439453
vt 0.802734 0.439453
vt 0.863281 0.439453
vt 0.923828 0.439453
vt 0.984375 0.439453
vt 0.076172 0.500000
vt 0.015625 0.500000
vt 0.136719 0.500000
vt 0.197266 0.500000
vt 0.257812 0.500000
vt 0.318359 0.500000
vt 0.378906 0.500000
vt 0.439453 0.500000
vt 0.500000 0.500000
vt 0.560547 0.500000
vt 0.621094 0.500000
vt 0.681641 0.500000
vt 0.742188 0.500000
vt 0.802734 0.500000
vt 0.863281 0.500000
vt 0.923828 0.500000
vt 0.984375 0.500000
vt 0.076172 0.560547
vt 0.015625 0.560547
vt 0.136719 0.560547
vt 0.197266 0.560547
vt 0.257812 0.560547
vt 0.318359 0.560547
vt 0.378906 0.560547
vt 0.439453 0.560547
vt 0.500000 0.560547
vt 0.560547 0.560547
vt 0.621094 0.560547
vt 0.681641 0.560547
vt 0.742188 0.560547
vt 0.802734 0.560547
vt 0.863281 0.560547
vt 0.923828 0.560547
vt 0.984375 0.560547
vt 0.076172 0.621094
vt 0.015625 0.621094
vt 0.136719 0.621094
vt 0.197266 0.621094
vt 0.257812 0.621094
vt 0.318359 0.621094
vt 0.378906 0.621094
vt 0.439453 0.621094
vt 0.500000 0.621094
vt 0.560547 0.621094
vt 0.621094 0.621094
vt 0.681641 0.621094
vt 0.742188 0.621094
vt 0.802734 0.621094
vt 0.863281 0.621094
vt 0.923828 0.621094
vt 0.984375 0.621094
vt 0.076172 0.681641
vt 0.015625 0.681641
vt 0.136719 0.681641
vt 0.197266 0.681641
vt 0.257812 0.681641
vt 0.318359 0.681641
vt 0.378906 0.681641
vt 0.439453 0.681641
vt 0.500000 0.681641
vt 0.560547 0.681641
vt 0.621094 0.681641
vt 0.681641 0.681641
vt 0.742188 0.681641
vt 0.802734 0.681641
vt 0.863281 0.681641
vt 0.923828 0.681641
vt 0.984375 0.681641
vt 0.076172 0.742188
vt 0.015625 0.742188
vt 0.136719 0.742188
vt 0.197266 0.742188
vt 0.257812 0.742188
vt 0.318359 0.742188
vt 0.378906 0.742188
vt 0.439453 0.742188
vt 0.500000 0.742188
vt 0.560547 0.742188
vt 0.621094 0.742188
vt 0.681641 0.742188
vt 0.742188 0.742188
vt 0.802734 0.742188
vt 0.863281 0.742188
vt 0.923828 0.742188
vt 0.984375 0.742188
vt 0.076172 0.802734
vt 0.015625 0.802734
vt 0.136719 0.802734
vt 0.197266 0.802734
vt 0.257812 0.802734
vt 0.318359 0.802734
vt 0.378906 0.802734
vt 0.439453 0.802734
vt 0.500000 0.802734
vt 0.560547 0.802734
vt 0.621094 0.802734
vt 0.681641 0.802734
vt 0.742188 0.802734
vt 0.802734 0.802734
vt 0.863281 0.802734
vt 0.923828 0.802734
vt 0.984375 0.802734
vt 0.076172 0.863281
vt 0.015625 0.863281
vt 0.136719 0.863281
vt 0.197266 0.863281
vt 0.257812 0.863281
vt 0.318359 0.863281
vt 0.378906 0.863281
vt 0.439453 0.863281
vt 0.500000 0.863281
vt 0.560547 0.863281
vt 0.621094 0.863281
vt 0.681641 0.863281
vt 0.742188 0.863281
vt 0.802734 0.863281
vt 0.863281 0.863281
vt 0.923828 0.863281
vt 0.984375 0.863281
vt 0.076172 0.923828
vt 0.015625 0.923828
vt 0.136719 0.923828
vt 0.197266 0.923828
vt 0.257812 0.923828
vt 0.318359 0.923828
vt 0.378906 0.923828
vt 0.439453 0.923828
vt 0.500000 0.923828
vt 0.560547 0.923828
vt 0.621094 0.923828
vt 0.681641 0.923828
vt 0.742188 0.923828
vt 0.802734 0.923828
vt 0.863281 0.923828
vt 0.923828 0.923828
vt 0.984375 0.923828
vt 0.076172 0.984375
vt 0.015625 0.984375
vt 0.136719 0.984375
vt 0.197266 0.984375
vt 0.257812 0.984375
vt 0.318359 0.984375
vt 0.378906 0.984375
vt 0.439453 0.984375
vt 0.500000 0.984375
vt 0.560547 0.984375
vt 0.621094 0.984375
vt 0.681641 0.984375
vt 0.742188 0.984375
vt 0.802734 0.984375
vt 0.863281 0.984375
vt 0.923828 0.984375
vt 0.984375 0.984375
s 1
f 1/1/1 2/2/2 19/3/3
f 1/1/1 19/3/3 18/4/4
f 2/2/2 3/5/5 20/6/6
f 2/2/2 20/6/6 19/3/3
f 3/5/5 4/7/7 21/8/8
f 3/5/5 21/8/8 20/6/6
f 4/7/7 5/9/9 22/10/10
f 4/7/7 22/10/10 21/8/8
f 5/9/9 6/11/11 23/12/12
f 5/9/9 23/12/12 22/10/10
f 6/11/11 7/13/13 24/14/14
f 6/11/11 24/14/14 23/12/12
f 7/13/13 8/15/15 25/16/16
f 7/13/13 25/16/16 24/14/14
f 8/15/15 9/17/17 26/18/18
f 8/15/15 26/18/18 25/16/16
f 9/17/17 10/19/19 27/20/20
f 9/17/17 27/20/20 26/18/18
f 10/19/19 11/21/21 28/22/22
f 10/19/19 28/22/22 27/20/20
f 11/21/21 12/23/23 29/24/24
f 11/21/21 29/24/24 28/22/22
f 12/23/23 13/25/25 30/26/26
f 12/23/23 30/26/26 29/24/24
f 13/25/25 14/27/27 31/28/28
f 13/25/25 31/28/28 30/26/26
f 14/27/27 15/29/29 32/30/30
f 14/27/27 32/30/30 31/28/28
f 15/29/29 16/31/31 33/32/32
f 15/29/29 33/32/32 32/30/30
f 16/31/31 17/33/33 34/34/34
f 16/31/31 34/34/34 33/32/32
f 18/4/4 19/3/3 36/35/35
f 18/4/4 36/35/35 35/36/36
f 19/3/3 20/6/6 37/37/37
f 19/3/3 37/37/37 36/35/35
f 20/6/6 21/8/8 38/38/38
f 20/6/6 38/38/38 37/37/37
f 21/8/8 22/10/10 39/39/39
f 21/8/8 39/39/39 38/38/38
f 22/10/10 23/12/12 40/40/40
f 22/10/10 40/40/40 39/39/39
f 23/12/12 24/14/14 41/41/41
f 23/12/12 41/41/41 40/40/40
f 24/14/14 25/16/16 42/42/42
f 24/14/14 42/42/42 41/41/41
f 25/16/16 26/18/18 43/43/43
f 25/16/16 43/43/43 42/42/42
f 26/18/18 27/20/20 44/44/44
f 26/18/18 44/44/44 43/43/43
f 27/20/20 28/22/22 45/45/45
f 27/20/20 45/45/45 44/44/44
f 28/22/22 29/24/24 46/46/46
f 28/22/22 46/46/46 45/45/45
f 29/24/24 30/26/26 47/47/47
f 29/24/24 47/47/47 46/46/46
f 30/26/26 31/28/28 48/48/48
f 30/26/26 48/48/48 47/47/47
f 31/28/28 32/30/30 49/49/49
f 31/28/28 49/49/49 48/48/48
f 32/30/30 33/32/32 50/50/50
f 32/30/30 50/50/50 49/49/49
f 33/32/32 34/34/34 51/51/51
f 33/32/32 51/51/51 50/50/50
f 35/36/36 36/35/35 53/52/52
f 35/36/36 53/52/52 52/53/53
f 36/35/35 37/37/37 54/54/54
f 36/35/35 54/54/54 53/52/52
f 37/37/37 38/38/38 55/55/55
f 37/37/37 55/55/55 54/54/54
f 38/38/38 39/39/39 56/56/56
f 38/38/38 56/56/56 55/55/55
f 39/39/39 40/40/40 57/57/57
f 39/39/39 57/57/57 56/56/56
f 40/40/40 41/41/41 58/58/58
f 40/40/40 58/58/58 57/57/57
f 41/41/41 42/42/42 59/59/59
f 41/41/41 59/59/59 58/58/58
f 42/42/42 43/43/43 60/60/60
f 42/42/42 60/60/60 59/59/59
f 43/43/43 44/44/44 61/61/61
f 43/43/43 61/61/61 60/60/60
f 44/44/44 45/45/45 62/62/62
f 44/44/44 62/62/62 61/61/61
f 45/45/45 46/46/46 63/63/63
f 45/45/45 63/63/63 62/62/62
f 46/46/46 47/47/47 64/64/64
f 46/46/46 64/64/64 63/63/63
f 47/47/47 48/48/48 65/65/65
f 47/47/47 65/65/65 64/64/64
f 48/48/48 49/49/49 66/66/66
f 48/48/48 66/66/66 65/65/65
f 49/49/49 50/50/50 67/67/67
f 49/49/49 67/67/67 66/66/66
f 50/50/50 51/51/51 68/68/68
f 50/50/50 68/68/68 67/67/67
f 52/53/53 53/52/52 70/69/69
f 52/53/53 70/69/69 69/70/70
f 53/52/52 54/54/54 71/71/71
f 53/52/52 71/71/71 70/69/69
f 54/54/54 55/55/55 72/72/72
f 54/54/54 72/72/72 71/71/71
f 55/55/55 56/56/56 73/73/73
f 55/55/55 73/73/73 72/72/72
f 56/56/56 57/57/57 74/74/74
f 56/56/56 74/74/74 73/73/73
f 57/57/57 58/58/58 75/75/75
f 57/57/57 75/75/75 74/74/74
f 58/58/58 59/59/59 76/76/76
f 58/58/58 76/76/76 75/75/75
f 59/59/59 60/60/60 77/77/77
f 59/59/59 77/77/77 76/76/76
f 60/60/60 61/61/61 78/78/78
f 60/60/60 78/78/78 77/77/77
f 61/61/61 62/62/62 79/79/79
f 61/61/61 79/79/79 78/78/78
f 62/62/62 63/63/63 80/80/80
f 62/62/62 80/80/80 79/79/79
f 63/63/63 64/64/64 81/81/81
f 63/63/63 81/81/81 80/80/80
f 64/64/64 65/65/65 82/82/82
f 64/64/64 82/82/82 81/81/81
f 65/65/65 66/66/66 83/83/83
f 65/65/65 83/83/83 82/82/82
f 66/66/66 67/67/67 84/84/84
f 66/66/66 84/84/84 83/83/83
f 67/67/67 68/68/68 85/85/85
f 67/67/67 85/85/85 84/84/84
f 69/70/70 70/69/69 87/86/86
f 69/70/70 87/86/86 86/87/87
f 70/69/69 71/71/71 88/88/88
f 70/69/69 88/88/88 87/86/86
f 71/71/71 72/72/72 89/89/89
f 71/71/71 89/89/89 88/88/88
f 72/72/72 73/73/73 90/90/90
f 72/72/72 90/90/90 89/89/89
f 73/73/73 74/74/74 91/91/91
f 73/73/73 91/91/91 90/90/90
f 74/74/74 75/75/75 92/92/92
f 74/74/74 92/92/92 91/91/91
f 75/75/75 76/76/76 93/93/93
f 75/75/75 93/93/93 92/92/92
f 76/76/76 77/77/77 94/94/94
f 76/76/76 94/94/94 93/93/93
f 77/77/77 78/78/78 95/95/95
f 77/77/77 95/95/95 94/94/94
f 78/78/78 79/79/79 96/96/96
f 78/78/78 96/96/96 95/95/95
f 79/79/79 80/80/80 97/97/97
f 79/79/79 97/97/97 96/96/96
f 80/80/80 81/81/81 98/98/98
f 80/80/80 98/98/98 97/97/97
f 81/81/81 82/82/82 99/99/99
f 81/81/81 99/99/99 98/98/98
f 82/82/82 83/83/83 100/100/100
f 82/82/82 100/100/100 99/99/99
f 83/83/83 84/84/84 101/101/101
f 83/83/83 101/101/101 100/100/100
f 84/84/84 85/85/85 102/102/102
f 84/84/84 102/102/102 101/101/101
f 86/87/87 87/86/86 104/103/103
f 86/87/87 104/103/103 103/104/104
f 87/86/86 88/88/88 105/105/105
f 87/86/86 105/105/105 104/103/103
f 88/88/88 89/89/89 106/106/106
f 88/88/88 106/106/106 105/105/105
f 89/89/89 90/90/90 107/107/107
f 89/89/89 107/107/107 106/106/106
f 90/90/90 91/91/91 108/108/108
f 90/90/90 108/108/108 107/107/107
f 91/91/91 92/92/92 109/109/109
f 91/91/91 109/109/109 108/108/108
f 92/92/92 93/93/93 110/110/110
f 92/92/92 110/110/110 109/109/109
f 93/93/93 94/94/94 111/111/111
f 93/93/93 111/111/111 110/110/110
f 94/94/94 95/95/95 112/112/112
f 94/94/94 112/112/112 111/111/111
f 95/95/95 96/96/96 113/113/113
f 95/95/95 113/113/113 112/112/112
f 96/96/96 97/97/97 114/114/114
f 96/96/96 114/114/114 113/113/113
f 97/97/97 98/98/98 115/115/115
f 97/97/97 115/115/115 114/114/114
f 98/98/98 99/99/99 116/116/116
f 98/98/98 116/116/116 115/115/115
f 99/99/99 100/100/100 117/117/117
f 99/99/99 117/117/117 116/116/116
f 100/100/100 101/101/101 118/118/118
f 100/100/100 118/118/118 117/117/117
f 101/101/101 102/102/102 119/119/119
f 101/101/101 119/119/119 118/118/118
f 103/104/104 104/103/103 121/120/120
f 103/104/104 121/120/120 120/121/121
f 104/103/103 105/105/105 122/122/122
f 104/103/103 122/122/122 121/120/120
f 105/105/105 106/106/106 123/123/123
f 105/105/105 123/123/123 122/122/122
f 106/106/106 107/107/107 124/124/124
f 106/106/106 124/124/124 123/123/123
f 107/107/107 108/108/108 125/125/125
f 107/107/107 125/125/125 124/124/124
f 108/108/108 109/109/109 126/126/126
f 108/108/108 126/126/126 125/125/125
f 109/109/109 110/110/110 127/127/127
f 109/109/109 127/127/127 126/126/126
f 110/110/110 111/111/111 128/128/128
f 110/110/110 128/128/128 127/127/127
f 111/111/111 112/112/112 129/129/129
f 111/111/111 129/129/129 128/128/128
f 112/112/112 113/113/113 130/130/130
f 112/112/112 130/130/130 129/129/129
f 113/113/113 114/114/114 131/131/131
f 113/113/113 131/131/131 130/130/130
f 114/114/114 115/115/115 132/132/132
f 114/114/114 132/132/132 131/131/131
f 115/115/115 116/116/116 133/133/133
f 115/115/115 133/133/133 132/132/132
f 116/116/116 117/117/117 134/134/134
f 116/116/116 134/134/134 133/133/133
f 117/117/117 118/118/118 135/135/135
f 117/117/117 135/135/135 134/134/134
f 118/118/118 119/119/119 136/136/136
f 118/118/118 136/136/136 135/135/135
f 120/121/121 121/120/120 138/137/137
f 120/121/121 138/137/137 137/138/138
f 121/120/120 122/122/122 139/139/139
f 121/120/120 139/139/139 138/137/137
f 122/122/122 123/123/123 140/140/140
f 122/122/122 140/140/140 139/139/139
f 123/123/123 124/124/124 141/141/141
f 123/123/123 141/141/141 140/140/140
f 124/124/124 125/125/125 142/142/142
f 124/124/124 142/142/142 141/141/141
f 125/125/125 126/126/126 143/143/143
f 125/125/125 143/143/143 142/142/142
f 126/126/126 127/127/127 144/144/144
f 126/126/126 144/144/144 143/143/143
f 127/127/127 128/128/128 145/145/145
f 127/127/127 145/145/145 144/144/144
f 128/128/128 129/129/129 146/146/146
f 128/128/128 146/146/146 145/145/145
f 129/129/129 130/130/130 147/147/147
f 129/129/129 147/147/147 146/146/146
f 130/130/130 131/131/131 148/148/148
f 130/130/130 148/148/148 147/147/147
f 131/131/131 132/132/132 149/149/149
f 131/131/131 149/149/149 148/148/148
f 132/132/132 133/133/133 150/150/150
f 132/132/132 150/150/150 149/149/149
f 133/133/133 134/134/134 151/151/151
f 133/133/133 151/151/151 150/150/150
f 134/134/134 135/135/135 152/152/152
f 134/134/134 152/152/152 151/151/151
f 135/135/135 136/136/136 153/153/153
f 135/135/135 153/153/153 152/152/152
f 137/138/138 138/137/137 155/154/154
f 137/138/138 155/154/154 154/155/155
f 138/137/137 139/139/139 156/156/156
f 138/137/137 156/156/156 155/154/154
f 139/139/139 140/140/140 157/157/157
f 139/139/139 157/157/157 156/156/156
f 140/140/140 141/141/141 158/158/158
f 140/140/140 158/158/158 157/157/157
f 141/141/141 142/142/142 159/159/159
f 141/141/141 159/159/159 158/158/158
f 142/142/142 143/143/143 160/160/160
f 142/142/142 160/160/160 159/159/159
f 143/143/143 144/144/144 161/161/161
f 143/143/143 161/161/161 160/160/160
f 144/144/144 145/145/145 162/162/162
f 144/144/144 162/162/162 161/161/161
f 145/145/145 146/146/146 163/163/163
f 145/145/145 163/163/163 162/162/162
f 146/146/146 147/147/147 164/164/164
f 146/146/146 164/164/164 163/163/163
f 147/147/147 148/148/148 165/165/165
f 147/147/147 165/165/165 164/164/164
f 148/148/148 149/149/149 166/166/166
f 148/148/148 166/166/166 165/165/165
f 149/149/149 150/150/150 167/167/167
f 149/149/149 167/167/167 166/166/166
f 150/150/150 151/151/151 168/168/168
f 150/150/150 168/168/168 167/167/167
f 151/151/151 152/152/152 169/169/169
f 151/151/151 169/169/169 168/168/168
f 152/152/152 153/153/153 170/170/170
f 152/152/152 170/170/170 169/169/169
f 154/155/155 155/154/154 172/171/171
f 154/155/155 172/171/171 171/172/172
f 155/154/154 156/156/156 173/173/173
f 155/154/154 173/173/173 172/171/171
f 156/156/156 157/157/157 174/174/174
f 156/156/156 174/174/174 173/173/173
f 157/157/157 158/158/158 175/175/175
f 157/157/157 175/175/175 174/174/174
f 158/158/158 159/159/159 176/176/176
f 158/158/158 176/176/176 175/175/175
f 159/159/159 160/160/160 177/177/177
f 159/159/159 177/177/177 176/176/176
f 160/160/160 161/161/161 178/178/178
f 160/160/160 178/178/178 177/177/177
f 161/161/161 162/162/162 179/179/179
f 161/161/161 179/179/179 178/178/178
f 162/162/162 163/163/163 180/180/180
f 162/162/162 180/180/180 179/179/179
f 163/163/163 164/164/164 181/181/181
f 163/163/163 181/181/181 180/180/180
f 164/164/164 165/165/165 182/182/182
f 164/164/164 182/182/182 181/181/181
f 165/165/165 166/166/166 183/183/183
f 165/165/165 183/183/183 182/182/182
f 166/166/166 167/167/167 184/184/184
f 166/166/166 184/184/184 183/183/183
f 167/167/167 168/168/168 185/185/185
f 167/167/167 185/185/185 184/184/184
f 168/168/168 169/169/169 186/186/186
f 168/168/168 186/186/186 185/185/185
f 169/169/169 170/170/170 187/187/187
f 169/169/169 187/187/187 186/186/186
f 171/172/172 172/171/171 189/188/188
f 171/172/172 189/188/188 188/189/189
f 172/171/171 173/173/173 190/190/190
f 172/171/171 190/190/190 189/188/188
f 173/173/173 174/174/174 191/191/191
f 173/173/173 191/191/191 190/190/190
f 174/174/174 175/175/175 192/192/192
f 174/174/174 192/192/192 191/191/191
f 175/175/175 176/176/176 193/193/193
f 175/175/175 193/193/193 192/192/192
f 176/176/176 177/177/177 194/194/194
f 176/176/176 194/194/194 193/193/193
f 177/177/177 178/178/178 195/195/195
f 177/177/177 195/195/195 194/194/194
f 178/178/178 179/179/179 196/196/196
f 178/178/178 196/196/196 195/195/195
f 179/179/179 180/180/180 197/197/197
f 179/179/179 197/197/197 196/196/196
f 180/180/180 181/181/181 198/198/198
f 180/180/180 198/198/198 197/197/197
f 181/181/181 182/182/182 199/199/199
f 181/181/181 199/199/199 198/198/198
f 182/182/182 183/183/183 200/200/200
f 182/182/182 200/200/200 199/199/199
f 183/183/183 184/184/184 201/201/201
f 183/183/183 201/201/201 200/200/200
f 184/184/184 185/185/185 202/202/202
f 184/184/184 202/202/202 201/201/201
f 185/185/185 186/186/186 203/203/203
f 185/185/185 203/203/203 202/202/202
f 186/186/186 187/187/187 204/204/204
f 186/186/186 204/204/204 203/203/203
f 188/189/189 189/188/188 206/205/205
f 188/189/189 206/205/205 205/206/206
f 189/188/188 190/190/190 207/207/207
f 189/188/188 207/207/207 206/205/205
f 190/190/190 191/191/191 208/208/208
f 190/190/190 208/208/208 207/207/207
f 191/191/191 192/192/192 209/209/209
f 191/191/191 209/209/209 208/208/208
f 192/192/192 193/193/193 210/210/210
f 192/192/192 210/210/210 209/209/209
f 193/193/193 194/194/194 211/211/211
f 193/193/193 211/211/211 210/210/210
f 194/194/194 195/195/195 212/212/212
f 194/194/194 212/212/212 211/211/211
f 195/195/195 196/196/196 213/213/213
f 195/195/195 213/213/213 212/212/212
f 196/196/196 197/197/197 214/214/214
f 196/196/196 214/214/214 213/213/213
f 197/197/197 198/198/198 215/215/215
f 197/197/197 215/215/215 214/214/214
f 198/198/198 199/199/199 216/216/216
f 198/198/198 216/216/216 215/215/215
f 199/199/199 200/200/200 217/217/217
f 199/199/199 217/217/217 216/216/216
f 200/200/200 201/201/201 218/218/218
f 200/200/200 218/218/218 217/217/217
f 201/201/201 202/202/202 219/219/219
f 201/201/201 219/219/219 218/218/218
f 202/202/202 203/203/203 220/220/220
f 202/202/202 220/220/220 219/219/219
f 203/203/203 204/204/204 221/221/221
f 203/203/203 221/221/221 220/220/220
f 205/206/206 206/205/205 223/222/222
f 205/206/206 223/222/222 222/223/223
f 206/205/205 207/207/207 224/224/224
f 206/205/205 224/224/224 223/222/222
f 207/207/207 208/208/208 225/225/225
f 207/207/207 225/225/225 224/224/224
f 208/208/208 209/209/209 226/226/226
f 208/208/208 226/226/226 225/225/225
f 209/209/209 210/210/210 227/227/227
f 209/209/209 227/227/227 226/226/226
f 210/210/210 211/211/211 228/228/228
f 210/210/210 228/228/228 227/227/227
f 211/211/211 212/212/212 229/229/229
f 211/211/211 229/229/229 228/228/228
f 212/212/212 213/213/213 230/230/230
f 212/212/212 230/230/230 229/229/229
f 213/213/213 214/214/214 231/231/231
f 213/213/213 231/231/231 230/230/230
f 214/214/214 215/215/215 232/232/232
f 214/214/214 232/232/232 231/231/231
f 215/215/215 216/216/216 233/233/233
f 215/215/215 233/233/233 232/232/232
f 216/216/216 217/217/217 234/234/234
f 216/216/216 234/234/234 233/233/233
f 217/217/217 218/218/218 235/235/235
f 217/217/217 235/235/235 234/234/234
f 218/218/218 219/219/219 236/236/236
f 218/218/218 236/236/236 235/235/235
f 219/219/219 220/220/220 237/237/237
f 219/219/219 237/237/237 236/236/236
f 220/220/220 221/221/221 238/238/238
f 220/220/220 238/238/238 237/237/237
f 222/223/223 223/222/222 240/239/239
f 222/223/223 240/239/239 239/240/240
f 223/222/222 224/224/224 241/241/241
f 223/222/222 241/241/241 240/239/239
f 224/224/224 225/225/225 242/242/242
f 224/224/224 242/242/242 241/241/241
f 225/225/225 226/226/226 243/243/243
f 225/225/225 243/243/243 242/242/242
f 226/226/226 227/227/227 244/244/244
f 226/226/226 244/244/244 243/243/243
f 227/227/227 228/228/228 245/245/245
f 227/227/227 245/245/245 244/244/244
f 228/228/228 229/229/229 246/246/246
f 228/228/228 246/246/246 245/245/245
f 229/229/229 230/230/230 247/247/247
f 229/229/229 247/247/247 246/246/246
f 230/230/230 231/231/231 248/248/248
f 230/230/230 248/248/248 247/247/247
f 231/231/231 232/232/232 249/249/249
f 231/231/231 249/249/249 248/248/248
f 232/232/232 233/233/233 250/250/250
f 232/232/232 250/250/250 249/249/249
f 233/233/233 234/234/234 251/251/251
f 233/233/233 251/251/251 250/250/250
f 234/234/234 235/235/235 252/252/252
f 234/234/234 252/252/252 251/251/251
f 235/235/235 236/236/236 253/253/253
f 235/235/235 253/253/253 252/252/252
f 236/236/236 237/237/237 254/254/254
f 236/236/236 254/254/254 253/253/253
f 237/237/237 238/238/238 255/255/255
f 237/237/237 255/255/255 254/254/254
f 239/240/240 240/239/239 257/256/256
f 239/240/240 257/256/256 256/257/257
f 240/239/239 241/241/241 258/258/258
f 240/239/239 258/258/258 257/256/256
f 241/241/241 242/242/242 259/259/259
f 241/241/241 259/259/259 258/258/258
f 242/242/242 243/243/243 260/260/260
f 242/242/242 260/260/260 259/259/259
f 243/243/243 244/244/244 261/261/261
f 243/243/243 261/261/261 260/260/260
f 244/244/244 245/245/245 262/262/262
f 244/244/244 262/262/262 261/261/261
f 245/245/245 246/246/246 263/263/263
f 245/245/245 263/263/263 262/262/262
f 246/246/246 247/247/247 264/264/264
f 246/246/246 264/264/264 263/263/263
f 247/247/247 248/248/248 265/265/265
f 247/247/247 265/265/265 264/264/264
f 248/248/248 249/249/249 266/266/266
f 248/248/248 266/266/266 265/265/265
f 249/249/249 250/250/250 267/267/267
f 249/249/249 267/267/267 266/266/266
f 250/250/250 251/251/251 268/268/268
f 250/250/250 268/268/268 267/267/267
f 251/251/251 252/252/252 269/269/269
f 251/251/251 269/269/269 268/268/268
f 252/252/252 253/253/253 270/270/270
f 252/252/252 270/270/270 269/269/269
f 253/253/253 254/254/254 271/271/271
f 253/253/253 271/271/271 270/270/270
f 254/254/254 255/255/255 272/272/272
f 254/254/254 272/272/272 271/271/271
f 256/257/257 257/256/256 274/273/273
f 256/257/257 274/273/273 273/274/274
f 257/256/256 258/258/258 275/275/275
f 257/256/256 275/275/275 274/273/273
f 258/258/258 259/259/259 276/276/276
f 258/258/258 276/276/276 275/275/275
f 259/259/259 260/260/260 277/277/277
f 259/259/259 277/277/277 276/276/276
f 260/260/260 261/261/261 278/278/278
f 260/260/260 278/278/278 277/277/277
f 261/261/261 262/262/262 279/279/279
f 261/261/261 279/279/279 278/278/278
f 262/262/262 263/263/263 280/280/280
f 262/262/262 280/280/280 279/279/279
f 263/263/263 264/264/264 281/281/281
f 263/263/263 281/281/281 280/280/280
f 264/264/264 265/265/265 282/282/282
f 264/264/264 282/282/282 281/281/281
f 265/265/265 266/266/266 283/283/283
f 265/265/265 283/283/283 282/282/282
f 266/266/266 267/267/267 284/284/284
f 266/266/266 284/284/284 283/283/283
f 267/267/267 268/268/268 285/285/285
f 267/267/267 285/285/285 284/284/284
f 268/268/268 269/269/269 286/286/286
f 268/268/268 286/286/286 285/285/285
f 269/269/269 270/270/270 287/287/287
f 269/269/269 287/287/287 286/286/286
f 270/270/270 271/271/271 288/288/288
f 270/270/270 288/288/288 287/287/287
f 271/271/271 272/272/272 289/289/289
f 271/271/271 289/289/289 288/288/288
