mtllib terrain_mid_06_07.mtl
usemtl terrain_mid_06_07
# Blender 5.1.1
# www.blender.org
o terrain_mid_06_07
v -160.000000 -160.000000 -29.145185
v -140.000000 -160.000000 -34.163002
v -120.000000 -160.000000 -39.102089
v -100.000000 -160.000000 -45.198875
v -80.000000 -160.000000 -52.268356
v -60.000000 -160.000000 -54.895687
v -40.000000 -160.000000 -52.982948
v -20.000000 -160.000000 -47.739418
v 0.000000 -160.000000 -42.285030
v 20.000000 -160.000000 -38.137272
v 40.000000 -160.000000 -35.777328
v 60.000000 -160.000000 -31.216501
v 80.000000 -160.000000 -26.809961
v 100.000000 -160.000000 -24.227060
v 120.000000 -160.000000 -21.565609
v 140.000000 -160.000000 -16.930851
v 160.000000 -160.000000 -12.962026
v -160.000000 -140.000000 -32.097076
v -140.000000 -140.000000 -37.046982
v -120.000000 -140.000000 -42.523632
v -100.000000 -140.000000 -48.338333
v -80.000000 -140.000000 -53.564281
v -60.000000 -140.000000 -52.818493
v -40.000000 -140.000000 -48.159332
v -20.000000 -140.000000 -41.847923
v 0.000000 -140.000000 -35.690624
v 20.000000 -140.000000 -30.710018
v 40.000000 -140.000000 -27.514883
v 60.000000 -140.000000 -23.311357
v 80.000000 -140.000000 -18.316044
v 100.000000 -140.000000 -15.165524
v 120.000000 -140.000000 -13.734433
v 140.000000 -140.000000 -11.230412
v 160.000000 -140.000000 -7.362722
v -160.000000 -120.000000 -37.460548
v -140.000000 -120.000000 -42.301903
v -120.000000 -120.000000 -46.973557
v -100.000000 -120.000000 -51.086781
v -80.000000 -120.000000 -53.754005
v -60.000000 -120.000000 -50.726742
v -40.000000 -120.000000 -44.557632
v -20.000000 -120.000000 -37.644779
v 0.000000 -120.000000 -31.274113
v 20.000000 -120.000000 -25.540009
v 40.000000 -120.000000 -20.314600
v 60.000000 -120.000000 -15.241804
v 80.000000 -120.000000 -9.864262
v 100.000000 -120.000000 -5.766476
v 120.000000 -120.000000 -3.552602
v 140.000000 -120.000000 -1.940983
v 160.000000 -120.000000 1.038679
v -160.000000 -100.000000 -43.411694
v -140.000000 -100.000000 -46.961021
v -120.000000 -100.000000 -49.869213
v -100.000000 -100.000000 -50.386410
v -80.000000 -100.000000 -50.533096
v -60.000000 -100.000000 -47.537514
v -40.000000 -100.000000 -42.208237
v -20.000000 -100.000000 -35.874134
v 0.000000 -100.000000 -29.666330
v 20.000000 -100.000000 -23.108402
v 40.000000 -100.000000 -15.974599
v 60.000000 -100.000000 -9.116682
v 80.000000 -100.000000 -2.757952
v 100.000000 -100.000000 2.449697
v 120.000000 -100.000000 5.838362
v 140.000000 -100.000000 7.452470
v 160.000000 -100.000000 9.934926
v -160.000000 -80.000000 -46.762218
v -140.000000 -80.000000 -47.442284
v -120.000000 -80.000000 -46.882397
v -100.000000 -80.000000 -44.450687
v -80.000000 -80.000000 -42.711361
v -60.000000 -80.000000 -41.943436
v -40.000000 -80.000000 -40.126740
v -20.000000 -80.000000 -36.053219
v 0.000000 -80.000000 -30.488333
v 20.000000 -80.000000 -23.158228
v 40.000000 -80.000000 -14.649974
v 60.000000 -80.000000 -5.876997
v 80.000000 -80.000000 2.478166
v 100.000000 -80.000000 9.004737
v 120.000000 -80.000000 13.336761
v 140.000000 -80.000000 15.678267
v 160.000000 -80.000000 18.464603
v -160.000000 -60.000000 -44.954491
v -140.000000 -60.000000 -43.328442
v -120.000000 -60.000000 -41.436459
v -100.000000 -60.000000 -37.996849
v -80.000000 -60.000000 -34.112606
v -60.000000 -60.000000 -32.459137
v -40.000000 -60.000000 -31.480494
v -20.000000 -60.000000 -29.954126
v 0.000000 -60.000000 -26.224051
v 20.000000 -60.000000 -18.790171
v 40.000000 -60.000000 -10.903113
v 60.000000 -60.000000 -2.870799
v 80.000000 -60.000000 5.304569
v 100.000000 -60.000000 12.586083
v 120.000000 -60.000000 17.953596
v 140.000000 -60.000000 21.266985
v 160.000000 -60.000000 25.040863
v -160.000000 -40.000000 -38.498531
v -140.000000 -40.000000 -36.332382
v -120.000000 -40.000000 -35.458946
v -100.000000 -40.000000 -32.546070
v -80.000000 -40.000000 -26.761932
v -60.000000 -40.000000 -21.686697
v -40.000000 -40.000000 -19.664154
v -20.000000 -40.000000 -19.952314
v 0.000000 -40.000000 -18.617191
v 20.000000 -40.000000 -12.276303
v 40.000000 -40.000000 -5.407867
v 60.000000 -40.000000 0.763824
v 80.000000 -40.000000 7.665063
v 100.000000 -40.000000 14.636166
v 120.000000 -40.000000 20.513878
v 140.000000 -40.000000 25.068518
v 160.000000 -40.000000 29.741642
v -160.000000 -20.000000 -31.173248
v -140.000000 -20.000000 -29.631500
v -120.000000 -20.000000 -30.133785
v -100.000000 -20.000000 -28.203272
v -80.000000 -20.000000 -21.012062
v -60.000000 -20.000000 -13.665307
v -40.000000 -20.000000 -9.848744
v -20.000000 -20.000000 -10.312164
v 0.000000 -20.000000 -10.573728
v 20.000000 -20.000000 -6.057051
v 40.000000 -20.000000 0.150699
v 60.000000 -20.000000 5.701385
v 80.000000 -20.000000 10.597795
v 100.000000 -20.000000 16.010019
v 120.000000 -20.000000 21.881771
v 140.000000 -20.000000 27.475805
v 160.000000 -20.000000 32.743202
v -160.000000 0.000000 -24.301857
v -140.000000 0.000000 -23.694300
v -120.000000 0.000000 -25.596588
v -100.000000 0.000000 -24.230568
v -80.000000 0.000000 -16.609018
v -60.000000 0.000000 -7.727319
v -40.000000 0.000000 -2.455462
v -20.000000 0.000000 -2.585053
v 0.000000 0.000000 -4.124115
v 20.000000 0.000000 -1.330394
v 40.000000 0.000000 4.092763
v 60.000000 0.000000 10.088145
v 80.000000 0.000000 14.656939
v 100.000000 0.000000 18.786760
v 120.000000 0.000000 23.953386
v 140.000000 0.000000 30.163549
v 160.000000 0.000000 35.377941
v -160.000000 20.000000 -18.266741
v -140.000000 20.000000 -18.571510
v -120.000000 20.000000 -21.590437
v -100.000000 20.000000 -20.437998
v -80.000000 20.000000 -12.977142
v -60.000000 20.000000 -3.571889
v -40.000000 20.000000 2.771176
v -20.000000 20.000000 3.525265
v 0.000000 20.000000 1.778798
v 20.000000 20.000000 3.022471
v 40.000000 20.000000 7.629825
v 60.000000 20.000000 13.559357
v 80.000000 20.000000 18.335459
v 100.000000 20.000000 22.149553
v 120.000000 20.000000 26.871660
v 140.000000 20.000000 33.366005
v 160.000000 20.000000 38.429306
v -160.000000 40.000000 -12.007958
v -140.000000 40.000000 -13.137970
v -120.000000 40.000000 -17.085642
v -100.000000 40.000000 -16.782074
v -80.000000 40.000000 -10.292830
v -60.000000 40.000000 -0.837209
v -40.000000 40.000000 6.768470
v -20.000000 40.000000 9.315962
v 0.000000 40.000000 8.506141
v 20.000000 40.000000 8.992808
v 40.000000 40.000000 12.522838
v 60.000000 40.000000 16.420380
v 80.000000 40.000000 20.422611
v 100.000000 40.000000 25.049400
v 120.000000 40.000000 30.440826
v 140.000000 40.000000 36.910004
v 160.000000 40.000000 42.223053
v -160.000000 60.000000 -5.519542
v -140.000000 60.000000 -7.608707
v -120.000000 60.000000 -11.973691
v -100.000000 60.000000 -12.337080
v -80.000000 60.000000 -7.422604
v -60.000000 60.000000 1.355899
v -40.000000 60.000000 9.937090
v -20.000000 60.000000 14.728601
v 0.000000 60.000000 15.684276
v 20.000000 60.000000 15.691132
v 40.000000 60.000000 18.621965
v 60.000000 60.000000 20.860958
v 80.000000 60.000000 23.214142
v 100.000000 60.000000 27.406382
v 120.000000 60.000000 33.192001
v 140.000000 60.000000 39.763981
v 160.000000 60.000000 45.481354
v -160.000000 80.000000 1.452484
v -140.000000 80.000000 -2.006534
v -120.000000 80.000000 -6.151289
v -100.000000 80.000000 -6.736467
v -80.000000 80.000000 -3.977617
v -60.000000 80.000000 3.550100
v -40.000000 80.000000 12.734805
v -20.000000 80.000000 19.892126
v 0.000000 80.000000 22.883698
v 20.000000 80.000000 22.863670
v 40.000000 80.000000 25.219112
v 60.000000 80.000000 27.121979
v 80.000000 80.000000 27.986406
v 100.000000 80.000000 30.337006
v 120.000000 80.000000 35.495068
v 140.000000 80.000000 42.197189
v 160.000000 80.000000 48.370010
v -160.000000 100.000000 7.788191
v -140.000000 100.000000 3.693885
v -120.000000 100.000000 1.000139
v -100.000000 100.000000 0.222815
v -80.000000 100.000000 0.502506
v -60.000000 100.000000 6.529375
v -40.000000 100.000000 16.235632
v -20.000000 100.000000 25.359819
v 0.000000 100.000000 30.001915
v 20.000000 100.000000 30.322628
v 40.000000 100.000000 31.776777
v 60.000000 100.000000 33.966461
v 80.000000 100.000000 35.039467
v 100.000000 100.000000 35.617203
v 120.000000 100.000000 38.351051
v 140.000000 100.000000 44.616405
v 160.000000 100.000000 51.299530
v -160.000000 120.000000 13.868960
v -140.000000 120.000000 10.016442
v -120.000000 120.000000 9.219391
v -100.000000 120.000000 8.361121
v -80.000000 120.000000 6.792016
v -60.000000 120.000000 10.416690
v -40.000000 120.000000 19.454912
v -20.000000 120.000000 29.249826
v 0.000000 120.000000 35.829540
v 20.000000 120.000000 38.028824
v 40.000000 120.000000 38.884090
v 60.000000 120.000000 41.106991
v 80.000000 120.000000 42.449486
v 100.000000 120.000000 41.950974
v 120.000000 120.000000 42.050426
v 140.000000 120.000000 46.568314
v 160.000000 120.000000 53.016945
v -160.000000 140.000000 19.804785
v -140.000000 140.000000 17.591515
v -120.000000 140.000000 18.406363
v -100.000000 140.000000 17.549156
v -80.000000 140.000000 14.963748
v -60.000000 140.000000 15.959876
v -40.000000 140.000000 21.943647
v -20.000000 140.000000 31.556868
v 0.000000 140.000000 40.657040
v 20.000000 140.000000 45.609756
v 40.000000 140.000000 46.942909
v 60.000000 140.000000 48.723454
v 80.000000 140.000000 49.810936
v 100.000000 140.000000 48.748993
v 120.000000 140.000000 47.191811
v 140.000000 140.000000 48.707489
v 160.000000 140.000000 54.288769
v -160.000000 160.000000 26.722660
v -140.000000 160.000000 26.648001
v -120.000000 160.000000 26.573339
v -100.000000 160.000000 24.941511
v -80.000000 160.000000 23.309683
v -60.000000 160.000000 24.992832
v -40.000000 160.000000 26.675982
v -20.000000 160.000000 35.966236
v 0.000000 160.000000 45.256493
v 20.000000 160.000000 50.610947
v 40.000000 160.000000 55.965405
v 60.000000 160.000000 56.695938
v 80.000000 160.000000 57.426476
v 100.000000 160.000000 55.698620
v 120.000000 160.000000 53.970760
v 140.000000 160.000000 55.527340
v 160.000000 160.000000 57.083920
vn 0.2467 0.1200 0.9616
vn 0.2396 0.1262 0.9626
vn 0.2475 0.1932 0.9494
vn 0.2141 0.1988 0.9564
vn 0.2622 0.1667 0.9505
vn 0.2669 0.1861 0.9456
vn 0.3074 0.1825 0.9339
vn 0.2634 0.1405 0.9544
vn 0.2333 0.1402 0.9623
vn 0.1112 0.0369 0.9931
vn 0.0178 -0.0392 0.9991
vn -0.1332 -0.1027 0.9858
vn -0.1730 -0.1865 0.9671
vn -0.2591 -0.1992 0.9451
vn -0.2488 -0.2701 0.9301
vn -0.2893 -0.2342 0.9281
vn -0.2212 -0.3197 0.9214
vn -0.2595 -0.2561 0.9312
vn -0.1501 -0.3554 0.9226
vn -0.1914 -0.2948 0.9362
vn -0.1584 -0.3694 0.9157
vn -0.1700 -0.3554 0.9191
vn -0.2041 -0.3605 0.9102
vn -0.2089 -0.3627 0.9082
vn -0.1583 -0.3926 0.9060
vn -0.1843 -0.3834 0.9050
vn -0.1195 -0.3932 0.9117
vn -0.1035 -0.4169 0.9030
vn -0.1694 -0.3293 0.9289
vn -0.0894 -0.4090 0.9082
vn -0.2030 -0.2616 0.9436
vn -0.1475 -0.3471 0.9262
vn -0.1103 -0.2726 0.9558
vn -0.1320 -0.3275 0.9356
vn 0.2249 0.2344 0.9458
vn 0.2032 0.2665 0.9422
vn 0.2111 0.1766 0.9614
vn 0.1669 0.0504 0.9847
vn -0.0090 -0.0756 0.9971
vn -0.2222 -0.1276 0.9666
vn -0.3079 -0.1399 0.9411
vn -0.3120 -0.1403 0.9397
vn -0.2867 -0.1427 0.9473
vn -0.2599 -0.1803 0.9487
vn -0.2401 -0.2691 0.9327
vn -0.2391 -0.3248 0.9151
vn -0.2156 -0.3540 0.9101
vn -0.1429 -0.3989 0.9058
vn -0.0855 -0.4379 0.8949
vn -0.1035 -0.4209 0.9012
vn -0.1021 -0.3948 0.9131
vn 0.1581 0.1258 0.9794
vn 0.1689 0.2232 0.9600
vn 0.0853 -0.0023 0.9964
vn 0.0164 -0.1636 0.9864
vn -0.0685 -0.2655 0.9617
vn -0.1993 -0.2101 0.9572
vn -0.2785 -0.1056 0.9546
vn -0.2989 -0.0379 0.9535
vn -0.3040 -0.0187 0.9525
vn -0.3233 -0.0562 0.9446
vn -0.3275 -0.1325 0.9355
vn -0.3063 -0.2170 0.9269
vn -0.2664 -0.2842 0.9210
vn -0.1976 -0.3395 0.9196
vn -0.1145 -0.3864 0.9152
vn -0.0933 -0.4014 0.9112
vn -0.0837 -0.3980 0.9136
vn 0.0030 -0.0904 0.9959
vn 0.0493 0.0385 0.9980
vn -0.0730 -0.2057 0.9759
vn -0.0991 -0.2944 0.9505
vn -0.0578 -0.3792 0.9235
vn -0.0603 -0.3521 0.9340
vn -0.1408 -0.2565 0.9562
vn -0.2319 -0.1424 0.9623
vn -0.3058 -0.0817 0.9486
vn -0.3663 -0.0999 0.9251
vn -0.3939 -0.1156 0.9118
vn -0.3896 -0.1421 0.9099
vn -0.3426 -0.1856 0.9210
vn -0.2544 -0.2375 0.9375
vn -0.1577 -0.2863 0.9451
vn -0.1203 -0.3241 0.9384
vn -0.0952 -0.3517 0.9313
vn -0.0845 -0.2667 0.9601
vn -0.0842 -0.2017 0.9758
vn -0.1270 -0.2725 0.9537
vn -0.1729 -0.2810 0.9440
vn -0.1276 -0.3674 0.9213
vn -0.0587 -0.4510 0.8906
vn -0.0557 -0.4547 0.8889
vn -0.1210 -0.3707 0.9209
vn -0.2585 -0.2749 0.9261
vn -0.3467 -0.2462 0.9051
vn -0.3615 -0.2099 0.9084
vn -0.3712 -0.1521 0.9160
vn -0.3578 -0.1200 0.9260
vn -0.2988 -0.1330 0.9450
vn -0.2089 -0.1728 0.9625
vn -0.1701 -0.2254 0.9593
vn -0.1245 -0.2692 0.9550
vn -0.0717 -0.3231 0.9436
vn -0.1479 -0.3222 0.9351
vn -0.0907 -0.2708 0.9584
vn -0.2066 -0.2327 0.9504
vn -0.2498 -0.3014 0.9202
vn -0.1586 -0.4199 0.8936
vn -0.0381 -0.4753 0.8790
vn -0.0235 -0.4407 0.8973
vn -0.1759 -0.3587 0.9167
vn -0.3002 -0.2894 0.9089
vn -0.2998 -0.2541 0.9195
vn -0.3044 -0.1996 0.9314
vn -0.3251 -0.1240 0.9375
vn -0.3048 -0.0812 0.9489
vn -0.2512 -0.0946 0.9633
vn -0.2222 -0.1495 0.9635
vn -0.1602 -0.1866 0.9693
vn -0.0248 -0.3012 0.9532
vn -0.1362 -0.3313 0.9336
vn -0.0346 -0.2392 0.9703
vn -0.2179 -0.1987 0.9555
vn -0.3324 -0.2322 0.9141
vn -0.2548 -0.3186 0.9130
vn -0.0768 -0.3940 0.9159
vn 0.0166 -0.3982 0.9171
vn -0.0995 -0.3390 0.9355
vn -0.2504 -0.2555 0.9338
vn -0.2750 -0.2222 0.9354
vn -0.2465 -0.2200 0.9438
vn -0.2460 -0.1669 0.9548
vn -0.2702 -0.0994 0.9577
vn -0.2746 -0.0824 0.9580
vn -0.2601 -0.1220 0.9578
vn -0.1957 -0.1368 0.9711
vn 0.0312 -0.2664 0.9634
vn -0.1009 -0.3055 0.9468
vn 0.0131 -0.2089 0.9779
vn -0.2153 -0.1862 0.9586
vn -0.3752 -0.1830 0.9087
vn -0.3245 -0.2314 0.9171
vn -0.1217 -0.2986 0.9466
vn 0.0394 -0.3267 0.9443
vn -0.0300 -0.2949 0.9550
vn -0.1964 -0.2171 0.9562
vn -0.2702 -0.1770 0.9464
vn -0.2508 -0.1866 0.9499
vn -0.2088 -0.1857 0.9602
vn -0.2239 -0.1479 0.9633
vn -0.2716 -0.1191 0.9550
vn -0.2719 -0.1402 0.9521
vn -0.2003 -0.1379 0.9700
vn 0.0801 -0.2543 0.9638
vn -0.0641 -0.2932 0.9539
vn 0.0456 -0.2079 0.9771
vn -0.2071 -0.1791 0.9618
vn -0.3845 -0.1440 0.9118
vn -0.3617 -0.1583 0.9188
vn -0.1704 -0.2214 0.9602
vn 0.0237 -0.2851 0.9582
vn 0.0120 -0.3011 0.9535
vn -0.1402 -0.2474 0.9587
vn -0.2496 -0.1997 0.9475
vn -0.2555 -0.1512 0.9549
vn -0.2079 -0.1396 0.9681
vn -0.2063 -0.1514 0.9667
vn -0.2667 -0.1543 0.9513
vn -0.2736 -0.1598 0.9485
vn -0.1943 -0.1655 0.9669
vn 0.1215 -0.2624 0.9573
vn -0.0308 -0.3035 0.9523
vn 0.0882 -0.2329 0.9685
vn -0.1642 -0.1958 0.9668
vn -0.3673 -0.1280 0.9213
vn -0.3898 -0.1126 0.9140
vn -0.2424 -0.1711 0.9550
vn -0.0420 -0.2694 0.9621
vn 0.0077 -0.3284 0.9445
vn -0.0953 -0.3006 0.9490
vn -0.1762 -0.2608 0.9492
vn -0.1907 -0.1763 0.9657
vn -0.2094 -0.1184 0.9706
vn -0.2410 -0.1265 0.9623
vn -0.2810 -0.1498 0.9479
vn -0.2793 -0.1517 0.9481
vn -0.1951 -0.1703 0.9659
vn 0.1536 -0.2649 0.9520
vn 0.0175 -0.3189 0.9476
vn 0.1133 -0.2620 0.9584
vn -0.1097 -0.2421 0.9640
vn -0.3203 -0.1478 0.9357
vn -0.3961 -0.1001 0.9127
vn -0.3139 -0.1401 0.9391
vn -0.1375 -0.2532 0.9576
vn -0.0225 -0.3383 0.9408
vn -0.0691 -0.3268 0.9426
vn -0.1223 -0.3003 0.9460
vn -0.1102 -0.2569 0.9601
vn -0.1587 -0.1834 0.9701
vn -0.2401 -0.1272 0.9624
vn -0.2930 -0.1199 0.9486
vn -0.2914 -0.1254 0.9484
vn -0.2181 -0.1482 0.9646
vn 0.1800 -0.2675 0.9466
vn 0.0887 -0.3144 0.9451
vn 0.1118 -0.3066 0.9453
vn -0.0518 -0.2992 0.9528
vn -0.2446 -0.1884 0.9511
vn -0.3828 -0.1185 0.9162
vn -0.3742 -0.1442 0.9160
vn -0.2381 -0.2495 0.9386
vn -0.0698 -0.3362 0.9392
vn -0.0547 -0.3431 0.9377
vn -0.1006 -0.3108 0.9451
vn -0.0656 -0.3107 0.9482
vn -0.0768 -0.2826 0.9561
vn -0.1808 -0.1977 0.9634
vn -0.2822 -0.1228 0.9515
vn -0.3044 -0.1147 0.9456
vn -0.2467 -0.1395 0.9590
vn 0.1604 -0.2841 0.9453
vn 0.1497 -0.2931 0.9443
vn 0.0808 -0.3575 0.9304
vn 0.0116 -0.3530 0.9355
vn -0.1504 -0.2571 0.9546
vn -0.3614 -0.1578 0.9190
vn -0.4211 -0.1503 0.8945
vn -0.3178 -0.2160 0.9232
vn -0.1172 -0.3058 0.9448
vn -0.0414 -0.3542 0.9343
vn -0.0859 -0.3221 0.9428
vn -0.0769 -0.3292 0.9411
vn -0.0388 -0.3398 0.9397
vn -0.0792 -0.2779 0.9573
vn -0.2168 -0.1579 0.9634
vn -0.3063 -0.1034 0.9463
vn -0.2750 -0.1109 0.9550
vn 0.1091 -0.3262 0.9390
vn 0.1705 -0.2835 0.9437
vn 0.0380 -0.3988 0.9163
vn 0.0556 -0.3969 0.9162
vn -0.0483 -0.3396 0.9393
vn -0.2945 -0.2193 0.9302
vn -0.4225 -0.1281 0.8973
vn -0.3750 -0.1419 0.9161
vn -0.2075 -0.2518 0.9453
vn -0.0711 -0.3561 0.9317
vn -0.0718 -0.3536 0.9326
vn -0.0833 -0.3449 0.9349
vn -0.0198 -0.3464 0.9379
vn 0.0095 -0.3119 0.9501
vn -0.1120 -0.2145 0.9703
vn -0.2631 -0.0982 0.9597
vn -0.2900 -0.0713 0.9544
vn 0.0326 -0.3603 0.9323
vn 0.1260 -0.3011 0.9452
vn 0.0010 -0.4045 0.9145
vn 0.0783 -0.4077 0.9098
vn 0.0368 -0.3747 0.9264
vn -0.1657 -0.2665 0.9495
vn -0.3590 -0.1530 0.9207
vn -0.4195 -0.1407 0.8968
vn -0.3230 -0.2248 0.9193
vn -0.1454 -0.3511 0.9250
vn -0.0714 -0.3921 0.9172
vn -0.0663 -0.3759 0.9243
vn -0.0006 -0.3548 0.9349
vn 0.0616 -0.3333 0.9408
vn 0.0010 -0.2806 0.9598
vn -0.1725 -0.1581 0.9722
vn -0.2843 -0.0933 0.9542
vn -0.0069 -0.3715 0.9284
vn 0.0711 -0.3353 0.9394
vn -0.0187 -0.3844 0.9230
vn 0.0903 -0.3892 0.9167
vn 0.1075 -0.3595 0.9269
vn -0.0750 -0.2763 0.9581
vn -0.3207 -0.2077 0.9241
vn -0.4303 -0.1911 0.8822
vn -0.3940 -0.2246 0.8912
vn -0.2372 -0.3280 0.9144
vn -0.0947 -0.4037 0.9100
vn -0.0377 -0.4007 0.9154
vn 0.0291 -0.3665 0.9299
vn 0.0909 -0.3392 0.9363
vn 0.0721 -0.3137 0.9468
vn -0.0769 -0.2422 0.9672
vn -0.2207 -0.1749 0.9595
vt 0.015625 0.015625
vt 0.076172 0.015625
vt 0.076172 0.076172
vt 0.015625 0.076172
vt 0.136719 0.015625
vt 0.136719 0.076172
vt 0.197266 0.015625
vt 0.197266 0.076172
vt 0.257812 0.015625
vt 0.257812 0.076172
vt 0.318359 0.015625
vt 0.318359 0.076172
vt 0.378906 0.015625
vt 0.378906 0.076172
vt 0.439453 0.015625
vt 0.439453 0.076172
vt 0.500000 0.015625
vt 0.500000 0.076172
vt 0.560547 0.015625
vt 0.560547 0.076172
vt 0.621094 0.015625
vt 0.621094 0.076172
vt 0.681641 0.015625
vt 0.681641 0.076172
vt 0.742188 0.015625
vt 0.742188 0.076172
vt 0.802734 0.015625
vt 0.802734 0.076172
vt 0.863281 0.015625
vt 0.863281 0.076172
vt 0.923828 0.015625
vt 0.923828 0.076172
vt 0.984375 0.015625
vt 0.984375 0.076172
vt 0.076172 0.136719
vt 0.015625 0.136719
vt 0.136719 0.136719
vt 0.197266 0.136719
vt 0.257812 0.136719
vt 0.318359 0.136719
vt 0.378906 0.136719
vt 0.439453 0.136719
vt 0.500000 0.136719
vt 0.560547 0.136719
vt 0.621094 0.136719
vt 0.681641 0.136719
vt 0.742188 0.136719
vt 0.802734 0.136719
vt 0.863281 0.136719
vt 0.923828 0.136719
vt 0.984375 0.136719
vt 0.076172 0.197266
vt 0.015625 0.197266
vt 0.136719 0.197266
vt 0.197266 0.197266
vt 0.257812 0.197266
vt 0.318359 0.197266
vt 0.378906 0.197266
vt 0.439453 0.197266
vt 0.500000 0.197266
vt 0.560547 0.197266
vt 0.621094 0.197266
vt 0.681641 0.197266
vt 0.742188 0.197266
vt 0.802734 0.197266
vt 0.863281 0.197266
vt 0.923828 0.197266
vt 0.984375 0.197266
vt 0.076172 0.257812
vt 0.015625 0.257812
vt 0.136719 0.257812
vt 0.197266 0.257812
vt 0.257812 0.257812
vt 0.318359 0.257812
vt 0.378906 0.257812
vt 0.439453 0.257812
vt 0.500000 0.257812
vt 0.560547 0.257812
vt 0.621094 0.257812
vt 0.681641 0.257812
vt 0.742188 0.257812
vt 0.802734 0.257812
vt 0.863281 0.257812
vt 0.923828 0.257812
vt 0.984375 0.257812
vt 0.076172 0.318359
vt 0.015625 0.318359
vt 0.136719 0.318359
vt 0.197266 0.318359
vt 0.257812 0.318359
vt 0.318359 0.318359
vt 0.378906 0.318359
vt 0.439453 0.318359
vt 0.500000 0.318359
vt 0.560547 0.318359
vt 0.621094 0.318359
vt 0.681641 0.318359
vt 0.742188 0.318359
vt 0.802734 0.318359
vt 0.863281 0.318359
vt 0.923828 0.318359
vt 0.984375 0.318359
vt 0.076172 0.378906
vt 0.015625 0.378906
vt 0.136719 0.378906
vt 0.197266 0.378906
vt 0.257812 0.378906
vt 0.318359 0.378906
vt 0.378906 0.378906
vt 0.439453 0.378906
vt 0.500000 0.378906
vt 0.560547 0.378906
vt 0.621094 0.378906
vt 0.681641 0.378906
vt 0.742188 0.378906
vt 0.802734 0.378906
vt 0.863281 0.378906
vt 0.923828 0.378906
vt 0.984375 0.378906
vt 0.076172 0.439453
vt 0.015625 0.439453
vt 0.136719 0.439453
vt 0.197266 0.439453
vt 0.257812 0.439453
vt 0.318359 0.439453
vt 0.378906 0.439453
vt 0.439453 0.439453
vt 0.500000 0.439453
vt 0.560547 0.439453
vt 0.621094 0.439453
vt 0.681641 0.439453
vt 0.742188 0.439453
vt 0.802734 0.439453
vt 0.863281 0.439453
vt 0.923828 0.439453
vt 0.984375 0.439453
vt 0.076172 0.500000
vt 0.015625 0.500000
vt 0.136719 0.500000
vt 0.197266 0.500000
vt 0.257812 0.500000
vt 0.318359 0.500000
vt 0.378906 0.500000
vt 0.439453 0.500000
vt 0.500000 0.500000
vt 0.560547 0.500000
vt 0.621094 0.500000
vt 0.681641 0.500000
vt 0.742188 0.500000
vt 0.802734 0.500000
vt 0.863281 0.500000
vt 0.923828 0.500000
vt 0.984375 0.500000
vt 0.076172 0.560547
vt 0.015625 0.560547
vt 0.136719 0.560547
vt 0.197266 0.560547
vt 0.257812 0.560547
vt 0.318359 0.560547
vt 0.378906 0.560547
vt 0.439453 0.560547
vt 0.500000 0.560547
vt 0.560547 0.560547
vt 0.621094 0.560547
vt 0.681641 0.560547
vt 0.742188 0.560547
vt 0.802734 0.560547
vt 0.863281 0.560547
vt 0.923828 0.560547
vt 0.984375 0.560547
vt 0.076172 0.621094
vt 0.015625 0.621094
vt 0.136719 0.621094
vt 0.197266 0.621094
vt 0.257812 0.621094
vt 0.318359 0.621094
vt 0.378906 0.621094
vt 0.439453 0.621094
vt 0.500000 0.621094
vt 0.560547 0.621094
vt 0.621094 0.621094
vt 0.681641 0.621094
vt 0.742188 0.621094
vt 0.802734 0.621094
vt 0.863281 0.621094
vt 0.923828 0.621094
vt 0.984375 0.621094
vt 0.076172 0.681641
vt 0.015625 0.681641
vt 0.136719 0.681641
vt 0.197266 0.681641
vt 0.257812 0.681641
vt 0.318359 0.681641
vt 0.378906 0.681641
vt 0.439453 0.681641
vt 0.500000 0.681641
vt 0.560547 0.681641
vt 0.621094 0.681641
vt 0.681641 0.681641
vt 0.742188 0.681641
vt 0.802734 0.681641
vt 0.863281 0.681641
vt 0.923828 0.681641
vt 0.984375 0.681641
vt 0.076172 0.742188
vt 0.015625 0.742188
vt 0.136719 0.742188
vt 0.197266 0.742188
vt 0.257812 0.742188
vt 0.318359 0.742188
vt 0.378906 0.742188
vt 0.439453 0.742188
vt 0.500000 0.742188
vt 0.560547 0.742188
vt 0.621094 0.742188
vt 0.681641 0.742188
vt 0.742188 0.742188
vt 0.802734 0.742188
vt 0.863281 0.742188
vt 0.923828 0.742188
vt 0.984375 0.742188
vt 0.076172 0.802734
vt 0.015625 0.802734
vt 0.136719 0.802734
vt 0.197266 0.802734
vt 0.257812 0.802734
vt 0.318359 0.802734
vt 0.378906 0.802734
vt 0.439453 0.802734
vt 0.500000 0.802734
vt 0.560547 0.802734
vt 0.621094 0.802734
vt 0.681641 0.802734
vt 0.742188 0.802734
vt 0.802734 0.802734
vt 0.863281 0.802734
vt 0.923828 0.802734
vt 0.984375 0.802734
vt 0.076172 0.863281
vt 0.015625 0.863281
vt 0.136719 0.863281
vt 0.197266 0.863281
vt 0.257812 0.863281
vt 0.318359 0.863281
vt 0.378906 0.863281
vt 0.439453 0.863281
vt 0.500000 0.863281
vt 0.560547 0.863281
vt 0.621094 0.863281
vt 0.681641 0.863281
vt 0.742188 0.863281
vt 0.802734 0.863281
vt 0.863281 0.863281
vt 0.923828 0.863281
vt 0.984375 0.863281
vt 0.076172 0.923828
vt 0.015625 0.923828
vt 0.136719 0.923828
vt 0.197266 0.923828
vt 0.257812 0.923828
vt 0.318359 0.923828
vt 0.378906 0.923828
vt 0.439453 0.923828
vt 0.500000 0.923828
vt 0.560547 0.923828
vt 0.621094 0.923828
vt 0.681641 0.923828
vt 0.742188 0.923828
vt 0.802734 0.923828
vt 0.863281 0.923828
vt 0.923828 0.923828
vt 0.984375 0.923828
vt 0.076172 0.984375
vt 0.015625 0.984375
vt 0.136719 0.984375
vt 0.197266 0.984375
vt 0.257812 0.984375
vt 0.318359 0.984375
vt 0.378906 0.984375
vt 0.439453 0.984375
vt 0.500000 0.984375
vt 0.560547 0.984375
vt 0.621094 0.984375
vt 0.681641 0.984375
vt 0.742188 0.984375
vt 0.802734 0.984375
vt 0.863281 0.984375
vt 0.923828 0.984375
vt 0.984375 0.984375
s 1
f 1/1/1 2/2/2 19/3/3
f 1/1/1 19/3/3 18/4/4
f 2/2/2 3/5/5 20/6/6
f 2/2/2 20/6/6 19/3/3
f 3/5/5 4/7/7 21/8/8
f 3/5/5 21/8/8 20/6/6
f 4/7/7 5/9/9 22/10/10
f 4/7/7 22/10/10 21/8/8
f 5/9/9 6/11/11 23/12/12
f 5/9/9 23/12/12 22/10/10
f 6/11/11 7/13/13 24/14/14
f 6/11/11 24/14/14 23/12/12
f 7/13/13 8/15/15 25/16/16
f 7/13/13 25/16/16 24/14/14
f 8/15/15 9/17/17 26/18/18
f 8/15/15 26/18/18 25/16/16
f 9/17/17 10/19/19 27/20/20
f 9/17/17 27/20/20 26/18/18
f 10/19/19 11/21/21 28/22/22
f 10/19/19 28/22/22 27/20/20
f 11/21/21 12/23/23 29/24/24
f 11/21/21 29/24/24 28/22/22
f 12/23/23 13/25/25 30/26/26
f 12/23/23 30/26/26 29/24/24
f 13/25/25 14/27/27 31/28/28
f 13/25/25 31/28/28 30/26/26
f 14/27/27 15/29/29 32/30/30
f 14/27/27 32/30/30 31/28/28
f 15/29/29 16/31/31 33/32/32
f 15/29/29 33/32/32 32/30/30
f 16/31/31 17/33/33 34/34/34
f 16/31/31 34/34/34 33/32/32
f 18/4/4 19/3/3 36/35/35
f 18/4/4 36/35/35 35/36/36
f 19/3/3 20/6/6 37/37/37
f 19/3/3 37/37/37 36/35/35
f 20/6/6 21/8/8 38/38/38
f 20/6/6 38/38/38 37/37/37
f 21/8/8 22/10/10 39/39/39
f 21/8/8 39/39/39 38/38/38
f 22/10/10 23/12/12 40/40/40
f 22/10/10 40/40/40 39/39/39
f 23/12/12 24/14/14 41/41/41
f 23/12/12 41/41/41 40/40/40
f 24/14/14 25/16/16 42/42/42
f 24/14/14 42/42/42 41/41/41
f 25/16/16 26/18/18 43/43/43
f 25/16/16 43/43/43 42/42/42
f 26/18/18 27/20/20 44/44/44
f 26/18/18 44/44/44 43/43/43
f 27/20/20 28/22/22 45/45/45
f 27/20/20 45/45/45 44/44/44
f 28/22/22 29/24/24 46/46/46
f 28/22/22 46/46/46 45/45/45
f 29/24/24 30/26/26 47/47/47
f 29/24/24 47/47/47 46/46/46
f 30/26/26 31/28/28 48/48/48
f 30/26/26 48/48/48 47/47/47
f 31/28/28 32/30/30 49/49/49
f 31/28/28 49/49/49 48/48/48
f 32/30/30 33/32/32 50/50/50
f 32/30/30 50/50/50 49/49/49
f 33/32/32 34/34/34 51/51/51
f 33/32/32 51/51/51 50/50/50
f 35/36/36 36/35/35 53/52/52
f 35/36/36 53/52/52 52/53/53
f 36/35/35 37/37/37 54/54/54
f 36/35/35 54/54/54 53/52/52
f 37/37/37 38/38/38 55/55/55
f 37/37/37 55/55/55 54/54/54
f 38/38/38 39/39/39 56/56/56
f 38/38/38 56/56/56 55/55/55
f 39/39/39 40/40/40 57/57/57
f 39/39/39 57/57/57 56/56/56
f 40/40/40 41/41/41 58/58/58
f 40/40/40 58/58/58 57/57/57
f 41/41/41 42/42/42 59/59/59
f 41/41/41 59/59/59 58/58/58
f 42/42/42 43/43/43 60/60/60
f 42/42/42 60/60/60 59/59/59
f 43/43/43 44/44/44 61/61/61
f 43/43/43 61/61/61 60/60/60
f 44/44/44 45/45/45 62/62/62
f 44/44/44 62/62/62 61/61/61
f 45/45/45 46/46/46 63/63/63
f 45/45/45 63/63/63 62/62/62
f 46/46/46 47/47/47 64/64/64
f 46/46/46 64/64/64 63/63/63
f 47/47/47 48/48/48 65/65/65
f 47/47/47 65/65/65 64/64/64
f 48/48/48 49/49/49 66/66/66
f 48/48/48 66/66/66 65/65/65
f 49/49/49 50/50/50 67/67/67
f 49/49/49 67/67/67 66/66/66
f 50/50/50 51/51/51 68/68/68
f 50/50/50 68/68/68 67/67/67
f 52/53/53 53/52/52 70/69/69
f 52/53/53 70/69/69 69/70/70
f 53/52/52 54/54/54 71/71/71
f 53/52/52 71/71/71 70/69/69
f 54/54/54 55/55/55 72/72/72
f 54/54/54 72/72/72 71/71/71
f 55/55/55 56/56/56 73/73/73
f 55/55/55 73/73/73 72/72/72
f 56/56/56 57/57/57 74/74/74
f 56/56/56 74/74/74 73/73/73
f 57/57/57 58/58/58 75/75/75
f 57/57/57 75/75/75 74/74/74
f 58/58/58 59/59/59 76/76/76
f 58/58/58 76/76/76 75/75/75
f 59/59/59 60/60/60 77/77/77
f 59/59/59 77/77/77 76/76/76
f 60/60/60 61/61/61 78/78/78
f 60/60/60 78/78/78 77/77/77
f 61/61/61 62/62/62 79/79/79
f 61/61/61 79/79/79 78/78/78
f 62/62/62 63/63/63 80/80/80
f 62/62/62 80/80/80 79/79/79
f 63/63/63 64/64/64 81/81/81
f 63/63/63 81/81/81 80/80/80
f 64/64/64 65/65/65 82/82/82
f 64/64/64 82/82/82 81/81/81
f 65/65/65 66/66/66 83/83/83
f 65/65/65 83/83/83 82/82/82
f 66/66/66 67/67/67 84/84/84
f 66/66/66 84/84/84 83/83/83
f 67/67/67 68/68/68 85/85/85
f 67/67/67 85/85/85 84/84/84
f 69/70/70 70/69/69 87/86/86
f 69/70/70 87/86/86 86/87/87
f 70/69/69 71/71/71 88/88/88
f 70/69/69 88/88/88 87/86/86
f 71/71/71 72/72/72 89/89/89
f 71/71/71 89/89/89 88/88/88
f 72/72/72 73/73/73 90/90/90
f 72/72/72 90/90/90 89/89/89
f 73/73/73 74/74/74 91/91/91
f 73/73/73 91/91/91 90/90/90
f 74/74/74 75/75/75 92/92/92
f 74/74/74 92/92/92 91/91/91
f 75/75/75 76/76/76 93/93/93
f 75/75/75 93/93/93 92/92/92
f 76/76/76 77/77/77 94/94/94
f 76/76/76 94/94/94 93/93/93
f 77/77/77 78/78/78 95/95/95
f 77/77/77 95/95/95 94/94/94
f 78/78/78 79/79/79 96/96/96
f 78/78/78 96/96/96 95/95/95
f 79/79/79 80/80/80 97/97/97
f 79/79/79 97/97/97 96/96/96
f 80/80/80 81/81/81 98/98/98
f 80/80/80 98/98/98 97/97/97
f 81/81/81 82/82/82 99/99/99
f 81/81/81 99/99/99 98/98/98
f 82/82/82 83/83/83 100/100/100
f 82/82/82 100/100/100 99/99/99
f 83/83/83 84/84/84 101/101/101
f 83/83/83 101/101/101 100/100/100
f 84/84/84 85/85/85 102/102/102
f 84/84/84 102/102/102 101/101/101
f 86/87/87 87/86/86 104/103/103
f 86/87/87 104/103/103 103/104/104
f 87/86/86 88/88/88 105/105/105
f 87/86/86 105/105/105 104/103/103
f 88/88/88 89/89/89 106/106/106
f 88/88/88 106/106/106 105/105/105
f 89/89/89 90/90/90 107/107/107
f 89/89/89 107/107/107 106/106/106
f 90/90/90 91/91/91 108/108/108
f 90/90/90 108/108/108 107/107/107
f 91/91/91 92/92/92 109/109/109
f 91/91/91 109/109/109 108/108/108
f 92/92/92 93/93/93 110/110/110
f 92/92/92 110/110/110 109/109/109
f 93/93/93 94/94/94 111/111/111
f 93/93/93 111/111/111 110/110/110
f 94/94/94 95/95/95 112/112/112
f 94/94/94 112/112/112 111/111/111
f 95/95/95 96/96/96 113/113/113
f 95/95/95 113/113/113 112/112/112
f 96/96/96 97/97/97 114/114/114
f 96/96/96 114/114/114 113/113/113
f 97/97/97 98/98/98 115/115/115
f 97/97/97 115/115/115 114/114/114
f 98/98/98 99/99/99 116/116/116
f 98/98/98 116/116/116 115/115/115
f 99/99/99 100/100/100 117/117/117
f 99/99/99 117/117/117 116/116/116
f 100/100/100 101/101/101 118/118/118
f 100/100/100 118/118/118 117/117/117
f 101/101/101 102/102/102 119/119/119
f 101/101/101 119/119/119 118/118/118
f 103/104/104 104/103/103 121/120/120
f 103/104/104 121/120/120 120/121/121
f 104/103/103 105/105/105 122/122/122
f 104/103/103 122/122/122 121/120/120
f 105/105/105 106/106/106 123/123/123
f 105/105/105 123/123/123 122/122/122
f 106/106/106 107/107/107 124/124/124
f 106/106/106 124/124/124 123/123/123
f 107/107/107 108/108/108 125/125/125
f 107/107/107 125/125/125 124/124/124
f 108/108/108 109/109/109 126/126/126
f 108/108/108 126/126/126 125/125/125
f 109/109/109 110/110/110 127/127/127
f 109/109/109 127/127/127 126/126/126
f 110/110/110 111/111/111 128/128/128
f 110/110/110 128/128/128 127/127/127
f 111/111/111 112/112/112 129/129/129
f 111/111/111 129/129/129 128/128/128
f 112/112/112 113/113/113 130/130/130
f 112/112/112 130/130/130 129/129/129
f 113/113/113 114/114/114 131/131/131
f 113/113/113 131/131/131 130/130/130
f 114/114/114 115/115/115 132/132/132
f 114/114/114 132/132/132 131/131/131
f 115/115/115 116/116/116 133/133/133
f 115/115/115 133/133/133 132/132/132
f 116/116/116 117/117/117 134/134/134
f 116/116/116 134/134/134 133/133/133
f 117/117/117 118/118/118 135/135/135
f 117/117/117 135/135/135 134/134/134
f 118/118/118 119/119/119 136/136/136
f 118/118/118 136/136/136 135/135/135
f 120/121/121 121/120/120 138/137/137
f 120/121/121 138/137/137 137/138/138
f 121/120/120 122/122/122 139/139/139
f 121/120/120 139/139/139 138/137/137
f 122/122/122 123/123/123 140/140/140
f 122/122/122 140/140/140 139/139/139
f 123/123/123 124/124/124 141/141/141
f 123/123/123 141/141/141 140/140/140
f 124/124/124 125/125/125 142/142/142
f 124/124/124 142/142/142 141/141/141
f 125/125/125 126/126/126 143/143/143
f 125/125/125 143/143/143 142/142/142
f 126/126/126 127/127/127 144/144/144
f 126/126/126 144/144/144 143/143/143
f 127/127/127 128/128/128 145/145/145
f 127/127/127 145/145/145 144/144/144
f 128/128/128 129/129/129 146/146/146
f 128/128/128 146/146/146 145/145/145
f 129/129/129 130/130/130 147/147/147
f 129/129/129 147/147/147 146/146/146
f 130/130/130 131/131/131 148/148/148
f 130/130/130 148/148/148 147/147/147
f 131/131/131 132/132/132 149/149/149
f 131/131/131 149/149/149 148/148/148
f 132/132/132 133/133/133 150/150/150
f 132/132/132 150/150/150 149/149/149
f 133/133/133 134/134/134 151/151/151
f 133/133/133 151/151/151 150/150/150
f 134/134/134 135/135/135 152/152/152
f 134/134/134 152/152/152 151/151/151
f 135/135/135 136/136/136 153/153/153
f 135/135/135 153/153/153 152/152/152
f 137/138/138 138/137/137 155/154/154
f 137/138/138 155/154/154 154/155/155
f 138/137/137 139/139/139 156/156/156
f 138/137/137 156/156/156 155/154/154
f 139/139/139 140/140/140 157/157/157
f 139/139/139 157/157/157 156/156/156
f 140/140/140 141/141/141 158/158/158
f 140/140/140 158/158/158 157/157/157
f 141/141/141 142/142/142 159/159/159
f 141/141/141 159/159/159 158/158/158
f 142/142/142 143/143/143 160/160/160
f 142/142/142 160/160/160 159/159/159
f 143/143/143 144/144/144 161/161/161
f 143/143/143 161/161/161 160/160/160
f 144/144/144 145/145/145 162/162/162
f 144/144/144 162/162/162 161/161/161
f 145/145/145 146/146/146 163/163/163
f 145/145/145 163/163/163 162/162/162
f 146/146/146 147/147/147 164/164/164
f 146/146/146 164/164/164 163/163/163
f 147/147/147 148/148/148 165/165/165
f 147/147/147 165/165/165 164/164/164
f 148/148/148 149/149/149 166/166/166
f 148/148/148 166/166/166 165/165/165
f 149/149/149 150/150/150 167/167/167
f 149/149/149 167/167/167 166/166/166
f 150/150/150 151/151/151 168/168/168
f 150/150/150 168/168/168 167/167/167
f 151/151/151 152/152/152 169/169/169
f 151/151/151 169/169/169 168/168/168
f 152/152/152 153/153/153 170/170/170
f 152/152/152 170/170/170 169/169/169
f 154/155/155 155/154/154 172/171/171
f 154/155/155 172/171/171 171/172/172
f 155/154/154 156/156/156 173/173/173
f 155/154/154 173/173/173 172/171/171
f 156/156/156 157/157/157 174/174/174
f 156/156/156 174/174/174 173/173/173
f 157/157/157 158/158/158 175/175/175
f 157/157/157 175/175/175 174/174/174
f 158/158/158 159/159/159 176/176/176
f 158/158/158 176/176/176 175/175/175
f 159/159/159 160/160/160 177/177/177
f 159/159/159 177/177/177 176/176/176
f 160/160/160 161/161/161 178/178/178
f 160/160/160 178/178/178 177/177/177
f 161/161/161 162/162/162 179/179/179
f 161/161/161 179/179/179 178/178/178
f 162/162/162 163/163/163 180/180/180
f 162/162/162 180/180/180 179/179/179
f 163/163/163 164/164/164 181/181/181
f 163/163/163 181/181/181 180/180/180
f 164/164/164 165/165/165 182/182/182
f 164/164/164 182/182/182 181/181/181
f 165/165/165 166/166/166 183/183/183
f 165/165/165 183/183/183 182/182/182
f 166/166/166 167/167/167 184/184/184
f 166/166/166 184/184/184 183/183/183
f 167/167/167 168/168/168 185/185/185
f 167/167/167 185/185/185 184/184/184
f 168/168/168 169/169/169 186/186/186
f 168/168/168 186/186/186 185/185/185
f 169/169/169 170/170/170 187/187/187
f 169/169/169 187/187/187 186/186/186
f 171/172/172 172/171/171 189/188/188
f 171/172/172 189/188/188 188/189/189
f 172/171/171 173/173/173 190/190/190
f 172/171/171 190/190/190 189/188/188
f 173/173/173 174/174/174 191/191/191
f 173/173/173 191/191/191 190/190/190
f 174/174/174 175/175/175 192/192/192
f 174/174/174 192/192/192 191/191/191
f 175/175/175 176/176/176 193/193/193
f 175/175/175 193/193/193 192/192/192
f 176/176/176 177/177/177 194/194/194
f 176/176/176 194/194/194 193/193/193
f 177/177/177 178/178/178 195/195/195
f 177/177/177 195/195/195 194/194/194
f 178/178/178 179/179/179 196/196/196
f 178/178/178 196/196/196 195/195/195
f 179/179/179 180/180/180 197/197/197
f 179/179/179 197/197/197 196/196/196
f 180/180/180 181/181/181 198/198/198
f 180/180/180 198/198/198 197/197/197
f 181/181/181 182/182/182 199/199/199
f 181/181/181 199/199/199 198/198/198
f 182/182/182 183/183/183 200/200/200
f 182/182/182 200/200/200 199/199/199
f 183/183/183 184/184/184 201/201/201
f 183/183/183 201/201/201 200/200/200
f 184/184/184 185/185/185 202/202/202
f 184/184/184 202/202/202 201/201/201
f 185/185/185 186/186/186 203/203/203
f 185/185/185 203/203/203 202/202/202
f 186/186/186 187/187/187 204/204/204
f 186/186/186 204/204/204 203/203/203
f 188/189/189 189/188/188 206/205/205
f 188/189/189 206/205/205 205/206/206
f 189/188/188 190/190/190 207/207/207
f 189/188/188 207/207/207 206/205/205
f 190/190/190 191/191/191 208/208/208
f 190/190/190 208/208/208 207/207/207
f 191/191/191 192/192/192 209/209/209
f 191/191/191 209/209/209 208/208/208
f 192/192/192 193/193/193 210/210/210
f 192/192/192 210/210/210 209/209/209
f 193/193/193 194/194/194 211/211/211
f 193/193/193 211/211/211 210/210/210
f 194/194/194 195/195/195 212/212/212
f 194/194/194 212/212/212 211/211/211
f 195/195/195 196/196/196 213/213/213
f 195/195/195 213/213/213 212/212/212
f 196/196/196 197/197/197 214/214/214
f 196/196/196 214/214/214 213/213/213
f 197/197/197 198/198/198 215/215/215
f 197/197/197 215/215/215 214/214/214
f 198/198/198 199/199/199 216/216/216
f 198/198/198 216/216/216 215/215/215
f 199/199/199 200/200/200 217/217/217
f 199/199/199 217/217/217 216/216/216
f 200/200/200 201/201/201 218/218/218
f 200/200/200 218/218/218 217/217/217
f 201/201/201 202/202/202 219/219/219
f 201/201/201 219/219/219 218/218/218
f 202/202/202 203/203/203 220/220/220
f 202/202/202 220/220/220 219/219/219
f 203/203/203 204/204/204 221/221/221
f 203/203/203 221/221/221 220/220/220
f 205/206/206 206/205/205 223/222/222
f 205/206/206 223/222/222 222/223/223
f 206/205/205 207/207/207 224/224/224
f 206/205/205 224/224/224 223/222/222
f 207/207/207 208/208/208 225/225/225
f 207/207/207 225/225/225 224/224/224
f 208/208/208 209/209/209 226/226/226
f 208/208/208 226/226/226 225/225/225
f 209/209/209 210/210/210 227/227/227
f 209/209/209 227/227/227 226/226/226
f 210/210/210 211/211/211 228/228/228
f 210/210/210 228/228/228 227/227/227
f 211/211/211 212/212/212 229/229/229
f 211/211/211 229/229/229 228/228/228
f 212/212/212 213/213/213 230/230/230
f 212/212/212 230/230/230 229/229/229
f 213/213/213 214/214/214 231/231/231
f 213/213/213 231/231/231 230/230/230
f 214/214/214 215/215/215 232/232/232
f 214/214/214 232/232/232 231/231/231
f 215/215/215 216/216/216 233/233/233
f 215/215/215 233/233/233 232/232/232
f 216/216/216 217/217/217 234/234/234
f 216/216/216 234/234/234 233/233/233
f 217/217/217 218/218/218 235/235/235
f 217/217/217 235/235/235 234/234/234
f 218/218/218 219/219/219 236/236/236
f 218/218/218 236/236/236 235/235/235
f 219/219/219 220/220/220 237/237/237
f 219/219/219 237/237/237 236/236/236
f 220/220/220 221/221/221 238/238/238
f 220/220/220 238/238/238 237/237/237
f 222/223/223 223/222/222 240/239/239
f 222/223/223 240/239/239 239/240/240
f 223/222/222 224/224/224 241/241/241
f 223/222/222 241/241/241 240/239/239
f 224/224/224 225/225/225 242/242/242
f 224/224/224 242/242/242 241/241/241
f 225/225/225 226/226/226 243/243/243
f 225/225/225 243/243/243 242/242/242
f 226/226/226 227/227/227 244/244/244
f 226/226/226 244/244/244 243/243/243
f 227/227/227 228/228/228 245/245/245
f 227/227/227 245/245/245 244/244/244
f 228/228/228 229/229/229 246/246/246
f 228/228/228 246/246/246 245/245/245
f 229/229/229 230/230/230 247/247/247
f 229/229/229 247/247/247 246/246/246
f 230/230/230 231/231/231 248/248/248
f 230/230/230 248/248/248 247/247/247
f 231/231/231 232/232/232 249/249/249
f 231/231/231 249/249/249 248/248/248
f 232/232/232 233/233/233 250/250/250
f 232/232/232 250/250/250 249/249/249
f 233/233/233 234/234/234 251/251/251
f 233/233/233 251/251/251 250/250/250
f 234/234/234 235/235/235 252/252/252
f 234/234/234 252/252/252 251/251/251
f 235/235/235 236/236/236 253/253/253
f 235/235/235 253/253/253 252/252/252
f 236/236/236 237/237/237 254/254/254
f 236/236/236 254/254/254 253/253/253
f 237/237/237 238/238/238 255/255/255
f 237/237/237 255/255/255 254/254/254
f 239/240/240 240/239/239 257/256/256
f 239/240/240 257/256/256 256/257/257
f 240/239/239 241/241/241 258/258/258
f 240/239/239 258/258/258 257/256/256
f 241/241/241 242/242/242 259/259/259
f 241/241/241 259/259/259 258/258/258
f 242/242/242 243/243/243 260/260/260
f 242/242/242 260/260/260 259/259/259
f 243/243/243 244/244/244 261/261/261
f 243/243/243 261/261/261 260/260/260
f 244/244/244 245/245/245 262/262/262
f 244/244/244 262/262/262 261/261/261
f 245/245/245 246/246/246 263/263/263
f 245/245/245 263/263/263 262/262/262
f 246/246/246 247/247/247 264/264/264
f 246/246/246 264/264/264 263/263/263
f 247/247/247 248/248/248 265/265/265
f 247/247/247 265/265/265 264/264/264
f 248/248/248 249/249/249 266/266/266
f 248/248/248 266/266/266 265/265/265
f 249/249/249 250/250/250 267/267/267
f 249/249/249 267/267/267 266/266/266
f 250/250/250 251/251/251 268/268/268
f 250/250/250 268/268/268 267/267/267
f 251/251/251 252/252/252 269/269/269
f 251/251/251 269/269/269 268/268/268
f 252/252/252 253/253/253 270/270/270
f 252/252/252 270/270/270 269/269/269
f 253/253/253 254/254/254 271/271/271
f 253/253/253 271/271/271 270/270/270
f 254/254/254 255/255/255 272/272/272
f 254/254/254 272/272/272 271/271/271
f 256/257/257 257/256/256 274/273/273
f 256/257/257 274/273/273 273/274/274
f 257/256/256 258/258/258 275/275/275
f 257/256/256 275/275/275 274/273/273
f 258/258/258 259/259/259 276/276/276
f 258/258/258 276/276/276 275/275/275
f 259/259/259 260/260/260 277/277/277
f 259/259/259 277/277/277 276/276/276
f 260/260/260 261/261/261 278/278/278
f 260/260/260 278/278/278 277/277/277
f 261/261/261 262/262/262 279/279/279
f 261/261/261 279/279/279 278/278/278
f 262/262/262 263/263/263 280/280/280
f 262/262/262 280/280/280 279/279/279
f 263/263/263 264/264/264 281/281/281
f 263/263/263 281/281/281 280/280/280
f 264/264/264 265/265/265 282/282/282
f 264/264/264 282/282/282 281/281/281
f 265/265/265 266/266/266 283/283/283
f 265/265/265 283/283/283 282/282/282
f 266/266/266 267/267/267 284/284/284
f 266/266/266 284/284/284 283/283/283
f 267/267/267 268/268/268 285/285/285
f 267/267/267 285/285/285 284/284/284
f 268/268/268 269/269/269 286/286/286
f 268/268/268 286/286/286 285/285/285
f 269/269/269 270/270/270 287/287/287
f 269/269/269 287/287/287 286/286/286
f 270/270/270 271/271/271 288/288/288
f 270/270/270 288/288/288 287/287/287
f 271/271/271 272/272/272 289/289/289
f 271/271/271 289/289/289 288/288/288
