mtllib terrain_far_01_04.mtl
usemtl terrain_far_01_04
# Blender 5.1.1
# www.blender.org
o terrain_far_01_04
v -144.000000 -144.000000 -9.418567
v -72.000000 -144.000000 -26.560474
v 0.000000 -144.000000 -21.490742
v 72.000000 -144.000000 -15.287829
v 144.000000 -144.000000 2.458874
v -144.000000 -72.000000 -1.914600
v -72.000000 -72.000000 -2.803363
v 0.000000 -72.000000 3.150403
v 72.000000 -72.000000 8.780011
v 144.000000 -72.000000 13.527966
v -144.000000 0.000000 10.684949
v -72.000000 0.000000 12.198773
v 0.000000 0.000000 19.938732
v 72.000000 0.000000 22.359325
v 144.000000 0.000000 18.215191
v -144.000000 72.000000 11.589765
v -72.000000 72.000000 4.486829
v 0.000000 72.000000 12.849347
v 72.000000 72.000000 11.976575
v 144.000000 72.000000 12.172650
v -144.000000 144.000000 -2.192188
v -72.000000 144.000000 -21.900623
v 0.000000 144.000000 -21.564716
v 72.000000 144.000000 -22.046009
v 144.000000 144.000000 -19.210285
vn 0.2617 -0.1617 0.9515
vn 0.0808 -0.2517 0.9644
vn -0.0341 -0.2596 0.9651
vn 0.1593 -0.1365 0.9778
vn -0.0742 -0.3093 0.9481
vn -0.0771 -0.2757 0.9582
vn -0.1566 -0.2984 0.9415
vn -0.0696 -0.2523 0.9651
vn -0.1968 -0.2033 0.9591
vn 0.0002 -0.1088 0.9941
vn -0.0640 -0.0504 0.9967
vn 0.0431 -0.0933 0.9947
vn -0.0702 -0.0670 0.9953
vn 0.0120 -0.0222 0.9997
vn 0.1715 0.0093 0.9851
vn -0.0085 0.2304 0.9731
vn 0.1225 0.0884 0.9885
vn -0.0499 0.2766 0.9597
vn 0.0045 0.2947 0.9556
vn 0.1315 0.2494 0.9594
vn 0.1214 0.4130 0.9026
vn 0.1929 0.3553 0.9146
vn 0.0009 0.4876 0.8731
vn -0.0145 0.4588 0.8884
vn 0.0165 0.4542 0.8907
vt 0.031250 0.031250
vt 0.265625 0.031250
vt 0.265625 0.265625
vt 0.031250 0.265625
vt 0.500000 0.031250
vt 0.500000 0.265625
vt 0.734375 0.031250
vt 0.734375 0.265625
vt 0.968750 0.031250
vt 0.968750 0.265625
vt 0.265625 0.500000
vt 0.031250 0.500000
vt 0.500000 0.500000
vt 0.734375 0.500000
vt 0.968750 0.500000
vt 0.265625 0.734375
vt 0.031250 0.734375
vt 0.500000 0.734375
vt 0.734375 0.734375
vt 0.968750 0.734375
vt 0.265625 0.968750
vt 0.031250 0.968750
vt 0.500000 0.968750
vt 0.734375 0.968750
vt 0.968750 0.968750
s 1
f 1/1/1 2/2/2 7/3/3
f 1/1/1 7/3/3 6/4/4
f 2/2/2 3/5/5 8/6/6
f 2/2/2 8/6/6 7/3/3
f 3/5/5 4/7/7 9/8/8
f 3/5/5 9/8/8 8/6/6
f 4/7/7 5/9/9 10/10/10
f 4/7/7 10/10/10 9/8/8
f 6/4/4 7/3/3 12/11/11
f 6/4/4 12/11/11 11/12/12
f 7/3/3 8/6/6 13/13/13
f 7/3/3 13/13/13 12/11/11
f 8/6/6 9/8/8 14/14/14
f 8/6/6 14/14/14 13/13/13
f 9/8/8 10/10/10 15/15/15
f 9/8/8 15/15/15 14/14/14
f 11/12/12 12/11/11 17/16/16
f 11/12/12 17/16/16 16/17/17
f 12/11/11 13/13/13 18/18/18
f 12/11/11 18/18/18 17/16/16
f 13/13/13 14/14/14 19/19/19
f 13/13/13 19/19/19 18/18/18
f 14/14/14 15/15/15 20/20/20
f 14/14/14 20/20/20 19/19/19
f 16/17/17 17/16/16 22/21/21
f 16/17/17 22/21/21 21/22/22
f 17/16/16 18/18/18 23/23/23
f 17/16/16 23/23/23 22/21/21
f 18/18/18 19/19/19 24/24/24
f 18/18/18 24/24/24 23/23/23
f 19/19/19 20/20/20 25/25/25
f 19/19/19 25/25/25 24/24/24
