mtllib terrain_mid_06_04.mtl
usemtl terrain_mid_06_04
# Blender 5.1.1
# www.blender.org
o terrain_mid_06_04
v -160.000000 -160.000000 62.929752
v -140.000000 -160.000000 45.760834
v -120.000000 -160.000000 31.998695
v -100.000000 -160.000000 22.274813
v -80.000000 -160.000000 15.512239
v -60.000000 -160.000000 8.668373
v -40.000000 -160.000000 3.070907
v -20.000000 -160.000000 0.483986
v 0.000000 -160.000000 0.597946
v 20.000000 -160.000000 2.178424
v 40.000000 -160.000000 3.808069
v 60.000000 -160.000000 5.020526
v 80.000000 -160.000000 4.988435
v 100.000000 -160.000000 3.367179
v 120.000000 -160.000000 -0.475378
v 140.000000 -160.000000 -6.826493
v 160.000000 -160.000000 -17.846228
v -160.000000 -140.000000 68.463768
v -140.000000 -140.000000 51.572567
v -120.000000 -140.000000 34.876522
v -100.000000 -140.000000 23.090397
v -80.000000 -140.000000 15.529369
v -60.000000 -140.000000 9.321518
v -40.000000 -140.000000 5.054997
v -20.000000 -140.000000 3.740178
v 0.000000 -140.000000 4.873221
v 20.000000 -140.000000 6.995169
v 40.000000 -140.000000 8.481152
v 60.000000 -140.000000 8.961498
v 80.000000 -140.000000 7.983742
v 100.000000 -140.000000 5.633129
v 120.000000 -140.000000 2.069768
v 140.000000 -140.000000 -3.305544
v 160.000000 -140.000000 -12.872499
v -160.000000 -120.000000 72.451653
v -140.000000 -120.000000 56.487484
v -120.000000 -120.000000 37.790737
v -100.000000 -120.000000 24.012300
v -80.000000 -120.000000 15.418882
v -60.000000 -120.000000 9.827858
v -40.000000 -120.000000 7.178112
v -20.000000 -120.000000 7.060118
v 0.000000 -120.000000 8.772926
v 20.000000 -120.000000 10.658472
v 40.000000 -120.000000 11.322759
v 60.000000 -120.000000 10.872740
v 80.000000 -120.000000 9.102808
v 100.000000 -120.000000 6.229938
v 120.000000 -120.000000 2.638107
v 140.000000 -120.000000 -2.055117
v 160.000000 -120.000000 -10.267146
v -160.000000 -100.000000 73.982643
v -140.000000 -100.000000 59.483742
v -120.000000 -100.000000 40.408241
v -100.000000 -100.000000 24.629759
v -80.000000 -100.000000 15.118690
v -60.000000 -100.000000 10.231348
v -40.000000 -100.000000 9.066926
v -20.000000 -100.000000 9.857176
v 0.000000 -100.000000 11.746986
v 20.000000 -100.000000 12.801885
v 40.000000 -100.000000 12.497583
v 60.000000 -100.000000 11.230840
v 80.000000 -100.000000 8.943974
v 100.000000 -100.000000 5.856165
v 120.000000 -100.000000 2.189898
v 140.000000 -100.000000 -2.106692
v 160.000000 -100.000000 -9.039153
v -160.000000 -80.000000 73.265099
v -140.000000 -80.000000 60.148579
v -120.000000 -80.000000 42.042263
v -100.000000 -80.000000 24.877378
v -80.000000 -80.000000 15.027966
v -60.000000 -80.000000 10.813739
v -40.000000 -80.000000 10.409889
v -20.000000 -80.000000 11.517311
v 0.000000 -80.000000 12.960563
v 20.000000 -80.000000 13.364697
v 40.000000 -80.000000 12.292614
v 60.000000 -80.000000 10.479035
v 80.000000 -80.000000 8.012266
v 100.000000 -80.000000 4.926912
v 120.000000 -80.000000 1.238211
v 140.000000 -80.000000 -2.907642
v 160.000000 -80.000000 -8.912227
v -160.000000 -60.000000 70.612846
v -140.000000 -60.000000 58.717068
v -120.000000 -60.000000 41.960842
v -100.000000 -60.000000 24.949780
v -80.000000 -60.000000 15.631318
v -60.000000 -60.000000 11.942374
v -40.000000 -60.000000 11.601784
v -20.000000 -60.000000 12.273720
v 0.000000 -60.000000 12.980433
v 20.000000 -60.000000 12.589184
v 40.000000 -60.000000 10.985417
v 60.000000 -60.000000 8.879745
v 80.000000 -60.000000 6.282428
v 100.000000 -60.000000 3.175630
v 120.000000 -60.000000 -0.534345
v 140.000000 -60.000000 -4.611344
v 160.000000 -60.000000 -9.964310
v -160.000000 -40.000000 66.147530
v -140.000000 -40.000000 54.942299
v -120.000000 -40.000000 39.522732
v -100.000000 -40.000000 24.962461
v -80.000000 -40.000000 17.035860
v -60.000000 -40.000000 13.560266
v -40.000000 -40.000000 12.529078
v -20.000000 -40.000000 12.202018
v 0.000000 -40.000000 11.780000
v 20.000000 -40.000000 10.510082
v 40.000000 -40.000000 8.648808
v 60.000000 -40.000000 6.410608
v 80.000000 -40.000000 3.687572
v 100.000000 -40.000000 0.456636
v 120.000000 -40.000000 -3.298444
v 140.000000 -40.000000 -7.437651
v 160.000000 -40.000000 -12.425377
v -160.000000 -20.000000 60.271889
v -140.000000 -20.000000 50.216320
v -120.000000 -20.000000 36.979034
v -100.000000 -20.000000 24.748770
v -80.000000 -20.000000 17.800997
v -60.000000 -20.000000 14.560063
v -40.000000 -20.000000 12.921819
v -20.000000 -20.000000 11.424545
v 0.000000 -20.000000 9.537670
v 20.000000 -20.000000 7.471712
v 40.000000 -20.000000 5.312539
v 60.000000 -20.000000 2.911951
v 80.000000 -20.000000 -0.012399
v 100.000000 -20.000000 -3.412681
v 120.000000 -20.000000 -7.339839
v 140.000000 -20.000000 -11.693056
v 160.000000 -20.000000 -16.743723
v -160.000000 0.000000 53.844650
v -140.000000 0.000000 45.348244
v -120.000000 0.000000 34.680084
v -100.000000 0.000000 24.403942
v -80.000000 0.000000 18.236794
v -60.000000 0.000000 14.845566
v -40.000000 0.000000 12.607108
v -20.000000 0.000000 10.048026
v 0.000000 0.000000 6.991677
v 20.000000 0.000000 3.944673
v 40.000000 0.000000 1.223495
v 60.000000 0.000000 -1.500701
v 80.000000 0.000000 -4.728565
v 100.000000 0.000000 -8.515681
v 120.000000 0.000000 -12.836665
v 140.000000 0.000000 -17.630692
v 160.000000 0.000000 -23.003630
v -160.000000 20.000000 47.086700
v -140.000000 20.000000 41.089027
v -120.000000 20.000000 32.838348
v -100.000000 20.000000 24.768356
v -80.000000 20.000000 18.478596
v -60.000000 20.000000 14.202099
v -40.000000 20.000000 11.286918
v -20.000000 20.000000 8.082633
v 0.000000 20.000000 4.115341
v 20.000000 20.000000 -0.014481
v 40.000000 20.000000 -3.576032
v 60.000000 20.000000 -6.878922
v 80.000000 20.000000 -10.665869
v 100.000000 20.000000 -14.978043
v 120.000000 20.000000 -19.882034
v 140.000000 20.000000 -25.407059
v 160.000000 20.000000 -31.743071
v -160.000000 40.000000 39.899685
v -140.000000 40.000000 36.688625
v -120.000000 40.000000 31.382240
v -100.000000 40.000000 24.991833
v -80.000000 40.000000 18.457924
v -60.000000 40.000000 12.833243
v -40.000000 40.000000 8.500236
v -20.000000 40.000000 4.509133
v 0.000000 40.000000 -0.050431
v 20.000000 40.000000 -4.694372
v 40.000000 40.000000 -9.054310
v 60.000000 40.000000 -13.311004
v 80.000000 40.000000 -17.888790
v 100.000000 40.000000 -22.944983
v 120.000000 40.000000 -28.611574
v 140.000000 40.000000 -34.842342
v 160.000000 40.000000 -44.055923
v -160.000000 60.000000 32.034653
v -140.000000 60.000000 31.496424
v -120.000000 60.000000 29.049545
v -100.000000 60.000000 24.524012
v -80.000000 60.000000 17.922415
v -60.000000 60.000000 11.037663
v -40.000000 60.000000 5.219385
v -20.000000 60.000000 0.344541
v 0.000000 60.000000 -4.715415
v 20.000000 60.000000 -9.713984
v 40.000000 60.000000 -14.738026
v 60.000000 60.000000 -19.999283
v 80.000000 60.000000 -25.456579
v 100.000000 60.000000 -31.203671
v 120.000000 60.000000 -37.659405
v 140.000000 60.000000 -46.125919
v 160.000000 60.000000 -58.590782
v -160.000000 80.000000 23.400476
v -140.000000 80.000000 24.620502
v -120.000000 80.000000 24.302942
v -100.000000 80.000000 22.057398
v -80.000000 80.000000 16.296377
v -60.000000 80.000000 9.045354
v -40.000000 80.000000 1.895804
v -20.000000 80.000000 -3.939265
v 0.000000 80.000000 -9.488853
v 20.000000 80.000000 -14.933521
v 40.000000 80.000000 -20.551298
v 60.000000 80.000000 -26.527563
v 80.000000 80.000000 -32.939503
v 100.000000 80.000000 -39.359547
v 120.000000 80.000000 -47.040115
v 140.000000 80.000000 -58.875660
v 160.000000 80.000000 -74.752937
v -160.000000 100.000000 15.044737
v -140.000000 100.000000 17.697901
v -120.000000 100.000000 18.421907
v -100.000000 100.000000 16.667423
v -80.000000 100.000000 11.747461
v -60.000000 100.000000 5.107271
v -40.000000 100.000000 -1.942283
v -20.000000 100.000000 -8.122052
v 0.000000 100.000000 -14.207379
v 20.000000 100.000000 -20.211855
v 40.000000 100.000000 -26.418682
v 60.000000 100.000000 -33.055523
v 80.000000 100.000000 -40.232086
v 100.000000 100.000000 -47.870514
v 120.000000 100.000000 -57.825768
v 140.000000 100.000000 -72.170036
v 160.000000 100.000000 -89.447739
v -160.000000 120.000000 6.940563
v -140.000000 120.000000 10.258530
v -120.000000 120.000000 11.335569
v -100.000000 120.000000 9.705680
v -80.000000 120.000000 5.455252
v -60.000000 120.000000 -0.250497
v -40.000000 120.000000 -6.692805
v -20.000000 120.000000 -12.825638
v 0.000000 120.000000 -19.233231
v 20.000000 120.000000 -25.721119
v 40.000000 120.000000 -32.562290
v 60.000000 120.000000 -39.735699
v 80.000000 120.000000 -47.441551
v 100.000000 120.000000 -56.082516
v 120.000000 120.000000 -67.724739
v 140.000000 120.000000 -83.154999
v 160.000000 120.000000 -99.522636
v -160.000000 140.000000 -1.287478
v -140.000000 140.000000 1.832470
v -120.000000 140.000000 2.826231
v -100.000000 140.000000 1.433985
v -80.000000 140.000000 -2.310217
v -60.000000 140.000000 -7.313960
v -40.000000 140.000000 -13.149477
v -20.000000 140.000000 -18.912621
v 0.000000 140.000000 -25.059647
v 20.000000 140.000000 -31.746347
v 40.000000 140.000000 -39.164093
v 60.000000 140.000000 -46.667877
v 80.000000 140.000000 -54.337460
v 100.000000 140.000000 -63.185127
v 120.000000 140.000000 -75.025787
v 140.000000 140.000000 -89.371262
v 160.000000 140.000000 -102.889275
v -160.000000 160.000000 -10.134151
v -140.000000 160.000000 -7.324553
v -120.000000 160.000000 -6.641977
v -100.000000 160.000000 -8.020930
v -80.000000 160.000000 -11.400915
v -60.000000 160.000000 -15.913434
v -40.000000 160.000000 -21.248184
v -20.000000 160.000000 -26.585539
v 0.000000 160.000000 -31.827103
v 20.000000 160.000000 -37.560997
v 40.000000 160.000000 -44.187717
v 60.000000 160.000000 -51.300362
v 80.000000 160.000000 -58.754086
v 100.000000 160.000000 -66.922401
v 120.000000 160.000000 -77.360687
v 140.000000 160.000000 -90.371712
v 160.000000 160.000000 -102.857155
vn 0.6029 -0.2118 0.7692
vn 0.6004 -0.1916 0.7764
vn 0.6299 -0.2012 0.7502
vn 0.5803 -0.1886 0.7922
vn 0.5032 -0.1114 0.8570
vn 0.5760 -0.1171 0.8090
vn 0.3808 -0.0355 0.9240
vn 0.4351 -0.0391 0.8995
vn 0.3220 0.0004 0.9467
vn 0.3255 0.0022 0.9455
vn 0.2969 -0.0210 0.9547
vn 0.2532 -0.0280 0.9670
vn 0.1998 -0.0779 0.9767
vn 0.1375 -0.1012 0.9853
vn 0.0611 -0.1406 0.9882
vn 0.0045 -0.1622 0.9867
vn -0.0415 -0.2023 0.9784
vn -0.0794 -0.1996 0.9766
vn -0.0776 -0.2449 0.9664
vn -0.0879 -0.2066 0.9745
vn -0.0685 -0.2557 0.9643
vn -0.0483 -0.1844 0.9817
vn -0.0286 -0.2371 0.9711
vn 0.0123 -0.1447 0.9894
vn 0.0404 -0.2041 0.9781
vn 0.0824 -0.1020 0.9914
vn 0.1330 -0.1831 0.9741
vn 0.1459 -0.0706 0.9868
vn 0.2417 -0.2044 0.9486
vn 0.2174 -0.0758 0.9731
vn 0.3863 -0.2438 0.8896
vn 0.3478 -0.1111 0.9310
vn 0.4878 -0.2601 0.8333
vn 0.4570 -0.1656 0.8739
vn 0.6477 -0.1478 0.7474
vn 0.5457 -0.1145 0.8301
vn 0.6267 -0.1067 0.7719
vn 0.4878 -0.0336 0.8723
vn 0.3342 0.0097 0.9425
vn 0.2017 -0.0223 0.9792
vn 0.0687 -0.0995 0.9927
vn -0.0393 -0.1511 0.9877
vn -0.0883 -0.1687 0.9817
vn -0.0630 -0.1433 0.9877
vn -0.0052 -0.0996 0.9950
vn 0.0553 -0.0566 0.9969
vn 0.1153 -0.0238 0.9930
vn 0.1595 -0.0055 0.9872
vn 0.2028 -0.0030 0.9792
vn 0.3069 -0.0285 0.9513
vn 0.4087 -0.0870 0.9085
vn 0.6413 -0.0699 0.7641
vn 0.4974 -0.0176 0.8673
vn 0.6548 -0.0799 0.7515
vn 0.5343 -0.0183 0.8451
vn 0.3387 0.0092 0.9409
vn 0.1495 -0.0244 0.9885
vn 0.0093 -0.0805 0.9967
vn -0.0664 -0.1105 0.9917
vn -0.0730 -0.1038 0.9919
vn -0.0190 -0.0676 0.9975
vn 0.0392 -0.0242 0.9989
vn 0.0885 0.0098 0.9960
vn 0.1331 0.0270 0.9907
vn 0.1664 0.0321 0.9855
vn 0.1951 0.0343 0.9802
vn 0.2702 0.0205 0.9626
vn 0.3591 -0.0316 0.9328
vn 0.6152 0.0151 0.7882
vn 0.4462 0.0751 0.8918
vn 0.6611 -0.0291 0.7497
vn 0.5597 -0.0066 0.8287
vn 0.3317 -0.0121 0.9433
vn 0.1146 -0.0425 0.9925
vn -0.0175 -0.0632 0.9978
vn -0.0635 -0.0602 0.9962
vn -0.0461 -0.0308 0.9985
vn 0.0166 0.0052 0.9998
vn 0.0719 0.0377 0.9967
vn 0.1062 0.0583 0.9926
vn 0.1371 0.0657 0.9884
vn 0.1667 0.0660 0.9838
vn 0.1917 0.0666 0.9792
vn 0.2455 0.0606 0.9675
vn 0.3111 0.0220 0.9501
vn 0.5791 0.1052 0.8085
vn 0.4027 0.1603 0.9012
vn 0.6443 0.0481 0.7632
vn 0.5498 -0.0018 0.8353
vn 0.3089 -0.0477 0.9499
vn 0.1000 -0.0682 0.9927
vn -0.0083 -0.0529 0.9986
vn -0.0345 -0.0171 0.9993
vn -0.0078 0.0296 0.9995
vn 0.0497 0.0711 0.9962
vn 0.0919 0.0903 0.9917
vn 0.1161 0.1005 0.9881
vn 0.1405 0.1066 0.9843
vn 0.1670 0.1096 0.9798
vn 0.1901 0.1108 0.9755
vn 0.2281 0.1095 0.9675
vn 0.2761 0.0841 0.9574
vn 0.5456 0.1742 0.8197
vn 0.3739 0.2321 0.8980
vn 0.5968 0.0992 0.7963
vn 0.4900 0.0044 0.8717
vn 0.2738 -0.0521 0.9604
vn 0.1117 -0.0649 0.9916
vn 0.0339 -0.0330 0.9989
vn 0.0187 0.0212 0.9996
vn 0.0421 0.0857 0.9954
vn 0.0774 0.1265 0.9889
vn 0.1009 0.1396 0.9851
vn 0.1221 0.1467 0.9816
vn 0.1457 0.1539 0.9773
vn 0.1700 0.1602 0.9723
vn 0.1911 0.1647 0.9677
vn 0.2190 0.1698 0.9608
vn 0.2532 0.1617 0.9538
vn 0.4927 0.2030 0.8462
vn 0.3358 0.2769 0.9003
vn 0.5342 0.1015 0.8392
vn 0.4323 0.0126 0.9016
vn 0.2467 -0.0291 0.9686
vn 0.1210 -0.0319 0.9921
vn 0.0782 -0.0019 0.9969
vn 0.0840 0.0534 0.9950
vn 0.0976 0.1183 0.9882
vn 0.1036 0.1610 0.9815
vn 0.1115 0.1814 0.9771
vn 0.1295 0.1924 0.9727
vn 0.1529 0.2035 0.9671
vn 0.1759 0.2154 0.9605
vn 0.1974 0.2274 0.9536
vn 0.2225 0.2408 0.9447
vn 0.2476 0.2477 0.9367
vn 0.4232 0.2016 0.8833
vn 0.2831 0.3003 0.9109
vn 0.4620 0.0914 0.8821
vn 0.3802 -0.0004 0.9249
vn 0.2324 -0.0165 0.9725
vn 0.1394 0.0089 0.9902
vn 0.1189 0.0405 0.9921
vn 0.1385 0.0824 0.9869
vn 0.1494 0.1327 0.9798
vn 0.1403 0.1821 0.9732
vn 0.1317 0.2150 0.9677
vn 0.1431 0.2353 0.9613
vn 0.1671 0.2538 0.9527
vn 0.1912 0.2727 0.9429
vn 0.2125 0.2924 0.9324
vn 0.2338 0.3153 0.9197
vn 0.2533 0.3397 0.9058
vn 0.3288 0.1998 0.9230
vn 0.1960 0.3228 0.9259
vn 0.3767 0.0761 0.9232
vn 0.3379 -0.0138 0.9411
vn 0.2554 -0.0053 0.9668
vn 0.1767 0.0495 0.9830
vn 0.1505 0.1010 0.9834
vn 0.1749 0.1351 0.9753
vn 0.1955 0.1700 0.9658
vn 0.1847 0.2075 0.9606
vn 0.1639 0.2455 0.9554
vn 0.1676 0.2792 0.9455
vn 0.1889 0.3069 0.9328
vn 0.2120 0.3317 0.9193
vn 0.2359 0.3562 0.9041
vn 0.2628 0.3814 0.8863
vn 0.2858 0.4463 0.8480
vn 0.2027 0.2283 0.9522
vn 0.0923 0.3507 0.9319
vn 0.2795 0.0906 0.9559
vn 0.3075 0.0058 0.9515
vn 0.2908 0.0133 0.9567
vn 0.2409 0.0766 0.9675
vn 0.2015 0.1469 0.9684
vn 0.2054 0.1859 0.9609
vn 0.2192 0.2103 0.9528
vn 0.2137 0.2302 0.9494
vn 0.2032 0.2632 0.9431
vn 0.2053 0.3049 0.9300
vn 0.2202 0.3382 0.9149
vn 0.2410 0.3648 0.8993
vn 0.2623 0.3919 0.8818
vn 0.3243 0.4351 0.8400
vn 0.3731 0.5171 0.7704
vn 0.0713 0.2881 0.9549
vn -0.0057 0.3813 0.9244
vn 0.1692 0.1718 0.9705
vn 0.2673 0.0705 0.9610
vn 0.3191 0.0512 0.9463
vn 0.3015 0.0900 0.9492
vn 0.2550 0.1575 0.9540
vn 0.2361 0.2008 0.9507
vn 0.2376 0.2230 0.9454
vn 0.2359 0.2410 0.9414
vn 0.2401 0.2683 0.9329
vn 0.2465 0.3040 0.9202
vn 0.2536 0.3406 0.9054
vn 0.2716 0.3654 0.8904
vn 0.3209 0.3963 0.8602
vn 0.4092 0.4699 0.7821
vn 0.4639 0.5393 0.7028
vn -0.0213 0.3260 0.9451
vn -0.0756 0.3898 0.9178
vn 0.0618 0.2563 0.9646
vn 0.1927 0.1891 0.9629
vn 0.3060 0.1452 0.9409
vn 0.3355 0.1381 0.9319
vn 0.3044 0.1679 0.9376
vn 0.2682 0.1995 0.9425
vn 0.2585 0.2232 0.9399
vn 0.2585 0.2453 0.9344
vn 0.2683 0.2703 0.9247
vn 0.2823 0.2975 0.9120
vn 0.2882 0.3318 0.8982
vn 0.3094 0.3657 0.8778
vn 0.3994 0.4127 0.8186
vn 0.5021 0.4719 0.7247
vn 0.5350 0.5160 0.6690
vn -0.0792 0.3369 0.9382
vn -0.1320 0.3772 0.9167
vn 0.0245 0.3083 0.9510
vn 0.1574 0.2913 0.9436
vn 0.2687 0.2519 0.9297
vn 0.3163 0.2147 0.9240
vn 0.3079 0.2000 0.9302
vn 0.2866 0.2076 0.9353
vn 0.2818 0.2271 0.9322
vn 0.2830 0.2500 0.9260
vn 0.2940 0.2749 0.9154
vn 0.3116 0.2980 0.9023
vn 0.3289 0.3219 0.8878
vn 0.3760 0.3574 0.8549
vn 0.4749 0.4042 0.7817
vn 0.5599 0.4299 0.7083
vn 0.5570 0.4372 0.7061
vn -0.1016 0.3668 0.9247
vn -0.1634 0.3729 0.9134
vn 0.0130 0.3632 0.9316
vn 0.1361 0.3526 0.9258
vn 0.2286 0.3228 0.9185
vn 0.2786 0.2848 0.9172
vn 0.2898 0.2583 0.9216
vn 0.2897 0.2492 0.9241
vn 0.2971 0.2500 0.9215
vn 0.3050 0.2639 0.9151
vn 0.3166 0.2880 0.9038
vn 0.3321 0.3039 0.8929
vn 0.3596 0.3103 0.8800
vn 0.4280 0.3231 0.8441
vn 0.5280 0.3355 0.7802
vn 0.5898 0.3190 0.7419
vn 0.5411 0.2679 0.7972
vn -0.0937 0.4006 0.9114
vn -0.1572 0.3877 0.9083
vn 0.0090 0.4098 0.9121
vn 0.1166 0.4024 0.9080
vn 0.1976 0.3804 0.9034
vn 0.2447 0.3535 0.9029
vn 0.2630 0.3300 0.9066
vn 0.2710 0.3131 0.9102
vn 0.2926 0.2872 0.9121
vn 0.3203 0.2689 0.9084
vn 0.3372 0.2627 0.9040
vn 0.3424 0.2609 0.9026
vn 0.3693 0.2529 0.8942
vn 0.4466 0.2340 0.8636
vn 0.5369 0.1976 0.8202
vn 0.5654 0.1465 0.8117
vn 0.4681 0.0734 0.8806
vn -0.0785 0.4308 0.8990
vn -0.1463 0.4187 0.8963
vn 0.0156 0.4454 0.8952
vn 0.1058 0.4457 0.8889
vn 0.1745 0.4326 0.8845
vn 0.2175 0.4152 0.8833
vn 0.2367 0.3960 0.8872
vn 0.2367 0.3779 0.8951
vn 0.2494 0.3344 0.9088
vn 0.2838 0.2762 0.9182
vn 0.3166 0.2235 0.9218
vn 0.3362 0.1861 0.9232
vn 0.3585 0.1703 0.9179
vn 0.4183 0.1286 0.8992
vn 0.5048 0.0603 0.8611
vn 0.5375 0.0042 0.8433
vn 0.4211 -0.0339 0.9064
vt 0.015625 0.015625
vt 0.076172 0.015625
vt 0.076172 0.076172
vt 0.015625 0.076172
vt 0.136719 0.015625
vt 0.136719 0.076172
vt 0.197266 0.015625
vt 0.197266 0.076172
vt 0.257812 0.015625
vt 0.257812 0.076172
vt 0.318359 0.015625
vt 0.318359 0.076172
vt 0.378906 0.015625
vt 0.378906 0.076172
vt 0.439453 0.015625
vt 0.439453 0.076172
vt 0.500000 0.015625
vt 0.500000 0.076172
vt 0.560547 0.015625
vt 0.560547 0.076172
vt 0.621094 0.015625
vt 0.621094 0.076172
vt 0.681641 0.015625
vt 0.681641 0.076172
vt 0.742188 0.015625
vt 0.742188 0.076172
vt 0.802734 0.015625
vt 0.802734 0.076172
vt 0.863281 0.015625
vt 0.863281 0.076172
vt 0.923828 0.015625
vt 0.923828 0.076172
vt 0.984375 0.015625
vt 0.984375 0.076172
vt 0.076172 0.136719
vt 0.015625 0.136719
vt 0.136719 0.136719
vt 0.197266 0.136719
vt 0.257812 0.136719
vt 0.318359 0.136719
vt 0.378906 0.136719
vt 0.439453 0.136719
vt 0.500000 0.136719
vt 0.560547 0.136719
vt 0.621094 0.136719
vt 0.681641 0.136719
vt 0.742188 0.136719
vt 0.802734 0.136719
vt 0.863281 0.136719
vt 0.923828 0.136719
vt 0.984375 0.136719
vt 0.076172 0.197266
vt 0.015625 0.197266
vt 0.136719 0.197266
vt 0.197266 0.197266
vt 0.257812 0.197266
vt 0.318359 0.197266
vt 0.378906 0.197266
vt 0.439453 0.197266
vt 0.500000 0.197266
vt 0.560547 0.197266
vt 0.621094 0.197266
vt 0.681641 0.197266
vt 0.742188 0.197266
vt 0.802734 0.197266
vt 0.863281 0.197266
vt 0.923828 0.197266
vt 0.984375 0.197266
vt 0.076172 0.257812
vt 0.015625 0.257812
vt 0.136719 0.257812
vt 0.197266 0.257812
vt 0.257812 0.257812
vt 0.318359 0.257812
vt 0.378906 0.257812
vt 0.439453 0.257812
vt 0.500000 0.257812
vt 0.560547 0.257812
vt 0.621094 0.257812
vt 0.681641 0.257812
vt 0.742188 0.257812
vt 0.802734 0.257812
vt 0.863281 0.257812
vt 0.923828 0.257812
vt 0.984375 0.257812
vt 0.076172 0.318359
vt 0.015625 0.318359
vt 0.136719 0.318359
vt 0.197266 0.318359
vt 0.257812 0.318359
vt 0.318359 0.318359
vt 0.378906 0.318359
vt 0.439453 0.318359
vt 0.500000 0.318359
vt 0.560547 0.318359
vt 0.621094 0.318359
vt 0.681641 0.318359
vt 0.742188 0.318359
vt 0.802734 0.318359
vt 0.863281 0.318359
vt 0.923828 0.318359
vt 0.984375 0.318359
vt 0.076172 0.378906
vt 0.015625 0.378906
vt 0.136719 0.378906
vt 0.197266 0.378906
vt 0.257812 0.378906
vt 0.318359 0.378906
vt 0.378906 0.378906
vt 0.439453 0.378906
vt 0.500000 0.378906
vt 0.560547 0.378906
vt 0.621094 0.378906
vt 0.681641 0.378906
vt 0.742188 0.378906
vt 0.802734 0.378906
vt 0.863281 0.378906
vt 0.923828 0.378906
vt 0.984375 0.378906
vt 0.076172 0.439453
vt 0.015625 0.439453
vt 0.136719 0.439453
vt 0.197266 0.439453
vt 0.257812 0.439453
vt 0.318359 0.439453
vt 0.378906 0.439453
vt 0.439453 0.439453
vt 0.500000 0.439453
vt 0.560547 0.439453
vt 0.621094 0.439453
vt 0.681641 0.439453
vt 0.742188 0.439453
vt 0.802734 0.439453
vt 0.863281 0.439453
vt 0.923828 0.439453
vt 0.984375 0.439453
vt 0.076172 0.500000
vt 0.015625 0.500000
vt 0.136719 0.500000
vt 0.197266 0.500000
vt 0.257812 0.500000
vt 0.318359 0.500000
vt 0.378906 0.500000
vt 0.439453 0.500000
vt 0.500000 0.500000
vt 0.560547 0.500000
vt 0.621094 0.500000
vt 0.681641 0.500000
vt 0.742188 0.500000
vt 0.802734 0.500000
vt 0.863281 0.500000
vt 0.923828 0.500000
vt 0.984375 0.500000
vt 0.076172 0.560547
vt 0.015625 0.560547
vt 0.136719 0.560547
vt 0.197266 0.560547
vt 0.257812 0.560547
vt 0.318359 0.560547
vt 0.378906 0.560547
vt 0.439453 0.560547
vt 0.500000 0.560547
vt 0.560547 0.560547
vt 0.621094 0.560547
vt 0.681641 0.560547
vt 0.742188 0.560547
vt 0.802734 0.560547
vt 0.863281 0.560547
vt 0.923828 0.560547
vt 0.984375 0.560547
vt 0.076172 0.621094
vt 0.015625 0.621094
vt 0.136719 0.621094
vt 0.197266 0.621094
vt 0.257812 0.621094
vt 0.318359 0.621094
vt 0.378906 0.621094
vt 0.439453 0.621094
vt 0.500000 0.621094
vt 0.560547 0.621094
vt 0.621094 0.621094
vt 0.681641 0.621094
vt 0.742188 0.621094
vt 0.802734 0.621094
vt 0.863281 0.621094
vt 0.923828 0.621094
vt 0.984375 0.621094
vt 0.076172 0.681641
vt 0.015625 0.681641
vt 0.136719 0.681641
vt 0.197266 0.681641
vt 0.257812 0.681641
vt 0.318359 0.681641
vt 0.378906 0.681641
vt 0.439453 0.681641
vt 0.500000 0.681641
vt 0.560547 0.681641
vt 0.621094 0.681641
vt 0.681641 0.681641
vt 0.742188 0.681641
vt 0.802734 0.681641
vt 0.863281 0.681641
vt 0.923828 0.681641
vt 0.984375 0.681641
vt 0.076172 0.742188
vt 0.015625 0.742188
vt 0.136719 0.742188
vt 0.197266 0.742188
vt 0.257812 0.742188
vt 0.318359 0.742188
vt 0.378906 0.742188
vt 0.439453 0.742188
vt 0.500000 0.742188
vt 0.560547 0.742188
vt 0.621094 0.742188
vt 0.681641 0.742188
vt 0.742188 0.742188
vt 0.802734 0.742188
vt 0.863281 0.742188
vt 0.923828 0.742188
vt 0.984375 0.742188
vt 0.076172 0.802734
vt 0.015625 0.802734
vt 0.136719 0.802734
vt 0.197266 0.802734
vt 0.257812 0.802734
vt 0.318359 0.802734
vt 0.378906 0.802734
vt 0.439453 0.802734
vt 0.500000 0.802734
vt 0.560547 0.802734
vt 0.621094 0.802734
vt 0.681641 0.802734
vt 0.742188 0.802734
vt 0.802734 0.802734
vt 0.863281 0.802734
vt 0.923828 0.802734
vt 0.984375 0.802734
vt 0.076172 0.863281
vt 0.015625 0.863281
vt 0.136719 0.863281
vt 0.197266 0.863281
vt 0.257812 0.863281
vt 0.318359 0.863281
vt 0.378906 0.863281
vt 0.439453 0.863281
vt 0.500000 0.863281
vt 0.560547 0.863281
vt 0.621094 0.863281
vt 0.681641 0.863281
vt 0.742188 0.863281
vt 0.802734 0.863281
vt 0.863281 0.863281
vt 0.923828 0.863281
vt 0.984375 0.863281
vt 0.076172 0.923828
vt 0.015625 0.923828
vt 0.136719 0.923828
vt 0.197266 0.923828
vt 0.257812 0.923828
vt 0.318359 0.923828
vt 0.378906 0.923828
vt 0.439453 0.923828
vt 0.500000 0.923828
vt 0.560547 0.923828
vt 0.621094 0.923828
vt 0.681641 0.923828
vt 0.742188 0.923828
vt 0.802734 0.923828
vt 0.863281 0.923828
vt 0.923828 0.923828
vt 0.984375 0.923828
vt 0.076172 0.984375
vt 0.015625 0.984375
vt 0.136719 0.984375
vt 0.197266 0.984375
vt 0.257812 0.984375
vt 0.318359 0.984375
vt 0.378906 0.984375
vt 0.439453 0.984375
vt 0.500000 0.984375
vt 0.560547 0.984375
vt 0.621094 0.984375
vt 0.681641 0.984375
vt 0.742188 0.984375
vt 0.802734 0.984375
vt 0.863281 0.984375
vt 0.923828 0.984375
vt 0.984375 0.984375
s 1
f 1/1/1 2/2/2 19/3/3
f 1/1/1 19/3/3 18/4/4
f 2/2/2 3/5/5 20/6/6
f 2/2/2 20/6/6 19/3/3
f 3/5/5 4/7/7 21/8/8
f 3/5/5 21/8/8 20/6/6
f 4/7/7 5/9/9 22/10/10
f 4/7/7 22/10/10 21/8/8
f 5/9/9 6/11/11 23/12/12
f 5/9/9 23/12/12 22/10/10
f 6/11/11 7/13/13 24/14/14
f 6/11/11 24/14/14 23/12/12
f 7/13/13 8/15/15 25/16/16
f 7/13/13 25/16/16 24/14/14
f 8/15/15 9/17/17 26/18/18
f 8/15/15 26/18/18 25/16/16
f 9/17/17 10/19/19 27/20/20
f 9/17/17 27/20/20 26/18/18
f 10/19/19 11/21/21 28/22/22
f 10/19/19 28/22/22 27/20/20
f 11/21/21 12/23/23 29/24/24
f 11/21/21 29/24/24 28/22/22
f 12/23/23 13/25/25 30/26/26
f 12/23/23 30/26/26 29/24/24
f 13/25/25 14/27/27 31/28/28
f 13/25/25 31/28/28 30/26/26
f 14/27/27 15/29/29 32/30/30
f 14/27/27 32/30/30 31/28/28
f 15/29/29 16/31/31 33/32/32
f 15/29/29 33/32/32 32/30/30
f 16/31/31 17/33/33 34/34/34
f 16/31/31 34/34/34 33/32/32
f 18/4/4 19/3/3 36/35/35
f 18/4/4 36/35/35 35/36/36
f 19/3/3 20/6/6 37/37/37
f 19/3/3 37/37/37 36/35/35
f 20/6/6 21/8/8 38/38/38
f 20/6/6 38/38/38 37/37/37
f 21/8/8 22/10/10 39/39/39
f 21/8/8 39/39/39 38/38/38
f 22/10/10 23/12/12 40/40/40
f 22/10/10 40/40/40 39/39/39
f 23/12/12 24/14/14 41/41/41
f 23/12/12 41/41/41 40/40/40
f 24/14/14 25/16/16 42/42/42
f 24/14/14 42/42/42 41/41/41
f 25/16/16 26/18/18 43/43/43
f 25/16/16 43/43/43 42/42/42
f 26/18/18 27/20/20 44/44/44
f 26/18/18 44/44/44 43/43/43
f 27/20/20 28/22/22 45/45/45
f 27/20/20 45/45/45 44/44/44
f 28/22/22 29/24/24 46/46/46
f 28/22/22 46/46/46 45/45/45
f 29/24/24 30/26/26 47/47/47
f 29/24/24 47/47/47 46/46/46
f 30/26/26 31/28/28 48/48/48
f 30/26/26 48/48/48 47/47/47
f 31/28/28 32/30/30 49/49/49
f 31/28/28 49/49/49 48/48/48
f 32/30/30 33/32/32 50/50/50
f 32/30/30 50/50/50 49/49/49
f 33/32/32 34/34/34 51/51/51
f 33/32/32 51/51/51 50/50/50
f 35/36/36 36/35/35 53/52/52
f 35/36/36 53/52/52 52/53/53
f 36/35/35 37/37/37 54/54/54
f 36/35/35 54/54/54 53/52/52
f 37/37/37 38/38/38 55/55/55
f 37/37/37 55/55/55 54/54/54
f 38/38/38 39/39/39 56/56/56
f 38/38/38 56/56/56 55/55/55
f 39/39/39 40/40/40 57/57/57
f 39/39/39 57/57/57 56/56/56
f 40/40/40 41/41/41 58/58/58
f 40/40/40 58/58/58 57/57/57
f 41/41/41 42/42/42 59/59/59
f 41/41/41 59/59/59 58/58/58
f 42/42/42 43/43/43 60/60/60
f 42/42/42 60/60/60 59/59/59
f 43/43/43 44/44/44 61/61/61
f 43/43/43 61/61/61 60/60/60
f 44/44/44 45/45/45 62/62/62
f 44/44/44 62/62/62 61/61/61
f 45/45/45 46/46/46 63/63/63
f 45/45/45 63/63/63 62/62/62
f 46/46/46 47/47/47 64/64/64
f 46/46/46 64/64/64 63/63/63
f 47/47/47 48/48/48 65/65/65
f 47/47/47 65/65/65 64/64/64
f 48/48/48 49/49/49 66/66/66
f 48/48/48 66/66/66 65/65/65
f 49/49/49 50/50/50 67/67/67
f 49/49/49 67/67/67 66/66/66
f 50/50/50 51/51/51 68/68/68
f 50/50/50 68/68/68 67/67/67
f 52/53/53 53/52/52 70/69/69
f 52/53/53 70/69/69 69/70/70
f 53/52/52 54/54/54 71/71/71
f 53/52/52 71/71/71 70/69/69
f 54/54/54 55/55/55 72/72/72
f 54/54/54 72/72/72 71/71/71
f 55/55/55 56/56/56 73/73/73
f 55/55/55 73/73/73 72/72/72
f 56/56/56 57/57/57 74/74/74
f 56/56/56 74/74/74 73/73/73
f 57/57/57 58/58/58 75/75/75
f 57/57/57 75/75/75 74/74/74
f 58/58/58 59/59/59 76/76/76
f 58/58/58 76/76/76 75/75/75
f 59/59/59 60/60/60 77/77/77
f 59/59/59 77/77/77 76/76/76
f 60/60/60 61/61/61 78/78/78
f 60/60/60 78/78/78 77/77/77
f 61/61/61 62/62/62 79/79/79
f 61/61/61 79/79/79 78/78/78
f 62/62/62 63/63/63 80/80/80
f 62/62/62 80/80/80 79/79/79
f 63/63/63 64/64/64 81/81/81
f 63/63/63 81/81/81 80/80/80
f 64/64/64 65/65/65 82/82/82
f 64/64/64 82/82/82 81/81/81
f 65/65/65 66/66/66 83/83/83
f 65/65/65 83/83/83 82/82/82
f 66/66/66 67/67/67 84/84/84
f 66/66/66 84/84/84 83/83/83
f 67/67/67 68/68/68 85/85/85
f 67/67/67 85/85/85 84/84/84
f 69/70/70 70/69/69 87/86/86
f 69/70/70 87/86/86 86/87/87
f 70/69/69 71/71/71 88/88/88
f 70/69/69 88/88/88 87/86/86
f 71/71/71 72/72/72 89/89/89
f 71/71/71 89/89/89 88/88/88
f 72/72/72 73/73/73 90/90/90
f 72/72/72 90/90/90 89/89/89
f 73/73/73 74/74/74 91/91/91
f 73/73/73 91/91/91 90/90/90
f 74/74/74 75/75/75 92/92/92
f 74/74/74 92/92/92 91/91/91
f 75/75/75 76/76/76 93/93/93
f 75/75/75 93/93/93 92/92/92
f 76/76/76 77/77/77 94/94/94
f 76/76/76 94/94/94 93/93/93
f 77/77/77 78/78/78 95/95/95
f 77/77/77 95/95/95 94/94/94
f 78/78/78 79/79/79 96/96/96
f 78/78/78 96/96/96 95/95/95
f 79/79/79 80/80/80 97/97/97
f 79/79/79 97/97/97 96/96/96
f 80/80/80 81/81/81 98/98/98
f 80/80/80 98/98/98 97/97/97
f 81/81/81 82/82/82 99/99/99
f 81/81/81 99/99/99 98/98/98
f 82/82/82 83/83/83 100/100/100
f 82/82/82 100/100/100 99/99/99
f 83/83/83 84/84/84 101/101/101
f 83/83/83 101/101/101 100/100/100
f 84/84/84 85/85/85 102/102/102
f 84/84/84 102/102/102 101/101/101
f 86/87/87 87/86/86 104/103/103
f 86/87/87 104/103/103 103/104/104
f 87/86/86 88/88/88 105/105/105
f 87/86/86 105/105/105 104/103/103
f 88/88/88 89/89/89 106/106/106
f 88/88/88 106/106/106 105/105/105
f 89/89/89 90/90/90 107/107/107
f 89/89/89 107/107/107 106/106/106
f 90/90/90 91/91/91 108/108/108
f 90/90/90 108/108/108 107/107/107
f 91/91/91 92/92/92 109/109/109
f 91/91/91 109/109/109 108/108/108
f 92/92/92 93/93/93 110/110/110
f 92/92/92 110/110/110 109/109/109
f 93/93/93 94/94/94 111/111/111
f 93/93/93 111/111/111 110/110/110
f 94/94/94 95/95/95 112/112/112
f 94/94/94 112/112/112 111/111/111
f 95/95/95 96/96/96 113/113/113
f 95/95/95 113/113/113 112/112/112
f 96/96/96 97/97/97 114/114/114
f 96/96/96 114/114/114 113/113/113
f 97/97/97 98/98/98 115/115/115
f 97/97/97 115/115/115 114/114/114
f 98/98/98 99/99/99 116/116/116
f 98/98/98 116/116/116 115/115/115
f 99/99/99 100/100/100 117/117/117
f 99/99/99 117/117/117 116/116/116
f 100/100/100 101/101/101 118/118/118
f 100/100/100 118/118/118 117/117/117
f 101/101/101 102/102/102 119/119/119
f 101/101/101 119/119/119 118/118/118
f 103/104/104 104/103/103 121/120/120
f 103/104/104 121/120/120 120/121/121
f 104/103/103 105/105/105 122/122/122
f 104/103/103 122/122/122 121/120/120
f 105/105/105 106/106/106 123/123/123
f 105/105/105 123/123/123 122/122/122
f 106/106/106 107/107/107 124/124/124
f 106/106/106 124/124/124 123/123/123
f 107/107/107 108/108/108 125/125/125
f 107/107/107 125/125/125 124/124/124
f 108/108/108 109/109/109 126/126/126
f 108/108/108 126/126/126 125/125/125
f 109/109/109 110/110/110 127/127/127
f 109/109/109 127/127/127 126/126/126
f 110/110/110 111/111/111 128/128/128
f 110/110/110 128/128/128 127/127/127
f 111/111/111 112/112/112 129/129/129
f 111/111/111 129/129/129 128/128/128
f 112/112/112 113/113/113 130/130/130
f 112/112/112 130/130/130 129/129/129
f 113/113/113 114/114/114 131/131/131
f 113/113/113 131/131/131 130/130/130
f 114/114/114 115/115/115 132/132/132
f 114/114/114 132/132/132 131/131/131
f 115/115/115 116/116/116 133/133/133
f 115/115/115 133/133/133 132/132/132
f 116/116/116 117/117/117 134/134/134
f 116/116/116 134/134/134 133/133/133
f 117/117/117 118/118/118 135/135/135
f 117/117/117 135/135/135 134/134/134
f 118/118/118 119/119/119 136/136/136
f 118/118/118 136/136/136 135/135/135
f 120/121/121 121/120/120 138/137/137
f 120/121/121 138/137/137 137/138/138
f 121/120/120 122/122/122 139/139/139
f 121/120/120 139/139/139 138/137/137
f 122/122/122 123/123/123 140/140/140
f 122/122/122 140/140/140 139/139/139
f 123/123/123 124/124/124 141/141/141
f 123/123/123 141/141/141 140/140/140
f 124/124/124 125/125/125 142/142/142
f 124/124/124 142/142/142 141/141/141
f 125/125/125 126/126/126 143/143/143
f 125/125/125 143/143/143 142/142/142
f 126/126/126 127/127/127 144/144/144
f 126/126/126 144/144/144 143/143/143
f 127/127/127 128/128/128 145/145/145
f 127/127/127 145/145/145 144/144/144
f 128/128/128 129/129/129 146/146/146
f 128/128/128 146/146/146 145/145/145
f 129/129/129 130/130/130 147/147/147
f 129/129/129 147/147/147 146/146/146
f 130/130/130 131/131/131 148/148/148
f 130/130/130 148/148/148 147/147/147
f 131/131/131 132/132/132 149/149/149
f 131/131/131 149/149/149 148/148/148
f 132/132/132 133/133/133 150/150/150
f 132/132/132 150/150/150 149/149/149
f 133/133/133 134/134/134 151/151/151
f 133/133/133 151/151/151 150/150/150
f 134/134/134 135/135/135 152/152/152
f 134/134/134 152/152/152 151/151/151
f 135/135/135 136/136/136 153/153/153
f 135/135/135 153/153/153 152/152/152
f 137/138/138 138/137/137 155/154/154
f 137/138/138 155/154/154 154/155/155
f 138/137/137 139/139/139 156/156/156
f 138/137/137 156/156/156 155/154/154
f 139/139/139 140/140/140 157/157/157
f 139/139/139 157/157/157 156/156/156
f 140/140/140 141/141/141 158/158/158
f 140/140/140 158/158/158 157/157/157
f 141/141/141 142/142/142 159/159/159
f 141/141/141 159/159/159 158/158/158
f 142/142/142 143/143/143 160/160/160
f 142/142/142 160/160/160 159/159/159
f 143/143/143 144/144/144 161/161/161
f 143/143/143 161/161/161 160/160/160
f 144/144/144 145/145/145 162/162/162
f 144/144/144 162/162/162 161/161/161
f 145/145/145 146/146/146 163/163/163
f 145/145/145 163/163/163 162/162/162
f 146/146/146 147/147/147 164/164/164
f 146/146/146 164/164/164 163/163/163
f 147/147/147 148/148/148 165/165/165
f 147/147/147 165/165/165 164/164/164
f 148/148/148 149/149/149 166/166/166
f 148/148/148 166/166/166 165/165/165
f 149/149/149 150/150/150 167/167/167
f 149/149/149 167/167/167 166/166/166
f 150/150/150 151/151/151 168/168/168
f 150/150/150 168/168/168 167/167/167
f 151/151/151 152/152/152 169/169/169
f 151/151/151 169/169/169 168/168/168
f 152/152/152 153/153/153 170/170/170
f 152/152/152 170/170/170 169/169/169
f 154/155/155 155/154/154 172/171/171
f 154/155/155 172/171/171 171/172/172
f 155/154/154 156/156/156 173/173/173
f 155/154/154 173/173/173 172/171/171
f 156/156/156 157/157/157 174/174/174
f 156/156/156 174/174/174 173/173/173
f 157/157/157 158/158/158 175/175/175
f 157/157/157 175/175/175 174/174/174
f 158/158/158 159/159/159 176/176/176
f 158/158/158 176/176/176 175/175/175
f 159/159/159 160/160/160 177/177/177
f 159/159/159 177/177/177 176/176/176
f 160/160/160 161/161/161 178/178/178
f 160/160/160 178/178/178 177/177/177
f 161/161/161 162/162/162 179/179/179
f 161/161/161 179/179/179 178/178/178
f 162/162/162 163/163/163 180/180/180
f 162/162/162 180/180/180 179/179/179
f 163/163/163 164/164/164 181/181/181
f 163/163/163 181/181/181 180/180/180
f 164/164/164 165/165/165 182/182/182
f 164/164/164 182/182/182 181/181/181
f 165/165/165 166/166/166 183/183/183
f 165/165/165 183/183/183 182/182/182
f 166/166/166 167/167/167 184/184/184
f 166/166/166 184/184/184 183/183/183
f 167/167/167 168/168/168 185/185/185
f 167/167/167 185/185/185 184/184/184
f 168/168/168 169/169/169 186/186/186
f 168/168/168 186/186/186 185/185/185
f 169/169/169 170/170/170 187/187/187
f 169/169/169 187/187/187 186/186/186
f 171/172/172 172/171/171 189/188/188
f 171/172/172 189/188/188 188/189/189
f 172/171/171 173/173/173 190/190/190
f 172/171/171 190/190/190 189/188/188
f 173/173/173 174/174/174 191/191/191
f 173/173/173 191/191/191 190/190/190
f 174/174/174 175/175/175 192/192/192
f 174/174/174 192/192/192 191/191/191
f 175/175/175 176/176/176 193/193/193
f 175/175/175 193/193/193 192/192/192
f 176/176/176 177/177/177 194/194/194
f 176/176/176 194/194/194 193/193/193
f 177/177/177 178/178/178 195/195/195
f 177/177/177 195/195/195 194/194/194
f 178/178/178 179/179/179 196/196/196
f 178/178/178 196/196/196 195/195/195
f 179/179/179 180/180/180 197/197/197
f 179/179/179 197/197/197 196/196/196
f 180/180/180 181/181/181 198/198/198
f 180/180/180 198/198/198 197/197/197
f 181/181/181 182/182/182 199/199/199
f 181/181/181 199/199/199 198/198/198
f 182/182/182 183/183/183 200/200/200
f 182/182/182 200/200/200 199/199/199
f 183/183/183 184/184/184 201/201/201
f 183/183/183 201/201/201 200/200/200
f 184/184/184 185/185/185 202/202/202
f 184/184/184 202/202/202 201/201/201
f 185/185/185 186/186/186 203/203/203
f 185/185/185 203/203/203 202/202/202
f 186/186/186 187/187/187 204/204/204
f 186/186/186 204/204/204 203/203/203
f 188/189/189 189/188/188 206/205/205
f 188/189/189 206/205/205 205/206/206
f 189/188/188 190/190/190 207/207/207
f 189/188/188 207/207/207 206/205/205
f 190/190/190 191/191/191 208/208/208
f 190/190/190 208/208/208 207/207/207
f 191/191/191 192/192/192 209/209/209
f 191/191/191 209/209/209 208/208/208
f 192/192/192 193/193/193 210/210/210
f 192/192/192 210/210/210 209/209/209
f 193/193/193 194/194/194 211/211/211
f 193/193/193 211/211/211 210/210/210
f 194/194/194 195/195/195 212/212/212
f 194/194/194 212/212/212 211/211/211
f 195/195/195 196/196/196 213/213/213
f 195/195/195 213/213/213 212/212/212
f 196/196/196 197/197/197 214/214/214
f 196/196/196 214/214/214 213/213/213
f 197/197/197 198/198/198 215/215/215
f 197/197/197 215/215/215 214/214/214
f 198/198/198 199/199/199 216/216/216
f 198/198/198 216/216/216 215/215/215
f 199/199/199 200/200/200 217/217/217
f 199/199/199 217/217/217 216/216/216
f 200/200/200 201/201/201 218/218/218
f 200/200/200 218/218/218 217/217/217
f 201/201/201 202/202/202 219/219/219
f 201/201/201 219/219/219 218/218/218
f 202/202/202 203/203/203 220/220/220
f 202/202/202 220/220/220 219/219/219
f 203/203/203 204/204/204 221/221/221
f 203/203/203 221/221/221 220/220/220
f 205/206/206 206/205/205 223/222/222
f 205/206/206 223/222/222 222/223/223
f 206/205/205 207/207/207 224/224/224
f 206/205/205 224/224/224 223/222/222
f 207/207/207 208/208/208 225/225/225
f 207/207/207 225/225/225 224/224/224
f 208/208/208 209/209/209 226/226/226
f 208/208/208 226/226/226 225/225/225
f 209/209/209 210/210/210 227/227/227
f 209/209/209 227/227/227 226/226/226
f 210/210/210 211/211/211 228/228/228
f 210/210/210 228/228/228 227/227/227
f 211/211/211 212/212/212 229/229/229
f 211/211/211 229/229/229 228/228/228
f 212/212/212 213/213/213 230/230/230
f 212/212/212 230/230/230 229/229/229
f 213/213/213 214/214/214 231/231/231
f 213/213/213 231/231/231 230/230/230
f 214/214/214 215/215/215 232/232/232
f 214/214/214 232/232/232 231/231/231
f 215/215/215 216/216/216 233/233/233
f 215/215/215 233/233/233 232/232/232
f 216/216/216 217/217/217 234/234/234
f 216/216/216 234/234/234 233/233/233
f 217/217/217 218/218/218 235/235/235
f 217/217/217 235/235/235 234/234/234
f 218/218/218 219/219/219 236/236/236
f 218/218/218 236/236/236 235/235/235
f 219/219/219 220/220/220 237/237/237
f 219/219/219 237/237/237 236/236/236
f 220/220/220 221/221/221 238/238/238
f 220/220/220 238/238/238 237/237/237
f 222/223/223 223/222/222 240/239/239
f 222/223/223 240/239/239 239/240/240
f 223/222/222 224/224/224 241/241/241
f 223/222/222 241/241/241 240/239/239
f 224/224/224 225/225/225 242/242/242
f 224/224/224 242/242/242 241/241/241
f 225/225/225 226/226/226 243/243/243
f 225/225/225 243/243/243 242/242/242
f 226/226/226 227/227/227 244/244/244
f 226/226/226 244/244/244 243/243/243
f 227/227/227 228/228/228 245/245/245
f 227/227/227 245/245/245 244/244/244
f 228/228/228 229/229/229 246/246/246
f 228/228/228 246/246/246 245/245/245
f 229/229/229 230/230/230 247/247/247
f 229/229/229 247/247/247 246/246/246
f 230/230/230 231/231/231 248/248/248
f 230/230/230 248/248/248 247/247/247
f 231/231/231 232/232/232 249/249/249
f 231/231/231 249/249/249 248/248/248
f 232/232/232 233/233/233 250/250/250
f 232/232/232 250/250/250 249/249/249
f 233/233/233 234/234/234 251/251/251
f 233/233/233 251/251/251 250/250/250
f 234/234/234 235/235/235 252/252/252
f 234/234/234 252/252/252 251/251/251
f 235/235/235 236/236/236 253/253/253
f 235/235/235 253/253/253 252/252/252
f 236/236/236 237/237/237 254/254/254
f 236/236/236 254/254/254 253/253/253
f 237/237/237 238/238/238 255/255/255
f 237/237/237 255/255/255 254/254/254
f 239/240/240 240/239/239 257/256/256
f 239/240/240 257/256/256 256/257/257
f 240/239/239 241/241/241 258/258/258
f 240/239/239 258/258/258 257/256/256
f 241/241/241 242/242/242 259/259/259
f 241/241/241 259/259/259 258/258/258
f 242/242/242 243/243/243 260/260/260
f 242/242/242 260/260/260 259/259/259
f 243/243/243 244/244/244 261/261/261
f 243/243/243 261/261/261 260/260/260
f 244/244/244 245/245/245 262/262/262
f 244/244/244 262/262/262 261/261/261
f 245/245/245 246/246/246 263/263/263
f 245/245/245 263/263/263 262/262/262
f 246/246/246 247/247/247 264/264/264
f 246/246/246 264/264/264 263/263/263
f 247/247/247 248/248/248 265/265/265
f 247/247/247 265/265/265 264/264/264
f 248/248/248 249/249/249 266/266/266
f 248/248/248 266/266/266 265/265/265
f 249/249/249 250/250/250 267/267/267
f 249/249/249 267/267/267 266/266/266
f 250/250/250 251/251/251 268/268/268
f 250/250/250 268/268/268 267/267/267
f 251/251/251 252/252/252 269/269/269
f 251/251/251 269/269/269 268/268/268
f 252/252/252 253/253/253 270/270/270
f 252/252/252 270/270/270 269/269/269
f 253/253/253 254/254/254 271/271/271
f 253/253/253 271/271/271 270/270/270
f 254/254/254 255/255/255 272/272/272
f 254/254/254 272/272/272 271/271/271
f 256/257/257 257/256/256 274/273/273
f 256/257/257 274/273/273 273/274/274
f 257/256/256 258/258/258 275/275/275
f 257/256/256 275/275/275 274/273/273
f 258/258/258 259/259/259 276/276/276
f 258/258/258 276/276/276 275/275/275
f 259/259/259 260/260/260 277/277/277
f 259/259/259 277/277/277 276/276/276
f 260/260/260 261/261/261 278/278/278
f 260/260/260 278/278/278 277/277/277
f 261/261/261 262/262/262 279/279/279
f 261/261/261 279/279/279 278/278/278
f 262/262/262 263/263/263 280/280/280
f 262/262/262 280/280/280 279/279/279
f 263/263/263 264/264/264 281/281/281
f 263/263/263 281/281/281 280/280/280
f 264/264/264 265/265/265 282/282/282
f 264/264/264 282/282/282 281/281/281
f 265/265/265 266/266/266 283/283/283
f 265/265/265 283/283/283 282/282/282
f 266/266/266 267/267/267 284/284/284
f 266/266/266 284/284/284 283/283/283
f 267/267/267 268/268/268 285/285/285
f 267/267/267 285/285/285 284/284/284
f 268/268/268 269/269/269 286/286/286
f 268/268/268 286/286/286 285/285/285
f 269/269/269 270/270/270 287/287/287
f 269/269/269 287/287/287 286/286/286
f 270/270/270 271/271/271 288/288/288
f 270/270/270 288/288/288 287/287/287
f 271/271/271 272/272/272 289/289/289
f 271/271/271 289/289/289 288/288/288
