mtllib terrain_mid_01_04.mtl
usemtl terrain_mid_01_04
# Blender 5.1.1
# www.blender.org
o terrain_mid_01_04
v -160.000000 -160.000000 18.560083
v -140.000000 -160.000000 22.536947
v -120.000000 -160.000000 26.389778
v -100.000000 -160.000000 29.076786
v -80.000000 -160.000000 30.392229
v -60.000000 -160.000000 30.264147
v -40.000000 -160.000000 29.273937
v -20.000000 -160.000000 27.690620
v 0.000000 -160.000000 25.466648
v 20.000000 -160.000000 22.328354
v 40.000000 -160.000000 18.522219
v 60.000000 -160.000000 13.925128
v 80.000000 -160.000000 8.814651
v 100.000000 -160.000000 3.155118
v 120.000000 -160.000000 -2.260863
v 140.000000 -160.000000 -7.549207
v 160.000000 -160.000000 -12.965466
v -160.000000 -140.000000 16.820124
v -140.000000 -140.000000 21.364412
v -120.000000 -140.000000 25.764494
v -100.000000 -140.000000 28.911545
v -80.000000 -140.000000 30.415224
v -60.000000 -140.000000 30.256060
v -40.000000 -140.000000 29.125032
v -20.000000 -140.000000 27.070053
v 0.000000 -140.000000 24.393227
v 20.000000 -140.000000 20.980728
v 40.000000 -140.000000 16.902590
v 60.000000 -140.000000 12.081243
v 80.000000 -140.000000 6.669529
v 100.000000 -140.000000 0.480829
v 120.000000 -140.000000 -5.169768
v 140.000000 -140.000000 -10.237975
v 160.000000 -140.000000 -15.297332
v -160.000000 -120.000000 14.877802
v -140.000000 -120.000000 20.006838
v -120.000000 -120.000000 24.850174
v -100.000000 -120.000000 28.259241
v -80.000000 -120.000000 29.763414
v -60.000000 -120.000000 29.230410
v -40.000000 -120.000000 27.630291
v -20.000000 -120.000000 25.037640
v 0.000000 -120.000000 21.910496
v 20.000000 -120.000000 18.441614
v 40.000000 -120.000000 14.436901
v 60.000000 -120.000000 9.472115
v 80.000000 -120.000000 4.105907
v 100.000000 -120.000000 -1.911400
v 120.000000 -120.000000 -7.811970
v 140.000000 -120.000000 -13.178612
v 160.000000 -120.000000 -18.102680
v -160.000000 -100.000000 12.918427
v -140.000000 -100.000000 18.651707
v -120.000000 -100.000000 23.748346
v -100.000000 -100.000000 27.277294
v -80.000000 -100.000000 28.683584
v -60.000000 -100.000000 27.465946
v -40.000000 -100.000000 25.219515
v -20.000000 -100.000000 22.034958
v 0.000000 -100.000000 18.594242
v 20.000000 -100.000000 15.027616
v 40.000000 -100.000000 10.982861
v 60.000000 -100.000000 6.003680
v 80.000000 -100.000000 0.885431
v 100.000000 -100.000000 -4.734673
v 120.000000 -100.000000 -10.573197
v 140.000000 -100.000000 -16.197935
v 160.000000 -100.000000 -21.288284
v -160.000000 -80.000000 11.252194
v -140.000000 -80.000000 17.348326
v -120.000000 -80.000000 22.562962
v -100.000000 -80.000000 25.940115
v -80.000000 -80.000000 26.985556
v -60.000000 -80.000000 25.103649
v -40.000000 -80.000000 22.104202
v -20.000000 -80.000000 18.398798
v 0.000000 -80.000000 14.721898
v 20.000000 -80.000000 10.864808
v 40.000000 -80.000000 6.440332
v 60.000000 -80.000000 1.537270
v 80.000000 -80.000000 -3.187143
v 100.000000 -80.000000 -8.294951
v 120.000000 -80.000000 -13.725751
v 140.000000 -80.000000 -19.404659
v 160.000000 -80.000000 -24.919859
v -160.000000 -60.000000 9.807147
v -140.000000 -60.000000 16.073053
v -120.000000 -60.000000 21.292645
v -100.000000 -60.000000 24.367779
v -80.000000 -60.000000 24.832354
v -60.000000 -60.000000 22.225302
v -40.000000 -60.000000 18.448776
v -20.000000 -60.000000 14.243070
v 0.000000 -60.000000 10.216001
v 20.000000 -60.000000 6.135798
v 40.000000 -60.000000 1.580296
v 60.000000 -60.000000 -3.294785
v 80.000000 -60.000000 -7.860713
v 100.000000 -60.000000 -12.723571
v 120.000000 -60.000000 -17.908583
v 140.000000 -60.000000 -23.502691
v 160.000000 -60.000000 -29.210659
v -160.000000 -40.000000 8.434070
v -140.000000 -40.000000 14.720959
v -120.000000 -40.000000 19.780413
v -100.000000 -40.000000 22.409334
v -80.000000 -40.000000 22.059982
v -60.000000 -40.000000 18.808584
v -40.000000 -40.000000 14.524337
v -20.000000 -40.000000 9.892514
v 0.000000 -40.000000 5.380528
v 20.000000 -40.000000 0.959660
v 40.000000 -40.000000 -3.621676
v 60.000000 -40.000000 -8.512135
v 80.000000 -40.000000 -13.085919
v 100.000000 -40.000000 -17.870323
v 120.000000 -40.000000 -22.961777
v 140.000000 -40.000000 -28.501047
v 160.000000 -40.000000 -34.282871
v -160.000000 -20.000000 6.967062
v -140.000000 -20.000000 13.077668
v -120.000000 -20.000000 17.743044
v -100.000000 -20.000000 19.594917
v -80.000000 -20.000000 18.409805
v -60.000000 -20.000000 14.875215
v -40.000000 -20.000000 10.492368
v -20.000000 -20.000000 5.533554
v 0.000000 -20.000000 0.475912
v 20.000000 -20.000000 -4.506764
v 40.000000 -20.000000 -9.333780
v 60.000000 -20.000000 -14.243625
v 80.000000 -20.000000 -18.908226
v 100.000000 -20.000000 -23.688967
v 120.000000 -20.000000 -28.769346
v 140.000000 -20.000000 -34.360596
v 160.000000 -20.000000 -40.273827
v -160.000000 0.000000 5.508441
v -140.000000 0.000000 11.407363
v -120.000000 0.000000 15.406583
v -100.000000 0.000000 16.338203
v -80.000000 0.000000 14.440315
v -60.000000 0.000000 10.544258
v -40.000000 0.000000 6.005138
v -20.000000 0.000000 0.988645
v 0.000000 0.000000 -4.387023
v 20.000000 0.000000 -9.843729
v 40.000000 0.000000 -15.120493
v 60.000000 0.000000 -20.175560
v 80.000000 0.000000 -25.047596
v 100.000000 0.000000 -29.854305
v 120.000000 0.000000 -34.898743
v 140.000000 0.000000 -40.452011
v 160.000000 0.000000 -46.303322
v -160.000000 20.000000 4.025772
v -140.000000 20.000000 9.628029
v -120.000000 20.000000 12.777779
v -100.000000 20.000000 12.951016
v -80.000000 20.000000 10.522946
v -60.000000 20.000000 6.387384
v -40.000000 20.000000 1.641579
v -20.000000 20.000000 -3.384873
v 0.000000 20.000000 -8.916279
v 20.000000 20.000000 -14.828290
v 40.000000 20.000000 -20.710951
v 60.000000 20.000000 -26.095465
v 80.000000 20.000000 -31.110056
v 100.000000 20.000000 -35.811317
v 120.000000 20.000000 -40.575058
v 140.000000 20.000000 -45.705906
v 160.000000 20.000000 -51.004951
v -160.000000 40.000000 2.153016
v -140.000000 40.000000 7.374594
v -120.000000 40.000000 10.053326
v -100.000000 40.000000 9.918434
v -80.000000 40.000000 7.587909
v -60.000000 40.000000 3.783875
v -40.000000 40.000000 -0.900179
v -20.000000 40.000000 -6.220980
v 0.000000 40.000000 -12.168992
v 20.000000 40.000000 -18.708410
v 40.000000 40.000000 -25.408684
v 60.000000 40.000000 -31.160551
v 80.000000 40.000000 -36.083961
v 100.000000 40.000000 -40.401928
v 120.000000 40.000000 -44.418278
v 140.000000 40.000000 -48.560974
v 160.000000 40.000000 -52.700508
v -160.000000 60.000000 -0.172681
v -140.000000 60.000000 4.653416
v -120.000000 60.000000 7.358444
v -100.000000 60.000000 7.706985
v -80.000000 60.000000 6.240079
v -60.000000 60.000000 3.229883
v -40.000000 60.000000 -0.767513
v -20.000000 60.000000 -5.810699
v 0.000000 60.000000 -11.471201
v 20.000000 60.000000 -17.909464
v 40.000000 60.000000 -24.608234
v 60.000000 60.000000 -30.015112
v 80.000000 60.000000 -34.688709
v 100.000000 60.000000 -38.817276
v 120.000000 60.000000 -42.271877
v 140.000000 60.000000 -45.345436
v 160.000000 60.000000 -48.396397
v -160.000000 80.000000 -3.176469
v -140.000000 80.000000 1.463258
v -120.000000 80.000000 4.811328
v -100.000000 80.000000 6.700664
v -80.000000 80.000000 6.690766
v -60.000000 80.000000 5.313813
v -40.000000 80.000000 2.459874
v -20.000000 80.000000 -1.461408
v 0.000000 80.000000 -6.368353
v 20.000000 80.000000 -11.972483
v 40.000000 80.000000 -17.877195
v 60.000000 80.000000 -22.671467
v 80.000000 80.000000 -27.227030
v 100.000000 80.000000 -31.520409
v 120.000000 80.000000 -34.835907
v 140.000000 80.000000 -37.446003
v 160.000000 80.000000 -40.217693
v -160.000000 100.000000 -6.791031
v -140.000000 100.000000 -1.811960
v -120.000000 100.000000 2.991948
v -100.000000 100.000000 6.979575
v -80.000000 100.000000 9.055353
v -60.000000 100.000000 9.201901
v -40.000000 100.000000 7.715062
v -20.000000 100.000000 4.664060
v 0.000000 100.000000 0.581496
v 20.000000 100.000000 -4.274830
v 40.000000 100.000000 -9.352176
v 60.000000 100.000000 -13.730739
v 80.000000 100.000000 -18.192825
v 100.000000 100.000000 -22.406370
v 120.000000 100.000000 -25.730696
v 140.000000 100.000000 -28.608587
v 160.000000 100.000000 -32.123222
v -160.000000 120.000000 -9.263468
v -140.000000 120.000000 -3.436814
v -120.000000 120.000000 2.661242
v -100.000000 120.000000 8.249441
v -80.000000 120.000000 11.995772
v -60.000000 120.000000 13.638344
v -40.000000 120.000000 13.318371
v -20.000000 120.000000 11.179261
v 0.000000 120.000000 7.738130
v 20.000000 120.000000 3.716700
v 40.000000 120.000000 -0.742559
v 60.000000 120.000000 -4.877234
v 80.000000 120.000000 -9.244916
v 100.000000 120.000000 -13.438228
v 120.000000 120.000000 -17.168943
v 140.000000 120.000000 -20.843664
v 160.000000 120.000000 -25.482649
v -160.000000 140.000000 -8.510059
v -140.000000 140.000000 -1.593973
v -120.000000 140.000000 4.956978
v -100.000000 140.000000 10.623526
v -80.000000 140.000000 14.865534
v -60.000000 140.000000 17.491703
v -40.000000 140.000000 18.077730
v -20.000000 140.000000 16.822020
v 0.000000 140.000000 14.266253
v 20.000000 140.000000 10.919140
v 40.000000 140.000000 6.957761
v 60.000000 140.000000 2.955025
v 80.000000 140.000000 -1.343457
v 100.000000 140.000000 -5.687197
v 120.000000 140.000000 -10.064910
v 140.000000 140.000000 -14.914027
v 160.000000 140.000000 -20.629963
v -160.000000 160.000000 -6.321865
v -140.000000 160.000000 0.781485
v -120.000000 160.000000 7.139802
v -100.000000 160.000000 12.396092
v -80.000000 160.000000 16.223003
v -60.000000 160.000000 18.818590
v -40.000000 160.000000 19.869280
v -20.000000 160.000000 19.508305
v 0.000000 160.000000 17.934093
v 20.000000 160.000000 15.580086
v 40.000000 160.000000 12.274371
v 60.000000 160.000000 8.468829
v 80.000000 160.000000 4.306747
v 100.000000 160.000000 -0.112310
v 120.000000 160.000000 -5.151763
v 140.000000 160.000000 -11.035789
v 160.000000 160.000000 -17.638346
vn -0.1782 0.0878 0.9801
vn -0.1919 0.0481 0.9802
vn -0.2178 0.0616 0.9740
vn -0.2135 0.0895 0.9728
vn -0.1613 0.0112 0.9868
vn -0.1852 0.0378 0.9820
vn -0.0996 -0.0169 0.9949
vn -0.1155 0.0203 0.9931
vn -0.0297 -0.0324 0.9990
vn -0.0336 0.0157 0.9993
vn 0.0279 -0.0366 0.9989
vn 0.0322 0.0258 0.9991
vn 0.0642 -0.0329 0.9974
vn 0.0794 0.0410 0.9960
vn 0.0948 -0.0144 0.9954
vn 0.1173 0.0658 0.9909
vn 0.1329 0.0063 0.9911
vn 0.1499 0.0876 0.9848
vn 0.1710 0.0272 0.9849
vn 0.1832 0.0951 0.9785
vn 0.2054 0.0482 0.9775
vn 0.2161 0.0992 0.9713
vn 0.2353 0.0673 0.9696
vn 0.2464 0.1072 0.9632
vn 0.2590 0.0858 0.9621
vn 0.2768 0.1123 0.9543
vn 0.2652 0.1118 0.9577
vn 0.2817 0.1206 0.9519
vn 0.2565 0.1235 0.9586
vn 0.2568 0.1332 0.9572
vn 0.2567 0.1166 0.9594
vn 0.2432 0.1352 0.9605
vn 0.2617 0.1035 0.9596
vn 0.2482 0.1234 0.9608
vn -0.2414 0.0657 0.9682
vn -0.2446 0.0941 0.9651
vn -0.2018 0.0493 0.9782
vn -0.1218 0.0405 0.9917
vn -0.0242 0.0432 0.9988
vn 0.0531 0.0695 0.9962
vn 0.1038 0.0967 0.9899
vn 0.1405 0.1236 0.9823
vn 0.1610 0.1416 0.9767
vn 0.1816 0.1446 0.9727
vn 0.2167 0.1430 0.9657
vn 0.2474 0.1455 0.9579
vn 0.2711 0.1377 0.9526
vn 0.2834 0.1241 0.9509
vn 0.2689 0.1290 0.9545
vn 0.2466 0.1428 0.9585
vn 0.2353 0.1440 0.9612
vn -0.2608 0.0641 0.9633
vn -0.2746 0.0868 0.9576
vn -0.2104 0.0558 0.9760
vn -0.1222 0.0575 0.9908
vn -0.0047 0.0693 0.9976
vn 0.0860 0.1025 0.9910
vn 0.1333 0.1356 0.9818
vn 0.1613 0.1616 0.9736
vn 0.1700 0.1744 0.9699
vn 0.1838 0.1829 0.9658
vn 0.2159 0.1913 0.9575
vn 0.2404 0.1889 0.9521
vn 0.2554 0.1735 0.9512
vn 0.2722 0.1516 0.9502
vn 0.2728 0.1408 0.9517
vn 0.2559 0.1488 0.9552
vn 0.2315 0.1634 0.9590
vn -0.2715 0.0619 0.9604
vn -0.2922 0.0742 0.9535
vn -0.2096 0.0599 0.9759
vn -0.1096 0.0721 0.9914
vn 0.0208 0.0958 0.9952
vn 0.1201 0.1289 0.9844
vn 0.1631 0.1647 0.9728
vn 0.1782 0.1881 0.9658
vn 0.1812 0.2015 0.9626
vn 0.1981 0.2127 0.9568
vn 0.2213 0.2231 0.9493
vn 0.2282 0.2204 0.9483
vn 0.2336 0.2078 0.9499
vn 0.2502 0.1896 0.9495
vn 0.2635 0.1740 0.9488
vn 0.2654 0.1732 0.9484
vn 0.2386 0.1887 0.9526
vn -0.2754 0.0630 0.9593
vn -0.3064 0.0669 0.9496
vn -0.2026 0.0680 0.9769
vn -0.0878 0.0876 0.9923
vn 0.0532 0.1220 0.9911
vn 0.1557 0.1535 0.9758
vn 0.1924 0.1827 0.9642
vn 0.1973 0.2038 0.9589
vn 0.1936 0.2230 0.9554
vn 0.2051 0.2352 0.9501
vn 0.2228 0.2377 0.9454
vn 0.2233 0.2377 0.9453
vn 0.2231 0.2342 0.9462
vn 0.2372 0.2261 0.9448
vn 0.2540 0.2177 0.9424
vn 0.2656 0.2138 0.9401
vn 0.2449 0.2210 0.9440
vn -0.2722 0.0719 0.9596
vn -0.3132 0.0673 0.9473
vn -0.1880 0.0868 0.9783
vn -0.0565 0.1183 0.9914
vn 0.0885 0.1579 0.9835
vn 0.1822 0.1777 0.9671
vn 0.2135 0.1905 0.9582
vn 0.2180 0.2077 0.9536
vn 0.2120 0.2312 0.9495
vn 0.2125 0.2512 0.9443
vn 0.2227 0.2565 0.9405
vn 0.2226 0.2575 0.9403
vn 0.2199 0.2596 0.9403
vn 0.2316 0.2572 0.9382
vn 0.2485 0.2539 0.9347
vn 0.2635 0.2527 0.9310
vn 0.2496 0.2581 0.9333
vn -0.2593 0.0797 0.9625
vn -0.3102 0.0694 0.9482
vn -0.1599 0.1073 0.9813
vn -0.0165 0.1500 0.9885
vn 0.1151 0.1859 0.9758
vn 0.1903 0.1987 0.9614
vn 0.2227 0.2031 0.9535
vn 0.2374 0.2110 0.9482
vn 0.2368 0.2304 0.9438
vn 0.2304 0.2537 0.9394
vn 0.2278 0.2690 0.9358
vn 0.2240 0.2728 0.9356
vn 0.2206 0.2794 0.9345
vn 0.2297 0.2791 0.9324
vn 0.2475 0.2769 0.9285
vn 0.2656 0.2759 0.9238
vn 0.2537 0.2784 0.9264
vn -0.2394 0.0834 0.9673
vn -0.3060 0.0698 0.9495
vn -0.1214 0.1223 0.9850
vn 0.0238 0.1638 0.9862
vn 0.1407 0.1915 0.9713
vn 0.2020 0.2033 0.9581
vn 0.2271 0.2103 0.9509
vn 0.2458 0.2110 0.9461
vn 0.2550 0.2211 0.9413
vn 0.2515 0.2419 0.9371
vn 0.2411 0.2655 0.9335
vn 0.2315 0.2764 0.9328
vn 0.2254 0.2842 0.9319
vn 0.2294 0.2823 0.9315
vn 0.2463 0.2743 0.9296
vn 0.2645 0.2631 0.9278
vn 0.2540 0.2506 0.9342
vn -0.2127 0.0980 0.9722
vn -0.3013 0.0797 0.9502
vn -0.0821 0.1322 0.9878
vn 0.0555 0.1582 0.9858
vn 0.1597 0.1667 0.9730
vn 0.2139 0.1628 0.9632
vn 0.2343 0.1655 0.9580
vn 0.2514 0.1717 0.9525
vn 0.2704 0.1839 0.9450
vn 0.2767 0.2080 0.9382
vn 0.2632 0.2403 0.9343
vn 0.2432 0.2569 0.9354
vn 0.2280 0.2590 0.9386
vn 0.2230 0.2485 0.9426
vn 0.2340 0.2251 0.9458
vn 0.2476 0.1925 0.9495
vn 0.2346 0.1535 0.9599
vn -0.1923 0.1211 0.9738
vn -0.2875 0.1000 0.9526
vn -0.0629 0.1340 0.9890
vn 0.0610 0.1297 0.9897
vn 0.1507 0.1052 0.9830
vn 0.2070 0.0770 0.9753
vn 0.2423 0.0584 0.9685
vn 0.2707 0.0583 0.9609
vn 0.2974 0.0608 0.9528
vn 0.3134 0.0729 0.9468
vn 0.2959 0.0926 0.9507
vn 0.2567 0.0943 0.9619
vn 0.2242 0.0868 0.9707
vn 0.2034 0.0733 0.9763
vn 0.1997 0.0415 0.9790
vn 0.2027 -0.0089 0.9792
vn 0.1781 -0.0640 0.9819
vn -0.1831 0.1437 0.9725
vn -0.2686 0.1272 0.9548
vn -0.0755 0.1296 0.9887
vn 0.0278 0.0801 0.9964
vn 0.1112 0.0223 0.9935
vn 0.1724 -0.0377 0.9843
vn 0.2197 -0.0817 0.9721
vn 0.2568 -0.1142 0.9597
vn 0.2867 -0.1375 0.9481
vn 0.3081 -0.1580 0.9381
vn 0.2851 -0.1774 0.9420
vn 0.2394 -0.2016 0.9498
vn 0.2101 -0.2114 0.9546
vn 0.1820 -0.2131 0.9599
vn 0.1568 -0.2301 0.9605
vn 0.1459 -0.2649 0.9532
vn 0.1319 -0.2953 0.9463
vn -0.1934 0.1565 0.9685
vn -0.2484 0.1581 0.9557
vn -0.1291 0.1076 0.9858
vn -0.0469 0.0182 0.9987
vn 0.0346 -0.0701 0.9969
vn 0.1040 -0.1469 0.9837
vn 0.1634 -0.2047 0.9651
vn 0.2088 -0.2477 0.9461
vn 0.2441 -0.2797 0.9286
vn 0.2629 -0.3111 0.9133
vn 0.2425 -0.3457 0.9065
vn 0.2116 -0.3685 0.9052
vn 0.2004 -0.3735 0.9057
vn 0.1733 -0.3738 0.9112
vn 0.1356 -0.3786 0.9156
vn 0.1232 -0.3831 0.9154
vn 0.1312 -0.3736 0.9183
vn -0.2359 0.1182 0.9646
vn -0.2489 0.1457 0.9575
vn -0.2144 0.0524 0.9753
vn -0.1497 -0.0382 0.9880
vn -0.0549 -0.1313 0.9898
vn 0.0328 -0.2036 0.9785
vn 0.1089 -0.2604 0.9593
vn 0.1677 -0.2970 0.9400
vn 0.2061 -0.3255 0.9228
vn 0.2252 -0.3558 0.9070
vn 0.2124 -0.3848 0.8982
vn 0.1980 -0.3984 0.8956
vn 0.1941 -0.4022 0.8947
vn 0.1693 -0.4060 0.8981
vn 0.1404 -0.4000 0.9057
vn 0.1460 -0.3793 0.9137
vn 0.1784 -0.3401 0.9233
vn -0.2857 -0.0052 0.9583
vn -0.2769 0.0413 0.9600
vn -0.2801 -0.0471 0.9588
vn -0.2263 -0.0884 0.9700
vn -0.1321 -0.1425 0.9809
vn -0.0324 -0.2028 0.9787
vn 0.0594 -0.2504 0.9663
vn 0.1323 -0.2882 0.9484
vn 0.1735 -0.3189 0.9318
vn 0.1944 -0.3483 0.9170
vn 0.1952 -0.3703 0.9082
vn 0.1925 -0.3778 0.9057
vn 0.1935 -0.3809 0.9042
vn 0.1798 -0.3794 0.9076
vn 0.1699 -0.3594 0.9176
vn 0.1930 -0.3178 0.9283
vn 0.2343 -0.2685 0.9344
vn -0.3175 -0.0994 0.9430
vn -0.3284 -0.0693 0.9420
vn -0.2904 -0.1065 0.9510
vn -0.2393 -0.1001 0.9658
vn -0.1683 -0.1036 0.9803
vn -0.0794 -0.1280 0.9886
vn 0.0165 -0.1616 0.9867
vn 0.0928 -0.2030 0.9748
vn 0.1415 -0.2445 0.9593
vn 0.1725 -0.2801 0.9443
vn 0.1860 -0.3040 0.9343
vn 0.1932 -0.3106 0.9307
vn 0.2005 -0.3144 0.9279
vn 0.2026 -0.3095 0.9291
vn 0.2157 -0.2809 0.9352
vn 0.2484 -0.2307 0.9408
vn 0.2848 -0.1845 0.9407
vn -0.3176 -0.0929 0.9437
vn -0.3385 -0.0947 0.9362
vn -0.2780 -0.0765 0.9575
vn -0.2211 -0.0517 0.9739
vn -0.1585 -0.0255 0.9870
vn -0.0908 -0.0161 0.9957
vn -0.0172 -0.0361 0.9992
vn 0.0482 -0.0794 0.9957
vn 0.0969 -0.1280 0.9870
vn 0.1381 -0.1697 0.9758
vn 0.1716 -0.1981 0.9650
vn 0.1912 -0.2044 0.9600
vn 0.2054 -0.2037 0.9573
vn 0.2258 -0.1938 0.9547
vn 0.2597 -0.1684 0.9509
vn 0.2953 -0.1332 0.9461
vn 0.3219 -0.1035 0.9411
vt 0.015625 0.015625
vt 0.076172 0.015625
vt 0.076172 0.076172
vt 0.015625 0.076172
vt 0.136719 0.015625
vt 0.136719 0.076172
vt 0.197266 0.015625
vt 0.197266 0.076172
vt 0.257812 0.015625
vt 0.257812 0.076172
vt 0.318359 0.015625
vt 0.318359 0.076172
vt 0.378906 0.015625
vt 0.378906 0.076172
vt 0.439453 0.015625
vt 0.439453 0.076172
vt 0.500000 0.015625
vt 0.500000 0.076172
vt 0.560547 0.015625
vt 0.560547 0.076172
vt 0.621094 0.015625
vt 0.621094 0.076172
vt 0.681641 0.015625
vt 0.681641 0.076172
vt 0.742188 0.015625
vt 0.742188 0.076172
vt 0.802734 0.015625
vt 0.802734 0.076172
vt 0.863281 0.015625
vt 0.863281 0.076172
vt 0.923828 0.015625
vt 0.923828 0.076172
vt 0.984375 0.015625
vt 0.984375 0.076172
vt 0.076172 0.136719
vt 0.015625 0.136719
vt 0.136719 0.136719
vt 0.197266 0.136719
vt 0.257812 0.136719
vt 0.318359 0.136719
vt 0.378906 0.136719
vt 0.439453 0.136719
vt 0.500000 0.136719
vt 0.560547 0.136719
vt 0.621094 0.136719
vt 0.681641 0.136719
vt 0.742188 0.136719
vt 0.802734 0.136719
vt 0.863281 0.136719
vt 0.923828 0.136719
vt 0.984375 0.136719
vt 0.076172 0.197266
vt 0.015625 0.197266
vt 0.136719 0.197266
vt 0.197266 0.197266
vt 0.257812 0.197266
vt 0.318359 0.197266
vt 0.378906 0.197266
vt 0.439453 0.197266
vt 0.500000 0.197266
vt 0.560547 0.197266
vt 0.621094 0.197266
vt 0.681641 0.197266
vt 0.742188 0.197266
vt 0.802734 0.197266
vt 0.863281 0.197266
vt 0.923828 0.197266
vt 0.984375 0.197266
vt 0.076172 0.257812
vt 0.015625 0.257812
vt 0.136719 0.257812
vt 0.197266 0.257812
vt 0.257812 0.257812
vt 0.318359 0.257812
vt 0.378906 0.257812
vt 0.439453 0.257812
vt 0.500000 0.257812
vt 0.560547 0.257812
vt 0.621094 0.257812
vt 0.681641 0.257812
vt 0.742188 0.257812
vt 0.802734 0.257812
vt 0.863281 0.257812
vt 0.923828 0.257812
vt 0.984375 0.257812
vt 0.076172 0.318359
vt 0.015625 0.318359
vt 0.136719 0.318359
vt 0.197266 0.318359
vt 0.257812 0.318359
vt 0.318359 0.318359
vt 0.378906 0.318359
vt 0.439453 0.318359
vt 0.500000 0.318359
vt 0.560547 0.318359
vt 0.621094 0.318359
vt 0.681641 0.318359
vt 0.742188 0.318359
vt 0.802734 0.318359
vt 0.863281 0.318359
vt 0.923828 0.318359
vt 0.984375 0.318359
vt 0.076172 0.378906
vt 0.015625 0.378906
vt 0.136719 0.378906
vt 0.197266 0.378906
vt 0.257812 0.378906
vt 0.318359 0.378906
vt 0.378906 0.378906
vt 0.439453 0.378906
vt 0.500000 0.378906
vt 0.560547 0.378906
vt 0.621094 0.378906
vt 0.681641 0.378906
vt 0.742188 0.378906
vt 0.802734 0.378906
vt 0.863281 0.378906
vt 0.923828 0.378906
vt 0.984375 0.378906
vt 0.076172 0.439453
vt 0.015625 0.439453
vt 0.136719 0.439453
vt 0.197266 0.439453
vt 0.257812 0.439453
vt 0.318359 0.439453
vt 0.378906 0.439453
vt 0.439453 0.439453
vt 0.500000 0.439453
vt 0.560547 0.439453
vt 0.621094 0.439453
vt 0.681641 0.439453
vt 0.742188 0.439453
vt 0.802734 0.439453
vt 0.863281 0.439453
vt 0.923828 0.439453
vt 0.984375 0.439453
vt 0.076172 0.500000
vt 0.015625 0.500000
vt 0.136719 0.500000
vt 0.197266 0.500000
vt 0.257812 0.500000
vt 0.318359 0.500000
vt 0.378906 0.500000
vt 0.439453 0.500000
vt 0.500000 0.500000
vt 0.560547 0.500000
vt 0.621094 0.500000
vt 0.681641 0.500000
vt 0.742188 0.500000
vt 0.802734 0.500000
vt 0.863281 0.500000
vt 0.923828 0.500000
vt 0.984375 0.500000
vt 0.076172 0.560547
vt 0.015625 0.560547
vt 0.136719 0.560547
vt 0.197266 0.560547
vt 0.257812 0.560547
vt 0.318359 0.560547
vt 0.378906 0.560547
vt 0.439453 0.560547
vt 0.500000 0.560547
vt 0.560547 0.560547
vt 0.621094 0.560547
vt 0.681641 0.560547
vt 0.742188 0.560547
vt 0.802734 0.560547
vt 0.863281 0.560547
vt 0.923828 0.560547
vt 0.984375 0.560547
vt 0.076172 0.621094
vt 0.015625 0.621094
vt 0.136719 0.621094
vt 0.197266 0.621094
vt 0.257812 0.621094
vt 0.318359 0.621094
vt 0.378906 0.621094
vt 0.439453 0.621094
vt 0.500000 0.621094
vt 0.560547 0.621094
vt 0.621094 0.621094
vt 0.681641 0.621094
vt 0.742188 0.621094
vt 0.802734 0.621094
vt 0.863281 0.621094
vt 0.923828 0.621094
vt 0.984375 0.621094
vt 0.076172 0.681641
vt 0.015625 0.681641
vt 0.136719 0.681641
vt 0.197266 0.681641
vt 0.257812 0.681641
vt 0.318359 0.681641
vt 0.378906 0.681641
vt 0.439453 0.681641
vt 0.500000 0.681641
vt 0.560547 0.681641
vt 0.621094 0.681641
vt 0.681641 0.681641
vt 0.742188 0.681641
vt 0.802734 0.681641
vt 0.863281 0.681641
vt 0.923828 0.681641
vt 0.984375 0.681641
vt 0.076172 0.742188
vt 0.015625 0.742188
vt 0.136719 0.742188
vt 0.197266 0.742188
vt 0.257812 0.742188
vt 0.318359 0.742188
vt 0.378906 0.742188
vt 0.439453 0.742188
vt 0.500000 0.742188
vt 0.560547 0.742188
vt 0.621094 0.742188
vt 0.681641 0.742188
vt 0.742188 0.742188
vt 0.802734 0.742188
vt 0.863281 0.742188
vt 0.923828 0.742188
vt 0.984375 0.742188
vt 0.076172 0.802734
vt 0.015625 0.802734
vt 0.136719 0.802734
vt 0.197266 0.802734
vt 0.257812 0.802734
vt 0.318359 0.802734
vt 0.378906 0.802734
vt 0.439453 0.802734
vt 0.500000 0.802734
vt 0.560547 0.802734
vt 0.621094 0.802734
vt 0.681641 0.802734
vt 0.742188 0.802734
vt 0.802734 0.802734
vt 0.863281 0.802734
vt 0.923828 0.802734
vt 0.984375 0.802734
vt 0.076172 0.863281
vt 0.015625 0.863281
vt 0.136719 0.863281
vt 0.197266 0.863281
vt 0.257812 0.863281
vt 0.318359 0.863281
vt 0.378906 0.863281
vt 0.439453 0.863281
vt 0.500000 0.863281
vt 0.560547 0.863281
vt 0.621094 0.863281
vt 0.681641 0.863281
vt 0.742188 0.863281
vt 0.802734 0.863281
vt 0.863281 0.863281
vt 0.923828 0.863281
vt 0.984375 0.863281
vt 0.076172 0.923828
vt 0.015625 0.923828
vt 0.136719 0.923828
vt 0.197266 0.923828
vt 0.257812 0.923828
vt 0.318359 0.923828
vt 0.378906 0.923828
vt 0.439453 0.923828
vt 0.500000 0.923828
vt 0.560547 0.923828
vt 0.621094 0.923828
vt 0.681641 0.923828
vt 0.742188 0.923828
vt 0.802734 0.923828
vt 0.863281 0.923828
vt 0.923828 0.923828
vt 0.984375 0.923828
vt 0.076172 0.984375
vt 0.015625 0.984375
vt 0.136719 0.984375
vt 0.197266 0.984375
vt 0.257812 0.984375
vt 0.318359 0.984375
vt 0.378906 0.984375
vt 0.439453 0.984375
vt 0.500000 0.984375
vt 0.560547 0.984375
vt 0.621094 0.984375
vt 0.681641 0.984375
vt 0.742188 0.984375
vt 0.802734 0.984375
vt 0.863281 0.984375
vt 0.923828 0.984375
vt 0.984375 0.984375
s 1
f 1/1/1 2/2/2 19/3/3
f 1/1/1 19/3/3 18/4/4
f 2/2/2 3/5/5 20/6/6
f 2/2/2 20/6/6 19/3/3
f 3/5/5 4/7/7 21/8/8
f 3/5/5 21/8/8 20/6/6
f 4/7/7 5/9/9 22/10/10
f 4/7/7 22/10/10 21/8/8
f 5/9/9 6/11/11 23/12/12
f 5/9/9 23/12/12 22/10/10
f 6/11/11 7/13/13 24/14/14
f 6/11/11 24/14/14 23/12/12
f 7/13/13 8/15/15 25/16/16
f 7/13/13 25/16/16 24/14/14
f 8/15/15 9/17/17 26/18/18
f 8/15/15 26/18/18 25/16/16
f 9/17/17 10/19/19 27/20/20
f 9/17/17 27/20/20 26/18/18
f 10/19/19 11/21/21 28/22/22
f 10/19/19 28/22/22 27/20/20
f 11/21/21 12/23/23 29/24/24
f 11/21/21 29/24/24 28/22/22
f 12/23/23 13/25/25 30/26/26
f 12/23/23 30/26/26 29/24/24
f 13/25/25 14/27/27 31/28/28
f 13/25/25 31/28/28 30/26/26
f 14/27/27 15/29/29 32/30/30
f 14/27/27 32/30/30 31/28/28
f 15/29/29 16/31/31 33/32/32
f 15/29/29 33/32/32 32/30/30
f 16/31/31 17/33/33 34/34/34
f 16/31/31 34/34/34 33/32/32
f 18/4/4 19/3/3 36/35/35
f 18/4/4 36/35/35 35/36/36
f 19/3/3 20/6/6 37/37/37
f 19/3/3 37/37/37 36/35/35
f 20/6/6 21/8/8 38/38/38
f 20/6/6 38/38/38 37/37/37
f 21/8/8 22/10/10 39/39/39
f 21/8/8 39/39/39 38/38/38
f 22/10/10 23/12/12 40/40/40
f 22/10/10 40/40/40 39/39/39
f 23/12/12 24/14/14 41/41/41
f 23/12/12 41/41/41 40/40/40
f 24/14/14 25/16/16 42/42/42
f 24/14/14 42/42/42 41/41/41
f 25/16/16 26/18/18 43/43/43
f 25/16/16 43/43/43 42/42/42
f 26/18/18 27/20/20 44/44/44
f 26/18/18 44/44/44 43/43/43
f 27/20/20 28/22/22 45/45/45
f 27/20/20 45/45/45 44/44/44
f 28/22/22 29/24/24 46/46/46
f 28/22/22 46/46/46 45/45/45
f 29/24/24 30/26/26 47/47/47
f 29/24/24 47/47/47 46/46/46
f 30/26/26 31/28/28 48/48/48
f 30/26/26 48/48/48 47/47/47
f 31/28/28 32/30/30 49/49/49
f 31/28/28 49/49/49 48/48/48
f 32/30/30 33/32/32 50/50/50
f 32/30/30 50/50/50 49/49/49
f 33/32/32 34/34/34 51/51/51
f 33/32/32 51/51/51 50/50/50
f 35/36/36 36/35/35 53/52/52
f 35/36/36 53/52/52 52/53/53
f 36/35/35 37/37/37 54/54/54
f 36/35/35 54/54/54 53/52/52
f 37/37/37 38/38/38 55/55/55
f 37/37/37 55/55/55 54/54/54
f 38/38/38 39/39/39 56/56/56
f 38/38/38 56/56/56 55/55/55
f 39/39/39 40/40/40 57/57/57
f 39/39/39 57/57/57 56/56/56
f 40/40/40 41/41/41 58/58/58
f 40/40/40 58/58/58 57/57/57
f 41/41/41 42/42/42 59/59/59
f 41/41/41 59/59/59 58/58/58
f 42/42/42 43/43/43 60/60/60
f 42/42/42 60/60/60 59/59/59
f 43/43/43 44/44/44 61/61/61
f 43/43/43 61/61/61 60/60/60
f 44/44/44 45/45/45 62/62/62
f 44/44/44 62/62/62 61/61/61
f 45/45/45 46/46/46 63/63/63
f 45/45/45 63/63/63 62/62/62
f 46/46/46 47/47/47 64/64/64
f 46/46/46 64/64/64 63/63/63
f 47/47/47 48/48/48 65/65/65
f 47/47/47 65/65/65 64/64/64
f 48/48/48 49/49/49 66/66/66
f 48/48/48 66/66/66 65/65/65
f 49/49/49 50/50/50 67/67/67
f 49/49/49 67/67/67 66/66/66
f 50/50/50 51/51/51 68/68/68
f 50/50/50 68/68/68 67/67/67
f 52/53/53 53/52/52 70/69/69
f 52/53/53 70/69/69 69/70/70
f 53/52/52 54/54/54 71/71/71
f 53/52/52 71/71/71 70/69/69
f 54/54/54 55/55/55 72/72/72
f 54/54/54 72/72/72 71/71/71
f 55/55/55 56/56/56 73/73/73
f 55/55/55 73/73/73 72/72/72
f 56/56/56 57/57/57 74/74/74
f 56/56/56 74/74/74 73/73/73
f 57/57/57 58/58/58 75/75/75
f 57/57/57 75/75/75 74/74/74
f 58/58/58 59/59/59 76/76/76
f 58/58/58 76/76/76 75/75/75
f 59/59/59 60/60/60 77/77/77
f 59/59/59 77/77/77 76/76/76
f 60/60/60 61/61/61 78/78/78
f 60/60/60 78/78/78 77/77/77
f 61/61/61 62/62/62 79/79/79
f 61/61/61 79/79/79 78/78/78
f 62/62/62 63/63/63 80/80/80
f 62/62/62 80/80/80 79/79/79
f 63/63/63 64/64/64 81/81/81
f 63/63/63 81/81/81 80/80/80
f 64/64/64 65/65/65 82/82/82
f 64/64/64 82/82/82 81/81/81
f 65/65/65 66/66/66 83/83/83
f 65/65/65 83/83/83 82/82/82
f 66/66/66 67/67/67 84/84/84
f 66/66/66 84/84/84 83/83/83
f 67/67/67 68/68/68 85/85/85
f 67/67/67 85/85/85 84/84/84
f 69/70/70 70/69/69 87/86/86
f 69/70/70 87/86/86 86/87/87
f 70/69/69 71/71/71 88/88/88
f 70/69/69 88/88/88 87/86/86
f 71/71/71 72/72/72 89/89/89
f 71/71/71 89/89/89 88/88/88
f 72/72/72 73/73/73 90/90/90
f 72/72/72 90/90/90 89/89/89
f 73/73/73 74/74/74 91/91/91
f 73/73/73 91/91/91 90/90/90
f 74/74/74 75/75/75 92/92/92
f 74/74/74 92/92/92 91/91/91
f 75/75/75 76/76/76 93/93/93
f 75/75/75 93/93/93 92/92/92
f 76/76/76 77/77/77 94/94/94
f 76/76/76 94/94/94 93/93/93
f 77/77/77 78/78/78 95/95/95
f 77/77/77 95/95/95 94/94/94
f 78/78/78 79/79/79 96/96/96
f 78/78/78 96/96/96 95/95/95
f 79/79/79 80/80/80 97/97/97
f 79/79/79 97/97/97 96/96/96
f 80/80/80 81/81/81 98/98/98
f 80/80/80 98/98/98 97/97/97
f 81/81/81 82/82/82 99/99/99
f 81/81/81 99/99/99 98/98/98
f 82/82/82 83/83/83 100/100/100
f 82/82/82 100/100/100 99/99/99
f 83/83/83 84/84/84 101/101/101
f 83/83/83 101/101/101 100/100/100
f 84/84/84 85/85/85 102/102/102
f 84/84/84 102/102/102 101/101/101
f 86/87/87 87/86/86 104/103/103
f 86/87/87 104/103/103 103/104/104
f 87/86/86 88/88/88 105/105/105
f 87/86/86 105/105/105 104/103/103
f 88/88/88 89/89/89 106/106/106
f 88/88/88 106/106/106 105/105/105
f 89/89/89 90/90/90 107/107/107
f 89/89/89 107/107/107 106/106/106
f 90/90/90 91/91/91 108/108/108
f 90/90/90 108/108/108 107/107/107
f 91/91/91 92/92/92 109/109/109
f 91/91/91 109/109/109 108/108/108
f 92/92/92 93/93/93 110/110/110
f 92/92/92 110/110/110 109/109/109
f 93/93/93 94/94/94 111/111/111
f 93/93/93 111/111/111 110/110/110
f 94/94/94 95/95/95 112/112/112
f 94/94/94 112/112/112 111/111/111
f 95/95/95 96/96/96 113/113/113
f 95/95/95 113/113/113 112/112/112
f 96/96/96 97/97/97 114/114/114
f 96/96/96 114/114/114 113/113/113
f 97/97/97 98/98/98 115/115/115
f 97/97/97 115/115/115 114/114/114
f 98/98/98 99/99/99 116/116/116
f 98/98/98 116/116/116 115/115/115
f 99/99/99 100/100/100 117/117/117
f 99/99/99 117/117/117 116/116/116
f 100/100/100 101/101/101 118/118/118
f 100/100/100 118/118/118 117/117/117
f 101/101/101 102/102/102 119/119/119
f 101/101/101 119/119/119 118/118/118
f 103/104/104 104/103/103 121/120/120
f 103/104/104 121/120/120 120/121/121
f 104/103/103 105/105/105 122/122/122
f 104/103/103 122/122/122 121/120/120
f 105/105/105 106/106/106 123/123/123
f 105/105/105 123/123/123 122/122/122
f 106/106/106 107/107/107 124/124/124
f 106/106/106 124/124/124 123/123/123
f 107/107/107 108/108/108 125/125/125
f 107/107/107 125/125/125 124/124/124
f 108/108/108 109/109/109 126/126/126
f 108/108/108 126/126/126 125/125/125
f 109/109/109 110/110/110 127/127/127
f 109/109/109 127/127/127 126/126/126
f 110/110/110 111/111/111 128/128/128
f 110/110/110 128/128/128 127/127/127
f 111/111/111 112/112/112 129/129/129
f 111/111/111 129/129/129 128/128/128
f 112/112/112 113/113/113 130/130/130
f 112/112/112 130/130/130 129/129/129
f 113/113/113 114/114/114 131/131/131
f 113/113/113 131/131/131 130/130/130
f 114/114/114 115/115/115 132/132/132
f 114/114/114 132/132/132 131/131/131
f 115/115/115 116/116/116 133/133/133
f 115/115/115 133/133/133 132/132/132
f 116/116/116 117/117/117 134/134/134
f 116/116/116 134/134/134 133/133/133
f 117/117/117 118/118/118 135/135/135
f 117/117/117 135/135/135 134/134/134
f 118/118/118 119/119/119 136/136/136
f 118/118/118 136/136/136 135/135/135
f 120/121/121 121/120/120 138/137/137
f 120/121/121 138/137/137 137/138/138
f 121/120/120 122/122/122 139/139/139
f 121/120/120 139/139/139 138/137/137
f 122/122/122 123/123/123 140/140/140
f 122/122/122 140/140/140 139/139/139
f 123/123/123 124/124/124 141/141/141
f 123/123/123 141/141/141 140/140/140
f 124/124/124 125/125/125 142/142/142
f 124/124/124 142/142/142 141/141/141
f 125/125/125 126/126/126 143/143/143
f 125/125/125 143/143/143 142/142/142
f 126/126/126 127/127/127 144/144/144
f 126/126/126 144/144/144 143/143/143
f 127/127/127 128/128/128 145/145/145
f 127/127/127 145/145/145 144/144/144
f 128/128/128 129/129/129 146/146/146
f 128/128/128 146/146/146 145/145/145
f 129/129/129 130/130/130 147/147/147
f 129/129/129 147/147/147 146/146/146
f 130/130/130 131/131/131 148/148/148
f 130/130/130 148/148/148 147/147/147
f 131/131/131 132/132/132 149/149/149
f 131/131/131 149/149/149 148/148/148
f 132/132/132 133/133/133 150/150/150
f 132/132/132 150/150/150 149/149/149
f 133/133/133 134/134/134 151/151/151
f 133/133/133 151/151/151 150/150/150
f 134/134/134 135/135/135 152/152/152
f 134/134/134 152/152/152 151/151/151
f 135/135/135 136/136/136 153/153/153
f 135/135/135 153/153/153 152/152/152
f 137/138/138 138/137/137 155/154/154
f 137/138/138 155/154/154 154/155/155
f 138/137/137 139/139/139 156/156/156
f 138/137/137 156/156/156 155/154/154
f 139/139/139 140/140/140 157/157/157
f 139/139/139 157/157/157 156/156/156
f 140/140/140 141/141/141 158/158/158
f 140/140/140 158/158/158 157/157/157
f 141/141/141 142/142/142 159/159/159
f 141/141/141 159/159/159 158/158/158
f 142/142/142 143/143/143 160/160/160
f 142/142/142 160/160/160 159/159/159
f 143/143/143 144/144/144 161/161/161
f 143/143/143 161/161/161 160/160/160
f 144/144/144 145/145/145 162/162/162
f 144/144/144 162/162/162 161/161/161
f 145/145/145 146/146/146 163/163/163
f 145/145/145 163/163/163 162/162/162
f 146/146/146 147/147/147 164/164/164
f 146/146/146 164/164/164 163/163/163
f 147/147/147 148/148/148 165/165/165
f 147/147/147 165/165/165 164/164/164
f 148/148/148 149/149/149 166/166/166
f 148/148/148 166/166/166 165/165/165
f 149/149/149 150/150/150 167/167/167
f 149/149/149 167/167/167 166/166/166
f 150/150/150 151/151/151 168/168/168
f 150/150/150 168/168/168 167/167/167
f 151/151/151 152/152/152 169/169/169
f 151/151/151 169/169/169 168/168/168
f 152/152/152 153/153/153 170/170/170
f 152/152/152 170/170/170 169/169/169
f 154/155/155 155/154/154 172/171/171
f 154/155/155 172/171/171 171/172/172
f 155/154/154 156/156/156 173/173/173
f 155/154/154 173/173/173 172/171/171
f 156/156/156 157/157/157 174/174/174
f 156/156/156 174/174/174 173/173/173
f 157/157/157 158/158/158 175/175/175
f 157/157/157 175/175/175 174/174/174
f 158/158/158 159/159/159 176/176/176
f 158/158/158 176/176/176 175/175/175
f 159/159/159 160/160/160 177/177/177
f 159/159/159 177/177/177 176/176/176
f 160/160/160 161/161/161 178/178/178
f 160/160/160 178/178/178 177/177/177
f 161/161/161 162/162/162 179/179/179
f 161/161/161 179/179/179 178/178/178
f 162/162/162 163/163/163 180/180/180
f 162/162/162 180/180/180 179/179/179
f 163/163/163 164/164/164 181/181/181
f 163/163/163 181/181/181 180/180/180
f 164/164/164 165/165/165 182/182/182
f 164/164/164 182/182/182 181/181/181
f 165/165/165 166/166/166 183/183/183
f 165/165/165 183/183/183 182/182/182
f 166/166/166 167/167/167 184/184/184
f 166/166/166 184/184/184 183/183/183
f 167/167/167 168/168/168 185/185/185
f 167/167/167 185/185/185 184/184/184
f 168/168/168 169/169/169 186/186/186
f 168/168/168 186/186/186 185/185/185
f 169/169/169 170/170/170 187/187/187
f 169/169/169 187/187/187 186/186/186
f 171/172/172 172/171/171 189/188/188
f 171/172/172 189/188/188 188/189/189
f 172/171/171 173/173/173 190/190/190
f 172/171/171 190/190/190 189/188/188
f 173/173/173 174/174/174 191/191/191
f 173/173/173 191/191/191 190/190/190
f 174/174/174 175/175/175 192/192/192
f 174/174/174 192/192/192 191/191/191
f 175/175/175 176/176/176 193/193/193
f 175/175/175 193/193/193 192/192/192
f 176/176/176 177/177/177 194/194/194
f 176/176/176 194/194/194 193/193/193
f 177/177/177 178/178/178 195/195/195
f 177/177/177 195/195/195 194/194/194
f 178/178/178 179/179/179 196/196/196
f 178/178/178 196/196/196 195/195/195
f 179/179/179 180/180/180 197/197/197
f 179/179/179 197/197/197 196/196/196
f 180/180/180 181/181/181 198/198/198
f 180/180/180 198/198/198 197/197/197
f 181/181/181 182/182/182 199/199/199
f 181/181/181 199/199/199 198/198/198
f 182/182/182 183/183/183 200/200/200
f 182/182/182 200/200/200 199/199/199
f 183/183/183 184/184/184 201/201/201
f 183/183/183 201/201/201 200/200/200
f 184/184/184 185/185/185 202/202/202
f 184/184/184 202/202/202 201/201/201
f 185/185/185 186/186/186 203/203/203
f 185/185/185 203/203/203 202/202/202
f 186/186/186 187/187/187 204/204/204
f 186/186/186 204/204/204 203/203/203
f 188/189/189 189/188/188 206/205/205
f 188/189/189 206/205/205 205/206/206
f 189/188/188 190/190/190 207/207/207
f 189/188/188 207/207/207 206/205/205
f 190/190/190 191/191/191 208/208/208
f 190/190/190 208/208/208 207/207/207
f 191/191/191 192/192/192 209/209/209
f 191/191/191 209/209/209 208/208/208
f 192/192/192 193/193/193 210/210/210
f 192/192/192 210/210/210 209/209/209
f 193/193/193 194/194/194 211/211/211
f 193/193/193 211/211/211 210/210/210
f 194/194/194 195/195/195 212/212/212
f 194/194/194 212/212/212 211/211/211
f 195/195/195 196/196/196 213/213/213
f 195/195/195 213/213/213 212/212/212
f 196/196/196 197/197/197 214/214/214
f 196/196/196 214/214/214 213/213/213
f 197/197/197 198/198/198 215/215/215
f 197/197/197 215/215/215 214/214/214
f 198/198/198 199/199/199 216/216/216
f 198/198/198 216/216/216 215/215/215
f 199/199/199 200/200/200 217/217/217
f 199/199/199 217/217/217 216/216/216
f 200/200/200 201/201/201 218/218/218
f 200/200/200 218/218/218 217/217/217
f 201/201/201 202/202/202 219/219/219
f 201/201/201 219/219/219 218/218/218
f 202/202/202 203/203/203 220/220/220
f 202/202/202 220/220/220 219/219/219
f 203/203/203 204/204/204 221/221/221
f 203/203/203 221/221/221 220/220/220
f 205/206/206 206/205/205 223/222/222
f 205/206/206 223/222/222 222/223/223
f 206/205/205 207/207/207 224/224/224
f 206/205/205 224/224/224 223/222/222
f 207/207/207 208/208/208 225/225/225
f 207/207/207 225/225/225 224/224/224
f 208/208/208 209/209/209 226/226/226
f 208/208/208 226/226/226 225/225/225
f 209/209/209 210/210/210 227/227/227
f 209/209/209 227/227/227 226/226/226
f 210/210/210 211/211/211 228/228/228
f 210/210/210 228/228/228 227/227/227
f 211/211/211 212/212/212 229/229/229
f 211/211/211 229/229/229 228/228/228
f 212/212/212 213/213/213 230/230/230
f 212/212/212 230/230/230 229/229/229
f 213/213/213 214/214/214 231/231/231
f 213/213/213 231/231/231 230/230/230
f 214/214/214 215/215/215 232/232/232
f 214/214/214 232/232/232 231/231/231
f 215/215/215 216/216/216 233/233/233
f 215/215/215 233/233/233 232/232/232
f 216/216/216 217/217/217 234/234/234
f 216/216/216 234/234/234 233/233/233
f 217/217/217 218/218/218 235/235/235
f 217/217/217 235/235/235 234/234/234
f 218/218/218 219/219/219 236/236/236
f 218/218/218 236/236/236 235/235/235
f 219/219/219 220/220/220 237/237/237
f 219/219/219 237/237/237 236/236/236
f 220/220/220 221/221/221 238/238/238
f 220/220/220 238/238/238 237/237/237
f 222/223/223 223/222/222 240/239/239
f 222/223/223 240/239/239 239/240/240
f 223/222/222 224/224/224 241/241/241
f 223/222/222 241/241/241 240/239/239
f 224/224/224 225/225/225 242/242/242
f 224/224/224 242/242/242 241/241/241
f 225/225/225 226/226/226 243/243/243
f 225/225/225 243/243/243 242/242/242
f 226/226/226 227/227/227 244/244/244
f 226/226/226 244/244/244 243/243/243
f 227/227/227 228/228/228 245/245/245
f 227/227/227 245/245/245 244/244/244
f 228/228/228 229/229/229 246/246/246
f 228/228/228 246/246/246 245/245/245
f 229/229/229 230/230/230 247/247/247
f 229/229/229 247/247/247 246/246/246
f 230/230/230 231/231/231 248/248/248
f 230/230/230 248/248/248 247/247/247
f 231/231/231 232/232/232 249/249/249
f 231/231/231 249/249/249 248/248/248
f 232/232/232 233/233/233 250/250/250
f 232/232/232 250/250/250 249/249/249
f 233/233/233 234/234/234 251/251/251
f 233/233/233 251/251/251 250/250/250
f 234/234/234 235/235/235 252/252/252
f 234/234/234 252/252/252 251/251/251
f 235/235/235 236/236/236 253/253/253
f 235/235/235 253/253/253 252/252/252
f 236/236/236 237/237/237 254/254/254
f 236/236/236 254/254/254 253/253/253
f 237/237/237 238/238/238 255/255/255
f 237/237/237 255/255/255 254/254/254
f 239/240/240 240/239/239 257/256/256
f 239/240/240 257/256/256 256/257/257
f 240/239/239 241/241/241 258/258/258
f 240/239/239 258/258/258 257/256/256
f 241/241/241 242/242/242 259/259/259
f 241/241/241 259/259/259 258/258/258
f 242/242/242 243/243/243 260/260/260
f 242/242/242 260/260/260 259/259/259
f 243/243/243 244/244/244 261/261/261
f 243/243/243 261/261/261 260/260/260
f 244/244/244 245/245/245 262/262/262
f 244/244/244 262/262/262 261/261/261
f 245/245/245 246/246/246 263/263/263
f 245/245/245 263/263/263 262/262/262
f 246/246/246 247/247/247 264/264/264
f 246/246/246 264/264/264 263/263/263
f 247/247/247 248/248/248 265/265/265
f 247/247/247 265/265/265 264/264/264
f 248/248/248 249/249/249 266/266/266
f 248/248/248 266/266/266 265/265/265
f 249/249/249 250/250/250 267/267/267
f 249/249/249 267/267/267 266/266/266
f 250/250/250 251/251/251 268/268/268
f 250/250/250 268/268/268 267/267/267
f 251/251/251 252/252/252 269/269/269
f 251/251/251 269/269/269 268/268/268
f 252/252/252 253/253/253 270/270/270
f 252/252/252 270/270/270 269/269/269
f 253/253/253 254/254/254 271/271/271
f 253/253/253 271/271/271 270/270/270
f 254/254/254 255/255/255 272/272/272
f 254/254/254 272/272/272 271/271/271
f 256/257/257 257/256/256 274/273/273
f 256/257/257 274/273/273 273/274/274
f 257/256/256 258/258/258 275/275/275
f 257/256/256 275/275/275 274/273/273
f 258/258/258 259/259/259 276/276/276
f 258/258/258 276/276/276 275/275/275
f 259/259/259 260/260/260 277/277/277
f 259/259/259 277/277/277 276/276/276
f 260/260/260 261/261/261 278/278/278
f 260/260/260 278/278/278 277/277/277
f 261/261/261 262/262/262 279/279/279
f 261/261/261 279/279/279 278/278/278
f 262/262/262 263/263/263 280/280/280
f 262/262/262 280/280/280 279/279/279
f 263/263/263 264/264/264 281/281/281
f 263/263/263 281/281/281 280/280/280
f 264/264/264 265/265/265 282/282/282
f 264/264/264 282/282/282 281/281/281
f 265/265/265 266/266/266 283/283/283
f 265/265/265 283/283/283 282/282/282
f 266/266/266 267/267/267 284/284/284
f 266/266/266 284/284/284 283/283/283
f 267/267/267 268/268/268 285/285/285
f 267/267/267 285/285/285 284/284/284
f 268/268/268 269/269/269 286/286/286
f 268/268/268 286/286/286 285/285/285
f 269/269/269 270/270/270 287/287/287
f 269/269/269 287/287/287 286/286/286
f 270/270/270 271/271/271 288/288/288
f 270/270/270 288/288/288 287/287/287
f 271/271/271 272/272/272 289/289/289
f 271/271/271 289/289/289 288/288/288
