mtllib terrain_far_01_01.mtl
usemtl terrain_far_01_01
# Blender 5.1.1
# www.blender.org
o terrain_far_01_01
v -144.000000 -144.000000 -5.990747
v -72.000000 -144.000000 -11.767725
v 0.000000 -144.000000 -18.868006
v 72.000000 -144.000000 -27.992090
v 144.000000 -144.000000 -37.147362
v -144.000000 -72.000000 12.420019
v -72.000000 -72.000000 2.027869
v 0.000000 -72.000000 -11.927637
v 72.000000 -72.000000 -24.034876
v 144.000000 -72.000000 -36.759850
v -144.000000 0.000000 13.820959
v -72.000000 0.000000 -0.223352
v 0.000000 0.000000 -7.811731
v 72.000000 0.000000 -14.155848
v 144.000000 0.000000 -22.735987
v -144.000000 72.000000 22.274633
v -72.000000 72.000000 23.140539
v 0.000000 72.000000 17.420202
v 72.000000 72.000000 2.972022
v 144.000000 72.000000 -10.565760
v -144.000000 144.000000 51.080360
v -72.000000 144.000000 46.980995
v 0.000000 144.000000 32.271645
v 72.000000 144.000000 9.492285
v 144.000000 144.000000 -3.920557
vn 0.0688 -0.2377 0.9689
vn 0.0879 -0.1586 0.9834
vn 0.1662 -0.0788 0.9829
vn 0.1191 -0.1353 0.9836
vn 0.1117 -0.0723 0.9911
vn 0.1776 -0.0754 0.9812
vn 0.1258 -0.0416 0.9912
vn 0.1692 -0.0943 0.9811
vn 0.1403 -0.0016 0.9901
vn 0.0904 -0.0992 0.9910
vn 0.1470 -0.1435 0.9787
vn 0.2116 -0.0667 0.9751
vn 0.0944 -0.1988 0.9755
vn 0.1014 -0.1834 0.9778
vn 0.1095 -0.1779 0.9779
vn 0.0319 -0.3112 0.9498
vn 0.0201 -0.2504 0.9679
vn 0.1337 -0.2657 0.9547
vn 0.1883 -0.1592 0.9691
vn 0.1810 -0.1274 0.9752
vn 0.1265 -0.2149 0.9684
vn 0.0278 -0.3355 0.9416
vn 0.2508 -0.0934 0.9635
vn 0.2434 -0.0543 0.9684
vn 0.1728 -0.0646 0.9828
vt 0.031250 0.031250
vt 0.265625 0.031250
vt 0.265625 0.265625
vt 0.031250 0.265625
vt 0.500000 0.031250
vt 0.500000 0.265625
vt 0.734375 0.031250
vt 0.734375 0.265625
vt 0.968750 0.031250
vt 0.968750 0.265625
vt 0.265625 0.500000
vt 0.031250 0.500000
vt 0.500000 0.500000
vt 0.734375 0.500000
vt 0.968750 0.500000
vt 0.265625 0.734375
vt 0.031250 0.734375
vt 0.500000 0.734375
vt 0.734375 0.734375
vt 0.968750 0.734375
vt 0.265625 0.968750
vt 0.031250 0.968750
vt 0.500000 0.968750
vt 0.734375 0.968750
vt 0.968750 0.968750
s 1
f 1/1/1 2/2/2 7/3/3
f 1/1/1 7/3/3 6/4/4
f 2/2/2 3/5/5 8/6/6
f 2/2/2 8/6/6 7/3/3
f 3/5/5 4/7/7 9/8/8
f 3/5/5 9/8/8 8/6/6
f 4/7/7 5/9/9 10/10/10
f 4/7/7 10/10/10 9/8/8
f 6/4/4 7/3/3 12/11/11
f 6/4/4 12/11/11 11/12/12
f 7/3/3 8/6/6 13/13/13
f 7/3/3 13/13/13 12/11/11
f 8/6/6 9/8/8 14/14/14
f 8/6/6 14/14/14 13/13/13
f 9/8/8 10/10/10 15/15/15
f 9/8/8 15/15/15 14/14/14
f 11/12/12 12/11/11 17/16/16
f 11/12/12 17/16/16 16/17/17
f 12/11/11 13/13/13 18/18/18
f 12/11/11 18/18/18 17/16/16
f 13/13/13 14/14/14 19/19/19
f 13/13/13 19/19/19 18/18/18
f 14/14/14 15/15/15 20/20/20
f 14/14/14 20/20/20 19/19/19
f 16/17/17 17/16/16 22/21/21
f 16/17/17 22/21/21 21/22/22
f 17/16/16 18/18/18 23/23/23
f 17/16/16 23/23/23 22/21/21
f 18/18/18 19/19/19 24/24/24
f 18/18/18 24/24/24 23/23/23
f 19/19/19 20/20/20 25/25/25
f 19/19/19 25/25/25 24/24/24
