mtllib terrain_far_00_01.mtl
usemtl terrain_far_00_01
# Blender 5.1.1
# www.blender.org
o terrain_far_00_01
v -320.000000 -320.000000 20.158579
v -280.000000 -320.000000 12.720142
v -240.000000 -320.000000 5.885520
v -200.000000 -320.000000 1.275345
v -160.000000 -320.000000 -3.465079
v -120.000000 -320.000000 -7.575438
v -80.000000 -320.000000 -10.965852
v -40.000000 -320.000000 -17.258841
v 0.000000 -320.000000 -25.956568
v 40.000000 -320.000000 -34.803383
v 80.000000 -320.000000 -48.168549
v 120.000000 -320.000000 -69.516418
v 160.000000 -320.000000 -79.381149
v 200.000000 -320.000000 -67.706154
v 240.000000 -320.000000 -51.946342
v 280.000000 -320.000000 -35.658195
v 320.000000 -320.000000 -18.955612
v -320.000000 -280.000000 27.353901
v -280.000000 -280.000000 18.198788
v -240.000000 -280.000000 9.248822
v -200.000000 -280.000000 2.784914
v -160.000000 -280.000000 -1.743562
v -120.000000 -280.000000 -4.783438
v -80.000000 -280.000000 -6.553709
v -40.000000 -280.000000 -14.480168
v 0.000000 -280.000000 -28.048412
v 40.000000 -280.000000 -39.225155
v 80.000000 -280.000000 -49.425549
v 120.000000 -280.000000 -65.257133
v 160.000000 -280.000000 -75.268059
v 200.000000 -280.000000 -62.269890
v 240.000000 -280.000000 -44.892937
v 280.000000 -280.000000 -29.533642
v 320.000000 -280.000000 -15.284924
v -320.000000 -240.000000 31.392319
v -280.000000 -240.000000 19.992603
v -240.000000 -240.000000 10.138002
v -200.000000 -240.000000 1.960268
v -160.000000 -240.000000 -4.474072
v -120.000000 -240.000000 -7.152410
v -80.000000 -240.000000 -5.978805
v -40.000000 -240.000000 -16.256441
v 0.000000 -240.000000 -32.559120
v 40.000000 -240.000000 -41.617645
v 80.000000 -240.000000 -49.013073
v 120.000000 -240.000000 -65.385735
v 160.000000 -240.000000 -68.983253
v 200.000000 -240.000000 -57.515717
v 240.000000 -240.000000 -42.735016
v 280.000000 -240.000000 -29.736191
v 320.000000 -240.000000 -17.498547
v -320.000000 -200.000000 36.493191
v -280.000000 -200.000000 23.393204
v -240.000000 -200.000000 12.792815
v -200.000000 -200.000000 4.231882
v -160.000000 -200.000000 -5.952533
v -120.000000 -200.000000 -12.802563
v -80.000000 -200.000000 -10.338614
v -40.000000 -200.000000 -19.456989
v 0.000000 -200.000000 -33.400333
v 40.000000 -200.000000 -38.301239
v 80.000000 -200.000000 -45.303654
v 120.000000 -200.000000 -63.725761
v 160.000000 -200.000000 -58.890900
v 200.000000 -200.000000 -47.684765
v 240.000000 -200.000000 -41.419357
v 280.000000 -200.000000 -35.275543
v 320.000000 -200.000000 -24.510462
v -320.000000 -160.000000 42.413887
v -280.000000 -160.000000 27.300255
v -240.000000 -160.000000 13.846329
v -200.000000 -160.000000 4.707996
v -160.000000 -160.000000 -6.780394
v -120.000000 -160.000000 -17.513351
v -80.000000 -160.000000 -20.716524
v -40.000000 -160.000000 -27.555737
v 0.000000 -160.000000 -36.974728
v 40.000000 -160.000000 -41.446266
v 80.000000 -160.000000 -49.405502
v 120.000000 -160.000000 -60.676613
v 160.000000 -160.000000 -48.845818
v 200.000000 -160.000000 -33.233471
v 240.000000 -160.000000 -25.897594
v 280.000000 -160.000000 -28.530272
v 320.000000 -160.000000 -28.595491
v -320.000000 -120.000000 46.173462
v -280.000000 -120.000000 27.550512
v -240.000000 -120.000000 11.836815
v -200.000000 -120.000000 -0.138785
v -160.000000 -120.000000 -9.447698
v -120.000000 -120.000000 -14.948402
v -80.000000 -120.000000 -20.830557
v -40.000000 -120.000000 -30.870617
v 0.000000 -120.000000 -39.094189
v 40.000000 -120.000000 -45.732853
v 80.000000 -120.000000 -54.872971
v 120.000000 -120.000000 -55.993576
v 160.000000 -120.000000 -40.153149
v 200.000000 -120.000000 -19.971394
v 240.000000 -120.000000 -7.776046
v 280.000000 -120.000000 -11.839082
v 320.000000 -120.000000 -19.799192
v -320.000000 -80.000000 48.177708
v -280.000000 -80.000000 28.837975
v -240.000000 -80.000000 13.468257
v -200.000000 -80.000000 1.502593
v -160.000000 -80.000000 -3.047382
v -120.000000 -80.000000 -4.388636
v -80.000000 -80.000000 -9.384886
v -40.000000 -80.000000 -18.612064
v 0.000000 -80.000000 -27.194124
v 40.000000 -80.000000 -37.588146
v 80.000000 -80.000000 -52.455734
v 120.000000 -80.000000 -52.428093
v 160.000000 -80.000000 -33.195080
v 200.000000 -80.000000 -8.809242
v 240.000000 -80.000000 5.997391
v 280.000000 -80.000000 1.487659
v 320.000000 -80.000000 -9.621044
v -320.000000 -40.000000 49.120071
v -280.000000 -40.000000 31.167238
v -240.000000 -40.000000 17.858767
v -200.000000 -40.000000 10.776003
v -160.000000 -40.000000 2.320199
v -120.000000 -40.000000 0.174332
v -80.000000 -40.000000 -0.504982
v -40.000000 -40.000000 -7.303166
v 0.000000 -40.000000 -17.923765
v 40.000000 -40.000000 -31.552969
v 80.000000 -40.000000 -50.285210
v 120.000000 -40.000000 -49.616512
v 160.000000 -40.000000 -29.134445
v 200.000000 -40.000000 -5.560748
v 240.000000 -40.000000 9.908436
v 280.000000 -40.000000 6.736228
v 320.000000 -40.000000 -3.119288
v -320.000000 0.000000 49.914055
v -280.000000 0.000000 34.494965
v -240.000000 0.000000 28.487761
v -200.000000 0.000000 19.733835
v -160.000000 0.000000 3.207304
v -120.000000 0.000000 -1.991175
v -80.000000 0.000000 -3.540302
v -40.000000 0.000000 -10.204045
v 0.000000 0.000000 -20.832165
v 40.000000 0.000000 -33.600597
v 80.000000 0.000000 -48.161999
v 120.000000 0.000000 -48.599960
v 160.000000 0.000000 -34.279865
v 200.000000 0.000000 -14.232854
v 240.000000 0.000000 0.980206
v 280.000000 0.000000 2.205134
v 320.000000 0.000000 -1.698057
v -320.000000 40.000000 52.127441
v -280.000000 40.000000 43.348160
v -240.000000 40.000000 39.687183
v -200.000000 40.000000 24.267832
v -160.000000 40.000000 3.847455
v -120.000000 40.000000 -4.923277
v -80.000000 40.000000 -8.112784
v -40.000000 40.000000 -15.000587
v 0.000000 40.000000 -24.596718
v 40.000000 40.000000 -34.783512
v 80.000000 40.000000 -43.933342
v 120.000000 40.000000 -44.083942
v 160.000000 40.000000 -37.017929
v 200.000000 40.000000 -28.907679
v 240.000000 40.000000 -18.298120
v 280.000000 40.000000 -12.843544
v 320.000000 40.000000 -7.900592
v -320.000000 80.000000 48.308186
v -280.000000 80.000000 41.205147
v -240.000000 80.000000 35.951092
v -200.000000 80.000000 23.326954
v -160.000000 80.000000 9.067005
v -120.000000 80.000000 0.498178
v -80.000000 80.000000 -6.041922
v -40.000000 80.000000 -15.660209
v 0.000000 80.000000 -27.316256
v 40.000000 80.000000 -32.751217
v 80.000000 80.000000 -36.174553
v 120.000000 80.000000 -32.824177
v 160.000000 80.000000 -24.298025
v 200.000000 80.000000 -23.670713
v 240.000000 80.000000 -21.469040
v 280.000000 80.000000 -16.866480
v 320.000000 80.000000 -12.947602
v -320.000000 120.000000 38.335339
v -280.000000 120.000000 26.493872
v -240.000000 120.000000 19.173782
v -200.000000 120.000000 14.180273
v -160.000000 120.000000 10.771080
v -120.000000 120.000000 1.448393
v -80.000000 120.000000 -9.910622
v -40.000000 120.000000 -18.991032
v 0.000000 120.000000 -18.630735
v 40.000000 120.000000 -14.825824
v 80.000000 120.000000 -15.764708
v 120.000000 120.000000 -17.989506
v 160.000000 120.000000 -11.308422
v 200.000000 120.000000 -7.805926
v 240.000000 120.000000 -6.747530
v 280.000000 120.000000 -3.926118
v 320.000000 120.000000 -5.515006
v -320.000000 160.000000 25.893682
v -280.000000 160.000000 14.261341
v -240.000000 160.000000 6.728559
v -200.000000 160.000000 2.461611
v -160.000000 160.000000 -0.910005
v -120.000000 160.000000 -6.165308
v -80.000000 160.000000 -9.287494
v -40.000000 160.000000 -7.848577
v 0.000000 160.000000 2.667801
v 40.000000 160.000000 8.596505
v 80.000000 160.000000 3.603497
v 120.000000 160.000000 -3.730711
v 160.000000 160.000000 1.956131
v 200.000000 160.000000 8.053177
v 240.000000 160.000000 8.287369
v 280.000000 160.000000 11.179452
v 320.000000 160.000000 12.043649
v -320.000000 200.000000 22.909594
v -280.000000 200.000000 11.325143
v -240.000000 200.000000 4.483360
v -200.000000 200.000000 2.324377
v -160.000000 200.000000 2.438859
v -120.000000 200.000000 6.876915
v -80.000000 200.000000 14.183582
v -40.000000 200.000000 18.173031
v 0.000000 200.000000 25.417034
v 40.000000 200.000000 29.540726
v 80.000000 200.000000 18.820179
v 120.000000 200.000000 10.366199
v 160.000000 200.000000 17.587723
v 200.000000 200.000000 24.717863
v 240.000000 200.000000 25.935740
v 280.000000 200.000000 28.208899
v 320.000000 200.000000 29.800152
v -320.000000 240.000000 32.763588
v -280.000000 240.000000 19.220299
v -240.000000 240.000000 10.750104
v -200.000000 240.000000 13.035348
v -160.000000 240.000000 18.392147
v -120.000000 240.000000 25.056398
v -80.000000 240.000000 35.464474
v -40.000000 240.000000 41.301231
v 0.000000 240.000000 45.253685
v 40.000000 240.000000 46.153717
v 80.000000 240.000000 32.164547
v 120.000000 240.000000 24.424387
v 160.000000 240.000000 33.345371
v 200.000000 240.000000 41.843521
v 240.000000 240.000000 47.369400
v 280.000000 240.000000 49.635101
v 320.000000 240.000000 49.548435
v -320.000000 280.000000 43.222752
v -280.000000 280.000000 24.194271
v -240.000000 280.000000 17.937183
v -200.000000 280.000000 25.078419
v -160.000000 280.000000 31.040373
v -120.000000 280.000000 37.473351
v -80.000000 280.000000 47.518185
v -40.000000 280.000000 55.068226
v 0.000000 280.000000 58.820721
v 40.000000 280.000000 57.122128
v 80.000000 280.000000 42.804935
v 120.000000 280.000000 36.729446
v 160.000000 280.000000 45.887569
v 200.000000 280.000000 57.800510
v 240.000000 280.000000 68.670647
v 280.000000 280.000000 72.630943
v 320.000000 280.000000 71.226410
v -320.000000 320.000000 40.811890
v -280.000000 320.000000 25.833933
v -240.000000 320.000000 27.069752
v -200.000000 320.000000 34.331940
v -160.000000 320.000000 38.611588
v -120.000000 320.000000 44.361885
v -80.000000 320.000000 53.769886
v -40.000000 320.000000 64.853722
v 0.000000 320.000000 71.511444
v 40.000000 320.000000 68.512810
v 80.000000 320.000000 54.789425
v 120.000000 320.000000 50.022797
v 160.000000 320.000000 59.845882
v 200.000000 320.000000 73.573349
v 240.000000 320.000000 85.148788
v 280.000000 320.000000 90.417046
v 320.000000 320.000000 88.680283
vn 0.1723 -0.2067 0.9631
vn 0.1722 -0.1937 0.9658
vn 0.2244 -0.0882 0.9705
vn 0.2323 -0.1349 0.9633
vn 0.1404 -0.1309 0.9814
vn 0.1889 -0.0522 0.9806
vn 0.1160 -0.0337 0.9927
vn 0.1363 -0.0084 0.9906
vn 0.1099 -0.0358 0.9933
vn 0.0941 0.0125 0.9955
vn 0.0929 -0.1010 0.9905
vn 0.0600 -0.0053 0.9982
vn 0.1191 -0.1312 0.9842
vn 0.1201 -0.0617 0.9908
vn 0.1833 -0.0982 0.9781
vn 0.2595 -0.0121 0.9657
vn 0.2142 -0.0177 0.9766
vn 0.2946 0.0786 0.9524
vn 0.2671 0.0544 0.9621
vn 0.2573 0.0820 0.9629
vn 0.3979 0.0251 0.9171
vn 0.3094 0.0100 0.9509
vn 0.3612 -0.1121 0.9257
vn 0.3070 -0.0491 0.9504
vn -0.0225 -0.1225 0.9922
vn -0.0370 -0.1288 0.9910
vn -0.3201 -0.1629 0.9333
vn -0.3525 -0.1183 0.9283
vn -0.3644 -0.1997 0.9096
vn -0.3766 -0.1060 0.9203
vn -0.3759 -0.1668 0.9115
vn -0.3462 -0.0692 0.9356
vn -0.3837 -0.1213 0.9154
vn -0.3478 -0.0171 0.9374
vn 0.2558 -0.0627 0.9647
vn 0.2857 -0.1029 0.9528
vn 0.2197 -0.0432 0.9746
vn 0.1796 -0.0178 0.9836
vn 0.1130 0.0522 0.9922
vn 0.0187 0.0997 0.9948
vn 0.1130 0.0470 0.9925
vn 0.3148 0.0589 0.9473
vn 0.3016 0.0636 0.9513
vn 0.2015 -0.0113 0.9794
vn 0.2844 -0.0493 0.9574
vn 0.2421 -0.0186 0.9701
vn -0.0959 -0.1996 0.9752
vn -0.3072 -0.1706 0.9362
vn -0.3278 -0.0410 0.9439
vn -0.3001 0.0683 0.9514
vn -0.3184 0.1086 0.9417
vn 0.2819 -0.0873 0.9555
vn 0.3259 -0.1309 0.9363
vn 0.2327 -0.0450 0.9715
vn 0.2280 -0.0334 0.9731
vn 0.2082 0.0282 0.9777
vn 0.0543 0.1282 0.9903
vn 0.0815 0.1806 0.9802
vn 0.2745 0.1345 0.9521
vn 0.2289 0.0536 0.9720
vn 0.1472 -0.0021 0.9891
vn 0.3029 0.0047 0.9530
vn 0.1672 -0.0579 0.9842
vn -0.1909 -0.2396 0.9519
vn -0.2046 -0.2843 0.9367
vn -0.1501 -0.2036 0.9675
vn -0.2068 -0.0147 0.9783
vn -0.2944 0.1313 0.9466
vn 0.3372 -0.0489 0.9402
vn 0.3584 -0.1150 0.9265
vn 0.2714 0.0113 0.9624
vn 0.2493 0.0528 0.9670
vn 0.2674 0.0420 0.9627
vn 0.1715 0.0264 0.9848
vn 0.1235 0.1290 0.9839
vn 0.1972 0.1385 0.9705
vn 0.1706 0.0699 0.9828
vn 0.1529 0.0914 0.9840
vn 0.2321 0.1155 0.9658
vn -0.0070 -0.0962 0.9953
vn -0.3168 -0.2163 0.9235
vn -0.2616 -0.3160 0.9120
vn -0.0541 -0.3871 0.9205
vn 0.0323 -0.2810 0.9592
vn -0.0967 -0.0585 0.9936
vn 0.3958 -0.0176 0.9182
vn 0.4070 -0.0640 0.9112
vn 0.3271 0.0045 0.9450
vn 0.2569 0.0387 0.9657
vn 0.1818 -0.0458 0.9823
vn 0.1391 -0.1603 0.9772
vn 0.1933 -0.1376 0.9714
vn 0.2213 -0.1083 0.9692
vn 0.1814 -0.1193 0.9762
vn 0.1933 -0.0473 0.9800
vn 0.1271 0.0378 0.9912
vn -0.1800 -0.1009 0.9785
vn -0.4042 -0.1756 0.8977
vn -0.3610 -0.2723 0.8919
vn -0.0940 -0.3687 0.9248
vn 0.1393 -0.3479 0.9271
vn 0.0886 -0.2299 0.9692
vn 0.3974 -0.0415 0.9167
vn 0.4304 -0.0350 0.9020
vn 0.3225 -0.0711 0.9439
vn 0.2004 -0.1324 0.9707
vn 0.0725 -0.1450 0.9868
vn 0.0776 -0.1852 0.9796
vn 0.1698 -0.2427 0.9551
vn 0.2089 -0.2764 0.9381
vn 0.2236 -0.2494 0.9422
vn 0.2969 -0.1667 0.9403
vn 0.1821 -0.0563 0.9817
vn -0.2334 -0.0773 0.9693
vn -0.4751 -0.1202 0.8717
vn -0.4343 -0.1597 0.8865
vn -0.1247 -0.2141 0.9688
vn 0.1868 -0.2222 0.9569
vn 0.1329 -0.2023 0.9703
vn 0.3662 -0.0656 0.9282
vn 0.4231 -0.0157 0.9060
vn 0.2430 -0.1790 0.9534
vn 0.1857 -0.2180 0.9581
vn 0.1310 -0.0773 0.9884
vn 0.0353 -0.0300 0.9989
vn 0.0928 -0.0726 0.9930
vn 0.2116 -0.1022 0.9720
vn 0.2892 -0.0759 0.9542
vn 0.3746 -0.0462 0.9260
vn 0.2200 -0.0523 0.9741
vn -0.2553 -0.0462 0.9657
vn -0.4823 0.0119 0.8759
vn -0.4378 0.0608 0.8970
vn -0.1516 0.0619 0.9865
vn 0.1607 -0.0089 0.9870
vn 0.1111 -0.0979 0.9890
vn 0.2518 -0.1457 0.9568
vn 0.3859 -0.0358 0.9218
vn 0.1753 -0.2592 0.9498
vn 0.2975 -0.1588 0.9414
vn 0.2620 -0.0184 0.9649
vn 0.0839 0.0634 0.9945
vn 0.1016 0.0942 0.9904
vn 0.2103 0.0936 0.9731
vn 0.2798 0.0798 0.9567
vn 0.3230 0.0382 0.9456
vn 0.1837 -0.0778 0.9799
vn -0.1706 -0.0680 0.9830
vn -0.3930 0.0900 0.9151
vn -0.3896 0.2580 0.8841
vn -0.1902 0.3265 0.9259
vn 0.0325 0.2376 0.9708
vn 0.0124 0.0597 0.9981
vn 0.1580 -0.0825 0.9840
vn 0.2841 0.0108 0.9587
vn 0.2310 -0.0904 0.9687
vn 0.4085 -0.0410 0.9118
vn 0.3419 -0.0687 0.9372
vn 0.1478 -0.0308 0.9885
vn 0.1250 0.0310 0.9917
vn 0.2014 0.0667 0.9772
vn 0.2393 0.0784 0.9678
vn 0.2349 -0.0103 0.9720
vn 0.1142 -0.1472 0.9825
vn -0.0845 -0.1928 0.9776
vn -0.1850 -0.1217 0.9752
vn -0.2264 0.1141 0.9673
vn -0.1898 0.2653 0.9453
vn -0.1254 0.2301 0.9651
vn -0.1441 0.1378 0.9799
vn 0.1533 0.2037 0.9670
vn 0.2415 0.1652 0.9562
vn 0.2116 0.2428 0.9467
vn 0.3163 0.1187 0.9412
vn 0.2735 -0.0829 0.9583
vn 0.1851 -0.0781 0.9796
vn 0.1979 0.0220 0.9800
vn 0.2567 0.0481 0.9653
vn 0.2084 -0.0727 0.9753
vn 0.1068 -0.2407 0.9647
vn 0.0009 -0.3321 0.9432
vn -0.1399 -0.3069 0.9414
vn -0.1083 -0.3042 0.9464
vn -0.0342 -0.2549 0.9664
vn -0.0839 -0.1424 0.9862
vn -0.1053 -0.1102 0.9883
vn -0.1364 -0.0295 0.9902
vn 0.2255 0.3110 0.9233
vn 0.2818 0.2676 0.9214
vn 0.1431 0.3396 0.9296
vn 0.1011 0.2511 0.9627
vn 0.1560 0.1222 0.9802
vn 0.2495 0.0804 0.9650
vn 0.2473 0.0392 0.9681
vn 0.1079 -0.0966 0.9895
vn -0.0487 -0.3505 0.9353
vn -0.0320 -0.4587 0.8880
vn 0.0354 -0.4449 0.8949
vn -0.0523 -0.3413 0.9385
vn -0.1201 -0.3096 0.9433
vn -0.0529 -0.3681 0.9283
vn -0.0454 -0.3483 0.9363
vn -0.0145 -0.3308 0.9436
vn -0.0175 -0.2982 0.9544
vn 0.2236 0.1816 0.9576
vn 0.3055 0.1943 0.9322
vn 0.1435 0.1787 0.9734
vn 0.0940 0.1460 0.9848
vn 0.1066 0.1030 0.9889
vn 0.1039 -0.0673 0.9923
vn 0.0201 -0.2883 0.9573
vn -0.1343 -0.4175 0.8987
vn -0.1772 -0.4747 0.8621
vn -0.0102 -0.4849 0.8745
vn 0.1400 -0.3929 0.9089
vn 0.0194 -0.3340 0.9424
vn -0.1372 -0.3365 0.9316
vn -0.0731 -0.3756 0.9239
vn -0.0363 -0.3780 0.9251
vn -0.0436 -0.3724 0.9270
vn -0.0101 -0.4038 0.9148
vn 0.2140 -0.0604 0.9750
vn 0.3037 -0.0804 0.9494
vn 0.1116 -0.0499 0.9925
vn 0.0253 -0.1310 0.9911
vn -0.0552 -0.2342 0.9706
vn -0.1355 -0.3602 0.9230
vn -0.1222 -0.4847 0.8661
vn -0.1188 -0.5198 0.8460
vn -0.1245 -0.4662 0.8759
vn 0.0744 -0.4238 0.9027
vn 0.2202 -0.3280 0.9187
vn 0.0145 -0.3319 0.9432
vn -0.1647 -0.3602 0.9182
vn -0.0957 -0.3873 0.9170
vn -0.0392 -0.4386 0.8978
vn -0.0435 -0.4328 0.9004
vn -0.0022 -0.4245 0.9054
vn 0.2557 -0.1535 0.9545
vn 0.3027 -0.2544 0.9185
vn 0.0760 -0.1654 0.9833
vn -0.0914 -0.2725 0.9578
vn -0.1401 -0.3333 0.9323
vn -0.1955 -0.3503 0.9160
vn -0.1842 -0.3780 0.9073
vn -0.1104 -0.4162 0.9025
vn -0.0559 -0.3846 0.9214
vn 0.1529 -0.3221 0.9343
vn 0.2518 -0.2779 0.9270
vn -0.0140 -0.3130 0.9497
vn -0.2011 -0.3267 0.9235
vn -0.1599 -0.3772 0.9122
vn -0.0856 -0.4694 0.8788
vn -0.0238 -0.4853 0.8740
vn 0.0561 -0.4591 0.8866
vn 0.3109 -0.0783 0.9472
vn 0.3485 -0.1047 0.9315
vn -0.0108 -0.1999 0.9798
vn -0.1564 -0.2540 0.9545
vn -0.1485 -0.2423 0.9588
vn -0.1963 -0.2300 0.9532
vn -0.2097 -0.2181 0.9531
vn -0.1343 -0.2799 0.9506
vn -0.0244 -0.3117 0.9499
vn 0.1893 -0.2643 0.9457
vn 0.2382 -0.2643 0.9346
vn -0.0367 -0.3045 0.9518
vn -0.2425 -0.3050 0.9209
vn -0.2559 -0.3565 0.8986
vn -0.1653 -0.4211 0.8918
vn -0.0284 -0.4540 0.8906
vn 0.1186 -0.4363 0.8920
vn 0.1725 -0.1085 0.9790
vn 0.3261 0.0925 0.9408
vn -0.1025 -0.2407 0.9652
vn -0.1399 -0.2002 0.9697
vn -0.1228 -0.1623 0.9791
vn -0.1844 -0.1373 0.9732
vn -0.2470 -0.0952 0.9643
vn -0.2142 -0.1451 0.9660
vn -0.0444 -0.2386 0.9701
vn 0.1976 -0.2599 0.9452
vn 0.2153 -0.2927 0.9316
vn -0.0594 -0.3383 0.9391
vn -0.2639 -0.3561 0.8964
vn -0.2806 -0.3661 0.8873
vn -0.1915 -0.3688 0.9096
vn -0.0408 -0.3795 0.9243
vn 0.1503 -0.3348 0.9302
vt 0.015625 0.015625
vt 0.076172 0.015625
vt 0.076172 0.076172
vt 0.015625 0.076172
vt 0.136719 0.015625
vt 0.136719 0.076172
vt 0.197266 0.015625
vt 0.197266 0.076172
vt 0.257812 0.015625
vt 0.257812 0.076172
vt 0.318359 0.015625
vt 0.318359 0.076172
vt 0.378906 0.015625
vt 0.378906 0.076172
vt 0.439453 0.015625
vt 0.439453 0.076172
vt 0.500000 0.015625
vt 0.500000 0.076172
vt 0.560547 0.015625
vt 0.560547 0.076172
vt 0.621094 0.015625
vt 0.621094 0.076172
vt 0.681641 0.015625
vt 0.681641 0.076172
vt 0.742188 0.015625
vt 0.742188 0.076172
vt 0.802734 0.015625
vt 0.802734 0.076172
vt 0.863281 0.015625
vt 0.863281 0.076172
vt 0.923828 0.015625
vt 0.923828 0.076172
vt 0.984375 0.015625
vt 0.984375 0.076172
vt 0.076172 0.136719
vt 0.015625 0.136719
vt 0.136719 0.136719
vt 0.197266 0.136719
vt 0.257812 0.136719
vt 0.318359 0.136719
vt 0.378906 0.136719
vt 0.439453 0.136719
vt 0.500000 0.136719
vt 0.560547 0.136719
vt 0.621094 0.136719
vt 0.681641 0.136719
vt 0.742188 0.136719
vt 0.802734 0.136719
vt 0.863281 0.136719
vt 0.923828 0.136719
vt 0.984375 0.136719
vt 0.076172 0.197266
vt 0.015625 0.197266
vt 0.136719 0.197266
vt 0.197266 0.197266
vt 0.257812 0.197266
vt 0.318359 0.197266
vt 0.378906 0.197266
vt 0.439453 0.197266
vt 0.500000 0.197266
vt 0.560547 0.197266
vt 0.621094 0.197266
vt 0.681641 0.197266
vt 0.742188 0.197266
vt 0.802734 0.197266
vt 0.863281 0.197266
vt 0.923828 0.197266
vt 0.984375 0.197266
vt 0.076172 0.257812
vt 0.015625 0.257812
vt 0.136719 0.257812
vt 0.197266 0.257812
vt 0.257812 0.257812
vt 0.318359 0.257812
vt 0.378906 0.257812
vt 0.439453 0.257812
vt 0.500000 0.257812
vt 0.560547 0.257812
vt 0.621094 0.257812
vt 0.681641 0.257812
vt 0.742188 0.257812
vt 0.802734 0.257812
vt 0.863281 0.257812
vt 0.923828 0.257812
vt 0.984375 0.257812
vt 0.076172 0.318359
vt 0.015625 0.318359
vt 0.136719 0.318359
vt 0.197266 0.318359
vt 0.257812 0.318359
vt 0.318359 0.318359
vt 0.378906 0.318359
vt 0.439453 0.318359
vt 0.500000 0.318359
vt 0.560547 0.318359
vt 0.621094 0.318359
vt 0.681641 0.318359
vt 0.742188 0.318359
vt 0.802734 0.318359
vt 0.863281 0.318359
vt 0.923828 0.318359
vt 0.984375 0.318359
vt 0.076172 0.378906
vt 0.015625 0.378906
vt 0.136719 0.378906
vt 0.197266 0.378906
vt 0.257812 0.378906
vt 0.318359 0.378906
vt 0.378906 0.378906
vt 0.439453 0.378906
vt 0.500000 0.378906
vt 0.560547 0.378906
vt 0.621094 0.378906
vt 0.681641 0.378906
vt 0.742188 0.378906
vt 0.802734 0.378906
vt 0.863281 0.378906
vt 0.923828 0.378906
vt 0.984375 0.378906
vt 0.076172 0.439453
vt 0.015625 0.439453
vt 0.136719 0.439453
vt 0.197266 0.439453
vt 0.257812 0.439453
vt 0.318359 0.439453
vt 0.378906 0.439453
vt 0.439453 0.439453
vt 0.500000 0.439453
vt 0.560547 0.439453
vt 0.621094 0.439453
vt 0.681641 0.439453
vt 0.742188 0.439453
vt 0.802734 0.439453
vt 0.863281 0.439453
vt 0.923828 0.439453
vt 0.984375 0.439453
vt 0.076172 0.500000
vt 0.015625 0.500000
vt 0.136719 0.500000
vt 0.197266 0.500000
vt 0.257812 0.500000
vt 0.318359 0.500000
vt 0.378906 0.500000
vt 0.439453 0.500000
vt 0.500000 0.500000
vt 0.560547 0.500000
vt 0.621094 0.500000
vt 0.681641 0.500000
vt 0.742188 0.500000
vt 0.802734 0.500000
vt 0.863281 0.500000
vt 0.923828 0.500000
vt 0.984375 0.500000
vt 0.076172 0.560547
vt 0.015625 0.560547
vt 0.136719 0.560547
vt 0.197266 0.560547
vt 0.257812 0.560547
vt 0.318359 0.560547
vt 0.378906 0.560547
vt 0.439453 0.560547
vt 0.500000 0.560547
vt 0.560547 0.560547
vt 0.621094 0.560547
vt 0.681641 0.560547
vt 0.742188 0.560547
vt 0.802734 0.560547
vt 0.863281 0.560547
vt 0.923828 0.560547
vt 0.984375 0.560547
vt 0.076172 0.621094
vt 0.015625 0.621094
vt 0.136719 0.621094
vt 0.197266 0.621094
vt 0.257812 0.621094
vt 0.318359 0.621094
vt 0.378906 0.621094
vt 0.439453 0.621094
vt 0.500000 0.621094
vt 0.560547 0.621094
vt 0.621094 0.621094
vt 0.681641 0.621094
vt 0.742188 0.621094
vt 0.802734 0.621094
vt 0.863281 0.621094
vt 0.923828 0.621094
vt 0.984375 0.621094
vt 0.076172 0.681641
vt 0.015625 0.681641
vt 0.136719 0.681641
vt 0.197266 0.681641
vt 0.257812 0.681641
vt 0.318359 0.681641
vt 0.378906 0.681641
vt 0.439453 0.681641
vt 0.500000 0.681641
vt 0.560547 0.681641
vt 0.621094 0.681641
vt 0.681641 0.681641
vt 0.742188 0.681641
vt 0.802734 0.681641
vt 0.863281 0.681641
vt 0.923828 0.681641
vt 0.984375 0.681641
vt 0.076172 0.742188
vt 0.015625 0.742188
vt 0.136719 0.742188
vt 0.197266 0.742188
vt 0.257812 0.742188
vt 0.318359 0.742188
vt 0.378906 0.742188
vt 0.439453 0.742188
vt 0.500000 0.742188
vt 0.560547 0.742188
vt 0.621094 0.742188
vt 0.681641 0.742188
vt 0.742188 0.742188
vt 0.802734 0.742188
vt 0.863281 0.742188
vt 0.923828 0.742188
vt 0.984375 0.742188
vt 0.076172 0.802734
vt 0.015625 0.802734
vt 0.136719 0.802734
vt 0.197266 0.802734
vt 0.257812 0.802734
vt 0.318359 0.802734
vt 0.378906 0.802734
vt 0.439453 0.802734
vt 0.500000 0.802734
vt 0.560547 0.802734
vt 0.621094 0.802734
vt 0.681641 0.802734
vt 0.742188 0.802734
vt 0.802734 0.802734
vt 0.863281 0.802734
vt 0.923828 0.802734
vt 0.984375 0.802734
vt 0.076172 0.863281
vt 0.015625 0.863281
vt 0.136719 0.863281
vt 0.197266 0.863281
vt 0.257812 0.863281
vt 0.318359 0.863281
vt 0.378906 0.863281
vt 0.439453 0.863281
vt 0.500000 0.863281
vt 0.560547 0.863281
vt 0.621094 0.863281
vt 0.681641 0.863281
vt 0.742188 0.863281
vt 0.802734 0.863281
vt 0.863281 0.863281
vt 0.923828 0.863281
vt 0.984375 0.863281
vt 0.076172 0.923828
vt 0.015625 0.923828
vt 0.136719 0.923828
vt 0.197266 0.923828
vt 0.257812 0.923828
vt 0.318359 0.923828
vt 0.378906 0.923828
vt 0.439453 0.923828
vt 0.500000 0.923828
vt 0.560547 0.923828
vt 0.621094 0.923828
vt 0.681641 0.923828
vt 0.742188 0.923828
vt 0.802734 0.923828
vt 0.863281 0.923828
vt 0.923828 0.923828
vt 0.984375 0.923828
vt 0.076172 0.984375
vt 0.015625 0.984375
vt 0.136719 0.984375
vt 0.197266 0.984375
vt 0.257812 0.984375
vt 0.318359 0.984375
vt 0.378906 0.984375
vt 0.439453 0.984375
vt 0.500000 0.984375
vt 0.560547 0.984375
vt 0.621094 0.984375
vt 0.681641 0.984375
vt 0.742188 0.984375
vt 0.802734 0.984375
vt 0.863281 0.984375
vt 0.923828 0.984375
vt 0.984375 0.984375
s 1
f 1/1/1 2/2/2 19/3/3
f 1/1/1 19/3/3 18/4/4
f 2/2/2 3/5/5 20/6/6
f 2/2/2 20/6/6 19/3/3
f 3/5/5 4/7/7 21/8/8
f 3/5/5 21/8/8 20/6/6
f 4/7/7 5/9/9 22/10/10
f 4/7/7 22/10/10 21/8/8
f 5/9/9 6/11/11 23/12/12
f 5/9/9 23/12/12 22/10/10
f 6/11/11 7/13/13 24/14/14
f 6/11/11 24/14/14 23/12/12
f 7/13/13 8/15/15 25/16/16
f 7/13/13 25/16/16 24/14/14
f 8/15/15 9/17/17 26/18/18
f 8/15/15 26/18/18 25/16/16
f 9/17/17 10/19/19 27/20/20
f 9/17/17 27/20/20 26/18/18
f 10/19/19 11/21/21 28/22/22
f 10/19/19 28/22/22 27/20/20
f 11/21/21 12/23/23 29/24/24
f 11/21/21 29/24/24 28/22/22
f 12/23/23 13/25/25 30/26/26
f 12/23/23 30/26/26 29/24/24
f 13/25/25 14/27/27 31/28/28
f 13/25/25 31/28/28 30/26/26
f 14/27/27 15/29/29 32/30/30
f 14/27/27 32/30/30 31/28/28
f 15/29/29 16/31/31 33/32/32
f 15/29/29 33/32/32 32/30/30
f 16/31/31 17/33/33 34/34/34
f 16/31/31 34/34/34 33/32/32
f 18/4/4 19/3/3 36/35/35
f 18/4/4 36/35/35 35/36/36
f 19/3/3 20/6/6 37/37/37
f 19/3/3 37/37/37 36/35/35
f 20/6/6 21/8/8 38/38/38
f 20/6/6 38/38/38 37/37/37
f 21/8/8 22/10/10 39/39/39
f 21/8/8 39/39/39 38/38/38
f 22/10/10 23/12/12 40/40/40
f 22/10/10 40/40/40 39/39/39
f 23/12/12 24/14/14 41/41/41
f 23/12/12 41/41/41 40/40/40
f 24/14/14 25/16/16 42/42/42
f 24/14/14 42/42/42 41/41/41
f 25/16/16 26/18/18 43/43/43
f 25/16/16 43/43/43 42/42/42
f 26/18/18 27/20/20 44/44/44
f 26/18/18 44/44/44 43/43/43
f 27/20/20 28/22/22 45/45/45
f 27/20/20 45/45/45 44/44/44
f 28/22/22 29/24/24 46/46/46
f 28/22/22 46/46/46 45/45/45
f 29/24/24 30/26/26 47/47/47
f 29/24/24 47/47/47 46/46/46
f 30/26/26 31/28/28 48/48/48
f 30/26/26 48/48/48 47/47/47
f 31/28/28 32/30/30 49/49/49
f 31/28/28 49/49/49 48/48/48
f 32/30/30 33/32/32 50/50/50
f 32/30/30 50/50/50 49/49/49
f 33/32/32 34/34/34 51/51/51
f 33/32/32 51/51/51 50/50/50
f 35/36/36 36/35/35 53/52/52
f 35/36/36 53/52/52 52/53/53
f 36/35/35 37/37/37 54/54/54
f 36/35/35 54/54/54 53/52/52
f 37/37/37 38/38/38 55/55/55
f 37/37/37 55/55/55 54/54/54
f 38/38/38 39/39/39 56/56/56
f 38/38/38 56/56/56 55/55/55
f 39/39/39 40/40/40 57/57/57
f 39/39/39 57/57/57 56/56/56
f 40/40/40 41/41/41 58/58/58
f 40/40/40 58/58/58 57/57/57
f 41/41/41 42/42/42 59/59/59
f 41/41/41 59/59/59 58/58/58
f 42/42/42 43/43/43 60/60/60
f 42/42/42 60/60/60 59/59/59
f 43/43/43 44/44/44 61/61/61
f 43/43/43 61/61/61 60/60/60
f 44/44/44 45/45/45 62/62/62
f 44/44/44 62/62/62 61/61/61
f 45/45/45 46/46/46 63/63/63
f 45/45/45 63/63/63 62/62/62
f 46/46/46 47/47/47 64/64/64
f 46/46/46 64/64/64 63/63/63
f 47/47/47 48/48/48 65/65/65
f 47/47/47 65/65/65 64/64/64
f 48/48/48 49/49/49 66/66/66
f 48/48/48 66/66/66 65/65/65
f 49/49/49 50/50/50 67/67/67
f 49/49/49 67/67/67 66/66/66
f 50/50/50 51/51/51 68/68/68
f 50/50/50 68/68/68 67/67/67
f 52/53/53 53/52/52 70/69/69
f 52/53/53 70/69/69 69/70/70
f 53/52/52 54/54/54 71/71/71
f 53/52/52 71/71/71 70/69/69
f 54/54/54 55/55/55 72/72/72
f 54/54/54 72/72/72 71/71/71
f 55/55/55 56/56/56 73/73/73
f 55/55/55 73/73/73 72/72/72
f 56/56/56 57/57/57 74/74/74
f 56/56/56 74/74/74 73/73/73
f 57/57/57 58/58/58 75/75/75
f 57/57/57 75/75/75 74/74/74
f 58/58/58 59/59/59 76/76/76
f 58/58/58 76/76/76 75/75/75
f 59/59/59 60/60/60 77/77/77
f 59/59/59 77/77/77 76/76/76
f 60/60/60 61/61/61 78/78/78
f 60/60/60 78/78/78 77/77/77
f 61/61/61 62/62/62 79/79/79
f 61/61/61 79/79/79 78/78/78
f 62/62/62 63/63/63 80/80/80
f 62/62/62 80/80/80 79/79/79
f 63/63/63 64/64/64 81/81/81
f 63/63/63 81/81/81 80/80/80
f 64/64/64 65/65/65 82/82/82
f 64/64/64 82/82/82 81/81/81
f 65/65/65 66/66/66 83/83/83
f 65/65/65 83/83/83 82/82/82
f 66/66/66 67/67/67 84/84/84
f 66/66/66 84/84/84 83/83/83
f 67/67/67 68/68/68 85/85/85
f 67/67/67 85/85/85 84/84/84
f 69/70/70 70/69/69 87/86/86
f 69/70/70 87/86/86 86/87/87
f 70/69/69 71/71/71 88/88/88
f 70/69/69 88/88/88 87/86/86
f 71/71/71 72/72/72 89/89/89
f 71/71/71 89/89/89 88/88/88
f 72/72/72 73/73/73 90/90/90
f 72/72/72 90/90/90 89/89/89
f 73/73/73 74/74/74 91/91/91
f 73/73/73 91/91/91 90/90/90
f 74/74/74 75/75/75 92/92/92
f 74/74/74 92/92/92 91/91/91
f 75/75/75 76/76/76 93/93/93
f 75/75/75 93/93/93 92/92/92
f 76/76/76 77/77/77 94/94/94
f 76/76/76 94/94/94 93/93/93
f 77/77/77 78/78/78 95/95/95
f 77/77/77 95/95/95 94/94/94
f 78/78/78 79/79/79 96/96/96
f 78/78/78 96/96/96 95/95/95
f 79/79/79 80/80/80 97/97/97
f 79/79/79 97/97/97 96/96/96
f 80/80/80 81/81/81 98/98/98
f 80/80/80 98/98/98 97/97/97
f 81/81/81 82/82/82 99/99/99
f 81/81/81 99/99/99 98/98/98
f 82/82/82 83/83/83 100/100/100
f 82/82/82 100/100/100 99/99/99
f 83/83/83 84/84/84 101/101/101
f 83/83/83 101/101/101 100/100/100
f 84/84/84 85/85/85 102/102/102
f 84/84/84 102/102/102 101/101/101
f 86/87/87 87/86/86 104/103/103
f 86/87/87 104/103/103 103/104/104
f 87/86/86 88/88/88 105/105/105
f 87/86/86 105/105/105 104/103/103
f 88/88/88 89/89/89 106/106/106
f 88/88/88 106/106/106 105/105/105
f 89/89/89 90/90/90 107/107/107
f 89/89/89 107/107/107 106/106/106
f 90/90/90 91/91/91 108/108/108
f 90/90/90 108/108/108 107/107/107
f 91/91/91 92/92/92 109/109/109
f 91/91/91 109/109/109 108/108/108
f 92/92/92 93/93/93 110/110/110
f 92/92/92 110/110/110 109/109/109
f 93/93/93 94/94/94 111/111/111
f 93/93/93 111/111/111 110/110/110
f 94/94/94 95/95/95 112/112/112
f 94/94/94 112/112/112 111/111/111
f 95/95/95 96/96/96 113/113/113
f 95/95/95 113/113/113 112/112/112
f 96/96/96 97/97/97 114/114/114
f 96/96/96 114/114/114 113/113/113
f 97/97/97 98/98/98 115/115/115
f 97/97/97 115/115/115 114/114/114
f 98/98/98 99/99/99 116/116/116
f 98/98/98 116/116/116 115/115/115
f 99/99/99 100/100/100 117/117/117
f 99/99/99 117/117/117 116/116/116
f 100/100/100 101/101/101 118/118/118
f 100/100/100 118/118/118 117/117/117
f 101/101/101 102/102/102 119/119/119
f 101/101/101 119/119/119 118/118/118
f 103/104/104 104/103/103 121/120/120
f 103/104/104 121/120/120 120/121/121
f 104/103/103 105/105/105 122/122/122
f 104/103/103 122/122/122 121/120/120
f 105/105/105 106/106/106 123/123/123
f 105/105/105 123/123/123 122/122/122
f 106/106/106 107/107/107 124/124/124
f 106/106/106 124/124/124 123/123/123
f 107/107/107 108/108/108 125/125/125
f 107/107/107 125/125/125 124/124/124
f 108/108/108 109/109/109 126/126/126
f 108/108/108 126/126/126 125/125/125
f 109/109/109 110/110/110 127/127/127
f 109/109/109 127/127/127 126/126/126
f 110/110/110 111/111/111 128/128/128
f 110/110/110 128/128/128 127/127/127
f 111/111/111 112/112/112 129/129/129
f 111/111/111 129/129/129 128/128/128
f 112/112/112 113/113/113 130/130/130
f 112/112/112 130/130/130 129/129/129
f 113/113/113 114/114/114 131/131/131
f 113/113/113 131/131/131 130/130/130
f 114/114/114 115/115/115 132/132/132
f 114/114/114 132/132/132 131/131/131
f 115/115/115 116/116/116 133/133/133
f 115/115/115 133/133/133 132/132/132
f 116/116/116 117/117/117 134/134/134
f 116/116/116 134/134/134 133/133/133
f 117/117/117 118/118/118 135/135/135
f 117/117/117 135/135/135 134/134/134
f 118/118/118 119/119/119 136/136/136
f 118/118/118 136/136/136 135/135/135
f 120/121/121 121/120/120 138/137/137
f 120/121/121 138/137/137 137/138/138
f 121/120/120 122/122/122 139/139/139
f 121/120/120 139/139/139 138/137/137
f 122/122/122 123/123/123 140/140/140
f 122/122/122 140/140/140 139/139/139
f 123/123/123 124/124/124 141/141/141
f 123/123/123 141/141/141 140/140/140
f 124/124/124 125/125/125 142/142/142
f 124/124/124 142/142/142 141/141/141
f 125/125/125 126/126/126 143/143/143
f 125/125/125 143/143/143 142/142/142
f 126/126/126 127/127/127 144/144/144
f 126/126/126 144/144/144 143/143/143
f 127/127/127 128/128/128 145/145/145
f 127/127/127 145/145/145 144/144/144
f 128/128/128 129/129/129 146/146/146
f 128/128/128 146/146/146 145/145/145
f 129/129/129 130/130/130 147/147/147
f 129/129/129 147/147/147 146/146/146
f 130/130/130 131/131/131 148/148/148
f 130/130/130 148/148/148 147/147/147
f 131/131/131 132/132/132 149/149/149
f 131/131/131 149/149/149 148/148/148
f 132/132/132 133/133/133 150/150/150
f 132/132/132 150/150/150 149/149/149
f 133/133/133 134/134/134 151/151/151
f 133/133/133 151/151/151 150/150/150
f 134/134/134 135/135/135 152/152/152
f 134/134/134 152/152/152 151/151/151
f 135/135/135 136/136/136 153/153/153
f 135/135/135 153/153/153 152/152/152
f 137/138/138 138/137/137 155/154/154
f 137/138/138 155/154/154 154/155/155
f 138/137/137 139/139/139 156/156/156
f 138/137/137 156/156/156 155/154/154
f 139/139/139 140/140/140 157/157/157
f 139/139/139 157/157/157 156/156/156
f 140/140/140 141/141/141 158/158/158
f 140/140/140 158/158/158 157/157/157
f 141/141/141 142/142/142 159/159/159
f 141/141/141 159/159/159 158/158/158
f 142/142/142 143/143/143 160/160/160
f 142/142/142 160/160/160 159/159/159
f 143/143/143 144/144/144 161/161/161
f 143/143/143 161/161/161 160/160/160
f 144/144/144 145/145/145 162/162/162
f 144/144/144 162/162/162 161/161/161
f 145/145/145 146/146/146 163/163/163
f 145/145/145 163/163/163 162/162/162
f 146/146/146 147/147/147 164/164/164
f 146/146/146 164/164/164 163/163/163
f 147/147/147 148/148/148 165/165/165
f 147/147/147 165/165/165 164/164/164
f 148/148/148 149/149/149 166/166/166
f 148/148/148 166/166/166 165/165/165
f 149/149/149 150/150/150 167/167/167
f 149/149/149 167/167/167 166/166/166
f 150/150/150 151/151/151 168/168/168
f 150/150/150 168/168/168 167/167/167
f 151/151/151 152/152/152 169/169/169
f 151/151/151 169/169/169 168/168/168
f 152/152/152 153/153/153 170/170/170
f 152/152/152 170/170/170 169/169/169
f 154/155/155 155/154/154 172/171/171
f 154/155/155 172/171/171 171/172/172
f 155/154/154 156/156/156 173/173/173
f 155/154/154 173/173/173 172/171/171
f 156/156/156 157/157/157 174/174/174
f 156/156/156 174/174/174 173/173/173
f 157/157/157 158/158/158 175/175/175
f 157/157/157 175/175/175 174/174/174
f 158/158/158 159/159/159 176/176/176
f 158/158/158 176/176/176 175/175/175
f 159/159/159 160/160/160 177/177/177
f 159/159/159 177/177/177 176/176/176
f 160/160/160 161/161/161 178/178/178
f 160/160/160 178/178/178 177/177/177
f 161/161/161 162/162/162 179/179/179
f 161/161/161 179/179/179 178/178/178
f 162/162/162 163/163/163 180/180/180
f 162/162/162 180/180/180 179/179/179
f 163/163/163 164/164/164 181/181/181
f 163/163/163 181/181/181 180/180/180
f 164/164/164 165/165/165 182/182/182
f 164/164/164 182/182/182 181/181/181
f 165/165/165 166/166/166 183/183/183
f 165/165/165 183/183/183 182/182/182
f 166/166/166 167/167/167 184/184/184
f 166/166/166 184/184/184 183/183/183
f 167/167/167 168/168/168 185/185/185
f 167/167/167 185/185/185 184/184/184
f 168/168/168 169/169/169 186/186/186
f 168/168/168 186/186/186 185/185/185
f 169/169/169 170/170/170 187/187/187
f 169/169/169 187/187/187 186/186/186
f 171/172/172 172/171/171 189/188/188
f 171/172/172 189/188/188 188/189/189
f 172/171/171 173/173/173 190/190/190
f 172/171/171 190/190/190 189/188/188
f 173/173/173 174/174/174 191/191/191
f 173/173/173 191/191/191 190/190/190
f 174/174/174 175/175/175 192/192/192
f 174/174/174 192/192/192 191/191/191
f 175/175/175 176/176/176 193/193/193
f 175/175/175 193/193/193 192/192/192
f 176/176/176 177/177/177 194/194/194
f 176/176/176 194/194/194 193/193/193
f 177/177/177 178/178/178 195/195/195
f 177/177/177 195/195/195 194/194/194
f 178/178/178 179/179/179 196/196/196
f 178/178/178 196/196/196 195/195/195
f 179/179/179 180/180/180 197/197/197
f 179/179/179 197/197/197 196/196/196
f 180/180/180 181/181/181 198/198/198
f 180/180/180 198/198/198 197/197/197
f 181/181/181 182/182/182 199/199/199
f 181/181/181 199/199/199 198/198/198
f 182/182/182 183/183/183 200/200/200
f 182/182/182 200/200/200 199/199/199
f 183/183/183 184/184/184 201/201/201
f 183/183/183 201/201/201 200/200/200
f 184/184/184 185/185/185 202/202/202
f 184/184/184 202/202/202 201/201/201
f 185/185/185 186/186/186 203/203/203
f 185/185/185 203/203/203 202/202/202
f 186/186/186 187/187/187 204/204/204
f 186/186/186 204/204/204 203/203/203
f 188/189/189 189/188/188 206/205/205
f 188/189/189 206/205/205 205/206/206
f 189/188/188 190/190/190 207/207/207
f 189/188/188 207/207/207 206/205/205
f 190/190/190 191/191/191 208/208/208
f 190/190/190 208/208/208 207/207/207
f 191/191/191 192/192/192 209/209/209
f 191/191/191 209/209/209 208/208/208
f 192/192/192 193/193/193 210/210/210
f 192/192/192 210/210/210 209/209/209
f 193/193/193 194/194/194 211/211/211
f 193/193/193 211/211/211 210/210/210
f 194/194/194 195/195/195 212/212/212
f 194/194/194 212/212/212 211/211/211
f 195/195/195 196/196/196 213/213/213
f 195/195/195 213/213/213 212/212/212
f 196/196/196 197/197/197 214/214/214
f 196/196/196 214/214/214 213/213/213
f 197/197/197 198/198/198 215/215/215
f 197/197/197 215/215/215 214/214/214
f 198/198/198 199/199/199 216/216/216
f 198/198/198 216/216/216 215/215/215
f 199/199/199 200/200/200 217/217/217
f 199/199/199 217/217/217 216/216/216
f 200/200/200 201/201/201 218/218/218
f 200/200/200 218/218/218 217/217/217
f 201/201/201 202/202/202 219/219/219
f 201/201/201 219/219/219 218/218/218
f 202/202/202 203/203/203 220/220/220
f 202/202/202 220/220/220 219/219/219
f 203/203/203 204/204/204 221/221/221
f 203/203/203 221/221/221 220/220/220
f 205/206/206 206/205/205 223/222/222
f 205/206/206 223/222/222 222/223/223
f 206/205/205 207/207/207 224/224/224
f 206/205/205 224/224/224 223/222/222
f 207/207/207 208/208/208 225/225/225
f 207/207/207 225/225/225 224/224/224
f 208/208/208 209/209/209 226/226/226
f 208/208/208 226/226/226 225/225/225
f 209/209/209 210/210/210 227/227/227
f 209/209/209 227/227/227 226/226/226
f 210/210/210 211/211/211 228/228/228
f 210/210/210 228/228/228 227/227/227
f 211/211/211 212/212/212 229/229/229
f 211/211/211 229/229/229 228/228/228
f 212/212/212 213/213/213 230/230/230
f 212/212/212 230/230/230 229/229/229
f 213/213/213 214/214/214 231/231/231
f 213/213/213 231/231/231 230/230/230
f 214/214/214 215/215/215 232/232/232
f 214/214/214 232/232/232 231/231/231
f 215/215/215 216/216/216 233/233/233
f 215/215/215 233/233/233 232/232/232
f 216/216/216 217/217/217 234/234/234
f 216/216/216 234/234/234 233/233/233
f 217/217/217 218/218/218 235/235/235
f 217/217/217 235/235/235 234/234/234
f 218/218/218 219/219/219 236/236/236
f 218/218/218 236/236/236 235/235/235
f 219/219/219 220/220/220 237/237/237
f 219/219/219 237/237/237 236/236/236
f 220/220/220 221/221/221 238/238/238
f 220/220/220 238/238/238 237/237/237
f 222/223/223 223/222/222 240/239/239
f 222/223/223 240/239/239 239/240/240
f 223/222/222 224/224/224 241/241/241
f 223/222/222 241/241/241 240/239/239
f 224/224/224 225/225/225 242/242/242
f 224/224/224 242/242/242 241/241/241
f 225/225/225 226/226/226 243/243/243
f 225/225/225 243/243/243 242/242/242
f 226/226/226 227/227/227 244/244/244
f 226/226/226 244/244/244 243/243/243
f 227/227/227 228/228/228 245/245/245
f 227/227/227 245/245/245 244/244/244
f 228/228/228 229/229/229 246/246/246
f 228/228/228 246/246/246 245/245/245
f 229/229/229 230/230/230 247/247/247
f 229/229/229 247/247/247 246/246/246
f 230/230/230 231/231/231 248/248/248
f 230/230/230 248/248/248 247/247/247
f 231/231/231 232/232/232 249/249/249
f 231/231/231 249/249/249 248/248/248
f 232/232/232 233/233/233 250/250/250
f 232/232/232 250/250/250 249/249/249
f 233/233/233 234/234/234 251/251/251
f 233/233/233 251/251/251 250/250/250
f 234/234/234 235/235/235 252/252/252
f 234/234/234 252/252/252 251/251/251
f 235/235/235 236/236/236 253/253/253
f 235/235/235 253/253/253 252/252/252
f 236/236/236 237/237/237 254/254/254
f 236/236/236 254/254/254 253/253/253
f 237/237/237 238/238/238 255/255/255
f 237/237/237 255/255/255 254/254/254
f 239/240/240 240/239/239 257/256/256
f 239/240/240 257/256/256 256/257/257
f 240/239/239 241/241/241 258/258/258
f 240/239/239 258/258/258 257/256/256
f 241/241/241 242/242/242 259/259/259
f 241/241/241 259/259/259 258/258/258
f 242/242/242 243/243/243 260/260/260
f 242/242/242 260/260/260 259/259/259
f 243/243/243 244/244/244 261/261/261
f 243/243/243 261/261/261 260/260/260
f 244/244/244 245/245/245 262/262/262
f 244/244/244 262/262/262 261/261/261
f 245/245/245 246/246/246 263/263/263
f 245/245/245 263/263/263 262/262/262
f 246/246/246 247/247/247 264/264/264
f 246/246/246 264/264/264 263/263/263
f 247/247/247 248/248/248 265/265/265
f 247/247/247 265/265/265 264/264/264
f 248/248/248 249/249/249 266/266/266
f 248/248/248 266/266/266 265/265/265
f 249/249/249 250/250/250 267/267/267
f 249/249/249 267/267/267 266/266/266
f 250/250/250 251/251/251 268/268/268
f 250/250/250 268/268/268 267/267/267
f 251/251/251 252/252/252 269/269/269
f 251/251/251 269/269/269 268/268/268
f 252/252/252 253/253/253 270/270/270
f 252/252/252 270/270/270 269/269/269
f 253/253/253 254/254/254 271/271/271
f 253/253/253 271/271/271 270/270/270
f 254/254/254 255/255/255 272/272/272
f 254/254/254 272/272/272 271/271/271
f 256/257/257 257/256/256 274/273/273
f 256/257/257 274/273/273 273/274/274
f 257/256/256 258/258/258 275/275/275
f 257/256/256 275/275/275 274/273/273
f 258/258/258 259/259/259 276/276/276
f 258/258/258 276/276/276 275/275/275
f 259/259/259 260/260/260 277/277/277
f 259/259/259 277/277/277 276/276/276
f 260/260/260 261/261/261 278/278/278
f 260/260/260 278/278/278 277/277/277
f 261/261/261 262/262/262 279/279/279
f 261/261/261 279/279/279 278/278/278
f 262/262/262 263/263/263 280/280/280
f 262/262/262 280/280/280 279/279/279
f 263/263/263 264/264/264 281/281/281
f 263/263/263 281/281/281 280/280/280
f 264/264/264 265/265/265 282/282/282
f 264/264/264 282/282/282 281/281/281
f 265/265/265 266/266/266 283/283/283
f 265/265/265 283/283/283 282/282/282
f 266/266/266 267/267/267 284/284/284
f 266/266/266 284/284/284 283/283/283
f 267/267/267 268/268/268 285/285/285
f 267/267/267 285/285/285 284/284/284
f 268/268/268 269/269/269 286/286/286
f 268/268/268 286/286/286 285/285/285
f 269/269/269 270/270/270 287/287/287
f 269/269/269 287/287/287 286/286/286
f 270/270/270 271/271/271 288/288/288
f 270/270/270 288/288/288 287/287/287
f 271/271/271 272/272/272 289/289/289
f 271/271/271 289/289/289 288/288/288
