mtllib terrain_mid_02_02.mtl
usemtl terrain_mid_02_02
# Blender 5.1.1
# www.blender.org
o terrain_mid_02_02
v -160.000000 -160.000000 -17.677732
v -140.000000 -160.000000 -18.243725
v -120.000000 -160.000000 -18.711660
v -100.000000 -160.000000 -19.056509
v -80.000000 -160.000000 -19.119518
v -60.000000 -160.000000 -19.102375
v -40.000000 -160.000000 -18.894550
v -20.000000 -160.000000 -18.593510
v 0.000000 -160.000000 -18.581236
v 20.000000 -160.000000 -19.037392
v 40.000000 -160.000000 -19.926233
v 60.000000 -160.000000 -21.445026
v 80.000000 -160.000000 -23.258835
v 100.000000 -160.000000 -25.639822
v 120.000000 -160.000000 -28.579702
v 140.000000 -160.000000 -31.440292
v 160.000000 -160.000000 -33.838310
v -160.000000 -140.000000 -12.089991
v -140.000000 -140.000000 -12.566031
v -120.000000 -140.000000 -13.319944
v -100.000000 -140.000000 -14.136968
v -80.000000 -140.000000 -14.708433
v -60.000000 -140.000000 -15.494071
v -40.000000 -140.000000 -16.216938
v -20.000000 -140.000000 -16.707178
v 0.000000 -140.000000 -17.253368
v 20.000000 -140.000000 -18.086140
v 40.000000 -140.000000 -19.406898
v 60.000000 -140.000000 -21.204304
v 80.000000 -140.000000 -23.207355
v 100.000000 -140.000000 -25.665024
v 120.000000 -140.000000 -28.564688
v 140.000000 -140.000000 -31.624218
v 160.000000 -140.000000 -34.504242
v -160.000000 -120.000000 -6.885835
v -140.000000 -120.000000 -7.706900
v -120.000000 -120.000000 -8.729680
v -100.000000 -120.000000 -9.740456
v -80.000000 -120.000000 -10.767759
v -60.000000 -120.000000 -12.032639
v -40.000000 -120.000000 -13.157441
v -20.000000 -120.000000 -14.132010
v 0.000000 -120.000000 -15.217941
v 20.000000 -120.000000 -16.652180
v 40.000000 -120.000000 -18.536747
v 60.000000 -120.000000 -20.576998
v 80.000000 -120.000000 -22.717453
v 100.000000 -120.000000 -25.078421
v 120.000000 -120.000000 -27.596426
v 140.000000 -120.000000 -30.232704
v 160.000000 -120.000000 -33.089535
v -160.000000 -100.000000 -1.230955
v -140.000000 -100.000000 -2.313420
v -120.000000 -100.000000 -3.623533
v -100.000000 -100.000000 -4.923704
v -80.000000 -100.000000 -6.208135
v -60.000000 -100.000000 -7.876517
v -40.000000 -100.000000 -9.463133
v -20.000000 -100.000000 -10.967486
v 0.000000 -100.000000 -12.594542
v 20.000000 -100.000000 -14.463634
v 40.000000 -100.000000 -16.598509
v 60.000000 -100.000000 -18.812037
v 80.000000 -100.000000 -21.411335
v 100.000000 -100.000000 -24.048386
v 120.000000 -100.000000 -26.375635
v 140.000000 -100.000000 -28.549551
v 160.000000 -100.000000 -31.000038
v -160.000000 -80.000000 4.661759
v -140.000000 -80.000000 3.348784
v -120.000000 -80.000000 1.782480
v -100.000000 -80.000000 0.177879
v -80.000000 -80.000000 -1.400809
v -60.000000 -80.000000 -3.308673
v -40.000000 -80.000000 -5.327994
v -20.000000 -80.000000 -7.482766
v 0.000000 -80.000000 -9.708115
v 20.000000 -80.000000 -12.050860
v 40.000000 -80.000000 -14.334681
v 60.000000 -80.000000 -16.810856
v 80.000000 -80.000000 -19.840757
v 100.000000 -80.000000 -22.765162
v 120.000000 -80.000000 -25.025490
v 140.000000 -80.000000 -26.963900
v 160.000000 -80.000000 -29.248886
v -160.000000 -60.000000 10.640579
v -140.000000 -60.000000 9.134063
v -120.000000 -60.000000 7.439177
v -100.000000 -60.000000 5.591487
v -80.000000 -60.000000 3.583200
v -60.000000 -60.000000 1.566517
v -40.000000 -60.000000 -0.776921
v -20.000000 -60.000000 -3.657760
v 0.000000 -60.000000 -6.779539
v 20.000000 -60.000000 -9.569755
v 40.000000 -60.000000 -12.206554
v 60.000000 -60.000000 -15.012049
v 80.000000 -60.000000 -18.276419
v 100.000000 -60.000000 -21.317917
v 120.000000 -60.000000 -23.634790
v 140.000000 -60.000000 -25.743311
v 160.000000 -60.000000 -28.440311
v -160.000000 -40.000000 16.295460
v -140.000000 -40.000000 14.604664
v -120.000000 -40.000000 12.739165
v -100.000000 -40.000000 10.721749
v -80.000000 -40.000000 8.563703
v -60.000000 -40.000000 6.159270
v -40.000000 -40.000000 3.417096
v -20.000000 -40.000000 0.183074
v 0.000000 -40.000000 -3.396848
v 20.000000 -40.000000 -6.858728
v 40.000000 -40.000000 -10.118033
v 60.000000 -40.000000 -13.413383
v 80.000000 -40.000000 -16.851933
v 100.000000 -40.000000 -19.997265
v 120.000000 -40.000000 -22.690245
v 140.000000 -40.000000 -25.512856
v 160.000000 -40.000000 -29.222342
v -160.000000 -20.000000 21.589758
v -140.000000 -20.000000 19.673458
v -120.000000 -20.000000 17.528025
v -100.000000 -20.000000 15.332746
v -80.000000 -20.000000 12.958179
v -60.000000 -20.000000 9.938167
v -40.000000 -20.000000 6.726782
v -20.000000 -20.000000 3.158544
v 0.000000 -20.000000 -0.716076
v 20.000000 -20.000000 -4.689620
v 40.000000 -20.000000 -8.621227
v 60.000000 -20.000000 -12.361671
v 80.000000 -20.000000 -15.970782
v 100.000000 -20.000000 -19.310322
v 120.000000 -20.000000 -22.348576
v 140.000000 -20.000000 -25.421215
v 160.000000 -20.000000 -29.290783
v -160.000000 0.000000 26.307720
v -140.000000 0.000000 23.944012
v -120.000000 0.000000 21.353897
v -100.000000 0.000000 18.574757
v -80.000000 0.000000 15.520368
v -60.000000 0.000000 11.831680
v -40.000000 0.000000 7.837092
v -20.000000 0.000000 3.771432
v 0.000000 0.000000 -0.156499
v 20.000000 0.000000 -4.217466
v 40.000000 0.000000 -8.445100
v 60.000000 0.000000 -12.351425
v 80.000000 0.000000 -15.997224
v 100.000000 0.000000 -19.477211
v 120.000000 0.000000 -22.488638
v 140.000000 0.000000 -24.745630
v 160.000000 0.000000 -27.214394
v -160.000000 20.000000 29.580542
v -140.000000 20.000000 26.578764
v -120.000000 20.000000 23.167564
v -100.000000 20.000000 19.292110
v -80.000000 20.000000 15.075598
v -60.000000 20.000000 10.569290
v -40.000000 20.000000 5.908863
v -20.000000 20.000000 1.648026
v 0.000000 20.000000 -2.105500
v 20.000000 20.000000 -5.759268
v 40.000000 20.000000 -9.026779
v 60.000000 20.000000 -11.827805
v 80.000000 20.000000 -14.396049
v 100.000000 20.000000 -16.882240
v 120.000000 20.000000 -19.214672
v 140.000000 20.000000 -21.333128
v 160.000000 20.000000 -23.561922
v -160.000000 40.000000 31.346289
v -140.000000 40.000000 27.495485
v -120.000000 40.000000 22.854263
v -100.000000 40.000000 17.864178
v -80.000000 40.000000 12.889094
v -60.000000 40.000000 8.176258
v -40.000000 40.000000 3.701194
v -20.000000 40.000000 0.065445
v 0.000000 40.000000 -3.039942
v 20.000000 40.000000 -5.770472
v 40.000000 40.000000 -7.817923
v 60.000000 40.000000 -9.453544
v 80.000000 40.000000 -11.053092
v 100.000000 40.000000 -12.624028
v 120.000000 40.000000 -14.460033
v 140.000000 40.000000 -16.815536
v 160.000000 40.000000 -19.354212
v -160.000000 60.000000 31.028702
v -140.000000 60.000000 26.022015
v -120.000000 60.000000 20.073679
v -100.000000 60.000000 14.531788
v -80.000000 60.000000 10.312515
v -60.000000 60.000000 7.315690
v -40.000000 60.000000 5.153641
v -20.000000 60.000000 3.412790
v 0.000000 60.000000 1.991159
v 20.000000 60.000000 0.467592
v 40.000000 60.000000 -1.029613
v 60.000000 60.000000 -2.793563
v 80.000000 60.000000 -4.754372
v 100.000000 60.000000 -6.856823
v 120.000000 60.000000 -9.233613
v 140.000000 60.000000 -12.153366
v 160.000000 60.000000 -15.090927
v -160.000000 80.000000 28.854183
v -140.000000 80.000000 23.270985
v -120.000000 80.000000 17.693626
v -100.000000 80.000000 13.919076
v -80.000000 80.000000 12.020226
v -60.000000 80.000000 10.930178
v -40.000000 80.000000 10.299129
v -20.000000 80.000000 9.738324
v 0.000000 80.000000 8.926760
v 20.000000 80.000000 7.698773
v 40.000000 80.000000 6.102677
v 60.000000 80.000000 4.100914
v 80.000000 80.000000 1.691429
v 100.000000 80.000000 -1.164155
v 120.000000 80.000000 -4.309948
v 140.000000 80.000000 -7.862818
v 160.000000 80.000000 -10.956934
v -160.000000 100.000000 26.178280
v -140.000000 100.000000 21.335533
v -120.000000 100.000000 17.631145
v -100.000000 100.000000 16.914425
v -80.000000 100.000000 17.331938
v -60.000000 100.000000 17.770273
v -40.000000 100.000000 17.794321
v -20.000000 100.000000 17.363628
v 0.000000 100.000000 16.525209
v 20.000000 100.000000 15.075692
v 40.000000 100.000000 13.161590
v 60.000000 100.000000 10.867400
v 80.000000 100.000000 8.045568
v 100.000000 100.000000 4.460886
v 120.000000 100.000000 0.389569
v 140.000000 100.000000 -3.729924
v 160.000000 100.000000 -6.992117
v -160.000000 120.000000 26.821514
v -140.000000 120.000000 24.189861
v -120.000000 120.000000 23.338848
v -100.000000 120.000000 23.934376
v -80.000000 120.000000 24.814632
v -60.000000 120.000000 25.340843
v -40.000000 120.000000 25.330717
v -20.000000 120.000000 24.837648
v 0.000000 120.000000 23.918262
v 20.000000 120.000000 22.210079
v 40.000000 120.000000 20.137487
v 60.000000 120.000000 17.400555
v 80.000000 120.000000 13.893652
v 100.000000 120.000000 9.552872
v 120.000000 120.000000 4.775983
v 140.000000 120.000000 0.262209
v 160.000000 120.000000 -3.323891
v -160.000000 140.000000 31.426889
v -140.000000 140.000000 30.827551
v -120.000000 140.000000 31.169958
v -100.000000 140.000000 32.071564
v -80.000000 140.000000 32.691570
v -60.000000 140.000000 32.958878
v -40.000000 140.000000 32.832352
v -20.000000 140.000000 32.179928
v 0.000000 140.000000 30.992970
v 20.000000 140.000000 28.920635
v 40.000000 140.000000 26.448238
v 60.000000 140.000000 23.096384
v 80.000000 140.000000 18.948658
v 100.000000 140.000000 13.893984
v 120.000000 140.000000 8.394899
v 140.000000 140.000000 3.102094
v 160.000000 140.000000 -1.125167
v -160.000000 160.000000 39.716095
v -140.000000 160.000000 39.525059
v -120.000000 160.000000 39.687714
v -100.000000 160.000000 40.056236
v -80.000000 160.000000 40.408436
v -60.000000 160.000000 40.487930
v -40.000000 160.000000 40.149063
v -20.000000 160.000000 39.161190
v 0.000000 160.000000 37.482586
v 20.000000 160.000000 34.913101
v 40.000000 160.000000 31.652346
v 60.000000 160.000000 27.652990
v 80.000000 160.000000 22.821365
v 100.000000 160.000000 17.062929
v 120.000000 160.000000 10.875823
v 140.000000 160.000000 4.931901
v 160.000000 160.000000 0.085180
vn 0.0346 -0.2624 0.9643
vn 0.0249 -0.2690 0.9628
vn 0.0297 -0.2546 0.9666
vn 0.0224 -0.2604 0.9652
vn 0.0196 -0.2568 0.9663
vn 0.0380 -0.2420 0.9695
vn 0.0099 -0.2353 0.9719
vn 0.0337 -0.2268 0.9734
vn 0.0011 -0.2093 0.9779
vn 0.0333 -0.2042 0.9784
vn -0.0055 -0.1738 0.9848
vn 0.0371 -0.1739 0.9841
vn -0.0126 -0.1240 0.9922
vn 0.0300 -0.1419 0.9894
vn -0.0078 -0.0837 0.9965
vn 0.0257 -0.1108 0.9935
vn 0.0111 -0.0558 0.9984
vn 0.0346 -0.0835 0.9959
vn 0.0336 -0.0360 0.9988
vn 0.0537 -0.0594 0.9968
vn 0.0601 -0.0167 0.9981
vn 0.0776 -0.0346 0.9964
vn 0.0830 0.0001 0.9965
vn 0.0946 -0.0216 0.9953
vn 0.1043 0.0107 0.9945
vn 0.1108 -0.0135 0.9938
vn 0.1318 0.0175 0.9911
vn 0.1327 -0.0139 0.9911
vn 0.1435 0.0262 0.9893
vn 0.1473 -0.0243 0.9888
vn 0.1302 0.0470 0.9904
vn 0.1468 -0.0299 0.9887
vn 0.1069 0.0818 0.9909
vn 0.1323 -0.0185 0.9910
vn 0.0445 -0.2481 0.9677
vn 0.0343 -0.2618 0.9645
vn 0.0493 -0.2354 0.9706
vn 0.0496 -0.2241 0.9733
vn 0.0556 -0.2078 0.9766
vn 0.0585 -0.1868 0.9807
vn 0.0517 -0.1663 0.9847
vn 0.0510 -0.1417 0.9886
vn 0.0624 -0.1156 0.9913
vn 0.0823 -0.0899 0.9925
vn 0.0974 -0.0697 0.9928
vn 0.1038 -0.0594 0.9928
vn 0.1117 -0.0445 0.9927
vn 0.1209 -0.0401 0.9918
vn 0.1275 -0.0543 0.9903
vn 0.1358 -0.0758 0.9878
vn 0.1371 -0.0864 0.9868
vn 0.0575 -0.2660 0.9623
vn 0.0453 -0.2771 0.9598
vn 0.0631 -0.2536 0.9653
vn 0.0626 -0.2402 0.9687
vn 0.0716 -0.2275 0.9711
vn 0.0794 -0.2122 0.9740
vn 0.0756 -0.1916 0.9786
vn 0.0771 -0.1634 0.9835
vn 0.0862 -0.1360 0.9869
vn 0.0989 -0.1137 0.9886
vn 0.1076 -0.1038 0.9888
vn 0.1190 -0.0930 0.9885
vn 0.1294 -0.0712 0.9890
vn 0.1230 -0.0573 0.9908
vn 0.1113 -0.0640 0.9917
vn 0.1145 -0.0809 0.9901
vn 0.1279 -0.0948 0.9872
vn 0.0690 -0.2746 0.9591
vn 0.0558 -0.2841 0.9572
vn 0.0761 -0.2659 0.9610
vn 0.0767 -0.2535 0.9643
vn 0.0843 -0.2370 0.9679
vn 0.0951 -0.2287 0.9688
vn 0.1015 -0.2111 0.9722
vn 0.1071 -0.1788 0.9780
vn 0.1123 -0.1430 0.9833
vn 0.1141 -0.1206 0.9861
vn 0.1175 -0.1084 0.9871
vn 0.1356 -0.0939 0.9863
vn 0.1468 -0.0773 0.9861
vn 0.1282 -0.0675 0.9894
vn 0.1042 -0.0680 0.9922
vn 0.1047 -0.0696 0.9921
vn 0.1256 -0.0634 0.9901
vn 0.0767 -0.2702 0.9597
vn 0.0642 -0.2787 0.9582
vn 0.0851 -0.2632 0.9610
vn 0.0928 -0.2538 0.9628
vn 0.0969 -0.2408 0.9657
vn 0.1055 -0.2291 0.9677
vn 0.1264 -0.2120 0.9691
vn 0.1458 -0.1862 0.9716
vn 0.1444 -0.1543 0.9774
vn 0.1333 -0.1276 0.9828
vn 0.1341 -0.1039 0.9855
vn 0.1495 -0.0837 0.9852
vn 0.1553 -0.0736 0.9851
vn 0.1325 -0.0684 0.9888
vn 0.1098 -0.0579 0.9923
vn 0.1192 -0.0360 0.9922
vn 0.1431 -0.0007 0.9897
vn 0.0858 -0.2537 0.9635
vn 0.0720 -0.2633 0.9620
vn 0.0938 -0.2434 0.9654
vn 0.1009 -0.2354 0.9666
vn 0.1104 -0.2268 0.9677
vn 0.1250 -0.2032 0.9711
vn 0.1452 -0.1825 0.9724
vn 0.1652 -0.1660 0.9722
vn 0.1715 -0.1476 0.9741
vn 0.1645 -0.1195 0.9791
vn 0.1611 -0.0881 0.9830
vn 0.1656 -0.0652 0.9840
vn 0.1623 -0.0567 0.9851
vn 0.1442 -0.0496 0.9883
vn 0.1364 -0.0320 0.9901
vn 0.1611 -0.0080 0.9869
vn 0.1750 0.0209 0.9843
vn 0.0984 -0.2263 0.9691
vn 0.0813 -0.2420 0.9669
vn 0.1055 -0.2093 0.9721
vn 0.1114 -0.1915 0.9752
vn 0.1317 -0.1699 0.9766
vn 0.1525 -0.1387 0.9785
vn 0.1663 -0.1079 0.9802
vn 0.1822 -0.0879 0.9793
vn 0.1919 -0.0793 0.9782
vn 0.1935 -0.0646 0.9790
vn 0.1882 -0.0411 0.9813
vn 0.1806 -0.0261 0.9832
vn 0.1709 -0.0212 0.9851
vn 0.1574 -0.0129 0.9875
vn 0.1510 -0.0050 0.9885
vn 0.1710 -0.0189 0.9851
vn 0.1763 -0.0494 0.9831
vn 0.1211 -0.1689 0.9782
vn 0.0998 -0.1949 0.9757
vn 0.1318 -0.1384 0.9816
vn 0.1436 -0.0975 0.9848
vn 0.1660 -0.0522 0.9847
vn 0.1884 -0.0156 0.9820
vn 0.1975 0.0200 0.9801
vn 0.1958 0.0370 0.9799
vn 0.1957 0.0340 0.9801
vn 0.2028 0.0262 0.9789
vn 0.1992 0.0099 0.9799
vn 0.1855 -0.0131 0.9826
vn 0.1752 -0.0387 0.9838
vn 0.1599 -0.0598 0.9853
vn 0.1302 -0.0774 0.9885
vn 0.1167 -0.1010 0.9880
vn 0.1263 -0.1406 0.9820
vn 0.1577 -0.0873 0.9836
vn 0.1306 -0.1239 0.9837
vn 0.1791 -0.0369 0.9831
vn 0.1982 0.0174 0.9800
vn 0.2126 0.0641 0.9750
vn 0.2225 0.0887 0.9709
vn 0.2166 0.1004 0.9711
vn 0.1957 0.0905 0.9765
vn 0.1816 0.0707 0.9808
vn 0.1704 0.0382 0.9846
vn 0.1500 -0.0155 0.9886
vn 0.1327 -0.0716 0.9886
vn 0.1245 -0.1216 0.9847
vn 0.1179 -0.1677 0.9788
vn 0.1085 -0.1956 0.9747
vn 0.1060 -0.1934 0.9754
vn 0.1086 -0.1916 0.9754
vn 0.2077 0.0136 0.9781
vn 0.1705 -0.0357 0.9847
vn 0.2334 0.0750 0.9695
vn 0.2401 0.1147 0.9639
vn 0.2338 0.1150 0.9655
vn 0.2231 0.0790 0.9716
vn 0.1987 0.0185 0.9799
vn 0.1660 -0.0435 0.9852
vn 0.1436 -0.1008 0.9845
vn 0.1172 -0.1528 0.9813
vn 0.0899 -0.1953 0.9766
vn 0.0787 -0.2196 0.9724
vn 0.0768 -0.2336 0.9693
vn 0.0823 -0.2423 0.9667
vn 0.1012 -0.2409 0.9653
vn 0.1185 -0.2220 0.9678
vn 0.1106 -0.2059 0.9723
vn 0.2628 0.1013 0.9595
vn 0.2232 0.0606 0.9729
vn 0.2740 0.1230 0.9538
vn 0.2360 0.0954 0.9671
vn 0.1775 0.0214 0.9839
vn 0.1276 -0.0681 0.9895
vn 0.0958 -0.1620 0.9821
vn 0.0766 -0.2343 0.9691
vn 0.0704 -0.2859 0.9557
vn 0.0714 -0.3183 0.9453
vn 0.0768 -0.3277 0.9417
vn 0.0879 -0.3197 0.9434
vn 0.0963 -0.3022 0.9484
vn 0.1071 -0.2738 0.9558
vn 0.1273 -0.2439 0.9614
vn 0.1414 -0.2162 0.9660
vn 0.1247 -0.2039 0.9710
vn 0.2671 0.1121 0.9571
vn 0.2568 0.1163 0.9594
vn 0.2273 0.0594 0.9720
vn 0.1402 -0.0589 0.9884
vn 0.0734 -0.1724 0.9823
vn 0.0416 -0.2527 0.9667
vn 0.0284 -0.3012 0.9531
vn 0.0323 -0.3291 0.9437
vn 0.0479 -0.3412 0.9388
vn 0.0662 -0.3423 0.9373
vn 0.0846 -0.3331 0.9391
vn 0.1038 -0.3215 0.9412
vn 0.1244 -0.3024 0.9450
vn 0.1429 -0.2695 0.9524
vn 0.1607 -0.2309 0.9596
vn 0.1605 -0.2034 0.9659
vn 0.1369 -0.1966 0.9709
vn 0.2089 -0.0225 0.9777
vn 0.2513 0.0491 0.9667
vn 0.1088 -0.1389 0.9843
vn 0.0073 -0.2429 0.9700
vn -0.0204 -0.3046 0.9523
vn -0.0108 -0.3390 0.9407
vn 0.0095 -0.3517 0.9360
vn 0.0297 -0.3530 0.9351
vn 0.0535 -0.3504 0.9351
vn 0.0784 -0.3403 0.9370
vn 0.0989 -0.3294 0.9390
vn 0.1205 -0.3132 0.9420
vn 0.1515 -0.2884 0.9455
vn 0.1817 -0.2546 0.9498
vn 0.1958 -0.2172 0.9563
vn 0.1780 -0.1959 0.9643
vn 0.1508 -0.1853 0.9710
vn 0.0844 -0.2301 0.9695
vn 0.1582 -0.1285 0.9790
vn 0.0061 -0.3206 0.9472
vn -0.0345 -0.3541 0.9346
vn -0.0328 -0.3583 0.9330
vn -0.0121 -0.3550 0.9348
vn 0.0118 -0.3518 0.9360
vn 0.0332 -0.3471 0.9372
vn 0.0617 -0.3394 0.9386
vn 0.0891 -0.3257 0.9413
vn 0.1134 -0.3132 0.9429
vn 0.1476 -0.2892 0.9458
vn 0.1862 -0.2581 0.9480
vn 0.2164 -0.2242 0.9502
vn 0.2221 -0.1913 0.9561
vn 0.1957 -0.1651 0.9667
vn 0.1683 -0.1430 0.9753
vn 0.0060 -0.3580 0.9337
vn 0.0609 -0.3062 0.9500
vn -0.0287 -0.3783 0.9253
vn -0.0352 -0.3736 0.9269
vn -0.0206 -0.3630 0.9315
vn -0.0033 -0.3541 0.9352
vn 0.0182 -0.3473 0.9376
vn 0.0433 -0.3368 0.9406
vn 0.0770 -0.3201 0.9442
vn 0.1077 -0.3009 0.9475
vn 0.1386 -0.2740 0.9517
vn 0.1787 -0.2442 0.9531
vn 0.2191 -0.2125 0.9523
vn 0.2508 -0.1787 0.9514
vn 0.2576 -0.1457 0.9552
vn 0.2301 -0.1128 0.9666
vn 0.1903 -0.0834 0.9782
vn 0.0007 -0.3957 0.9184
vn 0.0219 -0.3852 0.9226
vn -0.0122 -0.3895 0.9210
vn -0.0167 -0.3727 0.9278
vn -0.0101 -0.3623 0.9320
vn 0.0061 -0.3505 0.9365
vn 0.0312 -0.3344 0.9419
vn 0.0633 -0.3092 0.9489
vn 0.1016 -0.2740 0.9564
vn 0.1399 -0.2444 0.9595
vn 0.1748 -0.2048 0.9631
vn 0.2125 -0.1671 0.9628
vn 0.2537 -0.1310 0.9584
vn 0.2847 -0.0997 0.9534
vn 0.2894 -0.0733 0.9544
vn 0.2601 -0.0551 0.9640
vn 0.2021 -0.0477 0.9782
vt 0.015625 0.015625
vt 0.076172 0.015625
vt 0.076172 0.076172
vt 0.015625 0.076172
vt 0.136719 0.015625
vt 0.136719 0.076172
vt 0.197266 0.015625
vt 0.197266 0.076172
vt 0.257812 0.015625
vt 0.257812 0.076172
vt 0.318359 0.015625
vt 0.318359 0.076172
vt 0.378906 0.015625
vt 0.378906 0.076172
vt 0.439453 0.015625
vt 0.439453 0.076172
vt 0.500000 0.015625
vt 0.500000 0.076172
vt 0.560547 0.015625
vt 0.560547 0.076172
vt 0.621094 0.015625
vt 0.621094 0.076172
vt 0.681641 0.015625
vt 0.681641 0.076172
vt 0.742188 0.015625
vt 0.742188 0.076172
vt 0.802734 0.015625
vt 0.802734 0.076172
vt 0.863281 0.015625
vt 0.863281 0.076172
vt 0.923828 0.015625
vt 0.923828 0.076172
vt 0.984375 0.015625
vt 0.984375 0.076172
vt 0.076172 0.136719
vt 0.015625 0.136719
vt 0.136719 0.136719
vt 0.197266 0.136719
vt 0.257812 0.136719
vt 0.318359 0.136719
vt 0.378906 0.136719
vt 0.439453 0.136719
vt 0.500000 0.136719
vt 0.560547 0.136719
vt 0.621094 0.136719
vt 0.681641 0.136719
vt 0.742188 0.136719
vt 0.802734 0.136719
vt 0.863281 0.136719
vt 0.923828 0.136719
vt 0.984375 0.136719
vt 0.076172 0.197266
vt 0.015625 0.197266
vt 0.136719 0.197266
vt 0.197266 0.197266
vt 0.257812 0.197266
vt 0.318359 0.197266
vt 0.378906 0.197266
vt 0.439453 0.197266
vt 0.500000 0.197266
vt 0.560547 0.197266
vt 0.621094 0.197266
vt 0.681641 0.197266
vt 0.742188 0.197266
vt 0.802734 0.197266
vt 0.863281 0.197266
vt 0.923828 0.197266
vt 0.984375 0.197266
vt 0.076172 0.257812
vt 0.015625 0.257812
vt 0.136719 0.257812
vt 0.197266 0.257812
vt 0.257812 0.257812
vt 0.318359 0.257812
vt 0.378906 0.257812
vt 0.439453 0.257812
vt 0.500000 0.257812
vt 0.560547 0.257812
vt 0.621094 0.257812
vt 0.681641 0.257812
vt 0.742188 0.257812
vt 0.802734 0.257812
vt 0.863281 0.257812
vt 0.923828 0.257812
vt 0.984375 0.257812
vt 0.076172 0.318359
vt 0.015625 0.318359
vt 0.136719 0.318359
vt 0.197266 0.318359
vt 0.257812 0.318359
vt 0.318359 0.318359
vt 0.378906 0.318359
vt 0.439453 0.318359
vt 0.500000 0.318359
vt 0.560547 0.318359
vt 0.621094 0.318359
vt 0.681641 0.318359
vt 0.742188 0.318359
vt 0.802734 0.318359
vt 0.863281 0.318359
vt 0.923828 0.318359
vt 0.984375 0.318359
vt 0.076172 0.378906
vt 0.015625 0.378906
vt 0.136719 0.378906
vt 0.197266 0.378906
vt 0.257812 0.378906
vt 0.318359 0.378906
vt 0.378906 0.378906
vt 0.439453 0.378906
vt 0.500000 0.378906
vt 0.560547 0.378906
vt 0.621094 0.378906
vt 0.681641 0.378906
vt 0.742188 0.378906
vt 0.802734 0.378906
vt 0.863281 0.378906
vt 0.923828 0.378906
vt 0.984375 0.378906
vt 0.076172 0.439453
vt 0.015625 0.439453
vt 0.136719 0.439453
vt 0.197266 0.439453
vt 0.257812 0.439453
vt 0.318359 0.439453
vt 0.378906 0.439453
vt 0.439453 0.439453
vt 0.500000 0.439453
vt 0.560547 0.439453
vt 0.621094 0.439453
vt 0.681641 0.439453
vt 0.742188 0.439453
vt 0.802734 0.439453
vt 0.863281 0.439453
vt 0.923828 0.439453
vt 0.984375 0.439453
vt 0.076172 0.500000
vt 0.015625 0.500000
vt 0.136719 0.500000
vt 0.197266 0.500000
vt 0.257812 0.500000
vt 0.318359 0.500000
vt 0.378906 0.500000
vt 0.439453 0.500000
vt 0.500000 0.500000
vt 0.560547 0.500000
vt 0.621094 0.500000
vt 0.681641 0.500000
vt 0.742188 0.500000
vt 0.802734 0.500000
vt 0.863281 0.500000
vt 0.923828 0.500000
vt 0.984375 0.500000
vt 0.076172 0.560547
vt 0.015625 0.560547
vt 0.136719 0.560547
vt 0.197266 0.560547
vt 0.257812 0.560547
vt 0.318359 0.560547
vt 0.378906 0.560547
vt 0.439453 0.560547
vt 0.500000 0.560547
vt 0.560547 0.560547
vt 0.621094 0.560547
vt 0.681641 0.560547
vt 0.742188 0.560547
vt 0.802734 0.560547
vt 0.863281 0.560547
vt 0.923828 0.560547
vt 0.984375 0.560547
vt 0.076172 0.621094
vt 0.015625 0.621094
vt 0.136719 0.621094
vt 0.197266 0.621094
vt 0.257812 0.621094
vt 0.318359 0.621094
vt 0.378906 0.621094
vt 0.439453 0.621094
vt 0.500000 0.621094
vt 0.560547 0.621094
vt 0.621094 0.621094
vt 0.681641 0.621094
vt 0.742188 0.621094
vt 0.802734 0.621094
vt 0.863281 0.621094
vt 0.923828 0.621094
vt 0.984375 0.621094
vt 0.076172 0.681641
vt 0.015625 0.681641
vt 0.136719 0.681641
vt 0.197266 0.681641
vt 0.257812 0.681641
vt 0.318359 0.681641
vt 0.378906 0.681641
vt 0.439453 0.681641
vt 0.500000 0.681641
vt 0.560547 0.681641
vt 0.621094 0.681641
vt 0.681641 0.681641
vt 0.742188 0.681641
vt 0.802734 0.681641
vt 0.863281 0.681641
vt 0.923828 0.681641
vt 0.984375 0.681641
vt 0.076172 0.742188
vt 0.015625 0.742188
vt 0.136719 0.742188
vt 0.197266 0.742188
vt 0.257812 0.742188
vt 0.318359 0.742188
vt 0.378906 0.742188
vt 0.439453 0.742188
vt 0.500000 0.742188
vt 0.560547 0.742188
vt 0.621094 0.742188
vt 0.681641 0.742188
vt 0.742188 0.742188
vt 0.802734 0.742188
vt 0.863281 0.742188
vt 0.923828 0.742188
vt 0.984375 0.742188
vt 0.076172 0.802734
vt 0.015625 0.802734
vt 0.136719 0.802734
vt 0.197266 0.802734
vt 0.257812 0.802734
vt 0.318359 0.802734
vt 0.378906 0.802734
vt 0.439453 0.802734
vt 0.500000 0.802734
vt 0.560547 0.802734
vt 0.621094 0.802734
vt 0.681641 0.802734
vt 0.742188 0.802734
vt 0.802734 0.802734
vt 0.863281 0.802734
vt 0.923828 0.802734
vt 0.984375 0.802734
vt 0.076172 0.863281
vt 0.015625 0.863281
vt 0.136719 0.863281
vt 0.197266 0.863281
vt 0.257812 0.863281
vt 0.318359 0.863281
vt 0.378906 0.863281
vt 0.439453 0.863281
vt 0.500000 0.863281
vt 0.560547 0.863281
vt 0.621094 0.863281
vt 0.681641 0.863281
vt 0.742188 0.863281
vt 0.802734 0.863281
vt 0.863281 0.863281
vt 0.923828 0.863281
vt 0.984375 0.863281
vt 0.076172 0.923828
vt 0.015625 0.923828
vt 0.136719 0.923828
vt 0.197266 0.923828
vt 0.257812 0.923828
vt 0.318359 0.923828
vt 0.378906 0.923828
vt 0.439453 0.923828
vt 0.500000 0.923828
vt 0.560547 0.923828
vt 0.621094 0.923828
vt 0.681641 0.923828
vt 0.742188 0.923828
vt 0.802734 0.923828
vt 0.863281 0.923828
vt 0.923828 0.923828
vt 0.984375 0.923828
vt 0.076172 0.984375
vt 0.015625 0.984375
vt 0.136719 0.984375
vt 0.197266 0.984375
vt 0.257812 0.984375
vt 0.318359 0.984375
vt 0.378906 0.984375
vt 0.439453 0.984375
vt 0.500000 0.984375
vt 0.560547 0.984375
vt 0.621094 0.984375
vt 0.681641 0.984375
vt 0.742188 0.984375
vt 0.802734 0.984375
vt 0.863281 0.984375
vt 0.923828 0.984375
vt 0.984375 0.984375
s 1
f 1/1/1 2/2/2 19/3/3
f 1/1/1 19/3/3 18/4/4
f 2/2/2 3/5/5 20/6/6
f 2/2/2 20/6/6 19/3/3
f 3/5/5 4/7/7 21/8/8
f 3/5/5 21/8/8 20/6/6
f 4/7/7 5/9/9 22/10/10
f 4/7/7 22/10/10 21/8/8
f 5/9/9 6/11/11 23/12/12
f 5/9/9 23/12/12 22/10/10
f 6/11/11 7/13/13 24/14/14
f 6/11/11 24/14/14 23/12/12
f 7/13/13 8/15/15 25/16/16
f 7/13/13 25/16/16 24/14/14
f 8/15/15 9/17/17 26/18/18
f 8/15/15 26/18/18 25/16/16
f 9/17/17 10/19/19 27/20/20
f 9/17/17 27/20/20 26/18/18
f 10/19/19 11/21/21 28/22/22
f 10/19/19 28/22/22 27/20/20
f 11/21/21 12/23/23 29/24/24
f 11/21/21 29/24/24 28/22/22
f 12/23/23 13/25/25 30/26/26
f 12/23/23 30/26/26 29/24/24
f 13/25/25 14/27/27 31/28/28
f 13/25/25 31/28/28 30/26/26
f 14/27/27 15/29/29 32/30/30
f 14/27/27 32/30/30 31/28/28
f 15/29/29 16/31/31 33/32/32
f 15/29/29 33/32/32 32/30/30
f 16/31/31 17/33/33 34/34/34
f 16/31/31 34/34/34 33/32/32
f 18/4/4 19/3/3 36/35/35
f 18/4/4 36/35/35 35/36/36
f 19/3/3 20/6/6 37/37/37
f 19/3/3 37/37/37 36/35/35
f 20/6/6 21/8/8 38/38/38
f 20/6/6 38/38/38 37/37/37
f 21/8/8 22/10/10 39/39/39
f 21/8/8 39/39/39 38/38/38
f 22/10/10 23/12/12 40/40/40
f 22/10/10 40/40/40 39/39/39
f 23/12/12 24/14/14 41/41/41
f 23/12/12 41/41/41 40/40/40
f 24/14/14 25/16/16 42/42/42
f 24/14/14 42/42/42 41/41/41
f 25/16/16 26/18/18 43/43/43
f 25/16/16 43/43/43 42/42/42
f 26/18/18 27/20/20 44/44/44
f 26/18/18 44/44/44 43/43/43
f 27/20/20 28/22/22 45/45/45
f 27/20/20 45/45/45 44/44/44
f 28/22/22 29/24/24 46/46/46
f 28/22/22 46/46/46 45/45/45
f 29/24/24 30/26/26 47/47/47
f 29/24/24 47/47/47 46/46/46
f 30/26/26 31/28/28 48/48/48
f 30/26/26 48/48/48 47/47/47
f 31/28/28 32/30/30 49/49/49
f 31/28/28 49/49/49 48/48/48
f 32/30/30 33/32/32 50/50/50
f 32/30/30 50/50/50 49/49/49
f 33/32/32 34/34/34 51/51/51
f 33/32/32 51/51/51 50/50/50
f 35/36/36 36/35/35 53/52/52
f 35/36/36 53/52/52 52/53/53
f 36/35/35 37/37/37 54/54/54
f 36/35/35 54/54/54 53/52/52
f 37/37/37 38/38/38 55/55/55
f 37/37/37 55/55/55 54/54/54
f 38/38/38 39/39/39 56/56/56
f 38/38/38 56/56/56 55/55/55
f 39/39/39 40/40/40 57/57/57
f 39/39/39 57/57/57 56/56/56
f 40/40/40 41/41/41 58/58/58
f 40/40/40 58/58/58 57/57/57
f 41/41/41 42/42/42 59/59/59
f 41/41/41 59/59/59 58/58/58
f 42/42/42 43/43/43 60/60/60
f 42/42/42 60/60/60 59/59/59
f 43/43/43 44/44/44 61/61/61
f 43/43/43 61/61/61 60/60/60
f 44/44/44 45/45/45 62/62/62
f 44/44/44 62/62/62 61/61/61
f 45/45/45 46/46/46 63/63/63
f 45/45/45 63/63/63 62/62/62
f 46/46/46 47/47/47 64/64/64
f 46/46/46 64/64/64 63/63/63
f 47/47/47 48/48/48 65/65/65
f 47/47/47 65/65/65 64/64/64
f 48/48/48 49/49/49 66/66/66
f 48/48/48 66/66/66 65/65/65
f 49/49/49 50/50/50 67/67/67
f 49/49/49 67/67/67 66/66/66
f 50/50/50 51/51/51 68/68/68
f 50/50/50 68/68/68 67/67/67
f 52/53/53 53/52/52 70/69/69
f 52/53/53 70/69/69 69/70/70
f 53/52/52 54/54/54 71/71/71
f 53/52/52 71/71/71 70/69/69
f 54/54/54 55/55/55 72/72/72
f 54/54/54 72/72/72 71/71/71
f 55/55/55 56/56/56 73/73/73
f 55/55/55 73/73/73 72/72/72
f 56/56/56 57/57/57 74/74/74
f 56/56/56 74/74/74 73/73/73
f 57/57/57 58/58/58 75/75/75
f 57/57/57 75/75/75 74/74/74
f 58/58/58 59/59/59 76/76/76
f 58/58/58 76/76/76 75/75/75
f 59/59/59 60/60/60 77/77/77
f 59/59/59 77/77/77 76/76/76
f 60/60/60 61/61/61 78/78/78
f 60/60/60 78/78/78 77/77/77
f 61/61/61 62/62/62 79/79/79
f 61/61/61 79/79/79 78/78/78
f 62/62/62 63/63/63 80/80/80
f 62/62/62 80/80/80 79/79/79
f 63/63/63 64/64/64 81/81/81
f 63/63/63 81/81/81 80/80/80
f 64/64/64 65/65/65 82/82/82
f 64/64/64 82/82/82 81/81/81
f 65/65/65 66/66/66 83/83/83
f 65/65/65 83/83/83 82/82/82
f 66/66/66 67/67/67 84/84/84
f 66/66/66 84/84/84 83/83/83
f 67/67/67 68/68/68 85/85/85
f 67/67/67 85/85/85 84/84/84
f 69/70/70 70/69/69 87/86/86
f 69/70/70 87/86/86 86/87/87
f 70/69/69 71/71/71 88/88/88
f 70/69/69 88/88/88 87/86/86
f 71/71/71 72/72/72 89/89/89
f 71/71/71 89/89/89 88/88/88
f 72/72/72 73/73/73 90/90/90
f 72/72/72 90/90/90 89/89/89
f 73/73/73 74/74/74 91/91/91
f 73/73/73 91/91/91 90/90/90
f 74/74/74 75/75/75 92/92/92
f 74/74/74 92/92/92 91/91/91
f 75/75/75 76/76/76 93/93/93
f 75/75/75 93/93/93 92/92/92
f 76/76/76 77/77/77 94/94/94
f 76/76/76 94/94/94 93/93/93
f 77/77/77 78/78/78 95/95/95
f 77/77/77 95/95/95 94/94/94
f 78/78/78 79/79/79 96/96/96
f 78/78/78 96/96/96 95/95/95
f 79/79/79 80/80/80 97/97/97
f 79/79/79 97/97/97 96/96/96
f 80/80/80 81/81/81 98/98/98
f 80/80/80 98/98/98 97/97/97
f 81/81/81 82/82/82 99/99/99
f 81/81/81 99/99/99 98/98/98
f 82/82/82 83/83/83 100/100/100
f 82/82/82 100/100/100 99/99/99
f 83/83/83 84/84/84 101/101/101
f 83/83/83 101/101/101 100/100/100
f 84/84/84 85/85/85 102/102/102
f 84/84/84 102/102/102 101/101/101
f 86/87/87 87/86/86 104/103/103
f 86/87/87 104/103/103 103/104/104
f 87/86/86 88/88/88 105/105/105
f 87/86/86 105/105/105 104/103/103
f 88/88/88 89/89/89 106/106/106
f 88/88/88 106/106/106 105/105/105
f 89/89/89 90/90/90 107/107/107
f 89/89/89 107/107/107 106/106/106
f 90/90/90 91/91/91 108/108/108
f 90/90/90 108/108/108 107/107/107
f 91/91/91 92/92/92 109/109/109
f 91/91/91 109/109/109 108/108/108
f 92/92/92 93/93/93 110/110/110
f 92/92/92 110/110/110 109/109/109
f 93/93/93 94/94/94 111/111/111
f 93/93/93 111/111/111 110/110/110
f 94/94/94 95/95/95 112/112/112
f 94/94/94 112/112/112 111/111/111
f 95/95/95 96/96/96 113/113/113
f 95/95/95 113/113/113 112/112/112
f 96/96/96 97/97/97 114/114/114
f 96/96/96 114/114/114 113/113/113
f 97/97/97 98/98/98 115/115/115
f 97/97/97 115/115/115 114/114/114
f 98/98/98 99/99/99 116/116/116
f 98/98/98 116/116/116 115/115/115
f 99/99/99 100/100/100 117/117/117
f 99/99/99 117/117/117 116/116/116
f 100/100/100 101/101/101 118/118/118
f 100/100/100 118/118/118 117/117/117
f 101/101/101 102/102/102 119/119/119
f 101/101/101 119/119/119 118/118/118
f 103/104/104 104/103/103 121/120/120
f 103/104/104 121/120/120 120/121/121
f 104/103/103 105/105/105 122/122/122
f 104/103/103 122/122/122 121/120/120
f 105/105/105 106/106/106 123/123/123
f 105/105/105 123/123/123 122/122/122
f 106/106/106 107/107/107 124/124/124
f 106/106/106 124/124/124 123/123/123
f 107/107/107 108/108/108 125/125/125
f 107/107/107 125/125/125 124/124/124
f 108/108/108 109/109/109 126/126/126
f 108/108/108 126/126/126 125/125/125
f 109/109/109 110/110/110 127/127/127
f 109/109/109 127/127/127 126/126/126
f 110/110/110 111/111/111 128/128/128
f 110/110/110 128/128/128 127/127/127
f 111/111/111 112/112/112 129/129/129
f 111/111/111 129/129/129 128/128/128
f 112/112/112 113/113/113 130/130/130
f 112/112/112 130/130/130 129/129/129
f 113/113/113 114/114/114 131/131/131
f 113/113/113 131/131/131 130/130/130
f 114/114/114 115/115/115 132/132/132
f 114/114/114 132/132/132 131/131/131
f 115/115/115 116/116/116 133/133/133
f 115/115/115 133/133/133 132/132/132
f 116/116/116 117/117/117 134/134/134
f 116/116/116 134/134/134 133/133/133
f 117/117/117 118/118/118 135/135/135
f 117/117/117 135/135/135 134/134/134
f 118/118/118 119/119/119 136/136/136
f 118/118/118 136/136/136 135/135/135
f 120/121/121 121/120/120 138/137/137
f 120/121/121 138/137/137 137/138/138
f 121/120/120 122/122/122 139/139/139
f 121/120/120 139/139/139 138/137/137
f 122/122/122 123/123/123 140/140/140
f 122/122/122 140/140/140 139/139/139
f 123/123/123 124/124/124 141/141/141
f 123/123/123 141/141/141 140/140/140
f 124/124/124 125/125/125 142/142/142
f 124/124/124 142/142/142 141/141/141
f 125/125/125 126/126/126 143/143/143
f 125/125/125 143/143/143 142/142/142
f 126/126/126 127/127/127 144/144/144
f 126/126/126 144/144/144 143/143/143
f 127/127/127 128/128/128 145/145/145
f 127/127/127 145/145/145 144/144/144
f 128/128/128 129/129/129 146/146/146
f 128/128/128 146/146/146 145/145/145
f 129/129/129 130/130/130 147/147/147
f 129/129/129 147/147/147 146/146/146
f 130/130/130 131/131/131 148/148/148
f 130/130/130 148/148/148 147/147/147
f 131/131/131 132/132/132 149/149/149
f 131/131/131 149/149/149 148/148/148
f 132/132/132 133/133/133 150/150/150
f 132/132/132 150/150/150 149/149/149
f 133/133/133 134/134/134 151/151/151
f 133/133/133 151/151/151 150/150/150
f 134/134/134 135/135/135 152/152/152
f 134/134/134 152/152/152 151/151/151
f 135/135/135 136/136/136 153/153/153
f 135/135/135 153/153/153 152/152/152
f 137/138/138 138/137/137 155/154/154
f 137/138/138 155/154/154 154/155/155
f 138/137/137 139/139/139 156/156/156
f 138/137/137 156/156/156 155/154/154
f 139/139/139 140/140/140 157/157/157
f 139/139/139 157/157/157 156/156/156
f 140/140/140 141/141/141 158/158/158
f 140/140/140 158/158/158 157/157/157
f 141/141/141 142/142/142 159/159/159
f 141/141/141 159/159/159 158/158/158
f 142/142/142 143/143/143 160/160/160
f 142/142/142 160/160/160 159/159/159
f 143/143/143 144/144/144 161/161/161
f 143/143/143 161/161/161 160/160/160
f 144/144/144 145/145/145 162/162/162
f 144/144/144 162/162/162 161/161/161
f 145/145/145 146/146/146 163/163/163
f 145/145/145 163/163/163 162/162/162
f 146/146/146 147/147/147 164/164/164
f 146/146/146 164/164/164 163/163/163
f 147/147/147 148/148/148 165/165/165
f 147/147/147 165/165/165 164/164/164
f 148/148/148 149/149/149 166/166/166
f 148/148/148 166/166/166 165/165/165
f 149/149/149 150/150/150 167/167/167
f 149/149/149 167/167/167 166/166/166
f 150/150/150 151/151/151 168/168/168
f 150/150/150 168/168/168 167/167/167
f 151/151/151 152/152/152 169/169/169
f 151/151/151 169/169/169 168/168/168
f 152/152/152 153/153/153 170/170/170
f 152/152/152 170/170/170 169/169/169
f 154/155/155 155/154/154 172/171/171
f 154/155/155 172/171/171 171/172/172
f 155/154/154 156/156/156 173/173/173
f 155/154/154 173/173/173 172/171/171
f 156/156/156 157/157/157 174/174/174
f 156/156/156 174/174/174 173/173/173
f 157/157/157 158/158/158 175/175/175
f 157/157/157 175/175/175 174/174/174
f 158/158/158 159/159/159 176/176/176
f 158/158/158 176/176/176 175/175/175
f 159/159/159 160/160/160 177/177/177
f 159/159/159 177/177/177 176/176/176
f 160/160/160 161/161/161 178/178/178
f 160/160/160 178/178/178 177/177/177
f 161/161/161 162/162/162 179/179/179
f 161/161/161 179/179/179 178/178/178
f 162/162/162 163/163/163 180/180/180
f 162/162/162 180/180/180 179/179/179
f 163/163/163 164/164/164 181/181/181
f 163/163/163 181/181/181 180/180/180
f 164/164/164 165/165/165 182/182/182
f 164/164/164 182/182/182 181/181/181
f 165/165/165 166/166/166 183/183/183
f 165/165/165 183/183/183 182/182/182
f 166/166/166 167/167/167 184/184/184
f 166/166/166 184/184/184 183/183/183
f 167/167/167 168/168/168 185/185/185
f 167/167/167 185/185/185 184/184/184
f 168/168/168 169/169/169 186/186/186
f 168/168/168 186/186/186 185/185/185
f 169/169/169 170/170/170 187/187/187
f 169/169/169 187/187/187 186/186/186
f 171/172/172 172/171/171 189/188/188
f 171/172/172 189/188/188 188/189/189
f 172/171/171 173/173/173 190/190/190
f 172/171/171 190/190/190 189/188/188
f 173/173/173 174/174/174 191/191/191
f 173/173/173 191/191/191 190/190/190
f 174/174/174 175/175/175 192/192/192
f 174/174/174 192/192/192 191/191/191
f 175/175/175 176/176/176 193/193/193
f 175/175/175 193/193/193 192/192/192
f 176/176/176 177/177/177 194/194/194
f 176/176/176 194/194/194 193/193/193
f 177/177/177 178/178/178 195/195/195
f 177/177/177 195/195/195 194/194/194
f 178/178/178 179/179/179 196/196/196
f 178/178/178 196/196/196 195/195/195
f 179/179/179 180/180/180 197/197/197
f 179/179/179 197/197/197 196/196/196
f 180/180/180 181/181/181 198/198/198
f 180/180/180 198/198/198 197/197/197
f 181/181/181 182/182/182 199/199/199
f 181/181/181 199/199/199 198/198/198
f 182/182/182 183/183/183 200/200/200
f 182/182/182 200/200/200 199/199/199
f 183/183/183 184/184/184 201/201/201
f 183/183/183 201/201/201 200/200/200
f 184/184/184 185/185/185 202/202/202
f 184/184/184 202/202/202 201/201/201
f 185/185/185 186/186/186 203/203/203
f 185/185/185 203/203/203 202/202/202
f 186/186/186 187/187/187 204/204/204
f 186/186/186 204/204/204 203/203/203
f 188/189/189 189/188/188 206/205/205
f 188/189/189 206/205/205 205/206/206
f 189/188/188 190/190/190 207/207/207
f 189/188/188 207/207/207 206/205/205
f 190/190/190 191/191/191 208/208/208
f 190/190/190 208/208/208 207/207/207
f 191/191/191 192/192/192 209/209/209
f 191/191/191 209/209/209 208/208/208
f 192/192/192 193/193/193 210/210/210
f 192/192/192 210/210/210 209/209/209
f 193/193/193 194/194/194 211/211/211
f 193/193/193 211/211/211 210/210/210
f 194/194/194 195/195/195 212/212/212
f 194/194/194 212/212/212 211/211/211
f 195/195/195 196/196/196 213/213/213
f 195/195/195 213/213/213 212/212/212
f 196/196/196 197/197/197 214/214/214
f 196/196/196 214/214/214 213/213/213
f 197/197/197 198/198/198 215/215/215
f 197/197/197 215/215/215 214/214/214
f 198/198/198 199/199/199 216/216/216
f 198/198/198 216/216/216 215/215/215
f 199/199/199 200/200/200 217/217/217
f 199/199/199 217/217/217 216/216/216
f 200/200/200 201/201/201 218/218/218
f 200/200/200 218/218/218 217/217/217
f 201/201/201 202/202/202 219/219/219
f 201/201/201 219/219/219 218/218/218
f 202/202/202 203/203/203 220/220/220
f 202/202/202 220/220/220 219/219/219
f 203/203/203 204/204/204 221/221/221
f 203/203/203 221/221/221 220/220/220
f 205/206/206 206/205/205 223/222/222
f 205/206/206 223/222/222 222/223/223
f 206/205/205 207/207/207 224/224/224
f 206/205/205 224/224/224 223/222/222
f 207/207/207 208/208/208 225/225/225
f 207/207/207 225/225/225 224/224/224
f 208/208/208 209/209/209 226/226/226
f 208/208/208 226/226/226 225/225/225
f 209/209/209 210/210/210 227/227/227
f 209/209/209 227/227/227 226/226/226
f 210/210/210 211/211/211 228/228/228
f 210/210/210 228/228/228 227/227/227
f 211/211/211 212/212/212 229/229/229
f 211/211/211 229/229/229 228/228/228
f 212/212/212 213/213/213 230/230/230
f 212/212/212 230/230/230 229/229/229
f 213/213/213 214/214/214 231/231/231
f 213/213/213 231/231/231 230/230/230
f 214/214/214 215/215/215 232/232/232
f 214/214/214 232/232/232 231/231/231
f 215/215/215 216/216/216 233/233/233
f 215/215/215 233/233/233 232/232/232
f 216/216/216 217/217/217 234/234/234
f 216/216/216 234/234/234 233/233/233
f 217/217/217 218/218/218 235/235/235
f 217/217/217 235/235/235 234/234/234
f 218/218/218 219/219/219 236/236/236
f 218/218/218 236/236/236 235/235/235
f 219/219/219 220/220/220 237/237/237
f 219/219/219 237/237/237 236/236/236
f 220/220/220 221/221/221 238/238/238
f 220/220/220 238/238/238 237/237/237
f 222/223/223 223/222/222 240/239/239
f 222/223/223 240/239/239 239/240/240
f 223/222/222 224/224/224 241/241/241
f 223/222/222 241/241/241 240/239/239
f 224/224/224 225/225/225 242/242/242
f 224/224/224 242/242/242 241/241/241
f 225/225/225 226/226/226 243/243/243
f 225/225/225 243/243/243 242/242/242
f 226/226/226 227/227/227 244/244/244
f 226/226/226 244/244/244 243/243/243
f 227/227/227 228/228/228 245/245/245
f 227/227/227 245/245/245 244/244/244
f 228/228/228 229/229/229 246/246/246
f 228/228/228 246/246/246 245/245/245
f 229/229/229 230/230/230 247/247/247
f 229/229/229 247/247/247 246/246/246
f 230/230/230 231/231/231 248/248/248
f 230/230/230 248/248/248 247/247/247
f 231/231/231 232/232/232 249/249/249
f 231/231/231 249/249/249 248/248/248
f 232/232/232 233/233/233 250/250/250
f 232/232/232 250/250/250 249/249/249
f 233/233/233 234/234/234 251/251/251
f 233/233/233 251/251/251 250/250/250
f 234/234/234 235/235/235 252/252/252
f 234/234/234 252/252/252 251/251/251
f 235/235/235 236/236/236 253/253/253
f 235/235/235 253/253/253 252/252/252
f 236/236/236 237/237/237 254/254/254
f 236/236/236 254/254/254 253/253/253
f 237/237/237 238/238/238 255/255/255
f 237/237/237 255/255/255 254/254/254
f 239/240/240 240/239/239 257/256/256
f 239/240/240 257/256/256 256/257/257
f 240/239/239 241/241/241 258/258/258
f 240/239/239 258/258/258 257/256/256
f 241/241/241 242/242/242 259/259/259
f 241/241/241 259/259/259 258/258/258
f 242/242/242 243/243/243 260/260/260
f 242/242/242 260/260/260 259/259/259
f 243/243/243 244/244/244 261/261/261
f 243/243/243 261/261/261 260/260/260
f 244/244/244 245/245/245 262/262/262
f 244/244/244 262/262/262 261/261/261
f 245/245/245 246/246/246 263/263/263
f 245/245/245 263/263/263 262/262/262
f 246/246/246 247/247/247 264/264/264
f 246/246/246 264/264/264 263/263/263
f 247/247/247 248/248/248 265/265/265
f 247/247/247 265/265/265 264/264/264
f 248/248/248 249/249/249 266/266/266
f 248/248/248 266/266/266 265/265/265
f 249/249/249 250/250/250 267/267/267
f 249/249/249 267/267/267 266/266/266
f 250/250/250 251/251/251 268/268/268
f 250/250/250 268/268/268 267/267/267
f 251/251/251 252/252/252 269/269/269
f 251/251/251 269/269/269 268/268/268
f 252/252/252 253/253/253 270/270/270
f 252/252/252 270/270/270 269/269/269
f 253/253/253 254/254/254 271/271/271
f 253/253/253 271/271/271 270/270/270
f 254/254/254 255/255/255 272/272/272
f 254/254/254 272/272/272 271/271/271
f 256/257/257 257/256/256 274/273/273
f 256/257/257 274/273/273 273/274/274
f 257/256/256 258/258/258 275/275/275
f 257/256/256 275/275/275 274/273/273
f 258/258/258 259/259/259 276/276/276
f 258/258/258 276/276/276 275/275/275
f 259/259/259 260/260/260 277/277/277
f 259/259/259 277/277/277 276/276/276
f 260/260/260 261/261/261 278/278/278
f 260/260/260 278/278/278 277/277/277
f 261/261/261 262/262/262 279/279/279
f 261/261/261 279/279/279 278/278/278
f 262/262/262 263/263/263 280/280/280
f 262/262/262 280/280/280 279/279/279
f 263/263/263 264/264/264 281/281/281
f 263/263/263 281/281/281 280/280/280
f 264/264/264 265/265/265 282/282/282
f 264/264/264 282/282/282 281/281/281
f 265/265/265 266/266/266 283/283/283
f 265/265/265 283/283/283 282/282/282
f 266/266/266 267/267/267 284/284/284
f 266/266/266 284/284/284 283/283/283
f 267/267/267 268/268/268 285/285/285
f 267/267/267 285/285/285 284/284/284
f 268/268/268 269/269/269 286/286/286
f 268/268/268 286/286/286 285/285/285
f 269/269/269 270/270/270 287/287/287
f 269/269/269 287/287/287 286/286/286
f 270/270/270 271/271/271 288/288/288
f 270/270/270 288/288/288 287/287/287
f 271/271/271 272/272/272 289/289/289
f 271/271/271 289/289/289 288/288/288
