# Blender 5.1.1
# www.blender.org
mtllib tello_body_red.mtl
o TT_canopy
v -0.035500 -0.011500 0.017000
v -0.035500 -0.018000 0.023500
v -0.042000 -0.011500 0.023500
v -0.035500 -0.013509 0.017318
v -0.035500 -0.015320 0.018241
v -0.037509 -0.011500 0.017318
v -0.037562 -0.013574 0.017695
v -0.037495 -0.015232 0.018566
v -0.039320 -0.011500 0.018241
v -0.039235 -0.013500 0.018571
v -0.038939 -0.014939 0.019188
v -0.037509 -0.017682 0.023500
v -0.039320 -0.016759 0.023500
v -0.035500 -0.017682 0.021491
v -0.037574 -0.017305 0.021438
v -0.039232 -0.016434 0.021505
v -0.035500 -0.016759 0.019680
v -0.037500 -0.016429 0.019765
v -0.038939 -0.015812 0.020061
v -0.041682 -0.011500 0.021491
v -0.040759 -0.011500 0.019680
v -0.041682 -0.013509 0.023500
v -0.041305 -0.013562 0.021426
v -0.040434 -0.013495 0.019768
v -0.040759 -0.015320 0.023500
v -0.040429 -0.015235 0.021500
v -0.039812 -0.014939 0.020061
v -0.035500 -0.018000 0.026500
v -0.035500 -0.011500 0.033000
v -0.042000 -0.011500 0.026500
v -0.035500 -0.017682 0.028509
v -0.035500 -0.016759 0.030320
v -0.037509 -0.017682 0.026500
v -0.037562 -0.017305 0.028574
v -0.037495 -0.016434 0.030232
v -0.039320 -0.016759 0.026500
v -0.039235 -0.016429 0.028500
v -0.038939 -0.015812 0.029939
v -0.037509 -0.011500 0.032682
v -0.039320 -0.011500 0.031759
v -0.035500 -0.013509 0.032682
v -0.037574 -0.013562 0.032305
v -0.039232 -0.013495 0.031434
v -0.035500 -0.015320 0.031759
v -0.037500 -0.015235 0.031429
v -0.038939 -0.014939 0.030812
v -0.041682 -0.013509 0.026500
v -0.040759 -0.015320 0.026500
v -0.041682 -0.011500 0.028509
v -0.041305 -0.013574 0.028562
v -0.040434 -0.015232 0.028495
v -0.040759 -0.011500 0.030320
v -0.040429 -0.013500 0.030235
v -0.039812 -0.014939 0.029939
v -0.035500 0.011500 0.017000
v -0.042000 0.011500 0.023500
v -0.035500 0.018000 0.023500
v -0.037509 0.011500 0.017318
v -0.039320 0.011500 0.018241
v -0.035500 0.013509 0.017318
v -0.037574 0.013562 0.017695
v -0.039232 0.013495 0.018566
v -0.035500 0.015320 0.018241
v -0.037500 0.015235 0.018571
v -0.038939 0.014939 0.019188
v -0.041682 0.013509 0.023500
v -0.040759 0.015320 0.023500
v -0.041682 0.011500 0.021491
v -0.041305 0.013574 0.021438
v -0.040434 0.015232 0.021505
v -0.040759 0.011500 0.019680
v -0.040429 0.013500 0.019765
v -0.039812 0.014939 0.020061
v -0.035500 0.017682 0.021491
v -0.035500 0.016759 0.019680
v -0.037509 0.017682 0.023500
v -0.037562 0.017305 0.021426
v -0.037495 0.016434 0.019768
v -0.039320 0.016759 0.023500
v -0.039235 0.016429 0.021500
v -0.038939 0.015812 0.020061
v -0.035500 0.011500 0.033000
v -0.035500 0.018000 0.026500
v -0.042000 0.011500 0.026500
v -0.035500 0.013509 0.032682
v -0.035500 0.015320 0.031759
v -0.037509 0.011500 0.032682
v -0.037562 0.013574 0.032305
v -0.037495 0.015232 0.031434
v -0.039320 0.011500 0.031759
v -0.039235 0.013500 0.031429
v -0.038939 0.014939 0.030812
v -0.037509 0.017682 0.026500
v -0.039320 0.016759 0.026500
v -0.035500 0.017682 0.028509
v -0.037574 0.017305 0.028562
v -0.039232 0.016434 0.028495
v -0.035500 0.016759 0.030320
v -0.037500 0.016429 0.030235
v -0.038939 0.015812 0.029939
v -0.041682 0.011500 0.028509
v -0.040759 0.011500 0.030320
v -0.041682 0.013509 0.026500
v -0.041305 0.013562 0.028574
v -0.040434 0.013495 0.030232
v -0.040759 0.015320 0.026500
v -0.040429 0.015235 0.028500
v -0.039812 0.014939 0.029939
v 0.037500 -0.011500 0.017000
v 0.044000 -0.011500 0.023500
v 0.037500 -0.018000 0.023500
v 0.039509 -0.011500 0.017318
v 0.041320 -0.011500 0.018241
v 0.037500 -0.013509 0.017318
v 0.039574 -0.013562 0.017695
v 0.041232 -0.013495 0.018566
v 0.037500 -0.015320 0.018241
v 0.039500 -0.015235 0.018571
v 0.040939 -0.014939 0.019188
v 0.043682 -0.013509 0.023500
v 0.042759 -0.015320 0.023500
v 0.043682 -0.011500 0.021491
v 0.043305 -0.013574 0.021438
v 0.042434 -0.015232 0.021505
v 0.042759 -0.011500 0.019680
v 0.042429 -0.013500 0.019765
v 0.041812 -0.014939 0.020061
v 0.037500 -0.017682 0.021491
v 0.037500 -0.016759 0.019680
v 0.039509 -0.017682 0.023500
v 0.039562 -0.017305 0.021426
v 0.039495 -0.016434 0.019768
v 0.041320 -0.016759 0.023500
v 0.041235 -0.016429 0.021500
v 0.040939 -0.015812 0.020061
v 0.037500 -0.011500 0.033000
v 0.037500 -0.018000 0.026500
v 0.044000 -0.011500 0.026500
v 0.037500 -0.013509 0.032682
v 0.037500 -0.015320 0.031759
v 0.039509 -0.011500 0.032682
v 0.039562 -0.013574 0.032305
v 0.039495 -0.015232 0.031434
v 0.041320 -0.011500 0.031759
v 0.041235 -0.013500 0.031429
v 0.040939 -0.014939 0.030812
v 0.039509 -0.017682 0.026500
v 0.041320 -0.016759 0.026500
v 0.037500 -0.017682 0.028509
v 0.039574 -0.017305 0.028562
v 0.041232 -0.016434 0.028495
v 0.037500 -0.016759 0.030320
v 0.039500 -0.016429 0.030235
v 0.040939 -0.015812 0.029939
v 0.043682 -0.011500 0.028509
v 0.042759 -0.011500 0.030320
v 0.043682 -0.013509 0.026500
v 0.043305 -0.013562 0.028574
v 0.042434 -0.013495 0.030232
v 0.042759 -0.015320 0.026500
v 0.042429 -0.015235 0.028500
v 0.041812 -0.014939 0.029939
v 0.037500 0.011500 0.017000
v 0.037500 0.018000 0.023500
v 0.044000 0.011500 0.023500
v 0.037500 0.013509 0.017318
v 0.037500 0.015320 0.018241
v 0.039509 0.011500 0.017318
v 0.039562 0.013574 0.017695
v 0.039495 0.015232 0.018566
v 0.041320 0.011500 0.018241
v 0.041235 0.013500 0.018571
v 0.040939 0.014939 0.019188
v 0.039509 0.017682 0.023500
v 0.041320 0.016759 0.023500
v 0.037500 0.017682 0.021491
v 0.039574 0.017305 0.021438
v 0.041232 0.016434 0.021505
v 0.037500 0.016759 0.019680
v 0.039500 0.016429 0.019765
v 0.040939 0.015812 0.020061
v 0.043682 0.011500 0.021491
v 0.042759 0.011500 0.019680
v 0.043682 0.013509 0.023500
v 0.043305 0.013562 0.021426
v 0.042434 0.013495 0.019768
v 0.042759 0.015320 0.023500
v 0.042429 0.015235 0.021500
v 0.041812 0.014939 0.020061
v 0.037500 0.011500 0.033000
v 0.044000 0.011500 0.026500
v 0.037500 0.018000 0.026500
v 0.039509 0.011500 0.032682
v 0.041320 0.011500 0.031759
v 0.037500 0.013509 0.032682
v 0.039574 0.013562 0.032305
v 0.041232 0.013495 0.031434
v 0.037500 0.015320 0.031759
v 0.039500 0.015235 0.031429
v 0.040939 0.014939 0.030812
v 0.043682 0.013509 0.026500
v 0.042759 0.015320 0.026500
v 0.043682 0.011500 0.028509
v 0.043305 0.013574 0.028562
v 0.042434 0.015232 0.028495
v 0.042759 0.011500 0.030320
v 0.042429 0.013500 0.030235
v 0.041812 0.014939 0.029939
v 0.037500 0.017682 0.028509
v 0.037500 0.016759 0.030320
v 0.039509 0.017682 0.026500
v 0.039562 0.017305 0.028574
v 0.039495 0.016434 0.030232
v 0.041320 0.016759 0.026500
v 0.041235 0.016429 0.028500
v 0.040939 0.015812 0.029939
vn -0.0802 -0.0802 -0.9935
vn -0.0802 -0.9935 -0.0802
vn -0.9935 -0.0802 -0.0802
vn -0.0802 -0.3083 -0.9479
vn -0.0754 -0.5856 -0.8071
vn -0.3084 -0.0805 -0.9478
vn -0.3068 -0.3077 -0.9006
vn -0.2854 -0.5696 -0.7707
vn -0.5853 -0.0758 -0.8072
vn -0.5698 -0.2858 -0.7705
vn -0.5156 -0.5155 -0.6844
vn -0.3083 -0.9479 -0.0802
vn -0.5856 -0.8071 -0.0754
vn -0.0805 -0.9478 -0.3084
vn -0.3077 -0.9006 -0.3068
vn -0.5697 -0.7707 -0.2854
vn -0.0758 -0.8072 -0.5853
vn -0.2858 -0.7705 -0.5698
vn -0.5155 -0.6844 -0.5156
vn -0.9479 -0.0802 -0.3083
vn -0.8071 -0.0754 -0.5856
vn -0.9478 -0.3084 -0.0805
vn -0.9006 -0.3068 -0.3077
vn -0.7707 -0.2854 -0.5697
vn -0.8072 -0.5853 -0.0758
vn -0.7705 -0.5698 -0.2858
vn -0.6844 -0.5156 -0.5155
vn -0.0802 -0.9935 0.0802
vn -0.0802 -0.0802 0.9935
vn -0.9935 -0.0802 0.0802
vn -0.0802 -0.9479 0.3083
vn -0.0754 -0.8071 0.5856
vn -0.3084 -0.9478 0.0805
vn -0.3068 -0.9006 0.3077
vn -0.2854 -0.7707 0.5696
vn -0.5853 -0.8072 0.0758
vn -0.5698 -0.7705 0.2858
vn -0.5156 -0.6844 0.5155
vn -0.3083 -0.0802 0.9479
vn -0.5856 -0.0754 0.8071
vn -0.0805 -0.3084 0.9478
vn -0.3077 -0.3068 0.9006
vn -0.5697 -0.2854 0.7707
vn -0.0758 -0.5853 0.8072
vn -0.2858 -0.5698 0.7705
vn -0.5155 -0.5156 0.6844
vn -0.9479 -0.3083 0.0802
vn -0.8071 -0.5856 0.0754
vn -0.9478 -0.0805 0.3084
vn -0.9006 -0.3077 0.3068
vn -0.7707 -0.5697 0.2854
vn -0.8072 -0.0758 0.5853
vn -0.7705 -0.2858 0.5698
vn -0.6844 -0.5155 0.5156
vn -0.0802 0.0802 -0.9935
vn -0.9935 0.0802 -0.0802
vn -0.0802 0.9935 -0.0802
vn -0.3083 0.0802 -0.9479
vn -0.5856 0.0754 -0.8071
vn -0.0805 0.3084 -0.9478
vn -0.3077 0.3068 -0.9006
vn -0.5697 0.2854 -0.7707
vn -0.0758 0.5853 -0.8072
vn -0.2858 0.5698 -0.7705
vn -0.5155 0.5156 -0.6844
vn -0.9479 0.3083 -0.0802
vn -0.8071 0.5856 -0.0754
vn -0.9478 0.0805 -0.3084
vn -0.9006 0.3077 -0.3068
vn -0.7707 0.5697 -0.2854
vn -0.8072 0.0758 -0.5853
vn -0.7705 0.2858 -0.5698
vn -0.6844 0.5155 -0.5156
vn -0.0802 0.9479 -0.3083
vn -0.0754 0.8071 -0.5856
vn -0.3084 0.9478 -0.0805
vn -0.3068 0.9006 -0.3077
vn -0.2854 0.7707 -0.5696
vn -0.5853 0.8072 -0.0758
vn -0.5698 0.7705 -0.2858
vn -0.5156 0.6844 -0.5155
vn -0.0802 0.0802 0.9935
vn -0.0802 0.9935 0.0802
vn -0.9935 0.0802 0.0802
vn -0.0802 0.3083 0.9479
vn -0.0754 0.5856 0.8071
vn -0.3084 0.0805 0.9478
vn -0.3068 0.3077 0.9006
vn -0.2854 0.5696 0.7707
vn -0.5853 0.0758 0.8072
vn -0.5698 0.2858 0.7705
vn -0.5156 0.5155 0.6844
vn -0.3083 0.9479 0.0802
vn -0.5856 0.8071 0.0754
vn -0.0805 0.9478 0.3084
vn -0.3077 0.9006 0.3068
vn -0.5697 0.7707 0.2854
vn -0.0758 0.8072 0.5853
vn -0.2858 0.7705 0.5698
vn -0.5155 0.6844 0.5156
vn -0.9479 0.0802 0.3083
vn -0.8071 0.0754 0.5856
vn -0.9478 0.3084 0.0805
vn -0.9006 0.3068 0.3077
vn -0.7707 0.2854 0.5696
vn -0.8072 0.5853 0.0758
vn -0.7705 0.5698 0.2858
vn -0.6844 0.5156 0.5155
vn 0.0802 -0.0802 -0.9935
vn 0.9935 -0.0802 -0.0802
vn 0.0802 -0.9935 -0.0802
vn 0.3083 -0.0802 -0.9479
vn 0.5856 -0.0754 -0.8071
vn 0.0805 -0.3084 -0.9478
vn 0.3077 -0.3068 -0.9006
vn 0.5697 -0.2854 -0.7707
vn 0.0758 -0.5853 -0.8072
vn 0.2858 -0.5698 -0.7705
vn 0.5155 -0.5156 -0.6844
vn 0.9479 -0.3083 -0.0802
vn 0.8071 -0.5856 -0.0754
vn 0.9478 -0.0805 -0.3084
vn 0.9006 -0.3077 -0.3068
vn 0.7707 -0.5697 -0.2854
vn 0.8072 -0.0758 -0.5853
vn 0.7705 -0.2858 -0.5698
vn 0.6844 -0.5155 -0.5156
vn 0.0802 -0.9479 -0.3083
vn 0.0754 -0.8071 -0.5856
vn 0.3084 -0.9478 -0.0805
vn 0.3068 -0.9006 -0.3077
vn 0.2854 -0.7707 -0.5696
vn 0.5853 -0.8072 -0.0758
vn 0.5698 -0.7705 -0.2858
vn 0.5156 -0.6844 -0.5155
vn 0.0802 -0.0802 0.9935
vn 0.0802 -0.9935 0.0802
vn 0.9935 -0.0802 0.0802
vn 0.0802 -0.3083 0.9479
vn 0.0754 -0.5856 0.8071
vn 0.3084 -0.0805 0.9478
vn 0.3068 -0.3077 0.9006
vn 0.2854 -0.5696 0.7707
vn 0.5853 -0.0758 0.8072
vn 0.5698 -0.2858 0.7705
vn 0.5156 -0.5155 0.6844
vn 0.3083 -0.9479 0.0802
vn 0.5856 -0.8071 0.0754
vn 0.0805 -0.9478 0.3084
vn 0.3077 -0.9006 0.3068
vn 0.5697 -0.7707 0.2854
vn 0.0758 -0.8072 0.5853
vn 0.2858 -0.7705 0.5698
vn 0.5155 -0.6844 0.5156
vn 0.9479 -0.0802 0.3083
vn 0.8071 -0.0754 0.5856
vn 0.9478 -0.3084 0.0805
vn 0.9006 -0.3068 0.3077
vn 0.7707 -0.2854 0.5696
vn 0.8072 -0.5853 0.0758
vn 0.7705 -0.5698 0.2858
vn 0.6844 -0.5156 0.5155
vn 0.0802 0.0802 -0.9935
vn 0.0802 0.9935 -0.0802
vn 0.9935 0.0802 -0.0802
vn 0.0802 0.3083 -0.9479
vn 0.0754 0.5856 -0.8071
vn 0.3084 0.0805 -0.9478
vn 0.3068 0.3077 -0.9006
vn 0.2854 0.5696 -0.7707
vn 0.5853 0.0758 -0.8072
vn 0.5698 0.2858 -0.7705
vn 0.5156 0.5155 -0.6844
vn 0.3083 0.9479 -0.0802
vn 0.5856 0.8071 -0.0754
vn 0.0805 0.9478 -0.3084
vn 0.3077 0.9006 -0.3068
vn 0.5697 0.7707 -0.2854
vn 0.0758 0.8072 -0.5853
vn 0.2858 0.7705 -0.5698
vn 0.5155 0.6844 -0.5156
vn 0.9479 0.0802 -0.3083
vn 0.8071 0.0754 -0.5856
vn 0.9478 0.3084 -0.0805
vn 0.9006 0.3068 -0.3077
vn 0.7707 0.2854 -0.5697
vn 0.8072 0.5853 -0.0758
vn 0.7705 0.5698 -0.2858
vn 0.6844 0.5156 -0.5155
vn 0.0802 0.0802 0.9935
vn 0.9935 0.0802 0.0802
vn 0.0802 0.9935 0.0802
vn 0.3083 0.0802 0.9479
vn 0.5856 0.0754 0.8071
vn 0.0805 0.3084 0.9478
vn 0.3077 0.3068 0.9006
vn 0.5697 0.2854 0.7707
vn 0.0758 0.5853 0.8072
vn 0.2858 0.5698 0.7705
vn 0.5155 0.5156 0.6844
vn 0.9479 0.3083 0.0802
vn 0.8071 0.5856 0.0754
vn 0.9478 0.0805 0.3084
vn 0.9006 0.3077 0.3068
vn 0.7707 0.5697 0.2854
vn 0.8072 0.0758 0.5853
vn 0.7705 0.2858 0.5698
vn 0.6844 0.5155 0.5156
vn 0.0802 0.9479 0.3083
vn 0.0754 0.8071 0.5856
vn 0.3084 0.9478 0.0805
vn 0.3068 0.9006 0.3077
vn 0.2854 0.7707 0.5696
vn 0.5853 0.8072 0.0758
vn 0.5698 0.7705 0.2858
vn 0.5156 0.6844 0.5155
vt 0.143895 0.704861
vt 0.143895 0.718812
vt 0.137900 0.719263
vt 0.138055 0.704861
vt 0.143895 0.731389
vt 0.138096 0.730777
vt 0.143895 0.750000
vt 0.138081 0.750000
vt 0.133037 0.718751
vt 0.132791 0.704861
vt 0.133897 0.728745
vt 0.133897 0.750000
vt 0.476562 0.981105
vt 0.476562 0.986945
vt 0.444340 0.987133
vt 0.445172 0.981105
vt 0.476562 1.000000
vt 0.445390 1.000000
vt 0.476562 0.000000
vt 0.476562 0.018611
vt 0.445310 0.019200
vt 0.445390 0.000000
vt 0.375000 0.986919
vt 0.375000 0.981105
vt 0.375000 0.991103
vt 0.375000 0.021255
vt 0.375000 0.000000
vt 0.476562 0.045139
vt 0.445172 0.045139
vt 0.444158 0.030818
vt 0.476562 0.031188
vt 0.375000 0.045139
vt 0.375000 0.031285
vt 0.125000 0.704861
vt 0.125000 0.718715
vt 0.125000 0.728745
vt 0.523438 0.981105
vt 0.554828 0.981105
vt 0.555842 0.987100
vt 0.523438 0.986945
vt 0.583124 0.981105
vt 0.581749 0.986904
vt 0.625000 0.981105
vt 0.625000 0.986919
vt 0.554690 1.000000
vt 0.523438 1.000000
vt 0.577176 0.991103
vt 0.625000 0.991103
vt 0.856105 0.704861
vt 0.861945 0.704861
vt 0.862133 0.719182
vt 0.856105 0.718812
vt 0.875000 0.704861
vt 0.875000 0.718715
vt 0.625000 0.045139
vt 0.583124 0.045139
vt 0.581801 0.031249
vt 0.625000 0.031285
vt 0.861919 0.750000
vt 0.856105 0.750000
vt 0.866103 0.750000
vt 0.577176 0.021255
vt 0.625000 0.000000
vt 0.523438 0.045139
vt 0.523438 0.031188
vt 0.555660 0.030737
vt 0.554828 0.045139
vt 0.523438 0.018611
vt 0.554610 0.019223
vt 0.523438 0.000000
vt 0.554690 0.000000
vt 0.577176 0.015195
vt 0.577176 0.993639
vt 0.143895 0.545139
vt 0.138055 0.545139
vt 0.137867 0.530818
vt 0.143895 0.531188
vt 0.132791 0.545139
vt 0.133047 0.531285
vt 0.125000 0.545139
vt 0.125000 0.531249
vt 0.138081 0.519200
vt 0.143895 0.518611
vt 0.133897 0.521255
vt 0.125000 0.521255
vt 0.476562 0.204861
vt 0.476562 0.218812
vt 0.444340 0.219263
vt 0.445172 0.204861
vt 0.476562 0.231389
vt 0.445390 0.230777
vt 0.476562 0.257791
vt 0.445310 0.258037
vt 0.375000 0.218751
vt 0.375000 0.204861
vt 0.375000 0.228745
vt 0.375000 0.258898
vt 0.476563 0.268895
vt 0.445172 0.268895
vt 0.444158 0.262900
vt 0.476562 0.263055
vt 0.375000 0.268895
vt 0.375000 0.263096
vt 0.143895 0.500000
vt 0.138096 0.500000
vt 0.133898 0.500000
vt 0.856105 0.545139
vt 0.856104 0.531188
vt 0.862100 0.530737
vt 0.861945 0.545139
vt 0.856105 0.500000
vt 0.861904 0.500000
vt 0.625000 0.268895
vt 0.583125 0.268895
vt 0.581801 0.263081
vt 0.625000 0.263096
vt 0.875000 0.531249
vt 0.875000 0.545139
vt 0.866103 0.500000
vt 0.577176 0.258897
vt 0.625000 0.255932
vt 0.523438 0.268895
vt 0.523438 0.263055
vt 0.555660 0.262867
vt 0.554828 0.268895
vt 0.523438 0.257791
vt 0.554610 0.258047
vt 0.523438 0.231389
vt 0.554690 0.230800
vt 0.577176 0.235649
vt 0.523438 0.204861
vt 0.554828 0.204861
vt 0.555842 0.219182
vt 0.523438 0.218812
vt 0.583125 0.204861
vt 0.581749 0.218715
vt 0.625000 0.204861
vt 0.625000 0.218751
vt 0.356105 0.704861
vt 0.361945 0.704861
vt 0.362133 0.719182
vt 0.356105 0.718812
vt 0.367209 0.704861
vt 0.366953 0.718715
vt 0.416876 0.704861
vt 0.418199 0.718751
vt 0.361919 0.730800
vt 0.356105 0.731389
vt 0.366103 0.728745
vt 0.409278 0.728745
vt 0.476562 0.704861
vt 0.476562 0.718812
vt 0.444340 0.719263
vt 0.445172 0.704861
vt 0.476562 0.731389
vt 0.445390 0.730777
vt 0.476562 0.757791
vt 0.445310 0.758037
vt 0.370551 0.754449
vt 0.476563 0.768895
vt 0.445172 0.768895
vt 0.444158 0.762900
vt 0.476562 0.763055
vt 0.365552 0.759448
vt 0.368452 0.756548
vt 0.643895 0.704861
vt 0.643895 0.718812
vt 0.637900 0.719263
vt 0.638055 0.704861
vt 0.634448 0.759448
vt 0.631548 0.756548
vt 0.583125 0.768895
vt 0.581801 0.763081
vt 0.633037 0.718751
vt 0.632791 0.704861
vt 0.629449 0.754449
vt 0.577176 0.758897
vt 0.523438 0.768895
vt 0.523438 0.763055
vt 0.555660 0.762867
vt 0.554828 0.768895
vt 0.523438 0.757791
vt 0.554610 0.758047
vt 0.523438 0.731389
vt 0.554690 0.730800
vt 0.577176 0.735649
vt 0.523438 0.704861
vt 0.554828 0.704861
vt 0.555842 0.719182
vt 0.523438 0.718812
vt 0.583125 0.704861
vt 0.581749 0.718716
vt 0.356105 0.545139
vt 0.356105 0.531188
vt 0.362100 0.530737
vt 0.361945 0.545139
vt 0.356105 0.518611
vt 0.361904 0.519223
vt 0.365552 0.490552
vt 0.368460 0.493460
vt 0.366963 0.531249
vt 0.367209 0.545139
vt 0.366103 0.521255
vt 0.370551 0.495551
vt 0.476562 0.481105
vt 0.476562 0.486945
vt 0.444340 0.487133
vt 0.445172 0.481105
vt 0.476562 0.492209
vt 0.445390 0.491953
vt 0.476562 0.518611
vt 0.445310 0.519200
vt 0.409278 0.521255
vt 0.476562 0.545139
vt 0.445172 0.545139
vt 0.444158 0.530818
vt 0.476562 0.531188
vt 0.416876 0.545139
vt 0.418251 0.531285
vt 0.643895 0.545139
vt 0.638055 0.545139
vt 0.637867 0.530818
vt 0.643895 0.531188
vt 0.632791 0.545139
vt 0.633047 0.531285
vt 0.583124 0.545139
vt 0.581801 0.531249
vt 0.631540 0.493460
vt 0.634448 0.490552
vt 0.612355 0.513717
vt 0.577176 0.521255
vt 0.523438 0.545139
vt 0.523438 0.531188
vt 0.555660 0.530737
vt 0.554828 0.545139
vt 0.523438 0.518611
vt 0.554610 0.519223
vt 0.523438 0.492209
vt 0.554690 0.491963
vt 0.577176 0.497126
vt 0.523438 0.481105
vt 0.554828 0.481105
vt 0.555842 0.487100
vt 0.523438 0.486945
vt 0.583125 0.481105
vt 0.581749 0.486904
s 1
usemtl tt_red
f 1/1/1 4/2/4 7/3/7 6/4/6
f 4/2/4 5/5/5 8/6/8 7/3/7
f 5/5/5 17/7/17 18/8/18 8/6/8
f 6/4/6 7/3/7 10/9/10 9/10/9
f 7/3/7 8/6/8 11/11/11 10/9/10
f 8/6/8 18/8/18 19/12/19 11/11/11
f 2/13/2 12/14/12 15/15/15 14/16/14
f 12/14/12 13/17/13 16/18/16 15/15/15
f 13/19/13 25/20/25 26/21/26 16/22/16
f 14/16/14 15/15/15 18/23/18 17/24/17
f 15/15/15 16/18/16 19/25/19 18/23/18
f 16/22/16 26/21/26 27/26/27 19/27/19
f 3/28/3 20/29/20 23/30/23 22/31/22
f 20/29/20 21/32/21 24/33/24 23/30/23
f 21/34/21 9/10/9 10/9/10 24/35/24
f 22/31/22 23/30/23 26/21/26 25/20/25
f 23/30/23 24/33/24 27/26/27 26/21/26
f 24/35/24 10/9/10 11/11/11 27/36/27
f 11/11/11 19/12/19 27/36/27
f 28/37/28 31/38/31 34/39/34 33/40/33
f 31/38/31 32/41/32 35/42/35 34/39/34
f 32/41/32 44/43/44 45/44/45 35/42/35
f 33/40/33 34/39/34 37/45/37 36/46/36
f 34/39/34 35/42/35 38/47/38 37/45/37
f 35/42/35 45/44/45 46/48/46 38/47/38
f 29/49/29 39/50/39 42/51/42 41/52/41
f 39/50/39 40/53/40 43/54/43 42/51/42
f 40/55/40 52/56/52 53/57/53 43/58/43
f 41/52/41 42/51/42 45/59/45 44/60/44
f 42/51/42 43/54/43 46/61/46 45/59/45
f 43/58/43 53/57/53 54/62/54 46/63/46
f 30/64/30 47/65/47 50/66/50 49/67/49
f 47/65/47 48/68/48 51/69/51 50/66/50
f 48/68/48 36/70/36 37/71/37 51/69/51
f 49/67/49 50/66/50 53/57/53 52/56/52
f 50/66/50 51/69/51 54/62/54 53/57/53
f 51/69/51 37/71/37 38/72/38 54/62/54
f 38/47/38 46/48/46 54/73/54
f 55/74/55 58/75/58 61/76/61 60/77/60
f 58/75/58 59/78/59 62/79/62 61/76/61
f 59/78/59 71/80/71 72/81/72 62/79/62
f 60/77/60 61/76/61 64/82/64 63/83/63
f 61/76/61 62/79/62 65/84/65 64/82/64
f 62/79/62 72/81/72 73/85/73 65/84/65
f 56/86/56 66/87/66 69/88/69 68/89/68
f 66/87/66 67/90/67 70/91/70 69/88/69
f 67/90/67 79/92/79 80/93/80 70/91/70
f 68/89/68 69/88/69 72/94/72 71/95/71
f 69/88/69 70/91/70 73/96/73 72/94/72
f 70/91/70 80/93/80 81/97/81 73/96/73
f 57/98/57 74/99/74 77/100/77 76/101/76
f 74/99/74 75/102/75 78/103/78 77/100/77
f 75/104/75 63/83/63 64/82/64 78/105/78
f 76/101/76 77/100/77 80/93/80 79/92/79
f 77/100/77 78/103/78 81/97/81 80/93/80
f 78/105/78 64/82/64 65/84/65 81/106/81
f 65/84/65 73/85/73 81/106/81
f 82/107/82 85/108/85 88/109/88 87/110/87
f 85/108/85 86/111/86 89/112/89 88/109/88
f 86/113/86 98/114/98 99/115/99 89/116/89
f 87/110/87 88/109/88 91/117/91 90/118/90
f 88/109/88 89/112/89 92/119/92 91/117/91
f 89/116/89 99/115/99 100/120/100 92/121/92
f 83/122/83 93/123/93 96/124/96 95/125/95
f 93/123/93 94/126/94 97/127/97 96/124/96
f 94/126/94 106/128/106 107/129/107 97/127/97
f 95/125/95 96/124/96 99/115/99 98/114/98
f 96/124/96 97/127/97 100/120/100 99/115/99
f 97/127/97 107/129/107 108/130/108 100/120/100
f 84/131/84 101/132/101 104/133/104 103/134/103
f 101/132/101 102/135/102 105/136/105 104/133/104
f 102/135/102 90/137/90 91/138/91 105/136/105
f 103/134/103 104/133/104 107/129/107 106/128/106
f 104/133/104 105/136/105 108/130/108 107/129/107
f 105/136/105 91/138/91 92/121/92 108/130/108
f 92/121/92 100/120/100 108/130/108
f 109/139/109 112/140/112 115/141/115 114/142/114
f 112/140/112 113/143/113 116/144/116 115/141/115
f 113/143/113 125/145/125 126/146/126 116/144/116
f 114/142/114 115/141/115 118/147/118 117/148/117
f 115/141/115 116/144/116 119/149/119 118/147/118
f 116/144/116 126/146/126 127/150/127 119/149/119
f 110/151/110 120/152/120 123/153/123 122/154/122
f 120/152/120 121/155/121 124/156/124 123/153/123
f 121/155/121 133/157/133 134/158/134 124/156/124
f 122/154/122 123/153/123 126/146/126 125/145/125
f 123/153/123 124/156/124 127/150/127 126/146/126
f 124/156/124 134/158/134 135/159/135 127/150/127
f 111/160/111 128/161/128 131/162/131 130/163/130
f 128/161/128 129/164/129 132/165/132 131/162/131
f 129/164/129 117/148/117 118/147/118 132/165/132
f 130/163/130 131/162/131 134/158/134 133/157/133
f 131/162/131 132/165/132 135/159/135 134/158/134
f 132/165/132 118/147/118 119/149/119 135/159/135
f 119/149/119 127/150/127 135/159/135
f 136/166/136 139/167/139 142/168/142 141/169/141
f 139/167/139 140/170/140 143/171/143 142/168/142
f 140/170/140 152/172/152 153/173/153 143/171/143
f 141/169/141 142/168/142 145/174/145 144/175/144
f 142/168/142 143/171/143 146/176/146 145/174/145
f 143/171/143 153/173/153 154/177/154 146/176/146
f 137/178/137 147/179/147 150/180/150 149/181/149
f 147/179/147 148/182/148 151/183/151 150/180/150
f 148/182/148 160/184/160 161/185/161 151/183/151
f 149/181/149 150/180/150 153/173/153 152/172/152
f 150/180/150 151/183/151 154/177/154 153/173/153
f 151/183/151 161/185/161 162/186/162 154/177/154
f 138/187/138 155/188/155 158/189/158 157/190/157
f 155/188/155 156/191/156 159/192/159 158/189/158
f 156/191/156 144/175/144 145/174/145 159/192/159
f 157/190/157 158/189/158 161/185/161 160/184/160
f 158/189/158 159/192/159 162/186/162 161/185/161
f 159/192/159 145/174/145 146/176/146 162/186/162
f 146/176/146 154/177/154 162/186/162
f 163/193/163 166/194/166 169/195/169 168/196/168
f 166/194/166 167/197/167 170/198/170 169/195/169
f 167/197/167 179/199/179 180/200/180 170/198/170
f 168/196/168 169/195/169 172/201/172 171/202/171
f 169/195/169 170/198/170 173/203/173 172/201/172
f 170/198/170 180/200/180 181/204/181 173/203/173
f 164/205/164 174/206/174 177/207/177 176/208/176
f 174/206/174 175/209/175 178/210/178 177/207/177
f 175/209/175 187/211/187 188/212/188 178/210/178
f 176/208/176 177/207/177 180/200/180 179/199/179
f 177/207/177 178/210/178 181/204/181 180/200/180
f 178/210/178 188/212/188 189/213/189 181/204/181
f 165/214/165 182/215/182 185/216/185 184/217/184
f 182/215/182 183/218/183 186/219/186 185/216/185
f 183/218/183 171/202/171 172/201/172 186/219/186
f 184/217/184 185/216/185 188/212/188 187/211/187
f 185/216/185 186/219/186 189/213/189 188/212/188
f 186/219/186 172/201/172 173/203/173 189/213/189
f 173/203/173 181/204/181 189/213/189
f 190/220/190 193/221/193 196/222/196 195/223/195
f 193/221/193 194/224/194 197/225/197 196/222/196
f 194/224/194 206/226/206 207/227/207 197/225/197
f 195/223/195 196/222/196 199/228/199 198/229/198
f 196/222/196 197/225/197 200/230/200 199/228/199
f 197/225/197 207/227/207 208/231/208 200/230/200
f 191/232/191 201/233/201 204/234/204 203/235/203
f 201/233/201 202/236/202 205/237/205 204/234/204
f 202/236/202 214/238/214 215/239/215 205/237/205
f 203/235/203 204/234/204 207/227/207 206/226/206
f 204/234/204 205/237/205 208/231/208 207/227/207
f 205/237/205 215/239/215 216/240/216 208/231/208
f 192/241/192 209/242/209 212/243/212 211/244/211
f 209/242/209 210/245/210 213/246/213 212/243/212
f 210/245/210 198/229/198 199/228/199 213/246/213
f 211/244/211 212/243/212 215/239/215 214/238/214
f 212/243/212 213/246/213 216/240/216 215/239/215
f 213/246/213 199/228/199 200/230/200 216/240/216
f 200/230/200 208/231/208 216/240/216
f 55/74/55 1/1/1 6/4/6 58/75/58
f 58/75/58 6/4/6 9/10/9 59/78/59
f 59/78/59 9/10/9 21/34/21 71/80/71
f 71/95/71 21/32/21 20/29/20 68/89/68
f 68/89/68 20/29/20 3/28/3 56/86/56
f 2/13/2 28/37/28 33/40/33 12/14/12
f 12/14/12 33/40/33 36/46/36 13/17/13
f 13/19/13 36/70/36 48/68/48 25/20/25
f 25/20/25 48/68/48 47/65/47 22/31/22
f 22/31/22 47/65/47 30/64/30 3/28/3
f 29/49/29 82/107/82 87/110/87 39/50/39
f 39/50/39 87/110/87 90/118/90 40/53/40
f 40/55/40 90/137/90 102/135/102 52/56/52
f 52/56/52 102/135/102 101/132/101 49/67/49
f 49/67/49 101/132/101 84/131/84 30/64/30
f 83/122/83 57/98/57 76/101/76 93/123/93
f 93/123/93 76/101/76 79/92/79 94/126/94
f 94/126/94 79/92/79 67/90/67 106/128/106
f 106/128/106 67/90/67 66/87/66 103/134/103
f 103/134/103 66/87/66 56/86/56 84/131/84
f 163/193/163 55/74/55 60/77/60 166/194/166
f 166/194/166 60/77/60 63/83/63 167/197/167
f 167/197/167 63/83/63 75/104/75 179/199/179
f 179/199/179 75/102/75 74/99/74 176/208/176
f 176/208/176 74/99/74 57/98/57 164/205/164
f 82/107/82 190/220/190 195/223/195 85/108/85
f 85/108/85 195/223/195 198/229/198 86/111/86
f 86/113/86 198/229/198 210/245/210 98/114/98
f 98/114/98 210/245/210 209/242/209 95/125/95
f 95/125/95 209/242/209 192/241/192 83/122/83
f 191/232/191 165/214/165 184/217/184 201/233/201
f 201/233/201 184/217/184 187/211/187 202/236/202
f 202/236/202 187/211/187 175/209/175 214/238/214
f 214/238/214 175/209/175 174/206/174 211/244/211
f 211/244/211 174/206/174 164/205/164 192/241/192
f 109/139/109 163/193/163 168/196/168 112/140/112
f 112/140/112 168/196/168 171/202/171 113/143/113
f 113/143/113 171/202/171 183/218/183 125/145/125
f 125/145/125 183/218/183 182/215/182 122/154/122
f 122/154/122 182/215/182 165/214/165 110/151/110
f 190/220/190 136/166/136 141/169/141 193/221/193
f 193/221/193 141/169/141 144/175/144 194/224/194
f 194/224/194 144/175/144 156/191/156 206/226/206
f 206/226/206 156/191/156 155/188/155 203/235/203
f 203/235/203 155/188/155 138/187/138 191/232/191
f 137/178/137 111/160/111 130/163/130 147/179/147
f 147/179/147 130/163/130 133/157/133 148/182/148
f 148/182/148 133/157/133 121/155/121 160/184/160
f 160/184/160 121/155/121 120/152/120 157/190/157
f 157/190/157 120/152/120 110/151/110 138/187/138
f 1/1/1 109/139/109 114/142/114 4/2/4
f 4/2/4 114/142/114 117/148/117 5/5/5
f 5/5/5 117/148/117 129/164/129 17/7/17
f 17/24/17 129/164/129 128/161/128 14/16/14
f 14/16/14 128/161/128 111/160/111 2/13/2
f 136/166/136 29/49/29 41/52/41 139/167/139
f 139/167/139 41/52/41 44/60/44 140/170/140
f 140/170/140 44/43/44 32/41/32 152/172/152
f 152/172/152 32/41/32 31/38/31 149/181/149
f 149/181/149 31/38/31 28/37/28 137/178/137
f 55/74/55 163/193/163 109/139/109 1/1/1
f 3/28/3 30/64/30 84/131/84 56/86/56
f 111/160/111 137/178/137 28/37/28 2/13/2
f 190/220/190 82/107/82 29/49/29 136/166/136
f 57/98/57 83/122/83 192/241/192 164/205/164
f 165/214/165 191/232/191 138/187/138 110/151/110
