# Blender 5.1.1
# www.blender.org
mtllib tello_body_silver.mtl
o TT_cap_0
v 0.043000 0.042200 0.034950
v 0.043000 0.042200 0.037450
v 0.044225 0.041956 0.034950
v 0.044225 0.041956 0.037450
v 0.045263 0.041263 0.034950
v 0.045263 0.041263 0.037450
v 0.045956 0.040225 0.034950
v 0.045956 0.040225 0.037450
v 0.046200 0.039000 0.034950
v 0.046200 0.039000 0.037450
v 0.045956 0.037775 0.034950
v 0.045956 0.037775 0.037450
v 0.045263 0.036737 0.034950
v 0.045263 0.036737 0.037450
v 0.044225 0.036044 0.034950
v 0.044225 0.036044 0.037450
v 0.043000 0.035800 0.034950
v 0.043000 0.035800 0.037450
v 0.041775 0.036044 0.034950
v 0.041775 0.036044 0.037450
v 0.040737 0.036737 0.034950
v 0.040737 0.036737 0.037450
v 0.040044 0.037775 0.034950
v 0.040044 0.037775 0.037450
v 0.039800 0.039000 0.034950
v 0.039800 0.039000 0.037450
v 0.040044 0.040225 0.034950
v 0.040044 0.040225 0.037450
v 0.040737 0.041263 0.034950
v 0.040737 0.041263 0.037450
v 0.041775 0.041956 0.034950
v 0.041775 0.041956 0.037450
vn -0.0000 0.7462 -0.6657
vn -0.0000 0.7462 0.6657
vn 0.2856 0.6894 -0.6657
vn 0.2856 0.6894 0.6657
vn 0.5276 0.5276 -0.6657
vn 0.5276 0.5276 0.6657
vn 0.6894 0.2856 -0.6657
vn 0.6894 0.2856 0.6657
vn 0.7462 -0.0000 -0.6657
vn 0.7462 -0.0000 0.6657
vn 0.6894 -0.2856 -0.6657
vn 0.6894 -0.2856 0.6657
vn 0.5276 -0.5276 -0.6657
vn 0.5276 -0.5276 0.6657
vn 0.2856 -0.6894 -0.6657
vn 0.2856 -0.6894 0.6657
vn -0.0000 -0.7462 -0.6657
vn -0.0000 -0.7462 0.6657
vn -0.2856 -0.6894 -0.6657
vn -0.2856 -0.6894 0.6657
vn -0.5276 -0.5276 -0.6657
vn -0.5276 -0.5276 0.6657
vn -0.6894 -0.2856 -0.6657
vn -0.6894 -0.2856 0.6657
vn -0.7462 -0.0000 -0.6657
vn -0.7462 -0.0000 0.6657
vn -0.6894 0.2856 -0.6657
vn -0.6894 0.2856 0.6657
vn -0.5276 0.5276 -0.6657
vn -0.5276 0.5276 0.6657
vn -0.2856 0.6894 -0.6657
vn -0.2856 0.6894 0.6657
vt 1.000000 0.500000
vt 1.000000 1.000000
vt 0.937500 1.000000
vt 0.937500 0.500000
vt 0.875000 1.000000
vt 0.875000 0.500000
vt 0.812500 1.000000
vt 0.812500 0.500000
vt 0.750000 1.000000
vt 0.750000 0.500000
vt 0.687500 1.000000
vt 0.687500 0.500000
vt 0.625000 1.000000
vt 0.625000 0.500000
vt 0.562500 1.000000
vt 0.562500 0.500000
vt 0.500000 1.000000
vt 0.500000 0.500000
vt 0.437500 1.000000
vt 0.437500 0.500000
vt 0.375000 1.000000
vt 0.375000 0.500000
vt 0.312500 1.000000
vt 0.312500 0.500000
vt 0.250000 1.000000
vt 0.250000 0.500000
vt 0.187500 1.000000
vt 0.187500 0.500000
vt 0.125000 1.000000
vt 0.125000 0.500000
vt 0.341844 0.471731
vt 0.250000 0.490000
vt 0.158156 0.471731
vt 0.080294 0.419706
vt 0.028269 0.341844
vt 0.010000 0.250000
vt 0.028269 0.158156
vt 0.080294 0.080294
vt 0.158156 0.028269
vt 0.250000 0.010000
vt 0.341844 0.028269
vt 0.419706 0.080294
vt 0.471731 0.158156
vt 0.490000 0.250000
vt 0.471731 0.341844
vt 0.419706 0.419706
vt 0.062500 1.000000
vt 0.062500 0.500000
vt 0.000000 1.000000
vt 0.000000 0.500000
vt 0.750000 0.490000
vt 0.841844 0.471731
vt 0.919706 0.419706
vt 0.971731 0.341844
vt 0.990000 0.250000
vt 0.971731 0.158156
vt 0.919706 0.080294
vt 0.841844 0.028269
vt 0.750000 0.010000
vt 0.658156 0.028269
vt 0.580294 0.080294
vt 0.528269 0.158156
vt 0.510000 0.250000
vt 0.528269 0.341844
vt 0.580294 0.419706
vt 0.658156 0.471731
s 1
usemtl tt_silver
f 1/1/1 2/2/2 4/3/4 3/4/3
f 3/4/3 4/3/4 6/5/6 5/6/5
f 5/6/5 6/5/6 8/7/8 7/8/7
f 7/8/7 8/7/8 10/9/10 9/10/9
f 9/10/9 10/9/10 12/11/12 11/12/11
f 11/12/11 12/11/12 14/13/14 13/14/13
f 13/14/13 14/13/14 16/15/16 15/16/15
f 15/16/15 16/15/16 18/17/18 17/18/17
f 17/18/17 18/17/18 20/19/20 19/20/19
f 19/20/19 20/19/20 22/21/22 21/22/21
f 21/22/21 22/21/22 24/23/24 23/24/23
f 23/24/23 24/23/24 26/25/26 25/26/25
f 25/26/25 26/25/26 28/27/28 27/28/27
f 27/28/27 28/27/28 30/29/30 29/30/29
f 4/31/4 2/32/2 32/33/32 30/34/30 28/35/28 26/36/26 24/37/24 22/38/22 20/39/20 18/40/18 16/41/16 14/42/14 12/43/12 10/44/10 8/45/8 6/46/6
f 29/30/29 30/29/30 32/47/32 31/48/31
f 31/48/31 32/47/32 2/49/2 1/50/1
f 1/51/1 3/52/3 5/53/5 7/54/7 9/55/9 11/56/11 13/57/13 15/58/15 17/59/17 19/60/19 21/61/21 23/62/23 25/63/25 27/64/27 29/65/29 31/66/31
o TT_cap_1
v -0.043000 0.042200 0.034950
v -0.043000 0.042200 0.037450
v -0.041775 0.041956 0.034950
v -0.041775 0.041956 0.037450
v -0.040737 0.041263 0.034950
v -0.040737 0.041263 0.037450
v -0.040044 0.040225 0.034950
v -0.040044 0.040225 0.037450
v -0.039800 0.039000 0.034950
v -0.039800 0.039000 0.037450
v -0.040044 0.037775 0.034950
v -0.040044 0.037775 0.037450
v -0.040737 0.036737 0.034950
v -0.040737 0.036737 0.037450
v -0.041775 0.036044 0.034950
v -0.041775 0.036044 0.037450
v -0.043000 0.035800 0.034950
v -0.043000 0.035800 0.037450
v -0.044225 0.036044 0.034950
v -0.044225 0.036044 0.037450
v -0.045263 0.036737 0.034950
v -0.045263 0.036737 0.037450
v -0.045956 0.037775 0.034950
v -0.045956 0.037775 0.037450
v -0.046200 0.039000 0.034950
v -0.046200 0.039000 0.037450
v -0.045956 0.040225 0.034950
v -0.045956 0.040225 0.037450
v -0.045263 0.041263 0.034950
v -0.045263 0.041263 0.037450
v -0.044225 0.041956 0.034950
v -0.044225 0.041956 0.037450
vn -0.0000 0.7462 -0.6657
vn -0.0000 0.7462 0.6657
vn 0.2856 0.6894 -0.6657
vn 0.2856 0.6894 0.6657
vn 0.5276 0.5276 -0.6657
vn 0.5276 0.5276 0.6657
vn 0.6894 0.2856 -0.6657
vn 0.6894 0.2856 0.6657
vn 0.7462 -0.0000 -0.6657
vn 0.7462 -0.0000 0.6657
vn 0.6894 -0.2856 -0.6657
vn 0.6894 -0.2856 0.6657
vn 0.5276 -0.5276 -0.6657
vn 0.5276 -0.5276 0.6657
vn 0.2856 -0.6894 -0.6657
vn 0.2856 -0.6894 0.6657
vn -0.0000 -0.7462 -0.6657
vn -0.0000 -0.7462 0.6657
vn -0.2856 -0.6894 -0.6657
vn -0.2856 -0.6894 0.6657
vn -0.5276 -0.5276 -0.6657
vn -0.5276 -0.5276 0.6657
vn -0.6894 -0.2856 -0.6657
vn -0.6894 -0.2856 0.6657
vn -0.7462 -0.0000 -0.6657
vn -0.7462 -0.0000 0.6657
vn -0.6894 0.2856 -0.6657
vn -0.6894 0.2856 0.6657
vn -0.5276 0.5276 -0.6657
vn -0.5276 0.5276 0.6657
vn -0.2856 0.6894 -0.6657
vn -0.2856 0.6894 0.6657
vt 1.000000 0.500000
vt 1.000000 1.000000
vt 0.937500 1.000000
vt 0.937500 0.500000
vt 0.875000 1.000000
vt 0.875000 0.500000
vt 0.812500 1.000000
vt 0.812500 0.500000
vt 0.750000 1.000000
vt 0.750000 0.500000
vt 0.687500 1.000000
vt 0.687500 0.500000
vt 0.625000 1.000000
vt 0.625000 0.500000
vt 0.562500 1.000000
vt 0.562500 0.500000
vt 0.500000 1.000000
vt 0.500000 0.500000
vt 0.437500 1.000000
vt 0.437500 0.500000
vt 0.375000 1.000000
vt 0.375000 0.500000
vt 0.312500 1.000000
vt 0.312500 0.500000
vt 0.250000 1.000000
vt 0.250000 0.500000
vt 0.187500 1.000000
vt 0.187500 0.500000
vt 0.125000 1.000000
vt 0.125000 0.500000
vt 0.341844 0.471731
vt 0.250000 0.490000
vt 0.158156 0.471731
vt 0.080294 0.419706
vt 0.028269 0.341844
vt 0.010000 0.250000
vt 0.028269 0.158156
vt 0.080294 0.080294
vt 0.158156 0.028269
vt 0.250000 0.010000
vt 0.341844 0.028269
vt 0.419706 0.080294
vt 0.471731 0.158156
vt 0.490000 0.250000
vt 0.471731 0.341844
vt 0.419706 0.419706
vt 0.062500 1.000000
vt 0.062500 0.500000
vt 0.000000 1.000000
vt 0.000000 0.500000
vt 0.750000 0.490000
vt 0.841844 0.471731
vt 0.919706 0.419706
vt 0.971731 0.341844
vt 0.990000 0.250000
vt 0.971731 0.158156
vt 0.919706 0.080294
vt 0.841844 0.028269
vt 0.750000 0.010000
vt 0.658156 0.028269
vt 0.580294 0.080294
vt 0.528269 0.158156
vt 0.510000 0.250000
vt 0.528269 0.341844
vt 0.580294 0.419706
vt 0.658156 0.471731
s 1
usemtl tt_silver
f 33/67/33 34/68/34 36/69/36 35/70/35
f 35/70/35 36/69/36 38/71/38 37/72/37
f 37/72/37 38/71/38 40/73/40 39/74/39
f 39/74/39 40/73/40 42/75/42 41/76/41
f 41/76/41 42/75/42 44/77/44 43/78/43
f 43/78/43 44/77/44 46/79/46 45/80/45
f 45/80/45 46/79/46 48/81/48 47/82/47
f 47/82/47 48/81/48 50/83/50 49/84/49
f 49/84/49 50/83/50 52/85/52 51/86/51
f 51/86/51 52/85/52 54/87/54 53/88/53
f 53/88/53 54/87/54 56/89/56 55/90/55
f 55/90/55 56/89/56 58/91/58 57/92/57
f 57/92/57 58/91/58 60/93/60 59/94/59
f 59/94/59 60/93/60 62/95/62 61/96/61
f 36/97/36 34/98/34 64/99/64 62/100/62 60/101/60 58/102/58 56/103/56 54/104/54 52/105/52 50/106/50 48/107/48 46/108/46 44/109/44 42/110/42 40/111/40 38/112/38
f 61/96/61 62/95/62 64/113/64 63/114/63
f 63/114/63 64/113/64 34/115/34 33/116/33
f 33/117/33 35/118/35 37/119/37 39/120/39 41/121/41 43/122/43 45/123/45 47/124/47 49/125/49 51/126/51 53/127/53 55/128/55 57/129/57 59/130/59 61/131/61 63/132/63
o TT_cap_2
v -0.043000 -0.035800 0.034950
v -0.043000 -0.035800 0.037450
v -0.041775 -0.036044 0.034950
v -0.041775 -0.036044 0.037450
v -0.040737 -0.036737 0.034950
v -0.040737 -0.036737 0.037450
v -0.040044 -0.037775 0.034950
v -0.040044 -0.037775 0.037450
v -0.039800 -0.039000 0.034950
v -0.039800 -0.039000 0.037450
v -0.040044 -0.040225 0.034950
v -0.040044 -0.040225 0.037450
v -0.040737 -0.041263 0.034950
v -0.040737 -0.041263 0.037450
v -0.041775 -0.041956 0.034950
v -0.041775 -0.041956 0.037450
v -0.043000 -0.042200 0.034950
v -0.043000 -0.042200 0.037450
v -0.044225 -0.041956 0.034950
v -0.044225 -0.041956 0.037450
v -0.045263 -0.041263 0.034950
v -0.045263 -0.041263 0.037450
v -0.045956 -0.040225 0.034950
v -0.045956 -0.040225 0.037450
v -0.046200 -0.039000 0.034950
v -0.046200 -0.039000 0.037450
v -0.045956 -0.037775 0.034950
v -0.045956 -0.037775 0.037450
v -0.045263 -0.036737 0.034950
v -0.045263 -0.036737 0.037450
v -0.044225 -0.036044 0.034950
v -0.044225 -0.036044 0.037450
vn -0.0000 0.7462 -0.6657
vn -0.0000 0.7462 0.6657
vn 0.2856 0.6894 -0.6657
vn 0.2856 0.6894 0.6657
vn 0.5276 0.5276 -0.6657
vn 0.5276 0.5276 0.6657
vn 0.6894 0.2856 -0.6657
vn 0.6894 0.2856 0.6657
vn 0.7462 -0.0000 -0.6657
vn 0.7462 -0.0000 0.6657
vn 0.6894 -0.2856 -0.6657
vn 0.6894 -0.2856 0.6657
vn 0.5276 -0.5276 -0.6657
vn 0.5276 -0.5276 0.6657
vn 0.2856 -0.6894 -0.6657
vn 0.2856 -0.6894 0.6657
vn -0.0000 -0.7462 -0.6657
vn -0.0000 -0.7462 0.6657
vn -0.2856 -0.6894 -0.6657
vn -0.2856 -0.6894 0.6657
vn -0.5276 -0.5276 -0.6657
vn -0.5276 -0.5276 0.6657
vn -0.6894 -0.2856 -0.6657
vn -0.6894 -0.2856 0.6657
vn -0.7462 -0.0000 -0.6657
vn -0.7462 -0.0000 0.6657
vn -0.6894 0.2856 -0.6657
vn -0.6894 0.2856 0.6657
vn -0.5276 0.5276 -0.6657
vn -0.5276 0.5276 0.6657
vn -0.2856 0.6894 -0.6657
vn -0.2856 0.6894 0.6657
vt 1.000000 0.500000
vt 1.000000 1.000000
vt 0.937500 1.000000
vt 0.937500 0.500000
vt 0.875000 1.000000
vt 0.875000 0.500000
vt 0.812500 1.000000
vt 0.812500 0.500000
vt 0.750000 1.000000
vt 0.750000 0.500000
vt 0.687500 1.000000
vt 0.687500 0.500000
vt 0.625000 1.000000
vt 0.625000 0.500000
vt 0.562500 1.000000
vt 0.562500 0.500000
vt 0.500000 1.000000
vt 0.500000 0.500000
vt 0.437500 1.000000
vt 0.437500 0.500000
vt 0.375000 1.000000
vt 0.375000 0.500000
vt 0.312500 1.000000
vt 0.312500 0.500000
vt 0.250000 1.000000
vt 0.250000 0.500000
vt 0.187500 1.000000
vt 0.187500 0.500000
vt 0.125000 1.000000
vt 0.125000 0.500000
vt 0.341844 0.471731
vt 0.250000 0.490000
vt 0.158156 0.471731
vt 0.080294 0.419706
vt 0.028269 0.341844
vt 0.010000 0.250000
vt 0.028269 0.158156
vt 0.080294 0.080294
vt 0.158156 0.028269
vt 0.250000 0.010000
vt 0.341844 0.028269
vt 0.419706 0.080294
vt 0.471731 0.158156
vt 0.490000 0.250000
vt 0.471731 0.341844
vt 0.419706 0.419706
vt 0.062500 1.000000
vt 0.062500 0.500000
vt 0.000000 1.000000
vt 0.000000 0.500000
vt 0.750000 0.490000
vt 0.841844 0.471731
vt 0.919706 0.419706
vt 0.971731 0.341844
vt 0.990000 0.250000
vt 0.971731 0.158156
vt 0.919706 0.080294
vt 0.841844 0.028269
vt 0.750000 0.010000
vt 0.658156 0.028269
vt 0.580294 0.080294
vt 0.528269 0.158156
vt 0.510000 0.250000
vt 0.528269 0.341844
vt 0.580294 0.419706
vt 0.658156 0.471731
s 1
usemtl tt_silver
f 65/133/65 66/134/66 68/135/68 67/136/67
f 67/136/67 68/135/68 70/137/70 69/138/69
f 69/138/69 70/137/70 72/139/72 71/140/71
f 71/140/71 72/139/72 74/141/74 73/142/73
f 73/142/73 74/141/74 76/143/76 75/144/75
f 75/144/75 76/143/76 78/145/78 77/146/77
f 77/146/77 78/145/78 80/147/80 79/148/79
f 79/148/79 80/147/80 82/149/82 81/150/81
f 81/150/81 82/149/82 84/151/84 83/152/83
f 83/152/83 84/151/84 86/153/86 85/154/85
f 85/154/85 86/153/86 88/155/88 87/156/87
f 87/156/87 88/155/88 90/157/90 89/158/89
f 89/158/89 90/157/90 92/159/92 91/160/91
f 91/160/91 92/159/92 94/161/94 93/162/93
f 68/163/68 66/164/66 96/165/96 94/166/94 92/167/92 90/168/90 88/169/88 86/170/86 84/171/84 82/172/82 80/173/80 78/174/78 76/175/76 74/176/74 72/177/72 70/178/70
f 93/162/93 94/161/94 96/179/96 95/180/95
f 95/180/95 96/179/96 66/181/66 65/182/65
f 65/183/65 67/184/67 69/185/69 71/186/71 73/187/73 75/188/75 77/189/77 79/190/79 81/191/81 83/192/83 85/193/85 87/194/87 89/195/89 91/196/91 93/197/93 95/198/95
o TT_cap_3
v 0.043000 -0.035800 0.034950
v 0.043000 -0.035800 0.037450
v 0.044225 -0.036044 0.034950
v 0.044225 -0.036044 0.037450
v 0.045263 -0.036737 0.034950
v 0.045263 -0.036737 0.037450
v 0.045956 -0.037775 0.034950
v 0.045956 -0.037775 0.037450
v 0.046200 -0.039000 0.034950
v 0.046200 -0.039000 0.037450
v 0.045956 -0.040225 0.034950
v 0.045956 -0.040225 0.037450
v 0.045263 -0.041263 0.034950
v 0.045263 -0.041263 0.037450
v 0.044225 -0.041956 0.034950
v 0.044225 -0.041956 0.037450
v 0.043000 -0.042200 0.034950
v 0.043000 -0.042200 0.037450
v 0.041775 -0.041956 0.034950
v 0.041775 -0.041956 0.037450
v 0.040737 -0.041263 0.034950
v 0.040737 -0.041263 0.037450
v 0.040044 -0.040225 0.034950
v 0.040044 -0.040225 0.037450
v 0.039800 -0.039000 0.034950
v 0.039800 -0.039000 0.037450
v 0.040044 -0.037775 0.034950
v 0.040044 -0.037775 0.037450
v 0.040737 -0.036737 0.034950
v 0.040737 -0.036737 0.037450
v 0.041775 -0.036044 0.034950
v 0.041775 -0.036044 0.037450
vn -0.0000 0.7462 -0.6657
vn -0.0000 0.7462 0.6657
vn 0.2856 0.6894 -0.6657
vn 0.2856 0.6894 0.6657
vn 0.5276 0.5276 -0.6657
vn 0.5276 0.5276 0.6657
vn 0.6894 0.2856 -0.6657
vn 0.6894 0.2856 0.6657
vn 0.7462 -0.0000 -0.6657
vn 0.7462 -0.0000 0.6657
vn 0.6894 -0.2856 -0.6657
vn 0.6894 -0.2856 0.6657
vn 0.5276 -0.5276 -0.6657
vn 0.5276 -0.5276 0.6657
vn 0.2856 -0.6894 -0.6657
vn 0.2856 -0.6894 0.6657
vn -0.0000 -0.7462 -0.6657
vn -0.0000 -0.7462 0.6657
vn -0.2856 -0.6894 -0.6657
vn -0.2856 -0.6894 0.6657
vn -0.5276 -0.5276 -0.6657
vn -0.5276 -0.5276 0.6657
vn -0.6894 -0.2856 -0.6657
vn -0.6894 -0.2856 0.6657
vn -0.7462 -0.0000 -0.6657
vn -0.7462 -0.0000 0.6657
vn -0.6894 0.2856 -0.6657
vn -0.6894 0.2856 0.6657
vn -0.5276 0.5276 -0.6657
vn -0.5276 0.5276 0.6657
vn -0.2856 0.6894 -0.6657
vn -0.2856 0.6894 0.6657
vt 1.000000 0.500000
vt 1.000000 1.000000
vt 0.937500 1.000000
vt 0.937500 0.500000
vt 0.875000 1.000000
vt 0.875000 0.500000
vt 0.812500 1.000000
vt 0.812500 0.500000
vt 0.750000 1.000000
vt 0.750000 0.500000
vt 0.687500 1.000000
vt 0.687500 0.500000
vt 0.625000 1.000000
vt 0.625000 0.500000
vt 0.562500 1.000000
vt 0.562500 0.500000
vt 0.500000 1.000000
vt 0.500000 0.500000
vt 0.437500 1.000000
vt 0.437500 0.500000
vt 0.375000 1.000000
vt 0.375000 0.500000
vt 0.312500 1.000000
vt 0.312500 0.500000
vt 0.250000 1.000000
vt 0.250000 0.500000
vt 0.187500 1.000000
vt 0.187500 0.500000
vt 0.125000 1.000000
vt 0.125000 0.500000
vt 0.341844 0.471731
vt 0.250000 0.490000
vt 0.158156 0.471731
vt 0.080294 0.419706
vt 0.028269 0.341844
vt 0.010000 0.250000
vt 0.028269 0.158156
vt 0.080294 0.080294
vt 0.158156 0.028269
vt 0.250000 0.010000
vt 0.341844 0.028269
vt 0.419706 0.080294
vt 0.471731 0.158156
vt 0.490000 0.250000
vt 0.471731 0.341844
vt 0.419706 0.419706
vt 0.062500 1.000000
vt 0.062500 0.500000
vt 0.000000 1.000000
vt 0.000000 0.500000
vt 0.750000 0.490000
vt 0.841844 0.471731
vt 0.919706 0.419706
vt 0.971731 0.341844
vt 0.990000 0.250000
vt 0.971731 0.158156
vt 0.919706 0.080294
vt 0.841844 0.028269
vt 0.750000 0.010000
vt 0.658156 0.028269
vt 0.580294 0.080294
vt 0.528269 0.158156
vt 0.510000 0.250000
vt 0.528269 0.341844
vt 0.580294 0.419706
vt 0.658156 0.471731
s 1
usemtl tt_silver
f 97/199/97 98/200/98 100/201/100 99/202/99
f 99/202/99 100/201/100 102/203/102 101/204/101
f 101/204/101 102/203/102 104/205/104 103/206/103
f 103/206/103 104/205/104 106/207/106 105/208/105
f 105/208/105 106/207/106 108/209/108 107/210/107
f 107/210/107 108/209/108 110/211/110 109/212/109
f 109/212/109 110/211/110 112/213/112 111/214/111
f 111/214/111 112/213/112 114/215/114 113/216/113
f 113/216/113 114/215/114 116/217/116 115/218/115
f 115/218/115 116/217/116 118/219/118 117/220/117
f 117/220/117 118/219/118 120/221/120 119/222/119
f 119/222/119 120/221/120 122/223/122 121/224/121
f 121/224/121 122/223/122 124/225/124 123/226/123
f 123/226/123 124/225/124 126/227/126 125/228/125
f 100/229/100 98/230/98 128/231/128 126/232/126 124/233/124 122/234/122 120/235/120 118/236/118 116/237/116 114/238/114 112/239/112 110/240/110 108/241/108 106/242/106 104/243/104 102/244/102
f 125/228/125 126/227/126 128/245/128 127/246/127
f 127/246/127 128/245/128 98/247/98 97/248/97
f 97/249/97 99/250/99 101/251/101 103/252/103 105/253/105 107/254/107 109/255/109 111/256/111 113/257/113 115/258/115 117/259/117 119/260/119 121/261/121 123/262/123 125/263/125 127/264/127
