# Blender 5.1.1
# www.blender.org
mtllib tello_body_grey.mtl
o TT_foot_0
v 0.043000 0.043500 0.002000
v 0.043000 0.043500 0.008000
v 0.044722 0.043157 0.002000
v 0.044722 0.043157 0.008000
v 0.046182 0.042182 0.002000
v 0.046182 0.042182 0.008000
v 0.047157 0.040722 0.002000
v 0.047157 0.040722 0.008000
v 0.047500 0.039000 0.002000
v 0.047500 0.039000 0.008000
v 0.047157 0.037278 0.002000
v 0.047157 0.037278 0.008000
v 0.046182 0.035818 0.002000
v 0.046182 0.035818 0.008000
v 0.044722 0.034843 0.002000
v 0.044722 0.034843 0.008000
v 0.043000 0.034500 0.002000
v 0.043000 0.034500 0.008000
v 0.041278 0.034843 0.002000
v 0.041278 0.034843 0.008000
v 0.039818 0.035818 0.002000
v 0.039818 0.035818 0.008000
v 0.038843 0.037278 0.002000
v 0.038843 0.037278 0.008000
v 0.038500 0.039000 0.002000
v 0.038500 0.039000 0.008000
v 0.038843 0.040722 0.002000
v 0.038843 0.040722 0.008000
v 0.039818 0.042182 0.002000
v 0.039818 0.042182 0.008000
v 0.041278 0.043157 0.002000
v 0.041278 0.043157 0.008000
vn -0.0000 0.7462 -0.6657
vn -0.0000 0.7462 0.6657
vn 0.2856 0.6894 -0.6657
vn 0.2856 0.6894 0.6657
vn 0.5276 0.5276 -0.6657
vn 0.5276 0.5276 0.6657
vn 0.6894 0.2856 -0.6657
vn 0.6894 0.2856 0.6657
vn 0.7462 -0.0000 -0.6657
vn 0.7462 -0.0000 0.6657
vn 0.6894 -0.2856 -0.6657
vn 0.6894 -0.2856 0.6657
vn 0.5276 -0.5276 -0.6657
vn 0.5276 -0.5276 0.6657
vn 0.2856 -0.6894 -0.6657
vn 0.2856 -0.6894 0.6657
vn -0.0000 -0.7462 -0.6657
vn -0.0000 -0.7462 0.6657
vn -0.2856 -0.6894 -0.6657
vn -0.2856 -0.6894 0.6657
vn -0.5276 -0.5276 -0.6657
vn -0.5276 -0.5276 0.6657
vn -0.6894 -0.2856 -0.6657
vn -0.6894 -0.2856 0.6657
vn -0.7462 -0.0000 -0.6657
vn -0.7462 -0.0000 0.6657
vn -0.6894 0.2856 -0.6657
vn -0.6894 0.2856 0.6657
vn -0.5276 0.5276 -0.6657
vn -0.5276 0.5276 0.6657
vn -0.2856 0.6894 -0.6657
vn -0.2856 0.6894 0.6657
vt 1.000000 0.500000
vt 1.000000 1.000000
vt 0.937500 1.000000
vt 0.937500 0.500000
vt 0.875000 1.000000
vt 0.875000 0.500000
vt 0.812500 1.000000
vt 0.812500 0.500000
vt 0.750000 1.000000
vt 0.750000 0.500000
vt 0.687500 1.000000
vt 0.687500 0.500000
vt 0.625000 1.000000
vt 0.625000 0.500000
vt 0.562500 1.000000
vt 0.562500 0.500000
vt 0.500000 1.000000
vt 0.500000 0.500000
vt 0.437500 1.000000
vt 0.437500 0.500000
vt 0.375000 1.000000
vt 0.375000 0.500000
vt 0.312500 1.000000
vt 0.312500 0.500000
vt 0.250000 1.000000
vt 0.250000 0.500000
vt 0.187500 1.000000
vt 0.187500 0.500000
vt 0.125000 1.000000
vt 0.125000 0.500000
vt 0.341844 0.471731
vt 0.250000 0.490000
vt 0.158156 0.471731
vt 0.080294 0.419706
vt 0.028269 0.341844
vt 0.010000 0.250000
vt 0.028269 0.158156
vt 0.080294 0.080294
vt 0.158156 0.028269
vt 0.250000 0.010000
vt 0.341844 0.028269
vt 0.419706 0.080294
vt 0.471731 0.158156
vt 0.490000 0.250000
vt 0.471731 0.341844
vt 0.419706 0.419706
vt 0.062500 1.000000
vt 0.062500 0.500000
vt 0.000000 1.000000
vt 0.000000 0.500000
vt 0.750000 0.490000
vt 0.841844 0.471731
vt 0.919706 0.419706
vt 0.971731 0.341844
vt 0.990000 0.250000
vt 0.971731 0.158156
vt 0.919706 0.080294
vt 0.841844 0.028269
vt 0.750000 0.010000
vt 0.658156 0.028269
vt 0.580294 0.080294
vt 0.528269 0.158156
vt 0.510000 0.250000
vt 0.528269 0.341844
vt 0.580294 0.419706
vt 0.658156 0.471731
s 1
usemtl tt_grey
f 1/1/1 2/2/2 4/3/4 3/4/3
f 3/4/3 4/3/4 6/5/6 5/6/5
f 5/6/5 6/5/6 8/7/8 7/8/7
f 7/8/7 8/7/8 10/9/10 9/10/9
f 9/10/9 10/9/10 12/11/12 11/12/11
f 11/12/11 12/11/12 14/13/14 13/14/13
f 13/14/13 14/13/14 16/15/16 15/16/15
f 15/16/15 16/15/16 18/17/18 17/18/17
f 17/18/17 18/17/18 20/19/20 19/20/19
f 19/20/19 20/19/20 22/21/22 21/22/21
f 21/22/21 22/21/22 24/23/24 23/24/23
f 23/24/23 24/23/24 26/25/26 25/26/25
f 25/26/25 26/25/26 28/27/28 27/28/27
f 27/28/27 28/27/28 30/29/30 29/30/29
f 4/31/4 2/32/2 32/33/32 30/34/30 28/35/28 26/36/26 24/37/24 22/38/22 20/39/20 18/40/18 16/41/16 14/42/14 12/43/12 10/44/10 8/45/8 6/46/6
f 29/30/29 30/29/30 32/47/32 31/48/31
f 31/48/31 32/47/32 2/49/2 1/50/1
f 1/51/1 3/52/3 5/53/5 7/54/7 9/55/9 11/56/11 13/57/13 15/58/15 17/59/17 19/60/19 21/61/21 23/62/23 25/63/25 27/64/27 29/65/29 31/66/31
o TT_foot_1
v -0.043000 0.043500 0.002000
v -0.043000 0.043500 0.008000
v -0.041278 0.043157 0.002000
v -0.041278 0.043157 0.008000
v -0.039818 0.042182 0.002000
v -0.039818 0.042182 0.008000
v -0.038843 0.040722 0.002000
v -0.038843 0.040722 0.008000
v -0.038500 0.039000 0.002000
v -0.038500 0.039000 0.008000
v -0.038843 0.037278 0.002000
v -0.038843 0.037278 0.008000
v -0.039818 0.035818 0.002000
v -0.039818 0.035818 0.008000
v -0.041278 0.034843 0.002000
v -0.041278 0.034843 0.008000
v -0.043000 0.034500 0.002000
v -0.043000 0.034500 0.008000
v -0.044722 0.034843 0.002000
v -0.044722 0.034843 0.008000
v -0.046182 0.035818 0.002000
v -0.046182 0.035818 0.008000
v -0.047157 0.037278 0.002000
v -0.047157 0.037278 0.008000
v -0.047500 0.039000 0.002000
v -0.047500 0.039000 0.008000
v -0.047157 0.040722 0.002000
v -0.047157 0.040722 0.008000
v -0.046182 0.042182 0.002000
v -0.046182 0.042182 0.008000
v -0.044722 0.043157 0.002000
v -0.044722 0.043157 0.008000
vn -0.0000 0.7462 -0.6657
vn -0.0000 0.7462 0.6657
vn 0.2856 0.6894 -0.6657
vn 0.2856 0.6894 0.6657
vn 0.5276 0.5276 -0.6657
vn 0.5276 0.5276 0.6657
vn 0.6894 0.2856 -0.6657
vn 0.6894 0.2856 0.6657
vn 0.7462 -0.0000 -0.6657
vn 0.7462 -0.0000 0.6657
vn 0.6894 -0.2856 -0.6657
vn 0.6894 -0.2856 0.6657
vn 0.5276 -0.5276 -0.6657
vn 0.5276 -0.5276 0.6657
vn 0.2856 -0.6894 -0.6657
vn 0.2856 -0.6894 0.6657
vn -0.0000 -0.7462 -0.6657
vn -0.0000 -0.7462 0.6657
vn -0.2856 -0.6894 -0.6657
vn -0.2856 -0.6894 0.6657
vn -0.5276 -0.5276 -0.6657
vn -0.5276 -0.5276 0.6657
vn -0.6894 -0.2856 -0.6657
vn -0.6894 -0.2856 0.6657
vn -0.7462 -0.0000 -0.6657
vn -0.7462 -0.0000 0.6657
vn -0.6894 0.2856 -0.6657
vn -0.6894 0.2856 0.6657
vn -0.5276 0.5276 -0.6657
vn -0.5276 0.5276 0.6657
vn -0.2856 0.6894 -0.6657
vn -0.2856 0.6894 0.6657
vt 1.000000 0.500000
vt 1.000000 1.000000
vt 0.937500 1.000000
vt 0.937500 0.500000
vt 0.875000 1.000000
vt 0.875000 0.500000
vt 0.812500 1.000000
vt 0.812500 0.500000
vt 0.750000 1.000000
vt 0.750000 0.500000
vt 0.687500 1.000000
vt 0.687500 0.500000
vt 0.625000 1.000000
vt 0.625000 0.500000
vt 0.562500 1.000000
vt 0.562500 0.500000
vt 0.500000 1.000000
vt 0.500000 0.500000
vt 0.437500 1.000000
vt 0.437500 0.500000
vt 0.375000 1.000000
vt 0.375000 0.500000
vt 0.312500 1.000000
vt 0.312500 0.500000
vt 0.250000 1.000000
vt 0.250000 0.500000
vt 0.187500 1.000000
vt 0.187500 0.500000
vt 0.125000 1.000000
vt 0.125000 0.500000
vt 0.341844 0.471731
vt 0.250000 0.490000
vt 0.158156 0.471731
vt 0.080294 0.419706
vt 0.028269 0.341844
vt 0.010000 0.250000
vt 0.028269 0.158156
vt 0.080294 0.080294
vt 0.158156 0.028269
vt 0.250000 0.010000
vt 0.341844 0.028269
vt 0.419706 0.080294
vt 0.471731 0.158156
vt 0.490000 0.250000
vt 0.471731 0.341844
vt 0.419706 0.419706
vt 0.062500 1.000000
vt 0.062500 0.500000
vt 0.000000 1.000000
vt 0.000000 0.500000
vt 0.750000 0.490000
vt 0.841844 0.471731
vt 0.919706 0.419706
vt 0.971731 0.341844
vt 0.990000 0.250000
vt 0.971731 0.158156
vt 0.919706 0.080294
vt 0.841844 0.028269
vt 0.750000 0.010000
vt 0.658156 0.028269
vt 0.580294 0.080294
vt 0.528269 0.158156
vt 0.510000 0.250000
vt 0.528269 0.341844
vt 0.580294 0.419706
vt 0.658156 0.471731
s 1
usemtl tt_grey
f 33/67/33 34/68/34 36/69/36 35/70/35
f 35/70/35 36/69/36 38/71/38 37/72/37
f 37/72/37 38/71/38 40/73/40 39/74/39
f 39/74/39 40/73/40 42/75/42 41/76/41
f 41/76/41 42/75/42 44/77/44 43/78/43
f 43/78/43 44/77/44 46/79/46 45/80/45
f 45/80/45 46/79/46 48/81/48 47/82/47
f 47/82/47 48/81/48 50/83/50 49/84/49
f 49/84/49 50/83/50 52/85/52 51/86/51
f 51/86/51 52/85/52 54/87/54 53/88/53
f 53/88/53 54/87/54 56/89/56 55/90/55
f 55/90/55 56/89/56 58/91/58 57/92/57
f 57/92/57 58/91/58 60/93/60 59/94/59
f 59/94/59 60/93/60 62/95/62 61/96/61
f 36/97/36 34/98/34 64/99/64 62/100/62 60/101/60 58/102/58 56/103/56 54/104/54 52/105/52 50/106/50 48/107/48 46/108/46 44/109/44 42/110/42 40/111/40 38/112/38
f 61/96/61 62/95/62 64/113/64 63/114/63
f 63/114/63 64/113/64 34/115/34 33/116/33
f 33/117/33 35/118/35 37/119/37 39/120/39 41/121/41 43/122/43 45/123/45 47/124/47 49/125/49 51/126/51 53/127/53 55/128/55 57/129/57 59/130/59 61/131/61 63/132/63
o TT_foot_2
v -0.043000 -0.034500 0.002000
v -0.043000 -0.034500 0.008000
v -0.041278 -0.034843 0.002000
v -0.041278 -0.034843 0.008000
v -0.039818 -0.035818 0.002000
v -0.039818 -0.035818 0.008000
v -0.038843 -0.037278 0.002000
v -0.038843 -0.037278 0.008000
v -0.038500 -0.039000 0.002000
v -0.038500 -0.039000 0.008000
v -0.038843 -0.040722 0.002000
v -0.038843 -0.040722 0.008000
v -0.039818 -0.042182 0.002000
v -0.039818 -0.042182 0.008000
v -0.041278 -0.043157 0.002000
v -0.041278 -0.043157 0.008000
v -0.043000 -0.043500 0.002000
v -0.043000 -0.043500 0.008000
v -0.044722 -0.043157 0.002000
v -0.044722 -0.043157 0.008000
v -0.046182 -0.042182 0.002000
v -0.046182 -0.042182 0.008000
v -0.047157 -0.040722 0.002000
v -0.047157 -0.040722 0.008000
v -0.047500 -0.039000 0.002000
v -0.047500 -0.039000 0.008000
v -0.047157 -0.037278 0.002000
v -0.047157 -0.037278 0.008000
v -0.046182 -0.035818 0.002000
v -0.046182 -0.035818 0.008000
v -0.044722 -0.034843 0.002000
v -0.044722 -0.034843 0.008000
vn -0.0000 0.7462 -0.6657
vn -0.0000 0.7462 0.6657
vn 0.2856 0.6894 -0.6657
vn 0.2856 0.6894 0.6657
vn 0.5276 0.5276 -0.6657
vn 0.5276 0.5276 0.6657
vn 0.6894 0.2856 -0.6657
vn 0.6894 0.2856 0.6657
vn 0.7462 -0.0000 -0.6657
vn 0.7462 -0.0000 0.6657
vn 0.6894 -0.2856 -0.6657
vn 0.6894 -0.2856 0.6657
vn 0.5276 -0.5276 -0.6657
vn 0.5276 -0.5276 0.6657
vn 0.2856 -0.6894 -0.6657
vn 0.2856 -0.6894 0.6657
vn -0.0000 -0.7462 -0.6657
vn -0.0000 -0.7462 0.6657
vn -0.2856 -0.6894 -0.6657
vn -0.2856 -0.6894 0.6657
vn -0.5276 -0.5276 -0.6657
vn -0.5276 -0.5276 0.6657
vn -0.6894 -0.2856 -0.6657
vn -0.6894 -0.2856 0.6657
vn -0.7462 -0.0000 -0.6657
vn -0.7462 -0.0000 0.6657
vn -0.6894 0.2856 -0.6657
vn -0.6894 0.2856 0.6657
vn -0.5276 0.5276 -0.6657
vn -0.5276 0.5276 0.6657
vn -0.2856 0.6894 -0.6657
vn -0.2856 0.6894 0.6657
vt 1.000000 0.500000
vt 1.000000 1.000000
vt 0.937500 1.000000
vt 0.937500 0.500000
vt 0.875000 1.000000
vt 0.875000 0.500000
vt 0.812500 1.000000
vt 0.812500 0.500000
vt 0.750000 1.000000
vt 0.750000 0.500000
vt 0.687500 1.000000
vt 0.687500 0.500000
vt 0.625000 1.000000
vt 0.625000 0.500000
vt 0.562500 1.000000
vt 0.562500 0.500000
vt 0.500000 1.000000
vt 0.500000 0.500000
vt 0.437500 1.000000
vt 0.437500 0.500000
vt 0.375000 1.000000
vt 0.375000 0.500000
vt 0.312500 1.000000
vt 0.312500 0.500000
vt 0.250000 1.000000
vt 0.250000 0.500000
vt 0.187500 1.000000
vt 0.187500 0.500000
vt 0.125000 1.000000
vt 0.125000 0.500000
vt 0.341844 0.471731
vt 0.250000 0.490000
vt 0.158156 0.471731
vt 0.080294 0.419706
vt 0.028269 0.341844
vt 0.010000 0.250000
vt 0.028269 0.158156
vt 0.080294 0.080294
vt 0.158156 0.028269
vt 0.250000 0.010000
vt 0.341844 0.028269
vt 0.419706 0.080294
vt 0.471731 0.158156
vt 0.490000 0.250000
vt 0.471731 0.341844
vt 0.419706 0.419706
vt 0.062500 1.000000
vt 0.062500 0.500000
vt 0.000000 1.000000
vt 0.000000 0.500000
vt 0.750000 0.490000
vt 0.841844 0.471731
vt 0.919706 0.419706
vt 0.971731 0.341844
vt 0.990000 0.250000
vt 0.971731 0.158156
vt 0.919706 0.080294
vt 0.841844 0.028269
vt 0.750000 0.010000
vt 0.658156 0.028269
vt 0.580294 0.080294
vt 0.528269 0.158156
vt 0.510000 0.250000
vt 0.528269 0.341844
vt 0.580294 0.419706
vt 0.658156 0.471731
s 1
usemtl tt_grey
f 65/133/65 66/134/66 68/135/68 67/136/67
f 67/136/67 68/135/68 70/137/70 69/138/69
f 69/138/69 70/137/70 72/139/72 71/140/71
f 71/140/71 72/139/72 74/141/74 73/142/73
f 73/142/73 74/141/74 76/143/76 75/144/75
f 75/144/75 76/143/76 78/145/78 77/146/77
f 77/146/77 78/145/78 80/147/80 79/148/79
f 79/148/79 80/147/80 82/149/82 81/150/81
f 81/150/81 82/149/82 84/151/84 83/152/83
f 83/152/83 84/151/84 86/153/86 85/154/85
f 85/154/85 86/153/86 88/155/88 87/156/87
f 87/156/87 88/155/88 90/157/90 89/158/89
f 89/158/89 90/157/90 92/159/92 91/160/91
f 91/160/91 92/159/92 94/161/94 93/162/93
f 68/163/68 66/164/66 96/165/96 94/166/94 92/167/92 90/168/90 88/169/88 86/170/86 84/171/84 82/172/82 80/173/80 78/174/78 76/175/76 74/176/74 72/177/72 70/178/70
f 93/162/93 94/161/94 96/179/96 95/180/95
f 95/180/95 96/179/96 66/181/66 65/182/65
f 65/183/65 67/184/67 69/185/69 71/186/71 73/187/73 75/188/75 77/189/77 79/190/79 81/191/81 83/192/83 85/193/85 87/194/87 89/195/89 91/196/91 93/197/93 95/198/95
o TT_foot_3
v 0.043000 -0.034500 0.002000
v 0.043000 -0.034500 0.008000
v 0.044722 -0.034843 0.002000
v 0.044722 -0.034843 0.008000
v 0.046182 -0.035818 0.002000
v 0.046182 -0.035818 0.008000
v 0.047157 -0.037278 0.002000
v 0.047157 -0.037278 0.008000
v 0.047500 -0.039000 0.002000
v 0.047500 -0.039000 0.008000
v 0.047157 -0.040722 0.002000
v 0.047157 -0.040722 0.008000
v 0.046182 -0.042182 0.002000
v 0.046182 -0.042182 0.008000
v 0.044722 -0.043157 0.002000
v 0.044722 -0.043157 0.008000
v 0.043000 -0.043500 0.002000
v 0.043000 -0.043500 0.008000
v 0.041278 -0.043157 0.002000
v 0.041278 -0.043157 0.008000
v 0.039818 -0.042182 0.002000
v 0.039818 -0.042182 0.008000
v 0.038843 -0.040722 0.002000
v 0.038843 -0.040722 0.008000
v 0.038500 -0.039000 0.002000
v 0.038500 -0.039000 0.008000
v 0.038843 -0.037278 0.002000
v 0.038843 -0.037278 0.008000
v 0.039818 -0.035818 0.002000
v 0.039818 -0.035818 0.008000
v 0.041278 -0.034843 0.002000
v 0.041278 -0.034843 0.008000
vn -0.0000 0.7462 -0.6657
vn -0.0000 0.7462 0.6657
vn 0.2856 0.6894 -0.6657
vn 0.2856 0.6894 0.6657
vn 0.5276 0.5276 -0.6657
vn 0.5276 0.5276 0.6657
vn 0.6894 0.2856 -0.6657
vn 0.6894 0.2856 0.6657
vn 0.7462 -0.0000 -0.6657
vn 0.7462 -0.0000 0.6657
vn 0.6894 -0.2856 -0.6657
vn 0.6894 -0.2856 0.6657
vn 0.5276 -0.5276 -0.6657
vn 0.5276 -0.5276 0.6657
vn 0.2856 -0.6894 -0.6657
vn 0.2856 -0.6894 0.6657
vn -0.0000 -0.7462 -0.6657
vn -0.0000 -0.7462 0.6657
vn -0.2856 -0.6894 -0.6657
vn -0.2856 -0.6894 0.6657
vn -0.5276 -0.5276 -0.6657
vn -0.5276 -0.5276 0.6657
vn -0.6894 -0.2856 -0.6657
vn -0.6894 -0.2856 0.6657
vn -0.7462 -0.0000 -0.6657
vn -0.7462 -0.0000 0.6657
vn -0.6894 0.2856 -0.6657
vn -0.6894 0.2856 0.6657
vn -0.5276 0.5276 -0.6657
vn -0.5276 0.5276 0.6657
vn -0.2856 0.6894 -0.6657
vn -0.2856 0.6894 0.6657
vt 1.000000 0.500000
vt 1.000000 1.000000
vt 0.937500 1.000000
vt 0.937500 0.500000
vt 0.875000 1.000000
vt 0.875000 0.500000
vt 0.812500 1.000000
vt 0.812500 0.500000
vt 0.750000 1.000000
vt 0.750000 0.500000
vt 0.687500 1.000000
vt 0.687500 0.500000
vt 0.625000 1.000000
vt 0.625000 0.500000
vt 0.562500 1.000000
vt 0.562500 0.500000
vt 0.500000 1.000000
vt 0.500000 0.500000
vt 0.437500 1.000000
vt 0.437500 0.500000
vt 0.375000 1.000000
vt 0.375000 0.500000
vt 0.312500 1.000000
vt 0.312500 0.500000
vt 0.250000 1.000000
vt 0.250000 0.500000
vt 0.187500 1.000000
vt 0.187500 0.500000
vt 0.125000 1.000000
vt 0.125000 0.500000
vt 0.341844 0.471731
vt 0.250000 0.490000
vt 0.158156 0.471731
vt 0.080294 0.419706
vt 0.028269 0.341844
vt 0.010000 0.250000
vt 0.028269 0.158156
vt 0.080294 0.080294
vt 0.158156 0.028269
vt 0.250000 0.010000
vt 0.341844 0.028269
vt 0.419706 0.080294
vt 0.471731 0.158156
vt 0.490000 0.250000
vt 0.471731 0.341844
vt 0.419706 0.419706
vt 0.062500 1.000000
vt 0.062500 0.500000
vt 0.000000 1.000000
vt 0.000000 0.500000
vt 0.750000 0.490000
vt 0.841844 0.471731
vt 0.919706 0.419706
vt 0.971731 0.341844
vt 0.990000 0.250000
vt 0.971731 0.158156
vt 0.919706 0.080294
vt 0.841844 0.028269
vt 0.750000 0.010000
vt 0.658156 0.028269
vt 0.580294 0.080294
vt 0.528269 0.158156
vt 0.510000 0.250000
vt 0.528269 0.341844
vt 0.580294 0.419706
vt 0.658156 0.471731
s 1
usemtl tt_grey
f 97/199/97 98/200/98 100/201/100 99/202/99
f 99/202/99 100/201/100 102/203/102 101/204/101
f 101/204/101 102/203/102 104/205/104 103/206/103
f 103/206/103 104/205/104 106/207/106 105/208/105
f 105/208/105 106/207/106 108/209/108 107/210/107
f 107/210/107 108/209/108 110/211/110 109/212/109
f 109/212/109 110/211/110 112/213/112 111/214/111
f 111/214/111 112/213/112 114/215/114 113/216/113
f 113/216/113 114/215/114 116/217/116 115/218/115
f 115/218/115 116/217/116 118/219/118 117/220/117
f 117/220/117 118/219/118 120/221/120 119/222/119
f 119/222/119 120/221/120 122/223/122 121/224/121
f 121/224/121 122/223/122 124/225/124 123/226/123
f 123/226/123 124/225/124 126/227/126 125/228/125
f 100/229/100 98/230/98 128/231/128 126/232/126 124/233/124 122/234/122 120/235/120 118/236/118 116/237/116 114/238/114 112/239/112 110/240/110 108/241/108 106/242/106 104/243/104 102/244/102
f 125/228/125 126/227/126 128/245/128 127/246/127
f 127/246/127 128/245/128 98/247/98 97/248/97
f 97/249/97 99/250/99 101/251/101 103/252/103 105/253/105 107/254/107 109/255/109 111/256/111 113/257/113 115/258/115 117/259/117 119/260/119 121/261/121 123/262/123 125/263/125 127/264/127
o TT_battery
v -0.050000 -0.009000 0.011000
v -0.050000 -0.012000 0.014000
v -0.053000 -0.009000 0.014000
v -0.050000 -0.009927 0.011147
v -0.050000 -0.010763 0.011573
v -0.050927 -0.009000 0.011147
v -0.050952 -0.009957 0.011321
v -0.050921 -0.010722 0.011723
v -0.051763 -0.009000 0.011573
v -0.051724 -0.009923 0.011725
v -0.051587 -0.010587 0.012010
v -0.050927 -0.011853 0.014000
v -0.051763 -0.011427 0.014000
v -0.050000 -0.011853 0.013073
v -0.050957 -0.011679 0.013048
v -0.051722 -0.011277 0.013079
v -0.050000 -0.011427 0.012237
v -0.050923 -0.011275 0.012276
v -0.051587 -0.010990 0.012413
v -0.052853 -0.009000 0.013073
v -0.052427 -0.009000 0.012237
v -0.052853 -0.009927 0.014000
v -0.052679 -0.009952 0.013043
v -0.052277 -0.009921 0.012278
v -0.052427 -0.010763 0.014000
v -0.052275 -0.010724 0.013077
v -0.051990 -0.010587 0.012413
v -0.050000 -0.012000 0.018000
v -0.050000 -0.009000 0.021000
v -0.053000 -0.009000 0.018000
v -0.050000 -0.011853 0.018927
v -0.050000 -0.011427 0.019763
v -0.050927 -0.011853 0.018000
v -0.050952 -0.011679 0.018957
v -0.050921 -0.011277 0.019722
v -0.051763 -0.011427 0.018000
v -0.051724 -0.011275 0.018923
v -0.051587 -0.010990 0.019587
v -0.050927 -0.009000 0.020853
v -0.051763 -0.009000 0.020427
v -0.050000 -0.009927 0.020853
v -0.050957 -0.009952 0.020679
v -0.051722 -0.009921 0.020277
v -0.050000 -0.010763 0.020427
v -0.050923 -0.010724 0.020275
v -0.051587 -0.010587 0.019990
v -0.052853 -0.009927 0.018000
v -0.052427 -0.010763 0.018000
v -0.052853 -0.009000 0.018927
v -0.052679 -0.009957 0.018952
v -0.052277 -0.010722 0.018921
v -0.052427 -0.009000 0.019763
v -0.052275 -0.009923 0.019724
v -0.051990 -0.010587 0.019587
v -0.050000 0.009000 0.011000
v -0.053000 0.009000 0.014000
v -0.050000 0.012000 0.014000
v -0.050927 0.009000 0.011147
v -0.051763 0.009000 0.011573
v -0.050000 0.009927 0.011147
v -0.050957 0.009952 0.011321
v -0.051722 0.009921 0.011723
v -0.050000 0.010763 0.011573
v -0.050923 0.010724 0.011725
v -0.051587 0.010587 0.012010
v -0.052853 0.009927 0.014000
v -0.052427 0.010763 0.014000
v -0.052853 0.009000 0.013073
v -0.052679 0.009957 0.013048
v -0.052277 0.010722 0.013079
v -0.052427 0.009000 0.012237
v -0.052275 0.009923 0.012276
v -0.051990 0.010587 0.012413
v -0.050000 0.011853 0.013073
v -0.050000 0.011427 0.012237
v -0.050927 0.011853 0.014000
v -0.050952 0.011679 0.013043
v -0.050921 0.011277 0.012278
v -0.051763 0.011427 0.014000
v -0.051724 0.011275 0.013077
v -0.051587 0.010990 0.012413
v -0.050000 0.009000 0.021000
v -0.050000 0.012000 0.018000
v -0.053000 0.009000 0.018000
v -0.050000 0.009927 0.020853
v -0.050000 0.010763 0.020427
v -0.050927 0.009000 0.020853
v -0.050952 0.009957 0.020679
v -0.050921 0.010722 0.020277
v -0.051763 0.009000 0.020427
v -0.051724 0.009923 0.020275
v -0.051587 0.010587 0.019990
v -0.050927 0.011853 0.018000
v -0.051763 0.011427 0.018000
v -0.050000 0.011853 0.018927
v -0.050957 0.011679 0.018952
v -0.051722 0.011277 0.018921
v -0.050000 0.011427 0.019763
v -0.050923 0.011275 0.019724
v -0.051587 0.010990 0.019587
v -0.052853 0.009000 0.018927
v -0.052427 0.009000 0.019763
v -0.052853 0.009927 0.018000
v -0.052679 0.009952 0.018957
v -0.052277 0.009921 0.019722
v -0.052427 0.010763 0.018000
v -0.052275 0.010724 0.018923
v -0.051990 0.010587 0.019587
v -0.042000 -0.009000 0.011000
v -0.039000 -0.009000 0.014000
v -0.042000 -0.012000 0.014000
v -0.041073 -0.009000 0.011147
v -0.040237 -0.009000 0.011573
v -0.042000 -0.009927 0.011147
v -0.041043 -0.009952 0.011321
v -0.040278 -0.009921 0.011723
v -0.042000 -0.010763 0.011573
v -0.041077 -0.010724 0.011725
v -0.040413 -0.010587 0.012010
v -0.039147 -0.009927 0.014000
v -0.039573 -0.010763 0.014000
v -0.039147 -0.009000 0.013073
v -0.039321 -0.009957 0.013048
v -0.039723 -0.010722 0.013079
v -0.039573 -0.009000 0.012237
v -0.039725 -0.009923 0.012276
v -0.040010 -0.010587 0.012413
v -0.042000 -0.011853 0.013073
v -0.042000 -0.011427 0.012237
v -0.041073 -0.011853 0.014000
v -0.041048 -0.011679 0.013043
v -0.041079 -0.011277 0.012278
v -0.040237 -0.011427 0.014000
v -0.040276 -0.011275 0.013077
v -0.040413 -0.010990 0.012413
v -0.042000 -0.009000 0.021000
v -0.042000 -0.012000 0.018000
v -0.039000 -0.009000 0.018000
v -0.042000 -0.009927 0.020853
v -0.042000 -0.010763 0.020427
v -0.041073 -0.009000 0.020853
v -0.041048 -0.009957 0.020679
v -0.041079 -0.010722 0.020277
v -0.040237 -0.009000 0.020427
v -0.040276 -0.009923 0.020275
v -0.040413 -0.010587 0.019990
v -0.041073 -0.011853 0.018000
v -0.040237 -0.011427 0.018000
v -0.042000 -0.011853 0.018927
v -0.041043 -0.011679 0.018952
v -0.040278 -0.011277 0.018921
v -0.042000 -0.011427 0.019763
v -0.041077 -0.011275 0.019724
v -0.040413 -0.010990 0.019587
v -0.039147 -0.009000 0.018927
v -0.039573 -0.009000 0.019763
v -0.039147 -0.009927 0.018000
v -0.039321 -0.009952 0.018957
v -0.039723 -0.009921 0.019722
v -0.039573 -0.010763 0.018000
v -0.039725 -0.010724 0.018923
v -0.040010 -0.010587 0.019587
v -0.042000 0.009000 0.011000
v -0.042000 0.012000 0.014000
v -0.039000 0.009000 0.014000
v -0.042000 0.009927 0.011147
v -0.042000 0.010763 0.011573
v -0.041073 0.009000 0.011147
v -0.041048 0.009957 0.011321
v -0.041079 0.010722 0.011723
v -0.040237 0.009000 0.011573
v -0.040276 0.009923 0.011725
v -0.040413 0.010587 0.012010
v -0.041073 0.011853 0.014000
v -0.040237 0.011427 0.014000
v -0.042000 0.011853 0.013073
v -0.041043 0.011679 0.013048
v -0.040278 0.011277 0.013079
v -0.042000 0.011427 0.012237
v -0.041077 0.011275 0.012276
v -0.040413 0.010990 0.012413
v -0.039147 0.009000 0.013073
v -0.039573 0.009000 0.012237
v -0.039147 0.009927 0.014000
v -0.039321 0.009952 0.013043
v -0.039723 0.009921 0.012278
v -0.039573 0.010763 0.014000
v -0.039725 0.010724 0.013077
v -0.040010 0.010587 0.012413
v -0.042000 0.009000 0.021000
v -0.039000 0.009000 0.018000
v -0.042000 0.012000 0.018000
v -0.041073 0.009000 0.020853
v -0.040237 0.009000 0.020427
v -0.042000 0.009927 0.020853
v -0.041043 0.009952 0.020679
v -0.040278 0.009921 0.020277
v -0.042000 0.010763 0.020427
v -0.041077 0.010724 0.020275
v -0.040413 0.010587 0.019990
v -0.039147 0.009927 0.018000
v -0.039573 0.010763 0.018000
v -0.039147 0.009000 0.018927
v -0.039321 0.009957 0.018952
v -0.039723 0.010722 0.018921
v -0.039573 0.009000 0.019763
v -0.039725 0.009923 0.019724
v -0.040010 0.010587 0.019587
v -0.042000 0.011853 0.018927
v -0.042000 0.011427 0.019763
v -0.041073 0.011853 0.018000
v -0.041048 0.011679 0.018957
v -0.041079 0.011277 0.019722
v -0.040237 0.011427 0.018000
v -0.040276 0.011275 0.018923
v -0.040413 0.010990 0.019587
vn -0.1635 -0.1635 -0.9729
vn -0.1543 -0.4562 -0.8764
vn -0.1450 -0.6997 -0.6996
vn -0.4557 -0.1556 -0.8764
vn -0.4313 -0.4314 -0.7924
vn -0.4090 -0.6449 -0.6456
vn -0.1635 -0.9729 -0.1635
vn -0.4562 -0.8764 -0.1543
vn -0.6997 -0.6996 -0.1450
vn -0.1556 -0.8764 -0.4557
vn -0.4314 -0.7924 -0.4313
vn -0.6449 -0.6456 -0.4090
vn -0.9729 -0.1635 -0.1635
vn -0.8764 -0.1543 -0.4562
vn -0.6996 -0.1450 -0.6997
vn -0.8764 -0.4557 -0.1556
vn -0.7924 -0.4313 -0.4314
vn -0.6456 -0.4090 -0.6449
vn -0.5773 -0.5774 -0.5773
vn -0.1635 -0.9729 0.1635
vn -0.1543 -0.8764 0.4562
vn -0.1450 -0.6996 0.6997
vn -0.4557 -0.8764 0.1556
vn -0.4313 -0.7924 0.4314
vn -0.4090 -0.6456 0.6449
vn -0.1635 -0.1635 0.9729
vn -0.4562 -0.1543 0.8764
vn -0.6997 -0.1450 0.6996
vn -0.1556 -0.4557 0.8764
vn -0.4314 -0.4313 0.7924
vn -0.6449 -0.4090 0.6456
vn -0.9729 -0.1635 0.1635
vn -0.8764 -0.4562 0.1543
vn -0.6996 -0.6997 0.1450
vn -0.8764 -0.1556 0.4557
vn -0.7924 -0.4314 0.4313
vn -0.6456 -0.6449 0.4090
vn -0.5774 -0.5774 0.5773
vn -0.1635 0.1635 -0.9729
vn -0.4562 0.1543 -0.8764
vn -0.6997 0.1450 -0.6996
vn -0.1556 0.4557 -0.8764
vn -0.4314 0.4313 -0.7924
vn -0.6449 0.4090 -0.6456
vn -0.9729 0.1635 -0.1635
vn -0.8764 0.4562 -0.1543
vn -0.6996 0.6997 -0.1450
vn -0.8764 0.1556 -0.4557
vn -0.7924 0.4314 -0.4313
vn -0.6456 0.6449 -0.4090
vn -0.1635 0.9729 -0.1635
vn -0.1543 0.8764 -0.4562
vn -0.1450 0.6996 -0.6997
vn -0.4557 0.8764 -0.1556
vn -0.4313 0.7924 -0.4314
vn -0.4090 0.6456 -0.6449
vn -0.5774 0.5774 -0.5773
vn -0.1635 0.1635 0.9729
vn -0.1543 0.4562 0.8764
vn -0.1450 0.6997 0.6996
vn -0.4557 0.1556 0.8764
vn -0.4313 0.4314 0.7924
vn -0.4090 0.6449 0.6456
vn -0.1635 0.9729 0.1635
vn -0.4562 0.8764 0.1543
vn -0.6997 0.6996 0.1450
vn -0.1556 0.8764 0.4557
vn -0.4314 0.7924 0.4313
vn -0.6449 0.6456 0.4090
vn -0.9729 0.1635 0.1635
vn -0.8764 0.1543 0.4562
vn -0.6996 0.1450 0.6997
vn -0.8764 0.4557 0.1556
vn -0.7924 0.4313 0.4314
vn -0.6456 0.4090 0.6449
vn -0.5773 0.5774 0.5773
vn 0.1635 -0.1635 -0.9729
vn 0.4562 -0.1543 -0.8764
vn 0.6997 -0.1450 -0.6996
vn 0.1556 -0.4557 -0.8764
vn 0.4314 -0.4313 -0.7924
vn 0.6449 -0.4090 -0.6456
vn 0.9729 -0.1635 -0.1635
vn 0.8764 -0.4562 -0.1543
vn 0.6996 -0.6997 -0.1450
vn 0.8764 -0.1556 -0.4557
vn 0.7924 -0.4314 -0.4313
vn 0.6456 -0.6449 -0.4090
vn 0.1635 -0.9729 -0.1635
vn 0.1543 -0.8764 -0.4562
vn 0.1450 -0.6996 -0.6997
vn 0.4557 -0.8764 -0.1556
vn 0.4313 -0.7924 -0.4314
vn 0.4090 -0.6456 -0.6449
vn 0.5774 -0.5774 -0.5773
vn 0.1635 -0.1635 0.9729
vn 0.1543 -0.4562 0.8764
vn 0.1450 -0.6997 0.6996
vn 0.4557 -0.1556 0.8764
vn 0.4313 -0.4314 0.7924
vn 0.4090 -0.6449 0.6456
vn 0.1635 -0.9729 0.1635
vn 0.4562 -0.8764 0.1543
vn 0.6997 -0.6996 0.1450
vn 0.1556 -0.8764 0.4557
vn 0.4314 -0.7924 0.4313
vn 0.6449 -0.6456 0.4090
vn 0.9729 -0.1635 0.1635
vn 0.8764 -0.1543 0.4562
vn 0.6996 -0.1450 0.6997
vn 0.8764 -0.4557 0.1556
vn 0.7924 -0.4313 0.4314
vn 0.6456 -0.4090 0.6449
vn 0.5773 -0.5774 0.5773
vn 0.1635 0.1635 -0.9729
vn 0.1543 0.4562 -0.8764
vn 0.1450 0.6997 -0.6996
vn 0.4557 0.1556 -0.8764
vn 0.4313 0.4314 -0.7924
vn 0.4090 0.6449 -0.6456
vn 0.1635 0.9729 -0.1635
vn 0.4562 0.8764 -0.1543
vn 0.6997 0.6996 -0.1450
vn 0.1556 0.8764 -0.4557
vn 0.4314 0.7924 -0.4313
vn 0.6449 0.6456 -0.4090
vn 0.9729 0.1635 -0.1635
vn 0.8764 0.1543 -0.4562
vn 0.6996 0.1450 -0.6997
vn 0.8764 0.4557 -0.1556
vn 0.7924 0.4313 -0.4314
vn 0.6456 0.4090 -0.6449
vn 0.5773 0.5774 -0.5773
vn 0.1635 0.1635 0.9729
vn 0.4562 0.1543 0.8764
vn 0.6997 0.1450 0.6996
vn 0.1556 0.4557 0.8764
vn 0.4314 0.4313 0.7924
vn 0.6449 0.4090 0.6456
vn 0.9729 0.1635 0.1635
vn 0.8764 0.4562 0.1543
vn 0.6996 0.6997 0.1450
vn 0.8764 0.1556 0.4557
vn 0.7924 0.4314 0.4313
vn 0.6456 0.6449 0.4090
vn 0.1635 0.9729 0.1635
vn 0.1543 0.8764 0.4562
vn 0.1450 0.6996 0.6997
vn 0.4557 0.8764 0.1556
vn 0.4313 0.7924 0.4314
vn 0.4090 0.6456 0.6449
vn 0.5774 0.5774 0.5773
vn -0.1565 -0.0000 -0.9877
vn -0.4540 -0.0000 -0.8910
vn -0.7071 -0.0000 -0.7071
vn -0.8910 -0.0000 -0.4540
vn -0.9877 -0.0000 -0.1565
vn -0.1565 -0.9877 -0.0000
vn -0.4540 -0.8910 -0.0000
vn -0.7071 -0.7071 -0.0000
vn -0.8910 -0.4540 -0.0000
vn -0.9877 -0.1565 -0.0000
vn -0.1565 -0.0000 0.9877
vn -0.4540 -0.0000 0.8910
vn -0.7071 -0.0000 0.7071
vn -0.8910 -0.0000 0.4540
vn -0.9877 -0.0000 0.1565
vn -0.1565 0.9877 -0.0000
vn -0.4540 0.8910 -0.0000
vn -0.7071 0.7071 -0.0000
vn -0.8910 0.4540 -0.0000
vn -0.9877 0.1565 -0.0000
vn -0.0000 0.1565 -0.9877
vn -0.0000 0.4540 -0.8910
vn -0.0000 0.7071 -0.7071
vn -0.0000 0.8910 -0.4540
vn -0.0000 0.9877 -0.1565
vn -0.0000 0.1565 0.9877
vn -0.0000 0.4540 0.8910
vn -0.0000 0.7071 0.7071
vn -0.0000 0.8910 0.4540
vn -0.0000 0.9877 0.1565
vn 0.9877 0.1565 -0.0000
vn 0.8910 0.4540 -0.0000
vn 0.7071 0.7071 -0.0000
vn 0.4540 0.8910 -0.0000
vn 0.1565 0.9877 -0.0000
vn 0.1565 -0.0000 -0.9877
vn 0.4540 -0.0000 -0.8910
vn 0.7071 -0.0000 -0.7071
vn 0.8910 -0.0000 -0.4540
vn 0.9877 -0.0000 -0.1565
vn 0.1565 -0.0000 0.9877
vn 0.4540 -0.0000 0.8910
vn 0.7071 -0.0000 0.7071
vn 0.8910 -0.0000 0.4540
vn 0.9877 -0.0000 0.1565
vn 0.1565 -0.9877 -0.0000
vn 0.4540 -0.8910 -0.0000
vn 0.7071 -0.7071 -0.0000
vn 0.8910 -0.4540 -0.0000
vn 0.9877 -0.1565 -0.0000
vn -0.0000 -0.1565 -0.9877
vn -0.0000 -0.4540 -0.8910
vn -0.0000 -0.7071 -0.7071
vn -0.0000 -0.8910 -0.4540
vn -0.0000 -0.9877 -0.1565
vn -0.0000 -0.1565 0.9877
vn -0.0000 -0.4540 0.8910
vn -0.0000 -0.7071 0.7071
vn -0.0000 -0.8910 0.4540
vn -0.0000 -0.9877 0.1565
vn -0.0000 -0.0000 -1.0000
vn -1.0000 -0.0000 -0.0000
vn -0.0000 -1.0000 -0.0000
vn -0.0000 -0.0000 1.0000
vn -0.0000 1.0000 -0.0000
vn 1.0000 -0.0000 -0.0000
vt 0.178571 0.718750
vt 0.178571 0.728409
vt 0.161575 0.728720
vt 0.162014 0.718750
vt 0.178571 0.737115
vt 0.162129 0.736692
vt 0.178571 0.750000
vt 0.162086 0.750000
vt 0.147786 0.728366
vt 0.147088 0.718750
vt 0.150226 0.735285
vt 0.150226 0.750000
vt 0.450000 0.946429
vt 0.450000 0.962986
vt 0.426205 0.963521
vt 0.426819 0.946429
vt 0.450000 1.000000
vt 0.426980 1.000000
vt 0.450000 0.000000
vt 0.450000 0.012885
vt 0.426921 0.013292
vt 0.426980 0.000000
vt 0.375000 0.962914
vt 0.375000 0.946429
vt 0.375000 0.974774
vt 0.375000 0.014715
vt 0.375000 0.000000
vt 0.450000 0.031250
vt 0.426819 0.031250
vt 0.426071 0.021335
vt 0.450000 0.021591
vt 0.375000 0.031250
vt 0.375000 0.021659
vt 0.125000 0.718750
vt 0.125000 0.728342
vt 0.125000 0.735285
vt 0.550000 0.946429
vt 0.573181 0.946429
vt 0.573929 0.963425
vt 0.550000 0.962986
vt 0.594077 0.946429
vt 0.593061 0.962871
vt 0.625000 0.946429
vt 0.625000 0.962914
vt 0.573079 1.000000
vt 0.550000 1.000000
vt 0.589684 0.974774
vt 0.625000 0.974774
vt 0.821429 0.718750
vt 0.837986 0.718750
vt 0.838521 0.728665
vt 0.821429 0.728409
vt 0.875000 0.718750
vt 0.875000 0.728341
vt 0.625000 0.031250
vt 0.594077 0.031250
vt 0.593099 0.021634
vt 0.625000 0.021659
vt 0.837914 0.750000
vt 0.821429 0.750000
vt 0.849774 0.750000
vt 0.589684 0.014715
vt 0.625000 0.000000
vt 0.550000 0.031250
vt 0.550000 0.021591
vt 0.573795 0.021280
vt 0.573181 0.031250
vt 0.550000 0.012885
vt 0.573020 0.013308
vt 0.550000 0.000000
vt 0.573079 0.000000
vt 0.589684 0.010520
vt 0.589684 0.981967
vt 0.178571 0.531250
vt 0.162014 0.531250
vt 0.161479 0.521335
vt 0.178571 0.521591
vt 0.147088 0.531250
vt 0.147814 0.521659
vt 0.125000 0.531250
vt 0.125000 0.521634
vt 0.162086 0.513292
vt 0.178571 0.512885
vt 0.150226 0.514715
vt 0.125000 0.514715
vt 0.450000 0.218750
vt 0.450000 0.228409
vt 0.426205 0.228720
vt 0.426819 0.218750
vt 0.450000 0.237115
vt 0.426980 0.236692
vt 0.450000 0.272088
vt 0.426921 0.272786
vt 0.375000 0.228366
vt 0.375000 0.218750
vt 0.375000 0.235285
vt 0.375000 0.275226
vt 0.450000 0.303571
vt 0.426819 0.303571
vt 0.426071 0.286575
vt 0.450000 0.287014
vt 0.375000 0.303571
vt 0.375000 0.287129
vt 0.178571 0.500000
vt 0.162129 0.500000
vt 0.150226 0.500000
vt 0.821429 0.531250
vt 0.821429 0.521591
vt 0.838425 0.521280
vt 0.837986 0.531250
vt 0.821429 0.500000
vt 0.837871 0.500000
vt 0.625000 0.303571
vt 0.594077 0.303571
vt 0.593099 0.287086
vt 0.625000 0.287129
vt 0.875000 0.521634
vt 0.875000 0.531250
vt 0.849774 0.500000
vt 0.589684 0.275226
vt 0.625000 0.266817
vt 0.550000 0.303571
vt 0.550000 0.287014
vt 0.573795 0.286479
vt 0.573181 0.303571
vt 0.550000 0.272088
vt 0.573020 0.272814
vt 0.550000 0.237115
vt 0.573079 0.236708
vt 0.589684 0.243472
vt 0.550000 0.218750
vt 0.573181 0.218750
vt 0.573929 0.228665
vt 0.550000 0.228409
vt 0.594076 0.218750
vt 0.593061 0.228341
vt 0.625000 0.218750
vt 0.625000 0.228366
vt 0.321429 0.718750
vt 0.337986 0.718750
vt 0.338521 0.728665
vt 0.321429 0.728409
vt 0.352912 0.718750
vt 0.352186 0.728342
vt 0.405923 0.718750
vt 0.406901 0.728366
vt 0.337914 0.736708
vt 0.321429 0.737115
vt 0.349774 0.735285
vt 0.396979 0.735285
vt 0.450000 0.718750
vt 0.450000 0.728409
vt 0.426205 0.728720
vt 0.426819 0.718750
vt 0.450000 0.737115
vt 0.426980 0.736692
vt 0.450000 0.772088
vt 0.426921 0.772786
vt 0.362387 0.762613
vt 0.450000 0.803571
vt 0.426819 0.803571
vt 0.426071 0.786575
vt 0.450000 0.787014
vt 0.348214 0.776786
vt 0.356436 0.768564
vt 0.678571 0.718750
vt 0.678571 0.728409
vt 0.661575 0.728720
vt 0.662014 0.718750
vt 0.651786 0.776786
vt 0.643564 0.768564
vt 0.594077 0.803571
vt 0.593099 0.787086
vt 0.647786 0.728366
vt 0.647088 0.718750
vt 0.637613 0.762613
vt 0.589684 0.775226
vt 0.550000 0.803571
vt 0.550000 0.787014
vt 0.573795 0.786479
vt 0.573181 0.803571
vt 0.550000 0.772088
vt 0.573020 0.772814
vt 0.550000 0.737115
vt 0.573079 0.736708
vt 0.589684 0.743472
vt 0.550000 0.718750
vt 0.573181 0.718750
vt 0.573929 0.728665
vt 0.550000 0.728409
vt 0.594076 0.718750
vt 0.593061 0.728341
vt 0.321429 0.531250
vt 0.321429 0.521591
vt 0.338425 0.521280
vt 0.337986 0.531250
vt 0.321429 0.512885
vt 0.337871 0.513308
vt 0.348214 0.473214
vt 0.356457 0.481457
vt 0.352214 0.521634
vt 0.352912 0.531250
vt 0.349774 0.514715
vt 0.362387 0.487387
vt 0.450000 0.446429
vt 0.450000 0.462986
vt 0.426205 0.463521
vt 0.426819 0.446429
vt 0.450000 0.477912
vt 0.426980 0.477186
vt 0.450000 0.512885
vt 0.426921 0.513292
vt 0.396979 0.514715
vt 0.450000 0.531250
vt 0.426819 0.531250
vt 0.426071 0.521335
vt 0.450000 0.521591
vt 0.405923 0.531250
vt 0.406939 0.521659
vt 0.678571 0.531250
vt 0.662014 0.531250
vt 0.661479 0.521335
vt 0.678571 0.521591
vt 0.647088 0.531250
vt 0.647814 0.521659
vt 0.594077 0.531250
vt 0.593099 0.521634
vt 0.643543 0.481457
vt 0.651786 0.473214
vt 0.624989 0.504730
vt 0.589684 0.514715
vt 0.550000 0.531250
vt 0.550000 0.521591
vt 0.573795 0.521280
vt 0.573181 0.531250
vt 0.550000 0.512885
vt 0.573020 0.513308
vt 0.550000 0.477912
vt 0.573079 0.477214
vt 0.589684 0.483711
vt 0.550000 0.446429
vt 0.573181 0.446429
vt 0.573929 0.463425
vt 0.550000 0.462986
vt 0.594077 0.446429
vt 0.593061 0.462871
s 0
usemtl tt_grey
f 129/265/129 132/266/129 135/267/129 134/268/129
f 132/266/130 133/269/130 136/270/130 135/267/130
f 133/269/131 145/271/131 146/272/131 136/270/131
f 134/268/132 135/267/132 138/273/132 137/274/132
f 135/267/133 136/270/133 139/275/133 138/273/133
f 136/270/134 146/272/134 147/276/134 139/275/134
f 130/277/135 140/278/135 143/279/135 142/280/135
f 140/278/136 141/281/136 144/282/136 143/279/136
f 141/283/137 153/284/137 154/285/137 144/286/137
f 142/280/138 143/279/138 146/287/138 145/288/138
f 143/279/139 144/282/139 147/289/139 146/287/139
f 144/286/140 154/285/140 155/290/140 147/291/140
f 131/292/141 148/293/141 151/294/141 150/295/141
f 148/293/142 149/296/142 152/297/142 151/294/142
f 149/298/143 137/274/143 138/273/143 152/299/143
f 150/295/144 151/294/144 154/285/144 153/284/144
f 151/294/145 152/297/145 155/290/145 154/285/145
f 152/299/146 138/273/146 139/275/146 155/300/146
f 139/275/147 147/276/147 155/300/147
f 156/301/148 159/302/148 162/303/148 161/304/148
f 159/302/149 160/305/149 163/306/149 162/303/149
f 160/305/150 172/307/150 173/308/150 163/306/150
f 161/304/151 162/303/151 165/309/151 164/310/151
f 162/303/152 163/306/152 166/311/152 165/309/152
f 163/306/153 173/308/153 174/312/153 166/311/153
f 157/313/154 167/314/154 170/315/154 169/316/154
f 167/314/155 168/317/155 171/318/155 170/315/155
f 168/319/156 180/320/156 181/321/156 171/322/156
f 169/316/157 170/315/157 173/323/157 172/324/157
f 170/315/158 171/318/158 174/325/158 173/323/158
f 171/322/159 181/321/159 182/326/159 174/327/159
f 158/328/160 175/329/160 178/330/160 177/331/160
f 175/329/161 176/332/161 179/333/161 178/330/161
f 176/332/162 164/334/162 165/335/162 179/333/162
f 177/331/163 178/330/163 181/321/163 180/320/163
f 178/330/164 179/333/164 182/326/164 181/321/164
f 179/333/165 165/335/165 166/336/165 182/326/165
f 166/311/166 174/312/166 182/337/166
f 183/338/167 186/339/167 189/340/167 188/341/167
f 186/339/168 187/342/168 190/343/168 189/340/168
f 187/342/169 199/344/169 200/345/169 190/343/169
f 188/341/170 189/340/170 192/346/170 191/347/170
f 189/340/171 190/343/171 193/348/171 192/346/171
f 190/343/172 200/345/172 201/349/172 193/348/172
f 184/350/173 194/351/173 197/352/173 196/353/173
f 194/351/174 195/354/174 198/355/174 197/352/174
f 195/354/175 207/356/175 208/357/175 198/355/175
f 196/353/176 197/352/176 200/358/176 199/359/176
f 197/352/177 198/355/177 201/360/177 200/358/177
f 198/355/178 208/357/178 209/361/178 201/360/178
f 185/362/179 202/363/179 205/364/179 204/365/179
f 202/363/180 203/366/180 206/367/180 205/364/180
f 203/368/181 191/347/181 192/346/181 206/369/181
f 204/365/182 205/364/182 208/357/182 207/356/182
f 205/364/183 206/367/183 209/361/183 208/357/183
f 206/369/184 192/346/184 193/348/184 209/370/184
f 193/348/185 201/349/185 209/370/185
f 210/371/186 213/372/186 216/373/186 215/374/186
f 213/372/187 214/375/187 217/376/187 216/373/187
f 214/377/188 226/378/188 227/379/188 217/380/188
f 215/374/189 216/373/189 219/381/189 218/382/189
f 216/373/190 217/376/190 220/383/190 219/381/190
f 217/380/191 227/379/191 228/384/191 220/385/191
f 211/386/192 221/387/192 224/388/192 223/389/192
f 221/387/193 222/390/193 225/391/193 224/388/193
f 222/390/194 234/392/194 235/393/194 225/391/194
f 223/389/195 224/388/195 227/379/195 226/378/195
f 224/388/196 225/391/196 228/384/196 227/379/196
f 225/391/197 235/393/197 236/394/197 228/384/197
f 212/395/198 229/396/198 232/397/198 231/398/198
f 229/396/199 230/399/199 233/400/199 232/397/199
f 230/399/200 218/401/200 219/402/200 233/400/200
f 231/398/201 232/397/201 235/393/201 234/392/201
f 232/397/202 233/400/202 236/394/202 235/393/202
f 233/400/203 219/402/203 220/385/203 236/394/203
f 220/385/204 228/384/204 236/394/204
f 237/403/205 240/404/205 243/405/205 242/406/205
f 240/404/206 241/407/206 244/408/206 243/405/206
f 241/407/207 253/409/207 254/410/207 244/408/207
f 242/406/208 243/405/208 246/411/208 245/412/208
f 243/405/209 244/408/209 247/413/209 246/411/209
f 244/408/210 254/410/210 255/414/210 247/413/210
f 238/415/211 248/416/211 251/417/211 250/418/211
f 248/416/212 249/419/212 252/420/212 251/417/212
f 249/419/213 261/421/213 262/422/213 252/420/213
f 250/418/214 251/417/214 254/410/214 253/409/214
f 251/417/215 252/420/215 255/414/215 254/410/215
f 252/420/216 262/422/216 263/423/216 255/414/216
f 239/424/217 256/425/217 259/426/217 258/427/217
f 256/425/218 257/428/218 260/429/218 259/426/218
f 257/428/219 245/412/219 246/411/219 260/429/219
f 258/427/220 259/426/220 262/422/220 261/421/220
f 259/426/221 260/429/221 263/423/221 262/422/221
f 260/429/222 246/411/222 247/413/222 263/423/222
f 247/413/223 255/414/223 263/423/223
f 264/430/224 267/431/224 270/432/224 269/433/224
f 267/431/225 268/434/225 271/435/225 270/432/225
f 268/434/226 280/436/226 281/437/226 271/435/226
f 269/433/227 270/432/227 273/438/227 272/439/227
f 270/432/228 271/435/228 274/440/228 273/438/228
f 271/435/229 281/437/229 282/441/229 274/440/229
f 265/442/230 275/443/230 278/444/230 277/445/230
f 275/443/231 276/446/231 279/447/231 278/444/231
f 276/446/232 288/448/232 289/449/232 279/447/232
f 277/445/233 278/444/233 281/437/233 280/436/233
f 278/444/234 279/447/234 282/441/234 281/437/234
f 279/447/235 289/449/235 290/450/235 282/441/235
f 266/451/236 283/452/236 286/453/236 285/454/236
f 283/452/237 284/455/237 287/456/237 286/453/237
f 284/455/238 272/439/238 273/438/238 287/456/238
f 285/454/239 286/453/239 289/449/239 288/448/239
f 286/453/240 287/456/240 290/450/240 289/449/240
f 287/456/241 273/438/241 274/440/241 290/450/241
f 274/440/242 282/441/242 290/450/242
f 291/457/243 294/458/243 297/459/243 296/460/243
f 294/458/244 295/461/244 298/462/244 297/459/244
f 295/461/245 307/463/245 308/464/245 298/462/245
f 296/460/246 297/459/246 300/465/246 299/466/246
f 297/459/247 298/462/247 301/467/247 300/465/247
f 298/462/248 308/464/248 309/468/248 301/467/248
f 292/469/249 302/470/249 305/471/249 304/472/249
f 302/470/250 303/473/250 306/474/250 305/471/250
f 303/473/251 315/475/251 316/476/251 306/474/251
f 304/472/252 305/471/252 308/464/252 307/463/252
f 305/471/253 306/474/253 309/468/253 308/464/253
f 306/474/254 316/476/254 317/477/254 309/468/254
f 293/478/255 310/479/255 313/480/255 312/481/255
f 310/479/256 311/482/256 314/483/256 313/480/256
f 311/482/257 299/466/257 300/465/257 314/483/257
f 312/481/258 313/480/258 316/476/258 315/475/258
f 313/480/259 314/483/259 317/477/259 316/476/259
f 314/483/260 300/465/260 301/467/260 317/477/260
f 301/467/261 309/468/261 317/477/261
f 318/484/262 321/485/262 324/486/262 323/487/262
f 321/485/263 322/488/263 325/489/263 324/486/263
f 322/488/264 334/490/264 335/491/264 325/489/264
f 323/487/265 324/486/265 327/492/265 326/493/265
f 324/486/266 325/489/266 328/494/266 327/492/266
f 325/489/267 335/491/267 336/495/267 328/494/267
f 319/496/268 329/497/268 332/498/268 331/499/268
f 329/497/269 330/500/269 333/501/269 332/498/269
f 330/500/270 342/502/270 343/503/270 333/501/270
f 331/499/271 332/498/271 335/491/271 334/490/271
f 332/498/272 333/501/272 336/495/272 335/491/272
f 333/501/273 343/503/273 344/504/273 336/495/273
f 320/505/274 337/506/274 340/507/274 339/508/274
f 337/506/275 338/509/275 341/510/275 340/507/275
f 338/509/276 326/493/276 327/492/276 341/510/276
f 339/508/277 340/507/277 343/503/277 342/502/277
f 340/507/278 341/510/278 344/504/278 343/503/278
f 341/510/279 327/492/279 328/494/279 344/504/279
f 328/494/280 336/495/280 344/504/280
f 183/338/281 129/265/281 134/268/281 186/339/281
f 186/339/282 134/268/282 137/274/282 187/342/282
f 187/342/283 137/274/283 149/298/283 199/344/283
f 199/359/284 149/296/284 148/293/284 196/353/284
f 196/353/285 148/293/285 131/292/285 184/350/285
f 130/277/286 156/301/286 161/304/286 140/278/286
f 140/278/287 161/304/287 164/310/287 141/281/287
f 141/283/288 164/334/288 176/332/288 153/284/288
f 153/284/289 176/332/289 175/329/289 150/295/289
f 150/295/290 175/329/290 158/328/290 131/292/290
f 157/313/291 210/371/291 215/374/291 167/314/291
f 167/314/292 215/374/292 218/382/292 168/317/292
f 168/319/293 218/401/293 230/399/293 180/320/293
f 180/320/294 230/399/294 229/396/294 177/331/294
f 177/331/295 229/396/295 212/395/295 158/328/295
f 211/386/296 185/362/296 204/365/296 221/387/296
f 221/387/297 204/365/297 207/356/297 222/390/297
f 222/390/298 207/356/298 195/354/298 234/392/298
f 234/392/299 195/354/299 194/351/299 231/398/299
f 231/398/300 194/351/300 184/350/300 212/395/300
f 291/457/301 183/338/301 188/341/301 294/458/301
f 294/458/302 188/341/302 191/347/302 295/461/302
f 295/461/303 191/347/303 203/368/303 307/463/303
f 307/463/304 203/366/304 202/363/304 304/472/304
f 304/472/305 202/363/305 185/362/305 292/469/305
f 210/371/306 318/484/306 323/487/306 213/372/306
f 213/372/307 323/487/307 326/493/307 214/375/307
f 214/377/308 326/493/308 338/509/308 226/378/308
f 226/378/309 338/509/309 337/506/309 223/389/309
f 223/389/310 337/506/310 320/505/310 211/386/310
f 319/496/311 293/478/311 312/481/311 329/497/311
f 329/497/312 312/481/312 315/475/312 330/500/312
f 330/500/313 315/475/313 303/473/313 342/502/313
f 342/502/314 303/473/314 302/470/314 339/508/314
f 339/508/315 302/470/315 292/469/315 320/505/315
f 237/403/316 291/457/316 296/460/316 240/404/316
f 240/404/317 296/460/317 299/466/317 241/407/317
f 241/407/318 299/466/318 311/482/318 253/409/318
f 253/409/319 311/482/319 310/479/319 250/418/319
f 250/418/320 310/479/320 293/478/320 238/415/320
f 318/484/321 264/430/321 269/433/321 321/485/321
f 321/485/322 269/433/322 272/439/322 322/488/322
f 322/488/323 272/439/323 284/455/323 334/490/323
f 334/490/324 284/455/324 283/452/324 331/499/324
f 331/499/325 283/452/325 266/451/325 319/496/325
f 265/442/326 239/424/326 258/427/326 275/443/326
f 275/443/327 258/427/327 261/421/327 276/446/327
f 276/446/328 261/421/328 249/419/328 288/448/328
f 288/448/329 249/419/329 248/416/329 285/454/329
f 285/454/330 248/416/330 238/415/330 266/451/330
f 129/265/331 237/403/331 242/406/331 132/266/331
f 132/266/332 242/406/332 245/412/332 133/269/332
f 133/269/333 245/412/333 257/428/333 145/271/333
f 145/288/334 257/428/334 256/425/334 142/280/334
f 142/280/335 256/425/335 239/424/335 130/277/335
f 264/430/336 157/313/336 169/316/336 267/431/336
f 267/431/337 169/316/337 172/324/337 268/434/337
f 268/434/338 172/307/338 160/305/338 280/436/338
f 280/436/339 160/305/339 159/302/339 277/445/339
f 277/445/340 159/302/340 156/301/340 265/442/340
f 183/338/341 291/457/341 237/403/341 129/265/341
f 131/292/342 158/328/342 212/395/342 184/350/342
f 239/424/343 265/442/343 156/301/343 130/277/343
f 318/484/344 210/371/344 157/313/344 264/430/344
f 185/362/345 211/386/345 320/505/345 292/469/345
f 293/478/346 319/496/346 266/451/346 238/415/346
