mtllib fence_post.mtl
usemtl fence_post
# Blender 5.1.1
# www.blender.org
o fence_post
v 0.000000 0.029999 0.000000
v -0.017633 0.024269 0.000000
v -0.028532 0.009270 0.000000
v -0.028532 -0.009270 0.000000
v -0.017633 -0.024269 0.000000
v 0.000000 -0.029999 0.000000
v 0.017633 -0.024269 0.000000
v 0.028532 -0.009270 0.000000
v 0.028532 0.009270 0.000000
v 0.017633 0.024269 0.000000
v 0.000000 0.029999 2.699999
v -0.017633 0.024269 2.699999
v -0.028532 0.009270 2.699999
v -0.028532 -0.009270 2.699999
v -0.017633 -0.024269 2.699999
v 0.000000 -0.029999 2.699999
v 0.017633 -0.024269 2.699999
v 0.028532 -0.009270 2.699999
v 0.028532 0.009270 2.699999
v 0.017633 0.024269 2.699999
v 0.000000 0.032001 2.697001
v -0.018808 0.025890 2.697001
v -0.030434 0.009888 2.697001
v -0.030434 -0.009888 2.697001
v -0.018808 -0.025890 2.697001
v 0.000000 -0.032001 2.697001
v 0.018808 -0.025890 2.697001
v 0.030434 -0.009888 2.697001
v 0.030434 0.009888 2.697001
v 0.018808 0.025890 2.697001
v 0.000000 0.032001 2.716999
v -0.018808 0.025890 2.716999
v -0.030434 0.009888 2.716999
v -0.030434 -0.009888 2.716999
v -0.018808 -0.025890 2.716999
v 0.000000 -0.032001 2.716999
v 0.018808 -0.025890 2.716999
v 0.030434 -0.009888 2.716999
v 0.030434 0.009888 2.716999
v 0.018808 0.025890 2.716999
vn -0.0000 0.7653 -0.6437
vn -0.4498 0.6191 -0.6437
vn -0.7278 0.2365 -0.6437
vn -0.7278 -0.2365 -0.6437
vn -0.4498 -0.6191 -0.6437
vn -0.0000 -0.7653 -0.6437
vn 0.4498 -0.6191 -0.6437
vn 0.7278 -0.2365 -0.6437
vn 0.7278 0.2365 -0.6437
vn 0.4498 0.6191 -0.6437
vn -0.0000 0.7653 0.6437
vn -0.4498 0.6191 0.6437
vn -0.7278 0.2365 0.6437
vn -0.7278 -0.2365 0.6437
vn -0.4498 -0.6191 0.6437
vn -0.0000 -0.7653 0.6437
vn 0.4498 -0.6191 0.6437
vn 0.7278 -0.2365 0.6437
vn 0.7278 0.2365 0.6437
vn 0.4498 0.6191 0.6437
vt 0.042125 0.999875
vt 0.048990 0.000125
vt 0.048990 0.999875
vt 0.036570 0.999875
vt 0.042125 0.000125
vt 0.012544 0.999875
vt 0.018098 0.000125
vt 0.018098 0.999875
vt 0.005679 0.999875
vt 0.012544 0.000125
vt 0.000125 0.999875
vt 0.005679 0.000125
vt 0.054794 0.999875
vt 0.061659 0.000125
vt 0.061659 0.999875
vt 0.049240 0.999875
vt 0.054794 0.000125
vt 0.030767 0.999875
vt 0.036321 0.000125
vt 0.036321 0.999875
vt 0.023902 0.999875
vt 0.030767 0.000125
vt 0.018348 0.999875
vt 0.023902 0.000125
vt 0.083038 0.055697
vt 0.079003 0.068116
vt 0.065944 0.068115
vt 0.079003 0.072608
vt 0.083038 0.085028
vt 0.072473 0.092702
vt 0.069314 0.106199
vt 0.061909 0.098876
vt 0.069314 0.098876
vt 0.069314 0.112124
vt 0.061909 0.106199
vt 0.069314 0.137719
vt 0.061909 0.131795
vt 0.069314 0.131795
vt 0.069314 0.145043
vt 0.061909 0.137719
vt 0.069314 0.118298
vt 0.061909 0.112374
vt 0.069314 0.112374
vt 0.069314 0.125621
vt 0.061909 0.118298
vt 0.069314 0.131546
vt 0.061909 0.125621
vt 0.069314 0.151217
vt 0.061909 0.145293
vt 0.069314 0.145293
vt 0.069314 0.158541
vt 0.061909 0.151217
vt 0.061909 0.092952
vt 0.069314 0.092952
vt 0.061909 0.008313
vt 0.073178 0.000125
vt 0.080143 0.021559
vt 0.066213 0.026337
vt 0.080142 0.026336
vt 0.084447 0.039583
vt 0.036570 0.000125
vt 0.000125 0.000125
vt 0.049240 0.000125
vt 0.018348 0.000125
vt 0.061909 0.062561
vt 0.072474 0.048021
vt 0.061909 0.055696
vt 0.065944 0.050142
vt 0.079003 0.050143
vt 0.083038 0.062563
vt 0.072473 0.070237
vt 0.065944 0.090581
vt 0.061909 0.085026
vt 0.061909 0.078161
vt 0.065944 0.072608
vt 0.072474 0.070487
vt 0.083038 0.078163
vt 0.079003 0.090581
vt 0.061909 0.112124
vt 0.061909 0.145043
vt 0.061909 0.131546
vt 0.061909 0.158541
vt 0.066213 0.021561
vt 0.061909 0.015637
vt 0.066213 0.002389
vt 0.080142 0.002387
vt 0.084447 0.008311
vt 0.084447 0.015635
vt 0.073178 0.023823
vt 0.073178 0.047772
vt 0.066213 0.045509
vt 0.061909 0.039585
vt 0.061909 0.032261
vt 0.073178 0.024073
vt 0.084447 0.032259
vt 0.080143 0.045508
s 1
f 2/1/2 11/2/11 1/3/1
f 3/4/3 12/5/12 2/1/2
f 4/6/4 13/7/13 3/8/3
f 5/9/5 14/10/14 4/6/4
f 6/11/6 15/12/15 5/9/5
f 7/13/7 16/14/16 6/15/6
f 8/16/8 17/17/17 7/13/7
f 9/18/9 18/19/18 8/20/8
f 10/21/10 19/22/19 9/18/9
f 1/23/1 20/24/20 10/21/10
f 5/25/5 3/26/3 1/27/1
f 16/28/16 18/29/18 20/30/20
f 22/31/2 31/32/11 21/33/1
f 23/34/3 32/35/12 22/31/2
f 24/36/4 33/37/13 23/38/3
f 25/39/5 34/40/14 24/36/4
f 26/41/6 35/42/15 25/43/5
f 27/44/7 36/45/16 26/41/6
f 28/46/8 37/47/17 27/44/7
f 29/48/9 38/49/18 28/50/8
f 30/51/10 39/52/19 29/48/9
f 21/33/1 40/53/20 30/54/10
f 29/55/9 27/56/7 23/57/3
f 34/58/14 36/59/16 38/60/18
f 2/1/2 12/5/12 11/2/11
f 3/4/3 13/61/13 12/5/12
f 4/6/4 14/10/14 13/7/13
f 5/9/5 15/12/15 14/10/14
f 6/11/6 16/62/16 15/12/15
f 7/13/7 17/17/17 16/14/16
f 8/16/8 18/63/18 17/17/17
f 9/18/9 19/22/19 18/19/18
f 10/21/10 20/24/20 19/22/19
f 1/23/1 11/64/11 20/24/20
f 1/27/1 10/65/10 7/66/7
f 10/65/10 9/67/9 7/66/7
f 9/67/9 8/68/8 7/66/7
f 7/66/7 6/69/6 5/25/5
f 5/25/5 4/70/4 3/26/3
f 3/26/3 2/71/2 1/27/1
f 7/66/7 5/25/5 1/27/1
f 20/30/20 11/72/11 12/73/12
f 12/73/12 13/74/13 14/75/14
f 14/75/14 15/76/15 16/28/16
f 16/28/16 17/77/17 18/29/18
f 18/29/18 19/78/19 20/30/20
f 20/30/20 12/73/12 14/75/14
f 14/75/14 16/28/16 20/30/20
f 22/31/2 32/35/12 31/32/11
f 23/34/3 33/79/13 32/35/12
f 24/36/4 34/40/14 33/37/13
f 25/39/5 35/80/15 34/40/14
f 26/41/6 36/45/16 35/42/15
f 27/44/7 37/47/17 36/45/16
f 28/46/8 38/81/18 37/47/17
f 29/48/9 39/52/19 38/49/18
f 30/51/10 40/82/20 39/52/19
f 21/33/1 31/32/11 40/53/20
f 21/83/1 30/84/10 29/55/9
f 29/55/9 28/85/8 27/56/7
f 27/56/7 26/86/6 25/87/5
f 25/87/5 24/88/4 27/56/7
f 24/88/4 23/57/3 27/56/7
f 23/57/3 22/89/2 21/83/1
f 21/83/1 29/55/9 23/57/3
f 40/90/20 31/91/11 32/92/12
f 32/92/12 33/93/13 40/90/20
f 33/93/13 34/58/14 40/90/20
f 34/58/14 35/94/15 36/59/16
f 36/59/16 37/95/17 38/60/18
f 38/60/18 39/96/19 34/58/14
f 39/96/19 40/90/20 34/58/14
