mtllib pile.mtl
usemtl pile
# Blender 5.1.1
# www.blender.org
o pile
v -0.013504 0.013695 -2.733240
v -0.013153 0.013351 -2.733318
v -0.013260 0.013599 -2.733273
v -0.091654 0.011856 -2.727934
v -0.091318 0.012211 -2.727903
v -0.091558 0.012104 -2.727903
v -0.090546 -0.027782 -2.734152
v -0.090897 -0.027439 -2.734074
v -0.090792 -0.027683 -2.734118
v -0.088444 -0.027390 -2.734241
v -0.088779 -0.027748 -2.734272
v -0.088539 -0.027641 -2.734272
v -0.088816 0.009758 -2.728462
v -0.089153 0.009403 -2.728493
v -0.089056 0.009651 -2.728460
v -0.015909 0.011150 -2.733461
v -0.015558 0.010807 -2.733540
v -0.015663 0.011051 -2.733494
v -0.014498 -0.026329 -2.739367
v -0.014849 -0.025986 -2.739288
v -0.014744 -0.026234 -2.739334
v -0.012396 -0.025940 -2.739456
v -0.012733 -0.026295 -2.739487
v -0.012491 -0.026188 -2.739489
v 0.090958 0.027439 -0.003298
v 0.090607 0.027786 -0.003284
v 0.090626 0.027439 -0.002935
v 0.090853 0.027687 -0.003294
v 0.090815 0.027641 -0.003090
v 0.090618 0.027683 -0.003038
v 0.090866 0.027439 -0.003046
v 0.012781 0.026615 -0.000374
v 0.012444 0.026260 -0.000362
v 0.012800 0.026268 -0.000025
v 0.012541 0.026508 -0.000366
v 0.012592 0.026466 -0.000166
v 0.012552 0.026264 -0.000118
v 0.012791 0.026512 -0.000128
v 0.013136 -0.012955 -0.000338
v 0.013485 -0.013302 -0.000349
v 0.013493 -0.012947 0.000000
v 0.013241 -0.013203 -0.000340
v 0.013292 -0.013153 -0.000139
v 0.013493 -0.013195 -0.000103
v 0.013247 -0.012951 -0.000093
v 0.015251 -0.013275 -0.000416
v 0.015589 -0.012920 -0.000429
v 0.015259 -0.012920 -0.000065
v 0.015493 -0.013168 -0.000425
v 0.015455 -0.013123 -0.000221
v 0.015497 -0.012920 -0.000177
v 0.015261 -0.013168 -0.000168
v 0.015280 0.024155 -0.000465
v 0.014599 0.024498 -0.000090
v 0.014942 0.023800 -0.000452
v 0.014942 0.024254 -0.000204
v 0.014944 0.024151 -0.000250
v 0.014845 0.024151 -0.000200
v 0.015039 0.024052 -0.000456
v 0.088200 0.025253 -0.003191
v 0.088551 0.024910 -0.003204
v 0.088894 0.025616 -0.002867
v 0.088444 0.025154 -0.003201
v 0.088551 0.025261 -0.003002
v 0.088654 0.025261 -0.002960
v 0.088551 0.025364 -0.002956
v 0.089201 -0.011818 -0.003178
v 0.089552 -0.012161 -0.003191
v 0.089560 -0.011810 -0.002842
v 0.089306 -0.012062 -0.003181
v 0.089357 -0.012016 -0.002981
v 0.089560 -0.012058 -0.002943
v 0.089312 -0.011814 -0.002935
v 0.091316 -0.012135 -0.003258
v 0.091654 -0.011780 -0.003271
v 0.091324 -0.011784 -0.002907
v 0.091558 -0.012028 -0.003267
v 0.091520 -0.011982 -0.003063
v 0.091562 -0.011780 -0.003019
v 0.091326 -0.012032 -0.003010
vn -0.0690 0.1510 -0.9861
vn -0.3592 -0.9331 0.0185
vn 0.8967 0.2992 0.3261
vn 0.3691 0.8898 0.2686
vn 0.3094 0.3778 0.8726
vn -0.2768 0.8825 0.3802
vn -0.8860 0.3522 0.3016
vn -0.3424 0.2794 0.8970
vn -0.8707 -0.2875 0.3990
vn -0.3476 -0.8854 0.3086
vn -0.2402 -0.3724 0.8965
vn 0.3072 -0.8782 0.3665
vn 0.9058 -0.3446 0.2466
vn 0.4105 -0.2739 0.8697
vn 0.3511 -0.7698 0.5331
vn 0.2076 -0.1604 0.9650
vn 0.3971 -0.4597 0.7943
vn -0.4348 -0.3657 0.8229
vn -0.7430 -0.3341 0.5800
vn -0.1319 -0.1680 0.9769
vn -0.8694 -0.2878 0.4016
vn -0.3477 -0.8907 0.2930
vn -0.2453 -0.3660 0.8977
vn 0.3209 -0.8790 0.3528
vn 0.4141 -0.2743 0.8679
vn 0.0284 -0.9218 0.3865
vn 0.0403 -0.3771 0.9253
vn -0.9128 -0.0159 0.4080
vn -0.3551 -0.0057 0.9348
vn 0.0285 -0.9234 0.3827
vn 0.0397 -0.3772 0.9253
vn 0.4181 0.0081 0.9084
vn 0.9397 0.0169 0.3417
vn 0.0006 0.9225 0.3861
vn 0.0286 0.3893 0.9207
vn -0.9133 -0.0159 0.4070
vn -0.3526 -0.0057 0.9357
vn 0.0289 -0.9172 0.3973
vn 0.0397 -0.3833 0.9228
vn 0.9397 0.0168 0.3417
vn 0.4268 0.0081 0.9043
vn 0.9153 0.4011 -0.0370
vn -0.9342 0.3551 0.0338
vn -0.4061 0.9138 0.0107
vn -0.3715 -0.9282 0.0191
vn -0.9157 -0.4001 0.0370
vn 0.9360 -0.3505 -0.0338
vn 0.4061 -0.9138 -0.0106
vn 0.4060 -0.9138 -0.0107
vn 0.9319 -0.3612 -0.0337
vn -0.3716 -0.9282 0.0190
vn -0.9156 -0.4004 0.0370
vn 0.3616 0.9321 -0.0186
vn -0.9179 -0.3951 0.0370
vn 0.9343 -0.3549 -0.0337
vn 0.4034 -0.9150 -0.0106
vn 0.0373 0.0022 0.9993
vn 0.9990 0.0252 -0.0381
vn -0.0194 0.9998 -0.0044
vn -0.9990 -0.0252 0.0381
vn 0.0197 -0.9998 0.0045
vn 0.0194 -0.9998 0.0044
vn 0.0198 -0.9998 0.0044
vn -0.0628 0.1466 -0.9872
vn -0.0705 0.1527 -0.9858
vn -0.0707 0.1510 -0.9860
vn -0.0708 0.1526 -0.9857
vn -0.0781 0.1586 -0.9843
vn -0.0703 0.1515 -0.9860
vn -0.0720 0.1519 -0.9858
vn -0.0702 0.1527 -0.9858
vn -0.0703 0.1527 -0.9858
vn -0.0745 0.1491 -0.9860
vn -0.0710 0.1523 -0.9858
vn -0.0705 0.1524 -0.9858
vn -0.0673 0.1555 -0.9855
vn -0.0786 0.1429 -0.9866
vn -0.0640 0.1439 -0.9875
vn -0.0702 0.1495 -0.9863
vn -0.0720 0.1538 -0.9855
vn -0.0707 0.1519 -0.9859
vn -0.3732 -0.9276 0.0190
vn 0.8929 0.3739 0.2508
vn 0.2840 0.8891 0.3590
vn 0.4001 0.2905 0.8692
vn -0.3821 0.8799 0.2826
vn -0.8820 0.2664 0.3886
vn -0.2567 0.3672 0.8940
vn -0.8728 -0.3717 0.3165
vn -0.2560 -0.8838 0.3916
vn -0.3371 -0.2799 0.8989
vn 0.3973 -0.8768 0.2709
vn 0.9075 -0.2599 0.3300
vn 0.3249 -0.3607 0.8743
vn 0.5106 -0.3413 0.7892
vn 0.4168 -0.3627 0.8335
vn 0.8014 -0.3018 0.5164
vn -0.2900 -0.7687 0.5701
vn -0.3329 -0.4707 0.8171
vn -0.3489 -0.3806 0.8564
vn -0.8715 -0.3793 0.3108
vn -0.2559 -0.8899 0.3775
vn -0.3349 -0.2796 0.8998
vn 0.3312 -0.3598 0.8723
vn 0.0285 -0.9199 0.3912
vn 0.0403 -0.3834 0.9227
vn -0.9094 -0.0158 0.4156
vn -0.3526 -0.0056 0.9358
vn 0.0284 -0.9235 0.3825
vn 0.0407 -0.3830 0.9228
vn 0.4267 0.0082 0.9043
vn 0.0006 0.9224 0.3861
vn 0.0286 0.3895 0.9206
vn -0.9106 -0.0158 0.4129
vn -0.3550 -0.0057 0.9348
vn 0.0283 -0.9184 0.3945
vn 0.0396 -0.3830 0.9229
vn 0.9403 0.0168 0.3399
vn 0.4194 0.0080 0.9078
vn 0.9201 0.3899 -0.0371
vn -0.9302 0.3655 0.0336
vn -0.4058 0.9139 0.0107
vn -0.3757 -0.9266 0.0192
vn -0.9202 -0.3896 0.0371
vn 0.9326 -0.3592 -0.0336
vn 0.4031 -0.9151 -0.0105
vn 0.3936 -0.9192 -0.0102
vn 0.9321 -0.3607 -0.0337
vn -0.3757 -0.9266 0.0191
vn -0.9153 -0.4010 0.0370
vn 0.3732 0.9276 -0.0190
vn -0.9179 -0.3950 0.0370
vn 0.4031 -0.9151 -0.0106
vn 0.0367 0.0013 0.9993
vn 0.0373 0.0013 0.9993
vn 0.0381 0.0014 0.9993
vn 0.0374 0.0013 0.9993
vn 0.9991 0.0177 -0.0382
vn -0.0152 0.9999 -0.0047
vn -0.9991 -0.0176 0.0382
vn 0.0153 -0.9999 0.0047
vn 0.9991 0.0176 -0.0382
vn 0.0152 -0.9999 0.0047
vn -0.9991 -0.0177 0.0382
vn 0.0153 -0.9999 0.0046
vt 0.131780 0.028358
vt 0.131819 0.028267
vt 0.132754 0.029167
vt 0.116125 0.999641
vt 0.116214 0.000272
vt 0.116215 0.999627
vt 0.072286 0.000279
vt 0.072217 0.000194
vt 0.072290 0.000182
vt 0.029117 0.000278
vt 0.029191 0.000195
vt 0.029208 0.000272
vt 0.117864 0.058722
vt 0.117797 0.058795
vt 0.117778 0.058722
vt 0.000303 0.000315
vt 0.000230 0.000232
vt 0.000303 0.000218
vt 0.071713 0.000279
vt 0.071781 0.000194
vt 0.071799 0.000270
vt 0.117864 0.029908
vt 0.117796 0.029834
vt 0.117868 0.029818
vt 0.057285 0.000587
vt 0.057205 0.000506
vt 0.057281 0.000491
vt 0.117324 0.000279
vt 0.117397 0.000196
vt 0.117413 0.000273
vt 0.132286 0.029945
vt 0.132367 0.029872
vt 0.132382 0.029945
vt 0.116670 0.000279
vt 0.116596 0.000196
vt 0.116669 0.000182
vt 0.114922 0.000566
vt 0.115001 0.000485
vt 0.115016 0.000562
vt 0.132286 0.030599
vt 0.132368 0.030673
vt 0.132292 0.030689
vt 0.056697 0.000295
vt 0.056824 0.000221
vt 0.056786 0.000301
vt 0.118658 0.030655
vt 0.118621 0.030691
vt 0.118525 0.030564
vt 0.118798 0.030692
vt 0.118660 0.030692
vt 0.118668 0.057817
vt 0.118659 0.057944
vt 0.118620 0.057944
vt 0.100786 0.000281
vt 0.100915 0.000205
vt 0.100880 0.000286
vt 0.118658 0.057982
vt 0.118525 0.058071
vt 0.087273 0.000568
vt 0.087193 0.000487
vt 0.087269 0.000472
vt 0.116124 0.000279
vt 0.116198 0.000196
vt 0.132289 0.058108
vt 0.132370 0.058034
vt 0.132384 0.058108
vt 0.115470 0.000279
vt 0.115397 0.000196
vt 0.115470 0.000182
vt 0.086720 0.000580
vt 0.086799 0.000499
vt 0.086814 0.000576
vt 0.132289 0.058761
vt 0.132369 0.058835
vt 0.132293 0.058851
vt 0.029572 0.000182
vt 0.056825 0.000198
vt 0.100910 0.000182
vt 0.116124 0.000182
vt 0.117870 0.058813
vt 0.086724 0.000483
vt 0.029117 0.000182
vt 0.071709 0.000182
vt 0.132290 0.029856
vt 0.117324 0.000183
vt 0.101407 0.000281
vt 0.114925 0.000469
vt 0.072193 0.997093
vt 0.072281 0.997116
vt 0.071829 0.996409
vt 0.071742 0.996429
vt 0.000214 0.000309
vt 0.000272 0.992546
vt 0.000182 0.992542
vt 0.117414 0.998781
vt 0.117324 0.998796
vt 0.057189 0.000582
vt 0.057283 0.998968
vt 0.057189 0.998978
vt 0.114894 0.998801
vt 0.114989 0.998809
vt 0.116579 0.998805
vt 0.116669 0.998815
vt 0.056825 0.996700
vt 0.056735 0.996691
vt 0.101279 0.996386
vt 0.101373 0.996395
vt 0.029618 0.997501
vt 0.029699 0.000279
vt 0.029708 0.997486
vt 0.100915 0.997421
vt 0.100820 0.997432
vt 0.029208 0.993414
vt 0.029118 0.993413
vt 0.087178 0.000564
vt 0.087282 0.999807
vt 0.087186 0.999818
vt 0.086720 0.999682
vt 0.086814 0.999691
vt 0.115380 0.000273
vt 0.115470 0.999660
vt 0.115380 0.999651
vt 0.132717 0.000218
vt 0.132755 0.000308
vt 0.132625 0.000182
vt 0.131819 0.001228
vt 0.132716 0.029257
vt 0.132623 0.029296
vt 0.117909 0.029454
vt 0.131687 0.028396
vt 0.117817 0.029418
vt 0.117779 0.029327
vt 0.117779 0.028673
vt 0.117816 0.028582
vt 0.117910 0.028544
vt 0.131781 0.001138
vt 0.117910 0.000340
vt 0.131689 0.001102
vt 0.117779 0.000469
vt 0.117817 0.000378
vt 0.117817 0.001213
vt 0.117779 0.001124
vt 0.117911 0.001249
vt 0.072198 0.000271
vt 0.117778 0.029907
vt 0.116579 0.000273
vt 0.132382 0.030600
vt 0.118669 0.030819
vt 0.101312 0.000286
vt 0.101279 0.000205
vt 0.029609 0.000285
vt 0.029572 0.000205
vt 0.118797 0.057945
vt 0.132293 0.058018
vt 0.132384 0.058762
vt 0.101282 0.000182
s 0
f 18/1/1 16/2/1 1/3/1
f 19/4/2 70/5/2 21/6/2
f 25/7/3 29/8/3 31/9/3
f 26/10/4 29/11/4 28/12/4
f 27/13/5 29/14/5 30/15/5
f 32/16/6 36/17/6 38/18/6
f 33/19/7 36/20/7 35/21/7
f 34/22/8 36/23/8 37/24/8
f 39/25/9 43/26/9 45/27/9
f 40/28/10 43/29/10 42/30/10
f 41/31/11 43/32/11 44/33/11
f 46/34/12 50/35/12 52/36/12
f 47/37/13 50/38/13 49/39/13
f 48/40/14 50/41/14 51/42/14
f 53/43/15 57/44/15 59/45/15
f 58/46/16 56/47/16 54/48/16
f 55/49/17 57/50/17 58/46/17
f 60/51/18 64/52/18 66/53/18
f 61/54/19 64/55/19 63/56/19
f 66/53/20 65/57/20 62/58/20
f 67/59/21 71/60/21 73/61/21
f 68/62/22 71/63/22 70/5/22
f 69/64/23 71/65/23 72/66/23
f 74/67/24 78/68/24 80/69/24
f 75/70/13 78/71/13 77/72/13
f 76/73/25 78/74/25 79/75/25
f 53/43/26 66/76/26 56/77/26
f 66/53/27 54/48/27 56/47/27
f 61/54/28 73/61/28 65/78/28
f 65/57/29 69/64/29 62/58/29
f 74/67/30 72/79/30 68/62/30
f 72/66/31 76/73/31 69/64/31
f 76/73/32 31/80/32 27/13/32
f 79/81/33 25/7/33 31/9/33
f 32/16/34 30/82/34 26/10/34
f 30/15/35 34/22/35 27/13/35
f 33/19/36 45/27/36 37/83/36
f 45/84/37 34/22/37 37/24/37
f 46/34/38 44/85/38 40/28/38
f 44/33/39 48/40/39 41/31/39
f 55/86/40 51/87/40 47/37/40
f 58/46/41 48/40/41 51/42/41
f 3/88/42 25/7/42 2/89/42
f 33/19/43 6/90/43 4/91/43
f 35/92/44 5/93/44 6/94/44
f 40/28/45 9/95/45 7/96/45
f 42/97/46 8/98/46 9/99/46
f 10/100/47 49/39/47 12/101/47
f 12/102/48 46/34/48 11/103/48
f 53/43/49 15/104/49 13/105/49
f 15/106/50 55/86/50 14/107/50
f 18/108/51 60/109/51 16/110/51
f 61/54/52 18/111/52 17/112/52
f 26/10/53 3/113/53 1/114/53
f 70/115/54 20/116/54 21/117/54
f 22/118/55 77/72/55 24/119/55
f 77/120/56 23/121/56 24/122/56
f 54/48/57 62/58/57 27/13/57
f 2/89/58 75/70/58 22/118/58
f 5/93/59 26/10/59 1/114/59
f 39/25/60 4/91/60 8/98/60
f 46/34/61 7/96/61 11/103/61
f 14/107/58 47/37/58 10/100/58
f 60/109/62 13/105/62 16/110/62
f 67/59/60 17/112/60 20/116/60
f 74/67/63 19/4/63 23/121/63
f 6/123/64 5/124/64 4/125/64
f 5/124/65 1/3/65 13/126/65
f 1/3/66 3/127/66 2/128/66
f 2/128/67 22/129/67 17/130/67
f 22/129/68 24/131/68 23/132/68
f 19/133/69 22/129/69 23/132/69
f 19/133/70 21/134/70 20/135/70
f 19/133/71 20/135/71 22/129/71
f 20/135/72 17/130/72 22/129/72
f 5/124/73 13/126/73 15/136/73
f 1/3/74 2/128/74 18/1/74
f 13/126/75 1/3/75 16/2/75
f 8/137/65 4/125/65 14/138/65
f 14/138/76 4/125/76 15/136/76
f 7/139/77 9/140/77 8/137/77
f 12/141/78 11/142/78 10/143/78
f 11/142/79 7/139/79 10/143/79
f 14/138/65 10/143/65 8/137/65
f 10/143/75 7/139/75 8/137/75
f 2/128/80 17/130/80 18/1/80
f 15/136/81 4/125/81 5/124/81
f 19/4/82 68/62/82 70/5/82
f 25/7/83 28/144/83 29/8/83
f 26/10/84 30/82/84 29/11/84
f 27/13/85 31/80/85 29/14/85
f 32/16/86 35/92/86 36/17/86
f 33/19/87 37/83/87 36/20/87
f 34/22/88 38/145/88 36/23/88
f 39/25/89 42/97/89 43/26/89
f 40/28/90 44/85/90 43/29/90
f 41/31/91 45/84/91 43/32/91
f 46/34/92 49/146/92 50/35/92
f 47/37/93 51/87/93 50/38/93
f 48/40/94 52/147/94 50/41/94
f 53/148/95 56/47/95 57/50/95
f 58/46/96 57/50/96 56/47/96
f 55/86/97 59/149/97 57/150/97
f 60/109/98 63/151/98 64/152/98
f 61/153/99 65/57/99 64/52/99
f 66/53/100 64/52/100 65/57/100
f 67/59/101 70/115/101 71/60/101
f 68/62/102 72/79/102 71/63/102
f 69/64/103 73/154/103 71/65/103
f 74/67/92 77/120/92 78/68/92
f 75/70/93 79/81/93 78/71/93
f 76/73/104 80/155/104 78/74/104
f 53/43/105 60/109/105 66/76/105
f 66/53/106 62/58/106 54/48/106
f 61/54/107 67/59/107 73/61/107
f 65/57/108 73/154/108 69/64/108
f 74/67/109 80/69/109 72/79/109
f 72/66/110 80/155/110 76/73/110
f 76/73/111 79/75/111 31/80/111
f 79/81/33 75/70/33 25/7/33
f 32/16/112 38/18/112 30/82/112
f 30/15/113 38/145/113 34/22/113
f 33/19/114 39/25/114 45/27/114
f 45/84/115 41/31/115 34/22/115
f 46/34/116 52/36/116 44/85/116
f 44/33/117 52/147/117 48/40/117
f 55/86/118 58/156/118 51/87/118
f 58/46/119 54/48/119 48/40/119
f 3/88/120 28/144/120 25/7/120
f 33/19/121 35/21/121 6/90/121
f 35/92/122 32/16/122 5/93/122
f 40/28/123 42/30/123 9/95/123
f 42/97/124 39/25/124 8/98/124
f 10/100/125 47/37/125 49/39/125
f 12/102/126 49/146/126 46/34/126
f 53/43/127 59/45/127 15/104/127
f 15/106/128 59/149/128 55/86/128
f 18/108/129 63/151/129 60/109/129
f 61/54/130 63/56/130 18/111/130
f 26/10/131 28/12/131 3/113/131
f 70/115/132 67/59/132 20/116/132
f 22/118/125 75/70/125 77/72/125
f 77/120/133 74/67/133 23/121/133
f 62/58/134 69/64/134 76/73/134
f 34/22/135 41/31/135 54/48/135
f 41/31/134 48/40/134 54/48/134
f 62/58/136 76/73/136 27/13/136
f 34/22/137 54/48/137 27/13/137
f 2/89/138 25/7/138 75/70/138
f 5/93/139 32/16/139 26/10/139
f 39/25/140 33/19/140 4/91/140
f 46/34/141 40/28/141 7/96/141
f 14/107/142 55/86/142 47/37/142
f 60/109/143 53/43/143 13/105/143
f 67/59/144 61/54/144 17/112/144
f 74/67/145 68/62/145 19/4/145
