mtllib slab.mtl
usemtl slab
# Blender 5.1.1
# www.blender.org
o slab
v -0.130901 1.665443 0.640692
v -0.109852 1.668091 0.641504
v -0.118993 1.656441 0.624031
v -0.120936 1.671097 0.641907
v -0.120568 1.668442 0.632673
v -0.112517 1.664726 0.630125
v -0.127400 1.662857 0.629551
v -1.646051 -0.285248 0.239317
v -1.634378 -0.294556 0.222595
v -1.643405 -0.306297 0.235254
v -1.642668 -0.287994 0.228148
v -1.646393 -0.295998 0.228472
v -1.640797 -0.302879 0.225275
v -1.649051 -0.296295 0.237099
v 0.130899 -1.665451 0.013731
v 0.109850 -1.668098 0.012676
v 0.118992 -1.656448 0.000000
v 0.120935 -1.671097 0.012394
v 0.120566 -1.668442 0.004150
v 0.112515 -1.664726 0.002686
v 0.127399 -1.662857 0.003431
v 1.643406 0.306290 0.418926
v 1.646050 0.285240 0.415106
v 1.634377 0.294548 0.401436
v 1.649051 0.296295 0.417204
v 1.646392 0.295998 0.408354
v 1.642666 0.287994 0.404837
v 1.640797 0.302879 0.407537
v -0.109853 1.668091 0.761354
v -0.130900 1.665443 0.760300
v -0.118993 1.656441 0.774031
v -0.120936 1.671097 0.761633
v -0.120568 1.668442 0.769876
v -0.127399 1.662857 0.770596
v -0.112517 1.664726 0.771341
v -1.646050 -0.285248 0.358925
v -1.643406 -0.306297 0.355104
v -1.634378 -0.294556 0.372593
v -1.649051 -0.296288 0.356825
v -1.646393 -0.295990 0.365673
v -1.640797 -0.302872 0.366489
v -1.642667 -0.287987 0.369190
v 0.109849 -1.668098 0.132526
v 0.130898 -1.665451 0.133339
v 0.118992 -1.656448 0.150000
v 0.120934 -1.671097 0.132124
v 0.120566 -1.668442 0.141357
v 0.127399 -1.662857 0.144480
v 0.112515 -1.664726 0.143906
v 1.643405 0.306290 0.538776
v 1.634377 0.294548 0.551437
v 1.646049 0.285240 0.534714
v 1.640796 0.302879 0.548758
v 1.646392 0.295998 0.545559
v 1.642666 0.287994 0.545885
v 1.649050 0.296295 0.536932
vn -0.4964 0.7982 -0.3413
vn 0.2440 0.9345 -0.2590
vn 0.0137 0.5855 -0.8106
vn -0.8861 0.3098 -0.3446
vn -0.4494 0.1737 -0.8763
vn -0.7973 -0.4758 -0.3714
vn 0.4954 -0.7875 -0.3667
vn -0.2570 -0.9232 -0.2858
vn 0.0224 -0.3243 -0.9457
vn 0.7950 0.5065 -0.3338
vn 0.9397 -0.2028 -0.2755
vn 0.4785 0.1569 -0.8640
vn 0.3300 0.8645 0.3793
vn -0.4958 0.7874 0.3663
vn -0.1509 0.3056 0.9401
vn -0.8954 0.2570 0.3637
vn -0.7951 -0.5059 0.3344
vn -0.4561 -0.2703 0.8479
vn -0.3051 -0.8912 0.3356
vn 0.4511 -0.8528 0.2632
vn 0.0970 -0.5735 0.8135
vn 0.8573 0.4327 0.2791
vn 0.4441 -0.0546 0.8943
vn 0.8861 -0.3097 0.3447
vn 0.2275 0.1352 0.9644
vn 0.5944 0.7007 0.3946
vn -0.7646 0.5138 0.3890
vn -0.3339 0.0659 0.9403
vn -0.5454 -0.7599 0.3536
vn -0.2387 -0.4481 0.8615
vn 0.6982 -0.6170 0.3630
vn 0.2752 -0.3942 0.8768
vn -0.2750 0.3941 -0.8770
vn -0.6984 0.6171 -0.3627
vn 0.5457 0.7602 -0.3526
vn 0.2383 0.4477 -0.8619
vn 0.3337 -0.0657 -0.9404
vn 0.7646 -0.5138 -0.3892
vn -0.2274 -0.1351 -0.9644
vn -0.5942 -0.7005 -0.3953
vn -0.4935 0.8698 -0.0000
vn 0.2617 0.9651 -0.0000
vn -0.8708 -0.4916 -0.0000
vn -0.9651 0.2620 -0.0000
vn 0.4930 -0.8701 -0.0000
vn -0.2611 -0.9653 -0.0000
vn 0.8707 0.4918 -0.0000
vn 0.9651 -0.2620 -0.0000
vn -0.7898 0.6134 -0.0000
vn 0.0201 0.1865 -0.9823
vn 0.6134 0.7898 -0.0000
vn -0.6134 -0.7898 -0.0000
vn 0.7898 -0.6134 -0.0000
vn -0.0201 -0.1865 0.9823
vn -0.4516 0.8525 -0.2632
vn 0.3053 0.8914 -0.3350
vn -0.0967 0.5732 -0.8137
vn -0.8800 0.3992 -0.2574
vn -0.4440 0.0544 -0.8944
vn -0.8574 -0.4325 -0.2791
vn 0.5919 -0.7591 -0.2710
vn -0.3298 -0.8643 -0.3797
vn 0.1508 -0.3056 -0.9402
vn 0.7656 0.5928 -0.2500
vn 0.8953 -0.2569 -0.3639
vn 0.4558 0.2699 -0.8482
vn 0.2575 0.9231 0.2857
vn -0.5920 0.7590 0.2709
vn -0.0224 0.3244 0.9457
vn -0.9396 0.2030 0.2755
vn -0.7656 -0.5928 0.2499
vn -0.4788 -0.1567 0.8638
vn -0.2434 -0.9347 0.2591
vn 0.4962 -0.7981 0.3417
vn -0.0138 -0.5858 0.8104
vn 0.7974 0.4759 0.3710
vn 0.4496 -0.1736 0.8762
vn 0.8800 -0.3992 0.2574
vn 0.2273 0.1350 0.9644
vn 0.5943 0.7007 0.3947
vn -0.7646 0.5138 0.3891
vn -0.3338 0.0658 0.9403
vn -0.5456 -0.7601 0.3530
vn -0.2384 -0.4478 0.8617
vn 0.6980 -0.6170 0.3635
vn 0.2755 -0.3943 0.8767
vn -0.2753 0.3942 -0.8768
vn -0.6981 0.6170 -0.3632
vn 0.5457 0.7602 -0.3527
vn 0.2383 0.4476 -0.8619
vn 0.3338 -0.0658 -0.9404
vn 0.7645 -0.5136 -0.3897
vn -0.2273 -0.1350 -0.9644
vn -0.5943 -0.7006 -0.3950
vn -0.4935 0.8697 -0.0000
vn 0.2618 0.9651 -0.0000
vn -0.8710 -0.4912 -0.0000
vn -0.9650 0.2623 -0.0000
vt 0.968116 0.006833
vt 0.969880 0.005672
vt 0.970284 0.007428
vt 0.943892 0.525454
vt 0.941766 0.523629
vt 0.943671 0.523100
vt 0.473177 0.002655
vt 0.471253 0.000629
vt 0.473102 0.000296
vt 0.970283 0.517783
vt 0.968105 0.519542
vt 0.968116 0.517147
vt 0.473177 0.524901
vt 0.471253 0.526473
vt 0.470876 0.524707
vt 0.027514 0.539900
vt 0.028977 0.538598
vt 0.029497 0.540332
vt 0.973054 0.519575
vt 0.970875 0.517820
vt 0.973090 0.517599
vt 0.027513 0.994192
vt 0.028977 0.996441
vt 0.027268 0.996543
vt 0.938731 0.532308
vt 0.940415 0.533937
vt 0.938641 0.534394
vt 0.943671 0.981758
vt 0.941456 0.979865
vt 0.943891 0.979776
vt 0.973091 0.007293
vt 0.971258 0.005528
vt 0.973054 0.004901
vt 0.938732 0.010062
vt 0.940415 0.008092
vt 0.940864 0.009978
vt 0.968674 0.522524
vt 0.970137 0.520275
vt 0.970657 0.522076
vt 0.941455 0.002051
vt 0.943634 0.000296
vt 0.943669 0.002273
vt 0.468151 0.002383
vt 0.469836 0.000753
vt 0.470284 0.002505
vt 0.943669 0.512586
vt 0.941838 0.514349
vt 0.941455 0.512404
vt 0.000297 0.536878
vt 0.002512 0.534986
vt 0.002732 0.536968
vt 0.468151 0.524630
vt 0.469836 0.526596
vt 0.468062 0.526986
vt 0.002731 0.991261
vt 0.000605 0.993085
vt 0.000296 0.991185
vt 0.997537 0.513038
vt 0.999301 0.514198
vt 0.997525 0.515009
vt 0.002596 0.532036
vt 0.000673 0.534061
vt 0.000296 0.532190
vt 0.968674 0.976846
vt 0.970137 0.978147
vt 0.968428 0.978831
vt 0.002596 0.009790
vt 0.000673 0.008216
vt 0.002523 0.007702
vt 0.997525 0.000335
vt 0.999704 0.002095
vt 0.997537 0.002732
vt 0.468062 0.000296
vt 0.970657 0.976413
vt 0.999704 0.512441
vt 0.000297 0.009983
vt 0.470876 0.002500
vt 0.941456 0.525529
vt 0.938641 0.007702
vt 0.940864 0.532184
vt 0.970875 0.007473
vt 0.473102 0.526987
vt 0.968105 0.004861
vt 0.027268 0.537915
vt 0.943634 0.514976
vt 0.002511 0.993614
vt 0.969880 0.519581
vt 0.971257 0.519430
vt 0.029497 0.994640
vt 0.941765 0.981502
vt 0.968428 0.520173
vt 0.941837 0.000441
vt 0.000607 0.535242
vt 0.470284 0.524711
vt 0.002522 0.534394
vt 0.999301 0.000296
s 0
f 1/1/1 5/2/1 7/3/1
f 2/4/2 5/5/2 4/6/2
f 3/7/3 5/8/3 6/9/3
f 11/10/4 14/11/4 8/12/4
f 9/13/5 12/14/5 11/15/5
f 10/16/6 12/17/6 13/18/6
f 18/19/7 21/20/7 15/21/7
f 16/22/8 19/23/8 18/24/8
f 17/25/9 19/26/9 20/27/9
f 25/28/10 28/29/10 22/30/10
f 23/31/11 26/32/11 25/33/11
f 24/34/12 26/35/12 27/36/12
f 29/37/13 33/38/13 35/39/13
f 34/40/14 32/41/14 30/42/14
f 31/43/15 33/44/15 34/45/15
f 36/46/16 40/47/16 42/48/16
f 41/49/17 39/50/17 37/51/17
f 38/52/18 40/53/18 41/54/18
f 43/55/19 47/56/19 49/57/19
f 44/58/20 47/59/20 46/60/20
f 45/61/21 47/62/21 48/63/21
f 50/64/22 54/65/22 56/66/22
f 51/67/23 54/68/23 53/69/23
f 56/70/24 55/71/24 52/72/24
f 51/67/25 35/73/25 31/43/25
f 53/74/26 29/37/26 35/39/26
f 30/42/27 42/48/27 34/40/27
f 34/45/28 38/52/28 31/43/28
f 37/51/29 49/57/29 41/49/29
f 41/54/30 45/61/30 38/52/30
f 52/72/31 48/75/31 44/58/31
f 55/76/32 45/61/32 48/63/32
f 3/7/33 11/15/33 7/77/33
f 7/3/34 8/12/34 1/1/34
f 22/30/35 6/78/35 2/4/35
f 28/79/36 3/7/36 6/9/36
f 24/34/37 21/80/37 17/25/37
f 27/81/38 15/21/38 21/20/38
f 9/13/39 20/27/39 13/82/39
f 13/18/40 16/22/40 10/16/40
f 30/42/41 4/83/41 1/1/41
f 4/6/42 29/37/42 2/4/42
f 37/51/43 14/84/43 10/16/43
f 39/85/44 8/12/44 14/11/44
f 15/21/45 46/60/45 18/19/45
f 46/86/46 16/22/46 18/24/46
f 22/30/47 56/66/47 25/28/47
f 25/33/48 52/72/48 23/31/48
f 1/1/49 36/46/49 30/42/49
f 24/34/50 9/13/50 3/7/50
f 2/4/51 50/64/51 22/30/51
f 10/16/52 43/55/52 37/51/52
f 23/31/53 44/58/53 15/21/53
f 38/52/54 51/67/54 31/43/54
f 1/1/55 4/83/55 5/2/55
f 2/4/56 6/78/56 5/5/56
f 3/7/57 7/77/57 5/8/57
f 11/10/58 12/87/58 14/11/58
f 9/13/59 13/82/59 12/14/59
f 10/16/60 14/84/60 12/17/60
f 18/19/61 19/88/61 21/20/61
f 16/22/62 20/89/62 19/23/62
f 17/25/63 21/80/63 19/26/63
f 25/28/64 26/90/64 28/29/64
f 23/31/65 27/81/65 26/32/65
f 24/34/66 28/79/66 26/35/66
f 29/37/67 32/91/67 33/38/67
f 34/40/68 33/92/68 32/41/68
f 31/43/69 35/73/69 33/44/69
f 36/46/70 39/85/70 40/47/70
f 41/49/71 40/93/71 39/50/71
f 38/52/72 42/94/72 40/53/72
f 43/55/73 46/86/73 47/56/73
f 44/58/74 48/75/74 47/59/74
f 45/61/75 49/95/75 47/62/75
f 50/64/76 53/74/76 54/65/76
f 51/67/77 55/76/77 54/68/77
f 56/70/78 54/96/78 55/71/78
f 51/67/79 53/69/79 35/73/79
f 53/74/80 50/64/80 29/37/80
f 30/42/81 36/46/81 42/48/81
f 34/45/82 42/94/82 38/52/82
f 37/51/83 43/55/83 49/57/83
f 41/54/84 49/95/84 45/61/84
f 52/72/85 55/71/85 48/75/85
f 55/76/86 51/67/86 45/61/86
f 3/7/87 9/13/87 11/15/87
f 7/3/88 11/10/88 8/12/88
f 22/30/89 28/29/89 6/78/89
f 28/79/90 24/34/90 3/7/90
f 24/34/91 27/36/91 21/80/91
f 27/81/92 23/31/92 15/21/92
f 9/13/93 17/25/93 20/27/93
f 13/18/94 20/89/94 16/22/94
f 30/42/95 32/41/95 4/83/95
f 4/6/96 32/91/96 29/37/96
f 37/51/97 39/50/97 14/84/97
f 39/85/98 36/46/98 8/12/98
f 15/21/45 44/58/45 46/60/45
f 46/86/46 43/55/46 16/22/46
f 22/30/47 50/64/47 56/66/47
f 25/33/48 56/70/48 52/72/48
f 1/1/49 8/12/49 36/46/49
f 24/34/50 17/25/50 9/13/50
f 2/4/51 29/37/51 50/64/51
f 10/16/52 16/22/52 43/55/52
f 23/31/53 52/72/53 44/58/53
f 38/52/54 45/61/54 51/67/54
