# Blender 5.1.1
# www.blender.org
mtllib body_smoked.mtl
o body_smoked
v 0.007000 -0.300500 0.100000
v 0.242000 -0.300500 0.100000
v 0.242000 -0.300500 0.287000
v 0.202000 -0.300500 0.327000
v 0.007000 -0.300500 0.327000
v 0.007000 -0.294500 0.100000
v 0.242000 -0.294500 0.100000
v 0.242000 -0.294500 0.287000
v 0.202000 -0.294500 0.327000
v 0.007000 -0.294500 0.327000
vn -0.0000 -1.0000 -0.0000
vn -0.0000 1.0000 -0.0000
vn -0.0000 -0.0000 -1.0000
vn 1.0000 -0.0000 -0.0000
vn 0.7071 -0.0000 0.7071
vn -0.0000 -0.0000 1.0000
vn -1.0000 -0.0000 -0.0000
s 1
usemtl dock_smoked
f 4//1 1//1 3//1
f 8//2 7//2 6//2
f 6//3 2//3 1//3
f 7//4 3//4 2//4
f 8//5 4//5 3//5
f 9//6 5//6 4//6
f 10//7 1//7 5//7
f 5//1 1//1 4//1
f 1//1 2//1 3//1
f 6//2 10//2 9//2
f 9//2 8//2 6//2
f 6//3 7//3 2//3
f 7//4 8//4 3//4
f 8//5 9//5 4//5
f 9//6 10//6 5//6
f 10//7 6//7 1//7
