# Blender 5.1.1
# www.blender.org
mtllib body_white.mtl
o body_white
v -0.275000 -0.288500 0.096000
v -0.275000 -0.292500 0.100000
v -0.279000 -0.288500 0.100000
v -0.275000 -0.290497 0.096534
v -0.276997 -0.288500 0.096534
v -0.276913 -0.290413 0.097053
v -0.276997 -0.291966 0.100000
v -0.275000 -0.291966 0.098003
v -0.276913 -0.291446 0.098087
v -0.278466 -0.288500 0.098003
v -0.278466 -0.290497 0.100000
v -0.277947 -0.290413 0.098087
v -0.275000 -0.292500 0.436000
v -0.275000 -0.288500 0.440000
v -0.279000 -0.288500 0.436000
v -0.275000 -0.291966 0.437997
v -0.276997 -0.291966 0.436000
v -0.276913 -0.291446 0.437913
v -0.276997 -0.288500 0.439466
v -0.275000 -0.290497 0.439466
v -0.276913 -0.290413 0.438947
v -0.278466 -0.290497 0.436000
v -0.278466 -0.288500 0.437997
v -0.277947 -0.290413 0.437913
v -0.275000 0.288500 0.096000
v -0.279000 0.288500 0.100000
v -0.275000 0.292500 0.100000
v -0.276997 0.288500 0.096534
v -0.275000 0.290497 0.096534
v -0.276913 0.290413 0.097053
v -0.278466 0.290497 0.100000
v -0.278466 0.288500 0.098003
v -0.277947 0.290413 0.098087
v -0.275000 0.291966 0.098003
v -0.276997 0.291966 0.100000
v -0.276913 0.291446 0.098087
v -0.275000 0.288500 0.440000
v -0.275000 0.292500 0.436000
v -0.279000 0.288500 0.436000
v -0.275000 0.290497 0.439466
v -0.276997 0.288500 0.439466
v -0.276913 0.290413 0.438947
v -0.276997 0.291966 0.436000
v -0.275000 0.291966 0.437997
v -0.276913 0.291446 0.437913
v -0.278466 0.288500 0.437997
v -0.278466 0.290497 0.436000
v -0.277947 0.290413 0.437913
v 0.275000 -0.288500 0.096000
v 0.279000 -0.288500 0.100000
v 0.275000 -0.292500 0.100000
v 0.276997 -0.288500 0.096534
v 0.275000 -0.290497 0.096534
v 0.276913 -0.290413 0.097053
v 0.278466 -0.290497 0.100000
v 0.278466 -0.288500 0.098003
v 0.277947 -0.290413 0.098087
v 0.275000 -0.291966 0.098003
v 0.276997 -0.291966 0.100000
v 0.276913 -0.291446 0.098087
v 0.275000 -0.288500 0.440000
v 0.275000 -0.292500 0.436000
v 0.279000 -0.288500 0.436000
v 0.275000 -0.290497 0.439466
v 0.276997 -0.288500 0.439466
v 0.276913 -0.290413 0.438947
v 0.276997 -0.291966 0.436000
v 0.275000 -0.291966 0.437997
v 0.276913 -0.291446 0.437913
v 0.278466 -0.288500 0.437997
v 0.278466 -0.290497 0.436000
v 0.277947 -0.290413 0.437913
v 0.275000 0.288500 0.096000
v 0.275000 0.292500 0.100000
v 0.279000 0.288500 0.100000
v 0.275000 0.290497 0.096534
v 0.276997 0.288500 0.096534
v 0.276913 0.290413 0.097053
v 0.276997 0.291966 0.100000
v 0.275000 0.291966 0.098003
v 0.276913 0.291446 0.098087
v 0.278466 0.288500 0.098003
v 0.278466 0.290497 0.100000
v 0.277947 0.290413 0.098087
v 0.275000 0.288500 0.440000
v 0.279000 0.288500 0.436000
v 0.275000 0.292500 0.436000
v 0.276997 0.288500 0.439466
v 0.275000 0.290497 0.439466
v 0.276913 0.290413 0.438947
v 0.278466 0.290497 0.436000
v 0.278466 0.288500 0.437997
v 0.277947 0.290413 0.437913
v 0.275000 0.291966 0.437997
v 0.276997 0.291966 0.436000
v 0.276913 0.291446 0.437913
v -0.276500 0.241500 0.439599
v -0.275000 -0.241500 0.440000
v -0.275000 0.241500 0.440000
v -0.276500 -0.241500 0.439599
v 0.276500 -0.241500 0.439599
v 0.275000 -0.241500 0.440000
v 0.275000 0.241500 0.440000
v 0.276500 0.241500 0.439599
v 0.000000 -0.313000 0.344000
v 0.000000 -0.313000 0.366000
v 0.009699 -0.313763 0.344000
v 0.009699 -0.313763 0.366000
v 0.019159 -0.316034 0.344000
v 0.019159 -0.316034 0.366000
v 0.028147 -0.319758 0.344000
v 0.028147 -0.319758 0.366000
v 0.036443 -0.324841 0.344000
v 0.036443 -0.324841 0.366000
v 0.043841 -0.331159 0.344000
v 0.043841 -0.331159 0.366000
v 0.050159 -0.338557 0.344000
v 0.050159 -0.338557 0.366000
v 0.055242 -0.346853 0.344000
v 0.055242 -0.346853 0.366000
v 0.058966 -0.355841 0.344000
v 0.058966 -0.355841 0.366000
v 0.061237 -0.365301 0.344000
v 0.061237 -0.365301 0.366000
v 0.062000 -0.375000 0.344000
v 0.062000 -0.375000 0.366000
v 0.061237 -0.384699 0.344000
v 0.061237 -0.384699 0.366000
v 0.058966 -0.394159 0.344000
v 0.058966 -0.394159 0.366000
v 0.055242 -0.403147 0.344000
v 0.055242 -0.403147 0.366000
v 0.050159 -0.411443 0.344000
v 0.050159 -0.411443 0.366000
v 0.043841 -0.418841 0.344000
v 0.043841 -0.418841 0.366000
v 0.036443 -0.425159 0.344000
v 0.036443 -0.425159 0.366000
v 0.028147 -0.430242 0.344000
v 0.028147 -0.430242 0.366000
v 0.019159 -0.433966 0.344000
v 0.019159 -0.433966 0.366000
v 0.009699 -0.436237 0.344000
v 0.009699 -0.436237 0.366000
v 0.000000 -0.437000 0.344000
v 0.000000 -0.437000 0.366000
v -0.009699 -0.436237 0.344000
v -0.009699 -0.436237 0.366000
v -0.019159 -0.433966 0.344000
v -0.019159 -0.433966 0.366000
v -0.028147 -0.430242 0.344000
v -0.028147 -0.430242 0.366000
v -0.036443 -0.425159 0.344000
v -0.036443 -0.425159 0.366000
v -0.043841 -0.418841 0.344000
v -0.043841 -0.418841 0.366000
v -0.050159 -0.411443 0.344000
v -0.050159 -0.411443 0.366000
v -0.055242 -0.403147 0.344000
v -0.055242 -0.403147 0.366000
v -0.058966 -0.394159 0.344000
v -0.058966 -0.394159 0.366000
v -0.061237 -0.384699 0.344000
v -0.061237 -0.384699 0.366000
v -0.062000 -0.375000 0.344000
v -0.062000 -0.375000 0.366000
v -0.061237 -0.365301 0.344000
v -0.061237 -0.365301 0.366000
v -0.058966 -0.355841 0.344000
v -0.058966 -0.355841 0.366000
v -0.055242 -0.346853 0.344000
v -0.055242 -0.346853 0.366000
v -0.050159 -0.338557 0.344000
v -0.050159 -0.338557 0.366000
v -0.043841 -0.331159 0.344000
v -0.043841 -0.331159 0.366000
v -0.036443 -0.324841 0.344000
v -0.036443 -0.324841 0.366000
v -0.028147 -0.319758 0.344000
v -0.028147 -0.319758 0.366000
v -0.019159 -0.316034 0.344000
v -0.019159 -0.316034 0.366000
v -0.009699 -0.313763 0.344000
v -0.009699 -0.313763 0.366000
vn -0.1216 -0.4916 -0.8623
vn -0.4916 -0.1216 -0.8623
vn -0.1280 -0.1280 -0.9835
vn -0.1216 -0.8623 -0.4916
vn -0.4488 -0.4489 -0.7727
vn -0.4916 -0.8623 -0.1216
vn -0.1280 -0.9835 -0.1280
vn -0.7727 -0.4488 -0.4488
vn -0.4488 -0.7727 -0.4488
vn -0.8623 -0.1216 -0.4916
vn -0.8623 -0.4916 -0.1216
vn -0.9835 -0.1280 -0.1280
vn -0.1216 -0.8623 0.4916
vn -0.4916 -0.8623 0.1216
vn -0.1280 -0.9835 0.1280
vn -0.1216 -0.4916 0.8623
vn -0.4488 -0.7727 0.4488
vn -0.4920 -0.1218 0.8621
vn -0.1280 -0.1280 0.9835
vn -0.7727 -0.4488 0.4488
vn -0.4489 -0.4489 0.7727
vn -0.8623 -0.4916 0.1216
vn -0.8623 -0.1216 0.4916
vn -0.9835 -0.1280 0.1280
vn -0.4916 0.1216 -0.8623
vn -0.1216 0.4916 -0.8623
vn -0.1280 0.1280 -0.9835
vn -0.7727 0.4488 -0.4488
vn -0.4488 0.4489 -0.7727
vn -0.8623 0.4916 -0.1216
vn -0.8623 0.1216 -0.4916
vn -0.9835 0.1280 -0.1280
vn -0.4916 0.8623 -0.1216
vn -0.1216 0.8623 -0.4916
vn -0.1280 0.9835 -0.1280
vn -0.4488 0.7727 -0.4488
vn -0.1216 0.4916 0.8623
vn -0.4920 0.1218 0.8621
vn -0.1280 0.1280 0.9835
vn -0.1216 0.8623 0.4916
vn -0.4489 0.4489 0.7727
vn -0.4916 0.8623 0.1216
vn -0.1280 0.9835 0.1280
vn -0.7727 0.4488 0.4488
vn -0.4488 0.7727 0.4488
vn -0.8623 0.1216 0.4916
vn -0.8623 0.4916 0.1216
vn -0.9835 0.1280 0.1280
vn 0.4916 -0.1216 -0.8623
vn 0.1216 -0.4916 -0.8623
vn 0.1280 -0.1280 -0.9835
vn 0.7727 -0.4488 -0.4488
vn 0.4488 -0.4489 -0.7727
vn 0.8623 -0.4916 -0.1216
vn 0.8623 -0.1216 -0.4916
vn 0.9835 -0.1280 -0.1280
vn 0.4916 -0.8623 -0.1216
vn 0.1216 -0.8623 -0.4916
vn 0.1280 -0.9835 -0.1280
vn 0.4488 -0.7727 -0.4488
vn 0.1216 -0.4916 0.8623
vn 0.4920 -0.1218 0.8621
vn 0.1280 -0.1280 0.9835
vn 0.1216 -0.8623 0.4916
vn 0.4489 -0.4489 0.7727
vn 0.4916 -0.8623 0.1216
vn 0.1280 -0.9835 0.1280
vn 0.7727 -0.4488 0.4488
vn 0.4488 -0.7727 0.4488
vn 0.8623 -0.1216 0.4916
vn 0.8623 -0.4916 0.1216
vn 0.9835 -0.1280 0.1280
vn 0.1216 0.4916 -0.8623
vn 0.4916 0.1216 -0.8623
vn 0.1280 0.1280 -0.9835
vn 0.1216 0.8623 -0.4916
vn 0.4488 0.4489 -0.7727
vn 0.4916 0.8623 -0.1216
vn 0.1280 0.9835 -0.1280
vn 0.7727 0.4488 -0.4488
vn 0.4488 0.7727 -0.4488
vn 0.8623 0.1216 -0.4916
vn 0.8623 0.4916 -0.1216
vn 0.9835 0.1280 -0.1280
vn 0.4920 0.1218 0.8621
vn 0.1216 0.4916 0.8623
vn 0.1280 0.1280 0.9835
vn 0.7727 0.4488 0.4488
vn 0.4489 0.4489 0.7727
vn 0.8623 0.4916 0.1216
vn 0.8623 0.1216 0.4916
vn 0.9835 0.1280 0.1280
vn 0.4916 0.8623 0.1216
vn 0.1216 0.8623 0.4916
vn 0.1280 0.9835 0.1280
vn 0.4488 0.7727 0.4488
vn 0.1303 -0.0000 0.9915
vn -0.1303 -0.0000 0.9915
vn -0.2584 -0.0000 0.9660
vn 0.2584 -0.0000 0.9660
vn -0.0000 1.0000 -0.0000
vn 0.1564 0.9877 -0.0000
vn 0.3090 0.9511 -0.0000
vn 0.4540 0.8910 -0.0000
vn 0.5878 0.8090 -0.0000
vn 0.7071 0.7071 -0.0000
vn 0.8090 0.5878 -0.0000
vn 0.8910 0.4540 -0.0000
vn 0.9511 0.3090 -0.0000
vn 0.9877 0.1564 -0.0000
vn 1.0000 -0.0000 -0.0000
vn 0.9877 -0.1564 -0.0000
vn 0.9511 -0.3090 -0.0000
vn 0.8910 -0.4540 -0.0000
vn 0.8090 -0.5878 -0.0000
vn 0.7071 -0.7071 -0.0000
vn 0.5878 -0.8090 -0.0000
vn 0.4540 -0.8910 -0.0000
vn 0.3090 -0.9511 -0.0000
vn 0.1564 -0.9877 -0.0000
vn -0.0000 -1.0000 -0.0000
vn -0.1564 -0.9877 -0.0000
vn -0.3090 -0.9511 -0.0000
vn -0.4540 -0.8910 -0.0000
vn -0.5878 -0.8090 -0.0000
vn -0.7071 -0.7071 -0.0000
vn -0.8090 -0.5878 -0.0000
vn -0.8910 -0.4540 -0.0000
vn -0.9511 -0.3090 -0.0000
vn -0.9877 -0.1564 -0.0000
vn -1.0000 -0.0000 -0.0000
vn -0.9877 0.1564 -0.0000
vn -0.9511 0.3090 -0.0000
vn -0.8910 0.4540 -0.0000
vn -0.8090 0.5878 -0.0000
vn -0.7071 0.7071 -0.0000
vn -0.5878 0.8090 -0.0000
vn -0.4540 0.8910 -0.0000
vn -0.3090 0.9511 -0.0000
vn -0.0000 -0.0000 1.0000
vn -0.1564 0.9877 -0.0000
vn -0.0000 -0.0000 -1.0000
s 1
usemtl dock_white
f 4//1 5//2 1//3
f 8//4 6//5 4//1
f 7//6 8//4 2//7
f 7//6 12//8 9//9
f 10//10 11//11 3//12
f 5//2 12//8 10//10
f 6//5 9//9 12//8
f 16//13 17//14 13//15
f 20//16 18//17 16//13
f 19//18 20//16 14//19
f 19//18 24//20 21//21
f 22//22 23//23 15//24
f 17//14 24//20 22//22
f 18//17 21//21 24//20
f 28//25 29//26 25//27
f 28//25 33//28 30//29
f 31//30 32//31 26//32
f 35//33 33//28 31//30
f 34//34 35//33 27//35
f 34//34 30//29 36//36
f 30//29 33//28 36//36
f 40//37 41//38 37//39
f 44//40 42//41 40//37
f 43//42 44//40 38//43
f 43//42 48//44 45//45
f 46//46 47//47 39//48
f 41//38 48//44 46//46
f 42//41 45//45 48//44
f 52//49 53//50 49//51
f 52//49 57//52 54//53
f 55//54 56//55 50//56
f 59//57 57//52 55//54
f 58//58 59//57 51//59
f 58//58 54//53 60//60
f 54//53 57//52 60//60
f 64//61 65//62 61//63
f 68//64 66//65 64//61
f 67//66 68//64 62//67
f 67//66 72//68 69//69
f 70//70 71//71 63//72
f 65//62 72//68 70//70
f 66//65 69//69 72//68
f 76//73 77//74 73//75
f 80//76 78//77 76//73
f 79//78 80//76 74//79
f 79//78 84//80 81//81
f 82//82 83//83 75//84
f 77//74 84//80 82//82
f 78//77 81//81 84//80
f 88//85 89//86 85//87
f 88//85 93//88 90//89
f 91//90 92//91 86//92
f 95//93 93//88 91//90
f 94//94 95//93 87//95
f 89//86 96//96 94//94
f 90//89 93//88 96//96
f 1//3 28//25 25//27
f 5//2 32//31 28//25
f 10//10 26//32 32//31
f 13//15 7//6 2//7
f 17//14 11//11 7//6
f 22//22 3//12 11//11
f 41//38 23//23 19//18
f 46//46 15//24 23//23
f 27//35 43//42 38//43
f 35//33 47//47 43//42
f 31//30 39//48 47//47
f 25//27 76//73 73//75
f 29//26 80//76 76//73
f 34//34 74//79 80//76
f 85//87 40//37 37//39
f 89//86 44//40 40//37
f 94//94 38//43 44//40
f 75//84 91//90 86//92
f 83//83 95//93 91//90
f 79//78 87//95 95//93
f 73//75 52//49 49//51
f 77//74 56//55 52//49
f 82//82 50//56 56//55
f 65//62 92//91 88//85
f 70//70 86//92 92//91
f 51//59 67//66 62//67
f 59//57 71//71 67//66
f 55//54 63//72 71//71
f 49//51 4//1 1//3
f 53//50 8//4 4//1
f 58//58 2//7 8//4
f 14//19 64//61 61//63
f 20//16 68//64 64//61
f 16//13 62//67 68//64
f 73//75 1//3 25//27
f 15//24 26//32 3//12
f 62//67 2//7 51//59
f 14//19 102//97 98//98
f 85//87 99//98 103//97
f 38//43 74//79 27//35
f 86//92 50//56 75//84
f 4//1 6//5 5//2
f 8//4 9//9 6//5
f 7//6 9//9 8//4
f 7//6 11//11 12//8
f 10//10 12//8 11//11
f 5//2 6//5 12//8
f 16//13 18//17 17//14
f 20//16 21//21 18//17
f 19//18 21//21 20//16
f 19//18 23//23 24//20
f 22//22 24//20 23//23
f 17//14 18//17 24//20
f 28//25 30//29 29//26
f 28//25 32//31 33//28
f 31//30 33//28 32//31
f 35//33 36//36 33//28
f 34//34 36//36 35//33
f 34//34 29//26 30//29
f 40//37 42//41 41//38
f 44//40 45//45 42//41
f 43//42 45//45 44//40
f 43//42 47//47 48//44
f 46//46 48//44 47//47
f 41//38 42//41 48//44
f 52//49 54//53 53//50
f 52//49 56//55 57//52
f 55//54 57//52 56//55
f 59//57 60//60 57//52
f 58//58 60//60 59//57
f 58//58 53//50 54//53
f 64//61 66//65 65//62
f 68//64 69//69 66//65
f 67//66 69//69 68//64
f 67//66 71//71 72//68
f 70//70 72//68 71//71
f 65//62 66//65 72//68
f 76//73 78//77 77//74
f 80//76 81//81 78//77
f 79//78 81//81 80//76
f 79//78 83//83 84//80
f 82//82 84//80 83//83
f 77//74 78//77 84//80
f 88//85 90//89 89//86
f 88//85 92//91 93//88
f 91//90 93//88 92//91
f 95//93 96//96 93//88
f 94//94 96//96 95//93
f 89//86 90//89 96//96
f 1//3 5//2 28//25
f 5//2 10//10 32//31
f 10//10 3//12 26//32
f 13//15 17//14 7//6
f 17//14 22//22 11//11
f 22//22 15//24 3//12
f 97//99 99//98 37//39
f 19//18 14//19 100//99
f 14//19 98//98 100//99
f 97//99 37//39 41//38
f 41//38 46//46 23//23
f 46//46 39//48 15//24
f 27//35 35//33 43//42
f 35//33 31//30 47//47
f 31//30 26//32 39//48
f 25//27 29//26 76//73
f 29//26 34//34 80//76
f 34//34 27//35 74//79
f 85//87 89//86 40//37
f 89//86 94//94 44//40
f 94//94 87//95 38//43
f 75//84 83//83 91//90
f 83//83 79//78 95//93
f 79//78 74//79 87//95
f 73//75 77//74 52//49
f 77//74 82//82 56//55
f 82//82 75//84 50//56
f 101//100 102//97 61//63
f 88//85 85//87 104//100
f 85//87 103//97 104//100
f 101//100 61//63 65//62
f 65//62 70//70 92//91
f 70//70 63//72 86//92
f 51//59 59//57 67//66
f 59//57 55//54 71//71
f 55//54 50//56 63//72
f 49//51 53//50 4//1
f 53//50 58//58 8//4
f 58//58 51//59 2//7
f 14//19 20//16 64//61
f 20//16 16//13 68//64
f 16//13 13//15 62//67
f 73//75 49//51 1//3
f 15//24 39//48 26//32
f 62//67 13//15 2//7
f 14//19 61//63 102//97
f 85//87 37//39 99//98
f 38//43 87//95 74//79
f 86//92 63//72 50//56
f 106//101 107//102 105//101
f 108//102 109//103 107//102
f 110//103 111//104 109//103
f 112//104 113//105 111//104
f 114//105 115//106 113//105
f 116//106 117//107 115//106
f 118//107 119//108 117//107
f 120//108 121//109 119//108
f 122//109 123//110 121//109
f 124//110 125//111 123//110
f 126//111 127//112 125//111
f 128//112 129//113 127//112
f 130//113 131//114 129//113
f 132//114 133//115 131//114
f 134//115 135//116 133//115
f 136//116 137//117 135//116
f 138//117 139//118 137//117
f 140//118 141//119 139//118
f 142//119 143//120 141//119
f 144//120 145//121 143//120
f 146//121 147//122 145//121
f 148//122 149//123 147//122
f 150//123 151//124 149//123
f 152//124 153//125 151//124
f 154//125 155//126 153//125
f 156//126 157//127 155//126
f 158//127 159//128 157//127
f 160//128 161//129 159//128
f 162//129 163//130 161//129
f 164//130 165//131 163//130
f 166//131 167//132 165//131
f 168//132 169//133 167//132
f 170//133 171//134 169//133
f 172//134 173//135 171//134
f 174//135 175//136 173//135
f 176//136 177//137 175//136
f 178//137 179//138 177//137
f 180//138 181//139 179//138
f 158//140 126//140 110//140
f 182//139 183//141 181//139
f 184//141 105//101 183//141
f 119//142 135//142 167//142
f 106//101 108//102 107//102
f 108//102 110//103 109//103
f 110//103 112//104 111//104
f 112//104 114//105 113//105
f 114//105 116//106 115//106
f 116//106 118//107 117//107
f 118//107 120//108 119//108
f 120//108 122//109 121//109
f 122//109 124//110 123//110
f 124//110 126//111 125//111
f 126//111 128//112 127//112
f 128//112 130//113 129//113
f 130//113 132//114 131//114
f 132//114 134//115 133//115
f 134//115 136//116 135//116
f 136//116 138//117 137//117
f 138//117 140//118 139//118
f 140//118 142//119 141//119
f 142//119 144//120 143//120
f 144//120 146//121 145//121
f 146//121 148//122 147//122
f 148//122 150//123 149//123
f 150//123 152//124 151//124
f 152//124 154//125 153//125
f 154//125 156//126 155//126
f 156//126 158//127 157//127
f 158//127 160//128 159//128
f 160//128 162//129 161//129
f 162//129 164//130 163//130
f 164//130 166//131 165//131
f 166//131 168//132 167//132
f 168//132 170//133 169//133
f 170//133 172//134 171//134
f 172//134 174//135 173//135
f 174//135 176//136 175//136
f 176//136 178//137 177//137
f 178//137 180//138 179//138
f 180//138 182//139 181//139
f 110//140 108//140 106//140
f 106//140 184//140 110//140
f 184//140 182//140 110//140
f 182//140 180//140 178//140
f 178//140 176//140 174//140
f 174//140 172//140 166//140
f 172//140 170//140 166//140
f 170//140 168//140 166//140
f 166//140 164//140 162//140
f 162//140 160//140 166//140
f 160//140 158//140 166//140
f 158//140 156//140 154//140
f 154//140 152//140 150//140
f 150//140 148//140 142//140
f 148//140 146//140 142//140
f 146//140 144//140 142//140
f 142//140 140//140 138//140
f 138//140 136//140 134//140
f 134//140 132//140 126//140
f 132//140 130//140 126//140
f 130//140 128//140 126//140
f 126//140 124//140 122//140
f 122//140 120//140 126//140
f 120//140 118//140 126//140
f 118//140 116//140 114//140
f 114//140 112//140 110//140
f 182//140 178//140 110//140
f 178//140 174//140 110//140
f 158//140 154//140 142//140
f 154//140 150//140 142//140
f 142//140 138//140 126//140
f 138//140 134//140 126//140
f 118//140 114//140 126//140
f 114//140 110//140 126//140
f 174//140 166//140 110//140
f 166//140 158//140 110//140
f 158//140 142//140 126//140
f 182//139 184//141 183//141
f 184//141 106//101 105//101
f 183//142 105//142 107//142
f 107//142 109//142 111//142
f 111//142 113//142 119//142
f 113//142 115//142 119//142
f 115//142 117//142 119//142
f 119//142 121//142 123//142
f 123//142 125//142 127//142
f 127//142 129//142 131//142
f 131//142 133//142 135//142
f 135//142 137//142 143//142
f 137//142 139//142 143//142
f 139//142 141//142 143//142
f 143//142 145//142 147//142
f 147//142 149//142 151//142
f 151//142 153//142 159//142
f 153//142 155//142 159//142
f 155//142 157//142 159//142
f 159//142 161//142 163//142
f 163//142 165//142 167//142
f 167//142 169//142 171//142
f 171//142 173//142 175//142
f 175//142 177//142 183//142
f 177//142 179//142 183//142
f 179//142 181//142 183//142
f 183//142 107//142 119//142
f 107//142 111//142 119//142
f 119//142 123//142 127//142
f 127//142 131//142 119//142
f 131//142 135//142 119//142
f 143//142 147//142 135//142
f 147//142 151//142 135//142
f 159//142 163//142 167//142
f 167//142 171//142 175//142
f 151//142 159//142 135//142
f 159//142 167//142 135//142
f 167//142 175//142 183//142
f 183//142 119//142 167//142
