# Blender 5.1.1
# www.blender.org
mtllib lid_right_marker.mtl
o lid_right_marker
v -0.019800 -0.022000 0.381000
v -0.019800 -0.022000 0.431000
v -0.019800 -0.016000 0.381000
v -0.019800 -0.016000 0.431000
v -0.018800 -0.022000 0.381000
v -0.018800 -0.022000 0.431000
v -0.018800 -0.016000 0.381000
v -0.018800 -0.016000 0.431000
v -0.019800 0.016000 0.381000
v -0.019800 0.016000 0.431000
v -0.019800 0.022000 0.381000
v -0.019800 0.022000 0.431000
v -0.018800 0.016000 0.381000
v -0.018800 0.016000 0.431000
v -0.018800 0.022000 0.381000
v -0.018800 0.022000 0.431000
v -0.019800 -0.016000 0.403000
v -0.019800 -0.016000 0.409000
v -0.019800 0.016000 0.403000
v -0.019800 0.016000 0.409000
v -0.018800 -0.016000 0.403000
v -0.018800 -0.016000 0.409000
v -0.018800 0.016000 0.403000
v -0.018800 0.016000 0.409000
v -0.019300 -0.036000 0.406000
v -0.018300 -0.036000 0.406000
v -0.019300 -0.036536 0.404000
v -0.018300 -0.036536 0.404000
v -0.019300 -0.038000 0.402536
v -0.018300 -0.038000 0.402536
v -0.019300 -0.040000 0.402000
v -0.018300 -0.040000 0.402000
v -0.019300 -0.042000 0.402536
v -0.018300 -0.042000 0.402536
v -0.019300 -0.043464 0.404000
v -0.018300 -0.043464 0.404000
v -0.019300 -0.044000 0.406000
v -0.018300 -0.044000 0.406000
v -0.019300 -0.043464 0.408000
v -0.018300 -0.043464 0.408000
v -0.019300 -0.042000 0.409464
v -0.018300 -0.042000 0.409464
v -0.019300 -0.040000 0.410000
v -0.018300 -0.040000 0.410000
v -0.019300 -0.038000 0.409464
v -0.018300 -0.038000 0.409464
v -0.019300 -0.036536 0.408000
v -0.018300 -0.036536 0.408000
v -0.019800 -0.220000 0.366000
v -0.018800 -0.220000 0.366000
v -0.018800 -0.220000 0.416000
v -0.019800 -0.180000 0.366000
v -0.018800 -0.180000 0.366000
v -0.018800 -0.180000 0.416000
v -0.019800 0.180000 0.366000
v -0.018800 0.180000 0.366000
v -0.018800 0.180000 0.416000
v -0.019800 0.220000 0.366000
v -0.018800 0.220000 0.366000
v -0.018800 0.220000 0.416000
vn -1.0000 -0.0000 -0.0000
vn -0.0000 1.0000 -0.0000
vn 1.0000 -0.0000 -0.0000
vn -0.0000 -1.0000 -0.0000
vn -0.0000 -0.0000 -1.0000
vn -0.0000 -0.0000 1.0000
vn -0.0000 0.8660 -0.5000
vn -0.0000 0.5000 -0.8660
vn -0.0000 -0.5000 -0.8660
vn -0.0000 -0.8660 -0.5000
vn -0.0000 -0.8660 0.5000
vn -0.0000 -0.5000 0.8660
vn -0.0000 0.5000 0.8660
vn -0.0000 0.8660 0.5000
vn -0.9998 -0.0000 0.0200
s 1
usemtl dock_marker
f 2//1 3//1 1//1
f 4//2 7//2 3//2
f 8//3 5//3 7//3
f 6//4 1//4 5//4
f 7//5 1//5 3//5
f 4//6 6//6 8//6
f 10//1 11//1 9//1
f 12//2 15//2 11//2
f 16//3 13//3 15//3
f 14//4 9//4 13//4
f 15//5 9//5 11//5
f 12//6 14//6 16//6
f 18//1 19//1 17//1
f 20//2 23//2 19//2
f 24//3 21//3 23//3
f 22//4 17//4 21//4
f 23//5 17//5 19//5
f 20//6 22//6 24//6
f 26//2 27//7 25//2
f 28//7 29//8 27//7
f 30//8 31//5 29//8
f 32//5 33//9 31//5
f 34//9 35//10 33//9
f 36//10 37//4 35//10
f 38//4 39//11 37//4
f 40//11 41//12 39//11
f 42//12 43//6 41//12
f 44//6 45//13 43//6
f 46//3 38//3 30//3
f 46//13 47//14 45//13
f 48//14 25//2 47//14
f 31//1 35//1 39//1
f 49//4 50//4 51//4
f 54//2 53//2 52//2
f 52//5 50//5 49//5
f 53//3 51//3 50//3
f 54//15 49//15 51//15
f 55//4 56//4 57//4
f 60//2 59//2 58//2
f 58//5 56//5 55//5
f 59//3 57//3 56//3
f 60//15 55//15 57//15
f 2//1 4//1 3//1
f 4//2 8//2 7//2
f 8//3 6//3 5//3
f 6//4 2//4 1//4
f 7//5 5//5 1//5
f 4//6 2//6 6//6
f 10//1 12//1 11//1
f 12//2 16//2 15//2
f 16//3 14//3 13//3
f 14//4 10//4 9//4
f 15//5 13//5 9//5
f 12//6 10//6 14//6
f 18//1 20//1 19//1
f 20//2 24//2 23//2
f 24//3 22//3 21//3
f 22//4 18//4 17//4
f 23//5 21//5 17//5
f 20//6 18//6 22//6
f 26//2 28//7 27//7
f 28//7 30//8 29//8
f 30//8 32//5 31//5
f 32//5 34//9 33//9
f 34//9 36//10 35//10
f 36//10 38//4 37//4
f 38//4 40//11 39//11
f 40//11 42//12 41//12
f 42//12 44//6 43//6
f 44//6 46//13 45//13
f 30//3 28//3 46//3
f 28//3 26//3 46//3
f 26//3 48//3 46//3
f 46//3 44//3 42//3
f 42//3 40//3 46//3
f 40//3 38//3 46//3
f 38//3 36//3 30//3
f 36//3 34//3 30//3
f 34//3 32//3 30//3
f 46//13 48//14 47//14
f 48//14 26//2 25//2
f 47//1 25//1 27//1
f 27//1 29//1 31//1
f 31//1 33//1 35//1
f 35//1 37//1 39//1
f 39//1 41//1 43//1
f 43//1 45//1 39//1
f 45//1 47//1 39//1
f 47//1 27//1 39//1
f 27//1 31//1 39//1
f 52//5 53//5 50//5
f 53//3 54//3 51//3
f 54//15 52//15 49//15
f 58//5 59//5 56//5
f 59//3 60//3 57//3
f 60//15 58//15 55//15
