# Blender 5.1.1
# www.blender.org
mtllib lid_left_charcoal.mtl
o lid_left_charcoal
v 0.081500 -0.282000 0.453000
v 0.071645 -0.282000 0.452224
v 0.062032 -0.282000 0.449917
v 0.052899 -0.282000 0.446133
v 0.044470 -0.282000 0.440968
v 0.036952 -0.282000 0.434548
v 0.030532 -0.282000 0.427030
v 0.025367 -0.282000 0.418601
v 0.021583 -0.282000 0.409468
v 0.019276 -0.282000 0.399855
v 0.018500 -0.282000 0.390000
v 0.081500 0.282000 0.453000
v 0.071645 0.282000 0.452224
v 0.062032 0.282000 0.449917
v 0.052899 0.282000 0.446133
v 0.044470 0.282000 0.440968
v 0.036952 0.282000 0.434548
v 0.030532 0.282000 0.427030
v 0.025367 0.282000 0.418601
v 0.021583 0.282000 0.409468
v 0.019276 0.282000 0.399855
v 0.018500 0.282000 0.390000
v 0.018500 0.282000 -0.038000
v 0.018500 -0.282000 -0.038000
v 0.066500 -0.282000 -0.038000
v 0.066500 -0.282000 0.129000
v 0.067608 -0.282000 0.143079
v 0.070905 -0.282000 0.156812
v 0.083688 -0.282000 0.181901
v 0.076309 -0.282000 0.169859
v 0.115641 -0.282000 0.209191
v 0.103599 -0.282000 0.201812
v 0.142421 -0.282000 0.217892
v 0.128688 -0.282000 0.214595
v 0.156500 -0.282000 0.219000
v 0.092860 -0.282000 0.192640
v 0.066500 0.282000 -0.038000
v 0.066500 0.282000 0.129000
v 0.067608 0.282000 0.143079
v 0.070905 0.282000 0.156812
v 0.083688 0.282000 0.181901
v 0.076309 0.282000 0.169859
v 0.115641 0.282000 0.209191
v 0.103599 0.282000 0.201812
v 0.142421 0.282000 0.217892
v 0.128688 0.282000 0.214595
v 0.156500 0.282000 0.219000
v 0.092860 0.282000 0.192640
v 0.290618 -0.282000 0.219000
v 0.290618 0.282000 0.219000
v 0.281000 -0.282000 0.468881
v 0.320000 -0.282000 0.291000
v 0.320000 -0.282000 0.290357
v 0.281000 -0.282000 0.346000
v 0.320000 0.282000 0.291000
v 0.320000 0.282000 0.290357
v 0.281000 0.282000 0.468881
v 0.281000 0.282000 0.346000
vn -0.0000 1.0000 -0.0000
vn -0.0000 -1.0000 -0.0000
vn 0.0789 -0.0000 -0.9969
vn 0.0794 -0.0000 -0.9968
vn 0.1564 -0.0000 -0.9877
vn 0.3090 -0.0000 -0.9511
vn 0.4540 -0.0000 -0.8910
vn 0.5878 -0.0000 -0.8090
vn 0.7071 -0.0000 -0.7071
vn 0.8090 -0.0000 -0.5878
vn 0.8910 -0.0000 -0.4540
vn 0.9511 -0.0000 -0.3090
vn 0.9877 -0.0000 -0.1564
vn 0.9992 -0.0000 -0.0393
vn 1.0000 -0.0000 -0.0000
s 1
usemtl dock_charcoal
f 36//1 11//1 32//1
f 22//2 48//2 44//2
f 1//3 57//4 51//4
f 2//5 12//3 1//3
f 3//6 13//5 2//5
f 4//7 14//6 3//6
f 5//8 15//7 4//7
f 6//9 16//8 5//8
f 7//10 17//9 6//9
f 8//11 18//10 7//10
f 9//12 19//11 8//11
f 10//13 20//12 9//12
f 11//14 21//13 10//13
f 22//14 24//15 23//15
f 11//1 10//1 9//1
f 9//1 8//1 7//1
f 7//1 6//1 5//1
f 5//1 4//1 3//1
f 3//1 2//1 1//1
f 1//1 51//1 54//1
f 54//1 52//1 53//1
f 53//1 49//1 54//1
f 49//1 35//1 54//1
f 35//1 33//1 1//1
f 54//1 35//1 1//1
f 1//1 33//1 11//1
f 5//1 3//1 1//1
f 9//1 7//1 5//1
f 24//1 11//1 27//1
f 11//1 9//1 5//1
f 27//1 11//1 28//1
f 26//1 25//1 24//1
f 27//1 26//1 24//1
f 11//1 5//1 1//1
f 11//1 33//1 34//1
f 28//1 11//1 30//1
f 30//1 11//1 29//1
f 34//1 31//1 11//1
f 31//1 32//1 11//1
f 29//1 11//1 36//1
f 50//2 56//2 58//2
f 56//2 55//2 58//2
f 58//2 57//2 12//2
f 47//2 50//2 58//2
f 58//2 12//2 47//2
f 12//2 13//2 22//2
f 45//2 12//2 22//2
f 13//2 14//2 15//2
f 15//2 16//2 17//2
f 17//2 18//2 15//2
f 18//2 19//2 15//2
f 19//2 20//2 21//2
f 21//2 22//2 19//2
f 22//2 23//2 39//2
f 23//2 37//2 38//2
f 23//2 38//2 39//2
f 22//2 39//2 40//2
f 19//2 22//2 13//2
f 12//2 45//2 47//2
f 13//2 15//2 19//2
f 46//2 45//2 22//2
f 22//2 40//2 42//2
f 43//2 46//2 22//2
f 22//2 42//2 41//2
f 22//2 41//2 48//2
f 44//2 43//2 22//2
f 1//3 12//3 57//4
f 2//5 13//5 12//3
f 3//6 14//6 13//5
f 4//7 15//7 14//6
f 5//8 16//8 15//7
f 6//9 17//9 16//8
f 7//10 18//10 17//9
f 8//11 19//11 18//10
f 9//12 20//12 19//11
f 10//13 21//13 20//12
f 11//14 22//14 21//13
f 22//14 11//14 24//15
