# Blender 5.1.1
# www.blender.org
mtllib lid_right_charcoal.mtl
o lid_right_charcoal
v -0.018500 -0.282000 0.390000
v -0.019276 -0.282000 0.399855
v -0.021583 -0.282000 0.409468
v -0.025367 -0.282000 0.418601
v -0.030532 -0.282000 0.427030
v -0.036952 -0.282000 0.434548
v -0.044470 -0.282000 0.440968
v -0.052899 -0.282000 0.446133
v -0.062032 -0.282000 0.449917
v -0.071645 -0.282000 0.452224
v -0.081500 -0.282000 0.453000
v -0.018500 0.282000 0.390000
v -0.019276 0.282000 0.399855
v -0.021583 0.282000 0.409468
v -0.025367 0.282000 0.418601
v -0.030532 0.282000 0.427030
v -0.036952 0.282000 0.434548
v -0.044470 0.282000 0.440968
v -0.052899 0.282000 0.446133
v -0.062032 0.282000 0.449917
v -0.071645 0.282000 0.452224
v -0.081500 0.282000 0.453000
v -0.018500 0.282000 -0.038000
v -0.018500 -0.282000 -0.038000
v -0.066500 -0.282000 -0.038000
v -0.128688 -0.282000 0.214595
v -0.103599 -0.282000 0.201812
v -0.115641 -0.282000 0.209191
v -0.142421 -0.282000 0.217892
v -0.076309 -0.282000 0.169859
v -0.083688 -0.282000 0.181901
v -0.067608 -0.282000 0.143079
v -0.066500 -0.282000 0.129000
v -0.070905 -0.282000 0.156812
v -0.092860 -0.282000 0.192640
v -0.156500 -0.282000 0.219000
v -0.066500 0.282000 -0.038000
v -0.128688 0.282000 0.214595
v -0.103599 0.282000 0.201812
v -0.115641 0.282000 0.209191
v -0.142421 0.282000 0.217892
v -0.076309 0.282000 0.169859
v -0.083688 0.282000 0.181901
v -0.067608 0.282000 0.143079
v -0.066500 0.282000 0.129000
v -0.070905 0.282000 0.156812
v -0.092860 0.282000 0.192640
v -0.156500 0.282000 0.219000
v -0.311500 -0.282000 0.294000
v -0.289441 -0.282000 0.219000
v -0.311500 0.282000 0.294000
v -0.289441 0.282000 0.219000
v -0.349000 -0.282000 0.468911
v -0.310000 -0.282000 0.288900
v -0.310000 -0.282000 0.291000
v -0.311055 -0.282000 0.292488
v -0.311730 -0.282000 0.293440
v -0.349000 -0.282000 0.346000
v -0.310000 0.282000 0.288900
v -0.310000 0.282000 0.291000
v -0.311055 0.282000 0.292488
v -0.311730 0.282000 0.293440
v -0.349000 0.282000 0.468911
v -0.349000 0.282000 0.346000
vn -0.0000 1.0000 -0.0000
vn -0.0000 -1.0000 -0.0000
vn -0.9992 -0.0000 -0.0393
vn -1.0000 -0.0000 -0.0000
vn -0.9877 -0.0000 -0.1564
vn -0.9511 -0.0000 -0.3090
vn -0.8910 -0.0000 -0.4540
vn -0.8090 -0.0000 -0.5878
vn -0.7071 -0.0000 -0.7071
vn -0.5878 -0.0000 -0.8090
vn -0.4540 -0.0000 -0.8910
vn -0.3090 -0.0000 -0.9511
vn -0.1564 -0.0000 -0.9877
vn -0.0689 -0.0000 -0.9976
vn -0.0594 -0.0000 -0.9982
vn -0.0000 1.0000 -0.0001
s 1
usemtl dock_charcoal
f 1//1 28//1 26//1
f 39//2 47//2 12//2
f 1//3 23//4 24//4
f 2//5 12//3 1//3
f 3//6 13//5 2//5
f 4//7 14//6 3//6
f 5//8 15//7 4//7
f 6//9 16//8 5//8
f 7//10 17//9 6//9
f 8//11 18//10 7//10
f 9//12 19//11 8//11
f 10//13 20//12 9//12
f 11//14 21//13 10//13
f 11//14 63//15 22//14
f 49//1 57//16 58//1
f 58//1 53//1 11//1
f 11//1 10//1 9//1
f 9//1 8//1 7//1
f 7//1 6//1 9//1
f 6//1 5//1 9//1
f 5//1 4//1 1//1
f 4//1 3//1 1//1
f 3//1 2//1 1//1
f 1//1 24//1 32//1
f 24//1 25//1 33//1
f 24//1 33//1 32//1
f 58//1 11//1 49//1
f 11//1 9//1 1//1
f 49//1 11//1 36//1
f 55//1 56//1 49//1
f 9//1 5//1 1//1
f 1//1 32//1 34//1
f 11//1 1//1 29//1
f 49//1 36//1 55//1
f 50//1 54//1 36//1
f 54//1 55//1 36//1
f 36//1 11//1 29//1
f 1//1 34//1 30//1
f 1//1 30//1 31//1
f 1//1 31//1 35//1
f 1//1 35//1 27//1
f 26//1 29//1 1//1
f 1//1 27//1 28//1
f 64//2 62//2 51//2
f 51//2 61//2 60//2
f 60//2 59//2 48//2
f 59//2 52//2 48//2
f 63//2 64//2 22//2
f 64//2 51//2 22//2
f 51//2 60//2 48//2
f 51//2 48//2 22//2
f 48//2 41//2 22//2
f 20//2 21//2 22//2
f 18//2 19//2 20//2
f 16//2 17//2 20//2
f 17//2 18//2 20//2
f 14//2 15//2 12//2
f 15//2 16//2 12//2
f 12//2 13//2 14//2
f 37//2 23//2 45//2
f 23//2 12//2 44//2
f 45//2 23//2 44//2
f 20//2 22//2 16//2
f 12//2 41//2 38//2
f 22//2 41//2 12//2
f 38//2 40//2 12//2
f 22//2 12//2 16//2
f 44//2 12//2 46//2
f 46//2 12//2 42//2
f 40//2 39//2 12//2
f 42//2 12//2 43//2
f 43//2 12//2 47//2
f 1//3 12//3 23//4
f 2//5 13//5 12//3
f 3//6 14//6 13//5
f 4//7 15//7 14//6
f 5//8 16//8 15//7
f 6//9 17//9 16//8
f 7//10 18//10 17//9
f 8//11 19//11 18//10
f 9//12 20//12 19//11
f 10//13 21//13 20//12
f 11//14 22//14 21//13
f 11//14 53//15 63//15
