# Blender 5.1.1
# www.blender.org
mtllib pad_black.mtl
o pad_black
v -0.262000 -0.052000 0.311000
v -0.262000 -0.052000 0.314000
v -0.262000 0.052000 0.311000
v -0.262000 0.052000 0.314000
v 0.262000 -0.052000 0.311000
v 0.262000 -0.052000 0.314000
v 0.262000 0.052000 0.311000
v 0.262000 0.052000 0.314000
vn -1.0000 -0.0000 -0.0000
vn -0.0000 1.0000 -0.0000
vn 1.0000 -0.0000 -0.0000
vn -0.0000 -1.0000 -0.0000
vn -0.0000 -0.0000 -1.0000
vn -0.0000 -0.0000 1.0000
s 1
usemtl dock_black
f 2//1 3//1 1//1
f 4//2 7//2 3//2
f 8//3 5//3 7//3
f 6//4 1//4 5//4
f 7//5 1//5 3//5
f 4//6 6//6 8//6
f 2//1 4//1 3//1
f 4//2 8//2 7//2
f 8//3 6//3 5//3
f 6//4 2//4 1//4
f 7//5 5//5 1//5
f 4//6 2//6 6//6
