mtllib bolt_cutters_main.mtl
usemtl bolt_cutters_main
v -0.01503 -0.09493 0.03559
v 0.02001 0.09128 0.09961
v 0.01428 0.09033 0.10551
v -0.02076 -0.09588 0.04150
v 0.01222 0.08807 0.11321
v -0.02282 -0.09814 0.04919
v 0.01438 0.08511 0.12064
v -0.02066 -0.10110 0.05662
v 0.02018 0.08224 0.12580
v -0.01486 -0.10396 0.06179
v 0.02807 0.08024 0.12733
v -0.00697 -0.10597 0.06331
v 0.03594 0.07963 0.12480
v 0.00089 -0.10658 0.06078
v 0.04167 0.08058 0.11889
v 0.00662 -0.10563 0.05488
v 0.04373 0.08284 0.11119
v 0.00868 -0.10337 0.04718
v 0.04156 0.08580 0.10377
v 0.00652 -0.10041 0.03975
v 0.03576 0.08867 0.09860
v 0.00072 -0.09754 0.03458
v 0.02787 0.09067 0.09708
v -0.00717 -0.09554 0.03306
v -0.00089 0.10658 0.06655
v -0.03594 -0.07963 0.00253
v -0.00662 0.10563 0.07245
v -0.04167 -0.08058 0.00844
v -0.00868 0.10337 0.08015
v -0.04373 -0.08284 0.01613
v -0.00652 0.10041 0.08758
v -0.04156 -0.08580 0.02356
v -0.00072 0.09754 0.09274
v -0.03576 -0.08867 0.02873
v 0.00717 0.09554 0.09426
v -0.02787 -0.09067 0.03025
v 0.01503 0.09493 0.09173
v -0.02001 -0.09128 0.02772
v 0.02076 0.09588 0.08583
v -0.01428 -0.09033 0.02181
v 0.02282 0.09814 0.07813
v -0.01222 -0.08807 0.01412
v 0.02066 0.10110 0.07071
v -0.01438 -0.08511 0.00669
v 0.01486 0.10396 0.06554
v -0.02018 -0.08224 0.00152
v 0.00697 0.10597 0.06402
v -0.02807 -0.08024 0.00000
vn 0.1752 0.9310 0.3201
vn 0.1752 0.9310 0.3201
vn 0.1752 0.9310 0.3201
vn -0.1752 -0.9310 -0.3201
vn -0.1752 -0.9310 -0.3201
vn -0.1752 -0.9310 -0.3201
vn -0.5944 0.1730 -0.7853
vn -0.7970 0.3768 -0.4719
vn -0.4189 0.3713 -0.8286
vn 0.1752 0.9310 0.3201
vn 0.1752 0.9310 0.3201
vn 0.1752 0.9310 0.3201
vn 0.7914 0.0042 -0.6113
vn 0.3821 0.1024 -0.9184
vn 0.5623 0.1794 -0.8073
vn -0.8969 0.2791 -0.3431
vn -0.9799 0.1986 -0.0191
vn -0.7970 0.3768 -0.4719
vn 0.3821 0.1024 -0.9184
vn -0.0951 0.3328 -0.9382
vn 0.1206 0.5224 -0.8442
vn 0.9751 -0.1586 -0.1553
vn 0.7914 0.0042 -0.6113
vn 0.8993 0.0449 -0.4350
vn -0.9946 0.0102 0.1034
vn -0.8208 0.2378 0.5194
vn -0.9799 0.1986 -0.0191
vn -0.1752 -0.9310 -0.3201
vn -0.1752 -0.9310 -0.3201
vn -0.1752 -0.9310 -0.3201
vn 0.8944 -0.2923 0.3385
vn 0.9751 -0.1586 -0.1553
vn 0.9824 -0.1854 0.0236
vn -0.8100 -0.1030 0.5773
vn -0.5598 -0.1661 0.8118
vn -0.8208 0.2378 0.5194
vn -0.1752 -0.9310 -0.3201
vn -0.1752 -0.9310 -0.3201
vn -0.1752 -0.9310 -0.3201
vn 0.4955 -0.6165 0.6119
vn 0.8944 -0.2923 0.3385
vn 0.8278 -0.1094 0.5503
vn -0.4133 -0.2516 0.8752
vn -0.0767 -0.2855 0.9553
vn -0.5598 -0.1661 0.8118
vn -0.1752 -0.9310 -0.3201
vn -0.1752 -0.9310 -0.3201
vn -0.1752 -0.9310 -0.3201
vn 0.0926 -0.3460 0.9336
vn 0.4955 -0.6165 0.6119
vn 0.4288 -0.3148 0.8468
vn 0.0926 -0.3460 0.9336
vn 0.4288 -0.3148 0.8468
vn -0.0767 -0.2855 0.9553
vn -0.1752 -0.9310 -0.3201
vn -0.1752 -0.9310 -0.3201
vn -0.1752 -0.9310 -0.3201
vn -0.4133 -0.2516 0.8752
vn 0.0926 -0.3460 0.9336
vn -0.0767 -0.2855 0.9553
vn 0.4955 -0.6165 0.6119
vn 0.8278 -0.1094 0.5503
vn 0.4288 -0.3148 0.8468
vn -0.1752 -0.9310 -0.3201
vn -0.1752 -0.9310 -0.3201
vn -0.1752 -0.9310 -0.3201
vn -0.8100 -0.1030 0.5773
vn -0.4133 -0.2516 0.8752
vn -0.5598 -0.1661 0.8118
vn 0.8944 -0.2923 0.3385
vn 0.9824 -0.1854 0.0236
vn 0.8278 -0.1094 0.5503
vn -0.1752 -0.9310 -0.3201
vn -0.1752 -0.9310 -0.3201
vn -0.1752 -0.9310 -0.3201
vn -0.9946 0.0102 0.1034
vn -0.8100 -0.1030 0.5773
vn -0.8208 0.2378 0.5194
vn 0.9751 -0.1586 -0.1553
vn 0.8993 0.0449 -0.4350
vn 0.9824 -0.1854 0.0236
vn -0.1752 -0.9310 -0.3201
vn -0.1752 -0.9310 -0.3201
vn -0.1752 -0.9310 -0.3201
vn -0.8969 0.2791 -0.3431
vn -0.9946 0.0102 0.1034
vn -0.9799 0.1986 -0.0191
vn 0.7914 0.0042 -0.6113
vn 0.5623 0.1794 -0.8073
vn 0.8993 0.0449 -0.4350
vn -0.1752 -0.9310 -0.3201
vn -0.1752 -0.9310 -0.3201
vn -0.1752 -0.9310 -0.3201
vn -0.5944 0.1730 -0.7853
vn -0.8969 0.2791 -0.3431
vn -0.7970 0.3768 -0.4719
vn 0.3821 0.1024 -0.9184
vn 0.1206 0.5224 -0.8442
vn 0.5623 0.1794 -0.8073
vn -0.0951 0.3328 -0.9382
vn -0.5944 0.1730 -0.7853
vn -0.4189 0.3713 -0.8286
vn -0.1752 -0.9310 -0.3201
vn -0.1752 -0.9310 -0.3201
vn -0.1752 -0.9310 -0.3201
vn -0.0951 0.3328 -0.9382
vn -0.4189 0.3713 -0.8286
vn 0.1206 0.5224 -0.8442
vn 0.1752 0.9310 0.3201
vn 0.1752 0.9310 0.3201
vn 0.1752 0.9310 0.3201
vn 0.1752 0.9310 0.3201
vn 0.1752 0.9310 0.3201
vn 0.1752 0.9310 0.3201
vn 0.1752 0.9310 0.3201
vn 0.1752 0.9310 0.3201
vn 0.1752 0.9310 0.3201
vn 0.1752 0.9310 0.3201
vn 0.1752 0.9310 0.3201
vn 0.1752 0.9310 0.3201
vn 0.1752 0.9310 0.3201
vn 0.1752 0.9310 0.3201
vn 0.1752 0.9310 0.3201
vn 0.1752 0.9310 0.3201
vn 0.1752 0.9310 0.3201
vn 0.1752 0.9310 0.3201
vn 0.1752 0.9310 0.3201
vn 0.1752 0.9310 0.3201
vn 0.1752 0.9310 0.3201
vn 0.1752 0.9310 0.3201
vn 0.1752 0.9310 0.3201
vn 0.1752 0.9310 0.3201
vn 0.1752 0.9310 0.3201
vn 0.1752 0.9310 0.3201
vn 0.1752 0.9310 0.3201
vn -0.1752 -0.9310 -0.3201
vn -0.1752 -0.9310 -0.3201
vn -0.1752 -0.9310 -0.3201
vn -0.5808 0.3043 -0.7551
vn -0.8041 0.3460 -0.4834
vn -0.4189 0.3713 -0.8286
vn 0.1752 0.9310 0.3201
vn 0.1752 0.9310 0.3201
vn 0.1752 0.9310 0.3201
vn 0.8006 0.0471 -0.5974
vn 0.3555 -0.0004 -0.9347
vn 0.5623 0.1794 -0.8073
vn -0.8969 0.2791 -0.3431
vn -0.9705 0.2411 -0.0044
vn -0.8041 0.3460 -0.4834
vn 0.3555 -0.0004 -0.9347
vn -0.0951 0.3328 -0.9382
vn 0.1226 0.5334 -0.8369
vn 0.9677 -0.1897 -0.1658
vn 0.8006 0.0471 -0.5974
vn 0.8947 0.0136 -0.4464
vn -0.9932 -0.0971 0.0644
vn -0.8303 0.2151 0.5142
vn -0.9705 0.2411 -0.0044
vn -0.1752 -0.9310 -0.3201
vn -0.1752 -0.9310 -0.3201
vn -0.1752 -0.9310 -0.3201
vn 0.8944 -0.2923 0.3385
vn 0.9677 -0.1897 -0.1658
vn 0.9891 -0.1423 0.0383
vn -0.8031 -0.0603 0.5928
vn -0.5598 -0.1661 0.8118
vn -0.8303 0.2151 0.5142
vn -0.1752 -0.9310 -0.3201
vn -0.1752 -0.9310 -0.3201
vn -0.1752 -0.9310 -0.3201
vn 0.5189 -0.5564 0.6490
vn 0.8944 -0.2923 0.3385
vn 0.8278 -0.1094 0.5503
vn -0.4133 -0.2516 0.8752
vn -0.0707 -0.2538 0.9647
vn -0.5598 -0.1661 0.8118
vn -0.1752 -0.9310 -0.3201
vn -0.1752 -0.9310 -0.3201
vn -0.1752 -0.9310 -0.3201
vn 0.0844 -0.3883 0.9176
vn 0.5189 -0.5564 0.6490
vn 0.4214 -0.3581 0.8332
vn 0.0844 -0.3883 0.9176
vn 0.4214 -0.3581 0.8332
vn -0.0707 -0.2538 0.9647
vn -0.1752 -0.9310 -0.3201
vn -0.1752 -0.9310 -0.3201
vn -0.1752 -0.9310 -0.3201
vn -0.4133 -0.2516 0.8752
vn 0.0844 -0.3883 0.9176
vn -0.0707 -0.2538 0.9647
vn 0.5189 -0.5564 0.6490
vn 0.8278 -0.1094 0.5503
vn 0.4214 -0.3581 0.8332
vn -0.1752 -0.9310 -0.3201
vn -0.1752 -0.9310 -0.3201
vn -0.1752 -0.9310 -0.3201
vn -0.8031 -0.0603 0.5928
vn -0.4133 -0.2516 0.8752
vn -0.5598 -0.1661 0.8118
vn 0.8944 -0.2923 0.3385
vn 0.9891 -0.1423 0.0383
vn 0.8278 -0.1094 0.5503
vn -0.1752 -0.9310 -0.3201
vn -0.1752 -0.9310 -0.3201
vn -0.1752 -0.9310 -0.3201
vn -0.9932 -0.0971 0.0644
vn -0.8031 -0.0603 0.5928
vn -0.8303 0.2151 0.5142
vn 0.9677 -0.1897 -0.1658
vn 0.8947 0.0136 -0.4464
vn 0.9891 -0.1423 0.0383
vn -0.1752 -0.9310 -0.3201
vn -0.1752 -0.9310 -0.3201
vn -0.1752 -0.9310 -0.3201
vn -0.8969 0.2791 -0.3431
vn -0.9932 -0.0971 0.0644
vn -0.9705 0.2411 -0.0044
vn 0.8006 0.0471 -0.5974
vn 0.5623 0.1794 -0.8073
vn 0.8947 0.0136 -0.4464
vn -0.1752 -0.9310 -0.3201
vn -0.1752 -0.9310 -0.3201
vn -0.1752 -0.9310 -0.3201
vn -0.5808 0.3043 -0.7551
vn -0.8969 0.2791 -0.3431
vn -0.8041 0.3460 -0.4834
vn 0.3555 -0.0004 -0.9347
vn 0.1226 0.5334 -0.8369
vn 0.5623 0.1794 -0.8073
vn -0.0951 0.3328 -0.9382
vn -0.5808 0.3043 -0.7551
vn -0.4189 0.3713 -0.8286
vn -0.1752 -0.9310 -0.3201
vn -0.1752 -0.9310 -0.3201
vn -0.1752 -0.9310 -0.3201
vn -0.0951 0.3328 -0.9382
vn -0.4189 0.3713 -0.8286
vn 0.1226 0.5334 -0.8369
vn 0.1752 0.9310 0.3201
vn 0.1752 0.9310 0.3201
vn 0.1752 0.9310 0.3201
vn 0.1752 0.9310 0.3201
vn 0.1752 0.9310 0.3201
vn 0.1752 0.9310 0.3201
vn 0.1752 0.9310 0.3201
vn 0.1752 0.9310 0.3201
vn 0.1752 0.9310 0.3201
vn 0.1752 0.9310 0.3201
vn 0.1752 0.9310 0.3201
vn 0.1752 0.9310 0.3201
vn 0.1752 0.9310 0.3201
vn 0.1752 0.9310 0.3201
vn 0.1752 0.9310 0.3201
vn 0.1752 0.9310 0.3201
vn 0.1752 0.9310 0.3201
vn 0.1752 0.9310 0.3201
vn 0.1752 0.9310 0.3201
vn 0.1752 0.9310 0.3201
vn 0.1752 0.9310 0.3201
vn 0.1752 0.9310 0.3201
vn 0.1752 0.9310 0.3201
vn 0.1752 0.9310 0.3201
f 23//1 2//2 3//3
f 6//4 4//5 1//6
f 1//7 3//8 2//9
f 3//10 5//11 7//12
f 20//13 22//14 21//15
f 4//16 5//17 3//18
f 22//19 24//20 23//21
f 18//22 20//23 19//24
f 6//25 7//26 5//27
f 6//28 1//29 14//30
f 16//31 18//32 17//33
f 8//34 9//35 7//36
f 8//37 6//38 14//39
f 14//40 16//41 15//42
f 10//43 11//44 9//45
f 10//46 8//47 14//48
f 12//49 14//50 13//51
f 12//52 13//53 11//54
f 14//55 12//56 10//57
f 10//58 12//59 11//60
f 14//61 15//62 13//63
f 18//64 16//65 14//66
f 8//67 10//68 9//69
f 16//70 17//71 15//72
f 20//73 18//74 14//75
f 6//76 8//77 7//78
f 18//79 19//80 17//81
f 22//82 20//83 14//84
f 4//85 6//86 5//87
f 20//88 21//89 19//90
f 1//91 22//92 14//93
f 1//94 4//95 3//96
f 22//97 23//98 21//99
f 24//100 1//101 2//102
f 1//103 24//104 22//105
f 24//106 2//107 23//108
f 7//109 15//110 23//111
f 7//112 9//113 11//114
f 11//115 13//116 7//117
f 13//118 15//119 7//120
f 15//121 17//122 19//123
f 19//124 21//125 23//126
f 23//127 3//128 7//129
f 15//130 19//131 23//132
f 47//133 25//134 27//135
f 30//136 28//137 26//138
f 26//139 27//140 25//141
f 27//142 29//143 47//144
f 44//145 46//146 45//147
f 28//148 29//149 27//150
f 46//151 48//152 47//153
f 42//154 44//155 43//156
f 30//157 31//158 29//159
f 46//160 42//161 38//162
f 40//163 42//164 41//165
f 32//166 33//167 31//168
f 30//169 26//170 46//171
f 38//172 40//173 39//174
f 34//175 35//176 33//177
f 34//178 32//179 30//180
f 36//181 38//182 37//183
f 36//184 37//185 35//186
f 36//187 34//188 30//189
f 34//190 36//191 35//192
f 38//193 39//194 37//195
f 38//196 36//197 30//198
f 32//199 34//200 33//201
f 40//202 41//203 39//204
f 42//205 40//206 38//207
f 30//208 32//209 31//210
f 42//211 43//212 41//213
f 46//214 44//215 42//216
f 28//217 30//218 29//219
f 44//220 45//221 43//222
f 46//223 38//224 30//225
f 26//226 28//227 27//228
f 46//229 47//230 45//231
f 48//232 26//233 25//234
f 26//235 48//236 46//237
f 48//238 25//239 47//240
f 31//241 39//242 47//243
f 29//244 31//245 47//246
f 31//247 33//248 35//249
f 35//250 37//251 39//252
f 39//253 41//254 47//255
f 41//256 43//257 47//258
f 43//259 45//260 47//261
f 31//262 35//263 39//264
