mtllib cable_coil_thin_trim.mtl
usemtl cable_coil_thin_trim
v -0.01229 0.18557 0.29709
v -0.02214 0.17719 0.29196
v -0.02761 0.16509 0.28454
v -0.02761 0.15166 0.27631
v -0.02214 0.13956 0.26889
v -0.01229 0.13119 0.26375
v 0.00000 0.12820 0.26192
v 0.01229 0.13119 0.26375
v 0.02214 0.13956 0.26889
v 0.02761 0.15166 0.27631
v 0.02761 0.16509 0.28454
v 0.02214 0.17719 0.29196
v 0.01229 0.18557 0.29709
v 0.00000 0.18856 0.29893
v 0.00000 0.18452 0.30527
v 0.01229 0.18160 0.30333
v 0.02214 0.17340 0.29792
v 0.02761 0.16155 0.29011
v 0.02761 0.14840 0.28143
v 0.02214 0.13656 0.27361
v 0.01229 0.12836 0.26820
v 0.00000 0.12543 0.26627
v -0.01229 0.12836 0.26820
v -0.02214 0.13656 0.27361
v -0.02761 0.14840 0.28143
v -0.02761 0.16155 0.29011
v -0.02214 0.17340 0.29792
v -0.01229 0.18160 0.30333
v 0.00000 0.18028 0.31147
v 0.01229 0.17742 0.30944
v 0.02214 0.16941 0.30376
v 0.02761 0.15783 0.29555
v 0.02761 0.14498 0.28644
v 0.02214 0.13340 0.27823
v 0.01229 0.12538 0.27255
v 0.00000 0.12252 0.27052
v -0.01229 0.12538 0.27255
v -0.02214 0.13340 0.27823
v -0.02761 0.14498 0.28644
v -0.02761 0.15783 0.29555
v -0.02214 0.16941 0.30376
v -0.01229 0.17742 0.30944
v 0.00000 0.17583 0.31752
v 0.01229 0.17304 0.31540
v 0.02214 0.16522 0.30946
v 0.02761 0.15392 0.30087
v 0.02761 0.14138 0.29133
v 0.02214 0.13008 0.28274
v 0.01229 0.12226 0.27680
v 0.00000 0.11947 0.27468
v -0.01229 0.12226 0.27680
v -0.02214 0.13008 0.28274
v -0.02761 0.14138 0.29133
v -0.02761 0.15392 0.30087
v -0.02214 0.16522 0.30946
v -0.01229 0.17304 0.31540
v 0.00000 -0.12698 0.36975
v 0.01229 -0.12506 0.36682
v 0.02214 -0.11968 0.35860
v 0.02761 -0.11191 0.34672
v 0.02761 -0.10329 0.33353
v 0.02214 -0.09552 0.32165
v 0.01229 -0.09014 0.31343
v 0.00000 -0.08822 0.31050
v -0.01229 -0.09014 0.31343
v -0.02214 -0.09552 0.32165
v -0.02761 -0.10329 0.33353
v -0.02761 -0.11191 0.34672
v -0.02214 -0.11968 0.35860
v -0.01229 -0.12506 0.36682
v 0.00000 -0.13320 0.36553
v 0.01229 -0.13118 0.36267
v 0.02214 -0.12553 0.35463
v 0.02761 -0.11737 0.34302
v 0.02761 -0.10831 0.33012
v 0.02214 -0.10015 0.31851
v 0.01229 -0.09450 0.31047
v 0.00000 -0.09249 0.30761
v -0.01229 -0.09450 0.31047
v -0.02214 -0.10015 0.31851
v -0.02761 -0.10831 0.33012
v -0.02761 -0.11737 0.34302
v -0.02214 -0.12553 0.35463
v -0.01229 -0.13118 0.36267
v 0.00000 -0.13927 0.36111
v 0.01229 -0.13716 0.35831
v 0.02214 -0.13125 0.35047
v 0.02761 -0.12270 0.33913
v 0.02761 -0.11322 0.32655
v 0.02214 -0.10468 0.31522
v 0.01229 -0.09877 0.30737
v 0.00000 -0.09666 0.30457
v -0.01229 -0.09877 0.30737
v -0.02214 -0.10468 0.31522
v -0.02761 -0.11322 0.32655
v -0.02761 -0.12270 0.33913
v -0.02214 -0.13125 0.35047
v -0.01229 -0.13716 0.35831
v 0.00000 -0.14519 0.35649
v 0.01229 -0.14299 0.35376
v 0.02214 -0.13682 0.34612
v 0.02761 -0.12790 0.33508
v 0.02761 -0.11801 0.32282
v 0.02214 -0.10909 0.31177
v 0.01229 -0.10292 0.30413
v 0.00000 -0.10072 0.30140
v -0.01229 -0.10292 0.30413
v -0.02214 -0.10909 0.31177
v -0.02761 -0.11801 0.32282
v -0.02761 -0.12790 0.33508
v -0.02214 -0.13682 0.34612
v -0.01229 -0.14299 0.35376
v 0.00000 -0.18856 0.05228
v 0.01229 -0.18568 0.05429
v 0.02214 -0.17762 0.05990
v 0.02761 -0.16597 0.06801
v 0.02761 -0.15305 0.07702
v 0.02214 -0.14140 0.08513
v 0.01229 -0.13334 0.09075
v 0.00000 -0.13046 0.09275
v -0.01229 -0.13334 0.09075
v -0.02214 -0.14140 0.08513
v -0.02761 -0.15305 0.07702
v -0.02761 -0.16597 0.06801
v -0.02214 -0.17762 0.05990
v -0.01229 -0.18568 0.05429
v 0.00000 -0.18416 0.04619
v 0.01229 -0.18135 0.04829
v 0.02214 -0.17348 0.05417
v 0.02761 -0.16211 0.06267
v 0.02761 -0.14949 0.07210
v 0.02214 -0.13812 0.08059
v 0.01229 -0.13025 0.08647
v 0.00000 -0.12745 0.08857
v -0.01229 -0.13025 0.08647
v -0.02214 -0.13812 0.08059
v -0.02761 -0.14949 0.07210
v -0.02761 -0.16211 0.06267
v -0.02214 -0.17348 0.05417
v -0.01229 -0.18135 0.04829
v 0.00000 -0.17956 0.04025
v 0.01229 -0.17683 0.04244
v 0.02214 -0.16916 0.04858
v 0.02761 -0.15808 0.05745
v 0.02761 -0.14578 0.06729
v 0.02214 -0.13470 0.07617
v 0.01229 -0.12703 0.08230
v 0.00000 -0.12429 0.08450
v -0.01229 -0.12703 0.08230
v -0.02214 -0.13470 0.07617
v -0.02761 -0.14578 0.06729
v -0.02761 -0.15808 0.05745
v -0.02214 -0.16916 0.04858
v -0.01229 -0.17683 0.04244
v 0.00000 -0.17477 0.03446
v 0.01229 -0.17211 0.03674
v 0.02214 -0.16465 0.04313
v 0.02761 -0.15387 0.05237
v 0.02761 -0.14191 0.06262
v 0.02214 -0.13113 0.07185
v 0.01229 -0.12367 0.07825
v 0.00000 -0.12101 0.08053
v -0.01229 -0.12367 0.07825
v -0.02214 -0.13113 0.07185
v -0.02761 -0.14191 0.06262
v -0.02761 -0.15387 0.05237
v -0.02214 -0.16465 0.04313
v -0.01229 -0.17211 0.03674
v 0.00000 0.13057 0.00000
v 0.01229 0.12849 0.00282
v 0.02214 0.12264 0.01071
v 0.02761 0.11419 0.02212
v 0.02761 0.10481 0.03477
v 0.02214 0.09636 0.04618
v 0.01229 0.09051 0.05407
v 0.00000 0.08843 0.05689
v -0.01229 0.09051 0.05407
v -0.02214 0.09636 0.04618
v -0.02761 0.10481 0.03477
v -0.02761 0.11419 0.02212
v -0.02214 0.12264 0.01071
v -0.01229 0.12849 0.00282
v 0.00000 0.13653 0.00457
v 0.01229 0.13435 0.00732
v 0.02214 0.12825 0.01501
v 0.02761 0.11942 0.02613
v 0.02761 0.10963 0.03847
v 0.02214 0.10080 0.04959
v 0.01229 0.09470 0.05728
v 0.00000 0.09252 0.06003
v -0.01229 0.09470 0.05728
v -0.02214 0.10080 0.04959
v -0.02761 0.10963 0.03847
v -0.02761 0.11942 0.02613
v -0.02214 0.12825 0.01501
v -0.01229 0.13435 0.00732
v 0.00000 0.14234 0.00934
v 0.01229 0.14007 0.01201
v 0.02214 0.13371 0.01950
v 0.02761 0.12452 0.03032
v 0.02761 0.11432 0.04232
v 0.02214 0.10513 0.05314
v 0.01229 0.09877 0.06062
v 0.00000 0.09650 0.06330
v -0.01229 0.09877 0.06062
v -0.02214 0.10513 0.05314
v -0.02761 0.11432 0.04232
v -0.02761 0.12452 0.03032
v -0.02214 0.13371 0.01950
v -0.01229 0.14007 0.01201
v 0.00000 0.14798 0.01430
v 0.01229 0.14563 0.01689
v 0.02214 0.13902 0.02416
v 0.02761 0.12947 0.03467
v 0.02761 0.11888 0.04633
v 0.02214 0.10933 0.05683
v 0.01229 0.10273 0.06410
v 0.00000 0.10037 0.06670
v -0.01229 0.10273 0.06410
v -0.02214 0.10933 0.05683
v -0.02761 0.11888 0.04633
v -0.02761 0.12947 0.03467
v -0.02214 0.13902 0.02416
v -0.01229 0.14563 0.01689
vn 0.1542 0.7588 -0.6328
vn -0.0899 0.9619 0.2581
vn 0.0563 0.8351 0.5472
vn 0.7059 0.5976 0.3802
vn 0.1542 0.7588 -0.6328
vn 0.5135 0.7158 0.4732
vn 0.9331 0.3033 0.1930
vn 0.9331 0.3033 0.1930
vn 0.8562 0.4302 0.2860
vn 1.0000 0.0000 0.0000
vn 1.0000 0.0000 0.0000
vn 0.9894 0.1214 0.0801
vn 0.9331 -0.3033 -0.1930
vn 0.9331 -0.3033 -0.1930
vn 0.9846 -0.1462 -0.0954
vn 0.1759 0.2458 -0.9532
vn 0.7059 -0.5976 -0.3802
vn 0.8296 -0.4654 -0.3084
vn 0.1759 0.2458 -0.9532
vn 0.4713 -0.7344 -0.4884
vn 0.0000 -0.8377 -0.5461
vn -0.2284 0.0500 -0.9723
vn 0.0000 -0.4005 -0.9163
vn 0.0000 -0.8377 -0.5461
vn -0.7059 -0.5976 -0.3802
vn -0.2284 0.0500 -0.9723
vn -0.5507 -0.6955 -0.4616
vn -0.9331 -0.3033 -0.1930
vn -0.9331 -0.3033 -0.1930
vn -0.8663 -0.4177 -0.2740
vn -1.0000 0.0000 0.0000
vn -0.9846 -0.1452 -0.0969
vn -0.9829 0.1544 0.1006
vn -0.9331 0.3033 0.1930
vn -0.9331 0.3033 0.1930
vn -0.9829 0.1544 0.1006
vn -0.7059 0.5976 0.3802
vn -0.8638 0.4199 0.2785
vn -0.5124 0.7167 0.4730
vn -0.0899 0.9619 0.2581
vn -0.2615 0.8209 -0.5077
vn -0.5124 0.7167 0.4730
vn 0.5135 0.7158 0.4732
vn 0.0563 0.8351 0.5472
vn 0.0000 0.8158 0.5783
vn 0.8562 0.4302 0.2860
vn 0.5135 0.7158 0.4732
vn 0.5573 0.6788 0.4782
vn 0.8562 0.4302 0.2860
vn 0.8409 0.4398 0.3155
vn 0.9872 0.1305 0.0914
vn 0.9846 -0.1462 -0.0954
vn 0.9894 0.1214 0.0801
vn 0.9872 0.1305 0.0914
vn 0.8296 -0.4654 -0.3084
vn 0.9846 -0.1462 -0.0954
vn 0.9769 -0.1751 -0.1228
vn 0.8296 -0.4654 -0.3084
vn 0.8663 -0.4067 -0.2900
vn 0.5507 -0.6797 -0.4845
vn 0.4713 -0.7344 -0.4884
vn 0.5507 -0.6797 -0.4845
vn -0.0412 -0.8165 -0.5759
vn -0.5507 -0.6955 -0.4616
vn 0.0000 -0.8377 -0.5461
vn -0.0412 -0.8165 -0.5759
vn -0.5507 -0.6955 -0.4616
vn -0.5609 -0.6739 -0.4809
vn -0.8620 -0.4144 -0.2919
vn -0.9846 -0.1452 -0.0969
vn -0.8663 -0.4177 -0.2740
vn -0.8620 -0.4144 -0.2919
vn -0.9846 -0.1452 -0.0969
vn -0.9837 -0.1465 -0.1039
vn -0.9872 0.1305 0.0914
vn -0.8638 0.4199 0.2785
vn -0.9829 0.1544 0.1006
vn -0.9872 0.1305 0.0914
vn -0.5124 0.7167 0.4730
vn -0.8638 0.4199 0.2785
vn -0.8235 0.4623 0.3288
vn -0.5124 0.7167 0.4730
vn -0.5157 0.6989 0.4955
vn 0.0000 0.8158 0.5783
vn 0.0000 0.8158 0.5783
vn 0.2743 0.7751 0.5691
vn 0.2743 0.7751 0.5691
vn 0.8409 0.4398 0.3155
vn 0.5573 0.6788 0.4782
vn 0.7059 0.5709 0.4192
vn 0.8409 0.4398 0.3155
vn 0.9331 0.2898 0.2128
vn 0.6647 -0.3080 0.6807
vn 0.9872 0.1305 0.0914
vn 0.6647 -0.3080 0.6807
vn 0.9589 -0.2720 0.0809
vn 0.8663 -0.4067 -0.2900
vn 0.9769 -0.1751 -0.1228
vn 0.9589 -0.2720 0.0809
vn 0.5507 -0.6797 -0.4845
vn 0.8663 -0.4067 -0.2900
vn 0.7059 -0.5709 -0.4192
vn 0.5507 -0.6797 -0.4845
vn 0.2743 -0.7751 -0.5691
vn 0.2743 -0.7751 -0.5691
vn -0.0412 -0.8165 -0.5759
vn -0.2743 -0.7751 -0.5691
vn -0.2743 -0.7751 -0.5691
vn -0.5609 -0.6739 -0.4809
vn -0.7059 -0.5709 -0.4192
vn -0.7059 -0.5709 -0.4192
vn -0.8620 -0.4144 -0.2919
vn -0.9331 -0.2898 -0.2128
vn -0.9589 -0.2720 0.0809
vn -0.9872 0.1305 0.0914
vn -0.9837 -0.1465 -0.1039
vn -0.9589 -0.2720 0.0809
vn -0.8235 0.4623 0.3288
vn -0.9872 0.1305 0.0914
vn -0.6647 -0.3080 0.6807
vn -0.8235 0.4623 0.3288
vn -0.7059 0.5709 0.4192
vn -0.7059 0.5709 0.4192
vn 0.0000 0.8158 0.5783
vn -0.5157 0.6989 0.4955
vn -0.2743 0.7751 0.5691
vn 0.1294 0.5457 -0.8279
vn -0.0780 0.5332 -0.8424
vn -0.1583 0.6005 -0.7838
vn -0.2411 -0.4574 0.8559
vn -0.1318 -0.6746 0.7263
vn -0.0710 -0.5047 0.8604
vn 0.1542 0.7588 -0.6328
vn 0.0563 0.8351 0.5472
vn 0.5135 0.7158 0.4732
vn 0.7059 0.5976 0.3802
vn 0.5135 0.7158 0.4732
vn 0.8562 0.4302 0.2860
vn 0.9331 0.3033 0.1930
vn 0.8562 0.4302 0.2860
vn 0.9894 0.1214 0.0801
vn 1.0000 0.0000 -0.0000
vn 0.9894 0.1214 0.0801
vn 0.9846 -0.1462 -0.0954
vn 0.9331 -0.3033 -0.1930
vn 0.9846 -0.1462 -0.0954
vn 0.8296 -0.4654 -0.3084
vn 0.1759 0.2458 -0.9532
vn 0.8296 -0.4654 -0.3084
vn 0.4713 -0.7344 -0.4884
vn 0.1759 0.2458 -0.9532
vn 0.0000 -0.8377 -0.5461
vn 0.0000 -0.4005 -0.9163
vn -0.2284 0.0500 -0.9723
vn 0.0000 -0.8377 -0.5461
vn -0.5507 -0.6955 -0.4616
vn -0.7059 -0.5976 -0.3802
vn -0.5507 -0.6955 -0.4616
vn -0.8663 -0.4177 -0.2740
vn -0.9331 -0.3033 -0.1930
vn -0.8663 -0.4177 -0.2740
vn -0.9846 -0.1452 -0.0969
vn -1.0000 0.0000 0.0000
vn -0.9829 0.1544 0.1006
vn -1.0000 0.0000 0.0000
vn -0.9331 0.3033 0.1930
vn -0.9829 0.1544 0.1006
vn -0.8638 0.4199 0.2785
vn -0.7059 0.5976 0.3802
vn -0.5124 0.7167 0.4730
vn -0.2615 0.8209 -0.5077
vn -0.0899 0.9619 0.2581
vn -0.5124 0.7167 0.4730
vn 0.0563 0.8351 0.5472
vn 0.5135 0.7158 0.4732
vn 0.0000 0.8158 0.5783
vn 0.5573 0.6788 0.4782
vn 0.8562 0.4302 0.2860
vn 0.5573 0.6788 0.4782
vn 0.8409 0.4398 0.3155
vn 0.8562 0.4302 0.2860
vn 0.9872 0.1305 0.0914
vn 0.9894 0.1214 0.0801
vn 0.9846 -0.1462 -0.0954
vn 0.9872 0.1305 0.0914
vn 0.9769 -0.1751 -0.1228
vn 0.8296 -0.4654 -0.3084
vn 0.9769 -0.1751 -0.1228
vn 0.8663 -0.4067 -0.2900
vn 0.8296 -0.4654 -0.3084
vn 0.5507 -0.6797 -0.4845
vn 0.4713 -0.7344 -0.4884
vn 0.4713 -0.7344 -0.4884
vn -0.0412 -0.8165 -0.5759
vn 0.0000 -0.8377 -0.5461
vn -0.5507 -0.6955 -0.4616
vn -0.0412 -0.8165 -0.5759
vn -0.5609 -0.6739 -0.4809
vn -0.5507 -0.6955 -0.4616
vn -0.8620 -0.4144 -0.2919
vn -0.8663 -0.4177 -0.2740
vn -0.9846 -0.1452 -0.0969
vn -0.8620 -0.4144 -0.2919
vn -0.9837 -0.1465 -0.1039
vn -0.9846 -0.1452 -0.0969
vn -0.9872 0.1305 0.0914
vn -0.9829 0.1544 0.1006
vn -0.8638 0.4199 0.2785
vn -0.9872 0.1305 0.0914
vn -0.8235 0.4623 0.3288
vn -0.5124 0.7167 0.4730
vn -0.8235 0.4623 0.3288
vn -0.5157 0.6989 0.4955
vn -0.5124 0.7167 0.4730
vn 0.0000 0.8158 0.5783
vn 0.0563 0.8351 0.5472
vn 0.0000 0.8158 0.5783
vn 0.2743 0.7751 0.5691
vn 0.5573 0.6788 0.4782
vn 0.8409 0.4398 0.3155
vn 0.7059 0.5709 0.4192
vn 0.7059 0.5709 0.4192
vn 0.8409 0.4398 0.3155
vn 0.6647 -0.3080 0.6807
vn 0.9872 0.1305 0.0914
vn 0.9872 0.1305 0.0914
vn 0.9589 -0.2720 0.0809
vn 0.9769 -0.1751 -0.1228
vn 0.8663 -0.4067 -0.2900
vn 0.9589 -0.2720 0.0809
vn 0.9331 -0.2898 -0.2128
vn 0.5507 -0.6797 -0.4845
vn 0.7059 -0.5709 -0.4192
vn 0.7059 -0.5709 -0.4192
vn 0.5507 -0.6797 -0.4845
vn 0.2743 -0.7751 -0.5691
vn -0.0412 -0.8165 -0.5759
vn -0.0412 -0.8165 -0.5759
vn -0.2743 -0.7751 -0.5691
vn -0.5609 -0.6739 -0.4809
vn -0.5609 -0.6739 -0.4809
vn -0.7059 -0.5709 -0.4192
vn -0.8620 -0.4144 -0.2919
vn -0.8620 -0.4144 -0.2919
vn -0.9589 -0.2720 0.0809
vn -0.9837 -0.1465 -0.1039
vn -0.9872 0.1305 0.0914
vn -0.9589 -0.2720 0.0809
vn -0.6647 -0.3080 0.6807
vn -0.8235 0.4623 0.3288
vn -0.6647 -0.3080 0.6807
vn -0.9331 0.2898 0.2128
vn -0.8235 0.4623 0.3288
vn -0.7059 0.5709 0.4192
vn -0.5157 0.6989 0.4955
vn 0.0000 0.8158 0.5783
vn -0.2743 0.7751 0.5691
vn -0.2743 0.7751 0.5691
vn 0.0000 0.5227 -0.8525
vn 0.1542 0.7588 -0.6328
vn -0.2615 0.8209 -0.5077
vn -0.2615 0.8209 -0.5077
vn 0.1542 0.7588 -0.6328
vn -0.1583 0.6005 -0.7838
vn -0.0780 0.5332 -0.8424
vn 0.1124 0.5082 -0.8539
vn -0.1578 0.4924 -0.8559
vn -0.1578 0.4924 -0.8559
vn 0.1182 0.4636 -0.8781
vn -0.1402 0.4263 -0.8937
vn -0.1578 0.4924 -0.8559
vn 0.1124 0.5082 -0.8539
vn 0.1182 0.4636 -0.8781
vn -0.1402 0.4263 -0.8937
vn 0.1759 0.2458 -0.9532
vn -0.2284 0.0500 -0.9723
vn 0.2198 0.6427 -0.7339
vn -0.1583 0.6005 -0.7838
vn 0.1542 0.7588 -0.6328
vn -0.1402 0.4263 -0.8937
vn 0.1182 0.4636 -0.8781
vn 0.1759 0.2458 -0.9532
vn -0.2284 0.0500 -0.9723
vn 0.1759 0.2458 -0.9532
vn 0.0000 -0.4005 -0.9163
vn 0.1294 0.5457 -0.8279
vn -0.1583 0.6005 -0.7838
vn 0.2198 0.6427 -0.7339
vn 0.1124 0.5082 -0.8539
vn -0.0780 0.5332 -0.8424
vn 0.1294 0.5457 -0.8279
vn -0.0710 -0.5047 0.8604
vn 0.0056 -0.6501 0.7598
vn 0.0000 -0.5177 0.8556
vn 0.0000 -0.5177 0.8556
vn 0.0056 -0.6501 0.7598
vn 0.0710 -0.5047 0.8604
vn 0.0710 -0.5047 0.8604
vn 0.1318 -0.6746 0.7263
vn 0.2411 -0.4574 0.8559
vn 0.2411 -0.4574 0.8559
vn 0.1318 -0.6746 0.7263
vn 0.6647 -0.3080 0.6807
vn 0.6647 -0.3080 0.6807
vn 0.1318 -0.6746 0.7263
vn 0.0000 -0.6052 0.7961
vn 0.1318 -0.6746 0.7263
vn 0.0710 -0.5047 0.8604
vn 0.0494 -0.6678 0.7427
vn 0.0494 -0.6678 0.7427
vn 0.0710 -0.5047 0.8604
vn 0.0056 -0.6501 0.7598
vn 0.0056 -0.6501 0.7598
vn -0.0710 -0.5047 0.8604
vn -0.0618 -0.6994 0.7120
vn -0.0618 -0.6994 0.7120
vn -0.0710 -0.5047 0.8604
vn -0.1318 -0.6746 0.7263
vn -0.1318 -0.6746 0.7263
vn -0.6647 -0.3080 0.6807
vn -0.0000 -0.6052 0.7961
vn -0.6647 -0.3080 0.6807
vn -0.1318 -0.6746 0.7263
vn -0.2411 -0.4574 0.8559
vn 0.2743 -0.5397 0.7959
vn 0.2743 -0.5397 0.7959
vn 0.0000 -0.5749 0.8182
vn 0.7059 -0.3975 0.5862
vn 0.5157 -0.4926 0.7010
vn 0.8010 -0.3442 0.4898
vn 0.9331 -0.2018 0.2976
vn 0.8010 -0.3442 0.4898
vn 0.9699 -0.1399 0.1991
vn 0.9533 0.1687 0.2505
vn 0.9699 -0.1399 0.1991
vn 0.9933 0.0664 -0.0944
vn 0.6152 0.7299 0.2979
vn 0.9933 0.0664 -0.0944
vn 0.8471 0.3056 -0.4349
vn 0.7059 0.3975 -0.5862
vn 0.7059 0.3975 -0.5862
vn 0.8471 0.3056 -0.4349
vn 0.2743 0.5397 -0.7959
vn 0.5157 0.4926 -0.7010
vn 0.0412 0.5764 -0.8161
vn -0.2743 0.5397 -0.7959
vn 0.0412 0.5764 -0.8161
vn -0.4713 0.5045 -0.7234
vn -0.7059 0.3975 -0.5862
vn -0.4713 0.5045 -0.7234
vn -0.8471 0.3056 -0.4349
vn -0.6152 0.7299 0.2979
vn -0.9331 0.2018 -0.2976
vn -0.8471 0.3056 -0.4349
vn -0.9533 0.1687 0.2505
vn -0.6152 0.7299 0.2979
vn -0.9933 0.0664 -0.0944
vn -0.9331 -0.2018 0.2976
vn -0.9533 0.1687 0.2505
vn -0.9759 -0.1244 0.1793
vn -0.7059 -0.3975 0.5862
vn -0.7059 -0.3975 0.5862
vn -0.8235 -0.3268 0.4636
vn -0.2743 -0.5397 0.7959
vn -0.5157 -0.4926 0.7010
vn 0.0000 -0.5749 0.8182
vn 0.0000 -0.5749 0.8182
vn -0.0563 -0.6036 0.7953
vn 0.4811 -0.5263 0.7011
vn 0.8010 -0.3442 0.4898
vn 0.5157 -0.4926 0.7010
vn 0.4811 -0.5263 0.7011
vn 0.9699 -0.1399 0.1991
vn 0.8010 -0.3442 0.4898
vn 0.8562 -0.3123 0.4115
vn 0.9933 0.0664 -0.0944
vn 0.9699 -0.1399 0.1991
vn 0.9894 -0.0875 0.1161
vn 0.8471 0.3056 -0.4349
vn 0.9933 0.0664 -0.0944
vn 0.9846 0.1044 -0.1400
vn 0.8471 0.3056 -0.4349
vn 0.8663 0.3017 -0.3981
vn 0.5507 0.5007 -0.6679
vn 0.0412 0.5764 -0.8161
vn 0.5157 0.4926 -0.7010
vn 0.5507 0.5007 -0.6679
vn 0.0412 0.5764 -0.8161
vn 0.0000 0.6064 -0.7952
vn -0.5507 0.5007 -0.6679
vn -0.8471 0.3056 -0.4349
vn -0.4713 0.5045 -0.7234
vn -0.5507 0.5007 -0.6679
vn -0.8471 0.3056 -0.4349
vn -0.8430 0.3237 -0.4295
vn -0.9799 0.1201 -0.1594
vn -0.9933 0.0664 -0.0944
vn -0.9799 0.1201 -0.1594
vn -0.9774 -0.1272 0.1687
vn -0.8235 -0.3268 0.4636
vn -0.9759 -0.1244 0.1793
vn -0.9774 -0.1272 0.1687
vn -0.8235 -0.3268 0.4636
vn -0.8430 -0.3237 0.4295
vn -0.5438 -0.5033 0.6715
vn 0.0000 -0.5749 0.8182
vn -0.5157 -0.4926 0.7010
vn -0.5438 -0.5033 0.6715
vn 0.4811 -0.5263 0.7011
vn -0.0563 -0.6036 0.7953
vn 0.2743 -0.5915 0.7582
vn 0.8562 -0.3123 0.4115
vn 0.4811 -0.5263 0.7011
vn 0.7059 -0.4357 0.5584
vn 0.8562 -0.3123 0.4115
vn 0.9331 -0.2212 0.2835
vn 0.9611 -0.2760 0.0117
vn 0.9846 0.1044 -0.1400
vn 0.9894 -0.0875 0.1161
vn 0.9611 -0.2760 0.0117
vn 0.8663 0.3017 -0.3981
vn 0.9846 0.1044 -0.1400
vn 0.6152 -0.5078 -0.6031
vn 0.5507 0.5007 -0.6679
vn 0.8663 0.3017 -0.3981
vn 0.2596 -0.6158 -0.7439
vn 0.0000 0.6064 -0.7952
vn 0.5507 0.5007 -0.6679
vn 0.2743 0.5915 -0.7582
vn 0.0000 0.6064 -0.7952
vn -0.2743 0.5915 -0.7582
vn -0.2743 0.5915 -0.7582
vn -0.5507 0.5007 -0.6679
vn -0.7059 0.4357 -0.5584
vn -0.7059 0.4357 -0.5584
vn -0.9799 0.1201 -0.1594
vn -0.8430 0.3237 -0.4295
vn -0.9331 0.2212 -0.2835
vn -0.9799 0.1201 -0.1594
vn -0.4827 -0.6226 -0.6159
vn -0.9533 -0.2902 -0.0835
vn -0.9774 -0.1272 0.1687
vn -0.9533 -0.2902 -0.0835
vn -0.3916 -0.8473 -0.3587
vn -0.5438 -0.5033 0.6715
vn -0.8430 -0.3237 0.4295
vn -0.3916 -0.8473 -0.3587
vn -0.0563 -0.6036 0.7953
vn -0.5438 -0.5033 0.6715
vn -0.2743 -0.5915 0.7582
vn 0.1334 0.6857 0.7155
vn 0.0524 0.8797 0.4726
vn 0.0000 0.8051 0.5932
vn 0.0474 -0.7128 -0.6998
vn 0.0731 -0.8358 -0.5442
vn -0.0000 -0.7456 -0.6663
vn 0.2743 -0.5397 0.7959
vn 0.0000 -0.5749 0.8182
vn 0.5157 -0.4926 0.7010
vn 0.7059 -0.3975 0.5862
vn 0.8010 -0.3442 0.4898
vn 0.7059 -0.3975 0.5862
vn 0.9331 -0.2018 0.2976
vn 0.9699 -0.1399 0.1991
vn 0.9533 0.1687 0.2505
vn 0.9533 0.1687 0.2505
vn 0.9933 0.0664 -0.0944
vn 0.6152 0.7299 0.2979
vn 0.6152 0.7299 0.2979
vn 0.8471 0.3056 -0.4349
vn 0.9331 0.2018 -0.2976
vn 0.7059 0.3975 -0.5862
vn 0.8471 0.3056 -0.4349
vn 0.5157 0.4926 -0.7010
vn 0.2743 0.5397 -0.7959
vn 0.0412 0.5764 -0.8161
vn 0.2743 0.5397 -0.7959
vn -0.2743 0.5397 -0.7959
vn -0.4713 0.5045 -0.7234
vn -0.2743 0.5397 -0.7959
vn -0.7059 0.3975 -0.5862
vn -0.8471 0.3056 -0.4349
vn -0.7059 0.3975 -0.5862
vn -0.6152 0.7299 0.2979
vn -0.8471 0.3056 -0.4349
vn -0.9933 0.0664 -0.0944
vn -0.9533 0.1687 0.2505
vn -0.9933 0.0664 -0.0944
vn -0.9759 -0.1244 0.1793
vn -0.9331 -0.2018 0.2976
vn -0.9759 -0.1244 0.1793
vn -0.8235 -0.3268 0.4636
vn -0.7059 -0.3975 0.5862
vn -0.8235 -0.3268 0.4636
vn -0.5157 -0.4926 0.7010
vn -0.2743 -0.5397 0.7959
vn 0.0000 -0.5749 0.8182
vn -0.2743 -0.5397 0.7959
vn 0.0000 -0.5749 0.8182
vn 0.4811 -0.5263 0.7011
vn 0.5157 -0.4926 0.7010
vn 0.8010 -0.3442 0.4898
vn 0.4811 -0.5263 0.7011
vn 0.8562 -0.3123 0.4115
vn 0.9699 -0.1399 0.1991
vn 0.8562 -0.3123 0.4115
vn 0.9894 -0.0875 0.1161
vn 0.9933 0.0664 -0.0944
vn 0.9894 -0.0875 0.1161
vn 0.9846 0.1044 -0.1400
vn 0.8471 0.3056 -0.4349
vn 0.9846 0.1044 -0.1400
vn 0.8663 0.3017 -0.3981
vn 0.8471 0.3056 -0.4349
vn 0.5507 0.5007 -0.6679
vn 0.5157 0.4926 -0.7010
vn 0.0412 0.5764 -0.8161
vn 0.5507 0.5007 -0.6679
vn 0.0000 0.6064 -0.7952
vn 0.0412 0.5764 -0.8161
vn -0.5507 0.5007 -0.6679
vn -0.4713 0.5045 -0.7234
vn -0.8471 0.3056 -0.4349
vn -0.5507 0.5007 -0.6679
vn -0.8430 0.3237 -0.4295
vn -0.8471 0.3056 -0.4349
vn -0.9799 0.1201 -0.1594
vn -0.9933 0.0664 -0.0944
vn -0.9933 0.0664 -0.0944
vn -0.9774 -0.1272 0.1687
vn -0.9759 -0.1244 0.1793
vn -0.8235 -0.3268 0.4636
vn -0.9774 -0.1272 0.1687
vn -0.8430 -0.3237 0.4295
vn -0.8235 -0.3268 0.4636
vn -0.5438 -0.5033 0.6715
vn -0.5157 -0.4926 0.7010
vn 0.0000 -0.5749 0.8182
vn -0.5438 -0.5033 0.6715
vn -0.0563 -0.6036 0.7953
vn 0.4811 -0.5263 0.7011
vn 0.2743 -0.5915 0.7582
vn 0.2743 -0.5915 0.7582
vn 0.8562 -0.3123 0.4115
vn 0.7059 -0.4357 0.5584
vn 0.7059 -0.4357 0.5584
vn 0.8562 -0.3123 0.4115
vn 0.9611 -0.2760 0.0117
vn 0.9894 -0.0875 0.1161
vn 0.9846 0.1044 -0.1400
vn 0.9611 -0.2760 0.0117
vn 0.6152 -0.5078 -0.6031
vn 0.8663 0.3017 -0.3981
vn 0.6152 -0.5078 -0.6031
vn 0.2596 -0.6158 -0.7439
vn 0.5507 0.5007 -0.6679
vn 0.2596 -0.6158 -0.7439
vn 0.7059 0.4357 -0.5584
vn 0.0000 0.6064 -0.7952
vn 0.2743 0.5915 -0.7582
vn 0.2743 0.5915 -0.7582
vn 0.0000 0.6064 -0.7952
vn -0.2743 0.5915 -0.7582
vn -0.5507 0.5007 -0.6679
vn -0.5507 0.5007 -0.6679
vn -0.7059 0.4357 -0.5584
vn -0.8430 0.3237 -0.4295
vn -0.9799 0.1201 -0.1594
vn -0.9331 0.2212 -0.2835
vn -0.4827 -0.6226 -0.6159
vn -0.9799 0.1201 -0.1594
vn -0.9533 -0.2902 -0.0835
vn -0.9774 -0.1272 0.1687
vn -0.9774 -0.1272 0.1687
vn -0.3916 -0.8473 -0.3587
vn -0.8430 -0.3237 0.4295
vn -0.5438 -0.5033 0.6715
vn -0.3916 -0.8473 -0.3587
vn -0.7059 -0.4357 0.5584
vn -0.0563 -0.6036 0.7953
vn -0.2743 -0.5915 0.7582
vn -0.2743 -0.5915 0.7582
vn 0.0000 0.8051 0.5932
vn -0.0459 0.8688 0.4930
vn -0.1334 0.6857 0.7155
vn -0.1334 0.6857 0.7155
vn -0.0459 0.8688 0.4930
vn -0.1854 0.7624 0.6200
vn -0.1854 0.7624 0.6200
vn -0.6152 0.7299 0.2979
vn -0.0000 0.8369 0.5474
vn -0.6152 0.7299 0.2979
vn -0.1854 0.7624 0.6200
vn -0.1930 0.8821 0.4297
vn -0.1930 0.8821 0.4297
vn -0.1854 0.7624 0.6200
vn -0.0459 0.8688 0.4930
vn -0.0459 0.8688 0.4930
vn 0.0000 0.8051 0.5932
vn -0.0105 0.8916 0.4527
vn -0.0105 0.8916 0.4527
vn 0.0000 0.8051 0.5932
vn 0.0524 0.8797 0.4726
vn 0.0524 0.8797 0.4726
vn 0.1854 0.7624 0.6200
vn 0.1930 0.8821 0.4297
vn 0.1930 0.8821 0.4297
vn 0.1854 0.7624 0.6200
vn 0.6152 0.7299 0.2979
vn 0.6152 0.7299 0.2979
vn 0.1854 0.7624 0.6200
vn 0.0000 0.8369 0.5474
vn 0.1854 0.7624 0.6200
vn 0.0524 0.8797 0.4726
vn 0.1334 0.6857 0.7155
vn -0.0670 -0.8552 -0.5140
vn -0.0385 -0.7258 -0.6868
vn 0.0102 -0.8417 -0.5398
vn 0.0102 -0.8417 -0.5398
vn -0.0000 -0.7456 -0.6663
vn 0.0731 -0.8358 -0.5442
vn -0.0385 -0.7258 -0.6868
vn -0.0000 -0.7456 -0.6663
vn 0.0102 -0.8417 -0.5398
vn 0.1209 -0.8185 -0.5617
vn 0.6152 -0.5078 -0.6031
vn 0.0000 -0.7781 -0.6282
vn -0.3916 -0.8473 -0.3587
vn -0.2022 -0.6759 -0.7087
vn -0.0670 -0.8552 -0.5140
vn -0.2022 -0.6759 -0.7087
vn -0.0385 -0.7258 -0.6868
vn -0.0670 -0.8552 -0.5140
vn 0.1209 -0.8185 -0.5617
vn 0.2596 -0.6158 -0.7439
vn 0.6152 -0.5078 -0.6031
vn -0.0000 -0.7781 -0.6282
vn -0.4827 -0.6226 -0.6159
vn -0.3916 -0.8473 -0.3587
vn -0.4827 -0.6226 -0.6159
vn -0.2022 -0.6759 -0.7087
vn -0.3916 -0.8473 -0.3587
vn 0.1209 -0.8185 -0.5617
vn 0.0474 -0.7128 -0.6998
vn 0.2596 -0.6158 -0.7439
vn 0.1209 -0.8185 -0.5617
vn 0.0731 -0.8358 -0.5442
vn 0.0474 -0.7128 -0.6998
vn 0.2295 -0.8266 0.5138
vn 0.0000 -0.9828 -0.1845
vn 0.0000 -0.8043 -0.5942
vn 0.2295 -0.8266 0.5138
vn 0.5135 -0.6845 -0.5174
vn 0.8183 -0.4618 -0.3421
vn 0.9331 -0.2916 -0.2104
vn 0.8183 -0.4618 -0.3421
vn 0.9699 -0.1949 -0.1457
vn 1.0000 -0.0000 0.0000
vn 0.9699 -0.1949 -0.1457
vn 0.9891 0.1185 0.0876
vn 0.9331 0.2916 0.2104
vn 0.9331 0.2916 0.2104
vn 0.9891 0.1185 0.0876
vn 0.7059 0.5744 0.4145
vn 0.8457 0.4257 0.3218
vn 0.5609 0.6648 0.4935
vn 0.2743 0.7798 0.5627
vn 0.5609 0.6648 0.4935
vn 0.0000 0.8011 0.5986
vn -0.2284 -0.1067 0.9677
vn 0.0000 0.3463 0.9381
vn 0.0000 0.8011 0.5986
vn -0.7059 0.5744 0.4144
vn -0.2284 -0.1067 0.9677
vn -0.5889 0.6474 0.4838
vn -0.9331 0.2916 0.2104
vn -0.8663 0.3994 0.3001
vn -0.9891 0.1185 0.0876
vn -1.0000 0.0000 0.0000
vn -1.0000 0.0000 0.0000
vn -0.9891 0.1185 0.0876
vn -0.9331 -0.2916 -0.2104
vn -0.9759 -0.1741 -0.1317
vn -0.8409 -0.4354 -0.3216
vn -0.3905 -0.9071 0.1571
vn -0.7059 -0.5744 -0.4145
vn -0.8409 -0.4354 -0.3216
vn -0.3905 -0.9071 0.1571
vn -0.5135 -0.6845 -0.5174
vn 0.0000 -0.8043 -0.5942
vn 0.5135 -0.6845 -0.5174
vn 0.0000 -0.8043 -0.5942
vn 0.0000 -0.7807 -0.6250
vn 0.5135 -0.6845 -0.5174
vn 0.5573 -0.6467 -0.5208
vn 0.8562 -0.4044 -0.3215
vn 0.9699 -0.1949 -0.1457
vn 0.8183 -0.4618 -0.3421
vn 0.8562 -0.4044 -0.3215
vn 0.9891 0.1185 0.0876
vn 0.9699 -0.1949 -0.1457
vn 0.9925 -0.0953 -0.0763
vn 0.8457 0.4257 0.3218
vn 0.9891 0.1185 0.0876
vn 0.9769 0.1677 0.1328
vn 0.8457 0.4257 0.3218
vn 0.8457 0.4147 0.3358
vn 0.4872 0.6830 0.5443
vn 0.0000 0.8011 0.5986
vn 0.5609 0.6648 0.4935
vn 0.4872 0.6830 0.5443
vn 0.0000 0.8011 0.5986
vn 0.0000 0.7807 0.6250
vn -0.4404 0.7009 0.5611
vn -0.5889 0.6474 0.4838
vn -0.4404 0.7009 0.5611
vn -0.8296 0.4352 0.3497
vn -0.8663 0.3994 0.3001
vn -0.8296 0.4352 0.3497
vn -0.9769 0.1677 0.1328
vn -0.9891 0.1185 0.0876
vn -0.9769 0.1677 0.1328
vn -0.9925 -0.0953 -0.0763
vn -0.9759 -0.1741 -0.1317
vn -0.9925 -0.0953 -0.0763
vn -0.8398 -0.4238 -0.3393
vn -0.5135 -0.6845 -0.5174
vn -0.8409 -0.4354 -0.3216
vn -0.8398 -0.4238 -0.3393
vn -0.5135 -0.6845 -0.5174
vn -0.5157 -0.6688 -0.5354
vn 0.0000 -0.7807 -0.6250
vn 0.0000 -0.7807 -0.6250
vn 0.2743 -0.7406 -0.6134
vn 0.2743 -0.7406 -0.6134
vn 0.5573 -0.6467 -0.5208
vn 0.7059 -0.5455 -0.4518
vn 0.7059 -0.5455 -0.4518
vn 0.8562 -0.4044 -0.3215
vn 0.9331 -0.2769 -0.2293
vn 0.9349 -0.0047 -0.3550
vn 0.9925 -0.0953 -0.0763
vn 0.9349 -0.0047 -0.3550
vn 0.7371 0.5294 -0.4200
vn 0.8457 0.4147 0.3358
vn 0.9769 0.1677 0.1328
vn 0.7371 0.5294 -0.4200
vn 0.8457 0.4147 0.3358
vn 0.7059 0.5455 0.4518
vn 0.7059 0.5455 0.4518
vn 0.4872 0.6830 0.5443
vn 0.2743 0.7406 0.6134
vn 0.2743 0.7406 0.6134
vn -0.4404 0.7009 0.5611
vn 0.0000 0.7807 0.6250
vn -0.2743 0.7406 0.6134
vn -0.8296 0.4352 0.3497
vn -0.4404 0.7009 0.5611
vn -0.7059 0.5455 0.4518
vn -0.8296 0.4352 0.3497
vn -0.9331 0.2769 0.2293
vn -0.7371 0.5294 -0.4200
vn -0.9925 -0.0953 -0.0763
vn -0.9769 0.1677 0.1328
vn -0.7371 0.5294 -0.4200
vn -0.8398 -0.4238 -0.3393
vn -0.9925 -0.0953 -0.0763
vn -0.9349 -0.0047 -0.3550
vn -0.8398 -0.4238 -0.3393
vn -0.7059 -0.5455 -0.4518
vn -0.7059 -0.5455 -0.4518
vn 0.0000 -0.7807 -0.6250
vn -0.5157 -0.6688 -0.5354
vn -0.2743 -0.7406 -0.6134
vn 0.1409 -0.6275 0.7658
vn -0.1287 -0.6322 0.7640
vn 0.2295 -0.8266 0.5138
vn 0.0672 0.7164 -0.6944
vn 0.0544 0.5609 -0.8261
vn -0.0000 0.7239 -0.6900
vn 0.2295 -0.8266 0.5138
vn 0.0000 -0.8043 -0.5942
vn 0.5135 -0.6845 -0.5174
vn 0.2295 -0.8266 0.5138
vn 0.8183 -0.4618 -0.3421
vn 0.7059 -0.5744 -0.4145
vn 0.9331 -0.2916 -0.2104
vn 0.9699 -0.1949 -0.1457
vn 0.9331 -0.2916 -0.2104
vn 1.0000 0.0000 0.0000
vn 0.9891 0.1185 0.0876
vn 1.0000 0.0000 0.0000
vn 0.9331 0.2916 0.2104
vn 0.9891 0.1185 0.0876
vn 0.8457 0.4257 0.3218
vn 0.7059 0.5744 0.4144
vn 0.5609 0.6648 0.4935
vn 0.7059 0.5744 0.4144
vn 0.2743 0.7798 0.5627
vn 0.0000 0.8011 0.5986
vn 0.0000 0.3463 0.9381
vn -0.2284 -0.1067 0.9677
vn 0.0000 0.8011 0.5986
vn -0.5889 0.6474 0.4838
vn -0.7059 0.5744 0.4145
vn -0.5889 0.6474 0.4838
vn -0.8663 0.3994 0.3001
vn -0.9331 0.2916 0.2104
vn -0.9891 0.1185 0.0876
vn -0.9331 0.2916 0.2104
vn -1.0000 0.0000 0.0000
vn -0.9891 0.1185 0.0876
vn -0.9759 -0.1741 -0.1317
vn -0.9331 -0.2916 -0.2104
vn -0.8409 -0.4354 -0.3216
vn -0.9331 -0.2916 -0.2104
vn -0.3905 -0.9071 0.1571
vn -0.8409 -0.4354 -0.3216
vn -0.5135 -0.6845 -0.5174
vn -0.3905 -0.9071 0.1571
vn 0.0000 -0.8043 -0.5942
vn 0.0000 -0.9828 -0.1845
vn 0.5135 -0.6845 -0.5174
vn 0.0000 -0.7807 -0.6250
vn 0.5573 -0.6467 -0.5208
vn 0.5135 -0.6845 -0.5174
vn 0.8562 -0.4044 -0.3215
vn 0.8183 -0.4618 -0.3421
vn 0.9699 -0.1949 -0.1457
vn 0.8562 -0.4044 -0.3215
vn 0.9925 -0.0953 -0.0763
vn 0.9891 0.1185 0.0876
vn 0.9925 -0.0953 -0.0763
vn 0.9769 0.1677 0.1328
vn 0.8457 0.4257 0.3218
vn 0.9769 0.1677 0.1328
vn 0.8457 0.4147 0.3358
vn 0.8457 0.4257 0.3218
vn 0.4872 0.6830 0.5443
vn 0.5609 0.6648 0.4935
vn 0.0000 0.8011 0.5986
vn 0.4872 0.6830 0.5443
vn 0.0000 0.7807 0.6250
vn 0.0000 0.8011 0.5986
vn -0.4404 0.7009 0.5611
vn -0.5889 0.6474 0.4838
vn -0.5889 0.6474 0.4838
vn -0.8296 0.4352 0.3497
vn -0.8663 0.3994 0.3001
vn -0.8663 0.3994 0.3001
vn -0.9769 0.1677 0.1328
vn -0.9891 0.1185 0.0876
vn -0.9891 0.1185 0.0876
vn -0.9925 -0.0953 -0.0763
vn -0.9759 -0.1741 -0.1317
vn -0.9759 -0.1741 -0.1317
vn -0.8398 -0.4238 -0.3393
vn -0.8409 -0.4354 -0.3216
vn -0.5135 -0.6845 -0.5174
vn -0.8398 -0.4238 -0.3393
vn -0.5157 -0.6688 -0.5354
vn -0.5135 -0.6845 -0.5174
vn 0.0000 -0.7807 -0.6250
vn 0.0000 -0.8043 -0.5942
vn 0.0000 -0.7807 -0.6250
vn 0.2743 -0.7406 -0.6134
vn 0.5573 -0.6467 -0.5208
vn 0.5573 -0.6467 -0.5208
vn 0.7059 -0.5455 -0.4518
vn 0.8562 -0.4044 -0.3215
vn 0.8562 -0.4044 -0.3215
vn 0.9349 -0.0047 -0.3550
vn 0.9925 -0.0953 -0.0763
vn 0.9925 -0.0953 -0.0763
vn 0.7371 0.5294 -0.4200
vn 0.9769 0.1677 0.1328
vn 0.8457 0.4147 0.3358
vn 0.7371 0.5294 -0.4200
vn 0.9331 0.2769 0.2293
vn 0.8457 0.4147 0.3358
vn 0.7059 0.5455 0.4518
vn 0.4872 0.6830 0.5443
vn 0.4872 0.6830 0.5443
vn 0.2743 0.7406 0.6134
vn 0.0000 0.7807 0.6250
vn -0.4404 0.7009 0.5611
vn -0.2743 0.7406 0.6134
vn -0.2743 0.7406 0.6134
vn -0.8296 0.4352 0.3497
vn -0.7059 0.5455 0.4518
vn -0.7059 0.5455 0.4518
vn -0.8296 0.4352 0.3497
vn -0.7371 0.5294 -0.4200
vn -0.9769 0.1677 0.1328
vn -0.9925 -0.0953 -0.0763
vn -0.7371 0.5294 -0.4200
vn -0.9349 -0.0047 -0.3550
vn -0.8398 -0.4238 -0.3393
vn -0.9349 -0.0047 -0.3550
vn -0.9331 -0.2769 -0.2293
vn -0.8398 -0.4238 -0.3393
vn -0.7059 -0.5455 -0.4518
vn -0.5157 -0.6688 -0.5354
vn 0.0000 -0.7807 -0.6250
vn -0.2743 -0.7406 -0.6134
vn -0.2743 -0.7406 -0.6134
vn 0.0000 -0.9828 -0.1845
vn 0.2295 -0.8266 0.5138
vn -0.3905 -0.9071 0.1571
vn -0.3905 -0.9071 0.1571
vn 0.2295 -0.8266 0.5138
vn -0.1287 -0.6322 0.7640
vn -0.1287 -0.6322 0.7640
vn 0.1409 -0.6275 0.7658
vn -0.1699 -0.5894 0.7898
vn -0.1699 -0.5894 0.7898
vn 0.1154 -0.5793 0.8069
vn -0.0576 -0.5620 0.8252
vn 0.1409 -0.6275 0.7658
vn 0.1154 -0.5793 0.8069
vn -0.1699 -0.5894 0.7898
vn -0.0576 -0.5620 0.8252
vn 0.1450 -0.4885 0.8604
vn -0.2022 -0.4509 0.8694
vn -0.2022 -0.4509 0.8694
vn 0.1116 -0.3663 0.9238
vn -0.2284 -0.1067 0.9677
vn -0.2284 -0.1067 0.9677
vn 0.1116 -0.3663 0.9238
vn 0.0000 0.3463 0.9381
vn 0.1116 -0.3663 0.9238
vn -0.2022 -0.4509 0.8694
vn 0.1450 -0.4885 0.8604
vn 0.1450 -0.4885 0.8604
vn -0.0576 -0.5620 0.8252
vn 0.1092 -0.5517 0.8269
vn 0.1092 -0.5517 0.8269
vn -0.0576 -0.5620 0.8252
vn 0.1154 -0.5793 0.8069
vn -0.1033 0.5057 -0.8565
vn -0.0546 0.7047 -0.7074
vn 0.0000 0.5934 -0.8049
vn 0.0000 0.5934 -0.8049
vn -0.0000 0.7239 -0.6900
vn 0.0544 0.5609 -0.8261
vn -0.0546 0.7047 -0.7074
vn -0.0000 0.7239 -0.6900
vn 0.0000 0.5934 -0.8049
vn 0.1706 0.5389 -0.8249
vn 0.7371 0.5294 -0.4200
vn 0.0000 0.6506 -0.7594
vn -0.2157 0.5245 -0.8237
vn -0.1021 0.6953 -0.7114
vn -0.1033 0.5057 -0.8565
vn -0.1021 0.6953 -0.7114
vn -0.0546 0.7047 -0.7074
vn -0.1033 0.5057 -0.8565
vn 0.1706 0.5389 -0.8249
vn 0.1930 0.7269 -0.6591
vn 0.7371 0.5294 -0.4200
vn -0.0000 0.6506 -0.7594
vn -0.7371 0.5294 -0.4200
vn -0.2157 0.5245 -0.8237
vn -0.7371 0.5294 -0.4200
vn -0.1021 0.6953 -0.7114
vn -0.2157 0.5245 -0.8237
vn 0.1706 0.5389 -0.8249
vn 0.0672 0.7164 -0.6944
vn 0.1930 0.7269 -0.6591
vn 0.1706 0.5389 -0.8249
vn 0.0544 0.5609 -0.8261
vn 0.0672 0.7164 -0.6944
vn 0.2743 0.5852 -0.7630
vn 0.2743 0.5852 -0.7630
vn 0.0000 0.6174 -0.7866
vn 0.2965 -0.6145 -0.7311
vn 0.7059 0.4310 -0.5620
vn 0.5438 0.5236 -0.6558
vn 0.9349 -0.0745 -0.3471
vn 0.2965 -0.6145 -0.7311
vn 0.8769 0.2988 -0.3765
vn 0.7371 -0.6097 -0.2914
vn 0.9349 -0.0745 -0.3471
vn 0.9925 0.0759 -0.0956
vn 0.7371 -0.6097 -0.2914
vn 0.9769 -0.1338 0.1668
vn 0.8296 -0.3463 0.4379
vn 0.7059 -0.4310 0.5620
vn 0.7059 -0.4310 0.5620
vn 0.8296 -0.3463 0.4379
vn 0.2743 -0.5852 0.7630
vn 0.4713 -0.5508 0.6888
vn 0.0000 -0.6173 0.7867
vn -0.2743 -0.5852 0.7631
vn -0.2743 -0.5852 0.7631
vn 0.0000 -0.6173 0.7867
vn -0.7059 -0.4310 0.5620
vn -0.5188 -0.5353 0.6666
vn -0.8204 -0.3538 0.4492
vn -0.2742 -0.8516 -0.4469
vn -0.8204 -0.3538 0.4492
vn -0.9714 -0.1475 0.1858
vn -0.9510 -0.2977 -0.0830
vn -0.9714 -0.1475 0.1858
vn -0.9925 0.0759 -0.0956
vn -0.6647 -0.4859 -0.5675
vn -0.9925 0.0759 -0.0956
vn -0.8562 0.3198 -0.4057
vn -0.7059 0.4311 -0.5620
vn -0.7059 0.4311 -0.5620
vn -0.8562 0.3198 -0.4057
vn -0.2743 0.5852 -0.7630
vn -0.5135 0.5372 -0.6691
vn 0.0000 0.6174 -0.7866
vn 0.5438 0.5236 -0.6558
vn 0.0000 0.6174 -0.7866
vn 0.0000 0.6475 -0.7621
vn 0.5438 0.5236 -0.6558
vn 0.5157 0.5547 -0.6529
vn 0.8235 0.3679 -0.4317
vn 0.8769 0.2988 -0.3765
vn 0.8235 0.3679 -0.4317
vn 0.9759 0.1403 -0.1671
vn 0.9925 0.0759 -0.0956
vn 0.9759 0.1403 -0.1671
vn 0.9891 -0.0960 0.1118
vn 0.9769 -0.1338 0.1668
vn 0.9891 -0.0960 0.1118
vn 0.8457 -0.3460 0.4062
vn 0.8296 -0.3463 0.4379
vn 0.8457 -0.3460 0.4062
vn 0.5188 -0.5538 0.6513
vn 0.4713 -0.5508 0.6888
vn 0.5188 -0.5538 0.6513
vn 0.0000 -0.6432 0.7657
vn -0.5188 -0.5353 0.6666
vn 0.0000 -0.6173 0.7867
vn 0.0000 -0.6432 0.7657
vn -0.5188 -0.5353 0.6666
vn -0.4713 -0.5734 0.6701
vn -0.8471 -0.3441 0.4050
vn -0.9714 -0.1475 0.1858
vn -0.8204 -0.3538 0.4492
vn -0.8471 -0.3441 0.4050
vn -0.9925 0.0759 -0.0956
vn -0.9714 -0.1475 0.1858
vn -0.9933 -0.0747 0.0880
vn -0.8562 0.3198 -0.4057
vn -0.9925 0.0759 -0.0956
vn -0.9699 0.1575 -0.1854
vn -0.5135 0.5372 -0.6691
vn -0.8562 0.3198 -0.4057
vn -0.8183 0.3703 -0.4396
vn -0.5135 0.5372 -0.6691
vn -0.5573 0.5395 -0.6312
vn 0.0000 0.6475 -0.7621
vn 0.0000 0.6475 -0.7621
vn 0.2743 0.6348 -0.7224
vn 0.2743 0.6348 -0.7224
vn 0.8235 0.3679 -0.4317
vn 0.5157 0.5547 -0.6529
vn 0.7059 0.4675 -0.5320
vn 0.8235 0.3679 -0.4317
vn 0.9331 0.2373 -0.2701
vn 0.7616 0.5647 0.3178
vn 0.9891 -0.0960 0.1118
vn 0.9759 0.1403 -0.1671
vn 0.7616 0.5647 0.3178
vn 0.9891 -0.0960 0.1118
vn 0.8906 0.2050 0.4060
vn 0.9331 -0.2373 0.2701
vn 0.8457 -0.3460 0.4062
vn 0.7059 -0.4675 0.5320
vn 0.7059 -0.4675 0.5320
vn 0.5188 -0.5538 0.6513
vn 0.2743 -0.6348 0.7224
vn 0.2743 -0.6348 0.7224
vn -0.4713 -0.5734 0.6701
vn 0.0000 -0.6432 0.7657
vn -0.2743 -0.6348 0.7224
vn -0.8471 -0.3441 0.4050
vn -0.4713 -0.5734 0.6701
vn -0.7059 -0.4675 0.5320
vn -0.8471 -0.3441 0.4050
vn -0.9331 -0.2373 0.2701
vn -0.9241 0.0766 0.3745
vn -0.9933 -0.0747 0.0880
vn -0.9241 0.0766 0.3745
vn -0.6653 0.6042 0.4385
vn -0.9699 0.1575 -0.1854
vn -0.6653 0.6042 0.4385
vn -0.4293 0.8227 0.3726
vn -0.5573 0.5395 -0.6312
vn -0.8183 0.3703 -0.4396
vn -0.4293 0.8227 0.3726
vn 0.0000 0.6475 -0.7621
vn -0.5573 0.5395 -0.6312
vn -0.2743 0.6348 -0.7224
vn 0.7371 -0.6097 -0.2914
vn 0.1021 -0.8364 -0.5385
vn 0.2965 -0.6145 -0.7311
vn -0.4293 0.8227 0.3726
vn -0.0959 0.6941 0.7134
vn -0.0458 0.7992 0.5994
vn 0.2743 0.5852 -0.7630
vn 0.0000 0.6174 -0.7866
vn 0.5438 0.5236 -0.6558
vn 0.2965 -0.6145 -0.7311
vn 0.5438 0.5236 -0.6558
vn 0.8769 0.2988 -0.3765
vn 0.9349 -0.0745 -0.3471
vn 0.8769 0.2988 -0.3765
vn 0.9925 0.0759 -0.0956
vn 0.7371 -0.6097 -0.2914
vn 0.9925 0.0759 -0.0956
vn 0.9769 -0.1338 0.1668
vn 0.7371 -0.6097 -0.2914
vn 0.8296 -0.3463 0.4379
vn 0.9331 -0.2188 0.2853
vn 0.7059 -0.4310 0.5620
vn 0.8296 -0.3463 0.4379
vn 0.4713 -0.5508 0.6888
vn 0.2743 -0.5852 0.7631
vn 0.0000 -0.6173 0.7867
vn 0.2743 -0.5852 0.7631
vn -0.2743 -0.5852 0.7630
vn 0.0000 -0.6173 0.7867
vn -0.5188 -0.5353 0.6666
vn -0.7059 -0.4310 0.5620
vn -0.8204 -0.3538 0.4492
vn -0.2742 -0.8516 -0.4469
vn -0.2742 -0.8516 -0.4469
vn -0.9714 -0.1475 0.1858
vn -0.9510 -0.2977 -0.0830
vn -0.9510 -0.2977 -0.0830
vn -0.9925 0.0759 -0.0956
vn -0.6647 -0.4859 -0.5675
vn -0.6647 -0.4859 -0.5675
vn -0.8562 0.3198 -0.4057
vn -0.9331 0.2188 -0.2853
vn -0.7059 0.4310 -0.5620
vn -0.8562 0.3198 -0.4057
vn -0.5135 0.5372 -0.6691
vn -0.2743 0.5852 -0.7630
vn 0.0000 0.6174 -0.7866
vn -0.2743 0.5852 -0.7630
vn 0.5438 0.5236 -0.6558
vn 0.0000 0.6475 -0.7621
vn 0.5157 0.5547 -0.6529
vn 0.5438 0.5236 -0.6558
vn 0.8235 0.3679 -0.4317
vn 0.8769 0.2988 -0.3765
vn 0.8769 0.2988 -0.3765
vn 0.9759 0.1403 -0.1671
vn 0.9925 0.0759 -0.0956
vn 0.9925 0.0759 -0.0956
vn 0.9891 -0.0960 0.1118
vn 0.9769 -0.1338 0.1668
vn 0.9769 -0.1338 0.1668
vn 0.8457 -0.3460 0.4062
vn 0.8296 -0.3463 0.4379
vn 0.8296 -0.3463 0.4379
vn 0.5188 -0.5538 0.6513
vn 0.4713 -0.5508 0.6888
vn 0.4713 -0.5508 0.6888
vn 0.0000 -0.6432 0.7657
vn 0.0000 -0.6173 0.7867
vn -0.5188 -0.5353 0.6666
vn 0.0000 -0.6432 0.7657
vn -0.4713 -0.5734 0.6701
vn -0.5188 -0.5353 0.6666
vn -0.8471 -0.3441 0.4050
vn -0.8204 -0.3538 0.4492
vn -0.9714 -0.1475 0.1858
vn -0.8471 -0.3441 0.4050
vn -0.9933 -0.0747 0.0880
vn -0.9925 0.0759 -0.0956
vn -0.9933 -0.0747 0.0880
vn -0.9699 0.1575 -0.1854
vn -0.8562 0.3198 -0.4057
vn -0.9699 0.1575 -0.1854
vn -0.8183 0.3703 -0.4396
vn -0.5135 0.5372 -0.6691
vn -0.8183 0.3703 -0.4396
vn -0.5573 0.5395 -0.6312
vn -0.5135 0.5372 -0.6691
vn 0.0000 0.6475 -0.7621
vn 0.0000 0.6174 -0.7866
vn 0.0000 0.6475 -0.7621
vn 0.2743 0.6348 -0.7224
vn 0.5157 0.5547 -0.6529
vn 0.8235 0.3679 -0.4317
vn 0.7059 0.4675 -0.5320
vn 0.7059 0.4675 -0.5320
vn 0.8235 0.3679 -0.4317
vn 0.7616 0.5647 0.3178
vn 0.9759 0.1403 -0.1671
vn 0.9891 -0.0960 0.1118
vn 0.7616 0.5647 0.3178
vn 0.8906 0.2050 0.4060
vn 0.9891 -0.0960 0.1118
vn 0.9331 -0.2373 0.2701
vn 0.8457 -0.3460 0.4062
vn 0.8457 -0.3460 0.4062
vn 0.7059 -0.4675 0.5320
vn 0.5188 -0.5538 0.6513
vn 0.5188 -0.5538 0.6513
vn 0.2743 -0.6348 0.7224
vn 0.0000 -0.6432 0.7657
vn -0.4713 -0.5734 0.6701
vn -0.2743 -0.6348 0.7224
vn -0.2743 -0.6348 0.7224
vn -0.8471 -0.3441 0.4050
vn -0.7059 -0.4675 0.5320
vn -0.7059 -0.4675 0.5320
vn -0.8471 -0.3441 0.4050
vn -0.9241 0.0766 0.3745
vn -0.9933 -0.0747 0.0880
vn -0.9933 -0.0747 0.0880
vn -0.6653 0.6042 0.4385
vn -0.9699 0.1575 -0.1854
vn -0.9699 0.1575 -0.1854
vn -0.4293 0.8227 0.3726
vn -0.8183 0.3703 -0.4396
vn -0.5573 0.5395 -0.6312
vn -0.4293 0.8227 0.3726
vn -0.7059 0.4675 -0.5320
vn 0.0000 0.6475 -0.7621
vn -0.2743 0.6348 -0.7224
vn -0.2743 0.6348 -0.7224
vn -0.0000 -0.7579 -0.6524
vn 0.0000 -0.8323 -0.5543
vn -0.0842 -0.7086 -0.7006
vn -0.0842 -0.7086 -0.7006
vn -0.0765 -0.8696 -0.4879
vn -0.1287 -0.7452 -0.6543
vn 0.0000 -0.8323 -0.5543
vn -0.0765 -0.8696 -0.4879
vn -0.0842 -0.7086 -0.7006
vn -0.6647 -0.4859 -0.5675
vn -0.2742 -0.8516 -0.4469
vn -0.0000 -0.8035 -0.5953
vn 0.0670 -0.7124 -0.6986
vn 0.0622 -0.8585 -0.5090
vn -0.0000 -0.7579 -0.6524
vn 0.0622 -0.8585 -0.5090
vn 0.0000 -0.8323 -0.5543
vn -0.0000 -0.7579 -0.6524
vn -0.6647 -0.4859 -0.5675
vn -0.1287 -0.7452 -0.6543
vn -0.2742 -0.8516 -0.4469
vn -0.2742 -0.8516 -0.4469
vn -0.1287 -0.7452 -0.6543
vn -0.0765 -0.8696 -0.4879
vn 0.2965 -0.6145 -0.7311
vn 0.1021 -0.8364 -0.5385
vn 0.0670 -0.7124 -0.6986
vn 0.1021 -0.8364 -0.5385
vn 0.0622 -0.8585 -0.5090
vn 0.0670 -0.7124 -0.6986
vn 0.0000 -0.8035 -0.5953
vn 0.7371 -0.6097 -0.2914
vn 0.2965 -0.6145 -0.7311
vn -0.0458 0.7992 0.5994
vn 0.0000 0.6860 0.7276
vn 0.0000 0.8070 0.5905
vn 0.0000 0.8070 0.5905
vn 0.0000 0.6860 0.7276
vn 0.0710 0.8129 0.5780
vn 0.0710 0.8129 0.5780
vn 0.1558 0.6719 0.7241
vn 0.2411 0.8126 0.5306
vn 0.2411 0.8126 0.5306
vn 0.1558 0.6719 0.7241
vn 0.7616 0.5647 0.3178
vn 0.7616 0.5647 0.3178
vn 0.1558 0.6719 0.7241
vn 0.8906 0.2050 0.4060
vn 0.1558 0.6719 0.7241
vn 0.0710 0.8129 0.5780
vn 0.0875 0.6511 0.7539
vn 0.0875 0.6511 0.7539
vn 0.0710 0.8129 0.5780
vn 0.0000 0.6860 0.7276
vn 0.0000 0.6860 0.7276
vn -0.0458 0.7992 0.5994
vn -0.0875 0.6511 0.7539
vn -0.0875 0.6511 0.7539
vn -0.0458 0.7992 0.5994
vn -0.0959 0.6941 0.7134
vn -0.0959 0.6941 0.7134
vn -0.6653 0.6042 0.4385
vn -0.9241 0.0766 0.3745
vn -0.6653 0.6042 0.4385
vn -0.0959 0.6941 0.7134
vn -0.4293 0.8227 0.3726
f 13//1 14//2 15//3
f 12//4 13//5 16//6
f 11//7 12//8 17//9
f 10//10 11//11 18//12
f 9//13 10//14 19//15
f 8//16 9//17 20//18
f 8//19 21//20 22//21
f 6//22 7//23 22//24
f 5//25 6//26 23//27
f 4//28 5//29 24//30
f 4//31 25//32 26//33
f 2//34 3//35 26//36
f 2//37 27//38 28//39
f 14//40 1//41 28//42
f 16//43 15//44 29//45
f 17//46 16//47 30//48
f 17//49 31//50 32//51
f 19//52 18//53 32//54
f 20//55 19//56 33//57
f 20//58 34//59 35//60
f 21//61 35//62 36//63
f 23//64 22//65 36//66
f 23//67 37//68 38//69
f 25//70 24//71 38//72
f 25//73 39//74 40//75
f 27//76 26//77 40//78
f 28//79 27//80 41//81
f 28//82 42//83 29//84
f 29//85 43//86 44//87
f 31//88 30//89 44//90
f 31//91 45//92 46//93
f 32//94 46//95 47//96
f 34//97 33//98 47//99
f 35//100 34//101 48//102
f 35//103 49//104 50//105
f 36//106 50//107 51//108
f 37//109 51//110 52//111
f 38//112 52//113 53//114
f 40//115 39//116 53//117
f 41//118 40//119 54//120
f 41//121 55//122 56//123
f 29//124 42//125 56//126
f 11//127 3//128 2//129
f 55//130 52//131 56//132
f 13//133 15//134 16//135
f 12//136 16//137 17//138
f 11//139 17//140 18//141
f 10//142 18//143 19//144
f 9//145 19//146 20//147
f 8//148 20//149 21//150
f 8//151 22//152 7//153
f 6//154 22//155 23//156
f 5//157 23//158 24//159
f 4//160 24//161 25//162
f 4//163 26//164 3//165
f 2//166 26//167 27//168
f 2//169 28//170 1//171
f 14//172 28//173 15//174
f 16//175 29//176 30//177
f 17//178 30//179 31//180
f 17//181 32//182 18//183
f 19//184 32//185 33//186
f 20//187 33//188 34//189
f 20//190 35//191 21//192
f 21//193 36//194 22//195
f 23//196 36//197 37//198
f 23//199 38//200 24//201
f 25//202 38//203 39//204
f 25//205 40//206 26//207
f 27//208 40//209 41//210
f 28//211 41//212 42//213
f 28//214 29//215 15//216
f 29//217 44//218 30//219
f 31//220 44//221 45//222
f 31//223 46//224 32//225
f 32//226 47//227 33//228
f 34//229 47//230 48//231
f 35//232 48//233 49//234
f 35//235 50//236 36//237
f 36//238 51//239 37//240
f 37//241 52//242 38//243
f 38//244 53//245 39//246
f 40//247 53//248 54//249
f 41//250 54//251 55//252
f 41//253 56//254 42//255
f 29//256 56//257 43//258
f 14//259 13//260 1//261
f 1//262 13//263 2//264
f 3//265 10//266 4//267
f 4//268 9//269 5//270
f 4//271 10//272 9//273
f 5//274 8//275 6//276
f 12//277 2//278 13//279
f 5//280 9//281 8//282
f 6//283 8//284 7//285
f 11//286 2//287 12//288
f 10//289 3//290 11//291
f 56//292 50//293 43//294
f 43//295 50//296 44//297
f 44//298 48//299 45//300
f 45//301 48//302 46//303
f 46//304 48//305 47//306
f 48//307 44//308 49//309
f 49//310 44//311 50//312
f 50//313 56//314 51//315
f 51//316 56//317 52//318
f 52//319 54//320 53//321
f 54//322 52//323 55//324
f 58//325 57//326 71//327
f 58//328 72//329 73//330
f 59//331 73//332 74//333
f 60//334 74//335 75//336
f 61//337 75//338 76//339
f 63//340 62//341 76//342
f 63//343 77//344 78//345
f 64//346 78//347 79//348
f 65//349 79//350 80//351
f 67//352 66//353 80//354
f 68//355 67//356 81//357
f 69//358 68//359 82//360
f 70//361 69//362 83//363
f 70//364 84//365 71//366
f 71//367 85//368 86//369
f 73//370 72//371 86//372
f 74//373 73//374 87//375
f 75//376 74//377 88//378
f 76//379 75//380 89//381
f 76//382 90//383 91//384
f 78//385 77//386 91//387
f 78//388 92//389 93//390
f 80//391 79//392 93//393
f 80//394 94//395 95//396
f 81//397 95//398 96//399
f 83//400 82//401 96//402
f 83//403 97//404 98//405
f 71//406 84//407 98//408
f 86//409 85//410 99//411
f 87//412 86//413 100//414
f 87//415 101//416 102//417
f 89//418 88//419 102//420
f 90//421 89//422 103//423
f 91//424 90//425 104//426
f 92//427 91//428 105//429
f 92//430 106//431 107//432
f 93//433 107//434 108//435
f 95//436 94//437 108//438
f 95//439 109//440 110//441
f 96//442 110//443 111//444
f 98//445 97//446 111//447
f 85//448 98//449 112//450
f 58//451 63//452 57//453
f 105//454 100//455 106//456
f 58//457 71//458 72//459
f 58//460 73//461 59//462
f 59//463 74//464 60//465
f 60//466 75//467 61//468
f 61//469 76//470 62//471
f 63//472 76//473 77//474
f 63//475 78//476 64//477
f 64//478 79//479 65//480
f 65//481 80//482 66//483
f 67//484 80//485 81//486
f 68//487 81//488 82//489
f 69//490 82//491 83//492
f 70//493 83//494 84//495
f 70//496 71//497 57//498
f 71//499 86//500 72//501
f 73//502 86//503 87//504
f 74//505 87//506 88//507
f 75//508 88//509 89//510
f 76//511 89//512 90//513
f 76//514 91//515 77//516
f 78//517 91//518 92//519
f 78//520 93//521 79//522
f 80//523 93//524 94//525
f 80//526 95//527 81//528
f 81//529 96//530 82//531
f 83//532 96//533 97//534
f 83//535 98//536 84//537
f 71//538 98//539 85//540
f 86//541 99//542 100//543
f 87//544 100//545 101//546
f 87//547 102//548 88//549
f 89//550 102//551 103//552
f 90//553 103//554 104//555
f 91//556 104//557 105//558
f 92//559 105//560 106//561
f 92//562 107//563 93//564
f 93//565 108//566 94//567
f 95//568 108//569 109//570
f 95//571 110//572 96//573
f 96//574 111//575 97//576
f 98//577 111//578 112//579
f 85//580 112//581 99//582
f 57//583 65//584 70//585
f 70//586 65//587 69//588
f 69//589 67//590 68//591
f 67//592 69//593 66//594
f 66//595 69//596 65//597
f 65//598 57//599 64//600
f 64//601 57//602 63//603
f 63//604 59//605 62//606
f 62//607 59//608 61//609
f 61//610 59//611 60//612
f 59//613 63//614 58//615
f 112//616 107//617 99//618
f 99//619 106//620 100//621
f 107//622 106//623 99//624
f 101//625 103//626 102//627
f 111//628 108//629 112//630
f 108//631 107//632 112//633
f 101//634 104//635 103//636
f 110//637 109//638 111//639
f 109//640 108//641 111//642
f 101//643 105//644 104//645
f 101//646 100//647 105//648
f 114//649 113//650 127//651
f 114//652 128//653 129//654
f 115//655 129//656 130//657
f 116//658 130//659 131//660
f 118//661 117//662 131//663
f 118//664 132//665 133//666
f 119//667 133//668 134//669
f 121//670 120//671 134//672
f 122//673 121//674 135//675
f 122//676 136//677 137//678
f 124//679 123//680 137//681
f 124//682 138//683 139//684
f 126//685 125//686 139//687
f 126//688 140//689 127//690
f 128//691 127//692 141//693
f 128//694 142//695 143//696
f 130//697 129//698 143//699
f 131//700 130//701 144//702
f 132//703 131//704 145//705
f 132//706 146//707 147//708
f 134//709 133//710 147//711
f 134//712 148//713 149//714
f 135//715 149//716 150//717
f 136//718 150//719 151//720
f 137//721 151//722 152//723
f 138//724 152//725 153//726
f 140//727 139//728 153//729
f 140//730 154//731 141//732
f 141//733 155//734 156//735
f 142//736 156//737 157//738
f 143//739 157//740 158//741
f 144//742 158//743 159//744
f 146//745 145//746 159//747
f 146//748 160//749 161//750
f 147//751 161//752 162//753
f 149//754 148//755 162//756
f 150//757 149//758 163//759
f 150//760 164//761 165//762
f 152//763 151//764 165//765
f 153//766 152//767 166//768
f 153//769 167//770 168//771
f 141//772 154//773 168//774
f 115//775 125//776 114//777
f 161//778 156//779 162//780
f 114//781 127//782 128//783
f 114//784 129//785 115//786
f 115//787 130//788 116//789
f 116//790 131//791 117//792
f 118//793 131//794 132//795
f 118//796 133//797 119//798
f 119//799 134//800 120//801
f 121//802 134//803 135//804
f 122//805 135//806 136//807
f 122//808 137//809 123//810
f 124//811 137//812 138//813
f 124//814 139//815 125//816
f 126//817 139//818 140//819
f 126//820 127//821 113//822
f 128//823 141//824 142//825
f 128//826 143//827 129//828
f 130//829 143//830 144//831
f 131//832 144//833 145//834
f 132//835 145//836 146//837
f 132//838 147//839 133//840
f 134//841 147//842 148//843
f 134//844 149//845 135//846
f 135//847 150//848 136//849
f 136//850 151//851 137//852
f 137//853 152//854 138//855
f 138//856 153//857 139//858
f 140//859 153//860 154//861
f 140//862 141//863 127//864
f 141//865 156//866 142//867
f 142//868 157//869 143//870
f 143//871 158//872 144//873
f 144//874 159//875 145//876
f 146//877 159//878 160//879
f 146//880 161//881 147//882
f 147//883 162//884 148//885
f 149//886 162//887 163//888
f 150//889 163//890 164//891
f 150//892 165//893 151//894
f 152//895 165//896 166//897
f 153//898 166//899 167//900
f 153//901 168//902 154//903
f 141//904 168//905 155//906
f 113//907 114//908 126//909
f 126//910 114//911 125//912
f 125//913 115//914 124//915
f 124//916 116//917 123//918
f 115//919 116//920 124//921
f 123//922 118//923 122//924
f 122//925 119//926 121//927
f 121//928 119//929 120//930
f 119//931 122//932 118//933
f 118//934 123//935 117//936
f 117//937 123//938 116//939
f 168//940 163//941 155//942
f 155//943 162//944 156//945
f 163//946 162//947 155//948
f 157//949 159//950 158//951
f 167//952 164//953 168//954
f 164//955 163//956 168//957
f 157//958 160//959 159//960
f 166//961 165//962 167//963
f 165//964 164//965 167//966
f 157//967 161//968 160//969
f 157//970 156//971 161//972
f 170//973 169//974 183//975
f 171//976 170//977 184//978
f 172//979 171//980 185//981
f 173//982 172//983 186//984
f 173//985 187//986 188//987
f 175//988 174//989 188//990
f 175//991 189//992 190//993
f 177//994 176//995 190//996
f 177//997 191//998 192//999
f 178//1000 192//1001 193//1002
f 179//1003 193//1004 194//1005
f 180//1006 194//1007 195//1008
f 182//1009 181//1010 195//1011
f 182//1012 196//1013 183//1014
f 184//1015 183//1016 197//1017
f 184//1018 198//1019 199//1020
f 185//1021 199//1022 200//1023
f 186//1024 200//1025 201//1026
f 187//1027 201//1028 202//1029
f 188//1030 202//1031 203//1032
f 189//1033 203//1034 204//1035
f 191//1036 190//1037 204//1038
f 191//1039 205//1040 206//1041
f 193//1042 192//1043 206//1044
f 194//1045 193//1046 207//1047
f 195//1048 194//1049 208//1050
f 196//1051 195//1052 209//1053
f 196//1054 210//1055 197//1056
f 197//1057 211//1058 212//1059
f 199//1060 198//1061 212//1062
f 199//1063 213//1064 214//1065
f 201//1066 200//1067 214//1068
f 201//1069 215//1070 216//1071
f 202//1072 216//1073 217//1074
f 203//1075 217//1076 218//1077
f 205//1078 204//1079 218//1080
f 206//1081 205//1082 219//1083
f 206//1084 220//1085 221//1086
f 207//1087 221//1088 222//1089
f 208//1090 222//1091 223//1092
f 210//1093 209//1094 223//1095
f 197//1096 210//1097 224//1098
f 173//1099 174//1100 171//1101
f 223//1102 220//1103 224//1104
f 170//1105 183//1106 184//1107
f 171//1108 184//1109 185//1110
f 172//1111 185//1112 186//1113
f 173//1114 186//1115 187//1116
f 173//1117 188//1118 174//1119
f 175//1120 188//1121 189//1122
f 175//1123 190//1124 176//1125
f 177//1126 190//1127 191//1128
f 177//1129 192//1130 178//1131
f 178//1132 193//1133 179//1134
f 179//1135 194//1136 180//1137
f 180//1138 195//1139 181//1140
f 182//1141 195//1142 196//1143
f 182//1144 183//1145 169//1146
f 184//1147 197//1148 198//1149
f 184//1150 199//1151 185//1152
f 185//1153 200//1154 186//1155
f 186//1156 201//1157 187//1158
f 187//1159 202//1160 188//1161
f 188//1162 203//1163 189//1164
f 189//1165 204//1166 190//1167
f 191//1168 204//1169 205//1170
f 191//1171 206//1172 192//1173
f 193//1174 206//1175 207//1176
f 194//1177 207//1178 208//1179
f 195//1180 208//1181 209//1182
f 196//1183 209//1184 210//1185
f 196//1186 197//1187 183//1188
f 197//1189 212//1190 198//1191
f 199//1192 212//1193 213//1194
f 199//1195 214//1196 200//1197
f 201//1198 214//1199 215//1200
f 201//1201 216//1202 202//1203
f 202//1204 217//1205 203//1206
f 203//1207 218//1208 204//1209
f 205//1210 218//1211 219//1212
f 206//1213 219//1214 220//1215
f 206//1216 221//1217 207//1218
f 207//1219 222//1220 208//1221
f 208//1222 223//1223 209//1224
f 210//1225 223//1226 224//1227
f 197//1228 224//1229 211//1230
f 169//1231 176//1232 182//1233
f 182//1234 177//1235 181//1236
f 176//1237 177//1238 182//1239
f 180//1240 178//1241 179//1242
f 170//1243 175//1244 169//1245
f 175//1246 176//1247 169//1248
f 180//1249 181//1250 178//1251
f 178//1252 181//1253 177//1254
f 171//1255 174//1256 170//1257
f 174//1258 175//1259 170//1260
f 172//1261 173//1262 171//1263
f 224//1264 218//1265 211//1266
f 211//1267 218//1268 212//1269
f 212//1270 216//1271 213//1272
f 213//1273 216//1274 214//1275
f 214//1276 216//1277 215//1278
f 216//1279 212//1280 217//1281
f 217//1282 212//1283 218//1284
f 218//1285 224//1286 219//1287
f 219//1288 224//1289 220//1290
f 220//1291 222//1292 221//1293
f 222//1294 220//1295 223//1296
