mtllib puffer_trim.mtl
usemtl puffer_trim
v 0.00706 -0.02700 0.26214
v -0.00084 -0.01516 0.31471
v 0.01103 -0.01902 0.27092
v -0.00321 -0.01830 0.35030
v 0.00859 -0.02202 0.25779
v 0.01066 -0.02377 0.24290
v 0.01075 -0.02544 0.22530
v 0.01041 -0.02603 0.17758
v -0.00391 -0.01228 0.37663
v -0.00143 -0.01258 0.29008
v 0.00208 -0.03112 0.14263
v 0.00196 -0.02497 0.01922
v 0.00937 -0.02515 0.14684
v 0.00607 0.00215 0.45235
v 0.00328 -0.00929 0.39576
v 0.00951 -0.02329 0.11344
v -0.00285 0.00534 0.45796
v -0.00053 -0.00751 0.41684
v 0.00752 0.02305 0.48566
v 0.00913 0.01656 0.47538
v 0.00714 -0.01648 0.01204
v 0.00022 0.03112 0.48968
v -0.00457 -0.01593 0.02650
v 0.00325 0.03065 0.48927
v 0.01062 -0.03019 0.20401
v 0.00879 -0.01898 0.02789
v 0.00973 -0.02188 0.05090
v 0.01017 -0.02474 0.08012
v 0.01034 -0.02720 0.11315
v 0.01043 -0.02901 0.14668
v -0.00661 -0.01859 0.04796
v -0.00820 -0.02122 0.07619
v 0.01052 -0.03003 0.17761
v -0.00953 -0.02348 0.10889
v -0.00975 -0.02527 0.14291
v -0.01030 -0.02618 0.17468
v 0.01071 -0.02943 0.22556
v 0.01074 -0.02776 0.24320
v 0.01069 -0.02539 0.25836
v -0.00289 0.02997 0.48769
v 0.01050 -0.02272 0.27235
v 0.00969 -0.01842 0.29952
v 0.01016 -0.02026 0.28597
v -0.01030 -0.02620 0.20218
v -0.01021 -0.02526 0.22450
v -0.01000 -0.02341 0.24267
v -0.01223 -0.01665 0.28639
v 0.00803 -0.01627 0.33912
v 0.00854 -0.01672 0.32622
v 0.00912 -0.01731 0.31298
v 0.00766 -0.01559 0.35167
v -0.01129 -0.01447 0.30068
v 0.00775 -0.00885 0.40019
v 0.00747 -0.01449 0.36391
v 0.00745 -0.01297 0.37594
v 0.00755 -0.01108 0.38796
v -0.00950 -0.02099 0.25798
v -0.01029 -0.01843 0.27158
v -0.00573 -0.01173 0.35380
v -0.00984 -0.01307 0.31401
v 0.00882 0.00467 0.44975
v 0.00865 -0.02105 0.08032
v 0.00711 -0.01888 0.05125
v 0.00854 0.00064 0.43809
v 0.00826 -0.00303 0.42555
v 0.00799 -0.00619 0.41277
v -0.00457 -0.01643 0.01081
v -0.00153 -0.01474 0.00251
v 0.00172 -0.01416 0.00000
v -0.00609 -0.01250 0.34075
v 0.00583 -0.01635 0.02848
v -0.00860 -0.01243 0.32790
v -0.00697 -0.00028 0.42075
v -0.00672 -0.00334 0.40750
v -0.00701 -0.00995 0.36661
v -0.00799 -0.00809 0.38026
v 0.00921 0.01282 0.46846
v 0.00907 0.00881 0.45995
v -0.00764 -0.00580 0.39403
v -0.00740 0.00342 0.43361
v -0.00702 0.00753 0.44584
v 0.00864 0.01998 0.48102
v 0.00564 0.02563 0.48928
v 0.01063 -0.02619 0.20393
v 0.00787 -0.01258 0.01258
v 0.00939 0.02002 0.47341
v 0.00778 0.02640 0.48348
v -0.00046 -0.00360 0.41601
v -0.00679 0.01224 0.45707
v -0.00783 0.01771 0.46698
v 0.00319 -0.01151 0.00473
v -0.00732 0.01945 0.47813
v -0.00531 0.02708 0.48305
v -0.00705 0.02287 0.47608
v 0.00588 0.02894 0.48704
v 0.00891 0.02336 0.47892
v -0.00207 0.00882 0.45614
v 0.00334 -0.00534 0.39516
v 0.00472 0.00563 0.45091
v 0.00170 -0.02120 0.02054
v 0.00184 -0.02713 0.14278
v -0.00167 -0.00862 0.28957
v -0.00398 -0.00833 0.37600
v -0.00555 0.02372 0.48520
v 0.00473 -0.01478 0.00302
v 0.00806 0.01219 0.45807
v 0.00920 0.01628 0.46644
v -0.00830 0.01435 0.46910
v -0.00865 0.00905 0.45862
v 0.00183 -0.01047 0.00154
v -0.00172 -0.01080 0.00319
v -0.00861 0.00408 0.44708
v -0.00520 -0.01252 0.01137
v 0.00719 -0.00233 0.41210
v 0.00738 0.00073 0.42451
v 0.00683 0.00418 0.43736
v -0.00837 -0.00029 0.43473
v 0.00578 0.00713 0.44891
v 0.00784 -0.00715 0.38726
v 0.00765 -0.00901 0.37538
v -0.00762 -0.00976 0.39455
v -0.00755 -0.01201 0.38088
v -0.00761 -0.01383 0.36741
v -0.00781 -0.00711 0.40825
v -0.00259 -0.01436 0.34999
v -0.00807 -0.00400 0.42172
v 0.00718 -0.01057 0.36321
v 0.00815 -0.00495 0.39939
v -0.00853 -0.01642 0.32768
v -0.00812 -0.01594 0.34095
v -0.00898 -0.01697 0.31422
v -0.00780 -0.01514 0.35414
v 0.00673 -0.01171 0.35137
v 0.00993 -0.01340 0.31276
v -0.00997 -0.02217 0.27296
v -0.01012 -0.02488 0.25866
v -0.00940 -0.01799 0.30058
v -0.00973 -0.01975 0.28683
v 0.00875 -0.01273 0.32639
v -0.01020 -0.02739 0.24306
v -0.01025 -0.02925 0.22477
v 0.00714 -0.01238 0.33894
v 0.01223 -0.01687 0.28548
v -0.01031 -0.03020 0.20226
v 0.01134 -0.01477 0.29952
v -0.00302 0.02661 0.48985
v -0.01035 -0.03018 0.17471
v 0.00631 -0.02317 0.26128
v -0.01036 -0.02922 0.14275
v -0.01021 -0.02741 0.10869
v -0.00974 -0.02490 0.07588
v -0.00874 -0.02195 0.04751
v -0.00086 -0.01116 0.31473
v 0.00304 0.02736 0.49154
v -0.00703 -0.01897 0.02564
v -0.00000 0.02780 0.49190
vn -0.0755 0.9825 -0.1703
vn 0.0287 0.9651 -0.2602
vn -0.1387 0.9867 -0.0854
vn -0.1818 0.9813 -0.0634
vn -0.1387 0.9867 -0.0854
vn 0.1478 0.9864 -0.0721
vn -0.9900 0.1406 0.0053
vn -0.2321 0.8538 -0.4660
vn -0.9900 0.1406 0.0053
vn 0.0079 0.9821 -0.1881
vn -0.3044 0.8918 -0.3347
vn -0.8924 0.4443 -0.0792
vn 0.0079 0.9821 -0.1881
vn -0.8924 0.4443 -0.0792
vn -0.6625 0.7482 0.0355
vn -0.3965 -0.7149 0.5760
vn -0.9758 0.1631 0.1456
vn -0.9758 0.1631 0.1456
vn -0.0755 0.9825 -0.1703
vn -0.3044 0.8918 -0.3347
vn 0.0287 0.9651 -0.2602
vn -0.4333 0.8974 -0.0825
vn 0.0013 0.9990 -0.0441
vn -0.2826 0.9592 0.0053
vn -0.4557 0.8735 -0.1711
vn 0.0013 0.9990 -0.0441
vn -0.4333 0.8974 -0.0825
vn -0.6941 0.7199 0.0030
vn -0.3513 0.9338 0.0674
vn 0.0185 0.9986 0.0490
vn 0.9810 0.1573 -0.1132
vn 0.8508 -0.0869 -0.5183
vn 0.7417 0.6685 0.0540
vn 0.5014 0.3426 0.7945
vn 0.3498 0.8746 -0.3358
vn 0.5109 0.6573 0.5540
vn 0.6329 -0.6721 0.3842
vn 0.9999 -0.0040 -0.0152
vn 0.9999 -0.0040 -0.0152
vn 0.7328 -0.6604 0.1642
vn 0.2729 0.9474 -0.1675
vn 0.3504 0.9059 -0.2377
vn 0.7262 -0.6715 0.1473
vn 0.3504 0.9059 -0.2377
vn -0.0027 0.9734 -0.2290
vn 0.9872 0.1345 -0.0856
vn -0.0027 0.9734 -0.2290
vn 0.1131 0.9244 -0.3644
vn 0.9872 0.1345 -0.0856
vn 0.1995 0.8301 -0.5207
vn 0.6329 -0.6721 0.3842
vn 0.4182 -0.8998 0.1245
vn 0.4489 0.8792 -0.1596
vn 0.3405 -0.9275 0.1544
vn 0.7262 -0.6715 0.1473
vn -0.0186 -0.9750 0.2213
vn 0.7328 -0.6604 0.1642
vn 0.1571 -0.9352 0.3173
vn -0.1555 -0.9017 0.4035
vn -0.0186 -0.9750 0.2213
vn -0.0186 -0.9750 0.2213
vn -0.2828 -0.9507 0.1273
vn 0.0314 -0.9899 0.1381
vn 0.9872 0.1345 -0.0856
vn 0.6329 -0.6721 0.3842
vn 0.1571 -0.9352 0.3173
vn 0.3176 -0.9346 0.1601
vn 0.4930 0.8601 -0.1310
vn 0.4182 -0.8998 0.1245
vn 0.5546 -0.8189 0.1481
vn 0.8675 0.4889 -0.0911
vn 0.2729 0.9474 -0.1675
vn 0.3405 -0.9275 0.1544
vn -0.0054 -0.9842 0.1771
vn 0.4182 -0.8998 0.1245
vn 0.0314 -0.9899 0.1381
vn -0.2828 -0.9507 0.1273
vn -0.0054 -0.9842 0.1771
vn 0.5546 -0.8189 0.1481
vn 0.0314 -0.9899 0.1381
vn 0.5964 -0.7895 0.1450
vn 0.3405 -0.9275 0.1544
vn 0.8675 0.4889 -0.0911
vn 0.5964 -0.7895 0.1450
vn 0.6490 -0.7584 0.0600
vn 0.9971 0.0752 0.0089
vn 0.9971 0.0752 0.0089
vn 0.5964 -0.7895 0.1450
vn 0.0314 -0.9899 0.1381
vn 0.3405 -0.9275 0.1544
vn 0.3176 -0.9346 0.1601
vn -0.0171 -0.9987 0.0486
vn 0.6490 -0.7584 0.0600
vn 0.6490 -0.7584 0.0600
vn -0.0171 -0.9987 0.0486
vn 0.7292 -0.6810 0.0678
vn 0.9944 -0.0572 0.0884
vn 0.6351 0.7724 -0.0060
vn 0.9944 -0.0572 0.0884
vn 0.7292 -0.6810 0.0678
vn 0.2999 0.9517 -0.0652
vn 0.6490 -0.7584 0.0600
vn -0.2519 -0.9570 0.1439
vn -0.1503 -0.9882 0.0289
vn -0.0164 -0.9804 0.1964
vn -0.0221 -0.9985 -0.0497
vn -0.1503 -0.9882 0.0289
vn 0.3045 -0.9487 0.0855
vn 0.9824 -0.1837 0.0339
vn 0.1541 -0.9483 0.2773
vn -0.0177 -0.9673 0.2531
vn -0.8622 -0.4957 0.1044
vn -0.9999 -0.0055 -0.0123
vn -0.9999 -0.0055 -0.0123
vn 0.7292 -0.6810 0.0678
vn 0.2714 0.9609 0.0553
vn 0.1490 0.9884 -0.0283
vn 0.2626 -0.9649 0.0050
vn 0.0483 -0.9981 -0.0378
vn 0.8286 -0.5590 -0.0302
vn 0.9050 -0.4085 0.1188
vn 0.8014 0.5915 -0.0886
vn 0.9050 -0.4085 0.1188
vn 0.5546 -0.8189 0.1481
vn -0.0186 -0.9750 0.2213
vn 0.0314 -0.9899 0.1381
vn 0.0483 -0.9981 -0.0378
vn 0.5880 -0.8071 -0.0533
vn 0.6185 -0.7840 -0.0526
vn 0.5880 -0.8071 -0.0533
vn 0.0133 -0.9937 -0.1117
vn 0.9570 -0.2829 -0.0635
vn 0.3045 -0.9487 0.0855
vn 0.5728 0.8195 0.0161
vn 0.6351 0.7724 -0.0060
vn -0.4260 0.8738 -0.2343
vn 0.0238 0.9758 -0.2175
vn -0.2527 0.9488 -0.1896
vn -0.1323 0.9392 -0.3167
vn 0.1743 0.8963 -0.4078
vn 0.1995 0.8301 -0.5207
vn -0.9110 0.4060 -0.0723
vn 0.0039 0.9842 -0.1771
vn -0.4557 0.8735 -0.1711
vn 0.1743 0.8963 -0.4078
vn -0.1314 0.8913 -0.4340
vn -0.1093 0.8412 -0.5295
vn 0.0002 0.9863 -0.1649
vn -0.2463 0.8665 -0.4343
vn 0.0346 0.8405 -0.5406
vn 0.7417 0.6685 0.0540
vn -0.4309 0.8872 0.1652
vn -0.3321 0.9193 0.2114
vn -0.1116 0.9883 0.1037
vn 0.0010 0.9947 0.1028
vn -0.1747 0.9830 0.0569
vn -0.1816 -0.9741 -0.1349
vn 0.7693 -0.5525 -0.3210
vn -0.1816 -0.9741 -0.1349
vn -0.0334 -0.8410 0.5400
vn -0.3965 -0.7149 0.5760
vn -0.2318 -0.5111 0.8277
vn 0.4897 0.8704 0.0511
vn -0.1747 0.9830 0.0569
vn -0.0463 0.9983 0.0365
vn 0.1541 -0.9483 0.2773
vn 0.8014 0.5915 -0.0886
vn 0.8554 -0.5056 0.1123
vn 0.9824 -0.1837 0.0339
vn 0.4763 0.8309 -0.2877
vn 0.9911 -0.1279 0.0377
vn -0.3067 -0.7956 0.5225
vn -0.9607 -0.2529 0.1145
vn -0.1555 -0.9017 0.4035
vn 0.9998 0.0213 0.0032
vn 0.3665 0.9286 -0.0586
vn 0.9998 0.0213 0.0032
vn 0.8286 -0.5590 -0.0302
vn 0.9997 0.0255 -0.0020
vn 0.9997 0.0255 -0.0020
vn 0.8286 -0.5590 -0.0302
vn 0.4897 0.8704 0.0511
vn 0.1961 0.9798 0.0391
vn 0.5880 -0.8071 -0.0533
vn 0.4897 0.8704 0.0511
vn 0.6185 -0.7840 -0.0526
vn 0.9570 -0.2829 -0.0635
vn 0.9256 0.3779 0.0230
vn 0.9256 0.3779 0.0230
vn -0.7085 -0.6969 0.1109
vn -0.0054 -0.9842 0.1771
vn -0.6639 -0.7396 0.1104
vn 0.6329 -0.6721 0.3842
vn -0.1555 -0.9017 0.4035
vn 0.1571 -0.9352 0.3173
vn -0.8622 -0.4957 0.1044
vn -0.0186 -0.9750 0.2213
vn -0.8044 -0.5801 0.1286
vn 0.9810 0.1573 -0.1132
vn -0.3321 0.9193 0.2114
vn 0.9616 -0.2421 -0.1292
vn -0.0221 -0.9985 -0.0497
vn -0.3663 -0.9304 -0.0116
vn -0.3614 -0.9288 0.0819
vn -0.9617 -0.2739 0.0118
vn -0.0171 -0.9987 0.0486
vn -0.7085 -0.6969 0.1109
vn -0.9844 -0.1633 0.0662
vn -0.0171 -0.9987 0.0486
vn -0.9617 -0.2739 0.0118
vn 0.9616 -0.2421 -0.1292
vn -0.1116 0.9883 0.1037
vn 0.9570 -0.2829 -0.0635
vn -0.0177 -0.9673 0.2531
vn -0.1029 -0.9407 0.3232
vn -0.5334 -0.8331 0.1465
vn 0.1573 -0.9873 0.0237
vn 0.3081 -0.9416 0.1360
vn -0.0164 -0.9804 0.1964
vn 0.3081 -0.9416 0.1360
vn -0.1029 -0.9407 0.3232
vn -0.0164 -0.9804 0.1964
vn 0.1775 -0.9809 0.0793
vn -0.2461 -0.9651 0.0900
vn -0.1073 -0.9921 0.0654
vn -0.2461 -0.9651 0.0900
vn -0.0177 -0.9673 0.2531
vn -0.5334 -0.8331 0.1465
vn 0.2781 -0.6797 0.6787
vn 0.9154 0.1768 0.3617
vn 0.3498 0.8746 -0.3358
vn 0.9979 -0.0508 0.0390
vn 0.9979 -0.0508 0.0390
vn 0.9979 -0.0508 0.0390
vn 0.2865 -0.7929 0.5378
vn 0.9951 -0.0187 0.0974
vn 0.3993 0.8056 -0.4377
vn 0.9774 0.0563 0.2037
vn 0.3993 0.8056 -0.4377
vn 0.9774 0.0563 0.2037
vn -0.9921 0.0036 -0.1256
vn -0.9872 -0.1597 0.0050
vn -0.9363 0.3361 -0.1020
vn -0.5503 -0.8341 -0.0383
vn 0.0483 -0.9981 -0.0378
vn -0.1778 -0.9841 0.0027
vn 0.0864 0.9670 0.2396
vn 0.2413 0.9630 0.1200
vn 0.0010 0.9947 0.1028
vn -0.3590 -0.9318 -0.0530
vn 0.0483 -0.9981 -0.0378
vn -0.5503 -0.8341 -0.0383
vn -0.9293 -0.3563 -0.0974
vn 0.0133 -0.9937 -0.1117
vn -0.7904 -0.6079 -0.0763
vn -0.2184 -0.8235 0.5235
vn 0.1692 -0.7942 0.5836
vn -0.3965 -0.7149 0.5760
vn 0.0002 0.9863 -0.1649
vn 0.0521 0.8213 -0.5681
vn 0.3498 0.8746 -0.3358
vn 0.0002 0.9863 -0.1649
vn 0.3498 0.8746 -0.3358
vn -0.2463 0.8665 -0.4343
vn -0.0287 0.9899 -0.1388
vn 0.0238 0.9758 -0.2175
vn 0.2729 0.9474 -0.1675
vn -0.4309 0.8872 0.1652
vn 0.5351 0.8199 0.2035
vn 0.0010 0.9947 0.1028
vn -0.0858 0.9931 0.0799
vn 0.0233 0.9984 0.0513
vn 0.0010 0.9947 0.1028
vn 0.1961 0.9798 0.0391
vn -0.0463 0.9983 0.0365
vn 0.1807 0.9835 -0.0088
vn 0.1446 0.9894 -0.0163
vn 0.1807 0.9835 -0.0088
vn -0.1394 0.9902 -0.0035
vn 0.0039 0.9842 -0.1771
vn 0.0013 0.9990 -0.0441
vn -0.4557 0.8735 -0.1711
vn 0.0133 -0.9937 -0.1117
vn 0.9616 -0.2421 -0.1292
vn 0.9570 -0.2829 -0.0635
vn 0.0483 -0.9981 -0.0378
vn 0.6185 -0.7840 -0.0526
vn 0.8286 -0.5590 -0.0302
vn -0.2527 0.9488 -0.1896
vn 0.0238 0.9758 -0.2175
vn -0.2608 0.9578 -0.1210
vn -0.3513 0.9338 0.0674
vn 0.0013 0.9990 -0.0441
vn 0.0185 0.9986 0.0490
vn -0.3044 0.8918 -0.3347
vn 0.0079 0.9821 -0.1881
vn 0.0287 0.9651 -0.2602
vn 1.0000 -0.0018 -0.0039
vn 1.0000 -0.0018 -0.0039
vn 1.0000 -0.0018 -0.0039
vn 0.9999 -0.0114 -0.0038
vn 0.3665 0.9286 -0.0586
vn 0.9999 -0.0114 -0.0038
vn -0.1387 0.9867 -0.0854
vn 0.0287 0.9651 -0.2602
vn 0.1478 0.9864 -0.0721
vn -0.5894 -0.6233 -0.5140
vn -0.4264 0.1326 -0.8947
vn -0.4264 0.1326 -0.8947
vn -0.5894 -0.6233 -0.5140
vn -0.9921 0.0036 -0.1256
vn -0.9363 0.3361 -0.1020
vn 0.7693 -0.5525 -0.3210
vn 0.7100 0.2530 -0.6572
vn 0.5351 0.8199 0.2035
vn 0.1541 -0.9483 0.2773
vn -0.0164 -0.9804 0.1964
vn -0.0177 -0.9673 0.2531
vn 0.9824 -0.1837 0.0339
vn 0.9998 0.0211 0.0006
vn 0.9998 0.0211 0.0006
vn -0.9607 -0.2529 0.1145
vn -0.9924 0.1204 -0.0273
vn -0.9924 0.1204 -0.0273
vn -0.9607 -0.2529 0.1145
vn -0.1314 0.8913 -0.4340
vn -0.3862 0.8626 -0.3269
vn -0.9110 -0.3837 0.1512
vn -0.3862 0.8626 -0.3269
vn -0.1829 0.9392 -0.2907
vn -0.9997 -0.0006 0.0252
vn -0.9997 -0.0006 0.0252
vn -0.9110 0.4060 -0.0723
vn -0.7085 -0.6969 0.1109
vn -0.6639 -0.7396 0.1104
vn -0.9110 0.4060 -0.0723
vn -0.8622 -0.4957 0.1044
vn -0.8044 -0.5801 0.1286
vn -0.4260 0.8738 -0.2343
vn -0.8044 -0.5801 0.1286
vn -0.9703 0.2259 -0.0864
vn -0.1829 0.9392 -0.2907
vn -0.9844 -0.1633 0.0662
vn -0.2826 0.9592 0.0053
vn -0.3513 0.9338 0.0674
vn -0.3663 -0.9304 -0.0116
vn -0.3513 0.9338 0.0674
vn -0.6941 0.7199 0.0030
vn -0.9617 -0.2739 0.0118
vn -0.7085 -0.6969 0.1109
vn -0.4557 0.8735 -0.1711
vn -0.9844 -0.1633 0.0662
vn -0.9617 -0.2739 0.0118
vn -0.4333 0.8974 -0.0825
vn -0.5334 -0.8331 0.1465
vn -0.9969 -0.0753 0.0244
vn -0.9969 -0.0753 0.0244
vn -0.3614 -0.9288 0.0819
vn -0.6941 0.7199 0.0030
vn -0.6625 0.7482 0.0355
vn 0.1573 -0.9873 0.0237
vn -0.8717 -0.4726 0.1295
vn -0.8924 0.4443 -0.0792
vn -0.1029 -0.9407 0.3232
vn 0.3081 -0.9416 0.1360
vn -0.8924 0.4443 -0.0792
vn -0.9987 0.0505 0.0065
vn -0.9987 0.0505 0.0065
vn -0.9987 0.0505 0.0065
vn -0.5334 -0.8331 0.1465
vn -0.9874 0.1580 0.0074
vn -0.9874 0.1580 0.0074
vn -0.9999 0.0111 0.0018
vn -0.9999 0.0111 0.0018
vn -0.9999 0.0111 0.0018
vn 0.5014 0.3426 0.7945
vn 0.5109 0.6573 0.5540
vn 0.0002 0.9863 -0.1649
vn -0.8519 0.1648 0.4971
vn -0.7381 0.5449 0.3980
vn -0.9136 0.2448 0.3247
vn -0.5503 -0.8341 -0.0383
vn -0.9999 0.0147 0.0005
vn -0.9999 0.0147 0.0005
vn -1.0000 0.0014 0.0017
vn -1.0000 0.0014 0.0017
vn -1.0000 0.0014 0.0017
vn -0.9885 0.1512 0.0037
vn -0.5503 -0.8341 -0.0383
vn -0.3128 0.9491 0.0368
vn -0.7904 -0.6079 -0.0763
vn -0.9854 0.1704 -0.0010
vn -0.9854 0.1704 -0.0010
vn -0.9293 -0.3563 -0.0974
vn -0.7904 -0.6079 -0.0763
vn -0.0858 0.9931 0.0799
vn -0.2318 -0.5111 0.8277
vn 0.0002 0.9863 -0.1649
vn -0.7381 0.5449 0.3980
vn -0.9293 -0.3563 -0.0974
vn 0.2413 0.9630 0.1200
vn 0.0864 0.9670 0.2396
vn 1.0000 -0.0019 -0.0059
vn 1.0000 -0.0019 -0.0059
vn 0.3665 0.9286 -0.0586
vn 0.9996 0.0255 -0.0079
vn 0.9996 0.0255 -0.0079
vn 0.9996 0.0255 -0.0079
vn -0.9921 0.0036 -0.1256
vn -0.7742 0.6327 -0.0200
vn 0.0864 0.9670 0.2396
vn 0.9779 0.0486 0.2034
vn 0.2865 -0.7929 0.5378
vn 0.3993 0.8056 -0.4377
vn 0.0079 0.9821 -0.1881
vn -0.6625 0.7482 0.0355
vn 0.0185 0.9986 0.0490
vn 0.2865 -0.7929 0.5378
vn 0.9951 -0.0173 0.0974
vn 0.9951 -0.0173 0.0974
vn 0.9997 -0.0084 -0.0228
vn 0.9997 -0.0084 -0.0228
vn 0.3278 0.8250 -0.4604
vn 0.2781 -0.6797 0.6787
vn 0.9181 0.1635 0.3610
vn 0.9181 0.1635 0.3610
vn 0.9616 -0.2421 -0.1292
vn -0.3321 0.9193 0.2114
vn -0.1116 0.9883 0.1037
vn 0.9810 0.1573 -0.1132
vn 0.7417 0.6685 0.0540
vn 0.9779 -0.1934 0.0796
vn 0.9570 -0.2829 -0.0635
vn -0.1116 0.9883 0.1037
vn -0.1747 0.9830 0.0569
vn 0.9254 0.3790 0.0017
vn 0.9254 0.3790 0.0017
vn 0.4897 0.8704 0.0511
vn 0.8286 -0.5590 -0.0302
vn 0.6185 -0.7840 -0.0526
vn 0.4897 0.8704 0.0511
vn 0.8286 -0.5590 -0.0302
vn 0.1961 0.9798 0.0391
vn 0.1807 0.9835 -0.0088
vn 0.9999 -0.0112 -0.0010
vn 0.9999 -0.0112 -0.0010
vn 0.3665 0.9286 -0.0586
vn 0.9824 -0.1837 0.0339
vn 0.3592 0.9193 -0.1606
vn 0.4763 0.8309 -0.2877
vn 0.9848 -0.1638 -0.0571
vn 0.4763 0.8309 -0.2877
vn 0.8014 0.5915 -0.0886
vn 0.3045 -0.9487 0.0855
vn 0.9090 -0.4104 0.0722
vn 0.9090 -0.4104 0.0722
vn -0.1503 -0.9882 0.0289
vn 0.8558 -0.5078 0.0990
vn 0.8014 0.5915 -0.0886
vn 0.7292 -0.6810 0.0678
vn 0.9976 -0.0553 0.0413
vn 0.9976 -0.0553 0.0413
vn -0.8622 -0.4957 0.1044
vn -0.2527 0.9488 -0.1896
vn -0.2608 0.9578 -0.1210
vn 0.3993 0.8056 -0.4377
vn 0.3278 0.8250 -0.4604
vn -0.2321 0.8538 -0.4660
vn 0.7292 -0.6810 0.0678
vn 0.1490 0.9884 -0.0283
vn 0.2999 0.9517 -0.0652
vn 0.2138 -0.9767 -0.0194
vn 0.3045 -0.9487 0.0855
vn 0.6351 0.7724 -0.0060
vn 0.6490 -0.7584 0.0600
vn 0.2999 0.9517 -0.0652
vn 0.1830 0.9678 -0.1727
vn 0.3405 -0.9275 0.1544
vn 0.4489 0.8792 -0.1596
vn 0.8675 0.4889 -0.0911
vn -0.0171 -0.9987 0.0486
vn 0.2138 -0.9767 -0.0194
vn 0.7292 -0.6810 0.0678
vn 0.5546 -0.8189 0.1481
vn 0.5964 -0.7895 0.1450
vn 0.8675 0.4889 -0.0911
vn 0.9968 0.0653 -0.0468
vn 0.9968 0.0653 -0.0468
vn 0.4930 0.8601 -0.1310
vn 0.4182 -0.8998 0.1245
vn 0.4930 0.8601 -0.1310
vn 0.4489 0.8792 -0.1596
vn -0.0221 -0.9985 -0.0497
vn 0.2138 -0.9767 -0.0194
vn -0.0171 -0.9987 0.0486
vn 0.9872 0.1345 -0.0856
vn 0.1131 0.9244 -0.3644
vn 0.1995 0.8301 -0.5207
vn 0.9872 0.1345 -0.0856
vn 0.7262 -0.6715 0.1473
vn -0.0027 0.9734 -0.2290
vn 0.7262 -0.6715 0.1473
vn 0.7328 -0.6604 0.1642
vn 0.3504 0.9059 -0.2377
vn 0.7328 -0.6604 0.1642
vn 0.5546 -0.8189 0.1481
vn 0.2729 0.9474 -0.1675
vn 0.6329 -0.6721 0.3842
vn 0.1995 0.8301 -0.5207
vn 0.2173 0.8172 -0.5339
vn 0.5014 0.3426 0.7945
vn 0.2781 -0.6797 0.6787
vn 0.3498 0.8746 -0.3358
vn 0.9810 0.1573 -0.1132
vn 0.7693 -0.5525 -0.3210
vn 0.8655 0.4809 -0.1404
vn 0.0287 0.9651 -0.2602
vn 0.4763 0.8309 -0.2877
vn 0.3592 0.9193 -0.1606
vn -0.3965 -0.7149 0.5760
vn -0.2463 0.8665 -0.4343
vn -0.9759 0.1626 0.1457
vn -0.9932 0.1061 0.0481
vn -0.9932 0.1061 0.0481
vn -0.9932 0.1061 0.0481
vn -0.9293 -0.3563 -0.0974
vn 0.0864 0.9670 0.2396
vn -0.7802 0.6251 0.0242
vn -0.2318 -0.5111 0.8277
vn -0.7381 0.5449 0.3980
vn -0.8519 0.1648 0.4971
vn -0.9293 -0.3563 -0.0974
vn -0.0858 0.9931 0.0799
vn 0.2413 0.9630 0.1200
vn -0.7904 -0.6079 -0.0763
vn 0.0233 0.9984 0.0513
vn -0.0858 0.9931 0.0799
vn -0.9854 0.1702 0.0025
vn -0.3128 0.9491 0.0368
vn -0.9854 0.1702 0.0025
vn -0.9999 0.0147 -0.0002
vn -0.9999 0.0147 -0.0002
vn -0.9999 0.0147 -0.0002
vn -0.5503 -0.8341 -0.0383
vn -0.9883 0.1518 -0.0126
vn -0.3128 0.9491 0.0368
vn -0.8519 0.1648 0.4971
vn -0.2463 0.8665 -0.4343
vn -0.3965 -0.7149 0.5760
vn 0.5014 0.3426 0.7945
vn 0.0002 0.9863 -0.1649
vn -0.2318 -0.5111 0.8277
vn -1.0000 0.0014 0.0040
vn -1.0000 0.0014 0.0040
vn -1.0000 0.0014 0.0040
vn -0.5334 -0.8331 0.1465
vn -0.9988 0.0497 -0.0026
vn -0.9988 0.0497 -0.0026
vn -0.9999 0.0111 0.0019
vn -0.9999 0.0111 0.0019
vn -0.9999 0.0111 0.0019
vn -0.9855 -0.1256 -0.1143
vn -0.8924 0.4443 -0.0792
vn -0.9855 -0.1256 -0.1143
vn 0.1573 -0.9873 0.0237
vn -0.8924 0.4443 -0.0792
vn 0.3081 -0.9416 0.1360
vn -0.3614 -0.9288 0.0819
vn -0.8783 -0.4741 0.0624
vn 0.1573 -0.9873 0.0237
vn -0.5334 -0.8331 0.1465
vn -0.3044 0.8918 -0.3347
vn -0.9863 0.1419 -0.0839
vn -0.9844 -0.1633 0.0662
vn -0.4333 0.8974 -0.0825
vn -0.2826 0.9592 0.0053
vn 0.3176 -0.9346 0.1601
vn -0.0054 -0.9842 0.1771
vn -0.0171 -0.9987 0.0486
vn -0.9617 -0.2739 0.0118
vn -0.4557 0.8735 -0.1711
vn -0.4333 0.8974 -0.0825
vn -0.3663 -0.9304 -0.0116
vn -0.6941 0.7199 0.0030
vn -0.3614 -0.9288 0.0819
vn -0.9844 -0.1633 0.0662
vn -0.3513 0.9338 0.0674
vn -0.3663 -0.9304 -0.0116
vn -0.3513 0.9338 0.0674
vn -0.2826 0.9592 0.0053
vn 0.0013 0.9990 -0.0441
vn -0.8044 -0.5801 0.1286
vn -0.1829 0.9392 -0.2907
vn -0.4260 0.8738 -0.2343
vn -0.4260 0.8738 -0.2343
vn -0.1829 0.9392 -0.2907
vn 0.0238 0.9758 -0.2175
vn -0.8622 -0.4957 0.1044
vn -0.4260 0.8738 -0.2343
vn -0.2527 0.9488 -0.1896
vn 0.1571 -0.9352 0.3173
vn 0.7262 -0.6715 0.1473
vn 0.9872 0.1345 -0.0856
vn -0.7590 -0.6015 -0.2492
vn -0.4388 -0.7802 -0.4457
vn 0.0133 -0.9937 -0.1117
vn -0.7590 -0.6015 -0.2492
vn 0.1574 -0.9774 -0.1414
vn -0.5894 -0.6233 -0.5140
vn -0.7085 -0.6969 0.1109
vn -0.9110 0.4060 -0.0723
vn -0.4557 0.8735 -0.1711
vn -0.2828 -0.9507 0.1273
vn -0.9110 0.4060 -0.0723
vn -0.6639 -0.7396 0.1104
vn -0.9110 -0.3837 0.1512
vn -0.1829 0.9392 -0.2907
vn -0.9701 0.2224 -0.0977
vn -0.9607 -0.2529 0.1145
vn -0.3862 0.8626 -0.3269
vn -0.9110 -0.3837 0.1512
vn -0.9607 -0.2529 0.1145
vn -0.1093 0.8412 -0.5295
vn -0.1314 0.8913 -0.4340
vn 0.0238 0.9758 -0.2175
vn -0.1323 0.9392 -0.3167
vn -0.0027 0.9734 -0.2290
vn -0.1778 -0.9841 0.0027
vn 0.0483 -0.9981 -0.0378
vn 0.2626 -0.9649 0.0050
vn 0.1333 -0.9910 0.0150
vn -0.1073 -0.9921 0.0654
vn -0.2679 -0.9633 0.0187
vn -0.2184 -0.8235 0.5235
vn -0.3067 -0.7956 0.5225
vn 0.0721 -0.8644 0.4976
vn 0.0039 0.9842 -0.1771
vn -0.9110 0.4060 -0.0723
vn -0.2608 0.9578 -0.1210
vn 0.1766 -0.9824 0.0605
vn 0.1775 -0.9809 0.0793
vn -0.1073 -0.9921 0.0654
vn 0.1333 -0.9910 0.0150
vn -0.2679 -0.9633 0.0187
vn -0.1778 -0.9841 0.0027
vn 0.9824 -0.1837 0.0339
vn 0.1478 0.9864 -0.0721
vn 0.3592 0.9193 -0.1606
vn -0.1829 0.9392 -0.2907
vn -0.3862 0.8626 -0.3269
vn 0.1743 0.8963 -0.4078
vn -0.3067 -0.7956 0.5225
vn -0.1555 -0.9017 0.4035
vn 0.2044 -0.8284 0.5215
vn 0.0238 0.9758 -0.2175
vn -0.1829 0.9392 -0.2907
vn 0.1743 0.8963 -0.4078
vn -0.3862 0.8626 -0.3269
vn -0.1314 0.8913 -0.4340
vn 0.1743 0.8963 -0.4078
vn 0.3176 -0.9346 0.1601
vn 0.4182 -0.8998 0.1245
vn -0.0054 -0.9842 0.1771
vn 0.6351 0.7724 -0.0060
vn 0.5728 0.8195 0.0161
vn 0.0185 0.9986 0.0490
vn -0.0221 -0.9985 -0.0497
vn 0.3045 -0.9487 0.0855
vn 0.2138 -0.9767 -0.0194
vn -0.6625 0.7482 0.0355
vn -0.6941 0.7199 0.0030
vn 0.0185 0.9986 0.0490
vn 0.1541 -0.9483 0.2773
vn -0.2519 -0.9570 0.1439
vn -0.0164 -0.9804 0.1964
vn 0.1446 0.9894 -0.0163
vn -0.1818 0.9813 -0.0634
vn 0.3665 0.9286 -0.0586
vn 0.1775 -0.9809 0.0793
vn 0.9824 -0.1837 0.0339
vn -0.0177 -0.9673 0.2531
vn -0.7590 -0.6015 -0.2492
vn -0.5894 -0.6233 -0.5140
vn -0.4388 -0.7802 -0.4457
vn 0.0039 0.9842 -0.1771
vn -0.0287 0.9899 -0.1388
vn 0.4489 0.8792 -0.1596
vn 0.0233 0.9984 0.0513
vn -0.0463 0.9983 0.0365
vn 0.0010 0.9947 0.1028
vn 0.0133 -0.9937 -0.1117
vn 0.7693 -0.5525 -0.3210
vn 0.9616 -0.2421 -0.1292
vn -0.3965 -0.7149 0.5760
vn 0.1692 -0.7942 0.5836
vn 0.2781 -0.6797 0.6787
vn 0.5728 0.8195 0.0161
vn 0.0079 0.9821 -0.1881
vn 0.0185 0.9986 0.0490
vn 0.0238 0.9758 -0.2175
vn 0.3504 0.9059 -0.2377
vn 0.2729 0.9474 -0.1675
vn -0.1747 0.9830 0.0569
vn 0.0010 0.9947 0.1028
vn -0.0463 0.9983 0.0365
vn 0.7693 -0.5525 -0.3210
vn 0.5351 0.8199 0.2035
vn 0.8431 0.5003 -0.1973
vn 0.1743 0.8963 -0.4078
vn 0.2173 0.8172 -0.5339
vn 0.1995 0.8301 -0.5207
vn -0.3067 -0.7956 0.5225
vn 0.2044 -0.8284 0.5215
vn 0.0721 -0.8644 0.4976
vn 0.2806 0.8459 -0.4535
vn 0.3993 0.8056 -0.4377
vn -0.2321 0.8538 -0.4660
vn 0.3278 0.8250 -0.4604
vn 0.2173 0.8172 -0.5339
vn -0.1093 0.8412 -0.5295
vn 0.0079 0.9821 -0.1881
vn 0.5728 0.8195 0.0161
vn 0.8014 0.5915 -0.0886
vn 0.1490 0.9884 -0.0283
vn 0.0013 0.9990 -0.0441
vn 0.2999 0.9517 -0.0652
vn -0.2184 -0.8235 0.5235
vn 0.2865 -0.7929 0.5378
vn 0.1692 -0.7942 0.5836
vn 0.6329 -0.6721 0.3842
vn 0.2044 -0.8284 0.5215
vn -0.1555 -0.9017 0.4035
vn 0.3498 0.8746 -0.3358
vn 0.2806 0.8459 -0.4535
vn -0.2463 0.8665 -0.4343
vn 0.2999 0.9517 -0.0652
vn 0.0013 0.9990 -0.0441
vn 0.1830 0.9678 -0.1727
vn -0.3321 0.9193 0.2114
vn -0.4309 0.8872 0.1652
vn 0.0010 0.9947 0.1028
vn 0.0483 -0.9981 -0.0378
vn 0.0133 -0.9937 -0.1117
vn 0.5880 -0.8071 -0.0533
vn 0.5546 -0.8189 0.1481
vn 0.7328 -0.6604 0.1642
vn -0.0186 -0.9750 0.2213
vn -0.0221 -0.9985 -0.0497
vn -0.0164 -0.9804 0.1964
vn -0.1503 -0.9882 0.0289
vn 0.5351 0.8199 0.2035
vn -0.2593 0.9657 0.0152
vn 0.0864 0.9670 0.2396
vn 0.0133 -0.9937 -0.1117
vn 0.0483 -0.9981 -0.0378
vn -0.3590 -0.9318 -0.0530
vn -0.5894 -0.6233 -0.5140
vn -0.9363 0.3361 -0.1020
vn -0.9217 0.0216 -0.3872
vn 0.0287 0.9651 -0.2602
vn 0.3592 0.9193 -0.1606
vn 0.1478 0.9864 -0.0721
vn 0.3405 -0.9275 0.1544
vn 0.0314 -0.9899 0.1381
vn -0.0054 -0.9842 0.1771
vn 0.1766 -0.9824 0.0605
vn -0.1073 -0.9921 0.0654
vn 0.1333 -0.9910 0.0150
vn -0.0221 -0.9985 -0.0497
vn -0.3614 -0.9288 0.0819
vn 0.1573 -0.9873 0.0237
vn 0.0079 0.9821 -0.1881
vn 0.8014 0.5915 -0.0886
vn 0.4763 0.8309 -0.2877
vn 0.2714 0.9609 0.0553
vn 0.6351 0.7724 -0.0060
vn 0.0185 0.9986 0.0490
vn 0.0039 0.9842 -0.1771
vn 0.4930 0.8601 -0.1310
vn 0.1830 0.9678 -0.1727
vn -0.1555 -0.9017 0.4035
vn -0.9607 -0.2529 0.1145
vn -0.9110 -0.3837 0.1512
vn 0.2173 0.8172 -0.5339
vn 0.1743 0.8963 -0.4078
vn -0.1093 0.8412 -0.5295
vn -0.1394 0.9902 -0.0035
vn -0.2830 0.9590 -0.0173
vn 0.1446 0.9894 -0.0163
vn -0.1818 0.9813 -0.0634
vn 0.1478 0.9864 -0.0721
vn 0.3665 0.9286 -0.0586
vn 0.3278 0.8250 -0.4604
vn -0.1093 0.8412 -0.5295
vn -0.2321 0.8538 -0.4660
vn -0.1555 -0.9017 0.4035
vn -0.4583 -0.8522 0.2524
vn -0.0186 -0.9750 0.2213
vn -0.2830 0.9590 -0.0173
vn -0.1818 0.9813 -0.0634
vn 0.1446 0.9894 -0.0163
vn 0.1807 0.9835 -0.0088
vn -0.0463 0.9983 0.0365
vn -0.1394 0.9902 -0.0035
vn -0.2593 0.9657 0.0152
vn 0.0333 0.9752 0.2188
vn 0.0864 0.9670 0.2396
vn -0.1555 -0.9017 0.4035
vn -0.9110 -0.3837 0.1512
vn -0.4583 -0.8522 0.2524
vn -0.2828 -0.9507 0.1273
vn -0.6639 -0.7396 0.1104
vn -0.0054 -0.9842 0.1771
vn 0.0010 0.9947 0.1028
vn 0.5351 0.8199 0.2035
vn 0.0864 0.9670 0.2396
vn 0.7262 -0.6715 0.1473
vn 0.1571 -0.9352 0.3173
vn -0.0186 -0.9750 0.2213
vn 0.1131 0.9244 -0.3644
vn -0.0027 0.9734 -0.2290
vn -0.1323 0.9392 -0.3167
vn -0.0186 -0.9750 0.2213
vn -0.4583 -0.8522 0.2524
vn -0.8044 -0.5801 0.1286
vn 0.0013 0.9990 -0.0441
vn 0.0039 0.9842 -0.1771
vn 0.1830 0.9678 -0.1727
vn 0.4489 0.8792 -0.1596
vn -0.0287 0.9899 -0.1388
vn 0.8675 0.4889 -0.0911
vn -0.0171 -0.9987 0.0486
vn -0.9844 -0.1633 0.0662
vn -0.3663 -0.9304 -0.0116
vn 0.0013 0.9990 -0.0441
vn 0.2714 0.9609 0.0553
vn 0.0185 0.9986 0.0490
vn 0.8675 0.4889 -0.0911
vn -0.0287 0.9899 -0.1388
vn 0.2729 0.9474 -0.1675
vn 0.1490 0.9884 -0.0283
vn 0.2714 0.9609 0.0553
vn 0.0013 0.9990 -0.0441
vn 0.0287 0.9651 -0.2602
vn 0.0079 0.9821 -0.1881
vn 0.4763 0.8309 -0.2877
vn 0.1961 0.9798 0.0391
vn 0.4897 0.8704 0.0511
vn -0.0463 0.9983 0.0365
vn -0.2184 -0.8235 0.5235
vn 0.0721 -0.8644 0.4976
vn 0.2865 -0.7929 0.5378
vn -0.1116 0.9883 0.1037
vn -0.3321 0.9193 0.2114
vn 0.0010 0.9947 0.1028
vn -0.0221 -0.9985 -0.0497
vn 0.1573 -0.9873 0.0237
vn -0.0164 -0.9804 0.1964
vn 0.0039 0.9842 -0.1771
vn -0.2608 0.9578 -0.1210
vn -0.0287 0.9899 -0.1388
vn 0.4930 0.8601 -0.1310
vn 0.0039 0.9842 -0.1771
vn 0.4489 0.8792 -0.1596
vn -0.2463 0.8665 -0.4343
vn 0.2806 0.8459 -0.4535
vn -0.2321 0.8538 -0.4660
vn -0.0858 0.9931 0.0799
vn 0.0010 0.9947 0.1028
vn 0.2413 0.9630 0.1200
vn -0.3128 0.9491 0.0368
vn -0.0463 0.9983 0.0365
vn 0.0233 0.9984 0.0513
vn 0.1775 -0.9809 0.0793
vn -0.0177 -0.9673 0.2531
vn -0.2461 -0.9651 0.0900
vn -0.5894 -0.6233 -0.5140
vn -0.6139 0.3200 -0.7216
vn -0.4388 -0.7802 -0.4457
vn -0.0177 -0.9673 0.2531
vn -0.0164 -0.9804 0.1964
vn -0.1029 -0.9407 0.3232
vn -0.0221 -0.9985 -0.0497
vn -0.0171 -0.9987 0.0486
vn -0.3663 -0.9304 -0.0116
vn -0.2828 -0.9507 0.1273
vn -0.0186 -0.9750 0.2213
vn -0.8622 -0.4957 0.1044
vn -0.7085 -0.6969 0.1109
vn -0.0171 -0.9987 0.0486
vn -0.0054 -0.9842 0.1771
vn -0.1778 -0.9841 0.0027
vn 0.2626 -0.9649 0.0050
vn 0.1333 -0.9910 0.0150
vn -0.1394 0.9902 -0.0035
vn -0.0463 0.9983 0.0365
vn -0.3128 0.9491 0.0368
vn 0.3504 0.9059 -0.2377
vn 0.0238 0.9758 -0.2175
vn -0.0027 0.9734 -0.2290
vn 0.0133 -0.9937 -0.1117
vn -0.3590 -0.9318 -0.0530
vn -0.7904 -0.6079 -0.0763
vn -0.1323 0.9392 -0.3167
vn -0.8560 0.5122 -0.0701
vn 0.1131 0.9244 -0.3644
vn 0.0133 -0.9937 -0.1117
vn -0.4388 -0.7802 -0.4457
vn 0.7693 -0.5525 -0.3210
vn -0.0287 0.9899 -0.1388
vn -0.2608 0.9578 -0.1210
vn 0.0238 0.9758 -0.2175
vn 0.0238 0.9758 -0.2175
vn 0.1743 0.8963 -0.4078
vn -0.1323 0.9392 -0.3167
vn -0.3965 -0.7149 0.5760
vn 0.2781 -0.6797 0.6787
vn -0.2318 -0.5111 0.8277
vn 0.2781 -0.6797 0.6787
vn -0.0523 -0.8215 0.5678
vn -0.2318 -0.5111 0.8277
vn 0.0133 -0.9937 -0.1117
vn -0.9293 -0.3563 -0.0974
vn -0.7590 -0.6015 -0.2492
f 57//1 148//2 46//3
f 45//4 46//5 6//6
f 108//7 94//8 90//9
f 102//10 58//11 47//12
f 102//13 47//14 52//15
f 104//16 94//17 92//18
f 57//19 58//20 148//21
f 59//22 125//23 70//24
f 75//25 125//26 59//27
f 60//28 72//29 153//30
f 21//31 91//32 85//33
f 154//34 95//35 24//36
f 78//37 107//38 77//39
f 65//40 114//41 115//42
f 64//43 115//44 116//45
f 61//46 116//47 118//48
f 61//49 106//50 78//51
f 55//52 119//53 56//54
f 64//55 18//56 65//57
f 14//58 17//59 18//60
f 18//61 121//62 15//63
f 61//64 78//65 14//66
f 54//67 120//68 55//69
f 66//70 128//71 114//72
f 56//73 9//74 55//75
f 15//76 121//77 9//78
f 66//79 15//80 53//81
f 56//82 128//83 53//84
f 51//85 127//86 54//87
f 53//88 15//89 56//90
f 54//91 4//92 51//93
f 51//94 4//95 48//96
f 49//97 134//98 139//99
f 48//100 133//101 51//102
f 43//103 42//104 10//105
f 2//106 42//107 50//108
f 39//109 41//110 1//111
f 124//112 79//113 121//114
f 48//115 139//116 142//117
f 33//118 11//119 30//120
f 42//121 143//122 145//123
f 66//124 18//125 15//126
f 11//127 28//128 29//129
f 28//130 12//131 27//132
f 50//133 145//134 134//135
f 73//136 88//137 74//138
f 99//139 97//140 106//141
f 76//142 103//143 75//144
f 97//145 89//146 90//147
f 22//148 93//149 40//150
f 85//151 91//152 71//153
f 63//154 100//155 62//156
f 26//157 105//158 21//159
f 146//160 104//161 156//162
f 16//163 62//164 101//165
f 41//166 143//167 43//168
f 39//169 3//170 41//171
f 108//172 109//173 17//174
f 38//175 7//176 6//177
f 30//178 8//179 33//180
f 30//181 16//182 13//183
f 28//184 16//185 29//186
f 27//187 62//188 28//189
f 123//190 9//191 122//192
f 78//193 17//194 14//195
f 124//196 18//197 126//198
f 21//199 71//200 26//201
f 2//202 129//203 131//204
f 132//205 4//206 123//207
f 130//208 4//209 132//210
f 26//211 63//212 27//213
f 1//214 135//215 136//216
f 137//217 138//218 10//219
f 138//220 135//221 10//222
f 38//223 140//224 141//225
f 140//226 1//227 136//228
f 83//229 87//230 95//231
f 77//232 86//233 20//234
f 82//235 86//236 96//237
f 19//238 96//239 87//240
f 67//241 23//242 113//243
f 149//244 11//245 147//246
f 23//247 31//248 100//249
f 150//250 11//251 149//252
f 152//253 12//254 151//255
f 92//256 19//257 104//258
f 22//259 24//260 95//261
f 22//262 95//263 93//264
f 98//265 88//266 114//267
f 91//268 110//269 100//270
f 32//271 34//272 100//273
f 13//274 101//275 8//276
f 84//277 8//278 36//279
f 103//280 125//281 75//282
f 12//283 26//284 27//285
f 11//286 29//287 30//288
f 74//289 88//290 79//291
f 72//292 125//293 153//294
f 58//295 102//296 148//297
f 33//298 84//299 25//300
f 25//301 7//302 37//303
f 46//304 148//305 6//306
f 68//307 111//308 110//309
f 68//310 67//311 113//312
f 105//313 69//314 110//315
f 41//316 10//317 1//318
f 39//319 38//320 6//321
f 109//322 108//323 90//324
f 109//325 89//326 81//327
f 112//328 81//329 80//330
f 121//331 79//332 76//333
f 123//334 122//335 76//336
f 124//337 126//338 73//339
f 126//340 117//341 80//342
f 130//343 70//344 72//345
f 129//346 72//347 60//348
f 132//349 123//350 75//351
f 130//352 132//353 59//354
f 136//355 135//356 58//357
f 131//358 60//359 52//360
f 137//361 52//362 47//363
f 135//364 138//365 47//366
f 140//367 46//368 45//369
f 136//370 57//371 46//372
f 144//373 141//374 45//375
f 154//376 24//377 22//378
f 146//379 40//380 93//381
f 149//382 147//383 36//384
f 147//385 144//386 44//387
f 150//388 149//389 35//390
f 151//391 150//392 34//393
f 152//394 151//395 32//396
f 156//397 22//398 40//399
f 152//400 31//401 23//402
f 25//403 84//404 7//405
f 33//406 8//407 84//408
f 67//409 155//410 23//411
f 19//412 82//413 96//414
f 102//415 52//416 153//417
f 82//418 20//419 86//420
f 77//421 107//422 86//423
f 83//424 19//425 87//426
f 26//427 71//428 63//429
f 21//430 85//431 71//432
f 27//433 63//434 62//435
f 28//436 62//437 16//438
f 30//439 29//440 16//441
f 30//442 13//443 8//444
f 38//445 37//446 7//447
f 39//448 5//449 3//450
f 41//451 3//452 143//453
f 50//454 42//455 145//456
f 42//457 43//458 143//459
f 48//460 49//461 139//462
f 124//463 74//464 79//465
f 96//466 86//467 94//468
f 48//469 142//470 133//471
f 49//472 50//473 134//474
f 51//475 133//476 127//477
f 56//478 119//479 128//480
f 4//481 49//482 48//483
f 66//484 53//485 128//486
f 54//487 127//488 120//489
f 55//490 120//491 119//492
f 2//493 49//494 4//495
f 61//496 118//497 106//498
f 61//499 64//500 116//501
f 64//502 65//503 115//504
f 65//505 66//506 114//507
f 78//508 106//509 107//510
f 154//511 83//512 95//513
f 21//514 105//515 91//516
f 148//517 3//518 5//519
f 104//520 93//521 94//522
f 108//523 92//524 94//525
f 152//526 23//527 155//528
f 156//529 40//530 146//531
f 152//532 32//533 31//534
f 151//535 34//536 32//537
f 150//538 35//539 34//540
f 147//541 44//542 36//543
f 149//544 36//545 35//546
f 146//547 93//548 104//549
f 154//550 22//551 156//552
f 144//553 45//554 44//555
f 136//556 46//557 140//558
f 140//559 45//560 141//561
f 135//562 47//563 58//564
f 137//565 47//566 138//567
f 131//568 52//569 137//570
f 136//571 58//572 57//573
f 130//574 59//575 70//576
f 54//577 9//578 4//579
f 132//580 75//581 59//582
f 129//583 60//584 131//585
f 130//586 72//587 129//588
f 72//589 70//590 125//591
f 126//592 80//593 73//594
f 73//595 80//596 88//597
f 124//598 73//599 74//600
f 14//601 64//602 61//603
f 155//604 69//605 12//606
f 155//607 67//608 68//609
f 123//610 76//611 75//612
f 121//613 76//614 122//615
f 112//616 80//617 117//618
f 109//619 81//620 112//621
f 109//622 90//623 89//624
f 88//625 99//626 116//627
f 147//628 11//629 33//630
f 25//631 141//632 144//633
f 92//634 108//635 20//636
f 103//637 76//638 79//639
f 37//640 38//641 141//642
f 25//643 144//644 147//645
f 39//646 6//647 5//648
f 80//649 81//650 97//651
f 108//652 17//653 77//654
f 88//655 80//656 97//657
f 81//658 89//659 97//660
f 54//661 55//662 9//663
f 134//664 145//665 153//666
f 2//667 50//668 49//669
f 52//670 60//671 153//672
f 41//673 43//674 10//675
f 84//676 45//677 7//678
f 38//679 39//680 1//681
f 155//682 68//683 69//684
f 103//685 98//686 119//687
f 34//688 101//689 100//690
f 12//691 105//692 26//693
f 104//694 19//695 83//696
f 145//697 102//698 153//699
f 88//700 115//701 114//702
f 62//703 100//704 101//705
f 105//706 110//707 91//708
f 97//709 107//710 106//711
f 108//712 77//713 20//714
f 87//715 96//716 94//717
f 86//718 107//719 90//720
f 102//721 145//722 143//723
f 142//724 125//725 133//726
f 92//727 82//728 19//729
f 78//730 77//731 17//732
f 95//733 87//734 93//735
f 133//736 125//737 127//738
f 71//739 91//740 100//741
f 11//742 12//743 28//744
f 66//745 65//746 18//747
f 2//748 10//749 42//750
f 110//751 111//752 23//753
f 12//754 11//755 150//756
f 68//757 113//758 111//759
f 148//760 5//761 6//762
f 56//763 15//764 9//765
f 37//766 141//767 25//768
f 2//769 131//770 137//771
f 102//772 143//773 3//774
f 139//775 134//776 153//777
f 103//778 120//779 127//780
f 17//781 109//782 112//783
f 107//784 97//785 90//786
f 36//787 44//788 84//789
f 45//790 6//791 7//792
f 86//793 90//794 94//795
f 17//796 117//797 18//798
f 44//799 45//800 84//801
f 8//802 101//803 36//804
f 111//805 113//806 23//807
f 17//808 112//809 117//810
f 121//811 122//812 9//813
f 100//814 110//815 23//816
f 64//817 14//818 18//819
f 118//820 116//821 99//822
f 18//823 117//824 126//825
f 125//826 103//827 127//828
f 119//829 98//830 128//831
f 4//832 130//833 129//834
f 125//835 139//836 153//837
f 128//838 98//839 114//840
f 142//841 139//842 125//843
f 148//844 102//845 3//846
f 13//847 16//848 101//849
f 92//850 20//851 82//852
f 63//853 71//854 100//855
f 2//856 137//857 10//858
f 103//859 79//860 98//861
f 120//862 103//863 119//864
f 93//865 87//866 94//867
f 32//868 100//869 31//870
f 35//871 101//872 34//873
f 38//874 1//875 140//876
f 68//877 110//878 69//879
f 1//880 10//881 135//882
f 2//883 4//884 129//885
f 121//886 18//887 124//888
f 123//889 4//890 9//891
f 147//892 33//893 25//894
f 36//895 101//896 35//897
f 115//898 88//899 116//900
f 12//901 150//902 151//903
f 99//904 106//905 118//906
f 12//907 69//908 105//909
f 98//910 79//911 88//912
f 88//913 97//914 99//915
f 104//916 83//917 156//918
f 83//919 154//920 156//921
f 12//922 152//923 155//924
