mtllib work_trousers_trim.mtl
usemtl work_trousers_trim
v -0.10342 0.01330 0.01284
v -0.14943 0.00609 0.01792
v -0.18500 0.02618 0.03487
v -0.18066 0.00682 0.12813
v -0.14353 -0.02698 0.11527
v -0.08859 -0.02260 0.10773
v -0.18350 0.01640 0.07823
v -0.14887 -0.01257 0.06066
v -0.09511 -0.00765 0.05666
v -0.09028 0.02846 0.00846
v -0.08822 -0.02657 0.13474
v -0.11648 -0.02989 0.11076
v -0.13790 -0.01878 0.14153
v -0.18909 0.02605 0.13272
v -0.07717 0.00618 0.05828
v -0.09213 -0.01538 0.08124
v -0.12065 -0.01489 0.05706
v -0.14407 -0.02073 0.08649
v -0.16495 -0.01232 0.12049
v -0.18111 0.01056 0.10189
v -0.08688 0.02429 0.01625
v -0.09932 0.00327 0.03445
v -0.12490 0.00606 0.01446
v -0.14980 -0.00229 0.03896
v -0.16777 -0.00119 0.06819
v -0.18383 0.02125 0.05523
v -0.17002 0.01474 0.02603
v -0.18262 0.02814 0.01481
v -0.14470 0.02059 0.00112
v -0.15596 0.02205 0.00213
v -0.16570 0.02409 0.00377
v -0.13289 0.02010 0.00063
v -0.12158 0.02073 0.00065
v -0.11154 0.02230 0.00127
v -0.10306 0.02442 0.00267
v -0.08428 0.03223 0.01994
v -0.12619 -0.02204 0.14145
v -0.10590 -0.02457 0.13745
v -0.11610 -0.02553 0.13791
v -0.18471 0.03374 0.03835
v -0.18134 0.02107 0.13967
v -0.17737 0.01442 0.14039
v -0.17220 0.00727 0.14093
v -0.16540 -0.00046 0.14128
v -0.15730 -0.00776 0.14136
v -0.14794 -0.01410 0.14141
v -0.08181 -0.01555 0.13259
v -0.17702 0.03153 0.01064
v -0.18284 0.03321 0.02518
v -0.18383 0.02565 0.13652
v -0.17250 0.03007 0.00533
v -0.08975 -0.02078 0.13331
v -0.09723 0.03043 0.00493
v -0.11411 -0.03451 0.13845
v -0.18560 0.02964 0.13313
v -0.09626 -0.02238 0.13609
v -0.07118 0.00340 0.07969
v -0.11795 -0.02485 0.08121
v -0.07812 0.03094 0.03170
v -0.18983 0.02850 0.10949
v -0.08072 0.01539 0.03694
v -0.12304 -0.00510 0.03379
v -0.16679 -0.00842 0.09406
v -0.17063 0.00730 0.04598
v -0.16774 0.01850 0.00639
v -0.18690 0.03389 0.07686
v -0.18670 0.03236 0.11939
v -0.18702 0.03378 0.08477
v -0.07161 0.01844 0.05188
v -0.07235 0.02269 0.04393
v -0.07361 0.02605 0.03670
v -0.07175 -0.00534 0.09925
v -0.07136 -0.00122 0.08954
v -0.18710 0.03374 0.09306
v -0.18711 0.03360 0.10189
v -0.18689 0.03291 0.11074
v -0.18620 0.03093 0.12686
v -0.18385 0.03347 0.03151
v -0.18601 0.03410 0.05325
v -0.18645 0.03415 0.06105
v -0.07125 0.01356 0.06059
v -0.07810 0.02974 0.02385
v -0.08546 0.02969 0.01287
v -0.19030 0.03225 0.06879
v -0.17905 0.03056 0.01568
v -0.18116 0.03224 0.01957
v -0.07661 -0.00946 0.11787
v -0.18896 0.03211 0.04538
v -0.07114 0.00842 0.06995
v -0.07510 -0.00608 0.10945
v -0.07676 -0.01588 0.12493
v -0.07256 -0.00904 0.10858
v -0.07409 -0.01250 0.11726
v -0.07927 -0.01278 0.12529
v -0.07424 0.01066 0.07112
v -0.18544 0.03399 0.04564
v -0.18679 0.03417 0.06891
v -0.18469 0.03055 0.01875
v -0.08815 0.03174 0.01500
v -0.08095 0.03200 0.02553
v -0.07440 0.01568 0.06186
v -0.07382 0.00168 0.09076
v -0.18236 0.02956 0.01367
v -0.18998 0.03227 0.06088
v -0.07423 -0.00240 0.10033
v -0.07660 0.02815 0.03834
v -0.07541 0.02481 0.04539
v -0.07469 0.02057 0.05328
v -0.16629 0.02138 0.00876
v -0.18954 0.03222 0.05304
v -0.16806 0.01020 0.04696
v -0.18737 0.03163 0.03106
v -0.16410 -0.00549 0.09454
v -0.12331 -0.00153 0.03559
v -0.08334 0.01790 0.03862
v -0.18609 0.02991 0.10958
v -0.11823 -0.02103 0.08234
v -0.07377 0.00621 0.08087
v -0.11383 -0.03087 0.13682
v -0.10466 0.02703 0.00525
v -0.11234 0.02510 0.00401
v -0.12204 0.02353 0.00346
v -0.13281 0.02293 0.00345
v -0.16415 0.02548 0.00719
v -0.15533 0.02405 0.00554
v -0.14406 0.02363 0.00363
v -0.17946 0.03011 0.01625
v -0.19011 0.03012 0.12702
v -0.16783 0.01790 0.02717
v -0.18054 0.02347 0.05567
v -0.19075 0.03186 0.11075
v -0.19078 0.03204 0.10177
v -0.19075 0.03210 0.09303
v -0.19067 0.03214 0.08471
v -0.19057 0.03133 0.11941
v -0.19052 0.03220 0.07670
v -0.16512 0.00172 0.06892
v -0.07551 0.02840 0.03006
v -0.14849 0.00119 0.04042
v -0.12517 0.00931 0.01679
v -0.10099 0.00643 0.03625
v -0.08935 0.02670 0.01827
v -0.17769 0.01262 0.10210
v -0.16231 -0.00932 0.12033
v -0.14268 -0.01707 0.08732
v -0.12090 -0.01120 0.05860
v -0.09395 -0.01202 0.08243
v -0.09515 -0.02498 0.13892
v -0.07989 0.00876 0.05966
v -0.18523 0.02607 0.13165
v -0.11656 -0.02592 0.11129
v -0.09036 -0.02355 0.13322
v -0.09235 0.03108 0.01066
v -0.09680 -0.00438 0.05822
v -0.14742 -0.00905 0.06189
v -0.18918 0.02786 0.13301
v -0.09607 0.02661 0.00504
v -0.08709 -0.02235 0.13585
v -0.17331 0.02624 0.00618
v -0.18750 0.02422 0.13719
v -0.18010 0.01849 0.07850
v -0.09034 -0.01911 0.10860
v -0.14217 -0.02322 0.11529
v -0.18625 0.03120 0.02459
v -0.17730 0.00898 0.12785
v -0.18186 0.02861 0.03535
v -0.17875 0.02812 0.00946
v -0.08099 -0.01921 0.13120
v -0.14990 -0.01749 0.14218
v -0.15970 -0.01087 0.14215
v -0.16821 -0.00319 0.14205
v -0.14824 0.00928 0.02002
v -0.17525 0.00482 0.14178
v -0.18076 0.01244 0.14113
v -0.18478 0.01904 0.13976
v -0.18825 0.03191 0.03802
v -0.11599 -0.02706 0.14160
v -0.10495 -0.02669 0.14070
v -0.12759 -0.02575 0.14200
v -0.08142 0.03015 0.01808
v -0.13907 -0.02255 0.14215
v -0.10493 0.01623 0.01512
v 0.10448 0.01314 0.01368
v 0.15098 0.00517 0.01935
v 0.18555 0.02552 0.03621
v 0.18053 0.00684 0.12743
v 0.14616 -0.02515 0.11682
v 0.08771 -0.02193 0.10894
v 0.18315 0.01569 0.07818
v 0.15034 -0.01334 0.06330
v 0.09509 -0.00764 0.05813
v 0.08977 -0.02682 0.13571
v 0.11682 -0.02897 0.11186
v 0.17736 0.01433 0.14050
v 0.17248 0.00715 0.14098
v 0.18888 0.02633 0.13164
v 0.07622 0.00610 0.05977
v 0.09164 -0.01485 0.08224
v 0.12490 -0.01560 0.05906
v 0.14749 -0.01951 0.08823
v 0.16543 -0.01196 0.12049
v 0.18113 0.01086 0.10180
v 0.08736 0.02449 0.01690
v 0.09995 0.00304 0.03569
v 0.12670 0.00585 0.01516
v 0.15129 -0.00325 0.04074
v 0.16843 -0.00167 0.07034
v 0.18438 0.02140 0.05720
v 0.12505 -0.02699 0.14202
v 0.07625 0.02814 0.03027
v 0.08660 0.02962 0.01302
v 0.19070 0.03266 0.11525
v 0.18818 0.03156 0.03238
v 0.14486 -0.02190 0.14218
v 0.14926 0.01284 0.00212
v 0.16949 0.01238 0.02675
v 0.18344 0.02725 0.01571
v 0.18121 0.02106 0.13983
v 0.18371 0.02599 0.13726
v 0.15152 -0.01363 0.14163
v 0.07895 0.02960 0.02403
v 0.15925 -0.00758 0.14148
v 0.16630 -0.00045 0.14137
v 0.18962 0.03218 0.04755
v 0.19053 0.03263 0.07319
v 0.18546 0.03000 0.13427
v 0.08193 -0.01544 0.13305
v 0.08970 -0.01999 0.13422
v 0.19078 0.03290 0.09878
v 0.07725 0.02769 0.03863
v 0.07601 0.02422 0.04557
v 0.07523 0.01994 0.05319
v 0.07465 -0.00250 0.09951
v 0.19002 0.03070 0.12911
v 0.19049 0.03204 0.12272
v 0.07421 0.00163 0.08954
v 0.07417 0.00609 0.07956
v 0.07495 0.01510 0.06129
v 0.07477 0.01025 0.07005
v 0.19032 0.03249 0.06447
v 0.07935 -0.01276 0.12591
v 0.07555 -0.00628 0.10916
v 0.07697 -0.00964 0.11806
v 0.10562 0.02677 0.00500
v 0.09729 0.02644 0.00508
v 0.11674 -0.03351 0.13923
v 0.11245 0.02452 0.00360
v 0.12032 0.02254 0.00273
v 0.12879 0.02104 0.00251
v 0.18904 0.03194 0.03972
v 0.12178 -0.02455 0.08324
v 0.14660 0.01865 0.00456
v 0.18962 0.02908 0.10779
v 0.18685 0.03091 0.02557
v 0.18478 0.02987 0.01935
v 0.08051 0.01541 0.03788
v 0.12656 -0.00610 0.03549
v 0.16745 -0.00816 0.09479
v 0.17721 0.02621 0.00935
v 0.13806 0.02009 0.00300
v 0.18165 0.02830 0.01388
v 0.17134 0.00624 0.04810
v 0.09155 0.02836 0.00858
v 0.16851 0.01755 0.00720
v 0.09589 -0.02232 0.13611
v 0.10500 -0.02405 0.13776
v 0.11473 -0.02575 0.13799
v 0.18703 0.03439 0.08190
v 0.17136 0.02375 0.00584
v 0.16418 0.02123 0.00334
v 0.15594 0.01909 0.00170
v 0.19003 0.03235 0.05585
v 0.13530 -0.02524 0.14215
v 0.08240 0.03007 0.01824
v 0.19077 0.03288 0.10715
v 0.19075 0.03284 0.09034
v 0.19067 0.03274 0.08182
v 0.11444 -0.02730 0.14167
v 0.18708 0.03443 0.09038
v 0.18695 0.03404 0.10714
v 0.08523 0.03213 0.02018
v 0.13444 -0.02134 0.14186
v 0.18648 0.03419 0.05597
v 0.15479 0.02062 0.00520
v 0.16285 0.02310 0.00662
v 0.16905 0.02550 0.00860
v 0.16662 0.02030 0.00940
v 0.09368 0.03093 0.01078
v 0.16868 0.00909 0.04897
v 0.17871 0.02799 0.01657
v 0.10408 -0.02640 0.14086
v 0.09472 -0.02455 0.13921
v 0.13767 0.01730 0.00016
v 0.14698 0.01769 0.00069
v 0.12840 0.01795 0.00000
v 0.11951 0.01950 0.00025
v 0.11128 0.02167 0.00105
v 0.10386 0.02411 0.00259
v 0.17490 0.02892 0.01116
v 0.16471 -0.00528 0.09522
v 0.12675 -0.00252 0.03726
v 0.08310 0.01791 0.03962
v 0.18102 0.02990 0.02071
v 0.18331 0.03269 0.02613
v 0.18588 0.03051 0.10785
v 0.12189 -0.02069 0.08426
v 0.18548 0.03374 0.03996
v 0.11614 -0.02989 0.13763
v 0.09875 0.03015 0.00543
v 0.18678 0.03435 0.06454
v 0.18663 0.03309 0.12269
v 0.18614 0.03165 0.12894
v 0.18696 0.03408 0.09878
v 0.18700 0.03451 0.07322
v 0.18608 0.03403 0.04772
v 0.08177 0.03183 0.02578
v 0.18003 0.02827 0.01753
v 0.16722 0.01552 0.02775
v 0.14864 0.01546 0.00507
v 0.14323 -0.01829 0.14163
v 0.18465 0.03338 0.03283
v 0.18686 0.03379 0.11526
v 0.08925 0.03166 0.01521
v 0.07885 0.03064 0.03199
v 0.12379 -0.02326 0.14135
v 0.18103 0.02356 0.05754
v 0.16572 0.00119 0.07100
v 0.14995 0.00024 0.04214
v 0.12712 0.00923 0.01725
v 0.10156 0.00623 0.03750
v 0.08983 0.02690 0.01893
v 0.17768 0.01287 0.10198
v 0.16273 -0.00900 0.12041
v 0.14601 -0.01586 0.08894
v 0.12506 -0.01187 0.06050
v 0.09337 -0.01144 0.08342
v 0.07450 -0.01273 0.11749
v 0.07302 -0.00926 0.10831
v 0.07705 -0.01600 0.12544
v 0.07895 0.00867 0.06115
v 0.07160 0.00810 0.06892
v 0.07174 0.01308 0.06002
v 0.07163 0.00323 0.07840
v 0.07182 -0.00134 0.08832
v 0.07222 -0.00549 0.09842
v 0.18507 0.02748 0.13125
v 0.11690 -0.02501 0.11243
v 0.09171 -0.02366 0.13420
v 0.09671 -0.00433 0.05969
v 0.07214 0.01787 0.05174
v 0.07293 0.02215 0.04406
v 0.07426 0.02564 0.03693
v 0.14885 -0.00980 0.06441
v 0.17973 0.01776 0.07842
v 0.08945 -0.01843 0.10979
v 0.14471 -0.02143 0.11696
v 0.17714 0.00896 0.12721
v 0.18237 0.02790 0.03661
v 0.08696 -0.02204 0.13630
v 0.08110 -0.01913 0.13176
v 0.18907 0.02827 0.13412
v 0.16924 -0.00308 0.14199
v 0.16187 -0.01053 0.14211
v 0.15371 -0.01694 0.14217
v 0.18738 0.02444 0.13765
v 0.18470 0.01910 0.13988
v 0.14993 0.00871 0.02090
v 0.17563 0.00480 0.14173
v 0.18081 0.01240 0.14112
v 0.10603 0.01614 0.01582
vn 0.7882 0.3003 -0.5372
vn -0.3817 0.8930 0.2385
vn -0.3551 0.8907 0.2837
vn -0.5216 0.7762 -0.3541
vn -0.9608 -0.1977 -0.1943
vn 0.4137 0.9104 0.0043
vn -0.9529 0.2607 -0.1548
vn 0.2679 0.9634 0.0007
vn 0.4137 0.9104 0.0043
vn -0.9980 -0.0420 -0.0480
vn -0.9815 -0.1881 -0.0345
vn 0.4858 0.8737 0.0244
vn -0.9050 0.4094 -0.1157
vn 0.4658 0.8847 0.0202
vn 0.2679 0.9634 0.0007
vn -0.5616 0.7182 -0.4109
vn -0.1858 0.9619 -0.2007
vn 0.1907 0.9796 0.0633
vn 0.7166 0.6897 -0.1036
vn 0.5923 0.8023 -0.0744
vn -0.3551 0.8907 0.2837
vn 0.6090 -0.3337 -0.7195
vn 0.1982 0.1707 -0.9652
vn 0.0691 0.7582 -0.6484
vn -0.6701 -0.3452 -0.6571
vn 0.1907 0.9796 0.0633
vn 0.0318 0.7282 -0.6846
vn -0.5216 0.7762 -0.3541
vn -0.0592 0.9551 -0.2903
vn -0.1858 0.9619 -0.2007
vn 0.7107 0.1644 -0.6840
vn 0.6090 -0.3337 -0.7195
vn -0.3069 0.9147 0.2628
vn -0.9945 0.0816 -0.0659
vn -0.9980 -0.0420 -0.0480
vn 0.5815 0.8132 0.0248
vn -0.9050 0.4094 -0.1157
vn -0.4662 0.8821 -0.0683
vn 0.6611 0.7493 0.0373
vn -0.0138 -0.4007 -0.9161
vn -0.0056 0.6379 -0.7701
vn -0.0056 0.6379 -0.7701
vn -0.7393 0.6717 0.0474
vn 0.2236 0.9728 0.0609
vn 0.7875 0.6148 0.0440
vn -0.4109 0.9117 -0.0002
vn -0.4109 0.9117 -0.0002
vn 0.7210 0.6928 0.0150
vn -0.3917 0.9200 0.0142
vn -0.3917 0.9200 0.0142
vn -0.3917 0.9200 0.0142
vn -0.8915 0.4450 0.0848
vn -0.7355 0.6249 0.2618
vn 0.3372 0.9294 0.1501
vn -0.8915 0.4450 0.0848
vn 0.8056 0.5907 0.0458
vn 0.2236 0.9728 0.0609
vn -0.9957 -0.0911 -0.0138
vn 0.7210 0.6928 0.0150
vn -0.4094 0.9123 0.0062
vn -0.5528 0.3309 0.7648
vn -0.5513 -0.1025 0.8280
vn 0.5840 0.5675 0.5804
vn 0.1992 0.2931 0.9351
vn 0.5863 0.0145 0.8100
vn -0.3681 0.8534 0.3690
vn 0.0647 0.8556 -0.5136
vn -0.0832 0.2628 -0.9612
vn 0.1204 0.9925 -0.0207
vn 0.1061 0.1611 0.9812
vn 0.1061 0.1611 0.9812
vn 0.1061 0.1611 0.9812
vn 0.0687 0.1405 0.9877
vn 0.0687 0.1405 0.9877
vn 0.0687 0.1405 0.9877
vn 0.1255 0.1525 0.9803
vn 0.1255 0.1525 0.9803
vn 0.1255 0.1525 0.9803
vn -0.5999 -0.4420 0.6668
vn 0.1268 0.1447 0.9813
vn 0.1268 0.1447 0.9813
vn -0.5513 -0.1025 0.8280
vn 0.0695 0.2440 0.9673
vn 0.8407 0.5237 0.1378
vn -0.5999 -0.4420 0.6668
vn 0.1346 0.1710 0.9760
vn 0.8407 0.5237 0.1378
vn -0.4165 0.7430 0.5239
vn -0.5528 0.3309 0.7648
vn 0.5941 0.6469 0.4780
vn 0.0922 0.1803 0.9793
vn -0.0275 0.7764 -0.6296
vn 0.4322 0.8958 0.1037
vn 0.0922 0.1803 0.9793
vn 0.1882 -0.1691 0.9675
vn -0.2093 0.8376 -0.5047
vn 0.1882 -0.1691 0.9675
vn 0.1992 0.2931 0.9351
vn -0.1580 0.9562 0.2464
vn 0.6343 0.1516 0.7581
vn 0.0602 0.6663 0.7432
vn 0.2729 -0.2875 0.9181
vn -0.4165 0.7430 0.5239
vn 0.0569 0.8820 0.4678
vn 0.3372 0.9294 0.1501
vn 0.9900 -0.1164 -0.0793
vn -0.2890 0.8492 0.4419
vn -0.5389 0.7786 0.3215
vn 0.0430 0.1304 0.9905
vn 0.0430 0.1304 0.9905
vn 0.0430 0.1304 0.9905
vn 0.0532 0.1453 0.9880
vn 0.0532 0.1453 0.9880
vn 0.0532 0.1453 0.9880
vn 0.9900 -0.1164 -0.0793
vn 0.7612 0.5752 0.2996
vn 0.7612 0.5752 0.2996
vn -0.4165 0.7430 0.5239
vn 0.3372 0.9294 0.1501
vn -0.7355 0.6249 0.2618
vn 0.6343 0.1516 0.7581
vn -0.3681 0.8534 0.3690
vn 0.5863 0.0145 0.8100
vn 0.1882 -0.1691 0.9675
vn -0.1580 0.9562 0.2464
vn -0.2093 0.8376 -0.5047
vn 0.0922 0.1803 0.9793
vn -0.2093 0.8376 -0.5047
vn -0.0275 0.7764 -0.6296
vn 0.0922 0.1803 0.9793
vn 0.0484 0.1283 0.9905
vn 0.0484 0.1283 0.9905
vn -0.4165 0.7430 0.5239
vn 0.5941 0.6469 0.4780
vn 0.0569 0.8820 0.4678
vn -0.5999 -0.4420 0.6668
vn 0.8407 0.5237 0.1378
vn 0.1168 0.1675 0.9789
vn -0.5513 -0.1025 0.8280
vn -0.0286 0.0903 0.9955
vn 0.5840 0.5675 0.5804
vn -0.5999 -0.4420 0.6668
vn 0.1382 0.1665 0.9763
vn 0.1382 0.1665 0.9763
vn 0.1237 0.1480 0.9812
vn 0.1237 0.1480 0.9812
vn 0.1237 0.1480 0.9812
vn 0.0726 0.1804 0.9809
vn 0.0726 0.1804 0.9809
vn 0.0726 0.1804 0.9809
vn 0.1075 0.1665 0.9802
vn 0.1075 0.1665 0.9802
vn 0.1075 0.1665 0.9802
vn -0.1039 0.6466 -0.7557
vn 0.1204 0.9925 -0.0207
vn -0.1039 0.6466 -0.7557
vn 0.1992 0.2931 0.9351
vn -0.3681 0.8534 0.3690
vn -0.1580 0.9562 0.2464
vn -0.5528 0.3309 0.7648
vn 0.5840 0.5675 0.5804
vn 0.5941 0.6469 0.4780
vn -0.9957 -0.0911 -0.0138
vn -0.4218 0.9067 -0.0011
vn -0.4218 0.9067 -0.0011
vn -0.8915 0.4450 0.0848
vn 0.2236 0.9728 0.0609
vn -0.7393 0.6717 0.0474
vn -0.8915 0.4450 0.0848
vn 0.3372 0.9294 0.1501
vn 0.8056 0.5907 0.0458
vn -0.4110 0.9116 0.0044
vn -0.4110 0.9116 0.0044
vn -0.4110 0.9116 0.0044
vn -0.4093 0.9124 0.0007
vn 0.7210 0.6928 0.0150
vn -0.9957 -0.0911 -0.0138
vn -0.7394 -0.6607 -0.1298
vn -0.9483 -0.3089 -0.0732
vn -0.9050 0.4094 -0.1157
vn -0.7393 0.6717 0.0474
vn -0.3919 0.9198 0.0204
vn -0.3919 0.9198 0.0204
vn -0.0138 -0.4007 -0.9161
vn 0.0324 0.7055 -0.7080
vn 0.0324 0.7055 -0.7080
vn -0.9050 0.4094 -0.1157
vn 0.6611 0.7493 0.0373
vn 0.4658 0.8847 0.0202
vn -0.9945 0.0816 -0.0659
vn 0.5815 0.8132 0.0248
vn 0.6910 0.7219 0.0377
vn 0.7107 0.1644 -0.6840
vn -0.3069 0.9147 0.2628
vn -0.2268 0.9695 0.0932
vn -0.5216 0.7762 -0.3541
vn -0.1858 0.9619 -0.2007
vn -0.5616 0.7182 -0.4109
vn -0.6701 -0.3452 -0.6571
vn 0.0318 0.7282 -0.6846
vn -0.4583 -0.3034 -0.8354
vn 0.6090 -0.3337 -0.7195
vn 0.0691 0.7582 -0.6484
vn -0.3069 0.9147 0.2628
vn 0.7166 0.6897 -0.1036
vn -0.3551 0.8907 0.2837
vn 0.5344 0.8397 0.0959
vn -0.5616 0.7182 -0.4109
vn 0.1907 0.9796 0.0633
vn -0.6701 -0.3452 -0.6571
vn -0.9050 0.4094 -0.1157
vn 0.2679 0.9634 0.0007
vn -0.9529 0.2607 -0.1548
vn -0.9980 -0.0420 -0.0480
vn 0.4858 0.8737 0.0244
vn 0.5815 0.8132 0.0248
vn -0.9529 0.2607 -0.1548
vn 0.4137 0.9104 0.0043
vn -0.9608 -0.1977 -0.1943
vn -0.5216 0.7762 -0.3541
vn 0.4137 0.9104 0.0043
vn -0.0592 0.9551 -0.2903
vn 0.7882 0.3003 -0.5372
vn -0.3551 0.8907 0.2837
vn 0.5137 0.8245 -0.2373
vn 0.7882 0.3003 -0.5372
vn -0.2268 0.9695 0.0932
vn -0.3817 0.8930 0.2385
vn -0.9945 0.0816 -0.0659
vn 0.6611 0.7493 0.0373
vn -0.4679 0.8825 -0.0482
vn 0.1982 0.1707 -0.9652
vn -0.0267 -0.0352 -0.9990
vn 0.0691 0.7582 -0.6484
vn 0.8712 -0.4846 -0.0783
vn 0.7544 0.5528 0.3538
vn 0.7544 0.5528 0.3538
vn 0.8874 -0.2741 0.3708
vn 0.7080 0.5142 0.4841
vn -0.2224 0.9414 0.2536
vn 0.6343 0.1516 0.7581
vn 0.9323 0.0746 0.3539
vn 0.0602 0.6663 0.7432
vn 0.9995 0.0283 -0.0102
vn -0.2890 0.8492 0.4419
vn 0.9900 -0.1164 -0.0793
vn 0.8712 -0.4846 -0.0783
vn 0.7639 0.5695 0.3034
vn 0.7639 0.5695 0.3034
vn 0.7828 0.5597 0.2720
vn -0.3574 0.8569 0.3715
vn 0.7828 0.5597 0.2720
vn 0.6278 0.7584 0.1749
vn 0.5344 0.8397 0.0959
vn 0.6278 0.7584 0.1749
vn 0.9606 -0.1717 -0.2184
vn 0.6273 0.7393 0.2449
vn -0.3938 0.7955 0.4604
vn 0.9995 0.0283 -0.0102
vn 0.6179 0.6921 0.3732
vn -0.4721 0.7653 0.4375
vn 0.6333 0.7045 0.3204
vn -0.3938 0.7955 0.4604
vn 0.6333 0.7045 0.3204
vn 0.1789 -0.4044 -0.8969
vn -0.0514 0.6864 -0.7254
vn -0.0514 0.6864 -0.7254
vn -0.0628 0.6883 -0.7227
vn -0.2187 0.9099 0.3526
vn 0.1789 -0.4044 -0.8969
vn -0.0138 -0.4007 -0.9161
vn -0.0378 0.7045 -0.7087
vn -0.0378 0.7045 -0.7087
vn 0.4983 0.7007 -0.5106
vn 0.0318 0.7282 -0.6846
vn 0.5065 0.7878 0.3505
vn -0.0832 0.2628 -0.9612
vn 0.5065 0.7878 0.3505
vn 0.1204 0.9925 -0.0207
vn 0.7868 0.5532 0.2737
vn 0.7868 0.5532 0.2737
vn 0.7868 0.5532 0.2737
vn -0.4789 0.8778 -0.0077
vn 0.4858 0.8737 0.0244
vn -0.9815 -0.1881 -0.0345
vn -0.6780 0.1729 -0.7145
vn -0.3851 0.9186 0.0884
vn -0.6780 0.1729 -0.7145
vn 0.2097 0.9777 -0.0138
vn -0.0193 0.9902 0.1385
vn 0.3477 0.9376 -0.0071
vn 0.4322 0.8958 0.1037
vn 0.0336 0.9992 -0.0196
vn -0.0193 0.9902 0.1385
vn 0.5941 0.6469 0.4780
vn 0.9156 0.4019 -0.0151
vn 0.9549 -0.0894 -0.2833
vn 0.7189 0.6943 -0.0349
vn 0.6589 0.7522 -0.0076
vn 0.8233 0.5652 -0.0518
vn 0.6611 0.7493 0.0373
vn 0.6910 0.7219 0.0377
vn 0.8045 0.5806 0.1249
vn 0.5125 0.8558 -0.0704
vn 0.2097 0.9777 -0.0138
vn 0.3477 0.9376 -0.0071
vn 0.8407 0.5237 0.1378
vn 0.7749 0.6278 0.0736
vn 0.8233 0.5652 -0.0518
vn 0.4137 0.9104 0.0043
vn 0.2679 0.9634 0.0007
vn 0.7405 0.6600 0.1271
vn 0.4858 0.8737 0.0244
vn 0.8301 0.5550 0.0542
vn 0.8045 0.5806 0.1249
vn -0.6150 0.6473 0.4502
vn -0.6717 0.6151 0.4130
vn -0.3551 0.8907 0.2837
vn -0.3069 0.9147 0.2628
vn 0.0691 0.7582 -0.6484
vn -0.4630 0.7825 0.4164
vn 0.5065 0.7878 0.3505
vn 0.0318 0.7282 -0.6846
vn 0.1907 0.9796 0.0633
vn -0.0613 0.1755 -0.9826
vn -0.0275 0.7764 -0.6296
vn -0.2093 0.8376 -0.5047
vn 0.5840 0.5675 0.5804
vn 0.9156 0.4019 -0.0151
vn 0.5941 0.6469 0.4780
vn -0.2093 0.8376 -0.5047
vn -0.1580 0.9562 0.2464
vn -0.3851 0.9186 0.0884
vn 0.8546 0.5192 0.0094
vn 0.8491 0.5249 0.0593
vn 0.8484 0.5252 0.0664
vn -0.3851 0.9186 0.0884
vn 0.0336 0.9992 -0.0196
vn -0.2093 0.8376 -0.5047
vn 0.7875 0.6148 0.0440
vn 0.9215 0.3862 0.0398
vn 0.8491 0.5249 0.0593
vn 0.9156 0.4019 -0.0151
vn 0.8407 0.5237 0.1378
vn 0.8233 0.5652 -0.0518
vn 0.5840 0.5675 0.5804
vn 0.8407 0.5237 0.1378
vn 0.9156 0.4019 -0.0151
vn 0.6589 0.7522 -0.0076
vn 0.5125 0.8558 -0.0704
vn 0.3477 0.9376 -0.0071
vn 0.6144 0.7855 0.0735
vn 0.5125 0.8558 -0.0704
vn 0.6589 0.7522 -0.0076
vn -0.2268 0.9695 0.0932
vn -0.5940 0.6415 0.4855
vn -0.3817 0.8930 0.2385
vn -0.1412 0.8086 0.5712
vn -0.0535 0.8289 0.5569
vn -0.3538 0.7432 0.5678
vn 0.1792 0.8400 0.5122
vn 0.5305 0.7904 0.3063
vn 0.2887 0.8015 0.5237
vn 0.1792 0.8400 0.5122
vn 0.2963 0.8799 0.3715
vn 0.5305 0.7904 0.3063
vn 0.2052 -0.9149 -0.3475
vn 0.8874 -0.2741 0.3708
vn 0.2052 -0.9149 -0.3475
vn 0.4658 0.8847 0.0202
vn 0.6611 0.7493 0.0373
vn 0.7405 0.6600 0.1271
vn 0.0266 -0.9907 -0.1333
vn -0.4119 -0.8825 0.2269
vn -0.1988 -0.9564 0.2140
vn 0.0266 -0.9907 -0.1333
vn 0.4319 -0.8748 -0.2196
vn 0.3855 -0.9217 -0.0435
vn 0.0266 -0.9907 -0.1333
vn 0.3855 -0.9217 -0.0435
vn -0.0020 -0.9958 0.0915
vn -0.4147 0.1212 -0.9019
vn -0.4147 0.1212 -0.9019
vn -0.4147 0.1212 -0.9019
vn 0.2963 0.8799 0.3715
vn 0.2170 0.2482 0.9441
vn 0.5065 0.7878 0.3505
vn -0.5290 0.7915 0.3062
vn -0.4434 0.8463 0.2952
vn -0.4371 0.8692 0.2313
vn 0.0922 0.1803 0.9793
vn -0.4119 -0.8825 0.2269
vn -0.0020 -0.9958 0.0915
vn -0.4630 0.7825 0.4164
vn -0.2187 0.9099 0.3526
vn -0.3538 0.7432 0.5678
vn -0.3574 0.8569 0.3715
vn -0.5389 0.7786 0.3215
vn -0.4434 0.8463 0.2952
vn -0.6366 0.6458 0.4216
vn -0.6301 0.6922 0.3519
vn -0.5890 0.6862 0.4269
vn -0.6366 0.6458 0.4216
vn -0.3938 0.7955 0.4604
vn -0.6150 0.6473 0.4502
vn 0.8045 0.5806 0.1249
vn 0.8301 0.5550 0.0542
vn 0.8484 0.5252 0.0664
vn 0.9156 0.4019 -0.0151
vn 0.9215 0.3862 0.0398
vn 0.8056 0.5907 0.0458
vn 0.8056 0.5907 0.0458
vn 0.3372 0.9294 0.1501
vn 0.9156 0.4019 -0.0151
vn -0.4759 0.8501 0.2253
vn -0.4738 0.8373 0.2727
vn -0.4371 0.8692 0.2313
vn -0.7355 0.6249 0.2618
vn -0.5528 0.3309 0.7648
vn -0.8949 -0.4454 -0.0286
vn 0.9215 0.3862 0.0398
vn 0.2236 0.9728 0.0609
vn 0.8056 0.5907 0.0458
vn 0.8301 0.5550 0.0542
vn 0.7210 0.6928 0.0150
vn 0.8484 0.5252 0.0664
vn 0.8539 -0.4527 0.2568
vn 0.6694 0.6933 0.2670
vn 0.8539 -0.4527 0.2568
vn 0.6694 0.6933 0.2670
vn 0.5065 0.7878 0.3505
vn 0.1907 0.9796 0.0633
vn -0.5940 0.6415 0.4855
vn -0.3069 0.9147 0.2628
vn -0.4630 0.7825 0.4164
vn 0.4389 -0.8487 -0.2950
vn 0.4101 -0.8238 -0.3913
vn 0.6287 -0.6932 -0.3525
vn 0.4389 -0.8487 -0.2950
vn 0.6287 -0.6932 -0.3525
vn 0.7351 -0.6301 -0.2501
vn -0.5940 0.6415 0.4855
vn -0.6150 0.6473 0.4502
vn -0.3551 0.8907 0.2837
vn 0.4319 -0.8748 -0.2196
vn 0.6998 -0.6714 -0.2440
vn 0.8712 -0.4846 -0.0783
vn 0.4389 -0.8487 -0.2950
vn 0.7273 -0.6342 -0.2621
vn 0.6998 -0.6714 -0.2440
vn -0.3511 -0.9131 -0.2075
vn -0.3318 -0.8923 -0.3062
vn 0.0583 -0.9224 -0.3818
vn -0.3511 -0.9131 -0.2075
vn 0.0583 -0.9224 -0.3818
vn 0.0712 -0.9592 -0.2735
vn 0.0583 -0.9224 -0.3818
vn 0.4101 -0.8238 -0.3913
vn 0.4389 -0.8487 -0.2950
vn 0.0583 -0.9224 -0.3818
vn 0.4389 -0.8487 -0.2950
vn 0.0712 -0.9592 -0.2735
vn 0.4389 -0.8487 -0.2950
vn 0.4319 -0.8748 -0.2196
vn 0.0266 -0.9907 -0.1333
vn 0.4389 -0.8487 -0.2950
vn 0.0266 -0.9907 -0.1333
vn 0.0712 -0.9592 -0.2735
vn 0.0266 -0.9907 -0.1333
vn -0.3475 -0.9376 0.0062
vn -0.3511 -0.9131 -0.2075
vn 0.0266 -0.9907 -0.1333
vn -0.3511 -0.9131 -0.2075
vn 0.0712 -0.9592 -0.2735
vn -0.8294 -0.5563 0.0512
vn -0.6833 -0.6503 0.3319
vn -0.5999 -0.4420 0.6668
vn -0.6833 -0.6503 0.3319
vn -0.6569 -0.7540 0.0067
vn -0.5538 -0.7032 0.4460
vn 0.2679 0.9634 0.0007
vn 0.4658 0.8847 0.0202
vn 0.7405 0.6600 0.1271
vn 0.5815 0.8132 0.0248
vn 0.4858 0.8737 0.0244
vn 0.8045 0.5806 0.1249
vn 0.6694 0.6933 0.2670
vn 0.4137 0.9104 0.0043
vn 0.7405 0.6600 0.1271
vn 0.8913 0.4089 0.1960
vn 0.4137 0.9104 0.0043
vn 0.6694 0.6933 0.2670
vn -0.3551 0.8907 0.2837
vn -0.3817 0.8930 0.2385
vn -0.5940 0.6415 0.4855
vn 0.7405 0.6600 0.1271
vn 0.6611 0.7493 0.0373
vn 0.8045 0.5806 0.1249
vn -0.7393 0.6717 0.0474
vn -0.9863 -0.1621 -0.0316
vn -0.9180 -0.3957 -0.0262
vn -0.8470 -0.5273 -0.0670
vn -0.9537 -0.3006 -0.0089
vn -0.9957 -0.0911 -0.0138
vn -0.8494 -0.5247 -0.0566
vn -0.9863 -0.1621 -0.0316
vn -0.9537 -0.3006 -0.0089
vn -0.8494 -0.5247 -0.0566
vn -0.8294 -0.5563 0.0512
vn -0.9156 -0.4019 0.0158
vn -0.8494 -0.5247 -0.0566
vn -0.9156 -0.4019 0.0158
vn -0.9180 -0.3957 -0.0262
vn 0.4079 -0.7943 -0.4502
vn 0.3528 -0.7439 -0.5675
vn 0.5920 -0.6430 -0.4859
vn 0.4079 -0.7943 -0.4502
vn 0.5920 -0.6430 -0.4859
vn 0.6354 -0.6468 -0.4218
vn 0.8947 -0.3587 -0.2661
vn 0.9995 0.0283 -0.0102
vn 0.6287 -0.6932 -0.3525
vn 0.8947 -0.3587 -0.2661
vn 0.6354 -0.6468 -0.4218
vn 0.9606 -0.1717 -0.2184
vn 0.6287 -0.6932 -0.3525
vn 0.4101 -0.8238 -0.3913
vn 0.4079 -0.7943 -0.4502
vn 0.6287 -0.6932 -0.3525
vn 0.4079 -0.7943 -0.4502
vn 0.6354 -0.6468 -0.4218
vn -0.3113 -0.8748 -0.3712
vn -0.2885 -0.8016 -0.5236
vn 0.0525 -0.8296 -0.5559
vn -0.3113 -0.8748 -0.3712
vn 0.0525 -0.8296 -0.5559
vn 0.0587 -0.8935 -0.4453
vn 0.0525 -0.8296 -0.5559
vn 0.3528 -0.7439 -0.5675
vn 0.4079 -0.7943 -0.4502
vn 0.0525 -0.8296 -0.5559
vn 0.4079 -0.7943 -0.4502
vn 0.0587 -0.8935 -0.4453
vn 0.4079 -0.7943 -0.4502
vn 0.4101 -0.8238 -0.3913
vn 0.0583 -0.9224 -0.3818
vn 0.4079 -0.7943 -0.4502
vn 0.0583 -0.9224 -0.3818
vn 0.0587 -0.8935 -0.4453
vn 0.0583 -0.9224 -0.3818
vn -0.3318 -0.8923 -0.3062
vn -0.3113 -0.8748 -0.3712
vn 0.0583 -0.9224 -0.3818
vn -0.3113 -0.8748 -0.3712
vn 0.0587 -0.8935 -0.4453
vn -0.8494 -0.5247 -0.0566
vn -0.8470 -0.5273 -0.0670
vn -0.6648 -0.7251 -0.1797
vn -0.8494 -0.5247 -0.0566
vn -0.6648 -0.7251 -0.1797
vn -0.6693 -0.7332 -0.1200
vn -0.6648 -0.7251 -0.1797
vn -0.3318 -0.8923 -0.3062
vn -0.3511 -0.9131 -0.2075
vn -0.6648 -0.7251 -0.1797
vn -0.3511 -0.9131 -0.2075
vn -0.6693 -0.7332 -0.1200
vn -0.3511 -0.9131 -0.2075
vn -0.3475 -0.9376 0.0062
vn -0.6569 -0.7540 0.0067
vn -0.3511 -0.9131 -0.2075
vn -0.6569 -0.7540 0.0067
vn -0.6693 -0.7332 -0.1200
vn -0.6569 -0.7540 0.0067
vn -0.8294 -0.5563 0.0512
vn -0.8494 -0.5247 -0.0566
vn -0.6569 -0.7540 0.0067
vn -0.8494 -0.5247 -0.0566
vn -0.6693 -0.7332 -0.1200
vn -0.9945 0.0816 -0.0659
vn -0.8028 -0.5827 -0.1263
vn -0.9980 -0.0420 -0.0480
vn 0.7107 0.1644 -0.6840
vn 0.5920 -0.6430 -0.4859
vn 0.6090 -0.3337 -0.7195
vn 0.3528 -0.7439 -0.5675
vn 0.1261 -0.5842 -0.8018
vn 0.1789 -0.4044 -0.8969
vn 0.1261 -0.5842 -0.8018
vn 0.0525 -0.8296 -0.5559
vn -0.0138 -0.4007 -0.9161
vn -0.8028 -0.5827 -0.1263
vn -0.7394 -0.6607 -0.1298
vn -0.5310 -0.7894 -0.3080
vn -0.8028 -0.5827 -0.1263
vn -0.5310 -0.7894 -0.3080
vn -0.6280 -0.7384 -0.2455
vn -0.5310 -0.7894 -0.3080
vn -0.2885 -0.8016 -0.5236
vn -0.3113 -0.8748 -0.3712
vn -0.5310 -0.7894 -0.3080
vn -0.3113 -0.8748 -0.3712
vn -0.6280 -0.7384 -0.2455
vn -0.3113 -0.8748 -0.3712
vn -0.3318 -0.8923 -0.3062
vn -0.6648 -0.7251 -0.1797
vn -0.3113 -0.8748 -0.3712
vn -0.6648 -0.7251 -0.1797
vn -0.6280 -0.7384 -0.2455
vn -0.6648 -0.7251 -0.1797
vn -0.8470 -0.5273 -0.0670
vn -0.8028 -0.5827 -0.1263
vn -0.6648 -0.7251 -0.1797
vn -0.8028 -0.5827 -0.1263
vn -0.6280 -0.7384 -0.2455
vn -0.5616 0.7182 -0.4109
vn -0.6726 -0.6850 -0.2799
vn -0.5216 0.7762 -0.3541
vn -0.0832 0.2628 -0.9612
vn -0.1882 -0.7398 -0.6459
vn -0.3194 -0.8554 -0.4077
vn -0.3851 0.9186 0.0884
vn -0.4759 0.8501 0.2253
vn -0.4371 0.8692 0.2313
vn -0.2224 0.9414 0.2536
vn -0.4759 0.8501 0.2253
vn -0.3851 0.9186 0.0884
vn -0.5310 -0.7894 -0.3080
vn -0.7394 -0.6607 -0.1298
vn -0.6726 -0.6850 -0.2799
vn -0.5310 -0.7894 -0.3080
vn -0.6726 -0.6850 -0.2799
vn -0.3194 -0.8554 -0.4077
vn -0.3745 -0.1763 -0.9103
vn -0.3194 -0.8554 -0.4077
vn -0.6726 -0.6850 -0.2799
vn 0.0525 -0.8296 -0.5559
vn -0.1882 -0.7398 -0.6459
vn -0.0138 -0.4007 -0.9161
vn -0.2885 -0.8016 -0.5236
vn -0.1882 -0.7398 -0.6459
vn 0.0525 -0.8296 -0.5559
vn 0.3528 -0.7439 -0.5675
vn 0.4459 -0.5486 -0.7072
vn 0.5920 -0.6430 -0.4859
vn 0.8329 -0.3959 -0.3867
vn 0.6354 -0.6468 -0.4218
vn 0.5920 -0.6430 -0.4859
vn 0.9900 -0.1164 -0.0793
vn 0.7351 -0.6301 -0.2501
vn 0.6287 -0.6932 -0.3525
vn 0.6287 -0.6932 -0.3525
vn 0.9995 0.0283 -0.0102
vn 0.9900 -0.1164 -0.0793
vn 0.3855 -0.9217 -0.0435
vn 0.6922 -0.7150 -0.0984
vn 0.8874 -0.2741 0.3708
vn 0.4319 -0.8748 -0.2196
vn 0.6922 -0.7150 -0.0984
vn 0.3855 -0.9217 -0.0435
vn -0.2890 0.8492 0.4419
vn -0.4721 0.7653 0.4375
vn -0.6301 0.6922 0.3519
vn -0.6301 0.6922 0.3519
vn -0.5389 0.7786 0.3215
vn -0.2890 0.8492 0.4419
vn -0.5940 0.6415 0.4855
vn -0.6366 0.6458 0.4216
vn -0.6150 0.6473 0.4502
vn -0.5940 0.6415 0.4855
vn -0.4630 0.7825 0.4164
vn -0.3538 0.7432 0.5678
vn -0.0535 0.8289 0.5569
vn 0.1792 0.8400 0.5122
vn 0.2887 0.8015 0.5237
vn 0.0081 0.8333 0.5528
vn 0.1792 0.8400 0.5122
vn -0.0535 0.8289 0.5569
vn 0.6694 0.6933 0.2670
vn 0.2963 0.8799 0.3715
vn 0.5065 0.7878 0.3505
vn 0.2963 0.8799 0.3715
vn 0.6694 0.6933 0.2670
vn 0.5305 0.7904 0.3063
vn 0.6694 0.6933 0.2670
vn 0.7405 0.6600 0.1271
vn 0.5305 0.7904 0.3063
vn 0.2963 0.8799 0.3715
vn 0.1792 0.8400 0.5122
vn 0.1204 0.9925 -0.0207
vn 0.8500 -0.1199 0.5129
vn 0.6694 0.6933 0.2670
vn 0.8500 -0.1199 0.5129
vn 0.6292 0.7377 0.2449
vn 0.8045 0.5806 0.1249
vn 0.6671 0.7232 0.1787
vn 0.8045 0.5806 0.1249
vn 0.8484 0.5252 0.0664
vn 0.6671 0.7232 0.1787
vn 0.6292 0.7377 0.2449
vn 0.6671 0.7232 0.1787
vn 0.3130 0.8745 0.3705
vn 0.6671 0.7232 0.1787
vn 0.3323 0.8921 0.3063
vn 0.3130 0.8745 0.3705
vn 0.6292 0.7377 0.2449
vn 0.3130 0.8745 0.3705
vn 0.5305 0.7904 0.3063
vn 0.3130 0.8745 0.3705
vn 0.2887 0.8015 0.5237
vn 0.5305 0.7904 0.3063
vn 0.6292 0.7377 0.2449
vn 0.5305 0.7904 0.3063
vn 0.8045 0.5806 0.1249
vn 0.5305 0.7904 0.3063
vn 0.7405 0.6600 0.1271
vn 0.8045 0.5806 0.1249
vn 0.0081 0.8333 0.5528
vn -0.0535 0.8289 0.5569
vn -0.1412 0.8086 0.5712
vn -0.8028 -0.5827 -0.1263
vn -0.9483 -0.3089 -0.0732
vn -0.7394 -0.6607 -0.1298
vn 0.5920 -0.6430 -0.4859
vn 0.7882 0.3003 -0.5372
vn 0.8332 -0.3247 -0.4476
vn -0.6726 -0.6850 -0.2799
vn -0.9608 -0.1977 -0.1943
vn -0.8731 -0.4523 -0.1820
vn -0.7394 -0.6607 -0.1298
vn -0.9608 -0.1977 -0.1943
vn -0.6726 -0.6850 -0.2799
vn -0.8028 -0.5827 -0.1263
vn -0.9815 -0.1881 -0.0345
vn -0.9980 -0.0420 -0.0480
vn -0.7394 -0.6607 -0.1298
vn -0.9050 0.4094 -0.1157
vn -0.9529 0.2607 -0.1548
vn -0.2187 0.9099 0.3526
vn -0.1412 0.8086 0.5712
vn -0.3538 0.7432 0.5678
vn 0.8332 -0.3247 -0.4476
vn 0.8329 -0.3959 -0.3867
vn 0.5920 -0.6430 -0.4859
vn 0.4459 -0.5486 -0.7072
vn 0.6090 -0.3337 -0.7195
vn 0.5920 -0.6430 -0.4859
vn -0.3069 0.9147 0.2628
vn -0.5940 0.6415 0.4855
vn -0.2268 0.9695 0.0932
vn -0.6701 -0.3452 -0.6571
vn -0.3745 -0.1763 -0.9103
vn -0.6726 -0.6850 -0.2799
vn 0.5815 0.8132 0.0248
vn 0.8045 0.5806 0.1249
vn 0.6910 0.7219 0.0377
vn 0.6712 0.7314 0.1204
vn 0.8491 0.5249 0.0593
vn 0.6589 0.7522 -0.0076
vn 0.8491 0.5249 0.0593
vn 0.8233 0.5652 -0.0518
vn 0.6589 0.7522 -0.0076
vn 0.6712 0.7314 0.1204
vn 0.6589 0.7522 -0.0076
vn 0.3524 0.9125 0.2078
vn 0.6589 0.7522 -0.0076
vn 0.3477 0.9376 -0.0071
vn 0.3524 0.9125 0.2078
vn 0.6712 0.7314 0.1204
vn 0.3524 0.9125 0.2078
vn 0.6671 0.7232 0.1787
vn 0.3524 0.9125 0.2078
vn 0.3323 0.8921 0.3063
vn 0.6671 0.7232 0.1787
vn 0.6712 0.7314 0.1204
vn 0.6671 0.7232 0.1787
vn 0.8491 0.5249 0.0593
vn 0.6671 0.7232 0.1787
vn 0.8484 0.5252 0.0664
vn 0.8491 0.5249 0.0593
vn -0.0594 0.8938 0.4445
vn 0.3130 0.8745 0.3705
vn -0.0593 0.9221 0.3823
vn 0.3130 0.8745 0.3705
vn 0.3323 0.8921 0.3063
vn -0.0593 0.9221 0.3823
vn -0.0594 0.8938 0.4445
vn -0.0593 0.9221 0.3823
vn -0.4096 0.7936 0.4499
vn -0.0593 0.9221 0.3823
vn -0.4109 0.8233 0.3915
vn -0.4096 0.7936 0.4499
vn -0.0594 0.8938 0.4445
vn -0.4096 0.7936 0.4499
vn -0.0535 0.8289 0.5569
vn -0.4096 0.7936 0.4499
vn -0.3538 0.7432 0.5678
vn -0.0535 0.8289 0.5569
vn -0.0594 0.8938 0.4445
vn -0.0535 0.8289 0.5569
vn 0.3130 0.8745 0.3705
vn -0.6701 -0.3452 -0.6571
vn -0.6726 -0.6850 -0.2799
vn -0.5616 0.7182 -0.4109
vn -0.0535 0.8289 0.5569
vn 0.2887 0.8015 0.5237
vn 0.3130 0.8745 0.3705
vn -0.6366 0.6458 0.4216
vn -0.4096 0.7936 0.4499
vn -0.6301 0.6922 0.3519
vn -0.8470 -0.5273 -0.0670
vn -0.9957 -0.0911 -0.0138
vn -0.9581 -0.2816 -0.0526
vn -0.4096 0.7936 0.4499
vn -0.4109 0.8233 0.3915
vn -0.6301 0.6922 0.3519
vn -0.3938 0.7955 0.4604
vn -0.6366 0.6458 0.4216
vn -0.5890 0.6862 0.4269
vn -0.8915 0.4450 0.0848
vn -0.7393 0.6717 0.0474
vn -0.9180 -0.3957 -0.0262
vn -0.6301 0.6922 0.3519
vn -0.4721 0.7653 0.4375
vn -0.5890 0.6862 0.4269
vn -0.6366 0.6458 0.4216
vn -0.5940 0.6415 0.4855
vn -0.4096 0.7936 0.4499
vn -0.5940 0.6415 0.4855
vn -0.3538 0.7432 0.5678
vn -0.4096 0.7936 0.4499
vn 0.9215 0.3862 0.0398
vn 0.9156 0.4019 -0.0151
vn 0.8491 0.5249 0.0593
vn 0.9156 0.4019 -0.0151
vn 0.8233 0.5652 -0.0518
vn 0.8491 0.5249 0.0593
vn 0.8546 0.5192 0.0094
vn 0.7875 0.6148 0.0440
vn 0.8491 0.5249 0.0593
vn 0.7210 0.6928 0.0150
vn 0.8546 0.5192 0.0094
vn 0.8484 0.5252 0.0664
vn 0.9215 0.3862 0.0398
vn 0.7875 0.6148 0.0440
vn 0.2236 0.9728 0.0609
vn 0.6144 0.7855 0.0735
vn 0.6589 0.7522 -0.0076
vn 0.7189 0.6943 -0.0349
vn 0.4319 -0.8748 -0.2196
vn 0.8712 -0.4846 -0.0783
vn 0.6922 -0.7150 -0.0984
vn 0.7749 0.6278 0.0736
vn 0.7189 0.6943 -0.0349
vn 0.8233 0.5652 -0.0518
vn -0.9156 -0.4019 0.0158
vn -0.7355 0.6249 0.2618
vn -0.8915 0.4450 0.0848
vn -0.8915 0.4450 0.0848
vn -0.9180 -0.3957 -0.0262
vn -0.9156 -0.4019 0.0158
vn -0.0719 0.9591 0.2739
vn 0.3524 0.9125 0.2078
vn -0.0193 0.9902 0.1385
vn -0.4227 0.9059 0.0263
vn -0.4227 0.9059 0.0263
vn 0.4858 0.8737 0.0244
vn 0.7620 0.5872 0.2731
vn 0.7620 0.5872 0.2731
vn -0.3574 0.8569 0.3715
vn -0.8470 -0.5273 -0.0670
vn -0.9581 -0.2816 -0.0526
vn -0.8028 -0.5827 -0.1263
vn -0.0832 0.2628 -0.9612
vn 0.1183 0.9002 -0.4191
vn 0.5065 0.7878 0.3505
vn -0.3745 -0.1763 -0.9103
vn -0.4583 -0.3034 -0.8354
vn 0.0318 0.7282 -0.6846
vn -0.0138 -0.4007 -0.9161
vn -0.0389 0.7063 -0.7068
vn -0.0389 0.7063 -0.7068
vn -0.0731 0.7003 -0.7101
vn -0.0731 0.7003 -0.7101
vn -0.2187 0.9099 0.3526
vn 0.1789 -0.4044 -0.8969
vn -0.2187 0.9099 0.3526
vn -0.0556 0.6897 -0.7220
vn 0.6366 0.7030 0.3170
vn 0.9606 -0.1717 -0.2184
vn -0.3938 0.7955 0.4604
vn 0.3524 0.9125 0.2078
vn 0.3477 0.9376 -0.0071
vn -0.0193 0.9902 0.1385
vn -0.0719 0.9591 0.2739
vn -0.0193 0.9902 0.1385
vn -0.4434 0.8463 0.2952
vn 0.9995 0.0283 -0.0102
vn 0.6360 0.6841 0.3571
vn 0.6360 0.6841 0.3571
vn 0.9606 -0.1717 -0.2184
vn 0.6400 0.7333 0.2295
vn 0.6400 0.7333 0.2295
vn 0.7105 0.7022 0.0454
vn 0.7166 0.6897 -0.1036
vn 0.5344 0.8397 0.0959
vn 0.8329 -0.3959 -0.3867
vn 0.9606 -0.1717 -0.2184
vn 0.6354 -0.6468 -0.4218
vn 0.7869 0.5559 0.2678
vn 0.7869 0.5559 0.2678
vn 0.7869 0.5559 0.2678
vn 0.8712 -0.4846 -0.0783
vn 0.7819 0.5535 0.2869
vn 0.7819 0.5535 0.2869
vn 0.9995 0.0283 -0.0102
vn -0.4721 0.7653 0.4375
vn -0.2890 0.8492 0.4419
vn 0.6343 0.1516 0.7581
vn 0.8874 -0.2741 0.3708
vn -0.2224 0.9414 0.2536
vn 0.8874 -0.2741 0.3708
vn 0.7229 0.5027 0.4739
vn 0.7229 0.5027 0.4739
vn 0.8947 -0.3587 -0.2661
vn 0.6287 -0.6932 -0.3525
vn 0.6354 -0.6468 -0.4218
vn 0.8712 -0.4846 -0.0783
vn 0.7571 0.5486 0.3548
vn 0.7571 0.5486 0.3548
vn 0.4389 -0.8487 -0.2950
vn 0.7351 -0.6301 -0.2501
vn 0.7273 -0.6342 -0.2621
vn 0.1982 0.1707 -0.9652
vn 0.0169 0.7085 -0.7055
vn 0.0169 0.7085 -0.7055
vn 0.3528 -0.7439 -0.5675
vn 0.1789 -0.4044 -0.8969
vn 0.4459 -0.5486 -0.7072
vn 0.4319 -0.8748 -0.2196
vn 0.4389 -0.8487 -0.2950
vn 0.6998 -0.6714 -0.2440
vn -0.3745 -0.1763 -0.9103
vn -0.0832 0.2628 -0.9612
vn -0.3194 -0.8554 -0.4077
vn -0.9945 0.0816 -0.0659
vn 0.6910 0.7219 0.0377
vn 0.6611 0.7493 0.0373
vn 0.1992 0.2931 0.9351
vn 0.3855 -0.9217 -0.0435
vn 0.5863 0.0145 0.8100
vn -0.5310 -0.7894 -0.3080
vn -0.3194 -0.8554 -0.4077
vn -0.1882 -0.7398 -0.6459
vn -0.2885 -0.8016 -0.5236
vn -0.5310 -0.7894 -0.3080
vn -0.1882 -0.7398 -0.6459
vn 0.3528 -0.7439 -0.5675
vn 0.0525 -0.8296 -0.5559
vn 0.1261 -0.5842 -0.8018
vn 0.7882 0.3003 -0.5372
vn 0.5920 -0.6430 -0.4859
vn 0.7107 0.1644 -0.6840
vn 0.7882 0.3003 -0.5372
vn 0.7107 0.1644 -0.6840
vn -0.2268 0.9695 0.0932
vn -0.0193 0.9902 0.1385
vn -0.4371 0.8692 0.2313
vn -0.4434 0.8463 0.2952
vn -0.0719 0.9591 0.2739
vn -0.4434 0.8463 0.2952
vn -0.0593 0.9221 0.3823
vn -0.4434 0.8463 0.2952
vn -0.4109 0.8233 0.3915
vn -0.0593 0.9221 0.3823
vn -0.6569 -0.7540 0.0067
vn -0.4909 -0.8205 0.2930
vn -0.5538 -0.7032 0.4460
vn -0.3475 -0.9376 0.0062
vn -0.4909 -0.8205 0.2930
vn -0.6569 -0.7540 0.0067
vn -0.0719 0.9591 0.2739
vn -0.0593 0.9221 0.3823
vn 0.3524 0.9125 0.2078
vn -0.0593 0.9221 0.3823
vn 0.3323 0.8921 0.3063
vn 0.3524 0.9125 0.2078
vn -0.9156 -0.4019 0.0158
vn -0.8330 -0.4414 0.3335
vn -0.5513 -0.1025 0.8280
vn -0.8294 -0.5563 0.0512
vn -0.8330 -0.4414 0.3335
vn -0.9156 -0.4019 0.0158
vn -0.5290 0.7915 0.3062
vn -0.3574 0.8569 0.3715
vn -0.4434 0.8463 0.2952
vn -0.4738 0.8373 0.2727
vn -0.5290 0.7915 0.3062
vn -0.4371 0.8692 0.2313
vn -0.5389 0.7786 0.3215
vn -0.6301 0.6922 0.3519
vn -0.4434 0.8463 0.2952
vn -0.8494 -0.5247 -0.0566
vn -0.9180 -0.3957 -0.0262
vn -0.9863 -0.1621 -0.0316
vn 0.1882 -0.1691 0.9675
vn -0.0020 -0.9958 0.0915
vn 0.3855 -0.9217 -0.0435
vn -0.6301 0.6922 0.3519
vn -0.4109 0.8233 0.3915
vn -0.4434 0.8463 0.2952
vn -0.8470 -0.5273 -0.0670
vn -0.8494 -0.5247 -0.0566
vn -0.9537 -0.3006 -0.0089
vn 0.3855 -0.9217 -0.0435
vn 0.1992 0.2931 0.9351
vn 0.1882 -0.1691 0.9675
vn -0.5528 0.3309 0.7648
vn -0.9156 -0.4019 0.0158
vn -0.5513 -0.1025 0.8280
vn 0.0569 0.8820 0.4678
vn 0.5941 0.6469 0.4780
vn 0.3372 0.9294 0.1501
vn -0.3113 0.0618 -0.9483
vn -0.3113 0.0618 -0.9483
vn -0.0275 0.7764 -0.6296
vn 0.0336 0.9992 -0.0196
vn -0.3851 0.9186 0.0884
vn -0.0193 0.9902 0.1385
vn -0.3851 0.9186 0.0884
vn -0.4371 0.8692 0.2313
vn -0.0193 0.9902 0.1385
vn 0.2097 0.9777 -0.0138
vn 0.4322 0.8958 0.1037
vn -0.0193 0.9902 0.1385
vn 0.0602 0.6663 0.7432
vn -0.2224 0.9414 0.2536
vn -0.3681 0.8534 0.3690
vn 0.1882 -0.1691 0.9675
vn 0.0922 0.1803 0.9793
vn -0.0020 -0.9958 0.0915
vn -0.6701 -0.3452 -0.6571
vn -0.2032 -0.9560 0.2115
vn -0.2032 -0.9560 0.2115
vn 0.4459 -0.5486 -0.7072
vn 0.2906 -0.9565 0.0259
vn 0.6090 -0.3337 -0.7195
vn 0.8332 -0.3247 -0.4476
vn 0.6540 -0.6351 -0.4110
vn 0.8329 -0.3959 -0.3867
vn -0.8028 -0.5827 -0.1263
vn -0.9581 -0.2816 -0.0526
vn -0.9815 -0.1881 -0.0345
vn -0.7394 -0.6607 -0.1298
vn -0.9529 0.2607 -0.1548
vn -0.9608 -0.1977 -0.1943
vn -0.8294 -0.5563 0.0512
vn -0.5999 -0.4420 0.6668
vn -0.8330 -0.4414 0.3335
vn -0.3475 -0.9376 0.0062
vn -0.1988 -0.9564 0.2140
vn -0.4909 -0.8205 0.2930
vn -0.8028 -0.5827 -0.1263
vn -0.9945 0.0816 -0.0659
vn -0.9483 -0.3089 -0.0732
vn -0.8294 -0.5563 0.0512
vn -0.6569 -0.7540 0.0067
vn -0.6833 -0.6503 0.3319
vn -0.7355 0.6249 0.2618
vn -0.9156 -0.4019 0.0158
vn -0.5528 0.3309 0.7648
vn 0.0266 -0.9907 -0.1333
vn -0.0020 -0.9958 0.0915
vn -0.4119 -0.8825 0.2269
vn -0.3475 -0.9376 0.0062
vn 0.0266 -0.9907 -0.1333
vn -0.1988 -0.9564 0.2140
vn 0.5863 0.0145 0.8100
vn 0.3855 -0.9217 -0.0435
vn 0.8874 -0.2741 0.3708
vn 0.1800 0.0639 -0.9816
vn -0.3063 0.8092 0.5014
vn -0.3258 0.9415 0.0866
vn 0.0390 0.5613 -0.8267
vn -0.0910 0.8727 0.4798
vn -0.3063 0.8092 0.5014
vn -0.0848 -0.5406 -0.8370
vn 0.0571 0.6252 -0.7784
vn 0.1213 0.9529 0.2779
vn 0.0885 0.6160 -0.7828
vn 0.0885 0.6160 -0.7828
vn 0.1213 0.9529 0.2779
vn -0.2391 -0.3456 -0.9074
vn 0.0790 0.6477 -0.7578
vn 0.0790 0.6477 -0.7578
vn -0.2391 -0.3456 -0.9074
vn 0.0550 0.6495 -0.7583
vn 0.0550 0.6495 -0.7583
vn 0.0390 0.5613 -0.8267
vn 0.0103 0.7133 -0.7008
vn 0.0103 0.7133 -0.7008
vn 0.7063 0.1112 0.6991
vn -0.5694 0.6204 0.5393
vn -0.5101 0.4804 0.7134
vn -0.5600 -0.1772 0.8093
vn 0.4721 0.8542 0.2180
vn -0.1352 0.6878 0.7132
vn -0.1630 0.2989 0.9403
vn 0.1873 0.9504 0.2482
vn 0.4721 0.8542 0.2180
vn 0.4050 0.6843 0.6063
vn -0.0261 0.8296 0.5577
vn -0.5694 0.6204 0.5393
vn -0.1032 0.1174 0.9877
vn -0.1032 0.1174 0.9877
vn -0.1032 0.1174 0.9877
vn -0.8849 -0.4609 -0.0680
vn -0.7655 0.5514 0.3317
vn -0.7655 0.5514 0.3317
vn -0.7606 0.4764 0.4410
vn -0.8255 -0.5131 0.2351
vn 0.0704 0.9525 0.2962
vn -0.8366 -0.0793 0.5420
vn -0.1352 0.6878 0.7132
vn -0.9275 0.0807 0.3651
vn 0.6379 -0.4398 0.6322
vn -0.1208 0.1492 0.9814
vn -0.1208 0.1492 0.9814
vn 0.4858 -0.0539 -0.8724
vn -0.5579 0.7842 0.2716
vn -0.1039 0.9482 -0.3002
vn 0.4105 0.9117 -0.0141
vn 0.4105 0.9117 -0.0141
vn 0.4105 0.9117 -0.0141
vn 0.2512 0.8912 -0.3778
vn 0.4940 0.3147 -0.8105
vn -0.1039 0.9482 -0.3002
vn -0.9875 0.1477 0.0552
vn -0.9996 -0.0030 -0.0276
vn 0.1950 0.8707 0.4516
vn -0.9996 -0.0030 -0.0276
vn -0.7711 0.5650 0.2934
vn -0.7711 0.5650 0.2934
vn -0.8005 0.5386 0.2628
vn -0.8005 0.5386 0.2628
vn 0.3179 0.8731 0.3697
vn -0.8849 -0.4609 -0.0680
vn -0.7678 0.5692 0.2940
vn -0.7678 0.5692 0.2940
vn -0.7933 0.5493 0.2625
vn -0.7933 0.5493 0.2625
vn 0.3179 0.8731 0.3697
vn 0.4704 0.8822 -0.0195
vn 0.9842 -0.1760 -0.0172
vn -0.4925 0.8703 0.0014
vn -0.6951 0.1871 -0.6941
vn 0.2149 0.9727 0.0871
vn 0.3318 0.9066 0.2609
vn -0.9875 0.1477 0.0552
vn 0.4075 0.7869 0.4634
vn 0.5717 0.6865 0.4493
vn -0.6273 0.7046 0.3316
vn -0.6273 0.7046 0.3316
vn 0.3605 0.7989 0.4815
vn -0.6265 0.7569 0.1862
vn -0.6265 0.7569 0.1862
vn -0.5311 0.8403 0.1091
vn -0.9692 -0.1267 -0.2114
vn 0.3605 0.7989 0.4815
vn -0.6230 0.7385 0.2578
vn -0.9692 -0.1267 -0.2114
vn -0.6388 0.7316 0.2382
vn -0.6388 0.7316 0.2382
vn -0.8352 -0.3778 -0.3997
vn -0.5311 0.8403 0.1091
vn -0.7167 0.6903 -0.0994
vn -0.6325 0.7025 0.3262
vn 0.3605 0.7989 0.4815
vn -0.9692 -0.1267 -0.2114
vn -0.9875 0.1477 0.0552
vn -0.6302 0.6849 0.3657
vn -0.6302 0.6849 0.3657
vn -0.6951 0.1871 -0.6941
vn 0.3318 0.9066 0.2609
vn -0.6173 -0.2946 -0.7295
vn 0.4110 0.9116 0.0118
vn -0.4925 0.8703 0.0014
vn 0.4110 0.9116 0.0118
vn -0.8008 0.5420 0.2550
vn 0.3179 0.8731 0.3697
vn -0.8008 0.5420 0.2550
vn -0.8849 -0.4609 -0.0680
vn -0.7928 0.5457 0.2714
vn -0.7928 0.5457 0.2714
vn -0.7723 0.5787 0.2621
vn 0.3179 0.8731 0.3697
vn -0.7723 0.5787 0.2621
vn -0.9996 -0.0030 -0.0276
vn 0.5079 0.7993 0.3213
vn 0.1950 0.8707 0.4516
vn -0.9875 0.1477 0.0552
vn 0.1950 0.8707 0.4516
vn 0.4075 0.7869 0.4634
vn 0.2512 0.8912 -0.3778
vn -0.1039 0.9482 -0.3002
vn -0.0917 0.9890 -0.1165
vn 0.3982 0.9173 -0.0077
vn 0.3982 0.9173 -0.0077
vn 0.3982 0.9173 -0.0077
vn 0.4858 -0.0539 -0.8724
vn -0.1039 0.9482 -0.3002
vn 0.4940 0.3147 -0.8105
vn 0.6379 -0.4398 0.6322
vn -0.1032 0.1174 0.9877
vn -0.1032 0.1174 0.9877
vn -0.8366 -0.0793 0.5420
vn 0.0704 0.9525 0.2962
vn -0.8255 -0.5131 0.2351
vn -0.7419 0.5143 0.4303
vn 0.0704 0.9525 0.2962
vn -0.7419 0.5143 0.4303
vn -0.8849 -0.4609 -0.0680
vn -0.7633 0.5549 0.3309
vn -0.7633 0.5549 0.3309
vn -0.1034 0.1178 0.9876
vn -0.1034 0.1178 0.9876
vn -0.1034 0.1178 0.9876
vn 0.4050 0.6843 0.6063
vn -0.5694 0.6204 0.5393
vn 0.7063 0.1112 0.6991
vn -0.1630 0.2989 0.9403
vn 0.4721 0.8542 0.2180
vn -0.5600 -0.1772 0.8093
vn -0.5600 -0.1772 0.8093
vn -0.1352 0.6878 0.7132
vn -0.8366 -0.0793 0.5420
vn 0.7063 0.1112 0.6991
vn -0.5101 0.4804 0.7134
vn 0.7831 -0.2661 0.5620
vn 0.0390 0.5613 -0.8267
vn 0.1258 0.8484 0.5141
vn -0.0910 0.8727 0.4798
vn -0.2391 -0.3456 -0.9074
vn 0.0604 0.6529 -0.7550
vn 0.0604 0.6529 -0.7550
vn -0.2391 -0.3456 -0.9074
vn 0.0867 0.6164 -0.7827
vn 0.0867 0.6164 -0.7827
vn 0.0865 0.6216 -0.7785
vn 0.1213 0.9529 0.2779
vn 0.0865 0.6216 -0.7785
vn 0.1094 0.7023 -0.7035
vn 0.1213 0.9529 0.2779
vn 0.1094 0.7023 -0.7035
vn 0.0390 0.5613 -0.8267
vn -0.3063 0.8092 0.5014
vn 0.1800 0.0639 -0.9816
vn 0.1800 0.0639 -0.9816
vn -0.3258 0.9415 0.0866
vn 0.1666 0.2678 -0.9490
vn 0.1666 0.2678 -0.9490
vn -0.5579 0.7842 0.2716
vn 0.4858 -0.0539 -0.8724
vn -0.2093 0.2646 -0.9414
vn -0.0334 0.6825 -0.7302
vn -0.0334 0.6825 -0.7302
vn 0.4050 0.6843 0.6063
vn -0.3082 0.9253 0.2209
vn -0.0261 0.8296 0.5577
vn 0.7004 0.6999 0.1400
vn -0.3082 0.9253 0.2209
vn 0.8769 0.3981 0.2693
vn 0.9805 0.1954 0.0216
vn -0.2567 0.9663 0.0180
vn -0.7127 0.7006 0.0348
vn -0.7167 0.6903 -0.0994
vn 0.3363 0.8945 0.2945
vn -0.5911 0.8038 -0.0673
vn -0.7718 0.3311 -0.5429
vn 0.2149 0.9727 0.0871
vn -0.6951 0.1871 -0.6941
vn -0.6173 -0.2946 -0.7295
vn -0.0787 0.7586 -0.6468
vn -0.2093 0.2646 -0.9414
vn 0.9239 0.3683 -0.1037
vn -0.2091 0.9771 -0.0398
vn -0.5217 0.8531 0.0128
vn 0.1900 0.9057 -0.3789
vn -0.6339 0.7730 -0.0263
vn 0.9757 -0.0034 -0.2190
vn -0.1753 -0.1675 0.9702
vn 0.1873 0.9504 0.2482
vn -0.1630 0.2989 0.9403
vn 0.9954 0.0907 -0.0311
vn -0.5859 0.8103 0.0098
vn -0.6961 0.7179 0.0079
vn 0.9987 -0.0308 -0.0415
vn -0.6728 0.7396 0.0194
vn -0.5859 0.8103 0.0098
vn -0.0773 0.2417 0.9673
vn 0.2107 0.8970 -0.3886
vn -0.1753 -0.1675 0.9702
vn 0.7924 0.6099 0.0103
vn 0.2954 0.9544 0.0441
vn -0.2307 0.9729 0.0144
vn 0.7691 0.6390 0.0102
vn -0.2307 0.9729 0.0144
vn -0.2567 0.9663 0.0180
vn 0.9954 0.0907 -0.0311
vn -0.4925 0.8703 0.0014
vn 0.9842 -0.1760 -0.0172
vn 0.9239 0.3683 -0.1037
vn -0.6728 0.7396 0.0194
vn 0.4608 0.8854 -0.0608
vn -0.0271 0.0685 0.9973
vn -0.0271 0.0685 0.9973
vn -0.0271 0.0685 0.9973
vn 0.9757 -0.0034 -0.2190
vn -0.2091 0.9771 -0.0398
vn 0.9867 0.0462 -0.1561
vn 0.1900 0.9057 -0.3789
vn -0.0917 0.9890 -0.1165
vn -0.1652 0.9141 -0.3702
vn 0.7004 0.6999 0.1400
vn -0.7127 0.7006 0.0348
vn -0.5416 0.8344 0.1017
vn -0.0747 0.1523 0.9855
vn -0.0747 0.1523 0.9855
vn -0.0747 0.1523 0.9855
vn -0.0773 0.2417 0.9673
vn -0.4013 0.9063 0.1328
vn 0.0634 0.8521 -0.5195
vn -0.7718 0.3311 -0.5429
vn 0.3363 0.8945 0.2945
vn 0.3622 0.9001 0.2420
vn 0.6379 -0.4398 0.6322
vn -0.1213 0.1486 0.9814
vn -0.1213 0.1486 0.9814
vn -0.0932 0.1505 0.9842
vn -0.5101 0.4804 0.7134
vn -0.0932 0.1505 0.9842
vn -0.0656 0.1205 0.9905
vn -0.0656 0.1205 0.9905
vn -0.0656 0.1205 0.9905
vn -0.0780 0.1075 0.9911
vn -0.0780 0.1075 0.9911
vn -0.0780 0.1075 0.9911
vn -0.0111 0.9999 0.0048
vn 0.3543 0.9304 0.0936
vn 0.2107 0.8970 -0.3886
vn -0.8709 0.4846 0.0820
vn -0.9205 0.3907 -0.0103
vn -0.8401 0.5411 -0.0389
vn -0.5522 0.8337 -0.0038
vn -0.6774 0.7356 0.0027
vn -0.3435 0.9388 0.0243
vn -0.4013 0.9063 0.1328
vn -0.1735 0.9827 0.0644
vn 0.0158 0.9881 0.1527
vn -0.1735 0.9827 0.0644
vn -0.4097 0.9064 0.1026
vn -0.3435 0.9388 0.0243
vn 0.6041 0.6433 0.4703
vn 0.5839 0.6476 0.4895
vn 0.3363 0.8945 0.2945
vn -0.8747 0.4842 0.0205
vn -0.8184 0.5649 0.1049
vn -0.8490 0.5247 0.0622
vn 0.0704 0.9525 0.2962
vn -0.1352 0.6878 0.7132
vn 0.4721 0.8542 0.2180
vn -0.6339 0.7730 -0.0263
vn -0.6809 0.6989 0.2188
vn -0.7554 0.6484 0.0942
vn -0.5694 0.6204 0.5393
vn -0.0261 0.8296 0.5577
vn -0.3082 0.9253 0.2209
vn -0.8184 0.5649 0.1049
vn -0.5859 0.8103 0.0098
vn -0.6728 0.7396 0.0194
vn 0.4875 0.7768 0.3987
vn 0.5839 0.6476 0.4895
vn 0.3714 0.7624 0.5300
vn 0.5011 -0.7220 -0.4771
vn 0.5011 -0.7220 -0.4771
vn 0.5011 -0.7220 -0.4771
vn 0.3318 0.9066 0.2609
vn 0.5839 0.6476 0.4895
vn 0.4875 0.7768 0.3987
vn -0.8345 0.5507 0.0209
vn -0.8747 0.4842 0.0205
vn -0.8609 0.5065 0.0474
vn -0.7448 0.6672 -0.0005
vn -0.7950 0.6001 0.0890
vn -0.8401 0.5411 -0.0389
vn -0.5694 0.6204 0.5393
vn -0.9205 0.3907 -0.0103
vn -0.5101 0.4804 0.7134
vn -0.7127 0.7006 0.0348
vn -0.9203 0.3906 0.0212
vn -0.9205 0.3907 -0.0103
vn -0.6774 0.7356 0.0027
vn -0.7448 0.6672 -0.0005
vn -0.8401 0.5411 -0.0389
vn -0.6607 0.7411 0.1196
vn -0.7448 0.6672 -0.0005
vn -0.6774 0.7356 0.0027
vn -0.9205 0.3907 -0.0103
vn -0.5694 0.6204 0.5393
vn -0.3082 0.9253 0.2209
vn 0.6095 0.7052 0.3622
vn 0.6187 0.6523 0.4378
vn 0.5717 0.6865 0.4493
vn 0.5717 0.6865 0.4493
vn 0.4075 0.7869 0.4634
vn 0.6095 0.7052 0.3622
vn 0.3543 0.9304 0.0936
vn 0.7275 0.4023 -0.5558
vn 0.4721 0.8542 0.2180
vn -0.4700 0.7874 0.3989
vn -0.6809 0.6989 0.2188
vn -0.5579 0.7842 0.2716
vn -0.4700 0.7874 0.3989
vn -0.3258 0.9415 0.0866
vn -0.3063 0.8092 0.5014
vn 0.3179 0.8731 0.3697
vn 0.5050 0.8064 0.3076
vn 0.4027 0.8671 0.2932
vn 0.4027 0.8671 0.2932
vn 0.5050 0.8064 0.3076
vn 0.4130 0.8812 0.2300
vn 0.6095 0.7052 0.3622
vn 0.5079 0.7993 0.3213
vn 0.4027 0.8671 0.2932
vn 0.4916 0.8506 0.1869
vn 0.3543 0.9304 0.0936
vn 0.4130 0.8812 0.2300
vn 0.5839 0.6476 0.4895
vn 0.3622 0.9001 0.2420
vn 0.3363 0.8945 0.2945
vn 0.3536 0.2004 -0.9137
vn 0.3536 0.2004 -0.9137
vn 0.3536 0.2004 -0.9137
vn 0.6187 0.6523 0.4378
vn 0.5839 0.6476 0.4895
vn 0.6041 0.6433 0.4703
vn -0.4089 -0.8859 -0.2189
vn -0.7157 -0.6955 -0.0635
vn -0.8849 -0.4609 -0.0680
vn -0.7157 -0.6955 -0.0635
vn -0.3521 -0.9346 -0.0497
vn -0.8255 -0.5131 0.2351
vn -0.1753 -0.1675 0.9702
vn -0.1630 0.2989 0.9403
vn -0.3521 -0.9346 -0.0497
vn -0.1753 -0.1675 0.9702
vn -0.0186 -0.9975 0.0678
vn -0.0773 0.2417 0.9673
vn -0.3521 -0.9346 -0.0497
vn -0.4089 -0.8859 -0.2189
vn -0.0222 -0.9889 -0.1469
vn -0.3521 -0.9346 -0.0497
vn -0.0222 -0.9889 -0.1469
vn -0.0186 -0.9975 0.0678
vn 0.5079 0.7993 0.3213
vn 0.3179 0.8731 0.3697
vn 0.4027 0.8671 0.2932
vn 0.5050 0.8064 0.3076
vn 0.4506 0.8507 0.2706
vn 0.4130 0.8812 0.2300
vn 0.1258 0.8484 0.5141
vn 0.1213 0.9529 0.2779
vn 0.0919 0.8581 0.5052
vn 0.3841 -0.8866 0.2577
vn -0.0773 0.2417 0.9673
vn -0.0186 -0.9975 0.0678
vn 0.6187 0.6523 0.4378
vn 0.3605 0.7989 0.4815
vn 0.5717 0.6865 0.4493
vn 0.2140 0.8431 0.4933
vn 0.3108 0.8486 0.4281
vn 0.3714 0.7624 0.5300
vn 0.0919 0.8581 0.5052
vn 0.2140 0.8431 0.4933
vn 0.3714 0.7624 0.5300
vn 0.1213 0.9529 0.2779
vn 0.2140 0.8431 0.4933
vn 0.0919 0.8581 0.5052
vn -0.5416 0.8344 0.1017
vn -0.7127 0.7006 0.0348
vn -0.9205 0.3907 -0.0103
vn -0.1969 0.8533 0.4828
vn 0.1258 0.8484 0.5141
vn 0.0919 0.8581 0.5052
vn -0.1743 -0.8533 0.4915
vn -0.1743 -0.8533 0.4915
vn -0.1743 -0.8533 0.4915
vn -0.9203 0.3906 0.0212
vn -0.2567 0.9663 0.0180
vn -0.2307 0.9729 0.0144
vn -0.3063 0.8092 0.5014
vn -0.0910 0.8727 0.4798
vn -0.1969 0.8533 0.4828
vn -0.1969 0.8533 0.4828
vn -0.4700 0.7874 0.3989
vn -0.3063 0.8092 0.5014
vn 0.8400 -0.5412 0.0388
vn 0.8367 -0.4189 0.3527
vn 0.6379 -0.4398 0.6322
vn 0.8367 -0.4189 0.3527
vn 0.9202 -0.3913 0.0106
vn 0.7831 -0.2661 0.5620
vn -0.8345 0.5507 0.0209
vn -0.9203 0.3906 0.0212
vn -0.2307 0.9729 0.0144
vn -0.8609 0.5065 0.0474
vn -0.8747 0.4842 0.0205
vn -0.8490 0.5247 0.0622
vn -0.9996 -0.0030 -0.0276
vn -0.9875 0.1477 0.0552
vn -0.6090 -0.7055 -0.3625
vn -0.9996 -0.0030 -0.0276
vn -0.6090 -0.7055 -0.3625
vn -0.7364 -0.6314 -0.2430
vn -0.6090 -0.7055 -0.3625
vn -0.3796 -0.8388 -0.3902
vn -0.3993 -0.8688 -0.2930
vn -0.0222 -0.9889 -0.1469
vn -0.4089 -0.8859 -0.2189
vn -0.3993 -0.8688 -0.2930
vn -0.0222 -0.9889 -0.1469
vn -0.3993 -0.8688 -0.2930
vn -0.0534 -0.9660 -0.2528
vn -0.3993 -0.8688 -0.2930
vn -0.3796 -0.8388 -0.3902
vn -0.0603 -0.9308 -0.3606
vn -0.3993 -0.8688 -0.2930
vn -0.0603 -0.9308 -0.3606
vn -0.0534 -0.9660 -0.2528
vn -0.0603 -0.9308 -0.3606
vn 0.3571 -0.8921 -0.2767
vn 0.3569 -0.9171 -0.1773
vn -0.0603 -0.9308 -0.3606
vn 0.3569 -0.9171 -0.1773
vn -0.0534 -0.9660 -0.2528
vn 0.3569 -0.9171 -0.1773
vn 0.3443 -0.9385 -0.0251
vn -0.0222 -0.9889 -0.1469
vn 0.3569 -0.9171 -0.1773
vn -0.0222 -0.9889 -0.1469
vn -0.0534 -0.9660 -0.2528
vn -0.9203 0.3906 0.0212
vn -0.8345 0.5507 0.0209
vn -0.8609 0.5065 0.0474
vn 0.2149 0.9727 0.0871
vn 0.3622 0.9001 0.2420
vn 0.5839 0.6476 0.4895
vn 0.3443 -0.9385 -0.0251
vn 0.5359 -0.8105 0.2363
vn 0.3863 -0.8525 0.3522
vn 0.5359 -0.8105 0.2363
vn 0.6754 -0.7375 -0.0036
vn 0.6114 -0.6784 0.4074
vn -0.0787 0.7586 -0.6468
vn 0.3318 0.9066 0.2609
vn 0.4875 0.7768 0.3987
vn -0.5217 0.8531 0.0128
vn -0.2091 0.9771 -0.0398
vn -0.7554 0.6484 0.0942
vn -0.4700 0.7874 0.3989
vn -0.5734 0.7832 0.2404
vn -0.6809 0.6989 0.2188
vn -0.5734 0.7832 0.2404
vn -0.7554 0.6484 0.0942
vn -0.6809 0.6989 0.2188
vn 0.9202 -0.3913 0.0106
vn 0.8400 -0.5412 0.0388
vn 0.8597 -0.5086 -0.0474
vn 0.9202 -0.3913 0.0106
vn 0.8597 -0.5086 -0.0474
vn 0.9201 -0.3912 -0.0200
vn 0.7004 0.6999 0.1400
vn 0.8769 0.3981 0.2693
vn 0.9202 -0.3913 0.0106
vn 0.9805 0.1954 0.0216
vn 0.9201 -0.3912 -0.0200
vn 0.7691 0.6390 0.0102
vn -0.8317 -0.3055 -0.4637
vn -0.8352 -0.3778 -0.3997
vn -0.6505 -0.6266 -0.4292
vn -0.8352 -0.3778 -0.3997
vn -0.6181 -0.6530 -0.4376
vn -0.9692 -0.1267 -0.2114
vn -0.5827 -0.6489 -0.4893
vn -0.3713 -0.7626 -0.5297
vn -0.3892 -0.8044 -0.4488
vn -0.5827 -0.6489 -0.4893
vn -0.3892 -0.8044 -0.4488
vn -0.6181 -0.6530 -0.4376
vn -0.3892 -0.8044 -0.4488
vn -0.3796 -0.8388 -0.3902
vn -0.6090 -0.7055 -0.3625
vn -0.3892 -0.8044 -0.4488
vn -0.6090 -0.7055 -0.3625
vn -0.6181 -0.6530 -0.4376
vn -0.0603 -0.9308 -0.3606
vn -0.3796 -0.8388 -0.3902
vn -0.3892 -0.8044 -0.4488
vn -0.0603 -0.9308 -0.3606
vn -0.3892 -0.8044 -0.4488
vn -0.0665 -0.8954 -0.4402
vn -0.3892 -0.8044 -0.4488
vn -0.3713 -0.7626 -0.5297
vn -0.0893 -0.8586 -0.5048
vn -0.3892 -0.8044 -0.4488
vn -0.0893 -0.8586 -0.5048
vn -0.0665 -0.8954 -0.4402
vn -0.0893 -0.8586 -0.5048
vn 0.2402 -0.8915 -0.3840
vn 0.3208 -0.8768 -0.3582
vn -0.0893 -0.8586 -0.5048
vn 0.3208 -0.8768 -0.3582
vn -0.0665 -0.8954 -0.4402
vn 0.3208 -0.8768 -0.3582
vn 0.3571 -0.8921 -0.2767
vn -0.0603 -0.9308 -0.3606
vn 0.3208 -0.8768 -0.3582
vn -0.0603 -0.9308 -0.3606
vn -0.0665 -0.8954 -0.4402
vn 0.6754 -0.7375 -0.0036
vn 0.3443 -0.9385 -0.0251
vn 0.3569 -0.9171 -0.1773
vn 0.6754 -0.7375 -0.0036
vn 0.3569 -0.9171 -0.1773
vn 0.6894 -0.7166 -0.1058
vn 0.3569 -0.9171 -0.1773
vn 0.3571 -0.8921 -0.2767
vn 0.6804 -0.7145 -0.1630
vn 0.3569 -0.9171 -0.1773
vn 0.6804 -0.7145 -0.1630
vn 0.6894 -0.7166 -0.1058
vn 0.6804 -0.7145 -0.1630
vn 0.8476 -0.5269 -0.0628
vn 0.8597 -0.5086 -0.0474
vn 0.6804 -0.7145 -0.1630
vn 0.8597 -0.5086 -0.0474
vn 0.6894 -0.7166 -0.1058
vn 0.8597 -0.5086 -0.0474
vn 0.8400 -0.5412 0.0388
vn 0.6754 -0.7375 -0.0036
vn 0.8597 -0.5086 -0.0474
vn 0.6754 -0.7375 -0.0036
vn 0.6894 -0.7166 -0.1058
vn -0.3258 0.9415 0.0866
vn -0.4700 0.7874 0.3989
vn -0.5579 0.7842 0.2716
vn -0.6809 0.6989 0.2188
vn -0.1039 0.9482 -0.3002
vn -0.5579 0.7842 0.2716
vn -0.4700 0.7874 0.3989
vn -0.1969 0.8533 0.4828
vn -0.5734 0.7832 0.2404
vn -0.1969 0.8533 0.4828
vn -0.2388 0.8953 0.3760
vn -0.5734 0.7832 0.2404
vn -0.5827 -0.6489 -0.4893
vn -0.6951 0.1871 -0.6941
vn -0.6173 -0.2946 -0.7295
vn 0.7537 -0.6488 -0.1054
vn 0.9757 -0.0034 -0.2190
vn 0.9867 0.0462 -0.1561
vn -0.0222 -0.9889 -0.1469
vn 0.3841 -0.8866 0.2577
vn -0.0186 -0.9975 0.0678
vn 0.7537 -0.6488 -0.1054
vn 0.9239 0.3683 -0.1037
vn 0.9513 -0.3043 -0.0496
vn 0.8168 -0.5671 -0.1064
vn 0.9954 0.0907 -0.0311
vn 0.9842 -0.1760 -0.0172
vn 0.0158 0.9881 0.1527
vn -0.1735 0.9827 0.0644
vn -0.3435 0.9388 0.0243
vn -0.3713 -0.7626 -0.5297
vn -0.4766 -0.5730 -0.6667
vn -0.2391 -0.3456 -0.9074
vn -0.6961 0.7179 0.0079
vn -0.5859 0.8103 0.0098
vn -0.8184 0.5649 0.1049
vn 0.0390 0.5613 -0.8267
vn 0.1989 -0.8411 -0.5030
vn -0.0848 -0.5406 -0.8370
vn 0.1989 -0.8411 -0.5030
vn 0.2402 -0.8915 -0.3840
vn -0.0893 -0.8586 -0.5048
vn 0.6804 -0.7145 -0.1630
vn 0.3571 -0.8921 -0.2767
vn 0.3208 -0.8768 -0.3582
vn 0.6804 -0.7145 -0.1630
vn 0.3208 -0.8768 -0.3582
vn 0.6506 -0.7273 -0.2186
vn 0.3208 -0.8768 -0.3582
vn 0.2402 -0.8915 -0.3840
vn 0.5738 -0.7802 -0.2491
vn 0.3208 -0.8768 -0.3582
vn 0.5738 -0.7802 -0.2491
vn 0.6506 -0.7273 -0.2186
vn 0.5738 -0.7802 -0.2491
vn 0.7537 -0.6488 -0.1054
vn 0.8168 -0.5671 -0.1064
vn 0.5738 -0.7802 -0.2491
vn 0.8168 -0.5671 -0.1064
vn 0.6506 -0.7273 -0.2186
vn 0.8168 -0.5671 -0.1064
vn 0.8476 -0.5269 -0.0628
vn 0.6804 -0.7145 -0.1630
vn 0.8168 -0.5671 -0.1064
vn 0.6804 -0.7145 -0.1630
vn 0.6506 -0.7273 -0.2186
vn 0.9757 -0.0034 -0.2190
vn 0.6962 -0.6763 -0.2406
vn 0.9499 -0.0599 -0.3067
vn -0.7554 0.6484 0.0942
vn -0.8184 0.5649 0.1049
vn -0.6728 0.7396 0.0194
vn -0.8747 0.4842 0.0205
vn -0.4925 0.8703 0.0014
vn -0.8184 0.5649 0.1049
vn 0.8168 -0.5671 -0.1064
vn 0.9842 -0.1760 -0.0172
vn 0.9453 -0.3255 -0.0221
vn 0.9513 -0.3043 -0.0496
vn 0.8168 -0.5671 -0.1064
vn 0.7537 -0.6488 -0.1054
vn 0.8168 -0.5671 -0.1064
vn 0.9987 -0.0308 -0.0415
vn 0.9954 0.0907 -0.0311
vn 0.3443 -0.9385 -0.0251
vn 0.1693 -0.9785 0.1179
vn -0.0222 -0.9889 -0.1469
vn 0.5738 -0.7802 -0.2491
vn 0.2402 -0.8915 -0.3840
vn 0.1989 -0.8411 -0.5030
vn 0.5738 -0.7802 -0.2491
vn 0.1989 -0.8411 -0.5030
vn 0.4788 -0.7731 -0.4160
vn 0.4858 -0.0539 -0.8724
vn 0.4940 0.3147 -0.8105
vn 0.6962 -0.6763 -0.2406
vn 0.4858 -0.0539 -0.8724
vn 0.4788 -0.7731 -0.4160
vn 0.1666 0.2678 -0.9490
vn 0.6962 -0.6763 -0.2406
vn 0.7537 -0.6488 -0.1054
vn 0.5738 -0.7802 -0.2491
vn 0.6962 -0.6763 -0.2406
vn 0.5738 -0.7802 -0.2491
vn 0.4788 -0.7731 -0.4160
vn 0.7537 -0.6488 -0.1054
vn 0.9867 0.0462 -0.1561
vn 0.9239 0.3683 -0.1037
vn -0.4766 -0.5730 -0.6667
vn -0.6173 -0.2946 -0.7295
vn -0.3633 -0.9275 -0.0881
vn -0.5827 -0.6489 -0.4893
vn -0.7718 0.3311 -0.5429
vn -0.6951 0.1871 -0.6941
vn 0.8597 -0.5086 -0.0474
vn 0.9684 -0.2486 -0.0210
vn 0.9201 -0.3912 -0.0200
vn 0.8476 -0.5269 -0.0628
vn 0.9453 -0.3255 -0.0221
vn 0.8597 -0.5086 -0.0474
vn 0.7924 0.6099 0.0103
vn 0.9201 -0.3912 -0.0200
vn 0.9684 -0.2486 -0.0210
vn 0.0216 -0.8925 0.4505
vn 0.0216 -0.8925 0.4505
vn 0.0216 -0.8925 0.4505
vn -0.6524 0.7259 0.2177
vn -0.6831 0.7122 0.1618
vn -0.8184 0.5649 0.1049
vn -0.6831 0.7122 0.1618
vn -0.8490 0.5247 0.0622
vn -0.8184 0.5649 0.1049
vn -0.6524 0.7259 0.2177
vn -0.8184 0.5649 0.1049
vn -0.5734 0.7832 0.2404
vn -0.8184 0.5649 0.1049
vn -0.7554 0.6484 0.0942
vn -0.5734 0.7832 0.2404
vn -0.6524 0.7259 0.2177
vn -0.5734 0.7832 0.2404
vn -0.3216 0.8765 0.3583
vn -0.5734 0.7832 0.2404
vn -0.2388 0.8953 0.3760
vn -0.3216 0.8765 0.3583
vn -0.6524 0.7259 0.2177
vn -0.3216 0.8765 0.3583
vn -0.6831 0.7122 0.1618
vn -0.3216 0.8765 0.3583
vn -0.3580 0.8918 0.2767
vn -0.6831 0.7122 0.1618
vn 0.0919 0.8581 0.5052
vn -0.2388 0.8953 0.3760
vn -0.1969 0.8533 0.4828
vn 0.1258 0.8484 0.5141
vn -0.1969 0.8533 0.4828
vn -0.0910 0.8727 0.4798
vn 0.3108 0.8486 0.4281
vn 0.4875 0.7768 0.3987
vn 0.3714 0.7624 0.5300
vn -0.4925 0.8703 0.0014
vn -0.6961 0.7179 0.0079
vn -0.8184 0.5649 0.1049
vn -0.6728 0.7396 0.0194
vn -0.5217 0.8531 0.0128
vn -0.7554 0.6484 0.0942
vn -0.0111 0.9999 0.0048
vn -0.4013 0.9063 0.1328
vn 0.0158 0.9881 0.1527
vn -0.2091 0.9771 -0.0398
vn -0.6339 0.7730 -0.0263
vn -0.7554 0.6484 0.0942
vn 0.3318 0.9066 0.2609
vn 0.2149 0.9727 0.0871
vn 0.5839 0.6476 0.4895
vn -0.6916 0.7145 0.1057
vn -0.6774 0.7356 0.0027
vn -0.8609 0.5065 0.0474
vn 0.1800 0.0639 -0.9816
vn 0.4788 -0.7731 -0.4160
vn 0.1989 -0.8411 -0.5030
vn 0.1989 -0.8411 -0.5030
vn 0.0390 0.5613 -0.8267
vn 0.1800 0.0639 -0.9816
vn -0.6774 0.7356 0.0027
vn -0.8401 0.5411 -0.0389
vn -0.8609 0.5065 0.0474
vn -0.6916 0.7145 0.1057
vn -0.8609 0.5065 0.0474
vn -0.6831 0.7122 0.1618
vn 0.7924 0.6099 0.0103
vn 0.7691 0.6390 0.0102
vn 0.9201 -0.3912 -0.0200
vn 0.2512 0.8912 -0.3778
vn 0.1900 0.9057 -0.3789
vn 0.6962 -0.6763 -0.2406
vn -0.0893 -0.8586 -0.5048
vn -0.0848 -0.5406 -0.8370
vn 0.1989 -0.8411 -0.5030
vn 0.9202 -0.3913 0.0106
vn 0.9805 0.1954 0.0216
vn 0.7004 0.6999 0.1400
vn -0.8609 0.5065 0.0474
vn -0.8490 0.5247 0.0622
vn -0.6831 0.7122 0.1618
vn -0.0893 -0.8586 -0.5048
vn -0.1910 -0.6671 -0.7201
vn -0.0803 -0.6313 -0.7714
vn -0.3713 -0.7626 -0.5297
vn -0.1910 -0.6671 -0.7201
vn -0.0893 -0.8586 -0.5048
vn -0.6916 0.7145 0.1057
vn -0.6831 0.7122 0.1618
vn -0.3575 0.9170 0.1772
vn -0.6831 0.7122 0.1618
vn -0.3580 0.8918 0.2767
vn -0.3575 0.9170 0.1772
vn -0.6916 0.7145 0.1057
vn -0.3575 0.9170 0.1772
vn -0.6774 0.7356 0.0027
vn -0.3575 0.9170 0.1772
vn -0.3435 0.9388 0.0243
vn -0.6774 0.7356 0.0027
vn 0.0685 0.8953 0.4401
vn 0.0624 0.9304 0.3612
vn -0.3216 0.8765 0.3583
vn 0.0624 0.9304 0.3612
vn -0.3580 0.8918 0.2767
vn -0.3216 0.8765 0.3583
vn 0.0685 0.8953 0.4401
vn -0.3216 0.8765 0.3583
vn 0.0919 0.8581 0.5052
vn -0.3713 -0.7626 -0.5297
vn -0.2391 -0.3456 -0.9074
vn -0.1910 -0.6671 -0.7201
vn -0.9084 -0.3233 -0.2651
vn -0.9692 -0.1267 -0.2114
vn -0.6181 -0.6530 -0.4376
vn -0.0893 -0.8586 -0.5048
vn -0.0803 -0.6313 -0.7714
vn -0.0848 -0.5406 -0.8370
vn -0.4089 -0.8859 -0.2189
vn -0.8849 -0.4609 -0.0680
vn -0.6953 -0.6765 -0.2427
vn -0.3993 -0.8688 -0.2930
vn -0.7186 -0.6451 -0.2597
vn -0.7364 -0.6314 -0.2430
vn -0.3216 0.8765 0.3583
vn -0.2388 0.8953 0.3760
vn 0.0919 0.8581 0.5052
vn 0.0685 0.8953 0.4401
vn 0.0919 0.8581 0.5052
vn 0.3898 0.8040 0.4491
vn 0.0919 0.8581 0.5052
vn 0.3714 0.7624 0.5300
vn 0.3898 0.8040 0.4491
vn 0.0685 0.8953 0.4401
vn 0.3898 0.8040 0.4491
vn 0.0624 0.9304 0.3612
vn 0.3898 0.8040 0.4491
vn 0.3793 0.8389 0.3904
vn 0.0624 0.9304 0.3612
vn 0.6187 0.6523 0.4378
vn 0.6095 0.7052 0.3622
vn 0.3898 0.8040 0.4491
vn 0.6095 0.7052 0.3622
vn 0.3793 0.8389 0.3904
vn 0.3898 0.8040 0.4491
vn 0.6187 0.6523 0.4378
vn 0.3898 0.8040 0.4491
vn 0.5839 0.6476 0.4895
vn -0.0856 0.1336 0.9873
vn -0.0856 0.1336 0.9873
vn -0.0856 0.1336 0.9873
vn -0.0651 0.1161 0.9911
vn -0.0651 0.1161 0.9911
vn -0.0651 0.1161 0.9911
vn 0.8367 -0.4189 0.3527
vn 0.7831 -0.2661 0.5620
vn -0.5101 0.4804 0.7134
vn 0.3898 0.8040 0.4491
vn 0.3714 0.7624 0.5300
vn 0.5839 0.6476 0.4895
vn 0.6379 -0.4398 0.6322
vn -0.0966 0.1445 0.9848
vn -0.0966 0.1445 0.9848
vn 0.3605 0.7989 0.4815
vn 0.6187 0.6523 0.4378
vn 0.6041 0.6433 0.4703
vn 0.6683 0.6062 0.4311
vn 0.6041 0.6433 0.4703
vn 0.3363 0.8945 0.2945
vn -0.2567 0.9663 0.0180
vn -0.9203 0.3906 0.0212
vn -0.7127 0.7006 0.0348
vn -0.7718 0.3311 -0.5429
vn -0.5071 0.8291 -0.2353
vn 0.3363 0.8945 0.2945
vn -0.0773 0.2417 0.9673
vn -0.0376 0.1649 0.9856
vn -0.0376 0.1649 0.9856
vn -0.0245 0.0691 0.9973
vn -0.0245 0.0691 0.9973
vn -0.0245 0.0691 0.9973
vn -0.9205 0.3907 -0.0103
vn -0.3082 0.9253 0.2209
vn -0.5416 0.8344 0.1017
vn -0.9203 0.3906 0.0212
vn -0.8609 0.5065 0.0474
vn -0.9205 0.3907 -0.0103
vn -0.8609 0.5065 0.0474
vn -0.8401 0.5411 -0.0389
vn -0.9205 0.3907 -0.0103
vn 0.7004 0.6999 0.1400
vn 0.9805 0.1954 0.0216
vn -0.7127 0.7006 0.0348
vn -0.6607 0.7411 0.1196
vn -0.6774 0.7356 0.0027
vn -0.5522 0.8337 -0.0038
vn -0.4097 0.9064 0.1026
vn -0.5522 0.8337 -0.0038
vn -0.3435 0.9388 0.0243
vn 0.0545 0.9659 0.2530
vn 0.0158 0.9881 0.1527
vn -0.3575 0.9170 0.1772
vn 0.1900 0.9057 -0.3789
vn 0.2512 0.8912 -0.3778
vn -0.0917 0.9890 -0.1165
vn 0.9757 -0.0034 -0.2190
vn -0.6339 0.7730 -0.0263
vn -0.2091 0.9771 -0.0398
vn -0.0231 0.1395 0.9899
vn -0.0231 0.1395 0.9899
vn -0.0231 0.1395 0.9899
vn 0.9239 0.3683 -0.1037
vn -0.5217 0.8531 0.0128
vn -0.6728 0.7396 0.0194
vn 0.9954 0.0907 -0.0311
vn -0.6961 0.7179 0.0079
vn -0.4925 0.8703 0.0014
vn 0.7691 0.6390 0.0102
vn 0.7924 0.6099 0.0103
vn -0.2307 0.9729 0.0144
vn 0.0158 0.9881 0.1527
vn -0.3435 0.9388 0.0243
vn -0.3575 0.9170 0.1772
vn 0.0545 0.9659 0.2530
vn -0.3575 0.9170 0.1772
vn 0.0624 0.9304 0.3612
vn 0.7924 0.6099 0.0103
vn 0.3982 0.9173 -0.0080
vn 0.3982 0.9173 -0.0080
vn -0.0773 0.2417 0.9673
vn 0.0634 0.8521 -0.5195
vn 0.2107 0.8970 -0.3886
vn 0.9987 -0.0308 -0.0415
vn 0.4620 0.8859 -0.0411
vn -0.6728 0.7396 0.0194
vn 0.9954 0.0907 -0.0311
vn 0.9987 -0.0308 -0.0415
vn -0.5859 0.8103 0.0098
vn -0.1753 -0.1675 0.9702
vn 0.2107 0.8970 -0.3886
vn 0.1873 0.9504 0.2482
vn 0.1900 0.9057 -0.3789
vn -0.1652 0.9141 -0.3702
vn -0.6339 0.7730 -0.0263
vn -0.3575 0.9170 0.1772
vn -0.3580 0.8918 0.2767
vn 0.0624 0.9304 0.3612
vn 0.0545 0.9659 0.2530
vn 0.0624 0.9304 0.3612
vn 0.4027 0.8671 0.2932
vn 0.9239 0.3683 -0.1037
vn 0.9867 0.0462 -0.1561
vn -0.2091 0.9771 -0.0398
vn -0.6173 -0.2946 -0.7295
vn 0.3318 0.9066 0.2609
vn -0.0787 0.7586 -0.6468
vn 0.0624 0.9304 0.3612
vn 0.3793 0.8389 0.3904
vn 0.4027 0.8671 0.2932
vn -0.7718 0.3311 -0.5429
vn 0.3622 0.9001 0.2420
vn 0.2149 0.9727 0.0871
vn -0.7167 0.6903 -0.0994
vn -0.5311 0.8403 0.1091
vn 0.3363 0.8945 0.2945
vn 0.9805 0.1954 0.0216
vn 0.7691 0.6390 0.0102
vn -0.2567 0.9663 0.0180
vn -0.8352 -0.3778 -0.3997
vn -0.5827 -0.6489 -0.4893
vn -0.6181 -0.6530 -0.4376
vn -0.1630 0.2989 0.9403
vn -0.5600 -0.1772 0.8093
vn -0.3521 -0.9346 -0.0497
vn 0.0545 0.9659 0.2530
vn 0.4027 0.8671 0.2932
vn 0.0158 0.9881 0.1527
vn -0.8317 -0.3055 -0.4637
vn -0.7718 0.3311 -0.5429
vn -0.5827 -0.6489 -0.4893
vn 0.7004 0.6999 0.1400
vn -0.5416 0.8344 0.1017
vn -0.3082 0.9253 0.2209
vn 0.4050 0.6843 0.6063
vn 0.8769 0.3981 0.2693
vn -0.3082 0.9253 0.2209
vn -0.2093 0.2646 -0.9414
vn -0.0787 0.7586 -0.6468
vn -0.0128 0.0995 -0.9950
vn 0.1666 0.2678 -0.9490
vn -0.3258 0.9415 0.0866
vn -0.5579 0.7842 0.2716
vn 0.4027 0.8671 0.2932
vn 0.4130 0.8812 0.2300
vn 0.0158 0.9881 0.1527
vn -0.4089 -0.8859 -0.2189
vn -0.3521 -0.9346 -0.0497
vn -0.7157 -0.6955 -0.0635
vn -0.3993 -0.8688 -0.2930
vn -0.7364 -0.6314 -0.2430
vn -0.6090 -0.7055 -0.3625
vn -0.4089 -0.8859 -0.2189
vn -0.6953 -0.6765 -0.2427
vn -0.3993 -0.8688 -0.2930
vn -0.3993 -0.8688 -0.2930
vn -0.6953 -0.6765 -0.2427
vn -0.7186 -0.6451 -0.2597
vn 0.1800 0.0639 -0.9816
vn 0.1666 0.2678 -0.9490
vn 0.4788 -0.7731 -0.4160
vn 0.4858 -0.0539 -0.8724
vn 0.6962 -0.6763 -0.2406
vn 0.4788 -0.7731 -0.4160
vn 0.4027 0.8671 0.2932
vn 0.3793 0.8389 0.3904
vn 0.6095 0.7052 0.3622
vn -0.5600 -0.1772 0.8093
vn -0.8255 -0.5131 0.2351
vn -0.3521 -0.9346 -0.0497
vn 0.5079 0.7993 0.3213
vn 0.6095 0.7052 0.3622
vn 0.1950 0.8707 0.4516
vn -0.6090 -0.7055 -0.3625
vn -0.9875 0.1477 0.0552
vn -0.9084 -0.3233 -0.2651
vn -0.9084 -0.3233 -0.2651
vn -0.6181 -0.6530 -0.4376
vn -0.6090 -0.7055 -0.3625
vn 0.6095 0.7052 0.3622
vn 0.4075 0.7869 0.4634
vn 0.1950 0.8707 0.4516
vn -0.5101 0.4804 0.7134
vn -0.9205 0.3907 -0.0103
vn -0.8709 0.4846 0.0820
vn 0.8769 0.3981 0.2693
vn 0.7063 0.1112 0.6991
vn 0.9202 -0.3913 0.0106
vn 0.6754 -0.7375 -0.0036
vn 0.7168 -0.6331 0.2921
vn 0.6114 -0.6784 0.4074
vn 0.8400 -0.5412 0.0388
vn 0.7168 -0.6331 0.2921
vn 0.6754 -0.7375 -0.0036
vn -0.7950 0.6001 0.0890
vn -0.8709 0.4846 0.0820
vn -0.8401 0.5411 -0.0389
vn 0.2967 0.1832 -0.9372
vn 0.0634 0.8521 -0.5195
vn 0.2967 0.1832 -0.9372
vn 0.9202 -0.3913 0.0106
vn 0.9201 -0.3912 -0.0200
vn 0.9805 0.1954 0.0216
vn -0.0111 0.9999 0.0048
vn 0.0158 0.9881 0.1527
vn 0.3543 0.9304 0.0936
vn 0.0158 0.9881 0.1527
vn 0.4130 0.8812 0.2300
vn 0.3543 0.9304 0.0936
vn 0.7831 -0.2661 0.5620
vn 0.9202 -0.3913 0.0106
vn 0.7063 0.1112 0.6991
vn 0.0634 0.8521 -0.5195
vn 0.0422 0.1014 -0.9939
vn 0.2107 0.8970 -0.3886
vn 0.3543 0.9304 0.0936
vn 0.2420 0.4626 -0.8529
vn 0.2107 0.8970 -0.3886
vn 0.0704 0.9525 0.2962
vn 0.3543 0.9304 0.0936
vn 0.4916 0.8506 0.1869
vn 0.4506 0.8507 0.2706
vn 0.4916 0.8506 0.1869
vn 0.4130 0.8812 0.2300
vn 0.8400 -0.5412 0.0388
vn 0.6379 -0.4398 0.6322
vn 0.7168 -0.6331 0.2921
vn 0.8597 -0.5086 -0.0474
vn 0.9453 -0.3255 -0.0221
vn 0.9684 -0.2486 -0.0210
vn -0.4766 -0.5730 -0.6667
vn -0.5827 -0.6489 -0.4893
vn -0.6173 -0.2946 -0.7295
vn 0.4940 0.3147 -0.8105
vn 0.2512 0.8912 -0.3778
vn 0.6962 -0.6763 -0.2406
vn -0.3713 -0.7626 -0.5297
vn -0.5827 -0.6489 -0.4893
vn -0.4766 -0.5730 -0.6667
vn 0.9513 -0.3043 -0.0496
vn 0.9987 -0.0308 -0.0415
vn 0.8168 -0.5671 -0.1064
vn 0.8769 0.3981 0.2693
vn 0.9008 -0.4325 -0.0390
vn 0.7063 0.1112 0.6991
vn 0.7537 -0.6488 -0.1054
vn 0.6962 -0.6763 -0.2406
vn 0.9757 -0.0034 -0.2190
vn -0.2077 -0.9231 -0.3238
vn -0.2077 -0.9231 -0.3238
vn -0.8255 -0.5131 0.2351
vn 0.8476 -0.5269 -0.0628
vn 0.8168 -0.5671 -0.1064
vn 0.9453 -0.3255 -0.0221
vn -0.8317 -0.3055 -0.4637
vn -0.5827 -0.6489 -0.4893
vn -0.8352 -0.3778 -0.3997
vn 0.3443 -0.9385 -0.0251
vn 0.3863 -0.8525 0.3522
vn 0.1693 -0.9785 0.1179
vn -0.0222 -0.9889 -0.1469
vn 0.1693 -0.9785 0.1179
vn 0.3841 -0.8866 0.2577
vn 0.3443 -0.9385 -0.0251
vn 0.6754 -0.7375 -0.0036
vn 0.5359 -0.8105 0.2363
vn 0.8400 -0.5412 0.0388
vn 0.9202 -0.3913 0.0106
vn 0.8367 -0.4189 0.3527
vn -0.1753 -0.1675 0.9702
vn -0.3521 -0.9346 -0.0497
vn -0.0186 -0.9975 0.0678
f 180//1 36//2 100//3
f 98//4 164//5 49//6
f 112//7 78//8 49//9
f 104//10 84//11 97//12
f 176//13 40//14 78//15
f 103//16 85//17 48//18
f 138//19 82//20 100//21
f 10//22 157//23 53//24
f 167//25 48//26 51//27
f 98//28 86//29 85//30
f 83//31 10//32 153//33
f 110//34 104//35 80//36
f 176//37 88//38 96//39
f 32//40 29//41 126//42
f 131//43 76//44 75//45
f 133//46 74//47 68//48
f 132//49 75//50 74//51
f 135//52 128//53 77//54
f 135//55 67//56 76//57
f 134//58 68//59 66//60
f 160//61 175//62 41//63
f 148//64 158//65 52//66
f 29//67 30//68 125//69
f 170//70 169//71 46//72
f 169//73 181//74 13//75
f 171//76 170//77 45//78
f 173//79 171//80 44//81
f 175//82 174//83 42//84
f 173//85 43//86 42//87
f 156//88 160//89 50//90
f 177//91 39//92 37//93
f 177//94 178//95 38//96
f 178//97 148//98 56//99
f 168//100 47//101 52//102
f 156//103 55//104 77//105
f 89//106 95//107 118//108
f 179//109 37//110 13//111
f 179//112 13//113 181//114
f 89//115 118//116 57//117
f 156//118 77//119 128//120
f 168//121 52//122 158//123
f 178//124 56//125 38//126
f 177//127 38//128 39//129
f 177//130 37//131 179//132
f 156//133 50//134 55//135
f 173//136 42//137 174//138
f 175//139 42//140 41//141
f 173//142 44//143 43//144
f 171//145 45//146 44//147
f 169//148 13//149 46//150
f 170//151 46//152 45//153
f 29//154 125//155 126//156
f 148//157 52//158 56//159
f 160//160 41//161 50//162
f 134//163 66//164 136//165
f 135//166 76//167 131//168
f 135//169 77//170 67//171
f 132//172 74//173 133//174
f 133//175 68//176 134//177
f 3//178 88//179 176//180
f 131//181 75//182 132//183
f 32//184 126//185 123//186
f 176//187 96//188 40//189
f 110//190 80//191 79//192
f 83//193 153//194 99//195
f 98//196 85//197 103//198
f 167//199 51//200 159//201
f 10//202 53//203 153//204
f 138//205 100//206 59//207
f 103//208 48//209 167//210
f 176//211 78//212 112//213
f 104//214 97//215 80//216
f 112//217 49//218 164//219
f 98//220 49//221 86//222
f 180//223 100//224 82//225
f 180//226 99//227 36//228
f 110//229 96//230 88//231
f 157//232 120//233 53//234
f 92//235 87//236 93//237
f 91//238 87//239 94//240
f 168//241 94//242 47//243
f 81//244 95//245 89//246
f 92//247 105//248 90//249
f 72//250 102//251 105//252
f 71//253 59//254 106//255
f 70//256 106//257 107//258
f 81//259 108//260 101//261
f 69//262 107//263 108//264
f 34//265 120//266 35//267
f 33//268 121//269 34//270
f 32//271 122//272 33//273
f 31//274 51//275 124//276
f 30//277 124//278 125//279
f 57//280 102//281 73//282
f 136//283 97//284 84//285
f 94//286 152//287 52//288
f 13//289 151//290 163//291
f 37//292 119//293 151//294
f 50//295 150//296 77//297
f 44//298 144//299 165//300
f 96//301 79//302 130//303
f 46//304 13//305 163//306
f 42//307 43//308 165//309
f 49//310 78//311 166//312
f 97//313 66//314 130//315
f 106//316 59//317 100//318
f 153//319 53//320 120//321
f 124//322 51//323 48//324
f 119//325 39//326 38//327
f 41//328 150//329 50//330
f 38//331 56//332 152//333
f 74//334 143//335 161//336
f 152//337 119//338 38//339
f 75//340 116//341 143//342
f 150//343 42//344 165//345
f 41//346 42//347 150//348
f 144//349 46//350 163//351
f 45//352 46//353 144//354
f 99//355 142//356 36//357
f 122//358 140//359 182//360
f 126//361 129//362 172//363
f 126//364 109//365 129//366
f 158//367 91//368 168//369
f 40//370 96//371 166//372
f 12//373 179//374 181//375
f 12//376 6//377 11//378
f 12//379 11//380 54//381
f 52//382 152//383 56//384
f 109//385 125//386 124//387
f 105//388 147//389 162//390
f 177//391 179//392 54//393
f 120//394 121//395 182//396
f 102//397 118//398 147//399
f 115//400 149//401 108//402
f 115//403 107//404 106//405
f 130//406 66//407 161//408
f 150//409 116//410 67//411
f 67//412 77//413 150//414
f 87//415 90//416 162//417
f 128//418 160//419 156//420
f 116//421 76//422 67//423
f 66//424 68//425 161//426
f 85//427 127//428 48//429
f 127//430 124//431 48//432
f 142//433 153//434 120//435
f 16//436 9//437 15//438
f 16//439 15//440 57//441
f 142//442 106//443 100//444
f 6//445 72//446 92//447
f 16//448 73//449 72//450
f 18//451 8//452 17//453
f 18//454 17//455 58//456
f 17//457 9//458 16//459
f 17//460 16//461 58//462
f 16//463 6//464 12//465
f 16//466 12//467 58//468
f 12//469 5//470 18//471
f 12//472 18//473 58//474
f 4//475 171//476 173//477
f 171//478 19//479 170//480
f 78//481 40//482 166//483
f 80//484 97//485 130//486
f 127//487 49//488 166//489
f 86//490 49//491 127//492
f 100//493 36//494 142//495
f 166//496 96//497 130//498
f 131//499 132//500 60//501
f 7//502 133//503 134//504
f 20//505 132//506 133//507
f 20//508 4//509 14//510
f 20//511 14//512 60//513
f 22//514 1//515 21//516
f 22//517 21//518 61//519
f 69//520 81//521 15//522
f 69//523 61//524 70//525
f 15//526 9//527 22//528
f 15//529 22//530 61//531
f 24//532 2//533 23//534
f 24//535 23//536 62//537
f 23//538 1//539 22//540
f 23//541 22//542 62//543
f 22//544 9//545 17//546
f 22//547 17//548 62//549
f 17//550 8//551 24//552
f 17//553 24//554 62//555
f 20//556 7//557 25//558
f 20//559 25//560 63//561
f 25//562 8//563 18//564
f 25//565 18//566 63//567
f 18//568 5//569 19//570
f 18//571 19//572 63//573
f 19//574 4//575 20//576
f 19//577 20//578 63//579
f 110//580 26//581 104//582
f 83//583 21//584 10//585
f 1//586 33//587 34//588
f 33//589 23//590 32//591
f 26//592 3//593 27//594
f 26//595 27//596 64//597
f 27//598 2//599 24//600
f 27//601 24//602 64//603
f 24//604 8//605 25//606
f 24//607 25//608 64//609
f 25//610 7//611 26//612
f 25//613 26//614 64//615
f 103//616 28//617 98//618
f 30//619 29//620 65//621
f 152//622 87//623 162//624
f 94//625 87//626 152//627
f 27//628 3//629 28//630
f 27//631 28//632 65//633
f 31//634 65//635 28//636
f 23//637 29//638 32//639
f 2//640 29//641 23//642
f 1//643 35//644 21//645
f 71//646 61//647 21//648
f 89//649 57//650 15//651
f 15//652 81//653 89//654
f 11//655 93//656 91//657
f 6//658 93//659 11//660
f 95//661 101//662 149//663
f 149//664 118//665 95//666
f 142//667 115//668 106//669
f 142//670 120//671 182//672
f 140//673 126//674 172//675
f 123//676 126//677 140//678
f 127//679 109//680 124//681
f 109//682 127//683 129//684
f 127//685 166//686 129//687
f 109//688 126//689 125//690
f 86//691 127//692 85//693
f 111//694 130//695 137//696
f 130//697 161//698 137//699
f 111//700 137//701 139//702
f 137//703 155//704 139//705
f 111//706 139//707 129//708
f 139//709 172//710 129//711
f 111//712 129//713 130//714
f 129//715 166//716 130//717
f 123//718 140//719 122//720
f 26//721 88//722 3//723
f 21//724 180//725 82//726
f 28//727 164//728 98//729
f 3//730 164//731 28//732
f 26//733 84//734 104//735
f 3//736 176//737 112//738
f 121//739 122//740 182//741
f 82//742 71//743 21//744
f 35//745 10//746 21//747
f 153//748 142//749 99//750
f 167//751 31//752 28//753
f 80//754 130//755 79//756
f 113//757 143//758 144//759
f 143//760 165//761 144//762
f 113//763 144//764 145//765
f 144//766 163//767 145//768
f 113//769 145//770 137//771
f 145//772 155//773 137//774
f 113//775 137//776 143//777
f 137//778 161//779 143//780
f 114//781 139//782 146//783
f 139//784 155//785 146//786
f 114//787 146//788 141//789
f 146//790 154//791 141//792
f 114//793 141//794 140//795
f 141//796 182//797 140//798
f 114//799 140//800 139//801
f 167//802 28//803 103//804
f 140//805 172//806 139//807
f 115//808 141//809 149//810
f 7//811 134//812 136//813
f 141//814 154//815 149//816
f 107//817 115//818 108//819
f 135//820 131//821 60//822
f 149//823 101//824 108//825
f 115//826 142//827 141//828
f 142//829 182//830 141//831
f 116//832 150//833 143//834
f 150//835 165//836 143//837
f 74//838 75//839 143//840
f 68//841 74//842 161//843
f 116//844 75//845 76//846
f 45//847 144//848 44//849
f 6//850 92//851 93//852
f 43//853 44//854 165//855
f 14//856 128//857 135//858
f 135//859 60//860 14//861
f 117//862 145//863 151//864
f 136//865 66//866 97//867
f 57//868 118//869 102//870
f 7//871 136//872 26//873
f 30//874 31//875 124//876
f 31//877 159//878 51//879
f 32//880 123//881 122//882
f 33//883 122//884 121//885
f 34//886 121//887 120//888
f 69//889 70//890 107//891
f 145//892 163//893 151//894
f 117//895 151//896 147//897
f 81//898 69//899 108//900
f 70//901 71//902 106//903
f 71//904 138//905 59//906
f 71//907 70//908 61//909
f 72//910 73//911 102//912
f 92//913 72//914 105//915
f 81//916 101//917 95//918
f 168//919 91//920 94//921
f 91//922 93//923 87//924
f 69//925 15//926 61//927
f 92//928 90//929 87//930
f 16//931 57//932 73//933
f 157//934 35//935 120//936
f 1//937 34//938 35//939
f 6//940 16//941 72//942
f 31//943 30//944 65//945
f 110//946 79//947 96//948
f 148//949 11//950 158//951
f 27//952 65//953 29//954
f 2//955 27//956 29//957
f 1//958 23//959 33//960
f 180//961 21//962 83//963
f 180//964 83//965 99//966
f 151//967 162//968 147//969
f 117//970 147//971 146//972
f 147//973 154//974 146//975
f 19//976 169//977 170//978
f 5//979 169//980 19//981
f 117//982 146//983 145//984
f 146//985 155//986 145//987
f 14//988 174//989 175//990
f 4//991 174//992 14//993
f 105//994 102//995 147//996
f 90//997 105//998 162//999
f 118//1000 149//1001 147//1002
f 20//1003 60//1004 132//1005
f 178//1006 54//1007 11//1008
f 149//1009 154//1010 147//1011
f 7//1012 20//1013 133//1014
f 11//1015 148//1016 178//1017
f 160//1018 14//1019 175//1020
f 55//1021 50//1022 77//1023
f 119//1024 37//1025 39//1026
f 119//1027 152//1028 151//1029
f 152//1030 162//1031 151//1032
f 13//1033 37//1034 151//1035
f 47//1036 94//1037 52//1038
f 178//1039 177//1040 54//1041
f 167//1042 159//1043 31//1044
f 35//1045 157//1046 10//1047
f 82//1048 138//1049 71//1050
f 26//1051 136//1052 84//1053
f 3//1054 112//1055 164//1056
f 4//1057 173//1058 174//1059
f 5//1060 181//1061 169//1062
f 26//1063 110//1064 88//1065
f 4//1066 19//1067 171//1068
f 128//1069 14//1070 160//1071
f 12//1072 54//1073 179//1074
f 5//1075 12//1076 181//1077
f 158//1078 11//1079 91//1080
f 271//1081 284//1082 285//1083
f 294//1084 252//1085 284//1086
f 293//1087 295//1088 249//1089
f 296//1090 248//1091 249//1092
f 297//1093 247//1094 248//1095
f 297//1096 298//1097 244//1098
f 294//1099 293//1100 260//1101
f 365//1102 219//1103 218//1104
f 359//1105 228//1106 227//1107
f 292//1108 265//1109 228//1110
f 361//1111 226//1112 219//1113
f 362//1114 223//1115 222//1116
f 338//1117 337//1118 243//1119
f 337//1120 339//1121 241//1122
f 360//1123 227//1124 241//1125
f 368//1126 195//1127 223//1128
f 269//1129 286//1130 299//1131
f 276//1132 277//1133 268//1134
f 261//1135 259//1136 299//1137
f 342//1138 341//1139 239//1140
f 341//1141 343//1142 237//1143
f 343//1144 344//1145 236//1146
f 338//1147 242//1148 233//1149
f 345//1150 233//1151 236//1152
f 277//1153 225//1154 314//1155
f 211//1156 323//1157 288//1158
f 342//1159 238//1160 232//1161
f 350//1162 232//1163 231//1164
f 352//1165 230//1166 324//1167
f 351//1168 231//1169 230//1170
f 351//1171 230//1172 352//1173
f 352//1174 324//1175 210//1176
f 350//1177 231//1178 351//1179
f 342//1180 232//1181 350//1182
f 211//1183 288//1184 263//1185
f 277//1186 314//1187 268//1188
f 345//1189 236//1190 344//1191
f 338//1192 233//1193 345//1194
f 343//1195 236//1196 237//1197
f 341//1198 237//1199 239//1200
f 342//1201 239//1202 238//1203
f 261//1204 299//1205 290//1206
f 276//1207 268//1208 279//1209
f 269//1210 299//1211 259//1212
f 368//1213 223//1214 362//1215
f 360//1216 241//1217 339//1218
f 337//1219 241//1220 243//1221
f 338//1222 243//1223 242//1224
f 362//1225 222//1226 363//1227
f 361//1228 219//1229 365//1230
f 292//1231 228//1232 359//1233
f 359//1234 227//1235 360//1236
f 365//1237 218//1238 366//1239
f 294//1240 260//1241 252//1242
f 297//1243 244//1244 247//1245
f 297//1246 248//1247 296//1248
f 296//1249 249//1250 295//1251
f 293//1252 249//1253 260//1254
f 294//1255 284//1256 271//1257
f 271//1258 285//1259 270//1260
f 270//1261 286//1262 269//1263
f 245//1264 244//1265 298//1266
f 361//1267 312//1268 226//1269
f 235//1270 312//1271 234//1272
f 212//1273 280//1274 322//1275
f 210//1276 316//1277 221//1278
f 274//1279 323//1280 211//1281
f 263//1282 309//1283 245//1284
f 250//1285 321//1286 307//1287
f 255//1288 304//1289 254//1290
f 291//1291 265//1292 292//1293
f 240//1294 283//1295 310//1296
f 272//1297 315//1298 283//1299
f 278//1300 266//1301 291//1302
f 229//1303 279//1304 313//1305
f 275//1306 313//1307 280//1308
f 240//1309 314//1310 225//1311
f 250//1312 315//1313 224//1314
f 214//1315 282//1316 273//1317
f 254//1318 321//1319 213//1320
f 255//1321 290//1322 303//1323
f 235//1324 322//1325 311//1326
f 209//1327 282//1328 325//1329
f 278//1330 325//1331 267//1332
f 274//1333 316//1334 281//1335
f 368//1336 194//1337 195//1338
f 369//1339 218//1340 194//1341
f 364//1342 320//1343 214//1344
f 363//1345 220//1346 364//1347
f 308//1348 348//1349 266//1350
f 194//1351 346//1352 357//1353
f 220//1354 333//1355 356//1356
f 325//1357 282//1358 347//1359
f 282//1360 320//1361 356//1362
f 230//1363 331//1364 316//1365
f 268//1366 326//1367 354//1368
f 241//1369 227//1370 228//1371
f 304//1372 317//1373 358//1374
f 219//1375 226//1376 312//1377
f 326//1378 283//1379 315//1380
f 244//1381 331//1382 370//1383
f 317//1384 290//1385 299//1386
f 288//1387 331//1388 244//1389
f 279//1390 268//1391 332//1392
f 223//1393 195//1394 357//1395
f 219//1396 346//1397 218//1398
f 322//1399 305//1400 346//1401
f 333//1402 223//1403 357//1404
f 222//1405 223//1406 333//1407
f 346//1408 219//1409 312//1410
f 340//1411 302//1412 232//1413
f 232//1414 238//1415 340//1416
f 348//1417 241//1418 228//1419
f 287//1420 317//1421 286//1422
f 287//1423 285//1424 284//1425
f 236//1426 233//1427 336//1428
f 336//1429 233//1430 355//1431
f 340//1432 237//1433 336//1434
f 243//1435 348//1436 355//1437
f 331//1438 281//1439 316//1440
f 348//1441 228//1442 265//1443
f 302//1444 331//1445 230//1446
f 188//1447 337//1448 338//1449
f 337//1450 192//1451 339//1452
f 291//1453 292//1454 192//1455
f 291//1456 246//1457 278//1458
f 192//1459 188//1460 193//1461
f 192//1462 193//1463 246//1464
f 237//1465 236//1466 336//1467
f 233//1468 242//1469 355//1470
f 260//1471 249//1472 329//1473
f 209//1474 278//1475 246//1476
f 302//1477 231//1478 232//1479
f 248//1480 247//1481 370//1482
f 329//1483 248//1484 370//1485
f 249//1486 248//1487 329//1488
f 311//1489 322//1490 346//1491
f 319//1492 260//1493 329//1494
f 317//1495 303//1496 290//1497
f 305//1498 280//1499 313//1500
f 284//1501 252//1502 319//1503
f 319//1504 287//1505 284//1506
f 186//1507 369//1508 368//1509
f 369//1510 196//1511 366//1512
f 279//1513 305//1514 313//1515
f 332//1516 268//1517 354//1518
f 341//1519 342//1520 197//1521
f 341//1522 197//1523 343//1524
f 197//1525 191//1526 198//1527
f 193//1528 188//1529 198//1530
f 193//1531 198//1532 251//1533
f 198//1534 191//1535 199//1536
f 198//1537 199//1538 251//1539
f 199//1540 190//1541 200//1542
f 199//1543 200//1544 251//1545
f 200//1546 187//1547 193//1548
f 200//1549 193//1550 251//1551
f 305//1552 279//1553 332//1554
f 323//1555 281//1556 331//1557
f 187//1558 364//1559 214//1560
f 364//1561 201//1562 363//1563
f 309//1564 288//1565 244//1566
f 307//1567 321//1568 358//1569
f 287//1570 318//1571 317//1572
f 318//1573 358//1574 317//1575
f 196//1576 186//1577 202//1578
f 196//1579 202//1580 253//1581
f 235//1582 234//1583 196//1584
f 212//1585 253//1586 275//1587
f 221//1588 352//1589 210//1590
f 352//1591 256//1592 351//1593
f 203//1594 183//1595 204//1596
f 203//1597 204//1598 256//1599
f 204//1600 191//1601 197//1602
f 204//1603 197//1604 256//1605
f 199//1606 191//1607 204//1608
f 199//1609 204//1610 257//1611
f 204//1612 183//1613 205//1614
f 204//1615 205//1616 257//1617
f 205//1618 184//1619 206//1620
f 205//1621 206//1622 257//1623
f 206//1624 190//1625 199//1626
f 206//1627 199//1628 257//1629
f 201//1630 187//1631 200//1632
f 201//1633 200//1634 258//1635
f 200//1636 190//1637 207//1638
f 200//1639 207//1640 258//1641
f 207//1642 189//1643 202//1644
f 207//1645 202//1646 258//1647
f 202//1648 186//1649 201//1650
f 202//1651 201//1652 258//1653
f 285//1654 287//1655 286//1656
f 317//1657 299//1658 286//1659
f 287//1660 319//1661 318//1662
f 319//1663 367//1664 318//1665
f 203//1666 211//1667 263//1668
f 185//1669 254//1670 213//1671
f 193//1672 209//1673 246//1674
f 185//1675 250//1676 224//1677
f 208//1678 240//1679 225//1680
f 347//1681 282//1682 356//1683
f 183//1684 298//1685 297//1686
f 310//1687 283//1688 326//1689
f 294//1690 215//1691 293//1692
f 215//1693 184//1694 205//1695
f 207//1696 190//1697 206//1698
f 207//1699 206//1700 262//1701
f 206//1702 184//1703 216//1704
f 206//1705 216//1706 262//1707
f 216//1708 185//1709 208//1710
f 216//1711 208//1712 262//1713
f 208//1714 189//1715 207//1716
f 208//1717 207//1718 262//1719
f 254//1720 217//1721 255//1722
f 358//1723 326//1724 315//1725
f 268//1726 314//1727 326//1728
f 208//1729 225//1730 277//1731
f 224//1732 208//1733 185//1734
f 208//1735 272//1736 240//1737
f 187//1738 273//1739 193//1740
f 216//1741 184//1742 215//1743
f 216//1744 215//1745 264//1746
f 269//1747 259//1748 217//1749
f 269//1750 264//1751 270//1752
f 217//1753 185//1754 216//1755
f 217//1756 216//1757 264//1758
f 185//1759 213//1760 250//1761
f 298//1762 263//1763 245//1764
f 203//1765 274//1766 211//1767
f 202//1768 276//1769 253//1770
f 189//1771 277//1772 202//1773
f 229//1774 253//1775 276//1776
f 303//1777 317//1778 304//1779
f 289//1780 327//1781 326//1782
f 327//1783 354//1784 326//1785
f 289//1786 326//1787 318//1788
f 326//1789 358//1790 318//1791
f 289//1792 318//1793 328//1794
f 318//1795 367//1796 328//1797
f 289//1798 328//1799 327//1800
f 328//1801 353//1802 327//1803
f 329//1804 367//1805 319//1806
f 260//1807 319//1808 252//1809
f 247//1810 244//1811 370//1812
f 314//1813 310//1814 326//1815
f 315//1816 307//1817 358//1818
f 308//1819 325//1820 347//1821
f 321//1822 304//1823 358//1824
f 288//1825 323//1826 331//1827
f 300//1828 333//1829 332//1830
f 271//1831 264//1832 215//1833
f 215//1834 294//1835 271//1836
f 333//1837 357//1838 332//1839
f 300//1840 332//1841 327//1842
f 229//1843 275//1844 253//1845
f 261//1846 255//1847 217//1848
f 205//1849 293//1850 215//1851
f 196//1852 212//1853 235//1854
f 332//1855 354//1856 327//1857
f 205//1858 296//1859 295//1860
f 183//1861 296//1862 205//1863
f 300//1864 327//1865 334//1866
f 327//1867 353//1868 334//1869
f 300//1870 334//1871 333//1872
f 334//1873 356//1874 333//1875
f 301//1876 335//1877 328//1878
f 335//1879 353//1880 328//1881
f 301//1882 328//1883 329//1884
f 183//1885 297//1886 296//1887
f 350//1888 351//1889 256//1890
f 205//1891 295//1892 293//1893
f 188//1894 338//1895 345//1896
f 198//1897 344//1898 343//1899
f 328//1900 367//1901 329//1902
f 301//1903 329//1904 330//1905
f 329//1906 370//1907 330//1908
f 301//1909 330//1910 335//1911
f 330//1912 349//1913 335//1914
f 302//1915 340//1916 330//1917
f 340//1918 349//1919 330//1920
f 302//1921 330//1922 331//1923
f 363//1924 222//1925 220//1926
f 364//1927 220//1928 320//1929
f 369//1930 366//1931 218//1932
f 330//1933 370//1934 331//1935
f 368//1936 369//1937 194//1938
f 231//1939 302//1940 230//1941
f 324//1942 230//1943 316//1944
f 280//1945 305//1946 322//1947
f 274//1948 221//1949 316//1950
f 278//1951 209//1952 325//1953
f 209//1954 273//1955 282//1956
f 346//1957 312//1958 311//1959
f 305//1960 332//1961 346//1962
f 332//1963 357//1964 346//1965
f 235//1966 212//1967 322//1968
f 222//1969 333//1970 220//1971
f 320//1972 220//1973 356//1974
f 306//1975 347//1976 334//1977
f 255//1978 261//1979 290//1980
f 254//1981 304//1982 321//1983
f 214//1984 320//1985 282//1986
f 250//1987 307//1988 315//1989
f 240//1990 310//1991 314//1992
f 275//1993 229//1994 313//1995
f 347//1996 356//1997 334//1998
f 306//1999 334//2000 335//2001
f 229//2002 276//2003 279//2004
f 278//2005 267//2006 266//2007
f 272//2008 224//2009 315//2010
f 240//2011 272//2012 283//2013
f 291//2014 266//2015 265//2016
f 255//2017 303//2018 304//2019
f 334//2020 353//2021 335//2022
f 306//2023 335//2024 336//2025
f 250//2026 213//2027 321//2028
f 263//2029 288//2030 309//2031
f 335//2032 349//2033 336//2034
f 274//2035 281//2036 323//2037
f 210//2038 324//2039 316//2040
f 212//2041 275//2042 280//2043
f 352//2044 203//2045 256//2046
f 292//2047 359//2048 192//2049
f 306//2050 336//2051 347//2052
f 221//2053 274//2054 203//2055
f 235//2056 311//2057 312//2058
f 361//2059 234//2060 312//2061
f 245//2062 309//2063 244//2064
f 270//2065 285//2066 286//2067
f 336//2068 355//2069 347//2070
f 188//2071 192//2072 337//2073
f 198//2074 343//2075 197//2076
f 188//2077 345//2078 198//2079
f 198//2080 345//2081 344//2082
f 271//2083 270//2084 264//2085
f 269//2086 217//2087 264//2088
f 336//2089 349//2090 340//2091
f 359//2092 339//2093 192//2094
f 237//2095 340//2096 239//2097
f 197//2098 342//2099 350//2100
f 350//2101 256//2102 197//2103
f 340//2104 238//2105 239//2106
f 218//2107 346//2108 194//2109
f 234//2110 365//2111 196//2112
f 201//2113 362//2114 363//2115
f 186//2116 362//2117 201//2118
f 195//2119 194//2120 357//2121
f 308//2122 267//2123 325//2124
f 196//2125 253//2126 212//2127
f 308//2128 347//2129 348//2130
f 347//2131 355//2132 348//2133
f 366//2134 196//2135 365//2136
f 267//2137 308//2138 266//2139
f 348//2140 265//2141 266//2142
f 241//2143 348//2144 243//2145
f 242//2146 243//2147 355//2148
f 186//2149 368//2150 362//2151
f 202//2152 277//2153 276//2154
f 298//2155 203//2156 263//2157
f 259//2158 261//2159 217//2160
f 183//2161 203//2162 298//2163
f 224//2164 272//2165 208//2166
f 234//2167 361//2168 365//2169
f 185//2170 217//2171 254//2172
f 359//2173 360//2174 339//2175
f 189//2176 208//2177 277//2178
f 221//2179 203//2180 352//2181
f 187//2182 214//2183 273//2184
f 193//2185 273//2186 209//2187
f 187//2188 201//2189 364//2190
f 186//2191 196//2192 369//2193
f 291//2194 192//2195 246//2196
