mtllib work_jacket_trim.mtl
usemtl work_jacket_trim
v -0.00028 -0.02923 0.00488
v 0.00559 -0.02690 0.28300
v 0.00733 -0.02928 0.25997
v 0.01157 0.00319 0.46771
v -0.00059 -0.01769 0.38190
v 0.01226 -0.02515 0.19290
v 0.01077 -0.02492 0.03792
v -0.00067 -0.00487 0.43419
v -0.00030 0.02741 0.52325
v 0.00456 0.02024 0.50985
v -0.00201 -0.01711 0.40190
v -0.00106 -0.02037 0.31185
v -0.00348 -0.01345 0.33226
v 0.00650 0.00326 0.46758
v -0.00620 0.00278 0.46518
v -0.00177 -0.01434 0.41732
v -0.00338 -0.01744 0.33256
v 0.00164 0.02252 0.52269
v -0.00076 -0.00868 0.43542
v 0.00483 0.02866 0.51720
v -0.00897 -0.02486 0.03285
v 0.01081 -0.02892 0.03793
v 0.01208 -0.02914 0.19295
v -0.01191 -0.02455 0.17008
v -0.00547 0.02855 0.51670
v -0.01179 -0.02382 0.20278
v 0.01163 0.01116 0.48789
v -0.00277 0.02258 0.52262
v -0.01131 -0.02279 0.23335
v 0.01208 -0.02925 0.14113
v 0.01198 -0.02913 0.08613
v 0.01208 -0.02921 0.11349
v 0.01207 -0.02923 0.16792
v -0.01223 -0.01800 0.30202
v -0.01230 -0.01654 0.31837
v -0.01139 -0.02135 0.26032
v -0.01141 -0.01972 0.28287
v 0.00683 -0.02868 0.00743
v -0.01083 -0.01317 0.37595
v -0.01259 -0.01540 0.33370
v 0.00926 -0.02879 0.01996
v 0.01164 -0.02903 0.06043
v -0.01231 -0.01450 0.34832
v -0.01138 -0.01375 0.36262
v -0.01055 -0.01244 0.38850
v -0.01012 -0.01144 0.39976
v 0.01212 -0.02893 0.21553
v 0.01216 -0.02853 0.23532
v -0.01019 -0.00987 0.41032
v -0.01158 0.00684 0.46460
v 0.01221 -0.02786 0.25240
v -0.00161 -0.01045 0.41641
v 0.01223 -0.02688 0.26734
v 0.01223 -0.02558 0.28098
v -0.01133 0.00274 0.45348
v 0.01219 -0.02407 0.29416
v 0.01193 -0.02108 0.32132
v 0.01209 -0.02251 0.30751
v -0.01031 -0.00766 0.42065
v -0.01070 -0.00473 0.43122
v -0.01095 -0.00120 0.44227
v 0.01128 -0.01828 0.36408
v 0.01173 -0.01990 0.33558
v -0.01161 0.01085 0.47508
v 0.01112 -0.01761 0.37741
v 0.01150 -0.01899 0.34999
v -0.00975 0.02435 0.50761
v 0.01113 -0.01154 0.42300
v 0.01123 -0.00852 0.43401
v 0.01134 -0.00493 0.44527
v 0.01102 -0.01678 0.38976
v 0.01101 -0.01560 0.40124
v 0.01105 -0.01389 0.41218
v -0.01082 0.02146 0.50107
v -0.00833 0.02683 0.51305
v -0.00697 -0.02870 0.01637
v -0.01078 -0.02500 0.05377
v -0.00380 -0.02860 0.00527
v -0.01158 -0.02511 0.07854
v -0.01190 -0.02512 0.10660
v -0.00612 0.00652 0.46378
v -0.00012 -0.02857 0.00000
v -0.01197 -0.02495 0.13746
v 0.00359 -0.02860 0.00072
v 0.01146 -0.00095 0.45661
v 0.00659 0.00699 0.46616
v -0.01161 0.01465 0.48470
v -0.01141 0.01820 0.49339
v 0.01055 0.02173 0.50252
v 0.01143 0.01847 0.49504
v 0.00785 0.02702 0.51391
v 0.01173 0.01099 0.47676
v 0.00956 0.02099 0.51053
v 0.01164 0.00727 0.47822
v 0.00932 0.02456 0.50873
v 0.01150 0.00280 0.45522
v 0.00335 -0.02462 0.00106
v -0.00092 -0.01641 0.31135
v 0.00756 0.02337 0.51552
v 0.01140 0.01478 0.49657
v 0.01078 0.01808 0.50415
v 0.00005 -0.02461 0.00054
v -0.00182 -0.01315 0.40143
v -0.00309 -0.02467 0.00556
v -0.00697 -0.02470 0.01641
v 0.01059 -0.00998 0.41145
v 0.01052 -0.01166 0.40073
v -0.01150 0.01450 0.49492
v 0.01076 -0.01279 0.38952
v -0.01168 0.01093 0.48619
v 0.01122 -0.00115 0.44397
v 0.01105 -0.00469 0.43288
v 0.01079 -0.00769 0.42197
v 0.01193 -0.01502 0.34991
v 0.01100 -0.01362 0.37718
v 0.01242 -0.01597 0.33531
v -0.01202 -0.02895 0.13747
v -0.01192 -0.02912 0.10660
v -0.01158 -0.02911 0.07853
v -0.01079 -0.02900 0.05376
v 0.00451 0.02384 0.50811
v -0.00809 0.02317 0.51463
v -0.00013 0.02928 0.52678
v -0.00049 -0.01369 0.38174
v -0.01098 0.01779 0.50267
v -0.00990 0.02073 0.50931
v 0.01118 -0.01429 0.36388
v 0.01259 -0.01856 0.30707
v 0.01253 -0.01714 0.32091
v 0.01205 -0.02014 0.29342
v 0.01134 -0.02170 0.28058
v 0.01106 -0.02307 0.26692
v -0.01168 0.00712 0.47652
v 0.01086 -0.02410 0.25224
v 0.01115 -0.02466 0.23524
v 0.01225 -0.02493 0.21555
v 0.01164 -0.02503 0.06045
v -0.01129 -0.00497 0.44355
v -0.01115 -0.00853 0.43239
v -0.01104 -0.01147 0.42161
v -0.01144 -0.00101 0.45489
v -0.01158 0.00310 0.46601
v 0.00899 -0.02480 0.02002
v 0.00687 -0.02468 0.00745
v -0.01098 -0.01372 0.41103
v -0.01098 -0.01532 0.40022
v -0.01103 -0.01640 0.38869
v 0.01217 -0.02523 0.16790
v -0.01131 -0.01775 0.36265
v -0.01149 -0.01841 0.34850
v -0.01168 -0.01929 0.33395
v -0.01114 -0.01715 0.37615
v 0.01210 -0.02521 0.11349
v 0.01199 -0.02513 0.08614
v -0.01201 -0.02365 0.28333
v -0.01203 -0.02529 0.26055
v -0.01184 -0.02048 0.31884
v -0.01195 -0.02198 0.30237
v 0.01213 -0.02525 0.14113
v 0.01170 0.01486 0.48638
v 0.01165 0.00693 0.46629
v -0.01203 -0.02672 0.23352
v -0.00219 0.02587 0.52042
v -0.01203 -0.02782 0.20283
v -0.00547 0.02493 0.51840
v -0.01204 -0.02854 0.17013
v -0.00931 -0.02885 0.03279
v -0.00009 -0.02524 0.00518
v 0.00476 0.02505 0.51893
v 0.00137 0.02592 0.52060
v 0.00706 -0.02530 0.25969
v 0.00555 -0.02293 0.28249
vn 0.0116 0.9375 -0.3478
vn -0.2246 0.9036 -0.3647
vn -0.1603 0.9481 -0.2748
vn 0.8143 -0.1794 -0.5520
vn 0.8143 -0.1794 -0.5520
vn 0.8143 -0.1794 -0.5520
vn 0.8556 0.4811 -0.1910
vn 0.3061 0.8920 -0.3325
vn 0.0242 0.9342 -0.3561
vn 0.0683 0.9973 -0.0274
vn 0.6781 0.7350 -0.0034
vn 0.1692 0.9856 0.0065
vn -0.1014 0.9249 -0.3664
vn 0.0242 0.9342 -0.3561
vn -0.2747 0.8982 -0.3433
vn 0.5783 -0.7760 0.2516
vn 0.5248 0.8139 -0.2493
vn 0.2900 0.9055 -0.3097
vn 0.9965 0.0801 -0.0248
vn 0.9965 0.0801 -0.0248
vn 0.9965 0.0801 -0.0248
vn 0.9991 -0.0433 -0.0003
vn 0.9991 -0.0433 -0.0003
vn 0.9991 -0.0433 -0.0003
vn 0.9977 0.0667 0.0151
vn 0.5474 0.8358 -0.0416
vn 0.9977 0.0667 0.0151
vn 0.8433 -0.4362 0.3139
vn 0.9925 0.0964 0.0746
vn 0.5557 0.7882 -0.2646
vn 0.9998 -0.0153 0.0094
vn 0.9998 -0.0153 0.0094
vn 0.9998 -0.0153 0.0094
vn 0.9999 -0.0121 -0.0001
vn 0.9999 -0.0121 -0.0001
vn 0.9999 -0.0121 -0.0001
vn -0.3188 -0.8859 0.3369
vn -0.0242 -0.9342 0.3560
vn -0.1439 -0.9192 0.3665
vn -0.0149 -0.8919 0.4519
vn 0.3722 -0.7813 0.5009
vn -0.0701 -0.9113 0.4056
vn 0.9999 -0.0010 -0.0135
vn 0.9999 -0.0010 -0.0135
vn 0.9999 -0.0010 -0.0135
vn 1.0000 -0.0060 -0.0035
vn 1.0000 -0.0060 -0.0035
vn 1.0000 -0.0060 -0.0035
vn 0.9997 -0.0246 0.0003
vn 0.9997 -0.0246 0.0003
vn 0.9997 -0.0246 0.0003
vn 0.9996 0.0036 0.0293
vn 0.9996 0.0036 0.0293
vn 0.9996 0.0036 0.0293
vn -0.0242 -0.9342 0.3560
vn -0.0252 -0.9355 0.3524
vn -0.0152 -0.9453 0.3260
vn 0.6022 -0.7480 0.2791
vn 0.1904 -0.9137 0.3591
vn -0.0242 -0.9342 0.3560
vn 0.6316 -0.7704 -0.0865
vn 0.9962 0.0102 -0.0861
vn 0.9962 0.0102 -0.0861
vn 0.0242 0.9342 -0.3561
vn 0.0253 0.9355 -0.3524
vn -0.2747 0.8982 -0.3433
vn 0.3660 -0.9160 0.1642
vn -0.0176 -0.9943 0.1053
vn 0.6130 -0.7834 0.1023
vn 0.2910 -0.8992 0.3268
vn -0.0152 -0.9453 0.3260
vn 0.5783 -0.7760 0.2516
vn -0.6927 -0.4765 0.5415
vn -0.8602 0.0237 0.5094
vn -0.8846 0.3188 0.3405
vn 0.3278 -0.9120 0.2464
vn -0.0261 -0.9707 0.2390
vn 0.3660 -0.9160 0.1642
vn 0.3238 -0.9442 0.0604
vn -0.0346 -0.9992 0.0215
vn 0.3520 -0.9342 0.0583
vn -0.7663 -0.1581 -0.6227
vn -0.7663 -0.1581 -0.6227
vn -0.7663 -0.1581 -0.6227
vn 0.0596 -0.9979 0.0249
vn -0.0321 -0.9983 0.0480
vn 0.0799 -0.9941 0.0735
vn 0.3520 -0.9342 0.0583
vn -0.0346 -0.9992 0.0215
vn 0.5779 -0.8143 0.0548
vn 0.8368 -0.1066 0.5371
vn 0.5697 -0.7912 0.2225
vn 0.9126 0.1547 0.3784
vn 0.0151 0.9450 -0.3266
vn 0.0251 0.9705 -0.2399
vn -0.2024 0.9343 -0.2934
vn 0.2975 -0.9488 0.1065
vn 0.0890 -0.9904 0.1059
vn -0.0592 -0.9876 0.1457
vn -0.0321 -0.9983 0.0480
vn 0.0890 -0.9904 0.1059
vn 0.0799 -0.9941 0.0735
vn 0.0162 0.9944 -0.1044
vn 0.0349 0.9992 -0.0210
vn -0.1982 0.9792 -0.0436
vn 0.7897 -0.6112 0.0535
vn 0.2985 -0.9407 0.1614
vn -0.1111 -0.9871 0.1154
vn -0.2406 0.9706 -0.0035
vn 0.0349 0.9992 -0.0210
vn 0.0296 0.9984 -0.0487
vn 0.8836 -0.4674 0.0260
vn 0.9669 -0.2547 0.0130
vn -0.0591 -0.9978 0.0287
vn 0.1177 -0.9930 -0.0038
vn 0.8836 -0.4674 0.0260
vn -0.0591 -0.9978 0.0287
vn -0.0945 0.9875 -0.1260
vn 0.0580 0.9878 -0.1447
vn 0.1178 0.9862 -0.1159
vn -0.0233 0.9982 -0.0558
vn 0.1178 0.9862 -0.1159
vn 0.0683 0.9973 -0.0274
vn 0.9992 0.0103 -0.0384
vn 0.9992 0.0103 -0.0384
vn 0.9992 0.0103 -0.0384
vn 0.8836 -0.4674 0.0260
vn 0.9994 -0.0334 -0.0016
vn 0.9994 -0.0334 -0.0016
vn 0.9669 -0.2547 0.0130
vn 0.8836 -0.4674 0.0260
vn 0.6781 0.7350 -0.0034
vn 0.7141 -0.6966 0.0691
vn 0.2836 0.9539 -0.0986
vn 0.5165 0.8500 -0.1036
vn 0.0683 0.9973 -0.0274
vn 0.3936 0.9182 -0.0449
vn 0.6781 0.7350 -0.0034
vn -0.0242 -0.9342 0.3560
vn 0.2910 -0.8992 0.3268
vn 0.6022 -0.7480 0.2791
vn 0.9962 0.0750 -0.0438
vn 0.9962 0.0750 -0.0438
vn 0.5248 0.8139 -0.2493
vn 0.2338 0.9722 -0.0128
vn -0.0529 0.9986 -0.0089
vn 0.1692 0.9856 0.0065
vn -0.8623 -0.1591 0.4807
vn -0.0009 -0.9054 0.4245
vn -0.8107 -0.2689 0.5201
vn 0.5783 -0.7760 0.2516
vn 0.2900 0.9055 -0.3097
vn 0.3061 0.8920 -0.3325
vn 0.1178 0.9862 -0.1159
vn 0.2707 0.9471 -0.1726
vn 0.5165 0.8500 -0.1036
vn -0.1845 -0.8679 0.4612
vn -0.5078 -0.7680 0.3902
vn -0.0154 -0.9104 0.4135
vn -0.4946 0.8478 -0.1916
vn 0.0010 1.0000 0.0073
vn -0.4574 0.5491 -0.6995
vn 0.0580 0.9878 -0.1447
vn -0.4406 0.8917 -0.1034
vn 0.0296 0.9984 -0.0487
vn 0.3808 0.8963 -0.2272
vn 0.0116 0.9375 -0.3478
vn -0.0046 0.9997 -0.0258
vn -0.0969 0.9229 -0.3728
vn -0.2246 0.9036 -0.3647
vn 0.0116 0.9375 -0.3478
vn 0.1813 0.9142 -0.3624
vn 0.1878 0.9103 -0.3690
vn -0.0969 0.9229 -0.3728
vn 0.6130 -0.7834 0.1023
vn 0.9978 0.0655 -0.0052
vn 0.9978 0.0655 -0.0052
vn -0.4204 -0.8688 0.2618
vn -0.6802 -0.7147 0.1627
vn -0.0261 -0.9707 0.2390
vn -0.4204 -0.8688 0.2618
vn -0.0152 -0.9453 0.3260
vn -0.5681 -0.7837 0.2512
vn -0.3572 -0.8779 0.3188
vn -0.0252 -0.9355 0.3524
vn -0.5977 -0.7527 0.2762
vn 0.6130 -0.7834 0.1023
vn 0.1845 0.9750 -0.1235
vn 0.9926 0.1189 -0.0249
vn 0.9997 -0.0224 0.0015
vn 0.6022 -0.7480 0.2791
vn 0.8556 0.4811 -0.1910
vn 0.9669 -0.2547 0.0130
vn 0.3936 0.9182 -0.0449
vn 0.2836 0.9539 -0.0986
vn 0.2910 -0.8992 0.3268
vn 0.9999 -0.0149 -0.0081
vn 0.8556 0.4811 -0.1910
vn 0.0251 0.9705 -0.2399
vn 0.0162 0.9944 -0.1044
vn -0.1780 0.9680 -0.1767
vn -0.1780 0.9680 -0.1767
vn -0.3969 0.8901 -0.2238
vn 0.0251 0.9705 -0.2399
vn -0.4328 -0.9002 0.0485
vn -0.0176 -0.9943 0.1053
vn -0.7928 -0.6044 0.0786
vn -0.3913 -0.9186 0.0557
vn -0.2075 -0.9757 0.0706
vn -0.0321 -0.9983 0.0480
vn -0.0321 -0.9983 0.0480
vn -0.1907 -0.9815 0.0190
vn -0.3913 -0.9186 0.0557
vn -0.5574 -0.8285 0.0537
vn -0.0346 -0.9992 0.0215
vn -0.4328 -0.9002 0.0485
vn -0.1907 -0.9815 0.0190
vn -0.0346 -0.9992 0.0215
vn -0.5574 -0.8285 0.0537
vn -0.1198 0.9928 -0.0046
vn 0.1752 0.9845 -0.0062
vn 0.2545 0.9671 0.0002
vn -0.1111 -0.9871 0.1154
vn -0.3357 -0.9348 0.1162
vn -0.5541 -0.8309 0.0511
vn -0.2178 -0.9700 0.1076
vn -0.4075 -0.9095 0.0817
vn -0.0592 -0.9876 0.1457
vn -0.4075 -0.9095 0.0817
vn -0.3357 -0.9348 0.1162
vn -0.0592 -0.9876 0.1457
vn 0.9936 -0.1053 0.0408
vn 0.5828 0.8112 -0.0486
vn 0.9936 -0.1053 0.0408
vn -0.3963 -0.9166 0.0533
vn -0.1111 -0.9871 0.1154
vn -0.5541 -0.8309 0.0511
vn 0.1643 0.9864 -0.0011
vn 0.1629 0.9866 0.0005
vn -0.1685 0.9857 -0.0019
vn 0.5779 -0.8143 0.0548
vn 0.5474 0.8358 -0.0416
vn 0.3520 -0.9342 0.0583
vn -0.1937 -0.9810 0.0097
vn -0.0591 -0.9978 0.0287
vn -0.3963 -0.9166 0.0533
vn -0.8221 0.5297 -0.2087
vn -0.2747 0.8982 -0.3433
vn 0.0253 0.9355 -0.3524
vn 0.8433 -0.4362 0.3139
vn 0.5557 0.7882 -0.2646
vn 0.3808 0.8963 -0.2272
vn -0.7143 -0.6954 -0.0788
vn -0.0028 -1.0000 -0.0082
vn -0.1354 -0.9908 -0.0064
vn 0.7897 -0.6112 0.0535
vn 0.5165 0.8500 -0.1036
vn 0.2707 0.9471 -0.1726
vn 0.0253 0.9355 -0.3524
vn 0.0151 0.9450 -0.3266
vn -0.2946 0.8941 -0.3374
vn 0.8531 -0.1012 0.5118
vn 0.3722 -0.7813 0.5009
vn 0.3808 0.8963 -0.2272
vn -0.6280 -0.7275 -0.2765
vn -0.4946 0.8478 -0.1916
vn -0.4574 0.5491 -0.6995
vn -0.1603 0.9481 -0.2748
vn 0.5673 0.6827 -0.4606
vn -0.0046 0.9997 -0.0258
vn -0.0028 -1.0000 -0.0082
vn 0.1729 -0.9849 -0.0075
vn -0.1354 -0.9908 -0.0064
vn -0.9778 -0.0504 -0.2033
vn -0.9135 0.3576 -0.1942
vn -0.4946 0.8478 -0.1916
vn 0.9519 -0.1175 -0.2828
vn 0.2880 -0.9029 -0.3191
vn 0.2888 0.9305 -0.2253
vn 0.0162 0.9944 -0.1044
vn 0.0251 0.9705 -0.2399
vn 0.1605 0.9706 -0.1795
vn 0.0151 0.9450 -0.3266
vn -0.4295 0.8534 -0.2954
vn -0.2946 0.8941 -0.3374
vn 0.1912 0.1253 -0.9735
vn -0.4167 -0.6057 -0.6779
vn -0.4574 0.5491 -0.6995
vn 0.9519 -0.1175 -0.2828
vn 0.8968 0.3556 -0.2632
vn 0.4967 0.8657 -0.0622
vn 0.0116 0.9375 -0.3478
vn -0.1603 0.9481 -0.2748
vn -0.0046 0.9997 -0.0258
vn 0.9987 0.0269 -0.0425
vn 0.2707 0.9471 -0.1726
vn 0.4997 0.8605 -0.0994
vn 0.9890 -0.1465 0.0189
vn 0.9890 -0.1465 0.0189
vn 0.5828 0.8112 -0.0486
vn 0.0162 0.9944 -0.1044
vn -0.2161 0.9701 -0.1107
vn -0.1780 0.9680 -0.1767
vn -0.0220 -0.5213 0.8531
vn -0.6927 -0.4765 0.5415
vn 0.5697 -0.7912 0.2225
vn 0.9991 -0.0433 -0.0011
vn 0.9991 -0.0433 -0.0011
vn 0.9991 -0.0433 -0.0011
vn -0.5541 -0.8309 0.0511
vn -0.9869 0.1608 -0.0115
vn -0.9869 0.1608 -0.0115
vn -0.5078 -0.7680 0.3902
vn -0.9966 0.0652 0.0497
vn -0.9966 0.0652 0.0497
vn -0.4406 0.8917 -0.1034
vn -0.7926 0.6085 -0.0380
vn 0.0296 0.9984 -0.0487
vn -0.9995 0.0283 0.0107
vn -0.9995 0.0283 0.0107
vn -0.9995 0.0283 0.0107
vn -0.9998 0.0176 -0.0069
vn -0.9998 0.0176 -0.0069
vn -0.9998 0.0176 -0.0069
vn 0.0151 0.9450 -0.3266
vn 0.0242 0.9342 -0.3561
vn 0.3061 0.8920 -0.3325
vn -0.0154 -0.9104 0.4135
vn 0.1661 -0.9094 0.3813
vn 0.8433 -0.4362 0.3139
vn 0.1675 0.9859 -0.0005
vn -0.2251 0.9743 -0.0022
vn 0.1629 0.9866 0.0005
vn -0.9999 0.0137 -0.0021
vn -0.9999 0.0137 -0.0021
vn -0.9999 0.0137 -0.0021
vn -0.9999 0.0034 -0.0116
vn -0.9999 0.0034 -0.0116
vn -0.9999 0.0034 -0.0116
vn 0.5779 -0.8143 0.0548
vn 0.9982 0.0290 0.0520
vn 0.3129 0.9490 -0.0381
vn -0.9995 0.0004 -0.0318
vn -0.9995 0.0004 -0.0318
vn -0.9995 0.0004 -0.0318
vn -0.8623 -0.1591 0.4807
vn -0.8846 0.3188 0.3405
vn -0.9708 0.0401 0.2364
vn 0.1264 -0.9920 0.0058
vn -0.2103 -0.9775 0.0133
vn -0.1461 -0.9893 0.0043
vn 0.2975 -0.9488 0.1065
vn 0.4997 0.8605 -0.0994
vn 0.9922 -0.1232 0.0170
vn -0.5078 -0.7680 0.3902
vn -0.9884 0.0965 0.1172
vn -0.9884 0.0965 0.1172
vn -0.5681 -0.7837 0.2512
vn -0.3572 -0.8779 0.3188
vn -0.2946 0.8941 -0.3374
vn -0.6802 -0.7147 0.1627
vn -0.4204 -0.8688 0.2618
vn -0.2024 0.9343 -0.2934
vn -0.1354 -0.9908 -0.0064
vn 0.1751 -0.9845 -0.0080
vn -0.1151 -0.9933 -0.0051
vn 0.2545 0.9671 0.0002
vn 0.1643 0.9864 -0.0011
vn -0.1198 0.9928 -0.0046
vn -0.4204 -0.8688 0.2618
vn -0.5681 -0.7837 0.2512
vn -0.4295 0.8534 -0.2954
vn -0.3572 -0.8779 0.3188
vn -0.5977 -0.7527 0.2762
vn -0.8221 0.5297 -0.2087
vn -0.3188 -0.8859 0.3369
vn -0.9998 0.0153 -0.0087
vn -0.8221 0.5297 -0.2087
vn -0.5282 -0.8360 0.1488
vn -0.6802 -0.7147 0.1627
vn -0.3969 0.8901 -0.2238
vn -0.7928 -0.6044 0.0786
vn -0.5282 -0.8360 0.1488
vn -0.1780 0.9680 -0.1767
vn 0.7141 -0.6966 0.0691
vn -0.1111 -0.9871 0.1154
vn -0.0591 -0.9978 0.0287
vn -0.0591 -0.9978 0.0287
vn 0.9669 -0.2547 0.0130
vn 0.7141 -0.6966 0.0691
vn -0.7928 -0.6044 0.0786
vn -0.2161 0.9701 -0.1107
vn -0.1982 0.9792 -0.0436
vn -0.3913 -0.9186 0.0557
vn -0.6709 0.7413 -0.0190
vn -0.7926 0.6085 -0.0380
vn 0.0296 0.9984 -0.0487
vn 0.0349 0.9992 -0.0210
vn 0.2490 0.9684 -0.0147
vn 0.2985 -0.9407 0.1614
vn -0.0592 -0.9876 0.1457
vn -0.1111 -0.9871 0.1154
vn -0.9977 -0.0178 0.0660
vn -0.9977 -0.0178 0.0660
vn -0.6709 0.7413 -0.0190
vn -0.4328 -0.9002 0.0485
vn -0.1982 0.9792 -0.0436
vn -0.4295 0.9023 -0.0359
vn -0.5574 -0.8285 0.0537
vn -0.4295 0.9023 -0.0359
vn -0.2406 0.9706 -0.0035
vn -0.5541 -0.8309 0.0511
vn -0.9887 0.1497 -0.0098
vn -0.9887 0.1497 -0.0098
vn -0.0346 -0.9992 0.0215
vn 0.0596 -0.9979 0.0249
vn 0.5779 -0.8143 0.0548
vn -0.2178 -0.9700 0.1076
vn -0.2075 -0.9757 0.0706
vn -0.7926 0.6085 -0.0380
vn -0.4075 -0.9095 0.0817
vn -0.2178 -0.9700 0.1076
vn -0.4406 0.8917 -0.1034
vn -0.3357 -0.9348 0.1162
vn -0.4075 -0.9095 0.0817
vn -0.5100 0.8560 -0.0851
vn 0.2295 -0.3611 -0.9038
vn 0.0819 0.0482 -0.9955
vn 0.0479 -0.5223 -0.8514
vn -0.9982 0.0599 0.0021
vn -0.9982 0.0599 0.0021
vn -0.9982 0.0599 0.0021
vn -0.9833 0.1819 0.0095
vn -0.9833 0.1819 0.0095
vn -0.9833 0.1819 0.0095
vn -0.0152 -0.9453 0.3260
vn 0.3590 -0.8956 0.2625
vn 0.5783 -0.7760 0.2516
vn -0.0152 -0.9453 0.3260
vn 0.3278 -0.9120 0.2464
vn 0.3590 -0.8956 0.2625
vn 0.5505 -0.5284 -0.6463
vn 0.2295 -0.3611 -0.9038
vn 0.5505 -0.5284 -0.6463
vn -0.9995 0.0324 0.0014
vn -0.9995 0.0324 0.0014
vn -0.9995 0.0324 0.0014
vn -0.7143 -0.6954 -0.0788
vn -0.9975 0.0019 -0.0706
vn -0.9975 0.0019 -0.0706
vn -0.8623 -0.1591 0.4807
vn -0.8107 -0.2689 0.5201
vn -0.7641 0.3601 0.5352
vn 0.4839 0.3706 0.7928
vn 0.6555 0.0999 0.7486
vn 0.4839 0.3706 0.7928
vn 0.8531 -0.1012 0.5118
vn 0.9126 0.1547 0.3784
vn 0.7707 0.2057 0.6031
vn -0.9778 -0.0504 -0.2033
vn -0.7143 -0.6954 -0.0788
vn -0.5661 0.8225 -0.0550
vn 0.5779 -0.8143 0.0548
vn 0.9942 -0.1058 0.0207
vn 0.9942 -0.1058 0.0207
vn 0.5779 -0.8143 0.0548
vn 0.3129 0.9490 -0.0381
vn 0.5474 0.8358 -0.0416
vn 0.9848 -0.1719 0.0265
vn 0.9848 -0.1719 0.0265
vn 0.5828 0.8112 -0.0486
vn 0.6316 -0.7704 -0.0865
vn 0.4967 0.8657 -0.0622
vn 0.9928 0.0685 -0.0984
vn 0.9995 -0.0072 0.0292
vn 0.9995 -0.0072 0.0292
vn 0.9995 -0.0072 0.0292
vn 0.9999 -0.0121 -0.0016
vn 0.9999 -0.0121 -0.0016
vn 0.9999 -0.0121 -0.0016
vn 1.0000 -0.0010 -0.0042
vn 1.0000 -0.0010 -0.0042
vn 1.0000 -0.0010 -0.0042
vn 0.9999 0.0002 -0.0136
vn 0.9999 0.0002 -0.0136
vn 0.9999 0.0002 -0.0136
vn 1.0000 -0.0060 -0.0010
vn 1.0000 -0.0060 -0.0010
vn 1.0000 -0.0060 -0.0010
vn 0.9998 -0.0187 0.0095
vn 0.9998 -0.0187 0.0095
vn 0.9998 -0.0187 0.0095
vn 0.8433 -0.4362 0.3139
vn 0.9972 0.0211 0.0717
vn 0.9972 0.0211 0.0717
vn 0.9996 0.0291 0.0056
vn 0.3520 -0.9342 0.0583
vn 0.5474 0.8358 -0.0416
vn 0.3238 -0.9442 0.0604
vn -0.0176 -0.9943 0.1053
vn -0.0346 -0.9992 0.0215
vn 0.9997 -0.0246 -0.0034
vn 0.9997 -0.0246 -0.0034
vn 0.9997 -0.0246 -0.0034
vn 0.9932 0.1086 -0.0429
vn 0.9932 0.1086 -0.0429
vn 0.9932 0.1086 -0.0429
vn 0.5783 -0.7760 0.2516
vn 0.3590 -0.8956 0.2625
vn 0.5248 0.8139 -0.2493
vn -0.9778 -0.0504 -0.2033
vn -0.5661 0.8225 -0.0550
vn -0.9135 0.3576 -0.1942
vn 0.8531 -0.1012 0.5118
vn 0.8055 0.2436 0.5402
vn 0.6555 0.0999 0.7486
vn 0.0819 0.0482 -0.9955
vn -0.3612 -0.5100 -0.7806
vn -0.3612 -0.5100 -0.7806
vn -0.8623 -0.1591 0.4807
vn -0.7641 0.3601 0.5352
vn -0.8846 0.3188 0.3405
vn -0.7143 -0.6954 -0.0788
vn -0.9926 0.0859 -0.0856
vn -0.5661 0.8225 -0.0550
vn -0.9999 0.0137 -0.0006
vn -0.9999 0.0137 -0.0006
vn -0.9999 0.0137 -0.0006
vn -0.8107 -0.2689 0.5201
vn -0.6927 -0.4765 0.5415
vn -0.7641 0.3601 0.5352
vn -0.3963 -0.9166 0.0533
vn -0.9982 0.0598 -0.0022
vn -0.9982 0.0598 -0.0022
vn -0.9995 0.0324 -0.0006
vn -0.9995 0.0324 -0.0006
vn -0.9995 0.0324 -0.0006
vn 0.2295 -0.3611 -0.9038
vn 0.0064 -0.5560 -0.8312
vn 0.0064 -0.5560 -0.8312
vn -0.9880 0.1443 -0.0552
vn -0.5100 0.8560 -0.0851
vn -0.9880 0.1443 -0.0552
vn -0.4075 -0.9095 0.0817
vn -0.4406 0.8917 -0.1034
vn -0.5100 0.8560 -0.0851
vn -0.2178 -0.9700 0.1076
vn -0.7926 0.6085 -0.0380
vn -0.4406 0.8917 -0.1034
vn -0.5541 -0.8309 0.0511
vn -0.9869 0.1607 -0.0126
vn -0.9869 0.1607 -0.0126
vn -0.5574 -0.8285 0.0537
vn -0.9998 -0.0181 0.0127
vn -0.9998 -0.0181 0.0127
vn -0.4328 -0.9002 0.0485
vn -0.4295 0.9023 -0.0359
vn -0.5574 -0.8285 0.0537
vn -0.1907 -0.9815 0.0190
vn -0.6709 0.7413 -0.0190
vn -0.3913 -0.9186 0.0557
vn -0.3913 -0.9186 0.0557
vn -0.7926 0.6085 -0.0380
vn -0.2075 -0.9757 0.0706
vn -0.7928 -0.6044 0.0786
vn -0.1982 0.9792 -0.0436
vn -0.4328 -0.9002 0.0485
vn -0.7928 -0.6044 0.0786
vn -0.1780 0.9680 -0.1767
vn -0.2161 0.9701 -0.1107
vn -0.5282 -0.8360 0.1488
vn -0.3969 0.8901 -0.2238
vn -0.1780 0.9680 -0.1767
vn -0.3188 -0.8859 0.3369
vn -0.8221 0.5297 -0.2087
vn -0.5977 -0.7527 0.2762
vn -0.3572 -0.8779 0.3188
vn -0.8221 0.5297 -0.2087
vn -0.2946 0.8941 -0.3374
vn -0.4204 -0.8688 0.2618
vn -0.4295 0.8534 -0.2954
vn -0.2024 0.9343 -0.2934
vn -0.6802 -0.7147 0.1627
vn -0.2024 0.9343 -0.2934
vn -0.3969 0.8901 -0.2238
vn -0.5681 -0.7837 0.2512
vn -0.2946 0.8941 -0.3374
vn -0.4295 0.8534 -0.2954
vn -0.5078 -0.7680 0.3902
vn -0.9883 0.0950 0.1192
vn -0.9883 0.0950 0.1192
vn 0.2975 -0.9488 0.1065
vn 0.9890 -0.1457 0.0261
vn 0.9890 -0.1457 0.0261
vn 0.5828 0.8112 -0.0486
vn 0.3643 0.9264 -0.0953
vn 0.0296 0.9984 -0.0487
vn -0.8623 -0.1591 0.4807
vn -0.9545 0.1588 0.2525
vn -0.9545 0.1588 0.2525
vn -0.9995 0.0018 -0.0320
vn -0.9995 0.0018 -0.0320
vn -0.9995 0.0018 -0.0320
vn -0.0154 -0.9104 0.4135
vn 0.8433 -0.4362 0.3139
vn 0.3722 -0.7813 0.5009
vn 0.1878 0.9103 -0.3690
vn 0.2265 0.9062 -0.3572
vn -0.1014 0.9249 -0.3664
vn -0.9999 0.0003 -0.0120
vn -0.9999 0.0003 -0.0120
vn -0.9999 0.0003 -0.0120
vn -1.0000 0.0034 -0.0034
vn -1.0000 0.0034 -0.0034
vn -1.0000 0.0034 -0.0034
vn -0.9998 0.0160 -0.0069
vn -0.9998 0.0160 -0.0069
vn -0.3188 -0.8859 0.3369
vn -0.9996 0.0247 0.0106
vn -0.9996 0.0247 0.0106
vn -0.9996 0.0247 0.0106
vn -0.5078 -0.7680 0.3902
vn -0.9978 0.0440 0.0488
vn -0.9978 0.0440 0.0488
vn -0.5541 -0.8309 0.0511
vn -0.9834 0.1811 -0.0095
vn -0.9834 0.1811 -0.0095
vn 0.9994 -0.0334 0.0006
vn 0.9994 -0.0334 0.0006
vn 0.9994 -0.0334 0.0006
vn 0.9847 -0.1718 0.0283
vn 0.5828 0.8112 -0.0486
vn 0.9847 -0.1718 0.0283
vn 0.2985 -0.9407 0.1614
vn 0.4997 0.8605 -0.0994
vn 0.2975 -0.9488 0.1065
vn 0.9519 -0.1175 -0.2828
vn 0.4967 0.8657 -0.0622
vn 0.6316 -0.7704 -0.0865
vn 0.1533 0.0912 -0.9840
vn -0.4574 0.5491 -0.6995
vn 0.2888 0.9305 -0.2253
vn 0.9519 -0.1175 -0.2828
vn 0.2888 0.9305 -0.2253
vn 0.8968 0.3556 -0.2632
vn -0.9778 -0.0504 -0.2033
vn -0.4946 0.8478 -0.1916
vn -0.6280 -0.7275 -0.2765
vn -0.6280 -0.7275 -0.2765
vn -0.4574 0.5491 -0.6995
vn -0.4167 -0.6057 -0.6779
vn 0.8531 -0.1012 0.5118
vn 0.3808 0.8963 -0.2272
vn 0.9126 0.1547 0.3784
vn 0.7897 -0.6112 0.0535
vn 0.2707 0.9471 -0.1726
vn 0.9994 0.0349 -0.0006
vn 0.8433 -0.4362 0.3139
vn 0.3808 0.8963 -0.2272
vn 0.3722 -0.7813 0.5009
vn 0.2910 -0.8992 0.3268
vn 0.8556 0.4811 -0.1910
vn 0.6022 -0.7480 0.2791
vn 0.9669 -0.2547 0.0130
vn 0.2836 0.9539 -0.0986
vn 0.7141 -0.6966 0.0691
vn 0.9998 -0.0218 0.0015
vn 0.8556 0.4811 -0.1910
vn 0.9998 -0.0218 0.0015
vn 0.6130 -0.7834 0.1023
vn 0.9934 0.1126 -0.0214
vn 0.9934 0.1126 -0.0214
vn 0.6130 -0.7834 0.1023
vn 0.1958 0.9790 -0.0567
vn 0.1845 0.9750 -0.1235
vn 0.5783 -0.7760 0.2516
vn 0.9999 -0.0139 -0.0054
vn 0.2910 -0.8992 0.3268
vn 0.9989 0.0414 -0.0205
vn 0.5248 0.8139 -0.2493
vn 0.3590 -0.8956 0.2625
vn 0.7141 -0.6966 0.0691
vn 0.5165 0.8500 -0.1036
vn 0.7897 -0.6112 0.0535
vn 0.0580 0.9878 -0.1447
vn 0.3643 0.9264 -0.0953
vn 0.4997 0.8605 -0.0994
vn 0.3643 0.9264 -0.0953
vn 0.0580 0.9878 -0.1447
vn 0.0296 0.9984 -0.0487
vn 0.1177 -0.9930 -0.0038
vn -0.0591 -0.9978 0.0287
vn -0.1937 -0.9810 0.0097
vn -0.1394 -0.9144 0.3801
vn -0.1439 -0.9192 0.3665
vn 0.1576 -0.9134 0.3754
vn 0.8968 0.3556 -0.2632
vn 0.2888 0.9305 -0.2253
vn 0.4967 0.8657 -0.0622
vn -0.1696 -0.9855 -0.0005
vn -0.1151 -0.9933 -0.0051
vn 0.1637 -0.9865 -0.0033
vn -0.1461 -0.9893 0.0043
vn -0.1696 -0.9855 -0.0005
vn 0.1515 -0.9885 0.0004
vn 0.2338 0.9722 -0.0128
vn -0.1432 0.9896 -0.0131
vn -0.0529 0.9986 -0.0089
vn 0.1405 0.9900 -0.0120
vn 0.4967 0.8657 -0.0622
vn 0.0010 1.0000 0.0073
vn -0.1439 -0.9192 0.3665
vn -0.0242 -0.9342 0.3560
vn 0.1904 -0.9137 0.3591
vn 0.1813 0.9142 -0.3624
vn -0.0969 0.9229 -0.3728
vn 0.0116 0.9375 -0.3478
vn 0.6316 -0.7704 -0.0865
vn -0.0028 -1.0000 -0.0082
vn 0.2880 -0.9029 -0.3191
vn 0.3129 0.9490 -0.0381
vn 0.0349 0.9992 -0.0210
vn 0.5474 0.8358 -0.0416
vn 0.9669 -0.2547 0.0130
vn 0.6781 0.7350 -0.0034
vn 0.3936 0.9182 -0.0449
vn -0.6280 -0.7275 -0.2765
vn -0.0028 -1.0000 -0.0082
vn -0.7143 -0.6954 -0.0788
vn -0.6280 -0.7275 -0.2765
vn -0.7143 -0.6954 -0.0788
vn 0.0007 -1.0000 -0.0089
vn 0.5828 0.8112 -0.0486
vn 0.0296 0.9984 -0.0487
vn 0.2490 0.9684 -0.0147
vn 0.3238 -0.9442 0.0604
vn 0.6130 -0.7834 0.1023
vn -0.0176 -0.9943 0.1053
vn -0.0152 -0.9453 0.3260
vn -0.0261 -0.9707 0.2390
vn 0.3278 -0.9120 0.2464
vn 0.2985 -0.9407 0.1614
vn 0.2975 -0.9488 0.1065
vn -0.0592 -0.9876 0.1457
vn -0.1432 0.9896 -0.0131
vn 0.2338 0.9722 -0.0128
vn 0.1752 0.9845 -0.0062
vn -0.0028 -1.0000 -0.0082
vn -0.4167 -0.6057 -0.6779
vn 0.2880 -0.9029 -0.3191
vn 0.7141 -0.6966 0.0691
vn 0.7897 -0.6112 0.0535
vn -0.1111 -0.9871 0.1154
vn 0.8836 -0.4674 0.0260
vn 0.1692 0.9856 0.0065
vn 0.6781 0.7350 -0.0034
vn -0.1354 -0.9908 -0.0064
vn 0.1729 -0.9849 -0.0075
vn 0.1751 -0.9845 -0.0080
vn 0.1264 -0.9920 0.0058
vn 0.0560 -0.9983 0.0127
vn -0.2103 -0.9775 0.0133
vn -0.0154 -0.9104 0.4135
vn -0.1394 -0.9144 0.3801
vn 0.1661 -0.9094 0.3813
vn 0.1675 0.9859 -0.0005
vn 0.1405 0.9900 -0.0120
vn -0.1252 0.9921 -0.0074
vn 0.1178 0.9862 -0.1159
vn 0.5165 0.8500 -0.1036
vn 0.2836 0.9539 -0.0986
vn 0.2888 0.9305 -0.2253
vn -0.4574 0.5491 -0.6995
vn 0.0010 1.0000 0.0073
vn 0.0580 0.9878 -0.1447
vn 0.4997 0.8605 -0.0994
vn 0.2707 0.9471 -0.1726
vn 0.1796 0.9479 -0.2632
vn 0.0251 0.9705 -0.2399
vn 0.0151 0.9450 -0.3266
vn 0.0162 0.9944 -0.1044
vn 0.1845 0.9750 -0.1235
vn 0.1958 0.9790 -0.0567
vn 0.9993 0.0003 -0.0367
vn 0.9993 0.0003 -0.0367
vn 0.9993 0.0003 -0.0367
vn -0.0028 -1.0000 -0.0082
vn 0.6316 -0.7704 -0.0865
vn 0.1729 -0.9849 -0.0075
vn -0.1937 -0.9810 0.0097
vn -0.2103 -0.9775 0.0133
vn 0.0560 -0.9983 0.0127
vn -0.9135 0.3576 -0.1942
vn -0.5661 0.8225 -0.0550
vn -0.4946 0.8478 -0.1916
vn 0.6316 -0.7704 -0.0865
vn 0.2880 -0.9029 -0.3191
vn -0.0117 -0.9999 -0.0067
vn -0.5661 0.8225 -0.0550
vn 0.0010 1.0000 0.0073
vn -0.4946 0.8478 -0.1916
vn 0.2888 0.9305 -0.2253
vn 0.0010 1.0000 0.0073
vn 0.4967 0.8657 -0.0622
vn 0.2265 0.9062 -0.3572
vn 0.0242 0.9342 -0.3561
vn -0.1014 0.9249 -0.3664
vn 0.1643 0.9864 -0.0011
vn -0.1685 0.9857 -0.0019
vn -0.1198 0.9928 -0.0046
vn -0.0321 -0.9983 0.0480
vn -0.0592 -0.9876 0.1457
vn 0.0890 -0.9904 0.1059
vn -0.1439 -0.9192 0.3665
vn 0.1904 -0.9137 0.3591
vn 0.1576 -0.9134 0.3754
vn 0.0596 -0.9979 0.0249
vn -0.0346 -0.9992 0.0215
vn -0.0321 -0.9983 0.0480
vn 0.1629 0.9866 0.0005
vn -0.2251 0.9743 -0.0022
vn -0.1685 0.9857 -0.0019
vn 0.1878 0.9103 -0.3690
vn -0.1014 0.9249 -0.3664
vn -0.0969 0.9229 -0.3728
vn -0.0529 0.9986 -0.0089
vn 0.0683 0.9973 -0.0274
vn 0.1692 0.9856 0.0065
vn 0.3808 0.8963 -0.2272
vn 0.5557 0.7882 -0.2646
vn 0.0116 0.9375 -0.3478
vn -0.1461 -0.9893 0.0043
vn 0.1515 -0.9885 0.0004
vn 0.2283 -0.9736 -0.0005
vn 0.1637 -0.9865 -0.0033
vn -0.1151 -0.9933 -0.0051
vn 0.1751 -0.9845 -0.0080
vn 0.0349 0.9992 -0.0210
vn 0.0162 0.9944 -0.1044
vn 0.1958 0.9790 -0.0567
vn 0.2910 -0.8992 0.3268
vn -0.0242 -0.9342 0.3560
vn -0.0152 -0.9453 0.3260
vn 0.5248 0.8139 -0.2493
vn 0.1796 0.9479 -0.2632
vn 0.0151 0.9450 -0.3266
vn -0.0321 -0.9983 0.0480
vn -0.2075 -0.9757 0.0706
vn -0.2178 -0.9700 0.1076
vn 0.0819 0.0482 -0.9955
vn 0.0136 0.8745 -0.4849
vn 0.0136 0.8745 -0.4849
vn 0.2900 0.9055 -0.3097
vn 0.5248 0.8139 -0.2493
vn 0.0151 0.9450 -0.3266
vn -0.5282 -0.8360 0.1488
vn -0.7928 -0.6044 0.0786
vn -0.0176 -0.9943 0.1053
vn 0.5474 0.8358 -0.0416
vn 0.0349 0.9992 -0.0210
vn 0.1958 0.9790 -0.0567
vn 0.3129 0.9490 -0.0381
vn 0.2490 0.9684 -0.0147
vn 0.0349 0.9992 -0.0210
vn -0.0149 -0.8919 0.4519
vn -0.1845 -0.8679 0.4612
vn -0.0154 -0.9104 0.4135
vn 0.1178 0.9862 -0.1159
vn 0.0580 0.9878 -0.1447
vn 0.2707 0.9471 -0.1726
vn 0.2836 0.9539 -0.0986
vn 0.3936 0.9182 -0.0449
vn 0.0683 0.9973 -0.0274
vn 0.0683 0.9973 -0.0274
vn 0.1178 0.9862 -0.1159
vn 0.2836 0.9539 -0.0986
vn -0.3572 -0.8779 0.3188
vn -0.5681 -0.7837 0.2512
vn -0.0152 -0.9453 0.3260
vn -0.2251 0.9743 -0.0022
vn 0.1675 0.9859 -0.0005
vn -0.1252 0.9921 -0.0074
vn -0.1198 0.9928 -0.0046
vn -0.1432 0.9896 -0.0131
vn 0.1752 0.9845 -0.0062
vn 0.3660 -0.9160 0.1642
vn -0.0261 -0.9707 0.2390
vn -0.0176 -0.9943 0.1053
vn 0.5557 0.7882 -0.2646
vn 0.1813 0.9142 -0.3624
vn 0.0116 0.9375 -0.3478
vn -0.1252 0.9921 -0.0074
vn 0.1405 0.9900 -0.0120
vn 0.0010 1.0000 0.0073
vn -0.1252 0.9921 -0.0074
vn 0.0010 1.0000 0.0073
vn -0.5661 0.8225 -0.0550
vn -0.0149 -0.8919 0.4519
vn 0.0572 -0.9151 0.3992
vn -0.1845 -0.8679 0.4612
vn -0.3572 -0.8779 0.3188
vn -0.0152 -0.9453 0.3260
vn -0.0252 -0.9355 0.3524
vn -0.0233 0.9982 -0.0558
vn 0.0683 0.9973 -0.0274
vn -0.0529 0.9986 -0.0089
vn 0.1605 0.9706 -0.1795
vn 0.0251 0.9705 -0.2399
vn 0.1796 0.9479 -0.2632
vn 0.2900 0.9055 -0.3097
vn 0.0151 0.9450 -0.3266
vn 0.3061 0.8920 -0.3325
vn -0.0252 -0.9355 0.3524
vn -0.3188 -0.8859 0.3369
vn -0.5977 -0.7527 0.2762
vn -0.0568 0.9965 -0.0619
vn 0.1178 0.9862 -0.1159
vn -0.0233 0.9982 -0.0558
vn -0.1696 -0.9855 -0.0005
vn 0.1637 -0.9865 -0.0033
vn 0.1515 -0.9885 0.0004
vn 0.2283 -0.9736 -0.0005
vn 0.1264 -0.9920 0.0058
vn -0.1461 -0.9893 0.0043
vn -0.0261 -0.9707 0.2390
vn -0.6802 -0.7147 0.1627
vn -0.5282 -0.8360 0.1488
vn -0.5282 -0.8360 0.1488
vn -0.0176 -0.9943 0.1053
vn -0.0261 -0.9707 0.2390
vn 0.0580 0.9878 -0.1447
vn -0.0945 0.9875 -0.1260
vn -0.5100 0.8560 -0.0851
vn 0.0580 0.9878 -0.1447
vn -0.5100 0.8560 -0.0851
vn -0.4406 0.8917 -0.1034
vn -0.0568 0.9965 -0.0619
vn -0.0945 0.9875 -0.1260
vn 0.1178 0.9862 -0.1159
vn -0.4295 0.9023 -0.0359
vn 0.0349 0.9992 -0.0210
vn -0.2406 0.9706 -0.0035
vn -0.1394 -0.9144 0.3801
vn 0.1576 -0.9134 0.3754
vn 0.1661 -0.9094 0.3813
vn -0.1982 0.9792 -0.0436
vn 0.0349 0.9992 -0.0210
vn -0.4295 0.9023 -0.0359
vn -0.6709 0.7413 -0.0190
vn -0.2406 0.9706 -0.0035
vn 0.0296 0.9984 -0.0487
vn -0.0154 -0.9104 0.4135
vn -0.5078 -0.7680 0.3902
vn -0.1394 -0.9144 0.3801
vn -0.0149 -0.8919 0.4519
vn -0.0154 -0.9104 0.4135
vn 0.3722 -0.7813 0.5009
vn -0.0321 -0.9983 0.0480
vn -0.2178 -0.9700 0.1076
vn -0.0592 -0.9876 0.1457
vn 0.0296 0.9984 -0.0487
vn -0.7926 0.6085 -0.0380
vn -0.6709 0.7413 -0.0190
vn -0.2161 0.9701 -0.1107
vn 0.0162 0.9944 -0.1044
vn -0.1982 0.9792 -0.0436
vn -0.8221 0.5297 -0.2087
vn 0.0253 0.9355 -0.3524
vn -0.2946 0.8941 -0.3374
vn -0.4167 -0.6057 -0.6779
vn -0.0028 -1.0000 -0.0082
vn -0.6280 -0.7275 -0.2765
vn 0.1177 -0.9930 -0.0038
vn -0.1937 -0.9810 0.0097
vn 0.0560 -0.9983 0.0127
vn -0.4295 0.8534 -0.2954
vn 0.0151 0.9450 -0.3266
vn -0.2024 0.9343 -0.2934
vn -0.0591 -0.9978 0.0287
vn -0.1111 -0.9871 0.1154
vn -0.3963 -0.9166 0.0533
vn -0.1111 -0.9871 0.1154
vn -0.0592 -0.9876 0.1457
vn -0.3357 -0.9348 0.1162
vn -0.0321 -0.9983 0.0480
vn -0.0346 -0.9992 0.0215
vn -0.1907 -0.9815 0.0190
vn -0.4328 -0.9002 0.0485
vn -0.0346 -0.9992 0.0215
vn -0.0176 -0.9943 0.1053
vn 0.0251 0.9705 -0.2399
vn -0.3969 0.8901 -0.2238
vn -0.2024 0.9343 -0.2934
vn 0.1845 0.9750 -0.1235
vn 0.0162 0.9944 -0.1044
vn 0.1605 0.9706 -0.1795
vn -0.4204 -0.8688 0.2618
vn -0.0261 -0.9707 0.2390
vn -0.0152 -0.9453 0.3260
vn -0.0895 0.8422 -0.5317
vn 0.0819 0.0482 -0.9955
vn -0.0895 0.8422 -0.5317
vn 0.0242 0.9342 -0.3561
vn 0.2265 0.9062 -0.3572
vn 0.8556 0.4811 -0.1910
vn 0.0151 0.9450 -0.3266
vn 0.0253 0.9355 -0.3524
vn 0.0242 0.9342 -0.3561
vn -0.5849 0.6555 -0.4776
vn 0.3808 0.8963 -0.2272
vn -0.0046 0.9997 -0.0258
vn -0.0169 -0.9018 0.4319
vn -0.0169 -0.9018 0.4319
vn -0.0169 -0.9018 0.4319
vn 0.1777 0.8094 -0.5597
vn 0.1777 0.8094 -0.5597
vn 0.1777 0.8094 -0.5597
vn -0.3188 -0.8859 0.3369
vn -0.0252 -0.9355 0.3524
vn -0.0242 -0.9342 0.3560
f 121//1 74//2 67//3
f 25//4 28//5 75//6
f 161//7 96//8 86//9
f 171//10 135//11 136//12
f 87//13 86//14 64//15
f 70//16 112//17 111//18
f 73//19 113//20 68//21
f 33//22 6//23 23//24
f 71//25 115//26 109//27
f 101//28 90//29 89//30
f 27//31 92//32 160//33
f 32//34 159//35 30//36
f 133//37 14//38 110//39
f 9//40 93//41 99//42
f 42//43 154//44 31//45
f 31//46 153//47 32//48
f 30//49 148//50 33//51
f 100//52 160//53 90//54
f 14//55 15//56 19//57
f 4//58 94//59 14//60
f 41//61 7//62 22//63
f 86//64 81//65 64//66
f 73//67 11//68 72//69
f 85//70 19//71 70//72
f 28//73 123//74 75//75
f 68//76 16//77 73//78
f 71//79 5//80 65//81
f 18//82 20//83 91//84
f 66//85 17//86 63//87
f 65//88 5//89 62//90
f 123//91 18//92 91//93
f 8//94 52//95 60//96
f 58//97 57//98 12//99
f 17//100 57//101 63//102
f 103//103 124//104 45//105
f 54//106 56//107 2//108
f 44//109 124//110 13//111
f 48//112 51//113 3//114
f 47//115 48//116 3//117
f 37//118 98//119 172//120
f 29//121 172//122 171//123
f 22//124 7//125 137//126
f 48//127 47//128 136//129
f 51//130 48//131 135//132
f 53//133 132//134 131//135
f 171//136 134//137 135//138
f 14//139 85//140 4//141
f 68//142 113//143 112//144
f 6//145 26//146 136//147
f 122//148 163//149 165//150
f 70//151 111//152 96//153
f 172//154 130//155 131//156
f 126//157 125//158 10//159
f 104//160 168//161 102//162
f 98//163 35//164 13//165
f 95//166 121//167 123//168
f 88//169 74//170 121//171
f 90//172 160//173 88//174
f 72//175 71//176 109//177
f 139//178 140//179 16//180
f 139//181 19//182 138//183
f 141//184 15//185 142//186
f 72//187 107//188 106//189
f 94//190 4//191 161//192
f 51//193 134//194 132//195
f 85//196 96//197 161//198
f 52//199 103//200 49//201
f 49//202 59//203 52//204
f 147//205 11//206 146//207
f 150//208 151//209 17//210
f 17//211 149//212 150//213
f 152//214 5//215 147//216
f 149//217 5//218 152//219
f 83//220 148//221 159//222
f 2//223 155//224 156//225
f 157//226 158//227 12//228
f 158//229 155//230 12//231
f 66//232 116//233 114//234
f 162//235 2//236 156//237
f 153//238 154//239 80//240
f 62//241 115//242 65//243
f 164//244 3//245 162//246
f 50//247 64//248 81//249
f 101//250 89//251 95//252
f 167//253 1//254 120//255
f 54//256 131//257 130//258
f 81//259 8//260 55//261
f 99//262 93//263 95//264
f 78//265 104//266 102//267
f 67//268 75//269 123//270
f 1//271 22//272 120//273
f 76//274 105//275 104//276
f 38//277 84//278 97//279
f 103//280 52//281 106//282
f 8//283 61//284 55//285
f 84//286 82//287 102//288
f 38//289 144//290 143//291
f 121//292 67//293 123//294
f 56//295 130//296 128//297
f 57//298 129//299 116//300
f 103//301 46//302 49//303
f 123//304 28//305 18//306
f 47//307 23//308 6//309
f 156//310 36//311 29//312
f 125//313 74//314 88//315
f 35//316 40//317 13//318
f 108//319 88//320 87//321
f 110//322 87//323 64//324
f 8//325 86//326 96//327
f 10//328 100//329 101//330
f 137//331 79//332 154//333
f 117//334 83//335 80//336
f 118//337 80//338 79//339
f 62//340 114//341 127//342
f 120//343 119//344 79//345
f 122//346 75//347 67//348
f 33//349 166//350 117//351
f 58//352 128//353 129//354
f 125//355 126//356 67//357
f 138//358 141//359 55//360
f 140//361 139//362 60//363
f 120//364 42//365 119//366
f 159//367 153//368 83//369
f 139//370 138//371 61//372
f 141//373 142//374 50//375
f 133//376 64//377 50//378
f 145//379 140//380 59//381
f 146//382 145//383 49//384
f 53//385 2//386 3//387
f 3//388 51//389 53//390
f 146//391 46//392 45//393
f 150//394 43//395 40//396
f 13//397 124//398 114//399
f 56//400 12//401 2//402
f 149//403 44//404 43//405
f 147//406 45//407 39//408
f 152//409 39//410 44//411
f 156//412 155//413 37//414
f 5//415 66//416 62//417
f 157//418 151//419 40//420
f 158//421 157//422 35//423
f 155//424 158//425 34//426
f 163//427 170//428 18//429
f 164//430 26//431 24//432
f 162//433 29//434 26//435
f 19//436 69//437 70//438
f 19//439 68//440 69//441
f 165//442 163//443 28//444
f 166//445 24//446 83//447
f 167//448 120//449 77//450
f 122//451 165//452 25//453
f 170//454 169//455 20//456
f 99//457 91//458 20//459
f 76//460 167//461 21//462
f 62//463 66//464 114//465
f 62//466 127//467 115//468
f 66//469 63//470 116//471
f 41//472 143//473 7//474
f 100//475 27//476 160//477
f 30//478 159//479 148//480
f 31//481 154//482 153//483
f 42//484 137//485 154//486
f 32//487 153//488 159//489
f 27//490 94//491 92//492
f 101//493 100//494 90//495
f 71//496 65//497 115//498
f 71//499 11//500 5//501
f 33//502 148//503 6//504
f 73//505 106//506 113//507
f 70//508 69//509 112//510
f 76//511 21//512 105//513
f 99//514 20//515 169//516
f 170//517 20//518 18//519
f 122//520 25//521 75//522
f 167//523 77//524 21//525
f 166//526 83//527 117//528
f 165//529 28//530 25//531
f 162//532 26//533 164//534
f 164//535 24//536 166//537
f 163//538 18//539 28//540
f 155//541 34//542 37//543
f 158//544 35//545 34//546
f 157//547 40//548 35//549
f 156//550 37//551 36//552
f 152//553 44//554 149//555
f 147//556 39//557 152//558
f 149//559 43//560 150//561
f 150//562 40//563 151//564
f 146//565 45//566 147//567
f 146//568 49//569 46//570
f 145//571 59//572 49//573
f 133//574 50//575 142//576
f 141//577 50//578 55//579
f 139//580 61//581 60//582
f 140//583 60//584 59//585
f 138//586 55//587 61//588
f 125//589 67//590 74//591
f 58//592 129//593 57//594
f 116//595 129//596 13//597
f 122//598 67//599 126//600
f 120//601 79//602 77//603
f 10//604 101//605 93//606
f 160//607 92//608 87//609
f 118//610 79//611 119//612
f 117//613 80//614 118//615
f 110//616 64//617 133//618
f 108//619 87//620 110//621
f 125//622 88//623 108//624
f 156//625 29//626 162//627
f 47//628 6//629 136//630
f 57//631 116//632 63//633
f 56//634 128//635 58//636
f 38//637 143//638 41//639
f 84//640 102//641 97//642
f 38//643 97//644 144//645
f 76//646 104//647 78//648
f 78//649 102//650 82//651
f 99//652 95//653 91//654
f 54//655 130//656 56//657
f 101//658 95//659 93//660
f 85//661 161//662 4//663
f 51//664 132//665 53//666
f 94//667 161//668 92//669
f 72//670 106//671 73//672
f 72//673 109//674 107//675
f 70//676 96//677 85//678
f 68//679 112//680 69//681
f 53//682 131//683 54//684
f 98//685 129//686 128//687
f 129//688 98//689 13//690
f 47//691 3//692 164//693
f 108//694 110//695 27//696
f 144//697 97//698 143//699
f 118//700 119//701 31//702
f 117//703 118//704 32//705
f 6//706 24//707 26//708
f 7//709 143//710 168//711
f 110//712 14//713 94//714
f 90//715 88//716 121//717
f 41//718 1//719 84//720
f 127//721 124//722 115//723
f 51//724 135//725 134//726
f 78//727 1//728 167//729
f 78//730 167//731 76//732
f 116//733 13//734 114//735
f 71//736 72//737 11//738
f 19//739 16//740 68//741
f 56//742 58//743 12//744
f 24//745 6//746 148//747
f 1//748 82//749 84//750
f 53//751 54//752 2//753
f 48//754 136//755 135//756
f 120//757 22//758 42//759
f 33//760 23//761 166//762
f 10//763 108//764 100//765
f 137//766 7//767 77//768
f 172//769 131//770 132//771
f 97//772 102//773 168//774
f 98//775 128//776 130//777
f 113//778 52//779 8//780
f 103//781 107//782 109//783
f 22//784 137//785 42//786
f 1//787 41//788 22//789
f 164//790 166//791 23//792
f 105//793 21//794 104//795
f 41//796 84//797 38//798
f 21//799 168//800 104//801
f 97//802 168//803 143//804
f 92//805 86//806 87//807
f 153//808 80//809 83//810
f 17//811 12//812 57//813
f 110//814 94//815 27//816
f 66//817 5//818 17//819
f 154//820 79//821 80//822
f 160//823 87//824 88//825
f 26//826 171//827 136//828
f 95//829 89//830 121//831
f 117//832 32//833 30//834
f 31//835 119//836 42//837
f 124//838 103//839 109//840
f 85//841 14//842 19//843
f 112//844 113//845 8//846
f 17//847 151//848 157//849
f 170//850 163//851 9//852
f 111//853 112//854 8//855
f 145//856 146//857 11//858
f 115//859 124//860 109//861
f 127//862 114//863 124//864
f 9//865 126//866 10//867
f 172//868 98//869 130//870
f 132//871 134//872 171//873
f 171//874 172//875 132//876
f 141//877 138//878 19//879
f 79//880 137//881 77//882
f 83//883 24//884 148//885
f 73//886 16//887 11//888
f 89//889 90//890 121//891
f 77//892 7//893 168//894
f 77//895 168//896 21//897
f 9//898 122//899 126//900
f 141//901 19//902 15//903
f 29//904 171//905 26//906
f 106//907 52//908 113//909
f 111//910 8//911 96//912
f 15//913 133//914 142//915
f 36//916 172//917 29//918
f 118//919 31//920 32//921
f 30//922 33//923 117//924
f 16//925 140//926 145//927
f 145//928 11//929 16//930
f 98//931 37//932 34//933
f 98//934 34//935 35//936
f 36//937 37//938 172//939
f 39//940 124//941 44//942
f 108//943 27//944 100//945
f 45//946 124//947 39//948
f 43//949 44//950 13//951
f 10//952 125//953 108//954
f 9//955 10//956 93//957
f 17//958 157//959 12//960
f 13//961 40//962 43//963
f 46//964 103//965 45//966
f 50//967 81//968 55//969
f 82//970 1//971 78//972
f 47//973 164//974 23//975
f 61//976 8//977 60//978
f 3//979 2//980 162//981
f 2//982 12//983 155//984
f 17//985 5//986 149//987
f 147//988 5//989 11//990
f 52//991 59//992 60//993
f 107//994 103//995 106//996
f 139//997 16//998 19//999
f 99//1000 170//1001 9//1002
f 86//1003 92//1004 161//1005
f 8//1006 81//1007 86//1008
f 91//1009 95//1010 123//1011
f 99//1012 169//1013 170//1014
f 122//1015 9//1016 163//1017
f 133//1018 15//1019 14//1020
