mtllib grass_05_04_b2.mtl
usemtl grass_05_04_b2
# Blender 5.1.1
# www.blender.org
o grass_05_04_b2
v -13.130679 3.911812 0.746412
v -12.976313 3.827704 0.746412
v -12.952729 3.814855 0.882078
v -13.134738 3.914023 0.909841
v -13.070122 3.813569 0.746392
v -12.992002 3.956947 0.746392
v -12.992002 3.956947 0.885356
v -13.073961 3.806523 0.911923
v -14.277807 14.158052 3.270543
v -14.137714 14.082735 3.270543
v -14.158824 14.094084 3.414185
v -14.337528 14.190160 3.370006
v -14.203303 14.198258 3.270543
v -14.187535 14.227589 3.381531
v -14.266922 14.079926 3.416732
v -14.267511 14.078829 3.270543
v -10.575541 11.854271 2.332996
v -10.622737 11.883384 2.231389
v -10.774813 11.977192 2.231389
v -10.832103 12.012531 2.332996
v -10.675375 12.011689 2.231351
v -10.763911 11.868159 2.231351
v -10.799937 11.809755 2.337418
v -10.666692 12.025766 2.344375
v -12.092229 1.365205 -0.019881
v -11.929543 1.297937 -0.019881
v -11.954056 1.308072 0.142724
v -12.161581 1.393881 0.092713
v -12.014685 1.417810 -0.019881
v -12.000602 1.451870 0.105759
v -12.071505 1.280393 0.145607
v -12.072031 1.279119 -0.019881
v -9.067448 4.455546 0.172719
v -8.878637 4.621835 0.172719
v -8.863034 4.635577 0.306865
v -9.087691 4.437716 0.385147
v -8.909616 4.449394 0.172805
v -9.067733 4.628925 0.172805
v -9.026422 4.582019 0.324149
v -8.884945 4.421382 0.345704
v -15.178664 -2.670235 -0.321870
v -15.035247 -2.552210 -0.321870
v -15.056857 -2.569994 -0.209576
v -15.239802 -2.720548 -0.244113
v -15.189117 -2.571927 -0.321870
v -15.213828 -2.541900 -0.235104
v -15.089425 -2.693068 -0.207585
v -15.088501 -2.694191 -0.321870
v -2.033392 15.741332 1.896816
v -1.874535 15.904678 1.896816
v -1.850266 15.929633 1.976462
v -2.037569 15.737038 1.992760
v -1.889625 15.782644 1.896804
v -2.041343 15.930193 1.896804
v -2.041343 15.930193 1.978386
v -1.882169 15.775393 1.993983
v -7.883824 6.027769 0.466802
v -7.905830 6.064430 0.382051
v -7.976738 6.182560 0.382051
v -8.003451 6.227063 0.466802
v -7.896415 6.170951 0.382019
v -8.007907 6.104028 0.382019
v -8.053275 6.076796 0.470491
v -7.885480 6.177515 0.476293
v -11.743659 9.765620 1.917758
v -11.908746 9.896324 1.917758
v -11.933967 9.916291 2.032821
v -11.739319 9.762184 2.056368
v -11.795139 9.893910 1.917740
v -11.916537 9.740576 1.917740
v -11.916537 9.740576 2.035601
v -11.789172 9.901447 2.058134
v -6.445991 11.689301 1.507399
v -6.667578 11.574417 1.507399
v -6.634189 11.591727 1.662185
v -6.351529 11.738276 1.614579
v -6.459827 11.557170 1.507399
v -6.435774 11.510778 1.626997
v -6.556866 11.744339 1.664929
v -6.557766 11.746074 1.507399
v -13.787835 4.848878 1.279798
v -13.820664 4.866827 1.134473
v -13.926447 4.924661 1.134473
v -13.966298 4.946449 1.279798
v -13.860665 4.951419 1.134418
v -13.915250 4.851581 1.134418
v -13.937461 4.810956 1.286123
v -13.855311 4.961211 1.296073
v -7.202815 -3.688971 -2.447340
v -7.448601 -3.815176 -2.447340
v -7.506877 -3.845099 -2.358027
v -7.265802 -3.721313 -2.358027
v -7.422879 -3.673108 -2.447379
v -7.307392 -3.898020 -2.447379
v -7.299990 -3.912435 -2.348564
v -7.403252 -3.711332 -2.357469
v -11.850617 -12.318471 -2.585560
v -11.914992 -12.327075 -2.689010
v -12.122424 -12.354802 -2.689010
v -12.200568 -12.365248 -2.585560
v -12.057858 -12.249790 -2.689049
v -12.031689 -12.445564 -2.689049
v -12.021040 -12.525228 -2.581057
v -12.060424 -12.230590 -2.573975
v -12.595710 1.699046 0.134771
v -12.400096 1.558005 0.134771
v -12.383931 1.546349 0.262171
v -12.616683 1.714168 0.336516
v -12.567849 1.550234 0.134852
v -12.433739 1.736234 0.134852
v -12.468778 1.687638 0.278586
v -12.588773 1.521213 0.299057
v -15.092410 -7.711697 -1.179627
v -15.033718 -7.727406 -1.347140
v -14.844599 -7.778025 -1.347140
v -14.773353 -7.797094 -1.179627
v -14.938111 -7.845511 -1.347203
v -14.890337 -7.667019 -1.347203
v -14.870897 -7.594388 -1.172335
v -14.942798 -7.863017 -1.160867
v -11.915742 -1.097771 -0.618489
v -11.998473 -1.239800 -0.618489
v -11.986008 -1.218399 -0.527820
v -11.880475 -1.037224 -0.555706
v -11.876846 -1.176137 -0.618489
v -11.847111 -1.193458 -0.548432
v -11.996815 -1.106256 -0.526212
v -11.997928 -1.105609 -0.618489
v -9.410066 1.646830 -0.444272
v -9.258111 1.769897 -0.444272
v -9.232456 1.790674 -0.355126
v -9.436212 1.625655 -0.337976
v -9.265069 1.628105 -0.444338
v -9.414165 1.812199 -0.444338
v -9.358479 1.743443 -0.318909
v -9.254305 1.614814 -0.357011
v -14.440772 9.514617 2.406574
v -14.409175 9.481769 2.229195
v -14.307361 9.375925 2.229195
v -14.269005 9.336051 2.406574
v -14.393581 9.368852 2.229128
v -14.293685 9.464945 2.229128
v -14.253036 9.504045 2.414294
v -14.403378 9.359427 2.426438
v -12.978395 -10.361208 -2.143720
v -12.952414 -10.362135 -2.018540
v -13.161147 -10.354688 -2.050138
v -13.232181 -10.352153 -2.143720
v -13.089028 -10.564847 -2.143720
v -13.079652 -10.302053 -2.143720
v -13.076487 -10.213362 -2.033742
v -13.087450 -10.520633 -2.041708
v -10.430337 -11.131803 -3.025644
v -10.470860 -10.964100 -3.025644
v -10.477052 -10.938479 -2.935289
v -10.429271 -11.136211 -2.916799
v -10.398772 -11.023026 -3.025658
v -10.554536 -11.060664 -3.025658
v -10.554536 -11.060664 -2.933106
v -10.391117 -11.021175 -2.915412
v -10.002589 -5.146626 -1.948628
v -10.159674 -5.198384 -1.948628
v -10.178582 -5.204614 -1.859072
v -9.953259 -5.130373 -1.861648
v -10.090848 -5.073619 -1.948628
v -10.034687 -5.244067 -1.948628
v -10.032804 -5.249781 -1.872827
v -10.090025 -5.076115 -1.861516
v -6.397727 -2.602709 -2.431103
v -6.659224 -2.715975 -2.431103
v -6.680834 -2.725335 -2.355139
v -6.369689 -2.590565 -2.310810
v -6.565646 -2.540981 -2.431054
v -6.457946 -2.789628 -2.431054
v -6.486084 -2.724664 -2.345351
v -6.582449 -2.502186 -2.333145
v 0.031040 13.858985 1.039942
v 0.260364 13.811444 1.039942
v 0.287968 13.805722 1.157961
v -0.040978 13.873915 1.154566
v 0.087719 13.707016 1.039942
v 0.139304 13.955851 1.039942
v 0.141033 13.964192 1.139834
v 0.088474 13.710661 1.154740
v -11.773045 -5.292960 -1.604674
v -11.991728 -5.395862 -1.604674
v -12.009799 -5.404366 -1.516090
v -11.749598 -5.281927 -1.464397
v -11.917012 -5.245058 -1.604617
v -11.819167 -5.452994 -1.604617
v -11.844731 -5.398666 -1.504677
v -11.932279 -5.212615 -1.490443
v -9.129356 14.537696 2.624297
v -9.102206 14.730607 2.624297
v -9.098938 14.753827 2.721937
v -9.137883 14.477114 2.719129
v -9.006253 14.592903 2.624297
v -9.215575 14.622363 2.624297
v -9.222592 14.623351 2.706940
v -9.009318 14.593334 2.719273
v -5.738078 0.105347 -1.674978
v -5.692525 0.132410 -1.770935
v -5.545743 0.219613 -1.770935
v -5.490447 0.252465 -1.674978
v -5.560580 0.120145 -1.770972
v -5.642883 0.258678 -1.770972
v -5.676373 0.315049 -1.670801
v -5.552508 0.106558 -1.664232
v -8.424825 -0.795395 -1.217812
v -8.328885 -0.644246 -1.217812
v -8.320957 -0.631755 -1.128244
v -8.435112 -0.811602 -1.075976
v -8.315767 -0.768220 -1.217754
v -8.459490 -0.676995 -1.217754
v -8.421940 -0.700830 -1.116703
v -8.293344 -0.782454 -1.102311
v -11.254687 7.940497 1.370763
v -11.284558 7.812086 1.370763
v -11.280057 7.831435 1.497462
v -11.241953 7.995239 1.458495
v -11.206363 7.889613 1.370763
v -11.179478 7.883359 1.468660
v -11.314829 7.914844 1.499708
v -11.315834 7.915078 1.370763
v -8.214422 6.199763 0.456308
v -8.252644 6.362093 0.456308
v -8.246884 6.337634 0.547143
v -8.198129 6.130562 0.519205
v -8.297765 6.230318 0.456308
v -8.331751 6.222315 0.526493
v -8.160648 6.262602 0.548753
v -8.159377 6.262901 0.456308
v -0.407277 15.517816 1.564904
v -0.428766 15.533565 1.701884
v -0.256112 15.407032 1.667308
v -0.197356 15.363972 1.564904
v -0.196207 15.626722 1.564904
v -0.355510 15.409352 1.564904
v -0.409274 15.335990 1.685250
v -0.223009 15.590151 1.676533
v -12.469145 -11.120424 -2.403885
v -12.459322 -11.100973 -2.278058
v -12.538243 -11.257255 -2.309819
v -12.565102 -11.310439 -2.403885
v -12.352953 -11.276108 -2.403885
v -12.549710 -11.176746 -2.403885
v -12.616116 -11.143212 -2.293338
v -12.386057 -11.259391 -2.301345
v -11.611087 -0.008155 -0.407140
v -11.781928 0.016694 -0.407140
v -11.756186 0.012950 -0.233599
v -11.538258 -0.018748 -0.286974
v -11.672166 -0.076808 -0.407140
v -11.677368 -0.112576 -0.273050
v -11.651176 0.067497 -0.230523
v -11.650982 0.068835 -0.407140
v 0.533572 13.747045 0.845079
v 0.423218 13.552083 0.845079
v 0.406359 13.522298 0.968199
v 0.536474 13.752171 0.993395
v 0.407142 13.671907 0.845060
v 0.588224 13.569409 0.845060
v 0.588224 13.569409 0.971174
v 0.398242 13.676945 0.995285
v -11.894162 11.885422 2.390358
v -11.670093 11.912106 2.390358
v -11.643121 11.915318 2.597316
v -11.964530 11.877042 2.591364
v -11.795907 11.763899 2.390358
v -11.824861 12.007031 2.390358
v -11.825831 12.015182 2.565529
v -11.796330 11.767460 2.591669
v -13.737213 3.596973 0.822012
v -13.953253 3.523205 0.822012
v -13.971107 3.517109 0.912535
v -13.714049 3.604882 0.965360
v -13.867366 3.656976 0.822070
v -13.797222 3.451552 0.822070
v -13.815549 3.505223 0.924199
v -13.878309 3.689027 0.938744
v -11.320887 -9.016295 -2.337466
v -11.217019 -8.905018 -2.337466
v -11.232670 -8.921784 -2.219914
v -11.365164 -9.063732 -2.256069
v -11.339924 -8.937541 -2.337466
v -11.363221 -8.915795 -2.246638
v -11.245931 -9.025275 -2.217830
v -11.245059 -9.026088 -2.337466
v 0.663591 15.082220 1.360977
v 0.540876 15.261751 1.360977
v 0.522128 15.289179 1.507839
v 0.666817 15.077499 1.537893
v 0.652172 15.224525 1.360954
v 0.485421 15.110547 1.360954
v 0.485421 15.110547 1.511387
v 0.660367 15.230127 1.540147
v -9.911202 7.617509 1.052571
v -9.926115 7.630925 1.170327
v -9.806301 7.523136 1.140603
v -9.765528 7.486454 1.052571
v -9.744883 7.683201 1.052571
v -9.880589 7.532357 1.052571
v -9.926390 7.481448 1.156027
v -9.767715 7.657823 1.148534
v -9.557440 -1.973959 -1.268294
v -9.533306 -1.974997 -1.120602
v -9.727204 -1.966654 -1.157883
v -9.793190 -1.963815 -1.268294
v -9.661627 -2.162420 -1.268294
v -9.651122 -1.918304 -1.268294
v -9.647577 -1.835916 -1.138537
v -9.659859 -2.121348 -1.147936
v -4.987851 1.550147 -1.542185
v -4.974037 1.563420 -1.427474
v -5.085024 1.456780 -1.456429
v -5.122794 1.420489 -1.542185
v -4.936824 1.387167 -1.542185
v -5.071083 1.526899 -1.542185
v -5.116395 1.574058 -1.441404
v -4.959413 1.410676 -1.448704
v -10.231002 9.562495 1.611161
v -10.319324 9.730107 1.611161
v -10.329955 9.750283 1.763616
v -10.203265 9.509858 1.759231
v -10.165303 9.676070 1.611161
v -10.347175 9.580235 1.611161
v -10.353271 9.577023 1.740200
v -10.167967 9.674667 1.759456
v -14.256913 -6.554686 -1.306574
v -14.441207 -6.700588 -1.306574
v -14.456436 -6.712645 -1.217812
v -14.237154 -6.539042 -1.166015
v -14.403865 -6.541221 -1.306517
v -14.265133 -6.716458 -1.306517
v -14.301379 -6.670674 -1.206376
v -14.425510 -6.513880 -1.192113
v -8.284138 15.338948 2.672526
v -8.430683 15.158689 2.672526
v -8.408602 15.185851 2.840856
v -8.221666 15.415792 2.789084
v -8.246941 15.221024 2.672526
v -8.209201 15.190343 2.802589
v -8.399200 15.344806 2.843840
v -8.400612 15.345954 2.672526
v -10.751921 6.754122 1.060311
v -10.714465 6.732563 0.978877
v -10.593775 6.663098 0.978877
v -10.548308 6.636929 1.060311
v -10.670416 6.633865 0.978846
v -10.604855 6.747773 0.978846
v -10.578176 6.794124 1.063856
v -10.676847 6.622694 1.069431
v -12.637575 2.271896 0.323334
v -12.757503 2.433319 0.323334
v -12.739432 2.408995 0.419410
v -12.586452 2.203082 0.389861
v -12.744444 2.265870 0.323334
v -12.778239 2.240762 0.397569
v -12.608094 2.367169 0.421113
v -12.606831 2.368108 0.323334
v -7.579696 -0.745909 -1.329964
v -7.764753 -0.600698 -1.329964
v -7.808631 -0.566268 -1.235553
v -7.627121 -0.708695 -1.235553
v -7.645717 -0.570051 -1.330005
v -7.778595 -0.739392 -1.330005
v -7.787111 -0.750246 -1.225550
v -7.668300 -0.598831 -1.234964
v -13.691398 -7.184946 -1.559356
v -13.514178 -7.344761 -1.559356
v -13.499533 -7.357968 -1.475792
v -13.710399 -7.167810 -1.427028
v -13.680027 -7.334329 -1.559302
v -13.528065 -7.165818 -1.559302
v -13.567768 -7.209845 -1.465025
v -13.703737 -7.360620 -1.451598
v -1.716537 7.616521 -0.625105
v -1.716262 7.630795 -0.509518
v -1.718476 7.516120 -0.538695
v -1.719229 7.477095 -0.625105
v -1.603733 7.557606 -0.625105
v -1.748107 7.560393 -0.625105
v -1.796833 7.561334 -0.523555
v -1.628023 7.558075 -0.530910
v -12.697186 14.852502 3.307718
v -12.727842 14.826646 3.201374
v -12.826629 14.743333 3.201374
v -12.863844 14.711946 3.307718
v -12.827884 14.819444 3.201334
v -12.749252 14.726210 3.201334
v -12.717256 14.688271 3.312346
v -12.835595 14.828588 3.319627
v -10.584167 -0.405665 -0.693243
v -10.506827 -0.210263 -0.693243
v -10.495011 -0.180411 -0.574799
v -10.586200 -0.410803 -0.550561
v -10.476406 -0.319517 -0.693262
v -10.657898 -0.247684 -0.693262
v -10.657898 -0.247684 -0.571938
v -10.467486 -0.323048 -0.548743
v -13.457306 9.011819 1.982828
v -13.532005 8.817871 1.982828
v -13.520750 8.847095 2.081439
v -13.425462 9.094498 2.051111
v -13.392982 8.921817 1.982828
v -13.352377 8.906178 2.059022
v -13.556806 8.984914 2.083188
v -13.558324 8.985498 1.982828
v -11.207863 -0.853781 -0.710089
v -11.039823 -0.882212 -0.710089
v -11.019595 -0.885635 -0.615664
v -11.260635 -0.844853 -0.618380
v -11.162576 -0.962777 -0.710089
v -11.131726 -0.780441 -0.710089
v -11.130692 -0.774328 -0.630167
v -11.162125 -0.960106 -0.618241
v -7.369603 -4.223549 -2.569030
v -7.397329 -3.983690 -2.569030
v -7.400667 -3.954818 -2.434620
v -7.360896 -4.298875 -2.438486
v -7.239209 -4.118861 -2.569030
v -7.499474 -4.148946 -2.569030
v -7.508198 -4.149955 -2.455264
v -7.243021 -4.119302 -2.438287
v -11.449000 -5.463052 -1.703314
v -11.365368 -5.241091 -1.703314
v -11.352592 -5.207181 -1.601227
v -11.451200 -5.468887 -1.580336
v -11.328999 -5.363819 -1.703330
v -11.535158 -5.286141 -1.703330
v -11.535158 -5.286141 -1.598761
v -11.318866 -5.367637 -1.578769
v -9.548043 11.220644 1.894533
v -9.481543 11.463444 1.894533
v -9.473537 11.492669 1.995441
v -9.568928 11.144395 1.992539
v -9.381185 11.271175 1.894533
v -9.644640 11.343334 1.894533
v -9.653472 11.345754 1.979942
v -9.385043 11.272232 1.992688
v -13.465168 12.732043 2.975460
v -13.415012 12.765551 2.837445
v -13.253398 12.873519 2.837445
v -13.192513 12.914194 2.975460
v -13.264278 12.759549 2.837392
v -13.366179 12.912082 2.837392
v -13.407644 12.974149 2.981467
v -13.254284 12.744590 2.990916
v -15.447115 4.640486 1.351159
v -15.510267 4.543145 1.351159
v -15.500751 4.557812 1.486440
v -15.420193 4.681983 1.444833
v -15.422347 4.583909 1.351159
v -15.401967 4.570687 1.455686
v -15.504569 4.637253 1.488838
v -15.505331 4.637747 1.351159
v -9.084995 -4.968206 -2.076912
v -9.303432 -4.929508 -2.076912
v -9.336802 -4.923595 -1.979605
v -9.079252 -4.969223 -1.959692
v -9.196864 -4.874959 -2.076926
v -9.232807 -5.077846 -2.076926
v -9.232807 -5.077846 -1.977254
v -9.195097 -4.864988 -1.958198
v -13.064450 -8.978460 -1.951787
v -12.855953 -8.959595 -1.951787
v -12.887369 -8.962437 -1.769637
v -13.153332 -8.986503 -1.825659
v -13.011772 -8.880268 -1.951787
v -13.015722 -8.836617 -1.811045
v -12.995837 -9.056380 -1.766408
v -12.995689 -9.058013 -1.951787
v -15.378916 -4.923477 -0.812372
v -15.294234 -5.089662 -0.812372
v -15.281298 -5.115050 -0.734582
v -15.381142 -4.919107 -0.718663
v -15.384821 -5.045781 -0.812384
v -15.230467 -4.967128 -0.812384
v -15.230467 -4.967128 -0.732703
v -15.392407 -5.049646 -0.717469
v -10.943323 8.348044 1.410174
v -11.008326 8.169909 1.410174
v -11.016150 8.148466 1.533507
v -10.922910 8.403987 1.529960
v -11.071721 8.320476 1.410174
v -10.878429 8.249943 1.410174
v -10.871950 8.247579 1.514564
v -11.068891 8.319442 1.530141
v -14.398115 1.606564 0.657572
v -14.334045 1.618009 0.455673
v -14.127600 1.654890 0.455673
v -14.049827 1.668784 0.657572
v -14.187621 1.546920 0.455597
v -14.222429 1.741764 0.455597
v -14.236593 1.821049 0.666360
v -14.184207 1.527810 0.680182
v -8.045158 -5.597379 -2.732654
v -7.993578 -5.348078 -2.732654
v -7.989316 -5.327477 -2.554559
v -8.050689 -5.624108 -2.450632
v -7.913771 -5.506378 -2.732540
v -8.150821 -5.457332 -2.732540
v -8.088886 -5.470146 -2.531613
v -7.876785 -5.514030 -2.502996
v -4.274994 11.523672 1.100442
v -4.300041 11.533068 1.208671
v -4.098804 11.457582 1.181352
v -4.030321 11.431893 1.100442
v -4.100489 11.686214 1.100442
v -4.195525 11.432859 1.100442
v -4.227599 11.347352 1.195528
v -4.116478 11.643589 1.188640
v -12.543621 -4.179411 -1.175053
v -12.672527 -4.032184 -1.175053
v -12.683180 -4.020018 -1.100937
v -12.529799 -4.195196 -1.057687
v -12.538478 -4.056668 -1.175005
v -12.678470 -4.179241 -1.175005
v -12.641894 -4.147216 -1.091388
v -12.516636 -4.037544 -1.079478
v -1.415557 13.514169 1.196417
v -1.192983 13.526003 1.196417
v -1.166192 13.527428 1.283671
v -1.485454 13.510452 1.281162
v -1.326558 13.388048 1.196417
v -1.339400 13.629558 1.196417
v -1.339830 13.637653 1.270270
v -1.326746 13.391585 1.281291
v -8.791437 -7.336976 -2.883825
v -8.911844 -7.572536 -2.883825
v -8.930239 -7.608523 -2.739291
v -8.788272 -7.330782 -2.709714
v -8.936829 -7.431973 -2.883847
v -8.718038 -7.543808 -2.883847
v -8.718038 -7.543808 -2.735799
v -8.947582 -7.426476 -2.707495
v -10.290046 9.241728 1.496630
v -10.192764 9.099683 1.496630
v -10.177903 9.077983 1.582353
v -10.292603 9.245461 1.599895
v -10.280903 9.129074 1.496617
v -10.148971 9.219430 1.496617
v -10.148971 9.219430 1.584424
v -10.287388 9.124633 1.601211
v -13.628933 -3.728990 -0.723135
v -13.624733 -3.801218 -0.928018
v -13.611199 -4.033953 -0.928018
v -13.606101 -4.121630 -0.723135
v -13.722479 -3.953487 -0.928095
v -13.502823 -3.940714 -0.928095
v -13.413441 -3.935516 -0.714218
v -13.744021 -3.954740 -0.700191
v -11.608123 3.976175 0.709809
v -11.664713 3.932759 0.512870
v -11.847059 3.792864 0.512870
v -11.915753 3.740162 0.709809
v -11.843036 3.928184 0.512795
v -11.711001 3.756085 0.512795
v -11.657275 3.686055 0.718381
v -11.855985 3.945063 0.731864
v -13.986390 12.312349 2.817586
v -14.146289 12.153624 2.817586
v -14.173285 12.126825 2.893013
v -13.958878 12.339661 2.907524
v -14.154781 12.316975 2.817530
v -13.962484 12.123256 2.817530
v -14.034304 12.195606 2.923656
v -14.168665 12.330960 2.891418
v -15.755088 6.275914 1.925531
v -15.761363 6.319053 1.801531
v -15.781583 6.458056 1.801531
v -15.789201 6.510422 1.925531
v -15.710602 6.415537 1.801484
v -15.841794 6.396453 1.801484
v -15.895178 6.388688 1.930928
v -15.697735 6.417409 1.939418
v -2.000950 11.705826 0.795224
v -1.934948 11.499994 0.795224
v -1.927003 11.475219 0.884381
v -2.021678 11.770466 0.881817
v -2.097284 11.591245 0.795224
v -1.873942 11.662862 0.795224
v -1.866455 11.665263 0.870687
v -2.094013 11.592293 0.881948
v -15.274875 11.747078 2.915041
v -15.264893 11.973039 2.915041
v -15.263691 12.000237 3.062492
v -15.278009 11.676116 3.058251
v -15.138725 11.824535 2.915041
v -15.383909 11.835366 2.915041
v -15.392129 11.835730 3.039845
v -15.142317 11.824694 3.058469
v -15.078045 1.894649 0.676716
v -15.218117 1.772552 0.676716
v -15.241766 1.751939 0.788043
v -15.053944 1.915657 0.809461
v -15.216386 1.907445 0.676633
v -15.068465 1.737747 0.676633
v -15.123711 1.801126 0.833272
v -15.227065 1.919697 0.785690
v -8.152756 14.269930 2.486240
v -8.187148 14.231824 2.387451
v -8.297966 14.109037 2.387451
v -8.339714 14.062780 2.486240
v -8.312760 14.205336 2.387413
v -8.196875 14.100746 2.387413
v -8.149718 14.058187 2.490541
v -8.324126 14.215593 2.497304
v -11.197431 -5.692582 -1.801807
v -11.389565 -5.697415 -1.801807
v -11.422003 -5.698231 -1.714795
v -11.164371 -5.691750 -1.698055
v -11.299181 -5.591110 -1.801872
v -11.293325 -5.823881 -1.801872
v -11.295513 -5.736946 -1.679444
v -11.299604 -5.574305 -1.716634
v -9.496003 -6.874906 -2.524602
v -9.349164 -7.027929 -2.524602
v -9.326731 -7.051307 -2.427775
v -9.499864 -6.870883 -2.407960
v -9.462196 -7.009968 -2.524617
v -9.320067 -6.873583 -2.524617
v -9.320067 -6.873583 -2.425436
v -9.469182 -7.016671 -2.406474
v -0.183776 11.584030 0.263526
v 0.026866 11.568653 0.263526
v 0.044274 11.567383 0.370069
v -0.206361 11.585679 0.432243
v -0.094674 11.485839 0.263594
v -0.080053 11.686130 0.263594
v -0.083873 11.633800 0.383797
v -0.096956 11.454589 0.400917
v -14.769307 -13.070428 -2.167843
v -14.546770 -13.070292 -2.167843
v -14.580302 -13.070312 -2.043435
v -14.864173 -13.070486 -2.081698
v -14.704192 -12.971482 -2.167843
v -14.704221 -12.924891 -2.071717
v -14.704078 -13.159452 -2.041229
v -14.704077 -13.161195 -2.167843
v -14.041852 11.923604 2.720441
v -14.063592 11.722461 2.720441
v -14.066914 11.691731 2.812474
v -14.041281 11.928892 2.831308
v -14.119799 11.816063 2.720427
v -13.932974 11.795870 2.720427
v -13.932974 11.795870 2.814698
v -14.128981 11.817055 2.832721
v -15.349937 3.803214 1.170231
v -15.251343 4.007837 1.170231
v -15.227966 4.056354 1.278564
v -15.324671 3.855653 1.278564
v -15.197769 3.901925 1.170183
v -15.385014 3.992146 1.170183
v -15.397015 3.997928 1.290042
v -15.229592 3.917259 1.279241
v -11.380850 -6.974325 -1.998470
v -11.519810 -7.106869 -1.998470
v -11.536537 -7.122823 -1.886525
v -11.337211 -6.932701 -1.889745
v -11.509787 -6.941728 -1.998470
v -11.365967 -7.092509 -1.998470
v -11.361145 -7.097564 -1.903719
v -11.507680 -6.943936 -1.889580
v -14.634491 10.885571 2.607236
v -14.479259 11.013771 2.607236
v -14.455544 11.033357 2.695861
v -14.638573 10.882201 2.713997
v -14.504245 10.908036 2.607222
v -14.623318 11.052217 2.607222
v -14.623318 11.052217 2.698002
v -14.498393 10.900949 2.715358
v -10.017280 -2.303578 -1.306642
v -10.110127 -2.573087 -1.306642
v -10.132142 -2.636988 -1.213454
v -10.041074 -2.372646 -1.213454
v -10.192448 -2.448946 -1.306683
v -9.945827 -2.533909 -1.306683
v -9.930021 -2.539354 -1.203580
v -10.150534 -2.463386 -1.212872
v -9.139203 14.617520 2.630361
v -9.295611 14.528205 2.630361
v -9.319506 14.514561 2.715885
v -9.135091 14.619868 2.733386
v -9.257446 14.617599 2.630347
v -9.174489 14.472325 2.630347
v -9.174489 14.472325 2.717951
v -9.261523 14.624739 2.734699
v -8.990592 7.248138 0.822035
v -9.078790 7.090145 0.822035
v -9.089406 7.071127 0.919955
v -8.962893 7.297755 0.917139
v -9.115732 7.241594 0.822035
v -8.944299 7.145893 0.822035
v -8.938551 7.142684 0.904915
v -9.113222 7.240192 0.917283
v -14.062172 3.420318 0.832253
v -13.917435 3.547322 0.832253
v -13.892999 3.568764 0.912545
v -14.087075 3.398466 0.927992
v -13.918769 3.407530 0.832193
v -14.072634 3.582879 0.832193
v -14.015168 3.517390 0.945165
v -13.907660 3.394871 0.910848
v -9.724830 -7.044078 -2.404761
v -9.727932 -7.071038 -2.097195
v -9.703007 -6.854434 -2.174831
v -9.694524 -6.780722 -2.404761
v -9.927642 -6.912192 -2.404761
v -9.654940 -6.943573 -2.404761
v -9.562902 -6.954164 -2.134545
v -9.881761 -6.917471 -2.154117
v -12.812801 0.287007 -0.125811
v -12.668005 0.339058 -0.125811
v -12.643559 0.347845 -0.001478
v -12.837715 0.278051 0.022442
v -12.709926 0.235513 -0.125904
v -12.772985 0.410934 -0.125904
v -12.749434 0.345418 0.049034
v -12.705373 0.222849 -0.004107
v 0.585868 13.396944 0.784194
v 0.408077 13.571239 0.784194
v 0.378060 13.600666 0.860185
v 0.616459 13.366955 0.874805
v 0.588445 13.583079 0.784137
v 0.377287 13.367685 0.784137
v 0.456151 13.448132 0.891058
v 0.603690 13.598630 0.858578
v -14.271778 7.655018 1.813296
v -14.116975 7.644253 1.813296
v -14.140301 7.645875 1.915970
v -14.337770 7.659607 1.884391
v -14.221656 7.720667 1.813296
v -14.219402 7.753078 1.892629
v -14.230749 7.589910 1.917790
v -14.230833 7.588697 1.813296
v -10.689238 -0.124272 -0.467992
v -10.671481 -0.171811 -0.668654
v -10.614266 -0.324992 -0.668654
v -10.592712 -0.382700 -0.467992
v -10.705492 -0.294083 -0.668730
v -10.560919 -0.240084 -0.668730
v -10.502090 -0.218111 -0.459258
v -10.719671 -0.299379 -0.445520
v -12.979908 -4.133473 -1.113366
v -12.988674 -4.308457 -1.113366
v -12.987353 -4.282091 -0.948927
v -12.976171 -4.058878 -0.999502
v -12.904703 -4.188617 -1.113366
v -12.868069 -4.190452 -0.986310
v -13.052507 -4.181213 -0.946012
v -13.053878 -4.181144 -1.113366
v -5.056135 0.998757 -1.651830
v -5.019404 1.029270 -1.746432
v -4.901049 1.127589 -1.746432
v -4.856461 1.164628 -1.651830
v -4.900229 1.036958 -1.746467
v -4.993022 1.148662 -1.746467
v -5.030782 1.194116 -1.647713
v -4.891128 1.026003 -1.641236
v -15.860750 -4.266273 -0.529247
v -15.705417 -4.058835 -0.529247
v -15.692580 -4.041692 -0.442448
v -15.877405 -4.288515 -0.391796
v -15.700320 -4.239225 -0.529191
v -15.897565 -4.091524 -0.529191
v -15.846031 -4.130114 -0.431264
v -15.669545 -4.262269 -0.417317
v -15.971029 -10.259656 -1.499545
v -15.782840 -10.352904 -1.499545
v -15.754089 -10.367150 -1.417185
v -15.975977 -10.257204 -1.400331
v -15.894176 -10.374131 -1.499557
v -15.807567 -10.199339 -1.499557
v -15.807567 -10.199339 -1.415195
v -15.898434 -10.382722 -1.399066
v -11.200383 12.396948 2.545172
v -11.244948 12.433835 2.459439
v -11.388546 12.552695 2.459439
v -11.442643 12.597473 2.545172
v -11.280828 12.573997 2.459406
v -11.393009 12.438468 2.459406
v -11.438657 12.383320 2.548904
v -11.269827 12.587289 2.554774
v -12.292879 -13.524373 -2.829687
v -12.044392 -13.512020 -2.829687
v -12.081834 -13.513882 -2.736671
v -12.398808 -13.529639 -2.765279
v -12.225595 -13.410315 -2.829687
v -12.228181 -13.358291 -2.757817
v -12.215160 -13.620206 -2.735022
v -12.215063 -13.622151 -2.829687
v 1.256171 15.310924 1.192194
v 1.453946 15.272758 1.192194
v 1.470290 15.269605 1.277421
v 1.234966 15.315015 1.327155
v 1.329557 15.207943 1.192249
v 1.365846 15.395999 1.192249
v 1.356365 15.346867 1.288402
v 1.323895 15.178602 1.302096
v -13.044079 1.623234 0.249875
v -13.252131 1.613024 0.249875
v -13.269323 1.612180 0.324553
v -13.021771 1.624329 0.368131
v -13.143082 1.708672 0.249923
v -13.133372 1.510844 0.249923
v -13.135909 1.562530 0.334174
v -13.144596 1.739537 0.346174
v -13.418476 10.380231 2.309925
v -13.435631 10.527493 2.309925
v -13.437696 10.545218 2.402632
v -13.413089 10.333984 2.399965
v -13.338470 10.444582 2.309925
v -13.498259 10.425967 2.309925
v -13.503615 10.425344 2.388393
v -13.340810 10.444309 2.400102
v -8.525867 0.394753 -0.952060
v -8.399540 0.236140 -0.952060
v -8.380240 0.211908 -0.868760
v -8.529189 0.398923 -0.851714
v -8.505572 0.263190 -0.952073
v -8.358251 0.380525 -0.952073
v -8.358251 0.380525 -0.866748
v -8.512813 0.257423 -0.850435
v -13.459221 -8.534820 -1.808944
v -13.313804 -8.645812 -1.808944
v -13.289252 -8.664551 -1.733645
v -13.484241 -8.515722 -1.719158
v -13.444248 -8.670774 -1.809000
v -13.309781 -8.494602 -1.809000
v -13.360002 -8.560399 -1.703053
v -13.453957 -8.683494 -1.735236
v -7.077138 -3.179234 -2.283224
v -7.035275 -3.160943 -2.423489
v -6.900381 -3.102006 -2.423489
v -6.849563 -3.079803 -2.283224
v -6.923696 -3.185525 -2.423542
v -6.979321 -3.058212 -2.423542
v -7.001955 -3.006406 -2.277118
v -6.918240 -3.198011 -2.267515
v -13.970212 -6.354609 -1.363868
v -13.764949 -6.220355 -1.363868
v -13.716280 -6.188523 -1.260924
v -13.917609 -6.320203 -1.260924
v -13.774458 -6.348167 -1.363913
v -13.897309 -6.160336 -1.363913
v -13.905183 -6.148298 -1.250017
v -13.795337 -6.316245 -1.260282
v -12.512013 1.543198 0.145832
v -12.484707 1.488348 0.060355
v -12.396722 1.311609 0.060355
v -12.363576 1.245027 0.145832
v -12.510158 1.337242 0.060323
v -12.343350 1.420282 0.060323
v -12.275474 1.454073 0.149552
v -12.526517 1.329098 0.155404
v -15.665601 -5.436415 -0.631919
v -15.667515 -5.359808 -0.777073
v -15.673683 -5.112962 -0.777073
v -15.676007 -5.019970 -0.631919
v -15.558704 -5.202044 -0.777128
v -15.791678 -5.207865 -0.777128
v -15.886478 -5.210234 -0.625601
v -15.535855 -5.201472 -0.615664
v -14.388421 3.140850 0.833760
v -14.569161 3.038440 0.833760
v -14.596774 3.022794 0.979244
v -14.383669 3.143543 1.009015
v -14.524798 3.141397 0.833738
v -14.429679 2.973523 0.833738
v -14.429679 2.973523 0.982758
v -14.529473 3.149647 1.011249
v -13.680993 -3.552409 -0.557992
v -13.725809 -3.546556 -0.792916
v -13.870216 -3.527696 -0.792916
v -13.924618 -3.520590 -0.557992
v -13.807846 -3.468797 -0.793005
v -13.825647 -3.605089 -0.793005
v -13.832891 -3.660548 -0.547766
v -13.806101 -3.455430 -0.531682
v -13.786679 -8.091171 -1.614938
v -13.767866 -8.114125 -1.368625
v -13.919021 -7.929710 -1.430800
v -13.970461 -7.866952 -1.614938
v -14.044607 -8.150096 -1.614938
v -13.812430 -7.959793 -1.614938
v -13.734072 -7.895566 -1.398537
v -14.005545 -8.118078 -1.414211
v -11.450978 14.621175 2.941807
v -11.268238 14.503447 2.941807
v -11.237386 14.483570 3.022891
v -11.482420 14.641432 3.038491
v -11.420393 14.461549 2.941746
v -11.277765 14.682938 2.941746
v -11.331034 14.600253 3.055833
v -11.430691 14.445565 3.021177
v -13.019698 -4.628210 -1.187445
v -13.223007 -4.644269 -1.187445
v -13.257332 -4.646980 -1.110687
v -12.984716 -4.625447 -1.095919
v -13.133289 -4.526483 -1.187502
v -13.113833 -4.772793 -1.187502
v -13.121099 -4.680801 -1.079502
v -13.134693 -4.508701 -1.112309
v -10.046739 -9.937095 -2.900665
v -10.128245 -9.779473 -2.900665
v -10.147572 -9.742101 -2.742587
v -10.067627 -9.896701 -2.742587
v -10.036957 -9.795731 -2.900733
v -10.181191 -9.870316 -2.900733
v -10.190436 -9.875096 -2.725839
v -10.061470 -9.808407 -2.741601
v -12.305635 -6.441548 -1.705962
v -12.514956 -6.440613 -1.705962
v -12.483416 -6.440754 -1.593539
v -12.216403 -6.441947 -1.628116
v -12.367355 -6.534307 -1.705962
v -12.367551 -6.578132 -1.619096
v -12.366566 -6.357500 -1.591545
v -12.366558 -6.355861 -1.705962
v -8.118501 -5.561696 -2.740397
v -8.085451 -5.773831 -2.740397
v -8.081472 -5.799366 -2.465369
v -8.128880 -5.495076 -2.473279
v -8.230680 -5.659283 -2.740397
v -8.000497 -5.623422 -2.740397
v -7.992781 -5.622220 -2.507611
v -8.227308 -5.658758 -2.472873
v -11.647095 -6.730759 -1.894192
v -11.647741 -6.750967 -1.751811
v -11.642550 -6.588609 -1.787751
v -11.640783 -6.533357 -1.894192
v -11.805788 -6.645302 -1.894192
v -11.601381 -6.651838 -1.894192
v -11.532394 -6.654044 -1.769101
v -11.771398 -6.646402 -1.778162
v -14.778495 0.157346 0.272008
v -14.871572 0.338204 0.272008
v -14.893641 0.381086 0.451878
v -14.802348 0.203694 0.451878
v -14.766967 0.319364 0.271930
v -14.932465 0.234192 0.271930
v -14.943072 0.228733 0.470935
v -14.795094 0.304889 0.453001
v -9.082369 15.233364 2.757624
v -8.870221 15.199459 2.757624
v -8.902187 15.204568 2.958296
v -9.172807 15.247818 2.896577
v -9.005168 15.317723 2.757624
v -8.998070 15.362140 2.912677
v -9.033807 15.138529 2.961853
v -9.034072 15.136868 2.757624
v -14.229119 -3.056687 -0.430156
v -14.230565 -3.118509 -0.641671
v -14.235225 -3.317713 -0.641671
v -14.236979 -3.392758 -0.430156
v -14.324424 -3.241426 -0.641751
v -14.136415 -3.245822 -0.641751
v -14.059911 -3.247612 -0.420949
v -14.342863 -3.240994 -0.406468
v -14.636553 -14.934800 -2.440435
v -14.841822 -14.892409 -2.440435
v -14.810892 -14.898796 -2.327732
v -14.549048 -14.952872 -2.362395
v -14.715511 -15.013617 -2.440435
v -14.724387 -15.056592 -2.353353
v -14.679705 -14.840233 -2.325734
v -14.679373 -14.838625 -2.440435
v -11.449484 -9.336150 -2.242377
v -11.402199 -9.311745 -2.377651
v -11.249833 -9.233105 -2.377651
v -11.192434 -9.203479 -2.242377
v -11.270658 -9.331934 -2.377702
v -11.344879 -9.188131 -2.377702
v -11.375081 -9.129616 -2.236489
v -11.263379 -9.346038 -2.227228
v -13.856509 -1.429864 -0.301901
v -13.757080 -1.285916 -0.301901
v -13.745111 -1.268589 -0.195403
v -13.887734 -1.475070 -0.198466
v -13.735462 -1.435082 -0.301901
v -13.891656 -1.327194 -0.301901
v -13.896892 -1.323577 -0.211760
v -13.737749 -1.433502 -0.198309
v -11.289717 -0.594883 -0.646928
v -11.301372 -0.574217 -0.456652
v -11.207733 -0.740255 -0.504682
v -11.175867 -0.796759 -0.646928
v -11.078488 -0.583997 -0.646928
v -11.287529 -0.701887 -0.646928
v -11.358079 -0.741675 -0.479759
v -11.113659 -0.603832 -0.491867
v -10.848714 -0.935974 -0.772496
v -10.991547 -0.960954 -0.772496
v -11.013368 -0.964770 -0.684465
v -10.844958 -0.935318 -0.666450
v -10.938252 -0.903657 -0.772509
v -10.915051 -1.036322 -0.772509
v -10.915051 -1.036322 -0.682338
v -10.939393 -0.897137 -0.665099
v -12.056031 7.200567 1.363500
v -12.131835 7.352910 1.363500
v -12.138100 7.365499 1.437450
v -12.047904 7.184233 1.480604
v -12.024533 7.302643 1.363547
v -12.169389 7.230565 1.363547
v -12.131543 7.249397 1.446978
v -12.001932 7.313890 1.458861
v -10.252067 10.880825 1.913349
v -10.091739 11.034782 1.913349
v -10.064671 11.060775 1.995804
v -10.279653 10.854335 2.011667
v -10.086035 10.873507 1.913288
v -10.272554 11.067745 1.913288
v -10.202892 10.995201 2.029303
v -10.072569 10.859485 1.994061
v -7.397869 12.494461 1.874132
v -7.614946 12.515808 1.874132
v -7.648110 12.519070 1.956758
v -7.392161 12.493899 1.973667
v -7.514618 12.577376 1.874120
v -7.534446 12.375752 1.874120
v -7.534446 12.375752 1.958754
v -7.513644 12.587286 1.974935
v -11.191579 -5.919368 -1.778461
v -11.185479 -5.960754 -1.900570
v -11.165825 -6.094110 -1.900570
v -11.158421 -6.144348 -1.778461
v -11.234016 -6.053436 -1.900616
v -11.108155 -6.034886 -1.900616
v -11.056941 -6.027338 -1.773146
v -11.246361 -6.055255 -1.764786
v -1.907795 8.068771 -0.350756
v -1.775162 8.159904 -0.350756
v -1.759197 8.170874 -0.228379
v -1.949447 8.040153 -0.231899
v -1.805468 8.024615 -0.350756
v -1.904353 8.168532 -0.350756
v -1.907668 8.173357 -0.247175
v -1.806916 8.026723 -0.231718
v -14.707515 0.271651 0.208521
v -14.439301 0.271525 0.208521
v -14.375708 0.271496 0.306619
v -14.638780 0.271619 0.306619
v -14.524562 0.160286 0.208478
v -14.524446 0.405721 0.208478
v -14.524439 0.421452 0.317012
v -14.524542 0.201999 0.307231
v -15.443661 16.076519 3.944546
v -15.441657 16.019991 3.838989
v -15.435199 15.837851 3.838989
v -15.432766 15.769234 3.944546
v -15.520748 15.902711 3.838949
v -15.348843 15.908806 3.838949
v -15.278893 15.911286 3.949141
v -15.537608 15.902113 3.956367
v -12.536031 -12.181540 -2.534331
v -12.673533 -12.081161 -2.534331
v -12.652815 -12.096286 -2.422922
v -12.477414 -12.224330 -2.457187
v -12.620914 -12.213255 -2.534331
v -12.641931 -12.242043 -2.448249
v -12.536128 -12.097110 -2.420947
v -12.535342 -12.096033 -2.534331
v -13.007348 12.843800 2.792410
v -12.758983 13.001852 2.792410
v -12.738459 13.014914 2.876115
v -13.033978 12.826854 2.924961
v -12.826008 12.808117 2.792464
v -12.976294 13.044278 2.792464
v -12.937029 12.982576 2.886900
v -12.802560 12.771271 2.900350
v -7.454147 3.623586 -0.315121
v -7.422159 3.775104 -0.315121
v -7.426979 3.752273 -0.205895
v -7.467783 3.558995 -0.239489
v -7.512121 3.682178 -0.315121
v -7.543843 3.688875 -0.230726
v -7.384138 3.655159 -0.203959
v -7.382951 3.654909 -0.315121
v -15.334760 2.110328 0.790418
v -15.336979 2.088503 0.961802
v -15.319152 2.263853 0.918541
v -15.313085 2.323527 0.790418
v -15.500109 2.214761 0.790418
v -15.279344 2.192316 0.790418
v -15.204837 2.184741 0.940990
v -15.462966 2.210984 0.930084
v -15.810614 0.414851 0.500049
v -15.696562 0.617880 0.500049
v -15.677307 0.652158 0.582028
v -15.830237 0.379918 0.597799
v -15.641906 0.457894 0.499988
v -15.887876 0.596068 0.499988
v -15.796010 0.544463 0.615333
v -15.624147 0.447919 0.580295
v -12.330555 1.495041 0.093046
v -12.516144 1.569401 0.093046
v -12.531481 1.575546 0.260293
v -12.310657 1.487068 0.357890
v -12.382730 1.609200 0.093153
v -12.453435 1.432731 0.093153
v -12.434962 1.478837 0.281842
v -12.371697 1.636733 0.308716
v -7.604290 -3.374782 -2.151548
v -7.639851 -3.176539 -2.151548
v -7.644132 -3.152676 -2.027190
v -7.593122 -3.437039 -2.030767
v -7.501182 -3.280845 -2.151548
v -7.716290 -3.319431 -2.151548
v -7.723501 -3.320724 -2.046291
v -7.504332 -3.281410 -2.030583
v -9.959718 6.008531 0.718942
v -9.955291 5.991516 0.876293
v -9.990860 6.128217 0.836574
v -10.002965 6.174738 0.718942
v -10.113088 6.040812 0.718942
v -9.940982 6.085594 0.718942
v -9.882897 6.100708 0.857184
v -10.084131 6.048347 0.847171
v -4.918007 14.450864 1.979703
v -4.836703 14.614141 1.979703
v -4.826917 14.633796 2.089897
v -4.943540 14.399588 2.086728
v -4.792310 14.463399 1.979703
v -4.969478 14.551619 1.979703
v -4.975418 14.554577 2.072972
v -4.794904 14.464690 2.086890
v -14.986603 0.264068 0.288601
v -15.008636 0.253005 0.471521
v -14.831611 0.341883 0.425348
v -14.771367 0.372129 0.288601
v -14.987325 0.483855 0.288601
v -14.875428 0.260981 0.288601
v -14.837664 0.185762 0.449308
v -14.968499 0.446357 0.437668
v -15.955408 5.579588 1.652103
v -15.866805 5.660824 1.652103
v -15.880156 5.648584 1.806896
v -15.993178 5.544958 1.759288
v -15.965564 5.642760 1.652103
v -15.982572 5.661310 1.771707
v -15.896946 5.567920 1.809641
v -15.896310 5.567226 1.652103
v -14.873528 9.459692 2.328710
v -14.853781 9.470593 2.490729
v -15.012435 9.383006 2.449832
v -15.066426 9.353200 2.328710
v -14.865001 9.258790 2.328710
v -14.975272 9.458534 2.328710
v -15.012488 9.525948 2.471054
v -14.883554 9.292397 2.460744
v -13.572277 -4.036285 -0.952881
v -13.706006 -4.088707 -0.952881
v -13.685856 -4.080808 -0.739162
v -13.515269 -4.013938 -0.804894
v -13.588143 -4.111074 -0.952881
v -13.577168 -4.139071 -0.787747
v -13.632422 -3.998117 -0.735373
v -13.632833 -3.997070 -0.952881
v -14.503792 -14.840425 -2.357197
v -14.507565 -14.786035 -2.448649
v -14.519725 -14.610778 -2.448649
v -14.524305 -14.544754 -2.357197
v -14.435195 -14.670472 -2.448684
v -14.600603 -14.681949 -2.448684
v -14.667911 -14.686619 -2.353217
v -14.418973 -14.669347 -2.346956
v -13.708763 -3.740164 -0.846635
v -13.867134 -3.767579 -0.846635
v -13.891329 -3.771767 -0.749475
v -13.704599 -3.739443 -0.729592
v -13.807950 -3.704170 -0.846650
v -13.782487 -3.851267 -0.846650
v -13.782487 -3.851267 -0.747128
v -13.809201 -3.696941 -0.728101
v -7.424041 -2.955604 -2.064005
v -7.438290 -3.017493 -2.172153
v -7.484202 -3.216912 -2.172153
v -7.501499 -3.292038 -2.064005
v -7.558142 -3.121713 -2.172194
v -7.369930 -3.165045 -2.172194
v -7.293343 -3.182678 -2.059298
v -7.576601 -3.117463 -2.051893
v -12.654486 3.683839 0.627170
v -12.809752 3.513972 0.627170
v -12.846565 3.473696 0.722763
v -12.694276 3.640307 0.722763
v -12.830902 3.632355 0.627128
v -12.675461 3.490276 0.627128
v -12.665499 3.481170 0.732891
v -12.804484 3.608208 0.723360
v -11.866563 -13.796153 -2.950023
v -12.047609 -13.984979 -2.950023
v -12.090536 -14.029749 -2.852952
v -11.912960 -13.844543 -2.852952
v -12.068435 -13.849876 -2.950065
v -11.895646 -14.015547 -2.950065
v -11.884571 -14.026165 -2.842668
v -12.039069 -13.878033 -2.852346
v -16.043926 10.762090 2.818369
v -15.948421 10.972766 2.818369
v -15.932298 11.008334 2.898807
v -16.060358 10.725841 2.914282
v -15.880650 10.819115 2.818309
v -16.135883 10.934817 2.818309
v -16.040558 10.891604 2.931486
v -15.862223 10.810761 2.897106
v -14.443949 -8.304393 -1.321730
v -14.500864 -8.263941 -1.474658
v -14.684257 -8.133595 -1.474658
v -14.753345 -8.084491 -1.321730
v -14.556480 -8.098404 -1.474716
v -14.679502 -8.271491 -1.474716
v -14.729561 -8.341923 -1.315074
v -14.544415 -8.081429 -1.304604
v -11.138779 11.717780 2.224602
v -11.138436 11.738955 2.329857
v -11.141190 11.568826 2.303288
v -11.142126 11.510929 2.224602
v -10.971161 11.630902 2.224602
v -11.185352 11.634368 2.224602
v -11.257642 11.635538 2.317075
v -11.007197 11.631485 2.310377
v -11.136864 11.202602 2.112027
v -10.956334 11.162536 2.112027
v -10.983537 11.168573 2.212885
v -11.213822 11.219683 2.181865
v -11.066184 11.271105 2.112027
v -11.057796 11.308901 2.189957
v -11.100028 11.118617 2.214673
v -11.100341 11.117203 2.112027
v -11.656225 -4.983384 -1.537003
v -11.751262 -4.787644 -1.537003
v -11.765780 -4.757740 -1.445969
v -11.653728 -4.988531 -1.427341
v -11.646588 -4.840862 -1.537017
v -11.828394 -4.929133 -1.537017
v -11.828394 -4.929133 -1.443770
v -11.637652 -4.836524 -1.425943
v -6.554887 10.268255 1.390820
v -6.599905 10.303078 1.217016
v -6.744963 10.415285 1.217016
v -6.799609 10.457557 1.390820
v -6.639739 10.439730 1.216950
v -6.745640 10.302824 1.216950
v -6.788733 10.247115 1.398386
v -6.629352 10.453156 1.410285
v -7.334600 -3.412572 -2.340944
v -7.191442 -3.232908 -2.340944
v -7.167272 -3.202576 -2.258268
v -7.359233 -3.443485 -2.242362
v -7.163517 -3.397336 -2.341006
v -7.381180 -3.223898 -2.341006
v -7.299887 -3.288674 -2.224679
v -7.147803 -3.409857 -2.260016
v -7.005126 9.565339 1.193614
v -7.053933 9.551755 1.080993
v -7.211201 9.507986 1.080993
v -7.270448 9.491497 1.193614
v -7.172633 9.596072 1.080950
v -7.131323 9.447641 1.080950
v -7.114514 9.387242 1.198516
v -7.176684 9.610629 1.206227
v -11.765229 9.835276 1.920646
v -11.877516 9.992476 1.920646
v -11.860597 9.968789 2.076005
v -11.717362 9.768262 2.028223
v -11.867983 9.831409 1.920646
v -11.900894 9.807900 2.040687
v -11.735200 9.926254 2.078760
v -11.733969 9.927134 1.920646
v -11.765791 14.379451 2.989434
v -11.926034 14.557691 2.989434
v -11.939277 14.572420 3.066793
v -11.748610 14.360340 3.111936
v -11.761466 14.529860 2.989484
v -11.930947 14.377491 2.989484
v -11.886667 14.417300 3.076760
v -11.735023 14.553633 3.089190
v -8.189864 -0.780420 -1.237459
v -8.184901 -0.808449 -1.073300
v -8.224778 -0.583255 -1.114738
v -8.238349 -0.506619 -1.237459
v -8.433259 -0.708650 -1.237459
v -8.149742 -0.658444 -1.237459
v -8.054056 -0.641500 -1.093236
v -8.385559 -0.700203 -1.103682
v -8.167889 -2.861882 -1.790562
v -7.976620 -2.786077 -1.790562
v -7.953598 -2.776953 -1.520647
v -8.227955 -2.885688 -1.528410
v -8.052930 -2.946064 -1.790562
v -8.135183 -2.738524 -1.790562
v -8.137941 -2.731567 -1.562104
v -8.054134 -2.943025 -1.528012
v -13.227879 12.279163 2.695007
v -13.341379 12.153771 2.695007
v -13.324277 12.172665 2.839825
v -13.179494 12.332617 2.795285
v -13.205389 12.191994 2.695007
v -13.179136 12.168231 2.806903
v -13.311304 12.287865 2.842392
v -13.312286 12.288754 2.695007
v -12.924177 3.458878 0.814083
v -12.974809 3.498986 0.687438
v -13.137954 3.628224 0.687438
v -13.199414 3.676911 0.814083
v -13.018222 3.654584 0.687390
v -13.140197 3.500608 0.687390
v -13.189830 3.437952 0.819596
v -13.006259 3.669686 0.828267
v -14.206902 -0.180256 0.350155
v -14.193462 -0.132512 0.069850
v -14.150157 0.021330 0.069850
v -14.133843 0.079286 0.350155
v -14.096052 -0.055711 0.069744
v -14.241248 -0.014840 0.069744
v -14.300331 0.001791 0.362355
v -14.081812 -0.059720 0.381546
v -9.028989 -8.111254 -2.945611
v -9.153031 -7.928702 -2.945611
v -9.167963 -7.906728 -2.683519
v -8.990034 -8.168583 -2.691057
v -8.967702 -7.971229 -2.945611
v -9.165784 -8.105824 -2.945611
v -9.172424 -8.110336 -2.723774
v -8.970603 -7.973201 -2.690670
vn -0.4784 -0.8781 -0.0000
vn 0.8781 -0.4785 -0.0000
vn -0.4735 -0.8808 -0.0000
vn 0.8808 -0.4735 -0.0000
vn 0.5250 0.8511 -0.0000
vn -0.8511 0.5250 -0.0000
vn -0.3821 -0.9241 -0.0000
vn 0.9241 -0.3821 -0.0000
vn 0.6609 -0.7504 -0.0000
vn 0.7504 0.6609 -0.0000
vn 0.6354 -0.7721 -0.0000
vn 0.7722 0.6354 -0.0000
vn 0.7169 -0.6972 -0.0000
vn 0.6972 0.7169 -0.0000
vn 0.8574 0.5147 -0.0000
vn -0.5147 0.8574 -0.0000
vn 0.6207 0.7840 -0.0000
vn -0.7840 0.6207 -0.0000
vn -0.4603 0.8878 -0.0000
vn -0.8878 -0.4603 -0.0000
vn 0.4797 0.8774 -0.0000
vn -0.8774 0.4797 -0.0000
vn -0.4568 0.8896 -0.0000
vn -0.8896 -0.4568 -0.0000
vn -0.1325 0.9912 -0.0000
vn -0.9912 -0.1325 -0.0000
vn -0.5848 -0.8111 -0.0000
vn 0.8111 -0.5848 -0.0000
vn -0.2586 -0.9660 -0.0000
vn 0.9660 -0.2586 -0.0000
vn -0.8641 0.5033 -0.0000
vn -0.5033 -0.8641 -0.0000
vn 0.6294 -0.7771 -0.0000
vn 0.7771 0.6294 -0.0000
vn -0.7207 -0.6932 -0.0000
vn 0.6933 -0.7207 -0.0000
vn -0.0357 -0.9994 -0.0000
vn 0.9994 -0.0357 -0.0000
vn 0.9720 0.2349 -0.0000
vn -0.2349 0.9720 -0.0000
vn -0.3129 0.9498 -0.0000
vn -0.9498 -0.3130 -0.0000
vn -0.3975 0.9176 -0.0000
vn -0.9176 -0.3975 -0.0000
vn -0.2030 -0.9792 -0.0000
vn 0.9792 -0.2030 -0.0000
vn -0.4258 0.9048 -0.0000
vn -0.9048 -0.4258 -0.0000
vn 0.9902 -0.1394 -0.0000
vn 0.1394 0.9902 -0.0000
vn 0.5108 -0.8597 -0.0000
vn 0.8597 0.5108 -0.0000
vn 0.8443 -0.5359 -0.0000
vn 0.5359 0.8443 -0.0000
vn -0.9740 0.2266 -0.0000
vn -0.2266 -0.9740 -0.0000
vn 0.9734 0.2292 -0.0000
vn -0.2292 0.9734 -0.0000
vn 0.5911 0.8066 -0.0000
vn -0.8066 0.5911 -0.0000
vn 0.8926 -0.4508 -0.0000
vn 0.4508 0.8926 -0.0000
vn 0.1439 0.9896 -0.0000
vn -0.9896 0.1439 -0.0000
vn -0.8703 0.4926 -0.0000
vn -0.4926 -0.8703 -0.0000
vn 0.1183 -0.9930 -0.0000
vn 0.9930 0.1183 -0.0000
vn -0.3231 0.9464 -0.0000
vn -0.9464 -0.3231 -0.0000
vn 0.7310 -0.6823 -0.0000
vn 0.6824 0.7310 -0.0000
vn 0.8256 0.5643 -0.0000
vn -0.5643 0.8256 -0.0000
vn 0.6688 0.7434 -0.0000
vn -0.7434 0.6688 -0.0000
vn -0.0430 -0.9991 -0.0000
vn 0.9991 -0.0430 -0.0000
vn 0.6928 -0.7211 -0.0000
vn 0.7211 0.6928 -0.0000
vn 0.8847 0.4662 -0.0000
vn -0.4662 0.8847 -0.0000
vn -0.6207 0.7840 -0.0000
vn -0.7840 -0.6207 -0.0000
vn -0.7759 0.6308 -0.0000
vn -0.6308 -0.7759 -0.0000
vn -0.4988 -0.8667 -0.0000
vn 0.8667 -0.4989 -0.0000
vn 0.8027 0.5964 -0.0000
vn -0.5964 0.8027 -0.0000
vn 0.6173 0.7867 -0.0000
vn -0.7867 0.6173 -0.0000
vn -0.6697 -0.7426 -0.0000
vn 0.7426 -0.6697 -0.0000
vn 0.9998 -0.0193 -0.0000
vn 0.0193 0.9998 -0.0000
vn -0.6447 0.7644 -0.0000
vn -0.7644 -0.6447 -0.0000
vn 0.9298 -0.3680 -0.0000
vn 0.3680 0.9298 -0.0000
vn -0.9332 0.3594 -0.0000
vn -0.3594 -0.9332 -0.0000
vn -0.1668 -0.9860 -0.0000
vn 0.9860 -0.1668 -0.0000
vn 0.9934 0.1148 -0.0000
vn -0.1148 0.9934 -0.0000
vn 0.9358 -0.3526 -0.0000
vn 0.3526 0.9358 -0.0000
vn 0.9645 -0.2642 -0.0000
vn 0.2642 0.9645 -0.0000
vn 0.5555 -0.8315 -0.0000
vn 0.8315 0.5555 -0.0000
vn -0.8389 0.5443 -0.0000
vn -0.5443 -0.8389 -0.0000
vn 0.1744 0.9847 -0.0000
vn -0.9847 0.1745 -0.0000
vn 0.0901 -0.9959 -0.0000
vn 0.9959 0.0901 -0.0000
vn -0.8910 -0.4540 -0.0000
vn 0.4540 -0.8910 -0.0000
vn -0.9394 0.3428 -0.0000
vn -0.3428 -0.9394 -0.0000
vn 0.1759 -0.9844 -0.0000
vn 0.9844 0.1758 -0.0000
vn 0.9793 -0.2026 -0.0000
vn 0.2026 0.9793 -0.0000
vn 0.3512 0.9363 -0.0000
vn -0.9363 0.3512 -0.0000
vn 0.7524 0.6587 -0.0000
vn -0.6588 0.7524 -0.0000
vn 0.0531 -0.9986 -0.0000
vn 0.9986 0.0531 -0.0000
vn -0.8904 0.4551 -0.0000
vn -0.4551 -0.8904 -0.0000
vn -0.8251 -0.5651 -0.0000
vn 0.5651 -0.8251 -0.0000
vn -0.9983 -0.0581 -0.0000
vn 0.0581 -0.9983 -0.0000
vn -0.6087 0.7934 -0.0000
vn -0.7934 -0.6087 -0.0000
vn -0.7045 0.7097 -0.0000
vn -0.7097 -0.7045 -0.0000
vn 0.9896 0.1440 -0.0000
vn -0.1440 0.9896 -0.0000
vn -0.9522 -0.3053 -0.0000
vn 0.3053 -0.9522 -0.0000
vn 0.9990 -0.0441 -0.0000
vn 0.0441 0.9990 -0.0000
vn -0.6571 0.7538 -0.0000
vn -0.7538 -0.6571 -0.0000
vn -0.7424 0.6700 -0.0000
vn -0.6700 -0.7424 -0.0000
vn -0.0251 0.9997 -0.0000
vn -0.9997 -0.0251 -0.0000
vn -0.7215 -0.6924 -0.0000
vn 0.6924 -0.7215 -0.0000
vn -0.0728 -0.9973 -0.0000
vn 0.9973 -0.0728 -0.0000
vn 0.0006 -1.0000 -0.0000
vn 1.0000 0.0006 -0.0000
vn -0.9942 0.1075 -0.0000
vn -0.1075 -0.9942 -0.0000
vn 0.9009 -0.4341 -0.0000
vn 0.4341 0.9009 -0.0000
vn -0.6902 0.7236 -0.0000
vn -0.7236 -0.6902 -0.0000
vn 0.6368 -0.7710 -0.0000
vn 0.7710 0.6368 -0.0000
vn -0.9455 0.3257 -0.0000
vn -0.3257 -0.9455 -0.0000
vn -0.4959 0.8684 -0.0000
vn -0.8684 -0.4959 -0.0000
vn -0.8732 0.4874 -0.0000
vn -0.4874 -0.8732 -0.0000
vn 0.6596 -0.7517 -0.0000
vn 0.7517 0.6596 -0.0000
vn -0.9934 0.1143 -0.0000
vn -0.1143 -0.9934 -0.0000
vn 0.3383 -0.9410 -0.0000
vn 0.9410 0.3383 -0.0000
vn 0.7001 0.7141 -0.0000
vn -0.7141 0.7001 -0.0000
vn -0.0694 -0.9976 -0.0000
vn 0.9976 -0.0694 -0.0000
vn -0.9368 -0.3499 -0.0000
vn 0.3499 -0.9368 -0.0000
vn -0.9987 0.0500 -0.0000
vn -0.0500 -0.9987 -0.0000
vn 0.6390 -0.7692 -0.0000
vn 0.7692 0.6390 -0.0000
vn 0.8005 -0.5994 -0.0000
vn 0.5994 0.8005 -0.0000
vn -0.4440 -0.8960 -0.0000
vn 0.8960 -0.4440 -0.0000
vn 0.6376 0.7703 -0.0000
vn -0.7703 0.6376 -0.0000
vn 0.0497 -0.9988 -0.0000
vn 0.9988 0.0496 -0.0000
vn -0.1895 -0.9819 -0.0000
vn 0.9819 -0.1895 -0.0000
vn -0.0490 0.9988 -0.0000
vn -0.9988 -0.0490 -0.0000
vn 0.9933 0.1157 -0.0000
vn -0.1157 0.9933 -0.0000
vn -0.7822 -0.6230 -0.0000
vn 0.6230 -0.7822 -0.0000
vn -0.6067 -0.7949 -0.0000
vn 0.7949 -0.6067 -0.0000
vn 0.4004 -0.9164 -0.0000
vn 0.9164 0.4004 -0.0000
vn 0.5474 -0.8369 -0.0000
vn 0.8369 0.5474 -0.0000
vn -0.8952 -0.4457 -0.0000
vn 0.4457 -0.8952 -0.0000
vn 0.9997 0.0250 -0.0000
vn -0.0250 0.9997 -0.0000
vn -0.4930 0.8700 -0.0000
vn -0.8700 -0.4930 -0.0000
vn 0.1295 0.9916 -0.0000
vn -0.9916 0.1295 -0.0000
vn -0.7734 -0.6339 -0.0000
vn 0.6339 -0.7734 -0.0000
vn -0.5416 -0.8407 -0.0000
vn 0.8406 -0.5416 -0.0000
vn -0.0787 0.9969 -0.0000
vn -0.9969 -0.0787 -0.0000
vn 0.8883 0.4593 -0.0000
vn -0.4593 0.8883 -0.0000
vn 0.0045 1.0000 -0.0000
vn -1.0000 0.0045 -0.0000
vn -0.9881 -0.1539 -0.0000
vn 0.1539 -0.9881 -0.0000
vn -0.9995 0.0320 -0.0000
vn -0.0320 -0.9995 -0.0000
vn 0.8892 0.4576 -0.0000
vn -0.4576 0.8892 -0.0000
vn -0.1578 -0.9875 -0.0000
vn 0.9875 -0.1578 -0.0000
vn -0.9997 0.0234 -0.0000
vn -0.0234 -0.9997 -0.0000
vn 0.2023 0.9793 -0.0000
vn -0.9793 0.2022 -0.0000
vn 0.4586 -0.8886 -0.0000
vn 0.8886 0.4586 -0.0000
vn 0.8228 -0.5683 -0.0000
vn 0.5683 0.8228 -0.0000
vn 0.8710 0.4912 -0.0000
vn -0.4912 0.8710 -0.0000
vn -0.1723 0.9850 -0.0000
vn -0.9850 -0.1723 -0.0000
vn 0.8953 0.4455 -0.0000
vn -0.4455 0.8953 -0.0000
vn 0.6926 -0.7213 -0.0000
vn 0.7213 0.6926 -0.0000
vn 0.0979 0.9952 -0.0000
vn -0.9952 0.0979 -0.0000
vn -0.9893 -0.1458 -0.0000
vn 0.1458 -0.9893 -0.0000
vn 0.5663 -0.8242 -0.0000
vn 0.8242 0.5663 -0.0000
vn -0.0005 -1.0000 -0.0000
vn 1.0000 -0.0005 -0.0000
vn -0.9994 -0.0354 -0.0000
vn 0.0354 -0.9994 -0.0000
vn 0.5896 0.8077 -0.0000
vn -0.8077 0.5896 -0.0000
vn 0.5369 -0.8437 -0.0000
vn 0.8437 0.5369 -0.0000
vn 0.9784 -0.2066 -0.0000
vn 0.2066 0.9784 -0.0000
vn -0.9949 0.1011 -0.0000
vn -0.1011 -0.9949 -0.0000
vn 0.8719 -0.4898 -0.0000
vn 0.4898 0.8719 -0.0000
vn 0.3719 0.9283 -0.0000
vn -0.9283 0.3719 -0.0000
vn 0.9843 0.1766 -0.0000
vn -0.1766 0.9843 -0.0000
vn -0.9678 -0.2518 -0.0000
vn 0.2518 -0.9678 -0.0000
vn 0.8952 -0.4457 -0.0000
vn 0.4457 0.8952 -0.0000
vn -0.4487 0.8937 -0.0000
vn -0.8937 -0.4487 -0.0000
vn 0.6758 -0.7371 -0.0000
vn 0.7371 0.6758 -0.0000
vn 0.4833 -0.8755 -0.0000
vn 0.8755 0.4833 -0.0000
vn -0.3650 0.9310 -0.0000
vn -0.9310 -0.3650 -0.0000
vn 0.9976 0.0692 -0.0000
vn -0.0692 0.9976 -0.0000
vn -0.1706 0.9853 -0.0000
vn -0.9853 -0.1706 -0.0000
vn -0.9745 0.2244 -0.0000
vn -0.2244 -0.9745 -0.0000
vn -0.7381 0.6747 -0.0000
vn -0.6747 -0.7381 -0.0000
vn -0.7218 0.6921 -0.0000
vn -0.6921 -0.7218 -0.0000
vn 0.9108 -0.4129 -0.0000
vn 0.4129 0.9108 -0.0000
vn 0.5793 0.8151 -0.0000
vn -0.8151 0.5793 -0.0000
vn 0.9999 -0.0162 -0.0000
vn 0.0162 0.9999 -0.0000
vn -0.2167 -0.9762 -0.0000
vn 0.9762 -0.2167 -0.0000
vn 0.8996 0.4368 -0.0000
vn -0.4368 0.8996 -0.0000
vn 0.6119 0.7910 -0.0000
vn -0.7910 0.6119 -0.0000
vn 0.7821 -0.6232 -0.0000
vn 0.6232 0.7821 -0.0000
vn -0.2681 0.9634 -0.0000
vn -0.9634 -0.2681 -0.0000
vn 0.8137 0.5812 -0.0000
vn -0.5812 0.8137 -0.0000
vn 0.7437 0.6686 -0.0000
vn -0.6686 0.7437 -0.0000
vn -0.9847 -0.1744 -0.0000
vn 0.1744 -0.9847 -0.0000
vn 0.3684 -0.9296 -0.0000
vn 0.9296 0.3685 -0.0000
vn -0.7414 0.6711 -0.0000
vn -0.6711 -0.7414 -0.0000
vn 0.6209 0.7839 -0.0000
vn -0.7839 0.6209 -0.0000
vn 0.9626 -0.2710 -0.0000
vn 0.2710 0.9626 -0.0000
vn 0.8271 0.5620 -0.0000
vn -0.5620 0.8271 -0.0000
vn 0.8781 -0.4784 -0.0000
vn 0.6354 -0.7722 -0.0000
vn 0.7721 0.6354 -0.0000
vn 0.8111 -0.5849 -0.0000
vn -0.7207 -0.6933 -0.0000
vn -0.9498 -0.3129 -0.0000
vn 0.9930 0.1182 -0.0000
vn 0.6823 0.7310 -0.0000
vn 0.8667 -0.4988 -0.0000
vn -0.9847 0.1744 -0.0000
vn 0.9844 0.1759 -0.0000
vn -0.6587 0.7524 -0.0000
vn 0.5650 -0.8251 -0.0000
vn 0.9896 0.1439 -0.0000
vn 0.3054 -0.9522 -0.0000
vn 0.6368 -0.7711 -0.0000
vn 0.7711 0.6368 -0.0000
vn 0.9988 0.0497 -0.0000
vn -0.8952 -0.4456 -0.0000
vn -0.5416 -0.8406 -0.0000
vn 0.2022 0.9793 -0.0000
vn -0.9793 0.2023 -0.0000
vn -0.9310 -0.3649 -0.0000
vn 0.6118 0.7910 -0.0000
vn -0.7910 0.6118 -0.0000
vn 0.9297 0.3684 -0.0000
vt 0.199407 0.500208
vt 0.021869 0.609361
vt 0.026417 0.500208
vt 0.318619 0.500194
vt 0.479294 0.593008
vt 0.310722 0.610752
vt 0.587516 0.250000
vt 0.696219 0.438742
vt 0.532955 0.380692
vt 0.931885 0.250000
vt 0.823776 0.442088
vt 0.822774 0.250000
vt 0.038376 0.371048
vt 0.159378 0.250046
vt 0.194166 0.371048
vt 0.420000 0.250000
vt 0.324298 0.384599
vt 0.332846 0.250000
vt 0.548614 0.500208
vt 0.730526 0.577570
vt 0.530599 0.622715
vt 0.802250 0.500257
vt 0.920277 0.587538
vt 0.777322 0.599968
vt 0.683200 0.750259
vt 0.546949 0.843491
vt 0.500000 0.750259
vt 0.966633 0.750219
vt 0.827483 0.844072
vt 0.798992 0.750219
vt 0.046190 0.750308
vt 0.224718 0.829653
vt 0.019909 0.844918
vt 0.292351 0.750248
vt 0.408285 0.861889
vt 0.278991 0.827976
vt 0.183597 0.000000
vt 0.079867 0.150378
vt 0.039548 0.000000
vt 0.406485 0.000000
vt 0.282420 0.163926
vt 0.257324 0.000000
vt 0.574736 0.000000
vt 0.727477 0.180119
vt 0.531923 0.174939
vt 0.943005 0.000000
vt 0.797243 0.175205
vt 0.795077 0.000000
vt 0.947964 0.152455
vt 0.958681 0.395835
vt 0.198931 0.750308
vt 0.225835 0.590819
vt 0.479294 0.500194
vt 0.715504 0.250000
vt 0.067034 0.250046
vt 0.455465 0.376315
vt 0.716640 0.500208
vt 0.962020 0.500257
vt 0.726638 0.843491
vt 0.977378 0.853368
vt 0.477396 0.750248
vt 0.198343 0.201154
vt 0.456826 0.176726
vt 0.711067 0.000000
s 0
f 2/1/1 4/2/1 1/3/1
f 5/4/2 7/5/2 8/6/2
f 9/7/3 11/8/3 12/9/3
f 13/10/4 15/11/4 16/12/4
f 17/13/5 19/14/5 20/15/5
f 22/16/6 24/17/6 21/18/6
f 25/7/7 27/8/7 28/9/7
f 29/10/8 31/11/8 32/12/8
f 33/19/9 35/20/9 36/21/9
f 37/22/10 39/23/10 40/24/10
f 41/7/11 43/8/11 44/9/11
f 45/10/12 47/11/12 48/12/12
f 50/1/13 52/2/13 49/3/13
f 53/4/14 55/5/14 56/6/14
f 57/13/15 59/14/15 60/15/15
f 62/16/16 64/17/16 61/18/16
f 66/1/17 68/2/17 65/3/17
f 69/4/18 71/5/18 72/6/18
f 73/7/19 75/8/19 76/9/19
f 77/10/20 79/11/20 80/12/20
f 81/13/21 83/14/21 84/15/21
f 86/16/22 88/17/22 85/18/22
f 90/25/23 92/26/23 89/27/23
f 94/28/24 96/29/24 93/30/24
f 97/13/25 99/14/25 100/15/25
f 102/16/26 104/17/26 101/18/26
f 105/19/27 107/20/27 108/21/27
f 109/22/28 111/23/28 112/24/28
f 113/13/29 115/14/29 116/15/29
f 118/16/30 120/17/30 117/18/30
f 121/7/31 123/8/31 124/9/31
f 125/10/32 127/11/32 128/12/32
f 129/31/33 131/32/33 132/33/33
f 133/34/34 135/35/34 136/36/34
f 137/13/35 139/14/35 140/15/35
f 142/16/36 144/17/36 141/18/36
f 145/37/37 147/38/37 148/39/37
f 150/40/38 152/41/38 149/42/38
f 154/1/39 156/2/39 153/3/39
f 157/4/40 159/5/40 160/6/40
f 161/43/41 163/44/41 164/45/41
f 166/46/42 168/47/42 165/48/42
f 169/19/43 171/20/43 172/21/43
f 173/22/44 175/23/44 176/24/44
f 177/43/45 179/44/45 180/45/45
f 182/46/46 184/47/46 181/48/46
f 185/19/47 187/20/47 188/21/47
f 189/22/48 191/23/48 192/24/48
f 193/43/49 195/44/49 196/45/49
f 198/46/50 200/47/50 197/48/50
f 201/13/51 203/14/51 204/15/51
f 206/16/52 208/17/52 205/18/52
f 209/19/53 211/20/53 212/21/53
f 213/22/54 215/23/54 216/24/54
f 217/7/55 219/8/55 220/9/55
f 221/10/56 223/11/56 224/12/56
f 225/7/57 227/8/57 228/9/57
f 229/10/58 231/11/58 232/12/58
f 233/37/59 235/38/59 236/39/59
f 238/40/60 240/41/60 237/42/60
f 241/37/61 243/38/61 244/39/61
f 246/40/62 248/41/62 245/42/62
f 249/7/63 251/8/63 252/9/63
f 253/10/64 255/11/64 256/12/64
f 258/1/65 260/2/65 257/3/65
f 261/4/66 263/5/66 264/6/66
f 265/43/67 267/44/67 268/45/67
f 269/48/68 271/49/68 272/47/68
f 273/19/69 275/20/69 276/21/69
f 277/22/70 279/23/70 280/24/70
f 281/7/71 283/8/71 284/9/71
f 285/10/72 287/11/72 288/12/72
f 290/1/73 292/2/73 289/3/73
f 293/4/74 295/5/74 296/6/74
f 297/37/75 299/38/75 300/39/75
f 302/40/76 304/41/76 301/42/76
f 305/37/77 307/38/77 308/39/77
f 310/40/78 312/41/78 309/42/78
f 313/37/79 315/38/79 316/39/79
f 318/40/80 320/41/80 317/42/80
f 321/43/81 323/44/81 324/45/81
f 325/48/82 327/49/82 328/47/82
f 329/19/83 331/20/83 332/21/83
f 333/22/84 335/23/84 336/24/84
f 337/7/85 339/8/85 340/9/85
f 341/10/86 343/11/86 344/12/86
f 345/13/87 347/14/87 348/15/87
f 350/16/88 352/17/88 349/18/88
f 353/7/89 355/8/89 356/9/89
f 357/10/90 359/11/90 360/12/90
f 362/25/91 364/26/91 361/27/91
f 366/28/92 368/29/92 365/30/92
f 369/19/93 371/20/93 372/21/93
f 373/22/94 375/23/94 376/24/94
f 377/37/95 379/38/95 380/39/95
f 382/40/96 384/41/96 381/42/96
f 385/13/97 387/14/97 388/15/97
f 390/16/98 392/17/98 389/18/98
f 394/1/99 396/2/99 393/3/99
f 397/4/100 399/5/100 400/6/100
f 401/7/101 403/8/101 404/9/101
f 405/10/102 407/11/102 408/12/102
f 409/43/103 411/44/103 412/45/103
f 414/46/104 416/47/104 413/48/104
f 417/43/105 419/44/105 420/45/105
f 422/46/106 424/47/106 421/48/106
f 426/1/107 428/2/107 425/3/107
f 429/4/108 431/5/108 432/6/108
f 433/43/109 435/44/109 436/45/109
f 438/46/110 440/47/110 437/48/110
f 441/13/111 443/14/111 444/15/111
f 446/16/112 448/17/112 445/18/112
f 449/7/113 451/8/113 452/9/113
f 454/50/114 456/12/114 453/10/114
f 458/1/115 460/2/115 457/3/115
f 461/4/116 463/5/116 464/6/116
f 465/7/117 467/8/117 468/9/117
f 469/10/118 471/11/118 472/12/118
f 474/1/119 476/2/119 473/3/119
f 477/4/120 479/5/120 480/6/120
f 481/43/121 483/44/121 484/45/121
f 486/46/122 488/47/122 485/48/122
f 489/13/123 491/14/123 492/15/123
f 494/16/124 496/17/124 493/18/124
f 497/19/125 499/20/125 500/21/125
f 501/22/126 503/23/126 504/24/126
f 505/37/127 507/38/127 508/39/127
f 510/40/128 512/41/128 509/42/128
f 513/19/129 515/20/129 516/21/129
f 517/22/130 519/23/130 520/24/130
f 521/43/131 523/44/131 524/45/131
f 526/46/132 528/47/132 525/48/132
f 530/1/133 532/2/133 529/3/133
f 533/4/134 535/5/134 536/6/134
f 538/1/135 540/2/135 537/3/135
f 541/4/136 543/5/136 544/6/136
f 545/13/137 547/14/137 548/15/137
f 550/16/138 552/17/138 549/18/138
f 553/13/139 555/14/139 556/15/139
f 558/16/140 560/17/140 557/18/140
f 562/51/141 564/33/141 561/31/141
f 565/34/142 567/35/142 568/36/142
f 569/13/143 571/14/143 572/15/143
f 574/16/144 576/17/144 573/18/144
f 577/43/145 579/44/145 580/45/145
f 582/46/146 584/47/146 581/48/146
f 585/43/147 587/44/147 588/45/147
f 590/46/148 592/47/148 589/48/148
f 593/31/149 595/32/149 596/33/149
f 597/34/150 599/35/150 600/36/150
f 601/13/151 603/14/151 604/15/151
f 606/16/152 608/17/152 605/18/152
f 609/31/153 611/32/153 612/33/153
f 613/34/154 615/35/154 616/36/154
f 618/1/155 620/2/155 617/3/155
f 621/4/156 623/5/156 624/6/156
f 625/19/157 627/20/157 628/21/157
f 629/22/158 631/23/158 632/24/158
f 633/7/159 635/8/159 636/9/159
f 637/10/160 639/11/160 640/12/160
f 642/1/161 644/2/161 641/3/161
f 645/4/162 647/5/162 648/6/162
f 650/25/163 652/26/163 649/27/163
f 654/28/164 656/29/164 653/30/164
f 657/43/165 659/44/165 660/45/165
f 662/46/166 664/47/166 661/48/166
f 666/1/167 668/2/167 665/3/167
f 669/4/168 671/5/168 672/6/168
f 674/25/169 676/26/169 673/27/169
f 678/28/170 680/29/170 677/30/170
f 682/1/171 684/2/171 681/3/171
f 685/4/172 687/5/172 688/6/172
f 689/43/173 691/44/173 692/45/173
f 694/46/174 696/47/174 693/48/174
f 697/31/175 699/32/175 700/33/175
f 701/34/176 703/35/176 704/36/176
f 705/37/177 707/38/177 708/39/177
f 710/40/178 712/41/178 709/42/178
f 713/31/179 715/32/179 716/33/179
f 717/34/180 719/35/180 720/36/180
f 722/51/181 724/33/181 721/31/181
f 725/34/182 727/35/182 728/36/182
f 729/7/183 731/8/183 732/9/183
f 733/10/184 735/11/184 736/12/184
f 737/13/185 739/14/185 740/15/185
f 742/16/186 744/17/186 741/18/186
f 745/7/187 747/8/187 748/9/187
f 749/10/188 751/11/188 752/12/188
f 753/13/189 755/14/189 756/15/189
f 758/16/190 760/17/190 757/18/190
f 761/19/191 763/20/191 764/21/191
f 765/22/192 767/23/192 768/24/192
f 770/1/193 772/2/193 769/3/193
f 773/4/194 775/5/194 776/6/194
f 777/13/195 779/14/195 780/15/195
f 782/16/196 784/17/196 781/18/196
f 785/7/197 787/8/197 788/9/197
f 789/10/198 791/11/198 792/12/198
f 793/19/199 795/20/199 796/21/199
f 797/22/200 799/23/200 800/24/200
f 801/19/201 803/20/201 804/21/201
f 805/22/202 807/23/202 808/24/202
f 809/43/203 811/44/203 812/45/203
f 814/46/204 816/47/204 813/48/204
f 818/1/205 820/2/205 817/3/205
f 821/4/206 823/5/206 824/6/206
f 825/31/207 827/32/207 828/33/207
f 829/34/208 831/35/208 832/36/208
f 833/13/209 835/14/209 836/15/209
f 838/16/210 840/17/210 837/18/210
f 842/25/211 844/26/211 841/27/211
f 846/28/212 848/29/212 845/30/212
f 849/13/213 851/14/213 852/15/213
f 854/16/214 856/17/214 853/18/214
f 857/13/215 859/14/215 860/15/215
f 862/16/216 864/17/216 861/18/216
f 866/1/217 868/2/217 865/3/217
f 869/4/218 871/5/218 872/6/218
f 873/13/219 875/14/219 876/15/219
f 878/16/220 880/17/220 877/18/220
f 881/37/221 883/38/221 884/39/221
f 886/40/222 888/41/222 885/42/222
f 890/51/223 892/33/223 889/31/223
f 893/34/224 895/35/224 896/36/224
f 898/51/225 900/33/225 897/31/225
f 901/34/226 903/35/226 904/36/226
f 906/25/227 908/26/227 905/27/227
f 910/28/228 912/29/228 909/30/228
f 913/7/229 915/8/229 916/9/229
f 917/10/230 919/11/230 920/12/230
f 921/43/231 923/44/231 924/45/231
f 925/48/232 927/49/232 928/47/232
f 929/37/233 931/38/233 932/39/233
f 934/40/234 936/41/234 933/42/234
f 938/25/235 940/26/235 937/27/235
f 942/28/236 944/29/236 941/30/236
f 945/7/237 947/8/237 948/9/237
f 949/10/238 951/11/238 952/12/238
f 953/13/239 955/14/239 956/15/239
f 958/16/240 960/17/240 957/18/240
f 961/7/241 963/8/241 964/9/241
f 965/10/242 967/11/242 968/12/242
f 969/13/243 971/14/243 972/15/243
f 974/16/244 976/17/244 973/18/244
f 977/43/245 979/44/245 980/45/245
f 982/46/246 984/47/246 981/48/246
f 985/37/247 987/38/247 988/39/247
f 990/40/248 992/41/248 989/42/248
f 994/1/249 996/2/249 993/3/249
f 997/4/250 999/5/250 1000/6/250
f 1001/19/251 1003/20/251 1004/21/251
f 1005/22/252 1007/23/252 1008/24/252
f 1010/51/253 1012/33/253 1009/31/253
f 1013/34/254 1015/35/254 1016/36/254
f 1018/1/255 1020/2/255 1017/3/255
f 1021/4/256 1023/5/256 1024/6/256
f 1025/13/257 1027/14/257 1028/15/257
f 1030/16/258 1032/17/258 1029/18/258
f 1033/43/259 1035/44/259 1036/45/259
f 1037/48/260 1039/49/260 1040/47/260
f 1042/25/261 1044/26/261 1041/27/261
f 1046/28/262 1048/29/262 1045/30/262
f 1049/13/263 1051/14/263 1052/15/263
f 1054/16/264 1056/17/264 1053/18/264
f 1057/7/265 1059/8/265 1060/9/265
f 1061/10/266 1063/11/266 1064/12/266
f 1065/19/267 1067/20/267 1068/21/267
f 1069/22/268 1071/23/268 1072/24/268
f 1073/7/269 1075/8/269 1076/9/269
f 1077/10/270 1079/11/270 1080/12/270
f 1081/37/271 1083/38/271 1084/39/271
f 1086/40/272 1088/41/272 1085/42/272
f 1090/51/273 1092/33/273 1089/31/273
f 1093/34/274 1095/35/274 1096/36/274
f 1097/19/275 1099/20/275 1100/21/275
f 1101/22/276 1103/23/276 1104/24/276
f 1105/43/277 1107/44/277 1108/45/277
f 1110/46/278 1112/47/278 1109/48/278
f 1113/37/279 1115/38/279 1116/39/279
f 1118/40/280 1120/41/280 1117/42/280
f 1121/43/281 1123/44/281 1124/45/281
f 1126/46/282 1128/47/282 1125/48/282
f 1129/37/283 1131/38/283 1132/39/283
f 1134/40/284 1136/41/284 1133/42/284
f 1137/7/285 1139/8/285 1140/9/285
f 1142/50/286 1144/12/286 1141/10/286
f 1145/37/287 1147/38/287 1148/39/287
f 1150/40/288 1152/41/288 1149/42/288
f 1153/7/289 1155/8/289 1156/9/289
f 1158/50/290 1160/12/290 1157/10/290
f 1161/13/291 1163/14/291 1164/15/291
f 1166/16/292 1168/17/292 1165/18/292
f 1170/1/293 1172/2/293 1169/3/293
f 1173/4/294 1175/5/294 1176/6/294
f 1177/13/295 1179/14/295 1180/15/295
f 1182/16/296 1184/17/296 1181/18/296
f 1186/25/297 1188/26/297 1185/27/297
f 1190/28/298 1192/29/298 1189/30/298
f 1194/25/299 1196/26/299 1193/27/299
f 1198/28/300 1200/29/300 1197/30/300
f 1202/51/301 1204/33/301 1201/31/301
f 1205/34/302 1207/35/302 1208/36/302
f 1209/13/303 1211/14/303 1212/15/303
f 1214/16/304 1216/17/304 1213/18/304
f 1217/37/305 1219/38/305 1220/39/305
f 1222/40/306 1224/41/306 1221/42/306
f 1225/7/307 1227/8/307 1228/9/307
f 1229/10/308 1231/11/308 1232/12/308
f 1234/1/309 1236/2/309 1233/3/309
f 1237/4/310 1239/5/310 1240/6/310
f 1241/13/311 1243/14/311 1244/15/311
f 1246/16/312 1248/17/312 1245/18/312
f 1250/51/313 1252/33/313 1249/31/313
f 1253/34/314 1255/35/314 1256/36/314
f 1257/13/315 1259/14/315 1260/15/315
f 1262/16/316 1264/17/316 1261/18/316
f 1265/7/317 1267/8/317 1268/9/317
f 1269/10/318 1271/11/318 1272/12/318
f 1273/19/319 1275/20/319 1276/21/319
f 1277/22/320 1279/23/320 1280/24/320
f 1281/37/321 1283/38/321 1284/39/321
f 1286/40/322 1288/41/322 1285/42/322
f 1289/43/323 1291/44/323 1292/45/323
f 1293/48/324 1295/49/324 1296/47/324
f 1297/7/325 1299/8/325 1300/9/325
f 1301/10/326 1303/11/326 1304/12/326
f 1305/13/327 1307/14/327 1308/15/327
f 1310/16/328 1312/17/328 1309/18/328
f 1313/13/329 1315/14/329 1316/15/329
f 1318/16/330 1320/17/330 1317/18/330
f 1321/43/331 1323/44/331 1324/45/331
f 1325/48/332 1327/49/332 1328/47/332
f 2/1/1 3/52/1 4/2/1
f 5/4/333 6/53/333 7/5/333
f 9/7/3 10/54/3 11/8/3
f 13/10/4 14/50/4 15/11/4
f 17/13/5 18/55/5 19/14/5
f 22/16/6 23/56/6 24/17/6
f 25/7/7 26/54/7 27/8/7
f 29/10/8 30/50/8 31/11/8
f 33/19/9 34/57/9 35/20/9
f 37/22/10 38/58/10 39/23/10
f 41/7/334 42/54/334 43/8/334
f 45/10/335 46/50/335 47/11/335
f 50/1/13 51/52/13 52/2/13
f 53/4/14 54/53/14 55/5/14
f 57/13/15 58/55/15 59/14/15
f 62/16/16 63/56/16 64/17/16
f 66/1/17 67/52/17 68/2/17
f 69/4/18 70/53/18 71/5/18
f 73/7/19 74/54/19 75/8/19
f 77/10/20 78/50/20 79/11/20
f 81/13/21 82/55/21 83/14/21
f 86/16/22 87/56/22 88/17/22
f 90/25/23 91/59/23 92/26/23
f 94/28/24 95/60/24 96/29/24
f 97/13/25 98/55/25 99/14/25
f 102/16/26 103/56/26 104/17/26
f 105/19/27 106/57/27 107/20/27
f 109/22/336 110/58/336 111/23/336
f 113/13/29 114/55/29 115/14/29
f 118/16/30 119/56/30 120/17/30
f 121/7/31 122/54/31 123/8/31
f 125/10/32 126/50/32 127/11/32
f 129/31/33 130/51/33 131/32/33
f 133/34/34 134/61/34 135/35/34
f 137/13/337 138/55/337 139/14/337
f 142/16/36 143/56/36 144/17/36
f 145/37/37 146/62/37 147/38/37
f 150/40/38 151/63/38 152/41/38
f 154/1/39 155/52/39 156/2/39
f 157/4/40 158/53/40 159/5/40
f 161/43/41 162/64/41 163/44/41
f 166/46/338 167/49/338 168/47/338
f 169/19/43 170/57/43 171/20/43
f 173/22/44 174/58/44 175/23/44
f 177/43/45 178/64/45 179/44/45
f 182/46/46 183/49/46 184/47/46
f 185/19/47 186/57/47 187/20/47
f 189/22/48 190/58/48 191/23/48
f 193/43/49 194/64/49 195/44/49
f 198/46/50 199/49/50 200/47/50
f 201/13/51 202/55/51 203/14/51
f 206/16/52 207/56/52 208/17/52
f 209/19/53 210/57/53 211/20/53
f 213/22/54 214/58/54 215/23/54
f 217/7/55 218/54/55 219/8/55
f 221/10/56 222/50/56 223/11/56
f 225/7/57 226/54/57 227/8/57
f 229/10/58 230/50/58 231/11/58
f 233/37/59 234/62/59 235/38/59
f 238/40/60 239/63/60 240/41/60
f 241/37/61 242/62/61 243/38/61
f 246/40/62 247/63/62 248/41/62
f 249/7/63 250/54/63 251/8/63
f 253/10/64 254/50/64 255/11/64
f 258/1/65 259/52/65 260/2/65
f 261/4/66 262/53/66 263/5/66
f 265/43/67 266/64/67 267/44/67
f 269/48/339 270/46/339 271/49/339
f 273/19/69 274/57/69 275/20/69
f 277/22/70 278/58/70 279/23/70
f 281/7/71 282/54/71 283/8/71
f 285/10/340 286/50/340 287/11/340
f 290/1/73 291/52/73 292/2/73
f 293/4/74 294/53/74 295/5/74
f 297/37/75 298/62/75 299/38/75
f 302/40/76 303/63/76 304/41/76
f 305/37/77 306/62/77 307/38/77
f 310/40/78 311/63/78 312/41/78
f 313/37/79 314/62/79 315/38/79
f 318/40/80 319/63/80 320/41/80
f 321/43/81 322/64/81 323/44/81
f 325/48/82 326/46/82 327/49/82
f 329/19/83 330/57/83 331/20/83
f 333/22/84 334/58/84 335/23/84
f 337/7/85 338/54/85 339/8/85
f 341/10/86 342/50/86 343/11/86
f 345/13/87 346/55/87 347/14/87
f 350/16/341 351/56/341 352/17/341
f 353/7/89 354/54/89 355/8/89
f 357/10/90 358/50/90 359/11/90
f 362/25/91 363/59/91 364/26/91
f 366/28/92 367/60/92 368/29/92
f 369/19/93 370/57/93 371/20/93
f 373/22/94 374/58/94 375/23/94
f 377/37/95 378/62/95 379/38/95
f 382/40/96 383/63/96 384/41/96
f 385/13/97 386/55/97 387/14/97
f 390/16/98 391/56/98 392/17/98
f 394/1/99 395/52/99 396/2/99
f 397/4/100 398/53/100 399/5/100
f 401/7/101 402/54/101 403/8/101
f 405/10/102 406/50/102 407/11/102
f 409/43/103 410/64/103 411/44/103
f 414/46/104 415/49/104 416/47/104
f 417/43/105 418/64/105 419/44/105
f 422/46/106 423/49/106 424/47/106
f 426/1/107 427/52/107 428/2/107
f 429/4/108 430/53/108 431/5/108
f 433/43/109 434/64/109 435/44/109
f 438/46/110 439/49/110 440/47/110
f 441/13/111 442/55/111 443/14/111
f 446/16/112 447/56/112 448/17/112
f 449/7/113 450/54/113 451/8/113
f 454/50/114 455/11/114 456/12/114
f 458/1/115 459/52/115 460/2/115
f 461/4/342 462/53/342 463/5/342
f 465/7/117 466/54/117 467/8/117
f 469/10/118 470/50/118 471/11/118
f 474/1/119 475/52/119 476/2/119
f 477/4/120 478/53/120 479/5/120
f 481/43/121 482/64/121 483/44/121
f 486/46/122 487/49/122 488/47/122
f 489/13/123 490/55/123 491/14/123
f 494/16/343 495/56/343 496/17/343
f 497/19/125 498/57/125 499/20/125
f 501/22/126 502/58/126 503/23/126
f 505/37/127 506/62/127 507/38/127
f 510/40/128 511/63/128 512/41/128
f 513/19/129 514/57/129 515/20/129
f 517/22/344 518/58/344 519/23/344
f 521/43/131 522/64/131 523/44/131
f 526/46/132 527/49/132 528/47/132
f 530/1/133 531/52/133 532/2/133
f 533/4/134 534/53/134 535/5/134
f 538/1/135 539/52/135 540/2/135
f 541/4/345 542/53/345 543/5/345
f 545/13/137 546/55/137 547/14/137
f 550/16/138 551/56/138 552/17/138
f 553/13/139 554/55/139 555/14/139
f 558/16/140 559/56/140 560/17/140
f 562/51/141 563/32/141 564/33/141
f 565/34/142 566/61/142 567/35/142
f 569/13/346 570/55/346 571/14/346
f 574/16/144 575/56/144 576/17/144
f 577/43/145 578/64/145 579/44/145
f 582/46/347 583/49/347 584/47/347
f 585/43/147 586/64/147 587/44/147
f 590/46/148 591/49/148 592/47/148
f 593/31/149 594/51/149 595/32/149
f 597/34/150 598/61/150 599/35/150
f 601/13/151 602/55/151 603/14/151
f 606/16/152 607/56/152 608/17/152
f 609/31/153 610/51/153 611/32/153
f 613/34/154 614/61/154 615/35/154
f 618/1/155 619/52/155 620/2/155
f 621/4/156 622/53/156 623/5/156
f 625/19/157 626/57/157 627/20/157
f 629/22/158 630/58/158 631/23/158
f 633/7/159 634/54/159 635/8/159
f 637/10/160 638/50/160 639/11/160
f 642/1/161 643/52/161 644/2/161
f 645/4/162 646/53/162 647/5/162
f 650/25/163 651/59/163 652/26/163
f 654/28/164 655/60/164 656/29/164
f 657/43/165 658/64/165 659/44/165
f 662/46/166 663/49/166 664/47/166
f 666/1/348 667/52/348 668/2/348
f 669/4/349 670/53/349 671/5/349
f 674/25/169 675/59/169 676/26/169
f 678/28/170 679/60/170 680/29/170
f 682/1/171 683/52/171 684/2/171
f 685/4/172 686/53/172 687/5/172
f 689/43/173 690/64/173 691/44/173
f 694/46/174 695/49/174 696/47/174
f 697/31/175 698/51/175 699/32/175
f 701/34/176 702/61/176 703/35/176
f 705/37/177 706/62/177 707/38/177
f 710/40/178 711/63/178 712/41/178
f 713/31/179 714/51/179 715/32/179
f 717/34/180 718/61/180 719/35/180
f 722/51/181 723/32/181 724/33/181
f 725/34/182 726/61/182 727/35/182
f 729/7/183 730/54/183 731/8/183
f 733/10/184 734/50/184 735/11/184
f 737/13/185 738/55/185 739/14/185
f 742/16/186 743/56/186 744/17/186
f 745/7/187 746/54/187 747/8/187
f 749/10/188 750/50/188 751/11/188
f 753/13/189 754/55/189 755/14/189
f 758/16/190 759/56/190 760/17/190
f 761/19/191 762/57/191 763/20/191
f 765/22/192 766/58/192 767/23/192
f 770/1/193 771/52/193 772/2/193
f 773/4/194 774/53/194 775/5/194
f 777/13/195 778/55/195 779/14/195
f 782/16/196 783/56/196 784/17/196
f 785/7/197 786/54/197 787/8/197
f 789/10/350 790/50/350 791/11/350
f 793/19/199 794/57/199 795/20/199
f 797/22/200 798/58/200 799/23/200
f 801/19/201 802/57/201 803/20/201
f 805/22/202 806/58/202 807/23/202
f 809/43/203 810/64/203 811/44/203
f 814/46/204 815/49/204 816/47/204
f 818/1/205 819/52/205 820/2/205
f 821/4/206 822/53/206 823/5/206
f 825/31/207 826/51/207 827/32/207
f 829/34/208 830/61/208 831/35/208
f 833/13/209 834/55/209 835/14/209
f 838/16/210 839/56/210 840/17/210
f 842/25/211 843/59/211 844/26/211
f 846/28/212 847/60/212 848/29/212
f 849/13/351 850/55/351 851/14/351
f 854/16/214 855/56/214 856/17/214
f 857/13/215 858/55/215 859/14/215
f 862/16/216 863/56/216 864/17/216
f 866/1/217 867/52/217 868/2/217
f 869/4/218 870/53/218 871/5/218
f 873/13/219 874/55/219 875/14/219
f 878/16/220 879/56/220 880/17/220
f 881/37/221 882/62/221 883/38/221
f 886/40/222 887/63/222 888/41/222
f 890/51/352 891/32/352 892/33/352
f 893/34/224 894/61/224 895/35/224
f 898/51/225 899/32/225 900/33/225
f 901/34/226 902/61/226 903/35/226
f 906/25/227 907/59/227 908/26/227
f 910/28/228 911/60/228 912/29/228
f 913/7/229 914/54/229 915/8/229
f 917/10/230 918/50/230 919/11/230
f 921/43/231 922/64/231 923/44/231
f 925/48/232 926/46/232 927/49/232
f 929/37/233 930/62/233 931/38/233
f 934/40/234 935/63/234 936/41/234
f 938/25/235 939/59/235 940/26/235
f 942/28/236 943/60/236 944/29/236
f 945/7/237 946/54/237 947/8/237
f 949/10/238 950/50/238 951/11/238
f 953/13/239 954/55/239 955/14/239
f 958/16/240 959/56/240 960/17/240
f 961/7/353 962/54/353 963/8/353
f 965/10/354 966/50/354 967/11/354
f 969/13/243 970/55/243 971/14/243
f 974/16/244 975/56/244 976/17/244
f 977/43/245 978/64/245 979/44/245
f 982/46/246 983/49/246 984/47/246
f 985/37/247 986/62/247 987/38/247
f 990/40/248 991/63/248 992/41/248
f 994/1/249 995/52/249 996/2/249
f 997/4/250 998/53/250 999/5/250
f 1001/19/251 1002/57/251 1003/20/251
f 1005/22/252 1006/58/252 1007/23/252
f 1010/51/253 1011/32/253 1012/33/253
f 1013/34/254 1014/61/254 1015/35/254
f 1018/1/255 1019/52/255 1020/2/255
f 1021/4/256 1022/53/256 1023/5/256
f 1025/13/257 1026/55/257 1027/14/257
f 1030/16/258 1031/56/258 1032/17/258
f 1033/43/259 1034/64/259 1035/44/259
f 1037/48/260 1038/46/260 1039/49/260
f 1042/25/261 1043/59/261 1044/26/261
f 1046/28/262 1047/60/262 1048/29/262
f 1049/13/263 1050/55/263 1051/14/263
f 1054/16/264 1055/56/264 1056/17/264
f 1057/7/265 1058/54/265 1059/8/265
f 1061/10/266 1062/50/266 1063/11/266
f 1065/19/267 1066/57/267 1067/20/267
f 1069/22/268 1070/58/268 1071/23/268
f 1073/7/269 1074/54/269 1075/8/269
f 1077/10/270 1078/50/270 1079/11/270
f 1081/37/271 1082/62/271 1083/38/271
f 1086/40/272 1087/63/272 1088/41/272
f 1090/51/273 1091/32/273 1092/33/273
f 1093/34/274 1094/61/274 1095/35/274
f 1097/19/275 1098/57/275 1099/20/275
f 1101/22/276 1102/58/276 1103/23/276
f 1105/43/277 1106/64/277 1107/44/277
f 1110/46/278 1111/49/278 1112/47/278
f 1113/37/279 1114/62/279 1115/38/279
f 1118/40/280 1119/63/280 1120/41/280
f 1121/43/281 1122/64/281 1123/44/281
f 1126/46/282 1127/49/282 1128/47/282
f 1129/37/283 1130/62/283 1131/38/283
f 1134/40/284 1135/63/284 1136/41/284
f 1137/7/285 1138/54/285 1139/8/285
f 1142/50/286 1143/11/286 1144/12/286
f 1145/37/287 1146/62/287 1147/38/287
f 1150/40/288 1151/63/288 1152/41/288
f 1153/7/289 1154/54/289 1155/8/289
f 1158/50/355 1159/11/355 1160/12/355
f 1161/13/291 1162/55/291 1163/14/291
f 1166/16/292 1167/56/292 1168/17/292
f 1170/1/293 1171/52/293 1172/2/293
f 1173/4/294 1174/53/294 1175/5/294
f 1177/13/295 1178/55/295 1179/14/295
f 1182/16/296 1183/56/296 1184/17/296
f 1186/25/297 1187/59/297 1188/26/297
f 1190/28/298 1191/60/298 1192/29/298
f 1194/25/299 1195/59/299 1196/26/299
f 1198/28/300 1199/60/300 1200/29/300
f 1202/51/301 1203/32/301 1204/33/301
f 1205/34/302 1206/61/302 1207/35/302
f 1209/13/303 1210/55/303 1211/14/303
f 1214/16/304 1215/56/304 1216/17/304
f 1217/37/305 1218/62/305 1219/38/305
f 1222/40/306 1223/63/306 1224/41/306
f 1225/7/307 1226/54/307 1227/8/307
f 1229/10/308 1230/50/308 1231/11/308
f 1234/1/309 1235/52/309 1236/2/309
f 1237/4/310 1238/53/310 1239/5/310
f 1241/13/356 1242/55/356 1243/14/356
f 1246/16/357 1247/56/357 1248/17/357
f 1250/51/313 1251/32/313 1252/33/313
f 1253/34/314 1254/61/314 1255/35/314
f 1257/13/315 1258/55/315 1259/14/315
f 1262/16/316 1263/56/316 1264/17/316
f 1265/7/317 1266/54/317 1267/8/317
f 1269/10/318 1270/50/318 1271/11/318
f 1273/19/319 1274/57/319 1275/20/319
f 1277/22/320 1278/58/320 1279/23/320
f 1281/37/321 1282/62/321 1283/38/321
f 1286/40/322 1287/63/322 1288/41/322
f 1289/43/323 1290/64/323 1291/44/323
f 1293/48/358 1294/46/358 1295/49/358
f 1297/7/325 1298/54/325 1299/8/325
f 1301/10/326 1302/50/326 1303/11/326
f 1305/13/327 1306/55/327 1307/14/327
f 1310/16/328 1311/56/328 1312/17/328
f 1313/13/329 1314/55/329 1315/14/329
f 1318/16/330 1319/56/330 1320/17/330
f 1321/43/331 1322/64/331 1323/44/331
f 1325/48/332 1326/46/332 1327/49/332
