mtllib grass_01_01_b2.mtl
usemtl grass_01_01_b2
# Blender 5.1.1
# www.blender.org
o grass_01_01_b2
v 14.413244 8.518932 0.284550
v 14.224228 8.521777 0.284550
v 14.208608 8.522013 0.367615
v 14.433511 8.518627 0.416088
v 14.328548 8.602063 0.284603
v 14.325843 8.422335 0.284603
v 14.326550 8.469293 0.378317
v 14.328970 8.630106 0.391665
v 14.537547 13.542686 1.575481
v 14.358521 13.468639 1.575481
v 14.331170 13.457327 1.662998
v 14.542253 13.544632 1.680908
v 14.411390 13.558837 1.575467
v 14.480165 13.392555 1.575467
v 14.480165 13.392555 1.665113
v 14.408010 13.567010 1.682251
v 7.280868 12.103175 1.171546
v 7.419274 12.259102 1.171546
v 7.398419 12.235607 1.279069
v 7.221867 12.036705 1.245999
v 7.252102 12.210357 1.171546
v 7.219457 12.239333 1.254626
v 7.383809 12.093449 1.280976
v 7.385029 12.092365 1.171546
v 14.536359 8.179520 0.213525
v 14.546046 8.166555 0.349053
v 14.468213 8.270711 0.314843
v 14.441726 8.306156 0.213525
v 14.394412 8.153727 0.213525
v 14.525543 8.251718 0.213525
v 14.569799 8.284789 0.332595
v 14.416474 8.170213 0.323970
v 11.306808 14.129940 1.663072
v 11.195316 13.917618 1.663072
v 11.212116 13.949611 1.787793
v 11.354335 14.220451 1.749433
v 11.368522 14.018205 1.663072
v 11.412973 13.994863 1.759440
v 11.189178 14.112377 1.790004
v 11.187516 14.113251 1.663072
v -1.278378 6.789843 -0.065648
v -1.233183 6.815194 -0.178129
v -1.087554 6.896881 -0.178129
v -1.032692 6.927655 -0.065648
v -1.104480 6.799992 -0.178172
v -1.181577 6.937438 -0.178172
v -1.212949 6.993366 -0.060752
v -1.096919 6.786512 -0.053051
v 10.053226 6.004453 -0.419606
v 10.064009 5.989885 -0.300927
v 9.977385 6.106926 -0.330884
v 9.947906 6.146757 -0.419606
v 9.894134 5.976301 -0.419606
v 10.041487 6.085360 -0.419606
v 10.091219 6.122167 -0.315339
v 9.918925 5.994650 -0.322891
v 9.039376 11.617490 1.056143
v 9.049362 11.802930 1.056143
v 9.050888 11.831260 1.136963
v 9.039113 11.612615 1.153502
v 9.105506 11.719913 1.056131
v 8.933268 11.729188 1.056131
v 8.933268 11.729188 1.138916
v 9.113972 11.719457 1.154743
v 2.910589 2.009401 -1.364322
v 2.853851 2.000347 -1.459607
v 2.671028 1.971171 -1.459607
v 2.602154 1.960180 -1.364322
v 2.725772 2.065489 -1.459643
v 2.753308 1.892940 -1.459643
v 2.764513 1.822728 -1.360174
v 2.723071 2.082412 -1.353651
v 15.795166 8.423684 0.417956
v 15.739136 8.453875 0.313505
v 15.558597 8.551154 0.313505
v 15.490583 8.587802 0.417956
v 15.670216 8.597352 0.313466
v 15.578403 8.426959 0.313466
v 15.541043 8.357623 0.422503
v 15.679220 8.614064 0.429654
v -1.159608 4.576039 -0.698495
v -1.217308 4.540743 -0.800775
v -1.403231 4.427012 -0.800775
v -1.473273 4.384167 -0.698495
v -1.385932 4.554224 -0.800814
v -1.278592 4.378749 -0.800814
v -1.234914 4.307346 -0.694043
v -1.396459 4.571434 -0.687041
v 10.127119 12.773472 1.309191
v 10.150436 12.790192 1.495817
v 9.963095 12.655857 1.448709
v 9.899340 12.610141 1.309191
v 10.167889 12.520955 1.309191
v 9.998763 12.756817 1.309191
v 9.941683 12.836420 1.473153
v 10.139434 12.560637 1.461278
v 4.371789 2.389619 -1.380726
v 4.428609 2.158534 -1.380726
v 4.435448 2.130718 -1.277705
v 4.353946 2.462190 -1.280668
v 4.257265 2.271110 -1.380726
v 4.508010 2.332763 -1.380726
v 4.516416 2.334830 -1.293528
v 4.260937 2.272013 -1.280516
v 10.976614 14.440005 1.730204
v 10.978839 14.466424 1.990866
v 10.960964 14.254173 1.925070
v 10.954881 14.181943 1.730204
v 11.178589 14.317275 1.730204
v 10.911368 14.339780 1.730204
v 10.821182 14.347375 1.959212
v 11.133630 14.321062 1.942625
v 6.887064 3.813964 -0.830271
v 6.935511 3.818369 -0.992356
v 7.091617 3.832562 -0.992356
v 7.150425 3.837909 -0.830271
v 7.039980 3.756017 -0.992417
v 7.026584 3.903351 -0.992417
v 7.021133 3.963303 -0.823216
v 7.041294 3.741568 -0.812119
v 6.165408 15.666625 2.070550
v 6.267998 15.466730 2.070550
v 6.280347 15.442668 2.168818
v 6.133191 15.729401 2.165992
v 6.086043 15.532783 2.070550
v 6.302945 15.644100 2.070550
v 6.310216 15.647832 2.153725
v 6.089221 15.534413 2.166137
v 13.068873 -7.892022 -3.138523
v 12.886486 -7.845546 -3.138523
v 12.913968 -7.852549 -3.035206
v 13.146624 -7.911834 -3.066982
v 12.994802 -7.959473 -3.138523
v 12.985071 -7.997657 -3.058693
v 13.034058 -7.805415 -3.033374
v 13.034422 -7.803987 -3.138523
v 12.079493 9.061846 0.375510
v 12.242977 9.092838 0.375510
v 12.218344 9.088168 0.552494
v 12.009800 9.048635 0.498060
v 12.113598 9.143583 0.375510
v 12.107110 9.177812 0.512260
v 12.139776 9.005493 0.555631
v 12.140019 9.004213 0.375510
v 4.247948 3.141458 -1.051469
v 4.246630 3.103604 -1.192255
v 4.242384 2.981629 -1.192255
v 4.240785 2.935678 -1.051469
v 4.188285 3.028977 -1.192308
v 4.303405 3.024970 -1.192308
v 4.350249 3.023339 -1.045341
v 4.176995 3.029370 -1.035702
v 11.961504 13.680367 1.568481
v 11.937013 13.682206 1.711868
v 12.133780 13.667428 1.675674
v 12.200743 13.662398 1.568481
v 12.073501 13.868496 1.568481
v 12.054895 13.620767 1.568481
v 12.048616 13.537159 1.694455
v 12.070371 13.826817 1.685331
v -2.174048 7.786602 0.202958
v -2.219343 7.822039 0.092318
v -2.365294 7.936224 0.092318
v -2.420277 7.979241 0.202958
v -2.258834 7.960340 0.092277
v -2.366603 7.822591 0.092277
v -2.410456 7.766539 0.207774
v -2.248265 7.973849 0.215349
v 8.062314 3.982502 -0.920562
v 8.064925 3.922075 -1.002559
v 8.073338 3.727362 -1.002559
v 8.076507 3.654009 -0.920562
v 7.981322 3.796010 -1.002590
v 8.165092 3.803950 -1.002590
v 8.239871 3.807181 -0.916993
v 7.963298 3.795232 -0.911380
v 13.427995 3.548084 -1.008825
v 13.451655 3.530465 -0.844178
v 13.261561 3.672020 -0.885738
v 13.196870 3.720193 -1.008825
v 13.193378 3.429286 -1.008825
v 13.371594 3.668613 -1.008825
v 13.431743 3.749385 -0.864173
v 13.223362 3.469552 -0.874650
v 6.964312 2.279699 -1.408643
v 6.927203 2.134832 -1.408643
v 6.922737 2.117394 -1.295981
v 6.975965 2.325193 -1.299221
v 6.865703 2.248043 -1.408643
v 7.022893 2.207777 -1.408643
v 7.028163 2.206427 -1.313285
v 6.868005 2.247453 -1.299055
v 14.707425 1.228045 -1.604466
v 14.772639 1.055454 -1.604466
v 14.762813 1.081460 -1.483256
v 14.679624 1.301619 -1.520535
v 14.803232 1.206483 -1.604466
v 14.839366 1.220136 -1.510810
v 14.657450 1.151398 -1.481107
v 14.656098 1.150887 -1.604466
v 10.647064 3.798852 -1.020955
v 10.665988 3.809249 -0.830415
v 10.513951 3.725717 -0.878511
v 10.462212 3.697290 -1.020955
v 10.654837 3.606528 -1.020955
v 10.549670 3.797941 -1.020955
v 10.514177 3.862543 -0.853554
v 10.637143 3.638733 -0.865679
v 9.396938 15.409902 2.007494
v 9.255655 15.338579 2.007494
v 9.238649 15.329994 2.124532
v 9.441306 15.432301 2.121166
v 9.303036 15.466433 2.007494
v 9.380426 15.313130 2.007494
v 9.383020 15.307992 2.106556
v 9.304170 15.464187 2.121339
v 13.513656 11.862197 1.097326
v 13.543633 11.631044 1.097326
v 13.548213 11.595731 1.187080
v 13.512867 11.868274 1.205448
v 13.455401 11.720698 1.097312
v 13.670097 11.748542 1.097312
v 13.670097 11.748542 1.189249
v 13.444849 11.719330 1.206825
v 14.547208 8.121858 0.173038
v 14.642983 7.972491 0.173038
v 14.654512 7.954511 0.336520
v 14.517131 8.168765 0.331818
v 14.494953 8.010639 0.173038
v 14.657027 8.114563 0.173038
v 14.662461 8.118047 0.311410
v 14.497327 8.012161 0.332059
v 4.615337 0.755922 -1.795262
v 4.659377 0.610635 -1.795262
v 4.652741 0.632527 -1.699970
v 4.596563 0.817857 -1.729278
v 4.692808 0.732945 -1.795262
v 4.723225 0.742165 -1.721633
v 4.570088 0.695746 -1.698281
v 4.568951 0.695401 -1.795262
v 12.337271 9.851814 0.659152
v 12.385166 9.822242 0.563208
v 12.539495 9.726954 0.563208
v 12.597634 9.691057 0.659152
v 12.438542 9.691979 0.563172
v 12.528476 9.837635 0.563172
v 12.565070 9.896905 0.663328
v 12.429723 9.677693 0.669896
v 15.636180 8.774290 0.404346
v 15.827181 8.889867 0.404346
v 15.872467 8.917270 0.493232
v 15.685128 8.803909 0.493232
v 15.814454 8.773906 0.404307
v 15.708694 8.948685 0.404307
v 15.701915 8.959887 0.502649
v 15.796479 8.803610 0.493787
v 9.876112 9.328508 0.442593
v 9.851789 9.316621 0.560077
v 10.047207 9.412132 0.530422
v 10.113709 9.444636 0.442593
v 9.877896 9.569844 0.442593
v 9.998145 9.323815 0.442593
v 10.038729 9.240782 0.545810
v 9.898128 9.528451 0.538334
v 13.785259 13.540354 1.566249
v 13.612246 13.485902 1.566249
v 13.638315 13.494106 1.695443
v 13.859015 13.563566 1.655708
v 13.758790 13.447510 1.566249
v 13.770190 13.411287 1.666073
v 13.712795 13.593650 1.697734
v 13.712369 13.595005 1.566249
v 11.202838 9.859319 0.598856
v 11.278595 10.063501 0.598856
v 11.290169 10.094695 0.693480
v 11.200846 9.853951 0.712843
v 11.312557 9.950987 0.598842
v 11.122910 10.021351 0.598842
v 11.122910 10.021351 0.695766
v 11.321878 9.947528 0.714296
v 5.304869 5.466508 -0.577785
v 5.295166 5.482697 -0.432293
v 5.373117 5.352625 -0.469018
v 5.399644 5.308360 -0.577785
v 5.472615 5.479599 -0.577785
v 5.308856 5.381461 -0.577785
v 5.253587 5.348339 -0.449961
v 5.445064 5.463088 -0.459220
v 6.855946 10.050748 0.726993
v 6.908779 10.056267 0.630935
v 7.079018 10.074049 0.630935
v 7.143150 10.080748 0.726993
v 7.023757 9.989717 0.630899
v 7.006975 10.150389 0.630899
v 7.000146 10.215768 0.731174
v 7.025403 9.973959 0.737751
v 16.021191 4.077495 -0.806050
v 15.936214 4.257250 -0.806050
v 15.925986 4.278887 -0.698360
v 16.047876 4.021044 -0.701457
v 16.095242 4.193585 -0.806050
v 15.900194 4.101380 -0.806050
v 15.893655 4.098289 -0.714900
v 16.092384 4.192235 -0.701298
v 3.161207 11.639481 1.051247
v 3.369160 11.647427 1.051247
v 3.394191 11.648383 1.200590
v 3.095901 11.636986 1.196295
v 3.242535 11.520498 1.051247
v 3.233913 11.746142 1.051247
v 3.233624 11.753707 1.177652
v 3.242409 11.523804 1.196515
v 6.947548 11.569513 1.003360
v 6.932820 11.587253 1.154660
v 7.051151 11.444730 1.116469
v 7.091420 11.396228 1.003360
v 7.147633 11.616555 1.003360
v 6.968197 11.467577 1.003360
v 6.907639 11.417297 1.136286
v 7.117444 11.591490 1.126658
v 14.981005 13.483511 1.759661
v 14.945025 13.427621 1.536766
v 14.829094 13.247530 1.536766
v 14.785419 13.179686 1.759661
v 14.790045 13.367496 1.536682
v 14.960014 13.258080 1.536682
v 15.029178 13.213556 1.769363
v 14.773375 13.378228 1.784623
v 14.686699 10.420440 0.769831
v 14.672956 10.435589 0.903250
v 14.783374 10.313880 0.869572
v 14.820951 10.272462 0.769831
v 14.862196 10.469917 0.769831
v 14.708966 10.330901 0.769831
v 14.657251 10.283984 0.887048
v 14.836415 10.446528 0.878558
v 15.167642 8.837571 0.367121
v 14.898441 8.752097 0.367121
v 14.834614 8.731831 0.502805
v 15.098653 8.815667 0.502805
v 14.948501 8.890940 0.367063
v 15.026715 8.644603 0.367063
v 15.031729 8.628814 0.517181
v 14.961794 8.849073 0.503652
v 8.738534 3.507030 -1.072510
v 8.720192 3.498860 -0.961382
v 8.867554 3.564504 -0.989433
v 8.917702 3.586844 -1.072510
v 8.746216 3.685863 -1.072510
v 8.828861 3.500336 -1.072510
v 8.856754 3.437721 -0.974877
v 8.760120 3.654649 -0.981949
v 4.628432 8.980217 0.380446
v 4.641088 9.194696 0.380446
v 4.642134 9.212421 0.452605
v 4.627075 8.957220 0.494713
v 4.727049 9.072241 0.380493
v 4.523108 9.084275 0.380493
v 4.576391 9.081131 0.461902
v 4.758868 9.070363 0.473496
v -1.223017 3.187527 -1.153886
v -1.140507 2.985466 -1.153886
v -1.130576 2.961144 -0.997910
v -1.248928 3.250983 -1.002396
v -1.311054 3.064658 -1.153886
v -1.091803 3.154187 -1.153886
v -1.084453 3.157189 -1.021867
v -1.307843 3.065970 -1.002166
v 6.268485 3.016961 -1.251822
v 6.304425 2.729468 -1.251822
v 6.312946 2.661303 -1.164610
v 6.277695 2.943285 -1.164610
v 6.173729 2.805890 -1.251860
v 6.436806 2.838777 -1.251860
v 6.453667 2.840885 -1.155370
v 6.218440 2.811479 -1.164066
v 14.552806 10.316507 0.769579
v 14.567283 10.476316 0.769579
v 14.569026 10.495553 0.957546
v 14.548260 10.266320 0.952140
v 14.651832 10.366940 0.769579
v 14.478426 10.382648 0.769579
v 14.472613 10.383176 0.928676
v 14.649292 10.367170 0.952418
v 9.167719 12.058746 1.158518
v 9.220669 12.221746 1.158518
v 9.227042 12.241367 1.271436
v 9.151090 12.007558 1.268188
v 9.282799 12.087801 1.158518
v 9.105932 12.145256 1.158518
v 9.100003 12.147182 1.254093
v 9.280209 12.088643 1.268355
v 8.823178 -5.655814 -2.776799
v 8.993713 -5.768980 -2.776799
v 8.968018 -5.751928 -2.663930
v 8.750480 -5.607573 -2.698644
v 8.923420 -5.613163 -2.776799
v 8.947112 -5.577459 -2.689589
v 8.827832 -5.757209 -2.661929
v 8.826946 -5.758544 -2.776799
v 12.024097 9.580354 0.502374
v 12.229595 9.523093 0.502374
v 12.198631 9.531721 0.624194
v 11.936495 9.604763 0.586727
v 12.109732 9.654917 0.502374
v 12.121719 9.697941 0.596501
v 12.061365 9.481339 0.626354
v 12.060917 9.479730 0.502374
v 2.870398 2.886896 -1.209155
v 2.914024 3.049664 -1.209155
v 2.919275 3.069257 -1.091828
v 2.856697 2.835780 -1.095202
v 2.981905 2.921331 -1.209155
v 2.805289 2.968669 -1.209155
v 2.799368 2.970256 -1.109848
v 2.979318 2.922024 -1.095029
v 7.603465 14.066462 1.757662
v 7.549274 14.046319 1.654273
v 7.374661 13.981414 1.654273
v 7.308880 13.956964 1.757662
v 7.410038 14.085286 1.654234
v 7.471296 13.920485 1.654234
v 7.496222 13.853426 1.762162
v 7.404031 14.101449 1.769240
v 5.549572 3.355829 -1.103617
v 5.378200 3.446739 -1.103617
v 5.404022 3.433040 -0.974943
v 5.622627 3.317075 -1.014518
v 5.458977 3.306288 -1.103617
v 5.439944 3.270409 -1.004195
v 5.535766 3.451041 -0.972662
v 5.536478 3.452382 -1.103617
v 8.839945 -6.419668 -2.877502
v 8.975321 -6.568526 -2.877502
v 8.954923 -6.546096 -2.749332
v 8.782235 -6.356211 -2.788752
v 8.945753 -6.403097 -2.877502
v 8.976918 -6.374754 -2.778469
v 8.820017 -6.517445 -2.747060
v 8.818851 -6.518505 -2.877502
v 9.643858 2.930135 -1.025289
v 9.617803 2.973396 -1.199218
v 9.533846 3.112793 -1.199218
v 9.502217 3.165307 -1.025289
v 9.628735 3.099223 -1.199284
v 9.497171 3.019985 -1.199284
v 9.443637 2.987741 -1.017719
v 9.641638 3.106994 -1.005811
v 4.385302 -1.990140 -2.236754
v 4.379688 -2.140877 -2.236754
v 4.379013 -2.159021 -2.145358
v 4.387064 -1.942803 -2.147986
v 4.294863 -2.042425 -2.236754
v 4.458423 -2.048515 -2.236754
v 4.463906 -2.048720 -2.159395
v 4.297259 -2.042514 -2.147851
v 14.677102 13.032475 1.445297
v 14.480059 12.951471 1.445297
v 14.449956 12.939096 1.540244
v 14.682282 13.034604 1.559674
v 14.538411 13.050533 1.445283
v 14.613647 12.867517 1.445283
v 14.613647 12.867517 1.542538
v 14.534713 13.059528 1.561132
v -3.948971 2.437188 -1.318772
v -3.919847 2.437267 -1.073313
v -4.153833 2.436633 -1.135272
v -4.233461 2.436418 -1.318772
v -4.064068 2.204470 -1.318772
v -4.064866 2.499056 -1.318772
v -4.065135 2.598478 -1.103121
v -4.064202 2.254033 -1.118741
v 11.862373 14.555203 1.778998
v 11.892280 14.343685 1.778998
v 11.887773 14.375557 1.918088
v 11.849625 14.645372 1.875309
v 11.965141 14.506547 1.778998
v 12.009425 14.512809 1.886468
v 11.786478 14.481287 1.920554
v 11.784822 14.481052 1.778998
v 2.135337 6.777148 -0.215867
v 1.882632 6.722282 -0.215867
v 1.852214 6.715678 -0.129729
v 2.214697 6.794378 -0.132207
v 2.010003 6.905067 -0.215867
v 2.069536 6.630864 -0.215867
v 2.071532 6.621672 -0.142960
v 2.010875 6.901052 -0.132080
v 13.949264 -8.194584 -3.168369
v 13.930076 -8.200298 -3.064825
v 14.084242 -8.154384 -3.090962
v 14.136706 -8.138759 -3.168369
v 13.979909 -8.018750 -3.168369
v 14.037714 -8.212845 -3.168369
v 14.057223 -8.278351 -3.077399
v 13.989635 -8.051406 -3.083988
v 6.671831 6.343127 -0.332205
v 6.651320 6.338348 -0.197914
v 6.816110 6.376739 -0.231812
v 6.872190 6.389803 -0.332205
v 6.715203 6.525790 -0.332205
v 6.763536 6.318321 -0.332205
v 6.779849 6.248301 -0.214222
v 6.723335 6.490884 -0.222768
v 8.307487 8.595675 0.252882
v 8.279351 8.587152 0.498559
v 8.505402 8.655623 0.436545
v 8.582330 8.678925 0.252882
v 8.351280 8.854063 0.252882
v 8.437485 8.569467 0.252882
v 8.466578 8.473416 0.468724
v 8.365784 8.806181 0.453091
v 6.828356 11.303001 1.069974
v 6.781516 11.331501 0.975706
v 6.630587 11.423332 0.975706
v 6.573728 11.457928 1.069974
v 6.728695 11.458042 0.975671
v 6.642025 11.315595 0.975671
v 6.606757 11.257631 1.074077
v 6.737195 11.472013 1.080531
v 0.027030 3.403342 -0.938427
v 0.039320 3.457885 -1.039183
v 0.078922 3.633636 -1.039183
v 0.093840 3.699846 -0.938427
v 0.144407 3.550129 -1.039221
v -0.021468 3.587505 -1.039221
v -0.088964 3.602714 -0.934042
v 0.160675 3.546463 -0.927144
v 10.875710 10.665211 0.878924
v 10.919597 10.691602 0.796074
v 11.061007 10.776637 0.796074
v 11.114280 10.808672 0.878924
v 11.047179 10.680428 0.796043
v 10.966923 10.813891 0.796043
v 10.934265 10.868199 0.882530
v 11.055051 10.667338 0.888203
v 13.199586 9.538136 0.511360
v 13.015371 9.447301 0.511360
v 12.993197 9.436367 0.634800
v 13.257437 9.566662 0.631250
v 13.078417 9.612641 0.511360
v 13.176979 9.412756 0.511360
v 13.180283 9.406054 0.615840
v 13.079860 9.609714 0.631432
v 15.080098 13.499259 1.607219
v 15.076657 13.481758 1.739544
v 15.104305 13.622366 1.706143
v 15.113714 13.670217 1.607219
v 14.954115 13.596263 1.607219
v 15.131139 13.561455 1.607219
v 15.190885 13.549706 1.723475
v 14.983899 13.590406 1.715054
v 8.368243 11.491202 1.017362
v 8.619144 11.603636 1.017362
v 8.678634 11.630294 1.154708
v 8.432542 11.520016 1.154708
v 8.586083 11.463820 1.017303
v 8.483199 11.693413 1.017303
v 8.476605 11.708128 1.169260
v 8.568598 11.502841 1.155565
v -0.189600 12.646733 1.345463
v -0.177320 12.624166 1.447382
v -0.275980 12.805486 1.421656
v -0.309554 12.867190 1.345463
v -0.418491 12.638419 1.345463
v -0.190210 12.762630 1.345463
v -0.113166 12.804551 1.435006
v -0.380083 12.659317 1.428520
v 7.481730 10.850839 0.848089
v 7.637894 11.045588 0.848089
v 7.614363 11.016243 0.982291
v 7.415158 10.767817 0.941015
v 7.440909 10.977283 0.848089
v 7.400136 11.009977 0.951782
v 7.605409 10.845375 0.984670
v 7.606934 10.844152 0.848089
v 7.215459 14.781049 1.862038
v 7.399695 14.854703 1.862038
v 7.371935 14.843605 1.967722
v 7.136920 14.749650 1.935217
v 7.236681 14.884503 1.862038
v 7.221261 14.923076 1.943696
v 7.298895 14.728885 1.969595
v 7.299471 14.727442 1.862038
v 13.988091 7.934732 0.299925
v 14.005502 7.981147 0.162403
v 14.061604 8.130706 0.162403
v 14.082740 8.187049 0.299925
v 14.108990 8.049417 0.162351
v 13.967835 8.102367 0.162351
v 13.910398 8.123914 0.305911
v 14.122834 8.044224 0.315326
v 7.018302 0.668240 -1.799819
v 6.989830 0.855891 -1.799819
v 6.994121 0.827616 -1.696798
v 7.030440 0.588246 -1.728483
v 6.926562 0.710544 -1.799819
v 6.887275 0.704583 -1.720218
v 7.085066 0.734593 -1.694972
v 7.086535 0.734816 -1.799819
v 11.109906 13.953878 1.666567
v 11.232908 14.143165 1.666567
v 11.262073 14.188045 1.758150
v 11.141428 14.002387 1.758150
v 11.272366 14.031999 1.666527
v 11.099154 14.144554 1.666527
v 11.088053 14.151769 1.767853
v 11.242928 14.051127 1.758721
v 5.001925 9.420862 0.447623
v 4.959953 9.202915 0.447623
v 4.954901 9.176681 0.568723
v 5.015106 9.489307 0.565240
v 4.858679 9.365113 0.447623
v 5.095168 9.319571 0.447623
v 5.103096 9.318045 0.550123
v 4.862143 9.364447 0.565419
v 8.828179 6.990798 -0.172693
v 8.682581 7.014638 -0.172693
v 8.704519 7.011046 -0.048598
v 8.890247 6.980634 -0.086765
v 8.774941 6.933068 -0.172693
v 8.769950 6.902586 -0.076809
v 8.795079 7.056051 -0.046398
v 8.795266 7.057191 -0.172693
v 12.096783 -8.843888 -3.165005
v 12.066043 -8.787957 -3.268147
v 11.966993 -8.607733 -3.268147
v 11.929679 -8.539839 -3.165005
v 12.086138 -8.629612 -3.268186
v 11.916042 -8.723096 -3.268186
v 11.846828 -8.761136 -3.160516
v 12.102820 -8.620444 -3.153455
v 7.955713 12.453733 1.271773
v 7.946358 12.431705 1.419386
v 8.021523 12.608688 1.382125
v 8.047103 12.668919 1.271773
v 7.817101 12.615925 1.271773
v 8.039923 12.521293 1.271773
v 8.115124 12.489354 1.401460
v 7.854590 12.600003 1.392067
v 10.504199 12.931548 1.388926
v 10.687261 13.059401 1.388926
v 10.730665 13.089715 1.485717
v 10.551113 12.964313 1.485717
v 10.682149 12.942833 1.388884
v 10.565155 13.110348 1.388884
v 10.557656 13.121084 1.495972
v 10.662266 12.971303 1.486321
v 13.294602 2.770081 -1.206589
v 13.297699 2.747588 -1.089884
v 13.272816 2.928301 -1.119343
v 13.264348 2.989799 -1.206589
v 13.102804 2.834744 -1.206589
v 13.330319 2.866071 -1.206589
v 13.407105 2.876644 -1.104056
v 13.141083 2.840015 -1.111483
v 8.118482 9.289547 0.457035
v 7.967384 9.519646 0.457035
v 7.941874 9.558494 0.581686
v 8.144480 9.249956 0.605667
v 8.165029 9.490032 0.456942
v 7.886263 9.306977 0.456942
v 7.990376 9.375344 0.632327
v 8.185154 9.503248 0.579051
v 10.303435 15.985806 2.124604
v 10.152015 15.774779 2.124604
v 10.116112 15.724744 2.208950
v 10.264630 15.931726 2.208950
v 10.112566 15.904643 2.124567
v 10.305671 15.766082 2.124567
v 10.318048 15.757201 2.217886
v 10.145385 15.881094 2.209476
v 5.398333 1.120175 -1.697973
v 5.419682 1.126435 -1.587436
v 5.248158 1.076138 -1.615338
v 5.189786 1.059022 -1.697973
v 5.363457 0.924933 -1.697973
v 5.300133 1.140881 -1.697973
v 5.278761 1.213763 -1.600860
v 5.352803 0.961266 -1.607894
v 8.914806 14.826339 1.995735
v 8.889511 14.881256 1.907112
v 8.808005 15.058209 1.907112
v 8.777300 15.124872 1.995735
v 8.919126 15.029539 1.907079
v 8.752116 14.952613 1.907079
v 8.684157 14.921311 1.999592
v 8.935505 15.037084 2.005660
v 4.933170 2.312461 -1.405489
v 4.928358 2.336822 -1.301020
v 4.967023 2.141101 -1.327390
v 4.980181 2.074495 -1.405489
v 5.146691 2.254064 -1.405489
v 4.900281 2.205385 -1.405489
v 4.817118 2.188956 -1.313706
v 5.105234 2.245874 -1.320354
v 6.358187 4.888025 -0.698128
v 6.271724 5.057808 -0.698128
v 6.261317 5.078245 -0.605253
v 6.385340 4.834706 -0.607924
v 6.425844 5.001311 -0.698128
v 6.241617 4.907493 -0.698128
v 6.235441 4.904347 -0.619518
v 6.423146 4.999937 -0.607787
v -2.233736 1.186541 -1.620373
v -2.087036 1.396342 -1.620373
v -2.062269 1.431763 -1.530709
v -2.258977 1.150442 -1.513459
v -2.044518 1.215412 -1.620440
v -2.298692 1.393139 -1.620440
v -2.203763 1.326761 -1.494281
v -2.026167 1.202581 -1.532605
v 8.466753 2.267839 -1.387797
v 8.473389 2.458887 -1.387797
v 8.472389 2.430100 -1.271232
v 8.463924 2.186396 -1.307082
v 8.383785 2.326741 -1.387797
v 8.343786 2.328130 -1.297730
v 8.545158 2.321136 -1.269165
v 8.546654 2.321084 -1.387797
v 11.962107 9.296475 0.445151
v 12.148840 9.404628 0.445151
v 12.164271 9.413566 0.523533
v 11.942085 9.284879 0.569272
v 12.093823 9.264792 0.445201
v 11.990986 9.442350 0.445201
v 12.017854 9.395960 0.533632
v 12.109869 9.237089 0.546226
v 15.466798 3.578807 -0.792708
v 15.411020 3.578306 -0.969650
v 15.231293 3.576693 -0.969650
v 15.163585 3.576085 -0.792708
v 15.297465 3.659337 -0.969717
v 15.298989 3.489709 -0.969717
v 15.299609 3.420685 -0.785006
v 15.297317 3.675973 -0.772892
v 2.860803 11.381389 0.988413
v 3.046336 11.424816 0.988413
v 3.068668 11.430044 1.121209
v 2.802538 11.367750 1.117390
v 2.954666 11.288631 0.988413
v 2.907544 11.489948 0.988413
v 2.905964 11.496697 1.100813
v 2.953976 11.291580 1.117586
v 11.578401 14.065121 1.678073
v 11.600202 14.234043 1.678073
v 11.596916 14.208590 1.802166
v 11.569107 13.993111 1.764000
v 11.509707 14.124283 1.678073
v 11.474341 14.128847 1.773956
v 11.652391 14.105868 1.804366
v 11.653714 14.105698 1.678073
v 15.365820 -8.008884 -3.014920
v 15.337922 -7.962286 -3.104895
v 15.248028 -7.812136 -3.104895
v 15.214163 -7.755570 -3.014920
v 15.350036 -7.826999 -3.104929
v 15.208323 -7.911841 -3.104929
v 15.150659 -7.946364 -3.011003
v 15.363935 -7.818678 -3.004843
v 15.099608 -9.588326 -3.357291
v 14.895509 -9.565714 -3.357291
v 14.926262 -9.569120 -3.228007
v 15.186615 -9.597965 -3.267770
v 15.029783 -9.672416 -3.357291
v 15.025049 -9.715146 -3.257397
v 15.048883 -9.500018 -3.225715
v 15.049060 -9.498420 -3.357291
v 10.548996 13.430184 1.652089
v 10.592226 13.477285 1.532650
v 10.731523 13.629058 1.532650
v 10.783999 13.686234 1.652089
v 10.748947 13.508968 1.532605
v 10.605703 13.640437 1.532605
v 10.547416 13.693933 1.657288
v 10.762996 13.496075 1.665465
v 7.928965 12.363618 1.211724
v 7.852943 12.179023 1.211724
v 7.864398 12.206838 1.321469
v 7.961372 12.442309 1.287716
v 7.988744 12.275767 1.211724
v 8.027391 12.259851 1.296521
v 7.832821 12.339980 1.323415
v 7.831376 12.340576 1.211724
v 12.910681 15.562698 2.075335
v 13.131711 15.528637 2.075335
v 13.158317 15.524537 2.189680
v 12.841269 15.573395 2.186391
v 12.972204 15.420562 2.075335
v 13.009163 15.660396 2.075335
v 13.010402 15.668436 2.172117
v 12.972745 15.424075 2.186560
v 9.509923 2.643028 -1.305193
v 9.336418 2.668605 -1.305193
v 9.315534 2.671684 -1.145347
v 9.564410 2.634996 -1.149944
v 9.460948 2.754175 -1.305193
v 9.433195 2.565910 -1.305193
v 9.432264 2.559598 -1.169898
v 9.460541 2.751417 -1.149708
v -2.261227 6.903130 -0.149912
v -2.223545 7.107103 -0.149912
v -2.229223 7.076369 -0.020739
v -2.277290 6.816176 -0.060468
v -2.340847 6.979616 -0.149912
v -2.383552 6.987504 -0.050104
v -2.168556 6.947787 -0.018449
v -2.166959 6.947492 -0.149912
v 7.458809 0.108853 -1.946495
v 7.349761 0.297963 -1.946495
v 7.366193 0.269468 -1.828287
v 7.505296 0.028237 -1.864643
v 7.342823 0.115772 -1.946495
v 7.303230 0.092941 -1.855159
v 7.502558 0.207881 -1.826191
v 7.504038 0.208735 -1.946495
v 5.969546 9.855272 0.706636
v 5.917605 9.882529 0.600635
v 5.750237 9.970357 0.600635
v 5.687186 10.003444 0.706636
v 5.852638 10.014062 0.600595
v 5.769746 9.856099 0.600595
v 5.736016 9.791822 0.711250
v 5.860768 10.029553 0.718507
v 4.726249 13.877667 1.602430
v 4.729657 13.902889 1.731633
v 4.702277 13.700247 1.699019
v 4.692959 13.631286 1.602430
v 4.913980 13.750248 1.602430
v 4.658855 13.784719 1.602430
v 4.572752 13.796353 1.715943
v 4.871057 13.756047 1.707721
v -4.475435 7.562193 0.035798
v -4.477509 7.539433 0.190915
v -4.460845 7.722294 0.151760
v -4.455175 7.784523 0.035798
v -4.648819 7.669185 0.035798
v -4.418599 7.648205 0.035798
v -4.340900 7.641125 0.172078
v -4.610085 7.665655 0.162207
v 9.332481 8.245954 0.158710
v 9.352413 8.238189 0.322982
v 9.192278 8.300576 0.281516
v 9.137782 8.321807 0.158710
v 9.191316 8.117757 0.158710
v 9.269860 8.319366 0.158710
v 9.296369 8.387408 0.303033
v 9.204530 8.151676 0.292580
v 11.971101 10.414880 0.705974
v 11.760834 10.266321 0.705974
v 11.735523 10.248439 0.876893
v 12.037134 10.461533 0.871977
v 11.806485 10.483377 0.705974
v 11.967682 10.255220 0.705974
v 11.973086 10.247572 0.850641
v 11.808846 10.480035 0.872229
v 10.065475 15.041827 1.862768
v 10.100140 14.737726 1.862768
v 10.108358 14.665624 1.947121
v 10.074358 14.963895 1.947121
v 9.962958 14.819953 1.862731
v 10.241232 14.851674 1.862731
v 10.259068 14.853707 1.956058
v 10.010252 14.825344 1.947648
v 13.464555 10.373525 0.731965
v 13.447016 10.386889 0.843300
v 13.587929 10.279516 0.815197
v 13.635883 10.242976 0.731965
v 13.640896 10.460381 0.731965
v 13.505714 10.282971 0.731965
v 13.460091 10.223097 0.829780
v 13.618152 10.430532 0.822695
v 6.663637 4.256089 -0.902269
v 6.676521 4.277985 -0.623747
v 6.573010 4.102067 -0.694052
v 6.537784 4.042202 -0.902269
v 6.787170 4.066271 -0.902269
v 6.565692 4.196590 -0.902269
v 6.490944 4.240573 -0.657571
v 6.749907 4.088197 -0.675294
v 13.195421 8.193587 0.179858
v 13.064323 8.276467 0.179858
v 13.048543 8.286443 0.286071
v 13.236592 8.167560 0.283016
v 13.195675 8.301000 0.179858
v 13.105744 8.158749 0.179858
v 13.102730 8.153980 0.269757
v 13.194358 8.298917 0.283173
v -5.688117 3.498269 -1.037012
v -5.947139 3.487793 -1.037012
v -5.908110 3.489372 -0.882827
v -5.577697 3.502735 -0.930248
v -5.759321 3.380079 -1.037012
v -5.757128 3.325849 -0.917878
v -5.768170 3.598867 -0.880094
v -5.768252 3.600895 -1.037012
vn 0.0151 0.9999 -0.0000
vn -0.9999 0.0150 -0.0000
vn -0.3822 0.9241 -0.0000
vn -0.9241 -0.3822 -0.0000
vn 0.7479 -0.6638 -0.0000
vn 0.6638 0.7479 -0.0000
vn -0.8010 -0.5986 -0.0000
vn 0.5986 -0.8010 -0.0000
vn -0.8854 0.4649 -0.0000
vn -0.4649 -0.8854 -0.0000
vn 0.4892 -0.8722 -0.0000
vn 0.8722 0.4892 -0.0000
vn -0.8038 -0.5949 -0.0000
vn 0.5949 -0.8038 -0.0000
vn 0.9986 -0.0538 -0.0000
vn 0.0538 0.9986 -0.0000
vn -0.1576 0.9875 -0.0000
vn -0.9875 -0.1576 -0.0000
vn 0.4743 0.8803 -0.0000
vn -0.8803 0.4743 -0.0000
vn -0.5218 0.8531 -0.0000
vn -0.8531 -0.5218 -0.0000
vn 0.5827 -0.8127 -0.0000
vn 0.8127 0.5827 -0.0000
vn -0.9711 -0.2388 -0.0000
vn 0.2388 -0.9711 -0.0000
vn 0.9965 -0.0839 -0.0000
vn 0.0839 0.9965 -0.0000
vn 0.0905 -0.9959 -0.0000
vn 0.9959 0.0905 -0.0000
vn -0.8897 -0.4566 -0.0000
vn 0.4566 -0.8897 -0.0000
vn 0.2469 0.9690 -0.0000
vn -0.9690 0.2469 -0.0000
vn 0.1863 -0.9825 -0.0000
vn 0.9825 0.1863 -0.0000
vn -0.9994 0.0348 -0.0000
vn -0.0348 -0.9994 -0.0000
vn 0.0749 0.9972 -0.0000
vn -0.9972 0.0749 -0.0000
vn 0.6162 0.7876 -0.0000
vn -0.7876 0.6162 -0.0000
vn -0.9991 -0.0432 -0.0000
vn 0.0432 -0.9991 -0.0000
vn -0.5973 -0.8021 -0.0000
vn 0.8021 -0.5973 -0.0000
vn -0.9687 0.2481 -0.0000
vn -0.2481 -0.9687 -0.0000
vn -0.9354 -0.3535 -0.0000
vn 0.3535 -0.9354 -0.0000
vn 0.4815 -0.8764 -0.0000
vn 0.8764 0.4815 -0.0000
vn -0.4507 0.8927 -0.0000
vn -0.8927 -0.4507 -0.0000
vn -0.9917 -0.1286 -0.0000
vn 0.1286 -0.9917 -0.0000
vn -0.8418 -0.5398 -0.0000
vn 0.5398 -0.8418 -0.0000
vn -0.9570 -0.2901 -0.0000
vn 0.2901 -0.9570 -0.0000
vn -0.5254 -0.8509 -0.0000
vn 0.8509 -0.5254 -0.0000
vn 0.5177 -0.8556 -0.0000
vn 0.8556 0.5177 -0.0000
vn -0.4391 0.8984 -0.0000
vn -0.8984 -0.4391 -0.0000
vn -0.3002 0.9539 -0.0000
vn -0.9539 -0.3002 -0.0000
vn 0.9375 -0.3479 -0.0000
vn 0.3479 0.9375 -0.0000
vn 0.8578 0.5140 -0.0000
vn -0.5140 0.8578 -0.0000
vn 0.1039 -0.9946 -0.0000
vn 0.9946 0.1039 -0.0000
vn 0.9041 0.4274 -0.0000
vn -0.4274 0.9041 -0.0000
vn 0.0382 -0.9993 -0.0000
vn 0.9993 0.0382 -0.0000
vn 0.7694 0.6388 -0.0000
vn -0.6388 0.7694 -0.0000
vn -0.8408 0.5413 -0.0000
vn -0.5413 -0.8408 -0.0000
vn 0.7406 0.6719 -0.0000
vn -0.6719 0.7406 -0.0000
vn -0.3026 0.9531 -0.0000
vn -0.9531 -0.3026 -0.0000
vn -0.4069 0.9135 -0.0000
vn -0.9135 -0.4069 -0.0000
vn 0.9983 -0.0589 -0.0000
vn 0.0589 0.9983 -0.0000
vn -0.9258 -0.3780 -0.0000
vn 0.3780 -0.9258 -0.0000
vn -0.9923 -0.1240 -0.0000
vn 0.1240 -0.9923 -0.0000
vn 0.9959 -0.0902 -0.0000
vn 0.0902 0.9959 -0.0000
vn 0.9511 -0.3089 -0.0000
vn 0.3090 0.9511 -0.0000
vn -0.5529 -0.8332 -0.0000
vn 0.8332 -0.5529 -0.0000
vn -0.2684 -0.9633 -0.0000
vn 0.9633 -0.2684 -0.0000
vn 0.9659 -0.2589 -0.0000
vn 0.2589 0.9659 -0.0000
vn -0.3484 0.9373 -0.0000
vn -0.9373 -0.3484 -0.0000
vn 0.4686 0.8834 -0.0000
vn -0.8834 0.4686 -0.0000
vn -0.7398 -0.6728 -0.0000
vn 0.6728 -0.7398 -0.0000
vn 0.8566 0.5159 -0.0000
vn -0.5159 0.8566 -0.0000
vn -0.9993 0.0372 -0.0000
vn -0.0372 -0.9993 -0.0000
vn -0.3802 0.9249 -0.0000
vn -0.9249 -0.3802 -0.0000
vn 0.0027 -1.0000 -0.0000
vn 1.0000 0.0027 -0.0000
vn -0.9902 -0.1400 -0.0000
vn 0.1400 -0.9902 -0.0000
vn -0.2122 0.9772 -0.0000
vn -0.9772 -0.2122 -0.0000
vn -0.2854 0.9584 -0.0000
vn -0.9584 -0.2854 -0.0000
vn -0.2269 0.9739 -0.0000
vn -0.9739 -0.2269 -0.0000
vn -0.2899 0.9571 -0.0000
vn -0.9571 -0.2899 -0.0000
vn 0.5198 0.8543 -0.0000
vn -0.8543 0.5198 -0.0000
vn 0.9755 -0.2198 -0.0000
vn 0.2198 0.9755 -0.0000
vn 0.5153 -0.8570 -0.0000
vn 0.8570 0.5153 -0.0000
vn -0.4422 0.8969 -0.0000
vn -0.8969 -0.4423 -0.0000
vn -0.9812 0.1929 -0.0000
vn -0.1929 -0.9812 -0.0000
vn 0.4089 -0.9126 -0.0000
vn 0.9126 0.4089 -0.0000
vn -0.8784 -0.4779 -0.0000
vn 0.4779 -0.8784 -0.0000
vn 0.7802 -0.6256 -0.0000
vn 0.6256 0.7802 -0.0000
vn 0.3712 -0.9285 -0.0000
vn 0.9285 0.3712 -0.0000
vn 0.9363 -0.3512 -0.0000
vn 0.3512 0.9363 -0.0000
vn 0.9887 0.1500 -0.0000
vn -0.1500 0.9887 -0.0000
vn 0.8385 -0.5449 -0.0000
vn 0.5449 0.8385 -0.0000
vn -0.9820 0.1891 -0.0000
vn -0.1891 -0.9820 -0.0000
vn 0.1616 0.9869 -0.0000
vn -0.9869 0.1616 -0.0000
vn 0.8764 0.4817 -0.0000
vn -0.4817 0.8764 -0.0000
vn -0.9204 0.3909 -0.0000
vn -0.3909 -0.9204 -0.0000
vn 0.5726 -0.8198 -0.0000
vn 0.8198 0.5726 -0.0000
vn -0.9907 -0.1364 -0.0000
vn 0.1364 -0.9907 -0.0000
vn 0.8359 0.5489 -0.0000
vn -0.5489 0.8359 -0.0000
vn -0.8125 0.5830 -0.0000
vn -0.5830 -0.8125 -0.0000
vn 0.2814 -0.9596 -0.0000
vn 0.9596 0.2814 -0.0000
vn 0.9083 0.4184 -0.0000
vn -0.4184 0.9083 -0.0000
vn 0.9810 0.1938 -0.0000
vn -0.1938 0.9810 -0.0000
vn 0.8911 0.4538 -0.0000
vn -0.4538 0.8911 -0.0000
vn 0.8195 -0.5730 -0.0000
vn 0.5730 0.8195 -0.0000
vn 0.9994 -0.0347 -0.0000
vn 0.0347 0.9994 -0.0000
vn 0.5012 -0.8653 -0.0000
vn 0.8653 0.5012 -0.0000
vn -0.0090 1.0000 -0.0000
vn -1.0000 -0.0090 -0.0000
vn 0.2279 -0.9737 -0.0000
vn 0.9737 0.2279 -0.0000
vn 0.9918 -0.1280 -0.0000
vn 0.1280 0.9918 -0.0000
vn 0.8580 0.5137 -0.0000
vn -0.5137 0.8580 -0.0000
vn 0.1101 0.9939 -0.0000
vn -0.9939 0.1101 -0.0000
vn 0.7367 -0.6762 -0.0000
vn 0.6762 0.7367 -0.0000
vn -0.9247 0.3808 -0.0000
vn -0.3808 -0.9247 -0.0000
vn -0.1523 -0.9883 -0.0000
vn 0.9883 -0.1523 -0.0000
vn 0.1458 0.9893 -0.0000
vn -0.9893 0.1458 -0.0000
vn 0.9834 -0.1817 -0.0000
vn 0.1817 0.9834 -0.0000
vn 0.8663 0.4995 -0.0000
vn -0.4995 0.8663 -0.0000
vn 0.4647 0.8855 -0.0000
vn -0.8855 0.4647 -0.0000
vn 0.9910 -0.1339 -0.0000
vn 0.1339 0.9910 -0.0000
vn -0.9959 0.0908 -0.0000
vn -0.0908 -0.9959 -0.0000
vn -0.3630 -0.9318 -0.0000
vn 0.9318 -0.3630 -0.0000
vn -0.5770 0.8167 -0.0000
vn -0.8167 -0.5770 -0.0000
vn -0.9936 -0.1133 -0.0000
vn 0.1133 -0.9936 -0.0000
vn 0.6061 0.7954 -0.0000
vn -0.7954 0.6061 -0.0000
vn 0.8619 -0.5071 -0.0000
vn 0.5071 0.8619 -0.0000
vn 0.5344 0.8453 -0.0000
vn -0.8453 0.5344 -0.0000
vn -0.0404 0.9992 -0.0000
vn -0.9992 -0.0404 -0.0000
vn 0.0150 0.9999 -0.0000
vn 0.4744 0.8803 -0.0000
vn -0.8803 0.4744 -0.0000
vn 0.8020 -0.5973 -0.0000
vn 0.9511 -0.3090 -0.0000
vn -0.4423 0.8969 -0.0000
vn 0.8764 0.4816 -0.0000
vn -0.4816 0.8764 -0.0000
vn -0.9959 0.0907 -0.0000
vt 0.548614 0.500208
vt 0.730526 0.577570
vt 0.530599 0.622715
vt 0.802250 0.500257
vt 0.920277 0.587538
vt 0.777322 0.599968
vt 0.199407 0.500208
vt 0.021869 0.609361
vt 0.026417 0.500208
vt 0.318619 0.500194
vt 0.479294 0.593008
vt 0.310722 0.610752
vt 0.587516 0.250000
vt 0.696219 0.438742
vt 0.532955 0.380692
vt 0.931885 0.250000
vt 0.823776 0.442088
vt 0.822774 0.250000
vt 0.183597 0.000000
vt 0.079867 0.150378
vt 0.039548 0.000000
vt 0.406485 0.000000
vt 0.282420 0.163926
vt 0.257324 0.000000
vt 0.038376 0.371048
vt 0.159378 0.250046
vt 0.194166 0.371048
vt 0.420000 0.250000
vt 0.324298 0.384599
vt 0.332846 0.250000
vt 0.574736 0.000000
vt 0.727477 0.180119
vt 0.531923 0.174939
vt 0.943005 0.000000
vt 0.797243 0.175205
vt 0.795077 0.000000
vt 0.947964 0.152455
vt 0.683200 0.750259
vt 0.546949 0.843491
vt 0.500000 0.750259
vt 0.966633 0.750219
vt 0.827483 0.844072
vt 0.798992 0.750219
vt 0.046190 0.750308
vt 0.224718 0.829653
vt 0.019909 0.844918
vt 0.292351 0.750248
vt 0.408285 0.861889
vt 0.278991 0.827976
vt 0.198931 0.750308
vt 0.716640 0.500208
vt 0.962020 0.500257
vt 0.225835 0.590819
vt 0.479294 0.500194
vt 0.715504 0.250000
vt 0.958681 0.395835
vt 0.198343 0.201154
vt 0.456826 0.176726
vt 0.067034 0.250046
vt 0.455465 0.376315
vt 0.711067 0.000000
vt 0.726638 0.843491
vt 0.977378 0.853368
vt 0.477396 0.750248
s 0
f 1/1/1 3/2/1 4/3/1
f 5/4/2 7/5/2 8/6/2
f 10/7/3 12/8/3 9/9/3
f 13/10/4 15/11/4 16/12/4
f 17/13/5 19/14/5 20/15/5
f 21/16/6 23/17/6 24/18/6
f 25/19/7 27/20/7 28/21/7
f 30/22/8 32/23/8 29/24/8
f 33/13/9 35/14/9 36/15/9
f 37/16/10 39/17/10 40/18/10
f 41/25/11 43/26/11 44/27/11
f 46/28/12 48/29/12 45/30/12
f 49/19/13 51/20/13 52/21/13
f 54/22/14 56/23/14 53/24/14
f 58/7/15 60/8/15 57/9/15
f 61/10/16 63/11/16 64/12/16
f 65/25/17 67/26/17 68/27/17
f 70/28/18 72/29/18 69/30/18
f 73/25/19 75/26/19 76/27/19
f 78/28/20 80/29/20 77/30/20
f 81/25/21 83/26/21 84/27/21
f 86/28/22 88/29/22 85/30/22
f 89/19/23 91/20/23 92/21/23
f 94/22/24 96/23/24 93/24/24
f 97/31/25 99/32/25 100/33/25
f 102/34/26 104/35/26 101/36/26
f 105/19/27 107/20/27 108/21/27
f 110/22/28 112/23/28 109/24/28
f 113/25/29 115/26/29 116/27/29
f 118/28/30 120/29/30 117/30/30
f 121/31/31 123/32/31 124/33/31
f 126/34/32 128/35/32 125/36/32
f 129/13/33 131/14/33 132/15/33
f 133/16/34 135/17/34 136/18/34
f 137/13/35 139/14/35 140/15/35
f 141/16/36 143/17/36 144/18/36
f 145/25/37 147/26/37 148/27/37
f 150/28/38 152/29/38 149/30/38
f 153/19/39 155/20/39 156/21/39
f 158/22/40 160/23/40 157/24/40
f 161/25/41 163/26/41 164/27/41
f 166/28/42 168/29/42 165/30/42
f 169/25/43 171/26/43 172/27/43
f 174/28/44 176/29/44 173/30/44
f 177/19/45 179/20/45 180/21/45
f 182/22/46 184/23/46 181/24/46
f 185/31/47 187/32/47 188/33/47
f 189/36/48 191/37/48 192/35/48
f 193/13/49 195/14/49 196/15/49
f 197/16/50 199/17/50 200/18/50
f 201/19/51 203/20/51 204/21/51
f 206/22/52 208/23/52 205/24/52
f 209/31/53 211/32/53 212/33/53
f 213/36/54 215/37/54 216/35/54
f 218/7/55 220/8/55 217/9/55
f 221/10/56 223/11/56 224/12/56
f 225/31/57 227/32/57 228/33/57
f 229/36/58 231/37/58 232/35/58
f 233/13/59 235/14/59 236/15/59
f 237/16/60 239/17/60 240/18/60
f 241/25/61 243/26/61 244/27/61
f 246/28/62 248/29/62 245/30/62
f 250/38/63 252/39/63 249/40/63
f 254/41/64 256/42/64 253/43/64
f 257/19/65 259/20/65 260/21/65
f 262/22/66 264/23/66 261/24/66
f 265/13/67 267/14/67 268/15/67
f 269/16/68 271/17/68 272/18/68
f 274/7/69 276/8/69 273/9/69
f 277/10/70 279/11/70 280/12/70
f 281/19/71 283/20/71 284/21/71
f 286/22/72 288/23/72 285/24/72
f 289/25/73 291/26/73 292/27/73
f 294/28/74 296/29/74 293/30/74
f 297/31/75 299/32/75 300/33/75
f 302/34/76 304/35/76 301/36/76
f 305/31/77 307/32/77 308/33/77
f 310/34/78 312/35/78 309/36/78
f 313/19/79 315/20/79 316/21/79
f 318/22/80 320/23/80 317/24/80
f 321/25/81 323/26/81 324/27/81
f 326/28/82 328/29/82 325/30/82
f 329/19/83 331/20/83 332/21/83
f 334/22/84 336/23/84 333/24/84
f 338/38/85 340/39/85 337/40/85
f 342/41/86 344/42/86 341/43/86
f 345/19/87 347/20/87 348/21/87
f 350/22/88 352/23/88 349/24/88
f 353/1/89 355/2/89 356/3/89
f 357/4/90 359/5/90 360/6/90
f 361/31/91 363/32/91 364/33/91
f 366/34/92 368/35/92 365/36/92
f 370/38/93 372/39/93 369/40/93
f 374/41/94 376/42/94 373/43/94
f 377/31/95 379/32/95 380/33/95
f 381/36/96 383/37/96 384/35/96
f 385/31/97 387/32/97 388/33/97
f 390/34/98 392/35/98 389/36/98
f 393/13/99 395/14/99 396/15/99
f 397/16/100 399/17/100 400/18/100
f 401/13/101 403/14/101 404/15/101
f 405/16/102 407/17/102 408/18/102
f 409/31/103 411/32/103 412/33/103
f 414/34/104 416/35/104 413/36/104
f 417/25/105 419/26/105 420/27/105
f 422/28/106 424/29/106 421/30/106
f 425/13/107 427/14/107 428/15/107
f 429/16/108 431/17/108 432/18/108
f 433/13/109 435/14/109 436/15/109
f 437/16/110 439/17/110 440/18/110
f 441/25/111 443/26/111 444/27/111
f 446/28/112 448/29/112 445/30/112
f 449/31/113 451/32/113 452/33/113
f 454/34/114 456/35/114 453/36/114
f 458/7/115 460/8/115 457/9/115
f 461/10/116 463/11/116 464/12/116
f 465/19/117 467/20/117 468/21/117
f 470/22/118 472/23/118 469/24/118
f 473/13/119 475/14/119 476/15/119
f 477/16/120 479/17/120 480/18/120
f 481/31/121 483/32/121 484/33/121
f 486/34/122 488/35/122 485/36/122
f 489/19/123 491/20/123 492/21/123
f 494/22/124 496/23/124 493/24/124
f 497/19/125 499/20/125 500/21/125
f 502/22/126 504/23/126 501/24/126
f 505/19/127 507/20/127 508/21/127
f 510/22/128 512/23/128 509/24/128
f 513/25/129 515/26/129 516/27/129
f 518/28/130 520/29/130 517/30/130
f 521/25/131 523/26/131 524/27/131
f 526/28/132 528/29/132 525/30/132
f 529/25/133 531/26/133 532/27/133
f 534/28/134 536/29/134 533/30/134
f 537/31/135 539/32/135 540/33/135
f 542/34/136 544/35/136 541/36/136
f 545/19/137 547/20/137 548/21/137
f 550/22/138 552/23/138 549/24/138
f 554/38/139 556/39/139 553/40/139
f 558/41/140 560/42/140 557/43/140
f 561/19/141 563/20/141 564/21/141
f 566/22/142 568/23/142 565/24/142
f 569/13/143 571/14/143 572/15/143
f 573/16/144 575/17/144 576/18/144
f 577/13/145 579/14/145 580/15/145
f 581/16/146 583/17/146 584/18/146
f 585/25/147 587/26/147 588/27/147
f 590/28/148 592/29/148 589/30/148
f 593/13/149 595/14/149 596/15/149
f 597/16/150 599/17/150 600/18/150
f 602/38/151 604/39/151 601/40/151
f 606/41/152 608/42/152 605/43/152
f 609/31/153 611/32/153 612/33/153
f 614/34/154 616/35/154 613/36/154
f 617/13/155 619/14/155 620/15/155
f 621/16/156 623/17/156 624/18/156
f 625/25/157 627/26/157 628/27/157
f 630/28/158 632/29/158 629/30/158
f 633/19/159 635/20/159 636/21/159
f 638/22/160 640/23/160 637/24/160
f 642/38/161 644/39/161 641/40/161
f 646/41/162 648/42/162 645/43/162
f 649/19/163 651/20/163 652/21/163
f 654/22/164 656/23/164 653/24/164
f 657/44/165 659/45/165 660/46/165
f 661/47/166 663/48/166 664/49/166
f 666/38/167 668/39/167 665/40/167
f 670/41/168 672/42/168 669/43/168
f 673/19/169 675/20/169 676/21/169
f 678/22/170 680/23/170 677/24/170
f 681/25/171 683/26/171 684/27/171
f 686/28/172 688/29/172 685/30/172
f 689/19/173 691/20/173 692/21/173
f 694/22/174 696/23/174 693/24/174
f 697/31/175 699/32/175 700/33/175
f 702/34/176 704/35/176 701/36/176
f 706/50/177 708/46/177 705/44/177
f 709/47/178 711/48/178 712/49/178
f 713/13/179 715/14/179 716/15/179
f 717/16/180 719/17/180 720/18/180
f 721/1/181 723/2/181 724/3/181
f 725/4/182 727/5/182 728/6/182
f 729/25/183 731/26/183 732/27/183
f 734/28/184 736/29/184 733/30/184
f 737/31/185 739/32/185 740/33/185
f 742/34/186 744/35/186 741/36/186
f 745/13/187 747/14/187 748/15/187
f 749/16/188 751/17/188 752/18/188
f 753/25/189 755/26/189 756/27/189
f 758/28/190 760/29/190 757/30/190
f 761/13/191 763/14/191 764/15/191
f 765/16/192 767/17/192 768/18/192
f 769/25/193 771/26/193 772/27/193
f 774/28/194 776/29/194 773/30/194
f 777/13/195 779/14/195 780/15/195
f 781/16/196 783/17/196 784/18/196
f 785/31/197 787/32/197 788/33/197
f 790/34/198 792/35/198 789/36/198
f 793/31/199 795/32/199 796/33/199
f 797/36/200 799/37/200 800/35/200
f 801/13/201 803/14/201 804/15/201
f 805/16/202 807/17/202 808/18/202
f 809/13/203 811/14/203 812/15/203
f 813/16/204 815/17/204 816/18/204
f 817/25/205 819/26/205 820/27/205
f 822/28/206 824/29/206 821/30/206
f 825/19/207 827/20/207 828/21/207
f 830/22/208 832/23/208 829/24/208
f 833/19/209 835/20/209 836/21/209
f 838/22/210 840/23/210 837/24/210
f 841/19/211 843/20/211 844/21/211
f 846/22/212 848/23/212 845/24/212
f 849/31/213 851/32/213 852/33/213
f 854/34/214 856/35/214 853/36/214
f 858/38/215 860/39/215 857/40/215
f 862/41/216 864/42/216 861/43/216
f 865/19/217 867/20/217 868/21/217
f 870/22/218 872/23/218 869/24/218
f 873/19/219 875/20/219 876/21/219
f 878/22/220 880/23/220 877/24/220
f 881/31/221 883/32/221 884/33/221
f 886/34/222 888/35/222 885/36/222
f 889/13/223 891/14/223 892/15/223
f 893/16/224 895/17/224 896/18/224
f 1/1/225 2/51/225 3/2/225
f 5/4/2 6/52/2 7/5/2
f 10/7/3 11/53/3 12/8/3
f 13/10/4 14/54/4 15/11/4
f 17/13/5 18/55/5 19/14/5
f 21/16/6 22/56/6 23/17/6
f 25/19/7 26/57/7 27/20/7
f 30/22/8 31/58/8 32/23/8
f 33/13/9 34/55/9 35/14/9
f 37/16/10 38/56/10 39/17/10
f 41/25/11 42/59/11 43/26/11
f 46/28/12 47/60/12 48/29/12
f 49/19/13 50/57/13 51/20/13
f 54/22/14 55/58/14 56/23/14
f 58/7/15 59/53/15 60/8/15
f 61/10/16 62/54/16 63/11/16
f 65/25/17 66/59/17 67/26/17
f 70/28/18 71/60/18 72/29/18
f 73/25/226 74/59/226 75/26/226
f 78/28/227 79/60/227 80/29/227
f 81/25/21 82/59/21 83/26/21
f 86/28/22 87/60/22 88/29/22
f 89/19/23 90/57/23 91/20/23
f 94/22/24 95/58/24 96/23/24
f 97/31/25 98/61/25 99/32/25
f 102/34/26 103/37/26 104/35/26
f 105/19/27 106/57/27 107/20/27
f 110/22/28 111/58/28 112/23/28
f 113/25/29 114/59/29 115/26/29
f 118/28/30 119/60/30 120/29/30
f 121/31/31 122/61/31 123/32/31
f 126/34/32 127/37/32 128/35/32
f 129/13/33 130/55/33 131/14/33
f 133/16/34 134/56/34 135/17/34
f 137/13/35 138/55/35 139/14/35
f 141/16/36 142/56/36 143/17/36
f 145/25/37 146/59/37 147/26/37
f 150/28/38 151/60/38 152/29/38
f 153/19/39 154/57/39 155/20/39
f 158/22/40 159/58/40 160/23/40
f 161/25/41 162/59/41 163/26/41
f 166/28/42 167/60/42 168/29/42
f 169/25/43 170/59/43 171/26/43
f 174/28/44 175/60/44 176/29/44
f 177/19/45 178/57/45 179/20/45
f 182/22/228 183/58/228 184/23/228
f 185/31/47 186/61/47 187/32/47
f 189/36/48 190/34/48 191/37/48
f 193/13/49 194/55/49 195/14/49
f 197/16/50 198/56/50 199/17/50
f 201/19/51 202/57/51 203/20/51
f 206/22/52 207/58/52 208/23/52
f 209/31/53 210/61/53 211/32/53
f 213/36/54 214/34/54 215/37/54
f 218/7/55 219/53/55 220/8/55
f 221/10/56 222/54/56 223/11/56
f 225/31/57 226/61/57 227/32/57
f 229/36/58 230/34/58 231/37/58
f 233/13/59 234/55/59 235/14/59
f 237/16/60 238/56/60 239/17/60
f 241/25/61 242/59/61 243/26/61
f 246/28/62 247/60/62 248/29/62
f 250/38/63 251/62/63 252/39/63
f 254/41/64 255/63/64 256/42/64
f 257/19/65 258/57/65 259/20/65
f 262/22/66 263/58/66 264/23/66
f 265/13/67 266/55/67 267/14/67
f 269/16/68 270/56/68 271/17/68
f 274/7/69 275/53/69 276/8/69
f 277/10/70 278/54/70 279/11/70
f 281/19/71 282/57/71 283/20/71
f 286/22/72 287/58/72 288/23/72
f 289/25/73 290/59/73 291/26/73
f 294/28/74 295/60/74 296/29/74
f 297/31/75 298/61/75 299/32/75
f 302/34/76 303/37/76 304/35/76
f 305/31/77 306/61/77 307/32/77
f 310/34/78 311/37/78 312/35/78
f 313/19/79 314/57/79 315/20/79
f 318/22/80 319/58/80 320/23/80
f 321/25/81 322/59/81 323/26/81
f 326/28/82 327/60/82 328/29/82
f 329/19/83 330/57/83 331/20/83
f 334/22/84 335/58/84 336/23/84
f 338/38/85 339/62/85 340/39/85
f 342/41/86 343/63/86 344/42/86
f 345/19/87 346/57/87 347/20/87
f 350/22/88 351/58/88 352/23/88
f 353/1/89 354/51/89 355/2/89
f 357/4/90 358/52/90 359/5/90
f 361/31/91 362/61/91 363/32/91
f 366/34/92 367/37/92 368/35/92
f 370/38/93 371/62/93 372/39/93
f 374/41/94 375/63/94 376/42/94
f 377/31/95 378/61/95 379/32/95
f 381/36/96 382/34/96 383/37/96
f 385/31/229 386/61/229 387/32/229
f 390/34/98 391/37/98 392/35/98
f 393/13/99 394/55/99 395/14/99
f 397/16/100 398/56/100 399/17/100
f 401/13/101 402/55/101 403/14/101
f 405/16/102 406/56/102 407/17/102
f 409/31/103 410/61/103 411/32/103
f 414/34/104 415/37/104 416/35/104
f 417/25/105 418/59/105 419/26/105
f 422/28/106 423/60/106 424/29/106
f 425/13/107 426/55/107 427/14/107
f 429/16/108 430/56/108 431/17/108
f 433/13/109 434/55/109 435/14/109
f 437/16/110 438/56/110 439/17/110
f 441/25/111 442/59/111 443/26/111
f 446/28/112 447/60/112 448/29/112
f 449/31/113 450/61/113 451/32/113
f 454/34/114 455/37/114 456/35/114
f 458/7/115 459/53/115 460/8/115
f 461/10/116 462/54/116 463/11/116
f 465/19/117 466/57/117 467/20/117
f 470/22/118 471/58/118 472/23/118
f 473/13/119 474/55/119 475/14/119
f 477/16/120 478/56/120 479/17/120
f 481/31/121 482/61/121 483/32/121
f 486/34/122 487/37/122 488/35/122
f 489/19/123 490/57/123 491/20/123
f 494/22/124 495/58/124 496/23/124
f 497/19/125 498/57/125 499/20/125
f 502/22/126 503/58/126 504/23/126
f 505/19/127 506/57/127 507/20/127
f 510/22/128 511/58/128 512/23/128
f 513/25/129 514/59/129 515/26/129
f 518/28/130 519/60/130 520/29/130
f 521/25/131 522/59/131 523/26/131
f 526/28/132 527/60/132 528/29/132
f 529/25/133 530/59/133 531/26/133
f 534/28/134 535/60/134 536/29/134
f 537/31/230 538/61/230 539/32/230
f 542/34/136 543/37/136 544/35/136
f 545/19/137 546/57/137 547/20/137
f 550/22/138 551/58/138 552/23/138
f 554/38/139 555/62/139 556/39/139
f 558/41/140 559/63/140 560/42/140
f 561/19/141 562/57/141 563/20/141
f 566/22/142 567/58/142 568/23/142
f 569/13/143 570/55/143 571/14/143
f 573/16/144 574/56/144 575/17/144
f 577/13/145 578/55/145 579/14/145
f 581/16/146 582/56/146 583/17/146
f 585/25/147 586/59/147 587/26/147
f 590/28/148 591/60/148 592/29/148
f 593/13/149 594/55/149 595/14/149
f 597/16/150 598/56/150 599/17/150
f 602/38/151 603/62/151 604/39/151
f 606/41/152 607/63/152 608/42/152
f 609/31/153 610/61/153 611/32/153
f 614/34/154 615/37/154 616/35/154
f 617/13/155 618/55/155 619/14/155
f 621/16/156 622/56/156 623/17/156
f 625/25/231 626/59/231 627/26/231
f 630/28/232 631/60/232 632/29/232
f 633/19/159 634/57/159 635/20/159
f 638/22/160 639/58/160 640/23/160
f 642/38/161 643/62/161 644/39/161
f 646/41/162 647/63/162 648/42/162
f 649/19/163 650/57/163 651/20/163
f 654/22/164 655/58/164 656/23/164
f 657/44/165 658/50/165 659/45/165
f 661/47/166 662/64/166 663/48/166
f 666/38/167 667/62/167 668/39/167
f 670/41/168 671/63/168 672/42/168
f 673/19/169 674/57/169 675/20/169
f 678/22/170 679/58/170 680/23/170
f 681/25/171 682/59/171 683/26/171
f 686/28/172 687/60/172 688/29/172
f 689/19/173 690/57/173 691/20/173
f 694/22/174 695/58/174 696/23/174
f 697/31/175 698/61/175 699/32/175
f 702/34/176 703/37/176 704/35/176
f 706/50/177 707/45/177 708/46/177
f 709/47/178 710/64/178 711/48/178
f 713/13/179 714/55/179 715/14/179
f 717/16/180 718/56/180 719/17/180
f 721/1/181 722/51/181 723/2/181
f 725/4/182 726/52/182 727/5/182
f 729/25/183 730/59/183 731/26/183
f 734/28/184 735/60/184 736/29/184
f 737/31/185 738/61/185 739/32/185
f 742/34/186 743/37/186 744/35/186
f 745/13/187 746/55/187 747/14/187
f 749/16/188 750/56/188 751/17/188
f 753/25/189 754/59/189 755/26/189
f 758/28/190 759/60/190 760/29/190
f 761/13/191 762/55/191 763/14/191
f 765/16/192 766/56/192 767/17/192
f 769/25/193 770/59/193 771/26/193
f 774/28/194 775/60/194 776/29/194
f 777/13/195 778/55/195 779/14/195
f 781/16/196 782/56/196 783/17/196
f 785/31/197 786/61/197 787/32/197
f 790/34/198 791/37/198 792/35/198
f 793/31/199 794/61/199 795/32/199
f 797/36/200 798/34/200 799/37/200
f 801/13/201 802/55/201 803/14/201
f 805/16/202 806/56/202 807/17/202
f 809/13/203 810/55/203 811/14/203
f 813/16/204 814/56/204 815/17/204
f 817/25/205 818/59/205 819/26/205
f 822/28/206 823/60/206 824/29/206
f 825/19/207 826/57/207 827/20/207
f 830/22/208 831/58/208 832/23/208
f 833/19/233 834/57/233 835/20/233
f 838/22/210 839/58/210 840/23/210
f 841/19/211 842/57/211 843/20/211
f 846/22/212 847/58/212 848/23/212
f 849/31/213 850/61/213 851/32/213
f 854/34/214 855/37/214 856/35/214
f 858/38/215 859/62/215 860/39/215
f 862/41/216 863/63/216 864/42/216
f 865/19/217 866/57/217 867/20/217
f 870/22/218 871/58/218 872/23/218
f 873/19/219 874/57/219 875/20/219
f 878/22/220 879/58/220 880/23/220
f 881/31/221 882/61/221 883/32/221
f 886/34/222 887/37/222 888/35/222
f 889/13/223 890/55/223 891/14/223
f 893/16/224 894/56/224 895/17/224
