mtllib grass_04_01_b0.mtl
usemtl grass_04_01_b0
# Blender 5.1.1
# www.blender.org
o grass_04_01_b0
v -13.971450 14.413078 1.443653
v -13.773602 14.464211 1.443653
v -13.749787 14.470366 1.583311
v -14.033583 14.397020 1.579294
v -13.868529 14.315943 1.443653
v -13.924012 14.530622 1.443653
v -13.925872 14.537819 1.561861
v -13.869342 14.319087 1.579500
v -6.280823 11.847593 -0.030478
v -6.215216 12.098711 -0.030478
v -6.207319 12.128938 0.065216
v -6.301426 11.768732 0.062464
v -6.109418 11.901716 -0.030478
v -6.381898 11.972904 -0.030478
v -6.391033 11.975291 0.050518
v -6.113409 11.902759 0.062605
v -14.214151 9.536593 0.644557
v -14.200750 9.538408 0.754158
v -14.308415 9.523826 0.726492
v -14.345055 9.518863 0.644557
v -14.252916 9.422443 0.644557
v -14.271276 9.557993 0.644557
v -14.277472 9.603740 0.740848
v -14.256005 9.445250 0.733873
v -7.770323 10.673825 0.126069
v -7.916027 10.512549 0.126069
v -7.933565 10.493136 0.211700
v -7.724566 10.724473 0.209237
v -7.918590 10.699783 0.126069
v -7.743594 10.541684 0.126069
v -7.737727 10.536384 0.198548
v -7.916027 10.697468 0.209363
v -14.772732 15.004445 1.546257
v -14.867043 14.809078 1.546257
v -14.852832 14.838516 1.644826
v -14.732528 15.087729 1.614510
v -14.713522 14.905312 1.546257
v -14.672620 14.885566 1.622418
v -14.878543 14.984972 1.646573
v -14.880073 14.985711 1.546257
v -13.330661 12.451461 1.123236
v -13.347025 12.432541 1.314803
v -13.215547 12.584549 1.266447
v -13.170803 12.636278 1.123236
v -13.416614 12.657231 1.123236
v -13.225237 12.491702 1.123236
v -13.160648 12.435836 1.291539
v -13.384416 12.629382 1.279349
v -8.109703 6.782943 -0.560865
v -8.138758 6.985139 -0.560865
v -8.142255 7.009478 -0.474032
v -8.100578 6.719445 -0.476529
v -8.001878 6.874524 -0.560865
v -8.221276 6.842997 -0.560865
v -8.228631 6.841940 -0.487369
v -8.005092 6.874062 -0.476401
v -14.706882 14.563402 1.500430
v -14.706735 14.533366 1.621655
v -14.707916 14.774684 1.591055
v -14.708319 14.856807 1.500430
v -14.947153 14.681581 1.500430
v -14.643336 14.683068 1.500430
v -14.540799 14.683571 1.606933
v -14.896037 14.681831 1.599219
v -7.218876 4.895951 -1.010790
v -7.445325 4.965545 -1.010790
v -7.499017 4.982046 -0.924881
v -7.276909 4.913786 -0.924881
v -7.344512 5.037387 -1.010827
v -7.408195 4.830170 -1.010827
v -7.412277 4.816889 -0.915779
v -7.355335 5.002170 -0.924344
v -5.011568 13.267015 -0.083978
v -4.802161 13.171347 -0.083978
v -4.776955 13.159831 0.007619
v -5.077330 13.297058 0.004985
v -4.990447 13.108979 -0.083978
v -4.886640 13.336200 -0.083978
v -4.883160 13.343818 -0.006449
v -4.988926 13.112307 0.005120
v -7.464574 7.139456 -0.623904
v -7.674201 7.109894 -0.623904
v -7.642614 7.114348 -0.478782
v -7.375211 7.152059 -0.523416
v -7.512828 7.037630 -0.623904
v -7.506639 6.993742 -0.511773
v -7.537799 7.214695 -0.476209
v -7.538031 7.216337 -0.623904
v -7.002110 6.252976 -0.693757
v -7.054065 6.238695 -0.841851
v -7.221474 6.192677 -0.841851
v -7.284541 6.175341 -0.693757
v -7.180157 6.286229 -0.841907
v -7.136725 6.128227 -0.841907
v -7.119052 6.063934 -0.687311
v -7.184416 6.301725 -0.677172
v -3.186987 14.135618 -0.229610
v -3.165859 14.133229 -0.035501
v -3.335605 14.152423 -0.084498
v -3.393371 14.158955 -0.229610
v -3.290004 13.976513 -0.229610
v -3.265840 14.190221 -0.229610
v -3.257685 14.262346 -0.059073
v -3.285939 14.012468 -0.071425
v -12.142897 11.396631 1.001672
v -12.144511 11.359993 0.872239
v -12.149712 11.241939 0.872239
v -12.151670 11.197465 1.001672
v -12.201666 11.288262 0.872190
v -12.090245 11.283355 0.872190
v -12.044907 11.281358 1.007306
v -12.212593 11.288744 1.016167
v -4.783860 11.721823 -0.365158
v -4.801229 11.708909 -0.245944
v -4.661685 11.812666 -0.276036
v -4.614197 11.847976 -0.365158
v -4.817900 11.911740 -0.365158
v -4.687271 11.736056 -0.365158
v -4.643184 11.676764 -0.260421
v -4.795922 11.882182 -0.268007
v -14.000267 13.249046 1.253139
v -14.227039 13.263295 1.253139
v -14.192869 13.261148 1.347721
v -13.903596 13.242972 1.318631
v -14.073015 13.152431 1.253139
v -14.075998 13.104953 1.326219
v -14.060980 13.343979 1.349398
v -14.060868 13.345754 1.253139
v -9.529391 7.319221 -0.085145
v -9.526812 7.242512 -0.171871
v -9.518497 6.995337 -0.171871
v -9.515366 6.902220 -0.085145
v -9.634425 7.083561 -0.171904
v -9.401140 7.091408 -0.171904
v -9.306213 7.094601 -0.081370
v -9.657305 7.082792 -0.075433
v -5.305874 14.455618 0.231126
v -5.178452 14.694797 0.231126
v -5.163115 14.723587 0.378287
v -5.345890 14.380506 0.374054
v -5.118677 14.469100 0.231126
v -5.378203 14.607362 0.231126
v -5.386904 14.611997 0.355684
v -5.122478 14.471125 0.374272
v -10.243494 3.669960 -0.553953
v -10.275719 3.705819 -0.635332
v -10.379555 3.821368 -0.635332
v -10.418673 3.864897 -0.553953
v -10.288152 3.825751 -0.635363
v -10.397207 3.727750 -0.635363
v -10.441583 3.687872 -0.550411
v -10.277456 3.835362 -0.544840
v -6.252283 7.793444 -0.759759
v -6.056856 7.815844 -0.759759
v -6.040706 7.817695 -0.679681
v -6.273237 7.791042 -0.632950
v -6.153742 7.719014 -0.759708
v -6.175042 7.904837 -0.759708
v -6.169477 7.856287 -0.669363
v -6.150419 7.690021 -0.656495
v -7.644895 9.480364 -0.187276
v -7.770663 9.306370 -0.187276
v -7.785802 9.285426 -0.070503
v -7.605398 9.535005 -0.073861
v -7.793267 9.489945 -0.187276
v -7.604472 9.353477 -0.187276
v -7.598143 9.348903 -0.088438
v -7.790502 9.487947 -0.073689
v -6.580290 6.957293 -0.841511
v -6.604635 6.957380 -0.707846
v -6.409039 6.956681 -0.741586
v -6.342476 6.956443 -0.841511
v -6.482857 7.151221 -0.841511
v -6.483737 6.904968 -0.841511
v -6.484034 6.821858 -0.724078
v -6.483005 7.109790 -0.732584
v -3.964141 12.578320 -0.375373
v -3.985236 12.569832 -0.137647
v -3.815753 12.638022 -0.197654
v -3.758075 12.661228 -0.375373
v -3.948046 12.780383 -0.375373
v -3.862195 12.567005 -0.375373
v -3.833221 12.494990 -0.166516
v -3.933602 12.744484 -0.181644
v -5.829649 10.641220 -0.340906
v -6.071907 10.615065 -0.340906
v -6.035403 10.619006 -0.193452
v -5.726376 10.652370 -0.238803
v -5.888974 10.525888 -0.340906
v -5.883498 10.475169 -0.226973
v -5.911067 10.730516 -0.190838
v -5.911273 10.732413 -0.340906
v -8.539209 2.952265 -1.127124
v -8.396534 3.078062 -1.127124
v -8.384744 3.088458 -1.044815
v -8.554507 2.938777 -0.996784
v -8.419883 2.947679 -1.127072
v -8.539498 3.083344 -1.127072
v -8.508246 3.047899 -1.034210
v -8.401219 2.926512 -1.020985
v -12.099451 13.519908 1.355357
v -12.144754 13.529115 1.241058
v -12.290730 13.558782 1.241058
v -12.345721 13.569958 1.355357
v -12.222842 13.614373 1.241015
v -12.250842 13.476602 1.241015
v -12.262236 13.420540 1.360332
v -12.220097 13.627885 1.368158
v -7.323562 6.035574 -0.866759
v -7.336269 6.061467 -0.711118
v -7.234179 5.853437 -0.750405
v -7.199436 5.782643 -0.866759
v -7.066446 6.034086 -0.866759
v -7.328353 5.905555 -0.866759
v -7.416746 5.862176 -0.730018
v -7.110510 6.012462 -0.739923
v -9.713058 -0.022899 -1.275011
v -9.749560 0.000972 -1.363535
v -9.867178 0.077891 -1.363535
v -9.911487 0.106868 -1.275011
v -9.788278 0.102946 -1.363569
v -9.860874 -0.008061 -1.363569
v -9.890414 -0.053232 -1.271158
v -9.781158 0.113833 -1.265097
v -7.361772 11.865295 0.238689
v -7.373861 11.852289 0.341154
v -7.276727 11.956783 0.315290
v -7.243671 11.992344 0.238689
v -7.417519 12.013454 0.238689
v -7.285961 11.891164 0.238689
v -7.241560 11.849891 0.328711
v -7.395384 11.992880 0.322191
v -14.506568 9.049227 0.561522
v -14.586734 8.961296 0.561522
v -14.596384 8.950712 0.674125
v -14.481392 9.076840 0.670887
v -14.587673 9.063805 0.561522
v -14.492263 8.976819 0.561522
v -14.489064 8.973903 0.656830
v -14.586276 9.062531 0.671053
v -14.402658 14.248465 1.420832
v -14.587657 14.189155 1.420832
v -14.559781 14.198092 1.558102
v -14.323793 14.273747 1.515883
v -14.430479 14.148871 1.420832
v -14.418061 14.110139 1.526896
v -14.480576 14.305135 1.560535
v -14.481040 14.306583 1.420832
v -13.850589 12.889187 1.190617
v -13.867245 12.887193 1.294387
v -13.733423 12.903213 1.268194
v -13.687881 12.908665 1.190617
v -13.800314 13.030027 1.190617
v -13.780145 12.861547 1.190617
v -13.773337 12.804685 1.281786
v -13.796921 13.001681 1.275182
v -15.286860 13.118137 1.258509
v -15.312668 13.308291 1.258509
v -15.308780 13.279639 1.381516
v -15.275859 13.037076 1.343684
v -15.378933 13.162358 1.258509
v -15.418744 13.156955 1.353553
v -15.218315 13.184156 1.383697
v -15.216826 13.184359 1.258509
v -5.833270 8.585963 -0.674331
v -6.009453 8.660948 -0.674331
v -6.030660 8.669973 -0.568904
v -5.777941 8.562415 -0.571936
v -5.854268 8.716896 -0.674331
v -5.935631 8.525724 -0.674331
v -5.938358 8.519316 -0.585097
v -5.855459 8.714096 -0.571781
v -6.137741 9.572395 -0.419669
v -6.087001 9.572893 -0.500484
v -5.923507 9.574494 -0.500484
v -5.861915 9.575098 -0.419669
v -5.983642 9.499265 -0.500514
v -5.985154 9.653571 -0.500514
v -5.985769 9.716361 -0.416151
v -5.983494 9.484132 -0.410618
v -5.980241 8.288477 -0.717613
v -6.043746 8.126387 -0.717613
v -6.034178 8.150810 -0.534295
v -5.953169 8.357574 -0.590677
v -5.926799 8.212780 -0.717613
v -5.892864 8.199484 -0.575969
v -6.063712 8.266421 -0.531046
v -6.064981 8.266918 -0.717613
v -5.514987 10.056770 -0.512524
v -5.615507 9.828027 -0.512524
v -5.627606 9.800492 -0.418621
v -5.483420 10.128606 -0.421321
v -5.686148 10.031364 -0.512524
v -5.437944 9.922294 -0.512524
v -5.429624 9.918637 -0.433043
v -5.682513 10.029767 -0.421183
v -8.487585 1.711336 -1.324703
v -8.578300 1.877426 -1.324703
v -8.564631 1.852400 -1.219478
v -8.448914 1.640533 -1.251841
v -8.587972 1.719661 -1.324703
v -8.622745 1.700668 -1.243399
v -8.447680 1.796285 -1.217612
v -8.446380 1.796996 -1.324703
v -4.942305 10.136225 -0.598974
v -5.036232 9.984261 -0.598974
v -5.052090 9.958604 -0.521643
v -4.926143 10.162373 -0.506766
v -5.072998 10.108641 -0.599032
v -4.888892 9.994847 -0.599032
v -4.957652 10.037347 -0.490226
v -5.086289 10.116856 -0.523278
v -13.920706 6.092804 0.094026
v -13.921947 6.079397 0.201854
v -13.911976 6.187115 0.174636
v -13.908582 6.223773 0.094026
v -14.022764 6.155984 0.094026
v -13.887148 6.143430 0.094026
v -13.841378 6.139193 0.188760
v -13.999948 6.153872 0.181898
vn 0.2502 -0.9682 -0.0000
vn 0.9682 0.2502 -0.0000
vn 0.9675 -0.2528 -0.0000
vn 0.2528 0.9675 -0.0000
vn 0.1342 -0.9910 -0.0000
vn 0.9910 0.1342 -0.0000
vn -0.7420 0.6704 -0.0000
vn -0.6704 -0.7420 -0.0000
vn -0.9006 0.4347 -0.0000
vn -0.4347 -0.9006 -0.0000
vn -0.7563 0.6542 -0.0000
vn -0.6542 -0.7563 -0.0000
vn 0.9898 0.1422 -0.0000
vn -0.1422 0.9898 -0.0000
vn -1.0000 -0.0049 -0.0000
vn 0.0049 -1.0000 -0.0000
vn 0.2938 0.9559 -0.0000
vn -0.9559 0.2938 -0.0000
vn -0.4155 -0.9096 -0.0000
vn 0.9096 -0.4155 -0.0000
vn -0.1396 0.9902 -0.0000
vn -0.9902 -0.1397 -0.0000
vn -0.2651 0.9642 -0.0000
vn -0.9642 -0.2651 -0.0000
vn -0.1124 -0.9937 -0.0000
vn 0.9937 -0.1124 -0.0000
vn -0.9990 0.0440 -0.0000
vn -0.0440 -0.9990 -0.0000
vn -0.5967 0.8025 -0.0000
vn -0.8025 -0.5967 -0.0000
vn 0.0627 0.9980 -0.0000
vn -0.9980 0.0627 -0.0000
vn -0.9994 -0.0336 -0.0000
vn 0.0336 -0.9994 -0.0000
vn 0.8826 -0.4702 -0.0000
vn 0.4702 0.8826 -0.0000
vn 0.7438 0.6684 -0.0000
vn -0.6684 0.7438 -0.0000
vn 0.1139 -0.9935 -0.0000
vn 0.9935 0.1139 -0.0000
vn -0.8104 0.5858 -0.0000
vn -0.5858 -0.8104 -0.0000
vn 0.0036 1.0000 -0.0000
vn -1.0000 0.0036 -0.0000
vn -0.3733 0.9277 -0.0000
vn -0.9277 -0.3733 -0.0000
vn -0.1073 0.9942 -0.0000
vn -0.9942 -0.1073 -0.0000
vn 0.6614 -0.7501 -0.0000
vn 0.7501 0.6613 -0.0000
vn 0.1992 0.9800 -0.0000
vn -0.9800 0.1992 -0.0000
vn 0.8977 0.4406 -0.0000
vn -0.4406 0.8977 -0.0000
vn 0.5473 0.8369 -0.0000
vn -0.8369 0.5473 -0.0000
vn -0.7324 0.6808 -0.0000
vn -0.6808 -0.7324 -0.0000
vn -0.7390 0.6737 -0.0000
vn -0.6737 -0.7390 -0.0000
vn -0.3053 0.9523 -0.0000
vn -0.9523 -0.3053 -0.0000
vn -0.1189 0.9929 -0.0000
vn -0.9929 -0.1189 -0.0000
vn 0.9909 0.1345 -0.0000
vn -0.1345 0.9909 -0.0000
vn 0.3916 0.9201 -0.0000
vn -0.9201 0.3916 -0.0000
vn 0.0098 -1.0000 -0.0000
vn 1.0000 0.0098 -0.0000
vn -0.9311 0.3648 -0.0000
vn -0.3648 -0.9311 -0.0000
vn -0.9155 0.4023 -0.0000
vn -0.4023 -0.9155 -0.0000
vn 0.8776 0.4793 -0.0000
vn -0.4793 0.8776 -0.0000
vn -0.8506 0.5258 -0.0000
vn -0.5258 -0.8506 -0.0000
vn -0.9957 0.0922 -0.0000
vn -0.0922 -0.9957 -0.0000
vn -0.9902 -0.1396 -0.0000
vn -0.9642 -0.2650 -0.0000
vn 0.6613 -0.7501 -0.0000
vn 0.0098 -1.0000 -0.0001
vn 0.8776 0.4794 -0.0000
vt 0.574736 0.000000
vt 0.727477 0.180119
vt 0.531923 0.174939
vt 0.943005 0.000000
vt 0.797243 0.175205
vt 0.795077 0.000000
vt 0.183597 0.000000
vt 0.079867 0.150378
vt 0.039548 0.000000
vt 0.406485 0.000000
vt 0.282420 0.163926
vt 0.257324 0.000000
vt 0.587516 0.250000
vt 0.696219 0.438742
vt 0.532955 0.380692
vt 0.931885 0.250000
vt 0.823776 0.442088
vt 0.822774 0.250000
vt 0.683200 0.750259
vt 0.546949 0.843491
vt 0.500000 0.750259
vt 0.966633 0.750219
vt 0.827483 0.844072
vt 0.798992 0.750219
vt 0.038376 0.371048
vt 0.159378 0.250046
vt 0.194166 0.371048
vt 0.420000 0.250000
vt 0.324298 0.384599
vt 0.332846 0.250000
vt 0.548614 0.500208
vt 0.730526 0.577570
vt 0.530599 0.622715
vt 0.802250 0.500257
vt 0.920277 0.587538
vt 0.777322 0.599968
vt 0.947964 0.152455
vt 0.046190 0.750308
vt 0.224718 0.829653
vt 0.019909 0.844918
vt 0.292351 0.750248
vt 0.408285 0.861889
vt 0.278991 0.827976
vt 0.711067 0.000000
vt 0.198343 0.201154
vt 0.456826 0.176726
vt 0.715504 0.250000
vt 0.958681 0.395835
vt 0.726638 0.843491
vt 0.977378 0.853368
vt 0.067034 0.250046
vt 0.455465 0.376315
vt 0.716640 0.500208
vt 0.962020 0.500257
vt 0.198931 0.750308
vt 0.477396 0.750248
s 0
f 1/1/1 3/2/1 4/3/1
f 6/4/2 8/5/2 5/6/2
f 9/1/3 11/2/3 12/3/3
f 14/4/4 16/5/4 13/6/4
f 17/7/5 19/8/5 20/9/5
f 22/10/6 24/11/6 21/12/6
f 25/1/7 27/2/7 28/3/7
f 30/4/8 32/5/8 29/6/8
f 33/13/9 35/14/9 36/15/9
f 37/16/10 39/17/10 40/18/10
f 41/7/11 43/8/11 44/9/11
f 46/10/12 48/11/12 45/12/12
f 49/1/13 51/2/13 52/3/13
f 54/4/14 56/5/14 53/6/14
f 57/7/15 59/8/15 60/9/15
f 62/10/16 64/11/16 61/12/16
f 66/19/17 68/20/17 65/21/17
f 70/22/18 72/23/18 69/24/18
f 73/1/19 75/2/19 76/3/19
f 78/4/20 80/5/20 77/6/20
f 81/13/21 83/14/21 84/15/21
f 85/16/22 87/17/22 88/18/22
f 89/25/23 91/26/23 92/27/23
f 94/28/24 96/29/24 93/30/24
f 97/7/25 99/8/25 100/9/25
f 102/10/26 104/11/26 101/12/26
f 105/25/27 107/26/27 108/27/27
f 110/28/28 112/29/28 109/30/28
f 113/7/29 115/8/29 116/9/29
f 118/10/30 120/11/30 117/12/30
f 121/13/31 123/14/31 124/15/31
f 125/16/32 127/17/32 128/18/32
f 129/25/33 131/26/33 132/27/33
f 134/28/34 136/29/34 133/30/34
f 137/1/35 139/2/35 140/3/35
f 142/4/36 144/5/36 141/6/36
f 145/25/37 147/26/37 148/27/37
f 150/28/38 152/29/38 149/30/38
f 153/31/39 155/32/39 156/33/39
f 157/34/40 159/35/40 160/36/40
f 161/1/41 163/2/41 164/3/41
f 166/4/42 168/5/42 165/6/42
f 169/7/43 171/8/43 172/9/43
f 174/10/44 176/11/44 173/12/44
f 177/7/45 179/8/45 180/9/45
f 182/10/46 184/11/46 181/12/46
f 185/13/47 187/14/47 188/15/47
f 189/16/48 191/17/48 192/18/48
f 193/31/49 195/32/49 196/33/49
f 197/34/50 199/35/50 200/36/50
f 201/25/51 203/26/51 204/27/51
f 206/28/52 208/29/52 205/30/52
f 209/7/53 211/8/53 212/9/53
f 214/10/54 216/11/54 213/12/54
f 217/25/55 219/26/55 220/27/55
f 222/28/56 224/29/56 221/30/56
f 225/7/57 227/8/57 228/9/57
f 230/10/58 232/11/58 229/12/58
f 233/1/59 235/2/59 236/3/59
f 237/6/60 239/37/60 240/5/60
f 241/13/61 243/14/61 244/15/61
f 245/16/62 247/17/62 248/18/62
f 249/7/63 251/8/63 252/9/63
f 254/10/64 256/11/64 253/12/64
f 257/13/65 259/14/65 260/15/65
f 261/16/66 263/17/66 264/18/66
f 265/1/67 267/2/67 268/3/67
f 270/4/68 272/5/68 269/6/68
f 273/25/69 275/26/69 276/27/69
f 278/28/70 280/29/70 277/30/70
f 281/13/71 283/14/71 284/15/71
f 285/16/72 287/17/72 288/18/72
f 289/1/73 291/2/73 292/3/73
f 294/4/74 296/5/74 293/6/74
f 297/13/75 299/14/75 300/15/75
f 301/16/76 303/17/76 304/18/76
f 305/38/77 307/39/77 308/40/77
f 309/41/78 311/42/78 312/43/78
f 313/7/79 315/8/79 316/9/79
f 318/10/80 320/11/80 317/12/80
f 1/1/1 2/44/1 3/2/1
f 6/4/2 7/37/2 8/5/2
f 9/1/3 10/44/3 11/2/3
f 14/4/4 15/37/4 16/5/4
f 17/7/5 18/45/5 19/8/5
f 22/10/6 23/46/6 24/11/6
f 25/1/7 26/44/7 27/2/7
f 30/4/8 31/37/8 32/5/8
f 33/13/9 34/47/9 35/14/9
f 37/16/10 38/48/10 39/17/10
f 41/7/11 42/45/11 43/8/11
f 46/10/12 47/46/12 48/11/12
f 49/1/13 50/44/13 51/2/13
f 54/4/14 55/37/14 56/5/14
f 57/7/15 58/45/15 59/8/15
f 62/10/16 63/46/16 64/11/16
f 66/19/17 67/49/17 68/20/17
f 70/22/18 71/50/18 72/23/18
f 73/1/19 74/44/19 75/2/19
f 78/4/20 79/37/20 80/5/20
f 81/13/21 82/47/21 83/14/21
f 85/16/81 86/48/81 87/17/81
f 89/25/23 90/51/23 91/26/23
f 94/28/82 95/52/82 96/29/82
f 97/7/25 98/45/25 99/8/25
f 102/10/26 103/46/26 104/11/26
f 105/25/27 106/51/27 107/26/27
f 110/28/28 111/52/28 112/29/28
f 113/7/29 114/45/29 115/8/29
f 118/10/30 119/46/30 120/11/30
f 121/13/31 122/47/31 123/14/31
f 125/16/32 126/48/32 127/17/32
f 129/25/33 130/51/33 131/26/33
f 134/28/34 135/52/34 136/29/34
f 137/1/35 138/44/35 139/2/35
f 142/4/36 143/37/36 144/5/36
f 145/25/37 146/51/37 147/26/37
f 150/28/38 151/52/38 152/29/38
f 153/31/39 154/53/39 155/32/39
f 157/34/40 158/54/40 159/35/40
f 161/1/41 162/44/41 163/2/41
f 166/4/42 167/37/42 168/5/42
f 169/7/43 170/45/43 171/8/43
f 174/10/44 175/46/44 176/11/44
f 177/7/45 178/45/45 179/8/45
f 182/10/46 183/46/46 184/11/46
f 185/13/47 186/47/47 187/14/47
f 189/16/48 190/48/48 191/17/48
f 193/31/83 194/53/83 195/32/83
f 197/34/50 198/54/50 199/35/50
f 201/25/51 202/51/51 203/26/51
f 206/28/52 207/52/52 208/29/52
f 209/7/53 210/45/53 211/8/53
f 214/10/54 215/46/54 216/11/54
f 217/25/55 218/51/55 219/26/55
f 222/28/56 223/52/56 224/29/56
f 225/7/57 226/45/57 227/8/57
f 230/10/58 231/46/58 232/11/58
f 233/1/59 234/44/59 235/2/59
f 237/6/60 238/4/60 239/37/60
f 241/13/61 242/47/61 243/14/61
f 245/16/62 246/48/62 247/17/62
f 249/7/63 250/45/63 251/8/63
f 254/10/64 255/46/64 256/11/64
f 257/13/65 258/47/65 259/14/65
f 261/16/66 262/48/66 263/17/66
f 265/1/67 266/44/67 267/2/67
f 270/4/68 271/37/68 272/5/68
f 273/25/84 274/51/84 275/26/84
f 278/28/70 279/52/70 280/29/70
f 281/13/71 282/47/71 283/14/71
f 285/16/72 286/48/72 287/17/72
f 289/1/73 290/44/73 291/2/73
f 294/4/74 295/37/74 296/5/74
f 297/13/85 298/47/85 299/14/85
f 301/16/76 302/48/76 303/17/76
f 305/38/77 306/55/77 307/39/77
f 309/41/78 310/56/78 311/42/78
f 313/7/79 314/45/79 315/8/79
f 318/10/80 319/46/80 320/11/80
