mtllib grass_02_03_b0.mtl
usemtl grass_02_03_b0
# Blender 5.1.1
# www.blender.org
o grass_02_03_b0
v 15.510733 7.377112 -0.621417
v 15.781496 7.300706 -0.621417
v 15.803872 7.294392 -0.542002
v 15.481701 7.385305 -0.495660
v 15.600742 7.225145 -0.621366
v 15.673393 7.482605 -0.621366
v 15.654412 7.415339 -0.531770
v 15.589407 7.184976 -0.519010
v 15.881432 12.044162 0.289021
v 15.699470 12.074411 0.289021
v 15.668749 12.079518 0.368426
v 15.912740 12.038957 0.383703
v 15.803913 12.158231 0.288962
v 15.767265 11.937783 0.288962
v 15.780952 12.020117 0.400686
v 15.806559 12.174146 0.366747
v 12.967183 4.066881 -0.935634
v 12.953853 4.040538 -0.783058
v 13.060952 4.252188 -0.821571
v 13.097399 4.324214 -0.935634
v 12.809934 4.277936 -0.935634
v 13.076399 4.143099 -0.935634
v 13.166330 4.097591 -0.801586
v 12.854765 4.255250 -0.811296
v 14.432469 8.935763 -0.138788
v 14.247437 8.891206 -0.138788
v 14.225165 8.885842 0.045015
v 14.490577 8.949756 0.039729
v 14.338129 9.027809 -0.138788
v 14.386477 8.827037 -0.138788
v 14.388098 8.820307 0.016784
v 14.338837 9.024869 0.040000
v 15.179245 5.403505 -0.939973
v 14.961031 5.355734 -0.939973
v 14.942998 5.351787 -0.861664
v 15.202642 5.408627 -0.815967
v 15.059361 5.476268 -0.939923
v 15.104784 5.268777 -0.939923
v 15.092916 5.322988 -0.851575
v 15.052274 5.508641 -0.838992
v 15.232851 4.387215 -1.175480
v 15.219423 4.403265 -1.057395
v 15.327308 4.274310 -1.087202
v 15.364021 4.230424 -1.175480
v 15.414293 4.430590 -1.175480
v 15.251939 4.294765 -1.175480
v 15.197145 4.248924 -1.071735
v 15.386978 4.407738 -1.079250
v 13.786568 4.712362 -0.897754
v 13.808922 4.701883 -0.795172
v 13.629326 4.786077 -0.821066
v 13.568208 4.814729 -0.897754
v 13.614117 4.575622 -0.897754
v 13.720117 4.801731 -0.897754
v 13.755892 4.878042 -0.807629
v 13.631951 4.613664 -0.814157
v 14.044905 14.081164 0.991823
v 14.058456 14.025311 0.912610
v 14.102126 13.845338 0.912610
v 14.118578 13.777538 0.991823
v 14.003714 13.892405 0.912580
v 14.173572 13.933619 0.912580
v 14.242690 13.950391 0.995271
v 13.987055 13.888363 1.000694
v 14.760466 15.151378 1.192242
v 14.726396 15.186342 1.097005
v 14.616617 15.299007 1.097005
v 14.575260 15.341451 1.192242
v 14.708916 15.307177 1.096969
v 14.602583 15.203567 1.096969
v 14.559315 15.161407 1.196387
v 14.719345 15.317338 1.202908
v 14.735094 8.479410 -0.255740
v 14.598059 8.676080 -0.255740
v 14.581564 8.699753 -0.145626
v 14.778129 8.417647 -0.148793
v 14.799868 8.632257 -0.255740
v 14.586466 8.483563 -0.255740
v 14.579312 8.478579 -0.162539
v 14.796742 8.630078 -0.148630
v 12.270853 3.515193 -0.957464
v 12.297147 3.498948 -0.842291
v 12.085895 3.629464 -0.871363
v 12.014003 3.673880 -0.957464
v 12.036736 3.369919 -0.957464
v 12.201055 3.635885 -0.957464
v 12.256512 3.725647 -0.856277
v 12.064382 3.414666 -0.863606
v 14.114553 10.734070 0.275262
v 13.917746 10.762767 0.275262
v 13.894055 10.766221 0.452153
v 14.176359 10.725058 0.447066
v 14.058816 10.860028 0.275262
v 14.027678 10.646477 0.275262
v 14.026633 10.639318 0.424984
v 14.058359 10.856900 0.447327
v 15.276742 8.990086 -0.062623
v 15.320594 9.049743 -0.229930
v 15.461894 9.241971 -0.229930
v 15.515125 9.314388 -0.062623
v 15.497041 9.105906 -0.229994
v 15.315615 9.239265 -0.229994
v 15.241790 9.293531 -0.055341
v 15.514833 9.092826 -0.043886
v 15.202511 7.262214 -0.578948
v 15.398354 7.416807 -0.578948
v 15.414537 7.429583 -0.502094
v 15.181513 7.245638 -0.457246
v 15.358476 7.247699 -0.578899
v 15.211479 7.433918 -0.578899
v 15.249885 7.385265 -0.492192
v 15.381411 7.218645 -0.479843
v 14.595558 14.094050 0.856834
v 14.558165 13.861476 0.856834
v 14.553663 13.833481 0.958295
v 14.607302 14.167089 0.955377
v 14.445426 14.030225 0.856834
v 14.697785 13.989650 0.856834
v 14.706245 13.988290 0.942711
v 14.449121 14.029631 0.955527
v 15.788885 4.816288 -1.148332
v 15.951033 4.785170 -1.148332
v 15.970551 4.781424 -1.047194
v 15.737964 4.826061 -1.050103
v 15.830423 4.709757 -1.148332
v 15.864190 4.885698 -1.148332
v 15.865322 4.891597 -1.062728
v 15.830918 4.712334 -1.049954
v 13.935252 3.727890 -1.007725
v 13.880646 3.711236 -1.125275
v 13.704689 3.657576 -1.125275
v 13.638402 3.637361 -1.007725
v 13.745700 3.757875 -1.125319
v 13.796345 3.591807 -1.125319
v 13.816953 3.524231 -1.002608
v 13.740733 3.774162 -0.994560
v 14.462645 15.571000 1.171595
v 14.625156 15.528419 1.171595
v 14.649983 15.521913 1.250442
v 14.458372 15.572120 1.266577
v 14.541377 15.493768 1.171583
v 14.580928 15.644711 1.171583
v 14.580928 15.644711 1.252347
v 14.539433 15.486349 1.267787
v 13.307643 3.300316 -1.148534
v 13.290121 3.290743 -1.026899
v 13.430899 3.367656 -1.057603
v 13.478806 3.393830 -1.148534
v 13.300877 3.478182 -1.148534
v 13.397709 3.300945 -1.148534
v 13.430389 3.241128 -1.041670
v 13.317168 3.448362 -1.049411
v 13.843946 7.824850 -0.307469
v 13.967876 7.633134 -0.307469
v 13.949203 7.662022 -0.116581
v 13.791114 7.906577 -0.175291
v 13.965449 7.823783 -0.307469
v 14.005588 7.849730 -0.159976
v 13.803513 7.719102 -0.113197
v 13.802011 7.718132 -0.307469
v 14.758342 6.035439 -0.764383
v 14.775070 6.039158 -0.648706
v 14.640668 6.009271 -0.677905
v 14.594929 5.999100 -0.764383
v 14.721553 5.887162 -0.764383
v 14.683926 6.056374 -0.764383
v 14.671227 6.113482 -0.662754
v 14.715222 5.915631 -0.670115
v 15.810744 9.536206 -0.205078
v 15.612257 9.499574 -0.205078
v 15.588366 9.495164 -0.104088
v 15.873077 9.547710 -0.106992
v 15.716088 9.639063 -0.205078
v 15.755837 9.423690 -0.205078
v 15.757170 9.416470 -0.119599
v 15.716670 9.635908 -0.106843
v 14.277147 12.581103 0.705652
v 14.238166 12.573202 0.626363
v 14.112559 12.547744 0.626363
v 14.065240 12.538153 0.705652
v 14.147699 12.614559 0.626333
v 14.171727 12.496012 0.626333
v 14.181504 12.447772 0.709104
v 14.145343 12.626186 0.714532
v 15.612788 3.553909 -1.361449
v 15.594601 3.536853 -1.256091
v 15.740724 3.673892 -1.282686
v 15.790451 3.720527 -1.361449
v 15.548945 3.766823 -1.361449
v 15.721477 3.582855 -1.361449
v 15.779705 3.520766 -1.268886
v 15.577973 3.735871 -1.275590
v 14.175043 13.106380 0.756415
v 13.916979 13.114705 0.756415
v 13.873409 13.116111 0.832244
v 14.219446 13.104947 0.846833
v 14.046394 13.250317 0.756359
v 14.036308 12.937670 0.756359
v 14.040075 13.054438 0.863051
v 14.047122 13.272888 0.830641
v 14.053328 5.688784 -0.756553
v 14.213498 5.720172 -0.756553
v 14.232779 5.723950 -0.605061
v 14.003028 5.678927 -0.609418
v 14.130782 5.606457 -0.756553
v 14.096724 5.780253 -0.756553
v 14.095582 5.786080 -0.628329
v 14.130283 5.609003 -0.609195
v 14.693307 12.191069 0.481500
v 14.443677 12.133712 0.481500
v 14.481291 12.142354 0.585894
v 14.799723 12.215520 0.553787
v 14.645690 12.063322 0.481500
v 14.657699 12.011059 0.562162
v 14.597241 12.274178 0.587745
v 14.596792 12.276133 0.481500
v 15.606671 11.819858 0.241850
v 15.602842 11.849672 0.378400
v 15.633607 11.610131 0.343932
v 15.644076 11.528613 0.241850
v 15.859809 11.731940 0.241850
v 15.558229 11.693208 0.241850
v 15.456448 11.680136 0.361818
v 15.809070 11.725424 0.353128
v 13.749269 10.002369 0.178380
v 13.522455 10.025962 0.178380
v 13.495154 10.028802 0.296289
v 13.820498 9.994960 0.292898
v 13.679477 10.144036 0.178380
v 13.653876 9.897927 0.178380
v 13.653018 9.889676 0.278179
v 13.679102 10.140431 0.293072
v 15.109168 12.055648 0.385733
v 15.087821 12.041131 0.520608
v 15.259327 12.157765 0.486562
v 15.317693 12.197456 0.385733
v 15.078147 12.283681 0.385733
v 15.224988 12.067757 0.385733
v 15.274547 11.994883 0.504229
v 15.102853 12.247353 0.495646
v 15.988410 4.035769 -1.335013
v 15.938194 3.861183 -1.335013
v 15.926289 3.819788 -1.240376
v 15.975541 3.991028 -1.240376
v 15.881714 3.937481 -1.335054
v 16.041471 3.891530 -1.335054
v 16.051712 3.888585 -1.230349
v 15.908865 3.929671 -1.239785
v 14.347310 11.856454 0.457513
v 14.175854 11.741104 0.457513
v 14.155215 11.727220 0.581379
v 14.401155 11.892679 0.577817
v 14.216473 11.914441 0.457513
v 14.341636 11.728399 0.457513
v 14.345831 11.722162 0.562355
v 14.218306 11.911716 0.578000
v 12.619325 13.896427 1.135898
v 12.477711 13.871453 1.135898
v 12.499049 13.875216 1.275377
v 12.679694 13.907073 1.232479
v 12.588950 13.826173 1.135898
v 12.594178 13.796524 1.243669
v 12.567856 13.945790 1.277850
v 12.567660 13.946898 1.135898
v 15.707592 3.550924 -1.364460
v 15.511596 3.620941 -1.364460
v 15.488004 3.629369 -1.231016
v 15.769143 3.528935 -1.234853
v 15.676377 3.691641 -1.364460
v 15.600404 3.478970 -1.364460
v 15.597857 3.471841 -1.251511
v 15.675265 3.688526 -1.234657
v 15.928678 9.165828 -0.316076
v 15.927858 8.963829 -0.316076
v 15.927760 8.939515 -0.204152
v 15.928934 9.229264 -0.207371
v 15.809954 9.091833 -0.316076
v 16.029137 9.090945 -0.316076
v 16.036486 9.090915 -0.221342
v 15.813164 9.091821 -0.207206
v 14.839026 15.045138 1.046644
v 14.804688 15.196575 1.046644
v 14.799442 15.219710 1.131444
v 14.839929 15.041157 1.148798
v 14.868814 15.142630 1.046631
v 14.728159 15.110737 1.046631
v 14.728159 15.110737 1.133493
v 14.875728 15.144197 1.150099
v 14.285138 12.881874 0.673673
v 14.089823 12.740519 0.673673
v 14.066312 12.723503 0.764285
v 14.346476 12.926266 0.761679
v 14.130258 12.944261 0.673673
v 14.283639 12.732329 0.673673
v 14.288781 12.725224 0.750368
v 14.132504 12.941157 0.761812
v 15.572693 3.260573 -1.436637
v 15.566318 3.278740 -1.283032
v 15.617545 3.132774 -1.321805
v 15.634978 3.083100 -1.436637
v 15.743011 3.239261 -1.436637
v 15.559239 3.174765 -1.436637
v 15.497217 3.152998 -1.301685
v 15.712091 3.228410 -1.311460
v 15.721087 4.144914 -1.250841
v 15.740164 4.141268 -1.146153
v 15.586896 4.170559 -1.172579
v 15.534737 4.180527 -1.250841
v 15.616190 4.007169 -1.250841
v 15.653067 4.200132 -1.250841
v 15.665513 4.265256 -1.158866
v 15.622394 4.039634 -1.165528
v 14.248009 5.704621 -0.774698
v 14.074096 5.561186 -0.774698
v 14.100301 5.582798 -0.624525
v 14.322147 5.765767 -0.670712
v 14.260825 5.585317 -0.774698
v 14.290855 5.548906 -0.658664
v 14.139669 5.732216 -0.621862
v 14.138546 5.733578 -0.774698
v 14.562137 10.067314 0.122956
v 14.606084 10.022437 0.019907
v 14.747691 9.877835 0.019907
v 14.801039 9.823359 0.122956
v 14.628963 9.867026 0.019868
v 14.765440 10.000676 0.019868
v 14.820974 10.055059 0.127441
v 14.615579 9.853918 0.134496
v 13.357854 3.845365 -1.051634
v 13.453156 3.749079 -1.051634
v 13.438796 3.763587 -0.958410
v 13.317227 3.886411 -0.987082
v 13.428559 3.859522 -1.051634
v 13.448718 3.879475 -0.979603
v 13.347229 3.779024 -0.956757
v 13.346476 3.778277 -1.051634
v 13.986856 14.264017 1.044679
v 13.917416 14.537155 1.044679
v 13.900951 14.601916 1.133345
v 13.969060 14.334015 1.133345
v 14.052798 14.479193 1.044640
v 13.802857 14.415650 1.044640
v 13.786838 14.411577 1.142739
v 14.010320 14.468393 1.133898
v 13.971820 9.551751 0.125170
v 14.014509 9.578658 0.041493
v 14.152061 9.665359 0.041493
v 14.203881 9.698021 0.125170
v 14.140430 9.570291 0.041461
v 14.058602 9.700113 0.041461
v 14.025306 9.752940 0.128813
v 14.148456 9.557558 0.134541
v 12.215344 10.592435 0.651893
v 12.225005 10.652480 0.534510
v 12.256134 10.845959 0.534510
v 12.267860 10.918847 0.651893
v 12.332866 10.759720 0.534466
v 12.150260 10.789099 0.534466
v 12.075954 10.801054 0.657002
v 12.350775 10.756838 0.665039
v 12.522287 15.265731 1.416424
v 12.621715 15.093682 1.416424
v 12.606733 15.119607 1.604246
v 12.479902 15.339074 1.546479
v 12.627874 15.259534 1.416424
v 12.663895 15.280350 1.561548
v 12.482550 15.175550 1.607576
v 12.481202 15.174771 1.416424
v 12.641135 13.956213 1.120021
v 12.684285 13.770871 1.120021
v 12.687851 13.755555 1.202287
v 12.636509 13.976085 1.250293
v 12.580504 13.853273 1.120074
v 12.756739 13.894302 1.120074
v 12.710694 13.883583 1.212886
v 12.553008 13.846871 1.226105
v 14.118257 6.940324 -0.496758
v 14.133051 7.112239 -0.496758
v 14.130821 7.086335 -0.353863
v 14.111949 6.867038 -0.397812
v 14.046182 6.997249 -0.496758
v 14.010189 7.000346 -0.386347
v 14.191393 6.984752 -0.351329
v 14.192739 6.984636 -0.496758
v 12.582242 13.797175 1.097044
v 12.623911 13.624035 1.097044
v 12.627355 13.609727 1.173510
v 12.577774 13.815740 1.218131
v 12.526220 13.700423 1.097093
v 12.690853 13.740045 1.097093
v 12.647840 13.729693 1.183362
v 12.500534 13.694242 1.195649
v 14.861098 11.384768 0.394926
v 14.903001 11.428811 0.296647
v 15.038021 11.570730 0.296647
v 15.088886 11.624194 0.394926
v 15.052539 11.456261 0.296610
v 14.918595 11.583693 0.296610
v 14.864092 11.635547 0.399204
v 15.065676 11.443763 0.405932
v 13.447955 3.321254 -1.158113
v 13.242339 3.232684 -1.158113
v 13.217588 3.222023 -1.067186
v 13.512527 3.349069 -1.069801
v 13.320223 3.409141 -1.158113
v 13.416327 3.186033 -1.158113
v 13.419549 3.178553 -1.081151
v 13.321630 3.405873 -1.069667
v 14.744102 15.932166 1.223904
v 14.735443 15.919717 1.373349
v 14.805001 16.019739 1.335626
v 14.828672 16.053778 1.223904
v 14.679156 16.050724 1.223904
v 14.805084 15.963151 1.223904
v 14.847585 15.933596 1.355201
v 14.700343 16.035990 1.345691
v 14.477431 9.228686 0.041460
v 14.466697 9.290765 -0.049443
v 14.432108 9.490797 -0.049443
v 14.419077 9.566154 0.041460
v 14.536297 9.432117 -0.049477
v 14.347506 9.399472 -0.049477
v 14.270684 9.386189 0.045417
v 14.554812 9.435320 0.051641
v 12.255498 14.396070 1.437225
v 12.285373 14.453687 1.313480
v 12.381636 14.639343 1.313480
v 12.417900 14.709284 1.437225
v 12.430549 14.526283 1.313433
v 12.255325 14.617137 1.313433
v 12.184025 14.654106 1.442611
v 12.447733 14.517373 1.451083
v 14.564384 13.652798 0.770286
v 14.553501 13.666466 0.882460
v 14.640936 13.556656 0.854145
v 14.670691 13.519287 0.770286
v 14.716695 13.685332 0.770286
v 14.578446 13.575253 0.770286
v 14.531788 13.538100 0.868838
v 14.693436 13.666812 0.861700
v 11.899570 15.522794 1.567096
v 12.046752 15.432531 1.567096
v 12.064468 15.421666 1.688832
v 11.853349 15.551141 1.685331
v 11.900918 15.403230 1.567096
v 11.998859 15.562934 1.567096
v 12.002143 15.568288 1.670134
v 11.902352 15.405569 1.685511
v 14.185821 12.947525 0.734702
v 13.923154 12.992807 0.734702
v 13.860874 13.003544 0.824929
v 14.118506 12.959130 0.824929
v 14.025387 13.087399 0.734663
v 13.983950 12.847041 0.734663
v 13.981295 12.831635 0.834488
v 14.018344 13.046550 0.825492
v 15.252226 5.028499 -0.978466
v 15.291125 4.985198 -1.071775
v 15.416468 4.845675 -1.071775
v 15.463687 4.793113 -0.978466
v 15.306113 4.840400 -1.071810
v 15.437797 4.958698 -1.071810
v 15.491380 5.006836 -0.974404
v 15.293199 4.828798 -0.968016
v 15.945771 11.793880 0.190165
v 15.939991 11.819263 0.316655
v 15.986429 11.615326 0.284726
v 16.002232 11.545923 0.190165
v 16.171297 11.739139 0.190165
v 15.914542 11.680675 0.190165
v 15.827888 11.660943 0.301294
v 16.128099 11.729302 0.293245
v 14.424165 6.108663 -0.721745
v 14.611412 6.129038 -0.721745
v 14.626886 6.130722 -0.647431
v 14.404089 6.106479 -0.604064
v 14.518110 6.036854 -0.721698
v 14.498737 6.214900 -0.721698
v 14.503798 6.168382 -0.637856
v 14.521133 6.009074 -0.625914
v 14.910021 13.089761 0.753289
v 14.891779 13.148927 0.666889
v 14.832998 13.339571 0.666889
v 14.810854 13.411391 0.753289
v 14.941908 13.295430 0.666856
v 14.761977 13.239952 0.666856
v 14.688761 13.217378 0.757049
v 14.959555 13.300871 0.762964
v 13.058711 4.342446 -0.898573
v 13.077383 4.345343 -0.739163
v 12.927362 4.322071 -0.779401
v 12.876308 4.314152 -0.898573
v 13.007627 4.181930 -0.898573
v 12.978328 4.370804 -0.898573
v 12.968440 4.434549 -0.758521
v 13.002697 4.213707 -0.768665
v 12.240064 7.474771 -0.141678
v 12.256419 7.645925 -0.141678
v 12.258389 7.666527 -0.031559
v 12.234927 7.421021 -0.034726
v 12.346433 7.528285 -0.141678
v 12.160718 7.546032 -0.141678
v 12.154491 7.546627 -0.048472
v 12.343713 7.528544 -0.034564
v 15.163752 7.555772 -0.518698
v 15.344585 7.666850 -0.518698
v 15.366352 7.680220 -0.387569
v 15.106962 7.520890 -0.391340
v 15.295542 7.490712 -0.518698
v 15.175014 7.686930 -0.518698
v 15.170975 7.693508 -0.407709
v 15.293777 7.493586 -0.391146
v 15.301432 5.595833 -0.941503
v 15.404996 5.435260 -0.941503
v 15.417462 5.415932 -0.822757
v 15.268909 5.646260 -0.826172
v 15.245480 5.475917 -0.941503
v 15.419713 5.588292 -0.941503
v 15.425553 5.592059 -0.840995
v 15.248032 5.477563 -0.825997
v 12.826926 7.883768 -0.025230
v 12.847820 7.941230 -0.118084
v 12.915143 8.126387 -0.118084
v 12.940505 8.196140 -0.025230
v 12.974601 8.026724 -0.118119
v 12.799850 8.090263 -0.118119
v 12.728741 8.116118 -0.021188
v 12.991740 8.020493 -0.014831
v 15.076922 5.285159 -0.938226
v 15.098905 5.272454 -0.787514
v 14.922290 5.374529 -0.825557
v 14.862185 5.409266 -0.938226
v 14.888185 5.160222 -0.938226
v 15.016697 5.382579 -0.938226
v 15.060069 5.457624 -0.805816
v 14.909806 5.197632 -0.815407
v 14.191830 6.838978 -0.515734
v 14.190371 6.812423 -0.388922
v 14.202094 7.025770 -0.420932
v 14.206083 7.098374 -0.515734
v 13.985723 6.956140 -0.515734
v 14.254325 6.941381 -0.515734
v 14.344976 6.936399 -0.404322
v 14.030914 6.953657 -0.412392
v 14.199441 8.763898 -0.125846
v 14.212908 8.745294 0.060046
v 14.104710 8.894764 0.013123
v 14.067889 8.945630 -0.125846
v 13.997468 8.730357 -0.125846
v 14.185649 8.866577 -0.125846
v 14.249160 8.912551 0.037472
v 14.029128 8.753276 0.025642
v 15.653683 15.595040 1.022776
v 15.534954 15.694812 1.022776
v 15.520662 15.706821 1.119100
v 15.690969 15.563708 1.116329
v 15.668400 15.701429 1.022776
v 15.560141 15.572600 1.022776
v 15.556512 15.568281 1.104305
v 15.666814 15.699543 1.116471
v 15.049188 7.085104 -0.615960
v 15.029598 7.096352 -0.471794
v 15.186992 7.005980 -0.508185
v 15.240555 6.975226 -0.615960
v 15.216794 7.196738 -0.615960
v 15.103017 6.998580 -0.615960
v 15.064618 6.931702 -0.489302
v 15.197651 7.163399 -0.498476
v 14.204872 5.046685 -0.901969
v 14.391626 5.127208 -0.901969
v 14.363486 5.115075 -0.796954
v 14.125260 5.012358 -0.829252
v 14.223779 5.153271 -0.901969
v 14.206920 5.192370 -0.820827
v 14.291795 4.995525 -0.795092
v 14.292425 4.994062 -0.901969
v 13.093677 12.185288 0.695672
v 12.999612 11.947014 0.695672
v 13.013785 11.982917 0.821686
v 13.133776 12.286863 0.782929
v 13.172029 12.073697 0.695672
v 13.221915 12.054004 0.793039
v 12.970765 12.153151 0.823920
v 12.968900 12.153888 0.695672
v 15.455897 9.116856 -0.240488
v 15.540681 9.286137 -0.240488
v 15.527905 9.260630 -0.103445
v 15.419755 9.044692 -0.145594
v 15.405491 9.204115 -0.240488
v 15.370050 9.221866 -0.134599
v 15.548478 9.132502 -0.101015
v 15.549803 9.131838 -0.240488
v 14.134216 14.390462 1.021677
v 14.118572 14.559280 1.021677
v 14.115932 14.587782 1.103895
v 14.136908 14.361415 1.119712
v 14.217493 14.486032 1.021616
v 14.012970 14.467080 1.021616
v 14.089355 14.474158 1.137297
v 14.232259 14.487400 1.102157
v 14.959831 13.060990 0.605874
v 14.859590 12.923760 0.605874
v 14.874694 12.944438 0.749805
v 15.002563 13.119491 0.705537
v 14.991466 12.976247 0.605874
v 15.020196 12.955260 0.717085
v 14.875551 13.060919 0.752356
v 14.874476 13.061704 0.605874
v 14.586873 15.982237 1.247691
v 14.749716 16.020313 1.247691
v 14.769317 16.024897 1.354805
v 14.535734 15.970279 1.351725
v 14.669234 15.900809 1.247691
v 14.627918 16.077505 1.247691
v 14.626533 16.083427 1.338354
v 14.668629 15.903397 1.351883
v 14.081642 5.012872 -0.902548
v 14.289992 4.995064 -0.902548
v 14.315072 4.992921 -0.779453
v 14.016212 5.018465 -0.782993
v 14.148019 4.884162 -0.902548
v 14.167341 5.110237 -0.902548
v 14.167990 5.117816 -0.798359
v 14.148302 4.887473 -0.782811
v 14.254123 15.547874 1.200545
v 14.240168 15.559845 1.335536
v 14.352291 15.463672 1.301462
v 14.390449 15.430943 1.200545
v 14.405102 15.611675 1.200545
v 14.284019 15.470511 1.200545
v 14.243155 15.422870 1.319143
v 14.384730 15.587925 1.310553
v 14.606223 5.419759 -0.852710
v 14.606269 5.392833 -0.742984
v 14.605901 5.609161 -0.770681
v 14.605776 5.682779 -0.852710
v 14.391175 5.526386 -0.852710
v 14.663529 5.526849 -0.852710
v 14.755448 5.527005 -0.756309
v 14.436997 5.526464 -0.763291
v 15.093636 10.550540 0.101014
v 15.097733 10.726968 0.101014
v 15.098227 10.748205 0.282332
v 15.092349 10.495134 0.277118
v 15.198577 10.613185 0.101014
v 15.007139 10.617631 0.101014
v 15.000722 10.617781 0.254483
v 15.195773 10.613250 0.277385
v 14.061214 8.991088 -0.073534
v 13.930246 9.069366 -0.073534
v 13.949981 9.057571 0.027419
v 14.117045 8.957718 -0.003630
v 13.988067 8.955804 -0.073534
v 13.971678 8.928384 0.004469
v 14.054187 9.066430 0.029209
v 14.054800 9.067455 -0.073534
v 13.228065 5.561102 -0.690826
v 13.322627 5.360306 -0.690826
v 13.308378 5.390562 -0.511224
v 13.187756 5.646700 -0.566462
v 13.345004 5.544322 -0.690826
v 13.387043 5.564120 -0.552053
v 13.175398 5.464449 -0.508040
v 13.173825 5.463709 -0.690826
v 12.419100 8.745507 0.068892
v 12.421354 8.769094 0.200640
v 12.403240 8.579594 0.167384
v 12.397076 8.515105 0.068892
v 12.598360 8.633791 0.068892
v 12.359782 8.656597 0.068892
v 12.279263 8.664293 0.184641
v 12.558220 8.637629 0.176257
v 14.653978 4.174874 -1.150465
v 14.766886 3.958643 -1.150465
v 14.780477 3.932615 -1.042465
v 14.618521 4.242779 -1.045571
v 14.568842 4.028960 -1.150465
v 14.803468 4.151473 -1.150465
v 14.811333 4.155580 -1.059053
v 14.572278 4.030755 -1.045411
v 14.377202 8.523383 -0.078833
v 14.328520 8.572575 -0.170650
v 14.171655 8.731081 -0.170650
v 14.112559 8.790793 -0.078833
v 14.302409 8.743678 -0.170685
v 14.152811 8.595629 -0.170685
v 14.091937 8.535385 -0.074836
v 14.317080 8.758199 -0.068550
v 13.721534 11.742940 0.557915
v 13.534538 11.850412 0.557915
v 13.490202 11.875895 0.643874
v 13.673613 11.770482 0.643874
v 13.638534 11.893852 0.557878
v 13.540189 11.722738 0.557878
v 13.533886 11.711771 0.652981
v 13.621819 11.864771 0.644410
v 11.969033 14.108738 1.276229
v 12.142365 14.250075 1.276229
v 12.168844 14.271668 1.362932
v 11.964476 14.105022 1.380675
v 12.113875 14.132791 1.276216
v 11.982599 14.293782 1.276216
v 11.982599 14.293782 1.365027
v 12.120327 14.124878 1.382006
v 14.201288 8.310012 -0.203832
v 14.225238 8.242941 -0.290620
v 14.302406 8.026824 -0.290620
v 14.331478 7.945407 -0.203832
v 14.175023 8.072054 -0.290653
v 14.378995 8.144886 -0.290653
v 14.461994 8.174523 -0.200054
v 14.155018 8.064911 -0.194113
v 13.706498 12.982539 0.787647
v 13.473818 12.868517 0.787647
v 13.418649 12.841482 0.884984
v 13.646869 12.953319 0.884984
v 13.500430 13.001277 0.787605
v 13.604769 12.788358 0.787605
v 13.611456 12.774711 0.895297
v 13.518163 12.965091 0.885592
v 14.592550 15.995515 1.262883
v 14.391231 15.928155 1.262883
v 14.366998 15.920047 1.400296
v 14.655773 16.016668 1.396344
v 14.478836 16.088703 1.262883
v 14.551927 15.870257 1.262883
v 14.554377 15.862934 1.379191
v 14.479907 16.085505 1.396547
v 12.652348 12.289083 0.885465
v 12.607505 12.241295 0.781593
v 12.463011 12.087310 0.781593
v 12.408577 12.029301 0.885465
v 12.446511 12.210596 0.781553
v 12.591843 12.074223 0.781553
v 12.650980 12.018729 0.889986
v 12.432259 12.223970 0.897098
v 12.585614 4.338639 -0.791171
v 12.602870 4.281890 -0.891027
v 12.658471 4.099034 -0.891027
v 12.679418 4.030148 -0.791171
v 12.554299 4.141727 -0.891065
v 12.726880 4.194204 -0.891065
v 12.797106 4.215558 -0.786825
v 12.537374 4.136580 -0.779988
v 14.371688 14.672688 1.000788
v 14.458816 14.493141 1.000788
v 14.466016 14.478303 1.072879
v 14.362347 14.691938 1.114948
v 14.333559 14.553341 1.000834
v 14.504283 14.636188 1.000834
v 14.459678 14.614542 1.082168
v 14.306922 14.540415 1.093751
v 13.935562 14.434407 1.117848
v 13.939047 14.379345 1.006275
v 13.950274 14.201919 1.006275
v 13.954504 14.135078 1.117848
v 13.865102 14.262846 1.006233
v 14.032557 14.273443 1.006233
v 14.100697 14.277755 1.122705
v 13.848679 14.261806 1.130343
v 15.018668 14.329999 0.977733
v 14.968571 14.307988 0.864781
v 14.807144 14.237064 0.864781
v 14.746331 14.210345 0.977733
v 14.834865 14.337157 0.864738
v 14.901803 14.184803 0.864738
v 14.929042 14.122808 0.982650
v 14.828300 14.352099 0.990383
v 14.399061 11.467832 0.373064
v 14.244695 11.393458 0.373064
v 14.267955 11.404665 0.466137
v 14.464867 11.499537 0.437511
v 14.386907 11.377441 0.373064
v 14.402477 11.345123 0.444978
v 14.324085 11.507831 0.467787
v 14.323503 11.509039 0.373064
v 13.958275 11.288972 0.483854
v 14.015796 11.309527 0.385607
v 14.201143 11.375762 0.385607
v 14.270967 11.400714 0.483854
v 14.162376 11.266495 0.385570
v 14.099864 11.441426 0.385570
v 14.074428 11.512608 0.488130
v 14.168507 11.249339 0.494857
v 15.091399 3.163951 -1.255478
v 15.053697 3.211669 -1.340697
v 14.932214 3.365430 -1.340697
v 14.886448 3.423356 -1.255478
v 15.047630 3.363643 -1.340729
v 14.902510 3.248987 -1.340729
v 14.843458 3.202331 -1.251769
v 15.061863 3.374888 -1.245934
v 13.046057 13.245945 0.944063
v 13.048814 13.404149 0.944063
v 13.049146 13.423192 1.118142
v 13.045192 13.196262 1.113136
v 13.139820 13.302657 0.944063
v 12.968157 13.305648 0.944063
v 12.962402 13.305748 1.091405
v 13.137306 13.302701 1.113393
v 13.757988 11.487890 0.461439
v 13.911554 11.503352 0.461439
v 13.888415 11.501022 0.555523
v 13.692523 11.481298 0.526586
v 13.796091 11.560671 0.461439
v 13.792853 11.592822 0.534134
v 13.809152 11.430958 0.557190
v 13.809273 11.429755 0.461439
v 13.202520 10.784311 0.417195
v 13.125205 10.935455 0.417195
v 13.115899 10.953649 0.513548
v 13.226800 10.736846 0.510777
v 13.262623 10.885362 0.417195
v 13.098620 10.801470 0.417195
v 13.093122 10.798657 0.498749
v 13.260221 10.884133 0.510919
v 16.078552 7.282460 -0.511920
v 16.021135 7.269331 -0.676357
v 15.836121 7.227023 -0.676357
v 15.766422 7.211084 -0.511920
v 15.885686 7.327229 -0.676419
v 15.925616 7.152613 -0.676419
v 15.941864 7.081559 -0.504763
v 15.881769 7.344355 -0.493505
v 13.531001 5.027485 -0.824841
v 13.353251 4.869946 -0.824841
v 13.380033 4.893684 -0.691130
v 13.606775 5.094643 -0.732254
v 13.548961 4.902345 -0.824841
v 13.581944 4.865130 -0.721526
v 13.415893 5.052485 -0.688759
v 13.414660 5.053877 -0.824841
v 15.626443 11.887865 0.290132
v 15.373460 11.817689 0.290132
v 15.330749 11.805840 0.365836
v 15.669971 11.899940 0.380400
v 15.457938 11.988547 0.290075
v 15.542956 11.682058 0.290075
v 15.511204 11.796526 0.396592
v 15.451800 12.010674 0.364235
v 12.452483 5.186510 -0.645697
v 12.363863 5.325349 -0.645697
v 12.377216 5.304429 -0.486468
v 12.490262 5.127324 -0.535441
v 12.364821 5.187784 -0.645697
v 12.335754 5.169230 -0.522666
v 12.482095 5.262640 -0.483645
v 12.483182 5.263334 -0.645697
v 14.557674 14.484723 1.048231
v 14.536446 14.437403 0.937621
v 14.468041 14.284925 0.937621
v 14.442272 14.227483 1.048231
v 14.423903 14.372915 0.937579
v 14.567812 14.308355 0.937579
v 14.626370 14.282084 1.053046
v 14.409789 14.379247 1.060618
v 14.720354 10.102521 0.070367
v 14.742283 10.093004 0.250850
v 14.566094 10.169467 0.205292
v 14.506136 10.195488 0.070367
v 14.557267 9.965341 0.070367
v 14.653533 10.187160 0.070367
v 14.686023 10.262024 0.228933
v 14.573463 10.002661 0.217447
v 13.167616 3.875948 -1.025331
v 13.147602 3.878504 -0.891230
v 13.308397 3.857971 -0.925080
v 13.363117 3.850984 -1.025331
v 13.267536 4.025501 -1.025331
v 13.241686 3.823062 -1.025331
v 13.232962 3.754740 -0.907515
v 13.263187 3.991442 -0.916049
v 14.535832 9.693786 0.004471
v 14.651536 9.914303 0.004471
v 14.665463 9.940847 0.098979
v 14.499496 9.624535 0.096261
v 14.707768 9.707257 0.004471
v 14.468492 9.832804 0.004471
v 14.460470 9.837013 0.084464
v 14.704265 9.709096 0.096401
v 14.474070 9.947723 0.063153
v 14.461743 9.927380 0.174907
v 14.560774 10.090827 0.146698
v 14.594475 10.146450 0.063153
v 14.360705 10.126924 0.063153
v 14.566484 10.002245 0.063153
v 14.635934 9.960167 0.161336
v 14.395327 10.105947 0.154224
vn -0.2716 -0.9624 -0.0000
vn 0.9624 -0.2716 -0.0000
vn 0.1640 0.9865 -0.0000
vn -0.9865 0.1640 -0.0000
vn -0.8923 0.4515 -0.0000
vn -0.4515 -0.8923 -0.0000
vn -0.2341 0.9722 -0.0000
vn -0.9722 -0.2341 -0.0000
vn -0.2139 0.9769 -0.0000
vn -0.9769 -0.2139 -0.0000
vn 0.7670 0.6417 -0.0000
vn -0.6417 0.7670 -0.0000
vn -0.4245 -0.9054 -0.0000
vn 0.9054 -0.4245 -0.0000
vn -0.9718 -0.2358 -0.0000
vn 0.2358 -0.9718 -0.0000
vn 0.7162 0.6979 -0.0000
vn -0.6979 0.7162 -0.0000
vn 0.8205 0.5717 -0.0000
vn -0.5717 0.8205 -0.0000
vn -0.5256 -0.8507 -0.0000
vn 0.8507 -0.5256 -0.0000
vn 0.1443 0.9895 -0.0000
vn -0.9895 0.1443 -0.0000
vn 0.8057 -0.5923 -0.0000
vn 0.5923 0.8057 -0.0000
vn 0.6196 -0.7849 -0.0000
vn 0.7849 0.6196 -0.0000
vn -0.9873 0.1587 -0.0000
vn -0.1587 -0.9873 -0.0000
vn -0.1885 -0.9821 -0.0000
vn 0.9821 -0.1885 -0.0000
vn -0.2917 0.9565 -0.0000
vn -0.9565 -0.2917 -0.0000
vn -0.2535 -0.9673 -0.0000
vn 0.9673 -0.2535 -0.0000
vn -0.4794 0.8776 -0.0000
vn -0.8776 -0.4795 -0.0000
vn -0.8398 -0.5429 -0.0000
vn 0.5429 -0.8398 -0.0000
vn 0.2171 -0.9762 -0.0000
vn 0.9762 0.2171 -0.0000
vn -0.1815 0.9834 -0.0000
vn -0.9834 -0.1815 -0.0000
vn -0.1986 0.9801 -0.0000
vn -0.9801 -0.1987 -0.0000
vn -0.6841 0.7294 -0.0000
vn -0.7294 -0.6841 -0.0000
vn 0.0322 0.9995 -0.0000
vn -0.9995 0.0322 -0.0000
vn 0.1923 -0.9813 -0.0000
vn 0.9813 0.1923 -0.0000
vn -0.2239 0.9746 -0.0000
vn -0.9746 -0.2239 -0.0000
vn 0.9919 0.1274 -0.0000
vn -0.1274 0.9919 -0.0000
vn 0.1035 0.9946 -0.0000
vn -0.9946 0.1035 -0.0000
vn -0.5623 0.8269 -0.0000
vn -0.8269 -0.5623 -0.0000
vn -0.9610 0.2764 -0.0000
vn -0.2764 -0.9610 -0.0000
vn -0.5582 0.8297 -0.0000
vn -0.8297 -0.5582 -0.0000
vn -0.1737 0.9848 -0.0000
vn -0.9848 -0.1737 -0.0000
vn 0.3364 0.9417 -0.0000
vn -0.9417 0.3364 -0.0000
vn -1.0000 0.0041 -0.0000
vn -0.0041 -1.0000 -0.0000
vn 0.9752 0.2211 -0.0000
vn -0.2211 0.9752 -0.0000
vn -0.5863 0.8101 -0.0000
vn -0.8101 -0.5863 -0.0000
vn 0.9436 0.3312 -0.0000
vn -0.3312 0.9436 -0.0000
vn -0.1877 -0.9822 -0.0000
vn 0.9822 -0.1877 -0.0000
vn -0.6363 0.7715 -0.0000
vn -0.7715 -0.6363 -0.0000
vn -0.7145 -0.6997 -0.0000
vn 0.6997 -0.7145 -0.0000
vn -0.7107 -0.7035 -0.0000
vn 0.7035 -0.7107 -0.0000
vn 0.9692 0.2464 -0.0000
vn -0.2464 0.9692 -0.0000
vn 0.5332 -0.8460 -0.0000
vn 0.8460 0.5332 -0.0000
vn 0.9873 -0.1588 -0.0000
vn 0.1588 0.9873 -0.0000
vn -0.8658 -0.5004 -0.0000
vn 0.5004 -0.8658 -0.0000
vn -0.9740 -0.2267 -0.0000
vn 0.2267 -0.9740 -0.0000
vn 0.9963 -0.0857 -0.0000
vn 0.0857 0.9963 -0.0000
vn -0.9722 -0.2340 -0.0000
vn 0.2340 -0.9722 -0.0000
vn 0.7245 -0.6893 -0.0000
vn 0.6893 0.7245 -0.0000
vn -0.3956 0.9184 -0.0000
vn -0.9184 -0.3956 -0.0000
vn -0.8210 0.5709 -0.0000
vn -0.5709 -0.8210 -0.0000
vn 0.9854 0.1704 -0.0000
vn -0.1704 0.9854 -0.0000
vn 0.8878 -0.4603 -0.0000
vn 0.4603 0.8878 -0.0000
vn 0.7823 0.6229 -0.0000
vn -0.6229 0.7823 -0.0000
vn -0.5228 -0.8525 -0.0000
vn 0.8525 -0.5228 -0.0000
vn 0.1699 0.9855 -0.0000
vn -0.9855 0.1699 -0.0000
vn -0.7439 -0.6683 -0.0000
vn 0.6683 -0.7439 -0.0000
vn 0.9750 0.2220 -0.0000
vn -0.2220 0.9750 -0.0000
vn 0.1082 -0.9941 -0.0000
vn 0.9941 0.1082 -0.0000
vn 0.9556 0.2946 -0.0000
vn -0.2946 0.9556 -0.0000
vn 0.1533 -0.9882 -0.0000
vn 0.9882 0.1533 -0.0000
vn 0.9955 -0.0951 -0.0000
vn 0.0951 0.9955 -0.0000
vn 0.5234 -0.8521 -0.0000
vn 0.8521 0.5234 -0.0000
vn -0.8404 -0.5420 -0.0000
vn 0.5420 -0.8404 -0.0000
vn 0.9398 -0.3417 -0.0000
vn 0.3417 0.9398 -0.0000
vn -0.5004 -0.8658 -0.0000
vn 0.8658 -0.5004 -0.0000
vn -0.9985 0.0549 -0.0000
vn -0.0549 -0.9985 -0.0000
vn -0.8100 -0.5864 -0.0000
vn 0.5864 -0.8100 -0.0000
vn 0.6433 0.7656 -0.0000
vn -0.7656 0.6433 -0.0000
vn 0.4979 0.8672 -0.0000
vn -0.8672 0.4979 -0.0000
vn 0.3959 -0.9183 -0.0000
vn 0.9183 0.3959 -0.0000
vn -0.9301 0.3672 -0.0000
vn -0.3672 -0.9301 -0.0000
vn 0.8941 -0.4478 -0.0000
vn 0.4478 0.8941 -0.0000
vn 0.9957 0.0923 -0.0000
vn -0.0923 0.9957 -0.0000
vn -0.8075 0.5899 -0.0000
vn -0.5899 -0.8075 -0.0000
vn 0.2277 -0.9737 -0.0000
vn 0.9737 0.2277 -0.0000
vn -0.0852 -0.9964 -0.0000
vn 0.9964 -0.0852 -0.0000
vn 0.6511 0.7590 -0.0000
vn -0.7590 0.6511 -0.0000
vn -1.0000 -0.0017 -0.0000
vn 0.0017 -1.0000 -0.0000
vn 0.9997 -0.0232 -0.0000
vn 0.0232 0.9997 -0.0000
vn 0.5130 0.8584 -0.0000
vn -0.8584 0.5130 -0.0000
vn -0.9047 -0.4261 -0.0000
vn 0.4261 -0.9047 -0.0000
vn 0.9955 -0.0952 -0.0000
vn 0.0952 0.9955 -0.0000
vn -0.8864 -0.4629 -0.0000
vn 0.4629 -0.8864 -0.0000
vn 0.7108 0.7034 -0.0000
vn -0.7034 0.7108 -0.0000
vn 0.4983 0.8670 -0.0000
vn -0.8670 0.4983 -0.0000
vn 0.6320 -0.7750 -0.0000
vn 0.7750 0.6320 -0.0000
vn -0.9418 -0.3363 -0.0000
vn 0.3363 -0.9418 -0.0000
vn -0.4400 0.8980 -0.0000
vn -0.8980 -0.4400 -0.0000
vn -0.3173 0.9483 -0.0000
vn -0.9483 -0.3173 -0.0000
vn -0.7292 0.6843 -0.0000
vn -0.6843 -0.7292 -0.0000
vn -0.9567 -0.2909 -0.0000
vn 0.2909 -0.9567 -0.0000
vn -0.8997 -0.4366 -0.0000
vn 0.4366 -0.8997 -0.0000
vn -0.9980 -0.0632 -0.0000
vn 0.0632 -0.9980 -0.0000
vn -0.4022 0.9155 -0.0000
vn -0.9155 -0.4022 -0.0000
vn -0.4340 0.9009 -0.0000
vn -0.9009 -0.4340 -0.0000
vn 0.3365 -0.9417 -0.0000
vn 0.9417 0.3365 -0.0000
vn 0.7846 0.6199 -0.0000
vn -0.6199 0.7846 -0.0000
vn 0.9998 -0.0174 -0.0000
vn 0.0174 0.9998 -0.0000
vn 0.1002 -0.9950 -0.0000
vn 0.9950 0.1002 -0.0000
vn 0.8903 0.4554 -0.0000
vn -0.4554 0.8903 -0.0000
vn -0.2229 0.9748 -0.0000
vn -0.9748 -0.2229 -0.0000
vn -0.6633 0.7484 -0.0000
vn -0.7484 -0.6633 -0.0000
vn -0.2673 0.9636 -0.0000
vn -0.9636 -0.2673 -0.0000
vn 0.8429 0.5380 -0.0000
vn -0.5380 0.8429 -0.0000
vn -0.9124 0.4093 -0.0000
vn -0.4093 -0.9124 -0.0000
vn -0.3981 -0.9173 -0.0000
vn 0.9173 -0.3981 -0.0000
vn 0.1267 0.9919 -0.0000
vn -0.9919 0.1267 -0.0000
vn 0.8855 -0.4646 -0.0000
vn 0.4646 0.8855 -0.0000
vn -0.8553 0.5182 -0.0000
vn -0.5182 -0.8553 -0.0000
vn -0.9873 0.1588 -0.0000
vn -0.4795 0.8776 -0.0000
vn -0.8776 -0.4794 -0.0000
vn -0.9801 -0.1986 -0.0000
vn 0.6510 0.7590 -0.0000
vn -0.9047 -0.4260 -0.0000
vn 0.4260 -0.9047 -0.0000
vn 0.7847 0.6199 -0.0000
vn -0.6199 0.7847 -0.0000
vt 0.548614 0.500208
vt 0.730526 0.577570
vt 0.530599 0.622715
vt 0.802250 0.500257
vt 0.920277 0.587538
vt 0.777322 0.599968
vt 0.046190 0.750308
vt 0.224718 0.829653
vt 0.019909 0.844918
vt 0.292351 0.750248
vt 0.408285 0.861889
vt 0.278991 0.827976
vt 0.183597 0.000000
vt 0.079867 0.150378
vt 0.039548 0.000000
vt 0.406485 0.000000
vt 0.282420 0.163926
vt 0.257324 0.000000
vt 0.574736 0.000000
vt 0.727477 0.180119
vt 0.531923 0.174939
vt 0.795077 0.000000
vt 0.947964 0.152455
vt 0.797243 0.175205
vt 0.038376 0.371048
vt 0.159378 0.250046
vt 0.194166 0.371048
vt 0.420000 0.250000
vt 0.324298 0.384599
vt 0.332846 0.250000
vt 0.943005 0.000000
vt 0.199407 0.500208
vt 0.021869 0.609361
vt 0.026417 0.500208
vt 0.318619 0.500194
vt 0.479294 0.593008
vt 0.310722 0.610752
vt 0.587516 0.250000
vt 0.696219 0.438742
vt 0.532955 0.380692
vt 0.931885 0.250000
vt 0.823776 0.442088
vt 0.822774 0.250000
vt 0.198931 0.750308
vt 0.683200 0.750259
vt 0.546949 0.843491
vt 0.500000 0.750259
vt 0.966633 0.750219
vt 0.827483 0.844072
vt 0.798992 0.750219
vt 0.716640 0.500208
vt 0.962020 0.500257
vt 0.477396 0.750248
vt 0.198343 0.201154
vt 0.456826 0.176726
vt 0.711067 0.000000
vt 0.067034 0.250046
vt 0.455465 0.376315
vt 0.225835 0.590819
vt 0.479294 0.500194
vt 0.715504 0.250000
vt 0.958681 0.395835
vt 0.726638 0.843491
vt 0.977378 0.853368
s 0
f 1/1/1 3/2/1 4/3/1
f 5/4/2 7/5/2 8/6/2
f 9/7/3 11/8/3 12/9/3
f 13/10/4 15/11/4 16/12/4
f 17/13/5 19/14/5 20/15/5
f 22/16/6 24/17/6 21/18/6
f 25/19/7 27/20/7 28/21/7
f 29/22/8 31/23/8 32/24/8
f 33/1/9 35/2/9 36/3/9
f 37/4/10 39/5/10 40/6/10
f 41/13/11 43/14/11 44/15/11
f 46/16/12 48/17/12 45/18/12
f 49/13/13 51/14/13 52/15/13
f 54/16/14 56/17/14 53/18/14
f 57/25/15 59/26/15 60/27/15
f 62/28/16 64/29/16 61/30/16
f 65/25/17 67/26/17 68/27/17
f 70/28/18 72/29/18 69/30/18
f 73/19/19 75/20/19 76/21/19
f 78/31/20 80/24/20 77/22/20
f 81/13/21 83/14/21 84/15/21
f 86/16/22 88/17/22 85/18/22
f 89/19/23 91/20/23 92/21/23
f 93/22/24 95/23/24 96/24/24
f 97/25/25 99/26/25 100/27/25
f 102/28/26 104/29/26 101/30/26
f 105/1/27 107/2/27 108/3/27
f 109/4/28 111/5/28 112/6/28
f 113/19/29 115/20/29 116/21/29
f 118/31/30 120/24/30 117/22/30
f 121/19/31 123/20/31 124/21/31
f 126/31/32 128/24/32 125/22/32
f 129/25/33 131/26/33 132/27/33
f 134/28/34 136/29/34 133/30/34
f 138/32/35 140/33/35 137/34/35
f 141/35/36 143/36/36 144/37/36
f 145/13/37 147/14/37 148/15/37
f 150/16/38 152/17/38 149/18/38
f 153/38/39 155/39/39 156/40/39
f 157/41/40 159/42/40 160/43/40
f 161/13/41 163/14/41 164/15/41
f 166/16/42 168/17/42 165/18/42
f 169/19/43 171/20/43 172/21/43
f 174/31/44 176/24/44 173/22/44
f 177/25/45 179/26/45 180/27/45
f 182/28/46 184/29/46 181/30/46
f 185/13/47 187/14/47 188/15/47
f 190/16/48 192/17/48 189/18/48
f 194/44/49 196/9/49 193/7/49
f 197/10/50 199/11/50 200/12/50
f 201/19/51 203/20/51 204/21/51
f 205/22/52 207/23/52 208/24/52
f 209/38/53 211/39/53 212/40/53
f 213/41/54 215/42/54 216/43/54
f 217/13/55 219/14/55 220/15/55
f 222/16/56 224/17/56 221/18/56
f 225/19/57 227/20/57 228/21/57
f 230/31/58 232/24/58 229/22/58
f 233/13/59 235/14/59 236/15/59
f 238/16/60 240/17/60 237/18/60
f 242/45/61 244/46/61 241/47/61
f 246/48/62 248/49/62 245/50/62
f 249/19/63 251/20/63 252/21/63
f 254/31/64 256/24/64 253/22/64
f 257/38/65 259/39/65 260/40/65
f 261/41/66 263/42/66 264/43/66
f 265/19/67 267/20/67 268/21/67
f 270/31/68 272/24/68 269/22/68
f 273/19/69 275/20/69 276/21/69
f 278/31/70 280/24/70 277/22/70
f 282/32/71 284/33/71 281/34/71
f 285/35/72 287/36/72 288/37/72
f 289/19/73 291/20/73 292/21/73
f 294/31/74 296/24/74 293/22/74
f 297/13/75 299/14/75 300/15/75
f 302/16/76 304/17/76 301/18/76
f 305/13/77 307/14/77 308/15/77
f 310/16/78 312/17/78 309/18/78
f 313/38/79 315/39/79 316/40/79
f 317/41/80 319/42/80 320/43/80
f 321/25/81 323/26/81 324/27/81
f 326/28/82 328/29/82 325/30/82
f 329/38/83 331/39/83 332/40/83
f 333/41/84 335/42/84 336/43/84
f 338/45/85 340/46/85 337/47/85
f 342/48/86 344/49/86 341/50/86
f 345/25/87 347/26/87 348/27/87
f 350/28/88 352/29/88 349/30/88
f 353/25/89 355/26/89 356/27/89
f 358/28/90 360/29/90 357/30/90
f 361/38/91 363/39/91 364/40/91
f 365/41/92 367/42/92 368/43/92
f 369/1/93 371/2/93 372/3/93
f 373/4/94 375/5/94 376/6/94
f 377/38/95 379/39/95 380/40/95
f 381/41/96 383/42/96 384/43/96
f 385/1/97 387/2/97 388/3/97
f 389/4/98 391/5/98 392/6/98
f 393/25/99 395/26/99 396/27/99
f 398/28/100 400/29/100 397/30/100
f 401/19/101 403/20/101 404/21/101
f 406/31/102 408/24/102 405/22/102
f 409/13/103 411/14/103 412/15/103
f 414/16/104 416/17/104 413/18/104
f 417/25/105 419/26/105 420/27/105
f 422/28/106 424/29/106 421/30/106
f 425/25/107 427/26/107 428/27/107
f 430/28/108 432/29/108 429/30/108
f 433/13/109 435/14/109 436/15/109
f 438/16/110 440/17/110 437/18/110
f 441/19/111 443/20/111 444/21/111
f 446/31/112 448/24/112 445/22/112
f 450/45/113 452/46/113 449/47/113
f 454/48/114 456/49/114 453/50/114
f 457/25/115 459/26/115 460/27/115
f 462/28/116 464/29/116 461/30/116
f 465/13/117 467/14/117 468/15/117
f 470/16/118 472/17/118 469/18/118
f 473/1/119 475/2/119 476/3/119
f 477/4/120 479/5/120 480/6/120
f 481/25/121 483/26/121 484/27/121
f 486/28/122 488/29/122 485/30/122
f 489/13/123 491/14/123 492/15/123
f 494/16/124 496/17/124 493/18/124
f 497/19/125 499/20/125 500/21/125
f 502/31/126 504/24/126 501/22/126
f 505/19/127 507/20/127 508/21/127
f 510/31/128 512/24/128 509/22/128
f 513/19/129 515/20/129 516/21/129
f 518/31/130 520/24/130 517/22/130
f 521/25/131 523/26/131 524/27/131
f 526/28/132 528/29/132 525/30/132
f 529/13/133 531/14/133 532/15/133
f 534/16/134 536/17/134 533/18/134
f 537/13/135 539/14/135 540/15/135
f 542/16/136 544/17/136 541/18/136
f 545/13/137 547/14/137 548/15/137
f 550/16/138 552/17/138 549/18/138
f 553/19/139 555/20/139 556/21/139
f 558/31/140 560/24/140 557/22/140
f 561/13/141 563/14/141 564/15/141
f 566/16/142 568/17/142 565/18/142
f 569/38/143 571/39/143 572/40/143
f 573/41/144 575/42/144 576/43/144
f 577/38/145 579/39/145 580/40/145
f 581/41/146 583/42/146 584/43/146
f 585/38/147 587/39/147 588/40/147
f 589/41/148 591/42/148 592/43/148
f 593/7/149 595/8/149 596/9/149
f 597/10/150 599/11/150 600/12/150
f 601/38/151 603/39/151 604/40/151
f 605/41/152 607/42/152 608/43/152
f 609/19/153 611/20/153 612/21/153
f 614/31/154 616/24/154 613/22/154
f 617/19/155 619/20/155 620/21/155
f 622/31/156 624/24/156 621/22/156
f 625/13/157 627/14/157 628/15/157
f 630/16/158 632/17/158 629/18/158
f 633/13/159 635/14/159 636/15/159
f 638/16/160 640/17/160 637/18/160
f 641/19/161 643/20/161 644/21/161
f 645/22/162 647/23/162 648/24/162
f 649/38/163 651/39/163 652/40/163
f 653/41/164 655/42/164 656/43/164
f 657/38/165 659/39/165 660/40/165
f 661/41/166 663/42/166 664/43/166
f 665/13/167 667/14/167 668/15/167
f 670/16/168 672/17/168 669/18/168
f 673/19/169 675/20/169 676/21/169
f 678/31/170 680/24/170 677/22/170
f 681/25/171 683/26/171 684/27/171
f 686/28/172 688/29/172 685/30/172
f 690/45/173 692/46/173 689/47/173
f 694/48/174 696/49/174 693/50/174
f 698/32/175 700/33/175 697/34/175
f 701/35/176 703/36/176 704/37/176
f 705/25/177 707/26/177 708/27/177
f 710/28/178 712/29/178 709/30/178
f 714/45/179 716/46/179 713/47/179
f 718/48/180 720/49/180 717/50/180
f 721/19/181 723/20/181 724/21/181
f 726/31/182 728/24/182 725/22/182
f 729/25/183 731/26/183 732/27/183
f 734/28/184 736/29/184 733/30/184
f 737/25/185 739/26/185 740/27/185
f 742/28/186 744/29/186 741/30/186
f 745/1/187 747/2/187 748/3/187
f 749/4/188 751/5/188 752/6/188
f 753/25/189 755/26/189 756/27/189
f 758/28/190 760/29/190 757/30/190
f 761/25/191 763/26/191 764/27/191
f 766/28/192 768/29/192 765/30/192
f 769/38/193 771/39/193 772/40/193
f 773/41/194 775/42/194 776/43/194
f 777/25/195 779/26/195 780/27/195
f 782/28/196 784/29/196 781/30/196
f 785/25/197 787/26/197 788/27/197
f 790/28/198 792/29/198 789/30/198
f 793/19/199 795/20/199 796/21/199
f 797/22/200 799/23/200 800/24/200
f 801/38/201 803/39/201 804/40/201
f 805/41/202 807/42/202 808/43/202
f 809/19/203 811/20/203 812/21/203
f 814/31/204 816/24/204 813/22/204
f 817/25/205 819/26/205 820/27/205
f 822/28/206 824/29/206 821/30/206
f 825/38/207 827/39/207 828/40/207
f 829/41/208 831/42/208 832/43/208
f 834/44/209 836/9/209 833/7/209
f 837/10/210 839/11/210 840/12/210
f 841/38/211 843/39/211 844/40/211
f 845/41/212 847/42/212 848/43/212
f 849/25/213 851/26/213 852/27/213
f 854/28/214 856/29/214 853/30/214
f 857/13/215 859/14/215 860/15/215
f 862/16/216 864/17/216 861/18/216
f 865/13/217 867/14/217 868/15/217
f 870/16/218 872/17/218 869/18/218
f 873/19/219 875/20/219 876/21/219
f 878/31/220 880/24/220 877/22/220
f 881/13/221 883/14/221 884/15/221
f 886/16/222 888/17/222 885/18/222
f 1/1/1 2/51/1 3/2/1
f 5/4/2 6/52/2 7/5/2
f 9/7/3 10/44/3 11/8/3
f 13/10/4 14/53/4 15/11/4
f 17/13/5 18/54/5 19/14/5
f 22/16/6 23/55/6 24/17/6
f 25/19/7 26/56/7 27/20/7
f 29/22/8 30/31/8 31/23/8
f 33/1/9 34/51/9 35/2/9
f 37/4/10 38/52/10 39/5/10
f 41/13/11 42/54/11 43/14/11
f 46/16/12 47/55/12 48/17/12
f 49/13/13 50/54/13 51/14/13
f 54/16/14 55/55/14 56/17/14
f 57/25/15 58/57/15 59/26/15
f 62/28/16 63/58/16 64/29/16
f 65/25/17 66/57/17 67/26/17
f 70/28/18 71/58/18 72/29/18
f 73/19/19 74/56/19 75/20/19
f 78/31/20 79/23/20 80/24/20
f 81/13/21 82/54/21 83/14/21
f 86/16/22 87/55/22 88/17/22
f 89/19/23 90/56/23 91/20/23
f 93/22/24 94/31/24 95/23/24
f 97/25/25 98/57/25 99/26/25
f 102/28/26 103/58/26 104/29/26
f 105/1/27 106/51/27 107/2/27
f 109/4/28 110/52/28 111/5/28
f 113/19/223 114/56/223 115/20/223
f 118/31/30 119/23/30 120/24/30
f 121/19/31 122/56/31 123/20/31
f 126/31/32 127/23/32 128/24/32
f 129/25/33 130/57/33 131/26/33
f 134/28/34 135/58/34 136/29/34
f 138/32/35 139/59/35 140/33/35
f 141/35/36 142/60/36 143/36/36
f 145/13/224 146/54/224 147/14/224
f 150/16/225 151/55/225 152/17/225
f 153/38/39 154/61/39 155/39/39
f 157/41/40 158/62/40 159/42/40
f 161/13/41 162/54/41 163/14/41
f 166/16/42 167/55/42 168/17/42
f 169/19/43 170/56/43 171/20/43
f 174/31/44 175/23/44 176/24/44
f 177/25/45 178/57/45 179/26/45
f 182/28/226 183/58/226 184/29/226
f 185/13/47 186/54/47 187/14/47
f 190/16/48 191/55/48 192/17/48
f 194/44/49 195/8/49 196/9/49
f 197/10/50 198/53/50 199/11/50
f 201/19/51 202/56/51 203/20/51
f 205/22/52 206/31/52 207/23/52
f 209/38/53 210/61/53 211/39/53
f 213/41/54 214/62/54 215/42/54
f 217/13/55 218/54/55 219/14/55
f 222/16/56 223/55/56 224/17/56
f 225/19/57 226/56/57 227/20/57
f 230/31/58 231/23/58 232/24/58
f 233/13/59 234/54/59 235/14/59
f 238/16/60 239/55/60 240/17/60
f 242/45/61 243/63/61 244/46/61
f 246/48/62 247/64/62 248/49/62
f 249/19/63 250/56/63 251/20/63
f 254/31/64 255/23/64 256/24/64
f 257/38/65 258/61/65 259/39/65
f 261/41/66 262/62/66 263/42/66
f 265/19/67 266/56/67 267/20/67
f 270/31/68 271/23/68 272/24/68
f 273/19/69 274/56/69 275/20/69
f 278/31/70 279/23/70 280/24/70
f 282/32/71 283/59/71 284/33/71
f 285/35/72 286/60/72 287/36/72
f 289/19/73 290/56/73 291/20/73
f 294/31/74 295/23/74 296/24/74
f 297/13/75 298/54/75 299/14/75
f 302/16/76 303/55/76 304/17/76
f 305/13/77 306/54/77 307/14/77
f 310/16/78 311/55/78 312/17/78
f 313/38/79 314/61/79 315/39/79
f 317/41/80 318/62/80 319/42/80
f 321/25/81 322/57/81 323/26/81
f 326/28/82 327/58/82 328/29/82
f 329/38/83 330/61/83 331/39/83
f 333/41/84 334/62/84 335/42/84
f 338/45/85 339/63/85 340/46/85
f 342/48/86 343/64/86 344/49/86
f 345/25/87 346/57/87 347/26/87
f 350/28/88 351/58/88 352/29/88
f 353/25/89 354/57/89 355/26/89
f 358/28/90 359/58/90 360/29/90
f 361/38/91 362/61/91 363/39/91
f 365/41/92 366/62/92 367/42/92
f 369/1/93 370/51/93 371/2/93
f 373/4/94 374/52/94 375/5/94
f 377/38/95 378/61/95 379/39/95
f 381/41/96 382/62/96 383/42/96
f 385/1/97 386/51/97 387/2/97
f 389/4/98 390/52/98 391/5/98
f 393/25/99 394/57/99 395/26/99
f 398/28/100 399/58/100 400/29/100
f 401/19/101 402/56/101 403/20/101
f 406/31/102 407/23/102 408/24/102
f 409/13/103 410/54/103 411/14/103
f 414/16/104 415/55/104 416/17/104
f 417/25/105 418/57/105 419/26/105
f 422/28/106 423/58/106 424/29/106
f 425/25/107 426/57/107 427/26/107
f 430/28/108 431/58/108 432/29/108
f 433/13/109 434/54/109 435/14/109
f 438/16/110 439/55/110 440/17/110
f 441/19/111 442/56/111 443/20/111
f 446/31/112 447/23/112 448/24/112
f 450/45/113 451/63/113 452/46/113
f 454/48/114 455/64/114 456/49/114
f 457/25/115 458/57/115 459/26/115
f 462/28/116 463/58/116 464/29/116
f 465/13/117 466/54/117 467/14/117
f 470/16/118 471/55/118 472/17/118
f 473/1/119 474/51/119 475/2/119
f 477/4/120 478/52/120 479/5/120
f 481/25/121 482/57/121 483/26/121
f 486/28/122 487/58/122 488/29/122
f 489/13/123 490/54/123 491/14/123
f 494/16/124 495/55/124 496/17/124
f 497/19/125 498/56/125 499/20/125
f 502/31/126 503/23/126 504/24/126
f 505/19/127 506/56/127 507/20/127
f 510/31/128 511/23/128 512/24/128
f 513/19/129 514/56/129 515/20/129
f 518/31/130 519/23/130 520/24/130
f 521/25/131 522/57/131 523/26/131
f 526/28/132 527/58/132 528/29/132
f 529/13/133 530/54/133 531/14/133
f 534/16/134 535/55/134 536/17/134
f 537/13/135 538/54/135 539/14/135
f 542/16/136 543/55/136 544/17/136
f 545/13/137 546/54/137 547/14/137
f 550/16/138 551/55/138 552/17/138
f 553/19/139 554/56/139 555/20/139
f 558/31/140 559/23/140 560/24/140
f 561/13/141 562/54/141 563/14/141
f 566/16/142 567/55/142 568/17/142
f 569/38/143 570/61/143 571/39/143
f 573/41/144 574/62/144 575/42/144
f 577/38/145 578/61/145 579/39/145
f 581/41/146 582/62/146 583/42/146
f 585/38/147 586/61/147 587/39/147
f 589/41/148 590/62/148 591/42/148
f 593/7/149 594/44/149 595/8/149
f 597/10/150 598/53/150 599/11/150
f 601/38/151 602/61/151 603/39/151
f 605/41/152 606/62/152 607/42/152
f 609/19/153 610/56/153 611/20/153
f 614/31/154 615/23/154 616/24/154
f 617/19/155 618/56/155 619/20/155
f 622/31/156 623/23/156 624/24/156
f 625/13/227 626/54/227 627/14/227
f 630/16/158 631/55/158 632/17/158
f 633/13/159 634/54/159 635/14/159
f 638/16/160 639/55/160 640/17/160
f 641/19/161 642/56/161 643/20/161
f 645/22/162 646/31/162 647/23/162
f 649/38/163 650/61/163 651/39/163
f 653/41/164 654/62/164 655/42/164
f 657/38/228 658/61/228 659/39/228
f 661/41/229 662/62/229 663/42/229
f 665/13/125 666/54/125 667/14/125
f 670/16/168 671/55/168 672/17/168
f 673/19/169 674/56/169 675/20/169
f 678/31/170 679/23/170 680/24/170
f 681/25/171 682/57/171 683/26/171
f 686/28/172 687/58/172 688/29/172
f 690/45/173 691/63/173 692/46/173
f 694/48/174 695/64/174 696/49/174
f 698/32/175 699/59/175 700/33/175
f 701/35/176 702/60/176 703/36/176
f 705/25/177 706/57/177 707/26/177
f 710/28/178 711/58/178 712/29/178
f 714/45/179 715/63/179 716/46/179
f 718/48/180 719/64/180 720/49/180
f 721/19/181 722/56/181 723/20/181
f 726/31/182 727/23/182 728/24/182
f 729/25/183 730/57/183 731/26/183
f 734/28/184 735/58/184 736/29/184
f 737/25/185 738/57/185 739/26/185
f 742/28/186 743/58/186 744/29/186
f 745/1/187 746/51/187 747/2/187
f 749/4/188 750/52/188 751/5/188
f 753/25/189 754/57/189 755/26/189
f 758/28/190 759/58/190 760/29/190
f 761/25/191 762/57/191 763/26/191
f 766/28/192 767/58/192 768/29/192
f 769/38/193 770/61/193 771/39/193
f 773/41/194 774/62/194 775/42/194
f 777/25/195 778/57/195 779/26/195
f 782/28/196 783/58/196 784/29/196
f 785/25/230 786/57/230 787/26/230
f 790/28/231 791/58/231 792/29/231
f 793/19/199 794/56/199 795/20/199
f 797/22/200 798/31/200 799/23/200
f 801/38/201 802/61/201 803/39/201
f 805/41/202 806/62/202 807/42/202
f 809/19/203 810/56/203 811/20/203
f 814/31/204 815/23/204 816/24/204
f 817/25/205 818/57/205 819/26/205
f 822/28/206 823/58/206 824/29/206
f 825/38/207 826/61/207 827/39/207
f 829/41/208 830/62/208 831/42/208
f 834/44/209 835/8/209 836/9/209
f 837/10/210 838/53/210 839/11/210
f 841/38/211 842/61/211 843/39/211
f 845/41/212 846/62/212 847/42/212
f 849/25/213 850/57/213 851/26/213
f 854/28/214 855/58/214 856/29/214
f 857/13/215 858/54/215 859/14/215
f 862/16/216 863/55/216 864/17/216
f 865/13/217 866/54/217 867/14/217
f 870/16/218 871/55/218 872/17/218
f 873/19/219 874/56/219 875/20/219
f 878/31/220 879/23/220 880/24/220
f 881/13/221 882/54/221 883/14/221
f 886/16/222 887/55/222 888/17/222
