mtllib grass_06_05_b2.mtl
usemtl grass_06_05_b2
# Blender 5.1.1
# www.blender.org
o grass_06_05_b2
v -15.796262 15.851314 0.131339
v -15.739567 15.807722 0.000050
v -15.556883 15.667259 0.000050
v -15.488061 15.614344 0.131339
v -15.689013 15.636158 0.000000
v -15.556443 15.808576 0.000000
v -15.502500 15.878735 0.137053
v -15.702015 15.619248 0.146042
vn -0.6095 -0.7928 -0.0000
vn 0.7928 -0.6095 -0.0000
vt 0.038376 0.371048
vt 0.159378 0.250046
vt 0.194166 0.371048
vt 0.420000 0.250000
vt 0.324298 0.384599
vt 0.332846 0.250000
vt 0.067034 0.250046
vt 0.455465 0.376315
s 0
f 1/1/1 3/2/1 4/3/1
f 6/4/2 8/5/2 5/6/2
f 1/1/1 2/7/1 3/2/1
f 6/4/2 7/8/2 8/5/2
