mtllib grass_04_06_b1.mtl
usemtl grass_04_06_b1
# Blender 5.1.1
# www.blender.org
o grass_04_06_b1
v -2.492682 -10.628890 0.390935
v -2.306544 -10.527744 0.390935
v -2.284139 -10.515569 0.689115
v -2.551137 -10.660654 0.680539
v -2.364758 -10.700722 0.390935
v -2.474509 -10.498748 0.390935
v -2.478189 -10.491977 0.643317
v -2.366366 -10.697763 0.680979
v 1.770364 3.036263 2.650682
v 1.786584 3.305327 2.650682
v 1.790430 3.369122 2.741452
v 1.774521 3.105217 2.741452
v 1.893063 3.213119 2.650643
v 1.646851 3.227962 2.650643
v 1.631070 3.228913 2.751068
v 1.851218 3.215642 2.742018
v 11.804985 -0.541592 -0.547023
v 11.963206 -0.487107 -0.547023
v 11.939366 -0.495317 -0.406403
v 11.737536 -0.564818 -0.449653
v 11.827108 -0.455313 -0.547023
v 11.815701 -0.422188 -0.438371
v 11.873130 -0.588958 -0.403910
v 11.873556 -0.590197 -0.547023
v 3.132053 -10.103822 -0.554786
v 3.090705 -10.129357 -0.660639
v 2.957475 -10.211639 -0.660639
v 2.907284 -10.242638 -0.554786
v 2.969514 -10.120190 -0.660679
v 3.047172 -10.245933 -0.660679
v 3.078772 -10.297099 -0.550178
v 2.961897 -10.107857 -0.542931
v 3.748609 -1.644481 1.099182
v 3.948867 -1.501428 1.099182
v 3.918692 -1.522983 1.260038
v 3.663240 -1.705464 1.210565
v 3.743679 -1.513580 1.099182
v 3.713728 -1.471653 1.223471
v 3.864511 -1.682732 1.262890
v 3.865632 -1.684300 1.099182
v 14.232341 -1.351280 -1.186749
v 14.292675 -1.336184 -1.266395
v 14.487085 -1.287539 -1.266395
v 14.560324 -1.269214 -1.186749
v 14.436914 -1.394395 -1.266425
v 14.391004 -1.210910 -1.266425
v 14.372322 -1.136247 -1.183282
v 14.441418 -1.412390 -1.177829
v 3.473602 1.322912 1.829460
v 3.540520 1.448277 1.829460
v 3.548576 1.463367 1.945748
v 3.452586 1.283543 1.942403
v 3.571769 1.329902 1.829460
v 3.435739 1.402514 1.829460
v 3.431179 1.404948 1.927887
v 3.569776 1.330965 1.942575
v 8.592262 -4.886865 -0.733127
v 8.600594 -4.857053 -0.587329
v 8.533650 -5.096567 -0.624131
v 8.510869 -5.178076 -0.733127
v 8.797048 -5.071816 -0.733127
v 8.495502 -4.987535 -0.733127
v 8.393731 -4.959091 -0.605034
v 8.746314 -5.057636 -0.614312
v 6.273641 -12.170951 -1.703664
v 6.312396 -12.142069 -1.820496
v 6.437273 -12.049001 -1.820496
v 6.484318 -12.013941 -1.703664
v 6.433268 -12.140654 -1.820541
v 6.345430 -12.022794 -1.820541
v 6.309688 -11.974835 -1.698578
v 6.441882 -12.152213 -1.690580
v 3.223342 5.563178 3.034070
v 3.159341 5.556551 2.869421
v 2.953118 5.535193 2.869421
v 2.875429 5.527148 3.034070
v 3.020143 5.637283 2.869358
v 3.040299 5.442648 2.869358
v 3.048501 5.363449 3.041236
v 3.018166 5.656372 3.052509
v 2.570323 -5.732516 0.571545
v 2.512218 -5.755012 0.486048
v 2.324995 -5.827500 0.486048
v 2.254463 -5.854809 0.571545
v 2.361605 -5.715049 0.486015
v 2.430020 -5.891751 0.486015
v 2.457859 -5.963654 0.575267
v 2.354895 -5.697719 0.581120
v -2.885115 -10.161333 0.817980
v -2.829763 -10.140779 0.578900
v -2.651408 -10.074549 0.578900
v -2.584217 -10.049598 0.817980
v -2.687574 -10.180622 0.578810
v -2.750082 -10.012290 0.578810
v -2.775517 -9.943793 0.828386
v -2.681443 -10.197131 0.844754
v 11.536358 15.265362 2.959499
v 11.518918 15.316284 2.875971
v 11.462722 15.480367 2.875971
v 11.441551 15.542180 2.959499
v 11.558544 15.444934 2.875940
v 11.403683 15.391895 2.875940
v 11.340668 15.370314 2.963135
v 11.573732 15.450135 2.968853
v 5.635521 4.477770 2.030315
v 5.481547 4.619493 2.030315
v 5.463013 4.636551 2.190445
v 5.683876 4.433264 2.185839
v 5.661837 4.620289 2.030315
v 5.508058 4.453215 2.030315
v 5.502903 4.447614 2.165850
v 5.659585 4.617842 2.186076
v 12.866009 -11.870218 -3.144634
v 12.863060 -11.852739 -2.918051
v 12.886747 -11.993172 -2.975246
v 12.894808 -12.040962 -3.144634
v 13.017207 -11.916147 -3.144634
v 12.840404 -11.945970 -3.144634
v 12.780733 -11.956034 -2.945567
v 12.987461 -11.921165 -2.959986
v 1.336437 5.583064 3.526504
v 1.332394 5.531466 3.258764
v 1.319367 5.365205 3.258764
v 1.314459 5.302570 3.526504
v 1.248321 5.433048 3.258662
v 1.405238 5.420753 3.258662
v 1.469091 5.415750 3.538158
v 1.232931 5.434254 3.556489
v -3.443764 -14.020492 -0.269459
v -3.637453 -14.106266 -0.269459
v -3.608268 -14.093341 -0.044526
v -3.361196 -13.983927 -0.113707
v -3.462368 -14.131698 -0.269459
v -3.444410 -14.172249 -0.095661
v -3.534819 -13.968094 -0.040539
v -3.535491 -13.966578 -0.269459
v 0.610155 -7.097378 0.575953
v 0.612105 -7.274812 0.575953
v 0.612340 -7.296170 0.726076
v 0.609543 -7.041656 0.721758
v 0.506854 -7.163939 0.575953
v 0.699383 -7.161823 0.575953
v 0.705837 -7.161752 0.703018
v 0.509674 -7.163908 0.721980
v 13.407917 -11.283806 -3.114124
v 13.496934 -11.098476 -3.114124
v 13.507648 -11.076168 -2.886589
v 13.379963 -11.342008 -2.893133
v 13.549386 -11.267663 -3.114124
v 13.348289 -11.171073 -3.114124
v 13.341548 -11.167835 -2.921537
v 13.546441 -11.266248 -2.892797
v 1.551630 -7.496902 0.260319
v 1.532027 -7.480608 0.372593
v 1.689521 -7.611514 0.344253
v 1.743118 -7.656062 0.260319
v 1.759545 -7.405216 0.260319
v 1.594736 -7.603499 0.260319
v 1.539114 -7.670419 0.358959
v 1.731816 -7.438576 0.351814
v -1.066755 -5.293678 1.391334
v -1.066762 -5.104502 1.391334
v -1.066761 -5.133007 1.525501
v -1.066752 -5.374323 1.484236
v -1.150837 -5.238276 1.391334
v -1.190443 -5.238278 1.495000
v -0.991045 -5.238271 1.527879
v -0.989564 -5.238271 1.391334
v 8.460300 -5.441922 -0.832732
v 8.433446 -5.436392 -0.728985
v 8.649202 -5.480824 -0.755173
v 8.722627 -5.495945 -0.832732
v 8.611143 -5.249599 -0.832732
v 8.555203 -5.521235 -0.832732
v 8.536324 -5.612911 -0.741584
v 8.601731 -5.295301 -0.748186
v 10.807557 -12.344413 -2.782856
v 10.697811 -12.218657 -2.782856
v 10.714348 -12.237606 -2.639824
v 10.854341 -12.398022 -2.683815
v 10.719523 -12.356359 -2.782856
v 10.693194 -12.379336 -2.672339
v 10.825746 -12.263660 -2.637288
v 10.826730 -12.262801 -2.782856
v 14.400518 -2.067106 -1.409066
v 14.208802 -2.025252 -1.409066
v 14.237690 -2.031559 -1.307419
v 14.482245 -2.084947 -1.338682
v 14.325768 -2.140056 -1.409066
v 14.317005 -2.180194 -1.330526
v 14.361120 -1.978119 -1.305617
v 14.361448 -1.976618 -1.409066
v 12.844801 -8.984765 -2.542359
v 12.780132 -9.169876 -2.542359
v 12.764799 -9.213766 -2.435969
v 12.828228 -9.032204 -2.435969
v 12.723876 -9.084238 -2.542405
v 12.893266 -9.143414 -2.542405
v 12.904122 -9.147208 -2.424698
v 12.752665 -9.094296 -2.435305
v -2.199053 -13.000607 -0.286955
v -2.223703 -13.000644 -0.153252
v -2.025658 -13.000350 -0.187002
v -1.958262 -13.000250 -0.286955
v -2.101394 -12.803755 -0.286955
v -2.101025 -13.053092 -0.286955
v -2.100900 -13.137242 -0.169489
v -2.101332 -12.845705 -0.177997
v 8.742778 -0.556986 0.321467
v 8.687796 -0.526414 0.232454
v 8.510633 -0.427903 0.232454
v 8.443891 -0.390791 0.321467
v 8.621556 -0.383704 0.232421
v 8.528582 -0.550911 0.232421
v 8.490749 -0.618950 0.325341
v 8.630675 -0.367305 0.331435
v 5.742176 -13.323122 -1.955350
v 5.738016 -13.341707 -1.762243
v 5.771437 -13.192389 -1.810987
v 5.782810 -13.141575 -1.955350
v 5.610396 -13.216077 -1.955350
v 5.798386 -13.258153 -1.955350
v 5.861833 -13.272353 -1.785694
v 5.642025 -13.223156 -1.797982
v 10.542832 -8.721783 -1.895450
v 10.573335 -8.763378 -2.013884
v 10.671621 -8.897408 -2.013884
v 10.708648 -8.947902 -1.895450
v 10.573848 -8.892378 -2.013928
v 10.700346 -8.799615 -2.013928
v 10.751820 -8.761868 -1.890295
v 10.561441 -8.901476 -1.882187
v 11.282314 3.230771 0.353397
v 11.427350 3.090189 0.353397
v 11.405496 3.111372 0.502898
v 11.220487 3.290700 0.456917
v 11.387273 3.254059 0.353397
v 11.416705 3.284424 0.468912
v 11.268527 3.131552 0.505549
v 11.267426 3.130416 0.353397
v 1.396774 -5.439272 0.811290
v 1.418610 -5.441047 0.936564
v 1.243173 -5.426789 0.904942
v 1.183470 -5.421937 0.811290
v 1.295843 -5.606472 0.811290
v 1.313794 -5.385598 0.811290
v 1.319853 -5.311054 0.921351
v 1.298863 -5.569311 0.913379
v 13.985258 -0.527683 -1.025995
v 13.819461 -0.363398 -1.025995
v 13.844443 -0.388152 -0.866387
v 14.055937 -0.597717 -0.915476
v 13.863685 -0.553257 -1.025995
v 13.829289 -0.587969 -0.902671
v 14.002451 -0.413213 -0.863558
v 14.003737 -0.411915 -1.025995
v -3.867037 -14.893948 -0.451322
v -3.836310 -15.120637 -0.451322
v -3.831616 -15.155269 -0.360746
v -3.867845 -14.887988 -0.342211
v -3.923409 -15.033147 -0.451336
v -3.712858 -15.004607 -0.451336
v -3.712858 -15.004607 -0.358558
v -3.933758 -15.034550 -0.340820
v 0.842569 3.536859 2.983034
v 0.903949 3.497548 2.875933
v 1.101730 3.370881 2.875933
v 1.176239 3.323163 2.983034
v 0.970277 3.327753 2.875892
v 1.089826 3.514419 2.875892
v 1.138472 3.590376 2.987696
v 0.958552 3.309446 2.995028
v 11.834105 6.214086 0.858601
v 11.967064 6.329458 0.858601
v 11.983068 6.343346 0.952297
v 11.792350 6.177854 0.949602
v 11.950762 6.178675 0.858601
v 11.825575 6.322946 0.858601
v 11.821378 6.327782 0.937906
v 11.948929 6.180788 0.949741
v 11.131906 13.375062 2.677930
v 11.132491 13.406873 2.557536
v 11.134377 13.509374 2.557536
v 11.135087 13.547989 2.677930
v 11.180466 13.470354 2.557490
v 11.083724 13.472133 2.557490
v 11.044359 13.472857 2.683170
v 11.189953 13.470180 2.691412
v 6.087163 -0.673804 0.743933
v 6.071161 -0.657662 0.930423
v 6.199725 -0.787350 0.883349
v 6.243477 -0.831484 0.743933
v 6.279561 -0.610251 0.743933
v 6.116285 -0.772111 0.743933
v 6.061180 -0.826739 0.907776
v 6.252090 -0.637483 0.895908
v 0.949993 -14.247975 -1.127227
v 0.928327 -14.300468 -1.236743
v 0.858517 -14.469613 -1.236743
v 0.832218 -14.533334 -1.127227
v 0.807294 -14.374775 -1.236785
v 0.966933 -14.440662 -1.236785
v 1.031892 -14.467473 -1.122460
v 0.791637 -14.368313 -1.114962
v 2.909325 -12.788358 -1.278298
v 3.037228 -12.811156 -1.278298
v 3.058822 -12.815006 -1.194761
v 2.887317 -12.784434 -1.178689
v 2.962982 -12.869330 -1.278360
v 2.990603 -12.714375 -1.278360
v 2.980287 -12.772248 -1.160822
v 2.960988 -12.880518 -1.196527
v 4.470026 -12.671484 -1.543453
v 4.469013 -12.687346 -1.439199
v 4.477150 -12.559896 -1.465515
v 4.479920 -12.516523 -1.543453
v 4.347461 -12.600366 -1.543453
v 4.507920 -12.610611 -1.543453
v 4.562075 -12.614068 -1.451859
v 4.374458 -12.602089 -1.458494
v 14.086234 -2.569271 -1.479016
v 14.316164 -2.416057 -1.479016
v 14.335165 -2.403395 -1.402727
v 14.061581 -2.585698 -1.358207
v 14.257098 -2.599171 -1.478967
v 14.111413 -2.380540 -1.478967
v 14.149476 -2.437661 -1.392897
v 14.279829 -2.633282 -1.380638
v 0.780591 2.327709 2.701717
v 0.647700 2.393734 2.701717
v 0.667724 2.383785 2.871352
v 0.837241 2.299563 2.819179
v 0.712326 2.287982 2.701717
v 0.698503 2.260160 2.832789
v 0.768095 2.400232 2.874360
v 0.768612 2.401272 2.701717
v 9.627531 -13.806427 -2.772720
v 9.670077 -13.777424 -2.875878
v 9.807170 -13.683970 -2.875878
v 9.858816 -13.648764 -2.772720
v 9.798793 -13.781343 -2.875917
v 9.710590 -13.651954 -2.875917
v 9.674700 -13.599304 -2.768229
v 9.807444 -13.794032 -2.761167
v 13.192587 -3.782222 -1.530049
v 13.079948 -3.886715 -1.530049
v 13.066390 -3.899293 -1.435871
v 13.227961 -3.749407 -1.438579
v 13.089799 -3.754713 -1.530049
v 13.203182 -3.876934 -1.530049
v 13.206984 -3.881032 -1.450336
v 13.091460 -3.756503 -1.438440
v 4.932158 -5.166094 0.058170
v 4.916237 -5.183971 0.216746
v 5.044151 -5.040338 0.176718
v 5.087681 -4.991458 0.058170
v 4.852760 -4.968005 0.058170
v 5.033593 -5.129047 0.058170
v 5.094623 -5.183399 0.197488
v 4.883184 -4.995100 0.187398
v 3.329808 -14.149243 -1.506182
v 3.275568 -14.127440 -1.622230
v 3.100794 -14.057184 -1.622230
v 3.034952 -14.030718 -1.506182
v 3.197930 -14.003557 -1.622274
v 3.131623 -14.168509 -1.622274
v 3.104641 -14.235631 -1.501131
v 3.204433 -13.987380 -1.493186
v 5.855913 -4.049049 0.102753
v 5.848270 -4.074255 0.211610
v 5.909673 -3.871745 0.184132
v 5.930569 -3.802829 0.102753
v 5.685141 -3.887903 0.102753
v 5.940099 -3.965208 0.102753
v 6.026146 -3.991299 0.198391
v 5.728036 -3.900909 0.191463
v 15.779405 -2.689739 -1.701357
v 15.637053 -2.867322 -1.701357
v 15.615306 -2.894452 -1.570797
v 15.783147 -2.685071 -1.544080
v 15.640404 -2.744544 -1.701377
v 15.805345 -2.876761 -1.701377
v 15.805345 -2.876761 -1.567643
v 15.632298 -2.738045 -1.542076
v -3.648570 -13.635254 -0.180943
v -3.407534 -13.715158 -0.180943
v -3.350384 -13.734103 -0.054049
v -3.586799 -13.655731 -0.054049
v -3.517259 -13.789777 -0.180998
v -3.444142 -13.569212 -0.180998
v -3.439455 -13.555076 -0.040605
v -3.504833 -13.752291 -0.053257
v 15.658038 -1.968778 -1.526675
v 15.505101 -1.931185 -1.526675
v 15.486692 -1.926661 -1.370800
v 15.706067 -1.980583 -1.375283
v 15.623691 -1.865259 -1.526675
v 15.582900 -2.031207 -1.526675
v 15.581532 -2.036770 -1.394741
v 15.623093 -1.867690 -1.375053
v 8.156065 1.813550 0.841778
v 8.068233 2.001038 0.841778
v 8.057660 2.023606 0.938675
v 8.183648 1.754671 0.935888
v 8.233596 1.934167 0.841778
v 8.030158 1.838862 0.841778
v 8.023338 1.835667 0.923792
v 8.230617 1.932771 0.936031
v 10.640386 -10.217570 -2.325840
v 10.689405 -10.393207 -2.325840
v 10.695306 -10.414349 -2.214108
v 10.624991 -10.162413 -2.217322
v 10.555492 -10.311064 -2.325840
v 10.746071 -10.257874 -2.325840
v 10.752460 -10.256090 -2.231270
v 10.558284 -10.310285 -2.217157
v 4.082146 -4.033442 0.517392
v 4.117257 -4.093711 0.434774
v 4.230393 -4.287912 0.434774
v 4.273014 -4.361072 0.517392
v 4.099624 -4.267260 0.434743
v 4.282911 -4.160481 0.434743
v 4.357493 -4.117032 0.520988
v 4.081648 -4.277732 0.526644
v 9.159121 -9.089844 -1.743912
v 9.315351 -8.932215 -1.743912
v 9.291810 -8.955966 -1.631722
v 9.092521 -9.157040 -1.666227
v 9.134818 -8.974241 -1.743912
v 9.101816 -8.941533 -1.657226
v 9.267962 -9.106205 -1.629733
v 9.269197 -9.107428 -1.743912
v 1.293618 2.950232 2.746097
v 1.164116 3.119256 2.746097
v 1.144332 3.145078 2.829684
v 1.297023 2.945788 2.846789
v 1.274907 3.088762 2.746084
v 1.117915 2.968480 2.746084
v 1.117915 2.968480 2.831703
v 1.282623 3.094674 2.848072
v 1.362143 4.584743 3.035499
v 1.358879 4.607609 3.173579
v 1.385105 4.423897 3.138724
v 1.394030 4.361378 3.035499
v 1.557585 4.519930 3.035499
v 1.326293 4.486912 3.035499
v 1.248233 4.475768 3.156810
v 1.518671 4.514375 3.148024
v 1.521122 0.754062 2.172579
v 1.542030 0.758419 2.299635
v 1.374047 0.723412 2.267564
v 1.316881 0.711498 2.172579
v 1.472811 0.569900 2.172579
v 1.428737 0.781389 2.172579
v 1.413862 0.852766 2.284206
v 1.465395 0.605482 2.276121
v 13.392244 13.561161 2.014838
v 13.393084 13.772460 2.014838
v 13.393153 13.789922 2.098575
v 13.392154 13.538506 2.147440
v 13.484112 13.656856 2.014891
v 13.283195 13.657654 2.014891
v 13.335689 13.657445 2.109364
v 13.515459 13.656731 2.122819
v 15.139949 -11.472362 -3.385417
v 15.007580 -11.380975 -3.385417
v 14.996641 -11.373423 -3.302789
v 15.154141 -11.482160 -3.254570
v 15.119340 -11.373506 -3.385364
v 15.032445 -11.499370 -3.385364
v 15.055148 -11.466485 -3.292142
v 15.132898 -11.353868 -3.278865
v -0.524113 -4.644851 1.462453
v -0.491939 -4.695361 1.347619
v -0.388266 -4.858114 1.347619
v -0.349210 -4.919427 1.462453
v -0.501157 -4.844849 1.347575
v -0.347550 -4.747002 1.347575
v -0.285045 -4.707187 1.467451
v -0.516222 -4.854445 1.475313
v 8.605750 0.982096 0.543232
v 8.591805 0.956519 0.689593
v 8.703841 1.162016 0.652649
v 8.741968 1.231949 0.543232
v 8.457053 1.195012 0.543232
v 8.715772 1.053959 0.543232
v 8.803089 1.006354 0.671819
v 8.500581 1.171280 0.662506
v 4.092688 -15.426783 -2.147848
v 4.075659 -15.414497 -1.961131
v 4.212471 -15.513203 -2.008262
v 4.259029 -15.546793 -2.147848
v 4.258391 -15.339714 -2.147848
v 4.134122 -15.511959 -2.147848
v 4.092182 -15.570090 -1.983805
v 4.237483 -15.368693 -1.995687
v -0.230354 -14.697518 -1.085233
v -0.081539 -14.571712 -1.085233
v -0.063626 -14.556568 -0.959171
v -0.277088 -14.737026 -0.962796
v -0.101734 -14.738377 -1.085233
v -0.238243 -14.576902 -1.085233
v -0.242819 -14.571488 -0.978533
v -0.103733 -14.736012 -0.962610
v 4.138889 8.872215 3.439157
v 4.117297 8.847631 3.336090
v 4.047722 8.768414 3.336090
v 4.021512 8.738570 3.439157
v 4.037462 8.829665 3.336051
v 4.112227 8.764000 3.336051
v 4.142651 8.737280 3.443643
v 4.030129 8.836105 3.450699
v -3.286736 -15.856529 -0.545349
v -3.238510 -15.805737 -0.765775
v -3.083115 -15.642074 -0.765775
v -3.024574 -15.580417 -0.545349
v -3.066256 -15.773939 -0.765858
v -3.220722 -15.627276 -0.765858
v -3.283577 -15.567597 -0.535755
v -3.051106 -15.788322 -0.520664
v 15.739447 0.777838 -1.016472
v 15.785939 0.585806 -1.016472
v 15.793042 0.556469 -0.913438
v 15.738224 0.782887 -0.892354
v 15.703354 0.653251 -1.016487
v 15.881716 0.696433 -1.016487
v 15.881716 0.696433 -0.910949
v 15.694588 0.651128 -0.890772
v -1.456391 -12.794190 -0.389109
v -1.325222 -12.924607 -0.389109
v -1.309434 -12.940306 -0.281818
v -1.497583 -12.753234 -0.284903
v -1.484487 -12.919171 -0.389109
v -1.342975 -12.776843 -0.389109
v -1.338231 -12.772072 -0.298297
v -1.482415 -12.917087 -0.284745
v 6.476317 6.841475 2.333020
v 6.366285 6.990410 2.333020
v 6.382864 6.967968 2.437111
v 6.523223 6.777985 2.405097
v 6.377897 6.836190 2.333020
v 6.346716 6.813153 2.413448
v 6.503699 6.929131 2.438956
v 6.504865 6.929992 2.333020
v 1.792261 5.730637 3.345743
v 1.788044 5.781780 3.251099
v 1.774456 5.946573 3.251099
v 1.769336 6.008655 3.345743
v 1.854741 5.891427 3.251063
v 1.699208 5.878602 3.251063
v 1.635920 5.873383 3.349862
v 1.869995 5.892684 3.356342
v 3.909684 -14.144376 -1.660447
v 3.930458 -14.100140 -1.768032
v 3.997395 -13.957602 -1.768032
v 4.022612 -13.903903 -1.660447
v 4.037542 -14.041222 -1.768073
v 3.903014 -13.978046 -1.768073
v 3.848273 -13.952339 -1.655764
v 4.050736 -14.047418 -1.648398
v 12.708737 -2.002070 -1.039232
v 12.534606 -2.015762 -1.039232
v 12.513645 -2.017410 -0.895561
v 12.763422 -1.997771 -0.899693
v 12.636510 -1.905034 -1.039232
v 12.651366 -2.093979 -1.039232
v 12.651865 -2.100314 -0.917628
v 12.636728 -1.907801 -0.899481
v 6.546403 9.332177 2.848331
v 6.606649 9.504611 2.848331
v 6.613901 9.525367 2.936075
v 6.527483 9.278027 2.933552
v 6.669703 9.360433 2.848331
v 6.482601 9.425804 2.848331
v 6.476328 9.427996 2.922599
v 6.666963 9.361390 2.933681
v 6.492302 9.870734 2.978405
v 6.488733 9.985670 2.978405
v 6.489271 9.968352 3.085484
v 6.493823 9.821738 3.052551
v 6.440174 9.902810 2.978405
v 6.416110 9.902063 3.061141
v 6.537256 9.905825 3.087382
v 6.538157 9.905852 2.978405
v 6.384090 -13.875192 -2.232829
v 6.302813 -14.039194 -2.232829
v 6.293029 -14.058935 -2.055922
v 6.409615 -13.823689 -2.061010
v 6.257978 -13.888008 -2.232829
v 6.435933 -13.976201 -2.232829
v 6.441898 -13.979157 -2.083093
v 6.260585 -13.889300 -2.060749
v 4.947242 -1.282958 0.902894
v 5.114467 -1.141316 0.902894
v 5.134596 -1.124266 1.029512
v 4.894726 -1.327439 1.025871
v 5.091933 -1.328771 0.902894
v 4.938241 -1.147320 0.902894
v 4.933089 -1.141237 1.010065
v 5.089682 -1.326113 1.026057
v 10.091256 -12.282704 -2.656084
v 10.301337 -12.343716 -2.656084
v 10.326624 -12.351059 -2.543290
v 10.025282 -12.263545 -2.546534
v 10.132943 -12.428358 -2.656084
v 10.199144 -12.200405 -2.656084
v 10.201364 -12.192763 -2.560614
v 10.133913 -12.425019 -2.546367
v -0.711627 -6.605979 1.037040
v -0.688598 -6.625961 1.208364
v -0.873616 -6.465425 1.165118
v -0.936579 -6.410794 1.037040
v -0.962584 -6.710348 1.037040
v -0.760472 -6.477413 1.037040
v -0.692259 -6.398798 1.187558
v -0.928580 -6.671157 1.176656
v 6.392385 -1.810862 0.441550
v 6.593521 -1.780506 0.441550
v 6.563214 -1.785080 0.544299
v 6.306642 -1.823802 0.512698
v 6.437800 -1.712576 0.441550
v 6.431445 -1.670466 0.520941
v 6.463441 -1.882470 0.546121
v 6.463679 -1.884045 0.441550
v 8.960938 8.907954 2.118958
v 9.111365 8.799618 2.118958
v 9.129473 8.786577 2.243947
v 8.913698 8.941977 2.240352
v 8.952888 8.779824 2.118958
v 9.070440 8.943048 2.118958
v 9.074381 8.948521 2.224750
v 8.954609 8.782214 2.240537
v 0.732069 -9.651266 -0.061707
v 0.710588 -9.654852 0.142843
v 0.883178 -9.626040 0.091210
v 0.941913 -9.616236 -0.061707
v 0.788814 -9.465591 -0.061707
v 0.825087 -9.682882 -0.061707
v 0.837329 -9.756217 0.118003
v 0.794917 -9.502150 0.104986
v 4.733033 0.337157 1.327516
v 4.724802 0.310563 1.439210
v 4.790931 0.524228 1.411016
v 4.813436 0.596940 1.327516
v 4.553518 0.508516 1.327516
v 4.822521 0.425259 1.327516
v 4.913308 0.397160 1.425646
v 4.598777 0.494508 1.418539
v 13.152781 0.702544 -0.593930
v 12.999175 0.605277 -0.593930
v 13.022320 0.619933 -0.490117
v 13.218262 0.744008 -0.522046
v 13.151024 0.605787 -0.593930
v 13.171389 0.573627 -0.513717
v 13.068866 0.735533 -0.488276
v 13.068104 0.736736 -0.593930
v 7.942886 -12.680430 -2.282478
v 8.048397 -12.674951 -2.282478
v 8.032499 -12.675776 -2.124051
v 7.897907 -12.682766 -2.172777
v 7.971352 -12.631930 -2.282478
v 7.970205 -12.609840 -2.160066
v 7.975980 -12.721053 -2.121242
v 7.976023 -12.721879 -2.282478
v -1.226872 -10.277884 0.224515
v -1.115877 -10.087032 0.224515
v -1.102516 -10.064059 0.311388
v -1.261729 -10.337820 0.308890
v -1.074063 -10.272590 0.224515
v -1.281151 -10.152152 0.224515
v -1.288094 -10.148115 0.298046
v -1.077096 -10.270826 0.309018
v 10.670658 4.409992 0.746635
v 10.801031 4.293210 0.746635
v 10.816724 4.279152 0.883508
v 10.629716 4.446667 0.879572
v 10.650262 4.290505 0.746635
v 10.776979 4.431969 0.746635
v 10.781227 4.436711 0.862486
v 10.652118 4.292577 0.879774
v 2.364579 -6.918447 0.375527
v 2.301650 -6.909242 0.293571
v 2.098879 -6.879583 0.293571
v 2.022491 -6.868411 0.375527
v 2.187907 -6.798062 0.293540
v 2.159915 -6.989438 0.293540
v 2.148525 -7.067312 0.379094
v 2.190652 -6.779293 0.384705
v 16.023947 5.740672 -0.029989
v 15.833388 5.615657 -0.029989
v 15.810451 5.600609 0.066578
v 16.083790 5.779932 0.063801
v 15.880400 5.806294 -0.029989
v 16.016050 5.599525 -0.029989
v 16.020597 5.592593 0.051746
v 15.882386 5.803266 0.063944
v 1.832524 -8.630362 -0.036666
v 1.962272 -8.519549 -0.036666
v 1.942722 -8.536246 0.207625
v 1.777213 -8.677601 0.132490
v 1.821273 -8.540241 -0.036666
v 1.798073 -8.513077 0.152090
v 1.914873 -8.649836 0.211956
v 1.915741 -8.650852 -0.036666
v -3.273076 -13.076546 -0.098388
v -3.020996 -13.149037 -0.098388
v -3.000164 -13.155027 -0.013332
v -3.300104 -13.068773 0.036303
v -3.189865 -13.218643 -0.098333
v -3.120936 -12.978951 -0.098333
v -3.138945 -13.041574 -0.002373
v -3.200620 -13.256042 0.011294
v 5.913077 -5.289775 -0.201228
v 5.896574 -5.300580 -0.091434
v 6.029162 -5.213772 -0.119148
v 6.074283 -5.184231 -0.201228
v 5.892432 -5.115150 -0.201228
v 6.001722 -5.282076 -0.201228
v 6.038607 -5.338414 -0.104767
v 5.910819 -5.143234 -0.111754
v 1.001209 -13.190434 -1.015388
v 1.061003 -13.449087 -1.015388
v 1.075181 -13.510415 -0.912342
v 1.016533 -13.256720 -0.912342
v 0.934695 -13.391725 -1.015433
v 1.171381 -13.337008 -1.015433
v 1.186551 -13.333502 -0.901424
v 0.974921 -13.382425 -0.911699
v 13.483623 12.110534 1.735920
v 13.534064 12.119010 1.638503
v 13.696601 12.146322 1.638503
v 13.757833 12.156611 1.735920
v 13.648559 12.061958 1.638466
v 13.622782 12.215361 1.638466
v 13.612292 12.277782 1.740160
v 13.651087 12.046913 1.746830
v 4.021493 -1.892900 0.941459
v 4.246210 -1.955359 0.941459
v 4.299490 -1.970168 1.035726
v 4.079082 -1.908906 1.035726
v 4.148906 -2.028749 0.941418
v 4.206061 -1.823117 0.941418
v 4.209724 -1.809938 1.045714
v 4.158620 -1.993801 1.036315
v 10.015697 -10.015579 -2.109327
v 9.942222 -9.823008 -2.109327
v 9.933377 -9.799828 -1.951442
v 10.038771 -10.076055 -1.955982
v 10.101502 -9.901505 -2.109327
v 9.892548 -9.981232 -2.109327
v 9.885543 -9.983904 -1.975692
v 10.098442 -9.902673 -1.955750
v 4.646541 -13.280735 -1.628144
v 4.679554 -13.230171 -1.720020
v 4.785931 -13.067244 -1.720020
v 4.826005 -13.005865 -1.628144
v 4.820703 -13.176458 -1.720055
v 4.666932 -13.076060 -1.720055
v 4.604360 -13.035207 -1.624145
v 4.835784 -13.186305 -1.617855
v 2.541233 -8.156520 -0.056511
v 2.566159 -8.155480 0.079679
v 2.365897 -8.163835 0.045301
v 2.297746 -8.166678 -0.056511
v 2.450485 -8.359560 -0.056511
v 2.439966 -8.107433 -0.056511
v 2.436416 -8.022341 0.063140
v 2.448715 -8.317141 0.054474
v -3.551725 -13.989811 -0.263879
v -3.474252 -14.182491 -0.263879
v -3.485926 -14.153459 -0.080235
v -3.584752 -13.907673 -0.136717
v -3.443399 -14.011808 -0.263879
v -3.403059 -13.995589 -0.121983
v -3.606150 -14.077248 -0.076979
v -3.607659 -14.077855 -0.263879
v 12.523433 -1.608469 -0.827102
v 12.575561 -1.622065 -0.973698
v 12.743527 -1.665877 -0.973698
v 12.806805 -1.682382 -0.827102
v 12.660996 -1.726242 -0.973753
v 12.702346 -1.567714 -0.973753
v 12.719172 -1.503206 -0.820721
v 12.656941 -1.741789 -0.810685
v 14.509418 -13.942558 -3.841740
v 14.703860 -13.911240 -3.841740
v 14.727265 -13.907470 -3.672073
v 14.448354 -13.952394 -3.676952
v 14.599466 -14.045003 -3.841740
v 14.565484 -13.834018 -3.841740
v 14.564344 -13.826945 -3.698132
v 14.598969 -14.041913 -3.676702
v 10.789977 5.806229 1.040786
v 10.792624 5.950703 1.040786
v 10.792225 5.928933 1.145052
v 10.788849 5.744641 1.112984
v 10.726542 5.849718 1.040786
v 10.696294 5.850272 1.121349
v 10.848574 5.847482 1.146900
v 10.849705 5.847461 1.040786
v 12.886761 -2.982054 -1.269493
v 12.905366 -2.733592 -1.269493
v 12.908209 -2.695634 -1.142908
v 12.886271 -2.988586 -1.117003
v 12.978343 -2.846526 -1.269513
v 12.747569 -2.829245 -1.269513
v 12.747569 -2.829245 -1.139850
v 12.989685 -2.847375 -1.115060
v 6.740978 -6.500620 -0.664580
v 6.697334 -6.707338 -0.664580
v 6.690666 -6.738918 -0.581255
v 6.742126 -6.495186 -0.564204
v 6.648733 -6.604199 -0.664593
v 6.840734 -6.644736 -0.664593
v 6.840734 -6.644736 -0.579242
v 6.639296 -6.602206 -0.562924
v 10.294390 -14.373017 -3.104117
v 10.310336 -14.383546 -2.986738
v 10.182218 -14.298950 -3.016367
v 10.138618 -14.270162 -3.104117
v 10.146999 -14.458429 -3.104117
v 10.253505 -14.297130 -3.104117
v 10.289451 -14.242691 -3.000993
v 10.164919 -14.431292 -3.008462
v 2.135291 -10.107160 -0.429261
v 1.862659 -10.102098 -0.429261
v 1.840129 -10.101679 -0.356628
v 2.164523 -10.107702 -0.314243
v 2.013542 -9.986817 -0.429214
v 2.008729 -10.246053 -0.429214
v 2.009987 -10.178323 -0.347270
v 2.014293 -9.946370 -0.335599
v -3.235806 -11.107645 0.413805
v -3.196232 -11.298262 0.413805
v -3.202195 -11.269540 0.527215
v -3.252676 -11.026386 0.492334
v -3.139496 -11.145883 0.413805
v -3.099587 -11.137597 0.501433
v -3.300504 -11.179310 0.529225
v -3.301997 -11.179619 0.413805
v 6.774132 -6.667614 -0.680157
v 6.759136 -6.692715 -0.457972
v 6.879619 -6.491046 -0.514057
v 6.920620 -6.422416 -0.680157
v 6.633415 -6.448202 -0.680157
v 6.887314 -6.599889 -0.680157
v 6.973004 -6.651083 -0.484954
v 6.676133 -6.473723 -0.499093
v 1.145335 -15.672190 -1.626227
v 1.156745 -15.843724 -1.626227
v 1.159450 -15.884396 -1.520369
v 1.148259 -15.716149 -1.520369
v 1.081952 -15.793964 -1.626273
v 1.238918 -15.783523 -1.626273
v 1.248979 -15.782854 -1.509153
v 1.108629 -15.792190 -1.519708
v 11.513508 9.382692 1.618314
v 11.530691 9.385379 1.743661
v 11.392641 9.363794 1.712021
v 11.345661 9.356448 1.618314
v 11.466670 9.234900 1.618314
v 11.439494 9.408704 1.618314
v 11.430323 9.467361 1.728439
v 11.462098 9.264141 1.720463
v 6.119670 -0.309630 0.831697
v 6.063904 -0.530845 0.831697
v 6.057192 -0.557472 0.933537
v 6.137182 -0.240159 0.930609
v 5.969423 -0.358497 0.831697
v 6.209457 -0.419007 0.831697
v 6.217504 -0.421035 0.917896
v 5.972939 -0.359383 0.930759
v -0.128990 -14.075261 -0.914981
v -0.201582 -13.869542 -0.914981
v -0.212673 -13.838114 -0.814156
v -0.127082 -14.080669 -0.793523
v -0.103310 -13.934367 -0.914996
v -0.294384 -14.001792 -0.914996
v -0.294384 -14.001792 -0.811720
v -0.093919 -13.931053 -0.791975
v -0.698568 -5.245084 1.301839
v -0.850234 -5.433335 1.301839
v -0.873404 -5.462095 1.379445
v -0.694581 -5.240134 1.395326
v -0.846354 -5.302932 1.301827
v -0.671504 -5.443801 1.301827
v -0.671504 -5.443801 1.381320
v -0.854948 -5.296009 1.396518
v 1.697754 7.064878 3.561397
v 1.460692 7.100683 3.561397
v 1.432157 7.104993 3.700399
v 1.772201 7.053635 3.696401
v 1.631342 7.217056 3.561397
v 1.592491 6.959827 3.561397
v 1.591189 6.951203 3.679049
v 1.630773 7.213289 3.696606
v 1.670615 -14.625722 -1.466812
v 1.644984 -14.626617 -1.356944
v 1.850912 -14.619427 -1.384677
v 1.920992 -14.616980 -1.466812
v 1.765323 -14.417629 -1.466812
v 1.774376 -14.676891 -1.466812
v 1.777431 -14.764391 -1.370286
v 1.766846 -14.461248 -1.377277
v 5.910855 -11.124313 -1.508148
v 5.851048 -11.278376 -1.508148
v 5.860059 -11.255161 -1.411281
v 5.936351 -11.058637 -1.441074
v 5.961812 -11.196015 -1.508148
v 5.994067 -11.208537 -1.433302
v 5.831680 -11.145497 -1.409564
v 5.830474 -11.145029 -1.508148
v 6.871410 2.316864 1.222620
v 6.847951 2.305682 1.329489
v 7.036431 2.395521 1.302513
v 7.100573 2.426095 1.222620
v 6.875398 2.548503 1.222620
v 6.988505 2.311209 1.222620
v 7.026678 2.231123 1.316511
v 6.894428 2.508580 1.309710
v -2.108980 -7.760826 1.211310
v -2.145058 -7.811608 1.025104
v -2.261311 -7.975239 1.025104
v -2.305106 -8.036882 1.211310
v -2.292727 -7.861254 1.025033
v -2.138292 -7.970973 1.025033
v -2.075450 -8.015620 1.219415
v -2.307874 -7.850493 1.232163
v 15.159299 10.155206 0.926993
v 15.226604 9.970584 0.926993
v 15.216462 9.998403 1.029853
v 15.130607 10.233910 0.998217
v 15.261066 10.131049 0.926993
v 15.299719 10.145141 1.006470
v 15.105121 10.074198 1.031677
v 15.103675 10.073671 0.926993
v 12.199261 -11.498534 -2.880154
v 11.936903 -11.510966 -2.880154
v 11.896822 -11.512866 -2.799784
v 12.206158 -11.498207 -2.783337
v 12.045697 -11.420111 -2.880166
v 12.057245 -11.663791 -2.880166
v 12.057245 -11.663791 -2.797843
v 12.045130 -11.408134 -2.782104
v 15.520342 6.360741 0.159054
v 15.345609 6.388393 0.159054
v 15.304179 6.394949 0.246762
v 15.475563 6.367827 0.246762
v 15.412592 6.452103 0.159016
v 15.387288 6.292210 0.159016
v 15.385667 6.281962 0.256054
v 15.408291 6.424929 0.247309
v 10.600206 -9.708759 -2.184636
v 10.711749 -9.520067 -2.184636
v 10.725176 -9.497354 -2.053630
v 10.565177 -9.768017 -2.057398
v 10.751951 -9.704582 -2.184636
v 10.547206 -9.583550 -2.184636
v 10.540342 -9.579493 -2.073752
v 10.748953 -9.702810 -2.057204
v 2.085720 -10.198695 -0.479152
v 2.054975 -10.353018 -0.479152
v 2.051275 -10.371593 -0.335167
v 2.095375 -10.150231 -0.339308
v 1.983914 -10.237568 -0.479152
v 2.151365 -10.270928 -0.479152
v 2.156978 -10.272047 -0.357282
v 1.986366 -10.238057 -0.339096
v 6.468641 10.462169 3.127252
v 6.477885 10.447780 3.236889
v 6.403618 10.563390 3.209215
v 6.378344 10.602733 3.127252
v 6.317081 10.445583 3.127252
v 6.462633 10.539084 3.127252
v 6.511756 10.570641 3.223575
v 6.341569 10.461314 3.216599
v 1.387690 4.258231 2.989849
v 1.408483 4.440794 2.989849
v 1.405350 4.413286 3.089303
v 1.378827 4.180406 3.058715
v 1.312640 4.320940 2.989849
v 1.274418 4.325293 3.066694
v 1.466845 4.303378 3.091066
v 1.468275 4.303215 2.989849
v 13.278674 -8.803630 -2.560122
v 13.296786 -8.813162 -2.379509
v 13.151272 -8.736582 -2.425100
v 13.101752 -8.710522 -2.560122
v 13.130643 -8.910285 -2.560122
v 13.227056 -8.727084 -2.560122
v 13.259595 -8.665255 -2.401443
v 13.146864 -8.879462 -2.412936
v 14.063657 14.147026 1.932956
v 14.251063 14.157455 1.932956
v 14.273622 14.158711 2.035824
v 14.004804 14.143750 2.032865
v 14.138865 14.041005 1.932956
v 14.127549 14.244354 1.932956
v 14.127170 14.251171 2.020024
v 14.138700 14.043983 2.033017
v 14.399637 10.031021 1.049549
v 14.290408 10.087264 1.049549
v 14.306867 10.078790 1.239585
v 14.446201 10.007045 1.181137
v 14.342649 9.998946 1.049549
v 14.330874 9.976077 1.196384
v 14.390157 10.091209 1.242954
v 14.390597 10.092064 1.049549
v 14.836035 13.806748 1.728639
v 14.673077 13.746309 1.728639
v 14.697632 13.755416 1.911434
v 14.905503 13.832513 1.855213
v 14.815171 13.716620 1.728639
v 14.827825 13.682503 1.869879
v 14.764120 13.854266 1.914674
v 14.763647 13.855542 1.728639
v 9.588066 0.791138 0.237354
v 9.713803 0.617687 0.237354
v 9.728939 0.596808 0.327555
v 9.548579 0.845609 0.324961
v 9.532739 0.653475 0.237354
v 9.720946 0.789909 0.237354
v 9.727256 0.794483 0.313701
v 9.535496 0.655473 0.325094
v -0.396680 -1.415793 2.143777
v -0.488871 -1.250602 2.143777
v -0.504436 -1.222712 2.231627
v -0.380818 -1.444216 2.248529
v -0.354862 -1.280674 2.143711
v -0.554991 -1.392363 2.143711
v -0.480247 -1.350649 2.267318
v -0.340414 -1.272610 2.229770
v 2.921131 -15.172931 -1.807209
v 2.925704 -15.194285 -1.695847
v 2.888957 -15.022714 -1.723957
v 2.876452 -14.964327 -1.807209
v 2.732544 -15.124573 -1.807209
v 2.948551 -15.078308 -1.807209
v 3.021453 -15.062695 -1.709371
v 2.768886 -15.116789 -1.716457
v 15.380549 -0.119235 -1.121986
v 15.160403 -0.033128 -1.121986
v 15.123236 -0.018591 -1.046117
v 15.418427 -0.134050 -1.031520
v 15.313553 0.044317 -1.122043
v 15.209235 -0.222391 -1.122043
v 15.248196 -0.122781 -1.015293
v 15.321084 0.063572 -1.047721
v 13.849450 -9.241568 -2.786991
v 13.893505 -9.007200 -2.786991
v 13.886867 -9.042515 -2.696403
v 13.830669 -9.341476 -2.724264
v 13.758187 -9.153348 -2.786991
v 13.709120 -9.144124 -2.716996
v 13.956151 -9.190559 -2.694797
v 13.957986 -9.190905 -2.786991
v 4.157409 -13.145428 -1.600599
v 4.323583 -12.966182 -1.600599
v 4.343585 -12.944606 -1.397693
v 4.105224 -13.201718 -1.403529
v 4.323758 -13.176761 -1.600599
v 4.129263 -12.996450 -1.600599
v 4.122743 -12.990405 -1.428858
v 4.320910 -13.174120 -1.403229
v 3.027428 0.233642 1.722702
v 3.054276 0.220358 1.903637
v 2.838569 0.327089 1.857965
v 2.765162 0.363411 1.722702
v 2.814732 0.072181 1.722702
v 2.949106 0.343754 1.722702
v 2.994457 0.435410 1.881665
v 2.837340 0.117872 1.870151
v 6.889300 -7.236564 -0.742333
v 6.940835 -7.205768 -0.851881
v 7.106891 -7.106536 -0.851881
v 7.169448 -7.069153 -0.742333
v 7.090369 -7.219281 -0.851922
v 6.996714 -7.062557 -0.851922
v 6.958604 -6.998784 -0.737565
v 7.099554 -7.234652 -0.730065
v -0.117275 -1.185786 2.127809
v -0.326819 -1.075216 2.127809
v -0.352042 -1.061906 2.289261
v -0.051469 -1.220509 2.284617
v -0.129710 -1.022175 2.127809
v -0.249687 -1.249546 2.127809
v -0.253709 -1.257168 2.264463
v -0.131467 -1.025505 2.284855
v -2.087951 -13.284105 -0.364278
v -1.969843 -13.213696 -0.364278
v -1.949903 -13.201809 -0.287141
v -2.108274 -13.296220 -0.272301
v -1.988912 -13.311686 -0.364335
v -2.074213 -13.168597 -0.364335
v -2.042354 -13.222037 -0.255803
v -1.982754 -13.322016 -0.288772
v 2.753160 2.031655 2.131011
v 2.990486 2.031094 2.131011
v 3.019053 2.031027 2.245332
v 2.678630 2.031831 2.242044
v 2.840331 1.892317 2.131011
v 2.840940 2.149832 2.131011
v 2.840960 2.158465 2.227773
v 2.840340 1.896088 2.242213
v 15.984905 -11.428200 -3.354950
v 15.927702 -11.413602 -3.434627
v 15.743380 -11.366564 -3.434627
v 15.673942 -11.348844 -3.354950
v 15.833472 -11.299934 -3.434657
v 15.789078 -11.473898 -3.434657
v 15.771013 -11.544686 -3.351482
v 15.837827 -11.282873 -3.346028
v 14.461263 -15.591282 -4.088104
v 14.519673 -15.568457 -4.168980
v 14.707883 -15.494908 -4.168980
v 14.778787 -15.467201 -4.088104
v 14.671390 -15.608205 -4.169011
v 14.601974 -15.430572 -4.169011
v 14.573729 -15.358290 -4.084584
v 14.678197 -15.625627 -4.079047
v 9.997646 -7.126721 -1.427839
v 9.974286 -7.197207 -1.535945
v 9.899014 -7.424329 -1.535945
v 9.870657 -7.509892 -1.427839
v 9.823358 -7.305414 -1.535986
v 10.037716 -7.376456 -1.535986
v 10.124942 -7.405365 -1.423133
v 9.802335 -7.298447 -1.415732
v 3.014589 7.800242 3.400768
v 2.784295 7.833945 3.400768
v 2.756574 7.838001 3.499341
v 3.086911 7.789658 3.496506
v 2.949440 7.947677 3.400768
v 2.912870 7.697791 3.400768
v 2.911644 7.689414 3.484201
v 2.948904 7.944017 3.496652
v -2.060884 -11.427026 0.146371
v -2.005523 -11.454329 0.046797
v -1.827139 -11.542309 0.046797
v -1.759938 -11.575453 0.146371
v -1.933711 -11.590986 0.046759
v -1.850675 -11.422626 0.046759
v -1.816887 -11.354118 0.150705
v -1.941854 -11.607498 0.157523
v 15.560298 4.337504 -0.272389
v 15.483659 4.201067 -0.272389
v 15.474434 4.184644 -0.105610
v 15.584366 4.380351 -0.110406
v 15.452056 4.332130 -0.272389
v 15.600100 4.248971 -0.272389
v 15.605062 4.246183 -0.131225
v 15.454224 4.330913 -0.110160
v 14.870311 -2.828141 -1.630155
v 14.971572 -2.684445 -1.630155
v 14.956314 -2.706097 -1.535979
v 14.827144 -2.889398 -1.564944
v 14.836102 -2.741051 -1.630155
v 14.806017 -2.719850 -1.557388
v 14.957478 -2.826584 -1.534310
v 14.958603 -2.827376 -1.630155
v 9.365876 10.205760 2.404100
v 9.341800 10.166770 2.309803
v 9.264221 10.041134 2.309803
v 9.234995 9.993803 2.404100
v 9.235751 10.123320 2.309768
v 9.354326 10.050100 2.309768
v 9.402577 10.020307 2.408204
v 9.224121 10.130501 2.414660
v 13.165720 -10.249649 -2.662878
v 13.136015 -10.188226 -2.799308
v 13.040298 -9.990305 -2.799308
v 13.004238 -9.915743 -2.662878
v 13.166280 -10.020294 -2.799360
v 12.979482 -10.110632 -2.799360
v 12.903471 -10.147392 -2.656940
v 13.184601 -10.011434 -2.647599
v 1.764729 7.276761 3.539456
v 1.907340 7.182681 3.539456
v 1.931417 7.166797 3.631350
v 1.740191 7.292948 3.649029
v 1.787405 7.151051 3.539387
v 1.901383 7.323823 3.539387
v 1.858814 7.259296 3.668684
v 1.779176 7.138577 3.629408
v 4.885593 2.003111 1.836943
v 4.818935 1.994025 1.684269
v 4.604149 1.964748 1.684269
v 4.523234 1.953718 1.836943
v 4.670746 2.073694 1.684211
v 4.698378 1.870979 1.684211
v 4.709622 1.788491 1.843588
v 4.668036 2.093576 1.854040
v 6.900546 -15.345033 -2.661253
v 6.918598 -15.328259 -2.520464
v 6.773566 -15.463024 -2.556002
v 6.724210 -15.508886 -2.661253
v 6.962670 -15.555737 -2.661253
v 6.793002 -15.373144 -2.661253
v 6.735739 -15.311520 -2.537561
v 6.934124 -15.525017 -2.546520
v 5.181427 3.415920 1.950718
v 5.221755 3.426101 1.859451
v 5.351701 3.458906 1.859451
v 5.400654 3.471265 1.950718
v 5.318299 3.387375 1.859416
v 5.287337 3.510018 1.859416
v 5.274739 3.559924 1.954691
v 5.321335 3.375346 1.960939
v 11.701238 1.929292 -0.012343
v 11.769531 1.804819 -0.012343
v 11.759241 1.823575 0.115637
v 11.672125 1.982354 0.076275
v 11.776561 1.923191 -0.012343
v 11.802621 1.937489 0.086543
v 11.671423 1.865505 0.117906
v 11.670448 1.864970 -0.012343
v 6.044634 -3.357462 0.186218
v 5.958508 -3.556546 0.186218
v 5.948142 -3.580510 0.273243
v 6.071681 -3.294942 0.270740
v 5.896168 -3.380372 0.186218
v 6.112188 -3.473824 0.186218
v 6.119430 -3.476957 0.259877
v 5.899332 -3.381740 0.270869
v 3.559193 6.395714 2.916841
v 3.747538 6.443950 2.916841
v 3.770209 6.449756 3.038573
v 3.500044 6.380566 3.035072
v 3.656912 6.303081 2.916841
v 3.604572 6.507449 2.916841
v 3.602818 6.514300 3.019876
v 3.656145 6.306074 3.035252
v 4.269384 -0.657659 1.347192
v 4.228045 -0.677759 1.217142
v 4.094843 -0.742526 1.217142
v 4.044662 -0.766925 1.347192
v 4.114867 -0.657609 1.217093
v 4.175994 -0.783326 1.217093
v 4.200867 -0.834482 1.352853
v 4.108872 -0.645279 1.361757
v 2.471547 -3.784137 1.128384
v 2.443359 -3.742059 0.967300
v 2.352528 -3.606477 0.967300
v 2.318310 -3.555399 1.128384
v 2.448235 -3.615489 0.967239
v 2.320272 -3.701215 0.967239
v 2.268202 -3.736098 1.135395
v 2.460785 -3.607081 1.146424
v 9.984239 -4.206937 -0.875157
v 10.039073 -3.989644 -0.875157
v 10.045673 -3.963488 -0.771204
v 9.967019 -4.275177 -0.774193
v 10.131844 -4.158970 -0.875157
v 9.896064 -4.099471 -0.875157
v 9.888160 -4.097476 -0.787170
v 10.128390 -4.158098 -0.774040
v 0.610380 -2.009482 1.743054
v 0.492040 -2.154249 1.743054
v 0.509871 -2.132435 1.860264
v 0.660828 -1.947768 1.824214
v 0.640064 -2.104476 1.743054
v 0.670372 -2.129252 1.833618
v 0.517783 -2.004518 1.862342
v 0.516649 -2.003591 1.743054
v 11.016855 -12.621704 -2.894598
v 11.084735 -12.471394 -2.894598
v 11.074507 -12.494042 -2.740774
v 10.987919 -12.685781 -2.788085
v 10.969930 -12.547513 -2.894598
v 10.938460 -12.533301 -2.775743
v 11.096893 -12.604850 -2.738047
v 11.098070 -12.605381 -2.894598
v 11.677502 6.132417 0.944497
v 11.724858 6.151054 0.859805
v 11.877450 6.211109 0.859805
v 11.934936 6.233732 0.944497
v 11.848057 6.119094 0.859773
v 11.791377 6.263112 0.859773
v 11.768313 6.321714 0.948184
v 11.853616 6.104970 0.953982
v 14.211163 9.605135 0.999746
v 14.203557 9.583620 1.123771
v 14.264659 9.756477 1.092465
v 14.285453 9.815303 0.999746
v 14.069693 9.751317 0.999746
v 14.287319 9.674391 0.999746
v 14.360768 9.648428 1.108710
v 14.106307 9.738374 1.100818
v 2.016601 -11.255803 -0.558381
v 1.994438 -11.212660 -0.661713
v 1.923023 -11.073643 -0.661713
v 1.896119 -11.021272 -0.558381
v 2.013069 -11.092796 -0.661752
v 1.881865 -11.160198 -0.661752
v 1.828476 -11.187625 -0.553884
v 2.025937 -11.086186 -0.546809
v 2.372550 7.174458 3.369476
v 2.360950 7.190804 3.493591
v 2.454144 7.059475 3.462262
v 2.485858 7.014783 3.369476
v 2.549083 7.202068 3.369476
v 2.383742 7.084739 3.369476
v 2.327939 7.045140 3.478519
v 2.521265 7.182328 3.470621
v 1.868839 -7.528380 0.223935
v 1.674266 -7.617903 0.223935
v 1.650845 -7.628679 0.335589
v 1.929943 -7.500266 0.332378
v 1.744619 -7.447318 0.223935
v 1.841759 -7.658444 0.223935
v 1.845015 -7.665522 0.318440
v 1.746042 -7.450410 0.332542
v 6.686222 10.436567 3.034933
v 6.803444 10.445078 3.034933
v 6.817554 10.446102 3.174942
v 6.649410 10.433894 3.170915
v 6.734430 10.370984 3.034933
v 6.725195 10.498178 3.034933
v 6.724885 10.502442 3.153438
v 6.734295 10.372847 3.171122
v -3.724292 -15.231985 -0.507158
v -3.698885 -15.042368 -0.507158
v -3.694595 -15.010354 -0.409474
v -3.728664 -15.264610 -0.390680
v -3.608579 -15.147896 -0.507231
v -3.838301 -15.117115 -0.507231
v -3.752504 -15.128611 -0.369787
v -3.591994 -15.150118 -0.411539
v -2.898295 -10.914206 0.429504
v -3.047216 -10.819538 0.429504
v -3.065142 -10.808144 0.663809
v -2.851527 -10.943935 0.657071
v -2.897702 -10.791998 0.429504
v -3.000423 -10.953588 0.429504
v -3.003866 -10.959005 0.627822
v -2.899206 -10.794365 0.657417
v 15.628057 8.623096 0.585897
v 15.606885 8.613687 0.862700
v 15.776983 8.689282 0.792829
v 15.834869 8.715008 0.585897
v 15.637100 8.829432 0.585897
v 15.732274 8.615281 0.585897
v 15.764396 8.543005 0.829085
v 15.653113 8.793403 0.811471
v 0.804516 -12.320935 -0.703273
v 0.797947 -12.336195 -0.484110
v 0.850722 -12.213590 -0.539431
v 0.868683 -12.171865 -0.703273
v 0.708841 -12.207877 -0.703273
v 0.863200 -12.274321 -0.703273
v 0.915296 -12.296745 -0.510724
v 0.734811 -12.219056 -0.524671
v 7.985326 -14.186856 -2.635002
v 8.026586 -14.342974 -2.635002
v 8.031551 -14.361766 -2.495257
v 7.972369 -14.137829 -2.499276
v 7.909015 -14.268603 -2.635002
v 8.078413 -14.223834 -2.635002
v 8.084092 -14.222333 -2.516720
v 7.911496 -14.267948 -2.499069
v 0.923795 -13.197676 -0.950701
v 0.906312 -13.212028 -0.734374
v 1.046777 -13.096724 -0.788980
v 1.094578 -13.057484 -0.950701
v 0.878742 -13.001133 -0.950701
v 1.023909 -13.177977 -0.950701
v 1.072902 -13.237660 -0.760645
v 0.903166 -13.030886 -0.774411
v 9.100383 -9.149196 -1.650828
v 9.130191 -9.112580 -1.739612
v 9.226238 -8.994597 -1.739612
v 9.262422 -8.950150 -1.650828
v 9.244339 -9.082365 -1.739646
v 9.132986 -8.991715 -1.739646
v 9.087675 -8.954828 -1.646964
v 9.255260 -9.091256 -1.640885
v 3.382496 6.177703 2.915214
v 3.392540 6.199438 3.017725
v 3.311844 6.024818 2.991849
v 3.284382 5.965394 2.915214
v 3.516024 6.011189 2.915214
v 3.296180 6.112784 2.915214
v 3.221983 6.147072 3.005277
v 3.479036 6.028281 2.998753
v 4.381042 -4.310611 0.382618
v 4.327562 -4.169330 0.382618
v 4.335620 -4.190619 0.494759
v 4.403841 -4.370838 0.460269
v 4.302587 -4.293003 0.382618
v 4.273008 -4.304200 0.469266
v 4.421923 -4.247830 0.496748
v 4.423029 -4.247411 0.382618
v 3.732414 -11.299723 -0.917308
v 3.724963 -11.249622 -1.041256
v 3.700954 -11.088190 -1.041256
v 3.691909 -11.027374 -0.917308
v 3.783584 -11.137329 -1.041303
v 3.631224 -11.159988 -1.041303
v 3.569226 -11.169209 -0.911913
v 3.798527 -11.135106 -0.903427
v 10.887362 15.781065 3.103950
v 10.896588 15.797247 3.247400
v 10.822456 15.667241 3.211190
v 10.797229 15.622999 3.103950
v 10.979823 15.643135 3.103950
v 10.816148 15.736466 3.103950
v 10.760908 15.767966 3.229980
v 10.952286 15.658838 3.220851
v 13.189993 15.399965 2.408853
v 13.168114 15.394915 2.559871
v 13.343899 15.435495 2.521751
v 13.403720 15.449306 2.408853
v 13.236627 15.594633 2.408853
v 13.287718 15.373322 2.408853
v 13.304961 15.298630 2.541531
v 13.245222 15.557399 2.531921
v 11.508749 -12.233020 -2.936790
v 11.562009 -12.399003 -2.936790
v 11.568419 -12.418983 -2.813988
v 11.492023 -12.180895 -2.817520
v 11.431078 -12.325439 -2.936790
v 11.611181 -12.267649 -2.936790
v 11.617219 -12.265712 -2.832850
v 11.433716 -12.324594 -2.817339
v 15.545383 8.272491 0.585010
v 15.575822 8.237359 0.494267
v 15.673902 8.124153 0.494267
v 15.710851 8.081506 0.585010
v 15.585711 8.121526 0.494233
v 15.692555 8.214094 0.494233
v 15.736032 8.251761 0.588960
v 15.575233 8.112447 0.595172
v -2.987537 -11.922186 0.156208
v -2.788265 -11.881073 0.156208
v -2.771797 -11.877675 0.233733
v -3.008903 -11.926594 0.278972
v -2.879146 -11.989774 0.156258
v -2.918239 -11.800294 0.156258
v -2.908025 -11.849799 0.243721
v -2.873047 -12.019338 0.256178
v 11.729834 -11.238672 -2.775285
v 11.934057 -11.206397 -2.775285
v 11.968536 -11.200948 -2.698040
v 11.694695 -11.244226 -2.683179
v 11.852672 -11.332526 -2.775343
v 11.813569 -11.085109 -2.775343
v 11.828174 -11.177515 -2.666658
v 11.855494 -11.350389 -2.699673
v 7.301517 -4.291687 -0.279346
v 7.292523 -4.318847 -0.082074
v 7.364785 -4.100634 -0.131870
v 7.389377 -4.026373 -0.279346
v 7.120519 -4.111988 -0.279346
v 7.395247 -4.202965 -0.279346
v 7.487967 -4.233670 -0.106030
v 7.166740 -4.127295 -0.118584
v 13.618413 -0.057257 -0.831100
v 13.662783 0.230657 -0.831100
v 13.673304 0.298923 -0.674433
v 13.629784 0.016527 -0.674433
v 13.768140 0.120782 -0.831169
v 13.504678 0.161384 -0.831169
v 13.487792 0.163986 -0.657834
v 13.723364 0.127683 -0.673455
v 11.196280 15.635965 2.977737
v 11.399002 15.585239 2.977737
v 11.368456 15.592883 3.130815
v 11.109860 15.657589 3.083734
v 11.278196 15.711209 2.977737
v 11.288816 15.753652 3.096015
v 11.235351 15.539975 3.133528
v 11.234953 15.538388 2.977737
v 0.200806 -14.481430 -1.118977
v 0.181117 -14.496523 -0.940040
v 0.339304 -14.375267 -0.985208
v 0.393136 -14.334003 -1.118977
v 0.158608 -14.264341 -1.118977
v 0.311267 -14.463497 -1.118977
v 0.362789 -14.530711 -0.961770
v 0.184292 -14.297849 -0.973157
v 12.855893 -0.301257 -0.710439
v 12.632104 -0.220546 -0.710439
v 12.605166 -0.210831 -0.607684
v 12.926172 -0.326603 -0.610640
v 12.820701 -0.140304 -0.710439
v 12.733124 -0.383131 -0.710439
v 12.730187 -0.391272 -0.623467
v 12.819418 -0.143860 -0.610488
v 0.119725 -0.117246 2.263757
v 0.242243 -0.288344 2.263757
v 0.256991 -0.308939 2.351123
v 0.081249 -0.063515 2.348611
v 0.064590 -0.252154 2.263757
v 0.250244 -0.119213 2.263757
v 0.256468 -0.114757 2.337704
v 0.067309 -0.250207 2.348739
v 10.572174 -9.140271 -2.058598
v 10.591600 -9.125533 -1.943021
v 10.435523 -9.243946 -1.972195
v 10.382408 -9.284244 -2.058598
v 10.612593 -9.353860 -2.058598
v 10.463511 -9.157360 -2.058598
v 10.413197 -9.091042 -1.957056
v 10.587511 -9.320800 -1.964411
v 3.647358 -10.862965 -0.963446
v 3.812307 -10.751144 -0.963446
v 3.787453 -10.767993 -0.855179
v 3.577042 -10.910633 -0.888478
v 3.645968 -10.756904 -0.963446
v 3.622557 -10.722370 -0.879791
v 3.740420 -10.896232 -0.853259
v 3.741296 -10.897523 -0.963446
v 13.755458 0.473031 -0.802412
v 13.890394 0.391359 -0.802412
v 13.870062 0.403666 -0.463385
v 13.697936 0.507848 -0.567656
v 13.831276 0.509084 -0.802412
v 13.848375 0.537335 -0.540456
v 13.762290 0.395108 -0.457374
v 13.761651 0.394051 -0.802412
v 12.903249 -3.475925 -1.391963
v 12.754431 -3.506294 -1.391963
v 12.736518 -3.509950 -1.305702
v 12.949984 -3.466387 -1.308183
v 12.830577 -3.399878 -1.391963
v 12.863530 -3.561356 -1.391963
v 12.864635 -3.566769 -1.318951
v 12.831059 -3.402242 -1.308055
v 4.968186 -9.961297 -1.030205
v 4.818835 -10.061264 -1.030205
v 4.800857 -10.073298 -0.936826
v 5.015090 -9.929903 -0.939512
v 4.854517 -9.910597 -1.030205
v 4.962988 -10.072654 -1.030205
v 4.966625 -10.078087 -0.951168
v 4.856105 -9.912971 -0.939374
v 1.261629 -1.453017 1.732684
v 1.101779 -1.518499 1.732684
v 1.077358 -1.528502 1.821112
v 1.265831 -1.451296 1.839208
v 1.149192 -1.438235 1.732670
v 1.210012 -1.586705 1.732670
v 1.210012 -1.586705 1.823248
v 1.146203 -1.430938 1.840565
v 6.498522 -10.762529 -1.515989
v 6.372438 -10.548245 -1.515989
v 6.357261 -10.522451 -1.356892
v 6.538117 -10.829823 -1.361467
v 6.577660 -10.609609 -1.515989
v 6.345145 -10.746419 -1.515989
v 6.337350 -10.751005 -1.381328
v 6.574254 -10.611612 -1.361233
v 12.719110 7.121771 0.944358
v 12.739887 7.175959 0.851166
v 12.806839 7.350563 0.851166
v 12.832061 7.416341 0.944358
v 12.861619 7.254998 0.851131
v 12.696826 7.318187 0.851131
v 12.629770 7.343899 0.948415
v 12.877781 7.248801 0.954795
v 9.905458 -12.798375 -2.697797
v 9.897927 -12.817185 -2.509133
v 9.958428 -12.666063 -2.556756
v 9.979017 -12.614635 -2.697797
v 9.785281 -12.663541 -2.697797
v 9.975541 -12.739711 -2.697797
v 10.039754 -12.765418 -2.532044
v 9.817291 -12.676356 -2.544050
v 11.264433 13.420624 2.516104
v 11.150802 13.318667 2.516104
v 11.137124 13.306395 2.669112
v 11.300117 13.452642 2.664711
v 11.162766 13.449650 2.516104
v 11.273396 13.326352 2.516104
v 11.277105 13.322218 2.645611
v 11.164387 13.447844 2.664937
vn 0.4775 -0.8787 -0.0000
vn 0.8787 0.4775 -0.0000
vn 0.9982 -0.0602 -0.0000
vn 0.0602 0.9982 -0.0000
vn 0.3256 -0.9455 -0.0000
vn 0.9455 0.3256 -0.0000
vn -0.5255 0.8508 -0.0000
vn -0.8508 -0.5255 -0.0000
vn 0.5813 -0.8137 -0.0000
vn 0.8137 0.5813 -0.0000
vn 0.2427 -0.9701 -0.0000
vn 0.9701 0.2427 -0.0000
vn 0.8822 -0.4709 -0.0000
vn 0.4709 0.8822 -0.0000
vn 0.9631 -0.2692 -0.0000
vn 0.2692 0.9631 -0.0000
vn 0.5976 -0.8018 -0.0000
vn 0.8018 0.5976 -0.0000
vn -0.1030 0.9947 -0.0000
vn -0.9947 -0.1030 -0.0000
vn -0.3611 0.9325 -0.0000
vn -0.9325 -0.3611 -0.0000
vn 0.3481 -0.9375 -0.0000
vn 0.9375 0.3481 -0.0000
vn 0.9461 0.3240 -0.0000
vn -0.3240 0.9461 -0.0000
vn 0.6772 0.7358 -0.0000
vn -0.7358 0.6772 -0.0000
vn 0.9861 0.1663 -0.0000
vn -0.1663 0.9861 -0.0000
vn -0.9969 0.0781 -0.0000
vn -0.0781 -0.9969 -0.0000
vn -0.4049 0.9144 -0.0000
vn -0.9144 -0.4049 -0.0000
vn -0.9999 -0.0110 -0.0000
vn 0.0110 -0.9999 -0.0000
vn 0.9014 -0.4330 -0.0000
vn 0.4330 0.9014 -0.0000
vn 0.6392 0.7690 -0.0000
vn -0.7690 0.6392 -0.0000
vn 1.0000 -0.0000 -0.0000
vn -0.0000 1.0000 -0.0000
vn 0.2017 0.9794 -0.0000
vn -0.9794 0.2017 -0.0000
vn 0.7534 0.6575 -0.0000
vn -0.6575 0.7534 -0.0000
vn 0.2133 0.9770 -0.0000
vn -0.9770 0.2133 -0.0000
vn -0.9441 0.3298 -0.0000
vn -0.3298 -0.9441 -0.0000
vn -0.0015 1.0000 -0.0000
vn -1.0000 -0.0015 -0.0000
vn 0.4860 0.8740 -0.0000
vn -0.8740 0.4860 -0.0000
vn -0.9759 0.2184 -0.0000
vn -0.2184 -0.9759 -0.0000
vn -0.8064 -0.5913 -0.0000
vn 0.5914 -0.8064 -0.0000
vn -0.6960 -0.7180 -0.0000
vn 0.7180 -0.6960 -0.0000
vn -0.0810 -0.9967 -0.0000
vn 0.9967 -0.0810 -0.0000
vn 0.7039 0.7103 -0.0000
vn -0.7103 0.7039 -0.0000
vn -0.9909 -0.1343 -0.0000
vn 0.1343 -0.9909 -0.0000
vn -0.5393 -0.8421 -0.0000
vn 0.8421 -0.5393 -0.0000
vn 0.6554 -0.7553 -0.0000
vn 0.7553 0.6554 -0.0000
vn 0.9998 -0.0184 -0.0000
vn 0.0184 0.9998 -0.0000
vn 0.7102 0.7040 -0.0000
vn -0.7040 0.7102 -0.0000
vn -0.9244 0.3815 -0.0000
vn -0.3815 -0.9244 -0.0000
vn -0.1755 -0.9845 -0.0000
vn 0.9845 -0.1755 -0.0000
vn -0.9980 0.0637 -0.0000
vn -0.0637 -0.9980 -0.0000
vn 0.5545 -0.8322 -0.0000
vn 0.8322 0.5545 -0.0000
vn 0.4449 0.8956 -0.0000
vn -0.8956 0.4449 -0.0000
vn 0.5633 -0.8263 -0.0000
vn 0.8263 0.5633 -0.0000
vn -0.6801 0.7331 -0.0000
vn -0.7331 -0.6801 -0.0000
vn -0.7468 0.6651 -0.0000
vn -0.6651 -0.7468 -0.0000
vn 0.3730 0.9278 -0.0000
vn -0.9278 0.3730 -0.0000
vn -0.9570 0.2902 -0.0000
vn -0.2902 -0.9570 -0.0000
vn -0.7803 0.6255 -0.0000
vn -0.6255 -0.7803 -0.0000
vn -0.3147 -0.9492 -0.0000
vn 0.9492 -0.3147 -0.0000
vn 0.2387 0.9711 -0.0000
vn -0.9711 0.2387 -0.0000
vn 0.9056 0.4242 -0.0000
vn -0.4242 0.9056 -0.0000
vn -0.9632 -0.2688 -0.0000
vn 0.2688 -0.9632 -0.0000
vn -0.8641 -0.5034 -0.0000
vn 0.5034 -0.8641 -0.0000
vn 0.7102 -0.7040 -0.0000
vn 0.7938 0.6082 -0.0000
vn -0.6082 0.7938 -0.0000
vn 0.9900 0.1413 -0.0000
vn -0.1413 0.9900 -0.0000
vn 0.2040 -0.9790 -0.0000
vn 0.9790 0.2040 -0.0000
vn 1.0000 -0.0040 -0.0000
vn 0.0040 1.0000 -0.0000
vn 0.5681 0.8229 -0.0000
vn -0.8229 0.5681 -0.0000
vn -0.8434 -0.5373 -0.0000
vn 0.5373 -0.8434 -0.0000
vn -0.8780 0.4787 -0.0000
vn -0.4787 -0.8780 -0.0000
vn 0.5851 0.8110 -0.0000
vn -0.8110 0.5851 -0.0000
vn 0.6456 -0.7637 -0.0000
vn 0.7637 0.6456 -0.0000
vn -0.7514 0.6599 -0.0000
vn -0.6599 -0.7514 -0.0000
vn 0.7252 -0.6885 -0.0000
vn 0.6886 0.7252 -0.0000
vn -0.9719 -0.2353 -0.0000
vn 0.2353 -0.9719 -0.0000
vn -0.7051 -0.7091 -0.0000
vn 0.7091 -0.7051 -0.0000
vn 0.8043 0.5942 -0.0000
vn -0.5942 0.8043 -0.0000
vn 0.9966 0.0822 -0.0000
vn -0.0822 0.9966 -0.0000
vn 0.9052 -0.4251 -0.0000
vn 0.4251 0.9052 -0.0000
vn -0.0784 0.9969 -0.0000
vn -0.9969 -0.0784 -0.0000
vn 0.9440 -0.3298 -0.0000
vn 0.3298 0.9440 -0.0000
vn 0.9995 0.0310 -0.0000
vn -0.0310 0.9995 -0.0000
vn -0.8960 0.4440 -0.0000
vn -0.4440 -0.8960 -0.0000
vn 0.6463 -0.7631 -0.0000
vn 0.7631 0.6463 -0.0000
vn -0.2789 -0.9603 -0.0000
vn 0.9603 -0.2789 -0.0000
vn -0.6554 -0.7553 -0.0000
vn 0.7553 -0.6554 -0.0000
vn 0.1492 -0.9888 -0.0000
vn 0.9888 0.1492 -0.0000
vn -0.5844 -0.8115 -0.0000
vn 0.8115 -0.5844 -0.0000
vn -0.1647 0.9864 -0.0000
vn -0.9864 -0.1647 -0.0000
vn -0.9553 0.2957 -0.0000
vn -0.2957 -0.9553 -0.0000
vn -0.5350 0.8449 -0.0000
vn -0.8449 -0.5350 -0.0000
vn 0.0519 -0.9987 -0.0000
vn 0.9987 0.0519 -0.0000
vn 0.8644 -0.5027 -0.0000
vn 0.5027 0.8644 -0.0000
vn -0.6672 -0.7449 -0.0000
vn 0.7449 -0.6672 -0.0000
vn 0.1447 0.9895 -0.0000
vn -0.9895 0.1447 -0.0000
vn -0.5485 0.8361 -0.0000
vn -0.8361 -0.5485 -0.0000
vn 0.6494 -0.7604 -0.0000
vn 0.7604 0.6494 -0.0000
vn -0.2764 -0.9611 -0.0000
vn 0.9611 -0.2764 -0.0000
vn -0.5478 0.8366 -0.0000
vn -0.8366 -0.5478 -0.0000
vn -0.9743 -0.2252 -0.0000
vn 0.2252 -0.9743 -0.0000
vn 0.1657 -0.9862 -0.0000
vn 0.9862 0.1657 -0.0000
vn -0.2678 -0.9635 -0.0000
vn 0.9635 -0.2678 -0.0000
vn 0.9343 0.3565 -0.0000
vn -0.3565 0.9343 -0.0000
vn 0.8373 -0.5467 -0.0000
vn 0.5467 0.8373 -0.0000
vn 0.0417 -0.9991 -0.0000
vn 0.9991 0.0417 -0.0000
vn -0.9278 -0.3731 -0.0000
vn 0.3731 -0.9278 -0.0000
vn -0.2524 -0.9676 -0.0000
vn 0.9676 -0.2524 -0.0000
vn 0.1590 -0.9873 -0.0000
vn 0.9873 0.1590 -0.0000
vn 0.9998 -0.0183 -0.0000
vn 0.0183 0.9998 -0.0000
vn 0.9972 -0.0747 -0.0000
vn 0.0747 0.9972 -0.0000
vn -0.9784 0.2066 -0.0000
vn -0.2066 -0.9784 -0.0000
vn -0.5510 -0.8345 -0.0000
vn 0.8345 -0.5510 -0.0000
vn 0.0186 0.9998 -0.0000
vn -0.9998 0.0186 -0.0000
vn -0.9791 -0.2033 -0.0000
vn 0.2033 -0.9791 -0.0000
vn -0.8585 0.5129 -0.0000
vn -0.5129 -0.8585 -0.0000
vn -0.9978 -0.0664 -0.0000
vn 0.0664 -0.9978 -0.0000
vn 0.1545 -0.9880 -0.0000
vn 0.9880 0.1545 -0.0000
vn -0.9697 0.2444 -0.0000
vn -0.2444 -0.9697 -0.0000
vn 0.9430 0.3328 -0.0000
vn -0.3328 0.9430 -0.0000
vn -0.7787 0.6274 -0.0000
vn -0.6274 -0.7787 -0.0000
vn 0.1493 0.9888 -0.0000
vn -0.9888 0.1493 -0.0000
vn -0.0349 0.9994 -0.0000
vn -0.9994 -0.0349 -0.0000
vn -0.9322 0.3619 -0.0000
vn -0.3619 -0.9322 -0.0000
vn -0.4303 0.9027 -0.0000
vn -0.9027 -0.4303 -0.0000
vn -0.8152 0.5792 -0.0000
vn -0.5792 -0.8152 -0.0000
vn -0.9395 -0.3425 -0.0000
vn 0.3425 -0.9395 -0.0000
vn -0.0473 0.9989 -0.0000
vn -0.9989 -0.0473 -0.0000
vn 0.1563 0.9877 -0.0000
vn -0.9877 0.1563 -0.0000
vn 0.8608 -0.5089 -0.0000
vn 0.5089 0.8608 -0.0000
vn -0.9807 0.1954 -0.0000
vn -0.1954 -0.9807 -0.0000
vn -0.8414 -0.5405 -0.0000
vn 0.5405 -0.8414 -0.0000
vn 0.9936 -0.1132 -0.0000
vn 0.1132 0.9936 -0.0000
vn -0.4657 -0.8849 -0.0000
vn 0.8849 -0.4657 -0.0000
vn 0.0556 -0.9985 -0.0000
vn 0.9985 0.0556 -0.0000
vn 0.4578 0.8891 -0.0000
vn -0.8891 0.4578 -0.0000
vn -0.3477 0.9376 -0.0000
vn -0.9376 -0.3478 -0.0000
vn -0.8096 -0.5869 -0.0000
vn 0.5869 -0.8096 -0.0000
vn 0.8732 0.4873 -0.0000
vn -0.4873 0.8732 -0.0000
vn -0.9778 -0.2094 -0.0000
vn 0.2094 -0.9778 -0.0000
vn 0.3643 0.9313 -0.0000
vn -0.9313 0.3643 -0.0000
vn 0.9828 -0.1847 -0.0000
vn 0.1847 0.9828 -0.0000
vn 0.7333 -0.6799 -0.0000
vn 0.6799 0.7333 -0.0000
vn -0.4435 -0.8963 -0.0000
vn 0.8963 -0.4435 -0.0000
vn 0.5130 -0.8584 -0.0000
vn 0.8584 0.5130 -0.0000
vn 0.4667 0.8844 -0.0000
vn -0.8844 0.4667 -0.0000
vn 0.5121 -0.8590 -0.0000
vn 0.8590 0.5120 -0.0000
vn -0.0024 -1.0000 -0.0000
vn 1.0000 -0.0024 -0.0000
vn 0.2473 0.9689 -0.0000
vn -0.9689 0.2473 -0.0000
vn 0.3640 -0.9314 -0.0000
vn 0.9314 0.3640 -0.0000
vn -0.9492 0.3146 -0.0000
vn -0.3146 -0.9492 -0.0000
vn 0.1448 0.9895 -0.0000
vn -0.9895 0.1448 -0.0000
vn -0.4423 -0.8969 -0.0000
vn 0.8969 -0.4423 -0.0000
vn -0.8719 0.4897 -0.0000
vn -0.4897 -0.8719 -0.0000
vn 0.8174 -0.5760 -0.0000
vn 0.5760 0.8174 -0.0000
vn -0.8509 0.5254 -0.0000
vn -0.5254 -0.8509 -0.0000
vn 0.9003 0.4354 -0.0000
vn -0.4354 0.9003 -0.0000
vn -0.5507 -0.8347 -0.0000
vn 0.8347 -0.5507 -0.0000
vn -0.1351 0.9908 -0.0000
vn -0.9908 -0.1351 -0.0000
vn 0.6807 -0.7326 -0.0000
vn 0.7326 0.6807 -0.0000
vn 0.2448 -0.9696 -0.0000
vn 0.9696 0.2448 -0.0000
vn -0.8767 -0.4810 -0.0000
vn 0.4810 -0.8767 -0.0000
vn -0.9178 0.3970 -0.0000
vn -0.3970 -0.9178 -0.0000
vn 0.2481 -0.9687 -0.0000
vn 0.9687 0.2481 -0.0000
vn -0.4373 0.8993 -0.0000
vn -0.8993 -0.4373 -0.0000
vn 0.8308 0.5566 -0.0000
vn -0.5566 0.8308 -0.0000
vn 0.9696 -0.2447 -0.0000
vn 0.2447 0.9696 -0.0000
vn -0.7742 0.6329 -0.0000
vn -0.6329 -0.7742 -0.0000
vn 0.9114 -0.4116 -0.0000
vn 0.4116 0.9114 -0.0000
vn 0.3662 -0.9305 -0.0000
vn 0.9305 0.3662 -0.0000
vn -0.9428 0.3333 -0.0000
vn -0.3333 -0.9428 -0.0000
vn 0.8895 0.4569 -0.0000
vn -0.4569 0.8895 -0.0000
vn 0.8155 0.5787 -0.0000
vn -0.5787 0.8155 -0.0000
vn -0.4180 0.9085 -0.0000
vn -0.9085 -0.4180 -0.0000
vn 0.0724 -0.9974 -0.0000
vn 0.9974 0.0724 -0.0000
vn 0.9911 -0.1328 -0.0000
vn 0.1328 0.9911 -0.0000
vn 0.5365 0.8439 -0.0000
vn -0.8439 0.5365 -0.0000
vn -0.4061 0.9138 -0.0000
vn -0.9138 -0.4061 -0.0000
vn -0.9185 0.3954 -0.0000
vn -0.3954 -0.9185 -0.0000
vn -0.9668 -0.2555 -0.0000
vn 0.2555 -0.9668 -0.0000
vn -0.6345 0.7729 -0.0000
vn -0.7729 -0.6345 -0.0000
vn 0.7755 -0.6313 -0.0000
vn 0.6313 0.7755 -0.0000
vn 0.9078 -0.4195 -0.0000
vn 0.4195 0.9078 -0.0000
vn 0.9352 0.3540 -0.0000
vn -0.3540 0.9352 -0.0000
vn 0.9891 0.1471 -0.0000
vn -0.1471 0.9891 -0.0000
vn 0.8687 -0.4953 -0.0000
vn 0.4953 0.8687 -0.0000
vn -0.2249 0.9744 -0.0000
vn -0.9744 -0.2249 -0.0000
vn -0.9522 -0.3055 -0.0000
vn 0.3055 -0.9522 -0.0000
vn -0.7558 -0.6548 -0.0000
vn 0.6548 -0.7558 -0.0000
vn 0.2021 -0.9794 -0.0000
vn 0.9794 0.2021 -0.0000
vn 0.1561 -0.9877 -0.0000
vn 0.9877 0.1561 -0.0000
vn -0.9493 0.3144 -0.0000
vn -0.3144 -0.9493 -0.0000
vn 0.9883 -0.1523 -0.0000
vn 0.1523 0.9883 -0.0000
vn -0.2427 -0.9701 -0.0000
vn 0.9701 -0.2427 -0.0000
vn -0.6084 0.7937 -0.0000
vn -0.7937 -0.6084 -0.0000
vn 0.3393 0.9407 -0.0000
vn -0.9407 0.3393 -0.0000
vn -0.8130 -0.5822 -0.0000
vn 0.5822 -0.8130 -0.0000
vn 0.6044 -0.7967 -0.0000
vn 0.7967 0.6044 -0.0000
vn 0.5611 -0.8277 -0.0000
vn 0.8277 0.5611 -0.0000
vn -0.5178 -0.8555 -0.0000
vn 0.8555 -0.5178 -0.0000
vn -0.2000 0.9798 -0.0000
vn -0.9798 -0.1999 -0.0000
vn -0.5562 0.8310 -0.0000
vn -0.8310 -0.5562 -0.0000
vn -0.3791 0.9254 -0.0000
vn -0.9254 -0.3791 -0.0000
vn 0.8619 0.5071 -0.0000
vn -0.5071 0.8619 -0.0000
vn 0.9337 -0.3580 -0.0000
vn 0.3580 0.9337 -0.0000
vn -0.9284 0.3717 -0.0000
vn -0.3717 -0.9284 -0.0000
vn -0.6678 0.7443 -0.0000
vn -0.7443 -0.6678 -0.0000
vn -0.9440 0.3298 -0.0000
vn -0.3298 -0.9440 -0.0000
vn -0.8064 -0.5914 -0.0000
vn 0.7103 -0.7039 -0.0000
vn 0.5682 0.8229 -0.0000
vn 0.6885 0.7252 -0.0000
vn -0.8960 0.4441 -0.0000
vn -0.4441 -0.8960 -0.0000
vn 0.3730 -0.9278 -0.0000
vn -0.9376 -0.3477 -0.0000
vn 0.9828 -0.1848 -0.0000
vn 0.8590 0.5121 -0.0000
vn -0.8719 0.4898 -0.0000
vn -0.4354 0.9002 -0.0000
vn 0.8687 -0.4954 -0.0000
vn 0.4954 0.8687 -0.0000
vn -0.9798 -0.2000 -0.0000
vt 0.574736 0.000000
vt 0.727477 0.180119
vt 0.531923 0.174939
vt 0.795077 0.000000
vt 0.947964 0.152455
vt 0.797243 0.175205
vt 0.683200 0.750259
vt 0.546949 0.843491
vt 0.500000 0.750259
vt 0.966633 0.750219
vt 0.827483 0.844072
vt 0.798992 0.750219
vt 0.587516 0.250000
vt 0.696219 0.438742
vt 0.532955 0.380692
vt 0.931885 0.250000
vt 0.823776 0.442088
vt 0.822774 0.250000
vt 0.038376 0.371048
vt 0.159378 0.250046
vt 0.194166 0.371048
vt 0.420000 0.250000
vt 0.324298 0.384599
vt 0.332846 0.250000
vt 0.183597 0.000000
vt 0.079867 0.150378
vt 0.039548 0.000000
vt 0.406485 0.000000
vt 0.282420 0.163926
vt 0.257324 0.000000
vt 0.199407 0.500208
vt 0.021869 0.609361
vt 0.026417 0.500208
vt 0.318619 0.500194
vt 0.479294 0.593008
vt 0.310722 0.610752
vt 0.943005 0.000000
vt 0.046190 0.750308
vt 0.224718 0.829653
vt 0.019909 0.844918
vt 0.292351 0.750248
vt 0.408285 0.861889
vt 0.278991 0.827976
vt 0.548614 0.500208
vt 0.730526 0.577570
vt 0.530599 0.622715
vt 0.802250 0.500257
vt 0.920277 0.587538
vt 0.777322 0.599968
vt 0.958681 0.395835
vt 0.198931 0.750308
vt 0.715504 0.250000
vt 0.711067 0.000000
vt 0.726638 0.843491
vt 0.977378 0.853368
vt 0.067034 0.250046
vt 0.455465 0.376315
vt 0.198343 0.201154
vt 0.456826 0.176726
vt 0.225835 0.590819
vt 0.479294 0.500194
vt 0.477396 0.750248
vt 0.716640 0.500208
vt 0.962020 0.500257
s 0
f 1/1/1 3/2/1 4/3/1
f 5/4/2 7/5/2 8/6/2
f 10/7/3 12/8/3 9/9/3
f 14/10/4 16/11/4 13/12/4
f 17/13/5 19/14/5 20/15/5
f 21/16/6 23/17/6 24/18/6
f 25/19/7 27/20/7 28/21/7
f 30/22/8 32/23/8 29/24/8
f 33/13/9 35/14/9 36/15/9
f 37/16/10 39/17/10 40/18/10
f 41/19/11 43/20/11 44/21/11
f 46/22/12 48/23/12 45/24/12
f 49/1/13 51/2/13 52/3/13
f 53/4/14 55/5/14 56/6/14
f 57/25/15 59/26/15 60/27/15
f 62/28/16 64/29/16 61/30/16
f 65/19/17 67/20/17 68/21/17
f 70/22/18 72/23/18 69/24/18
f 73/19/19 75/20/19 76/21/19
f 78/22/20 80/23/20 77/24/20
f 81/19/21 83/20/21 84/21/21
f 86/22/22 88/23/22 85/24/22
f 89/19/23 91/20/23 92/21/23
f 94/22/24 96/23/24 93/24/24
f 97/19/25 99/20/25 100/21/25
f 102/22/26 104/23/26 101/24/26
f 105/1/27 107/2/27 108/3/27
f 109/4/28 111/5/28 112/6/28
f 113/25/29 115/26/29 116/27/29
f 118/28/30 120/29/30 117/30/30
f 121/19/31 123/20/31 124/21/31
f 126/22/32 128/23/32 125/24/32
f 129/13/33 131/14/33 132/15/33
f 133/16/34 135/17/34 136/18/34
f 137/1/35 139/2/35 140/3/35
f 141/4/36 143/5/36 144/6/36
f 145/1/37 147/2/37 148/3/37
f 149/4/38 151/5/38 152/6/38
f 153/25/39 155/26/39 156/27/39
f 158/28/40 160/29/40 157/30/40
f 161/13/41 163/14/41 164/15/41
f 165/16/42 167/17/42 168/18/42
f 169/25/43 171/26/43 172/27/43
f 174/28/44 176/29/44 173/30/44
f 177/13/45 179/14/45 180/15/45
f 181/16/46 183/17/46 184/18/46
f 185/13/47 187/14/47 188/15/47
f 189/16/48 191/17/48 192/18/48
f 194/7/49 196/8/49 193/9/49
f 198/10/50 200/11/50 197/12/50
f 201/25/51 203/26/51 204/27/51
f 206/28/52 208/29/52 205/30/52
f 209/19/53 211/20/53 212/21/53
f 214/22/54 216/23/54 213/24/54
f 217/25/55 219/26/55 220/27/55
f 222/28/56 224/29/56 221/30/56
f 225/19/57 227/20/57 228/21/57
f 230/22/58 232/23/58 229/24/58
f 233/13/59 235/14/59 236/15/59
f 237/16/60 239/17/60 240/18/60
f 241/25/61 243/26/61 244/27/61
f 246/28/62 248/29/62 245/30/62
f 249/13/63 251/14/63 252/15/63
f 253/16/64 255/17/64 256/18/64
f 258/31/65 260/32/65 257/33/65
f 261/34/66 263/35/66 264/36/66
f 265/19/67 267/20/67 268/21/67
f 270/22/68 272/23/68 269/24/68
f 273/1/69 275/2/69 276/3/69
f 278/37/70 280/6/70 277/4/70
f 281/19/71 283/20/71 284/21/71
f 286/22/72 288/23/72 285/24/72
f 289/25/73 291/26/73 292/27/73
f 294/28/74 296/29/74 293/30/74
f 297/19/75 299/20/75 300/21/75
f 302/22/76 304/23/76 301/24/76
f 305/38/77 307/39/77 308/40/77
f 309/41/78 311/42/78 312/43/78
f 313/25/79 315/26/79 316/27/79
f 318/28/80 320/29/80 317/30/80
f 321/44/81 323/45/81 324/46/81
f 325/47/82 327/48/82 328/49/82
f 329/13/83 331/14/83 332/15/83
f 334/50/84 336/18/84 333/16/84
f 337/19/85 339/20/85 340/21/85
f 342/22/86 344/23/86 341/24/86
f 345/1/87 347/2/87 348/3/87
f 350/37/88 352/6/88 349/4/88
f 353/25/89 355/26/89 356/27/89
f 358/28/90 360/29/90 357/30/90
f 361/19/91 363/20/91 364/21/91
f 366/22/92 368/23/92 365/24/92
f 369/25/93 371/26/93 372/27/93
f 374/28/94 376/29/94 373/30/94
f 378/31/95 380/32/95 377/33/95
f 381/34/96 383/35/96 384/36/96
f 386/7/97 388/8/97 385/9/97
f 390/10/98 392/11/98 389/12/98
f 393/1/99 395/2/99 396/3/99
f 397/4/100 399/5/100 400/6/100
f 401/1/101 403/2/101 404/3/101
f 406/37/102 408/6/102 405/4/102
f 409/1/103 411/2/103 412/3/103
f 414/37/104 416/6/104 413/4/104
f 417/19/105 419/20/105 420/21/105
f 422/22/106 424/23/106 421/24/106
f 425/13/107 427/14/107 428/15/107
f 429/16/63 431/17/63 432/18/63
f 434/31/108 436/32/108 433/33/108
f 437/34/109 439/35/109 440/36/109
f 441/25/110 443/26/110 444/27/110
f 446/28/111 448/29/111 445/30/111
f 449/25/112 451/26/112 452/27/112
f 454/28/113 456/29/113 453/30/113
f 457/44/114 459/45/114 460/46/114
f 461/47/115 463/48/115 464/49/115
f 465/44/116 467/45/116 468/46/116
f 469/47/117 471/48/117 472/49/117
f 473/19/118 475/20/118 476/21/118
f 478/22/119 480/23/119 477/24/119
f 481/25/120 483/26/120 484/27/120
f 486/28/121 488/29/121 485/30/121
f 489/25/122 491/26/122 492/27/122
f 494/28/123 496/29/123 493/30/123
f 497/1/124 499/2/124 500/3/124
f 502/37/125 504/6/125 501/4/125
f 505/19/126 507/20/126 508/21/126
f 510/22/127 512/23/127 509/24/127
f 513/19/128 515/20/128 516/21/128
f 518/22/129 520/23/129 517/24/129
f 522/31/130 524/32/130 521/33/130
f 525/34/131 527/35/131 528/36/131
f 529/1/132 531/2/132 532/3/132
f 534/37/133 536/6/133 533/4/133
f 537/13/134 539/14/134 540/15/134
f 541/16/135 543/17/135 544/18/135
f 545/19/136 547/20/136 548/21/136
f 550/22/137 552/23/137 549/24/137
f 553/19/138 555/20/138 556/21/138
f 558/22/139 560/23/139 557/24/139
f 561/1/140 563/2/140 564/3/140
f 565/4/141 567/5/141 568/6/141
f 569/1/142 571/2/142 572/3/142
f 574/37/143 576/6/143 573/4/143
f 577/13/144 579/14/144 580/15/144
f 581/16/145 583/17/145 584/18/145
f 585/1/146 587/2/146 588/3/146
f 589/4/147 591/5/147 592/6/147
f 593/1/148 595/2/148 596/3/148
f 598/37/149 600/6/149 597/4/149
f 601/1/150 603/2/150 604/3/150
f 606/37/151 608/6/151 605/4/151
f 609/25/152 611/26/152 612/27/152
f 614/28/153 616/29/153 613/30/153
f 617/13/154 619/14/154 620/15/154
f 621/16/155 623/17/155 624/18/155
f 625/1/156 627/2/156 628/3/156
f 630/37/157 632/6/157 629/4/157
f 633/25/158 635/26/158 636/27/158
f 638/28/159 640/29/159 637/30/159
f 641/25/160 643/26/160 644/27/160
f 646/28/161 648/29/161 645/30/161
f 649/13/162 651/14/162 652/15/162
f 653/16/163 655/17/163 656/18/163
f 657/13/164 659/14/164 660/15/164
f 662/50/165 664/18/165 661/16/165
f 665/1/166 667/2/166 668/3/166
f 670/37/167 672/6/167 669/4/167
f 673/1/168 675/2/168 676/3/168
f 677/4/169 679/5/169 680/6/169
f 681/19/170 683/20/170 684/21/170
f 686/22/171 688/23/171 685/24/171
f 689/1/172 691/2/172 692/3/172
f 694/37/173 696/6/173 693/4/173
f 697/13/174 699/14/174 700/15/174
f 702/50/175 704/18/175 701/16/175
f 705/44/176 707/45/176 708/46/176
f 709/47/177 711/48/177 712/49/177
f 713/25/178 715/26/178 716/27/178
f 718/28/179 720/29/179 717/30/179
f 722/7/180 724/8/180 721/9/180
f 726/10/181 728/11/181 725/12/181
f 729/19/182 731/20/182 732/21/182
f 734/22/183 736/23/183 733/24/183
f 738/7/184 740/8/184 737/9/184
f 742/10/185 744/11/185 741/12/185
f 745/1/186 747/2/186 748/3/186
f 749/4/187 751/5/187 752/6/187
f 753/19/188 755/20/188 756/21/188
f 758/22/189 760/23/189 757/24/189
f 761/25/190 763/26/190 764/27/190
f 766/28/191 768/29/191 765/30/191
f 769/13/192 771/14/192 772/15/192
f 773/16/193 775/17/193 776/18/193
f 777/19/194 779/20/194 780/21/194
f 782/22/195 784/23/195 781/24/195
f 785/1/196 787/2/196 788/3/196
f 789/4/197 791/5/197 792/6/197
f 793/13/198 795/14/198 796/15/198
f 797/16/199 799/17/199 800/18/199
f 802/31/200 804/32/200 801/33/200
f 805/34/201 807/35/201 808/36/201
f 810/31/202 812/32/202 809/33/202
f 813/34/203 815/35/203 816/36/203
f 817/25/204 819/26/204 820/27/204
f 822/28/205 824/29/205 821/30/205
f 825/44/206 827/45/206 828/46/206
f 829/47/207 831/48/207 832/49/207
f 833/13/208 835/14/208 836/15/208
f 837/16/209 839/17/209 840/18/209
f 841/25/210 843/26/210 844/27/210
f 846/28/211 848/29/211 845/30/211
f 850/7/212 852/8/212 849/9/212
f 854/10/213 856/11/213 853/12/213
f 857/25/214 859/26/214 860/27/214
f 862/28/215 864/29/215 861/30/215
f 865/1/216 867/2/216 868/3/216
f 870/37/217 872/6/217 869/4/217
f 874/31/218 876/32/218 873/33/218
f 877/34/219 879/35/219 880/36/219
f 882/31/220 884/32/220 881/33/220
f 885/34/221 887/35/221 888/36/221
f 889/1/222 891/2/222 892/3/222
f 894/37/223 896/6/223 893/4/223
f 897/25/224 899/26/224 900/27/224
f 902/28/225 904/29/225 901/30/225
f 905/13/226 907/14/226 908/15/226
f 909/16/227 911/17/227 912/18/227
f 913/25/228 915/26/228 916/27/228
f 918/28/229 920/29/229 917/30/229
f 921/19/230 923/20/230 924/21/230
f 926/22/231 928/23/231 925/24/231
f 929/13/232 931/14/232 932/15/232
f 933/16/233 935/17/233 936/18/233
f 938/31/234 940/32/234 937/33/234
f 941/34/235 943/35/235 944/36/235
f 946/7/236 948/8/236 945/9/236
f 950/10/237 952/11/237 949/12/237
f 953/1/238 955/2/238 956/3/238
f 958/37/239 960/6/239 957/4/239
f 961/1/240 963/2/240 964/3/240
f 965/4/241 967/5/241 968/6/241
f 969/25/242 971/26/242 972/27/242
f 974/28/243 976/29/243 973/30/243
f 977/13/244 979/14/244 980/15/244
f 981/16/245 983/17/245 984/18/245
f 985/25/246 987/26/246 988/27/246
f 990/28/247 992/29/247 989/30/247
f 993/1/248 995/2/248 996/3/248
f 998/37/249 1000/6/249 997/4/249
f 1001/13/250 1003/14/250 1004/15/250
f 1006/50/251 1008/18/251 1005/16/251
f 1009/13/252 1011/14/252 1012/15/252
f 1013/16/253 1015/17/253 1016/18/253
f 1017/1/254 1019/2/254 1020/3/254
f 1022/37/255 1024/6/255 1021/4/255
f 1025/38/256 1027/39/256 1028/40/256
f 1029/41/257 1031/42/257 1032/43/257
f 1033/25/258 1035/26/258 1036/27/258
f 1038/28/259 1040/29/259 1037/30/259
f 1042/51/260 1044/40/260 1041/38/260
f 1045/41/261 1047/42/261 1048/43/261
f 1049/13/262 1051/14/262 1052/15/262
f 1053/16/263 1055/17/263 1056/18/263
f 1057/1/264 1059/2/264 1060/3/264
f 1061/4/265 1063/5/265 1064/6/265
f 1065/25/266 1067/26/266 1068/27/266
f 1070/28/267 1072/29/267 1069/30/267
f 1073/19/268 1075/20/268 1076/21/268
f 1078/22/269 1080/23/269 1077/24/269
f 1081/1/270 1083/2/270 1084/3/270
f 1086/37/271 1088/6/271 1085/4/271
f 1089/38/272 1091/39/272 1092/40/272
f 1093/41/273 1095/42/273 1096/43/273
f 1097/1/274 1099/2/274 1100/3/274
f 1102/37/275 1104/6/275 1101/4/275
f 1105/19/276 1107/20/276 1108/21/276
f 1110/22/277 1112/23/277 1109/24/277
f 1113/19/278 1115/20/278 1116/21/278
f 1118/22/279 1120/23/279 1117/24/279
f 1121/19/280 1123/20/280 1124/21/280
f 1126/22/281 1128/23/281 1125/24/281
f 1129/1/282 1131/2/282 1132/3/282
f 1134/37/283 1136/6/283 1133/4/283
f 1137/19/284 1139/20/284 1140/21/284
f 1142/22/285 1144/23/285 1141/24/285
f 1145/1/286 1147/2/286 1148/3/286
f 1149/4/287 1151/5/287 1152/6/287
f 1153/13/288 1155/14/288 1156/15/288
f 1157/16/289 1159/17/289 1160/18/289
f 1161/19/290 1163/20/290 1164/21/290
f 1166/22/291 1168/23/291 1165/24/291
f 1169/19/292 1171/20/292 1172/21/292
f 1174/22/293 1176/23/293 1173/24/293
f 1177/38/294 1179/39/294 1180/40/294
f 1181/41/295 1183/42/295 1184/43/295
f 1185/19/296 1187/20/296 1188/21/296
f 1190/22/297 1192/23/297 1189/24/297
f 1193/25/298 1195/26/298 1196/27/298
f 1198/28/299 1200/29/299 1197/30/299
f 1201/19/300 1203/20/300 1204/21/300
f 1206/22/301 1208/23/301 1205/24/301
f 1209/13/302 1211/14/302 1212/15/302
f 1213/16/303 1215/17/303 1216/18/303
f 1217/1/304 1219/2/304 1220/3/304
f 1222/37/305 1224/6/305 1221/4/305
f 1225/1/306 1227/2/306 1228/3/306
f 1230/37/307 1232/6/307 1229/4/307
f 1233/19/308 1235/20/308 1236/21/308
f 1238/22/309 1240/23/309 1237/24/309
f 1241/19/310 1243/20/310 1244/21/310
f 1246/22/311 1248/23/311 1245/24/311
f 1249/1/312 1251/2/312 1252/3/312
f 1254/37/313 1256/6/313 1253/4/313
f 1257/13/314 1259/14/314 1260/15/314
f 1261/16/315 1263/17/315 1264/18/315
f 1265/13/316 1267/14/316 1268/15/316
f 1269/16/317 1271/17/317 1272/18/317
f 1273/19/318 1275/20/318 1276/21/318
f 1278/22/319 1280/23/319 1277/24/319
f 1281/25/320 1283/26/320 1284/27/320
f 1286/28/321 1288/29/321 1285/30/321
f 1289/19/322 1291/20/322 1292/21/322
f 1294/22/323 1296/23/323 1293/24/323
f 1297/25/324 1299/26/324 1300/27/324
f 1302/28/325 1304/29/325 1301/30/325
f 1305/1/326 1307/2/326 1308/3/326
f 1310/37/327 1312/6/327 1309/4/327
f 1313/1/328 1315/2/328 1316/3/328
f 1317/4/329 1319/5/329 1320/6/329
f 1321/38/330 1323/39/330 1324/40/330
f 1325/41/331 1327/42/331 1328/43/331
f 1329/1/332 1331/2/332 1332/3/332
f 1333/4/333 1335/5/333 1336/6/333
f 1337/25/334 1339/26/334 1340/27/334
f 1342/28/335 1344/29/335 1341/30/335
f 1345/25/336 1347/26/336 1348/27/336
f 1350/28/337 1352/29/337 1349/30/337
f 1353/1/338 1355/2/338 1356/3/338
f 1357/4/339 1359/5/339 1360/6/339
f 1361/25/340 1363/26/340 1364/27/340
f 1366/28/341 1368/29/341 1365/30/341
f 1369/19/342 1371/20/342 1372/21/342
f 1374/22/343 1376/23/343 1373/24/343
f 1377/25/344 1379/26/344 1380/27/344
f 1382/28/345 1384/29/345 1381/30/345
f 1385/13/346 1387/14/346 1388/15/346
f 1389/16/347 1391/17/347 1392/18/347
f 1393/19/348 1395/20/348 1396/21/348
f 1398/22/349 1400/23/349 1397/24/349
f 1401/25/350 1403/26/350 1404/27/350
f 1406/28/351 1408/29/351 1405/30/351
f 1409/25/352 1411/26/352 1412/27/352
f 1414/28/353 1416/29/353 1413/30/353
f 1417/1/354 1419/2/354 1420/3/354
f 1422/37/355 1424/6/355 1421/4/355
f 1425/19/356 1427/20/356 1428/21/356
f 1430/22/357 1432/23/357 1429/24/357
f 1433/44/358 1435/45/358 1436/46/358
f 1437/47/359 1439/48/359 1440/49/359
f 1442/51/360 1444/40/360 1441/38/360
f 1445/41/361 1447/42/361 1448/43/361
f 1449/25/362 1451/26/362 1452/27/362
f 1454/28/363 1456/29/363 1453/30/363
f 1458/7/364 1460/8/364 1457/9/364
f 1462/10/365 1464/11/365 1461/12/365
f 1465/13/366 1467/14/366 1468/15/366
f 1469/16/367 1471/17/367 1472/18/367
f 1473/25/368 1475/26/368 1476/27/368
f 1478/28/369 1480/29/369 1477/30/369
f 1481/1/370 1483/2/370 1484/3/370
f 1486/37/371 1488/6/371 1485/4/371
f 1489/1/372 1491/2/372 1492/3/372
f 1494/37/373 1496/6/373 1493/4/373
f 1497/25/374 1499/26/374 1500/27/374
f 1502/28/375 1504/29/375 1501/30/375
f 1505/13/376 1507/14/376 1508/15/376
f 1509/16/377 1511/17/377 1512/18/377
f 1514/52/378 1516/15/378 1513/13/378
f 1518/50/379 1520/18/379 1517/16/379
f 1521/1/380 1523/2/380 1524/3/380
f 1526/37/381 1528/6/381 1525/4/381
f 1529/1/382 1531/2/382 1532/3/382
f 1534/37/383 1536/6/383 1533/4/383
f 1538/31/384 1540/32/384 1537/33/384
f 1541/34/385 1543/35/385 1544/36/385
f 1545/1/386 1547/2/386 1548/3/386
f 1550/37/387 1552/6/387 1549/4/387
f 1553/19/388 1555/20/388 1556/21/388
f 1558/22/389 1560/23/389 1557/24/389
f 1561/25/390 1563/26/390 1564/27/390
f 1566/28/391 1568/29/391 1565/30/391
f 1569/1/392 1571/2/392 1572/3/392
f 1573/4/393 1575/5/393 1576/6/393
f 1/1/1 2/53/1 3/2/1
f 5/4/2 6/37/2 7/5/2
f 10/7/3 11/54/3 12/8/3
f 14/10/4 15/55/4 16/11/4
f 17/13/5 18/52/5 19/14/5
f 21/16/6 22/50/6 23/17/6
f 25/19/7 26/56/7 27/20/7
f 30/22/8 31/57/8 32/23/8
f 33/13/9 34/52/9 35/14/9
f 37/16/10 38/50/10 39/17/10
f 41/19/11 42/56/11 43/20/11
f 46/22/12 47/57/12 48/23/12
f 49/1/13 50/53/13 51/2/13
f 53/4/14 54/37/14 55/5/14
f 57/25/15 58/58/15 59/26/15
f 62/28/16 63/59/16 64/29/16
f 65/19/17 66/56/17 67/20/17
f 70/22/18 71/57/18 72/23/18
f 73/19/19 74/56/19 75/20/19
f 78/22/20 79/57/20 80/23/20
f 81/19/21 82/56/21 83/20/21
f 86/22/22 87/57/22 88/23/22
f 89/19/23 90/56/23 91/20/23
f 94/22/24 95/57/24 96/23/24
f 97/19/25 98/56/25 99/20/25
f 102/22/26 103/57/26 104/23/26
f 105/1/27 106/53/27 107/2/27
f 109/4/28 110/37/28 111/5/28
f 113/25/29 114/58/29 115/26/29
f 118/28/30 119/59/30 120/29/30
f 121/19/31 122/56/31 123/20/31
f 126/22/32 127/57/32 128/23/32
f 129/13/33 130/52/33 131/14/33
f 133/16/34 134/50/34 135/17/34
f 137/1/35 138/53/35 139/2/35
f 141/4/36 142/37/36 143/5/36
f 145/1/37 146/53/37 147/2/37
f 149/4/38 150/37/38 151/5/38
f 153/25/39 154/58/39 155/26/39
f 158/28/40 159/59/40 160/29/40
f 161/13/41 162/52/41 163/14/41
f 165/16/42 166/50/42 167/17/42
f 169/25/43 170/58/43 171/26/43
f 174/28/44 175/59/44 176/29/44
f 177/13/45 178/52/45 179/14/45
f 181/16/46 182/50/46 183/17/46
f 185/13/47 186/52/47 187/14/47
f 189/16/48 190/50/48 191/17/48
f 194/7/394 195/54/394 196/8/394
f 198/10/395 199/55/395 200/11/395
f 201/25/51 202/58/51 203/26/51
f 206/28/52 207/59/52 208/29/52
f 209/19/53 210/56/53 211/20/53
f 214/22/54 215/57/54 216/23/54
f 217/25/55 218/58/55 219/26/55
f 222/28/56 223/59/56 224/29/56
f 225/19/396 226/56/396 227/20/396
f 230/22/58 231/57/58 232/23/58
f 233/13/59 234/52/59 235/14/59
f 237/16/60 238/50/60 239/17/60
f 241/25/61 242/58/61 243/26/61
f 246/28/62 247/59/62 248/29/62
f 249/13/63 250/52/63 251/14/63
f 253/16/64 254/50/64 255/17/64
f 258/31/65 259/60/65 260/32/65
f 261/34/66 262/61/66 263/35/66
f 265/19/67 266/56/67 267/20/67
f 270/22/68 271/57/68 272/23/68
f 273/1/69 274/53/69 275/2/69
f 278/37/70 279/5/70 280/6/70
f 281/19/71 282/56/71 283/20/71
f 286/22/72 287/57/72 288/23/72
f 289/25/73 290/58/73 291/26/73
f 294/28/74 295/59/74 296/29/74
f 297/19/75 298/56/75 299/20/75
f 302/22/76 303/57/76 304/23/76
f 305/38/77 306/51/77 307/39/77
f 309/41/78 310/62/78 311/42/78
f 313/25/79 314/58/79 315/26/79
f 318/28/80 319/59/80 320/29/80
f 321/44/81 322/63/81 323/45/81
f 325/47/82 326/64/82 327/48/82
f 329/13/83 330/52/83 331/14/83
f 334/50/84 335/17/84 336/18/84
f 337/19/85 338/56/85 339/20/85
f 342/22/86 343/57/86 344/23/86
f 345/1/87 346/53/87 347/2/87
f 350/37/88 351/5/88 352/6/88
f 353/25/89 354/58/89 355/26/89
f 358/28/90 359/59/90 360/29/90
f 361/19/91 362/56/91 363/20/91
f 366/22/92 367/57/92 368/23/92
f 369/25/93 370/58/93 371/26/93
f 374/28/94 375/59/94 376/29/94
f 378/31/95 379/60/95 380/32/95
f 381/34/96 382/61/96 383/35/96
f 386/7/97 387/54/97 388/8/97
f 390/10/98 391/55/98 392/11/98
f 393/1/99 394/53/99 395/2/99
f 397/4/100 398/37/100 399/5/100
f 401/1/101 402/53/101 403/2/101
f 406/37/102 407/5/102 408/6/102
f 409/1/103 410/53/103 411/2/103
f 414/37/104 415/5/104 416/6/104
f 417/19/105 418/56/105 419/20/105
f 422/22/106 423/57/106 424/23/106
f 425/13/397 426/52/397 427/14/397
f 429/16/63 430/50/63 431/17/63
f 434/31/108 435/60/108 436/32/108
f 437/34/109 438/61/109 439/35/109
f 441/25/110 442/58/110 443/26/110
f 446/28/111 447/59/111 448/29/111
f 449/25/112 450/58/112 451/26/112
f 454/28/113 455/59/113 456/29/113
f 457/44/114 458/63/114 459/45/114
f 461/47/115 462/64/115 463/48/115
f 465/44/398 466/63/398 467/45/398
f 469/47/117 470/64/117 471/48/117
f 473/19/118 474/56/118 475/20/118
f 478/22/119 479/57/119 480/23/119
f 481/25/120 482/58/120 483/26/120
f 486/28/121 487/59/121 488/29/121
f 489/25/122 490/58/122 491/26/122
f 494/28/123 495/59/123 496/29/123
f 497/1/124 498/53/124 499/2/124
f 502/37/125 503/5/125 504/6/125
f 505/19/126 506/56/126 507/20/126
f 510/22/127 511/57/127 512/23/127
f 513/19/128 514/56/128 515/20/128
f 518/22/399 519/57/399 520/23/399
f 522/31/130 523/60/130 524/32/130
f 525/34/131 526/61/131 527/35/131
f 529/1/132 530/53/132 531/2/132
f 534/37/133 535/5/133 536/6/133
f 537/13/134 538/52/134 539/14/134
f 541/16/135 542/50/135 543/17/135
f 545/19/136 546/56/136 547/20/136
f 550/22/137 551/57/137 552/23/137
f 553/19/138 554/56/138 555/20/138
f 558/22/139 559/57/139 560/23/139
f 561/1/140 562/53/140 563/2/140
f 565/4/141 566/37/141 567/5/141
f 569/1/142 570/53/142 571/2/142
f 574/37/143 575/5/143 576/6/143
f 577/13/144 578/52/144 579/14/144
f 581/16/145 582/50/145 583/17/145
f 585/1/400 586/53/400 587/2/400
f 589/4/401 590/37/401 591/5/401
f 593/1/148 594/53/148 595/2/148
f 598/37/149 599/5/149 600/6/149
f 601/1/150 602/53/150 603/2/150
f 606/37/151 607/5/151 608/6/151
f 609/25/152 610/58/152 611/26/152
f 614/28/153 615/59/153 616/29/153
f 617/13/154 618/52/154 619/14/154
f 621/16/155 622/50/155 623/17/155
f 625/1/156 626/53/156 627/2/156
f 630/37/157 631/5/157 632/6/157
f 633/25/158 634/58/158 635/26/158
f 638/28/159 639/59/159 640/29/159
f 641/25/160 642/58/160 643/26/160
f 646/28/161 647/59/161 648/29/161
f 649/13/162 650/52/162 651/14/162
f 653/16/163 654/50/163 655/17/163
f 657/13/164 658/52/164 659/14/164
f 662/50/165 663/17/165 664/18/165
f 665/1/166 666/53/166 667/2/166
f 670/37/167 671/5/167 672/6/167
f 673/1/168 674/53/168 675/2/168
f 677/4/169 678/37/169 679/5/169
f 681/19/170 682/56/170 683/20/170
f 686/22/171 687/57/171 688/23/171
f 689/1/172 690/53/172 691/2/172
f 694/37/173 695/5/173 696/6/173
f 697/13/174 698/52/174 699/14/174
f 702/50/175 703/17/175 704/18/175
f 705/44/176 706/63/176 707/45/176
f 709/47/177 710/64/177 711/48/177
f 713/25/178 714/58/178 715/26/178
f 718/28/179 719/59/179 720/29/179
f 722/7/180 723/54/180 724/8/180
f 726/10/181 727/55/181 728/11/181
f 729/19/182 730/56/182 731/20/182
f 734/22/183 735/57/183 736/23/183
f 738/7/184 739/54/184 740/8/184
f 742/10/185 743/55/185 744/11/185
f 745/1/186 746/53/186 747/2/186
f 749/4/187 750/37/187 751/5/187
f 753/19/188 754/56/188 755/20/188
f 758/22/189 759/57/189 760/23/189
f 761/25/190 762/58/190 763/26/190
f 766/28/191 767/59/191 768/29/191
f 769/13/192 770/52/192 771/14/192
f 773/16/402 774/50/402 775/17/402
f 777/19/194 778/56/194 779/20/194
f 782/22/195 783/57/195 784/23/195
f 785/1/196 786/53/196 787/2/196
f 789/4/197 790/37/197 791/5/197
f 793/13/198 794/52/198 795/14/198
f 797/16/199 798/50/199 799/17/199
f 802/31/200 803/60/200 804/32/200
f 805/34/201 806/61/201 807/35/201
f 810/31/202 811/60/202 812/32/202
f 813/34/203 814/61/203 815/35/203
f 817/25/204 818/58/204 819/26/204
f 822/28/205 823/59/205 824/29/205
f 825/44/206 826/63/206 827/45/206
f 829/47/207 830/64/207 831/48/207
f 833/13/208 834/52/208 835/14/208
f 837/16/209 838/50/209 839/17/209
f 841/25/210 842/58/210 843/26/210
f 846/28/211 847/59/211 848/29/211
f 850/7/212 851/54/212 852/8/212
f 854/10/213 855/55/213 856/11/213
f 857/25/214 858/58/214 859/26/214
f 862/28/215 863/59/215 864/29/215
f 865/1/216 866/53/216 867/2/216
f 870/37/217 871/5/217 872/6/217
f 874/31/218 875/60/218 876/32/218
f 877/34/219 878/61/219 879/35/219
f 882/31/220 883/60/220 884/32/220
f 885/34/221 886/61/221 887/35/221
f 889/1/222 890/53/222 891/2/222
f 894/37/223 895/5/223 896/6/223
f 897/25/224 898/58/224 899/26/224
f 902/28/225 903/59/225 904/29/225
f 905/13/226 906/52/226 907/14/226
f 909/16/227 910/50/227 911/17/227
f 913/25/228 914/58/228 915/26/228
f 918/28/229 919/59/229 920/29/229
f 921/19/230 922/56/230 923/20/230
f 926/22/231 927/57/231 928/23/231
f 929/13/232 930/52/232 931/14/232
f 933/16/233 934/50/233 935/17/233
f 938/31/234 939/60/234 940/32/234
f 941/34/235 942/61/235 943/35/235
f 946/7/236 947/54/236 948/8/236
f 950/10/237 951/55/237 952/11/237
f 953/1/238 954/53/238 955/2/238
f 958/37/239 959/5/239 960/6/239
f 961/1/240 962/53/240 963/2/240
f 965/4/241 966/37/241 967/5/241
f 969/25/242 970/58/242 971/26/242
f 974/28/243 975/59/243 976/29/243
f 977/13/244 978/52/244 979/14/244
f 981/16/245 982/50/245 983/17/245
f 985/25/246 986/58/246 987/26/246
f 990/28/247 991/59/247 992/29/247
f 993/1/248 994/53/248 995/2/248
f 998/37/249 999/5/249 1000/6/249
f 1001/13/250 1002/52/250 1003/14/250
f 1006/50/251 1007/17/251 1008/18/251
f 1009/13/252 1010/52/252 1011/14/252
f 1013/16/403 1014/50/403 1015/17/403
f 1017/1/254 1018/53/254 1019/2/254
f 1022/37/255 1023/5/255 1024/6/255
f 1025/38/256 1026/51/256 1027/39/256
f 1029/41/257 1030/62/257 1031/42/257
f 1033/25/258 1034/58/258 1035/26/258
f 1038/28/259 1039/59/259 1040/29/259
f 1042/51/260 1043/39/260 1044/40/260
f 1045/41/261 1046/62/261 1047/42/261
f 1049/13/404 1050/52/404 1051/14/404
f 1053/16/263 1054/50/263 1055/17/263
f 1057/1/264 1058/53/264 1059/2/264
f 1061/4/265 1062/37/265 1063/5/265
f 1065/25/266 1066/58/266 1067/26/266
f 1070/28/267 1071/59/267 1072/29/267
f 1073/19/268 1074/56/268 1075/20/268
f 1078/22/269 1079/57/269 1080/23/269
f 1081/1/270 1082/53/270 1083/2/270
f 1086/37/271 1087/5/271 1088/6/271
f 1089/38/272 1090/51/272 1091/39/272
f 1093/41/405 1094/62/405 1095/42/405
f 1097/1/274 1098/53/274 1099/2/274
f 1102/37/275 1103/5/275 1104/6/275
f 1105/19/276 1106/56/276 1107/20/276
f 1110/22/277 1111/57/277 1112/23/277
f 1113/19/278 1114/56/278 1115/20/278
f 1118/22/279 1119/57/279 1120/23/279
f 1121/19/280 1122/56/280 1123/20/280
f 1126/22/281 1127/57/281 1128/23/281
f 1129/1/282 1130/53/282 1131/2/282
f 1134/37/283 1135/5/283 1136/6/283
f 1137/19/284 1138/56/284 1139/20/284
f 1142/22/285 1143/57/285 1144/23/285
f 1145/1/406 1146/53/406 1147/2/406
f 1149/4/287 1150/37/287 1151/5/287
f 1153/13/288 1154/52/288 1155/14/288
f 1157/16/289 1158/50/289 1159/17/289
f 1161/19/290 1162/56/290 1163/20/290
f 1166/22/291 1167/57/291 1168/23/291
f 1169/19/292 1170/56/292 1171/20/292
f 1174/22/407 1175/57/407 1176/23/407
f 1177/38/294 1178/51/294 1179/39/294
f 1181/41/295 1182/62/295 1183/42/295
f 1185/19/296 1186/56/296 1187/20/296
f 1190/22/297 1191/57/297 1192/23/297
f 1193/25/298 1194/58/298 1195/26/298
f 1198/28/299 1199/59/299 1200/29/299
f 1201/19/300 1202/56/300 1203/20/300
f 1206/22/301 1207/57/301 1208/23/301
f 1209/13/302 1210/52/302 1211/14/302
f 1213/16/303 1214/50/303 1215/17/303
f 1217/1/304 1218/53/304 1219/2/304
f 1222/37/305 1223/5/305 1224/6/305
f 1225/1/306 1226/53/306 1227/2/306
f 1230/37/307 1231/5/307 1232/6/307
f 1233/19/308 1234/56/308 1235/20/308
f 1238/22/309 1239/57/309 1240/23/309
f 1241/19/310 1242/56/310 1243/20/310
f 1246/22/311 1247/57/311 1248/23/311
f 1249/1/312 1250/53/312 1251/2/312
f 1254/37/313 1255/5/313 1256/6/313
f 1257/13/314 1258/52/314 1259/14/314
f 1261/16/315 1262/50/315 1263/17/315
f 1265/13/316 1266/52/316 1267/14/316
f 1269/16/317 1270/50/317 1271/17/317
f 1273/19/318 1274/56/318 1275/20/318
f 1278/22/319 1279/57/319 1280/23/319
f 1281/25/320 1282/58/320 1283/26/320
f 1286/28/321 1287/59/321 1288/29/321
f 1289/19/322 1290/56/322 1291/20/322
f 1294/22/323 1295/57/323 1296/23/323
f 1297/25/324 1298/58/324 1299/26/324
f 1302/28/325 1303/59/325 1304/29/325
f 1305/1/326 1306/53/326 1307/2/326
f 1310/37/327 1311/5/327 1312/6/327
f 1313/1/328 1314/53/328 1315/2/328
f 1317/4/329 1318/37/329 1319/5/329
f 1321/38/330 1322/51/330 1323/39/330
f 1325/41/331 1326/62/331 1327/42/331
f 1329/1/332 1330/53/332 1331/2/332
f 1333/4/333 1334/37/333 1335/5/333
f 1337/25/334 1338/58/334 1339/26/334
f 1342/28/335 1343/59/335 1344/29/335
f 1345/25/336 1346/58/336 1347/26/336
f 1350/28/337 1351/59/337 1352/29/337
f 1353/1/338 1354/53/338 1355/2/338
f 1357/4/339 1358/37/339 1359/5/339
f 1361/25/340 1362/58/340 1363/26/340
f 1366/28/341 1367/59/341 1368/29/341
f 1369/19/342 1370/56/342 1371/20/342
f 1374/22/343 1375/57/343 1376/23/343
f 1377/25/344 1378/58/344 1379/26/344
f 1382/28/345 1383/59/345 1384/29/345
f 1385/13/346 1386/52/346 1387/14/346
f 1389/16/347 1390/50/347 1391/17/347
f 1393/19/348 1394/56/348 1395/20/348
f 1398/22/349 1399/57/349 1400/23/349
f 1401/25/408 1402/58/408 1403/26/408
f 1406/28/409 1407/59/409 1408/29/409
f 1409/25/352 1410/58/352 1411/26/352
f 1414/28/353 1415/59/353 1416/29/353
f 1417/1/354 1418/53/354 1419/2/354
f 1422/37/355 1423/5/355 1424/6/355
f 1425/19/356 1426/56/356 1427/20/356
f 1430/22/357 1431/57/357 1432/23/357
f 1433/44/358 1434/63/358 1435/45/358
f 1437/47/359 1438/64/359 1439/48/359
f 1442/51/360 1443/39/360 1444/40/360
f 1445/41/361 1446/62/361 1447/42/361
f 1449/25/362 1450/58/362 1451/26/362
f 1454/28/363 1455/59/363 1456/29/363
f 1458/7/364 1459/54/364 1460/8/364
f 1462/10/365 1463/55/365 1464/11/365
f 1465/13/366 1466/52/366 1467/14/366
f 1469/16/367 1470/50/367 1471/17/367
f 1473/25/368 1474/58/368 1475/26/368
f 1478/28/369 1479/59/369 1480/29/369
f 1481/1/370 1482/53/370 1483/2/370
f 1486/37/371 1487/5/371 1488/6/371
f 1489/1/372 1490/53/372 1491/2/372
f 1494/37/373 1495/5/373 1496/6/373
f 1497/25/374 1498/58/374 1499/26/374
f 1502/28/375 1503/59/375 1504/29/375
f 1505/13/376 1506/52/376 1507/14/376
f 1509/16/377 1510/50/377 1511/17/377
f 1514/52/378 1515/14/378 1516/15/378
f 1518/50/379 1519/17/379 1520/18/379
f 1521/1/380 1522/53/380 1523/2/380
f 1526/37/410 1527/5/410 1528/6/410
f 1529/1/382 1530/53/382 1531/2/382
f 1534/37/383 1535/5/383 1536/6/383
f 1538/31/384 1539/60/384 1540/32/384
f 1541/34/385 1542/61/385 1543/35/385
f 1545/1/386 1546/53/386 1547/2/386
f 1550/37/387 1551/5/387 1552/6/387
f 1553/19/388 1554/56/388 1555/20/388
f 1558/22/389 1559/57/389 1560/23/389
f 1561/25/390 1562/58/390 1563/26/390
f 1566/28/391 1567/59/391 1568/29/391
f 1569/1/392 1570/53/392 1571/2/392
f 1573/4/393 1574/37/393 1575/5/393
