mtllib grass_04_02_b0.mtl
usemtl grass_04_02_b0
# Blender 5.1.1
# www.blender.org
o grass_04_02_b0
v -1.886023 -14.633624 -2.842523
v -1.905588 -14.449779 -2.842523
v -1.902640 -14.477480 -2.556538
v -1.877683 -14.711996 -2.644496
v -1.973463 -14.588476 -2.842523
v -2.011954 -14.592572 -2.621552
v -1.818175 -14.571951 -2.551468
v -1.816735 -14.571797 -2.842523
v -1.730220 -10.690341 -2.207844
v -1.821662 -10.539058 -2.207844
v -1.807884 -10.561852 -2.114203
v -1.691239 -10.754832 -2.143003
v -1.824239 -10.686676 -2.207844
v -1.855912 -10.705820 -2.135491
v -1.696454 -10.609437 -2.112543
v -1.695269 -10.608721 -2.207844
v -8.887770 15.552494 2.834887
v -8.713274 15.439466 2.834887
v -8.692270 15.425861 2.955757
v -8.942568 15.587990 2.952281
v -8.889697 15.408525 2.834887
v -8.767054 15.597865 2.834887
v -8.762942 15.604213 2.937192
v -8.887900 15.411298 2.952459
v -10.840269 4.596212 1.658416
v -10.848689 4.580335 1.837529
v -10.781042 4.707902 1.792318
v -10.758021 4.751314 1.658416
v -10.933517 4.726495 1.658416
v -10.772911 4.641328 1.658416
v -10.718707 4.612585 1.815778
v -10.906496 4.712166 1.804380
v 1.374523 -6.135783 -2.038408
v 1.428254 -6.425077 -2.038408
v 1.440994 -6.493669 -1.890138
v 1.388293 -6.209920 -1.890138
v 1.291159 -6.355464 -2.038472
v 1.555884 -6.306297 -2.038472
v 1.572851 -6.303145 -1.874429
v 1.336150 -6.347108 -1.889213
v -15.195439 -8.601800 0.049326
v -15.201939 -8.843700 0.049326
v -15.200959 -8.807251 0.167651
v -15.192668 -8.498679 0.131259
v -15.089829 -8.675534 0.049326
v -15.039185 -8.676895 0.140752
v -15.294156 -8.670044 0.169749
v -15.296050 -8.669993 0.049326
v -1.837135 -12.036003 -2.417400
v -1.855252 -11.898952 -2.417400
v -1.852522 -11.919603 -2.322303
v -1.829411 -12.094427 -2.351551
v -1.903353 -12.003917 -2.417400
v -1.932047 -12.007710 -2.343921
v -1.787590 -11.988614 -2.320617
v -1.786517 -11.988472 -2.417400
v -1.191503 -6.662718 -1.650219
v -1.213744 -6.649372 -1.543119
v -1.035056 -6.756606 -1.570153
v -0.974247 -6.793099 -1.650219
v -0.996616 -6.538275 -1.650219
v -1.131624 -6.763242 -1.650219
v -1.177189 -6.839167 -1.556125
v -1.019331 -6.576125 -1.562940
v -10.730866 14.204655 2.955514
v -10.770093 14.407196 2.955514
v -10.764183 14.376678 3.054130
v -10.714144 14.118312 3.023800
v -10.832375 14.246539 2.955514
v -10.874779 14.238326 3.031712
v -10.661294 14.279673 3.055878
v -10.659708 14.279980 2.955514
v -6.342408 6.807431 1.285519
v -6.318110 6.761818 1.202351
v -6.239819 6.614843 1.202351
v -6.210325 6.559474 1.285519
v -6.336058 6.633821 1.202319
v -6.197343 6.707712 1.202319
v -6.140897 6.737780 1.289139
v -6.349663 6.626574 1.294833
v -1.767319 9.619894 0.895486
v -1.773882 9.637350 1.030256
v -1.721155 9.497096 0.996237
v -1.703212 9.449367 0.895486
v -1.601935 9.602896 0.895486
v -1.778514 9.536513 0.895486
v -1.838109 9.514110 1.013890
v -1.631644 9.591727 1.005314
v -11.483857 12.825551 2.970047
v -11.529256 12.778499 2.862823
v -11.675541 12.626883 2.862823
v -11.730650 12.569765 2.970047
v -11.690292 12.750104 2.862782
v -11.547196 12.612040 2.862782
v -11.488969 12.555860 2.974714
v -11.704327 12.763645 2.982055
v -0.088572 -8.271444 -2.104982
v -0.215064 -8.418734 -2.104982
v -0.230290 -8.436462 -1.990598
v -0.048848 -8.225190 -1.993888
v -0.221556 -8.251593 -2.104982
v -0.061737 -8.388845 -2.104982
v -0.056379 -8.393447 -2.008167
v -0.219215 -8.253603 -1.993719
v -6.743561 5.359245 1.102207
v -6.919991 5.309064 1.102207
v -6.941228 5.303024 1.197719
v -6.688154 5.375004 1.194972
v -6.838027 5.444176 1.102207
v -6.783577 5.252736 1.102207
v -6.781752 5.246318 1.183049
v -6.837230 5.441372 1.195113
v -11.315141 9.947507 2.455155
v -11.301472 9.956137 2.572854
v -11.411299 9.886804 2.543144
v -11.448673 9.863209 2.455155
v -11.300596 9.804131 2.455155
v -11.387885 9.942402 2.455155
v -11.417345 9.989068 2.558561
v -11.315282 9.827394 2.551071
v -6.836877 -8.369018 -0.957375
v -6.645691 -8.275487 -0.957375
v -6.622678 -8.264228 -0.858407
v -6.896918 -8.398391 -0.861253
v -6.711556 -8.446616 -0.957375
v -6.813045 -8.239165 -0.957375
v -6.816447 -8.232210 -0.873607
v -6.713043 -8.443578 -0.861107
v -10.614901 -10.287726 -0.601175
v -10.742699 -10.300821 -0.601175
v -10.723442 -10.298848 -0.478334
v -10.560421 -10.282144 -0.516115
v -10.646509 -10.348361 -0.601175
v -10.643767 -10.375117 -0.506260
v -10.657570 -10.240414 -0.476156
v -10.657673 -10.239413 -0.601175
v -1.328683 12.452793 1.372398
v -1.399951 12.454527 1.290788
v -1.629593 12.460114 1.290788
v -1.716105 12.462219 1.372398
v -1.541550 12.562863 1.290757
v -1.546824 12.346127 1.290757
v -1.548969 12.257933 1.375950
v -1.541033 12.584120 1.381537
v -2.885633 -15.153136 -2.747372
v -2.915215 -14.935343 -2.747372
v -2.918776 -14.909127 -2.643127
v -2.876343 -15.221532 -2.646126
v -2.768859 -15.055495 -2.747372
v -3.005180 -15.087594 -2.747372
v -3.013103 -15.088670 -2.659139
v -2.772320 -15.055965 -2.645972
v 0.254498 15.344709 1.447674
v 0.065645 15.312752 1.447674
v 0.094101 15.317568 1.543380
v 0.335005 15.358333 1.513944
v 0.213392 15.251414 1.447674
v 0.220082 15.211875 1.521623
v 0.186398 15.410933 1.545076
v 0.186148 15.412412 1.447674
v 0.537940 1.371914 -0.546807
v 0.577107 1.327858 -0.667914
v 0.703313 1.185897 -0.667914
v 0.750857 1.132417 -0.546807
v 0.591525 1.181135 -0.667960
v 0.725508 1.300249 -0.667960
v 0.780027 1.348717 -0.541535
v 0.578384 1.169453 -0.533244
v 4.185780 6.537979 -0.500222
v 4.059463 6.339686 -0.500222
v 4.044258 6.315818 -0.385636
v 4.225448 6.600251 -0.388932
v 4.022960 6.538923 -0.500222
v 4.238121 6.401860 -0.500222
v 4.245334 6.397265 -0.403236
v 4.026111 6.536916 -0.388763
v 1.681181 0.934872 -0.893814
v 1.727670 0.882159 -0.981756
v 1.877466 0.712306 -0.981756
v 1.933898 0.648318 -0.893814
v 1.744163 0.707159 -0.981789
v 1.904471 0.848537 -0.981789
v 1.969703 0.906066 -0.889987
v 1.728441 0.693294 -0.883966
v -1.349078 12.090020 1.216296
v -1.352277 12.072493 1.351777
v -1.326571 12.213313 1.317579
v -1.317823 12.261235 1.216296
v -1.476232 12.185201 1.216296
v -1.298941 12.152837 1.216296
v -1.239106 12.141913 1.335324
v -1.446404 12.179755 1.326703
v -1.061410 -12.058259 -2.569462
v -0.898177 -11.912120 -2.569462
v -0.878528 -11.894529 -2.476696
v -1.112671 -12.104154 -2.479363
v -0.915553 -12.100074 -2.569462
v -1.074126 -11.922955 -2.569462
v -1.079441 -11.917017 -2.490944
v -0.917876 -12.097480 -2.479227
v -1.809569 -7.450130 -1.490122
v -1.783358 -7.495949 -1.605539
v -1.698902 -7.643586 -1.605539
v -1.667085 -7.699205 -1.490122
v -1.797739 -7.627176 -1.605583
v -1.658398 -7.547466 -1.605583
v -1.601698 -7.515031 -1.485098
v -1.811404 -7.634994 -1.477197
v -7.173533 -6.138790 -0.544407
v -7.189261 -6.127880 -0.406203
v -7.062891 -6.215537 -0.441089
v -7.019886 -6.245368 -0.544407
v -7.023967 -6.056628 -0.544407
v -7.134326 -6.215727 -0.544407
v -7.171572 -6.269423 -0.422987
v -7.042534 -6.083395 -0.431781
v -5.922900 2.519251 0.552657
v -5.944935 2.509803 0.771214
v -5.767896 2.585710 0.716046
v -5.707648 2.611542 0.552657
v -5.910733 2.732636 0.552657
v -5.815166 2.509745 0.552657
v -5.782913 2.434520 0.744673
v -5.894654 2.695136 0.730765
v -0.764486 -11.906016 -2.613505
v -0.668821 -12.008254 -2.613505
v -0.654206 -12.023873 -2.507125
v -0.767001 -11.903329 -2.485356
v -0.743290 -11.995459 -2.613522
v -0.648331 -11.906604 -2.613522
v -0.648331 -11.906604 -2.504555
v -0.747957 -11.999825 -2.483723
v 3.968148 4.057556 -0.823273
v 3.820566 4.088201 -0.823273
v 3.798019 4.092883 -0.730788
v 3.972028 4.056750 -0.711862
v 3.894033 4.123120 -0.823287
v 3.865569 3.986044 -0.823287
v 3.865569 3.986044 -0.728554
v 3.895432 4.129858 -0.710442
v -10.554692 13.070403 2.761478
v -10.431143 13.139035 2.761478
v -10.449759 13.128694 2.862751
v -10.607360 13.041146 2.831604
v -10.549011 13.145415 2.761478
v -10.563380 13.171282 2.839729
v -10.491040 13.041057 2.864546
v -10.490502 13.040090 2.761478
v 5.392943 12.635139 0.241512
v 5.379778 12.421245 0.241512
v 5.381762 12.453474 0.342637
v 5.398556 12.726319 0.311535
v 5.484153 12.566643 0.241512
v 5.528934 12.563887 0.319648
v 5.303483 12.577764 0.344430
v 5.301808 12.577867 0.241512
v -2.532867 -14.868836 -2.767345
v -2.676167 -14.816967 -2.767345
v -2.654574 -14.824783 -2.631299
v -2.471780 -14.890947 -2.673142
v -2.597889 -14.917335 -2.767345
v -2.608748 -14.947336 -2.662227
v -2.554077 -14.796294 -2.628888
v -2.553671 -14.795172 -2.767345
v -6.951066 -7.509768 -0.801433
v -6.951394 -7.488590 -0.696710
v -6.948763 -7.658746 -0.723144
v -6.947868 -7.716652 -0.801433
v -6.780759 -7.591313 -0.801433
v -6.994984 -7.594625 -0.801433
v -7.067285 -7.595742 -0.709427
v -6.816801 -7.591870 -0.716091
v -6.318810 10.233827 1.792972
v -6.286393 10.247089 1.703388
v -6.181940 10.289824 1.703388
v -6.142590 10.305923 1.792972
v -6.201318 10.226233 1.703354
v -6.241652 10.324816 1.703354
v -6.258064 10.364931 1.796871
v -6.197362 10.216564 1.803004
v -9.763002 4.995907 1.521567
v -9.785028 4.993289 1.679777
v -9.608065 5.014328 1.639842
v -9.547843 5.021488 1.521567
v -9.696376 5.182080 1.521567
v -9.669888 4.959286 1.521567
v -9.660947 4.884093 1.660565
v -9.691919 5.144596 1.650497
v 1.385991 -2.450016 -1.398753
v 1.528592 -2.387720 -1.398753
v 1.545756 -2.380221 -1.313370
v 1.341208 -2.469579 -1.315825
v 1.475087 -2.510647 -1.398753
v 1.407491 -2.355915 -1.398753
v 1.405225 -2.350728 -1.326484
v 1.474097 -2.508381 -1.315699
v -9.963956 -13.387750 -1.235630
v -9.989690 -13.588637 -1.235630
v -9.992787 -13.612819 -1.149430
v -9.955873 -13.324662 -1.151909
v -10.091213 -13.446728 -1.235630
v -9.873236 -13.474652 -1.235630
v -9.865929 -13.475588 -1.162669
v -10.088021 -13.447137 -1.151782
v -5.803769 2.891410 0.578232
v -5.576629 2.923440 0.578232
v -5.538281 2.928847 0.655369
v -5.842851 2.885899 0.670209
v -5.669240 2.785029 0.578175
v -5.708044 3.060209 0.578175
v -5.693551 2.957435 0.686707
v -5.666438 2.765162 0.653738
v -2.285279 -7.804088 -1.540302
v -2.048977 -7.714954 -1.540302
v -1.992950 -7.693820 -1.453863
v -2.224722 -7.781245 -1.453863
v -2.087067 -7.841310 -1.540339
v -2.168630 -7.625077 -1.540339
v -2.173858 -7.611218 -1.444705
v -2.100929 -7.804561 -1.453323
v -5.762703 -9.136777 -1.354631
v -5.669107 -9.314333 -1.354631
v -5.683210 -9.287579 -1.253303
v -5.802603 -9.061086 -1.284467
v -5.656376 -9.147179 -1.354631
v -5.619203 -9.127584 -1.276338
v -5.806353 -9.226237 -1.251506
v -5.807744 -9.226970 -1.354631
v -2.018567 13.864660 1.557620
v -1.838182 13.816473 1.557620
v -1.865362 13.823734 1.648446
v -2.095465 13.885202 1.620512
v -1.944320 13.930720 1.557620
v -1.934232 13.968487 1.627799
v -1.985023 13.778354 1.650056
v -1.985400 13.776941 1.557620
v -10.253512 12.701935 2.662866
v -10.306860 12.546641 2.662866
v -10.313281 12.527948 2.766930
v -10.236759 12.750704 2.763937
v -10.364222 12.675955 2.662866
v -10.195717 12.618069 2.662866
v -10.190067 12.616128 2.750947
v -10.361753 12.675107 2.764091
v -5.805068 12.163923 2.034086
v -5.807587 12.207017 1.925254
v -5.815701 12.345878 1.925254
v -5.818758 12.398189 2.034086
v -5.749292 12.297886 1.925213
v -5.880349 12.290228 1.925213
v -5.933678 12.287111 2.038823
v -5.736439 12.298636 2.046274
v -11.605670 -8.806073 -0.085628
v -11.562675 -8.816978 -0.222078
v -11.424139 -8.852117 -0.222078
v -11.371949 -8.865355 -0.085628
v -11.491755 -8.902275 -0.222130
v -11.458591 -8.771524 -0.222130
v -11.445096 -8.718320 -0.079689
v -11.495008 -8.915099 -0.070347
v 0.751221 -7.836445 -2.166993
v 0.868329 -7.630026 -2.166993
v 0.896095 -7.581083 -2.054350
v 0.781233 -7.783545 -2.054350
v 0.916766 -7.744189 -2.167042
v 0.727878 -7.637027 -2.167042
v 0.715772 -7.630159 -2.042415
v 0.884664 -7.725976 -2.053647
v -11.296306 -13.336546 -0.990773
v -11.117865 -13.276789 -0.990773
v -11.096385 -13.269596 -0.898498
v -11.352344 -13.355312 -0.901152
v -11.195483 -13.419125 -0.990773
v -11.260324 -13.225503 -0.990773
v -11.262498 -13.219012 -0.912670
v -11.196433 -13.416289 -0.901015
v -8.710145 13.993183 2.603625
v -8.783688 13.843818 2.603625
v -8.796103 13.818601 2.701116
v -8.697491 14.018883 2.719872
v -8.828914 13.955910 2.603552
v -8.647958 13.866812 2.603552
v -8.715541 13.900088 2.740723
v -8.841978 13.962342 2.699055
v 0.411205 -3.948113 -1.447346
v 0.227092 -3.860765 -1.447346
v 0.204930 -3.850251 -1.339533
v 0.469025 -3.975544 -1.342633
v 0.394532 -3.807973 -1.447346
v 0.299753 -4.007749 -1.447346
v 0.296576 -4.014446 -1.356092
v 0.393144 -3.810899 -1.342474
v -5.882103 8.765404 1.448452
v -5.867693 8.760811 1.588971
v -5.983466 8.797716 1.553501
v -6.022864 8.810276 1.448452
v -5.976019 8.668668 1.448452
v -5.929555 8.814424 1.448452
v -5.913873 8.863616 1.571907
v -5.968202 8.693191 1.562965
v -9.459542 7.287820 1.791571
v -9.326353 7.220216 1.791571
v -9.346422 7.230402 1.893376
v -9.516319 7.316639 1.862065
v -9.390488 7.327217 1.791571
v -9.376334 7.355101 1.870233
v -9.447591 7.214715 1.895181
v -9.448120 7.213673 1.791571
v 0.838870 4.122356 -0.127275
v 0.875022 4.072581 -0.245632
v 0.991510 3.912196 -0.245632
v 1.035393 3.851775 -0.127275
v 0.874929 3.918729 -0.245676
v 1.026301 4.028671 -0.245676
v 1.087897 4.073408 -0.122123
v 0.860083 3.907947 -0.114020
v 1.570101 3.566550 -0.475714
v 1.437617 3.493351 -0.475714
v 1.421670 3.484540 -0.355230
v 1.611706 3.589538 -0.358695
v 1.478343 3.617230 -0.475714
v 1.557769 3.473476 -0.475714
v 1.560432 3.468657 -0.373735
v 1.479506 3.615125 -0.358518
v -9.998680 11.364807 2.453939
v -10.181428 11.370799 2.453939
v -10.153892 11.369896 2.566866
v -9.920775 11.362253 2.532134
v -10.054865 11.285339 2.453939
v -10.056119 11.247079 2.541194
v -10.049804 11.439701 2.568868
v -10.049757 11.441133 2.453939
v -3.451064 0.325635 -0.126190
v -3.468194 0.250597 -0.259104
v -3.523391 0.008810 -0.259104
v -3.544185 -0.082277 -0.126190
v -3.613215 0.124020 -0.259155
v -3.385015 0.071925 -0.259155
v -3.292158 0.050727 -0.120404
v -3.635596 0.129130 -0.111304
v 5.514833 14.034097 0.483694
v 5.496660 14.022471 0.606955
v 5.642673 14.115872 0.575841
v 5.692362 14.147658 0.483694
v 5.494279 14.225318 0.483694
v 5.611871 14.041489 0.483694
v 5.651557 13.979447 0.591986
v 5.514063 14.194389 0.584142
v 0.632129 -6.562185 -1.927913
v 0.643401 -6.573073 -1.762373
v 0.552834 -6.485591 -1.804159
v 0.522014 -6.455820 -1.927913
v 0.500444 -6.608872 -1.927913
v 0.610584 -6.494849 -1.927913
v 0.647756 -6.456367 -1.782476
v 0.518975 -6.589688 -1.793010
v -7.940672 12.907530 2.342667
v -8.079541 12.814922 2.342667
v -8.096256 12.803775 2.529788
v -7.897062 12.936612 2.524406
v -8.046163 12.954798 2.342667
v -7.945677 12.804115 2.342667
v -7.942308 12.799064 2.501048
v -8.044691 12.952591 2.524682
v -1.856512 7.208577 0.698856
v -1.916505 7.225138 0.612279
v -2.109819 7.278503 0.612279
v -2.182645 7.298607 0.698856
v -2.013491 7.346882 0.612246
v -2.063857 7.164432 0.612246
v -2.084352 7.090190 0.702624
v -2.008551 7.364776 0.708552
v -15.265931 -9.615891 -0.094190
v -15.340944 -9.432849 -0.094190
v -15.349974 -9.410816 -0.007565
v -15.242374 -9.673373 -0.010057
v -15.186280 -9.504429 -0.094190
v -15.384893 -9.585823 -0.094190
v -15.391552 -9.588552 -0.020870
v -15.189189 -9.505621 -0.009929
v -3.892760 -14.484616 -2.416997
v -3.871491 -14.481632 -2.314115
v -4.042368 -14.505610 -2.340085
v -4.100519 -14.513768 -2.416997
v -3.953458 -14.666197 -2.416997
v -3.983645 -14.451065 -2.416997
v -3.993833 -14.378459 -2.326609
v -3.958537 -14.630002 -2.333156
v -9.853769 -14.073540 -1.352472
v -9.831627 -14.055358 -1.238359
v -10.009525 -14.201439 -1.267164
v -10.070065 -14.251152 -1.352472
v -9.796661 -14.322486 -1.352472
v -9.980577 -14.098514 -1.352472
v -10.042647 -14.022924 -1.252217
v -9.827604 -14.284803 -1.259479
v -0.962473 -6.391045 -1.634986
v -0.805949 -6.218969 -1.634986
v -0.787108 -6.198257 -1.523291
v -1.011628 -6.445084 -1.526503
v -0.803886 -6.419364 -1.634986
v -0.990600 -6.249524 -1.634986
v -0.996859 -6.243831 -1.540446
v -0.806620 -6.416877 -1.526338
v -0.600085 -7.869465 -1.969196
v -0.413980 -8.043682 -1.969196
v -0.391579 -8.064652 -1.876412
v -0.658530 -7.814753 -1.879080
v -0.633605 -8.042800 -1.969196
v -0.444566 -7.840863 -1.969196
v -0.438229 -7.834093 -1.890662
v -0.630836 -8.039843 -1.878943
v -11.034829 4.048744 1.712070
v -11.076470 4.014136 1.617019
v -11.210648 3.902623 1.617019
v -11.261195 3.860613 1.712070
v -11.211600 4.005388 1.616983
v -11.106354 3.878751 1.616983
v -11.063527 3.827220 1.716207
v -11.221922 4.017808 1.722714
v 1.604658 -1.047984 -1.214311
v 1.454621 -1.088326 -1.214311
v 1.477229 -1.082247 -1.054101
v 1.668618 -1.030787 -1.103375
v 1.578647 -1.126483 -1.214311
v 1.587093 -1.157896 -1.090521
v 1.544571 -0.999751 -1.051260
v 1.544255 -0.998576 -1.214311
v -0.828585 -7.325519 -1.801671
v -0.846220 -7.127268 -1.801671
v -0.848343 -7.103405 -1.681951
v -0.823047 -7.387778 -1.685394
v -0.718863 -7.242087 -1.801671
v -0.933979 -7.261223 -1.801671
v -0.941191 -7.261865 -1.700339
v -0.722013 -7.242368 -1.685217
v -0.452121 -10.306818 -2.411940
v -0.318026 -10.488039 -2.411940
v -0.297540 -10.515725 -2.247699
v -0.455647 -10.302053 -2.214089
v -0.434768 -10.453796 -2.411965
v -0.266448 -10.329247 -2.411965
v -0.266448 -10.329247 -2.243731
v -0.443041 -10.459917 -2.211567
v -6.779938 -9.641375 -1.186221
v -6.679250 -9.466988 -1.186221
v -6.694422 -9.493264 -1.086481
v -6.822860 -9.715715 -1.117157
v -6.827956 -9.545551 -1.186221
v -6.864466 -9.524470 -1.109155
v -6.680655 -9.630599 -1.084713
v -6.679290 -9.631387 -1.186221
v -9.824943 -6.662156 -0.024282
v -9.831224 -6.600877 -0.120972
v -9.851466 -6.403423 -0.120972
v -9.859093 -6.329038 -0.024282
v -9.753796 -6.467692 -0.121008
v -9.940153 -6.486797 -0.121008
v -10.015985 -6.494571 -0.020073
v -9.735518 -6.465818 -0.013453
v -14.221747 14.902794 3.404495
v -14.207665 14.883391 3.555860
v -14.320804 15.039283 3.517652
v -14.359305 15.092335 3.404495
v -14.432543 14.867522 3.404495
v -14.236276 15.009963 3.404495
v -14.170036 15.058036 3.537478
v -14.399522 14.891487 3.527846
v -13.377448 -9.576077 -0.120951
v -13.367051 -9.624413 -0.203883
v -13.333549 -9.780169 -0.203883
v -13.320927 -9.838845 -0.120951
v -13.417121 -9.737477 -0.203914
v -13.270120 -9.705857 -0.203914
v -13.210302 -9.692990 -0.117341
v -13.431539 -9.740578 -0.111664
v -14.315862 -8.764208 0.012379
v -14.315304 -8.790257 0.133083
v -14.319789 -8.580972 0.102614
v -14.321316 -8.509750 0.012379
v -14.525950 -8.665154 0.012379
v -14.262464 -8.659506 0.012379
v -14.173537 -8.657599 0.118425
v -14.481620 -8.664204 0.110744
v -11.805414 -9.506555 -0.269778
v -11.788164 -9.492935 -0.158348
v -11.926756 -9.602357 -0.186475
v -11.973920 -9.639594 -0.269778
v -11.765278 -9.698327 -0.269778
v -11.903038 -9.523842 -0.269778
v -11.949533 -9.464954 -0.171880
v -11.788455 -9.668971 -0.178970
v -10.061739 9.207262 2.225523
v -10.056318 9.164791 2.139740
v -10.038851 9.027941 2.139740
v -10.032271 8.976385 2.225523
v -10.107824 9.070914 2.139708
v -9.978664 9.087399 2.139708
v -9.926107 9.094108 2.229256
v -10.120492 9.069298 2.235129
v -11.892617 13.305522 2.984097
v -11.746020 13.485421 2.984097
v -11.728374 13.507075 3.141521
v -11.938655 13.249027 3.136994
v -11.733104 13.285907 2.984097
v -11.928307 13.444976 2.984097
v -11.934851 13.450308 3.117342
v -11.735963 13.288237 3.137226
v 3.226042 2.776368 -0.901772
v 3.026926 2.721790 -0.901772
v 3.010471 2.717279 -0.818987
v 3.247391 2.782220 -0.770678
v 3.111892 2.837767 -0.901719
v 3.163789 2.648436 -0.901719
v 3.150230 2.697902 -0.808321
v 3.103795 2.867307 -0.795018
v 1.505542 0.619230 -0.946209
v 1.494540 0.598359 -0.839719
v 1.582932 0.766048 -0.866599
v 1.613012 0.823115 -0.946209
v 1.382703 0.789962 -0.946209
v 1.593822 0.678678 -0.946209
v 1.665075 0.641119 -0.852651
v 1.418223 0.771239 -0.859427
v 0.772052 4.113921 -0.212466
v 0.747702 4.116223 -0.018842
v 0.943341 4.097729 -0.067717
v 1.009919 4.091436 -0.212466
v 0.887181 4.299091 -0.212466
v 0.863898 4.052783 -0.212466
v 0.856040 3.969655 -0.042355
v 0.883264 4.257651 -0.054677
v -8.767087 -3.880603 0.105205
v -8.612040 -3.963850 0.105205
v -8.635403 -3.951306 0.230253
v -8.833183 -3.845115 0.191793
v -8.684679 -3.836073 0.105205
v -8.667250 -3.803612 0.201825
v -8.754995 -3.967037 0.232470
v -8.755648 -3.968251 0.105205
v -7.869077 14.612306 2.551994
v -7.896333 14.607350 2.674718
v -7.677351 14.647162 2.643740
v -7.602830 14.660711 2.551994
v -7.800315 14.849498 2.551994
v -7.750192 14.573802 2.551994
v -7.733275 14.480756 2.659814
v -7.791882 14.803113 2.652005
v 0.570535 -0.055097 -0.882459
v 0.548160 -0.055576 -0.772191
v 0.727926 -0.051725 -0.800025
v 0.789103 -0.050414 -0.882459
v 0.655620 0.125360 -0.882459
v 0.660468 -0.100965 -0.882459
v 0.662105 -0.177349 -0.785582
v 0.656435 0.087282 -0.792599
v -10.836392 10.108336 2.476331
v -10.795392 10.123428 2.391702
v -10.663279 10.172057 2.391702
v -10.613508 10.190377 2.476331
v -10.690264 10.093645 2.391670
v -10.736160 10.218334 2.391670
v -10.754836 10.269073 2.480014
v -10.685762 10.081416 2.485808
v -12.234468 -5.429346 0.438824
v -12.485554 -5.441810 0.438824
v -12.515777 -5.443310 0.566670
v -12.155616 -5.425431 0.562993
v -12.334348 -5.286742 0.438824
v -12.320823 -5.559189 0.438824
v -12.320370 -5.568323 0.547034
v -12.334149 -5.290732 0.563182
v 2.196473 3.011148 -0.675977
v 2.141156 3.284987 -0.675977
v 2.132705 3.326822 -0.593379
v 2.197927 3.003948 -0.576476
v 2.254200 3.185231 -0.675990
v 1.999855 3.133852 -0.675990
v 1.999855 3.133852 -0.591384
v 2.266701 3.187756 -0.575208
v -12.179086 -12.711758 -0.739669
v -12.122761 -12.553444 -0.739669
v -12.115980 -12.534388 -0.614816
v -12.196774 -12.761475 -0.618407
v -12.065508 -12.686410 -0.739669
v -12.237290 -12.625293 -0.739669
v -12.243049 -12.623243 -0.633992
v -12.068024 -12.685514 -0.618223
v -15.335306 -5.695081 0.553574
v -15.131907 -5.736783 0.553574
v -15.162555 -5.730499 0.645443
v -15.422014 -5.677304 0.617188
v -15.257202 -5.616894 0.553574
v -15.248471 -5.574309 0.624558
v -15.292426 -5.788699 0.647072
v -15.292752 -5.790292 0.553574
v 2.463487 4.546891 -0.536148
v 2.571876 4.455899 -0.536148
v 2.588434 4.441998 -0.456851
v 2.460638 4.549283 -0.440624
v 2.495599 4.459711 -0.536160
v 2.580113 4.560383 -0.536160
v 2.580113 4.560383 -0.454935
v 2.491445 4.454763 -0.439406
v 4.231866 9.222510 -0.112454
v 4.221171 9.246655 0.061208
v 4.307095 9.052670 0.017372
v 4.336336 8.986655 -0.112454
v 4.467037 9.211911 -0.112454
v 4.222811 9.103734 -0.112454
v 4.140386 9.067225 0.040119
v 4.425947 9.193710 0.029068
v -8.610477 12.893983 2.443683
v -8.727172 12.835419 2.443683
v -8.709589 12.844243 2.611607
v -8.560731 12.918949 2.559960
v -8.618625 12.824965 2.443683
v -8.606363 12.800534 2.573432
v -8.668093 12.923534 2.614584
v -8.668551 12.924449 2.443683
v 3.978634 7.011429 -0.406132
v 4.068754 6.838960 -0.406132
v 4.079601 6.818200 -0.226572
v 3.950332 7.065592 -0.231736
v 3.910750 6.895009 -0.406132
v 4.097892 6.992796 -0.406132
v 4.104166 6.996074 -0.254151
v 3.913491 6.896441 -0.231471
v -5.564136 9.924194 1.691346
v -5.599166 9.923924 1.567371
v -5.712039 9.923054 1.567371
v -5.754561 9.922726 1.691346
v -5.670415 9.974903 1.567324
v -5.669594 9.868373 1.567324
v -5.669260 9.825025 1.696743
v -5.670496 9.985352 1.705230
v 3.538279 6.706419 -0.375112
v 3.537997 6.722625 -0.263004
v 3.540257 6.592420 -0.291303
v 3.541026 6.548110 -0.375112
v 3.668722 6.644265 -0.375112
v 3.504794 6.641421 -0.375112
v 3.449469 6.640460 -0.276619
v 3.641142 6.643787 -0.283753
v -2.450458 -10.553940 -1.999381
v -2.433705 -10.534277 -1.875111
v -2.568302 -10.692253 -1.906479
v -2.614107 -10.746014 -1.999381
v -2.360120 -10.765759 -1.999381
v -2.559010 -10.596303 -1.999381
v -2.626134 -10.539112 -1.890202
v -2.393582 -10.737249 -1.898110
v 4.430219 12.617479 0.590222
v 4.438470 12.671247 0.495948
v 4.465058 12.844502 0.495948
v 4.475075 12.909772 0.590222
v 4.534249 12.767865 0.495912
v 4.370730 12.792959 0.495912
v 4.304192 12.803170 0.594326
v 4.550286 12.765405 0.600780
v -2.922198 -12.190426 -2.255730
v -2.885663 -12.426713 -2.255730
v -2.881265 -12.455154 -2.161181
v -2.933671 -12.116221 -2.163900
v -3.047251 -12.298961 -2.255730
v -2.790862 -12.259317 -2.255730
v -2.782266 -12.257989 -2.175703
v -3.043495 -12.298380 -2.163760
v -7.765774 15.922441 2.866515
v -7.815790 15.915475 2.752292
v -7.976953 15.893030 2.752292
v -8.037666 15.884575 2.866515
v -7.927200 15.974955 2.752249
v -7.906016 15.822849 2.752249
v -7.897397 15.760956 2.871486
v -7.929277 15.989873 2.879307
v -4.889975 8.034169 1.189258
v -5.040642 8.131455 1.189258
v -5.058778 8.143166 1.276065
v -4.842659 8.003617 1.273568
v -4.888491 8.158366 1.189258
v -4.994053 7.994881 1.189258
v -4.997592 7.989400 1.262732
v -4.890037 8.155972 1.273697
v -1.165983 -11.196059 -2.413998
v -1.183521 -11.397925 -2.413998
v -1.180879 -11.367509 -2.205456
v -1.158507 -11.110004 -2.269595
v -1.081400 -11.262975 -2.413998
v -1.039137 -11.266647 -2.252864
v -1.251911 -11.248161 -2.201759
v -1.253492 -11.248024 -2.413998
v -10.347002 -14.085733 -1.162199
v -10.405182 -14.113556 -1.254220
v -10.592650 -14.203205 -1.254220
v -10.663274 -14.236979 -1.162199
v -10.563783 -14.084253 -1.254255
v -10.479171 -14.261187 -1.254255
v -10.444741 -14.333183 -1.158194
v -10.572081 -14.066900 -1.151893
v -2.960478 10.654062 1.265206
v -2.948041 10.636321 1.373846
v -3.047963 10.778859 1.346423
v -3.081968 10.827367 1.265206
v -3.151473 10.625313 1.265206
v -2.972019 10.751114 1.265206
v -2.911453 10.793571 1.360653
v -3.121281 10.646479 1.353740
v 2.042374 4.935442 -0.394002
v 1.952647 4.755612 -0.394002
v 1.941847 4.733966 -0.277601
v 2.070552 4.991916 -0.280949
v 1.903868 4.921742 -0.394002
v 2.098996 4.824383 -0.394002
v 2.105538 4.821119 -0.295479
v 1.906726 4.920317 -0.280777
v -0.936951 -12.734632 -2.712487
v -0.934182 -12.716949 -2.579232
v -0.956434 -12.859012 -2.612868
v -0.964007 -12.907356 -2.712487
v -0.806855 -12.826996 -2.712487
v -0.985710 -12.798980 -2.712487
v -1.046073 -12.789525 -2.595414
v -0.836947 -12.822282 -2.603894
v 2.699037 9.039995 0.182535
v 2.884920 8.916055 0.182535
v 2.856911 8.934731 0.272353
v 2.619797 9.092830 0.244729
v 2.808562 9.086312 0.182535
v 2.834511 9.125229 0.251935
v 2.703874 8.929302 0.273945
v 2.702903 8.927847 0.182535
v -1.339399 -12.383582 -2.586791
v -1.358969 -12.383157 -2.394651
v -1.201737 -12.386569 -2.443151
v -1.148229 -12.387730 -2.586791
v -1.258245 -12.229099 -2.586791
v -1.262540 -12.427053 -2.586791
v -1.263990 -12.493862 -2.417984
v -1.258968 -12.262404 -2.430211
v -9.646158 3.955804 1.385653
v -9.866077 4.025405 1.385653
v -9.832940 4.014918 1.486666
v -9.552408 3.926134 1.455598
v -9.741501 3.878445 1.385653
v -9.756073 3.832403 1.463702
v -9.682711 4.064205 1.488456
v -9.682166 4.065927 1.385653
v -2.088044 4.591479 0.101106
v -2.130699 4.355414 0.101106
v -2.135834 4.326999 0.207186
v -2.074648 4.665613 0.204135
v -2.242162 4.529451 0.101106
v -1.986015 4.483167 0.101106
v -1.977428 4.481615 0.190893
v -2.238411 4.528773 0.204291
v -7.738131 -6.298589 -0.304054
v -7.747659 -6.259531 -0.430984
v -7.778363 -6.133677 -0.430984
v -7.789930 -6.086265 -0.304054
v -7.709482 -6.166515 -0.431032
v -7.828263 -6.195493 -0.431032
v -7.876596 -6.207284 -0.298529
v -7.697833 -6.163672 -0.289839
v 3.324750 4.375377 -0.677401
v 3.099138 4.339560 -0.677401
v 3.133133 4.344956 -0.577375
v 3.420927 4.390646 -0.608139
v 3.274594 4.264614 -0.677401
v 3.282093 4.217379 -0.600114
v 3.244340 4.455182 -0.575602
v 3.244059 4.456948 -0.677401
v -15.248373 -7.850000 0.187479
v -15.373801 -7.930886 0.187479
v -15.388899 -7.940622 0.276171
v -15.208983 -7.824599 0.273620
v -15.342036 -7.806290 0.187479
v -15.254270 -7.942389 0.187479
v -15.251328 -7.946951 0.262548
v -15.340751 -7.808283 0.273751
v 0.917230 -8.230865 -2.266472
v 1.011670 -8.020903 -2.266472
v 0.997440 -8.052540 -2.150621
v 0.876971 -8.320370 -2.186252
v 0.851571 -8.127398 -2.266472
v 0.807613 -8.107627 -2.176958
v 1.028920 -8.207170 -2.148567
v 1.030564 -8.207909 -2.266472
v -2.267733 12.822495 1.572740
v -2.297003 12.848382 1.479348
v -2.391318 12.931795 1.479348
v -2.426849 12.963219 1.572740
v -2.318129 12.943795 1.479312
v -2.396854 12.854780 1.479312
v -2.428889 12.818559 1.576805
v -2.310408 12.952525 1.583199
v -11.298751 14.716379 3.088276
v -11.336139 14.515225 3.088276
v -11.330505 14.545535 3.191218
v -11.282812 14.802130 3.159557
v -11.220298 14.640850 3.088276
v -11.178184 14.633022 3.167816
v -11.390206 14.672430 3.193043
v -11.391782 14.672723 3.088276
v 0.373058 -8.508952 -2.260032
v 0.408342 -8.787210 -2.260032
v 0.416708 -8.853185 -2.170869
v 0.382100 -8.580261 -2.170869
v 0.281687 -8.713449 -2.260071
v 0.536312 -8.681162 -2.260071
v 0.552632 -8.679092 -2.161422
v 0.324961 -8.707962 -2.170313
v 4.044826 4.420541 -0.780226
v 3.872138 4.534288 -0.780226
v 3.851351 4.547980 -0.675362
v 4.099057 4.384820 -0.678378
v 4.047841 4.563716 -0.780226
v 3.924418 4.376338 -0.780226
v 3.920280 4.370056 -0.691468
v 4.046033 4.560972 -0.678223
v 2.251444 -0.775137 -1.294344
v 2.428690 -0.718561 -1.294344
v 2.401982 -0.727086 -1.193516
v 2.175885 -0.799256 -1.224527
v 2.278209 -0.679791 -1.294344
v 2.266364 -0.642682 -1.216438
v 2.325997 -0.829505 -1.191729
v 2.326440 -0.830893 -1.294344
v -15.463235 -12.991151 -0.681267
v -15.462592 -13.188686 -0.681267
v -15.462515 -13.212464 -0.578890
v -15.463436 -12.929116 -0.581834
v -15.578802 -13.064357 -0.681267
v -15.364462 -13.063660 -0.681267
v -15.357276 -13.063637 -0.594614
v -15.575664 -13.064346 -0.581683
v 1.073401 -6.355229 -2.002891
v 1.128339 -6.517109 -2.002891
v 1.137615 -6.544440 -1.925086
v 1.063948 -6.327376 -1.910117
v 1.014153 -6.468483 -2.002949
v 1.210271 -6.401925 -2.002949
v 1.137025 -6.426783 -1.893476
v 0.999994 -6.473288 -1.926731
v -11.247928 -8.802321 -0.249881
v -11.259725 -8.824072 -0.084807
v -11.164947 -8.649323 -0.126475
v -11.132693 -8.589854 -0.249881
v -11.374619 -8.621756 -0.249881
v -11.154613 -8.741079 -0.249881
v -11.080361 -8.781351 -0.104853
v -11.337605 -8.641831 -0.115357
v -4.370307 3.255610 0.434209
v -4.351408 3.237114 0.696056
v -4.503248 3.385714 0.629960
v -4.554921 3.436284 0.434209
v -4.593001 3.178292 0.434209
v -4.405915 3.369457 0.434209
v -4.342773 3.433974 0.664258
v -4.561524 3.210454 0.647595
v -1.226526 -12.129518 -2.549822
v -1.045119 -11.935343 -2.549822
v -1.030127 -11.919296 -2.460552
v -1.245977 -12.150337 -2.408459
v -1.059986 -12.119788 -2.549764
v -1.244619 -11.947295 -2.549764
v -1.196380 -11.992362 -2.449050
v -1.031179 -12.146701 -2.434706
v 3.866501 5.513318 -0.617395
v 4.004794 5.372612 -0.617395
v 4.021440 5.355675 -0.350158
v 3.823072 5.557506 -0.357844
v 3.835000 5.380368 -0.617395
v 3.987676 5.530425 -0.617395
v 3.992794 5.535455 -0.391203
v 3.837236 5.382565 -0.357450
v -2.843526 4.514202 0.281885
v -2.648060 4.381361 0.281885
v -2.615060 4.358933 0.358297
v -2.877158 4.537058 0.372998
v -2.814552 4.339891 0.281828
v -2.653615 4.576698 0.281828
v -2.713722 4.488256 0.389341
v -2.826171 4.322795 0.356682
v -1.811060 -12.973962 -2.580110
v -1.931567 -12.954259 -2.580110
v -1.946073 -12.951887 -2.398739
v -1.773216 -12.980149 -2.403955
v -1.843939 -12.896050 -2.580110
v -1.865318 -13.026810 -2.580110
v -1.866035 -13.031194 -2.426596
v -1.844252 -12.897965 -2.403687
v -8.846393 -7.556875 -0.471055
v -8.830814 -7.537975 -0.327847
v -8.955976 -7.689823 -0.363996
v -8.998569 -7.741498 -0.471055
v -8.757475 -7.756292 -0.471055
v -8.948648 -7.598716 -0.471055
v -9.013169 -7.545535 -0.345238
v -8.789639 -7.729780 -0.354351
v 2.969006 5.367005 -0.487626
v 2.952031 5.366490 -0.386946
v 3.088417 5.370630 -0.412360
v 3.134830 5.372039 -0.487626
v 3.032349 5.504517 -0.487626
v 3.037561 5.332808 -0.487626
v 3.039320 5.274858 -0.399172
v 3.033226 5.475627 -0.405579
v -8.692726 12.182397 2.346376
v -8.582591 12.091582 2.346376
v -8.599186 12.105267 2.444203
v -8.739676 12.221110 2.414115
v -8.620109 12.204750 2.346376
v -8.601095 12.227808 2.421964
v -8.696817 12.111721 2.445937
v -8.697528 12.110859 2.346376
v -14.292643 12.559016 3.087245
v -14.242544 12.772793 3.087245
v -14.238404 12.790459 3.177104
v -14.298014 12.536096 3.229541
v -14.177309 12.634509 3.087302
v -14.380581 12.682146 3.087302
v -14.327473 12.669700 3.188681
v -14.145595 12.627077 3.203120
v -10.485582 3.507789 1.470795
v -10.468241 3.487891 1.593940
v -10.607567 3.647757 1.562856
v -10.654982 3.702161 1.470795
v -10.713276 3.448472 1.470795
v -10.512007 3.623883 1.470795
v -10.444079 3.683083 1.578985
v -10.679414 3.477984 1.571149
v -15.403690 14.702458 3.451574
v -15.255969 14.651918 3.451574
v -15.278227 14.659534 3.558383
v -15.466662 14.724003 3.525533
v -15.337964 14.753311 3.451574
v -15.327383 14.784239 3.534102
v -15.380653 14.628535 3.560277
v -15.381049 14.627378 3.451574
v -5.094186 14.098157 2.075624
v -5.032313 14.258000 2.075624
v -5.024866 14.277241 2.167407
v -5.113616 14.047958 2.164768
v -4.977666 14.120816 2.075624
v -5.151108 14.187953 2.075624
v -5.156923 14.190204 2.153310
v -4.980206 14.121800 2.164903
v -14.753396 -9.506502 -0.119949
v -14.801816 -9.727559 -0.119949
v -14.794520 -9.694250 -0.020193
v -14.732756 -9.412266 -0.050874
v -14.669328 -9.592764 -0.119949
v -14.623047 -9.602901 -0.042870
v -14.856049 -9.551865 -0.018424
v -14.857780 -9.551486 -0.119949
v 3.810426 7.656204 -0.252423
v 3.758792 7.829656 -0.252423
v 3.752577 7.850534 -0.152601
v 3.826642 7.601732 -0.155472
v 3.893075 7.750424 -0.252423
v 3.704867 7.694397 -0.252423
v 3.698558 7.692519 -0.167933
v 3.890319 7.749604 -0.155324
v 2.761725 0.361949 -1.164109
v 2.523060 0.462708 -1.164109
v 2.466472 0.486598 -1.078634
v 2.700562 0.387771 -1.078634
v 2.640685 0.529718 -1.164146
v 2.548483 0.311323 -1.164146
v 2.542573 0.297325 -1.069578
v 2.625015 0.492601 -1.078101
v 1.438904 4.721043 -0.226699
v 1.260987 4.720565 -0.226699
v 1.239571 4.720508 -0.089652
v 1.494778 4.721193 -0.093594
v 1.373028 4.825171 -0.226699
v 1.373546 4.632118 -0.226699
v 1.373564 4.625646 -0.110702
v 1.373036 4.822343 -0.093392
v -15.869534 13.498081 3.333933
v -15.844056 13.502192 3.469166
v -16.048748 13.469158 3.435030
v -16.118406 13.457917 3.333933
v -15.937961 13.278435 3.333933
v -15.979549 13.536139 3.333933
v -15.993587 13.623114 3.452744
v -15.944958 13.321793 3.444138
v 0.282619 14.885197 1.499637
v 0.259509 14.933228 1.400586
v 0.185042 15.087998 1.400586
v 0.156988 15.146304 1.499637
v 0.283415 15.064373 1.400548
v 0.137343 14.994091 1.400548
v 0.077904 14.965492 1.503949
v 0.297742 15.071266 1.510730
v 1.462672 -5.940993 -1.993946
v 1.578724 -6.068748 -1.993946
v 1.561237 -6.049498 -1.867445
v 1.413199 -5.886531 -1.906352
v 1.553441 -5.926829 -1.993946
v 1.580189 -5.902532 -1.896203
v 1.445530 -6.024856 -1.865202
v 1.444530 -6.025764 -1.993946
v -10.147447 -9.955614 -0.632985
v -10.291082 -10.076690 -0.632985
v -10.269440 -10.058446 -0.529482
v -10.086216 -9.904000 -0.561316
v -10.135701 -10.054913 -0.632985
v -10.110353 -10.084985 -0.553012
v -10.237970 -9.933588 -0.527647
v -10.238918 -9.932463 -0.632985
v 0.529007 12.355751 1.012542
v 0.524470 12.405830 0.916049
v 0.509851 12.567196 0.916049
v 0.504343 12.627987 1.012542
v 0.588955 12.513796 0.916013
v 0.436657 12.499998 0.916013
v 0.374685 12.494384 1.016742
v 0.603892 12.515148 1.023349
v -15.576650 -15.023640 -1.003902
v -15.753564 -14.968999 -1.003902
v -15.774859 -14.962421 -0.911828
v -15.521091 -15.040799 -0.914476
v -15.609843 -14.899778 -1.003902
v -15.669132 -15.091743 -1.003902
v -15.671120 -15.098179 -0.925970
v -15.610711 -14.902590 -0.914340
v -14.150323 4.563464 2.052059
v -14.104304 4.572669 1.970864
v -13.956021 4.602327 1.970864
v -13.900160 4.613501 2.052059
v -13.997685 4.523596 1.970833
v -14.025678 4.663546 1.970833
v -14.037068 4.720494 2.055593
v -13.994941 4.509871 2.061152
v -1.480636 -13.269872 -2.709259
v -1.301814 -13.233901 -2.709259
v -1.271623 -13.227829 -2.600788
v -1.511404 -13.276061 -2.579919
v -1.368905 -13.348074 -2.709340
v -1.412483 -13.131431 -2.709340
v -1.396207 -13.212343 -2.556719
v -1.365758 -13.363715 -2.603081
v -5.279623 13.217091 1.970315
v -5.320594 13.086097 1.970315
v -5.314420 13.105835 2.087596
v -5.262157 13.272933 2.051525
v -5.233402 13.160517 1.970315
v -5.205976 13.151939 2.060934
v -5.344049 13.195124 2.089675
v -5.345075 13.195444 1.970315
v 3.573592 5.387438 -0.567925
v 3.393979 5.298716 -0.567925
v 3.421043 5.312085 -0.451643
v 3.650160 5.425260 -0.487407
v 3.560421 5.281625 -0.567925
v 3.578996 5.244020 -0.478078
v 3.485480 5.433339 -0.449582
v 3.484785 5.434745 -0.567925
v -12.288652 12.059672 2.964404
v -12.266933 12.103194 2.864602
v -12.196949 12.243431 2.864602
v -12.170585 12.296262 2.964404
v -12.158987 12.159276 2.864564
v -12.291343 12.225327 2.864564
v -12.345201 12.252205 2.968748
v -12.146006 12.152799 2.975581
v 0.423452 -9.122818 -2.350765
v 0.600125 -9.097722 -2.350765
v 0.627116 -9.093888 -2.260699
v 0.418807 -9.123478 -2.242268
v 0.532313 -9.166099 -2.350779
v 0.509004 -9.002003 -2.350779
v 0.509004 -9.002003 -2.258523
v 0.533459 -9.174164 -2.240885
v 2.719160 2.475280 -0.863340
v 2.652615 2.655901 -0.863340
v 2.662642 2.628686 -0.726264
v 2.747528 2.398283 -0.768423
v 2.619394 2.498603 -0.863340
v 2.581578 2.484671 -0.757426
v 2.771959 2.554812 -0.723834
v 2.773373 2.555333 -0.863340
v 0.830375 -0.319039 -0.948664
v 0.706435 -0.186021 -0.948664
v 0.691516 -0.170009 -0.850856
v 0.869297 -0.360812 -0.853669
v 0.862661 -0.197337 -0.948664
v 0.718326 -0.331821 -0.948664
v 0.713488 -0.336330 -0.865878
v 0.860547 -0.199307 -0.853525
v -12.817450 15.365538 3.345036
v -12.781384 15.546215 3.345036
v -12.786819 15.518991 3.494500
v -12.832824 15.288516 3.448530
v -12.887189 15.434483 3.345036
v -12.925016 15.442033 3.460522
v -12.734575 15.404019 3.497149
v -12.733161 15.403737 3.345036
v -3.949659 0.224916 -0.156874
v -3.735491 0.116032 -0.156874
v -3.684711 0.090216 -0.072277
v -3.894774 0.197012 -0.072277
v -3.848705 0.061767 -0.156911
v -3.749068 0.257746 -0.156911
v -3.742682 0.270307 -0.063314
v -3.831771 0.095075 -0.071749
v -7.548256 13.351346 2.335604
v -7.540266 13.369936 2.531633
v -7.604460 13.220574 2.482151
v -7.626306 13.169745 2.335604
v -7.431653 13.213714 2.335604
v -7.619699 13.294533 2.335604
v -7.683163 13.321810 2.507827
v -7.463291 13.227311 2.495353
v -2.965774 9.467639 1.092144
v -2.955040 9.452052 1.271972
v -3.041276 9.577281 1.226580
v -3.070623 9.619898 1.092144
v -3.132807 9.443922 1.092144
v -2.975145 9.552492 1.092144
v -2.921935 9.589134 1.250134
v -3.106281 9.462189 1.238691
v -1.507597 -12.998521 -2.636318
v -1.506074 -13.012251 -2.430907
v -1.518310 -12.901939 -2.482757
v -1.522474 -12.864399 -2.636318
v -1.623215 -12.956115 -2.636318
v -1.484334 -12.940710 -2.636318
v -1.437461 -12.935512 -2.455851
v -1.599849 -12.953524 -2.468923
v 1.109174 2.950816 -0.264468
v 1.091096 2.999982 -0.458848
v 1.032843 3.158405 -0.458848
v 1.010897 3.218086 -0.264468
v 1.126847 3.126018 -0.458922
v 0.977327 3.071039 -0.458922
v 0.916485 3.048667 -0.256007
v 1.141512 3.131410 -0.242699
v -1.580339 -7.615014 -1.688688
v -1.610900 -7.621362 -1.573322
v -1.365363 -7.570363 -1.602443
v -1.281804 -7.553007 -1.688688
v -1.509554 -7.345912 -1.688688
v -1.445347 -7.655042 -1.688688
v -1.423677 -7.759372 -1.587332
v -1.498751 -7.397922 -1.594673
v -5.758780 16.049383 2.439589
v -5.830770 15.865310 2.439589
v -5.841768 15.837189 2.517509
v -5.756888 16.054224 2.533454
v -5.859799 15.967948 2.439577
v -5.688829 15.901083 2.439577
v -5.688829 15.901083 2.519391
v -5.868203 15.971234 2.534650
v -3.703136 -1.144058 -0.404763
v -3.679907 -1.276823 -0.404763
v -3.683407 -1.256818 -0.265739
v -3.713039 -1.087462 -0.308497
v -3.637326 -1.172617 -0.404763
v -3.609530 -1.167754 -0.297344
v -3.749468 -1.192238 -0.263274
v -3.750507 -1.192420 -0.404763
v -9.026247 -9.389865 -0.628589
v -8.957845 -9.368753 -0.763033
v -8.737437 -9.300729 -0.763033
v -8.654405 -9.275103 -0.628589
v -8.788440 -9.426667 -0.763084
v -8.852641 -9.218646 -0.763084
v -8.878766 -9.133999 -0.622737
v -8.782143 -9.447068 -0.613533
v -11.124688 11.014104 2.585716
v -11.106151 11.004704 2.705708
v -11.255092 11.080220 2.675420
v -11.305778 11.105919 2.585716
v -11.273357 10.903519 2.585716
v -11.178285 11.091034 2.585716
v -11.146198 11.154320 2.691136
v -11.257362 10.935067 2.683501
v -7.863080 15.004049 2.613013
v -7.854742 15.024573 2.771815
v -7.921728 14.859675 2.731730
v -7.944524 14.803559 2.613013
v -7.732426 14.855960 2.613013
v -7.940031 14.940294 2.613013
v -8.010098 14.968757 2.752530
v -7.767355 14.870149 2.742425
v 1.036921 -1.153307 -1.139118
v 1.160391 -0.998289 -1.139118
v 1.141787 -1.021647 -0.995544
v 0.984286 -1.219390 -1.039702
v 1.004184 -1.053030 -1.139118
v 0.971729 -1.027180 -1.028183
v 1.135123 -1.157322 -0.992998
v 1.136337 -1.158289 -1.139118
v -6.113816 -6.989235 -0.829557
v -6.286766 -6.902653 -0.829557
v -6.307584 -6.892231 -0.714963
v -6.059502 -7.016426 -0.718259
v -6.126822 -6.855922 -0.829557
v -6.220770 -7.043585 -0.829557
v -6.223919 -7.049877 -0.732564
v -6.128198 -6.858671 -0.718090
v -4.177174 3.879428 0.456918
v -4.073650 3.760879 0.456918
v -4.061189 3.746609 0.605828
v -4.209684 3.916657 0.601545
v -4.208504 3.775030 0.456918
v -4.079871 3.887360 0.456918
v -4.075558 3.891126 0.582956
v -4.206621 3.776675 0.601765
v -1.252914 -12.843188 -2.684595
v -1.188403 -13.032521 -2.684595
v -1.183072 -13.048167 -2.598692
v -1.259831 -12.822888 -2.548563
v -1.305562 -12.957191 -2.684540
v -1.125533 -12.895850 -2.684540
v -1.172569 -12.911877 -2.587624
v -1.333651 -12.966763 -2.573821
v -4.576374 2.865930 0.414692
v -4.806158 2.942240 0.414692
v -4.844952 2.955123 0.500911
v -4.536837 2.852800 0.517499
v -4.653644 3.029642 0.414628
v -4.746093 2.751259 0.414628
v -4.711565 2.855229 0.535939
v -4.646970 3.049740 0.499089
v -6.863683 -6.620365 -0.673164
v -6.871822 -6.606152 -0.525057
v -6.806425 -6.720342 -0.562442
v -6.784170 -6.759202 -0.673164
v -6.717919 -6.611886 -0.673164
v -6.861684 -6.694221 -0.673164
v -6.910204 -6.722009 -0.543043
v -6.742107 -6.625739 -0.552468
v -0.620775 -11.594992 -2.597756
v -0.610416 -11.851457 -2.597756
v -0.607959 -11.912266 -2.468631
v -0.618120 -11.660717 -2.468631
v -0.720111 -11.774280 -2.597813
v -0.485428 -11.764800 -2.597813
v -0.470386 -11.764193 -2.454951
v -0.680226 -11.772668 -2.467825
v -8.561440 -8.083026 -0.605027
v -8.676900 -8.208854 -0.605027
v -8.690798 -8.223999 -0.512874
v -8.525182 -8.043511 -0.515525
v -8.677775 -8.061729 -0.605027
v -8.541244 -8.187012 -0.605027
v -8.536666 -8.191212 -0.527028
v -8.675776 -8.063564 -0.515389
v -7.271535 -4.823486 -0.278668
v -7.440016 -4.747645 -0.278668
v -7.460296 -4.738516 -0.182154
v -7.218626 -4.847303 -0.184929
v -7.289191 -4.696754 -0.278668
v -7.371484 -4.879567 -0.278668
v -7.374243 -4.885695 -0.196977
v -7.290396 -4.699431 -0.184787
v -11.787936 -14.242970 -1.029430
v -12.012054 -14.255685 -1.029430
v -12.039032 -14.257215 -0.880703
v -11.717554 -14.238976 -0.884981
v -11.878020 -14.116269 -1.029430
v -11.864223 -14.359453 -1.029430
v -11.863761 -14.367606 -0.903546
v -11.877819 -14.119831 -0.884761
v -0.874156 -11.234173 -2.442160
v -0.905366 -11.030039 -2.442160
v -0.910636 -10.995574 -2.318962
v -0.868786 -11.269297 -2.295260
v -0.779801 -11.111957 -2.442252
v -1.027110 -11.149769 -2.442252
v -0.934745 -11.135647 -2.268910
v -0.761946 -11.109227 -2.321566
v -10.833330 10.788003 2.562013
v -10.822348 10.740597 2.472257
v -10.786958 10.587843 2.472257
v -10.773625 10.530296 2.562013
v -10.869864 10.628555 2.472223
v -10.725694 10.661957 2.472223
v -10.667028 10.675548 2.565920
v -10.884003 10.625279 2.572065
v -2.925964 15.526935 1.956535
v -2.919636 15.720492 1.956535
v -2.918874 15.743791 2.044559
v -2.927951 15.466149 2.042027
v -2.810158 15.594587 1.956535
v -3.020182 15.601454 1.956535
v -3.027223 15.601684 2.031039
v -2.813234 15.594687 2.042157
v -11.378092 15.091651 3.141302
v -11.250149 14.923386 3.141302
v -11.234748 14.903131 3.232059
v -11.418272 15.144493 3.229449
v -11.429565 14.954607 3.141302
v -11.246985 15.093435 3.141302
v -11.240865 15.098089 3.218119
v -11.426891 14.956640 3.229582
v 1.164108 -1.679236 -1.225977
v 1.169888 -1.696285 -1.109232
v 1.123456 -1.559307 -1.138700
v 1.107655 -1.512691 -1.225977
v 1.005091 -1.657606 -1.225977
v 1.177546 -1.599149 -1.225977
v 1.235749 -1.579420 -1.123409
v 1.034106 -1.647771 -1.130838
v 4.812818 11.644197 0.189499
v 5.006349 11.600687 0.189499
v 4.977187 11.607243 0.330600
v 4.730316 11.662746 0.287203
v 4.888836 11.717469 0.189499
v 4.897945 11.757988 0.298523
v 4.852083 11.553999 0.333101
v 4.851743 11.552484 0.189499
v -12.128517 13.097379 2.962922
v -12.185218 12.855372 2.962922
v -12.193880 12.818400 3.045170
v -12.127027 13.103741 3.062001
v -12.239705 12.977945 2.962910
v -12.014927 12.925282 2.962910
v -12.014927 12.925282 3.047157
v -12.250752 12.980534 3.063264
v 3.024070 1.228347 -1.133887
v 3.221182 1.254172 -1.133887
v 3.267917 1.260295 -1.010388
v 3.074584 1.234965 -1.010388
v 3.169276 1.164188 -1.133941
v 3.145645 1.344560 -1.133941
v 3.144130 1.356120 -0.997303
v 3.165260 1.194843 -1.009617
v -1.463190 -7.757349 -1.591453
v -1.443040 -7.690689 -1.699827
v -1.378115 -7.475894 -1.699827
v -1.353656 -7.394976 -1.591453
v -1.304234 -7.585496 -1.699868
v -1.506958 -7.524220 -1.699868
v -1.589450 -7.499285 -1.586735
v -1.284352 -7.591506 -1.579316
v -9.350235 13.750588 2.783594
v -9.367717 13.696830 2.658355
v -9.424049 13.523609 2.658355
v -9.445271 13.458352 2.783594
v -9.482151 13.613811 2.658308
v -9.318665 13.560645 2.658308
v -9.252139 13.539011 2.789045
v -9.498185 13.619026 2.797619
v -7.707386 4.311117 1.119307
v -7.692393 4.301538 1.243940
v -7.812846 4.378501 1.212480
v -7.853837 4.404693 1.119307
v -7.843404 4.229543 1.119307
v -7.746507 4.381192 1.119307
v -7.713805 4.432374 1.228805
v -7.827101 4.255058 1.220874
v -9.465917 4.096182 1.501006
v -9.518602 4.107438 1.392887
v -9.688369 4.143705 1.392887
v -9.752323 4.157368 1.501006
v -9.608612 4.207699 1.392846
v -9.642841 4.047474 1.392846
v -9.656770 3.982276 1.505712
v -9.605255 4.223413 1.513114
v 3.753668 3.860718 -0.816144
v 3.727732 4.046246 -0.816144
v 3.723770 4.074590 -0.737521
v 3.754350 3.855840 -0.721432
v 3.799356 3.974899 -0.816157
v 3.627035 3.950809 -0.816157
v 3.627035 3.950809 -0.735622
v 3.807825 3.976083 -0.720225
v -10.993394 12.763314 2.811120
v -11.223400 12.805752 2.811120
v -11.258539 12.812236 2.894712
v -10.987347 12.762198 2.911819
v -11.110638 12.862463 2.811107
v -11.150054 12.648830 2.811107
v -11.150054 12.648830 2.896732
v -11.108700 12.872963 2.913102
v 2.205268 -1.688446 -1.416422
v 2.297128 -1.555864 -1.416422
v 2.308185 -1.539905 -1.230143
v 2.176420 -1.730082 -1.235500
v 2.316862 -1.693417 -1.416422
v 2.173001 -1.593743 -1.416422
v 2.168178 -1.590401 -1.258754
v 2.314754 -1.691957 -1.235225
v -12.664513 -14.960151 -1.089777
v -12.432458 -14.966878 -1.089777
v -12.404526 -14.967688 -0.949269
v -12.737388 -14.958038 -0.953310
v -12.582900 -15.098673 -1.089777
v -12.575602 -14.846876 -1.089777
v -12.575356 -14.838435 -0.970850
v -12.582793 -15.094985 -0.953102
v 2.547809 -1.036529 -1.283389
v 2.505636 -1.072778 -1.372572
v 2.369743 -1.189578 -1.372572
v 2.318549 -1.233580 -1.283389
v 2.367016 -1.084062 -1.372606
v 2.477252 -1.212318 -1.372606
v 2.522109 -1.264507 -1.279507
v 2.356204 -1.071483 -1.273401
v -0.068175 -9.336880 -2.286701
v -0.183106 -9.466658 -2.286701
v -0.196940 -9.482279 -2.002380
v -0.032082 -9.296124 -2.010557
v -0.186631 -9.317349 -2.286701
v -0.045813 -9.442058 -2.286701
v -0.041092 -9.446239 -2.046049
v -0.184568 -9.319177 -2.010137
v -7.597777 -8.195275 -0.789401
v -7.443060 -8.050861 -0.789401
v -7.466372 -8.072622 -0.667293
v -7.663732 -8.256839 -0.704849
v -7.616649 -8.084217 -0.789401
v -7.646884 -8.051825 -0.695052
v -7.494667 -8.214902 -0.665129
v -7.493536 -8.216113 -0.789401
v -15.211345 11.551142 3.015519
v -15.141879 11.721773 3.015519
v -15.133517 11.742312 3.101106
v -15.233160 11.497556 3.098644
v -15.085701 11.573328 3.015519
v -15.270848 11.648703 3.015519
v -15.277056 11.651230 3.087960
v -15.088412 11.574431 3.098771
v 3.680176 2.777091 -0.963594
v 3.542687 2.932890 -0.963594
v 3.519475 2.959194 -0.886784
v 3.703832 2.750284 -0.872006
v 3.693540 2.931875 -0.963652
v 3.504789 2.765308 -0.963652
v 3.575284 2.827518 -0.855578
v 3.707167 2.943901 -0.888408
v -1.098823 -4.990933 -1.292270
v -1.085051 -5.012511 -1.137002
v -1.195695 -4.839147 -1.176195
v -1.233348 -4.780149 -1.292270
v -1.325738 -5.015085 -1.292270
v -1.107474 -4.875786 -1.292270
v -1.033810 -4.828773 -1.155858
v -1.289016 -4.991649 -1.165738
v -6.015130 15.653138 2.434793
v -5.885587 15.870021 2.434793
v -5.869994 15.896128 2.546049
v -6.055812 15.585029 2.542849
v -5.840222 15.657157 2.434793
v -6.075556 15.797720 2.434793
v -6.083445 15.802432 2.528961
v -5.843669 15.659215 2.543014
v 3.077203 2.362600 -0.847546
v 3.135125 2.363435 -0.979845
v 3.321764 2.366126 -0.979845
v 3.392075 2.367139 -0.847546
v 3.253510 2.279925 -0.979895
v 3.250970 2.456075 -0.979895
v 3.249937 2.527754 -0.841788
v 3.253759 2.262649 -0.832730
v 2.179726 4.995597 -0.231495
v 2.208137 5.056185 -0.384220
v 2.299683 5.251415 -0.384220
v 2.334171 5.324963 -0.231495
v 2.354722 5.136944 -0.384278
v 2.170464 5.223346 -0.384278
v 2.095486 5.258504 -0.224847
v 2.372793 5.128470 -0.214391
v 2.028901 -4.665088 -1.675551
v 1.998597 -4.623537 -1.827721
v 1.900952 -4.489649 -1.827721
v 1.864166 -4.439210 -1.675551
v 1.998422 -4.494919 -1.827779
v 1.872058 -4.587078 -1.827779
v 1.820639 -4.624578 -1.668928
v 2.010815 -4.485881 -1.658510
v -9.427675 14.109417 2.836669
v -9.443209 14.062505 2.721472
v -9.493259 13.911342 2.721472
v -9.512115 13.854395 2.836669
v -9.543631 13.990465 2.721428
v -9.400963 13.943227 2.721428
v -9.342909 13.924005 2.841683
v -9.557623 13.995097 2.849570
v -14.198632 -9.113340 -0.071239
v -14.330965 -9.202865 -0.071239
v -14.346893 -9.213641 0.032565
v -14.157074 -9.085226 0.029580
v -14.299905 -9.068768 -0.071239
v -14.202765 -9.212358 -0.071239
v -14.199508 -9.217172 0.016622
v -14.298482 -9.070870 0.029733
v -6.359190 8.098008 1.526550
v -6.380124 8.133501 1.443488
v -6.447576 8.247869 1.443488
v -6.472986 8.290954 1.526550
v -6.370257 8.236083 1.443457
v -6.478198 8.172421 1.443457
v -6.522120 8.146517 1.530165
v -6.359671 8.242327 1.535852
v -1.554600 -12.191764 -2.511666
v -1.451066 -12.277161 -2.511666
v -1.466666 -12.264293 -2.393858
v -1.598736 -12.155360 -2.430091
v -1.486323 -12.170758 -2.511666
v -1.468444 -12.149082 -2.420640
v -1.558455 -12.258210 -2.391770
v -1.559124 -12.259021 -2.511666
v -7.763713 9.798620 1.883613
v -7.896497 9.760880 1.883613
v -7.876489 9.766566 1.989949
v -7.707108 9.814710 1.957244
v -7.785828 9.728551 1.883613
v -7.777926 9.700751 1.965775
v -7.817707 9.840710 1.991834
v -7.818002 9.841750 1.883613
v 2.963845 2.666520 -0.893209
v 3.158075 2.787568 -0.893209
v 3.190867 2.808004 -0.779968
v 2.930425 2.645693 -0.758182
v 3.129562 2.623878 -0.893294
v 2.982913 2.859188 -0.893294
v 3.037683 2.771304 -0.733962
v 3.140149 2.606889 -0.782362
v 2.742336 4.956037 -0.513839
v 2.714812 4.944116 -0.355300
v 2.935949 5.039899 -0.395318
v 3.011204 5.072495 -0.513839
v 2.756572 5.223053 -0.513839
v 2.877162 4.944643 -0.513839
v 2.917861 4.850680 -0.374552
v 2.776860 5.176212 -0.384641
vn 0.9944 0.1058 -0.0000
vn -0.1058 0.9944 -0.0000
vn 0.8558 0.5173 -0.0000
vn -0.5173 0.8558 -0.0000
vn -0.5437 -0.8393 -0.0000
vn 0.8393 -0.5437 -0.0000
vn -0.8835 0.4685 -0.0000
vn -0.4685 -0.8835 -0.0000
vn -0.9832 -0.1826 -0.0000
vn 0.1826 -0.9832 -0.0000
vn -0.9996 0.0269 -0.0000
vn -0.0269 -0.9996 -0.0000
vn 0.9914 0.1311 -0.0000
vn -0.1311 0.9914 -0.0000
vn 0.5146 0.8574 -0.0000
vn -0.8574 0.5146 -0.0000
vn 0.9818 0.1901 -0.0000
vn -0.1901 0.9818 -0.0000
vn -0.8826 -0.4701 -0.0000
vn 0.4701 -0.8826 -0.0000
vn 0.9360 0.3519 -0.0000
vn -0.3519 0.9360 -0.0000
vn -0.7196 0.6943 -0.0000
vn -0.6943 -0.7196 -0.0000
vn -0.7586 0.6515 -0.0000
vn -0.6515 -0.7586 -0.0000
vn -0.2736 0.9619 -0.0000
vn -0.9619 -0.2736 -0.0000
vn 0.5338 -0.8456 -0.0000
vn 0.8456 0.5338 -0.0000
vn 0.4394 -0.8983 -0.0000
vn 0.8983 0.4394 -0.0000
vn -0.1019 0.9948 -0.0000
vn -0.9948 -0.1019 -0.0000
vn 0.0243 0.9997 -0.0000
vn -0.9997 0.0243 -0.0000
vn 0.9909 0.1346 -0.0000
vn -0.1346 0.9909 -0.0000
vn -0.1668 0.9860 -0.0000
vn -0.9860 -0.1668 -0.0000
vn -0.7474 -0.6644 -0.0000
vn 0.6644 -0.7474 -0.0000
vn -0.8434 0.5373 -0.0000
vn -0.5373 -0.8434 -0.0000
vn -0.7500 -0.6614 -0.0000
vn 0.6614 -0.7500 -0.0000
vn -0.9837 0.1796 -0.0000
vn -0.1796 -0.9837 -0.0000
vn 0.6670 -0.7450 -0.0000
vn 0.7450 0.6670 -0.0000
vn -0.8680 -0.4965 -0.0000
vn 0.4965 -0.8680 -0.0000
vn 0.5700 0.8217 -0.0000
vn -0.8217 0.5700 -0.0000
vn -0.3941 0.9191 -0.0000
vn -0.9191 -0.3941 -0.0000
vn -0.7302 -0.6832 -0.0000
vn 0.6832 -0.7302 -0.0000
vn 0.2033 0.9791 -0.0000
vn -0.9791 0.2033 -0.0000
vn 0.4856 -0.8742 -0.0000
vn 0.8742 0.4856 -0.0000
vn -0.9981 0.0614 -0.0000
vn -0.0614 -0.9981 -0.0000
vn 0.3403 0.9403 -0.0000
vn -0.9403 0.3404 -0.0000
vn 0.9999 0.0155 -0.0000
vn -0.0155 0.9999 -0.0000
vn 0.3787 -0.9255 -0.0000
vn 0.9255 0.3787 -0.0000
vn -0.1181 0.9930 -0.0000
vn -0.9930 -0.1181 -0.0000
vn 0.4003 -0.9164 -0.0000
vn 0.9164 0.4003 -0.0000
vn -0.9919 0.1271 -0.0000
vn -0.1271 -0.9919 -0.0000
vn 0.1396 -0.9902 -0.0000
vn 0.9902 0.1396 -0.0000
vn 0.3529 -0.9357 -0.0000
vn 0.9356 0.3529 -0.0000
vn -0.8846 -0.4663 -0.0000
vn 0.4663 -0.8846 -0.0000
vn -0.2581 -0.9661 -0.0000
vn 0.9661 -0.2581 -0.0000
vn -0.9458 0.3249 -0.0000
vn -0.3249 -0.9458 -0.0000
vn 0.9983 0.0583 -0.0000
vn -0.0583 0.9983 -0.0000
vn -0.2459 -0.9693 -0.0000
vn 0.9693 -0.2459 -0.0000
vn 0.8698 -0.4934 -0.0000
vn 0.4934 0.8698 -0.0000
vn 0.3176 -0.9482 -0.0000
vn 0.9482 0.3175 -0.0000
vn -0.8971 0.4417 -0.0000
vn -0.4417 -0.8971 -0.0000
vn 0.4286 0.9035 -0.0000
vn -0.9035 0.4286 -0.0000
vn -0.3037 -0.9528 -0.0000
vn 0.9528 -0.3037 -0.0000
vn -0.4526 -0.8917 -0.0000
vn 0.8917 -0.4526 -0.0000
vn -0.8091 -0.5877 -0.0000
vn 0.5877 -0.8091 -0.0000
vn -0.4836 0.8753 -0.0000
vn -0.8753 -0.4836 -0.0000
vn 0.0328 0.9995 -0.0000
vn -0.9995 0.0328 -0.0000
vn -0.9749 0.2226 -0.0000
vn -0.2226 -0.9749 -0.0000
vn -0.5389 0.8424 -0.0000
vn -0.8424 -0.5389 -0.0000
vn -0.6948 -0.7192 -0.0000
vn 0.7192 -0.6948 -0.0000
vn -0.5548 0.8320 -0.0000
vn -0.8320 -0.5548 -0.0000
vn 0.2661 0.9639 -0.0000
vn -0.9639 0.2661 -0.0000
vn 0.9253 0.3792 -0.0000
vn -0.3792 0.9253 -0.0000
vn 0.1390 -0.9903 -0.0000
vn 0.9903 0.1390 -0.0000
vn 0.6346 -0.7728 -0.0000
vn 0.7728 0.6346 -0.0000
vn 0.7397 -0.6729 -0.0000
vn 0.6729 0.7397 -0.0000
vn -0.6834 -0.7300 -0.0000
vn 0.7300 -0.6834 -0.0000
vn -0.6392 0.7691 -0.0000
vn -0.7691 -0.6392 -0.0000
vn -0.2597 0.9657 -0.0000
vn -0.9657 -0.2597 -0.0000
vn 0.9961 0.0886 -0.0000
vn -0.0886 0.9961 -0.0000
vn -0.8039 -0.5948 -0.0000
vn 0.5948 -0.8039 -0.0000
vn 0.8660 -0.5000 -0.0000
vn 0.5000 0.8660 -0.0000
vn 0.9948 0.1020 -0.0000
vn -0.1020 0.9948 -0.0000
vn -0.8093 -0.5874 -0.0000
vn 0.5874 -0.8093 -0.0000
vn -0.9776 -0.2103 -0.0000
vn 0.2103 -0.9776 -0.0000
vn -0.9998 -0.0214 -0.0000
vn 0.0214 -0.9998 -0.0000
vn 0.6197 -0.7849 -0.0000
vn 0.7849 0.6197 -0.0000
vn -0.9920 -0.1266 -0.0000
vn 0.1266 -0.9920 -0.0000
vn 0.7752 -0.6317 -0.0000
vn 0.6317 0.7752 -0.0000
vn -0.2644 0.9644 -0.0000
vn -0.9644 -0.2644 -0.0000
vn -0.8846 0.4663 -0.0000
vn -0.4663 -0.8846 -0.0000
vn 0.0941 0.9956 -0.0000
vn -0.9956 0.0941 -0.0000
vn -0.4730 -0.8810 -0.0000
vn 0.8810 -0.4730 -0.0000
vn -0.1789 0.9839 -0.0000
vn -0.9839 -0.1789 -0.0000
vn -0.0214 0.9998 -0.0000
vn 0.3454 -0.9384 -0.0000
vn 0.9384 0.3454 -0.0000
vn -0.0496 0.9988 -0.0000
vn -0.9988 -0.0496 -0.0000
vn 0.9802 0.1980 -0.0000
vn -0.1980 0.9802 -0.0000
vn 0.9421 -0.3352 -0.0000
vn 0.3352 0.9421 -0.0000
vn -0.2008 -0.9796 -0.0000
vn 0.9796 -0.2008 -0.0000
vn -0.6430 -0.7659 -0.0000
vn 0.7659 -0.6430 -0.0000
vn 0.9143 0.4050 -0.0000
vn -0.4050 0.9143 -0.0000
vn -0.4485 0.8938 -0.0000
vn -0.8938 -0.4485 -0.0000
vn -0.8863 -0.4631 -0.0000
vn 0.4631 -0.8863 -0.0000
vn -0.0077 1.0000 -0.0000
vn -1.0000 -0.0077 -0.0000
vn 0.9998 0.0173 -0.0000
vn -0.0173 0.9998 -0.0000
vn 0.7612 -0.6485 -0.0000
vn 0.6485 0.7612 -0.0000
vn 0.9884 -0.1517 -0.0000
vn 0.1517 0.9884 -0.0000
vn -0.9883 -0.1528 -0.0000
vn 0.1528 -0.9883 -0.0000
vn -0.1379 0.9904 -0.0000
vn -0.9904 -0.1379 -0.0000
vn 0.5424 0.8401 -0.0000
vn -0.8401 0.5424 -0.0000
vn -0.9962 0.0866 -0.0000
vn -0.0866 -0.9962 -0.0000
vn -0.4314 0.9022 -0.0000
vn -0.9021 -0.4314 -0.0000
vn -0.8188 -0.5740 -0.0000
vn 0.5740 -0.8188 -0.0000
vn -0.8948 0.4465 -0.0000
vn -0.4465 -0.8948 -0.0000
vn 0.9880 -0.1548 -0.0000
vn 0.1548 0.9880 -0.0000
vn -0.5548 -0.8320 -0.0000
vn 0.8320 -0.5548 -0.0000
vn 0.0217 0.9998 -0.0000
vn -0.9998 0.0217 -0.0000
vn 0.3017 0.9534 -0.0000
vn -0.9534 0.3017 -0.0000
vn -0.9841 0.1778 -0.0000
vn -0.1778 -0.9841 -0.0000
vn 0.9715 0.2370 -0.0000
vn -0.2370 0.9715 -0.0000
vn -0.1568 0.9876 -0.0000
vn -0.9876 -0.1568 -0.0000
vn -0.5420 0.8404 -0.0000
vn -0.8404 -0.5420 -0.0000
vn 0.9120 -0.4102 -0.0000
vn 0.4102 0.9120 -0.0000
vn 0.6625 0.7491 -0.0000
vn -0.7491 0.6625 -0.0000
vn -0.9832 0.1827 -0.0000
vn -0.1827 -0.9832 -0.0000
vn -0.9921 -0.1258 -0.0000
vn 0.1258 -0.9921 -0.0000
vn 0.5501 0.8351 -0.0000
vn -0.8351 0.5501 -0.0000
vn 0.3041 -0.9526 -0.0000
vn 0.9526 0.3041 -0.0000
vn -1.0000 -0.0032 -0.0000
vn 0.0033 -1.0000 -0.0000
vn -0.9470 -0.3214 -0.0000
vn 0.3214 -0.9470 -0.0000
vn -0.8790 0.4768 -0.0000
vn -0.4768 -0.8790 -0.0000
vn -0.6994 -0.7147 -0.0000
vn 0.7147 -0.6994 -0.0000
vn 0.7307 -0.6827 -0.0000
vn 0.6827 0.7307 -0.0000
vn -0.7132 -0.7010 -0.0000
vn 0.7010 -0.7132 -0.0000
vn -0.5621 -0.8271 -0.0000
vn 0.8271 -0.5621 -0.0000
vn 0.1614 0.9869 -0.0000
vn -0.9869 0.1614 -0.0000
vn 0.7717 -0.6360 -0.0000
vn 0.6360 0.7717 -0.0000
vn -0.0303 0.9995 -0.0000
vn -0.9995 -0.0303 -0.0000
vn -0.6362 -0.7715 -0.0000
vn 0.7715 -0.6362 -0.0000
vn 0.9736 -0.2282 -0.0000
vn 0.2282 0.9736 -0.0000
vn -0.7539 -0.6570 -0.0000
vn 0.6570 -0.7539 -0.0000
vn -0.3237 -0.9462 -0.0000
vn 0.9462 -0.3237 -0.0000
vn 0.9326 -0.3610 -0.0000
vn 0.3610 0.9326 -0.0000
vn -0.9768 0.2140 -0.0000
vn -0.2140 -0.9768 -0.0000
vn 0.9584 0.2853 -0.0000
vn -0.2853 0.9584 -0.0000
vn 0.3889 0.9213 -0.0000
vn -0.9213 0.3889 -0.0000
vn -0.0027 1.0000 -0.0000
vn -1.0000 -0.0027 -0.0000
vn 0.1593 -0.9872 -0.0000
vn 0.9872 0.1593 -0.0000
vn 0.9011 0.4336 -0.0000
vn -0.4336 0.9011 -0.0000
vn -0.7402 -0.6724 -0.0000
vn 0.6724 -0.7402 -0.0000
vn -0.6445 0.7646 -0.0000
vn -0.7646 -0.6445 -0.0000
vn 0.9959 0.0902 -0.0000
vn -0.0902 0.9959 -0.0000
vn 0.2951 0.9555 -0.0000
vn -0.9555 0.2951 -0.0000
vn 0.1961 -0.9806 -0.0000
vn 0.9806 0.1961 -0.0000
vn 0.1972 -0.9804 -0.0000
vn 0.9804 0.1972 -0.0000
vn -0.9544 0.2985 -0.0000
vn -0.2985 -0.9544 -0.0000
vn -0.4429 0.8966 -0.0000
vn -0.8966 -0.4429 -0.0000
vn 0.8948 -0.4465 -0.0000
vn 0.4465 0.8948 -0.0000
vn 0.1406 -0.9901 -0.0000
vn 0.9901 0.1406 -0.0000
vn 0.9383 0.3457 -0.0000
vn -0.3457 0.9383 -0.0000
vn 0.7316 0.6817 -0.0000
vn -0.6817 0.7316 -0.0000
vn 0.9807 -0.1957 -0.0000
vn 0.1957 0.9807 -0.0000
vn -0.4532 -0.8914 -0.0000
vn 0.8914 -0.4532 -0.0000
vn 0.9187 -0.3949 -0.0000
vn 0.3949 0.9187 -0.0000
vn -0.8236 -0.5672 -0.0000
vn 0.5672 -0.8236 -0.0000
vn -0.9939 -0.1102 -0.0000
vn 0.1102 -0.9939 -0.0000
vn 0.9386 0.3451 -0.0000
vn -0.3451 0.9386 -0.0000
vn -0.2034 0.9791 -0.0000
vn -0.9791 -0.2034 -0.0000
vn -0.9313 0.3642 -0.0000
vn -0.3642 -0.9313 -0.0000
vn -0.9850 -0.1723 -0.0000
vn 0.1723 -0.9850 -0.0000
vn 0.2949 -0.9555 -0.0000
vn 0.9555 0.2949 -0.0000
vn -0.4522 -0.8919 -0.0000
vn 0.8919 -0.4522 -0.0000
vn 0.9265 -0.3764 -0.0000
vn 0.3764 0.9265 -0.0000
vn 0.7822 -0.6230 -0.0000
vn 0.6230 0.7822 -0.0000
vn 0.4477 0.8942 -0.0000
vn -0.8942 0.4477 -0.0000
vn -0.7532 -0.6578 -0.0000
vn 0.6578 -0.7532 -0.0000
vn -0.9466 -0.3225 -0.0000
vn 0.3225 -0.9466 -0.0000
vn 0.3152 0.9490 -0.0000
vn -0.9490 0.3152 -0.0000
vn 0.8678 0.4970 -0.0000
vn -0.4970 0.8678 -0.0000
vn -0.9992 -0.0404 -0.0000
vn 0.0404 -0.9992 -0.0000
vn -0.7368 0.6761 -0.0000
vn -0.6761 -0.7368 -0.0000
vn 0.4105 0.9119 -0.0000
vn -0.9119 0.4105 -0.0000
vn -0.0566 0.9984 -0.0000
vn -0.9984 -0.0566 -0.0000
vn 0.9885 0.1511 -0.0000
vn -0.1511 0.9885 -0.0000
vn -0.9742 -0.2257 -0.0000
vn 0.2257 -0.9742 -0.0000
vn 0.9995 -0.0327 -0.0000
vn 0.0327 0.9995 -0.0000
vn -0.7960 -0.6053 -0.0000
vn 0.6053 -0.7960 -0.0000
vn -0.9471 -0.3210 -0.0000
vn 0.3210 -0.9471 -0.0000
vn -0.2194 -0.9756 -0.0000
vn 0.9756 -0.2193 -0.0000
vn -0.9736 0.2281 -0.0000
vn -0.2281 -0.9736 -0.0000
vn 0.1299 -0.9915 -0.0000
vn 0.9915 0.1299 -0.0000
vn 0.9572 -0.2893 -0.0000
vn 0.2893 0.9572 -0.0000
vn -0.9510 0.3093 -0.0000
vn -0.3093 -0.9510 -0.0000
vn -0.5384 -0.8427 -0.0000
vn 0.8427 -0.5384 -0.0000
vn 0.2089 0.9779 -0.0000
vn -0.9779 0.2089 -0.0000
vn 0.9904 0.1384 -0.0000
vn -0.1384 0.9904 -0.0000
vn 0.1814 0.9834 -0.0000
vn -0.9834 0.1815 -0.0000
vn 0.8220 -0.5695 -0.0000
vn 0.5695 0.8220 -0.0000
vn -0.0290 -0.9996 -0.0000
vn 0.9996 -0.0290 -0.0000
vn -0.6518 0.7584 -0.0000
vn -0.7584 -0.6518 -0.0000
vn -0.7486 0.6630 -0.0000
vn -0.6630 -0.7486 -0.0000
vn 0.6823 -0.7310 -0.0000
vn 0.7310 0.6823 -0.0000
vn 0.9262 -0.3771 -0.0000
vn 0.3771 0.9262 -0.0000
vn 0.7498 0.6617 -0.0000
vn -0.6617 0.7498 -0.0000
vn -0.8430 -0.5380 -0.0000
vn 0.5380 -0.8430 -0.0000
vn 0.8585 -0.5128 -0.0000
vn 0.5128 0.8585 -0.0000
vn 0.0144 -0.9999 -0.0000
vn 0.9999 0.0144 -0.0000
vn 0.9054 -0.4246 -0.0000
vn 0.4246 0.9054 -0.0000
vn 0.8080 0.5893 -0.0000
vn -0.5893 0.8080 -0.0000
vn -0.9493 0.3143 -0.0000
vn -0.3143 -0.9493 -0.0000
vn -0.5603 0.8283 -0.0000
vn -0.8283 -0.5603 -0.0000
vn 0.8614 0.5080 -0.0000
vn -0.5080 0.8613 -0.0000
vn -0.6363 -0.7714 -0.0000
vn 0.7714 -0.6363 -0.0000
vn -0.2734 0.9619 -0.0000
vn -0.9619 -0.2734 -0.0000
vn 0.5289 -0.8487 -0.0000
vn 0.8487 0.5289 -0.0000
vn -0.3975 0.9176 -0.0000
vn -0.9176 -0.3975 -0.0000
vn -0.0614 -0.9981 0.0001
vn 0.3404 0.9403 -0.0000
vn 0.3175 -0.9482 -0.0000
vn 0.9482 0.3176 -0.0000
vn 0.9796 -0.2009 -0.0000
vn -0.0174 0.9998 -0.0000
vn -0.9022 -0.4314 -0.0000
vn 0.1547 0.9880 -0.0000
vn -1.0000 -0.0033 -0.0000
vn 0.0032 -1.0000 -0.0000
vn -0.9850 -0.1724 -0.0000
vn -0.2193 -0.9756 -0.0000
vn 0.9756 -0.2194 -0.0000
vn -0.9834 0.1814 -0.0000
vn 0.8080 0.5892 -0.0000
vn -0.5892 0.8080 -0.0000
vn -0.5080 0.8614 -0.0000
vt 0.587516 0.250000
vt 0.696219 0.438742
vt 0.532955 0.380692
vt 0.958681 0.395835
vt 0.822774 0.250000
vt 0.931885 0.250000
vt 0.823776 0.442088
vt 0.574736 0.000000
vt 0.727477 0.180119
vt 0.531923 0.174939
vt 0.943005 0.000000
vt 0.797243 0.175205
vt 0.795077 0.000000
vt 0.183597 0.000000
vt 0.079867 0.150378
vt 0.039548 0.000000
vt 0.406485 0.000000
vt 0.282420 0.163926
vt 0.257324 0.000000
vt 0.683200 0.750259
vt 0.546949 0.843491
vt 0.500000 0.750259
vt 0.966633 0.750219
vt 0.827483 0.844072
vt 0.798992 0.750219
vt 0.038376 0.371048
vt 0.159378 0.250046
vt 0.194166 0.371048
vt 0.420000 0.250000
vt 0.324298 0.384599
vt 0.332846 0.250000
vt 0.199407 0.500208
vt 0.021869 0.609361
vt 0.026417 0.500208
vt 0.318619 0.500194
vt 0.479294 0.593008
vt 0.310722 0.610752
vt 0.198931 0.750308
vt 0.019909 0.844918
vt 0.046190 0.750308
vt 0.292351 0.750248
vt 0.408285 0.861889
vt 0.278991 0.827976
vt 0.224718 0.829653
vt 0.947964 0.152455
vt 0.548614 0.500208
vt 0.730526 0.577570
vt 0.530599 0.622715
vt 0.802250 0.500257
vt 0.920277 0.587538
vt 0.777322 0.599968
vt 0.715504 0.250000
vt 0.711067 0.000000
vt 0.198343 0.201154
vt 0.456826 0.176726
vt 0.726638 0.843491
vt 0.977378 0.853368
vt 0.067034 0.250046
vt 0.455465 0.376315
vt 0.225835 0.590819
vt 0.479294 0.500194
vt 0.477396 0.750248
vt 0.716640 0.500208
vt 0.962020 0.500257
s 0
f 1/1/1 3/2/1 4/3/1
f 6/4/2 8/5/2 5/6/2
f 9/1/3 11/2/3 12/3/3
f 13/6/4 15/7/4 16/5/4
f 17/8/5 19/9/5 20/10/5
f 22/11/6 24/12/6 21/13/6
f 25/14/7 27/15/7 28/16/7
f 30/17/8 32/18/8 29/19/8
f 34/20/9 36/21/9 33/22/9
f 38/23/10 40/24/10 37/25/10
f 41/1/11 43/2/11 44/3/11
f 45/6/12 47/7/12 48/5/12
f 49/1/13 51/2/13 52/3/13
f 53/6/14 55/7/14 56/5/14
f 57/14/15 59/15/15 60/16/15
f 62/17/16 64/18/16 61/19/16
f 65/1/17 67/2/17 68/3/17
f 69/6/18 71/7/18 72/5/18
f 73/26/19 75/27/19 76/28/19
f 78/29/20 80/30/20 77/31/20
f 81/14/21 83/15/21 84/16/21
f 86/17/22 88/18/22 85/19/22
f 89/26/23 91/27/23 92/28/23
f 94/29/24 96/30/24 93/31/24
f 97/8/25 99/9/25 100/10/25
f 102/11/26 104/12/26 101/13/26
f 105/8/27 107/9/27 108/10/27
f 110/11/28 112/12/28 109/13/28
f 113/14/29 115/15/29 116/16/29
f 118/17/30 120/18/30 117/19/30
f 121/8/31 123/9/31 124/10/31
f 126/11/32 128/12/32 125/13/32
f 129/1/33 131/2/33 132/3/33
f 133/6/34 135/7/34 136/5/34
f 137/26/35 139/27/35 140/28/35
f 142/29/36 144/30/36 141/31/36
f 145/8/37 147/9/37 148/10/37
f 150/11/38 152/12/38 149/13/38
f 153/1/39 155/2/39 156/3/39
f 157/6/40 159/7/40 160/5/40
f 161/26/41 163/27/41 164/28/41
f 166/29/42 168/30/42 165/31/42
f 169/8/43 171/9/43 172/10/43
f 174/11/44 176/12/44 173/13/44
f 177/26/45 179/27/45 180/28/45
f 182/29/46 184/30/46 181/31/46
f 185/14/47 187/15/47 188/16/47
f 190/17/48 192/18/48 189/19/48
f 193/8/49 195/9/49 196/10/49
f 198/11/50 200/12/50 197/13/50
f 201/26/51 203/27/51 204/28/51
f 206/29/52 208/30/52 205/31/52
f 209/14/53 211/15/53 212/16/53
f 214/17/54 216/18/54 213/19/54
f 217/14/55 219/15/55 220/16/55
f 222/17/56 224/18/56 221/19/56
f 226/32/57 228/33/57 225/34/57
f 229/35/58 231/36/58 232/37/58
f 234/32/59 236/33/59 233/34/59
f 237/35/60 239/36/60 240/37/60
f 241/1/61 243/2/61 244/3/61
f 245/6/62 247/7/62 248/5/62
f 249/1/63 251/2/63 252/3/63
f 253/6/64 255/7/64 256/5/64
f 257/1/65 259/2/65 260/3/65
f 261/6/66 263/7/66 264/5/66
f 265/14/67 267/15/67 268/16/67
f 270/17/68 272/18/68 269/19/68
f 273/26/69 275/27/69 276/28/69
f 278/29/70 280/30/70 277/31/70
f 281/14/71 283/15/71 284/16/71
f 286/17/72 288/18/72 285/19/72
f 289/8/73 291/9/73 292/10/73
f 294/11/74 296/12/74 293/13/74
f 297/8/75 299/9/75 300/10/75
f 302/11/76 304/12/76 301/13/76
f 306/38/77 308/39/77 305/40/77
f 309/41/78 311/42/78 312/43/78
f 314/20/79 316/21/79 313/22/79
f 318/23/80 320/24/80 317/25/80
f 321/1/81 323/2/81 324/3/81
f 325/6/82 327/7/82 328/5/82
f 329/1/83 331/2/83 332/3/83
f 333/6/84 335/7/84 336/5/84
f 337/8/85 339/9/85 340/10/85
f 342/11/86 344/12/86 341/13/86
f 345/26/87 347/27/87 348/28/87
f 350/29/88 352/30/88 349/31/88
f 353/26/89 355/27/89 356/28/89
f 358/29/90 360/30/90 357/31/90
f 362/20/91 364/21/91 361/22/91
f 366/23/92 368/24/92 365/25/92
f 369/8/93 371/9/93 372/10/93
f 374/11/94 376/12/94 373/13/94
f 377/40/95 379/44/95 380/39/95
f 381/41/96 383/42/96 384/43/96
f 385/8/97 387/9/97 388/10/97
f 390/11/98 392/12/98 389/13/98
f 393/14/99 395/15/99 396/16/99
f 398/17/100 400/18/100 397/19/100
f 401/1/101 403/2/101 404/3/101
f 405/6/102 407/7/102 408/5/102
f 409/26/103 411/27/103 412/28/103
f 414/29/104 416/30/104 413/31/104
f 417/8/105 419/9/105 420/10/105
f 421/13/106 423/45/106 424/12/106
f 425/1/107 427/2/107 428/3/107
f 429/6/108 431/7/108 432/5/108
f 433/26/109 435/27/109 436/28/109
f 438/29/110 440/30/110 437/31/110
f 441/14/111 443/15/111 444/16/111
f 446/17/112 448/18/112 445/19/112
f 449/14/113 451/15/113 452/16/113
f 454/17/114 456/18/114 453/19/114
f 457/8/115 459/9/115 460/10/115
f 461/13/116 463/45/116 464/12/116
f 465/26/117 467/27/117 468/28/117
f 470/29/118 472/30/118 469/31/118
f 473/8/119 475/9/119 476/10/119
f 478/11/120 480/12/120 477/13/120
f 481/14/121 483/15/121 484/16/121
f 486/17/122 488/18/122 485/19/122
f 489/14/123 491/15/123 492/16/123
f 494/17/124 496/18/124 493/19/124
f 497/8/125 499/9/125 500/10/125
f 502/11/126 504/12/126 501/13/126
f 505/8/127 507/9/127 508/10/127
f 510/11/128 512/12/128 509/13/128
f 513/26/129 515/27/129 516/28/129
f 518/29/130 520/30/130 517/31/130
f 521/1/131 523/2/131 524/3/131
f 525/6/132 527/7/132 528/5/132
f 529/8/133 531/9/133 532/10/133
f 534/11/134 536/12/134 533/13/134
f 538/32/135 540/33/135 537/34/135
f 541/35/136 543/36/136 544/37/136
f 545/1/137 547/2/137 548/3/137
f 549/6/138 551/7/138 552/5/138
f 553/26/139 555/27/139 556/28/139
f 558/29/140 560/30/140 557/31/140
f 561/14/141 563/15/141 564/16/141
f 566/17/142 568/18/142 565/19/142
f 569/26/143 571/27/143 572/28/143
f 574/29/144 576/30/144 573/31/144
f 577/14/145 579/15/145 580/16/145
f 582/17/146 584/18/146 581/19/146
f 585/14/147 587/15/147 588/16/147
f 590/17/148 592/18/148 589/19/148
f 593/26/149 595/27/149 596/28/149
f 598/29/150 600/30/150 597/31/150
f 601/8/151 603/9/151 604/10/151
f 606/11/152 608/12/152 605/13/152
f 609/46/153 611/47/153 612/48/153
f 613/49/154 615/50/154 616/51/154
f 617/14/155 619/15/155 620/16/155
f 622/17/156 624/18/156 621/19/156
f 625/14/157 627/15/157 628/16/157
f 630/17/158 632/18/158 629/19/158
f 633/1/159 635/2/159 636/3/159
f 637/6/160 639/7/160 640/5/160
f 641/14/161 643/15/161 644/16/161
f 646/17/162 648/18/162 645/19/162
f 649/14/163 651/15/163 652/16/163
f 654/17/145 656/18/145 653/19/145
f 657/26/164 659/27/164 660/28/164
f 662/29/165 664/30/165 661/31/165
f 665/8/166 667/9/166 668/10/166
f 670/11/167 672/12/167 669/13/167
f 674/32/168 676/33/168 673/34/168
f 677/35/169 679/36/169 680/37/169
f 681/8/170 683/9/170 684/10/170
f 685/13/171 687/45/171 688/12/171
f 689/1/172 691/2/172 692/3/172
f 693/6/173 695/7/173 696/5/173
f 698/32/174 700/33/174 697/34/174
f 701/35/175 703/36/175 704/37/175
f 705/14/176 707/15/176 708/16/176
f 710/17/177 712/18/177 709/19/177
f 713/1/178 715/2/178 716/3/178
f 718/4/179 720/5/179 717/6/179
f 721/8/180 723/9/180 724/10/180
f 725/13/181 727/45/181 728/12/181
f 729/26/182 731/27/182 732/28/182
f 734/29/183 736/30/183 733/31/183
f 737/14/184 739/15/184 740/16/184
f 742/17/185 744/18/185 741/19/185
f 745/14/186 747/15/186 748/16/186
f 750/17/187 752/18/187 749/19/187
f 753/26/188 755/27/188 756/28/188
f 758/29/189 760/30/189 757/31/189
f 761/8/190 763/9/190 764/10/190
f 766/11/191 768/12/191 765/13/191
f 769/26/192 771/27/192 772/28/192
f 774/29/193 776/30/193 773/31/193
f 777/8/194 779/9/194 780/10/194
f 782/11/195 784/12/195 781/13/195
f 785/1/196 787/2/196 788/3/196
f 789/6/197 791/7/197 792/5/197
f 793/26/198 795/27/198 796/28/198
f 798/29/199 800/30/199 797/31/199
f 801/14/200 803/15/200 804/16/200
f 806/17/201 808/18/201 805/19/201
f 809/8/202 811/9/202 812/10/202
f 814/11/203 816/12/203 813/13/203
f 817/14/204 819/15/204 820/16/204
f 822/17/205 824/18/205 821/19/205
f 825/1/206 827/2/206 828/3/206
f 829/6/207 831/7/207 832/5/207
f 833/14/208 835/15/208 836/16/208
f 838/17/209 840/18/209 837/19/209
f 841/1/210 843/2/210 844/3/210
f 845/6/211 847/7/211 848/5/211
f 849/8/212 851/9/212 852/10/212
f 854/11/213 856/12/213 853/13/213
f 857/26/214 859/27/214 860/28/214
f 862/29/215 864/30/215 861/31/215
f 865/1/216 867/2/216 868/3/216
f 869/6/217 871/7/217 872/5/217
f 873/8/218 875/9/218 876/10/218
f 878/11/219 880/12/219 877/13/219
f 881/1/220 883/2/220 884/3/220
f 885/6/221 887/7/221 888/5/221
f 889/26/222 891/27/222 892/28/222
f 894/29/223 896/30/223 893/31/223
f 897/1/224 899/2/224 900/3/224
f 901/6/225 903/7/225 904/5/225
f 906/20/226 908/21/226 905/22/226
f 910/23/227 912/24/227 909/25/227
f 913/8/228 915/9/228 916/10/228
f 918/11/229 920/12/229 917/13/229
f 921/1/230 923/2/230 924/3/230
f 925/6/231 927/7/231 928/5/231
f 929/8/232 931/9/232 932/10/232
f 934/11/233 936/12/233 933/13/233
f 937/40/234 939/44/234 940/39/234
f 941/41/235 943/42/235 944/43/235
f 945/14/236 947/15/236 948/16/236
f 950/17/237 952/18/237 949/19/237
f 953/14/238 955/15/238 956/16/238
f 958/17/239 960/18/239 957/19/239
f 961/46/240 963/47/240 964/48/240
f 965/49/241 967/50/241 968/51/241
f 969/8/242 971/9/242 972/10/242
f 973/13/243 975/45/243 976/12/243
f 978/38/244 980/39/244 977/40/244
f 981/41/245 983/42/245 984/43/245
f 985/8/246 987/9/246 988/10/246
f 989/13/247 991/45/247 992/12/247
f 993/14/248 995/15/248 996/16/248
f 998/17/249 1000/18/249 997/19/249
f 1001/14/250 1003/15/250 1004/16/250
f 1006/17/251 1008/18/251 1005/19/251
f 1009/1/252 1011/2/252 1012/3/252
f 1013/6/253 1015/7/253 1016/5/253
f 1017/46/254 1019/47/254 1020/48/254
f 1021/49/255 1023/50/255 1024/51/255
f 1025/14/256 1027/15/256 1028/16/256
f 1030/17/257 1032/18/257 1029/19/257
f 1033/1/258 1035/2/258 1036/3/258
f 1037/6/259 1039/7/259 1040/5/259
f 1041/8/260 1043/9/260 1044/10/260
f 1046/11/261 1048/12/261 1045/13/261
f 1049/1/262 1051/2/262 1052/3/262
f 1053/6/263 1055/7/263 1056/5/263
f 1057/8/264 1059/9/264 1060/10/264
f 1062/11/265 1064/12/265 1061/13/265
f 1066/20/266 1068/21/266 1065/22/266
f 1070/23/267 1072/24/267 1069/25/267
f 1073/8/268 1075/9/268 1076/10/268
f 1077/13/269 1079/45/269 1080/12/269
f 1081/14/270 1083/15/270 1084/16/270
f 1086/17/271 1088/18/271 1085/19/271
f 1089/26/272 1091/27/272 1092/28/272
f 1094/29/273 1096/30/273 1093/31/273
f 1097/1/274 1099/2/274 1100/3/274
f 1101/6/275 1103/7/275 1104/5/275
f 1105/1/276 1107/2/276 1108/3/276
f 1109/6/277 1111/7/277 1112/5/277
f 1113/26/278 1115/27/278 1116/28/278
f 1118/29/279 1120/30/279 1117/31/279
f 1121/8/280 1123/9/280 1124/10/280
f 1126/11/281 1128/12/281 1125/13/281
f 1129/26/282 1131/27/282 1132/28/282
f 1134/29/283 1136/30/283 1133/31/283
f 1137/40/284 1139/44/284 1140/39/284
f 1141/41/285 1143/42/285 1144/43/285
f 1145/1/286 1147/2/286 1148/3/286
f 1149/6/287 1151/7/287 1152/5/287
f 1153/1/288 1155/2/288 1156/3/288
f 1157/6/289 1159/7/289 1160/5/289
f 1161/26/290 1163/27/290 1164/28/290
f 1166/29/291 1168/30/291 1165/31/291
f 1170/32/292 1172/33/292 1169/34/292
f 1173/35/293 1175/36/293 1176/37/293
f 1177/1/294 1179/2/294 1180/3/294
f 1181/6/295 1183/7/295 1184/5/295
f 1185/8/296 1187/9/296 1188/10/296
f 1190/11/297 1192/12/297 1189/13/297
f 1193/1/298 1195/2/298 1196/3/298
f 1197/6/299 1199/7/299 1200/5/299
f 1202/20/300 1204/21/300 1201/22/300
f 1206/23/301 1208/24/301 1205/25/301
f 1209/14/302 1211/15/302 1212/16/302
f 1214/17/303 1216/18/303 1213/19/303
f 1217/14/304 1219/15/304 1220/16/304
f 1222/17/305 1224/18/305 1221/19/305
f 1225/14/306 1227/15/306 1228/16/306
f 1230/17/307 1232/18/307 1229/19/307
f 1233/26/308 1235/27/308 1236/28/308
f 1238/29/309 1240/30/309 1237/31/309
f 1241/14/310 1243/15/310 1244/16/310
f 1246/17/311 1248/18/311 1245/19/311
f 1250/32/312 1252/33/312 1249/34/312
f 1253/35/313 1255/36/313 1256/37/313
f 1257/1/314 1259/2/314 1260/3/314
f 1261/6/315 1263/7/315 1264/5/315
f 1265/26/316 1267/27/316 1268/28/316
f 1270/29/317 1272/30/317 1269/31/317
f 1273/14/318 1275/15/318 1276/16/318
f 1278/17/319 1280/18/319 1277/19/319
f 1281/14/320 1283/15/320 1284/16/320
f 1286/17/321 1288/18/321 1285/19/321
f 1289/1/322 1291/2/322 1292/3/322
f 1293/6/323 1295/7/323 1296/5/323
f 1297/8/324 1299/9/324 1300/10/324
f 1302/11/325 1304/12/325 1301/13/325
f 1305/8/326 1307/9/326 1308/10/326
f 1309/13/327 1311/45/327 1312/12/327
f 1313/46/328 1315/47/328 1316/48/328
f 1317/49/329 1319/50/329 1320/51/329
f 1322/38/330 1324/39/330 1321/40/330
f 1325/41/331 1327/42/331 1328/43/331
f 1329/14/332 1331/15/332 1332/16/332
f 1334/17/333 1336/18/333 1333/19/333
f 1338/20/334 1340/21/334 1337/22/334
f 1342/23/335 1344/24/335 1341/25/335
f 1345/8/336 1347/9/336 1348/10/336
f 1350/11/337 1352/12/337 1349/13/337
f 1353/8/338 1355/9/338 1356/10/338
f 1358/11/339 1360/12/339 1357/13/339
f 1361/8/340 1363/9/340 1364/10/340
f 1366/11/341 1368/12/341 1365/13/341
f 1369/40/342 1371/44/342 1372/39/342
f 1373/41/343 1375/42/343 1376/43/343
f 1377/26/344 1379/27/344 1380/28/344
f 1382/29/345 1384/30/345 1381/31/345
f 1385/8/346 1387/9/346 1388/10/346
f 1390/11/347 1392/12/347 1389/13/347
f 1393/8/348 1395/9/348 1396/10/348
f 1398/11/349 1400/12/349 1397/13/349
f 1401/14/350 1403/15/350 1404/16/350
f 1406/17/351 1408/18/351 1405/19/351
f 1409/1/352 1411/2/352 1412/3/352
f 1413/6/353 1415/7/353 1416/5/353
f 1418/32/354 1420/33/354 1417/34/354
f 1421/35/355 1423/36/355 1424/37/355
f 1426/20/356 1428/21/356 1425/22/356
f 1430/23/357 1432/24/357 1429/25/357
f 1433/26/358 1435/27/358 1436/28/358
f 1438/29/359 1440/30/359 1437/31/359
f 1441/26/360 1443/27/360 1444/28/360
f 1446/29/361 1448/30/361 1445/31/361
f 1449/14/362 1451/15/362 1452/16/362
f 1454/17/363 1456/18/363 1453/19/363
f 1457/26/364 1459/27/364 1460/28/364
f 1462/29/365 1464/30/365 1461/31/365
f 1466/32/366 1468/33/366 1465/34/366
f 1469/35/367 1471/36/367 1472/37/367
f 1474/32/368 1476/33/368 1473/34/368
f 1477/35/369 1479/36/369 1480/37/369
f 1481/8/370 1483/9/370 1484/10/370
f 1485/13/371 1487/45/371 1488/12/371
f 1489/8/372 1491/9/372 1492/10/372
f 1494/11/373 1496/12/373 1493/13/373
f 1497/26/374 1499/27/374 1500/28/374
f 1502/29/375 1504/30/375 1501/31/375
f 1505/8/376 1507/9/376 1508/10/376
f 1509/13/377 1511/45/377 1512/12/377
f 1513/1/378 1515/2/378 1516/3/378
f 1517/6/379 1519/7/379 1520/5/379
f 1521/8/380 1523/9/380 1524/10/380
f 1526/11/381 1528/12/381 1525/13/381
f 1530/38/382 1532/39/382 1529/40/382
f 1533/41/383 1535/42/383 1536/43/383
f 1537/14/384 1539/15/384 1540/16/384
f 1542/17/385 1544/18/385 1541/19/385
f 1545/8/386 1547/9/386 1548/10/386
f 1550/11/387 1552/12/387 1549/13/387
f 1553/26/388 1555/27/388 1556/28/388
f 1558/29/389 1560/30/389 1557/31/389
f 1561/26/390 1563/27/390 1564/28/390
f 1566/29/391 1568/30/391 1565/31/391
f 1569/26/392 1571/27/392 1572/28/392
f 1574/29/393 1576/30/393 1573/31/393
f 1577/26/394 1579/27/394 1580/28/394
f 1582/29/395 1584/30/395 1581/31/395
f 1585/8/396 1587/9/396 1588/10/396
f 1590/11/397 1592/12/397 1589/13/397
f 1593/26/398 1595/27/398 1596/28/398
f 1598/29/399 1600/30/399 1597/31/399
f 1601/1/400 1603/2/400 1604/3/400
f 1605/6/401 1607/7/401 1608/5/401
f 1609/1/402 1611/2/402 1612/3/402
f 1613/6/403 1615/7/403 1616/5/403
f 1617/40/404 1619/44/404 1620/39/404
f 1621/41/405 1623/42/405 1624/43/405
f 1625/14/406 1627/15/406 1628/16/406
f 1630/17/407 1632/18/407 1629/19/407
f 1/1/1 2/52/1 3/2/1
f 6/4/2 7/7/2 8/5/2
f 9/1/3 10/52/3 11/2/3
f 13/6/4 14/4/4 15/7/4
f 17/8/5 18/53/5 19/9/5
f 22/11/6 23/45/6 24/12/6
f 25/14/7 26/54/7 27/15/7
f 30/17/8 31/55/8 32/18/8
f 34/20/9 35/56/9 36/21/9
f 38/23/10 39/57/10 40/24/10
f 41/1/11 42/52/11 43/2/11
f 45/6/12 46/4/12 47/7/12
f 49/1/13 50/52/13 51/2/13
f 53/6/14 54/4/14 55/7/14
f 57/14/15 58/54/15 59/15/15
f 62/17/16 63/55/16 64/18/16
f 65/1/17 66/52/17 67/2/17
f 69/6/18 70/4/18 71/7/18
f 73/26/19 74/58/19 75/27/19
f 78/29/20 79/59/20 80/30/20
f 81/14/21 82/54/21 83/15/21
f 86/17/22 87/55/22 88/18/22
f 89/26/23 90/58/23 91/27/23
f 94/29/24 95/59/24 96/30/24
f 97/8/25 98/53/25 99/9/25
f 102/11/26 103/45/26 104/12/26
f 105/8/27 106/53/27 107/9/27
f 110/11/28 111/45/28 112/12/28
f 113/14/29 114/54/29 115/15/29
f 118/17/30 119/55/30 120/18/30
f 121/8/31 122/53/31 123/9/31
f 126/11/32 127/45/32 128/12/32
f 129/1/33 130/52/33 131/2/33
f 133/6/34 134/4/34 135/7/34
f 137/26/35 138/58/35 139/27/35
f 142/29/36 143/59/36 144/30/36
f 145/8/37 146/53/37 147/9/37
f 150/11/38 151/45/38 152/12/38
f 153/1/39 154/52/39 155/2/39
f 157/6/40 158/4/40 159/7/40
f 161/26/41 162/58/41 163/27/41
f 166/29/42 167/59/42 168/30/42
f 169/8/43 170/53/43 171/9/43
f 174/11/44 175/45/44 176/12/44
f 177/26/45 178/58/45 179/27/45
f 182/29/46 183/59/46 184/30/46
f 185/14/47 186/54/47 187/15/47
f 190/17/48 191/55/48 192/18/48
f 193/8/49 194/53/49 195/9/49
f 198/11/50 199/45/50 200/12/50
f 201/26/51 202/58/51 203/27/51
f 206/29/52 207/59/52 208/30/52
f 209/14/53 210/54/53 211/15/53
f 214/17/54 215/55/54 216/18/54
f 217/14/55 218/54/55 219/15/55
f 222/17/56 223/55/56 224/18/56
f 226/32/57 227/60/57 228/33/57
f 229/35/58 230/61/58 231/36/58
f 234/32/59 235/60/59 236/33/59
f 237/35/60 238/61/60 239/36/60
f 241/1/61 242/52/61 243/2/61
f 245/6/62 246/4/62 247/7/62
f 249/1/63 250/52/63 251/2/63
f 253/6/408 254/4/408 255/7/408
f 257/1/409 258/52/409 259/2/409
f 261/6/66 262/4/66 263/7/66
f 265/14/67 266/54/67 267/15/67
f 270/17/68 271/55/68 272/18/68
f 273/26/69 274/58/69 275/27/69
f 278/29/70 279/59/70 280/30/70
f 281/14/71 282/54/71 283/15/71
f 286/17/72 287/55/72 288/18/72
f 289/8/73 290/53/73 291/9/73
f 294/11/74 295/45/74 296/12/74
f 297/8/75 298/53/75 299/9/75
f 302/11/76 303/45/76 304/12/76
f 306/38/77 307/44/77 308/39/77
f 309/41/78 310/62/78 311/42/78
f 314/20/79 315/56/79 316/21/79
f 318/23/80 319/57/80 320/24/80
f 321/1/81 322/52/81 323/2/81
f 325/6/82 326/4/82 327/7/82
f 329/1/83 330/52/83 331/2/83
f 333/6/84 334/4/84 335/7/84
f 337/8/85 338/53/85 339/9/85
f 342/11/86 343/45/86 344/12/86
f 345/26/87 346/58/87 347/27/87
f 350/29/88 351/59/88 352/30/88
f 353/26/89 354/58/89 355/27/89
f 358/29/90 359/59/90 360/30/90
f 362/20/91 363/56/91 364/21/91
f 366/23/92 367/57/92 368/24/92
f 369/8/410 370/53/410 371/9/410
f 374/11/411 375/45/411 376/12/411
f 377/40/95 378/38/95 379/44/95
f 381/41/96 382/62/96 383/42/96
f 385/8/97 386/53/97 387/9/97
f 390/11/98 391/45/98 392/12/98
f 393/14/99 394/54/99 395/15/99
f 398/17/100 399/55/100 400/18/100
f 401/1/101 402/52/101 403/2/101
f 405/6/102 406/4/102 407/7/102
f 409/26/103 410/58/103 411/27/103
f 414/29/104 415/59/104 416/30/104
f 417/8/105 418/53/105 419/9/105
f 421/13/106 422/11/106 423/45/106
f 425/1/107 426/52/107 427/2/107
f 429/6/108 430/4/108 431/7/108
f 433/26/109 434/58/109 435/27/109
f 438/29/110 439/59/110 440/30/110
f 441/14/111 442/54/111 443/15/111
f 446/17/112 447/55/112 448/18/112
f 449/14/113 450/54/113 451/15/113
f 454/17/114 455/55/114 456/18/114
f 457/8/115 458/53/115 459/9/115
f 461/13/116 462/11/116 463/45/116
f 465/26/117 466/58/117 467/27/117
f 470/29/118 471/59/118 472/30/118
f 473/8/119 474/53/119 475/9/119
f 478/11/120 479/45/120 480/12/120
f 481/14/121 482/54/121 483/15/121
f 486/17/122 487/55/122 488/18/122
f 489/14/123 490/54/123 491/15/123
f 494/17/124 495/55/124 496/18/124
f 497/8/125 498/53/125 499/9/125
f 502/11/126 503/45/126 504/12/126
f 505/8/127 506/53/127 507/9/127
f 510/11/128 511/45/128 512/12/128
f 513/26/129 514/58/129 515/27/129
f 518/29/130 519/59/130 520/30/130
f 521/1/131 522/52/131 523/2/131
f 525/6/132 526/4/132 527/7/132
f 529/8/133 530/53/133 531/9/133
f 534/11/134 535/45/134 536/12/134
f 538/32/135 539/60/135 540/33/135
f 541/35/136 542/61/136 543/36/136
f 545/1/137 546/52/137 547/2/137
f 549/6/138 550/4/138 551/7/138
f 553/26/139 554/58/139 555/27/139
f 558/29/140 559/59/140 560/30/140
f 561/14/141 562/54/141 563/15/141
f 566/17/142 567/55/142 568/18/142
f 569/26/143 570/58/143 571/27/143
f 574/29/144 575/59/144 576/30/144
f 577/14/145 578/54/145 579/15/145
f 582/17/146 583/55/146 584/18/146
f 585/14/147 586/54/147 587/15/147
f 590/17/148 591/55/148 592/18/148
f 593/26/149 594/58/149 595/27/149
f 598/29/150 599/59/150 600/30/150
f 601/8/151 602/53/151 603/9/151
f 606/11/152 607/45/152 608/12/152
f 609/46/153 610/63/153 611/47/153
f 613/49/154 614/64/154 615/50/154
f 617/14/155 618/54/155 619/15/155
f 622/17/156 623/55/156 624/18/156
f 625/14/157 626/54/157 627/15/157
f 630/17/158 631/55/158 632/18/158
f 633/1/159 634/52/159 635/2/159
f 637/6/160 638/4/160 639/7/160
f 641/14/161 642/54/161 643/15/161
f 646/17/162 647/55/162 648/18/162
f 649/14/163 650/54/163 651/15/163
f 654/17/145 655/55/145 656/18/145
f 657/26/164 658/58/164 659/27/164
f 662/29/165 663/59/165 664/30/165
f 665/8/166 666/53/166 667/9/166
f 670/11/167 671/45/167 672/12/167
f 674/32/168 675/60/168 676/33/168
f 677/35/169 678/61/169 679/36/169
f 681/8/170 682/53/170 683/9/170
f 685/13/171 686/11/171 687/45/171
f 689/1/172 690/52/172 691/2/172
f 693/6/412 694/4/412 695/7/412
f 698/32/174 699/60/174 700/33/174
f 701/35/175 702/61/175 703/36/175
f 705/14/176 706/54/176 707/15/176
f 710/17/177 711/55/177 712/18/177
f 713/1/178 714/52/178 715/2/178
f 718/4/179 719/7/179 720/5/179
f 721/8/180 722/53/180 723/9/180
f 725/13/181 726/11/181 727/45/181
f 729/26/182 730/58/182 731/27/182
f 734/29/183 735/59/183 736/30/183
f 737/14/184 738/54/184 739/15/184
f 742/17/413 743/55/413 744/18/413
f 745/14/186 746/54/186 747/15/186
f 750/17/187 751/55/187 752/18/187
f 753/26/188 754/58/188 755/27/188
f 758/29/189 759/59/189 760/30/189
f 761/8/190 762/53/190 763/9/190
f 766/11/191 767/45/191 768/12/191
f 769/26/192 770/58/192 771/27/192
f 774/29/193 775/59/193 776/30/193
f 777/8/194 778/53/194 779/9/194
f 782/11/195 783/45/195 784/12/195
f 785/1/196 786/52/196 787/2/196
f 789/6/197 790/4/197 791/7/197
f 793/26/198 794/58/198 795/27/198
f 798/29/414 799/59/414 800/30/414
f 801/14/200 802/54/200 803/15/200
f 806/17/201 807/55/201 808/18/201
f 809/8/202 810/53/202 811/9/202
f 814/11/203 815/45/203 816/12/203
f 817/14/204 818/54/204 819/15/204
f 822/17/415 823/55/415 824/18/415
f 825/1/206 826/52/206 827/2/206
f 829/6/207 830/4/207 831/7/207
f 833/14/208 834/54/208 835/15/208
f 838/17/209 839/55/209 840/18/209
f 841/1/210 842/52/210 843/2/210
f 845/6/211 846/4/211 847/7/211
f 849/8/212 850/53/212 851/9/212
f 854/11/213 855/45/213 856/12/213
f 857/26/214 858/58/214 859/27/214
f 862/29/215 863/59/215 864/30/215
f 865/1/216 866/52/216 867/2/216
f 869/6/217 870/4/217 871/7/217
f 873/8/218 874/53/218 875/9/218
f 878/11/219 879/45/219 880/12/219
f 881/1/220 882/52/220 883/2/220
f 885/6/221 886/4/221 887/7/221
f 889/26/222 890/58/222 891/27/222
f 894/29/223 895/59/223 896/30/223
f 897/1/224 898/52/224 899/2/224
f 901/6/225 902/4/225 903/7/225
f 906/20/226 907/56/226 908/21/226
f 910/23/227 911/57/227 912/24/227
f 913/8/228 914/53/228 915/9/228
f 918/11/229 919/45/229 920/12/229
f 921/1/230 922/52/230 923/2/230
f 925/6/231 926/4/231 927/7/231
f 929/8/416 930/53/416 931/9/416
f 934/11/417 935/45/417 936/12/417
f 937/40/234 938/38/234 939/44/234
f 941/41/235 942/62/235 943/42/235
f 945/14/236 946/54/236 947/15/236
f 950/17/237 951/55/237 952/18/237
f 953/14/238 954/54/238 955/15/238
f 958/17/239 959/55/239 960/18/239
f 961/46/240 962/63/240 963/47/240
f 965/49/241 966/64/241 967/50/241
f 969/8/242 970/53/242 971/9/242
f 973/13/243 974/11/243 975/45/243
f 978/38/244 979/44/244 980/39/244
f 981/41/245 982/62/245 983/42/245
f 985/8/246 986/53/246 987/9/246
f 989/13/247 990/11/247 991/45/247
f 993/14/248 994/54/248 995/15/248
f 998/17/249 999/55/249 1000/18/249
f 1001/14/250 1002/54/250 1003/15/250
f 1006/17/251 1007/55/251 1008/18/251
f 1009/1/252 1010/52/252 1011/2/252
f 1013/6/253 1014/4/253 1015/7/253
f 1017/46/254 1018/63/254 1019/47/254
f 1021/49/255 1022/64/255 1023/50/255
f 1025/14/256 1026/54/256 1027/15/256
f 1030/17/257 1031/55/257 1032/18/257
f 1033/1/258 1034/52/258 1035/2/258
f 1037/6/259 1038/4/259 1039/7/259
f 1041/8/260 1042/53/260 1043/9/260
f 1046/11/261 1047/45/261 1048/12/261
f 1049/1/262 1050/52/262 1051/2/262
f 1053/6/263 1054/4/263 1055/7/263
f 1057/8/264 1058/53/264 1059/9/264
f 1062/11/265 1063/45/265 1064/12/265
f 1066/20/266 1067/56/266 1068/21/266
f 1070/23/267 1071/57/267 1072/24/267
f 1073/8/268 1074/53/268 1075/9/268
f 1077/13/269 1078/11/269 1079/45/269
f 1081/14/270 1082/54/270 1083/15/270
f 1086/17/271 1087/55/271 1088/18/271
f 1089/26/272 1090/58/272 1091/27/272
f 1094/29/273 1095/59/273 1096/30/273
f 1097/1/274 1098/52/274 1099/2/274
f 1101/6/275 1102/4/275 1103/7/275
f 1105/1/276 1106/52/276 1107/2/276
f 1109/6/277 1110/4/277 1111/7/277
f 1113/26/278 1114/58/278 1115/27/278
f 1118/29/279 1119/59/279 1120/30/279
f 1121/8/280 1122/53/280 1123/9/280
f 1126/11/281 1127/45/281 1128/12/281
f 1129/26/282 1130/58/282 1131/27/282
f 1134/29/283 1135/59/283 1136/30/283
f 1137/40/284 1138/38/284 1139/44/284
f 1141/41/285 1142/62/285 1143/42/285
f 1145/1/286 1146/52/286 1147/2/286
f 1149/6/287 1150/4/287 1151/7/287
f 1153/1/288 1154/52/288 1155/2/288
f 1157/6/289 1158/4/289 1159/7/289
f 1161/26/290 1162/58/290 1163/27/290
f 1166/29/291 1167/59/291 1168/30/291
f 1170/32/292 1171/60/292 1172/33/292
f 1173/35/293 1174/61/293 1175/36/293
f 1177/1/294 1178/52/294 1179/2/294
f 1181/6/295 1182/4/295 1183/7/295
f 1185/8/296 1186/53/296 1187/9/296
f 1190/11/297 1191/45/297 1192/12/297
f 1193/1/298 1194/52/298 1195/2/298
f 1197/6/299 1198/4/299 1199/7/299
f 1202/20/300 1203/56/300 1204/21/300
f 1206/23/301 1207/57/301 1208/24/301
f 1209/14/302 1210/54/302 1211/15/302
f 1214/17/303 1215/55/303 1216/18/303
f 1217/14/304 1218/54/304 1219/15/304
f 1222/17/305 1223/55/305 1224/18/305
f 1225/14/306 1226/54/306 1227/15/306
f 1230/17/307 1231/55/307 1232/18/307
f 1233/26/308 1234/58/308 1235/27/308
f 1238/29/309 1239/59/309 1240/30/309
f 1241/14/310 1242/54/310 1243/15/310
f 1246/17/311 1247/55/311 1248/18/311
f 1250/32/312 1251/60/312 1252/33/312
f 1253/35/313 1254/61/313 1255/36/313
f 1257/1/418 1258/52/418 1259/2/418
f 1261/6/315 1262/4/315 1263/7/315
f 1265/26/316 1266/58/316 1267/27/316
f 1270/29/317 1271/59/317 1272/30/317
f 1273/14/318 1274/54/318 1275/15/318
f 1278/17/319 1279/55/319 1280/18/319
f 1281/14/320 1282/54/320 1283/15/320
f 1286/17/321 1287/55/321 1288/18/321
f 1289/1/322 1290/52/322 1291/2/322
f 1293/6/323 1294/4/323 1295/7/323
f 1297/8/324 1298/53/324 1299/9/324
f 1302/11/325 1303/45/325 1304/12/325
f 1305/8/326 1306/53/326 1307/9/326
f 1309/13/327 1310/11/327 1311/45/327
f 1313/46/328 1314/63/328 1315/47/328
f 1317/49/329 1318/64/329 1319/50/329
f 1322/38/330 1323/44/330 1324/39/330
f 1325/41/331 1326/62/331 1327/42/331
f 1329/14/332 1330/54/332 1331/15/332
f 1334/17/333 1335/55/333 1336/18/333
f 1338/20/334 1339/56/334 1340/21/334
f 1342/23/335 1343/57/335 1344/24/335
f 1345/8/336 1346/53/336 1347/9/336
f 1350/11/337 1351/45/337 1352/12/337
f 1353/8/338 1354/53/338 1355/9/338
f 1358/11/339 1359/45/339 1360/12/339
f 1361/8/340 1362/53/340 1363/9/340
f 1366/11/341 1367/45/341 1368/12/341
f 1369/40/342 1370/38/342 1371/44/342
f 1373/41/343 1374/62/343 1375/42/343
f 1377/26/344 1378/58/344 1379/27/344
f 1382/29/345 1383/59/345 1384/30/345
f 1385/8/346 1386/53/346 1387/9/346
f 1390/11/347 1391/45/347 1392/12/347
f 1393/8/348 1394/53/348 1395/9/348
f 1398/11/349 1399/45/349 1400/12/349
f 1401/14/350 1402/54/350 1403/15/350
f 1406/17/351 1407/55/351 1408/18/351
f 1409/1/419 1410/52/419 1411/2/419
f 1413/6/420 1414/4/420 1415/7/420
f 1418/32/354 1419/60/354 1420/33/354
f 1421/35/355 1422/61/355 1423/36/355
f 1426/20/356 1427/56/356 1428/21/356
f 1430/23/357 1431/57/357 1432/24/357
f 1433/26/358 1434/58/358 1435/27/358
f 1438/29/359 1439/59/359 1440/30/359
f 1441/26/360 1442/58/360 1443/27/360
f 1446/29/361 1447/59/361 1448/30/361
f 1449/14/362 1450/54/362 1451/15/362
f 1454/17/363 1455/55/363 1456/18/363
f 1457/26/364 1458/58/364 1459/27/364
f 1462/29/365 1463/59/365 1464/30/365
f 1466/32/366 1467/60/366 1468/33/366
f 1469/35/367 1470/61/367 1471/36/367
f 1474/32/368 1475/60/368 1476/33/368
f 1477/35/421 1478/61/421 1479/36/421
f 1481/8/370 1482/53/370 1483/9/370
f 1485/13/371 1486/11/371 1487/45/371
f 1489/8/372 1490/53/372 1491/9/372
f 1494/11/373 1495/45/373 1496/12/373
f 1497/26/374 1498/58/374 1499/27/374
f 1502/29/375 1503/59/375 1504/30/375
f 1505/8/376 1506/53/376 1507/9/376
f 1509/13/377 1510/11/377 1511/45/377
f 1513/1/378 1514/52/378 1515/2/378
f 1517/6/379 1518/4/379 1519/7/379
f 1521/8/380 1522/53/380 1523/9/380
f 1526/11/381 1527/45/381 1528/12/381
f 1530/38/382 1531/44/382 1532/39/382
f 1533/41/383 1534/62/383 1535/42/383
f 1537/14/384 1538/54/384 1539/15/384
f 1542/17/385 1543/55/385 1544/18/385
f 1545/8/386 1546/53/386 1547/9/386
f 1550/11/387 1551/45/387 1552/12/387
f 1553/26/388 1554/58/388 1555/27/388
f 1558/29/389 1559/59/389 1560/30/389
f 1561/26/390 1562/58/390 1563/27/390
f 1566/29/391 1567/59/391 1568/30/391
f 1569/26/422 1570/58/422 1571/27/422
f 1574/29/423 1575/59/423 1576/30/423
f 1577/26/394 1578/58/394 1579/27/394
f 1582/29/395 1583/59/395 1584/30/395
f 1585/8/396 1586/53/396 1587/9/396
f 1590/11/397 1591/45/397 1592/12/397
f 1593/26/398 1594/58/398 1595/27/398
f 1598/29/424 1599/59/424 1600/30/424
f 1601/1/400 1602/52/400 1603/2/400
f 1605/6/401 1606/4/401 1607/7/401
f 1609/1/402 1610/52/402 1611/2/402
f 1613/6/403 1614/4/403 1615/7/403
f 1617/40/404 1618/38/404 1619/44/404
f 1621/41/405 1622/62/405 1623/42/405
f 1625/14/406 1626/54/406 1627/15/406
f 1630/17/407 1631/55/407 1632/18/407
