mtllib grass_01_01_b1.mtl
usemtl grass_01_01_b1
# Blender 5.1.1
# www.blender.org
o grass_01_01_b1
v 8.810719 12.798425 1.197968
v 8.803481 12.817203 1.328578
v 8.861629 12.666336 1.295609
v 8.881416 12.614994 1.197968
v 8.989325 12.781563 1.197968
v 8.799385 12.708356 1.197968
v 8.735281 12.683648 1.312717
v 8.957368 12.769246 1.304405
v 15.601438 9.723276 0.505265
v 15.580769 9.725868 0.793461
v 15.746833 9.705040 0.720714
v 15.803346 9.697952 0.505265
v 15.704259 9.877916 0.505265
v 15.678036 9.668843 0.505265
v 15.669186 9.598281 0.758463
v 15.699846 9.842741 0.740123
v -3.013765 2.895376 -1.296523
v -3.004876 2.868879 -1.130426
v -3.076294 3.081760 -1.172353
v -3.100599 3.154205 -1.296523
v -3.260529 2.929728 -1.296523
v -2.992515 3.019643 -1.296523
v -2.902061 3.049989 -1.150597
v -3.215437 2.944856 -1.161166
v 6.970421 7.223096 -0.212535
v 6.950879 7.208115 -0.085403
v 7.107883 7.328474 -0.117494
v 7.161313 7.369432 -0.212535
v 6.928528 7.438566 -0.212535
v 7.080058 7.240900 -0.212535
v 7.131199 7.174188 -0.100842
v 6.954022 7.405310 -0.108932
v -3.996270 2.362470 -1.440657
v -4.016762 2.346105 -1.311273
v -3.852122 2.477584 -1.343932
v -3.796093 2.522328 -1.440657
v -4.045431 2.591026 -1.440657
v -3.879900 2.383745 -1.440657
v -3.824034 2.313788 -1.326985
v -4.017581 2.556152 -1.335219
v 11.275833 12.992006 1.274149
v 11.079684 13.052608 1.274149
v 11.033177 13.066977 1.370537
v 11.225566 13.007537 1.370537
v 11.167141 13.114736 1.274107
v 11.111687 12.935246 1.274107
v 11.108132 12.923742 1.380750
v 11.157717 13.084230 1.371139
v -1.571916 3.225239 -1.059842
v -1.607215 3.278261 -1.200487
v -1.720956 3.449110 -1.200487
v -1.763805 3.513473 -1.059842
v -1.600621 3.437427 -1.200540
v -1.761869 3.330078 -1.200540
v -1.827483 3.286396 -1.053721
v -1.584807 3.447955 -1.044092
v 14.639017 9.187782 0.326195
v 14.461224 9.072018 0.326195
v 14.434061 9.054333 0.426309
v 14.643691 9.190825 0.446796
v 14.499967 9.179758 0.326180
v 14.607490 9.014622 0.326180
v 14.607490 9.014622 0.428727
v 14.494682 9.187874 0.448333
v -5.467736 4.565412 -0.887234
v -5.488970 4.571405 -0.752680
v -5.318374 4.523251 -0.786644
v -5.260318 4.506864 -0.887234
v -5.335533 4.711039 -0.887234
v -5.396159 4.496260 -0.887234
v -5.416620 4.423773 -0.769020
v -5.345733 4.674903 -0.777582
v 11.752356 13.243127 1.305549
v 11.690307 13.049979 1.305549
v 11.680827 13.020472 1.391213
v 11.753987 13.248205 1.408743
v 11.654044 13.153280 1.305536
v 11.833442 13.095648 1.305536
v 11.833442 13.095648 1.393282
v 11.645226 13.156113 1.410058
v 9.600942 15.761031 2.051708
v 9.603745 15.711847 1.947404
v 9.612775 15.553366 1.947404
v 9.616177 15.493661 2.051708
v 9.537067 15.608243 1.947364
v 9.686644 15.616766 1.947364
v 9.747509 15.620234 2.056247
v 9.522398 15.607408 2.063388
v -1.389666 7.855197 -0.032269
v -1.561434 7.945737 -0.032269
v -1.535552 7.932095 0.086461
v -1.316442 7.816600 0.049944
v -1.480213 7.805371 -0.032269
v -1.499168 7.769410 0.059470
v -1.403736 7.950459 0.088566
v -1.403027 7.951804 -0.032269
v 11.912480 11.575695 0.894325
v 11.777029 11.469136 0.894325
v 11.797439 11.485192 1.066320
v 11.970222 11.621121 1.013421
v 11.920171 11.484285 0.894325
v 11.942480 11.455927 1.027220
v 11.830163 11.598698 1.069369
v 11.829329 11.599758 0.894325
v 14.834188 -9.520742 -3.484749
v 14.833755 -9.495437 -3.379321
v 14.837232 -9.698752 -3.405933
v 14.838415 -9.767942 -3.484749
v 15.037848 -9.617846 -3.484749
v 14.781876 -9.622224 -3.484749
v 14.695486 -9.623701 -3.392124
v 14.994782 -9.618583 -3.398833
v 2.375295 12.586410 1.163434
v 2.427801 12.411967 1.163434
v 2.434121 12.390970 1.395329
v 2.358806 12.641191 1.388660
v 2.292387 12.491314 1.163434
v 2.481669 12.548285 1.163434
v 2.488015 12.550196 1.359712
v 2.295160 12.492148 1.389002
v 4.702514 9.186954 0.282858
v 4.522402 9.115222 0.282858
v 4.500722 9.106587 0.424342
v 4.759076 9.209481 0.420273
v 4.594055 9.266097 0.282858
v 4.671890 9.070663 0.282858
v 4.674500 9.064112 0.402611
v 4.595195 9.263235 0.420481
v 9.011189 12.905136 1.206441
v 9.124833 12.689475 1.206441
v 9.151779 12.638341 1.306394
v 9.040313 12.849869 1.306394
v 8.999254 12.710837 1.206397
v 9.196600 12.814831 1.206397
v 9.209249 12.821496 1.316984
v 9.032794 12.728512 1.307018
v 3.201322 2.632691 -1.390837
v 3.194519 2.613370 -1.276904
v 3.249177 2.768599 -1.305663
v 3.267778 2.821425 -1.390837
v 3.074175 2.763753 -1.390837
v 3.269607 2.694940 -1.390837
v 3.335565 2.671715 -1.290739
v 3.107056 2.752176 -1.297990
v 13.034549 13.254214 1.321841
v 12.862794 13.040014 1.321841
v 12.822070 12.989226 1.409451
v 12.990533 13.199321 1.409451
v 12.828489 13.179322 1.321803
v 13.024497 13.022154 1.321803
v 13.037061 13.012080 1.418733
v 12.861801 13.152611 1.409997
v -0.338222 4.514408 -0.807832
v -0.391338 4.542265 -0.888547
v -0.562488 4.632027 -0.888547
v -0.626965 4.665843 -0.807832
v -0.457796 4.676738 -0.888577
v -0.542514 4.515205 -0.888577
v -0.576987 4.449476 -0.804318
v -0.449488 4.692581 -0.798792
v 9.707799 1.480768 -1.747896
v 9.706416 1.498305 -1.636384
v 9.717528 1.357403 -1.664532
v 9.721310 1.309453 -1.747896
v 9.853245 1.422117 -1.747896
v 9.675851 1.408126 -1.747896
v 9.615980 1.403405 -1.649926
v 9.823399 1.419763 -1.657022
v 11.332914 9.068108 0.228274
v 11.443464 8.921295 0.228274
v 11.452600 8.909163 0.320404
v 11.321061 9.083849 0.374167
v 11.319606 8.953502 0.228333
v 11.459204 9.058619 0.228333
v 11.422731 9.031155 0.332275
v 11.297826 8.937100 0.347078
v -5.576508 4.054365 -0.999555
v -5.597211 4.042509 -0.881859
v -5.430874 4.137767 -0.911568
v -5.374268 4.170185 -0.999555
v -5.588855 4.266691 -0.999555
v -5.468925 4.057275 -0.999555
v -5.428449 3.986597 -0.896151
v -5.568677 4.231458 -0.903641
v 10.854763 10.995028 0.737750
v 10.833181 10.999382 0.859816
v 11.006575 10.964393 0.829004
v 11.065582 10.952486 0.737750
v 10.975274 11.149943 0.737750
v 10.931223 10.931643 0.737750
v 10.916356 10.857967 0.844993
v 10.967862 11.113215 0.837225
v 4.155631 8.908586 0.230764
v 4.121014 9.066838 0.230764
v 4.126230 9.042994 0.361899
v 4.170388 8.841123 0.321567
v 4.075157 8.939548 0.230764
v 4.042024 8.932301 0.332088
v 4.208829 8.968787 0.364224
v 4.210068 8.969059 0.230764
v -1.225252 2.567386 -1.401691
v -1.381522 2.700083 -1.401691
v -1.400333 2.716056 -1.306995
v -1.176177 2.525714 -1.309718
v -1.205074 2.707923 -1.401691
v -1.349060 2.538359 -1.401691
v -1.353887 2.532674 -1.321539
v -1.207183 2.705440 -1.309578
v -4.482320 8.267853 0.060395
v -4.473279 8.283875 0.189818
v -4.545910 8.155148 0.157149
v -4.570627 8.111340 0.060395
v -4.390384 8.132046 0.060395
v -4.552451 8.223487 0.060395
v -4.607148 8.254348 0.174101
v -4.417651 8.147430 0.165866
v 13.735083 13.140248 1.341251
v 13.538442 13.104752 1.341251
v 13.505242 13.098758 1.435659
v 13.768917 13.146357 1.453822
v 13.614413 13.228337 1.341180
v 13.657418 12.990107 1.341180
v 13.641356 13.079081 1.474015
v 13.611308 13.245536 1.433663
v 9.830305 8.647665 0.145310
v 10.007072 8.760944 0.145310
v 10.028350 8.774580 0.247607
v 9.774793 8.612091 0.244665
v 9.961887 8.585801 0.145310
v 9.838971 8.777606 0.145310
v 9.834850 8.784037 0.231895
v 9.960087 8.588610 0.244816
v 5.403102 10.375142 0.564739
v 5.441747 10.158827 0.564739
v 5.447651 10.125780 0.666005
v 5.402087 10.380829 0.686728
v 5.354623 10.239274 0.564723
v 5.555539 10.275167 0.564723
v 5.555539 10.275167 0.668452
v 5.344748 10.237510 0.688283
v 11.107688 -7.737384 -3.260620
v 10.963007 -7.747005 -3.260620
v 10.940904 -7.748474 -3.179585
v 11.111492 -7.737131 -3.163002
v 11.022102 -7.695712 -3.260632
v 11.031038 -7.830093 -3.260632
v 11.031038 -7.830093 -3.177628
v 11.021664 -7.689107 -3.161758
v 7.920643 11.993701 0.968106
v 8.100305 11.754745 0.968106
v 8.142902 11.698087 1.073786
v 7.966685 11.932464 1.073786
v 7.944088 11.756118 0.968060
v 8.162750 11.920522 0.968060
v 8.176764 11.931059 1.084983
v 7.981250 11.784060 1.074446
v 3.756867 3.880614 -1.117056
v 3.659443 3.680883 -1.117056
v 3.644559 3.650370 -1.017485
v 3.759428 3.885864 -0.997109
v 3.636251 3.798545 -1.117072
v 3.821762 3.708057 -1.117072
v 3.821762 3.708057 -1.015080
v 3.627133 3.802992 -0.995581
v 3.219844 0.985029 -1.861358
v 3.175331 0.817680 -1.861358
v 3.167815 0.789427 -1.774378
v 3.227503 1.013823 -1.757644
v 3.106323 0.922768 -1.861423
v 3.309066 0.868840 -1.861423
v 3.233345 0.888981 -1.739040
v 3.091686 0.926662 -1.776216
v 7.691269 4.629315 -0.807548
v 7.664481 4.617531 -0.913621
v 7.578163 4.579561 -0.913621
v 7.545645 4.565256 -0.807548
v 7.592965 4.633100 -0.913662
v 7.628802 4.551633 -0.913662
v 7.643384 4.518483 -0.802931
v 7.589450 4.641089 -0.795669
v 13.934945 15.052976 1.865083
v 13.952050 15.034395 1.996560
v 13.814620 15.183677 1.963373
v 13.767852 15.234479 1.865083
v 13.718701 14.990307 1.865083
v 13.906645 15.163330 1.865083
v 13.970076 15.221725 1.980594
v 13.750322 15.019417 1.972227
v 12.120438 12.195511 1.060290
v 12.097675 12.204287 1.167324
v 12.280549 12.133776 1.140307
v 12.342783 12.109780 1.060290
v 12.280918 12.342275 1.060290
v 12.192146 12.112039 1.060290
v 12.162186 12.034334 1.154326
v 12.265983 12.303538 1.147515
v 14.788145 11.874866 1.052800
v 14.577585 11.954156 1.052800
v 14.545417 11.966269 1.134761
v 14.793680 11.872782 1.151534
v 14.693995 11.988678 1.052788
v 14.620349 11.793107 1.052788
v 14.620349 11.793107 1.136741
v 14.697614 11.998290 1.152792
v -3.124464 5.994871 -0.517572
v -3.302805 5.996966 -0.517572
v -3.324272 5.997219 -0.422014
v -3.068457 5.994213 -0.424763
v -3.188988 6.100196 -0.517572
v -3.191261 5.906682 -0.517572
v -3.191338 5.900195 -0.436691
v -3.189021 6.097362 -0.424622
v 3.808287 7.239104 -0.203573
v 3.607235 7.350769 -0.203573
v 3.583034 7.364210 -0.050903
v 3.871426 7.204036 -0.055294
v 3.799625 7.398140 -0.203573
v 3.678460 7.179984 -0.203573
v 3.674398 7.172670 -0.074352
v 3.797850 7.394945 -0.055069
v 11.982498 8.761003 0.197163
v 11.761772 8.906754 0.197163
v 11.709437 8.941312 0.286092
v 11.925932 8.798354 0.286092
v 11.892365 8.952027 0.197124
v 11.758991 8.750048 0.197124
v 11.750443 8.737103 0.295513
v 11.869698 8.917701 0.286647
v 15.426779 4.173690 -0.940840
v 15.406087 4.184922 -0.781394
v 15.572334 4.094682 -0.821642
v 15.628910 4.063973 -0.940840
v 15.598632 4.294183 -0.940840
v 15.485022 4.084879 -0.940840
v 15.446678 4.014239 -0.800757
v 15.579517 4.258968 -0.810903
v 15.957251 7.281809 -0.108171
v 15.972631 7.272795 0.063184
v 15.849059 7.345215 0.019930
v 15.807006 7.369860 -0.108171
v 15.824203 7.194890 -0.108171
v 15.915379 7.350466 -0.108171
v 15.946151 7.402973 0.042375
v 15.839542 7.221065 0.031471
v 6.401924 6.589570 -0.376491
v 6.315716 6.739160 -0.376491
v 6.305339 6.757166 -0.285600
v 6.428997 6.542593 -0.288214
v 6.457837 6.695261 -0.376491
v 6.295521 6.601719 -0.376491
v 6.290080 6.598584 -0.299560
v 6.455459 6.693891 -0.288080
v 12.537024 15.127619 1.983456
v 12.593814 15.117746 1.833183
v 12.776803 15.085936 1.833183
v 12.845739 15.073952 1.983456
v 12.694158 15.014246 1.833126
v 12.724181 15.186952 1.833126
v 12.736398 15.257228 1.989997
v 12.691214 14.997308 2.000285
v 0.905321 10.569730 0.675932
v 0.963667 10.779990 0.675932
v 0.954876 10.748309 0.806006
v 0.880448 10.480097 0.766000
v 0.828959 10.657242 0.675932
v 0.784938 10.669457 0.776436
v 1.006560 10.607958 0.808312
v 1.008206 10.607501 0.675932
v -2.401776 10.204786 0.564548
v -2.382191 10.214547 0.677967
v -2.539541 10.136126 0.649337
v -2.593089 10.109439 0.564548
v -2.401708 10.009714 0.564548
v -2.500439 10.207816 0.564548
v -2.533761 10.274674 0.664193
v -2.418319 10.043044 0.656976
v 3.972920 3.901767 -1.080678
v 3.746033 3.929525 -1.080678
v 3.780221 3.925343 -0.954486
v 4.069641 3.889935 -0.993297
v 3.894135 3.809057 -1.080678
v 3.888323 3.761555 -0.983173
v 3.917580 4.000701 -0.952248
v 3.917798 4.002478 -1.080678
v 2.982794 3.337839 -1.227784
v 3.213614 3.330221 -1.227784
v 3.252584 3.328935 -1.150525
v 2.943078 3.339149 -1.135662
v 3.097769 3.209009 -1.227841
v 3.106997 3.488649 -1.227841
v 3.103551 3.384209 -1.119138
v 3.097102 3.188820 -1.152159
v 11.689866 9.944242 0.647843
v 11.725614 9.986377 0.511087
v 11.840803 10.122147 0.511087
v 11.884198 10.173295 0.647843
v 11.859898 10.019019 0.511035
v 11.731757 10.127735 0.511035
v 11.679615 10.171973 0.653795
v 11.872465 10.008357 0.663158
v 8.918330 8.583629 0.139814
v 9.069300 8.785918 0.139814
v 9.087472 8.810268 0.464168
v 8.870920 8.520101 0.454840
v 9.092584 8.569705 0.139814
v 8.873084 8.733518 0.139814
v 8.865726 8.739010 0.414350
v 9.089369 8.572104 0.455318
v 15.805285 -7.401966 -3.151933
v 15.665960 -7.511366 -3.151933
v 15.686954 -7.494881 -3.041522
v 15.864678 -7.355329 -3.075480
v 15.813104 -7.495929 -3.151933
v 15.836008 -7.525098 -3.066622
v 15.720696 -7.378245 -3.039565
v 15.719840 -7.377154 -3.151933
v 12.079785 14.855174 1.754712
v 12.052814 14.859459 1.917130
v 12.269506 14.825037 1.876132
v 12.343249 14.813323 1.754712
v 12.221148 15.053378 1.754712
v 12.177811 14.780564 1.754712
v 12.163185 14.688490 1.897406
v 12.213856 15.007479 1.887071
v 1.349877 5.078754 -0.786715
v 1.355427 5.095816 -0.653609
v 1.310844 4.958735 -0.687208
v 1.295672 4.912085 -0.786715
v 1.463982 4.966674 -0.786715
v 1.291398 5.022804 -0.786715
v 1.233152 5.041747 -0.669773
v 1.434945 4.976118 -0.678243
v 5.855083 12.633742 1.207960
v 5.851798 12.609380 1.348242
v 5.878186 12.805119 1.312832
v 5.887166 12.871731 1.207960
v 5.673717 12.756763 1.207960
v 5.920151 12.723540 1.207960
v 6.003322 12.712328 1.331206
v 5.715178 12.751173 1.322280
v 0.795470 8.626947 0.222812
v 0.837456 8.591291 0.126709
v 0.972744 8.476400 0.126709
v 1.023711 8.433118 0.222812
v 0.869932 8.457415 0.126673
v 0.978367 8.585101 0.126673
v 1.022491 8.637058 0.226995
v 0.859297 8.444892 0.233574
v 5.218161 13.964766 1.522652
v 5.394997 13.859164 1.522652
v 5.368351 13.875076 1.621895
v 5.142776 14.009783 1.591371
v 5.316885 14.012433 1.522652
v 5.338994 14.049456 1.599334
v 5.227687 13.863065 1.623654
v 5.226860 13.861680 1.522652
v 15.565145 -10.598866 -3.627455
v 15.706642 -10.731286 -3.627455
v 15.718335 -10.742229 -3.539800
v 15.549974 -10.584668 -3.488648
v 15.572137 -10.720329 -3.627398
v 15.698050 -10.585785 -3.627398
v 15.665154 -10.620937 -3.528506
v 15.552492 -10.741321 -3.514421
v 13.148281 10.080176 0.672044
v 13.146591 10.142279 0.590524
v 13.141146 10.342389 0.590524
v 13.139095 10.417775 0.672044
v 13.234521 10.270376 0.590493
v 13.045657 10.265238 0.590493
v 12.968805 10.263146 0.675592
v 13.253044 10.270881 0.681173
v 7.396072 3.607313 -1.147134
v 7.474367 3.772659 -1.147134
v 7.487586 3.800574 -1.040026
v 7.382601 3.578864 -1.019420
v 7.525940 3.650261 -1.147214
v 7.325624 3.745115 -1.147214
v 7.400438 3.709689 -0.996511
v 7.540402 3.643413 -1.042290
v 4.703896 14.475383 1.672497
v 4.723843 14.468393 1.781710
v 4.563583 14.524552 1.754142
v 4.509046 14.543664 1.672497
v 4.568854 14.343983 1.672497
v 4.639558 14.545748 1.672497
v 4.663420 14.613842 1.768448
v 4.580750 14.377929 1.761498
v 6.113217 8.775566 0.166592
v 5.895270 8.670156 0.166592
v 5.877259 8.661445 0.243009
v 6.136586 8.786868 0.287602
v 5.968498 8.822010 0.166641
v 6.068729 8.614773 0.166641
v 6.042542 8.668918 0.252855
v 5.952859 8.854343 0.265134
v 3.447989 6.157926 -0.475044
v 3.464458 6.139129 -0.352939
v 3.332139 6.290152 -0.383761
v 3.287109 6.341547 -0.475044
v 3.232543 6.101195 -0.475044
v 3.422680 6.267784 -0.475044
v 3.486851 6.324008 -0.367767
v 3.264532 6.129223 -0.375537
v 4.862691 11.652904 0.923188
v 4.690627 11.594565 0.923188
v 4.661577 11.584717 0.999151
v 4.892297 11.662941 1.013766
v 4.742344 11.715908 0.923131
v 4.813019 11.507452 0.923131
v 4.786623 11.585306 1.030013
v 4.737241 11.730958 0.997545
v 7.670737 2.803605 -1.394086
v 7.807481 2.653163 -1.394086
v 7.823941 2.635054 -1.287023
v 7.627794 2.850850 -1.290102
v 7.632957 2.667973 -1.394086
v 7.796197 2.816350 -1.394086
v 7.801670 2.821324 -1.303467
v 7.635348 2.670146 -1.289944
v 12.038273 4.014799 -1.034680
v 12.041006 3.992304 -0.880298
v 12.019048 4.173037 -0.919268
v 12.011575 4.234542 -1.034680
v 11.847900 4.082377 -1.034680
v 12.075442 4.110023 -1.034680
v 12.152237 4.119353 -0.899046
v 11.886184 4.087028 -0.908870
v 14.571105 8.169347 0.073912
v 14.759686 8.084367 0.073912
v 14.782385 8.074138 0.163965
v 14.511883 8.196034 0.161375
v 14.590814 8.027461 0.073912
v 14.683022 8.232084 0.073912
v 14.686114 8.238944 0.150134
v 14.592164 8.030458 0.161508
v 10.256313 3.345780 -1.241599
v 10.468558 3.407440 -1.241599
v 10.436578 3.398149 -1.131574
v 10.165834 3.319494 -1.165413
v 10.291069 3.458171 -1.241599
v 10.278160 3.502607 -1.156586
v 10.343151 3.278893 -1.129623
v 10.343635 3.277231 -1.241599
v 1.470886 9.836648 0.632321
v 1.446488 9.886150 0.506906
v 1.367873 10.045656 0.506906
v 1.338257 10.105746 0.632321
v 1.469953 10.022161 0.506859
v 1.319411 9.947965 0.506859
v 1.258153 9.917772 0.637780
v 1.484718 10.029438 0.646366
v 5.743480 3.408744 -1.224051
v 5.556064 3.306525 -1.224051
v 5.584304 3.321927 -1.118602
v 5.823374 3.452320 -1.151034
v 5.734022 3.295510 -1.224051
v 5.755423 3.256272 -1.142574
v 5.647681 3.453815 -1.116732
v 5.646881 3.455282 -1.224051
v 15.699842 12.947710 1.412283
v 15.738684 12.923680 1.324834
v 15.863839 12.846251 1.324834
v 15.910988 12.817081 1.412283
v 15.781899 12.817945 1.324801
v 15.854978 12.936066 1.324801
v 15.884714 12.984132 1.416090
v 15.774733 12.806360 1.422077
v -1.386141 0.818609 -1.858736
v -1.408678 0.809776 -1.670655
v -1.227606 0.880740 -1.718130
v -1.165985 0.904889 -1.858736
v -1.367069 1.033555 -1.858736
v -1.277727 0.805587 -1.858736
v -1.247574 0.728648 -1.693495
v -1.352038 0.995200 -1.705464
v 9.221709 12.831275 1.234476
v 9.405684 12.902637 1.234476
v 9.436745 12.914684 1.312503
v 9.190054 12.818996 1.327515
v 9.355249 12.768545 1.234417
v 9.268795 12.991431 1.234417
v 9.301085 12.908187 1.344203
v 9.361491 12.752454 1.310854
v 13.547223 7.672161 -0.063185
v 13.457732 7.778742 -0.063185
v 13.446959 7.791571 0.053512
v 13.575327 7.638690 0.050156
v 13.576712 7.763920 -0.063185
v 13.461063 7.666816 -0.063185
v 13.457187 7.663560 0.035588
v 13.575018 7.762498 0.050328
v 8.954933 3.342359 -1.232694
v 8.803401 3.415394 -1.232694
v 8.777818 3.427725 -1.124092
v 8.981007 3.329792 -1.103197
v 8.916267 3.462039 -1.232775
v 8.827785 3.278457 -1.232775
v 8.860831 3.347021 -1.079969
v 8.922655 3.475292 -1.126387
v -0.682419 7.974801 -0.021078
v -0.535517 7.863345 -0.021078
v -0.517834 7.849928 0.084423
v -0.728552 8.009803 0.081389
v -0.693599 7.847587 -0.021078
v -0.572660 8.006987 -0.021078
v -0.568606 8.012330 0.068219
v -0.691828 7.849922 0.081545
v 15.289082 15.215473 1.931877
v 15.448140 15.347692 1.931877
v 15.467287 15.363608 2.021032
v 15.239130 15.173951 2.018468
v 15.425239 15.170973 1.931877
v 15.281771 15.343564 1.931877
v 15.276961 15.349350 2.007339
v 15.423137 15.173501 2.018599
v 1.708914 6.877305 -0.300073
v 1.732094 6.875189 -0.139398
v 1.545861 6.892187 -0.179956
v 1.482485 6.897972 -0.300073
v 1.599923 6.700738 -0.300073
v 1.621323 6.935203 -0.300073
v 1.628546 7.014334 -0.158910
v 1.603523 6.740185 -0.169135
v 2.977268 10.418910 0.597372
v 2.967816 10.435732 0.748734
v 3.043751 10.300580 0.710527
v 3.069593 10.254587 0.597372
v 3.149062 10.427488 0.597372
v 2.978908 10.331886 0.597372
v 2.921481 10.299621 0.730353
v 3.120434 10.411404 0.720721
v 13.825521 12.600241 1.208771
v 14.008924 12.568387 1.208771
v 13.981289 12.573187 1.331880
v 13.747337 12.613820 1.294016
v 13.893392 12.672425 1.208771
v 13.900061 12.710823 1.303893
v 13.866486 12.517510 1.334062
v 13.866237 12.516074 1.208771
v 6.516391 0.859619 -1.888137
v 6.542382 0.866033 -1.785352
v 6.333558 0.814497 -1.811297
v 6.262493 0.796958 -1.888137
v 6.464297 0.626716 -1.888137
v 6.399413 0.889624 -1.888137
v 6.377515 0.978355 -1.797834
v 6.453381 0.670949 -1.804375
v 15.973849 0.386362 -1.761638
v 15.924924 0.354291 -1.923739
v 15.767276 0.250948 -1.923739
v 15.707886 0.212017 -1.761638
v 15.778791 0.361386 -1.923800
v 15.876327 0.212597 -1.923800
v 15.916015 0.152052 -1.754583
v 15.769226 0.375978 -1.743485
v 12.352390 10.218522 0.541734
v 12.343135 10.236655 0.668026
v 12.417495 10.090971 0.636147
v 12.442801 10.041393 0.541734
v 12.533867 10.220326 0.541734
v 12.350452 10.126708 0.541734
v 12.288550 10.095113 0.652689
v 12.503008 10.204576 0.644653
v 10.239499 9.651045 0.386121
v 10.076877 9.538592 0.386121
v 10.101380 9.555536 0.482345
v 10.308825 9.698983 0.452751
v 10.241852 9.545833 0.386121
v 10.265395 9.511786 0.460471
v 10.146866 9.683196 0.484051
v 10.145986 9.684469 0.386121
v 5.512702 13.126753 1.356367
v 5.530071 13.068982 1.266484
v 5.586036 12.882833 1.266484
v 5.607119 12.812705 1.356367
v 5.480226 12.926586 1.266450
v 5.655914 12.979405 1.266450
v 5.727405 13.000899 1.360280
v 5.462995 12.921406 1.366434
v 11.217221 13.701582 1.437626
v 11.070359 13.565450 1.437626
v 11.092488 13.585962 1.598877
v 11.279828 13.759615 1.549282
v 11.234714 13.596439 1.437626
v 11.263215 13.565692 1.562219
v 11.119726 13.720490 1.601735
v 11.118661 13.721640 1.437626
v 10.482290 10.902072 0.881771
v 10.527387 10.928940 0.740155
v 10.672695 11.015514 0.740155
v 10.727437 11.048129 0.881771
v 10.658119 10.916952 0.740101
v 10.576410 11.054095 0.740101
v 10.543161 11.109900 0.887935
v 10.666133 10.903502 0.897631
v 9.013603 12.012197 1.003007
v 8.941886 11.889169 1.003007
v 8.952692 11.907706 1.103754
v 9.044176 12.064644 1.072768
v 9.047279 11.944291 1.003007
v 9.073037 11.929276 1.080851
v 8.943361 12.004869 1.105540
v 8.942397 12.005430 1.003007
v 9.803181 15.259202 1.861833
v 10.001489 15.351728 1.861833
v 9.971608 15.337787 2.032823
v 9.718643 15.219759 1.980233
v 9.820136 15.374439 1.861833
v 9.800764 15.415957 1.993951
v 9.898291 15.206934 2.035854
v 9.899015 15.205380 1.861833
v 5.996958 9.008429 0.257318
v 5.822474 9.137325 0.257318
v 5.793015 9.159087 0.332574
v 6.026980 8.986251 0.347052
v 5.976676 9.169351 0.257262
v 5.820518 8.957963 0.257262
v 5.878840 9.036912 0.363148
v 5.987950 9.184612 0.330983
v -1.206015 10.115661 0.533069
v -1.227207 10.129723 0.666349
v -1.056941 10.016746 0.632706
v -0.998997 9.978299 0.533069
v -1.009590 10.228900 0.533069
v -1.151827 10.014536 0.533069
v -1.199831 9.942188 0.650163
v -1.033521 10.192834 0.641682
v 15.230400 11.010433 0.846252
v 15.255731 10.992466 0.948577
v 15.052217 11.136814 0.922748
v 14.982961 11.185937 0.846252
v 14.986373 10.879687 0.846252
v 15.168106 11.135908 0.846252
v 15.229440 11.222383 0.936151
v 15.016949 10.922795 0.929640
v -3.680274 6.731936 -0.330358
v -3.890190 6.670822 -0.330358
v -3.915458 6.663465 -0.219851
v -3.614351 6.751129 -0.223029
v -3.793496 6.832467 -0.330358
v -3.727182 6.604692 -0.330358
v -3.724959 6.597056 -0.236824
v -3.792524 6.829131 -0.222866
v 15.378406 10.403169 0.649944
v 15.250828 10.232498 0.649944
v 15.231338 10.206425 0.736450
v 15.381760 10.407657 0.754152
v 15.250077 10.347488 0.649931
v 15.408597 10.228993 0.649931
v 15.408597 10.228993 0.738540
v 15.242286 10.353312 0.755480
v 12.450157 15.372593 1.911206
v 12.646967 15.517809 1.911206
v 12.617311 15.495928 2.090569
v 12.366259 15.310689 2.035404
v 12.443255 15.502595 1.911206
v 12.412853 15.543799 2.049795
v 12.565916 15.336356 2.093750
v 12.567053 15.334815 1.911206
v 11.270550 14.063257 1.568620
v 11.264402 14.038623 1.680262
v 11.313788 14.236547 1.652081
v 11.330595 14.303903 1.568620
v 11.098389 14.210200 1.568620
v 11.347573 14.148024 1.568620
v 11.431672 14.127040 1.666705
v 11.140313 14.199739 1.659600
v 10.676484 13.574729 1.411126
v 10.884127 13.535865 1.411126
v 10.852839 13.541721 1.516822
v 10.587968 13.591296 1.484314
v 10.754570 13.655634 1.411126
v 10.762707 13.699106 1.492794
v 10.721743 13.480245 1.518695
v 10.721438 13.478619 1.411126
v 7.279888 8.804981 0.291585
v 7.231695 8.817533 0.193145
v 7.076404 8.857974 0.193145
v 7.017902 8.873210 0.291585
v 7.152678 8.913807 0.193107
v 7.114508 8.767243 0.193107
v 7.098977 8.707604 0.295870
v 7.156421 8.928181 0.302610
v 12.340573 9.308393 0.426711
v 12.393075 9.334338 0.347242
v 12.562248 9.417942 0.347242
v 12.625979 9.449438 0.426711
v 12.537432 9.309592 0.347212
v 12.458526 9.469258 0.347212
v 12.426418 9.534229 0.430170
v 12.545171 9.293933 0.435611
v 9.368412 12.680697 1.176297
v 9.542103 12.564763 1.176297
v 9.515931 12.582232 1.283374
v 9.294369 12.730120 1.250442
v 9.470808 12.723941 1.176297
v 9.495081 12.760305 1.259032
v 9.372882 12.577229 1.285273
v 9.371974 12.575869 1.176297
v 6.016499 0.608500 -1.942129
v 5.823709 0.624721 -1.942129
v 5.777999 0.628567 -1.848111
v 5.967093 0.612657 -1.848111
v 5.891686 0.699554 -1.942170
v 5.876843 0.523138 -1.942170
v 5.875892 0.511831 -1.838150
v 5.889163 0.669572 -1.847524
v 9.520742 9.444057 0.306336
v 9.527193 9.170856 0.306336
v 9.528282 9.124730 0.383081
v 9.519632 9.491065 0.397846
v 9.376239 9.299603 0.306279
v 9.707224 9.307418 0.306279
v 9.583608 9.304499 0.414261
v 9.352343 9.299038 0.381459
v 15.374631 9.238458 0.375757
v 15.393567 9.236582 0.573564
v 15.241428 9.251652 0.523633
v 15.189653 9.256780 0.375757
v 15.284417 9.094800 0.375757
v 15.303390 9.286342 0.375757
v 15.309793 9.350986 0.549542
v 15.287609 9.127026 0.536955
v 2.685721 5.718335 -0.602174
v 2.661074 5.713612 -0.402957
v 2.859097 5.751565 -0.453243
v 2.926486 5.764480 -0.602174
v 2.745965 5.933791 -0.602174
v 2.793747 5.684482 -0.602174
v 2.809873 5.600341 -0.427149
v 2.754004 5.891846 -0.439826
v 8.812444 -4.726712 -2.684627
v 8.870827 -4.709077 -2.769286
v 9.058950 -4.652254 -2.769286
v 9.129821 -4.630847 -2.684627
v 9.014853 -4.759284 -2.769318
v 8.961224 -4.581733 -2.769318
v 8.939401 -4.509485 -2.680942
v 9.020113 -4.776698 -2.675146
v 8.870449 12.364473 1.082926
v 8.745525 12.201006 1.082926
v 8.724435 12.173408 1.161865
v 8.891943 12.392599 1.177052
v 8.717539 12.347726 1.082867
v 8.915580 12.196381 1.082867
v 8.841615 12.252905 1.193936
v 8.703241 12.358652 1.160197
v 6.875675 2.736841 -1.388854
v 7.060849 2.775635 -1.388854
v 7.089138 2.781562 -1.284259
v 6.870807 2.735821 -1.262854
v 6.993845 2.698597 -1.388870
v 6.957813 2.870588 -1.388870
v 6.957813 2.870588 -1.281732
v 6.995616 2.690144 -1.261249
v 12.382141 8.888648 0.185712
v 12.384357 8.917102 0.320803
v 12.366555 8.688494 0.286703
v 12.360497 8.610696 0.185712
v 12.600400 8.757899 0.185712
v 12.312585 8.780313 0.185712
v 12.215447 8.787876 0.304398
v 12.551976 8.761670 0.295802
v 15.740610 8.667065 0.250078
v 15.910192 8.751281 0.250078
v 15.938824 8.765500 0.325927
v 15.711432 8.652574 0.340519
v 15.873680 8.618755 0.250022
v 15.771651 8.824205 0.250022
v 15.809757 8.747474 0.356742
v 15.881046 8.603923 0.324323
v 9.544078 9.490119 0.367266
v 9.302070 9.592360 0.367266
v 9.282070 9.600808 0.444781
v 9.570025 9.479156 0.490015
v 9.478326 9.641380 0.367316
v 9.381109 9.411264 0.367316
v 9.406509 9.471386 0.454769
v 9.493494 9.677283 0.467224
v 4.944724 8.623007 0.155480
v 4.963618 8.610340 0.341809
v 4.811815 8.712108 0.294775
v 4.760155 8.746740 0.155480
v 4.768564 8.522563 0.155480
v 4.896689 8.713681 0.155480
v 4.939930 8.778183 0.319181
v 4.790121 8.554718 0.307324
v 0.234155 2.326594 -1.396989
v 0.188887 2.296865 -1.504447
v 0.043026 2.201069 -1.504447
v -0.011923 2.164981 -1.396989
v 0.053599 2.303316 -1.504488
v 0.144011 2.165652 -1.504488
v 0.180801 2.109635 -1.392312
v 0.044732 2.316818 -1.384955
v 2.064724 5.022738 -0.792781
v 1.888350 4.929208 -0.792781
v 1.914926 4.943301 -0.682596
v 2.139912 5.062610 -0.716484
v 2.054639 4.916956 -0.792781
v 2.074221 4.880030 -0.707644
v 1.975636 5.065935 -0.680642
v 1.974904 5.067316 -0.792781
vn 0.9331 0.3596 -0.0000
vn -0.3596 0.9331 -0.0000
vn 0.1244 0.9922 -0.0000
vn -0.9922 0.1245 -0.0000
vn -0.9481 -0.3181 -0.0000
vn 0.3181 -0.9481 -0.0000
vn -0.6084 0.7936 -0.0000
vn -0.7936 -0.6084 -0.0000
vn -0.6240 0.7814 -0.0000
vn -0.7814 -0.6240 -0.0000
vn 0.2952 0.9554 -0.0000
vn -0.9554 0.2952 -0.0000
vn 0.8324 0.5542 -0.0000
vn -0.5542 0.8324 -0.0000
vn -0.5457 0.8380 -0.0000
vn -0.8380 -0.5456 -0.0000
vn 0.2717 0.9624 -0.0000
vn -0.9624 0.2717 -0.0000
vn -0.9521 0.3059 -0.0000
vn -0.3059 -0.9521 -0.0000
vn -0.9984 -0.0569 -0.0000
vn 0.0569 -0.9984 -0.0000
vn 0.4663 0.8846 -0.0000
vn -0.8846 0.4663 -0.0000
vn -0.6183 0.7859 -0.0000
vn -0.7859 -0.6183 -0.0000
vn 0.9999 0.0171 -0.0000
vn -0.0171 0.9999 -0.0000
vn -0.9576 -0.2882 -0.0000
vn 0.2882 -0.9576 -0.0000
vn -0.3700 0.9290 -0.0000
vn -0.9290 -0.3700 -0.0000
vn -0.8847 -0.4662 -0.0000
vn 0.4662 -0.8847 -0.0000
vn -0.9432 0.3321 -0.0000
vn -0.3321 -0.9432 -0.0000
vn -0.7802 0.6256 -0.0000
vn -0.6256 -0.7802 -0.0000
vn 0.4645 0.8856 -0.0000
vn -0.8856 0.4645 -0.0000
vn 0.9969 0.0786 -0.0000
vn -0.0786 0.9969 -0.0000
vn -0.7989 -0.6015 -0.0000
vn 0.6015 -0.7988 -0.0000
vn -0.4970 0.8678 -0.0000
vn -0.8678 -0.4970 -0.0000
vn 0.1978 0.9802 -0.0000
vn -0.9802 0.1978 -0.0000
vn 0.9769 0.2137 -0.0000
vn -0.2137 0.9769 -0.0000
vn 0.6473 0.7623 -0.0000
vn -0.7623 0.6473 -0.0000
vn 0.8709 -0.4914 -0.0000
vn 0.4914 0.8709 -0.0000
vn -0.1777 0.9841 -0.0000
vn -0.9841 -0.1777 -0.0000
vn 0.5396 -0.8419 -0.0000
vn 0.8419 0.5396 -0.0000
vn -0.9844 -0.1759 -0.0000
vn 0.1759 -0.9844 -0.0000
vn -0.0663 0.9978 -0.0000
vn -0.9978 -0.0664 -0.0000
vn -0.7993 -0.6010 -0.0000
vn 0.6009 -0.7993 -0.0000
vn -0.8988 0.4384 -0.0000
vn -0.4384 -0.8988 -0.0000
vn -0.9664 0.2571 -0.0000
vn -0.2571 -0.9664 -0.0000
vn -0.4027 0.9154 -0.0000
vn -0.9153 -0.4027 -0.0000
vn -0.7357 -0.6773 -0.0000
vn 0.6773 -0.7357 -0.0000
vn 0.3598 0.9330 -0.0000
vn -0.9330 0.3598 -0.0000
vn 0.3524 0.9358 -0.0000
vn -0.9358 0.3524 -0.0000
vn 0.0117 0.9999 -0.0000
vn -0.9999 0.0117 -0.0000
vn 0.4855 0.8742 -0.0000
vn -0.8742 0.4855 -0.0000
vn 0.5510 0.8345 -0.0000
vn -0.8345 0.5510 -0.0000
vn 0.4771 0.8789 -0.0000
vn -0.8789 0.4771 -0.0000
vn -0.5056 -0.8628 -0.0000
vn 0.8628 -0.5056 -0.0000
vn 0.8664 0.4993 -0.0000
vn -0.4993 0.8664 -0.0000
vn -0.1713 -0.9852 -0.0000
vn 0.9852 -0.1713 -0.0000
vn 0.9636 -0.2674 -0.0000
vn 0.2674 0.9636 -0.0000
vn 0.4461 -0.8950 -0.0000
vn 0.8950 0.4461 -0.0000
vn 0.1214 0.9926 -0.0000
vn -0.9926 0.1214 -0.0000
vn -0.0330 -0.9995 -0.0000
vn 0.9995 -0.0330 -0.0000
vn 0.7625 -0.6469 -0.0000
vn 0.6469 0.7625 -0.0000
vn 0.8014 -0.5981 -0.0000
vn 0.5981 0.8014 -0.0000
vn -0.6176 0.7865 -0.0000
vn -0.7865 -0.6176 -0.0000
vn 0.1569 0.9876 -0.0000
vn -0.9876 0.1569 -0.0000
vn 0.9510 -0.3093 -0.0000
vn 0.3093 0.9510 -0.0000
vn -0.9910 0.1336 -0.0000
vn -0.1336 -0.9910 -0.0000
vn -0.6473 -0.7622 -0.0000
vn 0.7622 -0.6473 -0.0000
vn -0.5127 -0.8586 -0.0000
vn 0.8586 -0.5127 -0.0000
vn -0.6833 -0.7301 -0.0000
vn 0.7301 -0.6833 -0.0000
vn 0.9996 0.0272 -0.0000
vn -0.0272 0.9996 -0.0000
vn 0.9038 -0.4280 -0.0000
vn 0.4280 0.9038 -0.0000
vn -0.3307 -0.9437 -0.0000
vn 0.9437 -0.3307 -0.0000
vn -0.4354 0.9002 -0.0000
vn -0.9002 -0.4354 -0.0000
vn -0.7521 -0.6590 -0.0000
vn 0.6590 -0.7521 -0.0000
vn -0.3211 0.9470 -0.0000
vn -0.9470 -0.3211 -0.0000
vn -0.7400 -0.6726 -0.0000
vn 0.6726 -0.7400 -0.0000
vn -0.9927 -0.1206 -0.0000
vn 0.1206 -0.9927 -0.0000
vn -0.4108 -0.9117 -0.0000
vn 0.9117 -0.4108 -0.0000
vn 0.2790 -0.9603 -0.0000
vn 0.9603 0.2790 -0.0000
vn 0.8970 0.4421 -0.0000
vn -0.4421 0.8970 -0.0000
vn -0.4788 0.8779 -0.0000
vn -0.8779 -0.4788 -0.0000
vn -0.5261 -0.8504 -0.0000
vn 0.8504 -0.5261 -0.0000
vn -0.3649 0.9311 -0.0000
vn -0.9311 -0.3649 -0.0000
vn 0.3616 -0.9323 -0.0000
vn 0.9323 0.3616 -0.0000
vn 0.7658 0.6430 -0.0000
vn -0.6430 0.7658 -0.0000
vn 0.4342 0.9008 -0.0000
vn -0.9008 0.4342 -0.0000
vn -0.6044 -0.7967 -0.0000
vn 0.7967 -0.6044 -0.0000
vn 0.6392 -0.7690 -0.0000
vn 0.7690 0.6392 -0.0000
vn -0.0909 -0.9959 -0.0000
vn 0.9959 -0.0909 -0.0000
vn 0.8718 0.4898 -0.0000
vn -0.4898 0.8718 -0.0000
vn -0.1711 -0.9852 -0.0000
vn 0.9853 -0.1711 -0.0000
vn 0.2396 -0.9709 -0.0000
vn 0.9709 0.2396 -0.0000
vn -0.5482 0.8363 -0.0000
vn -0.8363 -0.5482 -0.0000
vn 0.8907 0.4546 -0.0000
vn -0.4546 0.8907 -0.0000
vn -0.5688 0.8225 -0.0000
vn -0.8225 -0.5688 -0.0000
vn -0.9577 -0.2879 -0.0000
vn 0.2879 -0.9577 -0.0000
vn -0.6798 0.7334 -0.0000
vn -0.7334 -0.6798 -0.0000
vn 0.5118 -0.8591 -0.0000
vn 0.8591 0.5118 -0.0000
vn -0.8639 0.5036 -0.0000
vn -0.5036 -0.8639 -0.0000
vn 0.4228 -0.9062 -0.0000
vn 0.9062 0.4228 -0.0000
vn 0.5942 0.8043 -0.0000
vn -0.8043 0.5942 -0.0000
vn 0.5529 0.8333 -0.0000
vn -0.8333 0.5529 -0.0000
vn -0.5785 -0.8157 -0.0000
vn 0.8157 -0.5785 -0.0000
vn -0.2795 0.9601 -0.0000
vn -0.9601 -0.2795 -0.0000
vn -0.8010 0.5987 -0.0000
vn -0.5987 -0.8010 -0.0000
vn 0.5937 -0.8047 -0.0000
vn 0.8047 0.5937 -0.0000
vn -0.9703 0.2421 -0.0000
vn -0.2421 -0.9703 -0.0000
vn -0.1840 -0.9829 -0.0000
vn 0.9829 -0.1840 -0.0000
vn 0.2520 0.9677 -0.0000
vn -0.9677 0.2520 -0.0000
vn 0.4430 -0.8965 -0.0000
vn 0.8965 0.4430 -0.0000
vn -0.5552 -0.8317 -0.0000
vn 0.8317 -0.5552 -0.0000
vn 0.0838 0.9965 -0.0000
vn -0.9965 0.0838 -0.0000
vn -0.9997 -0.0236 -0.0000
vn 0.0236 -0.9997 -0.0000
vn -0.0986 -0.9951 -0.0000
vn 0.9951 -0.0986 -0.0000
vn -0.1882 0.9821 -0.0000
vn -0.9821 -0.1882 -0.0000
vn 0.2892 -0.9573 -0.0000
vn 0.9573 0.2891 -0.0000
vn -0.7945 0.6072 -0.0000
vn -0.6072 -0.7945 -0.0000
vn 0.2050 -0.9788 -0.0000
vn 0.9788 0.2050 -0.0000
vn 0.9970 -0.0776 -0.0000
vn 0.0776 0.9970 -0.0000
vn 0.4448 -0.8956 -0.0000
vn 0.8956 0.4448 -0.0000
vn 0.3892 0.9212 -0.0000
vn -0.9212 0.3892 -0.0000
vn -0.5568 -0.8306 -0.0000
vn 0.8306 -0.5568 -0.0000
vn -0.5490 0.8359 -0.0000
vn -0.8359 -0.5490 -0.0000
vn -0.4685 0.8835 -0.0000
vn -0.8835 -0.4685 -0.0000
vn -0.9922 0.1244 -0.0000
vn -0.5456 0.8380 -0.0000
vn -0.7988 -0.6015 -0.0000
vn 0.6015 -0.7989 -0.0000
vn -0.1776 0.9841 -0.0000
vn -0.9841 -0.1776 -0.0000
vn 0.5396 -0.8420 -0.0000
vn 0.8420 0.5396 -0.0000
vn -0.7993 -0.6009 -0.0000
vn 0.8627 -0.5056 -0.0000
vn 0.7625 -0.6470 -0.0000
vn -0.1711 -0.9853 -0.0000
vn 0.9852 -0.1711 -0.0000
vn 0.2891 -0.9573 -0.0000
vn 0.2051 -0.9788 -0.0000
vn 0.9788 0.2051 -0.0000
vt 0.183597 0.000000
vt 0.079867 0.150378
vt 0.039548 0.000000
vt 0.406485 0.000000
vt 0.282420 0.163926
vt 0.257324 0.000000
vt 0.683200 0.750259
vt 0.546949 0.843491
vt 0.500000 0.750259
vt 0.966633 0.750219
vt 0.827483 0.844072
vt 0.798992 0.750219
vt 0.038376 0.371048
vt 0.159378 0.250046
vt 0.194166 0.371048
vt 0.420000 0.250000
vt 0.324298 0.384599
vt 0.332846 0.250000
vt 0.199407 0.500208
vt 0.021869 0.609361
vt 0.026417 0.500208
vt 0.318619 0.500194
vt 0.479294 0.593008
vt 0.310722 0.610752
vt 0.587516 0.250000
vt 0.696219 0.438742
vt 0.532955 0.380692
vt 0.931885 0.250000
vt 0.823776 0.442088
vt 0.822774 0.250000
vt 0.574736 0.000000
vt 0.727477 0.180119
vt 0.531923 0.174939
vt 0.795077 0.000000
vt 0.947964 0.152455
vt 0.797243 0.175205
vt 0.548614 0.500208
vt 0.730526 0.577570
vt 0.530599 0.622715
vt 0.802250 0.500257
vt 0.920277 0.587538
vt 0.777322 0.599968
vt 0.943005 0.000000
vt 0.046190 0.750308
vt 0.224718 0.829653
vt 0.019909 0.844918
vt 0.292351 0.750248
vt 0.408285 0.861889
vt 0.278991 0.827976
vt 0.198931 0.750308
vt 0.198343 0.201154
vt 0.456826 0.176726
vt 0.726638 0.843491
vt 0.977378 0.853368
vt 0.067034 0.250046
vt 0.455465 0.376315
vt 0.225835 0.590819
vt 0.479294 0.500194
vt 0.715504 0.250000
vt 0.958681 0.395835
vt 0.711067 0.000000
vt 0.716640 0.500208
vt 0.962020 0.500257
vt 0.477396 0.750248
s 0
f 1/1/1 3/2/1 4/3/1
f 6/4/2 8/5/2 5/6/2
f 9/1/3 11/2/3 12/3/3
f 14/4/4 16/5/4 13/6/4
f 17/1/5 19/2/5 20/3/5
f 22/4/6 24/5/6 21/6/6
f 25/1/7 27/2/7 28/3/7
f 30/4/8 32/5/8 29/6/8
f 33/1/9 35/2/9 36/3/9
f 38/4/10 40/5/10 37/6/10
f 42/7/11 44/8/11 41/9/11
f 46/10/12 48/11/12 45/12/12
f 49/13/13 51/14/13 52/15/13
f 54/16/14 56/17/14 53/18/14
f 58/19/15 60/20/15 57/21/15
f 61/22/16 63/23/16 64/24/16
f 65/1/17 67/2/17 68/3/17
f 70/4/18 72/5/18 69/6/18
f 74/19/19 76/20/19 73/21/19
f 77/22/20 79/23/20 80/24/20
f 81/13/21 83/14/21 84/15/21
f 86/16/22 88/17/22 85/18/22
f 89/25/23 91/26/23 92/27/23
f 93/28/24 95/29/24 96/30/24
f 97/25/25 99/26/25 100/27/25
f 101/28/26 103/29/26 104/30/26
f 105/1/27 107/2/27 108/3/27
f 110/4/28 112/5/28 109/6/28
f 113/31/29 115/32/29 116/33/29
f 117/34/30 119/35/30 120/36/30
f 121/31/31 123/32/31 124/33/31
f 125/34/32 127/35/32 128/36/32
f 130/7/33 132/8/33 129/9/33
f 134/10/34 136/11/34 133/12/34
f 137/1/35 139/2/35 140/3/35
f 142/4/36 144/5/36 141/6/36
f 146/7/37 148/8/37 145/9/37
f 150/10/38 152/11/38 149/12/38
f 153/13/39 155/14/39 156/15/39
f 158/16/40 160/17/40 157/18/40
f 161/1/41 163/2/41 164/3/41
f 166/4/42 168/5/42 165/6/42
f 169/37/43 171/38/43 172/39/43
f 173/40/44 175/41/44 176/42/44
f 177/1/45 179/2/45 180/3/45
f 182/4/46 184/5/46 181/6/46
f 185/1/47 187/2/47 188/3/47
f 190/4/48 192/5/48 189/6/48
f 193/25/49 195/26/49 196/27/49
f 197/28/50 199/29/50 200/30/50
f 201/31/51 203/32/51 204/33/51
f 206/43/52 208/36/52 205/34/52
f 209/1/53 211/2/53 212/3/53
f 214/4/54 216/5/54 213/6/54
f 217/44/55 219/45/55 220/46/55
f 221/47/56 223/48/56 224/49/56
f 225/31/57 227/32/57 228/33/57
f 230/43/58 232/36/58 229/34/58
f 234/19/59 236/20/59 233/21/59
f 237/22/60 239/23/60 240/24/60
f 242/19/61 244/20/61 241/21/61
f 245/22/62 247/23/62 248/24/62
f 250/7/63 252/8/63 249/9/63
f 254/10/64 256/11/64 253/12/64
f 258/19/65 260/20/65 257/21/65
f 261/22/66 263/23/66 264/24/66
f 265/44/67 267/45/67 268/46/67
f 269/47/68 271/48/68 272/49/68
f 273/13/69 275/14/69 276/15/69
f 278/16/70 280/17/70 277/18/70
f 281/1/71 283/2/71 284/3/71
f 286/4/72 288/5/72 285/6/72
f 289/1/73 291/2/73 292/3/73
f 294/4/74 296/5/74 293/6/74
f 298/19/75 300/20/75 297/21/75
f 301/22/76 303/23/76 304/24/76
f 305/31/77 307/32/77 308/33/77
f 310/43/78 312/36/78 309/34/78
f 313/31/79 315/32/79 316/33/79
f 318/43/80 320/36/80 317/34/80
f 322/7/81 324/8/81 321/9/81
f 326/10/82 328/11/82 325/12/82
f 329/1/83 331/2/83 332/3/83
f 334/4/84 336/5/84 333/6/84
f 337/1/85 339/2/85 340/3/85
f 342/4/86 344/5/86 341/6/86
f 345/31/87 347/32/87 348/33/87
f 350/43/88 352/36/88 349/34/88
f 353/13/89 355/14/89 356/15/89
f 358/16/90 360/17/90 357/18/90
f 361/25/91 363/26/91 364/27/91
f 365/28/92 367/29/92 368/30/92
f 369/1/93 371/2/93 372/3/93
f 374/4/94 376/5/94 373/6/94
f 377/25/95 379/26/95 380/27/95
f 381/28/96 383/29/96 384/30/96
f 386/50/97 388/46/97 385/44/97
f 389/47/98 391/48/98 392/49/98
f 393/13/99 395/14/99 396/15/99
f 398/16/100 400/17/100 397/18/100
f 401/31/101 403/32/101 404/33/101
f 405/34/102 407/35/102 408/36/102
f 409/25/103 411/26/103 412/27/103
f 413/28/104 415/29/104 416/30/104
f 417/1/105 419/2/105 420/3/105
f 422/4/106 424/5/106 421/6/106
f 425/1/107 427/2/107 428/3/107
f 430/4/108 432/5/108 429/6/108
f 433/1/109 435/2/109 436/3/109
f 438/4/110 440/5/110 437/6/110
f 441/13/111 443/14/111 444/15/111
f 446/16/112 448/17/112 445/18/112
f 449/25/113 451/26/113 452/27/113
f 453/28/114 455/29/114 456/30/114
f 457/37/115 459/38/115 460/39/115
f 461/40/116 463/41/116 464/42/116
f 465/13/117 467/14/117 468/15/117
f 470/16/118 472/17/118 469/18/118
f 473/44/119 475/45/119 476/46/119
f 477/47/120 479/48/120 480/49/120
f 481/1/121 483/2/121 484/3/121
f 486/4/122 488/5/122 485/6/122
f 489/37/123 491/38/123 492/39/123
f 493/40/124 495/41/124 496/42/124
f 497/1/125 499/2/125 500/3/125
f 502/4/126 504/5/126 501/6/126
f 505/44/127 507/45/127 508/46/127
f 509/47/128 511/48/128 512/49/128
f 513/31/129 515/32/129 516/33/129
f 518/43/130 520/36/130 517/34/130
f 521/1/131 523/2/131 524/3/131
f 526/4/132 528/5/132 525/6/132
f 529/31/133 531/32/133 532/33/133
f 534/43/134 536/36/134 533/34/134
f 537/25/135 539/26/135 540/27/135
f 541/28/136 543/29/136 544/30/136
f 545/13/137 547/14/137 548/15/137
f 550/16/138 552/17/138 549/18/138
f 553/25/139 555/26/139 556/27/139
f 557/28/140 559/29/140 560/30/140
f 561/13/141 563/14/141 564/15/141
f 566/16/142 568/17/142 565/18/142
f 569/1/143 571/2/143 572/3/143
f 574/4/144 576/5/144 573/6/144
f 577/44/145 579/45/145 580/46/145
f 581/47/146 583/48/146 584/49/146
f 585/31/147 587/32/147 588/33/147
f 589/34/148 591/35/148 592/36/148
f 593/44/149 595/45/149 596/46/149
f 597/47/150 599/48/150 600/49/150
f 601/31/151 603/32/151 604/33/151
f 606/43/152 608/36/152 605/34/152
f 609/31/153 611/32/153 612/33/153
f 614/43/154 616/36/154 613/34/154
f 617/1/155 619/2/155 620/3/155
f 622/4/156 624/5/156 621/6/156
f 625/1/157 627/2/157 628/3/157
f 630/4/158 632/5/158 629/6/158
f 633/25/159 635/26/159 636/27/159
f 637/28/160 639/29/160 640/30/160
f 641/1/161 643/2/161 644/3/161
f 646/4/162 648/5/162 645/6/162
f 649/13/163 651/14/163 652/15/163
f 654/16/164 656/17/164 653/18/164
f 657/1/165 659/2/165 660/3/165
f 662/4/166 664/5/166 661/6/166
f 665/25/167 667/26/167 668/27/167
f 669/28/168 671/29/168 672/30/168
f 673/13/169 675/14/169 676/15/169
f 678/16/170 680/17/170 677/18/170
f 681/25/171 683/26/171 684/27/171
f 685/28/172 687/29/172 688/30/172
f 689/13/173 691/14/173 692/15/173
f 694/16/174 696/17/174 693/18/174
f 697/25/175 699/26/175 700/27/175
f 701/28/176 703/29/176 704/30/176
f 705/25/177 707/26/177 708/27/177
f 709/28/178 711/29/178 712/30/178
f 714/50/179 716/46/179 713/44/179
f 717/47/180 719/48/180 720/49/180
f 721/1/181 723/2/181 724/3/181
f 726/4/182 728/5/182 725/6/182
f 729/1/183 731/2/183 732/3/183
f 734/4/184 736/5/184 733/6/184
f 737/31/185 739/32/185 740/33/185
f 742/43/186 744/36/186 741/34/186
f 746/19/187 748/20/187 745/21/187
f 749/22/188 751/23/188 752/24/188
f 753/25/189 755/26/189 756/27/189
f 757/28/190 759/29/190 760/30/190
f 761/1/191 763/2/191 764/3/191
f 766/4/192 768/5/192 765/6/192
f 769/25/193 771/26/193 772/27/193
f 773/28/194 775/29/194 776/30/194
f 777/13/195 779/14/195 780/15/195
f 782/16/196 784/17/196 781/18/196
f 785/13/197 787/14/197 788/15/197
f 790/16/198 792/17/198 789/18/198
f 793/25/199 795/26/199 796/27/199
f 797/28/200 799/29/200 800/30/200
f 802/7/201 804/8/201 801/9/201
f 806/10/202 808/11/202 805/12/202
f 810/50/203 812/46/203 809/44/203
f 813/47/204 815/48/204 816/49/204
f 817/1/205 819/2/205 820/3/205
f 822/4/206 824/5/206 821/6/206
f 825/1/207 827/2/207 828/3/207
f 830/4/208 832/5/208 829/6/208
f 833/13/209 835/14/209 836/15/209
f 838/16/210 840/17/210 837/18/210
f 841/44/211 843/45/211 844/46/211
f 845/47/212 847/48/212 848/49/212
f 850/19/213 852/20/213 849/21/213
f 853/22/214 855/23/214 856/24/214
f 857/1/215 859/2/215 860/3/215
f 862/4/216 864/5/216 861/6/216
f 865/44/217 867/45/217 868/46/217
f 869/47/218 871/48/218 872/49/218
f 873/37/219 875/38/219 876/39/219
f 877/40/220 879/41/220 880/42/220
f 881/1/221 883/2/221 884/3/221
f 886/4/222 888/5/222 885/6/222
f 889/13/223 891/14/223 892/15/223
f 894/16/224 896/17/224 893/18/224
f 897/25/225 899/26/225 900/27/225
f 901/28/226 903/29/226 904/30/226
f 1/1/1 2/51/1 3/2/1
f 6/4/2 7/52/2 8/5/2
f 9/1/3 10/51/3 11/2/3
f 14/4/227 15/52/227 16/5/227
f 17/1/5 18/51/5 19/2/5
f 22/4/6 23/52/6 24/5/6
f 25/1/7 26/51/7 27/2/7
f 30/4/8 31/52/8 32/5/8
f 33/1/9 34/51/9 35/2/9
f 38/4/10 39/52/10 40/5/10
f 42/7/11 43/53/11 44/8/11
f 46/10/12 47/54/12 48/11/12
f 49/13/13 50/55/13 51/14/13
f 54/16/14 55/56/14 56/17/14
f 58/19/228 59/57/228 60/20/228
f 61/22/16 62/58/16 63/23/16
f 65/1/17 66/51/17 67/2/17
f 70/4/18 71/52/18 72/5/18
f 74/19/19 75/57/19 76/20/19
f 77/22/20 78/58/20 79/23/20
f 81/13/21 82/55/21 83/14/21
f 86/16/22 87/56/22 88/17/22
f 89/25/23 90/59/23 91/26/23
f 93/28/24 94/60/24 95/29/24
f 97/25/25 98/59/25 99/26/25
f 101/28/26 102/60/26 103/29/26
f 105/1/27 106/51/27 107/2/27
f 110/4/28 111/52/28 112/5/28
f 113/31/29 114/61/29 115/32/29
f 117/34/30 118/43/30 119/35/30
f 121/31/31 122/61/31 123/32/31
f 125/34/32 126/43/32 127/35/32
f 130/7/33 131/53/33 132/8/33
f 134/10/34 135/54/34 136/11/34
f 137/1/35 138/51/35 139/2/35
f 142/4/36 143/52/36 144/5/36
f 146/7/37 147/53/37 148/8/37
f 150/10/38 151/54/38 152/11/38
f 153/13/39 154/55/39 155/14/39
f 158/16/40 159/56/40 160/17/40
f 161/1/41 162/51/41 163/2/41
f 166/4/42 167/52/42 168/5/42
f 169/37/229 170/62/229 171/38/229
f 173/40/230 174/63/230 175/41/230
f 177/1/45 178/51/45 179/2/45
f 182/4/46 183/52/46 184/5/46
f 185/1/47 186/51/47 187/2/47
f 190/4/48 191/52/48 192/5/48
f 193/25/49 194/59/49 195/26/49
f 197/28/50 198/60/50 199/29/50
f 201/31/51 202/61/51 203/32/51
f 206/43/52 207/35/52 208/36/52
f 209/1/53 210/51/53 211/2/53
f 214/4/54 215/52/54 216/5/54
f 217/44/231 218/50/231 219/45/231
f 221/47/232 222/64/232 223/48/232
f 225/31/233 226/61/233 227/32/233
f 230/43/234 231/35/234 232/36/234
f 234/19/59 235/57/59 236/20/59
f 237/22/60 238/58/60 239/23/60
f 242/19/61 243/57/61 244/20/61
f 245/22/62 246/58/62 247/23/62
f 250/7/235 251/53/235 252/8/235
f 254/10/64 255/54/64 256/11/64
f 258/19/65 259/57/65 260/20/65
f 261/22/66 262/58/66 263/23/66
f 265/44/67 266/50/67 267/45/67
f 269/47/68 270/64/68 271/48/68
f 273/13/69 274/55/69 275/14/69
f 278/16/70 279/56/70 280/17/70
f 281/1/71 282/51/71 283/2/71
f 286/4/72 287/52/72 288/5/72
f 289/1/73 290/51/73 291/2/73
f 294/4/74 295/52/74 296/5/74
f 298/19/75 299/57/75 300/20/75
f 301/22/76 302/58/76 303/23/76
f 305/31/77 306/61/77 307/32/77
f 310/43/78 311/35/78 312/36/78
f 313/31/79 314/61/79 315/32/79
f 318/43/80 319/35/80 320/36/80
f 322/7/81 323/53/81 324/8/81
f 326/10/82 327/54/82 328/11/82
f 329/1/83 330/51/83 331/2/83
f 334/4/84 335/52/84 336/5/84
f 337/1/85 338/51/85 339/2/85
f 342/4/236 343/52/236 344/5/236
f 345/31/87 346/61/87 347/32/87
f 350/43/88 351/35/88 352/36/88
f 353/13/89 354/55/89 355/14/89
f 358/16/90 359/56/90 360/17/90
f 361/25/91 362/59/91 363/26/91
f 365/28/92 366/60/92 367/29/92
f 369/1/93 370/51/93 371/2/93
f 374/4/94 375/52/94 376/5/94
f 377/25/95 378/59/95 379/26/95
f 381/28/96 382/60/96 383/29/96
f 386/50/97 387/45/97 388/46/97
f 389/47/98 390/64/98 391/48/98
f 393/13/237 394/55/237 395/14/237
f 398/16/100 399/56/100 400/17/100
f 401/31/101 402/61/101 403/32/101
f 405/34/102 406/43/102 407/35/102
f 409/25/103 410/59/103 411/26/103
f 413/28/104 414/60/104 415/29/104
f 417/1/105 418/51/105 419/2/105
f 422/4/106 423/52/106 424/5/106
f 425/1/107 426/51/107 427/2/107
f 430/4/108 431/52/108 432/5/108
f 433/1/109 434/51/109 435/2/109
f 438/4/110 439/52/110 440/5/110
f 441/13/111 442/55/111 443/14/111
f 446/16/112 447/56/112 448/17/112
f 449/25/113 450/59/113 451/26/113
f 453/28/114 454/60/114 455/29/114
f 457/37/115 458/62/115 459/38/115
f 461/40/116 462/63/116 463/41/116
f 465/13/117 466/55/117 467/14/117
f 470/16/118 471/56/118 472/17/118
f 473/44/119 474/50/119 475/45/119
f 477/47/120 478/64/120 479/48/120
f 481/1/121 482/51/121 483/2/121
f 486/4/122 487/52/122 488/5/122
f 489/37/123 490/62/123 491/38/123
f 493/40/124 494/63/124 495/41/124
f 497/1/125 498/51/125 499/2/125
f 502/4/126 503/52/126 504/5/126
f 505/44/127 506/50/127 507/45/127
f 509/47/128 510/64/128 511/48/128
f 513/31/129 514/61/129 515/32/129
f 518/43/130 519/35/130 520/36/130
f 521/1/131 522/51/131 523/2/131
f 526/4/132 527/52/132 528/5/132
f 529/31/133 530/61/133 531/32/133
f 534/43/134 535/35/134 536/36/134
f 537/25/135 538/59/135 539/26/135
f 541/28/136 542/60/136 543/29/136
f 545/13/137 546/55/137 547/14/137
f 550/16/138 551/56/138 552/17/138
f 553/25/139 554/59/139 555/26/139
f 557/28/140 558/60/140 559/29/140
f 561/13/141 562/55/141 563/14/141
f 566/16/142 567/56/142 568/17/142
f 569/1/143 570/51/143 571/2/143
f 574/4/144 575/52/144 576/5/144
f 577/44/145 578/50/145 579/45/145
f 581/47/146 582/64/146 583/48/146
f 585/31/147 586/61/147 587/32/147
f 589/34/148 590/43/148 591/35/148
f 593/44/149 594/50/149 595/45/149
f 597/47/150 598/64/150 599/48/150
f 601/31/151 602/61/151 603/32/151
f 606/43/152 607/35/152 608/36/152
f 609/31/153 610/61/153 611/32/153
f 614/43/154 615/35/154 616/36/154
f 617/1/155 618/51/155 619/2/155
f 622/4/156 623/52/156 624/5/156
f 625/1/157 626/51/157 627/2/157
f 630/4/158 631/52/158 632/5/158
f 633/25/238 634/59/238 635/26/238
f 637/28/239 638/60/239 639/29/239
f 641/1/161 642/51/161 643/2/161
f 646/4/162 647/52/162 648/5/162
f 649/13/163 650/55/163 651/14/163
f 654/16/164 655/56/164 656/17/164
f 657/1/165 658/51/165 659/2/165
f 662/4/166 663/52/166 664/5/166
f 665/25/167 666/59/167 667/26/167
f 669/28/168 670/60/168 671/29/168
f 673/13/169 674/55/169 675/14/169
f 678/16/170 679/56/170 680/17/170
f 681/25/171 682/59/171 683/26/171
f 685/28/172 686/60/172 687/29/172
f 689/13/173 690/55/173 691/14/173
f 694/16/174 695/56/174 696/17/174
f 697/25/175 698/59/175 699/26/175
f 701/28/176 702/60/176 703/29/176
f 705/25/177 706/59/177 707/26/177
f 709/28/178 710/60/178 711/29/178
f 714/50/179 715/45/179 716/46/179
f 717/47/180 718/64/180 719/48/180
f 721/1/181 722/51/181 723/2/181
f 726/4/182 727/52/182 728/5/182
f 729/1/183 730/51/183 731/2/183
f 734/4/184 735/52/184 736/5/184
f 737/31/185 738/61/185 739/32/185
f 742/43/186 743/35/186 744/36/186
f 746/19/187 747/57/187 748/20/187
f 749/22/188 750/58/188 751/23/188
f 753/25/189 754/59/189 755/26/189
f 757/28/190 758/60/190 759/29/190
f 761/1/191 762/51/191 763/2/191
f 766/4/192 767/52/192 768/5/192
f 769/25/193 770/59/193 771/26/193
f 773/28/194 774/60/194 775/29/194
f 777/13/195 778/55/195 779/14/195
f 782/16/196 783/56/196 784/17/196
f 785/13/197 786/55/197 787/14/197
f 790/16/198 791/56/198 792/17/198
f 793/25/199 794/59/199 795/26/199
f 797/28/200 798/60/200 799/29/200
f 802/7/201 803/53/201 804/8/201
f 806/10/202 807/54/202 808/11/202
f 810/50/203 811/45/203 812/46/203
f 813/47/204 814/64/204 815/48/204
f 817/1/205 818/51/205 819/2/205
f 822/4/206 823/52/206 824/5/206
f 825/1/207 826/51/207 827/2/207
f 830/4/208 831/52/208 832/5/208
f 833/13/240 834/55/240 835/14/240
f 838/16/210 839/56/210 840/17/210
f 841/44/211 842/50/211 843/45/211
f 845/47/212 846/64/212 847/48/212
f 850/19/241 851/57/241 852/20/241
f 853/22/242 854/58/242 855/23/242
f 857/1/215 858/51/215 859/2/215
f 862/4/216 863/52/216 864/5/216
f 865/44/217 866/50/217 867/45/217
f 869/47/218 870/64/218 871/48/218
f 873/37/219 874/62/219 875/38/219
f 877/40/220 878/63/220 879/41/220
f 881/1/221 882/51/221 883/2/221
f 886/4/222 887/52/222 888/5/222
f 889/13/223 890/55/223 891/14/223
f 894/16/224 895/56/224 896/17/224
f 897/25/225 898/59/225 899/26/225
f 901/28/226 902/60/226 903/29/226
