mtllib grass_02_04_b0.mtl
usemtl grass_02_04_b0
# Blender 5.1.1
# www.blender.org
o grass_02_04_b0
v 13.389503 -15.528219 -1.435971
v 13.350318 -15.541403 -1.525330
v 13.224055 -15.583884 -1.525330
v 13.176490 -15.599889 -1.435971
v 13.251669 -15.510432 -1.525364
v 13.291763 -15.629599 -1.525364
v 13.308078 -15.678090 -1.432082
v 13.247736 -15.498745 -1.425964
v 12.635852 -13.352599 -0.967011
v 12.574923 -13.484634 -0.967011
v 12.584104 -13.464739 -0.868134
v 12.661826 -13.296313 -0.898544
v 12.676691 -13.418349 -0.967011
v 12.704334 -13.431106 -0.890611
v 12.565165 -13.366883 -0.866381
v 12.564131 -13.366406 -0.967011
v 12.687560 -0.605953 1.937329
v 12.700676 -0.590425 2.058542
v 12.595297 -0.715185 2.027945
v 12.559436 -0.757642 1.937329
v 12.759357 -0.772325 1.937329
v 12.602286 -0.639654 1.937329
v 12.549274 -0.594877 2.043822
v 12.732931 -0.750003 2.036108
v 12.800941 -10.547503 -0.273090
v 12.786530 -10.510224 -0.373960
v 12.740094 -10.390105 -0.373960
v 12.722601 -10.344853 -0.273090
v 12.812215 -10.413627 -0.373998
v 12.698846 -10.457453 -0.373998
v 12.652714 -10.475286 -0.268699
v 12.823333 -10.409328 -0.261793
v 12.217619 -14.932378 -1.212884
v 12.225095 -14.785051 -1.212884
v 12.225994 -14.767318 -1.067322
v 12.215271 -14.978644 -1.071508
v 12.306745 -14.882442 -1.212884
v 12.146885 -14.874331 -1.212884
v 12.141526 -14.874059 -1.089679
v 12.304403 -14.882324 -1.071293
v 14.845129 -4.789798 0.514791
v 14.801127 -4.794537 0.427411
v 14.659344 -4.809807 0.427411
v 14.605931 -4.815559 0.514791
v 14.705157 -4.739400 0.427378
v 14.719569 -4.873215 0.427378
v 14.725433 -4.927666 0.518595
v 14.703744 -4.726276 0.524577
v 14.500542 -6.832443 0.058856
v 14.504164 -6.703014 0.058856
v 14.504600 -6.687435 0.156922
v 14.499404 -6.873089 0.154102
v 14.577754 -6.786848 0.058856
v 14.437315 -6.782917 0.058856
v 14.432607 -6.782785 0.141860
v 14.575697 -6.786790 0.154247
v 12.225661 -14.739608 -1.188160
v 12.333760 -14.712614 -1.188160
v 12.317472 -14.716681 -1.096184
v 12.179579 -14.751115 -1.124472
v 12.245323 -14.683657 -1.188160
v 12.239672 -14.661025 -1.117093
v 12.268124 -14.774965 -1.094553
v 12.268335 -14.775812 -1.188160
v 14.710976 3.332880 2.628485
v 14.546337 3.308615 2.628485
v 14.571145 3.312271 2.726400
v 14.781160 3.343223 2.696285
v 14.673542 3.252600 2.628485
v 14.678622 3.218131 2.704140
v 14.653047 3.391665 2.728136
v 14.652857 3.392954 2.628485
v 12.780374 -14.335814 -1.176487
v 12.657525 -14.247274 -1.176487
v 12.642737 -14.236616 -1.080409
v 12.818954 -14.363619 -1.083172
v 12.786987 -14.231151 -1.176487
v 12.690915 -14.364450 -1.176487
v 12.687694 -14.368919 -1.095165
v 12.785580 -14.233103 -1.083030
v 14.015626 -4.137015 0.737953
v 13.847759 -4.093538 0.737953
v 13.827553 -4.088305 0.827610
v 14.068343 -4.150669 0.825032
v 13.979223 -4.022574 0.737953
v 13.932048 -4.204721 0.737953
v 13.930467 -4.210828 0.813839
v 13.978533 -4.025242 0.825164
v 15.530944 -15.701588 -1.902878
v 15.360910 -15.699643 -1.902878
v 15.340443 -15.699409 -1.814803
v 15.584341 -15.702198 -1.817336
v 15.469394 -15.601189 -1.902878
v 15.467284 -15.785687 -1.902878
v 15.467214 -15.791873 -1.828331
v 15.469363 -15.603890 -1.817207
v 12.451131 -16.113253 -1.387949
v 12.452262 -16.072689 -1.483332
v 12.455904 -15.941978 -1.483332
v 12.457276 -15.892736 -1.387949
v 12.514215 -15.992302 -1.483368
v 12.390851 -15.988864 -1.483368
v 12.340652 -15.987466 -1.383797
v 12.526315 -15.992639 -1.377267
v 14.285497 -11.820542 -0.817636
v 14.271974 -11.788879 -0.899409
v 14.228399 -11.686854 -0.899409
v 14.211984 -11.648419 -0.817636
v 14.291195 -11.704946 -0.899440
v 14.194903 -11.746071 -0.899440
v 14.155721 -11.762806 -0.814077
v 14.300638 -11.700912 -0.808478
v 12.427159 -13.565349 -0.970109
v 12.282825 -13.655041 -0.970109
v 12.304573 -13.641525 -0.863468
v 12.488688 -13.527114 -0.896267
v 12.424751 -13.655766 -0.970109
v 12.443529 -13.685985 -0.887711
v 12.348991 -13.533852 -0.861577
v 12.348289 -13.532722 -0.970109
v 15.064957 -15.990767 -1.890189
v 15.117785 -15.838822 -1.890189
v 15.109826 -15.861717 -1.786269
v 15.042437 -16.055540 -1.818231
v 15.012897 -15.922787 -1.890189
v 14.981086 -15.911726 -1.809893
v 15.141241 -15.967410 -1.784427
v 15.142430 -15.967824 -1.890189
v 14.315781 5.399116 3.246135
v 14.277291 5.192656 3.246135
v 14.272658 5.167804 3.354500
v 14.327868 5.463953 3.351383
v 14.180553 5.345560 3.246135
v 14.404577 5.303797 3.246135
v 14.412087 5.302397 3.337856
v 14.183835 5.344948 3.351543
v 13.195333 -3.586428 1.021103
v 13.156654 -3.684269 1.021103
v 13.151999 -3.696046 1.116479
v 13.207479 -3.555702 1.113736
v 13.123713 -3.599826 1.021103
v 13.229877 -3.641794 1.021103
v 13.233437 -3.643201 1.101830
v 13.125268 -3.600441 1.113877
v 14.006304 -14.030108 -1.192383
v 13.965944 -14.049285 -1.320744
v 13.835897 -14.111075 -1.320744
v 13.786905 -14.134353 -1.192383
v 13.856105 -14.028707 -1.320793
v 13.914423 -14.151445 -1.320793
v 13.938153 -14.201390 -1.186796
v 13.850386 -14.016669 -1.178008
v 12.225909 -5.336973 0.782469
v 12.207842 -5.340007 0.894373
v 12.353001 -5.315629 0.866126
v 12.402399 -5.307333 0.782469
v 12.273489 -5.180738 0.782469
v 12.304181 -5.363492 0.782469
v 12.314540 -5.425170 0.880783
v 12.278653 -5.211486 0.873662
v 13.394719 -1.717117 1.500335
v 13.284008 -1.799607 1.500335
v 13.270682 -1.809537 1.593926
v 13.429486 -1.691211 1.591234
v 13.305541 -1.682626 1.500335
v 13.395049 -1.802755 1.500335
v 13.398050 -1.806782 1.579551
v 13.306852 -1.684386 1.591372
v 13.020646 -13.934503 -1.141349
v 13.136173 -13.770817 -1.141349
v 13.150080 -13.751114 -1.006693
v 12.984366 -13.985907 -1.010566
v 13.159201 -13.941881 -1.141349
v 12.981589 -13.816525 -1.141349
v 12.975636 -13.812323 -1.027375
v 13.156599 -13.940045 -1.010368
v 12.811808 5.770338 3.643743
v 13.033790 5.709692 3.643743
v 13.060510 5.702393 3.777026
v 12.742096 5.789382 3.773193
v 12.858097 5.617842 3.643743
v 12.923902 5.858708 3.643743
v 12.926107 5.866783 3.756555
v 12.859061 5.621370 3.773390
v 14.378536 -15.940926 -1.756800
v 14.392165 -15.956326 -1.615106
v 14.282665 -15.832595 -1.650873
v 14.245401 -15.790487 -1.756800
v 14.201483 -15.988490 -1.756800
v 14.357261 -15.850630 -1.756800
v 14.409835 -15.804103 -1.632313
v 14.227692 -15.965296 -1.641330
v 14.213167 -14.756004 -1.343596
v 14.223075 -14.698411 -1.480193
v 14.254999 -14.512832 -1.480193
v 14.267026 -14.442919 -1.343596
v 14.327829 -14.596493 -1.480245
v 14.152678 -14.566362 -1.480245
v 14.081408 -14.554102 -1.337650
v 14.345007 -14.599448 -1.328299
v 13.462689 -11.690531 -0.692839
v 13.470331 -11.730652 -0.786460
v 13.494953 -11.859934 -0.786460
v 13.504229 -11.908637 -0.692839
v 13.426771 -11.823044 -0.786495
v 13.548787 -11.799806 -0.786495
v 13.598437 -11.790350 -0.688764
v 13.414804 -11.825323 -0.682355
v 12.521054 4.779319 3.456185
v 12.374120 4.707089 3.456185
v 12.356433 4.698394 3.557379
v 12.567198 4.802002 3.554468
v 12.424536 4.838828 3.456185
v 12.502911 4.679394 3.456185
v 12.505539 4.674049 3.541836
v 12.425684 4.836493 3.554618
v 13.123899 5.531883 3.536869
v 13.146415 5.549855 3.640620
v 12.965514 5.405463 3.614432
v 12.903952 5.356324 3.536869
v 13.177844 5.280790 3.536869
v 12.996056 5.508543 3.536869
v 12.934703 5.585408 3.628021
v 13.147259 5.319108 3.621419
v 14.813341 -14.344024 -1.533651
v 14.792419 -14.350689 -1.399469
v 14.960517 -14.297142 -1.433339
v 15.017722 -14.278920 -1.533651
v 14.843296 -14.150579 -1.533651
v 14.910710 -14.362212 -1.533651
v 14.933463 -14.433639 -1.415763
v 14.854638 -14.186185 -1.424302
v 12.376316 -13.552845 -0.974366
v 12.485431 -13.645030 -0.974366
v 12.498566 -13.656127 -0.862678
v 12.342050 -13.523894 -0.865890
v 12.362502 -13.650801 -0.974366
v 12.462530 -13.532403 -0.974366
v 12.465883 -13.528435 -0.879832
v 12.363967 -13.649067 -0.865725
v 13.331907 -2.990877 1.162132
v 13.317041 -2.999403 1.266350
v 13.436473 -2.930906 1.240043
v 13.477117 -2.907596 1.162132
v 13.322943 -2.838376 1.162132
v 13.409179 -2.988739 1.162132
v 13.438283 -3.039485 1.253694
v 13.337452 -2.863674 1.247062
v 14.280752 -14.946226 -1.457163
v 14.297433 -14.912814 -1.548005
v 14.351184 -14.805151 -1.548005
v 14.371432 -14.764592 -1.457163
v 14.380320 -14.869769 -1.548039
v 14.278708 -14.819039 -1.548039
v 14.237360 -14.798396 -1.453209
v 14.390285 -14.874744 -1.446990
v 12.343073 6.383287 3.943977
v 12.165052 6.452373 3.943977
v 12.191876 6.441963 4.042639
v 12.418962 6.353837 4.012294
v 12.260231 6.324399 3.943977
v 12.245767 6.287129 4.020210
v 12.318584 6.474768 4.044388
v 12.319126 6.476162 3.943977
v 13.131122 -15.158824 -1.346055
v 13.130184 -15.204889 -1.446682
v 13.127164 -15.353324 -1.446682
v 13.126026 -15.409243 -1.346055
v 13.060530 -15.296685 -1.446720
v 13.200623 -15.299536 -1.446720
v 13.257628 -15.300695 -1.341675
v 13.046790 -15.296406 -1.334786
v 14.655350 -5.042877 0.481124
v 14.685244 -5.002178 0.393363
v 14.781569 -4.871038 0.393363
v 14.817857 -4.821634 0.481124
v 14.805573 -4.963831 0.393330
v 14.681802 -4.872919 0.393330
v 14.631438 -4.835925 0.484944
v 14.817711 -4.972747 0.490952
v 15.002844 -6.248224 0.197443
v 14.971576 -6.215430 0.110449
v 14.870825 -6.109761 0.110449
v 14.832870 -6.069953 0.197443
v 14.956570 -6.103108 0.110416
v 14.856839 -6.198198 0.110416
v 14.816257 -6.236891 0.201230
v 14.966351 -6.093782 0.207186
v 14.141332 -13.016984 -1.156181
v 14.247559 -13.078049 -1.156181
v 14.260345 -13.085399 -1.052252
v 14.107972 -12.997807 -1.055241
v 14.144697 -13.101772 -1.156181
v 14.210958 -12.986509 -1.156181
v 14.213179 -12.982645 -1.068215
v 14.145667 -13.100084 -1.055088
v 15.908812 -15.220915 -1.769855
v 15.921358 -15.166925 -1.852139
v 15.961786 -14.992961 -1.852139
v 15.977016 -14.927423 -1.769855
v 16.026148 -15.076180 -1.852170
v 15.861959 -15.038024 -1.852170
v 15.795149 -15.022497 -1.766273
v 16.042252 -15.079922 -1.760640
vn -0.3189 0.9478 -0.0000
vn -0.9478 -0.3189 -0.0000
vn -0.9080 0.4190 -0.0000
vn -0.4190 -0.9080 -0.0000
vn 0.7640 -0.6453 -0.0000
vn 0.6453 0.7639 -0.0000
vn 0.9327 0.3606 -0.0000
vn -0.3606 0.9327 -0.0000
vn 0.9987 -0.0507 -0.0000
vn 0.0507 0.9987 -0.0000
vn -0.1071 0.9943 -0.0000
vn -0.9943 -0.1071 -0.0000
vn 0.9996 -0.0280 -0.0000
vn 0.0280 0.9996 -0.0000
vn 0.2423 -0.9702 -0.0000
vn 0.9702 0.2423 -0.0000
vn -0.1458 0.9893 -0.0000
vn -0.9893 -0.1458 -0.0000
vn 0.5847 0.8113 -0.0000
vn -0.8113 0.5847 -0.0000
vn 0.2507 0.9681 -0.0000
vn -0.9681 0.2507 -0.0000
vn 0.0114 0.9999 -0.0000
vn -0.9999 0.0114 -0.0000
vn 0.9996 -0.0279 -0.0000
vn 0.0279 0.9996 -0.0000
vn 0.9196 0.3928 -0.0000
vn -0.3928 0.9196 -0.0000
vn -0.5278 0.8494 -0.0000
vn -0.8494 -0.5278 -0.0000
vn 0.9445 -0.3284 -0.0000
vn 0.3284 0.9445 -0.0000
vn -0.9831 0.1833 -0.0000
vn -0.1833 -0.9831 -0.0000
vn -0.9300 0.3676 -0.0000
vn -0.3676 -0.9300 -0.0000
vn -0.4292 0.9032 -0.0000
vn -0.9032 -0.4292 -0.0000
vn -0.1656 0.9862 -0.0000
vn -0.9862 -0.1656 -0.0000
vn -0.5975 0.8019 -0.0000
vn -0.8019 -0.5975 -0.0000
vn 0.8170 -0.5766 -0.0000
vn 0.5766 0.8170 -0.0000
vn -0.2635 -0.9646 -0.0000
vn 0.9646 -0.2635 -0.0000
vn -0.7489 -0.6627 -0.0000
vn 0.6627 -0.7489 -0.0000
vn 0.9855 -0.1695 -0.0000
vn 0.1695 0.9855 -0.0000
vn -0.9823 -0.1871 -0.0000
vn 0.1871 -0.9823 -0.0000
vn -0.4412 0.8974 -0.0000
vn -0.8974 -0.4412 -0.0000
vn 0.6238 -0.7816 -0.0000
vn 0.7816 0.6238 -0.0000
vn -0.3035 0.9528 -0.0000
vn -0.9528 -0.3035 -0.0000
vn -0.6454 -0.7639 -0.0000
vn 0.7639 -0.6454 -0.0000
vn -0.4975 0.8675 -0.0000
vn -0.8675 -0.4975 -0.0000
vn 0.8947 -0.4467 -0.0000
vn 0.4467 0.8947 -0.0000
vn 0.3618 0.9323 -0.0000
vn -0.9323 0.3618 -0.0000
vn -0.9998 0.0203 -0.0000
vn -0.0203 -0.9998 -0.0000
vn 0.8059 -0.5920 -0.0000
vn 0.5920 0.8059 -0.0000
vn 0.7237 0.6901 -0.0000
vn -0.6901 0.7237 -0.0000
vn -0.4984 -0.8670 -0.0000
vn 0.8670 -0.4984 -0.0000
vn 0.9740 -0.2264 -0.0000
vn 0.2264 0.9740 -0.0000
vn 0.7639 -0.6453 -0.0000
vn -0.9942 -0.1071 -0.0000
vn 0.0278 0.9996 -0.0000
vn 0.9196 0.3927 -0.0000
vt 0.038376 0.371048
vt 0.159378 0.250046
vt 0.194166 0.371048
vt 0.420000 0.250000
vt 0.324298 0.384599
vt 0.332846 0.250000
vt 0.587516 0.250000
vt 0.696219 0.438742
vt 0.532955 0.380692
vt 0.931885 0.250000
vt 0.823776 0.442088
vt 0.822774 0.250000
vt 0.183597 0.000000
vt 0.079867 0.150378
vt 0.039548 0.000000
vt 0.406485 0.000000
vt 0.282420 0.163926
vt 0.257324 0.000000
vt 0.574736 0.000000
vt 0.727477 0.180119
vt 0.531923 0.174939
vt 0.795077 0.000000
vt 0.947964 0.152455
vt 0.797243 0.175205
vt 0.943005 0.000000
vt 0.067034 0.250046
vt 0.455465 0.376315
vt 0.715504 0.250000
vt 0.958681 0.395835
vt 0.198343 0.201154
vt 0.456826 0.176726
vt 0.711067 0.000000
s 0
f 1/1/1 3/2/1 4/3/1
f 6/4/2 8/5/2 5/6/2
f 9/7/3 11/8/3 12/9/3
f 13/10/4 15/11/4 16/12/4
f 17/13/5 19/14/5 20/15/5
f 22/16/6 24/17/6 21/18/6
f 25/1/7 27/2/7 28/3/7
f 30/4/8 32/5/8 29/6/8
f 33/19/9 35/20/9 36/21/9
f 37/22/10 39/23/10 40/24/10
f 41/1/11 43/2/11 44/3/11
f 46/4/12 48/5/12 45/6/12
f 49/19/13 51/20/13 52/21/13
f 53/22/14 55/23/14 56/24/14
f 57/7/15 59/8/15 60/9/15
f 61/10/16 63/11/16 64/12/16
f 65/7/17 67/8/17 68/9/17
f 69/10/18 71/11/18 72/12/18
f 73/19/19 75/20/19 76/21/19
f 78/25/20 80/24/20 77/22/20
f 81/19/21 83/20/21 84/21/21
f 86/25/22 88/24/22 85/22/22
f 89/19/23 91/20/23 92/21/23
f 94/25/24 96/24/24 93/22/24
f 97/1/25 99/2/25 100/3/25
f 102/4/26 104/5/26 101/6/26
f 105/1/27 107/2/27 108/3/27
f 110/4/28 112/5/28 109/6/28
f 113/7/29 115/8/29 116/9/29
f 117/10/30 119/11/30 120/12/30
f 121/7/31 123/8/31 124/9/31
f 125/10/32 127/11/32 128/12/32
f 129/19/33 131/20/33 132/21/33
f 134/25/34 136/24/34 133/22/34
f 137/19/35 139/20/35 140/21/35
f 141/22/36 143/23/36 144/24/36
f 145/1/37 147/2/37 148/3/37
f 150/4/38 152/5/38 149/6/38
f 153/13/39 155/14/39 156/15/39
f 158/16/40 160/17/40 157/18/40
f 161/19/41 163/20/41 164/21/41
f 166/25/42 168/24/42 165/22/42
f 169/19/43 171/20/43 172/21/43
f 174/25/44 176/24/44 173/22/44
f 177/19/45 179/20/45 180/21/45
f 182/25/46 184/24/46 181/22/46
f 185/13/47 187/14/47 188/15/47
f 190/16/48 192/17/48 189/18/48
f 193/1/49 195/2/49 196/3/49
f 198/4/50 200/5/50 197/6/50
f 201/1/51 203/2/51 204/3/51
f 206/4/52 208/5/52 205/6/52
f 209/19/53 211/20/53 212/21/53
f 214/25/54 216/24/54 213/22/54
f 217/13/55 219/14/55 220/15/55
f 222/16/56 224/17/56 221/18/56
f 225/13/57 227/14/57 228/15/57
f 230/16/58 232/17/58 229/18/58
f 233/19/59 235/20/59 236/21/59
f 237/22/60 239/23/60 240/24/60
f 241/13/61 243/14/61 244/15/61
f 246/16/62 248/17/62 245/18/62
f 249/1/63 251/2/63 252/3/63
f 254/4/64 256/5/64 253/6/64
f 257/7/65 259/8/65 260/9/65
f 261/10/66 263/11/66 264/12/66
f 265/1/67 267/2/67 268/3/67
f 270/4/68 272/5/68 269/6/68
f 273/1/69 275/2/69 276/3/69
f 278/4/70 280/5/70 277/6/70
f 281/1/71 283/2/71 284/3/71
f 286/4/72 288/5/72 285/6/72
f 289/19/73 291/20/73 292/21/73
f 293/22/74 295/23/74 296/24/74
f 297/1/75 299/2/75 300/3/75
f 302/4/76 304/5/76 301/6/76
f 1/1/1 2/26/1 3/2/1
f 6/4/2 7/27/2 8/5/2
f 9/7/3 10/28/3 11/8/3
f 13/10/4 14/29/4 15/11/4
f 17/13/77 18/30/77 19/14/77
f 22/16/6 23/31/6 24/17/6
f 25/1/7 26/26/7 27/2/7
f 30/4/8 31/27/8 32/5/8
f 33/19/9 34/32/9 35/20/9
f 37/22/10 38/25/10 39/23/10
f 41/1/11 42/26/11 43/2/11
f 46/4/78 47/27/78 48/5/78
f 49/19/13 50/32/13 51/20/13
f 53/22/14 54/25/14 55/23/14
f 57/7/15 58/28/15 59/8/15
f 61/10/16 62/29/16 63/11/16
f 65/7/17 66/28/17 67/8/17
f 69/10/18 70/29/18 71/11/18
f 73/19/19 74/32/19 75/20/19
f 78/25/20 79/23/20 80/24/20
f 81/19/21 82/32/21 83/20/21
f 86/25/22 87/23/22 88/24/22
f 89/19/23 90/32/23 91/20/23
f 94/25/24 95/23/24 96/24/24
f 97/1/25 98/26/25 99/2/25
f 102/4/79 103/27/79 104/5/79
f 105/1/80 106/26/80 107/2/80
f 110/4/28 111/27/28 112/5/28
f 113/7/29 114/28/29 115/8/29
f 117/10/30 118/29/30 119/11/30
f 121/7/31 122/28/31 123/8/31
f 125/10/32 126/29/32 127/11/32
f 129/19/33 130/32/33 131/20/33
f 134/25/34 135/23/34 136/24/34
f 137/19/35 138/32/35 139/20/35
f 141/22/36 142/25/36 143/23/36
f 145/1/37 146/26/37 147/2/37
f 150/4/38 151/27/38 152/5/38
f 153/13/39 154/30/39 155/14/39
f 158/16/40 159/31/40 160/17/40
f 161/19/41 162/32/41 163/20/41
f 166/25/42 167/23/42 168/24/42
f 169/19/43 170/32/43 171/20/43
f 174/25/44 175/23/44 176/24/44
f 177/19/45 178/32/45 179/20/45
f 182/25/46 183/23/46 184/24/46
f 185/13/47 186/30/47 187/14/47
f 190/16/48 191/31/48 192/17/48
f 193/1/49 194/26/49 195/2/49
f 198/4/50 199/27/50 200/5/50
f 201/1/51 202/26/51 203/2/51
f 206/4/52 207/27/52 208/5/52
f 209/19/53 210/32/53 211/20/53
f 214/25/54 215/23/54 216/24/54
f 217/13/55 218/30/55 219/14/55
f 222/16/56 223/31/56 224/17/56
f 225/13/57 226/30/57 227/14/57
f 230/16/58 231/31/58 232/17/58
f 233/19/59 234/32/59 235/20/59
f 237/22/60 238/25/60 239/23/60
f 241/13/61 242/30/61 243/14/61
f 246/16/62 247/31/62 248/17/62
f 249/1/63 250/26/63 251/2/63
f 254/4/64 255/27/64 256/5/64
f 257/7/65 258/28/65 259/8/65
f 261/10/66 262/29/66 263/11/66
f 265/1/67 266/26/67 267/2/67
f 270/4/68 271/27/68 272/5/68
f 273/1/69 274/26/69 275/2/69
f 278/4/70 279/27/70 280/5/70
f 281/1/71 282/26/71 283/2/71
f 286/4/72 287/27/72 288/5/72
f 289/19/73 290/32/73 291/20/73
f 293/22/74 294/25/74 295/23/74
f 297/1/75 298/26/75 299/2/75
f 302/4/76 303/27/76 304/5/76
