mtllib grass_06_06_b1.mtl
usemtl grass_06_06_b1
# Blender 5.1.1
# www.blender.org
o grass_06_06_b1
v -3.589396 13.748867 0.434313
v -3.425581 13.846281 0.434313
v -3.405862 13.858007 0.557506
v -3.640841 13.718274 0.553963
v -3.471890 13.688746 0.434313
v -3.577592 13.866498 0.434313
v -3.581136 13.872457 0.538584
v -3.473438 13.691349 0.554144
v -9.342526 11.549393 1.043265
v -9.537004 11.469028 1.043265
v -9.569837 11.455461 1.131890
v -9.309065 11.563220 1.148940
v -9.486357 11.613160 1.043198
v -9.388995 11.377551 1.043198
v -9.425358 11.465547 1.167896
v -9.493386 11.630170 1.130016
v -7.393151 5.330495 -0.550718
v -7.333792 5.300899 -0.641676
v -7.142523 5.205532 -0.641676
v -7.070468 5.169605 -0.550718
v -7.257264 5.153724 -0.641711
v -7.167256 5.334243 -0.641711
v -7.130630 5.407700 -0.546759
v -7.266091 5.136019 -0.540531
v -15.778297 11.739587 2.254520
v -15.882923 11.673139 2.254520
v -15.895516 11.665140 2.378675
v -15.745440 11.760454 2.375104
v -15.855826 11.776424 2.254520
v -15.783726 11.662898 2.254520
v -15.781308 11.659092 2.359606
v -15.854771 11.774762 2.375288
v -10.475270 9.698545 0.886838
v -10.520269 9.862095 0.886838
v -10.513489 9.837451 0.989304
v -10.456087 9.628826 0.957790
v -10.561138 9.726445 0.886838
v -10.595380 9.717024 0.966011
v -10.422994 9.764454 0.991121
v -10.421713 9.764807 0.886838
v -2.354224 16.068407 0.685058
v -2.299117 15.915881 0.685058
v -2.289813 15.890130 0.771964
v -2.363706 16.094650 0.788684
v -2.408323 15.959889 0.684993
v -2.223538 16.026651 0.684993
v -2.292552 16.001717 0.807271
v -2.421664 15.955070 0.770127
v -14.810386 5.059984 0.946746
v -14.851175 5.064595 0.829220
v -14.982608 5.079453 0.829220
v -15.032122 5.085050 0.946746
v -14.926895 5.133919 0.829176
v -14.940918 5.009872 0.829176
v -14.946625 4.959396 0.951861
v -14.925520 5.146084 0.959908
v -14.070704 -13.138785 -3.167830
v -13.855330 -13.011542 -3.167830
v -13.822426 -12.992104 -3.071274
v -14.076367 -13.142130 -3.051515
v -13.906496 -13.136469 -3.167845
v -14.024680 -12.936425 -3.167845
v -14.024680 -12.936425 -3.068942
v -13.900688 -13.146300 -3.050033
v -12.903123 15.342861 2.433773
v -12.799288 15.584101 2.433773
v -12.790707 15.604036 2.513901
v -12.914256 15.316996 2.560660
v -12.751470 15.407573 2.433824
v -12.980855 15.506306 2.433824
v -12.920924 15.480510 2.524225
v -12.715681 15.392168 2.537100
v -11.513282 7.860922 0.854515
v -11.539182 7.817501 0.697976
v -11.622637 7.677588 0.697976
v -11.654077 7.624879 0.854515
v -11.655437 7.767772 0.697916
v -11.523386 7.689006 0.697916
v -11.469653 7.656955 0.861329
v -11.668387 7.775496 0.872046
v -4.587425 14.735759 0.799676
v -4.582287 14.766957 0.939921
v -4.623567 14.516298 0.904520
v -4.637615 14.430996 0.799676
v -4.358876 14.570785 0.799676
v -4.674454 14.622756 0.799676
v -4.780961 14.640296 0.922890
v -4.411971 14.579529 0.913966
v -15.199027 14.379373 2.664028
v -15.203568 14.350723 2.966023
v -15.167088 14.580904 2.889793
v -15.154674 14.659237 2.664028
v -15.409610 14.529450 2.664028
v -15.119814 14.483523 2.664028
v -15.022009 14.468022 2.929350
v -15.360853 14.521724 2.910132
v -11.058650 0.990654 -0.721999
v -11.048585 1.170037 -0.721999
v -11.050101 1.143008 -0.593627
v -11.062941 0.914183 -0.633109
v -11.135429 1.047663 -0.721999
v -11.172986 1.049770 -0.622810
v -10.983909 1.039162 -0.591351
v -10.982505 1.039083 -0.721999
v -12.286319 -0.295677 -0.730912
v -12.298273 -0.313305 -0.593123
v -12.202227 -0.171680 -0.627904
v -12.169540 -0.123484 -0.730912
v -12.379483 -0.130234 -0.730912
v -12.201179 -0.251156 -0.730912
v -12.141002 -0.291967 -0.609856
v -12.349484 -0.150578 -0.618624
v -12.685878 8.114478 0.967286
v -12.493694 8.061599 0.967286
v -12.522653 8.069567 1.139832
v -12.767805 8.137021 1.086764
v -12.606091 8.184407 0.967286
v -12.595019 8.224644 1.100607
v -12.650757 8.022076 1.142891
v -12.651171 8.020571 0.967286
v -8.196911 11.120458 0.714495
v -7.960337 11.100963 0.714495
v -7.940787 11.099352 0.790309
v -8.222277 11.122548 0.834551
v -8.097804 11.009166 0.714543
v -8.079268 11.234116 0.714543
v -8.084110 11.175344 0.800077
v -8.100696 10.974069 0.812259
v -14.597522 5.891410 1.079480
v -14.592384 5.957592 0.954904
v -14.575830 6.170844 0.954904
v -14.569594 6.251181 1.079480
v -14.484646 6.083897 0.954857
v -14.685914 6.099521 0.954857
v -14.767813 6.105878 1.084902
v -14.464907 6.082365 1.093431
v -12.911842 8.058404 0.996387
v -12.882024 7.855152 0.996387
v -12.878435 7.830686 1.153926
v -12.921206 8.122233 1.149395
v -13.020004 7.965986 0.996387
v -12.799461 7.998341 0.996387
v -12.792068 7.999426 1.129729
v -13.016774 7.966460 1.149628
v -5.802659 6.618901 -0.615059
v -5.795332 6.604950 -0.467159
v -5.854196 6.717039 -0.504492
v -5.874228 6.755184 -0.615059
v -5.943103 6.615873 -0.615059
v -5.801984 6.689982 -0.615059
v -5.754357 6.714994 -0.485120
v -5.919361 6.628342 -0.494532
v -11.966450 4.019774 0.095449
v -11.951055 3.980361 0.011811
v -11.901445 3.853363 0.011811
v -11.882757 3.805520 0.095449
v -11.977887 3.877997 0.011780
v -11.858027 3.924817 0.011780
v -11.809253 3.943869 0.099090
v -11.989643 3.873405 0.104816
v -15.910497 6.072386 1.232494
v -15.897547 6.053288 1.370329
v -16.001585 6.206731 1.335536
v -16.036991 6.258949 1.232494
v -16.114357 6.044942 1.232494
v -15.921175 6.175925 1.232494
v -15.855976 6.220131 1.353590
v -16.081856 6.066980 1.344819
v -15.676090 8.373742 1.584985
v -15.489285 8.426262 1.584985
v -15.457747 8.435129 1.680539
v -15.708232 8.364705 1.698922
v -15.551285 8.299760 1.584913
v -15.614913 8.526073 1.584913
v -15.591149 8.441549 1.719359
v -15.546692 8.283421 1.678519
v -12.736952 8.317138 1.032858
v -12.571280 8.503083 1.032858
v -12.545970 8.531490 1.117391
v -12.741308 8.312249 1.134690
v -12.581936 8.369107 1.032845
v -12.754644 8.522985 1.032845
v -12.754644 8.522985 1.119433
v -12.573448 8.361545 1.135988
v -13.858634 -3.022860 -0.928679
v -14.083758 -3.121996 -0.928679
v -14.110857 -3.133929 -0.753067
v -13.787935 -2.991727 -0.758118
v -13.999753 -2.927431 -0.928679
v -13.892183 -3.171708 -0.928679
v -13.888577 -3.179897 -0.780040
v -13.998178 -2.931009 -0.757859
v -9.414919 -0.622921 -1.382301
v -9.424150 -0.637813 -1.254489
v -9.349979 -0.518163 -1.286752
v -9.324739 -0.477445 -1.382301
v -9.497077 -0.490074 -1.382301
v -9.346438 -0.583454 -1.382301
v -9.295598 -0.614970 -1.270010
v -9.471732 -0.505785 -1.278144
v -2.995262 12.100857 -0.016228
v -3.010123 12.088387 0.139446
v -2.890728 12.188570 0.100150
v -2.850096 12.222663 -0.016228
v -3.035716 12.268994 -0.016228
v -2.909587 12.118677 -0.016228
v -2.867019 12.067945 0.120541
v -3.014495 12.243704 0.110635
v -15.310330 0.104976 -0.025464
v -15.472556 0.105506 -0.025464
v -15.485962 0.105550 0.074649
v -15.292936 0.104919 0.133071
v -15.383849 0.175455 -0.025400
v -15.384354 0.021202 -0.025400
v -15.384222 0.061503 0.087548
v -15.383771 0.199523 0.103635
v -5.845232 2.445657 -1.327219
v -5.852235 2.490219 -1.451791
v -5.874804 2.633809 -1.451791
v -5.883305 2.687903 -1.327219
v -5.800855 2.590655 -1.451838
v -5.936375 2.569355 -1.451838
v -5.991520 2.560688 -1.321797
v -5.787563 2.592744 -1.313268
v -13.877408 -5.622355 -1.307976
v -13.924804 -5.610168 -1.398475
v -14.077523 -5.570899 -1.398475
v -14.135056 -5.556104 -1.307976
v -14.002742 -5.515803 -1.398510
v -14.039804 -5.659940 -1.398510
v -14.054886 -5.718592 -1.304037
v -13.999106 -5.501667 -1.297841
v -12.434267 4.314278 0.182269
v -12.412037 4.177722 0.182269
v -12.409361 4.161284 0.302743
v -12.441249 4.357162 0.299278
v -12.506126 4.250898 0.182269
v -12.357953 4.275021 0.182269
v -12.352986 4.275829 0.284239
v -12.503957 4.251252 0.299456
v -10.738767 13.905434 1.768885
v -10.740851 13.884247 1.915394
v -10.724104 14.054470 1.878412
v -10.718405 14.112399 1.768885
v -10.899557 14.006258 1.768885
v -10.685247 13.985173 1.768885
v -10.612918 13.978057 1.897602
v -10.863501 14.002711 1.888279
v -11.352780 11.931369 1.463554
v -11.180806 11.905142 1.463554
v -11.160105 11.901985 1.558862
v -11.406788 11.939606 1.556121
v -11.304751 11.820880 1.463554
v -11.276293 12.007485 1.463554
v -11.275338 12.013741 1.544223
v -11.304334 11.823613 1.556262
v -12.716689 0.124959 -0.560147
v -12.591893 0.302092 -0.560147
v -12.570824 0.331998 -0.470951
v -12.738162 0.094481 -0.453790
v -12.556450 0.148826 -0.560214
v -12.771047 0.300017 -0.560214
v -12.690899 0.243550 -0.434713
v -12.540956 0.137910 -0.472836
v -5.451892 12.190583 0.608806
v -5.492007 12.159723 0.453775
v -5.621263 12.060287 0.453775
v -5.669957 12.022826 0.608806
v -5.618535 12.156309 0.453717
v -5.524686 12.034317 0.453717
v -5.486497 11.984676 0.615554
v -5.627739 12.168274 0.626168
v -14.068973 6.900430 1.024747
v -14.071305 6.879779 1.257651
v -14.052558 7.045696 1.198861
v -14.046179 7.102159 1.024747
v -14.224495 7.001111 1.024747
v -14.015608 6.977509 1.024747
v -13.945109 6.969543 1.229367
v -14.189351 6.997140 1.214547
v -4.983993 8.606123 -0.350778
v -5.160632 8.790609 -0.350778
v -5.181894 8.812817 -0.176997
v -4.928521 8.548186 -0.181995
v -4.940963 8.777695 -0.350778
v -5.141145 8.586029 -0.350778
v -5.147856 8.579604 -0.203689
v -4.943895 8.774888 -0.181739
v -13.986191 -8.841120 -2.061657
v -14.083760 -8.967716 -2.061657
v -14.095505 -8.982954 -1.974034
v -13.955549 -8.801364 -1.976554
v -14.096380 -8.830595 -2.061657
v -13.959014 -8.936464 -2.061657
v -13.954410 -8.940014 -1.987492
v -14.094368 -8.832145 -1.976425
v -5.670198 3.363136 -1.310346
v -5.733162 3.502347 -1.310346
v -5.738366 3.513852 -1.235648
v -5.663447 3.348209 -1.192058
v -5.638548 3.453683 -1.310298
v -5.770919 3.393814 -1.310298
v -5.736334 3.409456 -1.226024
v -5.617895 3.463025 -1.214021
v -15.255147 -5.751945 -1.163252
v -15.242307 -5.742022 -0.990944
v -15.345466 -5.821744 -1.034438
v -15.380571 -5.848874 -1.163252
v -15.226984 -5.893836 -1.163252
v -15.327353 -5.763960 -1.163252
v -15.361228 -5.720127 -1.011869
v -15.243871 -5.871985 -1.022834
v -7.973500 14.969050 1.458924
v -7.909193 14.810499 1.458924
v -7.918883 14.834390 1.549185
v -8.000914 15.036639 1.521424
v -7.884198 14.951197 1.458924
v -7.851004 14.964660 1.528666
v -8.018122 14.896878 1.550785
v -8.019362 14.896375 1.458924
v -8.341964 2.218543 -1.044648
v -8.370296 2.023926 -1.044648
v -8.373706 2.000499 -0.905798
v -8.333067 2.279661 -0.909791
v -8.466503 2.163399 -1.044648
v -8.255329 2.132657 -1.044648
v -8.248250 2.131627 -0.927124
v -8.463410 2.162948 -0.909586
v -2.647563 13.359499 0.300074
v -2.657439 13.304749 0.156904
v -2.689260 13.128330 0.156904
v -2.701248 13.061870 0.300074
v -2.757947 13.208534 0.156850
v -2.591443 13.178501 0.156850
v -2.523690 13.166280 0.306306
v -2.774276 13.211479 0.316108
v -5.386443 2.565127 -1.554300
v -5.485698 2.405951 -1.554300
v -5.470742 2.429936 -1.440608
v -5.344131 2.632982 -1.475575
v -5.344767 2.474395 -1.554300
v -5.311441 2.453615 -1.466454
v -5.479218 2.558233 -1.438592
v -5.480464 2.559010 -1.554300
v -9.768248 8.857277 0.655498
v -9.798379 8.807434 0.562547
v -9.895466 8.646829 0.562547
v -9.932041 8.586325 0.655498
v -9.932636 8.750938 0.562512
v -9.781056 8.659307 0.562512
v -9.719377 8.622021 0.659543
v -9.947502 8.759925 0.665907
v -3.727599 9.090774 -0.502024
v -3.739689 9.249370 -0.502024
v -3.737867 9.225472 -0.363871
v -3.722446 9.023166 -0.406362
v -3.801628 9.131849 -0.502024
v -3.834832 9.129318 -0.395278
v -3.667667 9.142061 -0.361422
v -3.666425 9.142156 -0.502024
v -13.355619 6.039739 0.714163
v -13.339813 6.169010 0.714163
v -13.342195 6.149531 0.836727
v -13.362358 5.984631 0.799031
v -13.408445 6.084624 0.714163
v -13.435510 6.087933 0.808864
v -13.299253 6.071272 0.838900
v -13.298241 6.071149 0.714163
v -8.808495 10.259454 0.681052
v -8.706196 10.441489 0.681052
v -8.721610 10.414061 0.784017
v -8.852103 10.181853 0.752349
v -8.859440 10.358233 0.681052
v -8.897551 10.379651 0.760610
v -8.705680 10.271825 0.785843
v -8.704254 10.271025 0.681052
v -11.963857 14.374403 2.069759
v -11.946891 14.384344 2.223026
v -12.083199 14.304473 2.184338
v -12.129586 14.277292 2.069759
v -11.951941 14.199513 2.069759
v -12.052499 14.371123 2.069759
v -12.086436 14.429042 2.204413
v -11.968860 14.228386 2.194660
v -5.621220 15.876858 1.237422
v -5.478467 15.957199 1.237422
v -5.461284 15.966869 1.372317
v -5.666050 15.851628 1.368438
v -5.521489 15.822790 1.237422
v -5.608664 15.977688 1.237422
v -5.611587 15.982881 1.351599
v -5.522766 15.825059 1.368637
v -15.002633 7.303191 1.416975
v -15.030471 7.273460 1.265721
v -15.120171 7.177661 1.265721
v -15.153962 7.141571 1.416975
v -15.130508 7.254272 1.265664
v -15.040092 7.169614 1.265664
v -15.003301 7.135165 1.423558
v -15.139376 7.262575 1.433913
v -7.114864 2.648562 -1.158395
v -7.101429 2.623227 -0.902622
v -7.209372 2.826780 -0.967184
v -7.246106 2.896051 -1.158395
v -7.370429 2.642023 -1.158395
v -7.114157 2.777923 -1.158395
v -7.027666 2.823789 -0.933682
v -7.327312 2.664888 -0.949958
v -15.955533 -1.710116 -0.278639
v -15.748736 -1.729484 -0.278639
v -15.717143 -1.732442 -0.198059
v -15.960970 -1.709607 -0.181569
v -15.843997 -1.788553 -0.278651
v -15.826008 -1.596478 -0.278651
v -15.826008 -1.596478 -0.196112
v -15.844881 -1.797993 -0.180332
v -10.805964 13.249693 1.616533
v -10.804437 13.049754 1.616533
v -10.804178 13.015998 1.697605
v -10.806227 13.284095 1.713202
v -10.913364 13.145703 1.616472
v -10.671138 13.147554 1.616472
v -10.761605 13.146863 1.730542
v -10.930852 13.145570 1.695891
v -13.715377 -11.835942 -2.896836
v -13.566346 -11.692337 -2.896836
v -13.588802 -11.713975 -2.807326
v -13.778908 -11.897161 -2.834855
v -13.735556 -11.727648 -2.896836
v -13.765621 -11.696445 -2.827674
v -13.614256 -11.853530 -2.805739
v -13.613132 -11.854696 -2.896836
v -9.176879 -5.578191 -2.413149
v -9.348821 -5.612830 -2.413149
v -9.375089 -5.618122 -2.327945
v -9.172359 -5.577280 -2.310510
v -9.286154 -5.541891 -2.413162
v -9.253981 -5.701593 -2.413162
v -9.253981 -5.701593 -2.325887
v -9.287735 -5.534042 -2.309202
v -13.723790 14.759893 2.429430
v -13.503995 14.708648 2.429430
v -13.466887 14.699996 2.506086
v -13.761608 14.768710 2.520834
v -13.638111 14.614519 2.429372
v -13.576028 14.880801 2.429372
v -13.599215 14.781349 2.537230
v -13.642593 14.595295 2.504466
v -8.844326 3.359137 -0.704222
v -8.694577 3.480173 -0.704222
v -8.717141 3.461935 -0.574137
v -8.908163 3.307539 -0.614146
v -8.854263 3.461141 -0.704222
v -8.879603 3.492492 -0.603709
v -8.752028 3.334652 -0.571831
v -8.751080 3.333480 -0.704222
v -4.713029 5.929221 -0.983832
v -4.614478 6.033036 -0.983832
v -4.629327 6.017393 -0.844986
v -4.755040 5.884964 -0.887690
v -4.730307 6.003426 -0.983832
v -4.752042 6.024059 -0.876550
v -4.642617 5.920183 -0.842524
v -4.641804 5.919412 -0.983832
v -9.616351 7.021080 0.207187
v -9.846453 7.160366 0.207187
v -9.874149 7.177132 0.474949
v -9.544090 6.977339 0.467248
v -9.619532 7.207329 0.207187
v -9.770666 6.957654 0.207187
v -9.775733 6.949283 0.433823
v -9.621745 7.203673 0.467644
v -14.765163 -2.345432 -0.583249
v -14.870019 -2.180654 -0.583249
v -14.894881 -2.141584 -0.442114
v -14.792035 -2.303204 -0.442114
v -14.768343 -2.189498 -0.583310
v -14.919127 -2.285449 -0.583310
v -14.928791 -2.291598 -0.427161
v -14.793969 -2.205805 -0.441233
v -11.524530 -5.594477 -1.942419
v -11.503059 -5.736419 -1.942419
v -11.506294 -5.715031 -1.837596
v -11.533683 -5.533967 -1.869836
v -11.455155 -5.626505 -1.942419
v -11.425438 -5.622010 -1.861426
v -11.575050 -5.644640 -1.835738
v -11.576161 -5.644808 -1.942419
v -4.091956 10.936235 -0.037888
v -4.123062 11.181342 -0.037888
v -4.126806 11.210846 0.065866
v -4.082187 10.859262 0.062882
v -3.959731 11.044839 -0.037888
v -4.225689 11.011087 -0.037888
v -4.234605 11.009956 0.049930
v -3.963626 11.044345 0.063035
v -2.157169 14.286661 0.321613
v -2.138894 14.269753 0.538505
v -2.285724 14.405603 0.483757
v -2.335692 14.451835 0.321613
v -2.364723 14.208014 0.321613
v -2.193687 14.392871 0.321613
v -2.135963 14.455260 0.512166
v -2.335947 14.239115 0.498364
v -12.520715 5.781943 0.522601
v -12.612144 5.986389 0.522601
v -12.619699 6.003284 0.640036
v -12.510912 5.760023 0.708566
v -12.473761 5.914471 0.522676
v -12.668159 5.827535 0.522676
v -12.617370 5.850249 0.655167
v -12.443429 5.928035 0.674037
v -11.951517 -2.295900 -1.184377
v -11.866832 -2.103273 -1.184377
v -11.852534 -2.070752 -1.100943
v -11.966088 -2.329044 -1.084891
v -11.803590 -2.242334 -1.184439
v -12.036958 -2.139738 -1.184439
v -11.949799 -2.178056 -1.067046
v -11.786741 -2.249741 -1.102706
v -12.651105 8.797942 1.078459
v -12.510832 8.645111 1.078459
v -12.487149 8.619308 1.176753
v -12.675241 8.824239 1.195663
v -12.661427 8.643183 1.078386
v -12.476271 8.813124 1.078386
v -12.545423 8.749654 1.216686
v -12.674794 8.630914 1.174675
v -13.240061 5.762313 0.638442
v -13.132414 5.987780 0.638442
v -13.148634 5.953806 0.766744
v -13.285951 5.666199 0.727283
v -13.308743 5.876190 0.638442
v -13.355947 5.898727 0.737577
v -13.118298 5.785264 0.769018
v -13.116532 5.784421 0.638442
v -5.550652 2.576629 -1.521428
v -5.383538 2.637797 -1.521428
v -5.408719 2.628580 -1.412567
v -5.621891 2.550553 -1.446048
v -5.528895 2.668817 -1.521428
v -5.541701 2.703804 -1.437314
v -5.477228 2.527661 -1.410637
v -5.476749 2.526353 -1.521428
v -15.006318 3.828866 0.599072
v -15.022019 3.822369 0.705256
v -14.895866 3.874568 0.678453
v -14.852935 3.892332 0.599072
v -14.995770 3.979984 0.599072
v -14.930052 3.821158 0.599072
v -14.907872 3.767555 0.692361
v -14.984714 3.953262 0.685604
v -6.415612 0.141037 -1.832582
v -6.332051 0.335428 -1.832582
v -6.325146 0.351492 -1.729337
v -6.424571 0.120194 -1.669088
v -6.293459 0.193229 -1.832516
v -6.478298 0.272684 -1.832516
v -6.430006 0.251925 -1.716035
v -6.264620 0.180832 -1.699445
v -9.755984 5.013591 -0.131350
v -9.754416 4.959792 -0.225873
v -9.749362 4.786438 -0.225873
v -9.747458 4.721131 -0.131350
v -9.830378 4.848668 -0.225909
v -9.666766 4.853437 -0.225909
v -9.600189 4.855379 -0.127236
v -9.846424 4.848200 -0.120765
v -3.715494 11.583531 0.002504
v -3.701861 11.601143 0.133376
v -3.811395 11.459647 0.100341
v -3.848671 11.411495 0.002504
v -3.629129 11.404756 0.002504
v -3.807271 11.542659 0.002504
v -3.867393 11.589200 0.117483
v -3.659101 11.427958 0.109155
v -7.437250 13.361198 1.068291
v -7.435673 13.602026 1.068291
v -7.435483 13.631015 1.159831
v -7.437745 13.285569 1.157198
v -7.295484 13.449065 1.068291
v -7.556799 13.450776 1.068291
v -7.565559 13.450833 1.145771
v -7.299311 13.449090 1.157333
v -5.425653 2.767935 -1.348275
v -5.470068 2.777977 -1.467708
v -5.613187 2.810332 -1.467708
v -5.667103 2.822521 -1.348275
v -5.545136 2.863618 -1.467753
v -5.575673 2.728543 -1.467753
v -5.588099 2.673579 -1.343077
v -5.542141 2.876866 -1.334900
v -12.508810 12.107885 1.702678
v -12.516568 12.127052 1.848022
v -12.454236 11.973061 1.811334
v -12.433024 11.920655 1.702678
v -12.325030 12.093634 1.702678
v -12.518905 12.015159 1.702678
v -12.584336 11.988673 1.830371
v -12.357649 12.080431 1.821122
v -15.789867 -1.313480 -0.200365
v -15.776198 -1.138198 -0.200365
v -15.774553 -1.117099 -0.057390
v -15.794161 -1.368527 -0.061502
v -15.682069 -1.256869 -0.200365
v -15.872264 -1.242037 -0.200365
v -15.878640 -1.241540 -0.079350
v -15.684855 -1.256652 -0.061291
v -15.970170 15.350901 2.968523
v -15.823846 15.517849 2.968523
v -15.806232 15.537944 3.057806
v -16.016121 15.298472 3.055238
v -15.818349 15.326671 2.968523
v -15.999499 15.485443 2.968523
v -16.005571 15.490766 3.044093
v -15.821002 15.328996 3.055370
v -6.600407 4.412525 -0.886231
v -6.727805 4.606253 -0.886231
v -6.758011 4.652186 -0.797238
v -6.633055 4.462172 -0.797238
v -6.606956 4.597564 -0.886269
v -6.784231 4.480986 -0.886269
v -6.795593 4.473514 -0.787810
v -6.637085 4.577752 -0.796683
v -7.180501 4.538309 -0.682365
v -7.227235 4.513739 -0.778760
v -7.377824 4.434569 -0.778760
v -7.434555 4.404744 -0.682365
v -7.357902 4.532785 -0.778797
v -7.283181 4.390658 -0.778797
v -7.252776 4.332825 -0.678169
v -7.365231 4.546724 -0.671570
v -15.069278 7.400509 1.291721
v -15.088552 7.389276 1.430168
v -14.933688 7.479525 1.395221
v -14.880986 7.510237 1.291721
v -15.082322 7.598962 1.291721
v -14.968699 7.403990 1.291721
v -14.930352 7.338187 1.413355
v -15.063206 7.566159 1.404545
v -5.874509 5.768414 -0.820598
v -5.898675 5.778975 -0.684217
v -5.704516 5.694124 -0.718642
v -5.638443 5.665249 -0.820598
v -5.694203 5.919294 -0.820598
v -5.801030 5.674851 -0.820598
v -5.837083 5.592351 -0.700779
v -5.712176 5.878168 -0.709457
v -6.765447 14.361526 1.154223
v -6.976340 14.401906 1.154223
v -6.993768 14.405243 1.236936
v -6.742836 14.357197 1.285204
v -6.843837 14.471192 1.154276
v -6.882233 14.270663 1.154276
v -6.872201 14.323055 1.247593
v -6.837847 14.502480 1.260884
v -11.858678 6.355400 0.463044
v -11.859214 6.376729 0.600240
v -11.854901 6.205364 0.565609
v -11.853434 6.147047 0.463044
v -11.686337 6.274929 0.463044
v -11.902084 6.269499 0.463044
v -11.974899 6.267667 0.583579
v -11.722635 6.274015 0.574849
v -10.857924 14.811120 1.934410
v -10.872576 14.822176 2.159301
v -10.754864 14.733352 2.102534
v -10.714805 14.703124 1.934410
v -10.711482 14.884106 1.934410
v -10.823310 14.735908 1.934410
v -10.861053 14.685891 2.131991
v -10.730296 14.859172 2.117680
v -6.443211 1.008336 -1.681921
v -6.464746 0.774124 -1.681921
v -6.468382 0.734582 -1.605757
v -6.439506 1.048635 -1.591104
v -6.581057 0.899142 -1.681978
v -6.297309 0.873052 -1.681978
v -6.403283 0.882796 -1.574813
v -6.601542 0.901026 -1.607367
v -15.957006 15.499379 3.003653
v -15.956400 15.484487 3.219086
v -15.961277 15.604136 3.164706
v -15.962937 15.644853 3.003653
v -16.078259 15.553711 3.003653
v -15.927623 15.559852 3.003653
v -15.876783 15.561924 3.192924
v -16.052916 15.554744 3.179215
v -8.271791 9.582831 0.480175
v -8.368768 9.784796 0.480175
v -8.391761 9.832683 0.566884
v -8.296643 9.634589 0.566884
v -8.254167 9.760869 0.480137
v -8.438978 9.672129 0.480137
v -8.450824 9.666441 0.576070
v -8.285576 9.745788 0.567425
v -11.443778 9.089025 0.929044
v -11.540409 8.919547 0.929044
v -11.556724 8.890934 1.026366
v -11.427152 9.118186 1.045089
v -11.585343 9.053867 0.928972
v -11.380020 8.936799 0.928972
v -11.456704 8.980521 1.065904
v -11.600166 9.062319 1.024308
v -1.885875 15.384780 0.453901
v -1.891284 15.406642 0.574940
v -1.847824 15.230991 0.544387
v -1.833034 15.171215 0.453901
v -1.689916 15.341072 0.453901
v -1.911059 15.286355 0.453901
v -1.985694 15.267889 0.560241
v -1.727122 15.331866 0.552539
v -5.612154 9.995571 0.047375
v -5.585355 9.995784 0.178709
v -5.800664 9.994079 0.145558
v -5.873936 9.993499 0.047375
v -5.716950 9.780874 0.047375
v -5.719096 10.051947 0.047375
v -5.719820 10.143433 0.162760
v -5.717311 9.826481 0.154403
v -12.984494 9.649307 1.345076
v -12.935748 9.796123 1.345076
v -12.927519 9.820910 1.467247
v -12.992882 9.624045 1.490751
v -12.879900 9.698683 1.344985
v -13.057767 9.757738 1.344985
v -12.991337 9.735682 1.516881
v -12.867059 9.694419 1.464664
v -13.095358 -12.321674 -3.185969
v -13.056211 -12.544978 -3.185969
v -13.062110 -12.511331 -2.987884
v -13.112045 -12.226480 -3.048807
v -12.984645 -12.369675 -3.185969
v -12.937894 -12.361480 -3.032915
v -13.173264 -12.402740 -2.984372
v -13.175013 -12.403047 -3.185969
v -12.329549 15.616758 2.456795
v -12.266483 15.640157 2.352272
v -12.063271 15.715553 2.352272
v -11.986716 15.743958 2.456795
v -12.104506 15.594721 2.352233
v -12.175666 15.786513 2.352233
v -12.204621 15.864556 2.461344
v -12.097528 15.575911 2.468500
v -10.818027 -5.159282 -2.003017
v -10.665674 -5.073210 -2.003017
v -10.647335 -5.062850 -1.898006
v -10.865872 -5.186312 -1.901026
v -10.711397 -5.216865 -2.003017
v -10.804790 -5.051550 -2.003017
v -10.807921 -5.046009 -1.914135
v -10.712765 -5.214444 -1.900871
v -8.280119 14.451710 1.426929
v -8.259752 14.463680 1.560004
v -8.423391 14.367508 1.526413
v -8.479079 14.334779 1.426929
v -8.265531 14.241611 1.426929
v -8.386611 14.447631 1.426929
v -8.427475 14.517162 1.543843
v -8.285902 14.276273 1.535375
v -7.058948 -0.962348 -1.861561
v -7.062191 -1.016969 -1.969655
v -7.072638 -1.192972 -1.969655
v -7.076574 -1.259277 -1.861561
v -7.149092 -1.122680 -1.969696
v -6.982980 -1.132540 -1.969696
v -6.915387 -1.136553 -1.856856
v -7.165383 -1.121713 -1.849455
v -5.102698 5.118208 -1.049108
v -5.315979 5.116210 -1.049108
v -5.366549 5.115736 -0.935964
v -5.157356 5.117696 -0.935964
v -5.249052 5.205332 -1.049158
v -5.247223 5.010165 -1.049158
v -5.247106 4.997656 -0.923977
v -5.248741 5.172163 -0.935258
v -7.394288 4.820966 -0.711156
v -7.312403 4.644357 -0.711156
v -7.302547 4.623098 -0.524563
v -7.420003 4.876428 -0.529930
v -7.467634 4.707847 -0.711156
v -7.276000 4.796698 -0.711156
v -7.269577 4.799676 -0.553222
v -7.464828 4.709148 -0.529655
v -6.952505 11.662881 0.623026
v -6.889419 11.820298 0.623026
v -6.898925 11.796579 0.726267
v -6.979398 11.595776 0.694514
v -7.003993 11.737023 0.623026
v -7.036950 11.750231 0.702797
v -6.871027 11.683736 0.728097
v -6.869794 11.683242 0.623026
v -8.523155 2.075716 -1.027301
v -8.389518 2.166807 -1.027301
v -8.409655 2.153082 -0.905444
v -8.580124 2.036885 -0.942922
v -8.524502 2.161789 -1.027301
v -8.543573 2.189768 -0.933146
v -8.447560 2.048910 -0.903283
v -8.446847 2.047863 -1.027301
v -5.170922 5.116558 -1.096835
v -5.020308 4.981790 -1.096835
v -4.997298 4.961201 -0.962478
v -5.174881 5.120101 -0.934984
v -5.129014 4.990668 -1.096856
v -5.003840 5.130560 -1.096856
v -5.003840 5.130560 -0.959232
v -5.135167 4.983793 -0.932921
v -6.358767 -0.142358 -1.893700
v -6.315574 0.064218 -1.893700
v -6.308975 0.095777 -1.813740
v -6.359902 -0.147789 -1.797377
v -6.266824 -0.038713 -1.893712
v -6.458694 0.001405 -1.893712
v -6.458694 0.001405 -1.811808
v -6.257394 -0.040685 -1.796149
v -15.114986 -1.514628 -0.400946
v -14.889821 -1.484740 -0.400946
v -14.923749 -1.489243 -0.273587
v -15.210973 -1.527369 -0.312758
v -15.062325 -1.405800 -0.400946
v -15.068583 -1.358658 -0.302540
v -15.037080 -1.595991 -0.271329
v -15.036846 -1.597754 -0.400946
v -14.536528 -10.197705 -2.276917
v -14.754205 -10.285950 -2.276917
v -14.780407 -10.296572 -2.130349
v -14.468168 -10.169992 -2.134564
v -14.668516 -10.102627 -2.276917
v -14.572764 -10.338822 -2.276917
v -14.569554 -10.346741 -2.152861
v -14.667113 -10.106087 -2.134348
v -3.327943 15.572297 0.786947
v -3.529464 15.626870 0.786947
v -3.499099 15.618647 0.969150
v -3.242036 15.549032 0.913112
v -3.411218 15.498713 0.786947
v -3.422643 15.456523 0.927730
v -3.365122 15.668933 0.972381
v -3.364694 15.670510 0.786947
v -12.973437 6.524883 0.712056
v -12.996763 6.522130 0.839890
v -12.809350 6.544244 0.807622
v -12.745572 6.551770 0.712056
v -12.902709 6.721967 0.712056
v -12.874868 6.486015 0.712056
v -12.865472 6.406382 0.824366
v -12.898025 6.682269 0.816231
v -13.674122 11.703096 1.960986
v -13.656008 11.737502 1.868497
v -13.597640 11.848363 1.868497
v -13.575652 11.890126 1.960986
v -13.568763 11.780447 1.868463
v -13.673393 11.835534 1.868463
v -13.715969 11.857949 1.965012
v -13.558501 11.775044 1.971344
v -8.697944 -3.069006 -2.011598
v -8.683283 -3.072171 -1.842918
v -8.801076 -3.046738 -1.885496
v -8.841162 -3.038083 -2.011598
v -8.781464 -3.173424 -2.011598
v -8.749444 -3.025124 -2.011598
v -8.738637 -2.975073 -1.863402
v -8.776076 -3.148473 -1.874136
v -7.958475 6.444633 -0.262258
v -7.981771 6.303113 -0.262258
v -7.984575 6.286078 -0.173448
v -7.951159 6.489076 -0.176002
v -8.050030 6.406114 -0.262258
v -7.896470 6.380835 -0.262258
v -7.891322 6.379988 -0.187088
v -8.047781 6.405743 -0.175871
v -2.963253 12.491810 0.250872
v -2.953216 12.548396 0.091165
v -2.920874 12.730729 0.091165
v -2.908690 12.799418 0.250872
v -2.849682 12.648086 0.091105
v -3.021768 12.678610 0.091105
v -3.091793 12.691031 0.257824
v -2.832804 12.645092 0.268758
v -6.174172 0.836170 -1.729989
v -6.174234 0.812458 -1.592614
v -6.173738 1.002973 -1.627290
v -6.173570 1.067808 -1.729989
v -6.363156 0.930889 -1.729989
v -6.123298 0.930265 -1.729989
v -6.042346 0.930055 -1.609296
v -6.322801 0.930784 -1.618038
v -12.161467 1.293297 -0.447331
v -12.151170 1.300645 -0.337005
v -12.233901 1.241610 -0.364854
v -12.262055 1.221520 -0.447331
v -12.143749 1.181926 -0.447331
v -12.218073 1.286085 -0.447331
v -12.243157 1.321238 -0.350403
v -12.156254 1.199451 -0.357423
v -10.782197 -4.592889 -1.903199
v -10.837673 -4.794810 -1.903199
v -10.844351 -4.819116 -1.801753
v -10.764775 -4.529478 -1.804671
v -10.921026 -4.634813 -1.903199
v -10.701927 -4.695008 -1.903199
v -10.694582 -4.697026 -1.817334
v -10.917817 -4.635695 -1.804521
v -6.663074 6.417555 -0.498351
v -6.861225 6.360136 -0.498351
v -6.885076 6.353225 -0.410355
v -6.600846 6.435587 -0.412885
v -6.769791 6.512550 -0.498351
v -6.707488 6.297543 -0.498351
v -6.705399 6.290335 -0.423870
v -6.768879 6.509401 -0.412756
v -10.015158 3.589553 -0.416630
v -9.994454 3.757919 -0.416630
v -9.997574 3.732550 -0.314824
v -10.023983 3.517779 -0.346136
v -10.083925 3.648064 -0.416630
v -10.119175 3.652398 -0.337968
v -9.941710 3.630577 -0.313020
v -9.940392 3.630415 -0.416630
v -14.751668 -5.762722 -1.263612
v -14.801304 -5.590777 -1.263612
v -14.793824 -5.616685 -1.162858
v -14.730509 -5.836021 -1.193846
v -14.842626 -5.734425 -1.263612
v -14.878625 -5.744817 -1.185762
v -14.697389 -5.692499 -1.161072
v -14.696042 -5.692111 -1.263612
vn 0.5111 -0.8595 -0.0000
vn 0.8595 0.5111 -0.0000
vn -0.3819 0.9242 -0.0000
vn -0.9242 -0.3819 -0.0000
vn -0.4462 -0.8949 -0.0000
vn 0.8949 -0.4462 -0.0000
vn -0.5361 0.8441 -0.0000
vn -0.8441 -0.5361 -0.0000
vn 0.9642 0.2653 -0.0000
vn -0.2653 0.9642 -0.0000
vn -0.9405 -0.3398 -0.0000
vn 0.3398 -0.9405 -0.0000
vn 0.1123 0.9937 -0.0000
vn -0.9937 0.1123 -0.0000
vn 0.5087 -0.8610 -0.0000
vn 0.8610 0.5086 -0.0000
vn 0.9185 -0.3954 -0.0000
vn 0.3954 0.9185 -0.0000
vn -0.8588 0.5123 -0.0000
vn -0.5123 -0.8588 -0.0000
vn 0.9867 -0.1625 -0.0000
vn 0.1625 0.9867 -0.0000
vn -0.9877 0.1565 -0.0000
vn -0.1565 -0.9877 -0.0000
vn 0.9984 -0.0560 -0.0000
vn 0.0560 0.9984 -0.0000
vn -0.8276 0.5613 -0.0000
vn -0.5613 -0.8276 -0.0000
vn -0.2653 -0.9642 -0.0000
vn 0.9642 -0.2653 -0.0000
vn -0.0821 -0.9966 -0.0000
vn 0.9966 -0.0821 -0.0000
vn 0.9970 -0.0774 -0.0000
vn 0.0774 0.9970 -0.0000
vn -0.9894 -0.1452 -0.0000
vn 0.1452 -0.9894 -0.0000
vn -0.8853 -0.4649 -0.0000
vn 0.4649 -0.8853 -0.0000
vn -0.9315 -0.3638 -0.0000
vn 0.3639 -0.9315 -0.0000
vn -0.8277 -0.5612 -0.0000
vn 0.5612 -0.8277 -0.0000
vn 0.2707 -0.9627 -0.0000
vn 0.9627 0.2706 -0.0000
vn 0.7466 -0.6652 -0.0000
vn 0.6652 0.7466 -0.0000
vn -0.4030 0.9152 -0.0000
vn -0.9152 -0.4030 -0.0000
vn -0.8499 0.5269 -0.0000
vn -0.5269 -0.8499 -0.0000
vn -0.6428 0.7661 -0.0000
vn -0.7661 -0.6428 -0.0000
vn 0.0033 1.0000 -0.0000
vn -1.0000 0.0033 -0.0000
vn 0.9879 0.1553 -0.0000
vn -0.1553 0.9879 -0.0000
vn 0.2490 0.9685 -0.0000
vn -0.9685 0.2490 -0.0000
vn -0.9870 -0.1607 -0.0000
vn 0.1607 -0.9870 -0.0000
vn -0.9952 0.0979 -0.0000
vn -0.0979 -0.9952 -0.0000
vn -0.1508 -0.9886 -0.0000
vn 0.9886 -0.1508 -0.0000
vn 0.8175 -0.5759 -0.0000
vn 0.5759 0.8175 -0.0000
vn -0.6097 0.7926 -0.0000
vn -0.7926 -0.6097 -0.0000
vn -0.1123 -0.9937 -0.0000
vn 0.7223 0.6916 -0.0000
vn -0.6916 0.7223 -0.0000
vn -0.7920 0.6105 -0.0000
vn -0.6105 -0.7921 -0.0000
vn 0.9111 0.4121 -0.0000
vn -0.4121 0.9111 -0.0000
vn 0.6115 -0.7913 -0.0000
vn 0.7913 0.6115 -0.0000
vn -0.9267 -0.3759 -0.0000
vn 0.3759 -0.9267 -0.0000
vn -0.9896 0.1441 -0.0000
vn -0.1441 -0.9896 -0.0000
vn -0.9841 0.1775 -0.0000
vn -0.1775 -0.9841 -0.0000
vn -0.8485 0.5291 -0.0000
vn -0.5291 -0.8485 -0.0000
vn -0.8558 0.5173 -0.0000
vn -0.5173 -0.8558 -0.0000
vn 0.9971 0.0760 -0.0000
vn -0.0760 0.9971 -0.0000
vn 0.9926 -0.1214 -0.0000
vn 0.1214 0.9926 -0.0000
vn 0.8718 -0.4899 -0.0000
vn 0.4899 0.8718 -0.0000
vn 0.5056 -0.8628 -0.0000
vn 0.8628 0.5056 -0.0000
vn 0.4905 -0.8715 -0.0000
vn 0.8715 0.4905 -0.0000
vn -0.7300 0.6835 -0.0000
vn -0.6835 -0.7300 -0.0000
vn -0.8835 -0.4685 -0.0000
vn 0.4685 -0.8835 -0.0000
vn -0.0932 -0.9956 -0.0000
vn 0.9956 -0.0932 -0.0000
vn -1.0000 -0.0076 -0.0000
vn 0.0076 -1.0000 -0.0000
vn 0.6939 -0.7201 -0.0000
vn 0.7201 0.6939 -0.0000
vn -0.1975 0.9803 -0.0000
vn -0.9803 -0.1975 -0.0000
vn -0.2271 -0.9739 -0.0000
vn 0.9739 -0.2271 -0.0000
vn 0.6286 -0.7777 -0.0000
vn 0.7777 0.6286 -0.0000
vn 0.7253 -0.6885 -0.0000
vn 0.6885 0.7253 -0.0000
vn 0.5178 0.8555 -0.0000
vn -0.8555 0.5178 -0.0000
vn 0.8437 0.5369 -0.0000
vn -0.5369 0.8437 -0.0000
vn -0.9888 -0.1496 -0.0000
vn 0.1496 -0.9888 -0.0000
vn 0.9920 0.1259 -0.0000
vn -0.1259 0.9920 -0.0000
vn -0.6791 -0.7340 -0.0000
vn 0.7340 -0.6791 -0.0000
vn 0.9129 0.4082 -0.0000
vn -0.4082 0.9129 -0.0000
vn 0.9154 -0.4025 -0.0000
vn 0.4025 0.9154 -0.0000
vn -0.7367 -0.6762 -0.0000
vn 0.6762 -0.7367 -0.0000
vn 0.9024 -0.4309 -0.0000
vn 0.4309 0.9024 -0.0000
vn 0.3437 -0.9391 -0.0000
vn 0.9391 0.3437 -0.0000
vn -0.3823 0.9240 -0.0000
vn -0.9240 -0.3823 -0.0000
vn 0.9187 -0.3949 -0.0000
vn 0.3949 0.9187 -0.0000
vn -0.9996 -0.0291 -0.0000
vn 0.0291 -0.9996 -0.0000
vn 0.7908 -0.6121 -0.0000
vn 0.6121 0.7908 -0.0000
vn 1.0000 -0.0065 -0.0000
vn 0.0065 1.0000 -0.0000
vn 0.2205 0.9754 -0.0000
vn -0.9754 0.2205 -0.0000
vn 0.9269 0.3752 -0.0000
vn -0.3752 0.9269 -0.0000
vn 0.9970 -0.0777 -0.0000
vn 0.0777 0.9970 -0.0000
vn 0.7520 -0.6591 -0.0000
vn 0.6591 0.7520 -0.0000
vn 0.8355 0.5495 -0.0000
vn -0.5495 0.8355 -0.0000
vn -0.4653 0.8851 -0.0000
vn -0.8851 -0.4653 -0.0000
vn -0.5035 0.8640 -0.0000
vn -0.8640 -0.5035 -0.0000
vn 0.4004 0.9163 -0.0000
vn -0.9163 0.4005 -0.0000
vn 0.1881 0.9822 -0.0000
vn -0.9822 0.1881 -0.0000
vn 0.9997 0.0252 -0.0000
vn -0.0252 0.9997 -0.0000
vn 0.6023 0.7982 -0.0000
vn -0.7982 0.6023 -0.0000
vn -0.9958 0.0916 -0.0000
vn -0.0916 -0.9958 -0.0000
vn -0.9992 -0.0407 -0.0000
vn 0.0407 -0.9992 -0.0000
vn 0.9015 0.4328 -0.0000
vn -0.4329 0.9015 -0.0000
vn -0.8687 0.4953 -0.0000
vn -0.4953 -0.8687 -0.0000
vn 0.9707 0.2402 -0.0000
vn -0.2402 0.9707 -0.0000
vn 0.0079 -1.0000 -0.0000
vn 1.0000 0.0079 -0.0000
vn 0.9491 -0.3151 -0.0000
vn 0.3151 0.9491 -0.0000
vn -0.9850 -0.1727 -0.0000
vn 0.1727 -0.9850 -0.0000
vn 0.3479 -0.9375 -0.0000
vn 0.9375 0.3479 -0.0000
vn 0.4919 -0.8707 -0.0000
vn 0.8707 0.4919 -0.0000
vn 0.5067 -0.8621 -0.0000
vn 0.8621 0.5067 -0.0000
vn -0.9982 0.0593 -0.0000
vn -0.0593 -0.9982 -0.0000
vn -0.0094 1.0000 -0.0000
vn -1.0000 -0.0094 -0.0000
vn -0.9072 -0.4206 -0.0000
vn 0.4206 -0.9072 -0.0000
vn 0.9282 -0.3720 -0.0000
vn 0.3720 0.9282 -0.0000
vn 0.5632 -0.8263 -0.0000
vn 0.8263 0.5632 -0.0000
vn -0.6668 -0.7452 -0.0000
vn 0.7452 -0.6668 -0.0000
vn 0.9788 -0.2047 -0.0000
vn 0.2047 0.9788 -0.0000
vn 0.1316 -0.9913 -0.0000
vn 0.9913 0.1316 -0.0000
vn -0.3757 0.9267 -0.0000
vn -0.9267 -0.3757 -0.0000
vn 0.2614 0.9652 -0.0000
vn -0.9652 0.2614 -0.0000
vn -0.1172 0.9931 -0.0000
vn -0.9931 -0.1172 -0.0000
vn 0.8848 -0.4659 -0.0000
vn 0.4659 0.8849 -0.0000
vn -0.2110 -0.9775 -0.0000
vn 0.9775 -0.2111 -0.0000
vn -0.9867 0.1624 -0.0000
vn -0.1624 -0.9867 -0.0000
vn 0.9846 -0.1747 -0.0000
vn 0.1747 0.9846 -0.0000
vn -1.0000 0.0026 -0.0000
vn -0.0026 -1.0000 -0.0000
vn 0.5809 -0.8140 -0.0000
vn 0.8140 0.5808 -0.0000
vn -0.9643 0.2649 -0.0000
vn -0.2649 -0.9643 -0.0000
vn -0.2783 0.9605 -0.0000
vn -0.9605 -0.2783 -0.0000
vn 0.9925 -0.1221 -0.0000
vn 0.1220 0.9925 -0.0000
vn 0.9608 0.2773 -0.0000
vn -0.2773 0.9608 -0.0000
vn 0.8610 0.5087 -0.0000
vn 0.9185 -0.3953 -0.0000
vn -0.9894 -0.1451 -0.0000
vn 0.3638 -0.9315 -0.0000
vn 0.9627 0.2707 -0.0000
vn -0.7660 -0.6428 -0.0000
vn 0.8175 -0.5760 -0.0000
vn 0.5760 0.8175 -0.0000
vn -0.7921 0.6104 -0.0000
vn -0.8486 0.5291 -0.0000
vn 0.9956 -0.0933 -0.0000
vn 0.9970 -0.0778 -0.0000
vn -0.9163 0.4004 -0.0000
vn 0.9015 0.4329 -0.0000
vn 0.9376 0.3478 -0.0000
vn 0.8849 -0.4659 -0.0000
vn 0.9775 -0.2110 -0.0000
vn 0.8140 0.5809 -0.0000
vn 0.9925 -0.1220 -0.0000
vn 0.9608 0.2774 -0.0000
vt 0.574736 0.000000
vt 0.727477 0.180119
vt 0.531923 0.174939
vt 0.943005 0.000000
vt 0.797243 0.175205
vt 0.795077 0.000000
vt 0.046190 0.750308
vt 0.224718 0.829653
vt 0.019909 0.844918
vt 0.292351 0.750248
vt 0.408285 0.861889
vt 0.278991 0.827976
vt 0.038376 0.371048
vt 0.159378 0.250046
vt 0.194166 0.371048
vt 0.420000 0.250000
vt 0.324298 0.384599
vt 0.332846 0.250000
vt 0.947964 0.152455
vt 0.587516 0.250000
vt 0.696219 0.438742
vt 0.532955 0.380692
vt 0.931885 0.250000
vt 0.823776 0.442088
vt 0.822774 0.250000
vt 0.199407 0.500208
vt 0.021869 0.609361
vt 0.026417 0.500208
vt 0.318619 0.500194
vt 0.479294 0.593008
vt 0.310722 0.610752
vt 0.548614 0.500208
vt 0.730526 0.577570
vt 0.530599 0.622715
vt 0.802250 0.500257
vt 0.920277 0.587538
vt 0.777322 0.599968
vt 0.183597 0.000000
vt 0.079867 0.150378
vt 0.039548 0.000000
vt 0.406485 0.000000
vt 0.282420 0.163926
vt 0.257324 0.000000
vt 0.198931 0.750308
vt 0.683200 0.750259
vt 0.546949 0.843491
vt 0.500000 0.750259
vt 0.966633 0.750219
vt 0.827483 0.844072
vt 0.798992 0.750219
vt 0.711067 0.000000
vt 0.477396 0.750248
vt 0.067034 0.250046
vt 0.455465 0.376315
vt 0.715504 0.250000
vt 0.958681 0.395835
vt 0.225835 0.590819
vt 0.479294 0.500194
vt 0.716640 0.500208
vt 0.962020 0.500257
vt 0.198343 0.201154
vt 0.456826 0.176726
vt 0.726638 0.843491
vt 0.977378 0.853368
s 0
f 1/1/1 3/2/1 4/3/1
f 6/4/2 8/5/2 5/6/2
f 9/7/3 11/8/3 12/9/3
f 13/10/4 15/11/4 16/12/4
f 17/13/5 19/14/5 20/15/5
f 22/16/6 24/17/6 21/18/6
f 25/1/7 27/2/7 28/3/7
f 29/6/8 31/19/8 32/5/8
f 33/20/9 35/21/9 36/22/9
f 37/23/10 39/24/10 40/25/10
f 41/7/11 43/8/11 44/9/11
f 45/10/12 47/11/12 48/12/12
f 49/13/13 51/14/13 52/15/13
f 54/16/14 56/17/14 53/18/14
f 58/26/15 60/27/15 57/28/15
f 61/29/16 63/30/16 64/31/16
f 65/32/17 67/33/17 68/34/17
f 69/35/18 71/36/18 72/37/18
f 73/13/19 75/14/19 76/15/19
f 78/16/20 80/17/20 77/18/20
f 81/38/21 83/39/21 84/40/21
f 86/41/22 88/42/22 85/43/22
f 89/38/23 91/39/23 92/40/23
f 94/41/24 96/42/24 93/43/24
f 97/20/25 99/21/25 100/22/25
f 101/23/26 103/24/26 104/25/26
f 105/38/27 107/39/27 108/40/27
f 110/41/28 112/42/28 109/43/28
f 113/20/29 115/21/29 116/22/29
f 117/23/30 119/24/30 120/25/30
f 121/32/31 123/33/31 124/34/31
f 125/35/32 127/36/32 128/37/32
f 129/13/33 131/14/33 132/15/33
f 134/16/34 136/17/34 133/18/34
f 137/1/35 139/2/35 140/3/35
f 141/6/36 143/19/36 144/5/36
f 145/38/37 147/39/37 148/40/37
f 150/41/38 152/42/38 149/43/38
f 153/13/39 155/14/39 156/15/39
f 158/16/40 160/17/40 157/18/40
f 161/38/41 163/39/41 164/40/41
f 166/41/42 168/42/42 165/43/42
f 169/7/43 171/8/43 172/9/43
f 173/10/44 175/11/44 176/12/44
f 178/26/45 180/27/45 177/28/45
f 181/29/46 183/30/46 184/31/46
f 185/1/47 187/2/47 188/3/47
f 190/4/48 192/5/48 189/6/48
f 193/38/49 195/39/49 196/40/49
f 198/41/50 200/42/50 197/43/50
f 201/38/51 203/39/51 204/40/51
f 206/41/52 208/42/52 205/43/52
f 209/32/53 211/33/53 212/34/53
f 213/35/54 215/36/54 216/37/54
f 217/13/55 219/14/55 220/15/55
f 222/16/56 224/17/56 221/18/56
f 225/13/57 227/14/57 228/15/57
f 230/16/58 232/17/58 229/18/58
f 233/1/59 235/2/59 236/3/59
f 237/6/60 239/19/60 240/5/60
f 241/38/61 243/39/61 244/40/61
f 246/41/62 248/42/62 245/43/62
f 249/1/63 251/2/63 252/3/63
f 254/4/64 256/5/64 253/6/64
f 257/7/65 259/8/65 260/9/65
f 261/10/66 263/11/66 264/12/66
f 265/13/67 267/14/67 268/15/67
f 270/16/68 272/17/68 269/18/68
f 273/38/14 275/39/14 276/40/14
f 278/41/69 280/42/69 277/43/69
f 281/1/70 283/2/70 284/3/70
f 286/4/71 288/5/71 285/6/71
f 289/1/72 291/2/72 292/3/72
f 294/4/73 296/5/73 293/6/73
f 297/32/74 299/33/74 300/34/74
f 301/35/75 303/36/75 304/37/75
f 305/38/76 307/39/76 308/40/76
f 310/41/77 312/42/77 309/43/77
f 313/20/78 315/21/78 316/22/78
f 317/23/79 319/24/79 320/25/79
f 321/1/80 323/2/80 324/3/80
f 326/4/81 328/5/81 325/6/81
f 329/13/82 331/14/82 332/15/82
f 334/16/83 336/17/83 333/18/83
f 337/20/84 339/21/84 340/22/84
f 341/23/85 343/24/85 344/25/85
f 345/13/86 347/14/86 348/15/86
f 350/16/87 352/17/87 349/18/87
f 353/20/88 355/21/88 356/22/88
f 357/23/89 359/24/89 360/25/89
f 361/20/90 363/21/90 364/22/90
f 365/23/91 367/24/91 368/25/91
f 369/20/92 371/21/92 372/22/92
f 373/23/93 375/24/93 376/25/93
f 377/38/94 379/39/94 380/40/94
f 382/41/95 384/42/95 381/43/95
f 385/1/96 387/2/96 388/3/96
f 389/6/97 391/19/97 392/5/97
f 393/13/98 395/14/98 396/15/98
f 398/16/99 400/17/99 397/18/99
f 401/38/100 403/39/100 404/40/100
f 406/41/101 408/42/101 405/43/101
f 410/26/102 412/27/102 409/28/102
f 413/29/103 415/30/103 416/31/103
f 417/7/104 419/8/104 420/9/104
f 421/10/105 423/11/105 424/12/105
f 425/20/106 427/21/106 428/22/106
f 429/23/107 431/24/107 432/25/107
f 434/26/108 436/27/108 433/28/108
f 437/29/109 439/30/109 440/31/109
f 442/44/110 444/9/110 441/7/110
f 445/10/111 447/11/111 448/12/111
f 449/20/112 451/21/112 452/22/112
f 453/23/113 455/24/113 456/25/113
f 457/20/114 459/21/114 460/22/114
f 461/23/115 463/24/115 464/25/115
f 465/1/116 467/2/116 468/3/116
f 469/6/117 471/19/117 472/5/117
f 474/45/118 476/46/118 473/47/118
f 478/48/119 480/49/119 477/50/119
f 481/20/120 483/21/120 484/22/120
f 485/23/121 487/24/121 488/25/121
f 489/1/122 491/2/122 492/3/122
f 494/4/123 496/5/123 493/6/123
f 497/38/124 499/39/124 500/40/124
f 502/41/125 504/42/125 501/43/125
f 505/32/126 507/33/126 508/34/126
f 509/35/127 511/36/127 512/37/127
f 513/7/128 515/8/128 516/9/128
f 517/10/129 519/11/129 520/12/129
f 521/7/130 523/8/130 524/9/130
f 525/10/131 527/11/131 528/12/131
f 529/20/132 531/21/132 532/22/132
f 533/23/133 535/24/133 536/25/133
f 537/20/134 539/21/134 540/22/134
f 541/23/135 543/24/135 544/25/135
f 545/38/136 547/39/136 548/40/136
f 550/41/137 552/42/137 549/43/137
f 553/32/138 555/33/138 556/34/138
f 557/35/139 559/36/139 560/37/139
f 561/13/140 563/14/140 564/15/140
f 566/16/141 568/17/141 565/18/141
f 569/38/142 571/39/142 572/40/142
f 574/41/143 576/42/143 573/43/143
f 577/1/144 579/2/144 580/3/144
f 582/4/145 584/5/145 581/6/145
f 585/13/146 587/14/146 588/15/146
f 590/16/147 592/17/147 589/18/147
f 593/38/148 595/39/148 596/40/148
f 598/41/149 600/42/149 597/43/149
f 601/1/150 603/2/150 604/3/150
f 605/6/151 607/19/151 608/5/151
f 609/1/152 611/2/152 612/3/152
f 614/4/153 616/5/153 613/6/153
f 618/45/154 620/46/154 617/47/154
f 622/48/155 624/49/155 621/50/155
f 625/13/156 627/14/156 628/15/156
f 630/16/157 632/17/157 629/18/157
f 633/38/158 635/39/158 636/40/158
f 638/41/159 640/42/159 637/43/159
f 641/38/160 643/39/160 644/40/160
f 646/41/161 648/42/161 645/43/161
f 649/32/162 651/33/162 652/34/162
f 653/35/163 655/36/163 656/37/163
f 657/38/164 659/39/164 660/40/164
f 662/41/165 664/42/165 661/43/165
f 665/38/166 667/39/166 668/40/166
f 670/41/167 672/42/167 669/43/167
f 674/44/168 676/9/168 673/7/168
f 677/10/169 679/11/169 680/12/169
f 681/38/170 683/39/170 684/40/170
f 686/41/171 688/42/171 685/43/171
f 690/45/172 692/46/172 689/47/172
f 694/48/173 696/49/173 693/50/173
f 697/7/174 699/8/174 700/9/174
f 701/10/175 703/11/175 704/12/175
f 705/38/176 707/39/176 708/40/176
f 710/41/177 712/42/177 709/43/177
f 713/38/178 715/39/178 716/40/178
f 718/41/179 720/42/179 717/43/179
f 721/7/180 723/8/180 724/9/180
f 725/10/181 727/11/181 728/12/181
f 729/20/182 731/21/182 732/22/182
f 733/23/183 735/24/183 736/25/183
f 737/13/184 739/14/184 740/15/184
f 742/16/185 744/17/185 741/18/185
f 745/1/186 747/2/186 748/3/186
f 750/4/187 752/5/187 749/6/187
f 753/38/188 755/39/188 756/40/188
f 758/41/189 760/42/189 757/43/189
f 761/13/190 763/14/190 764/15/190
f 766/16/191 768/17/191 765/18/191
f 770/45/192 772/46/192 769/47/192
f 774/48/193 776/49/193 773/50/193
f 777/1/194 779/2/194 780/3/194
f 781/6/195 783/19/195 784/5/195
f 785/20/196 787/21/196 788/22/196
f 789/23/197 791/24/197 792/25/197
f 793/20/198 795/21/198 796/22/198
f 797/23/199 799/24/199 800/25/199
f 802/26/200 804/27/200 801/28/200
f 805/29/201 807/30/201 808/31/201
f 810/26/202 812/27/202 809/28/202
f 813/29/203 815/30/203 816/31/203
f 817/20/204 819/21/204 820/22/204
f 821/23/205 823/24/205 824/25/205
f 825/1/206 827/2/206 828/3/206
f 830/4/207 832/5/207 829/6/207
f 833/20/208 835/21/208 836/22/208
f 837/23/209 839/24/209 840/25/209
f 841/38/210 843/39/210 844/40/210
f 846/41/211 848/42/211 845/43/211
f 849/13/212 851/14/212 852/15/212
f 854/16/213 856/17/213 853/18/213
f 857/38/214 859/39/214 860/40/214
f 862/41/215 864/42/215 861/43/215
f 865/1/216 867/2/216 868/3/216
f 870/4/217 872/5/217 869/6/217
f 873/13/218 875/14/218 876/15/218
f 878/16/219 880/17/219 877/18/219
f 881/38/220 883/39/220 884/40/220
f 886/41/221 888/42/221 885/43/221
f 889/38/222 891/39/222 892/40/222
f 894/41/223 896/42/223 893/43/223
f 897/1/224 899/2/224 900/3/224
f 902/4/225 904/5/225 901/6/225
f 905/1/226 907/2/226 908/3/226
f 910/4/227 912/5/227 909/6/227
f 913/20/228 915/21/228 916/22/228
f 917/23/229 919/24/229 920/25/229
f 921/20/230 923/21/230 924/22/230
f 925/23/231 927/24/231 928/25/231
f 1/1/1 2/51/1 3/2/1
f 6/4/2 7/19/2 8/5/2
f 9/7/3 10/44/3 11/8/3
f 13/10/4 14/52/4 15/11/4
f 17/13/5 18/53/5 19/14/5
f 22/16/6 23/54/6 24/17/6
f 25/1/7 26/51/7 27/2/7
f 29/6/8 30/4/8 31/19/8
f 33/20/9 34/55/9 35/21/9
f 37/23/10 38/56/10 39/24/10
f 41/7/11 42/44/11 43/8/11
f 45/10/12 46/52/12 47/11/12
f 49/13/13 50/53/13 51/14/13
f 54/16/14 55/54/14 56/17/14
f 58/26/15 59/57/15 60/27/15
f 61/29/232 62/58/232 63/30/232
f 65/32/233 66/59/233 67/33/233
f 69/35/18 70/60/18 71/36/18
f 73/13/19 74/53/19 75/14/19
f 78/16/20 79/54/20 80/17/20
f 81/38/21 82/61/21 83/39/21
f 86/41/22 87/62/22 88/42/22
f 89/38/23 90/61/23 91/39/23
f 94/41/24 95/62/24 96/42/24
f 97/20/25 98/55/25 99/21/25
f 101/23/26 102/56/26 103/24/26
f 105/38/27 106/61/27 107/39/27
f 110/41/28 111/62/28 112/42/28
f 113/20/29 114/55/29 115/21/29
f 117/23/30 118/56/30 119/24/30
f 121/32/31 122/59/31 123/33/31
f 125/35/32 126/60/32 127/36/32
f 129/13/33 130/53/33 131/14/33
f 134/16/34 135/54/34 136/17/34
f 137/1/234 138/51/234 139/2/234
f 141/6/36 142/4/36 143/19/36
f 145/38/37 146/61/37 147/39/37
f 150/41/38 151/62/38 152/42/38
f 153/13/39 154/53/39 155/14/39
f 158/16/235 159/54/235 160/17/235
f 161/38/41 162/61/41 163/39/41
f 166/41/42 167/62/42 168/42/42
f 169/7/43 170/44/43 171/8/43
f 173/10/236 174/52/236 175/11/236
f 178/26/45 179/57/45 180/27/45
f 181/29/46 182/58/46 183/30/46
f 185/1/47 186/51/47 187/2/47
f 190/4/48 191/19/48 192/5/48
f 193/38/49 194/61/49 195/39/49
f 198/41/50 199/62/50 200/42/50
f 201/38/51 202/61/51 203/39/51
f 206/41/237 207/62/237 208/42/237
f 209/32/53 210/59/53 211/33/53
f 213/35/54 214/60/54 215/36/54
f 217/13/55 218/53/55 219/14/55
f 222/16/56 223/54/56 224/17/56
f 225/13/57 226/53/57 227/14/57
f 230/16/58 231/54/58 232/17/58
f 233/1/59 234/51/59 235/2/59
f 237/6/60 238/4/60 239/19/60
f 241/38/61 242/61/61 243/39/61
f 246/41/62 247/62/62 248/42/62
f 249/1/63 250/51/63 251/2/63
f 254/4/64 255/19/64 256/5/64
f 257/7/238 258/44/238 259/8/238
f 261/10/239 262/52/239 263/11/239
f 265/13/67 266/53/67 267/14/67
f 270/16/68 271/54/68 272/17/68
f 273/38/14 274/61/14 275/39/14
f 278/41/69 279/62/69 280/42/69
f 281/1/70 282/51/70 283/2/70
f 286/4/71 287/19/71 288/5/71
f 289/1/240 290/51/240 291/2/240
f 294/4/73 295/19/73 296/5/73
f 297/32/74 298/59/74 299/33/74
f 301/35/75 302/60/75 303/36/75
f 305/38/76 306/61/76 307/39/76
f 310/41/77 311/62/77 312/42/77
f 313/20/78 314/55/78 315/21/78
f 317/23/79 318/56/79 319/24/79
f 321/1/80 322/51/80 323/2/80
f 326/4/81 327/19/81 328/5/81
f 329/13/82 330/53/82 331/14/82
f 334/16/83 335/54/83 336/17/83
f 337/20/241 338/55/241 339/21/241
f 341/23/85 342/56/85 343/24/85
f 345/13/86 346/53/86 347/14/86
f 350/16/87 351/54/87 352/17/87
f 353/20/88 354/55/88 355/21/88
f 357/23/89 358/56/89 359/24/89
f 361/20/90 362/55/90 363/21/90
f 365/23/91 366/56/91 367/24/91
f 369/20/92 370/55/92 371/21/92
f 373/23/93 374/56/93 375/24/93
f 377/38/94 378/61/94 379/39/94
f 382/41/95 383/62/95 384/42/95
f 385/1/96 386/51/96 387/2/96
f 389/6/97 390/4/97 391/19/97
f 393/13/98 394/53/98 395/14/98
f 398/16/99 399/54/99 400/17/99
f 401/38/100 402/61/100 403/39/100
f 406/41/101 407/62/101 408/42/101
f 410/26/102 411/57/102 412/27/102
f 413/29/242 414/58/242 415/30/242
f 417/7/104 418/44/104 419/8/104
f 421/10/105 422/52/105 423/11/105
f 425/20/106 426/55/106 427/21/106
f 429/23/107 430/56/107 431/24/107
f 434/26/108 435/57/108 436/27/108
f 437/29/109 438/58/109 439/30/109
f 442/44/110 443/8/110 444/9/110
f 445/10/111 446/52/111 447/11/111
f 449/20/112 450/55/112 451/21/112
f 453/23/113 454/56/113 455/24/113
f 457/20/114 458/55/114 459/21/114
f 461/23/115 462/56/115 463/24/115
f 465/1/116 466/51/116 467/2/116
f 469/6/117 470/4/117 471/19/117
f 474/45/118 475/63/118 476/46/118
f 478/48/119 479/64/119 480/49/119
f 481/20/120 482/55/120 483/21/120
f 485/23/121 486/56/121 487/24/121
f 489/1/122 490/51/122 491/2/122
f 494/4/123 495/19/123 496/5/123
f 497/38/124 498/61/124 499/39/124
f 502/41/125 503/62/125 504/42/125
f 505/32/126 506/59/126 507/33/126
f 509/35/127 510/60/127 511/36/127
f 513/7/128 514/44/128 515/8/128
f 517/10/129 518/52/129 519/11/129
f 521/7/130 522/44/130 523/8/130
f 525/10/131 526/52/131 527/11/131
f 529/20/132 530/55/132 531/21/132
f 533/23/133 534/56/133 535/24/133
f 537/20/134 538/55/134 539/21/134
f 541/23/135 542/56/135 543/24/135
f 545/38/136 546/61/136 547/39/136
f 550/41/137 551/62/137 552/42/137
f 553/32/138 554/59/138 555/33/138
f 557/35/139 558/60/139 559/36/139
f 561/13/140 562/53/140 563/14/140
f 566/16/141 567/54/141 568/17/141
f 569/38/142 570/61/142 571/39/142
f 574/41/143 575/62/143 576/42/143
f 577/1/144 578/51/144 579/2/144
f 582/4/145 583/19/145 584/5/145
f 585/13/146 586/53/146 587/14/146
f 590/16/147 591/54/147 592/17/147
f 593/38/148 594/61/148 595/39/148
f 598/41/149 599/62/149 600/42/149
f 601/1/243 602/51/243 603/2/243
f 605/6/151 606/4/151 607/19/151
f 609/1/152 610/51/152 611/2/152
f 614/4/153 615/19/153 616/5/153
f 618/45/154 619/63/154 620/46/154
f 622/48/155 623/64/155 624/49/155
f 625/13/156 626/53/156 627/14/156
f 630/16/157 631/54/157 632/17/157
f 633/38/158 634/61/158 635/39/158
f 638/41/159 639/62/159 640/42/159
f 641/38/160 642/61/160 643/39/160
f 646/41/244 647/62/244 648/42/244
f 649/32/162 650/59/162 651/33/162
f 653/35/163 654/60/163 655/36/163
f 657/38/164 658/61/164 659/39/164
f 662/41/165 663/62/165 664/42/165
f 665/38/166 666/61/166 667/39/166
f 670/41/167 671/62/167 672/42/167
f 674/44/168 675/8/168 676/9/168
f 677/10/169 678/52/169 679/11/169
f 681/38/170 682/61/170 683/39/170
f 686/41/171 687/62/171 688/42/171
f 690/45/245 691/63/245 692/46/245
f 694/48/173 695/64/173 696/49/173
f 697/7/174 698/44/174 699/8/174
f 701/10/175 702/52/175 703/11/175
f 705/38/176 706/61/176 707/39/176
f 710/41/177 711/62/177 712/42/177
f 713/38/178 714/61/178 715/39/178
f 718/41/179 719/62/179 720/42/179
f 721/7/180 722/44/180 723/8/180
f 725/10/181 726/52/181 727/11/181
f 729/20/182 730/55/182 731/21/182
f 733/23/183 734/56/183 735/24/183
f 737/13/184 738/53/184 739/14/184
f 742/16/246 743/54/246 744/17/246
f 745/1/186 746/51/186 747/2/186
f 750/4/187 751/19/187 752/5/187
f 753/38/188 754/61/188 755/39/188
f 758/41/189 759/62/189 760/42/189
f 761/13/190 762/53/190 763/14/190
f 766/16/191 767/54/191 768/17/191
f 770/45/192 771/63/192 772/46/192
f 774/48/193 775/64/193 776/49/193
f 777/1/194 778/51/194 779/2/194
f 781/6/195 782/4/195 783/19/195
f 785/20/196 786/55/196 787/21/196
f 789/23/197 790/56/197 791/24/197
f 793/20/198 794/55/198 795/21/198
f 797/23/199 798/56/199 799/24/199
f 802/26/200 803/57/200 804/27/200
f 805/29/201 806/58/201 807/30/201
f 810/26/202 811/57/202 812/27/202
f 813/29/203 814/58/203 815/30/203
f 817/20/204 818/55/204 819/21/204
f 821/23/205 822/56/205 823/24/205
f 825/1/206 826/51/206 827/2/206
f 830/4/207 831/19/207 832/5/207
f 833/20/208 834/55/208 835/21/208
f 837/23/209 838/56/209 839/24/209
f 841/38/210 842/61/210 843/39/210
f 846/41/211 847/62/211 848/42/211
f 849/13/247 850/53/247 851/14/247
f 854/16/213 855/54/213 856/17/213
f 857/38/214 858/61/214 859/39/214
f 862/41/248 863/62/248 864/42/248
f 865/1/216 866/51/216 867/2/216
f 870/4/217 871/19/217 872/5/217
f 873/13/218 874/53/218 875/14/218
f 878/16/219 879/54/219 880/17/219
f 881/38/220 882/61/220 883/39/220
f 886/41/221 887/62/221 888/42/221
f 889/38/222 890/61/222 891/39/222
f 894/41/249 895/62/249 896/42/249
f 897/1/224 898/51/224 899/2/224
f 902/4/225 903/19/225 904/5/225
f 905/1/226 906/51/226 907/2/226
f 910/4/227 911/19/227 912/5/227
f 913/20/250 914/55/250 915/21/250
f 917/23/229 918/56/229 919/24/229
f 921/20/251 922/55/251 923/21/251
f 925/23/231 926/56/231 927/24/231
