mtllib grass_04_02_b2.mtl
usemtl grass_04_02_b2
# Blender 5.1.1
# www.blender.org
o grass_04_02_b2
v 3.852754 7.604923 -0.256766
v 4.031206 7.497427 -0.256766
v 4.004317 7.513625 -0.156685
v 3.776681 7.650748 -0.187466
v 3.952794 7.652754 -0.256766
v 3.975300 7.690115 -0.179437
v 3.861996 7.502020 -0.154911
v 3.861154 7.500623 -0.256766
v -11.416183 6.775939 2.190021
v -11.382958 6.818283 2.077449
v -11.275898 6.954726 2.077449
v -11.235566 7.006128 2.190021
v -11.253470 6.855059 2.077406
v -11.382246 6.956103 2.077406
v -11.434647 6.997219 2.194921
v -11.240841 6.845149 2.202628
v -2.093796 -14.864664 -2.815452
v -2.247025 -14.989978 -2.815452
v -2.265469 -15.005061 -2.658141
v -2.045675 -14.825311 -2.662666
v -2.223754 -14.821035 -2.815452
v -2.087780 -14.987301 -2.815452
v -2.083222 -14.992874 -2.682303
v -2.221763 -14.823471 -2.662434
v -6.548082 -11.663354 -1.592217
v -6.549488 -11.501006 -1.592217
v -6.549275 -11.525469 -1.429856
v -6.547482 -11.732561 -1.479792
v -6.620648 -11.616431 -1.592217
v -6.654638 -11.616726 -1.466766
v -6.483519 -11.615244 -1.426978
v -6.482248 -11.615233 -1.592217
v -4.189088 3.214121 0.414246
v -4.104120 3.355255 0.414246
v -4.116923 3.333989 0.586338
v -4.225310 3.153956 0.533409
v -4.226931 3.293219 0.414246
v -4.256479 3.311008 0.547216
v -4.107719 3.221449 0.589389
v -4.106614 3.220784 0.414246
v -4.537153 13.882450 1.992124
v -4.392634 14.051204 1.992124
v -4.414410 14.025776 2.206910
v -4.598761 13.810512 2.140851
v -4.569830 13.996105 1.992124
v -4.605161 14.026361 2.158083
v -4.427289 13.874034 2.210718
v -4.425967 13.872902 1.992124
v -2.020955 6.570692 0.522091
v -2.143710 6.404148 0.522091
v -2.158486 6.384101 0.622653
v -1.982405 6.622993 0.619761
v -2.163849 6.581254 0.522091
v -1.983137 6.448055 0.522091
v -1.977079 6.443590 0.607207
v -2.161202 6.579303 0.619909
v 1.816462 -5.246529 -1.884311
v 1.882245 -5.097681 -1.884311
v 1.890164 -5.079764 -1.684087
v 1.795803 -5.293273 -1.689845
v 1.927977 -5.230216 -1.884311
v 1.766466 -5.158836 -1.884311
v 1.761052 -5.156443 -1.714840
v 1.925611 -5.229170 -1.689550
v -0.177174 -3.000272 -1.081876
v -0.172857 -3.062468 -1.180897
v -0.158944 -3.262876 -1.180897
v -0.153703 -3.338374 -1.081876
v -0.255607 -3.194618 -1.180934
v -0.066462 -3.181487 -1.180934
v 0.010504 -3.176144 -1.077566
v -0.274158 -3.195905 -1.070787
v 1.978209 5.339342 -0.270554
v 1.850037 5.077331 -0.270554
v 1.839445 5.055678 -0.192579
v 1.991951 5.367435 -0.147077
v 1.806498 5.275724 -0.270504
v 2.055635 5.153851 -0.270504
v 1.990543 5.185692 -0.182533
v 1.767627 5.294740 -0.170003
v -7.229526 -12.106325 -1.469541
v -7.179926 -12.078943 -1.555344
v -7.020105 -11.990712 -1.555344
v -6.959897 -11.957474 -1.469541
v -7.039328 -12.096516 -1.555377
v -7.122601 -11.945677 -1.555377
v -7.156485 -11.884297 -1.465806
v -7.031161 -12.111309 -1.459932
v -13.591324 7.995039 2.445957
v -13.509723 8.181708 2.445957
v -13.499900 8.204178 2.562380
v -13.616951 7.936417 2.559032
v -13.451804 8.016023 2.445957
v -13.654354 8.104567 2.445957
v -13.661144 8.107535 2.544499
v -13.454771 8.017320 2.559204
v -1.272495 13.722084 1.472461
v -1.198315 13.853156 1.472461
v -1.189386 13.868934 1.595627
v -1.295791 13.680922 1.592085
v -1.168305 13.726920 1.472461
v -1.310528 13.807412 1.472461
v -1.315296 13.810110 1.576710
v -1.170388 13.728100 1.592266
v -0.119338 -9.597167 -2.301203
v -0.123987 -9.576571 -2.119401
v -0.086631 -9.742045 -2.165292
v -0.073918 -9.798358 -2.301203
v 0.063495 -9.641905 -2.301203
v -0.144836 -9.688936 -2.301203
v -0.215147 -9.704809 -2.141479
v 0.028444 -9.649817 -2.153048
v -6.515851 5.807073 1.255736
v -6.557352 5.781557 1.166475
v -6.691074 5.699337 1.166475
v -6.741451 5.668363 1.255736
v -6.678824 5.790989 1.166442
v -6.601225 5.664781 1.166442
v -6.569649 5.613425 1.259622
v -6.686434 5.803367 1.265733
v -0.439285 -10.324800 -2.397682
v -0.222322 -10.515446 -2.397682
v -0.170879 -10.560648 -2.296786
v -0.383684 -10.373657 -2.296786
v -0.370345 -10.544895 -2.397726
v -0.195891 -10.346359 -2.397726
v -0.184710 -10.333633 -2.286097
v -0.340696 -10.511153 -2.296156
v -10.971901 11.248303 2.605298
v -10.789373 11.210784 2.605298
v -10.767403 11.206267 2.710119
v -11.029222 11.260086 2.707104
v -10.926601 11.127464 2.605298
v -10.885890 11.325520 2.605298
v -10.884525 11.332159 2.694019
v -10.926004 11.130364 2.707259
v 4.189791 10.717140 0.213031
v 3.951807 10.701497 0.213031
v 3.987667 10.703854 0.316963
v 4.291243 10.723809 0.284997
v 4.127045 10.606787 0.213031
v 4.130320 10.556962 0.293336
v 4.113832 10.807805 0.318805
v 4.113709 10.809669 0.213031
v -1.447750 -12.215696 -2.313856
v -1.413110 -12.177073 -2.487535
v -1.301494 -12.052622 -2.487535
v -1.259445 -12.005738 -2.313856
v -1.286236 -12.149905 -2.487601
v -1.403694 -12.044561 -2.487601
v -1.451490 -12.001695 -2.306297
v -1.274717 -12.160236 -2.294406
v -0.649982 -10.799762 -2.185997
v -0.641816 -10.753900 -2.374125
v -0.615504 -10.606121 -2.374125
v -0.605591 -10.550449 -2.185997
v -0.557841 -10.673148 -2.374196
v -0.697314 -10.648314 -2.374196
v -0.754068 -10.638208 -2.177808
v -0.544162 -10.675584 -2.164928
v -4.611228 -0.877018 -0.139149
v -4.641294 -0.878719 -0.036634
v -4.399726 -0.865052 -0.062511
v -4.317517 -0.860401 -0.139149
v -4.505325 -0.630322 -0.139149
v -4.488119 -0.934455 -0.139149
v -4.482312 -1.037099 -0.049084
v -4.502430 -0.681491 -0.055607
v -15.073229 15.784128 3.633257
v -15.062030 15.758390 3.756470
v -15.152005 15.965177 3.725369
v -15.182626 16.035549 3.633257
v -15.323119 15.797034 3.633257
v -15.062777 15.910314 3.633257
v -14.974912 15.948545 3.741508
v -15.279317 15.816092 3.733667
v -8.267930 -4.965771 -0.107232
v -8.144547 -4.790686 -0.107232
v -8.163138 -4.817068 -0.011570
v -8.320527 -5.040409 -0.040992
v -8.309611 -4.859656 -0.107232
v -8.346268 -4.833824 -0.033317
v -8.161721 -4.963874 -0.009874
v -8.160351 -4.964840 -0.107232
v -8.188255 -11.269234 -1.130683
v -8.176799 -11.288528 -0.977937
v -8.268841 -11.133513 -1.016493
v -8.300163 -11.080761 -1.130683
v -8.387744 -11.283985 -1.130683
v -8.192583 -11.168106 -1.130683
v -8.126716 -11.128997 -0.996486
v -8.354909 -11.264489 -1.006206
v 3.784535 10.534016 0.301494
v 3.831718 10.526965 0.217203
v 3.983753 10.504245 0.217203
v 4.041028 10.495686 0.301494
v 3.916781 10.443301 0.217171
v 3.938225 10.586792 0.217171
v 3.946950 10.645180 0.305163
v 3.914678 10.429228 0.310933
v -1.149710 -10.501122 -2.172434
v -1.092171 -10.494916 -2.283196
v -0.906770 -10.474921 -2.283196
v -0.836924 -10.467388 -2.172434
v -0.966664 -10.566998 -2.283238
v -0.985536 -10.392015 -2.283238
v -0.993215 -10.320812 -2.167613
v -0.964814 -10.584160 -2.160030
v -2.580428 3.889970 0.160905
v -2.370073 3.941911 0.160905
v -2.401769 3.934084 0.269904
v -2.670101 3.867828 0.236380
v -2.541906 3.998675 0.160905
v -2.552781 4.042715 0.245125
v -2.498033 3.820993 0.271836
v -2.497626 3.819346 0.160905
v 4.498535 9.275564 -0.087680
v 4.336425 9.133861 -0.087680
v 4.316912 9.116804 0.029435
v 4.549444 9.320065 0.026066
v 4.355693 9.318357 -0.087680
v 4.509452 9.142455 -0.087680
v 4.514606 9.136559 0.011447
v 4.357945 9.315781 0.026239
v -15.772220 -11.660866 -0.388476
v -15.731816 -11.486643 -0.388476
v -15.737905 -11.512895 -0.297336
v -15.789443 -11.735136 -0.325367
v -15.837820 -11.591884 -0.388476
v -15.874296 -11.583425 -0.318055
v -15.690659 -11.626011 -0.295720
v -15.689295 -11.626327 -0.388476
v -8.586185 -13.872345 -1.514430
v -8.798059 -13.838767 -1.514430
v -8.766134 -13.843826 -1.421305
v -8.495864 -13.886659 -1.449947
v -8.663160 -13.956678 -1.514430
v -8.670190 -14.001038 -1.442475
v -8.634798 -13.777714 -1.419654
v -8.634536 -13.776055 -1.514430
v -1.568871 14.134730 1.584802
v -1.544538 14.143435 1.747680
v -1.740031 14.073503 1.706566
v -1.806559 14.049705 1.584802
v -1.596100 13.905972 1.584802
v -1.684143 14.152096 1.584802
v -1.713858 14.235162 1.727900
v -1.610913 13.947381 1.717536
v -11.427950 -14.341358 -1.090166
v -11.295833 -14.266397 -1.090166
v -11.279929 -14.257374 -0.988578
v -11.469440 -14.364899 -0.991500
v -11.335294 -14.391174 -1.090166
v -11.416632 -14.247817 -1.090166
v -11.419358 -14.243011 -1.004181
v -11.336485 -14.389074 -0.991350
v -1.521217 8.154291 0.620339
v -1.317324 8.149950 0.620339
v -1.286175 8.149286 0.701147
v -1.526578 8.154406 0.717683
v -1.406439 8.085364 0.620327
v -1.402406 8.274742 0.620327
v -1.402406 8.274742 0.703099
v -1.406637 8.076056 0.718923
v 1.402092 -0.456325 -1.073813
v 1.521834 -0.582680 -1.073813
v 1.536248 -0.597890 -0.975368
v 1.364487 -0.416643 -0.978199
v 1.372164 -0.573109 -1.073813
v 1.509269 -0.443180 -1.073813
v 1.513865 -0.438824 -0.990488
v 1.374172 -0.571206 -0.978054
v -2.654189 7.472269 0.765112
v -2.660058 7.487143 0.897233
v -2.612910 7.367643 0.863883
v -2.596865 7.326976 0.765112
v -2.512178 7.459995 0.765112
v -2.662628 7.400637 0.765112
v -2.713404 7.380603 0.881188
v -2.537491 7.450008 0.872781
v -6.089035 13.639112 2.285070
v -6.053177 13.687725 2.198507
v -5.937636 13.844369 2.198507
v -5.894108 13.903380 2.285070
v -5.909144 13.733310 2.198474
v -6.056985 13.842358 2.198474
v -6.117144 13.886731 2.288838
v -5.894644 13.722614 2.294764
v 4.669672 11.045739 0.171542
v 4.522799 10.930723 0.171542
v 4.544930 10.948053 0.261954
v 4.732284 11.094770 0.234147
v 4.677777 10.946776 0.171542
v 4.701857 10.916027 0.241400
v 4.580626 11.070836 0.263557
v 4.579725 11.071986 0.171542
v -4.192165 -3.898937 -0.778319
v -4.025448 -3.968096 -0.778319
v -4.005381 -3.976420 -0.652666
v -4.244521 -3.877218 -0.656280
v -4.171243 -4.022171 -0.778319
v -4.096200 -3.841272 -0.778319
v -4.093684 -3.835208 -0.671965
v -4.170144 -4.019522 -0.656094
v -13.979451 -12.223845 -0.546231
v -14.094090 -12.100034 -0.546231
v -14.076817 -12.118690 -0.453352
v -13.930581 -12.276625 -0.481918
v -14.068053 -12.238536 -0.546231
v -14.093975 -12.262537 -0.474466
v -13.963474 -12.141703 -0.451706
v -13.962504 -12.140805 -0.546231
v 0.203767 1.951102 -0.420421
v 0.436585 1.912076 -0.420421
v 0.475892 1.905487 -0.336839
v 0.163708 1.957817 -0.320759
v 0.302777 1.804986 -0.420483
v 0.350058 2.087045 -0.420483
v 0.332399 1.981701 -0.302883
v 0.299364 1.784622 -0.338606
v -10.382094 15.782304 3.139879
v -10.232356 15.842868 3.139879
v -10.254919 15.833742 3.250434
v -10.445928 15.756485 3.216431
v -10.365159 15.866592 3.139879
v -10.377838 15.897943 3.225301
v -10.314001 15.740112 3.252394
v -10.313527 15.738940 3.139879
v -1.867566 -14.504448 -2.803818
v -1.885065 -14.513678 -2.619682
v -1.744477 -14.439526 -2.666162
v -1.696634 -14.414290 -2.803818
v -1.871685 -14.328136 -2.803818
v -1.778328 -14.505135 -2.803818
v -1.746820 -14.564871 -2.642043
v -1.855978 -14.357915 -2.653761
v -13.424925 -13.634813 -0.792984
v -13.450272 -13.446073 -0.792984
v -13.446452 -13.474512 -0.671370
v -13.414120 -13.715272 -0.708774
v -13.516234 -13.590802 -0.792984
v -13.555749 -13.596108 -0.699017
v -13.356811 -13.569392 -0.669214
v -13.355332 -13.569194 -0.792984
v -2.580038 16.019545 1.994186
v -2.509288 15.900749 1.994186
v -2.519949 15.918650 2.100770
v -2.610199 16.070187 2.067989
v -2.506519 16.016197 1.994186
v -2.481648 16.031010 2.076540
v -2.606862 15.956437 2.102659
v -2.607792 15.955883 1.994186
v 1.262571 -6.663209 -1.790995
v 1.298385 -6.694495 -2.066514
v 1.413787 -6.795304 -2.066514
v 1.457262 -6.833281 -1.790995
v 1.324807 -6.810454 -2.066619
v 1.419951 -6.701538 -2.066619
v 1.458666 -6.657218 -1.779003
v 1.315475 -6.821136 -1.760140
v -7.666255 6.468852 1.531361
v -7.636871 6.504107 1.436115
v -7.542188 6.617703 1.436115
v -7.506519 6.660498 1.531361
v -7.525582 6.532191 1.436079
v -7.632795 6.621553 1.436079
v -7.676421 6.657916 1.535506
v -7.515067 6.523427 1.542027
v -2.200958 12.615376 1.456247
v -2.195485 12.756047 1.456247
v -2.196310 12.734851 1.574185
v -2.203291 12.555408 1.537912
v -2.261877 12.659006 1.456247
v -2.291328 12.660152 1.547374
v -2.143055 12.654384 1.576276
v -2.141954 12.654341 1.456247
v -0.648409 -10.992626 -2.286220
v -0.595487 -10.997457 -2.455837
v -0.424958 -11.013019 -2.455837
v -0.360716 -11.018882 -2.286220
v -0.495548 -11.085070 -2.455902
v -0.480860 -10.924124 -2.455902
v -0.474883 -10.858633 -2.278837
v -0.496988 -11.100854 -2.267224
v -10.499433 -6.145491 0.073431
v -10.552459 -6.353960 0.073431
v -10.558842 -6.379053 0.183579
v -10.482780 -6.080023 0.180411
v -10.641197 -6.191265 0.073431
v -10.414993 -6.248802 0.073431
v -10.407411 -6.250731 0.166661
v -10.637884 -6.192107 0.180573
v -1.962492 -14.769741 -2.833693
v -1.792261 -14.705271 -2.833693
v -1.778193 -14.699944 -2.759943
v -1.980744 -14.776654 -2.716905
v -1.857191 -14.814137 -2.833646
v -1.918493 -14.652271 -2.833646
v -1.902477 -14.694562 -2.750440
v -1.847626 -14.839393 -2.738590
v 0.205319 -5.533130 -1.647690
v 0.225669 -5.528994 -1.513342
v 0.062173 -5.562229 -1.547254
v 0.006534 -5.573540 -1.647690
v 0.157467 -5.711959 -1.647690
v 0.115624 -5.506119 -1.647690
v 0.101502 -5.436649 -1.529657
v 0.150428 -5.677328 -1.538206
v -10.489182 14.838460 3.024291
v -10.521406 14.616664 3.024291
v -10.516551 14.650084 3.141551
v -10.475445 14.933011 3.105486
v -10.400042 14.759180 3.024291
v -10.353606 14.752434 3.114894
v -10.587387 14.786399 3.143630
v -10.589124 14.786652 3.024291
v -11.761888 -13.098908 -0.848525
v -11.517653 -13.213112 -0.848525
v -11.488255 -13.226859 -0.700282
v -11.838587 -13.063044 -0.704546
v -11.738792 -13.284196 -0.848525
v -11.614873 -13.019184 -0.848525
v -11.610719 -13.010300 -0.723051
v -11.736978 -13.280314 -0.704327
v 0.399055 -8.213841 -2.153624
v 0.549869 -8.233042 -2.153624
v 0.568023 -8.235353 -1.899557
v 0.351693 -8.207812 -1.906864
v 0.443403 -8.309335 -2.153624
v 0.464236 -8.145691 -2.153624
v 0.464934 -8.140204 -1.938579
v 0.443708 -8.306938 -1.906489
v -8.189379 13.678588 2.526380
v -8.073385 13.903712 2.526380
v -8.059422 13.930810 2.699887
v -8.225806 13.607890 2.694897
v -8.014635 13.693588 2.526380
v -8.258910 13.819449 2.526380
v -8.267099 13.823669 2.673238
v -8.018212 13.695432 2.695153
v -2.831889 7.887136 0.850691
v -2.667541 7.812678 0.850691
v -2.647759 7.803716 0.974500
v -2.883501 7.910519 0.970939
v -2.814946 7.763336 0.850691
v -2.734154 7.941665 0.850691
v -2.731446 7.947643 0.955484
v -2.813763 7.765947 0.971122
v -9.589905 -6.567066 -0.062107
v -9.562529 -6.534791 -0.141344
v -9.474316 -6.430798 -0.141344
v -9.441084 -6.391621 -0.062107
v -9.459683 -6.509781 -0.141374
v -9.557834 -6.426526 -0.141374
v -9.597773 -6.392648 -0.058658
v -9.450058 -6.517946 -0.053234
v -5.094361 0.270213 0.130740
v -5.062770 0.107474 0.130740
v -5.058968 0.087885 0.231234
v -5.104282 0.321320 0.228344
v -5.178119 0.191693 0.130740
v -5.001536 0.225971 0.130740
v -4.995616 0.227120 0.215799
v -5.175533 0.192195 0.228492
v -0.429235 -9.686289 -2.219283
v -0.410270 -9.704744 -2.070009
v -0.562644 -9.556468 -2.107689
v -0.614499 -9.506008 -2.219283
v -0.651872 -9.764297 -2.219283
v -0.465194 -9.572460 -2.219283
v -0.402190 -9.507715 -2.088137
v -0.620464 -9.732022 -2.097636
v -5.596199 4.449272 0.829448
v -5.572675 4.452521 0.974310
v -5.761671 4.426414 0.937744
v -5.825988 4.417529 0.829448
v -5.663742 4.248641 0.829448
v -5.696611 4.486585 0.829448
v -5.707705 4.566890 0.956719
v -5.669272 4.288674 0.947500
v -15.369475 -13.792519 -0.761292
v -15.260947 -13.588023 -0.761292
v -15.277301 -13.618836 -0.662413
v -15.415740 -13.879694 -0.692825
v -15.428578 -13.684393 -0.761292
v -15.471393 -13.661671 -0.684892
v -15.255847 -13.776063 -0.660661
v -15.254246 -13.776913 -0.761292
v 0.003261 -0.578021 -0.794809
v -0.085022 -0.681678 -0.794809
v -0.071720 -0.666059 -0.698490
v 0.040896 -0.533832 -0.728114
v 0.023476 -0.647617 -0.794809
v 0.045178 -0.666100 -0.720386
v -0.064080 -0.573047 -0.696782
v -0.064892 -0.572355 -0.794809
v -6.620898 14.479186 2.399246
v -6.562833 14.675152 2.399246
v -6.571582 14.645624 2.490237
v -6.645650 14.395647 2.462251
v -6.690989 14.562387 2.399246
v -6.732018 14.574543 2.469552
v -6.525463 14.513340 2.491850
v -6.523928 14.512886 2.399246
v -0.385065 -7.446526 -1.756820
v -0.441185 -7.448269 -1.847965
v -0.622017 -7.453890 -1.847965
v -0.690141 -7.456007 -1.756820
v -0.557262 -7.369250 -1.847999
v -0.551957 -7.539920 -1.847999
v -0.549799 -7.609368 -1.752853
v -0.557782 -7.352511 -1.746613
v -3.596032 -14.771107 -2.515273
v -3.576339 -14.762767 -2.394498
v -3.734561 -14.829769 -2.424984
v -3.788406 -14.852571 -2.515273
v -3.607737 -14.961398 -2.515273
v -3.692093 -14.762197 -2.515273
v -3.720562 -14.694968 -2.409165
v -3.621930 -14.927884 -2.416851
v -6.655540 3.845762 0.915222
v -6.730637 4.037578 0.915222
v -6.719321 4.008675 1.006820
v -6.623528 3.763992 0.978648
v -6.762787 3.868563 0.915222
v -6.802946 3.852841 0.985997
v -6.600766 3.931994 1.008444
v -6.599264 3.932582 0.915222
v -6.864175 4.877655 1.076148
v -6.731605 4.872589 1.076148
v -6.751581 4.873353 1.179465
v -6.920689 4.879814 1.147689
v -6.823097 4.935092 1.076148
v -6.822037 4.962847 1.155978
v -6.827376 4.823114 1.181297
v -6.827416 4.822076 1.076148
v -8.049344 -12.828649 -1.414698
v -8.312833 -12.859221 -1.414698
v -8.344549 -12.862900 -1.296918
v -7.966598 -12.819048 -1.300305
v -8.164412 -12.685451 -1.414698
v -8.131240 -12.971354 -1.414698
v -8.130128 -12.980939 -1.315008
v -8.163926 -12.689638 -1.300131
v -1.990460 9.449134 1.062199
v -1.984521 9.380716 0.926386
v -1.965383 9.160260 0.926386
v -1.958173 9.077209 1.062199
v -2.073143 9.233596 0.926335
v -1.865076 9.251658 0.926335
v -1.780410 9.259008 1.068111
v -2.093549 9.231825 1.077409
v -7.093220 4.925161 1.125256
v -7.110589 4.907494 1.326693
v -6.971045 5.049439 1.275846
v -6.923556 5.097744 1.125256
v -7.165189 5.133966 1.125256
v -6.986482 4.958282 1.125256
v -6.926168 4.898988 1.302231
v -7.135122 5.104408 1.289413
v -2.812695 -11.159570 -1.922101
v -2.769799 -11.147139 -2.008521
v -2.631577 -11.107081 -2.008521
v -2.579506 -11.091990 -1.922101
v -2.664749 -11.185090 -2.008554
v -2.702555 -11.054637 -2.008554
v -2.717939 -11.001554 -1.918340
v -2.661041 -11.197885 -1.912423
v -8.222064 15.416567 2.758892
v -8.240593 15.412070 2.922331
v -8.091722 15.448200 2.881075
v -8.041059 15.460496 2.758892
v -8.184320 15.582302 2.758892
v -8.138832 15.394875 2.758892
v -8.123481 15.331618 2.902483
v -8.176667 15.550768 2.892082
v -12.834089 -10.217890 -0.170704
v -12.778415 -10.206847 -0.275168
v -12.599017 -10.171267 -0.275168
v -12.531434 -10.157863 -0.170704
v -12.649562 -10.266406 -0.275208
v -12.683144 -10.097090 -0.275208
v -12.696808 -10.028193 -0.166157
v -12.646269 -10.283011 -0.159005
v -8.994047 14.391288 2.839468
v -8.949070 14.413510 2.731519
v -8.804144 14.485116 2.731519
v -8.749547 14.512092 2.839468
v -8.825411 14.392301 2.731478
v -8.892993 14.529082 2.731478
v -8.920492 14.584741 2.844167
v -8.818783 14.378886 2.851557
v 3.553111 2.763010 -0.920505
v 3.375480 2.705218 -0.920505
v 3.348343 2.696389 -0.790877
v 3.557781 2.764529 -0.764350
v 3.433048 2.787970 -0.920525
v 3.486725 2.622984 -0.920525
v 3.486725 2.622984 -0.787745
v 3.430410 2.796078 -0.762360
v -13.641096 -13.058223 -0.694632
v -13.814347 -12.950259 -0.694632
v -13.788242 -12.966528 -0.577648
v -13.567241 -13.104247 -0.613628
v -13.739821 -13.103605 -0.694632
v -13.762424 -13.139877 -0.604243
v -13.648627 -12.957265 -0.575574
v -13.647782 -12.955909 -0.694632
v -11.316710 -8.620869 -0.191492
v -11.318711 -8.601791 -0.042688
v -11.302641 -8.755062 -0.080249
v -11.297172 -8.807222 -0.191492
v -11.156528 -8.680713 -0.191492
v -11.349494 -8.700945 -0.191492
v -11.414619 -8.707773 -0.060758
v -11.188993 -8.684116 -0.070227
v -9.420378 11.391181 2.393832
v -9.512983 11.253459 2.393832
v -9.524130 11.236881 2.499421
v -9.391295 11.434432 2.496384
v -9.535259 11.394694 2.393832
v -9.385820 11.294210 2.393832
v -9.380811 11.290842 2.483203
v -9.533071 11.393223 2.496540
v -7.565322 -9.766541 -1.020050
v -7.709358 -9.997684 -1.020050
v -7.726696 -10.025508 -0.888962
v -7.520089 -9.693952 -0.892732
v -7.753934 -9.767321 -1.020050
v -7.503126 -9.923610 -1.020050
v -7.494718 -9.928849 -0.909096
v -7.750261 -9.769609 -0.892538
v -13.710430 -0.317096 1.327600
v -13.900126 -0.268463 1.327600
v -13.871543 -0.275791 1.419633
v -13.629563 -0.337828 1.391328
v -13.787601 -0.387163 1.327600
v -13.797784 -0.426878 1.398711
v -13.746523 -0.226932 1.421265
v -13.746141 -0.225447 1.327600
v -2.495678 -9.452172 -1.647936
v -2.525111 -9.486308 -1.746796
v -2.619951 -9.596299 -1.746796
v -2.655679 -9.637735 -1.647936
v -2.634853 -9.512058 -1.746834
v -2.531043 -9.601568 -1.746834
v -2.488801 -9.637991 -1.643633
v -2.645034 -9.503280 -1.636865
v -8.082128 4.277320 1.213694
v -8.233215 4.418284 1.213694
v -8.251402 4.435252 1.320535
v -8.034679 4.233052 1.317463
v -8.055193 4.417867 1.213694
v -8.208148 4.253926 1.213694
v -8.213276 4.248430 1.304125
v -8.057433 4.415466 1.317620
v -1.247025 -12.797161 -2.623475
v -1.112375 -12.677013 -2.623475
v -1.089641 -12.656729 -2.533751
v -1.270193 -12.817834 -2.516489
v -1.112536 -12.808029 -2.623542
v -1.258096 -12.644899 -2.623542
v -1.203732 -12.705825 -2.497298
v -1.102028 -12.819806 -2.535647
v -1.797445 -13.972907 -2.714971
v -1.775821 -13.844156 -2.714971
v -1.773219 -13.828658 -2.458235
v -1.804236 -14.013340 -2.465618
v -1.713993 -13.938115 -2.714971
v -1.853697 -13.914652 -2.714971
v -1.858380 -13.913865 -2.497667
v -1.716039 -13.937771 -2.465240
v -1.854442 -14.520220 -2.807479
v -1.962757 -14.701668 -2.807479
v -1.971708 -14.716662 -2.733737
v -1.842828 -14.500765 -2.690705
v -1.982244 -14.555810 -2.807431
v -1.809712 -14.658803 -2.807431
v -1.854789 -14.631894 -2.724236
v -2.009163 -14.539741 -2.712387
v -11.756679 12.552598 2.885166
v -11.640106 12.372895 2.885166
v -11.626074 12.351264 3.014585
v -11.793287 12.609032 3.010863
v -11.819050 12.418003 2.885166
v -11.624059 12.544493 2.885166
v -11.617522 12.548733 2.994707
v -11.816194 12.419856 3.011053
v -12.852172 7.940493 2.519955
v -12.918921 7.929092 2.387532
v -13.134006 7.892356 2.387532
v -13.215033 7.878517 2.519955
v -13.070703 8.004215 2.387482
v -13.036031 7.801219 2.387482
v -13.021923 7.718617 2.525719
v -13.074102 8.024124 2.534785
v -4.053703 3.100212 0.384809
v -4.101969 3.305189 0.384809
v -4.094697 3.274303 0.498164
v -4.033127 3.012832 0.463300
v -4.158941 3.138792 0.384809
v -4.201855 3.128687 0.472395
v -3.985803 3.179561 0.500173
v -3.984198 3.179939 0.384809
v 2.383763 2.349117 -0.814276
v 2.493113 2.182019 -0.814276
v 2.476636 2.207197 -0.675360
v 2.337148 2.420349 -0.718085
v 2.490055 2.348779 -0.814276
v 2.525039 2.371673 -0.706940
v 2.348913 2.256414 -0.672897
v 2.347604 2.255558 -0.814276
v -12.607642 4.878638 2.050426
v -12.607672 4.832575 1.929504
v -12.607764 4.684150 1.929504
v -12.607800 4.628235 2.050426
v -12.675484 4.739449 1.929458
v -12.535400 4.739361 1.929458
v -12.478398 4.739325 2.055690
v -12.689222 4.739458 2.063968
v 1.013246 -7.345853 -1.775694
v 1.044089 -7.288161 -2.090302
v 1.143473 -7.102264 -2.090302
v 1.180913 -7.032232 -1.775694
v 1.191334 -7.216838 -2.090422
v 1.015884 -7.123039 -2.090422
v 0.944490 -7.084871 -1.762000
v 1.208541 -7.226038 -1.740461
v -3.363432 15.883191 2.112076
v -3.447112 16.070776 2.112076
v -3.434503 16.042511 2.203798
v -3.327760 15.803226 2.175588
v -3.471311 15.900938 2.112076
v -3.510584 15.883418 2.182947
v -3.312865 15.971620 2.205424
v -3.311396 15.972275 2.112076
v -1.785413 -7.876328 -1.588757
v -1.870677 -7.743093 -1.588757
v -1.880941 -7.727055 -1.466238
v -1.758636 -7.918170 -1.469762
v -1.738740 -7.777220 -1.588757
v -1.883310 -7.869738 -1.588757
v -1.888157 -7.872839 -1.485056
v -1.740857 -7.778574 -1.469581
v -0.951756 -11.617990 -2.454120
v -1.159195 -11.600730 -2.454120
v -1.190886 -11.598093 -2.315961
v -0.946302 -11.618444 -2.287688
v -1.064345 -11.540545 -2.454141
v -1.080376 -11.733216 -2.454141
v -1.080376 -11.733216 -2.312623
v -1.063557 -11.531075 -2.285567
v -15.777162 10.386494 3.005732
v -15.779648 10.339306 2.909361
v -15.787661 10.187257 2.909361
v -15.790679 10.129976 3.005732
v -15.854086 10.247519 2.909324
v -15.710582 10.239958 2.909324
v -15.652187 10.236880 3.009927
v -15.868160 10.248261 3.016524
v -8.041791 15.329765 2.714584
v -8.068046 15.325907 2.891090
v -7.857103 15.356912 2.846536
v -7.785317 15.367463 2.714584
v -7.968256 15.554618 2.714584
v -7.929221 15.289042 2.714584
v -7.916047 15.199411 2.869655
v -7.961689 15.509936 2.858423
v -9.290381 15.313288 2.902348
v -9.217370 15.146972 2.902348
v -9.208581 15.126952 3.010290
v -9.313310 15.365518 3.007185
v -9.360965 15.209166 2.902348
v -9.180500 15.288388 2.902348
v -9.174450 15.291044 2.993711
v -9.358322 15.210326 3.007345
v -1.456240 9.647565 0.914527
v -1.611122 9.736554 0.914527
v -1.629766 9.747266 1.005634
v -1.407601 9.619618 1.003014
v -1.461174 9.771173 0.914527
v -1.557734 9.603115 0.914527
v -1.560971 9.597481 0.991641
v -1.462588 9.768712 1.003148
v -12.713389 12.391371 2.977184
v -12.877878 12.574158 2.977184
v -12.853093 12.546616 3.077806
v -12.643269 12.313450 3.046859
v -12.842803 12.371798 2.977184
v -12.881072 12.337359 3.054932
v -12.688409 12.510736 3.079590
v -12.686977 12.512024 2.977184
v -12.897923 14.168008 3.206486
v -12.889891 14.198322 3.313701
v -12.954431 13.954763 3.286638
v -12.976394 13.871878 3.206486
v -12.687931 13.983442 3.206486
v -12.994570 14.064698 3.206486
v -13.098059 14.092121 3.300681
v -12.739522 13.997113 3.293858
v -2.019569 8.001031 0.850963
v -2.073379 7.973581 0.767364
v -2.246766 7.885132 0.767364
v -2.312086 7.851811 0.850963
v -2.222593 7.997210 0.767332
v -2.139114 7.833566 0.767332
v -2.105145 7.766977 0.854601
v -2.230780 8.013259 0.860325
v -15.828896 -14.233667 -0.743476
v -15.762037 -14.236712 -0.839030
v -15.546604 -14.246517 -0.839030
v -15.465445 -14.250212 -0.743476
v -15.631283 -14.341209 -0.839066
v -15.622027 -14.137882 -0.839066
v -15.618261 -14.055146 -0.739317
v -15.632191 -14.361151 -0.732775
v -1.393395 -9.556613 -2.024924
v -1.383731 -9.575489 -1.917830
v -1.461379 -9.423832 -1.944863
v -1.487803 -9.372222 -2.024924
v -1.582431 -9.558728 -2.024924
v -1.391496 -9.460971 -2.024924
v -1.327056 -9.427978 -1.930835
v -1.550307 -9.542281 -1.937650
v -3.220812 -11.000675 -1.889337
v -3.112974 -11.207471 -1.889337
v -3.094768 -11.242385 -1.801786
v -3.239367 -10.965094 -1.784942
v -3.277070 -11.165728 -1.889402
v -3.026536 -11.035083 -1.889402
v -3.120106 -11.083876 -1.766216
v -3.295157 -11.175159 -1.803636
vn -0.5160 -0.8566 -0.0000
vn 0.8566 -0.5160 -0.0000
vn 0.7867 -0.6173 -0.0000
vn 0.6173 0.7867 -0.0000
vn -0.6331 0.7741 -0.0000
vn -0.7741 -0.6331 -0.0000
vn 1.0000 0.0087 -0.0000
vn -0.0087 1.0000 -0.0000
vn 0.8567 -0.5158 -0.0000
vn 0.5158 0.8567 -0.0000
vn 0.7595 -0.6505 -0.0000
vn 0.6505 0.7595 -0.0000
vn -0.8050 0.5933 -0.0000
vn -0.5933 -0.8050 -0.0000
vn 0.9147 -0.4042 -0.0000
vn 0.4042 0.9147 -0.0000
vn -0.9976 -0.0693 -0.0000
vn 0.0693 -0.9976 -0.0000
vn -0.8983 0.4394 -0.0000
vn -0.4394 -0.8983 -0.0000
vn 0.4833 -0.8755 -0.0000
vn 0.8754 0.4833 -0.0000
vn 0.9163 -0.4005 -0.0000
vn 0.4005 0.9163 -0.0000
vn 0.8703 -0.4925 -0.0000
vn 0.4925 0.8703 -0.0000
vn 0.9755 0.2202 -0.0000
vn -0.2202 0.9755 -0.0000
vn -0.5238 0.8519 -0.0000
vn -0.8519 -0.5238 -0.0000
vn -0.6601 -0.7512 -0.0000
vn 0.7512 -0.6601 -0.0000
vn -0.2013 -0.9795 -0.0000
vn 0.9795 -0.2014 -0.0000
vn -0.0656 0.9978 -0.0000
vn -0.9978 -0.0656 -0.0000
vn 0.7445 -0.6677 -0.0000
vn 0.6677 0.7445 -0.0000
vn 0.9845 -0.1753 -0.0000
vn 0.1753 0.9845 -0.0000
vn -0.0565 0.9984 -0.0000
vn -0.9984 -0.0565 -0.0000
vn -0.9170 -0.3990 -0.0000
vn 0.3990 -0.9170 -0.0000
vn 0.8174 -0.5760 -0.0000
vn 0.5760 0.8174 -0.0000
vn -0.8598 -0.5105 -0.0000
vn 0.5105 -0.8599 -0.0000
vn -0.1478 -0.9890 -0.0000
vn 0.9890 -0.1478 -0.0000
vn 0.1072 -0.9942 -0.0000
vn 0.9942 0.1072 -0.0000
vn 0.2397 -0.9708 -0.0000
vn 0.9708 0.2397 -0.0000
vn -0.6581 0.7529 -0.0000
vn -0.7529 -0.6581 -0.0000
vn 0.9741 -0.2259 -0.0000
vn 0.2259 0.9742 -0.0000
vn 0.1565 0.9877 -0.0000
vn -0.9877 0.1565 -0.0000
vn 0.3368 -0.9416 -0.0000
vn 0.9416 0.3368 -0.0000
vn 0.4935 -0.8698 -0.0000
vn 0.8698 0.4935 -0.0000
vn -0.0213 -0.9998 -0.0000
vn 0.9998 -0.0213 -0.0000
vn -0.7258 -0.6879 -0.0000
vn 0.6879 -0.7258 -0.0000
vn 0.9302 0.3670 -0.0000
vn -0.3670 0.9302 -0.0000
vn 0.8048 -0.5936 -0.0000
vn 0.5936 0.8048 -0.0000
vn -0.6165 0.7873 -0.0000
vn -0.7873 -0.6165 -0.0000
vn -0.3832 -0.9237 -0.0000
vn 0.9237 -0.3832 -0.0000
vn 0.7338 0.6794 -0.0000
vn -0.6794 0.7338 -0.0000
vn -0.1653 -0.9862 -0.0000
vn 0.9862 -0.1653 -0.0000
vn 0.3750 -0.9270 -0.0000
vn 0.9270 0.3750 -0.0000
vn -0.4665 0.8845 -0.0000
vn -0.8845 -0.4665 -0.0000
vn 0.9911 0.1331 -0.0000
vn -0.1331 0.9911 -0.0000
vn -0.8592 -0.5117 -0.0000
vn 0.5117 -0.8592 -0.0000
vn -0.6579 -0.7531 -0.0000
vn 0.7531 -0.6579 -0.0000
vn 0.7682 -0.6403 -0.0000
vn 0.6403 0.7682 -0.0000
vn 0.9992 -0.0389 -0.0000
vn 0.0389 0.9992 -0.0000
vn -0.0909 -0.9959 -0.0000
vn 0.9959 -0.0909 -0.0000
vn -0.9691 0.2465 -0.0000
vn -0.2465 -0.9691 -0.0000
vn 0.3542 -0.9352 -0.0000
vn 0.9352 0.3542 -0.0000
vn 0.1992 -0.9800 -0.0000
vn 0.9800 0.1992 -0.0000
vn -0.9896 0.1438 -0.0000
vn -0.1438 -0.9896 -0.0000
vn -0.4236 -0.9059 -0.0000
vn 0.9059 -0.4236 -0.0000
vn -0.1263 -0.9920 -0.0000
vn 0.9920 -0.1263 -0.0000
vn 0.8889 -0.4580 -0.0000
vn 0.4580 0.8889 -0.0000
vn -0.4127 -0.9109 -0.0000
vn 0.9109 -0.4127 -0.0000
vn 0.7626 -0.6469 -0.0000
vn 0.6469 0.7626 -0.0000
vn -0.9817 -0.1906 -0.0000
vn 0.1906 -0.9817 -0.0000
vn -0.6974 -0.7167 -0.0000
vn 0.7167 -0.6974 -0.0000
vn 0.1368 -0.9906 -0.0000
vn 0.9906 0.1368 -0.0000
vn 0.8833 -0.4688 -0.0000
vn 0.4688 0.8833 -0.0000
vn -0.7613 0.6484 -0.0000
vn -0.6484 -0.7613 -0.0000
vn 0.9588 -0.2841 -0.0000
vn 0.2841 0.9588 -0.0000
vn -0.0311 0.9995 -0.0000
vn -0.9995 -0.0311 -0.0000
vn 0.3899 -0.9208 -0.0000
vn 0.9208 0.3899 -0.0000
vn 0.9312 0.3646 -0.0000
vn -0.3646 0.9312 -0.0000
vn -0.0382 -0.9993 -0.0000
vn 0.9993 -0.0382 -0.0000
vn -0.1153 0.9933 -0.0000
vn -0.9933 -0.1153 -0.0000
vn -0.9963 -0.0865 -0.0000
vn 0.0865 -0.9963 -0.0000
vn -0.7131 0.7011 -0.0000
vn -0.7010 -0.7131 -0.0000
vn 0.2784 -0.9605 -0.0000
vn 0.9605 0.2783 -0.0000
vn -0.2359 0.9718 -0.0000
vn -0.9718 -0.2359 -0.0000
vn 0.1945 -0.9809 -0.0000
vn 0.9809 0.1946 -0.0000
vn 0.4430 -0.8965 -0.0000
vn 0.8965 0.4430 -0.0000
vn -0.3094 0.9509 -0.0000
vn -0.9509 -0.3094 -0.0000
vn 0.5289 0.8487 -0.0000
vn -0.8487 0.5289 -0.0000
vn 0.9945 0.1043 -0.0000
vn -0.1043 0.9945 -0.0000
vn -0.8298 0.5580 -0.0000
vn -0.5580 -0.8298 -0.0000
vn -0.5289 -0.8487 -0.0000
vn 0.2483 0.9687 -0.0000
vn -0.9687 0.2483 -0.0000
vn -0.7573 0.6530 -0.0000
vn -0.6530 -0.7573 -0.0000
vn 0.6822 0.7312 -0.0000
vn -0.7312 0.6822 -0.0000
vn 0.6658 -0.7461 -0.0000
vn 0.7461 0.6658 -0.0000
vn 0.9862 -0.1656 -0.0000
vn 0.1656 0.9862 -0.0000
vn -0.8586 0.5126 -0.0000
vn -0.5126 -0.8586 -0.0000
vn -0.8389 -0.5442 -0.0000
vn 0.5442 -0.8389 -0.0000
vn -0.1684 0.9857 -0.0000
vn -0.9857 -0.1684 -0.0000
vn 0.9734 0.2292 -0.0000
vn -0.2292 0.9734 -0.0000
vn -0.8368 -0.5476 -0.0000
vn 0.5476 -0.8368 -0.0000
vn -1.0000 0.0006 -0.0000
vn -0.0006 -1.0000 -0.0000
vn 0.8819 -0.4715 -0.0000
vn 0.4715 0.8819 -0.0000
vn 0.9133 0.4074 -0.0000
vn -0.4074 0.9133 -0.0000
vn 0.8423 0.5390 -0.0000
vn -0.5390 0.8423 -0.0000
vn 0.0829 0.9966 -0.0000
vn -0.9966 0.0829 -0.0000
vn -0.9986 0.0526 -0.0000
vn -0.0526 -0.9986 -0.0000
vn -0.1454 0.9894 -0.0000
vn -0.9894 -0.1454 -0.0000
vn -0.9157 -0.4020 -0.0000
vn 0.4020 -0.9157 -0.0000
vn 0.4982 0.8671 -0.0000
vn -0.8671 0.4982 -0.0000
vn 0.7433 0.6689 -0.0000
vn -0.6689 0.7433 -0.0000
vn 0.9666 -0.2561 -0.0000
vn 0.2561 0.9666 -0.0000
vn -0.4544 0.8908 -0.0000
vn -0.8908 -0.4544 -0.0000
vn -0.0455 -0.9990 -0.0000
vn 0.9990 -0.0455 -0.0000
vn -0.8901 -0.4557 -0.0000
vn 0.4557 -0.8901 -0.0000
vn -0.8867 -0.4624 -0.0000
vn 0.4624 -0.8867 -0.0000
vn 0.8755 0.4833 -0.0000
vn 0.9795 -0.2013 -0.0000
vn -0.8599 -0.5105 -0.0000
vn 0.2259 0.9741 -0.0000
vn 0.9270 0.3749 -0.0000
vn -0.7011 -0.7131 -0.0000
vn 0.9605 0.2784 -0.0000
vn -0.2358 0.9718 -0.0000
vn -0.9718 -0.2358 -0.0000
vn 0.9809 0.1945 -0.0000
vt 0.587516 0.250000
vt 0.696219 0.438742
vt 0.532955 0.380692
vt 0.931885 0.250000
vt 0.823776 0.442088
vt 0.822774 0.250000
vt 0.038376 0.371048
vt 0.159378 0.250046
vt 0.194166 0.371048
vt 0.420000 0.250000
vt 0.324298 0.384599
vt 0.332846 0.250000
vt 0.574736 0.000000
vt 0.727477 0.180119
vt 0.531923 0.174939
vt 0.795077 0.000000
vt 0.947964 0.152455
vt 0.797243 0.175205
vt 0.943005 0.000000
vt 0.548614 0.500208
vt 0.730526 0.577570
vt 0.530599 0.622715
vt 0.802250 0.500257
vt 0.920277 0.587538
vt 0.777322 0.599968
vt 0.183597 0.000000
vt 0.079867 0.150378
vt 0.039548 0.000000
vt 0.406485 0.000000
vt 0.282420 0.163926
vt 0.257324 0.000000
vt 0.683200 0.750259
vt 0.546949 0.843491
vt 0.500000 0.750259
vt 0.966633 0.750219
vt 0.827483 0.844072
vt 0.798992 0.750219
vt 0.199407 0.500208
vt 0.021869 0.609361
vt 0.026417 0.500208
vt 0.318619 0.500194
vt 0.479294 0.593008
vt 0.310722 0.610752
vt 0.198931 0.750308
vt 0.019909 0.844918
vt 0.046190 0.750308
vt 0.292351 0.750248
vt 0.408285 0.861889
vt 0.278991 0.827976
vt 0.224718 0.829653
vt 0.715504 0.250000
vt 0.958681 0.395835
vt 0.067034 0.250046
vt 0.455465 0.376315
vt 0.711067 0.000000
vt 0.716640 0.500208
vt 0.962020 0.500257
vt 0.198343 0.201154
vt 0.456826 0.176726
vt 0.726638 0.843491
vt 0.977378 0.853368
vt 0.225835 0.590819
vt 0.479294 0.500194
vt 0.477396 0.750248
s 0
f 1/1/1 3/2/1 4/3/1
f 5/4/2 7/5/2 8/6/2
f 9/7/3 11/8/3 12/9/3
f 14/10/4 16/11/4 13/12/4
f 17/13/5 19/14/5 20/15/5
f 21/16/6 23/17/6 24/18/6
f 25/1/7 27/2/7 28/3/7
f 29/4/8 31/5/8 32/6/8
f 33/1/9 35/2/9 36/3/9
f 37/4/10 39/5/10 40/6/10
f 41/1/11 43/2/11 44/3/11
f 45/4/12 47/5/12 48/6/12
f 49/13/13 51/14/13 52/15/13
f 54/19/14 56/18/14 53/16/14
f 57/13/15 59/14/15 60/15/15
f 61/16/16 63/17/16 64/18/16
f 65/7/17 67/8/17 68/9/17
f 70/10/18 72/11/18 69/12/18
f 73/20/19 75/21/19 76/22/19
f 77/23/20 79/24/20 80/25/20
f 81/7/21 83/8/21 84/9/21
f 86/10/22 88/11/22 85/12/22
f 89/13/23 91/14/23 92/15/23
f 94/19/24 96/18/24 93/16/24
f 97/13/25 99/14/25 100/15/25
f 101/16/26 103/17/26 104/18/26
f 105/26/27 107/27/27 108/28/27
f 110/29/28 112/30/28 109/31/28
f 113/7/29 115/8/29 116/9/29
f 118/10/30 120/11/30 117/12/30
f 122/32/31 124/33/31 121/34/31
f 126/35/32 128/36/32 125/37/32
f 129/13/33 131/14/33 132/15/33
f 134/19/34 136/18/34 133/16/34
f 137/1/35 139/2/35 140/3/35
f 141/4/36 143/5/36 144/6/36
f 145/7/37 147/8/37 148/9/37
f 150/10/38 152/11/38 149/12/38
f 153/7/39 155/8/39 156/9/39
f 158/10/40 160/11/40 157/12/40
f 161/26/41 163/27/41 164/28/41
f 166/29/42 168/30/42 165/31/42
f 169/26/43 171/27/43 172/28/43
f 174/29/44 176/30/44 173/31/44
f 177/1/45 179/2/45 180/3/45
f 181/4/46 183/5/46 184/6/46
f 185/26/47 187/27/47 188/28/47
f 190/29/48 192/30/48 189/31/48
f 193/7/49 195/8/49 196/9/49
f 198/10/50 200/11/50 197/12/50
f 201/7/51 203/8/51 204/9/51
f 206/10/52 208/11/52 205/12/52
f 209/1/53 211/2/53 212/3/53
f 213/4/54 215/5/54 216/6/54
f 217/13/55 219/14/55 220/15/55
f 222/19/56 224/18/56 221/16/56
f 225/1/57 227/2/57 228/3/57
f 229/4/58 231/5/58 232/6/58
f 233/1/59 235/2/59 236/3/59
f 237/4/60 239/5/60 240/6/60
f 241/26/61 243/27/61 244/28/61
f 246/29/62 248/30/62 245/31/62
f 249/13/63 251/14/63 252/15/63
f 254/19/64 256/18/64 253/16/64
f 258/38/65 260/39/65 257/40/65
f 261/41/66 263/42/66 264/43/66
f 265/13/67 267/14/67 268/15/67
f 270/19/68 272/18/68 269/16/68
f 273/26/69 275/27/69 276/28/69
f 278/29/70 280/30/70 277/31/70
f 281/7/71 283/8/71 284/9/71
f 286/10/72 288/11/72 285/12/72
f 289/1/73 291/2/73 292/3/73
f 293/4/74 295/5/74 296/6/74
f 297/13/75 299/14/75 300/15/75
f 302/19/76 304/18/76 301/16/76
f 305/1/77 307/2/77 308/3/77
f 309/4/78 311/5/78 312/6/78
f 314/44/79 316/45/79 313/46/79
f 317/47/80 319/48/80 320/49/80
f 321/1/81 323/2/81 324/3/81
f 325/4/82 327/5/82 328/6/82
f 329/26/83 331/27/83 332/28/83
f 334/29/84 336/30/84 333/31/84
f 337/1/85 339/2/85 340/3/85
f 341/4/86 343/5/86 344/6/86
f 345/1/87 347/2/87 348/3/87
f 349/4/88 351/5/88 352/6/88
f 353/7/89 355/8/89 356/9/89
f 358/10/90 360/11/90 357/12/90
f 361/7/91 363/8/91 364/9/91
f 366/10/92 368/11/92 365/12/92
f 369/1/93 371/2/93 372/3/93
f 373/4/94 375/5/94 376/6/94
f 377/7/95 379/8/95 380/9/95
f 382/10/96 384/11/96 381/12/96
f 385/13/97 387/14/97 388/15/97
f 390/19/98 392/18/98 389/16/98
f 393/20/99 395/21/99 396/22/99
f 397/23/100 399/24/100 400/25/100
f 401/26/101 403/27/101 404/28/101
f 406/29/102 408/30/102 405/31/102
f 409/1/103 411/2/103 412/3/103
f 413/4/104 415/5/104 416/6/104
f 417/13/105 419/14/105 420/15/105
f 422/19/106 424/18/106 421/16/106
f 425/13/107 427/14/107 428/15/107
f 429/16/108 431/17/108 432/18/108
f 433/13/109 435/14/109 436/15/109
f 438/19/110 440/18/110 437/16/110
f 441/13/111 443/14/111 444/15/111
f 446/19/112 448/18/112 445/16/112
f 449/7/113 451/8/113 452/9/113
f 454/10/114 456/11/114 453/12/114
f 457/13/115 459/14/115 460/15/115
f 462/19/116 464/18/116 461/16/116
f 465/26/117 467/27/117 468/28/117
f 470/29/118 472/30/118 469/31/118
f 473/26/119 475/27/119 476/28/119
f 478/29/120 480/30/120 477/31/120
f 481/1/121 483/2/121 484/3/121
f 485/4/122 487/5/122 488/6/122
f 489/1/123 491/2/123 492/3/123
f 493/4/124 495/5/124 496/6/124
f 497/1/125 499/2/125 500/3/125
f 501/4/126 503/5/126 504/6/126
f 505/7/127 507/8/127 508/9/127
f 510/10/128 512/11/128 509/12/128
f 513/26/129 515/27/129 516/28/129
f 518/29/130 520/30/130 517/31/130
f 521/1/131 523/2/131 524/3/131
f 525/4/132 527/5/132 528/6/132
f 529/1/133 531/2/133 532/3/133
f 533/4/134 535/5/134 536/6/134
f 537/13/135 539/14/135 540/15/135
f 542/19/136 544/18/136 541/16/136
f 545/7/137 547/8/137 548/9/137
f 550/10/138 552/11/138 549/12/138
f 553/26/139 555/27/139 556/28/139
f 558/29/140 560/30/140 557/31/140
f 561/7/141 563/8/141 564/9/141
f 566/10/142 568/11/142 565/12/142
f 569/26/143 571/27/143 572/28/143
f 574/29/144 576/30/144 573/31/144
f 577/7/145 579/8/145 580/9/145
f 582/10/146 584/11/146 581/12/146
f 585/7/147 587/8/147 588/9/147
f 590/10/148 592/11/148 589/12/148
f 594/38/149 596/39/149 593/40/149
f 597/41/150 599/42/150 600/43/150
f 601/1/151 603/2/151 604/3/151
f 605/4/152 607/5/152 608/6/152
f 609/26/153 611/27/153 612/28/153
f 614/29/154 616/30/154 613/31/154
f 617/13/155 619/14/155 620/15/155
f 622/19/156 624/18/156 621/16/156
f 625/13/152 627/14/152 628/15/152
f 630/19/157 632/18/157 629/16/157
f 633/1/158 635/2/158 636/3/158
f 637/4/159 639/5/159 640/6/159
f 641/7/160 643/8/160 644/9/160
f 646/10/161 648/11/161 645/12/161
f 649/13/162 651/14/162 652/15/162
f 654/19/163 656/18/163 653/16/163
f 657/46/164 659/50/164 660/45/164
f 661/47/165 663/48/165 664/49/165
f 665/13/166 667/14/166 668/15/166
f 669/16/167 671/17/167 672/18/167
f 673/20/168 675/21/168 676/22/168
f 677/23/169 679/24/169 680/25/169
f 681/13/170 683/14/170 684/15/170
f 686/19/171 688/18/171 685/16/171
f 689/7/172 691/8/172 692/9/172
f 694/10/173 696/11/173 693/12/173
f 697/1/174 699/2/174 700/3/174
f 701/4/175 703/5/175 704/6/175
f 705/1/176 707/2/176 708/3/176
f 709/4/177 711/5/177 712/6/177
f 713/7/178 715/8/178 716/9/178
f 718/10/179 720/11/179 717/12/179
f 721/7/180 723/8/180 724/9/180
f 726/10/181 728/11/181 725/12/181
f 729/1/182 731/2/182 732/3/182
f 733/4/183 735/5/183 736/6/183
f 737/13/184 739/14/184 740/15/184
f 741/16/185 743/17/185 744/18/185
f 746/38/186 748/39/186 745/40/186
f 749/41/187 751/42/187 752/43/187
f 753/7/188 755/8/188 756/9/188
f 758/10/189 760/11/189 757/12/189
f 761/26/190 763/27/190 764/28/190
f 766/29/191 768/30/191 765/31/191
f 769/13/192 771/14/192 772/15/192
f 774/19/193 776/18/193 773/16/193
f 777/13/194 779/14/194 780/15/194
f 782/19/195 784/18/195 781/16/195
f 785/1/196 787/2/196 788/3/196
f 789/4/197 791/5/197 792/6/197
f 793/26/198 795/27/198 796/28/198
f 798/29/199 800/30/199 797/31/199
f 801/7/200 803/8/200 804/9/200
f 806/10/201 808/11/201 805/12/201
f 809/7/202 811/8/202 812/9/202
f 814/10/203 816/11/203 813/12/203
f 817/26/204 819/27/204 820/28/204
f 822/29/205 824/30/205 821/31/205
f 826/44/206 828/45/206 825/46/206
f 829/47/207 831/48/207 832/49/207
f 1/1/1 2/51/1 3/2/1
f 5/4/2 6/52/2 7/5/2
f 9/7/3 10/53/3 11/8/3
f 14/10/4 15/54/4 16/11/4
f 17/13/5 18/55/5 19/14/5
f 21/16/6 22/19/6 23/17/6
f 25/1/7 26/51/7 27/2/7
f 29/4/8 30/52/8 31/5/8
f 33/1/9 34/51/9 35/2/9
f 37/4/10 38/52/10 39/5/10
f 41/1/11 42/51/11 43/2/11
f 45/4/12 46/52/12 47/5/12
f 49/13/13 50/55/13 51/14/13
f 54/19/14 55/17/14 56/18/14
f 57/13/15 58/55/15 59/14/15
f 61/16/16 62/19/16 63/17/16
f 65/7/17 66/53/17 67/8/17
f 70/10/18 71/54/18 72/11/18
f 73/20/19 74/56/19 75/21/19
f 77/23/20 78/57/20 79/24/20
f 81/7/21 82/53/21 83/8/21
f 86/10/208 87/54/208 88/11/208
f 89/13/23 90/55/23 91/14/23
f 94/19/24 95/17/24 96/18/24
f 97/13/25 98/55/25 99/14/25
f 101/16/26 102/19/26 103/17/26
f 105/26/27 106/58/27 107/27/27
f 110/29/28 111/59/28 112/30/28
f 113/7/29 114/53/29 115/8/29
f 118/10/30 119/54/30 120/11/30
f 122/32/31 123/60/31 124/33/31
f 126/35/32 127/61/32 128/36/32
f 129/13/33 130/55/33 131/14/33
f 134/19/209 135/17/209 136/18/209
f 137/1/35 138/51/35 139/2/35
f 141/4/36 142/52/36 143/5/36
f 145/7/37 146/53/37 147/8/37
f 150/10/38 151/54/38 152/11/38
f 153/7/39 154/53/39 155/8/39
f 158/10/40 159/54/40 160/11/40
f 161/26/41 162/58/41 163/27/41
f 166/29/42 167/59/42 168/30/42
f 169/26/43 170/58/43 171/27/43
f 174/29/44 175/59/44 176/30/44
f 177/1/45 178/51/45 179/2/45
f 181/4/46 182/52/46 183/5/46
f 185/26/210 186/58/210 187/27/210
f 190/29/48 191/59/48 192/30/48
f 193/7/49 194/53/49 195/8/49
f 198/10/50 199/54/50 200/11/50
f 201/7/51 202/53/51 203/8/51
f 206/10/52 207/54/52 208/11/52
f 209/1/53 210/51/53 211/2/53
f 213/4/54 214/52/54 215/5/54
f 217/13/55 218/55/55 219/14/55
f 222/19/56 223/17/56 224/18/56
f 225/1/57 226/51/57 227/2/57
f 229/4/211 230/52/211 231/5/211
f 233/1/59 234/51/59 235/2/59
f 237/4/60 238/52/60 239/5/60
f 241/26/61 242/58/61 243/27/61
f 246/29/62 247/59/62 248/30/62
f 249/13/63 250/55/63 251/14/63
f 254/19/64 255/17/64 256/18/64
f 258/38/65 259/62/65 260/39/65
f 261/41/66 262/63/66 263/42/66
f 265/13/67 266/55/67 267/14/67
f 270/19/68 271/17/68 272/18/68
f 273/26/69 274/58/69 275/27/69
f 278/29/70 279/59/70 280/30/70
f 281/7/71 282/53/71 283/8/71
f 286/10/72 287/54/72 288/11/72
f 289/1/73 290/51/73 291/2/73
f 293/4/74 294/52/74 295/5/74
f 297/13/75 298/55/75 299/14/75
f 302/19/76 303/17/76 304/18/76
f 305/1/77 306/51/77 307/2/77
f 309/4/78 310/52/78 311/5/78
f 314/44/79 315/50/79 316/45/79
f 317/47/80 318/64/80 319/48/80
f 321/1/81 322/51/81 323/2/81
f 325/4/212 326/52/212 327/5/212
f 329/26/83 330/58/83 331/27/83
f 334/29/84 335/59/84 336/30/84
f 337/1/85 338/51/85 339/2/85
f 341/4/86 342/52/86 343/5/86
f 345/1/87 346/51/87 347/2/87
f 349/4/88 350/52/88 351/5/88
f 353/7/89 354/53/89 355/8/89
f 358/10/90 359/54/90 360/11/90
f 361/7/91 362/53/91 363/8/91
f 366/10/92 367/54/92 368/11/92
f 369/1/93 370/51/93 371/2/93
f 373/4/94 374/52/94 375/5/94
f 377/7/95 378/53/95 379/8/95
f 382/10/96 383/54/96 384/11/96
f 385/13/97 386/55/97 387/14/97
f 390/19/98 391/17/98 392/18/98
f 393/20/99 394/56/99 395/21/99
f 397/23/100 398/57/100 399/24/100
f 401/26/101 402/58/101 403/27/101
f 406/29/102 407/59/102 408/30/102
f 409/1/103 410/51/103 411/2/103
f 413/4/104 414/52/104 415/5/104
f 417/13/105 418/55/105 419/14/105
f 422/19/106 423/17/106 424/18/106
f 425/13/107 426/55/107 427/14/107
f 429/16/108 430/19/108 431/17/108
f 433/13/109 434/55/109 435/14/109
f 438/19/110 439/17/110 440/18/110
f 441/13/111 442/55/111 443/14/111
f 446/19/112 447/17/112 448/18/112
f 449/7/113 450/53/113 451/8/113
f 454/10/114 455/54/114 456/11/114
f 457/13/115 458/55/115 459/14/115
f 462/19/116 463/17/116 464/18/116
f 465/26/117 466/58/117 467/27/117
f 470/29/118 471/59/118 472/30/118
f 473/26/119 474/58/119 475/27/119
f 478/29/120 479/59/120 480/30/120
f 481/1/121 482/51/121 483/2/121
f 485/4/122 486/52/122 487/5/122
f 489/1/123 490/51/123 491/2/123
f 493/4/124 494/52/124 495/5/124
f 497/1/125 498/51/125 499/2/125
f 501/4/126 502/52/126 503/5/126
f 505/7/127 506/53/127 507/8/127
f 510/10/128 511/54/128 512/11/128
f 513/26/129 514/58/129 515/27/129
f 518/29/130 519/59/130 520/30/130
f 521/1/131 522/51/131 523/2/131
f 525/4/132 526/52/132 527/5/132
f 529/1/133 530/51/133 531/2/133
f 533/4/134 534/52/134 535/5/134
f 537/13/135 538/55/135 539/14/135
f 542/19/136 543/17/136 544/18/136
f 545/7/137 546/53/137 547/8/137
f 550/10/138 551/54/138 552/11/138
f 553/26/139 554/58/139 555/27/139
f 558/29/213 559/59/213 560/30/213
f 561/7/141 562/53/141 563/8/141
f 566/10/214 567/54/214 568/11/214
f 569/26/215 570/58/215 571/27/215
f 574/29/216 575/59/216 576/30/216
f 577/7/145 578/53/145 579/8/145
f 582/10/217 583/54/217 584/11/217
f 585/7/147 586/53/147 587/8/147
f 590/10/148 591/54/148 592/11/148
f 594/38/149 595/62/149 596/39/149
f 597/41/150 598/63/150 599/42/150
f 601/1/151 602/51/151 603/2/151
f 605/4/152 606/52/152 607/5/152
f 609/26/153 610/58/153 611/27/153
f 614/29/154 615/59/154 616/30/154
f 617/13/155 618/55/155 619/14/155
f 622/19/156 623/17/156 624/18/156
f 625/13/152 626/55/152 627/14/152
f 630/19/157 631/17/157 632/18/157
f 633/1/158 634/51/158 635/2/158
f 637/4/159 638/52/159 639/5/159
f 641/7/160 642/53/160 643/8/160
f 646/10/161 647/54/161 648/11/161
f 649/13/162 650/55/162 651/14/162
f 654/19/163 655/17/163 656/18/163
f 657/46/164 658/44/164 659/50/164
f 661/47/165 662/64/165 663/48/165
f 665/13/166 666/55/166 667/14/166
f 669/16/167 670/19/167 671/17/167
f 673/20/168 674/56/168 675/21/168
f 677/23/169 678/57/169 679/24/169
f 681/13/170 682/55/170 683/14/170
f 686/19/171 687/17/171 688/18/171
f 689/7/172 690/53/172 691/8/172
f 694/10/173 695/54/173 696/11/173
f 697/1/174 698/51/174 699/2/174
f 701/4/175 702/52/175 703/5/175
f 705/1/176 706/51/176 707/2/176
f 709/4/177 710/52/177 711/5/177
f 713/7/178 714/53/178 715/8/178
f 718/10/179 719/54/179 720/11/179
f 721/7/180 722/53/180 723/8/180
f 726/10/181 727/54/181 728/11/181
f 729/1/182 730/51/182 731/2/182
f 733/4/183 734/52/183 735/5/183
f 737/13/184 738/55/184 739/14/184
f 741/16/185 742/19/185 743/17/185
f 746/38/186 747/62/186 748/39/186
f 749/41/187 750/63/187 751/42/187
f 753/7/188 754/53/188 755/8/188
f 758/10/189 759/54/189 760/11/189
f 761/26/190 762/58/190 763/27/190
f 766/29/191 767/59/191 768/30/191
f 769/13/192 770/55/192 771/14/192
f 774/19/193 775/17/193 776/18/193
f 777/13/194 778/55/194 779/14/194
f 782/19/195 783/17/195 784/18/195
f 785/1/196 786/51/196 787/2/196
f 789/4/197 790/52/197 791/5/197
f 793/26/198 794/58/198 795/27/198
f 798/29/199 799/59/199 800/30/199
f 801/7/200 802/53/200 803/8/200
f 806/10/201 807/54/201 808/11/201
f 809/7/202 810/53/202 811/8/202
f 814/10/203 815/54/203 816/11/203
f 817/26/204 818/58/204 819/27/204
f 822/29/205 823/59/205 824/30/205
f 826/44/206 827/50/206 828/45/206
f 829/47/207 830/64/207 831/48/207
