mtllib grass_05_03_b2.mtl
usemtl grass_05_03_b2
# Blender 5.1.1
# www.blender.org
o grass_05_03_b2
v -13.337948 14.499910 -0.102331
v -13.496045 14.334670 -0.102331
v -13.515075 14.314780 -0.002762
v -13.288299 14.551803 -0.005626
v -13.493108 14.531672 -0.102331
v -13.313810 14.360126 -0.102331
v -13.307799 14.354375 -0.018055
v -13.490482 14.529160 -0.005479
v -14.413125 14.493658 0.169401
v -14.376103 14.684212 0.169401
v -14.381682 14.655499 0.322985
v -14.428907 14.412427 0.275748
v -14.486974 14.565920 0.169401
v -14.526869 14.573671 0.288070
v -14.326019 14.534650 0.325708
v -14.324528 14.534360 0.169401
v -14.800897 12.987832 0.028693
v -14.697097 12.863039 0.028693
v -14.712737 12.881843 0.142801
v -14.845145 13.041031 0.107706
v -14.715032 12.997417 0.028693
v -14.688905 13.019149 0.116861
v -14.820441 12.909741 0.144824
v -14.821419 12.908928 0.028693
v -13.083757 15.359235 -0.095449
v -12.850153 15.302377 -0.095449
v -12.794765 15.288896 0.017446
v -13.023891 15.344664 0.017446
v -12.947956 15.223519 -0.095498
v -12.895926 15.437284 -0.095498
v -12.892592 15.450985 0.029407
v -12.939114 15.259850 0.018150
vn -0.7225 0.6913 -0.0000
vn -0.6913 -0.7225 -0.0000
vn 0.9816 -0.1907 -0.0000
vn 0.1907 0.9816 -0.0000
vn -0.7688 -0.6395 -0.0000
vn 0.6395 -0.7688 -0.0000
vn -0.2365 -0.9716 -0.0000
vn 0.9716 -0.2365 -0.0000
vn -0.7226 0.6913 -0.0000
vn -0.6913 -0.7226 -0.0000
vt 0.574736 0.000000
vt 0.727477 0.180119
vt 0.531923 0.174939
vt 0.943005 0.000000
vt 0.797243 0.175205
vt 0.795077 0.000000
vt 0.587516 0.250000
vt 0.696219 0.438742
vt 0.532955 0.380692
vt 0.931885 0.250000
vt 0.823776 0.442088
vt 0.822774 0.250000
vt 0.683200 0.750259
vt 0.546949 0.843491
vt 0.500000 0.750259
vt 0.966633 0.750219
vt 0.827483 0.844072
vt 0.798992 0.750219
vt 0.711067 0.000000
vt 0.947964 0.152455
vt 0.715504 0.250000
vt 0.958681 0.395835
vt 0.726638 0.843491
vt 0.977378 0.853368
s 0
f 1/1/1 3/2/1 4/3/1
f 6/4/2 8/5/2 5/6/2
f 9/7/3 11/8/3 12/9/3
f 13/10/4 15/11/4 16/12/4
f 17/7/5 19/8/5 20/9/5
f 21/10/6 23/11/6 24/12/6
f 26/13/7 28/14/7 25/15/7
f 30/16/8 32/17/8 29/18/8
f 1/1/9 2/19/9 3/2/9
f 6/4/10 7/20/10 8/5/10
f 9/7/3 10/21/3 11/8/3
f 13/10/4 14/22/4 15/11/4
f 17/7/5 18/21/5 19/8/5
f 21/10/6 22/22/6 23/11/6
f 26/13/7 27/23/7 28/14/7
f 30/16/8 31/24/8 32/17/8
