mtllib grass_02_03_b2.mtl
usemtl grass_02_03_b2
# Blender 5.1.1
# www.blender.org
o grass_02_03_b2
v 12.293847 11.973662 0.697141
v 12.375511 12.152171 0.697141
v 12.363206 12.125274 0.812457
v 12.259034 11.897566 0.776990
v 12.238426 12.062239 0.697141
v 12.201053 12.079335 0.786242
v 12.389207 11.993259 0.814501
v 12.390605 11.992620 0.697141
v 14.468985 9.824862 -0.105348
v 14.581206 9.562259 -0.105348
v 14.607815 9.499994 -0.020663
v 14.497745 9.757565 -0.020663
v 14.436604 9.599125 -0.105385
v 14.676905 9.701816 -0.105385
v 14.692307 9.708397 -0.011691
v 14.477444 9.616577 -0.020134
v 14.223230 14.286139 0.876156
v 14.397328 14.378114 0.876156
v 14.418284 14.389185 0.962446
v 14.168556 14.257257 0.959964
v 14.341338 14.217985 0.876156
v 14.241539 14.406894 0.876156
v 14.238194 14.413227 0.949193
v 14.339876 14.220753 0.960092
v 15.336616 3.719785 -1.396861
v 15.496892 3.690267 -1.396861
v 15.472742 3.694714 -1.303169
v 15.268291 3.732368 -1.331985
v 15.396676 3.782375 -1.396861
v 15.402856 3.815931 -1.324468
v 15.371742 3.646994 -1.301508
v 15.371511 3.645739 -1.396861
v 14.554532 6.800399 -0.692455
v 14.758275 6.748955 -0.692455
v 14.782800 6.742763 -0.509386
v 14.490549 6.816555 -0.514651
v 14.599491 6.661989 -0.692455
v 14.655312 6.883064 -0.692455
v 14.657183 6.890475 -0.537504
v 14.600309 6.665226 -0.514381
v 12.931542 13.762843 0.986301
v 12.948451 13.752616 1.241618
v 12.812602 13.834784 1.177171
v 12.766371 13.862746 0.986301
v 12.782741 13.668551 0.986301
v 12.886189 13.839583 0.986301
v 12.921103 13.897306 1.210613
v 12.800145 13.697327 1.194366
v 12.929232 13.800724 0.952783
v 13.072353 13.685279 0.952783
v 13.096517 13.665789 1.030992
v 12.904606 13.820587 1.046039
v 12.940610 13.663713 0.952724
v 13.080472 13.837106 0.952724
v 13.028236 13.772346 1.062766
v 12.930513 13.651195 1.029339
v 14.840068 12.254305 0.595009
v 14.792651 12.308734 0.431046
v 14.639862 12.484117 0.431046
v 14.582303 12.550187 0.595009
v 14.776803 12.488570 0.430984
v 14.611277 12.344368 0.430984
v 14.543921 12.285690 0.602146
v 14.793037 12.502713 0.613371
v 12.324862 3.707683 -0.992829
v 12.386824 3.667333 -1.085189
v 12.586478 3.537314 -1.085189
v 12.661693 3.488333 -0.992829
v 12.452798 3.494578 -1.085224
v 12.575510 3.683012 -1.085224
v 12.625443 3.759689 -0.988809
v 12.440763 3.476098 -0.982486
v 13.629602 9.427169 -0.047438
v 13.621142 9.449787 0.065632
v 13.689113 9.268064 0.037090
v 13.712244 9.206222 -0.047438
v 13.843715 9.404802 -0.047438
v 13.614926 9.319227 -0.047438
v 13.537711 9.290346 0.051901
v 13.805222 9.390405 0.044705
v 15.474364 14.991216 0.849016
v 15.497690 14.982992 0.995495
v 15.310284 15.049066 0.958521
v 15.246508 15.071551 0.849016
v 15.316048 14.837755 0.849016
v 15.399235 15.073698 0.849016
v 15.427310 15.153329 0.977707
v 15.330044 14.877452 0.968386
v 13.208727 13.827127 0.954822
v 13.084135 13.994343 0.954822
v 13.102908 13.969148 1.095589
v 13.261840 13.755845 1.052295
v 13.097919 13.820725 0.954822
v 13.062910 13.794641 1.063588
v 13.239161 13.925964 1.098085
v 13.240470 13.926940 0.954822
v 14.377016 12.130389 0.435487
v 14.407350 12.132329 0.568683
v 14.163642 12.116743 0.535061
v 14.080706 12.111439 0.435487
v 14.271962 11.880620 0.435487
v 14.252339 12.187446 0.435487
v 14.245716 12.290998 0.552508
v 14.268661 11.932242 0.544032
v 12.424462 5.460535 -0.673721
v 12.468457 5.679627 -0.673721
v 12.461828 5.646614 -0.511816
v 12.405708 5.367138 -0.561612
v 12.339972 5.544255 -0.673721
v 12.294103 5.553465 -0.548622
v 12.525032 5.507093 -0.508945
v 12.526748 5.506749 -0.673721
v 12.235838 6.033909 -0.554365
v 12.262923 5.858430 -0.554365
v 12.258842 5.884871 -0.409538
v 12.224292 6.108715 -0.454081
v 12.321763 5.994554 -0.554365
v 12.358501 6.000225 -0.442462
v 12.173540 5.971676 -0.406971
v 12.172166 5.971464 -0.554365
v 15.658814 4.996618 -1.187371
v 15.857380 4.922982 -1.187371
v 15.827460 4.934077 -1.083612
v 15.574166 5.028008 -1.115524
v 15.749696 5.063305 -1.187371
v 15.765113 5.104877 -1.107200
v 15.687498 4.895582 -1.081772
v 15.686921 4.894027 -1.187371
v 14.037083 13.058625 0.789128
v 14.087082 13.096685 0.658641
v 14.248192 13.219322 0.658641
v 14.308887 13.265522 0.789128
v 14.244196 13.100121 0.658591
v 14.128450 13.252177 0.658591
v 14.081352 13.314052 0.794808
v 14.255548 13.085208 0.803742
v 13.479582 5.473304 -0.798235
v 13.413968 5.628692 -0.798235
v 13.406070 5.647396 -0.686597
v 13.500188 5.424506 -0.689807
v 13.546486 5.569060 -0.798235
v 13.377880 5.497864 -0.798235
v 13.372228 5.495477 -0.703743
v 13.544017 5.568017 -0.689643
v 15.231983 5.472119 -1.050229
v 15.209656 5.253058 -1.050229
v 15.205886 5.216074 -0.967838
v 15.235825 5.509811 -0.951987
v 15.101927 5.371171 -1.050291
v 15.367320 5.344122 -1.050291
v 15.268201 5.354224 -0.934365
v 15.082767 5.373124 -0.969579
v 15.253573 12.244678 0.296531
v 15.241807 12.258990 0.447202
v 15.336346 12.144008 0.409169
v 15.368518 12.104877 0.296531
v 15.414536 12.281710 0.296531
v 15.269774 12.162686 0.296531
v 15.220918 12.122517 0.428904
v 15.390182 12.261684 0.419317
v 12.267852 8.790834 0.046677
v 12.293500 8.785297 0.211133
v 12.087437 8.829788 0.169621
v 12.017311 8.844930 0.046677
v 12.121745 8.608169 0.046677
v 12.177759 8.867600 0.046677
v 12.196664 8.955158 0.191162
v 12.131169 8.651817 0.180696
v 13.161295 15.761405 1.399472
v 13.219406 15.743982 1.307311
v 13.406654 15.687845 1.307311
v 13.477195 15.666697 1.399472
v 13.311318 15.623268 1.307276
v 13.364302 15.799993 1.307276
v 13.385861 15.871904 1.403484
v 13.306122 15.605935 1.409793
v 15.645283 11.364577 0.089632
v 15.463569 11.342868 0.089632
v 15.490949 11.346139 0.208403
v 15.722747 11.373832 0.171874
v 15.601712 11.277456 0.089632
v 15.606257 11.239411 0.181403
v 15.583375 11.430945 0.210509
v 15.583205 11.432368 0.089632
v 15.214103 10.510347 -0.018009
v 15.316609 10.680873 -0.018009
v 15.328948 10.701400 0.096802
v 15.181911 10.456795 0.093501
v 15.351866 10.513124 -0.018009
v 15.166833 10.624352 -0.018009
v 15.160630 10.628079 0.079168
v 15.349156 10.514753 0.093670
v 15.695564 11.307508 0.055698
v 15.603945 11.116632 0.055698
v 15.592916 11.093657 0.181120
v 15.724337 11.367451 0.177513
v 15.549885 11.290846 0.055698
v 15.756999 11.191432 0.055698
v 15.763942 11.188099 0.161857
v 15.552918 11.289390 0.177698
v 13.292350 9.293108 0.062534
v 13.283238 9.245993 -0.031476
v 13.253879 9.094175 -0.031476
v 13.242818 9.036983 0.062534
v 13.195506 9.164097 -0.031511
v 13.338791 9.136388 -0.031511
v 13.397097 9.125112 0.066626
v 13.181453 9.166815 0.073062
v 15.824248 15.751789 0.912190
v 15.962637 15.696744 0.912190
v 15.979295 15.690118 1.072706
v 15.780789 15.769075 1.068090
v 15.843000 15.650365 0.912190
v 15.902729 15.800526 0.912190
v 15.904731 15.805560 1.048052
v 15.843876 15.652564 1.068327
v 15.741615 15.670480 0.913694
v 15.670271 15.537609 0.913694
v 15.658225 15.515177 0.993823
v 15.753891 15.693342 1.009238
v 15.632906 15.640528 0.913634
v 15.793880 15.554093 0.913634
v 15.733759 15.586375 1.026376
v 15.621284 15.646768 0.992129
v 15.237391 9.400149 -0.264680
v 15.356246 9.274275 -0.264680
v 15.370553 9.259123 -0.151698
v 15.200066 9.439679 -0.154947
v 15.207418 9.284062 -0.264680
v 15.344002 9.413029 -0.264680
v 15.348580 9.417352 -0.169051
v 15.209418 9.285952 -0.154781
v 14.526327 15.161885 1.010071
v 14.408392 15.076812 1.010071
v 14.394196 15.066571 1.101769
v 14.563363 15.188602 1.099132
v 14.432971 15.199659 1.010071
v 14.525282 15.071691 1.010071
v 14.528377 15.067401 1.087685
v 14.434323 15.197784 1.099267
v 12.398576 13.292200 0.972707
v 12.238914 13.476016 0.972707
v 12.219695 13.498142 1.146561
v 12.448716 13.234474 1.141561
v 12.447472 13.453572 0.972707
v 12.248018 13.280328 0.972707
v 12.241332 13.274520 1.119859
v 12.444551 13.451035 1.141818
v 15.269034 6.990923 -0.735487
v 15.491321 7.101154 -0.735487
v 15.509689 7.110263 -0.657280
v 15.245200 6.979104 -0.611641
v 15.417813 6.944792 -0.735437
v 15.312999 7.156155 -0.735437
v 15.340384 7.100933 -0.647203
v 15.434167 6.911814 -0.634636
v 15.572165 6.033367 -0.863900
v 15.633926 6.042263 -0.978841
v 15.832933 6.070929 -0.978841
v 15.907905 6.081728 -0.863900
v 15.771932 5.969413 -0.978885
v 15.744877 6.157236 -0.978885
v 15.733869 6.233664 -0.858897
v 15.774585 5.950992 -0.851028
v 12.204843 15.838005 1.521602
v 12.238665 16.013552 1.521602
v 12.233568 15.987101 1.731532
v 12.190425 15.763170 1.666965
v 12.136726 15.904450 1.521602
v 12.099974 15.911531 1.683808
v 12.285006 15.875882 1.735254
v 12.286381 15.875617 1.521602
v 12.511772 4.526492 -0.898046
v 12.480277 4.376948 -0.898046
v 12.485023 4.399481 -0.763253
v 12.525199 4.590242 -0.804710
v 12.569014 4.468696 -0.898046
v 12.600323 4.462102 -0.793896
v 12.442698 4.495300 -0.760863
v 12.441526 4.495546 -0.898046
v 13.407305 14.721346 1.096906
v 13.536929 14.849384 1.096906
v 13.556732 14.868945 1.180534
v 13.403897 14.717979 1.197648
v 13.522905 14.752065 1.096893
v 13.403981 14.872460 1.096893
v 13.403981 14.872460 1.182555
v 13.528750 14.746147 1.198932
v 12.048286 8.216166 -0.075642
v 12.230886 8.117023 -0.075642
v 12.203372 8.131962 0.024843
v 11.970445 8.258430 -0.006062
v 12.145829 8.268287 -0.075642
v 12.166586 8.306517 0.002000
v 12.062086 8.114050 0.026625
v 12.061310 8.112619 -0.075642
v 15.735480 6.271955 -0.803573
v 15.723670 6.225439 -0.957402
v 15.685616 6.075553 -0.957402
v 15.671281 6.019088 -0.803573
v 15.631362 6.148725 -0.957460
v 15.772824 6.112809 -0.957460
v 15.830388 6.098195 -0.796877
v 15.617489 6.152247 -0.786345
v 15.628980 12.360579 0.257772
v 15.620158 12.385883 0.398134
v 15.691037 12.182583 0.362703
v 15.715158 12.113398 0.257772
v 15.865963 12.330430 0.257772
v 15.610009 12.241194 0.257772
v 15.523625 12.211077 0.381088
v 15.822900 12.315416 0.372156
v 12.893180 3.710620 -1.089966
v 12.715819 3.843238 -1.089966
v 12.742544 3.823255 -0.966768
v 12.968788 3.654086 -1.004659
v 12.782294 3.670632 -1.089966
v 12.754529 3.633499 -0.994775
v 12.894313 3.820444 -0.964584
v 12.895351 3.821832 -1.089966
v 12.956967 9.988351 0.351385
v 12.986929 10.043543 0.205220
v 13.083473 10.221384 0.205220
v 13.119843 10.288381 0.351385
v 13.128714 10.111105 0.205165
v 12.960867 10.202223 0.205165
v 12.892568 10.239301 0.357747
v 13.145175 10.102169 0.367754
v 12.864277 3.913471 -1.048639
v 12.679503 3.976918 -1.048639
v 12.707345 3.967358 -0.911416
v 12.943044 3.886424 -0.953620
v 12.781962 3.849930 -1.048639
v 12.768679 3.811245 -0.942611
v 12.835554 4.006002 -0.908983
v 12.836051 4.007450 -1.048639
v 15.700173 4.904387 -1.214328
v 15.674289 4.907673 -1.089253
v 15.882250 4.881265 -1.120824
v 15.953022 4.872277 -1.214328
v 15.829259 5.097881 -1.214328
v 15.796010 4.836060 -1.214328
v 15.784789 4.747695 -1.104442
v 15.823665 5.053831 -1.112401
v 14.830809 7.377135 -0.621729
v 14.976319 7.163069 -0.621729
v 14.993834 7.137301 -0.504935
v 14.785111 7.444361 -0.508294
v 14.758961 7.212905 -0.621729
v 14.991239 7.370796 -0.621729
v 14.999025 7.376089 -0.522874
v 14.762362 7.215218 -0.508122
vn 0.9094 -0.4160 -0.0000
vn 0.4160 0.9094 -0.0000
vn -0.9196 -0.3930 -0.0000
vn 0.3930 -0.9196 -0.0000
vn 0.4671 -0.8842 -0.0000
vn 0.8842 0.4671 -0.0000
vn -0.1811 -0.9835 -0.0000
vn 0.9835 -0.1811 -0.0000
vn -0.2448 -0.9696 -0.0000
vn 0.9696 -0.2448 -0.0000
vn -0.5175 -0.8557 -0.0000
vn 0.8557 -0.5175 -0.0000
vn -0.6278 -0.7784 -0.0000
vn 0.7784 -0.6278 -0.0000
vn 0.7540 0.6569 -0.0000
vn -0.6569 0.7540 -0.0000
vn -0.5457 -0.8380 -0.0000
vn 0.8380 -0.5457 -0.0000
vn 0.9366 0.3503 -0.0000
vn -0.3503 0.9366 -0.0000
vn -0.3325 -0.9431 -0.0000
vn 0.9431 -0.3325 -0.0000
vn 0.8019 0.5975 -0.0000
vn -0.5975 0.8019 -0.0000
vn 0.0638 -0.9980 -0.0000
vn 0.9980 0.0638 -0.0000
vn 0.9804 -0.1969 -0.0000
vn 0.1969 0.9804 -0.0000
vn -0.9883 -0.1525 -0.0000
vn 0.1525 -0.9883 -0.0000
vn -0.3477 -0.9376 -0.0000
vn 0.9376 -0.3477 -0.0000
vn 0.6057 -0.7957 -0.0000
vn 0.7957 0.6057 -0.0000
vn 0.9212 0.3890 -0.0000
vn -0.3890 0.9212 -0.0000
vn -0.9948 0.1014 -0.0000
vn -0.1014 -0.9948 -0.0000
vn 0.7724 0.6351 -0.0000
vn -0.6351 0.7724 -0.0000
vn -0.2110 -0.9775 -0.0000
vn 0.9775 -0.2111 -0.0000
vn -0.2872 -0.9579 -0.0000
vn 0.9579 -0.2872 -0.0000
vn -0.1186 0.9929 -0.0000
vn -0.9929 -0.1186 -0.0000
vn 0.8571 -0.5152 -0.0000
vn 0.5152 0.8571 -0.0000
vn -0.9015 0.4327 -0.0000
vn -0.4327 -0.9015 -0.0000
vn -0.9818 0.1899 -0.0000
vn -0.1899 -0.9818 -0.0000
vn -0.3696 -0.9292 -0.0000
vn 0.9292 -0.3696 -0.0000
vn -0.8810 0.4731 -0.0000
vn -0.4731 -0.8810 -0.0000
vn -0.7271 -0.6865 -0.0000
vn 0.6865 -0.7271 -0.0000
vn -0.5850 0.8110 -0.0000
vn -0.8110 -0.5850 -0.0000
vn 0.7550 0.6558 -0.0000
vn -0.6558 0.7550 -0.0000
vn 0.4443 -0.8959 -0.0000
vn 0.8959 0.4443 -0.0000
vn 0.1426 -0.9898 -0.0000
vn 0.9898 0.1426 -0.0000
vn 0.9819 -0.1892 -0.0000
vn 0.1892 0.9819 -0.0000
vn -0.9785 0.2061 -0.0000
vn -0.2061 -0.9785 -0.0000
vn 0.7027 -0.7114 -0.0000
vn 0.7114 0.7027 -0.0000
vn -0.4772 -0.8788 -0.0000
vn 0.8788 -0.4772 -0.0000
vn -0.9692 0.2461 -0.0000
vn -0.2461 -0.9692 -0.0000
vn 0.9443 0.3292 -0.0000
vn -0.3292 0.9443 -0.0000
vn 0.5988 0.8009 -0.0000
vn -0.8009 0.5988 -0.0000
vn 0.8788 -0.4771 -0.0000
vn 0.4771 0.8789 -0.0000
vn 0.3248 0.9458 -0.0000
vn -0.9458 0.3248 -0.0000
vn 0.1260 0.9920 -0.0000
vn -0.9920 0.1260 -0.0000
vn -0.8270 -0.5622 -0.0000
vn 0.5622 -0.8270 -0.0000
vn -0.6278 -0.7783 -0.0000
vn 0.9775 -0.2110 -0.0000
vn -0.9693 0.2461 -0.0000
vn -0.2461 -0.9693 -0.0000
vn 0.8789 -0.4771 -0.0000
vn 0.4771 0.8788 -0.0000
vt 0.587516 0.250000
vt 0.696219 0.438742
vt 0.532955 0.380692
vt 0.931885 0.250000
vt 0.823776 0.442088
vt 0.822774 0.250000
vt 0.683200 0.750259
vt 0.546949 0.843491
vt 0.500000 0.750259
vt 0.966633 0.750219
vt 0.827483 0.844072
vt 0.798992 0.750219
vt 0.574736 0.000000
vt 0.727477 0.180119
vt 0.531923 0.174939
vt 0.943005 0.000000
vt 0.797243 0.175205
vt 0.795077 0.000000
vt 0.947964 0.152455
vt 0.183597 0.000000
vt 0.079867 0.150378
vt 0.039548 0.000000
vt 0.406485 0.000000
vt 0.282420 0.163926
vt 0.257324 0.000000
vt 0.046190 0.750308
vt 0.224718 0.829653
vt 0.019909 0.844918
vt 0.292351 0.750248
vt 0.408285 0.861889
vt 0.278991 0.827976
vt 0.038376 0.371048
vt 0.159378 0.250046
vt 0.194166 0.371048
vt 0.420000 0.250000
vt 0.324298 0.384599
vt 0.332846 0.250000
vt 0.198931 0.750308
vt 0.548614 0.500208
vt 0.730526 0.577570
vt 0.530599 0.622715
vt 0.802250 0.500257
vt 0.920277 0.587538
vt 0.777322 0.599968
vt 0.958681 0.395835
vt 0.199407 0.500208
vt 0.021869 0.609361
vt 0.026417 0.500208
vt 0.318619 0.500194
vt 0.479294 0.593008
vt 0.310722 0.610752
vt 0.715504 0.250000
vt 0.726638 0.843491
vt 0.977378 0.853368
vt 0.711067 0.000000
vt 0.198343 0.201154
vt 0.456826 0.176726
vt 0.477396 0.750248
vt 0.067034 0.250046
vt 0.455465 0.376315
vt 0.716640 0.500208
vt 0.962020 0.500257
vt 0.225835 0.590819
vt 0.479294 0.500194
s 0
f 1/1/1 3/2/1 4/3/1
f 5/4/2 7/5/2 8/6/2
f 10/7/3 12/8/3 9/9/3
f 14/10/4 16/11/4 13/12/4
f 17/13/5 19/14/5 20/15/5
f 22/16/6 24/17/6 21/18/6
f 25/1/7 27/2/7 28/3/7
f 29/4/8 31/5/8 32/6/8
f 33/13/9 35/14/9 36/15/9
f 37/18/10 39/19/10 40/17/10
f 41/20/11 43/21/11 44/22/11
f 46/23/12 48/24/12 45/25/12
f 49/26/13 51/27/13 52/28/13
f 53/29/14 55/30/14 56/31/14
f 57/32/15 59/33/15 60/34/15
f 62/35/16 64/36/16 61/37/16
f 65/32/17 67/33/17 68/34/17
f 70/35/18 72/36/18 69/37/18
f 73/20/19 75/21/19 76/22/19
f 78/23/20 80/24/20 77/25/20
f 81/20/21 83/21/21 84/22/21
f 86/23/22 88/24/22 85/25/22
f 89/1/23 91/2/23 92/3/23
f 93/4/24 95/5/24 96/6/24
f 97/20/25 99/21/25 100/22/25
f 102/23/26 104/24/26 101/25/26
f 105/1/27 107/2/27 108/3/27
f 109/4/28 111/5/28 112/6/28
f 113/1/29 115/2/29 116/3/29
f 117/4/30 119/5/30 120/6/30
f 121/1/31 123/2/31 124/3/31
f 125/4/32 127/5/32 128/6/32
f 129/32/33 131/33/33 132/34/33
f 134/35/34 136/36/34 133/37/34
f 137/13/35 139/14/35 140/15/35
f 142/16/36 144/17/36 141/18/36
f 146/38/37 148/28/37 145/26/37
f 149/29/38 151/30/38 152/31/38
f 153/20/39 155/21/39 156/22/39
f 158/23/40 160/24/40 157/25/40
f 161/20/41 163/21/41 164/22/41
f 166/23/42 168/24/42 165/25/42
f 169/32/43 171/33/43 172/34/43
f 174/35/44 176/36/44 173/37/44
f 177/1/45 179/2/45 180/3/45
f 181/4/46 183/5/46 184/6/46
f 185/13/47 187/14/47 188/15/47
f 190/16/48 192/17/48 189/18/48
f 193/13/49 195/14/49 196/15/49
f 198/16/50 200/17/50 197/18/50
f 201/32/51 203/33/51 204/34/51
f 206/35/52 208/36/52 205/37/52
f 209/13/53 211/14/53 212/15/53
f 213/18/54 215/19/54 216/17/54
f 217/26/55 219/27/55 220/28/55
f 221/29/56 223/30/56 224/31/56
f 225/13/57 227/14/57 228/15/57
f 230/16/58 232/17/58 229/18/58
f 233/13/59 235/14/59 236/15/59
f 238/16/60 240/17/60 237/18/60
f 241/13/61 243/14/61 244/15/61
f 246/16/62 248/17/62 245/18/62
f 249/39/63 251/40/63 252/41/63
f 253/42/64 255/43/64 256/44/64
f 257/32/65 259/33/65 260/34/65
f 262/35/66 264/36/66 261/37/66
f 265/1/67 267/2/67 268/3/67
f 270/45/68 272/6/68 269/4/68
f 273/1/69 275/2/69 276/3/69
f 277/4/70 279/5/70 280/6/70
f 282/46/71 284/47/71 281/48/71
f 285/49/72 287/50/72 288/51/72
f 289/1/73 291/2/73 292/3/73
f 293/4/74 295/5/74 296/6/74
f 297/32/75 299/33/75 300/34/75
f 302/35/76 304/36/76 301/37/76
f 305/20/77 307/21/77 308/22/77
f 310/23/78 312/24/78 309/25/78
f 313/1/79 315/2/79 316/3/79
f 317/4/80 319/5/80 320/6/80
f 321/32/81 323/33/81 324/34/81
f 326/35/82 328/36/82 325/37/82
f 329/1/83 331/2/83 332/3/83
f 333/4/84 335/5/84 336/6/84
f 337/20/85 339/21/85 340/22/85
f 342/23/86 344/24/86 341/25/86
f 345/13/87 347/14/87 348/15/87
f 350/16/88 352/17/88 349/18/88
f 1/1/1 2/52/1 3/2/1
f 5/4/2 6/45/2 7/5/2
f 10/7/3 11/53/3 12/8/3
f 14/10/4 15/54/4 16/11/4
f 17/13/5 18/55/5 19/14/5
f 22/16/6 23/19/6 24/17/6
f 25/1/7 26/52/7 27/2/7
f 29/4/8 30/45/8 31/5/8
f 33/13/9 34/55/9 35/14/9
f 37/18/10 38/16/10 39/19/10
f 41/20/11 42/56/11 43/21/11
f 46/23/12 47/57/12 48/24/12
f 49/26/89 50/38/89 51/27/89
f 53/29/14 54/58/14 55/30/14
f 57/32/15 58/59/15 59/33/15
f 62/35/16 63/60/16 64/36/16
f 65/32/17 66/59/17 67/33/17
f 70/35/18 71/60/18 72/36/18
f 73/20/19 74/56/19 75/21/19
f 78/23/20 79/57/20 80/24/20
f 81/20/21 82/56/21 83/21/21
f 86/23/22 87/57/22 88/24/22
f 89/1/23 90/52/23 91/2/23
f 93/4/24 94/45/24 95/5/24
f 97/20/25 98/56/25 99/21/25
f 102/23/26 103/57/26 104/24/26
f 105/1/27 106/52/27 107/2/27
f 109/4/28 110/45/28 111/5/28
f 113/1/29 114/52/29 115/2/29
f 117/4/30 118/45/30 119/5/30
f 121/1/31 122/52/31 123/2/31
f 125/4/32 126/45/32 127/5/32
f 129/32/33 130/59/33 131/33/33
f 134/35/34 135/60/34 136/36/34
f 137/13/35 138/55/35 139/14/35
f 142/16/36 143/19/36 144/17/36
f 146/38/37 147/27/37 148/28/37
f 149/29/38 150/58/38 151/30/38
f 153/20/39 154/56/39 155/21/39
f 158/23/40 159/57/40 160/24/40
f 161/20/41 162/56/41 163/21/41
f 166/23/90 167/57/90 168/24/90
f 169/32/43 170/59/43 171/33/43
f 174/35/44 175/60/44 176/36/44
f 177/1/45 178/52/45 179/2/45
f 181/4/46 182/45/46 183/5/46
f 185/13/47 186/55/47 187/14/47
f 190/16/48 191/19/48 192/17/48
f 193/13/49 194/55/49 195/14/49
f 198/16/50 199/19/50 200/17/50
f 201/32/51 202/59/51 203/33/51
f 206/35/52 207/60/52 208/36/52
f 209/13/53 210/55/53 211/14/53
f 213/18/54 214/16/54 215/19/54
f 217/26/55 218/38/55 219/27/55
f 221/29/56 222/58/56 223/30/56
f 225/13/57 226/55/57 227/14/57
f 230/16/58 231/19/58 232/17/58
f 233/13/59 234/55/59 235/14/59
f 238/16/60 239/19/60 240/17/60
f 241/13/61 242/55/61 243/14/61
f 246/16/62 247/19/62 248/17/62
f 249/39/63 250/61/63 251/40/63
f 253/42/64 254/62/64 255/43/64
f 257/32/65 258/59/65 259/33/65
f 262/35/66 263/60/66 264/36/66
f 265/1/67 266/52/67 267/2/67
f 270/45/68 271/5/68 272/6/68
f 273/1/69 274/52/69 275/2/69
f 277/4/70 278/45/70 279/5/70
f 282/46/71 283/63/71 284/47/71
f 285/49/72 286/64/72 287/50/72
f 289/1/73 290/52/73 291/2/73
f 293/4/81 294/45/81 295/5/81
f 297/32/91 298/59/91 299/33/91
f 302/35/92 303/60/92 304/36/92
f 305/20/77 306/56/77 307/21/77
f 310/23/78 311/57/78 312/24/78
f 313/1/79 314/52/79 315/2/79
f 317/4/80 318/45/80 319/5/80
f 321/32/93 322/59/93 323/33/93
f 326/35/94 327/60/94 328/36/94
f 329/1/83 330/52/83 331/2/83
f 333/4/84 334/45/84 335/5/84
f 337/20/85 338/56/85 339/21/85
f 342/23/86 343/57/86 344/24/86
f 345/13/87 346/55/87 347/14/87
f 350/16/88 351/19/88 352/17/88
