mtllib grass_01_02_b0.mtl
usemtl grass_01_02_b0
# Blender 5.1.1
# www.blender.org
o grass_01_02_b0
v 13.594275 -4.748035 0.178022
v 13.629947 -4.801928 0.069327
v 13.744884 -4.975584 0.069327
v 13.788185 -5.041004 0.178022
v 13.622824 -4.963402 0.069286
v 13.786720 -4.854923 0.069286
v 13.853412 -4.810781 0.182753
v 13.606749 -4.974041 0.190195
v 5.857763 0.544549 1.610519
v 5.868511 0.516970 1.977744
v 5.782161 0.738551 1.885048
v 5.752775 0.813958 1.610519
v 5.594972 0.568374 1.610519
v 5.873941 0.677088 1.610519
v 5.968092 0.713779 1.933149
v 5.641907 0.586665 1.909780
v 6.165707 -5.470273 -0.029221
v 6.147007 -5.503565 -0.121091
v 6.086752 -5.610841 -0.121091
v 6.064053 -5.651254 -0.029221
v 6.060214 -5.543398 -0.121126
v 6.161461 -5.600267 -0.121126
v 6.202661 -5.623407 -0.025222
v 6.050284 -5.537821 -0.018933
v 2.572288 -7.150156 -0.430528
v 2.509186 -7.170137 -0.537980
v 2.305858 -7.234521 -0.537980
v 2.229259 -7.258777 -0.430528
v 2.352163 -7.117735 -0.538021
v 2.412929 -7.309637 -0.538021
v 2.437656 -7.387725 -0.425851
v 2.346203 -7.098915 -0.418495
v 7.174700 -2.739258 0.649937
v 7.173491 -2.796887 0.567493
v 7.169592 -2.982579 0.567493
v 7.168123 -3.052533 0.649937
v 7.086277 -2.911669 0.567462
v 7.261534 -2.915348 0.567462
v 7.332848 -2.916845 0.653526
v 7.069089 -2.911308 0.659170
v 9.843910 -14.277729 -2.437115
v 9.792676 -14.511778 -2.437115
v 9.780528 -14.567271 -2.340812
v 9.830781 -14.337709 -2.340812
v 9.711848 -14.416167 -2.437157
v 9.926019 -14.463051 -2.437157
v 9.939746 -14.466055 -2.330609
v 9.748247 -14.424135 -2.340211
v 6.471711 -10.332273 -1.352629
v 6.345046 -10.251005 -1.352629
v 6.329799 -10.241223 -1.258741
v 6.511489 -10.357796 -1.261442
v 6.472654 -10.228054 -1.352629
v 6.384472 -10.365495 -1.352629
v 6.381516 -10.370102 -1.273162
v 6.471363 -10.230067 -1.261303
v 2.383719 -0.613698 1.208357
v 2.200090 -0.735062 1.208357
v 2.177986 -0.749670 1.531774
v 2.441387 -0.575585 1.522472
v 2.244868 -0.550791 1.208357
v 2.376556 -0.750043 1.208357
v 2.380971 -0.756722 1.482100
v 2.246797 -0.553709 1.522950
v 5.199120 -6.789572 -0.428135
v 5.034090 -6.711615 -0.428135
v 5.014225 -6.702231 -0.337906
v 5.250947 -6.814054 -0.340501
v 5.183977 -6.664081 -0.428135
v 5.099389 -6.843152 -0.428135
v 5.096553 -6.849154 -0.351764
v 5.182738 -6.666704 -0.340367
v 7.703226 -5.545474 -0.015526
v 7.744272 -5.515483 -0.095253
v 7.876532 -5.418846 -0.095253
v 7.926357 -5.382441 -0.015526
v 7.871407 -5.515198 -0.095283
v 7.780200 -5.390370 -0.095283
v 7.743087 -5.339576 -0.012056
v 7.880352 -5.527440 -0.006598
v 1.130145 -5.035959 0.039524
v 1.034504 -4.920707 0.039524
v 1.048915 -4.938073 0.161271
v 1.170917 -5.085091 0.123827
v 1.050911 -5.044713 0.039524
v 1.026781 -5.064736 0.133594
v 1.148261 -4.963927 0.163429
v 1.149163 -4.963178 0.039524
v 12.498029 1.298600 1.852540
v 12.449065 1.262092 1.772419
v 12.291293 1.144452 1.772419
v 12.231856 1.100135 1.852540
v 12.296329 1.260269 1.772389
v 12.407356 1.111363 1.772389
v 12.452536 1.050771 1.856028
v 12.285439 1.274873 1.861513
v 4.428695 -5.266185 -0.009476
v 4.421779 -5.293440 0.132048
v 4.477344 -5.074464 0.096324
v 4.496253 -4.999945 -0.009476
v 4.238680 -5.102694 -0.009476
v 4.514369 -5.172649 -0.009476
v 4.607414 -5.196259 0.114862
v 4.285064 -5.114463 0.105856
v 14.874004 2.638038 2.221202
v 14.685818 2.534531 2.221202
v 14.657068 2.518718 2.319803
v 14.878952 2.640759 2.339981
v 14.733027 2.640386 2.221187
v 14.829165 2.465597 2.221187
v 14.829165 2.465597 2.322185
v 14.728301 2.648977 2.341494
v -0.259422 -8.012554 -0.599716
v -0.210359 -8.014675 -0.741752
v -0.052267 -8.021512 -0.741752
v 0.007290 -8.024087 -0.599716
v -0.114243 -8.091134 -0.741806
v -0.107791 -7.941926 -0.741806
v -0.105165 -7.881211 -0.593534
v -0.114876 -8.105767 -0.583809
v 4.076191 -6.107531 -0.245348
v 4.016574 -5.974811 -0.245348
v 4.025557 -5.994809 -0.100266
v 4.101606 -6.164108 -0.144887
v 3.999743 -6.095158 -0.245348
v 3.971957 -6.107639 -0.133247
v 4.111848 -6.044801 -0.097694
v 4.112887 -6.044334 -0.245348
v 1.964913 -15.855839 -2.769287
v 1.919142 -15.648857 -2.769287
v 1.926038 -15.680044 -2.678073
v 1.984424 -15.944074 -2.706126
v 1.859514 -15.815562 -2.769287
v 1.816180 -15.825145 -2.698808
v 2.034346 -15.776901 -2.676455
v 2.035967 -15.776543 -2.769287
v 10.949491 -1.695277 0.898199
v 10.775770 -1.525981 0.898199
v 10.801947 -1.551490 1.008135
v 11.023546 -1.767447 0.974323
v 10.823369 -1.722905 0.898199
v 10.787925 -1.759275 0.983143
v 10.966369 -1.576168 1.010084
v 10.967694 -1.574808 0.898199
v 3.989893 -3.545333 0.432019
v 3.986549 -3.565634 0.540149
v 4.013417 -3.402524 0.512855
v 4.022560 -3.347017 0.432019
v 3.841174 -3.437975 0.432019
v 4.046528 -3.471801 0.432019
v 4.115834 -3.483217 0.527018
v 3.875724 -3.443666 0.520137
v 9.166886 -15.441667 -2.608449
v 9.188141 -15.508245 -2.749405
v 9.256630 -15.722772 -2.749405
v 9.282431 -15.803589 -2.608449
v 9.133204 -15.674170 -2.749459
v 9.335675 -15.609530 -2.749459
v 9.418063 -15.583228 -2.602314
v 9.113346 -15.680510 -2.592664
v 11.506832 -0.027568 1.379566
v 11.407256 -0.131654 1.379566
v 11.422260 -0.115971 1.492316
v 11.549280 0.016803 1.457639
v 11.523930 -0.102309 1.379566
v 11.545722 -0.123156 1.466685
v 11.436011 -0.018200 1.494315
v 11.435196 -0.017420 1.379566
v 0.817826 -4.960552 0.023248
v 0.865793 -5.149468 0.023248
v 0.873122 -5.178329 0.127708
v 0.816565 -4.955585 0.149084
v 0.783590 -5.083844 0.023232
v 0.959056 -5.039291 0.023232
v 0.959056 -5.039291 0.130231
v 0.774966 -5.086034 0.150688
v 6.468949 -6.955188 -0.501608
v 6.460180 -6.936443 -0.382357
v 6.530629 -7.087047 -0.412459
v 6.554604 -7.138299 -0.501608
v 6.653378 -6.959702 -0.501608
v 6.463769 -7.048396 -0.501608
v 6.399777 -7.078330 -0.396839
v 6.621477 -6.974624 -0.404427
v 0.179088 -7.092834 -0.467932
v 0.325015 -6.902087 -0.467932
v 0.359615 -6.856861 -0.382489
v 0.216485 -7.043951 -0.382489
v 0.357795 -7.023228 -0.467969
v 0.183248 -6.889695 -0.467969
v 0.172061 -6.881136 -0.373437
v 0.328130 -7.000534 -0.381956
v 14.563084 -4.128263 0.271097
v 14.522668 -4.326671 0.271097
v 14.528757 -4.296775 0.365129
v 14.580313 -4.043682 0.336208
v 14.639430 -4.204334 0.271097
v 14.680969 -4.212795 0.343753
v 14.471839 -4.170196 0.366796
v 14.470285 -4.169879 0.271097
v 13.861306 -14.346314 -2.353573
v 13.875029 -14.365533 -2.138208
v 13.764778 -14.211120 -2.192571
v 13.727259 -14.158571 -2.353573
v 13.653408 -14.379449 -2.353573
v 13.847813 -14.240644 -2.353573
v 13.913424 -14.193798 -2.164362
v 13.686116 -14.356095 -2.178066
v 11.550443 1.922718 2.008345
v 11.572683 1.914689 2.168841
v 11.393996 1.979199 2.128328
v 11.333188 2.001153 2.008345
v 11.397992 1.777145 2.008345
v 11.479210 2.002110 2.008345
v 11.506620 2.078035 2.149350
v 11.411657 1.814995 2.139137
v 0.432375 -7.273393 -0.568629
v 0.406379 -7.474756 -0.568629
v 0.403250 -7.498994 -0.468391
v 0.440539 -7.210156 -0.471274
v 0.304742 -7.332393 -0.568629
v 0.523236 -7.360601 -0.568629
v 0.530560 -7.361547 -0.483787
v 0.307942 -7.332806 -0.471126
v 3.784613 -1.983889 0.809461
v 3.618926 -2.070939 0.809461
v 3.598982 -2.081418 0.952098
v 3.836646 -1.956552 0.947995
v 3.672493 -1.918850 0.809461
v 3.766949 -2.098632 0.809461
v 3.770115 -2.104659 0.930190
v 3.673877 -1.921483 0.948206
v 6.461239 -1.175952 1.104274
v 6.502209 -1.201082 1.019768
v 6.634222 -1.282057 1.019768
v 6.683954 -1.312562 1.104274
v 6.548111 -1.312174 1.019737
v 6.624536 -1.187579 1.019737
v 6.655633 -1.136880 1.107953
v 6.540616 -1.324393 1.113738
v 15.202361 1.675467 1.957549
v 15.312895 1.772769 1.957549
v 15.296240 1.758107 2.074009
v 15.155241 1.633989 2.038191
v 15.191488 1.753091 1.957549
v 15.171117 1.776233 2.047534
v 15.273676 1.659726 2.076074
v 15.274437 1.658861 1.957549
v 12.201918 -0.437522 1.244853
v 12.328379 -0.613490 1.244853
v 12.343601 -0.634672 1.387177
v 12.162204 -0.382260 1.383084
v 12.145382 -0.576537 1.244853
v 12.336320 -0.439318 1.244853
v 12.342721 -0.434718 1.365318
v 12.148178 -0.574527 1.383294
v 13.466904 -15.325376 -2.521917
v 13.427521 -15.308917 -2.623426
v 13.300619 -15.255884 -2.623426
v 13.252811 -15.235905 -2.521917
v 13.372071 -15.217698 -2.623465
v 13.322019 -15.337468 -2.623465
v 13.301651 -15.386205 -2.517499
v 13.376980 -15.205952 -2.510549
v 14.180212 -1.749003 0.911703
v 14.021859 -1.643049 0.911703
v 14.045719 -1.659014 1.059444
v 14.247717 -1.794170 1.014005
v 14.086743 -1.788352 0.911703
v 14.064561 -1.821505 1.025858
v 14.176240 -1.654595 1.062064
v 14.177070 -1.653356 0.911703
v 15.708581 0.203720 1.577755
v 15.756541 0.184626 1.490913
v 15.911077 0.123103 1.490913
v 15.969296 0.099926 1.577755
v 15.825461 0.075463 1.490880
v 15.883527 0.221316 1.490880
v 15.907155 0.280665 1.581535
v 15.819767 0.061159 1.587481
v 12.470777 -1.951220 0.958063
v 12.440559 -1.901790 0.860231
v 12.343192 -1.742516 0.860231
v 12.306512 -1.682513 0.958063
v 12.452147 -1.757364 0.860194
v 12.301824 -1.849259 0.860194
v 12.240655 -1.886653 0.962321
v 12.466890 -1.748352 0.969019
v 14.984236 2.427083 2.195562
v 14.820539 2.552818 2.195562
v 14.792902 2.574046 2.279417
v 15.012402 2.405448 2.295549
v 14.967809 2.580536 2.195499
v 14.815480 2.382217 2.195499
v 14.872373 2.456286 2.313484
v 14.978806 2.594854 2.277644
v 12.399650 -14.530759 -2.462349
v 12.530688 -14.638276 -2.462349
v 12.552813 -14.656428 -2.382221
v 12.377103 -14.512259 -2.366805
v 12.409083 -14.657142 -2.462409
v 12.539341 -14.498387 -2.462409
v 12.490692 -14.557679 -2.349666
v 12.399680 -14.668603 -2.383914
v 15.685279 2.477959 2.194982
v 15.926109 2.462593 2.194982
v 15.955099 2.460743 2.350290
v 15.609648 2.482785 2.345823
v 15.765062 2.331107 2.194982
v 15.781735 2.592426 2.194982
v 15.782295 2.601187 2.326436
v 15.765306 2.334935 2.346052
v 1.264736 -12.506938 -1.898034
v 1.293013 -12.318636 -1.898034
v 1.288753 -12.347009 -1.776331
v 1.252682 -12.587211 -1.813762
v 1.189327 -12.439222 -1.898034
v 1.149903 -12.433302 -1.803998
v 1.348380 -12.463107 -1.774173
v 1.349855 -12.463328 -1.898034
v 8.114051 -1.581984 0.927784
v 7.896878 -1.533265 0.927784
v 7.870737 -1.527401 1.079624
v 8.182252 -1.597284 1.075257
v 8.062543 -1.436705 0.927784
v 8.009679 -1.672353 0.927784
v 8.007907 -1.680253 1.056303
v 8.061769 -1.440157 1.075481
v 4.273796 -4.832783 0.213603
v 4.252540 -4.790770 0.108761
v 4.184052 -4.655393 0.108761
v 4.158250 -4.604393 0.213603
v 4.271347 -4.674527 0.108721
v 4.143578 -4.739167 0.108721
v 4.091587 -4.765470 0.218167
v 4.283878 -4.668188 0.225344
v -0.043904 -9.764762 -1.221093
v -0.043286 -9.740322 -1.095713
v -0.048258 -9.936672 -1.127361
v -0.049950 -10.003492 -1.221093
v 0.148659 -9.866813 -1.221093
v -0.098544 -9.860552 -1.221093
v -0.181974 -9.858439 -1.110938
v 0.107068 -9.865759 -1.118917
v 6.582159 0.358173 1.643164
v 6.634163 0.386442 1.543119
v 6.801733 0.477529 1.543119
v 6.864861 0.511844 1.643164
v 6.780930 0.367125 1.543081
v 6.694961 0.525278 1.543081
v 6.659979 0.589633 1.647518
v 6.789361 0.351614 1.654368
v 15.760229 -3.078611 0.567222
v 15.890826 -3.220423 0.567222
v 15.871147 -3.199055 0.683955
v 15.704556 -3.018157 0.648052
v 15.861506 -3.062100 0.567222
v 15.891196 -3.034758 0.657418
v 15.741721 -3.172411 0.686024
v 15.740610 -3.173434 0.567222
v 3.454672 -1.098694 1.084073
v 3.388120 -0.911288 1.084073
v 3.398148 -0.939526 1.191072
v 3.483043 -1.178584 1.158163
v 3.351888 -1.073387 1.084073
v 3.312652 -1.087321 1.166747
v 3.510184 -1.017172 1.192968
v 3.511652 -1.016651 1.084073
v 2.978920 -4.028726 0.303992
v 3.163359 -3.858975 0.303992
v 3.185560 -3.838542 0.420744
v 2.920999 -4.082035 0.417386
v 3.146437 -4.074267 0.303992
v 2.962245 -3.874138 0.303992
v 2.956070 -3.867429 0.402812
v 3.143739 -4.071336 0.417558
v 7.291032 0.742027 1.654411
v 7.270168 0.726745 1.773773
v 7.437798 0.849527 1.743643
v 7.494844 0.891311 1.654411
v 7.251988 0.969251 1.654411
v 7.406569 0.758206 1.654411
v 7.458739 0.686979 1.759278
v 7.277995 0.933743 1.751682
v 13.722441 -4.700475 0.297826
v 13.728748 -4.637539 0.173826
v 13.749076 -4.434745 0.173826
v 13.756734 -4.358348 0.297826
v 13.834082 -4.519522 0.173779
v 13.642684 -4.500337 0.173779
v 13.564802 -4.492530 0.303223
v 13.852853 -4.521403 0.311713
v 4.047693 -5.657654 -0.126069
v 4.189350 -5.494020 -0.126069
v 4.168005 -5.518676 -0.031229
v 3.987305 -5.727410 -0.060398
v 4.016453 -5.546770 -0.126069
v 3.982194 -5.517112 -0.052789
v 4.154670 -5.666424 -0.029548
v 4.155951 -5.667533 -0.126069
v 11.269427 0.083369 1.447719
v 11.281426 0.063898 1.584025
v 11.185024 0.220334 1.549618
v 11.152218 0.273571 1.447719
v 11.066369 0.064990 1.447719
v 11.263321 0.186359 1.447719
v 11.329792 0.227320 1.567472
v 11.099505 0.085409 1.558798
v 0.674433 -5.200693 -0.019906
v 0.695240 -5.191888 0.104229
v 0.528067 -5.262628 0.072894
v 0.471176 -5.286702 -0.019906
v 0.662013 -5.401723 -0.019906
v 0.572952 -5.191254 -0.019906
v 0.542894 -5.120220 0.089154
v 0.647029 -5.366313 0.081255
v 11.990493 -15.192479 -2.625063
v 12.012633 -15.197545 -2.501667
v 11.834746 -15.156842 -2.532815
v 11.774209 -15.142991 -2.625063
v 11.862083 -15.349033 -2.625063
v 11.913328 -15.125074 -2.625063
v 11.930623 -15.049489 -2.516651
v 11.870706 -15.311354 -2.524504
v 12.915290 -12.077205 -1.786044
v 12.763486 -11.890171 -1.786044
v 12.745214 -11.867658 -1.690083
v 12.962963 -12.135942 -1.692843
v 12.968969 -11.919252 -1.786044
v 12.766025 -12.083971 -1.786044
v 12.759221 -12.089493 -1.704822
v 12.965998 -11.921665 -1.692701
v 11.454391 -1.825400 0.861842
v 11.436984 -1.838510 1.002341
v 11.576836 -1.733178 0.966876
v 11.624429 -1.697333 0.861842
v 11.418940 -1.634397 0.861842
v 11.551552 -1.810470 0.861842
v 11.596308 -1.869894 0.985279
v 11.441251 -1.664020 0.976339
v 0.829781 -5.797318 -0.176653
v 0.643874 -5.857340 -0.176653
v 0.599795 -5.871572 -0.090680
v 0.782138 -5.812700 -0.090680
v 0.678032 -5.761141 -0.176690
v 0.732956 -5.931259 -0.176690
v 0.736477 -5.942163 -0.081572
v 0.687366 -5.790053 -0.090144
v 9.737947 -2.577162 0.627683
v 9.739923 -2.755336 0.627683
v 9.740088 -2.770060 0.701635
v 9.737736 -2.558059 0.744789
v 9.661702 -2.659017 0.627731
v 9.831120 -2.657138 0.627731
v 9.786857 -2.657629 0.711163
v 9.635269 -2.659310 0.723046
v 15.768257 -0.339895 1.329533
v 15.729521 -0.485732 1.329533
v 15.735357 -0.463757 1.455089
v 15.784770 -0.277725 1.416473
v 15.821730 -0.399823 1.329533
v 15.852262 -0.407933 1.426546
v 15.698545 -0.367103 1.457315
v 15.697403 -0.366800 1.329533
v 11.544067 -15.613909 -2.752730
v 11.311335 -15.740949 -2.752730
v 11.346402 -15.721807 -2.653165
v 11.643280 -15.559752 -2.683788
v 11.532370 -15.754554 -2.752730
v 11.558967 -15.803280 -2.675800
v 11.425062 -15.557971 -2.651400
v 11.424067 -15.556149 -2.752730
v 4.529679 -4.838339 0.054838
v 4.343706 -5.034215 0.054838
v 4.321321 -5.057793 0.166274
v 4.588083 -4.776826 0.163069
v 4.346281 -4.801530 0.054838
v 4.558821 -5.003325 0.054838
v 4.565946 -5.010090 0.149158
v 4.349394 -4.804486 0.163233
v 0.781661 -13.189239 -2.079728
v 0.765287 -13.197858 -1.974309
v 0.896840 -13.128613 -2.000919
v 0.941609 -13.105048 -2.079728
v 0.777948 -13.024327 -2.079728
v 0.865127 -13.189951 -2.079728
v 0.894550 -13.245849 -1.987111
v 0.792616 -13.052193 -1.993819
v 0.598217 -5.738303 -0.122787
v 0.608503 -5.765145 -0.002172
v 0.525860 -5.549487 -0.032618
v 0.497735 -5.476097 -0.122787
v 0.343142 -5.713727 -0.122787
v 0.614653 -5.609679 -0.122787
v 0.706288 -5.574563 -0.016820
v 0.388823 -5.696221 -0.024495
v 3.691359 0.080869 1.403710
v 3.701964 -0.119497 1.403710
v 3.703755 -0.153325 1.496820
v 3.689534 0.115344 1.514733
v 3.588411 -0.028253 1.403640
v 3.831155 -0.015404 1.403640
v 3.740494 -0.020203 1.534648
v 3.570886 -0.029181 1.494852
v 1.703104 -2.004595 0.797727
v 1.692690 -1.985624 0.906091
v 1.776356 -2.138042 0.878738
v 1.804829 -2.189912 0.797727
v 1.895872 -1.996878 0.797727
v 1.703979 -2.102213 0.797727
v 1.639216 -2.137763 0.892931
v 1.863587 -2.014601 0.886036
v 0.472569 -15.118855 -2.608839
v 0.394316 -15.322943 -2.608839
v 0.384897 -15.347508 -2.519087
v 0.497143 -15.054762 -2.521668
v 0.324072 -15.148224 -2.608839
v 0.545522 -15.233133 -2.608839
v 0.552946 -15.235980 -2.532872
v 0.327315 -15.149467 -2.521536
v 7.625448 0.961310 1.805508
v 7.621718 0.900185 1.645876
v 7.609700 0.703225 1.645876
v 7.605172 0.629026 1.805508
v 7.524264 0.782036 1.645816
v 7.710155 0.770694 1.645816
v 7.785797 0.766078 1.812456
v 7.506033 0.783149 1.823385
v 1.967634 -13.293663 -1.985518
v 1.942644 -13.231732 -2.069887
v 1.862120 -13.032177 -2.069887
v 1.831784 -12.957000 -1.985518
v 1.983192 -13.069710 -2.069919
v 1.794851 -13.145709 -2.069919
v 1.718213 -13.176634 -1.981846
v 2.001663 -13.062256 -1.976069
v 3.267749 -6.472658 -0.354803
v 3.242364 -6.466700 -0.198631
v 3.446317 -6.514564 -0.238053
v 3.515724 -6.530852 -0.354803
v 3.416162 -6.293756 -0.354803
v 3.355902 -6.550530 -0.354803
v 3.335565 -6.637191 -0.217597
v 3.406024 -6.336957 -0.227535
v 10.138444 -3.326196 0.503984
v 10.177701 -3.370209 0.417819
v 10.304194 -3.512030 0.417819
v 10.351849 -3.565457 0.503984
v 10.192364 -3.516975 0.417786
v 10.326214 -3.397590 0.417786
v 10.380680 -3.349010 0.507734
v 10.179236 -3.528684 0.513634
v 1.573628 -1.432581 0.942686
v 1.532484 -1.686335 0.942686
v 1.525538 -1.729177 1.026742
v 1.580707 -1.388919 1.042913
v 1.415090 -1.541248 0.942623
v 1.722514 -1.591093 0.942623
v 1.607697 -1.572477 1.060891
v 1.392895 -1.537649 1.024965
v -0.468897 -9.393057 -1.114950
v -0.328074 -9.567309 -1.114950
v -0.311123 -9.588284 -1.024583
v -0.513121 -9.338334 -1.027182
v -0.519132 -9.539859 -1.114950
v -0.330055 -9.387056 -1.114950
v -0.323717 -9.381934 -1.038463
v -0.516363 -9.537621 -1.027049
v 1.632025 -7.718131 -0.674035
v 1.470206 -7.797809 -0.674035
v 1.494589 -7.785803 -0.557297
v 1.701008 -7.684165 -0.593201
v 1.620046 -7.813387 -0.674035
v 1.636727 -7.847266 -0.583835
v 1.552744 -7.676703 -0.555228
v 1.552120 -7.675436 -0.674035
v -1.415113 -14.184468 -2.326593
v -1.421936 -14.198800 -2.205473
v -1.367118 -14.083652 -2.236046
v -1.348463 -14.044466 -2.326593
v -1.502370 -14.073071 -2.326593
v -1.357400 -14.142085 -2.326593
v -1.308473 -14.165378 -2.220181
v -1.477980 -14.084682 -2.227889
v -0.935699 -12.001443 -1.761356
v -0.937535 -12.014729 -1.623639
v -0.922788 -11.907981 -1.658402
v -0.917769 -11.871654 -1.761356
v -1.034433 -11.933999 -1.761356
v -0.900037 -11.952565 -1.761356
v -0.854679 -11.958832 -1.640364
v -1.011822 -11.937123 -1.649127
v 4.812897 0.121877 1.436171
v 5.072278 0.078205 1.436171
v 5.133778 0.067851 1.531314
v 4.879369 0.110685 1.531314
v 4.971757 -0.015535 1.436130
v 5.011719 0.221816 1.436130
v 5.014281 0.237029 1.541394
v 4.978549 0.024804 1.531908
v 4.042827 0.237466 1.488614
v 3.869894 0.297470 1.488614
v 3.895952 0.288428 1.609251
v 4.116548 0.211886 1.572148
v 3.965511 0.178179 1.488614
v 3.952948 0.141973 1.581826
v 4.016195 0.324251 1.611389
v 4.016665 0.325605 1.488614
v 12.145248 1.564181 2.029663
v 12.132658 1.625282 1.944854
v 12.092090 1.822163 1.944854
v 12.076807 1.896333 2.029663
v 12.197066 1.767386 1.944822
v 12.011250 1.729097 1.944822
v 11.935638 1.713517 2.033354
v 12.215291 1.771141 2.039160
v 1.642681 -4.333423 0.195834
v 1.610990 -4.502676 0.195834
v 1.607176 -4.523049 0.393963
v 1.652633 -4.280270 0.388265
v 1.531773 -4.377246 0.195834
v 1.715424 -4.411633 0.195834
v 1.721581 -4.412785 0.363532
v 1.534462 -4.377750 0.388558
v 3.658182 0.301610 1.493523
v 3.506199 0.177034 1.493523
v 3.529100 0.195805 1.637633
v 3.722971 0.354716 1.593311
v 3.669039 0.197577 1.493523
v 3.695120 0.165757 1.604872
v 3.563812 0.325952 1.640188
v 3.562837 0.327142 1.493523
v 15.601705 -2.814667 0.669107
v 15.679354 -2.626257 0.669107
v 15.692464 -2.594448 0.754576
v 15.588344 -2.847085 0.771019
v 15.743720 -2.759470 0.669044
v 15.515461 -2.665397 0.669044
v 15.600711 -2.700531 0.789299
v 15.760199 -2.766262 0.752769
v 6.570687 -6.154841 -0.264795
v 6.715827 -6.055248 -0.264795
v 6.733298 -6.043260 -0.175268
v 6.525107 -6.186117 -0.177843
v 6.682585 -6.203210 -0.264795
v 6.574520 -6.045722 -0.264795
v 6.570897 -6.040443 -0.189019
v 6.681002 -6.200903 -0.177711
v 2.286917 -2.843092 0.609065
v 2.250217 -2.697101 0.609065
v 2.255747 -2.719098 0.726203
v 2.302562 -2.905327 0.690176
v 2.211283 -2.816647 0.609065
v 2.180718 -2.824330 0.699574
v 2.334598 -2.785647 0.728279
v 2.335741 -2.785359 0.609065
v 2.523253 -4.212015 0.232573
v 2.730997 -4.301695 0.232573
v 2.756004 -4.312490 0.417539
v 2.458012 -4.183851 0.412219
v 2.547271 -4.366869 0.232573
v 2.644581 -4.141451 0.232573
v 2.647843 -4.133894 0.389130
v 2.548696 -4.363567 0.412492
v 8.192710 -2.506552 0.657367
v 8.087466 -2.647602 0.657367
v 8.074798 -2.664580 0.747657
v 8.225761 -2.462256 0.745061
v 8.071218 -2.496857 0.657367
v 8.224267 -2.611054 0.657367
v 8.229398 -2.614882 0.733789
v 8.073459 -2.498529 0.745194
v 0.948028 -4.524625 0.179838
v 0.889965 -4.318382 0.179838
v 0.898714 -4.349459 0.360125
v 0.972779 -4.612545 0.304676
v 0.839358 -4.490028 0.179838
v 0.796178 -4.502184 0.319140
v 1.013565 -4.440984 0.363321
v 1.015180 -4.440529 0.179838
v 8.220058 -14.311119 -2.275467
v 8.254405 -14.284652 -2.379676
v 8.365077 -14.199368 -2.379676
v 8.406770 -14.167239 -2.275467
v 8.362806 -14.281638 -2.379715
v 8.282315 -14.177185 -2.379715
v 8.249562 -14.134682 -2.270931
v 8.370701 -14.291882 -2.263797
v 0.802131 -5.627519 -0.092960
v 0.981050 -5.462112 -0.092960
v 1.023471 -5.422894 0.028061
v 0.847983 -5.585130 0.028061
v 0.992835 -5.588891 -0.093012
v 0.841476 -5.425169 -0.093012
v 0.831775 -5.414675 0.040883
v 0.967111 -5.561066 0.028816
v 2.184737 -1.637343 0.904902
v 2.040501 -1.826485 0.904902
v 2.062234 -1.797985 1.176072
v 2.246224 -1.556714 1.092670
v 2.226558 -1.756843 0.904902
v 2.266157 -1.787041 1.114426
v 2.066796 -1.635011 1.180879
v 2.065315 -1.633882 0.904902
v 12.645695 -1.917539 0.820450
v 12.457273 -2.005741 0.820450
v 12.434592 -2.016358 0.910113
v 12.704866 -1.889840 0.907534
v 12.524517 -1.839596 0.820450
v 12.620223 -2.044048 0.820450
v 12.623431 -2.050901 0.896341
v 12.525919 -1.842591 0.907666
v 12.343027 -14.952494 -2.559757
v 12.498463 -14.958478 -2.559757
v 12.475041 -14.957576 -2.439155
v 12.276766 -14.949944 -2.476247
v 12.391210 -14.885163 -2.559757
v 12.392462 -14.852620 -2.466571
v 12.386155 -15.016455 -2.437016
v 12.386108 -15.017673 -2.559757
v 15.813672 -1.619192 0.972860
v 15.692287 -1.530577 0.972860
v 15.710578 -1.543930 1.109549
v 15.865417 -1.656967 1.067509
v 15.738737 -1.647188 0.972860
v 15.720184 -1.672602 1.078476
v 15.813587 -1.544658 1.111973
v 15.814281 -1.543708 0.972860
v 1.852808 -3.593908 0.411142
v 1.985736 -3.495811 0.411142
v 1.965706 -3.510592 0.591030
v 1.796142 -3.635726 0.535703
v 1.848140 -3.506098 0.411142
v 1.827602 -3.478268 0.550135
v 1.930999 -3.618378 0.594219
v 1.931767 -3.619419 0.411142
v -1.675363 -15.662589 -2.606925
v -1.694351 -15.627290 -2.697000
v -1.755535 -15.513549 -2.697000
v -1.778585 -15.470699 -2.606925
v -1.680836 -15.527963 -2.697034
v -1.788185 -15.585709 -2.697034
v -1.831867 -15.609206 -2.603005
v -1.670308 -15.522300 -2.596838
v 2.802029 -9.073350 -1.046196
v 2.849074 -9.309550 -1.046196
v 2.854737 -9.337981 -0.944467
v 2.787255 -8.999174 -0.947393
v 2.680903 -9.188015 -1.046196
v 2.937196 -9.136968 -1.046196
v 2.945788 -9.135256 -0.960092
v 2.684656 -9.187267 -0.947243
v 9.859168 1.318153 1.834943
v 9.867035 1.521910 1.834943
v 9.867982 1.546437 1.977275
v 9.856697 1.254165 1.973181
v 9.981521 1.388664 1.834943
v 9.760428 1.397200 1.834943
v 9.753017 1.397487 1.955414
v 9.978282 1.388789 1.973391
v 13.233479 -14.147299 -2.332678
v 13.028219 -14.129129 -2.332678
v 12.993566 -14.126062 -2.238237
v 13.268797 -14.150425 -2.220067
v 13.137403 -14.026856 -2.332748
v 13.115391 -14.275529 -2.332748
v 13.123611 -14.182654 -2.199868
v 13.138992 -14.008904 -2.240233
v 3.681723 -4.930261 0.034479
v 3.811433 -5.059256 0.034479
v 3.833332 -5.081034 0.109898
v 3.659405 -4.908066 0.124408
v 3.678849 -5.067006 0.034423
v 3.835127 -4.909862 0.034423
v 3.776760 -4.968552 0.140538
v 3.667567 -5.078351 0.108304
v 0.753904 -15.715865 -2.752358
v 0.595604 -15.809363 -2.752358
v 0.619456 -15.795276 -2.660655
v 0.821387 -15.676006 -2.688859
v 0.749098 -15.813605 -2.752358
v 0.768673 -15.846747 -2.681502
v 0.670122 -15.679893 -2.659029
v 0.669390 -15.678653 -2.752358
v 14.008192 0.092103 1.571384
v 14.009445 0.133517 1.490412
v 14.013480 0.266960 1.490412
v 14.015001 0.317232 1.571384
v 14.072893 0.215439 1.490381
v 13.946949 0.219248 1.490381
v 13.895700 0.220798 1.574908
v 14.085245 0.215066 1.580452
v 15.496128 1.975686 2.039206
v 15.724939 1.935253 2.039206
v 15.690462 1.941346 2.159826
v 15.398588 1.992922 2.122728
v 15.581111 2.065539 2.039206
v 15.589577 2.113444 2.132405
v 15.546959 1.872270 2.161964
v 15.546642 1.870478 2.039206
v 8.220549 -14.805166 -2.539135
v 8.344997 -14.939487 -2.539135
v 8.326245 -14.919249 -2.388874
v 8.167497 -14.747906 -2.435088
v 8.316695 -14.789194 -2.539135
v 8.344817 -14.763139 -2.423033
v 8.203238 -14.894312 -2.386210
v 8.202187 -14.895287 -2.539135
v 1.728431 -5.919806 -0.205219
v 1.892862 -5.977811 -0.205219
v 1.868086 -5.969071 -0.092991
v 1.658335 -5.895079 -0.127508
v 1.802369 -5.863713 -0.205219
v 1.814513 -5.829287 -0.118504
v 1.753374 -6.002603 -0.091002
v 1.752919 -6.003891 -0.205219
v 6.572362 0.528412 1.808246
v 6.620083 0.558485 1.598181
v 6.773852 0.655388 1.598181
v 6.831780 0.691893 1.808246
v 6.760841 0.549119 1.598101
v 6.669384 0.694246 1.598101
v 6.632169 0.753301 1.817390
v 6.769811 0.534885 1.831772
v 14.440679 -14.713240 -2.442530
v 14.445434 -14.726222 -2.314824
v 14.407229 -14.621917 -2.347060
v 14.394228 -14.586420 -2.442530
v 14.318183 -14.699598 -2.442530
v 14.449503 -14.651499 -2.442530
v 14.493823 -14.635265 -2.330333
v 14.340277 -14.691505 -2.338459
v 0.290515 -6.156974 -0.264741
v 0.498350 -6.217866 -0.264741
v 0.523368 -6.225196 -0.111694
v 0.225246 -6.137851 -0.116095
v 0.331444 -6.301267 -0.264741
v 0.397517 -6.075751 -0.264741
v 0.399732 -6.068191 -0.135200
v 0.332411 -6.297964 -0.115869
v 2.564843 -0.900387 1.109118
v 2.690159 -1.086077 1.109118
v 2.705243 -1.108429 1.198648
v 2.525489 -0.842073 1.196073
v 2.502186 -1.042315 1.109118
v 2.703673 -0.906339 1.109118
v 2.710427 -0.901780 1.184897
v 2.505137 -1.040324 1.196205
v 9.428139 -2.508544 0.633247
v 9.679000 -2.698751 0.633247
v 9.738480 -2.743850 0.726241
v 9.492427 -2.557289 0.726241
v 9.520390 -2.742404 0.633207
v 9.694442 -2.512849 0.633207
v 9.705598 -2.498136 0.736094
v 9.549971 -2.703391 0.726822
v 15.576827 -5.525782 -0.018190
v 15.569757 -5.578564 -0.099768
v 15.546977 -5.748638 -0.099768
v 15.538396 -5.812708 -0.018190
v 15.477821 -5.674923 -0.099799
v 15.638337 -5.696423 -0.099799
v 15.703654 -5.705172 -0.014639
v 15.462079 -5.672814 -0.009054
v 0.567940 -6.361955 -0.305171
v 0.739323 -6.261189 -0.305171
v 0.713499 -6.276372 -0.046521
v 0.494881 -6.404911 -0.126072
v 0.573348 -6.256272 -0.305171
v 0.552251 -6.220391 -0.105320
v 0.658462 -6.401034 -0.041936
v 0.659251 -6.402376 -0.305171
v 9.305574 -4.325915 0.182085
v 9.210197 -4.492093 0.182085
v 9.224568 -4.467053 0.274319
v 9.346233 -4.255075 0.245951
v 9.351500 -4.416975 0.182085
v 9.386291 -4.436943 0.253351
v 9.211133 -4.336412 0.275954
v 9.209832 -4.335666 0.182085
v 8.162254 -0.158175 1.348919
v 8.356089 -0.187635 1.348919
v 8.379421 -0.191181 1.459117
v 8.101381 -0.148924 1.455947
v 8.216448 -0.282672 1.348919
v 8.248414 -0.072347 1.348919
v 8.249486 -0.065296 1.442191
v 8.216916 -0.279592 1.456110
v 15.012036 -0.165137 1.367586
v 14.890833 -0.364255 1.367586
v 14.909096 -0.334252 1.486191
v 15.063705 -0.080255 1.449713
v 15.065038 -0.277323 1.367586
v 15.106726 -0.302698 1.459228
v 14.896849 -0.174945 1.488293
v 14.895289 -0.173996 1.367586
v 15.956491 2.485204 2.191338
v 16.082020 2.383774 2.191338
v 16.063107 2.399058 2.374127
v 15.902980 2.528442 2.317908
v 16.038336 2.511289 2.191338
v 16.059572 2.537570 2.332573
v 15.952662 2.405258 2.377367
v 15.951867 2.404275 2.191338
v 11.358796 0.752526 1.616103
v 11.347185 0.765925 1.737190
v 11.440477 0.658275 1.706625
v 11.472225 0.621640 1.616103
v 11.511861 0.791946 1.616103
v 11.376329 0.674491 1.616103
v 11.330588 0.634851 1.722485
v 11.489058 0.772184 1.714780
v 2.201578 -12.892159 -2.009973
v 2.008618 -12.827789 -2.009973
v 2.037694 -12.837488 -1.872360
v 2.283835 -12.919598 -1.914684
v 2.116457 -12.959067 -2.009973
v 2.102980 -12.999466 -1.903644
v 2.170827 -12.796080 -1.869920
v 2.171331 -12.794569 -2.009973
v 13.128905 -13.742612 -2.229318
v 13.410025 -13.759612 -2.229318
v 13.476679 -13.763643 -2.089656
v 13.200948 -13.746968 -2.089656
v 13.313663 -13.870845 -2.229379
v 13.329220 -13.613601 -2.229379
v 13.330217 -13.597113 -2.074859
v 13.316307 -13.827126 -2.088784
v 2.790567 -4.480169 0.163652
v 2.623423 -4.577696 0.163652
v 2.648608 -4.563001 0.332101
v 2.861820 -4.438593 0.280292
v 2.784961 -4.583019 0.163652
v 2.805380 -4.618013 0.293807
v 2.702583 -4.441837 0.335087
v 2.701819 -4.440528 0.163652
v 0.173071 -8.445604 -0.767726
v 0.122764 -8.480321 -0.880292
v -0.039336 -8.592187 -0.880292
v -0.100403 -8.634329 -0.767726
v -0.030054 -8.476544 -0.880335
v 0.075525 -8.629535 -0.880335
v 0.118487 -8.691789 -0.762827
v -0.040409 -8.461539 -0.755120
v 1.823598 -2.924516 0.586904
v 1.667913 -2.852793 0.586904
v 1.655048 -2.846866 0.715451
v 1.840291 -2.932207 0.790465
v 1.783877 -2.824504 0.586986
v 1.715678 -2.972539 0.586986
v 1.733496 -2.933862 0.732013
v 1.794517 -2.801407 0.752669
vn -0.8339 -0.5519 -0.0000
vn 0.5519 -0.8339 -0.0000
vn -0.9317 -0.3631 -0.0000
vn 0.3631 -0.9317 -0.0000
vn -0.8719 0.4897 -0.0000
vn -0.4897 -0.8719 -0.0000
vn -0.3019 0.9533 -0.0000
vn -0.9533 -0.3019 -0.0000
vn -0.9998 0.0210 -0.0000
vn -0.0210 -0.9998 -0.0000
vn -0.9769 0.2138 -0.0000
vn -0.2138 -0.9769 -0.0000
vn 0.5400 0.8417 -0.0000
vn -0.8417 0.5400 -0.0000
vn -0.5514 0.8343 -0.0000
vn -0.8343 -0.5514 -0.0000
vn 0.4271 0.9042 -0.0000
vn -0.9042 0.4271 -0.0000
vn 0.5900 -0.8074 -0.0000
vn 0.8074 0.5900 -0.0000
vn 0.7695 0.6386 -0.0000
vn -0.6386 0.7695 -0.0000
vn -0.5978 0.8017 -0.0000
vn -0.8017 -0.5977 -0.0000
vn -0.9693 0.2460 -0.0000
vn -0.2460 -0.9693 -0.0000
vn -0.4819 0.8762 -0.0000
vn -0.8762 -0.4819 -0.0000
vn -0.0432 -0.9991 -0.0000
vn 0.9991 -0.0432 -0.0000
vn 0.9122 0.4098 -0.0000
vn -0.4098 0.9122 -0.0000
vn 0.9764 0.2159 -0.0000
vn -0.2159 0.9764 -0.0000
vn 0.6979 0.7162 -0.0000
vn -0.7162 0.6979 -0.0000
vn -0.9867 0.1625 -0.0000
vn -0.1625 -0.9867 -0.0000
vn -0.9526 -0.3041 -0.0000
vn 0.3041 -0.9526 -0.0000
vn -0.7226 0.6913 -0.0000
vn -0.6913 -0.7226 -0.0000
vn -0.9692 -0.2461 -0.0000
vn 0.2461 -0.9692 -0.0000
vn 0.9058 0.4237 -0.0000
vn -0.4237 0.9058 -0.0000
vn 0.7942 -0.6076 -0.0000
vn 0.6076 0.7942 -0.0000
vn -0.9799 0.1996 -0.0000
vn -0.1996 -0.9799 -0.0000
vn -0.8138 -0.5811 -0.0000
vn 0.5811 -0.8138 -0.0000
vn -0.3396 -0.9406 -0.0000
vn 0.9406 -0.3396 -0.0000
vn -0.9918 0.1280 -0.0000
vn -0.1280 -0.9918 -0.0000
vn -0.4651 0.8853 -0.0000
vn -0.8853 -0.4651 -0.0000
vn -0.5229 -0.8524 -0.0000
vn 0.8524 -0.5229 -0.0000
vn 0.6607 -0.7506 -0.0000
vn 0.7506 0.6607 -0.0000
vn -0.8121 -0.5836 -0.0000
vn 0.5836 -0.8121 -0.0000
vn 0.3856 0.9227 -0.0000
vn -0.9227 0.3856 -0.0000
vn 0.5561 0.8311 -0.0000
vn -0.8311 0.5561 -0.0000
vn -0.3699 -0.9291 -0.0000
vn 0.9291 -0.3699 -0.0000
vn 0.8532 0.5216 -0.0000
vn -0.5216 0.8532 -0.0000
vn 0.6091 0.7931 -0.0000
vn -0.7931 0.6092 -0.0000
vn -0.6343 -0.7731 -0.0000
vn 0.7731 -0.6343 -0.0000
vn -0.0637 -0.9980 -0.0000
vn 0.9980 -0.0637 -0.0000
vn 0.9889 -0.1485 -0.0000
vn 0.1485 0.9889 -0.0000
vn 0.2189 0.9757 -0.0000
vn -0.9757 0.2189 -0.0000
vn 0.8923 0.4514 -0.0000
vn -0.4514 0.8923 -0.0000
vn 0.9997 -0.0253 -0.0000
vn 0.0253 0.9997 -0.0000
vn 0.4776 -0.8786 -0.0000
vn 0.8786 0.4776 -0.0000
vn -0.7356 -0.6774 -0.0000
vn 0.6774 -0.7356 -0.0000
vn 0.9423 0.3346 -0.0000
vn -0.3346 0.9423 -0.0000
vn 0.6772 -0.7358 -0.0000
vn 0.7358 0.6772 -0.0000
vn -0.5909 0.8067 -0.0000
vn -0.8067 -0.5909 -0.0000
vn 0.9950 -0.0997 -0.0000
vn 0.0997 0.9950 -0.0000
vn 0.7561 -0.6545 -0.0000
vn 0.6545 0.7561 -0.0000
vn -0.8513 -0.5246 -0.0000
vn 0.5246 -0.8513 -0.0000
vn 0.3897 -0.9209 -0.0000
vn 0.9209 0.3897 -0.0000
vn -0.2230 -0.9748 -0.0000
vn 0.9748 -0.2231 -0.0000
vn 0.7764 0.6302 -0.0000
vn -0.6302 0.7764 -0.0000
vn -0.6016 0.7988 -0.0000
vn -0.7988 -0.6016 -0.0000
vn -0.3072 0.9516 -0.0000
vn -0.9516 -0.3072 -0.0000
vn -0.9999 -0.0111 -0.0000
vn 0.0111 -0.9999 -0.0000
vn -0.9665 0.2567 -0.0000
vn -0.2567 -0.9665 -0.0000
vn -0.4791 0.8777 -0.0000
vn -0.8777 -0.4791 -0.0000
vn -0.7252 0.6885 -0.0000
vn -0.6885 -0.7252 -0.0000
vn -0.4658 0.8849 -0.0000
vn -0.8849 -0.4658 -0.0000
vn -0.9338 -0.3578 -0.0000
vn 0.3578 -0.9338 -0.0000
vn -0.9986 -0.0529 -0.0000
vn 0.0529 -0.9986 -0.0000
vn 0.8766 0.4812 -0.0000
vn -0.4812 0.8766 -0.0000
vn -0.9337 0.3580 -0.0000
vn -0.3580 -0.9337 -0.0000
vn -0.9981 0.0609 -0.0000
vn -0.0609 -0.9981 -0.0000
vn 0.9273 0.3742 -0.0000
vn -0.3742 0.9273 -0.0000
vn 0.2285 0.9736 -0.0000
vn -0.9736 0.2285 -0.0000
vn -0.7463 -0.6656 -0.0000
vn 0.6656 -0.7463 -0.0000
vn -0.9871 0.1600 -0.0000
vn -0.1600 -0.9871 -0.0000
vn -0.7778 -0.6286 -0.0000
vn 0.6286 -0.7778 -0.0000
vn -0.4417 0.8971 -0.0000
vn -0.8971 -0.4417 -0.0000
vn -0.9029 0.4298 -0.0000
vn -0.4298 -0.9029 -0.0000
vn -0.9906 0.1368 -0.0000
vn -0.1368 -0.9906 -0.0000
vn -0.1660 -0.9861 -0.0000
vn 0.9861 -0.1660 -0.0000
vn 0.3278 0.9447 -0.0000
vn -0.9447 0.3278 -0.0000
vn 0.9794 0.2018 -0.0000
vn -0.2018 0.9794 -0.0000
vn -0.9829 0.1840 -0.0000
vn -0.1840 -0.9829 -0.0000
vn -0.6339 0.7734 -0.0000
vn -0.7734 -0.6339 -0.0000
vn 0.9246 -0.3810 -0.0000
vn 0.3810 0.9246 -0.0000
vn 0.5658 -0.8245 -0.0000
vn 0.8245 0.5658 -0.0000
vn 0.9698 0.2438 -0.0000
vn -0.2438 0.9698 -0.0000
vn -0.3963 -0.9181 -0.0000
vn 0.9181 -0.3963 -0.0000
vn -0.8015 0.5980 -0.0000
vn -0.5980 -0.8015 -0.0000
vn 0.9626 0.2710 -0.0000
vn -0.2710 0.9626 -0.0000
vn 0.6104 -0.7921 -0.0000
vn 0.7921 0.6104 -0.0000
vn 0.6788 -0.7343 -0.0000
vn 0.7343 0.6788 -0.0000
vn -0.7952 0.6064 -0.0000
vn -0.6064 -0.7952 -0.0000
vn -0.4240 0.9057 -0.0000
vn -0.9057 -0.4240 -0.0000
vn -0.0385 -0.9993 -0.0000
vn 0.9993 -0.0385 -0.0000
vn 0.5896 0.8077 -0.0000
vn -0.8077 0.5896 -0.0000
vn 0.5938 -0.8046 -0.0000
vn 0.8046 0.5938 -0.0000
vn 0.8807 0.4737 -0.0000
vn -0.4737 0.8807 -0.0000
vn -0.9807 -0.1953 -0.0000
vn 0.1953 -0.9807 -0.0000
vn 0.9993 -0.0386 -0.0000
vn 0.0386 0.9993 -0.0000
vn 0.0882 0.9961 -0.0000
vn -0.9961 0.0882 -0.0000
vn -0.7051 -0.7091 -0.0000
vn 0.7091 -0.7051 -0.0000
vn -0.5086 0.8610 -0.0000
vn -0.8610 -0.5086 -0.0000
vn 0.9995 -0.0302 -0.0000
vn 0.0302 0.9995 -0.0000
vn -0.1740 -0.9847 -0.0000
vn 0.9847 -0.1740 -0.0000
vn -0.7336 -0.6796 -0.0000
vn 0.6796 -0.7335 -0.0000
vn -0.3327 -0.9430 -0.0000
vn 0.9430 -0.3327 -0.0000
vn 0.5331 -0.8460 -0.0000
vn 0.8460 0.5331 -0.0000
vn -0.9390 -0.3439 -0.0000
vn 0.3439 -0.9390 -0.0000
vn -0.2812 -0.9597 -0.0000
vn 0.9597 -0.2812 -0.0000
vn -0.8289 -0.5594 -0.0000
vn 0.5594 -0.8289 -0.0000
vn -0.6042 -0.7968 -0.0000
vn 0.7968 -0.6042 -0.0000
vn -0.9911 0.1328 -0.0000
vn -0.1328 -0.9911 -0.0000
vn 0.5068 -0.8620 -0.0000
vn 0.8620 0.5068 -0.0000
vn -0.8673 0.4978 -0.0000
vn -0.4978 -0.8673 -0.0000
vn -0.1503 -0.9886 -0.0000
vn 0.9886 -0.1503 -0.0000
vn -0.8542 0.5200 -0.0000
vn -0.5199 -0.8542 -0.0000
vn -0.6285 -0.7778 -0.0000
vn 0.7778 -0.6285 -0.0000
vn 0.7557 0.6549 -0.0000
vn -0.6549 0.7557 -0.0000
vn 0.3164 0.9486 -0.0000
vn -0.9486 0.3164 -0.0000
vn -0.0604 -0.9982 -0.0000
vn 0.9982 -0.0604 -0.0000
vn -0.5040 0.8637 -0.0000
vn -0.8637 -0.5040 -0.0000
vn -0.5680 0.8230 -0.0000
vn -0.8230 -0.5680 -0.0000
vn 0.4184 0.9083 -0.0000
vn -0.9083 0.4184 -0.0000
vn -0.8017 -0.5978 -0.0000
vn -0.7931 0.6091 -0.0000
vn 0.9748 -0.2230 -0.0000
vn -0.9871 0.1601 -0.0000
vn 0.6796 -0.7336 -0.0000
vn -0.9911 0.1327 -0.0000
vn -0.8542 0.5199 -0.0000
vn -0.5200 -0.8542 -0.0000
vt 0.038376 0.371048
vt 0.159378 0.250046
vt 0.194166 0.371048
vt 0.420000 0.250000
vt 0.324298 0.384599
vt 0.332846 0.250000
vt 0.183597 0.000000
vt 0.079867 0.150378
vt 0.039548 0.000000
vt 0.406485 0.000000
vt 0.282420 0.163926
vt 0.257324 0.000000
vt 0.683200 0.750259
vt 0.546949 0.843491
vt 0.500000 0.750259
vt 0.966633 0.750219
vt 0.827483 0.844072
vt 0.798992 0.750219
vt 0.574736 0.000000
vt 0.727477 0.180119
vt 0.531923 0.174939
vt 0.943005 0.000000
vt 0.797243 0.175205
vt 0.795077 0.000000
vt 0.947964 0.152455
vt 0.587516 0.250000
vt 0.696219 0.438742
vt 0.532955 0.380692
vt 0.931885 0.250000
vt 0.823776 0.442088
vt 0.822774 0.250000
vt 0.199407 0.500208
vt 0.021869 0.609361
vt 0.026417 0.500208
vt 0.318619 0.500194
vt 0.479294 0.593008
vt 0.310722 0.610752
vt 0.046190 0.750308
vt 0.224718 0.829653
vt 0.019909 0.844918
vt 0.292351 0.750248
vt 0.408285 0.861889
vt 0.278991 0.827976
vt 0.548614 0.500208
vt 0.730526 0.577570
vt 0.530599 0.622715
vt 0.802250 0.500257
vt 0.920277 0.587538
vt 0.777322 0.599968
vt 0.198931 0.750308
vt 0.958681 0.395835
vt 0.067034 0.250046
vt 0.455465 0.376315
vt 0.198343 0.201154
vt 0.456826 0.176726
vt 0.726638 0.843491
vt 0.977378 0.853368
vt 0.711067 0.000000
vt 0.715504 0.250000
vt 0.225835 0.590819
vt 0.479294 0.500194
vt 0.477396 0.750248
vt 0.716640 0.500208
vt 0.962020 0.500257
s 0
f 1/1/1 3/2/1 4/3/1
f 6/4/2 8/5/2 5/6/2
f 9/7/3 11/8/3 12/9/3
f 14/10/4 16/11/4 13/12/4
f 17/1/5 19/2/5 20/3/5
f 22/4/6 24/5/6 21/6/6
f 25/1/7 27/2/7 28/3/7
f 30/4/8 32/5/8 29/6/8
f 33/1/9 35/2/9 36/3/9
f 38/4/10 40/5/10 37/6/10
f 42/13/11 44/14/11 41/15/11
f 46/16/12 48/17/12 45/18/12
f 49/19/13 51/20/13 52/21/13
f 54/22/14 56/23/14 53/24/14
f 57/19/15 59/20/15 60/21/15
f 61/24/16 63/25/16 64/23/16
f 65/19/17 67/20/17 68/21/17
f 70/22/18 72/23/18 69/24/18
f 73/1/19 75/2/19 76/3/19
f 78/4/20 80/5/20 77/6/20
f 81/26/21 83/27/21 84/28/21
f 85/29/22 87/30/22 88/31/22
f 89/1/23 91/2/23 92/3/23
f 94/4/24 96/5/24 93/6/24
f 97/7/25 99/8/25 100/9/25
f 102/10/26 104/11/26 101/12/26
f 106/32/27 108/33/27 105/34/27
f 109/35/28 111/36/28 112/37/28
f 113/1/29 115/2/29 116/3/29
f 118/4/30 120/5/30 117/6/30
f 121/26/31 123/27/31 124/28/31
f 125/29/32 127/30/32 128/31/32
f 129/26/33 131/27/33 132/28/33
f 133/29/34 135/30/34 136/31/34
f 137/26/35 139/27/35 140/28/35
f 141/29/36 143/30/36 144/31/36
f 145/7/37 147/8/37 148/9/37
f 150/10/38 152/11/38 149/12/38
f 153/1/39 155/2/39 156/3/39
f 158/4/40 160/5/40 157/6/40
f 161/26/41 163/27/41 164/28/41
f 165/29/42 167/30/42 168/31/42
f 170/32/43 172/33/43 169/34/43
f 173/35/44 175/36/44 176/37/44
f 177/7/45 179/8/45 180/9/45
f 182/10/46 184/11/46 181/12/46
f 186/13/47 188/14/47 185/15/47
f 190/16/48 192/17/48 189/18/48
f 193/26/49 195/27/49 196/28/49
f 197/29/50 199/30/50 200/31/50
f 201/7/51 203/8/51 204/9/51
f 206/10/52 208/11/52 205/12/52
f 209/7/53 211/8/53 212/9/53
f 214/10/54 216/11/54 213/12/54
f 217/19/55 219/20/55 220/21/55
f 222/22/56 224/23/56 221/24/56
f 225/19/57 227/20/57 228/21/57
f 229/24/58 231/25/58 232/23/58
f 233/1/59 235/2/59 236/3/59
f 238/4/60 240/5/60 237/6/60
f 241/26/61 243/27/61 244/28/61
f 245/29/62 247/30/62 248/31/62
f 249/19/63 251/20/63 252/21/63
f 254/22/64 256/23/64 253/24/64
f 257/1/65 259/2/65 260/3/65
f 262/4/66 264/5/66 261/6/66
f 265/26/67 267/27/67 268/28/67
f 269/29/68 271/30/68 272/31/68
f 273/1/69 275/2/69 276/3/69
f 278/4/70 280/5/70 277/6/70
f 281/1/71 283/2/71 284/3/71
f 286/4/72 288/5/72 285/6/72
f 289/38/73 291/39/73 292/40/73
f 293/41/74 295/42/74 296/43/74
f 297/38/75 299/39/75 300/40/75
f 301/41/76 303/42/76 304/43/76
f 305/19/77 307/20/77 308/21/77
f 310/22/78 312/23/78 309/24/78
f 313/26/79 315/27/79 316/28/79
f 317/29/80 319/30/80 320/31/80
f 321/19/81 323/20/81 324/21/81
f 326/22/82 328/23/82 325/24/82
f 329/1/83 331/2/83 332/3/83
f 334/4/84 336/5/84 333/6/84
f 337/7/85 339/8/85 340/9/85
f 342/10/86 344/11/86 341/12/86
f 345/1/87 347/2/87 348/3/87
f 350/4/88 352/5/88 349/6/88
f 353/26/89 355/27/89 356/28/89
f 357/29/90 359/30/90 360/31/90
f 361/26/91 363/27/91 364/28/91
f 365/29/92 367/30/92 368/31/92
f 369/19/93 371/20/93 372/21/93
f 374/22/94 376/23/94 373/24/94
f 377/7/95 379/8/95 380/9/95
f 382/10/96 384/11/96 381/12/96
f 385/1/97 387/2/97 388/3/97
f 390/4/98 392/5/98 389/6/98
f 393/26/99 395/27/99 396/28/99
f 397/29/100 399/30/100 400/31/100
f 401/7/101 403/8/101 404/9/101
f 406/10/102 408/11/102 405/12/102
f 409/7/103 411/8/103 412/9/103
f 414/10/104 416/11/104 413/12/104
f 417/7/105 419/8/105 420/9/105
f 422/10/106 424/11/106 421/12/106
f 425/19/107 427/20/107 428/21/107
f 430/22/108 432/23/108 429/24/108
f 433/7/109 435/8/109 436/9/109
f 438/10/110 440/11/110 437/12/110
f 442/13/111 444/14/111 441/15/111
f 446/16/112 448/17/112 445/18/112
f 449/44/113 451/45/113 452/46/113
f 453/47/114 455/48/114 456/49/114
f 457/26/115 459/27/115 460/28/115
f 461/29/116 463/30/116 464/31/116
f 465/26/117 467/27/117 468/28/117
f 469/29/118 471/30/118 472/31/118
f 473/19/119 475/20/119 476/21/119
f 478/22/120 480/23/120 477/24/120
f 481/7/121 483/8/121 484/9/121
f 486/10/122 488/11/122 485/12/122
f 489/7/123 491/8/123 492/9/123
f 494/10/124 496/11/124 493/12/124
f 497/38/125 499/39/125 500/40/125
f 501/41/126 503/42/126 504/43/126
f 505/7/127 507/8/127 508/9/127
f 510/10/128 512/11/128 509/12/128
f 513/19/129 515/20/129 516/21/129
f 518/22/130 520/23/130 517/24/130
f 521/1/131 523/2/131 524/3/131
f 526/4/132 528/5/132 525/6/132
f 529/1/133 531/2/133 532/3/133
f 534/4/134 536/5/134 533/6/134
f 537/7/135 539/8/135 540/9/135
f 542/10/136 544/11/136 541/12/136
f 545/1/137 547/2/137 548/3/137
f 550/4/138 552/5/138 549/6/138
f 554/50/139 556/40/139 553/38/139
f 557/41/140 559/42/140 560/43/140
f 561/19/141 563/20/141 564/21/141
f 566/22/142 568/23/142 565/24/142
f 569/26/143 571/27/143 572/28/143
f 573/29/144 575/30/144 576/31/144
f 577/7/145 579/8/145 580/9/145
f 582/10/146 584/11/146 581/12/146
f 585/7/147 587/8/147 588/9/147
f 590/10/148 592/11/148 589/12/148
f 594/13/149 596/14/149 593/15/149
f 598/16/150 600/17/150 597/18/150
f 601/26/151 603/27/151 604/28/151
f 605/29/152 607/30/152 608/31/152
f 609/1/153 611/2/153 612/3/153
f 614/4/154 616/5/154 613/6/154
f 617/19/155 619/20/155 620/21/155
f 621/24/156 623/25/156 624/23/156
f 625/26/157 627/27/157 628/28/157
f 629/29/158 631/30/158 632/31/158
f 633/38/159 635/39/159 636/40/159
f 637/41/160 639/42/160 640/43/160
f 641/19/161 643/20/161 644/21/161
f 646/22/162 648/23/162 645/24/162
f 649/26/163 651/27/163 652/28/163
f 653/29/164 655/30/164 656/31/164
f 657/19/165 659/20/165 660/21/165
f 661/24/166 663/25/166 664/23/166
f 665/19/167 667/20/167 668/21/167
f 670/22/168 672/23/168 669/24/168
f 673/26/169 675/27/169 676/28/169
f 677/29/170 679/30/170 680/31/170
f 681/1/171 683/2/171 684/3/171
f 686/4/172 688/5/172 685/6/172
f 690/13/173 692/14/173 689/15/173
f 694/16/174 696/17/174 693/18/174
f 697/26/175 699/27/175 700/28/175
f 702/51/176 704/31/176 701/29/176
f 705/19/177 707/20/177 708/21/177
f 710/22/178 712/23/178 709/24/178
f 713/26/179 715/27/179 716/28/179
f 717/29/180 719/30/180 720/31/180
f 721/26/181 723/27/181 724/28/181
f 725/29/182 727/30/182 728/31/182
f 729/26/183 731/27/183 732/28/183
f 733/29/184 735/30/184 736/31/184
f 737/1/185 739/2/185 740/3/185
f 742/4/186 744/5/186 741/6/186
f 745/19/187 747/20/187 748/21/187
f 750/22/188 752/23/188 749/24/188
f 753/19/189 755/20/189 756/21/189
f 758/22/190 760/23/190 757/24/190
f 761/38/191 763/39/191 764/40/191
f 765/41/192 767/42/192 768/43/192
f 769/38/193 771/39/193 772/40/193
f 773/41/194 775/42/194 776/43/194
f 777/26/195 779/27/195 780/28/195
f 781/29/196 783/30/196 784/31/196
f 785/1/197 787/2/197 788/3/197
f 790/4/198 792/5/198 789/6/198
f 793/26/199 795/27/199 796/28/199
f 797/29/200 799/30/200 800/31/200
f 801/26/201 803/27/201 804/28/201
f 805/29/202 807/30/202 808/31/202
f 809/26/203 811/27/203 812/28/203
f 813/29/204 815/30/204 816/31/204
f 817/1/205 819/2/205 820/3/205
f 822/4/206 824/5/206 821/6/206
f 825/7/207 827/8/207 828/9/207
f 830/10/208 832/11/208 829/12/208
f 833/19/209 835/20/209 836/21/209
f 838/22/210 840/23/210 837/24/210
f 841/19/211 843/20/211 844/21/211
f 846/22/212 848/23/212 845/24/212
f 850/13/213 852/14/213 849/15/213
f 854/16/214 856/17/214 853/18/214
f 857/1/215 859/2/215 860/3/215
f 862/4/216 864/5/216 861/6/216
f 865/26/217 867/27/217 868/28/217
f 870/51/218 872/31/218 869/29/218
f 873/26/219 875/27/219 876/28/219
f 877/29/220 879/30/220 880/31/220
f 881/19/221 883/20/221 884/21/221
f 886/22/222 888/23/222 885/24/222
f 889/26/223 891/27/223 892/28/223
f 893/29/224 895/30/224 896/31/224
f 897/26/225 899/27/225 900/28/225
f 902/51/226 904/31/226 901/29/226
f 905/7/227 907/8/227 908/9/227
f 910/10/228 912/11/228 909/12/228
f 913/26/229 915/27/229 916/28/229
f 917/29/230 919/30/230 920/31/230
f 922/13/231 924/14/231 921/15/231
f 926/16/232 928/17/232 925/18/232
f 929/26/233 931/27/233 932/28/233
f 933/29/234 935/30/234 936/31/234
f 937/1/235 939/2/235 940/3/235
f 942/4/236 944/5/236 941/6/236
f 945/44/237 947/45/237 948/46/237
f 949/47/238 951/48/238 952/49/238
f 1/1/1 2/52/1 3/2/1
f 6/4/2 7/53/2 8/5/2
f 9/7/3 10/54/3 11/8/3
f 14/10/4 15/55/4 16/11/4
f 17/1/5 18/52/5 19/2/5
f 22/4/6 23/53/6 24/5/6
f 25/1/7 26/52/7 27/2/7
f 30/4/8 31/53/8 32/5/8
f 33/1/9 34/52/9 35/2/9
f 38/4/10 39/53/10 40/5/10
f 42/13/11 43/56/11 44/14/11
f 46/16/12 47/57/12 48/17/12
f 49/19/13 50/58/13 51/20/13
f 54/22/14 55/25/14 56/23/14
f 57/19/15 58/58/15 59/20/15
f 61/24/16 62/22/16 63/25/16
f 65/19/17 66/58/17 67/20/17
f 70/22/18 71/25/18 72/23/18
f 73/1/19 74/52/19 75/2/19
f 78/4/20 79/53/20 80/5/20
f 81/26/21 82/59/21 83/27/21
f 85/29/22 86/51/22 87/30/22
f 89/1/23 90/52/23 91/2/23
f 94/4/239 95/53/239 96/5/239
f 97/7/25 98/54/25 99/8/25
f 102/10/26 103/55/26 104/11/26
f 106/32/27 107/60/27 108/33/27
f 109/35/28 110/61/28 111/36/28
f 113/1/29 114/52/29 115/2/29
f 118/4/30 119/53/30 120/5/30
f 121/26/31 122/59/31 123/27/31
f 125/29/32 126/51/32 127/30/32
f 129/26/33 130/59/33 131/27/33
f 133/29/34 134/51/34 135/30/34
f 137/26/35 138/59/35 139/27/35
f 141/29/36 142/51/36 143/30/36
f 145/7/37 146/54/37 147/8/37
f 150/10/38 151/55/38 152/11/38
f 153/1/39 154/52/39 155/2/39
f 158/4/40 159/53/40 160/5/40
f 161/26/41 162/59/41 163/27/41
f 165/29/42 166/51/42 167/30/42
f 170/32/43 171/60/43 172/33/43
f 173/35/44 174/61/44 175/36/44
f 177/7/45 178/54/45 179/8/45
f 182/10/46 183/55/46 184/11/46
f 186/13/47 187/56/47 188/14/47
f 190/16/48 191/57/48 192/17/48
f 193/26/49 194/59/49 195/27/49
f 197/29/50 198/51/50 199/30/50
f 201/7/51 202/54/51 203/8/51
f 206/10/52 207/55/52 208/11/52
f 209/7/53 210/54/53 211/8/53
f 214/10/54 215/55/54 216/11/54
f 217/19/55 218/58/55 219/20/55
f 222/22/56 223/25/56 224/23/56
f 225/19/57 226/58/57 227/20/57
f 229/24/58 230/22/58 231/25/58
f 233/1/59 234/52/59 235/2/59
f 238/4/60 239/53/60 240/5/60
f 241/26/61 242/59/61 243/27/61
f 245/29/62 246/51/62 247/30/62
f 249/19/63 250/58/63 251/20/63
f 254/22/64 255/25/64 256/23/64
f 257/1/65 258/52/65 259/2/65
f 262/4/66 263/53/66 264/5/66
f 265/26/67 266/59/67 267/27/67
f 269/29/68 270/51/68 271/30/68
f 273/1/69 274/52/69 275/2/69
f 278/4/70 279/53/70 280/5/70
f 281/1/71 282/52/71 283/2/71
f 286/4/72 287/53/72 288/5/72
f 289/38/73 290/50/73 291/39/73
f 293/41/240 294/62/240 295/42/240
f 297/38/75 298/50/75 299/39/75
f 301/41/76 302/62/76 303/42/76
f 305/19/77 306/58/77 307/20/77
f 310/22/78 311/25/78 312/23/78
f 313/26/79 314/59/79 315/27/79
f 317/29/80 318/51/80 319/30/80
f 321/19/81 322/58/81 323/20/81
f 326/22/82 327/25/82 328/23/82
f 329/1/83 330/52/83 331/2/83
f 334/4/84 335/53/84 336/5/84
f 337/7/85 338/54/85 339/8/85
f 342/10/86 343/55/86 344/11/86
f 345/1/87 346/52/87 347/2/87
f 350/4/88 351/53/88 352/5/88
f 353/26/89 354/59/89 355/27/89
f 357/29/90 358/51/90 359/30/90
f 361/26/91 362/59/91 363/27/91
f 365/29/92 366/51/92 367/30/92
f 369/19/93 370/58/93 371/20/93
f 374/22/94 375/25/94 376/23/94
f 377/7/95 378/54/95 379/8/95
f 382/10/96 383/55/96 384/11/96
f 385/1/97 386/52/97 387/2/97
f 390/4/98 391/53/98 392/5/98
f 393/26/99 394/59/99 395/27/99
f 397/29/100 398/51/100 399/30/100
f 401/7/101 402/54/101 403/8/101
f 406/10/102 407/55/102 408/11/102
f 409/7/103 410/54/103 411/8/103
f 414/10/104 415/55/104 416/11/104
f 417/7/105 418/54/105 419/8/105
f 422/10/241 423/55/241 424/11/241
f 425/19/107 426/58/107 427/20/107
f 430/22/108 431/25/108 432/23/108
f 433/7/109 434/54/109 435/8/109
f 438/10/110 439/55/110 440/11/110
f 442/13/111 443/56/111 444/14/111
f 446/16/112 447/57/112 448/17/112
f 449/44/113 450/63/113 451/45/113
f 453/47/114 454/64/114 455/48/114
f 457/26/115 458/59/115 459/27/115
f 461/29/116 462/51/116 463/30/116
f 465/26/117 466/59/117 467/27/117
f 469/29/118 470/51/118 471/30/118
f 473/19/119 474/58/119 475/20/119
f 478/22/120 479/25/120 480/23/120
f 481/7/121 482/54/121 483/8/121
f 486/10/122 487/55/122 488/11/122
f 489/7/123 490/54/123 491/8/123
f 494/10/124 495/55/124 496/11/124
f 497/38/125 498/50/125 499/39/125
f 501/41/126 502/62/126 503/42/126
f 505/7/127 506/54/127 507/8/127
f 510/10/128 511/55/128 512/11/128
f 513/19/129 514/58/129 515/20/129
f 518/22/130 519/25/130 520/23/130
f 521/1/131 522/52/131 523/2/131
f 526/4/132 527/53/132 528/5/132
f 529/1/133 530/52/133 531/2/133
f 534/4/134 535/53/134 536/5/134
f 537/7/135 538/54/135 539/8/135
f 542/10/136 543/55/136 544/11/136
f 545/1/137 546/52/137 547/2/137
f 550/4/138 551/53/138 552/5/138
f 554/50/242 555/39/242 556/40/242
f 557/41/140 558/62/140 559/42/140
f 561/19/141 562/58/141 563/20/141
f 566/22/142 567/25/142 568/23/142
f 569/26/143 570/59/143 571/27/143
f 573/29/144 574/51/144 575/30/144
f 577/7/145 578/54/145 579/8/145
f 582/10/146 583/55/146 584/11/146
f 585/7/147 586/54/147 587/8/147
f 590/10/148 591/55/148 592/11/148
f 594/13/149 595/56/149 596/14/149
f 598/16/150 599/57/150 600/17/150
f 601/26/151 602/59/151 603/27/151
f 605/29/152 606/51/152 607/30/152
f 609/1/153 610/52/153 611/2/153
f 614/4/154 615/53/154 616/5/154
f 617/19/155 618/58/155 619/20/155
f 621/24/156 622/22/156 623/25/156
f 625/26/157 626/59/157 627/27/157
f 629/29/158 630/51/158 631/30/158
f 633/38/159 634/50/159 635/39/159
f 637/41/160 638/62/160 639/42/160
f 641/19/161 642/58/161 643/20/161
f 646/22/162 647/25/162 648/23/162
f 649/26/163 650/59/163 651/27/163
f 653/29/164 654/51/164 655/30/164
f 657/19/165 658/58/165 659/20/165
f 661/24/166 662/22/166 663/25/166
f 665/19/167 666/58/167 667/20/167
f 670/22/168 671/25/168 672/23/168
f 673/26/169 674/59/169 675/27/169
f 677/29/170 678/51/170 679/30/170
f 681/1/171 682/52/171 683/2/171
f 686/4/172 687/53/172 688/5/172
f 690/13/173 691/56/173 692/14/173
f 694/16/174 695/57/174 696/17/174
f 697/26/175 698/59/175 699/27/175
f 702/51/176 703/30/176 704/31/176
f 705/19/177 706/58/177 707/20/177
f 710/22/178 711/25/178 712/23/178
f 713/26/179 714/59/179 715/27/179
f 717/29/180 718/51/180 719/30/180
f 721/26/181 722/59/181 723/27/181
f 725/29/182 726/51/182 727/30/182
f 729/26/183 730/59/183 731/27/183
f 733/29/184 734/51/184 735/30/184
f 737/1/185 738/52/185 739/2/185
f 742/4/186 743/53/186 744/5/186
f 745/19/187 746/58/187 747/20/187
f 750/22/188 751/25/188 752/23/188
f 753/19/189 754/58/189 755/20/189
f 758/22/190 759/25/190 760/23/190
f 761/38/191 762/50/191 763/39/191
f 765/41/192 766/62/192 767/42/192
f 769/38/193 770/50/193 771/39/193
f 773/41/194 774/62/194 775/42/194
f 777/26/195 778/59/195 779/27/195
f 781/29/196 782/51/196 783/30/196
f 785/1/197 786/52/197 787/2/197
f 790/4/198 791/53/198 792/5/198
f 793/26/199 794/59/199 795/27/199
f 797/29/200 798/51/200 799/30/200
f 801/26/201 802/59/201 803/27/201
f 805/29/243 806/51/243 807/30/243
f 809/26/203 810/59/203 811/27/203
f 813/29/204 814/51/204 815/30/204
f 817/1/205 818/52/205 819/2/205
f 822/4/206 823/53/206 824/5/206
f 825/7/207 826/54/207 827/8/207
f 830/10/208 831/55/208 832/11/208
f 833/19/209 834/58/209 835/20/209
f 838/22/210 839/25/210 840/23/210
f 841/19/211 842/58/211 843/20/211
f 846/22/212 847/25/212 848/23/212
f 850/13/213 851/56/213 852/14/213
f 854/16/214 855/57/214 856/17/214
f 857/1/244 858/52/244 859/2/244
f 862/4/216 863/53/216 864/5/216
f 865/26/217 866/59/217 867/27/217
f 870/51/218 871/30/218 872/31/218
f 873/26/219 874/59/219 875/27/219
f 877/29/220 878/51/220 879/30/220
f 881/19/221 882/58/221 883/20/221
f 886/22/222 887/25/222 888/23/222
f 889/26/245 890/59/245 891/27/245
f 893/29/246 894/51/246 895/30/246
f 897/26/225 898/59/225 899/27/225
f 902/51/226 903/30/226 904/31/226
f 905/7/227 906/54/227 907/8/227
f 910/10/228 911/55/228 912/11/228
f 913/26/229 914/59/229 915/27/229
f 917/29/230 918/51/230 919/30/230
f 922/13/231 923/56/231 924/14/231
f 926/16/232 927/57/232 928/17/232
f 929/26/233 930/59/233 931/27/233
f 933/29/234 934/51/234 935/30/234
f 937/1/235 938/52/235 939/2/235
f 942/4/236 943/53/236 944/5/236
f 945/44/237 946/63/237 947/45/237
f 949/47/238 950/64/238 951/48/238
