mtllib grass_02_03_b1.mtl
usemtl grass_02_03_b1
# Blender 5.1.1
# www.blender.org
o grass_02_03_b1
v 13.101546 8.445723 0.109583
v 13.052562 8.491115 0.026417
v 12.894723 8.637376 0.026417
v 12.835260 8.692476 0.109583
v 13.020250 8.654977 0.026385
v 12.882208 8.506007 0.026385
v 12.826036 8.445390 0.113203
v 13.033789 8.669586 0.118897
v 13.452930 14.966337 1.281946
v 13.356011 15.102633 1.281946
v 13.370615 15.082096 1.450499
v 13.494246 14.908236 1.398659
v 13.363969 14.963179 1.281946
v 13.335433 14.942888 1.412182
v 13.479094 15.045044 1.453487
v 13.480161 15.045802 1.281946
v 15.127643 5.194443 -0.928838
v 14.992082 5.284082 -0.928838
v 15.012507 5.270575 -0.763964
v 15.185431 5.156230 -0.814673
v 15.048100 5.160445 -0.928838
v 15.029333 5.132064 -0.801445
v 15.123816 5.274950 -0.761041
v 15.124517 5.276011 -0.928838
v 13.174753 4.439286 -0.847174
v 13.317345 4.622229 -0.847174
v 13.334509 4.644249 -0.749539
v 13.129974 4.381834 -0.752347
v 13.334575 4.423141 -0.847174
v 13.136069 4.577863 -0.847174
v 13.129415 4.583050 -0.764535
v 13.331668 4.425407 -0.752203
v 12.835152 15.262537 1.428809
v 12.853383 15.273359 1.533779
v 12.706907 15.186415 1.507282
v 12.657061 15.156827 1.428809
v 12.849063 15.074051 1.428809
v 12.739601 15.258461 1.428809
v 12.702659 15.320700 1.521032
v 12.830647 15.105077 1.514352
v 14.237906 12.568605 0.667941
v 14.038478 12.510675 0.667941
v 14.014473 12.503702 0.776938
v 14.300534 12.586798 0.773803
v 14.130418 12.664161 0.667941
v 14.193276 12.447767 0.667941
v 14.195383 12.440513 0.760197
v 14.131338 12.660992 0.773964
v 13.113841 12.485340 0.800560
v 13.248278 12.434126 0.800560
v 13.228021 12.441843 0.907095
v 13.056531 12.507172 0.874329
v 13.175976 12.530091 0.800560
v 13.186698 12.558237 0.882876
v 13.132716 12.416536 0.908984
v 13.132316 12.415483 0.800560
v 12.187903 11.545588 0.730379
v 12.224575 11.338018 0.730379
v 12.228989 11.313033 0.839096
v 12.176387 11.610775 0.835969
v 12.079736 11.447561 0.730379
v 12.304965 11.487352 0.730379
v 12.312515 11.488687 0.822398
v 12.083035 11.448144 0.836130
v 15.125354 7.294734 -0.516424
v 14.978703 7.257870 -0.516424
v 14.961050 7.253433 -0.430988
v 15.171409 7.306310 -0.433445
v 15.049674 7.367116 -0.516424
v 15.089674 7.207989 -0.516424
v 15.091015 7.202654 -0.444110
v 15.050260 7.364786 -0.433319
v 13.141556 13.225693 0.971968
v 12.997148 13.303449 0.971968
v 12.979765 13.312808 1.188104
v 13.186906 13.201275 1.181888
v 13.133898 13.339020 0.971968
v 13.049527 13.182326 0.971968
v 13.046700 13.177073 1.154907
v 13.132663 13.336724 1.182207
v 12.192271 9.757547 0.384404
v 12.066672 9.852055 0.384404
v 12.085598 9.837814 0.526213
v 12.245813 9.717260 0.482598
v 12.113483 9.729403 0.384404
v 12.093698 9.703108 0.493975
v 12.193311 9.835493 0.528727
v 12.194051 9.836476 0.384404
v 13.891369 10.411320 0.406983
v 13.896356 10.466198 0.304692
v 13.912422 10.643029 0.304692
v 13.918475 10.709646 0.406983
v 13.987162 10.569863 0.304653
v 13.820269 10.585028 0.304653
v 13.752357 10.591198 0.411435
v 14.003531 10.568377 0.418438
v 14.525932 12.094604 0.521862
v 14.387867 11.966725 0.521862
v 14.408670 11.985994 0.726960
v 14.584788 12.149117 0.663880
v 14.542332 11.995789 0.521862
v 14.569105 11.966883 0.680334
v 14.434318 12.112409 0.730596
v 14.433316 12.113489 0.521862
v 14.546790 5.586326 -0.786289
v 14.340435 5.505992 -0.786289
v 14.371529 5.518097 -0.663725
v 14.634759 5.620572 -0.701421
v 14.522059 5.471084 -0.786289
v 14.538878 5.427881 -0.691588
v 14.454204 5.645386 -0.661553
v 14.453575 5.647002 -0.786289
v 15.185667 3.717278 -1.255403
v 15.309672 3.515621 -1.255403
v 15.290987 3.546006 -1.160303
v 15.132805 3.803244 -1.189552
v 15.311612 3.713332 -1.255403
v 15.353831 3.739295 -1.181923
v 15.141277 3.608589 -1.158617
v 15.139698 3.607618 -1.255403
v 13.193246 13.871082 1.100275
v 12.944894 13.909193 1.100275
v 12.914999 13.913780 1.207822
v 13.271238 13.859114 1.204729
v 13.124022 14.030729 1.100275
v 13.082670 13.761249 1.100275
v 13.081284 13.752215 1.191304
v 13.123417 14.026782 1.204888
v 14.944395 12.575749 0.583425
v 14.699611 12.661298 0.583425
v 14.679381 12.668366 0.662127
v 14.970641 12.566577 0.708055
v 14.870154 12.720624 0.583475
v 14.788810 12.487868 0.583475
v 14.810062 12.548679 0.672268
v 14.882846 12.756940 0.684914
v 14.944900 9.421090 -0.068426
v 14.742272 9.336772 -0.068426
v 14.717882 9.326623 0.037699
v 15.008533 9.447570 0.034646
v 14.820763 9.508793 -0.068426
v 14.912253 9.288928 -0.068426
v 14.915320 9.281557 0.021399
v 14.822103 9.505572 0.034803
v 15.697502 4.583259 -1.147684
v 15.679636 4.595907 -1.044039
v 15.823180 4.494284 -1.070202
v 15.872030 4.459701 -1.147684
v 15.869434 4.675571 -1.147684
v 15.741491 4.494850 -1.147684
v 15.698311 4.433857 -1.056626
v 15.847908 4.645166 -1.063221
v 14.897749 4.283729 -0.989605
v 14.921121 4.336743 -1.068967
v 14.996427 4.507566 -1.068967
v 15.024796 4.571920 -0.989605
v 15.046371 4.409595 -1.068997
v 14.885147 4.480669 -1.068997
v 14.819543 4.509591 -0.986150
v 15.062182 4.402625 -0.980717
v 14.158046 14.980991 1.325050
v 14.155383 14.932713 1.134781
v 14.146804 14.777148 1.134781
v 14.143572 14.718543 1.325050
v 14.078984 14.838979 1.134709
v 14.225806 14.830882 1.134709
v 14.285551 14.827587 1.333332
v 14.064585 14.839773 1.346359
v 12.484865 8.418234 0.081501
v 12.489531 8.388795 0.257303
v 12.452049 8.625319 0.212927
v 12.439294 8.705812 0.081501
v 12.231400 8.497988 0.081501
v 12.529184 8.545177 0.081501
v 12.629684 8.561103 0.235954
v 12.281502 8.505927 0.224767
v 13.042511 11.821150 0.742787
v 13.071615 11.783061 0.646288
v 13.165394 11.660331 0.646288
v 13.200723 11.614096 0.742787
v 13.074457 11.663212 0.646251
v 13.190290 11.751721 0.646251
v 13.237424 11.787737 0.746988
v 13.063096 11.654531 0.753594
v 15.421214 5.752909 -0.841712
v 15.289104 5.869400 -0.841712
v 15.268922 5.887197 -0.761696
v 15.424687 5.749846 -0.745322
v 15.383895 5.862351 -0.841725
v 15.275697 5.739646 -0.841725
v 15.275697 5.739646 -0.759763
v 15.389213 5.868382 -0.744094
v 12.453148 8.610537 0.104514
v 12.438943 8.594654 0.279879
v 12.553070 8.722264 0.235613
v 12.591909 8.765692 0.104514
v 12.382846 8.787007 0.104514
v 12.543507 8.643323 0.104514
v 12.597729 8.594830 0.258583
v 12.409876 8.762834 0.247423
v 13.378113 3.530536 -1.061033
v 13.361783 3.516344 -0.943465
v 13.492986 3.630368 -0.973142
v 13.537636 3.669172 -1.061033
v 13.329751 3.717248 -1.061033
v 13.473307 3.552064 -1.061033
v 13.521756 3.496315 -0.957743
v 13.353904 3.689456 -0.965224
v 13.857866 8.645044 -0.098424
v 13.906883 8.457115 -0.098424
v 13.912784 8.434494 0.042992
v 13.842473 8.704062 0.038925
v 13.765765 8.547021 -0.098424
v 13.969683 8.600207 -0.098424
v 13.976519 8.601991 0.021272
v 13.768752 8.547800 0.039134
v 13.124543 8.095866 -0.094691
v 13.251521 8.211676 -0.094691
v 13.232388 8.194225 0.013113
v 13.070414 8.046498 -0.020043
v 13.110260 8.186219 -0.094691
v 13.086015 8.212803 -0.011394
v 13.208081 8.078964 0.015024
v 13.208987 8.077971 -0.094691
v 16.121733 13.671331 0.605482
v 15.880917 13.526682 0.605482
v 15.840260 13.502261 0.687367
v 16.163168 13.696219 0.703120
v 15.919208 13.727004 0.605420
v 16.094450 13.435255 0.605420
v 16.029001 13.544218 0.720634
v 15.906556 13.748067 0.685636
v 14.095965 4.645132 -0.751930
v 14.069108 4.700594 -0.879794
v 13.982568 4.879306 -0.879794
v 13.949966 4.946632 -0.751930
v 14.096366 4.852279 -0.879842
v 13.927696 4.770602 -0.879842
v 13.859062 4.737367 -0.746364
v 14.112908 4.860290 -0.737610
v 13.383396 4.035726 -0.949440
v 13.269699 4.184216 -0.949440
v 13.286831 4.161841 -0.835210
v 13.431865 3.972425 -0.870343
v 13.284101 4.028681 -0.949440
v 13.253013 4.004878 -0.861178
v 13.409527 4.124718 -0.833185
v 13.410689 4.125608 -0.949440
v 15.612489 5.691463 -0.790350
v 15.664513 5.671709 -0.931606
v 15.832144 5.608059 -0.931606
v 15.895294 5.584080 -0.790350
v 15.740682 5.555233 -0.931660
v 15.800755 5.713444 -0.931660
v 15.825200 5.777822 -0.784202
v 15.734790 5.539717 -0.774531
v 14.491053 13.230899 0.842850
v 14.491346 13.165154 0.717720
v 14.492291 12.953311 0.717720
v 14.492648 12.873505 0.842850
v 14.395236 13.031745 0.717672
v 14.595174 13.032638 0.717672
v 14.676532 13.033001 0.848296
v 14.375627 13.031658 0.856863
v 15.377790 9.786507 0.031933
v 15.342276 9.733316 -0.076158
v 15.227840 9.561925 -0.076158
v 15.184730 9.497358 0.031933
v 15.192205 9.677970 -0.076199
v 15.353964 9.569965 -0.076199
v 15.419786 9.526016 0.036638
v 15.176340 9.688562 0.044038
v 14.761856 12.070328 0.517390
v 14.679159 12.297232 0.517390
v 14.666526 12.331896 0.597986
v 14.764030 12.064363 0.614479
v 14.788682 12.226587 0.517377
v 14.577932 12.149777 0.517377
v 14.577932 12.149777 0.599933
v 14.799041 12.230363 0.615717
v 12.429609 3.926591 -0.859158
v 12.347193 4.088855 -0.859158
v 12.359611 4.064405 -0.685318
v 12.464744 3.857419 -0.738784
v 12.333353 3.937483 -0.859158
v 12.299381 3.920228 -0.724837
v 12.470413 4.007099 -0.682236
v 12.471684 4.007744 -0.859158
v 14.431090 7.340624 -0.435927
v 14.605538 7.208906 -0.435927
v 14.579252 7.228753 -0.250033
v 14.356725 7.396775 -0.307207
v 14.540724 7.379581 -0.435927
v 14.568301 7.416104 -0.292293
v 14.429465 7.232230 -0.246738
v 14.428433 7.230865 -0.435927
v 15.633161 10.121478 -0.030342
v 15.499935 9.987733 -0.030342
v 15.520010 10.007886 0.092607
v 15.689954 10.178493 0.054792
v 15.653585 10.023096 -0.030342
v 15.681587 9.995203 0.064656
v 15.540615 10.135628 0.094786
v 15.539568 10.136670 -0.030342
v 12.082069 5.501234 -0.519542
v 12.080771 5.521760 -0.370225
v 12.091200 5.356843 -0.407916
v 12.094748 5.300719 -0.519542
v 12.251030 5.430025 -0.519542
v 12.043400 5.416896 -0.519542
v 11.973326 5.412465 -0.388357
v 12.216097 5.427816 -0.397859
v 15.278972 14.666100 1.031000
v 15.312248 14.715055 0.940526
v 15.419473 14.872797 0.940526
v 15.459867 14.932222 1.031000
v 15.451562 14.765125 0.940492
v 15.302685 14.866323 0.940492
v 15.242105 14.907503 1.034938
v 15.466164 14.755199 1.041132
v 15.895724 6.889043 -0.569135
v 15.838630 6.861650 -0.694485
v 15.654659 6.773384 -0.694485
v 15.585353 6.740132 -0.569135
v 15.682856 6.890224 -0.694532
v 15.766162 6.716592 -0.694532
v 15.800060 6.645939 -0.563679
v 15.674685 6.907253 -0.555097
v 15.923661 10.128322 -0.045259
v 15.943404 10.114428 0.088995
v 15.784780 10.226055 0.055106
v 15.730798 10.264043 -0.045259
v 15.734334 10.025978 -0.045259
v 15.874872 10.225685 -0.045259
v 15.922303 10.293086 0.072691
v 15.757978 10.059578 0.064148
v 13.783852 14.624165 1.142126
v 13.916552 14.623191 1.142126
v 13.896556 14.623338 1.251341
v 13.727283 14.624579 1.217751
v 13.823149 14.682858 1.142126
v 13.823352 14.710640 1.226513
v 13.822327 14.570770 1.253277
v 13.822319 14.569732 1.142126
v 13.203426 11.287219 0.536199
v 13.209635 11.307764 0.638754
v 13.159756 11.142700 0.612867
v 13.142781 11.086527 0.536199
v 13.342705 11.156039 0.536199
v 13.134892 11.218836 0.536199
v 13.064754 11.240029 0.626300
v 13.307741 11.166604 0.619774
v 13.350297 3.800427 -0.881666
v 13.372073 3.750467 -1.045054
v 13.442241 3.589482 -1.045054
v 13.468675 3.528835 -0.881666
v 13.342631 3.617383 -1.045116
v 13.494569 3.683608 -1.045116
v 13.556395 3.710556 -0.874554
v 13.327730 3.610888 -0.863368
v 15.885086 5.486652 -0.975506
v 16.004164 5.543759 -0.975506
v 15.986220 5.535154 -0.869954
v 15.834324 5.462308 -0.902418
v 15.894579 5.556301 -0.975506
v 15.882623 5.581231 -0.893949
v 15.942815 5.455720 -0.868083
v 15.943262 5.454787 -0.975506
v 14.847974 15.270322 1.102535
v 14.880689 15.095737 1.102535
v 14.875759 15.122044 1.227329
v 14.834028 15.344747 1.188947
v 14.935149 15.233731 1.102535
v 14.971701 15.240581 1.198959
v 14.787683 15.206098 1.229541
v 14.786316 15.205842 1.102535
v 14.161608 8.444185 -0.172962
v 14.177582 8.466745 -0.017708
v 14.049243 8.285490 -0.056897
v 14.005568 8.223807 -0.172962
v 14.278163 8.227067 -0.172962
v 14.049965 8.388645 -0.172962
v 13.972948 8.443177 -0.036562
v 14.239770 8.254251 -0.046441
vn 0.6797 0.7335 -0.0000
vn -0.7335 0.6797 -0.0000
vn 0.8150 0.5795 -0.0000
vn -0.5795 0.8150 -0.0000
vn 0.5516 0.8341 -0.0000
vn -0.8341 0.5516 -0.0000
vn 0.7887 -0.6148 -0.0000
vn 0.6148 0.7887 -0.0000
vn 0.5104 -0.8599 -0.0000
vn 0.8599 0.5104 -0.0000
vn -0.2789 0.9603 -0.0000
vn -0.9603 -0.2790 -0.0000
vn -0.3560 -0.9345 -0.0000
vn 0.9345 -0.3560 -0.0000
vn -0.9847 -0.1740 -0.0000
vn 0.1740 -0.9848 -0.0000
vn -0.2438 0.9698 -0.0000
vn -0.9698 -0.2438 -0.0000
vn 0.4741 0.8805 -0.0000
vn -0.8805 0.4741 -0.0000
vn 0.6013 0.7991 -0.0000
vn -0.7991 0.6013 -0.0000
vn 0.9959 -0.0905 -0.0000
vn 0.0905 0.9959 -0.0000
vn -0.6795 0.7337 -0.0000
vn -0.7337 -0.6795 -0.0000
vn -0.3628 0.9319 -0.0000
vn -0.9319 -0.3628 -0.0000
vn -0.8518 -0.5238 -0.0000
vn 0.5238 -0.8518 -0.0000
vn 0.1517 0.9884 -0.0000
vn -0.9884 0.1517 -0.0000
vn 0.3299 0.9440 -0.0000
vn -0.9440 0.3299 -0.0000
vn -0.3842 0.9233 -0.0000
vn -0.9233 -0.3842 -0.0000
vn 0.5778 0.8162 -0.0000
vn -0.8162 0.5778 -0.0000
vn 0.9150 -0.4034 -0.0000
vn 0.4034 0.9150 -0.0000
vn -0.9985 0.0551 -0.0000
vn -0.0551 -0.9985 -0.0000
vn -0.9877 -0.1565 -0.0000
vn 0.1565 -0.9877 -0.0000
vn -0.7946 -0.6071 -0.0000
vn 0.6071 -0.7946 -0.0000
vn 0.6614 0.7501 -0.0000
vn -0.7501 0.6614 -0.0000
vn -0.7454 0.6666 -0.0000
vn -0.6666 -0.7454 -0.0000
vn -0.6560 0.7548 -0.0000
vn -0.7548 -0.6560 -0.0000
vn -0.9676 -0.2524 -0.0000
vn 0.2524 -0.9676 -0.0000
vn 0.6739 -0.7389 -0.0000
vn 0.7388 0.6739 -0.0000
vn -0.5149 0.8572 -0.0000
vn -0.8572 -0.5149 -0.0000
vn 0.9000 0.4358 -0.0000
vn -0.4358 0.9000 -0.0000
vn 0.7940 0.6079 -0.0000
vn -0.6079 0.7940 -0.0000
vn -0.3550 -0.9349 -0.0000
vn 0.9349 -0.3550 -0.0000
vn -1.0000 -0.0045 -0.0000
vn 0.0045 -1.0000 -0.0000
vn -0.8317 0.5553 -0.0000
vn -0.5553 -0.8317 -0.0000
vn 0.9395 0.3424 -0.0000
vn -0.3424 0.9395 -0.0000
vn 0.8916 0.4529 -0.0000
vn -0.4529 0.8916 -0.0000
vn -0.6026 -0.7981 -0.0000
vn 0.7981 -0.6026 -0.0000
vn -0.7085 0.7057 -0.0000
vn -0.7057 -0.7085 -0.0000
vn 0.9980 0.0631 -0.0000
vn -0.0631 0.9980 -0.0000
vn 0.8270 -0.5622 -0.0000
vn 0.5622 0.8270 -0.0000
vn -0.4326 0.9016 -0.0000
vn -0.9016 -0.4326 -0.0000
vn -0.5755 -0.8178 -0.0000
vn 0.8178 -0.5755 -0.0000
vn -0.0073 -1.0000 -0.0000
vn 1.0000 -0.0073 -0.0000
vn 0.9572 -0.2893 -0.0000
vn 0.2893 0.9573 -0.0000
vn -0.9167 -0.3996 -0.0000
vn 0.3996 -0.9167 -0.0000
vn 0.4324 -0.9017 -0.0000
vn 0.9017 0.4324 -0.0000
vn -0.9829 -0.1842 -0.0000
vn 0.1842 -0.9829 -0.0000
vn 0.8161 -0.5779 -0.0000
vn 0.5779 0.8161 -0.0000
vn -0.2790 0.9603 -0.0000
vn -0.9603 -0.2789 -0.0000
vn -0.9848 -0.1740 -0.0000
vn 0.1740 -0.9847 -0.0000
vn -0.7946 -0.6072 -0.0000
vn 0.6072 -0.7946 -0.0000
vn -0.7500 0.6614 -0.0000
vn 0.7389 0.6739 -0.0000
vn 0.9573 -0.2893 -0.0000
vn 0.2893 0.9572 -0.0000
vt 0.038376 0.371048
vt 0.159378 0.250046
vt 0.194166 0.371048
vt 0.420000 0.250000
vt 0.324298 0.384599
vt 0.332846 0.250000
vt 0.587516 0.250000
vt 0.696219 0.438742
vt 0.532955 0.380692
vt 0.931885 0.250000
vt 0.823776 0.442088
vt 0.822774 0.250000
vt 0.574736 0.000000
vt 0.727477 0.180119
vt 0.531923 0.174939
vt 0.943005 0.000000
vt 0.797243 0.175205
vt 0.795077 0.000000
vt 0.183597 0.000000
vt 0.079867 0.150378
vt 0.039548 0.000000
vt 0.406485 0.000000
vt 0.282420 0.163926
vt 0.257324 0.000000
vt 0.947964 0.152455
vt 0.548614 0.500208
vt 0.730526 0.577570
vt 0.530599 0.622715
vt 0.802250 0.500257
vt 0.920277 0.587538
vt 0.777322 0.599968
vt 0.199407 0.500208
vt 0.021869 0.609361
vt 0.026417 0.500208
vt 0.318619 0.500194
vt 0.479294 0.593008
vt 0.310722 0.610752
vt 0.198931 0.750308
vt 0.019909 0.844918
vt 0.046190 0.750308
vt 0.292351 0.750248
vt 0.408285 0.861889
vt 0.278991 0.827976
vt 0.067034 0.250046
vt 0.455465 0.376315
vt 0.715504 0.250000
vt 0.958681 0.395835
vt 0.711067 0.000000
vt 0.198343 0.201154
vt 0.456826 0.176726
vt 0.716640 0.500208
vt 0.962020 0.500257
vt 0.225835 0.590819
vt 0.479294 0.500194
vt 0.224718 0.829653
vt 0.477396 0.750248
s 0
f 1/1/1 3/2/1 4/3/1
f 6/4/2 8/5/2 5/6/2
f 9/7/3 11/8/3 12/9/3
f 13/10/4 15/11/4 16/12/4
f 17/7/5 19/8/5 20/9/5
f 21/10/6 23/11/6 24/12/6
f 25/13/7 27/14/7 28/15/7
f 30/16/8 32/17/8 29/18/8
f 33/19/9 35/20/9 36/21/9
f 38/22/10 40/23/10 37/24/10
f 41/13/11 43/14/11 44/15/11
f 46/16/12 48/17/12 45/18/12
f 49/7/13 51/8/13 52/9/13
f 53/10/14 55/11/14 56/12/14
f 57/13/15 59/14/15 60/15/15
f 62/16/16 64/17/16 61/18/16
f 65/13/17 67/14/17 68/15/17
f 70/16/18 72/17/18 69/18/18
f 73/13/19 75/14/19 76/15/19
f 77/18/20 79/25/20 80/17/20
f 81/7/21 83/8/21 84/9/21
f 85/10/22 87/11/22 88/12/22
f 89/1/23 91/2/23 92/3/23
f 94/4/24 96/5/24 93/6/24
f 97/7/25 99/8/25 100/9/25
f 101/10/26 103/11/26 104/12/26
f 105/7/27 107/8/27 108/9/27
f 109/10/28 111/11/28 112/12/28
f 113/7/29 115/8/29 116/9/29
f 117/10/30 119/11/30 120/12/30
f 121/13/31 123/14/31 124/15/31
f 126/16/32 128/17/32 125/18/32
f 129/26/33 131/27/33 132/28/33
f 133/29/34 135/30/34 136/31/34
f 137/13/35 139/14/35 140/15/35
f 142/16/36 144/17/36 141/18/36
f 145/19/37 147/20/37 148/21/37
f 150/22/38 152/23/38 149/24/38
f 153/1/39 155/2/39 156/3/39
f 158/4/40 160/5/40 157/6/40
f 161/1/41 163/2/41 164/3/41
f 166/4/42 168/5/42 165/6/42
f 169/19/43 171/20/43 172/21/43
f 174/22/44 176/23/44 173/24/44
f 177/1/45 179/2/45 180/3/45
f 182/4/46 184/5/46 181/6/46
f 186/32/47 188/33/47 185/34/47
f 189/35/48 191/36/48 192/37/48
f 193/19/49 195/20/49 196/21/49
f 198/22/50 200/23/50 197/24/50
f 201/19/51 203/20/51 204/21/51
f 206/22/52 208/23/52 205/24/52
f 209/13/53 211/14/53 212/15/53
f 213/18/54 215/25/54 216/17/54
f 217/7/55 219/8/55 220/9/55
f 221/10/56 223/11/56 224/12/56
f 226/38/57 228/39/57 225/40/57
f 229/41/58 231/42/58 232/43/58
f 233/1/59 235/2/59 236/3/59
f 238/4/60 240/5/60 237/6/60
f 241/7/61 243/8/61 244/9/61
f 245/10/62 247/11/62 248/12/62
f 249/1/63 251/2/63 252/3/63
f 254/4/64 256/5/64 253/6/64
f 257/1/65 259/2/65 260/3/65
f 262/4/66 264/5/66 261/6/66
f 265/1/67 267/2/67 268/3/67
f 270/4/68 272/5/68 269/6/68
f 274/32/69 276/33/69 273/34/69
f 277/35/70 279/36/70 280/37/70
f 281/7/71 283/8/71 284/9/71
f 285/10/72 287/11/72 288/12/72
f 289/7/73 291/8/73 292/9/73
f 293/10/74 295/11/74 296/12/74
f 297/7/75 299/8/75 300/9/75
f 301/10/76 303/11/76 304/12/76
f 305/19/77 307/20/77 308/21/77
f 310/22/78 312/23/78 309/24/78
f 313/1/79 315/2/79 316/3/79
f 318/4/80 320/5/80 317/6/80
f 321/1/81 323/2/81 324/3/81
f 326/4/82 328/5/82 325/6/82
f 329/19/83 331/20/83 332/21/83
f 334/22/84 336/23/84 333/24/84
f 337/7/85 339/8/85 340/9/85
f 341/10/86 343/11/86 344/12/86
f 345/19/87 347/20/87 348/21/87
f 350/22/88 352/23/88 349/24/88
f 353/1/89 355/2/89 356/3/89
f 358/4/90 360/5/90 357/6/90
f 361/7/91 363/8/91 364/9/91
f 365/10/92 367/11/92 368/12/92
f 369/7/93 371/8/93 372/9/93
f 373/10/94 375/11/94 376/12/94
f 377/19/95 379/20/95 380/21/95
f 382/22/96 384/23/96 381/24/96
f 1/1/1 2/44/1 3/2/1
f 6/4/2 7/45/2 8/5/2
f 9/7/3 10/46/3 11/8/3
f 13/10/4 14/47/4 15/11/4
f 17/7/5 18/46/5 19/8/5
f 21/10/6 22/47/6 23/11/6
f 25/13/7 26/48/7 27/14/7
f 30/16/8 31/25/8 32/17/8
f 33/19/9 34/49/9 35/20/9
f 38/22/10 39/50/10 40/23/10
f 41/13/97 42/48/97 43/14/97
f 46/16/98 47/25/98 48/17/98
f 49/7/13 50/46/13 51/8/13
f 53/10/14 54/47/14 55/11/14
f 57/13/99 58/48/99 59/14/99
f 62/16/100 63/25/100 64/17/100
f 65/13/17 66/48/17 67/14/17
f 70/16/18 71/25/18 72/17/18
f 73/13/19 74/48/19 75/14/19
f 77/18/20 78/16/20 79/25/20
f 81/7/21 82/46/21 83/8/21
f 85/10/22 86/47/22 87/11/22
f 89/1/23 90/44/23 91/2/23
f 94/4/24 95/45/24 96/5/24
f 97/7/25 98/46/25 99/8/25
f 101/10/26 102/47/26 103/11/26
f 105/7/27 106/46/27 107/8/27
f 109/10/28 110/47/28 111/11/28
f 113/7/29 114/46/29 115/8/29
f 117/10/30 118/47/30 119/11/30
f 121/13/31 122/48/31 123/14/31
f 126/16/32 127/25/32 128/17/32
f 129/26/33 130/51/33 131/27/33
f 133/29/34 134/52/34 135/30/34
f 137/13/35 138/48/35 139/14/35
f 142/16/36 143/25/36 144/17/36
f 145/19/37 146/49/37 147/20/37
f 150/22/38 151/50/38 152/23/38
f 153/1/39 154/44/39 155/2/39
f 158/4/40 159/45/40 160/5/40
f 161/1/41 162/44/41 163/2/41
f 166/4/42 167/45/42 168/5/42
f 169/19/43 170/49/43 171/20/43
f 174/22/44 175/50/44 176/23/44
f 177/1/101 178/44/101 179/2/101
f 182/4/102 183/45/102 184/5/102
f 186/32/47 187/53/47 188/33/47
f 189/35/103 190/54/103 191/36/103
f 193/19/49 194/49/49 195/20/49
f 198/22/50 199/50/50 200/23/50
f 201/19/51 202/49/51 203/20/51
f 206/22/52 207/50/52 208/23/52
f 209/13/53 210/48/53 211/14/53
f 213/18/54 214/16/54 215/25/54
f 217/7/55 218/46/55 219/8/55
f 221/10/104 222/47/104 223/11/104
f 226/38/57 227/55/57 228/39/57
f 229/41/58 230/56/58 231/42/58
f 233/1/59 234/44/59 235/2/59
f 238/4/60 239/45/60 240/5/60
f 241/7/61 242/46/61 243/8/61
f 245/10/62 246/47/62 247/11/62
f 249/1/63 250/44/63 251/2/63
f 254/4/64 255/45/64 256/5/64
f 257/1/65 258/44/65 259/2/65
f 262/4/66 263/45/66 264/5/66
f 265/1/67 266/44/67 267/2/67
f 270/4/68 271/45/68 272/5/68
f 274/32/69 275/53/69 276/33/69
f 277/35/70 278/54/70 279/36/70
f 281/7/71 282/46/71 283/8/71
f 285/10/72 286/47/72 287/11/72
f 289/7/73 290/46/73 291/8/73
f 293/10/74 294/47/74 295/11/74
f 297/7/75 298/46/75 299/8/75
f 301/10/76 302/47/76 303/11/76
f 305/19/77 306/49/77 307/20/77
f 310/22/78 311/50/78 312/23/78
f 313/1/79 314/44/79 315/2/79
f 318/4/80 319/45/80 320/5/80
f 321/1/81 322/44/81 323/2/81
f 326/4/82 327/45/82 328/5/82
f 329/19/83 330/49/83 331/20/83
f 334/22/84 335/50/84 336/23/84
f 337/7/85 338/46/85 339/8/85
f 341/10/86 342/47/86 343/11/86
f 345/19/105 346/49/105 347/20/105
f 350/22/106 351/50/106 352/23/106
f 353/1/89 354/44/89 355/2/89
f 358/4/90 359/45/90 360/5/90
f 361/7/91 362/46/91 363/8/91
f 365/10/92 366/47/92 367/11/92
f 369/7/93 370/46/93 371/8/93
f 373/10/94 374/47/94 375/11/94
f 377/19/95 378/49/95 379/20/95
f 382/22/96 383/50/96 384/23/96
