mtllib grass_05_03_b0.mtl
usemtl grass_05_03_b0
# Blender 5.1.1
# www.blender.org
o grass_05_03_b0
v -14.051305 12.698123 -0.142380
v -14.223998 12.746664 -0.142380
v -14.244785 12.752506 -0.038760
v -13.997071 12.682879 -0.041740
v -14.086518 12.817261 -0.142380
v -14.139188 12.629876 -0.142380
v -14.140954 12.623594 -0.054675
v -14.087290 12.814516 -0.041587
v -14.463900 13.239520 0.072636
v -14.433106 13.203707 -0.014408
v -14.333884 13.088306 -0.014408
v -14.296504 13.044832 0.072636
v -14.423502 13.085974 -0.014441
v -14.314587 13.179621 -0.014441
v -14.270267 13.217727 0.076424
v -14.434183 13.076790 0.082384
v -14.395691 13.922231 0.073872
v -14.422138 13.936057 0.189014
v -14.209649 13.824974 0.159950
v -14.137337 13.787171 0.073872
v -14.180264 14.078344 0.073872
v -14.320116 13.810822 0.073872
v -14.367316 13.720534 0.175031
v -14.203794 14.033336 0.167704
v -13.554646 14.259121 -0.074135
v -13.354572 14.320052 -0.074135
v -13.338038 14.325088 0.015216
v -13.576098 14.252587 0.067357
v -13.437310 14.200194 -0.074078
v -13.495248 14.390437 -0.074078
v -13.480110 14.340733 0.026728
v -13.428271 14.170512 0.041085
v -15.705418 9.358975 -0.234329
v -15.519562 9.423177 -0.234329
v -15.491168 9.432984 -0.150096
v -15.710303 9.357287 -0.132858
v -15.578578 9.334988 -0.234342
v -15.638208 9.507612 -0.234342
v -15.638208 9.507612 -0.148061
v -15.575647 9.326503 -0.131565
v -15.672407 13.611204 0.391847
v -15.609071 13.743672 0.391847
v -15.601447 13.759618 0.493073
v -15.692297 13.569603 0.490162
v -15.571396 13.622913 0.391847
v -15.715135 13.691637 0.391847
v -15.719953 13.693941 0.477525
v -15.573501 13.623919 0.490311
vn 0.2706 0.9627 -0.0000
vn -0.9627 0.2706 -0.0000
vn -0.7583 -0.6520 -0.0000
vn 0.6520 -0.7583 -0.0000
vn 0.4633 0.8862 -0.0000
vn -0.8862 0.4633 -0.0000
vn 0.2913 -0.9566 -0.0000
vn 0.9566 0.2913 -0.0000
vn 0.3265 -0.9452 -0.0000
vn 0.9452 0.3265 -0.0000
vn 0.9022 -0.4314 -0.0000
vn 0.4314 0.9022 -0.0000
vn 0.9022 -0.4313 -0.0000
vt 0.574736 0.000000
vt 0.727477 0.180119
vt 0.531923 0.174939
vt 0.943005 0.000000
vt 0.797243 0.175205
vt 0.795077 0.000000
vt 0.038376 0.371048
vt 0.159378 0.250046
vt 0.194166 0.371048
vt 0.420000 0.250000
vt 0.324298 0.384599
vt 0.332846 0.250000
vt 0.183597 0.000000
vt 0.079867 0.150378
vt 0.039548 0.000000
vt 0.406485 0.000000
vt 0.282420 0.163926
vt 0.257324 0.000000
vt 0.548614 0.500208
vt 0.730526 0.577570
vt 0.530599 0.622715
vt 0.802250 0.500257
vt 0.920277 0.587538
vt 0.777322 0.599968
vt 0.199407 0.500208
vt 0.021869 0.609361
vt 0.026417 0.500208
vt 0.318619 0.500194
vt 0.479294 0.593008
vt 0.310722 0.610752
vt 0.711067 0.000000
vt 0.947964 0.152455
vt 0.067034 0.250046
vt 0.455465 0.376315
vt 0.198343 0.201154
vt 0.456826 0.176726
vt 0.716640 0.500208
vt 0.962020 0.500257
vt 0.225835 0.590819
vt 0.479294 0.500194
s 0
f 1/1/1 3/2/1 4/3/1
f 6/4/2 8/5/2 5/6/2
f 9/7/3 11/8/3 12/9/3
f 14/10/4 16/11/4 13/12/4
f 17/13/5 19/14/5 20/15/5
f 22/16/6 24/17/6 21/18/6
f 25/19/7 27/20/7 28/21/7
f 29/22/8 31/23/8 32/24/8
f 34/25/9 36/26/9 33/27/9
f 37/28/10 39/29/10 40/30/10
f 41/1/11 43/2/11 44/3/11
f 46/4/12 48/5/12 45/6/12
f 1/1/1 2/31/1 3/2/1
f 6/4/2 7/32/2 8/5/2
f 9/7/3 10/33/3 11/8/3
f 14/10/4 15/34/4 16/11/4
f 17/13/5 18/35/5 19/14/5
f 22/16/6 23/36/6 24/17/6
f 25/19/7 26/37/7 27/20/7
f 29/22/8 30/38/8 31/23/8
f 34/25/9 35/39/9 36/26/9
f 37/28/10 38/40/10 39/29/10
f 41/1/13 42/31/13 43/2/13
f 46/4/12 47/32/12 48/5/12
