mtllib grass_05_04_b1.mtl
usemtl grass_05_04_b1
# Blender 5.1.1
# www.blender.org
o grass_05_04_b1
v -11.297565 -8.949210 -2.448096
v -11.271708 -8.953661 -2.343316
v -11.479448 -8.917899 -2.369765
v -11.550145 -8.905729 -2.448096
v -11.435831 -9.137859 -2.448096
v -11.390807 -8.876316 -2.448096
v -11.375611 -8.788046 -2.356040
v -11.428256 -9.093856 -2.362708
v -10.965793 -2.368150 -1.257175
v -10.727463 -2.248608 -1.257175
v -10.670954 -2.220264 -1.169363
v -10.904716 -2.337515 -1.169363
v -10.753580 -2.385466 -1.257213
v -10.862969 -2.167377 -1.257213
v -10.869981 -2.153398 -1.160060
v -10.772171 -2.348401 -1.168815
v -7.916840 9.824378 1.152839
v -7.917408 9.805957 1.304880
v -7.912842 9.953958 1.266502
v -7.911288 10.004324 1.152839
v -8.061582 9.902113 1.152839
v -7.875250 9.896364 1.152839
v -7.812364 9.894423 1.286417
v -8.030232 9.901146 1.276741
v -11.484908 -9.126674 -2.443616
v -11.656780 -9.177650 -2.443616
v -11.685798 -9.186257 -2.361784
v -11.455336 -9.117903 -2.346040
v -11.601173 -9.059975 -2.443677
v -11.539414 -9.268198 -2.443677
v -11.562480 -9.190431 -2.328538
v -11.605632 -9.044942 -2.363513
v -15.335411 -4.495402 -0.852787
v -15.119154 -4.503559 -0.852787
v -15.151739 -4.502330 -0.637013
v -15.427601 -4.491925 -0.703377
v -15.268451 -4.401675 -0.852787
v -15.266743 -4.356399 -0.686066
v -15.275340 -4.584342 -0.633188
v -15.275404 -4.586035 -0.852787
v -10.464113 14.714433 2.685524
v -10.396812 14.553406 2.685524
v -10.388712 14.534022 2.772286
v -10.485249 14.765002 2.769791
v -10.533702 14.615609 2.685524
v -10.358976 14.688635 2.685524
v -10.353119 14.691083 2.758960
v -10.531143 14.616678 2.769919
v -15.231931 -0.934022 -0.061510
v -15.246938 -0.953544 0.124301
v -15.126368 -0.796699 0.077398
v -15.085336 -0.743322 -0.061510
v -15.328084 -0.736692 -0.061510
v -15.130617 -0.888490 -0.061510
v -15.063972 -0.939721 0.101736
v -15.294861 -0.762231 0.089912
v -8.544916 -3.352570 -1.912890
v -8.635463 -3.051545 -1.912890
v -8.656931 -2.980171 -1.799160
v -8.568121 -3.275426 -1.799160
v -8.481805 -3.109610 -1.912939
v -8.757264 -3.192466 -1.912939
v -8.774920 -3.197777 -1.787110
v -8.528620 -3.123692 -1.798450
v -12.633880 0.326739 -0.264329
v -12.638715 0.298188 -0.021811
v -12.599874 0.527573 -0.083028
v -12.586656 0.605634 -0.264329
v -12.842504 0.478768 -0.264329
v -12.553711 0.429867 -0.264329
v -12.456244 0.413364 -0.051262
v -12.793916 0.470540 -0.066695
v -10.646482 -10.583304 -2.876638
v -10.621926 -10.535500 -2.980492
v -10.542801 -10.381464 -2.980492
v -10.512992 -10.323435 -2.876638
v -10.501943 -10.474929 -2.980531
v -10.647322 -10.400249 -2.980531
v -10.706479 -10.369862 -2.872118
v -10.487684 -10.482253 -2.865008
v -10.373543 -11.369005 -3.261722
v -10.358357 -11.104077 -3.261722
v -10.355794 -11.059349 -3.125169
v -10.376156 -11.414589 -3.098898
v -10.222352 -11.240527 -3.261824
v -10.543314 -11.222130 -3.261824
v -10.423441 -11.229001 -3.069692
v -10.199181 -11.241855 -3.128056
v -14.361559 0.555943 0.058122
v -14.130419 0.366737 0.058122
v -14.111318 0.351101 0.146232
v -14.386341 0.576230 0.197649
v -14.338402 0.369853 0.058178
v -14.158492 0.589634 0.058178
v -14.205497 0.532212 0.157584
v -14.366471 0.335562 0.171742
v -9.284883 13.689904 2.302367
v -9.277197 13.676213 2.416999
v -9.338957 13.786216 2.388064
v -9.359975 13.823650 2.302367
v -9.424688 13.682967 2.302367
v -9.286197 13.760723 2.302367
v -9.239456 13.786965 2.403078
v -9.401388 13.696049 2.395784
v -10.169738 4.307759 0.209351
v -10.306523 4.446259 0.209351
v -10.322989 4.462931 0.313718
v -10.126781 4.264265 0.310717
v -10.138974 4.439013 0.209351
v -10.289256 4.290590 0.209351
v -10.294294 4.285614 0.297688
v -10.141175 4.436840 0.310871
v -9.955236 10.571920 1.779515
v -10.026986 10.595186 1.694581
v -10.258183 10.670156 1.694581
v -10.345279 10.698400 1.779515
v -10.137889 10.747785 1.694549
v -10.208645 10.529581 1.694549
v -10.237437 10.440791 1.783212
v -10.130949 10.769185 1.789027
v -14.319089 9.686098 2.127402
v -14.136616 9.594122 2.127402
v -14.164111 9.607981 2.277647
v -14.396876 9.725307 2.231438
v -14.224769 9.740261 2.127402
v -14.205513 9.778464 2.243492
v -14.302459 9.586131 2.280311
v -14.303179 9.584702 2.127402
v -12.604096 12.338179 2.476132
v -12.579540 12.350114 2.625813
v -12.776828 12.254223 2.588031
v -12.843966 12.221590 2.476132
v -12.606428 12.094799 2.476132
v -12.727155 12.343182 2.476132
v -12.767900 12.427010 2.607636
v -12.626740 12.136588 2.598111
v -15.451039 -3.264625 -0.571024
v -15.480155 -3.487914 -0.571024
v -15.487058 -3.540857 -0.483261
v -15.458501 -3.321848 -0.483261
v -15.563545 -3.404899 -0.571062
v -15.359221 -3.431541 -0.571062
v -15.346125 -3.433249 -0.473963
v -15.528820 -3.409427 -0.482713
v -6.212888 10.410635 1.163517
v -6.277320 10.419595 1.044284
v -6.484934 10.448462 1.044284
v -6.563147 10.459338 1.163517
v -6.394464 10.532489 1.044239
v -6.421710 10.336542 1.044239
v -6.432797 10.256808 1.168707
v -6.391792 10.551706 1.176870
v -7.982123 7.063983 0.488797
v -8.147911 7.201967 0.488797
v -8.122931 7.181176 0.617683
v -7.911448 7.005162 0.578042
v -8.092005 7.030710 0.488797
v -8.120893 6.996000 0.588383
v -7.975454 7.170747 0.619968
v -7.974373 7.172045 0.488797
v -11.709371 3.183799 0.238383
v -11.891842 3.335587 0.238383
v -11.922648 3.361214 0.341447
v -11.677974 3.157682 0.361276
v -11.721386 3.360854 0.238306
v -11.905278 3.139790 0.238306
v -11.836598 3.222353 0.383319
v -11.708110 3.376814 0.339269
v -14.074986 -3.032575 -0.769328
v -14.091239 -3.047574 -0.642352
v -13.960652 -2.927070 -0.674403
v -13.916212 -2.886062 -0.769328
v -14.130088 -2.843271 -0.769328
v -13.978375 -3.007679 -0.769328
v -13.927173 -3.063166 -0.657771
v -14.104563 -2.870932 -0.665852
v -8.101521 -5.235233 -2.816288
v -7.859152 -5.150275 -2.816288
v -7.801686 -5.130132 -2.662787
v -8.039409 -5.213460 -2.662787
v -7.900902 -5.277822 -2.816355
v -7.978644 -5.056036 -2.816355
v -7.983626 -5.041821 -2.646524
v -7.914114 -5.240129 -2.661829
v -9.661015 1.478701 -0.525638
v -9.831239 1.686991 -0.525638
v -9.871599 1.736377 -0.438422
v -9.704638 1.532080 -0.438422
v -9.690743 1.691444 -0.525676
v -9.881344 1.535677 -0.525676
v -9.893559 1.525693 -0.429182
v -9.723136 1.664971 -0.437878
v -11.099947 -11.229148 -2.884217
v -11.032001 -11.019760 -2.884217
v -11.042240 -11.051311 -2.685014
v -11.128911 -11.318409 -2.746281
v -11.173110 -11.137626 -2.884217
v -11.216948 -11.123401 -2.730299
v -10.996246 -11.195017 -2.681483
v -10.994607 -11.195549 -2.884217
v -11.468434 15.436690 3.032178
v -11.719104 15.365794 3.032178
v -11.778538 15.348985 3.122522
v -11.532674 15.418522 3.122522
v -11.668883 15.492317 3.032138
v -11.604009 15.262937 3.032138
v -11.599851 15.248235 3.132094
v -11.657858 15.453333 3.123086
v -9.362049 4.755109 0.129703
v -9.375539 4.767214 0.360230
v -9.267158 4.669964 0.302040
v -9.230274 4.636869 0.129703
v -9.211853 4.814660 0.129703
v -9.334289 4.678209 0.129703
v -9.375610 4.632157 0.332235
v -9.232452 4.791703 0.317566
v -13.474970 7.535696 1.529401
v -13.578824 7.615242 1.529401
v -13.591325 7.624816 1.656603
v -13.442355 7.510715 1.652944
v -13.466626 7.625908 1.529401
v -13.552939 7.513218 1.529401
v -13.555833 7.509440 1.637066
v -13.467891 7.624257 1.653132
v -5.669034 5.039206 -0.427341
v -5.831350 5.017309 -0.427341
v -5.806892 5.020608 -0.322026
v -5.599840 5.048541 -0.354417
v -5.706840 4.960652 -0.427341
v -5.702255 4.926669 -0.345967
v -5.725336 5.097755 -0.320159
v -5.725507 5.099026 -0.427341
v -14.026817 14.390287 3.149042
v -14.176918 14.230834 3.149042
v -14.154301 14.254860 3.262099
v -13.962831 14.458261 3.227327
v -13.999908 14.276875 3.149042
v -13.966525 14.245450 3.236398
v -14.134595 14.403661 3.264103
v -14.135843 14.404837 3.149042
v -14.523886 -0.154805 0.004957
v -14.788749 -0.150788 0.004957
v -14.851548 -0.149836 0.148052
v -14.591763 -0.153776 0.148052
v -14.702939 -0.042176 0.004895
v -14.706614 -0.284544 0.004895
v -14.706850 -0.300078 0.163212
v -14.703564 -0.083367 0.148945
v -11.927038 -4.285665 -1.532977
v -11.821200 -4.480692 -1.532977
v -11.803332 -4.513618 -1.438392
v -11.945249 -4.252108 -1.420194
v -11.977960 -4.443562 -1.533047
v -11.741684 -4.315341 -1.533047
v -11.829928 -4.363229 -1.399964
v -11.995018 -4.452819 -1.440391
v -8.289714 -0.056176 -1.188327
v -8.437860 0.126892 -1.188327
v -8.455692 0.148928 -1.047673
v -8.243190 -0.113667 -1.051718
v -8.237011 0.098169 -1.188327
v -8.435653 -0.062580 -1.188327
v -8.442311 -0.067969 -1.069276
v -8.239920 0.095815 -1.051510
v -14.361405 1.784506 0.370142
v -14.525258 1.606769 0.370142
v -14.538798 1.592081 0.479412
v -14.343838 1.803563 0.543176
v -14.512849 1.774648 0.370212
v -14.343845 1.618848 0.370212
v -14.388000 1.659554 0.493491
v -14.539217 1.798957 0.511048
v -8.472284 -2.756457 -1.790883
v -8.417515 -2.763755 -1.878092
v -8.241035 -2.787271 -1.878092
v -8.174552 -2.796130 -1.790883
v -8.317471 -2.859077 -1.878125
v -8.295277 -2.692516 -1.878125
v -8.286245 -2.624739 -1.787087
v -8.319648 -2.875413 -1.781116
v -15.558154 1.720859 0.605734
v -15.557683 1.697695 0.786539
v -15.561471 1.883799 0.740900
v -15.562760 1.947132 0.605734
v -15.744875 1.809140 0.605734
v -15.510571 1.813910 0.605734
v -15.431495 1.815520 0.764582
v -15.705454 1.809943 0.753077
v -13.324941 10.234596 2.089699
v -13.174753 10.189825 2.089699
v -13.162341 10.186125 2.213170
v -13.341043 10.239397 2.285223
v -13.276049 10.149217 2.089778
v -13.233478 10.292024 2.089778
v -13.244600 10.254713 2.229079
v -13.282691 10.126935 2.248919
v -14.984996 11.866097 2.748079
v -15.129031 11.968960 2.748079
v -15.107328 11.953461 2.842445
v -14.923594 11.822248 2.813421
v -15.072897 11.832206 2.748079
v -15.094432 11.802051 2.820992
v -14.986012 11.953869 2.844118
v -14.985207 11.954997 2.748079
v -5.622670 15.691405 2.263650
v -5.830242 15.821822 2.263650
v -5.855227 15.837521 2.369452
v -5.557484 15.650449 2.366409
v -5.622743 15.861176 2.263650
v -5.764255 15.635946 2.263650
v -5.768999 15.628396 2.353201
v -5.624815 15.857878 2.366565
v -13.362307 -0.025010 -0.222829
v -13.343946 -0.013957 -0.013290
v -13.491452 -0.102765 -0.066182
v -13.541651 -0.132987 -0.222829
v -13.347054 -0.215442 -0.222829
v -13.458861 -0.029734 -0.222829
v -13.496596 0.032942 -0.038736
v -13.365865 -0.184198 -0.052070
v -9.252707 -9.521832 -3.192646
v -9.308563 -9.507968 -3.271866
v -9.488544 -9.463295 -3.271866
v -9.556346 -9.446465 -3.192646
v -9.401147 -9.397767 -3.271896
v -9.443309 -9.567633 -3.271896
v -9.460465 -9.636754 -3.189197
v -9.397012 -9.381107 -3.183774
v -14.311891 15.675786 3.700160
v -14.365116 15.672812 3.504080
v -14.536618 15.663233 3.504080
v -14.601228 15.659624 3.700160
v -14.477143 15.745089 3.504006
v -14.468102 15.583223 3.504006
v -14.464423 15.517359 3.708694
v -14.478030 15.760963 3.722119
v -5.972352 -1.551992 -2.392356
v -5.959138 -1.561134 -2.245558
v -6.065304 -1.487688 -2.282613
v -6.101433 -1.462694 -2.392356
v -6.097810 -1.621115 -2.392356
v -6.005342 -1.487453 -2.392356
v -5.974134 -1.442343 -2.263384
v -6.082253 -1.598627 -2.272726
v 0.230578 13.342443 0.717790
v 0.032354 13.322557 0.717790
v 0.062222 13.325554 0.975614
v 0.315080 13.350919 0.896318
v 0.181361 13.248517 0.717790
v 0.185524 13.207017 0.917003
v 0.164565 13.415952 0.980185
v 0.164410 13.417504 0.717790
v -14.428738 12.709517 2.813168
v -14.436862 12.730438 3.072252
v -14.371588 12.562347 3.006854
v -14.349374 12.505144 2.813168
v -14.229499 12.691215 2.813168
v -14.441124 12.609035 2.813168
v -14.512547 12.581299 3.040789
v -14.265103 12.677388 3.024302
v -7.962878 13.876310 2.141752
v -8.146433 13.893406 2.141752
v -8.118775 13.890830 2.280867
v -7.884629 13.869022 2.238080
v -8.024234 13.799736 2.141752
v -8.027814 13.761306 2.249242
v -8.009793 13.954780 2.283333
v -8.009660 13.956217 2.141752
v -12.156015 2.467686 0.082363
v -11.984176 2.263687 0.082363
v -11.969975 2.246829 0.156033
v -12.174440 2.489558 0.199023
v -12.166221 2.300546 0.082410
v -11.972246 2.463941 0.082410
v -12.022926 2.421251 0.165525
v -12.196486 2.275052 0.177362
v -6.148334 13.065765 1.629256
v -6.153521 13.093596 1.854268
v -6.111849 12.870002 1.797470
v -6.097668 12.793911 1.629256
v -5.905642 12.996569 1.629256
v -6.187143 12.944105 1.629256
v -6.282149 12.926399 1.826943
v -5.953003 12.987742 1.812625
v -13.006125 -0.113707 -0.315903
v -12.857778 0.015912 -0.315903
v -12.839921 0.031515 -0.070777
v -13.052712 -0.154413 -0.077827
v -12.875443 -0.152886 -0.315903
v -13.016088 0.008082 -0.315903
v -13.020803 0.013478 -0.108426
v -12.877502 -0.150529 -0.077465
v -12.942648 9.618457 1.901193
v -13.118714 9.481234 1.901193
v -13.145613 9.460269 1.982066
v -12.938019 9.622065 1.998615
v -13.087708 9.597640 1.901181
v -12.960254 9.434109 1.901181
v -12.960254 9.434109 1.984019
v -13.093972 9.605678 1.999857
v -12.513624 -7.483585 -1.982245
v -12.385034 -7.376531 -1.982245
v -12.374407 -7.367683 -1.885946
v -12.527411 -7.495064 -1.829751
v -12.408814 -7.490593 -1.982183
v -12.510609 -7.368321 -1.982183
v -12.484014 -7.400267 -1.873538
v -12.392932 -7.509670 -1.858065
v -14.306071 3.385099 0.727090
v -14.187884 3.518148 0.727090
v -14.173658 3.534163 0.930532
v -14.343186 3.343316 0.924681
v -14.184497 3.364866 0.727090
v -14.328865 3.493107 0.727090
v -14.333705 3.497406 0.899285
v -14.186611 3.366744 0.924981
v -11.135041 10.418051 1.904567
v -11.186372 10.411854 1.816107
v -11.351771 10.391885 1.816107
v -11.414081 10.384361 1.904567
v -11.299312 10.474821 1.816074
v -11.280464 10.318717 1.816074
v -11.272795 10.255196 1.908417
v -11.301160 10.490131 1.914474
v -12.707541 -8.060767 -1.924281
v -12.696701 -8.136461 -2.064637
v -12.661776 -8.380366 -2.064637
v -12.648619 -8.472251 -1.924281
v -12.786118 -8.305508 -2.064690
v -12.555920 -8.272544 -2.064690
v -12.462249 -8.259131 -1.918172
v -12.808694 -8.308740 -1.908563
v -14.267790 14.624388 3.254778
v -14.503036 14.635195 3.254778
v -14.531353 14.636496 3.355225
v -14.193913 14.620994 3.352336
v -14.348187 14.766285 3.254778
v -14.359914 14.511025 3.254778
v -14.360307 14.502468 3.339797
v -14.348359 14.762547 3.352484
v -8.897870 15.492382 2.764082
v -8.857899 15.449752 2.612852
v -8.729100 15.312389 2.612852
v -8.680579 15.260641 2.764082
v -8.839754 15.304732 2.612794
v -8.710112 15.426292 2.612794
v -8.657357 15.475757 2.770664
v -8.852469 15.292810 2.781018
v -13.937093 0.529396 -0.002846
v -13.925190 0.553750 0.112853
v -14.020821 0.358083 0.083648
v -14.053365 0.291496 -0.002846
v -13.790046 0.337638 -0.002846
v -14.036388 0.458036 -0.002846
v -14.119529 0.498670 0.098803
v -13.831491 0.357894 0.091440
v -10.338064 -5.529414 -2.083363
v -10.401199 -5.329185 -2.083363
v -10.411859 -5.295381 -2.007144
v -10.327201 -5.563866 -1.992481
v -10.262294 -5.391939 -2.083420
v -10.504872 -5.468427 -2.083420
v -10.414274 -5.439860 -1.976179
v -10.244781 -5.386417 -2.008756
v -11.756765 12.141782 2.317000
v -11.833096 12.291160 2.317000
v -11.839403 12.303504 2.400516
v -11.748582 12.125766 2.449252
v -11.726790 12.242739 2.317054
v -11.868827 12.170159 2.317054
v -11.831717 12.189122 2.411277
v -11.704629 12.254063 2.424696
v -11.263868 -9.563068 -2.592852
v -11.102102 -9.650845 -2.592852
v -11.126476 -9.637618 -2.375256
v -11.332829 -9.525651 -2.442180
v -11.177480 -9.516878 -2.592852
v -11.159102 -9.483010 -2.424722
v -11.251621 -9.653519 -2.371398
v -11.252309 -9.654785 -2.592852
v -9.195786 4.590733 0.073985
v -9.052391 4.589341 0.073985
v -9.073997 4.589550 0.392203
v -9.256914 4.591327 0.294332
v -9.153171 4.654058 0.073985
v -9.152879 4.684079 0.319862
v -9.154346 4.532936 0.397845
v -9.154358 4.531813 0.073985
v -10.679509 -4.063147 -1.693616
v -10.522683 -3.834543 -1.693616
v -10.509724 -3.815651 -1.611982
v -10.696324 -4.087657 -1.564344
v -10.509237 -4.027122 -1.693564
v -10.726607 -3.878003 -1.693564
v -10.669815 -3.916963 -1.601464
v -10.475323 -4.050389 -1.588347
v -10.230768 9.247654 1.383918
v -10.152331 9.400353 1.383918
v -10.145849 9.412972 1.489978
v -10.239179 9.231281 1.551869
v -10.128996 9.283112 1.383986
v -10.274193 9.357694 1.383986
v -10.236258 9.338208 1.503643
v -10.106342 9.271475 1.520685
v -9.255499 -2.016403 -1.328983
v -9.281082 -1.965549 -1.449719
v -9.363518 -1.801687 -1.449719
v -9.394574 -1.739956 -1.328983
v -9.258027 -1.825059 -1.449764
v -9.412682 -1.902862 -1.449764
v -9.475612 -1.934522 -1.323728
v -9.242860 -1.817428 -1.315462
v -9.703913 13.974732 2.402677
v -9.756468 13.797027 2.402677
v -9.762794 13.775636 2.540939
v -9.687408 14.030540 2.536963
v -9.827469 13.940024 2.402677
v -9.634645 13.882998 2.402677
v -9.628181 13.881086 2.519703
v -9.824645 13.939189 2.537166
v -15.873582 2.653860 0.876486
v -16.059555 2.761068 0.876486
v -16.074923 2.769928 0.960165
v -15.853642 2.642365 1.008996
v -15.911709 2.783118 0.876539
v -16.013649 2.606283 0.876539
v -15.987015 2.652485 0.970946
v -15.895803 2.810708 0.984392
v -14.365230 -6.678356 -1.455743
v -14.467051 -6.865809 -1.455743
v -14.484241 -6.897457 -1.362178
v -14.347711 -6.646102 -1.344178
v -14.519199 -6.719980 -1.455813
v -14.292099 -6.843337 -1.455813
v -14.376917 -6.797266 -1.324166
v -14.535595 -6.711074 -1.364156
v -13.813999 2.548520 0.432711
v -13.635845 2.579009 0.432711
v -13.621122 2.581529 0.514816
v -13.833101 2.545251 0.562729
v -13.719809 2.485245 0.432764
v -13.748799 2.654646 0.432764
v -13.741225 2.610387 0.525395
v -13.715285 2.458815 0.538588
v -15.550526 13.194457 3.116550
v -15.732782 13.081341 3.116550
v -15.754721 13.067724 3.233751
v -15.493289 13.229980 3.230380
v -15.684035 13.259600 3.116550
v -15.561296 13.061837 3.116550
v -15.557181 13.055207 3.215750
v -15.682238 13.256703 3.230553
v -14.840507 9.980185 2.441025
v -14.843959 10.037082 2.332608
v -14.855082 10.220417 2.332608
v -14.859272 10.289484 2.441025
v -14.767250 10.157242 2.332567
v -14.940283 10.146744 2.332567
v -15.010693 10.142472 2.445743
v -14.750280 10.158272 2.453166
v -14.943129 -10.687850 -1.921743
v -14.726306 -10.654133 -1.921743
v -14.758977 -10.659213 -1.770969
v -15.035559 -10.702224 -1.817341
v -14.894613 -10.581608 -1.921743
v -14.901672 -10.536214 -1.805245
v -14.866133 -10.764751 -1.768296
v -14.865869 -10.766449 -1.921743
v -13.635675 0.583636 0.112375
v -13.595793 0.563867 -0.072174
v -13.467283 0.500169 -0.072174
v -13.418871 0.476172 0.112375
v -13.544203 0.465220 -0.072244
v -13.484084 0.586507 -0.072244
v -13.459621 0.635861 0.120408
v -13.550098 0.453324 0.133042
v -15.411229 1.347743 0.510449
v -15.590798 1.476377 0.510449
v -15.618232 1.496029 0.611203
v -15.406508 1.344361 0.631822
v -15.471637 1.479574 0.510433
v -15.591113 1.312788 0.510433
v -15.591113 1.312788 0.613637
v -15.465764 1.487771 0.633368
v -7.167340 -1.845962 -2.087285
v -6.900572 -2.031851 -2.087285
v -6.837321 -2.075926 -1.997304
v -7.098975 -1.893600 -1.997304
v -7.062445 -2.083476 -2.087324
v -6.892343 -1.839364 -2.087324
v -6.881440 -1.823718 -1.987770
v -7.033535 -2.041988 -1.996742
v -15.449954 -12.918440 -2.109435
v -15.461800 -12.941763 -1.994506
v -15.366632 -12.754379 -2.023517
v -15.334245 -12.690610 -2.109435
v -15.589004 -12.731237 -2.109435
v -15.353088 -12.851053 -2.109435
v -15.273467 -12.891491 -2.008463
v -15.549312 -12.751396 -2.015777
v -4.641536 15.566814 2.053829
v -4.466390 15.505682 2.053829
v -4.445308 15.498323 2.145687
v -4.696539 15.586013 2.143045
v -4.612800 15.441597 2.053829
v -4.546467 15.631642 2.053829
v -4.544243 15.638013 2.131579
v -4.611829 15.444380 2.143181
v -12.749423 -10.861764 -2.412793
v -12.820889 -10.657335 -2.412793
v -12.831807 -10.626104 -2.329721
v -12.747544 -10.867139 -2.312721
v -12.723522 -10.721972 -2.412806
v -12.913397 -10.788351 -2.412806
v -12.913397 -10.788351 -2.327714
v -12.714190 -10.718710 -2.311446
v -9.731764 -5.801073 -2.327164
v -9.721631 -5.978809 -2.327164
v -9.720794 -5.993496 -2.247225
v -9.732850 -5.782016 -2.200577
v -9.804111 -5.886260 -2.327113
v -9.635109 -5.876625 -2.327113
v -9.679264 -5.879142 -2.236926
v -9.830480 -5.887763 -2.224081
v -8.621093 -1.939335 -1.455807
v -8.582026 -1.897431 -1.602625
v -8.456147 -1.762406 -1.602625
v -8.408725 -1.711539 -1.455807
v -8.441373 -1.870136 -1.602680
v -8.568810 -1.751330 -1.602680
v -8.620666 -1.702987 -1.449416
v -8.428874 -1.881788 -1.439364
v -15.401916 1.656659 0.601114
v -15.370420 1.612608 0.493864
v -15.268936 1.470666 0.493864
v -15.230704 1.417193 0.601114
v -15.371511 1.477182 0.493823
v -15.237546 1.572964 0.493823
v -15.183034 1.611939 0.605782
v -15.384650 1.467789 0.613125
v -15.163554 1.766168 0.519829
v -15.013445 1.882004 0.519829
v -14.990512 1.899701 0.717360
v -15.167500 1.763122 0.757783
v -15.040257 1.783256 0.519799
v -15.147847 1.922679 0.519799
v -15.147847 1.922679 0.722132
v -15.034969 1.776404 0.760815
v -11.848043 0.649341 -0.344297
v -11.808633 0.818223 -0.344297
v -11.802612 0.844023 -0.200139
v -11.849079 0.644901 -0.170639
v -11.770542 0.732738 -0.344319
v -11.927402 0.769343 -0.344319
v -11.927402 0.769343 -0.196657
v -11.762833 0.730939 -0.168426
v -15.518804 -15.026748 -2.408647
v -15.516952 -15.003975 -2.307678
v -15.531828 -15.186940 -2.333164
v -15.536891 -15.249206 -2.408647
v -15.344432 -15.132016 -2.408647
v -15.574784 -15.113287 -2.408647
v -15.652528 -15.106965 -2.319939
v -15.383187 -15.128865 -2.326365
v -8.961625 -0.631458 -1.207893
v -8.965049 -0.652013 -1.027689
v -8.937543 -0.486871 -1.073177
v -8.928182 -0.430671 -1.207893
v -9.112047 -0.522461 -1.207893
v -8.904135 -0.557091 -1.207893
v -8.833964 -0.568778 -1.049573
v -9.077066 -0.528287 -1.061040
v -10.419972 -11.551947 -3.284757
v -10.587342 -11.618501 -3.284757
v -10.562123 -11.608472 -3.076678
v -10.348623 -11.523576 -3.140675
v -10.439410 -11.645826 -3.284757
v -10.425477 -11.680867 -3.123981
v -10.495626 -11.504454 -3.072989
v -10.496147 -11.503143 -3.284757
v -13.648063 -1.486014 -0.535022
v -13.564672 -1.713158 -0.535022
v -13.557781 -1.731929 -0.455685
v -13.657004 -1.461660 -0.409388
v -13.708499 -1.625381 -0.534971
v -13.492517 -1.546088 -0.534971
v -13.548946 -1.566805 -0.445463
v -13.742197 -1.637752 -0.432715
v -14.263721 12.328003 2.701786
v -14.265324 12.353956 2.840296
v -14.252445 12.145435 2.805333
v -14.248062 12.074473 2.701786
v -14.050239 12.237662 2.701786
v -14.312765 12.221448 2.701786
v -14.401367 12.215976 2.823475
v -14.094408 12.234935 2.814661
v -7.356419 9.487804 0.948596
v -7.308902 9.337969 0.948596
v -7.316061 9.360546 1.091741
v -7.376676 9.551679 1.047715
v -7.275908 9.465041 0.948596
v -7.244538 9.474990 1.059200
v -7.402470 9.424905 1.094279
v -7.403643 9.424533 0.948596
v -15.360834 -9.029617 -1.367342
v -15.405261 -9.072584 -1.562706
v -15.548415 -9.211034 -1.562706
v -15.602345 -9.263191 -1.367342
v -15.558322 -9.094143 -1.562780
v -15.427652 -9.229252 -1.562780
v -15.374481 -9.284229 -1.358838
v -15.571136 -9.080893 -1.345463
v -15.313348 -4.561281 -0.816955
v -15.568732 -4.475805 -0.816955
v -15.607748 -4.462747 -0.708393
v -15.306634 -4.563528 -0.686177
v -15.431027 -4.429335 -0.816972
v -15.510417 -4.666539 -0.816972
v -15.510417 -4.666539 -0.705771
v -15.427125 -4.417676 -0.684511
v -13.337852 14.988402 3.189897
v -13.499159 14.930391 3.189897
v -13.474853 14.939133 3.293259
v -13.269087 15.013132 3.261469
v -13.359311 14.899719 3.189897
v -13.347165 14.865948 3.269762
v -13.408311 15.035971 3.295092
v -13.408765 15.037234 3.189897
v -12.549204 3.326284 0.387944
v -12.406774 3.427204 0.387944
v -12.385015 3.442621 0.487638
v -12.552949 3.323631 0.508040
v -12.435144 3.337374 0.387929
v -12.528880 3.469665 0.387929
v -12.528880 3.469665 0.490047
v -12.430538 3.330873 0.509570
v -8.949797 9.193141 1.140464
v -8.766449 9.182261 1.140464
v -8.794076 9.183900 1.303465
v -9.027956 9.197780 1.253332
v -8.891263 9.271443 1.140464
v -8.888986 9.309830 1.266410
v -8.900454 9.116575 1.306355
v -8.900538 9.115140 1.140464
v -12.802456 0.347916 -0.242393
v -12.718665 0.523272 -0.242393
v -12.731291 0.496850 0.200673
v -12.838176 0.273163 0.064403
v -12.855853 0.436514 -0.242393
v -12.892566 0.454056 0.099950
v -12.707735 0.365738 0.208528
v -12.706362 0.365082 -0.242393
v -8.438522 -4.396482 -2.342841
v -8.587121 -4.604921 -2.342841
v -8.622355 -4.654343 -2.256304
v -8.476604 -4.449899 -2.256304
v -8.626392 -4.477051 -2.342879
v -8.435656 -4.613029 -2.342879
v -8.423431 -4.621745 -2.247135
v -8.593976 -4.500161 -2.255764
v -11.224246 -9.803061 -2.645391
v -11.089981 -9.962718 -2.645391
v -11.073819 -9.981936 -2.515921
v -11.266410 -9.752922 -2.519644
v -11.268342 -9.940637 -2.645391
v -11.095102 -9.794950 -2.645391
v -11.089295 -9.790066 -2.535806
v -11.265805 -9.938503 -2.519453
v -7.442397 9.133692 0.884144
v -7.285975 9.205434 0.884144
v -7.262079 9.216393 0.966411
v -7.446509 9.131806 0.983245
v -7.329874 9.123594 0.884132
v -7.396508 9.268880 0.884132
v -7.396508 9.268880 0.968398
v -7.326599 9.116454 0.984508
v -8.545547 15.191601 2.487399
v -8.334499 15.011456 2.487399
v -8.284459 14.968743 2.584488
v -8.491462 15.145434 2.584488
v -8.476287 14.981124 2.487356
v -8.311441 15.174248 2.487356
v -8.300876 15.186626 2.594775
v -8.448271 15.013946 2.585094
v -9.634191 3.129680 -0.198328
v -9.648385 3.126982 -0.050193
v -9.534341 3.148655 -0.087585
v -9.495530 3.156031 -0.198328
v -9.599312 3.253673 -0.198328
v -9.572026 3.110092 -0.198328
v -9.562817 3.061633 -0.068182
v -9.594721 3.229516 -0.077609
v -14.067819 11.797391 2.563302
v -14.175048 11.608015 2.563302
v -14.193152 11.576043 2.645202
v -14.049369 11.829975 2.660958
v -14.225619 11.757701 2.563241
v -13.996190 11.627792 2.563241
v -14.081877 11.676311 2.678475
v -14.242183 11.767080 2.643471
v -14.797573 1.409088 0.341436
v -14.662202 1.281079 0.341436
v -14.641521 1.261522 0.482690
v -14.801132 1.412454 0.511596
v -14.762150 1.292018 0.341414
v -14.643253 1.417753 0.341414
v -14.643253 1.417753 0.486102
v -14.767993 1.285838 0.513764
v -15.383460 13.718058 3.194866
v -15.383229 13.551700 3.194866
v -15.383264 13.576767 3.395628
v -15.383558 13.788975 3.333881
v -15.309454 13.669439 3.194866
v -15.274626 13.669488 3.349988
v -15.449972 13.669244 3.399187
v -15.451275 13.669242 3.194866
v -15.203507 -6.169820 -1.194762
v -15.353430 -6.348763 -1.194762
v -15.376333 -6.376100 -1.088310
v -15.199566 -6.165115 -1.066526
v -15.347265 -6.222932 -1.194779
v -15.181062 -6.362181 -1.194779
v -15.181062 -6.362181 -1.085739
v -15.355434 -6.216088 -1.064892
v -10.958277 -0.755737 -0.843761
v -11.037879 -0.581210 -0.843761
v -11.047462 -0.560203 -0.654296
v -10.933278 -0.810546 -0.659745
v -10.885309 -0.644724 -0.843761
v -11.074683 -0.731099 -0.843761
v -11.081032 -0.733995 -0.683397
v -10.888083 -0.645989 -0.659466
v -13.602798 -7.080010 -1.701355
v -13.394675 -7.195598 -1.701355
v -13.369623 -7.209512 -1.545143
v -13.668159 -7.043711 -1.549635
v -13.593829 -7.244638 -1.701355
v -13.468408 -7.018809 -1.701355
v -13.464203 -7.011239 -1.569135
v -13.591991 -7.241331 -1.549405
v -12.054655 3.820731 0.401976
v -11.878470 3.786670 0.401976
v -11.905018 3.791802 0.505397
v -12.129762 3.835252 0.473589
v -11.987917 3.889061 0.401976
v -11.980785 3.925948 0.481886
v -12.016687 3.740243 0.507231
v -12.016954 3.738863 0.401976
v -6.903187 -0.708458 -1.708343
v -6.925371 -0.711502 -1.511095
v -6.747134 -0.687045 -1.560885
v -6.686479 -0.678722 -1.708343
v -6.839325 -0.519329 -1.708343
v -6.808534 -0.743728 -1.708343
v -6.798141 -0.819462 -1.535049
v -6.834145 -0.557083 -1.547601
v -9.877709 -5.294696 -2.140144
v -9.782938 -5.076437 -2.140144
v -9.760468 -5.024687 -2.043244
v -9.853422 -5.238763 -2.043244
v -9.722492 -5.185095 -2.140186
v -9.922215 -5.098372 -2.140186
v -9.935016 -5.092814 -2.032978
v -9.756435 -5.170356 -2.042639
v -2.116371 14.684146 1.489695
v -2.283746 14.770108 1.489695
v -2.258526 14.757155 1.668843
v -2.045020 14.647501 1.613744
v -2.203596 14.634933 1.489695
v -2.221594 14.599890 1.628117
v -2.130986 14.776309 1.672019
v -2.130313 14.777619 1.489695
v -14.704722 -5.209881 -1.142478
v -14.498475 -5.228450 -1.142478
v -14.473649 -5.230686 -1.039655
v -14.769493 -5.204049 -1.042612
v -14.639567 -5.337639 -1.142478
v -14.619418 -5.113846 -1.142478
v -14.618743 -5.106343 -1.055447
v -14.639273 -5.334362 -1.042460
v -15.856383 3.537171 1.026024
v -15.648115 3.606359 1.026024
v -15.598734 3.622764 1.158642
v -15.803010 3.554902 1.158642
v -15.685574 3.497971 1.025966
v -15.748886 3.688551 1.025966
v -15.752943 3.700766 1.172693
v -15.696334 3.530361 1.159470
v -12.595297 10.072681 1.931945
v -12.399535 9.936993 1.931945
v -12.429032 9.957438 2.080271
v -12.678749 10.130525 2.034652
v -12.477657 10.119948 1.931945
v -12.449249 10.160933 2.046552
v -12.592269 9.954594 2.082901
v -12.593331 9.953061 1.931945
v -13.598930 -4.662853 -1.254139
v -13.398434 -4.667086 -1.254139
v -13.374300 -4.667595 -1.119299
v -13.661894 -4.661524 -1.123177
v -13.527491 -4.781954 -1.254139
v -13.522898 -4.564402 -1.254139
v -13.522744 -4.557108 -1.140010
v -13.527423 -4.778768 -1.122978
v -9.436291 3.579189 0.059638
v -9.468693 3.613958 -0.075603
v -9.573097 3.725989 -0.075603
v -9.612430 3.768194 0.059638
v -9.483088 3.731941 -0.075654
v -9.588824 3.633403 -0.075654
v -9.631849 3.593307 0.065525
v -9.472718 3.741605 0.074784
v -11.263403 -6.595909 -2.094554
v -11.366627 -6.446766 -2.094554
v -11.379051 -6.428814 -2.006668
v -11.230987 -6.642745 -2.009196
v -11.214026 -6.480407 -2.094554
v -11.375856 -6.592412 -2.094554
v -11.381282 -6.596167 -2.020167
v -11.216396 -6.482047 -2.009066
v -9.294172 0.322079 -0.909128
v -9.247152 0.269863 -0.995439
v -9.095641 0.101609 -0.995439
v -9.038563 0.038224 -0.909128
v -9.228851 0.095085 -0.995471
v -9.070054 0.238081 -0.995471
v -9.005437 0.296268 -0.905372
v -9.244426 0.081060 -0.899462
v -7.483099 8.477876 0.745020
v -7.438454 8.664541 0.745020
v -7.445181 8.636415 0.836966
v -7.502131 8.398302 0.808687
v -7.552988 8.552388 0.745020
v -7.592068 8.561735 0.816064
v -7.395317 8.514677 0.838597
v -7.393855 8.514328 0.745020
v -13.583120 10.416595 2.177653
v -13.603358 10.413566 2.287566
v -13.440759 10.437895 2.259821
v -13.385425 10.446175 2.177653
v -13.526866 10.590128 2.177653
v -13.496236 10.385416 2.177653
v -13.485898 10.316327 2.274218
v -13.521712 10.555686 2.267224
v -8.368497 9.886099 1.200739
v -8.379241 9.902378 1.310799
v -8.292923 9.771586 1.283018
v -8.263549 9.727077 1.200739
v -8.195897 9.907146 1.200739
v -8.360563 9.798472 1.200739
v -8.416138 9.761796 1.297434
v -8.223601 9.888862 1.290430
v -14.574471 2.441491 0.588755
v -14.525019 2.658209 0.588755
v -14.513293 2.709593 0.720020
v -14.561798 2.497029 0.720020
v -14.450815 2.568843 0.588698
v -14.649128 2.614095 0.588698
v -14.661839 2.616996 0.733928
v -14.484519 2.576534 0.720840
v -9.407152 -4.729830 -2.063303
v -9.359939 -4.761529 -2.179888
v -9.207806 -4.863674 -2.179888
v -9.150494 -4.902153 -2.063303
v -9.311070 -4.895094 -2.179932
v -9.214666 -4.751510 -2.179932
v -9.175438 -4.693084 -2.058229
v -9.320525 -4.909176 -2.050247
v -14.682540 6.918107 1.744187
v -14.655047 6.950192 1.590663
v -14.566457 7.053578 1.590663
v -14.533083 7.092526 1.744187
v -14.552243 6.974649 1.590605
v -14.649819 7.058260 1.590605
v -14.689525 7.092283 1.750869
v -14.542673 6.966449 1.761380
v -8.629447 -4.398564 -2.242778
v -8.629841 -4.419090 -2.129134
v -8.626679 -4.254175 -2.157820
v -8.625605 -4.198052 -2.242778
v -8.791685 -4.313859 -2.242778
v -8.584058 -4.317839 -2.242778
v -8.513984 -4.319182 -2.142935
v -8.756753 -4.314529 -2.150166
v -11.113988 -8.179065 -2.420073
v -10.943661 -8.272154 -2.420073
v -10.914904 -8.287870 -2.333018
v -11.143295 -8.163048 -2.316270
v -11.076475 -8.319263 -2.420138
v -10.963697 -8.112909 -2.420138
v -11.005817 -8.189979 -2.297651
v -11.084618 -8.334160 -2.334859
v -12.150801 -10.968859 -2.608608
v -12.074858 -11.160892 -2.608608
v -12.086301 -11.131956 -2.462320
v -12.183175 -10.886996 -2.507313
v -12.043210 -10.991346 -2.608608
v -12.003005 -10.975447 -2.495576
v -12.205415 -11.055494 -2.459727
v -12.206919 -11.056088 -2.608608
v -11.731556 12.817797 2.433863
v -11.524003 12.780564 2.433863
v -11.499020 12.776082 2.571399
v -11.796736 12.829490 2.567444
v -11.676861 12.682392 2.433863
v -11.636460 12.907602 2.433863
v -11.635106 12.915153 2.550275
v -11.676269 12.685691 2.567647
v -11.963694 1.085648 -0.251391
v -11.811710 1.029126 -0.251391
v -11.834611 1.037643 -0.059473
v -12.028483 1.109743 -0.118499
v -11.894060 1.136644 -0.251391
v -11.882227 1.168463 -0.103102
v -11.941803 1.008268 -0.056070
v -11.942245 1.007078 -0.251391
v -9.310597 3.493546 -0.206366
v -9.124108 3.364471 -0.206366
v -9.079891 3.333867 -0.120848
v -9.262805 3.460468 -0.120848
v -9.236905 3.328104 -0.206403
v -9.118793 3.498755 -0.206403
v -9.111222 3.509692 -0.111787
v -9.216831 3.357107 -0.120314
v -15.796184 -1.643678 -0.116310
v -15.654546 -1.550108 -0.116310
v -15.630633 -1.534311 -0.025454
v -15.820554 -1.659778 -0.007975
v -15.672471 -1.672040 -0.116378
v -15.785831 -1.500446 -0.116378
v -15.743493 -1.564533 0.011458
v -15.664287 -1.684428 -0.027375
v -8.671031 7.370104 0.683270
v -8.656611 7.358516 0.822028
v -8.772462 7.451618 0.787003
v -8.811887 7.483302 0.683270
v -8.820802 7.301084 0.683270
v -8.703587 7.446938 0.683270
v -8.664027 7.496163 0.805178
v -8.801081 7.325623 0.796348
v -8.987414 1.844464 -0.653787
v -8.911200 1.631990 -0.653787
v -8.898333 1.596118 -0.573108
v -9.000527 1.881023 -0.557587
v -9.063061 1.693594 -0.653847
v -8.805649 1.785927 -0.653847
v -8.901787 1.751442 -0.540331
v -9.081645 1.686928 -0.574814
v -13.910693 -1.918992 -0.560467
v -13.971797 -2.053074 -0.560467
v -13.981133 -2.073558 -0.445802
v -13.909086 -1.915467 -0.422337
v -13.989215 -1.975487 -0.560484
v -13.864678 -2.032241 -0.560484
v -13.864678 -2.032241 -0.443032
v -13.995336 -1.972698 -0.420577
v -7.782032 14.477684 2.283500
v -7.962074 14.644858 2.283500
v -7.976953 14.658673 2.366971
v -7.762727 14.459760 2.415681
v -7.791499 14.631635 2.283554
v -7.950459 14.460440 2.283554
v -7.908927 14.505167 2.377726
v -7.766698 14.658345 2.391138
v -13.614906 -0.291806 -0.138096
v -13.632216 -0.344859 -0.265038
v -13.687994 -0.515810 -0.265038
v -13.709006 -0.580211 -0.138096
v -13.745266 -0.426706 -0.265086
v -13.583922 -0.479349 -0.265086
v -13.518269 -0.500770 -0.132570
v -13.761089 -0.421543 -0.123880
v -8.795479 10.773729 1.490317
v -8.702218 10.599603 1.490317
v -8.716270 10.625840 1.587754
v -8.835236 10.847959 1.557786
v -8.690775 10.764183 1.490317
v -8.654320 10.783708 1.565603
v -8.837854 10.685408 1.589481
v -8.839218 10.684677 1.490317
v -11.672165 6.995709 1.078645
v -11.691872 6.987847 1.184521
v -11.533542 7.051014 1.157796
v -11.479660 7.072510 1.078645
v -11.656596 7.184211 1.078645
v -11.577070 6.984875 1.078645
v -11.550231 6.917599 1.171664
v -11.643216 7.150674 1.164926
v -10.514782 -4.653213 -1.867407
v -10.720815 -4.710088 -1.867407
v -10.745615 -4.716935 -1.751957
v -10.450079 -4.635351 -1.755277
v -10.624087 -4.553396 -1.867407
v -10.562373 -4.776956 -1.867407
v -10.560304 -4.784451 -1.769689
v -10.623183 -4.556670 -1.755107
v -15.815702 -8.061725 -1.323862
v -16.000975 -8.137919 -1.323862
v -16.023277 -8.147091 -1.203922
v -15.757519 -8.037796 -1.207372
v -15.928679 -7.981201 -1.323862
v -15.846003 -8.182236 -1.323862
v -15.843231 -8.188975 -1.222344
v -15.927468 -7.984145 -1.207195
v -13.897984 -2.882462 -0.513740
v -13.951174 -2.866374 -0.727909
v -14.122563 -2.814532 -0.727909
v -14.187131 -2.795002 -0.513740
v -14.035092 -2.755594 -0.727990
v -14.084021 -2.917353 -0.727990
v -14.103930 -2.983175 -0.504417
v -14.030294 -2.739730 -0.489755
v -8.180352 -2.949761 -1.974380
v -7.936933 -2.955984 -1.974380
v -7.899745 -2.956934 -1.887070
v -8.186751 -2.949597 -1.869203
v -8.043662 -3.032643 -1.974393
v -8.037882 -2.806553 -1.974393
v -8.037882 -2.806553 -1.884961
v -8.043946 -3.043755 -1.867863
v -16.130384 8.808697 2.360670
v -16.079418 8.808179 2.219757
v -15.915191 8.806509 2.219757
v -15.853322 8.805881 2.360670
v -15.977092 8.732162 2.219703
v -15.975516 8.887161 2.219703
v -15.974875 8.950233 2.366804
v -15.977246 8.716961 2.376451
v -8.852071 -0.288215 -1.121281
v -9.053530 -0.198420 -1.121281
v -9.101295 -0.177129 -1.016276
v -8.903699 -0.265203 -1.016276
v -8.952273 -0.143364 -1.121327
v -9.034443 -0.327712 -1.121327
v -9.039709 -0.339528 -1.005151
v -8.966238 -0.174695 -1.015621
v -11.439891 -8.010249 -2.169120
v -11.448520 -7.959175 -2.264804
v -11.476324 -7.794602 -2.264804
v -11.486799 -7.732604 -2.169120
v -11.390847 -7.843178 -2.264841
v -11.546171 -7.869420 -2.264841
v -11.609375 -7.880098 -2.164955
v -11.375614 -7.840604 -2.158404
v -9.923432 3.529646 -0.056237
v -9.912813 3.552746 0.417156
v -9.998131 3.367151 0.297662
v -10.027165 3.303991 -0.056237
v -9.781289 3.353112 -0.056237
v -10.014951 3.460526 -0.056237
v -10.093812 3.496778 0.359668
v -9.820601 3.371184 0.329544
v -11.200948 -3.369969 -1.451420
v -11.240702 -3.544055 -1.451420
v -11.246775 -3.570651 -1.331313
v -11.199903 -3.365392 -1.306735
v -11.280341 -3.456220 -1.451438
v -11.118648 -3.493143 -1.451438
v -11.118648 -3.493143 -1.328412
v -11.288288 -3.454405 -1.304891
v -8.018918 -6.114266 -3.056768
v -7.985376 -5.935992 -3.056768
v -7.982604 -5.921259 -2.981439
v -8.022515 -6.133381 -2.937481
v -7.926483 -6.047745 -3.056720
v -8.095997 -6.015850 -3.056720
v -8.051708 -6.024183 -2.971734
v -7.900034 -6.052721 -2.959630
v -15.476509 3.949381 1.046750
v -15.285286 3.854070 1.046750
v -15.314099 3.868431 1.182446
v -15.558026 3.990011 1.140711
v -15.378144 4.006456 1.046750
v -15.358191 4.046491 1.151598
v -15.458651 3.844935 1.184852
v -15.459397 3.843438 1.046750
v -15.995874 0.214987 0.317008
v -15.759325 0.186215 0.317008
v -15.730851 0.182752 0.415204
v -16.070160 0.224023 0.412379
v -15.925529 0.065703 0.317008
v -15.894309 0.322376 0.317008
v -15.893262 0.330980 0.400122
v -15.925071 0.069462 0.412524
v -14.542921 -1.689564 -0.260947
v -14.503030 -1.677963 -0.388519
v -14.374492 -1.640582 -0.388519
v -14.326068 -1.626499 -0.260947
v -14.405280 -1.713174 -0.388567
v -14.440560 -1.591859 -0.388567
v -14.454917 -1.542494 -0.255395
v -14.401820 -1.725073 -0.246661
v -15.040924 7.363294 1.751794
v -14.998595 7.494708 1.751794
v -14.993501 7.510526 1.840744
v -15.054217 7.322025 1.838186
v -14.948277 7.386930 1.751794
v -15.090871 7.432860 1.751794
v -15.095651 7.434400 1.827082
v -14.950366 7.387602 1.838317
v -15.310859 -11.423105 -1.920962
v -15.297182 -11.239790 -1.920962
v -15.295536 -11.217725 -1.795708
v -15.315154 -11.480675 -1.799310
v -15.198348 -11.363537 -1.920962
v -15.397259 -11.348697 -1.920962
v -15.403928 -11.348200 -1.814946
v -15.201262 -11.363319 -1.799125
v -15.358171 9.369820 2.255149
v -15.340256 9.367650 2.373291
v -15.484198 9.385081 2.343469
v -15.533183 9.391013 2.255149
v -15.446676 9.235472 2.255149
v -15.424731 9.416694 2.255149
v -15.417325 9.477856 2.358944
v -15.442984 9.265961 2.351426
v -15.135200 -12.590992 -2.157584
v -15.153506 -12.588923 -2.055675
v -15.006423 -12.605547 -2.081399
v -14.956369 -12.611204 -2.157584
v -15.045942 -12.453125 -2.157584
v -15.066872 -12.638302 -2.157584
v -15.073936 -12.700798 -2.068051
v -15.049464 -12.484281 -2.074536
v -12.201964 9.806611 1.831988
v -12.087852 9.926712 1.831988
v -12.060795 9.955189 1.935614
v -12.172721 9.837389 1.935614
v -12.074275 9.841213 1.831943
v -12.184176 9.945635 1.831943
v -12.191220 9.952328 1.946593
v -12.092953 9.858960 1.936261
v -10.021345 3.013221 -0.037245
v -10.082844 3.005038 -0.119159
v -10.281006 2.978670 -0.119159
v -10.355659 2.968737 -0.037245
v -10.219270 3.078945 -0.119190
v -10.194385 2.891919 -0.119190
v -10.184258 2.815815 -0.033679
v -10.221710 3.097288 -0.028071
v -13.167172 -0.133642 -0.279218
v -13.431955 -0.260119 -0.279218
v -13.453836 -0.270571 -0.207235
v -13.138783 -0.120081 -0.165229
v -13.342304 -0.076497 -0.279171
v -13.222043 -0.328268 -0.279171
v -13.253464 -0.262488 -0.197960
v -13.361069 -0.037215 -0.186394
v -13.263124 0.592342 -0.085835
v -13.278883 0.737862 -0.085835
v -13.281544 0.762430 0.013514
v -13.260413 0.567303 0.032627
v -13.192513 0.675953 -0.085909
v -13.368812 0.656861 -0.085909
v -13.302967 0.663992 0.053876
v -13.179786 0.677332 0.011414
v -15.644511 1.912721 0.667774
v -15.640541 1.888667 0.943548
v -15.672436 2.081929 0.873937
v -15.683290 2.147698 0.667774
v -15.852242 1.976627 0.667774
v -15.608927 2.016783 0.667774
v -15.526809 2.030335 0.910058
v -15.811306 1.983383 0.892510
v -8.909642 -5.171751 -2.328076
v -9.153314 -5.146406 -2.328076
v -9.116597 -5.150225 -2.133825
v -8.805766 -5.182555 -2.193569
v -8.992271 -5.272628 -2.328076
v -8.997578 -5.323644 -2.177984
v -8.970863 -5.066805 -2.130381
v -8.970665 -5.064897 -2.328076
v -12.629148 -15.615189 -3.174588
v -12.773163 -15.402063 -3.174588
v -12.785064 -15.384451 -3.102956
v -12.613708 -15.638040 -3.061154
v -12.602342 -15.455947 -3.174543
v -12.804995 -15.592884 -3.174543
v -12.752048 -15.557107 -3.093726
v -12.570724 -15.434582 -3.082216
v -11.166950 5.246678 0.569745
v -11.184938 5.252425 0.724903
v -11.040415 5.206251 0.685738
v -10.991231 5.190537 0.569745
v -11.049608 5.367388 0.569745
v -11.107741 5.185433 0.569745
v -11.127360 5.124024 0.706060
v -11.059389 5.336775 0.696187
v -14.469623 13.236480 2.946417
v -14.337251 13.152194 2.946417
v -14.321317 13.142049 3.031920
v -14.511192 13.262949 3.029461
v -14.470230 13.127802 2.946417
v -14.378775 13.271435 2.946417
v -14.375709 13.276250 3.018788
v -14.468891 13.129906 3.029588
v -6.082914 9.845427 0.830581
v -6.081285 9.700677 0.830581
v -6.081089 9.683253 0.917558
v -6.083425 9.890884 0.915057
v -6.167173 9.791104 0.830581
v -6.010108 9.792871 0.830581
v -6.004843 9.792931 0.904199
v -6.164873 9.791130 0.915185
v -12.203194 9.896595 1.828029
v -12.116694 9.686324 1.828029
v -12.129727 9.718008 1.968890
v -12.240067 9.986232 1.925566
v -12.084405 9.873457 1.828029
v -12.040382 9.891567 1.936868
v -12.262014 9.800393 1.971387
v -12.263661 9.799716 1.828029
v -12.729424 4.096248 0.594485
v -12.864991 3.941216 0.594485
v -12.876194 3.928404 0.670800
v -12.714889 4.112870 0.715334
v -12.858177 4.084466 0.594534
v -12.710764 3.955560 0.594534
v -12.749278 3.989239 0.680633
v -12.881178 4.104578 0.692895
v -12.895521 -4.056663 -1.206956
v -13.136974 -3.909669 -1.206956
v -13.156927 -3.897522 -1.099912
v -12.869633 -4.072423 -1.037446
v -12.941644 -3.885297 -1.206888
v -13.081414 -4.114885 -1.206888
v -13.044896 -4.054901 -1.086120
v -12.919836 -3.849476 -1.068920
v -8.845469 10.089262 1.368299
v -9.036730 10.096384 1.368299
v -9.065948 10.097472 1.456357
v -8.840441 10.089075 1.474378
v -8.952143 10.155657 1.368285
v -8.958758 9.978012 1.368285
v -8.958758 9.978012 1.458485
v -8.951818 10.164388 1.475730
v -13.999804 12.260880 2.700984
v -14.131274 12.410252 2.700984
v -14.151360 12.433071 2.809684
v -13.996348 12.256952 2.831928
v -14.026042 12.388851 2.700968
v -14.164781 12.266741 2.700968
v -14.164781 12.266741 2.812310
v -14.019223 12.394854 2.833596
v -12.136384 9.434539 1.729744
v -11.960113 9.574841 1.729744
v -11.986673 9.553700 1.862036
v -12.211527 9.374729 1.821348
v -12.147116 9.553973 1.729744
v -12.176490 9.590878 1.831962
v -12.028607 9.405083 1.864381
v -12.027509 9.403703 1.729744
v -1.991650 10.518476 0.355738
v -1.807437 10.636730 0.355738
v -1.785263 10.650965 0.467367
v -2.049501 10.481338 0.464156
v -1.854406 10.454080 0.355738
v -1.982722 10.653965 0.355738
v -1.987023 10.660666 0.450221
v -1.856285 10.457007 0.464321
v -14.338432 11.746378 2.591174
v -14.147340 11.636457 2.591174
v -14.176133 11.653021 2.764192
v -14.419894 11.793237 2.710978
v -14.233613 11.799117 2.591174
v -14.210599 11.839125 2.724859
v -14.326459 11.637707 2.767260
v -14.327320 11.636210 2.591174
v -13.783420 0.339882 -0.089580
v -13.567429 0.312531 -0.089580
v -13.534431 0.308352 -0.008311
v -13.789099 0.340601 0.008319
v -13.669246 0.253899 -0.089593
v -13.643843 0.454514 -0.089593
v -13.643843 0.454514 -0.006348
v -13.670494 0.244039 0.009567
v -11.889725 -1.558421 -0.876286
v -11.690786 -1.433176 -0.876286
v -11.643617 -1.403480 -0.789153
v -11.838742 -1.526324 -0.789153
v -11.702024 -1.555502 -0.876324
v -11.816631 -1.373459 -0.876324
v -11.823977 -1.361791 -0.779921
v -11.721501 -1.524563 -0.788609
v -10.353333 2.372329 -0.087939
v -10.374947 2.413712 -0.196958
v -10.444591 2.547058 -0.196958
v -10.470826 2.597293 -0.087939
v -10.357792 2.529207 -0.197000
v -10.483644 2.463477 -0.197000
v -10.534856 2.436731 -0.083194
v -10.345449 2.535653 -0.075730
v -15.451834 11.224440 2.709888
v -15.434428 11.173945 2.624228
v -15.378345 11.011239 2.624228
v -15.357216 10.949944 2.709888
v -15.473496 11.046210 2.624195
v -15.319934 11.099142 2.624195
v -15.257447 11.120681 2.713616
v -15.488558 11.041018 2.719481
v -6.946514 0.920801 -1.241757
v -6.940691 0.934746 -1.134087
v -6.987477 0.822707 -1.161265
v -7.003399 0.784579 -1.241757
v -6.858372 0.818917 -1.241757
v -6.999428 0.877821 -1.241757
v -7.047034 0.897701 -1.147162
v -6.882104 0.828828 -1.154014
v -15.699140 -2.368339 -0.273775
v -15.876251 -2.241244 -0.273775
v -15.849565 -2.260395 -0.159849
v -15.623638 -2.422519 -0.194888
v -15.807499 -2.409834 -0.273775
v -15.834107 -2.446915 -0.185748
v -15.700145 -2.260233 -0.157829
v -15.699149 -2.258846 -0.273775
v -15.736374 0.370870 0.319894
v -15.899527 0.219176 0.319894
v -15.874943 0.242033 0.453879
v -15.666822 0.435536 0.412670
v -15.716737 0.253929 0.319894
v -15.684978 0.219771 0.423420
v -15.844868 0.391740 0.456254
v -15.846056 0.393017 0.319894
v -14.187908 -4.946061 -1.182688
v -14.364569 -5.153070 -1.182688
v -14.379168 -5.170177 -1.021727
v -14.168966 -4.923865 -0.927797
v -14.357847 -4.963681 -1.182585
v -14.161010 -5.131660 -1.182585
v -14.212438 -5.087772 -1.000987
v -14.388558 -4.937472 -0.975124
v -13.413142 -4.503613 -1.281842
v -13.148401 -4.530012 -1.281842
v -13.085630 -4.536271 -1.099759
v -13.345297 -4.510378 -1.099759
v -13.243459 -4.631464 -1.281921
v -13.219301 -4.389206 -1.281921
v -13.217752 -4.373679 -1.080468
v -13.239353 -4.590291 -1.098623
v -13.223271 -1.093943 -0.511385
v -13.024813 -1.007667 -0.511385
v -12.977757 -0.987211 -0.381611
v -13.172412 -1.071833 -0.381611
v -13.052065 -1.117415 -0.511442
v -13.131014 -0.935811 -0.511442
v -13.136074 -0.924171 -0.367861
v -13.065483 -1.086550 -0.380801
v -9.982952 -5.066391 -2.065603
v -9.986473 -5.092843 -1.850525
v -9.958189 -4.880320 -1.904815
v -9.948564 -4.807996 -2.065603
v -10.180050 -4.933187 -2.065603
v -9.912486 -4.968796 -2.065603
v -9.822184 -4.980814 -1.876643
v -10.135034 -4.939178 -1.890330
vn -0.1697 -0.9855 -0.0000
vn 0.9855 -0.1697 -0.0000
vn 0.4483 -0.8939 -0.0000
vn 0.8939 0.4483 -0.0000
vn -0.9995 0.0308 -0.0000
vn -0.0308 -0.9995 -0.0000
vn -0.2844 0.9587 -0.0000
vn -0.9587 -0.2844 -0.0000
vn -0.0377 -0.9993 -0.0000
vn 0.9993 -0.0377 -0.0000
vn -0.9227 -0.3856 -0.0000
vn 0.3856 -0.9227 -0.0000
vn -0.7928 0.6095 -0.0000
vn -0.6095 -0.7928 -0.0000
vn 0.9576 0.2880 -0.0000
vn -0.2880 0.9576 -0.0000
vn -0.9860 0.1669 -0.0000
vn -0.1669 -0.9860 -0.0000
vn 0.8895 -0.4569 -0.0000
vn 0.4569 0.8895 -0.0000
vn 0.9984 -0.0572 -0.0000
vn 0.0572 0.9984 -0.0000
vn -0.6334 -0.7738 -0.0000
vn 0.7738 -0.6334 -0.0000
vn -0.8720 -0.4896 -0.0000
vn 0.4896 -0.8720 -0.0000
vn 0.7115 0.7027 -0.0000
vn -0.7027 0.7115 -0.0000
vn 0.3085 0.9512 -0.0000
vn -0.9512 0.3085 -0.0000
vn -0.4501 -0.8930 -0.0000
vn 0.8930 -0.4501 -0.0000
vn 0.4371 -0.8994 -0.0000
vn 0.8994 0.4371 -0.0000
vn -0.9916 0.1293 -0.0000
vn -0.1293 -0.9916 -0.0000
vn 0.1377 0.9905 -0.0000
vn -0.9905 0.1377 -0.0000
vn 0.6397 0.7686 -0.0000
vn -0.7686 0.6397 -0.0000
vn 0.6395 0.7688 -0.0000
vn -0.7688 0.6395 -0.0000
vn -0.6782 0.7349 -0.0000
vn -0.7349 -0.6782 -0.0000
vn 0.3308 -0.9437 -0.0000
vn 0.9437 0.3308 -0.0000
vn 0.7743 0.6328 -0.0000
vn -0.6328 0.7743 -0.0000
vn 0.9512 -0.3086 -0.0000
vn 0.3086 0.9512 -0.0000
vn -0.2722 0.9623 -0.0000
vn -0.9623 -0.2721 -0.0000
vn 0.6678 0.7443 -0.0000
vn -0.7443 0.6678 -0.0000
vn 0.6081 0.7939 -0.0000
vn -0.7939 0.6081 -0.0000
vn -0.1337 0.9910 -0.0000
vn -0.9910 -0.1337 -0.0000
vn -0.7281 0.6854 -0.0000
vn -0.6854 -0.7281 -0.0000
vn 0.0152 0.9999 -0.0000
vn -0.9999 0.0152 -0.0000
vn -0.8789 -0.4770 -0.0000
vn 0.4770 -0.8789 -0.0000
vn 0.7773 0.6291 -0.0000
vn -0.6291 0.7774 -0.0000
vn -0.7352 0.6778 -0.0000
vn -0.6778 -0.7352 -0.0000
vn -0.1321 -0.9912 -0.0000
vn 0.9912 -0.1321 -0.0000
vn -0.9998 -0.0203 -0.0000
vn 0.0204 -0.9998 -0.0000
vn -0.2857 -0.9583 -0.0000
vn 0.9583 -0.2857 -0.0000
vn 0.5812 0.8138 -0.0000
vn -0.8138 0.5812 -0.0000
vn 0.5320 0.8467 -0.0000
vn -0.8467 0.5320 -0.0000
vn 0.5158 -0.8567 -0.0000
vn 0.8567 0.5158 -0.0000
vn 0.2409 0.9705 -0.0000
vn -0.9706 0.2409 -0.0000
vn -0.0558 0.9984 -0.0000
vn -0.9984 -0.0558 -0.0000
vn -0.5689 -0.8224 -0.0000
vn 0.8224 -0.5689 -0.0000
vn -0.0998 0.9950 -0.0000
vn -0.9950 -0.0998 -0.0000
vn 0.9322 0.3620 -0.0000
vn -0.3620 0.9322 -0.0000
vn 0.0927 0.9957 -0.0000
vn -0.9957 0.0927 -0.0000
vn -0.7648 -0.6442 -0.0000
vn 0.6443 -0.7648 -0.0000
vn 0.9831 0.1832 -0.0000
vn -0.1832 0.9831 -0.0000
vn 0.6580 -0.7530 -0.0000
vn 0.7530 0.6580 -0.0000
vn -0.6147 0.7887 -0.0000
vn -0.7887 -0.6147 -0.0000
vn 0.6398 -0.7685 -0.0000
vn 0.7685 0.6398 -0.0000
vn 0.7476 -0.6641 -0.0000
vn 0.6641 0.7476 -0.0000
vn -0.1199 0.9928 -0.0000
vn -0.9928 -0.1199 -0.0000
vn -0.9899 -0.1417 -0.0000
vn 0.1418 -0.9899 -0.0000
vn 0.0459 0.9989 -0.0000
vn -0.9989 0.0459 -0.0000
vn -0.7295 -0.6840 -0.0000
vn 0.6840 -0.7295 -0.0000
vn 0.8984 -0.4391 -0.0000
vn 0.4391 0.8984 -0.0000
vn 0.9537 0.3007 -0.0000
vn -0.3007 0.9537 -0.0000
vn 0.8905 0.4550 -0.0000
vn -0.4550 0.8905 -0.0000
vn -0.4769 -0.8790 -0.0000
vn 0.8789 -0.4769 -0.0000
vn -0.0097 -1.0000 -0.0000
vn 1.0000 -0.0097 -0.0000
vn 0.8246 -0.5657 -0.0000
vn 0.5657 0.8246 -0.0000
vn 0.8933 0.4494 -0.0000
vn -0.4494 0.8933 -0.0000
vn -0.9589 0.2836 -0.0000
vn -0.2836 -0.9589 -0.0000
vn 0.4994 0.8664 -0.0000
vn -0.8664 0.4994 -0.0000
vn -0.8787 0.4773 -0.0000
vn -0.4773 -0.8787 -0.0000
vn 0.1687 -0.9857 -0.0000
vn 0.9857 0.1687 -0.0000
vn -0.5273 0.8497 -0.0000
vn -0.8497 -0.5273 -0.0000
vn 0.9982 0.0606 -0.0000
vn -0.0606 0.9982 -0.0000
vn 0.1537 -0.9881 -0.0000
vn 0.9881 0.1537 -0.0000
vn -0.4441 -0.8960 -0.0000
vn 0.8960 -0.4441 -0.0000
vn 0.5823 0.8129 -0.0000
vn -0.8129 0.5823 -0.0000
vn -0.5717 -0.8205 -0.0000
vn 0.8205 -0.5717 -0.0000
vn -0.8916 0.4528 -0.0000
vn -0.4528 -0.8916 -0.0000
vn -0.3295 -0.9441 -0.0000
vn 0.9441 -0.3295 -0.0000
vn 0.9440 0.3300 -0.0000
vn -0.3300 0.9440 -0.0000
vn -0.9984 -0.0569 -0.0000
vn 0.0569 -0.9984 -0.0000
vn 0.7314 -0.6819 -0.0000
vn 0.6819 0.7314 -0.0000
vn -0.8135 -0.5816 -0.0000
vn 0.5816 -0.8135 -0.0000
vn 0.6109 -0.7917 -0.0000
vn 0.7917 0.6109 -0.0000
vn 0.9738 -0.2273 -0.0000
vn 0.2273 0.9738 -0.0000
vn 0.9967 -0.0810 -0.0000
vn 0.0810 0.9967 -0.0000
vn -0.9864 0.1643 -0.0000
vn -0.1643 -0.9864 -0.0000
vn -0.3695 0.9292 -0.0000
vn -0.9292 -0.3695 -0.0000
vn -0.9387 -0.3446 -0.0000
vn 0.3446 -0.9387 -0.0000
vn 0.9981 0.0616 -0.0000
vn -0.0616 0.9981 -0.0000
vn -0.9532 -0.3023 -0.0000
vn 0.3023 -0.9532 -0.0000
vn -0.6952 0.7188 -0.0000
vn -0.7188 -0.6952 -0.0000
vn 0.3174 0.9483 -0.0000
vn -0.9483 0.3174 -0.0000
vn -0.3384 0.9410 -0.0000
vn -0.9410 -0.3384 -0.0000
vn 0.5781 -0.8159 -0.0000
vn 0.8159 0.5781 -0.0000
vn -0.0592 -0.9982 -0.0000
vn 0.9982 -0.0592 -0.0000
vn 0.9023 -0.4311 -0.0000
vn 0.4311 0.9023 -0.0000
vn -0.8143 0.5805 -0.0000
vn -0.5805 -0.8143 -0.0000
vn -0.7653 -0.6436 -0.0000
vn 0.6436 -0.7653 -0.0000
vn 0.4169 -0.9090 -0.0000
vn 0.9090 0.4169 -0.0000
vn -0.6492 -0.7606 -0.0000
vn 0.7606 -0.6492 -0.0000
vn -0.1867 0.9824 -0.0000
vn -0.9824 -0.1867 -0.0000
vn -0.8702 0.4927 -0.0000
vn -0.4927 -0.8702 -0.0000
vn -0.6871 -0.7266 -0.0000
vn 0.7266 -0.6871 -0.0000
vn -1.0000 -0.0014 -0.0000
vn 0.0014 -1.0000 -0.0000
vn -0.7665 0.6422 -0.0000
vn -0.6422 -0.7665 -0.0000
vn 0.9098 0.4150 -0.0000
vn -0.4150 0.9098 -0.0000
vn -0.4855 -0.8742 -0.0000
vn 0.8742 -0.4855 -0.0000
vn -0.1898 -0.9818 -0.0000
vn 0.9818 -0.1898 -0.0000
vn -0.1359 0.9907 -0.0000
vn -0.9907 -0.1359 -0.0000
vn 0.9173 -0.3983 -0.0000
vn 0.3983 0.9173 -0.0000
vn -0.8895 0.4569 -0.0000
vn -0.0897 -0.9960 -0.0000
vn 0.9960 -0.0897 -0.0000
vn 0.3153 -0.9490 -0.0000
vn 0.9490 0.3153 -0.0000
vn -0.5697 -0.8219 -0.0000
vn 0.8219 -0.5697 -0.0000
vn -0.0211 -0.9998 -0.0000
vn 0.9998 -0.0211 -0.0000
vn 0.7316 0.6818 -0.0000
vn -0.6818 0.7316 -0.0000
vn 0.8223 0.5691 -0.0000
vn -0.5691 0.8223 -0.0000
vn -0.7431 -0.6692 -0.0000
vn 0.6692 -0.7431 -0.0000
vn 0.9726 -0.2326 -0.0000
vn 0.2326 0.9726 -0.0000
vn -0.1480 0.9890 -0.0000
vn -0.9890 -0.1480 -0.0000
vn 0.8346 0.5508 -0.0000
vn -0.5508 0.8346 -0.0000
vn 0.9749 -0.2225 -0.0000
vn 0.2225 0.9749 -0.0000
vn -0.5574 -0.8302 -0.0000
vn 0.8302 -0.5574 -0.0000
vn 0.7594 -0.6507 -0.0000
vn 0.6507 0.7594 -0.0000
vn -0.9998 0.0192 -0.0000
vn -0.0192 -0.9998 -0.0000
vn -0.4796 -0.8775 -0.0000
vn 0.8775 -0.4796 -0.0000
vn -0.9299 -0.3678 -0.0000
vn 0.3678 -0.9299 -0.0000
vn -0.1766 -0.9843 -0.0000
vn 0.9843 -0.1766 -0.0000
vn -0.3486 -0.9373 -0.0000
vn 0.9373 -0.3486 -0.0000
vn -0.5691 -0.8223 -0.0000
vn 0.8223 -0.5691 -0.0000
vn 0.5512 -0.8344 -0.0000
vn 0.8344 0.5512 -0.0000
vn -0.6264 -0.7795 -0.0000
vn 0.7795 -0.6264 -0.0000
vn -0.9413 -0.3376 -0.0000
vn 0.3376 -0.9413 -0.0000
vn -0.9100 0.4147 -0.0000
vn -0.4147 -0.9100 -0.0000
vn 0.6804 0.7328 -0.0000
vn -0.7328 0.6804 -0.0000
vn -0.9507 0.3102 -0.0000
vn -0.3102 -0.9507 -0.0000
vn -0.8815 -0.4721 -0.0000
vn 0.4721 -0.8815 -0.0000
vn -0.3706 0.9288 -0.0000
vn -0.9288 -0.3705 -0.0000
vn -0.2661 0.9639 -0.0000
vn -0.9639 -0.2661 -0.0000
vn -0.3803 0.9248 -0.0000
vn -0.9248 -0.3803 -0.0000
vn 0.2895 0.9572 -0.0000
vn -0.9572 0.2895 -0.0000
vn -0.0256 -0.9997 -0.0000
vn 0.9997 -0.0256 -0.0000
vn -0.0102 -0.9999 -0.0000
vn 0.9999 -0.0102 -0.0000
vn 0.4071 0.9134 -0.0000
vn -0.9134 0.4071 -0.0000
vn 0.9860 0.1666 -0.0000
vn -0.1666 0.9860 -0.0000
vn 0.9086 -0.4177 -0.0000
vn 0.4177 0.9086 -0.0000
vn -0.9749 0.2226 -0.0000
vn -0.2226 -0.9749 -0.0000
vn 0.9828 -0.1849 -0.0000
vn 0.1849 0.9828 -0.0000
vn -0.4461 -0.8950 -0.0000
vn 0.8950 -0.4461 -0.0000
vn -0.1207 -0.9927 -0.0000
vn 0.9927 -0.1207 -0.0000
vn 0.2792 -0.9602 -0.0000
vn 0.9602 0.2793 -0.0000
vn 0.9518 -0.3066 -0.0000
vn 0.3066 0.9518 -0.0000
vn 0.9972 -0.0744 -0.0000
vn 0.0744 0.9972 -0.0000
vn -0.1202 -0.9927 -0.0000
vn 0.9927 -0.1202 -0.0000
vn 0.1123 0.9937 -0.0000
vn -0.9937 0.1123 -0.0000
vn 0.7249 -0.6888 -0.0000
vn 0.6888 0.7250 -0.0000
vn -0.1319 0.9913 -0.0000
vn -0.9913 -0.1319 -0.0000
vn -0.4310 0.9023 -0.0000
vn -0.9023 -0.4310 -0.0000
vn 0.9942 0.1077 -0.0000
vn -0.1077 0.9942 -0.0000
vn -0.9867 -0.1628 -0.0000
vn 0.1628 -0.9867 -0.0000
vn 0.1035 0.9946 -0.0000
vn -0.9946 0.1035 -0.0000
vn 0.8286 0.5599 -0.0000
vn -0.5599 0.8286 -0.0000
vn 0.3043 0.9526 -0.0000
vn -0.9526 0.3043 -0.0000
vn -0.5371 -0.8435 -0.0000
vn 0.8435 -0.5371 -0.0000
vn -0.9999 -0.0113 -0.0000
vn 0.0113 -0.9999 -0.0000
vn -0.9248 -0.3804 -0.0000
vn 0.3804 -0.9248 -0.0000
vn -0.7528 0.6583 -0.0000
vn -0.6583 -0.7528 -0.0000
vn 0.5200 0.8542 -0.0000
vn -0.8542 0.5200 -0.0000
vn 0.0372 0.9993 -0.0000
vn -0.9993 0.0372 -0.0000
vn 0.7507 0.6607 -0.0000
vn -0.6607 0.7507 -0.0000
vn 0.6228 -0.7824 -0.0000
vn 0.7824 0.6228 -0.0000
vn 0.5402 -0.8415 -0.0000
vn 0.8415 0.5402 -0.0000
vn -0.4986 -0.8668 -0.0000
vn 0.8668 -0.4986 -0.0000
vn -0.1256 -0.9921 -0.0000
vn 0.9921 -0.1256 -0.0000
vn 0.5328 -0.8463 -0.0000
vn 0.8463 0.5328 -0.0000
vn 0.8864 0.4629 -0.0000
vn -0.4629 0.8864 -0.0000
vn -0.9454 -0.3259 -0.0000
vn 0.3259 -0.9454 -0.0000
vn 0.9228 -0.3853 -0.0000
vn 0.3853 0.9228 -0.0000
vn 0.5830 0.8125 -0.0000
vn -0.8125 0.5830 -0.0000
vn -0.6809 0.7324 -0.0000
vn -0.7324 -0.6809 -0.0000
vn -0.7607 0.6491 -0.0000
vn -0.6491 -0.7607 -0.0000
vn -0.0992 -0.9951 -0.0000
vn 0.9951 -0.0992 -0.0000
vn 0.3987 -0.9171 -0.0000
vn 0.9171 0.3987 -0.0000
vn -0.9913 0.1319 -0.0000
vn -0.1319 -0.9913 -0.0000
vn 0.9855 -0.1696 -0.0000
vn 0.8939 0.4484 -0.0000
vn -0.9860 0.1670 -0.0000
vn -0.1670 -0.9860 -0.0000
vn 0.8994 0.4372 -0.0000
vn 0.9512 -0.3087 -0.0000
vn 0.3087 0.9512 -0.0000
vn -0.9623 -0.2722 -0.0000
vn 0.6679 0.7443 -0.0000
vn -0.9999 0.0151 -0.0000
vn 0.7774 0.6291 -0.0000
vn -0.9998 -0.0204 -0.0000
vn -0.8138 0.5811 -0.0000
vn -0.9705 0.2409 -0.0000
vn -0.7648 -0.6443 -0.0000
vn 0.6442 -0.7648 -0.0000
vn -0.9899 -0.1418 -0.0000
vn 0.1417 -0.9899 -0.0000
vn -0.4769 -0.8789 -0.0000
vn 0.9982 0.0605 -0.0000
vn 0.9738 -0.2272 -0.0000
vn 0.7593 -0.6507 -0.0000
vn 0.6507 0.7593 -0.0000
vn -0.9299 -0.3677 -0.0000
vn -0.9288 -0.3706 -0.0000
vn 0.9602 0.2792 -0.0000
vn 0.7250 -0.6888 -0.0000
vn 0.6888 0.7249 -0.0000
vn -0.9999 -0.0112 -0.0000
vn 0.8864 0.4630 -0.0000
vt 0.183597 0.000000
vt 0.079867 0.150378
vt 0.039548 0.000000
vt 0.406485 0.000000
vt 0.282420 0.163926
vt 0.257324 0.000000
vt 0.683200 0.750259
vt 0.546949 0.843491
vt 0.500000 0.750259
vt 0.966633 0.750219
vt 0.827483 0.844072
vt 0.798992 0.750219
vt 0.046190 0.750308
vt 0.224718 0.829653
vt 0.019909 0.844918
vt 0.292351 0.750248
vt 0.408285 0.861889
vt 0.278991 0.827976
vt 0.587516 0.250000
vt 0.696219 0.438742
vt 0.532955 0.380692
vt 0.931885 0.250000
vt 0.823776 0.442088
vt 0.822774 0.250000
vt 0.574736 0.000000
vt 0.727477 0.180119
vt 0.531923 0.174939
vt 0.943005 0.000000
vt 0.797243 0.175205
vt 0.795077 0.000000
vt 0.038376 0.371048
vt 0.159378 0.250046
vt 0.194166 0.371048
vt 0.420000 0.250000
vt 0.324298 0.384599
vt 0.332846 0.250000
vt 0.548614 0.500208
vt 0.730526 0.577570
vt 0.530599 0.622715
vt 0.802250 0.500257
vt 0.920277 0.587538
vt 0.777322 0.599968
vt 0.947964 0.152455
vt 0.958681 0.395835
vt 0.199407 0.500208
vt 0.021869 0.609361
vt 0.026417 0.500208
vt 0.318619 0.500194
vt 0.479294 0.593008
vt 0.310722 0.610752
vt 0.198931 0.750308
vt 0.715504 0.250000
vt 0.225835 0.590819
vt 0.198343 0.201154
vt 0.456826 0.176726
vt 0.726638 0.843491
vt 0.977378 0.853368
vt 0.477396 0.750248
vt 0.711067 0.000000
vt 0.067034 0.250046
vt 0.455465 0.376315
vt 0.716640 0.500208
vt 0.962020 0.500257
vt 0.479294 0.500194
s 0
f 1/1/1 3/2/1 4/3/1
f 6/4/2 8/5/2 5/6/2
f 10/7/3 12/8/3 9/9/3
f 14/10/4 16/11/4 13/12/4
f 17/1/5 19/2/5 20/3/5
f 22/4/6 24/5/6 21/6/6
f 25/13/7 27/14/7 28/15/7
f 29/16/8 31/17/8 32/18/8
f 33/19/9 35/20/9 36/21/9
f 37/22/10 39/23/10 40/24/10
f 41/25/11 43/26/11 44/27/11
f 46/28/12 48/29/12 45/30/12
f 49/1/13 51/2/13 52/3/13
f 54/4/14 56/5/14 53/6/14
f 58/7/15 60/8/15 57/9/15
f 62/10/16 64/11/16 61/12/16
f 65/1/17 67/2/17 68/3/17
f 70/4/18 72/5/18 69/6/18
f 73/31/19 75/32/19 76/33/19
f 78/34/20 80/35/20 77/36/20
f 81/13/21 83/14/21 84/15/21
f 85/16/22 87/17/22 88/18/22
f 89/37/23 91/38/23 92/39/23
f 93/40/24 95/41/24 96/42/24
f 97/1/25 99/2/25 100/3/25
f 102/4/26 104/5/26 101/6/26
f 105/25/27 107/26/27 108/27/27
f 110/28/28 112/29/28 109/30/28
f 113/31/29 115/32/29 116/33/29
f 118/34/30 120/35/30 117/36/30
f 121/19/31 123/20/31 124/21/31
f 125/22/32 127/23/32 128/24/32
f 129/1/33 131/2/33 132/3/33
f 134/4/34 136/5/34 133/6/34
f 138/7/35 140/8/35 137/9/35
f 142/10/36 144/11/36 141/12/36
f 145/31/37 147/32/37 148/33/37
f 150/34/38 152/35/38 149/36/38
f 153/19/39 155/20/39 156/21/39
f 157/22/40 159/23/40 160/24/40
f 161/13/41 163/14/41 164/15/41
f 165/16/42 167/17/42 168/18/42
f 169/1/43 171/2/43 172/3/43
f 174/4/44 176/5/44 173/6/44
f 178/7/45 180/8/45 177/9/45
f 182/10/46 184/11/46 181/12/46
f 186/7/47 188/8/47 185/9/47
f 190/10/48 192/11/48 189/12/48
f 193/19/49 195/20/49 196/21/49
f 197/22/50 199/23/50 200/24/50
f 202/7/51 204/8/51 201/9/51
f 206/10/52 208/11/52 205/12/52
f 209/1/53 211/2/53 212/3/53
f 214/4/54 216/5/54 213/6/54
f 217/25/55 219/26/55 220/27/55
f 221/30/56 223/43/56 224/29/56
f 225/19/57 227/20/57 228/21/57
f 229/22/58 231/23/58 232/24/58
f 233/19/59 235/20/59 236/21/59
f 237/22/60 239/23/60 240/24/60
f 242/7/61 244/8/61 241/9/61
f 246/10/62 248/11/62 245/12/62
f 249/13/63 251/14/63 252/15/63
f 253/16/64 255/17/64 256/18/64
f 257/25/65 259/26/65 260/27/65
f 262/28/66 264/29/66 261/30/66
f 265/37/67 267/38/67 268/39/67
f 269/40/68 271/41/68 272/42/68
f 273/31/69 275/32/69 276/33/69
f 278/34/70 280/35/70 277/36/70
f 281/1/71 283/2/71 284/3/71
f 286/4/72 288/5/72 285/6/72
f 289/37/73 291/38/73 292/39/73
f 293/40/74 295/41/74 296/42/74
f 297/19/75 299/20/75 300/21/75
f 301/22/76 303/23/76 304/24/76
f 305/25/77 307/26/77 308/27/77
f 310/28/78 312/29/78 309/30/78
f 313/1/79 315/2/79 316/3/79
f 318/4/80 320/5/80 317/6/80
f 321/31/81 323/32/81 324/33/81
f 326/34/82 328/35/82 325/36/82
f 329/31/83 331/32/83 332/33/83
f 334/34/84 336/35/84 333/36/84
f 337/1/85 339/2/85 340/3/85
f 342/4/86 344/5/86 341/6/86
f 345/19/87 347/20/87 348/21/87
f 350/44/88 352/24/88 349/22/88
f 353/1/89 355/2/89 356/3/89
f 358/4/90 360/5/90 357/6/90
f 361/19/91 363/20/91 364/21/91
f 365/22/92 367/23/92 368/24/92
f 369/37/93 371/38/93 372/39/93
f 373/40/94 375/41/94 376/42/94
f 377/1/95 379/2/95 380/3/95
f 382/4/96 384/5/96 381/6/96
f 385/25/97 387/26/97 388/27/97
f 389/30/98 391/43/98 392/29/98
f 394/45/99 396/46/99 393/47/99
f 397/48/100 399/49/100 400/50/100
f 401/37/101 403/38/101 404/39/101
f 405/40/102 407/41/102 408/42/102
f 409/25/103 411/26/103 412/27/103
f 413/30/104 415/43/104 416/29/104
f 417/31/105 419/32/105 420/33/105
f 422/34/106 424/35/106 421/36/106
f 425/31/107 427/32/107 428/33/107
f 430/34/108 432/35/108 429/36/108
f 433/25/109 435/26/109 436/27/109
f 438/28/110 440/29/110 437/30/110
f 441/31/111 443/32/111 444/33/111
f 446/34/112 448/35/112 445/36/112
f 449/1/113 451/2/113 452/3/113
f 454/4/114 456/5/114 453/6/114
f 458/51/115 460/15/115 457/13/115
f 461/16/116 463/17/116 464/18/116
f 465/37/117 467/38/117 468/39/117
f 469/40/118 471/41/118 472/42/118
f 473/19/119 475/20/119 476/21/119
f 478/44/120 480/24/120 477/22/120
f 482/52/121 484/21/121 481/19/121
f 486/44/122 488/24/122 485/22/122
f 489/37/123 491/38/123 492/39/123
f 493/40/124 495/41/124 496/42/124
f 497/37/19 499/38/19 500/39/19
f 501/40/20 503/41/20 504/42/20
f 505/31/125 507/32/125 508/33/125
f 510/34/126 512/35/126 509/36/126
f 513/25/127 515/26/127 516/27/127
f 517/30/128 519/43/128 520/29/128
f 521/37/129 523/38/129 524/39/129
f 525/40/130 527/41/130 528/42/130
f 529/13/131 531/14/131 532/15/131
f 533/16/132 535/17/132 536/18/132
f 537/37/133 539/38/133 540/39/133
f 541/40/134 543/41/134 544/42/134
f 545/25/135 547/26/135 548/27/135
f 550/28/136 552/29/136 549/30/136
f 553/31/137 555/32/137 556/33/137
f 558/34/138 560/35/138 557/36/138
f 561/19/139 563/20/139 564/21/139
f 565/22/140 567/23/140 568/24/140
f 569/31/141 571/32/141 572/33/141
f 574/34/142 576/35/142 573/36/142
f 578/45/143 580/46/143 577/47/143
f 581/48/144 583/49/144 584/50/144
f 586/7/145 588/8/145 585/9/145
f 590/10/146 592/11/146 589/12/146
f 593/1/147 595/2/147 596/3/147
f 598/4/148 600/5/148 597/6/148
f 601/25/149 603/26/149 604/27/149
f 606/28/150 608/29/150 605/30/150
f 610/45/151 612/46/151 609/47/151
f 613/48/152 615/49/152 616/50/152
f 617/37/153 619/38/153 620/39/153
f 621/40/154 623/41/154 624/42/154
f 625/31/155 627/32/155 628/33/155
f 630/34/156 632/35/156 629/36/156
f 633/31/157 635/32/157 636/33/157
f 638/34/158 640/35/158 637/36/158
f 641/47/159 643/53/159 644/46/159
f 645/48/160 647/49/160 648/50/160
f 650/45/161 652/46/161 649/47/161
f 653/48/162 655/49/162 656/50/162
f 657/1/163 659/2/163 660/3/163
f 662/4/164 664/5/164 661/6/164
f 665/1/165 667/2/165 668/3/165
f 670/4/166 672/5/166 669/6/166
f 673/19/167 675/20/167 676/21/167
f 678/44/168 680/24/168 677/22/168
f 681/37/169 683/38/169 684/39/169
f 685/40/170 687/41/170 688/42/170
f 689/1/171 691/2/171 692/3/171
f 694/4/172 696/5/172 693/6/172
f 697/19/173 699/20/173 700/21/173
f 701/22/174 703/23/174 704/24/174
f 705/31/175 707/32/175 708/33/175
f 710/34/176 712/35/176 709/36/176
f 714/45/177 716/46/177 713/47/177
f 717/48/178 719/49/178 720/50/178
f 721/19/179 723/20/179 724/21/179
f 725/22/180 727/23/180 728/24/180
f 730/45/181 732/46/181 729/47/181
f 733/48/182 735/49/182 736/50/182
f 737/19/183 739/20/183 740/21/183
f 741/22/184 743/23/184 744/24/184
f 746/52/185 748/21/185 745/19/185
f 750/44/186 752/24/186 749/22/186
f 754/7/187 756/8/187 753/9/187
f 758/10/188 760/11/188 757/12/188
f 761/25/189 763/26/189 764/27/189
f 766/28/190 768/29/190 765/30/190
f 770/45/191 772/46/191 769/47/191
f 773/48/192 775/49/192 776/50/192
f 778/7/193 780/8/193 777/9/193
f 782/10/194 784/11/194 781/12/194
f 785/1/195 787/2/195 788/3/195
f 790/4/196 792/5/196 789/6/196
f 794/51/197 796/15/197 793/13/197
f 797/16/198 799/17/198 800/18/198
f 802/45/199 804/46/199 801/47/199
f 805/48/200 807/49/200 808/50/200
f 809/19/201 811/20/201 812/21/201
f 814/44/202 816/24/202 813/22/202
f 818/45/203 820/46/203 817/47/203
f 821/48/204 823/49/204 824/50/204
f 825/25/205 827/26/205 828/27/205
f 829/30/206 831/43/206 832/29/206
f 833/25/207 835/26/207 836/27/207
f 838/28/208 840/29/208 837/30/208
f 841/19/209 843/20/209 844/21/209
f 845/22/210 847/23/210 848/24/210
f 849/1/211 851/2/211 852/3/211
f 854/4/212 856/5/212 853/6/212
f 858/7/213 860/8/213 857/9/213
f 862/10/214 864/11/214 861/12/214
f 865/19/20 867/20/20 868/21/20
f 869/22/215 871/23/215 872/24/215
f 873/25/216 875/26/216 876/27/216
f 878/28/217 880/29/217 877/30/217
f 882/7/218 884/8/218 881/9/218
f 886/10/219 888/11/219 885/12/219
f 889/19/220 891/20/220 892/21/220
f 893/22/221 895/23/221 896/24/221
f 897/25/222 899/26/222 900/27/222
f 902/28/223 904/29/223 901/30/223
f 905/31/224 907/32/224 908/33/224
f 910/34/225 912/35/225 909/36/225
f 913/25/226 915/26/226 916/27/226
f 918/28/227 920/29/227 917/30/227
f 921/31/228 923/32/228 924/33/228
f 926/34/229 928/35/229 925/36/229
f 929/19/230 931/20/230 932/21/230
f 933/22/231 935/23/231 936/24/231
f 937/1/232 939/2/232 940/3/232
f 942/4/233 944/5/233 941/6/233
f 945/1/234 947/2/234 948/3/234
f 950/4/235 952/5/235 949/6/235
f 954/7/236 956/8/236 953/9/236
f 958/10/237 960/11/237 957/12/237
f 961/31/238 963/32/238 964/33/238
f 966/34/239 968/35/239 965/36/239
f 969/31/240 971/32/240 972/33/240
f 974/34/241 976/35/241 973/36/241
f 977/1/242 979/2/242 980/3/242
f 982/4/243 984/5/243 981/6/243
f 985/13/244 987/14/244 988/15/244
f 989/16/245 991/17/245 992/18/245
f 993/19/246 995/20/246 996/21/246
f 997/22/247 999/23/247 1000/24/247
f 1001/25/248 1003/26/248 1004/27/248
f 1006/28/249 1008/29/249 1005/30/249
f 1009/19/250 1011/20/250 1012/21/250
f 1014/44/251 1016/24/251 1013/22/251
f 1018/7/252 1020/8/252 1017/9/252
f 1022/10/253 1024/11/253 1021/12/253
f 1025/13/254 1027/14/254 1028/15/254
f 1029/16/255 1031/17/255 1032/18/255
f 1033/1/256 1035/2/256 1036/3/256
f 1038/4/257 1040/5/257 1037/6/257
f 1042/51/258 1044/15/258 1041/13/258
f 1045/16/259 1047/17/259 1048/18/259
f 1050/45/260 1052/46/260 1049/47/260
f 1053/48/261 1055/49/261 1056/50/261
f 1057/37/262 1059/38/262 1060/39/262
f 1061/40/263 1063/41/263 1064/42/263
f 1065/31/264 1067/32/264 1068/33/264
f 1070/34/265 1072/35/265 1069/36/265
f 1073/19/266 1075/20/266 1076/21/266
f 1077/22/267 1079/23/267 1080/24/267
f 1081/1/268 1083/2/268 1084/3/268
f 1086/4/269 1088/5/269 1085/6/269
f 1089/25/270 1091/26/270 1092/27/270
f 1094/28/271 1096/29/271 1093/30/271
f 1097/25/272 1099/26/272 1100/27/272
f 1102/28/273 1104/29/273 1101/30/273
f 1105/31/274 1107/32/274 1108/33/274
f 1110/34/275 1112/35/275 1109/36/275
f 1114/45/276 1116/46/276 1113/47/276
f 1117/48/277 1119/49/277 1120/50/277
f 1121/31/278 1123/32/278 1124/33/278
f 1126/34/279 1128/35/279 1125/36/279
f 1130/7/280 1132/8/280 1129/9/280
f 1134/10/281 1136/11/281 1133/12/281
f 1137/31/282 1139/32/282 1140/33/282
f 1142/34/283 1144/35/283 1141/36/283
f 1145/1/284 1147/2/284 1148/3/284
f 1150/4/285 1152/5/285 1149/6/285
f 1154/45/286 1156/46/286 1153/47/286
f 1157/48/287 1159/49/287 1160/50/287
f 1161/37/288 1163/38/288 1164/39/288
f 1165/40/289 1167/41/289 1168/42/289
f 1169/19/290 1171/20/290 1172/21/290
f 1173/22/291 1175/23/291 1176/24/291
f 1177/25/292 1179/26/292 1180/27/292
f 1182/28/293 1184/29/293 1181/30/293
f 1185/31/294 1187/32/294 1188/33/294
f 1190/34/295 1192/35/295 1189/36/295
f 1193/25/296 1195/26/296 1196/27/296
f 1198/28/297 1200/29/297 1197/30/297
f 1201/25/298 1203/26/298 1204/27/298
f 1206/28/299 1208/29/299 1205/30/299
f 1209/1/300 1211/2/300 1212/3/300
f 1214/4/301 1216/5/301 1213/6/301
f 1217/1/302 1219/2/302 1220/3/302
f 1222/4/303 1224/5/303 1221/6/303
f 1226/7/304 1228/8/304 1225/9/304
f 1230/10/305 1232/11/305 1229/12/305
f 1233/31/306 1235/32/306 1236/33/306
f 1238/34/307 1240/35/307 1237/36/307
f 1241/37/308 1243/38/308 1244/39/308
f 1245/40/309 1247/41/309 1248/42/309
f 1249/13/310 1251/14/310 1252/15/310
f 1253/16/311 1255/17/311 1256/18/311
f 1257/1/312 1259/2/312 1260/3/312
f 1262/4/313 1264/5/313 1261/6/313
f 1265/19/314 1267/20/314 1268/21/314
f 1269/22/315 1271/23/315 1272/24/315
f 1273/37/316 1275/38/316 1276/39/316
f 1277/40/317 1279/41/317 1280/42/317
f 1281/1/318 1283/2/318 1284/3/318
f 1286/4/319 1288/5/319 1285/6/319
f 1289/25/320 1291/26/320 1292/27/320
f 1294/28/321 1296/29/321 1293/30/321
f 1297/25/322 1299/26/322 1300/27/322
f 1302/28/323 1304/29/323 1301/30/323
f 1305/19/324 1307/20/324 1308/21/324
f 1309/22/325 1311/23/325 1312/24/325
f 1313/37/326 1315/38/326 1316/39/326
f 1317/40/327 1319/41/327 1320/42/327
f 1321/37/328 1323/38/328 1324/39/328
f 1325/40/329 1327/41/329 1328/42/329
f 1330/45/330 1332/46/330 1329/47/330
f 1333/48/331 1335/49/331 1336/50/331
f 1338/45/332 1340/46/332 1337/47/332
f 1341/48/333 1343/49/333 1344/50/333
f 1345/19/334 1347/20/334 1348/21/334
f 1349/22/335 1351/23/335 1352/24/335
f 1353/25/336 1355/26/336 1356/27/336
f 1358/28/337 1360/29/337 1357/30/337
f 1361/19/338 1363/20/338 1364/21/338
f 1365/22/339 1367/23/339 1368/24/339
f 1370/45/340 1372/46/340 1369/47/340
f 1373/48/341 1375/49/341 1376/50/341
f 1378/7/342 1380/8/342 1377/9/342
f 1382/10/343 1384/11/343 1381/12/343
f 1385/31/344 1387/32/344 1388/33/344
f 1390/34/345 1392/35/345 1389/36/345
f 1393/31/346 1395/32/346 1396/33/346
f 1398/34/347 1400/35/347 1397/36/347
f 1401/1/348 1403/2/348 1404/3/348
f 1406/4/349 1408/5/349 1405/6/349
f 1409/19/350 1411/20/350 1412/21/350
f 1413/22/351 1415/23/351 1416/24/351
f 1417/19/352 1419/20/352 1420/21/352
f 1421/22/353 1423/23/353 1424/24/353
f 1425/37/354 1427/38/354 1428/39/354
f 1429/40/355 1431/41/355 1432/42/355
f 1434/7/356 1436/8/356 1433/9/356
f 1438/10/357 1440/11/357 1437/12/357
f 1442/7/358 1444/8/358 1441/9/358
f 1446/10/359 1448/11/359 1445/12/359
f 1449/1/360 1451/2/360 1452/3/360
f 1454/4/361 1456/5/361 1453/6/361
f 1/1/1 2/54/1 3/2/1
f 6/4/362 7/55/362 8/5/362
f 10/7/3 11/56/3 12/8/3
f 14/10/363 15/57/363 16/11/363
f 17/1/5 18/54/5 19/2/5
f 22/4/6 23/55/6 24/5/6
f 25/13/7 26/51/7 27/14/7
f 29/16/8 30/58/8 31/17/8
f 33/19/9 34/52/9 35/20/9
f 37/22/10 38/44/10 39/23/10
f 41/25/11 42/59/11 43/26/11
f 46/28/12 47/43/12 48/29/12
f 49/1/13 50/54/13 51/2/13
f 54/4/14 55/55/14 56/5/14
f 58/7/15 59/56/15 60/8/15
f 62/10/16 63/57/16 64/11/16
f 65/1/364 66/54/364 67/2/364
f 70/4/365 71/55/365 72/5/365
f 73/31/19 74/60/19 75/32/19
f 78/34/20 79/61/20 80/35/20
f 81/13/21 82/51/21 83/14/21
f 85/16/22 86/58/22 87/17/22
f 89/37/23 90/62/23 91/38/23
f 93/40/24 94/63/24 95/41/24
f 97/1/25 98/54/25 99/2/25
f 102/4/26 103/55/26 104/5/26
f 105/25/27 106/59/27 107/26/27
f 110/28/28 111/43/28 112/29/28
f 113/31/29 114/60/29 115/32/29
f 118/34/30 119/61/30 120/35/30
f 121/19/31 122/52/31 123/20/31
f 125/22/32 126/44/32 127/23/32
f 129/1/33 130/54/33 131/2/33
f 134/4/366 135/55/366 136/5/366
f 138/7/35 139/56/35 140/8/35
f 142/10/36 143/57/36 144/11/36
f 145/31/37 146/60/37 147/32/37
f 150/34/38 151/61/38 152/35/38
f 153/19/39 154/52/39 155/20/39
f 157/22/40 158/44/40 159/23/40
f 161/13/41 162/51/41 163/14/41
f 165/16/42 166/58/42 167/17/42
f 169/1/43 170/54/43 171/2/43
f 174/4/44 175/55/44 176/5/44
f 178/7/45 179/56/45 180/8/45
f 182/10/46 183/57/46 184/11/46
f 186/7/47 187/56/47 188/8/47
f 190/10/48 191/57/48 192/11/48
f 193/19/367 194/52/367 195/20/367
f 197/22/368 198/44/368 199/23/368
f 202/7/51 203/56/51 204/8/51
f 206/10/369 207/57/369 208/11/369
f 209/1/370 210/54/370 211/2/370
f 214/4/54 215/55/54 216/5/54
f 217/25/55 218/59/55 219/26/55
f 221/30/56 222/28/56 223/43/56
f 225/19/57 226/52/57 227/20/57
f 229/22/58 230/44/58 231/23/58
f 233/19/59 234/52/59 235/20/59
f 237/22/60 238/44/60 239/23/60
f 242/7/61 243/56/61 244/8/61
f 246/10/371 247/57/371 248/11/371
f 249/13/63 250/51/63 251/14/63
f 253/16/64 254/58/64 255/17/64
f 257/25/372 258/59/372 259/26/372
f 262/28/66 263/43/66 264/29/66
f 265/37/67 266/62/67 267/38/67
f 269/40/68 270/63/68 271/41/68
f 273/31/69 274/60/69 275/32/69
f 278/34/70 279/61/70 280/35/70
f 281/1/373 282/54/373 283/2/373
f 286/4/72 287/55/72 288/5/72
f 289/37/73 290/62/73 291/38/73
f 293/40/74 294/63/74 295/41/74
f 297/19/75 298/52/75 299/20/75
f 301/22/374 302/44/374 303/23/374
f 305/25/77 306/59/77 307/26/77
f 310/28/78 311/43/78 312/29/78
f 313/1/79 314/54/79 315/2/79
f 318/4/80 319/55/80 320/5/80
f 321/31/81 322/60/81 323/32/81
f 326/34/375 327/61/375 328/35/375
f 329/31/83 330/60/83 331/32/83
f 334/34/84 335/61/84 336/35/84
f 337/1/85 338/54/85 339/2/85
f 342/4/86 343/55/86 344/5/86
f 345/19/87 346/52/87 347/20/87
f 350/44/88 351/23/88 352/24/88
f 353/1/89 354/54/89 355/2/89
f 358/4/90 359/55/90 360/5/90
f 361/19/91 362/52/91 363/20/91
f 365/22/92 366/44/92 367/23/92
f 369/37/376 370/62/376 371/38/376
f 373/40/377 374/63/377 375/41/377
f 377/1/95 378/54/95 379/2/95
f 382/4/96 383/55/96 384/5/96
f 385/25/97 386/59/97 387/26/97
f 389/30/98 390/28/98 391/43/98
f 394/45/99 395/53/99 396/46/99
f 397/48/100 398/64/100 399/49/100
f 401/37/101 402/62/101 403/38/101
f 405/40/102 406/63/102 407/41/102
f 409/25/103 410/59/103 411/26/103
f 413/30/104 414/28/104 415/43/104
f 417/31/105 418/60/105 419/32/105
f 422/34/106 423/61/106 424/35/106
f 425/31/378 426/60/378 427/32/378
f 430/34/379 431/61/379 432/35/379
f 433/25/109 434/59/109 435/26/109
f 438/28/110 439/43/110 440/29/110
f 441/31/111 442/60/111 443/32/111
f 446/34/112 447/61/112 448/35/112
f 449/1/113 450/54/113 451/2/113
f 454/4/114 455/55/114 456/5/114
f 458/51/115 459/14/115 460/15/115
f 461/16/116 462/58/116 463/17/116
f 465/37/117 466/62/117 467/38/117
f 469/40/118 470/63/118 471/41/118
f 473/19/380 474/52/380 475/20/380
f 478/44/120 479/23/120 480/24/120
f 482/52/121 483/20/121 484/21/121
f 486/44/122 487/23/122 488/24/122
f 489/37/123 490/62/123 491/38/123
f 493/40/124 494/63/124 495/41/124
f 497/37/19 498/62/19 499/38/19
f 501/40/20 502/63/20 503/41/20
f 505/31/125 506/60/125 507/32/125
f 510/34/126 511/61/126 512/35/126
f 513/25/127 514/59/127 515/26/127
f 517/30/128 518/28/128 519/43/128
f 521/37/129 522/62/129 523/38/129
f 525/40/130 526/63/130 527/41/130
f 529/13/131 530/51/131 531/14/131
f 533/16/132 534/58/132 535/17/132
f 537/37/133 538/62/133 539/38/133
f 541/40/134 542/63/134 543/41/134
f 545/25/135 546/59/135 547/26/135
f 550/28/136 551/43/136 552/29/136
f 553/31/381 554/60/381 555/32/381
f 558/34/138 559/61/138 560/35/138
f 561/19/139 562/52/139 563/20/139
f 565/22/140 566/44/140 567/23/140
f 569/31/141 570/60/141 571/32/141
f 574/34/142 575/61/142 576/35/142
f 578/45/143 579/53/143 580/46/143
f 581/48/144 582/64/144 583/49/144
f 586/7/145 587/56/145 588/8/145
f 590/10/146 591/57/146 592/11/146
f 593/1/147 594/54/147 595/2/147
f 598/4/148 599/55/148 600/5/148
f 601/25/149 602/59/149 603/26/149
f 606/28/150 607/43/150 608/29/150
f 610/45/151 611/53/151 612/46/151
f 613/48/152 614/64/152 615/49/152
f 617/37/153 618/62/153 619/38/153
f 621/40/154 622/63/154 623/41/154
f 625/31/155 626/60/155 627/32/155
f 630/34/156 631/61/156 632/35/156
f 633/31/157 634/60/157 635/32/157
f 638/34/158 639/61/158 640/35/158
f 641/47/159 642/45/159 643/53/159
f 645/48/160 646/64/160 647/49/160
f 650/45/382 651/53/382 652/46/382
f 653/48/162 654/64/162 655/49/162
f 657/1/163 658/54/163 659/2/163
f 662/4/164 663/55/164 664/5/164
f 665/1/165 666/54/165 667/2/165
f 670/4/166 671/55/166 672/5/166
f 673/19/167 674/52/167 675/20/167
f 678/44/168 679/23/168 680/24/168
f 681/37/169 682/62/169 683/38/169
f 685/40/170 686/63/170 687/41/170
f 689/1/171 690/54/171 691/2/171
f 694/4/172 695/55/172 696/5/172
f 697/19/173 698/52/173 699/20/173
f 701/22/174 702/44/174 703/23/174
f 705/31/175 706/60/175 707/32/175
f 710/34/176 711/61/176 712/35/176
f 714/45/177 715/53/177 716/46/177
f 717/48/178 718/64/178 719/49/178
f 721/19/179 722/52/179 723/20/179
f 725/22/180 726/44/180 727/23/180
f 730/45/181 731/53/181 732/46/181
f 733/48/182 734/64/182 735/49/182
f 737/19/183 738/52/183 739/20/183
f 741/22/184 742/44/184 743/23/184
f 746/52/185 747/20/185 748/21/185
f 750/44/186 751/23/186 752/24/186
f 754/7/187 755/56/187 756/8/187
f 758/10/188 759/57/188 760/11/188
f 761/25/189 762/59/189 763/26/189
f 766/28/190 767/43/190 768/29/190
f 770/45/191 771/53/191 772/46/191
f 773/48/192 774/64/192 775/49/192
f 778/7/193 779/56/193 780/8/193
f 782/10/194 783/57/194 784/11/194
f 785/1/195 786/54/195 787/2/195
f 790/4/196 791/55/196 792/5/196
f 794/51/197 795/14/197 796/15/197
f 797/16/198 798/58/198 799/17/198
f 802/45/199 803/53/199 804/46/199
f 805/48/200 806/64/200 807/49/200
f 809/19/201 810/52/201 811/20/201
f 814/44/202 815/23/202 816/24/202
f 818/45/203 819/53/203 820/46/203
f 821/48/204 822/64/204 823/49/204
f 825/25/205 826/59/205 827/26/205
f 829/30/206 830/28/206 831/43/206
f 833/25/207 834/59/207 835/26/207
f 838/28/208 839/43/208 840/29/208
f 841/19/209 842/52/209 843/20/209
f 845/22/210 846/44/210 847/23/210
f 849/1/211 850/54/211 851/2/211
f 854/4/212 855/55/212 856/5/212
f 858/7/213 859/56/213 860/8/213
f 862/10/214 863/57/214 864/11/214
f 865/19/20 866/52/20 867/20/20
f 869/22/215 870/44/215 871/23/215
f 873/25/216 874/59/216 875/26/216
f 878/28/217 879/43/217 880/29/217
f 882/7/218 883/56/218 884/8/218
f 886/10/219 887/57/219 888/11/219
f 889/19/220 890/52/220 891/20/220
f 893/22/221 894/44/221 895/23/221
f 897/25/222 898/59/222 899/26/222
f 902/28/223 903/43/223 904/29/223
f 905/31/224 906/60/224 907/32/224
f 910/34/225 911/61/225 912/35/225
f 913/25/226 914/59/226 915/26/226
f 918/28/227 919/43/227 920/29/227
f 921/31/228 922/60/228 923/32/228
f 926/34/229 927/61/229 928/35/229
f 929/19/230 930/52/230 931/20/230
f 933/22/231 934/44/231 935/23/231
f 937/1/232 938/54/232 939/2/232
f 942/4/233 943/55/233 944/5/233
f 945/1/234 946/54/234 947/2/234
f 950/4/235 951/55/235 952/5/235
f 954/7/236 955/56/236 956/8/236
f 958/10/237 959/57/237 960/11/237
f 961/31/238 962/60/238 963/32/238
f 966/34/239 967/61/239 968/35/239
f 969/31/383 970/60/383 971/32/383
f 974/34/384 975/61/384 976/35/384
f 977/1/242 978/54/242 979/2/242
f 982/4/243 983/55/243 984/5/243
f 985/13/244 986/51/244 987/14/244
f 989/16/245 990/58/245 991/17/245
f 993/19/385 994/52/385 995/20/385
f 997/22/247 998/44/247 999/23/247
f 1001/25/248 1002/59/248 1003/26/248
f 1006/28/249 1007/43/249 1008/29/249
f 1009/19/250 1010/52/250 1011/20/250
f 1014/44/251 1015/23/251 1016/24/251
f 1018/7/252 1019/56/252 1020/8/252
f 1022/10/253 1023/57/253 1024/11/253
f 1025/13/254 1026/51/254 1027/14/254
f 1029/16/255 1030/58/255 1031/17/255
f 1033/1/256 1034/54/256 1035/2/256
f 1038/4/257 1039/55/257 1040/5/257
f 1042/51/258 1043/14/258 1044/15/258
f 1045/16/259 1046/58/259 1047/17/259
f 1050/45/260 1051/53/260 1052/46/260
f 1053/48/261 1054/64/261 1055/49/261
f 1057/37/262 1058/62/262 1059/38/262
f 1061/40/263 1062/63/263 1063/41/263
f 1065/31/264 1066/60/264 1067/32/264
f 1070/34/265 1071/61/265 1072/35/265
f 1073/19/266 1074/52/266 1075/20/266
f 1077/22/267 1078/44/267 1079/23/267
f 1081/1/268 1082/54/268 1083/2/268
f 1086/4/386 1087/55/386 1088/5/386
f 1089/25/270 1090/59/270 1091/26/270
f 1094/28/271 1095/43/271 1096/29/271
f 1097/25/272 1098/59/272 1099/26/272
f 1102/28/273 1103/43/273 1104/29/273
f 1105/31/274 1106/60/274 1107/32/274
f 1110/34/275 1111/61/275 1112/35/275
f 1114/45/276 1115/53/276 1116/46/276
f 1117/48/277 1118/64/277 1119/49/277
f 1121/31/278 1122/60/278 1123/32/278
f 1126/34/279 1127/61/279 1128/35/279
f 1130/7/280 1131/56/280 1132/8/280
f 1134/10/281 1135/57/281 1136/11/281
f 1137/31/282 1138/60/282 1139/32/282
f 1142/34/283 1143/61/283 1144/35/283
f 1145/1/284 1146/54/284 1147/2/284
f 1150/4/285 1151/55/285 1152/5/285
f 1154/45/286 1155/53/286 1156/46/286
f 1157/48/287 1158/64/287 1159/49/287
f 1161/37/288 1162/62/288 1163/38/288
f 1165/40/289 1166/63/289 1167/41/289
f 1169/19/290 1170/52/290 1171/20/290
f 1173/22/291 1174/44/291 1175/23/291
f 1177/25/292 1178/59/292 1179/26/292
f 1182/28/293 1183/43/293 1184/29/293
f 1185/31/294 1186/60/294 1187/32/294
f 1190/34/387 1191/61/387 1192/35/387
f 1193/25/296 1194/59/296 1195/26/296
f 1198/28/297 1199/43/297 1200/29/297
f 1201/25/298 1202/59/298 1203/26/298
f 1206/28/299 1207/43/299 1208/29/299
f 1209/1/300 1210/54/300 1211/2/300
f 1214/4/301 1215/55/301 1216/5/301
f 1217/1/302 1218/54/302 1219/2/302
f 1222/4/303 1223/55/303 1224/5/303
f 1226/7/388 1227/56/388 1228/8/388
f 1230/10/389 1231/57/389 1232/11/389
f 1233/31/306 1234/60/306 1235/32/306
f 1238/34/307 1239/61/307 1240/35/307
f 1241/37/308 1242/62/308 1243/38/308
f 1245/40/309 1246/63/309 1247/41/309
f 1249/13/310 1250/51/310 1251/14/310
f 1253/16/311 1254/58/311 1255/17/311
f 1257/1/312 1258/54/312 1259/2/312
f 1262/4/313 1263/55/313 1264/5/313
f 1265/19/314 1266/52/314 1267/20/314
f 1269/22/315 1270/44/315 1271/23/315
f 1273/37/316 1274/62/316 1275/38/316
f 1277/40/317 1278/63/317 1279/41/317
f 1281/1/318 1282/54/318 1283/2/318
f 1286/4/319 1287/55/319 1288/5/319
f 1289/25/320 1290/59/320 1291/26/320
f 1294/28/321 1295/43/321 1296/29/321
f 1297/25/390 1298/59/390 1299/26/390
f 1302/28/323 1303/43/323 1304/29/323
f 1305/19/324 1306/52/324 1307/20/324
f 1309/22/325 1310/44/325 1311/23/325
f 1313/37/326 1314/62/326 1315/38/326
f 1317/40/327 1318/63/327 1319/41/327
f 1321/37/328 1322/62/328 1323/38/328
f 1325/40/329 1326/63/329 1327/41/329
f 1330/45/330 1331/53/330 1332/46/330
f 1333/48/331 1334/64/331 1335/49/331
f 1338/45/332 1339/53/332 1340/46/332
f 1341/48/333 1342/64/333 1343/49/333
f 1345/19/334 1346/52/334 1347/20/334
f 1349/22/335 1350/44/335 1351/23/335
f 1353/25/336 1354/59/336 1355/26/336
f 1358/28/337 1359/43/337 1360/29/337
f 1361/19/338 1362/52/338 1363/20/338
f 1365/22/339 1366/44/339 1367/23/339
f 1370/45/340 1371/53/340 1372/46/340
f 1373/48/341 1374/64/341 1375/49/341
f 1378/7/342 1379/56/342 1380/8/342
f 1382/10/343 1383/57/343 1384/11/343
f 1385/31/391 1386/60/391 1387/32/391
f 1390/34/345 1391/61/345 1392/35/345
f 1393/31/346 1394/60/346 1395/32/346
f 1398/34/347 1399/61/347 1400/35/347
f 1401/1/348 1402/54/348 1403/2/348
f 1406/4/349 1407/55/349 1408/5/349
f 1409/19/350 1410/52/350 1411/20/350
f 1413/22/351 1414/44/351 1415/23/351
f 1417/19/352 1418/52/352 1419/20/352
f 1421/22/353 1422/44/353 1423/23/353
f 1425/37/354 1426/62/354 1427/38/354
f 1429/40/355 1430/63/355 1431/41/355
f 1434/7/356 1435/56/356 1436/8/356
f 1438/10/357 1439/57/357 1440/11/357
f 1442/7/358 1443/56/358 1444/8/358
f 1446/10/359 1447/57/359 1448/11/359
f 1449/1/360 1450/54/360 1451/2/360
f 1454/4/361 1455/55/361 1456/5/361
