mtllib grass_04_02_b1.mtl
usemtl grass_04_02_b1
# Blender 5.1.1
# www.blender.org
o grass_04_02_b1
v -10.631218 -8.137552 -0.038554
v -10.665903 -8.187271 -0.122389
v -10.777668 -8.347476 -0.122389
v -10.819773 -8.407829 -0.038554
v -10.809191 -8.236814 -0.122420
v -10.657990 -8.342299 -0.122420
v -10.596463 -8.385221 -0.034905
v -10.824020 -8.226469 -0.029166
v -15.239522 -10.485582 -0.100719
v -15.225762 -10.504669 0.038567
v -15.336309 -10.351324 0.003409
v -15.373929 -10.299140 -0.100719
v -15.446505 -10.519540 -0.100719
v -15.253446 -10.380363 -0.100719
v -15.188289 -10.333391 0.021653
v -15.414023 -10.496124 0.012789
v 5.704835 15.163030 0.782161
v 5.803285 15.376509 0.782161
v 5.815135 15.402205 0.876503
v 5.673918 15.095988 0.873790
v 5.866284 15.184021 0.782161
v 5.634644 15.290847 0.782161
v 5.626879 15.294428 0.862013
v 5.862892 15.185586 0.873929
v -9.230707 -7.679263 -0.277362
v -9.422563 -7.738844 -0.277362
v -9.393654 -7.729866 -0.173896
v -9.148920 -7.653864 -0.205718
v -9.260415 -7.781983 -0.277362
v -9.247941 -7.822150 -0.197417
v -9.310741 -7.619928 -0.172062
v -9.311208 -7.618425 -0.277362
v -0.581811 -10.437571 -2.263124
v -0.499894 -10.601520 -2.263124
v -0.486063 -10.629199 -2.091351
v -0.595906 -10.409361 -2.058304
v -0.628259 -10.566490 -2.263252
v -0.429633 -10.467246 -2.263252
v -0.503816 -10.504312 -2.021565
v -0.642598 -10.573654 -2.094982
v -6.272496 -9.507383 -1.164025
v -6.375147 -9.721992 -1.164025
v -6.359680 -9.689654 -1.065089
v -6.228737 -9.415897 -1.095518
v -6.207177 -9.615860 -1.164025
v -6.162247 -9.637351 -1.087581
v -6.388450 -9.529153 -1.063335
v -6.390131 -9.528350 -1.164025
v 2.478425 3.500373 -0.555409
v 2.686185 3.381340 -0.555409
v 2.654880 3.399275 -0.414041
v 2.389858 3.551116 -0.457521
v 2.592177 3.557851 -0.555409
v 2.617098 3.601348 -0.446179
v 2.491633 3.382361 -0.411535
v 2.490701 3.380735 -0.555409
v -8.384295 13.988590 2.877929
v -8.404718 13.947925 2.688843
v -8.470531 13.816892 2.688843
v -8.495324 13.767529 2.877929
v -8.505845 13.895716 2.688771
v -8.382175 13.833602 2.688771
v -8.331853 13.808327 2.886159
v -8.517974 13.901808 2.899105
v -5.869056 2.528120 0.686067
v -5.718596 2.539809 0.686067
v -5.741267 2.538048 0.803348
v -5.933197 2.523137 0.767277
v -5.830185 2.598416 0.686067
v -5.832633 2.629917 0.776687
v -5.820312 2.471326 0.805428
v -5.820220 2.470148 0.686067
v -5.416933 0.078409 0.268678
v -5.434161 0.060496 0.448636
v -5.295744 0.204409 0.403211
v -5.248640 0.253383 0.268678
v -5.491413 0.287067 0.268678
v -5.310229 0.112802 0.268678
v -5.249080 0.053988 0.426782
v -5.460930 0.257748 0.415330
v -1.058177 8.890796 0.827430
v -1.050791 8.870966 0.978648
v -1.110132 9.030285 0.940477
v -1.130327 9.084503 0.827430
v -1.245768 8.910652 0.827430
v -1.045188 8.985363 0.827430
v -0.977492 9.010578 0.960284
v -1.212022 8.923222 0.950661
v -15.364426 -5.108148 0.800665
v -15.172977 -5.000830 0.800665
v -15.201825 -5.017000 0.921186
v -15.446039 -5.153897 0.884118
v -15.356053 -4.991628 0.800665
v -15.378522 -4.951546 0.893788
v -15.265405 -5.153339 0.923323
v -15.264565 -5.154838 0.800665
v -2.828388 -13.533597 -2.333779
v -2.927301 -13.348341 -2.333779
v -2.942412 -13.320040 -2.251207
v -2.825787 -13.538467 -2.234310
v -2.824377 -13.395786 -2.333791
v -2.996444 -13.487658 -2.333791
v -2.996444 -13.487658 -2.249213
v -2.815920 -13.391271 -2.233042
v -9.181334 -10.063569 -0.674748
v -9.376887 -10.155394 -0.674748
v -9.400426 -10.166447 -0.549011
v -9.119921 -10.034732 -0.552628
v -9.307264 -9.982780 -0.674748
v -9.207627 -10.194971 -0.674748
v -9.204287 -10.202085 -0.568324
v -9.305805 -9.985888 -0.552442
v -14.415189 -6.918922 0.443729
v -14.593658 -7.000016 0.443729
v -14.566767 -6.987797 0.536366
v -14.339108 -6.884353 0.507874
v -14.431416 -7.021994 0.443729
v -14.414437 -7.059359 0.515307
v -14.499913 -6.871245 0.538008
v -14.500548 -6.869848 0.443729
v 2.303278 -2.866947 -1.289027
v 2.251524 -2.904866 -1.464365
v 2.084762 -3.027051 -1.464365
v 2.021938 -3.073081 -1.289027
v 2.091069 -2.905439 -1.464431
v 2.206387 -3.062829 -1.464431
v 2.253312 -3.126874 -1.281395
v 2.079759 -2.890002 -1.269391
v -7.872882 11.471038 2.359649
v -7.832963 11.468145 2.247877
v -7.704333 11.458826 2.247877
v -7.655876 11.455316 2.359649
v -7.756474 11.403578 2.247835
v -7.747679 11.524979 2.247835
v -7.744100 11.574378 2.364515
v -7.757337 11.391671 2.372167
v -9.827639 -15.261385 -1.298440
v -9.861423 -15.296921 -1.415131
v -9.970282 -15.411426 -1.415131
v -10.011292 -15.454562 -1.298440
v -9.982025 -15.319104 -1.415175
v -9.873955 -15.421846 -1.415175
v -9.829980 -15.463654 -1.293361
v -9.992624 -15.309028 -1.285372
v -1.476670 7.754620 0.679907
v -1.657007 7.654144 0.679907
v -1.629834 7.669283 0.799982
v -1.399794 7.797452 0.763052
v -1.484829 7.645042 0.679907
v -1.463793 7.607286 0.772685
v -1.569698 7.797368 0.802111
v -1.570485 7.798779 0.679907
v 0.910230 -6.459696 -1.823368
v 0.715146 -6.472593 -1.823368
v 0.691664 -6.474145 -1.735445
v 0.971494 -6.455646 -1.737973
v 0.830744 -6.350084 -1.823368
v 0.844738 -6.561763 -1.823368
v 0.845207 -6.568860 -1.748949
v 0.830948 -6.353184 -1.737844
v 0.273177 -2.368779 -0.912715
v 0.293189 -2.320910 -1.038717
v 0.357672 -2.166663 -1.038717
v 0.381964 -2.108555 -0.912715
v 0.404077 -2.253523 -1.038765
v 0.258499 -2.192663 -1.038765
v 0.199261 -2.167899 -0.907230
v 0.418355 -2.259491 -0.898603
v -1.128666 -6.862893 -1.510681
v -1.113341 -6.858633 -1.375643
v -1.236469 -6.892861 -1.409730
v -1.278371 -6.904510 -1.510681
v -1.155566 -7.002118 -1.510681
v -1.198660 -6.847101 -1.510681
v -1.213204 -6.794783 -1.392042
v -1.162817 -6.976037 -1.400635
v -13.691852 -9.791558 0.018206
v -13.641223 -9.782087 -0.063861
v -13.478085 -9.751571 -0.063861
v -13.416627 -9.740075 0.018206
v -13.524888 -9.837402 -0.063892
v -13.553690 -9.683433 -0.063892
v -13.565410 -9.620779 0.021778
v -13.522063 -9.852503 0.027396
v -10.466672 -9.787275 -0.409336
v -10.376790 -9.616783 -0.409336
v -10.390333 -9.642472 -0.295416
v -10.504989 -9.859955 -0.330454
v -10.516124 -9.697394 -0.409336
v -10.551818 -9.678576 -0.321314
v -10.372113 -9.773315 -0.293397
v -10.370779 -9.774019 -0.409336
v -12.535970 -13.491115 -0.708026
v -12.402532 -13.287106 -0.708026
v -12.422638 -13.317845 -0.612179
v -12.592854 -13.578082 -0.641658
v -12.587562 -13.372059 -0.708026
v -12.630273 -13.344122 -0.633968
v -12.415241 -13.484771 -0.610480
v -12.413644 -13.485816 -0.708026
v -8.731498 -5.151171 0.039178
v -8.717811 -5.132203 0.158608
v -8.827781 -5.284598 0.128461
v -8.865205 -5.336459 0.039178
v -8.634522 -5.335771 0.039178
v -8.826386 -5.197319 0.039178
v -8.891140 -5.150592 0.144105
v -8.666803 -5.312477 0.136505
v -1.913116 -10.363535 -1.991245
v -2.072929 -10.503973 -1.991245
v -2.099910 -10.527683 -1.897475
v -1.885619 -10.339371 -1.879435
v -2.071568 -10.349522 -1.991315
v -1.901426 -10.543134 -1.991315
v -1.964970 -10.470823 -1.859379
v -2.083851 -10.335544 -1.899458
v 2.772561 7.500179 0.047236
v 2.898974 7.715204 0.047236
v 2.914191 7.741086 0.198102
v 2.732862 7.432652 0.193763
v 2.945226 7.505347 0.047236
v 2.711908 7.642515 0.047236
v 2.704087 7.647113 0.174930
v 2.941808 7.507356 0.193985
v -5.286773 15.946671 2.494729
v -5.303783 15.940116 2.677276
v -5.167113 15.992785 2.631197
v -5.120603 16.010710 2.494729
v -5.271491 16.108467 2.494729
v -5.205181 15.936401 2.494729
v -5.182801 15.878329 2.655108
v -5.260334 16.079519 2.643492
v -1.706958 -11.468095 -2.197151
v -1.916707 -11.326717 -2.197151
v -1.885102 -11.348020 -2.042857
v -1.617543 -11.528363 -2.090312
v -1.831223 -11.519913 -2.197151
v -1.860822 -11.563826 -2.077933
v -1.711806 -11.342743 -2.040122
v -1.710699 -11.341101 -2.197151
v -0.725818 -10.676245 -2.281532
v -0.753516 -10.668279 -2.027081
v -0.530980 -10.732277 -2.091310
v -0.455248 -10.754056 -2.281532
v -0.552188 -10.486865 -2.281532
v -0.632762 -10.767035 -2.281532
v -0.659955 -10.861592 -2.057981
v -0.565744 -10.534002 -2.074173
v -0.612077 -11.344048 -2.380595
v -0.589392 -11.192242 -2.380595
v -0.586661 -11.173968 -2.147385
v -0.619201 -11.391721 -2.154092
v -0.514717 -11.301377 -2.380595
v -0.679438 -11.276763 -2.380595
v -0.684960 -11.275937 -2.183204
v -0.517130 -11.301017 -2.153748
v -1.020227 -12.444378 -2.537933
v -0.843132 -12.586558 -2.537933
v -0.801143 -12.620270 -2.410748
v -0.974843 -12.480815 -2.410748
v -0.958382 -12.614864 -2.537988
v -0.828277 -12.452810 -2.537988
v -0.819938 -12.442424 -2.397273
v -0.936270 -12.587322 -2.409955
v -13.564055 -10.732070 -0.207643
v -13.589214 -10.509154 -0.207643
v -13.592243 -10.482322 -0.109102
v -13.556155 -10.802074 -0.111936
v -13.442648 -10.635134 -0.207643
v -13.684527 -10.662433 -0.207643
v -13.692636 -10.663348 -0.124237
v -13.446191 -10.635534 -0.111790
v -2.507327 7.988113 0.943081
v -2.508391 7.964417 1.044666
v -2.499838 8.154796 1.019024
v -2.496927 8.219583 0.943081
v -2.692188 8.090767 0.943081
v -2.452504 8.079999 0.943081
v -2.371611 8.076365 1.032330
v -2.651862 8.088955 1.025866
v -8.182314 -10.300912 -0.842792
v -8.136610 -10.350032 -0.941359
v -7.989344 -10.508306 -0.941359
v -7.933865 -10.567931 -0.842792
v -8.116419 -10.516608 -0.941396
v -7.967040 -10.377618 -0.941396
v -7.906255 -10.321060 -0.838501
v -8.131070 -10.530240 -0.831753
v -10.854984 14.223419 3.123313
v -11.048487 14.353994 3.123313
v -11.071779 14.369712 3.214138
v -10.794216 14.182413 3.211526
v -10.849777 14.385001 3.123313
v -10.991461 14.175036 3.123313
v -10.996211 14.167997 3.200188
v -10.851852 14.381926 3.211660
v -4.990073 -6.047667 -0.778122
v -4.922831 -6.053312 -0.875174
v -4.706161 -6.071504 -0.875174
v -4.624537 -6.078357 -0.778122
v -4.795128 -6.163639 -0.875211
v -4.777959 -5.959146 -0.875211
v -4.770973 -5.875934 -0.773897
v -4.796813 -6.183694 -0.767253
v -0.395826 12.955988 1.322596
v -0.213444 13.032596 1.322596
v -0.240925 13.021052 1.477628
v -0.473574 12.923330 1.429946
v -0.376460 13.059484 1.322596
v -0.392499 13.097668 1.442384
v -0.311751 12.905431 1.480376
v -0.311151 12.904003 1.322596
v -15.243727 12.815892 3.437565
v -15.189353 12.823907 3.314230
v -15.014149 12.849732 3.314230
v -14.948145 12.859462 3.437565
v -15.067586 12.760139 3.314183
v -15.091960 12.925498 3.314183
v -15.101878 12.992785 3.442934
v -15.065195 12.743922 3.451378
v -4.390248 14.195333 2.134244
v -4.380263 14.173795 2.245162
v -4.460482 14.346845 2.217164
v -4.487781 14.405735 2.134244
v -4.601803 14.201245 2.134244
v -4.383935 14.302240 2.134244
v -4.310406 14.336326 2.231693
v -4.565148 14.218237 2.224634
v 0.005862 -9.841012 -2.226042
v -0.245544 -9.908559 -2.226042
v -0.283952 -9.918878 -2.107868
v 0.012471 -9.839236 -2.083686
v -0.159423 -9.797566 -2.226060
v -0.096685 -10.031075 -2.226060
v -0.096685 -10.031075 -2.105014
v -0.162507 -9.786090 -2.081872
v -8.995567 13.402808 2.806988
v -8.994106 13.447378 2.726923
v -8.989400 13.590995 2.726923
v -8.987627 13.645099 2.806988
v -8.925593 13.535380 2.726892
v -9.061139 13.539823 2.726892
v -9.116295 13.541630 2.810473
v -8.912299 13.534945 2.815954
v -3.959897 -14.830363 -2.351238
v -3.917018 -14.657691 -2.351238
v -3.911856 -14.636907 -2.203072
v -3.973363 -14.884589 -2.207333
v -3.842860 -14.791839 -2.351238
v -4.030221 -14.745312 -2.351238
v -4.036502 -14.743752 -2.225829
v -3.845604 -14.791157 -2.207114
v -7.604469 3.552986 1.112314
v -7.566957 3.391189 1.112314
v -7.572609 3.415569 1.213805
v -7.620461 3.621958 1.182591
v -7.521573 3.522273 1.112314
v -7.487699 3.530126 1.190733
v -7.658237 3.490587 1.215605
v -7.659504 3.490293 1.112314
v -4.467942 10.420359 1.601232
v -4.462546 10.403325 1.716783
v -4.505897 10.540178 1.687615
v -4.520649 10.586751 1.601232
v -4.625311 10.444987 1.601232
v -4.453014 10.499565 1.601232
v -4.394864 10.517985 1.702750
v -4.596323 10.454169 1.695397
v -11.406725 7.334461 2.257133
v -11.353323 7.517722 2.257133
v -11.346895 7.539781 2.387614
v -11.423495 7.276909 2.383862
v -11.279600 7.370720 2.257133
v -11.478452 7.428665 2.257133
v -11.485118 7.430608 2.367574
v -11.282513 7.371569 2.384054
v -3.125071 13.768844 1.865676
v -3.297246 13.682698 1.865676
v -3.271302 13.695679 1.961740
v -3.051674 13.805568 1.932195
v -3.137208 13.667091 1.865676
v -3.119173 13.631044 1.939902
v -3.209974 13.812522 1.963443
v -3.210648 13.813870 1.865676
v 3.009467 3.331874 -0.665042
v 3.178922 3.328399 -0.665042
v 3.199320 3.327981 -0.549570
v 2.956251 3.332966 -0.552891
v 3.069906 3.231250 -0.665042
v 3.073677 3.415122 -0.665042
v 3.073803 3.421286 -0.567306
v 3.069961 3.233943 -0.552721
v -8.708849 -15.648335 -1.756255
v -8.706887 -15.838763 -1.756255
v -8.706651 -15.861685 -1.665689
v -8.709465 -15.588533 -1.668293
v -8.819763 -15.719694 -1.756255
v -8.613135 -15.717566 -1.756255
v -8.606209 -15.717494 -1.679599
v -8.816737 -15.719663 -1.668160
v 1.679661 -6.290365 -1.959003
v 1.835462 -6.362409 -1.959003
v 1.861766 -6.374572 -1.878210
v 1.652853 -6.277969 -1.862667
v 1.721066 -6.411843 -1.959064
v 1.808347 -6.223089 -1.959064
v 1.775750 -6.293585 -1.845386
v 1.714765 -6.425470 -1.879918
v -1.688150 15.635822 1.975243
v -1.665461 15.585832 1.882095
v -1.592354 15.424750 1.882095
v -1.564813 15.364067 1.975243
v -1.693103 15.451345 1.882059
v -1.541073 15.520345 1.882059
v -1.479210 15.548421 1.979297
v -1.708013 15.444579 1.985675
v -16.199062 -14.555696 -0.785192
v -15.884826 -14.601751 -0.785192
v -15.810319 -14.612672 -0.699521
v -16.118532 -14.567498 -0.699521
v -16.003763 -14.717494 -0.785230
v -15.961618 -14.429944 -0.785230
v -15.958917 -14.411514 -0.690445
v -15.996600 -14.668624 -0.698987
v -13.684311 -3.937253 0.902145
v -13.904370 -3.957947 0.902145
v -13.871212 -3.954829 1.001538
v -13.590501 -3.928431 0.970969
v -13.739562 -4.041120 0.902145
v -13.735229 -4.087192 0.978943
v -13.757043 -3.855241 1.003300
v -13.757205 -3.853518 0.902145
v 1.953523 -3.009500 -1.432629
v 1.782121 -3.147147 -1.432629
v 1.767957 -3.158522 -1.356200
v 1.971901 -2.994741 -1.311600
v 1.816006 -2.997863 -1.432580
v 1.946889 -3.160843 -1.432580
v 1.912694 -3.118261 -1.346353
v 1.795585 -2.972435 -1.334072
v -7.892026 -6.955357 -0.324470
v -7.859715 -7.002436 -0.437597
v -7.755603 -7.154136 -0.437597
v -7.716381 -7.211285 -0.324470
v -7.863611 -7.145186 -0.437640
v -7.720437 -7.046925 -0.437640
v -7.662177 -7.006940 -0.319546
v -7.877653 -7.154823 -0.311801
v -13.873793 5.190777 2.184270
v -14.065391 5.151739 2.184270
v -14.088453 5.147040 2.304833
v -13.813622 5.203036 2.301365
v -13.967319 5.288708 2.184270
v -13.924959 5.080810 2.184270
v -13.923539 5.073841 2.286315
v -13.966699 5.285663 2.301543
v -6.434490 -9.427531 -1.125090
v -6.259888 -9.546541 -1.125090
v -6.238871 -9.560866 -0.928407
v -6.489323 -9.390157 -0.934064
v -6.439886 -9.573769 -1.125090
v -6.310751 -9.384313 -1.125090
v -6.306422 -9.377961 -0.958616
v -6.437994 -9.570994 -0.933773
v 2.359019 3.977849 -0.452516
v 2.341220 3.965864 -0.349270
v 2.484223 4.062157 -0.375332
v 2.532889 4.094927 -0.452516
v 2.334104 4.167511 -0.452516
v 2.455337 3.987472 -0.452516
v 2.496252 3.926709 -0.361808
v 2.354501 4.137220 -0.368378
v 4.176101 8.452428 -0.044545
v 4.020739 8.605844 -0.044545
v 4.002038 8.624311 0.211129
v 4.224891 8.404249 0.203776
v 4.208760 8.600072 -0.044545
v 4.042292 8.431493 -0.044545
v 4.036712 8.425841 0.171860
v 4.206322 8.597603 0.204153
v 1.307013 -4.267556 -1.547918
v 1.337151 -4.493162 -1.547918
v 1.332610 -4.459167 -1.424707
v 1.294166 -4.171382 -1.462602
v 1.416110 -4.320235 -1.547918
v 1.463344 -4.313925 -1.452717
v 1.225548 -4.345691 -1.422523
v 1.223781 -4.345927 -1.547918
v -6.145437 -7.880248 -0.720913
v -6.175890 -7.834876 -0.809221
v -6.274018 -7.688675 -0.809221
v -6.310986 -7.633597 -0.720913
v -6.170748 -7.698308 -0.809254
v -6.308733 -7.790923 -0.809254
v -6.364881 -7.828609 -0.717070
v -6.157215 -7.689226 -0.711024
v -2.321774 15.794516 2.026648
v -2.134521 15.870062 2.026648
v -2.111981 15.879155 2.130476
v -2.380580 15.770791 2.127490
v -2.208447 15.712592 2.026648
v -2.290420 15.915775 2.026648
v -2.293168 15.922586 2.114529
v -2.209648 15.715568 2.127643
v -9.969013 14.881188 3.195384
v -10.009200 14.911826 3.091787
v -10.138691 15.010550 3.091787
v -10.187474 15.047742 3.195384
v -10.045418 15.032908 3.091748
v -10.138593 14.910694 3.091748
v -10.176508 14.860963 3.199893
v -10.036280 15.044894 3.206986
v 0.885897 -3.619227 -1.355206
v 0.791412 -3.737513 -1.355206
v 0.805649 -3.719690 -1.219808
v 0.926175 -3.568802 -1.261451
v 0.910797 -3.695863 -1.355206
v 0.935562 -3.715645 -1.250588
v 0.810884 -3.616055 -1.217407
v 0.809958 -3.615315 -1.355206
v -0.427896 -9.417683 -2.079146
v -0.643565 -9.434649 -2.079146
v -0.679976 -9.437514 -1.988154
v -0.390788 -9.414763 -1.970648
v -0.548356 -9.309737 -2.079214
v -0.527801 -9.571020 -2.079214
v -0.535478 -9.473436 -1.951187
v -0.549840 -9.290874 -1.990077
v -6.680158 -7.492609 -0.679689
v -6.747498 -7.347078 -0.679689
v -6.755603 -7.329560 -0.500668
v -6.659011 -7.538312 -0.505817
v -6.619668 -7.399476 -0.679689
v -6.777580 -7.472544 -0.679689
v -6.782874 -7.474994 -0.528164
v -6.621981 -7.400546 -0.505553
v -15.370723 -15.850336 -1.005437
v -15.322502 -15.653832 -1.005437
v -15.329768 -15.683441 -0.860481
v -15.391279 -15.934105 -0.905064
v -15.443937 -15.771354 -1.005437
v -15.485078 -15.761258 -0.893434
v -15.277956 -15.812084 -0.857912
v -15.276417 -15.812462 -1.005437
v 2.795102 5.336896 -0.194663
v 2.724592 5.325000 -0.279349
v 2.497391 5.286667 -0.279349
v 2.411798 5.272226 -0.194663
v 2.564476 5.404652 -0.279381
v 2.600654 5.190219 -0.279381
v 2.615376 5.102963 -0.190977
v 2.560927 5.425683 -0.185179
v -7.131001 -4.286315 -0.088579
v -7.114860 -4.273567 0.042141
v -7.244546 -4.375988 0.009144
v -7.288680 -4.410844 -0.088579
v -7.093413 -4.465781 -0.088579
v -7.222361 -4.302507 -0.088579
v -7.265881 -4.247403 0.026266
v -7.115108 -4.438311 0.017948
v -2.162230 -15.110495 -2.745294
v -2.231934 -15.200714 -2.745294
v -2.221431 -15.187119 -2.560981
v -2.132515 -15.072034 -2.617668
v -2.142545 -15.167897 -2.745294
v -2.123657 -15.182490 -2.602881
v -2.218752 -15.109020 -2.557713
v -2.219458 -15.108474 -2.745294
v -2.339132 15.952672 2.169193
v -2.317219 15.906052 2.028194
v -2.246611 15.755832 2.028194
v -2.220012 15.699240 2.169193
v -2.341472 15.779525 2.028141
v -2.199693 15.846165 2.028141
v -2.142001 15.873281 2.175330
v -2.355377 15.772988 2.184983
v -0.876198 -11.429040 -2.314170
v -0.973645 -11.161539 -2.314170
v -0.996750 -11.098114 -2.219022
v -0.901171 -11.360488 -2.219022
v -0.831704 -11.206091 -2.314211
v -1.076486 -11.295262 -2.314211
v -1.092175 -11.300978 -2.208941
v -0.873305 -11.221246 -2.218428
v -0.837790 15.520205 1.771128
v -0.823163 15.532088 1.910666
v -0.940688 15.436614 1.875443
v -0.980683 15.404122 1.771128
v -0.801088 15.356254 1.771128
v -0.921289 15.504216 1.771128
v -0.961857 15.554153 1.893720
v -0.821311 15.381147 1.884841
v 0.453842 -0.571059 -0.789138
v 0.346595 -0.713164 -0.789138
v 0.333686 -0.730269 -0.612911
v 0.487521 -0.526432 -0.617979
v 0.330992 -0.560578 -0.789138
v 0.485186 -0.676948 -0.789138
v 0.490356 -0.680850 -0.639978
v 0.333251 -0.562283 -0.617719
v 2.638829 1.212257 -0.808259
v 2.592581 1.178599 -0.906218
v 2.443558 1.070143 -0.906218
v 2.387417 1.029285 -0.808259
v 2.449528 1.178547 -0.906255
v 2.551889 1.037898 -0.906255
v 2.593541 0.980666 -0.803995
v 2.439489 1.192341 -0.797288
v 1.490707 1.629198 -0.521050
v 1.519755 1.679273 -0.650663
v 1.613357 1.840624 -0.650663
v 1.648618 1.901410 -0.521050
v 1.652165 1.737828 -0.650712
v 1.499881 1.826169 -0.650712
v 1.437914 1.862116 -0.515408
v 1.667101 1.729164 -0.506534
v 2.858705 0.039562 -1.137150
v 2.838649 -0.181199 -1.137150
v 2.841671 -0.147935 -0.956666
v 2.867254 0.133670 -1.012176
v 2.950948 -0.034007 -1.137150
v 2.997167 -0.038206 -0.997695
v 2.764478 -0.017066 -0.953466
v 2.762749 -0.016909 -1.137150
v -3.163556 -11.640014 -1.907405
v -3.033997 -11.455607 -1.907405
v -3.053518 -11.483394 -1.809553
v -3.218786 -11.718625 -1.839648
v -3.207571 -11.528423 -1.907405
v -3.246179 -11.501299 -1.831798
v -3.051808 -11.637858 -1.807818
v -3.050364 -11.638873 -1.907405
v -4.092250 3.058641 0.477731
v -3.969198 3.224989 0.477731
v -3.954386 3.245013 0.590802
v -4.130893 3.006401 0.587551
v -3.949361 3.047833 0.477731
v -4.129860 3.181354 0.477731
v -4.135911 3.185830 0.573436
v -3.952004 3.049789 0.587717
v -2.068959 -10.226591 -1.955784
v -2.090469 -10.231294 -1.757584
v -1.917654 -10.193512 -1.807614
v -1.858843 -10.180655 -1.955784
v -2.021013 -10.036257 -1.955784
v -1.973447 -10.253830 -1.955784
v -1.957394 -10.327261 -1.781653
v -2.013010 -10.072863 -1.794266
v -1.720415 -9.743012 -1.907717
v -1.881524 -9.762141 -1.907717
v -1.900917 -9.764443 -1.813767
v -1.669819 -9.737005 -1.816469
v -1.791028 -9.655615 -1.907717
v -1.770272 -9.830430 -1.907717
v -1.769576 -9.836290 -1.828197
v -1.790724 -9.658175 -1.816330
v -6.309507 -8.200519 -0.733975
v -6.336246 -8.253358 -0.895489
v -6.422406 -8.423618 -0.895489
v -6.454865 -8.487760 -0.733975
v -6.468052 -8.320902 -0.895550
v -6.307360 -8.402221 -0.895550
v -6.241972 -8.435310 -0.726945
v -6.483812 -8.312927 -0.715887
v -7.900065 5.127462 1.389214
v -7.911177 5.112830 1.498939
v -7.821906 5.230393 1.471242
v -7.791526 5.270402 1.389214
v -7.972682 5.274275 1.389214
v -7.824671 5.161884 1.389214
v -7.774717 5.123952 1.485614
v -7.947780 5.255366 1.478632
v 2.117349 1.854395 -0.718643
v 2.057873 2.061044 -0.718643
v 2.066834 2.029907 -0.577964
v 2.142703 1.766302 -0.621231
v 2.008084 1.888483 -0.718643
v 1.964820 1.876031 -0.609945
v 2.182635 1.938720 -0.575470
v 2.184253 1.939186 -0.718643
v 3.137596 2.136257 -0.849205
v 2.935451 1.987060 -0.849205
v 2.887522 1.951686 -0.709914
v 3.085792 2.098022 -0.709914
v 2.937770 2.118326 -0.849266
v 3.074295 1.933349 -0.849266
v 3.083046 1.921493 -0.695157
v 2.960973 2.086889 -0.709045
v -14.398373 13.713632 3.373072
v -14.193014 13.693422 3.373072
v -14.168295 13.690989 3.478863
v -14.462864 13.719978 3.475820
v -14.334507 13.585790 3.373072
v -14.312578 13.808619 3.373072
v -14.311843 13.816089 3.462614
v -14.334186 13.589053 3.475976
v -11.149466 13.924592 3.088921
v -11.168034 13.940246 3.298252
v -11.018849 13.814478 3.245412
v -10.968081 13.771677 3.088921
v -10.950763 14.010565 3.088921
v -11.109103 13.822743 3.088921
v -11.162543 13.759354 3.272831
v -10.977403 13.978965 3.259510
v -7.845812 -8.094397 -0.429279
v -7.817654 -8.032206 -0.575085
v -7.726923 -7.831810 -0.575085
v -7.692742 -7.756316 -0.429279
v -7.669222 -7.947832 -0.575140
v -7.858356 -7.862199 -0.575140
v -7.935317 -7.827354 -0.422933
v -7.650673 -7.956230 -0.412951
v -9.800087 14.829106 3.020212
v -9.632352 14.863745 3.020212
v -9.612162 14.867914 3.106509
v -9.852763 14.818229 3.104027
v -9.717938 14.743543 3.020212
v -9.755524 14.925548 3.020212
v -9.756783 14.931649 3.093254
v -9.718489 14.746208 3.104154
v -8.829866 7.701072 1.895423
v -8.840956 7.688509 2.011439
v -8.751862 7.789442 1.982154
v -8.721542 7.823790 1.895423
v -8.886052 7.839484 1.895423
v -8.758979 7.727315 1.895423
v -8.716092 7.689458 1.997350
v -8.864673 7.820612 1.989967
v -2.030125 10.920357 1.292624
v -2.160150 11.089828 1.292624
v -2.140558 11.064292 1.382085
v -1.974696 10.848112 1.354570
v -2.143527 10.912200 1.292624
v -2.179008 10.884977 1.361747
v -2.000380 11.022029 1.383671
v -1.999053 11.023046 1.292624
v -9.965645 15.876297 3.186713
v -9.988672 15.868407 3.315683
v -9.803659 15.931792 3.283128
v -9.740698 15.953363 3.186713
v -9.937097 16.091408 3.186713
v -9.857295 15.858479 3.186713
v -9.830362 15.779866 3.300021
v -9.923671 16.052219 3.291814
v -2.334918 -10.273840 -1.838559
v -2.502059 -10.278953 -1.838559
v -2.476875 -10.278182 -1.745529
v -2.263667 -10.271661 -1.774141
v -2.381597 -10.349624 -1.838559
v -2.380527 -10.384617 -1.766677
v -2.385915 -10.208444 -1.743879
v -2.385955 -10.207135 -1.838559
v -4.337719 14.080757 2.068434
v -4.349690 14.108697 2.189353
v -4.253509 13.884221 2.158830
v -4.220777 13.807830 2.068434
v -4.067190 14.065266 2.068434
v -4.349803 13.944174 2.068434
v -4.445184 13.903306 2.174669
v -4.114738 14.044892 2.166974
v -9.232630 -10.750463 -0.791213
v -9.236699 -10.886282 -0.791213
v -9.236086 -10.865817 -0.680668
v -9.230895 -10.692565 -0.714667
v -9.173457 -10.792050 -0.791213
v -9.145021 -10.792902 -0.705799
v -9.288178 -10.788612 -0.678708
v -9.289242 -10.788581 -0.791213
v -8.160708 3.798746 1.384098
v -8.109775 3.805067 1.223201
v -7.945655 3.825435 1.223201
v -7.883828 3.833108 1.384098
v -7.997457 3.742934 1.223140
v -8.016680 3.897830 1.223140
v -8.024502 3.960859 1.391101
v -7.995572 3.727742 1.402116
v -0.007739 -9.920909 -2.271298
v 0.173800 -9.914279 -2.271298
v 0.204449 -9.913160 -2.192556
v -0.038975 -9.922050 -2.177407
v 0.089517 -10.015720 -2.271357
v 0.081486 -9.795786 -2.271357
v 0.084485 -9.877927 -2.160566
v 0.090097 -10.031598 -2.194221
v -11.446609 -5.923684 0.401281
v -11.623450 -5.822647 0.401281
v -11.644736 -5.810485 0.494455
v -11.391074 -5.955414 0.491775
v -11.452577 -5.782761 0.401281
v -11.562208 -5.974645 0.401281
v -11.565884 -5.981078 0.480144
v -11.454182 -5.785571 0.491913
v -12.324107 6.947196 2.320304
v -12.320275 6.925512 2.426126
v -12.351056 7.099726 2.399415
v -12.361531 7.159012 2.320304
v -12.512366 7.002787 2.320304
v -12.293034 7.041539 2.320304
v -12.219009 7.054618 2.413276
v -12.475465 7.009307 2.406542
v -5.560764 2.740581 0.758930
v -5.522703 2.718728 0.643756
v -5.400064 2.648311 0.643756
v -5.353863 2.621783 0.758930
v -5.477865 2.618543 0.643713
v -5.411406 2.734290 0.643713
v -5.384362 2.781390 0.763943
v -5.484383 2.607191 0.771828
v -4.389530 -2.128188 -0.295183
v -4.200356 -2.155630 -0.295183
v -4.177585 -2.158933 -0.189686
v -4.448938 -2.119570 -0.192720
v -4.335871 -2.249208 -0.295183
v -4.306095 -2.043941 -0.295183
v -4.305096 -2.037060 -0.205890
v -4.335435 -2.246202 -0.192565
v -6.938073 -8.919327 -0.875752
v -7.109331 -9.016648 -0.875752
v -7.129945 -9.028362 -0.724917
v -6.884291 -8.888763 -0.729255
v -7.058269 -8.854809 -0.875752
v -6.952668 -9.040635 -0.875752
v -6.949127 -9.046865 -0.748084
v -7.056722 -8.857531 -0.729033
v -1.857939 -9.366953 -1.828331
v -1.663193 -9.385547 -1.828331
v -1.692538 -9.382745 -1.628534
v -1.940958 -9.359026 -1.689984
v -1.792639 -9.285844 -1.828331
v -1.788746 -9.245071 -1.673954
v -1.808345 -9.450339 -1.624992
v -1.808491 -9.451864 -1.828331
v -0.549388 13.998528 1.520626
v -0.539654 13.979215 1.647682
v -0.617858 14.134389 1.615610
v -0.644471 14.187196 1.520626
v -0.742192 13.997601 1.520626
v -0.546829 14.096058 1.520626
v -0.480894 14.129287 1.632252
v -0.709323 14.014165 1.624167
v -7.650367 13.954159 2.688782
v -7.700162 13.963746 2.606486
v -7.860614 13.994640 2.606486
v -7.921060 14.006279 2.688782
v -7.786777 14.056383 2.606455
v -7.815936 13.904948 2.606455
v -7.827800 13.843328 2.692364
v -7.783918 14.071236 2.697998
v -13.302051 11.509275 3.008641
v -13.295834 11.487239 3.128371
v -13.345778 11.664291 3.098149
v -13.362775 11.724545 3.008641
v -13.502608 11.547237 3.008641
v -13.279700 11.610116 3.008641
v -13.204470 11.631338 3.113832
v -13.465105 11.557817 3.106212
v -6.132792 -10.039091 -1.348277
v -6.154642 -10.031919 -1.219878
v -5.979091 -10.089539 -1.252289
v -5.919349 -10.109147 -1.348277
v -5.988737 -9.893225 -1.348277
v -6.061278 -10.114242 -1.348277
v -6.085761 -10.188834 -1.235470
v -6.000942 -9.930409 -1.243641
v -9.035816 -10.392423 -0.787233
v -9.053494 -10.370522 -0.670894
v -8.911461 -10.546475 -0.700261
v -8.863126 -10.606354 -0.787233
v -8.790805 -10.338372 -0.787233
v -9.012328 -10.517192 -0.787233
v -9.087091 -10.577542 -0.685022
v -8.828075 -10.368458 -0.692426
vn -0.8201 0.5722 -0.0000
vn -0.5722 -0.8201 -0.0000
vn -0.8112 -0.5848 -0.0000
vn 0.5848 -0.8112 -0.0000
vn 0.9081 -0.4188 -0.0000
vn 0.4188 0.9081 -0.0000
vn -0.2966 0.9550 -0.0000
vn -0.9550 -0.2966 -0.0000
vn -0.8946 -0.4470 -0.0000
vn 0.4470 -0.8946 -0.0000
vn -0.9021 0.4315 -0.0000
vn -0.4315 -0.9021 -0.0000
vn -0.4971 -0.8677 -0.0000
vn 0.8677 -0.4971 -0.0000
vn -0.8936 0.4488 -0.0000
vn -0.4488 -0.8936 -0.0000
vn 0.0775 -0.9970 -0.0000
vn 0.9970 0.0775 -0.0000
vn -0.7207 0.6932 -0.0000
vn -0.6932 -0.7207 -0.0000
vn -0.9371 -0.3490 -0.0000
vn 0.3490 -0.9371 -0.0000
vn 0.4890 -0.8723 -0.0000
vn 0.8723 0.4890 -0.0000
vn 0.8821 0.4710 -0.0000
vn -0.4710 0.8821 -0.0000
vn -0.4250 0.9052 -0.0000
vn -0.9052 -0.4250 -0.0000
vn -0.4137 0.9104 -0.0000
vn -0.9104 -0.4137 -0.0000
vn -0.5910 0.8067 -0.0000
vn -0.8067 -0.5910 -0.0000
vn -0.0723 -0.9974 -0.0000
vn 0.9974 -0.0723 -0.0000
vn -0.7247 0.6890 -0.0000
vn -0.6890 -0.7247 -0.0000
vn -0.4867 0.8736 -0.0000
vn -0.8736 -0.4867 -0.0000
vn -0.0660 0.9978 -0.0000
vn -0.9978 -0.0660 -0.0000
vn 0.9226 -0.3857 -0.0000
vn 0.3857 0.9226 -0.0000
vn 0.2678 -0.9635 -0.0000
vn 0.9635 0.2678 -0.0000
vn 0.1839 -0.9830 -0.0000
vn 0.9830 0.1839 -0.0000
vn 0.8846 -0.4664 -0.0000
vn 0.4664 0.8846 -0.0000
vn 0.8369 -0.5474 -0.0000
vn 0.5474 0.8369 -0.0000
vn 0.8109 -0.5852 -0.0000
vn 0.5852 0.8109 -0.0000
vn -0.6601 0.7512 -0.0000
vn -0.7512 -0.6601 -0.0000
vn 0.8621 -0.5068 -0.0000
vn 0.5068 0.8621 -0.0000
vn -0.3596 0.9331 -0.0000
vn -0.9331 -0.3596 -0.0000
vn 0.5589 0.8292 -0.0000
vn -0.8292 0.5589 -0.0000
vn 0.2764 0.9610 -0.0000
vn -0.9610 0.2764 -0.0000
vn 0.9890 -0.1478 -0.0000
vn 0.1478 0.9890 -0.0000
vn -0.6261 -0.7798 -0.0000
vn 0.7798 -0.6260 -0.0000
vn 0.9937 0.1121 -0.0000
vn -0.1122 0.9937 -0.0000
vn -0.9990 0.0449 -0.0000
vn -0.0449 -0.9990 -0.0000
vn -0.7321 -0.6812 -0.0000
vn 0.6812 -0.7321 -0.0000
vn 0.5594 0.8289 -0.0000
vn -0.8289 0.5594 -0.0000
vn -0.0837 -0.9965 -0.0000
vn 0.9965 -0.0837 -0.0000
vn 0.3873 -0.9220 -0.0000
vn 0.9220 0.3873 -0.0000
vn 0.1458 -0.9893 -0.0000
vn 0.9893 0.1458 -0.0000
vn -0.9073 -0.4206 -0.0000
vn 0.4206 -0.9073 -0.0000
vn -0.2595 0.9657 -0.0000
vn -0.9658 -0.2595 -0.0000
vn 0.9995 -0.0327 -0.0000
vn 0.0328 0.9995 -0.0000
vn 0.9705 -0.2410 -0.0000
vn 0.2410 0.9705 -0.0000
vn -0.9742 -0.2259 -0.0000
vn 0.2259 -0.9742 -0.0000
vn -0.9533 -0.3020 -0.0000
vn 0.3020 -0.9533 -0.0000
vn 0.9601 -0.2798 -0.0000
vn 0.2798 0.9601 -0.0000
vn -0.4475 0.8943 -0.0000
vn -0.8943 -0.4475 -0.0000
vn -0.0205 -0.9998 -0.0000
vn 0.9998 -0.0205 -0.0000
vn -0.9999 -0.0103 -0.0000
vn 0.0103 -0.9999 -0.0000
vn -0.4197 -0.9077 -0.0000
vn 0.9077 -0.4197 -0.0000
vn -0.9106 -0.4133 -0.0000
vn 0.4133 -0.9106 -0.0000
vn -0.1450 -0.9894 -0.0000
vn 0.9894 -0.1450 -0.0000
vn -0.0936 0.9956 -0.0000
vn -0.9956 -0.0936 -0.0000
vn -0.6262 0.7797 -0.0000
vn -0.7797 -0.6262 -0.0000
vn -0.8245 -0.5659 -0.0000
vn 0.5659 -0.8245 -0.0000
vn -0.1996 0.9799 -0.0000
vn -0.9799 -0.1996 -0.0000
vn -0.5632 -0.8263 -0.0000
vn 0.8263 -0.5632 -0.0000
vn -0.5585 0.8295 -0.0000
vn -0.8295 -0.5585 -0.0000
vn 0.7026 0.7115 -0.0000
vn -0.7116 0.7026 -0.0000
vn -0.9912 -0.1324 -0.0000
vn 0.1324 -0.9912 -0.0000
vn 0.8303 0.5573 -0.0000
vn -0.5573 0.8303 -0.0000
vn 0.3741 -0.9274 -0.0000
vn 0.9274 0.3741 -0.0000
vn 0.6063 0.7952 -0.0000
vn -0.7952 0.6063 -0.0000
vn -0.7813 0.6241 -0.0000
vn -0.6241 -0.7813 -0.0000
vn -0.0784 0.9969 -0.0000
vn -0.9969 -0.0784 -0.0000
vn 0.9076 0.4199 -0.0000
vn -0.4199 0.9076 -0.0000
vn 0.9712 -0.2383 -0.0000
vn 0.2383 0.9712 -0.0000
vn -0.1664 0.9861 -0.0000
vn -0.9861 -0.1664 -0.0000
vn 0.6198 -0.7848 -0.0000
vn 0.7848 0.6198 -0.0000
vn -0.7913 0.6114 -0.0000
vn -0.6114 -0.7913 -0.0000
vn -0.9050 -0.4254 -0.0000
vn 0.4254 -0.9050 -0.0000
vn 0.9396 0.3423 -0.0000
vn -0.3423 0.9396 -0.0000
vn 0.6305 -0.7762 -0.0000
vn 0.7762 0.6305 -0.0000
vn -0.7982 0.6024 -0.0000
vn -0.6024 -0.7982 -0.0000
vn -0.5884 0.8085 -0.0000
vn -0.8085 -0.5884 -0.0000
vn 0.8650 -0.5018 -0.0000
vn 0.5018 0.8650 -0.0000
vn -0.9959 0.0905 -0.0000
vn -0.0905 -0.9959 -0.0000
vn 0.8182 -0.5749 -0.0000
vn 0.5749 0.8182 -0.0000
vn 0.8039 -0.5947 -0.0000
vn 0.5947 0.8039 -0.0000
vn -0.2136 0.9769 -0.0000
vn -0.9769 -0.2136 -0.0000
vn -0.1179 0.9930 -0.0000
vn -0.9930 -0.1179 -0.0000
vn -0.8923 0.4515 -0.0000
vn -0.4515 -0.8923 -0.0000
vn -0.7964 0.6048 -0.0000
vn -0.6048 -0.7964 -0.0000
vn 0.9610 0.2766 -0.0000
vn -0.2766 0.9610 -0.0000
vn -0.5938 0.8046 -0.0000
vn -0.8046 -0.5938 -0.0000
vn -0.0979 -0.9952 -0.0000
vn 0.9952 -0.0979 -0.0000
vn 0.6446 0.7646 -0.0000
vn -0.7646 0.6446 -0.0000
vn 0.9110 -0.4125 -0.0000
vn 0.4125 0.9110 -0.0000
vn 0.2022 -0.9793 -0.0000
vn 0.9793 0.2022 -0.0000
vn -0.7497 0.6618 -0.0000
vn -0.6618 -0.7497 -0.0000
vn 0.7934 0.6087 -0.0000
vn -0.6087 0.7934 -0.0000
vn -0.3241 0.9460 -0.0000
vn -0.9460 -0.3241 -0.0000
vn -0.0306 0.9995 -0.0000
vn -0.9995 -0.0306 -0.0000
vn 0.9192 0.3938 -0.0000
vn -0.3938 0.9192 -0.0000
vn -0.9996 0.0300 -0.0000
vn -0.0300 -0.9996 -0.0000
vn 0.1232 -0.9924 -0.0000
vn 0.9924 0.1231 -0.0000
vn 0.0365 -0.9993 -0.0000
vn 0.9993 0.0365 -0.0000
vn 0.4961 0.8683 -0.0000
vn -0.8683 0.4961 -0.0000
vn -0.9847 -0.1740 -0.0000
vn 0.1740 -0.9847 -0.0000
vn -0.4979 -0.8672 -0.0000
vn 0.8672 -0.4979 -0.0000
vn -0.1436 -0.9896 -0.0000
vn 0.9896 -0.1436 -0.0000
vn -0.4941 0.8694 -0.0000
vn -0.8694 -0.4941 -0.0000
vn -0.0950 -0.9955 -0.0000
vn 0.9955 -0.0950 -0.0000
vn -0.8930 -0.4500 -0.0000
vn 0.4500 -0.8930 -0.0000
vn 0.1891 0.9820 -0.0000
vn -0.9820 0.1891 -0.0000
vn -0.9624 -0.2715 -0.0000
vn 0.2715 -0.9624 -0.0000
vn 0.3118 0.9501 -0.0000
vn -0.9501 0.3118 -0.0000
vn 0.7781 0.6281 -0.0000
vn -0.6281 0.7781 -0.0000
vn 0.9829 0.1839 -0.0000
vn 0.8846 -0.4663 -0.0000
vn -0.6260 -0.7798 -0.0000
vn 0.7798 -0.6261 -0.0000
vn -0.1121 0.9937 -0.0000
vn -0.2595 0.9658 -0.0000
vn 0.9995 -0.0328 -0.0000
vn -0.9799 -0.1997 -0.0000
vn 0.7026 0.7116 -0.0000
vn -0.7115 0.7026 -0.0000
vn 0.9075 0.4199 -0.0000
vn -0.7964 0.6047 -0.0000
vn -0.6047 -0.7964 -0.0000
vn 0.9924 0.1232 -0.0000
vn 0.3119 0.9501 -0.0000
vn -0.9501 0.3119 -0.0000
vt 0.038376 0.371048
vt 0.159378 0.250046
vt 0.194166 0.371048
vt 0.420000 0.250000
vt 0.324298 0.384599
vt 0.332846 0.250000
vt 0.183597 0.000000
vt 0.079867 0.150378
vt 0.039548 0.000000
vt 0.406485 0.000000
vt 0.282420 0.163926
vt 0.257324 0.000000
vt 0.574736 0.000000
vt 0.727477 0.180119
vt 0.531923 0.174939
vt 0.943005 0.000000
vt 0.797243 0.175205
vt 0.795077 0.000000
vt 0.587516 0.250000
vt 0.696219 0.438742
vt 0.532955 0.380692
vt 0.931885 0.250000
vt 0.823776 0.442088
vt 0.822774 0.250000
vt 0.046190 0.750308
vt 0.224718 0.829653
vt 0.019909 0.844918
vt 0.477396 0.750248
vt 0.278991 0.827976
vt 0.292351 0.750248
vt 0.199407 0.500208
vt 0.021869 0.609361
vt 0.026417 0.500208
vt 0.318619 0.500194
vt 0.479294 0.593008
vt 0.310722 0.610752
vt 0.408285 0.861889
vt 0.947964 0.152455
vt 0.683200 0.750259
vt 0.546949 0.843491
vt 0.500000 0.750259
vt 0.966633 0.750219
vt 0.827483 0.844072
vt 0.798992 0.750219
vt 0.548614 0.500208
vt 0.730526 0.577570
vt 0.530599 0.622715
vt 0.802250 0.500257
vt 0.920277 0.587538
vt 0.777322 0.599968
vt 0.958681 0.395835
vt 0.067034 0.250046
vt 0.455465 0.376315
vt 0.198343 0.201154
vt 0.456826 0.176726
vt 0.711067 0.000000
vt 0.715504 0.250000
vt 0.198931 0.750308
vt 0.225835 0.590819
vt 0.479294 0.500194
vt 0.726638 0.843491
vt 0.977378 0.853368
vt 0.716640 0.500208
vt 0.962020 0.500257
s 0
f 1/1/1 3/2/1 4/3/1
f 6/4/2 8/5/2 5/6/2
f 9/7/3 11/8/3 12/9/3
f 14/10/4 16/11/4 13/12/4
f 17/13/5 19/14/5 20/15/5
f 22/16/6 24/17/6 21/18/6
f 25/19/7 27/20/7 28/21/7
f 29/22/8 31/23/8 32/24/8
f 33/25/9 35/26/9 36/27/9
f 38/28/10 40/29/10 37/30/10
f 41/19/11 43/20/11 44/21/11
f 45/22/12 47/23/12 48/24/12
f 49/19/13 51/20/13 52/21/13
f 53/22/14 55/23/14 56/24/14
f 57/1/15 59/2/15 60/3/15
f 62/4/16 64/5/16 61/6/16
f 65/19/17 67/20/17 68/21/17
f 69/22/18 71/23/18 72/24/18
f 73/7/19 75/8/19 76/9/19
f 78/10/20 80/11/20 77/12/20
f 81/7/21 83/8/21 84/9/21
f 86/10/22 88/11/22 85/12/22
f 89/19/23 91/20/23 92/21/23
f 93/22/24 95/23/24 96/24/24
f 98/31/25 100/32/25 97/33/25
f 101/34/26 103/35/26 104/36/26
f 105/13/27 107/14/27 108/15/27
f 110/16/28 112/17/28 109/18/28
f 113/19/29 115/20/29 116/21/29
f 117/22/30 119/23/30 120/24/30
f 121/1/31 123/2/31 124/3/31
f 126/4/32 128/5/32 125/6/32
f 129/1/33 131/2/33 132/3/33
f 134/4/34 136/5/34 133/6/34
f 137/1/35 139/2/35 140/3/35
f 142/4/36 144/5/36 141/6/36
f 145/19/37 147/20/37 148/21/37
f 149/22/38 151/23/38 152/24/38
f 153/13/39 155/14/39 156/15/39
f 158/16/40 160/17/40 157/18/40
f 161/1/41 163/2/41 164/3/41
f 166/4/42 168/5/42 165/6/42
f 169/7/43 171/8/43 172/9/43
f 174/10/44 176/11/44 173/12/44
f 177/1/45 179/2/45 180/3/45
f 182/4/46 184/5/46 181/6/46
f 185/19/47 187/20/47 188/21/47
f 189/22/48 191/23/48 192/24/48
f 193/19/49 195/20/49 196/21/49
f 197/22/50 199/23/50 200/24/50
f 201/7/51 203/8/51 204/9/51
f 206/10/52 208/11/52 205/12/52
f 209/25/53 211/26/53 212/27/53
f 213/30/54 215/37/54 216/29/54
f 217/13/55 219/14/55 220/15/55
f 222/16/56 224/17/56 221/18/56
f 225/7/57 227/8/57 228/9/57
f 230/10/58 232/11/58 229/12/58
f 233/19/59 235/20/59 236/21/59
f 237/22/60 239/23/60 240/24/60
f 241/7/61 243/8/61 244/9/61
f 246/10/62 248/11/62 245/12/62
f 249/13/63 251/14/63 252/15/63
f 253/18/64 255/38/64 256/17/64
f 258/39/65 260/40/65 257/41/65
f 262/42/66 264/43/66 261/44/66
f 265/13/67 267/14/67 268/15/67
f 270/16/68 272/17/68 269/18/68
f 273/7/69 275/8/69 276/9/69
f 278/10/70 280/11/70 277/12/70
f 281/1/71 283/2/71 284/3/71
f 286/4/72 288/5/72 285/6/72
f 289/13/73 291/14/73 292/15/73
f 294/16/74 296/17/74 293/18/74
f 297/1/75 299/2/75 300/3/75
f 302/4/76 304/5/76 301/6/76
f 305/19/77 307/20/77 308/21/77
f 309/22/78 311/23/78 312/24/78
f 313/1/79 315/2/79 316/3/79
f 318/4/80 320/5/80 317/6/80
f 321/7/81 323/8/81 324/9/81
f 326/10/82 328/11/82 325/12/82
f 330/31/83 332/32/83 329/33/83
f 333/34/84 335/35/84 336/36/84
f 337/1/85 339/2/85 340/3/85
f 342/4/86 344/5/86 341/6/86
f 345/13/87 347/14/87 348/15/87
f 349/18/88 351/38/88 352/17/88
f 353/19/89 355/20/89 356/21/89
f 357/22/90 359/23/90 360/24/90
f 361/7/91 363/8/91 364/9/91
f 366/10/92 368/11/92 365/12/92
f 369/13/93 371/14/93 372/15/93
f 374/16/94 376/17/94 373/18/94
f 377/19/95 379/20/95 380/21/95
f 381/22/96 383/23/96 384/24/96
f 385/13/97 387/14/97 388/15/97
f 390/16/98 392/17/98 389/18/98
f 393/13/99 395/14/99 396/15/99
f 398/16/100 400/17/100 397/18/100
f 401/25/101 403/26/101 404/27/101
f 405/30/102 407/37/102 408/29/102
f 409/1/103 411/2/103 412/3/103
f 414/4/104 416/5/104 413/6/104
f 418/39/105 420/40/105 417/41/105
f 422/42/106 424/43/106 421/44/106
f 425/19/107 427/20/107 428/21/107
f 429/22/108 431/23/108 432/24/108
f 433/45/109 435/46/109 436/47/109
f 437/48/110 439/49/110 440/50/110
f 441/1/111 443/2/111 444/3/111
f 446/4/112 448/5/112 445/6/112
f 449/13/113 451/14/113 452/15/113
f 454/16/114 456/17/114 453/18/114
f 457/13/115 459/14/115 460/15/115
f 461/18/116 463/38/116 464/17/116
f 465/7/117 467/8/117 468/9/117
f 470/10/118 472/11/118 469/12/118
f 473/13/119 475/14/119 476/15/119
f 477/18/120 479/38/120 480/17/120
f 481/19/121 483/20/121 484/21/121
f 485/22/122 487/23/122 488/24/122
f 489/1/123 491/2/123 492/3/123
f 494/4/124 496/5/124 493/6/124
f 497/13/125 499/14/125 500/15/125
f 502/16/126 504/17/126 501/18/126
f 505/1/127 507/2/127 508/3/127
f 510/4/128 512/5/128 509/6/128
f 513/19/129 515/20/129 516/21/129
f 517/22/130 519/23/130 520/24/130
f 521/25/131 523/26/131 524/27/131
f 525/30/132 527/37/132 528/29/132
f 529/13/133 531/14/133 532/15/133
f 533/18/134 535/38/134 536/17/134
f 537/19/135 539/20/135 540/21/135
f 541/22/136 543/23/136 544/24/136
f 545/1/137 547/2/137 548/3/137
f 550/4/138 552/5/138 549/6/138
f 553/7/139 555/8/139 556/9/139
f 558/10/140 560/11/140 557/12/140
f 561/19/141 563/20/141 564/21/141
f 566/51/142 568/24/142 565/22/142
f 569/1/143 571/2/143 572/3/143
f 574/4/144 576/5/144 573/6/144
f 578/39/145 580/40/145 577/41/145
f 582/42/146 584/43/146 581/44/146
f 585/7/147 587/8/147 588/9/147
f 590/10/148 592/11/148 589/12/148
f 593/13/149 595/14/149 596/15/149
f 597/18/150 599/38/150 600/17/150
f 601/1/151 603/2/151 604/3/151
f 606/4/152 608/5/152 605/6/152
f 609/1/153 611/2/153 612/3/153
f 614/4/154 616/5/154 613/6/154
f 617/19/155 619/20/155 620/21/155
f 621/22/156 623/23/156 624/24/156
f 625/19/157 627/20/157 628/21/157
f 629/22/158 631/23/158 632/24/158
f 633/13/159 635/14/159 636/15/159
f 638/16/160 640/17/160 637/18/160
f 641/7/161 643/8/161 644/9/161
f 646/10/162 648/11/162 645/12/162
f 649/13/163 651/14/163 652/15/163
f 654/16/164 656/17/164 653/18/164
f 657/1/165 659/2/165 660/3/165
f 662/4/166 664/5/166 661/6/166
f 665/7/167 667/8/167 668/9/167
f 670/10/168 672/11/168 669/12/168
f 673/19/169 675/20/169 676/21/169
f 677/22/170 679/23/170 680/24/170
f 682/39/171 684/40/171 681/41/171
f 686/42/172 688/43/172 685/44/172
f 689/13/173 691/14/173 692/15/173
f 694/16/174 696/17/174 693/18/174
f 697/7/175 699/8/175 700/9/175
f 702/10/176 704/11/176 701/12/176
f 705/1/177 707/2/177 708/3/177
f 710/4/178 712/5/178 709/6/178
f 713/13/179 715/14/179 716/15/179
f 718/16/180 720/17/180 717/18/180
f 721/7/181 723/8/181 724/9/181
f 726/10/182 728/11/182 725/12/182
f 729/19/183 731/20/183 732/21/183
f 733/22/184 735/23/184 736/24/184
f 737/7/185 739/8/185 740/9/185
f 742/10/186 744/11/186 741/12/186
f 745/19/187 747/20/187 748/21/187
f 749/22/188 751/23/188 752/24/188
f 753/7/189 755/8/189 756/9/189
f 758/10/190 760/11/190 757/12/190
f 761/19/191 763/20/191 764/21/191
f 765/22/192 767/23/192 768/24/192
f 769/1/193 771/2/193 772/3/193
f 774/4/194 776/5/194 773/6/194
f 777/25/195 779/26/195 780/27/195
f 781/30/196 783/37/196 784/29/196
f 785/13/197 787/14/197 788/15/197
f 790/16/198 792/17/198 789/18/198
f 793/7/199 795/8/199 796/9/199
f 798/10/200 800/11/200 797/12/200
f 801/1/201 803/2/201 804/3/201
f 806/4/202 808/5/202 805/6/202
f 809/13/203 811/14/203 812/15/203
f 814/16/204 816/17/204 813/18/204
f 817/13/205 819/14/205 820/15/205
f 821/18/206 823/38/206 824/17/206
f 825/19/207 827/20/207 828/21/207
f 829/22/208 831/23/208 832/24/208
f 833/7/209 835/8/209 836/9/209
f 838/10/210 840/11/210 837/12/210
f 841/1/211 843/2/211 844/3/211
f 846/4/212 848/5/212 845/6/212
f 849/7/213 851/8/213 852/9/213
f 854/10/214 856/11/214 853/12/214
f 857/7/215 859/8/215 860/9/215
f 862/10/216 864/11/216 861/12/216
f 865/7/217 867/8/217 868/9/217
f 870/10/218 872/11/218 869/12/218
f 1/1/1 2/52/1 3/2/1
f 6/4/2 7/53/2 8/5/2
f 9/7/3 10/54/3 11/8/3
f 14/10/4 15/55/4 16/11/4
f 17/13/5 18/56/5 19/14/5
f 22/16/6 23/38/6 24/17/6
f 25/19/7 26/57/7 27/20/7
f 29/22/8 30/51/8 31/23/8
f 33/25/9 34/58/9 35/26/9
f 38/28/10 39/37/10 40/29/10
f 41/19/11 42/57/11 43/20/11
f 45/22/12 46/51/12 47/23/12
f 49/19/13 50/57/13 51/20/13
f 53/22/14 54/51/14 55/23/14
f 57/1/15 58/52/15 59/2/15
f 62/4/16 63/53/16 64/5/16
f 65/19/17 66/57/17 67/20/17
f 69/22/18 70/51/18 71/23/18
f 73/7/19 74/54/19 75/8/19
f 78/10/20 79/55/20 80/11/20
f 81/7/21 82/54/21 83/8/21
f 86/10/22 87/55/22 88/11/22
f 89/19/23 90/57/23 91/20/23
f 93/22/24 94/51/24 95/23/24
f 98/31/25 99/59/25 100/32/25
f 101/34/26 102/60/26 103/35/26
f 105/13/27 106/56/27 107/14/27
f 110/16/28 111/38/28 112/17/28
f 113/19/29 114/57/29 115/20/29
f 117/22/30 118/51/30 119/23/30
f 121/1/31 122/52/31 123/2/31
f 126/4/32 127/53/32 128/5/32
f 129/1/33 130/52/33 131/2/33
f 134/4/34 135/53/34 136/5/34
f 137/1/35 138/52/35 139/2/35
f 142/4/36 143/53/36 144/5/36
f 145/19/37 146/57/37 147/20/37
f 149/22/38 150/51/38 151/23/38
f 153/13/39 154/56/39 155/14/39
f 158/16/40 159/38/40 160/17/40
f 161/1/41 162/52/41 163/2/41
f 166/4/42 167/53/42 168/5/42
f 169/7/43 170/54/43 171/8/43
f 174/10/44 175/55/44 176/11/44
f 177/1/45 178/52/45 179/2/45
f 182/4/219 183/53/219 184/5/219
f 185/19/220 186/57/220 187/20/220
f 189/22/48 190/51/48 191/23/48
f 193/19/49 194/57/49 195/20/49
f 197/22/50 198/51/50 199/23/50
f 201/7/51 202/54/51 203/8/51
f 206/10/52 207/55/52 208/11/52
f 209/25/53 210/58/53 211/26/53
f 213/30/54 214/28/54 215/37/54
f 217/13/55 218/56/55 219/14/55
f 222/16/56 223/38/56 224/17/56
f 225/7/57 226/54/57 227/8/57
f 230/10/58 231/55/58 232/11/58
f 233/19/59 234/57/59 235/20/59
f 237/22/60 238/51/60 239/23/60
f 241/7/61 242/54/61 243/8/61
f 246/10/62 247/55/62 248/11/62
f 249/13/63 250/56/63 251/14/63
f 253/18/64 254/16/64 255/38/64
f 258/39/221 259/61/221 260/40/221
f 262/42/222 263/62/222 264/43/222
f 265/13/67 266/56/67 267/14/67
f 270/16/223 271/38/223 272/17/223
f 273/7/69 274/54/69 275/8/69
f 278/10/70 279/55/70 280/11/70
f 281/1/71 282/52/71 283/2/71
f 286/4/72 287/53/72 288/5/72
f 289/13/73 290/56/73 291/14/73
f 294/16/74 295/38/74 296/17/74
f 297/1/75 298/52/75 299/2/75
f 302/4/76 303/53/76 304/5/76
f 305/19/77 306/57/77 307/20/77
f 309/22/78 310/51/78 311/23/78
f 313/1/79 314/52/79 315/2/79
f 318/4/80 319/53/80 320/5/80
f 321/7/81 322/54/81 323/8/81
f 326/10/82 327/55/82 328/11/82
f 330/31/224 331/59/224 332/32/224
f 333/34/84 334/60/84 335/35/84
f 337/1/225 338/52/225 339/2/225
f 342/4/86 343/53/86 344/5/86
f 345/13/87 346/56/87 347/14/87
f 349/18/88 350/16/88 351/38/88
f 353/19/89 354/57/89 355/20/89
f 357/22/90 358/51/90 359/23/90
f 361/7/91 362/54/91 363/8/91
f 366/10/92 367/55/92 368/11/92
f 369/13/93 370/56/93 371/14/93
f 374/16/94 375/38/94 376/17/94
f 377/19/95 378/57/95 379/20/95
f 381/22/96 382/51/96 383/23/96
f 385/13/97 386/56/97 387/14/97
f 390/16/98 391/38/98 392/17/98
f 393/13/99 394/56/99 395/14/99
f 398/16/100 399/38/100 400/17/100
f 401/25/101 402/58/101 403/26/101
f 405/30/102 406/28/102 407/37/102
f 409/1/103 410/52/103 411/2/103
f 414/4/104 415/53/104 416/5/104
f 418/39/105 419/61/105 420/40/105
f 422/42/106 423/62/106 424/43/106
f 425/19/107 426/57/107 427/20/107
f 429/22/108 430/51/108 431/23/108
f 433/45/109 434/63/109 435/46/109
f 437/48/110 438/64/110 439/49/110
f 441/1/111 442/52/111 443/2/111
f 446/4/112 447/53/112 448/5/112
f 449/13/113 450/56/113 451/14/113
f 454/16/226 455/38/226 456/17/226
f 457/13/115 458/56/115 459/14/115
f 461/18/116 462/16/116 463/38/116
f 465/7/117 466/54/117 467/8/117
f 470/10/118 471/55/118 472/11/118
f 473/13/227 474/56/227 475/14/227
f 477/18/228 478/16/228 479/38/228
f 481/19/121 482/57/121 483/20/121
f 485/22/122 486/51/122 487/23/122
f 489/1/123 490/52/123 491/2/123
f 494/4/124 495/53/124 496/5/124
f 497/13/125 498/56/125 499/14/125
f 502/16/126 503/38/126 504/17/126
f 505/1/127 506/52/127 507/2/127
f 510/4/128 511/53/128 512/5/128
f 513/19/129 514/57/129 515/20/129
f 517/22/130 518/51/130 519/23/130
f 521/25/131 522/58/131 523/26/131
f 525/30/132 526/28/132 527/37/132
f 529/13/229 530/56/229 531/14/229
f 533/18/134 534/16/134 535/38/134
f 537/19/135 538/57/135 539/20/135
f 541/22/136 542/51/136 543/23/136
f 545/1/137 546/52/137 547/2/137
f 550/4/138 551/53/138 552/5/138
f 553/7/139 554/54/139 555/8/139
f 558/10/140 559/55/140 560/11/140
f 561/19/141 562/57/141 563/20/141
f 566/51/142 567/23/142 568/24/142
f 569/1/143 570/52/143 571/2/143
f 574/4/144 575/53/144 576/5/144
f 578/39/145 579/61/145 580/40/145
f 582/42/146 583/62/146 584/43/146
f 585/7/147 586/54/147 587/8/147
f 590/10/148 591/55/148 592/11/148
f 593/13/149 594/56/149 595/14/149
f 597/18/150 598/16/150 599/38/150
f 601/1/151 602/52/151 603/2/151
f 606/4/152 607/53/152 608/5/152
f 609/1/153 610/52/153 611/2/153
f 614/4/154 615/53/154 616/5/154
f 617/19/155 618/57/155 619/20/155
f 621/22/156 622/51/156 623/23/156
f 625/19/157 626/57/157 627/20/157
f 629/22/158 630/51/158 631/23/158
f 633/13/159 634/56/159 635/14/159
f 638/16/160 639/38/160 640/17/160
f 641/7/161 642/54/161 643/8/161
f 646/10/162 647/55/162 648/11/162
f 649/13/163 650/56/163 651/14/163
f 654/16/164 655/38/164 656/17/164
f 657/1/165 658/52/165 659/2/165
f 662/4/166 663/53/166 664/5/166
f 665/7/230 666/54/230 667/8/230
f 670/10/231 671/55/231 672/11/231
f 673/19/169 674/57/169 675/20/169
f 677/22/170 678/51/170 679/23/170
f 682/39/171 683/61/171 684/40/171
f 686/42/172 687/62/172 688/43/172
f 689/13/173 690/56/173 691/14/173
f 694/16/174 695/38/174 696/17/174
f 697/7/175 698/54/175 699/8/175
f 702/10/176 703/55/176 704/11/176
f 705/1/177 706/52/177 707/2/177
f 710/4/178 711/53/178 712/5/178
f 713/13/179 714/56/179 715/14/179
f 718/16/180 719/38/180 720/17/180
f 721/7/181 722/54/181 723/8/181
f 726/10/182 727/55/182 728/11/182
f 729/19/183 730/57/183 731/20/183
f 733/22/184 734/51/184 735/23/184
f 737/7/185 738/54/185 739/8/185
f 742/10/186 743/55/186 744/11/186
f 745/19/187 746/57/187 747/20/187
f 749/22/188 750/51/188 751/23/188
f 753/7/189 754/54/189 755/8/189
f 758/10/190 759/55/190 760/11/190
f 761/19/191 762/57/191 763/20/191
f 765/22/192 766/51/192 767/23/192
f 769/1/193 770/52/193 771/2/193
f 774/4/232 775/53/232 776/5/232
f 777/25/195 778/58/195 779/26/195
f 781/30/196 782/28/196 783/37/196
f 785/13/197 786/56/197 787/14/197
f 790/16/198 791/38/198 792/17/198
f 793/7/199 794/54/199 795/8/199
f 798/10/200 799/55/200 800/11/200
f 801/1/201 802/52/201 803/2/201
f 806/4/202 807/53/202 808/5/202
f 809/13/203 810/56/203 811/14/203
f 814/16/204 815/38/204 816/17/204
f 817/13/205 818/56/205 819/14/205
f 821/18/206 822/16/206 823/38/206
f 825/19/207 826/57/207 827/20/207
f 829/22/208 830/51/208 831/23/208
f 833/7/209 834/54/209 835/8/209
f 838/10/210 839/55/210 840/11/210
f 841/1/211 842/52/211 843/2/211
f 846/4/212 847/53/212 848/5/212
f 849/7/213 850/54/213 851/8/213
f 854/10/214 855/55/214 856/11/214
f 857/7/233 858/54/233 859/8/233
f 862/10/234 863/55/234 864/11/234
f 865/7/217 866/54/217 867/8/217
f 870/10/218 871/55/218 872/11/218
