mtllib grass_06_05_b0.mtl
usemtl grass_06_05_b0
# Blender 5.1.1
# www.blender.org
o grass_06_05_b0
v -15.510715 16.004780 0.016076
v -15.358072 15.855962 0.016076
v -15.345458 15.843664 0.115605
v -15.527081 16.020735 0.173686
v -15.505755 15.871037 0.016140
v -15.364251 16.016178 0.016140
v -15.401221 15.978257 0.128429
v -15.527833 15.848392 0.144422
v -15.740509 15.665266 0.126710
v -15.743541 15.621429 -0.015755
v -15.753308 15.480179 -0.015755
v -15.756988 15.426967 0.126710
v -15.814151 15.537223 -0.015808
v -15.680839 15.528005 -0.015808
v -15.626592 15.524254 0.132911
v -15.827226 15.538127 0.142664
vn -0.6981 -0.7160 -0.0000
vn 0.7160 -0.6981 -0.0000
vn -0.9976 0.0690 -0.0000
vn -0.0690 -0.9976 -0.0000
vt 0.548614 0.500208
vt 0.730526 0.577570
vt 0.530599 0.622715
vt 0.802250 0.500257
vt 0.920277 0.587538
vt 0.777322 0.599968
vt 0.038376 0.371048
vt 0.159378 0.250046
vt 0.194166 0.371048
vt 0.420000 0.250000
vt 0.324298 0.384599
vt 0.332846 0.250000
vt 0.716640 0.500208
vt 0.962020 0.500257
vt 0.067034 0.250046
vt 0.455465 0.376315
s 0
f 1/1/1 3/2/1 4/3/1
f 5/4/2 7/5/2 8/6/2
f 9/7/3 11/8/3 12/9/3
f 14/10/4 16/11/4 13/12/4
f 1/1/1 2/13/1 3/2/1
f 5/4/2 6/14/2 7/5/2
f 9/7/3 10/15/3 11/8/3
f 14/10/4 15/16/4 16/11/4
