# Blender 5.1.1
# www.blender.org
mtllib R1v.mtl
o R1v_arch_-1.001
v 3.930000 5.150000 0.000000
v 3.930000 5.150000 2.100000
v 3.930000 5.210000 0.000000
v 3.930000 5.210000 2.100000
v 4.000000 5.150000 0.000000
v 4.000000 5.150000 2.100000
v 4.000000 5.210000 0.000000
v 4.000000 5.210000 2.100000
v 4.900000 5.150000 0.000000
v 4.900000 5.150000 2.100000
v 4.900000 5.210000 0.000000
v 4.900000 5.210000 2.100000
v 4.970000 5.150000 0.000000
v 4.970000 5.150000 2.100000
v 4.970000 5.210000 0.000000
v 4.970000 5.210000 2.100000
v 3.930000 5.150000 2.100000
v 3.930000 5.150000 2.170000
v 3.930000 5.210000 2.100000
v 3.930000 5.210000 2.170000
v 4.970000 5.150000 2.100000
v 4.970000 5.150000 2.170000
v 4.970000 5.210000 2.100000
v 4.970000 5.210000 2.170000
v 4.065000 5.125000 1.007500
v 4.065000 5.125000 1.032500
v 4.065000 5.145000 1.007500
v 4.065000 5.145000 1.032500
v 4.175000 5.125000 1.007500
v 4.175000 5.125000 1.032500
v 4.175000 5.145000 1.007500
v 4.175000 5.145000 1.032500
v 5.095000 5.152500 1.405000
v 5.095000 5.152500 1.595000
v 5.095000 5.197500 1.405000
v 5.095000 5.197500 1.595000
v 5.205000 5.152500 1.405000
v 5.205000 5.152500 1.595000
v 5.205000 5.197500 1.405000
v 5.205000 5.197500 1.595000
v 5.105000 5.142000 1.522500
v 5.105000 5.142000 1.567500
v 5.105000 5.154000 1.522500
v 5.105000 5.154000 1.567500
v 5.155000 5.142000 1.522500
v 5.155000 5.142000 1.567500
v 5.155000 5.154000 1.522500
v 5.155000 5.154000 1.567500
v 4.120000 5.150000 0.952000
v 4.120000 5.130000 0.952000
v 4.125206 5.150000 0.950812
v 4.125206 5.130000 0.950812
v 4.129382 5.150000 0.947482
v 4.129382 5.130000 0.947482
v 4.131699 5.150000 0.942670
v 4.131699 5.130000 0.942670
v 4.131699 5.150000 0.937330
v 4.131699 5.130000 0.937330
v 4.129382 5.150000 0.932518
v 4.129382 5.130000 0.932518
v 4.125206 5.150000 0.929188
v 4.125206 5.130000 0.929188
v 4.120000 5.150000 0.928000
v 4.120000 5.130000 0.928000
v 4.114793 5.150000 0.929188
v 4.114793 5.130000 0.929188
v 4.110618 5.150000 0.932518
v 4.110618 5.130000 0.932518
v 4.108301 5.150000 0.937330
v 4.108301 5.130000 0.937330
v 4.108301 5.150000 0.942670
v 4.108301 5.130000 0.942670
v 4.110618 5.150000 0.947482
v 4.110618 5.130000 0.947482
v 4.114793 5.150000 0.950812
v 4.114793 5.130000 0.950812
v 4.110000 5.146000 0.175000
v 4.110000 5.146000 0.725000
v 4.110000 5.162000 0.175000
v 4.110000 5.162000 0.725000
v 4.410000 5.146000 0.175000
v 4.410000 5.146000 0.725000
v 4.410000 5.162000 0.175000
v 4.410000 5.162000 0.725000
v 4.490000 5.146000 0.175000
v 4.490000 5.146000 0.725000
v 4.490000 5.162000 0.175000
v 4.490000 5.162000 0.725000
v 4.790000 5.146000 0.175000
v 4.790000 5.146000 0.725000
v 4.790000 5.162000 0.175000
v 4.790000 5.162000 0.725000
v 4.110000 5.146000 1.025000
v 4.110000 5.146000 1.875000
v 4.110000 5.162000 1.025000
v 4.110000 5.162000 1.875000
v 4.410000 5.146000 1.025000
v 4.410000 5.146000 1.875000
v 4.410000 5.162000 1.025000
v 4.410000 5.162000 1.875000
v 4.490000 5.146000 1.025000
v 4.490000 5.146000 1.875000
v 4.490000 5.162000 1.025000
v 4.490000 5.162000 1.875000
v 4.790000 5.146000 1.025000
v 4.790000 5.146000 1.875000
v 4.790000 5.162000 1.025000
v 4.790000 5.162000 1.875000
v 4.000000 5.155000 0.000000
v 4.000000 5.155000 2.100000
v 4.000000 5.205000 0.000000
v 4.000000 5.205000 2.100000
v 4.900000 5.155000 0.000000
v 4.900000 5.155000 2.100000
v 4.900000 5.205000 0.000000
v 4.900000 5.205000 2.100000
v 5.377500 5.169000 1.007500
v 5.377500 5.169000 1.092500
v 5.377500 5.187000 1.007500
v 5.377500 5.187000 1.092500
v 5.462500 5.169000 1.007500
v 5.462500 5.169000 1.092500
v 5.462500 5.187000 1.007500
v 5.462500 5.187000 1.092500
v 5.377500 5.169000 1.937500
v 5.377500 5.169000 2.022500
v 5.377500 5.187000 1.937500
v 5.377500 5.187000 2.022500
v 5.462500 5.169000 1.937500
v 5.462500 5.169000 2.022500
v 5.462500 5.187000 1.937500
v 5.462500 5.187000 2.022500
v 10.007500 5.169000 1.007500
v 10.007500 5.169000 1.092500
v 10.007500 5.187000 1.007500
v 10.007500 5.187000 1.092500
v 10.092500 5.169000 1.007500
v 10.092500 5.169000 1.092500
v 10.092500 5.187000 1.007500
v 10.092500 5.187000 1.092500
vn -1.0000 -0.0000 -0.0000
vn -0.0000 1.0000 -0.0000
vn 1.0000 -0.0000 -0.0000
vn -0.0000 -1.0000 -0.0000
vn -0.0000 -0.0000 -1.0000
vn -0.0000 -0.0000 1.0000
vn 0.2225 -0.0000 0.9749
vn 0.6235 -0.0000 0.7818
vn 0.9010 -0.0000 0.4339
vn 0.9010 -0.0000 -0.4339
vn 0.6235 -0.0000 -0.7818
vn 0.2225 -0.0000 -0.9749
vn -0.2225 -0.0000 -0.9749
vn -0.6235 -0.0000 -0.7818
vn -0.9010 -0.0000 -0.4339
vn -0.9010 -0.0000 0.4339
vn -0.6235 -0.0000 0.7818
vn -0.2225 -0.0000 0.9749
vt 0.852414 0.612980
vt 0.852414 0.004460
vt 0.869800 0.004460
vt 0.869800 0.612980
vt 0.735595 0.612980
vt 0.735595 0.004460
vt 0.755879 0.004460
vt 0.755879 0.612980
vt 0.878721 0.612980
vt 0.878721 0.004460
vt 0.896107 0.004460
vt 0.896107 0.612980
vt 0.764799 0.612980
vt 0.764799 0.004460
vt 0.785083 0.004460
vt 0.785083 0.612980
vt 0.766538 0.717753
vt 0.766538 0.738037
vt 0.749152 0.738037
vt 0.749152 0.717753
vt 0.766538 0.746958
vt 0.766538 0.767242
vt 0.749152 0.767242
vt 0.749152 0.746958
vt 0.905028 0.612980
vt 0.905028 0.004460
vt 0.922414 0.004460
vt 0.922414 0.612980
vt 0.794004 0.612980
vt 0.794004 0.004460
vt 0.814288 0.004460
vt 0.814288 0.612980
vt 0.931335 0.612980
vt 0.931335 0.004460
vt 0.948721 0.004460
vt 0.948721 0.612980
vt 0.823209 0.612980
vt 0.823209 0.004460
vt 0.843493 0.004460
vt 0.843493 0.612980
vt 0.561277 0.747186
vt 0.561277 0.767470
vt 0.543890 0.767470
vt 0.543890 0.747186
vt 0.686540 0.750311
vt 0.686540 0.770595
vt 0.669154 0.770595
vt 0.669154 0.750311
vt 0.408235 0.773265
vt 0.408235 0.752981
vt 0.425622 0.752981
vt 0.425622 0.773265
vt 0.216449 0.923263
vt 0.196165 0.923263
vt 0.196165 0.621901
vt 0.216449 0.621901
vt 0.441787 0.773265
vt 0.441787 0.752981
vt 0.459173 0.752981
vt 0.459173 0.773265
vt 0.245653 0.923263
vt 0.225369 0.923263
vt 0.225369 0.621901
vt 0.245653 0.621901
vt 0.271961 0.621901
vt 0.271960 0.923263
vt 0.254574 0.923263
vt 0.254574 0.621901
vt 0.298268 0.621901
vt 0.298268 0.923263
vt 0.280881 0.923263
vt 0.280881 0.621901
vt 0.684855 0.786760
vt 0.684855 0.779516
vt 0.690650 0.779516
vt 0.690650 0.786760
vt 0.577442 0.779060
vt 0.570197 0.779060
vt 0.570197 0.747186
vt 0.577442 0.747186
vt 0.775459 0.789202
vt 0.775459 0.781958
vt 0.781254 0.781958
vt 0.781254 0.789202
vt 0.782703 0.749628
vt 0.775459 0.749628
vt 0.775459 0.717753
vt 0.782703 0.717753
vt 0.782061 0.621901
vt 0.782061 0.653776
vt 0.776266 0.653776
vt 0.776266 0.621901
vt 0.782061 0.662696
vt 0.782061 0.694571
vt 0.776266 0.694571
vt 0.776266 0.662696
vt 0.543890 0.738265
vt 0.543890 0.683208
vt 0.556930 0.683208
vt 0.556930 0.738265
vt 0.408235 0.676957
vt 0.408235 0.621901
vt 0.440110 0.621901
vt 0.440110 0.676957
vt 0.565851 0.738265
vt 0.565851 0.683208
vt 0.578890 0.683208
vt 0.578890 0.738265
vt 0.449031 0.676957
vt 0.449031 0.621901
vt 0.480906 0.621901
vt 0.480906 0.676957
vt 0.715745 0.683208
vt 0.715745 0.715083
vt 0.702705 0.715083
vt 0.702705 0.683208
vt 0.715745 0.724004
vt 0.715745 0.755879
vt 0.702705 0.755879
vt 0.702705 0.724004
vt 0.530498 0.681759
vt 0.530498 0.668720
vt 0.533975 0.668720
vt 0.533975 0.681759
vt 0.715745 0.779288
vt 0.702705 0.779288
vt 0.702705 0.764799
vt 0.715745 0.764799
vt 0.530498 0.703720
vt 0.530498 0.690680
vt 0.533975 0.690680
vt 0.533975 0.703720
vt 0.788498 0.773037
vt 0.775459 0.773037
vt 0.775459 0.758549
vt 0.788498 0.758549
vt 0.533975 0.621901
vt 0.533975 0.636389
vt 0.530498 0.636389
vt 0.530498 0.621901
vt 0.533975 0.645310
vt 0.533975 0.659799
vt 0.530498 0.659799
vt 0.530498 0.645310
vt 0.410954 0.787981
vt 0.410954 0.782186
vt 0.412463 0.782186
vt 0.412463 0.787981
vt 0.413673 0.782186
vt 0.413673 0.787981
vt 0.530498 0.718436
vt 0.530498 0.712640
vt 0.531892 0.712640
vt 0.531892 0.718436
vt 0.533440 0.712640
vt 0.533440 0.718436
vt 0.534834 0.712640
vt 0.534834 0.718436
vt 0.422593 0.787981
vt 0.422593 0.782186
vt 0.423803 0.782186
vt 0.423803 0.787981
vt 0.425312 0.782186
vt 0.425312 0.787981
vt 0.426821 0.782186
vt 0.426821 0.787981
vt 0.428031 0.782186
vt 0.428031 0.787981
vt 0.534834 0.727357
vt 0.534834 0.733152
vt 0.533440 0.733152
vt 0.533440 0.727357
vt 0.531892 0.733152
vt 0.531892 0.727357
vt 0.530498 0.733152
vt 0.530498 0.727357
vt 0.642619 0.781764
vt 0.643291 0.780370
vt 0.644501 0.779405
vt 0.646009 0.779060
vt 0.647518 0.779405
vt 0.648728 0.780370
vt 0.649399 0.781764
vt 0.649399 0.783311
vt 0.648728 0.784706
vt 0.647518 0.785671
vt 0.646009 0.786015
vt 0.644501 0.785671
vt 0.643291 0.784706
vt 0.642619 0.783311
vt 0.408235 0.787981
vt 0.408235 0.782186
vt 0.409445 0.782186
vt 0.409445 0.787981
vt 0.675263 0.780825
vt 0.675934 0.782219
vt 0.675934 0.783767
vt 0.675263 0.785161
vt 0.674053 0.786126
vt 0.672544 0.786470
vt 0.671035 0.786126
vt 0.669825 0.785161
vt 0.669154 0.783767
vt 0.669154 0.782219
vt 0.669825 0.780825
vt 0.671035 0.779860
vt 0.672544 0.779516
vt 0.674053 0.779860
vt 0.489827 0.781275
vt 0.489827 0.621901
vt 0.494463 0.621901
vt 0.494463 0.781275
vt 0.543890 0.674287
vt 0.543890 0.514913
vt 0.630822 0.514913
vt 0.630822 0.674287
vt 0.503384 0.781275
vt 0.503384 0.621901
vt 0.508020 0.621901
vt 0.508020 0.781275
vt 0.639742 0.674287
vt 0.639742 0.514913
vt 0.726674 0.514913
vt 0.726674 0.674287
vt 0.753788 0.621901
vt 0.753788 0.708832
vt 0.749152 0.708832
vt 0.749152 0.621901
vt 0.767345 0.621901
vt 0.767345 0.708832
vt 0.762709 0.708832
vt 0.762709 0.621901
vt 0.516941 0.781275
vt 0.516941 0.621901
vt 0.521577 0.621901
vt 0.521577 0.781275
vt 0.004460 0.781275
vt 0.004460 0.621901
vt 0.091392 0.621901
vt 0.091392 0.781275
vt 0.735595 0.781275
vt 0.735595 0.621901
vt 0.740231 0.621901
vt 0.740231 0.781275
vt 0.100313 0.781275
vt 0.100313 0.621901
vt 0.187244 0.621901
vt 0.187244 0.781275
vt 0.619562 0.683208
vt 0.619562 0.770140
vt 0.614925 0.770140
vt 0.614925 0.683208
vt 0.633119 0.683208
vt 0.633119 0.770140
vt 0.628483 0.770140
vt 0.628483 0.683208
vt 0.354007 0.868207
vt 0.354007 0.621901
vt 0.358643 0.621901
vt 0.358643 0.868207
vt 0.543890 0.250766
vt 0.543890 0.004460
vt 0.630822 0.004460
vt 0.630822 0.250766
vt 0.367564 0.868207
vt 0.367564 0.621901
vt 0.372200 0.621901
vt 0.372200 0.868207
vt 0.543890 0.505992
vt 0.543890 0.259687
vt 0.630822 0.259687
vt 0.630822 0.505992
vt 0.592448 0.683208
vt 0.592448 0.770140
vt 0.587811 0.770140
vt 0.587811 0.683208
vt 0.606005 0.683208
vt 0.606005 0.770140
vt 0.601368 0.770140
vt 0.601368 0.683208
vt 0.381121 0.868207
vt 0.381121 0.621901
vt 0.385758 0.621901
vt 0.385758 0.868207
vt 0.639742 0.250766
vt 0.639742 0.004460
vt 0.726674 0.004460
vt 0.726674 0.250766
vt 0.394678 0.868207
vt 0.394678 0.621901
vt 0.399315 0.621901
vt 0.399315 0.868207
vt 0.639742 0.505992
vt 0.639742 0.259687
vt 0.726674 0.259687
vt 0.726674 0.505992
vt 0.646676 0.683208
vt 0.646676 0.770140
vt 0.642040 0.770140
vt 0.642040 0.683208
vt 0.660233 0.683208
vt 0.660233 0.770140
vt 0.655597 0.770140
vt 0.655597 0.683208
vt 0.957642 0.612980
vt 0.957642 0.004460
vt 0.972130 0.004460
vt 0.972130 0.612980
vt 0.004460 0.612980
vt 0.004460 0.004460
vt 0.265255 0.004460
vt 0.265255 0.612980
vt 0.981051 0.612980
vt 0.981051 0.004460
vt 0.995540 0.004460
vt 0.995540 0.612980
vt 0.274175 0.612980
vt 0.274175 0.004460
vt 0.534970 0.004460
vt 0.534970 0.612980
vt 0.321677 0.621901
vt 0.321677 0.882695
vt 0.307188 0.882695
vt 0.307188 0.621901
vt 0.345086 0.621901
vt 0.345086 0.882695
vt 0.330598 0.882695
vt 0.330598 0.621901
vt 0.797419 0.783179
vt 0.797419 0.758549
vt 0.802635 0.758549
vt 0.802635 0.783179
vt 0.466417 0.710509
vt 0.441787 0.710509
vt 0.441787 0.685878
vt 0.466417 0.685878
vt 0.587811 0.803691
vt 0.587811 0.779060
vt 0.593027 0.779060
vt 0.593027 0.803691
vt 0.693784 0.741390
vt 0.669154 0.741390
vt 0.669154 0.716760
vt 0.693784 0.716760
vt 0.480554 0.685878
vt 0.480554 0.710509
vt 0.475338 0.710509
vt 0.475338 0.685878
vt 0.480554 0.719430
vt 0.480554 0.744060
vt 0.475338 0.744060
vt 0.475338 0.719430
vt 0.749152 0.800793
vt 0.749152 0.776163
vt 0.754368 0.776163
vt 0.754368 0.800793
vt 0.693784 0.707839
vt 0.669154 0.707839
vt 0.669154 0.683208
vt 0.693784 0.683208
vt 0.543890 0.801021
vt 0.543890 0.776390
vt 0.549106 0.776390
vt 0.549106 0.801021
vt 0.432866 0.710509
vt 0.408235 0.710509
vt 0.408235 0.685878
vt 0.432866 0.685878
vt 0.473310 0.752981
vt 0.473310 0.777611
vt 0.468094 0.777611
vt 0.468094 0.752981
vt 0.796198 0.621901
vt 0.796198 0.646531
vt 0.790982 0.646531
vt 0.790982 0.621901
vt 0.601948 0.803691
vt 0.601948 0.779060
vt 0.607164 0.779060
vt 0.607164 0.803691
vt 0.432866 0.744060
vt 0.408235 0.744060
vt 0.408235 0.719430
vt 0.432866 0.719430
vt 0.628483 0.803691
vt 0.628483 0.779060
vt 0.633699 0.779060
vt 0.633699 0.803691
vt 0.466417 0.744060
vt 0.441787 0.744060
vt 0.441787 0.719430
vt 0.466417 0.719430
vt 0.796198 0.655452
vt 0.796198 0.680083
vt 0.790982 0.680083
vt 0.790982 0.655452
vt 0.796840 0.717753
vt 0.796840 0.742384
vt 0.791624 0.742384
vt 0.791624 0.717753
s 0
usemtl exp_R1v
f 1/1/1 2/2/1 4/3/1 3/4/1
f 3/5/2 4/6/2 8/7/2 7/8/2
f 7/9/3 8/10/3 6/11/3 5/12/3
f 5/13/4 6/14/4 2/15/4 1/16/4
f 3/17/5 7/18/5 5/19/5 1/20/5
f 8/21/6 4/22/6 2/23/6 6/24/6
f 9/25/1 10/26/1 12/27/1 11/28/1
f 11/29/2 12/30/2 16/31/2 15/32/2
f 15/33/3 16/34/3 14/35/3 13/36/3
f 13/37/4 14/38/4 10/39/4 9/40/4
f 11/41/5 15/42/5 13/43/5 9/44/5
f 16/45/6 12/46/6 10/47/6 14/48/6
f 17/49/1 18/50/1 20/51/1 19/52/1
f 19/53/2 20/54/2 24/55/2 23/56/2
f 23/57/3 24/58/3 22/59/3 21/60/3
f 21/61/4 22/62/4 18/63/4 17/64/4
f 19/65/5 23/66/5 21/67/5 17/68/5
f 24/69/6 20/70/6 18/71/6 22/72/6
f 25/73/1 26/74/1 28/75/1 27/76/1
f 27/77/2 28/78/2 32/79/2 31/80/2
f 31/81/3 32/82/3 30/83/3 29/84/3
f 29/85/4 30/86/4 26/87/4 25/88/4
f 27/89/5 31/90/5 29/91/5 25/92/5
f 32/93/6 28/94/6 26/95/6 30/96/6
f 33/97/1 34/98/1 36/99/1 35/100/1
f 35/101/2 36/102/2 40/103/2 39/104/2
f 39/105/3 40/106/3 38/107/3 37/108/3
f 37/109/4 38/110/4 34/111/4 33/112/4
f 35/113/5 39/114/5 37/115/5 33/116/5
f 40/117/6 36/118/6 34/119/6 38/120/6
f 41/121/1 42/122/1 44/123/1 43/124/1
f 43/125/2 44/126/2 48/127/2 47/128/2
f 47/129/3 48/130/3 46/131/3 45/132/3
f 45/133/4 46/134/4 42/135/4 41/136/4
f 43/137/5 47/138/5 45/139/5 41/140/5
f 48/141/6 44/142/6 42/143/6 46/144/6
f 49/145/7 50/146/7 52/147/7 51/148/7
f 51/148/8 52/147/8 54/149/8 53/150/8
f 53/151/9 54/152/9 56/153/9 55/154/9
f 55/154/3 56/153/3 58/155/3 57/156/3
f 57/156/10 58/155/10 60/157/10 59/158/10
f 59/159/11 60/160/11 62/161/11 61/162/11
f 61/162/12 62/161/12 64/163/12 63/164/12
f 63/164/13 64/163/13 66/165/13 65/166/13
f 65/166/14 66/165/14 68/167/14 67/168/14
f 67/169/15 68/170/15 70/171/15 69/172/15
f 69/172/1 70/171/1 72/173/1 71/174/1
f 71/174/16 72/173/16 74/175/16 73/176/16
f 52/177/4 50/178/4 76/179/4 74/180/4 72/181/4 70/182/4 68/183/4 66/184/4 64/185/4 62/186/4 60/187/4 58/188/4 56/189/4 54/190/4
f 73/191/17 74/192/17 76/193/17 75/194/17
f 75/194/18 76/193/18 50/146/18 49/145/18
f 49/195/2 51/196/2 53/197/2 55/198/2 57/199/2 59/200/2 61/201/2 63/202/2 65/203/2 67/204/2 69/205/2 71/206/2 73/207/2 75/208/2
f 77/209/1 78/210/1 80/211/1 79/212/1
f 79/213/2 80/214/2 84/215/2 83/216/2
f 83/217/3 84/218/3 82/219/3 81/220/3
f 81/221/4 82/222/4 78/223/4 77/224/4
f 79/225/5 83/226/5 81/227/5 77/228/5
f 84/229/6 80/230/6 78/231/6 82/232/6
f 85/233/1 86/234/1 88/235/1 87/236/1
f 87/237/2 88/238/2 92/239/2 91/240/2
f 91/241/3 92/242/3 90/243/3 89/244/3
f 89/245/4 90/246/4 86/247/4 85/248/4
f 87/249/5 91/250/5 89/251/5 85/252/5
f 92/253/6 88/254/6 86/255/6 90/256/6
f 93/257/1 94/258/1 96/259/1 95/260/1
f 95/261/2 96/262/2 100/263/2 99/264/2
f 99/265/3 100/266/3 98/267/3 97/268/3
f 97/269/4 98/270/4 94/271/4 93/272/4
f 95/273/5 99/274/5 97/275/5 93/276/5
f 100/277/6 96/278/6 94/279/6 98/280/6
f 101/281/1 102/282/1 104/283/1 103/284/1
f 103/285/2 104/286/2 108/287/2 107/288/2
f 107/289/3 108/290/3 106/291/3 105/292/3
f 105/293/4 106/294/4 102/295/4 101/296/4
f 103/297/5 107/298/5 105/299/5 101/300/5
f 108/301/6 104/302/6 102/303/6 106/304/6
f 109/305/1 110/306/1 112/307/1 111/308/1
f 111/309/2 112/310/2 116/311/2 115/312/2
f 115/313/3 116/314/3 114/315/3 113/316/3
f 113/317/4 114/318/4 110/319/4 109/320/4
f 111/321/5 115/322/5 113/323/5 109/324/5
f 116/325/6 112/326/6 110/327/6 114/328/6
f 117/329/1 118/330/1 120/331/1 119/332/1
f 119/333/2 120/334/2 124/335/2 123/336/2
f 123/337/3 124/338/3 122/339/3 121/340/3
f 121/341/4 122/342/4 118/343/4 117/344/4
f 119/345/5 123/346/5 121/347/5 117/348/5
f 124/349/6 120/350/6 118/351/6 122/352/6
f 125/353/1 126/354/1 128/355/1 127/356/1
f 127/357/2 128/358/2 132/359/2 131/360/2
f 131/361/3 132/362/3 130/363/3 129/364/3
f 129/365/4 130/366/4 126/367/4 125/368/4
f 127/369/5 131/370/5 129/371/5 125/372/5
f 132/373/6 128/374/6 126/375/6 130/376/6
f 133/377/1 134/378/1 136/379/1 135/380/1
f 135/381/2 136/382/2 140/383/2 139/384/2
f 139/385/3 140/386/3 138/387/3 137/388/3
f 137/389/4 138/390/4 134/391/4 133/392/4
f 135/393/5 139/394/5 137/395/5 133/396/5
f 140/397/6 136/398/6 134/399/6 138/400/6
