# Blender 5.1.1
# www.blender.org
mtllib R3v.mtl
o R3v_backdrop.001
v 19.590000 1.050000 0.200000
v 19.590000 1.050000 2.800000
v 19.590000 6.550000 0.200000
v 19.590000 6.550000 2.800000
v 19.610001 1.050000 0.200000
v 19.610001 1.050000 2.800000
v 19.610001 6.550000 0.200000
v 19.610001 6.550000 2.800000
v 17.934999 2.550000 0.900000
v 17.934999 2.550000 0.970000
v 17.934999 5.050000 0.900000
v 17.934999 5.050000 0.970000
v 17.995001 2.550000 0.900000
v 17.995001 2.550000 0.970000
v 17.995001 5.050000 0.900000
v 17.995001 5.050000 0.970000
v 17.934999 2.550000 0.900000
v 17.934999 2.550000 2.400000
v 17.934999 2.620000 0.900000
v 17.934999 2.620000 2.400000
v 17.995001 2.550000 0.900000
v 17.995001 2.550000 2.400000
v 17.995001 2.620000 0.900000
v 17.995001 2.620000 2.400000
v 17.934999 4.980000 0.900000
v 17.934999 4.980000 2.400000
v 17.934999 5.050000 0.900000
v 17.934999 5.050000 2.400000
v 17.995001 4.980000 0.900000
v 17.995001 4.980000 2.400000
v 17.995001 5.050000 0.900000
v 17.995001 5.050000 2.400000
v 17.934999 2.550000 2.330000
v 17.934999 2.550000 2.400000
v 17.934999 5.050000 2.330000
v 17.934999 5.050000 2.400000
v 17.995001 2.550000 2.330000
v 17.995001 2.550000 2.400000
v 17.995001 5.050000 2.330000
v 17.995001 5.050000 2.400000
v 17.977501 2.610000 0.960000
v 17.977501 2.610000 2.340000
v 17.977501 4.990000 0.960000
v 17.977501 4.990000 2.340000
v 17.992500 2.610000 0.960000
v 17.992500 2.610000 2.340000
v 17.992500 4.990000 0.960000
v 17.992500 4.990000 2.340000
v 17.915001 3.162500 1.510000
v 17.915001 3.162500 1.610000
v 17.915001 3.187500 1.510000
v 17.915001 3.187500 1.610000
v 17.945000 3.162500 1.510000
v 17.945000 3.162500 1.610000
v 17.945000 3.187500 1.510000
v 17.945000 3.187500 1.610000
v 17.915001 4.412500 1.510000
v 17.915001 4.412500 1.610000
v 17.915001 4.437500 1.510000
v 17.915001 4.437500 1.610000
v 17.945000 4.412500 1.510000
v 17.945000 4.412500 1.610000
v 17.945000 4.437500 1.510000
v 17.945000 4.437500 1.610000
v 17.934999 3.760000 0.970000
v 17.934999 3.760000 2.330000
v 17.934999 3.840000 0.970000
v 17.934999 3.840000 2.330000
v 17.995001 3.760000 0.970000
v 17.995001 3.760000 2.330000
v 17.995001 3.840000 0.970000
v 17.995001 3.840000 2.330000
v 17.937500 2.605000 1.440000
v 17.937500 2.605000 1.500000
v 17.937500 3.745000 1.440000
v 17.937500 3.745000 1.500000
v 17.992500 2.605000 1.440000
v 17.992500 2.605000 1.500000
v 17.992500 3.745000 1.440000
v 17.992500 3.745000 1.500000
v 17.937500 3.855000 1.440000
v 17.937500 3.855000 1.500000
v 17.937500 4.995000 1.440000
v 17.937500 4.995000 1.500000
v 17.992500 3.855000 1.440000
v 17.992500 3.855000 1.500000
v 17.992500 4.995000 1.440000
v 17.992500 4.995000 1.500000
v 17.820000 2.500000 0.870000
v 17.820000 2.500000 0.900000
v 17.820000 5.100000 0.870000
v 17.820000 5.100000 0.900000
v 17.980000 2.500000 0.870000
v 17.980000 2.500000 0.900000
v 17.980000 5.100000 0.870000
v 17.980000 5.100000 0.900000
vn -1.0000 -0.0000 -0.0000
vn -0.0000 1.0000 -0.0000
vn 1.0000 -0.0000 -0.0000
vn -0.0000 -1.0000 -0.0000
vn -0.0000 -0.0000 -1.0000
vn -0.0000 -0.0000 1.0000
vt 0.348552 0.733563
vt 0.003369 0.733563
vt 0.003369 0.003369
vt 0.348552 0.003369
vt 0.986703 0.348552
vt 0.986703 0.003369
vt 0.989359 0.003369
vt 0.989359 0.348552
vt 0.700472 0.733563
vt 0.355289 0.733563
vt 0.355289 0.003369
vt 0.700472 0.003369
vt 0.986703 0.700472
vt 0.986703 0.355289
vt 0.989359 0.355289
vt 0.989359 0.700472
vt 0.927793 0.733563
vt 0.925138 0.733563
vt 0.925138 0.003369
vt 0.927793 0.003369
vt 0.937185 0.733563
vt 0.934530 0.733563
vt 0.934530 0.003369
vt 0.937185 0.003369
vt 0.953216 0.335275
vt 0.943922 0.335275
vt 0.943922 0.003369
vt 0.953216 0.003369
vt 0.222019 0.749594
vt 0.222019 0.740301
vt 0.229984 0.740301
vt 0.229984 0.749594
vt 0.953216 0.673919
vt 0.943922 0.673919
vt 0.943922 0.342012
vt 0.953216 0.342012
vt 0.236722 0.749594
vt 0.236722 0.740301
vt 0.244687 0.740301
vt 0.244687 0.749594
vt 0.715175 0.980700
vt 0.707209 0.980700
vt 0.707209 0.648793
vt 0.715175 0.648793
vt 0.729877 0.980700
vt 0.721912 0.980700
vt 0.721912 0.648793
vt 0.729877 0.648793
vt 0.766020 0.847937
vt 0.766020 0.648793
vt 0.775314 0.648793
vt 0.775314 0.847937
vt 0.864858 0.847937
vt 0.864858 0.648793
vt 0.872824 0.648793
vt 0.872824 0.847937
vt 0.782051 0.847937
vt 0.782051 0.648793
vt 0.791344 0.648793
vt 0.791344 0.847937
vt 0.879561 0.847937
vt 0.879561 0.648793
vt 0.887527 0.648793
vt 0.887527 0.847937
vt 0.288796 0.749594
vt 0.280830 0.749594
vt 0.280830 0.740301
vt 0.288796 0.740301
vt 0.303499 0.749594
vt 0.295533 0.749594
vt 0.295533 0.740301
vt 0.303499 0.740301
vt 0.798081 0.847937
vt 0.798081 0.648793
vt 0.807375 0.648793
vt 0.807375 0.847937
vt 0.897158 0.906353
vt 0.897158 0.707209
vt 0.905124 0.707209
vt 0.905124 0.906353
vt 0.814112 0.847937
vt 0.814112 0.648793
vt 0.823405 0.648793
vt 0.823405 0.847937
vt 0.003369 0.939445
vt 0.003369 0.740300
vt 0.011334 0.740300
vt 0.011334 0.939445
vt 0.318201 0.749594
vt 0.310236 0.749594
vt 0.310236 0.740300
vt 0.318201 0.740300
vt 0.332904 0.749594
vt 0.324939 0.749594
vt 0.324939 0.740300
vt 0.332904 0.740300
vt 0.969246 0.335275
vt 0.959953 0.335275
vt 0.959953 0.003369
vt 0.969246 0.003369
vt 0.251424 0.749594
vt 0.251424 0.740300
vt 0.259390 0.740300
vt 0.259390 0.749594
vt 0.969246 0.673919
vt 0.959953 0.673919
vt 0.959953 0.342012
vt 0.969246 0.342012
vt 0.266127 0.749594
vt 0.266127 0.740300
vt 0.274093 0.740300
vt 0.274093 0.749594
vt 0.744580 0.980700
vt 0.736615 0.980700
vt 0.736615 0.648793
vt 0.744580 0.648793
vt 0.759283 0.980700
vt 0.751317 0.980700
vt 0.751317 0.648793
vt 0.759283 0.648793
vt 0.890421 0.319344
vt 0.707209 0.319344
vt 0.707209 0.003369
vt 0.890421 0.003369
vt 0.911861 0.890421
vt 0.911861 0.707209
vt 0.913853 0.707209
vt 0.913853 0.890421
vt 0.890421 0.642056
vt 0.707209 0.642056
vt 0.707209 0.326081
vt 0.890421 0.326081
vt 0.162445 0.923513
vt 0.162445 0.740300
vt 0.164436 0.740300
vt 0.164436 0.923513
vt 0.945914 0.996631
vt 0.943922 0.996631
vt 0.943922 0.680656
vt 0.945914 0.680656
vt 0.954642 0.996631
vt 0.952651 0.996631
vt 0.952651 0.680656
vt 0.954642 0.680656
vt 0.438677 0.753577
vt 0.438677 0.740301
vt 0.441996 0.740301
vt 0.441996 0.753577
vt 0.339641 0.753577
vt 0.339641 0.740301
vt 0.343624 0.740301
vt 0.343624 0.753577
vt 0.448733 0.753577
vt 0.448733 0.740301
vt 0.452053 0.740301
vt 0.452053 0.753577
vt 0.350361 0.753577
vt 0.350361 0.740301
vt 0.354344 0.740301
vt 0.354344 0.753577
vt 0.482221 0.740300
vt 0.482221 0.744283
vt 0.478902 0.744283
vt 0.478902 0.740300
vt 0.492277 0.740301
vt 0.492277 0.744283
vt 0.488958 0.744283
vt 0.488958 0.740301
vt 0.458790 0.753577
vt 0.458790 0.740301
vt 0.462109 0.740301
vt 0.462109 0.753577
vt 0.361081 0.753577
vt 0.361081 0.740301
vt 0.365064 0.740301
vt 0.365064 0.753577
vt 0.468846 0.753577
vt 0.468846 0.740301
vt 0.472165 0.740301
vt 0.472165 0.753577
vt 0.371801 0.753577
vt 0.371801 0.740301
vt 0.375784 0.740301
vt 0.375784 0.753577
vt 0.502333 0.740301
vt 0.502333 0.744283
vt 0.499014 0.744283
vt 0.499014 0.740301
vt 0.512389 0.740301
vt 0.512389 0.744283
vt 0.509070 0.744283
vt 0.509070 0.740301
vt 0.830142 0.829350
vt 0.830142 0.648793
vt 0.840763 0.648793
vt 0.840763 0.829350
vt 0.018071 0.920858
vt 0.018071 0.740301
vt 0.026037 0.740301
vt 0.026037 0.920858
vt 0.847500 0.829350
vt 0.847500 0.648793
vt 0.858121 0.648793
vt 0.858121 0.829350
vt 0.032774 0.920858
vt 0.032774 0.740301
vt 0.040740 0.740301
vt 0.040740 0.920858
vt 0.200579 0.750921
vt 0.192613 0.750921
vt 0.192613 0.740300
vt 0.200579 0.740300
vt 0.215282 0.750921
vt 0.207316 0.750921
vt 0.207316 0.740300
vt 0.215282 0.740300
vt 0.084849 0.891650
vt 0.076883 0.891650
vt 0.076883 0.740301
vt 0.084849 0.740301
vt 0.382521 0.748266
vt 0.382521 0.740301
vt 0.389823 0.740301
vt 0.389823 0.748266
vt 0.055443 0.891650
vt 0.047477 0.891650
vt 0.047477 0.740301
vt 0.055443 0.740301
vt 0.396560 0.748266
vt 0.396560 0.740301
vt 0.403862 0.740301
vt 0.403862 0.748266
vt 0.113590 0.891650
vt 0.106288 0.891650
vt 0.106288 0.740301
vt 0.113590 0.740301
vt 0.127629 0.891650
vt 0.120327 0.891650
vt 0.120327 0.740301
vt 0.127629 0.740301
vt 0.070146 0.891650
vt 0.062180 0.891650
vt 0.062180 0.740300
vt 0.070146 0.740300
vt 0.410599 0.748266
vt 0.410599 0.740301
vt 0.417901 0.740301
vt 0.417901 0.748266
vt 0.099551 0.891650
vt 0.091586 0.891650
vt 0.091586 0.740301
vt 0.099551 0.740301
vt 0.424638 0.748266
vt 0.424638 0.740301
vt 0.431940 0.740301
vt 0.431940 0.748266
vt 0.141668 0.891650
vt 0.134367 0.891650
vt 0.134367 0.740301
vt 0.141668 0.740301
vt 0.155708 0.891650
vt 0.148406 0.891650
vt 0.148406 0.740301
vt 0.155708 0.740301
vt 0.979966 0.348552
vt 0.975983 0.348552
vt 0.975983 0.003369
vt 0.979966 0.003369
vt 0.175156 0.761543
vt 0.171173 0.761543
vt 0.171173 0.740301
vt 0.175156 0.740301
vt 0.979966 0.700472
vt 0.975983 0.700472
vt 0.975983 0.355289
vt 0.979966 0.355289
vt 0.185876 0.761543
vt 0.181893 0.761543
vt 0.181893 0.740301
vt 0.185876 0.740301
vt 0.918401 0.348552
vt 0.897159 0.348552
vt 0.897159 0.003369
vt 0.918401 0.003369
vt 0.918401 0.700472
vt 0.897159 0.700472
vt 0.897159 0.355289
vt 0.918401 0.355289
s 0
usemtl exp_R3v
f 1/1/1 2/2/1 4/3/1 3/4/1
f 3/5/2 4/6/2 8/7/2 7/8/2
f 7/9/3 8/10/3 6/11/3 5/12/3
f 5/13/4 6/14/4 2/15/4 1/16/4
f 3/17/5 7/18/5 5/19/5 1/20/5
f 8/21/6 4/22/6 2/23/6 6/24/6
f 9/25/1 10/26/1 12/27/1 11/28/1
f 11/29/2 12/30/2 16/31/2 15/32/2
f 15/33/3 16/34/3 14/35/3 13/36/3
f 13/37/4 14/38/4 10/39/4 9/40/4
f 11/41/5 15/42/5 13/43/5 9/44/5
f 16/45/6 12/46/6 10/47/6 14/48/6
f 17/49/1 18/50/1 20/51/1 19/52/1
f 19/53/2 20/54/2 24/55/2 23/56/2
f 23/57/3 24/58/3 22/59/3 21/60/3
f 21/61/4 22/62/4 18/63/4 17/64/4
f 19/65/5 23/66/5 21/67/5 17/68/5
f 24/69/6 20/70/6 18/71/6 22/72/6
f 25/73/1 26/74/1 28/75/1 27/76/1
f 27/77/2 28/78/2 32/79/2 31/80/2
f 31/81/3 32/82/3 30/83/3 29/84/3
f 29/85/4 30/86/4 26/87/4 25/88/4
f 27/89/5 31/90/5 29/91/5 25/92/5
f 32/93/6 28/94/6 26/95/6 30/96/6
f 33/97/1 34/98/1 36/99/1 35/100/1
f 35/101/2 36/102/2 40/103/2 39/104/2
f 39/105/3 40/106/3 38/107/3 37/108/3
f 37/109/4 38/110/4 34/111/4 33/112/4
f 35/113/5 39/114/5 37/115/5 33/116/5
f 40/117/6 36/118/6 34/119/6 38/120/6
f 41/121/1 42/122/1 44/123/1 43/124/1
f 43/125/2 44/126/2 48/127/2 47/128/2
f 47/129/3 48/130/3 46/131/3 45/132/3
f 45/133/4 46/134/4 42/135/4 41/136/4
f 43/137/5 47/138/5 45/139/5 41/140/5
f 48/141/6 44/142/6 42/143/6 46/144/6
f 49/145/1 50/146/1 52/147/1 51/148/1
f 51/149/2 52/150/2 56/151/2 55/152/2
f 55/153/3 56/154/3 54/155/3 53/156/3
f 53/157/4 54/158/4 50/159/4 49/160/4
f 51/161/5 55/162/5 53/163/5 49/164/5
f 56/165/6 52/166/6 50/167/6 54/168/6
f 57/169/1 58/170/1 60/171/1 59/172/1
f 59/173/2 60/174/2 64/175/2 63/176/2
f 63/177/3 64/178/3 62/179/3 61/180/3
f 61/181/4 62/182/4 58/183/4 57/184/4
f 59/185/5 63/186/5 61/187/5 57/188/5
f 64/189/6 60/190/6 58/191/6 62/192/6
f 65/193/1 66/194/1 68/195/1 67/196/1
f 67/197/2 68/198/2 72/199/2 71/200/2
f 71/201/3 72/202/3 70/203/3 69/204/3
f 69/205/4 70/206/4 66/207/4 65/208/4
f 67/209/5 71/210/5 69/211/5 65/212/5
f 72/213/6 68/214/6 66/215/6 70/216/6
f 73/217/1 74/218/1 76/219/1 75/220/1
f 75/221/2 76/222/2 80/223/2 79/224/2
f 79/225/3 80/226/3 78/227/3 77/228/3
f 77/229/4 78/230/4 74/231/4 73/232/4
f 75/233/5 79/234/5 77/235/5 73/236/5
f 80/237/6 76/238/6 74/239/6 78/240/6
f 81/241/1 82/242/1 84/243/1 83/244/1
f 83/245/2 84/246/2 88/247/2 87/248/2
f 87/249/3 88/250/3 86/251/3 85/252/3
f 85/253/4 86/254/4 82/255/4 81/256/4
f 83/257/5 87/258/5 85/259/5 81/260/5
f 88/261/6 84/262/6 82/263/6 86/264/6
f 89/265/1 90/266/1 92/267/1 91/268/1
f 91/269/2 92/270/2 96/271/2 95/272/2
f 95/273/3 96/274/3 94/275/3 93/276/3
f 93/277/4 94/278/4 90/279/4 89/280/4
f 91/281/5 95/282/5 93/283/5 89/284/5
f 96/285/6 92/286/6 90/287/6 94/288/6
