# Blender 5.1.1
# www.blender.org
mtllib R6.mtl
o R6_final.001
v 5.570000 5.169250 1.550000
v 5.570000 5.169250 1.890000
v 5.570000 5.179250 1.550000
v 5.570000 5.179250 1.890000
v 5.830000 5.169250 1.550000
v 5.830000 5.169250 1.890000
v 5.830000 5.179250 1.550000
v 5.830000 5.179250 1.890000
v 5.495000 5.179750 1.460000
v 5.495000 5.174750 1.465000
v 5.490000 5.179750 1.465000
v 5.495000 5.177253 1.460668
v 5.492503 5.179750 1.460668
v 5.492609 5.177359 1.461317
v 5.492503 5.175418 1.465000
v 5.495000 5.175418 1.462503
v 5.492609 5.176067 1.462609
v 5.490668 5.179750 1.462503
v 5.490668 5.177253 1.465000
v 5.491317 5.177359 1.462609
v 5.495000 5.174750 1.975000
v 5.495000 5.179750 1.980000
v 5.490000 5.179750 1.975000
v 5.495000 5.175418 1.977497
v 5.492503 5.175418 1.975000
v 5.492609 5.176067 1.977391
v 5.492503 5.179750 1.979332
v 5.495000 5.177253 1.979332
v 5.492609 5.177359 1.978683
v 5.490668 5.177253 1.975000
v 5.490668 5.179750 1.977497
v 5.491317 5.177359 1.977391
v 5.495000 5.194750 1.460000
v 5.490000 5.194750 1.465000
v 5.495000 5.199750 1.465000
v 5.492503 5.194750 1.460668
v 5.495000 5.197247 1.460668
v 5.492609 5.197141 1.461317
v 5.490668 5.197247 1.465000
v 5.490668 5.194750 1.462503
v 5.491317 5.197141 1.462609
v 5.495000 5.199082 1.462503
v 5.492503 5.199082 1.465000
v 5.492609 5.198433 1.462609
v 5.495000 5.194750 1.980000
v 5.495000 5.199750 1.975000
v 5.490000 5.194750 1.975000
v 5.495000 5.197247 1.979332
v 5.492503 5.194750 1.979332
v 5.492609 5.197141 1.978683
v 5.492503 5.199082 1.975000
v 5.495000 5.199082 1.977497
v 5.492609 5.198433 1.977391
v 5.490668 5.194750 1.977497
v 5.490668 5.197247 1.975000
v 5.491317 5.197141 1.977391
v 5.905000 5.179750 1.460000
v 5.910000 5.179750 1.465000
v 5.905000 5.174750 1.465000
v 5.907496 5.179750 1.460668
v 5.905000 5.177253 1.460668
v 5.907392 5.177359 1.461317
v 5.909332 5.177253 1.465000
v 5.909332 5.179750 1.462503
v 5.908683 5.177359 1.462609
v 5.905000 5.175418 1.462503
v 5.907496 5.175418 1.465000
v 5.907392 5.176067 1.462609
v 5.905000 5.179750 1.980000
v 5.905000 5.174750 1.975000
v 5.910000 5.179750 1.975000
v 5.905000 5.177253 1.979332
v 5.907496 5.179750 1.979332
v 5.907392 5.177359 1.978683
v 5.907496 5.175418 1.975000
v 5.905000 5.175418 1.977497
v 5.907392 5.176067 1.977391
v 5.909332 5.179750 1.977497
v 5.909332 5.177253 1.975000
v 5.908683 5.177359 1.977391
v 5.905000 5.194750 1.460000
v 5.905000 5.199750 1.465000
v 5.910000 5.194750 1.465000
v 5.905000 5.197247 1.460668
v 5.907496 5.194750 1.460668
v 5.907392 5.197141 1.461317
v 5.907496 5.199082 1.465000
v 5.905000 5.199082 1.462503
v 5.907392 5.198433 1.462609
v 5.909332 5.194750 1.462503
v 5.909332 5.197247 1.465000
v 5.908683 5.197141 1.462609
v 5.905000 5.194750 1.980000
v 5.910000 5.194750 1.975000
v 5.905000 5.199750 1.975000
v 5.907496 5.194750 1.979332
v 5.905000 5.197247 1.979332
v 5.907392 5.197141 1.978683
v 5.909332 5.197247 1.975000
v 5.909332 5.194750 1.977497
v 5.908683 5.197141 1.977391
v 5.905000 5.199082 1.977497
v 5.907496 5.199082 1.975000
v 5.907392 5.198433 1.977391
v 5.520000 5.171250 1.490000
v 5.520000 5.171250 1.950000
v 5.520000 5.183250 1.490000
v 5.520000 5.183250 1.950000
v 5.880000 5.171250 1.490000
v 5.880000 5.171250 1.950000
v 5.880000 5.183250 1.490000
v 5.880000 5.183250 1.950000
v 5.770000 5.173250 1.668000
v 5.770000 5.167250 1.668000
v 5.779577 5.173250 1.666311
v 5.779577 5.167250 1.666311
v 5.787998 5.173250 1.661449
v 5.787998 5.167250 1.661449
v 5.794249 5.173250 1.654000
v 5.794249 5.167250 1.654000
v 5.797575 5.173250 1.644862
v 5.797575 5.167250 1.644862
v 5.797575 5.173250 1.635138
v 5.797575 5.167250 1.635138
v 5.794249 5.173250 1.626000
v 5.794249 5.167250 1.626000
v 5.787998 5.173250 1.618551
v 5.787998 5.167250 1.618551
v 5.779577 5.173250 1.613689
v 5.779577 5.167250 1.613689
v 5.770000 5.173250 1.612000
v 5.770000 5.167250 1.612000
v 5.760424 5.173250 1.613689
v 5.760424 5.167250 1.613689
v 5.752002 5.173250 1.618551
v 5.752002 5.167250 1.618551
v 5.745751 5.173250 1.626000
v 5.745751 5.167250 1.626000
v 5.742426 5.173250 1.635138
v 5.742426 5.167250 1.635138
v 5.742426 5.173250 1.644862
v 5.742426 5.167250 1.644862
v 5.745751 5.173250 1.654000
v 5.745751 5.167250 1.654000
v 5.752002 5.173250 1.661449
v 5.752002 5.167250 1.661449
v 5.760424 5.173250 1.666311
v 5.760424 5.167250 1.666311
v 5.610001 5.166250 1.776000
v 5.610001 5.166250 1.784000
v 5.610001 5.170250 1.776000
v 5.610001 5.170250 1.784000
v 5.770000 5.166250 1.776000
v 5.770000 5.166250 1.784000
v 5.770000 5.170250 1.776000
v 5.770000 5.170250 1.784000
v 5.630000 5.166250 1.741000
v 5.630000 5.166250 1.749000
v 5.630000 5.170250 1.741000
v 5.630000 5.170250 1.749000
v 5.750000 5.166250 1.741000
v 5.750000 5.166250 1.749000
v 5.750000 5.170250 1.741000
v 5.750000 5.170250 1.749000
v 5.610001 5.166250 1.706000
v 5.610001 5.166250 1.714000
v 5.610001 5.170250 1.706000
v 5.610001 5.170250 1.714000
v 5.770000 5.166250 1.706000
v 5.770000 5.166250 1.714000
v 5.770000 5.170250 1.706000
v 5.770000 5.170250 1.714000
v 5.630000 5.166250 1.671000
v 5.630000 5.166250 1.679000
v 5.630000 5.170250 1.671000
v 5.630000 5.170250 1.679000
v 5.750000 5.166250 1.671000
v 5.750000 5.166250 1.679000
v 5.750000 5.170250 1.671000
v 5.750000 5.170250 1.679000
v 6.370000 5.169250 1.550000
v 6.370000 5.169250 1.890000
v 6.370000 5.179250 1.550000
v 6.370000 5.179250 1.890000
v 6.630000 5.169250 1.550000
v 6.630000 5.169250 1.890000
v 6.630000 5.179250 1.550000
v 6.630000 5.179250 1.890000
v 6.295000 5.179750 1.460000
v 6.295000 5.174750 1.465000
v 6.290000 5.179750 1.465000
v 6.295000 5.177253 1.460668
v 6.292503 5.179750 1.460668
v 6.292609 5.177359 1.461317
v 6.292503 5.175418 1.465000
v 6.295000 5.175418 1.462503
v 6.292609 5.176067 1.462609
v 6.290668 5.179750 1.462503
v 6.290668 5.177253 1.465000
v 6.291317 5.177359 1.462609
v 6.295000 5.174750 1.975000
v 6.295000 5.179750 1.980000
v 6.290000 5.179750 1.975000
v 6.295000 5.175418 1.977497
v 6.292503 5.175418 1.975000
v 6.292609 5.176067 1.977391
v 6.292503 5.179750 1.979332
v 6.295000 5.177253 1.979332
v 6.292609 5.177359 1.978683
v 6.290668 5.177253 1.975000
v 6.290668 5.179750 1.977497
v 6.291317 5.177359 1.977391
v 6.295000 5.194750 1.460000
v 6.290000 5.194750 1.465000
v 6.295000 5.199750 1.465000
v 6.292503 5.194750 1.460668
v 6.295000 5.197247 1.460668
v 6.292609 5.197141 1.461317
v 6.290668 5.197247 1.465000
v 6.290668 5.194750 1.462503
v 6.291317 5.197141 1.462609
v 6.295000 5.199082 1.462503
v 6.292503 5.199082 1.465000
v 6.292609 5.198433 1.462609
v 6.295000 5.194750 1.980000
v 6.295000 5.199750 1.975000
v 6.290000 5.194750 1.975000
v 6.295000 5.197247 1.979332
v 6.292503 5.194750 1.979332
v 6.292609 5.197141 1.978683
v 6.292503 5.199082 1.975000
v 6.295000 5.199082 1.977497
v 6.292609 5.198433 1.977391
v 6.290668 5.194750 1.977497
v 6.290668 5.197247 1.975000
v 6.291317 5.197141 1.977391
v 6.705000 5.179750 1.460000
v 6.710000 5.179750 1.465000
v 6.705000 5.174750 1.465000
v 6.707497 5.179750 1.460668
v 6.705000 5.177253 1.460668
v 6.707391 5.177359 1.461317
v 6.709332 5.177253 1.465000
v 6.709332 5.179750 1.462503
v 6.708683 5.177359 1.462609
v 6.705000 5.175418 1.462503
v 6.707497 5.175418 1.465000
v 6.707391 5.176067 1.462609
v 6.705000 5.179750 1.980000
v 6.705000 5.174750 1.975000
v 6.710000 5.179750 1.975000
v 6.705000 5.177253 1.979332
v 6.707497 5.179750 1.979332
v 6.707391 5.177359 1.978683
v 6.707497 5.175418 1.975000
v 6.705000 5.175418 1.977497
v 6.707391 5.176067 1.977391
v 6.709332 5.179750 1.977497
v 6.709332 5.177253 1.975000
v 6.708683 5.177359 1.977391
v 6.705000 5.194750 1.460000
v 6.705000 5.199750 1.465000
v 6.710000 5.194750 1.465000
v 6.705000 5.197247 1.460668
v 6.707497 5.194750 1.460668
v 6.707391 5.197141 1.461317
v 6.707497 5.199082 1.465000
v 6.705000 5.199082 1.462503
v 6.707391 5.198433 1.462609
v 6.709332 5.194750 1.462503
v 6.709332 5.197247 1.465000
v 6.708683 5.197141 1.462609
v 6.705000 5.194750 1.980000
v 6.710000 5.194750 1.975000
v 6.705000 5.199750 1.975000
v 6.707497 5.194750 1.979332
v 6.705000 5.197247 1.979332
v 6.707391 5.197141 1.978683
v 6.709332 5.197247 1.975000
v 6.709332 5.194750 1.977497
v 6.708683 5.197141 1.977391
v 6.705000 5.199082 1.977497
v 6.707497 5.199082 1.975000
v 6.707391 5.198433 1.977391
v 6.320000 5.171250 1.490000
v 6.320000 5.171250 1.950000
v 6.320000 5.183250 1.490000
v 6.320000 5.183250 1.950000
v 6.679999 5.171250 1.490000
v 6.679999 5.171250 1.950000
v 6.679999 5.183250 1.490000
v 6.679999 5.183250 1.950000
v 6.570000 5.173250 1.668000
v 6.570000 5.167250 1.668000
v 6.579576 5.173250 1.666311
v 6.579576 5.167250 1.666311
v 6.587998 5.173250 1.661449
v 6.587998 5.167250 1.661449
v 6.594249 5.173250 1.654000
v 6.594249 5.167250 1.654000
v 6.597574 5.173250 1.644862
v 6.597574 5.167250 1.644862
v 6.597574 5.173250 1.635138
v 6.597574 5.167250 1.635138
v 6.594249 5.173250 1.626000
v 6.594249 5.167250 1.626000
v 6.587998 5.173250 1.618551
v 6.587998 5.167250 1.618551
v 6.579576 5.173250 1.613689
v 6.579576 5.167250 1.613689
v 6.570000 5.173250 1.612000
v 6.570000 5.167250 1.612000
v 6.560423 5.173250 1.613689
v 6.560423 5.167250 1.613689
v 6.552002 5.173250 1.618551
v 6.552002 5.167250 1.618551
v 6.545752 5.173250 1.626000
v 6.545752 5.167250 1.626000
v 6.542425 5.173250 1.635138
v 6.542425 5.167250 1.635138
v 6.542425 5.173250 1.644862
v 6.542425 5.167250 1.644862
v 6.545752 5.173250 1.654000
v 6.545752 5.167250 1.654000
v 6.552002 5.173250 1.661449
v 6.552002 5.167250 1.661449
v 6.560423 5.173250 1.666311
v 6.560423 5.167250 1.666311
v 6.410000 5.166250 1.776000
v 6.410000 5.166250 1.784000
v 6.410000 5.170250 1.776000
v 6.410000 5.170250 1.784000
v 6.570000 5.166250 1.776000
v 6.570000 5.166250 1.784000
v 6.570000 5.170250 1.776000
v 6.570000 5.170250 1.784000
v 6.430000 5.166250 1.741000
v 6.430000 5.166250 1.749000
v 6.430000 5.170250 1.741000
v 6.430000 5.170250 1.749000
v 6.550000 5.166250 1.741000
v 6.550000 5.166250 1.749000
v 6.550000 5.170250 1.741000
v 6.550000 5.170250 1.749000
v 6.410000 5.166250 1.706000
v 6.410000 5.166250 1.714000
v 6.410000 5.170250 1.706000
v 6.410000 5.170250 1.714000
v 6.570000 5.166250 1.706000
v 6.570000 5.166250 1.714000
v 6.570000 5.170250 1.706000
v 6.570000 5.170250 1.714000
v 6.430000 5.166250 1.671000
v 6.430000 5.166250 1.679000
v 6.430000 5.170250 1.671000
v 6.430000 5.170250 1.679000
v 6.550000 5.166250 1.671000
v 6.550000 5.166250 1.679000
v 6.550000 5.170250 1.671000
v 6.550000 5.170250 1.679000
v 7.170000 5.169250 1.550000
v 7.170000 5.169250 1.890000
v 7.170000 5.179250 1.550000
v 7.170000 5.179250 1.890000
v 7.430000 5.169250 1.550000
v 7.430000 5.169250 1.890000
v 7.430000 5.179250 1.550000
v 7.430000 5.179250 1.890000
v 7.095000 5.179750 1.460000
v 7.095000 5.174750 1.465000
v 7.090000 5.179750 1.465000
v 7.095000 5.177253 1.460668
v 7.092504 5.179750 1.460668
v 7.092608 5.177359 1.461317
v 7.092504 5.175418 1.465000
v 7.095000 5.175418 1.462503
v 7.092608 5.176067 1.462609
v 7.090668 5.179750 1.462503
v 7.090668 5.177253 1.465000
v 7.091316 5.177359 1.462609
v 7.095000 5.174750 1.975000
v 7.095000 5.179750 1.980000
v 7.090000 5.179750 1.975000
v 7.095000 5.175418 1.977497
v 7.092504 5.175418 1.975000
v 7.092608 5.176067 1.977391
v 7.092504 5.179750 1.979332
v 7.095000 5.177253 1.979332
v 7.092608 5.177359 1.978683
v 7.090668 5.177253 1.975000
v 7.090668 5.179750 1.977497
v 7.091316 5.177359 1.977391
v 7.095000 5.194750 1.460000
v 7.090000 5.194750 1.465000
v 7.095000 5.199750 1.465000
v 7.092504 5.194750 1.460668
v 7.095000 5.197247 1.460668
v 7.092608 5.197141 1.461317
v 7.090668 5.197247 1.465000
v 7.090668 5.194750 1.462503
v 7.091316 5.197141 1.462609
v 7.095000 5.199082 1.462503
v 7.092504 5.199082 1.465000
v 7.092608 5.198433 1.462609
v 7.095000 5.194750 1.980000
v 7.095000 5.199750 1.975000
v 7.090000 5.194750 1.975000
v 7.095000 5.197247 1.979332
v 7.092504 5.194750 1.979332
v 7.092608 5.197141 1.978683
v 7.092504 5.199082 1.975000
v 7.095000 5.199082 1.977497
v 7.092608 5.198433 1.977391
v 7.090668 5.194750 1.977497
v 7.090668 5.197247 1.975000
v 7.091316 5.197141 1.977391
v 7.505000 5.179750 1.460000
v 7.510000 5.179750 1.465000
v 7.505000 5.174750 1.465000
v 7.507497 5.179750 1.460668
v 7.505000 5.177253 1.460668
v 7.507391 5.177359 1.461317
v 7.509332 5.177253 1.465000
v 7.509332 5.179750 1.462503
v 7.508683 5.177359 1.462609
v 7.505000 5.175418 1.462503
v 7.507497 5.175418 1.465000
v 7.507391 5.176067 1.462609
v 7.505000 5.179750 1.980000
v 7.505000 5.174750 1.975000
v 7.510000 5.179750 1.975000
v 7.505000 5.177253 1.979332
v 7.507497 5.179750 1.979332
v 7.507391 5.177359 1.978683
v 7.507497 5.175418 1.975000
v 7.505000 5.175418 1.977497
v 7.507391 5.176067 1.977391
v 7.509332 5.179750 1.977497
v 7.509332 5.177253 1.975000
v 7.508683 5.177359 1.977391
v 7.505000 5.194750 1.460000
v 7.505000 5.199750 1.465000
v 7.510000 5.194750 1.465000
v 7.505000 5.197247 1.460668
v 7.507497 5.194750 1.460668
v 7.507391 5.197141 1.461317
v 7.507497 5.199082 1.465000
v 7.505000 5.199082 1.462503
v 7.507391 5.198433 1.462609
v 7.509332 5.194750 1.462503
v 7.509332 5.197247 1.465000
v 7.508683 5.197141 1.462609
v 7.505000 5.194750 1.980000
v 7.510000 5.194750 1.975000
v 7.505000 5.199750 1.975000
v 7.507497 5.194750 1.979332
v 7.505000 5.197247 1.979332
v 7.507391 5.197141 1.978683
v 7.509332 5.197247 1.975000
v 7.509332 5.194750 1.977497
v 7.508683 5.197141 1.977391
v 7.505000 5.199082 1.977497
v 7.507497 5.199082 1.975000
v 7.507391 5.198433 1.977391
v 7.120000 5.171250 1.490000
v 7.120000 5.171250 1.950000
v 7.120000 5.183250 1.490000
v 7.120000 5.183250 1.950000
v 7.480000 5.171250 1.490000
v 7.480000 5.171250 1.950000
v 7.480000 5.183250 1.490000
v 7.480000 5.183250 1.950000
v 7.370000 5.173250 1.668000
v 7.370000 5.167250 1.668000
v 7.379577 5.173250 1.666311
v 7.379577 5.167250 1.666311
v 7.387999 5.173250 1.661449
v 7.387999 5.167250 1.661449
v 7.394249 5.173250 1.654000
v 7.394249 5.167250 1.654000
v 7.397574 5.173250 1.644862
v 7.397574 5.167250 1.644862
v 7.397574 5.173250 1.635138
v 7.397574 5.167250 1.635138
v 7.394249 5.173250 1.626000
v 7.394249 5.167250 1.626000
v 7.387999 5.173250 1.618551
v 7.387999 5.167250 1.618551
v 7.379577 5.173250 1.613689
v 7.379577 5.167250 1.613689
v 7.370000 5.173250 1.612000
v 7.370000 5.167250 1.612000
v 7.360423 5.173250 1.613689
v 7.360423 5.167250 1.613689
v 7.352002 5.173250 1.618551
v 7.352002 5.167250 1.618551
v 7.345752 5.173250 1.626000
v 7.345752 5.167250 1.626000
v 7.342425 5.173250 1.635138
v 7.342425 5.167250 1.635138
v 7.342425 5.173250 1.644862
v 7.342425 5.167250 1.644862
v 7.345752 5.173250 1.654000
v 7.345752 5.167250 1.654000
v 7.352002 5.173250 1.661449
v 7.352002 5.167250 1.661449
v 7.360423 5.173250 1.666311
v 7.360423 5.167250 1.666311
v 7.210000 5.166250 1.776000
v 7.210000 5.166250 1.784000
v 7.210000 5.170250 1.776000
v 7.210000 5.170250 1.784000
v 7.370000 5.166250 1.776000
v 7.370000 5.166250 1.784000
v 7.370000 5.170250 1.776000
v 7.370000 5.170250 1.784000
v 7.230000 5.166250 1.741000
v 7.230000 5.166250 1.749000
v 7.230000 5.170250 1.741000
v 7.230000 5.170250 1.749000
v 7.350000 5.166250 1.741000
v 7.350000 5.166250 1.749000
v 7.350000 5.170250 1.741000
v 7.350000 5.170250 1.749000
v 7.210000 5.166250 1.706000
v 7.210000 5.166250 1.714000
v 7.210000 5.170250 1.706000
v 7.210000 5.170250 1.714000
v 7.370000 5.166250 1.706000
v 7.370000 5.166250 1.714000
v 7.370000 5.170250 1.706000
v 7.370000 5.170250 1.714000
v 7.230000 5.166250 1.671000
v 7.230000 5.166250 1.679000
v 7.230000 5.170250 1.671000
v 7.230000 5.170250 1.679000
v 7.350000 5.166250 1.671000
v 7.350000 5.166250 1.679000
v 7.350000 5.170250 1.671000
v 7.350000 5.170250 1.679000
vn -1.0000 -0.0000 -0.0000
vn -0.0000 1.0000 -0.0000
vn 1.0000 -0.0000 -0.0000
vn -0.0000 -1.0000 -0.0000
vn -0.0000 -0.0000 -1.0000
vn -0.0000 -0.0000 1.0000
vn -0.1296 -0.1296 -0.9831
vn -0.1216 -0.4915 -0.8623
vn -0.4473 -0.4474 -0.7745
vn -0.4915 -0.1216 -0.8623
vn -0.1216 -0.8623 -0.4915
vn -0.4473 -0.7745 -0.4473
vn -0.1296 -0.9831 -0.1296
vn -0.4915 -0.8623 -0.1216
vn -0.8623 -0.4915 -0.1216
vn -0.7744 -0.4473 -0.4474
vn -0.9831 -0.1296 -0.1296
vn -0.8623 -0.1215 -0.4916
vn -0.1296 -0.9831 0.1296
vn -0.1216 -0.8623 0.4915
vn -0.4473 -0.7745 0.4473
vn -0.4915 -0.8623 0.1216
vn -0.1216 -0.4915 0.8623
vn -0.4473 -0.4473 0.7745
vn -0.1296 -0.1296 0.9831
vn -0.4915 -0.1215 0.8623
vn -0.8623 -0.1215 0.4916
vn -0.7744 -0.4473 0.4474
vn -0.9831 -0.1296 0.1296
vn -0.8623 -0.4915 0.1216
vn -0.1296 0.1296 -0.9831
vn -0.4915 0.1215 -0.8623
vn -0.4473 0.4473 -0.7745
vn -0.1216 0.4915 -0.8623
vn -0.8623 0.1215 -0.4916
vn -0.7744 0.4473 -0.4474
vn -0.9831 0.1296 -0.1296
vn -0.8623 0.4915 -0.1216
vn -0.4915 0.8623 -0.1216
vn -0.4473 0.7745 -0.4473
vn -0.1296 0.9831 -0.1296
vn -0.1216 0.8623 -0.4915
vn -0.1296 0.1296 0.9831
vn -0.1216 0.4915 0.8623
vn -0.4473 0.4474 0.7745
vn -0.4915 0.1216 0.8623
vn -0.1216 0.8623 0.4915
vn -0.4473 0.7745 0.4473
vn -0.1296 0.9831 0.1296
vn -0.4915 0.8623 0.1216
vn -0.8623 0.4915 0.1216
vn -0.7744 0.4473 0.4474
vn -0.9831 0.1296 0.1296
vn -0.8623 0.1215 0.4916
vn 0.1296 -0.1296 -0.9831
vn 0.4916 -0.1215 -0.8623
vn 0.4474 -0.4473 -0.7745
vn 0.1216 -0.4915 -0.8623
vn 0.8623 -0.1215 -0.4916
vn 0.7745 -0.4473 -0.4473
vn 0.9831 -0.1296 -0.1296
vn 0.8623 -0.4916 -0.1216
vn 0.4916 -0.8623 -0.1216
vn 0.4474 -0.7744 -0.4473
vn 0.1296 -0.9831 -0.1296
vn 0.1215 -0.8623 -0.4915
vn 0.1296 -0.1296 0.9831
vn 0.1216 -0.4915 0.8623
vn 0.4474 -0.4473 0.7744
vn 0.4916 -0.1215 0.8623
vn 0.1215 -0.8623 0.4915
vn 0.4474 -0.7744 0.4473
vn 0.1296 -0.9831 0.1296
vn 0.4916 -0.8623 0.1216
vn 0.8623 -0.4915 0.1216
vn 0.7745 -0.4473 0.4473
vn 0.9831 -0.1296 0.1296
vn 0.8623 -0.1216 0.4916
vn 0.1296 0.1296 -0.9831
vn 0.1216 0.4915 -0.8623
vn 0.4474 0.4473 -0.7745
vn 0.4916 0.1215 -0.8623
vn 0.1215 0.8623 -0.4915
vn 0.4474 0.7744 -0.4473
vn 0.1296 0.9831 -0.1296
vn 0.4916 0.8623 -0.1216
vn 0.8623 0.4915 -0.1216
vn 0.7745 0.4473 -0.4473
vn 0.9831 0.1296 -0.1296
vn 0.8623 0.1216 -0.4916
vn 0.1296 0.1296 0.9831
vn 0.4916 0.1215 0.8623
vn 0.4474 0.4473 0.7745
vn 0.1216 0.4915 0.8623
vn 0.8623 0.1215 0.4916
vn 0.7745 0.4473 0.4473
vn 0.9831 0.1296 0.1296
vn 0.8623 0.4916 0.1216
vn 0.4916 0.8623 0.1216
vn 0.4474 0.7744 0.4473
vn 0.1296 0.9831 0.1296
vn 0.1215 0.8623 0.4915
vn -0.0000 0.6700 0.7423
vn -0.0000 -0.6700 0.7423
vn 0.2539 -0.6700 0.6976
vn 0.2539 0.6700 0.6976
vn 0.4772 -0.6700 0.5687
vn 0.4772 0.6700 0.5687
vn 0.6429 -0.6700 0.3712
vn 0.6429 0.6700 0.3712
vn 0.7311 -0.6700 0.1289
vn 0.7311 0.6700 0.1289
vn 0.7311 -0.6700 -0.1289
vn 0.7311 0.6700 -0.1289
vn 0.6429 -0.6700 -0.3712
vn 0.6429 0.6700 -0.3712
vn 0.4772 -0.6700 -0.5687
vn 0.4772 0.6700 -0.5687
vn 0.2539 -0.6700 -0.6976
vn 0.2539 0.6700 -0.6976
vn -0.0000 -0.6700 -0.7423
vn -0.0000 0.6700 -0.7423
vn -0.2539 -0.6700 -0.6976
vn -0.2539 0.6700 -0.6976
vn -0.4772 -0.6700 -0.5687
vn -0.4772 0.6700 -0.5687
vn -0.6429 -0.6700 -0.3712
vn -0.6429 0.6700 -0.3712
vn -0.7311 -0.6700 -0.1289
vn -0.7311 0.6700 -0.1289
vn -0.7311 -0.6700 0.1289
vn -0.7311 0.6700 0.1289
vn -0.6429 -0.6700 0.3712
vn -0.6429 0.6700 0.3712
vn -0.4772 -0.6700 0.5687
vn -0.4772 0.6700 0.5687
vn -0.2539 -0.6700 0.6976
vn -0.2539 0.6700 0.6976
vn -0.4473 -0.4473 -0.7745
vn -0.4915 -0.1215 -0.8624
vn -0.4915 -0.8624 -0.1216
vn -0.9831 -0.1295 -0.1295
vn -0.4915 -0.8624 0.1216
vn -0.4915 -0.1215 0.8624
vn -0.9831 -0.1295 0.1295
vn -0.4915 0.1215 -0.8624
vn -0.9831 0.1295 -0.1295
vn -0.4915 0.8624 -0.1216
vn -0.4473 0.4473 0.7745
vn -0.4915 0.1215 0.8624
vn -0.4915 0.8624 0.1216
vn -0.9831 0.1295 0.1295
vn 0.4916 -0.1216 -0.8623
vn 0.8623 -0.1216 -0.4916
vn 0.7745 -0.4473 -0.4474
vn 0.9830 -0.1297 -0.1296
vn 0.4474 -0.7744 -0.4474
vn 0.1216 -0.8623 -0.4915
vn 0.4474 -0.4473 0.7745
vn 0.4916 -0.1216 0.8623
vn 0.1216 -0.8623 0.4915
vn 0.4474 -0.7744 0.4474
vn 0.8623 -0.4916 0.1216
vn 0.7745 -0.4473 0.4474
vn 0.9830 -0.1297 0.1296
vn 0.4916 0.1216 -0.8623
vn 0.1216 0.8623 -0.4915
vn 0.4474 0.7744 -0.4474
vn 0.8623 0.4916 -0.1216
vn 0.7745 0.4473 -0.4474
vn 0.9830 0.1297 -0.1296
vn 0.4916 0.1216 0.8623
vn 0.8623 0.1216 0.4916
vn 0.7745 0.4473 0.4474
vn 0.9830 0.1297 0.1296
vn 0.4474 0.7744 0.4474
vn 0.1216 0.8623 0.4915
vn 0.6429 -0.6700 0.3711
vn 0.6429 0.6700 0.3711
vn 0.7310 -0.6700 0.1289
vn 0.7310 0.6700 0.1289
vn 0.7310 -0.6700 -0.1289
vn 0.7310 0.6700 -0.1289
vn 0.6429 -0.6700 -0.3711
vn 0.6429 0.6700 -0.3711
vn -0.4772 -0.6700 -0.5686
vn -0.4772 0.6700 -0.5686
vn -0.4772 -0.6700 0.5686
vn -0.4772 0.6700 0.5686
vn -0.1216 -0.8623 -0.4916
vn -0.4474 -0.7744 -0.4474
vn -0.8623 -0.4915 -0.1215
vn -0.7745 -0.4473 -0.4473
vn -0.1216 -0.8623 0.4916
vn -0.4473 -0.7744 0.4474
vn -0.4915 -0.1216 0.8623
vn -0.7745 -0.4473 0.4473
vn -0.8623 -0.4915 0.1215
vn -0.4915 0.1216 -0.8623
vn -0.7745 0.4473 -0.4473
vn -0.8623 0.4915 -0.1215
vn -0.4473 0.7744 -0.4474
vn -0.1216 0.8623 -0.4916
vn -0.1216 0.8623 0.4916
vn -0.4473 0.7744 0.4474
vn -0.8623 0.4915 0.1215
vn -0.7745 0.4473 0.4473
vn 0.4915 -0.1216 -0.8623
vn 0.4474 -0.4473 -0.7744
vn 0.7744 -0.4474 -0.4473
vn 0.4915 -0.8623 -0.1216
vn 0.4473 -0.7744 -0.4474
vn 0.1216 -0.8623 -0.4916
vn 0.1216 -0.8623 0.4916
vn 0.4473 -0.7745 0.4473
vn 0.4915 -0.8623 0.1216
vn 0.7744 -0.4474 0.4473
vn 0.8623 -0.1215 0.4916
vn 0.4474 0.4473 -0.7744
vn 0.4915 0.1216 -0.8623
vn 0.1216 0.8623 -0.4916
vn 0.4473 0.7744 -0.4473
vn 0.4915 0.8623 -0.1216
vn 0.7744 0.4474 -0.4473
vn 0.8623 0.1215 -0.4916
vn 0.4915 0.1216 0.8623
vn 0.4474 0.4473 0.7744
vn 0.7744 0.4474 0.4473
vn 0.4915 0.8623 0.1216
vn 0.4473 0.7744 0.4474
vn 0.1216 0.8623 0.4916
vt 0.638696 0.925057
vt 0.638696 0.761000
vt 0.643521 0.761000
vt 0.643521 0.925057
vt 0.745950 0.691737
vt 0.745950 0.527681
vt 0.871406 0.527681
vt 0.871406 0.691737
vt 0.654882 0.925057
vt 0.654882 0.761000
vt 0.659707 0.761000
vt 0.659707 0.925057
vt 0.745950 0.867155
vt 0.745950 0.703098
vt 0.871406 0.703098
vt 0.871406 0.867155
vt 0.933149 0.761000
vt 0.933149 0.886456
vt 0.928323 0.886456
vt 0.928323 0.761000
vt 0.949334 0.761000
vt 0.949334 0.886456
vt 0.944509 0.886456
vt 0.944509 0.761000
vt 0.884856 0.529771
vt 0.883651 0.529771
vt 0.883703 0.528617
vt 0.884856 0.528566
vt 0.882766 0.529771
vt 0.883079 0.528617
vt 0.205604 0.253543
vt 0.206808 0.253543
vt 0.206757 0.254697
vt 0.205604 0.254748
vt 0.207694 0.253543
vt 0.207381 0.254697
vt 0.831190 0.514596
vt 0.831190 0.515801
vt 0.830036 0.515750
vt 0.829985 0.514596
vt 0.884856 0.527680
vt 0.883703 0.527994
vt 0.206757 0.255320
vt 0.205604 0.007457
vt 0.205604 0.006253
vt 0.206757 0.006304
vt 0.206808 0.007457
vt 0.893008 0.467230
vt 0.893893 0.467230
vt 0.893944 0.468384
vt 0.893321 0.468384
vt 0.895098 0.467230
vt 0.895098 0.468435
vt 0.895098 0.469320
vt 0.893944 0.469007
vt 0.831190 0.268511
vt 0.829985 0.268511
vt 0.830036 0.267357
vt 0.831190 0.267306
vt 0.207694 0.007457
vt 0.207381 0.006304
vt 0.206757 0.005680
vt 0.892094 0.529771
vt 0.892094 0.528566
vt 0.893248 0.528617
vt 0.893299 0.529771
vt 0.892094 0.527680
vt 0.893248 0.527994
vt 0.838428 0.514596
vt 0.839632 0.514596
vt 0.839581 0.515750
vt 0.838428 0.515801
vt 0.219054 0.253543
vt 0.219940 0.253543
vt 0.219991 0.254697
vt 0.219367 0.254697
vt 0.221145 0.253543
vt 0.221145 0.254748
vt 0.894184 0.529771
vt 0.893871 0.528617
vt 0.219991 0.255320
vt 0.902336 0.467230
vt 0.903540 0.467230
vt 0.903489 0.468384
vt 0.902336 0.468435
vt 0.904426 0.467230
vt 0.904113 0.468384
vt 0.221145 0.007457
vt 0.219940 0.007457
vt 0.219991 0.006304
vt 0.221145 0.006253
vt 0.219054 0.007457
vt 0.219367 0.006304
vt 0.838428 0.268511
vt 0.838428 0.267306
vt 0.839581 0.267357
vt 0.839632 0.268511
vt 0.902336 0.469320
vt 0.903489 0.469007
vt 0.219991 0.005680
vt 0.884856 0.727604
vt 0.884856 0.728809
vt 0.883702 0.728758
vt 0.883651 0.727604
vt 0.839313 0.255946
vt 0.839313 0.255060
vt 0.840467 0.255010
vt 0.840467 0.255633
vt 0.839313 0.253856
vt 0.840518 0.253856
vt 0.841403 0.253856
vt 0.841090 0.255010
vt 0.007770 0.253543
vt 0.007770 0.254748
vt 0.006617 0.254697
vt 0.006566 0.253543
vt 0.882766 0.727604
vt 0.883079 0.728758
vt 0.895098 0.269397
vt 0.893893 0.269397
vt 0.893944 0.268243
vt 0.895098 0.268192
vt 0.893008 0.269397
vt 0.893321 0.268243
vt 0.007770 0.007457
vt 0.006566 0.007457
vt 0.006617 0.006304
vt 0.007770 0.006253
vt 0.841403 0.007770
vt 0.840518 0.007770
vt 0.840467 0.006617
vt 0.841090 0.006617
vt 0.839313 0.007770
vt 0.839313 0.006566
vt 0.839313 0.005680
vt 0.840467 0.005993
vt 0.892094 0.727604
vt 0.893299 0.727604
vt 0.893248 0.728758
vt 0.892094 0.728809
vt 0.894184 0.727604
vt 0.893871 0.728758
vt 0.418978 0.253543
vt 0.420183 0.253543
vt 0.420132 0.254697
vt 0.418978 0.254748
vt 0.829985 0.253856
vt 0.830871 0.253856
vt 0.830922 0.255010
vt 0.830298 0.255010
vt 0.832075 0.253856
vt 0.832075 0.255060
vt 0.832075 0.255946
vt 0.830922 0.255633
vt 0.902336 0.269397
vt 0.902336 0.268192
vt 0.903490 0.268243
vt 0.903540 0.269397
vt 0.832075 0.005680
vt 0.832075 0.006566
vt 0.830922 0.006617
vt 0.830922 0.005993
vt 0.832075 0.007770
vt 0.830871 0.007770
vt 0.829985 0.007770
vt 0.830298 0.006617
vt 0.418978 0.007457
vt 0.418978 0.006253
vt 0.420132 0.006304
vt 0.420183 0.007457
vt 0.904426 0.269397
vt 0.904113 0.268243
vt 0.421068 0.007457
vt 0.421068 0.253543
vt 0.892094 0.729694
vt 0.884856 0.729694
vt 0.895098 0.267306
vt 0.902336 0.267306
vt 0.005680 0.253543
vt 0.005680 0.007457
vt 0.928323 0.749640
vt 0.928323 0.527681
vt 0.934114 0.527681
vt 0.934114 0.749640
vt 0.005680 0.749640
vt 0.005680 0.527681
vt 0.179387 0.527681
vt 0.179387 0.749640
vt 0.938565 0.489266
vt 0.938565 0.267306
vt 0.944355 0.267306
vt 0.944355 0.489266
vt 0.190748 0.749640
vt 0.190748 0.527681
vt 0.364455 0.527681
vt 0.364455 0.749640
vt 0.911335 0.741055
vt 0.911335 0.914762
vt 0.905545 0.914762
vt 0.905545 0.741055
vt 0.558733 0.761000
vt 0.558733 0.934707
vt 0.552943 0.934707
vt 0.552943 0.761000
vt 0.924414 0.489365
vt 0.921519 0.489365
vt 0.921519 0.484744
vt 0.924414 0.484744
vt 0.921519 0.480681
vt 0.924414 0.480681
vt 0.796801 0.472320
vt 0.799697 0.472320
vt 0.799697 0.475914
vt 0.796801 0.475914
vt 0.799697 0.480323
vt 0.796801 0.480323
vt 0.799697 0.485015
vt 0.796801 0.485015
vt 0.799697 0.489425
vt 0.796801 0.489425
vt 0.799697 0.493019
vt 0.796801 0.493019
vt 0.929727 0.236423
vt 0.926832 0.236423
vt 0.926832 0.232360
vt 0.929727 0.232360
vt 0.926832 0.227739
vt 0.929727 0.227739
vt 0.926832 0.223118
vt 0.929727 0.223118
vt 0.926832 0.219054
vt 0.929727 0.219054
vt 0.901216 0.239754
vt 0.898321 0.239754
vt 0.898321 0.236159
vt 0.901216 0.236159
vt 0.898321 0.231750
vt 0.901216 0.231750
vt 0.898321 0.227058
vt 0.901216 0.227058
vt 0.898321 0.222649
vt 0.901216 0.222649
vt 0.898321 0.219054
vt 0.901216 0.219054
vt 0.729544 0.473134
vt 0.734165 0.472320
vt 0.738786 0.473134
vt 0.742849 0.475480
vt 0.745865 0.479075
vt 0.747470 0.483484
vt 0.747470 0.488176
vt 0.745865 0.492586
vt 0.742849 0.496180
vt 0.738786 0.498526
vt 0.734165 0.499341
vt 0.729544 0.498526
vt 0.725480 0.496180
vt 0.722465 0.492586
vt 0.720860 0.488176
vt 0.720860 0.483484
vt 0.722465 0.479075
vt 0.725480 0.475480
vt 0.924414 0.498050
vt 0.921519 0.498050
vt 0.921519 0.493986
vt 0.924414 0.493986
vt 0.772136 0.472320
vt 0.776757 0.473134
vt 0.780820 0.475480
vt 0.783836 0.479075
vt 0.785441 0.483484
vt 0.785441 0.488176
vt 0.783836 0.492586
vt 0.780820 0.496180
vt 0.776757 0.498526
vt 0.772136 0.499341
vt 0.767515 0.498526
vt 0.763451 0.496180
vt 0.760435 0.492586
vt 0.758831 0.488176
vt 0.758831 0.483484
vt 0.760435 0.479075
vt 0.763451 0.475480
vt 0.767515 0.473134
vt 0.644918 0.514561
vt 0.644918 0.510701
vt 0.646848 0.510701
vt 0.646848 0.514561
vt 0.825752 0.955718
vt 0.821892 0.955718
vt 0.821892 0.878515
vt 0.825752 0.878515
vt 0.658208 0.514561
vt 0.658208 0.510701
vt 0.660138 0.510701
vt 0.660138 0.514561
vt 0.840973 0.955718
vt 0.837113 0.955718
vt 0.837113 0.878515
vt 0.840973 0.878515
vt 0.869484 0.878515
vt 0.869484 0.955718
vt 0.867554 0.955718
vt 0.867554 0.878515
vt 0.979145 0.005680
vt 0.979145 0.082883
vt 0.977215 0.082883
vt 0.977215 0.005680
vt 0.671498 0.514561
vt 0.671498 0.510701
vt 0.673429 0.510701
vt 0.673429 0.514561
vt 0.749810 0.974798
vt 0.745950 0.974798
vt 0.745950 0.916896
vt 0.749810 0.916896
vt 0.684789 0.514561
vt 0.684789 0.510701
vt 0.686719 0.510701
vt 0.686719 0.514561
vt 0.765031 0.974798
vt 0.761171 0.974798
vt 0.761171 0.916896
vt 0.765031 0.916896
vt 0.131136 0.936417
vt 0.131136 0.994320
vt 0.129205 0.994320
vt 0.129205 0.936417
vt 0.098933 0.936417
vt 0.098933 0.994320
vt 0.097003 0.994320
vt 0.097003 0.936417
vt 0.698079 0.514561
vt 0.698079 0.510701
vt 0.700009 0.510701
vt 0.700009 0.514561
vt 0.856193 0.955718
vt 0.852333 0.955718
vt 0.852333 0.878515
vt 0.856193 0.878515
vt 0.732660 0.516320
vt 0.732660 0.512460
vt 0.734590 0.512460
vt 0.734590 0.516320
vt 0.964889 0.219699
vt 0.961029 0.219699
vt 0.961029 0.142496
vt 0.964889 0.142496
vt 0.979775 0.664496
vt 0.979775 0.741699
vt 0.977845 0.741699
vt 0.977845 0.664496
vt 0.980740 0.527681
vt 0.980740 0.604884
vt 0.978810 0.604884
vt 0.978810 0.527681
vt 0.719369 0.516320
vt 0.719369 0.512460
vt 0.721299 0.512460
vt 0.721299 0.516320
vt 0.787781 0.974798
vt 0.783921 0.974798
vt 0.783921 0.916896
vt 0.787781 0.916896
vt 0.745950 0.516320
vt 0.745950 0.512460
vt 0.747880 0.512460
vt 0.747880 0.516320
vt 0.810532 0.974798
vt 0.806672 0.974798
vt 0.806672 0.916896
vt 0.810532 0.916896
vt 0.117845 0.936417
vt 0.117845 0.994320
vt 0.115915 0.994320
vt 0.115915 0.936417
vt 0.159646 0.936417
vt 0.159646 0.994320
vt 0.157716 0.994320
vt 0.157716 0.936417
vt 0.719624 0.925057
vt 0.719624 0.761000
vt 0.724449 0.761000
vt 0.724449 0.925057
vt 0.005680 0.925057
vt 0.005680 0.761000
vt 0.131135 0.761000
vt 0.131135 0.925057
vt 0.671067 0.925057
vt 0.671067 0.761000
vt 0.675892 0.761000
vt 0.675892 0.925057
vt 0.142496 0.925057
vt 0.142496 0.761000
vt 0.267951 0.761000
vt 0.267951 0.925057
vt 0.965520 0.761000
vt 0.965520 0.886456
vt 0.960694 0.886456
vt 0.960694 0.761000
vt 0.965855 0.005680
vt 0.965855 0.131136
vt 0.961029 0.131136
vt 0.961029 0.005680
vt 0.917877 0.269397
vt 0.916672 0.269397
vt 0.916723 0.268243
vt 0.917877 0.268192
vt 0.915786 0.269397
vt 0.916099 0.268243
vt 0.631467 0.253543
vt 0.632671 0.253543
vt 0.632621 0.254697
vt 0.631467 0.254748
vt 0.633557 0.253543
vt 0.633244 0.254697
vt 0.852197 0.514596
vt 0.852197 0.515801
vt 0.851044 0.515750
vt 0.850993 0.514596
vt 0.917877 0.267306
vt 0.916723 0.267620
vt 0.632621 0.255320
vt 0.631467 0.007457
vt 0.631467 0.006253
vt 0.632621 0.006304
vt 0.632671 0.007457
vt 0.921100 0.204718
vt 0.921986 0.204718
vt 0.922037 0.205872
vt 0.921413 0.205872
vt 0.923190 0.204718
vt 0.923190 0.205923
vt 0.923190 0.206809
vt 0.922037 0.206496
vt 0.852197 0.268511
vt 0.850993 0.268511
vt 0.851044 0.267357
vt 0.852197 0.267306
vt 0.633557 0.007457
vt 0.633244 0.006304
vt 0.632621 0.005680
vt 0.925115 0.269397
vt 0.925115 0.268192
vt 0.926268 0.268243
vt 0.926319 0.269397
vt 0.925115 0.267306
vt 0.926268 0.267620
vt 0.859435 0.514596
vt 0.860640 0.514596
vt 0.860589 0.515750
vt 0.859435 0.515801
vt 0.432429 0.514543
vt 0.433314 0.514543
vt 0.433365 0.515697
vt 0.432742 0.515697
vt 0.434519 0.514543
vt 0.434519 0.515748
vt 0.927205 0.269397
vt 0.926892 0.268243
vt 0.433365 0.516320
vt 0.930428 0.204718
vt 0.931633 0.204718
vt 0.931582 0.205872
vt 0.930428 0.205923
vt 0.932518 0.204718
vt 0.932205 0.205872
vt 0.434519 0.268458
vt 0.433314 0.268458
vt 0.433365 0.267304
vt 0.434519 0.267253
vt 0.432429 0.268458
vt 0.432742 0.267304
vt 0.859435 0.268511
vt 0.859435 0.267306
vt 0.860589 0.267357
vt 0.860640 0.268511
vt 0.930428 0.206809
vt 0.931582 0.206496
vt 0.433365 0.266680
vt 0.917877 0.467230
vt 0.917877 0.468435
vt 0.916723 0.468384
vt 0.916672 0.467230
vt 0.862092 0.255946
vt 0.862092 0.255060
vt 0.863246 0.255010
vt 0.863246 0.255633
vt 0.862092 0.253856
vt 0.863297 0.253856
vt 0.864182 0.253856
vt 0.863869 0.255010
vt 0.433633 0.253543
vt 0.433633 0.254748
vt 0.432480 0.254697
vt 0.432429 0.253543
vt 0.915786 0.467230
vt 0.916099 0.468384
vt 0.904809 0.513622
vt 0.904809 0.512740
vt 0.905250 0.513181
vt 0.923190 0.006885
vt 0.921986 0.006885
vt 0.922037 0.005731
vt 0.923190 0.005680
vt 0.921100 0.006885
vt 0.921413 0.005731
vt 0.433633 0.007457
vt 0.432429 0.007457
vt 0.432480 0.006304
vt 0.433633 0.006253
vt 0.864182 0.007770
vt 0.863297 0.007770
vt 0.863246 0.006617
vt 0.863869 0.006617
vt 0.862092 0.007770
vt 0.862092 0.006566
vt 0.862092 0.005680
vt 0.863246 0.005993
vt 0.893008 0.512740
vt 0.893449 0.513181
vt 0.893008 0.513622
vt 0.925115 0.467230
vt 0.926319 0.467230
vt 0.926268 0.468384
vt 0.925115 0.468435
vt 0.927205 0.467230
vt 0.926892 0.468384
vt 0.632352 0.514543
vt 0.633557 0.514543
vt 0.633506 0.515697
vt 0.632352 0.515748
vt 0.852764 0.253856
vt 0.853649 0.253856
vt 0.853700 0.255010
vt 0.853077 0.255010
vt 0.854854 0.253856
vt 0.854854 0.255060
vt 0.854854 0.255946
vt 0.853700 0.255633
vt 0.401245 0.937299
vt 0.400804 0.936858
vt 0.401245 0.936418
vt 0.930428 0.006885
vt 0.930428 0.005680
vt 0.931582 0.005731
vt 0.931633 0.006885
vt 0.854854 0.005680
vt 0.854854 0.006566
vt 0.853700 0.006617
vt 0.853700 0.005993
vt 0.854854 0.007770
vt 0.853649 0.007770
vt 0.852764 0.007770
vt 0.853077 0.006617
vt 0.632352 0.268458
vt 0.632352 0.267253
vt 0.633506 0.267304
vt 0.633557 0.268458
vt 0.932518 0.006885
vt 0.932205 0.005731
vt 0.413046 0.936417
vt 0.413046 0.937299
vt 0.412605 0.936858
vt 0.943879 0.227640
vt 0.943879 0.005680
vt 0.949669 0.005680
vt 0.949669 0.227640
vt 0.375815 0.749640
vt 0.375815 0.527681
vt 0.549522 0.527681
vt 0.549522 0.749640
vt 0.945474 0.749640
vt 0.945474 0.527681
vt 0.951264 0.527681
vt 0.951264 0.749640
vt 0.560883 0.749640
vt 0.560883 0.527681
vt 0.734590 0.527681
vt 0.734590 0.749640
vt 0.575884 0.761000
vt 0.575884 0.934707
vt 0.570094 0.934707
vt 0.570094 0.761000
vt 0.593035 0.761000
vt 0.593035 0.934707
vt 0.587244 0.934707
vt 0.587244 0.761000
vt 0.280225 0.945102
vt 0.277330 0.945102
vt 0.277330 0.940481
vt 0.280225 0.940481
vt 0.277330 0.936417
vt 0.280225 0.936417
vt 0.811057 0.472320
vt 0.813952 0.472320
vt 0.813952 0.475914
vt 0.811057 0.475914
vt 0.813952 0.480323
vt 0.811057 0.480323
vt 0.813952 0.485015
vt 0.811057 0.485015
vt 0.813952 0.489425
vt 0.811057 0.489425
vt 0.813952 0.493019
vt 0.811057 0.493019
vt 0.294481 0.953786
vt 0.291586 0.953786
vt 0.291586 0.949723
vt 0.294481 0.949723
vt 0.291586 0.945102
vt 0.294481 0.945102
vt 0.291586 0.940481
vt 0.294481 0.940481
vt 0.291586 0.936417
vt 0.294481 0.936417
vt 0.910158 0.501380
vt 0.907263 0.501380
vt 0.907263 0.497786
vt 0.910158 0.497786
vt 0.907263 0.493377
vt 0.910158 0.493377
vt 0.907263 0.488684
vt 0.910158 0.488684
vt 0.907263 0.484275
vt 0.910158 0.484275
vt 0.907263 0.480681
vt 0.910158 0.480681
vt 0.644918 0.488176
vt 0.644918 0.483484
vt 0.646523 0.479075
vt 0.649539 0.475481
vt 0.653602 0.473135
vt 0.658223 0.472320
vt 0.662844 0.473134
vt 0.666907 0.475481
vt 0.669923 0.479075
vt 0.671528 0.483484
vt 0.671528 0.488176
vt 0.669924 0.492585
vt 0.666907 0.496180
vt 0.662844 0.498526
vt 0.658223 0.499341
vt 0.653602 0.498526
vt 0.649539 0.496180
vt 0.646523 0.492586
vt 0.280225 0.953786
vt 0.277330 0.953786
vt 0.277330 0.949723
vt 0.280225 0.949723
vt 0.709499 0.483484
vt 0.709499 0.488176
vt 0.707895 0.492586
vt 0.704878 0.496180
vt 0.700815 0.498526
vt 0.696194 0.499341
vt 0.691573 0.498526
vt 0.687510 0.496180
vt 0.684493 0.492586
vt 0.682889 0.488176
vt 0.682889 0.483484
vt 0.684494 0.479075
vt 0.687510 0.475481
vt 0.691573 0.473134
vt 0.696194 0.472320
vt 0.700815 0.473135
vt 0.704879 0.475481
vt 0.707895 0.479075
vt 0.759241 0.516320
vt 0.759241 0.512460
vt 0.761171 0.512460
vt 0.761171 0.516320
vt 0.966485 0.741699
vt 0.962624 0.741699
vt 0.962624 0.664496
vt 0.966485 0.664496
vt 0.772531 0.516320
vt 0.772531 0.512460
vt 0.774461 0.512460
vt 0.774461 0.516320
vt 0.964554 0.975019
vt 0.960694 0.975019
vt 0.960694 0.897816
vt 0.964554 0.897816
vt 0.990017 0.404122
vt 0.990017 0.481325
vt 0.988087 0.481325
vt 0.988087 0.404122
vt 0.990982 0.267306
vt 0.990982 0.344510
vt 0.989052 0.344510
vt 0.989052 0.267306
vt 0.785822 0.516320
vt 0.785822 0.512460
vt 0.787752 0.512460
vt 0.787752 0.516320
vt 0.911335 0.984024
vt 0.907475 0.984024
vt 0.907475 0.926122
vt 0.911335 0.926122
vt 0.799112 0.516320
vt 0.799112 0.512460
vt 0.801042 0.512460
vt 0.801042 0.516320
vt 0.009540 0.994320
vt 0.005680 0.994320
vt 0.005680 0.936417
vt 0.009540 0.936417
vt 0.172937 0.936417
vt 0.172937 0.994320
vt 0.171007 0.994320
vt 0.171007 0.936417
vt 0.186227 0.936417
vt 0.186227 0.994320
vt 0.184297 0.994320
vt 0.184297 0.936417
vt 0.812402 0.516320
vt 0.812402 0.512460
vt 0.814332 0.512460
vt 0.814332 0.516320
vt 0.949334 0.975019
vt 0.945474 0.975019
vt 0.945474 0.897816
vt 0.949334 0.897816
vt 0.898321 0.254974
vt 0.898321 0.251114
vt 0.900251 0.251114
vt 0.900251 0.254974
vt 0.932183 0.975019
vt 0.928323 0.975019
vt 0.928323 0.897816
vt 0.932183 0.897816
vt 0.992435 0.005680
vt 0.992435 0.082883
vt 0.990505 0.082883
vt 0.990505 0.005680
vt 0.993065 0.664496
vt 0.993065 0.741700
vt 0.991135 0.741700
vt 0.991135 0.664496
vt 0.911612 0.254974
vt 0.911612 0.251114
vt 0.913542 0.251114
vt 0.913542 0.254974
vt 0.024761 0.994320
vt 0.020901 0.994320
vt 0.020901 0.936417
vt 0.024761 0.936417
vt 0.921519 0.513270
vt 0.921519 0.509410
vt 0.923449 0.509410
vt 0.923449 0.513270
vt 0.039981 0.994320
vt 0.036121 0.994320
vt 0.036121 0.936417
vt 0.039981 0.936417
vt 0.199518 0.936417
vt 0.199518 0.994320
vt 0.197588 0.994320
vt 0.197588 0.936417
vt 0.212808 0.936417
vt 0.212808 0.994320
vt 0.210878 0.994320
vt 0.210878 0.936417
vt 0.687253 0.925057
vt 0.687253 0.761000
vt 0.692078 0.761000
vt 0.692078 0.925057
vt 0.279312 0.925057
vt 0.279312 0.761000
vt 0.404767 0.761000
vt 0.404767 0.925057
vt 0.703438 0.925057
vt 0.703438 0.761000
vt 0.708263 0.761000
vt 0.708263 0.925057
vt 0.416127 0.925057
vt 0.416127 0.761000
vt 0.541583 0.761000
vt 0.541583 0.925057
vt 0.967450 0.527681
vt 0.967450 0.653136
vt 0.962625 0.653136
vt 0.962625 0.527681
vt 0.977691 0.267306
vt 0.977691 0.392762
vt 0.972866 0.392762
vt 0.972866 0.267306
vt 0.900412 0.007770
vt 0.899207 0.007770
vt 0.899258 0.006617
vt 0.900412 0.006566
vt 0.898321 0.007770
vt 0.898634 0.006617
vt 0.205604 0.514543
vt 0.206808 0.514543
vt 0.206758 0.515697
vt 0.205604 0.515748
vt 0.207694 0.514543
vt 0.207381 0.515697
vt 0.873205 0.514596
vt 0.873205 0.515801
vt 0.872051 0.515750
vt 0.872000 0.514596
vt 0.900412 0.005680
vt 0.899258 0.005993
vt 0.206758 0.516320
vt 0.205604 0.268458
vt 0.205604 0.267253
vt 0.206758 0.267304
vt 0.206808 0.268458
vt 0.905545 0.727604
vt 0.906430 0.727604
vt 0.906481 0.728758
vt 0.905858 0.728758
vt 0.907635 0.727604
vt 0.907635 0.728809
vt 0.907635 0.729694
vt 0.906481 0.729382
vt 0.873205 0.268511
vt 0.872000 0.268511
vt 0.872051 0.267357
vt 0.873205 0.267306
vt 0.207694 0.268458
vt 0.207381 0.267304
vt 0.206758 0.266680
vt 0.907649 0.007770
vt 0.907649 0.006566
vt 0.908803 0.006617
vt 0.908854 0.007770
vt 0.907649 0.005680
vt 0.908803 0.005993
vt 0.880443 0.514596
vt 0.881647 0.514596
vt 0.881596 0.515750
vt 0.880443 0.515801
vt 0.219054 0.514543
vt 0.219940 0.514543
vt 0.219991 0.515697
vt 0.219367 0.515697
vt 0.221145 0.514543
vt 0.221145 0.515748
vt 0.909740 0.007770
vt 0.909427 0.006617
vt 0.219991 0.516320
vt 0.914873 0.727604
vt 0.916077 0.727604
vt 0.916026 0.728758
vt 0.914873 0.728809
vt 0.916963 0.727604
vt 0.916650 0.728758
vt 0.221145 0.268458
vt 0.219940 0.268458
vt 0.219991 0.267304
vt 0.221145 0.267253
vt 0.219054 0.268458
vt 0.219367 0.267304
vt 0.880443 0.268511
vt 0.880443 0.267306
vt 0.881596 0.267357
vt 0.881647 0.268511
vt 0.914873 0.729694
vt 0.916026 0.729382
vt 0.219991 0.266680
vt 0.900412 0.205604
vt 0.900412 0.206808
vt 0.899258 0.206758
vt 0.899207 0.205604
vt 0.884871 0.255946
vt 0.884871 0.255060
vt 0.886024 0.255010
vt 0.886024 0.255633
vt 0.884871 0.253856
vt 0.886075 0.253856
vt 0.886961 0.253856
vt 0.886648 0.255010
vt 0.007770 0.514543
vt 0.007770 0.515748
vt 0.006617 0.515697
vt 0.006566 0.514543
vt 0.898321 0.205604
vt 0.898634 0.206758
vt 0.907635 0.529771
vt 0.906430 0.529771
vt 0.906481 0.528617
vt 0.907635 0.528566
vt 0.905545 0.529771
vt 0.905858 0.528617
vt 0.007770 0.268458
vt 0.006566 0.268458
vt 0.006617 0.267304
vt 0.007770 0.267253
vt 0.886961 0.007770
vt 0.886075 0.007770
vt 0.886024 0.006617
vt 0.886648 0.006617
vt 0.884871 0.007770
vt 0.884871 0.006566
vt 0.884871 0.005680
vt 0.886024 0.005993
vt 0.907649 0.205604
vt 0.908854 0.205604
vt 0.908803 0.206758
vt 0.907649 0.206808
vt 0.909740 0.205604
vt 0.909427 0.206758
vt 0.418978 0.514543
vt 0.420183 0.514543
vt 0.420132 0.515697
vt 0.418978 0.515748
vt 0.875543 0.253856
vt 0.876428 0.253856
vt 0.876479 0.255010
vt 0.875856 0.255010
vt 0.877633 0.253856
vt 0.877633 0.255060
vt 0.877633 0.255946
vt 0.876479 0.255633
vt 0.914873 0.529771
vt 0.914873 0.528566
vt 0.916026 0.528617
vt 0.916077 0.529771
vt 0.877633 0.005680
vt 0.877633 0.006566
vt 0.876479 0.006617
vt 0.876479 0.005993
vt 0.877633 0.007770
vt 0.876428 0.007770
vt 0.875543 0.007770
vt 0.875856 0.006617
vt 0.418978 0.268458
vt 0.418978 0.267253
vt 0.420132 0.267304
vt 0.420183 0.268458
vt 0.916963 0.529771
vt 0.916650 0.528617
vt 0.421068 0.268458
vt 0.421068 0.514543
vt 0.907649 0.207694
vt 0.900412 0.207694
vt 0.907635 0.527681
vt 0.914873 0.527681
vt 0.005680 0.514543
vt 0.005680 0.268458
vt 0.955716 0.489266
vt 0.955716 0.267306
vt 0.961506 0.267306
vt 0.961506 0.489266
vt 0.644918 0.227640
vt 0.644918 0.005680
vt 0.818625 0.005680
vt 0.818625 0.227640
vt 0.882766 0.963014
vt 0.882766 0.741055
vt 0.888556 0.741055
vt 0.888556 0.963014
vt 0.644918 0.460959
vt 0.644918 0.239000
vt 0.818625 0.239000
vt 0.818625 0.460959
vt 0.610185 0.761000
vt 0.610185 0.934707
vt 0.604395 0.934707
vt 0.604395 0.761000
vt 0.627336 0.761000
vt 0.627336 0.934707
vt 0.621546 0.934707
vt 0.621546 0.761000
vt 0.308736 0.945102
vt 0.305841 0.945102
vt 0.305841 0.940481
vt 0.308736 0.940481
vt 0.305841 0.936417
vt 0.308736 0.936417
vt 0.893008 0.480681
vt 0.895903 0.480681
vt 0.895903 0.484275
vt 0.893008 0.484275
vt 0.895903 0.488684
vt 0.893008 0.488684
vt 0.895903 0.493376
vt 0.893008 0.493376
vt 0.895903 0.497786
vt 0.893008 0.497786
vt 0.895903 0.501380
vt 0.893008 0.501380
vt 0.322992 0.953786
vt 0.320097 0.953786
vt 0.320097 0.949723
vt 0.322992 0.949723
vt 0.320097 0.945102
vt 0.322992 0.945102
vt 0.320097 0.940481
vt 0.322992 0.940481
vt 0.320097 0.936417
vt 0.322992 0.936417
vt 0.915472 0.239754
vt 0.912577 0.239754
vt 0.912577 0.236159
vt 0.915472 0.236159
vt 0.912577 0.231750
vt 0.915472 0.231750
vt 0.912577 0.227058
vt 0.915472 0.227058
vt 0.912577 0.222649
vt 0.915472 0.222649
vt 0.912577 0.219054
vt 0.915472 0.219054
vt 0.745950 0.889679
vt 0.747555 0.885270
vt 0.750571 0.881675
vt 0.754635 0.879329
vt 0.759256 0.878515
vt 0.763877 0.879329
vt 0.767940 0.881675
vt 0.770956 0.885270
vt 0.772561 0.889679
vt 0.772561 0.894371
vt 0.770956 0.898780
vt 0.767940 0.902375
vt 0.763876 0.904721
vt 0.759256 0.905536
vt 0.754635 0.904721
vt 0.750571 0.902375
vt 0.747555 0.898780
vt 0.745950 0.894371
vt 0.308736 0.953786
vt 0.305841 0.953786
vt 0.305841 0.949723
vt 0.308736 0.949723
vt 0.808927 0.885270
vt 0.810532 0.889679
vt 0.810532 0.894371
vt 0.808927 0.898780
vt 0.805911 0.902375
vt 0.801848 0.904721
vt 0.797227 0.905536
vt 0.792606 0.904721
vt 0.788542 0.902375
vt 0.785526 0.898781
vt 0.783921 0.894371
vt 0.783921 0.889679
vt 0.785526 0.885270
vt 0.788542 0.881676
vt 0.792606 0.879329
vt 0.797227 0.878515
vt 0.801847 0.879329
vt 0.805911 0.881675
vt 0.924902 0.254974
vt 0.924902 0.251114
vt 0.926832 0.251114
vt 0.926832 0.254974
vt 0.976726 0.481325
vt 0.972866 0.481325
vt 0.972866 0.404122
vt 0.976726 0.404122
vt 0.934809 0.513270
vt 0.934809 0.509410
vt 0.936739 0.509410
vt 0.936739 0.513270
vt 0.979775 0.975019
vt 0.975915 0.975019
vt 0.975915 0.897816
vt 0.979775 0.897816
vt 0.993066 0.897816
vt 0.993066 0.975019
vt 0.991135 0.975019
vt 0.991135 0.897816
vt 0.993400 0.142496
vt 0.993400 0.219699
vt 0.991470 0.219699
vt 0.991470 0.142496
vt 0.938193 0.254974
vt 0.938193 0.251114
vt 0.940123 0.251114
vt 0.940123 0.254974
vt 0.055202 0.994320
vt 0.051341 0.994320
vt 0.051341 0.936417
vt 0.055202 0.936417
vt 0.334352 0.940278
vt 0.334352 0.936417
vt 0.336282 0.936417
vt 0.336282 0.940278
vt 0.070422 0.994320
vt 0.066562 0.994320
vt 0.066562 0.936417
vt 0.070422 0.936417
vt 0.226099 0.936417
vt 0.226099 0.994320
vt 0.224168 0.994320
vt 0.224168 0.936417
vt 0.239389 0.936417
vt 0.239389 0.994320
vt 0.237459 0.994320
vt 0.237459 0.936417
vt 0.347642 0.940278
vt 0.347642 0.936417
vt 0.349572 0.936417
vt 0.349572 0.940278
vt 0.980110 0.219699
vt 0.976250 0.219699
vt 0.976250 0.142496
vt 0.980110 0.142496
vt 0.360933 0.940278
vt 0.360933 0.936417
vt 0.362863 0.936417
vt 0.362863 0.940278
vt 0.980740 0.838203
vt 0.976880 0.838203
vt 0.976880 0.761000
vt 0.980740 0.761000
vt 0.994031 0.527681
vt 0.994031 0.604884
vt 0.992101 0.604884
vt 0.992101 0.527681
vt 0.994031 0.761000
vt 0.994031 0.838204
vt 0.992100 0.838204
vt 0.992100 0.761000
vt 0.374223 0.940278
vt 0.374223 0.936417
vt 0.376153 0.936417
vt 0.376153 0.940278
vt 0.085643 0.994320
vt 0.081782 0.994320
vt 0.081782 0.936417
vt 0.085643 0.936417
vt 0.387514 0.940278
vt 0.387514 0.936417
vt 0.389444 0.936417
vt 0.389444 0.940278
vt 0.146356 0.994320
vt 0.142496 0.994320
vt 0.142496 0.936417
vt 0.146356 0.936417
vt 0.252679 0.936417
vt 0.252679 0.994320
vt 0.250749 0.994320
vt 0.250749 0.936417
vt 0.265970 0.936417
vt 0.265970 0.994320
vt 0.264040 0.994320
vt 0.264040 0.936417
s 0
usemtl exp_R6
f 1/1/1 2/2/1 4/3/1 3/4/1
f 3/5/2 4/6/2 8/7/2 7/8/2
f 7/9/3 8/10/3 6/11/3 5/12/3
f 5/13/4 6/14/4 2/15/4 1/16/4
f 3/17/5 7/18/5 5/19/5 1/20/5
f 8/21/6 4/22/6 2/23/6 6/24/6
s 1
f 9/25/7 12/26/8 14/27/9 13/28/10
f 12/26/8 16/29/11 17/30/12 14/27/9
f 10/31/13 15/32/14 17/33/12 16/34/11
f 15/32/14 19/35/15 20/36/16 17/33/12
f 11/37/17 18/38/18 20/39/16 19/40/15
f 18/41/18 13/28/10 14/27/9 20/42/16
f 14/43/9 17/33/12 20/36/16
f 21/44/19 24/45/20 26/46/21 25/47/22
f 24/48/20 28/49/23 29/50/24 26/51/21
f 22/52/25 27/53/26 29/50/24 28/49/23
f 27/53/26 31/54/27 32/55/28 29/50/24
f 23/56/29 30/57/30 32/58/28 31/59/27
f 30/60/30 25/47/22 26/46/21 32/61/28
f 26/46/21 29/62/24 32/61/28
f 33/63/31 36/64/32 38/65/33 37/66/34
f 36/64/32 40/67/35 41/68/36 38/65/33
f 34/69/37 39/70/38 41/71/36 40/72/35
f 39/73/38 43/74/39 44/75/40 41/76/36
f 35/77/41 42/78/42 44/75/40 43/74/39
f 42/79/42 37/66/34 38/65/33 44/80/40
f 38/81/33 41/76/36 44/75/40
f 45/82/43 48/83/44 50/84/45 49/85/46
f 48/83/44 52/86/47 53/87/48 50/84/45
f 46/88/49 51/89/50 53/90/48 52/91/47
f 51/89/50 55/92/51 56/93/52 53/90/48
f 47/94/53 54/95/54 56/96/52 55/97/51
f 54/98/54 49/85/46 50/84/45 56/99/52
f 50/100/45 53/90/48 56/93/52
f 57/101/55 60/102/56 62/103/57 61/104/58
f 60/105/56 64/106/59 65/107/60 62/108/57
f 58/109/61 63/110/62 65/107/60 64/106/59
f 63/110/62 67/111/63 68/112/64 65/107/60
f 59/113/65 66/114/66 68/115/64 67/116/63
f 66/117/66 61/104/58 62/103/57 68/118/64
f 62/108/57 65/107/60 68/112/64
f 69/119/67 72/120/68 74/121/69 73/122/70
f 72/120/68 76/123/71 77/124/72 74/121/69
f 70/125/73 75/126/74 77/127/72 76/128/71
f 75/129/74 79/130/75 80/131/76 77/132/72
f 71/133/77 78/134/78 80/131/76 79/130/75
f 78/134/78 73/135/70 74/136/69 80/131/76
f 74/136/69 77/132/72 80/131/76
f 81/137/79 84/138/80 86/139/81 85/140/82
f 84/138/80 88/141/83 89/142/84 86/139/81
f 82/143/85 87/144/86 89/145/84 88/146/83
f 87/147/86 91/148/87 92/149/88 89/150/84
f 83/151/89 90/152/90 92/149/88 91/148/87
f 90/152/90 85/153/82 86/154/81 92/149/88
f 86/154/81 89/150/84 92/149/88
f 93/155/91 96/156/92 98/157/93 97/158/94
f 96/159/92 100/160/95 101/161/96 98/162/93
f 94/163/97 99/164/98 101/161/96 100/160/95
f 99/164/98 103/165/99 104/166/100 101/161/96
f 95/167/101 102/168/102 104/169/100 103/170/99
f 102/171/102 97/158/94 98/157/93 104/172/100
f 98/162/93 101/161/96 104/166/100
f 33/63/31 9/25/7 13/28/10 36/64/32
f 36/64/32 13/28/10 18/41/18 40/67/35
f 40/72/35 18/38/18 11/37/17 34/69/37
f 10/31/13 21/44/19 25/47/22 15/32/14
f 15/32/14 25/47/22 30/60/30 19/35/15
f 19/40/15 30/57/30 23/56/29 11/37/17
f 22/52/25 45/82/43 49/85/46 27/53/26
f 27/53/26 49/85/46 54/98/54 31/54/27
f 31/59/27 54/95/54 47/94/53 23/56/29
f 46/88/49 35/77/41 43/74/39 51/89/50
f 51/89/50 43/74/39 39/73/38 55/92/51
f 55/97/51 39/70/38 34/69/37 47/94/53
f 81/137/79 33/63/31 37/66/34 84/138/80
f 84/138/80 37/66/34 42/79/42 88/141/83
f 88/146/83 42/78/42 35/77/41 82/143/85
f 45/82/43 93/155/91 97/158/94 48/83/44
f 48/83/44 97/158/94 102/171/102 52/86/47
f 52/91/47 102/168/102 95/167/101 46/88/49
f 94/163/97 83/151/89 91/148/87 99/164/98
f 99/173/98 91/174/87 87/144/86 103/170/99
f 103/170/99 87/144/86 82/143/85 95/167/101
f 57/101/55 81/137/79 85/140/82 60/102/56
f 60/102/56 85/140/82 90/175/90 64/176/59
f 64/106/59 90/152/90 83/151/89 58/109/61
f 93/155/91 69/119/67 73/122/70 96/156/92
f 96/156/92 73/122/70 78/177/78 100/178/95
f 100/160/95 78/134/78 71/133/77 94/163/97
f 70/125/73 59/113/65 67/116/63 75/126/74
f 75/126/74 67/116/63 63/179/62 79/180/75
f 79/130/75 63/110/62 58/109/61 71/133/77
f 9/25/7 57/101/55 61/104/58 12/26/8
f 12/26/8 61/104/58 66/117/66 16/29/11
f 16/34/11 66/114/66 59/113/65 10/31/13
f 69/119/67 22/52/25 28/49/23 72/120/68
f 72/120/68 28/49/23 24/48/20 76/123/71
f 76/128/71 24/45/20 21/44/19 70/125/73
f 33/63/31 81/137/79 57/101/55 9/25/7
f 11/37/17 23/56/29 47/94/53 34/69/37
f 59/113/65 70/125/73 21/44/19 10/31/13
f 93/155/91 45/82/43 22/52/25 69/119/67
f 35/77/41 46/88/49 95/167/101 82/143/85
f 83/151/89 94/163/97 71/133/77 58/109/61
s 0
f 105/181/1 106/182/1 108/183/1 107/184/1
f 107/185/2 108/186/2 112/187/2 111/188/2
f 111/189/3 112/190/3 110/191/3 109/192/3
f 109/193/4 110/194/4 106/195/4 105/196/4
f 107/197/5 111/198/5 109/199/5 105/200/5
f 112/201/6 108/202/6 106/203/6 110/204/6
s 1
f 113/205/103 114/206/104 116/207/105 115/208/106
f 115/208/106 116/207/105 118/209/107 117/210/108
f 117/211/108 118/212/107 120/213/109 119/214/110
f 119/214/110 120/213/109 122/215/111 121/216/112
f 121/216/112 122/215/111 124/217/113 123/218/114
f 123/218/114 124/217/113 126/219/115 125/220/116
f 125/220/116 126/219/115 128/221/117 127/222/118
f 127/223/118 128/224/117 130/225/119 129/226/120
f 129/226/120 130/225/119 132/227/121 131/228/122
f 131/228/122 132/227/121 134/229/123 133/230/124
f 133/230/124 134/229/123 136/231/125 135/232/126
f 135/233/126 136/234/125 138/235/127 137/236/128
f 137/236/128 138/235/127 140/237/129 139/238/130
f 139/238/130 140/237/129 142/239/131 141/240/132
f 141/240/132 142/239/131 144/241/133 143/242/134
f 143/242/134 144/241/133 146/243/135 145/244/136
f 116/245/105 114/246/104 148/247/137 146/248/135 144/249/133 142/250/131 140/251/129 138/252/127 136/253/125 134/254/123 132/255/121 130/256/119 128/257/117 126/258/115 124/259/113 122/260/111 120/261/109 118/262/107
f 145/263/136 146/264/135 148/265/137 147/266/138
f 147/266/138 148/265/137 114/206/104 113/205/103
f 113/267/103 115/268/106 117/269/108 119/270/110 121/271/112 123/272/114 125/273/116 127/274/118 129/275/120 131/276/122 133/277/124 135/278/126 137/279/128 139/280/130 141/281/132 143/282/134 145/283/136 147/284/138
s 0
f 149/285/1 150/286/1 152/287/1 151/288/1
f 151/289/2 152/290/2 156/291/2 155/292/2
f 155/293/3 156/294/3 154/295/3 153/296/3
f 153/297/4 154/298/4 150/299/4 149/300/4
f 151/301/5 155/302/5 153/303/5 149/304/5
f 156/305/6 152/306/6 150/307/6 154/308/6
f 157/309/1 158/310/1 160/311/1 159/312/1
f 159/313/2 160/314/2 164/315/2 163/316/2
f 163/317/3 164/318/3 162/319/3 161/320/3
f 161/321/4 162/322/4 158/323/4 157/324/4
f 159/325/5 163/326/5 161/327/5 157/328/5
f 164/329/6 160/330/6 158/331/6 162/332/6
f 165/333/1 166/334/1 168/335/1 167/336/1
f 167/337/2 168/338/2 172/339/2 171/340/2
f 171/341/3 172/342/3 170/343/3 169/344/3
f 169/345/4 170/346/4 166/347/4 165/348/4
f 167/349/5 171/350/5 169/351/5 165/352/5
f 172/353/6 168/354/6 166/355/6 170/356/6
f 173/357/1 174/358/1 176/359/1 175/360/1
f 175/361/2 176/362/2 180/363/2 179/364/2
f 179/365/3 180/366/3 178/367/3 177/368/3
f 177/369/4 178/370/4 174/371/4 173/372/4
f 175/373/5 179/374/5 177/375/5 173/376/5
f 180/377/6 176/378/6 174/379/6 178/380/6
f 181/381/1 182/382/1 184/383/1 183/384/1
f 183/385/2 184/386/2 188/387/2 187/388/2
f 187/389/3 188/390/3 186/391/3 185/392/3
f 185/393/4 186/394/4 182/395/4 181/396/4
f 183/397/5 187/398/5 185/399/5 181/400/5
f 188/401/6 184/402/6 182/403/6 186/404/6
s 1
f 189/405/7 192/406/8 194/407/139 193/408/140
f 192/406/8 196/409/11 197/410/12 194/407/139
f 190/411/13 195/412/141 197/413/12 196/414/11
f 195/412/141 199/415/15 200/416/16 197/413/12
f 191/417/142 198/418/18 200/419/16 199/420/15
f 198/421/18 193/408/140 194/407/139 200/422/16
f 194/423/139 197/413/12 200/416/16
f 201/424/19 204/425/20 206/426/21 205/427/143
f 204/428/20 208/429/23 209/430/24 206/431/21
f 202/432/25 207/433/144 209/430/24 208/429/23
f 207/433/144 211/434/27 212/435/28 209/430/24
f 203/436/145 210/437/30 212/438/28 211/439/27
f 210/440/30 205/427/143 206/426/21 212/441/28
f 206/426/21 209/442/24 212/441/28
f 213/443/31 216/444/146 218/445/33 217/446/34
f 216/444/146 220/447/35 221/448/36 218/445/33
f 214/449/147 219/450/38 221/451/36 220/452/35
f 219/453/38 223/454/148 224/455/40 221/456/36
f 215/457/41 222/458/42 224/455/40 223/454/148
f 222/459/42 217/446/34 218/445/33 224/460/40
f 218/461/33 221/456/36 224/455/40
f 225/462/43 228/463/44 230/464/149 229/465/150
f 228/463/44 232/466/47 233/467/48 230/464/149
f 226/468/49 231/469/151 233/470/48 232/471/47
f 231/469/151 235/472/51 236/473/52 233/470/48
f 227/474/152 234/475/54 236/476/52 235/477/51
f 234/478/54 229/465/150 230/464/149 236/479/52
f 230/480/149 233/470/48 236/473/52
f 237/481/55 240/482/153 242/483/57 241/484/58
f 240/485/153 244/486/154 245/487/155 242/488/57
f 238/489/156 243/490/62 245/487/155 244/486/154
f 243/490/62 247/491/63 248/492/157 245/487/155
f 239/493/65 246/494/158 248/495/157 247/496/63
f 246/497/158 241/484/58 242/483/57 248/498/157
f 242/499/57 245/500/155 248/501/157
f 249/502/67 252/503/68 254/504/159 253/505/160
f 252/503/68 256/506/161 257/507/162 254/504/159
f 250/508/73 255/509/74 257/510/162 256/511/161
f 255/512/74 259/513/163 260/514/164 257/515/162
f 251/516/165 258/517/78 260/514/164 259/513/163
f 258/517/78 253/518/160 254/519/159 260/514/164
f 254/520/159 257/521/162 260/522/164
f 261/523/79 264/524/80 266/525/81 265/526/166
f 264/524/80 268/527/167 269/528/168 266/525/81
f 262/529/85 267/530/86 269/531/168 268/532/167
f 267/533/86 271/534/169 272/535/170 269/536/168
f 263/537/171 270/538/90 272/535/170 271/534/169
f 270/538/90 265/539/166 266/540/81 272/535/170
f 266/541/81 269/542/168 272/543/170
f 273/544/91 276/545/172 278/546/93 277/547/94
f 276/548/172 280/549/173 281/550/174 278/551/93
f 274/552/175 279/553/98 281/550/174 280/549/173
f 279/553/98 283/554/99 284/555/176 281/550/174
f 275/556/101 282/557/177 284/558/176 283/559/99
f 282/560/177 277/547/94 278/546/93 284/561/176
f 278/562/93 281/563/174 284/564/176
f 213/443/31 189/405/7 193/408/140 216/444/146
f 216/444/146 193/408/140 198/421/18 220/447/35
f 220/452/35 198/418/18 191/417/142 214/449/147
f 190/411/13 201/424/19 205/427/143 195/412/141
f 195/412/141 205/427/143 210/440/30 199/415/15
f 199/420/15 210/437/30 203/436/145 191/417/142
f 202/432/25 225/462/43 229/465/150 207/433/144
f 207/433/144 229/465/150 234/478/54 211/434/27
f 211/439/27 234/475/54 227/474/152 203/436/145
f 226/468/49 215/457/41 223/454/148 231/469/151
f 231/469/151 223/454/148 219/453/38 235/472/51
f 235/477/51 219/450/38 214/449/147 227/474/152
f 261/523/79 213/443/31 217/446/34 264/524/80
f 264/524/80 217/446/34 222/459/42 268/527/167
f 268/532/167 222/458/42 215/457/41 262/529/85
f 225/462/43 273/544/91 277/547/94 228/463/44
f 228/463/44 277/547/94 282/560/177 232/466/47
f 232/471/47 282/557/177 275/556/101 226/468/49
f 274/552/175 263/537/171 271/534/169 279/553/98
f 279/553/98 271/534/169 267/533/86 283/554/99
f 283/559/99 267/530/86 262/529/85 275/556/101
f 237/481/55 261/523/79 265/526/166 240/482/153
f 240/485/153 265/539/166 270/538/90 244/486/154
f 244/486/154 270/538/90 263/537/171 238/489/156
f 273/544/91 249/502/67 253/505/160 276/545/172
f 276/548/172 253/518/160 258/517/78 280/549/173
f 280/549/173 258/517/78 251/516/165 274/552/175
f 250/508/73 239/493/65 247/496/63 255/509/74
f 255/512/74 247/491/63 243/490/62 259/513/163
f 259/513/163 243/490/62 238/489/156 251/516/165
f 189/405/7 237/481/55 241/484/58 192/406/8
f 192/406/8 241/484/58 246/497/158 196/409/11
f 196/414/11 246/494/158 239/493/65 190/411/13
f 249/502/67 202/432/25 208/429/23 252/503/68
f 252/503/68 208/429/23 204/428/20 256/506/161
f 256/511/161 204/425/20 201/424/19 250/508/73
f 213/443/31 261/523/79 237/481/55 189/405/7
f 191/417/142 203/436/145 227/474/152 214/449/147
f 239/493/65 250/508/73 201/424/19 190/411/13
f 273/544/91 225/462/43 202/432/25 249/502/67
f 215/457/41 226/468/49 275/556/101 262/529/85
f 263/537/171 274/552/175 251/516/165 238/489/156
s 0
f 285/565/1 286/566/1 288/567/1 287/568/1
f 287/569/2 288/570/2 292/571/2 291/572/2
f 291/573/3 292/574/3 290/575/3 289/576/3
f 289/577/4 290/578/4 286/579/4 285/580/4
f 287/581/5 291/582/5 289/583/5 285/584/5
f 292/585/6 288/586/6 286/587/6 290/588/6
s 1
f 293/589/103 294/590/104 296/591/105 295/592/106
f 295/592/106 296/591/105 298/593/107 297/594/108
f 297/595/108 298/596/107 300/597/178 299/598/179
f 299/598/179 300/597/178 302/599/180 301/600/181
f 301/600/181 302/599/180 304/601/182 303/602/183
f 303/602/183 304/601/182 306/603/184 305/604/185
f 305/604/185 306/603/184 308/605/117 307/606/118
f 307/607/118 308/608/117 310/609/119 309/610/120
f 309/610/120 310/609/119 312/611/121 311/612/122
f 311/612/122 312/611/121 314/613/123 313/614/124
f 313/614/124 314/613/123 316/615/186 315/616/187
f 315/617/187 316/618/186 318/619/127 317/620/128
f 317/620/128 318/619/127 320/621/129 319/622/130
f 319/622/130 320/621/129 322/623/131 321/624/132
f 321/624/132 322/623/131 324/625/133 323/626/134
f 323/626/134 324/625/133 326/627/188 325/628/189
f 296/629/105 294/630/104 328/631/137 326/632/188 324/633/133 322/634/131 320/635/129 318/636/127 316/637/186 314/638/123 312/639/121 310/640/119 308/641/117 306/642/184 304/643/182 302/644/180 300/645/178 298/646/107
f 325/647/189 326/648/188 328/649/137 327/650/138
f 327/650/138 328/649/137 294/590/104 293/589/103
f 293/651/103 295/652/106 297/653/108 299/654/179 301/655/181 303/656/183 305/657/185 307/658/118 309/659/120 311/660/122 313/661/124 315/662/187 317/663/128 319/664/130 321/665/132 323/666/134 325/667/189 327/668/138
s 0
f 329/669/1 330/670/1 332/671/1 331/672/1
f 331/673/2 332/674/2 336/675/2 335/676/2
f 335/677/3 336/678/3 334/679/3 333/680/3
f 333/681/4 334/682/4 330/683/4 329/684/4
f 331/685/5 335/686/5 333/687/5 329/688/5
f 336/689/6 332/690/6 330/691/6 334/692/6
f 337/693/1 338/694/1 340/695/1 339/696/1
f 339/697/2 340/698/2 344/699/2 343/700/2
f 343/701/3 344/702/3 342/703/3 341/704/3
f 341/705/4 342/706/4 338/707/4 337/708/4
f 339/709/5 343/710/5 341/711/5 337/712/5
f 344/713/6 340/714/6 338/715/6 342/716/6
f 345/717/1 346/718/1 348/719/1 347/720/1
f 347/721/2 348/722/2 352/723/2 351/724/2
f 351/725/3 352/726/3 350/727/3 349/728/3
f 349/729/4 350/730/4 346/731/4 345/732/4
f 347/733/5 351/734/5 349/735/5 345/736/5
f 352/737/6 348/738/6 346/739/6 350/740/6
f 353/741/1 354/742/1 356/743/1 355/744/1
f 355/745/2 356/746/2 360/747/2 359/748/2
f 359/749/3 360/750/3 358/751/3 357/752/3
f 357/753/4 358/754/4 354/755/4 353/756/4
f 355/757/5 359/758/5 357/759/5 353/760/5
f 360/761/6 356/762/6 354/763/6 358/764/6
f 361/765/1 362/766/1 364/767/1 363/768/1
f 363/769/2 364/770/2 368/771/2 367/772/2
f 367/773/3 368/774/3 366/775/3 365/776/3
f 365/777/4 366/778/4 362/779/4 361/780/4
f 363/781/5 367/782/5 365/783/5 361/784/5
f 368/785/6 364/786/6 362/787/6 366/788/6
s 1
f 369/789/7 372/790/8 374/791/139 373/792/10
f 372/790/8 376/793/190 377/794/191 374/791/139
f 370/795/13 375/796/14 377/797/191 376/798/190
f 375/796/14 379/799/192 380/800/193 377/797/191
f 371/801/17 378/802/18 380/803/193 379/804/192
f 378/805/18 373/792/10 374/791/139 380/806/193
f 374/807/139 377/797/191 380/800/193
f 381/808/19 384/809/194 386/810/195 385/811/22
f 384/812/194 388/813/23 389/814/24 386/815/195
f 382/816/25 387/817/196 389/814/24 388/813/23
f 387/817/196 391/818/27 392/819/197 389/814/24
f 383/820/29 390/821/198 392/822/197 391/823/27
f 390/824/198 385/811/22 386/810/195 392/825/197
f 386/810/195 389/826/24 392/825/197
f 393/827/31 396/828/199 398/829/33 397/830/34
f 396/828/199 400/831/35 401/832/200 398/829/33
f 394/833/37 399/834/201 401/835/200 400/836/35
f 399/837/201 403/838/39 404/839/202 401/840/200
f 395/841/41 402/842/203 404/839/202 403/838/39
f 402/843/203 397/830/34 398/829/33 404/844/202
f 398/845/33 401/840/200 404/839/202
f 405/846/43 408/847/44 410/848/149 409/849/46
f 408/847/44 412/850/204 413/851/205 410/848/149
f 406/852/49 411/853/50 413/854/205 412/855/204
f 411/853/50 415/856/206 416/857/207 413/854/205
f 407/858/53 414/859/54 416/860/207 415/861/206
f 414/862/54 409/849/46 410/848/149 416/863/207
f 410/864/149 413/854/205 416/857/207
f 417/865/55 420/866/208 422/867/209 421/868/58
f 420/869/208 424/870/154 425/871/210 422/872/209
f 418/873/61 423/874/62 425/871/210 424/870/154
f 423/874/62 427/875/211 428/876/212 425/871/210
f 419/877/65 426/878/213 428/879/212 427/880/211
f 426/881/213 421/868/58 422/867/209 428/882/212
f 422/872/209 425/871/210 428/876/212
f 429/883/67 432/884/68 434/885/69 433/886/160
f 432/884/68 436/887/214 437/888/215 434/885/69
f 430/889/73 435/890/216 437/891/215 436/892/214
f 435/893/216 439/894/163 440/895/217 437/896/215
f 431/897/77 438/898/218 440/895/217 439/894/163
f 438/898/218 433/899/160 434/900/69 440/895/217
f 434/900/69 437/896/215 440/895/217
f 441/901/79 444/902/80 446/903/219 445/904/220
f 444/902/80 448/905/221 449/906/222 446/903/219
f 442/907/85 447/908/223 449/909/222 448/910/221
f 447/911/223 451/912/169 452/913/224 449/914/222
f 443/915/89 450/916/225 452/913/224 451/912/169
f 450/916/225 445/917/220 446/918/219 452/913/224
f 446/918/219 449/914/222 452/913/224
f 453/919/91 456/920/226 458/921/227 457/922/94
f 456/923/226 460/924/173 461/925/228 458/926/227
f 454/927/97 459/928/98 461/925/228 460/924/173
f 459/928/98 463/929/229 464/930/230 461/925/228
f 455/931/101 462/932/231 464/933/230 463/934/229
f 462/935/231 457/922/94 458/921/227 464/936/230
f 458/926/227 461/925/228 464/930/230
f 393/827/31 369/789/7 373/792/10 396/828/199
f 396/828/199 373/792/10 378/805/18 400/831/35
f 400/836/35 378/802/18 371/801/17 394/833/37
f 370/795/13 381/808/19 385/811/22 375/796/14
f 375/796/14 385/811/22 390/824/198 379/799/192
f 379/804/192 390/821/198 383/820/29 371/801/17
f 382/816/25 405/846/43 409/849/46 387/817/196
f 387/817/196 409/849/46 414/862/54 391/818/27
f 391/823/27 414/859/54 407/858/53 383/820/29
f 406/852/49 395/841/41 403/838/39 411/853/50
f 411/853/50 403/838/39 399/837/201 415/856/206
f 415/861/206 399/834/201 394/833/37 407/858/53
f 441/901/79 393/827/31 397/830/34 444/902/80
f 444/902/80 397/830/34 402/843/203 448/905/221
f 448/910/221 402/842/203 395/841/41 442/907/85
f 405/846/43 453/919/91 457/922/94 408/847/44
f 408/847/44 457/922/94 462/935/231 412/850/204
f 412/855/204 462/932/231 455/931/101 406/852/49
f 454/927/97 443/915/89 451/912/169 459/928/98
f 459/937/98 451/938/169 447/908/223 463/934/229
f 463/934/229 447/908/223 442/907/85 455/931/101
f 417/865/55 441/901/79 445/904/220 420/866/208
f 420/866/208 445/904/220 450/939/225 424/940/154
f 424/870/154 450/916/225 443/915/89 418/873/61
f 453/919/91 429/883/67 433/886/160 456/920/226
f 456/920/226 433/886/160 438/941/218 460/942/173
f 460/924/173 438/898/218 431/897/77 454/927/97
f 430/889/73 419/877/65 427/880/211 435/890/216
f 435/890/216 427/880/211 423/943/62 439/944/163
f 439/894/163 423/874/62 418/873/61 431/897/77
f 369/789/7 417/865/55 421/868/58 372/790/8
f 372/790/8 421/868/58 426/881/213 376/793/190
f 376/798/190 426/878/213 419/877/65 370/795/13
f 429/883/67 382/816/25 388/813/23 432/884/68
f 432/884/68 388/813/23 384/812/194 436/887/214
f 436/892/214 384/809/194 381/808/19 430/889/73
f 393/827/31 441/901/79 417/865/55 369/789/7
f 371/801/17 383/820/29 407/858/53 394/833/37
f 419/877/65 430/889/73 381/808/19 370/795/13
f 453/919/91 405/846/43 382/816/25 429/883/67
f 395/841/41 406/852/49 455/931/101 442/907/85
f 443/915/89 454/927/97 431/897/77 418/873/61
s 0
f 465/945/1 466/946/1 468/947/1 467/948/1
f 467/949/2 468/950/2 472/951/2 471/952/2
f 471/953/3 472/954/3 470/955/3 469/956/3
f 469/957/4 470/958/4 466/959/4 465/960/4
f 467/961/5 471/962/5 469/963/5 465/964/5
f 472/965/6 468/966/6 466/967/6 470/968/6
s 1
f 473/969/103 474/970/104 476/971/105 475/972/106
f 475/972/106 476/971/105 478/973/107 477/974/108
f 477/975/108 478/976/107 480/977/109 479/978/110
f 479/978/110 480/977/109 482/979/111 481/980/112
f 481/980/112 482/979/111 484/981/113 483/982/114
f 483/982/114 484/981/113 486/983/115 485/984/116
f 485/984/116 486/983/115 488/985/117 487/986/118
f 487/987/118 488/988/117 490/989/119 489/990/120
f 489/990/120 490/989/119 492/991/121 491/992/122
f 491/992/122 492/991/121 494/993/123 493/994/124
f 493/994/124 494/993/123 496/995/125 495/996/126
f 495/997/126 496/998/125 498/999/127 497/1000/128
f 497/1000/128 498/999/127 500/1001/129 499/1002/130
f 499/1002/130 500/1001/129 502/1003/131 501/1004/132
f 501/1004/132 502/1003/131 504/1005/133 503/1006/134
f 503/1006/134 504/1005/133 506/1007/135 505/1008/136
f 476/1009/105 474/1010/104 508/1011/137 506/1012/135 504/1013/133 502/1014/131 500/1015/129 498/1016/127 496/1017/125 494/1018/123 492/1019/121 490/1020/119 488/1021/117 486/1022/115 484/1023/113 482/1024/111 480/1025/109 478/1026/107
f 505/1027/136 506/1028/135 508/1029/137 507/1030/138
f 507/1030/138 508/1029/137 474/970/104 473/969/103
f 473/1031/103 475/1032/106 477/1033/108 479/1034/110 481/1035/112 483/1036/114 485/1037/116 487/1038/118 489/1039/120 491/1040/122 493/1041/124 495/1042/126 497/1043/128 499/1044/130 501/1045/132 503/1046/134 505/1047/136 507/1048/138
s 0
f 509/1049/1 510/1050/1 512/1051/1 511/1052/1
f 511/1053/2 512/1054/2 516/1055/2 515/1056/2
f 515/1057/3 516/1058/3 514/1059/3 513/1060/3
f 513/1061/4 514/1062/4 510/1063/4 509/1064/4
f 511/1065/5 515/1066/5 513/1067/5 509/1068/5
f 516/1069/6 512/1070/6 510/1071/6 514/1072/6
f 517/1073/1 518/1074/1 520/1075/1 519/1076/1
f 519/1077/2 520/1078/2 524/1079/2 523/1080/2
f 523/1081/3 524/1082/3 522/1083/3 521/1084/3
f 521/1085/4 522/1086/4 518/1087/4 517/1088/4
f 519/1089/5 523/1090/5 521/1091/5 517/1092/5
f 524/1093/6 520/1094/6 518/1095/6 522/1096/6
f 525/1097/1 526/1098/1 528/1099/1 527/1100/1
f 527/1101/2 528/1102/2 532/1103/2 531/1104/2
f 531/1105/3 532/1106/3 530/1107/3 529/1108/3
f 529/1109/4 530/1110/4 526/1111/4 525/1112/4
f 527/1113/5 531/1114/5 529/1115/5 525/1116/5
f 532/1117/6 528/1118/6 526/1119/6 530/1120/6
f 533/1121/1 534/1122/1 536/1123/1 535/1124/1
f 535/1125/2 536/1126/2 540/1127/2 539/1128/2
f 539/1129/3 540/1130/3 538/1131/3 537/1132/3
f 537/1133/4 538/1134/4 534/1135/4 533/1136/4
f 535/1137/5 539/1138/5 537/1139/5 533/1140/5
f 540/1141/6 536/1142/6 534/1143/6 538/1144/6
