# Blender 5.1.1
# www.blender.org
mtllib R7.mtl
o R7_final.001
v 9.600000 5.167750 1.860000
v 9.600000 5.155750 1.860000
v 9.603420 5.167750 1.859397
v 9.603420 5.155750 1.859397
v 9.606428 5.167750 1.857660
v 9.606428 5.155750 1.857660
v 9.608660 5.167750 1.855000
v 9.608660 5.155750 1.855000
v 9.609848 5.167750 1.851737
v 9.609848 5.155750 1.851737
v 9.609848 5.167750 1.848264
v 9.609848 5.155750 1.848264
v 9.608660 5.167750 1.845000
v 9.608660 5.155750 1.845000
v 9.606428 5.167750 1.842340
v 9.606428 5.155750 1.842340
v 9.603420 5.167750 1.840603
v 9.603420 5.155750 1.840603
v 9.600000 5.167750 1.840000
v 9.600000 5.155750 1.840000
v 9.596580 5.167750 1.840603
v 9.596580 5.155750 1.840603
v 9.593573 5.167750 1.842340
v 9.593573 5.155750 1.842340
v 9.591339 5.167750 1.845000
v 9.591339 5.155750 1.845000
v 9.590152 5.167750 1.848264
v 9.590152 5.155750 1.848264
v 9.590152 5.167750 1.851737
v 9.590152 5.155750 1.851737
v 9.591339 5.167750 1.855000
v 9.591339 5.155750 1.855000
v 9.593573 5.167750 1.857660
v 9.593573 5.155750 1.857660
v 9.596580 5.167750 1.859397
v 9.596580 5.155750 1.859397
v 9.600000 5.185750 1.985000
v 9.600000 5.165750 1.985000
v 9.623442 5.185750 1.982949
v 9.623442 5.165750 1.982949
v 9.646173 5.185750 1.976858
v 9.646173 5.165750 1.976858
v 9.667500 5.185750 1.966913
v 9.667500 5.165750 1.966913
v 9.686776 5.185750 1.953416
v 9.686776 5.165750 1.953416
v 9.703416 5.185750 1.936776
v 9.703416 5.165750 1.936776
v 9.716913 5.185750 1.917500
v 9.716913 5.165750 1.917500
v 9.726858 5.185750 1.896173
v 9.726858 5.165750 1.896173
v 9.732948 5.185750 1.873443
v 9.732948 5.165750 1.873443
v 9.735001 5.185750 1.850000
v 9.735001 5.165750 1.850000
v 9.732948 5.185750 1.826558
v 9.732948 5.165750 1.826558
v 9.726858 5.185750 1.803827
v 9.726858 5.165750 1.803827
v 9.716913 5.185750 1.782500
v 9.716913 5.165750 1.782500
v 9.703416 5.185750 1.763224
v 9.703416 5.165750 1.763224
v 9.686776 5.185750 1.746584
v 9.686776 5.165750 1.746584
v 9.667500 5.185750 1.733087
v 9.667500 5.165750 1.733087
v 9.646173 5.185750 1.723142
v 9.646173 5.165750 1.723142
v 9.623442 5.185750 1.717051
v 9.623442 5.165750 1.717051
v 9.600000 5.185750 1.715000
v 9.600000 5.165750 1.715000
v 9.576557 5.185750 1.717051
v 9.576557 5.165750 1.717051
v 9.553827 5.185750 1.723142
v 9.553827 5.165750 1.723142
v 9.532499 5.185750 1.733087
v 9.532499 5.165750 1.733087
v 9.513224 5.185750 1.746584
v 9.513224 5.165750 1.746584
v 9.496584 5.185750 1.763224
v 9.496584 5.165750 1.763224
v 9.483087 5.185750 1.782500
v 9.483087 5.165750 1.782500
v 9.473141 5.185750 1.803827
v 9.473141 5.165750 1.803827
v 9.467051 5.185750 1.826558
v 9.467051 5.165750 1.826558
v 9.465000 5.185750 1.850000
v 9.465000 5.165750 1.850000
v 9.467051 5.185750 1.873443
v 9.467051 5.165750 1.873443
v 9.473141 5.185750 1.896173
v 9.473141 5.165750 1.896173
v 9.483087 5.185750 1.917500
v 9.483087 5.165750 1.917500
v 9.496584 5.185750 1.936776
v 9.496584 5.165750 1.936776
v 9.513224 5.185750 1.953416
v 9.513224 5.165750 1.953416
v 9.532499 5.185750 1.966913
v 9.532499 5.165750 1.966913
v 9.553827 5.185750 1.976858
v 9.553827 5.165750 1.976858
v 9.576557 5.185750 1.982949
v 9.576557 5.165750 1.982949
v 9.594000 5.159750 1.845000
v 9.594000 5.159750 1.915000
v 9.594000 5.167750 1.845000
v 9.594000 5.167750 1.915000
v 9.606000 5.159750 1.845000
v 9.606000 5.159750 1.915000
v 9.606000 5.167750 1.845000
v 9.606000 5.167750 1.915000
v 9.600000 5.159750 1.855000
v 9.700001 5.159750 1.855000
v 9.600000 5.167750 1.855000
v 9.700001 5.167750 1.855000
v 9.600000 5.159750 1.845000
v 9.700001 5.159750 1.845000
v 9.600000 5.167750 1.845000
v 9.700001 5.167750 1.845000
v 9.559134 5.157250 1.835966
v 9.636269 5.157250 1.927891
v 9.559134 5.162250 1.835966
v 9.636269 5.162250 1.927891
v 9.563730 5.157250 1.832109
v 9.640865 5.157250 1.924034
v 9.563730 5.162250 1.832109
v 9.640865 5.162250 1.924034
v 9.600000 5.214250 2.005000
v 9.600000 5.169250 2.005000
v 9.626915 5.214250 2.002645
v 9.626915 5.169250 2.002645
v 9.653013 5.214250 1.995652
v 9.653013 5.169250 1.995652
v 9.677500 5.214250 1.984234
v 9.677500 5.169250 1.984234
v 9.699633 5.214250 1.968737
v 9.699633 5.169250 1.968737
v 9.718737 5.214250 1.949632
v 9.718737 5.169250 1.949632
v 9.734234 5.214250 1.927500
v 9.734234 5.169250 1.927500
v 9.745652 5.214250 1.903013
v 9.745652 5.169250 1.903013
v 9.752645 5.214250 1.876915
v 9.752645 5.169250 1.876915
v 9.755000 5.214250 1.850000
v 9.755000 5.169250 1.850000
v 9.752645 5.214250 1.823085
v 9.752645 5.169250 1.823085
v 9.745652 5.214250 1.796987
v 9.745652 5.169250 1.796987
v 9.734234 5.214250 1.772500
v 9.734234 5.169250 1.772500
v 9.718737 5.214250 1.750368
v 9.718737 5.169250 1.750368
v 9.699633 5.214250 1.731263
v 9.699633 5.169250 1.731263
v 9.677500 5.214250 1.715766
v 9.677500 5.169250 1.715766
v 9.653013 5.214250 1.704348
v 9.653013 5.169250 1.704348
v 9.626915 5.214250 1.697355
v 9.626915 5.169250 1.697355
v 9.600000 5.214250 1.695000
v 9.600000 5.169250 1.695000
v 9.573084 5.214250 1.697355
v 9.573084 5.169250 1.697355
v 9.546987 5.214250 1.704348
v 9.546987 5.169250 1.704348
v 9.522500 5.214250 1.715766
v 9.522500 5.169250 1.715766
v 9.500368 5.214250 1.731263
v 9.500368 5.169250 1.731263
v 9.481263 5.214250 1.750368
v 9.481263 5.169250 1.750368
v 9.465766 5.214250 1.772500
v 9.465766 5.169250 1.772500
v 9.454348 5.214250 1.796987
v 9.454348 5.169250 1.796987
v 9.447355 5.214250 1.823085
v 9.447355 5.169250 1.823085
v 9.445000 5.214250 1.850000
v 9.445000 5.169250 1.850000
v 9.447355 5.214250 1.876915
v 9.447355 5.169250 1.876915
v 9.454348 5.214250 1.903013
v 9.454348 5.169250 1.903013
v 9.465766 5.214250 1.927500
v 9.465766 5.169250 1.927500
v 9.481263 5.214250 1.949632
v 9.481263 5.169250 1.949632
v 9.500368 5.214250 1.968737
v 9.500368 5.169250 1.968737
v 9.522500 5.214250 1.984234
v 9.522500 5.169250 1.984234
v 9.546987 5.214250 1.995652
v 9.546987 5.169250 1.995652
v 9.573084 5.214250 2.002645
v 9.573084 5.169250 2.002645
v 9.594000 5.160750 1.950000
v 9.594000 5.160750 1.980000
v 9.594000 5.166750 1.950000
v 9.594000 5.166750 1.980000
v 9.606000 5.160750 1.950000
v 9.606000 5.160750 1.980000
v 9.606000 5.166750 1.950000
v 9.606000 5.166750 1.980000
v 9.606000 5.160750 1.750000
v 9.606000 5.160750 1.720000
v 9.606000 5.166750 1.750000
v 9.606000 5.166750 1.720000
v 9.594000 5.160750 1.750000
v 9.594000 5.160750 1.720000
v 9.594000 5.166750 1.750000
v 9.594000 5.166750 1.720000
v 9.500000 5.160750 1.844000
v 9.470000 5.160750 1.844000
v 9.500000 5.166750 1.844000
v 9.470000 5.166750 1.844000
v 9.500000 5.160750 1.856000
v 9.470000 5.160750 1.856000
v 9.500000 5.166750 1.856000
v 9.470000 5.166750 1.856000
v 9.700000 5.160750 1.856000
v 9.730000 5.160750 1.856000
v 9.700000 5.166750 1.856000
v 9.730000 5.166750 1.856000
v 9.700000 5.160750 1.844000
v 9.730000 5.160750 1.844000
v 9.700000 5.166750 1.844000
v 9.730000 5.166750 1.844000
vn -0.0000 0.6700 0.7423
vn -0.0000 -0.6700 0.7423
vn 0.2539 -0.6700 0.6976
vn 0.2539 0.6700 0.6976
vn 0.4772 -0.6700 0.5686
vn 0.4772 0.6700 0.5686
vn 0.6429 -0.6700 0.3712
vn 0.6429 0.6700 0.3712
vn 0.7311 -0.6700 0.1289
vn 0.7311 0.6700 0.1289
vn 0.7311 -0.6700 -0.1289
vn 0.7311 0.6700 -0.1289
vn 0.6429 -0.6700 -0.3712
vn 0.6429 0.6700 -0.3712
vn 0.4772 -0.6700 -0.5686
vn 0.4772 0.6700 -0.5686
vn 0.2539 -0.6700 -0.6976
vn 0.2539 0.6700 -0.6976
vn -0.0000 -0.6700 -0.7423
vn -0.0000 0.6700 -0.7423
vn -0.2539 -0.6700 -0.6976
vn -0.2539 0.6700 -0.6976
vn -0.4772 -0.6700 -0.5686
vn -0.4772 0.6700 -0.5686
vn -0.6429 -0.6700 -0.3712
vn -0.6429 0.6700 -0.3712
vn -0.7311 -0.6700 -0.1289
vn -0.7311 0.6700 -0.1289
vn -0.7311 -0.6700 0.1289
vn -0.7311 0.6700 0.1289
vn -0.6429 -0.6700 0.3712
vn -0.6429 0.6700 0.3712
vn -0.4772 -0.6700 0.5686
vn -0.4772 0.6700 0.5686
vn -0.2539 -0.6700 0.6976
vn -0.2539 0.6700 0.6976
vn 0.0871 -0.0000 0.9962
vn 0.2588 -0.0000 0.9659
vn 0.4226 -0.0000 0.9063
vn 0.5736 -0.0000 0.8191
vn 0.7071 -0.0000 0.7071
vn 0.8192 -0.0000 0.5736
vn 0.9063 -0.0000 0.4226
vn 0.9659 -0.0000 0.2588
vn 0.9962 -0.0000 0.0872
vn 0.9962 -0.0000 -0.0872
vn 0.9659 -0.0000 -0.2588
vn 0.9063 -0.0000 -0.4226
vn 0.8192 -0.0000 -0.5736
vn 0.7071 -0.0000 -0.7071
vn 0.5736 -0.0000 -0.8191
vn 0.4226 -0.0000 -0.9063
vn 0.2588 -0.0000 -0.9659
vn 0.0872 -0.0000 -0.9962
vn -0.0872 -0.0000 -0.9962
vn -0.2588 -0.0000 -0.9659
vn -0.4226 -0.0000 -0.9063
vn -0.5736 -0.0000 -0.8191
vn -0.7071 -0.0000 -0.7071
vn -0.8192 -0.0000 -0.5736
vn -0.9063 -0.0000 -0.4226
vn -0.9659 -0.0000 -0.2588
vn -0.9962 -0.0000 -0.0872
vn -0.9962 -0.0000 0.0872
vn -0.9659 -0.0000 0.2588
vn -0.9063 -0.0000 0.4226
vn -0.8192 -0.0000 0.5736
vn -0.7071 -0.0000 0.7071
vn -0.5736 -0.0000 0.8191
vn -0.4226 -0.0000 0.9063
vn -0.0000 -1.0000 -0.0000
vn -0.2588 -0.0000 0.9659
vn -0.0871 -0.0000 0.9962
vn -0.0000 1.0000 -0.0000
vn -1.0000 -0.0000 -0.0000
vn 1.0000 -0.0000 -0.0000
vn -0.0000 -0.0000 -1.0000
vn -0.0000 -0.0000 1.0000
vn -0.7660 -0.0000 0.6428
vn 0.7660 -0.0000 -0.6428
vn -0.6428 -0.0000 -0.7660
vn 0.6428 -0.0000 0.7660
vn -0.0000 0.6880 0.7257
vn -0.0000 -0.6880 0.7257
vn 0.1260 -0.6880 0.7147
vn 0.1260 0.6880 0.7147
vn 0.2482 -0.6880 0.6819
vn 0.2482 0.6880 0.6819
vn 0.3628 -0.6880 0.6285
vn 0.3628 0.6880 0.6285
vn 0.4665 -0.6880 0.5559
vn 0.4665 0.6880 0.5559
vn 0.5559 -0.6880 0.4665
vn 0.5559 0.6880 0.4665
vn 0.6285 -0.6880 0.3629
vn 0.6285 0.6880 0.3629
vn 0.6819 -0.6880 0.2482
vn 0.6819 0.6880 0.2482
vn 0.7147 -0.6880 0.1260
vn 0.7147 0.6880 0.1260
vn 0.7257 -0.6880 -0.0000
vn 0.7257 0.6880 -0.0000
vn 0.7147 -0.6880 -0.1260
vn 0.7147 0.6880 -0.1260
vn 0.6819 -0.6880 -0.2482
vn 0.6819 0.6880 -0.2482
vn 0.6285 -0.6880 -0.3629
vn 0.6285 0.6880 -0.3629
vn 0.5559 -0.6880 -0.4665
vn 0.5559 0.6880 -0.4665
vn 0.4665 -0.6880 -0.5559
vn 0.4665 0.6880 -0.5559
vn 0.3628 -0.6880 -0.6285
vn 0.3628 0.6880 -0.6285
vn 0.2482 -0.6880 -0.6819
vn 0.2482 0.6880 -0.6819
vn 0.1260 -0.6880 -0.7147
vn 0.1260 0.6880 -0.7147
vn -0.0000 -0.6880 -0.7257
vn -0.0000 0.6880 -0.7257
vn -0.1260 -0.6880 -0.7147
vn -0.1260 0.6880 -0.7147
vn -0.2482 -0.6880 -0.6819
vn -0.2482 0.6880 -0.6819
vn -0.3628 -0.6880 -0.6285
vn -0.3628 0.6880 -0.6285
vn -0.4665 -0.6880 -0.5559
vn -0.4665 0.6880 -0.5559
vn -0.5559 -0.6880 -0.4665
vn -0.5559 0.6880 -0.4665
vn -0.6285 -0.6880 -0.3629
vn -0.6285 0.6880 -0.3629
vn -0.6819 -0.6880 -0.2482
vn -0.6819 0.6880 -0.2482
vn -0.7147 -0.6880 -0.1260
vn -0.7147 0.6880 -0.1260
vn -0.7257 -0.6880 -0.0000
vn -0.7257 0.6880 -0.0000
vn -0.7147 -0.6880 0.1260
vn -0.7147 0.6880 0.1260
vn -0.6819 -0.6880 0.2482
vn -0.6819 0.6880 0.2482
vn -0.6285 -0.6880 0.3629
vn -0.6285 0.6880 0.3629
vn -0.5559 -0.6880 0.4665
vn -0.5559 0.6880 0.4665
vn -0.4665 -0.6880 0.5559
vn -0.4665 0.6880 0.5559
vn -0.3628 -0.6880 0.6285
vn -0.3628 0.6880 0.6285
vn -0.2482 -0.6880 0.6819
vn -0.2482 0.6880 0.6819
vn -0.1260 -0.6880 0.7147
vn -0.1260 0.6880 0.7147
vt 0.811530 0.902079
vt 0.828973 0.902079
vt 0.828973 0.906452
vt 0.811530 0.906452
vt 0.828973 0.911423
vt 0.811530 0.911423
vt 0.828973 0.916394
vt 0.811530 0.916394
vt 0.828973 0.920766
vt 0.811530 0.920766
vt 0.712492 0.887543
vt 0.729935 0.887543
vt 0.729935 0.891184
vt 0.712492 0.891184
vt 0.729935 0.895800
vt 0.712492 0.895800
vt 0.729935 0.900837
vt 0.712492 0.900837
vt 0.729935 0.905686
vt 0.712492 0.905686
vt 0.729935 0.909763
vt 0.712492 0.909763
vt 0.754694 0.909778
vt 0.737251 0.909778
vt 0.737251 0.906103
vt 0.754694 0.906103
vt 0.737251 0.901465
vt 0.754694 0.901465
vt 0.737251 0.896425
vt 0.754694 0.896425
vt 0.737251 0.891591
vt 0.754694 0.891591
vt 0.737251 0.887544
vt 0.754694 0.887544
vt 0.795492 0.920659
vt 0.778049 0.920659
vt 0.778049 0.916043
vt 0.795492 0.916043
vt 0.778049 0.911006
vt 0.795492 0.911006
vt 0.709405 0.801108
vt 0.713777 0.803632
vt 0.717022 0.807500
vt 0.718748 0.812243
vt 0.718748 0.817292
vt 0.717021 0.822035
vt 0.713776 0.825902
vt 0.709404 0.828426
vt 0.704432 0.829302
vt 0.699461 0.828426
vt 0.695089 0.825901
vt 0.691844 0.822034
vt 0.690118 0.817290
vt 0.690118 0.812242
vt 0.691845 0.807498
vt 0.695090 0.803631
vt 0.699462 0.801107
vt 0.704434 0.800231
vt 0.778049 0.906157
vt 0.795492 0.906157
vt 0.778049 0.902079
vt 0.795492 0.902079
vt 0.731036 0.803633
vt 0.735408 0.801108
vt 0.740379 0.800232
vt 0.745351 0.801108
vt 0.749723 0.803632
vt 0.752968 0.807499
vt 0.754695 0.812242
vt 0.754695 0.817291
vt 0.752969 0.822034
vt 0.749724 0.825902
vt 0.745352 0.828426
vt 0.740381 0.829303
vt 0.735409 0.828426
vt 0.731037 0.825903
vt 0.727792 0.822036
vt 0.726065 0.817292
vt 0.726065 0.812244
vt 0.727791 0.807500
vt 0.967270 0.326279
vt 0.996342 0.326279
vt 0.996342 0.354299
vt 0.967270 0.354299
vt 0.996342 0.385300
vt 0.967270 0.385300
vt 0.996342 0.418340
vt 0.967270 0.418340
vt 0.996342 0.452415
vt 0.967270 0.452415
vt 0.996342 0.486490
vt 0.967270 0.486490
vt 0.996342 0.519530
vt 0.967270 0.519530
vt 0.996342 0.550531
vt 0.967270 0.550531
vt 0.996342 0.578550
vt 0.967270 0.578550
vt 0.996342 0.602738
vt 0.967270 0.602738
vt 0.930882 0.326279
vt 0.959953 0.326279
vt 0.959953 0.352914
vt 0.930882 0.352914
vt 0.959953 0.382870
vt 0.930882 0.382870
vt 0.959953 0.415239
vt 0.930882 0.415239
vt 0.959953 0.449037
vt 0.930882 0.449037
vt 0.959953 0.483235
vt 0.930882 0.483235
vt 0.959953 0.516796
vt 0.930882 0.516796
vt 0.959953 0.548700
vt 0.930882 0.548700
vt 0.959953 0.577978
vt 0.930882 0.577978
vt 0.959953 0.603739
vt 0.930882 0.603739
vt 0.996342 0.884674
vt 0.967270 0.884674
vt 0.967270 0.861912
vt 0.996342 0.861912
vt 0.967270 0.835062
vt 0.996342 0.835062
vt 0.967270 0.804939
vt 0.996342 0.804939
vt 0.967270 0.772460
vt 0.996342 0.772460
vt 0.967270 0.738612
vt 0.996342 0.738612
vt 0.967270 0.704422
vt 0.996342 0.704422
vt 0.967270 0.670929
vt 0.996342 0.670929
vt 0.967270 0.639152
vt 0.996342 0.639152
vt 0.967270 0.610055
vt 0.996342 0.610055
vt 0.959953 0.888514
vt 0.930882 0.888514
vt 0.930882 0.861880
vt 0.959953 0.861880
vt 0.930882 0.831924
vt 0.959953 0.831924
vt 0.930882 0.799554
vt 0.959953 0.799554
vt 0.930882 0.765757
vt 0.959953 0.765757
vt 0.930882 0.731559
vt 0.959953 0.731559
vt 0.930882 0.697998
vt 0.959953 0.697998
vt 0.930882 0.666093
vt 0.959953 0.666093
vt 0.767907 0.038399
vt 0.794109 0.060386
vt 0.816096 0.086588
vt 0.833199 0.116211
vt 0.844898 0.148354
vt 0.850838 0.182040
vt 0.850838 0.216245
vt 0.844898 0.249931
vt 0.833200 0.282074
vt 0.816097 0.311696
vt 0.794111 0.337900
vt 0.767907 0.359886
vt 0.738285 0.376990
vt 0.706142 0.388688
vt 0.672456 0.394628
vt 0.638251 0.394628
vt 0.604565 0.388689
vt 0.572422 0.376990
vt 0.542799 0.359887
vt 0.516596 0.337900
vt 0.494610 0.311698
vt 0.477507 0.282075
vt 0.465808 0.249932
vt 0.459868 0.216247
vt 0.459868 0.182041
vt 0.465807 0.148355
vt 0.477506 0.116212
vt 0.494609 0.086590
vt 0.516595 0.060386
vt 0.542799 0.038400
vt 0.572421 0.021297
vt 0.604564 0.009598
vt 0.638250 0.003658
vt 0.672455 0.003658
vt 0.706141 0.009597
vt 0.738284 0.021296
vt 0.930882 0.636816
vt 0.959953 0.636816
vt 0.930882 0.611055
vt 0.959953 0.611055
vt 0.516596 0.458673
vt 0.542799 0.436687
vt 0.572422 0.419584
vt 0.604565 0.407885
vt 0.638251 0.401945
vt 0.672456 0.401945
vt 0.706142 0.407885
vt 0.738285 0.419584
vt 0.767907 0.436687
vt 0.794110 0.458674
vt 0.816097 0.484877
vt 0.833200 0.514500
vt 0.844898 0.546643
vt 0.850838 0.580329
vt 0.850838 0.614534
vt 0.844898 0.648220
vt 0.833199 0.680362
vt 0.816096 0.709985
vt 0.794109 0.736188
vt 0.767907 0.758174
vt 0.738283 0.775277
vt 0.706141 0.786976
vt 0.672455 0.792916
vt 0.638249 0.792916
vt 0.604564 0.786976
vt 0.572421 0.775277
vt 0.542798 0.758174
vt 0.516595 0.736187
vt 0.494609 0.709984
vt 0.477506 0.680361
vt 0.465807 0.648218
vt 0.459868 0.614532
vt 0.459868 0.580327
vt 0.465807 0.546641
vt 0.477507 0.514499
vt 0.494610 0.484876
vt 0.671173 0.881793
vt 0.671173 0.800232
vt 0.682802 0.800232
vt 0.682802 0.881793
vt 0.535648 0.901982
vt 0.535648 0.800232
vt 0.553091 0.800232
vt 0.553091 0.901982
vt 0.652228 0.873594
vt 0.652228 0.800232
vt 0.663856 0.800232
vt 0.663856 0.873594
vt 0.560409 0.901982
vt 0.560409 0.800232
vt 0.577851 0.800232
vt 0.577851 0.901982
vt 0.652228 0.885681
vt 0.663856 0.885681
vt 0.566223 0.922660
vt 0.566223 0.909298
vt 0.577851 0.909298
vt 0.577851 0.922660
vt 0.625966 0.800232
vt 0.625966 0.911583
vt 0.614337 0.911583
vt 0.614337 0.800232
vt 0.459867 0.945590
vt 0.459867 0.800232
vt 0.474403 0.800232
vt 0.474403 0.945590
vt 0.633282 0.911434
vt 0.633282 0.810712
vt 0.644911 0.810712
vt 0.644911 0.911434
vt 0.496255 0.800232
vt 0.496255 0.945590
vt 0.481720 0.945590
vt 0.481720 0.800232
vt 0.547277 0.909299
vt 0.547277 0.920950
vt 0.535648 0.920950
vt 0.535648 0.909299
vt 0.633282 0.800232
vt 0.644911 0.800232
vt 0.585168 0.974265
vt 0.585168 0.800232
vt 0.592436 0.800232
vt 0.592436 0.974265
vt 0.503572 0.974660
vt 0.503572 0.800232
vt 0.512294 0.800232
vt 0.512294 0.974660
vt 0.599752 0.974265
vt 0.599752 0.800232
vt 0.607020 0.800232
vt 0.607020 0.974265
vt 0.519610 0.974660
vt 0.519610 0.800232
vt 0.528332 0.800232
vt 0.528332 0.974660
vt 0.089663 0.916075
vt 0.089663 0.924564
vt 0.082396 0.924564
vt 0.082396 0.916075
vt 0.067811 0.924797
vt 0.067811 0.916075
vt 0.075079 0.916075
vt 0.075079 0.924797
vt 0.858155 0.655420
vt 0.923565 0.655420
vt 0.923565 0.687591
vt 0.858155 0.687591
vt 0.923565 0.723185
vt 0.858155 0.723185
vt 0.923565 0.761119
vt 0.858155 0.761119
vt 0.923565 0.800243
vt 0.858155 0.800243
vt 0.923565 0.839366
vt 0.858155 0.839366
vt 0.923565 0.877301
vt 0.858155 0.877301
vt 0.923565 0.912894
vt 0.858155 0.912894
vt 0.923565 0.945065
vt 0.858155 0.945065
vt 0.923565 0.972835
vt 0.858155 0.972835
vt 0.858155 0.329539
vt 0.923565 0.329539
vt 0.923565 0.360119
vt 0.858155 0.360119
vt 0.923565 0.394513
vt 0.858155 0.394513
vt 0.923565 0.431677
vt 0.858155 0.431677
vt 0.923565 0.470482
vt 0.858155 0.470482
vt 0.923565 0.509747
vt 0.858155 0.509747
vt 0.923565 0.548280
vt 0.858155 0.548280
vt 0.923565 0.584911
vt 0.858155 0.584911
vt 0.923565 0.618526
vt 0.858155 0.618526
vt 0.923565 0.648103
vt 0.858155 0.648103
vt 0.996293 0.318963
vt 0.930882 0.318963
vt 0.930882 0.292828
vt 0.996293 0.292828
vt 0.930882 0.261999
vt 0.996293 0.261999
vt 0.930882 0.227415
vt 0.996293 0.227415
vt 0.930882 0.190124
vt 0.996293 0.190124
vt 0.930882 0.151261
vt 0.996293 0.151261
vt 0.930882 0.112006
vt 0.996293 0.112006
vt 0.930882 0.073551
vt 0.996293 0.073551
vt 0.930882 0.037066
vt 0.996293 0.037066
vt 0.930882 0.003658
vt 0.996293 0.003658
vt 0.923565 0.322223
vt 0.858155 0.322223
vt 0.858155 0.291643
vt 0.923565 0.291643
vt 0.858155 0.257249
vt 0.923565 0.257249
vt 0.858155 0.220084
vt 0.923565 0.220084
vt 0.858155 0.181280
vt 0.923565 0.181280
vt 0.858155 0.142015
vt 0.923565 0.142015
vt 0.858155 0.103482
vt 0.923565 0.103482
vt 0.858155 0.066852
vt 0.923565 0.066852
vt 0.132887 0.480119
vt 0.169792 0.466687
vt 0.208468 0.459867
vt 0.247741 0.459867
vt 0.286417 0.466686
vt 0.323322 0.480118
vt 0.357333 0.499755
vt 0.387418 0.524999
vt 0.412662 0.555084
vt 0.432299 0.589095
vt 0.445731 0.625999
vt 0.452551 0.664676
vt 0.452551 0.703949
vt 0.445731 0.742625
vt 0.432299 0.779530
vt 0.412663 0.813541
vt 0.387419 0.843626
vt 0.357334 0.868870
vt 0.323323 0.888507
vt 0.286418 0.901939
vt 0.247742 0.908759
vt 0.208469 0.908759
vt 0.169793 0.901939
vt 0.132888 0.888507
vt 0.098877 0.868870
vt 0.068792 0.843626
vt 0.043548 0.813542
vt 0.023911 0.779530
vt 0.010479 0.742626
vt 0.003659 0.703950
vt 0.003659 0.664677
vt 0.010479 0.626000
vt 0.023911 0.589096
vt 0.043547 0.555085
vt 0.068791 0.524999
vt 0.098876 0.499756
vt 0.858155 0.033236
vt 0.923565 0.033236
vt 0.858155 0.003658
vt 0.923565 0.003658
vt 0.445731 0.169792
vt 0.452551 0.208468
vt 0.452551 0.247741
vt 0.445731 0.286417
vt 0.432299 0.323322
vt 0.412663 0.357333
vt 0.387419 0.387418
vt 0.357334 0.412662
vt 0.323322 0.432299
vt 0.286418 0.445732
vt 0.247742 0.452551
vt 0.208469 0.452551
vt 0.169792 0.445731
vt 0.132888 0.432299
vt 0.098877 0.412663
vt 0.068792 0.387419
vt 0.043548 0.357334
vt 0.023911 0.323323
vt 0.010479 0.286418
vt 0.003659 0.247742
vt 0.003659 0.208469
vt 0.010478 0.169793
vt 0.023910 0.132888
vt 0.043547 0.098877
vt 0.068791 0.068792
vt 0.098876 0.043548
vt 0.132887 0.023911
vt 0.169792 0.010479
vt 0.208468 0.003659
vt 0.247741 0.003659
vt 0.286417 0.010479
vt 0.323322 0.023911
vt 0.357333 0.043547
vt 0.387418 0.068791
vt 0.412662 0.098876
vt 0.432299 0.132887
vt 0.652228 0.927952
vt 0.652228 0.892998
vt 0.660949 0.892998
vt 0.660949 0.927952
vt 0.762011 0.843839
vt 0.762011 0.800232
vt 0.779454 0.800232
vt 0.779454 0.843839
vt 0.690118 0.868061
vt 0.690118 0.836620
vt 0.698840 0.836620
vt 0.698840 0.868061
vt 0.786770 0.843839
vt 0.786770 0.800232
vt 0.804213 0.800232
vt 0.804213 0.843839
vt 0.690118 0.880148
vt 0.698840 0.880148
vt 0.035735 0.929438
vt 0.035735 0.916075
vt 0.044456 0.916075
vt 0.044456 0.929438
vt 0.845011 0.800232
vt 0.845011 0.831673
vt 0.836290 0.831673
vt 0.836290 0.800232
vt 0.828973 0.800232
vt 0.828973 0.843839
vt 0.811530 0.843839
vt 0.811530 0.800232
vt 0.682802 0.889110
vt 0.682802 0.924065
vt 0.674080 0.924065
vt 0.674080 0.889110
vt 0.754694 0.836620
vt 0.754694 0.880227
vt 0.737252 0.880227
vt 0.737252 0.836620
vt 0.051773 0.929437
vt 0.051773 0.916075
vt 0.060494 0.916075
vt 0.060494 0.929437
vt 0.836290 0.843760
vt 0.845011 0.843760
vt 0.845011 0.863653
vt 0.845011 0.893869
vt 0.836290 0.893869
vt 0.836290 0.863653
vt 0.729934 0.836620
vt 0.729934 0.880227
vt 0.712491 0.880227
vt 0.712491 0.836620
vt 0.836290 0.934591
vt 0.836290 0.901186
vt 0.845011 0.901186
vt 0.845011 0.934591
vt 0.811530 0.894763
vt 0.811530 0.851156
vt 0.828973 0.851156
vt 0.828973 0.894763
vt 0.836290 0.851076
vt 0.845011 0.851076
vt 0.012380 0.916075
vt 0.012380 0.930058
vt 0.003658 0.930058
vt 0.003658 0.916075
vt 0.770732 0.902079
vt 0.770732 0.935484
vt 0.762011 0.935484
vt 0.762011 0.902079
vt 0.786771 0.894763
vt 0.786771 0.851156
vt 0.804214 0.851156
vt 0.804214 0.894763
vt 0.690118 0.930257
vt 0.690118 0.900040
vt 0.698840 0.900040
vt 0.698840 0.930257
vt 0.779454 0.851156
vt 0.779454 0.894763
vt 0.762011 0.894763
vt 0.762011 0.851156
vt 0.028418 0.916075
vt 0.028418 0.930058
vt 0.019697 0.930058
vt 0.019697 0.916075
vt 0.690118 0.887464
vt 0.698840 0.887464
s 1
usemtl exp_R7
f 1/1/1 2/2/2 4/3/3 3/4/4
f 3/4/4 4/3/3 6/5/5 5/6/6
f 5/6/6 6/5/5 8/7/7 7/8/8
f 7/8/8 8/7/7 10/9/9 9/10/10
f 9/11/10 10/12/9 12/13/11 11/14/12
f 11/14/12 12/13/11 14/15/13 13/16/14
f 13/16/14 14/15/13 16/17/15 15/18/16
f 15/18/16 16/17/15 18/19/17 17/20/18
f 17/20/18 18/19/17 20/21/19 19/22/20
f 19/23/20 20/24/19 22/25/21 21/26/22
f 21/26/22 22/25/21 24/27/23 23/28/24
f 23/28/24 24/27/23 26/29/25 25/30/26
f 25/30/26 26/29/25 28/31/27 27/32/28
f 27/32/28 28/31/27 30/33/29 29/34/30
f 29/35/30 30/36/29 32/37/31 31/38/32
f 31/38/32 32/37/31 34/39/33 33/40/34
f 4/41/3 2/42/2 36/43/35 34/44/33 32/45/31 30/46/29 28/47/27 26/48/25 24/49/23 22/50/21 20/51/19 18/52/17 16/53/15 14/54/13 12/55/11 10/56/9 8/57/7 6/58/5
f 33/40/34 34/39/33 36/59/35 35/60/36
f 35/60/36 36/59/35 2/61/2 1/62/1
f 1/63/1 3/64/4 5/65/6 7/66/8 9/67/10 11/68/12 13/69/14 15/70/16 17/71/18 19/72/20 21/73/22 23/74/24 25/75/26 27/76/28 29/77/30 31/78/32 33/79/34 35/80/36
s 0
f 37/81/37 38/82/37 40/83/37 39/84/37
f 39/84/38 40/83/38 42/85/38 41/86/38
f 41/86/39 42/85/39 44/87/39 43/88/39
f 43/88/40 44/87/40 46/89/40 45/90/40
f 45/90/41 46/89/41 48/91/41 47/92/41
f 47/92/42 48/91/42 50/93/42 49/94/42
f 49/94/43 50/93/43 52/95/43 51/96/43
f 51/96/44 52/95/44 54/97/44 53/98/44
f 53/98/45 54/97/45 56/99/45 55/100/45
f 55/101/46 56/102/46 58/103/46 57/104/46
f 57/104/47 58/103/47 60/105/47 59/106/47
f 59/106/48 60/105/48 62/107/48 61/108/48
f 61/108/49 62/107/49 64/109/49 63/110/49
f 63/110/50 64/109/50 66/111/50 65/112/50
f 65/112/51 66/111/51 68/113/51 67/114/51
f 67/114/52 68/113/52 70/115/52 69/116/52
f 69/116/53 70/115/53 72/117/53 71/118/53
f 71/118/54 72/117/54 74/119/54 73/120/54
f 73/121/55 74/122/55 76/123/55 75/124/55
f 75/124/56 76/123/56 78/125/56 77/126/56
f 77/126/57 78/125/57 80/127/57 79/128/57
f 79/128/58 80/127/58 82/129/58 81/130/58
f 81/130/59 82/129/59 84/131/59 83/132/59
f 83/132/60 84/131/60 86/133/60 85/134/60
f 85/134/61 86/133/61 88/135/61 87/136/61
f 87/136/62 88/135/62 90/137/62 89/138/62
f 89/138/63 90/137/63 92/139/63 91/140/63
f 91/141/64 92/142/64 94/143/64 93/144/64
f 93/144/65 94/143/65 96/145/65 95/146/65
f 95/146/66 96/145/66 98/147/66 97/148/66
f 97/148/67 98/147/67 100/149/67 99/150/67
f 99/150/68 100/149/68 102/151/68 101/152/68
f 101/152/69 102/151/69 104/153/69 103/154/69
f 103/154/70 104/153/70 106/155/70 105/156/70
f 40/157/71 38/158/71 108/159/71 106/160/71 104/161/71 102/162/71 100/163/71 98/164/71 96/165/71 94/166/71 92/167/71 90/168/71 88/169/71 86/170/71 84/171/71 82/172/71 80/173/71 78/174/71 76/175/71 74/176/71 72/177/71 70/178/71 68/179/71 66/180/71 64/181/71 62/182/71 60/183/71 58/184/71 56/185/71 54/186/71 52/187/71 50/188/71 48/189/71 46/190/71 44/191/71 42/192/71
f 105/156/72 106/155/72 108/193/72 107/194/72
f 107/194/73 108/193/73 38/195/73 37/196/73
f 37/197/74 39/198/74 41/199/74 43/200/74 45/201/74 47/202/74 49/203/74 51/204/74 53/205/74 55/206/74 57/207/74 59/208/74 61/209/74 63/210/74 65/211/74 67/212/74 69/213/74 71/214/74 73/215/74 75/216/74 77/217/74 79/218/74 81/219/74 83/220/74 85/221/74 87/222/74 89/223/74 91/224/74 93/225/74 95/226/74 97/227/74 99/228/74 101/229/74 103/230/74 105/231/74 107/232/74
f 109/233/75 110/234/75 112/235/75 111/236/75
f 111/237/74 112/238/74 116/239/74 115/240/74
f 115/241/76 116/242/76 114/243/76 113/244/76
f 113/245/71 114/246/71 110/247/71 109/248/71
f 111/249/77 115/241/77 113/244/77 109/250/77
f 116/251/78 112/252/78 110/253/78 114/254/78
f 117/255/78 118/256/78 120/257/78 119/258/78
f 119/259/74 120/260/74 124/261/74 123/262/74
f 123/263/77 124/264/77 122/265/77 121/266/77
f 121/267/71 122/268/71 118/269/71 117/270/71
f 119/271/75 123/272/75 121/273/75 117/274/75
f 124/264/76 120/275/76 118/276/76 122/265/76
f 125/277/79 126/278/79 128/279/79 127/280/79
f 127/281/74 128/282/74 132/283/74 131/284/74
f 131/285/80 132/286/80 130/287/80 129/288/80
f 129/289/71 130/290/71 126/291/71 125/292/71
f 127/293/81 131/294/81 129/295/81 125/296/81
f 132/297/82 128/298/82 126/299/82 130/300/82
s 1
f 133/301/83 134/302/84 136/303/85 135/304/86
f 135/304/86 136/303/85 138/305/87 137/306/88
f 137/306/88 138/305/87 140/307/89 139/308/90
f 139/308/90 140/307/89 142/309/91 141/310/92
f 141/310/92 142/309/91 144/311/93 143/312/94
f 143/312/94 144/311/93 146/313/95 145/314/96
f 145/314/96 146/313/95 148/315/97 147/316/98
f 147/316/98 148/315/97 150/317/99 149/318/100
f 149/318/100 150/317/99 152/319/101 151/320/102
f 151/321/102 152/322/101 154/323/103 153/324/104
f 153/324/104 154/323/103 156/325/105 155/326/106
f 155/326/106 156/325/105 158/327/107 157/328/108
f 157/328/108 158/327/107 160/329/109 159/330/110
f 159/330/110 160/329/109 162/331/111 161/332/112
f 161/332/112 162/331/111 164/333/113 163/334/114
f 163/334/114 164/333/113 166/335/115 165/336/116
f 165/336/116 166/335/115 168/337/117 167/338/118
f 167/338/118 168/337/117 170/339/119 169/340/120
f 169/341/120 170/342/119 172/343/121 171/344/122
f 171/344/122 172/343/121 174/345/123 173/346/124
f 173/346/124 174/345/123 176/347/125 175/348/126
f 175/348/126 176/347/125 178/349/127 177/350/128
f 177/350/128 178/349/127 180/351/129 179/352/130
f 179/352/130 180/351/129 182/353/131 181/354/132
f 181/354/132 182/353/131 184/355/133 183/356/134
f 183/356/134 184/355/133 186/357/135 185/358/136
f 185/358/136 186/357/135 188/359/137 187/360/138
f 187/361/138 188/362/137 190/363/139 189/364/140
f 189/364/140 190/363/139 192/365/141 191/366/142
f 191/366/142 192/365/141 194/367/143 193/368/144
f 193/368/144 194/367/143 196/369/145 195/370/146
f 195/370/146 196/369/145 198/371/147 197/372/148
f 197/372/148 198/371/147 200/373/149 199/374/150
f 199/374/150 200/373/149 202/375/151 201/376/152
f 136/377/85 134/378/84 204/379/153 202/380/151 200/381/149 198/382/147 196/383/145 194/384/143 192/385/141 190/386/139 188/387/137 186/388/135 184/389/133 182/390/131 180/391/129 178/392/127 176/393/125 174/394/123 172/395/121 170/396/119 168/397/117 166/398/115 164/399/113 162/400/111 160/401/109 158/402/107 156/403/105 154/404/103 152/405/101 150/406/99 148/407/97 146/408/95 144/409/93 142/410/91 140/411/89 138/412/87
f 201/376/152 202/375/151 204/413/153 203/414/154
f 203/414/154 204/413/153 134/415/84 133/416/83
f 133/417/83 135/418/86 137/419/88 139/420/90 141/421/92 143/422/94 145/423/96 147/424/98 149/425/100 151/426/102 153/427/104 155/428/106 157/429/108 159/430/110 161/431/112 163/432/114 165/433/116 167/434/118 169/435/120 171/436/122 173/437/124 175/438/126 177/439/128 179/440/130 181/441/132 183/442/134 185/443/136 187/444/138 189/445/140 191/446/142 193/447/144 195/448/146 197/449/148 199/450/150 201/451/152 203/452/154
s 0
f 205/453/75 206/454/75 208/455/75 207/456/75
f 207/457/74 208/458/74 212/459/74 211/460/74
f 211/461/76 212/462/76 210/463/76 209/464/76
f 209/465/71 210/466/71 206/467/71 205/468/71
f 207/469/77 211/461/77 209/464/77 205/470/77
f 212/471/78 208/472/78 206/473/78 210/474/78
f 213/475/76 214/476/76 216/477/76 215/478/76
f 215/479/74 216/480/74 220/481/74 219/482/74
f 219/483/75 220/484/75 218/485/75 217/486/75
f 217/487/71 218/488/71 214/489/71 213/490/71
f 215/491/78 219/492/78 217/493/78 213/494/78
f 220/495/77 216/477/77 214/476/77 218/496/77
f 221/497/77 222/498/77 224/499/77 223/500/77
f 223/501/74 224/502/74 228/503/74 227/504/74
f 227/505/78 228/506/78 226/507/78 225/508/78
f 225/509/71 226/510/71 222/511/71 221/512/71
f 223/500/76 227/513/76 225/514/76 221/497/76
f 228/515/75 224/516/75 222/517/75 226/518/75
f 229/519/78 230/520/78 232/521/78 231/522/78
f 231/523/74 232/524/74 236/525/74 235/526/74
f 235/527/77 236/528/77 234/529/77 233/530/77
f 233/531/71 234/532/71 230/533/71 229/534/71
f 231/535/75 235/536/75 233/537/75 229/538/75
f 236/528/76 232/539/76 230/540/76 234/529/76
