# Blender 5.1.1
# www.blender.org
mtllib A1B_final.mtl
o A1B_final.001
v -0.132000 -0.400000 0.000000
v -0.132000 -0.400000 2.020000
v -0.140000 -0.400000 0.000000
v -0.140000 -0.400000 2.020000
v -0.132000 0.400000 0.000000
v -0.132000 0.400000 2.020000
v -0.140000 0.400000 0.000000
v -0.140000 0.400000 2.020000
v 0.100000 -0.367500 1.440000
v 0.100000 -0.367500 1.510000
v -0.060000 -0.367500 1.440000
v -0.060000 -0.367500 1.510000
v 0.100000 -0.262500 1.440000
v 0.100000 -0.262500 1.510000
v -0.060000 -0.262500 1.440000
v -0.060000 -0.262500 1.510000
v 0.100000 -0.242500 1.440000
v 0.100000 -0.242500 1.510000
v -0.060000 -0.242500 1.440000
v -0.060000 -0.242500 1.510000
v 0.100000 -0.137500 1.440000
v 0.100000 -0.137500 1.510000
v -0.060000 -0.137500 1.440000
v -0.060000 -0.137500 1.510000
v 0.100000 -0.117500 1.440000
v 0.100000 -0.117500 1.510000
v -0.060000 -0.117500 1.440000
v -0.060000 -0.117500 1.510000
v 0.100000 -0.012500 1.440000
v 0.100000 -0.012500 1.510000
v -0.060000 -0.012500 1.440000
v -0.060000 -0.012500 1.510000
v 0.100000 0.007500 1.440000
v 0.100000 0.007500 1.510000
v -0.060000 0.007500 1.440000
v -0.060000 0.007500 1.510000
v 0.100000 0.112500 1.440000
v 0.100000 0.112500 1.510000
v -0.060000 0.112500 1.440000
v -0.060000 0.112500 1.510000
v 0.100000 0.132500 1.440000
v 0.100000 0.132500 1.510000
v -0.060000 0.132500 1.440000
v -0.060000 0.132500 1.510000
v 0.100000 0.237500 1.440000
v 0.100000 0.237500 1.510000
v -0.060000 0.237500 1.440000
v -0.060000 0.237500 1.510000
v 0.100000 0.257500 1.440000
v 0.100000 0.257500 1.510000
v -0.060000 0.257500 1.440000
v -0.060000 0.257500 1.510000
v 0.100000 0.362500 1.440000
v 0.100000 0.362500 1.510000
v -0.060000 0.362500 1.440000
v -0.060000 0.362500 1.510000
v 0.100000 -0.367500 1.525000
v 0.100000 -0.367500 1.595000
v -0.060000 -0.367500 1.525000
v -0.060000 -0.367500 1.595000
v 0.100000 -0.262500 1.525000
v 0.100000 -0.262500 1.595000
v -0.060000 -0.262500 1.525000
v -0.060000 -0.262500 1.595000
v 0.100000 -0.242500 1.525000
v 0.100000 -0.242500 1.595000
v -0.060000 -0.242500 1.525000
v -0.060000 -0.242500 1.595000
v 0.100000 -0.137500 1.525000
v 0.100000 -0.137500 1.595000
v -0.060000 -0.137500 1.525000
v -0.060000 -0.137500 1.595000
v 0.100000 -0.117500 1.525000
v 0.100000 -0.117500 1.595000
v -0.060000 -0.117500 1.525000
v -0.060000 -0.117500 1.595000
v 0.100000 -0.012500 1.525000
v 0.100000 -0.012500 1.595000
v -0.060000 -0.012500 1.525000
v -0.060000 -0.012500 1.595000
v 0.100000 0.007500 1.525000
v 0.100000 0.007500 1.595000
v -0.060000 0.007500 1.525000
v -0.060000 0.007500 1.595000
v 0.100000 0.112500 1.525000
v 0.100000 0.112500 1.595000
v -0.060000 0.112500 1.525000
v -0.060000 0.112500 1.595000
v 0.100000 0.132500 1.525000
v 0.100000 0.132500 1.595000
v -0.060000 0.132500 1.525000
v -0.060000 0.132500 1.595000
v 0.100000 0.237500 1.525000
v 0.100000 0.237500 1.595000
v -0.060000 0.237500 1.525000
v -0.060000 0.237500 1.595000
v 0.100000 0.257500 1.525000
v 0.100000 0.257500 1.595000
v -0.060000 0.257500 1.525000
v -0.060000 0.257500 1.595000
v 0.100000 0.362500 1.525000
v 0.100000 0.362500 1.595000
v -0.060000 0.362500 1.525000
v -0.060000 0.362500 1.595000
v 0.140000 -0.400000 0.040000
v 0.140000 -0.400000 0.060000
v -0.140000 -0.400000 0.040000
v -0.140000 -0.400000 0.060000
v 0.140000 0.400000 0.040000
v 0.140000 0.400000 0.060000
v -0.140000 0.400000 0.040000
v -0.140000 0.400000 0.060000
v 0.090000 -0.275000 2.020000
v 0.090000 -0.275000 2.110000
v -0.110000 -0.275000 2.020000
v -0.110000 -0.275000 2.110000
v 0.090000 0.275000 2.020000
v 0.090000 0.275000 2.110000
v -0.110000 0.275000 2.020000
v -0.110000 0.275000 2.110000
v 0.040000 0.030000 0.640000
v 0.040000 0.030000 0.710000
v -0.080000 0.030000 0.640000
v -0.080000 0.030000 0.710000
v 0.040000 0.170000 0.640000
v 0.040000 0.170000 0.710000
v -0.080000 0.170000 0.640000
v -0.080000 0.170000 0.710000
v 0.070000 -0.280000 0.640000
v 0.070000 -0.280000 0.720000
v -0.070000 -0.280000 0.640000
v -0.070000 -0.280000 0.720000
v 0.070000 -0.080000 0.640000
v 0.070000 -0.080000 0.720000
v -0.070000 -0.080000 0.640000
v -0.070000 -0.080000 0.720000
v 0.080000 -0.360000 1.040000
v 0.080000 -0.360000 1.400000
v -0.120000 -0.360000 1.040000
v -0.120000 -0.360000 1.400000
v 0.080000 -0.020000 1.040000
v 0.080000 -0.020000 1.400000
v -0.120000 -0.020000 1.040000
v -0.120000 -0.020000 1.400000
v 0.080000 0.020000 1.040000
v 0.080000 0.020000 1.400000
v -0.120000 0.020000 1.040000
v -0.120000 0.020000 1.400000
v 0.080000 0.360000 1.040000
v 0.080000 0.360000 1.400000
v -0.120000 0.360000 1.040000
v -0.120000 0.360000 1.400000
v 0.100000 -0.350000 1.037500
v 0.100000 -0.350000 1.112500
v 0.070000 -0.350000 1.037500
v 0.070000 -0.350000 1.112500
v 0.100000 -0.250000 1.037500
v 0.100000 -0.250000 1.112500
v 0.070000 -0.250000 1.037500
v 0.070000 -0.250000 1.112500
v 0.100000 -0.240000 1.037500
v 0.100000 -0.240000 1.112500
v 0.070000 -0.240000 1.037500
v 0.070000 -0.240000 1.112500
v 0.100000 -0.140000 1.037500
v 0.100000 -0.140000 1.112500
v 0.070000 -0.140000 1.037500
v 0.070000 -0.140000 1.112500
v 0.100000 -0.130000 1.037500
v 0.100000 -0.130000 1.112500
v 0.070000 -0.130000 1.037500
v 0.070000 -0.130000 1.112500
v 0.100000 -0.030000 1.037500
v 0.100000 -0.030000 1.112500
v 0.070000 -0.030000 1.037500
v 0.070000 -0.030000 1.112500
v 0.100000 -0.350000 1.120500
v 0.100000 -0.350000 1.195500
v 0.070000 -0.350000 1.120500
v 0.070000 -0.350000 1.195500
v 0.100000 -0.250000 1.120500
v 0.100000 -0.250000 1.195500
v 0.070000 -0.250000 1.120500
v 0.070000 -0.250000 1.195500
v 0.100000 -0.240000 1.120500
v 0.100000 -0.240000 1.195500
v 0.070000 -0.240000 1.120500
v 0.070000 -0.240000 1.195500
v 0.100000 -0.140000 1.120500
v 0.100000 -0.140000 1.195500
v 0.070000 -0.140000 1.120500
v 0.070000 -0.140000 1.195500
v 0.100000 -0.130000 1.120500
v 0.100000 -0.130000 1.195500
v 0.070000 -0.130000 1.120500
v 0.070000 -0.130000 1.195500
v 0.100000 -0.030000 1.120500
v 0.100000 -0.030000 1.195500
v 0.070000 -0.030000 1.120500
v 0.070000 -0.030000 1.195500
v 0.100000 -0.350000 1.203500
v 0.100000 -0.350000 1.278500
v 0.070000 -0.350000 1.203500
v 0.070000 -0.350000 1.278500
v 0.100000 -0.250000 1.203500
v 0.100000 -0.250000 1.278500
v 0.070000 -0.250000 1.203500
v 0.070000 -0.250000 1.278500
v 0.100000 -0.240000 1.203500
v 0.100000 -0.240000 1.278500
v 0.070000 -0.240000 1.203500
v 0.070000 -0.240000 1.278500
v 0.100000 -0.140000 1.203500
v 0.100000 -0.140000 1.278500
v 0.070000 -0.140000 1.203500
v 0.070000 -0.140000 1.278500
v 0.100000 -0.130000 1.203500
v 0.100000 -0.130000 1.278500
v 0.070000 -0.130000 1.203500
v 0.070000 -0.130000 1.278500
v 0.100000 -0.030000 1.203500
v 0.100000 -0.030000 1.278500
v 0.070000 -0.030000 1.203500
v 0.070000 -0.030000 1.278500
v 0.100000 -0.350000 1.286500
v 0.100000 -0.350000 1.361500
v 0.070000 -0.350000 1.286500
v 0.070000 -0.350000 1.361500
v 0.100000 -0.250000 1.286500
v 0.100000 -0.250000 1.361500
v 0.070000 -0.250000 1.286500
v 0.070000 -0.250000 1.361500
v 0.100000 -0.240000 1.286500
v 0.100000 -0.240000 1.361500
v 0.070000 -0.240000 1.286500
v 0.070000 -0.240000 1.361500
v 0.100000 -0.140000 1.286500
v 0.100000 -0.140000 1.361500
v 0.070000 -0.140000 1.286500
v 0.070000 -0.140000 1.361500
v 0.100000 -0.130000 1.286500
v 0.100000 -0.130000 1.361500
v 0.070000 -0.130000 1.286500
v 0.070000 -0.130000 1.361500
v 0.100000 -0.030000 1.286500
v 0.100000 -0.030000 1.361500
v 0.070000 -0.030000 1.286500
v 0.070000 -0.030000 1.361500
v 0.100000 0.030000 1.037500
v 0.100000 0.030000 1.112500
v 0.070000 0.030000 1.037500
v 0.070000 0.030000 1.112500
v 0.100000 0.130000 1.037500
v 0.100000 0.130000 1.112500
v 0.070000 0.130000 1.037500
v 0.070000 0.130000 1.112500
v 0.100000 0.140000 1.037500
v 0.100000 0.140000 1.112500
v 0.070000 0.140000 1.037500
v 0.070000 0.140000 1.112500
v 0.100000 0.240000 1.037500
v 0.100000 0.240000 1.112500
v 0.070000 0.240000 1.037500
v 0.070000 0.240000 1.112500
v 0.100000 0.250000 1.037500
v 0.100000 0.250000 1.112500
v 0.070000 0.250000 1.037500
v 0.070000 0.250000 1.112500
v 0.100000 0.350000 1.037500
v 0.100000 0.350000 1.112500
v 0.070000 0.350000 1.037500
v 0.070000 0.350000 1.112500
v 0.100000 0.030000 1.120500
v 0.100000 0.030000 1.195500
v 0.070000 0.030000 1.120500
v 0.070000 0.030000 1.195500
v 0.100000 0.130000 1.120500
v 0.100000 0.130000 1.195500
v 0.070000 0.130000 1.120500
v 0.070000 0.130000 1.195500
v 0.100000 0.140000 1.120500
v 0.100000 0.140000 1.195500
v 0.070000 0.140000 1.120500
v 0.070000 0.140000 1.195500
v 0.100000 0.240000 1.120500
v 0.100000 0.240000 1.195500
v 0.070000 0.240000 1.120500
v 0.070000 0.240000 1.195500
v 0.100000 0.250000 1.120500
v 0.100000 0.250000 1.195500
v 0.070000 0.250000 1.120500
v 0.070000 0.250000 1.195500
v 0.100000 0.350000 1.120500
v 0.100000 0.350000 1.195500
v 0.070000 0.350000 1.120500
v 0.070000 0.350000 1.195500
v 0.100000 0.030000 1.203500
v 0.100000 0.030000 1.278500
v 0.070000 0.030000 1.203500
v 0.070000 0.030000 1.278500
v 0.100000 0.130000 1.203500
v 0.100000 0.130000 1.278500
v 0.070000 0.130000 1.203500
v 0.070000 0.130000 1.278500
v 0.100000 0.140000 1.203500
v 0.100000 0.140000 1.278500
v 0.070000 0.140000 1.203500
v 0.070000 0.140000 1.278500
v 0.100000 0.240000 1.203500
v 0.100000 0.240000 1.278500
v 0.070000 0.240000 1.203500
v 0.070000 0.240000 1.278500
v 0.100000 0.250000 1.203500
v 0.100000 0.250000 1.278500
v 0.070000 0.250000 1.203500
v 0.070000 0.250000 1.278500
v 0.100000 0.350000 1.203500
v 0.100000 0.350000 1.278500
v 0.070000 0.350000 1.203500
v 0.070000 0.350000 1.278500
v 0.100000 0.030000 1.286500
v 0.100000 0.030000 1.361500
v 0.070000 0.030000 1.286500
v 0.070000 0.030000 1.361500
v 0.100000 0.130000 1.286500
v 0.100000 0.130000 1.361500
v 0.070000 0.130000 1.286500
v 0.070000 0.130000 1.361500
v 0.100000 0.140000 1.286500
v 0.100000 0.140000 1.361500
v 0.070000 0.140000 1.286500
v 0.070000 0.140000 1.361500
v 0.100000 0.240000 1.286500
v 0.100000 0.240000 1.361500
v 0.070000 0.240000 1.286500
v 0.070000 0.240000 1.361500
v 0.100000 0.250000 1.286500
v 0.100000 0.250000 1.361500
v 0.070000 0.250000 1.286500
v 0.070000 0.250000 1.361500
v 0.100000 0.350000 1.286500
v 0.100000 0.350000 1.361500
v 0.070000 0.350000 1.286500
v 0.070000 0.350000 1.361500
v 0.130000 -0.380000 0.611000
v 0.130000 -0.380000 0.629000
v -0.130000 -0.380000 0.611000
v -0.130000 -0.380000 0.629000
v 0.130000 0.380000 0.611000
v 0.130000 0.380000 0.629000
v -0.130000 0.380000 0.611000
v -0.130000 0.380000 0.629000
v 0.130000 -0.380000 1.011000
v 0.130000 -0.380000 1.029000
v -0.130000 -0.380000 1.011000
v -0.130000 -0.380000 1.029000
v 0.130000 0.380000 1.011000
v 0.130000 0.380000 1.029000
v -0.130000 0.380000 1.011000
v -0.130000 0.380000 1.029000
v 0.130000 -0.380000 1.411000
v 0.130000 -0.380000 1.429000
v -0.130000 -0.380000 1.411000
v -0.130000 -0.380000 1.429000
v 0.130000 0.380000 1.411000
v 0.130000 0.380000 1.429000
v -0.130000 0.380000 1.411000
v -0.130000 0.380000 1.429000
v 0.130000 -0.380000 1.711000
v 0.130000 -0.380000 1.729000
v -0.130000 -0.380000 1.711000
v -0.130000 -0.380000 1.729000
v 0.130000 0.380000 1.711000
v 0.130000 0.380000 1.729000
v -0.130000 0.380000 1.711000
v -0.130000 0.380000 1.729000
v 0.140000 -0.400000 0.000000
v 0.140000 -0.400000 2.020000
v -0.140000 -0.400000 0.000000
v -0.140000 -0.400000 2.020000
v 0.140000 -0.380000 0.000000
v 0.140000 -0.380000 2.020000
v -0.140000 -0.380000 0.000000
v -0.140000 -0.380000 2.020000
v 0.140000 0.380000 0.000000
v 0.140000 0.380000 2.020000
v -0.140000 0.380000 0.000000
v -0.140000 0.380000 2.020000
v 0.140000 0.400000 0.000000
v 0.140000 0.400000 2.020000
v -0.140000 0.400000 0.000000
v -0.140000 0.400000 2.020000
v 0.140000 -0.400000 2.000000
v 0.140000 -0.400000 2.020000
v -0.140000 -0.400000 2.000000
v -0.140000 -0.400000 2.020000
v 0.140000 0.400000 2.000000
v 0.140000 0.400000 2.020000
v -0.140000 0.400000 2.000000
v -0.140000 0.400000 2.020000
v 0.130000 -0.350000 0.070000
v 0.130000 -0.350000 0.370000
v -0.110000 -0.350000 0.070000
v -0.110000 -0.350000 0.370000
v 0.130000 -0.020000 0.070000
v 0.130000 -0.020000 0.370000
v -0.110000 -0.020000 0.070000
v -0.110000 -0.020000 0.370000
v 0.130000 0.020000 0.070000
v 0.130000 0.020000 0.370000
v -0.110000 0.020000 0.070000
v -0.110000 0.020000 0.370000
v 0.130000 0.350000 0.070000
v 0.130000 0.350000 0.370000
v -0.110000 0.350000 0.070000
v -0.110000 0.350000 0.370000
vn -0.0000 -1.0000 -0.0000
vn -1.0000 -0.0000 -0.0000
vn -0.0000 1.0000 -0.0000
vn 1.0000 -0.0000 -0.0000
vn -0.0000 -0.0000 -1.0000
vn -0.0000 -0.0000 1.0000
vt 0.789352 0.405626
vt 0.789352 0.008140
vt 0.790926 0.008140
vt 0.790926 0.405626
vt 0.008140 0.405626
vt 0.008140 0.008140
vt 0.165560 0.008140
vt 0.165560 0.405626
vt 0.807206 0.405626
vt 0.807206 0.008140
vt 0.808780 0.008140
vt 0.808780 0.405626
vt 0.181840 0.405626
vt 0.181840 0.008140
vt 0.339260 0.008140
vt 0.339260 0.405626
vt 0.866671 0.173969
vt 0.866671 0.331389
vt 0.865097 0.331389
vt 0.865097 0.173969
vt 0.867459 0.587735
vt 0.867459 0.745155
vt 0.865884 0.745155
vt 0.865884 0.587735
vt 0.158319 0.887017
vt 0.144545 0.887017
vt 0.144545 0.855533
vt 0.158319 0.855533
vt 0.307422 0.955981
vt 0.293648 0.955981
vt 0.293648 0.935319
vt 0.307422 0.935319
vt 0.838834 0.387024
vt 0.825060 0.387024
vt 0.825060 0.355540
vt 0.838834 0.355540
vt 0.582200 0.921991
vt 0.568425 0.921991
vt 0.568425 0.901330
vt 0.582200 0.901330
vt 0.770658 0.785586
vt 0.749997 0.785586
vt 0.749997 0.754102
vt 0.770658 0.754102
vt 0.314309 0.787554
vt 0.293648 0.787554
vt 0.293648 0.756070
vt 0.314309 0.756070
vt 0.195260 0.887017
vt 0.181486 0.887017
vt 0.181486 0.855533
vt 0.195260 0.855533
vt 0.763771 0.954013
vt 0.749997 0.954013
vt 0.749997 0.933352
vt 0.763771 0.933352
vt 0.856347 0.864296
vt 0.842573 0.864296
vt 0.842573 0.832812
vt 0.856347 0.832812
vt 0.948373 0.645338
vt 0.934599 0.645338
vt 0.934599 0.624677
vt 0.948373 0.624677
vt 0.826293 0.792919
vt 0.805632 0.792919
vt 0.805632 0.761435
vt 0.826293 0.761435
vt 0.651517 0.826909
vt 0.630856 0.826909
vt 0.630856 0.795425
vt 0.651517 0.795425
vt 0.225315 0.887017
vt 0.211540 0.887017
vt 0.211540 0.855533
vt 0.225315 0.855533
vt 0.954276 0.439170
vt 0.940502 0.439170
vt 0.940502 0.418508
vt 0.954276 0.418508
vt 0.868888 0.387024
vt 0.855114 0.387024
vt 0.855114 0.355540
vt 0.868888 0.355540
vt 0.954276 0.476111
vt 0.940502 0.476111
vt 0.940502 0.455450
vt 0.954276 0.455450
vt 0.770658 0.833350
vt 0.749997 0.833350
vt 0.749997 0.801866
vt 0.770658 0.801866
vt 0.028801 0.834780
vt 0.008140 0.834780
vt 0.008140 0.803296
vt 0.028801 0.803296
vt 0.819406 0.888447
vt 0.805632 0.888447
vt 0.805632 0.856963
vt 0.819406 0.856963
vt 0.954276 0.513052
vt 0.940502 0.513052
vt 0.940502 0.492391
vt 0.954276 0.492391
vt 0.613146 0.872167
vt 0.599372 0.872167
vt 0.599372 0.840683
vt 0.613146 0.840683
vt 0.954276 0.549994
vt 0.940502 0.549994
vt 0.940502 0.529332
vt 0.954276 0.529332
vt 0.314309 0.835318
vt 0.293648 0.835318
vt 0.293648 0.803834
vt 0.314309 0.803834
vt 0.351251 0.835318
vt 0.330589 0.835318
vt 0.330589 0.803834
vt 0.351251 0.803834
vt 0.446241 0.888985
vt 0.432467 0.888985
vt 0.432467 0.857501
vt 0.446241 0.857501
vt 0.948373 0.682279
vt 0.934599 0.682279
vt 0.934599 0.661618
vt 0.948373 0.661618
vt 0.269641 0.874135
vt 0.255867 0.874135
vt 0.255867 0.842651
vt 0.269641 0.842651
vt 0.021914 0.955443
vt 0.008140 0.955443
vt 0.008140 0.934781
vt 0.021914 0.934781
vt 0.388192 0.835318
vt 0.367531 0.835318
vt 0.367531 0.803834
vt 0.388192 0.803834
vt 0.707152 0.837286
vt 0.686491 0.837286
vt 0.686491 0.805802
vt 0.707152 0.805802
vt 0.483182 0.888985
vt 0.469408 0.888985
vt 0.469408 0.857501
vt 0.483182 0.857501
vt 0.238643 0.923959
vt 0.224869 0.923959
vt 0.224869 0.903297
vt 0.238643 0.903297
vt 0.644630 0.874673
vt 0.630856 0.874673
vt 0.630856 0.843189
vt 0.644630 0.843189
vt 0.338460 0.955981
vt 0.324686 0.955981
vt 0.324686 0.935319
vt 0.338460 0.935319
vt 0.351251 0.787554
vt 0.330589 0.787554
vt 0.330589 0.756070
vt 0.351251 0.756070
vt 0.389622 0.787554
vt 0.368961 0.787554
vt 0.368961 0.756070
vt 0.389622 0.756070
vt 0.763771 0.881114
vt 0.749997 0.881114
vt 0.749997 0.849630
vt 0.763771 0.849630
vt 0.947494 0.925389
vt 0.933719 0.925389
vt 0.933719 0.904727
vt 0.947494 0.904727
vt 0.021914 0.882544
vt 0.008140 0.882544
vt 0.008140 0.851060
vt 0.021914 0.851060
vt 0.947638 0.782097
vt 0.933864 0.782097
vt 0.933864 0.761435
vt 0.947638 0.761435
vt 0.453128 0.793457
vt 0.432467 0.793457
vt 0.432467 0.761973
vt 0.453128 0.761973
vt 0.490069 0.793457
vt 0.469408 0.793457
vt 0.469408 0.761973
vt 0.490069 0.761973
vt 0.307422 0.883082
vt 0.293648 0.883082
vt 0.293648 0.851598
vt 0.307422 0.851598
vt 0.949803 0.356524
vt 0.936028 0.356524
vt 0.936028 0.335863
vt 0.949803 0.335863
vt 0.337477 0.883082
vt 0.323702 0.883082
vt 0.323702 0.851598
vt 0.337477 0.851598
vt 0.949803 0.393465
vt 0.936028 0.393465
vt 0.936028 0.372804
vt 0.949803 0.372804
vt 0.084436 0.839254
vt 0.063775 0.839254
vt 0.063775 0.807769
vt 0.084436 0.807769
vt 0.128265 0.839254
vt 0.107603 0.839254
vt 0.107603 0.807769
vt 0.128265 0.807769
vt 0.381305 0.883082
vt 0.367531 0.883082
vt 0.367531 0.851598
vt 0.381305 0.851598
vt 0.949553 0.028801
vt 0.935779 0.028801
vt 0.935779 0.008140
vt 0.949553 0.008140
vt 0.520124 0.885050
vt 0.506349 0.885050
vt 0.506349 0.853566
vt 0.520124 0.853566
vt 0.949553 0.065743
vt 0.935779 0.065743
vt 0.935779 0.045081
vt 0.949553 0.045081
vt 0.165206 0.839254
vt 0.144545 0.839254
vt 0.144545 0.807769
vt 0.165206 0.807769
vt 0.202147 0.839254
vt 0.181486 0.839254
vt 0.181486 0.807769
vt 0.202147 0.807769
vt 0.550178 0.885050
vt 0.536403 0.885050
vt 0.536403 0.853566
vt 0.550178 0.853566
vt 0.949553 0.102684
vt 0.935779 0.102684
vt 0.935779 0.082023
vt 0.949553 0.082023
vt 0.580232 0.885050
vt 0.566458 0.885050
vt 0.566458 0.853566
vt 0.580232 0.853566
vt 0.949553 0.139625
vt 0.935779 0.139625
vt 0.935779 0.118964
vt 0.949553 0.118964
vt 0.239089 0.839254
vt 0.218427 0.839254
vt 0.218427 0.807769
vt 0.239089 0.807769
vt 0.826293 0.840683
vt 0.805632 0.840683
vt 0.805632 0.809199
vt 0.826293 0.809199
vt 0.700265 0.885050
vt 0.686491 0.885050
vt 0.686491 0.853566
vt 0.700265 0.853566
vt 0.269641 0.950969
vt 0.255867 0.950969
vt 0.255867 0.930308
vt 0.269641 0.930308
vt 0.886402 0.864296
vt 0.872627 0.864296
vt 0.872627 0.832812
vt 0.886402 0.832812
vt 0.732733 0.954013
vt 0.718959 0.954013
vt 0.718959 0.933352
vt 0.732733 0.933352
vt 0.453128 0.841221
vt 0.432467 0.841221
vt 0.432467 0.809737
vt 0.453128 0.809737
vt 0.490069 0.841221
vt 0.469408 0.841221
vt 0.469408 0.809737
vt 0.490069 0.809737
vt 0.077549 0.887017
vt 0.063775 0.887017
vt 0.063775 0.855533
vt 0.077549 0.855533
vt 0.947979 0.194631
vt 0.934205 0.194631
vt 0.934205 0.173969
vt 0.947979 0.173969
vt 0.114491 0.887017
vt 0.100716 0.887017
vt 0.100716 0.855533
vt 0.114491 0.855533
vt 0.948373 0.608397
vt 0.934598 0.608397
vt 0.934598 0.587735
vt 0.948373 0.587735
vt 0.527011 0.793457
vt 0.506349 0.793457
vt 0.506349 0.761973
vt 0.527011 0.761973
vt 0.564398 0.793457
vt 0.543737 0.793457
vt 0.543737 0.761973
vt 0.564398 0.761973
vt 0.409837 0.811167
vt 0.405902 0.811167
vt 0.405902 0.756070
vt 0.409837 0.756070
vt 0.809567 0.745155
vt 0.805632 0.745155
vt 0.805632 0.587735
vt 0.809567 0.587735
vt 0.846508 0.816532
vt 0.842573 0.816532
vt 0.842573 0.761435
vt 0.846508 0.761435
vt 0.828995 0.165560
vt 0.825060 0.165560
vt 0.825060 0.008140
vt 0.828995 0.008140
vt 0.063237 0.421906
vt 0.063237 0.579326
vt 0.008140 0.579326
vt 0.008140 0.421906
vt 0.134614 0.421906
vt 0.134614 0.579326
vt 0.079517 0.579326
vt 0.079517 0.421906
vt 0.125313 0.791489
vt 0.107603 0.791489
vt 0.107603 0.752134
vt 0.125313 0.752134
vt 0.779513 0.568058
vt 0.761803 0.568058
vt 0.761803 0.459831
vt 0.779513 0.459831
vt 0.159303 0.791490
vt 0.141593 0.791490
vt 0.141593 0.752135
vt 0.159303 0.752135
vt 0.813502 0.568058
vt 0.795793 0.568058
vt 0.795793 0.459831
vt 0.813502 0.459831
vt 0.670211 0.587735
vt 0.670211 0.695962
vt 0.630856 0.695962
vt 0.630856 0.587735
vt 0.047495 0.595606
vt 0.047495 0.703833
vt 0.008140 0.703833
vt 0.008140 0.595606
vt 0.613146 0.912060
vt 0.599372 0.912060
vt 0.599372 0.888447
vt 0.613146 0.888447
vt 0.856347 0.908125
vt 0.842573 0.908125
vt 0.842573 0.880576
vt 0.856347 0.880576
vt 0.269641 0.914028
vt 0.255867 0.914028
vt 0.255867 0.890415
vt 0.269641 0.890415
vt 0.886401 0.908125
vt 0.872627 0.908125
vt 0.872627 0.880576
vt 0.886401 0.880576
vt 0.529962 0.809737
vt 0.529962 0.837286
vt 0.506349 0.837286
vt 0.506349 0.809737
vt 0.569855 0.809737
vt 0.569855 0.837286
vt 0.546242 0.837286
vt 0.546242 0.809737
vt 0.898693 0.272895
vt 0.882951 0.272895
vt 0.882951 0.245346
vt 0.898693 0.245346
vt 0.191325 0.791490
vt 0.175583 0.791490
vt 0.175583 0.752134
vt 0.191325 0.752134
vt 0.898693 0.316723
vt 0.882951 0.316723
vt 0.882951 0.289175
vt 0.898693 0.289175
vt 0.223347 0.791489
vt 0.207605 0.791489
vt 0.207605 0.752134
vt 0.223347 0.752134
vt 0.714039 0.750167
vt 0.714039 0.789522
vt 0.686491 0.789522
vt 0.686491 0.750167
vt 0.091324 0.752134
vt 0.091324 0.791489
vt 0.063775 0.791489
vt 0.063775 0.752134
vt 0.698297 0.492745
vt 0.698297 0.421906
vt 0.737652 0.421906
vt 0.737652 0.492745
vt 0.293648 0.658574
vt 0.293648 0.587735
vt 0.360552 0.587735
vt 0.360552 0.658574
vt 0.432467 0.745693
vt 0.432467 0.674854
vt 0.471822 0.674854
vt 0.471822 0.745693
vt 0.376832 0.658574
vt 0.376832 0.587735
vt 0.443735 0.587735
vt 0.443735 0.658574
vt 0.670211 0.712242
vt 0.670211 0.779145
vt 0.630856 0.779145
vt 0.630856 0.712242
vt 0.047495 0.720113
vt 0.047495 0.787016
vt 0.008140 0.787016
vt 0.008140 0.720113
vt 0.488102 0.745693
vt 0.488102 0.674854
vt 0.527457 0.674854
vt 0.527457 0.745693
vt 0.460015 0.658574
vt 0.460015 0.587735
vt 0.526919 0.587735
vt 0.526919 0.658574
vt 0.543737 0.745693
vt 0.543737 0.674854
vt 0.583092 0.674854
vt 0.583092 0.745693
vt 0.543199 0.658574
vt 0.543199 0.587735
vt 0.610102 0.587735
vt 0.610102 0.658574
vt 0.789352 0.587735
vt 0.789352 0.654639
vt 0.749997 0.654639
vt 0.749997 0.587735
vt 0.789352 0.670919
vt 0.789352 0.737822
vt 0.749997 0.737822
vt 0.749997 0.670919
vt 0.902826 0.812151
vt 0.902826 0.797393
vt 0.908729 0.797393
vt 0.908729 0.812151
vt 0.799728 0.441584
vt 0.784970 0.441584
vt 0.784970 0.421906
vt 0.799728 0.421906
vt 0.903167 0.224685
vt 0.903167 0.209927
vt 0.909070 0.209927
vt 0.909070 0.224685
vt 0.764755 0.917072
vt 0.749997 0.917072
vt 0.749997 0.897394
vt 0.764755 0.897394
vt 0.245530 0.752134
vt 0.245530 0.771812
vt 0.239627 0.771812
vt 0.239627 0.752134
vt 0.666813 0.843189
vt 0.666813 0.862867
vt 0.660910 0.862867
vt 0.660910 0.843189
vt 0.933720 0.816532
vt 0.933720 0.801774
vt 0.939623 0.801774
vt 0.939623 0.816532
vt 0.339444 0.919039
vt 0.324686 0.919039
vt 0.324686 0.899362
vt 0.339444 0.899362
vt 0.934205 0.225669
vt 0.934205 0.210910
vt 0.940108 0.210910
vt 0.940108 0.225669
vt 0.733717 0.917072
vt 0.718959 0.917072
vt 0.718959 0.897394
vt 0.733717 0.897394
vt 0.939623 0.941669
vt 0.939623 0.961346
vt 0.933720 0.961346
vt 0.933720 0.941669
vt 0.961806 0.941669
vt 0.961806 0.961346
vt 0.955903 0.961346
vt 0.955903 0.941669
vt 0.955903 0.816532
vt 0.955903 0.801774
vt 0.961806 0.801774
vt 0.961806 0.816532
vt 0.382289 0.919039
vt 0.367531 0.919039
vt 0.367531 0.899362
vt 0.382289 0.899362
vt 0.956388 0.225669
vt 0.956388 0.210910
vt 0.962291 0.210910
vt 0.962291 0.225669
vt 0.413327 0.919039
vt 0.398569 0.919039
vt 0.398569 0.899362
vt 0.413327 0.899362
vt 0.574329 0.938271
vt 0.574329 0.957949
vt 0.568425 0.957949
vt 0.568425 0.938271
vt 0.785954 0.933352
vt 0.785954 0.953029
vt 0.780051 0.953029
vt 0.780051 0.933352
vt 0.902681 0.967249
vt 0.902681 0.952491
vt 0.908585 0.952491
vt 0.908585 0.967249
vt 0.917440 0.852490
vt 0.902682 0.852490
vt 0.902682 0.832812
vt 0.917440 0.832812
vt 0.967998 0.737376
vt 0.967998 0.722618
vt 0.973901 0.722618
vt 0.973901 0.737376
vt 0.917440 0.900254
vt 0.902681 0.900254
vt 0.902681 0.880576
vt 0.917440 0.880576
vt 0.785954 0.849630
vt 0.785954 0.869308
vt 0.780051 0.869308
vt 0.780051 0.849630
vt 0.044097 0.851060
vt 0.044097 0.870738
vt 0.038194 0.870738
vt 0.038194 0.851060
vt 0.968195 0.260104
vt 0.968195 0.245346
vt 0.974098 0.245346
vt 0.974098 0.260104
vt 0.115474 0.922975
vt 0.100716 0.922975
vt 0.100716 0.903297
vt 0.115474 0.903297
vt 0.968195 0.291142
vt 0.968195 0.276384
vt 0.974098 0.276384
vt 0.974098 0.291142
vt 0.146513 0.922975
vt 0.131754 0.922975
vt 0.131754 0.903297
vt 0.146513 0.903297
vt 0.969677 0.904727
vt 0.969677 0.924405
vt 0.963774 0.924405
vt 0.963774 0.904727
vt 0.969821 0.761435
vt 0.969821 0.781113
vt 0.963918 0.781113
vt 0.963918 0.761435
vt 0.842573 0.975120
vt 0.842573 0.960362
vt 0.848476 0.960362
vt 0.848476 0.975120
vt 0.177551 0.922975
vt 0.162792 0.922975
vt 0.162792 0.903297
vt 0.177551 0.903297
vt 0.864756 0.975120
vt 0.864756 0.960362
vt 0.870659 0.960362
vt 0.870659 0.975120
vt 0.919499 0.027817
vt 0.904741 0.027817
vt 0.904741 0.008140
vt 0.919499 0.008140
vt 0.069678 0.939255
vt 0.069678 0.958932
vt 0.063775 0.958932
vt 0.063775 0.939255
vt 0.045081 0.934781
vt 0.045081 0.954459
vt 0.039178 0.954459
vt 0.039178 0.934781
vt 0.718958 0.985051
vt 0.718958 0.970293
vt 0.724862 0.970293
vt 0.724862 0.985051
vt 0.768690 0.441584
vt 0.753932 0.441584
vt 0.753932 0.421906
vt 0.768690 0.421906
vt 0.741142 0.985051
vt 0.741142 0.970293
vt 0.747045 0.970293
vt 0.747045 0.985051
vt 0.898497 0.742296
vt 0.883739 0.742296
vt 0.883739 0.722618
vt 0.898497 0.722618
vt 0.667797 0.890953
vt 0.667797 0.910630
vt 0.661894 0.910630
vt 0.661894 0.890953
vt 0.786938 0.897394
vt 0.786938 0.917072
vt 0.781035 0.917072
vt 0.781035 0.897394
vt 0.039178 0.985497
vt 0.039178 0.970739
vt 0.045081 0.970739
vt 0.045081 0.985497
vt 0.208589 0.922975
vt 0.193831 0.922975
vt 0.193831 0.903297
vt 0.208589 0.903297
vt 0.354740 0.986035
vt 0.354740 0.971277
vt 0.360644 0.971277
vt 0.360644 0.986035
vt 0.924222 0.438186
vt 0.909464 0.438186
vt 0.909464 0.418508
vt 0.924222 0.418508
vt 0.970162 0.173969
vt 0.970162 0.193647
vt 0.964259 0.193647
vt 0.964259 0.173969
vt 0.970556 0.587735
vt 0.970556 0.607413
vt 0.964653 0.607413
vt 0.964653 0.587735
vt 0.376924 0.986035
vt 0.376924 0.971277
vt 0.382827 0.971277
vt 0.382827 0.986035
vt 0.924222 0.474143
vt 0.909464 0.474143
vt 0.909464 0.454466
vt 0.924222 0.454466
vt 0.399107 0.986035
vt 0.399107 0.971277
vt 0.405010 0.971277
vt 0.405010 0.986035
vt 0.924222 0.510101
vt 0.909464 0.510101
vt 0.909464 0.490423
vt 0.924222 0.490423
vt 0.091861 0.939255
vt 0.091861 0.958932
vt 0.085958 0.958932
vt 0.085958 0.939255
vt 0.360644 0.935319
vt 0.360644 0.954997
vt 0.354740 0.954997
vt 0.354740 0.935319
vt 0.008140 0.986481
vt 0.008140 0.971723
vt 0.014043 0.971723
vt 0.014043 0.986481
vt 0.521107 0.921007
vt 0.506349 0.921007
vt 0.506349 0.901330
vt 0.521107 0.901330
vt 0.293648 0.987019
vt 0.293648 0.972261
vt 0.299551 0.972261
vt 0.299551 0.987019
vt 0.552145 0.921007
vt 0.537387 0.921007
vt 0.537387 0.901330
vt 0.552146 0.901330
vt 0.045081 0.898824
vt 0.045081 0.918501
vt 0.039178 0.918501
vt 0.039178 0.898824
vt 0.879514 0.924405
vt 0.879514 0.944082
vt 0.873611 0.944082
vt 0.873611 0.924405
vt 0.323702 0.987019
vt 0.323702 0.972261
vt 0.329606 0.972261
vt 0.329606 0.987019
vt 0.917584 0.781113
vt 0.902826 0.781113
vt 0.902826 0.761435
vt 0.917584 0.761435
vt 0.978086 0.987465
vt 0.978086 0.972707
vt 0.983989 0.972707
vt 0.983989 0.987465
vt 0.917925 0.193647
vt 0.903167 0.193647
vt 0.903167 0.173969
vt 0.917925 0.173969
vt 0.970556 0.623693
vt 0.970556 0.643370
vt 0.964653 0.643370
vt 0.964653 0.623693
vt 0.970556 0.661618
vt 0.970556 0.681295
vt 0.964653 0.681295
vt 0.964653 0.661618
vt 0.506349 0.988003
vt 0.506349 0.973245
vt 0.512253 0.973245
vt 0.512253 0.988003
vt 0.924222 0.546058
vt 0.909464 0.546058
vt 0.909464 0.526381
vt 0.924222 0.526381
vt 0.528532 0.988003
vt 0.528532 0.973245
vt 0.534436 0.973245
vt 0.534436 0.988003
vt 0.820390 0.924405
vt 0.805632 0.924405
vt 0.805632 0.904727
vt 0.820390 0.904727
vt 0.114045 0.939255
vt 0.114045 0.958932
vt 0.108141 0.958932
vt 0.108141 0.939255
vt 0.382827 0.935319
vt 0.382827 0.954997
vt 0.376923 0.954997
vt 0.376923 0.935319
vt 0.970556 0.433267
vt 0.970556 0.418508
vt 0.976459 0.418508
vt 0.976459 0.433267
vt 0.919499 0.063775
vt 0.904741 0.063775
vt 0.904741 0.044097
vt 0.919499 0.044097
vt 0.970556 0.464305
vt 0.970556 0.449546
vt 0.976459 0.449546
vt 0.976459 0.464305
vt 0.919499 0.099732
vt 0.904741 0.099732
vt 0.904741 0.080055
vt 0.919499 0.080055
vt 0.405010 0.935319
vt 0.405010 0.954997
vt 0.399107 0.954997
vt 0.399107 0.935319
vt 0.137658 0.939255
vt 0.137658 0.958932
vt 0.131754 0.958932
vt 0.131754 0.939255
vt 0.970556 0.507149
vt 0.970556 0.492391
vt 0.976459 0.492391
vt 0.976459 0.507149
vt 0.918319 0.607413
vt 0.903561 0.607413
vt 0.903561 0.587735
vt 0.918319 0.587735
vt 0.970556 0.544091
vt 0.970556 0.529332
vt 0.976459 0.529332
vt 0.976459 0.544091
vt 0.919499 0.135690
vt 0.904741 0.135690
vt 0.904741 0.116012
vt 0.919499 0.116012
vt 0.970661 0.832812
vt 0.970661 0.852490
vt 0.964758 0.852490
vt 0.964758 0.832812
vt 0.970661 0.868770
vt 0.970661 0.888447
vt 0.964758 0.888447
vt 0.964758 0.868770
vt 0.630856 0.977626
vt 0.630856 0.962868
vt 0.636759 0.962868
vt 0.636759 0.977626
vt 0.919748 0.355540
vt 0.904990 0.355540
vt 0.904990 0.335863
vt 0.919748 0.335863
vt 0.653039 0.977626
vt 0.653039 0.962868
vt 0.658942 0.962868
vt 0.658942 0.977626
vt 0.645614 0.910630
vt 0.630856 0.910630
vt 0.630856 0.890953
vt 0.645614 0.890953
vt 0.159841 0.939255
vt 0.159841 0.958932
vt 0.153938 0.958932
vt 0.153938 0.939255
vt 0.667797 0.926910
vt 0.667797 0.946588
vt 0.661894 0.946588
vt 0.661894 0.926910
vt 0.599372 0.979056
vt 0.599372 0.964298
vt 0.605275 0.964298
vt 0.605275 0.979056
vt 0.919748 0.391498
vt 0.904990 0.391498
vt 0.904990 0.371820
vt 0.919748 0.371820
vt 0.255867 0.982008
vt 0.255867 0.967249
vt 0.261770 0.967249
vt 0.261770 0.982008
vt 0.447225 0.924943
vt 0.432467 0.924943
vt 0.432467 0.905265
vt 0.447225 0.905265
vt 0.512253 0.937287
vt 0.512253 0.956965
vt 0.506349 0.956965
vt 0.506349 0.937287
vt 0.182024 0.939255
vt 0.182024 0.958932
vt 0.176121 0.958932
vt 0.176121 0.939255
vt 0.978086 0.816532
vt 0.978086 0.801774
vt 0.983989 0.801774
vt 0.983989 0.816532
vt 0.484166 0.924943
vt 0.469408 0.924943
vt 0.469408 0.905265
vt 0.484166 0.905265
vt 0.978086 0.956427
vt 0.978086 0.941669
vt 0.983989 0.941669
vt 0.983989 0.956427
vt 0.929535 0.742296
vt 0.914777 0.742296
vt 0.914777 0.722618
vt 0.929535 0.722618
vt 0.971737 0.008140
vt 0.971737 0.027817
vt 0.965833 0.027817
vt 0.965833 0.008140
vt 0.971737 0.045081
vt 0.971737 0.064759
vt 0.965833 0.064759
vt 0.965833 0.045081
vt 0.780051 0.984067
vt 0.780051 0.969309
vt 0.785954 0.969309
vt 0.785954 0.984067
vt 0.929731 0.265024
vt 0.914973 0.265024
vt 0.914973 0.245346
vt 0.929731 0.245346
vt 0.978571 0.225669
vt 0.978571 0.210910
vt 0.984474 0.210910
vt 0.984474 0.225669
vt 0.918319 0.643370
vt 0.903560 0.643370
vt 0.903560 0.623693
vt 0.918319 0.623693
vt 0.204207 0.939255
vt 0.204207 0.958932
vt 0.198304 0.958932
vt 0.198304 0.939255
vt 0.951718 0.722618
vt 0.951718 0.742296
vt 0.945815 0.742296
vt 0.945815 0.722618
vt 0.686491 0.988003
vt 0.686491 0.973245
vt 0.692394 0.973245
vt 0.692394 0.988003
vt 0.929731 0.300981
vt 0.914973 0.300981
vt 0.914973 0.281304
vt 0.929731 0.281304
vt 0.568425 0.988987
vt 0.568425 0.974228
vt 0.574329 0.974228
vt 0.574329 0.988987
vt 0.917440 0.936211
vt 0.902681 0.936211
vt 0.902681 0.916534
vt 0.917440 0.916534
vt 0.534436 0.937287
vt 0.534436 0.956965
vt 0.528532 0.956965
vt 0.528532 0.937287
vt 0.230772 0.940239
vt 0.230772 0.959916
vt 0.224869 0.959916
vt 0.224869 0.940239
vt 0.063775 0.989970
vt 0.063775 0.975212
vt 0.069678 0.975212
vt 0.069678 0.989970
vt 0.857331 0.944082
vt 0.842573 0.944082
vt 0.842573 0.924405
vt 0.857331 0.924405
vt 0.085958 0.989970
vt 0.085958 0.975212
vt 0.091861 0.975212
vt 0.091861 0.989970
vt 0.645614 0.946588
vt 0.630856 0.946588
vt 0.630856 0.926910
vt 0.645614 0.926910
vt 0.971737 0.082023
vt 0.971737 0.101700
vt 0.965833 0.101700
vt 0.965833 0.082023
vt 0.971737 0.118964
vt 0.971737 0.138641
vt 0.965833 0.138641
vt 0.965833 0.118964
vt 0.108141 0.989970
vt 0.108141 0.975212
vt 0.114045 0.975212
vt 0.114045 0.989970
vt 0.701249 0.921007
vt 0.686491 0.921007
vt 0.686491 0.901330
vt 0.701249 0.901330
vt 0.130325 0.989970
vt 0.130325 0.975212
vt 0.136228 0.975212
vt 0.136228 0.989970
vt 0.918319 0.679328
vt 0.903560 0.679328
vt 0.903560 0.659650
vt 0.918319 0.659650
vt 0.811535 0.940685
vt 0.811535 0.960362
vt 0.805632 0.960362
vt 0.805632 0.940685
vt 0.951915 0.245346
vt 0.951915 0.265024
vt 0.946011 0.265024
vt 0.946011 0.245346
vt 0.153938 0.989970
vt 0.153938 0.975212
vt 0.159841 0.975212
vt 0.159841 0.989970
vt 0.614130 0.948018
vt 0.599372 0.948018
vt 0.599372 0.928340
vt 0.614130 0.928340
vt 0.176121 0.989970
vt 0.176121 0.975212
vt 0.182024 0.975212
vt 0.182024 0.989970
vt 0.948478 0.852490
vt 0.933720 0.852490
vt 0.933720 0.832812
vt 0.948478 0.832812
vt 0.692394 0.937287
vt 0.692394 0.956965
vt 0.686491 0.956965
vt 0.686491 0.937287
vt 0.438370 0.941223
vt 0.438370 0.960900
vt 0.432467 0.960900
vt 0.432467 0.941223
vt 0.198304 0.989970
vt 0.198304 0.975212
vt 0.204207 0.975212
vt 0.204207 0.989970
vt 0.022898 0.918501
vt 0.008140 0.918501
vt 0.008140 0.898824
vt 0.022898 0.898824
vt 0.224869 0.990954
vt 0.224869 0.976196
vt 0.230772 0.976196
vt 0.230772 0.990954
vt 0.308406 0.919039
vt 0.293648 0.919039
vt 0.293648 0.899362
vt 0.308406 0.899362
vt 0.971986 0.335863
vt 0.971986 0.355540
vt 0.966083 0.355540
vt 0.966083 0.335863
vt 0.971986 0.372804
vt 0.971986 0.392482
vt 0.966083 0.392482
vt 0.966083 0.372804
vt 0.805632 0.991400
vt 0.805632 0.976642
vt 0.811535 0.976642
vt 0.811535 0.991400
vt 0.078533 0.922975
vt 0.063775 0.922975
vt 0.063775 0.903297
vt 0.078533 0.903297
vt 0.985957 0.919485
vt 0.985957 0.904727
vt 0.991860 0.904727
vt 0.991860 0.919485
vt 0.948478 0.888447
vt 0.933720 0.888447
vt 0.933720 0.868770
vt 0.948478 0.868770
vt 0.469408 0.941223
vt 0.469408 0.960900
vt 0.463505 0.960900
vt 0.463505 0.941223
vt 0.951915 0.281304
vt 0.951915 0.300981
vt 0.946011 0.300981
vt 0.946011 0.281304
vt 0.886546 0.812597
vt 0.883004 0.812597
vt 0.883004 0.761435
vt 0.886546 0.761435
vt 0.602914 0.824403
vt 0.599372 0.824403
vt 0.599372 0.674854
vt 0.602914 0.674854
vt 0.887281 0.638897
vt 0.883739 0.638897
vt 0.883739 0.587735
vt 0.887281 0.587735
vt 0.269641 0.826371
vt 0.266099 0.826371
vt 0.266099 0.676822
vt 0.269641 0.676822
vt 0.344810 0.421906
vt 0.344810 0.571455
vt 0.293648 0.571455
vt 0.293648 0.421906
vt 0.412251 0.421906
vt 0.412251 0.571455
vt 0.361090 0.571455
vt 0.361090 0.421906
vt 0.888461 0.126743
vt 0.884919 0.126743
vt 0.884919 0.075581
vt 0.888461 0.075581
vt 0.848817 0.331389
vt 0.845275 0.331389
vt 0.845275 0.181840
vt 0.848817 0.181840
vt 0.888710 0.387024
vt 0.885168 0.387024
vt 0.885168 0.335863
vt 0.888710 0.335863
vt 0.849605 0.737284
vt 0.846063 0.737284
vt 0.846063 0.587735
vt 0.849605 0.587735
vt 0.479693 0.421906
vt 0.479693 0.571455
vt 0.428531 0.571455
vt 0.428531 0.421906
vt 0.547134 0.421906
vt 0.547134 0.571455
vt 0.495973 0.571455
vt 0.495973 0.421906
vt 0.887281 0.706338
vt 0.883739 0.706338
vt 0.883739 0.655177
vt 0.887281 0.655177
vt 0.833324 0.568058
vt 0.829782 0.568058
vt 0.829782 0.418508
vt 0.833324 0.418508
vt 0.888461 0.059302
vt 0.884919 0.059302
vt 0.884919 0.008140
vt 0.888461 0.008140
vt 0.848817 0.157689
vt 0.845275 0.157689
vt 0.845275 0.008140
vt 0.848817 0.008140
vt 0.614576 0.421906
vt 0.614576 0.571455
vt 0.563414 0.571455
vt 0.563414 0.421906
vt 0.682017 0.421906
vt 0.682017 0.571455
vt 0.630856 0.571455
vt 0.630856 0.421906
vt 0.893184 0.469670
vt 0.889642 0.469670
vt 0.889642 0.418508
vt 0.893184 0.418508
vt 0.853146 0.568058
vt 0.849604 0.568058
vt 0.849604 0.418508
vt 0.853146 0.418508
vt 0.893184 0.541047
vt 0.889642 0.541047
vt 0.889642 0.489885
vt 0.893184 0.489885
vt 0.868639 0.157689
vt 0.865097 0.157689
vt 0.865097 0.008140
vt 0.868639 0.008140
vt 0.692210 0.008140
vt 0.692210 0.157689
vt 0.641048 0.157689
vt 0.641048 0.008140
vt 0.692210 0.173969
vt 0.692210 0.323518
vt 0.641048 0.323518
vt 0.641048 0.173969
vt 0.355540 0.405626
vt 0.355540 0.008140
vt 0.410637 0.008140
vt 0.410637 0.405626
vt 0.708490 0.405626
vt 0.708490 0.008140
vt 0.712425 0.008140
vt 0.712425 0.405626
vt 0.426917 0.405626
vt 0.426917 0.008140
vt 0.482014 0.008140
vt 0.482014 0.405626
vt 0.728705 0.405626
vt 0.728705 0.008140
vt 0.732641 0.008140
vt 0.732641 0.405626
vt 0.727367 0.860899
vt 0.723432 0.860899
vt 0.723432 0.805802
vt 0.727367 0.805802
vt 0.866724 0.816532
vt 0.862788 0.816532
vt 0.862788 0.761435
vt 0.866724 0.761435
vt 0.498294 0.405626
vt 0.498294 0.008140
vt 0.553391 0.008140
vt 0.553391 0.405626
vt 0.748921 0.405626
vt 0.748921 0.008140
vt 0.752856 0.008140
vt 0.752856 0.405626
vt 0.569671 0.405626
vt 0.569671 0.008140
vt 0.624768 0.008140
vt 0.624768 0.405626
vt 0.769136 0.405626
vt 0.769136 0.008140
vt 0.773072 0.008140
vt 0.773072 0.405626
vt 0.873362 0.473605
vt 0.869426 0.473605
vt 0.869426 0.418508
vt 0.873362 0.418508
vt 0.873362 0.544982
vt 0.869426 0.544982
vt 0.869426 0.489885
vt 0.873362 0.489885
vt 0.409837 0.882544
vt 0.405902 0.882544
vt 0.405902 0.827447
vt 0.409837 0.827447
vt 0.828995 0.339260
vt 0.825060 0.339260
vt 0.825060 0.181840
vt 0.828995 0.181840
vt 0.886887 0.229066
vt 0.882951 0.229066
vt 0.882951 0.173969
vt 0.886887 0.173969
vt 0.829783 0.745155
vt 0.825847 0.745155
vt 0.825847 0.587735
vt 0.829783 0.587735
vt 0.205991 0.421906
vt 0.205991 0.579326
vt 0.150894 0.579326
vt 0.150894 0.421906
vt 0.277368 0.421906
vt 0.277368 0.579326
vt 0.222271 0.579326
vt 0.222271 0.421906
vt 0.063775 0.735855
vt 0.063775 0.676822
vt 0.111001 0.676822
vt 0.111001 0.735855
vt 0.122808 0.660542
vt 0.063775 0.660542
vt 0.063775 0.595606
vt 0.122808 0.595606
vt 0.139087 0.735855
vt 0.139087 0.676822
vt 0.186314 0.676822
vt 0.186314 0.735855
vt 0.198120 0.660542
vt 0.139087 0.660542
vt 0.139087 0.595606
vt 0.198120 0.595606
vt 0.688274 0.339798
vt 0.688274 0.404734
vt 0.641048 0.404734
vt 0.641048 0.339798
vt 0.733717 0.587735
vt 0.733717 0.652671
vt 0.686491 0.652671
vt 0.686491 0.587735
vt 0.202593 0.735855
vt 0.202593 0.676822
vt 0.249820 0.676822
vt 0.249820 0.735855
vt 0.273433 0.660542
vt 0.214400 0.660542
vt 0.214400 0.595606
vt 0.273433 0.595606
vt 0.698297 0.568058
vt 0.698297 0.509025
vt 0.745523 0.509025
vt 0.745523 0.568058
vt 0.352681 0.739790
vt 0.293648 0.739790
vt 0.293648 0.674854
vt 0.352681 0.674854
vt 0.733717 0.668951
vt 0.733717 0.733887
vt 0.686491 0.733887
vt 0.686491 0.668951
vt 0.416187 0.674854
vt 0.416187 0.739790
vt 0.368961 0.739790
vt 0.368961 0.674854
s 0
usemtl exp_A1B_final
f 1/1/1 2/2/1 4/3/1 3/4/1
f 3/5/2 4/6/2 8/7/2 7/8/2
f 7/9/3 8/10/3 6/11/3 5/12/3
f 5/13/4 6/14/4 2/15/4 1/16/4
f 3/17/5 7/18/5 5/19/5 1/20/5
f 8/21/6 4/22/6 2/23/6 6/24/6
f 9/25/1 10/26/1 12/27/1 11/28/1
f 11/29/2 12/30/2 16/31/2 15/32/2
f 15/33/3 16/34/3 14/35/3 13/36/3
f 13/37/4 14/38/4 10/39/4 9/40/4
f 11/41/5 15/42/5 13/43/5 9/44/5
f 16/45/6 12/46/6 10/47/6 14/48/6
f 17/49/1 18/50/1 20/51/1 19/52/1
f 19/53/2 20/54/2 24/55/2 23/56/2
f 23/57/3 24/58/3 22/59/3 21/60/3
f 21/61/4 22/62/4 18/63/4 17/64/4
f 19/65/5 23/66/5 21/67/5 17/68/5
f 24/69/6 20/70/6 18/71/6 22/72/6
f 25/73/1 26/74/1 28/75/1 27/76/1
f 27/77/2 28/78/2 32/79/2 31/80/2
f 31/81/3 32/82/3 30/83/3 29/84/3
f 29/85/4 30/86/4 26/87/4 25/88/4
f 27/89/5 31/90/5 29/91/5 25/92/5
f 32/93/6 28/94/6 26/95/6 30/96/6
f 33/97/1 34/98/1 36/99/1 35/100/1
f 35/101/2 36/102/2 40/103/2 39/104/2
f 39/105/3 40/106/3 38/107/3 37/108/3
f 37/109/4 38/110/4 34/111/4 33/112/4
f 35/113/5 39/114/5 37/115/5 33/116/5
f 40/117/6 36/118/6 34/119/6 38/120/6
f 41/121/1 42/122/1 44/123/1 43/124/1
f 43/125/2 44/126/2 48/127/2 47/128/2
f 47/129/3 48/130/3 46/131/3 45/132/3
f 45/133/4 46/134/4 42/135/4 41/136/4
f 43/137/5 47/138/5 45/139/5 41/140/5
f 48/141/6 44/142/6 42/143/6 46/144/6
f 49/145/1 50/146/1 52/147/1 51/148/1
f 51/149/2 52/150/2 56/151/2 55/152/2
f 55/153/3 56/154/3 54/155/3 53/156/3
f 53/157/4 54/158/4 50/159/4 49/160/4
f 51/161/5 55/162/5 53/163/5 49/164/5
f 56/165/6 52/166/6 50/167/6 54/168/6
f 57/169/1 58/170/1 60/171/1 59/172/1
f 59/173/2 60/174/2 64/175/2 63/176/2
f 63/177/3 64/178/3 62/179/3 61/180/3
f 61/181/4 62/182/4 58/183/4 57/184/4
f 59/185/5 63/186/5 61/187/5 57/188/5
f 64/189/6 60/190/6 58/191/6 62/192/6
f 65/193/1 66/194/1 68/195/1 67/196/1
f 67/197/2 68/198/2 72/199/2 71/200/2
f 71/201/3 72/202/3 70/203/3 69/204/3
f 69/205/4 70/206/4 66/207/4 65/208/4
f 67/209/5 71/210/5 69/211/5 65/212/5
f 72/213/6 68/214/6 66/215/6 70/216/6
f 73/217/1 74/218/1 76/219/1 75/220/1
f 75/221/2 76/222/2 80/223/2 79/224/2
f 79/225/3 80/226/3 78/227/3 77/228/3
f 77/229/4 78/230/4 74/231/4 73/232/4
f 75/233/5 79/234/5 77/235/5 73/236/5
f 80/237/6 76/238/6 74/239/6 78/240/6
f 81/241/1 82/242/1 84/243/1 83/244/1
f 83/245/2 84/246/2 88/247/2 87/248/2
f 87/249/3 88/250/3 86/251/3 85/252/3
f 85/253/4 86/254/4 82/255/4 81/256/4
f 83/257/5 87/258/5 85/259/5 81/260/5
f 88/261/6 84/262/6 82/263/6 86/264/6
f 89/265/1 90/266/1 92/267/1 91/268/1
f 91/269/2 92/270/2 96/271/2 95/272/2
f 95/273/3 96/274/3 94/275/3 93/276/3
f 93/277/4 94/278/4 90/279/4 89/280/4
f 91/281/5 95/282/5 93/283/5 89/284/5
f 96/285/6 92/286/6 90/287/6 94/288/6
f 97/289/1 98/290/1 100/291/1 99/292/1
f 99/293/2 100/294/2 104/295/2 103/296/2
f 103/297/3 104/298/3 102/299/3 101/300/3
f 101/301/4 102/302/4 98/303/4 97/304/4
f 99/305/5 103/306/5 101/307/5 97/308/5
f 104/309/6 100/310/6 98/311/6 102/312/6
f 105/313/1 106/314/1 108/315/1 107/316/1
f 107/317/2 108/318/2 112/319/2 111/320/2
f 111/321/3 112/322/3 110/323/3 109/324/3
f 109/325/4 110/326/4 106/327/4 105/328/4
f 107/329/5 111/330/5 109/331/5 105/332/5
f 112/333/6 108/334/6 106/335/6 110/336/6
f 113/337/1 114/338/1 116/339/1 115/340/1
f 115/341/2 116/342/2 120/343/2 119/344/2
f 119/345/3 120/346/3 118/347/3 117/348/3
f 117/349/4 118/350/4 114/351/4 113/352/4
f 115/353/5 119/354/5 117/355/5 113/356/5
f 120/357/6 116/358/6 114/359/6 118/360/6
f 121/361/1 122/362/1 124/363/1 123/364/1
f 123/365/2 124/366/2 128/367/2 127/368/2
f 127/369/3 128/370/3 126/371/3 125/372/3
f 125/373/4 126/374/4 122/375/4 121/376/4
f 123/377/5 127/378/5 125/379/5 121/380/5
f 128/381/6 124/382/6 122/383/6 126/384/6
f 129/385/1 130/386/1 132/387/1 131/388/1
f 131/389/2 132/390/2 136/391/2 135/392/2
f 135/393/3 136/394/3 134/395/3 133/396/3
f 133/397/4 134/398/4 130/399/4 129/400/4
f 131/401/5 135/402/5 133/403/5 129/404/5
f 136/405/6 132/406/6 130/407/6 134/408/6
f 137/409/1 138/410/1 140/411/1 139/412/1
f 139/413/2 140/414/2 144/415/2 143/416/2
f 143/417/3 144/418/3 142/419/3 141/420/3
f 141/421/4 142/422/4 138/423/4 137/424/4
f 139/425/5 143/426/5 141/427/5 137/428/5
f 144/429/6 140/430/6 138/431/6 142/432/6
f 145/433/1 146/434/1 148/435/1 147/436/1
f 147/437/2 148/438/2 152/439/2 151/440/2
f 151/441/3 152/442/3 150/443/3 149/444/3
f 149/445/4 150/446/4 146/447/4 145/448/4
f 147/449/5 151/450/5 149/451/5 145/452/5
f 152/453/6 148/454/6 146/455/6 150/456/6
f 153/457/1 154/458/1 156/459/1 155/460/1
f 155/461/2 156/462/2 160/463/2 159/464/2
f 159/465/3 160/466/3 158/467/3 157/468/3
f 157/469/4 158/470/4 154/471/4 153/472/4
f 155/473/5 159/474/5 157/475/5 153/476/5
f 160/477/6 156/478/6 154/479/6 158/480/6
f 161/481/1 162/482/1 164/483/1 163/484/1
f 163/485/2 164/486/2 168/487/2 167/488/2
f 167/489/3 168/490/3 166/491/3 165/492/3
f 165/493/4 166/494/4 162/495/4 161/496/4
f 163/497/5 167/498/5 165/499/5 161/500/5
f 168/501/6 164/502/6 162/503/6 166/504/6
f 169/505/1 170/506/1 172/507/1 171/508/1
f 171/509/2 172/510/2 176/511/2 175/512/2
f 175/513/3 176/514/3 174/515/3 173/516/3
f 173/517/4 174/518/4 170/519/4 169/520/4
f 171/521/5 175/522/5 173/523/5 169/524/5
f 176/525/6 172/526/6 170/527/6 174/528/6
f 177/529/1 178/530/1 180/531/1 179/532/1
f 179/533/2 180/534/2 184/535/2 183/536/2
f 183/537/3 184/538/3 182/539/3 181/540/3
f 181/541/4 182/542/4 178/543/4 177/544/4
f 179/545/5 183/546/5 181/547/5 177/548/5
f 184/549/6 180/550/6 178/551/6 182/552/6
f 185/553/1 186/554/1 188/555/1 187/556/1
f 187/557/2 188/558/2 192/559/2 191/560/2
f 191/561/3 192/562/3 190/563/3 189/564/3
f 189/565/4 190/566/4 186/567/4 185/568/4
f 187/569/5 191/570/5 189/571/5 185/572/5
f 192/573/6 188/574/6 186/575/6 190/576/6
f 193/577/1 194/578/1 196/579/1 195/580/1
f 195/581/2 196/582/2 200/583/2 199/584/2
f 199/585/3 200/586/3 198/587/3 197/588/3
f 197/589/4 198/590/4 194/591/4 193/592/4
f 195/593/5 199/594/5 197/595/5 193/596/5
f 200/597/6 196/598/6 194/599/6 198/600/6
f 201/601/1 202/602/1 204/603/1 203/604/1
f 203/605/2 204/606/2 208/607/2 207/608/2
f 207/609/3 208/610/3 206/611/3 205/612/3
f 205/613/4 206/614/4 202/615/4 201/616/4
f 203/617/5 207/618/5 205/619/5 201/620/5
f 208/621/6 204/622/6 202/623/6 206/624/6
f 209/625/1 210/626/1 212/627/1 211/628/1
f 211/629/2 212/630/2 216/631/2 215/632/2
f 215/633/3 216/634/3 214/635/3 213/636/3
f 213/637/4 214/638/4 210/639/4 209/640/4
f 211/641/5 215/642/5 213/643/5 209/644/5
f 216/645/6 212/646/6 210/647/6 214/648/6
f 217/649/1 218/650/1 220/651/1 219/652/1
f 219/653/2 220/654/2 224/655/2 223/656/2
f 223/657/3 224/658/3 222/659/3 221/660/3
f 221/661/4 222/662/4 218/663/4 217/664/4
f 219/665/5 223/666/5 221/667/5 217/668/5
f 224/669/6 220/670/6 218/671/6 222/672/6
f 225/673/1 226/674/1 228/675/1 227/676/1
f 227/677/2 228/678/2 232/679/2 231/680/2
f 231/681/3 232/682/3 230/683/3 229/684/3
f 229/685/4 230/686/4 226/687/4 225/688/4
f 227/689/5 231/690/5 229/691/5 225/692/5
f 232/693/6 228/694/6 226/695/6 230/696/6
f 233/697/1 234/698/1 236/699/1 235/700/1
f 235/701/2 236/702/2 240/703/2 239/704/2
f 239/705/3 240/706/3 238/707/3 237/708/3
f 237/709/4 238/710/4 234/711/4 233/712/4
f 235/713/5 239/714/5 237/715/5 233/716/5
f 240/717/6 236/718/6 234/719/6 238/720/6
f 241/721/1 242/722/1 244/723/1 243/724/1
f 243/725/2 244/726/2 248/727/2 247/728/2
f 247/729/3 248/730/3 246/731/3 245/732/3
f 245/733/4 246/734/4 242/735/4 241/736/4
f 243/737/5 247/738/5 245/739/5 241/740/5
f 248/741/6 244/742/6 242/743/6 246/744/6
f 249/745/1 250/746/1 252/747/1 251/748/1
f 251/749/2 252/750/2 256/751/2 255/752/2
f 255/753/3 256/754/3 254/755/3 253/756/3
f 253/757/4 254/758/4 250/759/4 249/760/4
f 251/761/5 255/762/5 253/763/5 249/764/5
f 256/765/6 252/766/6 250/767/6 254/768/6
f 257/769/1 258/770/1 260/771/1 259/772/1
f 259/773/2 260/774/2 264/775/2 263/776/2
f 263/777/3 264/778/3 262/779/3 261/780/3
f 261/781/4 262/782/4 258/783/4 257/784/4
f 259/785/5 263/786/5 261/787/5 257/788/5
f 264/789/6 260/790/6 258/791/6 262/792/6
f 265/793/1 266/794/1 268/795/1 267/796/1
f 267/797/2 268/798/2 272/799/2 271/800/2
f 271/801/3 272/802/3 270/803/3 269/804/3
f 269/805/4 270/806/4 266/807/4 265/808/4
f 267/809/5 271/810/5 269/811/5 265/812/5
f 272/813/6 268/814/6 266/815/6 270/816/6
f 273/817/1 274/818/1 276/819/1 275/820/1
f 275/821/2 276/822/2 280/823/2 279/824/2
f 279/825/3 280/826/3 278/827/3 277/828/3
f 277/829/4 278/830/4 274/831/4 273/832/4
f 275/833/5 279/834/5 277/835/5 273/836/5
f 280/837/6 276/838/6 274/839/6 278/840/6
f 281/841/1 282/842/1 284/843/1 283/844/1
f 283/845/2 284/846/2 288/847/2 287/848/2
f 287/849/3 288/850/3 286/851/3 285/852/3
f 285/853/4 286/854/4 282/855/4 281/856/4
f 283/857/5 287/858/5 285/859/5 281/860/5
f 288/861/6 284/862/6 282/863/6 286/864/6
f 289/865/1 290/866/1 292/867/1 291/868/1
f 291/869/2 292/870/2 296/871/2 295/872/2
f 295/873/3 296/874/3 294/875/3 293/876/3
f 293/877/4 294/878/4 290/879/4 289/880/4
f 291/881/5 295/882/5 293/883/5 289/884/5
f 296/885/6 292/886/6 290/887/6 294/888/6
f 297/889/1 298/890/1 300/891/1 299/892/1
f 299/893/2 300/894/2 304/895/2 303/896/2
f 303/897/3 304/898/3 302/899/3 301/900/3
f 301/901/4 302/902/4 298/903/4 297/904/4
f 299/905/5 303/906/5 301/907/5 297/908/5
f 304/909/6 300/910/6 298/911/6 302/912/6
f 305/913/1 306/914/1 308/915/1 307/916/1
f 307/917/2 308/918/2 312/919/2 311/920/2
f 311/921/3 312/922/3 310/923/3 309/924/3
f 309/925/4 310/926/4 306/927/4 305/928/4
f 307/929/5 311/930/5 309/931/5 305/932/5
f 312/933/6 308/934/6 306/935/6 310/936/6
f 313/937/1 314/938/1 316/939/1 315/940/1
f 315/941/2 316/942/2 320/943/2 319/944/2
f 319/945/3 320/946/3 318/947/3 317/948/3
f 317/949/4 318/950/4 314/951/4 313/952/4
f 315/953/5 319/954/5 317/955/5 313/956/5
f 320/957/6 316/958/6 314/959/6 318/960/6
f 321/961/1 322/962/1 324/963/1 323/964/1
f 323/965/2 324/966/2 328/967/2 327/968/2
f 327/969/3 328/970/3 326/971/3 325/972/3
f 325/973/4 326/974/4 322/975/4 321/976/4
f 323/977/5 327/978/5 325/979/5 321/980/5
f 328/981/6 324/982/6 322/983/6 326/984/6
f 329/985/1 330/986/1 332/987/1 331/988/1
f 331/989/2 332/990/2 336/991/2 335/992/2
f 335/993/3 336/994/3 334/995/3 333/996/3
f 333/997/4 334/998/4 330/999/4 329/1000/4
f 331/1001/5 335/1002/5 333/1003/5 329/1004/5
f 336/1005/6 332/1006/6 330/1007/6 334/1008/6
f 337/1009/1 338/1010/1 340/1011/1 339/1012/1
f 339/1013/2 340/1014/2 344/1015/2 343/1016/2
f 343/1017/3 344/1018/3 342/1019/3 341/1020/3
f 341/1021/4 342/1022/4 338/1023/4 337/1024/4
f 339/1025/5 343/1026/5 341/1027/5 337/1028/5
f 344/1029/6 340/1030/6 338/1031/6 342/1032/6
f 345/1033/1 346/1034/1 348/1035/1 347/1036/1
f 347/1037/2 348/1038/2 352/1039/2 351/1040/2
f 351/1041/3 352/1042/3 350/1043/3 349/1044/3
f 349/1045/4 350/1046/4 346/1047/4 345/1048/4
f 347/1049/5 351/1050/5 349/1051/5 345/1052/5
f 352/1053/6 348/1054/6 346/1055/6 350/1056/6
f 353/1057/1 354/1058/1 356/1059/1 355/1060/1
f 355/1061/2 356/1062/2 360/1063/2 359/1064/2
f 359/1065/3 360/1066/3 358/1067/3 357/1068/3
f 357/1069/4 358/1070/4 354/1071/4 353/1072/4
f 355/1073/5 359/1074/5 357/1075/5 353/1076/5
f 360/1077/6 356/1078/6 354/1079/6 358/1080/6
f 361/1081/1 362/1082/1 364/1083/1 363/1084/1
f 363/1085/2 364/1086/2 368/1087/2 367/1088/2
f 367/1089/3 368/1090/3 366/1091/3 365/1092/3
f 365/1093/4 366/1094/4 362/1095/4 361/1096/4
f 363/1097/5 367/1098/5 365/1099/5 361/1100/5
f 368/1101/6 364/1102/6 362/1103/6 366/1104/6
f 369/1105/1 370/1106/1 372/1107/1 371/1108/1
f 371/1109/2 372/1110/2 376/1111/2 375/1112/2
f 375/1113/3 376/1114/3 374/1115/3 373/1116/3
f 373/1117/4 374/1118/4 370/1119/4 369/1120/4
f 371/1121/5 375/1122/5 373/1123/5 369/1124/5
f 376/1125/6 372/1126/6 370/1127/6 374/1128/6
f 377/1129/1 378/1130/1 380/1131/1 379/1132/1
f 379/1133/2 380/1134/2 384/1135/2 383/1136/2
f 383/1137/3 384/1138/3 382/1139/3 381/1140/3
f 381/1141/4 382/1142/4 378/1143/4 377/1144/4
f 379/1145/5 383/1146/5 381/1147/5 377/1148/5
f 384/1149/6 380/1150/6 378/1151/6 382/1152/6
f 385/1153/1 386/1154/1 388/1155/1 387/1156/1
f 387/1157/2 388/1158/2 392/1159/2 391/1160/2
f 391/1161/3 392/1162/3 390/1163/3 389/1164/3
f 389/1165/4 390/1166/4 386/1167/4 385/1168/4
f 387/1169/5 391/1170/5 389/1171/5 385/1172/5
f 392/1173/6 388/1174/6 386/1175/6 390/1176/6
f 393/1177/1 394/1178/1 396/1179/1 395/1180/1
f 395/1181/2 396/1182/2 400/1183/2 399/1184/2
f 399/1185/3 400/1186/3 398/1187/3 397/1188/3
f 397/1189/4 398/1190/4 394/1191/4 393/1192/4
f 395/1193/5 399/1194/5 397/1195/5 393/1196/5
f 400/1197/6 396/1198/6 394/1199/6 398/1200/6
f 401/1201/1 402/1202/1 404/1203/1 403/1204/1
f 403/1205/2 404/1206/2 408/1207/2 407/1208/2
f 407/1209/3 408/1210/3 406/1211/3 405/1212/3
f 405/1213/4 406/1214/4 402/1215/4 401/1216/4
f 403/1217/5 407/1218/5 405/1219/5 401/1220/5
f 408/1221/6 404/1222/6 402/1223/6 406/1224/6
f 409/1225/1 410/1226/1 412/1227/1 411/1228/1
f 411/1229/2 412/1230/2 416/1231/2 415/1232/2
f 415/1233/3 416/1234/3 414/1235/3 413/1236/3
f 413/1237/4 414/1238/4 410/1239/4 409/1240/4
f 411/1241/5 415/1242/5 413/1243/5 409/1244/5
f 416/1245/6 412/1246/6 410/1247/6 414/1248/6
