# Blender 5.1.1
# www.blender.org
mtllib A2_final.mtl
o A2_final.001
v 0.495000 0.264500 0.050000
v 0.495000 0.269500 0.055000
v 0.500000 0.264500 0.055000
v 0.495000 0.268036 0.051465
v 0.497887 0.267387 0.052113
v 0.498536 0.268036 0.055000
v 0.498536 0.264500 0.051465
v 0.495000 0.269500 1.965000
v 0.495000 0.264500 1.970000
v 0.500000 0.264500 1.965000
v 0.495000 0.268036 1.968535
v 0.497887 0.267387 1.967887
v 0.498536 0.264500 1.968535
v 0.498536 0.268036 1.965000
v 0.495000 -0.305500 0.050000
v 0.500000 -0.305500 0.055000
v 0.495000 -0.310500 0.055000
v 0.498536 -0.305500 0.051465
v 0.497887 -0.308387 0.052113
v 0.498536 -0.309035 0.055000
v 0.495000 -0.309035 0.051465
v 0.495000 -0.305500 1.970000
v 0.495000 -0.310500 1.965000
v 0.500000 -0.305500 1.965000
v 0.495000 -0.309035 1.968535
v 0.497887 -0.308387 1.967887
v 0.498536 -0.309035 1.965000
v 0.498536 -0.305500 1.968535
v -0.495000 0.264500 0.050000
v -0.500000 0.264500 0.055000
v -0.495000 0.269500 0.055000
v -0.498536 0.264500 0.051465
v -0.497887 0.267387 0.052113
v -0.498536 0.268035 0.055000
v -0.495000 0.268035 0.051465
v -0.495000 0.264500 1.970000
v -0.495000 0.269500 1.965000
v -0.500000 0.264500 1.965000
v -0.495000 0.268035 1.968535
v -0.497887 0.267387 1.967887
v -0.498536 0.268035 1.965000
v -0.498536 0.264500 1.968535
v -0.495000 -0.305500 0.050000
v -0.495000 -0.310500 0.055000
v -0.500000 -0.305500 0.055000
v -0.495000 -0.309036 0.051465
v -0.497887 -0.308387 0.052113
v -0.498536 -0.309036 0.055000
v -0.498536 -0.305500 0.051465
v -0.495000 -0.305500 1.970000
v -0.500000 -0.305500 1.965000
v -0.495000 -0.310500 1.965000
v -0.498536 -0.305500 1.968535
v -0.497887 -0.308387 1.967887
v -0.498536 -0.309036 1.965000
v -0.495000 -0.309036 1.968535
v 0.480000 0.281500 0.090000
v 0.480000 0.285500 0.094000
v 0.484000 0.281500 0.094000
v 0.480000 0.284328 0.091172
v 0.482309 0.283809 0.091691
v 0.482828 0.284328 0.094000
v 0.482828 0.281500 0.091172
v 0.480000 0.285500 1.926000
v 0.480000 0.281500 1.930000
v 0.484000 0.281500 1.926000
v 0.480000 0.284328 1.928828
v 0.482309 0.283809 1.928309
v 0.482828 0.281500 1.928828
v 0.482828 0.284328 1.926000
v 0.480000 0.273500 0.090000
v 0.484000 0.273500 0.094000
v 0.480000 0.269500 0.094000
v 0.482828 0.273500 0.091172
v 0.482309 0.271191 0.091691
v 0.482828 0.270672 0.094000
v 0.480000 0.270672 0.091172
v 0.480000 0.273500 1.930000
v 0.480000 0.269500 1.926000
v 0.484000 0.273500 1.926000
v 0.480000 0.270672 1.928828
v 0.482309 0.271191 1.928309
v 0.482828 0.270672 1.926000
v 0.482828 0.273500 1.928828
v 0.013000 0.281500 0.090000
v 0.009000 0.281500 0.094000
v 0.013000 0.285500 0.094000
v 0.010172 0.281500 0.091172
v 0.010691 0.283809 0.091691
v 0.010172 0.284328 0.094000
v 0.013000 0.284328 0.091172
v 0.013000 0.281500 1.930000
v 0.013000 0.285500 1.926000
v 0.009000 0.281500 1.926000
v 0.013000 0.284328 1.928828
v 0.010691 0.283809 1.928309
v 0.010172 0.284328 1.926000
v 0.010172 0.281500 1.928828
v 0.013000 0.273500 0.090000
v 0.013000 0.269500 0.094000
v 0.009000 0.273500 0.094000
v 0.013000 0.270672 0.091172
v 0.010691 0.271191 0.091691
v 0.010172 0.270672 0.094000
v 0.010172 0.273500 0.091172
v 0.013000 0.273500 1.930000
v 0.009000 0.273500 1.926000
v 0.013000 0.269500 1.926000
v 0.010172 0.273500 1.928828
v 0.010691 0.271191 1.928309
v 0.010172 0.270672 1.926000
v 0.013000 0.270672 1.928828
v -0.013000 0.281500 0.090000
v -0.013000 0.285500 0.094000
v -0.009000 0.281500 0.094000
v -0.013000 0.284328 0.091172
v -0.010691 0.283809 0.091691
v -0.010172 0.284328 0.094000
v -0.010172 0.281500 0.091172
v -0.013000 0.285500 1.926000
v -0.013000 0.281500 1.930000
v -0.009000 0.281500 1.926000
v -0.013000 0.284328 1.928828
v -0.010691 0.283809 1.928309
v -0.010172 0.281500 1.928828
v -0.010172 0.284328 1.926000
v -0.013000 0.273500 0.090000
v -0.009000 0.273500 0.094000
v -0.013000 0.269500 0.094000
v -0.010172 0.273500 0.091172
v -0.010691 0.271191 0.091691
v -0.010172 0.270672 0.094000
v -0.013000 0.270672 0.091172
v -0.013000 0.273500 1.930000
v -0.013000 0.269500 1.926000
v -0.009000 0.273500 1.926000
v -0.013000 0.270672 1.928828
v -0.010691 0.271191 1.928309
v -0.010172 0.270672 1.926000
v -0.010172 0.273500 1.928828
v -0.480000 0.281500 0.090000
v -0.484000 0.281500 0.094000
v -0.480000 0.285500 0.094000
v -0.482828 0.281500 0.091172
v -0.482309 0.283809 0.091691
v -0.482828 0.284328 0.094000
v -0.480000 0.284328 0.091172
v -0.480000 0.281500 1.930000
v -0.480000 0.285500 1.926000
v -0.484000 0.281500 1.926000
v -0.480000 0.284328 1.928828
v -0.482309 0.283809 1.928309
v -0.482828 0.284328 1.926000
v -0.482828 0.281500 1.928828
v -0.480000 0.273500 0.090000
v -0.480000 0.269500 0.094000
v -0.484000 0.273500 0.094000
v -0.480000 0.270672 0.091172
v -0.482309 0.271191 0.091691
v -0.482828 0.270672 0.094000
v -0.482828 0.273500 0.091172
v -0.480000 0.273500 1.930000
v -0.484000 0.273500 1.926000
v -0.480000 0.269500 1.926000
v -0.482828 0.273500 1.928828
v -0.482309 0.271191 1.928309
v -0.482828 0.270672 1.926000
v -0.480000 0.270672 1.928828
v 0.060000 0.294500 1.036000
v 0.060000 0.290359 1.035455
v 0.060000 0.286500 1.033856
v 0.060000 0.280644 1.028000
v 0.060000 0.279045 1.024141
v 0.060000 0.278500 1.020000
v 0.060000 0.279045 1.015859
v 0.060000 0.280644 1.012000
v 0.060000 0.286500 1.006144
v 0.060000 0.290359 1.004545
v 0.060000 0.294500 1.004000
v 0.058415 0.290674 1.035455
v 0.056938 0.287109 1.033856
v 0.055670 0.284047 1.031314
v 0.054697 0.281698 1.028000
v 0.054086 0.280222 1.024141
v 0.053877 0.279718 1.020000
v 0.054086 0.280222 1.015859
v 0.054697 0.281698 1.012000
v 0.055670 0.284047 1.008686
v 0.056938 0.287109 1.006144
v 0.058415 0.290674 1.004545
v 0.057072 0.291572 1.035455
v 0.054343 0.288843 1.033856
v 0.052000 0.286500 1.031314
v 0.050202 0.284702 1.028000
v 0.049072 0.283572 1.024141
v 0.048686 0.283186 1.020000
v 0.049072 0.283572 1.015859
v 0.050202 0.284702 1.012000
v 0.052000 0.286500 1.008686
v 0.054343 0.288843 1.006144
v 0.057072 0.291572 1.004545
v 0.056174 0.292915 1.035455
v 0.052609 0.291439 1.033856
v 0.049547 0.290170 1.031314
v 0.047198 0.289197 1.028000
v 0.045722 0.288586 1.024141
v 0.045218 0.288377 1.020000
v 0.045722 0.288586 1.015859
v 0.047198 0.289197 1.012000
v 0.049547 0.290170 1.008686
v 0.052609 0.291439 1.006144
v 0.056174 0.292915 1.004545
v 0.055859 0.294500 1.035455
v 0.052000 0.294500 1.033856
v 0.048686 0.294500 1.031314
v 0.046143 0.294500 1.028000
v 0.044545 0.294500 1.024141
v 0.044000 0.294500 1.020000
v 0.044545 0.294500 1.015859
v 0.046143 0.294500 1.012000
v 0.048686 0.294500 1.008686
v 0.052000 0.294500 1.006144
v 0.055859 0.294500 1.004545
v 0.056174 0.296085 1.035455
v 0.052609 0.297561 1.033856
v 0.049547 0.298830 1.031314
v 0.047198 0.299803 1.028000
v 0.045722 0.300414 1.024141
v 0.045218 0.300623 1.020000
v 0.045722 0.300414 1.015859
v 0.047198 0.299803 1.012000
v 0.049547 0.298830 1.008686
v 0.052609 0.297561 1.006144
v 0.056174 0.296085 1.004545
v 0.057072 0.297428 1.035455
v 0.054343 0.300157 1.033856
v 0.052000 0.302500 1.031314
v 0.050202 0.304298 1.028000
v 0.049072 0.305428 1.024141
v 0.048686 0.305814 1.020000
v 0.049072 0.305428 1.015859
v 0.050202 0.304298 1.012000
v 0.052000 0.302500 1.008686
v 0.054343 0.300157 1.006144
v 0.057072 0.297428 1.004545
v 0.058415 0.298326 1.035455
v 0.056938 0.301891 1.033856
v 0.055670 0.304953 1.031314
v 0.054697 0.307302 1.028000
v 0.054086 0.308778 1.024141
v 0.053877 0.309282 1.020000
v 0.054086 0.308778 1.015859
v 0.054697 0.307302 1.012000
v 0.055670 0.304953 1.008686
v 0.056938 0.301891 1.006144
v 0.058415 0.298326 1.004545
v 0.060000 0.298641 1.035455
v 0.060000 0.302500 1.033856
v 0.060000 0.305814 1.031314
v 0.060000 0.308356 1.028000
v 0.060000 0.309955 1.024141
v 0.060000 0.310500 1.020000
v 0.060000 0.309955 1.015859
v 0.060000 0.308356 1.012000
v 0.060000 0.305814 1.008686
v 0.060000 0.302500 1.006144
v 0.060000 0.298641 1.004545
v 0.061585 0.298326 1.035455
v 0.063061 0.301891 1.033856
v 0.064329 0.304953 1.031314
v 0.065303 0.307302 1.028000
v 0.065914 0.308778 1.024141
v 0.066123 0.309282 1.020000
v 0.065914 0.308778 1.015859
v 0.065303 0.307302 1.012000
v 0.064329 0.304953 1.008686
v 0.063061 0.301891 1.006144
v 0.061585 0.298326 1.004545
v 0.062928 0.297428 1.035455
v 0.065657 0.300157 1.033856
v 0.068000 0.302500 1.031314
v 0.069798 0.304298 1.028000
v 0.070928 0.305428 1.024141
v 0.071314 0.305814 1.020000
v 0.070928 0.305428 1.015859
v 0.069798 0.304298 1.012000
v 0.068000 0.302500 1.008686
v 0.065657 0.300157 1.006144
v 0.062928 0.297428 1.004545
v 0.063826 0.296085 1.035455
v 0.067391 0.297561 1.033856
v 0.070452 0.298830 1.031314
v 0.072802 0.299803 1.028000
v 0.074278 0.300414 1.024141
v 0.074782 0.300623 1.020000
v 0.074278 0.300414 1.015859
v 0.072802 0.299803 1.012000
v 0.070452 0.298830 1.008686
v 0.067391 0.297561 1.006144
v 0.063826 0.296085 1.004545
v 0.064141 0.294500 1.035455
v 0.068000 0.294500 1.033856
v 0.071314 0.294500 1.031314
v 0.073856 0.294500 1.028000
v 0.075455 0.294500 1.024141
v 0.076000 0.294500 1.020000
v 0.075455 0.294500 1.015859
v 0.073856 0.294500 1.012000
v 0.071314 0.294500 1.008686
v 0.068000 0.294500 1.006144
v 0.064141 0.294500 1.004545
v 0.063826 0.292915 1.035455
v 0.067391 0.291439 1.033856
v 0.070452 0.290170 1.031314
v 0.072802 0.289197 1.028000
v 0.074278 0.288586 1.024141
v 0.074782 0.288377 1.020000
v 0.074278 0.288586 1.015859
v 0.072802 0.289197 1.012000
v 0.070452 0.290170 1.008686
v 0.067391 0.291439 1.006144
v 0.063826 0.292915 1.004545
v 0.062928 0.291572 1.035455
v 0.065657 0.288843 1.033856
v 0.068000 0.286500 1.031314
v 0.069798 0.284702 1.028000
v 0.070928 0.283572 1.024141
v 0.071314 0.283186 1.020000
v 0.070928 0.283572 1.015859
v 0.069798 0.284702 1.012000
v 0.068000 0.286500 1.008686
v 0.065657 0.288843 1.006144
v 0.062928 0.291572 1.004545
v 0.061585 0.290674 1.035455
v 0.063061 0.287109 1.033856
v 0.064329 0.284047 1.031314
v 0.065303 0.281698 1.028000
v 0.065914 0.280222 1.024141
v 0.066123 0.279718 1.020000
v 0.065914 0.280222 1.015859
v 0.065303 0.281698 1.012000
v 0.064329 0.284047 1.008686
v 0.063061 0.287109 1.006144
v 0.061585 0.290674 1.004545
v 0.060000 0.283186 1.031314
v 0.060000 0.283186 1.008686
v -0.060000 0.294500 1.036000
v -0.060000 0.290359 1.035455
v -0.060000 0.286500 1.033856
v -0.060000 0.280644 1.028000
v -0.060000 0.279045 1.024141
v -0.060000 0.278500 1.020000
v -0.060000 0.279045 1.015859
v -0.060000 0.280644 1.012000
v -0.060000 0.286500 1.006144
v -0.060000 0.290359 1.004545
v -0.060000 0.294500 1.004000
v -0.061585 0.290674 1.035455
v -0.063062 0.287109 1.033856
v -0.064330 0.284047 1.031314
v -0.065303 0.281698 1.028000
v -0.065915 0.280222 1.024141
v -0.066123 0.279718 1.020000
v -0.065915 0.280222 1.015859
v -0.065303 0.281698 1.012000
v -0.064330 0.284047 1.008686
v -0.063062 0.287109 1.006144
v -0.061585 0.290674 1.004545
v -0.062928 0.291572 1.035455
v -0.065657 0.288843 1.033856
v -0.068000 0.286500 1.031314
v -0.069798 0.284702 1.028000
v -0.070928 0.283572 1.024141
v -0.071314 0.283186 1.020000
v -0.070928 0.283572 1.015859
v -0.069798 0.284702 1.012000
v -0.068000 0.286500 1.008686
v -0.065657 0.288843 1.006144
v -0.062928 0.291572 1.004545
v -0.063826 0.292915 1.035455
v -0.067391 0.291439 1.033856
v -0.070453 0.290170 1.031314
v -0.072802 0.289197 1.028000
v -0.074279 0.288586 1.024141
v -0.074782 0.288377 1.020000
v -0.074279 0.288586 1.015859
v -0.072802 0.289197 1.012000
v -0.070453 0.290170 1.008686
v -0.067391 0.291439 1.006144
v -0.063826 0.292915 1.004545
v -0.064141 0.294500 1.035455
v -0.068000 0.294500 1.033856
v -0.071314 0.294500 1.031314
v -0.073857 0.294500 1.028000
v -0.075455 0.294500 1.024141
v -0.076000 0.294500 1.020000
v -0.075455 0.294500 1.015859
v -0.073857 0.294500 1.012000
v -0.071314 0.294500 1.008686
v -0.068000 0.294500 1.006144
v -0.064141 0.294500 1.004545
v -0.063826 0.296085 1.035455
v -0.067391 0.297561 1.033856
v -0.070453 0.298830 1.031314
v -0.072802 0.299803 1.028000
v -0.074279 0.300414 1.024141
v -0.074782 0.300623 1.020000
v -0.074279 0.300414 1.015859
v -0.072802 0.299803 1.012000
v -0.070453 0.298830 1.008686
v -0.067391 0.297561 1.006144
v -0.063826 0.296085 1.004545
v -0.062928 0.297428 1.035455
v -0.065657 0.300157 1.033856
v -0.068000 0.302500 1.031314
v -0.069798 0.304298 1.028000
v -0.070928 0.305428 1.024141
v -0.071314 0.305814 1.020000
v -0.070928 0.305428 1.015859
v -0.069798 0.304298 1.012000
v -0.068000 0.302500 1.008686
v -0.065657 0.300157 1.006144
v -0.062928 0.297428 1.004545
v -0.061585 0.298326 1.035455
v -0.063062 0.301891 1.033856
v -0.064330 0.304953 1.031314
v -0.065303 0.307302 1.028000
v -0.065915 0.308778 1.024141
v -0.066123 0.309282 1.020000
v -0.065915 0.308778 1.015859
v -0.065303 0.307302 1.012000
v -0.064330 0.304953 1.008686
v -0.063062 0.301891 1.006144
v -0.061585 0.298326 1.004545
v -0.060000 0.298641 1.035455
v -0.060000 0.302500 1.033856
v -0.060000 0.305814 1.031314
v -0.060000 0.308356 1.028000
v -0.060000 0.309955 1.024141
v -0.060000 0.310500 1.020000
v -0.060000 0.309955 1.015859
v -0.060000 0.308356 1.012000
v -0.060000 0.305814 1.008686
v -0.060000 0.302500 1.006144
v -0.060000 0.298641 1.004545
v -0.058415 0.298326 1.035455
v -0.056939 0.301891 1.033856
v -0.055671 0.304953 1.031314
v -0.054698 0.307302 1.028000
v -0.054086 0.308778 1.024141
v -0.053877 0.309282 1.020000
v -0.054086 0.308778 1.015859
v -0.054698 0.307302 1.012000
v -0.055671 0.304953 1.008686
v -0.056939 0.301891 1.006144
v -0.058415 0.298326 1.004545
v -0.057072 0.297428 1.035455
v -0.054343 0.300157 1.033856
v -0.052000 0.302500 1.031314
v -0.050202 0.304298 1.028000
v -0.049072 0.305428 1.024141
v -0.048687 0.305814 1.020000
v -0.049072 0.305428 1.015859
v -0.050202 0.304298 1.012000
v -0.052000 0.302500 1.008686
v -0.054343 0.300157 1.006144
v -0.057072 0.297428 1.004545
v -0.056174 0.296085 1.035455
v -0.052609 0.297561 1.033856
v -0.049548 0.298830 1.031314
v -0.047199 0.299803 1.028000
v -0.045722 0.300414 1.024141
v -0.045218 0.300623 1.020000
v -0.045722 0.300414 1.015859
v -0.047199 0.299803 1.012000
v -0.049548 0.298830 1.008686
v -0.052609 0.297561 1.006144
v -0.056174 0.296085 1.004545
v -0.055859 0.294500 1.035455
v -0.052000 0.294500 1.033856
v -0.048687 0.294500 1.031314
v -0.046144 0.294500 1.028000
v -0.044545 0.294500 1.024141
v -0.044000 0.294500 1.020000
v -0.044545 0.294500 1.015859
v -0.046144 0.294500 1.012000
v -0.048687 0.294500 1.008686
v -0.052000 0.294500 1.006144
v -0.055859 0.294500 1.004545
v -0.056174 0.292915 1.035455
v -0.052609 0.291439 1.033856
v -0.049548 0.290170 1.031314
v -0.047199 0.289197 1.028000
v -0.045722 0.288586 1.024141
v -0.045218 0.288377 1.020000
v -0.045722 0.288586 1.015859
v -0.047199 0.289197 1.012000
v -0.049548 0.290170 1.008686
v -0.052609 0.291439 1.006144
v -0.056174 0.292915 1.004545
v -0.057072 0.291572 1.035455
v -0.054343 0.288843 1.033856
v -0.052000 0.286500 1.031314
v -0.050202 0.284702 1.028000
v -0.049072 0.283572 1.024141
v -0.048687 0.283186 1.020000
v -0.049072 0.283572 1.015859
v -0.050202 0.284702 1.012000
v -0.052000 0.286500 1.008686
v -0.054343 0.288843 1.006144
v -0.057072 0.291572 1.004545
v -0.058415 0.290674 1.035455
v -0.056939 0.287109 1.033856
v -0.055671 0.284047 1.031314
v -0.054698 0.281698 1.028000
v -0.054086 0.280222 1.024141
v -0.053877 0.279718 1.020000
v -0.054086 0.280222 1.015859
v -0.054698 0.281698 1.012000
v -0.055671 0.284047 1.008686
v -0.056939 0.287109 1.006144
v -0.058415 0.290674 1.004545
v -0.060000 0.283186 1.031314
v -0.060000 0.283186 1.008686
v 0.470000 0.229500 0.000000
v 0.470000 0.229500 0.050000
v 0.470000 -0.290500 0.000000
v 0.470000 -0.290500 0.050000
v -0.470000 0.229500 0.000000
v -0.470000 0.229500 0.050000
v -0.470000 -0.290500 0.000000
v -0.470000 -0.290500 0.050000
vn 0.3251 0.3251 -0.8881
vn 0.3251 0.8881 -0.3251
vn 0.8881 0.3251 -0.3251
vn 0.3251 0.8881 0.3251
vn 0.3251 0.3251 0.8881
vn 0.8881 0.3251 0.3251
vn 0.3251 -0.3251 -0.8881
vn 0.8881 -0.3251 -0.3251
vn 0.3251 -0.8881 -0.3251
vn 0.3251 -0.3251 0.8881
vn 0.3251 -0.8881 0.3251
vn 0.8881 -0.3251 0.3251
vn -0.3251 0.3251 -0.8881
vn -0.8881 0.3251 -0.3251
vn -0.3251 0.8881 -0.3251
vn -0.3251 0.3251 0.8881
vn -0.3251 0.8881 0.3251
vn -0.8881 0.3251 0.3251
vn -0.3251 -0.3251 -0.8881
vn -0.3251 -0.8881 -0.3251
vn -0.8881 -0.3251 -0.3251
vn -0.3251 -0.3251 0.8881
vn -0.8881 -0.3251 0.3251
vn -0.3251 -0.8881 0.3251
vn 0.3827 -0.0000 -0.9239
vn 0.9239 -0.0000 -0.3827
vn 0.3827 0.9239 -0.0000
vn 0.9239 0.3827 -0.0000
vn 0.3827 -0.0000 0.9239
vn 0.9239 -0.0000 0.3827
vn 0.3827 -0.9239 -0.0000
vn 0.9239 -0.3827 -0.0000
vn -0.0000 -0.3827 -0.9239
vn -0.0000 -0.9239 -0.3827
vn -0.0000 -0.3827 0.9239
vn -0.0000 -0.9239 0.3827
vn -0.9239 -0.3827 -0.0000
vn -0.3827 -0.9239 -0.0000
vn -0.3827 -0.0000 -0.9239
vn -0.9239 -0.0000 -0.3827
vn -0.3827 -0.0000 0.9239
vn -0.9239 -0.0000 0.3827
vn -0.3827 0.9239 -0.0000
vn -0.9239 0.3827 -0.0000
vn -0.0000 0.3827 -0.9239
vn -0.0000 0.9239 -0.3827
vn -0.0000 0.3827 0.9239
vn -0.0000 0.9239 0.3827
vn -0.0000 -0.0000 -1.0000
vn 1.0000 -0.0000 -0.0000
vn -0.0000 1.0000 -0.0000
vn -0.0000 -0.0000 1.0000
vn -0.0000 -1.0000 -0.0000
vn -1.0000 -0.0000 -0.0000
vn -0.1559 -0.7837 -0.6013
vn -0.1935 -0.9727 0.1281
vn -0.1202 -0.6043 0.7876
vn -0.1202 -0.6043 -0.7876
vn -0.1935 -0.9727 -0.1281
vn -0.1559 -0.7837 0.6013
vn -0.0759 -0.3816 -0.9212
vn -0.0260 -0.1305 0.9911
vn -0.1807 -0.9087 -0.3764
vn -0.1807 -0.9087 0.3764
vn -0.0260 -0.1305 -0.9911
vn -0.0759 -0.3816 0.9212
vn -0.4439 -0.6644 0.6013
vn -0.2161 -0.3235 -0.9212
vn -0.0739 -0.1106 0.9911
vn -0.5147 -0.7703 -0.3764
vn -0.5147 -0.7703 0.3764
vn -0.0739 -0.1106 -0.9911
vn -0.2161 -0.3235 0.9212
vn -0.4439 -0.6644 -0.6013
vn -0.5510 -0.8246 0.1281
vn -0.3423 -0.5123 0.7876
vn -0.3423 -0.5123 -0.7876
vn -0.5510 -0.8246 -0.1281
vn -0.8246 -0.5510 0.1281
vn -0.5123 -0.3423 0.7876
vn -0.5123 -0.3423 -0.7876
vn -0.8246 -0.5510 -0.1281
vn -0.6643 -0.4439 0.6013
vn -0.3235 -0.2161 -0.9212
vn -0.1106 -0.0739 0.9911
vn -0.7703 -0.5147 -0.3764
vn -0.7703 -0.5147 0.3764
vn -0.1106 -0.0739 -0.9911
vn -0.3235 -0.2161 0.9212
vn -0.6644 -0.4439 -0.6013
vn -0.9087 -0.1807 0.3764
vn -0.1305 -0.0260 -0.9911
vn -0.3816 -0.0759 0.9212
vn -0.7837 -0.1559 -0.6013
vn -0.9727 -0.1935 0.1281
vn -0.6043 -0.1202 0.7876
vn -0.6043 -0.1202 -0.7876
vn -0.9727 -0.1935 -0.1281
vn -0.7837 -0.1559 0.6013
vn -0.3816 -0.0759 -0.9212
vn -0.1305 -0.0260 0.9911
vn -0.9087 -0.1807 -0.3764
vn -0.9727 0.1935 -0.1281
vn -0.7837 0.1559 0.6013
vn -0.3816 0.0759 -0.9212
vn -0.1305 0.0260 0.9911
vn -0.9087 0.1807 -0.3764
vn -0.9087 0.1807 0.3764
vn -0.1305 0.0260 -0.9911
vn -0.3816 0.0759 0.9212
vn -0.7837 0.1559 -0.6013
vn -0.9727 0.1935 0.1281
vn -0.6043 0.1202 0.7876
vn -0.6043 0.1202 -0.7876
vn -0.8246 0.5510 0.1281
vn -0.5123 0.3423 0.7876
vn -0.5123 0.3423 -0.7876
vn -0.8246 0.5510 -0.1281
vn -0.6644 0.4439 0.6013
vn -0.3235 0.2161 -0.9212
vn -0.1106 0.0739 0.9911
vn -0.7703 0.5147 -0.3764
vn -0.7703 0.5147 0.3764
vn -0.1106 0.0739 -0.9911
vn -0.3235 0.2161 0.9212
vn -0.6644 0.4439 -0.6013
vn -0.5147 0.7703 -0.3764
vn -0.5147 0.7703 0.3764
vn -0.0739 0.1106 -0.9911
vn -0.2161 0.3235 0.9212
vn -0.4439 0.6644 -0.6013
vn -0.5510 0.8246 0.1281
vn -0.3423 0.5123 0.7876
vn -0.3423 0.5123 -0.7876
vn -0.5510 0.8246 -0.1281
vn -0.4439 0.6644 0.6013
vn -0.2161 0.3235 -0.9212
vn -0.0739 0.1106 0.9911
vn -0.1935 0.9727 -0.1281
vn -0.1559 0.7837 0.6013
vn -0.0759 0.3816 -0.9212
vn -0.0260 0.1305 0.9911
vn -0.1807 0.9087 -0.3764
vn -0.1807 0.9087 0.3764
vn -0.0260 0.1305 -0.9911
vn -0.0759 0.3816 0.9212
vn -0.1559 0.7837 -0.6013
vn -0.1935 0.9727 0.1281
vn -0.1202 0.6043 0.7876
vn -0.1202 0.6043 -0.7876
vn 0.1559 0.7837 -0.6013
vn 0.1935 0.9727 0.1281
vn 0.1202 0.6043 0.7876
vn 0.1202 0.6043 -0.7876
vn 0.1935 0.9727 -0.1281
vn 0.1559 0.7837 0.6013
vn 0.0759 0.3816 -0.9212
vn 0.0260 0.1305 0.9911
vn 0.1807 0.9087 -0.3764
vn 0.1807 0.9087 0.3764
vn 0.0260 0.1305 -0.9911
vn 0.0759 0.3816 0.9212
vn 0.0739 0.1106 0.9911
vn 0.5147 0.7703 -0.3764
vn 0.5147 0.7703 0.3764
vn 0.0739 0.1106 -0.9911
vn 0.2161 0.3235 0.9212
vn 0.4439 0.6644 -0.6013
vn 0.5510 0.8246 0.1281
vn 0.3423 0.5123 0.7876
vn 0.3423 0.5123 -0.7876
vn 0.5510 0.8246 -0.1281
vn 0.4439 0.6644 0.6013
vn 0.2161 0.3235 -0.9212
vn 0.5123 0.3423 -0.7876
vn 0.8246 0.5510 -0.1281
vn 0.6644 0.4439 0.6013
vn 0.3235 0.2161 -0.9212
vn 0.1106 0.0739 0.9911
vn 0.7703 0.5147 -0.3764
vn 0.7703 0.5147 0.3764
vn 0.1106 0.0739 -0.9911
vn 0.3235 0.2161 0.9212
vn 0.6644 0.4439 -0.6013
vn 0.8246 0.5510 0.1281
vn 0.5123 0.3423 0.7876
vn 0.3816 0.0759 0.9212
vn 0.7837 0.1559 -0.6013
vn 0.9727 0.1935 0.1281
vn 0.6043 0.1202 0.7876
vn 0.6043 0.1202 -0.7876
vn 0.9727 0.1935 -0.1281
vn 0.7837 0.1559 0.6013
vn 0.3816 0.0759 -0.9212
vn 0.1305 0.0260 0.9911
vn 0.9087 0.1807 -0.3764
vn 0.9087 0.1807 0.3764
vn 0.1305 0.0260 -0.9911
vn 0.3816 -0.0759 -0.9212
vn 0.1305 -0.0260 0.9911
vn 0.9087 -0.1807 -0.3764
vn 0.9087 -0.1807 0.3764
vn 0.1305 -0.0260 -0.9911
vn 0.3816 -0.0759 0.9212
vn 0.7837 -0.1559 -0.6013
vn 0.9727 -0.1935 0.1281
vn 0.6043 -0.1202 0.7876
vn 0.6043 -0.1202 -0.7876
vn 0.9727 -0.1935 -0.1281
vn 0.7837 -0.1559 0.6013
vn 0.5123 -0.3423 0.7876
vn 0.5123 -0.3423 -0.7876
vn 0.8246 -0.5510 -0.1281
vn 0.6644 -0.4439 0.6013
vn 0.3235 -0.2161 -0.9212
vn 0.1106 -0.0739 0.9911
vn 0.7703 -0.5147 -0.3764
vn 0.7703 -0.5147 0.3764
vn 0.1106 -0.0739 -0.9911
vn 0.3235 -0.2161 0.9212
vn 0.6644 -0.4439 -0.6013
vn 0.8246 -0.5510 0.1281
vn 0.0739 -0.1106 -0.9911
vn 0.2161 -0.3235 0.9212
vn 0.4439 -0.6644 -0.6013
vn 0.5510 -0.8246 0.1281
vn 0.3423 -0.5123 0.7876
vn 0.3423 -0.5123 -0.7876
vn 0.5510 -0.8246 -0.1281
vn 0.4439 -0.6644 0.6013
vn 0.2161 -0.3235 -0.9212
vn 0.0739 -0.1106 0.9911
vn 0.5147 -0.7703 -0.3764
vn 0.5147 -0.7703 0.3764
vn 0.1559 -0.7837 0.6013
vn 0.0759 -0.3816 -0.9212
vn 0.0260 -0.1305 0.9911
vn 0.1807 -0.9087 -0.3764
vn 0.1807 -0.9087 0.3764
vn 0.0260 -0.1305 -0.9911
vn 0.0759 -0.3816 0.9212
vn 0.1559 -0.7837 -0.6013
vn 0.1935 -0.9727 0.1281
vn 0.1202 -0.6043 0.7876
vn 0.1202 -0.6043 -0.7876
vn 0.1935 -0.9727 -0.1281
vn -0.6644 -0.4439 0.6013
vt 0.262070 0.505691
vt 0.261158 0.505691
vt 0.261325 0.504947
vt 0.262070 0.504780
vt 0.259675 0.496909
vt 0.260587 0.496909
vt 0.260420 0.497654
vt 0.259675 0.497821
vt 0.532524 0.496909
vt 0.532524 0.497821
vt 0.531779 0.497654
vt 0.531612 0.496909
vt 0.259675 0.004391
vt 0.259675 0.003479
vt 0.260420 0.003647
vt 0.260587 0.004391
vt 0.417834 0.760976
vt 0.417834 0.761887
vt 0.417089 0.761720
vt 0.416922 0.760976
vt 0.532524 0.004391
vt 0.531612 0.004391
vt 0.531779 0.003647
vt 0.532524 0.003479
vt 0.409052 0.505691
vt 0.409052 0.504780
vt 0.409796 0.504947
vt 0.409963 0.505691
vt 0.679506 0.496909
vt 0.680417 0.496909
vt 0.680250 0.497654
vt 0.679506 0.497821
vt 0.268457 0.496909
vt 0.268457 0.497821
vt 0.267713 0.497654
vt 0.267546 0.496909
vt 0.564816 0.760976
vt 0.565727 0.760976
vt 0.565560 0.761720
vt 0.564816 0.761887
vt 0.268457 0.004391
vt 0.267546 0.004391
vt 0.267713 0.003647
vt 0.268457 0.003479
vt 0.679506 0.004391
vt 0.679506 0.003479
vt 0.680250 0.003647
vt 0.680417 0.004391
vt 0.262070 0.760976
vt 0.262070 0.761887
vt 0.261325 0.761720
vt 0.261158 0.760976
vt 0.835270 0.496909
vt 0.836181 0.496909
vt 0.836014 0.497654
vt 0.835270 0.497821
vt 0.004391 0.496909
vt 0.004391 0.497821
vt 0.003647 0.497654
vt 0.003479 0.496909
vt 0.417834 0.505691
vt 0.416922 0.505691
vt 0.417089 0.504947
vt 0.417834 0.504780
vt 0.004391 0.004391
vt 0.003479 0.004391
vt 0.003647 0.003647
vt 0.004391 0.003479
vt 0.835270 0.004391
vt 0.835270 0.003479
vt 0.836014 0.003647
vt 0.836181 0.004391
vt 0.409052 0.760976
vt 0.409963 0.760976
vt 0.409796 0.761720
vt 0.409052 0.761887
vt 0.523742 0.496909
vt 0.524653 0.496909
vt 0.524486 0.497654
vt 0.523742 0.497821
vt 0.688288 0.496909
vt 0.688288 0.497821
vt 0.687543 0.497654
vt 0.687376 0.496909
vt 0.564816 0.505691
vt 0.564816 0.504780
vt 0.565560 0.504947
vt 0.565727 0.505691
vt 0.688288 0.004391
vt 0.687376 0.004391
vt 0.687543 0.003647
vt 0.688288 0.003479
vt 0.523742 0.004391
vt 0.523742 0.003479
vt 0.524486 0.003647
vt 0.524653 0.004391
vt 0.794979 0.505509
vt 0.794249 0.505509
vt 0.794383 0.504913
vt 0.794979 0.504780
vt 0.964291 0.476614
vt 0.965021 0.476614
vt 0.964887 0.477209
vt 0.964291 0.477343
vt 0.972709 0.476614
vt 0.972709 0.477343
vt 0.972113 0.477209
vt 0.971979 0.476614
vt 0.964291 0.004209
vt 0.964291 0.003479
vt 0.964887 0.003613
vt 0.965021 0.004209
vt 0.794979 0.754770
vt 0.794979 0.755500
vt 0.794383 0.755366
vt 0.794249 0.754770
vt 0.972709 0.004209
vt 0.971979 0.004209
vt 0.972113 0.003613
vt 0.972709 0.003479
vt 0.797042 0.505509
vt 0.797042 0.504780
vt 0.797637 0.504913
vt 0.797771 0.505509
vt 0.974771 0.476614
vt 0.975501 0.476614
vt 0.975367 0.477209
vt 0.974771 0.477343
vt 0.843869 0.957436
vt 0.843869 0.958165
vt 0.843274 0.958031
vt 0.843140 0.957436
vt 0.797042 0.754770
vt 0.797771 0.754770
vt 0.797637 0.755366
vt 0.797042 0.755500
vt 0.843869 0.485031
vt 0.843140 0.485031
vt 0.843274 0.484435
vt 0.843869 0.484302
vt 0.974771 0.004209
vt 0.974771 0.003479
vt 0.975367 0.003613
vt 0.975501 0.004209
vt 0.794979 0.625931
vt 0.794979 0.626660
vt 0.794383 0.626526
vt 0.794249 0.625931
vt 0.974771 0.957436
vt 0.975501 0.957436
vt 0.975367 0.958031
vt 0.974771 0.958165
vt 0.843869 0.476614
vt 0.843869 0.477343
vt 0.843274 0.477209
vt 0.843140 0.476614
vt 0.794979 0.634348
vt 0.794249 0.634348
vt 0.794383 0.633753
vt 0.794979 0.633619
vt 0.843869 0.004209
vt 0.843140 0.004209
vt 0.843274 0.003613
vt 0.843869 0.003479
vt 0.974771 0.485031
vt 0.974771 0.484302
vt 0.975367 0.484435
vt 0.975501 0.485031
vt 0.797042 0.625931
vt 0.797771 0.625931
vt 0.797637 0.626526
vt 0.797042 0.626660
vt 0.964291 0.957436
vt 0.965021 0.957436
vt 0.964887 0.958031
vt 0.964291 0.958165
vt 0.972709 0.957436
vt 0.972709 0.958165
vt 0.972113 0.958031
vt 0.971979 0.957436
vt 0.797042 0.634348
vt 0.797042 0.633619
vt 0.797637 0.633753
vt 0.797771 0.634348
vt 0.972709 0.485031
vt 0.971979 0.485031
vt 0.972113 0.484435
vt 0.972709 0.484302
vt 0.964291 0.485031
vt 0.964291 0.484302
vt 0.964887 0.484435
vt 0.965021 0.485031
vt 0.805459 0.505509
vt 0.804730 0.505509
vt 0.804863 0.504913
vt 0.805459 0.504780
vt 0.124631 0.977914
vt 0.125360 0.977914
vt 0.125226 0.978509
vt 0.124631 0.978643
vt 0.714463 0.977914
vt 0.714463 0.978643
vt 0.713867 0.978509
vt 0.713733 0.977914
vt 0.124631 0.505509
vt 0.124631 0.504780
vt 0.125226 0.504913
vt 0.125360 0.505509
vt 0.805459 0.754770
vt 0.805459 0.755500
vt 0.804863 0.755366
vt 0.804730 0.754770
vt 0.714463 0.505509
vt 0.713733 0.505509
vt 0.713867 0.504913
vt 0.714463 0.504780
vt 0.807522 0.505509
vt 0.807522 0.504780
vt 0.808117 0.504913
vt 0.808251 0.505509
vt 0.716526 0.977914
vt 0.717255 0.977914
vt 0.717121 0.978509
vt 0.716526 0.978643
vt 0.133048 0.977914
vt 0.133048 0.978643
vt 0.132453 0.978509
vt 0.132319 0.977914
vt 0.807522 0.754770
vt 0.808251 0.754770
vt 0.808117 0.755366
vt 0.807522 0.755500
vt 0.133048 0.505509
vt 0.132319 0.505509
vt 0.132453 0.504913
vt 0.133048 0.504780
vt 0.716526 0.505509
vt 0.716526 0.504780
vt 0.717121 0.504913
vt 0.717255 0.505509
vt 0.805459 0.625931
vt 0.805459 0.626660
vt 0.804863 0.626526
vt 0.804730 0.625931
vt 0.727006 0.977914
vt 0.727735 0.977914
vt 0.727601 0.978509
vt 0.727006 0.978643
vt 0.004209 0.977914
vt 0.004209 0.978643
vt 0.003613 0.978509
vt 0.003479 0.977914
vt 0.805459 0.634348
vt 0.804730 0.634348
vt 0.804863 0.633753
vt 0.805459 0.633619
vt 0.004209 0.505509
vt 0.003479 0.505509
vt 0.003613 0.504913
vt 0.004209 0.504780
vt 0.727006 0.505509
vt 0.727006 0.504780
vt 0.727601 0.504913
vt 0.727735 0.505509
vt 0.807522 0.625931
vt 0.808251 0.625931
vt 0.808117 0.626526
vt 0.807522 0.626660
vt 0.253470 0.977914
vt 0.254199 0.977914
vt 0.254066 0.978509
vt 0.253470 0.978643
vt 0.724943 0.977914
vt 0.724943 0.978643
vt 0.724347 0.978509
vt 0.724214 0.977914
vt 0.807522 0.634348
vt 0.807522 0.633619
vt 0.808117 0.633753
vt 0.808251 0.634348
vt 0.724943 0.505509
vt 0.724214 0.505509
vt 0.724347 0.504913
vt 0.724943 0.504780
vt 0.253470 0.505509
vt 0.253470 0.504780
vt 0.254066 0.504913
vt 0.254199 0.505509
vt 0.750405 0.759964
vt 0.750405 0.759110
vt 0.751772 0.759110
vt 0.751521 0.759964
vt 0.750405 0.757047
vt 0.750405 0.755979
vt 0.751930 0.755979
vt 0.751983 0.757047
vt 0.290175 0.774568
vt 0.290009 0.773730
vt 0.290752 0.773422
vt 0.291227 0.774133
vt 0.314566 0.773731
vt 0.314400 0.774569
vt 0.313348 0.774133
vt 0.313823 0.773423
vt 0.750405 0.758115
vt 0.751930 0.758115
vt 0.750405 0.754984
vt 0.750405 0.754129
vt 0.751521 0.754129
vt 0.751772 0.754984
vt 0.314760 0.772755
vt 0.314375 0.772595
vt 0.289814 0.772754
vt 0.289606 0.771707
vt 0.290199 0.772595
vt 0.314969 0.771707
vt 0.752468 0.754129
vt 0.752931 0.754984
vt 0.313254 0.772853
vt 0.314081 0.772301
vt 0.290494 0.772300
vt 0.753223 0.758115
vt 0.752931 0.759110
vt 0.753223 0.755979
vt 0.291321 0.772853
vt 0.752468 0.759964
vt 0.753322 0.757047
vt 0.292032 0.773328
vt 0.312543 0.773328
vt 0.760281 0.757047
vt 0.760380 0.755979
vt 0.761673 0.755979
vt 0.761619 0.757047
vt 0.291629 0.772110
vt 0.292467 0.772276
vt 0.312107 0.772276
vt 0.312945 0.772110
vt 0.760380 0.758115
vt 0.761673 0.758115
vt 0.760671 0.754984
vt 0.761135 0.754129
vt 0.762082 0.754129
vt 0.761831 0.754984
vt 0.313921 0.771916
vt 0.290653 0.771915
vt 0.760671 0.759110
vt 0.761831 0.759110
vt 0.761135 0.759964
vt 0.762082 0.759964
vt 0.763198 0.754984
vt 0.763198 0.755979
vt 0.313921 0.771499
vt 0.290653 0.771499
vt 0.291629 0.771305
vt 0.763198 0.759110
vt 0.763198 0.759964
vt 0.763198 0.757047
vt 0.292467 0.771138
vt 0.312107 0.771138
vt 0.312945 0.771305
vt 0.763198 0.758115
vt 0.763198 0.754129
vt 0.764777 0.757047
vt 0.764723 0.758115
vt 0.764314 0.754129
vt 0.764565 0.754984
vt 0.313254 0.770561
vt 0.314081 0.771114
vt 0.290494 0.771114
vt 0.764565 0.759110
vt 0.764723 0.755979
vt 0.291321 0.770561
vt 0.764314 0.759964
vt 0.292032 0.770086
vt 0.312543 0.770086
vt 0.766016 0.755979
vt 0.766115 0.757047
vt 0.290752 0.769992
vt 0.291227 0.769281
vt 0.313348 0.769282
vt 0.313823 0.769992
vt 0.766016 0.758115
vt 0.765261 0.754129
vt 0.765725 0.754984
vt 0.314375 0.770819
vt 0.290199 0.770819
vt 0.765725 0.759110
vt 0.765261 0.759964
vt 0.261549 0.773826
vt 0.261257 0.772831
vt 0.262550 0.772831
vt 0.262708 0.773826
vt 0.261257 0.770695
vt 0.261549 0.769700
vt 0.262708 0.769700
vt 0.262550 0.770695
vt 0.314760 0.770660
vt 0.289814 0.770660
vt 0.290009 0.769684
vt 0.262012 0.774681
vt 0.262959 0.774681
vt 0.261158 0.771763
vt 0.262497 0.771763
vt 0.290175 0.768846
vt 0.314400 0.768846
vt 0.314566 0.769684
vt 0.262012 0.768846
vt 0.262959 0.768846
vt 0.264075 0.771763
vt 0.264075 0.772831
vt 0.264075 0.768846
vt 0.264075 0.769700
vt 0.315371 0.769684
vt 0.315177 0.770660
vt 0.289398 0.770660
vt 0.264075 0.773826
vt 0.264075 0.770695
vt 0.289204 0.769684
vt 0.264075 0.774681
vt 0.289037 0.768846
vt 0.315538 0.768846
vt 0.265443 0.773826
vt 0.265192 0.774681
vt 0.265600 0.770695
vt 0.265654 0.771763
vt 0.288460 0.769992
vt 0.287985 0.769281
vt 0.316590 0.769282
vt 0.316115 0.769992
vt 0.265600 0.772831
vt 0.265192 0.768846
vt 0.265443 0.769700
vt 0.315562 0.770819
vt 0.289013 0.770819
vt 0.288718 0.771114
vt 0.266893 0.772831
vt 0.266602 0.773826
vt 0.266602 0.769700
vt 0.266893 0.770695
vt 0.315857 0.771114
vt 0.287891 0.770561
vt 0.266138 0.774681
vt 0.266993 0.771763
vt 0.287180 0.770086
vt 0.317394 0.770086
vt 0.316684 0.770561
vt 0.266138 0.768846
vt 0.317830 0.771138
vt 0.316992 0.771305
vt 0.734793 0.770908
vt 0.734694 0.769840
vt 0.736032 0.769840
vt 0.736086 0.770908
vt 0.735085 0.767777
vt 0.735548 0.766923
vt 0.736495 0.766923
vt 0.736244 0.767777
vt 0.316016 0.771499
vt 0.288559 0.771499
vt 0.735085 0.771903
vt 0.736244 0.771903
vt 0.734793 0.768772
vt 0.736086 0.768772
vt 0.287583 0.771305
vt 0.735548 0.772758
vt 0.736495 0.772758
vt 0.286745 0.771138
vt 0.288559 0.771915
vt 0.287583 0.772110
vt 0.737611 0.771903
vt 0.737611 0.772758
vt 0.737611 0.768772
vt 0.737611 0.769840
vt 0.286745 0.772276
vt 0.317830 0.772276
vt 0.316992 0.772110
vt 0.737611 0.770908
vt 0.737611 0.766923
vt 0.737611 0.767777
vt 0.316016 0.771916
vt 0.316684 0.772853
vt 0.315857 0.772301
vt 0.288718 0.772300
vt 0.739136 0.770908
vt 0.738979 0.771903
vt 0.738979 0.767777
vt 0.739136 0.768772
vt 0.287891 0.772853
vt 0.738728 0.772758
vt 0.739190 0.769840
vt 0.287180 0.773328
vt 0.317394 0.773328
vt 0.738728 0.766923
vt 0.288460 0.773422
vt 0.287985 0.774133
vt 0.316590 0.774133
vt 0.316115 0.773423
vt 0.740529 0.769840
vt 0.740429 0.770908
vt 0.739674 0.766923
vt 0.740138 0.767777
vt 0.315562 0.772595
vt 0.289013 0.772595
vt 0.740138 0.771903
vt 0.740429 0.768772
vt 0.739674 0.772758
vt 0.315177 0.772755
vt 0.289398 0.772754
vt 0.289204 0.773730
vt 0.748342 0.759964
vt 0.747878 0.759110
vt 0.749037 0.759110
vt 0.749288 0.759964
vt 0.747487 0.757047
vt 0.747587 0.755979
vt 0.748880 0.755979
vt 0.748826 0.757047
vt 0.289037 0.774568
vt 0.315538 0.774569
vt 0.315371 0.773731
vt 0.747587 0.758115
vt 0.748880 0.758115
vt 0.747878 0.754984
vt 0.748342 0.754129
vt 0.749288 0.754129
vt 0.749037 0.754984
vt 0.302287 0.771707
vt 0.301694 0.772595
vt 0.301400 0.772300
vt 0.328796 0.773423
vt 0.328243 0.772595
vt 0.328538 0.772301
vt 0.329365 0.772853
vt 0.276869 0.774681
vt 0.276869 0.773826
vt 0.278236 0.773826
vt 0.277985 0.774681
vt 0.276869 0.771763
vt 0.276869 0.770695
vt 0.278394 0.770695
vt 0.278448 0.771763
vt 0.329271 0.774133
vt 0.330076 0.773328
vt 0.301141 0.773422
vt 0.300667 0.774133
vt 0.299862 0.773328
vt 0.300572 0.772853
vt 0.276869 0.772831
vt 0.278394 0.772831
vt 0.276869 0.769700
vt 0.276869 0.768846
vt 0.277985 0.768846
vt 0.278236 0.769700
vt 0.327650 0.771707
vt 0.279786 0.771763
vt 0.279687 0.772831
vt 0.278932 0.768846
vt 0.279395 0.769700
vt 0.300264 0.772110
vt 0.301240 0.771916
vt 0.328697 0.771916
vt 0.279395 0.773826
vt 0.279687 0.770695
vt 0.329673 0.772110
vt 0.278932 0.774681
vt 0.330511 0.772277
vt 0.299426 0.772276
vt 0.748342 0.772758
vt 0.747878 0.771903
vt 0.749037 0.771903
vt 0.749288 0.772758
vt 0.747487 0.769840
vt 0.747587 0.768772
vt 0.748879 0.768772
vt 0.748826 0.769840
vt 0.329673 0.771305
vt 0.330511 0.771138
vt 0.299426 0.771138
vt 0.300264 0.771305
vt 0.747587 0.770908
vt 0.748879 0.770908
vt 0.747878 0.767777
vt 0.748342 0.766923
vt 0.749288 0.766923
vt 0.749037 0.767777
vt 0.301240 0.771499
vt 0.328697 0.771499
vt 0.328538 0.771114
vt 0.750405 0.770908
vt 0.750405 0.771903
vt 0.750405 0.767777
vt 0.750405 0.768772
vt 0.301400 0.771114
vt 0.329365 0.770561
vt 0.750405 0.772758
vt 0.750405 0.769840
vt 0.330076 0.770087
vt 0.299862 0.770086
vt 0.300572 0.770561
vt 0.750405 0.766923
vt 0.300667 0.769282
vt 0.301141 0.769992
vt 0.751983 0.769840
vt 0.751930 0.770908
vt 0.751521 0.766923
vt 0.751772 0.767777
vt 0.301694 0.770819
vt 0.328243 0.770819
vt 0.751772 0.771903
vt 0.751930 0.768772
vt 0.328796 0.769992
vt 0.751521 0.772758
vt 0.329271 0.769282
vt 0.327858 0.770660
vt 0.328053 0.769684
vt 0.752931 0.771903
vt 0.752468 0.772758
vt 0.753223 0.768772
vt 0.753322 0.769840
vt 0.328219 0.768846
vt 0.301718 0.768846
vt 0.301885 0.769684
vt 0.753223 0.770908
vt 0.752468 0.766923
vt 0.752931 0.767777
vt 0.302079 0.770660
vt 0.302690 0.769684
vt 0.302496 0.770660
vt 0.327442 0.770660
vt 0.739674 0.759573
vt 0.738679 0.759865
vt 0.738679 0.758572
vt 0.739674 0.758414
vt 0.736543 0.759865
vt 0.735548 0.759573
vt 0.735548 0.758414
vt 0.736543 0.758572
vt 0.327248 0.769684
vt 0.740529 0.759110
vt 0.740529 0.758163
vt 0.737611 0.759964
vt 0.737611 0.758626
vt 0.327081 0.768846
vt 0.302857 0.768846
vt 0.734694 0.759110
vt 0.734694 0.758163
vt 0.326504 0.769992
vt 0.326029 0.769282
vt 0.303908 0.769282
vt 0.303434 0.769992
vt 0.737611 0.757047
vt 0.738679 0.757047
vt 0.734694 0.757047
vt 0.735548 0.757047
vt 0.302881 0.770819
vt 0.327057 0.770819
vt 0.739674 0.757047
vt 0.736543 0.757047
vt 0.740529 0.757047
vt 0.303175 0.771114
vt 0.326762 0.771114
vt 0.325935 0.770561
vt 0.739674 0.755679
vt 0.740529 0.755930
vt 0.736543 0.755522
vt 0.737611 0.755468
vt 0.325224 0.770087
vt 0.304713 0.770086
vt 0.304003 0.770561
vt 0.738679 0.755522
vt 0.734694 0.755930
vt 0.735548 0.755679
vt 0.734694 0.754984
vt 0.735548 0.754520
vt 0.304311 0.771305
vt 0.303335 0.771499
vt 0.326603 0.771499
vt 0.738679 0.754229
vt 0.739674 0.754520
vt 0.736543 0.754229
vt 0.325627 0.771305
vt 0.740529 0.754984
vt 0.737611 0.754129
vt 0.324789 0.771138
vt 0.305149 0.771138
vt 0.325627 0.772110
vt 0.324789 0.772277
vt 0.305149 0.772276
vt 0.304311 0.772110
vt 0.760380 0.770908
vt 0.760281 0.769840
vt 0.761619 0.769840
vt 0.761673 0.770908
vt 0.760671 0.767777
vt 0.761135 0.766923
vt 0.762082 0.766923
vt 0.761831 0.767777
vt 0.303335 0.771916
vt 0.326603 0.771916
vt 0.760671 0.771903
vt 0.761831 0.771903
vt 0.760380 0.768772
vt 0.761673 0.768772
vt 0.761135 0.772758
vt 0.762082 0.772758
vt 0.763198 0.767777
vt 0.763198 0.768772
vt 0.303175 0.772300
vt 0.326762 0.772301
vt 0.325935 0.772853
vt 0.763198 0.771903
vt 0.763198 0.772758
vt 0.763198 0.769840
vt 0.325224 0.773328
vt 0.304713 0.773328
vt 0.304003 0.772853
vt 0.763198 0.770908
vt 0.763198 0.766923
vt 0.764314 0.766923
vt 0.764565 0.767777
vt 0.303434 0.773422
vt 0.302881 0.772595
vt 0.327057 0.772595
vt 0.764723 0.770908
vt 0.764565 0.771903
vt 0.764723 0.768772
vt 0.326504 0.773423
vt 0.764314 0.772758
vt 0.764777 0.769840
vt 0.326029 0.774133
vt 0.303908 0.774133
vt 0.766016 0.768772
vt 0.766115 0.769840
vt 0.327248 0.773731
vt 0.327081 0.774569
vt 0.302857 0.774569
vt 0.302690 0.773731
vt 0.766016 0.770908
vt 0.765261 0.766923
vt 0.765725 0.767777
vt 0.302496 0.772755
vt 0.327442 0.772755
vt 0.765725 0.771903
vt 0.765261 0.772758
vt 0.274051 0.770695
vt 0.274342 0.769700
vt 0.275501 0.769700
vt 0.275344 0.770695
vt 0.302079 0.772755
vt 0.327858 0.772755
vt 0.328053 0.773731
vt 0.274806 0.774681
vt 0.274342 0.773826
vt 0.275501 0.773826
vt 0.275752 0.774681
vt 0.273951 0.771763
vt 0.275290 0.771763
vt 0.328219 0.774569
vt 0.301718 0.774569
vt 0.301885 0.773731
vt 0.274051 0.772831
vt 0.275344 0.772831
vt 0.274806 0.768846
vt 0.275752 0.768846
vt 0.787291 0.638868
vt 0.774397 0.638868
vt 0.774397 0.504780
vt 0.787291 0.504780
vt 0.747587 0.747171
vt 0.734694 0.747171
vt 0.734694 0.504780
vt 0.747587 0.504780
vt 0.787291 0.779916
vt 0.774397 0.779916
vt 0.774397 0.645827
vt 0.787291 0.645827
vt 0.767439 0.747171
vt 0.754546 0.747171
vt 0.754546 0.504780
vt 0.767439 0.504780
vt 0.706775 0.504780
vt 0.706775 0.747171
vt 0.572686 0.747171
vt 0.572686 0.504780
vt 0.706775 0.754129
vt 0.706775 0.996521
vt 0.572686 0.996521
vt 0.572686 0.754129
s 0
usemtl exp_A2_final
f 1/1/1 4/2/1 5/3/1 7/4/1
f 2/5/2 6/6/2 5/7/2 4/8/2
f 3/9/3 7/10/3 5/11/3 6/12/3
f 8/13/4 11/14/4 12/15/4 14/16/4
f 9/17/5 13/18/5 12/19/5 11/20/5
f 10/21/6 14/22/6 12/23/6 13/24/6
f 15/25/7 18/26/7 19/27/7 21/28/7
f 16/29/8 20/30/8 19/31/8 18/32/8
f 17/33/9 21/34/9 19/35/9 20/36/9
f 22/37/10 25/38/10 26/39/10 28/40/10
f 23/41/11 27/42/11 26/43/11 25/44/11
f 24/45/12 28/46/12 26/47/12 27/48/12
f 29/49/13 32/50/13 33/51/13 35/52/13
f 30/53/14 34/54/14 33/55/14 32/56/14
f 31/57/15 35/58/15 33/59/15 34/60/15
f 36/61/16 39/62/16 40/63/16 42/64/16
f 37/65/17 41/66/17 40/67/17 39/68/17
f 38/69/18 42/70/18 40/71/18 41/72/18
f 43/73/19 46/74/19 47/75/19 49/76/19
f 44/77/20 48/78/20 47/79/20 46/80/20
f 45/81/21 49/82/21 47/83/21 48/84/21
f 50/85/22 53/86/22 54/87/22 56/88/22
f 51/89/23 55/90/23 54/91/23 53/92/23
f 52/93/24 56/94/24 54/95/24 55/96/24
f 15/25/25 1/1/25 7/4/25 18/26/25
f 18/32/26 7/10/26 3/9/26 16/29/26
f 2/5/27 8/13/27 14/16/27 6/6/27
f 6/12/28 14/22/28 10/21/28 3/9/28
f 9/17/29 22/37/29 28/40/29 13/18/29
f 13/24/30 28/46/30 24/45/30 10/21/30
f 23/41/31 17/33/31 20/36/31 27/42/31
f 27/48/32 20/30/32 16/29/32 24/45/32
f 43/73/33 15/25/33 21/28/33 46/74/33
f 46/80/34 21/34/34 17/33/34 44/77/34
f 22/37/35 50/85/35 56/88/35 25/38/35
f 25/44/36 56/94/36 52/93/36 23/41/36
f 51/89/37 45/81/37 48/84/37 55/90/37
f 55/96/38 48/78/38 44/77/38 52/93/38
f 29/49/39 43/73/39 49/76/39 32/50/39
f 32/56/40 49/82/40 45/81/40 30/53/40
f 50/85/41 36/61/41 42/64/41 53/86/41
f 53/92/42 42/70/42 38/69/42 51/89/42
f 37/65/43 31/57/43 34/60/43 41/66/43
f 41/72/44 34/54/44 30/53/44 38/69/44
f 1/1/45 29/49/45 35/52/45 4/2/45
f 4/8/46 35/58/46 31/57/46 2/5/46
f 36/61/47 9/17/47 11/20/47 39/62/47
f 39/68/48 11/14/48 8/13/48 37/65/48
f 15/25/49 43/73/49 29/49/49 1/1/49
f 3/9/50 10/21/50 24/45/50 16/29/50
f 31/57/51 37/65/51 8/13/51 2/5/51
f 50/85/52 22/37/52 9/17/52 36/61/52
f 17/33/53 23/41/53 52/93/53 44/77/53
f 45/81/54 51/89/54 38/69/54 30/53/54
f 57/97/1 60/98/1 61/99/1 63/100/1
f 58/101/2 62/102/2 61/103/2 60/104/2
f 59/105/3 63/106/3 61/107/3 62/108/3
f 64/109/4 67/110/4 68/111/4 70/112/4
f 65/113/5 69/114/5 68/115/5 67/116/5
f 66/117/6 70/118/6 68/119/6 69/120/6
f 71/121/7 74/122/7 75/123/7 77/124/7
f 72/125/8 76/126/8 75/127/8 74/128/8
f 73/129/9 77/130/9 75/131/9 76/132/9
f 78/133/10 81/134/10 82/135/10 84/136/10
f 79/137/11 83/138/11 82/139/11 81/140/11
f 80/141/12 84/142/12 82/143/12 83/144/12
f 85/145/13 88/146/13 89/147/13 91/148/13
f 86/149/14 90/150/14 89/151/14 88/152/14
f 87/153/15 91/154/15 89/155/15 90/156/15
f 92/157/16 95/158/16 96/159/16 98/160/16
f 93/161/17 97/162/17 96/163/17 95/164/17
f 94/165/18 98/166/18 96/167/18 97/168/18
f 99/169/19 102/170/19 103/171/19 105/172/19
f 100/173/20 104/174/20 103/175/20 102/176/20
f 101/177/21 105/178/21 103/179/21 104/180/21
f 106/181/22 109/182/22 110/183/22 112/184/22
f 107/185/23 111/186/23 110/187/23 109/188/23
f 108/189/24 112/190/24 110/191/24 111/192/24
f 71/121/25 57/97/25 63/100/25 74/122/25
f 74/128/26 63/106/26 59/105/26 72/125/26
f 58/101/27 64/109/27 70/112/27 62/102/27
f 62/108/28 70/118/28 66/117/28 59/105/28
f 65/113/29 78/133/29 84/136/29 69/114/29
f 69/120/30 84/142/30 80/141/30 66/117/30
f 79/137/31 73/129/31 76/132/31 83/138/31
f 83/144/32 76/126/32 72/125/32 80/141/32
f 99/169/33 71/121/33 77/124/33 102/170/33
f 102/176/34 77/130/34 73/129/34 100/173/34
f 78/133/35 106/181/35 112/184/35 81/134/35
f 81/140/36 112/190/36 108/189/36 79/137/36
f 107/185/37 101/177/37 104/180/37 111/186/37
f 111/192/38 104/174/38 100/173/38 108/189/38
f 85/145/39 99/169/39 105/172/39 88/146/39
f 88/152/40 105/178/40 101/177/40 86/149/40
f 106/181/41 92/157/41 98/160/41 109/182/41
f 109/188/42 98/166/42 94/165/42 107/185/42
f 93/161/43 87/153/43 90/156/43 97/162/43
f 97/168/44 90/150/44 86/149/44 94/165/44
f 57/97/45 85/145/45 91/148/45 60/98/45
f 60/104/46 91/154/46 87/153/46 58/101/46
f 92/157/47 65/113/47 67/116/47 95/158/47
f 95/164/48 67/110/48 64/109/48 93/161/48
f 71/121/49 99/169/49 85/145/49 57/97/49
f 59/105/50 66/117/50 80/141/50 72/125/50
f 87/153/51 93/161/51 64/109/51 58/101/51
f 106/181/52 78/133/52 65/113/52 92/157/52
f 73/129/53 79/137/53 108/189/53 100/173/53
f 101/177/54 107/185/54 94/165/54 86/149/54
f 113/193/1 116/194/1 117/195/1 119/196/1
f 114/197/2 118/198/2 117/199/2 116/200/2
f 115/201/3 119/202/3 117/203/3 118/204/3
f 120/205/4 123/206/4 124/207/4 126/208/4
f 121/209/5 125/210/5 124/211/5 123/212/5
f 122/213/6 126/214/6 124/215/6 125/216/6
f 127/217/7 130/218/7 131/219/7 133/220/7
f 128/221/8 132/222/8 131/223/8 130/224/8
f 129/225/9 133/226/9 131/227/9 132/228/9
f 134/229/10 137/230/10 138/231/10 140/232/10
f 135/233/11 139/234/11 138/235/11 137/236/11
f 136/237/12 140/238/12 138/239/12 139/240/12
f 141/241/13 144/242/13 145/243/13 147/244/13
f 142/245/14 146/246/14 145/247/14 144/248/14
f 143/249/15 147/250/15 145/251/15 146/252/15
f 148/253/16 151/254/16 152/255/16 154/256/16
f 149/257/17 153/258/17 152/259/17 151/260/17
f 150/261/18 154/262/18 152/263/18 153/264/18
f 155/265/19 158/266/19 159/267/19 161/268/19
f 156/269/20 160/270/20 159/271/20 158/272/20
f 157/273/21 161/274/21 159/275/21 160/276/21
f 162/277/22 165/278/22 166/279/22 168/280/22
f 163/281/23 167/282/23 166/283/23 165/284/23
f 164/285/24 168/286/24 166/287/24 167/288/24
f 127/217/25 113/193/25 119/196/25 130/218/25
f 130/224/26 119/202/26 115/201/26 128/221/26
f 114/197/27 120/205/27 126/208/27 118/198/27
f 118/204/28 126/214/28 122/213/28 115/201/28
f 121/209/29 134/229/29 140/232/29 125/210/29
f 125/216/30 140/238/30 136/237/30 122/213/30
f 135/233/31 129/225/31 132/228/31 139/234/31
f 139/240/32 132/222/32 128/221/32 136/237/32
f 155/265/33 127/217/33 133/220/33 158/266/33
f 158/272/34 133/226/34 129/225/34 156/269/34
f 134/229/35 162/277/35 168/280/35 137/230/35
f 137/236/36 168/286/36 164/285/36 135/233/36
f 163/281/37 157/273/37 160/276/37 167/282/37
f 167/288/38 160/270/38 156/269/38 164/285/38
f 141/241/39 155/265/39 161/268/39 144/242/39
f 144/248/40 161/274/40 157/273/40 142/245/40
f 162/277/41 148/253/41 154/256/41 165/278/41
f 165/284/42 154/262/42 150/261/42 163/281/42
f 149/257/43 143/249/43 146/252/43 153/258/43
f 153/264/44 146/246/44 142/245/44 150/261/44
f 113/193/45 141/241/45 147/244/45 116/194/45
f 116/200/46 147/250/46 143/249/46 114/197/46
f 148/253/47 121/209/47 123/212/47 151/254/47
f 151/260/48 123/206/48 120/205/48 149/257/48
f 127/217/49 155/265/49 141/241/49 113/193/49
f 115/201/50 122/213/50 136/237/50 128/221/50
f 143/249/51 149/257/51 120/205/51 114/197/51
f 162/277/52 134/229/52 121/209/52 148/253/52
f 129/225/53 135/233/53 164/285/53 156/269/53
f 157/273/54 163/281/54 150/261/54 142/245/54
f 346/289/55 176/290/55 187/291/55 188/292/55
f 174/293/56 173/294/56 184/295/56 185/296/56
f 345/297/57 171/298/57 181/299/57 182/300/57
f 177/301/58 346/302/58 188/303/58 189/304/58
f 175/305/59 174/293/59 185/296/59 186/306/59
f 172/307/60 345/308/60 182/309/60 183/310/60
f 178/311/61 177/301/61 189/304/61 190/312/61
f 170/313/62 169/314/62 180/315/62
f 176/290/63 175/305/63 186/306/63 187/291/63
f 173/294/64 172/307/64 183/310/64 184/295/64
f 179/316/65 178/311/65 190/312/65
f 171/298/66 170/313/66 180/315/66 181/299/66
f 183/310/67 182/309/67 193/317/67 194/318/67
f 190/312/68 189/304/68 200/319/68 201/320/68
f 180/315/69 169/314/69 191/321/69
f 187/291/70 186/306/70 197/322/70 198/323/70
f 184/295/71 183/310/71 194/318/71 195/324/71
f 179/316/72 190/312/72 201/320/72
f 181/299/73 180/315/73 191/321/73 192/325/73
f 188/292/74 187/291/74 198/323/74 199/326/74
f 185/296/75 184/295/75 195/324/75 196/327/75
f 182/300/76 181/299/76 192/325/76 193/328/76
f 189/304/77 188/303/77 199/329/77 200/319/77
f 186/306/78 185/296/78 196/327/78 197/322/78
f 196/330/79 195/331/79 206/332/79 207/333/79
f 193/328/80 192/325/80 203/334/80 204/335/80
f 200/319/81 199/329/81 210/336/81 211/337/81
f 197/338/82 196/330/82 207/333/82 208/339/82
f 194/340/83 193/341/83 204/342/83 205/343/83
f 201/320/84 200/319/84 211/337/84 212/344/84
f 191/321/85 169/314/85 202/345/85
f 198/346/86 197/338/86 208/339/86 209/347/86
f 195/331/87 194/340/87 205/343/87 206/332/87
f 179/316/88 201/320/88 212/344/88
f 192/325/89 191/321/89 202/345/89 203/334/89
f 199/348/90 198/346/90 209/347/90 210/349/90
f 206/332/91 205/343/91 216/350/91 217/351/91
f 179/316/92 212/344/92 223/352/92
f 203/334/93 202/345/93 213/353/93 214/354/93
f 210/349/94 209/347/94 220/355/94 221/356/94
f 207/333/95 206/332/95 217/351/95 218/357/95
f 204/335/96 203/334/96 214/354/96 215/358/96
f 211/337/97 210/336/97 221/359/97 222/360/97
f 208/339/98 207/333/98 218/357/98 219/361/98
f 205/343/99 204/342/99 215/362/99 216/350/99
f 212/344/100 211/337/100 222/360/100 223/352/100
f 202/345/101 169/314/101 213/353/101
f 209/347/102 208/339/102 219/361/102 220/355/102
f 219/361/103 218/357/103 229/363/103 230/364/103
f 216/350/104 215/362/104 226/365/104 227/366/104
f 223/352/105 222/360/105 233/367/105 234/368/105
f 213/353/106 169/314/106 224/369/106
f 220/355/107 219/361/107 230/364/107 231/370/107
f 217/351/108 216/350/108 227/366/108 228/371/108
f 179/316/109 223/352/109 234/368/109
f 214/354/110 213/353/110 224/369/110 225/372/110
f 221/356/111 220/355/111 231/370/111 232/373/111
f 218/357/112 217/351/112 228/371/112 229/363/112
f 215/358/113 214/354/113 225/372/113 226/374/113
f 222/360/114 221/359/114 232/375/114 233/367/114
f 229/363/115 228/371/115 239/376/115 240/377/115
f 226/374/116 225/372/116 236/378/116 237/379/116
f 233/367/117 232/375/117 243/380/117 244/381/117
f 230/364/118 229/363/118 240/377/118 241/382/118
f 227/366/119 226/365/119 237/383/119 238/384/119
f 234/368/120 233/367/120 244/381/120 245/385/120
f 224/369/121 169/314/121 235/386/121
f 231/370/122 230/364/122 241/382/122 242/387/122
f 228/371/123 227/366/123 238/384/123 239/376/123
f 179/316/124 234/368/124 245/385/124
f 225/372/125 224/369/125 235/386/125 236/378/125
f 232/373/126 231/370/126 242/387/126 243/388/126
f 242/389/127 241/390/127 252/391/127 253/392/127
f 239/393/128 238/394/128 249/395/128 250/396/128
f 179/316/129 245/385/129 256/397/129
f 236/378/130 235/386/130 246/398/130 247/399/130
f 243/400/131 242/389/131 253/392/131 254/401/131
f 240/402/132 239/393/132 250/396/132 251/403/132
f 237/379/133 236/378/133 247/399/133 248/404/133
f 244/381/134 243/380/134 254/405/134 255/406/134
f 241/390/135 240/402/135 251/403/135 252/391/135
f 238/394/136 237/407/136 248/408/136 249/395/136
f 245/385/137 244/381/137 255/406/137 256/397/137
f 235/386/138 169/314/138 246/398/138
f 252/391/139 251/403/139 262/409/139 263/410/139
f 249/395/140 248/408/140 259/411/140 260/412/140
f 256/397/141 255/406/141 266/413/141 267/414/141
f 246/398/142 169/314/142 257/415/142
f 253/392/143 252/391/143 263/410/143 264/416/143
f 250/396/144 249/395/144 260/412/144 261/417/144
f 179/316/145 256/397/145 267/414/145
f 247/399/146 246/398/146 257/415/146 258/418/146
f 254/401/147 253/392/147 264/416/147 265/419/147
f 251/403/148 250/396/148 261/417/148 262/409/148
f 248/404/149 247/399/149 258/418/149 259/420/149
f 255/406/150 254/405/150 265/421/150 266/413/150
f 265/419/151 264/416/151 275/422/151 276/423/151
f 262/409/152 261/417/152 272/424/152 273/425/152
f 259/420/153 258/418/153 269/426/153 270/427/153
f 266/413/154 265/421/154 276/428/154 277/429/154
f 263/410/155 262/409/155 273/425/155 274/430/155
f 260/412/156 259/411/156 270/431/156 271/432/156
f 267/414/157 266/413/157 277/429/157 278/433/157
f 257/415/158 169/314/158 268/434/158
f 264/416/159 263/410/159 274/430/159 275/422/159
f 261/417/160 260/412/160 271/432/160 272/424/160
f 179/316/161 267/414/161 278/433/161
f 258/418/162 257/415/162 268/434/162 269/426/162
f 268/434/163 169/314/163 279/435/163
f 275/422/164 274/430/164 285/436/164 286/437/164
f 272/424/165 271/432/165 282/438/165 283/439/165
f 179/316/166 278/433/166 289/440/166
f 269/426/167 268/434/167 279/435/167 280/441/167
f 276/423/168 275/422/168 286/437/168 287/442/168
f 273/425/169 272/424/169 283/439/169 284/443/169
f 270/427/170 269/426/170 280/441/170 281/444/170
f 277/429/171 276/428/171 287/445/171 288/446/171
f 274/430/172 273/425/172 284/443/172 285/436/172
f 271/432/173 270/431/173 281/447/173 282/438/173
f 278/433/174 277/429/174 288/446/174 289/440/174
f 288/446/175 287/445/175 298/448/175 299/449/175
f 285/450/176 284/451/176 295/452/176 296/453/176
f 282/454/177 281/455/177 292/456/177 293/457/177
f 289/440/178 288/446/178 299/449/178 300/458/178
f 279/435/179 169/314/179 290/459/179
f 286/460/180 285/450/180 296/453/180 297/461/180
f 283/462/181 282/454/181 293/457/181 294/463/181
f 179/316/182 289/440/182 300/458/182
f 280/441/183 279/435/183 290/459/183 291/464/183
f 287/465/184 286/460/184 297/461/184 298/466/184
f 284/451/185 283/462/185 294/463/185 295/452/185
f 281/444/186 280/441/186 291/464/186 292/467/186
f 291/464/187 290/459/187 301/468/187 302/469/187
f 298/466/188 297/461/188 308/470/188 309/471/188
f 295/452/189 294/463/189 305/472/189 306/473/189
f 292/467/190 291/464/190 302/469/190 303/474/190
f 299/449/191 298/448/191 309/475/191 310/476/191
f 296/453/192 295/452/192 306/473/192 307/477/192
f 293/457/193 292/456/193 303/478/193 304/479/193
f 300/458/194 299/449/194 310/476/194 311/480/194
f 290/459/195 169/314/195 301/468/195
f 297/461/196 296/453/196 307/477/196 308/470/196
f 294/463/197 293/457/197 304/479/197 305/472/197
f 179/316/198 300/458/198 311/480/198
f 311/480/199 310/476/199 321/481/199 322/482/199
f 301/468/200 169/314/200 312/483/200
f 308/470/201 307/477/201 318/484/201 319/485/201
f 305/472/202 304/479/202 315/486/202 316/487/202
f 179/316/203 311/480/203 322/482/203
f 302/469/204 301/468/204 312/483/204 313/488/204
f 309/471/205 308/470/205 319/485/205 320/489/205
f 306/473/206 305/472/206 316/487/206 317/490/206
f 303/474/207 302/469/207 313/488/207 314/491/207
f 310/476/208 309/475/208 320/492/208 321/481/208
f 307/477/209 306/473/209 317/490/209 318/484/209
f 304/479/210 303/478/210 314/493/210 315/486/210
f 314/491/211 313/488/211 324/494/211 325/495/211
f 321/481/212 320/492/212 331/496/212 332/497/212
f 318/484/213 317/490/213 328/498/213 329/499/213
f 315/486/214 314/493/214 325/500/214 326/501/214
f 322/482/215 321/481/215 332/497/215 333/502/215
f 312/483/216 169/314/216 323/503/216
f 319/485/217 318/484/217 329/499/217 330/504/217
f 316/487/218 315/486/218 326/501/218 327/505/218
f 179/316/219 322/482/219 333/502/219
f 313/488/220 312/483/220 323/503/220 324/494/220
f 320/489/221 319/485/221 330/504/221 331/506/221
f 317/490/222 316/487/222 327/505/222 328/498/222
f 179/316/223 333/502/223 344/507/223
f 324/494/224 323/503/224 334/508/224 335/509/224
f 331/510/225 330/511/225 341/512/225 342/513/225
f 328/514/226 327/515/226 338/516/226 339/517/226
f 325/495/227 324/494/227 335/509/227 336/518/227
f 332/497/228 331/496/228 342/519/228 343/520/228
f 329/521/229 328/514/229 339/517/229 340/522/229
f 326/523/230 325/524/230 336/525/230 337/526/230
f 333/502/231 332/497/231 343/520/231 344/507/231
f 323/503/232 169/314/232 334/508/232
f 330/511/233 329/521/233 340/522/233 341/512/233
f 327/515/234 326/523/234 337/526/234 338/516/234
f 337/526/235 336/525/235 345/308/235 172/307/235
f 344/507/236 343/520/236 177/301/236 178/311/236
f 334/508/237 169/314/237 170/313/237
f 341/512/238 340/522/238 175/305/238 176/290/238
f 338/516/239 337/526/239 172/307/239 173/294/239
f 179/316/240 344/507/240 178/311/240
f 335/509/241 334/508/241 170/313/241 171/298/241
f 342/513/242 341/512/242 176/290/242 346/289/242
f 339/517/243 338/516/243 173/294/243 174/293/243
f 336/518/244 335/509/244 171/298/244 345/297/244
f 343/520/245 342/519/245 346/302/245 177/301/245
f 340/522/246 339/517/246 174/293/246 175/305/246
f 357/527/65 356/528/65 368/529/65
f 349/530/66 348/531/66 358/532/66 359/533/66
f 524/534/55 354/535/55 365/536/55 366/537/55
f 352/538/56 351/539/56 362/540/56 363/541/56
f 523/542/57 349/530/57 359/533/57 360/543/57
f 355/544/58 524/545/58 366/546/58 367/547/58
f 353/548/59 352/538/59 363/541/59 364/549/59
f 350/550/60 523/551/60 360/552/60 361/553/60
f 356/528/61 355/544/61 367/547/61 368/529/61
f 348/531/62 347/554/62 358/532/62
f 354/535/63 353/548/63 364/549/63 365/536/63
f 351/539/64 350/550/64 361/553/64 362/540/64
f 364/549/78 363/541/78 374/555/78 375/556/78
f 361/553/67 360/552/67 371/557/67 372/558/67
f 368/529/68 367/547/68 378/559/68 379/560/68
f 358/532/69 347/554/69 369/561/69
f 365/536/70 364/549/70 375/556/70 376/562/70
f 362/540/71 361/553/71 372/558/71 373/563/71
f 357/527/72 368/529/72 379/560/72
f 359/533/73 358/532/73 369/561/73 370/564/73
f 366/537/74 365/536/74 376/562/74 377/565/74
f 363/541/75 362/540/75 373/563/75 374/555/75
f 360/543/76 359/533/76 370/564/76 371/566/76
f 367/547/77 366/546/77 377/567/77 378/559/77
f 377/568/90 376/569/90 387/570/90 388/571/90
f 374/572/79 373/573/79 384/574/79 385/575/79
f 371/566/80 370/564/80 381/576/80 382/577/80
f 378/559/81 377/567/81 388/578/81 389/579/81
f 375/580/82 374/572/82 385/575/82 386/581/82
f 372/582/247 371/583/247 382/584/247 383/585/247
f 379/560/84 378/559/84 389/579/84 390/586/84
f 369/561/85 347/554/85 380/587/85
f 376/569/86 375/580/86 386/581/86 387/570/86
f 373/573/87 372/582/87 383/585/87 384/574/87
f 357/527/88 379/560/88 390/586/88
f 370/564/89 369/561/89 380/587/89 381/576/89
f 380/587/101 347/554/101 391/588/101
f 387/570/102 386/581/102 397/589/102 398/590/102
f 384/574/91 383/585/91 394/591/91 395/592/91
f 357/527/92 390/586/92 401/593/92
f 381/576/93 380/587/93 391/588/93 392/594/93
f 388/571/94 387/570/94 398/590/94 399/595/94
f 385/575/95 384/574/95 395/592/95 396/596/95
f 382/577/96 381/576/96 392/594/96 393/597/96
f 389/579/97 388/578/97 399/598/97 400/599/97
f 386/581/98 385/575/98 396/596/98 397/589/98
f 383/585/99 382/584/99 393/600/99 394/591/99
f 390/586/100 389/579/100 400/599/100 401/593/100
f 400/599/114 399/598/114 410/601/114 411/602/114
f 397/589/103 396/596/103 407/603/103 408/604/103
f 394/591/104 393/600/104 404/605/104 405/606/104
f 401/593/105 400/599/105 411/602/105 412/607/105
f 391/588/106 347/554/106 402/608/106
f 398/590/107 397/589/107 408/604/107 409/609/107
f 395/592/108 394/591/108 405/606/108 406/610/108
f 357/527/109 401/593/109 412/607/109
f 392/594/110 391/588/110 402/608/110 403/611/110
f 399/595/111 398/590/111 409/609/111 410/612/111
f 396/596/112 395/592/112 406/610/112 407/603/112
f 393/597/113 392/594/113 403/611/113 404/613/113
f 403/611/125 402/608/125 413/614/125 414/615/125
f 410/612/126 409/609/126 420/616/126 421/617/126
f 407/603/115 406/610/115 417/618/115 418/619/115
f 404/613/116 403/611/116 414/615/116 415/620/116
f 411/602/117 410/601/117 421/621/117 422/622/117
f 408/604/118 407/603/118 418/619/118 419/623/118
f 405/606/119 404/605/119 415/624/119 416/625/119
f 412/607/120 411/602/120 422/622/120 423/626/120
f 402/608/121 347/554/121 413/614/121
f 409/609/122 408/604/122 419/623/122 420/616/122
f 406/610/123 405/606/123 416/625/123 417/618/123
f 357/527/124 412/607/124 423/626/124
f 423/626/137 422/622/137 433/627/137 434/628/137
f 413/614/138 347/554/138 424/629/138
f 420/630/127 419/631/127 430/632/127 431/633/127
f 417/634/128 416/635/128 427/636/128 428/637/128
f 357/527/129 423/626/129 434/628/129
f 414/615/130 413/614/130 424/629/130 425/638/130
f 421/639/131 420/630/131 431/633/131 432/640/131
f 418/641/132 417/634/132 428/637/132 429/642/132
f 415/620/133 414/615/133 425/638/133 426/643/133
f 422/622/134 421/621/134 432/644/134 433/627/134
f 419/631/135 418/641/135 429/642/135 430/632/135
f 416/635/136 415/645/136 426/646/136 427/636/136
f 426/643/149 425/638/149 436/647/149 437/648/149
f 433/627/150 432/644/150 443/649/150 444/650/150
f 430/632/139 429/642/139 440/651/139 441/652/139
f 427/636/140 426/646/140 437/653/140 438/654/140
f 434/628/141 433/627/141 444/650/141 445/655/141
f 424/629/142 347/554/142 435/656/142
f 431/633/143 430/632/143 441/652/143 442/657/143
f 428/637/144 427/636/144 438/654/144 439/658/144
f 357/527/145 434/628/145 445/655/145
f 425/638/146 424/629/146 435/656/146 436/647/146
f 432/640/147 431/633/147 442/657/147 443/659/147
f 429/642/148 428/637/148 439/658/148 440/651/148
f 357/527/161 445/655/161 456/660/161
f 436/647/162 435/656/162 446/661/162 447/662/162
f 443/659/151 442/657/151 453/663/151 454/664/151
f 440/651/152 439/658/152 450/665/152 451/666/152
f 437/648/153 436/647/153 447/662/153 448/667/153
f 444/650/154 443/649/154 454/668/154 455/669/154
f 441/652/155 440/651/155 451/666/155 452/670/155
f 438/654/156 437/653/156 448/671/156 449/672/156
f 445/655/157 444/650/157 455/669/157 456/660/157
f 435/656/158 347/554/158 446/661/158
f 442/657/159 441/652/159 452/670/159 453/663/159
f 439/658/160 438/654/160 449/672/160 450/665/160
f 449/672/173 448/671/173 459/673/173 460/674/173
f 456/660/174 455/669/174 466/675/174 467/676/174
f 446/661/163 347/554/163 457/677/163
f 453/663/164 452/670/164 463/678/164 464/679/164
f 450/665/165 449/672/165 460/674/165 461/680/165
f 357/527/166 456/660/166 467/676/166
f 447/662/167 446/661/167 457/677/167 458/681/167
f 454/664/168 453/663/168 464/679/168 465/682/168
f 451/666/169 450/665/169 461/680/169 462/683/169
f 448/667/170 447/662/170 458/681/170 459/684/170
f 455/669/171 454/668/171 465/685/171 466/675/171
f 452/670/172 451/666/172 462/683/172 463/678/172
f 459/684/186 458/681/186 469/686/186 470/687/186
f 466/675/175 465/685/175 476/688/175 477/689/175
f 463/690/176 462/691/176 473/692/176 474/693/176
f 460/694/177 459/695/177 470/696/177 471/697/177
f 467/676/178 466/675/178 477/689/178 478/698/178
f 457/677/179 347/554/179 468/699/179
f 464/700/180 463/690/180 474/693/180 475/701/180
f 461/702/181 460/694/181 471/697/181 472/703/181
f 357/527/182 467/676/182 478/698/182
f 458/681/183 457/677/183 468/699/183 469/686/183
f 465/704/184 464/700/184 475/701/184 476/705/184
f 462/691/185 461/702/185 472/703/185 473/692/185
f 472/703/197 471/697/197 482/706/197 483/707/197
f 357/527/198 478/698/198 489/708/198
f 469/686/187 468/699/187 479/709/187 480/710/187
f 476/705/188 475/701/188 486/711/188 487/712/188
f 473/692/189 472/703/189 483/707/189 484/713/189
f 470/687/190 469/686/190 480/710/190 481/714/190
f 477/689/191 476/688/191 487/715/191 488/716/191
f 474/693/192 473/692/192 484/713/192 485/717/192
f 471/697/193 470/696/193 481/718/193 482/706/193
f 478/698/194 477/689/194 488/716/194 489/708/194
f 468/699/195 347/554/195 479/709/195
f 475/701/196 474/693/196 485/717/196 486/711/196
f 482/706/210 481/718/210 492/719/210 493/720/210
f 489/708/199 488/716/199 499/721/199 500/722/199
f 479/709/200 347/554/200 490/723/200
f 486/711/201 485/717/201 496/724/201 497/725/201
f 483/707/202 482/706/202 493/720/202 494/726/202
f 357/527/203 489/708/203 500/722/203
f 480/710/204 479/709/204 490/723/204 491/727/204
f 487/712/205 486/711/205 497/725/205 498/728/205
f 484/713/206 483/707/206 494/726/206 495/729/206
f 481/714/207 480/710/207 491/727/207 492/730/207
f 488/716/208 487/715/208 498/731/208 499/721/208
f 485/717/209 484/713/209 495/729/209 496/724/209
f 495/729/222 494/726/222 505/732/222 506/733/222
f 492/730/211 491/727/211 502/734/211 503/735/211
f 499/721/212 498/731/212 509/736/212 510/737/212
f 496/724/213 495/729/213 506/733/213 507/738/213
f 493/720/214 492/719/214 503/739/214 504/740/214
f 500/722/215 499/721/215 510/737/215 511/741/215
f 490/723/216 347/554/216 501/742/216
f 497/725/217 496/724/217 507/738/217 508/743/217
f 494/726/218 493/720/218 504/740/218 505/732/218
f 357/527/219 500/722/219 511/741/219
f 491/727/220 490/723/220 501/742/220 502/734/220
f 498/728/221 497/725/221 508/743/221 509/744/221
f 505/745/234 504/746/234 515/747/234 516/748/234
f 357/527/223 511/741/223 522/749/223
f 502/734/224 501/742/224 512/750/224 513/751/224
f 509/752/225 508/753/225 519/754/225 520/755/225
f 506/756/226 505/745/226 516/748/226 517/757/226
f 503/735/227 502/734/227 513/751/227 514/758/227
f 510/737/228 509/736/228 520/759/228 521/760/228
f 507/761/229 506/756/229 517/757/229 518/762/229
f 504/746/230 503/763/230 514/764/230 515/747/230
f 511/741/231 510/737/231 521/760/231 522/749/231
f 501/742/232 347/554/232 512/750/232
f 508/753/233 507/761/233 518/762/233 519/754/233
f 518/762/246 517/757/246 352/538/246 353/548/246
f 515/747/235 514/764/235 523/551/235 350/550/235
f 522/749/236 521/760/236 355/544/236 356/528/236
f 512/750/237 347/554/237 348/531/237
f 519/754/238 518/762/238 353/548/238 354/535/238
f 516/748/239 515/747/239 350/550/239 351/539/239
f 357/527/240 522/749/240 356/528/240
f 513/751/241 512/750/241 348/531/241 349/530/241
f 520/755/242 519/754/242 354/535/242 524/534/242
f 517/757/243 516/748/243 351/539/243 352/538/243
f 514/758/244 513/751/244 349/530/244 523/542/244
f 521/760/245 520/759/245 524/545/245 355/544/245
f 525/765/50 526/766/50 528/767/50 527/768/50
f 527/769/53 528/770/53 532/771/53 531/772/53
f 531/773/54 532/774/54 530/775/54 529/776/54
f 529/777/51 530/778/51 526/779/51 525/780/51
f 527/781/49 531/782/49 529/783/49 525/784/49
f 532/785/52 528/786/52 526/787/52 530/788/52
