# Blender 5.1.1
# www.blender.org
mtllib A3_final.mtl
o A3_final.001
v 0.295000 -0.712500 0.000000
v 0.295000 -0.712500 0.700000
v 0.255000 -0.712500 0.000000
v 0.255000 -0.712500 0.700000
v 0.295000 -0.672500 0.000000
v 0.295000 -0.672500 0.700000
v 0.255000 -0.672500 0.000000
v 0.255000 -0.672500 0.700000
v -0.255000 -0.712500 0.000000
v -0.255000 -0.712500 0.700000
v -0.295000 -0.712500 0.000000
v -0.295000 -0.712500 0.700000
v -0.255000 -0.672500 0.000000
v -0.255000 -0.672500 0.700000
v -0.295000 -0.672500 0.000000
v -0.295000 -0.672500 0.700000
v 0.295000 0.672500 0.000000
v 0.295000 0.672500 0.700000
v 0.255000 0.672500 0.000000
v 0.255000 0.672500 0.700000
v 0.295000 0.712500 0.000000
v 0.295000 0.712500 0.700000
v 0.255000 0.712500 0.000000
v 0.255000 0.712500 0.700000
v -0.255000 0.672500 0.000000
v -0.255000 0.672500 0.700000
v -0.295000 0.672500 0.000000
v -0.295000 0.672500 0.700000
v -0.255000 0.712500 0.000000
v -0.255000 0.712500 0.700000
v -0.295000 0.712500 0.000000
v -0.295000 0.712500 0.700000
v -0.287000 -0.722500 0.700000
v -0.287000 -0.722500 1.210000
v -0.305000 -0.722500 0.700000
v -0.305000 -0.722500 1.210000
v -0.287000 0.722500 0.700000
v -0.287000 0.722500 1.210000
v -0.305000 0.722500 0.700000
v -0.305000 0.722500 1.210000
v -0.250000 -0.722500 0.700000
v -0.250000 -0.722500 1.210000
v -0.280000 -0.722500 0.700000
v -0.280000 -0.722500 1.210000
v -0.250000 -0.692500 0.700000
v -0.250000 -0.692500 1.210000
v -0.280000 -0.692500 0.700000
v -0.280000 -0.692500 1.210000
v -0.250000 0.692500 0.700000
v -0.250000 0.692500 1.210000
v -0.280000 0.692500 0.700000
v -0.280000 0.692500 1.210000
v -0.250000 0.722500 0.700000
v -0.250000 0.722500 1.210000
v -0.280000 0.722500 0.700000
v -0.280000 0.722500 1.210000
v 0.275000 -0.682500 0.130000
v 0.275000 -0.682500 0.180000
v 0.245000 -0.682500 0.130000
v 0.245000 -0.682500 0.180000
v 0.275000 0.682500 0.130000
v 0.275000 0.682500 0.180000
v 0.245000 0.682500 0.130000
v 0.245000 0.682500 0.180000
v -0.245000 -0.682500 0.130000
v -0.245000 -0.682500 0.180000
v -0.275000 -0.682500 0.130000
v -0.275000 -0.682500 0.180000
v -0.245000 0.682500 0.130000
v -0.245000 0.682500 0.180000
v -0.275000 0.682500 0.130000
v -0.275000 0.682500 0.180000
v 0.265000 -0.672500 0.170000
v 0.265000 -0.672500 0.190000
v -0.265000 -0.672500 0.170000
v -0.265000 -0.672500 0.190000
v 0.265000 0.672500 0.170000
v 0.265000 0.672500 0.190000
v -0.265000 0.672500 0.170000
v -0.265000 0.672500 0.190000
v 0.305000 -0.722500 0.670000
v 0.305000 -0.722500 0.700000
v -0.305000 -0.722500 0.670000
v -0.305000 -0.722500 0.700000
v 0.305000 0.722500 0.670000
v 0.305000 0.722500 0.700000
v -0.305000 0.722500 0.670000
v -0.305000 0.722500 0.700000
vn -0.0000 -1.0000 -0.0000
vn -1.0000 -0.0000 -0.0000
vn -0.0000 1.0000 -0.0000
vn 1.0000 -0.0000 -0.0000
vn -0.0000 -0.0000 -1.0000
vn -0.0000 -0.0000 1.0000
vt 0.427258 0.766127
vt 0.427258 0.520619
vt 0.441287 0.520619
vt 0.441287 0.766127
vt 0.450500 0.766127
vt 0.450500 0.520619
vt 0.464529 0.520619
vt 0.464529 0.766127
vt 0.473743 0.766127
vt 0.473743 0.520619
vt 0.487772 0.520619
vt 0.487772 0.766127
vt 0.496985 0.766127
vt 0.496985 0.520619
vt 0.511014 0.520619
vt 0.511014 0.766127
vt 0.627225 0.775340
vt 0.627225 0.789369
vt 0.613196 0.789369
vt 0.613196 0.775340
vt 0.650468 0.775340
vt 0.650468 0.789369
vt 0.636438 0.789369
vt 0.636438 0.775340
vt 0.639002 0.766127
vt 0.639002 0.520619
vt 0.653031 0.520619
vt 0.653031 0.766127
vt 0.520227 0.766127
vt 0.520227 0.520619
vt 0.534256 0.520619
vt 0.534256 0.766127
vt 0.613196 0.766127
vt 0.613196 0.520619
vt 0.627225 0.520619
vt 0.627225 0.766127
vt 0.543469 0.766127
vt 0.543469 0.520619
vt 0.557498 0.520619
vt 0.557498 0.766127
vt 0.673710 0.775340
vt 0.673710 0.789369
vt 0.659681 0.789369
vt 0.659681 0.775340
vt 0.696952 0.775340
vt 0.696952 0.789369
vt 0.682923 0.789369
vt 0.682923 0.775340
vt 0.566712 0.766127
vt 0.566712 0.520619
vt 0.580741 0.520619
vt 0.580741 0.766127
vt 0.662244 0.766127
vt 0.662244 0.520619
vt 0.676273 0.520619
vt 0.676273 0.766127
vt 0.589954 0.766127
vt 0.589954 0.520619
vt 0.603983 0.520619
vt 0.603983 0.766127
vt 0.685487 0.766127
vt 0.685487 0.520619
vt 0.699516 0.520619
vt 0.699516 0.766127
vt 0.720194 0.789369
vt 0.706165 0.789369
vt 0.706165 0.775340
vt 0.720194 0.775340
vt 0.746000 0.789369
vt 0.731971 0.789369
vt 0.731971 0.775340
vt 0.746000 0.775340
vt 0.708729 0.766127
vt 0.708729 0.520619
vt 0.722758 0.520619
vt 0.722758 0.766127
vt 0.731971 0.766127
vt 0.731971 0.520619
vt 0.746000 0.520619
vt 0.746000 0.766127
vt 0.755213 0.766127
vt 0.755213 0.520619
vt 0.769242 0.520619
vt 0.769242 0.766127
vt 0.778456 0.766127
vt 0.778456 0.520619
vt 0.792485 0.520619
vt 0.792485 0.766127
vt 0.769242 0.775340
vt 0.769242 0.789369
vt 0.755213 0.789369
vt 0.755213 0.775340
vt 0.792485 0.775340
vt 0.792485 0.789369
vt 0.778456 0.789369
vt 0.778456 0.775340
vt 0.563204 0.954210
vt 0.563204 0.775340
vt 0.569517 0.775340
vt 0.569517 0.954210
vt 0.629789 0.511406
vt 0.450919 0.511406
vt 0.450919 0.004607
vt 0.629789 0.004607
vt 0.589954 0.954210
vt 0.589954 0.775340
vt 0.596267 0.775340
vt 0.596267 0.954210
vt 0.817872 0.511405
vt 0.639002 0.511405
vt 0.639002 0.004607
vt 0.817872 0.004607
vt 0.979867 0.004607
vt 0.979867 0.511405
vt 0.973554 0.511405
vt 0.973554 0.004607
vt 0.995393 0.004607
vt 0.995393 0.511405
vt 0.989080 0.511405
vt 0.989080 0.004607
vt 0.427258 0.954210
vt 0.427258 0.775340
vt 0.437780 0.775340
vt 0.437780 0.954210
vt 0.801698 0.922645
vt 0.801698 0.743775
vt 0.812220 0.743775
vt 0.812220 0.922645
vt 0.446993 0.954210
vt 0.446993 0.775340
vt 0.457515 0.775340
vt 0.457515 0.954210
vt 0.934084 0.922645
vt 0.934084 0.743775
vt 0.944606 0.743775
vt 0.944606 0.922645
vt 0.716687 0.798582
vt 0.716687 0.809104
vt 0.706165 0.809104
vt 0.706165 0.798582
vt 0.765735 0.798582
vt 0.765735 0.809104
vt 0.755213 0.809104
vt 0.755213 0.798582
vt 0.466728 0.954210
vt 0.466728 0.775340
vt 0.477250 0.775340
vt 0.477250 0.954210
vt 0.496985 0.954210
vt 0.496985 0.775340
vt 0.507507 0.775340
vt 0.507507 0.954210
vt 0.516720 0.954210
vt 0.516720 0.775340
vt 0.527242 0.775340
vt 0.527242 0.954210
vt 0.543469 0.954210
vt 0.543469 0.775340
vt 0.553991 0.775340
vt 0.553991 0.954210
vt 0.742493 0.798582
vt 0.742493 0.809104
vt 0.731971 0.809104
vt 0.731971 0.798582
vt 0.788977 0.798582
vt 0.788977 0.809104
vt 0.778456 0.809104
vt 0.778456 0.798582
vt 0.613196 0.816119
vt 0.613196 0.798582
vt 0.623718 0.798582
vt 0.623718 0.816119
vt 0.844622 0.483347
vt 0.827086 0.483347
vt 0.827086 0.004607
vt 0.844622 0.004607
vt 0.636438 0.816119
vt 0.636438 0.798582
vt 0.646960 0.798582
vt 0.646960 0.816119
vt 0.871372 0.483347
vt 0.853835 0.483347
vt 0.853835 0.004607
vt 0.871372 0.004607
vt 0.864357 0.492561
vt 0.864357 0.971301
vt 0.853835 0.971301
vt 0.853835 0.492561
vt 0.844622 0.492561
vt 0.844622 0.971301
vt 0.834100 0.971301
vt 0.834100 0.492561
vt 0.682923 0.816119
vt 0.682923 0.798582
vt 0.693445 0.798582
vt 0.693445 0.816119
vt 0.898121 0.483347
vt 0.880585 0.483347
vt 0.880585 0.004607
vt 0.898121 0.004607
vt 0.663188 0.816119
vt 0.663188 0.798582
vt 0.673710 0.798582
vt 0.673710 0.816119
vt 0.924871 0.483347
vt 0.907334 0.483347
vt 0.907334 0.004607
vt 0.924871 0.004607
vt 0.884092 0.492561
vt 0.884092 0.971301
vt 0.873570 0.971301
vt 0.873570 0.492561
vt 0.917856 0.492561
vt 0.917856 0.971301
vt 0.907334 0.971301
vt 0.907334 0.492561
vt 0.960833 0.706503
vt 0.953819 0.706503
vt 0.953819 0.520619
vt 0.960833 0.520619
vt 0.401817 0.992345
vt 0.394803 0.992345
vt 0.394803 0.520619
vt 0.401817 0.520619
vt 0.960833 0.901601
vt 0.953819 0.901601
vt 0.953819 0.715717
vt 0.960833 0.715717
vt 0.418045 0.992345
vt 0.411030 0.992345
vt 0.411030 0.520619
vt 0.418045 0.520619
vt 0.190491 0.520619
vt 0.190491 0.992345
vt 0.004607 0.992345
vt 0.004607 0.520619
vt 0.385589 0.520619
vt 0.385589 0.992345
vt 0.199705 0.992345
vt 0.199705 0.520619
vt 0.944606 0.734562
vt 0.934084 0.734562
vt 0.934084 0.520619
vt 0.944606 0.520619
vt 0.964341 0.511405
vt 0.953819 0.511405
vt 0.953819 0.004607
vt 0.964341 0.004607
vt 0.812220 0.734562
vt 0.801698 0.734562
vt 0.801698 0.520619
vt 0.812220 0.520619
vt 0.944606 0.511405
vt 0.934084 0.511405
vt 0.934084 0.004607
vt 0.944606 0.004607
vt 0.441705 0.004607
vt 0.441705 0.511406
vt 0.227763 0.511406
vt 0.227763 0.004607
vt 0.218549 0.004607
vt 0.218549 0.511405
vt 0.004607 0.511405
vt 0.004607 0.004607
s 0
usemtl exp_A3_final
f 1/1/1 2/2/1 4/3/1 3/4/1
f 3/5/2 4/6/2 8/7/2 7/8/2
f 7/9/3 8/10/3 6/11/3 5/12/3
f 5/13/4 6/14/4 2/15/4 1/16/4
f 3/17/5 7/18/5 5/19/5 1/20/5
f 8/21/6 4/22/6 2/23/6 6/24/6
f 9/25/1 10/26/1 12/27/1 11/28/1
f 11/29/2 12/30/2 16/31/2 15/32/2
f 15/33/3 16/34/3 14/35/3 13/36/3
f 13/37/4 14/38/4 10/39/4 9/40/4
f 11/41/5 15/42/5 13/43/5 9/44/5
f 16/45/6 12/46/6 10/47/6 14/48/6
f 17/49/1 18/50/1 20/51/1 19/52/1
f 19/53/2 20/54/2 24/55/2 23/56/2
f 23/57/3 24/58/3 22/59/3 21/60/3
f 21/61/4 22/62/4 18/63/4 17/64/4
f 19/65/5 23/66/5 21/67/5 17/68/5
f 24/69/6 20/70/6 18/71/6 22/72/6
f 25/73/1 26/74/1 28/75/1 27/76/1
f 27/77/2 28/78/2 32/79/2 31/80/2
f 31/81/3 32/82/3 30/83/3 29/84/3
f 29/85/4 30/86/4 26/87/4 25/88/4
f 27/89/5 31/90/5 29/91/5 25/92/5
f 32/93/6 28/94/6 26/95/6 30/96/6
f 33/97/1 34/98/1 36/99/1 35/100/1
f 35/101/2 36/102/2 40/103/2 39/104/2
f 39/105/3 40/106/3 38/107/3 37/108/3
f 37/109/4 38/110/4 34/111/4 33/112/4
f 35/113/5 39/114/5 37/115/5 33/116/5
f 40/117/6 36/118/6 34/119/6 38/120/6
f 41/121/1 42/122/1 44/123/1 43/124/1
f 43/125/2 44/126/2 48/127/2 47/128/2
f 47/129/3 48/130/3 46/131/3 45/132/3
f 45/133/4 46/134/4 42/135/4 41/136/4
f 43/137/5 47/138/5 45/139/5 41/140/5
f 48/141/6 44/142/6 42/143/6 46/144/6
f 49/145/1 50/146/1 52/147/1 51/148/1
f 51/149/2 52/150/2 56/151/2 55/152/2
f 55/153/3 56/154/3 54/155/3 53/156/3
f 53/157/4 54/158/4 50/159/4 49/160/4
f 51/161/5 55/162/5 53/163/5 49/164/5
f 56/165/6 52/166/6 50/167/6 54/168/6
f 57/169/1 58/170/1 60/171/1 59/172/1
f 59/173/2 60/174/2 64/175/2 63/176/2
f 63/177/3 64/178/3 62/179/3 61/180/3
f 61/181/4 62/182/4 58/183/4 57/184/4
f 59/185/5 63/186/5 61/187/5 57/188/5
f 64/189/6 60/190/6 58/191/6 62/192/6
f 65/193/1 66/194/1 68/195/1 67/196/1
f 67/197/2 68/198/2 72/199/2 71/200/2
f 71/201/3 72/202/3 70/203/3 69/204/3
f 69/205/4 70/206/4 66/207/4 65/208/4
f 67/209/5 71/210/5 69/211/5 65/212/5
f 72/213/6 68/214/6 66/215/6 70/216/6
f 73/217/1 74/218/1 76/219/1 75/220/1
f 75/221/2 76/222/2 80/223/2 79/224/2
f 79/225/3 80/226/3 78/227/3 77/228/3
f 77/229/4 78/230/4 74/231/4 73/232/4
f 75/233/5 79/234/5 77/235/5 73/236/5
f 80/237/6 76/238/6 74/239/6 78/240/6
f 81/241/1 82/242/1 84/243/1 83/244/1
f 83/245/2 84/246/2 88/247/2 87/248/2
f 87/249/3 88/250/3 86/251/3 85/252/3
f 85/253/4 86/254/4 82/255/4 81/256/4
f 83/257/5 87/258/5 85/259/5 81/260/5
f 88/261/6 84/262/6 82/263/6 86/264/6
