# Blender 5.1.1
# www.blender.org
mtllib A4_final.mtl
o A4_final.001
v 0.214500 -0.340000 0.095000
v 0.214500 -0.340000 0.715000
v -0.225500 -0.340000 0.095000
v -0.225500 -0.340000 0.715000
v 0.214500 0.340000 0.095000
v 0.214500 0.340000 0.715000
v -0.225500 0.340000 0.095000
v -0.225500 0.340000 0.715000
v 0.184500 -0.300000 0.100000
v 0.184500 -0.300000 0.240000
v -0.215500 -0.300000 0.100000
v -0.215500 -0.300000 0.240000
v 0.184500 0.300000 0.100000
v 0.184500 0.300000 0.240000
v -0.215500 0.300000 0.100000
v -0.215500 0.300000 0.240000
v 0.109500 -0.285000 0.045000
v 0.109500 -0.255000 0.045000
v 0.112925 -0.285000 0.027779
v 0.112925 -0.255000 0.027779
v 0.122680 -0.285000 0.013180
v 0.122680 -0.255000 0.013180
v 0.137279 -0.285000 0.003426
v 0.137279 -0.255000 0.003425
v 0.154500 -0.285000 0.000000
v 0.154500 -0.255000 0.000000
v 0.171721 -0.285000 0.003426
v 0.171721 -0.255000 0.003425
v 0.186320 -0.285000 0.013180
v 0.186320 -0.255000 0.013180
v 0.196075 -0.285000 0.027779
v 0.196075 -0.255000 0.027779
v 0.199500 -0.285000 0.045000
v 0.199500 -0.255000 0.045000
v 0.196075 -0.285000 0.062221
v 0.196075 -0.255000 0.062221
v 0.186320 -0.285000 0.076820
v 0.186320 -0.255000 0.076820
v 0.171721 -0.285000 0.086575
v 0.171721 -0.255000 0.086575
v 0.154500 -0.285000 0.090000
v 0.154500 -0.255000 0.090000
v 0.137279 -0.285000 0.086575
v 0.137279 -0.255000 0.086575
v 0.122680 -0.285000 0.076820
v 0.122680 -0.255000 0.076820
v 0.112925 -0.285000 0.062221
v 0.112925 -0.255000 0.062221
v -0.210500 -0.285000 0.045000
v -0.210500 -0.255000 0.045000
v -0.207075 -0.285000 0.027779
v -0.207075 -0.255000 0.027779
v -0.197320 -0.285000 0.013180
v -0.197320 -0.255000 0.013180
v -0.182721 -0.285000 0.003426
v -0.182721 -0.255000 0.003425
v -0.165500 -0.285000 0.000000
v -0.165500 -0.255000 0.000000
v -0.148279 -0.285000 0.003426
v -0.148279 -0.255000 0.003425
v -0.133680 -0.285000 0.013180
v -0.133680 -0.255000 0.013180
v -0.123925 -0.285000 0.027779
v -0.123925 -0.255000 0.027779
v -0.120500 -0.285000 0.045000
v -0.120500 -0.255000 0.045000
v -0.123925 -0.285000 0.062221
v -0.123925 -0.255000 0.062221
v -0.133680 -0.285000 0.076820
v -0.133680 -0.255000 0.076820
v -0.148279 -0.285000 0.086575
v -0.148279 -0.255000 0.086575
v -0.165500 -0.285000 0.090000
v -0.165500 -0.255000 0.090000
v -0.182721 -0.285000 0.086575
v -0.182721 -0.255000 0.086575
v -0.197320 -0.285000 0.076820
v -0.197320 -0.255000 0.076820
v -0.207075 -0.285000 0.062221
v -0.207075 -0.255000 0.062221
v 0.109500 0.255000 0.045000
v 0.109500 0.285000 0.045000
v 0.112925 0.255000 0.027779
v 0.112925 0.285000 0.027779
v 0.122680 0.255000 0.013180
v 0.122680 0.285000 0.013180
v 0.137279 0.255000 0.003426
v 0.137279 0.285000 0.003425
v 0.154500 0.255000 0.000000
v 0.154500 0.285000 0.000000
v 0.171721 0.255000 0.003426
v 0.171721 0.285000 0.003425
v 0.186320 0.255000 0.013180
v 0.186320 0.285000 0.013180
v 0.196075 0.255000 0.027779
v 0.196075 0.285000 0.027779
v 0.199500 0.255000 0.045000
v 0.199500 0.285000 0.045000
v 0.196075 0.255000 0.062221
v 0.196075 0.285000 0.062221
v 0.186320 0.255000 0.076820
v 0.186320 0.285000 0.076820
v 0.171721 0.255000 0.086575
v 0.171721 0.285000 0.086575
v 0.154500 0.255000 0.090000
v 0.154500 0.285000 0.090000
v 0.137279 0.255000 0.086575
v 0.137279 0.285000 0.086575
v 0.122680 0.255000 0.076820
v 0.122680 0.285000 0.076820
v 0.112925 0.255000 0.062221
v 0.112925 0.285000 0.062221
v -0.210500 0.255000 0.045000
v -0.210500 0.285000 0.045000
v -0.207075 0.255000 0.027779
v -0.207075 0.285000 0.027779
v -0.197320 0.255000 0.013180
v -0.197320 0.285000 0.013180
v -0.182721 0.255000 0.003426
v -0.182721 0.285000 0.003425
v -0.165500 0.255000 0.000000
v -0.165500 0.285000 0.000000
v -0.148279 0.255000 0.003426
v -0.148279 0.285000 0.003425
v -0.133680 0.255000 0.013180
v -0.133680 0.285000 0.013180
v -0.123925 0.255000 0.027779
v -0.123925 0.285000 0.027779
v -0.120500 0.255000 0.045000
v -0.120500 0.285000 0.045000
v -0.123925 0.255000 0.062221
v -0.123925 0.285000 0.062221
v -0.133680 0.255000 0.076820
v -0.133680 0.285000 0.076820
v -0.148279 0.255000 0.086575
v -0.148279 0.285000 0.086575
v -0.165500 0.255000 0.090000
v -0.165500 0.285000 0.090000
v -0.182721 0.255000 0.086575
v -0.182721 0.285000 0.086575
v -0.197320 0.255000 0.076820
v -0.197320 0.285000 0.076820
v -0.207075 0.255000 0.062221
v -0.207075 0.285000 0.062221
v 0.226500 -0.300000 0.590000
v 0.226500 -0.300000 0.700000
v 0.214500 -0.300000 0.590000
v 0.214500 -0.300000 0.700000
v 0.226500 0.300000 0.590000
v 0.226500 0.300000 0.700000
v 0.214500 0.300000 0.590000
v 0.214500 0.300000 0.700000
v 0.226500 -0.300000 0.460000
v 0.226500 -0.300000 0.570000
v 0.214500 -0.300000 0.460000
v 0.214500 -0.300000 0.570000
v 0.226500 0.300000 0.460000
v 0.226500 0.300000 0.570000
v 0.214500 0.300000 0.460000
v 0.214500 0.300000 0.570000
v 0.226500 -0.300000 0.330000
v 0.226500 -0.300000 0.440000
v 0.214500 -0.300000 0.330000
v 0.214500 -0.300000 0.440000
v 0.226500 0.300000 0.330000
v 0.226500 0.300000 0.440000
v 0.214500 0.300000 0.330000
v 0.214500 0.300000 0.440000
v 0.226500 -0.300000 0.200000
v 0.226500 -0.300000 0.310000
v 0.214500 -0.300000 0.200000
v 0.214500 -0.300000 0.310000
v 0.226500 0.300000 0.200000
v 0.226500 0.300000 0.310000
v 0.214500 0.300000 0.200000
v 0.214500 0.300000 0.310000
v 0.235500 -0.250000 0.667000
v 0.235500 -0.250000 0.687000
v 0.223500 -0.250000 0.667000
v 0.223500 -0.250000 0.687000
v 0.235500 0.250000 0.667000
v 0.235500 0.250000 0.687000
v 0.223500 0.250000 0.667000
v 0.223500 0.250000 0.687000
v 0.235500 -0.250000 0.537000
v 0.235500 -0.250000 0.557000
v 0.223500 -0.250000 0.537000
v 0.223500 -0.250000 0.557000
v 0.235500 0.250000 0.537000
v 0.235500 0.250000 0.557000
v 0.223500 0.250000 0.537000
v 0.223500 0.250000 0.557000
v 0.235500 -0.250000 0.407000
v 0.235500 -0.250000 0.427000
v 0.223500 -0.250000 0.407000
v 0.223500 -0.250000 0.427000
v 0.235500 0.250000 0.407000
v 0.235500 0.250000 0.427000
v 0.223500 0.250000 0.407000
v 0.223500 0.250000 0.427000
v 0.235500 -0.250000 0.277000
v 0.235500 -0.250000 0.297000
v 0.223500 -0.250000 0.277000
v 0.223500 -0.250000 0.297000
v 0.235500 0.250000 0.277000
v 0.235500 0.250000 0.297000
v 0.223500 0.250000 0.277000
v 0.223500 0.250000 0.297000
v 0.224500 -0.350000 0.715000
v 0.224500 -0.350000 0.765000
v -0.235500 -0.350000 0.715000
v -0.235500 -0.350000 0.765000
v 0.224500 0.350000 0.715000
v 0.224500 0.350000 0.765000
v -0.235500 0.350000 0.715000
v -0.235500 0.350000 0.765000
vn -0.0000 -1.0000 -0.0000
vn -1.0000 -0.0000 -0.0000
vn -0.0000 1.0000 -0.0000
vn 1.0000 -0.0000 -0.0000
vn -0.0000 -0.0000 -1.0000
vn -0.0000 -0.0000 1.0000
vn -0.9808 -0.0000 -0.1951
vn -0.8315 -0.0000 -0.5556
vn -0.5556 -0.0000 -0.8315
vn -0.1951 -0.0000 -0.9808
vn 0.1951 -0.0000 -0.9808
vn 0.5556 -0.0000 -0.8315
vn 0.8315 -0.0000 -0.5556
vn 0.9808 -0.0000 -0.1951
vn 0.9808 -0.0000 0.1951
vn 0.8315 -0.0000 0.5556
vn 0.5556 -0.0000 0.8315
vn 0.1951 -0.0000 0.9808
vn -0.1951 -0.0000 0.9808
vn -0.5556 -0.0000 0.8315
vn -0.8315 -0.0000 0.5556
vn -0.9808 -0.0000 0.1951
vt 0.571818 0.527332
vt 0.571818 0.283300
vt 0.745001 0.283300
vt 0.745001 0.527332
vt 0.249249 0.272865
vt 0.005218 0.272865
vt 0.005218 0.005218
vt 0.249249 0.005218
vt 0.571818 0.781798
vt 0.571818 0.537767
vt 0.745001 0.537767
vt 0.745001 0.781798
vt 0.503716 0.272865
vt 0.259684 0.272865
vt 0.259684 0.005218
vt 0.503716 0.005218
vt 0.561383 0.283300
vt 0.561383 0.550948
vt 0.388199 0.550948
vt 0.388199 0.283300
vt 0.687335 0.005218
vt 0.687334 0.272865
vt 0.514151 0.272865
vt 0.514151 0.005218
vt 0.918002 0.440740
vt 0.862898 0.440740
vt 0.862898 0.283300
vt 0.918002 0.283300
vt 0.752873 0.241377
vt 0.697770 0.241377
vt 0.697770 0.005218
vt 0.752874 0.005218
vt 0.918002 0.608615
vt 0.862899 0.608615
vt 0.862899 0.451175
vt 0.918002 0.451175
vt 0.228196 0.805414
vt 0.173092 0.805414
vt 0.173092 0.569255
vt 0.228196 0.569255
vt 0.545639 0.561383
vt 0.545639 0.797542
vt 0.388199 0.797542
vt 0.388199 0.561383
vt 0.162657 0.569255
vt 0.162657 0.805414
vt 0.005218 0.805414
vt 0.005218 0.569255
vt 0.602134 0.849936
vt 0.613942 0.849936
vt 0.613942 0.856714
vt 0.602134 0.856714
vt 0.613942 0.862460
vt 0.602134 0.862460
vt 0.168311 0.840898
vt 0.156503 0.840898
vt 0.156504 0.835152
vt 0.168312 0.835152
vt 0.156504 0.828374
vt 0.168312 0.828374
vt 0.156504 0.821596
vt 0.168312 0.821596
vt 0.156503 0.815849
vt 0.168311 0.815849
vt 0.636185 0.862460
vt 0.624377 0.862460
vt 0.624377 0.856714
vt 0.636185 0.856714
vt 0.624377 0.849936
vt 0.636185 0.849936
vt 0.624377 0.843158
vt 0.636185 0.843158
vt 0.624377 0.837412
vt 0.636185 0.837412
vt 0.178747 0.815849
vt 0.190555 0.815849
vt 0.190555 0.821596
vt 0.178747 0.821596
vt 0.190555 0.828374
vt 0.178747 0.828374
vt 0.190555 0.835152
vt 0.178747 0.835152
vt 0.190555 0.840898
vt 0.178747 0.840898
vt 0.390844 0.835189
vt 0.388199 0.828804
vt 0.388199 0.821894
vt 0.390844 0.815509
vt 0.395730 0.810622
vt 0.402115 0.807977
vt 0.409026 0.807977
vt 0.415411 0.810622
vt 0.420298 0.815509
vt 0.422942 0.821894
vt 0.422942 0.828804
vt 0.420298 0.835189
vt 0.415411 0.840076
vt 0.409026 0.842721
vt 0.402115 0.842721
vt 0.395730 0.840076
vt 0.602134 0.837412
vt 0.613942 0.837412
vt 0.613942 0.843158
vt 0.602134 0.843158
vt 0.674524 0.794878
vt 0.679411 0.799765
vt 0.682056 0.806149
vt 0.682056 0.813060
vt 0.679411 0.819445
vt 0.674524 0.824332
vt 0.668140 0.826977
vt 0.661229 0.826977
vt 0.654844 0.824332
vt 0.649957 0.819445
vt 0.647313 0.813060
vt 0.647313 0.806149
vt 0.649957 0.799765
vt 0.654844 0.794878
vt 0.661229 0.792233
vt 0.668140 0.792233
vt 0.646620 0.849936
vt 0.658428 0.849936
vt 0.658428 0.856714
vt 0.646620 0.856714
vt 0.658428 0.862460
vt 0.646620 0.862460
vt 0.212798 0.840898
vt 0.200990 0.840898
vt 0.200990 0.835152
vt 0.212798 0.835152
vt 0.200990 0.828374
vt 0.212798 0.828374
vt 0.200990 0.821595
vt 0.212798 0.821595
vt 0.200990 0.815849
vt 0.212798 0.815849
vt 0.680671 0.862460
vt 0.668863 0.862460
vt 0.668863 0.856714
vt 0.680671 0.856714
vt 0.668863 0.849936
vt 0.680671 0.849936
vt 0.668863 0.843158
vt 0.680671 0.843158
vt 0.668863 0.837412
vt 0.680671 0.837412
vt 0.223233 0.815849
vt 0.235041 0.815849
vt 0.235041 0.821595
vt 0.223233 0.821595
vt 0.235041 0.828374
vt 0.223233 0.828374
vt 0.235041 0.835152
vt 0.223233 0.835152
vt 0.235041 0.840898
vt 0.223233 0.840898
vt 0.602134 0.806150
vt 0.604779 0.799765
vt 0.609666 0.794878
vt 0.616051 0.792233
vt 0.622961 0.792233
vt 0.629346 0.794878
vt 0.634233 0.799765
vt 0.636878 0.806150
vt 0.636878 0.813060
vt 0.634233 0.819445
vt 0.629346 0.824332
vt 0.622961 0.826977
vt 0.616051 0.826977
vt 0.609666 0.824332
vt 0.604779 0.819445
vt 0.602134 0.813060
vt 0.646620 0.837412
vt 0.658428 0.837412
vt 0.658428 0.843158
vt 0.646620 0.843158
vt 0.719703 0.794878
vt 0.724590 0.799765
vt 0.727234 0.806149
vt 0.727234 0.813060
vt 0.724590 0.819445
vt 0.719703 0.824332
vt 0.713318 0.826977
vt 0.706407 0.826977
vt 0.700022 0.824332
vt 0.695136 0.819445
vt 0.692491 0.813060
vt 0.692491 0.806149
vt 0.695136 0.799765
vt 0.700022 0.794878
vt 0.706407 0.792233
vt 0.713318 0.792233
vt 0.692491 0.849936
vt 0.704299 0.849936
vt 0.704299 0.856714
vt 0.692491 0.856714
vt 0.704299 0.862460
vt 0.692491 0.862460
vt 0.257284 0.840898
vt 0.245476 0.840898
vt 0.245476 0.835152
vt 0.257284 0.835152
vt 0.245476 0.828374
vt 0.257284 0.828374
vt 0.245476 0.821596
vt 0.257284 0.821596
vt 0.245476 0.815849
vt 0.257284 0.815849
vt 0.726542 0.862460
vt 0.714734 0.862460
vt 0.714734 0.856714
vt 0.726542 0.856714
vt 0.714734 0.849936
vt 0.726542 0.849936
vt 0.714734 0.843158
vt 0.726542 0.843158
vt 0.714734 0.837412
vt 0.726542 0.837412
vt 0.267719 0.815849
vt 0.279527 0.815849
vt 0.279527 0.821596
vt 0.267719 0.821596
vt 0.279527 0.828374
vt 0.267719 0.828374
vt 0.279527 0.835152
vt 0.267719 0.835152
vt 0.279527 0.840898
vt 0.267719 0.840898
vt 0.544561 0.842721
vt 0.537650 0.842721
vt 0.531265 0.840076
vt 0.526379 0.835189
vt 0.523734 0.828804
vt 0.523734 0.821894
vt 0.526379 0.815509
vt 0.531265 0.810622
vt 0.537650 0.807977
vt 0.544561 0.807977
vt 0.550946 0.810622
vt 0.555833 0.815509
vt 0.558477 0.821894
vt 0.558477 0.828804
vt 0.555833 0.835189
vt 0.550946 0.840076
vt 0.692491 0.837412
vt 0.704299 0.837412
vt 0.704299 0.843158
vt 0.692491 0.843158
vt 0.454204 0.807977
vt 0.460589 0.810622
vt 0.465476 0.815509
vt 0.468121 0.821894
vt 0.468121 0.828804
vt 0.465476 0.835189
vt 0.460589 0.840076
vt 0.454204 0.842721
vt 0.447294 0.842721
vt 0.440909 0.840076
vt 0.436022 0.835189
vt 0.433377 0.828804
vt 0.433377 0.821894
vt 0.436022 0.815509
vt 0.440909 0.810622
vt 0.447294 0.807977
vt 0.156503 0.863857
vt 0.168311 0.863857
vt 0.168311 0.870635
vt 0.156503 0.870635
vt 0.168311 0.876381
vt 0.156503 0.876381
vt 0.301770 0.840898
vt 0.289962 0.840898
vt 0.289962 0.835152
vt 0.301770 0.835152
vt 0.289962 0.828374
vt 0.301770 0.828374
vt 0.289962 0.821595
vt 0.301770 0.821595
vt 0.289962 0.815849
vt 0.301770 0.815849
vt 0.212798 0.876381
vt 0.200990 0.876381
vt 0.200990 0.870635
vt 0.212798 0.870635
vt 0.200990 0.863857
vt 0.212798 0.863857
vt 0.200990 0.857079
vt 0.212798 0.857079
vt 0.200990 0.851333
vt 0.212798 0.851333
vt 0.312205 0.815849
vt 0.324013 0.815849
vt 0.324013 0.821595
vt 0.312205 0.821595
vt 0.324013 0.828374
vt 0.312205 0.828374
vt 0.324013 0.835152
vt 0.312205 0.835152
vt 0.324013 0.840898
vt 0.312205 0.840898
vt 0.012749 0.818494
vt 0.019134 0.815849
vt 0.026045 0.815849
vt 0.032429 0.818494
vt 0.037316 0.823381
vt 0.039961 0.829765
vt 0.039961 0.836676
vt 0.037316 0.843061
vt 0.032429 0.847948
vt 0.026045 0.850593
vt 0.019134 0.850593
vt 0.012749 0.847948
vt 0.007862 0.843061
vt 0.005218 0.836676
vt 0.005218 0.829765
vt 0.007862 0.823381
vt 0.156503 0.851333
vt 0.168311 0.851333
vt 0.168311 0.857079
vt 0.156503 0.857079
vt 0.499383 0.842721
vt 0.492472 0.842721
vt 0.486087 0.840076
vt 0.481200 0.835189
vt 0.478556 0.828804
vt 0.478556 0.821893
vt 0.481200 0.815509
vt 0.486087 0.810622
vt 0.492472 0.807977
vt 0.499383 0.807977
vt 0.505768 0.810622
vt 0.510654 0.815509
vt 0.513299 0.821893
vt 0.513299 0.828804
vt 0.510654 0.835189
vt 0.505768 0.840076
vt 0.740278 0.835529
vt 0.740278 0.792233
vt 0.745001 0.792233
vt 0.745001 0.835529
vt 0.798732 0.519460
vt 0.755436 0.519460
vt 0.755436 0.283300
vt 0.798732 0.283300
vt 0.050396 0.859145
vt 0.050396 0.815849
vt 0.055119 0.815849
vt 0.055119 0.859145
vt 0.798732 0.773926
vt 0.755437 0.773926
vt 0.755437 0.537767
vt 0.798733 0.537767
vt 0.560797 0.561383
vt 0.560797 0.797542
vt 0.556074 0.797542
vt 0.556074 0.561383
vt 0.964466 0.619050
vt 0.964466 0.855209
vt 0.959743 0.855209
vt 0.959743 0.619050
vt 0.065554 0.859145
vt 0.065554 0.815849
vt 0.070277 0.815849
vt 0.070277 0.859145
vt 0.281927 0.805414
vt 0.238631 0.805414
vt 0.238631 0.569255
vt 0.281927 0.569255
vt 0.080712 0.859145
vt 0.080712 0.815849
vt 0.085436 0.815849
vt 0.085436 0.859145
vt 0.335658 0.805414
vt 0.292362 0.805414
vt 0.292362 0.569255
vt 0.335658 0.569255
vt 0.969775 0.283300
vt 0.969775 0.519460
vt 0.965052 0.519460
vt 0.965052 0.283300
vt 0.978837 0.005218
vt 0.978837 0.241377
vt 0.974114 0.241377
vt 0.974114 0.005218
vt 0.095871 0.859145
vt 0.095871 0.815849
vt 0.100594 0.815849
vt 0.100594 0.859145
vt 0.852464 0.766054
vt 0.809168 0.766054
vt 0.809168 0.529895
vt 0.852464 0.529895
vt 0.111029 0.859145
vt 0.111029 0.815849
vt 0.115752 0.815849
vt 0.115752 0.859145
vt 0.860335 0.241377
vt 0.817040 0.241377
vt 0.817040 0.005218
vt 0.860335 0.005218
vt 0.979624 0.619050
vt 0.979624 0.855209
vt 0.974901 0.855209
vt 0.974901 0.619050
vt 0.984933 0.283300
vt 0.984933 0.519460
vt 0.980210 0.519460
vt 0.980210 0.283300
vt 0.126187 0.859145
vt 0.126187 0.815849
vt 0.130910 0.815849
vt 0.130910 0.859145
vt 0.806605 0.241377
vt 0.763309 0.241377
vt 0.763309 0.005218
vt 0.806605 0.005218
vt 0.141345 0.859145
vt 0.141345 0.815849
vt 0.146068 0.815849
vt 0.146068 0.859145
vt 0.852463 0.519460
vt 0.809168 0.519460
vt 0.809168 0.283300
vt 0.852464 0.283300
vt 0.993995 0.005218
vt 0.993995 0.241377
vt 0.989272 0.241377
vt 0.989272 0.005218
vt 0.994782 0.619050
vt 0.994782 0.855209
vt 0.990059 0.855209
vt 0.990059 0.619050
vt 0.788719 0.259684
vt 0.788719 0.251812
vt 0.793442 0.251812
vt 0.793442 0.259684
vt 0.908758 0.202017
vt 0.900886 0.202017
vt 0.900886 0.005218
vt 0.908758 0.005218
vt 0.803877 0.259684
vt 0.803877 0.251812
vt 0.808600 0.251812
vt 0.808600 0.259684
vt 0.927065 0.202017
vt 0.919193 0.202017
vt 0.919193 0.005218
vt 0.927065 0.005218
vt 0.813891 0.776489
vt 0.813891 0.973289
vt 0.809168 0.973289
vt 0.809168 0.776489
vt 0.829049 0.776489
vt 0.829049 0.973289
vt 0.824326 0.973289
vt 0.824326 0.776489
vt 0.697770 0.259684
vt 0.697770 0.251812
vt 0.702493 0.251812
vt 0.702493 0.259684
vt 0.931001 0.815849
vt 0.923129 0.815849
vt 0.923129 0.619050
vt 0.931001 0.619050
vt 0.712928 0.259684
vt 0.712928 0.251812
vt 0.717651 0.251812
vt 0.717651 0.259684
vt 0.936310 0.480100
vt 0.928438 0.480100
vt 0.928438 0.283300
vt 0.936310 0.283300
vt 0.844207 0.776489
vt 0.844207 0.973289
vt 0.839484 0.973289
vt 0.839484 0.776489
vt 0.760160 0.784361
vt 0.760160 0.981161
vt 0.755437 0.981161
vt 0.755437 0.784361
vt 0.743244 0.259684
vt 0.743244 0.251812
vt 0.747967 0.251812
vt 0.747967 0.259684
vt 0.954617 0.480100
vt 0.946745 0.480100
vt 0.946745 0.283300
vt 0.954617 0.283300
vt 0.758403 0.259684
vt 0.758403 0.251812
vt 0.763126 0.251812
vt 0.763126 0.259684
vt 0.963679 0.202017
vt 0.955807 0.202017
vt 0.955807 0.005218
vt 0.963679 0.005218
vt 0.775318 0.784361
vt 0.775318 0.981161
vt 0.770595 0.981161
vt 0.770595 0.784361
vt 0.790476 0.784361
vt 0.790476 0.981161
vt 0.785753 0.981161
vt 0.785753 0.784361
vt 0.728086 0.259684
vt 0.728086 0.251812
vt 0.732809 0.251812
vt 0.732809 0.259684
vt 0.945372 0.202017
vt 0.937500 0.202017
vt 0.937500 0.005218
vt 0.945372 0.005218
vt 0.773561 0.259684
vt 0.773561 0.251812
vt 0.778284 0.251812
vt 0.778284 0.259684
vt 0.949308 0.815849
vt 0.941436 0.815849
vt 0.941436 0.619050
vt 0.949308 0.619050
vt 0.576541 0.792233
vt 0.576541 0.989033
vt 0.571818 0.989033
vt 0.571818 0.792233
vt 0.591699 0.792233
vt 0.591699 0.989033
vt 0.586976 0.989033
vt 0.586976 0.792233
vt 0.890450 0.186273
vt 0.870770 0.186273
vt 0.870770 0.005218
vt 0.890450 0.005218
vt 0.365773 0.844774
vt 0.346093 0.844774
vt 0.346093 0.569255
vt 0.365773 0.569255
vt 0.912694 0.800105
vt 0.893014 0.800105
vt 0.893014 0.619050
vt 0.912694 0.619050
vt 0.882578 0.894569
vt 0.862899 0.894569
vt 0.862899 0.619050
vt 0.882579 0.619050
vt 0.186273 0.283300
vt 0.186273 0.558820
vt 0.005218 0.558820
vt 0.005218 0.283300
vt 0.377764 0.283300
vt 0.377764 0.558820
vt 0.196708 0.558820
vt 0.196708 0.283300
s 0
usemtl exp_A4_final
f 1/1/1 2/2/1 4/3/1 3/4/1
f 3/5/2 4/6/2 8/7/2 7/8/2
f 7/9/3 8/10/3 6/11/3 5/12/3
f 5/13/4 6/14/4 2/15/4 1/16/4
f 3/17/5 7/18/5 5/19/5 1/20/5
f 8/21/6 4/22/6 2/23/6 6/24/6
f 9/25/1 10/26/1 12/27/1 11/28/1
f 11/29/2 12/30/2 16/31/2 15/32/2
f 15/33/3 16/34/3 14/35/3 13/36/3
f 13/37/4 14/38/4 10/39/4 9/40/4
f 11/41/5 15/42/5 13/43/5 9/44/5
f 16/45/6 12/46/6 10/47/6 14/48/6
f 17/49/7 18/50/7 20/51/7 19/52/7
f 19/52/8 20/51/8 22/53/8 21/54/8
f 21/55/9 22/56/9 24/57/9 23/58/9
f 23/58/10 24/57/10 26/59/10 25/60/10
f 25/60/11 26/59/11 28/61/11 27/62/11
f 27/62/12 28/61/12 30/63/12 29/64/12
f 29/65/13 30/66/13 32/67/13 31/68/13
f 31/68/14 32/67/14 34/69/14 33/70/14
f 33/70/15 34/69/15 36/71/15 35/72/15
f 35/72/16 36/71/16 38/73/16 37/74/16
f 37/75/17 38/76/17 40/77/17 39/78/17
f 39/78/18 40/77/18 42/79/18 41/80/18
f 41/80/19 42/79/19 44/81/19 43/82/19
f 43/82/20 44/81/20 46/83/20 45/84/20
f 20/85/3 18/86/3 48/87/3 46/88/3 44/89/3 42/90/3 40/91/3 38/92/3 36/93/3 34/94/3 32/95/3 30/96/3 28/97/3 26/98/3 24/99/3 22/100/3
f 45/101/21 46/102/21 48/103/21 47/104/21
f 47/104/22 48/103/22 18/50/22 17/49/22
f 17/105/1 19/106/1 21/107/1 23/108/1 25/109/1 27/110/1 29/111/1 31/112/1 33/113/1 35/114/1 37/115/1 39/116/1 41/117/1 43/118/1 45/119/1 47/120/1
f 49/121/7 50/122/7 52/123/7 51/124/7
f 51/124/8 52/123/8 54/125/8 53/126/8
f 53/127/9 54/128/9 56/129/9 55/130/9
f 55/130/10 56/129/10 58/131/10 57/132/10
f 57/132/11 58/131/11 60/133/11 59/134/11
f 59/134/12 60/133/12 62/135/12 61/136/12
f 61/137/13 62/138/13 64/139/13 63/140/13
f 63/140/14 64/139/14 66/141/14 65/142/14
f 65/142/15 66/141/15 68/143/15 67/144/15
f 67/144/16 68/143/16 70/145/16 69/146/16
f 69/147/17 70/148/17 72/149/17 71/150/17
f 71/150/18 72/149/18 74/151/18 73/152/18
f 73/152/19 74/151/19 76/153/19 75/154/19
f 75/154/20 76/153/20 78/155/20 77/156/20
f 52/157/3 50/158/3 80/159/3 78/160/3 76/161/3 74/162/3 72/163/3 70/164/3 68/165/3 66/166/3 64/167/3 62/168/3 60/169/3 58/170/3 56/171/3 54/172/3
f 77/173/21 78/174/21 80/175/21 79/176/21
f 79/176/22 80/175/22 50/122/22 49/121/22
f 49/177/1 51/178/1 53/179/1 55/180/1 57/181/1 59/182/1 61/183/1 63/184/1 65/185/1 67/186/1 69/187/1 71/188/1 73/189/1 75/190/1 77/191/1 79/192/1
f 81/193/7 82/194/7 84/195/7 83/196/7
f 83/196/8 84/195/8 86/197/8 85/198/8
f 85/199/9 86/200/9 88/201/9 87/202/9
f 87/202/10 88/201/10 90/203/10 89/204/10
f 89/204/11 90/203/11 92/205/11 91/206/11
f 91/206/12 92/205/12 94/207/12 93/208/12
f 93/209/13 94/210/13 96/211/13 95/212/13
f 95/212/14 96/211/14 98/213/14 97/214/14
f 97/214/15 98/213/15 100/215/15 99/216/15
f 99/216/16 100/215/16 102/217/16 101/218/16
f 101/219/17 102/220/17 104/221/17 103/222/17
f 103/222/18 104/221/18 106/223/18 105/224/18
f 105/224/19 106/223/19 108/225/19 107/226/19
f 107/226/20 108/225/20 110/227/20 109/228/20
f 84/229/3 82/230/3 112/231/3 110/232/3 108/233/3 106/234/3 104/235/3 102/236/3 100/237/3 98/238/3 96/239/3 94/240/3 92/241/3 90/242/3 88/243/3 86/244/3
f 109/245/21 110/246/21 112/247/21 111/248/21
f 111/248/22 112/247/22 82/194/22 81/193/22
f 81/249/1 83/250/1 85/251/1 87/252/1 89/253/1 91/254/1 93/255/1 95/256/1 97/257/1 99/258/1 101/259/1 103/260/1 105/261/1 107/262/1 109/263/1 111/264/1
f 113/265/7 114/266/7 116/267/7 115/268/7
f 115/268/8 116/267/8 118/269/8 117/270/8
f 117/271/9 118/272/9 120/273/9 119/274/9
f 119/274/10 120/273/10 122/275/10 121/276/10
f 121/276/11 122/275/11 124/277/11 123/278/11
f 123/278/12 124/277/12 126/279/12 125/280/12
f 125/281/13 126/282/13 128/283/13 127/284/13
f 127/284/14 128/283/14 130/285/14 129/286/14
f 129/286/15 130/285/15 132/287/15 131/288/15
f 131/288/16 132/287/16 134/289/16 133/290/16
f 133/291/17 134/292/17 136/293/17 135/294/17
f 135/294/18 136/293/18 138/295/18 137/296/18
f 137/296/19 138/295/19 140/297/19 139/298/19
f 139/298/20 140/297/20 142/299/20 141/300/20
f 116/301/3 114/302/3 144/303/3 142/304/3 140/305/3 138/306/3 136/307/3 134/308/3 132/309/3 130/310/3 128/311/3 126/312/3 124/313/3 122/314/3 120/315/3 118/316/3
f 141/317/21 142/318/21 144/319/21 143/320/21
f 143/320/22 144/319/22 114/266/22 113/265/22
f 113/321/1 115/322/1 117/323/1 119/324/1 121/325/1 123/326/1 125/327/1 127/328/1 129/329/1 131/330/1 133/331/1 135/332/1 137/333/1 139/334/1 141/335/1 143/336/1
f 145/337/1 146/338/1 148/339/1 147/340/1
f 147/341/2 148/342/2 152/343/2 151/344/2
f 151/345/3 152/346/3 150/347/3 149/348/3
f 149/349/4 150/350/4 146/351/4 145/352/4
f 147/353/5 151/354/5 149/355/5 145/356/5
f 152/357/6 148/358/6 146/359/6 150/360/6
f 153/361/1 154/362/1 156/363/1 155/364/1
f 155/365/2 156/366/2 160/367/2 159/368/2
f 159/369/3 160/370/3 158/371/3 157/372/3
f 157/373/4 158/374/4 154/375/4 153/376/4
f 155/377/5 159/378/5 157/379/5 153/380/5
f 160/381/6 156/382/6 154/383/6 158/384/6
f 161/385/1 162/386/1 164/387/1 163/388/1
f 163/389/2 164/390/2 168/391/2 167/392/2
f 167/393/3 168/394/3 166/395/3 165/396/3
f 165/397/4 166/398/4 162/399/4 161/400/4
f 163/401/5 167/402/5 165/403/5 161/404/5
f 168/405/6 164/406/6 162/407/6 166/408/6
f 169/409/1 170/410/1 172/411/1 171/412/1
f 171/413/2 172/414/2 176/415/2 175/416/2
f 175/417/3 176/418/3 174/419/3 173/420/3
f 173/421/4 174/422/4 170/423/4 169/424/4
f 171/425/5 175/426/5 173/427/5 169/428/5
f 176/429/6 172/430/6 170/431/6 174/432/6
f 177/433/1 178/434/1 180/435/1 179/436/1
f 179/437/2 180/438/2 184/439/2 183/440/2
f 183/441/3 184/442/3 182/443/3 181/444/3
f 181/445/4 182/446/4 178/447/4 177/448/4
f 179/449/5 183/450/5 181/451/5 177/452/5
f 184/453/6 180/454/6 178/455/6 182/456/6
f 185/457/1 186/458/1 188/459/1 187/460/1
f 187/461/2 188/462/2 192/463/2 191/464/2
f 191/465/3 192/466/3 190/467/3 189/468/3
f 189/469/4 190/470/4 186/471/4 185/472/4
f 187/473/5 191/474/5 189/475/5 185/476/5
f 192/477/6 188/478/6 186/479/6 190/480/6
f 193/481/1 194/482/1 196/483/1 195/484/1
f 195/485/2 196/486/2 200/487/2 199/488/2
f 199/489/3 200/490/3 198/491/3 197/492/3
f 197/493/4 198/494/4 194/495/4 193/496/4
f 195/497/5 199/498/5 197/499/5 193/500/5
f 200/501/6 196/502/6 194/503/6 198/504/6
f 201/505/1 202/506/1 204/507/1 203/508/1
f 203/509/2 204/510/2 208/511/2 207/512/2
f 207/513/3 208/514/3 206/515/3 205/516/3
f 205/517/4 206/518/4 202/519/4 201/520/4
f 203/521/5 207/522/5 205/523/5 201/524/5
f 208/525/6 204/526/6 202/527/6 206/528/6
f 209/529/1 210/530/1 212/531/1 211/532/1
f 211/533/2 212/534/2 216/535/2 215/536/2
f 215/537/3 216/538/3 214/539/3 213/540/3
f 213/541/4 214/542/4 210/543/4 209/544/4
f 211/545/5 215/546/5 213/547/5 209/548/5
f 216/549/6 212/550/6 210/551/6 214/552/6
