# Blender 5.1.1
# www.blender.org
mtllib A6.mtl
o A6_box_1.001
v -0.300000 -0.200000 0.000000
v -0.300000 -0.200000 0.400000
v -0.300000 0.200000 0.000000
v -0.300000 0.200000 0.400000
v 0.300000 -0.200000 0.000000
v 0.300000 -0.200000 0.400000
v 0.300000 0.200000 0.000000
v 0.300000 0.200000 0.400000
v -0.300000 -0.200000 0.400000
v -0.300000 -0.200000 0.800000
v -0.300000 0.200000 0.400000
v -0.300000 0.200000 0.800000
v 0.300000 -0.200000 0.400000
v 0.300000 -0.200000 0.800000
v 0.300000 0.200000 0.400000
v 0.300000 0.200000 0.800000
vn -1.0000 -0.0000 -0.0000
vn -0.0000 1.0000 -0.0000
vn 1.0000 -0.0000 -0.0000
vn -0.0000 -1.0000 -0.0000
vn -0.0000 -0.0000 -1.0000
vn -0.0000 -0.0000 1.0000
vt 0.003357 0.989930
vt 0.003357 0.746644
vt 0.246643 0.746644
vt 0.246643 0.989930
vt 0.246643 0.368287
vt 0.003357 0.368287
vt 0.003357 0.003357
vt 0.246643 0.003357
vt 0.253357 0.989930
vt 0.253357 0.746644
vt 0.496643 0.746644
vt 0.496643 0.989930
vt 0.496643 0.368286
vt 0.253357 0.368286
vt 0.253357 0.003357
vt 0.496643 0.003357
vt 0.746643 0.003357
vt 0.746643 0.368287
vt 0.503357 0.368286
vt 0.503357 0.003357
vt 0.746643 0.375000
vt 0.746643 0.739930
vt 0.503357 0.739930
vt 0.503357 0.375000
vt 0.503357 0.989930
vt 0.503357 0.746644
vt 0.746643 0.746644
vt 0.746643 0.989930
vt 0.246643 0.739930
vt 0.003357 0.739930
vt 0.003357 0.375000
vt 0.246643 0.375000
vt 0.753357 0.989930
vt 0.753357 0.746644
vt 0.996643 0.746644
vt 0.996643 0.989930
vt 0.496643 0.739930
vt 0.253357 0.739930
vt 0.253357 0.375000
vt 0.496643 0.375000
vt 0.996643 0.003357
vt 0.996643 0.368287
vt 0.753357 0.368286
vt 0.753357 0.003357
vt 0.996643 0.375000
vt 0.996643 0.739930
vt 0.753357 0.739930
vt 0.753357 0.375000
s 0
usemtl exp_A6
f 1/1/1 2/2/1 4/3/1 3/4/1
f 3/5/2 4/6/2 8/7/2 7/8/2
f 7/9/3 8/10/3 6/11/3 5/12/3
f 5/13/4 6/14/4 2/15/4 1/16/4
f 3/17/5 7/18/5 5/19/5 1/20/5
f 8/21/6 4/22/6 2/23/6 6/24/6
f 9/25/1 10/26/1 12/27/1 11/28/1
f 11/29/2 12/30/2 16/31/2 15/32/2
f 15/33/3 16/34/3 14/35/3 13/36/3
f 13/37/4 14/38/4 10/39/4 9/40/4
f 11/41/5 15/42/5 13/43/5 9/44/5
f 16/45/6 12/46/6 10/47/6 14/48/6
