# Blender 5.1.1
# www.blender.org
mtllib B2b_final.mtl
o B2b_final.001
v -0.447000 -0.272000 0.000000
v -0.447000 -0.275000 0.003000
v -0.450000 -0.272000 0.003000
v -0.447000 -0.274121 0.000879
v -0.448732 -0.273732 0.001268
v -0.449121 -0.274121 0.003000
v -0.449121 -0.272000 0.000879
v -0.447000 -0.275000 0.397000
v -0.447000 -0.272000 0.400000
v -0.450000 -0.272000 0.397000
v -0.447000 -0.274121 0.399121
v -0.448732 -0.273732 0.398732
v -0.449121 -0.272000 0.399121
v -0.449121 -0.274121 0.397000
v -0.447000 -0.228000 0.000000
v -0.450000 -0.228000 0.003000
v -0.447000 -0.225000 0.003000
v -0.449121 -0.228000 0.000879
v -0.448732 -0.226268 0.001268
v -0.449121 -0.225878 0.003000
v -0.447000 -0.225878 0.000879
v -0.447000 -0.228000 0.400000
v -0.447000 -0.225000 0.397000
v -0.450000 -0.228000 0.397000
v -0.447000 -0.225878 0.399121
v -0.448732 -0.226268 0.398732
v -0.449121 -0.225878 0.397000
v -0.449121 -0.228000 0.399121
v -0.403000 -0.272000 0.000000
v -0.400000 -0.272000 0.003000
v -0.403000 -0.275000 0.003000
v -0.400878 -0.272000 0.000879
v -0.401268 -0.273732 0.001268
v -0.400878 -0.274121 0.003000
v -0.403000 -0.274121 0.000879
v -0.403000 -0.272000 0.400000
v -0.403000 -0.275000 0.397000
v -0.400000 -0.272000 0.397000
v -0.403000 -0.274121 0.399121
v -0.401268 -0.273732 0.398732
v -0.400878 -0.274121 0.397000
v -0.400878 -0.272000 0.399121
v -0.403000 -0.228000 0.000000
v -0.403000 -0.225000 0.003000
v -0.400000 -0.228000 0.003000
v -0.403000 -0.225878 0.000879
v -0.401268 -0.226268 0.001268
v -0.400878 -0.225878 0.003000
v -0.400878 -0.228000 0.000879
v -0.403000 -0.228000 0.400000
v -0.400000 -0.228000 0.397000
v -0.403000 -0.225000 0.397000
v -0.400878 -0.228000 0.399121
v -0.401268 -0.226268 0.398732
v -0.400878 -0.225878 0.397000
v -0.403000 -0.225878 0.399121
v -0.447000 0.228000 0.000000
v -0.447000 0.225000 0.003000
v -0.450000 0.228000 0.003000
v -0.447000 0.225879 0.000879
v -0.448732 0.226268 0.001268
v -0.449121 0.225879 0.003000
v -0.449121 0.228000 0.000879
v -0.447000 0.225000 0.397000
v -0.447000 0.228000 0.400000
v -0.450000 0.228000 0.397000
v -0.447000 0.225879 0.399121
v -0.448732 0.226268 0.398732
v -0.449121 0.228000 0.399121
v -0.449121 0.225879 0.397000
v -0.447000 0.272000 0.000000
v -0.450000 0.272000 0.003000
v -0.447000 0.275000 0.003000
v -0.449121 0.272000 0.000879
v -0.448732 0.273732 0.001268
v -0.449121 0.274122 0.003000
v -0.447000 0.274122 0.000879
v -0.447000 0.272000 0.400000
v -0.447000 0.275000 0.397000
v -0.450000 0.272000 0.397000
v -0.447000 0.274122 0.399121
v -0.448732 0.273732 0.398732
v -0.449121 0.274122 0.397000
v -0.449121 0.272000 0.399121
v -0.403000 0.228000 0.000000
v -0.400000 0.228000 0.003000
v -0.403000 0.225000 0.003000
v -0.400878 0.228000 0.000879
v -0.401268 0.226268 0.001268
v -0.400878 0.225879 0.003000
v -0.403000 0.225879 0.000879
v -0.403000 0.228000 0.400000
v -0.403000 0.225000 0.397000
v -0.400000 0.228000 0.397000
v -0.403000 0.225879 0.399121
v -0.401268 0.226268 0.398732
v -0.400878 0.225879 0.397000
v -0.400878 0.228000 0.399121
v -0.403000 0.272000 0.000000
v -0.403000 0.275000 0.003000
v -0.400000 0.272000 0.003000
v -0.403000 0.274122 0.000879
v -0.401268 0.273732 0.001268
v -0.400878 0.274122 0.003000
v -0.400878 0.272000 0.000879
v -0.403000 0.272000 0.400000
v -0.400000 0.272000 0.397000
v -0.403000 0.275000 0.397000
v -0.400878 0.272000 0.399121
v -0.401268 0.273732 0.398732
v -0.400878 0.274122 0.397000
v -0.403000 0.274122 0.399121
v 0.403000 -0.272000 0.000000
v 0.403000 -0.275000 0.003000
v 0.400000 -0.272000 0.003000
v 0.403000 -0.274121 0.000879
v 0.401268 -0.273732 0.001268
v 0.400879 -0.274121 0.003000
v 0.400879 -0.272000 0.000879
v 0.403000 -0.275000 0.397000
v 0.403000 -0.272000 0.400000
v 0.400000 -0.272000 0.397000
v 0.403000 -0.274121 0.399121
v 0.401268 -0.273732 0.398732
v 0.400879 -0.272000 0.399121
v 0.400879 -0.274121 0.397000
v 0.403000 -0.228000 0.000000
v 0.400000 -0.228000 0.003000
v 0.403000 -0.225000 0.003000
v 0.400879 -0.228000 0.000879
v 0.401268 -0.226268 0.001268
v 0.400879 -0.225878 0.003000
v 0.403000 -0.225878 0.000879
v 0.403000 -0.228000 0.400000
v 0.403000 -0.225000 0.397000
v 0.400000 -0.228000 0.397000
v 0.403000 -0.225878 0.399121
v 0.401268 -0.226268 0.398732
v 0.400879 -0.225878 0.397000
v 0.400879 -0.228000 0.399121
v 0.447000 -0.272000 0.000000
v 0.450000 -0.272000 0.003000
v 0.447000 -0.275000 0.003000
v 0.449122 -0.272000 0.000879
v 0.448732 -0.273732 0.001268
v 0.449122 -0.274121 0.003000
v 0.447000 -0.274121 0.000879
v 0.447000 -0.272000 0.400000
v 0.447000 -0.275000 0.397000
v 0.450000 -0.272000 0.397000
v 0.447000 -0.274121 0.399121
v 0.448732 -0.273732 0.398732
v 0.449122 -0.274121 0.397000
v 0.449122 -0.272000 0.399121
v 0.447000 -0.228000 0.000000
v 0.447000 -0.225000 0.003000
v 0.450000 -0.228000 0.003000
v 0.447000 -0.225878 0.000879
v 0.448732 -0.226268 0.001268
v 0.449122 -0.225878 0.003000
v 0.449122 -0.228000 0.000879
v 0.447000 -0.228000 0.400000
v 0.450000 -0.228000 0.397000
v 0.447000 -0.225000 0.397000
v 0.449122 -0.228000 0.399121
v 0.448732 -0.226268 0.398732
v 0.449122 -0.225878 0.397000
v 0.447000 -0.225878 0.399121
v 0.403000 0.228000 0.000000
v 0.403000 0.225000 0.003000
v 0.400000 0.228000 0.003000
v 0.403000 0.225879 0.000879
v 0.401268 0.226268 0.001268
v 0.400879 0.225879 0.003000
v 0.400879 0.228000 0.000879
v 0.403000 0.225000 0.397000
v 0.403000 0.228000 0.400000
v 0.400000 0.228000 0.397000
v 0.403000 0.225879 0.399121
v 0.401268 0.226268 0.398732
v 0.400879 0.228000 0.399121
v 0.400879 0.225879 0.397000
v 0.403000 0.272000 0.000000
v 0.400000 0.272000 0.003000
v 0.403000 0.275000 0.003000
v 0.400879 0.272000 0.000879
v 0.401268 0.273732 0.001268
v 0.400879 0.274122 0.003000
v 0.403000 0.274122 0.000879
v 0.403000 0.272000 0.400000
v 0.403000 0.275000 0.397000
v 0.400000 0.272000 0.397000
v 0.403000 0.274122 0.399121
v 0.401268 0.273732 0.398732
v 0.400879 0.274122 0.397000
v 0.400879 0.272000 0.399121
v 0.447000 0.228000 0.000000
v 0.450000 0.228000 0.003000
v 0.447000 0.225000 0.003000
v 0.449122 0.228000 0.000879
v 0.448732 0.226268 0.001268
v 0.449122 0.225879 0.003000
v 0.447000 0.225879 0.000879
v 0.447000 0.228000 0.400000
v 0.447000 0.225000 0.397000
v 0.450000 0.228000 0.397000
v 0.447000 0.225879 0.399121
v 0.448732 0.226268 0.398732
v 0.449122 0.225879 0.397000
v 0.449122 0.228000 0.399121
v 0.447000 0.272000 0.000000
v 0.447000 0.275000 0.003000
v 0.450000 0.272000 0.003000
v 0.447000 0.274122 0.000879
v 0.448732 0.273732 0.001268
v 0.449122 0.274122 0.003000
v 0.449122 0.272000 0.000879
v 0.447000 0.272000 0.400000
v 0.450000 0.272000 0.397000
v 0.447000 0.275000 0.397000
v 0.449122 0.272000 0.399121
v 0.448732 0.273732 0.398732
v 0.449122 0.274122 0.397000
v 0.447000 0.274122 0.399121
v -0.397000 -0.222000 0.170000
v -0.397000 -0.225000 0.173000
v -0.400000 -0.222000 0.173000
v -0.397000 -0.224121 0.170879
v -0.398732 -0.223732 0.171268
v -0.399121 -0.224121 0.173000
v -0.399121 -0.222000 0.170879
v -0.397000 -0.225000 0.185000
v -0.397000 -0.222000 0.188000
v -0.400000 -0.222000 0.185000
v -0.397000 -0.224121 0.187121
v -0.398732 -0.223732 0.186732
v -0.399121 -0.222000 0.187121
v -0.399121 -0.224121 0.185000
v -0.397000 0.222000 0.170000
v -0.400000 0.222000 0.173000
v -0.397000 0.225000 0.173000
v -0.399121 0.222000 0.170879
v -0.398732 0.223732 0.171268
v -0.399121 0.224122 0.173000
v -0.397000 0.224122 0.170879
v -0.397000 0.222000 0.188000
v -0.397000 0.225000 0.185000
v -0.400000 0.222000 0.185000
v -0.397000 0.224122 0.187121
v -0.398732 0.223732 0.186732
v -0.399121 0.224122 0.185000
v -0.399121 0.222000 0.187121
v 0.397000 -0.222000 0.170000
v 0.400000 -0.222000 0.173000
v 0.397000 -0.225000 0.173000
v 0.399122 -0.222000 0.170879
v 0.398732 -0.223732 0.171268
v 0.399122 -0.224121 0.173000
v 0.397000 -0.224121 0.170879
v 0.397000 -0.222000 0.188000
v 0.397000 -0.225000 0.185000
v 0.400000 -0.222000 0.185000
v 0.397000 -0.224121 0.187121
v 0.398732 -0.223732 0.186732
v 0.399122 -0.224121 0.185000
v 0.399122 -0.222000 0.187121
v 0.397000 0.222000 0.170000
v 0.397000 0.225000 0.173000
v 0.400000 0.222000 0.173000
v 0.397000 0.224122 0.170879
v 0.398732 0.223732 0.171268
v 0.399122 0.224122 0.173000
v 0.399122 0.222000 0.170879
v 0.397000 0.222000 0.188000
v 0.400000 0.222000 0.185000
v 0.397000 0.225000 0.185000
v 0.399122 0.222000 0.187121
v 0.398732 0.223732 0.186732
v 0.399122 0.224122 0.185000
v 0.397000 0.224122 0.187121
v -0.447000 -0.272000 0.400000
v -0.447000 -0.275000 0.403000
v -0.450000 -0.272000 0.403000
v -0.447000 -0.274121 0.400879
v -0.448732 -0.273732 0.401268
v -0.449121 -0.274121 0.403000
v -0.449121 -0.272000 0.400879
v -0.447000 -0.275000 0.447000
v -0.447000 -0.272000 0.450000
v -0.450000 -0.272000 0.447000
v -0.447000 -0.274121 0.449121
v -0.448732 -0.273732 0.448732
v -0.449121 -0.272000 0.449121
v -0.449121 -0.274121 0.447000
v -0.447000 0.272000 0.400000
v -0.450000 0.272000 0.403000
v -0.447000 0.275000 0.403000
v -0.449121 0.272000 0.400879
v -0.448732 0.273732 0.401268
v -0.449121 0.274122 0.403000
v -0.447000 0.274122 0.400879
v -0.447000 0.272000 0.450000
v -0.447000 0.275000 0.447000
v -0.450000 0.272000 0.447000
v -0.447000 0.274122 0.449121
v -0.448732 0.273732 0.448732
v -0.449121 0.274122 0.447000
v -0.449121 0.272000 0.449121
v 0.447000 -0.272000 0.400000
v 0.450000 -0.272000 0.403000
v 0.447000 -0.275000 0.403000
v 0.449122 -0.272000 0.400879
v 0.448732 -0.273732 0.401268
v 0.449122 -0.274121 0.403000
v 0.447000 -0.274121 0.400879
v 0.447000 -0.272000 0.450000
v 0.447000 -0.275000 0.447000
v 0.450000 -0.272000 0.447000
v 0.447000 -0.274121 0.449121
v 0.448732 -0.273732 0.448732
v 0.449122 -0.274121 0.447000
v 0.449122 -0.272000 0.449121
v 0.447000 0.272000 0.400000
v 0.447000 0.275000 0.403000
v 0.450000 0.272000 0.403000
v 0.447000 0.274122 0.400879
v 0.448732 0.273732 0.401268
v 0.449122 0.274122 0.403000
v 0.449122 0.272000 0.400879
v 0.447000 0.272000 0.450000
v 0.450000 0.272000 0.447000
v 0.447000 0.275000 0.447000
v 0.449122 0.272000 0.449121
v 0.448732 0.273732 0.448732
v 0.449122 0.274122 0.447000
v 0.447000 0.274122 0.449121
vn -0.3251 -0.3251 -0.8881
vn -0.3251 -0.8881 -0.3251
vn -0.8881 -0.3251 -0.3251
vn -0.3251 -0.8881 0.3251
vn -0.3251 -0.3251 0.8881
vn -0.8881 -0.3251 0.3251
vn -0.3251 0.3251 -0.8881
vn -0.8881 0.3251 -0.3251
vn -0.3251 0.8881 -0.3251
vn -0.3251 0.3251 0.8881
vn -0.3251 0.8881 0.3251
vn -0.8881 0.3251 0.3251
vn 0.3251 -0.3251 -0.8881
vn 0.8881 -0.3251 -0.3251
vn 0.3251 -0.8881 -0.3251
vn 0.3251 -0.3251 0.8881
vn 0.3251 -0.8881 0.3251
vn 0.8881 -0.3251 0.3251
vn 0.3251 0.3251 -0.8881
vn 0.3251 0.8881 -0.3251
vn 0.8881 0.3251 -0.3251
vn 0.3251 0.3251 0.8881
vn 0.8881 0.3251 0.3251
vn 0.3251 0.8881 0.3251
vn -0.3251 -0.3250 -0.8881
vn -0.3251 -0.3250 0.8881
vn -0.3251 0.3250 -0.8881
vn -0.3251 0.3250 0.8881
vn 0.3251 -0.3250 -0.8881
vn 0.3251 -0.3250 0.8881
vn 0.3251 0.3250 -0.8881
vn 0.3251 0.3250 0.8881
vn -0.3251 0.8881 -0.3250
vn -0.3251 0.8881 0.3250
vn 0.3250 0.8881 -0.3251
vn -0.3827 -0.0000 -0.9239
vn -0.9239 -0.0000 -0.3827
vn -0.3827 -0.9239 -0.0000
vn -0.9239 -0.3827 -0.0000
vn -0.3827 -0.0000 0.9239
vn -0.9239 -0.0000 0.3827
vn -0.3827 0.9239 -0.0000
vn -0.9239 0.3827 -0.0000
vn -0.0000 0.3827 -0.9239
vn -0.0000 0.9239 -0.3827
vn -0.0000 0.3827 0.9239
vn -0.0000 0.9239 0.3827
vn 0.9239 0.3827 -0.0000
vn 0.3827 0.9239 -0.0000
vn 0.3827 -0.0000 -0.9239
vn 0.9239 -0.0000 -0.3827
vn 0.3827 -0.0000 0.9239
vn 0.9239 -0.0000 0.3827
vn 0.3827 -0.9239 -0.0000
vn 0.9239 -0.3827 -0.0000
vn -0.0000 -0.3827 -0.9239
vn -0.0000 -0.9239 -0.3827
vn -0.0000 -0.3827 0.9239
vn -0.0000 -0.9239 0.3827
vn -0.0000 -0.0000 -1.0000
vn -1.0000 -0.0000 -0.0000
vn -0.0000 -1.0000 -0.0000
vn -0.0000 -0.0000 1.0000
vn -0.0000 1.0000 -0.0000
vn 1.0000 -0.0000 -0.0000
vt 0.077529 0.765507
vt 0.075809 0.765507
vt 0.075809 0.764514
vt 0.077529 0.763787
vt 0.210925 0.754676
vt 0.212645 0.754676
vt 0.212645 0.755669
vt 0.210925 0.756396
vt 0.077529 0.754676
vt 0.077529 0.756396
vt 0.076536 0.756396
vt 0.075809 0.754676
vt 0.210925 0.528790
vt 0.210925 0.527070
vt 0.211918 0.527070
vt 0.212645 0.528790
vt 0.113586 0.790733
vt 0.113586 0.792453
vt 0.112593 0.792453
vt 0.111866 0.790733
vt 0.077529 0.528790
vt 0.075809 0.528790
vt 0.075809 0.527797
vt 0.077529 0.527070
vt 0.102755 0.765507
vt 0.102755 0.763787
vt 0.103748 0.763787
vt 0.104475 0.765507
vt 0.102755 0.754676
vt 0.104475 0.754676
vt 0.104475 0.755669
vt 0.102755 0.756396
vt 0.113586 0.754676
vt 0.113586 0.756396
vt 0.112593 0.756396
vt 0.111866 0.754676
vt 0.138811 0.790733
vt 0.140531 0.790733
vt 0.140531 0.791726
vt 0.138811 0.792453
vt 0.113586 0.528790
vt 0.111866 0.528790
vt 0.111866 0.527797
vt 0.113586 0.527070
vt 0.102755 0.528790
vt 0.102755 0.527070
vt 0.103748 0.527070
vt 0.104475 0.528790
vt 0.077529 0.790733
vt 0.077529 0.792453
vt 0.076536 0.792453
vt 0.075809 0.790733
vt 0.174868 0.754676
vt 0.176588 0.754676
vt 0.176588 0.755669
vt 0.174868 0.756396
vt 0.185699 0.754676
vt 0.185699 0.756396
vt 0.184706 0.756396
vt 0.183979 0.754676
vt 0.113586 0.765507
vt 0.111866 0.765507
vt 0.111866 0.764514
vt 0.113586 0.763787
vt 0.185699 0.528790
vt 0.183979 0.528790
vt 0.183979 0.527797
vt 0.185699 0.527070
vt 0.174868 0.528790
vt 0.174868 0.527070
vt 0.175861 0.527070
vt 0.176588 0.528790
vt 0.102755 0.790733
vt 0.104475 0.790733
vt 0.104475 0.791726
vt 0.102755 0.792453
vt 0.138811 0.754676
vt 0.140531 0.754676
vt 0.140531 0.755669
vt 0.138811 0.756396
vt 0.149642 0.754676
vt 0.149642 0.756396
vt 0.148649 0.756396
vt 0.147922 0.754676
vt 0.138811 0.765507
vt 0.138811 0.763787
vt 0.139804 0.763787
vt 0.140531 0.765507
vt 0.149642 0.528790
vt 0.147922 0.528790
vt 0.147922 0.527797
vt 0.149642 0.527070
vt 0.138811 0.528790
vt 0.138811 0.527070
vt 0.139804 0.527070
vt 0.140531 0.528790
vt 0.149642 0.765507
vt 0.147922 0.765507
vt 0.147922 0.764514
vt 0.149642 0.763787
vt 0.283038 0.754676
vt 0.284758 0.754676
vt 0.284758 0.755669
vt 0.283038 0.756396
vt 0.365982 0.754676
vt 0.365982 0.756396
vt 0.364989 0.756396
vt 0.364263 0.754676
vt 0.283038 0.528790
vt 0.283038 0.527070
vt 0.284031 0.527070
vt 0.284758 0.528790
vt 0.185699 0.790733
vt 0.185699 0.792453
vt 0.184706 0.792453
vt 0.183979 0.790733
vt 0.365982 0.528790
vt 0.364263 0.528790
vt 0.364263 0.527797
vt 0.365982 0.527070
vt 0.174868 0.765507
vt 0.174868 0.763787
vt 0.175861 0.763787
vt 0.176588 0.765507
vt 0.391208 0.754676
vt 0.392928 0.754676
vt 0.392928 0.755669
vt 0.391208 0.756396
vt 0.221756 0.754676
vt 0.221756 0.756396
vt 0.220763 0.756396
vt 0.220036 0.754676
vt 0.210925 0.790733
vt 0.212645 0.790733
vt 0.212645 0.791726
vt 0.210925 0.792453
vt 0.221756 0.528790
vt 0.220036 0.528790
vt 0.220036 0.527797
vt 0.221756 0.527070
vt 0.391208 0.528790
vt 0.391208 0.527070
vt 0.392201 0.527070
vt 0.392928 0.528790
vt 0.149642 0.790733
vt 0.149642 0.792453
vt 0.148649 0.792453
vt 0.147922 0.790733
vt 0.427265 0.754676
vt 0.428985 0.754676
vt 0.428985 0.755669
vt 0.427265 0.756396
vt 0.257812 0.754676
vt 0.257812 0.756396
vt 0.256819 0.756396
vt 0.256092 0.754676
vt 0.185699 0.765507
vt 0.183979 0.765507
vt 0.183979 0.764514
vt 0.185699 0.763787
vt 0.257812 0.528790
vt 0.256092 0.528790
vt 0.256092 0.527797
vt 0.257812 0.527070
vt 0.427265 0.528790
vt 0.427265 0.527070
vt 0.428258 0.527070
vt 0.428985 0.528790
vt 0.174868 0.790733
vt 0.176588 0.790733
vt 0.176588 0.791726
vt 0.174868 0.792453
vt 0.246982 0.754676
vt 0.248701 0.754676
vt 0.248701 0.755669
vt 0.246982 0.756396
vt 0.402039 0.754676
vt 0.402039 0.756396
vt 0.401046 0.756396
vt 0.400319 0.754676
vt 0.210925 0.765507
vt 0.210925 0.763787
vt 0.211918 0.763787
vt 0.212645 0.765507
vt 0.402039 0.528790
vt 0.400319 0.528790
vt 0.400319 0.527797
vt 0.402039 0.527070
vt 0.246982 0.528790
vt 0.246982 0.527070
vt 0.247975 0.527070
vt 0.248701 0.528790
vt 0.246981 0.765507
vt 0.246981 0.763787
vt 0.247974 0.763787
vt 0.248701 0.765507
vt 0.571492 0.754676
vt 0.573212 0.754676
vt 0.573212 0.755669
vt 0.571492 0.756396
vt 0.293869 0.754676
vt 0.293869 0.756396
vt 0.292876 0.756396
vt 0.292149 0.754676
vt 0.571492 0.528790
vt 0.571492 0.527070
vt 0.572485 0.527070
vt 0.573212 0.528790
vt 0.257812 0.765507
vt 0.256092 0.765507
vt 0.256092 0.764514
vt 0.257812 0.763787
vt 0.293869 0.528790
vt 0.292149 0.528790
vt 0.292149 0.527797
vt 0.293869 0.527070
vt 0.246981 0.790733
vt 0.248701 0.790733
vt 0.248701 0.791726
vt 0.246981 0.792453
vt 0.319095 0.754676
vt 0.320815 0.754676
vt 0.320815 0.755669
vt 0.319095 0.756396
vt 0.510209 0.754676
vt 0.510209 0.756396
vt 0.509216 0.756396
vt 0.508489 0.754676
vt 0.257812 0.790733
vt 0.257812 0.792453
vt 0.256819 0.792453
vt 0.256092 0.790733
vt 0.510209 0.528790
vt 0.508489 0.528790
vt 0.508489 0.527797
vt 0.510209 0.527070
vt 0.319095 0.528790
vt 0.319095 0.527070
vt 0.320088 0.527070
vt 0.320815 0.528790
vt 0.221756 0.765507
vt 0.220036 0.765507
vt 0.220036 0.764514
vt 0.221756 0.763787
vt 0.355152 0.754676
vt 0.356872 0.754676
vt 0.356872 0.755669
vt 0.355152 0.756396
vt 0.546266 0.754676
vt 0.546266 0.756396
vt 0.545273 0.756396
vt 0.544546 0.754676
vt 0.283038 0.765507
vt 0.283038 0.763787
vt 0.284031 0.763787
vt 0.284758 0.765507
vt 0.546266 0.528790
vt 0.544546 0.528790
vt 0.544546 0.527797
vt 0.546266 0.527070
vt 0.355152 0.528790
vt 0.355152 0.527070
vt 0.356145 0.527070
vt 0.356872 0.528790
vt 0.221756 0.790733
vt 0.221756 0.792453
vt 0.220763 0.792453
vt 0.220036 0.790733
vt 0.535435 0.754676
vt 0.537155 0.754676
vt 0.537155 0.755669
vt 0.535435 0.756396
vt 0.329926 0.754676
vt 0.329926 0.756396
vt 0.328933 0.756396
vt 0.328206 0.754676
vt 0.283038 0.790733
vt 0.284758 0.790733
vt 0.284758 0.791726
vt 0.283038 0.792453
vt 0.329926 0.528790
vt 0.328206 0.528790
vt 0.328206 0.527797
vt 0.329926 0.527070
vt 0.535435 0.528790
vt 0.535435 0.527070
vt 0.536428 0.527070
vt 0.537155 0.528790
vt 0.329926 0.765507
vt 0.328206 0.765507
vt 0.328206 0.764514
vt 0.329926 0.763787
vt 0.941453 0.754676
vt 0.943173 0.754676
vt 0.943173 0.755669
vt 0.941453 0.756396
vt 0.438096 0.754676
vt 0.438096 0.756396
vt 0.437103 0.756396
vt 0.436376 0.754676
vt 0.941453 0.528790
vt 0.941453 0.527070
vt 0.942446 0.527070
vt 0.943173 0.528790
vt 0.293869 0.765507
vt 0.292149 0.765507
vt 0.292149 0.764514
vt 0.293869 0.763787
vt 0.438096 0.528790
vt 0.436376 0.528790
vt 0.436376 0.527797
vt 0.438096 0.527070
vt 0.355152 0.765507
vt 0.355152 0.763787
vt 0.356145 0.763787
vt 0.356872 0.765507
vt 0.463322 0.754676
vt 0.465042 0.754676
vt 0.465042 0.755669
vt 0.463322 0.756396
vt 0.582323 0.754676
vt 0.582323 0.756396
vt 0.581330 0.756396
vt 0.580603 0.754676
vt 0.293869 0.790733
vt 0.293869 0.792453
vt 0.292876 0.792453
vt 0.292149 0.790733
vt 0.582323 0.528790
vt 0.580603 0.528790
vt 0.580603 0.527797
vt 0.582323 0.527070
vt 0.463322 0.528790
vt 0.463322 0.527070
vt 0.464315 0.527070
vt 0.465042 0.528790
vt 0.329926 0.790733
vt 0.329926 0.792453
vt 0.328933 0.792453
vt 0.328206 0.790733
vt 0.499378 0.754676
vt 0.501098 0.754676
vt 0.501098 0.755669
vt 0.499378 0.756396
vt 0.916227 0.754676
vt 0.916227 0.756396
vt 0.915234 0.756396
vt 0.914507 0.754676
vt 0.319095 0.765507
vt 0.319095 0.763787
vt 0.320088 0.763787
vt 0.320815 0.765507
vt 0.916227 0.528790
vt 0.914507 0.528790
vt 0.914507 0.527797
vt 0.916227 0.527070
vt 0.499378 0.528790
vt 0.499378 0.527070
vt 0.500371 0.527070
vt 0.501098 0.528790
vt 0.355152 0.790733
vt 0.356872 0.790733
vt 0.356872 0.791726
vt 0.355152 0.792453
vt 0.607548 0.754676
vt 0.609268 0.754676
vt 0.609268 0.755669
vt 0.607548 0.756396
vt 0.474153 0.754676
vt 0.474153 0.756396
vt 0.473160 0.756396
vt 0.472433 0.754676
vt 0.319095 0.790733
vt 0.320815 0.790733
vt 0.320815 0.791726
vt 0.319095 0.792453
vt 0.474153 0.528790
vt 0.472433 0.528790
vt 0.472433 0.527797
vt 0.474153 0.527070
vt 0.607548 0.528790
vt 0.607548 0.527070
vt 0.608541 0.527070
vt 0.609268 0.528790
vt 0.650844 0.005415
vt 0.649124 0.005415
vt 0.649124 0.004422
vt 0.650844 0.003695
vt 0.959163 0.528790
vt 0.959163 0.527070
vt 0.960156 0.527070
vt 0.960883 0.528790
vt 0.976874 0.783342
vt 0.978594 0.783342
vt 0.978594 0.784335
vt 0.976874 0.785062
vt 0.952284 0.528790
vt 0.950564 0.528790
vt 0.950564 0.527797
vt 0.952284 0.527070
vt 0.650844 0.926671
vt 0.650844 0.928391
vt 0.649851 0.928391
vt 0.649124 0.926671
vt 0.969994 0.783342
vt 0.969994 0.785062
vt 0.969001 0.785062
vt 0.968274 0.783342
vt 0.905396 0.005415
vt 0.905396 0.003695
vt 0.906389 0.003695
vt 0.907116 0.005415
vt 0.976874 0.528790
vt 0.976874 0.527070
vt 0.977867 0.527070
vt 0.978594 0.528790
vt 0.625259 0.984002
vt 0.626979 0.984002
vt 0.626979 0.984995
vt 0.625259 0.985722
vt 0.905396 0.926671
vt 0.907116 0.926671
vt 0.907116 0.927664
vt 0.905396 0.928391
vt 0.618379 0.984002
vt 0.618379 0.985722
vt 0.617386 0.985722
vt 0.616659 0.984002
vt 0.969994 0.528790
vt 0.968274 0.528790
vt 0.968274 0.527797
vt 0.969994 0.527070
vt 0.650844 0.460628
vt 0.650844 0.462348
vt 0.649851 0.462348
vt 0.649124 0.460628
vt 0.994585 0.528790
vt 0.994585 0.527070
vt 0.995578 0.527070
vt 0.996305 0.528790
vt 0.959163 0.984002
vt 0.960883 0.984002
vt 0.960883 0.984995
vt 0.959163 0.985722
vt 0.650844 0.471458
vt 0.649124 0.471458
vt 0.649124 0.470465
vt 0.650844 0.469738
vt 0.952284 0.984002
vt 0.952284 0.985722
vt 0.951291 0.985722
vt 0.950564 0.984002
vt 0.987705 0.528790
vt 0.985985 0.528790
vt 0.985985 0.527797
vt 0.987705 0.527070
vt 0.905396 0.460628
vt 0.907116 0.460628
vt 0.907116 0.461621
vt 0.905396 0.462348
vt 0.625259 0.528790
vt 0.625259 0.527070
vt 0.626252 0.527070
vt 0.626979 0.528790
vt 0.994585 0.783342
vt 0.996305 0.783342
vt 0.996305 0.784335
vt 0.994585 0.785062
vt 0.905396 0.471458
vt 0.905396 0.469738
vt 0.906389 0.469738
vt 0.907116 0.471458
vt 0.987705 0.783342
vt 0.987705 0.785062
vt 0.986712 0.785062
vt 0.985985 0.783342
vt 0.618379 0.528790
vt 0.616659 0.528790
vt 0.616659 0.527797
vt 0.618379 0.527070
vt 0.005415 0.005415
vt 0.003696 0.005415
vt 0.003696 0.004422
vt 0.005415 0.003695
vt 0.977509 0.005415
vt 0.977509 0.003695
vt 0.978502 0.003695
vt 0.979229 0.005415
vt 0.030641 0.840673
vt 0.032361 0.840673
vt 0.032361 0.841666
vt 0.030641 0.842393
vt 0.952284 0.005415
vt 0.950564 0.005415
vt 0.950564 0.004422
vt 0.952284 0.003695
vt 0.328130 0.517959
vt 0.328130 0.519679
vt 0.327137 0.519679
vt 0.326410 0.517959
vt 0.005415 0.840673
vt 0.005415 0.842393
vt 0.004422 0.842393
vt 0.003695 0.840673
vt 0.317299 0.005415
vt 0.317299 0.003695
vt 0.318292 0.003695
vt 0.319019 0.005415
vt 0.030641 0.528790
vt 0.030641 0.527070
vt 0.031634 0.527070
vt 0.032361 0.528790
vt 0.941453 0.517959
vt 0.943173 0.517959
vt 0.943173 0.518952
vt 0.941453 0.519679
vt 0.640013 0.517959
vt 0.641733 0.517959
vt 0.641733 0.518952
vt 0.640013 0.519679
vt 0.916227 0.517959
vt 0.916227 0.519679
vt 0.915234 0.519679
vt 0.914507 0.517959
vt 0.005415 0.528790
vt 0.003696 0.528790
vt 0.003696 0.527797
vt 0.005415 0.527070
vt 0.005415 0.517959
vt 0.005415 0.519679
vt 0.004422 0.519679
vt 0.003695 0.517959
vt 0.066698 0.528790
vt 0.066698 0.527070
vt 0.067691 0.527070
vt 0.068418 0.528790
vt 0.977509 0.517959
vt 0.979229 0.517959
vt 0.979229 0.518952
vt 0.977509 0.519679
vt 0.328130 0.005415
vt 0.326410 0.005415
vt 0.326410 0.004422
vt 0.328130 0.003695
vt 0.952283 0.517959
vt 0.952284 0.519679
vt 0.951290 0.519679
vt 0.950564 0.517959
vt 0.041472 0.528790
vt 0.039752 0.528790
vt 0.039752 0.527797
vt 0.041472 0.527070
vt 0.317299 0.517959
vt 0.319019 0.517959
vt 0.319019 0.518952
vt 0.317299 0.519679
vt 0.941453 0.005415
vt 0.941453 0.003695
vt 0.942446 0.003695
vt 0.943173 0.005415
vt 0.066698 0.840673
vt 0.068418 0.840673
vt 0.068418 0.841666
vt 0.066698 0.842393
vt 0.640013 0.005415
vt 0.640013 0.003695
vt 0.641006 0.003695
vt 0.641733 0.005415
vt 0.041472 0.840673
vt 0.041472 0.842393
vt 0.040479 0.842393
vt 0.039752 0.840673
vt 0.916227 0.005415
vt 0.914507 0.005415
vt 0.914507 0.004422
vt 0.916227 0.003695
s 0
usemtl exp_B2b_final
f 1/1/1 4/2/1 5/3/1 7/4/1
f 2/5/2 6/6/2 5/7/2 4/8/2
f 3/9/3 7/10/3 5/11/3 6/12/3
f 8/13/4 11/14/4 12/15/4 14/16/4
f 9/17/5 13/18/5 12/19/5 11/20/5
f 10/21/6 14/22/6 12/23/6 13/24/6
f 15/25/7 18/26/7 19/27/7 21/28/7
f 16/29/8 20/30/8 19/31/8 18/32/8
f 17/33/9 21/34/9 19/35/9 20/36/9
f 22/37/10 25/38/10 26/39/10 28/40/10
f 23/41/11 27/42/11 26/43/11 25/44/11
f 24/45/12 28/46/12 26/47/12 27/48/12
f 29/49/13 32/50/13 33/51/13 35/52/13
f 30/53/14 34/54/14 33/55/14 32/56/14
f 31/57/15 35/58/15 33/59/15 34/60/15
f 36/61/16 39/62/16 40/63/16 42/64/16
f 37/65/17 41/66/17 40/67/17 39/68/17
f 38/69/18 42/70/18 40/71/18 41/72/18
f 43/73/19 46/74/19 47/75/19 49/76/19
f 44/77/20 48/78/20 47/79/20 46/80/20
f 45/81/21 49/82/21 47/83/21 48/84/21
f 50/85/22 53/86/22 54/87/22 56/88/22
f 51/89/23 55/90/23 54/91/23 53/92/23
f 52/93/24 56/94/24 54/95/24 55/96/24
f 57/97/1 60/98/1 61/99/1 63/100/1
f 58/101/2 62/102/2 61/103/2 60/104/2
f 59/105/3 63/106/3 61/107/3 62/108/3
f 64/109/4 67/110/4 68/111/4 70/112/4
f 65/113/5 69/114/5 68/115/5 67/116/5
f 66/117/6 70/118/6 68/119/6 69/120/6
f 71/121/7 74/122/7 75/123/7 77/124/7
f 72/125/8 76/126/8 75/127/8 74/128/8
f 73/129/9 77/130/9 75/131/9 76/132/9
f 78/133/10 81/134/10 82/135/10 84/136/10
f 79/137/11 83/138/11 82/139/11 81/140/11
f 80/141/12 84/142/12 82/143/12 83/144/12
f 85/145/13 88/146/13 89/147/13 91/148/13
f 86/149/14 90/150/14 89/151/14 88/152/14
f 87/153/15 91/154/15 89/155/15 90/156/15
f 92/157/16 95/158/16 96/159/16 98/160/16
f 93/161/17 97/162/17 96/163/17 95/164/17
f 94/165/18 98/166/18 96/167/18 97/168/18
f 99/169/19 102/170/19 103/171/19 105/172/19
f 100/173/20 104/174/20 103/175/20 102/176/20
f 101/177/21 105/178/21 103/179/21 104/180/21
f 106/181/22 109/182/22 110/183/22 112/184/22
f 107/185/23 111/186/23 110/187/23 109/188/23
f 108/189/24 112/190/24 110/191/24 111/192/24
f 113/193/25 116/194/25 117/195/25 119/196/25
f 114/197/2 118/198/2 117/199/2 116/200/2
f 115/201/3 119/202/3 117/203/3 118/204/3
f 120/205/4 123/206/4 124/207/4 126/208/4
f 121/209/26 125/210/26 124/211/26 123/212/26
f 122/213/6 126/214/6 124/215/6 125/216/6
f 127/217/27 130/218/27 131/219/27 133/220/27
f 128/221/8 132/222/8 131/223/8 130/224/8
f 129/225/9 133/226/9 131/227/9 132/228/9
f 134/229/28 137/230/28 138/231/28 140/232/28
f 135/233/11 139/234/11 138/235/11 137/236/11
f 136/237/12 140/238/12 138/239/12 139/240/12
f 141/241/29 144/242/29 145/243/29 147/244/29
f 142/245/14 146/246/14 145/247/14 144/248/14
f 143/249/15 147/250/15 145/251/15 146/252/15
f 148/253/30 151/254/30 152/255/30 154/256/30
f 149/257/17 153/258/17 152/259/17 151/260/17
f 150/261/18 154/262/18 152/263/18 153/264/18
f 155/265/31 158/266/31 159/267/31 161/268/31
f 156/269/20 160/270/20 159/271/20 158/272/20
f 157/273/21 161/274/21 159/275/21 160/276/21
f 162/277/32 165/278/32 166/279/32 168/280/32
f 163/281/23 167/282/23 166/283/23 165/284/23
f 164/285/24 168/286/24 166/287/24 167/288/24
f 169/289/1 172/290/1 173/291/1 175/292/1
f 170/293/2 174/294/2 173/295/2 172/296/2
f 171/297/3 175/298/3 173/299/3 174/300/3
f 176/301/4 179/302/4 180/303/4 182/304/4
f 177/305/5 181/306/5 180/307/5 179/308/5
f 178/309/6 182/310/6 180/311/6 181/312/6
f 183/313/7 186/314/7 187/315/7 189/316/7
f 184/317/8 188/318/8 187/319/8 186/320/8
f 185/321/9 189/322/9 187/323/9 188/324/9
f 190/325/10 193/326/10 194/327/10 196/328/10
f 191/329/11 195/330/11 194/331/11 193/332/11
f 192/333/12 196/334/12 194/335/12 195/336/12
f 197/337/13 200/338/13 201/339/13 203/340/13
f 198/341/14 202/342/14 201/343/14 200/344/14
f 199/345/15 203/346/15 201/347/15 202/348/15
f 204/349/16 207/350/16 208/351/16 210/352/16
f 205/353/17 209/354/17 208/355/17 207/356/17
f 206/357/18 210/358/18 208/359/18 209/360/18
f 211/361/19 214/362/19 215/363/19 217/364/19
f 212/365/20 216/366/20 215/367/20 214/368/20
f 213/369/21 217/370/21 215/371/21 216/372/21
f 218/373/22 221/374/22 222/375/22 224/376/22
f 219/377/23 223/378/23 222/379/23 221/380/23
f 220/381/24 224/382/24 222/383/24 223/384/24
f 225/385/1 228/386/1 229/387/1 231/388/1
f 226/389/2 230/390/2 229/391/2 228/392/2
f 227/393/3 231/394/3 229/395/3 230/396/3
f 232/397/4 235/398/4 236/399/4 238/400/4
f 233/401/5 237/402/5 236/403/5 235/404/5
f 234/405/6 238/406/6 236/407/6 237/408/6
f 239/409/7 242/410/7 243/411/7 245/412/7
f 240/413/8 244/414/8 243/415/8 242/416/8
f 241/417/33 245/418/33 243/419/33 244/420/33
f 246/421/10 249/422/10 250/423/10 252/424/10
f 247/425/34 251/426/34 250/427/34 249/428/34
f 248/429/12 252/430/12 250/431/12 251/432/12
f 253/433/29 256/434/29 257/435/29 259/436/29
f 254/437/14 258/438/14 257/439/14 256/440/14
f 255/441/15 259/442/15 257/443/15 258/444/15
f 260/445/30 263/446/30 264/447/30 266/448/30
f 261/449/17 265/450/17 264/451/17 263/452/17
f 262/453/18 266/454/18 264/455/18 265/456/18
f 267/457/19 270/458/19 271/459/19 273/460/19
f 268/461/35 272/462/35 271/463/35 270/464/35
f 269/465/21 273/466/21 271/467/21 272/468/21
f 274/469/22 277/470/22 278/471/22 280/472/22
f 275/473/23 279/474/23 278/475/23 277/476/23
f 276/477/24 280/478/24 278/479/24 279/480/24
f 281/481/1 284/482/1 285/483/1 287/484/1
f 282/485/2 286/486/2 285/487/2 284/488/2
f 283/489/3 287/490/3 285/491/3 286/492/3
f 288/493/4 291/494/4 292/495/4 294/496/4
f 289/497/5 293/498/5 292/499/5 291/500/5
f 290/501/6 294/502/6 292/503/6 293/504/6
f 295/505/7 298/506/7 299/507/7 301/508/7
f 296/509/8 300/510/8 299/511/8 298/512/8
f 297/513/9 301/514/9 299/515/9 300/516/9
f 302/517/10 305/518/10 306/519/10 308/520/10
f 303/521/11 307/522/11 306/523/11 305/524/11
f 304/525/12 308/526/12 306/527/12 307/528/12
f 309/529/29 312/530/29 313/531/29 315/532/29
f 310/533/14 314/534/14 313/535/14 312/536/14
f 311/537/15 315/538/15 313/539/15 314/540/15
f 316/541/16 319/542/16 320/543/16 322/544/16
f 317/545/17 321/546/17 320/547/17 319/548/17
f 318/549/18 322/550/18 320/551/18 321/552/18
f 323/553/19 326/554/19 327/555/19 329/556/19
f 324/557/20 328/558/20 327/559/20 326/560/20
f 325/561/21 329/562/21 327/563/21 328/564/21
f 330/565/22 333/566/22 334/567/22 336/568/22
f 331/569/23 335/570/23 334/571/23 333/572/23
f 332/573/24 336/574/24 334/575/24 335/576/24
f 15/25/36 1/1/36 7/4/36 18/26/36
f 18/32/37 7/10/37 3/9/37 16/29/37
f 2/5/38 8/13/38 14/16/38 6/6/38
f 6/12/39 14/22/39 10/21/39 3/9/39
f 9/17/40 22/37/40 28/40/40 13/18/40
f 13/24/41 28/46/41 24/45/41 10/21/41
f 23/41/42 17/33/42 20/36/42 27/42/42
f 27/48/43 20/30/43 16/29/43 24/45/43
f 43/73/44 15/25/44 21/28/44 46/74/44
f 46/80/45 21/34/45 17/33/45 44/77/45
f 22/37/46 50/85/46 56/88/46 25/38/46
f 25/44/47 56/94/47 52/93/47 23/41/47
f 51/89/48 45/81/48 48/84/48 55/90/48
f 55/96/49 48/78/49 44/77/49 52/93/49
f 29/49/50 43/73/50 49/76/50 32/50/50
f 32/56/51 49/82/51 45/81/51 30/53/51
f 50/85/52 36/61/52 42/64/52 53/86/52
f 53/92/53 42/70/53 38/69/53 51/89/53
f 37/65/54 31/57/54 34/60/54 41/66/54
f 41/72/55 34/54/55 30/53/55 38/69/55
f 1/1/56 29/49/56 35/52/56 4/2/56
f 4/8/57 35/58/57 31/57/57 2/5/57
f 36/61/58 9/17/58 11/20/58 39/62/58
f 39/68/59 11/14/59 8/13/59 37/65/59
f 71/121/36 57/97/36 63/100/36 74/122/36
f 74/128/37 63/106/37 59/105/37 72/125/37
f 58/101/38 64/109/38 70/112/38 62/102/38
f 62/108/39 70/118/39 66/117/39 59/105/39
f 65/113/40 78/133/40 84/136/40 69/114/40
f 69/120/41 84/142/41 80/141/41 66/117/41
f 79/137/42 73/129/42 76/132/42 83/138/42
f 83/144/43 76/126/43 72/125/43 80/141/43
f 99/169/44 71/121/44 77/124/44 102/170/44
f 102/176/45 77/130/45 73/129/45 100/173/45
f 78/133/46 106/181/46 112/184/46 81/134/46
f 81/140/47 112/190/47 108/189/47 79/137/47
f 107/185/48 101/177/48 104/180/48 111/186/48
f 111/192/49 104/174/49 100/173/49 108/189/49
f 85/145/50 99/169/50 105/172/50 88/146/50
f 88/152/51 105/178/51 101/177/51 86/149/51
f 106/181/52 92/157/52 98/160/52 109/182/52
f 109/188/53 98/166/53 94/165/53 107/185/53
f 93/161/54 87/153/54 90/156/54 97/162/54
f 97/168/55 90/150/55 86/149/55 94/165/55
f 57/97/56 85/145/56 91/148/56 60/98/56
f 60/104/57 91/154/57 87/153/57 58/101/57
f 92/157/58 65/113/58 67/116/58 95/158/58
f 95/164/59 67/110/59 64/109/59 93/161/59
f 127/217/36 113/193/36 119/196/36 130/218/36
f 130/224/37 119/202/37 115/201/37 128/221/37
f 114/197/38 120/205/38 126/208/38 118/198/38
f 118/204/39 126/214/39 122/213/39 115/201/39
f 121/209/40 134/229/40 140/232/40 125/210/40
f 125/216/41 140/238/41 136/237/41 122/213/41
f 135/233/42 129/225/42 132/228/42 139/234/42
f 139/240/43 132/222/43 128/221/43 136/237/43
f 155/265/44 127/217/44 133/220/44 158/266/44
f 158/272/45 133/226/45 129/225/45 156/269/45
f 134/229/46 162/277/46 168/280/46 137/230/46
f 137/236/47 168/286/47 164/285/47 135/233/47
f 163/281/48 157/273/48 160/276/48 167/282/48
f 167/288/49 160/270/49 156/269/49 164/285/49
f 141/241/50 155/265/50 161/268/50 144/242/50
f 144/248/51 161/274/51 157/273/51 142/245/51
f 162/277/52 148/253/52 154/256/52 165/278/52
f 165/284/53 154/262/53 150/261/53 163/281/53
f 149/257/54 143/249/54 146/252/54 153/258/54
f 153/264/55 146/246/55 142/245/55 150/261/55
f 113/193/56 141/241/56 147/244/56 116/194/56
f 116/200/57 147/250/57 143/249/57 114/197/57
f 148/253/58 121/209/58 123/212/58 151/254/58
f 151/260/59 123/206/59 120/205/59 149/257/59
f 183/313/36 169/289/36 175/292/36 186/314/36
f 186/320/37 175/298/37 171/297/37 184/317/37
f 170/293/38 176/301/38 182/304/38 174/294/38
f 174/300/39 182/310/39 178/309/39 171/297/39
f 177/305/40 190/325/40 196/328/40 181/306/40
f 181/312/41 196/334/41 192/333/41 178/309/41
f 191/329/42 185/321/42 188/324/42 195/330/42
f 195/336/43 188/318/43 184/317/43 192/333/43
f 211/361/44 183/313/44 189/316/44 214/362/44
f 214/368/45 189/322/45 185/321/45 212/365/45
f 190/325/46 218/373/46 224/376/46 193/326/46
f 193/332/47 224/382/47 220/381/47 191/329/47
f 219/377/48 213/369/48 216/372/48 223/378/48
f 223/384/49 216/366/49 212/365/49 220/381/49
f 197/337/50 211/361/50 217/364/50 200/338/50
f 200/344/51 217/370/51 213/369/51 198/341/51
f 218/373/52 204/349/52 210/352/52 221/374/52
f 221/380/53 210/358/53 206/357/53 219/377/53
f 205/353/54 199/345/54 202/348/54 209/354/54
f 209/360/55 202/342/55 198/341/55 206/357/55
f 169/289/56 197/337/56 203/340/56 172/290/56
f 172/296/57 203/346/57 199/345/57 170/293/57
f 204/349/58 177/305/58 179/308/58 207/350/58
f 207/356/59 179/302/59 176/301/59 205/353/59
f 239/409/36 225/385/36 231/388/36 242/410/36
f 242/416/37 231/394/37 227/393/37 240/413/37
f 226/389/38 232/397/38 238/400/38 230/390/38
f 230/396/39 238/406/39 234/405/39 227/393/39
f 233/401/40 246/421/40 252/424/40 237/402/40
f 237/408/41 252/430/41 248/429/41 234/405/41
f 247/425/42 241/417/42 244/420/42 251/426/42
f 251/432/43 244/414/43 240/413/43 248/429/43
f 267/457/44 239/409/44 245/412/44 270/458/44
f 270/464/45 245/418/45 241/417/45 268/461/45
f 246/421/46 274/469/46 280/472/46 249/422/46
f 249/428/47 280/478/47 276/477/47 247/425/47
f 275/473/48 269/465/48 272/468/48 279/474/48
f 279/480/49 272/462/49 268/461/49 276/477/49
f 253/433/50 267/457/50 273/460/50 256/434/50
f 256/440/51 273/466/51 269/465/51 254/437/51
f 274/469/52 260/445/52 266/448/52 277/470/52
f 277/476/53 266/454/53 262/453/53 275/473/53
f 261/449/54 255/441/54 258/444/54 265/450/54
f 265/456/55 258/438/55 254/437/55 262/453/55
f 225/385/56 253/433/56 259/436/56 228/386/56
f 228/392/57 259/442/57 255/441/57 226/389/57
f 260/445/58 233/401/58 235/404/58 263/446/58
f 263/452/59 235/398/59 232/397/59 261/449/59
f 295/505/36 281/481/36 287/484/36 298/506/36
f 298/512/37 287/490/37 283/489/37 296/509/37
f 282/485/38 288/493/38 294/496/38 286/486/38
f 286/492/39 294/502/39 290/501/39 283/489/39
f 289/497/40 302/517/40 308/520/40 293/498/40
f 293/504/41 308/526/41 304/525/41 290/501/41
f 303/521/42 297/513/42 300/516/42 307/522/42
f 307/528/43 300/510/43 296/509/43 304/525/43
f 323/553/44 295/505/44 301/508/44 326/554/44
f 326/560/45 301/514/45 297/513/45 324/557/45
f 302/517/46 330/565/46 336/568/46 305/518/46
f 305/524/47 336/574/47 332/573/47 303/521/47
f 331/569/48 325/561/48 328/564/48 335/570/48
f 335/576/49 328/558/49 324/557/49 332/573/49
f 309/529/50 323/553/50 329/556/50 312/530/50
f 312/536/51 329/562/51 325/561/51 310/533/51
f 330/565/52 316/541/52 322/544/52 333/566/52
f 333/572/53 322/550/53 318/549/53 331/569/53
f 317/545/54 311/537/54 314/540/54 321/546/54
f 321/552/55 314/534/55 310/533/55 318/549/55
f 281/481/56 309/529/56 315/532/56 284/482/56
f 284/488/57 315/538/57 311/537/57 282/485/57
f 316/541/58 289/497/58 291/500/58 319/542/58
f 319/548/59 291/494/59 288/493/59 317/545/59
f 15/25/60 43/73/60 29/49/60 1/1/60
f 3/9/61 10/21/61 24/45/61 16/29/61
f 31/57/62 37/65/62 8/13/62 2/5/62
f 50/85/63 22/37/63 9/17/63 36/61/63
f 17/33/64 23/41/64 52/93/64 44/77/64
f 45/81/65 51/89/65 38/69/65 30/53/65
f 71/121/60 99/169/60 85/145/60 57/97/60
f 59/105/61 66/117/61 80/141/61 72/125/61
f 87/153/62 93/161/62 64/109/62 58/101/62
f 106/181/63 78/133/63 65/113/63 92/157/63
f 73/129/64 79/137/64 108/189/64 100/173/64
f 101/177/65 107/185/65 94/165/65 86/149/65
f 127/217/60 155/265/60 141/241/60 113/193/60
f 115/201/61 122/213/61 136/237/61 128/221/61
f 143/249/62 149/257/62 120/205/62 114/197/62
f 162/277/63 134/229/63 121/209/63 148/253/63
f 129/225/64 135/233/64 164/285/64 156/269/64
f 157/273/65 163/281/65 150/261/65 142/245/65
f 183/313/60 211/361/60 197/337/60 169/289/60
f 171/297/61 178/309/61 192/333/61 184/317/61
f 199/345/62 205/353/62 176/301/62 170/293/62
f 218/373/63 190/325/63 177/305/63 204/349/63
f 185/321/64 191/329/64 220/381/64 212/365/64
f 213/369/65 219/377/65 206/357/65 198/341/65
f 239/409/60 267/457/60 253/433/60 225/385/60
f 227/393/61 234/405/61 248/429/61 240/413/61
f 255/441/62 261/449/62 232/397/62 226/389/62
f 274/469/63 246/421/63 233/401/63 260/445/63
f 241/417/64 247/425/64 276/477/64 268/461/64
f 269/465/65 275/473/65 262/453/65 254/437/65
f 295/505/60 323/553/60 309/529/60 281/481/60
f 283/489/61 290/501/61 304/525/61 296/509/61
f 311/537/62 317/545/62 288/493/62 282/485/62
f 330/565/63 302/517/63 289/497/63 316/541/63
f 297/513/64 303/521/64 332/573/64 324/557/64
f 325/561/65 331/569/65 318/549/65 310/533/65
