# Blender 5.1.1
# www.blender.org
mtllib B6_final.mtl
o B6_final.001
v -0.000000 0.080114 1.528591
v -0.000000 0.220114 1.408591
v -0.004703 0.079120 1.527431
v -0.004703 0.219120 1.407431
v -0.007609 0.076517 1.524394
v -0.007609 0.216517 1.404394
v -0.007609 0.073299 1.520640
v -0.007609 0.213299 1.400640
v -0.004703 0.070696 1.517603
v -0.004703 0.210696 1.397603
v -0.000000 0.069701 1.516443
v -0.000000 0.209701 1.396443
v 0.004702 0.070696 1.517603
v 0.004702 0.210696 1.397603
v 0.007608 0.073299 1.520640
v 0.007608 0.213299 1.400640
v 0.007608 0.076517 1.524394
v 0.007608 0.216517 1.404394
v 0.004702 0.079120 1.527431
v 0.004702 0.219120 1.407431
v -0.004509 0.072305 1.528591
v -0.125753 0.002305 1.408591
v -0.001297 0.068730 1.527431
v -0.122540 -0.001270 1.407431
v 0.002410 0.067514 1.524394
v -0.118833 -0.002486 1.404394
v 0.005197 0.069123 1.520640
v -0.116046 -0.000877 1.400640
v 0.005998 0.072942 1.517603
v -0.115245 0.002942 1.397603
v 0.004508 0.077511 1.516443
v -0.116735 0.007511 1.396443
v 0.001296 0.081086 1.517603
v -0.119947 0.011086 1.397603
v -0.002411 0.082301 1.520640
v -0.123655 0.012301 1.400640
v -0.005198 0.080693 1.524394
v -0.126441 0.010692 1.404394
v -0.006000 0.076874 1.527431
v -0.127243 0.006874 1.407431
v 0.004508 0.072305 1.528591
v 0.125752 0.002305 1.408591
v 0.005998 0.076874 1.527431
v 0.127242 0.006874 1.407431
v 0.005197 0.080693 1.524394
v 0.126441 0.010692 1.404394
v 0.002410 0.082301 1.520640
v 0.123654 0.012301 1.400640
v -0.001297 0.081086 1.517603
v 0.119946 0.011086 1.397603
v -0.004509 0.077511 1.516443
v 0.116734 0.007511 1.396443
v -0.006000 0.072942 1.517603
v 0.115244 0.002941 1.397603
v -0.005198 0.069123 1.520640
v 0.116045 -0.000877 1.400640
v -0.002411 0.067514 1.524394
v 0.118832 -0.002486 1.404394
v 0.001296 0.068730 1.527431
v 0.122540 -0.001271 1.407431
v 0.270853 0.231285 0.005034
v -0.025847 0.059985 1.740871
v 0.272623 0.224801 0.004697
v -0.024077 0.053502 1.740533
v 0.270959 0.218346 0.003776
v -0.025741 0.047047 1.739612
v 0.266307 0.213649 0.002517
v -0.030393 0.042350 1.738353
v 0.259913 0.211969 0.001259
v -0.036786 0.040670 1.737095
v 0.253491 0.213756 0.000337
v -0.043208 0.042456 1.736174
v 0.248762 0.218531 0.000000
v -0.047938 0.047231 1.735836
v 0.246992 0.225014 0.000337
v -0.049708 0.053715 1.736174
v 0.248655 0.231469 0.001259
v -0.048044 0.060170 1.737095
v 0.253307 0.236166 0.002517
v -0.043393 0.064867 1.738354
v 0.259701 0.237846 0.003776
v -0.036999 0.066547 1.739612
v 0.266122 0.236060 0.004697
v -0.030577 0.064760 1.740533
v -0.270854 0.231285 0.005035
v 0.025846 0.059985 1.740871
v -0.266124 0.236060 0.004697
v 0.030576 0.064760 1.740533
v -0.259702 0.237846 0.003776
v 0.036998 0.066547 1.739612
v -0.253308 0.236166 0.002517
v 0.043391 0.064867 1.738354
v -0.248656 0.231469 0.001259
v 0.048043 0.060170 1.737095
v -0.246993 0.225014 0.000337
v 0.049707 0.053715 1.736174
v -0.248763 0.218531 0.000000
v 0.047937 0.047231 1.735836
v -0.253493 0.213756 0.000337
v 0.043207 0.042456 1.736174
v -0.259915 0.211969 0.001259
v 0.036785 0.040670 1.737095
v -0.266308 0.213649 0.002517
v 0.030391 0.042350 1.738354
v -0.270960 0.218346 0.003776
v 0.025740 0.047047 1.739612
v -0.272624 0.224801 0.004697
v 0.024076 0.053502 1.740533
v -0.000000 -0.237846 0.005035
v -0.000000 0.104753 1.740871
v -0.006501 -0.236138 0.004697
v -0.006501 0.106462 1.740534
v -0.011259 -0.231469 0.003776
v -0.011259 0.111130 1.739612
v -0.013000 -0.225092 0.002517
v -0.013000 0.117507 1.738354
v -0.011259 -0.218715 0.001259
v -0.011259 0.123884 1.737095
v -0.006501 -0.214047 0.000337
v -0.006501 0.128552 1.736174
v -0.000000 -0.212338 0.000000
v -0.000000 0.130261 1.735836
v 0.006499 -0.214047 0.000337
v 0.006499 0.128552 1.736174
v 0.011258 -0.218715 0.001259
v 0.011258 0.123884 1.737095
v 0.013000 -0.225092 0.002517
v 0.013000 0.117507 1.738354
v 0.011258 -0.231469 0.003776
v 0.011258 0.111130 1.739612
v 0.006499 -0.236138 0.004697
v 0.006499 0.106462 1.740534
vn -0.3090 0.6190 0.7221
vn -0.8090 0.3825 0.4463
vn -1.0000 -0.0000 -0.0000
vn -0.8090 -0.3825 -0.4463
vn -0.3090 -0.6190 -0.7221
vn 0.3090 -0.6189 -0.7221
vn 0.8090 -0.3825 -0.4463
vn 1.0000 -0.0000 -0.0000
vn -0.0000 0.7593 -0.6508
vn 0.8090 0.3825 0.4463
vn 0.3090 0.6189 0.7221
vn -0.0000 -0.7593 0.6508
vn -0.3815 -0.5771 0.7221
vn 0.0732 -0.8919 0.4463
vn 0.5000 -0.8660 -0.0000
vn 0.7358 -0.5094 -0.4463
vn 0.6905 0.0418 -0.7221
vn 0.3815 0.5771 -0.7221
vn -0.0732 0.8919 -0.4463
vn -0.5000 0.8660 -0.0000
vn -0.6575 -0.3796 -0.6508
vn -0.7358 0.5094 0.4462
vn -0.6905 -0.0418 0.7221
vn 0.6575 0.3796 0.6508
vn 0.6905 -0.0418 0.7221
vn 0.7358 0.5094 0.4463
vn 0.5000 0.8660 -0.0000
vn 0.0732 0.8919 -0.4463
vn -0.3815 0.5771 -0.7221
vn -0.6905 0.0419 -0.7221
vn -0.7358 -0.5093 -0.4463
vn -0.5000 -0.8660 -0.0000
vn 0.6575 -0.3796 -0.6508
vn -0.0732 -0.8919 0.4463
vn 0.3815 -0.5771 0.7221
vn -0.6575 0.3797 0.6508
vn 0.9501 0.2497 0.1870
vn 0.9543 -0.2655 0.1369
vn 0.7028 -0.7096 0.0501
vn 0.2630 -0.9635 -0.0501
vn -0.2472 -0.9592 -0.1369
vn -0.6913 -0.6980 -0.1870
vn -0.9501 -0.2496 -0.1870
vn -0.9543 0.2655 -0.1369
vn -0.7029 0.7095 -0.0501
vn -0.2630 0.9635 0.0501
vn -0.1677 -0.0968 0.9811
vn 0.2472 0.9592 0.1369
vn 0.6913 0.6979 0.1870
vn 0.1677 0.0968 -0.9811
vn -0.6913 0.6980 0.1870
vn -0.2472 0.9592 0.1369
vn 0.2631 0.9635 0.0501
vn 0.7028 0.7096 -0.0501
vn 0.9544 0.2655 -0.1369
vn 0.9501 -0.2497 -0.1870
vn 0.6913 -0.6980 -0.1870
vn 0.2472 -0.9592 -0.1369
vn -0.2631 -0.9635 -0.0501
vn -0.7029 -0.7095 0.0501
vn 0.1677 -0.0968 0.9811
vn -0.9543 -0.2655 0.1369
vn -0.9501 0.2497 0.1870
vn -0.1677 0.0968 -0.9811
vn -0.2588 -0.9476 0.1870
vn -0.7071 -0.6937 0.1369
vn -0.9659 -0.2539 0.0501
vn -0.9659 0.2539 -0.0501
vn -0.7071 0.6937 -0.1369
vn -0.2588 0.9476 -0.1870
vn 0.2588 0.9476 -0.1870
vn 0.7071 0.6937 -0.1369
vn 0.9659 0.2539 -0.0501
vn 0.9659 -0.2539 0.0501
vn -0.0000 0.1936 0.9811
vn 0.7071 -0.6937 0.1369
vn 0.2588 -0.9476 0.1870
vn -0.0000 -0.1936 -0.9811
vt 0.179722 0.002204
vt 0.179722 0.081070
vt 0.177073 0.080510
vt 0.177073 0.001644
vt 0.172456 0.214822
vt 0.172456 0.316599
vt 0.170408 0.316977
vt 0.170407 0.215200
vt 0.167641 0.317041
vt 0.167641 0.215264
vt 0.165213 0.316768
vt 0.165213 0.214991
vt 0.182371 0.084919
vt 0.182371 0.163785
vt 0.179722 0.163225
vt 0.179722 0.084359
vt 0.177073 0.163785
vt 0.177073 0.084919
vt 0.172456 0.320771
vt 0.172456 0.422548
vt 0.170408 0.422171
vt 0.170408 0.320394
vt 0.167641 0.422106
vt 0.167641 0.320329
vt 0.182934 0.465375
vt 0.184318 0.467768
vt 0.184318 0.470198
vt 0.182935 0.471735
vt 0.180696 0.471794
vt 0.178457 0.470351
vt 0.177073 0.467957
vt 0.177073 0.465528
vt 0.178457 0.463990
vt 0.180696 0.463932
vt 0.165213 0.422379
vt 0.165213 0.320602
vt 0.182371 0.001644
vt 0.182371 0.080510
vt 0.183440 0.454439
vt 0.183440 0.457204
vt 0.182224 0.459574
vt 0.180257 0.460643
vt 0.178289 0.460005
vt 0.177073 0.457901
vt 0.177073 0.455137
vt 0.178289 0.452767
vt 0.180257 0.451697
vt 0.182224 0.452336
vt 0.167862 0.857907
vt 0.167862 0.779041
vt 0.170511 0.779601
vt 0.170511 0.858467
vt 0.172423 0.108400
vt 0.172422 0.211392
vt 0.169949 0.211226
vt 0.169949 0.108233
vt 0.167195 0.211280
vt 0.167195 0.108288
vt 0.165213 0.211535
vt 0.165213 0.108542
vt 0.165213 0.940621
vt 0.165213 0.861755
vt 0.167862 0.862316
vt 0.167862 0.941182
vt 0.170511 0.861755
vt 0.170511 0.940621
vt 0.172423 0.001786
vt 0.172423 0.104779
vt 0.169950 0.104945
vt 0.169950 0.001952
vt 0.167196 0.104891
vt 0.167196 0.001898
vt 0.180274 0.475082
vt 0.182253 0.476517
vt 0.183476 0.479011
vt 0.183476 0.481611
vt 0.182253 0.483323
vt 0.180275 0.483494
vt 0.178296 0.482059
vt 0.177073 0.479565
vt 0.177073 0.476965
vt 0.178296 0.475253
vt 0.165213 0.104637
vt 0.165213 0.001644
vt 0.165213 0.858467
vt 0.165213 0.779601
vt 0.178296 0.488218
vt 0.180274 0.486783
vt 0.182253 0.486954
vt 0.183475 0.488666
vt 0.183475 0.491266
vt 0.182253 0.493760
vt 0.180274 0.495195
vt 0.178296 0.495024
vt 0.177073 0.493312
vt 0.177073 0.490712
vt 0.169499 0.504703
vt 0.169499 0.425837
vt 0.172148 0.426397
vt 0.172148 0.505263
vt 0.170332 0.601964
vt 0.170332 0.686375
vt 0.167551 0.686288
vt 0.167551 0.601877
vt 0.165213 0.687171
vt 0.165213 0.602759
vt 0.179857 0.257025
vt 0.179857 0.343642
vt 0.177073 0.343688
vt 0.177073 0.257072
vt 0.166850 0.598028
vt 0.166850 0.519162
vt 0.169499 0.519722
vt 0.169499 0.598588
vt 0.172148 0.519162
vt 0.172148 0.598028
vt 0.170332 0.691254
vt 0.170332 0.775666
vt 0.167551 0.775753
vt 0.167551 0.691341
vt 0.165213 0.774870
vt 0.165213 0.690459
vt 0.166850 0.514417
vt 0.169499 0.513857
vt 0.172148 0.514417
vt 0.173785 0.515883
vt 0.173785 0.517696
vt 0.165213 0.517696
vt 0.165213 0.515883
vt 0.179857 0.167120
vt 0.179857 0.253737
vt 0.177073 0.253690
vt 0.177073 0.167073
vt 0.166850 0.505263
vt 0.166850 0.426397
vt 0.173785 0.506729
vt 0.173785 0.508542
vt 0.172148 0.510008
vt 0.169499 0.510568
vt 0.166850 0.510008
vt 0.165213 0.508542
vt 0.165213 0.506729
vt 0.141142 0.972131
vt 0.141142 0.001680
vt 0.144930 0.001644
vt 0.144930 0.972095
vt 0.148289 0.002044
vt 0.148289 0.972495
vt 0.028925 0.996254
vt 0.028925 0.001694
vt 0.032339 0.001803
vt 0.032339 0.996362
vt 0.036120 0.001784
vt 0.036119 0.996343
vt 0.039253 0.001644
vt 0.039253 0.996203
vt 0.151577 0.972095
vt 0.151577 0.001644
vt 0.154778 0.002107
vt 0.154778 0.972558
vt 0.158565 0.002143
vt 0.158565 0.972594
vt 0.161925 0.001743
vt 0.161925 0.972194
vt 0.042542 0.996311
vt 0.042542 0.001752
vt 0.045956 0.001644
vt 0.045955 0.996203
vt 0.049736 0.001662
vt 0.049736 0.996222
vt 0.190971 0.404460
vt 0.190970 0.408246
vt 0.189109 0.411543
vt 0.185884 0.413467
vt 0.182160 0.413502
vt 0.178935 0.411640
vt 0.177073 0.408379
vt 0.177073 0.404593
vt 0.178935 0.401296
vt 0.182160 0.399372
vt 0.185884 0.399337
vt 0.189109 0.401199
vt 0.052870 0.001803
vt 0.052870 0.996362
vt 0.137941 0.972594
vt 0.137941 0.002143
vt 0.177073 0.425700
vt 0.177073 0.421914
vt 0.178935 0.418653
vt 0.182160 0.416790
vt 0.185884 0.416826
vt 0.189109 0.418750
vt 0.190971 0.422046
vt 0.190971 0.425832
vt 0.189109 0.429093
vt 0.185884 0.430956
vt 0.182160 0.430920
vt 0.178936 0.428996
vt 0.124310 0.983572
vt 0.124310 0.001943
vt 0.127687 0.001644
vt 0.127687 0.983273
vt 0.131473 0.001678
vt 0.131473 0.983307
vt 0.134653 0.002036
vt 0.134653 0.983665
vt 0.056158 0.993521
vt 0.056158 0.001644
vt 0.059382 0.001840
vt 0.059382 0.993717
vt 0.063171 0.001852
vt 0.063171 0.993728
vt 0.066510 0.001675
vt 0.066510 0.993551
vt 0.110679 0.983366
vt 0.110679 0.001737
vt 0.114056 0.002036
vt 0.114056 0.983665
vt 0.117842 0.002002
vt 0.117842 0.983631
vt 0.121022 0.001644
vt 0.121022 0.983273
vt 0.069798 0.993728
vt 0.069798 0.001851
vt 0.073022 0.001655
vt 0.073022 0.993532
vt 0.178935 0.446450
vt 0.177073 0.443153
vt 0.177073 0.439367
vt 0.178935 0.436106
vt 0.182160 0.434244
vt 0.185884 0.434280
vt 0.189108 0.436203
vt 0.190971 0.439500
vt 0.190971 0.443286
vt 0.189109 0.446547
vt 0.185884 0.448409
vt 0.182160 0.448374
vt 0.076811 0.001644
vt 0.076811 0.993520
vt 0.080150 0.001821
vt 0.080150 0.993697
vt 0.190970 0.390793
vt 0.189108 0.394090
vt 0.185884 0.396013
vt 0.182160 0.396049
vt 0.178935 0.394187
vt 0.177073 0.390926
vt 0.177073 0.387139
vt 0.178935 0.383843
vt 0.182160 0.381919
vt 0.185884 0.381884
vt 0.189109 0.383746
vt 0.190970 0.387007
vt 0.090626 0.986274
vt 0.090626 0.001685
vt 0.093770 0.002014
vt 0.093770 0.986604
vt 0.001644 0.998356
vt 0.001644 0.001646
vt 0.004869 0.001644
vt 0.004869 0.998354
vt 0.008658 0.001644
vt 0.008658 0.998354
vt 0.011996 0.001645
vt 0.011996 0.998356
vt 0.097059 0.986345
vt 0.097059 0.001755
vt 0.100465 0.002014
vt 0.100465 0.986604
vt 0.104246 0.001973
vt 0.104246 0.986563
vt 0.107391 0.001644
vt 0.107391 0.986234
vt 0.015285 0.998354
vt 0.015284 0.001644
vt 0.018509 0.001645
vt 0.018509 0.998355
vt 0.022299 0.001645
vt 0.022299 0.998356
vt 0.025637 0.001644
vt 0.025636 0.998354
vt 0.189109 0.348936
vt 0.190971 0.352233
vt 0.190971 0.356019
vt 0.189109 0.359280
vt 0.185884 0.361142
vt 0.182160 0.361107
vt 0.178935 0.359183
vt 0.177074 0.355886
vt 0.177073 0.352100
vt 0.178935 0.348839
vt 0.182160 0.346977
vt 0.185884 0.347013
vt 0.083439 0.986492
vt 0.083438 0.001903
vt 0.086845 0.001644
vt 0.086845 0.986234
vt 0.177073 0.369686
vt 0.178935 0.366390
vt 0.182160 0.364466
vt 0.185884 0.364430
vt 0.189109 0.366292
vt 0.190971 0.369553
vt 0.190971 0.373340
vt 0.189109 0.376636
vt 0.185884 0.378560
vt 0.182160 0.378596
vt 0.178935 0.376733
vt 0.177073 0.373472
s 0
usemtl exp_B6_final
f 1/1/1 2/2/1 4/3/1 3/4/1
f 3/5/2 4/6/2 6/7/2 5/8/2
f 5/8/3 6/7/3 8/9/3 7/10/3
f 7/10/4 8/9/4 10/11/4 9/12/4
f 9/13/5 10/14/5 12/15/5 11/16/5
f 11/16/6 12/15/6 14/17/6 13/18/6
f 13/19/7 14/20/7 16/21/7 15/22/7
f 15/22/8 16/21/8 18/23/8 17/24/8
f 4/25/9 2/26/9 20/27/9 18/28/9 16/29/9 14/30/9 12/31/9 10/32/9 8/33/9 6/34/9
f 17/24/10 18/23/10 20/35/10 19/36/10
f 19/37/11 20/38/11 2/2/11 1/1/11
f 1/39/12 3/40/12 5/41/12 7/42/12 9/43/12 11/44/12 13/45/12 15/46/12 17/47/12 19/48/12
f 21/49/13 22/50/13 24/51/13 23/52/13
f 23/53/14 24/54/14 26/55/14 25/56/14
f 25/56/15 26/55/15 28/57/15 27/58/15
f 27/58/16 28/57/16 30/59/16 29/60/16
f 29/61/17 30/62/17 32/63/17 31/64/17
f 31/64/18 32/63/18 34/65/18 33/66/18
f 33/67/19 34/68/19 36/69/19 35/70/19
f 35/70/20 36/69/20 38/71/20 37/72/20
f 24/73/21 22/74/21 40/75/21 38/76/21 36/77/21 34/78/21 32/79/21 30/80/21 28/81/21 26/82/21
f 37/72/22 38/71/22 40/83/22 39/84/22
f 39/85/23 40/86/23 22/50/23 21/49/23
f 21/87/24 23/88/24 25/89/24 27/90/24 29/91/24 31/92/24 33/93/24 35/94/24 37/95/24 39/96/24
f 41/97/25 42/98/25 44/99/25 43/100/25
f 43/101/26 44/102/26 46/103/26 45/104/26
f 45/104/27 46/103/27 48/105/27 47/106/27
f 47/107/28 48/108/28 50/109/28 49/110/28
f 49/111/29 50/112/29 52/113/29 51/114/29
f 51/114/30 52/113/30 54/115/30 53/116/30
f 53/117/31 54/118/31 56/119/31 55/120/31
f 55/120/32 56/119/32 58/121/32 57/122/32
f 44/123/33 42/124/33 60/125/33 58/126/33 56/127/33 54/115/33 52/113/33 50/112/33 48/128/33 46/129/33
f 57/130/34 58/131/34 60/132/34 59/133/34
f 59/134/35 60/135/35 42/98/35 41/97/35
f 41/97/36 43/100/36 45/136/36 47/137/36 49/138/36 51/139/36 53/140/36 55/141/36 57/142/36 59/134/36
f 61/143/37 62/144/37 64/145/37 63/146/37
f 63/146/38 64/145/38 66/147/38 65/148/38
f 65/149/39 66/150/39 68/151/39 67/152/39
f 67/152/40 68/151/40 70/153/40 69/154/40
f 69/154/41 70/153/41 72/155/41 71/156/41
f 71/157/42 72/158/42 74/159/42 73/160/42
f 73/160/43 74/159/43 76/161/43 75/162/43
f 75/162/44 76/161/44 78/163/44 77/164/44
f 77/165/45 78/166/45 80/167/45 79/168/45
f 79/168/46 80/167/46 82/169/46 81/170/46
f 64/171/47 62/172/47 84/173/47 82/174/47 80/175/47 78/176/47 76/177/47 74/178/47 72/179/47 70/180/47 68/181/47 66/182/47
f 81/170/48 82/169/48 84/183/48 83/184/48
f 83/185/49 84/186/49 62/144/49 61/143/49
f 61/187/50 63/188/50 65/189/50 67/190/50 69/191/50 71/192/50 73/193/50 75/194/50 77/195/50 79/196/50 81/197/50 83/198/50
f 85/199/51 86/200/51 88/201/51 87/202/51
f 87/202/52 88/201/52 90/203/52 89/204/52
f 89/204/53 90/203/53 92/205/53 91/206/53
f 91/207/54 92/208/54 94/209/54 93/210/54
f 93/210/55 94/209/55 96/211/55 95/212/55
f 95/212/56 96/211/56 98/213/56 97/214/56
f 97/215/57 98/216/57 100/217/57 99/218/57
f 99/218/58 100/217/58 102/219/58 101/220/58
f 101/220/59 102/219/59 104/221/59 103/222/59
f 103/223/60 104/224/60 106/225/60 105/226/60
f 88/227/61 86/228/61 108/229/61 106/230/61 104/231/61 102/232/61 100/233/61 98/234/61 96/235/61 94/236/61 92/237/61 90/238/61
f 105/226/62 106/225/62 108/239/62 107/240/62
f 107/240/63 108/239/63 86/241/63 85/242/63
f 85/243/64 87/244/64 89/245/64 91/246/64 93/247/64 95/248/64 97/249/64 99/250/64 101/251/64 103/252/64 105/253/64 107/254/64
f 109/255/65 110/256/65 112/257/65 111/258/65
f 111/259/66 112/260/66 114/261/66 113/262/66
f 113/262/67 114/261/67 116/263/67 115/264/67
f 115/264/68 116/263/68 118/265/68 117/266/68
f 117/267/69 118/268/69 120/269/69 119/270/69
f 119/270/70 120/269/70 122/271/70 121/272/70
f 121/272/71 122/271/71 124/273/71 123/274/71
f 123/275/72 124/276/72 126/277/72 125/278/72
f 125/278/73 126/277/73 128/279/73 127/280/73
f 127/280/74 128/279/74 130/281/74 129/282/74
f 112/283/75 110/284/75 132/285/75 130/286/75 128/287/75 126/288/75 124/289/75 122/290/75 120/291/75 118/292/75 116/293/75 114/294/75
f 129/295/76 130/296/76 132/297/76 131/298/76
f 131/298/77 132/297/77 110/256/77 109/255/77
f 109/299/78 111/300/78 113/301/78 115/302/78 117/303/78 119/304/78 121/305/78 123/306/78 125/307/78 127/308/78 129/309/78 131/310/78
