# Blender 5.1.1
# www.blender.org
mtllib C1_table_final.mtl
o C1_table_final.001
v -0.735000 -0.300000 0.665000
v -0.735000 -0.300000 0.715000
v -0.735000 0.300000 0.665000
v -0.735000 0.300000 0.715000
v -0.715000 -0.300000 0.665000
v -0.715000 -0.300000 0.715000
v -0.715000 0.300000 0.665000
v -0.715000 0.300000 0.715000
v 0.715000 -0.300000 0.665000
v 0.715000 -0.300000 0.715000
v 0.715000 0.300000 0.665000
v 0.715000 0.300000 0.715000
v 0.735000 -0.300000 0.665000
v 0.735000 -0.300000 0.715000
v 0.735000 0.300000 0.665000
v 0.735000 0.300000 0.715000
v -0.700000 -0.335000 0.665000
v -0.700000 -0.335000 0.715000
v -0.700000 -0.315000 0.665000
v -0.700000 -0.315000 0.715000
v 0.700000 -0.335000 0.665000
v 0.700000 -0.335000 0.715000
v 0.700000 -0.315000 0.665000
v 0.700000 -0.315000 0.715000
v -0.700000 0.315000 0.665000
v -0.700000 0.315000 0.715000
v -0.700000 0.335000 0.665000
v -0.700000 0.335000 0.715000
v 0.700000 0.315000 0.665000
v 0.700000 0.315000 0.715000
v 0.700000 0.335000 0.665000
v 0.700000 0.335000 0.715000
v -0.747500 -0.347500 0.000000
v -0.747500 -0.347500 0.715000
v -0.747500 -0.302500 0.000000
v -0.747500 -0.302500 0.715000
v -0.702500 -0.347500 0.000000
v -0.702500 -0.347500 0.715000
v -0.702500 -0.302500 0.000000
v -0.702500 -0.302500 0.715000
v -0.747500 0.302500 0.000000
v -0.747500 0.302500 0.715000
v -0.747500 0.347500 0.000000
v -0.747500 0.347500 0.715000
v -0.702500 0.302500 0.000000
v -0.702500 0.302500 0.715000
v -0.702500 0.347500 0.000000
v -0.702500 0.347500 0.715000
v 0.702500 -0.347500 0.000000
v 0.702500 -0.347500 0.715000
v 0.702500 -0.302500 0.000000
v 0.702500 -0.302500 0.715000
v 0.747500 -0.347500 0.000000
v 0.747500 -0.347500 0.715000
v 0.747500 -0.302500 0.000000
v 0.747500 -0.302500 0.715000
v 0.702500 0.302500 0.000000
v 0.702500 0.302500 0.715000
v 0.702500 0.347500 0.000000
v 0.702500 0.347500 0.715000
v 0.747500 0.302500 0.000000
v 0.747500 0.302500 0.715000
v 0.747500 0.347500 0.000000
v 0.747500 0.347500 0.715000
v -0.800000 -0.400000 0.715000
v -0.800000 -0.400000 0.740000
v -0.800000 0.400000 0.715000
v -0.800000 0.400000 0.740000
v 0.800000 -0.400000 0.715000
v 0.800000 -0.400000 0.740000
v 0.800000 0.400000 0.715000
v 0.800000 0.400000 0.740000
vn -1.0000 -0.0000 -0.0000
vn -0.0000 1.0000 -0.0000
vn 1.0000 -0.0000 -0.0000
vn -0.0000 -1.0000 -0.0000
vn -0.0000 -0.0000 -1.0000
vn -0.0000 -0.0000 1.0000
vt 0.926688 0.562528
vt 0.905743 0.562528
vt 0.905743 0.311186
vt 0.926688 0.311186
vt 0.474281 0.702860
vt 0.474281 0.681915
vt 0.482659 0.681915
vt 0.482659 0.702860
vt 0.131361 0.933257
vt 0.110416 0.933257
vt 0.110416 0.681915
vt 0.131361 0.681915
vt 0.490440 0.702860
vt 0.490440 0.681915
vt 0.498818 0.681915
vt 0.498818 0.702860
vt 0.204972 0.933257
vt 0.196594 0.933257
vt 0.196594 0.681915
vt 0.204972 0.681915
vt 0.221131 0.933257
vt 0.212753 0.933257
vt 0.212753 0.681915
vt 0.221131 0.681915
vt 0.160087 0.933257
vt 0.139142 0.933257
vt 0.139142 0.681915
vt 0.160087 0.681915
vt 0.506599 0.702860
vt 0.506599 0.681915
vt 0.514977 0.681915
vt 0.514977 0.702860
vt 0.188813 0.933257
vt 0.167868 0.933257
vt 0.167868 0.681915
vt 0.188813 0.681915
vt 0.522758 0.702860
vt 0.522758 0.681915
vt 0.531136 0.681915
vt 0.531136 0.702860
vt 0.237290 0.933257
vt 0.228912 0.933257
vt 0.228912 0.681915
vt 0.237290 0.681915
vt 0.253449 0.933257
vt 0.245071 0.933257
vt 0.245071 0.681915
vt 0.253449 0.681915
vt 0.538917 0.702860
vt 0.538917 0.681915
vt 0.547295 0.681915
vt 0.547295 0.702860
vt 0.710641 0.590354
vt 0.689696 0.590354
vt 0.689696 0.003890
vt 0.710641 0.003890
vt 0.555076 0.702860
vt 0.555076 0.681915
vt 0.563454 0.681915
vt 0.563454 0.702860
vt 0.739367 0.590354
vt 0.718422 0.590354
vt 0.718422 0.003890
vt 0.739367 0.003890
vt 0.849485 0.003890
vt 0.849485 0.590354
vt 0.841107 0.590354
vt 0.841107 0.003890
vt 0.881803 0.003890
vt 0.881803 0.590354
vt 0.873425 0.590354
vt 0.873425 0.003890
vt 0.571235 0.702860
vt 0.571235 0.681915
vt 0.579613 0.681915
vt 0.579613 0.702860
vt 0.768093 0.590354
vt 0.747148 0.590354
vt 0.747148 0.003890
vt 0.768093 0.003890
vt 0.587394 0.702860
vt 0.587394 0.681915
vt 0.595772 0.681915
vt 0.595772 0.702860
vt 0.796819 0.590354
vt 0.775874 0.590354
vt 0.775874 0.003890
vt 0.796819 0.003890
vt 0.897962 0.003890
vt 0.897962 0.590354
vt 0.889584 0.590354
vt 0.889584 0.003890
vt 0.865644 0.003890
vt 0.865644 0.590354
vt 0.857266 0.590354
vt 0.857266 0.003890
vt 0.841107 0.897650
vt 0.841107 0.598135
vt 0.859958 0.598135
vt 0.859958 0.897650
vt 0.003890 0.981430
vt 0.003890 0.681915
vt 0.022741 0.681915
vt 0.022741 0.981430
vt 0.867738 0.897650
vt 0.867738 0.598135
vt 0.886589 0.598135
vt 0.886589 0.897650
vt 0.030522 0.981430
vt 0.030522 0.681915
vt 0.049372 0.681915
vt 0.049372 0.981430
vt 0.386606 0.700766
vt 0.367756 0.700766
vt 0.367756 0.681915
vt 0.386606 0.681915
vt 0.413238 0.700766
vt 0.394387 0.700766
vt 0.394387 0.681915
vt 0.413238 0.681915
vt 0.894370 0.897650
vt 0.894370 0.598135
vt 0.913220 0.598135
vt 0.913220 0.897650
vt 0.057153 0.981430
vt 0.057153 0.681915
vt 0.076004 0.681915
vt 0.076004 0.981430
vt 0.905743 0.303406
vt 0.905743 0.003890
vt 0.924593 0.003890
vt 0.924593 0.303406
vt 0.083785 0.981430
vt 0.083785 0.681915
vt 0.102635 0.681915
vt 0.102635 0.981430
vt 0.439869 0.700766
vt 0.421019 0.700766
vt 0.421019 0.681915
vt 0.439869 0.681915
vt 0.466501 0.700766
vt 0.447650 0.700766
vt 0.447650 0.681915
vt 0.466501 0.681915
vt 0.921001 0.897650
vt 0.921001 0.598135
vt 0.939852 0.598135
vt 0.939852 0.897650
vt 0.689696 0.897650
vt 0.689696 0.598135
vt 0.708547 0.598135
vt 0.708547 0.897650
vt 0.932374 0.303406
vt 0.932374 0.003890
vt 0.951225 0.003890
vt 0.951225 0.303406
vt 0.716328 0.897650
vt 0.716328 0.598135
vt 0.735178 0.598135
vt 0.735178 0.897650
vt 0.280080 0.681915
vt 0.280080 0.700766
vt 0.261230 0.700766
vt 0.261230 0.681915
vt 0.306712 0.681915
vt 0.306712 0.700766
vt 0.287861 0.700766
vt 0.287861 0.681915
vt 0.947633 0.897650
vt 0.947633 0.598135
vt 0.966483 0.598135
vt 0.966483 0.897650
vt 0.742959 0.897650
vt 0.742959 0.598135
vt 0.761810 0.598135
vt 0.761810 0.897650
vt 0.959006 0.303406
vt 0.959006 0.003890
vt 0.977856 0.003890
vt 0.977856 0.303406
vt 0.777969 0.897650
vt 0.777969 0.598135
vt 0.796819 0.598135
vt 0.796819 0.897650
vt 0.333343 0.681915
vt 0.333343 0.700766
vt 0.314493 0.700766
vt 0.314493 0.681915
vt 0.359975 0.681915
vt 0.359975 0.700766
vt 0.341124 0.700766
vt 0.341124 0.681915
vt 0.984737 0.933257
vt 0.974264 0.933257
vt 0.974264 0.598135
vt 0.984737 0.598135
vt 0.815073 0.674134
vt 0.804600 0.674134
vt 0.804600 0.003890
vt 0.815073 0.003890
vt 0.996110 0.339012
vt 0.985637 0.339012
vt 0.985637 0.003890
vt 0.996110 0.003890
vt 0.833326 0.674134
vt 0.822854 0.674134
vt 0.822854 0.003890
vt 0.833326 0.003890
vt 0.339012 0.003890
vt 0.339012 0.674134
vt 0.003890 0.674134
vt 0.003890 0.003890
vt 0.681915 0.003890
vt 0.681915 0.674134
vt 0.346793 0.674134
vt 0.346793 0.003890
s 0
usemtl exp_C1_table_final
f 1/1/1 2/2/1 4/3/1 3/4/1
f 3/5/2 4/6/2 8/7/2 7/8/2
f 7/9/3 8/10/3 6/11/3 5/12/3
f 5/13/4 6/14/4 2/15/4 1/16/4
f 3/17/5 7/18/5 5/19/5 1/20/5
f 8/21/6 4/22/6 2/23/6 6/24/6
f 9/25/1 10/26/1 12/27/1 11/28/1
f 11/29/2 12/30/2 16/31/2 15/32/2
f 15/33/3 16/34/3 14/35/3 13/36/3
f 13/37/4 14/38/4 10/39/4 9/40/4
f 11/41/5 15/42/5 13/43/5 9/44/5
f 16/45/6 12/46/6 10/47/6 14/48/6
f 17/49/1 18/50/1 20/51/1 19/52/1
f 19/53/2 20/54/2 24/55/2 23/56/2
f 23/57/3 24/58/3 22/59/3 21/60/3
f 21/61/4 22/62/4 18/63/4 17/64/4
f 19/65/5 23/66/5 21/67/5 17/68/5
f 24/69/6 20/70/6 18/71/6 22/72/6
f 25/73/1 26/74/1 28/75/1 27/76/1
f 27/77/2 28/78/2 32/79/2 31/80/2
f 31/81/3 32/82/3 30/83/3 29/84/3
f 29/85/4 30/86/4 26/87/4 25/88/4
f 27/89/5 31/90/5 29/91/5 25/92/5
f 32/93/6 28/94/6 26/95/6 30/96/6
f 33/97/1 34/98/1 36/99/1 35/100/1
f 35/101/2 36/102/2 40/103/2 39/104/2
f 39/105/3 40/106/3 38/107/3 37/108/3
f 37/109/4 38/110/4 34/111/4 33/112/4
f 35/113/5 39/114/5 37/115/5 33/116/5
f 40/117/6 36/118/6 34/119/6 38/120/6
f 41/121/1 42/122/1 44/123/1 43/124/1
f 43/125/2 44/126/2 48/127/2 47/128/2
f 47/129/3 48/130/3 46/131/3 45/132/3
f 45/133/4 46/134/4 42/135/4 41/136/4
f 43/137/5 47/138/5 45/139/5 41/140/5
f 48/141/6 44/142/6 42/143/6 46/144/6
f 49/145/1 50/146/1 52/147/1 51/148/1
f 51/149/2 52/150/2 56/151/2 55/152/2
f 55/153/3 56/154/3 54/155/3 53/156/3
f 53/157/4 54/158/4 50/159/4 49/160/4
f 51/161/5 55/162/5 53/163/5 49/164/5
f 56/165/6 52/166/6 50/167/6 54/168/6
f 57/169/1 58/170/1 60/171/1 59/172/1
f 59/173/2 60/174/2 64/175/2 63/176/2
f 63/177/3 64/178/3 62/179/3 61/180/3
f 61/181/4 62/182/4 58/183/4 57/184/4
f 59/185/5 63/186/5 61/187/5 57/188/5
f 64/189/6 60/190/6 58/191/6 62/192/6
f 65/193/1 66/194/1 68/195/1 67/196/1
f 67/197/2 68/198/2 72/199/2 71/200/2
f 71/201/3 72/202/3 70/203/3 69/204/3
f 69/205/4 70/206/4 66/207/4 65/208/4
f 67/209/5 71/210/5 69/211/5 65/212/5
f 72/213/6 68/214/6 66/215/6 70/216/6
