# Blender 5.1.1
# www.blender.org
mtllib D3_final.mtl
o D3_final.001
v -0.000000 0.183500 0.000000
v -0.000000 0.183500 0.380000
v 0.035603 0.179488 0.000000
v 0.035603 0.179488 0.380000
v 0.069421 0.167655 0.000000
v 0.069421 0.167655 0.380000
v 0.099758 0.148593 0.000000
v 0.099758 0.148593 0.380000
v 0.125093 0.123258 0.000000
v 0.125093 0.123258 0.380000
v 0.144155 0.092921 0.000000
v 0.144155 0.092921 0.380000
v 0.155988 0.059103 0.000000
v 0.155988 0.059103 0.380000
v 0.160000 0.023500 0.000000
v 0.160000 0.023500 0.380000
v 0.155988 -0.012103 0.000000
v 0.155988 -0.012103 0.380000
v 0.144155 -0.045921 0.000000
v 0.144155 -0.045921 0.380000
v 0.125093 -0.076258 0.000000
v 0.125093 -0.076258 0.380000
v 0.099758 -0.101593 0.000000
v 0.099758 -0.101593 0.380000
v 0.069421 -0.120655 0.000000
v 0.069421 -0.120655 0.380000
v 0.035603 -0.132488 0.000000
v 0.035603 -0.132488 0.380000
v -0.000000 -0.136500 0.000000
v -0.000000 -0.136500 0.380000
v -0.035604 -0.132488 0.000000
v -0.035604 -0.132488 0.380000
v -0.069422 -0.120655 0.000000
v -0.069422 -0.120655 0.380000
v -0.099759 -0.101593 0.000000
v -0.099759 -0.101593 0.380000
v -0.125093 -0.076258 0.000000
v -0.125093 -0.076258 0.380000
v -0.144156 -0.045921 0.000000
v -0.144156 -0.045921 0.380000
v -0.155989 -0.012103 0.000000
v -0.155989 -0.012103 0.380000
v -0.160001 0.023500 0.000000
v -0.160001 0.023500 0.380000
v -0.155989 0.059103 0.000000
v -0.155989 0.059103 0.380000
v -0.144156 0.092921 0.000000
v -0.144156 0.092921 0.380000
v -0.125093 0.123258 0.000000
v -0.125093 0.123258 0.380000
v -0.099759 0.148593 0.000000
v -0.099759 0.148593 0.380000
v -0.069422 0.167655 0.000000
v -0.069422 0.167655 0.380000
v -0.035604 0.179488 0.000000
v -0.035604 0.179488 0.380000
v -0.000000 0.043500 0.415000
v -0.000000 0.043500 0.435000
v 0.006840 0.042294 0.415000
v 0.006840 0.042294 0.435000
v 0.012855 0.038821 0.415000
v 0.012855 0.038821 0.435000
v 0.017320 0.033500 0.415000
v 0.017320 0.033500 0.435000
v 0.019696 0.026973 0.415000
v 0.019696 0.026973 0.435000
v 0.019696 0.020027 0.415000
v 0.019696 0.020027 0.435000
v 0.017320 0.013500 0.415000
v 0.017320 0.013500 0.435000
v 0.012855 0.008179 0.415000
v 0.012855 0.008179 0.435000
v 0.006840 0.004706 0.415000
v 0.006840 0.004706 0.435000
v -0.000000 0.003500 0.415000
v -0.000000 0.003500 0.435000
v -0.006841 0.004706 0.415000
v -0.006841 0.004706 0.435000
v -0.012856 0.008179 0.415000
v -0.012856 0.008179 0.435000
v -0.017321 0.013500 0.415000
v -0.017321 0.013500 0.435000
v -0.019697 0.020027 0.415000
v -0.019697 0.020027 0.435000
v -0.019697 0.026973 0.415000
v -0.019697 0.026973 0.435000
v -0.017321 0.033500 0.415000
v -0.017321 0.033500 0.435000
v -0.012856 0.038821 0.415000
v -0.012856 0.038821 0.435000
v -0.006841 0.042294 0.415000
v -0.006841 0.042294 0.435000
v -0.000000 0.188500 0.380000
v -0.000000 0.188500 0.410000
v 0.036716 0.184363 0.380000
v 0.036716 0.184363 0.410000
v 0.071590 0.172160 0.380000
v 0.071590 0.172160 0.410000
v 0.102875 0.152502 0.380000
v 0.102875 0.152502 0.410000
v 0.129002 0.126376 0.380000
v 0.129002 0.126376 0.410000
v 0.148659 0.095091 0.380000
v 0.148659 0.095091 0.410000
v 0.160863 0.060216 0.380000
v 0.160863 0.060216 0.410000
v 0.164999 0.023500 0.380000
v 0.164999 0.023500 0.410000
v 0.160863 -0.013216 0.380000
v 0.160863 -0.013216 0.410000
v 0.148659 -0.048091 0.380000
v 0.148659 -0.048091 0.410000
v 0.129002 -0.079376 0.380000
v 0.129002 -0.079376 0.410000
v 0.102875 -0.105502 0.380000
v 0.102875 -0.105502 0.410000
v 0.071590 -0.125160 0.380000
v 0.071590 -0.125160 0.410000
v 0.036716 -0.137363 0.380000
v 0.036716 -0.137363 0.410000
v -0.000000 -0.141500 0.380000
v -0.000000 -0.141500 0.410000
v -0.036716 -0.137363 0.380000
v -0.036716 -0.137363 0.410000
v -0.071591 -0.125160 0.380000
v -0.071591 -0.125160 0.410000
v -0.102876 -0.105502 0.380000
v -0.102876 -0.105502 0.410000
v -0.129003 -0.079376 0.380000
v -0.129003 -0.079376 0.410000
v -0.148660 -0.048091 0.380000
v -0.148660 -0.048091 0.410000
v -0.160864 -0.013216 0.380000
v -0.160864 -0.013216 0.410000
v -0.165000 0.023500 0.380000
v -0.165000 0.023500 0.410000
v -0.160864 0.060216 0.380000
v -0.160864 0.060216 0.410000
v -0.148660 0.095091 0.380000
v -0.148660 0.095091 0.410000
v -0.129003 0.126376 0.380000
v -0.129003 0.126376 0.410000
v -0.102876 0.152502 0.380000
v -0.102876 0.152502 0.410000
v -0.071591 0.172160 0.380000
v -0.071591 0.172160 0.410000
v -0.036716 0.184363 0.380000
v -0.036716 0.184363 0.410000
v -0.050000 -0.191500 0.010000
v -0.050000 -0.191500 0.030000
v -0.050000 -0.131500 0.010000
v -0.050000 -0.131500 0.030000
v 0.049999 -0.191500 0.010000
v 0.049999 -0.191500 0.030000
v 0.049999 -0.131500 0.010000
v 0.049999 -0.131500 0.030000
v -0.000000 0.191500 0.404000
v -0.000000 0.191500 0.416000
v 0.057459 0.181368 0.404000
v 0.057459 0.181368 0.416000
v 0.107988 0.152195 0.404000
v 0.107988 0.152195 0.416000
v 0.145492 0.107500 0.404000
v 0.145492 0.107500 0.416000
v 0.165447 0.052673 0.404000
v 0.165447 0.052673 0.416000
v 0.165447 -0.005673 0.404000
v 0.165447 -0.005673 0.416000
v 0.145492 -0.060500 0.404000
v 0.145492 -0.060500 0.416000
v 0.107988 -0.105195 0.404000
v 0.107988 -0.105195 0.416000
v 0.057459 -0.134368 0.404000
v 0.057459 -0.134368 0.416000
v -0.000000 -0.144500 0.404000
v -0.000000 -0.144500 0.416000
v -0.057460 -0.134368 0.404000
v -0.057460 -0.134368 0.416000
v -0.107989 -0.105195 0.404000
v -0.107989 -0.105195 0.416000
v -0.145493 -0.060500 0.404000
v -0.145493 -0.060500 0.416000
v -0.165448 -0.005673 0.404000
v -0.165448 -0.005673 0.416000
v -0.165448 0.052673 0.404000
v -0.165448 0.052673 0.416000
v -0.145493 0.107500 0.404000
v -0.145493 0.107500 0.416000
v -0.107989 0.152195 0.404000
v -0.107989 0.152195 0.416000
v -0.057460 0.181368 0.404000
v -0.057460 0.181368 0.416000
vn -0.0000 0.7306 -0.6828
vn -0.0000 0.7306 0.6828
vn 0.1626 0.7123 0.6828
vn 0.1626 0.7123 -0.6828
vn 0.3170 0.6583 0.6828
vn 0.3170 0.6583 -0.6828
vn 0.4555 0.5712 0.6828
vn 0.4555 0.5712 -0.6828
vn 0.5712 0.4555 0.6828
vn 0.5712 0.4555 -0.6828
vn 0.6583 0.3170 0.6828
vn 0.6583 0.3170 -0.6828
vn 0.7123 0.1626 0.6828
vn 0.7123 0.1626 -0.6828
vn 0.7306 -0.0000 0.6828
vn 0.7306 -0.0000 -0.6828
vn 0.7123 -0.1626 0.6828
vn 0.7123 -0.1626 -0.6828
vn 0.6583 -0.3170 0.6828
vn 0.6583 -0.3170 -0.6828
vn 0.5712 -0.4555 0.6828
vn 0.5712 -0.4555 -0.6828
vn 0.4555 -0.5712 0.6828
vn 0.4555 -0.5712 -0.6828
vn 0.3170 -0.6583 0.6828
vn 0.3170 -0.6583 -0.6828
vn 0.1626 -0.7123 0.6828
vn 0.1626 -0.7123 -0.6828
vn -0.0000 -0.7306 0.6828
vn -0.0000 -0.7306 -0.6828
vn -0.1626 -0.7123 0.6828
vn -0.1626 -0.7123 -0.6828
vn -0.3170 -0.6583 0.6828
vn -0.3170 -0.6583 -0.6828
vn -0.4555 -0.5712 0.6828
vn -0.4555 -0.5712 -0.6828
vn -0.5712 -0.4555 0.6828
vn -0.5712 -0.4555 -0.6828
vn -0.6583 -0.3170 0.6828
vn -0.6583 -0.3170 -0.6828
vn -0.7123 -0.1626 0.6828
vn -0.7123 -0.1626 -0.6828
vn -0.7306 -0.0000 0.6828
vn -0.7306 -0.0000 -0.6828
vn -0.7123 0.1626 0.6828
vn -0.7123 0.1626 -0.6828
vn -0.6583 0.3170 0.6828
vn -0.6583 0.3170 -0.6828
vn -0.5712 0.4555 0.6828
vn -0.5712 0.4555 -0.6828
vn -0.4555 0.5712 0.6828
vn -0.4555 0.5712 -0.6828
vn -0.3170 0.6583 0.6828
vn -0.3170 0.6583 -0.6828
vn -0.1626 0.7123 0.6828
vn -0.1626 0.7123 -0.6828
vn -0.0000 0.7423 -0.6700
vn -0.0000 0.7423 0.6700
vn 0.2539 0.6976 0.6700
vn 0.2539 0.6976 -0.6700
vn 0.4772 0.5687 0.6700
vn 0.4772 0.5687 -0.6700
vn 0.6429 0.3712 0.6700
vn 0.6429 0.3712 -0.6700
vn 0.7311 0.1289 0.6700
vn 0.7311 0.1289 -0.6700
vn 0.7311 -0.1289 0.6700
vn 0.7311 -0.1289 -0.6700
vn 0.6429 -0.3712 0.6700
vn 0.6429 -0.3712 -0.6700
vn 0.4772 -0.5687 0.6700
vn 0.4772 -0.5687 -0.6700
vn 0.2539 -0.6976 0.6700
vn 0.2539 -0.6976 -0.6700
vn -0.0000 -0.7423 0.6700
vn -0.0000 -0.7423 -0.6700
vn -0.2539 -0.6976 0.6700
vn -0.2539 -0.6976 -0.6700
vn -0.4772 -0.5687 0.6700
vn -0.4772 -0.5687 -0.6700
vn -0.6429 -0.3712 0.6700
vn -0.6429 -0.3712 -0.6700
vn -0.7311 -0.1289 0.6700
vn -0.7311 -0.1289 -0.6700
vn -0.7311 0.1289 0.6700
vn -0.7311 0.1289 -0.6700
vn -0.6429 0.3712 0.6700
vn -0.6429 0.3712 -0.6700
vn -0.4772 0.5687 0.6700
vn -0.4772 0.5687 -0.6700
vn -0.2539 0.6976 0.6700
vn -0.2539 0.6976 -0.6700
vn 0.5712 0.4556 0.6828
vn 0.5712 0.4556 -0.6828
vn 0.5712 -0.4556 0.6828
vn 0.5712 -0.4556 -0.6828
vn -0.4556 -0.5712 0.6828
vn -0.4556 -0.5712 -0.6828
vn -0.4556 0.5712 0.6828
vn -0.4556 0.5712 -0.6828
vn -1.0000 -0.0000 -0.0000
vn -0.0000 1.0000 -0.0000
vn 1.0000 -0.0000 -0.0000
vn -0.0000 -1.0000 -0.0000
vn -0.0000 -0.0000 -1.0000
vn -0.0000 -0.0000 1.0000
vt 0.913877 0.603729
vt 0.913877 0.288803
vt 0.943384 0.288803
vt 0.943384 0.603729
vt 0.971410 0.288803
vt 0.971410 0.603729
vt 0.996552 0.288803
vt 0.996552 0.603729
vt 0.003448 0.882392
vt 0.003448 0.567467
vt 0.024444 0.567467
vt 0.024444 0.882392
vt 0.049586 0.567467
vt 0.049586 0.882392
vt 0.077612 0.567467
vt 0.077612 0.882392
vt 0.107119 0.567467
vt 0.107119 0.882392
vt 0.136625 0.567467
vt 0.136625 0.882392
vt 0.164652 0.567467
vt 0.164652 0.882392
vt 0.189793 0.567467
vt 0.189793 0.882392
vt 0.210790 0.567467
vt 0.210790 0.882392
vt 0.831203 0.925549
vt 0.831203 0.610624
vt 0.856344 0.610624
vt 0.856344 0.925549
vt 0.884371 0.610624
vt 0.884371 0.925549
vt 0.913877 0.610624
vt 0.913877 0.925549
vt 0.943384 0.610624
vt 0.943384 0.925549
vt 0.971410 0.610624
vt 0.971410 0.925549
vt 0.996552 0.610624
vt 0.996552 0.925549
vt 0.217685 0.882392
vt 0.217685 0.567467
vt 0.238681 0.567467
vt 0.238681 0.882392
vt 0.263823 0.567467
vt 0.263823 0.882392
vt 0.291850 0.567467
vt 0.291850 0.882392
vt 0.321356 0.567467
vt 0.321356 0.882392
vt 0.350862 0.567467
vt 0.350862 0.882392
vt 0.378889 0.567467
vt 0.378889 0.882392
vt 0.404031 0.567467
vt 0.404031 0.882392
vt 0.425027 0.567467
vt 0.425027 0.882392
vt 0.831203 0.603729
vt 0.831203 0.288803
vt 0.856344 0.288803
vt 0.856344 0.603729
vt 0.621993 0.532846
vt 0.598778 0.514332
vt 0.580265 0.491118
vt 0.567382 0.464365
vt 0.560774 0.435416
vt 0.560774 0.405723
vt 0.567382 0.376775
vt 0.580265 0.350022
vt 0.598778 0.326807
vt 0.621993 0.308294
vt 0.648746 0.295411
vt 0.677694 0.288803
vt 0.707387 0.288803
vt 0.736336 0.295411
vt 0.763088 0.308294
vt 0.786303 0.326807
vt 0.804817 0.350022
vt 0.817700 0.376775
vt 0.824307 0.405723
vt 0.824307 0.435416
vt 0.817700 0.464365
vt 0.804817 0.491117
vt 0.786304 0.514332
vt 0.763089 0.532845
vt 0.736336 0.545729
vt 0.707388 0.552336
vt 0.677695 0.552336
vt 0.648746 0.545729
vt 0.884371 0.288803
vt 0.884371 0.603729
vt 0.598779 0.784760
vt 0.580265 0.761546
vt 0.567382 0.734793
vt 0.560775 0.705844
vt 0.560775 0.676152
vt 0.567382 0.647203
vt 0.580265 0.620450
vt 0.598778 0.597235
vt 0.621993 0.578722
vt 0.648746 0.565839
vt 0.677694 0.559231
vt 0.707387 0.559231
vt 0.736336 0.565839
vt 0.763088 0.578722
vt 0.786303 0.597235
vt 0.804817 0.620450
vt 0.817700 0.647203
vt 0.824307 0.676151
vt 0.824307 0.705844
vt 0.817700 0.734793
vt 0.804817 0.761545
vt 0.786304 0.784760
vt 0.763089 0.803273
vt 0.736336 0.816157
vt 0.707388 0.822764
vt 0.677695 0.822764
vt 0.648746 0.816157
vt 0.621993 0.803274
vt 0.692729 0.253081
vt 0.676154 0.253081
vt 0.676154 0.247412
vt 0.692729 0.247412
vt 0.676154 0.242426
vt 0.692729 0.242426
vt 0.511509 0.682631
vt 0.494934 0.682631
vt 0.494934 0.678222
vt 0.511509 0.678222
vt 0.494934 0.672812
vt 0.511509 0.672812
vt 0.494934 0.667056
vt 0.511509 0.667056
vt 0.494934 0.661647
vt 0.511509 0.661647
vt 0.494934 0.657237
vt 0.511509 0.657237
vt 0.511509 0.710835
vt 0.494934 0.710835
vt 0.494934 0.705850
vt 0.511509 0.705850
vt 0.494934 0.700181
vt 0.511509 0.700181
vt 0.494934 0.694512
vt 0.511509 0.694512
vt 0.494934 0.689527
vt 0.511509 0.689527
vt 0.534979 0.682631
vt 0.518404 0.682631
vt 0.518404 0.678222
vt 0.534979 0.678222
vt 0.518404 0.672812
vt 0.534979 0.672812
vt 0.518404 0.667056
vt 0.534979 0.667056
vt 0.518404 0.661647
vt 0.534979 0.661647
vt 0.518404 0.657237
vt 0.534979 0.657237
vt 0.582021 0.257314
vt 0.576352 0.256314
vt 0.571367 0.253436
vt 0.567667 0.249026
vt 0.565698 0.243617
vt 0.565698 0.237861
vt 0.567667 0.232451
vt 0.571368 0.228042
vt 0.576353 0.225164
vt 0.582022 0.224164
vt 0.587691 0.225164
vt 0.592676 0.228042
vt 0.596376 0.232452
vt 0.598345 0.237861
vt 0.598345 0.243618
vt 0.596376 0.249027
vt 0.592675 0.253437
vt 0.587690 0.256315
vt 0.692729 0.263735
vt 0.676154 0.263735
vt 0.676154 0.258750
vt 0.692729 0.258750
vt 0.442576 0.689387
vt 0.437591 0.686509
vt 0.433891 0.682099
vt 0.431922 0.676690
vt 0.431922 0.670933
vt 0.433891 0.665524
vt 0.437591 0.661115
vt 0.442577 0.658237
vt 0.448246 0.657237
vt 0.453915 0.658237
vt 0.458900 0.661115
vt 0.462600 0.665525
vt 0.464568 0.670934
vt 0.464568 0.676691
vt 0.462599 0.682100
vt 0.458899 0.686510
vt 0.453914 0.689388
vt 0.448245 0.690387
vt 0.590561 0.110358
vt 0.565698 0.110358
vt 0.565698 0.079930
vt 0.590561 0.079930
vt 0.565698 0.051027
vt 0.590561 0.051027
vt 0.565698 0.025100
vt 0.590561 0.025100
vt 0.565698 0.003448
vt 0.590561 0.003448
vt 0.654076 0.173965
vt 0.629214 0.173965
vt 0.629214 0.148037
vt 0.654076 0.148037
vt 0.629214 0.119134
vt 0.654076 0.119134
vt 0.629214 0.088706
vt 0.654076 0.088706
vt 0.629214 0.058278
vt 0.654076 0.058278
vt 0.629214 0.029375
vt 0.654076 0.029375
vt 0.629214 0.003448
vt 0.654076 0.003448
vt 0.622318 0.217269
vt 0.597456 0.217269
vt 0.597456 0.195617
vt 0.622318 0.195617
vt 0.597456 0.169689
vt 0.622318 0.169689
vt 0.597456 0.140787
vt 0.622318 0.140787
vt 0.597456 0.110358
vt 0.622318 0.110358
vt 0.597456 0.079930
vt 0.622318 0.079930
vt 0.597456 0.051027
vt 0.622318 0.051027
vt 0.597456 0.025100
vt 0.622318 0.025100
vt 0.597456 0.003448
vt 0.622318 0.003448
vt 0.685834 0.173965
vt 0.660972 0.173965
vt 0.660972 0.148037
vt 0.685834 0.148037
vt 0.660972 0.119134
vt 0.685834 0.119135
vt 0.660972 0.088706
vt 0.685834 0.088706
vt 0.660972 0.058278
vt 0.685834 0.058278
vt 0.660972 0.029375
vt 0.685834 0.029375
vt 0.660972 0.003448
vt 0.685834 0.003448
vt 0.590561 0.217269
vt 0.565698 0.217269
vt 0.565698 0.195617
vt 0.590561 0.195617
vt 0.565698 0.169689
vt 0.590561 0.169689
vt 0.066580 0.540472
vt 0.042639 0.521380
vt 0.023547 0.497439
vt 0.010261 0.469851
vt 0.003448 0.439998
vt 0.003448 0.409377
vt 0.010261 0.379524
vt 0.023547 0.351935
vt 0.042639 0.327995
vt 0.066579 0.308903
vt 0.094168 0.295617
vt 0.124021 0.288803
vt 0.154642 0.288803
vt 0.184495 0.295617
vt 0.212084 0.308903
vt 0.236024 0.327995
vt 0.255116 0.351935
vt 0.268402 0.379524
vt 0.275216 0.409377
vt 0.275216 0.439998
vt 0.268402 0.469851
vt 0.255116 0.497439
vt 0.236024 0.521380
vt 0.212084 0.540472
vt 0.184495 0.553758
vt 0.154642 0.560571
vt 0.124021 0.560571
vt 0.094168 0.553758
vt 0.565698 0.140787
vt 0.590561 0.140787
vt 0.321303 0.521380
vt 0.302211 0.497440
vt 0.288925 0.469851
vt 0.282111 0.439998
vt 0.282111 0.409377
vt 0.288925 0.379524
vt 0.302211 0.351935
vt 0.321303 0.327995
vt 0.345243 0.308903
vt 0.372831 0.295617
vt 0.402685 0.288803
vt 0.433306 0.288803
vt 0.463159 0.295617
vt 0.490747 0.308903
vt 0.514688 0.327995
vt 0.533780 0.351935
vt 0.547065 0.379524
vt 0.553879 0.409377
vt 0.553879 0.439998
vt 0.547066 0.469851
vt 0.533780 0.497440
vt 0.514688 0.521380
vt 0.490747 0.540472
vt 0.463159 0.553758
vt 0.433306 0.560571
vt 0.402685 0.560571
vt 0.372832 0.553758
vt 0.345243 0.540472
vt 0.621815 0.273889
vt 0.605240 0.273889
vt 0.605240 0.224164
vt 0.621815 0.224164
vt 0.645789 0.263735
vt 0.629214 0.263735
vt 0.629214 0.180860
vt 0.645789 0.180860
vt 0.488039 0.706962
vt 0.471464 0.706962
vt 0.471464 0.657237
vt 0.488039 0.657237
vt 0.669259 0.263735
vt 0.652684 0.263735
vt 0.652684 0.180860
vt 0.669259 0.180860
vt 0.481647 0.567467
vt 0.481647 0.650342
vt 0.431922 0.650342
vt 0.431922 0.567467
vt 0.538267 0.567467
vt 0.538267 0.650342
vt 0.488542 0.650342
vt 0.488542 0.567467
vt 0.736355 0.092943
vt 0.726410 0.092943
vt 0.726410 0.045324
vt 0.736355 0.045324
vt 0.726410 0.003448
vt 0.736355 0.003448
vt 0.702674 0.216761
vt 0.692729 0.216761
vt 0.692729 0.179719
vt 0.702674 0.179719
vt 0.692729 0.134281
vt 0.702674 0.134281
vt 0.692729 0.085927
vt 0.702674 0.085927
vt 0.692729 0.040489
vt 0.702674 0.040489
vt 0.692729 0.003448
vt 0.702674 0.003448
vt 0.753195 0.182439
vt 0.743250 0.182439
vt 0.743250 0.140563
vt 0.753195 0.140563
vt 0.743250 0.092943
vt 0.753195 0.092943
vt 0.743250 0.045324
vt 0.753195 0.045324
vt 0.743250 0.003448
vt 0.753195 0.003448
vt 0.719515 0.216761
vt 0.709570 0.216761
vt 0.709570 0.179719
vt 0.719515 0.179719
vt 0.709570 0.134281
vt 0.719515 0.134281
vt 0.709570 0.085927
vt 0.719515 0.085927
vt 0.709570 0.040489
vt 0.719515 0.040489
vt 0.709570 0.003448
vt 0.719515 0.003448
vt 0.188182 0.273511
vt 0.140563 0.281908
vt 0.092943 0.273511
vt 0.051067 0.249334
vt 0.019986 0.212293
vt 0.003448 0.166855
vt 0.003448 0.118501
vt 0.019986 0.073063
vt 0.051067 0.036021
vt 0.092943 0.011844
vt 0.140563 0.003448
vt 0.188182 0.011844
vt 0.230058 0.036021
vt 0.261139 0.073063
vt 0.277678 0.118501
vt 0.277678 0.166855
vt 0.261139 0.212293
vt 0.230058 0.249334
vt 0.736355 0.182439
vt 0.726410 0.182439
vt 0.726410 0.140563
vt 0.736355 0.140563
vt 0.421688 0.281908
vt 0.374068 0.273511
vt 0.332192 0.249334
vt 0.301111 0.212293
vt 0.284573 0.166855
vt 0.284573 0.118501
vt 0.301111 0.073063
vt 0.332192 0.036021
vt 0.374068 0.011844
vt 0.421688 0.003448
vt 0.469307 0.011844
vt 0.511183 0.036021
vt 0.542265 0.073063
vt 0.558803 0.118501
vt 0.558803 0.166855
vt 0.542265 0.212293
vt 0.511183 0.249334
vt 0.469307 0.273511
s 1
usemtl exp_D3_final
f 1/1/1 2/2/2 4/3/3 3/4/4
f 3/4/4 4/3/3 6/5/5 5/6/6
f 5/6/6 6/5/5 8/7/7 7/8/8
f 7/9/8 8/10/7 10/11/9 9/12/10
f 9/12/10 10/11/9 12/13/11 11/14/12
f 11/14/12 12/13/11 14/15/13 13/16/14
f 13/16/14 14/15/13 16/17/15 15/18/16
f 15/18/16 16/17/15 18/19/17 17/20/18
f 17/20/18 18/19/17 20/21/19 19/22/20
f 19/22/20 20/21/19 22/23/21 21/24/22
f 21/24/22 22/23/21 24/25/23 23/26/24
f 23/27/24 24/28/23 26/29/25 25/30/26
f 25/30/26 26/29/25 28/31/27 27/32/28
f 27/32/28 28/31/27 30/33/29 29/34/30
f 29/34/30 30/33/29 32/35/31 31/36/32
f 31/36/32 32/35/31 34/37/33 33/38/34
f 33/38/34 34/37/33 36/39/35 35/40/36
f 35/41/36 36/42/35 38/43/37 37/44/38
f 37/44/38 38/43/37 40/45/39 39/46/40
f 39/46/40 40/45/39 42/47/41 41/48/42
f 41/48/42 42/47/41 44/49/43 43/50/44
f 43/50/44 44/49/43 46/51/45 45/52/46
f 45/52/46 46/51/45 48/53/47 47/54/48
f 47/54/48 48/53/47 50/55/49 49/56/50
f 49/56/50 50/55/49 52/57/51 51/58/52
f 51/59/52 52/60/51 54/61/53 53/62/54
f 4/63/3 2/64/2 56/65/55 54/66/53 52/67/51 50/68/49 48/69/47 46/70/45 44/71/43 42/72/41 40/73/39 38/74/37 36/75/35 34/76/33 32/77/31 30/78/29 28/79/27 26/80/25 24/81/23 22/82/21 20/83/19 18/84/17 16/85/15 14/86/13 12/87/11 10/88/9 8/89/7 6/90/5
f 53/62/54 54/61/53 56/91/55 55/92/56
f 55/92/56 56/91/55 2/2/2 1/1/1
f 1/93/1 3/94/4 5/95/6 7/96/8 9/97/10 11/98/12 13/99/14 15/100/16 17/101/18 19/102/20 21/103/22 23/104/24 25/105/26 27/106/28 29/107/30 31/108/32 33/109/34 35/110/36 37/111/38 39/112/40 41/113/42 43/114/44 45/115/46 47/116/48 49/117/50 51/118/52 53/119/54 55/120/56
f 57/121/57 58/122/58 60/123/59 59/124/60
f 59/124/60 60/123/59 62/125/61 61/126/62
f 61/127/62 62/128/61 64/129/63 63/130/64
f 63/130/64 64/129/63 66/131/65 65/132/66
f 65/132/66 66/131/65 68/133/67 67/134/68
f 67/134/68 68/133/67 70/135/69 69/136/70
f 69/136/70 70/135/69 72/137/71 71/138/72
f 71/139/72 72/140/71 74/141/73 73/142/74
f 73/142/74 74/141/73 76/143/75 75/144/76
f 75/144/76 76/143/75 78/145/77 77/146/78
f 77/146/78 78/145/77 80/147/79 79/148/80
f 79/149/80 80/150/79 82/151/81 81/152/82
f 81/152/82 82/151/81 84/153/83 83/154/84
f 83/154/84 84/153/83 86/155/85 85/156/86
f 85/156/86 86/155/85 88/157/87 87/158/88
f 87/158/88 88/157/87 90/159/89 89/160/90
f 60/161/59 58/162/58 92/163/91 90/164/89 88/165/87 86/166/85 84/167/83 82/168/81 80/169/79 78/170/77 76/171/75 74/172/73 72/173/71 70/174/69 68/175/67 66/176/65 64/177/63 62/178/61
f 89/179/90 90/180/89 92/181/91 91/182/92
f 91/182/92 92/181/91 58/122/58 57/121/57
f 57/183/57 59/184/60 61/185/62 63/186/64 65/187/66 67/188/68 69/189/70 71/190/72 73/191/74 75/192/76 77/193/78 79/194/80 81/195/82 83/196/84 85/197/86 87/198/88 89/199/90 91/200/92
f 93/201/1 94/202/2 96/203/3 95/204/4
f 95/204/4 96/203/3 98/205/5 97/206/6
f 97/206/6 98/205/5 100/207/7 99/208/8
f 99/208/8 100/207/7 102/209/93 101/210/94
f 101/211/94 102/212/93 104/213/11 103/214/12
f 103/214/12 104/213/11 106/215/13 105/216/14
f 105/216/14 106/215/13 108/217/15 107/218/16
f 107/218/16 108/217/15 110/219/17 109/220/18
f 109/220/18 110/219/17 112/221/19 111/222/20
f 111/222/20 112/221/19 114/223/95 113/224/96
f 113/225/96 114/226/95 116/227/23 115/228/24
f 115/228/24 116/227/23 118/229/25 117/230/26
f 117/230/26 118/229/25 120/231/27 119/232/28
f 119/232/28 120/231/27 122/233/29 121/234/30
f 121/234/30 122/233/29 124/235/31 123/236/32
f 123/236/32 124/235/31 126/237/33 125/238/34
f 125/238/34 126/237/33 128/239/97 127/240/98
f 127/240/98 128/239/97 130/241/37 129/242/38
f 129/243/38 130/244/37 132/245/39 131/246/40
f 131/246/40 132/245/39 134/247/41 133/248/42
f 133/248/42 134/247/41 136/249/43 135/250/44
f 135/250/44 136/249/43 138/251/45 137/252/46
f 137/252/46 138/251/45 140/253/47 139/254/48
f 139/254/48 140/253/47 142/255/49 141/256/50
f 141/257/50 142/258/49 144/259/99 143/260/100
f 143/260/100 144/259/99 146/261/53 145/262/54
f 96/263/3 94/264/2 148/265/55 146/266/53 144/267/99 142/268/49 140/269/47 138/270/45 136/271/43 134/272/41 132/273/39 130/274/37 128/275/97 126/276/33 124/277/31 122/278/29 120/279/27 118/280/25 116/281/23 114/282/95 112/283/19 110/284/17 108/285/15 106/286/13 104/287/11 102/288/93 100/289/7 98/290/5
f 145/262/54 146/261/53 148/291/55 147/292/56
f 147/292/56 148/291/55 94/202/2 93/201/1
f 93/293/1 95/294/4 97/295/6 99/296/8 101/297/94 103/298/12 105/299/14 107/300/16 109/301/18 111/302/20 113/303/96 115/304/24 117/305/26 119/306/28 121/307/30 123/308/32 125/309/34 127/310/98 129/311/38 131/312/40 133/313/42 135/314/44 137/315/46 139/316/48 141/317/50 143/318/100 145/319/54 147/320/56
s 0
f 149/321/101 150/322/101 152/323/101 151/324/101
f 151/325/102 152/326/102 156/327/102 155/328/102
f 155/329/103 156/330/103 154/331/103 153/332/103
f 153/333/104 154/334/104 150/335/104 149/336/104
f 151/337/105 155/338/105 153/339/105 149/340/105
f 156/341/106 152/342/106 150/343/106 154/344/106
s 1
f 157/345/57 158/346/58 160/347/59 159/348/60
f 159/348/60 160/347/59 162/349/61 161/350/62
f 161/351/62 162/352/61 164/353/63 163/354/64
f 163/354/64 164/353/63 166/355/65 165/356/66
f 165/356/66 166/355/65 168/357/67 167/358/68
f 167/358/68 168/357/67 170/359/69 169/360/70
f 169/360/70 170/359/69 172/361/71 171/362/72
f 171/363/72 172/364/71 174/365/73 173/366/74
f 173/366/74 174/365/73 176/367/75 175/368/76
f 175/368/76 176/367/75 178/369/77 177/370/78
f 177/370/78 178/369/77 180/371/79 179/372/80
f 179/373/80 180/374/79 182/375/81 181/376/82
f 181/376/82 182/375/81 184/377/83 183/378/84
f 183/378/84 184/377/83 186/379/85 185/380/86
f 185/380/86 186/379/85 188/381/87 187/382/88
f 187/382/88 188/381/87 190/383/89 189/384/90
f 160/385/59 158/386/58 192/387/91 190/388/89 188/389/87 186/390/85 184/391/83 182/392/81 180/393/79 178/394/77 176/395/75 174/396/73 172/397/71 170/398/69 168/399/67 166/400/65 164/401/63 162/402/61
f 189/403/90 190/404/89 192/405/91 191/406/92
f 191/406/92 192/405/91 158/346/58 157/345/57
f 157/407/57 159/408/60 161/409/62 163/410/64 165/411/66 167/412/68 169/413/70 171/414/72 173/415/74 175/416/76 177/417/78 179/418/80 181/419/82 183/420/84 185/421/86 187/422/88 189/423/90 191/424/92
