# Blender 5.1.1
# www.blender.org
mtllib E4_printer_final.mtl
o E4_printer_final.001
v -0.155001 -0.163750 0.000000
v -0.125000 -0.163750 0.000000
v -0.125000 -0.133749 0.000000
v -0.155001 -0.133749 0.000000
v -0.155001 -0.163750 0.023000
v -0.125000 -0.163750 0.023000
v -0.125000 -0.133749 0.023000
v -0.155001 -0.133749 0.023000
v 0.143999 -0.163750 0.000000
v 0.174000 -0.163750 0.000000
v 0.174000 -0.133749 0.000000
v 0.143999 -0.133749 0.000000
v 0.143999 -0.163750 0.023000
v 0.174000 -0.163750 0.023000
v 0.174000 -0.133749 0.023000
v 0.143999 -0.133749 0.023000
v -0.155001 0.135251 0.000000
v -0.125000 0.135251 0.000000
v -0.125000 0.165250 0.000000
v -0.155001 0.165250 0.000000
v -0.155001 0.135251 0.023000
v -0.125000 0.135251 0.023000
v -0.125000 0.165250 0.023000
v -0.155001 0.165250 0.023000
v 0.143999 0.135251 0.000000
v 0.174000 0.135251 0.000000
v 0.174000 0.165250 0.000000
v 0.143999 0.165250 0.000000
v 0.143999 0.135251 0.023000
v 0.174000 0.135251 0.023000
v 0.174000 0.165250 0.023000
v 0.143999 0.165250 0.023000
v -0.185001 -0.193749 0.021000
v 0.203999 -0.193749 0.021000
v 0.203999 0.195251 0.021000
v -0.185001 0.195251 0.021000
v -0.185001 -0.193749 0.429000
v 0.203999 -0.193749 0.429000
v 0.203999 0.195251 0.429000
v -0.185001 0.195251 0.429000
v -0.188000 -0.196750 0.427000
v 0.206999 -0.196750 0.427000
v 0.206999 0.198250 0.427000
v -0.188000 0.198250 0.427000
v -0.188000 -0.196750 0.459000
v 0.206999 -0.196750 0.459000
v 0.206999 0.198250 0.459000
v -0.188000 0.198250 0.459000
v -0.197001 -0.094250 0.043000
v -0.183001 -0.094250 0.043000
v -0.183001 0.176750 0.043000
v -0.197001 0.176750 0.043000
v -0.197001 -0.094250 0.425000
v -0.183001 -0.094250 0.425000
v -0.183001 0.176750 0.425000
v -0.197001 0.176750 0.425000
v -0.201000 -0.074250 0.073000
v -0.195000 -0.074250 0.073000
v -0.195000 0.156750 0.073000
v -0.201000 0.156750 0.073000
v -0.201000 -0.074250 0.395000
v -0.195000 -0.074250 0.395000
v -0.195000 0.156750 0.395000
v -0.201000 0.156750 0.395000
v -0.207001 -0.087250 0.151000
v -0.196001 -0.087250 0.151000
v -0.196001 -0.075250 0.151000
v -0.207001 -0.075250 0.151000
v -0.207001 -0.087250 0.351000
v -0.196001 -0.087250 0.351000
v -0.196001 -0.075250 0.351000
v -0.207001 -0.075250 0.351000
v -0.194000 -0.171250 0.251000
v -0.183001 -0.171250 0.251000
v -0.183001 -0.107250 0.251000
v -0.194000 -0.107250 0.251000
v -0.194000 -0.171250 0.341000
v -0.183001 -0.171250 0.341000
v -0.183001 -0.107250 0.341000
v -0.194000 -0.107250 0.341000
v -0.115000 -0.119250 0.457000
v 0.154999 -0.119250 0.457000
v 0.154999 0.120750 0.457000
v -0.115000 0.120750 0.457000
v -0.115000 -0.119250 0.462000
v 0.154999 -0.119250 0.462000
v 0.154999 0.120750 0.462000
v -0.115000 0.120750 0.462000
v -0.105001 -0.198250 0.081000
v 0.164999 -0.198250 0.081000
v 0.164999 -0.191250 0.081000
v -0.105001 -0.191250 0.081000
v -0.105001 -0.198250 0.371000
v 0.164999 -0.198250 0.371000
v 0.164999 -0.191250 0.371000
v -0.105001 -0.191250 0.371000
v -0.135000 -0.192250 0.457000
v 0.147999 -0.192250 0.457000
v 0.147999 0.193750 0.457000
v -0.135000 0.193750 0.457000
v -0.135000 -0.192250 0.509000
v 0.147999 -0.192250 0.509000
v 0.147999 0.193750 0.509000
v -0.135000 0.193750 0.509000
v -0.129000 -0.151250 0.542000
v -0.094000 -0.186250 0.542000
v -0.094000 -0.151250 0.507000
v -0.124327 -0.168726 0.542000
v -0.124327 -0.151249 0.524523
v -0.119783 -0.167987 0.525263
v -0.094002 -0.181573 0.524523
v -0.111479 -0.181573 0.542000
v -0.110739 -0.177032 0.525263
v -0.111479 -0.151249 0.511676
v -0.094002 -0.168726 0.511676
v -0.110739 -0.167987 0.516218
v 0.107000 -0.186250 0.542000
v 0.142000 -0.151250 0.542000
v 0.107000 -0.151250 0.507000
v 0.124479 -0.181573 0.542000
v 0.107002 -0.181573 0.524523
v 0.123739 -0.177032 0.525263
v 0.137327 -0.151249 0.524523
v 0.137327 -0.168726 0.542000
v 0.132784 -0.167987 0.525263
v 0.107002 -0.168726 0.511676
v 0.124479 -0.151249 0.511676
v 0.123739 -0.167987 0.516218
v 0.142000 0.152750 0.542000
v 0.107000 0.187750 0.542000
v 0.107000 0.152750 0.507000
v 0.137327 0.170228 0.542000
v 0.137327 0.152751 0.524523
v 0.132784 0.169488 0.525263
v 0.107002 0.183075 0.524523
v 0.124479 0.183075 0.542000
v 0.123739 0.178533 0.525263
v 0.124479 0.152751 0.511676
v 0.107002 0.170228 0.511676
v 0.123739 0.169488 0.516218
v -0.129000 0.152750 0.542000
v -0.094000 0.152750 0.507000
v -0.094000 0.187750 0.542000
v -0.124327 0.152751 0.524523
v -0.124327 0.170228 0.542000
v -0.119783 0.169488 0.525263
v -0.094002 0.170228 0.511676
v -0.111479 0.152751 0.511676
v -0.110739 0.169488 0.516218
v -0.111479 0.183075 0.542000
v -0.094002 0.183075 0.524523
v -0.110739 0.178533 0.525263
v -0.129000 -0.151250 0.642000
v -0.094000 -0.151250 0.677000
v -0.094000 -0.186250 0.642000
v -0.124327 -0.151249 0.659477
v -0.124327 -0.168726 0.642000
v -0.119783 -0.167987 0.658737
v -0.094002 -0.168726 0.672324
v -0.111479 -0.151249 0.672324
v -0.110739 -0.167987 0.667782
v -0.111479 -0.181573 0.642000
v -0.094002 -0.181573 0.659477
v -0.110739 -0.177032 0.658737
v 0.142000 -0.151250 0.642000
v 0.107000 -0.186250 0.642000
v 0.107000 -0.151250 0.677000
v 0.137327 -0.168726 0.642000
v 0.137327 -0.151249 0.659477
v 0.132784 -0.167987 0.658737
v 0.107002 -0.181573 0.659477
v 0.124479 -0.181573 0.642000
v 0.123739 -0.177032 0.658737
v 0.124479 -0.151249 0.672324
v 0.107002 -0.168726 0.672324
v 0.123739 -0.167987 0.667782
v 0.107000 0.187750 0.642000
v 0.142000 0.152750 0.642000
v 0.107000 0.152750 0.677000
v 0.124479 0.183075 0.642000
v 0.107002 0.183075 0.659477
v 0.123739 0.178533 0.658737
v 0.137327 0.152751 0.659477
v 0.137327 0.170228 0.642000
v 0.132784 0.169488 0.658737
v 0.107002 0.170228 0.672324
v 0.124479 0.152751 0.672324
v 0.123739 0.169488 0.667782
v -0.129000 0.152750 0.642000
v -0.094000 0.187750 0.642000
v -0.094000 0.152750 0.677000
v -0.124327 0.170228 0.642000
v -0.124327 0.152751 0.659477
v -0.119783 0.169488 0.658737
v -0.094002 0.183075 0.659477
v -0.111479 0.183075 0.642000
v -0.110739 0.178533 0.658737
v -0.111479 0.152751 0.672324
v -0.094002 0.170228 0.672324
v -0.110739 0.169488 0.667782
v 0.077000 -0.156750 0.584000
v 0.074547 -0.156750 0.602635
v 0.067352 -0.156750 0.620000
v 0.055912 -0.156750 0.634912
v 0.040998 -0.156750 0.646354
v 0.023634 -0.156750 0.653547
v 0.004999 -0.156750 0.656000
v -0.013636 -0.156750 0.653547
v -0.031000 -0.156750 0.646354
v -0.045912 -0.156750 0.634912
v -0.057354 -0.156750 0.620000
v -0.064547 -0.156750 0.602635
v -0.067001 -0.156750 0.584000
v -0.064547 -0.156750 0.565365
v -0.057354 -0.156750 0.548000
v -0.045912 -0.156750 0.533088
v -0.031000 -0.156750 0.521646
v -0.013636 -0.156750 0.514453
v 0.004999 -0.156750 0.512000
v 0.023634 -0.156750 0.514453
v 0.040998 -0.156750 0.521646
v 0.055912 -0.156750 0.533088
v 0.067352 -0.156750 0.548000
v 0.074547 -0.156750 0.565365
v 0.077000 -0.101749 0.584000
v 0.074547 -0.101749 0.602635
v 0.067352 -0.101749 0.620000
v 0.055912 -0.101749 0.634912
v 0.040998 -0.101749 0.646354
v 0.023634 -0.101749 0.653547
v 0.004999 -0.101749 0.656000
v -0.013636 -0.101749 0.653547
v -0.031000 -0.101749 0.646354
v -0.045912 -0.101749 0.634912
v -0.057354 -0.101749 0.620000
v -0.064547 -0.101749 0.602635
v -0.067001 -0.101749 0.584000
v -0.064547 -0.101749 0.565365
v -0.057354 -0.101749 0.548000
v -0.045912 -0.101749 0.533088
v -0.031000 -0.101749 0.521646
v -0.013636 -0.101749 0.514453
v 0.004999 -0.101749 0.512000
v 0.023634 -0.101749 0.514453
v 0.040998 -0.101749 0.521646
v 0.055912 -0.101749 0.533088
v 0.067352 -0.101749 0.548000
v 0.074547 -0.101749 0.565365
v 0.028999 -0.160250 0.584000
v 0.028181 -0.160250 0.590212
v 0.025784 -0.160250 0.596000
v 0.021971 -0.160250 0.600971
v 0.017000 -0.160250 0.604785
v 0.011211 -0.160250 0.607182
v 0.004999 -0.160250 0.608000
v -0.001213 -0.160250 0.607182
v -0.007000 -0.160250 0.604785
v -0.011971 -0.160250 0.600971
v -0.015785 -0.160250 0.596000
v -0.018183 -0.160250 0.590212
v -0.019001 -0.160250 0.584000
v -0.018183 -0.160250 0.577788
v -0.015785 -0.160250 0.572000
v -0.011971 -0.160250 0.567029
v -0.007000 -0.160250 0.563215
v -0.001213 -0.160250 0.560818
v 0.004999 -0.160250 0.560000
v 0.011211 -0.160250 0.560818
v 0.017000 -0.160250 0.563215
v 0.021971 -0.160250 0.567029
v 0.025784 -0.160250 0.572000
v 0.028181 -0.160250 0.577788
v 0.028999 -0.098249 0.584000
v 0.028181 -0.098249 0.590212
v 0.025784 -0.098249 0.596000
v 0.021971 -0.098249 0.600971
v 0.017000 -0.098249 0.604785
v 0.011211 -0.098249 0.607182
v 0.004999 -0.098249 0.608000
v -0.001213 -0.098249 0.607182
v -0.007000 -0.098249 0.604785
v -0.011971 -0.098249 0.600971
v -0.015785 -0.098249 0.596000
v -0.018183 -0.098249 0.590212
v -0.019001 -0.098249 0.584000
v -0.018183 -0.098249 0.577788
v -0.015785 -0.098249 0.572000
v -0.011971 -0.098249 0.567029
v -0.007000 -0.098249 0.563215
v -0.001213 -0.098249 0.560818
v 0.004999 -0.098249 0.560000
v 0.011211 -0.098249 0.560818
v 0.017000 -0.098249 0.563215
v 0.021971 -0.098249 0.567029
v 0.025784 -0.098249 0.572000
v 0.028181 -0.098249 0.577788
v 0.077000 -0.066750 0.584000
v 0.074547 -0.066750 0.602635
v 0.067352 -0.066750 0.620000
v 0.055912 -0.066750 0.634912
v 0.040998 -0.066750 0.646354
v 0.023634 -0.066750 0.653547
v 0.004999 -0.066750 0.656000
v -0.013636 -0.066750 0.653547
v -0.031000 -0.066750 0.646354
v -0.045912 -0.066750 0.634912
v -0.057354 -0.066750 0.620000
v -0.064547 -0.066750 0.602635
v -0.067001 -0.066750 0.584000
v -0.064547 -0.066750 0.565365
v -0.057354 -0.066750 0.548000
v -0.045912 -0.066750 0.533088
v -0.031000 -0.066750 0.521646
v -0.013636 -0.066750 0.514453
v 0.004999 -0.066750 0.512000
v 0.023634 -0.066750 0.514453
v 0.040998 -0.066750 0.521646
v 0.055912 -0.066750 0.533088
v 0.067352 -0.066750 0.548000
v 0.074547 -0.066750 0.565365
v 0.077000 -0.011750 0.584000
v 0.074547 -0.011750 0.602635
v 0.067352 -0.011750 0.620000
v 0.055912 -0.011750 0.634912
v 0.040998 -0.011750 0.646354
v 0.023634 -0.011750 0.653547
v 0.004999 -0.011750 0.656000
v -0.013636 -0.011750 0.653547
v -0.031000 -0.011750 0.646354
v -0.045912 -0.011750 0.634912
v -0.057354 -0.011750 0.620000
v -0.064547 -0.011750 0.602635
v -0.067001 -0.011750 0.584000
v -0.064547 -0.011750 0.565365
v -0.057354 -0.011750 0.548000
v -0.045912 -0.011750 0.533088
v -0.031000 -0.011750 0.521646
v -0.013636 -0.011750 0.514453
v 0.004999 -0.011750 0.512000
v 0.023634 -0.011750 0.514453
v 0.040998 -0.011750 0.521646
v 0.055912 -0.011750 0.533088
v 0.067352 -0.011750 0.548000
v 0.074547 -0.011750 0.565365
v 0.028999 -0.070250 0.584000
v 0.028181 -0.070250 0.590212
v 0.025784 -0.070250 0.596000
v 0.021971 -0.070250 0.600971
v 0.017000 -0.070250 0.604785
v 0.011211 -0.070250 0.607182
v 0.004999 -0.070250 0.608000
v -0.001213 -0.070250 0.607182
v -0.007000 -0.070250 0.604785
v -0.011971 -0.070250 0.600971
v -0.015785 -0.070250 0.596000
v -0.018183 -0.070250 0.590212
v -0.019001 -0.070250 0.584000
v -0.018183 -0.070250 0.577788
v -0.015785 -0.070250 0.572000
v -0.011971 -0.070250 0.567029
v -0.007000 -0.070250 0.563215
v -0.001213 -0.070250 0.560818
v 0.004999 -0.070250 0.560000
v 0.011211 -0.070250 0.560818
v 0.017000 -0.070250 0.563215
v 0.021971 -0.070250 0.567029
v 0.025784 -0.070250 0.572000
v 0.028181 -0.070250 0.577788
v 0.028999 -0.008250 0.584000
v 0.028181 -0.008250 0.590212
v 0.025784 -0.008250 0.596000
v 0.021971 -0.008250 0.600971
v 0.017000 -0.008250 0.604785
v 0.011211 -0.008250 0.607182
v 0.004999 -0.008250 0.608000
v -0.001213 -0.008250 0.607182
v -0.007000 -0.008250 0.604785
v -0.011971 -0.008250 0.600971
v -0.015785 -0.008250 0.596000
v -0.018183 -0.008250 0.590212
v -0.019001 -0.008250 0.584000
v -0.018183 -0.008250 0.577788
v -0.015785 -0.008250 0.572000
v -0.011971 -0.008250 0.567029
v -0.007000 -0.008250 0.563215
v -0.001213 -0.008250 0.560818
v 0.004999 -0.008250 0.560000
v 0.011211 -0.008250 0.560818
v 0.017000 -0.008250 0.563215
v 0.021971 -0.008250 0.567029
v 0.025784 -0.008250 0.572000
v 0.028181 -0.008250 0.577788
v 0.077000 0.023251 0.584000
v 0.074547 0.023251 0.602635
v 0.067352 0.023251 0.620000
v 0.055912 0.023251 0.634912
v 0.040998 0.023251 0.646354
v 0.023634 0.023251 0.653547
v 0.004999 0.023251 0.656000
v -0.013636 0.023251 0.653547
v -0.031000 0.023251 0.646354
v -0.045912 0.023251 0.634912
v -0.057354 0.023251 0.620000
v -0.064547 0.023251 0.602635
v -0.067001 0.023251 0.584000
v -0.064547 0.023251 0.565365
v -0.057354 0.023251 0.548000
v -0.045912 0.023251 0.533088
v -0.031000 0.023251 0.521646
v -0.013636 0.023251 0.514453
v 0.004999 0.023251 0.512000
v 0.023634 0.023251 0.514453
v 0.040998 0.023251 0.521646
v 0.055912 0.023251 0.533088
v 0.067352 0.023251 0.548000
v 0.074547 0.023251 0.565365
v 0.077000 0.078250 0.584000
v 0.074547 0.078250 0.602635
v 0.067352 0.078250 0.620000
v 0.055912 0.078250 0.634912
v 0.040998 0.078250 0.646354
v 0.023634 0.078250 0.653547
v 0.004999 0.078250 0.656000
v -0.013636 0.078250 0.653547
v -0.031000 0.078250 0.646354
v -0.045912 0.078250 0.634912
v -0.057354 0.078250 0.620000
v -0.064547 0.078250 0.602635
v -0.067001 0.078250 0.584000
v -0.064547 0.078250 0.565365
v -0.057354 0.078250 0.548000
v -0.045912 0.078250 0.533088
v -0.031000 0.078250 0.521646
v -0.013636 0.078250 0.514453
v 0.004999 0.078250 0.512000
v 0.023634 0.078250 0.514453
v 0.040998 0.078250 0.521646
v 0.055912 0.078250 0.533088
v 0.067352 0.078250 0.548000
v 0.074547 0.078250 0.565365
v 0.028999 0.019750 0.584000
v 0.028181 0.019750 0.590212
v 0.025784 0.019750 0.596000
v 0.021971 0.019750 0.600971
v 0.017000 0.019750 0.604785
v 0.011211 0.019750 0.607182
v 0.004999 0.019750 0.608000
v -0.001213 0.019750 0.607182
v -0.007000 0.019750 0.604785
v -0.011971 0.019750 0.600971
v -0.015785 0.019750 0.596000
v -0.018183 0.019750 0.590212
v -0.019001 0.019750 0.584000
v -0.018183 0.019750 0.577788
v -0.015785 0.019750 0.572000
v -0.011971 0.019750 0.567029
v -0.007000 0.019750 0.563215
v -0.001213 0.019750 0.560818
v 0.004999 0.019750 0.560000
v 0.011211 0.019750 0.560818
v 0.017000 0.019750 0.563215
v 0.021971 0.019750 0.567029
v 0.025784 0.019750 0.572000
v 0.028181 0.019750 0.577788
v 0.028999 0.081750 0.584000
v 0.028181 0.081750 0.590212
v 0.025784 0.081750 0.596000
v 0.021971 0.081750 0.600971
v 0.017000 0.081750 0.604785
v 0.011211 0.081750 0.607182
v 0.004999 0.081750 0.608000
v -0.001213 0.081750 0.607182
v -0.007000 0.081750 0.604785
v -0.011971 0.081750 0.600971
v -0.015785 0.081750 0.596000
v -0.018183 0.081750 0.590212
v -0.019001 0.081750 0.584000
v -0.018183 0.081750 0.577788
v -0.015785 0.081750 0.572000
v -0.011971 0.081750 0.567029
v -0.007000 0.081750 0.563215
v -0.001213 0.081750 0.560818
v 0.004999 0.081750 0.560000
v 0.011211 0.081750 0.560818
v 0.017000 0.081750 0.563215
v 0.021971 0.081750 0.567029
v 0.025784 0.081750 0.572000
v 0.028181 0.081750 0.577788
v 0.077000 0.113250 0.584000
v 0.074547 0.113250 0.602635
v 0.067352 0.113250 0.620000
v 0.055912 0.113250 0.634912
v 0.040998 0.113250 0.646354
v 0.023634 0.113250 0.653547
v 0.004999 0.113250 0.656000
v -0.013636 0.113250 0.653547
v -0.031000 0.113250 0.646354
v -0.045912 0.113250 0.634912
v -0.057354 0.113250 0.620000
v -0.064547 0.113250 0.602635
v -0.067001 0.113250 0.584000
v -0.064547 0.113250 0.565365
v -0.057354 0.113250 0.548000
v -0.045912 0.113250 0.533088
v -0.031000 0.113250 0.521646
v -0.013636 0.113250 0.514453
v 0.004999 0.113250 0.512000
v 0.023634 0.113250 0.514453
v 0.040998 0.113250 0.521646
v 0.055912 0.113250 0.533088
v 0.067352 0.113250 0.548000
v 0.074547 0.113250 0.565365
v 0.077000 0.168251 0.584000
v 0.074547 0.168251 0.602635
v 0.067352 0.168251 0.620000
v 0.055912 0.168251 0.634912
v 0.040998 0.168251 0.646354
v 0.023634 0.168251 0.653547
v 0.004999 0.168251 0.656000
v -0.013636 0.168251 0.653547
v -0.031000 0.168251 0.646354
v -0.045912 0.168251 0.634912
v -0.057354 0.168251 0.620000
v -0.064547 0.168251 0.602635
v -0.067001 0.168251 0.584000
v -0.064547 0.168251 0.565365
v -0.057354 0.168251 0.548000
v -0.045912 0.168251 0.533088
v -0.031000 0.168251 0.521646
v -0.013636 0.168251 0.514453
v 0.004999 0.168251 0.512000
v 0.023634 0.168251 0.514453
v 0.040998 0.168251 0.521646
v 0.055912 0.168251 0.533088
v 0.067352 0.168251 0.548000
v 0.074547 0.168251 0.565365
v 0.028999 0.109750 0.584000
v 0.028181 0.109750 0.590212
v 0.025784 0.109750 0.596000
v 0.021971 0.109750 0.600971
v 0.017000 0.109750 0.604785
v 0.011211 0.109750 0.607182
v 0.004999 0.109750 0.608000
v -0.001213 0.109750 0.607182
v -0.007000 0.109750 0.604785
v -0.011971 0.109750 0.600971
v -0.015785 0.109750 0.596000
v -0.018183 0.109750 0.590212
v -0.019001 0.109750 0.584000
v -0.018183 0.109750 0.577788
v -0.015785 0.109750 0.572000
v -0.011971 0.109750 0.567029
v -0.007000 0.109750 0.563215
v -0.001213 0.109750 0.560818
v 0.004999 0.109750 0.560000
v 0.011211 0.109750 0.560818
v 0.017000 0.109750 0.563215
v 0.021971 0.109750 0.567029
v 0.025784 0.109750 0.572000
v 0.028181 0.109750 0.577788
v 0.028999 0.171751 0.584000
v 0.028181 0.171751 0.590212
v 0.025784 0.171751 0.596000
v 0.021971 0.171751 0.600971
v 0.017000 0.171751 0.604785
v 0.011211 0.171751 0.607182
v 0.004999 0.171751 0.608000
v -0.001213 0.171751 0.607182
v -0.007000 0.171751 0.604785
v -0.011971 0.171751 0.600971
v -0.015785 0.171751 0.596000
v -0.018183 0.171751 0.590212
v -0.019001 0.171751 0.584000
v -0.018183 0.171751 0.577788
v -0.015785 0.171751 0.572000
v -0.011971 0.171751 0.567029
v -0.007000 0.171751 0.563215
v -0.001213 0.171751 0.560818
v 0.004999 0.171751 0.560000
v 0.011211 0.171751 0.560818
v 0.017000 0.171751 0.563215
v 0.021971 0.171751 0.567029
v 0.025784 0.171751 0.572000
v 0.028181 0.171751 0.577788
vn -0.0000 -0.0000 -1.0000
vn -0.0000 -0.0000 1.0000
vn -0.0000 -1.0000 -0.0000
vn 1.0000 -0.0000 -0.0000
vn -0.0000 1.0000 -0.0000
vn -1.0000 -0.0000 -0.0000
vn -0.9319 -0.2565 -0.2566
vn -0.6901 -0.6901 -0.2178
vn -0.2566 -0.9318 -0.2566
vn -0.2178 -0.6902 -0.6901
vn -0.2566 -0.2566 -0.9318
vn -0.6901 -0.2178 -0.6901
vn -0.5774 -0.5774 -0.5773
vn 0.2566 -0.9318 -0.2566
vn 0.6901 -0.6902 -0.2178
vn 0.9319 -0.2565 -0.2566
vn 0.6901 -0.2179 -0.6901
vn 0.2566 -0.2565 -0.9319
vn 0.2178 -0.6902 -0.6901
vn 0.5774 -0.5774 -0.5773
vn 0.9319 0.2565 -0.2565
vn 0.6901 0.6902 -0.2178
vn 0.2566 0.9319 -0.2565
vn 0.2178 0.6901 -0.6901
vn 0.2566 0.2565 -0.9319
vn 0.6901 0.2179 -0.6901
vn 0.5773 0.5774 -0.5774
vn -0.9319 0.2566 -0.2565
vn -0.6901 0.2178 -0.6901
vn -0.2566 0.2566 -0.9318
vn -0.2178 0.6901 -0.6901
vn -0.2566 0.9318 -0.2566
vn -0.6901 0.6901 -0.2178
vn -0.5773 0.5774 -0.5774
vn -0.9319 -0.2566 0.2566
vn -0.6901 -0.2178 0.6902
vn -0.2566 -0.2566 0.9318
vn -0.2178 -0.6902 0.6901
vn -0.2566 -0.9318 0.2566
vn -0.6901 -0.6901 0.2178
vn -0.5774 -0.5774 0.5773
vn 0.9319 -0.2565 0.2566
vn 0.6901 -0.6902 0.2178
vn 0.2566 -0.9318 0.2566
vn 0.2178 -0.6902 0.6901
vn 0.2566 -0.2565 0.9319
vn 0.6901 -0.2179 0.6901
vn 0.5774 -0.5774 0.5773
vn 0.2566 0.9318 0.2566
vn 0.6901 0.6902 0.2178
vn 0.9319 0.2565 0.2565
vn 0.6901 0.2179 0.6901
vn 0.2566 0.2565 0.9319
vn 0.2178 0.6901 0.6902
vn 0.5774 0.5774 0.5774
vn -0.9319 0.2565 0.2565
vn -0.6901 0.6901 0.2178
vn -0.2566 0.9318 0.2566
vn -0.2178 0.6901 0.6902
vn -0.2566 0.2566 0.9318
vn -0.6901 0.2178 0.6901
vn -0.5774 0.5774 0.5774
vn -0.2584 -0.0000 -0.9660
vn -0.7071 -0.0000 -0.7071
vn -0.9661 -0.0000 -0.2583
vn -0.0000 -0.9660 -0.2585
vn -0.0000 -0.7071 -0.7071
vn -0.0000 -0.2585 -0.9660
vn 0.9661 -0.0000 -0.2583
vn 0.7071 -0.0000 -0.7071
vn 0.2584 -0.0000 -0.9660
vn -0.0000 0.9660 -0.2584
vn -0.0000 0.7071 -0.7071
vn -0.0000 0.2584 -0.9660
vn -0.9661 -0.0000 0.2583
vn -0.7071 -0.0000 0.7071
vn -0.2584 -0.0000 0.9660
vn -0.0000 0.2584 0.9660
vn -0.0000 0.7071 0.7071
vn -0.0000 0.9660 0.2584
vn 0.2584 -0.0000 0.9660
vn 0.7071 -0.0000 0.7071
vn 0.9661 -0.0000 0.2583
vn -0.0000 -0.2585 0.9660
vn -0.0000 -0.7071 0.7071
vn -0.0000 -0.9660 0.2585
vn -0.9661 -0.2583 -0.0000
vn -0.7071 -0.7071 -0.0000
vn -0.2584 -0.9660 -0.0000
vn 0.2585 -0.9660 -0.0000
vn 0.7071 -0.7071 -0.0000
vn 0.9661 -0.2583 -0.0000
vn 0.9661 0.2583 -0.0000
vn 0.7071 0.7071 -0.0000
vn 0.2584 0.9660 -0.0000
vn -0.2584 0.9660 -0.0000
vn -0.7071 0.7071 -0.0000
vn -0.9661 0.2583 -0.0000
vn 0.9914 -0.0000 0.1305
vn 0.9238 -0.0000 0.3828
vn 0.7934 -0.0000 0.6087
vn 0.6087 -0.0000 0.7934
vn 0.3827 -0.0000 0.9239
vn 0.1305 -0.0000 0.9914
vn -0.1305 -0.0000 0.9914
vn -0.3827 -0.0000 0.9239
vn -0.6088 -0.0000 0.7934
vn -0.7933 -0.0000 0.6088
vn -0.9239 -0.0000 0.3827
vn -0.9914 -0.0000 0.1306
vn -0.9914 -0.0000 -0.1306
vn -0.9239 -0.0000 -0.3827
vn -0.7933 -0.0000 -0.6088
vn -0.6088 -0.0000 -0.7934
vn -0.3827 -0.0000 -0.9239
vn -0.1305 -0.0000 -0.9914
vn 0.1305 -0.0000 -0.9914
vn 0.3827 -0.0000 -0.9239
vn 0.6087 -0.0000 -0.7934
vn 0.7934 -0.0000 -0.6087
vn 0.9238 -0.0000 -0.3828
vn 0.9914 -0.0000 -0.1305
vn 0.9914 -0.0000 0.1306
vn 0.9239 -0.0000 0.3827
vn 0.7934 -0.0000 0.6086
vn 0.6088 -0.0000 0.7933
vn -0.3828 -0.0000 0.9238
vn -0.6088 -0.0000 0.7933
vn -0.6088 -0.0000 -0.7933
vn -0.3828 -0.0000 -0.9238
vn 0.6088 -0.0000 -0.7933
vn 0.7935 -0.0000 -0.6086
vn 0.9239 -0.0000 -0.3827
vn 0.9914 -0.0000 -0.1306
vn -0.7934 -0.0000 0.6088
vn -0.7934 -0.0000 -0.6088
vn 0.7935 -0.0000 0.6086
vn 0.3826 -0.0000 0.9239
vn -0.3828 -0.0000 0.9239
vn 0.6088 -0.0000 -0.7934
vn 0.6088 -0.0000 0.7934
vt 0.758076 0.176795
vt 0.772573 0.176795
vt 0.772573 0.191292
vt 0.758076 0.191292
vt 0.800469 0.191293
vt 0.785972 0.191293
vt 0.785972 0.176796
vt 0.800469 0.176796
vt 0.872059 0.955230
vt 0.872059 0.969727
vt 0.860945 0.969727
vt 0.860945 0.955230
vt 0.565683 0.967821
vt 0.565683 0.982318
vt 0.554569 0.982318
vt 0.554569 0.967821
vt 0.267466 0.958277
vt 0.267466 0.972774
vt 0.256352 0.972774
vt 0.256352 0.958277
vt 0.987852 0.580863
vt 0.987852 0.595360
vt 0.976776 0.595360
vt 0.976776 0.580863
vt 0.813867 0.176795
vt 0.828364 0.176795
vt 0.828364 0.191292
vt 0.813867 0.191292
vt 0.856260 0.191293
vt 0.841763 0.191293
vt 0.841763 0.176796
vt 0.856260 0.176796
vt 0.219188 0.958276
vt 0.219188 0.972773
vt 0.208074 0.972773
vt 0.208074 0.958276
vt 0.510244 0.967821
vt 0.510244 0.982318
vt 0.499129 0.982318
vt 0.499129 0.967821
vt 0.017814 0.958463
vt 0.017814 0.972960
vt 0.006699 0.972960
vt 0.006699 0.958463
vt 0.988978 0.006699
vt 0.988978 0.021196
vt 0.977902 0.021196
vt 0.977902 0.006699
vt 0.945121 0.391921
vt 0.959617 0.391921
vt 0.959617 0.406418
vt 0.945121 0.406418
vt 0.696594 0.966196
vt 0.682097 0.966196
vt 0.682097 0.951699
vt 0.696594 0.951699
vt 0.042327 0.958462
vt 0.042327 0.972960
vt 0.031213 0.972960
vt 0.031213 0.958462
vt 0.534757 0.967821
vt 0.534757 0.982318
vt 0.523643 0.982318
vt 0.523643 0.967821
vt 0.066840 0.958463
vt 0.066840 0.972960
vt 0.055726 0.972960
vt 0.055726 0.958463
vt 0.988978 0.034595
vt 0.988978 0.049092
vt 0.977902 0.049092
vt 0.977902 0.034595
vt 0.833049 0.955230
vt 0.847546 0.955230
vt 0.847546 0.969727
vt 0.833049 0.969727
vt 0.902039 0.969728
vt 0.887542 0.969728
vt 0.887542 0.955231
vt 0.902039 0.955231
vt 0.974872 0.531573
vt 0.974872 0.546070
vt 0.963757 0.546070
vt 0.963757 0.531573
vt 0.593075 0.971048
vt 0.593075 0.985545
vt 0.581961 0.985545
vt 0.581961 0.971048
vt 0.721108 0.967212
vt 0.721108 0.981709
vt 0.709993 0.981709
vt 0.709993 0.967212
vt 0.956314 0.978804
vt 0.956314 0.993300
vt 0.945238 0.993300
vt 0.945238 0.978804
vt 0.409449 0.421530
vt 0.597424 0.421530
vt 0.597424 0.609505
vt 0.409449 0.609505
vt 0.396050 0.615109
vt 0.208074 0.615109
vt 0.208074 0.427133
vt 0.396050 0.427133
vt 0.194675 0.414413
vt 0.006700 0.414413
vt 0.006700 0.217255
vt 0.194675 0.217255
vt 0.194675 0.203857
vt 0.006699 0.203857
vt 0.006699 0.006699
vt 0.194675 0.006699
vt 0.396050 0.203857
vt 0.208074 0.203857
vt 0.208074 0.006699
vt 0.396050 0.006699
vt 0.396050 0.413735
vt 0.208074 0.413735
vt 0.208074 0.217256
vt 0.396050 0.217256
vt 0.600323 0.006699
vt 0.600323 0.197574
vt 0.409448 0.197574
vt 0.409448 0.006699
vt 0.409449 0.408130
vt 0.409449 0.217255
vt 0.600323 0.217255
vt 0.600323 0.408130
vt 0.194675 0.628509
vt 0.194675 0.819383
vt 0.179212 0.819383
vt 0.179212 0.628509
vt 0.597424 0.622904
vt 0.597424 0.813779
vt 0.581961 0.813779
vt 0.581961 0.622904
vt 0.902913 0.204691
vt 0.902913 0.395566
vt 0.887449 0.395566
vt 0.887449 0.204691
vt 0.931722 0.204691
vt 0.931722 0.395566
vt 0.916312 0.395566
vt 0.916312 0.204691
vt 0.163616 0.627736
vt 0.163616 0.758691
vt 0.156851 0.758691
vt 0.156851 0.627736
vt 0.381492 0.912998
vt 0.381492 0.782043
vt 0.388257 0.782043
vt 0.388257 0.912998
vt 0.917278 0.606123
vt 0.910513 0.606123
vt 0.910513 0.421529
vt 0.917278 0.421529
vt 0.744677 0.191293
vt 0.613722 0.191293
vt 0.613722 0.006699
vt 0.744677 0.006699
vt 0.897114 0.606123
vt 0.890349 0.606123
vt 0.890349 0.421529
vt 0.897114 0.421529
vt 0.744677 0.388650
vt 0.613722 0.388650
vt 0.613722 0.204691
vt 0.744677 0.204691
vt 0.982872 0.765324
vt 0.982872 0.876950
vt 0.979973 0.876950
vt 0.979973 0.765324
vt 0.980617 0.316317
vt 0.980617 0.204691
vt 0.983517 0.204691
vt 0.983517 0.316317
vt 0.924527 0.162299
vt 0.921627 0.162299
vt 0.921627 0.006699
vt 0.924527 0.006699
vt 0.862286 0.777054
vt 0.750661 0.777054
vt 0.750661 0.621454
vt 0.862286 0.621454
vt 0.933577 0.577129
vt 0.930677 0.577129
vt 0.930677 0.421530
vt 0.933577 0.421530
vt 0.869701 0.161764
vt 0.758076 0.161764
vt 0.758076 0.006699
vt 0.869701 0.006699
vt 0.619037 0.402049
vt 0.619037 0.407848
vt 0.613722 0.407848
vt 0.613722 0.402049
vt 0.632436 0.407848
vt 0.632436 0.402049
vt 0.637751 0.402049
vt 0.637751 0.407848
vt 0.967218 0.301337
vt 0.961903 0.301337
vt 0.961903 0.204691
vt 0.967218 0.204691
vt 0.185011 0.929427
vt 0.179212 0.929427
vt 0.179212 0.832781
vt 0.185011 0.832781
vt 0.969072 0.518175
vt 0.963757 0.518175
vt 0.963757 0.421529
vt 0.969072 0.421529
vt 0.966573 0.861638
vt 0.960775 0.861638
vt 0.960775 0.765324
vt 0.966573 0.765324
vt 0.875478 0.565399
vt 0.875478 0.596326
vt 0.870162 0.596326
vt 0.870162 0.565399
vt 0.390734 0.976014
vt 0.390734 0.945087
vt 0.396050 0.945087
vt 0.396050 0.976014
vt 0.980237 0.392053
vt 0.974922 0.392053
vt 0.974922 0.348562
vt 0.980237 0.348562
vt 0.789002 0.392052
vt 0.758075 0.392052
vt 0.758075 0.348561
vt 0.789002 0.348561
vt 0.980354 0.978935
vt 0.975038 0.978935
vt 0.975038 0.935445
vt 0.980354 0.935445
vt 0.833328 0.391902
vt 0.802401 0.391902
vt 0.802401 0.348561
vt 0.833328 0.348561
vt 0.758076 0.204691
vt 0.874051 0.204691
vt 0.874051 0.335162
vt 0.758076 0.335162
vt 0.876950 0.552001
vt 0.760975 0.552001
vt 0.760975 0.421530
vt 0.876950 0.421530
vt 0.584377 0.827178
vt 0.584377 0.957649
vt 0.581961 0.957649
vt 0.581961 0.827178
vt 0.979006 0.621454
vt 0.979006 0.737429
vt 0.976590 0.737429
vt 0.976590 0.621454
vt 0.963191 0.621455
vt 0.963191 0.751926
vt 0.960775 0.751926
vt 0.960775 0.621455
vt 0.980310 0.064796
vt 0.980310 0.180770
vt 0.977902 0.180770
vt 0.977902 0.064796
vt 0.945121 0.204691
vt 0.948503 0.204691
vt 0.948503 0.335163
vt 0.945121 0.335163
vt 0.950358 0.552001
vt 0.946976 0.552001
vt 0.946976 0.421530
vt 0.950358 0.421530
vt 0.338546 0.768644
vt 0.208074 0.768644
vt 0.208074 0.628508
vt 0.338546 0.628508
vt 0.393854 0.768644
vt 0.390472 0.768644
vt 0.390472 0.628508
vt 0.393854 0.628508
vt 0.137172 0.767873
vt 0.006700 0.767873
vt 0.006700 0.627736
vt 0.137172 0.627736
vt 0.696595 0.938300
vt 0.693212 0.938300
vt 0.693212 0.798646
vt 0.696595 0.798646
vt 0.143453 0.427811
vt 0.143453 0.614337
vt 0.006700 0.614337
vt 0.006700 0.427811
vt 0.610822 0.608055
vt 0.610822 0.421529
vt 0.747575 0.421529
vt 0.747575 0.608055
vt 0.377073 0.628508
vt 0.377073 0.765261
vt 0.351945 0.765261
vt 0.351945 0.628508
vt 0.181979 0.427812
vt 0.181979 0.614338
vt 0.156851 0.614338
vt 0.156851 0.427812
vt 0.908228 0.006700
vt 0.908228 0.143453
vt 0.883100 0.143453
vt 0.883100 0.006700
vt 0.568119 0.622904
vt 0.568119 0.809430
vt 0.543078 0.809430
vt 0.543078 0.622904
vt 0.939146 0.783010
vt 0.947376 0.783010
vt 0.946838 0.791098
vt 0.938959 0.791455
vt 0.148288 0.781271
vt 0.156376 0.783467
vt 0.156376 0.787837
vt 0.148288 0.787480
vt 0.148288 0.795926
vt 0.156734 0.795925
vt 0.160747 0.787837
vt 0.162942 0.795925
vt 0.722607 0.629900
vt 0.722608 0.621455
vt 0.730696 0.621812
vt 0.731053 0.629900
vt 0.735066 0.621812
vt 0.737262 0.629900
vt 0.148288 0.893055
vt 0.156734 0.893056
vt 0.156376 0.901144
vt 0.148288 0.901501
vt 0.156376 0.905514
vt 0.148288 0.907710
vt 0.063468 0.789716
vt 0.063468 0.781271
vt 0.071556 0.781629
vt 0.071913 0.789717
vt 0.610823 0.629900
vt 0.613019 0.621812
vt 0.617389 0.621812
vt 0.617032 0.629900
vt 0.625478 0.629900
vt 0.625477 0.621455
vt 0.162942 0.893056
vt 0.160747 0.901144
vt 0.655521 0.402049
vt 0.651150 0.406419
vt 0.651150 0.402049
vt 0.063468 0.936618
vt 0.071913 0.936618
vt 0.071556 0.944706
vt 0.063468 0.945064
vt 0.271050 0.782044
vt 0.279138 0.784239
vt 0.279138 0.788610
vt 0.271050 0.788252
vt 0.271050 0.796698
vt 0.279496 0.796698
vt 0.283509 0.788610
vt 0.285704 0.796698
vt 0.625478 0.776801
vt 0.625477 0.785247
vt 0.617389 0.784890
vt 0.617032 0.776802
vt 0.613019 0.784890
vt 0.610823 0.776802
vt 0.939146 0.636108
vt 0.938959 0.627663
vt 0.946838 0.628020
vt 0.947376 0.636108
vt 0.737262 0.776802
vt 0.735066 0.784890
vt 0.730696 0.784890
vt 0.731053 0.776802
vt 0.722607 0.776801
vt 0.722608 0.785247
vt 0.285704 0.893828
vt 0.283509 0.901916
vt 0.279138 0.901916
vt 0.279496 0.893828
vt 0.271050 0.893827
vt 0.271050 0.902274
vt 0.279138 0.906287
vt 0.271050 0.908482
vt 0.890990 0.783010
vt 0.890803 0.791455
vt 0.882561 0.791098
vt 0.882386 0.783010
vt 0.877843 0.791098
vt 0.875685 0.783010
vt 0.417895 0.631349
vt 0.409449 0.631349
vt 0.409807 0.623261
vt 0.417894 0.622904
vt 0.085312 0.795925
vt 0.087507 0.787837
vt 0.091877 0.787837
vt 0.091520 0.795925
vt 0.099965 0.795926
vt 0.099965 0.787480
vt 0.890288 0.797663
vt 0.882199 0.795468
vt 0.015145 0.789716
vt 0.006699 0.789717
vt 0.007057 0.781629
vt 0.015145 0.781271
vt 0.099965 0.907710
vt 0.091877 0.905514
vt 0.091877 0.901144
vt 0.099965 0.901501
vt 0.099965 0.893055
vt 0.091520 0.893056
vt 0.087507 0.901144
vt 0.085312 0.893056
vt 0.515024 0.631349
vt 0.515025 0.622904
vt 0.523113 0.623261
vt 0.523471 0.631349
vt 0.527484 0.623261
vt 0.529679 0.631349
vt 0.668920 0.406420
vt 0.668920 0.402049
vt 0.673291 0.406420
vt 0.222728 0.796698
vt 0.214282 0.796698
vt 0.214640 0.788610
vt 0.222728 0.788252
vt 0.214640 0.784239
vt 0.222728 0.782044
vt 0.015145 0.936618
vt 0.015145 0.945064
vt 0.007057 0.944706
vt 0.006699 0.936618
vt 0.529679 0.778251
vt 0.527484 0.786339
vt 0.523113 0.786339
vt 0.523471 0.778251
vt 0.515024 0.778251
vt 0.515025 0.786696
vt 0.208074 0.796698
vt 0.210269 0.788610
vt 0.890990 0.636108
vt 0.882386 0.636108
vt 0.882561 0.628020
vt 0.890803 0.627663
vt 0.882199 0.623649
vt 0.890288 0.621455
vt 0.222728 0.893827
vt 0.222728 0.902274
vt 0.214640 0.901916
vt 0.214282 0.893828
vt 0.210269 0.901916
vt 0.208074 0.893828
vt 0.417895 0.778251
vt 0.417894 0.786696
vt 0.409807 0.786339
vt 0.409449 0.778251
vt 0.875685 0.636108
vt 0.877843 0.628020
vt 0.099965 0.781271
vt 0.222728 0.908482
vt 0.637401 0.905636
vt 0.610823 0.905636
vt 0.610823 0.896632
vt 0.637401 0.896632
vt 0.610823 0.888240
vt 0.637401 0.888240
vt 0.610823 0.881034
vt 0.637401 0.881034
vt 0.709993 0.798646
vt 0.736571 0.798646
vt 0.736571 0.805853
vt 0.709993 0.805853
vt 0.736571 0.814244
vt 0.709993 0.814244
vt 0.736571 0.823249
vt 0.709993 0.823249
vt 0.736571 0.832253
vt 0.709993 0.832253
vt 0.736571 0.840644
vt 0.709993 0.840644
vt 0.736571 0.847850
vt 0.709993 0.847850
vt 0.937926 0.069302
vt 0.964503 0.069302
vt 0.964503 0.076941
vt 0.937926 0.076941
vt 0.964503 0.085592
vt 0.937926 0.085592
vt 0.964503 0.094664
vt 0.937926 0.094664
vt 0.964503 0.103540
vt 0.937926 0.103540
vt 0.964503 0.111614
vt 0.937926 0.111614
vt 0.964503 0.118337
vt 0.937926 0.118337
vt 0.833049 0.790452
vt 0.859627 0.790452
vt 0.859627 0.797658
vt 0.833049 0.797658
vt 0.859627 0.806049
vt 0.833049 0.806049
vt 0.859627 0.815054
vt 0.833049 0.815054
vt 0.859627 0.824059
vt 0.833049 0.824059
vt 0.859627 0.832450
vt 0.833049 0.832450
vt 0.859627 0.839656
vt 0.833049 0.839656
vt 0.637401 0.930238
vt 0.610823 0.930238
vt 0.610823 0.923033
vt 0.637401 0.923033
vt 0.610823 0.914641
vt 0.637401 0.914641
vt 0.632003 0.865285
vt 0.624137 0.860743
vt 0.617715 0.854320
vt 0.613174 0.846455
vt 0.610823 0.837681
vt 0.610823 0.828599
vt 0.613174 0.819826
vt 0.617716 0.811960
vt 0.624138 0.805538
vt 0.632004 0.800997
vt 0.640777 0.798646
vt 0.649860 0.798646
vt 0.658633 0.800996
vt 0.666499 0.805538
vt 0.672921 0.811961
vt 0.677462 0.819827
vt 0.679813 0.828600
vt 0.679813 0.837682
vt 0.677462 0.846455
vt 0.672921 0.854321
vt 0.666498 0.860743
vt 0.658632 0.865285
vt 0.649859 0.867635
vt 0.640776 0.867636
vt 0.448486 0.869086
vt 0.439403 0.869085
vt 0.430630 0.866735
vt 0.422764 0.862193
vt 0.416341 0.855771
vt 0.411800 0.847905
vt 0.409449 0.839132
vt 0.409449 0.830050
vt 0.411800 0.821277
vt 0.416341 0.813411
vt 0.422763 0.806989
vt 0.430629 0.802447
vt 0.439402 0.800096
vt 0.448485 0.800096
vt 0.457258 0.802447
vt 0.465124 0.806988
vt 0.471546 0.813410
vt 0.476088 0.821276
vt 0.478439 0.830049
vt 0.478439 0.839131
vt 0.476088 0.847905
vt 0.471547 0.855770
vt 0.465125 0.862193
vt 0.457259 0.866735
vt 0.176810 0.942826
vt 0.176810 0.972786
vt 0.173808 0.972786
vt 0.173808 0.942826
vt 0.171011 0.972786
vt 0.171011 0.942826
vt 0.168609 0.972786
vt 0.168609 0.942826
vt 0.726394 0.923852
vt 0.726394 0.953812
vt 0.723992 0.953812
vt 0.723992 0.923852
vt 0.721195 0.953812
vt 0.721195 0.923852
vt 0.718193 0.953812
vt 0.718193 0.923852
vt 0.715191 0.953812
vt 0.715191 0.923852
vt 0.712395 0.953812
vt 0.712395 0.923852
vt 0.709993 0.953812
vt 0.709993 0.923852
vt 0.328903 0.976781
vt 0.328903 0.946821
vt 0.331449 0.946821
vt 0.331449 0.976781
vt 0.334333 0.946821
vt 0.334333 0.976781
vt 0.337357 0.946821
vt 0.337357 0.976781
vt 0.340315 0.946821
vt 0.340315 0.976781
vt 0.343007 0.946821
vt 0.343007 0.976781
vt 0.345248 0.946821
vt 0.345248 0.976781
vt 0.961522 0.348562
vt 0.961522 0.378522
vt 0.959120 0.378522
vt 0.959120 0.348562
vt 0.956324 0.378522
vt 0.956324 0.348562
vt 0.953322 0.378522
vt 0.953322 0.348562
vt 0.950320 0.378522
vt 0.950320 0.348562
vt 0.947523 0.378522
vt 0.947523 0.348562
vt 0.945121 0.378522
vt 0.945121 0.348562
vt 0.185011 0.942826
vt 0.185011 0.972786
vt 0.182609 0.972786
vt 0.182609 0.942826
vt 0.179812 0.972786
vt 0.179812 0.942826
vt 0.768036 0.566182
vt 0.770960 0.565399
vt 0.773988 0.565399
vt 0.776912 0.566182
vt 0.779534 0.567696
vt 0.781675 0.569837
vt 0.783188 0.572459
vt 0.783972 0.575384
vt 0.783972 0.578411
vt 0.783188 0.581335
vt 0.781674 0.583957
vt 0.779533 0.586098
vt 0.776912 0.587612
vt 0.773987 0.588395
vt 0.770960 0.588395
vt 0.768035 0.587611
vt 0.765413 0.586098
vt 0.763273 0.583957
vt 0.761759 0.581335
vt 0.760975 0.578411
vt 0.760975 0.575383
vt 0.761759 0.572458
vt 0.763273 0.569837
vt 0.765414 0.567696
vt 0.815929 0.567697
vt 0.818070 0.569837
vt 0.819584 0.572459
vt 0.820368 0.575383
vt 0.820368 0.578411
vt 0.819584 0.581335
vt 0.818070 0.583958
vt 0.815930 0.586098
vt 0.813308 0.587612
vt 0.810383 0.588396
vt 0.807356 0.588396
vt 0.804431 0.587612
vt 0.801809 0.586098
vt 0.799669 0.583957
vt 0.798155 0.581335
vt 0.797371 0.578411
vt 0.797371 0.575384
vt 0.798155 0.572459
vt 0.799669 0.569837
vt 0.801809 0.567696
vt 0.804431 0.566182
vt 0.807356 0.565399
vt 0.810383 0.565399
vt 0.813308 0.566183
vt 0.565683 0.929820
vt 0.539106 0.929820
vt 0.539106 0.920815
vt 0.565683 0.920815
vt 0.539106 0.912424
vt 0.565683 0.912424
vt 0.539106 0.905218
vt 0.565683 0.905218
vt 0.409449 0.882484
vt 0.436026 0.882484
vt 0.436026 0.889691
vt 0.409449 0.889691
vt 0.436026 0.898082
vt 0.409449 0.898082
vt 0.436026 0.907087
vt 0.409449 0.907087
vt 0.436026 0.916092
vt 0.409449 0.916092
vt 0.436026 0.924483
vt 0.409449 0.924483
vt 0.436026 0.931688
vt 0.409449 0.931688
vt 0.085312 0.921109
vt 0.111889 0.921109
vt 0.111889 0.928748
vt 0.085312 0.928748
vt 0.111889 0.937398
vt 0.085312 0.937398
vt 0.111889 0.946471
vt 0.085312 0.946471
vt 0.111889 0.955346
vt 0.085312 0.955346
vt 0.111889 0.963421
vt 0.085312 0.963421
vt 0.111889 0.970144
vt 0.085312 0.970144
vt 0.449425 0.882484
vt 0.476002 0.882484
vt 0.476002 0.889690
vt 0.449425 0.889690
vt 0.476002 0.898081
vt 0.449425 0.898081
vt 0.476002 0.907085
vt 0.449425 0.907085
vt 0.476002 0.916090
vt 0.449425 0.916090
vt 0.476002 0.924481
vt 0.449425 0.924481
vt 0.476002 0.931688
vt 0.449425 0.931688
vt 0.565683 0.954422
vt 0.539106 0.954422
vt 0.539106 0.947216
vt 0.565683 0.947216
vt 0.539106 0.938825
vt 0.565683 0.938825
vt 0.520309 0.889468
vt 0.512443 0.884927
vt 0.506021 0.878504
vt 0.501480 0.870639
vt 0.499129 0.861865
vt 0.499129 0.852782
vt 0.501480 0.844009
vt 0.506021 0.836144
vt 0.512444 0.829722
vt 0.520310 0.825180
vt 0.529083 0.822830
vt 0.538165 0.822830
vt 0.546939 0.825180
vt 0.554804 0.829722
vt 0.561227 0.836145
vt 0.565768 0.844010
vt 0.568119 0.852784
vt 0.568119 0.861866
vt 0.565768 0.870639
vt 0.561226 0.878505
vt 0.554804 0.884927
vt 0.546938 0.889469
vt 0.538165 0.891819
vt 0.529082 0.891819
vt 0.338140 0.933422
vt 0.329057 0.933422
vt 0.320284 0.931072
vt 0.312418 0.926530
vt 0.305995 0.920108
vt 0.301454 0.912242
vt 0.299103 0.903469
vt 0.299103 0.894387
vt 0.301454 0.885613
vt 0.305995 0.877747
vt 0.312418 0.871325
vt 0.320283 0.866783
vt 0.329056 0.864433
vt 0.338139 0.864433
vt 0.346912 0.866783
vt 0.354778 0.871324
vt 0.361200 0.877747
vt 0.365742 0.885612
vt 0.368093 0.894385
vt 0.368093 0.903468
vt 0.365742 0.912242
vt 0.361201 0.920107
vt 0.354779 0.926530
vt 0.346913 0.931071
vt 0.307303 0.946821
vt 0.307303 0.976781
vt 0.304302 0.976781
vt 0.304302 0.946821
vt 0.301505 0.976781
vt 0.301505 0.946821
vt 0.299103 0.976781
vt 0.299103 0.946821
vt 0.425850 0.945087
vt 0.425850 0.975047
vt 0.423448 0.975047
vt 0.423448 0.945087
vt 0.420650 0.975047
vt 0.420650 0.945087
vt 0.417648 0.975047
vt 0.417648 0.945087
vt 0.414646 0.975047
vt 0.414646 0.945087
vt 0.411850 0.975047
vt 0.411850 0.945087
vt 0.409448 0.975047
vt 0.409448 0.945087
vt 0.780404 0.985191
vt 0.780404 0.955231
vt 0.782951 0.955231
vt 0.782951 0.985191
vt 0.785834 0.955231
vt 0.785834 0.985191
vt 0.788858 0.955231
vt 0.788858 0.985191
vt 0.791817 0.955231
vt 0.791817 0.985191
vt 0.794508 0.955231
vt 0.794508 0.985191
vt 0.796749 0.955231
vt 0.796749 0.985191
vt 0.465827 0.945087
vt 0.465827 0.975047
vt 0.463425 0.975047
vt 0.463425 0.945087
vt 0.460628 0.975047
vt 0.460628 0.945087
vt 0.457626 0.975047
vt 0.457626 0.945087
vt 0.454625 0.975047
vt 0.454625 0.945087
vt 0.451827 0.975047
vt 0.451827 0.945087
vt 0.449425 0.975047
vt 0.449425 0.945087
vt 0.315504 0.946821
vt 0.315504 0.976781
vt 0.313102 0.976781
vt 0.313102 0.946821
vt 0.310305 0.976781
vt 0.310305 0.946821
vt 0.840827 0.566183
vt 0.843752 0.565400
vt 0.846779 0.565400
vt 0.849703 0.566183
vt 0.852325 0.567697
vt 0.854466 0.569838
vt 0.855980 0.572460
vt 0.856763 0.575385
vt 0.856763 0.578411
vt 0.855980 0.581336
vt 0.854466 0.583958
vt 0.852325 0.586099
vt 0.849703 0.587613
vt 0.846779 0.588396
vt 0.843751 0.588396
vt 0.840827 0.587612
vt 0.838205 0.586098
vt 0.836064 0.583958
vt 0.834550 0.581336
vt 0.833767 0.578411
vt 0.833767 0.575383
vt 0.834550 0.572459
vt 0.836064 0.569838
vt 0.838205 0.567697
vt 0.891584 0.818957
vt 0.893725 0.821098
vt 0.895239 0.823720
vt 0.896023 0.826644
vt 0.896023 0.829672
vt 0.895239 0.832596
vt 0.893725 0.835218
vt 0.891585 0.837359
vt 0.888963 0.838872
vt 0.886038 0.839656
vt 0.883011 0.839656
vt 0.880086 0.838873
vt 0.877465 0.837359
vt 0.875324 0.835218
vt 0.873810 0.832596
vt 0.873026 0.829672
vt 0.873026 0.826645
vt 0.873810 0.823720
vt 0.875324 0.821098
vt 0.877465 0.818957
vt 0.880086 0.817443
vt 0.883011 0.816660
vt 0.886038 0.816660
vt 0.888963 0.817443
vt 0.964503 0.031301
vt 0.937926 0.031301
vt 0.937926 0.022296
vt 0.964503 0.022296
vt 0.937926 0.013905
vt 0.964503 0.013905
vt 0.937926 0.006699
vt 0.964503 0.006699
vt 0.915438 0.872843
vt 0.942016 0.872843
vt 0.942016 0.880049
vt 0.915438 0.880049
vt 0.942016 0.888440
vt 0.915438 0.888440
vt 0.942016 0.897445
vt 0.915438 0.897445
vt 0.942016 0.906450
vt 0.915438 0.906450
vt 0.942016 0.914841
vt 0.915438 0.914841
vt 0.942016 0.922047
vt 0.915438 0.922047
vt 0.125288 0.921109
vt 0.151866 0.921109
vt 0.151866 0.928748
vt 0.125288 0.928748
vt 0.151866 0.937398
vt 0.125288 0.937398
vt 0.151866 0.946471
vt 0.125288 0.946471
vt 0.151866 0.955346
vt 0.125288 0.955346
vt 0.151866 0.963421
vt 0.125288 0.963421
vt 0.151866 0.970144
vt 0.125288 0.970144
vt 0.499129 0.905218
vt 0.525707 0.905218
vt 0.525707 0.912423
vt 0.499129 0.912423
vt 0.525707 0.920814
vt 0.499129 0.920814
vt 0.525707 0.929819
vt 0.499129 0.929819
vt 0.525707 0.938824
vt 0.499129 0.938824
vt 0.525707 0.947215
vt 0.499129 0.947215
vt 0.525707 0.954422
vt 0.499129 0.954422
vt 0.964503 0.055903
vt 0.937926 0.055903
vt 0.937926 0.048698
vt 0.964503 0.048698
vt 0.937926 0.040306
vt 0.964503 0.040306
vt 0.312419 0.788934
vt 0.320285 0.784393
vt 0.329059 0.782043
vt 0.338141 0.782043
vt 0.346914 0.784395
vt 0.354780 0.788936
vt 0.361202 0.795359
vt 0.365743 0.803225
vt 0.368093 0.811998
vt 0.368092 0.821081
vt 0.365741 0.829854
vt 0.361199 0.837719
vt 0.354777 0.844142
vt 0.346910 0.848682
vt 0.338137 0.851032
vt 0.329054 0.851032
vt 0.320281 0.848681
vt 0.312416 0.844139
vt 0.305994 0.837716
vt 0.301453 0.829850
vt 0.299103 0.821077
vt 0.299103 0.811994
vt 0.301455 0.803222
vt 0.305996 0.795355
vt 0.789698 0.941832
vt 0.780615 0.941831
vt 0.771842 0.939481
vt 0.763976 0.934939
vt 0.757553 0.928517
vt 0.753012 0.920651
vt 0.750661 0.911878
vt 0.750661 0.902796
vt 0.753012 0.894023
vt 0.757553 0.886157
vt 0.763975 0.879735
vt 0.771841 0.875192
vt 0.780614 0.872842
vt 0.789697 0.872842
vt 0.798470 0.875193
vt 0.806336 0.879734
vt 0.812758 0.886156
vt 0.817299 0.894022
vt 0.819650 0.902795
vt 0.819650 0.911877
vt 0.817300 0.920651
vt 0.812758 0.928516
vt 0.806336 0.934939
vt 0.798471 0.939481
vt 0.619024 0.943637
vt 0.619024 0.973598
vt 0.616022 0.973598
vt 0.616022 0.943637
vt 0.613225 0.973598
vt 0.613225 0.943637
vt 0.610823 0.973598
vt 0.610823 0.943637
vt 0.963377 0.565400
vt 0.963377 0.595360
vt 0.960975 0.595360
vt 0.960975 0.565400
vt 0.958178 0.595360
vt 0.958178 0.565400
vt 0.955176 0.595360
vt 0.955176 0.565400
vt 0.952174 0.595360
vt 0.952174 0.565400
vt 0.949377 0.595360
vt 0.949377 0.565400
vt 0.946975 0.595360
vt 0.946975 0.565400
vt 0.358647 0.976781
vt 0.358647 0.946821
vt 0.361193 0.946821
vt 0.361193 0.976781
vt 0.364077 0.946821
vt 0.364077 0.976781
vt 0.367101 0.946821
vt 0.367101 0.976781
vt 0.370059 0.946821
vt 0.370059 0.976781
vt 0.372751 0.946821
vt 0.372751 0.976781
vt 0.374992 0.946821
vt 0.374992 0.976781
vt 0.931839 0.935445
vt 0.931839 0.965405
vt 0.929438 0.965405
vt 0.929438 0.935445
vt 0.926641 0.965405
vt 0.926641 0.935445
vt 0.923639 0.965405
vt 0.923639 0.935445
vt 0.920637 0.965405
vt 0.920637 0.935445
vt 0.917840 0.965405
vt 0.917840 0.935445
vt 0.915438 0.965405
vt 0.915438 0.935445
vt 0.627225 0.943637
vt 0.627225 0.973598
vt 0.624823 0.973598
vt 0.624823 0.943637
vt 0.622026 0.973598
vt 0.622026 0.943637
vt 0.890161 0.157635
vt 0.893085 0.156852
vt 0.896113 0.156852
vt 0.899037 0.157635
vt 0.901659 0.159149
vt 0.903800 0.161290
vt 0.905314 0.163912
vt 0.906097 0.166837
vt 0.906097 0.169864
vt 0.905313 0.172788
vt 0.903800 0.175410
vt 0.901659 0.177551
vt 0.899037 0.179065
vt 0.896112 0.179848
vt 0.893085 0.179848
vt 0.890160 0.179064
vt 0.887538 0.177550
vt 0.885398 0.175410
vt 0.883884 0.172788
vt 0.883100 0.169863
vt 0.883100 0.166836
vt 0.883884 0.163911
vt 0.885398 0.161290
vt 0.887539 0.159149
vt 0.927980 0.818958
vt 0.930121 0.821098
vt 0.931635 0.823720
vt 0.932419 0.826644
vt 0.932419 0.829672
vt 0.931635 0.832596
vt 0.930121 0.835219
vt 0.927980 0.837359
vt 0.925359 0.838873
vt 0.922434 0.839656
vt 0.919407 0.839656
vt 0.916482 0.838873
vt 0.913860 0.837359
vt 0.911719 0.835218
vt 0.910206 0.832596
vt 0.909422 0.829672
vt 0.909422 0.826645
vt 0.910205 0.823720
vt 0.911719 0.821098
vt 0.913860 0.818957
vt 0.916482 0.817443
vt 0.919406 0.816660
vt 0.922434 0.816660
vt 0.925358 0.817444
vt 0.677377 0.905636
vt 0.650800 0.905636
vt 0.650800 0.896632
vt 0.677377 0.896632
vt 0.650800 0.888240
vt 0.677377 0.888240
vt 0.650800 0.881034
vt 0.677377 0.881034
vt 0.846727 0.348562
vt 0.873304 0.348562
vt 0.873304 0.355768
vt 0.846727 0.355768
vt 0.873304 0.364159
vt 0.846727 0.364159
vt 0.873304 0.373164
vt 0.846727 0.373164
vt 0.873304 0.382169
vt 0.846727 0.382169
vt 0.873304 0.390560
vt 0.846727 0.390560
vt 0.873304 0.397766
vt 0.846727 0.397766
vt 0.937925 0.131736
vt 0.964503 0.131736
vt 0.964503 0.139375
vt 0.937925 0.139375
vt 0.964503 0.148025
vt 0.937925 0.148025
vt 0.964503 0.157098
vt 0.937925 0.157098
vt 0.964503 0.165973
vt 0.937925 0.165973
vt 0.964503 0.174048
vt 0.937925 0.174048
vt 0.964503 0.180771
vt 0.937925 0.180771
vt 0.709993 0.861248
vt 0.736571 0.861248
vt 0.736571 0.868454
vt 0.709993 0.868454
vt 0.736571 0.876845
vt 0.709993 0.876845
vt 0.736571 0.885850
vt 0.709993 0.885850
vt 0.736571 0.894855
vt 0.709993 0.894855
vt 0.736571 0.903246
vt 0.709993 0.903246
vt 0.736571 0.910452
vt 0.709993 0.910452
vt 0.677377 0.930238
vt 0.650800 0.930238
vt 0.650800 0.923033
vt 0.677377 0.923033
vt 0.650800 0.914641
vt 0.677377 0.914641
vt 0.763976 0.797343
vt 0.771842 0.792802
vt 0.780616 0.790452
vt 0.789698 0.790452
vt 0.798472 0.792804
vt 0.806337 0.797345
vt 0.812759 0.803768
vt 0.817300 0.811634
vt 0.819650 0.820407
vt 0.819650 0.829490
vt 0.817298 0.838263
vt 0.812756 0.846128
vt 0.806334 0.852551
vt 0.798468 0.857091
vt 0.789694 0.859442
vt 0.780612 0.859441
vt 0.771839 0.857090
vt 0.763973 0.852548
vt 0.757551 0.846125
vt 0.753011 0.838260
vt 0.750660 0.829486
vt 0.750660 0.820403
vt 0.753012 0.811631
vt 0.757554 0.803765
vt 0.872087 0.941832
vt 0.863004 0.941831
vt 0.854231 0.939481
vt 0.846364 0.934939
vt 0.839942 0.928517
vt 0.835401 0.920652
vt 0.833050 0.911879
vt 0.833050 0.902796
vt 0.835401 0.894023
vt 0.839942 0.886157
vt 0.846364 0.879735
vt 0.854230 0.875193
vt 0.863003 0.872842
vt 0.872086 0.872842
vt 0.880859 0.875193
vt 0.888725 0.879734
vt 0.895147 0.886156
vt 0.899688 0.894022
vt 0.902039 0.902795
vt 0.902039 0.911877
vt 0.899689 0.920651
vt 0.895147 0.928516
vt 0.888725 0.934940
vt 0.880860 0.939481
vt 0.659001 0.943637
vt 0.659001 0.973598
vt 0.655999 0.973598
vt 0.655999 0.943637
vt 0.653202 0.973598
vt 0.653202 0.943637
vt 0.650800 0.973598
vt 0.650800 0.943637
vt 0.961639 0.935445
vt 0.961639 0.965405
vt 0.959237 0.965405
vt 0.959237 0.935445
vt 0.956440 0.965405
vt 0.956440 0.935445
vt 0.953438 0.965405
vt 0.953438 0.935445
vt 0.950436 0.965405
vt 0.950436 0.935445
vt 0.947640 0.965405
vt 0.947640 0.935445
vt 0.945238 0.965405
vt 0.945238 0.935445
vt 0.750661 0.985191
vt 0.750661 0.955231
vt 0.753207 0.955231
vt 0.753207 0.985191
vt 0.756091 0.955231
vt 0.756091 0.985191
vt 0.759115 0.955231
vt 0.759115 0.985191
vt 0.762073 0.955231
vt 0.762073 0.985191
vt 0.764765 0.955231
vt 0.764765 0.985191
vt 0.767006 0.955231
vt 0.767006 0.985191
vt 0.971817 0.892085
vt 0.971817 0.922046
vt 0.969415 0.922046
vt 0.969415 0.892085
vt 0.966618 0.922046
vt 0.966618 0.892085
vt 0.963616 0.922046
vt 0.963616 0.892085
vt 0.960615 0.922046
vt 0.960615 0.892085
vt 0.957817 0.922046
vt 0.957817 0.892085
vt 0.955415 0.922046
vt 0.955415 0.892085
vt 0.667201 0.943637
vt 0.667201 0.973598
vt 0.664799 0.973598
vt 0.664799 0.943637
vt 0.662002 0.973598
vt 0.662002 0.943637
vt 0.244469 0.934892
vt 0.244469 0.931865
vt 0.245253 0.928941
vt 0.246766 0.926319
vt 0.248907 0.924178
vt 0.251529 0.922664
vt 0.254454 0.921881
vt 0.257482 0.921881
vt 0.260405 0.922664
vt 0.263027 0.924178
vt 0.265168 0.926319
vt 0.266682 0.928941
vt 0.267466 0.931865
vt 0.267466 0.934893
vt 0.266682 0.937817
vt 0.265168 0.940439
vt 0.263027 0.942580
vt 0.260406 0.944094
vt 0.257481 0.944877
vt 0.254453 0.944877
vt 0.251529 0.944094
vt 0.248907 0.942580
vt 0.246767 0.940439
vt 0.245253 0.937817
vt 0.226633 0.924177
vt 0.228774 0.926318
vt 0.230288 0.928939
vt 0.231071 0.931863
vt 0.231071 0.934891
vt 0.230288 0.937816
vt 0.228774 0.940438
vt 0.226633 0.942578
vt 0.224011 0.944092
vt 0.221087 0.944876
vt 0.218059 0.944876
vt 0.215135 0.944093
vt 0.212513 0.942579
vt 0.210372 0.940438
vt 0.208858 0.937816
vt 0.208075 0.934891
vt 0.208074 0.931864
vt 0.208858 0.928940
vt 0.210372 0.926317
vt 0.212513 0.924176
vt 0.215135 0.922663
vt 0.218059 0.921880
vt 0.221086 0.921880
vt 0.224011 0.922663
s 0
usemtl exp_E4_printer_final
f 1/1/1 4/2/1 3/3/1 2/4/1
f 8/5/2 5/6/2 6/7/2 7/8/2
f 1/9/3 2/10/3 6/11/3 5/12/3
f 2/13/4 3/14/4 7/15/4 6/16/4
f 3/17/5 4/18/5 8/19/5 7/20/5
f 4/21/6 1/22/6 5/23/6 8/24/6
f 9/25/1 12/26/1 11/27/1 10/28/1
f 16/29/2 13/30/2 14/31/2 15/32/2
f 9/33/3 10/34/3 14/35/3 13/36/3
f 10/37/4 11/38/4 15/39/4 14/40/4
f 11/41/5 12/42/5 16/43/5 15/44/5
f 12/45/6 9/46/6 13/47/6 16/48/6
f 17/49/1 20/50/1 19/51/1 18/52/1
f 24/53/2 21/54/2 22/55/2 23/56/2
f 17/57/3 18/58/3 22/59/3 21/60/3
f 18/61/4 19/62/4 23/63/4 22/64/4
f 19/65/5 20/66/5 24/67/5 23/68/5
f 20/69/6 17/70/6 21/71/6 24/72/6
f 25/73/1 28/74/1 27/75/1 26/76/1
f 32/77/2 29/78/2 30/79/2 31/80/2
f 25/81/3 26/82/3 30/83/3 29/84/3
f 26/85/4 27/86/4 31/87/4 30/88/4
f 27/89/5 28/90/5 32/91/5 31/92/5
f 28/93/6 25/94/6 29/95/6 32/96/6
f 33/97/1 36/98/1 35/99/1 34/100/1
f 40/101/2 37/102/2 38/103/2 39/104/2
f 33/105/3 34/106/3 38/107/3 37/108/3
f 34/109/4 35/110/4 39/111/4 38/112/4
f 35/113/5 36/114/5 40/115/5 39/116/5
f 36/117/6 33/118/6 37/119/6 40/120/6
f 41/121/1 44/122/1 43/123/1 42/124/1
f 48/125/2 45/126/2 46/127/2 47/128/2
f 41/129/3 42/130/3 46/131/3 45/132/3
f 42/133/4 43/134/4 47/135/4 46/136/4
f 43/137/5 44/138/5 48/139/5 47/140/5
f 44/141/6 41/142/6 45/143/6 48/144/6
f 49/145/1 52/146/1 51/147/1 50/148/1
f 56/149/2 53/150/2 54/151/2 55/152/2
f 49/153/3 50/154/3 54/155/3 53/156/3
f 50/157/4 51/158/4 55/159/4 54/160/4
f 51/161/5 52/162/5 56/163/5 55/164/5
f 52/165/6 49/166/6 53/167/6 56/168/6
f 57/169/1 60/170/1 59/171/1 58/172/1
f 64/173/2 61/174/2 62/175/2 63/176/2
f 57/177/3 58/178/3 62/179/3 61/180/3
f 58/181/4 59/182/4 63/183/4 62/184/4
f 59/185/5 60/186/5 64/187/5 63/188/5
f 60/189/6 57/190/6 61/191/6 64/192/6
f 65/193/1 68/194/1 67/195/1 66/196/1
f 72/197/2 69/198/2 70/199/2 71/200/2
f 65/201/3 66/202/3 70/203/3 69/204/3
f 66/205/4 67/206/4 71/207/4 70/208/4
f 67/209/5 68/210/5 72/211/5 71/212/5
f 68/213/6 65/214/6 69/215/6 72/216/6
f 73/217/1 76/218/1 75/219/1 74/220/1
f 80/221/2 77/222/2 78/223/2 79/224/2
f 73/225/3 74/226/3 78/227/3 77/228/3
f 74/229/4 75/230/4 79/231/4 78/232/4
f 75/233/5 76/234/5 80/235/5 79/236/5
f 76/237/6 73/238/6 77/239/6 80/240/6
f 81/241/1 84/242/1 83/243/1 82/244/1
f 88/245/2 85/246/2 86/247/2 87/248/2
f 81/249/3 82/250/3 86/251/3 85/252/3
f 82/253/4 83/254/4 87/255/4 86/256/4
f 83/257/5 84/258/5 88/259/5 87/260/5
f 84/261/6 81/262/6 85/263/6 88/264/6
f 89/265/1 92/266/1 91/267/1 90/268/1
f 96/269/2 93/270/2 94/271/2 95/272/2
f 89/273/3 90/274/3 94/275/3 93/276/3
f 90/277/4 91/278/4 95/279/4 94/280/4
f 91/281/5 92/282/5 96/283/5 95/284/5
f 92/285/6 89/286/6 93/287/6 96/288/6
f 97/289/1 100/290/1 99/291/1 98/292/1
f 104/293/2 101/294/2 102/295/2 103/296/2
f 97/297/3 98/298/3 102/299/3 101/300/3
f 98/301/4 99/302/4 103/303/4 102/304/4
f 99/305/5 100/306/5 104/307/5 103/308/5
f 100/309/6 97/310/6 101/311/6 104/312/6
f 105/313/7 109/314/7 110/315/7 108/316/7
f 108/317/8 110/318/8 113/319/8 112/320/8
f 106/321/9 112/320/9 113/319/9 111/322/9
f 111/322/10 113/319/10 116/323/10 115/324/10
f 107/325/11 115/326/11 116/327/11 114/328/11
f 114/328/12 116/327/12 110/329/12 109/330/12
f 110/318/13 116/323/13 113/319/13
f 117/331/14 121/332/14 122/333/14 120/334/14
f 120/334/15 122/333/15 125/335/15 124/336/15
f 118/337/16 124/338/16 125/339/16 123/340/16
f 123/341/17 125/342/17 128/343/17 127/344/17
f 119/345/18 127/344/18 128/343/18 126/346/18
f 126/347/19 128/348/19 122/333/19 121/332/19
f 122/349/20 128/350/20 125/351/20
f 129/352/21 133/353/21 134/354/21 132/355/21
f 132/356/22 134/357/22 137/358/22 136/359/22
f 130/360/23 136/359/23 137/358/23 135/361/23
f 135/361/24 137/358/24 140/362/24 139/363/24
f 131/364/25 139/365/25 140/366/25 138/367/25
f 138/367/26 140/366/26 134/368/26 133/369/26
f 134/357/27 140/362/27 137/358/27
f 141/370/28 145/371/28 146/372/28 144/373/28
f 144/374/29 146/375/29 149/376/29 148/377/29
f 142/378/30 148/377/30 149/376/30 147/379/30
f 147/380/31 149/381/31 152/382/31 151/383/31
f 143/384/32 151/383/32 152/382/32 150/385/32
f 150/385/33 152/382/33 146/386/33 145/387/33
f 146/386/34 152/382/34 149/381/34
f 153/388/35 157/389/35 158/390/35 156/391/35
f 156/391/36 158/390/36 161/392/36 160/393/36
f 154/394/37 160/395/37 161/396/37 159/397/37
f 159/398/38 161/399/38 164/400/38 163/401/38
f 155/402/39 163/401/39 164/400/39 162/403/39
f 162/404/40 164/405/40 158/390/40 157/389/40
f 158/390/41 164/405/41 161/392/41
f 165/406/42 169/407/42 170/408/42 168/409/42
f 168/410/43 170/411/43 173/412/43 172/413/43
f 166/414/44 172/413/44 173/412/44 171/415/44
f 171/415/45 173/412/45 176/416/45 175/417/45
f 167/418/46 175/419/46 176/420/46 174/421/46
f 174/421/47 176/420/47 170/422/47 169/423/47
f 170/424/48 176/425/48 173/426/48
f 177/427/49 181/428/49 182/429/49 180/430/49
f 180/430/50 182/429/50 185/431/50 184/432/50
f 178/433/51 184/434/51 185/435/51 183/436/51
f 183/437/52 185/438/52 188/439/52 187/440/52
f 179/441/53 187/440/53 188/439/53 186/442/53
f 186/443/54 188/444/54 182/429/54 181/428/54
f 182/429/55 188/444/55 185/431/55
f 189/445/56 193/446/56 194/447/56 192/448/56
f 192/448/57 194/447/57 197/449/57 196/450/57
f 190/451/58 196/452/58 197/453/58 195/454/58
f 195/454/59 197/453/59 200/455/59 199/456/59
f 191/457/60 199/458/60 200/459/60 198/460/60
f 198/461/61 200/462/61 194/447/61 193/446/61
f 194/447/62 200/462/62 197/449/62
f 107/325/63 114/328/63 148/377/63 142/378/63
f 114/328/64 109/330/64 144/374/64 148/377/64
f 109/314/65 105/313/65 141/370/65 144/373/65
f 106/321/66 111/322/66 121/332/66 117/331/66
f 111/322/67 115/324/67 126/347/67 121/332/67
f 115/326/68 107/325/68 119/345/68 126/346/68
f 118/337/69 123/340/69 133/353/69 129/352/69
f 123/341/70 127/344/70 138/367/70 133/369/70
f 127/344/71 119/345/71 131/364/71 138/367/71
f 130/360/72 135/361/72 151/383/72 143/384/72
f 135/361/73 139/363/73 147/380/73 151/383/73
f 139/365/74 131/364/74 142/378/74 147/379/74
f 153/388/75 156/391/75 193/446/75 189/445/75
f 156/391/76 160/393/76 198/461/76 193/446/76
f 160/395/77 154/394/77 191/457/77 198/460/77
f 179/441/78 186/442/78 199/458/78 191/457/78
f 186/443/79 181/428/79 195/454/79 199/456/79
f 181/428/80 177/427/80 190/451/80 195/454/80
f 167/418/81 174/421/81 187/440/81 179/441/81
f 174/421/82 169/423/82 183/437/82 187/440/82
f 169/407/83 165/406/83 178/433/83 183/436/83
f 154/394/84 159/397/84 175/419/84 167/418/84
f 159/398/85 163/401/85 171/415/85 175/417/85
f 163/401/86 155/402/86 166/414/86 171/415/86
f 105/313/87 108/316/87 157/389/87 153/388/87
f 108/317/88 112/320/88 162/403/88 157/463/88
f 112/320/89 106/321/89 155/402/89 162/403/89
f 117/331/90 120/334/90 172/413/90 166/414/90
f 120/334/91 124/336/91 168/410/91 172/413/91
f 124/338/92 118/337/92 165/406/92 168/409/92
f 129/352/93 132/355/93 184/434/93 178/433/93
f 132/356/94 136/359/94 180/430/94 184/432/94
f 136/359/95 130/360/95 177/427/95 180/430/95
f 143/384/96 150/385/96 196/452/96 190/451/96
f 150/385/97 145/387/97 192/464/97 196/452/97
f 145/371/98 141/370/98 189/445/98 192/448/98
f 141/370/6 105/313/6 153/388/6 189/445/6
f 107/325/1 142/378/1 131/364/1 119/345/1
f 106/321/3 117/331/3 166/414/3 155/402/3
f 118/337/4 129/352/4 178/433/4 165/406/4
f 130/360/5 143/384/5 190/451/5 177/427/5
f 191/457/2 154/394/2 167/418/2 179/441/2
f 201/465/99 225/466/99 226/467/99 202/468/99
f 202/468/100 226/467/100 227/469/100 203/470/100
f 203/470/101 227/469/101 228/471/101 204/472/101
f 204/473/102 228/474/102 229/475/102 205/476/102
f 205/476/103 229/475/103 230/477/103 206/478/103
f 206/478/104 230/477/104 231/479/104 207/480/104
f 207/480/105 231/479/105 232/481/105 208/482/105
f 208/482/106 232/481/106 233/483/106 209/484/106
f 209/484/107 233/483/107 234/485/107 210/486/107
f 210/487/108 234/488/108 235/489/108 211/490/108
f 211/490/109 235/489/109 236/491/109 212/492/109
f 212/492/110 236/491/110 237/493/110 213/494/110
f 213/494/111 237/493/111 238/495/111 214/496/111
f 214/496/112 238/495/112 239/497/112 215/498/112
f 215/498/113 239/497/113 240/499/113 216/500/113
f 216/501/114 240/502/114 241/503/114 217/504/114
f 217/504/115 241/503/115 242/505/115 218/506/115
f 218/506/116 242/505/116 243/507/116 219/508/116
f 219/508/117 243/507/117 244/509/117 220/510/117
f 220/510/118 244/509/118 245/511/118 221/512/118
f 221/512/119 245/511/119 246/513/119 222/514/119
f 222/515/120 246/516/120 247/517/120 223/518/120
f 223/518/121 247/517/121 248/519/121 224/520/121
f 224/520/122 248/519/122 225/466/122 201/465/122
f 201/521/3 202/522/3 203/523/3 204/524/3 205/525/3 206/526/3 207/527/3 208/528/3 209/529/3 210/530/3 211/531/3 212/532/3 213/533/3 214/534/3 215/535/3 216/536/3 217/537/3 218/538/3 219/539/3 220/540/3 221/541/3 222/542/3 223/543/3 224/544/3
f 248/545/5 247/546/5 246/547/5 245/548/5 244/549/5 243/550/5 242/551/5 241/552/5 240/553/5 239/554/5 238/555/5 237/556/5 236/557/5 235/558/5 234/559/5 233/560/5 232/561/5 231/562/5 230/563/5 229/564/5 228/565/5 227/566/5 226/567/5 225/568/5
f 249/569/123 273/570/123 274/571/123 250/572/123
f 250/572/124 274/571/124 275/573/124 251/574/124
f 251/574/125 275/573/125 276/575/125 252/576/125
f 252/577/126 276/578/126 277/579/126 253/580/126
f 253/580/103 277/579/103 278/581/103 254/582/103
f 254/582/104 278/581/104 279/583/104 255/584/104
f 255/584/105 279/583/105 280/585/105 256/586/105
f 256/586/127 280/585/127 281/587/127 257/588/127
f 257/588/128 281/587/128 282/589/128 258/590/128
f 258/591/108 282/592/108 283/593/108 259/594/108
f 259/594/109 283/593/109 284/595/109 260/596/109
f 260/596/110 284/595/110 285/597/110 261/598/110
f 261/598/111 285/597/111 286/599/111 262/600/111
f 262/600/112 286/599/112 287/601/112 263/602/112
f 263/602/113 287/601/113 288/603/113 264/604/113
f 264/605/129 288/606/129 289/607/129 265/608/129
f 265/608/130 289/607/130 290/609/130 266/610/130
f 266/610/116 290/609/116 291/611/116 267/612/116
f 267/612/117 291/611/117 292/613/117 268/614/117
f 268/614/118 292/613/118 293/615/118 269/616/118
f 269/616/131 293/615/131 294/617/131 270/618/131
f 270/619/132 294/620/132 295/621/132 271/622/132
f 271/622/133 295/621/133 296/623/133 272/624/133
f 272/624/134 296/623/134 273/570/134 249/569/134
f 249/625/3 250/626/3 251/627/3 252/628/3 253/629/3 254/630/3 255/631/3 256/632/3 257/633/3 258/634/3 259/635/3 260/636/3 261/637/3 262/638/3 263/639/3 264/640/3 265/641/3 266/642/3 267/643/3 268/644/3 269/645/3 270/646/3 271/647/3 272/648/3
f 296/649/5 295/650/5 294/651/5 293/652/5 292/653/5 291/654/5 290/655/5 289/656/5 288/657/5 287/658/5 286/659/5 285/660/5 284/661/5 283/662/5 282/663/5 281/664/5 280/665/5 279/666/5 278/667/5 277/668/5 276/669/5 275/670/5 274/671/5 273/672/5
f 297/673/99 321/674/99 322/675/99 298/676/99
f 298/676/100 322/675/100 323/677/100 299/678/100
f 299/678/101 323/677/101 324/679/101 300/680/101
f 300/681/102 324/682/102 325/683/102 301/684/102
f 301/684/103 325/683/103 326/685/103 302/686/103
f 302/686/104 326/685/104 327/687/104 303/688/104
f 303/688/105 327/687/105 328/689/105 304/690/105
f 304/690/106 328/689/106 329/691/106 305/692/106
f 305/692/107 329/691/107 330/693/107 306/694/107
f 306/695/135 330/696/135 331/697/135 307/698/135
f 307/698/109 331/697/109 332/699/109 308/700/109
f 308/700/110 332/699/110 333/701/110 309/702/110
f 309/702/111 333/701/111 334/703/111 310/704/111
f 310/704/112 334/703/112 335/705/112 311/706/112
f 311/706/136 335/705/136 336/707/136 312/708/136
f 312/709/114 336/710/114 337/711/114 313/712/114
f 313/712/115 337/711/115 338/713/115 314/714/115
f 314/714/116 338/713/116 339/715/116 315/716/116
f 315/716/117 339/715/117 340/717/117 316/718/117
f 316/718/118 340/717/118 341/719/118 317/720/118
f 317/720/119 341/719/119 342/721/119 318/722/119
f 318/723/120 342/724/120 343/725/120 319/726/120
f 319/726/121 343/725/121 344/727/121 320/728/121
f 320/728/122 344/727/122 321/674/122 297/673/122
f 297/729/3 298/730/3 299/731/3 300/732/3 301/733/3 302/734/3 303/735/3 304/736/3 305/737/3 306/738/3 307/739/3 308/740/3 309/741/3 310/742/3 311/743/3 312/744/3 313/745/3 314/746/3 315/747/3 316/748/3 317/749/3 318/750/3 319/751/3 320/752/3
f 344/753/5 343/754/5 342/755/5 341/756/5 340/757/5 339/758/5 338/759/5 337/760/5 336/761/5 335/762/5 334/763/5 333/764/5 332/765/5 331/766/5 330/767/5 329/768/5 328/769/5 327/770/5 326/771/5 325/772/5 324/773/5 323/774/5 322/775/5 321/776/5
f 345/777/123 369/778/123 370/779/123 346/780/123
f 346/780/124 370/779/124 371/781/124 347/782/124
f 347/782/137 371/781/137 372/783/137 348/784/137
f 348/785/126 372/786/126 373/787/126 349/788/126
f 349/788/138 373/787/138 374/789/138 350/790/138
f 350/790/104 374/789/104 375/791/104 351/792/104
f 351/792/105 375/791/105 376/793/105 352/794/105
f 352/794/139 376/793/139 377/795/139 353/796/139
f 353/796/128 377/795/128 378/797/128 354/798/128
f 354/799/108 378/800/108 379/801/108 355/802/108
f 355/802/109 379/801/109 380/803/109 356/804/109
f 356/804/110 380/803/110 381/805/110 357/806/110
f 357/806/111 381/805/111 382/807/111 358/808/111
f 358/808/112 382/807/112 383/809/112 359/810/112
f 359/810/113 383/809/113 384/811/113 360/812/113
f 360/813/114 384/814/114 385/815/114 361/816/114
f 361/816/130 385/815/130 386/817/130 362/818/130
f 362/818/116 386/817/116 387/819/116 363/820/116
f 363/820/117 387/819/117 388/821/117 364/822/117
f 364/822/118 388/821/118 389/823/118 365/824/118
f 365/824/140 389/823/140 390/825/140 366/826/140
f 366/827/132 390/828/132 391/829/132 367/830/132
f 367/830/133 391/829/133 392/831/133 368/832/133
f 368/832/134 392/831/134 369/778/134 345/777/134
f 345/833/3 346/834/3 347/835/3 348/836/3 349/837/3 350/838/3 351/839/3 352/840/3 353/841/3 354/842/3 355/843/3 356/844/3 357/845/3 358/846/3 359/847/3 360/848/3 361/849/3 362/850/3 363/851/3 364/852/3 365/853/3 366/854/3 367/855/3 368/856/3
f 392/857/5 391/858/5 390/859/5 389/860/5 388/861/5 387/862/5 386/863/5 385/864/5 384/865/5 383/866/5 382/867/5 381/868/5 380/869/5 379/870/5 378/871/5 377/872/5 376/873/5 375/874/5 374/875/5 373/876/5 372/877/5 371/878/5 370/879/5 369/880/5
f 393/881/99 417/882/99 418/883/99 394/884/99
f 394/884/100 418/883/100 419/885/100 395/886/100
f 395/886/101 419/885/101 420/887/101 396/888/101
f 396/889/102 420/890/102 421/891/102 397/892/102
f 397/892/103 421/891/103 422/893/103 398/894/103
f 398/894/104 422/893/104 423/895/104 399/896/104
f 399/896/105 423/895/105 424/897/105 400/898/105
f 400/898/106 424/897/106 425/899/106 401/900/106
f 401/900/107 425/899/107 426/901/107 402/902/107
f 402/903/135 426/904/135 427/905/135 403/906/135
f 403/906/109 427/905/109 428/907/109 404/908/109
f 404/908/110 428/907/110 429/909/110 405/910/110
f 405/910/111 429/909/111 430/911/111 406/912/111
f 406/912/112 430/911/112 431/913/112 407/914/112
f 407/914/136 431/913/136 432/915/136 408/916/136
f 408/917/114 432/918/114 433/919/114 409/920/114
f 409/920/115 433/919/115 434/921/115 410/922/115
f 410/922/116 434/921/116 435/923/116 411/924/116
f 411/924/117 435/923/117 436/925/117 412/926/117
f 412/926/118 436/925/118 437/927/118 413/928/118
f 413/928/119 437/927/119 438/929/119 414/930/119
f 414/931/120 438/932/120 439/933/120 415/934/120
f 415/934/121 439/933/121 440/935/121 416/936/121
f 416/936/122 440/935/122 417/882/122 393/881/122
f 393/937/3 394/938/3 395/939/3 396/940/3 397/941/3 398/942/3 399/943/3 400/944/3 401/945/3 402/946/3 403/947/3 404/948/3 405/949/3 406/950/3 407/951/3 408/952/3 409/953/3 410/954/3 411/955/3 412/956/3 413/957/3 414/958/3 415/959/3 416/960/3
f 440/961/5 439/962/5 438/963/5 437/964/5 436/965/5 435/966/5 434/967/5 433/968/5 432/969/5 431/970/5 430/971/5 429/972/5 428/973/5 427/974/5 426/975/5 425/976/5 424/977/5 423/978/5 422/979/5 421/980/5 420/981/5 419/982/5 418/983/5 417/984/5
f 441/985/123 465/986/123 466/987/123 442/988/123
f 442/988/124 466/987/124 467/989/124 443/990/124
f 443/990/125 467/989/125 468/991/125 444/992/125
f 444/993/141 468/994/141 469/995/141 445/996/141
f 445/996/103 469/995/103 470/997/103 446/998/103
f 446/998/104 470/997/104 471/999/104 447/1000/104
f 447/1000/105 471/999/105 472/1001/105 448/1002/105
f 448/1002/127 472/1001/127 473/1003/127 449/1004/127
f 449/1004/107 473/1003/107 474/1005/107 450/1006/107
f 450/1007/108 474/1008/108 475/1009/108 451/1010/108
f 451/1010/109 475/1009/109 476/1011/109 452/1012/109
f 452/1012/110 476/1011/110 477/1013/110 453/1014/110
f 453/1014/111 477/1013/111 478/1015/111 454/1016/111
f 454/1016/112 478/1015/112 479/1017/112 455/1018/112
f 455/1018/113 479/1017/113 480/1019/113 456/1020/113
f 456/1021/114 480/1022/114 481/1023/114 457/1024/114
f 457/1024/130 481/1023/130 482/1025/130 458/1026/130
f 458/1026/116 482/1025/116 483/1027/116 459/1028/116
f 459/1028/117 483/1027/117 484/1029/117 460/1030/117
f 460/1030/118 484/1029/118 485/1031/118 461/1032/118
f 461/1032/140 485/1031/140 486/1033/140 462/1034/140
f 462/1035/132 486/1036/132 487/1037/132 463/1038/132
f 463/1038/133 487/1037/133 488/1039/133 464/1040/133
f 464/1040/134 488/1039/134 465/986/134 441/985/134
f 441/1041/3 442/1042/3 443/1043/3 444/1044/3 445/1045/3 446/1046/3 447/1047/3 448/1048/3 449/1049/3 450/1050/3 451/1051/3 452/1052/3 453/1053/3 454/1054/3 455/1055/3 456/1056/3 457/1057/3 458/1058/3 459/1059/3 460/1060/3 461/1061/3 462/1062/3 463/1063/3 464/1064/3
f 488/1065/5 487/1066/5 486/1067/5 485/1068/5 484/1069/5 483/1070/5 482/1071/5 481/1072/5 480/1073/5 479/1074/5 478/1075/5 477/1076/5 476/1077/5 475/1078/5 474/1079/5 473/1080/5 472/1081/5 471/1082/5 470/1083/5 469/1084/5 468/1085/5 467/1086/5 466/1087/5 465/1088/5
f 489/1089/99 513/1090/99 514/1091/99 490/1092/99
f 490/1092/100 514/1091/100 515/1093/100 491/1094/100
f 491/1094/101 515/1093/101 516/1095/101 492/1096/101
f 492/1097/102 516/1098/102 517/1099/102 493/1100/102
f 493/1100/103 517/1099/103 518/1101/103 494/1102/103
f 494/1102/104 518/1101/104 519/1103/104 495/1104/104
f 495/1104/105 519/1103/105 520/1105/105 496/1106/105
f 496/1106/106 520/1105/106 521/1107/106 497/1108/106
f 497/1108/107 521/1107/107 522/1109/107 498/1110/107
f 498/1111/108 522/1112/108 523/1113/108 499/1114/108
f 499/1114/109 523/1113/109 524/1115/109 500/1116/109
f 500/1116/110 524/1115/110 525/1117/110 501/1118/110
f 501/1118/111 525/1117/111 526/1119/111 502/1120/111
f 502/1120/112 526/1119/112 527/1121/112 503/1122/112
f 503/1122/113 527/1121/113 528/1123/113 504/1124/113
f 504/1125/129 528/1126/129 529/1127/129 505/1128/129
f 505/1128/115 529/1127/115 530/1129/115 506/1130/115
f 506/1130/116 530/1129/116 531/1131/116 507/1132/116
f 507/1132/117 531/1131/117 532/1133/117 508/1134/117
f 508/1134/118 532/1133/118 533/1135/118 509/1136/118
f 509/1136/119 533/1135/119 534/1137/119 510/1138/119
f 510/1139/120 534/1140/120 535/1141/120 511/1142/120
f 511/1142/121 535/1141/121 536/1143/121 512/1144/121
f 512/1144/122 536/1143/122 513/1090/122 489/1089/122
f 489/1145/3 490/1146/3 491/1147/3 492/1148/3 493/1149/3 494/1150/3 495/1151/3 496/1152/3 497/1153/3 498/1154/3 499/1155/3 500/1156/3 501/1157/3 502/1158/3 503/1159/3 504/1160/3 505/1161/3 506/1162/3 507/1163/3 508/1164/3 509/1165/3 510/1166/3 511/1167/3 512/1168/3
f 536/1169/5 535/1170/5 534/1171/5 533/1172/5 532/1173/5 531/1174/5 530/1175/5 529/1176/5 528/1177/5 527/1178/5 526/1179/5 525/1180/5 524/1181/5 523/1182/5 522/1183/5 521/1184/5 520/1185/5 519/1186/5 518/1187/5 517/1188/5 516/1189/5 515/1190/5 514/1191/5 513/1192/5
f 537/1193/123 561/1194/123 562/1195/123 538/1196/123
f 538/1196/124 562/1195/124 563/1197/124 539/1198/124
f 539/1198/125 563/1197/125 564/1199/125 540/1200/125
f 540/1201/126 564/1202/126 565/1203/126 541/1204/126
f 541/1204/103 565/1203/103 566/1205/103 542/1206/103
f 542/1206/104 566/1205/104 567/1207/104 543/1208/104
f 543/1208/105 567/1207/105 568/1209/105 544/1210/105
f 544/1210/127 568/1209/127 569/1211/127 545/1212/127
f 545/1212/128 569/1211/128 570/1213/128 546/1214/128
f 546/1215/108 570/1216/108 571/1217/108 547/1218/108
f 547/1218/109 571/1217/109 572/1219/109 548/1220/109
f 548/1220/110 572/1219/110 573/1221/110 549/1222/110
f 549/1222/111 573/1221/111 574/1223/111 550/1224/111
f 550/1224/112 574/1223/112 575/1225/112 551/1226/112
f 551/1226/113 575/1225/113 576/1227/113 552/1228/113
f 552/1229/129 576/1230/129 577/1231/129 553/1232/129
f 553/1232/130 577/1231/130 578/1233/130 554/1234/130
f 554/1234/116 578/1233/116 579/1235/116 555/1236/116
f 555/1236/117 579/1235/117 580/1237/117 556/1238/117
f 556/1238/118 580/1237/118 581/1239/118 557/1240/118
f 557/1240/131 581/1239/131 582/1241/131 558/1242/131
f 558/1243/132 582/1244/132 583/1245/132 559/1246/132
f 559/1246/133 583/1245/133 584/1247/133 560/1248/133
f 560/1248/134 584/1247/134 561/1194/134 537/1193/134
f 537/1249/3 538/1250/3 539/1251/3 540/1252/3 541/1253/3 542/1254/3 543/1255/3 544/1256/3 545/1257/3 546/1258/3 547/1259/3 548/1260/3 549/1261/3 550/1262/3 551/1263/3 552/1264/3 553/1265/3 554/1266/3 555/1267/3 556/1268/3 557/1269/3 558/1270/3 559/1271/3 560/1272/3
f 584/1273/5 583/1274/5 582/1275/5 581/1276/5 580/1277/5 579/1278/5 578/1279/5 577/1280/5 576/1281/5 575/1282/5 574/1283/5 573/1284/5 572/1285/5 571/1286/5 570/1287/5 569/1288/5 568/1289/5 567/1290/5 566/1291/5 565/1292/5 564/1293/5 563/1294/5 562/1295/5 561/1296/5
