# Blender 5.1.1
# www.blender.org
mtllib E4_table_big.mtl
o E4_table_big.001
v -0.334999 -1.010000 0.760000
v 0.335001 -1.010000 0.760000
v 0.335001 1.010000 0.760000
v -0.334999 1.010000 0.760000
v -0.334999 -1.010000 0.800000
v 0.335001 -1.010000 0.800000
v 0.335001 1.010000 0.800000
v -0.334999 1.010000 0.800000
v -0.274998 -0.950000 0.000000
v -0.224998 -0.950000 0.000000
v -0.224998 -0.900001 0.000000
v -0.274998 -0.900001 0.000000
v -0.274998 -0.950000 0.762000
v -0.224998 -0.950000 0.762000
v -0.224998 -0.900001 0.762000
v -0.274998 -0.900001 0.762000
v 0.225002 -0.950000 0.000000
v 0.275002 -0.950000 0.000000
v 0.275002 -0.900001 0.000000
v 0.225002 -0.900001 0.000000
v 0.225002 -0.950000 0.762000
v 0.275002 -0.950000 0.762000
v 0.275002 -0.900001 0.762000
v 0.225002 -0.900001 0.762000
v -0.274998 0.900000 0.000000
v -0.224998 0.900000 0.000000
v -0.224998 0.950000 0.000000
v -0.274998 0.950000 0.000000
v -0.274998 0.900000 0.762000
v -0.224998 0.900000 0.762000
v -0.224998 0.950000 0.762000
v -0.274998 0.950000 0.762000
v 0.225002 0.900000 0.000000
v 0.275002 0.900000 0.000000
v 0.275002 0.950000 0.000000
v 0.225002 0.950000 0.000000
v 0.225002 0.900000 0.762000
v 0.275002 0.900000 0.762000
v 0.275002 0.950000 0.762000
v 0.225002 0.950000 0.762000
vn -0.0000 -0.0000 -1.0000
vn -0.0000 -0.0000 1.0000
vn -0.0000 -1.0000 -0.0000
vn 1.0000 -0.0000 -0.0000
vn -0.0000 1.0000 -0.0000
vn -1.0000 -0.0000 -0.0000
vt 0.332490 0.003314
vt 0.332490 0.995755
vt 0.003314 0.995755
vt 0.003314 0.003314
vt 0.339120 0.995755
vt 0.339120 0.003314
vt 0.668296 0.003314
vt 0.668296 0.995755
vt 0.996686 0.003315
vt 0.996686 0.332491
vt 0.977034 0.332491
vt 0.977034 0.003315
vt 0.694575 0.003314
vt 0.694575 0.995755
vt 0.674923 0.995755
vt 0.674923 0.003314
vt 0.996686 0.384318
vt 0.996686 0.713494
vt 0.977033 0.713494
vt 0.977034 0.384318
vt 0.720856 0.003314
vt 0.720856 0.995755
vt 0.701204 0.995755
vt 0.701204 0.003314
vt 0.783243 0.796517
vt 0.783243 0.821083
vt 0.758678 0.821083
vt 0.758678 0.796517
vt 0.789872 0.821083
vt 0.789872 0.796517
vt 0.814437 0.796517
vt 0.814437 0.821083
vt 0.876824 0.377690
vt 0.852259 0.377690
vt 0.852259 0.003314
vt 0.876824 0.003314
vt 0.814438 0.377690
vt 0.789873 0.377690
vt 0.789873 0.003314
vt 0.814438 0.003314
vt 0.876825 0.758695
vt 0.852260 0.758695
vt 0.852260 0.384319
vt 0.876825 0.384319
vt 0.814438 0.758695
vt 0.789872 0.758695
vt 0.789872 0.384319
vt 0.814438 0.384319
vt 0.845630 0.765323
vt 0.845630 0.789889
vt 0.821065 0.789889
vt 0.821065 0.765323
vt 0.821065 0.821083
vt 0.821065 0.796517
vt 0.845630 0.796517
vt 0.845630 0.821083
vt 0.908018 0.377690
vt 0.883453 0.377690
vt 0.883453 0.003314
vt 0.908018 0.003314
vt 0.845632 0.377690
vt 0.821066 0.377690
vt 0.821066 0.003314
vt 0.845632 0.003314
vt 0.908018 0.758695
vt 0.883453 0.758695
vt 0.883453 0.384319
vt 0.908018 0.384319
vt 0.845631 0.758695
vt 0.821066 0.758695
vt 0.821066 0.384319
vt 0.845631 0.384319
vt 0.752049 0.765324
vt 0.752049 0.789889
vt 0.727484 0.789889
vt 0.727484 0.765324
vt 0.758679 0.789889
vt 0.758679 0.765324
vt 0.783244 0.765324
vt 0.783244 0.789889
vt 0.939211 0.377690
vt 0.914646 0.377690
vt 0.914646 0.003314
vt 0.939211 0.003314
vt 0.752050 0.377690
vt 0.727485 0.377690
vt 0.727485 0.003314
vt 0.752050 0.003314
vt 0.939211 0.758695
vt 0.914646 0.758695
vt 0.914646 0.384319
vt 0.939211 0.384319
vt 0.752050 0.758695
vt 0.727485 0.758695
vt 0.727485 0.384319
vt 0.752050 0.384319
vt 0.814437 0.765324
vt 0.814437 0.789889
vt 0.789872 0.789889
vt 0.789872 0.765324
vt 0.727484 0.821083
vt 0.727484 0.796517
vt 0.752049 0.796517
vt 0.752049 0.821083
vt 0.970405 0.377690
vt 0.945840 0.377690
vt 0.945840 0.003314
vt 0.970405 0.003314
vt 0.783244 0.377690
vt 0.758679 0.377690
vt 0.758679 0.003314
vt 0.783244 0.003314
vt 0.970405 0.758695
vt 0.945840 0.758695
vt 0.945840 0.384319
vt 0.970405 0.384319
vt 0.783244 0.758695
vt 0.758678 0.758695
vt 0.758678 0.384319
vt 0.783244 0.384319
s 0
usemtl exp_E4_table_big
f 1/1/1 4/2/1 3/3/1 2/4/1
f 8/5/2 5/6/2 6/7/2 7/8/2
f 1/9/3 2/10/3 6/11/3 5/12/3
f 2/13/4 3/14/4 7/15/4 6/16/4
f 3/17/5 4/18/5 8/19/5 7/20/5
f 4/21/6 1/22/6 5/23/6 8/24/6
f 9/25/1 12/26/1 11/27/1 10/28/1
f 16/29/2 13/30/2 14/31/2 15/32/2
f 9/33/3 10/34/3 14/35/3 13/36/3
f 10/37/4 11/38/4 15/39/4 14/40/4
f 11/41/5 12/42/5 16/43/5 15/44/5
f 12/45/6 9/46/6 13/47/6 16/48/6
f 17/49/1 20/50/1 19/51/1 18/52/1
f 24/53/2 21/54/2 22/55/2 23/56/2
f 17/57/3 18/58/3 22/59/3 21/60/3
f 18/61/4 19/62/4 23/63/4 22/64/4
f 19/65/5 20/66/5 24/67/5 23/68/5
f 20/69/6 17/70/6 21/71/6 24/72/6
f 25/73/1 28/74/1 27/75/1 26/76/1
f 32/77/2 29/78/2 30/79/2 31/80/2
f 25/81/3 26/82/3 30/83/3 29/84/3
f 26/85/4 27/86/4 31/87/4 30/88/4
f 27/89/5 28/90/5 32/91/5 31/92/5
f 28/93/6 25/94/6 29/95/6 32/96/6
f 33/97/1 36/98/1 35/99/1 34/100/1
f 40/101/2 37/102/2 38/103/2 39/104/2
f 33/105/3 34/106/3 38/107/3 37/108/3
f 34/109/4 35/110/4 39/111/4 38/112/4
f 35/113/5 36/114/5 40/115/5 39/116/5
f 36/117/6 33/118/6 37/119/6 40/120/6
