# Blender 5.1.1
# www.blender.org
mtllib E8_final.mtl
o E8_final.001
v -0.000000 0.125000 0.000000
v -0.000000 0.150000 0.380000
v 0.027815 0.121866 0.000000
v 0.033378 0.146239 0.380000
v 0.054235 0.112621 0.000000
v 0.065082 0.135145 0.380000
v 0.077936 0.097729 0.000000
v 0.093523 0.117275 0.380000
v 0.097729 0.077936 0.000000
v 0.117275 0.093523 0.380000
v 0.112621 0.054235 0.000000
v 0.135145 0.065083 0.380000
v 0.121866 0.027815 0.000000
v 0.146239 0.033378 0.380000
v 0.125000 0.000000 0.000000
v 0.150000 0.000000 0.380000
v 0.121866 -0.027815 0.000000
v 0.146239 -0.033378 0.380000
v 0.112621 -0.054235 0.000000
v 0.135145 -0.065083 0.380000
v 0.097729 -0.077936 0.000000
v 0.117275 -0.093523 0.380000
v 0.077936 -0.097729 0.000000
v 0.093523 -0.117275 0.380000
v 0.054235 -0.112621 0.000000
v 0.065082 -0.135145 0.380000
v 0.027815 -0.121866 0.000000
v 0.033378 -0.146239 0.380000
v -0.000000 -0.125000 0.000000
v -0.000000 -0.150000 0.380000
v -0.027815 -0.121866 0.000000
v -0.033378 -0.146239 0.380000
v -0.054236 -0.112621 0.000000
v -0.065083 -0.135145 0.380000
v -0.077936 -0.097729 0.000000
v -0.093524 -0.117275 0.380000
v -0.097729 -0.077936 0.000000
v -0.117275 -0.093523 0.380000
v -0.112621 -0.054235 0.000000
v -0.135146 -0.065083 0.380000
v -0.121866 -0.027815 0.000000
v -0.146240 -0.033378 0.380000
v -0.125000 0.000000 0.000000
v -0.150000 0.000000 0.380000
v -0.121866 0.027815 0.000000
v -0.146240 0.033378 0.380000
v -0.112621 0.054235 0.000000
v -0.135146 0.065083 0.380000
v -0.097729 0.077936 0.000000
v -0.117275 0.093523 0.380000
v -0.077936 0.097729 0.000000
v -0.093524 0.117275 0.380000
v -0.054236 0.112621 0.000000
v -0.065083 0.135145 0.380000
v -0.027815 0.121866 0.000000
v -0.033378 0.146239 0.380000
v -0.000000 0.153000 0.378000
v -0.000000 0.153000 0.392000
v 0.052329 0.143773 0.378000
v 0.052329 0.143773 0.392000
v 0.098346 0.117205 0.378000
v 0.098346 0.117205 0.392000
v 0.132502 0.076500 0.378000
v 0.132502 0.076500 0.392000
v 0.150675 0.026568 0.378000
v 0.150675 0.026568 0.392000
v 0.150675 -0.026568 0.378000
v 0.150675 -0.026568 0.392000
v 0.132502 -0.076500 0.378000
v 0.132502 -0.076500 0.392000
v 0.098346 -0.117205 0.378000
v 0.098346 -0.117205 0.392000
v 0.052329 -0.143773 0.378000
v 0.052329 -0.143773 0.392000
v -0.000000 -0.153000 0.378000
v -0.000000 -0.153000 0.392000
v -0.052329 -0.143773 0.378000
v -0.052329 -0.143773 0.392000
v -0.098347 -0.117205 0.378000
v -0.098347 -0.117205 0.392000
v -0.132502 -0.076500 0.378000
v -0.132502 -0.076500 0.392000
v -0.150676 -0.026568 0.378000
v -0.150676 -0.026568 0.392000
v -0.150676 0.026568 0.378000
v -0.150676 0.026568 0.392000
v -0.132502 0.076500 0.378000
v -0.132502 0.076500 0.392000
v -0.098347 0.117205 0.378000
v -0.098347 0.117205 0.392000
v -0.052329 0.143773 0.378000
v -0.052329 0.143773 0.392000
vn -0.0000 0.7079 -0.7064
vn -0.0000 0.7526 0.6585
vn 0.1575 0.6901 -0.7064
vn 0.1675 0.7337 0.6585
vn 0.3071 0.6378 -0.7064
vn 0.3265 0.6780 0.6585
vn 0.4413 0.5534 -0.7064
vn 0.4692 0.5884 0.6585
vn 0.5534 0.4413 -0.7064
vn 0.5884 0.4692 0.6585
vn 0.6378 0.3071 -0.7064
vn 0.6780 0.3265 0.6585
vn 0.6901 0.1575 -0.7064
vn 0.7337 0.1675 0.6585
vn 0.7079 -0.0000 -0.7064
vn 0.7526 -0.0000 0.6585
vn 0.6901 -0.1575 -0.7064
vn 0.7337 -0.1675 0.6585
vn 0.6378 -0.3071 -0.7064
vn 0.6780 -0.3265 0.6585
vn 0.5534 -0.4413 -0.7064
vn 0.5884 -0.4692 0.6585
vn 0.4413 -0.5534 -0.7064
vn 0.4692 -0.5884 0.6585
vn 0.3071 -0.6378 -0.7064
vn 0.3265 -0.6780 0.6585
vn 0.1575 -0.6901 -0.7064
vn 0.1675 -0.7337 0.6585
vn -0.0000 -0.7079 -0.7064
vn -0.0000 -0.7526 0.6585
vn -0.1575 -0.6901 -0.7064
vn -0.1675 -0.7337 0.6585
vn -0.3071 -0.6378 -0.7064
vn -0.3265 -0.6780 0.6585
vn -0.4413 -0.5534 -0.7064
vn -0.4692 -0.5884 0.6585
vn -0.5534 -0.4413 -0.7064
vn -0.5884 -0.4692 0.6585
vn -0.6378 -0.3071 -0.7064
vn -0.6780 -0.3265 0.6585
vn -0.6901 -0.1575 -0.7064
vn -0.7337 -0.1675 0.6585
vn -0.7079 -0.0000 -0.7064
vn -0.7526 -0.0000 0.6585
vn -0.6901 0.1575 -0.7064
vn -0.7337 0.1675 0.6585
vn -0.6378 0.3071 -0.7064
vn -0.6780 0.3265 0.6585
vn -0.5534 0.4413 -0.7064
vn -0.5884 0.4692 0.6585
vn -0.4413 0.5534 -0.7064
vn -0.4692 0.5884 0.6585
vn -0.3071 0.6378 -0.7064
vn -0.3265 0.6780 0.6585
vn -0.1575 0.6901 -0.7064
vn -0.1675 0.7337 0.6585
vn -0.0000 0.7423 -0.6700
vn -0.0000 0.7423 0.6700
vn 0.2539 0.6976 -0.6700
vn 0.2539 0.6976 0.6700
vn 0.4772 0.5687 -0.6700
vn 0.4772 0.5687 0.6700
vn 0.6429 0.3712 -0.6700
vn 0.6429 0.3712 0.6700
vn 0.7311 0.1289 -0.6700
vn 0.7311 0.1289 0.6700
vn 0.7311 -0.1289 -0.6700
vn 0.7311 -0.1289 0.6700
vn 0.6429 -0.3712 -0.6700
vn 0.6429 -0.3712 0.6700
vn 0.4772 -0.5687 -0.6700
vn 0.4772 -0.5687 0.6700
vn 0.2539 -0.6976 -0.6700
vn 0.2539 -0.6976 0.6700
vn -0.0000 -0.7423 -0.6700
vn -0.0000 -0.7423 0.6700
vn -0.2539 -0.6976 -0.6700
vn -0.2539 -0.6976 0.6700
vn -0.4772 -0.5687 -0.6700
vn -0.4772 -0.5687 0.6700
vn -0.6429 -0.3712 -0.6700
vn -0.6429 -0.3712 0.6700
vn -0.7311 -0.1289 -0.6700
vn -0.7311 -0.1289 0.6700
vn -0.7311 0.1289 -0.6700
vn -0.7311 0.1289 0.6700
vn -0.6429 0.3712 -0.6700
vn -0.6429 0.3712 0.6700
vn -0.4772 0.5687 -0.6700
vn -0.4772 0.5687 0.6700
vn -0.2539 0.6976 -0.6700
vn -0.2539 0.6976 0.6700
vt 0.665275 0.693404
vt 0.668271 0.313174
vt 0.700792 0.313493
vt 0.692376 0.693671
vt 0.730666 0.314116
vt 0.717271 0.694190
vt 0.756395 0.315011
vt 0.738712 0.694935
vt 0.022042 0.695618
vt 0.002521 0.315788
vt 0.026242 0.314689
vt 0.041810 0.694702
vt 0.054647 0.313861
vt 0.065480 0.694013
vt 0.086311 0.313348
vt 0.091867 0.693585
vt 0.119647 0.313174
vt 0.119647 0.693439
vt 0.152982 0.313348
vt 0.147426 0.693585
vt 0.184646 0.313861
vt 0.173813 0.694013
vt 0.213051 0.314689
vt 0.197484 0.694702
vt 0.236772 0.315788
vt 0.217251 0.695618
vt 0.779120 0.694936
vt 0.761437 0.315011
vt 0.787166 0.314116
vt 0.800561 0.694190
vt 0.817040 0.313493
vt 0.825456 0.693671
vt 0.849561 0.313174
vt 0.852557 0.693404
vt 0.883098 0.313174
vt 0.880504 0.693404
vt 0.915970 0.313493
vt 0.907898 0.693671
vt 0.946528 0.314116
vt 0.933363 0.694190
vt 0.973240 0.315011
vt 0.955623 0.694935
vt 0.257382 0.997479
vt 0.241815 0.617465
vt 0.270219 0.616638
vt 0.281053 0.996789
vt 0.301883 0.616125
vt 0.307439 0.996361
vt 0.335219 0.615951
vt 0.335219 0.996216
vt 0.368555 0.616125
vt 0.362999 0.996361
vt 0.400219 0.616638
vt 0.389386 0.996789
vt 0.428624 0.617465
vt 0.413056 0.997479
vt 0.562209 0.694935
vt 0.544592 0.315011
vt 0.571304 0.314116
vt 0.584469 0.694190
vt 0.601862 0.313493
vt 0.609934 0.693671
vt 0.539549 0.478814
vt 0.532084 0.511520
vt 0.517529 0.541744
vt 0.496613 0.567972
vt 0.470385 0.588888
vt 0.440161 0.603443
vt 0.407455 0.610908
vt 0.373909 0.610908
vt 0.341203 0.603444
vt 0.310979 0.588888
vt 0.284751 0.567972
vt 0.263835 0.541744
vt 0.249280 0.511520
vt 0.241815 0.478814
vt 0.241815 0.445268
vt 0.249280 0.412562
vt 0.263835 0.382338
vt 0.284751 0.356110
vt 0.310979 0.335194
vt 0.341203 0.320639
vt 0.373909 0.313174
vt 0.407455 0.313174
vt 0.440161 0.320639
vt 0.470385 0.335194
vt 0.496613 0.356110
vt 0.517529 0.382338
vt 0.532084 0.412562
vt 0.539549 0.445268
vt 0.634734 0.313174
vt 0.637327 0.693404
vt 0.650321 0.214853
vt 0.632891 0.192996
vt 0.620762 0.167809
vt 0.614541 0.140555
vt 0.614541 0.112599
vt 0.620762 0.085345
vt 0.632892 0.060157
vt 0.650322 0.038301
vt 0.672178 0.020871
vt 0.697365 0.008742
vt 0.724620 0.002521
vt 0.752575 0.002521
vt 0.779830 0.008742
vt 0.805017 0.020871
vt 0.826873 0.038301
vt 0.844303 0.060158
vt 0.856433 0.085345
vt 0.862653 0.112600
vt 0.862653 0.140555
vt 0.856432 0.167810
vt 0.844303 0.192997
vt 0.826873 0.214853
vt 0.805016 0.232283
vt 0.779829 0.244412
vt 0.752575 0.250633
vt 0.724619 0.250633
vt 0.697365 0.244412
vt 0.672178 0.232283
vt 0.478073 0.718181
vt 0.492042 0.718099
vt 0.491644 0.768637
vt 0.477675 0.768719
vt 0.490499 0.810589
vt 0.476530 0.810671
vt 0.471487 0.850062
vt 0.457520 0.850062
vt 0.455939 0.809409
vt 0.469906 0.809409
vt 0.455098 0.759541
vt 0.469065 0.759541
vt 0.455098 0.706472
vt 0.469065 0.706472
vt 0.455939 0.656604
vt 0.469906 0.656604
vt 0.457520 0.615951
vt 0.471487 0.615951
vt 0.512598 0.810671
vt 0.498628 0.810589
vt 0.497483 0.768637
vt 0.511452 0.768719
vt 0.497085 0.718099
vt 0.511054 0.718181
vt 0.497483 0.665072
vt 0.511452 0.665153
vt 0.498628 0.615951
vt 0.512598 0.616032
vt 0.450055 0.850062
vt 0.436088 0.850062
vt 0.434507 0.809409
vt 0.448474 0.809409
vt 0.433666 0.759541
vt 0.447633 0.759541
vt 0.433666 0.706472
vt 0.447633 0.706472
vt 0.434507 0.656604
vt 0.448474 0.656604
vt 0.436088 0.615951
vt 0.450055 0.615951
vt 0.020672 0.231729
vt 0.002521 0.181861
vt 0.002521 0.128792
vt 0.020672 0.078924
vt 0.054784 0.038271
vt 0.100743 0.011736
vt 0.153005 0.002521
vt 0.205268 0.011737
vt 0.251226 0.038271
vt 0.285338 0.078924
vt 0.303489 0.128792
vt 0.303489 0.181861
vt 0.285338 0.231729
vt 0.251226 0.272382
vt 0.205268 0.298916
vt 0.153005 0.308132
vt 0.100743 0.298916
vt 0.054784 0.272382
vt 0.476530 0.616032
vt 0.490499 0.615951
vt 0.491644 0.665072
vt 0.477675 0.665153
vt 0.308531 0.181861
vt 0.308531 0.128792
vt 0.326682 0.078924
vt 0.360794 0.038271
vt 0.406753 0.011736
vt 0.459015 0.002521
vt 0.511278 0.011736
vt 0.557237 0.038271
vt 0.591349 0.078924
vt 0.609499 0.128792
vt 0.609499 0.181861
vt 0.591349 0.231729
vt 0.557237 0.272382
vt 0.511278 0.298916
vt 0.459015 0.308132
vt 0.406753 0.298916
vt 0.360794 0.272382
vt 0.326682 0.231729
s 1
usemtl exp_E8_final
f 1/1/1 2/2/2 4/3/4 3/4/3
f 3/4/3 4/3/4 6/5/6 5/6/5
f 5/6/5 6/5/6 8/7/8 7/8/7
f 7/9/7 8/10/8 10/11/10 9/12/9
f 9/12/9 10/11/10 12/13/12 11/14/11
f 11/14/11 12/13/12 14/15/14 13/16/13
f 13/16/13 14/15/14 16/17/16 15/18/15
f 15/18/15 16/17/16 18/19/18 17/20/17
f 17/20/17 18/19/18 20/21/20 19/22/19
f 19/22/19 20/21/20 22/23/22 21/24/21
f 21/24/21 22/23/22 24/25/24 23/26/23
f 23/27/23 24/28/24 26/29/26 25/30/25
f 25/30/25 26/29/26 28/31/28 27/32/27
f 27/32/27 28/31/28 30/33/30 29/34/29
f 29/34/29 30/33/30 32/35/32 31/36/31
f 31/36/31 32/35/32 34/37/34 33/38/33
f 33/38/33 34/37/34 36/39/36 35/40/35
f 35/40/35 36/39/36 38/41/38 37/42/37
f 37/43/37 38/44/38 40/45/40 39/46/39
f 39/46/39 40/45/40 42/47/42 41/48/41
f 41/48/41 42/47/42 44/49/44 43/50/43
f 43/50/43 44/49/44 46/51/46 45/52/45
f 45/52/45 46/51/46 48/53/48 47/54/47
f 47/54/47 48/53/48 50/55/50 49/56/49
f 49/57/49 50/58/50 52/59/52 51/60/51
f 51/60/51 52/59/52 54/61/54 53/62/53
f 4/63/4 2/64/2 56/65/56 54/66/54 52/67/52 50/68/50 48/69/48 46/70/46 44/71/44 42/72/42 40/73/40 38/74/38 36/75/36 34/76/34 32/77/32 30/78/30 28/79/28 26/80/26 24/81/24 22/82/22 20/83/20 18/84/18 16/85/16 14/86/14 12/87/12 10/88/10 8/89/8 6/90/6
f 53/62/53 54/61/54 56/91/56 55/92/55
f 55/92/55 56/91/56 2/2/2 1/1/1
f 1/93/1 3/94/3 5/95/5 7/96/7 9/97/9 11/98/11 13/99/13 15/100/15 17/101/17 19/102/19 21/103/21 23/104/23 25/105/25 27/106/27 29/107/29 31/108/31 33/109/33 35/110/35 37/111/37 39/112/39 41/113/41 43/114/43 45/115/45 47/116/47 49/117/49 51/118/51 53/119/53 55/120/55
f 57/121/57 58/122/58 60/123/60 59/124/59
f 59/124/59 60/123/60 62/125/62 61/126/61
f 61/127/61 62/128/62 64/129/64 63/130/63
f 63/130/63 64/129/64 66/131/66 65/132/65
f 65/132/65 66/131/66 68/133/68 67/134/67
f 67/134/67 68/133/68 70/135/70 69/136/69
f 69/136/69 70/135/70 72/137/72 71/138/71
f 71/139/71 72/140/72 74/141/74 73/142/73
f 73/142/73 74/141/74 76/143/76 75/144/75
f 75/144/75 76/143/76 78/145/78 77/146/77
f 77/146/77 78/145/78 80/147/80 79/148/79
f 79/149/79 80/150/80 82/151/82 81/152/81
f 81/152/81 82/151/82 84/153/84 83/154/83
f 83/154/83 84/153/84 86/155/86 85/156/85
f 85/156/85 86/155/86 88/157/88 87/158/87
f 87/158/87 88/157/88 90/159/90 89/160/89
f 60/161/60 58/162/58 92/163/92 90/164/90 88/165/88 86/166/86 84/167/84 82/168/82 80/169/80 78/170/78 76/171/76 74/172/74 72/173/72 70/174/70 68/175/68 66/176/66 64/177/64 62/178/62
f 89/179/89 90/180/90 92/181/92 91/182/91
f 91/182/91 92/181/92 58/122/58 57/121/57
f 57/183/57 59/184/59 61/185/61 63/186/63 65/187/65 67/188/67 69/189/69 71/190/71 73/191/73 75/192/75 77/193/77 79/194/79 81/195/81 83/196/83 85/197/85 87/198/87 89/199/89 91/200/91
